<svg width="1016" height="1023" viewBox="0 0 1016 1023" fill="none" xmlns="http://www.w3.org/2000/svg">
<g clip-path="url(#clip0_426_14)">
<rect width="1016" height="1023" fill="white"/>
<path d="M670 427.5C670 416.971 675.76 411 683.5 411C691.285 411 697 416.971 697 427.5C697 438.029 691.285 444 683.5 444C675.767 444 670 438.029 670 427.5ZM689.665 427.5C689.665 420.253 687.145 417.245 683.5 417.245C679.9 417.245 677.38 420.253 677.38 427.5C677.38 434.747 679.9 437.756 683.5 437.756C687.152 437.756 689.672 434.747 689.672 427.5H689.665Z" fill="white"/>
<path d="M726 433.247C726 438.994 721.76 444 712.441 444C707.921 444 703.168 442.749 700 440.524L702.982 434.777C705.452 436.631 708.853 437.697 712.254 437.697C716.029 437.697 718.358 436.121 718.358 433.479C718.358 430.93 716.681 429.261 710.763 429.261H702.423L704.1 411H723.996V417.025H710.391L709.878 423.19H712.534C722.179 423.19 726 427.5 726 433.247Z" fill="white"/>
<path d="M61.207 59.9844L70.251 29.6094H79.0576L65.6895 68H59.8887L61.207 59.9844ZM52.875 29.6094L61.8926 59.9844L63.2637 68H57.4102L44.1211 29.6094H52.875ZM96.3545 61.5664V48.8574C96.3545 47.9434 96.2051 47.1611 95.9062 46.5107C95.6074 45.8428 95.1416 45.3242 94.5088 44.9551C93.8936 44.5859 93.0938 44.4014 92.1094 44.4014C91.2656 44.4014 90.5361 44.5508 89.9209 44.8496C89.3057 45.1309 88.8311 45.5439 88.4971 46.0889C88.1631 46.6162 87.9961 47.2402 87.9961 47.9609H80.4023C80.4023 46.748 80.6836 45.5967 81.2461 44.5068C81.8086 43.417 82.626 42.459 83.6982 41.6328C84.7705 40.7891 86.0449 40.1299 87.5215 39.6553C89.0156 39.1807 90.6855 38.9434 92.5312 38.9434C94.7461 38.9434 96.7148 39.3125 98.4375 40.0508C100.16 40.7891 101.514 41.8965 102.498 43.373C103.5 44.8496 104.001 46.6953 104.001 48.9102V61.1182C104.001 62.6826 104.098 63.9658 104.291 64.9678C104.484 65.9521 104.766 66.8135 105.135 67.5518V68H97.4619C97.0928 67.2266 96.8115 66.2598 96.6182 65.0996C96.4424 63.9219 96.3545 62.7441 96.3545 61.5664ZM97.3564 50.624L97.4092 54.9219H93.1641C92.1621 54.9219 91.292 55.0361 90.5537 55.2646C89.8154 55.4932 89.209 55.8184 88.7344 56.2402C88.2598 56.6445 87.9082 57.1191 87.6797 57.6641C87.4688 58.209 87.3633 58.8066 87.3633 59.457C87.3633 60.1074 87.5127 60.6963 87.8115 61.2236C88.1104 61.7334 88.541 62.1377 89.1035 62.4365C89.666 62.7178 90.3252 62.8584 91.0811 62.8584C92.2236 62.8584 93.2168 62.6299 94.0605 62.1729C94.9043 61.7158 95.5547 61.1533 96.0117 60.4854C96.4863 59.8174 96.7324 59.1846 96.75 58.5869L98.7539 61.8037C98.4727 62.5244 98.0859 63.2715 97.5938 64.0449C97.1191 64.8184 96.5127 65.5479 95.7744 66.2334C95.0361 66.9014 94.1484 67.4551 93.1113 67.8945C92.0742 68.3164 90.8438 68.5273 89.4199 68.5273C87.6094 68.5273 85.9658 68.167 84.4893 67.4463C83.0303 66.708 81.8701 65.6973 81.0088 64.4141C80.165 63.1133 79.7432 61.6367 79.7432 59.9844C79.7432 58.4902 80.0244 57.1631 80.5869 56.0029C81.1494 54.8428 81.9756 53.8672 83.0654 53.0762C84.1729 52.2676 85.5527 51.6611 87.2051 51.2568C88.8574 50.835 90.7734 50.624 92.9531 50.624H97.3564ZM117.87 27.5V68H110.25V27.5H117.87ZM132.161 39.4707V68H124.541V39.4707H132.161ZM124.066 32.0352C124.066 30.9277 124.453 30.0137 125.227 29.293C126 28.5723 127.037 28.2119 128.338 28.2119C129.621 28.2119 130.649 28.5723 131.423 29.293C132.214 30.0137 132.609 30.9277 132.609 32.0352C132.609 33.1426 132.214 34.0566 131.423 34.7773C130.649 35.498 129.621 35.8584 128.338 35.8584C127.037 35.8584 126 35.498 125.227 34.7773C124.453 34.0566 124.066 33.1426 124.066 32.0352ZM155.285 61.7773V27.5H162.932V68H156.05L155.285 61.7773ZM137.25 54.0781V53.5244C137.25 51.3447 137.496 49.3672 137.988 47.5918C138.48 45.7988 139.201 44.2607 140.15 42.9775C141.1 41.6943 142.269 40.7012 143.657 39.998C145.046 39.2949 146.628 38.9434 148.403 38.9434C150.073 38.9434 151.532 39.2949 152.78 39.998C154.046 40.7012 155.118 41.7031 155.997 43.0039C156.894 44.2871 157.614 45.8076 158.159 47.5654C158.704 49.3057 159.1 51.2129 159.346 53.2871V54.5C159.1 56.4863 158.704 58.332 158.159 60.0371C157.614 61.7422 156.894 63.2363 155.997 64.5195C155.118 65.7852 154.046 66.7695 152.78 67.4727C151.515 68.1758 150.038 68.5273 148.351 68.5273C146.575 68.5273 144.993 68.167 143.604 67.4463C142.233 66.7256 141.073 65.7148 140.124 64.4141C139.192 63.1133 138.48 61.584 137.988 59.8262C137.496 58.0684 137.25 56.1523 137.25 54.0781ZM144.844 53.5244V54.0781C144.844 55.2559 144.932 56.3545 145.107 57.374C145.301 58.3936 145.608 59.2988 146.03 60.0898C146.47 60.8633 147.032 61.4697 147.718 61.9092C148.421 62.3311 149.273 62.542 150.275 62.542C151.576 62.542 152.648 62.252 153.492 61.6719C154.336 61.0742 154.978 60.2568 155.417 59.2197C155.874 58.1826 156.138 56.9873 156.208 55.6338V52.1797C156.155 51.0723 155.997 50.0791 155.733 49.2002C155.487 48.3037 155.118 47.5391 154.626 46.9062C154.151 46.2734 153.554 45.7812 152.833 45.4297C152.13 45.0781 151.295 44.9023 150.328 44.9023C149.344 44.9023 148.5 45.1309 147.797 45.5879C147.094 46.0273 146.522 46.6338 146.083 47.4072C145.661 48.1807 145.345 49.0947 145.134 50.1494C144.94 51.1865 144.844 52.3115 144.844 53.5244ZM176.88 39.4707V68H169.26V39.4707H176.88ZM168.785 32.0352C168.785 30.9277 169.172 30.0137 169.945 29.293C170.719 28.5723 171.756 28.2119 173.057 28.2119C174.34 28.2119 175.368 28.5723 176.142 29.293C176.933 30.0137 177.328 30.9277 177.328 32.0352C177.328 33.1426 176.933 34.0566 176.142 34.7773C175.368 35.498 174.34 35.8584 173.057 35.8584C171.756 35.8584 170.719 35.498 169.945 34.7773C169.172 34.0566 168.785 33.1426 168.785 32.0352ZM197.13 39.4707V44.8496H180.519V39.4707H197.13ZM184.632 32.4307H192.226V59.4043C192.226 60.2305 192.331 60.8633 192.542 61.3027C192.771 61.7422 193.104 62.0498 193.544 62.2256C193.983 62.3838 194.537 62.4629 195.205 62.4629C195.68 62.4629 196.102 62.4453 196.471 62.4102C196.857 62.3574 197.183 62.3047 197.446 62.252L197.473 67.8418C196.822 68.0527 196.119 68.2197 195.363 68.3428C194.607 68.4658 193.772 68.5273 192.858 68.5273C191.188 68.5273 189.729 68.2549 188.481 67.71C187.251 67.1475 186.302 66.251 185.634 65.0205C184.966 63.79 184.632 62.1729 184.632 60.1689V32.4307ZM209.918 64.7832L217.485 39.4707H225.633L214.163 72.2979C213.917 73.0186 213.583 73.792 213.161 74.6182C212.757 75.4443 212.203 76.2266 211.5 76.9648C210.814 77.7207 209.944 78.3359 208.89 78.8105C207.853 79.2852 206.578 79.5225 205.066 79.5225C204.346 79.5225 203.757 79.4785 203.3 79.3906C202.843 79.3027 202.298 79.1797 201.665 79.0215V73.458C201.858 73.458 202.061 73.458 202.271 73.458C202.482 73.4756 202.685 73.4844 202.878 73.4844C203.88 73.4844 204.697 73.3701 205.33 73.1416C205.963 72.9131 206.473 72.5615 206.859 72.0869C207.246 71.6299 207.554 71.0322 207.782 70.2939L209.918 64.7832ZM206.754 39.4707L212.95 60.1426L214.031 68.1846L208.863 68.7383L198.606 39.4707H206.754ZM257.511 61.5664V48.8574C257.511 47.9434 257.361 47.1611 257.062 46.5107C256.764 45.8428 256.298 45.3242 255.665 44.9551C255.05 44.5859 254.25 44.4014 253.266 44.4014C252.422 44.4014 251.692 44.5508 251.077 44.8496C250.462 45.1309 249.987 45.5439 249.653 46.0889C249.319 46.6162 249.152 47.2402 249.152 47.9609H241.559C241.559 46.748 241.84 45.5967 242.402 44.5068C242.965 43.417 243.782 42.459 244.854 41.6328C245.927 40.7891 247.201 40.1299 248.678 39.6553C250.172 39.1807 251.842 38.9434 253.688 38.9434C255.902 38.9434 257.871 39.3125 259.594 40.0508C261.316 40.7891 262.67 41.8965 263.654 43.373C264.656 44.8496 265.157 46.6953 265.157 48.9102V61.1182C265.157 62.6826 265.254 63.9658 265.447 64.9678C265.641 65.9521 265.922 66.8135 266.291 67.5518V68H258.618C258.249 67.2266 257.968 66.2598 257.774 65.0996C257.599 63.9219 257.511 62.7441 257.511 61.5664ZM258.513 50.624L258.565 54.9219H254.32C253.318 54.9219 252.448 55.0361 251.71 55.2646C250.972 55.4932 250.365 55.8184 249.891 56.2402C249.416 56.6445 249.064 57.1191 248.836 57.6641C248.625 58.209 248.52 58.8066 248.52 59.457C248.52 60.1074 248.669 60.6963 248.968 61.2236C249.267 61.7334 249.697 62.1377 250.26 62.4365C250.822 62.7178 251.481 62.8584 252.237 62.8584C253.38 62.8584 254.373 62.6299 255.217 62.1729C256.061 61.7158 256.711 61.1533 257.168 60.4854C257.643 59.8174 257.889 59.1846 257.906 58.5869L259.91 61.8037C259.629 62.5244 259.242 63.2715 258.75 64.0449C258.275 64.8184 257.669 65.5479 256.931 66.2334C256.192 66.9014 255.305 67.4551 254.268 67.8945C253.23 68.3164 252 68.5273 250.576 68.5273C248.766 68.5273 247.122 68.167 245.646 67.4463C244.187 66.708 243.026 65.6973 242.165 64.4141C241.321 63.1133 240.899 61.6367 240.899 59.9844C240.899 58.4902 241.181 57.1631 241.743 56.0029C242.306 54.8428 243.132 53.8672 244.222 53.0762C245.329 52.2676 246.709 51.6611 248.361 51.2568C250.014 50.835 251.93 50.624 254.109 50.624H258.513ZM278.446 45.5615V68H270.853V39.4707H277.972L278.446 45.5615ZM277.339 52.7334H275.282C275.282 50.624 275.555 48.7256 276.1 47.0381C276.645 45.333 277.409 43.8828 278.394 42.6875C279.378 41.4746 280.547 40.5518 281.9 39.9189C283.271 39.2686 284.801 38.9434 286.488 38.9434C287.824 38.9434 289.046 39.1367 290.153 39.5234C291.261 39.9102 292.21 40.5254 293.001 41.3691C293.81 42.2129 294.425 43.3291 294.847 44.7178C295.286 46.1064 295.506 47.8027 295.506 49.8066V68H287.859V49.7803C287.859 48.5146 287.684 47.5303 287.332 46.8271C286.98 46.124 286.462 45.6318 285.776 45.3506C285.108 45.0518 284.282 44.9023 283.298 44.9023C282.278 44.9023 281.391 45.1045 280.635 45.5088C279.896 45.9131 279.281 46.4756 278.789 47.1963C278.314 47.8994 277.954 48.7256 277.708 49.6748C277.462 50.624 277.339 51.6436 277.339 52.7334ZM318.129 61.7773V27.5H325.775V68H318.894L318.129 61.7773ZM300.094 54.0781V53.5244C300.094 51.3447 300.34 49.3672 300.832 47.5918C301.324 45.7988 302.045 44.2607 302.994 42.9775C303.943 41.6943 305.112 40.7012 306.501 39.998C307.89 39.2949 309.472 38.9434 311.247 38.9434C312.917 38.9434 314.376 39.2949 315.624 39.998C316.89 40.7012 317.962 41.7031 318.841 43.0039C319.737 44.2871 320.458 45.8076 321.003 47.5654C321.548 49.3057 321.943 51.2129 322.189 53.2871V54.5C321.943 56.4863 321.548 58.332 321.003 60.0371C320.458 61.7422 319.737 63.2363 318.841 64.5195C317.962 65.7852 316.89 66.7695 315.624 67.4727C314.358 68.1758 312.882 68.5273 311.194 68.5273C309.419 68.5273 307.837 68.167 306.448 67.4463C305.077 66.7256 303.917 65.7148 302.968 64.4141C302.036 63.1133 301.324 61.584 300.832 59.8262C300.34 58.0684 300.094 56.1523 300.094 54.0781ZM307.688 53.5244V54.0781C307.688 55.2559 307.775 56.3545 307.951 57.374C308.145 58.3936 308.452 59.2988 308.874 60.0898C309.313 60.8633 309.876 61.4697 310.562 61.9092C311.265 62.3311 312.117 62.542 313.119 62.542C314.42 62.542 315.492 62.252 316.336 61.6719C317.18 61.0742 317.821 60.2568 318.261 59.2197C318.718 58.1826 318.981 56.9873 319.052 55.6338V52.1797C318.999 51.0723 318.841 50.0791 318.577 49.2002C318.331 48.3037 317.962 47.5391 317.47 46.9062C316.995 46.2734 316.397 45.7812 315.677 45.4297C314.974 45.0781 314.139 44.9023 313.172 44.9023C312.188 44.9023 311.344 45.1309 310.641 45.5879C309.938 46.0273 309.366 46.6338 308.927 47.4072C308.505 48.1807 308.188 49.0947 307.978 50.1494C307.784 51.1865 307.688 52.3115 307.688 53.5244ZM345.63 29.6094H359.947C362.883 29.6094 365.405 30.0488 367.515 30.9277C369.642 31.8066 371.276 33.1074 372.419 34.8301C373.562 36.5527 374.133 38.6709 374.133 41.1846C374.133 43.2412 373.781 45.0078 373.078 46.4844C372.393 47.9434 371.417 49.165 370.151 50.1494C368.903 51.1162 367.436 51.8896 365.748 52.4697L363.243 53.7881H350.798L350.745 47.6182H360C361.389 47.6182 362.54 47.3721 363.454 46.8799C364.368 46.3877 365.054 45.7021 365.511 44.8232C365.985 43.9443 366.223 42.9248 366.223 41.7646C366.223 40.5342 365.994 39.4707 365.537 38.5742C365.08 37.6777 364.386 36.9922 363.454 36.5176C362.522 36.043 361.354 35.8057 359.947 35.8057H353.54V68H345.63V29.6094ZM367.093 68L358.339 50.8877L366.697 50.835L375.557 67.6309V68H367.093ZM392.88 68.5273C390.665 68.5273 388.679 68.1758 386.921 67.4727C385.163 66.752 383.669 65.7588 382.438 64.4932C381.226 63.2275 380.294 61.7598 379.644 60.0898C378.993 58.4023 378.668 56.6094 378.668 54.7109V53.6562C378.668 51.4941 378.976 49.5166 379.591 47.7236C380.206 45.9307 381.085 44.375 382.228 43.0566C383.388 41.7383 384.794 40.7275 386.446 40.0244C388.099 39.3037 389.962 38.9434 392.036 38.9434C394.058 38.9434 395.851 39.2773 397.415 39.9453C398.979 40.6133 400.289 41.5625 401.344 42.793C402.416 44.0234 403.225 45.5 403.77 47.2227C404.314 48.9277 404.587 50.8262 404.587 52.918V56.082H381.911V51.0195H397.125V50.4395C397.125 49.3848 396.932 48.4443 396.545 47.6182C396.176 46.7744 395.613 46.1064 394.857 45.6143C394.102 45.1221 393.135 44.876 391.957 44.876C390.955 44.876 390.094 45.0957 389.373 45.5352C388.652 45.9746 388.063 46.5898 387.606 47.3809C387.167 48.1719 386.833 49.1035 386.604 50.1758C386.394 51.2305 386.288 52.3906 386.288 53.6562V54.7109C386.288 55.8535 386.446 56.9082 386.763 57.875C387.097 58.8418 387.562 59.6768 388.16 60.3799C388.775 61.083 389.514 61.6279 390.375 62.0146C391.254 62.4014 392.247 62.5947 393.354 62.5947C394.726 62.5947 396 62.3311 397.178 61.8037C398.373 61.2588 399.401 60.4414 400.263 59.3516L403.954 63.3594C403.356 64.2207 402.539 65.0469 401.502 65.8379C400.482 66.6289 399.252 67.2793 397.811 67.7891C396.369 68.2812 394.726 68.5273 392.88 68.5273ZM416.347 45.5615V68H408.753V39.4707H415.872L416.347 45.5615ZM415.239 52.7334H413.183C413.183 50.624 413.455 48.7256 414 47.0381C414.545 45.333 415.31 43.8828 416.294 42.6875C417.278 41.4746 418.447 40.5518 419.801 39.9189C421.172 39.2686 422.701 38.9434 424.389 38.9434C425.725 38.9434 426.946 39.1367 428.054 39.5234C429.161 39.9102 430.11 40.5254 430.901 41.3691C431.71 42.2129 432.325 43.3291 432.747 44.7178C433.187 46.1064 433.406 47.8027 433.406 49.8066V68H425.76V49.7803C425.76 48.5146 425.584 47.5303 425.232 46.8271C424.881 46.124 424.362 45.6318 423.677 45.3506C423.009 45.0518 422.183 44.9023 421.198 44.9023C420.179 44.9023 419.291 45.1045 418.535 45.5088C417.797 45.9131 417.182 46.4756 416.689 47.1963C416.215 47.8994 415.854 48.7256 415.608 49.6748C415.362 50.624 415.239 51.6436 415.239 52.7334ZM452.312 68.5273C450.097 68.5273 448.11 68.1758 446.353 67.4727C444.595 66.752 443.101 65.7588 441.87 64.4932C440.657 63.2275 439.726 61.7598 439.075 60.0898C438.425 58.4023 438.1 56.6094 438.1 54.7109V53.6562C438.1 51.4941 438.407 49.5166 439.022 47.7236C439.638 45.9307 440.517 44.375 441.659 43.0566C442.819 41.7383 444.226 40.7275 445.878 40.0244C447.53 39.3037 449.394 38.9434 451.468 38.9434C453.489 38.9434 455.282 39.2773 456.847 39.9453C458.411 40.6133 459.721 41.5625 460.775 42.793C461.848 44.0234 462.656 45.5 463.201 47.2227C463.746 48.9277 464.019 50.8262 464.019 52.918V56.082H441.343V51.0195H456.557V50.4395C456.557 49.3848 456.363 48.4443 455.977 47.6182C455.607 46.7744 455.045 46.1064 454.289 45.6143C453.533 45.1221 452.566 44.876 451.389 44.876C450.387 44.876 449.525 45.0957 448.805 45.5352C448.084 45.9746 447.495 46.5898 447.038 47.3809C446.599 48.1719 446.265 49.1035 446.036 50.1758C445.825 51.2305 445.72 52.3906 445.72 53.6562V54.7109C445.72 55.8535 445.878 56.9082 446.194 57.875C446.528 58.8418 446.994 59.6768 447.592 60.3799C448.207 61.083 448.945 61.6279 449.807 62.0146C450.686 62.4014 451.679 62.5947 452.786 62.5947C454.157 62.5947 455.432 62.3311 456.609 61.8037C457.805 61.2588 458.833 60.4414 459.694 59.3516L463.386 63.3594C462.788 64.2207 461.971 65.0469 460.934 65.8379C459.914 66.6289 458.684 67.2793 457.242 67.7891C455.801 68.2812 454.157 68.5273 452.312 68.5273ZM476.49 60.6172L482.423 39.4707H487.248L485.692 47.7764L479.76 68H475.726L476.49 60.6172ZM473.484 39.4707L477.729 60.5908L478.125 68H473.379L466.154 39.4707H473.484ZM492.68 60.248L496.819 39.4707H504.176L496.951 68H492.231L492.68 60.248ZM487.907 39.4707L493.813 60.459L494.631 68H490.57L484.638 47.8027L483.135 39.4707H487.907ZM523.397 61.5664V48.8574C523.397 47.9434 523.248 47.1611 522.949 46.5107C522.65 45.8428 522.185 45.3242 521.552 44.9551C520.937 44.5859 520.137 44.4014 519.152 44.4014C518.309 44.4014 517.579 44.5508 516.964 44.8496C516.349 45.1309 515.874 45.5439 515.54 46.0889C515.206 46.6162 515.039 47.2402 515.039 47.9609H507.445C507.445 46.748 507.727 45.5967 508.289 44.5068C508.852 43.417 509.669 42.459 510.741 41.6328C511.813 40.7891 513.088 40.1299 514.564 39.6553C516.059 39.1807 517.729 38.9434 519.574 38.9434C521.789 38.9434 523.758 39.3125 525.48 40.0508C527.203 40.7891 528.557 41.8965 529.541 43.373C530.543 44.8496 531.044 46.6953 531.044 48.9102V61.1182C531.044 62.6826 531.141 63.9658 531.334 64.9678C531.527 65.9521 531.809 66.8135 532.178 67.5518V68H524.505C524.136 67.2266 523.854 66.2598 523.661 65.0996C523.485 63.9219 523.397 62.7441 523.397 61.5664ZM524.399 50.624L524.452 54.9219H520.207C519.205 54.9219 518.335 55.0361 517.597 55.2646C516.858 55.4932 516.252 55.8184 515.777 56.2402C515.303 56.6445 514.951 57.1191 514.723 57.6641C514.512 58.209 514.406 58.8066 514.406 59.457C514.406 60.1074 514.556 60.6963 514.854 61.2236C515.153 61.7334 515.584 62.1377 516.146 62.4365C516.709 62.7178 517.368 62.8584 518.124 62.8584C519.267 62.8584 520.26 62.6299 521.104 62.1729C521.947 61.7158 522.598 61.1533 523.055 60.4854C523.529 59.8174 523.775 59.1846 523.793 58.5869L525.797 61.8037C525.516 62.5244 525.129 63.2715 524.637 64.0449C524.162 64.8184 523.556 65.5479 522.817 66.2334C522.079 66.9014 521.191 67.4551 520.154 67.8945C519.117 68.3164 517.887 68.5273 516.463 68.5273C514.652 68.5273 513.009 68.167 511.532 67.4463C510.073 66.708 508.913 65.6973 508.052 64.4141C507.208 63.1133 506.786 61.6367 506.786 59.9844C506.786 58.4902 507.067 57.1631 507.63 56.0029C508.192 54.8428 509.019 53.8672 510.108 53.0762C511.216 52.2676 512.596 51.6611 514.248 51.2568C515.9 50.835 517.816 50.624 519.996 50.624H524.399ZM544.913 27.5V68H537.293V27.5H544.913ZM563.423 54.0254V53.4717C563.423 51.3799 563.722 49.4551 564.319 47.6973C564.917 45.9219 565.787 44.3838 566.93 43.083C568.072 41.7822 569.479 40.7715 571.148 40.0508C572.818 39.3125 574.734 38.9434 576.896 38.9434C579.059 38.9434 580.983 39.3125 582.671 40.0508C584.358 40.7715 585.773 41.7822 586.916 43.083C588.076 44.3838 588.955 45.9219 589.553 47.6973C590.15 49.4551 590.449 51.3799 590.449 53.4717V54.0254C590.449 56.0996 590.15 58.0244 589.553 59.7998C588.955 61.5576 588.076 63.0957 586.916 64.4141C585.773 65.7148 584.367 66.7256 582.697 67.4463C581.027 68.167 579.111 68.5273 576.949 68.5273C574.787 68.5273 572.862 68.167 571.175 67.4463C569.505 66.7256 568.09 65.7148 566.93 64.4141C565.787 63.0957 564.917 61.5576 564.319 59.7998C563.722 58.0244 563.423 56.0996 563.423 54.0254ZM571.017 53.4717V54.0254C571.017 55.2207 571.122 56.3369 571.333 57.374C571.544 58.4111 571.878 59.3252 572.335 60.1162C572.81 60.8896 573.425 61.4961 574.181 61.9355C574.937 62.375 575.859 62.5947 576.949 62.5947C578.004 62.5947 578.909 62.375 579.665 61.9355C580.421 61.4961 581.027 60.8896 581.484 60.1162C581.941 59.3252 582.275 58.4111 582.486 57.374C582.715 56.3369 582.829 55.2207 582.829 54.0254V53.4717C582.829 52.3115 582.715 51.2217 582.486 50.2021C582.275 49.165 581.933 48.251 581.458 47.46C581.001 46.6514 580.395 46.0186 579.639 45.5615C578.883 45.1045 577.969 44.876 576.896 44.876C575.824 44.876 574.91 45.1045 574.154 45.5615C573.416 46.0186 572.81 46.6514 572.335 47.46C571.878 48.251 571.544 49.165 571.333 50.2021C571.122 51.2217 571.017 52.3115 571.017 53.4717ZM604.793 68H597.146V36.9395C597.146 34.7773 597.568 32.958 598.412 31.4814C599.273 29.9873 600.478 28.8623 602.024 28.1064C603.589 27.333 605.443 26.9463 607.588 26.9463C608.291 26.9463 608.968 26.999 609.618 27.1045C610.269 27.1924 610.901 27.3066 611.517 27.4473L611.438 33.1689C611.104 33.0811 610.752 33.0195 610.383 32.9844C610.014 32.9492 609.583 32.9316 609.091 32.9316C608.177 32.9316 607.395 33.0898 606.744 33.4062C606.111 33.7051 605.628 34.1533 605.294 34.751C604.96 35.3486 604.793 36.0781 604.793 36.9395V68ZM610.488 39.4707V44.8496H592.901V39.4707H610.488Z" fill="#1C4670"/>
<path d="M643.342 54.3154H633.56V48.1455H643.342C644.854 48.1455 646.084 47.8994 647.033 47.4072C647.982 46.8975 648.677 46.1943 649.116 45.2979C649.556 44.4014 649.775 43.3906 649.775 42.2656C649.775 41.123 649.556 40.0596 649.116 39.0752C648.677 38.0908 647.982 37.2998 647.033 36.7021C646.084 36.1045 644.854 35.8057 643.342 35.8057H636.302V68H628.392V29.6094H643.342C646.348 29.6094 648.923 30.1543 651.067 31.2441C653.229 32.3164 654.882 33.8018 656.024 35.7002C657.167 37.5986 657.738 39.7695 657.738 42.2129C657.738 44.6914 657.167 46.8359 656.024 48.6465C654.882 50.457 653.229 51.8545 651.067 52.8389C648.923 53.8232 646.348 54.3154 643.342 54.3154ZM679.597 61.1709V39.4707H687.19V68H680.045L679.597 61.1709ZM680.44 55.3174L682.682 55.2646C682.682 57.1631 682.462 58.9297 682.022 60.5645C681.583 62.1816 680.924 63.5879 680.045 64.7832C679.166 65.9609 678.059 66.8838 676.723 67.5518C675.387 68.2021 673.813 68.5273 672.003 68.5273C670.614 68.5273 669.331 68.334 668.153 67.9473C666.993 67.543 665.991 66.9189 665.147 66.0752C664.321 65.2139 663.671 64.1152 663.196 62.7793C662.739 61.4258 662.511 59.7998 662.511 57.9014V39.4707H670.104V57.9541C670.104 58.7979 670.201 59.5098 670.395 60.0898C670.605 60.6699 670.896 61.1445 671.265 61.5137C671.634 61.8828 672.064 62.1465 672.557 62.3047C673.066 62.4629 673.629 62.542 674.244 62.542C675.809 62.542 677.039 62.2256 677.936 61.5928C678.85 60.96 679.491 60.0986 679.86 59.0088C680.247 57.9014 680.44 56.6709 680.44 55.3174ZM692.991 27.5H700.585V61.4609L699.82 68H692.991V27.5ZM718.646 53.4453V53.999C718.646 56.126 718.418 58.0771 717.961 59.8525C717.521 61.6279 716.836 63.166 715.904 64.4668C714.973 65.75 713.812 66.752 712.424 67.4727C711.053 68.1758 709.436 68.5273 707.572 68.5273C705.832 68.5273 704.32 68.1758 703.037 67.4727C701.771 66.7695 700.708 65.7764 699.847 64.4932C698.985 63.21 698.291 61.707 697.764 59.9844C697.236 58.2617 696.841 56.3809 696.577 54.3418V53.1289C696.841 51.0898 697.236 49.209 697.764 47.4863C698.291 45.7637 698.985 44.2607 699.847 42.9775C700.708 41.6943 701.771 40.7012 703.037 39.998C704.303 39.2949 705.797 38.9434 707.52 38.9434C709.4 38.9434 711.035 39.3037 712.424 40.0244C713.83 40.7275 714.99 41.7295 715.904 43.0303C716.836 44.3135 717.521 45.8428 717.961 47.6182C718.418 49.376 718.646 51.3184 718.646 53.4453ZM711.053 53.999V53.4453C711.053 52.2852 710.965 51.1953 710.789 50.1758C710.631 49.1387 710.35 48.2334 709.945 47.46C709.541 46.6689 708.987 46.0449 708.284 45.5879C707.599 45.1309 706.711 44.9023 705.621 44.9023C704.584 44.9023 703.705 45.0781 702.984 45.4297C702.264 45.7812 701.666 46.2734 701.191 46.9062C700.734 47.5391 700.392 48.2949 700.163 49.1738C699.935 50.0352 699.794 50.9844 699.741 52.0215V55.4756C699.794 56.8643 700.022 58.0947 700.427 59.167C700.849 60.2217 701.481 61.0566 702.325 61.6719C703.187 62.2695 704.303 62.5684 705.674 62.5684C706.746 62.5684 707.634 62.3574 708.337 61.9355C709.04 61.5137 709.585 60.916 709.972 60.1426C710.376 59.3691 710.657 58.4639 710.815 57.4268C710.974 56.3721 711.053 55.2295 711.053 53.999ZM731.382 27.5V68H723.762V27.5H731.382ZM745.673 39.4707V68H738.053V39.4707H745.673ZM737.578 32.0352C737.578 30.9277 737.965 30.0137 738.738 29.293C739.512 28.5723 740.549 28.2119 741.85 28.2119C743.133 28.2119 744.161 28.5723 744.935 29.293C745.726 30.0137 746.121 30.9277 746.121 32.0352C746.121 33.1426 745.726 34.0566 744.935 34.7773C744.161 35.498 743.133 35.8584 741.85 35.8584C740.549 35.8584 739.512 35.498 738.738 34.7773C737.965 34.0566 737.578 33.1426 737.578 32.0352ZM763.734 62.5947C764.666 62.5947 765.492 62.4189 766.213 62.0674C766.934 61.6982 767.496 61.1885 767.9 60.5381C768.322 59.8701 768.542 59.0879 768.56 58.1914H775.705C775.688 60.1953 775.151 61.9795 774.097 63.5439C773.042 65.0908 771.627 66.3125 769.852 67.209C768.076 68.0879 766.09 68.5273 763.893 68.5273C761.678 68.5273 759.744 68.1582 758.092 67.4199C756.457 66.6816 755.095 65.6621 754.005 64.3613C752.915 63.043 752.098 61.5137 751.553 59.7734C751.008 58.0156 750.735 56.1348 750.735 54.1309V53.3662C750.735 51.3447 751.008 49.4639 751.553 47.7236C752.098 45.9658 752.915 44.4365 754.005 43.1357C755.095 41.8174 756.457 40.7891 758.092 40.0508C759.727 39.3125 761.643 38.9434 763.84 38.9434C766.178 38.9434 768.226 39.3916 769.983 40.2881C771.759 41.1846 773.147 42.4678 774.149 44.1377C775.169 45.79 775.688 47.75 775.705 50.0176H768.56C768.542 49.0684 768.34 48.207 767.953 47.4336C767.584 46.6602 767.039 46.0449 766.318 45.5879C765.615 45.1133 764.745 44.876 763.708 44.876C762.601 44.876 761.695 45.1133 760.992 45.5879C760.289 46.0449 759.744 46.6777 759.357 47.4863C758.971 48.2773 758.698 49.1826 758.54 50.2021C758.399 51.2041 758.329 52.2588 758.329 53.3662V54.1309C758.329 55.2383 758.399 56.3018 758.54 57.3213C758.681 58.3408 758.944 59.2461 759.331 60.0371C759.735 60.8281 760.289 61.4521 760.992 61.9092C761.695 62.3662 762.609 62.5947 763.734 62.5947ZM818.71 61.8301V68H799.383V61.8301H818.71ZM801.94 29.6094V68H794.03V29.6094H801.94ZM830.786 39.4707V68H823.166V39.4707H830.786ZM822.691 32.0352C822.691 30.9277 823.078 30.0137 823.852 29.293C824.625 28.5723 825.662 28.2119 826.963 28.2119C828.246 28.2119 829.274 28.5723 830.048 29.293C830.839 30.0137 831.234 30.9277 831.234 32.0352C831.234 33.1426 830.839 34.0566 830.048 34.7773C829.274 35.498 828.246 35.8584 826.963 35.8584C825.662 35.8584 824.625 35.498 823.852 34.7773C823.078 34.0566 822.691 33.1426 822.691 32.0352ZM844.655 45.377V68H837.035V39.4707H844.181L844.655 45.377ZM843.601 52.7334H841.491C841.491 50.7471 841.729 48.9189 842.203 47.249C842.695 45.5615 843.407 44.1025 844.339 42.8721C845.288 41.624 846.457 40.6572 847.846 39.9717C849.234 39.2861 850.843 38.9434 852.671 38.9434C853.937 38.9434 855.097 39.1367 856.151 39.5234C857.206 39.8926 858.111 40.4814 858.867 41.29C859.641 42.0811 860.238 43.1182 860.66 44.4014C861.082 45.667 861.293 47.1875 861.293 48.9629V68H853.699V49.8066C853.699 48.5059 853.523 47.5039 853.172 46.8008C852.82 46.0977 852.319 45.6055 851.669 45.3242C851.036 45.043 850.271 44.9023 849.375 44.9023C848.391 44.9023 847.529 45.1045 846.791 45.5088C846.07 45.9131 845.473 46.4756 844.998 47.1963C844.523 47.8994 844.172 48.7256 843.943 49.6748C843.715 50.624 843.601 51.6436 843.601 52.7334ZM860.581 51.8633L857.865 52.2061C857.865 50.3428 858.094 48.6113 858.551 47.0117C859.025 45.4121 859.72 44.0059 860.634 42.793C861.565 41.5801 862.717 40.6396 864.088 39.9717C865.459 39.2861 867.041 38.9434 868.834 38.9434C870.205 38.9434 871.453 39.1455 872.578 39.5498C873.703 39.9365 874.661 40.5605 875.452 41.4219C876.261 42.2656 876.876 43.373 877.298 44.7441C877.737 46.1152 877.957 47.7939 877.957 49.7803V68H870.337V49.7803C870.337 48.4619 870.161 47.46 869.81 46.7744C869.476 46.0713 868.983 45.5879 868.333 45.3242C867.7 45.043 866.944 44.9023 866.065 44.9023C865.151 44.9023 864.352 45.0869 863.666 45.4561C862.98 45.8076 862.409 46.2998 861.952 46.9326C861.495 47.5654 861.152 48.3037 860.924 49.1475C860.695 49.9736 860.581 50.8789 860.581 51.8633ZM891.853 39.4707V68H884.232V39.4707H891.853ZM883.758 32.0352C883.758 30.9277 884.145 30.0137 884.918 29.293C885.691 28.5723 886.729 28.2119 888.029 28.2119C889.312 28.2119 890.341 28.5723 891.114 29.293C891.905 30.0137 892.301 30.9277 892.301 32.0352C892.301 33.1426 891.905 34.0566 891.114 34.7773C890.341 35.498 889.312 35.8584 888.029 35.8584C886.729 35.8584 885.691 35.498 884.918 34.7773C884.145 34.0566 883.758 33.1426 883.758 32.0352ZM912.103 39.4707V44.8496H895.491V39.4707H912.103ZM899.604 32.4307H907.198V59.4043C907.198 60.2305 907.304 60.8633 907.515 61.3027C907.743 61.7422 908.077 62.0498 908.517 62.2256C908.956 62.3838 909.51 62.4629 910.178 62.4629C910.652 62.4629 911.074 62.4453 911.443 62.4102C911.83 62.3574 912.155 62.3047 912.419 62.252L912.445 67.8418C911.795 68.0527 911.092 68.2197 910.336 68.3428C909.58 68.4658 908.745 68.5273 907.831 68.5273C906.161 68.5273 904.702 68.2549 903.454 67.71C902.224 67.1475 901.274 66.251 900.606 65.0205C899.938 63.79 899.604 62.1729 899.604 60.1689V32.4307ZM929.558 68.5273C927.343 68.5273 925.356 68.1758 923.599 67.4727C921.841 66.752 920.347 65.7588 919.116 64.4932C917.903 63.2275 916.972 61.7598 916.321 60.0898C915.671 58.4023 915.346 56.6094 915.346 54.7109V53.6562C915.346 51.4941 915.653 49.5166 916.269 47.7236C916.884 45.9307 917.763 44.375 918.905 43.0566C920.065 41.7383 921.472 40.7275 923.124 40.0244C924.776 39.3037 926.64 38.9434 928.714 38.9434C930.735 38.9434 932.528 39.2773 934.093 39.9453C935.657 40.6133 936.967 41.5625 938.021 42.793C939.094 44.0234 939.902 45.5 940.447 47.2227C940.992 48.9277 941.265 50.8262 941.265 52.918V56.082H918.589V51.0195H933.803V50.4395C933.803 49.3848 933.609 48.4443 933.223 47.6182C932.854 46.7744 932.291 46.1064 931.535 45.6143C930.779 45.1221 929.812 44.876 928.635 44.876C927.633 44.876 926.771 45.0957 926.051 45.5352C925.33 45.9746 924.741 46.5898 924.284 47.3809C923.845 48.1719 923.511 49.1035 923.282 50.1758C923.071 51.2305 922.966 52.3906 922.966 53.6562V54.7109C922.966 55.8535 923.124 56.9082 923.44 57.875C923.774 58.8418 924.24 59.6768 924.838 60.3799C925.453 61.083 926.191 61.6279 927.053 62.0146C927.932 62.4014 928.925 62.5947 930.032 62.5947C931.403 62.5947 932.678 62.3311 933.855 61.8037C935.051 61.2588 936.079 60.4414 936.94 59.3516L940.632 63.3594C940.034 64.2207 939.217 65.0469 938.18 65.8379C937.16 66.6289 935.93 67.2793 934.488 67.7891C933.047 68.2812 931.403 68.5273 929.558 68.5273ZM962.438 61.7773V27.5H970.084V68H963.202L962.438 61.7773ZM944.402 54.0781V53.5244C944.402 51.3447 944.648 49.3672 945.141 47.5918C945.633 45.7988 946.354 44.2607 947.303 42.9775C948.252 41.6943 949.421 40.7012 950.81 39.998C952.198 39.2949 953.78 38.9434 955.556 38.9434C957.226 38.9434 958.685 39.2949 959.933 39.998C961.198 40.7012 962.271 41.7031 963.149 43.0039C964.046 44.2871 964.767 45.8076 965.312 47.5654C965.856 49.3057 966.252 51.2129 966.498 53.2871V54.5C966.252 56.4863 965.856 58.332 965.312 60.0371C964.767 61.7422 964.046 63.2363 963.149 64.5195C962.271 65.7852 961.198 66.7695 959.933 67.4727C958.667 68.1758 957.19 68.5273 955.503 68.5273C953.728 68.5273 952.146 68.167 950.757 67.4463C949.386 66.7256 948.226 65.7148 947.276 64.4141C946.345 63.1133 945.633 61.584 945.141 59.8262C944.648 58.0684 944.402 56.1523 944.402 54.0781ZM951.996 53.5244V54.0781C951.996 55.2559 952.084 56.3545 952.26 57.374C952.453 58.3936 952.761 59.2988 953.183 60.0898C953.622 60.8633 954.185 61.4697 954.87 61.9092C955.573 62.3311 956.426 62.542 957.428 62.542C958.729 62.542 959.801 62.252 960.645 61.6719C961.488 61.0742 962.13 60.2568 962.569 59.2197C963.026 58.1826 963.29 56.9873 963.36 55.6338V52.1797C963.308 51.0723 963.149 50.0791 962.886 49.2002C962.64 48.3037 962.271 47.5391 961.778 46.9062C961.304 46.2734 960.706 45.7812 959.985 45.4297C959.282 45.0781 958.447 44.9023 957.48 44.9023C956.496 44.9023 955.652 45.1309 954.949 45.5879C954.246 46.0273 953.675 46.6338 953.235 47.4072C952.813 48.1807 952.497 49.0947 952.286 50.1494C952.093 51.1865 951.996 52.3115 951.996 53.5244ZM419.511 118.265H427.395C427.236 120.849 426.524 123.143 425.259 125.146C424.011 127.15 422.262 128.715 420.012 129.84C417.779 130.965 415.09 131.527 411.943 131.527C409.482 131.527 407.276 131.105 405.325 130.262C403.374 129.4 401.704 128.17 400.315 126.57C398.944 124.971 397.898 123.037 397.178 120.77C396.457 118.502 396.097 115.962 396.097 113.149V110.486C396.097 107.674 396.466 105.134 397.204 102.866C397.96 100.581 399.032 98.6387 400.421 97.0391C401.827 95.4395 403.506 94.209 405.457 93.3477C407.408 92.4863 409.588 92.0557 411.996 92.0557C415.195 92.0557 417.894 92.6357 420.091 93.7959C422.306 94.9561 424.02 96.5557 425.232 98.5947C426.463 100.634 427.201 102.954 427.447 105.556H419.537C419.449 104.009 419.142 102.699 418.614 101.627C418.087 100.537 417.287 99.7197 416.215 99.1748C415.16 98.6123 413.754 98.3311 411.996 98.3311C410.678 98.3311 409.526 98.5771 408.542 99.0693C407.558 99.5615 406.731 100.309 406.063 101.311C405.396 102.312 404.895 103.578 404.561 105.107C404.244 106.619 404.086 108.395 404.086 110.434V113.149C404.086 115.136 404.235 116.885 404.534 118.396C404.833 119.891 405.29 121.156 405.905 122.193C406.538 123.213 407.347 123.986 408.331 124.514C409.333 125.023 410.537 125.278 411.943 125.278C413.596 125.278 414.958 125.015 416.03 124.487C417.103 123.96 417.92 123.178 418.482 122.141C419.062 121.104 419.405 119.812 419.511 118.265ZM430.901 117.025V116.472C430.901 114.38 431.2 112.455 431.798 110.697C432.396 108.922 433.266 107.384 434.408 106.083C435.551 104.782 436.957 103.771 438.627 103.051C440.297 102.312 442.213 101.943 444.375 101.943C446.537 101.943 448.462 102.312 450.149 103.051C451.837 103.771 453.252 104.782 454.395 106.083C455.555 107.384 456.434 108.922 457.031 110.697C457.629 112.455 457.928 114.38 457.928 116.472V117.025C457.928 119.1 457.629 121.024 457.031 122.8C456.434 124.558 455.555 126.096 454.395 127.414C453.252 128.715 451.846 129.726 450.176 130.446C448.506 131.167 446.59 131.527 444.428 131.527C442.266 131.527 440.341 131.167 438.653 130.446C436.983 129.726 435.568 128.715 434.408 127.414C433.266 126.096 432.396 124.558 431.798 122.8C431.2 121.024 430.901 119.1 430.901 117.025ZM438.495 116.472V117.025C438.495 118.221 438.601 119.337 438.812 120.374C439.022 121.411 439.356 122.325 439.813 123.116C440.288 123.89 440.903 124.496 441.659 124.936C442.415 125.375 443.338 125.595 444.428 125.595C445.482 125.595 446.388 125.375 447.144 124.936C447.899 124.496 448.506 123.89 448.963 123.116C449.42 122.325 449.754 121.411 449.965 120.374C450.193 119.337 450.308 118.221 450.308 117.025V116.472C450.308 115.312 450.193 114.222 449.965 113.202C449.754 112.165 449.411 111.251 448.937 110.46C448.479 109.651 447.873 109.019 447.117 108.562C446.361 108.104 445.447 107.876 444.375 107.876C443.303 107.876 442.389 108.104 441.633 108.562C440.895 109.019 440.288 109.651 439.813 110.46C439.356 111.251 439.022 112.165 438.812 113.202C438.601 114.222 438.495 115.312 438.495 116.472ZM470.188 108.377V131H462.568V102.471H469.714L470.188 108.377ZM469.134 115.733H467.024C467.024 113.747 467.262 111.919 467.736 110.249C468.229 108.562 468.94 107.103 469.872 105.872C470.821 104.624 471.99 103.657 473.379 102.972C474.768 102.286 476.376 101.943 478.204 101.943C479.47 101.943 480.63 102.137 481.685 102.523C482.739 102.893 483.645 103.481 484.4 104.29C485.174 105.081 485.771 106.118 486.193 107.401C486.615 108.667 486.826 110.188 486.826 111.963V131H479.232V112.807C479.232 111.506 479.057 110.504 478.705 109.801C478.354 109.098 477.853 108.605 477.202 108.324C476.569 108.043 475.805 107.902 474.908 107.902C473.924 107.902 473.062 108.104 472.324 108.509C471.604 108.913 471.006 109.476 470.531 110.196C470.057 110.899 469.705 111.726 469.477 112.675C469.248 113.624 469.134 114.644 469.134 115.733ZM486.114 114.863L483.398 115.206C483.398 113.343 483.627 111.611 484.084 110.012C484.559 108.412 485.253 107.006 486.167 105.793C487.099 104.58 488.25 103.64 489.621 102.972C490.992 102.286 492.574 101.943 494.367 101.943C495.738 101.943 496.986 102.146 498.111 102.55C499.236 102.937 500.194 103.561 500.985 104.422C501.794 105.266 502.409 106.373 502.831 107.744C503.271 109.115 503.49 110.794 503.49 112.78V131H495.87V112.78C495.87 111.462 495.694 110.46 495.343 109.774C495.009 109.071 494.517 108.588 493.866 108.324C493.233 108.043 492.478 107.902 491.599 107.902C490.685 107.902 489.885 108.087 489.199 108.456C488.514 108.808 487.942 109.3 487.485 109.933C487.028 110.565 486.686 111.304 486.457 112.147C486.229 112.974 486.114 113.879 486.114 114.863ZM516.964 107.955V141.969H509.37V102.471H516.41L516.964 107.955ZM535.025 116.419V116.973C535.025 119.047 534.779 120.972 534.287 122.747C533.812 124.522 533.109 126.069 532.178 127.388C531.246 128.688 530.086 129.708 528.697 130.446C527.326 131.167 525.744 131.527 523.951 131.527C522.211 131.527 520.699 131.176 519.416 130.473C518.133 129.77 517.052 128.785 516.173 127.52C515.312 126.236 514.617 124.751 514.09 123.063C513.562 121.376 513.158 119.565 512.877 117.632V116.182C513.158 114.107 513.562 112.209 514.09 110.486C514.617 108.746 515.312 107.243 516.173 105.978C517.052 104.694 518.124 103.701 519.39 102.998C520.673 102.295 522.176 101.943 523.898 101.943C525.709 101.943 527.3 102.286 528.671 102.972C530.06 103.657 531.22 104.642 532.151 105.925C533.101 107.208 533.812 108.737 534.287 110.513C534.779 112.288 535.025 114.257 535.025 116.419ZM527.405 116.973V116.419C527.405 115.206 527.3 114.09 527.089 113.07C526.896 112.033 526.579 111.128 526.14 110.354C525.718 109.581 525.155 108.983 524.452 108.562C523.767 108.122 522.932 107.902 521.947 107.902C520.91 107.902 520.022 108.069 519.284 108.403C518.563 108.737 517.975 109.221 517.518 109.854C517.061 110.486 516.718 111.242 516.489 112.121C516.261 113 516.12 113.993 516.067 115.101V118.766C516.155 120.066 516.401 121.235 516.806 122.272C517.21 123.292 517.834 124.101 518.678 124.698C519.521 125.296 520.629 125.595 522 125.595C523.002 125.595 523.846 125.375 524.531 124.936C525.217 124.479 525.771 123.854 526.192 123.063C526.632 122.272 526.939 121.358 527.115 120.321C527.309 119.284 527.405 118.168 527.405 116.973ZM555.144 124.566V111.857C555.144 110.943 554.994 110.161 554.695 109.511C554.396 108.843 553.931 108.324 553.298 107.955C552.683 107.586 551.883 107.401 550.898 107.401C550.055 107.401 549.325 107.551 548.71 107.85C548.095 108.131 547.62 108.544 547.286 109.089C546.952 109.616 546.785 110.24 546.785 110.961H539.191C539.191 109.748 539.473 108.597 540.035 107.507C540.598 106.417 541.415 105.459 542.487 104.633C543.56 103.789 544.834 103.13 546.311 102.655C547.805 102.181 549.475 101.943 551.32 101.943C553.535 101.943 555.504 102.312 557.227 103.051C558.949 103.789 560.303 104.896 561.287 106.373C562.289 107.85 562.79 109.695 562.79 111.91V124.118C562.79 125.683 562.887 126.966 563.08 127.968C563.273 128.952 563.555 129.813 563.924 130.552V131H556.251C555.882 130.227 555.601 129.26 555.407 128.1C555.231 126.922 555.144 125.744 555.144 124.566ZM556.146 113.624L556.198 117.922H551.953C550.951 117.922 550.081 118.036 549.343 118.265C548.604 118.493 547.998 118.818 547.523 119.24C547.049 119.645 546.697 120.119 546.469 120.664C546.258 121.209 546.152 121.807 546.152 122.457C546.152 123.107 546.302 123.696 546.601 124.224C546.899 124.733 547.33 125.138 547.893 125.437C548.455 125.718 549.114 125.858 549.87 125.858C551.013 125.858 552.006 125.63 552.85 125.173C553.693 124.716 554.344 124.153 554.801 123.485C555.275 122.817 555.521 122.185 555.539 121.587L557.543 124.804C557.262 125.524 556.875 126.271 556.383 127.045C555.908 127.818 555.302 128.548 554.563 129.233C553.825 129.901 552.938 130.455 551.9 130.895C550.863 131.316 549.633 131.527 548.209 131.527C546.398 131.527 544.755 131.167 543.278 130.446C541.819 129.708 540.659 128.697 539.798 127.414C538.954 126.113 538.532 124.637 538.532 122.984C538.532 121.49 538.813 120.163 539.376 119.003C539.938 117.843 540.765 116.867 541.854 116.076C542.962 115.268 544.342 114.661 545.994 114.257C547.646 113.835 549.562 113.624 551.742 113.624H556.146ZM576.079 108.562V131H568.485V102.471H575.604L576.079 108.562ZM574.972 115.733H572.915C572.915 113.624 573.188 111.726 573.732 110.038C574.277 108.333 575.042 106.883 576.026 105.688C577.011 104.475 578.18 103.552 579.533 102.919C580.904 102.269 582.434 101.943 584.121 101.943C585.457 101.943 586.679 102.137 587.786 102.523C588.894 102.91 589.843 103.525 590.634 104.369C591.442 105.213 592.058 106.329 592.479 107.718C592.919 109.106 593.139 110.803 593.139 112.807V131H585.492V112.78C585.492 111.515 585.316 110.53 584.965 109.827C584.613 109.124 584.095 108.632 583.409 108.351C582.741 108.052 581.915 107.902 580.931 107.902C579.911 107.902 579.023 108.104 578.268 108.509C577.529 108.913 576.914 109.476 576.422 110.196C575.947 110.899 575.587 111.726 575.341 112.675C575.095 113.624 574.972 114.644 574.972 115.733ZM607.377 127.783L614.944 102.471H623.092L611.622 135.298C611.376 136.019 611.042 136.792 610.62 137.618C610.216 138.444 609.662 139.227 608.959 139.965C608.273 140.721 607.403 141.336 606.349 141.811C605.312 142.285 604.037 142.522 602.525 142.522C601.805 142.522 601.216 142.479 600.759 142.391C600.302 142.303 599.757 142.18 599.124 142.021V136.458C599.317 136.458 599.52 136.458 599.73 136.458C599.941 136.476 600.144 136.484 600.337 136.484C601.339 136.484 602.156 136.37 602.789 136.142C603.422 135.913 603.932 135.562 604.318 135.087C604.705 134.63 605.013 134.032 605.241 133.294L607.377 127.783ZM604.213 102.471L610.409 123.143L611.49 131.185L606.322 131.738L596.065 102.471H604.213Z" fill="#FAAF20"/>
<path d="M439.391 866.034C439.391 866.034 458.379 853.437 426.484 824.187C394.589 794.937 374.356 781.892 372.107 804.39C369.859 826.888 403.567 866.824 417.497 870.928C431.428 875.031 439.391 866.034 439.391 866.034Z" fill="#ECEDF2"/>
<path d="M448.983 906.65C444.493 883.304 433.739 863.243 424.117 849.011C414.495 834.778 405.989 826.371 405.952 826.331C405.736 826.118 405.445 825.999 405.141 826C404.837 826.001 404.547 826.122 404.333 826.337C404.119 826.551 403.999 826.841 404 827.144C404.001 827.446 404.123 827.735 404.338 827.948C404.561 828.17 412.987 836.572 422.437 850.611C431.888 864.65 442.365 884.329 446.731 907.074C446.759 907.221 446.816 907.361 446.899 907.486C446.981 907.611 447.088 907.719 447.212 907.803C447.336 907.887 447.476 907.946 447.623 907.976C447.77 908.007 447.922 908.008 448.07 907.98C448.218 907.952 448.358 907.895 448.484 907.813C448.609 907.731 448.718 907.625 448.802 907.501C448.887 907.377 448.946 907.238 448.976 907.092C449.007 906.945 449.008 906.794 448.98 906.647L448.983 906.65Z" fill="#DBDBDD"/>
<path d="M464.154 821.631C464.154 821.631 485.988 839.286 496.7 778.197C507.412 717.107 490.022 713.955 473.519 720.288C457.016 726.621 441.967 823.553 464.154 821.631Z" fill="#ECEDF2"/>
<path d="M479.302 761.094C479.023 760.974 478.708 760.969 478.426 761.08C478.144 761.191 477.917 761.41 477.796 761.688C477.796 761.717 469.845 780.007 461.901 806.407C453.958 832.807 446.003 867.313 446 899.829C445.987 905.888 446.291 911.944 446.91 917.972C446.926 918.122 446.971 918.267 447.043 918.4C447.116 918.532 447.213 918.649 447.331 918.744C447.448 918.839 447.583 918.91 447.728 918.953C447.873 918.996 448.025 919.009 448.175 918.994C448.325 918.978 448.471 918.933 448.604 918.861C448.737 918.789 448.854 918.692 448.949 918.574C449.044 918.457 449.115 918.322 449.158 918.178C449.201 918.033 449.215 917.882 449.199 917.732C448.59 911.784 448.291 905.808 448.304 899.829C448.304 867.682 456.199 833.341 464.107 807.067C468.062 793.933 472.016 782.797 474.981 774.965C476.46 771.048 477.696 767.95 478.56 765.828C478.993 764.769 479.33 763.958 479.562 763.413L479.822 762.793C479.854 762.724 479.877 762.67 479.891 762.636L479.911 762.587C480.028 762.309 480.03 761.995 479.915 761.715C479.801 761.435 479.58 761.212 479.302 761.094Z" fill="#DBDBDD"/>
<path d="M492.986 877.978C492.986 877.978 489.079 871.39 496.817 863.37C504.554 855.349 560.578 838.254 572.836 862.493C585.093 886.732 496.612 901.857 492.986 877.978Z" fill="#ECEDF2"/>
<path d="M498.89 833.085C498.89 833.085 480.756 791.636 556.829 778.017C632.902 764.399 613.326 788.018 584.065 809.795C554.803 831.571 515.188 841.346 498.89 833.085Z" fill="#ECEDF2"/>
<path d="M548.913 863.073C547.71 863.026 546.509 863.002 545.311 863C531.815 863 518.697 866.092 506.62 870.688C488.499 877.598 472.704 887.935 461.418 896.551C450.132 905.167 443.368 912.046 443.339 912.074C443.231 912.179 443.146 912.304 443.088 912.442C443.029 912.58 443 912.728 443 912.878C443 913.028 443.031 913.176 443.09 913.314C443.149 913.452 443.235 913.577 443.343 913.681C443.451 913.786 443.579 913.868 443.72 913.922C443.861 913.977 444.011 914.003 444.162 914C444.313 913.996 444.462 913.963 444.6 913.901C444.737 913.84 444.861 913.752 444.964 913.642L444.996 913.611C445.691 912.911 457.81 900.787 476.249 888.873C485.467 882.911 496.265 877.002 507.99 872.589C519.716 868.175 532.383 865.263 545.311 865.263C546.479 865.263 547.648 865.287 548.816 865.336C549.117 865.349 549.411 865.242 549.633 865.041C549.854 864.839 549.986 864.558 549.999 864.259C550.012 863.961 549.905 863.67 549.701 863.45C549.497 863.23 549.214 863.1 548.913 863.087V863.073Z" fill="#DBDBDD"/>
<path d="M558.934 799.756C558.884 799.615 558.806 799.485 558.706 799.374C558.606 799.263 558.485 799.173 558.35 799.109C558.215 799.045 558.069 799.008 557.921 799.001C557.772 798.994 557.623 799.017 557.483 799.068C532.239 808.192 511.953 820.725 495.739 834.384C475.626 851.374 459.105 872.267 447.154 895.822C438.065 913.73 435.048 926.523 435.031 926.592C434.996 926.738 434.991 926.889 435.014 927.038C435.038 927.186 435.091 927.328 435.169 927.456C435.247 927.584 435.349 927.695 435.47 927.783C435.591 927.871 435.727 927.934 435.872 927.969C436.017 928.004 436.167 928.009 436.314 927.985C436.462 927.962 436.602 927.909 436.729 927.83C436.856 927.751 436.966 927.648 437.053 927.526C437.141 927.404 437.203 927.267 437.238 927.12C437.382 926.512 442.859 903.974 460.689 877.136C470.95 861.652 483.368 847.739 497.56 835.824C513.526 822.445 533.452 810.184 558.243 801.219C558.383 801.169 558.513 801.092 558.624 800.991C558.735 800.891 558.826 800.769 558.89 800.633C558.954 800.497 558.991 800.349 558.999 800.199C559.006 800.049 558.984 799.898 558.934 799.756Z" fill="#DBDBDD"/>
<path d="M449.611 334.311C449.611 334.311 499.561 350.236 568.99 310.082C638.42 269.928 763.393 296.934 753.959 355.792C748.467 390.018 751.159 428.621 766.482 460.11C771.994 471.438 779.535 482.034 789.685 489.637C803.263 500.963 817.406 499.103 833.202 502.961C856.576 510.729 869.161 531.659 873.281 555.054C883.798 605.36 844.614 644.589 794.942 641.988C611.631 613.568 605.411 596.221 499.719 666.442C429.182 707.234 242.918 658.628 242.918 566.416C242.918 474.204 226.765 420.802 288.212 367.287C349.658 313.772 380.19 304.517 449.611 334.311Z" fill="#FAAF20" fill-opacity="0.31"/>
<path d="M515 982C735.362 982 914 964.091 914 942C914 919.909 735.362 902 515 902C294.638 902 116 919.909 116 942C116 964.091 294.638 982 515 982Z" fill="#1C4670" fill-opacity="0.31"/>
<path d="M283 933.251C283 939.66 280.092 941 261.761 941C243.429 941 218.834 930.041 208.099 923.902C200.547 919.589 201.625 913.935 202.928 910.954C203.236 910.236 203.62 909.552 204.074 908.914L219.273 883L248.343 895.876C248.343 895.876 244.253 904.681 250.13 911.996C255.591 918.792 279.285 925.766 282.609 931.869C282.854 932.29 282.989 932.765 283 933.251Z" fill="#FAAF20"/>
<path d="M283 933.263C283 939.662 280.092 941 261.761 941C243.429 941 218.834 930.058 208.099 923.929C200.547 919.622 201.625 913.977 202.928 911C205.411 914.92 210.86 920.738 222.561 925.086C241.94 932.32 258.633 935.55 267.578 935.55C273.619 935.55 279.459 933.324 282.612 931.888C282.855 932.307 282.989 932.78 283 933.263Z" fill="#091558"/>
<path d="M446.864 931H364.43C361.511 931 359.564 928 358.287 923.557C354.618 910.772 356.465 886 356.465 886H385.717C385.717 886 389.825 893.652 394.469 898.31C399.113 902.968 435.142 915.318 444.145 920.539C444.888 920.96 445.597 921.439 446.265 921.971C452.047 926.671 446.864 931 446.864 931Z" fill="#FAAF20"/>
<path d="M446.881 931H365.095C362.199 931 360.267 928.338 359 924.397C364.374 925.667 373.45 926.822 388.319 926.429C418.727 925.621 437.601 924.679 437.601 924.679C437.601 924.679 441.844 923.714 446.287 923C452.023 927.16 446.881 931 446.881 931Z" fill="#091558"/>
<path d="M394 889.977C394 889.977 374.454 900.969 356.402 893.255C355.211 892.746 354.052 892.166 352.931 891.518C326.124 783.03 325.822 651.126 321 607.761V548.132L380.343 540C380.343 540 396.598 587.676 393.001 686.712C389.405 785.748 394 889.977 394 889.977Z" fill="#1A5895"/>
<path d="M338.026 735.22C338.026 764.706 352.76 870.148 356 893C354.823 892.492 353.677 891.913 352.568 891.266C326.066 783.004 325.768 651.374 321 608.099V604.501C335.857 602.6 347.075 604.881 347.075 633.456C347.075 677.407 338.026 702.089 338.026 735.22Z" fill="#1C4670"/>
<path d="M362 552.191L349.873 582.43L338.459 657.356C327.042 732.284 253.211 901.999 253.211 901.999C253.211 901.999 228.468 902.439 216.107 886.819C214.434 884.702 213.053 882.367 212 879.879C232.675 821.545 260.054 693.465 260.054 632.079C260.054 570.694 287.685 540 287.685 540L361.48 552.105L362 552.191Z" fill="#1A5895"/>
<path d="M362 552.112C358.914 555.537 352.467 559.42 339.101 559.42C315.206 559.42 293.575 561.102 293.575 561.102C293.575 561.102 281.182 563.945 275.322 589.902C269.462 615.86 270.143 683.837 255.044 734.644C242.543 776.712 231.745 857.919 216.121 887C214.443 884.881 213.056 882.546 212 880.056C232.746 821.691 260.221 693.544 260.221 632.127C260.221 570.71 287.947 540 287.947 540L362 552.112Z" fill="#1C4670"/>
<path d="M656.529 916.65C656.489 917.123 656.444 917.604 656.395 918.091C655.04 932 632.651 934.701 614.401 945.386C596.151 956.071 588.631 948.844 585.209 945.386C584.734 944.904 585.09 943.804 586.062 942.268C592.03 932.758 621.393 906.458 621.393 906.458L656.404 898C656.404 898 657.657 903.755 656.529 916.65Z" fill="#FAAF20"/>
<path d="M657 917C656.96 917.468 656.914 917.944 656.865 918.426C655.501 932.194 632.965 934.867 614.595 945.443C596.225 956.019 588.655 948.866 585.21 945.443C584.732 944.967 585.09 943.877 586.069 942.357C590.44 944.165 598.725 946.267 608.776 942.422C623.776 936.684 647.882 922.248 653.773 918.857C655.138 918.072 656.193 917.468 657 917Z" fill="#091558"/>
<path d="M675.953 649.038C674.211 656.627 672.238 664.523 670.034 672.724C664.719 692.429 661.123 714.305 658.761 736.522C650.064 818.112 657.95 904.278 657.95 904.278C647.471 911.216 633.34 911.79 618.071 910.375C618.071 910.375 587.839 792.716 591.272 717.411C594.118 654.933 605.064 573.244 610.27 536.882C611.961 525.034 613.054 518 613.054 518L632.419 520.105L688.173 526.168C688.173 526.168 693.747 571.375 675.953 649.038Z" fill="#1A5895"/>
<path d="M676 649.504C674.251 657.094 672.27 664.991 670.058 673.193C664.721 692.901 661.11 714.78 658.739 737C657.521 733.669 656.684 730.209 656.243 726.689C654.296 711.061 646.803 682.334 645.117 643.06C643.43 603.786 660.601 596 660.601 596C660.601 596 670.29 626.497 676 649.504Z" fill="#1C4670"/>
<path d="M786.477 935.211C783.091 947.2 729.948 937.948 721.932 930.931C720.289 929.494 719.089 927.091 718.207 924.185C714.812 912.938 716.345 894.113 716.345 894.113C716.345 894.113 727.861 890 744.125 890C746.161 897.537 752.885 901.638 764.455 910.894C773.364 918.022 783.628 921.486 786.321 928.18C787.128 930.175 787.259 932.458 786.477 935.211Z" fill="#FAAF20"/>
<path d="M740.454 644.324C743.844 525.263 707.009 507 707.009 507L651 533.245V576L655.781 632.146C660.564 688.293 684.811 828.663 715.682 898C723.664 898 748 891.236 748 891.236C748 891.236 737.063 763.381 740.454 644.324Z" fill="#1A5895"/>
<path d="M667.155 542.038C651.873 547.381 621.717 540.487 609 537.05C610.706 525.097 611.809 518 611.809 518L631.344 520.124C639.941 522.317 651 524.392 651 524.392C651 524.392 686.689 535.199 667.155 542.038Z" fill="#1C4670"/>
<path d="M734.884 888.495C734.341 882.116 731.904 852.824 729.602 815.912C727.3 778.999 725.136 734.468 725.136 697.632C725.136 689.316 725.245 681.389 725.489 674.037C725.681 668.136 725.777 662.435 725.777 656.934C725.777 574.68 705.266 536.786 705.182 536.636C705.114 536.499 705.019 536.377 704.903 536.277C704.786 536.177 704.65 536.102 704.503 536.055C704.356 536.008 704.201 535.991 704.047 536.005C703.893 536.018 703.744 536.062 703.607 536.134C703.471 536.206 703.351 536.304 703.254 536.423C703.157 536.541 703.086 536.678 703.044 536.825C703.001 536.972 702.99 537.125 703.009 537.276C703.028 537.427 703.079 537.573 703.156 537.705C703.386 538.139 723.475 575.698 723.475 656.929C723.475 662.41 723.379 668.081 723.187 673.94C722.943 681.326 722.831 689.277 722.831 697.612C722.831 736.994 725.297 785.07 727.765 823.312C730.234 861.554 732.697 889.941 732.697 889.958C732.723 890.259 732.869 890.537 733.103 890.732C733.336 890.926 733.639 891.021 733.944 890.996C734.249 890.97 734.531 890.826 734.728 890.596C734.926 890.365 735.022 890.066 734.996 889.765L734.884 888.495Z" fill="white"/>
<path d="M512.909 256C512.909 256 498.898 230.977 498.152 227.243C497.406 223.508 499.458 178.456 503.097 174.798C506.736 171.14 515.144 180.493 516.486 193.978C517.294 202.149 517.294 210.38 516.486 218.551C516.486 218.551 520.511 218.101 524.085 212.708C527.66 207.316 531.403 210.012 531.403 214.205C531.403 218.398 523.205 224.546 523.205 230.689C523.205 236.831 532 251.06 532 251.06L512.909 256Z" fill="#FF7976"/>
<path d="M491.409 177.779C495.108 185.855 499.343 198.859 498.978 215.596C498.34 244.889 492.581 247 492.581 247L480.599 240.004C480.599 240.004 480.411 227.887 475.051 222.468C469.691 217.048 462.996 200.044 467.462 201.7C471.928 203.357 476.574 209.978 477.6 206.668C478.626 203.357 476.246 179.126 479.967 173.704C483.688 168.282 488.635 171.723 491.409 177.779Z" fill="#FF7976"/>
<path d="M387.807 340C387.807 340 403.146 356.706 399.415 372.477C395.685 388.249 374.206 385.205 371.598 378.792C368.989 372.378 375.761 351.05 375.761 351.05L387.807 340Z" fill="#091558"/>
<path d="M338.275 322L329 308.232L331.289 300L349 313.319L338.275 322Z" fill="#091558"/>
<path d="M655 376.016L651.966 420.057L651.074 433C651.074 433 563.931 405.662 538.043 340C512.154 274.338 509 254.622 509 254.622L510.609 254.165L535.783 247C535.783 247 570.086 300.833 588.88 327.212C609.763 353.211 655 376.016 655 376.016Z" fill="white"/>
<path d="M651 419.973L650.115 433C650.115 433 563.567 405.484 537.856 339.394C512.144 273.304 509 253.46 509 253.46L510.598 253C516.134 267.583 534.434 315.603 539.209 325.524C544.845 337.253 564.464 378.191 598.269 396.008C619.168 407.02 638.94 415.274 651 419.973Z" fill="#CAE2F5"/>
<path d="M384.799 559C384.799 559 373.15 557.058 326.632 551.961C324 551.671 321.256 551.372 318.4 551.065C306.746 549.809 293.167 548.379 277.38 546.764C266.393 511.58 271.32 476.732 279.241 450.279C280.477 446.16 281.778 442.248 283.108 438.566C290.73 417.449 299.142 404.022 299.142 404.022C299.142 404.022 305.707 399.804 320.769 397.583C349.841 393.293 399.265 392.082 414.933 412.398C438.741 443.249 384.799 559 384.799 559Z" fill="white"/>
<path d="M339.847 394.836C339.847 394.836 329.334 395.4 339.273 412.246C346.797 425.016 355.08 450.816 362.647 446.524C370.215 442.231 372.695 431.066 372.695 431.066C372.695 431.066 389.486 441.8 391.737 428.601C393.988 415.401 381.474 395.126 366.422 393.49C351.371 391.855 339.847 394.836 339.847 394.836Z" fill="#FAAF20"/>
<path d="M318 550C306.444 548.745 292.98 547.318 277.326 545.705C266.432 510.576 271.317 475.781 279.171 449.369L305.442 445C305.442 445 295.131 461.824 293.204 486.559C291.579 507.414 306.427 538.002 318 550Z" fill="#CAE2F5"/>
<path d="M363.094 520.052C363.094 520.052 375.398 527.223 385.095 519.969C394.793 512.716 398.374 514.379 396.585 518.759C394.796 523.14 387.332 529.032 387.332 529.032C387.332 529.032 394.049 535.405 402.403 533.884C410.756 532.363 412.698 528.884 412.698 528.884C412.698 528.884 422.559 529.637 415.385 541.426C408.212 553.214 392.564 557.235 376.147 547.635C359.73 538.036 356 537.194 356 537.194L363.094 520.052Z" fill="#FF7976"/>
<path d="M367 519.276L365.252 523.294L360.056 535.296L359.663 536.202L358.029 539.968C358.029 539.968 210.237 543.42 222.752 478.312C223.029 477.072 223.331 475.845 223.657 474.631C237.16 424.821 292.561 403.978 315.42 398.17C317.317 397.691 319.043 397.3 320.579 397L308.748 447.716C308.748 447.716 272.565 474.866 276.148 481.597C279.732 488.329 303.235 506.099 367 519.276Z" fill="white"/>
<path d="M740.221 427.749C738.231 454.003 732.765 484.687 728.789 504.72C726.216 517.685 724.266 526.204 724.266 526.204C691.122 542.9 646.553 540.934 609 526.204C609 526.204 615.839 424.508 615.839 418.46C615.839 412.412 635.704 365.658 635.704 365.658C635.704 365.658 733.007 354.151 739.735 391.77C741.378 400.982 741.289 413.735 740.221 427.749Z" fill="white"/>
<path d="M609 348C609 348 627.017 361.432 635.247 363.926C640.641 365.559 645.798 364.154 649.834 363.812C654.747 363.393 658 363.812 658 363.812C658 363.812 647.326 370.566 637.246 369.962C627.165 369.358 612.183 359.018 609 348Z" fill="#CAE2F5"/>
<path d="M740 428C738.044 453.923 732.669 484.22 728.759 504C725.19 501.097 721.872 496.168 721.872 487.859C721.872 469.857 711.547 468.193 714.546 452.27C716.696 440.852 731.688 432.061 740 428Z" fill="#CAE2F5"/>
<path d="M713.137 510C713.137 510 711.353 512.282 698.271 514.828C685.189 517.373 679.715 514.231 679.715 518.872C679.715 523.513 690.517 522.767 690.517 522.767C690.517 522.767 680.433 535.056 669.962 534.453C659.491 533.851 658.043 541.267 662.072 545.235C666.102 549.203 688.538 554.073 700.707 544.185C712.876 534.298 722 522.167 722 522.167L713.137 510Z" fill="#FF7976"/>
<path d="M563.254 624.027L428.817 622.079C420.595 621.96 413.833 628.529 413.714 636.752L412.708 706.231C412.588 714.453 419.157 721.216 427.379 721.335L561.816 723.283C570.039 723.402 576.801 716.833 576.92 708.61L577.926 639.131C578.045 630.908 571.477 624.146 563.254 624.027Z" fill="#C4C7DD"/>
<path d="M437.5 657C443.299 657 448 652.299 448 646.5C448 640.701 443.299 636 437.5 636C431.701 636 427 640.701 427 646.5C427 652.299 431.701 657 437.5 657Z" fill="#FAAF20"/>
<path d="M459 637L440 646.902L458.686 658L459 637Z" fill="white"/>
<path d="M544.289 634.189L476.611 633.512C474.867 633.495 473.439 634.894 473.422 636.639C473.404 638.383 474.804 639.811 476.548 639.828L544.226 640.505C545.97 640.522 547.398 639.123 547.416 637.378C547.433 635.634 546.034 634.206 544.289 634.189Z" fill="white"/>
<path d="M541.055 653.491L473.384 652.511C471.64 652.485 470.206 653.879 470.181 655.623C470.156 657.367 471.549 658.801 473.293 658.826L540.964 659.807C542.708 659.832 544.142 658.438 544.167 656.694C544.193 654.951 542.799 653.516 541.055 653.491Z" fill="#FAAF20"/>
<path d="M446.966 700.862L432.982 700.659C431.238 700.634 429.804 702.027 429.778 703.771C429.753 705.515 431.146 706.949 432.89 706.975L446.875 707.177C448.619 707.202 450.053 705.809 450.078 704.065C450.103 702.321 448.71 700.887 446.966 700.862Z" fill="white"/>
<path d="M474.709 701.264L460.724 701.061C458.98 701.036 457.546 702.429 457.521 704.173C457.495 705.917 458.889 707.352 460.632 707.377L474.617 707.579C476.361 707.605 477.795 706.211 477.82 704.468C477.846 702.724 476.452 701.289 474.709 701.264Z" fill="white"/>
<path d="M502.455 701.662L488.47 701.46C486.726 701.435 485.292 702.828 485.267 704.572C485.241 706.316 486.635 707.75 488.379 707.775L502.363 707.978C504.107 708.003 505.541 706.61 505.566 704.866C505.592 703.122 504.199 701.688 502.455 701.662Z" fill="white"/>
<path d="M530.197 702.069L516.212 701.866C514.468 701.841 513.034 703.234 513.009 704.978C512.984 706.722 514.377 708.156 516.121 708.182L530.105 708.384C531.849 708.409 533.283 707.016 533.309 705.272C533.334 703.528 531.941 702.094 530.197 702.069Z" fill="white"/>
<path d="M558.423 685.104L546.469 684.931C543.604 684.889 541.248 687.178 541.206 690.044L541.013 703.353C540.972 706.219 543.261 708.575 546.126 708.617L558.08 708.79C560.945 708.831 563.302 706.542 563.343 703.677L563.536 690.367C563.578 687.502 561.289 685.145 558.423 685.104Z" fill="#323F8B"/>
<path d="M799.321 454.151C801.303 461.627 801.685 469.607 799.627 477.035C796.491 484.147 788.239 488.959 782.556 494.117C764.819 508.162 742.516 522.136 722.993 533L708.132 508.682L707 506.853C707 506.853 746.428 473.803 747.478 467.548C748.834 457.651 723.231 438.169 718.705 434.705C719.387 431.824 731.584 380.456 731.932 379C750.75 393.958 768.105 411.645 784.251 429.728C786.504 432.231 798.588 451.405 799.321 454.151Z" fill="white"/>
<path d="M502.009 347.151C496.111 387.468 419.319 453 419.319 453L419.253 452.903L381 396.332C381 396.332 441.23 374.774 455.295 332.647C469.359 290.52 479.338 233 479.338 233L496.965 236.684L498.84 237.074C498.84 237.074 507.901 306.835 502.009 347.151Z" fill="white"/>
<path d="M502.003 347.299C496.088 387.559 419.066 453 419.066 453L419 452.903C424.357 435.697 458.596 399.754 472.894 383.411C488.661 365.393 496.549 345.793 498.948 310.521C500.926 281.48 498.023 247.97 496.944 237L498.825 237.39C498.825 237.39 507.912 307.039 502.003 347.299Z" fill="#CAE2F5"/>
<path d="M519 495C557.66 495 589 463.884 589 425.5C589 387.116 557.66 356 519 356C480.34 356 449 387.116 449 425.5C449 463.884 480.34 495 519 495Z" fill="#FAAF20"/>
<path d="M519 487C552.689 487 580 459.466 580 425.5C580 391.534 552.689 364 519 364C485.311 364 458 391.534 458 425.5C458 459.466 485.311 487 519 487Z" fill="white"/>
<path d="M694.969 330.942C685.977 346.105 686.881 353.83 686.881 369.503C672.429 373.832 654.663 374.487 654.663 369.503L654.864 368.759L663.553 336.555C663.553 336.555 662.7 336.604 661.339 336.529C654.401 336.149 634.572 332.501 651.96 302.071C672.733 265.706 698.172 261.555 704.496 278.827C710.82 296.099 704.252 315.297 694.969 330.942Z" fill="#FF7976"/>
<path d="M376.511 408.357C376.511 408.357 381.608 420.562 373.251 425.386C364.893 430.209 346.439 405.042 346.439 405.042C346.439 405.042 346.439 381.306 340.547 355.527C334.656 329.748 346.439 307.501 361.565 298.773C376.691 290.046 389.405 314.834 393.477 344.677C397.549 374.519 376.511 372.564 376.511 372.564V408.357Z" fill="#FF7976"/>
<path d="M659.028 287.323C659.028 287.323 649.98 260.316 670.109 263.019C670.109 245.913 695.668 253.565 701.998 264.818C714.665 262.118 721.675 285.297 716.02 294.3C721.45 303.751 715.115 324.231 702.675 326.93C687.975 339.534 684.357 339.985 684.357 330.081C674.855 326.48 680.217 318.511 687.488 314.329C694.76 310.148 683.986 306.808 682.309 308.476C680.632 310.145 679.533 313.131 678.039 311.638C676.544 310.145 671.277 311.689 676.538 306.451C681.8 301.213 684.123 295 680.732 295C677.341 295 671.684 300.383 671.684 293.623C665.576 295.649 666.513 285.586 664.09 287.997C661.667 290.408 659.028 287.323 659.028 287.323Z" fill="#091558"/>
<path d="M346.675 374.696C351.196 370.156 343.286 356.537 346.675 349.499C355.287 344.507 354.135 336.79 356.169 329.752C365.155 324.543 394 317.485 394 317.485C394 317.485 393.101 302.181 380.343 294.786C367.585 287.391 346.444 295.466 343.07 310.216C319.082 324.123 316.728 375.133 326.124 380.579C335.519 386.026 339.044 380.579 339.044 380.579C339.044 380.579 342.154 379.236 346.675 374.696Z" fill="#091558"/>
<path d="M322.5 312C329.956 312 336 306.404 336 299.5C336 292.596 329.956 287 322.5 287C315.044 287 309 292.596 309 299.5C309 306.404 315.044 312 322.5 312Z" fill="#091558"/>
<path d="M547.88 384L512.504 441.814L483.403 416.148L476 431.247L514.693 459L561 394.875L547.88 384Z" fill="#1C4670"/>
<path d="M184.552 371.159C161.859 328.945 163.691 282.166 163 270.718C165.983 269.682 198.179 263.584 224.941 260C220.483 291.91 237.41 351.85 240 362.693L187.982 377L184.552 371.159Z" fill="#B9C6D3"/>
<path d="M172 284.81C172.806 299.458 176.04 334.998 188.837 360.957C190.556 360.485 192.383 360.63 194.007 361.367C195.632 362.105 196.952 363.389 197.743 365L221.557 358.438C221.085 356.476 221.39 354.406 222.406 352.667C223.423 350.928 225.071 349.659 227 349.128C223.481 334.503 215.975 301.183 215.017 279.321C213.952 279.487 212.863 279.423 211.823 279.136C210.784 278.848 209.815 278.342 208.982 277.652C208.148 276.961 207.468 276.101 206.986 275.127C206.503 274.153 206.229 273.088 206.182 272C192.968 274.046 183.777 275.699 178.232 276.766C178.335 278.642 177.76 280.492 176.614 281.971C175.467 283.451 173.828 284.46 172 284.81Z" fill="white"/>
<path d="M196.5 298C199.538 298 202 294.866 202 291C202 287.134 199.538 284 196.5 284C193.462 284 191 287.134 191 291C191 294.866 193.462 298 196.5 298Z" fill="#CAE2F5"/>
<path d="M199.5 330C204.747 330 209 325.523 209 320C209 314.477 204.747 310 199.5 310C194.253 310 190 314.477 190 320C190 325.523 194.253 330 199.5 330Z" fill="#CAE2F5"/>
<path d="M207 351C209.761 351 212 348.538 212 345.5C212 342.462 209.761 340 207 340C204.239 340 202 342.462 202 345.5C202 348.538 204.239 351 207 351Z" fill="#CAE2F5"/>
<path d="M144.325 531C145.479 527.033 147.083 523.898 149 521.502L147.102 520C144.955 522.685 143.223 526.114 142 530.327L144.325 530.991V531Z" fill="#323F8B"/>
<path d="M197.654 574C196.795 577.142 195.209 580.084 193 582.63L194.901 584C197.32 581.213 199.058 577.993 200 574.554L197.654 574Z" fill="#323F8B"/>
<path d="M197 672.773C199.803 675.001 202.725 677.08 205.753 679L207 677.085C204.042 675.207 201.188 673.176 198.449 671L197 672.773Z" fill="#323F8B"/>
<path d="M182.968 656L181 657.433C183.691 660.149 186.421 662.671 189.19 665L191 663.421C188.289 661.127 185.612 658.653 182.968 656Z" fill="#323F8B"/>
<path d="M214 683.973C217.315 685.496 220.72 686.84 224.201 688L225 685.928C221.605 684.796 218.282 683.485 215.048 682L214 683.973Z" fill="#323F8B"/>
<path d="M224 393.298L225.038 395C228.067 393.594 231.055 392.149 234 390.666L232.896 389C229.979 390.472 227.013 391.905 224 393.298Z" fill="#323F8B"/>
<path d="M171.758 640L170 641.072C171.739 643.87 173.513 646.512 175.324 649L177 647.806C175.222 645.356 173.475 642.754 171.758 640Z" fill="#323F8B"/>
<path d="M177 418.851L175.967 417C172.623 418.368 169.301 419.756 166 421.167L167.075 423C170.353 421.593 173.661 420.21 177 418.851Z" fill="#323F8B"/>
<path d="M152 602.71C153.238 605.915 154.511 609.011 155.82 612L158 611.199C156.699 608.246 155.434 605.179 154.204 602L152 602.71Z" fill="#323F8B"/>
<path d="M166 596L165.974 593.727H165.276C161.951 593.719 158.631 593.476 155.343 593L155 595.247C158.398 595.74 161.828 595.991 165.264 596H166Z" fill="#323F8B"/>
<path d="M161.85 621L160 621.913C161.359 625.08 162.76 628.109 164.201 631L166 629.978C164.583 627.122 163.2 624.129 161.85 621Z" fill="#323F8B"/>
<path d="M155 513.739L155.635 515.968C157.144 515.529 158.707 515.31 160.276 515.319C162.021 515.329 163.758 515.557 165.448 516L166 513.751C164.13 513.263 162.207 513.01 160.276 513C158.492 512.993 156.716 513.242 155 513.739Z" fill="#323F8B"/>
<path d="M295.451 288C295.378 291.713 295.228 295.303 295 298.77L296.543 299C296.771 295.468 296.923 291.825 297 288.071L295.451 288Z" fill="#323F8B"/>
<path d="M284 338.934L285.948 340C287.457 336.69 288.809 333.298 290 329.837L287.962 329C286.798 332.384 285.476 335.7 284 338.934Z" fill="#323F8B"/>
<path d="M145 581.603C145.85 584.936 146.81 588.401 147.879 592L150 591.307C148.942 587.731 147.992 584.296 147.148 581L145 581.603Z" fill="#323F8B"/>
<path d="M295.4 278L297 277.932C296.932 274.4 296.799 270.756 296.6 267L295 267.188C295.199 270.897 295.332 274.501 295.4 278Z" fill="#323F8B"/>
<path d="M235.53 689L235 691.187C238.538 691.982 242.119 692.587 245.726 693L246 690.768C242.479 690.366 238.984 689.775 235.53 689Z" fill="#323F8B"/>
<path d="M242 383.059L243.248 385C246.237 383.033 249.154 380.985 252 378.858L250.634 377C247.838 379.101 244.96 381.12 242 383.059Z" fill="#323F8B"/>
<path d="M258 371.072L259.621 373C262.528 370.389 265.321 367.652 268 364.79L266.224 363C263.6 365.821 260.859 368.512 258 371.072Z" fill="#323F8B"/>
<path d="M280 348.245L278.312 347C276.671 349.956 274.898 352.812 273 355.556L274.568 357C276.509 354.192 278.322 351.27 280 348.245Z" fill="#323F8B"/>
<path d="M293.511 309C292.815 312.273 291.978 315.423 291 318.448L293.441 319C294.439 315.912 295.292 312.703 296 309.371L293.511 309Z" fill="#323F8B"/>
<path d="M110 466.388L108.138 465C105.935 467.829 103.887 470.77 102 473.81L103.996 475C105.841 472.028 107.846 469.153 110 466.388Z" fill="#323F8B"/>
<path d="M185.862 589C182.765 590.696 179.444 591.93 176 592.666L176.503 595C180.169 594.216 183.705 592.899 187 591.09L185.862 589Z" fill="#323F8B"/>
<path d="M149.241 432.986C152.434 431.252 155.687 429.572 159 427.948L157.844 426C154.511 427.645 151.23 429.34 148 431.083L149.241 433V432.986Z" fill="#323F8B"/>
<path d="M140.205 540C140.068 541.667 140 543.412 140 545.237C140 547.062 140.072 548.983 140.216 551L143 550.856C142.856 548.9 142.785 547.027 142.788 545.237C142.788 543.477 142.857 541.769 142.986 540.161L140.205 540Z" fill="#323F8B"/>
<path d="M189 534.173C190.896 536.971 192.522 539.925 193.858 543L196 542.176C194.612 538.979 192.922 535.908 190.951 533L189 534.173Z" fill="#323F8B"/>
<path d="M145 571.511C144.247 567.807 143.638 564.303 143.175 561L141 561.343C141.473 564.703 142.09 568.255 142.85 572L145 571.511Z" fill="#323F8B"/>
<path d="M176 519.813C178.713 521.582 181.213 523.658 183.45 526L185 524.51C182.65 522.045 180.022 519.86 177.168 518L176 519.813Z" fill="#323F8B"/>
<path d="M296 256.732C295.822 255.5 295.632 254.256 295.429 253L293 253.303C293.199 254.546 293.39 255.781 293.564 257L296 256.732Z" fill="#323F8B"/>
<path d="M186.912 414C189.939 412.406 192.969 410.814 196 409.222L195.088 407C192.061 408.594 189.031 410.186 186 411.778L186.912 414Z" fill="#323F8B"/>
<path d="M205.028 406C208.372 404.4 211.696 402.783 215 401.147L213.936 399C210.652 400.638 207.34 402.248 204 403.832L205.025 406H205.028Z" fill="#323F8B"/>
<path d="M201 563.907C200.878 560.237 200.496 556.588 199.86 553L198 553.499C198.613 556.954 198.98 560.467 199.097 564L201 563.907Z" fill="#323F8B"/>
<path d="M88 524.059C88.0808 527.729 88.4073 531.387 88.9769 535L91 534.584C90.4494 531.089 90.134 527.55 90.0566 524L88 524.059Z" fill="#323F8B"/>
<path d="M116 578.885C119.113 581.113 122.37 583.155 125.751 585L127 582.952C123.709 581.156 120.539 579.168 117.509 577L116 578.885Z" fill="#323F8B"/>
<path d="M92 503.547L89.8329 503C89.0124 506.536 88.4003 510.121 88 513.735L90.2145 514C90.6035 510.481 91.1999 506.99 92 503.547Z" fill="#323F8B"/>
<path d="M124 451.716L122.5 450C119.894 452.369 117.394 454.848 115 457.438L116.646 459C118.986 456.467 121.437 454.039 124 451.716Z" fill="#323F8B"/>
<path d="M138.853 437C136.165 438.731 133.548 440.534 131 442.407L132.256 444C134.762 442.148 137.343 440.371 140 438.668L138.853 437Z" fill="#323F8B"/>
<path d="M101 564.32C103.244 567.036 105.695 569.603 108.333 572L110 570.448C107.442 568.124 105.067 565.635 102.892 563L101 564.32Z" fill="#323F8B"/>
<path d="M135 589.216C138.065 590.694 141.208 591.958 144.411 593L145 590.685C141.881 589.671 138.821 588.44 135.837 587L135 589.216Z" fill="#323F8B"/>
<path d="M91 544.791C92.3098 548.309 93.9144 551.723 95.7987 555L98 553.867C96.1803 550.7 94.6303 547.4 93.3648 544L91 544.791Z" fill="#323F8B"/>
<path d="M95.6446 485.834C94.667 488.011 93.7854 490.16 93 492.28L95.1101 493C95.8806 490.923 96.7444 488.816 97.7015 486.68C98.1213 485.745 98.5541 484.823 99 483.913L96.9711 483C96.5177 483.929 96.0756 484.874 95.6446 485.834Z" fill="#323F8B"/>
<path d="M786.476 935.147C783.079 947.268 729.776 937.914 721.736 930.82C720.088 929.367 718.884 926.938 718 924C722.352 926.325 730.668 929.943 743.434 932.137C763.483 935.598 772.321 938.367 779.118 933.636C783.396 930.652 785.415 928.908 786.319 928.028C787.129 930.056 787.26 932.363 786.476 935.147Z" fill="#091558"/>
<path d="M758.972 903.815C758.941 903.683 758.882 903.557 758.798 903.446C758.714 903.334 758.607 903.239 758.483 903.166C758.359 903.092 758.22 903.042 758.074 903.017C757.928 902.993 757.779 902.994 757.634 903.023C752.479 904.023 749.231 905.852 747.228 907.455C746.445 908.082 745.723 908.77 745.07 909.513C744.84 909.77 744.662 909.978 744.566 910.078C744.351 910.191 744.182 910.366 744.086 910.576C743.991 910.785 743.974 911.018 744.038 911.237C744.103 911.456 744.245 911.65 744.442 911.788C744.639 911.926 744.881 912.001 745.13 912C745.326 912.001 745.519 911.959 745.693 911.876C745.794 911.833 745.889 911.779 745.975 911.714C746.08 911.636 746.179 911.55 746.271 911.457C746.423 911.298 746.552 911.128 746.747 910.927C747.137 910.476 747.556 910.047 748.003 909.641C749.071 908.674 750.283 907.85 751.603 907.192C753.651 906.186 755.85 905.462 758.13 905.045C758.42 904.983 758.671 904.819 758.828 904.588C758.986 904.358 759.038 904.08 758.972 903.815Z" fill="#29346D"/>
<path d="M767 910.138C767 909.838 766.888 909.549 766.69 909.336C766.491 909.123 766.222 909.004 765.941 909.004C764.333 908.969 762.728 909.18 761.176 909.631C760.389 909.867 759.641 910.23 758.957 910.709C758.264 911.188 757.7 911.853 757.321 912.638C757.148 912.991 757.041 913.376 757.003 913.772C756.981 914.073 757.072 914.371 757.255 914.601C757.437 914.831 757.698 914.973 757.979 914.996C758.26 915.02 758.538 914.923 758.752 914.727C758.966 914.531 759.099 914.252 759.121 913.951V913.928C759.158 913.756 759.225 913.593 759.317 913.446C759.463 913.209 759.641 912.998 759.847 912.819C760.429 912.331 761.1 911.978 761.816 911.781C763.166 911.4 764.559 911.224 765.954 911.259C766.231 911.255 766.495 911.136 766.69 910.927C766.885 910.717 766.997 910.435 767 910.138Z" fill="#29346D"/>
<path d="M773.089 914.205C772.42 914.076 771.736 914.008 771.05 914.002C770.057 913.98 769.075 914.192 768.212 914.615C767.704 914.877 767.263 915.226 766.918 915.64C766.531 916.11 766.259 916.643 766.118 917.206C766.048 917.465 766.008 917.73 766 917.996C765.997 918.259 766.115 918.513 766.329 918.701C766.543 918.89 766.836 918.997 767.142 919C767.448 919.003 767.744 918.901 767.963 918.717C768.182 918.533 768.307 918.282 768.31 918.018V917.993C768.322 917.838 768.352 917.684 768.4 917.534C768.456 917.355 768.535 917.182 768.636 917.018C768.806 916.734 769.062 916.497 769.378 916.33C769.887 916.082 770.467 915.964 771.05 915.987C771.572 915.994 772.092 916.047 772.601 916.146C772.9 916.202 773.213 916.153 773.471 916.01C773.728 915.868 773.909 915.643 773.974 915.386C774.039 915.128 773.982 914.859 773.816 914.638C773.65 914.416 773.388 914.261 773.089 914.205Z" fill="#29346D"/>
<path d="M619.327 914.961C617.305 913.983 615.197 913.171 613.027 912.533C611.971 912.214 610.873 912.035 609.764 912.002C609.398 911.988 609.032 912.037 608.684 912.146C608.421 912.251 608.21 912.448 608.095 912.694C607.98 912.94 607.969 913.219 608.064 913.473C608.159 913.727 608.353 913.937 608.607 914.061C608.861 914.186 609.155 914.214 609.431 914.142C609.541 914.125 609.652 914.118 609.764 914.121C610.658 914.158 611.543 914.311 612.393 914.577C614.437 915.18 616.422 915.946 618.326 916.867C618.46 916.937 618.607 916.98 618.758 916.995C618.91 917.009 619.063 916.995 619.208 916.952C619.354 916.909 619.489 916.839 619.604 916.746C619.72 916.653 619.815 916.539 619.883 916.411C619.95 916.282 619.99 916.142 619.998 915.999C620.007 915.856 619.984 915.713 619.933 915.578C619.881 915.443 619.8 915.32 619.696 915.215C619.592 915.111 619.466 915.027 619.327 914.969V914.961Z" fill="#29346D"/>
<path d="M611.011 918.735C609.586 918.255 608.084 918.006 606.57 918.001C606.015 917.994 605.461 918.036 604.914 918.125C604.616 918.185 604.356 918.352 604.189 918.591C604.022 918.829 603.963 919.12 604.023 919.4C604.083 919.68 604.259 919.926 604.512 920.085C604.765 920.244 605.074 920.302 605.373 920.249C605.769 920.19 606.169 920.162 606.57 920.167C607.821 920.173 609.061 920.379 610.238 920.777C612.047 921.395 613.685 922.388 615.028 923.683C615.245 923.886 615.539 924 615.845 924C616.151 924 616.445 923.886 616.662 923.683C616.878 923.479 617 923.204 617 922.916C617 922.629 616.878 922.353 616.662 922.15C615.075 920.628 613.144 919.461 611.011 918.735Z" fill="#29346D"/>
<path d="M606.271 925.331C605.291 924.345 604.108 923.66 602.832 923.341C602.02 923.117 601.188 923.003 600.353 923C600.18 923 600.074 923 600.057 923C599.761 923.018 599.484 923.17 599.286 923.422C599.088 923.673 598.986 924.004 599.002 924.342C599.018 924.68 599.15 924.997 599.371 925.223C599.591 925.449 599.881 925.566 600.177 925.548H600.353C601.315 925.552 602.268 925.746 603.172 926.121C603.756 926.365 604.294 926.733 604.759 927.204C605.254 927.724 605.62 928.382 605.822 929.115C605.912 929.436 606.111 929.704 606.374 929.859C606.504 929.935 606.646 929.982 606.792 929.996C606.938 930.009 607.085 929.99 607.225 929.939C607.364 929.888 607.493 929.806 607.605 929.698C607.717 929.59 607.809 929.458 607.876 929.309C607.943 929.16 607.984 928.998 607.996 928.831C608.008 928.665 607.992 928.497 607.947 928.337C607.627 927.186 607.05 926.149 606.271 925.331Z" fill="#29346D"/>
<path d="M515 276.329C515 276.329 532.735 275.033 539 270C533.65 277.629 516.633 281 516.633 281L515 276.329Z" fill="#CAE2F5"/>
<path d="M400.15 499L387 528.507C388.243 529.417 389.543 530.25 390.891 531L405 500.047L400.15 499Z" fill="#323F8B"/>
<path d="M405.269 499L391 530.927C405.62 539.178 412.904 528.201 412.904 528.201L423 506.088L405.269 499Z" fill="#1C4670"/>
<path d="M409.095 511.657C409.732 510.484 409.532 509.144 408.649 508.664C407.765 508.184 406.533 508.746 405.896 509.919C405.259 511.092 405.458 512.432 406.342 512.912C407.225 513.392 408.458 512.83 409.095 511.657Z" fill="white"/>
<path d="M852.067 313L854.44 331.699L871 340.323L854.166 348.387L851.183 367L838.406 353.281L820 356.162L828.939 339.62L820.545 322.787L838.846 326.281L852.067 313Z" fill="#FAAF20"/>
<path d="M403.065 174L405.438 192.702L422 201.326L405.165 209.389L402.184 228L389.407 214.281L371 217.162L379.938 200.62L371.548 183.79L389.848 187.281L403.065 174Z" fill="#FFB701"/>
<path d="M274.302 213L285.203 220.828L297.789 216.224L293.764 229.08L302 239.709L288.612 239.828L281.119 251L276.868 238.215L264 234.493L274.763 226.474L274.302 213Z" fill="#FFB701"/>
<path d="M686.521 160L688.335 174.198L701 180.746L688.128 186.869L685.846 201L676.073 190.583L662 192.77L668.834 180.212L662.414 167.431L676.412 170.085L686.521 160Z" fill="#CAE2F5"/>
<path d="M101.519 384L103.336 398.198L116 404.746L103.126 410.869L100.845 425L91.0749 414.586L77 416.77L83.8359 404.212L77.4171 391.431L91.4109 394.085L101.519 384Z" fill="#FAAF20"/>
<path d="M492.185 561L500.449 570.52L513 569.128L506.474 579.906L511.679 591.378L499.379 588.52L490.047 597L488.975 584.456L478 578.225L489.634 573.33L492.185 561Z" fill="#CAE2F5"/>
<path d="M553.536 521L559.676 528.141L569 527.097L564.15 535.181L568.017 543.783L558.883 541.64L551.95 548L551.151 538.591L543 533.92L551.643 530.25L553.536 521Z" fill="#FAAF20"/>
<path d="M472.802 512L473.16 521.471L481 526.539L472.292 529.815L469.998 539L464.259 531.55L455 532.159L460.16 524.281L456.732 515.473L465.661 518.052L472.802 512Z" fill="#FAAF20"/>
<path d="M779.656 280.585C767.097 271.772 763.931 265.773 761 261.642C763.854 231.104 787.161 185.568 825.509 183C845.168 212.928 847.774 219.203 853 228.199C829.457 240.312 810.929 270.043 805.457 295C805.466 295 784.751 284.163 779.656 280.585Z" fill="#B9C6D3"/>
<path d="M771 253.112C774.168 239.213 784.381 206.374 811.762 195C813.36 197.46 815.77 199.285 818.573 200.16C821.376 201.035 824.398 200.904 827.115 199.791C832.333 207.77 836.206 213.795 839 218.195C836.601 220.148 835.002 222.91 834.505 225.96C834.008 229.01 834.648 232.136 836.303 234.747C827.86 241.639 815.467 253.93 808.317 271.152C801.649 266.931 792.767 269.696 789.798 277C782.44 272.261 777.473 267.932 774.325 264.745C774.794 262.684 774.735 260.537 774.154 258.504C773.572 256.471 772.488 254.617 771 253.112Z" fill="white"/>
<path d="M805 245C809.418 245 813 240.971 813 236C813 231.029 809.418 227 805 227C800.582 227 797 231.029 797 236C797 240.971 800.582 245 805 245Z" fill="#CAE2F5"/>
<path d="M820.5 225C822.985 225 825 222.985 825 220.5C825 218.015 822.985 216 820.5 216C818.015 216 816 218.015 816 220.5C816 222.985 818.015 225 820.5 225Z" fill="#CAE2F5"/>
<path d="M792 256C794.209 256 796 253.985 796 251.5C796 249.015 794.209 247 792 247C789.791 247 788 249.015 788 251.5C788 253.985 789.791 256 792 256Z" fill="#CAE2F5"/>
<path d="M161.552 660.046C167.974 668.795 172.298 670.976 175.279 673C197.115 670.73 229.504 653.94 231 626.934C209.397 613.374 204.882 611.604 198.395 608C189.935 624.659 168.817 637.945 151 642.013C151 642.027 158.944 656.495 161.552 660.046Z" fill="#CAE2F5"/>
<path d="M181.119 667C190.966 664.606 214.173 656.999 222 637.294C220.239 636.172 218.922 634.463 218.276 632.463C217.63 630.464 217.697 628.299 218.464 626.343C212.753 622.679 208.445 619.961 205.297 618C203.933 619.735 201.986 620.905 199.826 621.288C197.666 621.671 195.441 621.24 193.574 620.078C188.757 626.184 180.146 635.164 167.987 640.443C168.708 641.552 169.179 642.807 169.368 644.12C169.556 645.433 169.456 646.771 169.076 648.041C168.696 649.311 168.044 650.48 167.167 651.467C166.29 652.455 165.209 653.235 164 653.753C167.429 658.978 170.544 662.497 172.825 664.723C174.286 664.367 175.812 664.389 177.261 664.787C178.711 665.185 180.038 665.946 181.119 667Z" fill="white"/>
<path d="M192.703 648.001C196.241 647.957 199.078 645.38 199.039 642.244C199 639.109 196.1 636.603 192.562 636.647C189.024 636.691 186.188 639.268 186.227 642.403C186.265 645.538 189.165 648.044 192.703 648.001Z" fill="#CAE2F5"/>
<path d="M204.5 635C206.433 635 208 633.433 208 631.5C208 629.567 206.433 628 204.5 628C202.567 628 201 629.567 201 631.5C201 633.433 202.567 635 204.5 635Z" fill="#CAE2F5"/>
<path d="M182 655C183.657 655 185 653.657 185 652C185 650.343 183.657 649 182 649C180.343 649 179 650.343 179 652C179 653.657 180.343 655 182 655Z" fill="#CAE2F5"/>
<path d="M396.44 907.105L392.679 905.136C392.422 905.001 392.117 904.965 391.83 905.035C391.543 905.104 391.298 905.275 391.15 905.508C391.002 905.741 390.961 906.018 391.038 906.278C391.115 906.538 391.303 906.76 391.56 906.895L395.321 908.864C395.578 908.999 395.884 909.035 396.17 908.965C396.457 908.896 396.702 908.725 396.85 908.492C396.998 908.259 397.039 907.982 396.962 907.722C396.885 907.462 396.697 907.24 396.44 907.105Z" fill="#29346D"/>
<path d="M409.177 911.623L404.543 910.049C404.245 909.961 403.923 909.992 403.647 910.138C403.371 910.284 403.161 910.533 403.062 910.832C402.963 911.131 402.983 911.458 403.116 911.743C403.25 912.027 403.487 912.249 403.779 912.361L408.413 913.937C408.716 914.04 409.047 914.016 409.333 913.872C409.619 913.727 409.836 913.474 409.938 913.167C410.039 912.86 410.016 912.525 409.873 912.235C409.731 911.946 409.481 911.725 409.177 911.623Z" fill="#29346D"/>
<path d="M404.265 907.906C404.567 907.789 404.806 907.568 404.929 907.292C405.052 907.016 405.05 906.707 404.922 906.433C404.635 905.71 404.49 904.948 404.492 904.18C404.489 903.325 404.685 902.48 405.068 901.698C405.609 900.643 406.438 899.73 407.476 899.045C407.613 898.957 407.728 898.845 407.816 898.716C407.903 898.587 407.961 898.444 407.986 898.294C408.011 898.144 408.002 897.991 407.96 897.845C407.918 897.698 407.844 897.56 407.742 897.44C407.64 897.32 407.512 897.22 407.367 897.145C407.221 897.071 407.06 897.024 406.893 897.007C406.727 896.99 406.558 897.004 406.398 897.047C406.237 897.09 406.088 897.162 405.959 897.259C404.593 898.172 403.503 899.382 402.791 900.777C402.266 901.848 401.997 903.008 402 904.18C401.99 905.253 402.201 906.318 402.623 907.32C402.688 907.456 402.782 907.58 402.9 907.683C403.018 907.786 403.157 907.867 403.31 907.921C403.462 907.976 403.625 908.002 403.789 908C403.953 907.997 404.114 907.965 404.265 907.906Z" fill="#29346D"/>
<path d="M400.576 904.058L400.544 904.033C399.925 903.565 399.378 903.033 398.915 902.449C398.541 901.985 398.233 901.485 398 900.958C397.685 900.261 397.561 899.511 397.637 898.767C397.714 898.022 397.99 897.303 398.443 896.664C398.612 896.406 398.655 896.1 398.561 895.815C398.468 895.53 398.245 895.288 397.943 895.143C397.64 894.998 397.283 894.962 396.949 895.042C396.615 895.122 396.332 895.312 396.163 895.57C395.504 896.521 395.113 897.589 395.021 898.69C394.929 899.792 395.138 900.897 395.632 901.918C396.127 902.945 396.82 903.895 397.681 904.728C398.066 905.111 398.486 905.466 398.938 905.791C399.209 905.957 399.544 906.028 399.874 905.99C400.204 905.951 400.505 905.806 400.713 905.584C400.922 905.362 401.023 905.079 400.996 904.796C400.968 904.512 400.815 904.248 400.566 904.058H400.576Z" fill="#29346D"/>
<path d="M243.902 916.413C243.781 916.382 243.663 916.332 243.553 916.265C243.15 916.013 242.771 915.711 242.422 915.364C241.808 914.761 241.225 914.116 240.674 913.433C240.436 913.14 240.238 912.886 240.102 912.705C240.032 912.615 239.98 912.545 239.945 912.496L239.905 912.445C239.811 912.317 239.698 912.212 239.57 912.136C239.443 912.061 239.304 912.015 239.162 912.003C239.02 911.991 238.878 912.012 238.742 912.066C238.607 912.119 238.482 912.204 238.375 912.314C238.267 912.425 238.179 912.56 238.115 912.711C238.051 912.862 238.013 913.027 238.003 913.196C237.993 913.364 238.01 913.534 238.055 913.694C238.1 913.855 238.171 914.003 238.265 914.131C238.281 914.15 239.105 915.283 240.162 916.445C240.7 917.048 241.277 917.6 241.889 918.096C242.187 918.334 242.502 918.54 242.832 918.71C243.174 918.89 243.542 918.989 243.916 919C244.203 919 244.479 918.864 244.682 918.623C244.886 918.382 245 918.054 245 917.713C245 917.371 244.886 917.044 244.682 916.803C244.479 916.561 244.203 916.426 243.916 916.426L243.902 916.413Z" fill="#29346D"/>
<path d="M253.751 920.88C253.271 920.862 252.797 920.781 252.345 920.64C251.53 920.394 250.741 920.086 249.99 919.721C249.662 919.566 249.387 919.426 249.195 919.325L248.979 919.206L248.923 919.177C248.65 919.022 248.316 918.966 247.994 919.021C247.673 919.075 247.39 919.237 247.208 919.47C247.026 919.704 246.96 919.989 247.024 920.264C247.088 920.538 247.278 920.78 247.551 920.936C248.219 921.303 248.909 921.64 249.619 921.944C250.251 922.217 250.905 922.454 251.575 922.652C252.279 922.865 253.017 922.982 253.764 923C254.092 923 254.406 922.889 254.638 922.691C254.87 922.493 255 922.224 255 921.944C255 921.664 254.87 921.395 254.638 921.197C254.406 920.999 254.092 920.888 253.764 920.888L253.751 920.88Z" fill="#29346D"/>
<path d="M262.176 924.478L259.281 924.021C259.146 923.997 259.006 923.994 258.869 924.011C258.733 924.027 258.602 924.064 258.485 924.119C258.368 924.174 258.267 924.245 258.187 924.329C258.108 924.413 258.052 924.507 258.023 924.607C257.994 924.707 257.992 924.811 258.018 924.911C258.044 925.011 258.096 925.107 258.172 925.192C258.249 925.278 258.347 925.351 258.463 925.408C258.578 925.465 258.707 925.504 258.843 925.523L261.739 925.983C261.872 926.004 262.011 926.006 262.145 925.987C262.28 925.969 262.409 925.932 262.524 925.877C262.639 925.822 262.738 925.751 262.815 925.668C262.893 925.584 262.948 925.491 262.977 925.392C263.005 925.293 263.008 925.191 262.983 925.092C262.958 924.992 262.907 924.897 262.833 924.813C262.759 924.728 262.662 924.654 262.55 924.597C262.437 924.54 262.31 924.499 262.176 924.478Z" fill="#29346D"/>
<path d="M247.154 910.719C247.831 910.173 248.6 909.746 249.429 909.458C250.905 908.926 252.432 908.538 253.988 908.301C254.145 908.278 254.295 908.224 254.43 908.144C254.566 908.064 254.683 907.958 254.776 907.833C254.868 907.708 254.934 907.566 254.97 907.416C255.005 907.266 255.01 907.11 254.982 906.959C254.955 906.807 254.897 906.662 254.812 906.532C254.726 906.403 254.615 906.291 254.484 906.204C254.353 906.117 254.206 906.055 254.051 906.024C253.896 905.993 253.736 905.992 253.58 906.022C252.024 906.266 250.492 906.642 249.003 907.144C247.166 907.792 245.93 908.555 245.132 909.429C244.756 909.829 244.459 910.293 244.256 910.797C244.088 911.226 244.001 911.682 244 912.142C244.007 912.742 244.148 913.335 244.414 913.877C244.534 914.133 244.684 914.374 244.861 914.597C245.06 914.823 245.342 914.965 245.647 914.994C245.952 915.024 246.257 914.937 246.499 914.754C246.74 914.57 246.899 914.303 246.943 914.008C246.987 913.714 246.912 913.414 246.734 913.171C246.658 913.067 246.594 912.954 246.543 912.836C246.441 912.615 246.386 912.375 246.382 912.133C246.384 911.882 246.45 911.635 246.576 911.416C246.726 911.153 246.922 910.918 247.154 910.719Z" fill="#29346D"/>
<path d="M260.991 913.395C261.03 913.127 260.943 912.856 260.75 912.643C260.556 912.43 260.272 912.291 259.96 912.257C258.591 912.098 257.213 912.013 255.832 912.002C254.533 911.985 253.236 912.098 251.969 912.341C250.45 912.652 249.472 913.153 248.872 913.643C248.483 913.941 248.192 914.322 248.031 914.748C247.963 915 248.008 915.265 248.159 915.489C248.309 915.713 248.552 915.879 248.84 915.955C249.128 916.031 249.439 916.01 249.709 915.897C249.98 915.784 250.19 915.587 250.298 915.345C250.338 915.28 250.391 915.22 250.453 915.169C250.849 914.849 251.329 914.615 251.853 914.488C252.679 914.245 253.933 914.041 255.826 914.041C257.107 914.049 258.386 914.124 259.657 914.268C259.968 914.304 260.284 914.232 260.534 914.068C260.784 913.905 260.948 913.663 260.991 913.395Z" fill="#29346D"/>
<path d="M747.841 462.293C746.594 459.552 744.479 456.636 741.955 453.7C738.165 449.309 733.446 444.907 729.332 441.335C725.217 437.764 721.717 435.034 720.378 434L719.015 435.825C724.412 439.988 729.585 444.441 734.513 449.166C737.753 452.317 740.858 455.674 743.12 458.804C744.153 460.193 745.048 461.682 745.793 463.25C746.42 464.622 746.738 465.856 746.735 466.856C746.736 467.091 746.717 467.326 746.679 467.558C746.651 467.699 746.606 467.836 746.546 467.967C746.305 468.498 746.012 469.004 745.672 469.477C744.588 470.982 743.413 472.417 742.152 473.773C739.507 476.703 735.965 480.235 732.143 483.872C726.416 489.332 720.062 495.043 715.143 499.371C712.684 501.539 710.583 503.366 709.097 504.65L707.362 506.145L706.9 506.54L706.742 506.675L706 507.308L707.616 510L709.542 508.806L708.936 507.795C711.398 505.681 719.653 498.557 727.995 490.87C732.981 486.287 738.004 481.489 741.862 477.425C743.794 475.394 745.435 473.544 746.656 471.983C747.198 471.294 747.696 470.572 748.148 469.82C748.328 469.513 748.489 469.196 748.631 468.869C748.761 468.571 748.855 468.257 748.913 467.936C748.971 467.579 749.001 467.218 749 466.856C748.989 465.384 748.552 463.863 747.841 462.293Z" fill="#CAE2F5"/>
<path d="M667.623 340.963C667.241 342.351 660.589 368 655 368L663.78 336.126C663.78 336.126 662.918 336.175 661.543 336.101C662.397 335.932 663.235 335.69 664.047 335.379C669.145 333.428 667.996 339.578 667.623 340.963Z" fill="#F35757"/>
<path d="M376 372.315V399.752C375.557 399.908 375.091 399.991 374.62 400C370.007 400 367 375.297 367 372.324C367 369.351 376 372.315 376 372.315Z" fill="#F35757"/>
<path d="M738.543 451.952L721.878 438.236C721.64 438.057 721.34 437.975 721.041 438.007C720.742 438.039 720.467 438.183 720.274 438.409C720.08 438.635 719.983 438.925 720.002 439.219C720.022 439.514 720.156 439.789 720.378 439.989L737.042 453.698C737.158 453.803 737.295 453.883 737.444 453.935C737.592 453.986 737.75 454.008 737.908 453.998C738.065 453.988 738.219 453.946 738.359 453.877C738.5 453.807 738.625 453.71 738.726 453.591C738.828 453.473 738.904 453.335 738.95 453.187C738.995 453.039 739.01 452.884 738.993 452.73C738.976 452.576 738.927 452.428 738.85 452.293C738.772 452.158 738.668 452.04 738.543 451.946V451.952Z" fill="#29346D"/>
<path d="M620.224 404.084C620.073 404.028 619.912 404 619.749 404C619.587 404 619.426 404.03 619.276 404.086C619.125 404.143 618.989 404.226 618.874 404.33C618.76 404.434 618.669 404.557 618.607 404.693C618.607 404.71 617.538 407.037 616.439 410.075C615.888 411.595 615.324 413.294 614.875 414.978C614.425 416.567 614.132 418.188 614.002 419.824C613.993 419.97 614.017 420.117 614.072 420.256C614.126 420.394 614.21 420.522 614.32 420.631C614.429 420.74 614.561 420.828 614.708 420.892C614.855 420.955 615.014 420.991 615.177 420.999C615.34 421.006 615.502 420.985 615.656 420.935C615.809 420.886 615.951 420.81 616.072 420.712C616.192 420.613 616.291 420.494 616.361 420.362C616.431 420.229 616.471 420.085 616.479 419.938C616.602 418.441 616.872 416.956 617.285 415.501C617.922 413.202 618.689 410.934 619.583 408.705C619.954 407.761 620.289 406.967 620.527 406.411L620.809 405.766C620.84 405.693 620.868 405.637 620.883 405.598L620.902 405.556C620.966 405.42 620.999 405.273 621 405.124C621.001 404.976 620.968 404.829 620.905 404.692C620.842 404.555 620.749 404.43 620.632 404.326C620.515 404.222 620.376 404.139 620.224 404.084Z" fill="#29346D"/>
<path d="M360 536.223L358.361 539.968C358.361 539.968 210.208 543.401 222.754 478.661C223.032 477.427 223.334 476.207 223.661 475C224.906 487.277 229.723 500.444 243.046 508.081C271.753 524.557 343.442 536.015 360 536.223Z" fill="#CAE2F5"/>
<path d="M301.797 453.433C301.71 453.324 301.599 453.231 301.471 453.16C301.342 453.088 301.199 453.039 301.049 453.016C300.899 452.992 300.745 452.995 300.596 453.023C300.448 453.052 300.307 453.105 300.182 453.181C300.182 453.181 298.688 454.084 296.85 455.289C295.93 455.895 294.921 456.573 293.95 457.259C292.978 457.945 292.079 458.636 291.34 459.277C291.122 459.466 291 459.723 291 459.991C291 460.258 291.122 460.515 291.34 460.704C291.558 460.894 291.853 461 292.161 461C292.468 461 292.764 460.894 292.981 460.704C293.628 460.139 294.495 459.481 295.417 458.82C296.806 457.829 298.317 456.83 299.503 456.084C300.083 455.708 300.587 455.398 300.938 455.178L301.35 454.926L301.457 454.858L301.492 454.838C301.619 454.763 301.727 454.668 301.81 454.556C301.894 454.445 301.952 454.321 301.98 454.19C302.008 454.06 302.007 453.926 301.975 453.796C301.944 453.666 301.883 453.543 301.797 453.433Z" fill="#29346D"/>
<path d="M294 495C294 495 347.104 518.472 367 520.119C366.212 522.022 361.356 520.25 361.356 520.25C361.356 520.25 305.025 508.484 294 495Z" fill="#CAE2F5"/>
<path d="M661.247 373.003C661.247 373.003 657.529 386.226 656.264 395.075C655 403.923 655 409 655 409L658.122 408.164C658.122 408.164 663.391 377.473 665 373C663.75 373.063 662.497 373.064 661.247 373.003Z" fill="#323F8B"/>
<path d="M858.183 640.994C826.157 640.994 793.33 601.464 791.949 599.779L789 596.193L792.394 593.02C793.187 592.278 812.02 574.745 828.264 565.362L832.357 563L834.906 566.978C850.265 590.964 874.295 593.534 883.897 593.534C885.858 593.534 887.017 593.417 887.037 593.414L901 591.901L891.335 601.558C890.725 602.544 887.365 608.509 878.286 633.643L877.672 635.357L876.108 636.262C870.664 639.405 864.482 641.04 858.197 640.999L858.183 640.994Z" fill="#CAE2F5"/>
<path d="M800 601.035C811.538 613.281 844.469 644.409 871.006 632.222C871.283 631.463 871.71 630.766 872.26 630.17C872.811 629.574 873.475 629.091 874.216 628.747C878.171 618.053 881.005 611.048 883 606.473C882.012 606.385 881.06 606.067 880.221 605.547C879.381 605.027 878.679 604.319 878.17 603.48C877.662 602.642 877.362 601.697 877.296 600.723C877.229 599.748 877.398 598.772 877.787 597.874C866.616 596.835 847.813 592.271 833.893 574.429C832.565 575.281 830.959 575.608 829.396 575.343C827.834 575.078 826.431 574.241 825.47 573C815.898 579.186 806.075 587.326 800.469 592.175C801.04 592.782 801.481 593.496 801.767 594.273C802.053 595.051 802.178 595.877 802.134 596.703C802.09 597.529 801.879 598.337 801.512 599.081C801.146 599.826 800.632 600.49 800 601.035Z" fill="white"/>
<path d="M847.186 611.366C850.316 607.04 849.681 601.239 845.769 598.408C841.857 595.576 836.148 596.788 833.019 601.113C829.889 605.439 830.523 611.24 834.435 614.071C838.347 616.903 844.056 615.691 847.186 611.366Z" fill="#CAE2F5"/>
<path d="M868.168 620.037C870.034 617.476 870.229 614.44 868.604 613.257C866.979 612.073 864.149 613.19 862.284 615.751C860.418 618.312 860.223 621.348 861.848 622.532C863.473 623.715 866.303 622.599 868.168 620.037Z" fill="#CAE2F5"/>
<path d="M826.766 596.29C828.554 594.502 828.678 591.728 827.043 590.093C825.409 588.458 822.634 588.582 820.846 590.37C819.059 592.158 818.935 594.933 820.569 596.567C822.204 598.202 824.978 598.078 826.766 596.29Z" fill="#CAE2F5"/>
<path d="M811.483 448.701C809.226 442.05 805.855 436.482 803.05 432.556C801.51 430.361 799.809 428.278 797.962 426.325C797.747 426.117 797.457 426.001 797.156 426C796.854 425.999 796.565 426.115 796.349 426.321C796.133 426.528 796.008 426.809 796 427.106C795.993 427.402 796.104 427.689 796.31 427.905C796.387 427.982 800.259 431.922 804.094 438.294C806.238 441.835 807.995 445.589 809.332 449.494C810.862 453.926 811.659 458.57 811.694 463.25C811.699 467.059 811.115 470.847 809.964 474.483C809.911 474.627 809.888 474.78 809.897 474.933C809.906 475.085 809.947 475.235 810.016 475.372C810.086 475.508 810.182 475.63 810.301 475.729C810.419 475.829 810.557 475.903 810.705 475.949C810.854 475.994 811.01 476.01 811.165 475.994C811.32 475.979 811.47 475.933 811.606 475.859C811.743 475.785 811.862 475.685 811.958 475.564C812.054 475.444 812.124 475.305 812.163 475.158C813.385 471.306 814.004 467.295 814 463.262C813.963 458.307 813.113 453.39 811.483 448.701Z" fill="#DBDBDD"/>
</g>
<defs>
<clipPath id="clip0_426_14">
<rect width="1016" height="1023" fill="white"/>
</clipPath>
</defs>
</svg>
