<svg width="1000" height="974" viewBox="0 0 1000 974" fill="none" xmlns="http://www.w3.org/2000/svg">
<rect width="1000" height="974" fill="white"/>
<path d="M282.83 43.7778V59.0049C282.257 59.7389 281.353 60.5356 280.118 61.395C278.9 62.2544 277.307 62.9974 275.337 63.624C273.368 64.2327 270.951 64.5371 268.086 64.5371C265.598 64.5371 263.324 64.1253 261.265 63.3018C259.206 62.4603 257.434 61.2339 255.948 59.6226C254.462 58.0112 253.316 56.0418 252.51 53.7144C251.705 51.3869 251.302 48.7282 251.302 45.7383V43.1602C251.302 40.1702 251.678 37.5116 252.43 35.1841C253.2 32.8566 254.292 30.8872 255.706 29.2759C257.138 27.6646 258.848 26.4382 260.835 25.5967C262.841 24.7552 265.079 24.3345 267.549 24.3345C270.861 24.3345 273.583 24.8805 275.713 25.9727C277.862 27.0648 279.509 28.5687 280.655 30.4844C281.801 32.3822 282.517 34.5664 282.803 37.0371H275.606C275.409 35.6764 275.015 34.4858 274.424 33.4653C273.833 32.4269 272.992 31.6213 271.9 31.0483C270.826 30.4575 269.429 30.1621 267.71 30.1621C266.26 30.1621 264.98 30.4486 263.87 31.0215C262.76 31.5944 261.829 32.4269 261.077 33.519C260.325 34.6112 259.752 35.9629 259.358 37.5742C258.982 39.1855 258.794 41.0296 258.794 43.1064V45.7383C258.794 47.833 259.009 49.695 259.439 51.3242C259.869 52.9355 260.486 54.2962 261.292 55.4062C262.116 56.4984 263.127 57.3309 264.327 57.9038C265.544 58.4588 266.923 58.7363 268.462 58.7363C269.859 58.7363 271.014 58.62 271.927 58.3872C272.858 58.1366 273.601 57.8411 274.156 57.501C274.711 57.1608 275.14 56.8296 275.445 56.5073V49.1758H267.684V43.7778H282.83ZM302.327 64.5371C300.125 64.5371 298.147 64.179 296.392 63.4629C294.638 62.7467 293.143 61.7531 291.907 60.4819C290.69 59.1929 289.75 57.6979 289.087 55.9971C288.443 54.2783 288.121 52.4342 288.121 50.4648V49.3906C288.121 47.1527 288.443 45.1206 289.087 43.2944C289.732 41.4504 290.645 39.8659 291.827 38.541C293.008 37.2161 294.423 36.1956 296.07 35.4795C297.717 34.7633 299.534 34.4053 301.521 34.4053C303.58 34.4053 305.398 34.7544 306.973 35.4526C308.549 36.133 309.865 37.0998 310.921 38.353C311.977 39.6063 312.774 41.1102 313.311 42.8647C313.848 44.6014 314.117 46.526 314.117 48.6387V51.6196H291.343V46.7319H307.134V46.1948C307.098 45.0669 306.884 44.0374 306.49 43.1064C306.096 42.1576 305.487 41.4056 304.664 40.8506C303.84 40.2777 302.775 39.9912 301.468 39.9912C300.411 39.9912 299.489 40.224 298.702 40.6895C297.932 41.137 297.287 41.7816 296.768 42.623C296.267 43.4466 295.891 44.4313 295.64 45.5771C295.389 46.723 295.264 47.9941 295.264 49.3906V50.4648C295.264 51.6823 295.425 52.8102 295.748 53.8486C296.088 54.887 296.58 55.7912 297.225 56.561C297.887 57.313 298.675 57.9038 299.588 58.3335C300.519 58.7453 301.575 58.9512 302.757 58.9512C304.243 58.9512 305.586 58.6647 306.785 58.0918C308.003 57.501 309.059 56.6326 309.954 55.4868L313.526 59.1929C312.917 60.0881 312.094 60.9474 311.055 61.771C310.035 62.5946 308.799 63.266 307.349 63.7852C305.899 64.2865 304.225 64.5371 302.327 64.5371ZM332.62 34.9424V40.0449H315.97V34.9424H332.62ZM320.428 27.7988H327.544V55.6211C327.544 56.4805 327.661 57.1429 327.894 57.6084C328.126 58.0739 328.475 58.3872 328.941 58.5483C329.406 58.7095 329.961 58.79 330.606 58.79C331.071 58.79 331.501 58.7632 331.895 58.7095C332.289 58.6558 332.62 58.6021 332.889 58.5483L332.916 63.8657C332.325 64.0627 331.653 64.2238 330.901 64.3491C330.167 64.4744 329.335 64.5371 328.404 64.5371C326.81 64.5371 325.414 64.2686 324.214 63.7314C323.015 63.1764 322.084 62.2902 321.421 61.0728C320.759 59.8374 320.428 58.2082 320.428 56.1851V27.7988ZM383.243 43.4556V45.4697C383.243 48.4238 382.849 51.0825 382.061 53.4458C381.273 55.7912 380.154 57.7874 378.704 59.4346C377.254 61.0817 375.526 62.3439 373.521 63.2212C371.516 64.0985 369.287 64.5371 366.834 64.5371C364.417 64.5371 362.197 64.0985 360.174 63.2212C358.169 62.3439 356.432 61.0817 354.964 59.4346C353.496 57.7874 352.359 55.7912 351.553 53.4458C350.748 51.0825 350.345 48.4238 350.345 45.4697V43.4556C350.345 40.4836 350.748 37.8249 351.553 35.4795C352.359 33.1341 353.487 31.1379 354.937 29.4907C356.387 27.8257 358.115 26.5545 360.12 25.6772C362.143 24.8 364.363 24.3613 366.78 24.3613C369.233 24.3613 371.462 24.8 373.467 25.6772C375.472 26.5545 377.2 27.8257 378.65 29.4907C380.118 31.1379 381.246 33.1341 382.034 35.4795C382.84 37.8249 383.243 40.4836 383.243 43.4556ZM375.777 45.4697V43.4019C375.777 41.2713 375.58 39.4004 375.186 37.7891C374.792 36.1598 374.21 34.7902 373.44 33.6802C372.671 32.5701 371.722 31.7376 370.594 31.1826C369.466 30.6097 368.195 30.3232 366.78 30.3232C365.348 30.3232 364.077 30.6097 362.967 31.1826C361.875 31.7376 360.944 32.5701 360.174 33.6802C359.404 34.7902 358.813 36.1598 358.401 37.7891C358.007 39.4004 357.811 41.2713 357.811 43.4019V45.4697C357.811 47.5824 358.007 49.4533 358.401 51.0825C358.813 52.7118 359.404 54.0903 360.174 55.2183C360.962 56.3283 361.91 57.1698 363.021 57.7427C364.131 58.3156 365.402 58.6021 366.834 58.6021C368.266 58.6021 369.537 58.3156 370.647 57.7427C371.757 57.1698 372.688 56.3283 373.44 55.2183C374.21 54.0903 374.792 52.7118 375.186 51.0825C375.58 49.4533 375.777 47.5824 375.777 45.4697ZM395.918 41.146V64H388.829V34.9424H395.489L395.918 41.146ZM394.791 48.4238H392.696C392.714 46.3112 393 44.3955 393.555 42.6768C394.11 40.958 394.889 39.481 395.892 38.2456C396.912 37.0103 398.121 36.0614 399.517 35.3989C400.914 34.7365 402.471 34.4053 404.19 34.4053C405.586 34.4053 406.849 34.6022 407.977 34.9961C409.104 35.39 410.071 36.0166 410.877 36.876C411.701 37.7354 412.327 38.8633 412.757 40.2598C413.204 41.6383 413.428 43.3392 413.428 45.3623V64H406.285V45.3086C406.285 43.9837 406.088 42.9364 405.694 42.1665C405.318 41.3966 404.763 40.8506 404.029 40.5283C403.313 40.2061 402.426 40.0449 401.37 40.0449C400.278 40.0449 399.32 40.2687 398.497 40.7163C397.691 41.146 397.011 41.7458 396.456 42.5156C395.918 43.2855 395.507 44.1717 395.22 45.1743C394.934 46.1769 394.791 47.2601 394.791 48.4238ZM427.205 22.75V64H420.088V22.75H427.205ZM441.492 34.9424V64H434.375V34.9424H441.492ZM433.892 27.3423C433.892 26.286 434.25 25.4087 434.966 24.7104C435.7 24.0122 436.685 23.6631 437.92 23.6631C439.156 23.6631 440.132 24.0122 440.848 24.7104C441.582 25.4087 441.949 26.286 441.949 27.3423C441.949 28.3807 441.582 29.249 440.848 29.9473C440.132 30.6455 439.156 30.9946 437.92 30.9946C436.685 30.9946 435.7 30.6455 434.966 29.9473C434.25 29.249 433.892 28.3807 433.892 27.3423ZM455.215 41.146V64H448.125V34.9424H454.786L455.215 41.146ZM454.087 48.4238H451.993C452.011 46.3112 452.297 44.3955 452.852 42.6768C453.407 40.958 454.186 39.481 455.188 38.2456C456.209 37.0103 457.417 36.0614 458.814 35.3989C460.21 34.7365 461.768 34.4053 463.487 34.4053C464.883 34.4053 466.146 34.6022 467.273 34.9961C468.401 35.39 469.368 36.0166 470.174 36.876C470.997 37.7354 471.624 38.8633 472.054 40.2598C472.501 41.6383 472.725 43.3392 472.725 45.3623V64H465.582V45.3086C465.582 43.9837 465.385 42.9364 464.991 42.1665C464.615 41.3966 464.06 40.8506 463.326 40.5283C462.61 40.2061 461.723 40.0449 460.667 40.0449C459.575 40.0449 458.617 40.2687 457.793 40.7163C456.988 41.146 456.307 41.7458 455.752 42.5156C455.215 43.2855 454.804 44.1717 454.517 45.1743C454.231 46.1769 454.087 47.2601 454.087 48.4238ZM492.034 64.5371C489.832 64.5371 487.854 64.179 486.099 63.4629C484.345 62.7467 482.85 61.7531 481.614 60.4819C480.397 59.1929 479.457 57.6979 478.794 55.9971C478.15 54.2783 477.828 52.4342 477.828 50.4648V49.3906C477.828 47.1527 478.15 45.1206 478.794 43.2944C479.439 41.4504 480.352 39.8659 481.534 38.541C482.715 37.2161 484.13 36.1956 485.777 35.4795C487.424 34.7633 489.241 34.4053 491.229 34.4053C493.287 34.4053 495.105 34.7544 496.68 35.4526C498.256 36.133 499.572 37.0998 500.628 38.353C501.684 39.6063 502.481 41.1102 503.018 42.8647C503.555 44.6014 503.824 46.526 503.824 48.6387V51.6196H481.05V46.7319H496.841V46.1948C496.806 45.0669 496.591 44.0374 496.197 43.1064C495.803 42.1576 495.194 41.4056 494.371 40.8506C493.547 40.2777 492.482 39.9912 491.175 39.9912C490.118 39.9912 489.196 40.224 488.409 40.6895C487.639 41.137 486.994 41.7816 486.475 42.623C485.974 43.4466 485.598 44.4313 485.347 45.5771C485.097 46.723 484.971 47.9941 484.971 49.3906V50.4648C484.971 51.6823 485.132 52.8102 485.455 53.8486C485.795 54.887 486.287 55.7912 486.932 56.561C487.594 57.313 488.382 57.9038 489.295 58.3335C490.226 58.7453 491.282 58.9512 492.464 58.9512C493.95 58.9512 495.293 58.6647 496.492 58.0918C497.71 57.501 498.766 56.6326 499.661 55.4868L503.233 59.1929C502.624 60.0881 501.801 60.9474 500.762 61.771C499.742 62.5946 498.506 63.266 497.056 63.7852C495.606 64.2865 493.932 64.5371 492.034 64.5371ZM543.274 53.8486C543.274 53.0967 543.158 52.4253 542.925 51.8345C542.71 51.2257 542.308 50.6797 541.717 50.1963C541.144 49.695 540.329 49.2116 539.273 48.7461C538.235 48.2627 536.892 47.7614 535.245 47.2422C533.418 46.6693 531.718 46.0247 530.142 45.3086C528.567 44.5924 527.179 43.7599 525.979 42.811C524.798 41.8621 523.876 40.77 523.213 39.5347C522.551 38.2814 522.22 36.8312 522.22 35.1841C522.22 33.5728 522.56 32.1047 523.24 30.7798C523.938 29.4549 524.923 28.318 526.194 27.3691C527.465 26.4023 528.96 25.6593 530.679 25.1401C532.416 24.6209 534.332 24.3613 536.426 24.3613C539.327 24.3613 541.833 24.8895 543.946 25.9458C546.076 27.0021 547.723 28.4344 548.887 30.2427C550.051 32.0509 550.633 34.083 550.633 36.3389H543.274C543.274 35.1214 543.015 34.0472 542.496 33.1162C541.994 32.1852 541.224 31.4512 540.186 30.9141C539.166 30.377 537.876 30.1084 536.319 30.1084C534.815 30.1084 533.562 30.3322 532.559 30.7798C531.574 31.2274 530.831 31.8361 530.33 32.606C529.847 33.3758 529.605 34.2352 529.605 35.1841C529.605 35.9002 529.775 36.5448 530.115 37.1177C530.455 37.6727 530.966 38.2008 531.646 38.7021C532.326 39.1855 533.168 39.6421 534.17 40.0718C535.191 40.4836 536.373 40.8953 537.715 41.3071C539.864 41.9517 541.744 42.6678 543.355 43.4556C544.984 44.2433 546.336 45.1385 547.41 46.1411C548.502 47.1437 549.317 48.2716 549.854 49.5249C550.409 50.7782 550.687 52.2015 550.687 53.7949C550.687 55.4779 550.355 56.9818 549.693 58.3066C549.03 59.6315 548.082 60.7594 546.846 61.6904C545.611 62.6214 544.125 63.3286 542.388 63.812C540.669 64.2954 538.745 64.5371 536.614 64.5371C534.716 64.5371 532.837 64.2865 530.975 63.7852C529.131 63.266 527.457 62.4961 525.953 61.4756C524.449 60.4372 523.249 59.1302 522.354 57.5547C521.459 55.9613 521.011 54.0993 521.011 51.9688H528.423C528.423 53.2041 528.62 54.2604 529.014 55.1377C529.426 55.9971 529.999 56.7043 530.733 57.2593C531.485 57.7964 532.362 58.1903 533.365 58.4409C534.367 58.6916 535.451 58.8169 536.614 58.8169C538.118 58.8169 539.354 58.611 540.32 58.1992C541.305 57.7695 542.039 57.1787 542.522 56.4268C543.024 55.6748 543.274 54.8154 543.274 53.8486ZM562.798 22.75V64H555.682V22.75H562.798ZM561.67 48.4238H559.576C559.576 46.4007 559.844 44.5387 560.381 42.8379C560.918 41.137 561.679 39.66 562.664 38.4067C563.649 37.1356 564.821 36.1509 566.182 35.4526C567.561 34.7544 569.083 34.4053 570.748 34.4053C572.18 34.4053 573.478 34.6112 574.642 35.0229C575.823 35.4168 576.835 36.0524 577.676 36.9297C578.518 37.807 579.162 38.9528 579.61 40.3672C580.075 41.7637 580.308 43.4645 580.308 45.4697V64H573.165V45.416C573.165 44.0732 572.968 43.0169 572.574 42.2471C572.18 41.4593 571.616 40.8953 570.882 40.5552C570.166 40.215 569.279 40.0449 568.223 40.0449C567.077 40.0449 566.093 40.2687 565.269 40.7163C564.445 41.146 563.765 41.7458 563.228 42.5156C562.709 43.2855 562.315 44.1717 562.046 45.1743C561.796 46.1769 561.67 47.2601 561.67 48.4238ZM585.303 49.7666V49.2026C585.303 47.0721 585.608 45.1117 586.216 43.3213C586.825 41.513 587.711 39.9465 588.875 38.6216C590.039 37.2967 591.462 36.2673 593.145 35.5332C594.828 34.7812 596.744 34.4053 598.892 34.4053C601.076 34.4053 603.01 34.7812 604.693 35.5332C606.394 36.2673 607.826 37.2967 608.99 38.6216C610.153 39.9465 611.04 41.513 611.648 43.3213C612.257 45.1117 612.562 47.0721 612.562 49.2026V49.7666C612.562 51.8792 612.257 53.8397 611.648 55.6479C611.04 57.4383 610.153 59.0049 608.99 60.3477C607.826 61.6725 606.403 62.702 604.72 63.436C603.037 64.1701 601.112 64.5371 598.946 64.5371C596.797 64.5371 594.873 64.1701 593.172 63.436C591.471 62.702 590.039 61.6725 588.875 60.3477C587.711 59.0049 586.825 57.4383 586.216 55.6479C585.608 53.8397 585.303 51.8792 585.303 49.7666ZM592.393 49.2026V49.7666C592.393 51.0378 592.518 52.2284 592.769 53.3384C593.02 54.4484 593.405 55.4242 593.924 56.2656C594.443 57.1071 595.114 57.7695 595.938 58.2529C596.779 58.7184 597.782 58.9512 598.946 58.9512C600.092 58.9512 601.076 58.7184 601.9 58.2529C602.723 57.7695 603.395 57.1071 603.914 56.2656C604.451 55.4242 604.845 54.4484 605.096 53.3384C605.346 52.2284 605.472 51.0378 605.472 49.7666V49.2026C605.472 47.9494 605.346 46.7767 605.096 45.6846C604.845 44.5745 604.451 43.5988 603.914 42.7573C603.395 41.8979 602.715 41.2266 601.873 40.7432C601.049 40.2419 600.056 39.9912 598.892 39.9912C597.746 39.9912 596.762 40.2419 595.938 40.7432C595.114 41.2266 594.443 41.8979 593.924 42.7573C593.405 43.5988 593.02 44.5745 592.769 45.6846C592.518 46.7767 592.393 47.9494 592.393 49.2026ZM624.808 40.5283V75.1719H617.691V34.9424H624.271L624.808 40.5283ZM643.472 49.1758V49.7397C643.472 51.8524 643.222 53.8128 642.72 55.6211C642.237 57.4115 641.521 58.978 640.572 60.3208C639.623 61.6457 638.441 62.6841 637.027 63.436C635.63 64.1701 634.019 64.5371 632.193 64.5371C630.403 64.5371 628.845 64.1969 627.52 63.5166C626.195 62.8184 625.076 61.8337 624.163 60.5625C623.25 59.2913 622.516 57.8143 621.961 56.1313C621.424 54.4305 621.021 52.5775 620.752 50.5723V48.7729C621.021 46.6424 621.424 44.7088 621.961 42.9722C622.516 41.2176 623.25 39.7048 624.163 38.4336C625.076 37.1445 626.186 36.1509 627.493 35.4526C628.818 34.7544 630.367 34.4053 632.139 34.4053C633.983 34.4053 635.604 34.7544 637 35.4526C638.414 36.1509 639.605 37.1535 640.572 38.4604C641.539 39.7674 642.264 41.325 642.747 43.1333C643.23 44.9416 643.472 46.9557 643.472 49.1758ZM636.355 49.7397V49.1758C636.355 47.8867 636.239 46.6961 636.006 45.604C635.774 44.494 635.416 43.5272 634.932 42.7036C634.449 41.8621 633.822 41.2087 633.052 40.7432C632.282 40.2777 631.351 40.0449 630.259 40.0449C629.167 40.0449 628.227 40.224 627.439 40.582C626.652 40.9401 626.007 41.4504 625.506 42.1128C625.005 42.7752 624.611 43.563 624.324 44.4761C624.056 45.3713 623.877 46.3649 623.787 47.457V51.915C623.948 53.2399 624.262 54.4305 624.727 55.4868C625.193 56.5431 625.873 57.3846 626.768 58.0112C627.681 58.6379 628.863 58.9512 630.313 58.9512C631.405 58.9512 632.336 58.7095 633.106 58.2261C633.876 57.7427 634.502 57.0802 634.986 56.2388C635.469 55.3794 635.818 54.3947 636.033 53.2847C636.248 52.1746 636.355 50.993 636.355 49.7397ZM678.357 57.8232V44.4224C678.357 43.4377 678.187 42.5872 677.847 41.8711C677.507 41.1549 676.988 40.5999 676.29 40.2061C675.591 39.8122 674.705 39.6152 673.631 39.6152C672.682 39.6152 671.849 39.7764 671.133 40.0986C670.435 40.4209 669.898 40.8774 669.522 41.4683C669.146 42.0412 668.958 42.7036 668.958 43.4556H661.841C661.841 42.256 662.128 41.1191 662.701 40.0449C663.274 38.9528 664.088 37.986 665.145 37.1445C666.219 36.2852 667.499 35.6138 668.985 35.1304C670.489 34.647 672.172 34.4053 674.034 34.4053C676.236 34.4053 678.196 34.7812 679.915 35.5332C681.652 36.2673 683.012 37.3773 683.997 38.8633C685 40.3493 685.501 42.2202 685.501 44.4761V57.1519C685.501 58.6021 685.59 59.8464 685.77 60.8848C685.966 61.9053 686.253 62.7915 686.629 63.5435V64H679.405C679.065 63.266 678.805 62.335 678.626 61.207C678.447 60.0612 678.357 58.9333 678.357 57.8232ZM679.351 46.3022L679.405 50.5186H674.92C673.81 50.5186 672.834 50.6349 671.993 50.8677C671.151 51.0825 670.462 51.4048 669.925 51.8345C669.388 52.2463 668.985 52.7476 668.716 53.3384C668.448 53.9113 668.313 54.5648 668.313 55.2988C668.313 56.015 668.475 56.6595 668.797 57.2324C669.137 57.8053 669.62 58.2619 670.247 58.6021C670.892 58.9243 671.644 59.0854 672.503 59.0854C673.756 59.0854 674.848 58.8348 675.779 58.3335C676.71 57.8143 677.435 57.1877 677.955 56.4536C678.474 55.7196 678.751 55.0213 678.787 54.3589L680.828 57.4204C680.577 58.1545 680.201 58.9333 679.7 59.7568C679.199 60.5804 678.554 61.3503 677.767 62.0664C676.979 62.7826 676.03 63.3734 674.92 63.8389C673.81 64.3044 672.521 64.5371 671.053 64.5371C669.173 64.5371 667.49 64.1611 666.004 63.4092C664.518 62.6572 663.345 61.6278 662.486 60.3208C661.626 59.0138 661.197 57.5278 661.197 55.8628C661.197 54.3231 661.483 52.9624 662.056 51.7808C662.629 50.5991 663.479 49.6055 664.607 48.7998C665.735 47.9762 667.132 47.3586 668.797 46.9468C670.48 46.5171 672.404 46.3022 674.571 46.3022H679.351ZM698.848 41.146V64H691.758V34.9424H698.418L698.848 41.146ZM697.72 48.4238H695.625C695.643 46.3112 695.93 44.3955 696.485 42.6768C697.04 40.958 697.819 39.481 698.821 38.2456C699.842 37.0103 701.05 36.0614 702.447 35.3989C703.843 34.7365 705.401 34.4053 707.12 34.4053C708.516 34.4053 709.778 34.6022 710.906 34.9961C712.034 35.39 713.001 36.0166 713.807 36.876C714.63 37.7354 715.257 38.8633 715.687 40.2598C716.134 41.6383 716.358 43.3392 716.358 45.3623V64H709.214V45.3086C709.214 43.9837 709.017 42.9364 708.624 42.1665C708.248 41.3966 707.693 40.8506 706.958 40.5283C706.242 40.2061 705.356 40.0449 704.3 40.0449C703.208 40.0449 702.25 40.2687 701.426 40.7163C700.621 41.146 699.94 41.7458 699.385 42.5156C698.848 43.2855 698.436 44.1717 698.15 45.1743C697.863 46.1769 697.72 47.2601 697.72 48.4238ZM740.044 57.8232V22.75H747.188V64H740.743L740.044 57.8232ZM721.38 49.8203V49.2563C721.38 47.0363 721.631 45.0221 722.132 43.2139C722.651 41.3877 723.403 39.8211 724.388 38.5142C725.372 37.2072 726.563 36.1956 727.959 35.4795C729.374 34.7633 730.976 34.4053 732.767 34.4053C734.503 34.4053 736.016 34.7544 737.305 35.4526C738.612 36.1509 739.722 37.1445 740.635 38.4336C741.566 39.7227 742.309 41.2534 742.864 43.0259C743.419 44.7804 743.822 46.714 744.073 48.8267V50.3574C743.822 52.4163 743.419 54.3052 742.864 56.0239C742.309 57.7427 741.566 59.2466 740.635 60.5356C739.722 61.8068 738.612 62.7915 737.305 63.4897C735.998 64.188 734.467 64.5371 732.713 64.5371C730.94 64.5371 729.347 64.1701 727.933 63.436C726.536 62.702 725.346 61.6725 724.361 60.3477C723.394 59.0228 722.651 57.4652 722.132 55.6748C721.631 53.8844 721.38 51.9329 721.38 49.8203ZM728.497 49.2563V49.8203C728.497 51.0736 728.604 52.2463 728.819 53.3384C729.034 54.4305 729.383 55.3973 729.866 56.2388C730.35 57.0623 730.967 57.7069 731.719 58.1724C732.489 58.6379 733.42 58.8706 734.512 58.8706C735.909 58.8706 737.055 58.5662 737.95 57.9575C738.863 57.3309 739.57 56.4805 740.071 55.4062C740.573 54.3141 740.895 53.0877 741.038 51.7271V47.5107C740.966 46.4365 740.778 45.4429 740.474 44.5298C740.188 43.6167 739.776 42.8289 739.239 42.1665C738.72 41.5041 738.075 40.9849 737.305 40.6089C736.535 40.2329 735.622 40.0449 734.566 40.0449C733.474 40.0449 732.543 40.2866 731.773 40.77C731.003 41.2355 730.376 41.889 729.893 42.7305C729.41 43.5719 729.052 44.5477 728.819 45.6577C728.604 46.7677 728.497 47.9673 728.497 49.2563Z" fill="#1C4670"/>
<path d="M147.237 122.199V128H126.451V122.199H147.237ZM128.707 88.8984V128H121.321V88.8984H128.707ZM144.524 105.039V110.705H126.451V105.039H144.524ZM147.156 88.8984V94.7261H126.451V88.8984H147.156ZM167.808 120.051C167.808 119.442 167.647 118.896 167.325 118.413C167.002 117.929 166.394 117.491 165.499 117.097C164.621 116.685 163.332 116.3 161.631 115.942C160.127 115.62 158.74 115.217 157.469 114.733C156.198 114.25 155.105 113.668 154.192 112.988C153.279 112.29 152.563 111.475 152.044 110.544C151.543 109.595 151.292 108.503 151.292 107.268C151.292 106.068 151.552 104.94 152.071 103.884C152.59 102.81 153.342 101.87 154.327 101.064C155.311 100.24 156.511 99.5959 157.925 99.1304C159.34 98.647 160.933 98.4053 162.706 98.4053C165.176 98.4053 167.298 98.8081 169.07 99.6138C170.861 100.419 172.23 101.529 173.179 102.944C174.128 104.34 174.603 105.916 174.603 107.67H167.513C167.513 106.901 167.334 106.202 166.976 105.576C166.635 104.949 166.107 104.448 165.391 104.072C164.675 103.678 163.771 103.481 162.679 103.481C161.694 103.481 160.861 103.642 160.181 103.964C159.519 104.287 159.017 104.707 158.677 105.227C158.337 105.746 158.167 106.319 158.167 106.945C158.167 107.411 158.257 107.832 158.436 108.208C158.632 108.566 158.946 108.897 159.375 109.201C159.805 109.506 160.387 109.783 161.121 110.034C161.873 110.284 162.795 110.526 163.887 110.759C166.054 111.188 167.942 111.761 169.554 112.478C171.183 113.176 172.454 114.107 173.367 115.271C174.28 116.434 174.737 117.92 174.737 119.729C174.737 121.018 174.459 122.199 173.904 123.273C173.349 124.33 172.544 125.252 171.487 126.04C170.431 126.827 169.169 127.445 167.701 127.893C166.233 128.322 164.576 128.537 162.732 128.537C160.065 128.537 157.809 128.063 155.965 127.114C154.121 126.147 152.724 124.93 151.775 123.461C150.826 121.975 150.352 120.436 150.352 118.842H157.146C157.2 119.97 157.505 120.874 158.06 121.555C158.615 122.235 159.313 122.727 160.154 123.032C161.014 123.318 161.918 123.461 162.867 123.461C163.941 123.461 164.845 123.318 165.579 123.032C166.313 122.727 166.868 122.325 167.244 121.823C167.62 121.304 167.808 120.713 167.808 120.051ZM193.885 98.9424V104.045H177.234V98.9424H193.885ZM181.692 91.7988H188.809V119.621C188.809 120.48 188.925 121.143 189.158 121.608C189.391 122.074 189.74 122.387 190.206 122.548C190.671 122.709 191.226 122.79 191.871 122.79C192.336 122.79 192.766 122.763 193.16 122.709C193.554 122.656 193.885 122.602 194.153 122.548L194.18 127.866C193.589 128.063 192.918 128.224 192.166 128.349C191.432 128.474 190.599 128.537 189.668 128.537C188.075 128.537 186.679 128.269 185.479 127.731C184.279 127.176 183.348 126.29 182.686 125.073C182.024 123.837 181.692 122.208 181.692 120.185V91.7988ZM214.617 121.823V108.422C214.617 107.438 214.447 106.587 214.107 105.871C213.767 105.155 213.248 104.6 212.549 104.206C211.851 103.812 210.965 103.615 209.891 103.615C208.942 103.615 208.109 103.776 207.393 104.099C206.695 104.421 206.158 104.877 205.782 105.468C205.406 106.041 205.218 106.704 205.218 107.456H198.101C198.101 106.256 198.388 105.119 198.96 104.045C199.533 102.953 200.348 101.986 201.404 101.145C202.479 100.285 203.759 99.6138 205.245 99.1304C206.749 98.647 208.431 98.4053 210.293 98.4053C212.496 98.4053 214.456 98.7812 216.175 99.5332C217.911 100.267 219.272 101.377 220.257 102.863C221.259 104.349 221.761 106.22 221.761 108.476V121.152C221.761 122.602 221.85 123.846 222.029 124.885C222.226 125.905 222.513 126.792 222.889 127.543V128H215.665C215.324 127.266 215.065 126.335 214.886 125.207C214.707 124.061 214.617 122.933 214.617 121.823ZM215.611 110.302L215.665 114.519H211.18C210.07 114.519 209.094 114.635 208.252 114.868C207.411 115.083 206.722 115.405 206.185 115.834C205.647 116.246 205.245 116.748 204.976 117.338C204.708 117.911 204.573 118.565 204.573 119.299C204.573 120.015 204.734 120.66 205.057 121.232C205.397 121.805 205.88 122.262 206.507 122.602C207.151 122.924 207.903 123.085 208.763 123.085C210.016 123.085 211.108 122.835 212.039 122.333C212.97 121.814 213.695 121.188 214.214 120.454C214.734 119.72 215.011 119.021 215.047 118.359L217.088 121.42C216.837 122.154 216.461 122.933 215.96 123.757C215.459 124.58 214.814 125.35 214.026 126.066C213.239 126.783 212.29 127.373 211.18 127.839C210.07 128.304 208.781 128.537 207.312 128.537C205.433 128.537 203.75 128.161 202.264 127.409C200.778 126.657 199.605 125.628 198.746 124.321C197.886 123.014 197.457 121.528 197.457 119.863C197.457 118.323 197.743 116.962 198.316 115.781C198.889 114.599 199.739 113.605 200.867 112.8C201.995 111.976 203.392 111.359 205.057 110.947C206.74 110.517 208.664 110.302 210.831 110.302H215.611ZM228.125 86.75H235.242V121.582L234.544 128H228.125V86.75ZM253.934 113.176V113.74C253.934 115.906 253.692 117.893 253.208 119.702C252.743 121.51 252.036 123.076 251.087 124.401C250.138 125.708 248.956 126.729 247.542 127.463C246.146 128.179 244.507 128.537 242.627 128.537C240.837 128.537 239.279 128.188 237.955 127.49C236.648 126.792 235.547 125.807 234.651 124.536C233.756 123.247 233.04 121.734 232.503 119.997C231.966 118.243 231.563 116.327 231.294 114.25V112.719C231.563 110.625 231.966 108.709 232.503 106.972C233.04 105.236 233.756 103.723 234.651 102.434C235.547 101.145 236.648 100.151 237.955 99.4526C239.262 98.7544 240.801 98.4053 242.574 98.4053C244.472 98.4053 246.128 98.7723 247.542 99.5063C248.974 100.222 250.156 101.243 251.087 102.568C252.036 103.875 252.743 105.432 253.208 107.241C253.692 109.031 253.934 111.009 253.934 113.176ZM246.817 113.74V113.176C246.817 111.94 246.718 110.777 246.521 109.685C246.325 108.575 246.002 107.599 245.555 106.757C245.107 105.916 244.498 105.253 243.729 104.77C242.959 104.287 241.992 104.045 240.828 104.045C239.718 104.045 238.769 104.233 237.981 104.609C237.212 104.985 236.567 105.504 236.048 106.167C235.547 106.829 235.153 107.608 234.866 108.503C234.598 109.398 234.419 110.365 234.329 111.403V115.593C234.454 116.971 234.75 118.216 235.215 119.326C235.681 120.418 236.37 121.286 237.283 121.931C238.214 122.575 239.414 122.897 240.882 122.897C242.028 122.897 242.986 122.674 243.755 122.226C244.525 121.761 245.134 121.116 245.582 120.292C246.029 119.451 246.342 118.475 246.521 117.365C246.718 116.255 246.817 115.047 246.817 113.74ZM266.609 86.75V128H259.493V86.75H266.609ZM280.896 98.9424V128H273.78V98.9424H280.896ZM273.296 91.3423C273.296 90.286 273.654 89.4087 274.371 88.7104C275.105 88.0122 276.089 87.6631 277.325 87.6631C278.56 87.6631 279.536 88.0122 280.252 88.7104C280.986 89.4087 281.353 90.286 281.353 91.3423C281.353 92.3807 280.986 93.249 280.252 93.9473C279.536 94.6455 278.56 94.9946 277.325 94.9946C276.089 94.9946 275.105 94.6455 274.371 93.9473C273.654 93.249 273.296 92.3807 273.296 91.3423ZM303.643 120.051C303.643 119.442 303.482 118.896 303.16 118.413C302.837 117.929 302.229 117.491 301.333 117.097C300.456 116.685 299.167 116.3 297.466 115.942C295.962 115.62 294.575 115.217 293.304 114.733C292.033 114.25 290.94 113.668 290.027 112.988C289.114 112.29 288.398 111.475 287.879 110.544C287.378 109.595 287.127 108.503 287.127 107.268C287.127 106.068 287.387 104.94 287.906 103.884C288.425 102.81 289.177 101.87 290.162 101.064C291.146 100.24 292.346 99.5959 293.76 99.1304C295.175 98.647 296.768 98.4053 298.541 98.4053C301.011 98.4053 303.133 98.8081 304.905 99.6138C306.696 100.419 308.065 101.529 309.014 102.944C309.963 104.34 310.438 105.916 310.438 107.67H303.348C303.348 106.901 303.169 106.202 302.811 105.576C302.47 104.949 301.942 104.448 301.226 104.072C300.51 103.678 299.606 103.481 298.514 103.481C297.529 103.481 296.696 103.642 296.016 103.964C295.354 104.287 294.852 104.707 294.512 105.227C294.172 105.746 294.002 106.319 294.002 106.945C294.002 107.411 294.091 107.832 294.271 108.208C294.467 108.566 294.781 108.897 295.21 109.201C295.64 109.506 296.222 109.783 296.956 110.034C297.708 110.284 298.63 110.526 299.722 110.759C301.889 111.188 303.777 111.761 305.389 112.478C307.018 113.176 308.289 114.107 309.202 115.271C310.115 116.434 310.572 117.92 310.572 119.729C310.572 121.018 310.294 122.199 309.739 123.273C309.184 124.33 308.379 125.252 307.322 126.04C306.266 126.827 305.004 127.445 303.536 127.893C302.068 128.322 300.411 128.537 298.567 128.537C295.9 128.537 293.644 128.063 291.8 127.114C289.956 126.147 288.559 124.93 287.61 123.461C286.661 121.975 286.187 120.436 286.187 118.842H292.981C293.035 119.97 293.34 120.874 293.895 121.555C294.45 122.235 295.148 122.727 295.989 123.032C296.849 123.318 297.753 123.461 298.702 123.461C299.776 123.461 300.68 123.318 301.414 123.032C302.148 122.727 302.703 122.325 303.079 121.823C303.455 121.304 303.643 120.713 303.643 120.051ZM322.925 86.75V128H315.809V86.75H322.925ZM321.797 112.424H319.703C319.703 110.401 319.971 108.539 320.508 106.838C321.045 105.137 321.806 103.66 322.791 102.407C323.776 101.136 324.948 100.151 326.309 99.4526C327.688 98.7544 329.209 98.4053 330.875 98.4053C332.307 98.4053 333.605 98.6112 334.769 99.0229C335.95 99.4168 336.962 100.052 337.803 100.93C338.645 101.807 339.289 102.953 339.737 104.367C340.202 105.764 340.435 107.465 340.435 109.47V128H333.292V109.416C333.292 108.073 333.095 107.017 332.701 106.247C332.307 105.459 331.743 104.895 331.009 104.555C330.293 104.215 329.406 104.045 328.35 104.045C327.204 104.045 326.22 104.269 325.396 104.716C324.572 105.146 323.892 105.746 323.355 106.516C322.836 107.285 322.442 108.172 322.173 109.174C321.923 110.177 321.797 111.26 321.797 112.424ZM353.755 104.904V128H346.666V98.9424H353.353L353.755 104.904ZM352.708 112.424H350.533C350.533 110.401 350.774 108.539 351.258 106.838C351.759 105.137 352.493 103.66 353.46 102.407C354.427 101.136 355.617 100.151 357.032 99.4526C358.464 98.7544 360.12 98.4053 362 98.4053C363.307 98.4053 364.507 98.6022 365.599 98.9961C366.691 99.3721 367.631 99.9718 368.418 100.795C369.224 101.601 369.842 102.657 370.271 103.964C370.701 105.253 370.916 106.802 370.916 108.61V128H363.826V109.335C363.826 107.975 363.629 106.91 363.235 106.14C362.859 105.37 362.313 104.833 361.597 104.528C360.881 104.206 360.022 104.045 359.019 104.045C357.909 104.045 356.951 104.269 356.146 104.716C355.358 105.146 354.704 105.746 354.185 106.516C353.684 107.285 353.308 108.172 353.057 109.174C352.824 110.177 352.708 111.26 352.708 112.424ZM370.379 111.108L367.452 111.645C367.47 109.819 367.72 108.109 368.204 106.516C368.687 104.904 369.394 103.499 370.325 102.299C371.274 101.082 372.447 100.133 373.843 99.4526C375.258 98.7544 376.887 98.4053 378.731 98.4053C380.163 98.4053 381.452 98.6112 382.598 99.0229C383.762 99.4168 384.756 100.052 385.579 100.93C386.403 101.789 387.029 102.908 387.459 104.287C387.907 105.665 388.13 107.348 388.13 109.335V128H380.987V109.309C380.987 107.894 380.79 106.811 380.396 106.059C380.02 105.307 379.474 104.788 378.758 104.501C378.042 104.197 377.2 104.045 376.233 104.045C375.249 104.045 374.389 104.233 373.655 104.609C372.939 104.967 372.33 105.468 371.829 106.113C371.346 106.757 370.979 107.509 370.728 108.369C370.495 109.21 370.379 110.123 370.379 111.108ZM407.547 128.537C405.345 128.537 403.366 128.179 401.612 127.463C399.857 126.747 398.362 125.753 397.127 124.482C395.91 123.193 394.97 121.698 394.307 119.997C393.663 118.278 393.34 116.434 393.34 114.465V113.391C393.34 111.153 393.663 109.121 394.307 107.294C394.952 105.45 395.865 103.866 397.046 102.541C398.228 101.216 399.642 100.196 401.29 99.4795C402.937 98.7633 404.754 98.4053 406.741 98.4053C408.8 98.4053 410.617 98.7544 412.193 99.4526C413.768 100.133 415.084 101.1 416.141 102.353C417.197 103.606 417.994 105.11 418.531 106.865C419.068 108.601 419.336 110.526 419.336 112.639V115.62H396.563V110.732H412.354V110.195C412.318 109.067 412.103 108.037 411.709 107.106C411.316 106.158 410.707 105.406 409.883 104.851C409.06 104.278 407.994 103.991 406.688 103.991C405.631 103.991 404.709 104.224 403.921 104.689C403.152 105.137 402.507 105.782 401.988 106.623C401.486 107.447 401.111 108.431 400.86 109.577C400.609 110.723 400.484 111.994 400.484 113.391V114.465C400.484 115.682 400.645 116.81 400.967 117.849C401.307 118.887 401.8 119.791 402.444 120.561C403.107 121.313 403.895 121.904 404.808 122.333C405.739 122.745 406.795 122.951 407.977 122.951C409.463 122.951 410.805 122.665 412.005 122.092C413.222 121.501 414.279 120.633 415.174 119.487L418.746 123.193C418.137 124.088 417.313 124.947 416.275 125.771C415.254 126.595 414.019 127.266 412.569 127.785C411.119 128.286 409.445 128.537 407.547 128.537ZM431.045 105.146V128H423.956V98.9424H430.616L431.045 105.146ZM429.917 112.424H427.823C427.841 110.311 428.127 108.396 428.682 106.677C429.237 104.958 430.016 103.481 431.019 102.246C432.039 101.01 433.248 100.061 434.644 99.3989C436.041 98.7365 437.598 98.4053 439.317 98.4053C440.713 98.4053 441.976 98.6022 443.104 98.9961C444.231 99.39 445.198 100.017 446.004 100.876C446.827 101.735 447.454 102.863 447.884 104.26C448.331 105.638 448.555 107.339 448.555 109.362V128H441.412V109.309C441.412 107.984 441.215 106.936 440.821 106.167C440.445 105.397 439.89 104.851 439.156 104.528C438.44 104.206 437.553 104.045 436.497 104.045C435.405 104.045 434.447 104.269 433.624 104.716C432.818 105.146 432.138 105.746 431.583 106.516C431.045 107.285 430.634 108.172 430.347 109.174C430.061 110.177 429.917 111.26 429.917 112.424ZM468.562 98.9424V104.045H451.912V98.9424H468.562ZM456.37 91.7988H463.487V119.621C463.487 120.48 463.603 121.143 463.836 121.608C464.069 122.074 464.418 122.387 464.883 122.548C465.349 122.709 465.904 122.79 466.548 122.79C467.014 122.79 467.444 122.763 467.837 122.709C468.231 122.656 468.562 122.602 468.831 122.548L468.858 127.866C468.267 128.063 467.596 128.224 466.844 128.349C466.11 128.474 465.277 128.537 464.346 128.537C462.753 128.537 461.356 128.269 460.157 127.731C458.957 127.176 458.026 126.29 457.364 125.073C456.701 123.837 456.37 122.208 456.37 120.185V91.7988ZM503.072 94.8335L491.927 128H484.112L498.721 88.8984H503.716L503.072 94.8335ZM512.391 128L501.192 94.8335L500.521 88.8984H505.542L520.232 128H512.391ZM511.88 113.471V119.299H490.906V113.471H511.88ZM535.647 122.951C536.65 122.951 537.545 122.754 538.333 122.36C539.121 121.966 539.747 121.411 540.213 120.695C540.696 119.979 540.956 119.147 540.992 118.198H547.679C547.643 120.167 547.088 121.931 546.014 123.488C544.939 125.046 543.507 126.281 541.717 127.194C539.944 128.09 537.957 128.537 535.755 128.537C533.517 128.537 531.565 128.161 529.9 127.409C528.235 126.657 526.848 125.61 525.738 124.267C524.646 122.924 523.822 121.367 523.267 119.594C522.73 117.822 522.461 115.924 522.461 113.901V113.042C522.461 111.018 522.73 109.121 523.267 107.348C523.822 105.576 524.646 104.018 525.738 102.675C526.848 101.333 528.235 100.285 529.9 99.5332C531.565 98.7812 533.508 98.4053 535.728 98.4053C538.073 98.4053 540.132 98.8618 541.905 99.7749C543.695 100.688 545.092 101.977 546.094 103.642C547.115 105.307 547.643 107.268 547.679 109.523H540.992C540.956 108.485 540.723 107.554 540.293 106.73C539.864 105.907 539.255 105.244 538.467 104.743C537.68 104.242 536.722 103.991 535.594 103.991C534.394 103.991 533.392 104.242 532.586 104.743C531.798 105.244 531.181 105.934 530.733 106.811C530.303 107.67 529.999 108.637 529.82 109.711C529.659 110.768 529.578 111.878 529.578 113.042V113.901C529.578 115.083 529.659 116.21 529.82 117.285C529.999 118.359 530.303 119.326 530.733 120.185C531.181 121.027 531.798 121.698 532.586 122.199C533.392 122.701 534.412 122.951 535.647 122.951ZM566.155 98.9424V104.045H549.505V98.9424H566.155ZM553.963 91.7988H561.08V119.621C561.08 120.48 561.196 121.143 561.429 121.608C561.661 122.074 562.011 122.387 562.476 122.548C562.942 122.709 563.497 122.79 564.141 122.79C564.607 122.79 565.036 122.763 565.43 122.709C565.824 122.656 566.155 122.602 566.424 122.548L566.451 127.866C565.86 128.063 565.188 128.224 564.437 128.349C563.702 128.474 562.87 128.537 561.939 128.537C560.346 128.537 558.949 128.269 557.75 127.731C556.55 127.176 555.619 126.29 554.957 125.073C554.294 123.837 553.963 122.208 553.963 120.185V91.7988ZM585.115 88.8984H599.322C602.294 88.8984 604.845 89.346 606.976 90.2412C609.106 91.1364 610.744 92.4613 611.89 94.2158C613.036 95.9704 613.609 98.1278 613.609 100.688C613.609 102.711 613.251 104.466 612.535 105.952C611.819 107.438 610.807 108.682 609.5 109.685C608.211 110.687 606.689 111.475 604.935 112.048L602.625 113.229H590.083L590.03 107.402H599.402C600.924 107.402 602.186 107.133 603.189 106.596C604.192 106.059 604.944 105.316 605.445 104.367C605.964 103.418 606.224 102.335 606.224 101.118C606.224 99.8107 605.973 98.6828 605.472 97.7339C604.97 96.7671 604.209 96.0241 603.189 95.5049C602.168 94.9857 600.879 94.7261 599.322 94.7261H592.5V128H585.115V88.8984ZM607.19 128L598.14 110.49L605.955 110.463L615.113 127.624V128H607.19ZM632.596 128.537C630.394 128.537 628.415 128.179 626.661 127.463C624.906 126.747 623.411 125.753 622.176 124.482C620.958 123.193 620.018 121.698 619.356 119.997C618.711 118.278 618.389 116.434 618.389 114.465V113.391C618.389 111.153 618.711 109.121 619.356 107.294C620 105.45 620.914 103.866 622.095 102.541C623.277 101.216 624.691 100.196 626.338 99.4795C627.986 98.7633 629.803 98.4053 631.79 98.4053C633.849 98.4053 635.666 98.7544 637.242 99.4526C638.817 100.133 640.133 101.1 641.189 102.353C642.246 103.606 643.042 105.11 643.58 106.865C644.117 108.601 644.385 110.526 644.385 112.639V115.62H621.612V110.732H637.403V110.195C637.367 109.067 637.152 108.037 636.758 107.106C636.364 106.158 635.756 105.406 634.932 104.851C634.109 104.278 633.043 103.991 631.736 103.991C630.68 103.991 629.758 104.224 628.97 104.689C628.2 105.137 627.556 105.782 627.037 106.623C626.535 107.447 626.159 108.431 625.909 109.577C625.658 110.723 625.533 111.994 625.533 113.391V114.465C625.533 115.682 625.694 116.81 626.016 117.849C626.356 118.887 626.849 119.791 627.493 120.561C628.156 121.313 628.943 121.904 629.856 122.333C630.787 122.745 631.844 122.951 633.025 122.951C634.511 122.951 635.854 122.665 637.054 122.092C638.271 121.501 639.327 120.633 640.223 119.487L643.794 123.193C643.186 124.088 642.362 124.947 641.324 125.771C640.303 126.595 639.068 127.266 637.618 127.785C636.167 128.286 634.493 128.537 632.596 128.537ZM667.615 98.9424H674.061V127.114C674.061 129.746 673.488 131.975 672.342 133.801C671.214 135.645 669.629 137.041 667.588 137.99C665.547 138.957 663.175 139.44 660.472 139.44C659.308 139.44 658.046 139.279 656.685 138.957C655.342 138.635 654.044 138.125 652.791 137.426C651.556 136.746 650.526 135.86 649.703 134.768L652.898 130.578C653.865 131.706 654.957 132.556 656.175 133.129C657.392 133.72 658.708 134.016 660.123 134.016C661.555 134.016 662.772 133.747 663.775 133.21C664.795 132.691 665.574 131.921 666.111 130.9C666.666 129.898 666.944 128.662 666.944 127.194V105.576L667.615 98.9424ZM647.984 113.82V113.256C647.984 111.036 648.252 109.022 648.79 107.214C649.327 105.388 650.097 103.821 651.099 102.514C652.12 101.207 653.346 100.196 654.778 99.4795C656.229 98.7633 657.858 98.4053 659.666 98.4053C661.582 98.4053 663.193 98.7544 664.5 99.4526C665.825 100.151 666.917 101.145 667.776 102.434C668.654 103.723 669.334 105.253 669.817 107.026C670.319 108.78 670.704 110.714 670.972 112.827V114.357C670.722 116.416 670.319 118.305 669.764 120.024C669.227 121.743 668.51 123.247 667.615 124.536C666.72 125.807 665.61 126.792 664.285 127.49C662.96 128.188 661.403 128.537 659.612 128.537C657.822 128.537 656.211 128.17 654.778 127.436C653.346 126.702 652.12 125.673 651.099 124.348C650.097 123.023 649.327 121.465 648.79 119.675C648.252 117.884 647.984 115.933 647.984 113.82ZM655.074 113.256V113.82C655.074 115.074 655.199 116.246 655.45 117.338C655.7 118.431 656.085 119.397 656.604 120.239C657.124 121.062 657.777 121.707 658.565 122.172C659.353 122.638 660.293 122.871 661.385 122.871C662.853 122.871 664.052 122.566 664.983 121.958C665.932 121.331 666.648 120.48 667.132 119.406C667.633 118.314 667.955 117.088 668.099 115.727V111.511C668.009 110.437 667.812 109.443 667.508 108.53C667.221 107.617 666.819 106.829 666.299 106.167C665.78 105.504 665.118 104.985 664.312 104.609C663.506 104.233 662.549 104.045 661.438 104.045C660.364 104.045 659.424 104.287 658.619 104.77C657.813 105.236 657.151 105.889 656.631 106.73C656.112 107.572 655.718 108.548 655.45 109.658C655.199 110.768 655.074 111.967 655.074 113.256ZM687.972 98.9424V128H680.855V98.9424H687.972ZM680.372 91.3423C680.372 90.286 680.73 89.4087 681.446 88.7104C682.18 88.0122 683.165 87.6631 684.4 87.6631C685.635 87.6631 686.611 88.0122 687.327 88.7104C688.061 89.4087 688.428 90.286 688.428 91.3423C688.428 92.3807 688.061 93.249 687.327 93.9473C686.611 94.6455 685.635 94.9946 684.4 94.9946C683.165 94.9946 682.18 94.6455 681.446 93.9473C680.73 93.249 680.372 92.3807 680.372 91.3423ZM710.718 120.051C710.718 119.442 710.557 118.896 710.235 118.413C709.913 117.929 709.304 117.491 708.409 117.097C707.531 116.685 706.242 116.3 704.542 115.942C703.038 115.62 701.65 115.217 700.379 114.733C699.108 114.25 698.016 113.668 697.103 112.988C696.189 112.29 695.473 111.475 694.954 110.544C694.453 109.595 694.202 108.503 694.202 107.268C694.202 106.068 694.462 104.94 694.981 103.884C695.5 102.81 696.252 101.87 697.237 101.064C698.222 100.24 699.421 99.5959 700.835 99.1304C702.25 98.647 703.843 98.4053 705.616 98.4053C708.086 98.4053 710.208 98.8081 711.98 99.6138C713.771 100.419 715.14 101.529 716.089 102.944C717.038 104.34 717.513 105.916 717.513 107.67H710.423C710.423 106.901 710.244 106.202 709.886 105.576C709.546 104.949 709.017 104.448 708.301 104.072C707.585 103.678 706.681 103.481 705.589 103.481C704.604 103.481 703.772 103.642 703.091 103.964C702.429 104.287 701.928 104.707 701.587 105.227C701.247 105.746 701.077 106.319 701.077 106.945C701.077 107.411 701.167 107.832 701.346 108.208C701.543 108.566 701.856 108.897 702.286 109.201C702.715 109.506 703.297 109.783 704.031 110.034C704.783 110.284 705.705 110.526 706.797 110.759C708.964 111.188 710.853 111.761 712.464 112.478C714.093 113.176 715.364 114.107 716.277 115.271C717.19 116.434 717.647 117.92 717.647 119.729C717.647 121.018 717.369 122.199 716.814 123.273C716.259 124.33 715.454 125.252 714.397 126.04C713.341 126.827 712.079 127.445 710.611 127.893C709.143 128.322 707.487 128.537 705.643 128.537C702.975 128.537 700.719 128.063 698.875 127.114C697.031 126.147 695.634 124.93 694.686 123.461C693.737 121.975 693.262 120.436 693.262 118.842H700.057C700.11 119.97 700.415 120.874 700.97 121.555C701.525 122.235 702.223 122.727 703.064 123.032C703.924 123.318 704.828 123.461 705.777 123.461C706.851 123.461 707.755 123.318 708.489 123.032C709.223 122.727 709.778 122.325 710.154 121.823C710.53 121.304 710.718 120.713 710.718 120.051ZM736.795 98.9424V104.045H720.145V98.9424H736.795ZM724.603 91.7988H731.719V119.621C731.719 120.48 731.836 121.143 732.068 121.608C732.301 122.074 732.65 122.387 733.116 122.548C733.581 122.709 734.136 122.79 734.781 122.79C735.246 122.79 735.676 122.763 736.07 122.709C736.464 122.656 736.795 122.602 737.063 122.548L737.09 127.866C736.5 128.063 735.828 128.224 735.076 128.349C734.342 128.474 733.51 128.537 732.579 128.537C730.985 128.537 729.589 128.269 728.389 127.731C727.19 127.176 726.259 126.29 725.596 125.073C724.934 123.837 724.603 122.208 724.603 120.185V91.7988ZM748.611 104.877V128H741.521V98.9424H748.235L748.611 104.877ZM757.447 98.7544L757.339 105.361C756.945 105.289 756.498 105.236 755.997 105.2C755.513 105.164 755.057 105.146 754.627 105.146C753.535 105.146 752.577 105.298 751.753 105.603C750.93 105.889 750.241 106.31 749.686 106.865C749.148 107.42 748.737 108.1 748.45 108.906C748.164 109.694 748.003 110.589 747.967 111.591L746.436 111.403C746.436 109.559 746.624 107.849 747 106.274C747.376 104.698 747.922 103.32 748.638 102.138C749.354 100.957 750.25 100.043 751.324 99.3989C752.416 98.7365 753.669 98.4053 755.083 98.4053C755.477 98.4053 755.898 98.4411 756.346 98.5127C756.811 98.5664 757.178 98.647 757.447 98.7544ZM776.434 121.823V108.422C776.434 107.438 776.264 106.587 775.923 105.871C775.583 105.155 775.064 104.6 774.366 104.206C773.667 103.812 772.781 103.615 771.707 103.615C770.758 103.615 769.926 103.776 769.209 104.099C768.511 104.421 767.974 104.877 767.598 105.468C767.222 106.041 767.034 106.704 767.034 107.456H759.917C759.917 106.256 760.204 105.119 760.777 104.045C761.35 102.953 762.164 101.986 763.221 101.145C764.295 100.285 765.575 99.6138 767.061 99.1304C768.565 98.647 770.248 98.4053 772.11 98.4053C774.312 98.4053 776.272 98.7812 777.991 99.5332C779.728 100.267 781.089 101.377 782.073 102.863C783.076 104.349 783.577 106.22 783.577 108.476V121.152C783.577 122.602 783.667 123.846 783.846 124.885C784.043 125.905 784.329 126.792 784.705 127.543V128H777.481C777.141 127.266 776.881 126.335 776.702 125.207C776.523 124.061 776.434 122.933 776.434 121.823ZM777.427 110.302L777.481 114.519H772.996C771.886 114.519 770.91 114.635 770.069 114.868C769.227 115.083 768.538 115.405 768.001 115.834C767.464 116.246 767.061 116.748 766.792 117.338C766.524 117.911 766.39 118.565 766.39 119.299C766.39 120.015 766.551 120.66 766.873 121.232C767.213 121.805 767.697 122.262 768.323 122.602C768.968 122.924 769.72 123.085 770.579 123.085C771.832 123.085 772.924 122.835 773.855 122.333C774.786 121.814 775.512 121.188 776.031 120.454C776.55 119.72 776.827 119.021 776.863 118.359L778.904 121.42C778.654 122.154 778.278 122.933 777.776 123.757C777.275 124.58 776.631 125.35 775.843 126.066C775.055 126.783 774.106 127.373 772.996 127.839C771.886 128.304 770.597 128.537 769.129 128.537C767.249 128.537 765.566 128.161 764.08 127.409C762.594 126.657 761.421 125.628 760.562 124.321C759.703 123.014 759.273 121.528 759.273 119.863C759.273 118.323 759.559 116.962 760.132 115.781C760.705 114.599 761.556 113.605 762.684 112.8C763.812 111.976 765.208 111.359 766.873 110.947C768.556 110.517 770.481 110.302 772.647 110.302H777.427ZM803.719 98.9424V104.045H787.068V98.9424H803.719ZM791.526 91.7988H798.643V119.621C798.643 120.48 798.759 121.143 798.992 121.608C799.225 122.074 799.574 122.387 800.04 122.548C800.505 122.709 801.06 122.79 801.705 122.79C802.17 122.79 802.6 122.763 802.994 122.709C803.388 122.656 803.719 122.602 803.987 122.548L804.014 127.866C803.423 128.063 802.752 128.224 802 128.349C801.266 128.474 800.433 128.537 799.502 128.537C797.909 128.537 796.513 128.269 795.313 127.731C794.113 127.176 793.182 126.29 792.52 125.073C791.858 123.837 791.526 122.208 791.526 120.185V91.7988ZM815.965 98.9424V128H808.848V98.9424H815.965ZM808.365 91.3423C808.365 90.286 808.723 89.4087 809.439 88.7104C810.173 88.0122 811.158 87.6631 812.393 87.6631C813.628 87.6631 814.604 88.0122 815.32 88.7104C816.054 89.4087 816.421 90.286 816.421 91.3423C816.421 92.3807 816.054 93.249 815.32 93.9473C814.604 94.6455 813.628 94.9946 812.393 94.9946C811.158 94.9946 810.173 94.6455 809.439 93.9473C808.723 93.249 808.365 92.3807 808.365 91.3423ZM821.47 113.767V113.203C821.47 111.072 821.775 109.112 822.383 107.321C822.992 105.513 823.878 103.946 825.042 102.622C826.206 101.297 827.629 100.267 829.312 99.5332C830.995 98.7812 832.911 98.4053 835.059 98.4053C837.243 98.4053 839.177 98.7812 840.86 99.5332C842.561 100.267 843.993 101.297 845.157 102.622C846.32 103.946 847.207 105.513 847.815 107.321C848.424 109.112 848.729 111.072 848.729 113.203V113.767C848.729 115.879 848.424 117.84 847.815 119.648C847.207 121.438 846.32 123.005 845.157 124.348C843.993 125.673 842.57 126.702 840.887 127.436C839.204 128.17 837.279 128.537 835.113 128.537C832.964 128.537 831.04 128.17 829.339 127.436C827.638 126.702 826.206 125.673 825.042 124.348C823.878 123.005 822.992 121.438 822.383 119.648C821.775 117.84 821.47 115.879 821.47 113.767ZM828.56 113.203V113.767C828.56 115.038 828.685 116.228 828.936 117.338C829.187 118.448 829.572 119.424 830.091 120.266C830.61 121.107 831.281 121.77 832.105 122.253C832.946 122.718 833.949 122.951 835.113 122.951C836.259 122.951 837.243 122.718 838.067 122.253C838.89 121.77 839.562 121.107 840.081 120.266C840.618 119.424 841.012 118.448 841.263 117.338C841.513 116.228 841.639 115.038 841.639 113.767V113.203C841.639 111.949 841.513 110.777 841.263 109.685C841.012 108.575 840.618 107.599 840.081 106.757C839.562 105.898 838.882 105.227 838.04 104.743C837.216 104.242 836.223 103.991 835.059 103.991C833.913 103.991 832.929 104.242 832.105 104.743C831.281 105.227 830.61 105.898 830.091 106.757C829.572 107.599 829.187 108.575 828.936 109.685C828.685 110.777 828.56 111.949 828.56 113.203ZM860.84 105.146V128H853.75V98.9424H860.411L860.84 105.146ZM859.712 112.424H857.618C857.636 110.311 857.922 108.396 858.477 106.677C859.032 104.958 859.811 103.481 860.813 102.246C861.834 101.01 863.042 100.061 864.439 99.3989C865.835 98.7365 867.393 98.4053 869.112 98.4053C870.508 98.4053 871.771 98.6022 872.898 98.9961C874.026 99.39 874.993 100.017 875.799 100.876C876.622 101.735 877.249 102.863 877.679 104.26C878.126 105.638 878.35 107.339 878.35 109.362V128H871.207V109.309C871.207 107.984 871.01 106.936 870.616 106.167C870.24 105.397 869.685 104.851 868.951 104.528C868.235 104.206 867.348 104.045 866.292 104.045C865.2 104.045 864.242 104.269 863.418 104.716C862.613 105.146 861.932 105.746 861.377 106.516C860.84 107.285 860.429 108.172 860.142 109.174C859.856 110.177 859.712 111.26 859.712 112.424Z" fill="#FFA229"/>
<path d="M337.595 864.959C198.86 883.03 56.9836 902.665 40.5527 906.054C-25.607 919.477 69.0939 927.557 208.33 931.531C395.987 936.896 578.057 939.85 643.147 936.723C918.914 923.43 962.25 884.334 966.854 868.543C975.779 837.918 931.679 840.676 865.978 837.462C674.94 828.057 471.835 847.409 337.595 864.959Z" fill="#FFE9C8"/>
<path d="M860 283H848V834H860V283Z" fill="#44435E"/>
<path d="M955 359H739L778.709 200H915.291L955 359Z" fill="url(#paint0_linear_526_185)"/>
<path style="mix-blend-mode:overlay" opacity="0.7" d="M906.309 359H941L898.801 200H863L906.309 359Z" fill="url(#paint1_linear_526_185)"/>
<path d="M791.559 833H915.441C917.18 833 918.849 833.681 920.079 834.894C921.309 836.107 922 837.752 922 839.468V842.852C922 843.687 921.664 844.488 921.065 845.078C920.466 845.668 919.654 846 918.808 846H788.192C787.346 846 786.534 845.668 785.935 845.078C785.336 844.488 785 843.687 785 842.852V839.468C785 837.752 785.691 836.107 786.921 834.894C788.151 833.681 789.82 833 791.559 833Z" fill="#44435E"/>
<path style="mix-blend-mode:multiply" d="M791.559 833H915.441C917.18 833 918.849 833.681 920.079 834.894C921.309 836.107 922 837.752 922 839.468V842.852C922 843.687 921.664 844.488 921.065 845.078C920.466 845.668 919.654 846 918.808 846H788.192C787.346 846 786.534 845.668 785.935 845.078C785.336 844.488 785 843.687 785 842.852V839.468C785 837.752 785.691 836.107 786.921 834.894C788.151 833.681 789.82 833 791.559 833Z" fill="url(#paint2_linear_526_185)"/>
<path d="M737 801.325C737 801.325 778.771 723.421 925 743.224C925 743.311 776.199 849.874 737 801.325Z" fill="url(#paint3_linear_526_185)"/>
<path style="mix-blend-mode:multiply" d="M737 801.325C737 801.325 778.771 723.421 925 743.224C925 743.311 776.199 849.874 737 801.325Z" fill="url(#paint4_linear_526_185)"/>
<path style="mix-blend-mode:multiply" d="M886 753C803.476 762.678 729.229 804.774 659 847" stroke="url(#paint5_linear_526_185)" stroke-miterlimit="10"/>
<path d="M670.743 812C670.743 812 737.272 753.499 684.903 615C684.903 615 614.605 784.685 670.743 812Z" fill="url(#paint6_linear_526_185)"/>
<path style="mix-blend-mode:multiply" d="M670.743 812C670.743 812 737.272 753.499 684.903 615C684.903 615 614.605 784.685 670.743 812Z" fill="url(#paint7_linear_526_185)"/>
<path style="mix-blend-mode:multiply" d="M684.837 655C690.784 703.66 683.756 752.757 672.445 800.106C669.245 813.484 665.72 826.753 662 840" stroke="url(#paint8_linear_526_185)" stroke-miterlimit="10"/>
<path d="M732.94 783.892C732.94 783.892 827.397 822.706 879 626C879 626 705.513 682.009 732.94 783.892Z" fill="url(#paint9_linear_526_185)"/>
<path style="mix-blend-mode:multiply" d="M732.94 783.892C732.94 783.892 827.397 822.706 879 626C879 626 705.513 682.009 732.94 783.892Z" fill="url(#paint10_linear_526_185)"/>
<path style="mix-blend-mode:multiply" d="M852 661C828.788 702.61 791.558 740.016 751.554 769.165C736.972 779.934 721.381 789.256 705 797" stroke="url(#paint11_linear_526_185)" stroke-miterlimit="10"/>
<path d="M692.205 781C692.205 781 796.862 747.7 778.934 603C778.934 602.978 654.198 695.597 692.205 781Z" fill="url(#paint12_linear_526_185)"/>
<path style="mix-blend-mode:multiply" d="M692.205 781C692.205 781 796.862 747.7 778.934 603C778.934 602.978 654.198 695.597 692.205 781Z" fill="url(#paint13_linear_526_185)"/>
<path style="mix-blend-mode:multiply" d="M764 640C749.916 688.589 725.892 734.813 694.143 776.965C684.727 789.181 674.665 800.877 664 812" stroke="url(#paint14_linear_526_185)" stroke-miterlimit="10"/>
<path d="M655.124 842.033C653.123 832.375 675.846 808.598 691.872 800.499C748.582 771.849 858 847.209 858 847.209C856.63 853.272 662.517 877.677 655.124 842.033Z" fill="url(#paint15_linear_526_185)"/>
<path style="mix-blend-mode:multiply" d="M655.124 842.033C653.123 832.375 675.846 808.598 691.872 800.499C748.582 771.849 858 847.209 858 847.209C856.63 853.272 662.517 877.677 655.124 842.033Z" fill="url(#paint16_linear_526_185)"/>
<path style="mix-blend-mode:multiply" d="M817 833.173C768.767 817.204 719.923 816.202 674.158 834.611C661.543 839.972 649.441 846.461 638 854" stroke="url(#paint17_linear_526_185)" stroke-miterlimit="10"/>
<path d="M611.156 853.69C611.156 853.69 598.882 753.035 792 745C792 745.044 697.752 902.249 611.156 853.69Z" fill="url(#paint18_linear_526_185)"/>
<path style="mix-blend-mode:multiply" d="M611.156 853.69C611.156 853.69 598.882 753.035 792 745C792 745.044 697.752 902.249 611.156 853.69Z" fill="url(#paint19_linear_526_185)"/>
<path style="mix-blend-mode:multiply" d="M753 764C706.777 781.265 664.28 807.146 627.779 840.259C617.583 849.575 607.972 859.508 599 870" stroke="url(#paint20_linear_526_185)" stroke-miterlimit="10"/>
<path d="M182 848.013C182 848.013 148.573 764.194 21 778.683C20.9127 778.683 146.149 897.297 182 848.013Z" fill="url(#paint21_linear_526_185)"/>
<path style="mix-blend-mode:multiply" d="M182 848.013C182 848.013 148.573 764.194 21 778.683C20.9127 778.683 146.149 897.297 182 848.013Z" fill="url(#paint22_linear_526_185)"/>
<path style="mix-blend-mode:multiply" d="M54 790C125.025 803.628 187.736 851.521 247 899" stroke="url(#paint23_linear_526_185)" stroke-miterlimit="10"/>
<path d="M276.763 838C276.763 838 188.073 802.692 181 627C181.044 627 319.66 783.231 276.763 838Z" fill="url(#paint24_linear_526_185)"/>
<path style="mix-blend-mode:multiply" d="M276.763 838C276.763 838 188.073 802.692 181 627C181.044 627 319.66 783.231 276.763 838Z" fill="url(#paint25_linear_526_185)"/>
<path style="mix-blend-mode:multiply" d="M198 671C223.575 766.174 281.648 845.95 339 921" stroke="url(#paint26_linear_526_185)" stroke-miterlimit="10"/>
<path d="M234.589 832.005C234.589 832.005 124.843 869.391 65 680C65 680 266.419 734.021 234.589 832.005Z" fill="url(#paint27_linear_526_185)"/>
<path style="mix-blend-mode:multiply" d="M234.589 832.005C234.589 832.005 124.843 869.391 65 680C65 680 266.419 734.021 234.589 832.005Z" fill="url(#paint28_linear_526_185)"/>
<path style="mix-blend-mode:multiply" d="M97 714C123.849 754.143 166.859 790.105 213.172 818.187C230.304 828.69 248.315 837.662 267 845" stroke="url(#paint29_linear_526_185)" stroke-miterlimit="10"/>
<path d="M271.408 865C271.408 865 288.189 733.378 143 677C143.044 676.934 173.065 861.59 271.408 865Z" fill="url(#paint30_linear_526_185)"/>
<path style="mix-blend-mode:multiply" d="M271.408 865C271.408 865 288.189 733.378 143 677C143.044 676.934 173.065 861.59 271.408 865Z" fill="url(#paint31_linear_526_185)"/>
<path style="mix-blend-mode:multiply" d="M171 712C210.233 752.765 242.928 803.153 267.885 859.826C275.143 876.237 281.224 893.476 287 911" stroke="url(#paint32_linear_526_185)" stroke-miterlimit="10"/>
<path d="M250.861 892.916C253.04 882.702 229.074 857.475 212.124 848.899C152.34 818.499 37 898.415 37 898.415C38.3726 904.831 243.171 930.647 250.861 892.916Z" fill="url(#paint33_linear_526_185)"/>
<path style="mix-blend-mode:multiply" d="M250.861 892.916C253.04 882.702 229.074 857.475 212.124 848.899C152.34 818.499 37 898.415 37 898.415C38.3726 904.831 243.171 930.647 250.861 892.916Z" fill="url(#paint34_linear_526_185)"/>
<path style="mix-blend-mode:multiply" d="M80 883.91C130.656 866.979 181.967 865.903 230.029 885.447C243.284 891.112 255.994 897.992 268 906" stroke="url(#paint35_linear_526_185)" stroke-miterlimit="10"/>
<path d="M326 895.864C326 895.864 316.471 789.389 116 823.874C116 823.874 247.634 965.184 326 895.864Z" fill="url(#paint36_linear_526_185)"/>
<path style="mix-blend-mode:multiply" d="M326 895.864C326 895.864 316.471 789.389 116 823.874C116 823.874 247.634 965.184 326 895.864Z" fill="url(#paint37_linear_526_185)"/>
<path style="mix-blend-mode:multiply" d="M161 835C212.394 842.594 261.866 859.83 306.784 885.79C319.342 893.117 331.437 901.202 343 910" stroke="url(#paint38_linear_526_185)" stroke-miterlimit="10"/>
<path d="M681.342 864.488L283.108 924.557C271.264 926.345 259.988 917.228 257.981 904.206L159.197 269.493C157.125 256.057 165.392 244.715 177.628 244.126L587.945 224.823C598.632 224.322 608.709 234.028 610.476 246.526L696.871 839.666C698.682 851.772 691.702 862.917 681.342 864.488Z" fill="#44435E"/>
<path d="M688.91 868.369L291.745 928.612C279.924 930.4 268.691 921.327 266.684 908.305L168.14 274.552C166.09 261.16 174.334 249.818 186.549 249.229L595.754 229.598C606.398 229.075 616.453 238.781 618.219 251.257L704.484 843.547C706.207 855.696 699.249 866.798 688.91 868.369Z" fill="#5D5E8A"/>
<path style="mix-blend-mode:multiply" d="M688.91 868.368L291.767 928.612C279.923 930.4 268.668 921.327 266.683 908.327L168.139 274.551C166.089 261.159 174.356 249.817 186.548 249.228L258.94 245.76L506.74 233.873L595.753 229.511C606.397 229.009 616.452 238.693 618.241 251.17L704.483 843.46C706.206 855.696 699.27 866.798 688.91 868.368Z" fill="url(#paint39_linear_526_185)"/>
<g style="mix-blend-mode:multiply">
<path d="M613.333 282.367L228.164 290.786L234.097 338.27L244.872 424.382L303.195 888.486L679.574 844.296L628.077 407.892L618.567 326.993L613.333 282.367Z" fill="#CFCFCF"/>
</g>
<path d="M594.14 268.109L209.386 295.897L217.303 343.424L231.633 429.492L308.497 891.917L681.735 829.035L613.792 393.743L601.141 312.779L594.14 268.109Z" fill="#EDE9F1"/>
<g style="mix-blend-mode:multiply">
<path d="M595.142 271.383L208.316 284.906L214.86 332.542L226.703 418.85L290.633 883.696L667.818 834.38L595.142 271.383Z" fill="#CFCFCF"/>
</g>
<path d="M664.874 823.081L288.365 879.158L204.107 328.157L590.454 304.797L664.874 823.081Z" fill="white"/>
<path d="M602.1 386.003L217.324 414.533L196.8 280.458L584.019 259.977L602.1 386.003Z" fill="white"/>
<path d="M297.874 492.377L571.128 466.203" stroke="#1C4670" stroke-miterlimit="10"/>
<path d="M308.692 563.797L581.074 534.766" stroke="#1C4670" stroke-miterlimit="10"/>
<path d="M319.468 635.015L591.02 603.148" stroke="#1C4670" stroke-miterlimit="10"/>
<path d="M330.221 705.993L600.923 671.312" stroke="#1C4670" stroke-miterlimit="10"/>
<path d="M339.948 770.171L609.865 732.961" stroke="#1C4670" stroke-miterlimit="10"/>
<g style="mix-blend-mode:multiply">
<path d="M513.525 275.077L508.422 239.786C508.125 237.75 507.56 235.763 506.742 233.875L258.942 245.762C258.66 247.766 258.66 249.8 258.942 251.804L264.373 288.229C264.619 290.313 265.608 292.239 267.158 293.653C268.708 295.067 270.717 295.875 272.814 295.929L507.811 283.3C511.65 283.06 514.158 279.396 513.525 275.077Z" fill="#CFCFCF"/>
</g>
<path d="M422.397 182.163L420.804 178.607C412.909 160.962 397.226 148.071 380.453 146.893C360.496 145.367 344.355 159.566 341.193 180.745L340.495 185.5C337.267 207.028 321.737 222.121 301.801 223.037L277.809 224.128C268.059 224.564 261.472 233.812 263.108 244.783L268.582 281.23C268.828 283.311 269.813 285.233 271.359 286.647C272.905 288.06 274.908 288.871 277.002 288.93L511.998 276.279C515.728 276.083 518.258 272.397 517.626 268.078L512.5 232.787C510.973 222.187 502.27 213.92 493.088 214.334L470.186 215.381C450.904 216.188 431.71 202.84 422.397 182.163ZM384.968 205.893C376.244 206.264 367.868 198.456 366.385 188.444C364.902 178.433 370.747 170.014 379.624 169.686C388.502 169.359 396.681 177.146 398.164 187.136C399.647 197.125 393.693 205.501 384.968 205.893Z" fill="url(#paint40_linear_526_185)"/>
<path d="M330.655 371.342L338.018 370.705C339.585 370.57 340.987 370.704 342.224 371.108C343.461 371.512 344.474 372.18 345.263 373.112C346.061 374.033 346.58 375.208 346.821 376.635C347 377.693 346.934 378.673 346.623 379.576C346.322 380.477 345.827 381.254 345.137 381.908C344.445 382.551 343.599 383.026 342.597 383.331L341.97 383.635L334.108 384.315L333.804 382.7L340.389 382.131C341.572 382.028 342.52 381.717 343.232 381.197C343.945 380.677 344.436 380.03 344.705 379.257C344.983 378.472 345.051 377.653 344.907 376.801C344.735 375.784 344.364 374.925 343.793 374.224C343.23 373.512 342.484 372.993 341.555 372.666C340.626 372.34 339.539 372.231 338.294 372.339L332.845 372.809L336.356 393.609L334.442 393.774L330.655 371.342ZM348.436 392.565L340.875 383.042L342.927 382.849L350.442 392.189L350.476 392.389L348.436 392.565ZM360.88 391.803C359.78 391.898 358.734 391.785 357.743 391.464C356.762 391.142 355.867 390.647 355.059 389.976C354.262 389.305 353.592 388.488 353.05 387.524C352.517 386.549 352.15 385.465 351.949 384.274L351.837 383.611C351.62 382.327 351.616 381.15 351.825 380.08C352.034 379.009 352.413 378.075 352.963 377.277C353.513 376.479 354.185 375.848 354.981 375.383C355.785 374.907 356.665 374.628 357.619 374.546C358.688 374.453 359.67 374.561 360.564 374.869C361.457 375.168 362.242 375.636 362.918 376.276C363.603 376.905 364.17 377.674 364.618 378.583C365.065 379.483 365.383 380.492 365.572 381.612L365.762 382.737L353.012 383.838L352.747 382.267L363.644 381.325L363.608 381.109C363.429 380.176 363.09 379.32 362.589 378.54C362.098 377.749 361.456 377.127 360.664 376.674C359.871 376.222 358.946 376.041 357.887 376.132C357.098 376.201 356.4 376.428 355.791 376.814C355.193 377.199 354.707 377.72 354.333 378.378C353.969 379.024 353.728 379.78 353.61 380.644C353.502 381.498 353.533 382.433 353.705 383.45L353.817 384.112C353.973 385.037 354.253 385.888 354.658 386.666C355.072 387.433 355.584 388.097 356.195 388.659C356.816 389.22 357.508 389.64 358.271 389.918C359.034 390.196 359.841 390.298 360.692 390.224C361.688 390.138 362.54 389.882 363.248 389.457C363.953 389.02 364.545 388.38 365.024 387.537L366.342 388.329C366.069 388.895 365.696 389.427 365.222 389.927C364.759 390.425 364.171 390.841 363.458 391.173C362.746 391.506 361.886 391.716 360.88 391.803ZM379.092 373.003L380.819 372.854L383.584 389.231C383.828 390.68 383.758 391.947 383.373 393.033C382.998 394.117 382.348 394.981 381.425 395.624C380.512 396.265 379.371 396.645 378.001 396.764C377.305 396.824 376.571 396.778 375.798 396.626C375.037 396.483 374.293 396.224 373.566 395.849C372.852 395.484 372.213 395.008 371.651 394.42L372.504 393.206C373.328 393.968 374.161 394.506 375.003 394.819C375.847 395.142 376.721 395.264 377.624 395.186C378.693 395.094 379.56 394.805 380.226 394.32C380.902 393.835 381.365 393.18 381.616 392.356C381.877 391.531 381.913 390.564 381.726 389.454L379.57 376.682L379.092 373.003ZM368.696 382.53L368.641 382.206C368.423 380.912 368.372 379.734 368.487 378.671C368.611 377.598 368.891 376.667 369.327 375.879C369.76 375.081 370.344 374.452 371.077 373.992C371.819 373.522 372.699 373.243 373.716 373.155C374.691 373.071 375.585 373.155 376.396 373.408C377.207 373.661 377.938 374.061 378.589 374.61C379.239 375.158 379.8 375.828 380.271 376.621C380.752 377.414 381.155 378.306 381.481 379.299L382.175 383.413C382.21 384.369 382.128 385.256 381.93 386.076C381.73 386.885 381.404 387.606 380.953 388.239C380.5 388.862 379.911 389.366 379.186 389.752C378.47 390.127 377.609 390.357 376.602 390.444C375.596 390.531 374.658 390.404 373.79 390.062C372.921 389.72 372.143 389.199 371.456 388.497C370.768 387.786 370.185 386.924 369.709 385.913C369.244 384.9 368.906 383.773 368.696 382.53ZM370.51 382.045L370.564 382.368C370.729 383.344 370.98 384.24 371.318 385.055C371.655 385.87 372.078 386.568 372.587 387.149C373.096 387.73 373.691 388.169 374.373 388.464C375.054 388.76 375.816 388.871 376.656 388.798C377.725 388.706 378.589 388.428 379.248 387.965C379.905 387.491 380.39 386.902 380.703 386.198C381.014 385.483 381.2 384.717 381.262 383.898L380.453 379.107C380.247 378.572 379.977 378.033 379.643 377.489C379.32 376.943 378.91 376.452 378.415 376.016C377.929 375.568 377.345 375.228 376.664 374.995C375.991 374.751 375.208 374.667 374.316 374.744C373.465 374.818 372.752 375.057 372.178 375.461C371.614 375.864 371.183 376.396 370.884 377.057C370.583 377.709 370.404 378.459 370.348 379.308C370.291 380.157 370.345 381.069 370.51 382.045ZM387.762 372.254L390.576 388.924L388.724 389.084L385.91 372.414L387.762 372.254ZM384.769 367.62C384.71 367.271 384.77 366.968 384.948 366.713C385.134 366.447 385.425 366.297 385.819 366.263C386.214 366.229 386.546 366.325 386.816 366.552C387.094 366.768 387.263 367.05 387.322 367.399C387.379 367.738 387.309 368.041 387.112 368.308C386.924 368.564 386.632 368.709 386.238 368.743C385.844 368.777 385.512 368.686 385.244 368.47C384.985 368.242 384.826 367.959 384.769 367.62ZM405.036 383.361C404.96 382.909 404.77 382.472 404.467 382.05C404.165 381.628 403.655 381.26 402.939 380.947C402.233 380.633 401.231 380.402 399.931 380.253C398.963 380.129 398.088 379.97 397.308 379.776C396.538 379.582 395.874 379.327 395.315 379.011C394.756 378.694 394.305 378.296 393.96 377.815C393.616 377.334 393.386 376.749 393.27 376.061C393.165 375.445 393.202 374.853 393.38 374.285C393.567 373.706 393.88 373.189 394.319 372.735C394.767 372.269 395.334 371.886 396.021 371.587C396.718 371.287 397.523 371.098 398.436 371.019C399.733 370.907 400.881 371.032 401.879 371.394C402.886 371.744 403.697 372.274 404.311 372.981C404.936 373.688 405.328 374.514 405.487 375.459L403.635 375.619C403.538 375.044 403.275 374.514 402.845 374.03C402.427 373.545 401.863 373.167 401.153 372.895C400.454 372.621 399.638 372.525 398.704 372.606C397.739 372.689 396.979 372.901 396.426 373.24C395.873 373.58 395.493 373.983 395.287 374.449C395.092 374.914 395.034 375.382 395.114 375.855C395.177 376.225 395.291 376.559 395.457 376.857C395.632 377.144 395.897 377.403 396.251 377.632C396.616 377.861 397.114 378.063 397.743 378.238C398.373 378.413 399.178 378.568 400.159 378.702C401.569 378.882 402.741 379.151 403.675 379.508C404.618 379.854 405.35 380.322 405.871 380.912C406.39 381.493 406.724 382.225 406.873 383.108C406.989 383.796 406.951 384.441 406.757 385.041C406.562 385.631 406.224 386.155 405.743 386.613C405.273 387.071 404.673 387.446 403.943 387.738C403.224 388.03 402.392 388.216 401.447 388.298C400.025 388.421 398.783 388.293 397.719 387.916C396.663 387.528 395.817 386.976 395.18 386.26C394.552 385.533 394.165 384.738 394.02 383.875L395.872 383.715C396.08 384.572 396.47 385.231 397.043 385.693C397.614 386.143 398.27 386.441 399.01 386.586C399.761 386.729 400.484 386.771 401.179 386.711C402.134 386.628 402.91 386.421 403.506 386.088C404.103 385.755 404.529 385.348 404.785 384.867C405.041 384.387 405.125 383.884 405.036 383.361ZM415.378 369.868L415.633 371.378L407.196 372.107L406.941 370.597L415.378 369.868ZM409.316 366.046L411.168 365.886L414.021 382.788C414.151 383.558 414.353 384.129 414.626 384.502C414.9 384.874 415.214 385.113 415.568 385.217C415.923 385.322 416.292 385.358 416.676 385.325C416.956 385.301 417.224 385.262 417.478 385.209C417.73 385.145 417.957 385.084 418.158 385.025L418.498 386.574C418.282 386.666 417.996 386.748 417.639 386.821C417.285 386.903 416.926 386.96 416.563 386.992C415.847 387.054 415.192 386.98 414.599 386.771C414.003 386.551 413.497 386.136 413.078 385.526C412.657 384.906 412.353 384.041 412.166 382.932L409.316 366.046ZM421.603 372.128L423.952 386.041L422.099 386.201L419.286 369.53L421.091 369.374L421.603 372.128ZM427.079 368.732L427.319 370.431C427.106 370.418 426.899 370.41 426.699 370.406C426.498 370.403 426.283 370.411 426.055 370.43C425.246 370.5 424.56 370.711 423.998 371.061C423.444 371.401 423.004 371.851 422.678 372.41C422.349 372.96 422.135 373.593 422.035 374.311C421.933 375.018 421.934 375.768 422.036 376.561L421.395 376.883C421.211 375.794 421.155 374.772 421.225 373.818C421.296 372.863 421.506 372.017 421.855 371.278C422.213 370.528 422.717 369.927 423.367 369.475C424.026 369.011 424.843 368.737 425.818 368.653C426.057 368.633 426.294 368.633 426.529 368.654C426.773 368.664 426.957 368.69 427.079 368.732ZM441.956 381.453L440.505 372.855C440.372 372.064 440.091 371.396 439.661 370.849C439.232 370.303 438.67 369.903 437.974 369.651C437.279 369.398 436.459 369.313 435.515 369.394C434.643 369.47 433.891 369.691 433.258 370.058C432.633 370.414 432.167 370.866 431.86 371.414C431.561 371.95 431.463 372.527 431.567 373.143L429.696 373.289C429.591 372.662 429.644 372.043 429.857 371.431C430.069 370.818 430.422 370.256 430.915 369.745C431.407 369.233 432.026 368.81 432.769 368.475C433.521 368.128 434.375 367.914 435.33 367.831C436.534 367.727 437.626 367.836 438.607 368.158C439.598 368.479 440.421 369.017 441.075 369.774C441.729 370.53 442.158 371.514 442.363 372.726L443.723 380.784C443.82 381.359 443.962 381.951 444.149 382.56C444.347 383.169 444.562 383.666 444.796 384.052L444.827 384.237L442.85 384.408C442.663 384.049 442.487 383.595 442.32 383.047C442.163 382.487 442.041 381.956 441.956 381.453ZM441.258 374.697L441.529 376.112L437.871 376.428C436.916 376.511 436.074 376.672 435.346 376.912C434.627 377.141 434.035 377.442 433.572 377.816C433.107 378.179 432.772 378.599 432.568 379.075C432.375 379.55 432.327 380.075 432.424 380.65C432.524 381.246 432.767 381.778 433.151 382.245C433.545 382.711 434.048 383.068 434.659 383.318C435.278 383.556 435.977 383.642 436.755 383.575C437.793 383.485 438.674 383.216 439.399 382.768C440.134 382.319 440.709 381.764 441.123 381.102C441.538 380.441 441.772 379.738 441.826 378.994L442.815 379.987C442.766 380.512 442.607 381.063 442.335 381.639C442.073 382.203 441.696 382.746 441.205 383.268C440.712 383.78 440.102 384.218 439.373 384.583C438.654 384.937 437.807 385.156 436.831 385.241C435.731 385.336 434.736 385.213 433.847 384.873C432.968 384.532 432.241 384.027 431.664 383.358C431.097 382.677 430.737 381.885 430.584 380.981C430.445 380.16 430.498 379.41 430.742 378.732C430.983 378.045 431.398 377.446 431.986 376.937C432.583 376.416 433.333 375.997 434.238 375.679C435.151 375.35 436.199 375.134 437.382 375.032L441.258 374.697ZM452.864 366.629L453.118 368.139L444.681 368.868L444.426 367.358L452.864 366.629ZM446.801 362.807L448.654 362.647L451.506 379.549C451.636 380.319 451.838 380.891 452.112 381.263C452.385 381.635 452.699 381.874 453.054 381.979C453.408 382.084 453.778 382.119 454.162 382.086C454.442 382.062 454.709 382.023 454.963 381.97C455.216 381.907 455.442 381.845 455.643 381.786L455.984 383.336C455.767 383.427 455.481 383.509 455.125 383.582C454.77 383.665 454.411 383.722 454.048 383.753C453.332 383.815 452.677 383.741 452.084 383.532C451.489 383.312 450.982 382.898 450.563 382.288C450.142 381.668 449.839 380.803 449.651 379.693L446.801 362.807ZM458.841 366.113L461.655 382.783L459.803 382.943L456.989 366.273L458.841 366.113ZM455.848 361.479C455.789 361.129 455.849 360.827 456.027 360.572C456.213 360.306 456.504 360.156 456.898 360.122C457.293 360.088 457.625 360.184 457.895 360.411C458.173 360.626 458.342 360.909 458.401 361.258C458.458 361.597 458.388 361.9 458.191 362.167C458.003 362.423 457.711 362.568 457.317 362.602C456.923 362.636 456.591 362.545 456.323 362.329C456.064 362.101 455.905 361.818 455.848 361.479ZM464.355 374.359L464.27 373.85C464.065 372.638 464.052 371.504 464.232 370.446C464.411 369.388 464.765 368.456 465.292 367.65C465.83 366.843 466.526 366.194 467.38 365.703C468.232 365.202 469.224 364.903 470.356 364.805C471.497 364.707 472.565 364.828 473.56 365.169C474.553 365.5 475.445 366.012 476.236 366.704C477.026 367.397 477.685 368.241 478.211 369.238C478.737 370.235 479.103 371.339 479.307 372.551L479.393 373.06C479.598 374.272 479.61 375.406 479.431 376.464C479.25 377.511 478.89 378.439 478.352 379.246C477.825 380.052 477.135 380.706 476.283 381.207C475.428 381.697 474.436 381.992 473.305 382.089C472.163 382.188 471.096 382.072 470.103 381.741C469.108 381.399 468.215 380.882 467.424 380.19C466.634 379.498 465.976 378.658 465.452 377.672C464.925 376.675 464.56 375.571 464.355 374.359ZM466.122 373.69L466.208 374.199C466.362 375.113 466.633 375.97 467.021 376.77C467.407 377.56 467.892 378.253 468.477 378.848C469.06 379.434 469.735 379.876 470.502 380.174C471.268 380.473 472.113 380.582 473.037 380.502C473.95 380.423 474.724 380.174 475.359 379.755C476.004 379.334 476.512 378.79 476.884 378.122C477.253 377.444 477.489 376.689 477.591 375.857C477.701 375.014 477.679 374.135 477.525 373.221L477.439 372.713C477.287 371.809 477.017 370.962 476.631 370.172C476.256 369.381 475.77 368.688 475.175 368.094C474.59 367.498 473.914 367.046 473.145 366.737C472.377 366.428 471.537 366.313 470.623 366.392C469.71 366.471 468.932 366.726 468.289 367.157C467.656 367.586 467.149 368.141 466.769 368.82C466.399 369.498 466.158 370.253 466.046 371.086C465.944 371.918 465.969 372.786 466.122 373.69ZM484.256 367.528L486.469 380.639L484.616 380.799L481.803 364.129L483.577 363.976L484.256 367.528ZM484.467 371.308L483.564 370.917C483.46 369.926 483.507 368.984 483.703 368.091C483.9 367.199 484.234 366.399 484.704 365.691C485.185 364.983 485.788 364.41 486.514 363.972C487.251 363.533 488.102 363.272 489.067 363.189C489.908 363.116 490.679 363.164 491.382 363.332C492.084 363.501 492.71 363.812 493.26 364.264C493.811 364.717 494.27 365.318 494.639 366.068C495.018 366.817 495.301 367.746 495.488 368.855L497.319 379.702L495.451 379.863L493.618 369.001C493.423 367.851 493.111 366.966 492.68 366.347C492.247 365.717 491.712 365.289 491.073 365.063C490.435 364.837 489.711 364.759 488.902 364.829C488.009 364.906 487.259 365.169 486.65 365.617C486.05 366.055 485.573 366.601 485.221 367.257C484.877 367.901 484.645 368.583 484.524 369.302C484.401 370.011 484.382 370.68 484.467 371.308Z" fill="#1C4670"/>
<path d="M783.18 502.795C793.824 491.606 820.085 515.206 792.755 547.531C780.213 562.362 769.656 565.241 755.261 573.879C741.869 581.905 692.466 570.563 692.466 570.563C691.573 566.673 691.573 562.632 692.466 558.742C692.466 558.742 734.475 562.711 745.664 553.572C762.044 540.158 776.745 509.491 783.18 502.795Z" fill="url(#paint41_linear_526_185)"/>
<path d="M811.207 897.711V914.702H787.106C787.106 914.702 783.638 908.551 795.089 905.716L796.768 897.711H811.207Z" fill="#133A50"/>
<path d="M739.555 897.711V914.702H715.562C716.091 912.681 717.09 910.814 718.477 909.252C719.865 907.691 721.601 906.479 723.546 905.716L725.836 897.711H739.555Z" fill="#133A50"/>
<path d="M805.731 618.266C805.731 618.266 810.289 672.925 810.464 717.53C810.638 762.134 813.278 901.618 813.278 901.618H795.261C795.261 901.618 776.7 781.524 769.96 752.864C763.22 724.204 745.662 618.811 745.662 618.811L805.731 618.266Z" fill="#133A50"/>
<path style="mix-blend-mode:multiply" d="M805.731 618.266C805.731 618.266 810.289 672.925 810.464 717.53C810.638 762.134 813.278 901.618 813.278 901.618H795.261C795.261 901.618 776.7 781.524 769.96 752.864C763.22 724.204 745.662 618.811 745.662 618.811L805.731 618.266Z" fill="url(#paint42_linear_526_185)"/>
<path d="M776.047 671.725C775.589 696.481 754.235 756.79 753.647 770.225C753.058 783.661 740.56 901.552 740.56 901.552C740.56 901.552 723.699 901.988 723.699 901.552C723.699 901.116 717.81 779.932 715.738 746.974C713.666 714.017 720.406 662.739 720.101 657.417C719.512 646.293 725.619 627.709 725.619 627.709L776.069 622.867C776.069 622.867 776.701 635.671 776.047 671.725Z" fill="#133A50"/>
<path style="mix-blend-mode:multiply" d="M776.047 671.725C775.589 696.481 754.235 756.79 753.647 770.225C753.058 783.661 740.56 901.552 740.56 901.552C740.56 901.552 723.699 901.988 723.699 901.552C723.699 901.116 717.81 779.932 715.738 746.974C713.666 714.017 720.406 662.739 720.101 657.417C719.512 646.293 725.619 627.709 725.619 627.709L776.069 622.867C776.069 622.867 776.701 635.671 776.047 671.725Z" fill="url(#paint43_linear_526_185)"/>
<path d="M561.88 477.364L813.279 649.566L827.936 628.67L576.559 456.469L561.88 477.364Z" fill="url(#paint44_linear_526_185)"/>
<path d="M561.881 477.365L540.55 453.874L546.81 444.953L576.561 456.47L561.881 477.365Z" fill="url(#paint45_linear_526_185)"/>
<path d="M838 635.629L828.02 628.625L813.348 649.532L823.328 656.536L838 635.629Z" fill="url(#paint46_linear_526_185)"/>
<path d="M841.613 669.45L823.379 656.559L838.036 635.664L856.401 648.555C857.776 649.515 858.947 650.737 859.848 652.151C860.75 653.565 861.363 655.144 861.652 656.795C861.942 658.447 861.903 660.139 861.537 661.776C861.171 663.412 860.486 664.96 859.521 666.331C858.558 667.722 857.328 668.907 855.903 669.818C854.478 670.729 852.886 671.347 851.22 671.638C849.553 671.928 847.846 671.884 846.197 671.508C844.548 671.133 842.99 670.433 841.613 669.45Z" fill="url(#paint47_linear_526_185)"/>
<path d="M529.402 442.179L540.592 453.805L546.808 444.949L532.085 438.406C531.563 438.125 530.96 438.035 530.379 438.15C529.798 438.266 529.275 438.58 528.901 439.038C528.616 439.541 528.511 440.126 528.602 440.697C528.693 441.267 528.975 441.79 529.402 442.179Z" fill="#1B2D35"/>
<path d="M742.261 421.727C738.488 423.908 736.917 430.32 736.917 430.32C736.917 430.32 735.456 437.518 734.54 442.971C733.624 448.424 728.956 452.721 729.501 454.182C730.046 455.643 733.231 455.643 733.231 457.672C733.231 459.7 733.994 465.524 733.951 469.537C733.907 473.551 737.942 474.161 741.694 474.488C745.445 474.816 750.418 475.732 751.182 477.477C751.945 479.222 753.014 496.932 753.014 496.932L780.496 486.158C778.793 480.803 777.911 475.221 777.879 469.603C778.163 461.903 778.555 452.677 778.555 452.677C778.555 452.677 777.007 435.926 766.69 429.186C756.373 422.446 742.261 421.727 742.261 421.727Z" fill="#FEC4AD"/>
<path d="M749.655 430.45C747.059 430.123 740.93 430.45 736.917 430.319C736 430.244 735.116 429.944 734.344 429.444C733.572 428.944 732.935 428.26 732.492 427.454C732.049 426.648 731.813 425.744 731.805 424.824C731.797 423.905 732.017 422.997 732.446 422.183C734.154 419.603 735.706 416.923 737.091 414.157C737.091 414.157 741.454 417.952 749.829 414.309C758.205 410.667 774.084 410.819 779.449 422.685C779.449 422.685 790.071 427.047 790.551 435.51C791.031 443.973 789.243 447.114 785.186 452.741C781.129 458.368 777.879 469.601 777.879 469.601C774.588 469.785 771.289 469.785 767.998 469.601C763.091 469.252 758.554 461.989 756.569 458.521C756.569 458.521 763.745 453.112 761.978 447.615C760.212 442.119 752.97 444.627 752.076 447.223C751.133 449.447 749.948 451.561 748.542 453.526L745.38 453.788C744.953 449.491 744.808 445.17 744.944 440.854C745.271 435.881 749.655 430.45 749.655 430.45Z" fill="#1B2D35"/>
<path d="M777.704 482.766C777.704 482.766 765.948 484.947 760.255 485.667C754.562 486.386 738.574 496.921 738.574 496.921C738.574 496.921 721.234 505.646 720.602 524.077C719.969 542.507 722.194 628.946 721.561 635.097C721.561 635.097 727.32 648.489 768.238 647.355C782.192 647.035 796.006 644.488 809.156 639.808C809.156 639.808 810.421 587.962 810.552 571.8C811.076 507.522 802.155 497.401 794.085 489.309C787.759 483.158 777.704 482.766 777.704 482.766Z" fill="url(#paint48_linear_526_185)"/>
<path d="M611.043 511.141C607.401 508.654 606.856 503.398 604.718 500.977C602.58 498.556 602.144 498.403 601.839 499.45C601.74 501.3 601.82 503.155 602.079 504.99L588.425 495.611C586.418 494.215 585.895 496.113 586.811 498.25C587.727 500.388 585.895 501.587 586.811 505.208C587.727 508.829 588.643 509.156 588.992 512.34C589.341 515.525 593.354 518.033 596.582 519.822C599.81 521.61 604.02 521.349 607.357 522.679C610.694 524.01 614.468 525.994 614.468 525.994L611.043 511.141Z" fill="#FEC4AD"/>
<path d="M750.963 488.196C767.867 480.715 777.246 502.047 752.817 521.437C733.187 536.989 665.571 547.48 665.571 547.48L609.145 526.475C609.145 526.475 606.833 515.853 610.956 511.207L662.954 522.724C662.954 522.724 731.246 496.943 750.963 488.196Z" fill="url(#paint49_linear_526_185)"/>
<path d="M692.508 570.513C695.78 570.121 697.568 568.136 697.154 566.282C696.739 564.428 694.842 564.602 694.864 563.163C694.885 561.723 693.184 559.695 692.508 558.691C691.832 557.688 692.181 554.678 689.891 554.656C687.921 554.875 686.064 555.689 684.569 556.99C682.496 557.902 680.149 557.973 678.025 557.186C676.673 556.358 676.738 558.146 677.218 559.019C678.505 561.2 680.97 561.374 681.82 564.842C682.671 568.31 688.255 571.015 692.508 570.513Z" fill="#FEC4AD"/>
<defs>
<linearGradient id="paint0_linear_526_185" x1="800.64" y1="394.743" x2="914.024" y2="199.271" gradientUnits="userSpaceOnUse">
<stop stop-color="#FFA229"/>
<stop offset="1" stop-color="#FFC63B"/>
</linearGradient>
<linearGradient id="paint1_linear_526_185" x1="862.695" y1="419.897" x2="936.987" y2="156.195" gradientUnits="userSpaceOnUse">
<stop stop-color="white"/>
<stop offset="1" stop-color="white" stop-opacity="0"/>
</linearGradient>
<linearGradient id="paint2_linear_526_185" x1="784.913" y1="839.554" x2="922.109" y2="839.554" gradientUnits="userSpaceOnUse">
<stop stop-color="#75769A"/>
<stop offset="0.97" stop-color="white" stop-opacity="0"/>
</linearGradient>
<linearGradient id="paint3_linear_526_185" x1="923.683" y1="758.761" x2="753.196" y2="787.956" gradientUnits="userSpaceOnUse">
<stop stop-color="#6AC578"/>
<stop offset="0.88" stop-color="#4A974D"/>
</linearGradient>
<linearGradient id="paint4_linear_526_185" x1="782.774" y1="800.059" x2="880.039" y2="733.808" gradientUnits="userSpaceOnUse">
<stop stop-color="#7C8A99"/>
<stop offset="1" stop-color="white" stop-opacity="0"/>
</linearGradient>
<linearGradient id="paint5_linear_526_185" x1="769.256" y1="862.996" x2="779.5" y2="747.468" gradientUnits="userSpaceOnUse">
<stop stop-color="#007378"/>
<stop offset="1" stop-color="#CCFFCE"/>
</linearGradient>
<linearGradient id="paint6_linear_526_185" x1="670.338" y1="623.412" x2="680.449" y2="797.531" gradientUnits="userSpaceOnUse">
<stop stop-color="#6AC578"/>
<stop offset="0.88" stop-color="#4A974D"/>
</linearGradient>
<linearGradient id="paint7_linear_526_185" x1="686.166" y1="803.121" x2="664.236" y2="639.954" gradientUnits="userSpaceOnUse">
<stop stop-color="#7C9B8F"/>
<stop offset="1" stop-color="white" stop-opacity="0"/>
</linearGradient>
<linearGradient id="paint8_linear_526_185" x1="628.805" y1="768.212" x2="718.706" y2="727.78" gradientUnits="userSpaceOnUse">
<stop stop-color="#007378"/>
<stop offset="1" stop-color="#CCFFCE"/>
</linearGradient>
<linearGradient id="paint9_linear_526_185" x1="869.378" y1="633.54" x2="735.894" y2="786.427" gradientUnits="userSpaceOnUse">
<stop offset="0.12" stop-color="#4A974D"/>
<stop offset="1" stop-color="#327B67"/>
</linearGradient>
<linearGradient id="paint10_linear_526_185" x1="781.903" y1="800.542" x2="824.919" y2="589.934" gradientUnits="userSpaceOnUse">
<stop stop-color="#8687AB"/>
<stop offset="1" stop-color="white" stop-opacity="0"/>
</linearGradient>
<linearGradient id="paint11_linear_526_185" x1="763.265" y1="720.594" x2="792.532" y2="743.581" gradientUnits="userSpaceOnUse">
<stop stop-color="#007378"/>
<stop offset="1" stop-color="#CCFFCE"/>
</linearGradient>
<linearGradient id="paint12_linear_526_185" x1="710.9" y1="666.53" x2="766.306" y2="723.058" gradientUnits="userSpaceOnUse">
<stop offset="0.12" stop-color="#6AC578"/>
<stop offset="1" stop-color="#328F7B"/>
</linearGradient>
<linearGradient id="paint13_linear_526_185" x1="730.409" y1="753.21" x2="737.272" y2="594.17" gradientUnits="userSpaceOnUse">
<stop stop-color="#7C87AB"/>
<stop offset="1" stop-color="white" stop-opacity="0"/>
</linearGradient>
<linearGradient id="paint14_linear_526_185" x1="673.883" y1="721.197" x2="754.085" y2="730.797" gradientUnits="userSpaceOnUse">
<stop stop-color="#007378"/>
<stop offset="1" stop-color="#CCFFCE"/>
</linearGradient>
<linearGradient id="paint15_linear_526_185" x1="853.22" y1="823.834" x2="673.546" y2="829.254" gradientUnits="userSpaceOnUse">
<stop stop-color="#6AC578"/>
<stop offset="0.88" stop-color="#327B67"/>
</linearGradient>
<linearGradient id="paint16_linear_526_185" x1="694.155" y1="901.144" x2="800.497" y2="805.418" gradientUnits="userSpaceOnUse">
<stop stop-color="#7C87AB"/>
<stop offset="1" stop-color="white" stop-opacity="0"/>
</linearGradient>
<linearGradient id="paint17_linear_526_185" x1="655.881" y1="811.682" x2="798.641" y2="875.014" gradientUnits="userSpaceOnUse">
<stop stop-color="#007378"/>
<stop offset="1" stop-color="#CCFFCE"/>
</linearGradient>
<linearGradient id="paint18_linear_526_185" x1="786.845" y1="737.823" x2="630.532" y2="839.23" gradientUnits="userSpaceOnUse">
<stop stop-color="#6AC578"/>
<stop offset="0.88" stop-color="#327B67"/>
</linearGradient>
<linearGradient id="paint19_linear_526_185" x1="674.577" y1="881.136" x2="718.955" y2="735.976" gradientUnits="userSpaceOnUse">
<stop stop-color="#7C87AB"/>
<stop offset="1" stop-color="white" stop-opacity="0"/>
</linearGradient>
<linearGradient id="paint20_linear_526_185" x1="592.894" y1="827.37" x2="758.732" y2="806.176" gradientUnits="userSpaceOnUse">
<stop stop-color="#007378"/>
<stop offset="1" stop-color="#CCFFCE"/>
</linearGradient>
<linearGradient id="paint21_linear_526_185" x1="19.1839" y1="799.017" x2="167.945" y2="831.092" gradientUnits="userSpaceOnUse">
<stop stop-color="#6AC578"/>
<stop offset="0.88" stop-color="#4A974D"/>
</linearGradient>
<linearGradient id="paint22_linear_526_185" x1="141.136" y1="845.247" x2="55.1491" y2="781.304" gradientUnits="userSpaceOnUse">
<stop stop-color="#7C8A99"/>
<stop offset="1" stop-color="white" stop-opacity="0"/>
</linearGradient>
<linearGradient id="paint23_linear_526_185" x1="153.819" y1="904.636" x2="147.666" y2="784.202" gradientUnits="userSpaceOnUse">
<stop stop-color="#007378"/>
<stop offset="1" stop-color="#CCFFCE"/>
</linearGradient>
<linearGradient id="paint24_linear_526_185" x1="194.557" y1="624.309" x2="261.158" y2="817.046" gradientUnits="userSpaceOnUse">
<stop stop-color="#6AC578"/>
<stop offset="0.88" stop-color="#4A974D"/>
</linearGradient>
<linearGradient id="paint25_linear_526_185" x1="262.749" y1="828.081" x2="213.22" y2="640.877" gradientUnits="userSpaceOnUse">
<stop stop-color="#7C9B8F"/>
<stop offset="1" stop-color="white" stop-opacity="0"/>
</linearGradient>
<linearGradient id="paint26_linear_526_185" x1="331.223" y1="795.951" x2="206.455" y2="805.056" gradientUnits="userSpaceOnUse">
<stop stop-color="#007378"/>
<stop offset="1" stop-color="#CCFFCE"/>
</linearGradient>
<linearGradient id="paint27_linear_526_185" x1="85.1004" y1="679.194" x2="225.455" y2="839.949" gradientUnits="userSpaceOnUse">
<stop offset="0.12" stop-color="#4A974D"/>
<stop offset="1" stop-color="#327B67"/>
</linearGradient>
<linearGradient id="paint28_linear_526_185" x1="173.699" y1="850.817" x2="130.983" y2="641.657" gradientUnits="userSpaceOnUse">
<stop stop-color="#8687AB"/>
<stop offset="1" stop-color="white" stop-opacity="0"/>
</linearGradient>
<linearGradient id="paint29_linear_526_185" x1="205.058" y1="765.042" x2="160.692" y2="799.701" gradientUnits="userSpaceOnUse">
<stop stop-color="#007378"/>
<stop offset="1" stop-color="#CCFFCE"/>
</linearGradient>
<linearGradient id="paint30_linear_526_185" x1="173.169" y1="782.339" x2="249.865" y2="756.838" gradientUnits="userSpaceOnUse">
<stop offset="0.12" stop-color="#6AC578"/>
<stop offset="1" stop-color="#328F7B"/>
</linearGradient>
<linearGradient id="paint31_linear_526_185" x1="266.001" y1="806.002" x2="109.891" y2="721.96" gradientUnits="userSpaceOnUse">
<stop stop-color="#7C87AB"/>
<stop offset="1" stop-color="white" stop-opacity="0"/>
</linearGradient>
<linearGradient id="paint32_linear_526_185" x1="198.671" y1="858.707" x2="256.352" y2="769.403" gradientUnits="userSpaceOnUse">
<stop stop-color="#007378"/>
<stop offset="1" stop-color="#CCFFCE"/>
</linearGradient>
<linearGradient id="paint33_linear_526_185" x1="39.9861" y1="875.3" x2="229.716" y2="881.238" gradientUnits="userSpaceOnUse">
<stop stop-color="#6AC578"/>
<stop offset="0.88" stop-color="#327B67"/>
</linearGradient>
<linearGradient id="paint34_linear_526_185" x1="207.546" y1="955.784" x2="94.8606" y2="854.938" gradientUnits="userSpaceOnUse">
<stop stop-color="#7C87AB"/>
<stop offset="1" stop-color="white" stop-opacity="0"/>
</linearGradient>
<linearGradient id="paint35_linear_526_185" x1="256.346" y1="862.045" x2="106.51" y2="928.916" gradientUnits="userSpaceOnUse">
<stop stop-color="#007378"/>
<stop offset="1" stop-color="#CCFFCE"/>
</linearGradient>
<linearGradient id="paint36_linear_526_185" x1="125.245" y1="816.878" x2="308.882" y2="885.96" gradientUnits="userSpaceOnUse">
<stop stop-color="#6AC578"/>
<stop offset="0.88" stop-color="#327B67"/>
</linearGradient>
<linearGradient id="paint37_linear_526_185" x1="264.571" y1="940.823" x2="186.497" y2="800.846" gradientUnits="userSpaceOnUse">
<stop stop-color="#7C87AB"/>
<stop offset="1" stop-color="white" stop-opacity="0"/>
</linearGradient>
<linearGradient id="paint38_linear_526_185" x1="342.761" y1="863.847" x2="167.763" y2="879.076" gradientUnits="userSpaceOnUse">
<stop stop-color="#007378"/>
<stop offset="1" stop-color="#CCFFCE"/>
</linearGradient>
<linearGradient id="paint39_linear_526_185" x1="35.2858" y1="1089.38" x2="705.377" y2="203.097" gradientUnits="userSpaceOnUse">
<stop stop-color="#75769A"/>
<stop offset="0.97" stop-color="white" stop-opacity="0"/>
</linearGradient>
<linearGradient id="paint40_linear_526_185" x1="366.328" y1="326.155" x2="436.13" y2="166.15" gradientUnits="userSpaceOnUse">
<stop stop-color="#FFA229"/>
<stop offset="1" stop-color="#FFC63B"/>
</linearGradient>
<linearGradient id="paint41_linear_526_185" x1="691.79" y1="538.326" x2="804.795" y2="538.326" gradientUnits="userSpaceOnUse">
<stop stop-color="#7D22BE"/>
<stop offset="1" stop-color="#CF74F1"/>
</linearGradient>
<linearGradient id="paint42_linear_526_185" x1="772.207" y1="668.105" x2="845.951" y2="907.486" gradientUnits="userSpaceOnUse">
<stop stop-color="#75769A"/>
<stop offset="0.97" stop-color="white" stop-opacity="0"/>
</linearGradient>
<linearGradient id="paint43_linear_526_185" x1="772.317" y1="610.347" x2="701.539" y2="887.506" gradientUnits="userSpaceOnUse">
<stop stop-color="#75769A"/>
<stop offset="0.97" stop-color="white" stop-opacity="0"/>
</linearGradient>
<linearGradient id="paint44_linear_526_185" x1="735.216" y1="666.928" x2="657.458" y2="447.155" gradientUnits="userSpaceOnUse">
<stop stop-color="#D12C80"/>
<stop offset="1" stop-color="#FF6672"/>
</linearGradient>
<linearGradient id="paint45_linear_526_185" x1="544.912" y1="473.221" x2="566.767" y2="445.28" gradientUnits="userSpaceOnUse">
<stop stop-color="#DE9F78"/>
<stop offset="1" stop-color="#ECCD84"/>
</linearGradient>
<linearGradient id="paint46_linear_526_185" x1="813.314" y1="642.644" x2="837.961" y2="642.644" gradientUnits="userSpaceOnUse">
<stop stop-color="#FF980C"/>
<stop offset="1" stop-color="#FFC63B"/>
</linearGradient>
<linearGradient id="paint47_linear_526_185" x1="823.27" y1="653.724" x2="861.723" y2="653.724" gradientUnits="userSpaceOnUse">
<stop stop-color="#7D22BE"/>
<stop offset="1" stop-color="#CF74F1"/>
</linearGradient>
<linearGradient id="paint48_linear_526_185" x1="697.067" y1="666.244" x2="867.938" y2="442.436" gradientUnits="userSpaceOnUse">
<stop stop-color="#7D22BE"/>
<stop offset="1" stop-color="#CF74F1"/>
</linearGradient>
<linearGradient id="paint49_linear_526_185" x1="615.034" y1="605.28" x2="791.838" y2="373.708" gradientUnits="userSpaceOnUse">
<stop stop-color="#7D22BE"/>
<stop offset="1" stop-color="#CF74F1"/>
</linearGradient>
</defs>
</svg>
