<svg width="1016" height="1382" viewBox="0 0 1016 1382" fill="none" xmlns="http://www.w3.org/2000/svg">
<g clip-path="url(#clip0_627_757)">
<rect width="1016" height="1382" fill="white"/>
<path d="M96.8828 174.49L251.994 84.9531L407.105 174.49V353.565L251.994 443.102L96.8828 353.565V174.49Z" fill="white"/>
<path d="M238.812 286.5C234.167 286.5 230.573 285.198 228.031 282.594C225.51 279.99 224.25 276.24 224.25 271.344V246.531C224.25 241.365 225.448 237.406 227.844 234.656C230.26 231.885 233.917 230.5 238.812 230.5C243.729 230.5 247.385 231.885 249.781 234.656C252.177 237.406 253.375 241.365 253.375 246.531V271.344C253.375 276.24 252.115 279.99 249.594 282.594C247.073 285.198 243.479 286.5 238.812 286.5ZM238.812 276.375C239.667 276.375 240.333 275.99 240.812 275.219C241.292 274.448 241.531 273.583 241.531 272.625V245.469C241.531 244.177 241.385 243.052 241.094 242.094C240.823 241.115 240.062 240.625 238.812 240.625C237.562 240.625 236.792 241.115 236.5 242.094C236.229 243.052 236.094 244.177 236.094 245.469V272.625C236.094 273.583 236.333 274.448 236.812 275.219C237.312 275.99 237.979 276.375 238.812 276.375ZM264.779 286V243.625C264.029 244.521 262.998 245.25 261.685 245.812C260.373 246.354 259.133 246.625 257.966 246.625V237.844C259.07 237.677 260.258 237.323 261.529 236.781C262.8 236.219 263.977 235.458 265.06 234.5C266.164 233.521 267.008 232.344 267.591 230.969H276.435V286H264.779Z" fill="#D6971E"/>
<path d="M96.8828 197.586C96.8828 183.295 104.508 170.089 116.886 162.944L231.997 96.4965C244.371 89.3533 259.617 89.3532 271.991 96.4964L387.103 162.944C399.48 170.089 407.105 183.295 407.105 197.586V330.468C407.105 344.76 399.48 357.966 387.103 365.111L271.991 431.558C259.617 438.702 244.371 438.702 231.997 431.558L116.886 365.111C104.508 357.966 96.8828 344.76 96.8828 330.468V197.586Z" stroke="#1EAD91" stroke-width="6" stroke-miterlimit="10"/>
<path d="M96.8828 461.357L251.994 371.82L407.105 461.357V640.432L251.994 729.969L96.8828 640.432V461.357Z" fill="white"/>
<path d="M237.812 578.5C233.167 578.5 229.573 577.198 227.031 574.594C224.51 571.99 223.25 568.24 223.25 563.344V538.531C223.25 533.365 224.448 529.406 226.844 526.656C229.26 523.885 232.917 522.5 237.812 522.5C242.729 522.5 246.385 523.885 248.781 526.656C251.177 529.406 252.375 533.365 252.375 538.531V563.344C252.375 568.24 251.115 571.99 248.594 574.594C246.073 577.198 242.479 578.5 237.812 578.5ZM237.812 568.375C238.667 568.375 239.333 567.99 239.812 567.219C240.292 566.448 240.531 565.583 240.531 564.625V537.469C240.531 536.177 240.385 535.052 240.094 534.094C239.823 533.115 239.062 532.625 237.812 532.625C236.562 532.625 235.792 533.115 235.5 534.094C235.229 535.052 235.094 536.177 235.094 537.469V564.625C235.094 565.583 235.333 566.448 235.812 567.219C236.312 567.99 236.979 568.375 237.812 568.375ZM258.123 578V575.375C258.123 572.646 258.539 570.198 259.373 568.031C260.227 565.844 261.32 563.823 262.654 561.969C263.987 560.094 265.393 558.26 266.873 556.469C268.31 554.719 269.675 552.927 270.966 551.094C272.279 549.24 273.341 547.24 274.154 545.094C274.987 542.927 275.404 540.5 275.404 537.812C275.404 536.521 275.206 535.417 274.81 534.5C274.435 533.562 273.643 533.094 272.435 533.094C270.602 533.094 269.685 534.729 269.685 538V544.719H258.123C258.102 544.24 258.07 543.698 258.029 543.094C258.008 542.49 257.998 541.906 257.998 541.344C257.998 537.385 258.414 534.031 259.248 531.281C260.081 528.51 261.55 526.406 263.654 524.969C265.779 523.51 268.758 522.781 272.591 522.781C277.154 522.781 280.695 524.062 283.216 526.625C285.758 529.188 287.029 532.844 287.029 537.594C287.029 540.823 286.612 543.656 285.779 546.094C284.945 548.51 283.841 550.719 282.466 552.719C281.091 554.698 279.581 556.677 277.935 558.656C276.768 560.052 275.633 561.479 274.529 562.938C273.445 564.396 272.487 565.958 271.654 567.625H286.654V578H258.123Z" fill="#D6971E"/>
<path d="M96.8828 484.454C96.8828 470.162 104.508 456.956 116.886 449.811L231.997 383.364C244.371 376.22 259.617 376.22 271.991 383.364L387.103 449.811C399.48 456.956 407.105 470.162 407.105 484.454V617.336C407.105 631.627 399.48 644.833 387.103 651.978L271.991 718.426C259.617 725.569 244.371 725.569 231.997 718.426L116.886 651.978C104.508 644.833 96.8828 631.627 96.8828 617.336V484.454Z" stroke="#E05B49" stroke-width="6" stroke-miterlimit="10"/>
<path d="M96.8828 753.404L251.994 663.867L407.105 753.404V932.479L251.994 1022.02L96.8828 932.479V753.404Z" fill="white"/>
<path d="M237.812 863.5C233.167 863.5 229.573 862.198 227.031 859.594C224.51 856.99 223.25 853.24 223.25 848.344V823.531C223.25 818.365 224.448 814.406 226.844 811.656C229.26 808.885 232.917 807.5 237.812 807.5C242.729 807.5 246.385 808.885 248.781 811.656C251.177 814.406 252.375 818.365 252.375 823.531V848.344C252.375 853.24 251.115 856.99 248.594 859.594C246.073 862.198 242.479 863.5 237.812 863.5ZM237.812 853.375C238.667 853.375 239.333 852.99 239.812 852.219C240.292 851.448 240.531 850.583 240.531 849.625V822.469C240.531 821.177 240.385 820.052 240.094 819.094C239.823 818.115 239.062 817.625 237.812 817.625C236.562 817.625 235.792 818.115 235.5 819.094C235.229 820.052 235.094 821.177 235.094 822.469V849.625C235.094 850.583 235.333 851.448 235.812 852.219C236.312 852.99 236.979 853.375 237.812 853.375ZM271.31 863.625C266.456 863.625 262.925 862.344 260.716 859.781C258.508 857.219 257.404 853.354 257.404 848.188V842.438H268.685V848.219C268.685 849.677 268.862 850.917 269.216 851.938C269.591 852.938 270.414 853.438 271.685 853.438C272.977 853.438 273.8 852.896 274.154 851.812C274.508 850.708 274.685 848.917 274.685 846.438V845.062C274.685 843.167 274.362 841.51 273.716 840.094C273.091 838.677 271.852 837.969 269.998 837.969C269.768 837.969 269.56 837.979 269.373 838C269.206 838 269.06 838.01 268.935 838.031V828.156C270.831 828.156 272.279 827.74 273.279 826.906C274.279 826.052 274.779 824.635 274.779 822.656C274.779 819.552 273.883 818 272.091 818C270.925 818 270.133 818.458 269.716 819.375C269.32 820.271 269.123 821.417 269.123 822.812V824.469H257.748C257.727 824.219 257.706 823.917 257.685 823.562C257.685 823.208 257.685 822.865 257.685 822.531C257.685 817.49 258.862 813.792 261.216 811.438C263.57 809.083 267.175 807.906 272.029 807.906C281.404 807.906 286.091 812.781 286.091 822.531C286.091 825.24 285.727 827.479 284.998 829.25C284.268 831 282.914 832.229 280.935 832.938C282.498 833.688 283.654 834.646 284.404 835.812C285.154 836.979 285.643 838.427 285.873 840.156C286.102 841.885 286.216 843.979 286.216 846.438C286.216 851.938 285.06 856.177 282.748 859.156C280.456 862.135 276.643 863.625 271.31 863.625Z" fill="#D6971E"/>
<path d="M96.8828 776.5C96.8828 762.209 104.508 749.003 116.886 741.858L231.997 675.411C244.371 668.267 259.617 668.267 271.991 675.411L387.103 741.858C399.48 749.003 407.105 762.209 407.105 776.5V909.383C407.105 923.674 399.48 936.88 387.103 944.025L271.991 1010.47C259.617 1017.62 244.371 1017.62 231.997 1010.47L116.886 944.025C104.508 936.88 96.8828 923.674 96.8828 909.383V776.5Z" stroke="#E37B3D" stroke-width="6" stroke-miterlimit="10"/>
<path d="M96.8828 1037.68L251.994 948.141L407.105 1037.68V1216.75L251.994 1306.29L96.8828 1216.75V1037.68Z" fill="white"/>
<path d="M236.812 1158.5C232.167 1158.5 228.573 1157.2 226.031 1154.59C223.51 1151.99 222.25 1148.24 222.25 1143.34V1118.53C222.25 1113.36 223.448 1109.41 225.844 1106.66C228.26 1103.89 231.917 1102.5 236.812 1102.5C241.729 1102.5 245.385 1103.89 247.781 1106.66C250.177 1109.41 251.375 1113.36 251.375 1118.53V1143.34C251.375 1148.24 250.115 1151.99 247.594 1154.59C245.073 1157.2 241.479 1158.5 236.812 1158.5ZM236.812 1148.38C237.667 1148.38 238.333 1147.99 238.812 1147.22C239.292 1146.45 239.531 1145.58 239.531 1144.62V1117.47C239.531 1116.18 239.385 1115.05 239.094 1114.09C238.823 1113.11 238.062 1112.62 236.812 1112.62C235.562 1112.62 234.792 1113.11 234.5 1114.09C234.229 1115.05 234.094 1116.18 234.094 1117.47V1144.62C234.094 1145.58 234.333 1146.45 234.812 1147.22C235.312 1147.99 235.979 1148.38 236.812 1148.38ZM272.06 1158.03V1149.31H255.748V1140.72L266.154 1102.97H283.279V1140.12H286.216V1149.31H283.279V1158.03H272.06ZM265.56 1140.12H272.06V1112.41L265.56 1140.12Z" fill="#D6971E"/>
<path d="M96.8828 1060.77C96.8828 1046.48 104.508 1033.28 116.886 1026.13L231.997 959.684C244.371 952.541 259.617 952.541 271.991 959.684L387.103 1026.13C399.48 1033.28 407.105 1046.48 407.105 1060.77V1193.66C407.105 1207.95 399.48 1221.15 387.103 1228.3L271.991 1294.75C259.617 1301.89 244.371 1301.89 231.997 1294.75L116.886 1228.3C104.508 1221.15 96.8828 1207.95 96.8828 1193.66V1060.77Z" stroke="#195146" stroke-width="6" stroke-miterlimit="10"/>
<g filter="url(#filter0_d_627_757)">
<path d="M337 258.343C337.031 275.465 332.009 292.21 322.571 306.459C313.133 320.708 299.704 331.819 283.983 338.386C268.262 344.952 250.957 346.678 234.26 343.346C217.564 340.013 202.226 331.771 190.189 319.665C178.152 307.558 169.958 292.131 166.645 275.337C163.332 258.543 165.048 241.138 171.576 225.325C178.105 209.513 189.152 196.005 203.318 186.513C217.485 177.02 234.134 171.969 251.156 172C273.911 172.042 295.721 181.152 311.811 197.335C327.901 213.519 336.959 235.456 337 258.343Z" stroke="#FAAF20" stroke-width="4" stroke-miterlimit="10" shape-rendering="crispEdges"/>
</g>
<g filter="url(#filter1_d_627_757)">
<path d="M334 551C334 567.423 329.158 583.476 320.085 597.129C311.013 610.781 298.119 621.42 283.035 627.697C267.951 633.974 251.355 635.609 235.348 632.394C219.34 629.178 204.64 621.258 193.108 609.634C181.577 598.011 173.732 583.207 170.566 567.096C167.401 550.985 169.057 534.292 175.325 519.128C181.593 503.965 192.192 491.013 205.779 481.912C219.367 472.811 235.333 467.969 251.656 468C273.51 468.042 294.454 476.805 309.892 492.366C325.33 507.927 334 529.014 334 551Z" stroke="#FAAF20" stroke-width="4" stroke-miterlimit="10" shape-rendering="crispEdges"/>
</g>
<g filter="url(#filter2_d_627_757)">
<path d="M252.5 915C296.959 915 333 879.183 333 835C333 790.817 296.959 755 252.5 755C208.041 755 172 790.817 172 835C172 879.183 208.041 915 252.5 915Z" stroke="#FAAF20" stroke-width="4" stroke-miterlimit="10" shape-rendering="crispEdges"/>
</g>
<g filter="url(#filter3_d_627_757)">
<path d="M339 1130C339 1147.21 333.893 1164.04 324.327 1178.35C314.76 1192.66 301.164 1203.81 285.257 1210.39C269.351 1216.97 251.85 1218.69 234.97 1215.32C218.089 1211.95 202.587 1203.65 190.426 1191.46C178.266 1179.28 169.992 1163.76 166.653 1146.88C163.313 1129.99 165.059 1112.49 171.667 1096.6C178.276 1080.7 189.451 1067.13 203.779 1057.59C218.107 1048.05 234.943 1042.97 252.156 1043C263.574 1043 274.879 1045.25 285.426 1049.63C295.972 1054 305.553 1060.41 313.619 1068.49C321.685 1076.57 328.079 1086.16 332.434 1096.72C336.789 1107.27 339.02 1118.58 339 1130Z" stroke="#FAAF20" stroke-width="4" stroke-miterlimit="10" shape-rendering="crispEdges"/>
</g>
<path d="M501.531 260.113H508.855C508.621 262.906 507.84 265.396 506.512 267.584C505.184 269.752 503.318 271.461 500.916 272.711C498.514 273.961 495.594 274.586 492.156 274.586C489.52 274.586 487.146 274.117 485.037 273.18C482.928 272.223 481.121 270.875 479.617 269.137C478.113 267.379 476.961 265.26 476.16 262.779C475.379 260.299 474.988 257.525 474.988 254.459V250.914C474.988 247.848 475.389 245.074 476.189 242.594C477.01 240.113 478.182 237.994 479.705 236.236C481.229 234.459 483.055 233.102 485.184 232.164C487.332 231.227 489.744 230.758 492.42 230.758C495.818 230.758 498.689 231.383 501.033 232.633C503.377 233.883 505.193 235.611 506.482 237.818C507.791 240.025 508.592 242.555 508.885 245.406H501.561C501.365 243.57 500.936 241.998 500.271 240.689C499.627 239.381 498.67 238.385 497.4 237.701C496.131 236.998 494.471 236.646 492.42 236.646C490.74 236.646 489.275 236.959 488.025 237.584C486.775 238.209 485.73 239.127 484.891 240.338C484.051 241.549 483.416 243.043 482.986 244.82C482.576 246.578 482.371 248.59 482.371 250.855V254.459C482.371 256.607 482.557 258.561 482.928 260.318C483.318 262.057 483.904 263.551 484.686 264.801C485.486 266.051 486.502 267.018 487.732 267.701C488.963 268.385 490.438 268.727 492.156 268.727C494.246 268.727 495.936 268.395 497.225 267.73C498.533 267.066 499.52 266.1 500.184 264.83C500.867 263.541 501.316 261.969 501.531 260.113ZM513.484 258.502V257.828C513.484 255.543 513.816 253.424 514.48 251.471C515.145 249.498 516.102 247.789 517.352 246.344C518.621 244.879 520.164 243.746 521.98 242.945C523.816 242.125 525.887 241.715 528.191 241.715C530.516 241.715 532.586 242.125 534.402 242.945C536.238 243.746 537.791 244.879 539.061 246.344C540.33 247.789 541.297 249.498 541.961 251.471C542.625 253.424 542.957 255.543 542.957 257.828V258.502C542.957 260.787 542.625 262.906 541.961 264.859C541.297 266.812 540.33 268.521 539.061 269.986C537.791 271.432 536.248 272.564 534.432 273.385C532.615 274.186 530.555 274.586 528.25 274.586C525.926 274.586 523.846 274.186 522.01 273.385C520.193 272.564 518.65 271.432 517.381 269.986C516.111 268.521 515.145 266.812 514.48 264.859C513.816 262.906 513.484 260.787 513.484 258.502ZM520.545 257.828V258.502C520.545 259.928 520.691 261.275 520.984 262.545C521.277 263.814 521.736 264.928 522.361 265.885C522.986 266.842 523.787 267.594 524.764 268.141C525.74 268.688 526.902 268.961 528.25 268.961C529.559 268.961 530.691 268.688 531.648 268.141C532.625 267.594 533.426 266.842 534.051 265.885C534.676 264.928 535.135 263.814 535.428 262.545C535.74 261.275 535.896 259.928 535.896 258.502V257.828C535.896 256.422 535.74 255.094 535.428 253.844C535.135 252.574 534.666 251.451 534.021 250.475C533.396 249.498 532.596 248.736 531.619 248.189C530.662 247.623 529.52 247.34 528.191 247.34C526.863 247.34 525.711 247.623 524.734 248.189C523.777 248.736 522.986 249.498 522.361 250.475C521.736 251.451 521.277 252.574 520.984 253.844C520.691 255.094 520.545 256.422 520.545 257.828ZM555.965 248.336V274H548.904V242.301H555.643L555.965 248.336ZM565.662 242.096L565.604 248.658C565.174 248.58 564.705 248.521 564.197 248.482C563.709 248.443 563.221 248.424 562.732 248.424C561.521 248.424 560.457 248.6 559.539 248.951C558.621 249.283 557.85 249.771 557.225 250.416C556.619 251.041 556.15 251.803 555.818 252.701C555.486 253.6 555.291 254.605 555.232 255.719L553.621 255.836C553.621 253.844 553.816 251.998 554.207 250.299C554.598 248.6 555.184 247.105 555.965 245.816C556.766 244.527 557.762 243.521 558.953 242.799C560.164 242.076 561.561 241.715 563.143 241.715C563.572 241.715 564.031 241.754 564.52 241.832C565.027 241.91 565.408 241.998 565.662 242.096ZM577.176 248.395V286.188H570.115V242.301H576.619L577.176 248.395ZM597.83 257.857V258.473C597.83 260.777 597.557 262.916 597.01 264.889C596.482 266.842 595.691 268.551 594.637 270.016C593.602 271.461 592.322 272.584 590.799 273.385C589.275 274.186 587.518 274.586 585.525 274.586C583.553 274.586 581.824 274.225 580.34 273.502C578.875 272.76 577.635 271.715 576.619 270.367C575.604 269.02 574.783 267.438 574.158 265.621C573.553 263.785 573.123 261.773 572.869 259.586V257.213C573.123 254.889 573.553 252.779 574.158 250.885C574.783 248.99 575.604 247.359 576.619 245.992C577.635 244.625 578.875 243.57 580.34 242.828C581.805 242.086 583.514 241.715 585.467 241.715C587.459 241.715 589.227 242.105 590.77 242.887C592.312 243.648 593.611 244.742 594.666 246.168C595.721 247.574 596.512 249.273 597.039 251.266C597.566 253.238 597.83 255.436 597.83 257.857ZM590.77 258.473V257.857C590.77 256.393 590.633 255.035 590.359 253.785C590.086 252.516 589.656 251.402 589.07 250.445C588.484 249.488 587.732 248.746 586.814 248.219C585.916 247.672 584.832 247.398 583.562 247.398C582.312 247.398 581.238 247.613 580.34 248.043C579.441 248.453 578.689 249.029 578.084 249.771C577.479 250.514 577.01 251.383 576.678 252.379C576.346 253.355 576.111 254.42 575.975 255.572V261.256C576.209 262.662 576.609 263.951 577.176 265.123C577.742 266.295 578.543 267.232 579.578 267.936C580.633 268.619 581.98 268.961 583.621 268.961C584.891 268.961 585.975 268.688 586.873 268.141C587.771 267.594 588.504 266.842 589.07 265.885C589.656 264.908 590.086 263.785 590.359 262.516C590.633 261.246 590.77 259.898 590.77 258.473ZM602.488 258.502V257.828C602.488 255.543 602.82 253.424 603.484 251.471C604.148 249.498 605.105 247.789 606.355 246.344C607.625 244.879 609.168 243.746 610.984 242.945C612.82 242.125 614.891 241.715 617.195 241.715C619.52 241.715 621.59 242.125 623.406 242.945C625.242 243.746 626.795 244.879 628.064 246.344C629.334 247.789 630.301 249.498 630.965 251.471C631.629 253.424 631.961 255.543 631.961 257.828V258.502C631.961 260.787 631.629 262.906 630.965 264.859C630.301 266.812 629.334 268.521 628.064 269.986C626.795 271.432 625.252 272.564 623.436 273.385C621.619 274.186 619.559 274.586 617.254 274.586C614.93 274.586 612.85 274.186 611.014 273.385C609.197 272.564 607.654 271.432 606.385 269.986C605.115 268.521 604.148 266.812 603.484 264.859C602.82 262.906 602.488 260.787 602.488 258.502ZM609.549 257.828V258.502C609.549 259.928 609.695 261.275 609.988 262.545C610.281 263.814 610.74 264.928 611.365 265.885C611.99 266.842 612.791 267.594 613.768 268.141C614.744 268.688 615.906 268.961 617.254 268.961C618.562 268.961 619.695 268.688 620.652 268.141C621.629 267.594 622.43 266.842 623.055 265.885C623.68 264.928 624.139 263.814 624.432 262.545C624.744 261.275 624.9 259.928 624.9 258.502V257.828C624.9 256.422 624.744 255.094 624.432 253.844C624.139 252.574 623.67 251.451 623.025 250.475C622.4 249.498 621.6 248.736 620.623 248.189C619.666 247.623 618.523 247.34 617.195 247.34C615.867 247.34 614.715 247.623 613.738 248.189C612.781 248.736 611.99 249.498 611.365 250.475C610.74 251.451 610.281 252.574 609.988 253.844C609.695 255.094 609.549 256.422 609.549 257.828ZM644.969 248.336V274H637.908V242.301H644.646L644.969 248.336ZM654.666 242.096L654.607 248.658C654.178 248.58 653.709 248.521 653.201 248.482C652.713 248.443 652.225 248.424 651.736 248.424C650.525 248.424 649.461 248.6 648.543 248.951C647.625 249.283 646.854 249.771 646.229 250.416C645.623 251.041 645.154 251.803 644.822 252.701C644.49 253.6 644.295 254.605 644.236 255.719L642.625 255.836C642.625 253.844 642.82 251.998 643.211 250.299C643.602 248.6 644.188 247.105 644.969 245.816C645.77 244.527 646.766 243.521 647.957 242.799C649.168 242.076 650.564 241.715 652.146 241.715C652.576 241.715 653.035 241.754 653.523 241.832C654.031 241.91 654.412 241.998 654.666 242.096ZM675.906 267.643V252.525C675.906 251.393 675.701 250.416 675.291 249.596C674.881 248.775 674.256 248.141 673.416 247.691C672.596 247.242 671.561 247.018 670.311 247.018C669.158 247.018 668.162 247.213 667.322 247.604C666.482 247.994 665.828 248.521 665.359 249.186C664.891 249.85 664.656 250.602 664.656 251.441H657.625C657.625 250.191 657.928 248.98 658.533 247.809C659.139 246.637 660.018 245.592 661.17 244.674C662.322 243.756 663.699 243.033 665.301 242.506C666.902 241.979 668.699 241.715 670.691 241.715C673.074 241.715 675.184 242.115 677.02 242.916C678.875 243.717 680.33 244.928 681.385 246.549C682.459 248.15 682.996 250.162 682.996 252.584V266.676C682.996 268.121 683.094 269.42 683.289 270.572C683.504 271.705 683.807 272.691 684.197 273.531V274H676.961C676.629 273.238 676.365 272.271 676.17 271.1C675.994 269.908 675.906 268.756 675.906 267.643ZM676.932 254.723L676.99 259.088H671.922C670.613 259.088 669.461 259.215 668.465 259.469C667.469 259.703 666.639 260.055 665.975 260.523C665.311 260.992 664.812 261.559 664.48 262.223C664.148 262.887 663.982 263.639 663.982 264.479C663.982 265.318 664.178 266.09 664.568 266.793C664.959 267.477 665.525 268.014 666.268 268.404C667.029 268.795 667.947 268.99 669.021 268.99C670.467 268.99 671.727 268.697 672.801 268.111C673.895 267.506 674.754 266.773 675.379 265.914C676.004 265.035 676.336 264.205 676.375 263.424L678.66 266.559C678.426 267.359 678.025 268.219 677.459 269.137C676.893 270.055 676.15 270.934 675.232 271.773C674.334 272.594 673.25 273.268 671.98 273.795C670.73 274.322 669.285 274.586 667.645 274.586C665.574 274.586 663.729 274.176 662.107 273.355C660.486 272.516 659.217 271.393 658.299 269.986C657.381 268.561 656.922 266.949 656.922 265.152C656.922 263.473 657.234 261.988 657.859 260.699C658.504 259.391 659.441 258.297 660.672 257.418C661.922 256.539 663.445 255.875 665.242 255.426C667.039 254.957 669.09 254.723 671.395 254.723H676.932ZM704.91 242.301V247.457H687.039V242.301H704.91ZM692.195 234.537H699.256V265.24C699.256 266.217 699.393 266.969 699.666 267.496C699.959 268.004 700.359 268.346 700.867 268.521C701.375 268.697 701.971 268.785 702.654 268.785C703.143 268.785 703.611 268.756 704.061 268.697C704.51 268.639 704.871 268.58 705.145 268.521L705.174 273.912C704.588 274.088 703.904 274.244 703.123 274.381C702.361 274.518 701.482 274.586 700.486 274.586C698.865 274.586 697.43 274.303 696.18 273.736C694.93 273.15 693.953 272.203 693.25 270.895C692.547 269.586 692.195 267.848 692.195 265.68V234.537ZM717.918 242.301V274H710.828V242.301H717.918ZM710.359 233.98C710.359 232.906 710.711 232.018 711.414 231.314C712.137 230.592 713.133 230.23 714.402 230.23C715.652 230.23 716.639 230.592 717.361 231.314C718.084 232.018 718.445 232.906 718.445 233.98C718.445 235.035 718.084 235.914 717.361 236.617C716.639 237.32 715.652 237.672 714.402 237.672C713.133 237.672 712.137 237.32 711.414 236.617C710.711 235.914 710.359 235.035 710.359 233.98ZM724.305 258.502V257.828C724.305 255.543 724.637 253.424 725.301 251.471C725.965 249.498 726.922 247.789 728.172 246.344C729.441 244.879 730.984 243.746 732.801 242.945C734.637 242.125 736.707 241.715 739.012 241.715C741.336 241.715 743.406 242.125 745.223 242.945C747.059 243.746 748.611 244.879 749.881 246.344C751.15 247.789 752.117 249.498 752.781 251.471C753.445 253.424 753.777 255.543 753.777 257.828V258.502C753.777 260.787 753.445 262.906 752.781 264.859C752.117 266.812 751.15 268.521 749.881 269.986C748.611 271.432 747.068 272.564 745.252 273.385C743.436 274.186 741.375 274.586 739.07 274.586C736.746 274.586 734.666 274.186 732.83 273.385C731.014 272.564 729.471 271.432 728.201 269.986C726.932 268.521 725.965 266.812 725.301 264.859C724.637 262.906 724.305 260.787 724.305 258.502ZM731.365 257.828V258.502C731.365 259.928 731.512 261.275 731.805 262.545C732.098 263.814 732.557 264.928 733.182 265.885C733.807 266.842 734.607 267.594 735.584 268.141C736.561 268.688 737.723 268.961 739.07 268.961C740.379 268.961 741.512 268.688 742.469 268.141C743.445 267.594 744.246 266.842 744.871 265.885C745.496 264.928 745.955 263.814 746.248 262.545C746.561 261.275 746.717 259.928 746.717 258.502V257.828C746.717 256.422 746.561 255.094 746.248 253.844C745.955 252.574 745.486 251.451 744.842 250.475C744.217 249.498 743.416 248.736 742.439 248.189C741.482 247.623 740.34 247.34 739.012 247.34C737.684 247.34 736.531 247.623 735.555 248.189C734.598 248.736 733.807 249.498 733.182 250.475C732.557 251.451 732.098 252.574 731.805 253.844C731.512 255.094 731.365 256.422 731.365 257.828ZM766.697 249.068V274H759.637V242.301H766.287L766.697 249.068ZM765.438 256.979L763.152 256.949C763.172 254.703 763.484 252.643 764.09 250.768C764.715 248.893 765.574 247.281 766.668 245.934C767.781 244.586 769.109 243.551 770.652 242.828C772.195 242.086 773.914 241.715 775.809 241.715C777.332 241.715 778.709 241.93 779.939 242.359C781.189 242.77 782.254 243.443 783.133 244.381C784.031 245.318 784.715 246.539 785.184 248.043C785.652 249.527 785.887 251.354 785.887 253.521V274H778.797V253.492C778.797 251.969 778.572 250.768 778.123 249.889C777.693 248.99 777.059 248.355 776.219 247.984C775.398 247.594 774.373 247.398 773.143 247.398C771.932 247.398 770.848 247.652 769.891 248.16C768.934 248.668 768.123 249.361 767.459 250.24C766.814 251.119 766.316 252.135 765.965 253.287C765.613 254.439 765.438 255.67 765.438 256.979ZM824.881 231.344V274H817.586V231.344H824.881ZM838.27 231.344V237.203H804.314V231.344H838.27ZM857.137 267.643V252.525C857.137 251.393 856.932 250.416 856.521 249.596C856.111 248.775 855.486 248.141 854.646 247.691C853.826 247.242 852.791 247.018 851.541 247.018C850.389 247.018 849.393 247.213 848.553 247.604C847.713 247.994 847.059 248.521 846.59 249.186C846.121 249.85 845.887 250.602 845.887 251.441H838.855C838.855 250.191 839.158 248.98 839.764 247.809C840.369 246.637 841.248 245.592 842.4 244.674C843.553 243.756 844.93 243.033 846.531 242.506C848.133 241.979 849.93 241.715 851.922 241.715C854.305 241.715 856.414 242.115 858.25 242.916C860.105 243.717 861.561 244.928 862.615 246.549C863.689 248.15 864.227 250.162 864.227 252.584V266.676C864.227 268.121 864.324 269.42 864.52 270.572C864.734 271.705 865.037 272.691 865.428 273.531V274H858.191C857.859 273.238 857.596 272.271 857.4 271.1C857.225 269.908 857.137 268.756 857.137 267.643ZM858.162 254.723L858.221 259.088H853.152C851.844 259.088 850.691 259.215 849.695 259.469C848.699 259.703 847.869 260.055 847.205 260.523C846.541 260.992 846.043 261.559 845.711 262.223C845.379 262.887 845.213 263.639 845.213 264.479C845.213 265.318 845.408 266.09 845.799 266.793C846.189 267.477 846.756 268.014 847.498 268.404C848.26 268.795 849.178 268.99 850.252 268.99C851.697 268.99 852.957 268.697 854.031 268.111C855.125 267.506 855.984 266.773 856.609 265.914C857.234 265.035 857.566 264.205 857.605 263.424L859.891 266.559C859.656 267.359 859.256 268.219 858.689 269.137C858.123 270.055 857.381 270.934 856.463 271.773C855.564 272.594 854.48 273.268 853.211 273.795C851.961 274.322 850.516 274.586 848.875 274.586C846.805 274.586 844.959 274.176 843.338 273.355C841.717 272.516 840.447 271.393 839.529 269.986C838.611 268.561 838.152 266.949 838.152 265.152C838.152 263.473 838.465 261.988 839.09 260.699C839.734 259.391 840.672 258.297 841.902 257.418C843.152 256.539 844.676 255.875 846.473 255.426C848.27 254.957 850.32 254.723 852.625 254.723H858.162ZM877 242.301L883.035 252.818L889.188 242.301H896.951L887.342 257.857L897.332 274H889.568L883.123 263.043L876.678 274H868.885L878.846 257.857L869.266 242.301H877Z" fill="#1C4670"/>
<path d="M490.955 545.207L502.176 510.344H510.291L494.998 553H489.52L490.955 545.207ZM480.584 510.344L491.717 545.207L493.24 553H487.732L472.498 510.344H480.584ZM530.887 546.643V531.525C530.887 530.393 530.682 529.416 530.271 528.596C529.861 527.775 529.236 527.141 528.396 526.691C527.576 526.242 526.541 526.018 525.291 526.018C524.139 526.018 523.143 526.213 522.303 526.604C521.463 526.994 520.809 527.521 520.34 528.186C519.871 528.85 519.637 529.602 519.637 530.441H512.605C512.605 529.191 512.908 527.98 513.514 526.809C514.119 525.637 514.998 524.592 516.15 523.674C517.303 522.756 518.68 522.033 520.281 521.506C521.883 520.979 523.68 520.715 525.672 520.715C528.055 520.715 530.164 521.115 532 521.916C533.855 522.717 535.311 523.928 536.365 525.549C537.439 527.15 537.977 529.162 537.977 531.584V545.676C537.977 547.121 538.074 548.42 538.27 549.572C538.484 550.705 538.787 551.691 539.178 552.531V553H531.941C531.609 552.238 531.346 551.271 531.15 550.1C530.975 548.908 530.887 547.756 530.887 546.643ZM531.912 533.723L531.971 538.088H526.902C525.594 538.088 524.441 538.215 523.445 538.469C522.449 538.703 521.619 539.055 520.955 539.523C520.291 539.992 519.793 540.559 519.461 541.223C519.129 541.887 518.963 542.639 518.963 543.479C518.963 544.318 519.158 545.09 519.549 545.793C519.939 546.477 520.506 547.014 521.248 547.404C522.01 547.795 522.928 547.99 524.002 547.99C525.447 547.99 526.707 547.697 527.781 547.111C528.875 546.506 529.734 545.773 530.359 544.914C530.984 544.035 531.316 543.205 531.355 542.424L533.641 545.559C533.406 546.359 533.006 547.219 532.439 548.137C531.873 549.055 531.131 549.934 530.213 550.773C529.314 551.594 528.23 552.268 526.961 552.795C525.711 553.322 524.266 553.586 522.625 553.586C520.555 553.586 518.709 553.176 517.088 552.355C515.467 551.516 514.197 550.393 513.279 548.986C512.361 547.561 511.902 545.949 511.902 544.152C511.902 542.473 512.215 540.988 512.84 539.699C513.484 538.391 514.422 537.297 515.652 536.418C516.902 535.539 518.426 534.875 520.223 534.426C522.02 533.957 524.07 533.723 526.375 533.723H531.912ZM552.918 508V553H545.828V508H552.918ZM579.725 545.529V521.301H586.814V553H580.135L579.725 545.529ZM580.721 538.938L583.094 538.879C583.094 541.008 582.859 542.971 582.391 544.768C581.922 546.545 581.199 548.098 580.223 549.426C579.246 550.734 577.996 551.76 576.473 552.502C574.949 553.225 573.123 553.586 570.994 553.586C569.451 553.586 568.035 553.361 566.746 552.912C565.457 552.463 564.344 551.77 563.406 550.832C562.488 549.895 561.775 548.674 561.268 547.17C560.76 545.666 560.506 543.869 560.506 541.779V521.301H567.566V541.838C567.566 542.99 567.703 543.957 567.977 544.738C568.25 545.5 568.621 546.115 569.09 546.584C569.559 547.053 570.105 547.385 570.73 547.58C571.355 547.775 572.02 547.873 572.723 547.873C574.734 547.873 576.316 547.482 577.469 546.701C578.641 545.9 579.471 544.826 579.959 543.479C580.467 542.131 580.721 540.617 580.721 538.938ZM608.025 553.586C605.682 553.586 603.562 553.205 601.668 552.443C599.793 551.662 598.191 550.578 596.863 549.191C595.555 547.805 594.549 546.174 593.846 544.299C593.143 542.424 592.791 540.402 592.791 538.234V537.062C592.791 534.582 593.152 532.336 593.875 530.324C594.598 528.312 595.604 526.594 596.893 525.168C598.182 523.723 599.705 522.619 601.463 521.857C603.221 521.096 605.125 520.715 607.176 520.715C609.441 520.715 611.424 521.096 613.123 521.857C614.822 522.619 616.229 523.693 617.342 525.08C618.475 526.447 619.314 528.078 619.861 529.973C620.428 531.867 620.711 533.957 620.711 536.242V539.26H596.219V534.191H613.738V533.635C613.699 532.365 613.445 531.174 612.977 530.061C612.527 528.947 611.834 528.049 610.896 527.365C609.959 526.682 608.709 526.34 607.146 526.34C605.975 526.34 604.93 526.594 604.012 527.102C603.113 527.59 602.361 528.303 601.756 529.24C601.15 530.178 600.682 531.311 600.35 532.639C600.037 533.947 599.881 535.422 599.881 537.062V538.234C599.881 539.621 600.066 540.91 600.438 542.102C600.828 543.273 601.395 544.299 602.137 545.178C602.879 546.057 603.777 546.75 604.832 547.258C605.887 547.746 607.088 547.99 608.436 547.99C610.135 547.99 611.648 547.648 612.977 546.965C614.305 546.281 615.457 545.314 616.434 544.064L620.154 547.668C619.471 548.664 618.582 549.621 617.488 550.539C616.395 551.438 615.057 552.17 613.475 552.736C611.912 553.303 610.096 553.586 608.025 553.586ZM658.475 516.027L645.73 553H638.025L654.08 510.344H659.002L658.475 516.027ZM669.139 553L656.365 516.027L655.809 510.344H660.76L676.873 553H669.139ZM668.523 537.18V543.01H645.32V537.18H668.523ZM700.281 546.438V508H707.371V553H700.955L700.281 546.438ZM679.656 537.502V536.887C679.656 534.484 679.939 532.297 680.506 530.324C681.072 528.332 681.893 526.623 682.967 525.197C684.041 523.752 685.35 522.648 686.893 521.887C688.436 521.105 690.174 520.715 692.107 520.715C694.021 520.715 695.701 521.086 697.146 521.828C698.592 522.57 699.822 523.635 700.838 525.021C701.854 526.389 702.664 528.029 703.27 529.943C703.875 531.838 704.305 533.947 704.559 536.271V538.234C704.305 540.5 703.875 542.57 703.27 544.445C702.664 546.32 701.854 547.941 700.838 549.309C699.822 550.676 698.582 551.73 697.117 552.473C695.672 553.215 693.982 553.586 692.049 553.586C690.135 553.586 688.406 553.186 686.863 552.385C685.34 551.584 684.041 550.461 682.967 549.016C681.893 547.57 681.072 545.871 680.506 543.918C679.939 541.945 679.656 539.807 679.656 537.502ZM686.717 536.887V537.502C686.717 538.947 686.844 540.295 687.098 541.545C687.371 542.795 687.791 543.898 688.357 544.855C688.924 545.793 689.656 546.535 690.555 547.082C691.473 547.609 692.566 547.873 693.836 547.873C695.438 547.873 696.756 547.521 697.791 546.818C698.826 546.115 699.637 545.168 700.223 543.977C700.828 542.766 701.238 541.418 701.453 539.934V534.631C701.336 533.479 701.092 532.404 700.721 531.408C700.369 530.412 699.891 529.543 699.285 528.801C698.68 528.039 697.928 527.453 697.029 527.043C696.15 526.613 695.105 526.398 693.895 526.398C692.605 526.398 691.512 526.672 690.613 527.219C689.715 527.766 688.973 528.518 688.387 529.475C687.82 530.432 687.4 531.545 687.127 532.814C686.854 534.084 686.717 535.441 686.717 536.887ZM734.09 546.438V508H741.18V553H734.764L734.09 546.438ZM713.465 537.502V536.887C713.465 534.484 713.748 532.297 714.314 530.324C714.881 528.332 715.701 526.623 716.775 525.197C717.85 523.752 719.158 522.648 720.701 521.887C722.244 521.105 723.982 520.715 725.916 520.715C727.83 520.715 729.51 521.086 730.955 521.828C732.4 522.57 733.631 523.635 734.646 525.021C735.662 526.389 736.473 528.029 737.078 529.943C737.684 531.838 738.113 533.947 738.367 536.271V538.234C738.113 540.5 737.684 542.57 737.078 544.445C736.473 546.32 735.662 547.941 734.646 549.309C733.631 550.676 732.391 551.73 730.926 552.473C729.48 553.215 727.791 553.586 725.857 553.586C723.943 553.586 722.215 553.186 720.672 552.385C719.148 551.584 717.85 550.461 716.775 549.016C715.701 547.57 714.881 545.871 714.314 543.918C713.748 541.945 713.465 539.807 713.465 537.502ZM720.525 536.887V537.502C720.525 538.947 720.652 540.295 720.906 541.545C721.18 542.795 721.6 543.898 722.166 544.855C722.732 545.793 723.465 546.535 724.363 547.082C725.281 547.609 726.375 547.873 727.645 547.873C729.246 547.873 730.564 547.521 731.6 546.818C732.635 546.115 733.445 545.168 734.031 543.977C734.637 542.766 735.047 541.418 735.262 539.934V534.631C735.145 533.479 734.9 532.404 734.529 531.408C734.178 530.412 733.699 529.543 733.094 528.801C732.488 528.039 731.736 527.453 730.838 527.043C729.959 526.613 728.914 526.398 727.703 526.398C726.414 526.398 725.32 526.672 724.422 527.219C723.523 527.766 722.781 528.518 722.195 529.475C721.629 530.432 721.209 531.545 720.936 532.814C720.662 534.084 720.525 535.441 720.525 536.887ZM762.537 553.586C760.193 553.586 758.074 553.205 756.18 552.443C754.305 551.662 752.703 550.578 751.375 549.191C750.066 547.805 749.061 546.174 748.357 544.299C747.654 542.424 747.303 540.402 747.303 538.234V537.062C747.303 534.582 747.664 532.336 748.387 530.324C749.109 528.312 750.115 526.594 751.404 525.168C752.693 523.723 754.217 522.619 755.975 521.857C757.732 521.096 759.637 520.715 761.688 520.715C763.953 520.715 765.936 521.096 767.635 521.857C769.334 522.619 770.74 523.693 771.854 525.08C772.986 526.447 773.826 528.078 774.373 529.973C774.939 531.867 775.223 533.957 775.223 536.242V539.26H750.73V534.191H768.25V533.635C768.211 532.365 767.957 531.174 767.488 530.061C767.039 528.947 766.346 528.049 765.408 527.365C764.471 526.682 763.221 526.34 761.658 526.34C760.486 526.34 759.441 526.594 758.523 527.102C757.625 527.59 756.873 528.303 756.268 529.24C755.662 530.178 755.193 531.311 754.861 532.639C754.549 533.947 754.393 535.422 754.393 537.062V538.234C754.393 539.621 754.578 540.91 754.949 542.102C755.34 543.273 755.906 544.299 756.648 545.178C757.391 546.057 758.289 546.75 759.344 547.258C760.398 547.746 761.6 547.99 762.947 547.99C764.646 547.99 766.16 547.648 767.488 546.965C768.816 546.281 769.969 545.314 770.945 544.064L774.666 547.668C773.982 548.664 773.094 549.621 772 550.539C770.906 551.438 769.568 552.17 767.986 552.736C766.424 553.303 764.607 553.586 762.537 553.586ZM800.066 546.438V508H807.156V553H800.74L800.066 546.438ZM779.441 537.502V536.887C779.441 534.484 779.725 532.297 780.291 530.324C780.857 528.332 781.678 526.623 782.752 525.197C783.826 523.752 785.135 522.648 786.678 521.887C788.221 521.105 789.959 520.715 791.893 520.715C793.807 520.715 795.486 521.086 796.932 521.828C798.377 522.57 799.607 523.635 800.623 525.021C801.639 526.389 802.449 528.029 803.055 529.943C803.66 531.838 804.09 533.947 804.344 536.271V538.234C804.09 540.5 803.66 542.57 803.055 544.445C802.449 546.32 801.639 547.941 800.623 549.309C799.607 550.676 798.367 551.73 796.902 552.473C795.457 553.215 793.768 553.586 791.834 553.586C789.92 553.586 788.191 553.186 786.648 552.385C785.125 551.584 783.826 550.461 782.752 549.016C781.678 547.57 780.857 545.871 780.291 543.918C779.725 541.945 779.441 539.807 779.441 537.502ZM786.502 536.887V537.502C786.502 538.947 786.629 540.295 786.883 541.545C787.156 542.795 787.576 543.898 788.143 544.855C788.709 545.793 789.441 546.535 790.34 547.082C791.258 547.609 792.352 547.873 793.621 547.873C795.223 547.873 796.541 547.521 797.576 546.818C798.611 546.115 799.422 545.168 800.008 543.977C800.613 542.766 801.023 541.418 801.238 539.934V534.631C801.121 533.479 800.877 532.404 800.506 531.408C800.154 530.412 799.676 529.543 799.07 528.801C798.465 528.039 797.713 527.453 796.814 527.043C795.936 526.613 794.891 526.398 793.68 526.398C792.391 526.398 791.297 526.672 790.398 527.219C789.5 527.766 788.758 528.518 788.172 529.475C787.605 530.432 787.186 531.545 786.912 532.814C786.639 534.084 786.502 535.441 786.502 536.887ZM846.326 510.344V553H839.031V510.344H846.326ZM859.715 510.344V516.203H825.76V510.344H859.715ZM878.582 546.643V531.525C878.582 530.393 878.377 529.416 877.967 528.596C877.557 527.775 876.932 527.141 876.092 526.691C875.271 526.242 874.236 526.018 872.986 526.018C871.834 526.018 870.838 526.213 869.998 526.604C869.158 526.994 868.504 527.521 868.035 528.186C867.566 528.85 867.332 529.602 867.332 530.441H860.301C860.301 529.191 860.604 527.98 861.209 526.809C861.814 525.637 862.693 524.592 863.846 523.674C864.998 522.756 866.375 522.033 867.977 521.506C869.578 520.979 871.375 520.715 873.367 520.715C875.75 520.715 877.859 521.115 879.695 521.916C881.551 522.717 883.006 523.928 884.061 525.549C885.135 527.15 885.672 529.162 885.672 531.584V545.676C885.672 547.121 885.77 548.42 885.965 549.572C886.18 550.705 886.482 551.691 886.873 552.531V553H879.637C879.305 552.238 879.041 551.271 878.846 550.1C878.67 548.908 878.582 547.756 878.582 546.643ZM879.607 533.723L879.666 538.088H874.598C873.289 538.088 872.137 538.215 871.141 538.469C870.145 538.703 869.314 539.055 868.65 539.523C867.986 539.992 867.488 540.559 867.156 541.223C866.824 541.887 866.658 542.639 866.658 543.479C866.658 544.318 866.854 545.09 867.244 545.793C867.635 546.477 868.201 547.014 868.943 547.404C869.705 547.795 870.623 547.99 871.697 547.99C873.143 547.99 874.402 547.697 875.477 547.111C876.57 546.506 877.43 545.773 878.055 544.914C878.68 544.035 879.012 543.205 879.051 542.424L881.336 545.559C881.102 546.359 880.701 547.219 880.135 548.137C879.568 549.055 878.826 549.934 877.908 550.773C877.01 551.594 875.926 552.268 874.656 552.795C873.406 553.322 871.961 553.586 870.32 553.586C868.25 553.586 866.404 553.176 864.783 552.355C863.162 551.516 861.893 550.393 860.975 548.986C860.057 547.561 859.598 545.949 859.598 544.152C859.598 542.473 859.91 540.988 860.535 539.699C861.18 538.391 862.117 537.297 863.348 536.418C864.598 535.539 866.121 534.875 867.918 534.426C869.715 533.957 871.766 533.723 874.07 533.723H879.607ZM898.445 521.301L904.48 531.818L910.633 521.301H918.396L908.787 536.857L918.777 553H911.014L904.568 542.043L898.123 553H890.33L900.291 536.857L890.711 521.301H898.445Z" fill="#1C4670"/>
<path d="M501.531 808.113H508.855C508.621 810.906 507.84 813.396 506.512 815.584C505.184 817.752 503.318 819.461 500.916 820.711C498.514 821.961 495.594 822.586 492.156 822.586C489.52 822.586 487.146 822.117 485.037 821.18C482.928 820.223 481.121 818.875 479.617 817.137C478.113 815.379 476.961 813.26 476.16 810.779C475.379 808.299 474.988 805.525 474.988 802.459V798.914C474.988 795.848 475.389 793.074 476.189 790.594C477.01 788.113 478.182 785.994 479.705 784.236C481.229 782.459 483.055 781.102 485.184 780.164C487.332 779.227 489.744 778.758 492.42 778.758C495.818 778.758 498.689 779.383 501.033 780.633C503.377 781.883 505.193 783.611 506.482 785.818C507.791 788.025 508.592 790.555 508.885 793.406H501.561C501.365 791.57 500.936 789.998 500.271 788.689C499.627 787.381 498.67 786.385 497.4 785.701C496.131 784.998 494.471 784.646 492.42 784.646C490.74 784.646 489.275 784.959 488.025 785.584C486.775 786.209 485.73 787.127 484.891 788.338C484.051 789.549 483.416 791.043 482.986 792.82C482.576 794.578 482.371 796.59 482.371 798.855V802.459C482.371 804.607 482.557 806.561 482.928 808.318C483.318 810.057 483.904 811.551 484.686 812.801C485.486 814.051 486.502 815.018 487.732 815.701C488.963 816.385 490.438 816.727 492.156 816.727C494.246 816.727 495.936 816.395 497.225 815.73C498.533 815.066 499.52 814.1 500.184 812.83C500.867 811.541 501.316 809.969 501.531 808.113ZM533.904 814.529V790.301H540.994V822H534.314L533.904 814.529ZM534.9 807.938L537.273 807.879C537.273 810.008 537.039 811.971 536.57 813.768C536.102 815.545 535.379 817.098 534.402 818.426C533.426 819.734 532.176 820.76 530.652 821.502C529.129 822.225 527.303 822.586 525.174 822.586C523.631 822.586 522.215 822.361 520.926 821.912C519.637 821.463 518.523 820.77 517.586 819.832C516.668 818.895 515.955 817.674 515.447 816.17C514.939 814.666 514.686 812.869 514.686 810.779V790.301H521.746V810.838C521.746 811.99 521.883 812.957 522.156 813.738C522.43 814.5 522.801 815.115 523.27 815.584C523.738 816.053 524.285 816.385 524.91 816.58C525.535 816.775 526.199 816.873 526.902 816.873C528.914 816.873 530.496 816.482 531.648 815.701C532.82 814.9 533.65 813.826 534.139 812.479C534.646 811.131 534.9 809.617 534.9 807.938ZM566.014 813.416C566.014 812.713 565.838 812.078 565.486 811.512C565.135 810.926 564.461 810.398 563.465 809.93C562.488 809.461 561.043 809.031 559.129 808.641C557.449 808.27 555.906 807.83 554.5 807.322C553.113 806.795 551.922 806.16 550.926 805.418C549.93 804.676 549.158 803.797 548.611 802.781C548.064 801.766 547.791 800.594 547.791 799.266C547.791 797.977 548.074 796.756 548.641 795.604C549.207 794.451 550.018 793.436 551.072 792.557C552.127 791.678 553.406 790.984 554.91 790.477C556.434 789.969 558.133 789.715 560.008 789.715C562.664 789.715 564.939 790.164 566.834 791.062C568.748 791.941 570.213 793.143 571.229 794.666C572.244 796.17 572.752 797.869 572.752 799.764H565.691C565.691 798.924 565.477 798.143 565.047 797.42C564.637 796.678 564.012 796.082 563.172 795.633C562.332 795.164 561.277 794.93 560.008 794.93C558.797 794.93 557.791 795.125 556.99 795.516C556.209 795.887 555.623 796.375 555.232 796.98C554.861 797.586 554.676 798.25 554.676 798.973C554.676 799.5 554.773 799.979 554.969 800.408C555.184 800.818 555.535 801.199 556.023 801.551C556.512 801.883 557.176 802.195 558.016 802.488C558.875 802.781 559.949 803.064 561.238 803.338C563.66 803.846 565.74 804.5 567.479 805.301C569.236 806.082 570.584 807.098 571.521 808.348C572.459 809.578 572.928 811.141 572.928 813.035C572.928 814.441 572.625 815.73 572.02 816.902C571.434 818.055 570.574 819.061 569.441 819.92C568.309 820.76 566.951 821.414 565.369 821.883C563.807 822.352 562.049 822.586 560.096 822.586C557.225 822.586 554.793 822.078 552.801 821.062C550.809 820.027 549.295 818.709 548.26 817.107C547.244 815.486 546.736 813.807 546.736 812.068H553.562C553.641 813.377 554.002 814.422 554.646 815.203C555.311 815.965 556.131 816.521 557.107 816.873C558.104 817.205 559.129 817.371 560.184 817.371C561.453 817.371 562.518 817.205 563.377 816.873C564.236 816.521 564.891 816.053 565.34 815.467C565.789 814.861 566.014 814.178 566.014 813.416ZM593.641 790.301V795.457H575.77V790.301H593.641ZM580.926 782.537H587.986V813.24C587.986 814.217 588.123 814.969 588.396 815.496C588.689 816.004 589.09 816.346 589.598 816.521C590.105 816.697 590.701 816.785 591.385 816.785C591.873 816.785 592.342 816.756 592.791 816.697C593.24 816.639 593.602 816.58 593.875 816.521L593.904 821.912C593.318 822.088 592.635 822.244 591.854 822.381C591.092 822.518 590.213 822.586 589.217 822.586C587.596 822.586 586.16 822.303 584.91 821.736C583.66 821.15 582.684 820.203 581.98 818.895C581.277 817.586 580.926 815.848 580.926 813.68V782.537ZM597.039 806.502V805.828C597.039 803.543 597.371 801.424 598.035 799.471C598.699 797.498 599.656 795.789 600.906 794.344C602.176 792.879 603.719 791.746 605.535 790.945C607.371 790.125 609.441 789.715 611.746 789.715C614.07 789.715 616.141 790.125 617.957 790.945C619.793 791.746 621.346 792.879 622.615 794.344C623.885 795.789 624.852 797.498 625.516 799.471C626.18 801.424 626.512 803.543 626.512 805.828V806.502C626.512 808.787 626.18 810.906 625.516 812.859C624.852 814.812 623.885 816.521 622.615 817.986C621.346 819.432 619.803 820.564 617.986 821.385C616.17 822.186 614.109 822.586 611.805 822.586C609.48 822.586 607.4 822.186 605.564 821.385C603.748 820.564 602.205 819.432 600.936 817.986C599.666 816.521 598.699 814.812 598.035 812.859C597.371 810.906 597.039 808.787 597.039 806.502ZM604.1 805.828V806.502C604.1 807.928 604.246 809.275 604.539 810.545C604.832 811.814 605.291 812.928 605.916 813.885C606.541 814.842 607.342 815.594 608.318 816.141C609.295 816.688 610.457 816.961 611.805 816.961C613.113 816.961 614.246 816.688 615.203 816.141C616.18 815.594 616.98 814.842 617.605 813.885C618.23 812.928 618.689 811.814 618.982 810.545C619.295 809.275 619.451 807.928 619.451 806.502V805.828C619.451 804.422 619.295 803.094 618.982 801.844C618.689 800.574 618.221 799.451 617.576 798.475C616.951 797.498 616.15 796.736 615.174 796.189C614.217 795.623 613.074 795.34 611.746 795.34C610.418 795.34 609.266 795.623 608.289 796.189C607.332 796.736 606.541 797.498 605.916 798.475C605.291 799.451 604.832 800.574 604.539 801.844C604.246 803.094 604.1 804.422 604.1 805.828ZM639.49 796.746V822H632.43V790.301H639.08L639.49 796.746ZM638.348 804.979L635.945 804.949C635.945 802.762 636.219 800.74 636.766 798.885C637.312 797.029 638.113 795.418 639.168 794.051C640.223 792.664 641.531 791.6 643.094 790.857C644.676 790.096 646.502 789.715 648.572 789.715C650.018 789.715 651.336 789.93 652.527 790.359C653.738 790.77 654.783 791.424 655.662 792.322C656.561 793.221 657.244 794.373 657.713 795.779C658.201 797.186 658.445 798.885 658.445 800.877V822H651.385V801.492C651.385 799.949 651.15 798.738 650.682 797.859C650.232 796.98 649.578 796.355 648.719 795.984C647.879 795.594 646.873 795.398 645.701 795.398C644.373 795.398 643.24 795.652 642.303 796.16C641.385 796.668 640.633 797.361 640.047 798.24C639.461 799.119 639.031 800.135 638.758 801.287C638.484 802.439 638.348 803.67 638.348 804.979ZM658.006 803.104L654.695 803.836C654.695 801.922 654.959 800.115 655.486 798.416C656.033 796.697 656.824 795.193 657.859 793.904C658.914 792.596 660.213 791.57 661.756 790.828C663.299 790.086 665.066 789.715 667.059 789.715C668.68 789.715 670.125 789.939 671.395 790.389C672.684 790.818 673.777 791.502 674.676 792.439C675.574 793.377 676.258 794.598 676.727 796.102C677.195 797.586 677.43 799.383 677.43 801.492V822H670.34V801.463C670.34 799.861 670.105 798.621 669.637 797.742C669.188 796.863 668.543 796.258 667.703 795.926C666.863 795.574 665.857 795.398 664.686 795.398C663.592 795.398 662.625 795.604 661.785 796.014C660.965 796.404 660.271 796.961 659.705 797.684C659.139 798.387 658.709 799.197 658.416 800.115C658.143 801.033 658.006 802.029 658.006 803.104ZM712.732 822H703.621L703.68 816.17H712.732C715.369 816.17 717.576 815.594 719.354 814.441C721.15 813.289 722.498 811.639 723.396 809.49C724.314 807.342 724.773 804.783 724.773 801.814V799.5C724.773 797.195 724.51 795.154 723.982 793.377C723.475 791.6 722.713 790.105 721.697 788.895C720.701 787.684 719.471 786.766 718.006 786.141C716.561 785.516 714.891 785.203 712.996 785.203H703.445V779.344H712.996C715.828 779.344 718.416 779.822 720.76 780.779C723.104 781.717 725.125 783.074 726.824 784.852C728.543 786.629 729.861 788.758 730.779 791.238C731.697 793.719 732.156 796.492 732.156 799.559V801.814C732.156 804.881 731.697 807.654 730.779 810.135C729.861 812.615 728.543 814.744 726.824 816.521C725.105 818.279 723.055 819.637 720.672 820.594C718.309 821.531 715.662 822 712.732 822ZM707.693 779.344V822H700.34V779.344H707.693ZM757.908 814.529V790.301H764.998V822H758.318L757.908 814.529ZM758.904 807.938L761.277 807.879C761.277 810.008 761.043 811.971 760.574 813.768C760.105 815.545 759.383 817.098 758.406 818.426C757.43 819.734 756.18 820.76 754.656 821.502C753.133 822.225 751.307 822.586 749.178 822.586C747.635 822.586 746.219 822.361 744.93 821.912C743.641 821.463 742.527 820.77 741.59 819.832C740.672 818.895 739.959 817.674 739.451 816.17C738.943 814.666 738.689 812.869 738.689 810.779V790.301H745.75V810.838C745.75 811.99 745.887 812.957 746.16 813.738C746.434 814.5 746.805 815.115 747.273 815.584C747.742 816.053 748.289 816.385 748.914 816.58C749.539 816.775 750.203 816.873 750.906 816.873C752.918 816.873 754.5 816.482 755.652 815.701C756.824 814.9 757.654 813.826 758.143 812.479C758.65 811.131 758.904 809.617 758.904 807.938ZM786.766 790.301V795.457H768.895V790.301H786.766ZM774.051 782.537H781.111V813.24C781.111 814.217 781.248 814.969 781.521 815.496C781.814 816.004 782.215 816.346 782.723 816.521C783.23 816.697 783.826 816.785 784.51 816.785C784.998 816.785 785.467 816.756 785.916 816.697C786.365 816.639 786.727 816.58 787 816.521L787.029 821.912C786.443 822.088 785.76 822.244 784.979 822.381C784.217 822.518 783.338 822.586 782.342 822.586C780.721 822.586 779.285 822.303 778.035 821.736C776.785 821.15 775.809 820.203 775.105 818.895C774.402 817.586 774.051 815.848 774.051 813.68V782.537ZM801.414 818.543L810.027 790.301H817.586L804.871 826.834C804.578 827.615 804.197 828.465 803.729 829.383C803.26 830.301 802.645 831.17 801.883 831.99C801.141 832.83 800.213 833.504 799.1 834.012C797.986 834.539 796.639 834.803 795.057 834.803C794.432 834.803 793.826 834.744 793.24 834.627C792.674 834.529 792.137 834.422 791.629 834.305L791.6 828.914C791.795 828.934 792.029 828.953 792.303 828.973C792.596 828.992 792.83 829.002 793.006 829.002C794.178 829.002 795.154 828.855 795.936 828.562C796.717 828.289 797.352 827.84 797.84 827.215C798.348 826.59 798.777 825.75 799.129 824.695L801.414 818.543ZM796.551 790.301L804.08 814.031L805.34 821.473L800.447 822.732L788.934 790.301H796.551Z" fill="#1C4670"/>
<path d="M492.537 1110.09H481.434V1104.26H492.537C494.471 1104.26 496.033 1103.95 497.225 1103.32C498.416 1102.7 499.285 1101.84 499.832 1100.75C500.398 1099.63 500.682 1098.36 500.682 1096.94C500.682 1095.59 500.398 1094.33 499.832 1093.16C499.285 1091.97 498.416 1091.01 497.225 1090.29C496.033 1089.56 494.471 1089.2 492.537 1089.2H483.689V1126H476.336V1083.34H492.537C495.838 1083.34 498.641 1083.93 500.945 1085.1C503.27 1086.25 505.037 1087.86 506.248 1089.91C507.459 1091.94 508.064 1094.26 508.064 1096.88C508.064 1099.63 507.459 1102 506.248 1103.97C505.037 1105.94 503.27 1107.46 500.945 1108.51C498.641 1109.56 495.838 1110.09 492.537 1110.09ZM531.473 1119.64V1104.53C531.473 1103.39 531.268 1102.42 530.857 1101.6C530.447 1100.78 529.822 1100.14 528.982 1099.69C528.162 1099.24 527.127 1099.02 525.877 1099.02C524.725 1099.02 523.729 1099.21 522.889 1099.6C522.049 1099.99 521.395 1100.52 520.926 1101.19C520.457 1101.85 520.223 1102.6 520.223 1103.44H513.191C513.191 1102.19 513.494 1100.98 514.1 1099.81C514.705 1098.64 515.584 1097.59 516.736 1096.67C517.889 1095.76 519.266 1095.03 520.867 1094.51C522.469 1093.98 524.266 1093.71 526.258 1093.71C528.641 1093.71 530.75 1094.12 532.586 1094.92C534.441 1095.72 535.896 1096.93 536.951 1098.55C538.025 1100.15 538.562 1102.16 538.562 1104.58V1118.68C538.562 1120.12 538.66 1121.42 538.855 1122.57C539.07 1123.71 539.373 1124.69 539.764 1125.53V1126H532.527C532.195 1125.24 531.932 1124.27 531.736 1123.1C531.561 1121.91 531.473 1120.76 531.473 1119.64ZM532.498 1106.72L532.557 1111.09H527.488C526.18 1111.09 525.027 1111.21 524.031 1111.47C523.035 1111.7 522.205 1112.05 521.541 1112.52C520.877 1112.99 520.379 1113.56 520.047 1114.22C519.715 1114.89 519.549 1115.64 519.549 1116.48C519.549 1117.32 519.744 1118.09 520.135 1118.79C520.525 1119.48 521.092 1120.01 521.834 1120.4C522.596 1120.79 523.514 1120.99 524.588 1120.99C526.033 1120.99 527.293 1120.7 528.367 1120.11C529.461 1119.51 530.32 1118.77 530.945 1117.91C531.57 1117.04 531.902 1116.21 531.941 1115.42L534.227 1118.56C533.992 1119.36 533.592 1120.22 533.025 1121.14C532.459 1122.05 531.717 1122.93 530.799 1123.77C529.9 1124.59 528.816 1125.27 527.547 1125.79C526.297 1126.32 524.852 1126.59 523.211 1126.59C521.141 1126.59 519.295 1126.18 517.674 1125.36C516.053 1124.52 514.783 1123.39 513.865 1121.99C512.947 1120.56 512.488 1118.95 512.488 1117.15C512.488 1115.47 512.801 1113.99 513.426 1112.7C514.07 1111.39 515.008 1110.3 516.238 1109.42C517.488 1108.54 519.012 1107.88 520.809 1107.43C522.605 1106.96 524.656 1106.72 526.961 1106.72H532.498ZM554.676 1122.54L563.289 1094.3H570.848L558.133 1130.83C557.84 1131.62 557.459 1132.46 556.99 1133.38C556.521 1134.3 555.906 1135.17 555.145 1135.99C554.402 1136.83 553.475 1137.5 552.361 1138.01C551.248 1138.54 549.9 1138.8 548.318 1138.8C547.693 1138.8 547.088 1138.74 546.502 1138.63C545.936 1138.53 545.398 1138.42 544.891 1138.3L544.861 1132.91C545.057 1132.93 545.291 1132.95 545.564 1132.97C545.857 1132.99 546.092 1133 546.268 1133C547.439 1133 548.416 1132.86 549.197 1132.56C549.979 1132.29 550.613 1131.84 551.102 1131.21C551.609 1130.59 552.039 1129.75 552.391 1128.7L554.676 1122.54ZM549.812 1094.3L557.342 1118.03L558.602 1125.47L553.709 1126.73L542.195 1094.3H549.812ZM589.1 1104.96V1110.59H573.602V1104.96H589.1ZM602.371 1100.34V1126H595.311V1094.3H602.049L602.371 1100.34ZM612.068 1094.1L612.01 1100.66C611.58 1100.58 611.111 1100.52 610.604 1100.48C610.115 1100.44 609.627 1100.42 609.139 1100.42C607.928 1100.42 606.863 1100.6 605.945 1100.95C605.027 1101.28 604.256 1101.77 603.631 1102.42C603.025 1103.04 602.557 1103.8 602.225 1104.7C601.893 1105.6 601.697 1106.61 601.639 1107.72L600.027 1107.84C600.027 1105.84 600.223 1104 600.613 1102.3C601.004 1100.6 601.59 1099.11 602.371 1097.82C603.172 1096.53 604.168 1095.52 605.359 1094.8C606.57 1094.08 607.967 1093.71 609.549 1093.71C609.979 1093.71 610.438 1093.75 610.926 1093.83C611.434 1093.91 611.814 1094 612.068 1094.1ZM629.881 1126.59C627.537 1126.59 625.418 1126.21 623.523 1125.44C621.648 1124.66 620.047 1123.58 618.719 1122.19C617.41 1120.8 616.404 1119.17 615.701 1117.3C614.998 1115.42 614.646 1113.4 614.646 1111.23V1110.06C614.646 1107.58 615.008 1105.34 615.73 1103.32C616.453 1101.31 617.459 1099.59 618.748 1098.17C620.037 1096.72 621.561 1095.62 623.318 1094.86C625.076 1094.1 626.98 1093.71 629.031 1093.71C631.297 1093.71 633.279 1094.1 634.979 1094.86C636.678 1095.62 638.084 1096.69 639.197 1098.08C640.33 1099.45 641.17 1101.08 641.717 1102.97C642.283 1104.87 642.566 1106.96 642.566 1109.24V1112.26H618.074V1107.19H635.594V1106.63C635.555 1105.37 635.301 1104.17 634.832 1103.06C634.383 1101.95 633.689 1101.05 632.752 1100.37C631.814 1099.68 630.564 1099.34 629.002 1099.34C627.83 1099.34 626.785 1099.59 625.867 1100.1C624.969 1100.59 624.217 1101.3 623.611 1102.24C623.006 1103.18 622.537 1104.31 622.205 1105.64C621.893 1106.95 621.736 1108.42 621.736 1110.06V1111.23C621.736 1112.62 621.922 1113.91 622.293 1115.1C622.684 1116.27 623.25 1117.3 623.992 1118.18C624.734 1119.06 625.633 1119.75 626.688 1120.26C627.742 1120.75 628.943 1120.99 630.291 1120.99C631.99 1120.99 633.504 1120.65 634.832 1119.96C636.16 1119.28 637.312 1118.31 638.289 1117.06L642.01 1120.67C641.326 1121.66 640.438 1122.62 639.344 1123.54C638.25 1124.44 636.912 1125.17 635.33 1125.74C633.768 1126.3 631.951 1126.59 629.881 1126.59ZM655.633 1081V1126H648.543V1081H655.633ZM681.238 1119.64V1104.53C681.238 1103.39 681.033 1102.42 680.623 1101.6C680.213 1100.78 679.588 1100.14 678.748 1099.69C677.928 1099.24 676.893 1099.02 675.643 1099.02C674.49 1099.02 673.494 1099.21 672.654 1099.6C671.814 1099.99 671.16 1100.52 670.691 1101.19C670.223 1101.85 669.988 1102.6 669.988 1103.44H662.957C662.957 1102.19 663.26 1100.98 663.865 1099.81C664.471 1098.64 665.35 1097.59 666.502 1096.67C667.654 1095.76 669.031 1095.03 670.633 1094.51C672.234 1093.98 674.031 1093.71 676.023 1093.71C678.406 1093.71 680.516 1094.12 682.352 1094.92C684.207 1095.72 685.662 1096.93 686.717 1098.55C687.791 1100.15 688.328 1102.16 688.328 1104.58V1118.68C688.328 1120.12 688.426 1121.42 688.621 1122.57C688.836 1123.71 689.139 1124.69 689.529 1125.53V1126H682.293C681.961 1125.24 681.697 1124.27 681.502 1123.1C681.326 1121.91 681.238 1120.76 681.238 1119.64ZM682.264 1106.72L682.322 1111.09H677.254C675.945 1111.09 674.793 1111.21 673.797 1111.47C672.801 1111.7 671.971 1112.05 671.307 1112.52C670.643 1112.99 670.145 1113.56 669.812 1114.22C669.48 1114.89 669.314 1115.64 669.314 1116.48C669.314 1117.32 669.51 1118.09 669.9 1118.79C670.291 1119.48 670.857 1120.01 671.6 1120.4C672.361 1120.79 673.279 1120.99 674.354 1120.99C675.799 1120.99 677.059 1120.7 678.133 1120.11C679.227 1119.51 680.086 1118.77 680.711 1117.91C681.336 1117.04 681.668 1116.21 681.707 1115.42L683.992 1118.56C683.758 1119.36 683.357 1120.22 682.791 1121.14C682.225 1122.05 681.482 1122.93 680.564 1123.77C679.666 1124.59 678.582 1125.27 677.312 1125.79C676.062 1126.32 674.617 1126.59 672.977 1126.59C670.906 1126.59 669.061 1126.18 667.439 1125.36C665.818 1124.52 664.549 1123.39 663.631 1121.99C662.713 1120.56 662.254 1118.95 662.254 1117.15C662.254 1115.47 662.566 1113.99 663.191 1112.7C663.836 1111.39 664.773 1110.3 666.004 1109.42C667.254 1108.54 668.777 1107.88 670.574 1107.43C672.371 1106.96 674.422 1106.72 676.727 1106.72H682.264ZM710.242 1094.3V1099.46H692.371V1094.3H710.242ZM697.527 1086.54H704.588V1117.24C704.588 1118.22 704.725 1118.97 704.998 1119.5C705.291 1120 705.691 1120.35 706.199 1120.52C706.707 1120.7 707.303 1120.79 707.986 1120.79C708.475 1120.79 708.943 1120.76 709.393 1120.7C709.842 1120.64 710.203 1120.58 710.477 1120.52L710.506 1125.91C709.92 1126.09 709.236 1126.24 708.455 1126.38C707.693 1126.52 706.814 1126.59 705.818 1126.59C704.197 1126.59 702.762 1126.3 701.512 1125.74C700.262 1125.15 699.285 1124.2 698.582 1122.89C697.879 1121.59 697.527 1119.85 697.527 1117.68V1086.54ZM729.666 1126.59C727.322 1126.59 725.203 1126.21 723.309 1125.44C721.434 1124.66 719.832 1123.58 718.504 1122.19C717.195 1120.8 716.189 1119.17 715.486 1117.3C714.783 1115.42 714.432 1113.4 714.432 1111.23V1110.06C714.432 1107.58 714.793 1105.34 715.516 1103.32C716.238 1101.31 717.244 1099.59 718.533 1098.17C719.822 1096.72 721.346 1095.62 723.104 1094.86C724.861 1094.1 726.766 1093.71 728.816 1093.71C731.082 1093.71 733.064 1094.1 734.764 1094.86C736.463 1095.62 737.869 1096.69 738.982 1098.08C740.115 1099.45 740.955 1101.08 741.502 1102.97C742.068 1104.87 742.352 1106.96 742.352 1109.24V1112.26H717.859V1107.19H735.379V1106.63C735.34 1105.37 735.086 1104.17 734.617 1103.06C734.168 1101.95 733.475 1101.05 732.537 1100.37C731.6 1099.68 730.35 1099.34 728.787 1099.34C727.615 1099.34 726.57 1099.59 725.652 1100.1C724.754 1100.59 724.002 1101.3 723.396 1102.24C722.791 1103.18 722.322 1104.31 721.99 1105.64C721.678 1106.95 721.521 1108.42 721.521 1110.06V1111.23C721.521 1112.62 721.707 1113.91 722.078 1115.1C722.469 1116.27 723.035 1117.3 723.777 1118.18C724.52 1119.06 725.418 1119.75 726.473 1120.26C727.527 1120.75 728.729 1120.99 730.076 1120.99C731.775 1120.99 733.289 1120.65 734.617 1119.96C735.945 1119.28 737.098 1118.31 738.074 1117.06L741.795 1120.67C741.111 1121.66 740.223 1122.62 739.129 1123.54C738.035 1124.44 736.697 1125.17 735.115 1125.74C733.553 1126.3 731.736 1126.59 729.666 1126.59ZM767.195 1119.44V1081H774.285V1126H767.869L767.195 1119.44ZM746.57 1110.5V1109.89C746.57 1107.48 746.854 1105.3 747.42 1103.32C747.986 1101.33 748.807 1099.62 749.881 1098.2C750.955 1096.75 752.264 1095.65 753.807 1094.89C755.35 1094.11 757.088 1093.71 759.021 1093.71C760.936 1093.71 762.615 1094.09 764.061 1094.83C765.506 1095.57 766.736 1096.63 767.752 1098.02C768.768 1099.39 769.578 1101.03 770.184 1102.94C770.789 1104.84 771.219 1106.95 771.473 1109.27V1111.23C771.219 1113.5 770.789 1115.57 770.184 1117.45C769.578 1119.32 768.768 1120.94 767.752 1122.31C766.736 1123.68 765.496 1124.73 764.031 1125.47C762.586 1126.21 760.896 1126.59 758.963 1126.59C757.049 1126.59 755.32 1126.19 753.777 1125.38C752.254 1124.58 750.955 1123.46 749.881 1122.02C748.807 1120.57 747.986 1118.87 747.42 1116.92C746.854 1114.95 746.57 1112.81 746.57 1110.5ZM753.631 1109.89V1110.5C753.631 1111.95 753.758 1113.29 754.012 1114.54C754.285 1115.79 754.705 1116.9 755.271 1117.86C755.838 1118.79 756.57 1119.54 757.469 1120.08C758.387 1120.61 759.48 1120.87 760.75 1120.87C762.352 1120.87 763.67 1120.52 764.705 1119.82C765.74 1119.12 766.551 1118.17 767.137 1116.98C767.742 1115.77 768.152 1114.42 768.367 1112.93V1107.63C768.25 1106.48 768.006 1105.4 767.635 1104.41C767.283 1103.41 766.805 1102.54 766.199 1101.8C765.594 1101.04 764.842 1100.45 763.943 1100.04C763.064 1099.61 762.02 1099.4 760.809 1099.4C759.52 1099.4 758.426 1099.67 757.527 1100.22C756.629 1100.77 755.887 1101.52 755.301 1102.47C754.734 1103.43 754.314 1104.54 754.041 1105.81C753.768 1107.08 753.631 1108.44 753.631 1109.89ZM819.754 1115.01C819.754 1114.13 819.617 1113.35 819.344 1112.67C819.09 1111.99 818.631 1111.36 817.967 1110.79C817.303 1110.23 816.365 1109.68 815.154 1109.15C813.963 1108.61 812.439 1108.05 810.584 1107.48C808.553 1106.86 806.678 1106.17 804.959 1105.4C803.26 1104.62 801.775 1103.72 800.506 1102.71C799.236 1101.67 798.25 1100.49 797.547 1099.16C796.844 1097.82 796.492 1096.26 796.492 1094.51C796.492 1092.77 796.854 1091.19 797.576 1089.76C798.318 1088.33 799.363 1087.1 800.711 1086.07C802.078 1085.01 803.689 1084.2 805.545 1083.64C807.4 1083.05 809.451 1082.76 811.697 1082.76C814.861 1082.76 817.586 1083.34 819.871 1084.52C822.176 1085.69 823.943 1087.26 825.174 1089.23C826.424 1091.21 827.049 1093.38 827.049 1095.77H819.754C819.754 1094.36 819.451 1093.12 818.846 1092.04C818.26 1090.95 817.361 1090.09 816.15 1089.47C814.959 1088.84 813.445 1088.53 811.609 1088.53C809.871 1088.53 808.426 1088.79 807.273 1089.32C806.121 1089.85 805.262 1090.56 804.695 1091.46C804.129 1092.36 803.846 1093.37 803.846 1094.51C803.846 1095.31 804.031 1096.04 804.402 1096.7C804.773 1097.35 805.34 1097.95 806.102 1098.52C806.863 1099.07 807.82 1099.58 808.973 1100.07C810.125 1100.56 811.482 1101.03 813.045 1101.48C815.408 1102.18 817.469 1102.96 819.227 1103.82C820.984 1104.66 822.449 1105.62 823.621 1106.69C824.793 1107.77 825.672 1108.99 826.258 1110.36C826.844 1111.7 827.137 1113.24 827.137 1114.96C827.137 1116.75 826.775 1118.37 826.053 1119.82C825.33 1121.24 824.295 1122.46 822.947 1123.48C821.619 1124.48 820.018 1125.25 818.143 1125.79C816.287 1126.32 814.217 1126.59 811.932 1126.59C809.881 1126.59 807.859 1126.31 805.867 1125.77C803.895 1125.22 802.098 1124.39 800.477 1123.28C798.855 1122.14 797.566 1120.74 796.609 1119.06C795.652 1117.36 795.174 1115.38 795.174 1113.11H802.527C802.527 1114.5 802.762 1115.68 803.23 1116.65C803.719 1117.63 804.393 1118.43 805.252 1119.06C806.111 1119.66 807.107 1120.11 808.24 1120.4C809.393 1120.7 810.623 1120.84 811.932 1120.84C813.65 1120.84 815.086 1120.6 816.238 1120.11C817.41 1119.62 818.289 1118.94 818.875 1118.06C819.461 1117.18 819.754 1116.17 819.754 1115.01ZM831.59 1110.5V1109.83C831.59 1107.54 831.922 1105.42 832.586 1103.47C833.25 1101.5 834.207 1099.79 835.457 1098.34C836.727 1096.88 838.27 1095.75 840.086 1094.95C841.922 1094.12 843.992 1093.71 846.297 1093.71C848.621 1093.71 850.691 1094.12 852.508 1094.95C854.344 1095.75 855.896 1096.88 857.166 1098.34C858.436 1099.79 859.402 1101.5 860.066 1103.47C860.73 1105.42 861.062 1107.54 861.062 1109.83V1110.5C861.062 1112.79 860.73 1114.91 860.066 1116.86C859.402 1118.81 858.436 1120.52 857.166 1121.99C855.896 1123.43 854.354 1124.56 852.537 1125.38C850.721 1126.19 848.66 1126.59 846.355 1126.59C844.031 1126.59 841.951 1126.19 840.115 1125.38C838.299 1124.56 836.756 1123.43 835.486 1121.99C834.217 1120.52 833.25 1118.81 832.586 1116.86C831.922 1114.91 831.59 1112.79 831.59 1110.5ZM838.65 1109.83V1110.5C838.65 1111.93 838.797 1113.28 839.09 1114.54C839.383 1115.81 839.842 1116.93 840.467 1117.88C841.092 1118.84 841.893 1119.59 842.869 1120.14C843.846 1120.69 845.008 1120.96 846.355 1120.96C847.664 1120.96 848.797 1120.69 849.754 1120.14C850.73 1119.59 851.531 1118.84 852.156 1117.88C852.781 1116.93 853.24 1115.81 853.533 1114.54C853.846 1113.28 854.002 1111.93 854.002 1110.5V1109.83C854.002 1108.42 853.846 1107.09 853.533 1105.84C853.24 1104.57 852.771 1103.45 852.127 1102.47C851.502 1101.5 850.701 1100.74 849.725 1100.19C848.768 1099.62 847.625 1099.34 846.297 1099.34C844.969 1099.34 843.816 1099.62 842.84 1100.19C841.883 1100.74 841.092 1101.5 840.467 1102.47C839.842 1103.45 839.383 1104.57 839.09 1105.84C838.797 1107.09 838.65 1108.42 838.65 1109.83ZM879.93 1120.96C881.082 1120.96 882.117 1120.74 883.035 1120.29C883.973 1119.82 884.725 1119.17 885.291 1118.35C885.877 1117.53 886.199 1116.59 886.258 1115.51H892.908C892.869 1117.56 892.264 1119.43 891.092 1121.11C889.92 1122.79 888.367 1124.12 886.434 1125.12C884.5 1126.1 882.361 1126.59 880.018 1126.59C877.596 1126.59 875.486 1126.18 873.689 1125.36C871.893 1124.52 870.398 1123.36 869.207 1121.9C868.016 1120.43 867.117 1118.74 866.512 1116.83C865.926 1114.92 865.633 1112.87 865.633 1110.68V1109.65C865.633 1107.46 865.926 1105.41 866.512 1103.5C867.117 1101.57 868.016 1099.87 869.207 1098.4C870.398 1096.94 871.893 1095.79 873.689 1094.97C875.486 1094.13 877.586 1093.71 879.988 1093.71C882.527 1093.71 884.754 1094.22 886.668 1095.24C888.582 1096.23 890.086 1097.63 891.18 1099.43C892.293 1101.21 892.869 1103.28 892.908 1105.64H886.258C886.199 1104.47 885.906 1103.41 885.379 1102.47C884.871 1101.52 884.148 1100.76 883.211 1100.19C882.293 1099.62 881.189 1099.34 879.9 1099.34C878.475 1099.34 877.293 1099.63 876.355 1100.22C875.418 1100.79 874.686 1101.57 874.158 1102.56C873.631 1103.54 873.25 1104.64 873.016 1105.87C872.801 1107.08 872.693 1108.34 872.693 1109.65V1110.68C872.693 1111.99 872.801 1113.26 873.016 1114.49C873.23 1115.72 873.602 1116.82 874.129 1117.8C874.676 1118.75 875.418 1119.53 876.355 1120.11C877.293 1120.68 878.484 1120.96 879.93 1120.96ZM905.887 1094.3V1126H898.797V1094.3H905.887ZM898.328 1085.98C898.328 1084.91 898.68 1084.02 899.383 1083.31C900.105 1082.59 901.102 1082.23 902.371 1082.23C903.621 1082.23 904.607 1082.59 905.33 1083.31C906.053 1084.02 906.414 1084.91 906.414 1085.98C906.414 1087.04 906.053 1087.91 905.33 1088.62C904.607 1089.32 903.621 1089.67 902.371 1089.67C901.102 1089.67 900.105 1089.32 899.383 1088.62C898.68 1087.91 898.328 1087.04 898.328 1085.98ZM931.492 1119.64V1104.53C931.492 1103.39 931.287 1102.42 930.877 1101.6C930.467 1100.78 929.842 1100.14 929.002 1099.69C928.182 1099.24 927.146 1099.02 925.896 1099.02C924.744 1099.02 923.748 1099.21 922.908 1099.6C922.068 1099.99 921.414 1100.52 920.945 1101.19C920.477 1101.85 920.242 1102.6 920.242 1103.44H913.211C913.211 1102.19 913.514 1100.98 914.119 1099.81C914.725 1098.64 915.604 1097.59 916.756 1096.67C917.908 1095.76 919.285 1095.03 920.887 1094.51C922.488 1093.98 924.285 1093.71 926.277 1093.71C928.66 1093.71 930.77 1094.12 932.605 1094.92C934.461 1095.72 935.916 1096.93 936.971 1098.55C938.045 1100.15 938.582 1102.16 938.582 1104.58V1118.68C938.582 1120.12 938.68 1121.42 938.875 1122.57C939.09 1123.71 939.393 1124.69 939.783 1125.53V1126H932.547C932.215 1125.24 931.951 1124.27 931.756 1123.1C931.58 1121.91 931.492 1120.76 931.492 1119.64ZM932.518 1106.72L932.576 1111.09H927.508C926.199 1111.09 925.047 1111.21 924.051 1111.47C923.055 1111.7 922.225 1112.05 921.561 1112.52C920.896 1112.99 920.398 1113.56 920.066 1114.22C919.734 1114.89 919.568 1115.64 919.568 1116.48C919.568 1117.32 919.764 1118.09 920.154 1118.79C920.545 1119.48 921.111 1120.01 921.854 1120.4C922.615 1120.79 923.533 1120.99 924.607 1120.99C926.053 1120.99 927.312 1120.7 928.387 1120.11C929.48 1119.51 930.34 1118.77 930.965 1117.91C931.59 1117.04 931.922 1116.21 931.961 1115.42L934.246 1118.56C934.012 1119.36 933.611 1120.22 933.045 1121.14C932.479 1122.05 931.736 1122.93 930.818 1123.77C929.92 1124.59 928.836 1125.27 927.566 1125.79C926.316 1126.32 924.871 1126.59 923.23 1126.59C921.16 1126.59 919.314 1126.18 917.693 1125.36C916.072 1124.52 914.803 1123.39 913.885 1121.99C912.967 1120.56 912.508 1118.95 912.508 1117.15C912.508 1115.47 912.82 1113.99 913.445 1112.7C914.09 1111.39 915.027 1110.3 916.258 1109.42C917.508 1108.54 919.031 1107.88 920.828 1107.43C922.625 1106.96 924.676 1106.72 926.98 1106.72H932.518ZM953.523 1081V1126H946.434V1081H953.523ZM484.188 1153.34V1196H476.834V1153.34H484.188ZM499.627 1171.07V1196H492.566V1164.3H499.217L499.627 1171.07ZM498.367 1178.98L496.082 1178.95C496.102 1176.7 496.414 1174.64 497.02 1172.77C497.645 1170.89 498.504 1169.28 499.598 1167.93C500.711 1166.59 502.039 1165.55 503.582 1164.83C505.125 1164.09 506.844 1163.71 508.738 1163.71C510.262 1163.71 511.639 1163.93 512.869 1164.36C514.119 1164.77 515.184 1165.44 516.062 1166.38C516.961 1167.32 517.645 1168.54 518.113 1170.04C518.582 1171.53 518.816 1173.35 518.816 1175.52V1196H511.727V1175.49C511.727 1173.97 511.502 1172.77 511.053 1171.89C510.623 1170.99 509.988 1170.36 509.148 1169.98C508.328 1169.59 507.303 1169.4 506.072 1169.4C504.861 1169.4 503.777 1169.65 502.82 1170.16C501.863 1170.67 501.053 1171.36 500.389 1172.24C499.744 1173.12 499.246 1174.13 498.895 1175.29C498.543 1176.44 498.367 1177.67 498.367 1178.98ZM543.807 1187.42C543.807 1186.71 543.631 1186.08 543.279 1185.51C542.928 1184.93 542.254 1184.4 541.258 1183.93C540.281 1183.46 538.836 1183.03 536.922 1182.64C535.242 1182.27 533.699 1181.83 532.293 1181.32C530.906 1180.79 529.715 1180.16 528.719 1179.42C527.723 1178.68 526.951 1177.8 526.404 1176.78C525.857 1175.77 525.584 1174.59 525.584 1173.27C525.584 1171.98 525.867 1170.76 526.434 1169.6C527 1168.45 527.811 1167.44 528.865 1166.56C529.92 1165.68 531.199 1164.98 532.703 1164.48C534.227 1163.97 535.926 1163.71 537.801 1163.71C540.457 1163.71 542.732 1164.16 544.627 1165.06C546.541 1165.94 548.006 1167.14 549.021 1168.67C550.037 1170.17 550.545 1171.87 550.545 1173.76H543.484C543.484 1172.92 543.27 1172.14 542.84 1171.42C542.43 1170.68 541.805 1170.08 540.965 1169.63C540.125 1169.16 539.07 1168.93 537.801 1168.93C536.59 1168.93 535.584 1169.12 534.783 1169.52C534.002 1169.89 533.416 1170.38 533.025 1170.98C532.654 1171.59 532.469 1172.25 532.469 1172.97C532.469 1173.5 532.566 1173.98 532.762 1174.41C532.977 1174.82 533.328 1175.2 533.816 1175.55C534.305 1175.88 534.969 1176.2 535.809 1176.49C536.668 1176.78 537.742 1177.06 539.031 1177.34C541.453 1177.85 543.533 1178.5 545.271 1179.3C547.029 1180.08 548.377 1181.1 549.314 1182.35C550.252 1183.58 550.721 1185.14 550.721 1187.04C550.721 1188.44 550.418 1189.73 549.812 1190.9C549.227 1192.05 548.367 1193.06 547.234 1193.92C546.102 1194.76 544.744 1195.41 543.162 1195.88C541.6 1196.35 539.842 1196.59 537.889 1196.59C535.018 1196.59 532.586 1196.08 530.594 1195.06C528.602 1194.03 527.088 1192.71 526.053 1191.11C525.037 1189.49 524.529 1187.81 524.529 1186.07H531.355C531.434 1187.38 531.795 1188.42 532.439 1189.2C533.104 1189.96 533.924 1190.52 534.9 1190.87C535.896 1191.21 536.922 1191.37 537.977 1191.37C539.246 1191.37 540.311 1191.21 541.17 1190.87C542.029 1190.52 542.684 1190.05 543.133 1189.47C543.582 1188.86 543.807 1188.18 543.807 1187.42ZM575.975 1188.53V1164.3H583.064V1196H576.385L575.975 1188.53ZM576.971 1181.94L579.344 1181.88C579.344 1184.01 579.109 1185.97 578.641 1187.77C578.172 1189.54 577.449 1191.1 576.473 1192.43C575.496 1193.73 574.246 1194.76 572.723 1195.5C571.199 1196.22 569.373 1196.59 567.244 1196.59C565.701 1196.59 564.285 1196.36 562.996 1195.91C561.707 1195.46 560.594 1194.77 559.656 1193.83C558.738 1192.89 558.025 1191.67 557.518 1190.17C557.01 1188.67 556.756 1186.87 556.756 1184.78V1164.3H563.816V1184.84C563.816 1185.99 563.953 1186.96 564.227 1187.74C564.5 1188.5 564.871 1189.12 565.34 1189.58C565.809 1190.05 566.355 1190.38 566.98 1190.58C567.605 1190.78 568.27 1190.87 568.973 1190.87C570.984 1190.87 572.566 1190.48 573.719 1189.7C574.891 1188.9 575.721 1187.83 576.209 1186.48C576.717 1185.13 576.971 1183.62 576.971 1181.94ZM597.391 1170.34V1196H590.33V1164.3H597.068L597.391 1170.34ZM607.088 1164.1L607.029 1170.66C606.6 1170.58 606.131 1170.52 605.623 1170.48C605.135 1170.44 604.646 1170.42 604.158 1170.42C602.947 1170.42 601.883 1170.6 600.965 1170.95C600.047 1171.28 599.275 1171.77 598.65 1172.42C598.045 1173.04 597.576 1173.8 597.244 1174.7C596.912 1175.6 596.717 1176.61 596.658 1177.72L595.047 1177.84C595.047 1175.84 595.242 1174 595.633 1172.3C596.023 1170.6 596.609 1169.11 597.391 1167.82C598.191 1166.53 599.188 1165.52 600.379 1164.8C601.59 1164.08 602.986 1163.71 604.568 1163.71C604.998 1163.71 605.457 1163.75 605.945 1163.83C606.453 1163.91 606.834 1164 607.088 1164.1ZM628.328 1189.64V1174.53C628.328 1173.39 628.123 1172.42 627.713 1171.6C627.303 1170.78 626.678 1170.14 625.838 1169.69C625.018 1169.24 623.982 1169.02 622.732 1169.02C621.58 1169.02 620.584 1169.21 619.744 1169.6C618.904 1169.99 618.25 1170.52 617.781 1171.19C617.312 1171.85 617.078 1172.6 617.078 1173.44H610.047C610.047 1172.19 610.35 1170.98 610.955 1169.81C611.561 1168.64 612.439 1167.59 613.592 1166.67C614.744 1165.76 616.121 1165.03 617.723 1164.51C619.324 1163.98 621.121 1163.71 623.113 1163.71C625.496 1163.71 627.605 1164.12 629.441 1164.92C631.297 1165.72 632.752 1166.93 633.807 1168.55C634.881 1170.15 635.418 1172.16 635.418 1174.58V1188.68C635.418 1190.12 635.516 1191.42 635.711 1192.57C635.926 1193.71 636.229 1194.69 636.619 1195.53V1196H629.383C629.051 1195.24 628.787 1194.27 628.592 1193.1C628.416 1191.91 628.328 1190.76 628.328 1189.64ZM629.354 1176.72L629.412 1181.09H624.344C623.035 1181.09 621.883 1181.21 620.887 1181.47C619.891 1181.7 619.061 1182.05 618.396 1182.52C617.732 1182.99 617.234 1183.56 616.902 1184.22C616.57 1184.89 616.404 1185.64 616.404 1186.48C616.404 1187.32 616.6 1188.09 616.99 1188.79C617.381 1189.48 617.947 1190.01 618.689 1190.4C619.451 1190.79 620.369 1190.99 621.443 1190.99C622.889 1190.99 624.148 1190.7 625.223 1190.11C626.316 1189.51 627.176 1188.77 627.801 1187.91C628.426 1187.04 628.758 1186.21 628.797 1185.42L631.082 1188.56C630.848 1189.36 630.447 1190.22 629.881 1191.14C629.314 1192.05 628.572 1192.93 627.654 1193.77C626.756 1194.59 625.672 1195.27 624.402 1195.79C623.152 1196.32 621.707 1196.59 620.066 1196.59C617.996 1196.59 616.15 1196.18 614.529 1195.36C612.908 1194.52 611.639 1193.39 610.721 1191.99C609.803 1190.56 609.344 1188.95 609.344 1187.15C609.344 1185.47 609.656 1183.99 610.281 1182.7C610.926 1181.39 611.863 1180.3 613.094 1179.42C614.344 1178.54 615.867 1177.88 617.664 1177.43C619.461 1176.96 621.512 1176.72 623.816 1176.72H629.354ZM649.803 1171.07V1196H642.742V1164.3H649.393L649.803 1171.07ZM648.543 1178.98L646.258 1178.95C646.277 1176.7 646.59 1174.64 647.195 1172.77C647.82 1170.89 648.68 1169.28 649.773 1167.93C650.887 1166.59 652.215 1165.55 653.758 1164.83C655.301 1164.09 657.02 1163.71 658.914 1163.71C660.438 1163.71 661.814 1163.93 663.045 1164.36C664.295 1164.77 665.359 1165.44 666.238 1166.38C667.137 1167.32 667.82 1168.54 668.289 1170.04C668.758 1171.53 668.992 1173.35 668.992 1175.52V1196H661.902V1175.49C661.902 1173.97 661.678 1172.77 661.229 1171.89C660.799 1170.99 660.164 1170.36 659.324 1169.98C658.504 1169.59 657.479 1169.4 656.248 1169.4C655.037 1169.4 653.953 1169.65 652.996 1170.16C652.039 1170.67 651.229 1171.36 650.564 1172.24C649.92 1173.12 649.422 1174.13 649.07 1175.29C648.719 1176.44 648.543 1177.67 648.543 1178.98ZM689.148 1190.96C690.301 1190.96 691.336 1190.74 692.254 1190.29C693.191 1189.82 693.943 1189.17 694.51 1188.35C695.096 1187.53 695.418 1186.59 695.477 1185.51H702.127C702.088 1187.56 701.482 1189.43 700.311 1191.11C699.139 1192.79 697.586 1194.12 695.652 1195.12C693.719 1196.1 691.58 1196.59 689.236 1196.59C686.814 1196.59 684.705 1196.18 682.908 1195.36C681.111 1194.52 679.617 1193.36 678.426 1191.9C677.234 1190.43 676.336 1188.74 675.73 1186.83C675.145 1184.92 674.852 1182.87 674.852 1180.68V1179.65C674.852 1177.46 675.145 1175.41 675.73 1173.5C676.336 1171.57 677.234 1169.87 678.426 1168.4C679.617 1166.94 681.111 1165.79 682.908 1164.97C684.705 1164.13 686.805 1163.71 689.207 1163.71C691.746 1163.71 693.973 1164.22 695.887 1165.24C697.801 1166.23 699.305 1167.63 700.398 1169.43C701.512 1171.21 702.088 1173.28 702.127 1175.64H695.477C695.418 1174.47 695.125 1173.41 694.598 1172.47C694.09 1171.52 693.367 1170.76 692.43 1170.19C691.512 1169.62 690.408 1169.34 689.119 1169.34C687.693 1169.34 686.512 1169.63 685.574 1170.22C684.637 1170.79 683.904 1171.57 683.377 1172.56C682.85 1173.54 682.469 1174.64 682.234 1175.87C682.02 1177.08 681.912 1178.34 681.912 1179.65V1180.68C681.912 1181.99 682.02 1183.26 682.234 1184.49C682.449 1185.72 682.82 1186.82 683.348 1187.8C683.895 1188.75 684.637 1189.53 685.574 1190.11C686.512 1190.68 687.703 1190.96 689.148 1190.96ZM721.521 1196.59C719.178 1196.59 717.059 1196.21 715.164 1195.44C713.289 1194.66 711.688 1193.58 710.359 1192.19C709.051 1190.8 708.045 1189.17 707.342 1187.3C706.639 1185.42 706.287 1183.4 706.287 1181.23V1180.06C706.287 1177.58 706.648 1175.34 707.371 1173.32C708.094 1171.31 709.1 1169.59 710.389 1168.17C711.678 1166.72 713.201 1165.62 714.959 1164.86C716.717 1164.1 718.621 1163.71 720.672 1163.71C722.938 1163.71 724.92 1164.1 726.619 1164.86C728.318 1165.62 729.725 1166.69 730.838 1168.08C731.971 1169.45 732.811 1171.08 733.357 1172.97C733.924 1174.87 734.207 1176.96 734.207 1179.24V1182.26H709.715V1177.19H727.234V1176.63C727.195 1175.37 726.941 1174.17 726.473 1173.06C726.023 1171.95 725.33 1171.05 724.393 1170.37C723.455 1169.68 722.205 1169.34 720.643 1169.34C719.471 1169.34 718.426 1169.59 717.508 1170.1C716.609 1170.59 715.857 1171.3 715.252 1172.24C714.646 1173.18 714.178 1174.31 713.846 1175.64C713.533 1176.95 713.377 1178.42 713.377 1180.06V1181.23C713.377 1182.62 713.562 1183.91 713.934 1185.1C714.324 1186.27 714.891 1187.3 715.633 1188.18C716.375 1189.06 717.273 1189.75 718.328 1190.26C719.383 1190.75 720.584 1190.99 721.932 1190.99C723.631 1190.99 725.145 1190.65 726.473 1189.96C727.801 1189.28 728.953 1188.31 729.93 1187.06L733.65 1190.67C732.967 1191.66 732.078 1192.62 730.984 1193.54C729.891 1194.44 728.553 1195.17 726.971 1195.74C725.408 1196.3 723.592 1196.59 721.521 1196.59Z" fill="#1C4670"/>
</g>
<defs>
<filter id="filter0_d_627_757" x="145" y="156" width="212" height="213" filterUnits="userSpaceOnUse" color-interpolation-filters="sRGB">
<feFlood flood-opacity="0" result="BackgroundImageFix"/>
<feColorMatrix in="SourceAlpha" type="matrix" values="0 0 0 0 0 0 0 0 0 0 0 0 0 0 0 0 0 0 127 0" result="hardAlpha"/>
<feOffset dy="4"/>
<feGaussianBlur stdDeviation="9"/>
<feComposite in2="hardAlpha" operator="out"/>
<feColorMatrix type="matrix" values="0 0 0 0 0 0 0 0 0 0 0 0 0 0 0 0 0 0 0.25 0"/>
<feBlend mode="normal" in2="BackgroundImageFix" result="effect1_dropShadow_627_757"/>
<feBlend mode="normal" in="SourceGraphic" in2="effect1_dropShadow_627_757" result="shape"/>
</filter>
<filter id="filter1_d_627_757" x="149" y="452" width="205" height="206" filterUnits="userSpaceOnUse" color-interpolation-filters="sRGB">
<feFlood flood-opacity="0" result="BackgroundImageFix"/>
<feColorMatrix in="SourceAlpha" type="matrix" values="0 0 0 0 0 0 0 0 0 0 0 0 0 0 0 0 0 0 127 0" result="hardAlpha"/>
<feOffset dy="4"/>
<feGaussianBlur stdDeviation="9"/>
<feComposite in2="hardAlpha" operator="out"/>
<feColorMatrix type="matrix" values="0 0 0 0 0 0 0 0 0 0 0 0 0 0 0 0 0 0 0.25 0"/>
<feBlend mode="normal" in2="BackgroundImageFix" result="effect1_dropShadow_627_757"/>
<feBlend mode="normal" in="SourceGraphic" in2="effect1_dropShadow_627_757" result="shape"/>
</filter>
<filter id="filter2_d_627_757" x="152" y="739" width="201" height="200" filterUnits="userSpaceOnUse" color-interpolation-filters="sRGB">
<feFlood flood-opacity="0" result="BackgroundImageFix"/>
<feColorMatrix in="SourceAlpha" type="matrix" values="0 0 0 0 0 0 0 0 0 0 0 0 0 0 0 0 0 0 127 0" result="hardAlpha"/>
<feOffset dy="4"/>
<feGaussianBlur stdDeviation="9"/>
<feComposite in2="hardAlpha" operator="out"/>
<feColorMatrix type="matrix" values="0 0 0 0 0 0 0 0 0 0 0 0 0 0 0 0 0 0 0.25 0"/>
<feBlend mode="normal" in2="BackgroundImageFix" result="effect1_dropShadow_627_757"/>
<feBlend mode="normal" in="SourceGraphic" in2="effect1_dropShadow_627_757" result="shape"/>
</filter>
<filter id="filter3_d_627_757" x="145" y="1027" width="214" height="214" filterUnits="userSpaceOnUse" color-interpolation-filters="sRGB">
<feFlood flood-opacity="0" result="BackgroundImageFix"/>
<feColorMatrix in="SourceAlpha" type="matrix" values="0 0 0 0 0 0 0 0 0 0 0 0 0 0 0 0 0 0 127 0" result="hardAlpha"/>
<feOffset dy="4"/>
<feGaussianBlur stdDeviation="9"/>
<feComposite in2="hardAlpha" operator="out"/>
<feColorMatrix type="matrix" values="0 0 0 0 0 0 0 0 0 0 0 0 0 0 0 0 0 0 0.25 0"/>
<feBlend mode="normal" in2="BackgroundImageFix" result="effect1_dropShadow_627_757"/>
<feBlend mode="normal" in="SourceGraphic" in2="effect1_dropShadow_627_757" result="shape"/>
</filter>
<clipPath id="clip0_627_757">
<rect width="1016" height="1382" fill="white"/>
</clipPath>
</defs>
</svg>
