<svg width="1080" height="1080" viewBox="0 0 1080 1080" fill="none" xmlns="http://www.w3.org/2000/svg">
<g clip-path="url(#clip0_678_1024)">
<rect width="1080" height="1080" transform="translate(1080 1080) rotate(180)" fill="white"/>
<path d="M779.567 863.511C779.567 863.511 830.87 897.68 861.958 869.772C893.045 841.864 860.137 821.066 889.259 787.406C918.381 753.746 961.869 756.707 968.446 713.68C975.023 670.652 933.33 681.646 969.368 636.993C1005.41 592.339 987.69 463.743 936.558 476.314C885.425 488.885 904.669 607.361 891.759 622.213C878.848 637.065 846.426 626.339 842.276 657.887C838.126 689.436 857.686 728.483 834.074 748.238C810.461 767.992 765.176 813.203 779.567 863.511Z" fill="#1C4670"/>
<path d="M743.191 887.253C743.191 887.253 907.899 791.685 957.964 556.867" stroke="white" stroke-width="2" stroke-miterlimit="10"/>
<path d="M759.715 927.418C759.715 927.418 761.559 964.111 785.973 969.086C810.387 974.061 808.639 950.909 835.091 952.875C861.544 954.841 875.595 976.731 898.504 964.597C921.413 952.463 901.392 936.421 935.561 937.902C969.731 939.382 1024.92 885.094 1000.82 865.098C976.72 845.101 926.704 896.428 915.055 895.481C903.406 894.535 896.999 875.242 880.473 884.439C863.946 893.637 852.128 916.886 834.363 912.59C816.599 908.295 778.692 902.64 759.715 927.418Z" fill="#FFA229"/>
<path d="M749.645 921.38C749.645 921.38 847.032 953.753 977.764 885.172" stroke="white" stroke-width="2" stroke-miterlimit="10"/>
<path d="M771.973 920.87C771.973 920.87 803.036 959.092 833.395 945.138C863.755 931.184 843.539 907.523 873.729 888.691C903.918 869.859 936.437 882.454 951.629 851.172C966.821 819.891 932.409 818.386 970.51 792.929C1008.61 767.472 1025.38 665.036 983.469 662.488C941.558 659.94 928.089 754.973 914.742 763.225C901.394 771.476 879.165 755.604 868.632 778.659C858.1 801.714 863.779 836.199 840.967 845.688C818.155 855.176 772.895 879.008 771.973 920.87Z" fill="#FFBB6A"/>
<path d="M754.082 922.078C754.082 922.078 887.338 880.215 974.436 702.5" stroke="white" stroke-width="2" stroke-miterlimit="10"/>
<path d="M846.936 909.521C859.434 882.365 894.016 864.285 918.842 857.952C943.668 851.618 941.29 838.294 943.304 812.522C945.27 787.404 1001.55 736.466 1004.39 733.82C998.611 758.331 986.453 782.356 970.63 792.865C932.529 818.419 966.966 819.899 951.75 851.108C936.534 882.317 904.039 869.819 873.849 888.651C843.66 907.483 863.875 931.12 833.516 945.074C816.528 952.888 799.249 944.297 787.406 935.245C787.406 935.245 834.341 936.653 846.936 909.521Z" fill="#FFA229"/>
<path d="M430.666 863.517C430.666 863.517 379.387 897.686 348.276 869.778C317.164 841.869 350.096 821.072 320.998 787.412C291.901 753.752 248.388 756.713 241.811 713.71C235.235 670.707 276.903 681.676 240.865 637.023C204.827 592.369 222.664 463.846 273.7 476.344C324.736 488.842 305.564 607.391 318.474 622.243C331.385 637.095 363.831 626.345 367.957 657.893C372.083 689.442 352.547 728.489 376.184 748.243C399.821 767.997 445.081 813.209 430.666 863.517Z" fill="#1C4670"/>
<path d="M467.071 887.253C467.071 887.253 302.363 791.685 252.371 556.867" stroke="white" stroke-width="2" stroke-miterlimit="10"/>
<path d="M450.544 927.418C450.544 927.418 448.675 964.111 424.261 969.086C399.848 974.061 401.595 950.909 375.143 952.875C348.69 954.841 334.664 976.731 311.73 964.597C288.797 952.463 308.867 936.421 274.697 937.902C240.528 939.382 185.342 885.094 209.44 865.098C233.538 845.101 283.531 896.428 295.179 895.481C306.828 894.535 313.259 875.242 329.786 884.439C346.312 893.637 358.106 916.886 375.895 912.59C393.683 908.295 431.542 902.64 450.544 927.418Z" fill="#FFA229"/>
<path d="M460.589 921.38C460.589 921.38 363.201 953.753 232.469 885.172" stroke="white" stroke-width="2" stroke-miterlimit="10"/>
<path d="M438.262 920.87C438.262 920.87 407.199 959.092 376.84 945.138C346.48 931.184 366.72 907.523 336.531 888.691C306.341 869.859 273.822 882.454 258.606 851.172C243.39 819.891 277.826 818.386 239.75 792.929C201.673 767.472 184.855 665.036 226.766 662.488C268.677 659.94 282.146 754.973 295.493 763.225C308.841 771.476 331.095 755.604 341.603 778.659C352.111 801.714 346.456 836.199 369.268 845.688C392.08 855.176 437.34 879.008 438.262 920.87Z" fill="#FFBB6A"/>
<path d="M456.221 922.078C456.221 922.078 322.99 880.215 235.867 702.5" stroke="white" stroke-width="2" stroke-miterlimit="10"/>
<path d="M363.419 909.521C350.945 882.365 316.363 864.285 291.537 857.952C266.711 851.618 269.065 838.294 267.051 812.522C265.085 787.404 208.807 736.466 205.992 733.82C211.768 758.331 223.902 782.356 239.749 792.865C277.826 818.419 243.414 819.899 258.605 851.108C273.797 882.317 306.316 869.819 336.53 888.651C366.744 907.483 346.504 931.12 376.839 945.074C393.827 952.888 411.106 944.297 422.949 935.245C422.949 935.245 375.893 936.653 363.419 909.521Z" fill="#FFA229"/>
<g style="mix-blend-mode:multiply">
<path d="M602.627 1009.71C784.518 1009.71 931.969 1000.7 931.969 989.572C931.969 978.448 784.518 969.43 602.627 969.43C420.737 969.43 273.285 978.448 273.285 989.572C273.285 1000.7 420.737 1009.71 602.627 1009.71Z" fill="#E2E2E2"/>
</g>
<path d="M905.181 58.2578H301.683C292.998 58.2578 285.957 65.2985 285.957 73.9835V971.854C285.957 980.539 292.998 987.58 301.683 987.58H905.181C913.866 987.58 920.907 980.539 920.907 971.854V73.9835C920.907 65.2985 913.866 58.2578 905.181 58.2578Z" fill="#1C4670"/>
<path d="M885.523 90.6406H316V987.419H885.523V90.6406Z" fill="#FCFCFC"/>
<path d="M810.924 442.602H474.059V456.823H810.924V442.602Z" fill="#D9D9D9"/>
<path d="M810.924 498.797H474.059V513.018H810.924V498.797Z" fill="#D9D9D9"/>
<path d="M810.924 555.008H474.059V569.229H810.924V555.008Z" fill="#D9D9D9"/>
<path d="M810.924 611.227H474.059V625.448H810.924V611.227Z" fill="#D9D9D9"/>
<path d="M810.924 667.438H474.059V681.659H810.924V667.438Z" fill="#D9D9D9"/>
<path d="M810.924 723.633H474.059V737.854H810.924V723.633Z" fill="#D9D9D9"/>
<path d="M810.924 787.094H551.328V801.315H810.924V787.094Z" fill="#D9D9D9"/>
<path d="M810.924 843.328H551.328V857.549H810.924V843.328Z" fill="#D9D9D9"/>
<path d="M810.924 897.305H551.328V911.526H810.924V897.305Z" fill="#D9D9D9"/>
<path d="M440.347 441.484H376.668C374.524 441.484 372.785 443.223 372.785 445.367V509.047C372.785 511.191 374.524 512.93 376.668 512.93H440.347C442.492 512.93 444.23 511.191 444.23 509.047V445.367C444.23 443.223 442.492 441.484 440.347 441.484Z" fill="#D9D9D9"/>
<path d="M386.328 475.403L404.189 491.323L430.69 463.852" stroke="#28478F" stroke-width="3" stroke-miterlimit="10"/>
<path d="M440.347 553.93H376.668C374.524 553.93 372.785 555.668 372.785 557.813V621.492C372.785 623.636 374.524 625.375 376.668 625.375H440.347C442.492 625.375 444.23 623.636 444.23 621.492V557.813C444.23 555.668 442.492 553.93 440.347 553.93Z" fill="#D9D9D9"/>
<path d="M386.328 587.856L404.189 603.776L430.69 576.305" stroke="#FCFCFC" stroke-width="3" stroke-miterlimit="10"/>
<path d="M376.669 666.399H440.324C440.834 666.399 441.339 666.499 441.81 666.694C442.281 666.889 442.709 667.175 443.07 667.536C443.43 667.896 443.716 668.324 443.911 668.795C444.107 669.267 444.207 669.772 444.207 670.281V733.937C444.207 734.966 443.798 735.954 443.07 736.682C442.342 737.41 441.354 737.819 440.324 737.819H376.669C375.633 737.819 374.639 737.408 373.906 736.675C373.173 735.942 372.762 734.949 372.762 733.912V670.306C372.759 669.792 372.857 669.282 373.053 668.807C373.248 668.331 373.536 667.899 373.899 667.536C374.262 667.172 374.694 666.885 375.17 666.689C375.645 666.494 376.155 666.395 376.669 666.399Z" fill="#D9D9D9"/>
<path d="M386.328 700.317L404.189 716.237L430.69 688.766" stroke="#FCFCFC" stroke-width="3" stroke-miterlimit="10"/>
<path d="M408.363 966.422L394.094 945.624L369.219 949.677L406.64 862.094L445.809 878.839L408.363 966.422Z" fill="#FFDA78"/>
<path d="M384.336 914.24C384.887 915.268 385.609 916.196 386.472 916.982C390.791 920.768 398.606 919.53 404.066 921.836C409.526 924.141 414.064 930.669 419.792 931.179C421.079 931.267 422.372 931.111 423.602 930.718L445.807 878.784L406.638 862.039L384.336 914.24Z" fill="#E0AB67"/>
<path d="M456.387 966.422L470.657 945.624L495.531 949.677L458.11 862.094L418.941 878.839L456.387 966.422Z" fill="#FFDA78"/>
<path d="M480.485 914.249C479.942 915.283 479.219 916.212 478.35 916.991C474.03 920.777 466.216 919.54 460.755 921.845C455.295 924.151 450.757 930.679 445.054 931.188C443.766 931.277 442.473 931.12 441.244 930.727L418.941 878.745L458.086 862L480.485 914.249Z" fill="#E0AB67"/>
<path d="M506.258 856.367C506.258 863.647 498.977 869.763 496.745 876.363C494.512 882.964 496.745 892.453 492.692 898.205C488.639 903.956 478.981 904.563 473.278 908.761C467.575 912.96 464.08 921.793 457.212 924.026C450.344 926.259 442.651 921.09 435.371 921.09C428.09 921.09 420.009 926.162 413.408 924.026C406.807 921.89 403.07 912.911 397.367 908.761C391.664 904.612 382.078 903.908 377.953 898.205C373.827 892.502 376.157 883.256 373.924 876.363C371.691 869.471 364.387 863.696 364.387 856.367C364.387 849.038 371.788 842.995 373.924 836.394C376.06 829.793 373.803 820.304 377.953 814.553C382.102 808.801 391.688 808.194 397.367 803.996C403.046 799.798 406.565 790.964 413.408 788.731C420.252 786.499 427.969 791.668 435.371 791.668C442.773 791.668 450.733 786.596 457.212 788.731C463.692 790.867 467.575 799.846 473.278 803.996C478.981 808.146 488.566 808.85 492.692 814.553C496.818 820.256 494.512 829.502 496.745 836.394C498.977 843.286 506.258 849.062 506.258 856.367Z" fill="#FFA229"/>
<path d="M474.858 884.544C489.332 860.907 481.903 830.011 458.266 815.537C434.628 801.063 403.732 808.492 389.258 832.13C374.784 855.767 382.213 886.663 405.851 901.137C429.489 915.611 460.384 908.182 474.858 884.544Z" fill="#E0AB67"/>
<path d="M435.229 906.576C462.947 906.576 485.416 884.107 485.416 856.389C485.416 828.672 462.947 806.203 435.229 806.203C407.512 806.203 385.043 828.672 385.043 856.389C385.043 884.107 407.512 906.576 435.229 906.576Z" fill="#FFDA78"/>
<path d="M481.049 863.952C486.752 839.697 471.712 815.412 447.457 809.71C423.203 804.007 398.918 819.047 393.216 843.302C387.513 867.556 402.553 891.841 426.808 897.544C451.062 903.246 475.347 888.206 481.049 863.952Z" fill="#FFE68A"/>
<path d="M454.956 842.982C454.956 844.73 454.438 846.439 453.466 847.892C452.494 849.345 451.113 850.478 449.498 851.146C447.882 851.813 446.105 851.987 444.39 851.644C442.676 851.301 441.102 850.457 439.868 849.22C438.633 847.982 437.794 846.406 437.456 844.69C437.118 842.975 437.296 841.198 437.968 839.585C438.641 837.971 439.777 836.593 441.233 835.625C442.689 834.658 444.399 834.144 446.147 834.148C447.306 834.148 448.453 834.377 449.524 834.821C450.594 835.266 451.566 835.917 452.385 836.737C453.203 837.558 453.851 838.532 454.293 839.603C454.734 840.675 454.959 841.823 454.956 842.982Z" fill="#FFFFA6"/>
<path d="M431.954 791.71C432.512 791.71 433.07 791.71 433.629 791.71C427.513 791.127 421.033 787.778 415.379 788.458C420.621 788.943 426.421 791.71 431.954 791.71Z" fill="#FFDA78"/>
<path d="M431.954 921.039C426.518 921.039 420.718 923.83 415.379 924.388C421.033 925.068 427.513 921.719 433.629 921.136C432.973 921.088 432.415 921.039 431.954 921.039Z" fill="#FFDA78"/>
<path d="M496.748 836.395C494.516 829.552 496.748 820.305 492.696 814.554C488.643 808.802 478.984 808.196 473.281 803.997C467.578 799.799 464.084 790.965 457.216 788.733C455.471 788.204 453.633 788.063 451.828 788.32C452.521 788.383 453.204 788.521 453.867 788.733C460.71 790.965 464.205 799.848 469.908 803.997C475.611 808.147 485.197 808.851 489.322 814.554C493.448 820.257 491.118 829.503 493.351 836.395C495.583 843.287 502.888 849.063 502.888 856.368C502.888 863.673 495.486 869.764 493.351 876.365C491.215 882.966 493.472 892.454 489.322 898.206C485.172 903.958 475.587 904.564 469.908 908.763C464.229 912.961 460.71 921.795 453.867 924.027C453.204 924.239 452.521 924.377 451.828 924.44C453.633 924.697 455.471 924.556 457.216 924.027C464.084 921.795 467.578 912.912 473.281 908.763C478.984 904.613 488.57 903.909 492.696 898.206C496.821 892.503 494.516 883.257 496.748 876.365C498.981 869.473 506.261 863.697 506.261 856.368C506.261 849.039 498.884 842.996 496.748 836.395Z" fill="#FFDA78"/>
<path d="M466.608 175.984V203H461.524V175.984H466.608ZM474.995 175.984V180.011H453.23V175.984H474.995ZM486.462 203H480.636L480.673 198.992H486.462C488.033 198.992 489.35 198.646 490.414 197.953C491.478 197.248 492.282 196.24 492.826 194.929C493.37 193.605 493.643 192.022 493.643 190.179V188.787C493.643 187.365 493.488 186.109 493.179 185.021C492.869 183.932 492.412 183.017 491.806 182.274C491.212 181.532 490.476 180.969 489.598 180.586C488.719 180.202 487.711 180.011 486.573 180.011H480.524V175.984H486.573C488.379 175.984 490.024 176.287 491.509 176.894C493.006 177.5 494.298 178.372 495.387 179.51C496.488 180.635 497.329 181.984 497.91 183.555C498.504 185.126 498.801 186.882 498.801 188.824V190.179C498.801 192.108 498.504 193.865 497.91 195.448C497.329 197.019 496.488 198.368 495.387 199.493C494.298 200.619 492.999 201.485 491.49 202.091C489.981 202.697 488.305 203 486.462 203ZM483.493 175.984V203H478.391V175.984H483.493ZM517.281 195.986C517.281 195.467 517.201 195.003 517.04 194.595C516.892 194.174 516.613 193.797 516.205 193.463C515.809 193.117 515.246 192.783 514.517 192.461C513.799 192.127 512.871 191.781 511.733 191.422C510.472 191.026 509.297 190.581 508.208 190.086C507.119 189.591 506.161 189.016 505.332 188.36C504.516 187.705 503.879 186.95 503.421 186.097C502.963 185.231 502.734 184.229 502.734 183.091C502.734 181.978 502.969 180.963 503.439 180.048C503.922 179.132 504.602 178.347 505.48 177.691C506.359 177.023 507.392 176.51 508.579 176.151C509.779 175.793 511.103 175.613 512.55 175.613C514.554 175.613 516.285 175.978 517.745 176.708C519.217 177.438 520.355 178.427 521.159 179.677C521.963 180.926 522.365 182.33 522.365 183.889H517.281C517.281 183.048 517.102 182.305 516.743 181.662C516.397 181.019 515.865 180.512 515.147 180.141C514.442 179.77 513.552 179.584 512.476 179.584C511.437 179.584 510.571 179.739 509.878 180.048C509.198 180.357 508.684 180.778 508.338 181.31C508.004 181.841 507.837 182.435 507.837 183.091C507.837 183.586 507.954 184.031 508.189 184.427C508.424 184.81 508.777 185.175 509.247 185.521C509.717 185.855 510.299 186.171 510.991 186.468C511.696 186.752 512.513 187.037 513.44 187.321C514.925 187.767 516.224 188.261 517.337 188.806C518.463 189.35 519.396 189.968 520.139 190.661C520.893 191.354 521.456 192.133 521.827 192.999C522.211 193.865 522.402 194.848 522.402 195.949C522.402 197.112 522.174 198.151 521.716 199.066C521.258 199.982 520.603 200.761 519.749 201.404C518.896 202.048 517.869 202.536 516.669 202.87C515.481 203.204 514.152 203.371 512.68 203.371C511.368 203.371 510.07 203.198 508.783 202.852C507.509 202.493 506.353 201.961 505.313 201.256C504.274 200.538 503.446 199.635 502.827 198.547C502.209 197.446 501.899 196.16 501.899 194.688H507.021C507.021 195.541 507.157 196.271 507.429 196.877C507.713 197.471 508.109 197.959 508.616 198.343C509.136 198.714 509.742 198.986 510.435 199.159C511.127 199.332 511.876 199.419 512.68 199.419C513.719 199.419 514.572 199.277 515.24 198.992C515.921 198.695 516.428 198.287 516.762 197.768C517.108 197.248 517.281 196.654 517.281 195.986Z" fill="#FFA229"/>
<path d="M535.799 175.984H545.614C547.668 175.984 549.43 176.294 550.902 176.912C552.374 177.531 553.506 178.446 554.298 179.658C555.09 180.87 555.485 182.361 555.485 184.13C555.485 185.528 555.238 186.74 554.743 187.767C554.248 188.793 553.549 189.653 552.646 190.346C551.756 191.038 550.704 191.583 549.492 191.979L547.896 192.795H539.231L539.194 188.769H545.67C546.721 188.769 547.593 188.583 548.286 188.212C548.979 187.841 549.498 187.327 549.845 186.672C550.203 186.016 550.383 185.268 550.383 184.427C550.383 183.524 550.21 182.744 549.863 182.089C549.517 181.421 548.991 180.908 548.286 180.549C547.581 180.19 546.69 180.011 545.614 180.011H540.901V203H535.799V175.984ZM551.051 203L544.798 190.902L550.197 190.884L556.524 202.74V203H551.051ZM568.604 203.371C567.082 203.371 565.715 203.124 564.503 202.629C563.291 202.134 562.258 201.448 561.404 200.569C560.563 199.679 559.914 198.646 559.456 197.471C559.011 196.283 558.788 195.009 558.788 193.648V192.906C558.788 191.36 559.011 189.956 559.456 188.694C559.901 187.42 560.532 186.326 561.349 185.41C562.165 184.495 563.142 183.79 564.28 183.295C565.418 182.8 566.674 182.553 568.047 182.553C569.469 182.553 570.725 182.794 571.813 183.276C572.902 183.746 573.811 184.414 574.541 185.28C575.271 186.146 575.821 187.185 576.192 188.397C576.563 189.597 576.749 190.927 576.749 192.387V194.446H561.015V191.069H571.925V190.698C571.9 189.919 571.752 189.208 571.479 188.564C571.207 187.909 570.787 187.389 570.218 187.006C569.649 186.61 568.913 186.412 568.01 186.412C567.28 186.412 566.643 186.573 566.099 186.895C565.567 187.204 565.121 187.649 564.763 188.23C564.416 188.799 564.157 189.48 563.983 190.271C563.81 191.063 563.724 191.941 563.724 192.906V193.648C563.724 194.49 563.835 195.269 564.058 195.986C564.293 196.704 564.633 197.328 565.078 197.86C565.536 198.38 566.08 198.788 566.711 199.085C567.354 199.369 568.084 199.512 568.9 199.512C569.927 199.512 570.855 199.314 571.684 198.918C572.525 198.51 573.255 197.91 573.873 197.118L576.341 199.679C575.92 200.297 575.351 200.891 574.634 201.46C573.929 202.029 573.075 202.493 572.073 202.852C571.071 203.198 569.915 203.371 568.604 203.371ZM589.533 182.924V186.449H578.029V182.924H589.533ZM581.109 177.988H586.026V197.211C586.026 197.805 586.107 198.262 586.268 198.584C586.428 198.906 586.67 199.122 586.991 199.233C587.313 199.345 587.696 199.4 588.142 199.4C588.463 199.4 588.76 199.382 589.032 199.345C589.304 199.308 589.533 199.271 589.719 199.233L589.737 202.907C589.329 203.043 588.865 203.155 588.346 203.241C587.839 203.328 587.263 203.371 586.62 203.371C585.519 203.371 584.554 203.186 583.726 202.814C582.897 202.431 582.254 201.819 581.796 200.978C581.338 200.124 581.109 198.998 581.109 197.601V177.988ZM604.748 198.231V182.924H609.684V203H605.045L604.748 198.231ZM605.379 194.075L606.9 194.038C606.9 195.386 606.752 196.63 606.455 197.768C606.158 198.906 605.694 199.895 605.063 200.736C604.445 201.565 603.66 202.215 602.707 202.685C601.755 203.142 600.629 203.371 599.33 203.371C598.34 203.371 597.438 203.235 596.621 202.963C595.805 202.678 595.1 202.239 594.506 201.646C593.924 201.039 593.473 200.266 593.151 199.326C592.83 198.374 592.669 197.229 592.669 195.894V182.924H597.567V195.931C597.567 196.599 597.642 197.155 597.79 197.601C597.951 198.046 598.167 198.411 598.439 198.695C598.724 198.967 599.052 199.165 599.423 199.289C599.806 199.4 600.215 199.456 600.647 199.456C601.835 199.456 602.769 199.221 603.449 198.751C604.142 198.269 604.637 197.625 604.934 196.821C605.23 196.005 605.379 195.09 605.379 194.075ZM618.924 187.024V203H614.025V182.924H618.664L618.924 187.024ZM625.028 182.794L624.954 187.358C624.682 187.309 624.373 187.272 624.026 187.247C623.692 187.222 623.377 187.21 623.08 187.21C622.326 187.21 621.664 187.315 621.095 187.525C620.526 187.723 620.049 188.014 619.666 188.397C619.295 188.781 619.01 189.251 618.812 189.808C618.615 190.352 618.503 190.97 618.479 191.663L617.421 191.533C617.421 190.259 617.551 189.078 617.811 187.989C618.07 186.901 618.448 185.948 618.942 185.132C619.437 184.315 620.056 183.685 620.798 183.239C621.552 182.782 622.418 182.553 623.396 182.553C623.668 182.553 623.958 182.577 624.268 182.627C624.589 182.664 624.843 182.72 625.028 182.794ZM632.524 187.21V203H627.626V182.924H632.228L632.524 187.21ZM631.745 192.238H630.298C630.31 190.779 630.508 189.455 630.892 188.268C631.275 187.08 631.813 186.06 632.506 185.206C633.211 184.353 634.046 183.697 635.011 183.239C635.976 182.782 637.052 182.553 638.239 182.553C639.204 182.553 640.076 182.689 640.855 182.961C641.635 183.233 642.303 183.666 642.859 184.26C643.428 184.854 643.861 185.633 644.158 186.598C644.467 187.55 644.622 188.725 644.622 190.123V203H639.687V190.086C639.687 189.171 639.55 188.447 639.278 187.915C639.019 187.383 638.635 187.006 638.128 186.783C637.633 186.561 637.021 186.449 636.291 186.449C635.536 186.449 634.875 186.604 634.306 186.913C633.749 187.21 633.279 187.624 632.896 188.156C632.524 188.688 632.24 189.3 632.042 189.993C631.844 190.686 631.745 191.434 631.745 192.238ZM663.882 175.984V203H658.779V175.984H663.882ZM674.773 187.655V191.682H662.546V187.655H674.773ZM676.202 175.984V180.011H662.546V175.984H676.202ZM684.496 182.924V203H679.579V182.924H684.496ZM679.245 177.673C679.245 176.943 679.493 176.337 679.987 175.854C680.494 175.372 681.175 175.131 682.028 175.131C682.882 175.131 683.556 175.372 684.051 175.854C684.558 176.337 684.812 176.943 684.812 177.673C684.812 178.39 684.558 178.99 684.051 179.473C683.556 179.955 682.882 180.196 682.028 180.196C681.175 180.196 680.494 179.955 679.987 179.473C679.493 178.99 679.245 178.39 679.245 177.673ZM694.367 174.5V203H689.45V174.5H694.367ZM704.238 182.924V203H699.321V182.924H704.238ZM698.987 177.673C698.987 176.943 699.235 176.337 699.729 175.854C700.237 175.372 700.917 175.131 701.771 175.131C702.624 175.131 703.298 175.372 703.793 175.854C704.3 176.337 704.554 176.943 704.554 177.673C704.554 178.39 704.3 178.99 703.793 179.473C703.298 179.955 702.624 180.196 701.771 180.196C700.917 180.196 700.237 179.955 699.729 179.473C699.235 178.99 698.987 178.39 698.987 177.673ZM713.72 187.21V203H708.821V182.924H713.423L713.72 187.21ZM712.94 192.238H711.493C711.506 190.779 711.703 189.455 712.087 188.268C712.47 187.08 713.008 186.06 713.701 185.206C714.406 184.353 715.241 183.697 716.206 183.239C717.171 182.782 718.247 182.553 719.435 182.553C720.399 182.553 721.271 182.689 722.051 182.961C722.83 183.233 723.498 183.666 724.055 184.26C724.624 184.854 725.057 185.633 725.354 186.598C725.663 187.55 725.817 188.725 725.817 190.123V203H720.882V190.086C720.882 189.171 720.746 188.447 720.474 187.915C720.214 187.383 719.83 187.006 719.323 186.783C718.828 186.561 718.216 186.449 717.486 186.449C716.732 186.449 716.07 186.604 715.501 186.913C714.944 187.21 714.474 187.624 714.091 188.156C713.72 188.688 713.435 189.3 713.237 189.993C713.039 190.686 712.94 191.434 712.94 192.238ZM742.906 182.924H747.359V202.388C747.359 204.206 746.964 205.746 746.172 207.008C745.393 208.282 744.298 209.247 742.888 209.902C741.478 210.57 739.839 210.904 737.971 210.904C737.167 210.904 736.295 210.793 735.354 210.57C734.427 210.348 733.53 209.995 732.664 209.513C731.811 209.043 731.099 208.43 730.53 207.676L732.738 204.781C733.406 205.561 734.161 206.148 735.002 206.544C735.843 206.952 736.752 207.156 737.729 207.156C738.719 207.156 739.56 206.971 740.253 206.6C740.958 206.241 741.496 205.709 741.867 205.004C742.251 204.311 742.442 203.458 742.442 202.443V187.507L742.906 182.924ZM729.343 193.203V192.813C729.343 191.28 729.528 189.888 729.899 188.639C730.271 187.377 730.802 186.295 731.495 185.392C732.2 184.489 733.048 183.79 734.037 183.295C735.039 182.8 736.165 182.553 737.414 182.553C738.738 182.553 739.851 182.794 740.754 183.276C741.669 183.759 742.424 184.445 743.018 185.336C743.624 186.227 744.094 187.284 744.428 188.509C744.774 189.721 745.04 191.057 745.226 192.517V193.574C745.052 194.997 744.774 196.302 744.391 197.489C744.02 198.677 743.525 199.716 742.906 200.606C742.288 201.485 741.521 202.165 740.605 202.647C739.69 203.13 738.614 203.371 737.377 203.371C736.14 203.371 735.027 203.118 734.037 202.61C733.048 202.103 732.2 201.392 731.495 200.477C730.802 199.561 730.271 198.485 729.899 197.248C729.528 196.011 729.343 194.663 729.343 193.203ZM734.241 192.813V193.203C734.241 194.069 734.328 194.879 734.501 195.634C734.674 196.388 734.94 197.056 735.299 197.638C735.658 198.207 736.109 198.652 736.653 198.974C737.198 199.295 737.847 199.456 738.602 199.456C739.616 199.456 740.445 199.246 741.088 198.825C741.743 198.392 742.238 197.805 742.572 197.062C742.919 196.308 743.141 195.461 743.24 194.521V191.607C743.178 190.865 743.042 190.179 742.832 189.548C742.634 188.917 742.356 188.373 741.997 187.915C741.638 187.457 741.181 187.099 740.624 186.839C740.067 186.579 739.406 186.449 738.639 186.449C737.896 186.449 737.247 186.616 736.69 186.95C736.134 187.272 735.676 187.723 735.317 188.305C734.959 188.886 734.687 189.56 734.501 190.327C734.328 191.094 734.241 191.923 734.241 192.813Z" fill="#1C4670"/>
<path d="M709.82 53.1618H671.961C668.236 37.9916 659.532 24.5088 647.239 14.8697C634.947 5.23062 619.777 -0.0078125 604.156 -0.0078125C588.536 -0.0078125 573.366 5.23062 561.074 14.8697C548.781 24.5088 540.076 37.9916 536.351 53.1618H498.469C497.774 53.1618 497.087 53.2997 496.446 53.5677C495.805 53.8357 495.224 54.2283 494.736 54.7228C494.249 55.2173 493.864 55.8038 493.605 56.4482C493.346 57.0926 493.217 57.7821 493.227 58.4765V92.8159C493.227 94.2061 493.779 95.5394 494.762 96.5225C495.745 97.5055 497.079 98.0578 498.469 98.0578H709.82C710.51 98.061 711.194 97.9277 711.833 97.6657C712.472 97.4037 713.053 97.0181 713.542 96.5311C714.031 96.044 714.42 95.465 714.685 94.8275C714.949 94.1899 715.086 93.5063 715.086 92.8159V58.4765C715.092 57.7809 714.961 57.0909 714.699 56.4463C714.437 55.8018 714.05 55.2155 713.561 54.7214C713.071 54.2272 712.488 53.835 711.846 53.5673C711.204 53.2996 710.515 53.1618 709.82 53.1618ZM591.149 40.6395C591.14 38.1827 591.85 35.7771 593.192 33.7188C594.533 31.6605 596.447 30.0394 598.698 29.0552C600.949 28.0709 603.439 27.7665 605.86 28.1794C608.282 28.5922 610.53 29.7043 612.328 31.3788C614.126 33.0532 615.395 35.2169 615.978 37.6033C616.562 39.9898 616.435 42.4948 615.613 44.81C614.791 47.1251 613.31 49.1493 611.352 50.6332C609.394 52.1172 607.044 52.9961 604.593 53.1618H602.895C599.712 52.9583 596.726 51.5504 594.544 49.2243C592.363 46.8983 591.148 43.8287 591.149 40.6395Z" fill="#FFA229"/>
<path d="M698.22 79.9219H589.402C587.258 79.9219 585.52 81.6603 585.52 83.8048V86.5471C585.52 88.6915 587.258 90.4299 589.402 90.4299H698.22C700.365 90.4299 702.103 88.6915 702.103 86.5471V83.8048C702.103 81.6603 700.365 79.9219 698.22 79.9219Z" fill="#FAD282"/>
<path d="M606.682 0.242388C605.833 0.242388 605.032 0.242388 604.255 0.242388C588.644 0.205012 573.47 5.39715 561.154 14.9904C548.838 24.5837 540.09 38.0254 536.305 53.1711H541.304C544.974 38.4452 553.34 25.3148 565.135 15.7654C576.931 6.21608 591.515 0.767078 606.682 0.242388Z" fill="#E0AB67"/>
<path d="M616.392 40.65C616.386 43.5449 615.376 46.348 613.535 48.5824C611.695 50.8167 609.137 52.3444 606.297 52.9054C606.848 53.0317 607.408 53.1209 607.971 53.1724H609.646C612.913 52.97 615.971 51.5015 618.172 49.0792C620.373 46.6569 621.543 43.4717 621.432 40.2007C621.322 36.9297 619.94 33.8308 617.58 31.5627C615.22 29.2946 612.069 28.0362 608.796 28.0549C607.981 28.0632 607.168 28.1526 606.37 28.3218C609.202 28.9128 611.745 30.461 613.57 32.7062C615.395 34.9514 616.392 37.7565 616.392 40.65Z" fill="#E0AB67"/>
<path d="M498.23 92.8078V58.4685C498.236 57.076 498.794 55.7428 499.781 54.7604C500.768 53.778 502.103 53.2265 503.496 53.2266H498.472C497.082 53.2266 495.749 53.7788 494.766 54.7619C493.783 55.7449 493.23 57.0782 493.23 58.4685V92.8078C493.23 94.198 493.783 95.5313 494.766 96.5144C495.749 97.4974 497.082 98.0497 498.472 98.0497H503.496C502.805 98.0529 502.121 97.9197 501.482 97.6577C500.844 97.3957 500.263 97.0101 499.774 96.523C499.284 96.0359 498.896 95.457 498.631 94.8194C498.366 94.1818 498.23 93.4982 498.23 92.8078Z" fill="#E0AB67"/>
<path d="M601.388 28.277C599.697 27.9376 597.954 27.9499 596.268 28.3131C594.582 28.6762 592.988 29.3825 591.587 30.388C590.185 31.3935 589.006 32.6767 588.121 34.1577C587.237 35.6386 586.667 37.2857 586.447 38.9965C586.226 40.7072 586.361 42.445 586.841 44.1017C587.321 45.7584 588.137 47.2986 589.238 48.6263C590.339 49.9541 591.701 51.0411 593.241 51.8196C594.78 52.5981 596.463 53.0516 598.185 53.1518H599.883C600.39 53.1065 600.893 53.0254 601.388 52.9091C598.508 52.3797 595.904 50.8577 594.03 48.6075C592.156 46.3574 591.129 43.5215 591.129 40.593C591.129 37.6645 592.156 34.8287 594.03 32.5786C595.904 30.3284 598.508 28.8063 601.388 28.277Z" fill="#FAD282"/>
<path d="M667.356 53.1549H672.088C668.346 37.991 659.633 24.5175 647.339 14.8845C635.044 5.25137 619.878 0.0138993 604.259 0.0078125C603.458 0.0078125 602.681 0.0078125 601.832 0.0078125C617.055 0.510264 631.696 5.97517 643.525 15.5699C655.355 25.1647 663.723 38.3633 667.356 53.1549Z" fill="#FAD282"/>
<path d="M709.821 53.1563H705.113C705.808 53.1562 706.495 53.2941 707.136 53.5621C707.777 53.8301 708.358 54.2227 708.846 54.7172C709.334 55.2117 709.718 55.7982 709.977 56.4426C710.236 57.087 710.365 57.7765 710.355 58.471V92.8103C710.358 93.4996 710.225 94.1826 709.963 94.8201C709.7 95.4575 709.314 96.0366 708.827 96.524C708.34 97.0114 707.76 97.3974 707.123 97.6597C706.486 97.922 705.803 98.0554 705.113 98.0522H709.821C710.512 98.0554 711.196 97.9222 711.835 97.6602C712.474 97.3982 713.054 97.0126 713.544 96.5255C714.033 96.0384 714.421 95.4595 714.686 94.8219C714.951 94.1843 715.088 93.5007 715.087 92.8103V58.471C715.094 57.7753 714.962 57.0853 714.701 56.4408C714.439 55.7962 714.052 55.21 713.562 54.7158C713.073 54.2216 712.49 53.8294 711.848 53.5617C711.206 53.294 710.517 53.1562 709.821 53.1563Z" fill="#FAD282"/>
<path d="M885.133 90.6406V987.419H858.777L885.133 90.6406Z" fill="#D9D9D9"/>
<g style="mix-blend-mode:multiply">
<path d="M855.768 1061.56C855.768 1072.7 811.236 1081.72 756.269 1081.72C701.301 1081.72 656.77 1072.7 656.77 1061.56C656.77 1050.42 701.301 1041.41 756.269 1041.41C811.236 1041.41 855.768 1050.44 855.768 1061.56Z" fill="#E2E2E2"/>
</g>
<path d="M821.747 528.641C834.051 540.314 844.146 550.288 848.684 555.141C849.533 556.034 850.159 557.115 850.509 558.297C850.859 559.478 850.924 560.725 850.698 561.936C847.301 580.38 815.413 628.771 804.322 646.05L786.121 634.838C786.121 634.838 814.418 573.779 812.962 567.057C812.962 567.057 806.433 562.81 796.653 555.36" fill="#FAC0AC"/>
<path d="M793.69 558.398C781.556 549.176 767.626 531.946 751.973 514.886C748.23 510.781 745.411 505.92 743.708 500.633C742.004 495.345 741.454 489.753 742.096 484.235C743.771 473.63 758.938 476.955 758.938 476.955C776.12 490.618 803.81 511.561 821.744 528.524" fill="#FFA229"/>
<path d="M693.514 643.435L693.441 866.629L715.38 1055L741.177 1053.27L739.672 865.003L797.527 631.398L693.514 643.435Z" fill="#1C4670"/>
<path d="M745.395 648.484L777.647 879.104L832.396 1055.24L846.617 1039.3L819.509 874.08L808.807 688.697L805.992 652.828L745.395 648.484Z" fill="#1C4670"/>
<path d="M714.915 1047.06C712.342 1047.06 689.894 1059 677.348 1065.77C676.771 1066.08 676.307 1066.56 676.024 1067.15C675.74 1067.74 675.651 1068.41 675.77 1069.05C675.889 1069.69 676.209 1070.28 676.685 1070.73C677.16 1071.18 677.767 1071.47 678.415 1071.55L709.551 1075.58L720.059 1073.51C721.285 1073.27 722.549 1073.29 723.769 1073.56C724.989 1073.83 726.139 1074.35 727.146 1075.09L730.665 1077.69C731.459 1078.27 732.424 1078.57 733.407 1078.54L737.799 1078.37C738.372 1078.35 738.935 1078.22 739.457 1077.98C739.978 1077.74 740.448 1077.4 740.838 1076.98C741.228 1076.57 741.532 1076.07 741.731 1075.54C741.93 1075 742.021 1074.43 741.998 1073.85L740.784 1043.88L714.915 1047.06Z" fill="#28478F"/>
<path d="M846.596 1038.7C843.417 1038.7 809.199 1046.76 795.367 1050.06C794.978 1050.16 794.629 1050.37 794.371 1050.68C794.112 1050.98 793.957 1051.36 793.927 1051.76C793.897 1052.16 793.995 1052.56 794.206 1052.9C794.416 1053.24 794.729 1053.5 795.1 1053.65L816.941 1062.56L824.974 1062.85C826.431 1062.89 827.846 1063.35 829.05 1064.17C830.255 1064.99 831.198 1066.14 831.769 1067.49C832.034 1068.08 832.509 1068.55 833.103 1068.82L835.53 1069.91C836.37 1070.3 837.305 1070.45 838.224 1070.32L847.713 1069.16C849.012 1069 850.196 1068.33 851.012 1067.31C851.828 1066.28 852.212 1064.98 852.081 1063.67L846.596 1038.7Z" fill="#28478F"/>
<path d="M468.496 443.521L515.503 409.594L529.967 424.422L482.232 458.882L468.496 443.521Z" fill="#28478F"/>
<path d="M466.146 446.258L458.672 465.138L479.009 460.382L466.146 446.258Z" fill="#FAC0AC"/>
<path d="M486.849 449.037C487.41 451.211 487.301 453.503 486.534 455.613C485.767 457.723 484.38 459.551 482.554 460.857C480.728 462.163 478.55 462.885 476.306 462.929C474.061 462.973 471.856 462.337 469.981 461.104C468.105 459.87 466.647 458.098 465.798 456.02C464.949 453.942 464.749 451.655 465.225 449.462C465.701 447.268 466.829 445.269 468.463 443.73C470.096 442.19 472.157 441.18 474.375 440.835C477.116 440.282 479.964 440.833 482.3 442.369C484.636 443.905 486.271 446.302 486.849 449.037Z" fill="#28478F"/>
<path d="M533.636 415.229C534.193 417.403 534.078 419.694 533.308 421.802C532.537 423.909 531.147 425.734 529.319 427.036C527.492 428.339 525.313 429.057 523.069 429.098C520.826 429.139 518.622 428.499 516.749 427.264C514.876 426.028 513.421 424.255 512.574 422.176C511.728 420.098 511.531 417.812 512.009 415.619C512.486 413.427 513.616 411.43 515.25 409.892C516.884 408.354 518.945 407.346 521.163 407.002C523.907 406.443 526.762 406.995 529.1 408.537C531.438 410.079 533.069 412.486 533.636 415.229Z" fill="#FAC0AC"/>
<path d="M527.226 415.683C527.427 416.48 527.382 417.32 527.097 418.091C526.812 418.862 526.3 419.529 525.629 420.004C524.958 420.479 524.16 420.741 523.338 420.754C522.516 420.767 521.709 420.531 521.023 420.078C520.338 419.624 519.805 418.974 519.495 418.213C519.186 417.451 519.114 416.614 519.289 415.81C519.463 415.007 519.877 414.275 520.475 413.711C521.073 413.147 521.828 412.777 522.64 412.65C523.14 412.547 523.656 412.544 524.157 412.641C524.659 412.738 525.136 412.933 525.563 413.215C525.989 413.496 526.355 413.859 526.64 414.283C526.926 414.707 527.125 415.182 527.226 415.683Z" fill="#28478F"/>
<path d="M460.566 460.328L458.648 465.182L464.157 463.896C462.674 463.034 461.437 461.806 460.566 460.328Z" fill="#28478F"/>
<path d="M509.074 436.044C507.902 436.282 506.689 436.215 505.55 435.85C504.411 435.484 503.385 434.833 502.57 433.957C496.6 427.526 492.693 419.906 489.271 421.556C485.34 423.425 487.743 425.512 484.418 427.939C483.35 428.691 479.928 427.939 479.224 430.608C478.521 433.278 478.448 435.899 475.973 437.889C473.497 439.879 474.953 446.116 475.803 448.251C477.052 450.417 478.632 452.374 480.486 454.051C485.519 459.132 491.485 463.195 498.057 466.016C504.56 468.612 511.064 461.526 515.044 454.755C518.102 449.635 515.432 435.025 515.432 435.025C513.167 435.349 511.048 435.689 509.074 436.044Z" fill="#FAC0AC"/>
<path d="M490.121 421.372L500.411 420.547L494.319 424.915L490.121 421.372Z" fill="#FAC0AC"/>
<path d="M654.636 426.312L649.54 438.665C649.364 439.222 649.416 439.825 649.685 440.344C649.953 440.862 650.416 441.253 650.971 441.432L656.48 443.252L654.636 426.312Z" fill="#FAC0AC"/>
<path d="M593.625 533.885L673.71 552.547C682.616 553.882 679.17 487.703 679.17 487.703L636.434 493.115L604.449 491.902" fill="#FFA229"/>
<path d="M680.091 487.602L680.527 487.335C684.58 484.908 681.619 451.952 676.645 443.943L705.111 392.641C706.715 414.182 710.216 435.539 715.571 456.466C716.9 460.562 719.045 464.348 721.877 467.592C724.709 470.837 728.169 473.475 732.049 475.346" fill="#FAC0AC"/>
<path d="M692.687 458.6L696.765 437.633C696.765 437.633 690.042 451.66 689.969 452.461C689.897 453.261 682.349 459.741 681.16 460.809C682.107 467.951 682.488 475.157 682.301 482.359L692.687 458.6Z" fill="#E69E96"/>
<path d="M659.125 462.921C659.257 463.915 659.714 464.838 660.425 465.544C661.136 466.251 662.062 466.703 663.057 466.828C685.941 469.109 717.684 430.159 714.408 406.886C712.782 395.189 699.847 391.427 687.713 390.214C668.93 388.345 654.805 387.787 653.301 421.762C653.277 422.029 659.125 462.921 659.125 462.921Z" fill="#FAC0AC"/>
<path d="M655.871 403.937L653.153 399.544C651.775 397.336 651.065 394.776 651.107 392.174C651.149 389.571 651.942 387.036 653.39 384.873C654.838 382.71 656.88 381.011 659.27 379.98C661.66 378.949 664.297 378.631 666.864 379.062C696.811 384.158 722.317 392.312 722.098 406.582C721.443 445.411 716.298 455.749 716.298 455.749C716.298 455.749 699.772 464.825 695.743 432.209C682.687 442.596 676.717 409.834 676.717 409.834C676.159 404.713 663.248 405.66 655.871 403.937Z" fill="black"/>
<path d="M698.756 434.995C697.033 439.582 692.762 442.276 689.267 441.135C685.773 439.994 684.414 435.262 686.088 430.676C687.763 426.089 692.083 423.395 695.577 424.56C699.072 425.725 700.504 430.433 698.756 434.995Z" fill="#FAC0AC"/>
<path d="M604.402 491.91L578.727 487.251L507.937 448.422L488.668 459.1L573.242 523.119L595.302 529.089L604.402 491.91Z" fill="#FAC0AC"/>
<path d="M657.205 532.701C656.477 513.553 649.148 496.153 653.006 494.454C653.006 494.454 678.003 484.116 682.322 482.053C682.322 482.053 717.05 479.457 723.311 469.312C723.311 469.312 757.917 474.749 759.179 477.515C778.303 518.916 776.652 530.517 776.652 530.517L789.781 588.76L808.371 653.701C795.557 662.001 726.393 680.396 694.02 678.697C694.02 678.697 688.511 616.571 686.593 606.427C686.593 606.476 657.836 549.446 657.205 532.701Z" fill="#FFA229"/>
<g style="mix-blend-mode:multiply" opacity="0.16">
<path d="M193.516 1057.49C193.516 1065.23 153.158 1071.79 103.263 1072.05C53.3676 1072.32 12.8884 1066.35 12.8399 1058.59C12.7914 1050.82 53.1977 1044.29 103.093 1044.02C152.988 1043.76 193.467 1049.73 193.516 1057.49Z" fill="#6C467A"/>
</g>
<path d="M162.235 567.711C162.235 567.711 165.002 608.967 164.177 620.834C164.177 620.834 173.326 747.028 156.12 709.388L153.11 697.739C153.11 697.739 140.127 671.36 148.257 627.726L141.098 575.38L162.235 567.711Z" fill="#FAC0AC"/>
<path d="M133.842 595.729C133.842 595.729 156.581 772.886 160.925 843.094C161.459 851.636 156.533 862.096 152.868 869.789L150.442 881.51C149.471 893.013 142.821 929.464 140.734 940.821L125.591 1013.33L140.516 1039.91L128.382 1045.15L104.114 1018.46C104.114 1018.46 110.278 1007.61 107.414 962.905C104.648 920.096 97.974 881.68 106.055 864.328C119.184 836.226 108.482 804.799 102.536 787.399C87.9756 745.755 26.9899 670.912 79.1178 594.734L133.842 595.729Z" fill="#FAC0AC"/>
<path d="M119.206 493.752C106.272 488.899 109.499 482.322 109.815 477.056C110.616 461.039 105.641 444.731 110.203 433.664L85.5223 422.695C85.5223 422.695 88.8956 434.441 82.7072 474.459C81.2754 483.705 65.04 493.874 63.2927 494.796C53.5855 500.28 69.7481 555.636 119.425 528.286L120.032 527.922C130.127 522.291 128.719 497.368 119.206 493.752Z" fill="#FAC0AC"/>
<path d="M110.232 473.319C109.99 469.922 110.96 468.83 110.621 465.238C98.1711 463.345 88.0999 452.716 83.9258 450.07C83.9258 451.357 84.5568 460.967 84.4354 462.204C88.7309 469.072 96.2054 478.804 109.577 479.726C109.577 479.799 110.281 474.144 110.232 473.319Z" fill="#E69E96"/>
<path d="M158.933 1049.44C147.649 1046.07 141.946 1041.87 140.174 1039.08C140.732 1041.5 129.108 1040.27 119.595 1035.29C119.595 1035.29 106.612 1016.7 104.185 1018.57C98.3846 1041.96 102.316 1027.28 107.801 1059.83H113.188L114.838 1052.96C114.838 1052.96 120.808 1052.96 130.516 1059.97C140.223 1066.98 171.48 1061.21 171.48 1061.21C177.28 1057.76 171.116 1053.08 158.933 1049.44Z" fill="#526080"/>
<path d="M135.275 619.719C135.275 619.719 120.399 795.274 118.894 852.522L110.157 882.008C108.677 893.463 98.266 944.11 95.5965 955.346L76.4733 1023.71L87.8307 1050.84L75.4783 1055.5L57.617 1022.64C57.617 1022.64 60.4321 1022.5 61.0145 984.007C61.6455 941.101 57.9082 906.907 66.7903 889.968C81.1813 862.497 66.7903 814.567 61.597 796.924C49.0746 754.649 40.7992 668.546 65.5041 626.344L135.275 619.719Z" fill="#FAC0AC"/>
<path d="M103.896 1064.6C93.5817 1058.88 88.9222 1053.54 87.8059 1050.43C87.8059 1052.86 76.7397 1049.19 68.537 1042.28C68.537 1042.28 59.8733 1021.33 57.1068 1022.64C46.3803 1044.22 54.9469 1036.21 53.2724 1069.17L60.1403 1068.75V1058.46C60.1403 1058.46 65.9646 1059.7 73.9003 1068.71C81.8359 1077.71 113.651 1078.75 113.651 1078.75C119.985 1076.69 114.986 1070.79 103.896 1064.6Z" fill="#526080"/>
<path d="M159.881 554.518C157.77 551.048 151.921 526.076 149.033 513.796C148.395 510.108 146.588 506.722 143.879 504.14C141.169 501.557 137.701 499.914 133.987 499.454C128.939 498.823 123.26 495.158 119.062 492.95C116.805 499.648 96.5412 503.264 84.2615 496.08L72.2731 488.023C56.1106 498.968 57.7123 496.687 53.9022 499.891C35.2886 515.665 34.4877 517.873 49.8009 557.285L60.6487 578.519C63.8521 602.787 52.8101 682.386 52.8101 682.386C104.04 706.048 145.344 686.342 154.154 640.403L151.217 591.527C160.609 585.314 169.855 570.68 159.881 554.518Z" fill="#FFA229"/>
<path d="M124.159 409.279C124.159 409.279 128.042 414.594 127.022 426.412C127.543 432.585 128.394 438.726 129.571 444.808C130.323 463.688 118.043 475.531 113.578 475.434C108.974 475.214 104.458 474.085 100.293 472.11C96.1276 470.136 92.3947 467.356 89.3098 463.931C80.1122 454.054 76.9331 415.395 87.0771 407.459C102.9 394.985 119.329 402.703 124.159 409.279Z" fill="#FAC0AC"/>
<path d="M55.0406 642.129C55.0406 642.129 33.1993 711.779 58.0984 853.528C58.0984 853.528 85.9581 874.545 168.567 851.539C168.567 851.539 185.19 685.375 154.006 640.406C154.079 640.406 128.597 651.157 55.0406 642.129Z" fill="#1C4670"/>
<path d="M156.471 561.85L77.6092 531.768C76.645 531.4 75.5651 531.883 75.1973 532.847L34.6488 639.145C34.2809 640.109 34.7644 641.189 35.7287 641.557L114.59 671.64C115.554 672.007 116.634 671.524 117.002 670.56L157.551 564.262C157.918 563.298 157.435 562.218 156.471 561.85Z" fill="#EDEDED"/>
<path d="M86.4688 621.858C86.4688 621.858 93.4094 614.699 97.8262 614.577C102.243 614.456 110.421 613.534 111.295 615.232C112.46 617.441 106.441 618.727 99.889 619.407L86.4688 621.858Z" fill="#FAC0AC"/>
<path d="M94.0691 617.82C94.0691 617.82 110.814 621.194 113.338 622.31C113.965 622.549 114.51 622.965 114.905 623.508C115.301 624.05 115.531 624.696 115.566 625.366C115.602 626.037 115.443 626.703 115.108 627.285C114.773 627.867 114.276 628.339 113.678 628.644C112.319 629.348 115.376 631.993 111.761 634.735C109.504 636.458 111.469 637.162 110.013 639.128C108.848 640.681 105.694 640.147 105.16 642.04C104.383 645.534 101.01 644.273 98.4616 644.467C95.9135 644.661 86.6431 642.307 80.4547 634.954C72.4705 625.416 94.0691 617.82 94.0691 617.82Z" fill="#FAC0AC"/>
<path d="M10.2694 573.781C2.2609 593.948 -2.37431 600.088 1.24163 609.48C5.17306 619.624 97.2461 643.455 109.113 639.572L112.681 628.384C109.118 626.088 105.074 624.643 100.862 624.162C81.8116 621.177 56.0147 595.817 36.94 591.157C36.94 591.157 39.7793 589.094 47.9819 577.276" fill="#FAC0AC"/>
<path d="M41.6226 587.934C51.3298 571.189 68.3175 547.042 71.6422 532.263C81.8591 485.401 47.0101 496.88 39.3899 516.367C30.0467 540.247 14.0055 560.972 8.59375 574.61L41.6226 587.934Z" fill="#FFA229"/>
<path d="M140.348 516.562L146.997 537.7L156.365 549.98" stroke="#28478F" stroke-width="0.5" stroke-miterlimit="10" stroke-linecap="round"/>
<path d="M125.156 428.305C127.66 433.996 131.051 439.255 135.203 443.885C137.241 445.996 130.349 452.087 127.461 452.209C121.103 452.451 125.156 428.305 125.156 428.305Z" fill="#FAC0AC"/>
<path d="M107.853 621.195C107.853 621.195 117.56 622.918 118.361 622.918C119.161 622.918 126.903 622.166 127.655 622.166C129.67 622.166 128.675 626.34 123.675 627.02C118.676 627.699 116.395 629.446 112.124 628.597C106.542 627.554 107.853 621.195 107.853 621.195Z" fill="#FAC0AC"/>
<path d="M104.067 627.664C104.067 627.664 118.312 628.465 119.186 628.368C120.059 628.271 129.209 626.548 130.082 626.475C132.509 626.281 131.757 630.48 125.884 631.717C120.011 632.955 114.89 634.629 109.891 634.411C109.04 634.43 108.194 634.261 107.416 633.915C106.637 633.569 105.945 633.056 105.388 632.411C104.832 631.766 104.424 631.006 104.196 630.186C103.968 629.365 103.923 628.504 104.067 627.664Z" fill="#FAC0AC"/>
<path d="M75.4529 409.422C77.3023 405.795 77.9213 401.664 77.2165 397.654C76.5117 393.644 74.5212 389.972 71.5458 387.193C62.6394 379.208 45.8459 382.339 40.9923 393.041C39.2185 397.549 39.2214 402.562 41.0006 407.067C42.7797 411.573 46.2024 415.235 50.5774 417.315C54.9524 419.395 59.9536 419.736 64.5708 418.271C69.1881 416.806 73.0773 413.644 75.4529 409.422Z" fill="#10233C"/>
<path d="M90.5264 438.666C92.5188 431.843 92.4089 424.578 90.2109 417.819C90.2109 417.819 105.354 401.924 122.949 407.772C122.949 407.772 94.1181 385.227 75.8685 403.817C57.6189 422.406 61.9386 448.421 84.7506 461.114L90.5264 438.666Z" fill="#10233C"/>
<path d="M79.6739 449.748C82.6831 454.213 87.6823 455.887 90.8372 453.461C93.992 451.034 94.0648 445.476 91.0313 441.011C87.9978 436.546 83.0229 434.896 79.868 437.298C76.7132 439.701 76.6403 445.282 79.6739 449.748Z" fill="#FAC0AC"/>
<path d="M102.926 917.395L110.206 893.928C114.498 889.768 117.718 884.631 119.591 878.954C121.463 873.278 121.932 867.233 120.957 861.336" stroke="#28478F" stroke-width="0.5" stroke-miterlimit="10" stroke-linecap="round"/>
<path d="M54.3906 566.829L62.5204 546.273" stroke="#28478F" stroke-width="0.5" stroke-miterlimit="10" stroke-linecap="round"/>
</g>
<defs>
<clipPath id="clip0_678_1024">
<rect width="1080" height="1080" fill="white" transform="translate(1080 1080) rotate(180)"/>
</clipPath>
</defs>
</svg>
