<svg width="1000" height="1515" viewBox="0 0 1000 1515" fill="none" xmlns="http://www.w3.org/2000/svg">
<g clip-path="url(#clip0_282_4357)">
<rect width="1000" height="1515" fill="white"/>
<path d="M909.999 249.704C946.45 249.704 975.999 212.934 975.999 167.575C975.999 122.216 946.45 85.4453 909.999 85.4453C873.549 85.4453 844 122.216 844 167.575C844 212.934 873.549 249.704 909.999 249.704Z" fill="#1C4670"/>
<path d="M907.284 85.4453H81.8633V249.702H907.284V85.4453Z" fill="#1C4670"/>
<path d="M84.9993 249.704C121.45 249.704 150.999 212.934 150.999 167.575C150.999 122.216 121.45 85.4453 84.9993 85.4453C48.5489 85.4453 19 122.216 19 167.575C19 212.934 48.5489 249.704 84.9993 249.704Z" fill="#1C4670"/>
<path d="M155.979 268.414C116.535 233.751 103.141 178.643 122.755 129.407C142.344 80.2338 190.028 49.3093 242.529 51.138L249.19 34.4168C219.097 32.1267 189.06 39.4971 163.46 55.4524C137.86 71.4076 118.038 95.1126 106.886 123.108C95.7345 151.104 93.8369 181.924 101.47 211.072C109.104 240.22 125.869 266.17 149.318 285.135L155.979 268.414Z" fill="#1C4670"/>
<path d="M234.176 299.458C286.694 301.302 334.338 270.437 353.952 221.189C373.539 172.017 360.151 116.841 320.726 82.1822L327.391 65.4609C350.843 84.4253 367.609 110.376 375.243 139.525C382.878 168.674 380.98 199.496 369.828 227.492C358.675 255.489 338.851 279.194 313.25 295.149C287.648 311.103 257.609 318.472 227.516 316.179L234.176 299.458Z" fill="#1C4670"/>
<path d="M326.218 263.014C374.746 214.569 374.746 136.025 326.218 87.5802C277.691 39.1357 199.012 39.1357 150.484 87.5802C101.957 136.025 101.957 214.569 150.484 263.014C199.012 311.458 277.691 311.458 326.218 263.014Z" fill="white"/>
<path d="M313.351 250.168C354.772 208.818 354.772 141.776 313.351 100.425C271.93 59.0751 204.773 59.0751 163.351 100.425C121.93 141.776 121.93 208.818 163.351 250.168C204.773 291.519 271.93 291.519 313.351 250.168Z" fill="#FFA229"/>
<path d="M223.756 209.656C217.658 209.656 212.941 207.947 209.605 204.529C206.297 201.111 204.642 196.189 204.642 189.764V157.197C204.642 150.416 206.215 145.221 209.359 141.611C212.531 137.975 217.33 136.156 223.756 136.156C230.209 136.156 235.008 137.975 238.152 141.611C241.297 145.221 242.869 150.416 242.869 157.197V189.764C242.869 196.189 241.215 201.111 237.906 204.529C234.597 207.947 229.881 209.656 223.756 209.656ZM223.756 196.367C224.877 196.367 225.752 195.861 226.381 194.85C227.01 193.838 227.324 192.703 227.324 191.445V155.803C227.324 154.107 227.133 152.631 226.75 151.373C226.394 150.088 225.396 149.445 223.756 149.445C222.115 149.445 221.103 150.088 220.721 151.373C220.365 152.631 220.187 154.107 220.187 155.803V191.445C220.187 192.703 220.502 193.838 221.131 194.85C221.787 195.861 222.662 196.367 223.756 196.367ZM256.156 209V153.383C255.172 154.559 253.819 155.516 252.096 156.254C250.373 156.965 248.746 157.32 247.215 157.32V145.795C248.664 145.576 250.223 145.111 251.891 144.4C253.559 143.662 255.104 142.664 256.526 141.406C257.975 140.121 259.082 138.576 259.848 136.771H271.455V209H256.156Z" fill="white"/>
<path d="M216.906 1314.79C210.808 1314.79 206.092 1313.08 202.756 1309.66C199.447 1306.24 197.793 1301.32 197.793 1294.9V1262.33C197.793 1255.55 199.365 1250.35 202.51 1246.74C205.681 1243.11 210.48 1241.29 216.906 1241.29C223.359 1241.29 228.158 1243.11 231.303 1246.74C234.447 1250.35 236.019 1255.55 236.019 1262.33V1294.9C236.019 1301.32 234.365 1306.24 231.056 1309.66C227.748 1313.08 223.031 1314.79 216.906 1314.79ZM216.906 1301.5C218.027 1301.5 218.902 1300.99 219.531 1299.98C220.16 1298.97 220.474 1297.84 220.474 1296.58V1260.94C220.474 1259.24 220.283 1257.76 219.9 1256.51C219.545 1255.22 218.547 1254.58 216.906 1254.58C215.265 1254.58 214.254 1255.22 213.871 1256.51C213.515 1257.76 213.338 1259.24 213.338 1260.94V1296.58C213.338 1297.84 213.652 1298.97 214.281 1299.98C214.937 1300.99 215.812 1301.5 216.906 1301.5ZM260.094 1315.16C254.543 1315.16 250.004 1313.79 246.477 1311.06C242.977 1308.29 241.227 1304.07 241.227 1298.38V1287.64H256.238V1293.83C256.238 1295.12 256.307 1296.36 256.444 1297.56C256.608 1298.77 256.963 1299.75 257.51 1300.52C258.057 1301.28 258.918 1301.66 260.094 1301.66C261.653 1301.66 262.678 1301.14 263.17 1300.11C263.662 1299.04 263.908 1297.69 263.908 1296.04V1281.85C263.908 1280.68 263.826 1279.52 263.662 1278.37C263.526 1277.22 263.197 1276.26 262.678 1275.5C262.158 1274.73 261.324 1274.35 260.176 1274.35C257.442 1274.35 256.074 1276.33 256.074 1280.29H242.826V1241.9H277.238V1255.44H256.526V1265.61C257.236 1264.74 258.194 1263.97 259.397 1263.31C260.627 1262.63 262.063 1262.29 263.703 1262.29C266.985 1262.29 269.651 1262.92 271.701 1264.18C273.779 1265.43 275.365 1267.18 276.459 1269.43C277.58 1271.67 278.346 1274.27 278.756 1277.22C279.194 1280.17 279.412 1283.34 279.412 1286.73C279.412 1291.08 279.18 1295.01 278.715 1298.51C278.278 1301.98 277.389 1304.96 276.049 1307.45C274.736 1309.94 272.795 1311.85 270.225 1313.19C267.682 1314.5 264.305 1315.16 260.094 1315.16Z" fill="white"/>
<path d="M84.9993 535.408C121.45 535.408 150.999 498.637 150.999 453.278C150.999 407.919 121.45 371.148 84.9993 371.148C48.5489 371.148 19 407.919 19 453.278C19 498.637 48.5489 535.408 84.9993 535.408Z" fill="#FFA229"/>
<path d="M918.132 371.148H92.7109V535.405H918.132V371.148Z" fill="#FFA229"/>
<path d="M303.861 434.014C303.861 433.135 303.725 432.354 303.451 431.67C303.197 430.986 302.738 430.361 302.074 429.795C301.41 429.229 300.473 428.682 299.262 428.154C298.07 427.607 296.547 427.051 294.691 426.484C292.66 425.859 290.785 425.166 289.066 424.404C287.367 423.623 285.883 422.725 284.613 421.709C283.344 420.674 282.357 419.492 281.654 418.164C280.951 416.816 280.6 415.264 280.6 413.506C280.6 411.768 280.961 410.186 281.684 408.76C282.426 407.334 283.471 406.104 284.818 405.068C286.186 404.014 287.797 403.203 289.652 402.637C291.508 402.051 293.559 401.758 295.805 401.758C298.969 401.758 301.693 402.344 303.979 403.516C306.283 404.688 308.051 406.26 309.281 408.232C310.531 410.205 311.156 412.383 311.156 414.766H303.861C303.861 413.359 303.559 412.119 302.953 411.045C302.367 409.951 301.469 409.092 300.258 408.467C299.066 407.842 297.553 407.529 295.717 407.529C293.979 407.529 292.533 407.793 291.381 408.32C290.229 408.848 289.369 409.561 288.803 410.459C288.236 411.357 287.953 412.373 287.953 413.506C287.953 414.307 288.139 415.039 288.51 415.703C288.881 416.348 289.447 416.953 290.209 417.52C290.971 418.066 291.928 418.584 293.08 419.072C294.232 419.561 295.59 420.029 297.152 420.479C299.516 421.182 301.576 421.963 303.334 422.822C305.092 423.662 306.557 424.619 307.729 425.693C308.9 426.768 309.779 427.988 310.365 429.355C310.951 430.703 311.244 432.236 311.244 433.955C311.244 435.752 310.883 437.373 310.16 438.818C309.438 440.244 308.402 441.465 307.055 442.48C305.727 443.477 304.125 444.248 302.25 444.795C300.395 445.322 298.324 445.586 296.039 445.586C293.988 445.586 291.967 445.312 289.975 444.766C288.002 444.219 286.205 443.389 284.584 442.275C282.963 441.143 281.674 439.736 280.717 438.057C279.76 436.357 279.281 434.375 279.281 432.109H286.635C286.635 433.496 286.869 434.678 287.338 435.654C287.826 436.631 288.5 437.432 289.359 438.057C290.219 438.662 291.215 439.111 292.348 439.404C293.5 439.697 294.73 439.844 296.039 439.844C297.758 439.844 299.193 439.6 300.346 439.111C301.518 438.623 302.396 437.939 302.982 437.061C303.568 436.182 303.861 435.166 303.861 434.014ZM315.697 429.502V428.828C315.697 426.543 316.029 424.424 316.693 422.471C317.357 420.498 318.314 418.789 319.564 417.344C320.834 415.879 322.377 414.746 324.193 413.945C326.029 413.125 328.1 412.715 330.404 412.715C332.729 412.715 334.799 413.125 336.615 413.945C338.451 414.746 340.004 415.879 341.273 417.344C342.543 418.789 343.51 420.498 344.174 422.471C344.838 424.424 345.17 426.543 345.17 428.828V429.502C345.17 431.787 344.838 433.906 344.174 435.859C343.51 437.812 342.543 439.521 341.273 440.986C340.004 442.432 338.461 443.564 336.645 444.385C334.828 445.186 332.768 445.586 330.463 445.586C328.139 445.586 326.059 445.186 324.223 444.385C322.406 443.564 320.863 442.432 319.594 440.986C318.324 439.521 317.357 437.812 316.693 435.859C316.029 433.906 315.697 431.787 315.697 429.502ZM322.758 428.828V429.502C322.758 430.928 322.904 432.275 323.197 433.545C323.49 434.814 323.949 435.928 324.574 436.885C325.199 437.842 326 438.594 326.977 439.141C327.953 439.688 329.115 439.961 330.463 439.961C331.771 439.961 332.904 439.688 333.861 439.141C334.838 438.594 335.639 437.842 336.264 436.885C336.889 435.928 337.348 434.814 337.641 433.545C337.953 432.275 338.109 430.928 338.109 429.502V428.828C338.109 427.422 337.953 426.094 337.641 424.844C337.348 423.574 336.879 422.451 336.234 421.475C335.609 420.498 334.809 419.736 333.832 419.189C332.875 418.623 331.732 418.34 330.404 418.34C329.076 418.34 327.924 418.623 326.947 419.189C325.99 419.736 325.199 420.498 324.574 421.475C323.949 422.451 323.49 423.574 323.197 424.844C322.904 426.094 322.758 427.422 322.758 428.828ZM358.646 400V445H351.557V400H358.646ZM380.355 445.586C378.012 445.586 375.893 445.205 373.998 444.443C372.123 443.662 370.521 442.578 369.193 441.191C367.885 439.805 366.879 438.174 366.176 436.299C365.473 434.424 365.121 432.402 365.121 430.234V429.062C365.121 426.582 365.482 424.336 366.205 422.324C366.928 420.312 367.934 418.594 369.223 417.168C370.512 415.723 372.035 414.619 373.793 413.857C375.551 413.096 377.455 412.715 379.506 412.715C381.771 412.715 383.754 413.096 385.453 413.857C387.152 414.619 388.559 415.693 389.672 417.08C390.805 418.447 391.645 420.078 392.191 421.973C392.758 423.867 393.041 425.957 393.041 428.242V431.26H368.549V426.191H386.068V425.635C386.029 424.365 385.775 423.174 385.307 422.061C384.857 420.947 384.164 420.049 383.227 419.365C382.289 418.682 381.039 418.34 379.477 418.34C378.305 418.34 377.26 418.594 376.342 419.102C375.443 419.59 374.691 420.303 374.086 421.24C373.48 422.178 373.012 423.311 372.68 424.639C372.367 425.947 372.211 427.422 372.211 429.062V430.234C372.211 431.621 372.396 432.91 372.768 434.102C373.158 435.273 373.725 436.299 374.467 437.178C375.209 438.057 376.107 438.75 377.162 439.258C378.217 439.746 379.418 439.99 380.766 439.99C382.465 439.99 383.979 439.648 385.307 438.965C386.635 438.281 387.787 437.314 388.764 436.064L392.484 439.668C391.801 440.664 390.912 441.621 389.818 442.539C388.725 443.438 387.387 444.17 385.805 444.736C384.242 445.303 382.426 445.586 380.355 445.586ZM165.023 483.092H153.92V477.262H165.023C166.957 477.262 168.52 476.949 169.711 476.324C170.902 475.699 171.771 474.84 172.318 473.746C172.885 472.633 173.168 471.363 173.168 469.938C173.168 468.59 172.885 467.33 172.318 466.158C171.771 464.967 170.902 464.01 169.711 463.287C168.52 462.564 166.957 462.203 165.023 462.203H156.176V499H148.822V456.344H165.023C168.324 456.344 171.127 456.93 173.432 458.102C175.756 459.254 177.523 460.855 178.734 462.906C179.945 464.938 180.551 467.262 180.551 469.879C180.551 472.633 179.945 474.996 178.734 476.969C177.523 478.941 175.756 480.455 173.432 481.51C171.127 482.564 168.324 483.092 165.023 483.092ZM193.529 473.336V499H186.469V467.301H193.207L193.529 473.336ZM203.227 467.096L203.168 473.658C202.738 473.58 202.27 473.521 201.762 473.482C201.273 473.443 200.785 473.424 200.297 473.424C199.086 473.424 198.021 473.6 197.104 473.951C196.186 474.283 195.414 474.771 194.789 475.416C194.184 476.041 193.715 476.803 193.383 477.701C193.051 478.6 192.855 479.605 192.797 480.719L191.186 480.836C191.186 478.844 191.381 476.998 191.771 475.299C192.162 473.6 192.748 472.105 193.529 470.816C194.33 469.527 195.326 468.521 196.518 467.799C197.729 467.076 199.125 466.715 200.707 466.715C201.137 466.715 201.596 466.754 202.084 466.832C202.592 466.91 202.973 466.998 203.227 467.096ZM205.541 483.502V482.828C205.541 480.543 205.873 478.424 206.537 476.471C207.201 474.498 208.158 472.789 209.408 471.344C210.678 469.879 212.221 468.746 214.037 467.945C215.873 467.125 217.943 466.715 220.248 466.715C222.572 466.715 224.643 467.125 226.459 467.945C228.295 468.746 229.848 469.879 231.117 471.344C232.387 472.789 233.354 474.498 234.018 476.471C234.682 478.424 235.014 480.543 235.014 482.828V483.502C235.014 485.787 234.682 487.906 234.018 489.859C233.354 491.812 232.387 493.521 231.117 494.986C229.848 496.432 228.305 497.564 226.488 498.385C224.672 499.186 222.611 499.586 220.307 499.586C217.982 499.586 215.902 499.186 214.066 498.385C212.25 497.564 210.707 496.432 209.438 494.986C208.168 493.521 207.201 491.812 206.537 489.859C205.873 487.906 205.541 485.787 205.541 483.502ZM212.602 482.828V483.502C212.602 484.928 212.748 486.275 213.041 487.545C213.334 488.814 213.793 489.928 214.418 490.885C215.043 491.842 215.844 492.594 216.82 493.141C217.797 493.688 218.959 493.961 220.307 493.961C221.615 493.961 222.748 493.688 223.705 493.141C224.682 492.594 225.482 491.842 226.107 490.885C226.732 489.928 227.191 488.814 227.484 487.545C227.797 486.275 227.953 484.928 227.953 483.502V482.828C227.953 481.422 227.797 480.094 227.484 478.844C227.191 477.574 226.723 476.451 226.078 475.475C225.453 474.498 224.652 473.736 223.676 473.189C222.719 472.623 221.576 472.34 220.248 472.34C218.92 472.34 217.768 472.623 216.791 473.189C215.834 473.736 215.043 474.498 214.418 475.475C213.793 476.451 213.334 477.574 213.041 478.844C212.748 480.094 212.602 481.422 212.602 482.828ZM248.021 473.395V511.188H240.961V467.301H247.465L248.021 473.395ZM268.676 482.857V483.473C268.676 485.777 268.402 487.916 267.855 489.889C267.328 491.842 266.537 493.551 265.482 495.016C264.447 496.461 263.168 497.584 261.645 498.385C260.121 499.186 258.363 499.586 256.371 499.586C254.398 499.586 252.67 499.225 251.186 498.502C249.721 497.76 248.48 496.715 247.465 495.367C246.449 494.02 245.629 492.438 245.004 490.621C244.398 488.785 243.969 486.773 243.715 484.586V482.213C243.969 479.889 244.398 477.779 245.004 475.885C245.629 473.99 246.449 472.359 247.465 470.992C248.48 469.625 249.721 468.57 251.186 467.828C252.65 467.086 254.359 466.715 256.312 466.715C258.305 466.715 260.072 467.105 261.615 467.887C263.158 468.648 264.457 469.742 265.512 471.168C266.566 472.574 267.357 474.273 267.885 476.266C268.412 478.238 268.676 480.436 268.676 482.857ZM261.615 483.473V482.857C261.615 481.393 261.479 480.035 261.205 478.785C260.932 477.516 260.502 476.402 259.916 475.445C259.33 474.488 258.578 473.746 257.66 473.219C256.762 472.672 255.678 472.398 254.408 472.398C253.158 472.398 252.084 472.613 251.186 473.043C250.287 473.453 249.535 474.029 248.93 474.771C248.324 475.514 247.855 476.383 247.523 477.379C247.191 478.355 246.957 479.42 246.82 480.572V486.256C247.055 487.662 247.455 488.951 248.021 490.123C248.588 491.295 249.389 492.232 250.424 492.936C251.479 493.619 252.826 493.961 254.467 493.961C255.736 493.961 256.82 493.688 257.719 493.141C258.617 492.594 259.35 491.842 259.916 490.885C260.502 489.908 260.932 488.785 261.205 487.516C261.479 486.246 261.615 484.898 261.615 483.473ZM281.771 473.336V499H274.711V467.301H281.449L281.771 473.336ZM291.469 467.096L291.41 473.658C290.98 473.58 290.512 473.521 290.004 473.482C289.516 473.443 289.027 473.424 288.539 473.424C287.328 473.424 286.264 473.6 285.346 473.951C284.428 474.283 283.656 474.771 283.031 475.416C282.426 476.041 281.957 476.803 281.625 477.701C281.293 478.6 281.098 479.605 281.039 480.719L279.428 480.836C279.428 478.844 279.623 476.998 280.014 475.299C280.404 473.6 280.99 472.105 281.771 470.816C282.572 469.527 283.568 468.521 284.76 467.799C285.971 467.076 287.367 466.715 288.949 466.715C289.379 466.715 289.838 466.754 290.326 466.832C290.834 466.91 291.215 466.998 291.469 467.096ZM303.451 467.301V499H296.361V467.301H303.451ZM295.893 458.98C295.893 457.906 296.244 457.018 296.947 456.314C297.67 455.592 298.666 455.23 299.936 455.23C301.186 455.23 302.172 455.592 302.895 456.314C303.617 457.018 303.979 457.906 303.979 458.98C303.979 460.035 303.617 460.914 302.895 461.617C302.172 462.32 301.186 462.672 299.936 462.672C298.666 462.672 297.67 462.32 296.947 461.617C296.244 460.914 295.893 460.035 295.893 458.98ZM325.16 499.586C322.816 499.586 320.697 499.205 318.803 498.443C316.928 497.662 315.326 496.578 313.998 495.191C312.689 493.805 311.684 492.174 310.98 490.299C310.277 488.424 309.926 486.402 309.926 484.234V483.062C309.926 480.582 310.287 478.336 311.01 476.324C311.732 474.312 312.738 472.594 314.027 471.168C315.316 469.723 316.84 468.619 318.598 467.857C320.355 467.096 322.26 466.715 324.311 466.715C326.576 466.715 328.559 467.096 330.258 467.857C331.957 468.619 333.363 469.693 334.477 471.08C335.609 472.447 336.449 474.078 336.996 475.973C337.562 477.867 337.846 479.957 337.846 482.242V485.26H313.354V480.191H330.873V479.635C330.834 478.365 330.58 477.174 330.111 476.061C329.662 474.947 328.969 474.049 328.031 473.365C327.094 472.682 325.844 472.34 324.281 472.34C323.109 472.34 322.064 472.594 321.146 473.102C320.248 473.59 319.496 474.303 318.891 475.24C318.285 476.178 317.816 477.311 317.484 478.639C317.172 479.947 317.016 481.422 317.016 483.062V484.234C317.016 485.621 317.201 486.91 317.572 488.102C317.963 489.273 318.529 490.299 319.271 491.178C320.014 492.057 320.912 492.75 321.967 493.258C323.021 493.746 324.223 493.99 325.57 493.99C327.27 493.99 328.783 493.648 330.111 492.965C331.439 492.281 332.592 491.314 333.568 490.064L337.289 493.668C336.605 494.664 335.717 495.621 334.623 496.539C333.529 497.438 332.191 498.17 330.609 498.736C329.047 499.303 327.23 499.586 325.16 499.586ZM357.885 467.301V472.457H340.014V467.301H357.885ZM345.17 459.537H352.23V490.24C352.23 491.217 352.367 491.969 352.641 492.496C352.934 493.004 353.334 493.346 353.842 493.521C354.35 493.697 354.945 493.785 355.629 493.785C356.117 493.785 356.586 493.756 357.035 493.697C357.484 493.639 357.846 493.58 358.119 493.521L358.148 498.912C357.562 499.088 356.879 499.244 356.098 499.381C355.336 499.518 354.457 499.586 353.461 499.586C351.84 499.586 350.404 499.303 349.154 498.736C347.904 498.15 346.928 497.203 346.225 495.895C345.521 494.586 345.17 492.848 345.17 490.68V459.537ZM361.283 483.502V482.828C361.283 480.543 361.615 478.424 362.279 476.471C362.943 474.498 363.9 472.789 365.15 471.344C366.42 469.879 367.963 468.746 369.779 467.945C371.615 467.125 373.686 466.715 375.99 466.715C378.314 466.715 380.385 467.125 382.201 467.945C384.037 468.746 385.59 469.879 386.859 471.344C388.129 472.789 389.096 474.498 389.76 476.471C390.424 478.424 390.756 480.543 390.756 482.828V483.502C390.756 485.787 390.424 487.906 389.76 489.859C389.096 491.812 388.129 493.521 386.859 494.986C385.59 496.432 384.047 497.564 382.23 498.385C380.414 499.186 378.354 499.586 376.049 499.586C373.725 499.586 371.645 499.186 369.809 498.385C367.992 497.564 366.449 496.432 365.18 494.986C363.91 493.521 362.943 491.812 362.279 489.859C361.615 487.906 361.283 485.787 361.283 483.502ZM368.344 482.828V483.502C368.344 484.928 368.49 486.275 368.783 487.545C369.076 488.814 369.535 489.928 370.16 490.885C370.785 491.842 371.586 492.594 372.562 493.141C373.539 493.688 374.701 493.961 376.049 493.961C377.357 493.961 378.49 493.688 379.447 493.141C380.424 492.594 381.225 491.842 381.85 490.885C382.475 489.928 382.934 488.814 383.227 487.545C383.539 486.275 383.695 484.928 383.695 483.502V482.828C383.695 481.422 383.539 480.094 383.227 478.844C382.934 477.574 382.465 476.451 381.82 475.475C381.195 474.498 380.395 473.736 379.418 473.189C378.461 472.623 377.318 472.34 375.99 472.34C374.662 472.34 373.51 472.623 372.533 473.189C371.576 473.736 370.785 474.498 370.16 475.475C369.535 476.451 369.076 477.574 368.783 478.844C368.49 480.094 368.344 481.422 368.344 482.828ZM403.764 473.336V499H396.703V467.301H403.441L403.764 473.336ZM413.461 467.096L413.402 473.658C412.973 473.58 412.504 473.521 411.996 473.482C411.508 473.443 411.02 473.424 410.531 473.424C409.32 473.424 408.256 473.6 407.338 473.951C406.42 474.283 405.648 474.771 405.023 475.416C404.418 476.041 403.949 476.803 403.617 477.701C403.285 478.6 403.09 479.605 403.031 480.719L401.42 480.836C401.42 478.844 401.615 476.998 402.006 475.299C402.396 473.6 402.982 472.105 403.764 470.816C404.564 469.527 405.561 468.521 406.752 467.799C407.963 467.076 409.359 466.715 410.941 466.715C411.371 466.715 411.83 466.754 412.318 466.832C412.826 466.91 413.207 466.998 413.461 467.096ZM435.668 490.416C435.668 489.713 435.492 489.078 435.141 488.512C434.789 487.926 434.115 487.398 433.119 486.93C432.143 486.461 430.697 486.031 428.783 485.641C427.104 485.27 425.561 484.83 424.154 484.322C422.768 483.795 421.576 483.16 420.58 482.418C419.584 481.676 418.812 480.797 418.266 479.781C417.719 478.766 417.445 477.594 417.445 476.266C417.445 474.977 417.729 473.756 418.295 472.604C418.861 471.451 419.672 470.436 420.727 469.557C421.781 468.678 423.061 467.984 424.564 467.477C426.088 466.969 427.787 466.715 429.662 466.715C432.318 466.715 434.594 467.164 436.488 468.062C438.402 468.941 439.867 470.143 440.883 471.666C441.898 473.17 442.406 474.869 442.406 476.764H435.346C435.346 475.924 435.131 475.143 434.701 474.42C434.291 473.678 433.666 473.082 432.826 472.633C431.986 472.164 430.932 471.93 429.662 471.93C428.451 471.93 427.445 472.125 426.645 472.516C425.863 472.887 425.277 473.375 424.887 473.98C424.516 474.586 424.33 475.25 424.33 475.973C424.33 476.5 424.428 476.979 424.623 477.408C424.838 477.818 425.189 478.199 425.678 478.551C426.166 478.883 426.83 479.195 427.67 479.488C428.529 479.781 429.604 480.064 430.893 480.338C433.314 480.846 435.395 481.5 437.133 482.301C438.891 483.082 440.238 484.098 441.176 485.348C442.113 486.578 442.582 488.141 442.582 490.035C442.582 491.441 442.279 492.73 441.674 493.902C441.088 495.055 440.229 496.061 439.096 496.92C437.963 497.76 436.605 498.414 435.023 498.883C433.461 499.352 431.703 499.586 429.75 499.586C426.879 499.586 424.447 499.078 422.455 498.062C420.463 497.027 418.949 495.709 417.914 494.107C416.898 492.486 416.391 490.807 416.391 489.068H423.217C423.295 490.377 423.656 491.422 424.301 492.203C424.965 492.965 425.785 493.521 426.762 493.873C427.758 494.205 428.783 494.371 429.838 494.371C431.107 494.371 432.172 494.205 433.031 493.873C433.891 493.521 434.545 493.053 434.994 492.467C435.443 491.861 435.668 491.178 435.668 490.416ZM455.736 454V499H448.705V454H455.736ZM454.506 481.979L452.221 481.949C452.24 479.762 452.543 477.74 453.129 475.885C453.734 474.029 454.574 472.418 455.648 471.051C456.742 469.664 458.051 468.6 459.574 467.857C461.098 467.096 462.787 466.715 464.643 466.715C466.205 466.715 467.611 466.93 468.861 467.359C470.131 467.789 471.225 468.482 472.143 469.439C473.061 470.377 473.754 471.607 474.223 473.131C474.711 474.635 474.955 476.471 474.955 478.639V499H467.865V478.58C467.865 477.057 467.641 475.846 467.191 474.947C466.762 474.049 466.127 473.404 465.287 473.014C464.447 472.604 463.422 472.398 462.211 472.398C460.941 472.398 459.818 472.652 458.842 473.16C457.885 473.668 457.084 474.361 456.439 475.24C455.795 476.119 455.307 477.135 454.975 478.287C454.662 479.439 454.506 480.67 454.506 481.979ZM489.662 467.301V499H482.572V467.301H489.662ZM482.104 458.98C482.104 457.906 482.455 457.018 483.158 456.314C483.881 455.592 484.877 455.23 486.146 455.23C487.396 455.23 488.383 455.592 489.105 456.314C489.828 457.018 490.189 457.906 490.189 458.98C490.189 460.035 489.828 460.914 489.105 461.617C488.383 462.32 487.396 462.672 486.146 462.672C484.877 462.672 483.881 462.32 483.158 461.617C482.455 460.914 482.104 460.035 482.104 458.98ZM504.486 473.395V511.188H497.426V467.301H503.93L504.486 473.395ZM525.141 482.857V483.473C525.141 485.777 524.867 487.916 524.32 489.889C523.793 491.842 523.002 493.551 521.947 495.016C520.912 496.461 519.633 497.584 518.109 498.385C516.586 499.186 514.828 499.586 512.836 499.586C510.863 499.586 509.135 499.225 507.65 498.502C506.186 497.76 504.945 496.715 503.93 495.367C502.914 494.02 502.094 492.438 501.469 490.621C500.863 488.785 500.434 486.773 500.18 484.586V482.213C500.434 479.889 500.863 477.779 501.469 475.885C502.094 473.99 502.914 472.359 503.93 470.992C504.945 469.625 506.186 468.57 507.65 467.828C509.115 467.086 510.824 466.715 512.777 466.715C514.77 466.715 516.537 467.105 518.08 467.887C519.623 468.648 520.922 469.742 521.977 471.168C523.031 472.574 523.822 474.273 524.35 476.266C524.877 478.238 525.141 480.436 525.141 482.857ZM518.08 483.473V482.857C518.08 481.393 517.943 480.035 517.67 478.785C517.396 477.516 516.967 476.402 516.381 475.445C515.795 474.488 515.043 473.746 514.125 473.219C513.227 472.672 512.143 472.398 510.873 472.398C509.623 472.398 508.549 472.613 507.65 473.043C506.752 473.453 506 474.029 505.395 474.771C504.789 475.514 504.32 476.383 503.988 477.379C503.656 478.355 503.422 479.42 503.285 480.572V486.256C503.52 487.662 503.92 488.951 504.486 490.123C505.053 491.295 505.854 492.232 506.889 492.936C507.943 493.619 509.291 493.961 510.932 493.961C512.201 493.961 513.285 493.688 514.184 493.141C515.082 492.594 515.814 491.842 516.381 490.885C516.967 489.908 517.396 488.785 517.67 487.516C517.943 486.246 518.08 484.898 518.08 483.473Z" fill="white"/>
<path d="M914.999 535.408C951.45 535.408 980.999 498.637 980.999 453.278C980.999 407.919 951.45 371.148 914.999 371.148C878.549 371.148 849 407.919 849 453.278C849 498.637 878.549 535.408 914.999 535.408Z" fill="#FFA229"/>
<path d="M844.019 554.117C883.463 519.454 896.857 464.348 877.243 415.111C857.654 365.935 809.97 335.013 757.469 336.843L750.809 320.12C780.901 317.83 810.939 325.2 836.539 341.155C862.139 357.11 881.962 380.815 893.114 408.81C904.266 436.806 906.164 467.627 898.53 496.775C890.897 525.923 874.132 551.874 850.682 570.839L844.019 554.117Z" fill="#FFA229"/>
<path d="M765.823 585.161C713.306 587.005 665.662 556.13 646.047 506.894C626.461 457.72 639.848 402.546 679.274 367.887L672.609 351.164C649.157 370.128 632.39 396.079 624.756 425.228C617.122 454.377 619.019 485.199 630.172 513.195C641.325 541.192 661.148 564.897 686.75 580.852C712.351 596.806 742.391 604.175 772.484 601.883L765.823 585.161Z" fill="#FFA229"/>
<path d="M849.511 548.717C898.039 500.272 898.039 421.728 849.511 373.283C800.984 324.839 722.305 324.839 673.777 373.283C625.25 421.728 625.25 500.272 673.777 548.717C722.305 597.161 800.984 597.161 849.511 548.717Z" fill="white"/>
<path d="M836.294 386.482C877.52 427.637 877.52 494.363 836.294 535.518C795.068 576.673 728.228 576.673 687.002 535.518C645.776 494.363 645.776 427.637 687.002 386.482C728.228 345.327 795.068 345.327 836.294 386.482Z" fill="white" stroke="black"/>
<path d="M491.654 170.092H480.551V164.262H491.654C493.588 164.262 495.15 163.949 496.342 163.324C497.533 162.699 498.402 161.84 498.949 160.746C499.516 159.633 499.799 158.363 499.799 156.938C499.799 155.59 499.516 154.33 498.949 153.158C498.402 151.967 497.533 151.01 496.342 150.287C495.15 149.564 493.588 149.203 491.654 149.203H482.807V186H475.453V143.344H491.654C494.955 143.344 497.758 143.93 500.062 145.102C502.387 146.254 504.154 147.855 505.365 149.906C506.576 151.938 507.182 154.262 507.182 156.879C507.182 159.633 506.576 161.996 505.365 163.969C504.154 165.941 502.387 167.455 500.062 168.51C497.758 169.564 494.955 170.092 491.654 170.092ZM520.16 160.336V186H513.1V154.301H519.838L520.16 160.336ZM529.857 154.096L529.799 160.658C529.369 160.58 528.9 160.521 528.393 160.482C527.904 160.443 527.416 160.424 526.928 160.424C525.717 160.424 524.652 160.6 523.734 160.951C522.816 161.283 522.045 161.771 521.42 162.416C520.814 163.041 520.346 163.803 520.014 164.701C519.682 165.6 519.486 166.605 519.428 167.719L517.816 167.836C517.816 165.844 518.012 163.998 518.402 162.299C518.793 160.6 519.379 159.105 520.16 157.816C520.961 156.527 521.957 155.521 523.148 154.799C524.359 154.076 525.756 153.715 527.338 153.715C527.768 153.715 528.227 153.754 528.715 153.832C529.223 153.91 529.604 153.998 529.857 154.096ZM541.84 154.301V186H534.75V154.301H541.84ZM534.281 145.98C534.281 144.906 534.633 144.018 535.336 143.314C536.059 142.592 537.055 142.23 538.324 142.23C539.574 142.23 540.561 142.592 541.283 143.314C542.006 144.018 542.367 144.906 542.367 145.98C542.367 147.035 542.006 147.914 541.283 148.617C540.561 149.32 539.574 149.672 538.324 149.672C537.055 149.672 536.059 149.32 535.336 148.617C534.633 147.914 534.281 147.035 534.281 145.98ZM559.887 180.404L567.65 154.301H574.975L563.959 186H559.389L559.887 180.404ZM553.939 154.301L561.85 180.521L562.23 186H557.66L546.586 154.301H553.939ZM596.742 179.643V164.525C596.742 163.393 596.537 162.416 596.127 161.596C595.717 160.775 595.092 160.141 594.252 159.691C593.432 159.242 592.396 159.018 591.146 159.018C589.994 159.018 588.998 159.213 588.158 159.604C587.318 159.994 586.664 160.521 586.195 161.186C585.727 161.85 585.492 162.602 585.492 163.441H578.461C578.461 162.191 578.764 160.98 579.369 159.809C579.975 158.637 580.854 157.592 582.006 156.674C583.158 155.756 584.535 155.033 586.137 154.506C587.738 153.979 589.535 153.715 591.527 153.715C593.91 153.715 596.02 154.115 597.855 154.916C599.711 155.717 601.166 156.928 602.221 158.549C603.295 160.15 603.832 162.162 603.832 164.584V178.676C603.832 180.121 603.93 181.42 604.125 182.572C604.34 183.705 604.643 184.691 605.033 185.531V186H597.797C597.465 185.238 597.201 184.271 597.006 183.1C596.83 181.908 596.742 180.756 596.742 179.643ZM597.768 166.723L597.826 171.088H592.758C591.449 171.088 590.297 171.215 589.301 171.469C588.305 171.703 587.475 172.055 586.811 172.523C586.146 172.992 585.648 173.559 585.316 174.223C584.984 174.887 584.818 175.639 584.818 176.479C584.818 177.318 585.014 178.09 585.404 178.793C585.795 179.477 586.361 180.014 587.104 180.404C587.865 180.795 588.783 180.99 589.857 180.99C591.303 180.99 592.562 180.697 593.637 180.111C594.73 179.506 595.59 178.773 596.215 177.914C596.84 177.035 597.172 176.205 597.211 175.424L599.496 178.559C599.262 179.359 598.861 180.219 598.295 181.137C597.729 182.055 596.986 182.934 596.068 183.773C595.17 184.594 594.086 185.268 592.816 185.795C591.566 186.322 590.121 186.586 588.48 186.586C586.41 186.586 584.564 186.176 582.943 185.355C581.322 184.516 580.053 183.393 579.135 181.986C578.217 180.561 577.758 178.949 577.758 177.152C577.758 175.473 578.07 173.988 578.695 172.699C579.34 171.391 580.277 170.297 581.508 169.418C582.758 168.539 584.281 167.875 586.078 167.426C587.875 166.957 589.926 166.723 592.23 166.723H597.768ZM625.746 154.301V159.457H607.875V154.301H625.746ZM613.031 146.537H620.092V177.24C620.092 178.217 620.229 178.969 620.502 179.496C620.795 180.004 621.195 180.346 621.703 180.521C622.211 180.697 622.807 180.785 623.49 180.785C623.979 180.785 624.447 180.756 624.896 180.697C625.346 180.639 625.707 180.58 625.98 180.521L626.01 185.912C625.424 186.088 624.74 186.244 623.959 186.381C623.197 186.518 622.318 186.586 621.322 186.586C619.701 186.586 618.266 186.303 617.016 185.736C615.766 185.15 614.789 184.203 614.086 182.895C613.383 181.586 613.031 179.848 613.031 177.68V146.537ZM645.17 186.586C642.826 186.586 640.707 186.205 638.812 185.443C636.938 184.662 635.336 183.578 634.008 182.191C632.699 180.805 631.693 179.174 630.99 177.299C630.287 175.424 629.936 173.402 629.936 171.234V170.062C629.936 167.582 630.297 165.336 631.02 163.324C631.742 161.312 632.748 159.594 634.037 158.168C635.326 156.723 636.85 155.619 638.607 154.857C640.365 154.096 642.27 153.715 644.32 153.715C646.586 153.715 648.568 154.096 650.268 154.857C651.967 155.619 653.373 156.693 654.486 158.08C655.619 159.447 656.459 161.078 657.006 162.973C657.572 164.867 657.855 166.957 657.855 169.242V172.26H633.363V167.191H650.883V166.635C650.844 165.365 650.59 164.174 650.121 163.061C649.672 161.947 648.979 161.049 648.041 160.365C647.104 159.682 645.854 159.34 644.291 159.34C643.119 159.34 642.074 159.594 641.156 160.102C640.258 160.59 639.506 161.303 638.9 162.24C638.295 163.178 637.826 164.311 637.494 165.639C637.182 166.947 637.025 168.422 637.025 170.062V171.234C637.025 172.621 637.211 173.91 637.582 175.102C637.973 176.273 638.539 177.299 639.281 178.178C640.023 179.057 640.922 179.75 641.977 180.258C643.031 180.746 644.232 180.99 645.58 180.99C647.279 180.99 648.793 180.648 650.121 179.965C651.449 179.281 652.602 178.314 653.578 177.064L657.299 180.668C656.615 181.664 655.727 182.621 654.633 183.539C653.539 184.438 652.201 185.17 650.619 185.736C649.057 186.303 647.24 186.586 645.17 186.586ZM705.727 180.17V186H684.311V180.17H705.727ZM686.361 143.344V186H679.008V143.344H686.361ZM718.266 154.301V186H711.176V154.301H718.266ZM710.707 145.98C710.707 144.906 711.059 144.018 711.762 143.314C712.484 142.592 713.48 142.23 714.75 142.23C716 142.23 716.986 142.592 717.709 143.314C718.432 144.018 718.793 144.906 718.793 145.98C718.793 147.035 718.432 147.914 717.709 148.617C716.986 149.32 716 149.672 714.75 149.672C713.48 149.672 712.484 149.32 711.762 148.617C711.059 147.914 710.707 147.035 710.707 145.98ZM733.061 160.746V186H726V154.301H732.65L733.061 160.746ZM731.918 168.979L729.516 168.949C729.516 166.762 729.789 164.74 730.336 162.885C730.883 161.029 731.684 159.418 732.738 158.051C733.793 156.664 735.102 155.6 736.664 154.857C738.246 154.096 740.072 153.715 742.143 153.715C743.588 153.715 744.906 153.93 746.098 154.359C747.309 154.77 748.354 155.424 749.232 156.322C750.131 157.221 750.814 158.373 751.283 159.779C751.771 161.186 752.016 162.885 752.016 164.877V186H744.955V165.492C744.955 163.949 744.721 162.738 744.252 161.859C743.803 160.98 743.148 160.355 742.289 159.984C741.449 159.594 740.443 159.398 739.271 159.398C737.943 159.398 736.811 159.652 735.873 160.16C734.955 160.668 734.203 161.361 733.617 162.24C733.031 163.119 732.602 164.135 732.328 165.287C732.055 166.439 731.918 167.67 731.918 168.979ZM751.576 167.104L748.266 167.836C748.266 165.922 748.529 164.115 749.057 162.416C749.604 160.697 750.395 159.193 751.43 157.904C752.484 156.596 753.783 155.57 755.326 154.828C756.869 154.086 758.637 153.715 760.629 153.715C762.25 153.715 763.695 153.939 764.965 154.389C766.254 154.818 767.348 155.502 768.246 156.439C769.145 157.377 769.828 158.598 770.297 160.102C770.766 161.586 771 163.383 771 165.492V186H763.91V165.463C763.91 163.861 763.676 162.621 763.207 161.742C762.758 160.863 762.113 160.258 761.273 159.926C760.434 159.574 759.428 159.398 758.256 159.398C757.162 159.398 756.195 159.604 755.355 160.014C754.535 160.404 753.842 160.961 753.275 161.684C752.709 162.387 752.279 163.197 751.986 164.115C751.713 165.033 751.576 166.029 751.576 167.104ZM785.824 154.301V186H778.734V154.301H785.824ZM778.266 145.98C778.266 144.906 778.617 144.018 779.32 143.314C780.043 142.592 781.039 142.23 782.309 142.23C783.559 142.23 784.545 142.592 785.268 143.314C785.99 144.018 786.352 144.906 786.352 145.98C786.352 147.035 785.99 147.914 785.268 148.617C784.545 149.32 783.559 149.672 782.309 149.672C781.039 149.672 780.043 149.32 779.32 148.617C778.617 147.914 778.266 147.035 778.266 145.98ZM808.09 154.301V159.457H790.219V154.301H808.09ZM795.375 146.537H802.436V177.24C802.436 178.217 802.572 178.969 802.846 179.496C803.139 180.004 803.539 180.346 804.047 180.521C804.555 180.697 805.15 180.785 805.834 180.785C806.322 180.785 806.791 180.756 807.24 180.697C807.689 180.639 808.051 180.58 808.324 180.521L808.354 185.912C807.768 186.088 807.084 186.244 806.303 186.381C805.541 186.518 804.662 186.586 803.666 186.586C802.045 186.586 800.609 186.303 799.359 185.736C798.109 185.15 797.133 184.203 796.43 182.895C795.727 181.586 795.375 179.848 795.375 177.68V146.537ZM827.514 186.586C825.17 186.586 823.051 186.205 821.156 185.443C819.281 184.662 817.68 183.578 816.352 182.191C815.043 180.805 814.037 179.174 813.334 177.299C812.631 175.424 812.279 173.402 812.279 171.234V170.062C812.279 167.582 812.641 165.336 813.363 163.324C814.086 161.312 815.092 159.594 816.381 158.168C817.67 156.723 819.193 155.619 820.951 154.857C822.709 154.096 824.613 153.715 826.664 153.715C828.93 153.715 830.912 154.096 832.611 154.857C834.311 155.619 835.717 156.693 836.83 158.08C837.963 159.447 838.803 161.078 839.35 162.973C839.916 164.867 840.199 166.957 840.199 169.242V172.26H815.707V167.191H833.227V166.635C833.188 165.365 832.934 164.174 832.465 163.061C832.016 161.947 831.322 161.049 830.385 160.365C829.447 159.682 828.197 159.34 826.635 159.34C825.463 159.34 824.418 159.594 823.5 160.102C822.602 160.59 821.85 161.303 821.244 162.24C820.639 163.178 820.17 164.311 819.838 165.639C819.525 166.947 819.369 168.422 819.369 170.062V171.234C819.369 172.621 819.555 173.91 819.926 175.102C820.316 176.273 820.883 177.299 821.625 178.178C822.367 179.057 823.266 179.75 824.32 180.258C825.375 180.746 826.576 180.99 827.924 180.99C829.623 180.99 831.137 180.648 832.465 179.965C833.793 179.281 834.945 178.314 835.922 177.064L839.643 180.668C838.959 181.664 838.07 182.621 836.977 183.539C835.883 184.438 834.545 185.17 832.963 185.736C831.4 186.303 829.584 186.586 827.514 186.586ZM865.043 179.438V141H872.133V186H865.717L865.043 179.438ZM844.418 170.502V169.887C844.418 167.484 844.701 165.297 845.268 163.324C845.834 161.332 846.654 159.623 847.729 158.197C848.803 156.752 850.111 155.648 851.654 154.887C853.197 154.105 854.936 153.715 856.869 153.715C858.783 153.715 860.463 154.086 861.908 154.828C863.354 155.57 864.584 156.635 865.6 158.021C866.615 159.389 867.426 161.029 868.031 162.943C868.637 164.838 869.066 166.947 869.32 169.271V171.234C869.066 173.5 868.637 175.57 868.031 177.445C867.426 179.32 866.615 180.941 865.6 182.309C864.584 183.676 863.344 184.73 861.879 185.473C860.434 186.215 858.744 186.586 856.811 186.586C854.896 186.586 853.168 186.186 851.625 185.385C850.102 184.584 848.803 183.461 847.729 182.016C846.654 180.57 845.834 178.871 845.268 176.918C844.701 174.945 844.418 172.807 844.418 170.502ZM851.479 169.887V170.502C851.479 171.947 851.605 173.295 851.859 174.545C852.133 175.795 852.553 176.898 853.119 177.855C853.686 178.793 854.418 179.535 855.316 180.082C856.234 180.609 857.328 180.873 858.598 180.873C860.199 180.873 861.518 180.521 862.553 179.818C863.588 179.115 864.398 178.168 864.984 176.977C865.59 175.766 866 174.418 866.215 172.934V167.631C866.098 166.479 865.854 165.404 865.482 164.408C865.131 163.412 864.652 162.543 864.047 161.801C863.441 161.039 862.689 160.453 861.791 160.043C860.912 159.613 859.867 159.398 858.656 159.398C857.367 159.398 856.273 159.672 855.375 160.219C854.477 160.766 853.734 161.518 853.148 162.475C852.582 163.432 852.162 164.545 851.889 165.814C851.615 167.084 851.479 168.441 851.479 169.887Z" fill="white"/>
<path d="M910.999 832.111C947.45 832.111 976.999 795.34 976.999 749.981C976.999 704.622 947.45 667.852 910.999 667.852C874.549 667.852 845 704.622 845 749.981C845 795.34 874.549 832.111 910.999 832.111Z" fill="#1C4670"/>
<path d="M910.999 1413.84C947.45 1413.84 976.999 1377.07 976.999 1331.71C976.999 1286.35 947.45 1249.58 910.999 1249.58C874.549 1249.58 845 1286.35 845 1331.71C845 1377.07 874.549 1413.84 910.999 1413.84Z" fill="#1C4670"/>
<path d="M85.0006 974.03C48.5502 974.03 19.0014 1010.8 19.0014 1056.16C19.0014 1101.52 48.5503 1138.29 85.0007 1138.29C121.451 1138.29 151 1101.52 151 1056.16C151 1010.8 121.451 974.03 85.0006 974.03Z" fill="#FFA229"/>
<path d="M907.284 668H81.8633V832.257H907.284V668Z" fill="#1C4670"/>
<path d="M907.284 1249.58H81.8633V1413.84H907.284V1249.58Z" fill="#1C4670"/>
<path d="M92.7161 1138.28L918.137 1138.28L918.137 974.024L92.7161 974.024L92.7161 1138.28Z" fill="#FFA229"/>
<path d="M164.836 1056.72H153.967L153.908 1051.36H163.4C165.002 1051.36 166.359 1051.13 167.473 1050.66C168.605 1050.17 169.465 1049.48 170.051 1048.58C170.637 1047.66 170.93 1046.56 170.93 1045.27C170.93 1043.84 170.656 1042.68 170.109 1041.78C169.562 1040.88 168.723 1040.23 167.59 1039.82C166.477 1039.41 165.051 1039.2 163.312 1039.2H156.193V1076H148.84V1033.34H163.312C165.656 1033.34 167.746 1033.57 169.582 1034.02C171.438 1034.47 173.01 1035.17 174.299 1036.13C175.607 1037.06 176.594 1038.26 177.258 1039.7C177.941 1041.15 178.283 1042.87 178.283 1044.86C178.283 1046.62 177.863 1048.23 177.023 1049.69C176.184 1051.14 174.943 1052.32 173.303 1053.24C171.662 1054.15 169.621 1054.7 167.18 1054.88L164.836 1056.72ZM164.514 1076H151.652L154.963 1070.17H164.514C166.174 1070.17 167.561 1069.9 168.674 1069.35C169.787 1068.78 170.617 1068.01 171.164 1067.04C171.73 1066.04 172.014 1064.88 172.014 1063.55C172.014 1062.16 171.77 1060.96 171.281 1059.95C170.793 1058.91 170.021 1058.12 168.967 1057.57C167.912 1057.01 166.535 1056.72 164.836 1056.72H156.574L156.633 1051.36H167.385L169.055 1053.38C171.398 1053.46 173.322 1053.98 174.826 1054.94C176.35 1055.89 177.482 1057.13 178.225 1058.66C178.967 1060.18 179.338 1061.82 179.338 1063.58C179.338 1066.29 178.742 1068.57 177.551 1070.4C176.379 1072.24 174.689 1073.64 172.482 1074.59C170.275 1075.53 167.619 1076 164.514 1076ZM193.137 1050.34V1076H186.076V1044.3H192.814L193.137 1050.34ZM202.834 1044.1L202.775 1050.66C202.346 1050.58 201.877 1050.52 201.369 1050.48C200.881 1050.44 200.393 1050.42 199.904 1050.42C198.693 1050.42 197.629 1050.6 196.711 1050.95C195.793 1051.28 195.021 1051.77 194.396 1052.42C193.791 1053.04 193.322 1053.8 192.99 1054.7C192.658 1055.6 192.463 1056.61 192.404 1057.72L190.793 1057.84C190.793 1055.84 190.988 1054 191.379 1052.3C191.77 1050.6 192.355 1049.11 193.137 1047.82C193.938 1046.53 194.934 1045.52 196.125 1044.8C197.336 1044.08 198.732 1043.71 200.314 1043.71C200.744 1043.71 201.203 1043.75 201.691 1043.83C202.199 1043.91 202.58 1044 202.834 1044.1ZM224.074 1069.64V1054.53C224.074 1053.39 223.869 1052.42 223.459 1051.6C223.049 1050.78 222.424 1050.14 221.584 1049.69C220.764 1049.24 219.729 1049.02 218.479 1049.02C217.326 1049.02 216.33 1049.21 215.49 1049.6C214.65 1049.99 213.996 1050.52 213.527 1051.19C213.059 1051.85 212.824 1052.6 212.824 1053.44H205.793C205.793 1052.19 206.096 1050.98 206.701 1049.81C207.307 1048.64 208.186 1047.59 209.338 1046.67C210.49 1045.76 211.867 1045.03 213.469 1044.51C215.07 1043.98 216.867 1043.71 218.859 1043.71C221.242 1043.71 223.352 1044.12 225.188 1044.92C227.043 1045.72 228.498 1046.93 229.553 1048.55C230.627 1050.15 231.164 1052.16 231.164 1054.58V1068.68C231.164 1070.12 231.262 1071.42 231.457 1072.57C231.672 1073.71 231.975 1074.69 232.365 1075.53V1076H225.129C224.797 1075.24 224.533 1074.27 224.338 1073.1C224.162 1071.91 224.074 1070.76 224.074 1069.64ZM225.1 1056.72L225.158 1061.09H220.09C218.781 1061.09 217.629 1061.21 216.633 1061.47C215.637 1061.7 214.807 1062.05 214.143 1062.52C213.479 1062.99 212.98 1063.56 212.648 1064.22C212.316 1064.89 212.15 1065.64 212.15 1066.48C212.15 1067.32 212.346 1068.09 212.736 1068.79C213.127 1069.48 213.693 1070.01 214.436 1070.4C215.197 1070.79 216.115 1070.99 217.189 1070.99C218.635 1070.99 219.895 1070.7 220.969 1070.11C222.062 1069.51 222.922 1068.77 223.547 1067.91C224.172 1067.04 224.504 1066.21 224.543 1065.42L226.828 1068.56C226.594 1069.36 226.193 1070.22 225.627 1071.14C225.061 1072.05 224.318 1072.93 223.4 1073.77C222.502 1074.59 221.418 1075.27 220.148 1075.79C218.898 1076.32 217.453 1076.59 215.812 1076.59C213.742 1076.59 211.896 1076.18 210.275 1075.36C208.654 1074.52 207.385 1073.39 206.467 1071.99C205.549 1070.56 205.09 1068.95 205.09 1067.15C205.09 1065.47 205.402 1063.99 206.027 1062.7C206.672 1061.39 207.609 1060.3 208.84 1059.42C210.09 1058.54 211.613 1057.88 213.41 1057.43C215.207 1056.96 217.258 1056.72 219.562 1056.72H225.1ZM245.549 1051.07V1076H238.488V1044.3H245.139L245.549 1051.07ZM244.289 1058.98L242.004 1058.95C242.023 1056.7 242.336 1054.64 242.941 1052.77C243.566 1050.89 244.426 1049.28 245.52 1047.93C246.633 1046.59 247.961 1045.55 249.504 1044.83C251.047 1044.09 252.766 1043.71 254.66 1043.71C256.184 1043.71 257.561 1043.93 258.791 1044.36C260.041 1044.77 261.105 1045.44 261.984 1046.38C262.883 1047.32 263.566 1048.54 264.035 1050.04C264.504 1051.53 264.738 1053.35 264.738 1055.52V1076H257.648V1055.49C257.648 1053.97 257.424 1052.77 256.975 1051.89C256.545 1050.99 255.91 1050.36 255.07 1049.98C254.25 1049.59 253.225 1049.4 251.994 1049.4C250.783 1049.4 249.699 1049.65 248.742 1050.16C247.785 1050.67 246.975 1051.36 246.311 1052.24C245.666 1053.12 245.168 1054.13 244.816 1055.29C244.465 1056.44 244.289 1057.67 244.289 1058.98ZM284.895 1070.96C286.047 1070.96 287.082 1070.74 288 1070.29C288.938 1069.82 289.689 1069.17 290.256 1068.35C290.842 1067.53 291.164 1066.59 291.223 1065.51H297.873C297.834 1067.56 297.229 1069.43 296.057 1071.11C294.885 1072.79 293.332 1074.12 291.398 1075.12C289.465 1076.1 287.326 1076.59 284.982 1076.59C282.561 1076.59 280.451 1076.18 278.654 1075.36C276.857 1074.52 275.363 1073.36 274.172 1071.9C272.98 1070.43 272.082 1068.74 271.477 1066.83C270.891 1064.92 270.598 1062.87 270.598 1060.68V1059.65C270.598 1057.46 270.891 1055.41 271.477 1053.5C272.082 1051.57 272.98 1049.87 274.172 1048.4C275.363 1046.94 276.857 1045.79 278.654 1044.97C280.451 1044.13 282.551 1043.71 284.953 1043.71C287.492 1043.71 289.719 1044.22 291.633 1045.24C293.547 1046.23 295.051 1047.63 296.145 1049.43C297.258 1051.21 297.834 1053.28 297.873 1055.64H291.223C291.164 1054.47 290.871 1053.41 290.344 1052.47C289.836 1051.52 289.113 1050.76 288.176 1050.19C287.258 1049.62 286.154 1049.34 284.865 1049.34C283.439 1049.34 282.258 1049.63 281.32 1050.22C280.383 1050.79 279.65 1051.57 279.123 1052.56C278.596 1053.54 278.215 1054.64 277.98 1055.87C277.766 1057.08 277.658 1058.34 277.658 1059.65V1060.68C277.658 1061.99 277.766 1063.26 277.98 1064.49C278.195 1065.72 278.566 1066.82 279.094 1067.8C279.641 1068.75 280.383 1069.53 281.32 1070.11C282.258 1070.68 283.449 1070.96 284.895 1070.96ZM310.266 1031V1076H303.234V1031H310.266ZM309.035 1058.98L306.75 1058.95C306.77 1056.76 307.072 1054.74 307.658 1052.88C308.264 1051.03 309.104 1049.42 310.178 1048.05C311.271 1046.66 312.58 1045.6 314.104 1044.86C315.627 1044.1 317.316 1043.71 319.172 1043.71C320.734 1043.71 322.141 1043.93 323.391 1044.36C324.66 1044.79 325.754 1045.48 326.672 1046.44C327.59 1047.38 328.283 1048.61 328.752 1050.13C329.24 1051.63 329.484 1053.47 329.484 1055.64V1076H322.395V1055.58C322.395 1054.06 322.17 1052.85 321.721 1051.95C321.291 1051.05 320.656 1050.4 319.816 1050.01C318.977 1049.6 317.951 1049.4 316.74 1049.4C315.471 1049.4 314.348 1049.65 313.371 1050.16C312.414 1050.67 311.613 1051.36 310.969 1052.24C310.324 1053.12 309.836 1054.13 309.504 1055.29C309.191 1056.44 309.035 1057.67 309.035 1058.98ZM386.291 1053.5V1055.84C386.291 1059.07 385.871 1061.96 385.031 1064.52C384.191 1067.07 382.99 1069.25 381.428 1071.05C379.885 1072.85 378.029 1074.22 375.861 1075.18C373.693 1076.12 371.291 1076.59 368.654 1076.59C366.037 1076.59 363.645 1076.12 361.477 1075.18C359.328 1074.22 357.463 1072.85 355.881 1071.05C354.299 1069.25 353.068 1067.07 352.189 1064.52C351.33 1061.96 350.9 1059.07 350.9 1055.84V1053.5C350.9 1050.28 351.33 1047.4 352.189 1044.86C353.049 1042.3 354.26 1040.12 355.822 1038.32C357.404 1036.51 359.27 1035.13 361.418 1034.19C363.586 1033.24 365.979 1032.76 368.596 1032.76C371.232 1032.76 373.635 1033.24 375.803 1034.19C377.971 1035.13 379.836 1036.51 381.398 1038.32C382.961 1040.12 384.162 1042.3 385.002 1044.86C385.861 1047.4 386.291 1050.28 386.291 1053.5ZM378.938 1055.84V1053.44C378.938 1051.06 378.703 1048.96 378.234 1047.14C377.785 1045.31 377.111 1043.77 376.213 1042.54C375.334 1041.29 374.25 1040.36 372.961 1039.73C371.672 1039.09 370.217 1038.76 368.596 1038.76C366.975 1038.76 365.529 1039.09 364.26 1039.73C362.99 1040.36 361.906 1041.29 361.008 1042.54C360.129 1043.77 359.455 1045.31 358.986 1047.14C358.518 1048.96 358.283 1051.06 358.283 1053.44V1055.84C358.283 1058.23 358.518 1060.34 358.986 1062.17C359.455 1064.01 360.139 1065.56 361.037 1066.83C361.955 1068.08 363.049 1069.03 364.318 1069.67C365.588 1070.3 367.033 1070.61 368.654 1070.61C370.295 1070.61 371.75 1070.3 373.02 1069.67C374.289 1069.03 375.363 1068.08 376.242 1066.83C377.121 1065.56 377.785 1064.01 378.234 1062.17C378.703 1060.34 378.938 1058.23 378.938 1055.84ZM402.492 1076H395.432V1041.25C395.432 1038.89 395.871 1036.91 396.75 1035.31C397.648 1033.69 398.928 1032.46 400.588 1031.64C402.248 1030.8 404.211 1030.38 406.477 1030.38C407.18 1030.38 407.873 1030.43 408.557 1030.53C409.24 1030.61 409.904 1030.74 410.549 1030.91L410.373 1036.36C409.982 1036.26 409.553 1036.2 409.084 1036.16C408.635 1036.12 408.146 1036.1 407.619 1036.1C406.545 1036.1 405.617 1036.3 404.836 1036.71C404.074 1037.1 403.488 1037.68 403.078 1038.44C402.688 1039.2 402.492 1040.14 402.492 1041.25V1076ZM409.201 1044.3V1049.46H390.568V1044.3H409.201ZM420.656 1076H413.596V1042.25C413.596 1039.69 414.104 1037.53 415.119 1035.78C416.135 1034.02 417.6 1032.68 419.514 1031.76C421.447 1030.84 423.742 1030.38 426.398 1030.38C427.961 1030.38 429.475 1030.55 430.939 1030.88C432.404 1031.21 433.908 1031.63 435.451 1032.14L434.367 1037.88C433.391 1037.55 432.287 1037.24 431.057 1036.95C429.846 1036.63 428.459 1036.48 426.896 1036.48C424.768 1036.48 423.195 1036.97 422.18 1037.94C421.164 1038.9 420.656 1040.34 420.656 1042.25V1076ZM427.043 1044.3V1049.46H408.732V1044.3H427.043ZM438.82 1044.3V1076H431.73V1044.3H438.82ZM459.562 1070.96C460.715 1070.96 461.75 1070.74 462.668 1070.29C463.605 1069.82 464.357 1069.17 464.924 1068.35C465.51 1067.53 465.832 1066.59 465.891 1065.51H472.541C472.502 1067.56 471.896 1069.43 470.725 1071.11C469.553 1072.79 468 1074.12 466.066 1075.12C464.133 1076.1 461.994 1076.59 459.65 1076.59C457.229 1076.59 455.119 1076.18 453.322 1075.36C451.525 1074.52 450.031 1073.36 448.84 1071.9C447.648 1070.43 446.75 1068.74 446.145 1066.83C445.559 1064.92 445.266 1062.87 445.266 1060.68V1059.65C445.266 1057.46 445.559 1055.41 446.145 1053.5C446.75 1051.57 447.648 1049.87 448.84 1048.4C450.031 1046.94 451.525 1045.79 453.322 1044.97C455.119 1044.13 457.219 1043.71 459.621 1043.71C462.16 1043.71 464.387 1044.22 466.301 1045.24C468.215 1046.23 469.719 1047.63 470.812 1049.43C471.926 1051.21 472.502 1053.28 472.541 1055.64H465.891C465.832 1054.47 465.539 1053.41 465.012 1052.47C464.504 1051.52 463.781 1050.76 462.844 1050.19C461.926 1049.62 460.822 1049.34 459.533 1049.34C458.107 1049.34 456.926 1049.63 455.988 1050.22C455.051 1050.79 454.318 1051.57 453.791 1052.56C453.264 1053.54 452.883 1054.64 452.648 1055.87C452.434 1057.08 452.326 1058.34 452.326 1059.65V1060.68C452.326 1061.99 452.434 1063.26 452.648 1064.49C452.863 1065.72 453.234 1066.82 453.762 1067.8C454.309 1068.75 455.051 1069.53 455.988 1070.11C456.926 1070.68 458.117 1070.96 459.562 1070.96ZM491.936 1076.59C489.592 1076.59 487.473 1076.21 485.578 1075.44C483.703 1074.66 482.102 1073.58 480.773 1072.19C479.465 1070.8 478.459 1069.17 477.756 1067.3C477.053 1065.42 476.701 1063.4 476.701 1061.23V1060.06C476.701 1057.58 477.062 1055.34 477.785 1053.32C478.508 1051.31 479.514 1049.59 480.803 1048.17C482.092 1046.72 483.615 1045.62 485.373 1044.86C487.131 1044.1 489.035 1043.71 491.086 1043.71C493.352 1043.71 495.334 1044.1 497.033 1044.86C498.732 1045.62 500.139 1046.69 501.252 1048.08C502.385 1049.45 503.225 1051.08 503.771 1052.97C504.338 1054.87 504.621 1056.96 504.621 1059.24V1062.26H480.129V1057.19H497.648V1056.63C497.609 1055.37 497.355 1054.17 496.887 1053.06C496.438 1051.95 495.744 1051.05 494.807 1050.37C493.869 1049.68 492.619 1049.34 491.057 1049.34C489.885 1049.34 488.84 1049.59 487.922 1050.1C487.023 1050.59 486.271 1051.3 485.666 1052.24C485.061 1053.18 484.592 1054.31 484.26 1055.64C483.947 1056.95 483.791 1058.42 483.791 1060.06V1061.23C483.791 1062.62 483.977 1063.91 484.348 1065.1C484.738 1066.27 485.305 1067.3 486.047 1068.18C486.789 1069.06 487.688 1069.75 488.742 1070.26C489.797 1070.75 490.998 1070.99 492.346 1070.99C494.045 1070.99 495.559 1070.65 496.887 1069.96C498.215 1069.28 499.367 1068.31 500.344 1067.06L504.064 1070.67C503.381 1071.66 502.492 1072.62 501.398 1073.54C500.305 1074.44 498.967 1075.17 497.385 1075.74C495.822 1076.3 494.006 1076.59 491.936 1076.59Z" fill="white"/>
<path d="M532.533 752.092H521.43V746.262H532.533C534.467 746.262 536.029 745.949 537.221 745.324C538.412 744.699 539.281 743.84 539.828 742.746C540.395 741.633 540.678 740.363 540.678 738.938C540.678 737.59 540.395 736.33 539.828 735.158C539.281 733.967 538.412 733.01 537.221 732.287C536.029 731.564 534.467 731.203 532.533 731.203H523.686V768H516.332V725.344H532.533C535.834 725.344 538.637 725.93 540.941 727.102C543.266 728.254 545.033 729.855 546.244 731.906C547.455 733.938 548.061 736.262 548.061 738.879C548.061 741.633 547.455 743.996 546.244 745.969C545.033 747.941 543.266 749.455 540.941 750.51C538.637 751.564 535.834 752.092 532.533 752.092ZM571.469 761.643V746.525C571.469 745.393 571.264 744.416 570.854 743.596C570.443 742.775 569.818 742.141 568.979 741.691C568.158 741.242 567.123 741.018 565.873 741.018C564.721 741.018 563.725 741.213 562.885 741.604C562.045 741.994 561.391 742.521 560.922 743.186C560.453 743.85 560.219 744.602 560.219 745.441H553.188C553.188 744.191 553.49 742.98 554.096 741.809C554.701 740.637 555.58 739.592 556.732 738.674C557.885 737.756 559.262 737.033 560.863 736.506C562.465 735.979 564.262 735.715 566.254 735.715C568.637 735.715 570.746 736.115 572.582 736.916C574.438 737.717 575.893 738.928 576.947 740.549C578.021 742.15 578.559 744.162 578.559 746.584V760.676C578.559 762.121 578.656 763.42 578.852 764.572C579.066 765.705 579.369 766.691 579.76 767.531V768H572.523C572.191 767.238 571.928 766.271 571.732 765.1C571.557 763.908 571.469 762.756 571.469 761.643ZM572.494 748.723L572.553 753.088H567.484C566.176 753.088 565.023 753.215 564.027 753.469C563.031 753.703 562.201 754.055 561.537 754.523C560.873 754.992 560.375 755.559 560.043 756.223C559.711 756.887 559.545 757.639 559.545 758.479C559.545 759.318 559.74 760.09 560.131 760.793C560.521 761.477 561.088 762.014 561.83 762.404C562.592 762.795 563.51 762.99 564.584 762.99C566.029 762.99 567.289 762.697 568.363 762.111C569.457 761.506 570.316 760.773 570.941 759.914C571.566 759.035 571.898 758.205 571.938 757.424L574.223 760.559C573.988 761.359 573.588 762.219 573.021 763.137C572.455 764.055 571.713 764.934 570.795 765.773C569.896 766.594 568.812 767.268 567.543 767.795C566.293 768.322 564.848 768.586 563.207 768.586C561.137 768.586 559.291 768.176 557.67 767.355C556.049 766.516 554.779 765.393 553.861 763.986C552.943 762.561 552.484 760.949 552.484 759.152C552.484 757.473 552.797 755.988 553.422 754.699C554.066 753.391 555.004 752.297 556.234 751.418C557.484 750.539 559.008 749.875 560.805 749.426C562.602 748.957 564.652 748.723 566.957 748.723H572.494ZM593.031 742.336V768H585.971V736.301H592.709L593.031 742.336ZM602.729 736.096L602.67 742.658C602.24 742.58 601.771 742.521 601.264 742.482C600.775 742.443 600.287 742.424 599.799 742.424C598.588 742.424 597.523 742.6 596.605 742.951C595.688 743.283 594.916 743.771 594.291 744.416C593.686 745.041 593.217 745.803 592.885 746.701C592.553 747.6 592.357 748.605 592.299 749.719L590.688 749.836C590.688 747.844 590.883 745.998 591.273 744.299C591.664 742.6 592.25 741.105 593.031 739.816C593.832 738.527 594.828 737.521 596.02 736.799C597.23 736.076 598.627 735.715 600.209 735.715C600.639 735.715 601.098 735.754 601.586 735.832C602.094 735.91 602.475 735.998 602.729 736.096ZM623.148 736.301V741.457H605.277V736.301H623.148ZM610.434 728.537H617.494V759.24C617.494 760.217 617.631 760.969 617.904 761.496C618.197 762.004 618.598 762.346 619.105 762.521C619.613 762.697 620.209 762.785 620.893 762.785C621.381 762.785 621.85 762.756 622.299 762.697C622.748 762.639 623.109 762.58 623.383 762.521L623.412 767.912C622.826 768.088 622.143 768.244 621.361 768.381C620.6 768.518 619.721 768.586 618.725 768.586C617.104 768.586 615.668 768.303 614.418 767.736C613.168 767.15 612.191 766.203 611.488 764.895C610.785 763.586 610.434 761.848 610.434 759.68V728.537ZM635.6 743.068V768H628.539V736.301H635.189L635.6 743.068ZM634.34 750.979L632.055 750.949C632.074 748.703 632.387 746.643 632.992 744.768C633.617 742.893 634.477 741.281 635.57 739.934C636.684 738.586 638.012 737.551 639.555 736.828C641.098 736.086 642.816 735.715 644.711 735.715C646.234 735.715 647.611 735.93 648.842 736.359C650.092 736.77 651.156 737.443 652.035 738.381C652.934 739.318 653.617 740.539 654.086 742.043C654.555 743.527 654.789 745.354 654.789 747.521V768H647.699V747.492C647.699 745.969 647.475 744.768 647.025 743.889C646.596 742.99 645.961 742.355 645.121 741.984C644.301 741.594 643.275 741.398 642.045 741.398C640.834 741.398 639.75 741.652 638.793 742.16C637.836 742.668 637.025 743.361 636.361 744.24C635.717 745.119 635.219 746.135 634.867 747.287C634.516 748.439 634.34 749.67 634.34 750.979ZM675.971 768.586C673.627 768.586 671.508 768.205 669.613 767.443C667.738 766.662 666.137 765.578 664.809 764.191C663.5 762.805 662.494 761.174 661.791 759.299C661.088 757.424 660.736 755.402 660.736 753.234V752.062C660.736 749.582 661.098 747.336 661.82 745.324C662.543 743.312 663.549 741.594 664.838 740.168C666.127 738.723 667.65 737.619 669.408 736.857C671.166 736.096 673.07 735.715 675.121 735.715C677.387 735.715 679.369 736.096 681.068 736.857C682.768 737.619 684.174 738.693 685.287 740.08C686.42 741.447 687.26 743.078 687.807 744.973C688.373 746.867 688.656 748.957 688.656 751.242V754.26H664.164V749.191H681.684V748.635C681.645 747.365 681.391 746.174 680.922 745.061C680.473 743.947 679.779 743.049 678.842 742.365C677.904 741.682 676.654 741.34 675.092 741.34C673.92 741.34 672.875 741.594 671.957 742.102C671.059 742.59 670.307 743.303 669.701 744.24C669.096 745.178 668.627 746.311 668.295 747.639C667.982 748.947 667.826 750.422 667.826 752.062V753.234C667.826 754.621 668.012 755.91 668.383 757.102C668.773 758.273 669.34 759.299 670.082 760.178C670.824 761.057 671.723 761.75 672.777 762.258C673.832 762.746 675.033 762.99 676.381 762.99C678.08 762.99 679.594 762.648 680.922 761.965C682.25 761.281 683.402 760.314 684.379 759.064L688.1 762.668C687.416 763.664 686.527 764.621 685.434 765.539C684.34 766.438 683.002 767.17 681.42 767.736C679.857 768.303 678.041 768.586 675.971 768.586ZM701.254 742.336V768H694.193V736.301H700.932L701.254 742.336ZM710.951 736.096L710.893 742.658C710.463 742.58 709.994 742.521 709.486 742.482C708.998 742.443 708.51 742.424 708.021 742.424C706.811 742.424 705.746 742.6 704.828 742.951C703.91 743.283 703.139 743.771 702.514 744.416C701.908 745.041 701.439 745.803 701.107 746.701C700.775 747.6 700.58 748.605 700.521 749.719L698.91 749.836C698.91 747.844 699.105 745.998 699.496 744.299C699.887 742.6 700.473 741.105 701.254 739.816C702.055 738.527 703.051 737.521 704.242 736.799C705.453 736.076 706.85 735.715 708.432 735.715C708.861 735.715 709.32 735.754 709.809 735.832C710.316 735.91 710.697 735.998 710.951 736.096ZM733.158 759.416C733.158 758.713 732.982 758.078 732.631 757.512C732.279 756.926 731.605 756.398 730.609 755.93C729.633 755.461 728.188 755.031 726.273 754.641C724.594 754.27 723.051 753.83 721.645 753.322C720.258 752.795 719.066 752.16 718.07 751.418C717.074 750.676 716.303 749.797 715.756 748.781C715.209 747.766 714.936 746.594 714.936 745.266C714.936 743.977 715.219 742.756 715.785 741.604C716.352 740.451 717.162 739.436 718.217 738.557C719.271 737.678 720.551 736.984 722.055 736.477C723.578 735.969 725.277 735.715 727.152 735.715C729.809 735.715 732.084 736.164 733.979 737.062C735.893 737.941 737.357 739.143 738.373 740.666C739.389 742.17 739.896 743.869 739.896 745.764H732.836C732.836 744.924 732.621 744.143 732.191 743.42C731.781 742.678 731.156 742.082 730.316 741.633C729.477 741.164 728.422 740.93 727.152 740.93C725.941 740.93 724.936 741.125 724.135 741.516C723.354 741.887 722.768 742.375 722.377 742.98C722.006 743.586 721.82 744.25 721.82 744.973C721.82 745.5 721.918 745.979 722.113 746.408C722.328 746.818 722.68 747.199 723.168 747.551C723.656 747.883 724.32 748.195 725.16 748.488C726.02 748.781 727.094 749.064 728.383 749.338C730.805 749.846 732.885 750.5 734.623 751.301C736.381 752.082 737.729 753.098 738.666 754.348C739.604 755.578 740.072 757.141 740.072 759.035C740.072 760.441 739.77 761.73 739.164 762.902C738.578 764.055 737.719 765.061 736.586 765.92C735.453 766.76 734.096 767.414 732.514 767.883C730.951 768.352 729.193 768.586 727.24 768.586C724.369 768.586 721.938 768.078 719.945 767.062C717.953 766.027 716.439 764.709 715.404 763.107C714.389 761.486 713.881 759.807 713.881 758.068H720.707C720.785 759.377 721.146 760.422 721.791 761.203C722.455 761.965 723.275 762.521 724.252 762.873C725.248 763.205 726.273 763.371 727.328 763.371C728.598 763.371 729.662 763.205 730.521 762.873C731.381 762.521 732.035 762.053 732.484 761.467C732.934 760.861 733.158 760.178 733.158 759.416ZM753.227 723V768H746.195V723H753.227ZM751.996 750.979L749.711 750.949C749.73 748.762 750.033 746.74 750.619 744.885C751.225 743.029 752.064 741.418 753.139 740.051C754.232 738.664 755.541 737.6 757.064 736.857C758.588 736.096 760.277 735.715 762.133 735.715C763.695 735.715 765.102 735.93 766.352 736.359C767.621 736.789 768.715 737.482 769.633 738.439C770.551 739.377 771.244 740.607 771.713 742.131C772.201 743.635 772.445 745.471 772.445 747.639V768H765.355V747.58C765.355 746.057 765.131 744.846 764.682 743.947C764.252 743.049 763.617 742.404 762.777 742.014C761.938 741.604 760.912 741.398 759.701 741.398C758.432 741.398 757.309 741.652 756.332 742.16C755.375 742.668 754.574 743.361 753.93 744.24C753.285 745.119 752.797 746.135 752.465 747.287C752.152 748.439 751.996 749.67 751.996 750.979ZM787.152 736.301V768H780.062V736.301H787.152ZM779.594 727.98C779.594 726.906 779.945 726.018 780.648 725.314C781.371 724.592 782.367 724.23 783.637 724.23C784.887 724.23 785.873 724.592 786.596 725.314C787.318 726.018 787.68 726.906 787.68 727.98C787.68 729.035 787.318 729.914 786.596 730.617C785.873 731.32 784.887 731.672 783.637 731.672C782.367 731.672 781.371 731.32 780.648 730.617C779.945 729.914 779.594 729.035 779.594 727.98ZM801.977 742.395V780.188H794.916V736.301H801.42L801.977 742.395ZM822.631 751.857V752.473C822.631 754.777 822.357 756.916 821.811 758.889C821.283 760.842 820.492 762.551 819.438 764.016C818.402 765.461 817.123 766.584 815.6 767.385C814.076 768.186 812.318 768.586 810.326 768.586C808.354 768.586 806.625 768.225 805.141 767.502C803.676 766.76 802.436 765.715 801.42 764.367C800.404 763.02 799.584 761.438 798.959 759.621C798.354 757.785 797.924 755.773 797.67 753.586V751.213C797.924 748.889 798.354 746.779 798.959 744.885C799.584 742.99 800.404 741.359 801.42 739.992C802.436 738.625 803.676 737.57 805.141 736.828C806.605 736.086 808.314 735.715 810.268 735.715C812.26 735.715 814.027 736.105 815.57 736.887C817.113 737.648 818.412 738.742 819.467 740.168C820.521 741.574 821.312 743.273 821.84 745.266C822.367 747.238 822.631 749.436 822.631 751.857ZM815.57 752.473V751.857C815.57 750.393 815.434 749.035 815.16 747.785C814.887 746.516 814.457 745.402 813.871 744.445C813.285 743.488 812.533 742.746 811.615 742.219C810.717 741.672 809.633 741.398 808.363 741.398C807.113 741.398 806.039 741.613 805.141 742.043C804.242 742.453 803.49 743.029 802.885 743.771C802.279 744.514 801.811 745.383 801.479 746.379C801.146 747.355 800.912 748.42 800.775 749.572V755.256C801.01 756.662 801.41 757.951 801.977 759.123C802.543 760.295 803.344 761.232 804.379 761.936C805.434 762.619 806.781 762.961 808.422 762.961C809.691 762.961 810.775 762.688 811.674 762.141C812.572 761.594 813.305 760.842 813.871 759.885C814.457 758.908 814.887 757.785 815.16 756.516C815.434 755.246 815.57 753.898 815.57 752.473Z" fill="white"/>
<path d="M471.801 1281.34H486.889C490.131 1281.34 492.895 1281.83 495.18 1282.81C497.465 1283.79 499.213 1285.23 500.424 1287.14C501.654 1289.04 502.27 1291.38 502.27 1294.18C502.27 1296.3 501.879 1298.18 501.098 1299.8C500.316 1301.42 499.213 1302.79 497.787 1303.9C496.361 1305 494.662 1305.85 492.689 1306.45L490.463 1307.54H476.898L476.84 1301.71H487.006C488.764 1301.71 490.229 1301.39 491.4 1300.77C492.572 1300.14 493.451 1299.29 494.037 1298.22C494.643 1297.12 494.945 1295.89 494.945 1294.53C494.945 1293.04 494.652 1291.75 494.066 1290.66C493.5 1289.55 492.621 1288.7 491.43 1288.11C490.238 1287.51 488.725 1287.2 486.889 1287.2H479.154V1324H471.801V1281.34ZM496.146 1324L486.127 1304.84L493.832 1304.81L503.998 1323.62V1324H496.146ZM522.865 1324.59C520.521 1324.59 518.402 1324.21 516.508 1323.44C514.633 1322.66 513.031 1321.58 511.703 1320.19C510.395 1318.8 509.389 1317.17 508.686 1315.3C507.982 1313.42 507.631 1311.4 507.631 1309.23V1308.06C507.631 1305.58 507.992 1303.34 508.715 1301.32C509.438 1299.31 510.443 1297.59 511.732 1296.17C513.021 1294.72 514.545 1293.62 516.303 1292.86C518.061 1292.1 519.965 1291.71 522.016 1291.71C524.281 1291.71 526.264 1292.1 527.963 1292.86C529.662 1293.62 531.068 1294.69 532.182 1296.08C533.314 1297.45 534.154 1299.08 534.701 1300.97C535.268 1302.87 535.551 1304.96 535.551 1307.24V1310.26H511.059V1305.19H528.578V1304.63C528.539 1303.37 528.285 1302.17 527.816 1301.06C527.367 1299.95 526.674 1299.05 525.736 1298.37C524.799 1297.68 523.549 1297.34 521.986 1297.34C520.814 1297.34 519.77 1297.59 518.852 1298.1C517.953 1298.59 517.201 1299.3 516.596 1300.24C515.99 1301.18 515.521 1302.31 515.189 1303.64C514.877 1304.95 514.721 1306.42 514.721 1308.06V1309.23C514.721 1310.62 514.906 1311.91 515.277 1313.1C515.668 1314.27 516.234 1315.3 516.977 1316.18C517.719 1317.06 518.617 1317.75 519.672 1318.26C520.727 1318.75 521.928 1318.99 523.275 1318.99C524.975 1318.99 526.488 1318.65 527.816 1317.96C529.145 1317.28 530.297 1316.31 531.273 1315.06L534.994 1318.67C534.311 1319.66 533.422 1320.62 532.328 1321.54C531.234 1322.44 529.896 1323.17 528.314 1323.74C526.752 1324.3 524.936 1324.59 522.865 1324.59ZM548.148 1298.39V1336.19H541.088V1292.3H547.592L548.148 1298.39ZM568.803 1307.86V1308.47C568.803 1310.78 568.529 1312.92 567.982 1314.89C567.455 1316.84 566.664 1318.55 565.609 1320.02C564.574 1321.46 563.295 1322.58 561.771 1323.38C560.248 1324.19 558.49 1324.59 556.498 1324.59C554.525 1324.59 552.797 1324.22 551.312 1323.5C549.848 1322.76 548.607 1321.71 547.592 1320.37C546.576 1319.02 545.756 1317.44 545.131 1315.62C544.525 1313.79 544.096 1311.77 543.842 1309.59V1307.21C544.096 1304.89 544.525 1302.78 545.131 1300.88C545.756 1298.99 546.576 1297.36 547.592 1295.99C548.607 1294.62 549.848 1293.57 551.312 1292.83C552.777 1292.09 554.486 1291.71 556.439 1291.71C558.432 1291.71 560.199 1292.11 561.742 1292.89C563.285 1293.65 564.584 1294.74 565.639 1296.17C566.693 1297.57 567.484 1299.27 568.012 1301.27C568.539 1303.24 568.803 1305.44 568.803 1307.86ZM561.742 1308.47V1307.86C561.742 1306.39 561.605 1305.04 561.332 1303.79C561.059 1302.52 560.629 1301.4 560.043 1300.45C559.457 1299.49 558.705 1298.75 557.787 1298.22C556.889 1297.67 555.805 1297.4 554.535 1297.4C553.285 1297.4 552.211 1297.61 551.312 1298.04C550.414 1298.45 549.662 1299.03 549.057 1299.77C548.451 1300.51 547.982 1301.38 547.65 1302.38C547.318 1303.36 547.084 1304.42 546.947 1305.57V1311.26C547.182 1312.66 547.582 1313.95 548.148 1315.12C548.715 1316.29 549.516 1317.23 550.551 1317.94C551.605 1318.62 552.953 1318.96 554.594 1318.96C555.863 1318.96 556.947 1318.69 557.846 1318.14C558.744 1317.59 559.477 1316.84 560.043 1315.88C560.629 1314.91 561.059 1313.79 561.332 1312.52C561.605 1311.25 561.742 1309.9 561.742 1308.47ZM581.898 1298.34V1324H574.838V1292.3H581.576L581.898 1298.34ZM591.596 1292.1L591.537 1298.66C591.107 1298.58 590.639 1298.52 590.131 1298.48C589.643 1298.44 589.154 1298.42 588.666 1298.42C587.455 1298.42 586.391 1298.6 585.473 1298.95C584.555 1299.28 583.783 1299.77 583.158 1300.42C582.553 1301.04 582.084 1301.8 581.752 1302.7C581.42 1303.6 581.225 1304.61 581.166 1305.72L579.555 1305.84C579.555 1303.84 579.75 1302 580.141 1300.3C580.531 1298.6 581.117 1297.11 581.898 1295.82C582.699 1294.53 583.695 1293.52 584.887 1292.8C586.098 1292.08 587.494 1291.71 589.076 1291.71C589.506 1291.71 589.965 1291.75 590.453 1291.83C590.961 1291.91 591.342 1292 591.596 1292.1ZM609.408 1324.59C607.064 1324.59 604.945 1324.21 603.051 1323.44C601.176 1322.66 599.574 1321.58 598.246 1320.19C596.938 1318.8 595.932 1317.17 595.229 1315.3C594.525 1313.42 594.174 1311.4 594.174 1309.23V1308.06C594.174 1305.58 594.535 1303.34 595.258 1301.32C595.98 1299.31 596.986 1297.59 598.275 1296.17C599.564 1294.72 601.088 1293.62 602.846 1292.86C604.604 1292.1 606.508 1291.71 608.559 1291.71C610.824 1291.71 612.807 1292.1 614.506 1292.86C616.205 1293.62 617.611 1294.69 618.725 1296.08C619.857 1297.45 620.697 1299.08 621.244 1300.97C621.811 1302.87 622.094 1304.96 622.094 1307.24V1310.26H597.602V1305.19H615.121V1304.63C615.082 1303.37 614.828 1302.17 614.359 1301.06C613.91 1299.95 613.217 1299.05 612.279 1298.37C611.342 1297.68 610.092 1297.34 608.529 1297.34C607.357 1297.34 606.312 1297.59 605.395 1298.1C604.496 1298.59 603.744 1299.3 603.139 1300.24C602.533 1301.18 602.064 1302.31 601.732 1303.64C601.42 1304.95 601.264 1306.42 601.264 1308.06V1309.23C601.264 1310.62 601.449 1311.91 601.82 1313.1C602.211 1314.27 602.777 1315.3 603.52 1316.18C604.262 1317.06 605.16 1317.75 606.215 1318.26C607.27 1318.75 608.471 1318.99 609.818 1318.99C611.518 1318.99 613.031 1318.65 614.359 1317.96C615.688 1317.28 616.84 1316.31 617.816 1315.06L621.537 1318.67C620.854 1319.66 619.965 1320.62 618.871 1321.54C617.777 1322.44 616.439 1323.17 614.857 1323.74C613.295 1324.3 611.479 1324.59 609.408 1324.59ZM645.385 1315.42C645.385 1314.71 645.209 1314.08 644.857 1313.51C644.506 1312.93 643.832 1312.4 642.836 1311.93C641.859 1311.46 640.414 1311.03 638.5 1310.64C636.82 1310.27 635.277 1309.83 633.871 1309.32C632.484 1308.79 631.293 1308.16 630.297 1307.42C629.301 1306.68 628.529 1305.8 627.982 1304.78C627.436 1303.77 627.162 1302.59 627.162 1301.27C627.162 1299.98 627.445 1298.76 628.012 1297.6C628.578 1296.45 629.389 1295.44 630.443 1294.56C631.498 1293.68 632.777 1292.98 634.281 1292.48C635.805 1291.97 637.504 1291.71 639.379 1291.71C642.035 1291.71 644.311 1292.16 646.205 1293.06C648.119 1293.94 649.584 1295.14 650.6 1296.67C651.615 1298.17 652.123 1299.87 652.123 1301.76H645.062C645.062 1300.92 644.848 1300.14 644.418 1299.42C644.008 1298.68 643.383 1298.08 642.543 1297.63C641.703 1297.16 640.648 1296.93 639.379 1296.93C638.168 1296.93 637.162 1297.12 636.361 1297.52C635.58 1297.89 634.994 1298.38 634.604 1298.98C634.232 1299.59 634.047 1300.25 634.047 1300.97C634.047 1301.5 634.145 1301.98 634.34 1302.41C634.555 1302.82 634.906 1303.2 635.395 1303.55C635.883 1303.88 636.547 1304.2 637.387 1304.49C638.246 1304.78 639.32 1305.06 640.609 1305.34C643.031 1305.85 645.111 1306.5 646.85 1307.3C648.607 1308.08 649.955 1309.1 650.893 1310.35C651.83 1311.58 652.299 1313.14 652.299 1315.04C652.299 1316.44 651.996 1317.73 651.391 1318.9C650.805 1320.05 649.945 1321.06 648.812 1321.92C647.68 1322.76 646.322 1323.41 644.74 1323.88C643.178 1324.35 641.42 1324.59 639.467 1324.59C636.596 1324.59 634.164 1324.08 632.172 1323.06C630.18 1322.03 628.666 1320.71 627.631 1319.11C626.615 1317.49 626.107 1315.81 626.107 1314.07H632.934C633.012 1315.38 633.373 1316.42 634.018 1317.2C634.682 1317.96 635.502 1318.52 636.479 1318.87C637.475 1319.21 638.5 1319.37 639.555 1319.37C640.824 1319.37 641.889 1319.21 642.748 1318.87C643.607 1318.52 644.262 1318.05 644.711 1317.47C645.16 1316.86 645.385 1316.18 645.385 1315.42ZM672.455 1324.59C670.111 1324.59 667.992 1324.21 666.098 1323.44C664.223 1322.66 662.621 1321.58 661.293 1320.19C659.984 1318.8 658.979 1317.17 658.275 1315.3C657.572 1313.42 657.221 1311.4 657.221 1309.23V1308.06C657.221 1305.58 657.582 1303.34 658.305 1301.32C659.027 1299.31 660.033 1297.59 661.322 1296.17C662.611 1294.72 664.135 1293.62 665.893 1292.86C667.65 1292.1 669.555 1291.71 671.605 1291.71C673.871 1291.71 675.854 1292.1 677.553 1292.86C679.252 1293.62 680.658 1294.69 681.771 1296.08C682.904 1297.45 683.744 1299.08 684.291 1300.97C684.857 1302.87 685.141 1304.96 685.141 1307.24V1310.26H660.648V1305.19H678.168V1304.63C678.129 1303.37 677.875 1302.17 677.406 1301.06C676.957 1299.95 676.264 1299.05 675.326 1298.37C674.389 1297.68 673.139 1297.34 671.576 1297.34C670.404 1297.34 669.359 1297.59 668.441 1298.1C667.543 1298.59 666.791 1299.3 666.186 1300.24C665.58 1301.18 665.111 1302.31 664.779 1303.64C664.467 1304.95 664.311 1306.42 664.311 1308.06V1309.23C664.311 1310.62 664.496 1311.91 664.867 1313.1C665.258 1314.27 665.824 1315.3 666.566 1316.18C667.309 1317.06 668.207 1317.75 669.262 1318.26C670.316 1318.75 671.518 1318.99 672.865 1318.99C674.564 1318.99 676.078 1318.65 677.406 1317.96C678.734 1317.28 679.887 1316.31 680.863 1315.06L684.584 1318.67C683.9 1319.66 683.012 1320.62 681.918 1321.54C680.824 1322.44 679.486 1323.17 677.904 1323.74C676.342 1324.3 674.525 1324.59 672.455 1324.59ZM697.65 1299.07V1324H690.59V1292.3H697.24L697.65 1299.07ZM696.391 1306.98L694.105 1306.95C694.125 1304.7 694.438 1302.64 695.043 1300.77C695.668 1298.89 696.527 1297.28 697.621 1295.93C698.734 1294.59 700.062 1293.55 701.605 1292.83C703.148 1292.09 704.867 1291.71 706.762 1291.71C708.285 1291.71 709.662 1291.93 710.893 1292.36C712.143 1292.77 713.207 1293.44 714.086 1294.38C714.984 1295.32 715.668 1296.54 716.137 1298.04C716.605 1299.53 716.84 1301.35 716.84 1303.52V1324H709.75V1303.49C709.75 1301.97 709.525 1300.77 709.076 1299.89C708.646 1298.99 708.012 1298.36 707.172 1297.98C706.352 1297.59 705.326 1297.4 704.096 1297.4C702.885 1297.4 701.801 1297.65 700.844 1298.16C699.887 1298.67 699.076 1299.36 698.412 1300.24C697.768 1301.12 697.27 1302.13 696.918 1303.29C696.566 1304.44 696.391 1305.67 696.391 1306.98ZM738.578 1292.3V1297.46H720.707V1292.3H738.578ZM725.863 1284.54H732.924V1315.24C732.924 1316.22 733.061 1316.97 733.334 1317.5C733.627 1318 734.027 1318.35 734.535 1318.52C735.043 1318.7 735.639 1318.79 736.322 1318.79C736.811 1318.79 737.279 1318.76 737.729 1318.7C738.178 1318.64 738.539 1318.58 738.812 1318.52L738.842 1323.91C738.256 1324.09 737.572 1324.24 736.791 1324.38C736.029 1324.52 735.15 1324.59 734.154 1324.59C732.533 1324.59 731.098 1324.3 729.848 1323.74C728.598 1323.15 727.621 1322.2 726.918 1320.89C726.215 1319.59 725.863 1317.85 725.863 1315.68V1284.54ZM761.898 1317.64V1302.53C761.898 1301.39 761.693 1300.42 761.283 1299.6C760.873 1298.78 760.248 1298.14 759.408 1297.69C758.588 1297.24 757.553 1297.02 756.303 1297.02C755.15 1297.02 754.154 1297.21 753.314 1297.6C752.475 1297.99 751.82 1298.52 751.352 1299.19C750.883 1299.85 750.648 1300.6 750.648 1301.44H743.617C743.617 1300.19 743.92 1298.98 744.525 1297.81C745.131 1296.64 746.01 1295.59 747.162 1294.67C748.314 1293.76 749.691 1293.03 751.293 1292.51C752.895 1291.98 754.691 1291.71 756.684 1291.71C759.066 1291.71 761.176 1292.12 763.012 1292.92C764.867 1293.72 766.322 1294.93 767.377 1296.55C768.451 1298.15 768.988 1300.16 768.988 1302.58V1316.68C768.988 1318.12 769.086 1319.42 769.281 1320.57C769.496 1321.71 769.799 1322.69 770.189 1323.53V1324H762.953C762.621 1323.24 762.357 1322.27 762.162 1321.1C761.986 1319.91 761.898 1318.76 761.898 1317.64ZM762.924 1304.72L762.982 1309.09H757.914C756.605 1309.09 755.453 1309.21 754.457 1309.47C753.461 1309.7 752.631 1310.05 751.967 1310.52C751.303 1310.99 750.805 1311.56 750.473 1312.22C750.141 1312.89 749.975 1313.64 749.975 1314.48C749.975 1315.32 750.17 1316.09 750.561 1316.79C750.951 1317.48 751.518 1318.01 752.26 1318.4C753.021 1318.79 753.939 1318.99 755.014 1318.99C756.459 1318.99 757.719 1318.7 758.793 1318.11C759.887 1317.51 760.746 1316.77 761.371 1315.91C761.996 1315.04 762.328 1314.21 762.367 1313.42L764.652 1316.56C764.418 1317.36 764.018 1318.22 763.451 1319.14C762.885 1320.05 762.143 1320.93 761.225 1321.77C760.326 1322.59 759.242 1323.27 757.973 1323.79C756.723 1324.32 755.277 1324.59 753.637 1324.59C751.566 1324.59 749.721 1324.18 748.1 1323.36C746.479 1322.52 745.209 1321.39 744.291 1319.99C743.373 1318.56 742.914 1316.95 742.914 1315.15C742.914 1313.47 743.227 1311.99 743.852 1310.7C744.496 1309.39 745.434 1308.3 746.664 1307.42C747.914 1306.54 749.438 1305.88 751.234 1305.43C753.031 1304.96 755.082 1304.72 757.387 1304.72H762.924ZM790.902 1292.3V1297.46H773.031V1292.3H790.902ZM778.188 1284.54H785.248V1315.24C785.248 1316.22 785.385 1316.97 785.658 1317.5C785.951 1318 786.352 1318.35 786.859 1318.52C787.367 1318.7 787.963 1318.79 788.646 1318.79C789.135 1318.79 789.604 1318.76 790.053 1318.7C790.502 1318.64 790.863 1318.58 791.137 1318.52L791.166 1323.91C790.58 1324.09 789.896 1324.24 789.115 1324.38C788.354 1324.52 787.475 1324.59 786.479 1324.59C784.857 1324.59 783.422 1324.3 782.172 1323.74C780.922 1323.15 779.945 1322.2 779.242 1320.89C778.539 1319.59 778.188 1317.85 778.188 1315.68V1284.54ZM803.91 1292.3V1324H796.82V1292.3H803.91ZM796.352 1283.98C796.352 1282.91 796.703 1282.02 797.406 1281.31C798.129 1280.59 799.125 1280.23 800.395 1280.23C801.645 1280.23 802.631 1280.59 803.354 1281.31C804.076 1282.02 804.438 1282.91 804.438 1283.98C804.438 1285.04 804.076 1285.91 803.354 1286.62C802.631 1287.32 801.645 1287.67 800.395 1287.67C799.125 1287.67 798.129 1287.32 797.406 1286.62C796.703 1285.91 796.352 1285.04 796.352 1283.98ZM821.957 1318.4L829.721 1292.3H837.045L826.029 1324H821.459L821.957 1318.4ZM816.01 1292.3L823.92 1318.52L824.301 1324H819.73L808.656 1292.3H816.01ZM854.975 1324.59C852.631 1324.59 850.512 1324.21 848.617 1323.44C846.742 1322.66 845.141 1321.58 843.812 1320.19C842.504 1318.8 841.498 1317.17 840.795 1315.3C840.092 1313.42 839.74 1311.4 839.74 1309.23V1308.06C839.74 1305.58 840.102 1303.34 840.824 1301.32C841.547 1299.31 842.553 1297.59 843.842 1296.17C845.131 1294.72 846.654 1293.62 848.412 1292.86C850.17 1292.1 852.074 1291.71 854.125 1291.71C856.391 1291.71 858.373 1292.1 860.072 1292.86C861.771 1293.62 863.178 1294.69 864.291 1296.08C865.424 1297.45 866.264 1299.08 866.811 1300.97C867.377 1302.87 867.66 1304.96 867.66 1307.24V1310.26H843.168V1305.19H860.688V1304.63C860.648 1303.37 860.395 1302.17 859.926 1301.06C859.477 1299.95 858.783 1299.05 857.846 1298.37C856.908 1297.68 855.658 1297.34 854.096 1297.34C852.924 1297.34 851.879 1297.59 850.961 1298.1C850.062 1298.59 849.311 1299.3 848.705 1300.24C848.1 1301.18 847.631 1302.31 847.299 1303.64C846.986 1304.95 846.83 1306.42 846.83 1308.06V1309.23C846.83 1310.62 847.016 1311.91 847.387 1313.1C847.777 1314.27 848.344 1315.3 849.086 1316.18C849.828 1317.06 850.727 1317.75 851.781 1318.26C852.836 1318.75 854.037 1318.99 855.385 1318.99C857.084 1318.99 858.598 1318.65 859.926 1317.96C861.254 1317.28 862.406 1316.31 863.383 1315.06L867.104 1318.67C866.42 1319.66 865.531 1320.62 864.438 1321.54C863.344 1322.44 862.006 1323.17 860.424 1323.74C858.861 1324.3 857.045 1324.59 854.975 1324.59ZM627.572 1361.5V1363.84C627.572 1367.07 627.152 1369.96 626.312 1372.52C625.473 1375.07 624.271 1377.25 622.709 1379.05C621.166 1380.85 619.311 1382.22 617.143 1383.18C614.975 1384.12 612.572 1384.59 609.936 1384.59C607.318 1384.59 604.926 1384.12 602.758 1383.18C600.609 1382.22 598.744 1380.85 597.162 1379.05C595.58 1377.25 594.35 1375.07 593.471 1372.52C592.611 1369.96 592.182 1367.07 592.182 1363.84V1361.5C592.182 1358.28 592.611 1355.4 593.471 1352.86C594.33 1350.3 595.541 1348.12 597.104 1346.32C598.686 1344.51 600.551 1343.13 602.699 1342.19C604.867 1341.24 607.26 1340.76 609.877 1340.76C612.514 1340.76 614.916 1341.24 617.084 1342.19C619.252 1343.13 621.117 1344.51 622.68 1346.32C624.242 1348.12 625.443 1350.3 626.283 1352.86C627.143 1355.4 627.572 1358.28 627.572 1361.5ZM620.219 1363.84V1361.44C620.219 1359.06 619.984 1356.96 619.516 1355.14C619.066 1353.31 618.393 1351.77 617.494 1350.54C616.615 1349.29 615.531 1348.36 614.242 1347.73C612.953 1347.09 611.498 1346.76 609.877 1346.76C608.256 1346.76 606.811 1347.09 605.541 1347.73C604.271 1348.36 603.188 1349.29 602.289 1350.54C601.41 1351.77 600.736 1353.31 600.268 1355.14C599.799 1356.96 599.564 1359.06 599.564 1361.44V1363.84C599.564 1366.23 599.799 1368.34 600.268 1370.17C600.736 1372.01 601.42 1373.56 602.318 1374.83C603.236 1376.08 604.33 1377.03 605.6 1377.67C606.869 1378.3 608.314 1378.61 609.936 1378.61C611.576 1378.61 613.031 1378.3 614.301 1377.67C615.57 1377.03 616.645 1376.08 617.523 1374.83C618.402 1373.56 619.066 1372.01 619.516 1370.17C619.984 1368.34 620.219 1366.23 620.219 1363.84ZM643.773 1384H636.713V1349.25C636.713 1346.89 637.152 1344.91 638.031 1343.31C638.93 1341.69 640.209 1340.46 641.869 1339.64C643.529 1338.8 645.492 1338.38 647.758 1338.38C648.461 1338.38 649.154 1338.43 649.838 1338.53C650.521 1338.61 651.186 1338.74 651.83 1338.91L651.654 1344.36C651.264 1344.26 650.834 1344.2 650.365 1344.16C649.916 1344.12 649.428 1344.1 648.9 1344.1C647.826 1344.1 646.898 1344.3 646.117 1344.71C645.355 1345.1 644.77 1345.68 644.359 1346.44C643.969 1347.2 643.773 1348.14 643.773 1349.25V1384ZM650.482 1352.3V1357.46H631.85V1352.3H650.482ZM661.938 1384H654.877V1350.25C654.877 1347.69 655.385 1345.53 656.4 1343.78C657.416 1342.02 658.881 1340.68 660.795 1339.76C662.729 1338.84 665.023 1338.38 667.68 1338.38C669.242 1338.38 670.756 1338.55 672.221 1338.88C673.686 1339.21 675.189 1339.63 676.732 1340.14L675.648 1345.88C674.672 1345.55 673.568 1345.24 672.338 1344.95C671.127 1344.63 669.74 1344.48 668.178 1344.48C666.049 1344.48 664.477 1344.97 663.461 1345.94C662.445 1346.9 661.938 1348.34 661.938 1350.25V1384ZM668.324 1352.3V1357.46H650.014V1352.3H668.324ZM680.102 1352.3V1384H673.012V1352.3H680.102ZM700.844 1378.96C701.996 1378.96 703.031 1378.74 703.949 1378.29C704.887 1377.82 705.639 1377.17 706.205 1376.35C706.791 1375.53 707.113 1374.59 707.172 1373.51H713.822C713.783 1375.56 713.178 1377.43 712.006 1379.11C710.834 1380.79 709.281 1382.12 707.348 1383.12C705.414 1384.1 703.275 1384.59 700.932 1384.59C698.51 1384.59 696.4 1384.18 694.604 1383.36C692.807 1382.52 691.312 1381.36 690.121 1379.9C688.93 1378.43 688.031 1376.74 687.426 1374.83C686.84 1372.92 686.547 1370.87 686.547 1368.68V1367.65C686.547 1365.46 686.84 1363.41 687.426 1361.5C688.031 1359.57 688.93 1357.87 690.121 1356.4C691.312 1354.94 692.807 1353.79 694.604 1352.97C696.4 1352.13 698.5 1351.71 700.902 1351.71C703.441 1351.71 705.668 1352.22 707.582 1353.24C709.496 1354.23 711 1355.63 712.094 1357.43C713.207 1359.21 713.783 1361.28 713.822 1363.64H707.172C707.113 1362.47 706.82 1361.41 706.293 1360.47C705.785 1359.52 705.062 1358.76 704.125 1358.19C703.207 1357.62 702.104 1357.34 700.814 1357.34C699.389 1357.34 698.207 1357.63 697.27 1358.22C696.332 1358.79 695.6 1359.57 695.072 1360.56C694.545 1361.54 694.164 1362.64 693.93 1363.87C693.715 1365.08 693.607 1366.34 693.607 1367.65V1368.68C693.607 1369.99 693.715 1371.26 693.93 1372.49C694.145 1373.72 694.516 1374.82 695.043 1375.8C695.59 1376.75 696.332 1377.53 697.27 1378.11C698.207 1378.68 699.398 1378.96 700.844 1378.96ZM733.217 1384.59C730.873 1384.59 728.754 1384.21 726.859 1383.44C724.984 1382.66 723.383 1381.58 722.055 1380.19C720.746 1378.8 719.74 1377.17 719.037 1375.3C718.334 1373.42 717.982 1371.4 717.982 1369.23V1368.06C717.982 1365.58 718.344 1363.34 719.066 1361.32C719.789 1359.31 720.795 1357.59 722.084 1356.17C723.373 1354.72 724.896 1353.62 726.654 1352.86C728.412 1352.1 730.316 1351.71 732.367 1351.71C734.633 1351.71 736.615 1352.1 738.314 1352.86C740.014 1353.62 741.42 1354.69 742.533 1356.08C743.666 1357.45 744.506 1359.08 745.053 1360.97C745.619 1362.87 745.902 1364.96 745.902 1367.24V1370.26H721.41V1365.19H738.93V1364.63C738.891 1363.37 738.637 1362.17 738.168 1361.06C737.719 1359.95 737.025 1359.05 736.088 1358.37C735.15 1357.68 733.9 1357.34 732.338 1357.34C731.166 1357.34 730.121 1357.59 729.203 1358.1C728.305 1358.59 727.553 1359.3 726.947 1360.24C726.342 1361.18 725.873 1362.31 725.541 1363.64C725.229 1364.95 725.072 1366.42 725.072 1368.06V1369.23C725.072 1370.62 725.258 1371.91 725.629 1373.1C726.02 1374.27 726.586 1375.3 727.328 1376.18C728.07 1377.06 728.969 1377.75 730.023 1378.26C731.078 1378.75 732.279 1378.99 733.627 1378.99C735.326 1378.99 736.84 1378.65 738.168 1377.96C739.496 1377.28 740.648 1376.31 741.625 1375.06L745.346 1378.67C744.662 1379.66 743.773 1380.62 742.68 1381.54C741.586 1382.44 740.248 1383.17 738.666 1383.74C737.104 1384.3 735.287 1384.59 733.217 1384.59Z" fill="white"/>
<path d="M915.001 974.03C878.55 974.03 849.001 1010.8 849.001 1056.16C849.001 1101.52 878.55 1138.29 915.001 1138.29C951.451 1138.29 981 1101.52 981 1056.16C981 1010.8 951.451 974.03 915.001 974.03Z" fill="#FFA229"/>
<path d="M844.021 955.318C883.465 989.99 896.859 1045.09 877.245 1094.33C857.656 1143.5 809.971 1174.42 757.469 1172.59L750.808 1189.32C780.9 1191.61 810.938 1184.24 836.539 1168.28C862.139 1152.33 881.961 1128.62 893.113 1100.63C904.265 1072.63 906.163 1041.81 898.53 1012.66C890.896 983.514 874.131 957.564 850.681 938.599L844.021 955.318Z" fill="#FFA229"/>
<path d="M765.824 924.266C713.306 922.425 665.662 953.3 646.048 1002.54C626.461 1051.71 639.849 1106.88 679.274 1141.54L672.613 1158.27C649.167 1139.3 632.405 1113.35 624.773 1084.2C617.142 1055.06 619.04 1024.24 630.192 996.246C641.343 968.253 661.164 944.55 686.761 928.595C712.359 912.641 742.394 905.27 772.484 907.558L765.824 924.266Z" fill="#FFA229"/>
<path d="M84.9993 832.111C121.45 832.111 150.999 795.34 150.999 749.981C150.999 704.622 121.45 667.852 84.9993 667.852C48.5489 667.852 19 704.622 19 749.981C19 795.34 48.5489 832.111 84.9993 832.111Z" fill="#1C4670"/>
<path d="M84.9993 1413.84C121.45 1413.84 150.999 1377.07 150.999 1331.71C150.999 1286.35 121.45 1249.58 84.9993 1249.58C48.5489 1249.58 19 1286.35 19 1331.71C19 1377.07 48.5489 1413.84 84.9993 1413.84Z" fill="#1C4670"/>
<path d="M673.868 960.713C625.34 1009.16 625.34 1087.7 673.868 1136.15C722.395 1184.59 801.074 1184.59 849.602 1136.15C898.129 1087.7 898.129 1009.16 849.602 960.713C801.074 912.268 722.395 912.268 673.868 960.713Z" fill="white"/>
<path d="M155.979 850.823C116.535 816.151 103.141 761.051 122.755 711.814C142.344 662.64 190.029 631.716 242.531 633.547L249.192 616.823C219.1 614.533 189.062 621.903 163.461 637.858C137.861 653.813 118.039 677.518 106.887 705.513C95.7346 733.509 93.8369 764.33 101.47 793.478C109.104 822.627 125.869 848.577 149.319 867.542L155.979 850.823Z" fill="#1C4670"/>
<path d="M155.979 1432.55C116.535 1397.88 103.141 1342.78 122.755 1293.54C142.344 1244.37 190.029 1213.44 242.531 1215.27L249.192 1198.55C219.1 1196.26 189.062 1203.63 163.461 1219.58C137.861 1235.54 118.039 1259.24 106.887 1287.24C95.7346 1315.24 93.8369 1346.06 101.47 1375.2C109.104 1404.35 125.869 1430.3 149.319 1449.27L155.979 1432.55Z" fill="#1C4670"/>
<path d="M686.649 973.558C645.228 1014.91 645.228 1081.95 686.649 1123.3C728.07 1164.65 795.227 1164.65 836.649 1123.3C878.07 1081.95 878.07 1014.91 836.649 973.558C795.227 932.208 728.07 932.208 686.649 973.558Z" fill="#1C4670"/>
<path d="M836.294 974.224C877.52 1015.38 877.52 1082.11 836.294 1123.26C795.068 1164.42 728.228 1164.42 687.002 1123.26C645.776 1082.11 645.776 1015.38 687.002 974.224C728.228 933.069 795.068 933.069 836.294 974.224Z" fill="white" stroke="black"/>
<path d="M740.906 1085.66C734.808 1085.66 730.092 1083.95 726.756 1080.53C723.447 1077.11 721.793 1072.19 721.793 1065.76V1033.2C721.793 1026.42 723.365 1021.22 726.51 1017.61C729.681 1013.97 734.48 1012.16 740.906 1012.16C747.359 1012.16 752.158 1013.97 755.303 1017.61C758.447 1021.22 760.019 1026.42 760.019 1033.2V1065.76C760.019 1072.19 758.365 1077.11 755.056 1080.53C751.748 1083.95 747.031 1085.66 740.906 1085.66ZM740.906 1072.37C742.027 1072.37 742.902 1071.86 743.531 1070.85C744.16 1069.84 744.474 1068.7 744.474 1067.45V1031.8C744.474 1030.11 744.283 1028.63 743.9 1027.37C743.545 1026.09 742.547 1025.45 740.906 1025.45C739.265 1025.45 738.254 1026.09 737.871 1027.37C737.515 1028.63 737.338 1030.11 737.338 1031.8V1067.45C737.338 1068.7 737.652 1069.84 738.281 1070.85C738.937 1071.86 739.812 1072.37 740.906 1072.37ZM785.488 1085.04V1073.6H764.078V1062.32L777.736 1012.77H800.213V1061.54H804.069V1073.6H800.213V1085.04H785.488ZM776.957 1061.54H785.488V1025.16L776.957 1061.54Z" fill="#1C4670"/>
<path d="M234.176 881.874C286.694 883.716 334.338 852.84 353.952 803.605C373.539 754.431 360.151 699.257 320.726 664.598L327.387 647.875C350.833 666.841 367.595 692.79 375.227 721.936C382.858 751.083 380.96 781.901 369.808 809.894C358.657 837.887 338.836 861.591 313.239 877.545C287.641 893.5 257.606 900.871 227.516 898.583L234.176 881.874Z" fill="#1C4670"/>
<path d="M234.176 1463.6C286.694 1465.44 334.338 1434.57 353.952 1385.33C373.539 1336.16 360.151 1280.98 320.726 1246.32L327.387 1229.6C350.833 1248.57 367.595 1274.52 375.227 1303.66C382.858 1332.81 380.96 1363.63 369.808 1391.62C358.657 1419.61 338.836 1443.32 313.239 1459.27C287.641 1475.23 257.606 1482.6 227.516 1480.31L234.176 1463.6Z" fill="#1C4670"/>
<path d="M326.218 845.42C374.746 796.975 374.746 718.431 326.218 669.986C277.691 621.542 199.012 621.542 150.484 669.986C101.957 718.431 101.957 796.975 150.484 845.42C199.012 893.864 277.691 893.864 326.218 845.42Z" fill="white"/>
<path d="M326.218 1427.15C374.746 1378.7 374.746 1300.16 326.218 1251.71C277.691 1203.27 199.012 1203.27 150.484 1251.71C101.957 1300.16 101.957 1378.7 150.484 1427.15C199.012 1475.59 277.691 1475.59 326.218 1427.15Z" fill="white"/>
<path d="M313.351 832.575C354.772 791.224 354.772 724.182 313.351 682.832C271.93 641.481 204.773 641.481 163.351 682.832C121.93 724.182 121.93 791.224 163.351 832.575C204.773 873.925 271.93 873.925 313.351 832.575Z" fill="#FFA229"/>
<path d="M313.351 1414.3C354.772 1372.95 354.772 1305.91 313.351 1264.56C271.93 1223.21 204.773 1223.21 163.351 1264.56C121.93 1305.91 121.93 1372.95 163.351 1414.3C204.773 1455.65 271.93 1455.65 313.351 1414.3Z" fill="#FFA229"/>
<path d="M219.906 791.656C213.808 791.656 209.092 789.947 205.756 786.529C202.447 783.111 200.793 778.189 200.793 771.764V739.197C200.793 732.416 202.365 727.221 205.51 723.611C208.681 719.975 213.48 718.156 219.906 718.156C226.359 718.156 231.158 719.975 234.303 723.611C237.447 727.221 239.019 732.416 239.019 739.197V771.764C239.019 778.189 237.365 783.111 234.056 786.529C230.748 789.947 226.031 791.656 219.906 791.656ZM219.906 778.367C221.027 778.367 221.902 777.861 222.531 776.85C223.16 775.838 223.474 774.703 223.474 773.445V737.803C223.474 736.107 223.283 734.631 222.9 733.373C222.545 732.088 221.547 731.445 219.906 731.445C218.265 731.445 217.254 732.088 216.871 733.373C216.515 734.631 216.338 736.107 216.338 737.803V773.445C216.338 774.703 216.652 775.838 217.281 776.85C217.937 777.861 218.812 778.367 219.906 778.367ZM262.192 791.82C255.82 791.82 251.186 790.139 248.287 786.775C245.389 783.412 243.94 778.34 243.94 771.559V764.012H258.746V771.6C258.746 773.514 258.979 775.141 259.444 776.48C259.936 777.793 261.016 778.449 262.684 778.449C264.379 778.449 265.459 777.738 265.924 776.316C266.389 774.867 266.621 772.516 266.621 769.262V767.457C266.621 764.969 266.197 762.795 265.35 760.936C264.529 759.076 262.903 758.146 260.469 758.146C260.168 758.146 259.895 758.16 259.649 758.188C259.43 758.188 259.238 758.201 259.074 758.229V745.268C261.563 745.268 263.463 744.721 264.776 743.627C266.088 742.506 266.744 740.646 266.744 738.049C266.744 733.975 265.569 731.938 263.217 731.938C261.686 731.938 260.647 732.539 260.1 733.742C259.58 734.918 259.32 736.422 259.32 738.254V740.428H244.391C244.363 740.1 244.336 739.703 244.309 739.238C244.309 738.773 244.309 738.322 244.309 737.885C244.309 731.268 245.854 726.414 248.944 723.324C252.033 720.234 256.764 718.689 263.135 718.689C275.44 718.689 281.592 725.088 281.592 737.885C281.592 741.439 281.113 744.379 280.156 746.703C279.199 749 277.422 750.613 274.824 751.543C276.875 752.527 278.393 753.785 279.377 755.316C280.361 756.848 281.004 758.748 281.305 761.018C281.606 763.287 281.756 766.035 281.756 769.262C281.756 776.48 280.238 782.045 277.203 785.955C274.195 789.865 269.192 791.82 262.192 791.82Z" fill="white"/>
<path d="M219.906 1373.38C213.808 1373.38 209.092 1371.67 205.756 1368.26C202.447 1364.84 200.793 1359.92 200.793 1353.49V1320.92C200.793 1314.14 202.365 1308.95 205.51 1305.34C208.681 1301.7 213.48 1299.88 219.906 1299.88C226.359 1299.88 231.158 1301.7 234.303 1305.34C237.447 1308.95 239.019 1314.14 239.019 1320.92V1353.49C239.019 1359.92 237.365 1364.84 234.056 1368.26C230.748 1371.67 226.031 1373.38 219.906 1373.38ZM219.906 1360.09C221.027 1360.09 221.902 1359.59 222.531 1358.58C223.16 1357.56 223.474 1356.43 223.474 1355.17V1319.53C223.474 1317.83 223.283 1316.36 222.9 1315.1C222.545 1313.81 221.547 1313.17 219.906 1313.17C218.265 1313.17 217.254 1313.81 216.871 1315.1C216.515 1316.36 216.338 1317.83 216.338 1319.53V1355.17C216.338 1356.43 216.652 1357.56 217.281 1358.58C217.937 1359.59 218.812 1360.09 219.906 1360.09ZM263.094 1373.75C257.543 1373.75 253.004 1372.38 249.477 1369.65C245.977 1366.89 244.227 1362.66 244.227 1356.98V1346.23H259.238V1352.42C259.238 1353.71 259.307 1354.95 259.444 1356.16C259.608 1357.36 259.963 1358.34 260.51 1359.11C261.057 1359.88 261.918 1360.26 263.094 1360.26C264.653 1360.26 265.678 1359.74 266.17 1358.7C266.662 1357.63 266.908 1356.28 266.908 1354.64V1340.45C266.908 1339.27 266.826 1338.11 266.662 1336.96C266.526 1335.81 266.197 1334.86 265.678 1334.09C265.158 1333.32 264.324 1332.94 263.176 1332.94C260.442 1332.94 259.074 1334.92 259.074 1338.89H245.826V1300.5H280.238V1314.03H259.526V1324.21C260.236 1323.33 261.194 1322.56 262.397 1321.91C263.627 1321.22 265.063 1320.88 266.703 1320.88C269.985 1320.88 272.651 1321.51 274.701 1322.77C276.779 1324.03 278.365 1325.78 279.459 1328.02C280.58 1330.26 281.346 1332.86 281.756 1335.81C282.194 1338.77 282.412 1341.94 282.412 1345.33C282.412 1349.68 282.18 1353.6 281.715 1357.1C281.278 1360.57 280.389 1363.55 279.049 1366.04C277.736 1368.53 275.795 1370.44 273.225 1371.78C270.682 1373.1 267.305 1373.75 263.094 1373.75Z" fill="white"/>
<path d="M836.294 386.482C877.52 427.637 877.52 494.363 836.294 535.518C795.068 576.673 728.228 576.673 687.002 535.518C645.776 494.363 645.776 427.637 687.002 386.482C728.228 345.327 795.068 345.327 836.294 386.482Z" fill="white" stroke="black"/>
<path d="M738.906 499.656C732.808 499.656 728.092 497.947 724.756 494.529C721.447 491.111 719.793 486.189 719.793 479.764V447.197C719.793 440.416 721.365 435.221 724.51 431.611C727.681 427.975 732.48 426.156 738.906 426.156C745.359 426.156 750.158 427.975 753.303 431.611C756.447 435.221 758.019 440.416 758.019 447.197V479.764C758.019 486.189 756.365 491.111 753.056 494.529C749.748 497.947 745.031 499.656 738.906 499.656ZM738.906 486.367C740.027 486.367 740.902 485.861 741.531 484.85C742.16 483.838 742.474 482.703 742.474 481.445V445.803C742.474 444.107 742.283 442.631 741.9 441.373C741.545 440.088 740.547 439.445 738.906 439.445C737.265 439.445 736.254 440.088 735.871 441.373C735.515 442.631 735.338 444.107 735.338 445.803V481.445C735.338 482.703 735.652 483.838 736.281 484.85C736.937 485.861 737.812 486.367 738.906 486.367ZM763.883 499V495.555C763.883 491.973 764.43 488.76 765.524 485.916C766.645 483.045 768.08 480.393 769.83 477.959C771.58 475.498 773.426 473.092 775.367 470.74C777.254 468.443 779.045 466.092 780.74 463.686C782.463 461.252 783.858 458.627 784.924 455.811C786.018 452.967 786.565 449.781 786.565 446.254C786.565 444.559 786.305 443.109 785.785 441.906C785.293 440.676 784.254 440.061 782.668 440.061C780.262 440.061 779.059 442.207 779.059 446.5V455.318H763.883C763.856 454.689 763.815 453.979 763.76 453.186C763.733 452.393 763.719 451.627 763.719 450.889C763.719 445.693 764.266 441.291 765.36 437.682C766.453 434.045 768.381 431.283 771.143 429.396C773.932 427.482 777.842 426.525 782.873 426.525C788.861 426.525 793.51 428.207 796.819 431.57C800.154 434.934 801.822 439.732 801.822 445.967C801.822 450.205 801.276 453.924 800.182 457.123C799.088 460.295 797.639 463.193 795.834 465.818C794.029 468.416 792.047 471.014 789.887 473.611C788.356 475.443 786.865 477.316 785.416 479.23C783.994 481.145 782.736 483.195 781.643 485.383H801.33V499H763.883Z" fill="#1C4670"/>
</g>
<defs>
<clipPath id="clip0_282_4357">
<rect width="1000" height="1515" fill="white"/>
</clipPath>
</defs>
</svg>
