<svg width="1080" height="1080" viewBox="0 0 1080 1080" fill="none" xmlns="http://www.w3.org/2000/svg">
<rect width="1080" height="1080" transform="translate(1080 1080) rotate(180)" fill="white"/>
<path d="M661.58 189.587C751.308 217.442 848.829 263.149 901.505 342.134C971.143 446.549 1020.38 602.486 974.576 739.266C928.382 877.208 754.763 981.69 610.732 975.21C499.32 970.199 414.805 899.206 306.778 946.16C259.444 966.734 255.261 989.236 226.79 989.66C125.059 991.177 -39.8424 707.158 37.0471 473.259C119.953 221.054 412.108 112.139 661.58 189.587Z" fill="#EDE8FF"/>
<path d="M415.111 323.125H196.203V649.985H415.111V323.125Z" fill="white"/>
<path d="M633.732 220.375H478.773V451.752H633.732V220.375Z" fill="white"/>
<path d="M689.763 489.219H587.805V641.456H689.763V489.219Z" fill="white"/>
<path d="M933.647 526.672C930.928 522.083 928.12 517.338 922.452 517.338C916.785 517.338 913.976 522.085 911.258 526.672C908.566 531.22 906.024 535.513 900.933 535.513C895.842 535.513 893.3 531.22 890.611 526.672C887.895 522.083 885.086 517.336 879.419 517.336C873.752 517.336 870.946 522.083 868.229 526.67C865.538 531.217 862.996 535.51 857.908 535.51C852.816 535.51 850.275 531.217 847.586 526.67C844.869 522.08 842.061 517.336 836.393 517.336C830.726 517.336 827.917 522.083 825.201 526.67C822.762 530.791 820.424 534.669 816.219 535.365V536.376C820.988 535.677 823.582 531.387 826.069 527.184C828.761 522.639 831.302 518.344 836.391 518.344C841.482 518.344 844.024 522.637 846.713 527.184C849.429 531.773 852.238 536.518 857.905 536.518C863.572 536.518 866.381 531.771 869.097 527.181C871.789 522.637 874.328 518.341 879.419 518.341C884.51 518.341 887.052 522.634 889.741 527.181C892.457 531.771 895.266 536.515 900.933 536.515C906.6 536.515 909.409 531.768 912.128 527.181C914.819 522.637 917.361 518.341 922.452 518.341C927.543 518.341 930.085 522.634 932.777 527.181C935.496 531.771 938.304 536.515 943.971 536.515V535.505C938.878 535.513 936.339 531.22 933.647 526.672Z" fill="white" stroke="white" stroke-miterlimit="10"/>
<path d="M540.135 280.57C534.468 280.57 531.659 275.823 528.94 271.236C526.248 266.689 523.707 262.396 518.616 262.396C513.525 262.396 510.983 266.689 508.291 271.236C505.575 275.826 502.764 280.57 497.097 280.57C491.432 280.57 488.621 275.826 485.904 271.236C483.215 266.689 480.671 262.396 475.58 262.396C470.489 262.396 467.947 266.689 465.258 271.236C462.542 275.826 459.733 280.572 454.066 280.572C448.399 280.572 445.59 275.826 442.874 271.238C440.182 266.691 437.64 262.398 432.552 262.398C427.461 262.398 424.919 266.691 422.23 271.238C419.514 275.828 416.705 280.572 411.038 280.572C405.373 280.572 402.564 275.826 399.848 271.238C397.156 266.691 394.617 262.398 389.526 262.398C384.437 262.398 381.896 266.691 379.204 271.238C376.488 275.828 373.679 280.575 368.014 280.575C362.35 280.575 359.541 275.828 356.827 271.241C354.138 266.694 351.596 262.401 346.508 262.401V261.391C352.173 261.391 354.981 266.137 357.698 270.727C360.387 275.272 362.928 279.567 368.017 279.567C373.108 279.567 375.647 275.274 378.339 270.727C381.055 266.137 383.864 261.391 389.529 261.391C395.193 261.391 398.002 266.137 400.718 270.727C403.41 275.274 405.949 279.567 411.04 279.567C416.131 279.567 418.673 275.274 421.362 270.727C424.078 266.137 426.887 261.391 432.554 261.391C438.222 261.391 441.03 266.137 443.744 270.727C446.436 275.274 448.977 279.567 454.066 279.567C459.157 279.567 461.699 275.274 464.388 270.727C467.104 266.137 469.913 261.391 475.577 261.391C481.245 261.391 484.053 266.137 486.77 270.727C489.459 275.272 492.003 279.567 497.092 279.567C502.183 279.567 504.724 275.274 507.416 270.727C510.135 266.137 512.943 261.391 518.611 261.391C524.278 261.391 527.087 266.137 529.805 270.727C532.497 275.274 535.039 279.567 540.13 279.567V280.57H540.135Z" fill="white" stroke="white" stroke-miterlimit="10"/>
<path d="M118.334 582.147C113.744 584.863 109 587.672 109 593.339C109 599.007 113.747 601.815 118.337 604.532C122.881 607.221 127.177 609.762 127.177 614.853C127.177 615.547 127.084 616.183 126.935 616.789H127.98C128.11 616.18 128.187 615.539 128.187 614.853C128.187 609.189 123.44 606.38 118.853 603.664C114.306 600.972 110.013 598.43 110.013 593.342C110.013 588.253 114.306 585.709 118.853 583.02C123.443 580.304 128.187 577.495 128.187 571.828C128.187 566.16 123.44 563.352 118.853 560.635C114.306 557.944 110.013 555.402 110.013 550.314C110.013 545.223 114.306 542.683 118.853 539.992C123.443 537.275 128.187 534.467 128.187 528.802C128.187 523.137 123.44 520.329 118.853 517.612C114.306 514.921 110.013 512.381 110.013 507.29C110.013 502.202 114.306 499.66 118.853 496.971C123.443 494.255 128.189 491.449 128.189 485.781H127.174C127.174 490.87 122.881 493.412 118.334 496.101C113.744 498.817 109 501.623 109 507.288C109 512.953 113.747 515.761 118.337 518.478C122.881 521.167 127.177 523.708 127.177 528.797C127.177 533.888 122.884 536.427 118.337 539.119C113.747 541.835 109.002 544.644 109.002 550.309C109.002 555.976 113.749 558.785 118.337 561.498C122.884 564.19 127.177 566.732 127.177 571.82C127.174 576.914 122.881 579.456 118.334 582.147Z" fill="white" stroke="white" stroke-miterlimit="10"/>
<path d="M689.939 348.135L669.547 326.115L671.834 323.992L692.223 346.013L689.939 348.135Z" fill="white"/>
<path d="M670.938 347.405L668.812 345.115L690.828 324.719L692.953 327.006L670.938 347.405Z" fill="white"/>
<path d="M908.311 451.464L887.922 429.446L890.209 427.32L910.598 449.341L908.311 451.464Z" fill="white"/>
<path d="M889.31 450.739L887.188 448.451L909.203 428.055L911.328 430.342L889.31 450.739Z" fill="white"/>
<path d="M96.962 707.089L76.5703 685.071L78.8577 682.945L99.2468 704.968L96.962 707.089Z" fill="white"/>
<path d="M77.9587 706.366L75.8359 704.076L97.8514 683.68L99.9766 685.967L77.9587 706.366Z" fill="white"/>
<path d="M504.59 723.586L570.582 749.064L569.437 832.641L535.177 987.512L498.656 980.805L512.917 832.641L504.59 723.586Z" fill="#FFB673"/>
<path d="M535.388 986.355L589.579 1033.43L521.435 1029.89L511.806 1018L506.109 1029.03L490.07 1028.16L498.701 980.859L535.388 986.355Z" fill="#C72675"/>
<path d="M535.399 986.018L498.656 980.805C498.656 980.805 516.274 1010.25 535.399 986.018Z" fill="#FFB673"/>
<path d="M447.704 633.955L435.073 631.092C434.077 630.942 433.144 630.535 432.369 629.897C430.049 627.996 425.504 623.86 428.176 622.611C431.683 620.967 447.105 623.544 447.105 623.544" fill="#FFCC82"/>
<path d="M449.695 642.039L437.064 639.175C436.069 639.025 435.138 638.619 434.36 637.983C432.04 636.082 427.498 631.946 430.167 630.697C433.674 629.053 449.097 631.63 449.097 631.63" fill="#FFCC82"/>
<path d="M451.681 650.127L439.049 647.261C438.054 647.111 437.123 646.705 436.345 646.069C434.025 644.168 429.481 640.035 432.152 638.783C435.659 637.139 451.082 639.715 451.082 639.715" fill="#FFCC82"/>
<path d="M450.955 648.094C450.955 648.094 437.645 645.211 434.136 646.854C431.467 648.104 436.009 652.24 438.329 654.14C439.107 654.777 440.037 655.183 441.033 655.333L448.099 656.937C451.462 657.7 454.914 655.859 456.041 652.601C457.935 647.134 465.5 634.512 462.826 625.784C458.463 611.544 452.786 605.438 452.786 605.438L445.151 624.924L450.955 648.094Z" fill="#FFCC82"/>
<path d="M477.107 361.477C467.993 369.805 463.116 379.025 459.662 390.808C456.055 403.115 461.575 406.944 459.849 422.759C457.948 440.177 441.991 434.238 436.454 452.577C429.085 476.982 446.795 486.787 438.848 506.455C431.445 524.774 413.416 522.864 406.521 541.177C399.572 559.633 411.066 579.678 413.705 584.28C434.421 620.409 493.77 639.848 534.633 616.608C550.447 607.613 571.989 587.393 571.749 563.926C571.537 543.17 554.446 535.672 550.198 508.85C546.828 487.57 560.774 483.273 557.382 462.155C554.189 442.29 543.231 441.851 541.218 423.243C538.811 401 549.335 394.023 543.815 377.974C537.866 360.681 515.715 354.647 512.086 353.729C492.333 348.73 480.627 359.451 477.107 361.477Z" fill="#22175E"/>
<path d="M624.804 599.611L558.797 536.84C551.554 528.713 564.215 473.086 571.456 481.215L624.804 549.806L654.492 526.369C658.985 522.118 676.914 503.789 682.756 501.764C687.446 500.14 686.647 504.867 692.863 512.802C696.136 516.98 624.804 599.611 624.804 599.611Z" fill="#FFCC82"/>
<path d="M541.062 467.055C541.062 467.055 578.413 475.089 607.785 513.455L568.069 532.298L545.844 516.049L541.062 467.055Z" fill="#FFA229"/>
<path d="M387.445 548.404L433.28 491.661C441.788 484.869 491.384 496.151 482.873 502.944L427.353 552.702C427.353 552.702 452.072 603.931 455.37 609.165C473.068 637.239 454.178 622.24 445.916 628.015C441.569 631.055 387.445 548.404 387.445 548.404Z" fill="#FFCC82"/>
<path d="M452.812 723.586L518.801 749.064L517.656 832.641L483.395 987.512L446.875 980.805L461.135 832.641L452.812 723.586Z" fill="#FFB673"/>
<path d="M483.599 986.355L537.79 1033.43L469.643 1029.89L460.017 1018L454.318 1029.03L438.281 1028.16L446.909 980.859L483.599 986.355Z" fill="#F72F92"/>
<path d="M483.617 986.018L446.875 980.805C446.875 980.805 464.495 1010.25 483.617 986.018Z" fill="#FFB673"/>
<path d="M457.702 505.842C457.702 505.842 445.869 547.86 474.956 560.738C504.043 573.619 535.694 570.339 552.015 562.512C562.716 557.381 574.549 533.412 564.973 502.502C555.988 473.494 457.702 505.842 457.702 505.842Z" fill="#FFA229"/>
<path d="M513.458 543.73C545.653 543.73 571.752 525.467 571.752 502.939C571.752 480.411 545.653 462.148 513.458 462.148C481.263 462.148 455.164 480.411 455.164 502.939C455.164 525.467 481.263 543.73 513.458 543.73Z" fill="#FFA229"/>
<path d="M525.663 440.215L522.627 407L500.936 412.807L499.898 435.344L522.937 435.703L525.663 440.215Z" fill="#F72F92"/>
<path d="M498.246 455.523C497.597 460.106 496.784 464.82 495.751 472.183C493.978 484.84 502.401 496.716 514.96 513.401C514.96 513.401 533.055 485.828 532.76 472.807L529.084 456.269C517.577 460.577 505.225 457.858 498.246 455.523Z" fill="#FFA229"/>
<path d="M529.075 456.271L525.783 441.46L525.668 440.207L522.942 435.695L499.906 435.336L499.609 441.824C499.265 447.469 498.818 451.445 498.242 455.526C505.219 457.858 517.571 460.577 529.075 456.271Z" fill="#FFCC82"/>
<path d="M498.366 438.898L497.516 448.277C497.516 448.277 513.475 456.155 526.106 448.756L498.366 438.898Z" fill="#E69F5E"/>
<path d="M540.199 374.11C543.836 375.142 552.007 404.352 545.342 429.341C538.393 455.389 506.861 455.439 493.921 433.893C477.577 406.677 484.931 385.407 486.744 379.346C489.954 368.607 520.059 368.388 540.199 374.11Z" fill="#FFCC82"/>
<path d="M549.271 376.235C551.122 382.601 546.138 390.59 540.254 394.634C532.135 400.211 525.462 396.093 514.664 402.479C508.5 406.125 509.703 408.041 503.409 412.247C495.4 417.6 480.713 423.005 473.666 418.079C465.29 412.222 468.967 392.641 478.54 380.491C489.825 366.17 507.824 364.05 512.975 363.663C525.627 362.713 546.23 365.779 549.271 376.235Z" fill="#22175E"/>
<path d="M462 547.931C462 547.931 467.635 574.496 465.018 603.476L567.051 605.374C567.051 605.374 557.977 576.479 566.27 546.484L462 547.931Z" fill="#FFA229"/>
<path d="M495.995 464.016C495.995 464.016 457.848 466.126 422.852 499.441L458.669 524.173L483.63 511.663L495.995 464.016Z" fill="#FFA229"/>
<path d="M537.308 409.271C536.707 409.954 536.777 410.994 537.458 411.595C538.141 412.194 539.181 412.129 539.782 411.446C540.383 410.762 540.316 409.722 539.633 409.123C538.949 408.52 537.907 408.587 537.308 409.271Z" fill="#22175E"/>
<path d="M527.62 427.312C526.545 425.673 525.707 423.453 525.478 420.447C525.463 420.24 525.62 420.055 525.829 420.04C526.036 420.023 526.221 420.178 526.236 420.392C526.982 430.06 534.096 431.061 534.397 431.101C534.605 431.128 534.754 431.318 534.727 431.522C534.702 431.729 534.512 431.879 534.305 431.854C534.245 431.844 530.234 431.3 527.62 427.312Z" fill="#22175E"/>
<path d="M547.128 406.57L551.833 422.113C552.441 424.126 551.473 426.278 549.563 427.156L541.047 430.621L547.128 406.57Z" fill="#FFCC82"/>
<path d="M483.256 414.703C484.505 420.585 490.287 424.341 496.171 423.091C502.056 421.842 505.81 416.057 504.56 410.175C503.31 404.291 497.528 400.537 491.644 401.787C485.762 403.037 482.006 408.819 483.256 414.703Z" fill="#FFCC82"/>
<path d="M494.738 416.008L492.344 409.101L493.06 408.852L495.454 415.759L494.738 416.008Z" fill="#402B6E"/>
<path d="M490.572 413.99L490.32 413.272L497.227 410.875L497.477 411.593L490.572 413.99Z" fill="#402B6E"/>
<path d="M483.995 424.474C484.621 427.425 487.525 429.31 490.475 428.684C493.426 428.058 495.312 425.155 494.683 422.204C494.055 419.251 491.154 417.367 488.203 417.996C485.255 418.62 483.369 421.521 483.995 424.474Z" fill="white"/>
<path d="M464.221 587.125C464.221 587.125 503.866 601.672 562.178 587.125C562.178 587.125 608.117 708.05 593.692 828.973H430.127C430.127 828.973 426.737 680.39 464.221 587.125Z" fill="#402B6E"/>
<path d="M515.625 598.875V638.221" stroke="white" stroke-width="0.35" stroke-miterlimit="10"/>
<path d="M523.795 610.387C524.799 610.387 525.613 609.573 525.613 608.568C525.613 607.564 524.799 606.75 523.795 606.75C522.791 606.75 521.977 607.564 521.977 608.568C521.977 609.573 522.791 610.387 523.795 610.387Z" stroke="white" stroke-width="0.35" stroke-miterlimit="10"/>
<path d="M523.795 623.621C524.799 623.621 525.613 622.807 525.613 621.803C525.613 620.798 524.799 619.984 523.795 619.984C522.791 619.984 521.977 620.798 521.977 621.803C521.977 622.807 522.791 623.621 523.795 623.621Z" stroke="white" stroke-width="0.35" stroke-miterlimit="10"/>
<path d="M523.795 636.832C524.799 636.832 525.613 636.018 525.613 635.014C525.613 634.009 524.799 633.195 523.795 633.195C522.791 633.195 521.977 634.009 521.977 635.014C521.977 636.018 522.791 636.832 523.795 636.832Z" stroke="white" stroke-width="0.35" stroke-miterlimit="10"/>
<path d="M700.017 524.773L723.524 528.525C724.233 528.637 724.871 528.884 725.377 529.248C726.889 530.333 729.81 532.676 727.762 533.252C725.071 534.005 699.516 530.313 699.516 530.313" fill="#FFCC82"/>
<path d="M695.875 500.258L699.652 505.923C701.445 507.559 703.57 509.717 704.745 510.148L724.393 516.234C724.393 516.234 729.11 519.382 726.401 520.627C723.692 521.872 701.178 518.427 701.178 518.427L728.332 522.762C728.903 522.852 729.417 523.049 729.831 523.338C731.438 524.466 735.289 527.404 732.822 528.095C729.754 528.953 700.607 524.745 700.607 524.745" fill="#FFCC82"/>
<path d="M721.329 534.819C720.75 534.06 719.253 533.227 717.382 532.474L701.378 530.748L702.329 517.755L696.734 504.415L684.157 501.703C684.157 501.703 667.644 509.78 680.775 527.071C681.68 528.263 683.067 529.221 684.741 529.837L699.019 535.093C699.323 535.165 699.635 535.213 699.959 535.233C703.179 535.44 719.797 537.538 721.024 537.193C721.72 537.001 721.857 535.512 721.329 534.819Z" fill="#FFCC82"/>
<path d="M700.603 509.404L699.478 505.271C699.081 503.375 701.438 502.572 703.504 501.258L710.638 497.763C711.551 497.317 711.606 496.354 710.723 495.952C709.021 495.179 705.661 493.587 700.83 495.416L682.406 501.801L700.603 509.404Z" fill="#FFCC82"/>
<path d="M535.775 366.004C530.374 365.9 525.568 365.947 520.958 366.451C516.368 366.93 512.071 367.833 508.007 369.354C506.942 369.601 505.989 370.147 504.984 370.567C503.966 370.963 502.944 371.362 501.998 371.946C501.018 372.462 500.04 372.991 499.012 373.472C498.082 374.111 497.117 374.72 496.121 375.321L494.602 376.211C494.136 376.568 493.674 376.932 493.183 377.274C492.22 377.98 491.213 378.666 490.17 379.354C488.174 380.823 486.249 382.452 483.852 383.899C484.418 381.287 485.251 378.693 486.383 376.236C487.032 375.066 487.715 373.892 488.446 372.737C488.8 372.148 489.185 371.584 489.564 371.008C490 370.484 490.444 369.958 490.911 369.452C491.831 368.424 492.776 367.401 493.764 366.411C494.834 365.51 495.979 364.692 497.109 363.842C498.212 362.944 499.494 362.323 500.759 361.662C502.046 361.05 503.293 360.342 504.675 359.95C510.05 357.962 515.949 357.593 521.392 358.643C526.815 359.713 531.971 362.073 535.775 366.004Z" fill="#F72F92"/>
<path d="M904.001 866.141L719.102 1004.28" stroke="#6D5EAB" stroke-miterlimit="10"/>
<path d="M752.469 836.883L910.376 1055.39" stroke="#6D5EAB" stroke-miterlimit="10"/>
<path d="M714.501 823.039C713.006 818.395 712.383 815.611 712.383 815.611C742.587 827.796 806.623 827.188 831.632 806.379C856.641 785.571 832.278 714.481 833.802 651.555C835.326 588.629 868.028 583.698 868.028 583.698C924.062 559.562 940.894 601.75 940.894 601.75L921.555 626.793L915.316 690.168L921.313 799.383L915.266 853.83L883.156 888.869L763.361 895.459C736.232 873.908 722.552 845.259 716.491 828.787C715.912 827.489 715.389 826.145 714.982 824.716L714.501 823.039Z" fill="#C1B6EE"/>
<path d="M758.688 879.373C794.44 893.796 867.193 893.521 896.794 868.892C926.395 844.262 898.585 756.549 900.389 682.069C902.192 607.587 940.898 601.75 940.898 601.75C940.898 601.75 912.624 669.969 919.289 720.278C925.547 767.525 946.176 851.945 905.809 887.136C878.525 910.92 823.649 913.344 776.063 903.529C766.532 901.563 762.958 898.293 759.745 887.033L758.688 879.373Z" fill="#AEA4D6"/>
<path d="M758.681 879.371C758.681 879.371 725.187 846.862 712.383 815.609C712.383 815.609 716.588 878.63 770.105 901.771C770.105 901.771 766.144 901.93 758.681 879.371Z" fill="#B3B3B3"/>
<path d="M648.835 1016.43L575.68 1060.7L664.857 1058.25L677.945 1046.96L684.914 1057.64L708.057 1056.93L696.575 1011.55L648.835 1016.43Z" fill="#21AD49"/>
<path d="M609.588 1040.17L613.255 1053.24L672.771 1051.42L664.857 1058.25L575.68 1060.69L609.588 1040.17Z" fill="#22175E"/>
<path d="M680.875 1051.44L706.472 1050.66L708.056 1056.92L684.913 1057.63L680.875 1051.44Z" fill="#22175E"/>
<path d="M708.991 1016.43L635.836 1060.7L725.013 1058.25L738.101 1046.96L745.07 1057.64L768.213 1056.93L756.731 1011.55L708.991 1016.43Z" fill="#25C44D"/>
<path d="M669.745 1040.17L673.411 1053.24L732.927 1051.42L725.013 1058.25L635.836 1060.69L669.745 1040.17Z" fill="#402B6E"/>
<path d="M741.031 1051.44L766.629 1050.66L768.213 1056.92L745.07 1057.63L741.031 1051.44Z" fill="#402B6E"/>
<path d="M712.009 1021.22L639.672 1020.68L641.216 816.173C641.286 807.071 646.871 798.924 655.337 795.579L812.979 733.297L839.56 800.576L713.296 850.458L712.009 1021.22Z" fill="#22175E"/>
<path d="M762.876 1025.04L690.539 1024.49L692.078 820.726C692.15 811.259 698.182 802.868 707.132 799.788L869.407 743.898L881.031 773.322C889.29 794.23 879.038 817.875 858.132 826.133L764.166 854.278L762.876 1025.04Z" fill="#402B6E"/>
<path d="M764.433 731.139L656.743 768.248L636.992 713.618L726.947 682.625L760.355 593.047L809.896 621.954L764.433 731.139Z" fill="white"/>
<path d="M787.58 568.131L861.471 578.876C893.247 585.876 901.187 606.048 898.874 623.623L883.791 706.619L883.833 776.993L743.531 776.961L749.892 635.26C748.338 613.778 756.19 593.309 769.049 576.03C771.364 572.92 773.913 570.947 776.779 569.605C780.134 568.036 783.913 567.597 787.58 568.131Z" fill="#FBA83D"/>
<path d="M836.399 531.453L836.643 570.635C836.698 575.861 824.727 589.74 811.071 593.529C803.056 595.751 795.261 589.296 795.783 580.997L798.125 543.76L836.399 531.453Z" fill="#D18252"/>
<path d="M797.125 559.801L798.2 543.021L826.641 526.93L826.145 533.665C826.145 533.665 822.914 545.056 797.125 559.801Z" fill="#755237"/>
<path d="M803.147 593.062C803.147 593.062 781.563 648.83 789.992 667.46C789.992 667.46 808.435 640.935 803.147 593.062Z" fill="#402B6E"/>
<path d="M839.019 575.829L836.605 564.555L803.125 592.963L810.192 607.513L839.019 575.829Z" fill="white"/>
<path d="M796.884 564.289L796.508 569.432L803.123 592.97L792.467 603.473L788.992 568.36L796.884 564.289Z" fill="white"/>
<path d="M836.46 543.561L789.286 548.388C782.434 549.138 776.024 546.227 772.01 541.221C768.867 537.302 767.772 532.117 768.311 527.123L776.014 484.314L837.747 477.547L836.46 543.561Z" fill="#D18252"/>
<path d="M769.346 473.361C771.234 503.989 819.9 482.448 819.191 495.613C817.375 529.29 836.841 523.915 836.841 523.915C836.841 523.915 866.719 476.88 837.203 472.605C807.685 468.327 766.555 428.085 769.346 473.361Z" fill="#22175E"/>
<path d="M847.051 513.394C847.807 520.296 842.826 526.502 835.926 527.26C829.024 528.016 822.818 523.035 822.06 516.135C821.304 509.236 826.286 503.027 833.185 502.271C840.085 501.515 846.296 506.492 847.051 513.394Z" fill="#D18252"/>
<path d="M776.638 493.43L765.128 508.78C763.415 511.067 765.176 513.889 768.416 514.043L775.071 514.36L776.638 493.43Z" fill="#D18252"/>
<path d="M832.127 518.454L831.469 517.931L836.959 511.086L837.617 511.61L832.127 518.454Z" fill="#402B6E"/>
<path d="M837.709 517.834L830.867 512.341L831.396 511.688L838.238 517.18L837.709 517.834Z" fill="#402B6E"/>
<path d="M785.123 503.685C785.232 504.685 784.511 505.583 783.511 505.693C782.511 505.803 781.613 505.082 781.503 504.082C781.393 503.081 782.114 502.183 783.115 502.074C784.115 501.964 785.013 502.685 785.123 503.685Z" fill="#22175E"/>
<path d="M791.217 501.134C790.968 501.162 790.713 501.117 790.479 500.99L783.689 497.313C783.078 496.984 782.854 496.218 783.183 495.607C783.515 494.988 784.283 494.769 784.894 495.098L791.684 498.775C792.295 499.106 792.519 499.87 792.19 500.481C791.983 500.86 791.611 501.089 791.217 501.134Z" fill="#22175E"/>
<path d="M779.41 518.246C779.101 518.355 778.762 518.378 778.422 518.286L771.311 516.425C770.43 516.188 769.909 515.282 770.141 514.399C770.376 513.506 771.291 512.993 772.172 513.23L779.283 515.09C780.164 515.327 780.685 516.235 780.453 517.116C780.306 517.662 779.902 518.069 779.41 518.246Z" fill="#22175E"/>
<path d="M643.035 731.12C643.035 731.12 593.175 725.699 593.684 731.391C594.192 737.086 592.833 747.54 599.089 753.295C605.345 759.049 612.187 769.917 621.416 767.944C630.645 765.969 647.415 757.348 647.415 757.348L643.035 731.12Z" fill="#D18252"/>
<path d="M643.034 731.118C643.034 731.118 604.117 719.694 600.662 719.571C597.207 719.452 596.474 730.494 611.884 731.914C627.295 733.333 643.034 731.118 643.034 731.118Z" fill="#D18252"/>
<path d="M686.954 733.918C686.954 733.918 646.645 726.529 643.16 726.771C639.675 727.013 640.099 738.188 655.734 737.994C671.369 737.799 686.954 733.918 686.954 733.918Z" fill="#D18252"/>
<path d="M602.78 716.891L602.578 771.186C602.571 773.114 613.755 774.718 627.562 774.768C641.368 774.82 652.566 773.299 652.573 771.371L652.775 717.075L602.78 716.891Z" fill="#21AD49"/>
<path d="M652.768 717.083C652.761 719.011 641.564 720.533 627.757 720.481C613.951 720.428 602.766 718.824 602.773 716.899C602.781 714.971 613.978 713.449 627.785 713.501C641.589 713.551 652.776 715.155 652.768 717.083Z" fill="#755237"/>
<path d="M662.299 764.186C662.226 764.189 662.154 764.186 662.082 764.189L644.828 764.124L644.98 723.57L662.231 723.635C666.312 723.653 669.62 726.983 669.605 731.066L669.51 756.816C669.493 760.827 666.277 764.087 662.299 764.186ZM650.994 758.005L662.104 758.043C662.117 758.045 662.129 758.045 662.139 758.045C662.815 758.028 663.359 757.474 663.359 756.793L663.454 731.044C663.459 730.35 662.897 729.784 662.204 729.784L651.097 729.741L650.994 758.005Z" fill="#21AD49"/>
<path d="M686.949 733.923C686.949 733.923 636.273 733.718 637.385 739.388C638.495 745.058 638.228 755.706 645.12 760.83C652.012 765.956 660.029 776.155 669.099 773.202C678.166 770.246 694.11 759.82 694.11 759.82L686.949 733.923Z" fill="#D18252"/>
<path d="M783.187 766.842L683.344 783.332L673.883 726.024L752.281 713.083L836.552 608.655C846.405 595.315 865.439 592.983 878.223 603.552C890.109 613.382 892.184 630.81 882.938 643.155L783.187 766.842Z" fill="white"/>
<path d="M769.652 519.7C769.652 519.7 804.437 528.964 822.065 516.133C822.065 516.133 833.11 559.802 783.03 552.192C759.894 548.677 769.652 519.7 769.652 519.7Z" fill="#22175E"/>
<path d="M773.031 525.543C773.031 525.543 779.706 525.693 788.591 520.305C788.591 520.305 785.753 537.591 773.031 525.543Z" fill="white"/>
<path d="M628.323 711.308C628.323 711.308 614.239 695.99 623.494 684.508C632.75 673.027 633.92 670.255 628.502 661.562C628.502 661.562 651.448 663.503 640.999 678.879C636.08 686.117 631.952 690.784 628.979 697.968C627.003 702.74 628.323 711.308 628.323 711.308Z" fill="white"/>
<path d="M208.438 837.203L380.942 990.546" stroke="#6D5EAB" stroke-miterlimit="10"/>
<path d="M361.91 820.93L186.023 1025.25" stroke="#6D5EAB" stroke-miterlimit="10"/>
<path d="M400.92 810.355C402.803 805.855 403.661 803.134 403.661 803.134C372.532 812.713 308.777 806.666 285.627 783.81C262.477 760.954 292.786 692.189 296.61 629.36C300.434 566.531 268.269 558.841 268.269 558.841C214.487 530.036 194.133 570.642 194.133 570.642L211.277 597.237L212.112 660.914L196.864 769.225L198.266 823.99L227.286 861.628L346.091 878.365C374.951 859.193 391.015 831.812 398.451 815.913C399.137 814.668 399.773 813.374 400.299 811.984L400.92 810.355Z" fill="#C1B6EE"/>
<path d="M352.105 862.736C315.258 874.073 242.788 867.623 215.387 840.569C187.984 813.517 223.14 728.481 227.665 654.116C232.189 579.748 194.12 570.648 194.12 570.648C194.12 570.648 216.5 641.02 205.589 690.581C195.342 737.126 167.622 819.491 204.856 857.98C230.022 883.996 284.494 891.068 332.741 885.328C342.404 884.178 346.245 881.222 350.399 870.277L352.105 862.736Z" fill="#AEA4D6"/>
<path d="M352.113 862.742C352.113 862.742 388.247 833.193 403.657 803.141C403.657 803.141 394.116 865.575 338.828 884.091C338.828 884.091 342.759 884.585 352.113 862.742Z" fill="#B3B3B3"/>
<path d="M331.443 516.271C326.047 504.343 306.369 489.773 292.191 487.763C265.027 483.911 245.252 515.363 239.078 525.178C231.709 536.897 224.541 559.661 229.819 574.472C237.142 595.014 277.556 612.307 301.869 602.021C329.37 590.384 343.209 542.277 331.443 516.271Z" fill="black"/>
<path d="M365.971 727.744L457.176 735.628L461.698 683.279L390.082 677.095L339.66 597.062L301.883 633.578L365.971 727.744Z" fill="#402B6E"/>
<path d="M413.164 1008.08L465.187 1052.49L400.634 1049.85L391.403 1038.53L386.117 1049.19L369.367 1048.43L378.686 1003.09L413.164 1008.08Z" fill="#402B6E"/>
<path d="M441.066 1031.9L438.122 1044.95L395.047 1043L400.629 1049.85L465.182 1052.48L441.066 1031.9Z" fill="#22175E"/>
<path d="M389.18 1043.03L370.654 1042.19L369.367 1048.45L386.117 1049.2L389.18 1043.03Z" fill="#22175E"/>
<path d="M254.479 735.219C254.479 735.219 242.698 801.093 271.079 817.359C301.89 835.019 374.958 877.414 374.958 877.414C374.958 877.414 381.032 940.108 379.605 959.322C378.417 975.336 378.432 997.277 378.684 1003.09C378.884 1007.69 412.885 1010.09 413.162 1008.08C414.713 996.825 417.914 974.009 419.096 965.95C424.155 931.487 429.156 879.32 425.726 850.629C422.231 821.38 332.977 755.531 332.977 755.531L254.479 735.219Z" fill="#1C4670"/>
<path d="M272.679 1003.85L292.869 1071L240.339 1031.5L238.558 1016.72L228.561 1022.57L214.969 1012.26L246.495 979.773L272.679 1003.85Z" fill="#402B6E"/>
<path d="M283.519 1039.88L274.227 1049.08L239.273 1022.57L240.349 1031.51L292.878 1071.01L283.519 1039.88Z" fill="#22175E"/>
<path d="M234.353 1019.19L219.319 1007.78L214.969 1012.27L228.561 1022.58L234.353 1019.19Z" fill="#22175E"/>
<path d="M243.192 765.586C243.192 765.586 213.474 808.534 233.214 835.429C245.427 852.069 313.035 865.361 313.035 865.361C313.035 865.361 253.369 972.638 240.94 985.501L273.586 1006.88C281.521 998.697 307.956 962.905 313.082 956.781C318.208 950.657 366.944 885.486 367.657 866.856C369.623 815.486 328.001 783.047 328.001 783.047L243.192 765.586Z" fill="#1C4670"/>
<path d="M308.118 577.015L255.319 590.699C227.434 600.126 218.085 618.976 221.899 634.551L247.279 722.296L242.151 774.324L354.645 761.967L345.823 688.519C366.05 648.888 338.826 596.564 325.558 582.293C323.171 579.724 320.684 578.202 317.973 577.277C314.803 576.197 311.36 576.175 308.118 577.015Z" fill="white"/>
<path d="M265.255 540.43L264.234 584.106C264.698 588.811 276.834 600.113 289.488 602.173C296.913 603.381 303.289 596.808 301.999 589.397L296.222 556.142L265.255 540.43Z" fill="#FFB673"/>
<path d="M300.658 581.697L298.036 566.713L270.875 555.047L271.987 561.056C271.987 561.056 276.011 570.979 300.658 581.697Z" fill="#E69F5E"/>
<path d="M262.868 588.719L302.174 801.318L233.307 799.507L241.528 707.913L210.391 610.607C210.391 610.607 228.939 597.499 262.868 588.719Z" fill="#402B6E"/>
<path d="M309.445 576.734C309.445 576.734 339.226 581.441 347.989 609.279C359.311 645.25 354.641 681.608 354.641 681.608L385.719 788.456L344.519 792.883C344.519 792.883 320.785 707.805 344.332 668.421C358.418 644.861 309.445 576.734 309.445 576.734Z" fill="#402B6E"/>
<path d="M262.862 588.719L234.336 642.069L261.525 654.768L254.393 683.116L286.561 716.893L262.862 588.719Z" fill="#22175E"/>
<path d="M309.445 576.734C309.445 576.734 333.339 598.189 340.665 618.595L309.445 576.734Z" fill="#22175E"/>
<path d="M262.609 589.002L263.669 578.625L296.575 600.872L291.657 614.654L262.609 589.002Z" fill="white"/>
<path d="M299.362 574.477L300.207 579.066L296.578 600.885L307.197 609.278L306.86 577.36L299.362 574.477Z" fill="white"/>
<path d="M291.828 615.314L262.359 589.29L262.861 588.719L291.489 614.002L296.221 600.749L296.937 601.004L291.828 615.314Z" fill="#402B6E"/>
<path d="M307.594 610.073L296.352 601.183L296.823 600.59L306.816 608.487L306.489 577.364L307.247 577.359L307.594 610.073Z" fill="#402B6E"/>
<path d="M266.531 561.361L295.05 574.527C300.627 577.315 306.98 576.854 311.957 573.866C315.853 571.526 318.41 567.47 319.52 563.062L331.45 527.764L281.485 507.555L266.531 561.361Z" fill="#FFB673"/>
<path d="M331.453 527.761C331.887 530.33 287.198 542.705 279.418 534.87C264.159 519.504 264.95 553.515 264.95 553.515C264.95 553.515 230.069 498.314 287.1 489.419C309.076 485.99 327.834 506.316 331.453 527.761Z" fill="black"/>
<path d="M261.702 538.643C262.896 544.617 268.708 548.49 274.682 547.296C280.656 546.101 284.53 540.289 283.335 534.315C282.141 528.341 276.329 524.467 270.355 525.662C264.378 526.856 260.504 532.668 261.702 538.643Z" fill="#FFB673"/>
<path d="M271.361 547.424C271.778 548.8 272.025 550.317 272.025 551.926C272.025 557.927 268.797 562.811 264.833 562.811C260.867 562.811 257.642 557.927 257.642 551.926C257.642 545.924 260.87 541.04 264.833 541.04C265.275 541.04 265.704 541.123 266.125 541.237V539.142C265.701 539.057 265.275 539 264.833 539C259.742 539 255.602 544.799 255.602 551.926C255.602 559.052 259.745 564.852 264.833 564.852C269.924 564.852 274.065 559.052 274.065 551.926C274.065 550.349 273.853 548.845 273.481 547.448C272.763 547.511 272.055 547.498 271.361 547.424Z" fill="white"/>
<path d="M273.422 540.018L271.109 533.086L271.83 532.844L274.143 539.778L273.422 540.018Z" fill="#402B6E"/>
<path d="M275.993 534.93L269.062 537.25L269.304 537.971L276.235 535.651L275.993 534.93Z" fill="#402B6E"/>
<path d="M317.666 541.341C317.26 542.154 317.589 543.144 318.402 543.548C319.215 543.955 320.206 543.626 320.61 542.813C321.016 541.999 320.687 541.009 319.874 540.605C319.061 540.196 318.073 540.528 317.666 541.341Z" fill="#22175E"/>
<path d="M310.8 557.881C309.344 556.569 307.969 554.636 306.981 551.787C306.914 551.59 307.019 551.373 307.216 551.303C307.413 551.233 307.63 551.336 307.7 551.538C310.88 560.697 318.014 559.854 318.316 559.816C318.523 559.792 318.717 559.934 318.742 560.141C318.77 560.348 318.625 560.54 318.418 560.57C318.361 560.58 314.342 561.074 310.8 557.881Z" fill="#22175E"/>
<path d="M327.437 538.844L328.907 550.111C329.096 551.57 328.181 552.945 326.764 553.334L322.109 554.611L327.437 538.844Z" fill="#FFB673"/>
<path d="M437.75 733.921L442.567 681.594L443.325 681.664L438.506 733.988L437.75 733.921Z" fill="#22175E"/>
<path d="M352.759 775.523L480.357 772.465L440.514 758.359L263.312 769.4L352.759 775.523Z" fill="#CFC4FF"/>
<path d="M356.717 774.773L401.938 763.227L393.906 770.42L357.491 779.941C357.396 779.966 357.319 779.986 357.221 779.994C352.714 780.361 268.808 775.801 266.391 775.207C263.944 774.608 263.312 769.403 263.312 769.403C263.312 769.403 354.128 775.264 356.717 774.773Z" fill="#AEA4D6"/>
<path d="M237.258 762.881C237.258 762.881 254.98 771.914 269.595 765.683C284.21 759.452 283.534 769.434 289.914 778.895C296.295 788.354 302.424 789.671 302.424 789.671C302.424 789.671 293.953 759.257 291.326 757.326C288.697 755.393 278.687 754.363 278.687 754.363L245.424 744.859L237.258 762.881Z" fill="#FFB673"/>
<path d="M266.922 753.461C266.922 753.461 293.771 751.902 297.338 754.568C320.441 771.829 313.702 776.586 313.702 776.586C313.702 776.586 294.959 763.461 289.419 759.16L266.922 753.461Z" fill="#FFB673"/>
<path d="M265.203 754.894C265.203 754.894 290.975 747.209 295.061 748.985C321.511 760.477 316.046 766.655 316.046 766.655C316.046 766.655 294.789 758.187 288.408 755.274L265.203 754.894Z" fill="#FFB673"/>
<path d="M262.688 758.36C262.688 758.36 286.032 745.01 290.415 745.808C318.789 750.976 314.87 758.237 314.87 758.237C314.87 758.237 292.244 754.833 285.369 753.448L262.688 758.36Z" fill="#FFB673"/>
<path d="M245.422 744.857C245.422 744.857 285.394 741.711 288.707 741.579C310.151 740.711 308.49 746.623 308.49 746.623C308.49 746.623 275.823 756.533 270.605 756.648L245.422 744.857Z" fill="#FFB673"/>
<path d="M363.068 778.555L481.519 773.429C490.895 770.511 490.726 755.634 490.726 755.634L507.328 667.762C508.132 663.509 507.498 659.014 505.113 655.402C502.612 651.611 500.005 650.099 495.061 650.244L376.61 655.37C368.76 656.881 369.199 664.257 367.403 673.165L350.055 764.993C351.105 773.651 356.932 779.723 363.068 778.555Z" fill="#AEA4D6"/>
<path d="M429.567 713.742C426.275 719.267 425.938 726.192 428.814 729.207C431.69 732.226 436.689 730.19 439.981 724.665C443.271 719.14 443.608 712.218 440.732 709.2C437.859 706.184 432.86 708.22 429.567 713.742Z" fill="#CFC4FF"/>
<path d="M159.234 707.971L227.409 781.288L264.153 743.73L219.1 698.212L235.236 671.794L262.856 588.719L235.927 596.641C215.633 603.111 207.897 609.722 198.608 629.572L159.234 707.971Z" fill="#402B6E"/>
<path d="M216.337 769.342L215.781 768.826L250.259 731.383L250.815 731.899L216.337 769.342Z" fill="#22175E"/>
<path d="M319.907 548.929C319.029 548.929 318.169 548.752 317.36 548.392C313.746 546.788 312.334 542.034 314.218 537.789C315.116 535.761 316.627 534.142 318.473 533.231C320.376 532.291 322.407 532.209 324.185 532.999C325.966 533.788 327.268 535.347 327.849 537.39C328.413 539.37 328.229 541.575 327.331 543.603C326.433 545.631 324.921 547.25 323.075 548.16C322.035 548.672 320.96 548.929 319.907 548.929ZM321.638 534.336C320.868 534.336 320.074 534.529 319.299 534.91C317.844 535.629 316.647 536.921 315.926 538.547C314.465 541.847 315.447 545.499 318.116 546.681C319.378 547.24 320.845 547.17 322.242 546.482C323.696 545.763 324.894 544.471 325.617 542.845C326.34 541.216 326.49 539.462 326.048 537.903C325.622 536.404 324.692 535.272 323.427 534.711C322.863 534.461 322.26 534.336 321.638 534.336Z" fill="white"/>
<path d="M314.96 539.103L283.703 535.843L283.406 533.984L315.175 537.245L314.96 539.103Z" fill="white"/>
<path d="M942.114 773.289H137.523V796.746H942.114V773.289Z" fill="#6D5EAB"/>
<path d="M978.58 1020.64C963.128 1010.59 963.789 976.08 976.71 962.668C983.31 955.816 989.877 957.829 992.277 951.259C996.465 939.792 978.807 927.225 983.222 914.237C985.29 908.153 989.476 909.999 993.679 902.808C1001.11 890.081 991.928 877.594 997.243 865.644C1001.95 855.065 1014.37 847.495 1020.82 850.772C1029.48 855.17 1032.07 881.453 1022.36 895C1019.15 899.473 1015.01 902.002 1015.3 906.691C1015.7 913.119 1023.81 913.371 1026.21 920.131C1030.44 932.047 1009.85 944.262 1013.31 959.917C1014.72 966.262 1018.34 965.33 1021.19 972.753C1026.46 986.46 1021.28 1008.26 1006.32 1017.95C1005.33 1018.59 990.109 1028.14 978.58 1020.64Z" fill="#FFA229"/>
<path d="M987.354 1011.87L986.05 1012.16C983.281 998.407 984.082 986.399 988.429 976.469C990.881 970.867 993.705 967.594 996.197 964.705C999.073 961.368 1001.56 958.487 1002.5 952.919C1003.66 946.015 1001.47 941.493 999.15 936.706C996.833 931.924 994.436 926.98 995.795 919.677C996.85 914.014 999.434 910.839 1001.93 907.764C1004.8 904.239 1007.51 900.906 1008.13 893.932C1008.39 891.108 1008.17 888.966 1007.97 886.895C1007.69 884.122 1007.4 881.253 1008.28 876.935C1009.43 871.333 1011.95 866.062 1015.78 861.266L1016.8 862.231C1013.11 866.846 1010.68 871.904 1009.59 877.272C1008.75 881.353 1009.02 883.98 1009.29 886.758C1009.51 888.903 1009.73 891.123 1009.47 894.094C1008.8 901.532 1005.82 905.194 1002.94 908.736C1000.45 911.804 998.09 914.7 997.105 919.986C995.84 926.778 998.02 931.278 1000.33 936.04C1002.66 940.839 1005.06 945.798 1003.81 953.201C1002.8 959.183 1000.2 962.206 997.177 965.706C994.752 968.519 992.004 971.707 989.637 977.107C985.419 986.746 984.65 998.44 987.354 1011.87Z" fill="white"/>
<path d="M985.684 1020.66C968.468 1019.08 955.482 988.67 961.311 970.955C964.289 961.905 970.718 960.603 970.199 953.756C969.293 941.803 949.193 939.057 947.884 925.672C947.27 919.401 951.591 919.064 952.374 910.833C953.761 896.27 940.969 889.653 940.837 876.749C940.72 865.33 948.415 852.943 955.245 852.798C964.407 852.606 976.951 874.332 973.935 890.668C972.94 896.061 970.371 900.202 972.464 904.153C975.332 909.573 982.399 906.016 987.116 910.798C995.427 919.224 982.546 939.466 991.665 951.511C995.362 956.393 998.106 953.893 1003.47 959.044C1013.38 968.548 1017.49 989.982 1008.45 1005.39C1007.85 1006.42 998.525 1021.83 985.684 1020.66Z" fill="#FFA229"/>
<path d="M989.159 1007.95L988.153 1008.81C980.373 998.105 976.345 987.257 976.18 976.569C976.086 970.54 977.225 966.369 978.228 962.692C979.388 958.442 980.388 954.773 979.009 949.477C977.298 942.912 973.639 939.989 969.767 936.89C965.898 933.797 961.897 930.6 960.199 923.595C958.882 918.165 959.852 914.189 960.792 910.345C961.87 905.935 962.888 901.767 960.685 895.394C959.792 892.815 958.767 891.044 957.774 889.332C956.445 887.04 955.073 884.673 954.135 880.497C952.918 875.077 953.015 869.303 954.422 863.336L955.671 863.705C954.317 869.447 954.222 874.99 955.387 880.186C956.275 884.134 957.532 886.302 958.862 888.597C959.89 890.368 960.952 892.201 961.89 894.917C964.24 901.717 963.12 906.299 962.04 910.729C961.102 914.566 960.216 918.19 961.446 923.261C963.027 929.776 966.667 932.685 970.521 935.765C974.402 938.869 978.415 942.076 980.251 949.116C981.735 954.803 980.683 958.654 979.465 963.111C978.488 966.693 977.38 970.757 977.47 976.569C977.627 986.935 981.561 997.497 989.159 1007.95Z" fill="white"/>
<path d="M1002.04 1003.83C992.56 993.758 998.542 969.333 1009.95 962.236C1015.77 958.612 1020.16 961.284 1022.93 957.066C1027.76 949.7 1017.11 937.42 1022.35 929.016C1024.8 925.08 1027.51 927.185 1031.67 922.862C1039.03 915.215 1034.44 904.596 1040.15 897.098C1045.21 890.46 1055.33 887.425 1059.43 890.979C1064.94 895.746 1062.6 914.933 1053.48 922.735C1050.46 925.309 1047.08 926.325 1046.55 929.717C1045.81 934.367 1051.59 936.08 1052.23 941.343C1053.36 950.62 1036.65 955.417 1036.63 967.208C1036.62 971.987 1039.37 972.007 1040.23 977.829C1041.82 988.577 1034.63 1003.11 1022.35 1007.17C1021.54 1007.43 1009.11 1011.35 1002.04 1003.83Z" fill="#FF9F0F"/>
<path d="M1009.8 998.37L1008.82 998.331C1009.03 988.024 1011.52 979.633 1016.22 973.389C1018.88 969.867 1021.42 968.074 1023.67 966.49C1026.27 964.659 1028.51 963.08 1030.07 959.296C1032 954.604 1031.16 950.972 1030.25 947.128C1029.36 943.287 1028.43 939.316 1030.57 934.379C1032.23 930.551 1034.59 928.779 1036.87 927.066C1039.49 925.1 1041.96 923.242 1043.52 918.4C1044.15 916.44 1044.34 914.876 1044.52 913.362C1044.76 911.334 1045.02 909.241 1046.34 906.337C1048.05 902.568 1050.7 899.296 1054.22 896.609L1054.79 897.487C1051.41 900.072 1048.86 903.215 1047.22 906.824C1045.97 909.57 1045.74 911.488 1045.5 913.516C1045.31 915.083 1045.11 916.704 1044.45 918.767C1042.78 923.933 1040.06 925.976 1037.43 927.949C1035.16 929.66 1033 931.274 1031.45 934.848C1029.46 939.44 1030.31 943.055 1031.2 946.879C1032.11 950.733 1033.04 954.716 1030.96 959.747C1029.28 963.811 1026.93 965.469 1024.21 967.388C1022.02 968.932 1019.54 970.68 1016.98 974.073C1012.42 980.131 1010.01 988.306 1009.8 998.37Z" fill="white"/>
<path d="M1026.91 1058.03H969.038L951.734 991.367H1044.22L1026.91 1058.03Z" fill="#1C4670"/>
<path d="M322.959 44.2344V94H312.705V44.2344H322.959ZM342.783 65.4941V73.4922H320.156V65.4941H342.783ZM345.176 44.2344V52.2666H320.156V44.2344H345.176ZM348.184 75.8848V75.167C348.184 72.4554 348.571 69.9603 349.346 67.6816C350.12 65.3802 351.248 63.3864 352.729 61.7002C354.211 60.014 356.034 58.7038 358.198 57.7695C360.363 56.8125 362.847 56.334 365.649 56.334C368.452 56.334 370.947 56.8125 373.135 57.7695C375.322 58.7038 377.157 60.014 378.638 61.7002C380.142 63.3864 381.281 65.3802 382.056 67.6816C382.83 69.9603 383.218 72.4554 383.218 75.167V75.8848C383.218 78.5736 382.83 81.0687 382.056 83.3701C381.281 85.6488 380.142 87.6426 378.638 89.3516C377.157 91.0378 375.334 92.348 373.169 93.2822C371.004 94.2165 368.521 94.6836 365.718 94.6836C362.915 94.6836 360.42 94.2165 358.232 93.2822C356.068 92.348 354.233 91.0378 352.729 89.3516C351.248 87.6426 350.12 85.6488 349.346 83.3701C348.571 81.0687 348.184 78.5736 348.184 75.8848ZM358.027 75.167V75.8848C358.027 77.4342 358.164 78.8812 358.438 80.2256C358.711 81.57 359.144 82.7549 359.736 83.7803C360.352 84.7829 361.149 85.569 362.129 86.1387C363.109 86.7083 364.305 86.9932 365.718 86.9932C367.085 86.9932 368.258 86.7083 369.238 86.1387C370.218 85.569 371.004 84.7829 371.597 83.7803C372.189 82.7549 372.622 81.57 372.896 80.2256C373.192 78.8812 373.34 77.4342 373.34 75.8848V75.167C373.34 73.6631 373.192 72.2503 372.896 70.9287C372.622 69.5843 372.178 68.3994 371.562 67.374C370.97 66.3258 370.184 65.5055 369.204 64.9131C368.224 64.3206 367.039 64.0244 365.649 64.0244C364.259 64.0244 363.075 64.3206 362.095 64.9131C361.138 65.5055 360.352 66.3258 359.736 67.374C359.144 68.3994 358.711 69.5843 358.438 70.9287C358.164 72.2503 358.027 73.6631 358.027 75.167ZM399.111 65.084V94H389.268V57.0176H398.53L399.111 65.084ZM410.254 56.7783L410.083 65.9043C409.604 65.8359 409.023 65.779 408.34 65.7334C407.679 65.665 407.075 65.6309 406.528 65.6309C405.138 65.6309 403.931 65.8132 402.905 66.1777C401.903 66.5195 401.06 67.0322 400.376 67.7158C399.715 68.3994 399.214 69.2311 398.872 70.2109C398.553 71.1908 398.371 72.3073 398.325 73.5605L396.343 72.9453C396.343 70.5527 396.582 68.3538 397.061 66.3486C397.539 64.3206 398.234 62.5547 399.146 61.0508C400.08 59.5469 401.219 58.3848 402.563 57.5645C403.908 56.7441 405.446 56.334 407.178 56.334C407.725 56.334 408.283 56.3796 408.853 56.4707C409.422 56.5391 409.889 56.6416 410.254 56.7783ZM466.343 86.002V94H439.854V86.002H466.343ZM443.203 44.2344V94H432.949V44.2344H443.203ZM462.891 64.5029V72.2959H439.854V64.5029H462.891ZM466.309 44.2344V52.2666H439.854V44.2344H466.309ZM481.553 64.6738V94H471.675V57.0176H480.938L481.553 64.6738ZM480.186 74.21H477.451C477.451 71.6351 477.759 69.2653 478.374 67.1006C479.012 64.9131 479.935 63.0218 481.143 61.4268C482.373 59.8089 483.888 58.5557 485.688 57.667C487.489 56.7783 489.574 56.334 491.943 56.334C493.584 56.334 495.088 56.5846 496.455 57.0859C497.822 57.5645 498.996 58.3278 499.976 59.376C500.978 60.4014 501.753 61.7458 502.3 63.4092C502.847 65.0498 503.12 67.0208 503.12 69.3223V94H493.276V70.416C493.276 68.7298 493.049 67.431 492.593 66.5195C492.137 65.6081 491.488 64.9701 490.645 64.6055C489.824 64.2409 488.833 64.0586 487.671 64.0586C486.395 64.0586 485.278 64.3206 484.321 64.8447C483.387 65.3688 482.612 66.098 481.997 67.0322C481.382 67.9437 480.926 69.0146 480.63 70.2451C480.334 71.4756 480.186 72.7972 480.186 74.21ZM502.197 73.082L498.677 73.5264C498.677 71.111 498.973 68.8665 499.565 66.793C500.181 64.7194 501.081 62.8965 502.266 61.3242C503.473 59.752 504.966 58.5329 506.743 57.667C508.521 56.7783 510.571 56.334 512.896 56.334C514.673 56.334 516.291 56.596 517.749 57.1201C519.207 57.6214 520.449 58.4303 521.475 59.5469C522.523 60.6406 523.32 62.0762 523.867 63.8535C524.437 65.6309 524.722 67.807 524.722 70.3818V94H514.844V70.3818C514.844 68.6729 514.616 67.374 514.16 66.4854C513.727 65.5739 513.089 64.9473 512.246 64.6055C511.426 64.2409 510.446 64.0586 509.307 64.0586C508.122 64.0586 507.085 64.2979 506.196 64.7764C505.308 65.2321 504.567 65.8701 503.975 66.6904C503.382 67.5107 502.938 68.4678 502.642 69.5615C502.345 70.6325 502.197 71.806 502.197 73.082ZM542.188 64.127V108.219H532.344V57.0176H541.47L542.188 64.127ZM565.601 75.0986V75.8164C565.601 78.5052 565.282 81.0003 564.644 83.3018C564.028 85.6032 563.117 87.6084 561.909 89.3174C560.701 91.0036 559.198 92.3252 557.397 93.2822C555.62 94.2165 553.569 94.6836 551.245 94.6836C548.989 94.6836 547.03 94.2279 545.366 93.3164C543.703 92.4049 542.301 91.1289 541.162 89.4883C540.046 87.8249 539.146 85.8994 538.462 83.7119C537.778 81.5244 537.254 79.1774 536.89 76.6709V74.791C537.254 72.1022 537.778 69.6413 538.462 67.4082C539.146 65.1523 540.046 63.2041 541.162 61.5635C542.301 59.9001 543.691 58.6126 545.332 57.7012C546.995 56.7897 548.944 56.334 551.177 56.334C553.524 56.334 555.586 56.7783 557.363 57.667C559.163 58.5557 560.667 59.8317 561.875 61.4951C563.105 63.1585 564.028 65.141 564.644 67.4424C565.282 69.7438 565.601 72.2959 565.601 75.0986ZM555.723 75.8164V75.0986C555.723 73.5264 555.586 72.0794 555.312 70.7578C555.062 69.4134 554.652 68.2399 554.082 67.2373C553.535 66.2347 552.806 65.46 551.895 64.9131C551.006 64.3434 549.924 64.0586 548.647 64.0586C547.303 64.0586 546.152 64.2751 545.195 64.708C544.261 65.141 543.498 65.7676 542.905 66.5879C542.313 67.4082 541.868 68.388 541.572 69.5273C541.276 70.6667 541.094 71.9541 541.025 73.3896V78.1406C541.139 79.8268 541.458 81.3421 541.982 82.6865C542.507 84.0081 543.315 85.0563 544.409 85.8311C545.503 86.6058 546.938 86.9932 548.716 86.9932C550.015 86.9932 551.108 86.7083 551.997 86.1387C552.886 85.5462 553.604 84.7373 554.15 83.7119C554.72 82.6865 555.119 81.5016 555.347 80.1572C555.597 78.8128 555.723 77.3659 555.723 75.8164ZM582.109 41.5V94H572.231V41.5H582.109ZM588.672 75.8848V75.167C588.672 72.4554 589.059 69.9603 589.834 67.6816C590.609 65.3802 591.737 63.3864 593.218 61.7002C594.699 60.014 596.522 58.7038 598.687 57.7695C600.851 56.8125 603.335 56.334 606.138 56.334C608.94 56.334 611.436 56.8125 613.623 57.7695C615.811 58.7038 617.645 60.014 619.126 61.7002C620.63 63.3864 621.769 65.3802 622.544 67.6816C623.319 69.9603 623.706 72.4554 623.706 75.167V75.8848C623.706 78.5736 623.319 81.0687 622.544 83.3701C621.769 85.6488 620.63 87.6426 619.126 89.3516C617.645 91.0378 615.822 92.348 613.657 93.2822C611.493 94.2165 609.009 94.6836 606.206 94.6836C603.403 94.6836 600.908 94.2165 598.721 93.2822C596.556 92.348 594.722 91.0378 593.218 89.3516C591.737 87.6426 590.609 85.6488 589.834 83.3701C589.059 81.0687 588.672 78.5736 588.672 75.8848ZM598.516 75.167V75.8848C598.516 77.4342 598.652 78.8812 598.926 80.2256C599.199 81.57 599.632 82.7549 600.225 83.7803C600.84 84.7829 601.637 85.569 602.617 86.1387C603.597 86.7083 604.793 86.9932 606.206 86.9932C607.573 86.9932 608.747 86.7083 609.727 86.1387C610.706 85.569 611.493 84.7829 612.085 83.7803C612.677 82.7549 613.11 81.57 613.384 80.2256C613.68 78.8812 613.828 77.4342 613.828 75.8848V75.167C613.828 73.6631 613.68 72.2503 613.384 70.9287C613.11 69.5843 612.666 68.3994 612.051 67.374C611.458 66.3258 610.672 65.5055 609.692 64.9131C608.713 64.3206 607.528 64.0244 606.138 64.0244C604.748 64.0244 603.563 64.3206 602.583 64.9131C601.626 65.5055 600.84 66.3258 600.225 67.374C599.632 68.3994 599.199 69.5843 598.926 70.9287C598.652 72.2503 598.516 73.6631 598.516 75.167ZM640.181 89.8301L649.99 57.0176H660.552L645.684 99.5713C645.365 100.506 644.932 101.508 644.385 102.579C643.861 103.65 643.143 104.664 642.231 105.621C641.343 106.601 640.215 107.398 638.848 108.014C637.503 108.629 635.851 108.937 633.892 108.937C632.957 108.937 632.194 108.88 631.602 108.766C631.009 108.652 630.303 108.492 629.482 108.287V101.075C629.733 101.075 629.995 101.075 630.269 101.075C630.542 101.098 630.804 101.109 631.055 101.109C632.354 101.109 633.413 100.961 634.233 100.665C635.054 100.369 635.715 99.9131 636.216 99.2979C636.717 98.7054 637.116 97.9307 637.412 96.9736L640.181 89.8301ZM636.079 57.0176L644.111 83.8145L645.513 94.2393L638.813 94.957L625.518 57.0176H636.079ZM681.025 94.6836C678.154 94.6836 675.579 94.2279 673.301 93.3164C671.022 92.3822 669.085 91.0947 667.49 89.4541C665.918 87.8135 664.71 85.9108 663.867 83.7461C663.024 81.5586 662.603 79.2344 662.603 76.7734V75.4062C662.603 72.6035 663.001 70.04 663.799 67.7158C664.596 65.3916 665.736 63.375 667.217 61.666C668.721 59.957 670.544 58.6468 672.686 57.7354C674.827 56.8011 677.243 56.334 679.932 56.334C682.552 56.334 684.876 56.7669 686.904 57.6328C688.932 58.4987 690.63 59.7292 691.997 61.3242C693.387 62.9193 694.435 64.8333 695.142 67.0664C695.848 69.2767 696.201 71.7376 696.201 74.4492V78.5508H666.807V71.9883H686.528V71.2363C686.528 69.8691 686.278 68.6501 685.776 67.5791C685.298 66.4854 684.569 65.6195 683.589 64.9814C682.609 64.3434 681.356 64.0244 679.829 64.0244C678.53 64.0244 677.414 64.3092 676.479 64.8789C675.545 65.4486 674.782 66.2461 674.189 67.2715C673.62 68.2969 673.187 69.5046 672.891 70.8945C672.617 72.2617 672.48 73.7656 672.48 75.4062V76.7734C672.48 78.2546 672.686 79.6217 673.096 80.875C673.529 82.1283 674.132 83.2106 674.907 84.1221C675.705 85.0335 676.662 85.7399 677.778 86.2412C678.918 86.7425 680.205 86.9932 681.641 86.9932C683.418 86.9932 685.07 86.6514 686.597 85.9678C688.146 85.2614 689.479 84.2018 690.596 82.7891L695.381 87.9844C694.606 89.1009 693.547 90.1719 692.202 91.1973C690.881 92.2227 689.285 93.0658 687.417 93.7266C685.549 94.3646 683.418 94.6836 681.025 94.6836ZM718.828 94.6836C715.957 94.6836 713.382 94.2279 711.104 93.3164C708.825 92.3822 706.888 91.0947 705.293 89.4541C703.721 87.8135 702.513 85.9108 701.67 83.7461C700.827 81.5586 700.405 79.2344 700.405 76.7734V75.4062C700.405 72.6035 700.804 70.04 701.602 67.7158C702.399 65.3916 703.538 63.375 705.02 61.666C706.523 59.957 708.346 58.6468 710.488 57.7354C712.63 56.8011 715.046 56.334 717.734 56.334C720.355 56.334 722.679 56.7669 724.707 57.6328C726.735 58.4987 728.433 59.7292 729.8 61.3242C731.19 62.9193 732.238 64.8333 732.944 67.0664C733.651 69.2767 734.004 71.7376 734.004 74.4492V78.5508H704.609V71.9883H724.331V71.2363C724.331 69.8691 724.08 68.6501 723.579 67.5791C723.101 66.4854 722.371 65.6195 721.392 64.9814C720.412 64.3434 719.159 64.0244 717.632 64.0244C716.333 64.0244 715.216 64.3092 714.282 64.8789C713.348 65.4486 712.585 66.2461 711.992 67.2715C711.423 68.2969 710.99 69.5046 710.693 70.8945C710.42 72.2617 710.283 73.7656 710.283 75.4062V76.7734C710.283 78.2546 710.488 79.6217 710.898 80.875C711.331 82.1283 711.935 83.2106 712.71 84.1221C713.507 85.0335 714.465 85.7399 715.581 86.2412C716.72 86.7425 718.008 86.9932 719.443 86.9932C721.221 86.9932 722.873 86.6514 724.399 85.9678C725.949 85.2614 727.282 84.2018 728.398 82.7891L733.184 87.9844C732.409 89.1009 731.349 90.1719 730.005 91.1973C728.683 92.2227 727.088 93.0658 725.22 93.7266C723.351 94.3646 721.221 94.6836 718.828 94.6836ZM759.604 83.7803C759.604 83.0739 759.399 82.4359 758.989 81.8662C758.579 81.2965 757.816 80.7725 756.699 80.2939C755.605 79.7926 754.022 79.3369 751.948 78.9268C750.08 78.5166 748.337 78.0039 746.719 77.3887C745.124 76.7507 743.734 75.9873 742.549 75.0986C741.387 74.21 740.475 73.1618 739.814 71.9541C739.154 70.7236 738.823 69.3223 738.823 67.75C738.823 66.2005 739.154 64.7422 739.814 63.375C740.498 62.0078 741.466 60.8001 742.72 59.752C743.996 58.681 745.545 57.8493 747.368 57.2568C749.214 56.6416 751.287 56.334 753.589 56.334C756.802 56.334 759.559 56.8467 761.86 57.8721C764.185 58.8975 765.962 60.3102 767.192 62.1104C768.446 63.8877 769.072 65.9157 769.072 68.1943H759.229C759.229 67.2373 759.023 66.3828 758.613 65.6309C758.226 64.8561 757.611 64.2523 756.768 63.8193C755.947 63.3636 754.876 63.1357 753.555 63.1357C752.461 63.1357 751.515 63.3294 750.718 63.7168C749.92 64.0814 749.305 64.5827 748.872 65.2207C748.462 65.8359 748.257 66.5195 748.257 67.2715C748.257 67.8411 748.371 68.3538 748.599 68.8096C748.849 69.2425 749.248 69.6413 749.795 70.0059C750.342 70.3704 751.048 70.7122 751.914 71.0312C752.803 71.3275 753.896 71.6009 755.195 71.8516C757.861 72.3984 760.243 73.1162 762.339 74.0049C764.435 74.8708 766.099 76.0557 767.329 77.5596C768.56 79.0407 769.175 80.9889 769.175 83.4043C769.175 85.0449 768.81 86.5488 768.081 87.916C767.352 89.2832 766.304 90.4795 764.937 91.5049C763.569 92.5075 761.929 93.2936 760.015 93.8633C758.123 94.4102 755.993 94.6836 753.623 94.6836C750.182 94.6836 747.266 94.0684 744.873 92.8379C742.503 91.6074 740.703 90.0465 739.473 88.1553C738.265 86.2412 737.661 84.2816 737.661 82.2764H746.992C747.038 83.6208 747.38 84.7031 748.018 85.5234C748.678 86.3438 749.51 86.9362 750.513 87.3008C751.538 87.6654 752.643 87.8477 753.828 87.8477C755.104 87.8477 756.164 87.6768 757.007 87.335C757.85 86.9704 758.488 86.4919 758.921 85.8994C759.377 85.2842 759.604 84.5778 759.604 83.7803Z" fill="#1C4670"/>
</svg>
