<svg width="1000" height="1515" viewBox="0 0 1000 1515" fill="none" xmlns="http://www.w3.org/2000/svg">
<g clip-path="url(#clip0_361_1487)">
<rect width="1000" height="1515" fill="white"/>
<path d="M909.999 249.704C946.45 249.704 975.999 212.934 975.999 167.575C975.999 122.216 946.45 85.4453 909.999 85.4453C873.549 85.4453 844 122.216 844 167.575C844 212.934 873.549 249.704 909.999 249.704Z" fill="#1C4670"/>
<path d="M907.28 85.4453H81.8594V249.702H907.28V85.4453Z" fill="#1C4670"/>
<path d="M84.9993 249.704C121.45 249.704 150.999 212.934 150.999 167.575C150.999 122.216 121.45 85.4453 84.9993 85.4453C48.5489 85.4453 19 122.216 19 167.575C19 212.934 48.5489 249.704 84.9993 249.704Z" fill="#1C4670"/>
<path d="M155.979 268.414C116.535 233.751 103.141 178.643 122.755 129.407C142.344 80.2338 190.028 49.3093 242.529 51.138L249.19 34.4168C219.097 32.1267 189.06 39.4971 163.46 55.4524C137.86 71.4076 118.038 95.1126 106.886 123.108C95.7345 151.104 93.8369 181.924 101.47 211.072C109.104 240.22 125.869 266.17 149.318 285.135L155.979 268.414Z" fill="#1C4670"/>
<path d="M234.176 299.458C286.694 301.302 334.338 270.437 353.952 221.189C373.539 172.017 360.151 116.841 320.726 82.1822L327.391 65.4609C350.843 84.4253 367.609 110.376 375.243 139.525C382.878 168.674 380.98 199.496 369.828 227.492C358.675 255.489 338.851 279.194 313.25 295.149C287.648 311.103 257.609 318.472 227.516 316.179L234.176 299.458Z" fill="#1C4670"/>
<path d="M326.218 263.014C374.746 214.569 374.746 136.025 326.218 87.5802C277.691 39.1357 199.012 39.1357 150.484 87.5802C101.957 136.025 101.957 214.569 150.484 263.014C199.012 311.458 277.691 311.458 326.218 263.014Z" fill="white"/>
<path d="M313.351 250.168C354.772 208.818 354.772 141.776 313.351 100.425C271.93 59.0751 204.773 59.0751 163.351 100.425C121.93 141.776 121.93 208.818 163.351 250.168C204.773 291.519 271.93 291.519 313.351 250.168Z" fill="#FFA229"/>
<path d="M223.756 209.656C217.658 209.656 212.941 207.947 209.605 204.529C206.297 201.111 204.642 196.189 204.642 189.764V157.197C204.642 150.416 206.215 145.221 209.359 141.611C212.531 137.975 217.33 136.156 223.756 136.156C230.209 136.156 235.008 137.975 238.152 141.611C241.297 145.221 242.869 150.416 242.869 157.197V189.764C242.869 196.189 241.215 201.111 237.906 204.529C234.597 207.947 229.881 209.656 223.756 209.656ZM223.756 196.367C224.877 196.367 225.752 195.861 226.381 194.85C227.01 193.838 227.324 192.703 227.324 191.445V155.803C227.324 154.107 227.133 152.631 226.75 151.373C226.394 150.088 225.396 149.445 223.756 149.445C222.115 149.445 221.103 150.088 220.721 151.373C220.365 152.631 220.187 154.107 220.187 155.803V191.445C220.187 192.703 220.502 193.838 221.131 194.85C221.787 195.861 222.662 196.367 223.756 196.367ZM256.156 209V153.383C255.172 154.559 253.819 155.516 252.096 156.254C250.373 156.965 248.746 157.32 247.215 157.32V145.795C248.664 145.576 250.223 145.111 251.891 144.4C253.559 143.662 255.104 142.664 256.526 141.406C257.975 140.121 259.082 138.576 259.848 136.771H271.455V209H256.156Z" fill="white"/>
<path d="M216.906 1314.79C210.808 1314.79 206.092 1313.08 202.756 1309.66C199.447 1306.24 197.793 1301.32 197.793 1294.9V1262.33C197.793 1255.55 199.365 1250.35 202.51 1246.74C205.681 1243.11 210.48 1241.29 216.906 1241.29C223.359 1241.29 228.158 1243.11 231.303 1246.74C234.447 1250.35 236.019 1255.55 236.019 1262.33V1294.9C236.019 1301.32 234.365 1306.24 231.056 1309.66C227.748 1313.08 223.031 1314.79 216.906 1314.79ZM216.906 1301.5C218.027 1301.5 218.902 1300.99 219.531 1299.98C220.16 1298.97 220.474 1297.84 220.474 1296.58V1260.94C220.474 1259.24 220.283 1257.76 219.9 1256.51C219.545 1255.22 218.547 1254.58 216.906 1254.58C215.265 1254.58 214.254 1255.22 213.871 1256.51C213.515 1257.76 213.338 1259.24 213.338 1260.94V1296.58C213.338 1297.84 213.652 1298.97 214.281 1299.98C214.937 1300.99 215.812 1301.5 216.906 1301.5ZM260.094 1315.16C254.543 1315.16 250.004 1313.79 246.477 1311.06C242.977 1308.29 241.227 1304.07 241.227 1298.38V1287.64H256.238V1293.83C256.238 1295.12 256.307 1296.36 256.444 1297.56C256.608 1298.77 256.963 1299.75 257.51 1300.52C258.057 1301.28 258.918 1301.66 260.094 1301.66C261.653 1301.66 262.678 1301.14 263.17 1300.11C263.662 1299.04 263.908 1297.69 263.908 1296.04V1281.85C263.908 1280.68 263.826 1279.52 263.662 1278.37C263.526 1277.22 263.197 1276.26 262.678 1275.5C262.158 1274.73 261.324 1274.35 260.176 1274.35C257.442 1274.35 256.074 1276.33 256.074 1280.29H242.826V1241.9H277.238V1255.44H256.526V1265.61C257.236 1264.74 258.194 1263.97 259.397 1263.31C260.627 1262.63 262.063 1262.29 263.703 1262.29C266.985 1262.29 269.651 1262.92 271.701 1264.18C273.779 1265.43 275.365 1267.18 276.459 1269.43C277.58 1271.67 278.346 1274.27 278.756 1277.22C279.194 1280.17 279.412 1283.34 279.412 1286.73C279.412 1291.08 279.18 1295.01 278.715 1298.51C278.278 1301.98 277.389 1304.96 276.049 1307.45C274.736 1309.94 272.795 1311.85 270.225 1313.19C267.682 1314.5 264.305 1315.16 260.094 1315.16Z" fill="white"/>
<path d="M84.9993 535.408C121.45 535.408 150.999 498.637 150.999 453.278C150.999 407.919 121.45 371.148 84.9993 371.148C48.5489 371.148 19 407.919 19 453.278C19 498.637 48.5489 535.408 84.9993 535.408Z" fill="#FFA229"/>
<path d="M918.132 371.148H92.7109V535.405H918.132V371.148Z" fill="#FFA229"/>
<path d="M189.717 469.17V475H167.07V469.17H189.717ZM169.15 432.344V475H161.797V432.344H169.15ZM186.758 450.156V455.898H167.07V450.156H186.758ZM189.57 432.344V438.203H167.07V432.344H189.57ZM208.115 475H199.004L199.062 469.17H208.115C210.752 469.17 212.959 468.594 214.736 467.441C216.533 466.289 217.881 464.639 218.779 462.49C219.697 460.342 220.156 457.783 220.156 454.814V452.5C220.156 450.195 219.893 448.154 219.365 446.377C218.857 444.6 218.096 443.105 217.08 441.895C216.084 440.684 214.854 439.766 213.389 439.141C211.943 438.516 210.273 438.203 208.379 438.203H198.828V432.344H208.379C211.211 432.344 213.799 432.822 216.143 433.779C218.486 434.717 220.508 436.074 222.207 437.852C223.926 439.629 225.244 441.758 226.162 444.238C227.08 446.719 227.539 449.492 227.539 452.559V454.814C227.539 457.881 227.08 460.654 226.162 463.135C225.244 465.615 223.926 467.744 222.207 469.521C220.488 471.279 218.438 472.637 216.055 473.594C213.691 474.531 211.045 475 208.115 475ZM203.076 432.344V475H195.723V432.344H203.076ZM261.641 469.17V475H240.225V469.17H261.641ZM242.275 432.344V475H234.922V432.344H242.275ZM275.176 432.344V475H267.822V432.344H275.176ZM321.699 464.014C321.699 463.135 321.562 462.354 321.289 461.67C321.035 460.986 320.576 460.361 319.912 459.795C319.248 459.229 318.311 458.682 317.1 458.154C315.908 457.607 314.385 457.051 312.529 456.484C310.498 455.859 308.623 455.166 306.904 454.404C305.205 453.623 303.721 452.725 302.451 451.709C301.182 450.674 300.195 449.492 299.492 448.164C298.789 446.816 298.438 445.264 298.438 443.506C298.438 441.768 298.799 440.186 299.521 438.76C300.264 437.334 301.309 436.104 302.656 435.068C304.023 434.014 305.635 433.203 307.49 432.637C309.346 432.051 311.396 431.758 313.643 431.758C316.807 431.758 319.531 432.344 321.816 433.516C324.121 434.688 325.889 436.26 327.119 438.232C328.369 440.205 328.994 442.383 328.994 444.766H321.699C321.699 443.359 321.396 442.119 320.791 441.045C320.205 439.951 319.307 439.092 318.096 438.467C316.904 437.842 315.391 437.529 313.555 437.529C311.816 437.529 310.371 437.793 309.219 438.32C308.066 438.848 307.207 439.561 306.641 440.459C306.074 441.357 305.791 442.373 305.791 443.506C305.791 444.307 305.977 445.039 306.348 445.703C306.719 446.348 307.285 446.953 308.047 447.52C308.809 448.066 309.766 448.584 310.918 449.072C312.07 449.561 313.428 450.029 314.99 450.479C317.354 451.182 319.414 451.963 321.172 452.822C322.93 453.662 324.395 454.619 325.566 455.693C326.738 456.768 327.617 457.988 328.203 459.355C328.789 460.703 329.082 462.236 329.082 463.955C329.082 465.752 328.721 467.373 327.998 468.818C327.275 470.244 326.24 471.465 324.893 472.48C323.564 473.477 321.963 474.248 320.088 474.795C318.232 475.322 316.162 475.586 313.877 475.586C311.826 475.586 309.805 475.312 307.812 474.766C305.84 474.219 304.043 473.389 302.422 472.275C300.801 471.143 299.512 469.736 298.555 468.057C297.598 466.357 297.119 464.375 297.119 462.109H304.473C304.473 463.496 304.707 464.678 305.176 465.654C305.664 466.631 306.338 467.432 307.197 468.057C308.057 468.662 309.053 469.111 310.186 469.404C311.338 469.697 312.568 469.844 313.877 469.844C315.596 469.844 317.031 469.6 318.184 469.111C319.355 468.623 320.234 467.939 320.82 467.061C321.406 466.182 321.699 465.166 321.699 464.014ZM347.832 469.961C348.984 469.961 350.02 469.736 350.938 469.287C351.875 468.818 352.627 468.174 353.193 467.354C353.779 466.533 354.102 465.586 354.16 464.512H360.811C360.771 466.562 360.166 468.428 358.994 470.107C357.822 471.787 356.27 473.125 354.336 474.121C352.402 475.098 350.264 475.586 347.92 475.586C345.498 475.586 343.389 475.176 341.592 474.355C339.795 473.516 338.301 472.363 337.109 470.898C335.918 469.434 335.02 467.744 334.414 465.83C333.828 463.916 333.535 461.865 333.535 459.678V458.652C333.535 456.465 333.828 454.414 334.414 452.5C335.02 450.566 335.918 448.867 337.109 447.402C338.301 445.938 339.795 444.795 341.592 443.975C343.389 443.135 345.488 442.715 347.891 442.715C350.43 442.715 352.656 443.223 354.57 444.238C356.484 445.234 357.988 446.631 359.082 448.428C360.195 450.205 360.771 452.275 360.811 454.639H354.16C354.102 453.467 353.809 452.412 353.281 451.475C352.773 450.518 352.051 449.756 351.113 449.189C350.195 448.623 349.092 448.34 347.803 448.34C346.377 448.34 345.195 448.633 344.258 449.219C343.32 449.785 342.588 450.566 342.061 451.562C341.533 452.539 341.152 453.643 340.918 454.873C340.703 456.084 340.596 457.344 340.596 458.652V459.678C340.596 460.986 340.703 462.256 340.918 463.486C341.133 464.717 341.504 465.82 342.031 466.797C342.578 467.754 343.32 468.525 344.258 469.111C345.195 469.678 346.387 469.961 347.832 469.961ZM373.203 430V475H366.172V430H373.203ZM371.973 457.979L369.688 457.949C369.707 455.762 370.01 453.74 370.596 451.885C371.201 450.029 372.041 448.418 373.115 447.051C374.209 445.664 375.518 444.6 377.041 443.857C378.564 443.096 380.254 442.715 382.109 442.715C383.672 442.715 385.078 442.93 386.328 443.359C387.598 443.789 388.691 444.482 389.609 445.439C390.527 446.377 391.221 447.607 391.689 449.131C392.178 450.635 392.422 452.471 392.422 454.639V475H385.332V454.58C385.332 453.057 385.107 451.846 384.658 450.947C384.229 450.049 383.594 449.404 382.754 449.014C381.914 448.604 380.889 448.398 379.678 448.398C378.408 448.398 377.285 448.652 376.309 449.16C375.352 449.668 374.551 450.361 373.906 451.24C373.262 452.119 372.773 453.135 372.441 454.287C372.129 455.439 371.973 456.67 371.973 457.979ZM413.545 475.586C411.201 475.586 409.082 475.205 407.188 474.443C405.312 473.662 403.711 472.578 402.383 471.191C401.074 469.805 400.068 468.174 399.365 466.299C398.662 464.424 398.311 462.402 398.311 460.234V459.062C398.311 456.582 398.672 454.336 399.395 452.324C400.117 450.312 401.123 448.594 402.412 447.168C403.701 445.723 405.225 444.619 406.982 443.857C408.74 443.096 410.645 442.715 412.695 442.715C414.961 442.715 416.943 443.096 418.643 443.857C420.342 444.619 421.748 445.693 422.861 447.08C423.994 448.447 424.834 450.078 425.381 451.973C425.947 453.867 426.23 455.957 426.23 458.242V461.26H401.738V456.191H419.258V455.635C419.219 454.365 418.965 453.174 418.496 452.061C418.047 450.947 417.354 450.049 416.416 449.365C415.479 448.682 414.229 448.34 412.666 448.34C411.494 448.34 410.449 448.594 409.531 449.102C408.633 449.59 407.881 450.303 407.275 451.24C406.67 452.178 406.201 453.311 405.869 454.639C405.557 455.947 405.4 457.422 405.4 459.062V460.234C405.4 461.621 405.586 462.91 405.957 464.102C406.348 465.273 406.914 466.299 407.656 467.178C408.398 468.057 409.297 468.75 410.352 469.258C411.406 469.746 412.607 469.99 413.955 469.99C415.654 469.99 417.168 469.648 418.496 468.965C419.824 468.281 420.977 467.314 421.953 466.064L425.674 469.668C424.99 470.664 424.102 471.621 423.008 472.539C421.914 473.438 420.576 474.17 418.994 474.736C417.432 475.303 415.615 475.586 413.545 475.586ZM438.799 449.746V475H431.738V443.301H438.389L438.799 449.746ZM437.656 457.979L435.254 457.949C435.254 455.762 435.527 453.74 436.074 451.885C436.621 450.029 437.422 448.418 438.477 447.051C439.531 445.664 440.84 444.6 442.402 443.857C443.984 443.096 445.811 442.715 447.881 442.715C449.326 442.715 450.645 442.93 451.836 443.359C453.047 443.77 454.092 444.424 454.971 445.322C455.869 446.221 456.553 447.373 457.021 448.779C457.51 450.186 457.754 451.885 457.754 453.877V475H450.693V454.492C450.693 452.949 450.459 451.738 449.99 450.859C449.541 449.98 448.887 449.355 448.027 448.984C447.188 448.594 446.182 448.398 445.01 448.398C443.682 448.398 442.549 448.652 441.611 449.16C440.693 449.668 439.941 450.361 439.355 451.24C438.77 452.119 438.34 453.135 438.066 454.287C437.793 455.439 437.656 456.67 437.656 457.979ZM457.314 456.104L454.004 456.836C454.004 454.922 454.268 453.115 454.795 451.416C455.342 449.697 456.133 448.193 457.168 446.904C458.223 445.596 459.521 444.57 461.064 443.828C462.607 443.086 464.375 442.715 466.367 442.715C467.988 442.715 469.434 442.939 470.703 443.389C471.992 443.818 473.086 444.502 473.984 445.439C474.883 446.377 475.566 447.598 476.035 449.102C476.504 450.586 476.738 452.383 476.738 454.492V475H469.648V454.463C469.648 452.861 469.414 451.621 468.945 450.742C468.496 449.863 467.852 449.258 467.012 448.926C466.172 448.574 465.166 448.398 463.994 448.398C462.9 448.398 461.934 448.604 461.094 449.014C460.273 449.404 459.58 449.961 459.014 450.684C458.447 451.387 458.018 452.197 457.725 453.115C457.451 454.033 457.314 455.029 457.314 456.104ZM497.979 475.586C495.635 475.586 493.516 475.205 491.621 474.443C489.746 473.662 488.145 472.578 486.816 471.191C485.508 469.805 484.502 468.174 483.799 466.299C483.096 464.424 482.744 462.402 482.744 460.234V459.062C482.744 456.582 483.105 454.336 483.828 452.324C484.551 450.312 485.557 448.594 486.846 447.168C488.135 445.723 489.658 444.619 491.416 443.857C493.174 443.096 495.078 442.715 497.129 442.715C499.395 442.715 501.377 443.096 503.076 443.857C504.775 444.619 506.182 445.693 507.295 447.08C508.428 448.447 509.268 450.078 509.814 451.973C510.381 453.867 510.664 455.957 510.664 458.242V461.26H486.172V456.191H503.691V455.635C503.652 454.365 503.398 453.174 502.93 452.061C502.48 450.947 501.787 450.049 500.85 449.365C499.912 448.682 498.662 448.34 497.1 448.34C495.928 448.34 494.883 448.594 493.965 449.102C493.066 449.59 492.314 450.303 491.709 451.24C491.104 452.178 490.635 453.311 490.303 454.639C489.99 455.947 489.834 457.422 489.834 459.062V460.234C489.834 461.621 490.02 462.91 490.391 464.102C490.781 465.273 491.348 466.299 492.09 467.178C492.832 468.057 493.73 468.75 494.785 469.258C495.84 469.746 497.041 469.99 498.389 469.99C500.088 469.99 501.602 469.648 502.93 468.965C504.258 468.281 505.41 467.314 506.387 466.064L510.107 469.668C509.424 470.664 508.535 471.621 507.441 472.539C506.348 473.438 505.01 474.17 503.428 474.736C501.865 475.303 500.049 475.586 497.979 475.586Z" fill="white"/>
<path d="M914.999 535.408C951.45 535.408 980.999 498.637 980.999 453.278C980.999 407.919 951.45 371.148 914.999 371.148C878.549 371.148 849 407.919 849 453.278C849 498.637 878.549 535.408 914.999 535.408Z" fill="#FFA229"/>
<path d="M844.023 554.117C883.467 519.454 896.861 464.348 877.247 415.111C857.658 365.935 809.974 335.013 757.473 336.843L750.812 320.12C780.905 317.83 810.943 325.2 836.543 341.155C862.143 357.11 881.966 380.815 893.118 408.81C904.27 436.806 906.167 467.627 898.534 496.775C890.901 525.923 874.136 551.874 850.686 570.839L844.023 554.117Z" fill="#FFA229"/>
<path d="M765.827 585.161C713.31 587.005 665.665 556.13 646.051 506.894C626.465 457.72 639.852 402.546 679.277 367.887L672.613 351.164C649.161 370.128 632.394 396.079 624.76 425.228C617.126 454.377 619.023 485.199 630.176 513.195C641.328 541.192 661.152 564.897 686.754 580.852C712.355 596.806 742.395 604.175 772.488 601.883L765.827 585.161Z" fill="#FFA229"/>
<path d="M849.507 548.717C898.035 500.272 898.035 421.728 849.507 373.283C800.98 324.839 722.301 324.839 673.773 373.283C625.246 421.728 625.246 500.272 673.773 548.717C722.301 597.161 800.98 597.161 849.507 548.717Z" fill="white"/>
<path d="M836.294 386.482C877.52 427.637 877.52 494.363 836.294 535.518C795.068 576.673 728.228 576.673 687.002 535.518C645.776 494.363 645.776 427.637 687.002 386.482C728.228 345.327 795.068 345.327 836.294 386.482Z" fill="white" stroke="black"/>
<path d="M489.332 180.17V186H467.916V180.17H489.332ZM469.967 143.344V186H462.613V143.344H469.967ZM492.965 170.502V169.828C492.965 167.543 493.297 165.424 493.961 163.471C494.625 161.498 495.582 159.789 496.832 158.344C498.102 156.879 499.645 155.746 501.461 154.945C503.297 154.125 505.367 153.715 507.672 153.715C509.996 153.715 512.066 154.125 513.883 154.945C515.719 155.746 517.271 156.879 518.541 158.344C519.811 159.789 520.777 161.498 521.441 163.471C522.105 165.424 522.438 167.543 522.438 169.828V170.502C522.438 172.787 522.105 174.906 521.441 176.859C520.777 178.812 519.811 180.521 518.541 181.986C517.271 183.432 515.729 184.564 513.912 185.385C512.096 186.186 510.035 186.586 507.73 186.586C505.406 186.586 503.326 186.186 501.49 185.385C499.674 184.564 498.131 183.432 496.861 181.986C495.592 180.521 494.625 178.812 493.961 176.859C493.297 174.906 492.965 172.787 492.965 170.502ZM500.025 169.828V170.502C500.025 171.928 500.172 173.275 500.465 174.545C500.758 175.814 501.217 176.928 501.842 177.885C502.467 178.842 503.268 179.594 504.244 180.141C505.221 180.688 506.383 180.961 507.73 180.961C509.039 180.961 510.172 180.688 511.129 180.141C512.105 179.594 512.906 178.842 513.531 177.885C514.156 176.928 514.615 175.814 514.908 174.545C515.221 173.275 515.377 171.928 515.377 170.502V169.828C515.377 168.422 515.221 167.094 514.908 165.844C514.615 164.574 514.146 163.451 513.502 162.475C512.877 161.498 512.076 160.736 511.1 160.189C510.143 159.623 509 159.34 507.672 159.34C506.344 159.34 505.191 159.623 504.215 160.189C503.258 160.736 502.467 161.498 501.842 162.475C501.217 163.451 500.758 164.574 500.465 165.844C500.172 167.094 500.025 168.422 500.025 169.828ZM535.357 161.068V186H528.297V154.301H534.947L535.357 161.068ZM534.098 168.979L531.812 168.949C531.832 166.703 532.145 164.643 532.75 162.768C533.375 160.893 534.234 159.281 535.328 157.934C536.441 156.586 537.77 155.551 539.312 154.828C540.855 154.086 542.574 153.715 544.469 153.715C545.992 153.715 547.369 153.93 548.6 154.359C549.85 154.77 550.914 155.443 551.793 156.381C552.691 157.318 553.375 158.539 553.844 160.043C554.312 161.527 554.547 163.354 554.547 165.521V186H547.457V165.492C547.457 163.969 547.232 162.768 546.783 161.889C546.354 160.99 545.719 160.355 544.879 159.984C544.059 159.594 543.033 159.398 541.803 159.398C540.592 159.398 539.508 159.652 538.551 160.16C537.594 160.668 536.783 161.361 536.119 162.24C535.475 163.119 534.977 164.135 534.625 165.287C534.273 166.439 534.098 167.67 534.098 168.979ZM582.057 154.301H588.473V185.121C588.473 187.973 587.867 190.395 586.656 192.387C585.445 194.379 583.756 195.893 581.588 196.928C579.42 197.982 576.91 198.51 574.059 198.51C572.848 198.51 571.5 198.334 570.016 197.982C568.551 197.631 567.125 197.064 565.738 196.283C564.371 195.521 563.229 194.516 562.311 193.266L565.621 189.105C566.754 190.453 568.004 191.439 569.371 192.064C570.738 192.689 572.174 193.002 573.678 193.002C575.299 193.002 576.676 192.699 577.809 192.094C578.961 191.508 579.85 190.639 580.475 189.486C581.1 188.334 581.412 186.928 581.412 185.268V161.479L582.057 154.301ZM560.523 170.502V169.887C560.523 167.484 560.816 165.297 561.402 163.324C561.988 161.332 562.828 159.623 563.922 158.197C565.016 156.752 566.344 155.648 567.906 154.887C569.469 154.105 571.236 153.715 573.209 153.715C575.26 153.715 577.008 154.086 578.453 154.828C579.918 155.57 581.139 156.635 582.115 158.021C583.092 159.389 583.854 161.029 584.4 162.943C584.967 164.838 585.387 166.947 585.66 169.271V171.234C585.406 173.5 584.977 175.57 584.371 177.445C583.766 179.32 582.965 180.941 581.969 182.309C580.973 183.676 579.742 184.73 578.277 185.473C576.832 186.215 575.123 186.586 573.15 186.586C571.217 186.586 569.469 186.186 567.906 185.385C566.363 184.584 565.035 183.461 563.922 182.016C562.828 180.57 561.988 178.871 561.402 176.918C560.816 174.945 560.523 172.807 560.523 170.502ZM567.584 169.887V170.502C567.584 171.947 567.721 173.295 567.994 174.545C568.287 175.795 568.727 176.898 569.312 177.855C569.918 178.793 570.68 179.535 571.598 180.082C572.535 180.609 573.639 180.873 574.908 180.873C576.568 180.873 577.926 180.521 578.98 179.818C580.055 179.115 580.875 178.168 581.441 176.977C582.027 175.766 582.438 174.418 582.672 172.934V167.631C582.555 166.479 582.311 165.404 581.939 164.408C581.588 163.412 581.109 162.543 580.504 161.801C579.898 161.039 579.137 160.453 578.219 160.043C577.301 159.613 576.217 159.398 574.967 159.398C573.697 159.398 572.594 159.672 571.656 160.219C570.719 160.766 569.947 161.518 569.342 162.475C568.756 163.432 568.316 164.545 568.023 165.814C567.73 167.084 567.584 168.441 567.584 169.887ZM610.006 164.965V170.59H594.508V164.965H610.006ZM630.719 154.301V159.457H612.848V154.301H630.719ZM618.004 146.537H625.064V177.24C625.064 178.217 625.201 178.969 625.475 179.496C625.768 180.004 626.168 180.346 626.676 180.521C627.184 180.697 627.779 180.785 628.463 180.785C628.951 180.785 629.42 180.756 629.869 180.697C630.318 180.639 630.68 180.58 630.953 180.521L630.982 185.912C630.396 186.088 629.713 186.244 628.932 186.381C628.17 186.518 627.291 186.586 626.295 186.586C624.674 186.586 623.238 186.303 621.988 185.736C620.738 185.15 619.762 184.203 619.059 182.895C618.355 181.586 618.004 179.848 618.004 177.68V146.537ZM650.143 186.586C647.799 186.586 645.68 186.205 643.785 185.443C641.91 184.662 640.309 183.578 638.98 182.191C637.672 180.805 636.666 179.174 635.963 177.299C635.26 175.424 634.908 173.402 634.908 171.234V170.062C634.908 167.582 635.27 165.336 635.992 163.324C636.715 161.312 637.721 159.594 639.01 158.168C640.299 156.723 641.822 155.619 643.58 154.857C645.338 154.096 647.242 153.715 649.293 153.715C651.559 153.715 653.541 154.096 655.24 154.857C656.939 155.619 658.346 156.693 659.459 158.08C660.592 159.447 661.432 161.078 661.979 162.973C662.545 164.867 662.828 166.957 662.828 169.242V172.26H638.336V167.191H655.855V166.635C655.816 165.365 655.562 164.174 655.094 163.061C654.645 161.947 653.951 161.049 653.014 160.365C652.076 159.682 650.826 159.34 649.264 159.34C648.092 159.34 647.047 159.594 646.129 160.102C645.23 160.59 644.479 161.303 643.873 162.24C643.268 163.178 642.799 164.311 642.467 165.639C642.154 166.947 641.998 168.422 641.998 170.062V171.234C641.998 172.621 642.184 173.91 642.555 175.102C642.945 176.273 643.512 177.299 644.254 178.178C644.996 179.057 645.895 179.75 646.949 180.258C648.004 180.746 649.205 180.99 650.553 180.99C652.252 180.99 653.766 180.648 655.094 179.965C656.422 179.281 657.574 178.314 658.551 177.064L662.271 180.668C661.588 181.664 660.699 182.621 659.605 183.539C658.512 184.438 657.174 185.17 655.592 185.736C654.029 186.303 652.213 186.586 650.143 186.586ZM675.426 160.336V186H668.365V154.301H675.104L675.426 160.336ZM685.123 154.096L685.064 160.658C684.635 160.58 684.166 160.521 683.658 160.482C683.17 160.443 682.682 160.424 682.193 160.424C680.982 160.424 679.918 160.6 679 160.951C678.082 161.283 677.311 161.771 676.686 162.416C676.08 163.041 675.611 163.803 675.279 164.701C674.947 165.6 674.752 166.605 674.693 167.719L673.082 167.836C673.082 165.844 673.277 163.998 673.668 162.299C674.059 160.6 674.645 159.105 675.426 157.816C676.227 156.527 677.223 155.521 678.414 154.799C679.625 154.076 681.021 153.715 682.604 153.715C683.033 153.715 683.492 153.754 683.98 153.832C684.488 153.91 684.869 153.998 685.123 154.096ZM696.607 160.746V186H689.547V154.301H696.197L696.607 160.746ZM695.465 168.979L693.062 168.949C693.062 166.762 693.336 164.74 693.883 162.885C694.43 161.029 695.23 159.418 696.285 158.051C697.34 156.664 698.648 155.6 700.211 154.857C701.793 154.096 703.619 153.715 705.689 153.715C707.135 153.715 708.453 153.93 709.645 154.359C710.855 154.77 711.9 155.424 712.779 156.322C713.678 157.221 714.361 158.373 714.83 159.779C715.318 161.186 715.562 162.885 715.562 164.877V186H708.502V165.492C708.502 163.949 708.268 162.738 707.799 161.859C707.35 160.98 706.695 160.355 705.836 159.984C704.996 159.594 703.99 159.398 702.818 159.398C701.49 159.398 700.357 159.652 699.42 160.16C698.502 160.668 697.75 161.361 697.164 162.24C696.578 163.119 696.148 164.135 695.875 165.287C695.602 166.439 695.465 167.67 695.465 168.979ZM715.123 167.104L711.812 167.836C711.812 165.922 712.076 164.115 712.604 162.416C713.15 160.697 713.941 159.193 714.977 157.904C716.031 156.596 717.33 155.57 718.873 154.828C720.416 154.086 722.184 153.715 724.176 153.715C725.797 153.715 727.242 153.939 728.512 154.389C729.801 154.818 730.895 155.502 731.793 156.439C732.691 157.377 733.375 158.598 733.844 160.102C734.312 161.586 734.547 163.383 734.547 165.492V186H727.457V165.463C727.457 163.861 727.223 162.621 726.754 161.742C726.305 160.863 725.66 160.258 724.82 159.926C723.98 159.574 722.975 159.398 721.803 159.398C720.709 159.398 719.742 159.604 718.902 160.014C718.082 160.404 717.389 160.961 716.822 161.684C716.256 162.387 715.826 163.197 715.533 164.115C715.26 165.033 715.123 166.029 715.123 167.104ZM777.057 154.301H783.473V185.121C783.473 187.973 782.867 190.395 781.656 192.387C780.445 194.379 778.756 195.893 776.588 196.928C774.42 197.982 771.91 198.51 769.059 198.51C767.848 198.51 766.5 198.334 765.016 197.982C763.551 197.631 762.125 197.064 760.738 196.283C759.371 195.521 758.229 194.516 757.311 193.266L760.621 189.105C761.754 190.453 763.004 191.439 764.371 192.064C765.738 192.689 767.174 193.002 768.678 193.002C770.299 193.002 771.676 192.699 772.809 192.094C773.961 191.508 774.85 190.639 775.475 189.486C776.1 188.334 776.412 186.928 776.412 185.268V161.479L777.057 154.301ZM755.523 170.502V169.887C755.523 167.484 755.816 165.297 756.402 163.324C756.988 161.332 757.828 159.623 758.922 158.197C760.016 156.752 761.344 155.648 762.906 154.887C764.469 154.105 766.236 153.715 768.209 153.715C770.26 153.715 772.008 154.086 773.453 154.828C774.918 155.57 776.139 156.635 777.115 158.021C778.092 159.389 778.854 161.029 779.4 162.943C779.967 164.838 780.387 166.947 780.66 169.271V171.234C780.406 173.5 779.977 175.57 779.371 177.445C778.766 179.32 777.965 180.941 776.969 182.309C775.973 183.676 774.742 184.73 773.277 185.473C771.832 186.215 770.123 186.586 768.15 186.586C766.217 186.586 764.469 186.186 762.906 185.385C761.363 184.584 760.035 183.461 758.922 182.016C757.828 180.57 756.988 178.871 756.402 176.918C755.816 174.945 755.523 172.807 755.523 170.502ZM762.584 169.887V170.502C762.584 171.947 762.721 173.295 762.994 174.545C763.287 175.795 763.727 176.898 764.312 177.855C764.918 178.793 765.68 179.535 766.598 180.082C767.535 180.609 768.639 180.873 769.908 180.873C771.568 180.873 772.926 180.521 773.98 179.818C775.055 179.115 775.875 178.168 776.441 176.977C777.027 175.766 777.438 174.418 777.672 172.934V167.631C777.555 166.479 777.311 165.404 776.939 164.408C776.588 163.412 776.109 162.543 775.504 161.801C774.898 161.039 774.137 160.453 773.219 160.043C772.301 159.613 771.217 159.398 769.967 159.398C768.697 159.398 767.594 159.672 766.656 160.219C765.719 160.766 764.947 161.518 764.342 162.475C763.756 163.432 763.316 164.545 763.023 165.814C762.73 167.084 762.584 168.441 762.584 169.887ZM789.449 170.502V169.828C789.449 167.543 789.781 165.424 790.445 163.471C791.109 161.498 792.066 159.789 793.316 158.344C794.586 156.879 796.129 155.746 797.945 154.945C799.781 154.125 801.852 153.715 804.156 153.715C806.48 153.715 808.551 154.125 810.367 154.945C812.203 155.746 813.756 156.879 815.025 158.344C816.295 159.789 817.262 161.498 817.926 163.471C818.59 165.424 818.922 167.543 818.922 169.828V170.502C818.922 172.787 818.59 174.906 817.926 176.859C817.262 178.812 816.295 180.521 815.025 181.986C813.756 183.432 812.213 184.564 810.396 185.385C808.58 186.186 806.52 186.586 804.215 186.586C801.891 186.586 799.811 186.186 797.975 185.385C796.158 184.564 794.615 183.432 793.346 181.986C792.076 180.521 791.109 178.812 790.445 176.859C789.781 174.906 789.449 172.787 789.449 170.502ZM796.51 169.828V170.502C796.51 171.928 796.656 173.275 796.949 174.545C797.242 175.814 797.701 176.928 798.326 177.885C798.951 178.842 799.752 179.594 800.729 180.141C801.705 180.688 802.867 180.961 804.215 180.961C805.523 180.961 806.656 180.688 807.613 180.141C808.59 179.594 809.391 178.842 810.016 177.885C810.641 176.928 811.1 175.814 811.393 174.545C811.705 173.275 811.861 171.928 811.861 170.502V169.828C811.861 168.422 811.705 167.094 811.393 165.844C811.1 164.574 810.631 163.451 809.986 162.475C809.361 161.498 808.561 160.736 807.584 160.189C806.627 159.623 805.484 159.34 804.156 159.34C802.828 159.34 801.676 159.623 800.699 160.189C799.742 160.736 798.951 161.498 798.326 162.475C797.701 163.451 797.242 164.574 796.949 165.844C796.656 167.094 796.51 168.422 796.51 169.828ZM842.711 179.643V164.525C842.711 163.393 842.506 162.416 842.096 161.596C841.686 160.775 841.061 160.141 840.221 159.691C839.4 159.242 838.365 159.018 837.115 159.018C835.963 159.018 834.967 159.213 834.127 159.604C833.287 159.994 832.633 160.521 832.164 161.186C831.695 161.85 831.461 162.602 831.461 163.441H824.43C824.43 162.191 824.732 160.98 825.338 159.809C825.943 158.637 826.822 157.592 827.975 156.674C829.127 155.756 830.504 155.033 832.105 154.506C833.707 153.979 835.504 153.715 837.496 153.715C839.879 153.715 841.988 154.115 843.824 154.916C845.68 155.717 847.135 156.928 848.189 158.549C849.264 160.15 849.801 162.162 849.801 164.584V178.676C849.801 180.121 849.898 181.42 850.094 182.572C850.309 183.705 850.611 184.691 851.002 185.531V186H843.766C843.434 185.238 843.17 184.271 842.975 183.1C842.799 181.908 842.711 180.756 842.711 179.643ZM843.736 166.723L843.795 171.088H838.727C837.418 171.088 836.266 171.215 835.27 171.469C834.273 171.703 833.443 172.055 832.779 172.523C832.115 172.992 831.617 173.559 831.285 174.223C830.953 174.887 830.787 175.639 830.787 176.479C830.787 177.318 830.982 178.09 831.373 178.793C831.764 179.477 832.33 180.014 833.072 180.404C833.834 180.795 834.752 180.99 835.826 180.99C837.271 180.99 838.531 180.697 839.605 180.111C840.699 179.506 841.559 178.773 842.184 177.914C842.809 177.035 843.141 176.205 843.18 175.424L845.465 178.559C845.23 179.359 844.83 180.219 844.264 181.137C843.697 182.055 842.955 182.934 842.037 183.773C841.139 184.594 840.055 185.268 838.785 185.795C837.535 186.322 836.09 186.586 834.449 186.586C832.379 186.586 830.533 186.176 828.912 185.355C827.291 184.516 826.021 183.393 825.104 181.986C824.186 180.561 823.727 178.949 823.727 177.152C823.727 175.473 824.039 173.988 824.664 172.699C825.309 171.391 826.246 170.297 827.477 169.418C828.727 168.539 830.25 167.875 832.047 167.426C833.844 166.957 835.895 166.723 838.199 166.723H843.736ZM864.742 141V186H857.652V141H864.742ZM890.26 177.416C890.26 176.713 890.084 176.078 889.732 175.512C889.381 174.926 888.707 174.398 887.711 173.93C886.734 173.461 885.289 173.031 883.375 172.641C881.695 172.27 880.152 171.83 878.746 171.322C877.359 170.795 876.168 170.16 875.172 169.418C874.176 168.676 873.404 167.797 872.857 166.781C872.311 165.766 872.037 164.594 872.037 163.266C872.037 161.977 872.32 160.756 872.887 159.604C873.453 158.451 874.264 157.436 875.318 156.557C876.373 155.678 877.652 154.984 879.156 154.477C880.68 153.969 882.379 153.715 884.254 153.715C886.91 153.715 889.186 154.164 891.08 155.062C892.994 155.941 894.459 157.143 895.475 158.666C896.49 160.17 896.998 161.869 896.998 163.764H889.938C889.938 162.924 889.723 162.143 889.293 161.42C888.883 160.678 888.258 160.082 887.418 159.633C886.578 159.164 885.523 158.93 884.254 158.93C883.043 158.93 882.037 159.125 881.236 159.516C880.455 159.887 879.869 160.375 879.479 160.98C879.107 161.586 878.922 162.25 878.922 162.973C878.922 163.5 879.02 163.979 879.215 164.408C879.43 164.818 879.781 165.199 880.27 165.551C880.758 165.883 881.422 166.195 882.262 166.488C883.121 166.781 884.195 167.064 885.484 167.338C887.906 167.846 889.986 168.5 891.725 169.301C893.482 170.082 894.83 171.098 895.768 172.348C896.705 173.578 897.174 175.141 897.174 177.035C897.174 178.441 896.871 179.73 896.266 180.902C895.68 182.055 894.82 183.061 893.688 183.92C892.555 184.76 891.197 185.414 889.615 185.883C888.053 186.352 886.295 186.586 884.342 186.586C881.471 186.586 879.039 186.078 877.047 185.062C875.055 184.027 873.541 182.709 872.506 181.107C871.49 179.486 870.982 177.807 870.982 176.068H877.809C877.887 177.377 878.248 178.422 878.893 179.203C879.557 179.965 880.377 180.521 881.354 180.873C882.35 181.205 883.375 181.371 884.43 181.371C885.699 181.371 886.764 181.205 887.623 180.873C888.482 180.521 889.137 180.053 889.586 179.467C890.035 178.861 890.26 178.178 890.26 177.416Z" fill="white"/>
<path d="M910.999 832.111C947.45 832.111 976.999 795.34 976.999 749.981C976.999 704.622 947.45 667.852 910.999 667.852C874.549 667.852 845 704.622 845 749.981C845 795.34 874.549 832.111 910.999 832.111Z" fill="#1C4670"/>
<path d="M910.999 1413.84C947.45 1413.84 976.999 1377.07 976.999 1331.71C976.999 1286.35 947.45 1249.58 910.999 1249.58C874.549 1249.58 845 1286.35 845 1331.71C845 1377.07 874.549 1413.84 910.999 1413.84Z" fill="#1C4670"/>
<path d="M85.0006 974.03C48.5502 974.03 19.0014 1010.8 19.0014 1056.16C19.0014 1101.52 48.5503 1138.29 85.0007 1138.29C121.451 1138.29 151 1101.52 151 1056.16C151 1010.8 121.451 974.03 85.0006 974.03Z" fill="#FFA229"/>
<path d="M907.28 668H81.8594V832.257H907.28V668Z" fill="#1C4670"/>
<path d="M907.28 1249.58H81.8594V1413.84H907.28V1249.58Z" fill="#1C4670"/>
<path d="M92.72 1138.28L918.141 1138.28L918.141 974.024L92.72 974.024L92.72 1138.28Z" fill="#FFA229"/>
<path d="M108.518 1055.09H97.4141V1049.26H108.518C110.451 1049.26 112.014 1048.95 113.205 1048.32C114.396 1047.7 115.266 1046.84 115.812 1045.75C116.379 1044.63 116.662 1043.36 116.662 1041.94C116.662 1040.59 116.379 1039.33 115.812 1038.16C115.266 1036.97 114.396 1036.01 113.205 1035.29C112.014 1034.56 110.451 1034.2 108.518 1034.2H99.6699V1071H92.3164V1028.34H108.518C111.818 1028.34 114.621 1028.93 116.926 1030.1C119.25 1031.25 121.018 1032.86 122.229 1034.91C123.439 1036.94 124.045 1039.26 124.045 1041.88C124.045 1044.63 123.439 1047 122.229 1048.97C121.018 1050.94 119.25 1052.46 116.926 1053.51C114.621 1054.56 111.818 1055.09 108.518 1055.09ZM143.498 1071.59C141.154 1071.59 139.035 1071.21 137.141 1070.44C135.266 1069.66 133.664 1068.58 132.336 1067.19C131.027 1065.8 130.021 1064.17 129.318 1062.3C128.615 1060.42 128.264 1058.4 128.264 1056.23V1055.06C128.264 1052.58 128.625 1050.34 129.348 1048.32C130.07 1046.31 131.076 1044.59 132.365 1043.17C133.654 1041.72 135.178 1040.62 136.936 1039.86C138.693 1039.1 140.598 1038.71 142.648 1038.71C144.914 1038.71 146.896 1039.1 148.596 1039.86C150.295 1040.62 151.701 1041.69 152.814 1043.08C153.947 1044.45 154.787 1046.08 155.334 1047.97C155.9 1049.87 156.184 1051.96 156.184 1054.24V1057.26H131.691V1052.19H149.211V1051.63C149.172 1050.37 148.918 1049.17 148.449 1048.06C148 1046.95 147.307 1046.05 146.369 1045.37C145.432 1044.68 144.182 1044.34 142.619 1044.34C141.447 1044.34 140.402 1044.59 139.484 1045.1C138.586 1045.59 137.834 1046.3 137.229 1047.24C136.623 1048.18 136.154 1049.31 135.822 1050.64C135.51 1051.95 135.354 1053.42 135.354 1055.06V1056.23C135.354 1057.62 135.539 1058.91 135.91 1060.1C136.301 1061.27 136.867 1062.3 137.609 1063.18C138.352 1064.06 139.25 1064.75 140.305 1065.26C141.359 1065.75 142.561 1065.99 143.908 1065.99C145.607 1065.99 147.121 1065.65 148.449 1064.96C149.777 1064.28 150.93 1063.31 151.906 1062.06L155.627 1065.67C154.943 1066.66 154.055 1067.62 152.961 1068.54C151.867 1069.44 150.529 1070.17 148.947 1070.74C147.385 1071.3 145.568 1071.59 143.498 1071.59ZM168.693 1046.07V1071H161.633V1039.3H168.283L168.693 1046.07ZM167.434 1053.98L165.148 1053.95C165.168 1051.7 165.48 1049.64 166.086 1047.77C166.711 1045.89 167.57 1044.28 168.664 1042.93C169.777 1041.59 171.105 1040.55 172.648 1039.83C174.191 1039.09 175.91 1038.71 177.805 1038.71C179.328 1038.71 180.705 1038.93 181.936 1039.36C183.186 1039.77 184.25 1040.44 185.129 1041.38C186.027 1042.32 186.711 1043.54 187.18 1045.04C187.648 1046.53 187.883 1048.35 187.883 1050.52V1071H180.793V1050.49C180.793 1048.97 180.568 1047.77 180.119 1046.89C179.689 1045.99 179.055 1045.36 178.215 1044.98C177.395 1044.59 176.369 1044.4 175.139 1044.4C173.928 1044.4 172.844 1044.65 171.887 1045.16C170.93 1045.67 170.119 1046.36 169.455 1047.24C168.811 1048.12 168.312 1049.13 167.961 1050.29C167.609 1051.44 167.434 1052.67 167.434 1053.98ZM212.873 1062.42C212.873 1061.71 212.697 1061.08 212.346 1060.51C211.994 1059.93 211.32 1059.4 210.324 1058.93C209.348 1058.46 207.902 1058.03 205.988 1057.64C204.309 1057.27 202.766 1056.83 201.359 1056.32C199.973 1055.79 198.781 1055.16 197.785 1054.42C196.789 1053.68 196.018 1052.8 195.471 1051.78C194.924 1050.77 194.65 1049.59 194.65 1048.27C194.65 1046.98 194.934 1045.76 195.5 1044.6C196.066 1043.45 196.877 1042.44 197.932 1041.56C198.986 1040.68 200.266 1039.98 201.77 1039.48C203.293 1038.97 204.992 1038.71 206.867 1038.71C209.523 1038.71 211.799 1039.16 213.693 1040.06C215.607 1040.94 217.072 1042.14 218.088 1043.67C219.104 1045.17 219.611 1046.87 219.611 1048.76H212.551C212.551 1047.92 212.336 1047.14 211.906 1046.42C211.496 1045.68 210.871 1045.08 210.031 1044.63C209.191 1044.16 208.137 1043.93 206.867 1043.93C205.656 1043.93 204.65 1044.12 203.85 1044.52C203.068 1044.89 202.482 1045.38 202.092 1045.98C201.721 1046.59 201.535 1047.25 201.535 1047.97C201.535 1048.5 201.633 1048.98 201.828 1049.41C202.043 1049.82 202.395 1050.2 202.883 1050.55C203.371 1050.88 204.035 1051.2 204.875 1051.49C205.734 1051.78 206.809 1052.06 208.098 1052.34C210.52 1052.85 212.6 1053.5 214.338 1054.3C216.096 1055.08 217.443 1056.1 218.381 1057.35C219.318 1058.58 219.787 1060.14 219.787 1062.04C219.787 1063.44 219.484 1064.73 218.879 1065.9C218.293 1067.05 217.434 1068.06 216.301 1068.92C215.168 1069.76 213.811 1070.41 212.229 1070.88C210.666 1071.35 208.908 1071.59 206.955 1071.59C204.084 1071.59 201.652 1071.08 199.66 1070.06C197.668 1069.03 196.154 1067.71 195.119 1066.11C194.104 1064.49 193.596 1062.81 193.596 1061.07H200.422C200.5 1062.38 200.861 1063.42 201.506 1064.2C202.17 1064.96 202.99 1065.52 203.967 1065.87C204.963 1066.21 205.988 1066.37 207.043 1066.37C208.312 1066.37 209.377 1066.21 210.236 1065.87C211.096 1065.52 211.75 1065.05 212.199 1064.47C212.648 1063.86 212.873 1063.18 212.873 1062.42ZM233.527 1039.3V1071H226.438V1039.3H233.527ZM225.969 1030.98C225.969 1029.91 226.32 1029.02 227.023 1028.31C227.746 1027.59 228.742 1027.23 230.012 1027.23C231.262 1027.23 232.248 1027.59 232.971 1028.31C233.693 1029.02 234.055 1029.91 234.055 1030.98C234.055 1032.04 233.693 1032.91 232.971 1033.62C232.248 1034.32 231.262 1034.67 230.012 1034.67C228.742 1034.67 227.746 1034.32 227.023 1033.62C226.32 1032.91 225.969 1032.04 225.969 1030.98ZM239.914 1055.5V1054.83C239.914 1052.54 240.246 1050.42 240.91 1048.47C241.574 1046.5 242.531 1044.79 243.781 1043.34C245.051 1041.88 246.594 1040.75 248.41 1039.95C250.246 1039.12 252.316 1038.71 254.621 1038.71C256.945 1038.71 259.016 1039.12 260.832 1039.95C262.668 1040.75 264.221 1041.88 265.49 1043.34C266.76 1044.79 267.727 1046.5 268.391 1048.47C269.055 1050.42 269.387 1052.54 269.387 1054.83V1055.5C269.387 1057.79 269.055 1059.91 268.391 1061.86C267.727 1063.81 266.76 1065.52 265.49 1066.99C264.221 1068.43 262.678 1069.56 260.861 1070.38C259.045 1071.19 256.984 1071.59 254.68 1071.59C252.355 1071.59 250.275 1071.19 248.439 1070.38C246.623 1069.56 245.08 1068.43 243.811 1066.99C242.541 1065.52 241.574 1063.81 240.91 1061.86C240.246 1059.91 239.914 1057.79 239.914 1055.5ZM246.975 1054.83V1055.5C246.975 1056.93 247.121 1058.28 247.414 1059.54C247.707 1060.81 248.166 1061.93 248.791 1062.88C249.416 1063.84 250.217 1064.59 251.193 1065.14C252.17 1065.69 253.332 1065.96 254.68 1065.96C255.988 1065.96 257.121 1065.69 258.078 1065.14C259.055 1064.59 259.855 1063.84 260.48 1062.88C261.105 1061.93 261.564 1060.81 261.857 1059.54C262.17 1058.28 262.326 1056.93 262.326 1055.5V1054.83C262.326 1053.42 262.17 1052.09 261.857 1050.84C261.564 1049.57 261.096 1048.45 260.451 1047.47C259.826 1046.5 259.025 1045.74 258.049 1045.19C257.092 1044.62 255.949 1044.34 254.621 1044.34C253.293 1044.34 252.141 1044.62 251.164 1045.19C250.207 1045.74 249.416 1046.5 248.791 1047.47C248.166 1048.45 247.707 1049.57 247.414 1050.84C247.121 1052.09 246.975 1053.42 246.975 1054.83ZM282.307 1046.07V1071H275.246V1039.3H281.896L282.307 1046.07ZM281.047 1053.98L278.762 1053.95C278.781 1051.7 279.094 1049.64 279.699 1047.77C280.324 1045.89 281.184 1044.28 282.277 1042.93C283.391 1041.59 284.719 1040.55 286.262 1039.83C287.805 1039.09 289.523 1038.71 291.418 1038.71C292.941 1038.71 294.318 1038.93 295.549 1039.36C296.799 1039.77 297.863 1040.44 298.742 1041.38C299.641 1042.32 300.324 1043.54 300.793 1045.04C301.262 1046.53 301.496 1048.35 301.496 1050.52V1071H294.406V1050.49C294.406 1048.97 294.182 1047.77 293.732 1046.89C293.303 1045.99 292.668 1045.36 291.828 1044.98C291.008 1044.59 289.982 1044.4 288.752 1044.4C287.541 1044.4 286.457 1044.65 285.5 1045.16C284.543 1045.67 283.732 1046.36 283.068 1047.24C282.424 1048.12 281.926 1049.13 281.574 1050.29C281.223 1051.44 281.047 1052.67 281.047 1053.98ZM349.543 1057.11H356.867C356.633 1059.91 355.852 1062.4 354.523 1064.58C353.195 1066.75 351.33 1068.46 348.928 1069.71C346.525 1070.96 343.605 1071.59 340.168 1071.59C337.531 1071.59 335.158 1071.12 333.049 1070.18C330.939 1069.22 329.133 1067.88 327.629 1066.14C326.125 1064.38 324.973 1062.26 324.172 1059.78C323.391 1057.3 323 1054.53 323 1051.46V1047.91C323 1044.85 323.4 1042.07 324.201 1039.59C325.021 1037.11 326.193 1034.99 327.717 1033.24C329.24 1031.46 331.066 1030.1 333.195 1029.16C335.344 1028.23 337.756 1027.76 340.432 1027.76C343.83 1027.76 346.701 1028.38 349.045 1029.63C351.389 1030.88 353.205 1032.61 354.494 1034.82C355.803 1037.03 356.604 1039.55 356.896 1042.41H349.572C349.377 1040.57 348.947 1039 348.283 1037.69C347.639 1036.38 346.682 1035.38 345.412 1034.7C344.143 1034 342.482 1033.65 340.432 1033.65C338.752 1033.65 337.287 1033.96 336.037 1034.58C334.787 1035.21 333.742 1036.13 332.902 1037.34C332.062 1038.55 331.428 1040.04 330.998 1041.82C330.588 1043.58 330.383 1045.59 330.383 1047.86V1051.46C330.383 1053.61 330.568 1055.56 330.939 1057.32C331.33 1059.06 331.916 1060.55 332.697 1061.8C333.498 1063.05 334.514 1064.02 335.744 1064.7C336.975 1065.38 338.449 1065.73 340.168 1065.73C342.258 1065.73 343.947 1065.39 345.236 1064.73C346.545 1064.07 347.531 1063.1 348.195 1061.83C348.879 1060.54 349.328 1058.97 349.543 1057.11ZM361.496 1055.5V1054.83C361.496 1052.54 361.828 1050.42 362.492 1048.47C363.156 1046.5 364.113 1044.79 365.363 1043.34C366.633 1041.88 368.176 1040.75 369.992 1039.95C371.828 1039.12 373.898 1038.71 376.203 1038.71C378.527 1038.71 380.598 1039.12 382.414 1039.95C384.25 1040.75 385.803 1041.88 387.072 1043.34C388.342 1044.79 389.309 1046.5 389.973 1048.47C390.637 1050.42 390.969 1052.54 390.969 1054.83V1055.5C390.969 1057.79 390.637 1059.91 389.973 1061.86C389.309 1063.81 388.342 1065.52 387.072 1066.99C385.803 1068.43 384.26 1069.56 382.443 1070.38C380.627 1071.19 378.566 1071.59 376.262 1071.59C373.938 1071.59 371.857 1071.19 370.021 1070.38C368.205 1069.56 366.662 1068.43 365.393 1066.99C364.123 1065.52 363.156 1063.81 362.492 1061.86C361.828 1059.91 361.496 1057.79 361.496 1055.5ZM368.557 1054.83V1055.5C368.557 1056.93 368.703 1058.28 368.996 1059.54C369.289 1060.81 369.748 1061.93 370.373 1062.88C370.998 1063.84 371.799 1064.59 372.775 1065.14C373.752 1065.69 374.914 1065.96 376.262 1065.96C377.57 1065.96 378.703 1065.69 379.66 1065.14C380.637 1064.59 381.438 1063.84 382.062 1062.88C382.688 1061.93 383.146 1060.81 383.439 1059.54C383.752 1058.28 383.908 1056.93 383.908 1055.5V1054.83C383.908 1053.42 383.752 1052.09 383.439 1050.84C383.146 1049.57 382.678 1048.45 382.033 1047.47C381.408 1046.5 380.607 1045.74 379.631 1045.19C378.674 1044.62 377.531 1044.34 376.203 1044.34C374.875 1044.34 373.723 1044.62 372.746 1045.19C371.789 1045.74 370.998 1046.5 370.373 1047.47C369.748 1048.45 369.289 1049.57 368.996 1050.84C368.703 1052.09 368.557 1053.42 368.557 1054.83ZM406.73 1065.4L414.494 1039.3H421.818L410.803 1071H406.232L406.73 1065.4ZM400.783 1039.3L408.693 1065.52L409.074 1071H404.504L393.43 1039.3H400.783ZM439.748 1071.59C437.404 1071.59 435.285 1071.21 433.391 1070.44C431.516 1069.66 429.914 1068.58 428.586 1067.19C427.277 1065.8 426.271 1064.17 425.568 1062.3C424.865 1060.42 424.514 1058.4 424.514 1056.23V1055.06C424.514 1052.58 424.875 1050.34 425.598 1048.32C426.32 1046.31 427.326 1044.59 428.615 1043.17C429.904 1041.72 431.428 1040.62 433.186 1039.86C434.943 1039.1 436.848 1038.71 438.898 1038.71C441.164 1038.71 443.146 1039.1 444.846 1039.86C446.545 1040.62 447.951 1041.69 449.064 1043.08C450.197 1044.45 451.037 1046.08 451.584 1047.97C452.15 1049.87 452.434 1051.96 452.434 1054.24V1057.26H427.941V1052.19H445.461V1051.63C445.422 1050.37 445.168 1049.17 444.699 1048.06C444.25 1046.95 443.557 1046.05 442.619 1045.37C441.682 1044.68 440.432 1044.34 438.869 1044.34C437.697 1044.34 436.652 1044.59 435.734 1045.1C434.836 1045.59 434.084 1046.3 433.479 1047.24C432.873 1048.18 432.404 1049.31 432.072 1050.64C431.76 1051.95 431.604 1053.42 431.604 1055.06V1056.23C431.604 1057.62 431.789 1058.91 432.16 1060.1C432.551 1061.27 433.117 1062.3 433.859 1063.18C434.602 1064.06 435.5 1064.75 436.555 1065.26C437.609 1065.75 438.811 1065.99 440.158 1065.99C441.857 1065.99 443.371 1065.65 444.699 1064.96C446.027 1064.28 447.18 1063.31 448.156 1062.06L451.877 1065.67C451.193 1066.66 450.305 1067.62 449.211 1068.54C448.117 1069.44 446.779 1070.17 445.197 1070.74C443.635 1071.3 441.818 1071.59 439.748 1071.59ZM465.031 1045.34V1071H457.971V1039.3H464.709L465.031 1045.34ZM474.729 1039.1L474.67 1045.66C474.24 1045.58 473.771 1045.52 473.264 1045.48C472.775 1045.44 472.287 1045.42 471.799 1045.42C470.588 1045.42 469.523 1045.6 468.605 1045.95C467.688 1046.28 466.916 1046.77 466.291 1047.42C465.686 1048.04 465.217 1048.8 464.885 1049.7C464.553 1050.6 464.357 1051.61 464.299 1052.72L462.688 1052.84C462.688 1050.84 462.883 1049 463.273 1047.3C463.664 1045.6 464.25 1044.11 465.031 1042.82C465.832 1041.53 466.828 1040.52 468.02 1039.8C469.23 1039.08 470.627 1038.71 472.209 1038.71C472.639 1038.71 473.098 1038.75 473.586 1038.83C474.094 1038.91 474.475 1039 474.729 1039.1ZM495.969 1064.64V1049.53C495.969 1048.39 495.764 1047.42 495.354 1046.6C494.943 1045.78 494.318 1045.14 493.479 1044.69C492.658 1044.24 491.623 1044.02 490.373 1044.02C489.221 1044.02 488.225 1044.21 487.385 1044.6C486.545 1044.99 485.891 1045.52 485.422 1046.19C484.953 1046.85 484.719 1047.6 484.719 1048.44H477.688C477.688 1047.19 477.99 1045.98 478.596 1044.81C479.201 1043.64 480.08 1042.59 481.232 1041.67C482.385 1040.76 483.762 1040.03 485.363 1039.51C486.965 1038.98 488.762 1038.71 490.754 1038.71C493.137 1038.71 495.246 1039.12 497.082 1039.92C498.938 1040.72 500.393 1041.93 501.447 1043.55C502.521 1045.15 503.059 1047.16 503.059 1049.58V1063.68C503.059 1065.12 503.156 1066.42 503.352 1067.57C503.566 1068.71 503.869 1069.69 504.26 1070.53V1071H497.023C496.691 1070.24 496.428 1069.27 496.232 1068.1C496.057 1066.91 495.969 1065.76 495.969 1064.64ZM496.994 1051.72L497.053 1056.09H491.984C490.676 1056.09 489.523 1056.21 488.527 1056.47C487.531 1056.7 486.701 1057.05 486.037 1057.52C485.373 1057.99 484.875 1058.56 484.543 1059.22C484.211 1059.89 484.045 1060.64 484.045 1061.48C484.045 1062.32 484.24 1063.09 484.631 1063.79C485.021 1064.48 485.588 1065.01 486.33 1065.4C487.092 1065.79 488.01 1065.99 489.084 1065.99C490.529 1065.99 491.789 1065.7 492.863 1065.11C493.957 1064.51 494.816 1063.77 495.441 1062.91C496.066 1062.04 496.398 1061.21 496.438 1060.42L498.723 1063.56C498.488 1064.36 498.088 1065.22 497.521 1066.14C496.955 1067.05 496.213 1067.93 495.295 1068.77C494.396 1069.59 493.312 1070.27 492.043 1070.79C490.793 1071.32 489.348 1071.59 487.707 1071.59C485.637 1071.59 483.791 1071.18 482.17 1070.36C480.549 1069.52 479.279 1068.39 478.361 1066.99C477.443 1065.56 476.984 1063.95 476.984 1062.15C476.984 1060.47 477.297 1058.99 477.922 1057.7C478.566 1056.39 479.504 1055.3 480.734 1054.42C481.984 1053.54 483.508 1052.88 485.305 1052.43C487.102 1051.96 489.152 1051.72 491.457 1051.72H496.994ZM530.744 1039.3H537.16V1070.12C537.16 1072.97 536.555 1075.39 535.344 1077.39C534.133 1079.38 532.443 1080.89 530.275 1081.93C528.107 1082.98 525.598 1083.51 522.746 1083.51C521.535 1083.51 520.188 1083.33 518.703 1082.98C517.238 1082.63 515.812 1082.06 514.426 1081.28C513.059 1080.52 511.916 1079.52 510.998 1078.27L514.309 1074.11C515.441 1075.45 516.691 1076.44 518.059 1077.06C519.426 1077.69 520.861 1078 522.365 1078C523.986 1078 525.363 1077.7 526.496 1077.09C527.648 1076.51 528.537 1075.64 529.162 1074.49C529.787 1073.33 530.1 1071.93 530.1 1070.27V1046.48L530.744 1039.3ZM509.211 1055.5V1054.89C509.211 1052.48 509.504 1050.3 510.09 1048.32C510.676 1046.33 511.516 1044.62 512.609 1043.2C513.703 1041.75 515.031 1040.65 516.594 1039.89C518.156 1039.11 519.924 1038.71 521.896 1038.71C523.947 1038.71 525.695 1039.09 527.141 1039.83C528.605 1040.57 529.826 1041.63 530.803 1043.02C531.779 1044.39 532.541 1046.03 533.088 1047.94C533.654 1049.84 534.074 1051.95 534.348 1054.27V1056.23C534.094 1058.5 533.664 1060.57 533.059 1062.45C532.453 1064.32 531.652 1065.94 530.656 1067.31C529.66 1068.68 528.43 1069.73 526.965 1070.47C525.52 1071.21 523.811 1071.59 521.838 1071.59C519.904 1071.59 518.156 1071.19 516.594 1070.38C515.051 1069.58 513.723 1068.46 512.609 1067.02C511.516 1065.57 510.676 1063.87 510.09 1061.92C509.504 1059.95 509.211 1057.81 509.211 1055.5ZM516.271 1054.89V1055.5C516.271 1056.95 516.408 1058.29 516.682 1059.54C516.975 1060.79 517.414 1061.9 518 1062.86C518.605 1063.79 519.367 1064.54 520.285 1065.08C521.223 1065.61 522.326 1065.87 523.596 1065.87C525.256 1065.87 526.613 1065.52 527.668 1064.82C528.742 1064.12 529.562 1063.17 530.129 1061.98C530.715 1060.77 531.125 1059.42 531.359 1057.93V1052.63C531.242 1051.48 530.998 1050.4 530.627 1049.41C530.275 1048.41 529.797 1047.54 529.191 1046.8C528.586 1046.04 527.824 1045.45 526.906 1045.04C525.988 1044.61 524.904 1044.4 523.654 1044.4C522.385 1044.4 521.281 1044.67 520.344 1045.22C519.406 1045.77 518.635 1046.52 518.029 1047.47C517.443 1048.43 517.004 1049.54 516.711 1050.81C516.418 1052.08 516.271 1053.44 516.271 1054.89ZM558.459 1071.59C556.115 1071.59 553.996 1071.21 552.102 1070.44C550.227 1069.66 548.625 1068.58 547.297 1067.19C545.988 1065.8 544.982 1064.17 544.279 1062.3C543.576 1060.42 543.225 1058.4 543.225 1056.23V1055.06C543.225 1052.58 543.586 1050.34 544.309 1048.32C545.031 1046.31 546.037 1044.59 547.326 1043.17C548.615 1041.72 550.139 1040.62 551.896 1039.86C553.654 1039.1 555.559 1038.71 557.609 1038.71C559.875 1038.71 561.857 1039.1 563.557 1039.86C565.256 1040.62 566.662 1041.69 567.775 1043.08C568.908 1044.45 569.748 1046.08 570.295 1047.97C570.861 1049.87 571.145 1051.96 571.145 1054.24V1057.26H546.652V1052.19H564.172V1051.63C564.133 1050.37 563.879 1049.17 563.41 1048.06C562.961 1046.95 562.268 1046.05 561.33 1045.37C560.393 1044.68 559.143 1044.34 557.58 1044.34C556.408 1044.34 555.363 1044.59 554.445 1045.1C553.547 1045.59 552.795 1046.3 552.189 1047.24C551.584 1048.18 551.115 1049.31 550.783 1050.64C550.471 1051.95 550.314 1053.42 550.314 1055.06V1056.23C550.314 1057.62 550.5 1058.91 550.871 1060.1C551.262 1061.27 551.828 1062.3 552.57 1063.18C553.312 1064.06 554.211 1064.75 555.266 1065.26C556.32 1065.75 557.521 1065.99 558.869 1065.99C560.568 1065.99 562.082 1065.65 563.41 1064.96C564.738 1064.28 565.891 1063.31 566.867 1062.06L570.588 1065.67C569.904 1066.66 569.016 1067.62 567.922 1068.54C566.828 1069.44 565.49 1070.17 563.908 1070.74C562.346 1071.3 560.529 1071.59 558.459 1071.59Z" fill="white"/>
<path d="M489.734 725.344H504.822C508.064 725.344 510.828 725.832 513.113 726.809C515.398 727.785 517.146 729.23 518.357 731.145C519.588 733.039 520.203 735.383 520.203 738.176C520.203 740.305 519.812 742.18 519.031 743.801C518.25 745.422 517.146 746.789 515.721 747.902C514.295 748.996 512.596 749.846 510.623 750.451L508.396 751.535H494.832L494.773 745.705H504.939C506.697 745.705 508.162 745.393 509.334 744.768C510.506 744.143 511.385 743.293 511.971 742.219C512.576 741.125 512.879 739.895 512.879 738.527C512.879 737.043 512.586 735.754 512 734.66C511.434 733.547 510.555 732.697 509.363 732.111C508.172 731.506 506.658 731.203 504.822 731.203H497.088V768H489.734V725.344ZM514.08 768L504.061 748.84L511.766 748.811L521.932 767.619V768H514.08ZM534.383 736.301V768H527.293V736.301H534.383ZM526.824 727.98C526.824 726.906 527.176 726.018 527.879 725.314C528.602 724.592 529.598 724.23 530.867 724.23C532.117 724.23 533.104 724.592 533.826 725.314C534.549 726.018 534.91 726.906 534.91 727.98C534.91 729.035 534.549 729.914 533.826 730.617C533.104 731.32 532.117 731.672 530.867 731.672C529.598 731.672 528.602 731.32 527.879 730.617C527.176 729.914 526.824 729.035 526.824 727.98ZM559.9 759.416C559.9 758.713 559.725 758.078 559.373 757.512C559.021 756.926 558.348 756.398 557.352 755.93C556.375 755.461 554.93 755.031 553.016 754.641C551.336 754.27 549.793 753.83 548.387 753.322C547 752.795 545.809 752.16 544.812 751.418C543.816 750.676 543.045 749.797 542.498 748.781C541.951 747.766 541.678 746.594 541.678 745.266C541.678 743.977 541.961 742.756 542.527 741.604C543.094 740.451 543.904 739.436 544.959 738.557C546.014 737.678 547.293 736.984 548.797 736.477C550.32 735.969 552.02 735.715 553.895 735.715C556.551 735.715 558.826 736.164 560.721 737.062C562.635 737.941 564.1 739.143 565.115 740.666C566.131 742.17 566.639 743.869 566.639 745.764H559.578C559.578 744.924 559.363 744.143 558.934 743.42C558.523 742.678 557.898 742.082 557.059 741.633C556.219 741.164 555.164 740.93 553.895 740.93C552.684 740.93 551.678 741.125 550.877 741.516C550.096 741.887 549.51 742.375 549.119 742.98C548.748 743.586 548.562 744.25 548.562 744.973C548.562 745.5 548.66 745.979 548.855 746.408C549.07 746.818 549.422 747.199 549.91 747.551C550.398 747.883 551.062 748.195 551.902 748.488C552.762 748.781 553.836 749.064 555.125 749.338C557.547 749.846 559.627 750.5 561.365 751.301C563.123 752.082 564.471 753.098 565.408 754.348C566.346 755.578 566.814 757.141 566.814 759.035C566.814 760.441 566.512 761.73 565.906 762.902C565.32 764.055 564.461 765.061 563.328 765.92C562.195 766.76 560.838 767.414 559.256 767.883C557.693 768.352 555.936 768.586 553.982 768.586C551.111 768.586 548.68 768.078 546.688 767.062C544.695 766.027 543.182 764.709 542.146 763.107C541.131 761.486 540.623 759.807 540.623 758.068H547.449C547.527 759.377 547.889 760.422 548.533 761.203C549.197 761.965 550.018 762.521 550.994 762.873C551.99 763.205 553.016 763.371 554.07 763.371C555.34 763.371 556.404 763.205 557.264 762.873C558.123 762.521 558.777 762.053 559.227 761.467C559.676 760.861 559.9 760.178 559.9 759.416ZM580.115 723V768H573.025V723H580.115ZM599.803 736.301L586.004 751.594L578.445 759.328L576.6 753.352L582.312 746.291L591.277 736.301H599.803ZM592.801 768L582.518 753.117L586.971 748.166L600.975 768H592.801ZM645.125 754.113H652.449C652.215 756.906 651.434 759.396 650.105 761.584C648.777 763.752 646.912 765.461 644.51 766.711C642.107 767.961 639.188 768.586 635.75 768.586C633.113 768.586 630.74 768.117 628.631 767.18C626.521 766.223 624.715 764.875 623.211 763.137C621.707 761.379 620.555 759.26 619.754 756.779C618.973 754.299 618.582 751.525 618.582 748.459V744.914C618.582 741.848 618.982 739.074 619.783 736.594C620.604 734.113 621.775 731.994 623.299 730.236C624.822 728.459 626.648 727.102 628.777 726.164C630.926 725.227 633.338 724.758 636.014 724.758C639.412 724.758 642.283 725.383 644.627 726.633C646.971 727.883 648.787 729.611 650.076 731.818C651.385 734.025 652.186 736.555 652.479 739.406H645.154C644.959 737.57 644.529 735.998 643.865 734.689C643.221 733.381 642.264 732.385 640.994 731.701C639.725 730.998 638.064 730.646 636.014 730.646C634.334 730.646 632.869 730.959 631.619 731.584C630.369 732.209 629.324 733.127 628.484 734.338C627.645 735.549 627.01 737.043 626.58 738.82C626.17 740.578 625.965 742.59 625.965 744.855V748.459C625.965 750.607 626.15 752.561 626.521 754.318C626.912 756.057 627.498 757.551 628.279 758.801C629.08 760.051 630.096 761.018 631.326 761.701C632.557 762.385 634.031 762.727 635.75 762.727C637.84 762.727 639.529 762.395 640.818 761.73C642.127 761.066 643.113 760.1 643.777 758.83C644.461 757.541 644.91 755.969 645.125 754.113ZM657.078 752.502V751.828C657.078 749.543 657.41 747.424 658.074 745.471C658.738 743.498 659.695 741.789 660.945 740.344C662.215 738.879 663.758 737.746 665.574 736.945C667.41 736.125 669.48 735.715 671.785 735.715C674.109 735.715 676.18 736.125 677.996 736.945C679.832 737.746 681.385 738.879 682.654 740.344C683.924 741.789 684.891 743.498 685.555 745.471C686.219 747.424 686.551 749.543 686.551 751.828V752.502C686.551 754.787 686.219 756.906 685.555 758.859C684.891 760.812 683.924 762.521 682.654 763.986C681.385 765.432 679.842 766.564 678.025 767.385C676.209 768.186 674.148 768.586 671.844 768.586C669.52 768.586 667.439 768.186 665.604 767.385C663.787 766.564 662.244 765.432 660.975 763.986C659.705 762.521 658.738 760.812 658.074 758.859C657.41 756.906 657.078 754.787 657.078 752.502ZM664.139 751.828V752.502C664.139 753.928 664.285 755.275 664.578 756.545C664.871 757.814 665.33 758.928 665.955 759.885C666.58 760.842 667.381 761.594 668.357 762.141C669.334 762.688 670.496 762.961 671.844 762.961C673.152 762.961 674.285 762.688 675.242 762.141C676.219 761.594 677.02 760.842 677.645 759.885C678.27 758.928 678.729 757.814 679.021 756.545C679.334 755.275 679.49 753.928 679.49 752.502V751.828C679.49 750.422 679.334 749.094 679.021 747.844C678.729 746.574 678.26 745.451 677.615 744.475C676.99 743.498 676.189 742.736 675.213 742.189C674.256 741.623 673.113 741.34 671.785 741.34C670.457 741.34 669.305 741.623 668.328 742.189C667.371 742.736 666.58 743.498 665.955 744.475C665.33 745.451 664.871 746.574 664.578 747.844C664.285 749.094 664.139 750.422 664.139 751.828ZM702.312 762.404L710.076 736.301H717.4L706.385 768H701.814L702.312 762.404ZM696.365 736.301L704.275 762.521L704.656 768H700.086L689.012 736.301H696.365ZM735.33 768.586C732.986 768.586 730.867 768.205 728.973 767.443C727.098 766.662 725.496 765.578 724.168 764.191C722.859 762.805 721.854 761.174 721.15 759.299C720.447 757.424 720.096 755.402 720.096 753.234V752.062C720.096 749.582 720.457 747.336 721.18 745.324C721.902 743.312 722.908 741.594 724.197 740.168C725.486 738.723 727.01 737.619 728.768 736.857C730.525 736.096 732.43 735.715 734.48 735.715C736.746 735.715 738.729 736.096 740.428 736.857C742.127 737.619 743.533 738.693 744.646 740.08C745.779 741.447 746.619 743.078 747.166 744.973C747.732 746.867 748.016 748.957 748.016 751.242V754.26H723.523V749.191H741.043V748.635C741.004 747.365 740.75 746.174 740.281 745.061C739.832 743.947 739.139 743.049 738.201 742.365C737.264 741.682 736.014 741.34 734.451 741.34C733.279 741.34 732.234 741.594 731.316 742.102C730.418 742.59 729.666 743.303 729.061 744.24C728.455 745.178 727.986 746.311 727.654 747.639C727.342 748.947 727.186 750.422 727.186 752.062V753.234C727.186 754.621 727.371 755.91 727.742 757.102C728.133 758.273 728.699 759.299 729.441 760.178C730.184 761.057 731.082 761.75 732.137 762.258C733.191 762.746 734.393 762.99 735.74 762.99C737.439 762.99 738.953 762.648 740.281 761.965C741.609 761.281 742.762 760.314 743.738 759.064L747.459 762.668C746.775 763.664 745.887 764.621 744.793 765.539C743.699 766.438 742.361 767.17 740.779 767.736C739.217 768.303 737.4 768.586 735.33 768.586ZM760.613 742.336V768H753.553V736.301H760.291L760.613 742.336ZM770.311 736.096L770.252 742.658C769.822 742.58 769.354 742.521 768.846 742.482C768.357 742.443 767.869 742.424 767.381 742.424C766.17 742.424 765.105 742.6 764.188 742.951C763.27 743.283 762.498 743.771 761.873 744.416C761.268 745.041 760.799 745.803 760.467 746.701C760.135 747.6 759.939 748.605 759.881 749.719L758.27 749.836C758.27 747.844 758.465 745.998 758.855 744.299C759.246 742.6 759.832 741.105 760.613 739.816C761.414 738.527 762.41 737.521 763.602 736.799C764.812 736.076 766.209 735.715 767.791 735.715C768.221 735.715 768.68 735.754 769.168 735.832C769.676 735.91 770.057 735.998 770.311 736.096ZM791.551 761.643V746.525C791.551 745.393 791.346 744.416 790.936 743.596C790.525 742.775 789.9 742.141 789.061 741.691C788.24 741.242 787.205 741.018 785.955 741.018C784.803 741.018 783.807 741.213 782.967 741.604C782.127 741.994 781.473 742.521 781.004 743.186C780.535 743.85 780.301 744.602 780.301 745.441H773.27C773.27 744.191 773.572 742.98 774.178 741.809C774.783 740.637 775.662 739.592 776.814 738.674C777.967 737.756 779.344 737.033 780.945 736.506C782.547 735.979 784.344 735.715 786.336 735.715C788.719 735.715 790.828 736.115 792.664 736.916C794.52 737.717 795.975 738.928 797.029 740.549C798.104 742.15 798.641 744.162 798.641 746.584V760.676C798.641 762.121 798.738 763.42 798.934 764.572C799.148 765.705 799.451 766.691 799.842 767.531V768H792.605C792.273 767.238 792.01 766.271 791.814 765.1C791.639 763.908 791.551 762.756 791.551 761.643ZM792.576 748.723L792.635 753.088H787.566C786.258 753.088 785.105 753.215 784.109 753.469C783.113 753.703 782.283 754.055 781.619 754.523C780.955 754.992 780.457 755.559 780.125 756.223C779.793 756.887 779.627 757.639 779.627 758.479C779.627 759.318 779.822 760.09 780.213 760.793C780.604 761.477 781.17 762.014 781.912 762.404C782.674 762.795 783.592 762.99 784.666 762.99C786.111 762.99 787.371 762.697 788.445 762.111C789.539 761.506 790.398 760.773 791.023 759.914C791.648 759.035 791.98 758.205 792.02 757.424L794.305 760.559C794.07 761.359 793.67 762.219 793.104 763.137C792.537 764.055 791.795 764.934 790.877 765.773C789.979 766.594 788.895 767.268 787.625 767.795C786.375 768.322 784.93 768.586 783.289 768.586C781.219 768.586 779.373 768.176 777.752 767.355C776.131 766.516 774.861 765.393 773.943 763.986C773.025 762.561 772.566 760.949 772.566 759.152C772.566 757.473 772.879 755.988 773.504 754.699C774.148 753.391 775.086 752.297 776.316 751.418C777.566 750.539 779.09 749.875 780.887 749.426C782.684 748.957 784.734 748.723 787.039 748.723H792.576ZM826.326 736.301H832.742V767.121C832.742 769.973 832.137 772.395 830.926 774.387C829.715 776.379 828.025 777.893 825.857 778.928C823.689 779.982 821.18 780.51 818.328 780.51C817.117 780.51 815.77 780.334 814.285 779.982C812.82 779.631 811.395 779.064 810.008 778.283C808.641 777.521 807.498 776.516 806.58 775.266L809.891 771.105C811.023 772.453 812.273 773.439 813.641 774.064C815.008 774.689 816.443 775.002 817.947 775.002C819.568 775.002 820.945 774.699 822.078 774.094C823.23 773.508 824.119 772.639 824.744 771.486C825.369 770.334 825.682 768.928 825.682 767.268V743.479L826.326 736.301ZM804.793 752.502V751.887C804.793 749.484 805.086 747.297 805.672 745.324C806.258 743.332 807.098 741.623 808.191 740.197C809.285 738.752 810.613 737.648 812.176 736.887C813.738 736.105 815.506 735.715 817.479 735.715C819.529 735.715 821.277 736.086 822.723 736.828C824.188 737.57 825.408 738.635 826.385 740.021C827.361 741.389 828.123 743.029 828.67 744.943C829.236 746.838 829.656 748.947 829.93 751.271V753.234C829.676 755.5 829.246 757.57 828.641 759.445C828.035 761.32 827.234 762.941 826.238 764.309C825.242 765.676 824.012 766.73 822.547 767.473C821.102 768.215 819.393 768.586 817.42 768.586C815.486 768.586 813.738 768.186 812.176 767.385C810.633 766.584 809.305 765.461 808.191 764.016C807.098 762.57 806.258 760.871 805.672 758.918C805.086 756.945 804.793 754.807 804.793 752.502ZM811.854 751.887V752.502C811.854 753.947 811.99 755.295 812.264 756.545C812.557 757.795 812.996 758.898 813.582 759.855C814.188 760.793 814.949 761.535 815.867 762.082C816.805 762.609 817.908 762.873 819.178 762.873C820.838 762.873 822.195 762.521 823.25 761.818C824.324 761.115 825.145 760.168 825.711 758.977C826.297 757.766 826.707 756.418 826.941 754.934V749.631C826.824 748.479 826.58 747.404 826.209 746.408C825.857 745.412 825.379 744.543 824.773 743.801C824.168 743.039 823.406 742.453 822.488 742.043C821.57 741.613 820.486 741.398 819.236 741.398C817.967 741.398 816.863 741.672 815.926 742.219C814.988 742.766 814.217 743.518 813.611 744.475C813.025 745.432 812.586 746.545 812.293 747.814C812 749.084 811.854 750.441 811.854 751.887ZM854.041 768.586C851.697 768.586 849.578 768.205 847.684 767.443C845.809 766.662 844.207 765.578 842.879 764.191C841.57 762.805 840.564 761.174 839.861 759.299C839.158 757.424 838.807 755.402 838.807 753.234V752.062C838.807 749.582 839.168 747.336 839.891 745.324C840.613 743.312 841.619 741.594 842.908 740.168C844.197 738.723 845.721 737.619 847.479 736.857C849.236 736.096 851.141 735.715 853.191 735.715C855.457 735.715 857.439 736.096 859.139 736.857C860.838 737.619 862.244 738.693 863.357 740.08C864.49 741.447 865.33 743.078 865.877 744.973C866.443 746.867 866.727 748.957 866.727 751.242V754.26H842.234V749.191H859.754V748.635C859.715 747.365 859.461 746.174 858.992 745.061C858.543 743.947 857.85 743.049 856.912 742.365C855.975 741.682 854.725 741.34 853.162 741.34C851.99 741.34 850.945 741.594 850.027 742.102C849.129 742.59 848.377 743.303 847.771 744.24C847.166 745.178 846.697 746.311 846.365 747.639C846.053 748.947 845.896 750.422 845.896 752.062V753.234C845.896 754.621 846.082 755.91 846.453 757.102C846.844 758.273 847.41 759.299 848.152 760.178C848.895 761.057 849.793 761.75 850.848 762.258C851.902 762.746 853.104 762.99 854.451 762.99C856.15 762.99 857.664 762.648 858.992 761.965C860.32 761.281 861.473 760.314 862.449 759.064L866.17 762.668C865.486 763.664 864.598 764.621 863.504 765.539C862.41 766.438 861.072 767.17 859.49 767.736C857.928 768.303 856.111 768.586 854.041 768.586Z" fill="white"/>
<path d="M447.338 1279.34V1322H439.984L420.854 1291.44V1322H413.5V1279.34H420.854L440.043 1309.96V1279.34H447.338ZM469.369 1322.59C467.025 1322.59 464.906 1322.21 463.012 1321.44C461.137 1320.66 459.535 1319.58 458.207 1318.19C456.898 1316.8 455.893 1315.17 455.189 1313.3C454.486 1311.42 454.135 1309.4 454.135 1307.23V1306.06C454.135 1303.58 454.496 1301.34 455.219 1299.32C455.941 1297.31 456.947 1295.59 458.236 1294.17C459.525 1292.72 461.049 1291.62 462.807 1290.86C464.564 1290.1 466.469 1289.71 468.52 1289.71C470.785 1289.71 472.768 1290.1 474.467 1290.86C476.166 1291.62 477.572 1292.69 478.686 1294.08C479.818 1295.45 480.658 1297.08 481.205 1298.97C481.771 1300.87 482.055 1302.96 482.055 1305.24V1308.26H457.562V1303.19H475.082V1302.63C475.043 1301.37 474.789 1300.17 474.32 1299.06C473.871 1297.95 473.178 1297.05 472.24 1296.37C471.303 1295.68 470.053 1295.34 468.49 1295.34C467.318 1295.34 466.273 1295.59 465.355 1296.1C464.457 1296.59 463.705 1297.3 463.1 1298.24C462.494 1299.18 462.025 1300.31 461.693 1301.64C461.381 1302.95 461.225 1304.42 461.225 1306.06V1307.23C461.225 1308.62 461.41 1309.91 461.781 1311.1C462.172 1312.27 462.738 1313.3 463.48 1314.18C464.223 1315.06 465.121 1315.75 466.176 1316.26C467.23 1316.75 468.432 1316.99 469.779 1316.99C471.479 1316.99 472.992 1316.65 474.32 1315.96C475.648 1315.28 476.801 1314.31 477.777 1313.06L481.498 1316.67C480.814 1317.66 479.926 1318.62 478.832 1319.54C477.738 1320.44 476.4 1321.17 474.818 1321.74C473.256 1322.3 471.439 1322.59 469.369 1322.59ZM501.537 1322.59C499.193 1322.59 497.074 1322.21 495.18 1321.44C493.305 1320.66 491.703 1319.58 490.375 1318.19C489.066 1316.8 488.061 1315.17 487.357 1313.3C486.654 1311.42 486.303 1309.4 486.303 1307.23V1306.06C486.303 1303.58 486.664 1301.34 487.387 1299.32C488.109 1297.31 489.115 1295.59 490.404 1294.17C491.693 1292.72 493.217 1291.62 494.975 1290.86C496.732 1290.1 498.637 1289.71 500.688 1289.71C502.953 1289.71 504.936 1290.1 506.635 1290.86C508.334 1291.62 509.74 1292.69 510.854 1294.08C511.986 1295.45 512.826 1297.08 513.373 1298.97C513.939 1300.87 514.223 1302.96 514.223 1305.24V1308.26H489.73V1303.19H507.25V1302.63C507.211 1301.37 506.957 1300.17 506.488 1299.06C506.039 1297.95 505.346 1297.05 504.408 1296.37C503.471 1295.68 502.221 1295.34 500.658 1295.34C499.486 1295.34 498.441 1295.59 497.523 1296.1C496.625 1296.59 495.873 1297.3 495.268 1298.24C494.662 1299.18 494.193 1300.31 493.861 1301.64C493.549 1302.95 493.393 1304.42 493.393 1306.06V1307.23C493.393 1308.62 493.578 1309.91 493.949 1311.1C494.34 1312.27 494.906 1313.3 495.648 1314.18C496.391 1315.06 497.289 1315.75 498.344 1316.26C499.398 1316.75 500.6 1316.99 501.947 1316.99C503.646 1316.99 505.16 1316.65 506.488 1315.96C507.816 1315.28 508.969 1314.31 509.945 1313.06L513.666 1316.67C512.982 1317.66 512.094 1318.62 511 1319.54C509.906 1320.44 508.568 1321.17 506.986 1321.74C505.424 1322.3 503.607 1322.59 501.537 1322.59ZM539.066 1315.44V1277H546.156V1322H539.74L539.066 1315.44ZM518.441 1306.5V1305.89C518.441 1303.48 518.725 1301.3 519.291 1299.32C519.857 1297.33 520.678 1295.62 521.752 1294.2C522.826 1292.75 524.135 1291.65 525.678 1290.89C527.221 1290.11 528.959 1289.71 530.893 1289.71C532.807 1289.71 534.486 1290.09 535.932 1290.83C537.377 1291.57 538.607 1292.63 539.623 1294.02C540.639 1295.39 541.449 1297.03 542.055 1298.94C542.66 1300.84 543.09 1302.95 543.344 1305.27V1307.23C543.09 1309.5 542.66 1311.57 542.055 1313.45C541.449 1315.32 540.639 1316.94 539.623 1318.31C538.607 1319.68 537.367 1320.73 535.902 1321.47C534.457 1322.21 532.768 1322.59 530.834 1322.59C528.92 1322.59 527.191 1322.19 525.648 1321.38C524.125 1320.58 522.826 1319.46 521.752 1318.02C520.678 1316.57 519.857 1314.87 519.291 1312.92C518.725 1310.95 518.441 1308.81 518.441 1306.5ZM525.502 1305.89V1306.5C525.502 1307.95 525.629 1309.29 525.883 1310.54C526.156 1311.79 526.576 1312.9 527.143 1313.86C527.709 1314.79 528.441 1315.54 529.34 1316.08C530.258 1316.61 531.352 1316.87 532.621 1316.87C534.223 1316.87 535.541 1316.52 536.576 1315.82C537.611 1315.12 538.422 1314.17 539.008 1312.98C539.613 1311.77 540.023 1310.42 540.238 1308.93V1303.63C540.121 1302.48 539.877 1301.4 539.506 1300.41C539.154 1299.41 538.676 1298.54 538.07 1297.8C537.465 1297.04 536.713 1296.45 535.814 1296.04C534.936 1295.61 533.891 1295.4 532.68 1295.4C531.391 1295.4 530.297 1295.67 529.398 1296.22C528.5 1296.77 527.758 1297.52 527.172 1298.47C526.605 1299.43 526.186 1300.54 525.912 1301.81C525.639 1303.08 525.502 1304.44 525.502 1305.89ZM576.039 1290.3V1322H568.949V1290.3H576.039ZM568.48 1281.98C568.48 1280.91 568.832 1280.02 569.535 1279.31C570.258 1278.59 571.254 1278.23 572.523 1278.23C573.773 1278.23 574.76 1278.59 575.482 1279.31C576.205 1280.02 576.566 1280.91 576.566 1281.98C576.566 1283.04 576.205 1283.91 575.482 1284.62C574.76 1285.32 573.773 1285.67 572.523 1285.67C571.254 1285.67 570.258 1285.32 569.535 1284.62C568.832 1283.91 568.48 1283.04 568.48 1281.98ZM590.775 1297.07V1322H583.715V1290.3H590.365L590.775 1297.07ZM589.516 1304.98L587.23 1304.95C587.25 1302.7 587.562 1300.64 588.168 1298.77C588.793 1296.89 589.652 1295.28 590.746 1293.93C591.859 1292.59 593.188 1291.55 594.73 1290.83C596.273 1290.09 597.992 1289.71 599.887 1289.71C601.41 1289.71 602.787 1289.93 604.018 1290.36C605.268 1290.77 606.332 1291.44 607.211 1292.38C608.109 1293.32 608.793 1294.54 609.262 1296.04C609.73 1297.53 609.965 1299.35 609.965 1301.52V1322H602.875V1301.49C602.875 1299.97 602.65 1298.77 602.201 1297.89C601.771 1296.99 601.137 1296.36 600.297 1295.98C599.477 1295.59 598.451 1295.4 597.221 1295.4C596.01 1295.4 594.926 1295.65 593.969 1296.16C593.012 1296.67 592.201 1297.36 591.537 1298.24C590.893 1299.12 590.395 1300.13 590.043 1301.29C589.691 1302.44 589.516 1303.67 589.516 1304.98ZM660.736 1316.17V1322H638.09V1316.17H660.736ZM640.17 1279.34V1322H632.816V1279.34H640.17ZM657.777 1297.16V1302.9H638.09V1297.16H657.777ZM660.59 1279.34V1285.2H638.09V1279.34H660.59ZM673.1 1296.75V1322H666.039V1290.3H672.689L673.1 1296.75ZM671.957 1304.98L669.555 1304.95C669.555 1302.76 669.828 1300.74 670.375 1298.88C670.922 1297.03 671.723 1295.42 672.777 1294.05C673.832 1292.66 675.141 1291.6 676.703 1290.86C678.285 1290.1 680.111 1289.71 682.182 1289.71C683.627 1289.71 684.945 1289.93 686.137 1290.36C687.348 1290.77 688.393 1291.42 689.271 1292.32C690.17 1293.22 690.854 1294.37 691.322 1295.78C691.811 1297.19 692.055 1298.88 692.055 1300.88V1322H684.994V1301.49C684.994 1299.95 684.76 1298.74 684.291 1297.86C683.842 1296.98 683.188 1296.36 682.328 1295.98C681.488 1295.59 680.482 1295.4 679.311 1295.4C677.982 1295.4 676.85 1295.65 675.912 1296.16C674.994 1296.67 674.242 1297.36 673.656 1298.24C673.07 1299.12 672.641 1300.13 672.367 1301.29C672.094 1302.44 671.957 1303.67 671.957 1304.98ZM691.615 1303.1L688.305 1303.84C688.305 1301.92 688.568 1300.12 689.096 1298.42C689.643 1296.7 690.434 1295.19 691.469 1293.9C692.523 1292.6 693.822 1291.57 695.365 1290.83C696.908 1290.09 698.676 1289.71 700.668 1289.71C702.289 1289.71 703.734 1289.94 705.004 1290.39C706.293 1290.82 707.387 1291.5 708.285 1292.44C709.184 1293.38 709.867 1294.6 710.336 1296.1C710.805 1297.59 711.039 1299.38 711.039 1301.49V1322H703.949V1301.46C703.949 1299.86 703.715 1298.62 703.246 1297.74C702.797 1296.86 702.152 1296.26 701.312 1295.93C700.473 1295.57 699.467 1295.4 698.295 1295.4C697.201 1295.4 696.234 1295.6 695.395 1296.01C694.574 1296.4 693.881 1296.96 693.314 1297.68C692.748 1298.39 692.318 1299.2 692.025 1300.12C691.752 1301.03 691.615 1302.03 691.615 1303.1ZM732.279 1322.59C729.936 1322.59 727.816 1322.21 725.922 1321.44C724.047 1320.66 722.445 1319.58 721.117 1318.19C719.809 1316.8 718.803 1315.17 718.1 1313.3C717.396 1311.42 717.045 1309.4 717.045 1307.23V1306.06C717.045 1303.58 717.406 1301.34 718.129 1299.32C718.852 1297.31 719.857 1295.59 721.146 1294.17C722.436 1292.72 723.959 1291.62 725.717 1290.86C727.475 1290.1 729.379 1289.71 731.43 1289.71C733.695 1289.71 735.678 1290.1 737.377 1290.86C739.076 1291.62 740.482 1292.69 741.596 1294.08C742.729 1295.45 743.568 1297.08 744.115 1298.97C744.682 1300.87 744.965 1302.96 744.965 1305.24V1308.26H720.473V1303.19H737.992V1302.63C737.953 1301.37 737.699 1300.17 737.23 1299.06C736.781 1297.95 736.088 1297.05 735.15 1296.37C734.213 1295.68 732.963 1295.34 731.4 1295.34C730.229 1295.34 729.184 1295.59 728.266 1296.1C727.367 1296.59 726.615 1297.3 726.01 1298.24C725.404 1299.18 724.936 1300.31 724.604 1301.64C724.291 1302.95 724.135 1304.42 724.135 1306.06V1307.23C724.135 1308.62 724.32 1309.91 724.691 1311.1C725.082 1312.27 725.648 1313.3 726.391 1314.18C727.133 1315.06 728.031 1315.75 729.086 1316.26C730.141 1316.75 731.342 1316.99 732.689 1316.99C734.389 1316.99 735.902 1316.65 737.23 1315.96C738.559 1315.28 739.711 1314.31 740.688 1313.06L744.408 1316.67C743.725 1317.66 742.836 1318.62 741.742 1319.54C740.648 1320.44 739.311 1321.17 737.729 1321.74C736.166 1322.3 734.35 1322.59 732.279 1322.59ZM757.562 1296.34V1322H750.502V1290.3H757.24L757.562 1296.34ZM767.26 1290.1L767.201 1296.66C766.771 1296.58 766.303 1296.52 765.795 1296.48C765.307 1296.44 764.818 1296.42 764.33 1296.42C763.119 1296.42 762.055 1296.6 761.137 1296.95C760.219 1297.28 759.447 1297.77 758.822 1298.42C758.217 1299.04 757.748 1299.8 757.416 1300.7C757.084 1301.6 756.889 1302.61 756.83 1303.72L755.219 1303.84C755.219 1301.84 755.414 1300 755.805 1298.3C756.195 1296.6 756.781 1295.11 757.562 1293.82C758.363 1292.53 759.359 1291.52 760.551 1290.8C761.762 1290.08 763.158 1289.71 764.74 1289.71C765.17 1289.71 765.629 1289.75 766.117 1289.83C766.625 1289.91 767.006 1290 767.26 1290.1ZM791.4 1290.3H797.816V1321.12C797.816 1323.97 797.211 1326.39 796 1328.39C794.789 1330.38 793.1 1331.89 790.932 1332.93C788.764 1333.98 786.254 1334.51 783.402 1334.51C782.191 1334.51 780.844 1334.33 779.359 1333.98C777.895 1333.63 776.469 1333.06 775.082 1332.28C773.715 1331.52 772.572 1330.52 771.654 1329.27L774.965 1325.11C776.098 1326.45 777.348 1327.44 778.715 1328.06C780.082 1328.69 781.518 1329 783.021 1329C784.643 1329 786.02 1328.7 787.152 1328.09C788.305 1327.51 789.193 1326.64 789.818 1325.49C790.443 1324.33 790.756 1322.93 790.756 1321.27V1297.48L791.4 1290.3ZM769.867 1306.5V1305.89C769.867 1303.48 770.16 1301.3 770.746 1299.32C771.332 1297.33 772.172 1295.62 773.266 1294.2C774.359 1292.75 775.688 1291.65 777.25 1290.89C778.812 1290.11 780.58 1289.71 782.553 1289.71C784.604 1289.71 786.352 1290.09 787.797 1290.83C789.262 1291.57 790.482 1292.63 791.459 1294.02C792.436 1295.39 793.197 1297.03 793.744 1298.94C794.311 1300.84 794.73 1302.95 795.004 1305.27V1307.23C794.75 1309.5 794.32 1311.57 793.715 1313.45C793.109 1315.32 792.309 1316.94 791.312 1318.31C790.316 1319.68 789.086 1320.73 787.621 1321.47C786.176 1322.21 784.467 1322.59 782.494 1322.59C780.561 1322.59 778.812 1322.19 777.25 1321.38C775.707 1320.58 774.379 1319.46 773.266 1318.02C772.172 1316.57 771.332 1314.87 770.746 1312.92C770.16 1310.95 769.867 1308.81 769.867 1306.5ZM776.928 1305.89V1306.5C776.928 1307.95 777.064 1309.29 777.338 1310.54C777.631 1311.79 778.07 1312.9 778.656 1313.86C779.262 1314.79 780.023 1315.54 780.941 1316.08C781.879 1316.61 782.982 1316.87 784.252 1316.87C785.912 1316.87 787.27 1316.52 788.324 1315.82C789.398 1315.12 790.219 1314.17 790.785 1312.98C791.371 1311.77 791.781 1310.42 792.016 1308.93V1303.63C791.898 1302.48 791.654 1301.4 791.283 1300.41C790.932 1299.41 790.453 1298.54 789.848 1297.8C789.242 1297.04 788.48 1296.45 787.562 1296.04C786.645 1295.61 785.561 1295.4 784.311 1295.4C783.041 1295.4 781.938 1295.67 781 1296.22C780.062 1296.77 779.291 1297.52 778.686 1298.47C778.1 1299.43 777.66 1300.54 777.367 1301.81C777.074 1303.08 776.928 1304.44 776.928 1305.89ZM819.115 1322.59C816.771 1322.59 814.652 1322.21 812.758 1321.44C810.883 1320.66 809.281 1319.58 807.953 1318.19C806.645 1316.8 805.639 1315.17 804.936 1313.3C804.232 1311.42 803.881 1309.4 803.881 1307.23V1306.06C803.881 1303.58 804.242 1301.34 804.965 1299.32C805.688 1297.31 806.693 1295.59 807.982 1294.17C809.271 1292.72 810.795 1291.62 812.553 1290.86C814.311 1290.1 816.215 1289.71 818.266 1289.71C820.531 1289.71 822.514 1290.1 824.213 1290.86C825.912 1291.62 827.318 1292.69 828.432 1294.08C829.564 1295.45 830.404 1297.08 830.951 1298.97C831.518 1300.87 831.801 1302.96 831.801 1305.24V1308.26H807.309V1303.19H824.828V1302.63C824.789 1301.37 824.535 1300.17 824.066 1299.06C823.617 1297.95 822.924 1297.05 821.986 1296.37C821.049 1295.68 819.799 1295.34 818.236 1295.34C817.064 1295.34 816.02 1295.59 815.102 1296.1C814.203 1296.59 813.451 1297.3 812.846 1298.24C812.24 1299.18 811.771 1300.31 811.439 1301.64C811.127 1302.95 810.971 1304.42 810.971 1306.06V1307.23C810.971 1308.62 811.156 1309.91 811.527 1311.1C811.918 1312.27 812.484 1313.3 813.227 1314.18C813.969 1315.06 814.867 1315.75 815.922 1316.26C816.977 1316.75 818.178 1316.99 819.525 1316.99C821.225 1316.99 822.738 1316.65 824.066 1315.96C825.395 1315.28 826.547 1314.31 827.523 1313.06L831.244 1316.67C830.561 1317.66 829.672 1318.62 828.578 1319.54C827.484 1320.44 826.146 1321.17 824.564 1321.74C823.002 1322.3 821.186 1322.59 819.115 1322.59ZM844.311 1297.07V1322H837.25V1290.3H843.9L844.311 1297.07ZM843.051 1304.98L840.766 1304.95C840.785 1302.7 841.098 1300.64 841.703 1298.77C842.328 1296.89 843.188 1295.28 844.281 1293.93C845.395 1292.59 846.723 1291.55 848.266 1290.83C849.809 1290.09 851.527 1289.71 853.422 1289.71C854.945 1289.71 856.322 1289.93 857.553 1290.36C858.803 1290.77 859.867 1291.44 860.746 1292.38C861.645 1293.32 862.328 1294.54 862.797 1296.04C863.266 1297.53 863.5 1299.35 863.5 1301.52V1322H856.41V1301.49C856.41 1299.97 856.186 1298.77 855.736 1297.89C855.307 1296.99 854.672 1296.36 853.832 1295.98C853.012 1295.59 851.986 1295.4 850.756 1295.4C849.545 1295.4 848.461 1295.65 847.504 1296.16C846.547 1296.67 845.736 1297.36 845.072 1298.24C844.428 1299.12 843.93 1300.13 843.578 1301.29C843.227 1302.44 843.051 1303.67 843.051 1304.98ZM883.656 1316.96C884.809 1316.96 885.844 1316.74 886.762 1316.29C887.699 1315.82 888.451 1315.17 889.018 1314.35C889.604 1313.53 889.926 1312.59 889.984 1311.51H896.635C896.596 1313.56 895.99 1315.43 894.818 1317.11C893.646 1318.79 892.094 1320.12 890.16 1321.12C888.227 1322.1 886.088 1322.59 883.744 1322.59C881.322 1322.59 879.213 1322.18 877.416 1321.36C875.619 1320.52 874.125 1319.36 872.934 1317.9C871.742 1316.43 870.844 1314.74 870.238 1312.83C869.652 1310.92 869.359 1308.87 869.359 1306.68V1305.65C869.359 1303.46 869.652 1301.41 870.238 1299.5C870.844 1297.57 871.742 1295.87 872.934 1294.4C874.125 1292.94 875.619 1291.79 877.416 1290.97C879.213 1290.13 881.312 1289.71 883.715 1289.71C886.254 1289.71 888.48 1290.22 890.395 1291.24C892.309 1292.23 893.812 1293.63 894.906 1295.43C896.02 1297.21 896.596 1299.28 896.635 1301.64H889.984C889.926 1300.47 889.633 1299.41 889.105 1298.47C888.598 1297.52 887.875 1296.76 886.938 1296.19C886.02 1295.62 884.916 1295.34 883.627 1295.34C882.201 1295.34 881.02 1295.63 880.082 1296.22C879.145 1296.79 878.412 1297.57 877.885 1298.56C877.357 1299.54 876.977 1300.64 876.742 1301.87C876.527 1303.08 876.42 1304.34 876.42 1305.65V1306.68C876.42 1307.99 876.527 1309.26 876.742 1310.49C876.957 1311.72 877.328 1312.82 877.855 1313.8C878.402 1314.75 879.145 1315.53 880.082 1316.11C881.02 1316.68 882.211 1316.96 883.656 1316.96ZM911.254 1318.54L919.867 1290.3H927.426L914.711 1326.83C914.418 1327.62 914.037 1328.46 913.568 1329.38C913.1 1330.3 912.484 1331.17 911.723 1331.99C910.98 1332.83 910.053 1333.5 908.939 1334.01C907.826 1334.54 906.479 1334.8 904.896 1334.8C904.271 1334.8 903.666 1334.74 903.08 1334.63C902.514 1334.53 901.977 1334.42 901.469 1334.3L901.439 1328.91C901.635 1328.93 901.869 1328.95 902.143 1328.97C902.436 1328.99 902.67 1329 902.846 1329C904.018 1329 904.994 1328.86 905.775 1328.56C906.557 1328.29 907.191 1327.84 907.68 1327.21C908.188 1326.59 908.617 1325.75 908.969 1324.7L911.254 1318.54ZM906.391 1290.3L913.92 1314.03L915.18 1321.47L910.287 1322.73L898.773 1290.3H906.391Z" fill="white"/>
<path d="M915.001 974.03C878.55 974.03 849.001 1010.8 849.001 1056.16C849.001 1101.52 878.55 1138.29 915.001 1138.29C951.451 1138.29 981 1101.52 981 1056.16C981 1010.8 951.451 974.03 915.001 974.03Z" fill="#FFA229"/>
<path d="M844.021 955.318C883.465 989.99 896.859 1045.09 877.245 1094.33C857.656 1143.5 809.971 1174.42 757.469 1172.59L750.808 1189.32C780.9 1191.61 810.938 1184.24 836.539 1168.28C862.139 1152.33 881.961 1128.62 893.113 1100.63C904.265 1072.63 906.163 1041.81 898.53 1012.66C890.896 983.514 874.131 957.564 850.681 938.599L844.021 955.318Z" fill="#FFA229"/>
<path d="M765.824 924.266C713.306 922.425 665.662 953.3 646.048 1002.54C626.461 1051.71 639.849 1106.88 679.274 1141.54L672.613 1158.27C649.167 1139.3 632.405 1113.35 624.773 1084.2C617.142 1055.06 619.04 1024.24 630.192 996.246C641.343 968.253 661.164 944.55 686.761 928.595C712.359 912.641 742.394 905.27 772.484 907.558L765.824 924.266Z" fill="#FFA229"/>
<path d="M84.9993 832.111C121.45 832.111 150.999 795.34 150.999 749.981C150.999 704.622 121.45 667.852 84.9993 667.852C48.5489 667.852 19 704.622 19 749.981C19 795.34 48.5489 832.111 84.9993 832.111Z" fill="#1C4670"/>
<path d="M84.9993 1413.84C121.45 1413.84 150.999 1377.07 150.999 1331.71C150.999 1286.35 121.45 1249.58 84.9993 1249.58C48.5489 1249.58 19 1286.35 19 1331.71C19 1377.07 48.5489 1413.84 84.9993 1413.84Z" fill="#1C4670"/>
<path d="M673.868 960.713C625.34 1009.16 625.34 1087.7 673.868 1136.15C722.395 1184.59 801.074 1184.59 849.602 1136.15C898.129 1087.7 898.129 1009.16 849.602 960.713C801.074 912.268 722.395 912.268 673.868 960.713Z" fill="white"/>
<path d="M155.979 850.823C116.535 816.151 103.141 761.051 122.755 711.814C142.344 662.64 190.029 631.716 242.531 633.547L249.192 616.823C219.1 614.533 189.062 621.903 163.461 637.858C137.861 653.813 118.039 677.518 106.887 705.513C95.7346 733.509 93.8369 764.33 101.47 793.478C109.104 822.627 125.869 848.577 149.319 867.542L155.979 850.823Z" fill="#1C4670"/>
<path d="M155.979 1432.55C116.535 1397.88 103.141 1342.78 122.755 1293.54C142.344 1244.37 190.029 1213.44 242.531 1215.27L249.192 1198.55C219.1 1196.26 189.062 1203.63 163.461 1219.58C137.861 1235.54 118.039 1259.24 106.887 1287.24C95.7346 1315.24 93.8369 1346.06 101.47 1375.2C109.104 1404.35 125.869 1430.3 149.319 1449.27L155.979 1432.55Z" fill="#1C4670"/>
<path d="M686.649 973.558C645.228 1014.91 645.228 1081.95 686.649 1123.3C728.07 1164.65 795.227 1164.65 836.649 1123.3C878.07 1081.95 878.07 1014.91 836.649 973.558C795.227 932.208 728.07 932.208 686.649 973.558Z" fill="#1C4670"/>
<path d="M836.294 974.224C877.52 1015.38 877.52 1082.11 836.294 1123.26C795.068 1164.42 728.228 1164.42 687.002 1123.26C645.776 1082.11 645.776 1015.38 687.002 974.224C728.228 933.069 795.068 933.069 836.294 974.224Z" fill="white" stroke="black"/>
<path d="M740.906 1085.66C734.808 1085.66 730.092 1083.95 726.756 1080.53C723.447 1077.11 721.793 1072.19 721.793 1065.76V1033.2C721.793 1026.42 723.365 1021.22 726.51 1017.61C729.681 1013.97 734.48 1012.16 740.906 1012.16C747.359 1012.16 752.158 1013.97 755.303 1017.61C758.447 1021.22 760.019 1026.42 760.019 1033.2V1065.76C760.019 1072.19 758.365 1077.11 755.056 1080.53C751.748 1083.95 747.031 1085.66 740.906 1085.66ZM740.906 1072.37C742.027 1072.37 742.902 1071.86 743.531 1070.85C744.16 1069.84 744.474 1068.7 744.474 1067.45V1031.8C744.474 1030.11 744.283 1028.63 743.9 1027.37C743.545 1026.09 742.547 1025.45 740.906 1025.45C739.265 1025.45 738.254 1026.09 737.871 1027.37C737.515 1028.63 737.338 1030.11 737.338 1031.8V1067.45C737.338 1068.7 737.652 1069.84 738.281 1070.85C738.937 1071.86 739.812 1072.37 740.906 1072.37ZM785.488 1085.04V1073.6H764.078V1062.32L777.736 1012.77H800.213V1061.54H804.069V1073.6H800.213V1085.04H785.488ZM776.957 1061.54H785.488V1025.16L776.957 1061.54Z" fill="#1C4670"/>
<path d="M234.176 881.874C286.694 883.716 334.338 852.84 353.952 803.605C373.539 754.431 360.151 699.257 320.726 664.598L327.387 647.875C350.833 666.841 367.595 692.79 375.227 721.936C382.858 751.083 380.96 781.901 369.808 809.894C358.657 837.887 338.836 861.591 313.239 877.545C287.641 893.5 257.606 900.871 227.516 898.583L234.176 881.874Z" fill="#1C4670"/>
<path d="M234.176 1463.6C286.694 1465.44 334.338 1434.57 353.952 1385.33C373.539 1336.16 360.151 1280.98 320.726 1246.32L327.387 1229.6C350.833 1248.57 367.595 1274.52 375.227 1303.66C382.858 1332.81 380.96 1363.63 369.808 1391.62C358.657 1419.61 338.836 1443.32 313.239 1459.27C287.641 1475.23 257.606 1482.6 227.516 1480.31L234.176 1463.6Z" fill="#1C4670"/>
<path d="M326.218 845.42C374.746 796.975 374.746 718.431 326.218 669.986C277.691 621.542 199.012 621.542 150.484 669.986C101.957 718.431 101.957 796.975 150.484 845.42C199.012 893.864 277.691 893.864 326.218 845.42Z" fill="white"/>
<path d="M326.218 1427.15C374.746 1378.7 374.746 1300.16 326.218 1251.71C277.691 1203.27 199.012 1203.27 150.484 1251.71C101.957 1300.16 101.957 1378.7 150.484 1427.15C199.012 1475.59 277.691 1475.59 326.218 1427.15Z" fill="white"/>
<path d="M313.351 832.575C354.772 791.224 354.772 724.182 313.351 682.832C271.93 641.481 204.773 641.481 163.351 682.832C121.93 724.182 121.93 791.224 163.351 832.575C204.773 873.925 271.93 873.925 313.351 832.575Z" fill="#FFA229"/>
<path d="M313.351 1414.3C354.772 1372.95 354.772 1305.91 313.351 1264.56C271.93 1223.21 204.773 1223.21 163.351 1264.56C121.93 1305.91 121.93 1372.95 163.351 1414.3C204.773 1455.65 271.93 1455.65 313.351 1414.3Z" fill="#FFA229"/>
<path d="M219.906 791.656C213.808 791.656 209.092 789.947 205.756 786.529C202.447 783.111 200.793 778.189 200.793 771.764V739.197C200.793 732.416 202.365 727.221 205.51 723.611C208.681 719.975 213.48 718.156 219.906 718.156C226.359 718.156 231.158 719.975 234.303 723.611C237.447 727.221 239.019 732.416 239.019 739.197V771.764C239.019 778.189 237.365 783.111 234.056 786.529C230.748 789.947 226.031 791.656 219.906 791.656ZM219.906 778.367C221.027 778.367 221.902 777.861 222.531 776.85C223.16 775.838 223.474 774.703 223.474 773.445V737.803C223.474 736.107 223.283 734.631 222.9 733.373C222.545 732.088 221.547 731.445 219.906 731.445C218.265 731.445 217.254 732.088 216.871 733.373C216.515 734.631 216.338 736.107 216.338 737.803V773.445C216.338 774.703 216.652 775.838 217.281 776.85C217.937 777.861 218.812 778.367 219.906 778.367ZM262.192 791.82C255.82 791.82 251.186 790.139 248.287 786.775C245.389 783.412 243.94 778.34 243.94 771.559V764.012H258.746V771.6C258.746 773.514 258.979 775.141 259.444 776.48C259.936 777.793 261.016 778.449 262.684 778.449C264.379 778.449 265.459 777.738 265.924 776.316C266.389 774.867 266.621 772.516 266.621 769.262V767.457C266.621 764.969 266.197 762.795 265.35 760.936C264.529 759.076 262.903 758.146 260.469 758.146C260.168 758.146 259.895 758.16 259.649 758.188C259.43 758.188 259.238 758.201 259.074 758.229V745.268C261.563 745.268 263.463 744.721 264.776 743.627C266.088 742.506 266.744 740.646 266.744 738.049C266.744 733.975 265.569 731.938 263.217 731.938C261.686 731.938 260.647 732.539 260.1 733.742C259.58 734.918 259.32 736.422 259.32 738.254V740.428H244.391C244.363 740.1 244.336 739.703 244.309 739.238C244.309 738.773 244.309 738.322 244.309 737.885C244.309 731.268 245.854 726.414 248.944 723.324C252.033 720.234 256.764 718.689 263.135 718.689C275.44 718.689 281.592 725.088 281.592 737.885C281.592 741.439 281.113 744.379 280.156 746.703C279.199 749 277.422 750.613 274.824 751.543C276.875 752.527 278.393 753.785 279.377 755.316C280.361 756.848 281.004 758.748 281.305 761.018C281.606 763.287 281.756 766.035 281.756 769.262C281.756 776.48 280.238 782.045 277.203 785.955C274.195 789.865 269.192 791.82 262.192 791.82Z" fill="white"/>
<path d="M219.906 1373.38C213.808 1373.38 209.092 1371.67 205.756 1368.26C202.447 1364.84 200.793 1359.92 200.793 1353.49V1320.92C200.793 1314.14 202.365 1308.95 205.51 1305.34C208.681 1301.7 213.48 1299.88 219.906 1299.88C226.359 1299.88 231.158 1301.7 234.303 1305.34C237.447 1308.95 239.019 1314.14 239.019 1320.92V1353.49C239.019 1359.92 237.365 1364.84 234.056 1368.26C230.748 1371.67 226.031 1373.38 219.906 1373.38ZM219.906 1360.09C221.027 1360.09 221.902 1359.59 222.531 1358.58C223.16 1357.56 223.474 1356.43 223.474 1355.17V1319.53C223.474 1317.83 223.283 1316.36 222.9 1315.1C222.545 1313.81 221.547 1313.17 219.906 1313.17C218.265 1313.17 217.254 1313.81 216.871 1315.1C216.515 1316.36 216.338 1317.83 216.338 1319.53V1355.17C216.338 1356.43 216.652 1357.56 217.281 1358.58C217.937 1359.59 218.812 1360.09 219.906 1360.09ZM263.094 1373.75C257.543 1373.75 253.004 1372.38 249.477 1369.65C245.977 1366.89 244.227 1362.66 244.227 1356.98V1346.23H259.238V1352.42C259.238 1353.71 259.307 1354.95 259.444 1356.16C259.608 1357.36 259.963 1358.34 260.51 1359.11C261.057 1359.88 261.918 1360.26 263.094 1360.26C264.653 1360.26 265.678 1359.74 266.17 1358.7C266.662 1357.63 266.908 1356.28 266.908 1354.64V1340.45C266.908 1339.27 266.826 1338.11 266.662 1336.96C266.526 1335.81 266.197 1334.86 265.678 1334.09C265.158 1333.32 264.324 1332.94 263.176 1332.94C260.442 1332.94 259.074 1334.92 259.074 1338.89H245.826V1300.5H280.238V1314.03H259.526V1324.21C260.236 1323.33 261.194 1322.56 262.397 1321.91C263.627 1321.22 265.063 1320.88 266.703 1320.88C269.985 1320.88 272.651 1321.51 274.701 1322.77C276.779 1324.03 278.365 1325.78 279.459 1328.02C280.58 1330.26 281.346 1332.86 281.756 1335.81C282.194 1338.77 282.412 1341.94 282.412 1345.33C282.412 1349.68 282.18 1353.6 281.715 1357.1C281.278 1360.57 280.389 1363.55 279.049 1366.04C277.736 1368.53 275.795 1370.44 273.225 1371.78C270.682 1373.1 267.305 1373.75 263.094 1373.75Z" fill="white"/>
<path d="M836.294 386.482C877.52 427.637 877.52 494.363 836.294 535.518C795.068 576.673 728.228 576.673 687.002 535.518C645.776 494.363 645.776 427.637 687.002 386.482C728.228 345.327 795.068 345.327 836.294 386.482Z" fill="white" stroke="black"/>
<path d="M738.906 499.656C732.808 499.656 728.092 497.947 724.756 494.529C721.447 491.111 719.793 486.189 719.793 479.764V447.197C719.793 440.416 721.365 435.221 724.51 431.611C727.681 427.975 732.48 426.156 738.906 426.156C745.359 426.156 750.158 427.975 753.303 431.611C756.447 435.221 758.019 440.416 758.019 447.197V479.764C758.019 486.189 756.365 491.111 753.056 494.529C749.748 497.947 745.031 499.656 738.906 499.656ZM738.906 486.367C740.027 486.367 740.902 485.861 741.531 484.85C742.16 483.838 742.474 482.703 742.474 481.445V445.803C742.474 444.107 742.283 442.631 741.9 441.373C741.545 440.088 740.547 439.445 738.906 439.445C737.265 439.445 736.254 440.088 735.871 441.373C735.515 442.631 735.338 444.107 735.338 445.803V481.445C735.338 482.703 735.652 483.838 736.281 484.85C736.937 485.861 737.812 486.367 738.906 486.367ZM763.883 499V495.555C763.883 491.973 764.43 488.76 765.524 485.916C766.645 483.045 768.08 480.393 769.83 477.959C771.58 475.498 773.426 473.092 775.367 470.74C777.254 468.443 779.045 466.092 780.74 463.686C782.463 461.252 783.858 458.627 784.924 455.811C786.018 452.967 786.565 449.781 786.565 446.254C786.565 444.559 786.305 443.109 785.785 441.906C785.293 440.676 784.254 440.061 782.668 440.061C780.262 440.061 779.059 442.207 779.059 446.5V455.318H763.883C763.856 454.689 763.815 453.979 763.76 453.186C763.733 452.393 763.719 451.627 763.719 450.889C763.719 445.693 764.266 441.291 765.36 437.682C766.453 434.045 768.381 431.283 771.143 429.396C773.932 427.482 777.842 426.525 782.873 426.525C788.861 426.525 793.51 428.207 796.819 431.57C800.154 434.934 801.822 439.732 801.822 445.967C801.822 450.205 801.276 453.924 800.182 457.123C799.088 460.295 797.639 463.193 795.834 465.818C794.029 468.416 792.047 471.014 789.887 473.611C788.356 475.443 786.865 477.316 785.416 479.23C783.994 481.145 782.736 483.195 781.643 485.383H801.33V499H763.883Z" fill="#1C4670"/>
</g>
<defs>
<clipPath id="clip0_361_1487">
<rect width="1000" height="1515" fill="white"/>
</clipPath>
</defs>
</svg>
