<svg width="1016" height="830" viewBox="0 0 1016 830" fill="none" xmlns="http://www.w3.org/2000/svg">
<rect width="1016" height="830" fill="white"/>
<g filter="url(#filter0_d_42_5004)">
<path d="M970.375 82.6112C962.569 74.7911 953.294 68.591 943.084 64.3673C932.873 60.1437 921.929 57.9798 910.879 58.0001H223.037H112.498C111.263 58.0001 110.06 58.0001 108.825 58.0001C89.3395 57.985 70.3909 64.3825 54.9024 76.2053C39.4139 88.0281 28.2465 104.619 23.1231 123.419C17.9997 142.218 19.2052 162.181 26.5534 180.228C33.9017 198.274 46.9844 213.401 63.783 223.274C80.5815 233.148 100.162 237.218 119.504 234.859C138.846 232.499 156.874 223.84 170.806 210.218C184.738 196.596 193.8 178.767 196.595 159.484C199.389 140.2 195.759 120.532 186.267 103.516C185.297 101.884 184.777 100.024 184.759 98.1254C184.74 96.227 185.225 94.3575 186.162 92.7067C187.1 91.0559 188.458 89.6826 190.098 88.726C191.738 87.7695 193.601 87.2638 195.5 87.2603H196.15C198.188 87.2512 200.186 87.8208 201.913 88.9028C203.639 89.9848 205.023 91.5348 205.904 93.3725C213.212 108.702 217.301 125.367 217.916 142.338C218.531 159.309 215.66 176.226 209.48 192.044C207.975 195.86 207.425 199.986 207.879 204.063C208.333 208.14 209.777 212.044 212.085 215.435C214.393 218.826 217.495 221.602 221.12 223.52C224.746 225.438 228.786 226.441 232.888 226.441H910.879C927.514 226.444 943.776 221.514 957.609 212.274C971.442 203.035 982.224 189.901 988.593 174.533C994.961 159.166 996.629 142.255 993.386 125.939C990.144 109.623 982.136 94.6357 970.375 82.8713V82.6112Z" fill="#1C4670"/>
</g>
<path d="M454.715 99.7188H466.08C468.458 99.7188 470.499 100.077 472.203 100.793C473.908 101.509 475.218 102.569 476.135 103.973C477.051 105.376 477.51 107.102 477.51 109.15C477.51 110.769 477.223 112.173 476.65 113.361C476.077 114.55 475.268 115.546 474.223 116.348C473.191 117.15 471.974 117.78 470.57 118.238L468.723 119.184H458.689L458.646 114.521H466.145C467.362 114.521 468.372 114.307 469.174 113.877C469.976 113.447 470.577 112.853 470.979 112.094C471.394 111.335 471.602 110.468 471.602 109.494C471.602 108.449 471.401 107.546 471 106.787C470.599 106.014 469.99 105.419 469.174 105.004C468.357 104.589 467.326 104.381 466.08 104.381H460.623V131H454.715V99.7188ZM472.375 131L465.135 116.992L471.387 116.971L478.713 130.699V131H472.375ZM492.699 131.43C490.938 131.43 489.355 131.143 487.951 130.57C486.548 129.997 485.352 129.202 484.363 128.186C483.389 127.154 482.637 125.958 482.107 124.598C481.592 123.223 481.334 121.747 481.334 120.172V119.312C481.334 117.522 481.592 115.896 482.107 114.436C482.623 112.96 483.354 111.693 484.299 110.633C485.244 109.573 486.376 108.757 487.693 108.184C489.011 107.611 490.465 107.324 492.055 107.324C493.702 107.324 495.156 107.604 496.416 108.162C497.676 108.706 498.729 109.48 499.574 110.482C500.419 111.485 501.057 112.688 501.486 114.092C501.916 115.481 502.131 117.021 502.131 118.711V121.096H483.912V117.186H496.545V116.756C496.516 115.854 496.344 115.03 496.029 114.285C495.714 113.526 495.227 112.924 494.568 112.48C493.91 112.022 493.057 111.793 492.012 111.793C491.167 111.793 490.429 111.979 489.799 112.352C489.183 112.71 488.667 113.225 488.252 113.898C487.851 114.557 487.55 115.345 487.35 116.262C487.149 117.178 487.049 118.195 487.049 119.312V120.172C487.049 121.146 487.178 122.048 487.436 122.879C487.708 123.71 488.102 124.433 488.617 125.049C489.147 125.65 489.777 126.123 490.508 126.467C491.253 126.796 492.098 126.961 493.043 126.961C494.232 126.961 495.306 126.732 496.266 126.273C497.24 125.801 498.085 125.106 498.801 124.189L501.658 127.154C501.171 127.87 500.512 128.558 499.682 129.217C498.865 129.876 497.877 130.413 496.717 130.828C495.557 131.229 494.217 131.43 492.699 131.43ZM520.715 107.754H525.871V130.291C525.871 132.396 525.413 134.18 524.496 135.641C523.594 137.116 522.326 138.233 520.693 138.992C519.061 139.766 517.163 140.152 515 140.152C514.069 140.152 513.059 140.023 511.971 139.766C510.896 139.508 509.858 139.1 508.855 138.541C507.867 137.997 507.044 137.288 506.385 136.414L508.941 133.062C509.715 133.965 510.589 134.645 511.562 135.104C512.536 135.576 513.589 135.812 514.721 135.812C515.867 135.812 516.84 135.598 517.643 135.168C518.459 134.753 519.082 134.137 519.512 133.32C519.956 132.518 520.178 131.53 520.178 130.355V113.061L520.715 107.754ZM505.01 119.656V119.205C505.01 117.429 505.225 115.818 505.654 114.371C506.084 112.91 506.7 111.657 507.502 110.611C508.318 109.566 509.299 108.757 510.445 108.184C511.605 107.611 512.909 107.324 514.355 107.324C515.888 107.324 517.177 107.604 518.223 108.162C519.283 108.721 520.156 109.516 520.844 110.547C521.546 111.578 522.09 112.803 522.477 114.221C522.878 115.624 523.186 117.171 523.4 118.861V120.086C523.2 121.733 522.878 123.244 522.434 124.619C522.004 125.994 521.431 127.197 520.715 128.229C519.999 129.245 519.111 130.033 518.051 130.592C516.991 131.15 515.745 131.43 514.312 131.43C512.88 131.43 511.591 131.136 510.445 130.549C509.299 129.962 508.318 129.138 507.502 128.078C506.7 127.018 506.084 125.772 505.654 124.34C505.225 122.908 505.01 121.346 505.01 119.656ZM510.682 119.205V119.656C510.682 120.659 510.782 121.597 510.982 122.471C511.183 123.344 511.491 124.118 511.906 124.791C512.322 125.45 512.844 125.965 513.475 126.338C514.105 126.71 514.857 126.896 515.73 126.896C516.905 126.896 517.865 126.653 518.609 126.166C519.368 125.665 519.941 124.984 520.328 124.125C520.729 123.251 520.987 122.27 521.102 121.182V117.809C521.03 116.949 520.872 116.154 520.629 115.424C520.4 114.693 520.077 114.063 519.662 113.533C519.247 113.003 518.717 112.588 518.072 112.287C517.428 111.986 516.661 111.836 515.773 111.836C514.914 111.836 514.162 112.029 513.518 112.416C512.873 112.788 512.343 113.311 511.928 113.984C511.512 114.658 511.197 115.438 510.982 116.326C510.782 117.214 510.682 118.174 510.682 119.205ZM537 107.754V131H531.307V107.754H537ZM530.92 101.674C530.92 100.829 531.206 100.127 531.779 99.5684C532.367 99.0098 533.154 98.7305 534.143 98.7305C535.131 98.7305 535.911 99.0098 536.484 99.5684C537.072 100.127 537.365 100.829 537.365 101.674C537.365 102.505 537.072 103.199 536.484 103.758C535.911 104.316 535.131 104.596 534.143 104.596C533.154 104.596 532.367 104.316 531.779 103.758C531.206 103.199 530.92 102.505 530.92 101.674ZM555.197 124.641C555.197 124.154 555.068 123.717 554.811 123.33C554.553 122.943 554.066 122.592 553.35 122.277C552.648 121.948 551.617 121.64 550.256 121.354C549.053 121.096 547.943 120.773 546.926 120.387C545.909 120 545.035 119.535 544.305 118.99C543.574 118.432 543.001 117.78 542.586 117.035C542.185 116.276 541.984 115.402 541.984 114.414C541.984 113.454 542.192 112.552 542.607 111.707C543.023 110.848 543.624 110.096 544.412 109.451C545.2 108.792 546.16 108.277 547.291 107.904C548.423 107.518 549.697 107.324 551.115 107.324C553.092 107.324 554.789 107.646 556.207 108.291C557.639 108.936 558.735 109.824 559.494 110.955C560.253 112.072 560.633 113.333 560.633 114.736H554.961C554.961 114.12 554.818 113.562 554.531 113.061C554.259 112.559 553.837 112.158 553.264 111.857C552.691 111.542 551.967 111.385 551.094 111.385C550.306 111.385 549.64 111.514 549.096 111.771C548.566 112.029 548.165 112.366 547.893 112.781C547.62 113.197 547.484 113.655 547.484 114.156C547.484 114.529 547.556 114.865 547.699 115.166C547.857 115.452 548.107 115.717 548.451 115.961C548.795 116.204 549.26 116.426 549.848 116.627C550.449 116.827 551.187 117.021 552.061 117.207C553.794 117.551 555.305 118.009 556.594 118.582C557.897 119.141 558.914 119.885 559.645 120.816C560.375 121.747 560.74 122.936 560.74 124.383C560.74 125.414 560.518 126.359 560.074 127.219C559.63 128.064 558.986 128.801 558.141 129.432C557.296 130.062 556.286 130.556 555.111 130.914C553.937 131.258 552.612 131.43 551.137 131.43C549.003 131.43 547.198 131.05 545.723 130.291C544.247 129.518 543.13 128.544 542.371 127.369C541.612 126.18 541.232 124.949 541.232 123.674H546.668C546.711 124.576 546.954 125.299 547.398 125.844C547.842 126.388 548.401 126.782 549.074 127.025C549.762 127.255 550.485 127.369 551.244 127.369C552.104 127.369 552.827 127.255 553.414 127.025C554.001 126.782 554.445 126.46 554.746 126.059C555.047 125.643 555.197 125.171 555.197 124.641ZM576.059 107.754V111.836H562.738V107.754H576.059ZM566.305 102.039H571.998V124.297C571.998 124.984 572.091 125.514 572.277 125.887C572.464 126.259 572.743 126.51 573.115 126.639C573.488 126.768 573.932 126.832 574.447 126.832C574.82 126.832 575.163 126.811 575.479 126.768C575.794 126.725 576.059 126.682 576.273 126.639L576.295 130.893C575.822 131.05 575.285 131.179 574.684 131.279C574.096 131.38 573.43 131.43 572.686 131.43C571.411 131.43 570.294 131.215 569.334 130.785C568.374 130.341 567.63 129.632 567.1 128.658C566.57 127.67 566.305 126.367 566.305 124.748V102.039ZM585.512 112.502V131H579.84V107.754H585.211L585.512 112.502ZM592.58 107.604L592.494 112.889C592.179 112.831 591.821 112.788 591.42 112.76C591.033 112.731 590.668 112.717 590.324 112.717C589.451 112.717 588.684 112.839 588.025 113.082C587.367 113.311 586.815 113.648 586.371 114.092C585.941 114.536 585.612 115.08 585.383 115.725C585.154 116.355 585.025 117.071 584.996 117.873L583.771 117.723C583.771 116.247 583.922 114.88 584.223 113.619C584.523 112.359 584.96 111.256 585.533 110.311C586.106 109.365 586.822 108.635 587.682 108.119C588.555 107.589 589.558 107.324 590.689 107.324C591.005 107.324 591.341 107.353 591.699 107.41C592.072 107.453 592.365 107.518 592.58 107.604ZM607.77 126.059V115.338C607.77 114.55 607.633 113.87 607.361 113.297C607.089 112.724 606.674 112.28 606.115 111.965C605.557 111.65 604.848 111.492 603.988 111.492C603.229 111.492 602.563 111.621 601.99 111.879C601.432 112.137 601.002 112.502 600.701 112.975C600.4 113.433 600.25 113.963 600.25 114.564H594.557C594.557 113.605 594.786 112.695 595.244 111.836C595.702 110.962 596.354 110.189 597.199 109.516C598.059 108.828 599.083 108.291 600.271 107.904C601.475 107.518 602.821 107.324 604.311 107.324C606.072 107.324 607.641 107.625 609.016 108.227C610.405 108.814 611.493 109.702 612.281 110.891C613.083 112.079 613.484 113.576 613.484 115.381V125.521C613.484 126.682 613.556 127.677 613.699 128.508C613.857 129.324 614.086 130.033 614.387 130.635V131H608.607C608.335 130.413 608.128 129.668 607.984 128.766C607.841 127.849 607.77 126.947 607.77 126.059ZM608.564 116.842L608.607 120.215H605.02C604.132 120.215 603.351 120.308 602.678 120.494C602.005 120.666 601.453 120.924 601.023 121.268C600.594 121.597 600.271 121.998 600.057 122.471C599.842 122.929 599.734 123.452 599.734 124.039C599.734 124.612 599.863 125.128 600.121 125.586C600.393 126.044 600.78 126.41 601.281 126.682C601.797 126.939 602.398 127.068 603.086 127.068C604.089 127.068 604.962 126.868 605.707 126.467C606.452 126.051 607.032 125.55 607.447 124.963C607.863 124.376 608.085 123.817 608.113 123.287L609.746 125.736C609.546 126.324 609.245 126.947 608.844 127.605C608.443 128.264 607.927 128.88 607.297 129.453C606.667 130.026 605.908 130.499 605.02 130.871C604.132 131.243 603.1 131.43 601.926 131.43C600.422 131.43 599.076 131.129 597.887 130.527C596.698 129.926 595.76 129.102 595.072 128.057C594.385 127.011 594.041 125.822 594.041 124.49C594.041 123.258 594.27 122.17 594.729 121.225C595.187 120.279 595.867 119.484 596.77 118.84C597.672 118.181 598.789 117.687 600.121 117.357C601.467 117.014 603.007 116.842 604.74 116.842H608.564ZM629.598 107.754V111.836H616.277V107.754H629.598ZM619.844 102.039H625.537V124.297C625.537 124.984 625.63 125.514 625.816 125.887C626.003 126.259 626.282 126.51 626.654 126.639C627.027 126.768 627.471 126.832 627.986 126.832C628.359 126.832 628.702 126.811 629.018 126.768C629.333 126.725 629.598 126.682 629.812 126.639L629.834 130.893C629.361 131.05 628.824 131.179 628.223 131.279C627.635 131.38 626.969 131.43 626.225 131.43C624.95 131.43 623.833 131.215 622.873 130.785C621.913 130.341 621.169 129.632 620.639 128.658C620.109 127.67 619.844 126.367 619.844 124.748V102.039ZM639.395 107.754V131H633.701V107.754H639.395ZM633.314 101.674C633.314 100.829 633.601 100.127 634.174 99.5684C634.761 99.0098 635.549 98.7305 636.537 98.7305C637.525 98.7305 638.306 99.0098 638.879 99.5684C639.466 100.127 639.76 100.829 639.76 101.674C639.76 102.505 639.466 103.199 638.879 103.758C638.306 104.316 637.525 104.596 636.537 104.596C635.549 104.596 634.761 104.316 634.174 103.758C633.601 103.199 633.314 102.505 633.314 101.674ZM643.799 119.613V119.162C643.799 117.458 644.042 115.889 644.529 114.457C645.016 113.01 645.725 111.757 646.656 110.697C647.587 109.637 648.726 108.814 650.072 108.227C651.419 107.625 652.951 107.324 654.67 107.324C656.417 107.324 657.964 107.625 659.311 108.227C660.671 108.814 661.817 109.637 662.748 110.697C663.679 111.757 664.388 113.01 664.875 114.457C665.362 115.889 665.605 117.458 665.605 119.162V119.613C665.605 121.303 665.362 122.872 664.875 124.318C664.388 125.751 663.679 127.004 662.748 128.078C661.817 129.138 660.678 129.962 659.332 130.549C657.986 131.136 656.446 131.43 654.713 131.43C652.994 131.43 651.454 131.136 650.094 130.549C648.733 129.962 647.587 129.138 646.656 128.078C645.725 127.004 645.016 125.751 644.529 124.318C644.042 122.872 643.799 121.303 643.799 119.613ZM649.471 119.162V119.613C649.471 120.63 649.571 121.583 649.771 122.471C649.972 123.359 650.28 124.139 650.695 124.812C651.111 125.486 651.648 126.016 652.307 126.402C652.98 126.775 653.782 126.961 654.713 126.961C655.63 126.961 656.417 126.775 657.076 126.402C657.735 126.016 658.272 125.486 658.688 124.812C659.117 124.139 659.432 123.359 659.633 122.471C659.833 121.583 659.934 120.63 659.934 119.613V119.162C659.934 118.16 659.833 117.221 659.633 116.348C659.432 115.46 659.117 114.679 658.688 114.006C658.272 113.318 657.728 112.781 657.055 112.395C656.396 111.993 655.601 111.793 654.67 111.793C653.753 111.793 652.965 111.993 652.307 112.395C651.648 112.781 651.111 113.318 650.695 114.006C650.28 114.679 649.972 115.46 649.771 116.348C649.571 117.221 649.471 118.16 649.471 119.162ZM675.295 112.717V131H669.623V107.754H674.951L675.295 112.717ZM674.393 118.539H672.717C672.731 116.849 672.96 115.316 673.404 113.941C673.848 112.566 674.471 111.385 675.273 110.396C676.09 109.408 677.057 108.649 678.174 108.119C679.291 107.589 680.537 107.324 681.912 107.324C683.029 107.324 684.039 107.482 684.941 107.797C685.844 108.112 686.617 108.613 687.262 109.301C687.921 109.988 688.422 110.891 688.766 112.008C689.124 113.111 689.303 114.471 689.303 116.09V131H683.588V116.047C683.588 114.987 683.43 114.149 683.115 113.533C682.814 112.917 682.37 112.48 681.783 112.223C681.21 111.965 680.501 111.836 679.656 111.836C678.783 111.836 678.016 112.015 677.357 112.373C676.713 112.717 676.169 113.197 675.725 113.812C675.295 114.428 674.965 115.137 674.736 115.939C674.507 116.742 674.393 117.608 674.393 118.539ZM704.256 119.613V119.162C704.256 117.458 704.499 115.889 704.986 114.457C705.473 113.01 706.182 111.757 707.113 110.697C708.044 109.637 709.183 108.814 710.529 108.227C711.876 107.625 713.408 107.324 715.127 107.324C716.874 107.324 718.421 107.625 719.768 108.227C721.128 108.814 722.274 109.637 723.205 110.697C724.136 111.757 724.845 113.01 725.332 114.457C725.819 115.889 726.062 117.458 726.062 119.162V119.613C726.062 121.303 725.819 122.872 725.332 124.318C724.845 125.751 724.136 127.004 723.205 128.078C722.274 129.138 721.135 129.962 719.789 130.549C718.443 131.136 716.903 131.43 715.17 131.43C713.451 131.43 711.911 131.136 710.551 130.549C709.19 129.962 708.044 129.138 707.113 128.078C706.182 127.004 705.473 125.751 704.986 124.318C704.499 122.872 704.256 121.303 704.256 119.613ZM709.928 119.162V119.613C709.928 120.63 710.028 121.583 710.229 122.471C710.429 123.359 710.737 124.139 711.152 124.812C711.568 125.486 712.105 126.016 712.764 126.402C713.437 126.775 714.239 126.961 715.17 126.961C716.087 126.961 716.874 126.775 717.533 126.402C718.192 126.016 718.729 125.486 719.145 124.812C719.574 124.139 719.889 123.359 720.09 122.471C720.29 121.583 720.391 120.63 720.391 119.613V119.162C720.391 118.16 720.29 117.221 720.09 116.348C719.889 115.46 719.574 114.679 719.145 114.006C718.729 113.318 718.185 112.781 717.512 112.395C716.853 111.993 716.058 111.793 715.127 111.793C714.21 111.793 713.423 111.993 712.764 112.395C712.105 112.781 711.568 113.318 711.152 114.006C710.737 114.679 710.429 115.46 710.229 116.348C710.028 117.221 709.928 118.16 709.928 119.162ZM737.621 131H731.906V105.605C731.906 103.858 732.243 102.39 732.916 101.201C733.589 99.998 734.549 99.0885 735.795 98.4727C737.041 97.8568 738.509 97.5488 740.199 97.5488C740.758 97.5488 741.288 97.5846 741.789 97.6562C742.305 97.7279 742.813 97.8281 743.314 97.957L743.207 102.275C742.935 102.204 742.634 102.154 742.305 102.125C741.99 102.096 741.639 102.082 741.252 102.082C740.479 102.082 739.82 102.218 739.275 102.49C738.731 102.762 738.316 103.163 738.029 103.693C737.757 104.209 737.621 104.846 737.621 105.605V131ZM742.326 107.754V111.836H728.404V107.754H742.326ZM412.842 151.719H417.955L426.506 175.266L435.035 151.719H440.17L428.547 183H424.443L412.842 151.719ZM410.264 151.719H415.27L416.172 173.354V183H410.264V151.719ZM437.721 151.719H442.748V183H436.84V173.354L437.721 151.719ZM461.139 178.059V167.338C461.139 166.55 461.003 165.87 460.73 165.297C460.458 164.724 460.043 164.28 459.484 163.965C458.926 163.65 458.217 163.492 457.357 163.492C456.598 163.492 455.932 163.621 455.359 163.879C454.801 164.137 454.371 164.502 454.07 164.975C453.77 165.433 453.619 165.963 453.619 166.564H447.926C447.926 165.605 448.155 164.695 448.613 163.836C449.072 162.962 449.723 162.189 450.568 161.516C451.428 160.828 452.452 160.291 453.641 159.904C454.844 159.518 456.19 159.324 457.68 159.324C459.441 159.324 461.01 159.625 462.385 160.227C463.774 160.814 464.863 161.702 465.65 162.891C466.452 164.079 466.854 165.576 466.854 167.381V177.521C466.854 178.682 466.925 179.677 467.068 180.508C467.226 181.324 467.455 182.033 467.756 182.635V183H461.977C461.704 182.413 461.497 181.668 461.354 180.766C461.21 179.849 461.139 178.947 461.139 178.059ZM461.934 168.842L461.977 172.215H458.389C457.501 172.215 456.72 172.308 456.047 172.494C455.374 172.666 454.822 172.924 454.393 173.268C453.963 173.597 453.641 173.998 453.426 174.471C453.211 174.929 453.104 175.452 453.104 176.039C453.104 176.612 453.232 177.128 453.49 177.586C453.762 178.044 454.149 178.41 454.65 178.682C455.166 178.939 455.768 179.068 456.455 179.068C457.458 179.068 458.331 178.868 459.076 178.467C459.821 178.051 460.401 177.55 460.816 176.963C461.232 176.376 461.454 175.817 461.482 175.287L463.115 177.736C462.915 178.324 462.614 178.947 462.213 179.605C461.812 180.264 461.296 180.88 460.666 181.453C460.036 182.026 459.277 182.499 458.389 182.871C457.501 183.243 456.469 183.43 455.295 183.43C453.791 183.43 452.445 183.129 451.256 182.527C450.067 181.926 449.129 181.102 448.441 180.057C447.754 179.011 447.41 177.822 447.41 176.49C447.41 175.258 447.639 174.17 448.098 173.225C448.556 172.279 449.236 171.484 450.139 170.84C451.041 170.181 452.158 169.687 453.49 169.357C454.837 169.014 456.376 168.842 458.109 168.842H461.934ZM477.531 164.717V183H471.859V159.754H477.188L477.531 164.717ZM476.629 170.539H474.953C474.967 168.849 475.197 167.316 475.641 165.941C476.085 164.566 476.708 163.385 477.51 162.396C478.326 161.408 479.293 160.649 480.41 160.119C481.527 159.589 482.773 159.324 484.148 159.324C485.266 159.324 486.275 159.482 487.178 159.797C488.08 160.112 488.854 160.613 489.498 161.301C490.157 161.988 490.658 162.891 491.002 164.008C491.36 165.111 491.539 166.471 491.539 168.09V183H485.824V168.047C485.824 166.987 485.667 166.149 485.352 165.533C485.051 164.917 484.607 164.48 484.02 164.223C483.447 163.965 482.738 163.836 481.893 163.836C481.019 163.836 480.253 164.015 479.594 164.373C478.949 164.717 478.405 165.197 477.961 165.812C477.531 166.428 477.202 167.137 476.973 167.939C476.743 168.742 476.629 169.608 476.629 170.539ZM510.381 177.479V159.754H516.096V183H510.725L510.381 177.479ZM511.111 172.666L512.873 172.623C512.873 174.184 512.701 175.624 512.357 176.941C512.014 178.259 511.477 179.405 510.746 180.379C510.03 181.339 509.12 182.09 508.018 182.635C506.915 183.165 505.611 183.43 504.107 183.43C502.962 183.43 501.916 183.272 500.971 182.957C500.025 182.628 499.209 182.119 498.521 181.432C497.848 180.73 497.326 179.835 496.953 178.746C496.581 177.643 496.395 176.318 496.395 174.771V159.754H502.066V174.814C502.066 175.588 502.152 176.232 502.324 176.748C502.51 177.264 502.761 177.686 503.076 178.016C503.406 178.331 503.785 178.56 504.215 178.703C504.659 178.832 505.132 178.896 505.633 178.896C507.008 178.896 508.089 178.624 508.877 178.08C509.679 177.521 510.252 176.777 510.596 175.846C510.939 174.9 511.111 173.84 511.111 172.666ZM528.557 183H522.842V157.605C522.842 155.858 523.178 154.39 523.852 153.201C524.525 151.998 525.484 151.089 526.73 150.473C527.977 149.857 529.445 149.549 531.135 149.549C531.693 149.549 532.223 149.585 532.725 149.656C533.24 149.728 533.749 149.828 534.25 149.957L534.143 154.275C533.87 154.204 533.57 154.154 533.24 154.125C532.925 154.096 532.574 154.082 532.188 154.082C531.414 154.082 530.755 154.218 530.211 154.49C529.667 154.762 529.251 155.163 528.965 155.693C528.693 156.209 528.557 156.846 528.557 157.605V183ZM533.262 159.754V163.836H519.34V159.754H533.262ZM549.568 178.059V167.338C549.568 166.55 549.432 165.87 549.16 165.297C548.888 164.724 548.473 164.28 547.914 163.965C547.355 163.65 546.646 163.492 545.787 163.492C545.028 163.492 544.362 163.621 543.789 163.879C543.23 164.137 542.801 164.502 542.5 164.975C542.199 165.433 542.049 165.963 542.049 166.564H536.355C536.355 165.605 536.585 164.695 537.043 163.836C537.501 162.962 538.153 162.189 538.998 161.516C539.857 160.828 540.882 160.291 542.07 159.904C543.273 159.518 544.62 159.324 546.109 159.324C547.871 159.324 549.439 159.625 550.814 160.227C552.204 160.814 553.292 161.702 554.08 162.891C554.882 164.079 555.283 165.576 555.283 167.381V177.521C555.283 178.682 555.355 179.677 555.498 180.508C555.656 181.324 555.885 182.033 556.186 182.635V183H550.406C550.134 182.413 549.926 181.668 549.783 180.766C549.64 179.849 549.568 178.947 549.568 178.059ZM550.363 168.842L550.406 172.215H546.818C545.93 172.215 545.15 172.308 544.477 172.494C543.803 172.666 543.252 172.924 542.822 173.268C542.393 173.597 542.07 173.998 541.855 174.471C541.641 174.929 541.533 175.452 541.533 176.039C541.533 176.612 541.662 177.128 541.92 177.586C542.192 178.044 542.579 178.41 543.08 178.682C543.596 178.939 544.197 179.068 544.885 179.068C545.887 179.068 546.761 178.868 547.506 178.467C548.251 178.051 548.831 177.55 549.246 176.963C549.661 176.376 549.883 175.817 549.912 175.287L551.545 177.736C551.344 178.324 551.044 178.947 550.643 179.605C550.242 180.264 549.726 180.88 549.096 181.453C548.465 182.026 547.706 182.499 546.818 182.871C545.93 183.243 544.899 183.43 543.725 183.43C542.221 183.43 540.874 183.129 539.686 182.527C538.497 181.926 537.559 181.102 536.871 180.057C536.184 179.011 535.84 177.822 535.84 176.49C535.84 175.258 536.069 174.17 536.527 173.225C536.986 172.279 537.666 171.484 538.568 170.84C539.471 170.181 540.588 169.687 541.92 169.357C543.266 169.014 544.806 168.842 546.539 168.842H550.363ZM569.936 178.961C570.738 178.961 571.454 178.803 572.084 178.488C572.714 178.173 573.215 177.729 573.588 177.156C573.975 176.583 574.182 175.917 574.211 175.158H579.561C579.532 176.734 579.088 178.145 578.229 179.391C577.369 180.637 576.223 181.625 574.791 182.355C573.373 183.072 571.783 183.43 570.021 183.43C568.231 183.43 566.67 183.129 565.338 182.527C564.006 181.926 562.896 181.088 562.008 180.014C561.134 178.939 560.475 177.693 560.031 176.275C559.602 174.857 559.387 173.339 559.387 171.721V171.033C559.387 169.415 559.602 167.896 560.031 166.479C560.475 165.061 561.134 163.814 562.008 162.74C562.896 161.666 564.006 160.828 565.338 160.227C566.67 159.625 568.224 159.324 570 159.324C571.876 159.324 573.523 159.689 574.941 160.42C576.374 161.15 577.491 162.182 578.293 163.514C579.109 164.846 579.532 166.414 579.561 168.219H574.211C574.182 167.388 573.996 166.643 573.652 165.984C573.309 165.326 572.822 164.796 572.191 164.395C571.561 163.993 570.795 163.793 569.893 163.793C568.933 163.793 568.131 163.993 567.486 164.395C566.856 164.796 566.362 165.347 566.004 166.049C565.66 166.736 565.417 167.51 565.273 168.369C565.145 169.214 565.08 170.102 565.08 171.033V171.721C565.08 172.666 565.145 173.568 565.273 174.428C565.417 175.287 565.66 176.061 566.004 176.748C566.362 177.421 566.856 177.958 567.486 178.359C568.131 178.76 568.947 178.961 569.936 178.961ZM594.342 159.754V163.836H581.021V159.754H594.342ZM584.588 154.039H590.281V176.297C590.281 176.984 590.374 177.514 590.561 177.887C590.747 178.259 591.026 178.51 591.398 178.639C591.771 178.768 592.215 178.832 592.73 178.832C593.103 178.832 593.447 178.811 593.762 178.768C594.077 178.725 594.342 178.682 594.557 178.639L594.578 182.893C594.105 183.05 593.568 183.179 592.967 183.279C592.38 183.38 591.714 183.43 590.969 183.43C589.694 183.43 588.577 183.215 587.617 182.785C586.658 182.341 585.913 181.632 585.383 180.658C584.853 179.67 584.588 178.367 584.588 176.748V154.039ZM611.959 177.479V159.754H617.674V183H612.303L611.959 177.479ZM612.689 172.666L614.451 172.623C614.451 174.184 614.279 175.624 613.936 176.941C613.592 178.259 613.055 179.405 612.324 180.379C611.608 181.339 610.699 182.09 609.596 182.635C608.493 183.165 607.189 183.43 605.686 183.43C604.54 183.43 603.494 183.272 602.549 182.957C601.604 182.628 600.787 182.119 600.1 181.432C599.426 180.73 598.904 179.835 598.531 178.746C598.159 177.643 597.973 176.318 597.973 174.771V159.754H603.645V174.814C603.645 175.588 603.73 176.232 603.902 176.748C604.089 177.264 604.339 177.686 604.654 178.016C604.984 178.331 605.363 178.56 605.793 178.703C606.237 178.832 606.71 178.896 607.211 178.896C608.586 178.896 609.667 178.624 610.455 178.08C611.257 177.521 611.83 176.777 612.174 175.846C612.518 174.9 612.689 173.84 612.689 172.666ZM628.373 164.502V183H622.701V159.754H628.072L628.373 164.502ZM635.441 159.604L635.355 164.889C635.04 164.831 634.682 164.788 634.281 164.76C633.895 164.731 633.529 164.717 633.186 164.717C632.312 164.717 631.546 164.839 630.887 165.082C630.228 165.311 629.676 165.648 629.232 166.092C628.803 166.536 628.473 167.08 628.244 167.725C628.015 168.355 627.886 169.071 627.857 169.873L626.633 169.723C626.633 168.247 626.783 166.88 627.084 165.619C627.385 164.359 627.822 163.256 628.395 162.311C628.967 161.365 629.684 160.635 630.543 160.119C631.417 159.589 632.419 159.324 633.551 159.324C633.866 159.324 634.202 159.353 634.561 159.41C634.933 159.453 635.227 159.518 635.441 159.604ZM644.572 159.754V183H638.879V159.754H644.572ZM638.492 153.674C638.492 152.829 638.779 152.127 639.352 151.568C639.939 151.01 640.727 150.73 641.715 150.73C642.703 150.73 643.484 151.01 644.057 151.568C644.644 152.127 644.938 152.829 644.938 153.674C644.938 154.505 644.644 155.199 644.057 155.758C643.484 156.316 642.703 156.596 641.715 156.596C640.727 156.596 639.939 156.316 639.352 155.758C638.779 155.199 638.492 154.505 638.492 153.674ZM655.551 164.717V183H649.879V159.754H655.207L655.551 164.717ZM654.648 170.539H652.973C652.987 168.849 653.216 167.316 653.66 165.941C654.104 164.566 654.727 163.385 655.529 162.396C656.346 161.408 657.312 160.649 658.43 160.119C659.547 159.589 660.793 159.324 662.168 159.324C663.285 159.324 664.295 159.482 665.197 159.797C666.1 160.112 666.873 160.613 667.518 161.301C668.176 161.988 668.678 162.891 669.021 164.008C669.38 165.111 669.559 166.471 669.559 168.09V183H663.844V168.047C663.844 166.987 663.686 166.149 663.371 165.533C663.07 164.917 662.626 164.48 662.039 164.223C661.466 163.965 660.757 163.836 659.912 163.836C659.038 163.836 658.272 164.015 657.613 164.373C656.969 164.717 656.424 165.197 655.98 165.812C655.551 166.428 655.221 167.137 654.992 167.939C654.763 168.742 654.648 169.608 654.648 170.539ZM689.346 159.754H694.502V182.291C694.502 184.396 694.044 186.18 693.127 187.641C692.225 189.116 690.957 190.233 689.324 190.992C687.691 191.766 685.794 192.152 683.631 192.152C682.7 192.152 681.69 192.023 680.602 191.766C679.527 191.508 678.489 191.1 677.486 190.541C676.498 189.997 675.674 189.288 675.016 188.414L677.572 185.062C678.346 185.965 679.219 186.645 680.193 187.104C681.167 187.576 682.22 187.812 683.352 187.812C684.497 187.812 685.471 187.598 686.273 187.168C687.09 186.753 687.713 186.137 688.143 185.32C688.587 184.518 688.809 183.53 688.809 182.355V165.061L689.346 159.754ZM673.641 171.656V171.205C673.641 169.429 673.855 167.818 674.285 166.371C674.715 164.91 675.331 163.657 676.133 162.611C676.949 161.566 677.93 160.757 679.076 160.184C680.236 159.611 681.54 159.324 682.986 159.324C684.519 159.324 685.808 159.604 686.854 160.162C687.913 160.721 688.787 161.516 689.475 162.547C690.176 163.578 690.721 164.803 691.107 166.221C691.508 167.624 691.816 169.171 692.031 170.861V172.086C691.831 173.733 691.508 175.244 691.064 176.619C690.635 177.994 690.062 179.197 689.346 180.229C688.63 181.245 687.742 182.033 686.682 182.592C685.622 183.15 684.376 183.43 682.943 183.43C681.511 183.43 680.222 183.136 679.076 182.549C677.93 181.962 676.949 181.138 676.133 180.078C675.331 179.018 674.715 177.772 674.285 176.34C673.855 174.908 673.641 173.346 673.641 171.656ZM679.312 171.205V171.656C679.312 172.659 679.413 173.597 679.613 174.471C679.814 175.344 680.122 176.118 680.537 176.791C680.952 177.45 681.475 177.965 682.105 178.338C682.736 178.71 683.488 178.896 684.361 178.896C685.536 178.896 686.495 178.653 687.24 178.166C687.999 177.665 688.572 176.984 688.959 176.125C689.36 175.251 689.618 174.27 689.732 173.182V169.809C689.661 168.949 689.503 168.154 689.26 167.424C689.031 166.693 688.708 166.063 688.293 165.533C687.878 165.003 687.348 164.588 686.703 164.287C686.059 163.986 685.292 163.836 684.404 163.836C683.545 163.836 682.793 164.029 682.148 164.416C681.504 164.788 680.974 165.311 680.559 165.984C680.143 166.658 679.828 167.438 679.613 168.326C679.413 169.214 679.312 170.174 679.312 171.205ZM728.404 151.719H734.312V172.494C734.312 174.886 733.797 176.898 732.766 178.531C731.734 180.15 730.331 181.374 728.555 182.205C726.779 183.021 724.759 183.43 722.496 183.43C720.204 183.43 718.163 183.021 716.373 182.205C714.583 181.374 713.179 180.15 712.162 178.531C711.145 176.898 710.637 174.886 710.637 172.494V151.719H716.545V172.494C716.545 173.955 716.788 175.151 717.275 176.082C717.762 176.999 718.45 177.679 719.338 178.123C720.226 178.567 721.279 178.789 722.496 178.789C723.728 178.789 724.781 178.567 725.654 178.123C726.542 177.679 727.223 176.999 727.695 176.082C728.168 175.151 728.404 173.955 728.404 172.494V151.719ZM745.055 164.717V183H739.383V159.754H744.711L745.055 164.717ZM744.152 170.539H742.477C742.491 168.849 742.72 167.316 743.164 165.941C743.608 164.566 744.231 163.385 745.033 162.396C745.85 161.408 746.816 160.649 747.934 160.119C749.051 159.589 750.297 159.324 751.672 159.324C752.789 159.324 753.799 159.482 754.701 159.797C755.604 160.112 756.377 160.613 757.021 161.301C757.68 161.988 758.182 162.891 758.525 164.008C758.883 165.111 759.062 166.471 759.062 168.09V183H753.348V168.047C753.348 166.987 753.19 166.149 752.875 165.533C752.574 164.917 752.13 164.48 751.543 164.223C750.97 163.965 750.261 163.836 749.416 163.836C748.542 163.836 747.776 164.015 747.117 164.373C746.473 164.717 745.928 165.197 745.484 165.812C745.055 166.428 744.725 167.137 744.496 167.939C744.267 168.742 744.152 169.608 744.152 170.539ZM770.084 159.754V183H764.391V159.754H770.084ZM764.004 153.674C764.004 152.829 764.29 152.127 764.863 151.568C765.451 151.01 766.238 150.73 767.227 150.73C768.215 150.73 768.995 151.01 769.568 151.568C770.156 152.127 770.449 152.829 770.449 153.674C770.449 154.505 770.156 155.199 769.568 155.758C768.995 156.316 768.215 156.596 767.227 156.596C766.238 156.596 765.451 156.316 764.863 155.758C764.29 155.199 764.004 154.505 764.004 153.674ZM786.498 159.754V163.836H773.178V159.754H786.498ZM776.744 154.039H782.438V176.297C782.438 176.984 782.531 177.514 782.717 177.887C782.903 178.259 783.182 178.51 783.555 178.639C783.927 178.768 784.371 178.832 784.887 178.832C785.259 178.832 785.603 178.811 785.918 178.768C786.233 178.725 786.498 178.682 786.713 178.639L786.734 182.893C786.262 183.05 785.725 183.179 785.123 183.279C784.536 183.38 783.87 183.43 783.125 183.43C781.85 183.43 780.733 183.215 779.773 182.785C778.814 182.341 778.069 181.632 777.539 180.658C777.009 179.67 776.744 178.367 776.744 176.748V154.039Z" fill="white"/>
<path d="M50.0703 148.367V236.668L107.68 285.467L167.631 236.668V148.367H50.0703Z" fill="#1C4670"/>
<path d="M98.8242 174.469C94.4688 174.469 91.0996 173.248 88.7168 170.807C86.3535 168.365 85.1719 164.85 85.1719 160.26V136.998C85.1719 132.154 86.2949 128.443 88.541 125.865C90.8066 123.268 94.2344 121.969 98.8242 121.969C103.434 121.969 106.861 123.268 109.107 125.865C111.354 128.443 112.477 132.154 112.477 136.998V160.26C112.477 164.85 111.295 168.365 108.932 170.807C106.568 173.248 103.199 174.469 98.8242 174.469ZM98.8242 164.977C99.625 164.977 100.25 164.615 100.699 163.893C101.148 163.17 101.373 162.359 101.373 161.461V136.002C101.373 134.791 101.236 133.736 100.963 132.838C100.709 131.92 99.9961 131.461 98.8242 131.461C97.6523 131.461 96.9297 131.92 96.6562 132.838C96.4023 133.736 96.2754 134.791 96.2754 136.002V161.461C96.2754 162.359 96.5 163.17 96.9492 163.893C97.418 164.615 98.043 164.977 98.8242 164.977ZM120.768 174V134.273C120.064 135.113 119.098 135.797 117.867 136.324C116.637 136.832 115.475 137.086 114.381 137.086V128.854C115.416 128.697 116.529 128.365 117.721 127.857C118.912 127.33 120.016 126.617 121.031 125.719C122.066 124.801 122.857 123.697 123.404 122.408H131.695V174H120.768Z" fill="white"/>
<circle cx="109.5" cy="149.5" r="65.5" stroke="white" stroke-width="8"/>
<g filter="url(#filter1_d_42_5004)">
<path d="M970.375 334.644C962.57 326.819 953.296 320.614 943.086 316.385C932.876 312.156 921.931 309.986 910.879 310H223.037H112.498C111.263 310 110.06 310 108.825 310C89.3395 309.985 70.3909 316.382 54.9024 328.205C39.4139 340.028 28.2465 356.619 23.1231 375.419C17.9997 394.218 19.2052 414.181 26.5534 432.228C33.9017 450.274 46.9844 465.401 63.783 475.274C80.5815 485.147 100.162 489.218 119.504 486.859C138.846 484.499 156.874 475.84 170.806 462.218C184.738 448.596 193.8 430.767 196.595 411.484C199.389 392.2 195.759 372.532 186.267 355.516C185.297 353.884 184.777 352.024 184.759 350.125C184.74 348.227 185.225 346.357 186.162 344.707C187.1 343.056 188.458 341.682 190.098 340.726C191.738 339.769 193.601 339.264 195.5 339.26H196.15C198.19 339.258 200.19 339.834 201.916 340.922C203.642 342.009 205.025 343.564 205.904 345.405C213.212 360.734 217.301 377.399 217.916 394.37C218.531 411.342 215.66 428.259 209.48 444.077C207.975 447.893 207.425 452.019 207.879 456.095C208.333 460.172 209.777 464.076 212.085 467.467C214.393 470.859 217.495 473.634 221.12 475.553C224.746 477.471 228.786 478.474 232.888 478.474H910.879C927.514 478.477 943.776 473.546 957.609 464.307C971.442 455.067 982.224 441.933 988.593 426.566C994.961 411.198 996.629 394.287 993.386 377.972C990.144 361.656 982.136 346.668 970.375 334.904V334.644Z" fill="#FFA229"/>
</g>
<path d="M435.562 351.719H446.928C449.305 351.719 451.346 352.077 453.051 352.793C454.755 353.509 456.066 354.569 456.982 355.973C457.899 357.376 458.357 359.102 458.357 361.15C458.357 362.769 458.071 364.173 457.498 365.361C456.925 366.55 456.116 367.546 455.07 368.348C454.039 369.15 452.822 369.78 451.418 370.238L449.57 371.184H439.537L439.494 366.521H446.992C448.21 366.521 449.219 366.307 450.021 365.877C450.824 365.447 451.425 364.853 451.826 364.094C452.242 363.335 452.449 362.468 452.449 361.494C452.449 360.449 452.249 359.546 451.848 358.787C451.447 358.014 450.838 357.419 450.021 357.004C449.205 356.589 448.174 356.381 446.928 356.381H441.471V383H435.562V351.719ZM453.223 383L445.982 368.992L452.234 368.971L459.561 382.699V383H453.223ZM473.547 383.43C471.785 383.43 470.202 383.143 468.799 382.57C467.395 381.997 466.199 381.202 465.211 380.186C464.237 379.154 463.485 377.958 462.955 376.598C462.439 375.223 462.182 373.747 462.182 372.172V371.312C462.182 369.522 462.439 367.896 462.955 366.436C463.471 364.96 464.201 363.693 465.146 362.633C466.092 361.573 467.223 360.757 468.541 360.184C469.859 359.611 471.312 359.324 472.902 359.324C474.549 359.324 476.003 359.604 477.264 360.162C478.524 360.706 479.577 361.48 480.422 362.482C481.267 363.485 481.904 364.688 482.334 366.092C482.764 367.481 482.979 369.021 482.979 370.711V373.096H464.76V369.186H477.393V368.756C477.364 367.854 477.192 367.03 476.877 366.285C476.562 365.526 476.075 364.924 475.416 364.48C474.757 364.022 473.905 363.793 472.859 363.793C472.014 363.793 471.277 363.979 470.646 364.352C470.031 364.71 469.515 365.225 469.1 365.898C468.699 366.557 468.398 367.345 468.197 368.262C467.997 369.178 467.896 370.195 467.896 371.312V372.172C467.896 373.146 468.025 374.048 468.283 374.879C468.555 375.71 468.949 376.433 469.465 377.049C469.995 377.65 470.625 378.123 471.355 378.467C472.1 378.796 472.945 378.961 473.891 378.961C475.079 378.961 476.154 378.732 477.113 378.273C478.087 377.801 478.932 377.106 479.648 376.189L482.506 379.154C482.019 379.87 481.36 380.558 480.529 381.217C479.713 381.876 478.725 382.413 477.564 382.828C476.404 383.229 475.065 383.43 473.547 383.43ZM501.562 359.754H506.719V382.291C506.719 384.396 506.26 386.18 505.344 387.641C504.441 389.116 503.174 390.233 501.541 390.992C499.908 391.766 498.01 392.152 495.848 392.152C494.917 392.152 493.907 392.023 492.818 391.766C491.744 391.508 490.706 391.1 489.703 390.541C488.715 389.997 487.891 389.288 487.232 388.414L489.789 385.062C490.562 385.965 491.436 386.645 492.41 387.104C493.384 387.576 494.437 387.812 495.568 387.812C496.714 387.812 497.688 387.598 498.49 387.168C499.307 386.753 499.93 386.137 500.359 385.32C500.803 384.518 501.025 383.53 501.025 382.355V365.061L501.562 359.754ZM485.857 371.656V371.205C485.857 369.429 486.072 367.818 486.502 366.371C486.932 364.91 487.548 363.657 488.35 362.611C489.166 361.566 490.147 360.757 491.293 360.184C492.453 359.611 493.757 359.324 495.203 359.324C496.736 359.324 498.025 359.604 499.07 360.162C500.13 360.721 501.004 361.516 501.691 362.547C502.393 363.578 502.938 364.803 503.324 366.221C503.725 367.624 504.033 369.171 504.248 370.861V372.086C504.048 373.733 503.725 375.244 503.281 376.619C502.852 377.994 502.279 379.197 501.562 380.229C500.846 381.245 499.958 382.033 498.898 382.592C497.839 383.15 496.592 383.43 495.16 383.43C493.728 383.43 492.439 383.136 491.293 382.549C490.147 381.962 489.166 381.138 488.35 380.078C487.548 379.018 486.932 377.772 486.502 376.34C486.072 374.908 485.857 373.346 485.857 371.656ZM491.529 371.205V371.656C491.529 372.659 491.63 373.597 491.83 374.471C492.031 375.344 492.339 376.118 492.754 376.791C493.169 377.45 493.692 377.965 494.322 378.338C494.952 378.71 495.704 378.896 496.578 378.896C497.753 378.896 498.712 378.653 499.457 378.166C500.216 377.665 500.789 376.984 501.176 376.125C501.577 375.251 501.835 374.27 501.949 373.182V369.809C501.878 368.949 501.72 368.154 501.477 367.424C501.247 366.693 500.925 366.063 500.51 365.533C500.094 365.003 499.564 364.588 498.92 364.287C498.275 363.986 497.509 363.836 496.621 363.836C495.762 363.836 495.01 364.029 494.365 364.416C493.721 364.788 493.191 365.311 492.775 365.984C492.36 366.658 492.045 367.438 491.83 368.326C491.63 369.214 491.529 370.174 491.529 371.205ZM517.848 359.754V383H512.154V359.754H517.848ZM511.768 353.674C511.768 352.829 512.054 352.127 512.627 351.568C513.214 351.01 514.002 350.73 514.99 350.73C515.979 350.73 516.759 351.01 517.332 351.568C517.919 352.127 518.213 352.829 518.213 353.674C518.213 354.505 517.919 355.199 517.332 355.758C516.759 356.316 515.979 356.596 514.99 356.596C514.002 356.596 513.214 356.316 512.627 355.758C512.054 355.199 511.768 354.505 511.768 353.674ZM536.045 376.641C536.045 376.154 535.916 375.717 535.658 375.33C535.4 374.943 534.913 374.592 534.197 374.277C533.495 373.948 532.464 373.64 531.104 373.354C529.9 373.096 528.79 372.773 527.773 372.387C526.757 372 525.883 371.535 525.152 370.99C524.422 370.432 523.849 369.78 523.434 369.035C523.033 368.276 522.832 367.402 522.832 366.414C522.832 365.454 523.04 364.552 523.455 363.707C523.87 362.848 524.472 362.096 525.26 361.451C526.048 360.792 527.007 360.277 528.139 359.904C529.27 359.518 530.545 359.324 531.963 359.324C533.939 359.324 535.637 359.646 537.055 360.291C538.487 360.936 539.583 361.824 540.342 362.955C541.101 364.072 541.48 365.333 541.48 366.736H535.809C535.809 366.12 535.665 365.562 535.379 365.061C535.107 364.559 534.684 364.158 534.111 363.857C533.538 363.542 532.815 363.385 531.941 363.385C531.154 363.385 530.488 363.514 529.943 363.771C529.413 364.029 529.012 364.366 528.74 364.781C528.468 365.197 528.332 365.655 528.332 366.156C528.332 366.529 528.404 366.865 528.547 367.166C528.704 367.452 528.955 367.717 529.299 367.961C529.643 368.204 530.108 368.426 530.695 368.627C531.297 368.827 532.035 369.021 532.908 369.207C534.641 369.551 536.152 370.009 537.441 370.582C538.745 371.141 539.762 371.885 540.492 372.816C541.223 373.747 541.588 374.936 541.588 376.383C541.588 377.414 541.366 378.359 540.922 379.219C540.478 380.064 539.833 380.801 538.988 381.432C538.143 382.062 537.133 382.556 535.959 382.914C534.785 383.258 533.46 383.43 531.984 383.43C529.85 383.43 528.046 383.05 526.57 382.291C525.095 381.518 523.978 380.544 523.219 379.369C522.46 378.18 522.08 376.949 522.08 375.674H527.516C527.559 376.576 527.802 377.299 528.246 377.844C528.69 378.388 529.249 378.782 529.922 379.025C530.609 379.255 531.333 379.369 532.092 379.369C532.951 379.369 533.674 379.255 534.262 379.025C534.849 378.782 535.293 378.46 535.594 378.059C535.895 377.643 536.045 377.171 536.045 376.641ZM556.906 359.754V363.836H543.586V359.754H556.906ZM547.152 354.039H552.846V376.297C552.846 376.984 552.939 377.514 553.125 377.887C553.311 378.259 553.59 378.51 553.963 378.639C554.335 378.768 554.779 378.832 555.295 378.832C555.667 378.832 556.011 378.811 556.326 378.768C556.641 378.725 556.906 378.682 557.121 378.639L557.143 382.893C556.67 383.05 556.133 383.179 555.531 383.279C554.944 383.38 554.278 383.43 553.533 383.43C552.258 383.43 551.141 383.215 550.182 382.785C549.222 382.341 548.477 381.632 547.947 380.658C547.417 379.67 547.152 378.367 547.152 376.748V354.039ZM566.359 364.502V383H560.688V359.754H566.059L566.359 364.502ZM573.428 359.604L573.342 364.889C573.027 364.831 572.669 364.788 572.268 364.76C571.881 364.731 571.516 364.717 571.172 364.717C570.298 364.717 569.532 364.839 568.873 365.082C568.214 365.311 567.663 365.648 567.219 366.092C566.789 366.536 566.46 367.08 566.23 367.725C566.001 368.355 565.872 369.071 565.844 369.873L564.619 369.723C564.619 368.247 564.77 366.88 565.07 365.619C565.371 364.359 565.808 363.256 566.381 362.311C566.954 361.365 567.67 360.635 568.529 360.119C569.403 359.589 570.406 359.324 571.537 359.324C571.852 359.324 572.189 359.353 572.547 359.41C572.919 359.453 573.213 359.518 573.428 359.604ZM588.617 378.059V367.338C588.617 366.55 588.481 365.87 588.209 365.297C587.937 364.724 587.521 364.28 586.963 363.965C586.404 363.65 585.695 363.492 584.836 363.492C584.077 363.492 583.411 363.621 582.838 363.879C582.279 364.137 581.85 364.502 581.549 364.975C581.248 365.433 581.098 365.963 581.098 366.564H575.404C575.404 365.605 575.633 364.695 576.092 363.836C576.55 362.962 577.202 362.189 578.047 361.516C578.906 360.828 579.93 360.291 581.119 359.904C582.322 359.518 583.669 359.324 585.158 359.324C586.92 359.324 588.488 359.625 589.863 360.227C591.253 360.814 592.341 361.702 593.129 362.891C593.931 364.079 594.332 365.576 594.332 367.381V377.521C594.332 378.682 594.404 379.677 594.547 380.508C594.704 381.324 594.934 382.033 595.234 382.635V383H589.455C589.183 382.413 588.975 381.668 588.832 380.766C588.689 379.849 588.617 378.947 588.617 378.059ZM589.412 368.842L589.455 372.215H585.867C584.979 372.215 584.199 372.308 583.525 372.494C582.852 372.666 582.301 372.924 581.871 373.268C581.441 373.597 581.119 373.998 580.904 374.471C580.689 374.929 580.582 375.452 580.582 376.039C580.582 376.612 580.711 377.128 580.969 377.586C581.241 378.044 581.628 378.41 582.129 378.682C582.645 378.939 583.246 379.068 583.934 379.068C584.936 379.068 585.81 378.868 586.555 378.467C587.299 378.051 587.88 377.55 588.295 376.963C588.71 376.376 588.932 375.817 588.961 375.287L590.594 377.736C590.393 378.324 590.092 378.947 589.691 379.605C589.29 380.264 588.775 380.88 588.145 381.453C587.514 382.026 586.755 382.499 585.867 382.871C584.979 383.243 583.948 383.43 582.773 383.43C581.27 383.43 579.923 383.129 578.734 382.527C577.546 381.926 576.607 381.102 575.92 380.057C575.232 379.011 574.889 377.822 574.889 376.49C574.889 375.258 575.118 374.17 575.576 373.225C576.035 372.279 576.715 371.484 577.617 370.84C578.52 370.181 579.637 369.687 580.969 369.357C582.315 369.014 583.855 368.842 585.588 368.842H589.412ZM610.445 359.754V363.836H597.125V359.754H610.445ZM600.691 354.039H606.385V376.297C606.385 376.984 606.478 377.514 606.664 377.887C606.85 378.259 607.13 378.51 607.502 378.639C607.874 378.768 608.318 378.832 608.834 378.832C609.206 378.832 609.55 378.811 609.865 378.768C610.18 378.725 610.445 378.682 610.66 378.639L610.682 382.893C610.209 383.05 609.672 383.179 609.07 383.279C608.483 383.38 607.817 383.43 607.072 383.43C605.798 383.43 604.68 383.215 603.721 382.785C602.761 382.341 602.016 381.632 601.486 380.658C600.956 379.67 600.691 378.367 600.691 376.748V354.039ZM620.242 359.754V383H614.549V359.754H620.242ZM614.162 353.674C614.162 352.829 614.449 352.127 615.021 351.568C615.609 351.01 616.396 350.73 617.385 350.73C618.373 350.73 619.154 351.01 619.727 351.568C620.314 352.127 620.607 352.829 620.607 353.674C620.607 354.505 620.314 355.199 619.727 355.758C619.154 356.316 618.373 356.596 617.385 356.596C616.396 356.596 615.609 356.316 615.021 355.758C614.449 355.199 614.162 354.505 614.162 353.674ZM624.646 371.613V371.162C624.646 369.458 624.89 367.889 625.377 366.457C625.864 365.01 626.573 363.757 627.504 362.697C628.435 361.637 629.574 360.814 630.92 360.227C632.266 359.625 633.799 359.324 635.518 359.324C637.265 359.324 638.812 359.625 640.158 360.227C641.519 360.814 642.665 361.637 643.596 362.697C644.527 363.757 645.236 365.01 645.723 366.457C646.21 367.889 646.453 369.458 646.453 371.162V371.613C646.453 373.303 646.21 374.872 645.723 376.318C645.236 377.751 644.527 379.004 643.596 380.078C642.665 381.138 641.526 381.962 640.18 382.549C638.833 383.136 637.294 383.43 635.561 383.43C633.842 383.43 632.302 383.136 630.941 382.549C629.581 381.962 628.435 381.138 627.504 380.078C626.573 379.004 625.864 377.751 625.377 376.318C624.89 374.872 624.646 373.303 624.646 371.613ZM630.318 371.162V371.613C630.318 372.63 630.419 373.583 630.619 374.471C630.82 375.359 631.128 376.139 631.543 376.812C631.958 377.486 632.495 378.016 633.154 378.402C633.827 378.775 634.63 378.961 635.561 378.961C636.477 378.961 637.265 378.775 637.924 378.402C638.583 378.016 639.12 377.486 639.535 376.812C639.965 376.139 640.28 375.359 640.48 374.471C640.681 373.583 640.781 372.63 640.781 371.613V371.162C640.781 370.16 640.681 369.221 640.48 368.348C640.28 367.46 639.965 366.679 639.535 366.006C639.12 365.318 638.576 364.781 637.902 364.395C637.243 363.993 636.449 363.793 635.518 363.793C634.601 363.793 633.813 363.993 633.154 364.395C632.495 364.781 631.958 365.318 631.543 366.006C631.128 366.679 630.82 367.46 630.619 368.348C630.419 369.221 630.318 370.16 630.318 371.162ZM656.143 364.717V383H650.471V359.754H655.799L656.143 364.717ZM655.24 370.539H653.564C653.579 368.849 653.808 367.316 654.252 365.941C654.696 364.566 655.319 363.385 656.121 362.396C656.938 361.408 657.904 360.649 659.021 360.119C660.139 359.589 661.385 359.324 662.76 359.324C663.877 359.324 664.887 359.482 665.789 359.797C666.691 360.112 667.465 360.613 668.109 361.301C668.768 361.988 669.27 362.891 669.613 364.008C669.971 365.111 670.15 366.471 670.15 368.09V383H664.436V368.047C664.436 366.987 664.278 366.149 663.963 365.533C663.662 364.917 663.218 364.48 662.631 364.223C662.058 363.965 661.349 363.836 660.504 363.836C659.63 363.836 658.864 364.015 658.205 364.373C657.561 364.717 657.016 365.197 656.572 365.812C656.143 366.428 655.813 367.137 655.584 367.939C655.355 368.742 655.24 369.608 655.24 370.539ZM698.918 378.059V367.338C698.918 366.55 698.782 365.87 698.51 365.297C698.238 364.724 697.822 364.28 697.264 363.965C696.705 363.65 695.996 363.492 695.137 363.492C694.378 363.492 693.712 363.621 693.139 363.879C692.58 364.137 692.15 364.502 691.85 364.975C691.549 365.433 691.398 365.963 691.398 366.564H685.705C685.705 365.605 685.934 364.695 686.393 363.836C686.851 362.962 687.503 362.189 688.348 361.516C689.207 360.828 690.231 360.291 691.42 359.904C692.623 359.518 693.969 359.324 695.459 359.324C697.221 359.324 698.789 359.625 700.164 360.227C701.553 360.814 702.642 361.702 703.43 362.891C704.232 364.079 704.633 365.576 704.633 367.381V377.521C704.633 378.682 704.704 379.677 704.848 380.508C705.005 381.324 705.234 382.033 705.535 382.635V383H699.756C699.484 382.413 699.276 381.668 699.133 380.766C698.99 379.849 698.918 378.947 698.918 378.059ZM699.713 368.842L699.756 372.215H696.168C695.28 372.215 694.499 372.308 693.826 372.494C693.153 372.666 692.602 372.924 692.172 373.268C691.742 373.597 691.42 373.998 691.205 374.471C690.99 374.929 690.883 375.452 690.883 376.039C690.883 376.612 691.012 377.128 691.27 377.586C691.542 378.044 691.928 378.41 692.43 378.682C692.945 378.939 693.547 379.068 694.234 379.068C695.237 379.068 696.111 378.868 696.855 378.467C697.6 378.051 698.18 377.55 698.596 376.963C699.011 376.376 699.233 375.817 699.262 375.287L700.895 377.736C700.694 378.324 700.393 378.947 699.992 379.605C699.591 380.264 699.076 380.88 698.445 381.453C697.815 382.026 697.056 382.499 696.168 382.871C695.28 383.243 694.249 383.43 693.074 383.43C691.57 383.43 690.224 383.129 689.035 382.527C687.846 381.926 686.908 381.102 686.221 380.057C685.533 379.011 685.189 377.822 685.189 376.49C685.189 375.258 685.419 374.17 685.877 373.225C686.335 372.279 687.016 371.484 687.918 370.84C688.82 370.181 689.938 369.687 691.27 369.357C692.616 369.014 694.156 368.842 695.889 368.842H699.713ZM722.529 376.641C722.529 376.154 722.4 375.717 722.143 375.33C721.885 374.943 721.398 374.592 720.682 374.277C719.98 373.948 718.949 373.64 717.588 373.354C716.385 373.096 715.275 372.773 714.258 372.387C713.241 372 712.367 371.535 711.637 370.99C710.906 370.432 710.333 369.78 709.918 369.035C709.517 368.276 709.316 367.402 709.316 366.414C709.316 365.454 709.524 364.552 709.939 363.707C710.355 362.848 710.956 362.096 711.744 361.451C712.532 360.792 713.492 360.277 714.623 359.904C715.755 359.518 717.029 359.324 718.447 359.324C720.424 359.324 722.121 359.646 723.539 360.291C724.971 360.936 726.067 361.824 726.826 362.955C727.585 364.072 727.965 365.333 727.965 366.736H722.293C722.293 366.12 722.15 365.562 721.863 365.061C721.591 364.559 721.169 364.158 720.596 363.857C720.023 363.542 719.299 363.385 718.426 363.385C717.638 363.385 716.972 363.514 716.428 363.771C715.898 364.029 715.497 364.366 715.225 364.781C714.952 365.197 714.816 365.655 714.816 366.156C714.816 366.529 714.888 366.865 715.031 367.166C715.189 367.452 715.439 367.717 715.783 367.961C716.127 368.204 716.592 368.426 717.18 368.627C717.781 368.827 718.519 369.021 719.393 369.207C721.126 369.551 722.637 370.009 723.926 370.582C725.229 371.141 726.246 371.885 726.977 372.816C727.707 373.747 728.072 374.936 728.072 376.383C728.072 377.414 727.85 378.359 727.406 379.219C726.962 380.064 726.318 380.801 725.473 381.432C724.628 382.062 723.618 382.556 722.443 382.914C721.269 383.258 719.944 383.43 718.469 383.43C716.335 383.43 714.53 383.05 713.055 382.291C711.579 381.518 710.462 380.544 709.703 379.369C708.944 378.18 708.564 376.949 708.564 375.674H714C714.043 376.576 714.286 377.299 714.73 377.844C715.174 378.388 715.733 378.782 716.406 379.025C717.094 379.255 717.817 379.369 718.576 379.369C719.436 379.369 720.159 379.255 720.746 379.025C721.333 378.782 721.777 378.46 722.078 378.059C722.379 377.643 722.529 377.171 722.529 376.641ZM756.152 378.059V367.338C756.152 366.55 756.016 365.87 755.744 365.297C755.472 364.724 755.057 364.28 754.498 363.965C753.939 363.65 753.23 363.492 752.371 363.492C751.612 363.492 750.946 363.621 750.373 363.879C749.814 364.137 749.385 364.502 749.084 364.975C748.783 365.433 748.633 365.963 748.633 366.564H742.939C742.939 365.605 743.169 364.695 743.627 363.836C744.085 362.962 744.737 362.189 745.582 361.516C746.441 360.828 747.465 360.291 748.654 359.904C749.857 359.518 751.204 359.324 752.693 359.324C754.455 359.324 756.023 359.625 757.398 360.227C758.788 360.814 759.876 361.702 760.664 362.891C761.466 364.079 761.867 365.576 761.867 367.381V377.521C761.867 378.682 761.939 379.677 762.082 380.508C762.24 381.324 762.469 382.033 762.77 382.635V383H756.99C756.718 382.413 756.51 381.668 756.367 380.766C756.224 379.849 756.152 378.947 756.152 378.059ZM756.947 368.842L756.99 372.215H753.402C752.514 372.215 751.734 372.308 751.061 372.494C750.387 372.666 749.836 372.924 749.406 373.268C748.977 373.597 748.654 373.998 748.439 374.471C748.225 374.929 748.117 375.452 748.117 376.039C748.117 376.612 748.246 377.128 748.504 377.586C748.776 378.044 749.163 378.41 749.664 378.682C750.18 378.939 750.781 379.068 751.469 379.068C752.471 379.068 753.345 378.868 754.09 378.467C754.835 378.051 755.415 377.55 755.83 376.963C756.245 376.376 756.467 375.817 756.496 375.287L758.129 377.736C757.928 378.324 757.628 378.947 757.227 379.605C756.826 380.264 756.31 380.88 755.68 381.453C755.049 382.026 754.29 382.499 753.402 382.871C752.514 383.243 751.483 383.43 750.309 383.43C748.805 383.43 747.458 383.129 746.27 382.527C745.081 381.926 744.143 381.102 743.455 380.057C742.768 379.011 742.424 377.822 742.424 376.49C742.424 375.258 742.653 374.17 743.111 373.225C743.57 372.279 744.25 371.484 745.152 370.84C746.055 370.181 747.172 369.687 748.504 369.357C749.85 369.014 751.39 368.842 753.123 368.842H756.947ZM556.67 421.057H548.678L548.635 416.889H555.488C556.663 416.889 557.644 416.724 558.432 416.395C559.219 416.065 559.814 415.585 560.215 414.955C560.63 414.325 560.838 413.559 560.838 412.656C560.838 411.654 560.645 410.837 560.258 410.207C559.885 409.577 559.298 409.118 558.496 408.832C557.694 408.531 556.677 408.381 555.445 408.381H550.59V435H544.682V403.719H555.445C557.221 403.719 558.804 403.891 560.193 404.234C561.597 404.564 562.786 405.079 563.76 405.781C564.734 406.483 565.471 407.364 565.973 408.424C566.488 409.484 566.746 410.744 566.746 412.205C566.746 413.494 566.445 414.683 565.844 415.771C565.257 416.846 564.347 417.719 563.115 418.393C561.898 419.066 560.351 419.452 558.475 419.553L556.67 421.057ZM556.412 435H546.938L549.408 430.359H556.412C557.587 430.359 558.553 430.166 559.312 429.779C560.086 429.393 560.659 428.863 561.031 428.189C561.418 427.502 561.611 426.714 561.611 425.826C561.611 424.852 561.439 424.007 561.096 423.291C560.766 422.575 560.236 422.023 559.506 421.637C558.79 421.25 557.844 421.057 556.67 421.057H550.525L550.568 416.889H558.389L559.742 418.5C561.547 418.514 563.015 418.872 564.146 419.574C565.292 420.276 566.137 421.178 566.682 422.281C567.226 423.384 567.498 424.573 567.498 425.848C567.498 427.853 567.061 429.536 566.188 430.896C565.328 432.257 564.068 433.281 562.406 433.969C560.759 434.656 558.761 435 556.412 435ZM586.018 429.479V411.754H591.732V435H586.361L586.018 429.479ZM586.748 424.666L588.51 424.623C588.51 426.184 588.338 427.624 587.994 428.941C587.65 430.259 587.113 431.405 586.383 432.379C585.667 433.339 584.757 434.09 583.654 434.635C582.551 435.165 581.248 435.43 579.744 435.43C578.598 435.43 577.553 435.272 576.607 434.957C575.662 434.628 574.846 434.119 574.158 433.432C573.485 432.73 572.962 431.835 572.59 430.746C572.217 429.643 572.031 428.318 572.031 426.771V411.754H577.703V426.814C577.703 427.588 577.789 428.232 577.961 428.748C578.147 429.264 578.398 429.686 578.713 430.016C579.042 430.331 579.422 430.56 579.852 430.703C580.296 430.832 580.768 430.896 581.27 430.896C582.645 430.896 583.726 430.624 584.514 430.08C585.316 429.521 585.889 428.777 586.232 427.846C586.576 426.9 586.748 425.84 586.748 424.666ZM603.57 432.422L609.801 411.754H615.881L606.557 438.523C606.342 439.096 606.062 439.719 605.719 440.393C605.389 441.066 604.945 441.703 604.387 442.305C603.828 442.921 603.126 443.422 602.281 443.809C601.451 444.195 600.441 444.389 599.252 444.389C598.736 444.389 598.278 444.353 597.877 444.281C597.476 444.21 597.053 444.117 596.609 444.002V439.748C596.753 439.762 596.917 439.77 597.104 439.77C597.304 439.784 597.476 439.791 597.619 439.791C598.45 439.791 599.137 439.691 599.682 439.49C600.226 439.304 600.663 438.996 600.992 438.566C601.336 438.151 601.622 437.607 601.852 436.934L603.57 432.422ZM600.498 411.754L605.762 428.877L606.686 434.871L602.775 435.58L594.375 411.754H600.498ZM628.771 435.43C627.01 435.43 625.427 435.143 624.023 434.57C622.62 433.997 621.424 433.202 620.436 432.186C619.462 431.154 618.71 429.958 618.18 428.598C617.664 427.223 617.406 425.747 617.406 424.172V423.312C617.406 421.522 617.664 419.896 618.18 418.436C618.695 416.96 619.426 415.693 620.371 414.633C621.316 413.573 622.448 412.757 623.766 412.184C625.083 411.611 626.537 411.324 628.127 411.324C629.774 411.324 631.228 411.604 632.488 412.162C633.749 412.706 634.801 413.48 635.646 414.482C636.492 415.485 637.129 416.688 637.559 418.092C637.988 419.481 638.203 421.021 638.203 422.711V425.096H619.984V421.186H632.617V420.756C632.589 419.854 632.417 419.03 632.102 418.285C631.786 417.526 631.299 416.924 630.641 416.48C629.982 416.022 629.13 415.793 628.084 415.793C627.239 415.793 626.501 415.979 625.871 416.352C625.255 416.71 624.74 417.225 624.324 417.898C623.923 418.557 623.622 419.345 623.422 420.262C623.221 421.178 623.121 422.195 623.121 423.312V424.172C623.121 425.146 623.25 426.048 623.508 426.879C623.78 427.71 624.174 428.433 624.689 429.049C625.219 429.65 625.85 430.123 626.58 430.467C627.325 430.796 628.17 430.961 629.115 430.961C630.304 430.961 631.378 430.732 632.338 430.273C633.312 429.801 634.157 429.106 634.873 428.189L637.73 431.154C637.243 431.87 636.585 432.558 635.754 433.217C634.938 433.876 633.949 434.413 632.789 434.828C631.629 435.229 630.29 435.43 628.771 435.43ZM647.678 416.502V435H642.006V411.754H647.377L647.678 416.502ZM654.746 411.604L654.66 416.889C654.345 416.831 653.987 416.788 653.586 416.76C653.199 416.731 652.834 416.717 652.49 416.717C651.617 416.717 650.85 416.839 650.191 417.082C649.533 417.311 648.981 417.648 648.537 418.092C648.107 418.536 647.778 419.08 647.549 419.725C647.32 420.355 647.191 421.071 647.162 421.873L645.938 421.723C645.938 420.247 646.088 418.88 646.389 417.619C646.689 416.359 647.126 415.256 647.699 414.311C648.272 413.365 648.988 412.635 649.848 412.119C650.721 411.589 651.724 411.324 652.855 411.324C653.171 411.324 653.507 411.353 653.865 411.41C654.238 411.453 654.531 411.518 654.746 411.604Z" fill="white"/>
<path d="M50.0703 400.281V488.582L107.68 537.382L167.631 488.582V400.281H50.0703Z" fill="#FFA229"/>
<path d="M93.8242 426.469C89.4688 426.469 86.0996 425.248 83.7168 422.807C81.3535 420.365 80.1719 416.85 80.1719 412.26V388.998C80.1719 384.154 81.2949 380.443 83.541 377.865C85.8066 375.268 89.2344 373.969 93.8242 373.969C98.4336 373.969 101.861 375.268 104.107 377.865C106.354 380.443 107.477 384.154 107.477 388.998V412.26C107.477 416.85 106.295 420.365 103.932 422.807C101.568 425.248 98.1992 426.469 93.8242 426.469ZM93.8242 416.977C94.625 416.977 95.25 416.615 95.6992 415.893C96.1484 415.17 96.373 414.359 96.373 413.461V388.002C96.373 386.791 96.2363 385.736 95.9629 384.838C95.709 383.92 94.9961 383.461 93.8242 383.461C92.6523 383.461 91.9297 383.92 91.6562 384.838C91.4023 385.736 91.2754 386.791 91.2754 388.002V413.461C91.2754 414.359 91.5 415.17 91.9492 415.893C92.418 416.615 93.043 416.977 93.8242 416.977ZM110.465 426V423.539C110.465 420.98 110.855 418.686 111.637 416.654C112.438 414.604 113.463 412.709 114.713 410.971C115.963 409.213 117.281 407.494 118.668 405.814C120.016 404.174 121.295 402.494 122.506 400.775C123.736 399.037 124.732 397.162 125.494 395.15C126.275 393.119 126.666 390.844 126.666 388.324C126.666 387.113 126.48 386.078 126.109 385.219C125.758 384.34 125.016 383.9 123.883 383.9C122.164 383.9 121.305 385.434 121.305 388.5V394.799H110.465C110.445 394.35 110.416 393.842 110.377 393.275C110.357 392.709 110.348 392.162 110.348 391.635C110.348 387.924 110.738 384.779 111.52 382.201C112.301 379.604 113.678 377.631 115.65 376.283C117.643 374.916 120.436 374.232 124.029 374.232C128.307 374.232 131.627 375.434 133.99 377.836C136.373 380.238 137.564 383.666 137.564 388.119C137.564 391.146 137.174 393.803 136.393 396.088C135.611 398.354 134.576 400.424 133.287 402.299C131.998 404.154 130.582 406.01 129.039 407.865C127.945 409.174 126.881 410.512 125.846 411.879C124.83 413.246 123.932 414.711 123.15 416.273H137.213V426H110.465Z" fill="white"/>
<circle cx="109.5" cy="401.5" r="65.5" stroke="white" stroke-width="8"/>
<g filter="url(#filter2_d_42_5004)">
<path d="M970.375 592.644C962.575 584.813 953.302 578.604 943.09 574.375C932.879 570.145 921.932 567.979 910.879 568H223.037H112.498C111.263 568 110.06 568 108.825 568C89.3395 567.985 70.3909 574.382 54.9024 586.205C39.4139 598.028 28.2465 614.619 23.1231 633.419C17.9997 652.218 19.2052 672.181 26.5534 690.228C33.9017 708.274 46.9844 723.401 63.783 733.274C80.5815 743.148 100.162 747.218 119.504 744.859C138.846 742.499 156.874 733.84 170.806 720.218C184.738 706.596 193.8 688.767 196.595 669.484C199.389 650.2 195.759 630.532 186.267 613.516C185.297 611.884 184.777 610.024 184.759 608.125C184.74 606.227 185.225 604.358 186.162 602.707C187.1 601.056 188.458 599.683 190.098 598.726C191.738 597.77 193.601 597.264 195.5 597.26H196.15C198.188 597.251 200.186 597.821 201.913 598.903C203.639 599.985 205.023 601.535 205.904 603.373C213.212 618.702 217.301 635.367 217.916 652.338C218.531 669.309 215.66 686.226 209.48 702.044C207.976 705.862 207.428 709.989 207.882 714.068C208.336 718.146 209.78 722.051 212.087 725.444C214.394 728.837 217.495 731.616 221.12 733.538C224.745 735.46 228.785 736.468 232.888 736.474H910.879C927.514 736.477 943.776 731.547 957.609 722.307C971.442 713.067 982.224 699.933 988.593 684.566C994.961 669.198 996.629 652.287 993.386 635.972C990.144 619.656 982.136 604.668 970.375 592.904V592.644Z" fill="#1C4670"/>
</g>
<path d="M408.922 640.719V672H403.014V640.719H408.922ZM421.533 654.232V658.895H407.375V654.232H421.533ZM423.188 640.719V645.381H407.375V640.719H423.188ZM432.791 639V672H427.098V639H432.791ZM451.01 667.059V656.338C451.01 655.55 450.874 654.87 450.602 654.297C450.329 653.724 449.914 653.28 449.355 652.965C448.797 652.65 448.088 652.492 447.229 652.492C446.469 652.492 445.803 652.621 445.23 652.879C444.672 653.137 444.242 653.502 443.941 653.975C443.641 654.433 443.49 654.963 443.49 655.564H437.797C437.797 654.605 438.026 653.695 438.484 652.836C438.943 651.962 439.594 651.189 440.439 650.516C441.299 649.828 442.323 649.291 443.512 648.904C444.715 648.518 446.061 648.324 447.551 648.324C449.312 648.324 450.881 648.625 452.256 649.227C453.645 649.814 454.734 650.702 455.521 651.891C456.324 653.079 456.725 654.576 456.725 656.381V666.521C456.725 667.682 456.796 668.677 456.939 669.508C457.097 670.324 457.326 671.033 457.627 671.635V672H451.848C451.576 671.413 451.368 670.668 451.225 669.766C451.081 668.849 451.01 667.947 451.01 667.059ZM451.805 657.842L451.848 661.215H448.26C447.372 661.215 446.591 661.308 445.918 661.494C445.245 661.666 444.693 661.924 444.264 662.268C443.834 662.597 443.512 662.998 443.297 663.471C443.082 663.929 442.975 664.452 442.975 665.039C442.975 665.612 443.104 666.128 443.361 666.586C443.633 667.044 444.02 667.41 444.521 667.682C445.037 667.939 445.639 668.068 446.326 668.068C447.329 668.068 448.202 667.868 448.947 667.467C449.692 667.051 450.272 666.55 450.688 665.963C451.103 665.376 451.325 664.817 451.354 664.287L452.986 666.736C452.786 667.324 452.485 667.947 452.084 668.605C451.683 669.264 451.167 669.88 450.537 670.453C449.907 671.026 449.148 671.499 448.26 671.871C447.372 672.243 446.34 672.43 445.166 672.43C443.662 672.43 442.316 672.129 441.127 671.527C439.938 670.926 439 670.102 438.312 669.057C437.625 668.011 437.281 666.822 437.281 665.49C437.281 664.258 437.51 663.17 437.969 662.225C438.427 661.279 439.107 660.484 440.01 659.84C440.912 659.181 442.029 658.687 443.361 658.357C444.708 658.014 446.247 657.842 447.98 657.842H451.805ZM469.207 667.703L474.621 648.754H480.551L472.58 672H468.971L469.207 667.703ZM465.254 648.754L470.732 667.746L470.926 672H467.295L459.303 648.754H465.254ZM482.184 660.613V660.162C482.184 658.458 482.427 656.889 482.914 655.457C483.401 654.01 484.11 652.757 485.041 651.697C485.972 650.637 487.111 649.814 488.457 649.227C489.803 648.625 491.336 648.324 493.055 648.324C494.802 648.324 496.349 648.625 497.695 649.227C499.056 649.814 500.202 650.637 501.133 651.697C502.064 652.757 502.773 654.01 503.26 655.457C503.747 656.889 503.99 658.458 503.99 660.162V660.613C503.99 662.303 503.747 663.872 503.26 665.318C502.773 666.751 502.064 668.004 501.133 669.078C500.202 670.138 499.063 670.962 497.717 671.549C496.37 672.136 494.831 672.43 493.098 672.43C491.379 672.43 489.839 672.136 488.479 671.549C487.118 670.962 485.972 670.138 485.041 669.078C484.11 668.004 483.401 666.751 482.914 665.318C482.427 663.872 482.184 662.303 482.184 660.613ZM487.855 660.162V660.613C487.855 661.63 487.956 662.583 488.156 663.471C488.357 664.359 488.665 665.139 489.08 665.812C489.495 666.486 490.033 667.016 490.691 667.402C491.365 667.775 492.167 667.961 493.098 667.961C494.014 667.961 494.802 667.775 495.461 667.402C496.12 667.016 496.657 666.486 497.072 665.812C497.502 665.139 497.817 664.359 498.018 663.471C498.218 662.583 498.318 661.63 498.318 660.613V660.162C498.318 659.16 498.218 658.221 498.018 657.348C497.817 656.46 497.502 655.679 497.072 655.006C496.657 654.318 496.113 653.781 495.439 653.395C494.781 652.993 493.986 652.793 493.055 652.793C492.138 652.793 491.35 652.993 490.691 653.395C490.033 653.781 489.495 654.318 489.08 655.006C488.665 655.679 488.357 656.46 488.156 657.348C487.956 658.221 487.855 659.16 487.855 660.162ZM521.951 666.479V648.754H527.666V672H522.295L521.951 666.479ZM522.682 661.666L524.443 661.623C524.443 663.184 524.271 664.624 523.928 665.941C523.584 667.259 523.047 668.405 522.316 669.379C521.6 670.339 520.691 671.09 519.588 671.635C518.485 672.165 517.182 672.43 515.678 672.43C514.532 672.43 513.486 672.272 512.541 671.957C511.596 671.628 510.779 671.119 510.092 670.432C509.419 669.73 508.896 668.835 508.523 667.746C508.151 666.643 507.965 665.318 507.965 663.771V648.754H513.637V663.814C513.637 664.588 513.723 665.232 513.895 665.748C514.081 666.264 514.331 666.686 514.646 667.016C514.976 667.331 515.355 667.56 515.785 667.703C516.229 667.832 516.702 667.896 517.203 667.896C518.578 667.896 519.66 667.624 520.447 667.08C521.249 666.521 521.822 665.777 522.166 664.846C522.51 663.9 522.682 662.84 522.682 661.666ZM538.365 653.502V672H532.693V648.754H538.064L538.365 653.502ZM545.434 648.604L545.348 653.889C545.033 653.831 544.674 653.788 544.273 653.76C543.887 653.731 543.521 653.717 543.178 653.717C542.304 653.717 541.538 653.839 540.879 654.082C540.22 654.311 539.669 654.648 539.225 655.092C538.795 655.536 538.465 656.08 538.236 656.725C538.007 657.355 537.878 658.071 537.85 658.873L536.625 658.723C536.625 657.247 536.775 655.88 537.076 654.619C537.377 653.359 537.814 652.256 538.387 651.311C538.96 650.365 539.676 649.635 540.535 649.119C541.409 648.589 542.411 648.324 543.543 648.324C543.858 648.324 544.195 648.353 544.553 648.41C544.925 648.453 545.219 648.518 545.434 648.604ZM559.936 640.719H571.301C573.678 640.719 575.719 641.077 577.424 641.793C579.128 642.509 580.439 643.569 581.355 644.973C582.272 646.376 582.73 648.102 582.73 650.15C582.73 651.769 582.444 653.173 581.871 654.361C581.298 655.55 580.489 656.546 579.443 657.348C578.412 658.15 577.195 658.78 575.791 659.238L573.943 660.184H563.91L563.867 655.521H571.365C572.583 655.521 573.592 655.307 574.395 654.877C575.197 654.447 575.798 653.853 576.199 653.094C576.615 652.335 576.822 651.468 576.822 650.494C576.822 649.449 576.622 648.546 576.221 647.787C575.82 647.014 575.211 646.419 574.395 646.004C573.578 645.589 572.547 645.381 571.301 645.381H565.844V672H559.936V640.719ZM577.596 672L570.355 657.992L576.607 657.971L583.934 671.699V672H577.596ZM597.92 672.43C596.158 672.43 594.576 672.143 593.172 671.57C591.768 670.997 590.572 670.202 589.584 669.186C588.61 668.154 587.858 666.958 587.328 665.598C586.812 664.223 586.555 662.747 586.555 661.172V660.312C586.555 658.522 586.812 656.896 587.328 655.436C587.844 653.96 588.574 652.693 589.52 651.633C590.465 650.573 591.596 649.757 592.914 649.184C594.232 648.611 595.686 648.324 597.275 648.324C598.923 648.324 600.376 648.604 601.637 649.162C602.897 649.706 603.95 650.48 604.795 651.482C605.64 652.485 606.277 653.688 606.707 655.092C607.137 656.481 607.352 658.021 607.352 659.711V662.096H589.133V658.186H601.766V657.756C601.737 656.854 601.565 656.03 601.25 655.285C600.935 654.526 600.448 653.924 599.789 653.48C599.13 653.022 598.278 652.793 597.232 652.793C596.387 652.793 595.65 652.979 595.02 653.352C594.404 653.71 593.888 654.225 593.473 654.898C593.072 655.557 592.771 656.345 592.57 657.262C592.37 658.178 592.27 659.195 592.27 660.312V661.172C592.27 662.146 592.398 663.048 592.656 663.879C592.928 664.71 593.322 665.433 593.838 666.049C594.368 666.65 594.998 667.123 595.729 667.467C596.473 667.796 597.318 667.961 598.264 667.961C599.452 667.961 600.527 667.732 601.486 667.273C602.46 666.801 603.305 666.106 604.021 665.189L606.879 668.154C606.392 668.87 605.733 669.558 604.902 670.217C604.086 670.876 603.098 671.413 601.938 671.828C600.777 672.229 599.438 672.43 597.92 672.43ZM625.936 648.754H631.092V671.291C631.092 673.396 630.633 675.18 629.717 676.641C628.814 678.116 627.547 679.233 625.914 679.992C624.281 680.766 622.383 681.152 620.221 681.152C619.29 681.152 618.28 681.023 617.191 680.766C616.117 680.508 615.079 680.1 614.076 679.541C613.088 678.997 612.264 678.288 611.605 677.414L614.162 674.062C614.936 674.965 615.809 675.645 616.783 676.104C617.757 676.576 618.81 676.812 619.941 676.812C621.087 676.812 622.061 676.598 622.863 676.168C623.68 675.753 624.303 675.137 624.732 674.32C625.176 673.518 625.398 672.53 625.398 671.355V654.061L625.936 648.754ZM610.23 660.656V660.205C610.23 658.429 610.445 656.818 610.875 655.371C611.305 653.91 611.921 652.657 612.723 651.611C613.539 650.566 614.52 649.757 615.666 649.184C616.826 648.611 618.13 648.324 619.576 648.324C621.109 648.324 622.398 648.604 623.443 649.162C624.503 649.721 625.377 650.516 626.064 651.547C626.766 652.578 627.311 653.803 627.697 655.221C628.098 656.624 628.406 658.171 628.621 659.861V661.086C628.421 662.733 628.098 664.244 627.654 665.619C627.225 666.994 626.652 668.197 625.936 669.229C625.219 670.245 624.331 671.033 623.271 671.592C622.212 672.15 620.965 672.43 619.533 672.43C618.101 672.43 616.812 672.136 615.666 671.549C614.52 670.962 613.539 670.138 612.723 669.078C611.921 668.018 611.305 666.772 610.875 665.34C610.445 663.908 610.23 662.346 610.23 660.656ZM615.902 660.205V660.656C615.902 661.659 616.003 662.597 616.203 663.471C616.404 664.344 616.712 665.118 617.127 665.791C617.542 666.45 618.065 666.965 618.695 667.338C619.326 667.71 620.077 667.896 620.951 667.896C622.126 667.896 623.085 667.653 623.83 667.166C624.589 666.665 625.162 665.984 625.549 665.125C625.95 664.251 626.208 663.27 626.322 662.182V658.809C626.251 657.949 626.093 657.154 625.85 656.424C625.62 655.693 625.298 655.063 624.883 654.533C624.467 654.003 623.938 653.588 623.293 653.287C622.648 652.986 621.882 652.836 620.994 652.836C620.135 652.836 619.383 653.029 618.738 653.416C618.094 653.788 617.564 654.311 617.148 654.984C616.733 655.658 616.418 656.438 616.203 657.326C616.003 658.214 615.902 659.174 615.902 660.205ZM642.221 648.754V672H636.527V648.754H642.221ZM636.141 642.674C636.141 641.829 636.427 641.127 637 640.568C637.587 640.01 638.375 639.73 639.363 639.73C640.352 639.73 641.132 640.01 641.705 640.568C642.292 641.127 642.586 641.829 642.586 642.674C642.586 643.505 642.292 644.199 641.705 644.758C641.132 645.316 640.352 645.596 639.363 645.596C638.375 645.596 637.587 645.316 637 644.758C636.427 644.199 636.141 643.505 636.141 642.674ZM660.418 665.641C660.418 665.154 660.289 664.717 660.031 664.33C659.773 663.943 659.286 663.592 658.57 663.277C657.868 662.948 656.837 662.64 655.477 662.354C654.273 662.096 653.163 661.773 652.146 661.387C651.13 661 650.256 660.535 649.525 659.99C648.795 659.432 648.222 658.78 647.807 658.035C647.406 657.276 647.205 656.402 647.205 655.414C647.205 654.454 647.413 653.552 647.828 652.707C648.243 651.848 648.845 651.096 649.633 650.451C650.421 649.792 651.38 649.277 652.512 648.904C653.643 648.518 654.918 648.324 656.336 648.324C658.312 648.324 660.01 648.646 661.428 649.291C662.86 649.936 663.956 650.824 664.715 651.955C665.474 653.072 665.854 654.333 665.854 655.736H660.182C660.182 655.12 660.038 654.562 659.752 654.061C659.48 653.559 659.057 653.158 658.484 652.857C657.911 652.542 657.188 652.385 656.314 652.385C655.527 652.385 654.861 652.514 654.316 652.771C653.786 653.029 653.385 653.366 653.113 653.781C652.841 654.197 652.705 654.655 652.705 655.156C652.705 655.529 652.777 655.865 652.92 656.166C653.077 656.452 653.328 656.717 653.672 656.961C654.016 657.204 654.481 657.426 655.068 657.627C655.67 657.827 656.408 658.021 657.281 658.207C659.014 658.551 660.525 659.009 661.814 659.582C663.118 660.141 664.135 660.885 664.865 661.816C665.596 662.747 665.961 663.936 665.961 665.383C665.961 666.414 665.739 667.359 665.295 668.219C664.851 669.064 664.206 669.801 663.361 670.432C662.516 671.062 661.507 671.556 660.332 671.914C659.158 672.258 657.833 672.43 656.357 672.43C654.223 672.43 652.419 672.05 650.943 671.291C649.468 670.518 648.351 669.544 647.592 668.369C646.833 667.18 646.453 665.949 646.453 664.674H651.889C651.932 665.576 652.175 666.299 652.619 666.844C653.063 667.388 653.622 667.782 654.295 668.025C654.982 668.255 655.706 668.369 656.465 668.369C657.324 668.369 658.048 668.255 658.635 668.025C659.222 667.782 659.666 667.46 659.967 667.059C660.268 666.643 660.418 666.171 660.418 665.641ZM681.279 648.754V652.836H667.959V648.754H681.279ZM671.525 643.039H677.219V665.297C677.219 665.984 677.312 666.514 677.498 666.887C677.684 667.259 677.964 667.51 678.336 667.639C678.708 667.768 679.152 667.832 679.668 667.832C680.04 667.832 680.384 667.811 680.699 667.768C681.014 667.725 681.279 667.682 681.494 667.639L681.516 671.893C681.043 672.05 680.506 672.179 679.904 672.279C679.317 672.38 678.651 672.43 677.906 672.43C676.632 672.43 675.514 672.215 674.555 671.785C673.595 671.341 672.85 670.632 672.32 669.658C671.79 668.67 671.525 667.367 671.525 665.748V643.039ZM690.732 653.502V672H685.061V648.754H690.432L690.732 653.502ZM697.801 648.604L697.715 653.889C697.4 653.831 697.042 653.788 696.641 653.76C696.254 653.731 695.889 653.717 695.545 653.717C694.671 653.717 693.905 653.839 693.246 654.082C692.587 654.311 692.036 654.648 691.592 655.092C691.162 655.536 690.833 656.08 690.604 656.725C690.374 657.355 690.245 658.071 690.217 658.873L688.992 658.723C688.992 657.247 689.143 655.88 689.443 654.619C689.744 653.359 690.181 652.256 690.754 651.311C691.327 650.365 692.043 649.635 692.902 649.119C693.776 648.589 694.779 648.324 695.91 648.324C696.225 648.324 696.562 648.353 696.92 648.41C697.292 648.453 697.586 648.518 697.801 648.604ZM712.99 667.059V656.338C712.99 655.55 712.854 654.87 712.582 654.297C712.31 653.724 711.895 653.28 711.336 652.965C710.777 652.65 710.068 652.492 709.209 652.492C708.45 652.492 707.784 652.621 707.211 652.879C706.652 653.137 706.223 653.502 705.922 653.975C705.621 654.433 705.471 654.963 705.471 655.564H699.777C699.777 654.605 700.007 653.695 700.465 652.836C700.923 651.962 701.575 651.189 702.42 650.516C703.279 649.828 704.303 649.291 705.492 648.904C706.695 648.518 708.042 648.324 709.531 648.324C711.293 648.324 712.861 648.625 714.236 649.227C715.626 649.814 716.714 650.702 717.502 651.891C718.304 653.079 718.705 654.576 718.705 656.381V666.521C718.705 667.682 718.777 668.677 718.92 669.508C719.077 670.324 719.307 671.033 719.607 671.635V672H713.828C713.556 671.413 713.348 670.668 713.205 669.766C713.062 668.849 712.99 667.947 712.99 667.059ZM713.785 657.842L713.828 661.215H710.24C709.352 661.215 708.572 661.308 707.898 661.494C707.225 661.666 706.674 661.924 706.244 662.268C705.814 662.597 705.492 662.998 705.277 663.471C705.062 663.929 704.955 664.452 704.955 665.039C704.955 665.612 705.084 666.128 705.342 666.586C705.614 667.044 706.001 667.41 706.502 667.682C707.018 667.939 707.619 668.068 708.307 668.068C709.309 668.068 710.183 667.868 710.928 667.467C711.673 667.051 712.253 666.55 712.668 665.963C713.083 665.376 713.305 664.817 713.334 664.287L714.967 666.736C714.766 667.324 714.465 667.947 714.064 668.605C713.663 669.264 713.148 669.88 712.518 670.453C711.887 671.026 711.128 671.499 710.24 671.871C709.352 672.243 708.321 672.43 707.146 672.43C705.643 672.43 704.296 672.129 703.107 671.527C701.919 670.926 700.98 670.102 700.293 669.057C699.605 668.011 699.262 666.822 699.262 665.49C699.262 664.258 699.491 663.17 699.949 662.225C700.408 661.279 701.088 660.484 701.99 659.84C702.893 659.181 704.01 658.687 705.342 658.357C706.688 658.014 708.228 657.842 709.961 657.842H713.785ZM734.818 648.754V652.836H721.498V648.754H734.818ZM725.064 643.039H730.758V665.297C730.758 665.984 730.851 666.514 731.037 666.887C731.223 667.259 731.503 667.51 731.875 667.639C732.247 667.768 732.691 667.832 733.207 667.832C733.579 667.832 733.923 667.811 734.238 667.768C734.553 667.725 734.818 667.682 735.033 667.639L735.055 671.893C734.582 672.05 734.045 672.179 733.443 672.279C732.856 672.38 732.19 672.43 731.445 672.43C730.171 672.43 729.053 672.215 728.094 671.785C727.134 671.341 726.389 670.632 725.859 669.658C725.329 668.67 725.064 667.367 725.064 665.748V643.039ZM744.615 648.754V672H738.922V648.754H744.615ZM738.535 642.674C738.535 641.829 738.822 641.127 739.395 640.568C739.982 640.01 740.77 639.73 741.758 639.73C742.746 639.73 743.527 640.01 744.1 640.568C744.687 641.127 744.98 641.829 744.98 642.674C744.98 643.505 744.687 644.199 744.1 644.758C743.527 645.316 742.746 645.596 741.758 645.596C740.77 645.596 739.982 645.316 739.395 644.758C738.822 644.199 738.535 643.505 738.535 642.674ZM749.02 660.613V660.162C749.02 658.458 749.263 656.889 749.75 655.457C750.237 654.01 750.946 652.757 751.877 651.697C752.808 650.637 753.947 649.814 755.293 649.227C756.639 648.625 758.172 648.324 759.891 648.324C761.638 648.324 763.185 648.625 764.531 649.227C765.892 649.814 767.038 650.637 767.969 651.697C768.9 652.757 769.609 654.01 770.096 655.457C770.583 656.889 770.826 658.458 770.826 660.162V660.613C770.826 662.303 770.583 663.872 770.096 665.318C769.609 666.751 768.9 668.004 767.969 669.078C767.038 670.138 765.899 670.962 764.553 671.549C763.206 672.136 761.667 672.43 759.934 672.43C758.215 672.43 756.675 672.136 755.314 671.549C753.954 670.962 752.808 670.138 751.877 669.078C750.946 668.004 750.237 666.751 749.75 665.318C749.263 663.872 749.02 662.303 749.02 660.613ZM754.691 660.162V660.613C754.691 661.63 754.792 662.583 754.992 663.471C755.193 664.359 755.501 665.139 755.916 665.812C756.331 666.486 756.868 667.016 757.527 667.402C758.201 667.775 759.003 667.961 759.934 667.961C760.85 667.961 761.638 667.775 762.297 667.402C762.956 667.016 763.493 666.486 763.908 665.812C764.338 665.139 764.653 664.359 764.854 663.471C765.054 662.583 765.154 661.63 765.154 660.613V660.162C765.154 659.16 765.054 658.221 764.854 657.348C764.653 656.46 764.338 655.679 763.908 655.006C763.493 654.318 762.949 653.781 762.275 653.395C761.617 652.993 760.822 652.793 759.891 652.793C758.974 652.793 758.186 652.993 757.527 653.395C756.868 653.781 756.331 654.318 755.916 655.006C755.501 655.679 755.193 656.46 754.992 657.348C754.792 658.221 754.691 659.16 754.691 660.162ZM780.516 653.717V672H774.844V648.754H780.172L780.516 653.717ZM779.613 659.539H777.938C777.952 657.849 778.181 656.316 778.625 654.941C779.069 653.566 779.692 652.385 780.494 651.396C781.311 650.408 782.277 649.649 783.395 649.119C784.512 648.589 785.758 648.324 787.133 648.324C788.25 648.324 789.26 648.482 790.162 648.797C791.064 649.112 791.838 649.613 792.482 650.301C793.141 650.988 793.643 651.891 793.986 653.008C794.344 654.111 794.523 655.471 794.523 657.09V672H788.809V657.047C788.809 655.987 788.651 655.149 788.336 654.533C788.035 653.917 787.591 653.48 787.004 653.223C786.431 652.965 785.722 652.836 784.877 652.836C784.003 652.836 783.237 653.015 782.578 653.373C781.934 653.717 781.389 654.197 780.945 654.812C780.516 655.428 780.186 656.137 779.957 656.939C779.728 657.742 779.613 658.608 779.613 659.539Z" fill="white"/>
<path d="M50.0703 658.125V746.426L107.68 795.225L167.631 746.426V658.125H50.0703Z" fill="#1C4670"/>
<path d="M93.8242 683.469C89.4688 683.469 86.0996 682.248 83.7168 679.807C81.3535 677.365 80.1719 673.85 80.1719 669.26V645.998C80.1719 641.154 81.2949 637.443 83.541 634.865C85.8066 632.268 89.2344 630.969 93.8242 630.969C98.4336 630.969 101.861 632.268 104.107 634.865C106.354 637.443 107.477 641.154 107.477 645.998V669.26C107.477 673.85 106.295 677.365 103.932 679.807C101.568 682.248 98.1992 683.469 93.8242 683.469ZM93.8242 673.977C94.625 673.977 95.25 673.615 95.6992 672.893C96.1484 672.17 96.373 671.359 96.373 670.461V645.002C96.373 643.791 96.2363 642.736 95.9629 641.838C95.709 640.92 94.9961 640.461 93.8242 640.461C92.6523 640.461 91.9297 640.92 91.6562 641.838C91.4023 642.736 91.2754 643.791 91.2754 645.002V670.461C91.2754 671.359 91.5 672.17 91.9492 672.893C92.418 673.615 93.043 673.977 93.8242 673.977ZM122.828 683.586C118.277 683.586 114.967 682.385 112.896 679.982C110.826 677.58 109.791 673.957 109.791 669.113V663.723H120.367V669.143C120.367 670.51 120.533 671.672 120.865 672.629C121.217 673.566 121.988 674.035 123.18 674.035C124.391 674.035 125.162 673.527 125.494 672.512C125.826 671.477 125.992 669.797 125.992 667.473V666.184C125.992 664.406 125.689 662.854 125.084 661.525C124.498 660.197 123.336 659.533 121.598 659.533C121.383 659.533 121.188 659.543 121.012 659.562C120.855 659.562 120.719 659.572 120.602 659.592V650.334C122.379 650.334 123.736 649.943 124.674 649.162C125.611 648.361 126.08 647.033 126.08 645.178C126.08 642.268 125.24 640.812 123.561 640.812C122.467 640.812 121.725 641.242 121.334 642.102C120.963 642.941 120.777 644.016 120.777 645.324V646.877H110.113C110.094 646.643 110.074 646.359 110.055 646.027C110.055 645.695 110.055 645.373 110.055 645.061C110.055 640.334 111.158 636.867 113.365 634.66C115.572 632.453 118.951 631.35 123.502 631.35C132.291 631.35 136.686 635.92 136.686 645.061C136.686 647.6 136.344 649.699 135.66 651.359C134.977 653 133.707 654.152 131.852 654.816C133.316 655.52 134.4 656.418 135.104 657.512C135.807 658.605 136.266 659.963 136.48 661.584C136.695 663.205 136.803 665.168 136.803 667.473C136.803 672.629 135.719 676.604 133.551 679.396C131.402 682.189 127.828 683.586 122.828 683.586Z" fill="white"/>
<circle cx="109.5" cy="658.5" r="65.5" stroke="white" stroke-width="8"/>
<defs>
<filter id="filter0_d_42_5004" x="16" y="58" width="983" height="185.512" filterUnits="userSpaceOnUse" color-interpolation-filters="sRGB">
<feFlood flood-opacity="0" result="BackgroundImageFix"/>
<feColorMatrix in="SourceAlpha" type="matrix" values="0 0 0 0 0 0 0 0 0 0 0 0 0 0 0 0 0 0 127 0" result="hardAlpha"/>
<feOffset dy="4"/>
<feGaussianBlur stdDeviation="2"/>
<feComposite in2="hardAlpha" operator="out"/>
<feColorMatrix type="matrix" values="0 0 0 0 0 0 0 0 0 0 0 0 0 0 0 0 0 0 0.25 0"/>
<feBlend mode="normal" in2="BackgroundImageFix" result="effect1_dropShadow_42_5004"/>
<feBlend mode="normal" in="SourceGraphic" in2="effect1_dropShadow_42_5004" result="shape"/>
</filter>
<filter id="filter1_d_42_5004" x="16" y="310" width="983" height="185.512" filterUnits="userSpaceOnUse" color-interpolation-filters="sRGB">
<feFlood flood-opacity="0" result="BackgroundImageFix"/>
<feColorMatrix in="SourceAlpha" type="matrix" values="0 0 0 0 0 0 0 0 0 0 0 0 0 0 0 0 0 0 127 0" result="hardAlpha"/>
<feOffset dy="4"/>
<feGaussianBlur stdDeviation="2"/>
<feComposite in2="hardAlpha" operator="out"/>
<feColorMatrix type="matrix" values="0 0 0 0 0 0 0 0 0 0 0 0 0 0 0 0 0 0 0.25 0"/>
<feBlend mode="normal" in2="BackgroundImageFix" result="effect1_dropShadow_42_5004"/>
<feBlend mode="normal" in="SourceGraphic" in2="effect1_dropShadow_42_5004" result="shape"/>
</filter>
<filter id="filter2_d_42_5004" x="16" y="568" width="983" height="185.512" filterUnits="userSpaceOnUse" color-interpolation-filters="sRGB">
<feFlood flood-opacity="0" result="BackgroundImageFix"/>
<feColorMatrix in="SourceAlpha" type="matrix" values="0 0 0 0 0 0 0 0 0 0 0 0 0 0 0 0 0 0 127 0" result="hardAlpha"/>
<feOffset dy="4"/>
<feGaussianBlur stdDeviation="2"/>
<feComposite in2="hardAlpha" operator="out"/>
<feColorMatrix type="matrix" values="0 0 0 0 0 0 0 0 0 0 0 0 0 0 0 0 0 0 0.25 0"/>
<feBlend mode="normal" in2="BackgroundImageFix" result="effect1_dropShadow_42_5004"/>
<feBlend mode="normal" in="SourceGraphic" in2="effect1_dropShadow_42_5004" result="shape"/>
</filter>
</defs>
</svg>
