<svg width="1146" height="1716" viewBox="0 0 1146 1716" fill="none" xmlns="http://www.w3.org/2000/svg">
<rect width="1146" height="1716" fill="white"/>
<g filter="url(#filter0_d_43_6075)">
<path d="M1079.97 86.7969H85.75C74.7043 86.7969 65.75 95.7512 65.75 106.797V325.777C65.75 336.823 74.7043 345.777 85.75 345.777H1079.97C1091.02 345.777 1099.97 336.823 1099.97 325.777V106.797C1099.97 95.7512 1091.02 86.7969 1079.97 86.7969Z" fill="white"/>
</g>
<path d="M427.25 215.094V221H406.086V215.094H427.25ZM408.383 181.188V221H400.863V181.188H408.383ZM424.488 197.621V203.391H406.086V197.621H424.488ZM427.168 181.188V187.121H406.086V181.188H427.168ZM437.586 191.414L442.863 200.82L448.223 191.414H456.07L447.375 205.906L456.426 221H448.578L442.918 211.129L437.23 221H429.383L438.406 205.906L429.766 191.414H437.586ZM467.473 197.102V232.375H460.227V191.414H466.926L467.473 197.102ZM486.477 205.906V206.48C486.477 208.632 486.221 210.628 485.711 212.469C485.219 214.292 484.49 215.887 483.523 217.254C482.557 218.603 481.354 219.66 479.914 220.426C478.492 221.173 476.852 221.547 474.992 221.547C473.169 221.547 471.583 221.201 470.234 220.508C468.885 219.797 467.746 218.794 466.816 217.5C465.887 216.206 465.139 214.702 464.574 212.988C464.027 211.257 463.617 209.37 463.344 207.328V205.496C463.617 203.327 464.027 201.358 464.574 199.59C465.139 197.803 465.887 196.263 466.816 194.969C467.746 193.656 468.876 192.645 470.207 191.934C471.556 191.223 473.133 190.867 474.938 190.867C476.815 190.867 478.465 191.223 479.887 191.934C481.327 192.645 482.539 193.665 483.523 194.996C484.508 196.327 485.246 197.913 485.738 199.754C486.23 201.595 486.477 203.646 486.477 205.906ZM479.23 206.48V205.906C479.23 204.594 479.112 203.382 478.875 202.27C478.638 201.139 478.273 200.155 477.781 199.316C477.289 198.46 476.651 197.794 475.867 197.32C475.083 196.846 474.135 196.609 473.023 196.609C471.911 196.609 470.954 196.792 470.152 197.156C469.35 197.521 468.694 198.04 468.184 198.715C467.673 199.389 467.272 200.191 466.98 201.121C466.707 202.033 466.525 203.044 466.434 204.156V208.695C466.598 210.044 466.917 211.257 467.391 212.332C467.865 213.408 468.557 214.264 469.469 214.902C470.398 215.54 471.602 215.859 473.078 215.859C474.19 215.859 475.138 215.613 475.922 215.121C476.706 214.629 477.344 213.954 477.836 213.098C478.328 212.223 478.684 211.22 478.902 210.09C479.121 208.96 479.23 207.757 479.23 206.48ZM490.469 206.508V205.934C490.469 203.764 490.779 201.768 491.398 199.945C492.018 198.104 492.921 196.509 494.105 195.16C495.29 193.811 496.74 192.763 498.453 192.016C500.167 191.25 502.117 190.867 504.305 190.867C506.529 190.867 508.497 191.25 510.211 192.016C511.943 192.763 513.401 193.811 514.586 195.16C515.771 196.509 516.673 198.104 517.293 199.945C517.913 201.768 518.223 203.764 518.223 205.934V206.508C518.223 208.659 517.913 210.655 517.293 212.496C516.673 214.319 515.771 215.914 514.586 217.281C513.401 218.63 511.952 219.678 510.238 220.426C508.525 221.173 506.565 221.547 504.359 221.547C502.172 221.547 500.212 221.173 498.48 220.426C496.749 219.678 495.29 218.63 494.105 217.281C492.921 215.914 492.018 214.319 491.398 212.496C490.779 210.655 490.469 208.659 490.469 206.508ZM497.688 205.934V206.508C497.688 207.802 497.815 209.014 498.07 210.145C498.326 211.275 498.717 212.268 499.246 213.125C499.775 213.982 500.458 214.656 501.297 215.148C502.154 215.622 503.174 215.859 504.359 215.859C505.526 215.859 506.529 215.622 507.367 215.148C508.206 214.656 508.889 213.982 509.418 213.125C509.965 212.268 510.366 211.275 510.621 210.145C510.876 209.014 511.004 207.802 511.004 206.508V205.934C511.004 204.658 510.876 203.464 510.621 202.352C510.366 201.221 509.965 200.228 509.418 199.371C508.889 198.496 508.197 197.812 507.34 197.32C506.501 196.81 505.49 196.555 504.305 196.555C503.138 196.555 502.135 196.81 501.297 197.32C500.458 197.812 499.775 198.496 499.246 199.371C498.717 200.228 498.326 201.221 498.07 202.352C497.815 203.464 497.688 204.658 497.688 205.934ZM530.691 197.457V221H523.473V191.414H530.309L530.691 197.457ZM539.688 191.223L539.578 197.949C539.177 197.876 538.721 197.822 538.211 197.785C537.719 197.749 537.254 197.73 536.816 197.73C535.704 197.73 534.729 197.885 533.891 198.195C533.052 198.487 532.35 198.915 531.785 199.48C531.238 200.046 530.819 200.738 530.527 201.559C530.236 202.361 530.072 203.272 530.035 204.293L528.477 204.102C528.477 202.224 528.668 200.483 529.051 198.879C529.434 197.275 529.99 195.871 530.719 194.668C531.448 193.465 532.359 192.535 533.453 191.879C534.565 191.204 535.841 190.867 537.281 190.867C537.682 190.867 538.111 190.904 538.566 190.977C539.04 191.031 539.414 191.113 539.688 191.223ZM559.02 191.414V196.609H542.066V191.414H559.02ZM546.605 184.141H553.852V212.469C553.852 213.344 553.97 214.018 554.207 214.492C554.444 214.966 554.799 215.285 555.273 215.449C555.747 215.613 556.312 215.695 556.969 215.695C557.443 215.695 557.88 215.668 558.281 215.613C558.682 215.559 559.02 215.504 559.293 215.449L559.32 220.863C558.719 221.064 558.035 221.228 557.27 221.355C556.522 221.483 555.674 221.547 554.727 221.547C553.104 221.547 551.682 221.273 550.461 220.727C549.24 220.161 548.292 219.259 547.617 218.02C546.943 216.762 546.605 215.103 546.605 213.043V184.141ZM603.59 215.094V221H583.574V215.094H603.59ZM585.844 181.188V221H578.324V181.188H585.844ZM615.73 191.414V221H608.484V191.414H615.73ZM607.992 183.676C607.992 182.6 608.357 181.707 609.086 180.996C609.833 180.285 610.836 179.93 612.094 179.93C613.352 179.93 614.345 180.285 615.074 180.996C615.822 181.707 616.195 182.6 616.195 183.676C616.195 184.733 615.822 185.617 615.074 186.328C614.345 187.039 613.352 187.395 612.094 187.395C610.836 187.395 609.833 187.039 609.086 186.328C608.357 185.617 607.992 184.733 607.992 183.676ZM634.762 215.859C635.783 215.859 636.694 215.659 637.496 215.258C638.298 214.857 638.936 214.292 639.41 213.562C639.902 212.833 640.167 211.986 640.203 211.02H647.012C646.975 213.025 646.41 214.82 645.316 216.406C644.223 217.992 642.764 219.25 640.941 220.18C639.137 221.091 637.113 221.547 634.871 221.547C632.592 221.547 630.605 221.164 628.91 220.398C627.215 219.633 625.802 218.566 624.672 217.199C623.56 215.832 622.721 214.246 622.156 212.441C621.609 210.637 621.336 208.704 621.336 206.645V205.77C621.336 203.71 621.609 201.777 622.156 199.973C622.721 198.168 623.56 196.582 624.672 195.215C625.802 193.848 627.215 192.781 628.91 192.016C630.605 191.25 632.583 190.867 634.844 190.867C637.232 190.867 639.328 191.332 641.133 192.262C642.956 193.191 644.378 194.504 645.398 196.199C646.438 197.895 646.975 199.891 647.012 202.188H640.203C640.167 201.13 639.93 200.182 639.492 199.344C639.055 198.505 638.435 197.831 637.633 197.32C636.831 196.81 635.855 196.555 634.707 196.555C633.486 196.555 632.465 196.81 631.645 197.32C630.842 197.831 630.214 198.533 629.758 199.426C629.32 200.301 629.01 201.285 628.828 202.379C628.664 203.454 628.582 204.585 628.582 205.77V206.645C628.582 207.848 628.664 208.996 628.828 210.09C629.01 211.184 629.32 212.168 629.758 213.043C630.214 213.9 630.842 214.583 631.645 215.094C632.465 215.604 633.504 215.859 634.762 215.859ZM665.113 221.547C662.871 221.547 660.857 221.182 659.07 220.453C657.284 219.724 655.762 218.712 654.504 217.418C653.264 216.105 652.307 214.583 651.633 212.852C650.977 211.102 650.648 209.224 650.648 207.219V206.125C650.648 203.846 650.977 201.777 651.633 199.918C652.289 198.04 653.219 196.427 654.422 195.078C655.625 193.729 657.065 192.69 658.742 191.961C660.419 191.232 662.27 190.867 664.293 190.867C666.389 190.867 668.24 191.223 669.844 191.934C671.448 192.626 672.788 193.611 673.863 194.887C674.939 196.163 675.75 197.694 676.297 199.48C676.844 201.249 677.117 203.208 677.117 205.359V208.395H653.93V203.418H670.008V202.871C669.971 201.723 669.753 200.674 669.352 199.727C668.951 198.76 668.331 197.995 667.492 197.43C666.654 196.846 665.569 196.555 664.238 196.555C663.163 196.555 662.224 196.792 661.422 197.266C660.638 197.721 659.982 198.378 659.453 199.234C658.943 200.073 658.56 201.076 658.305 202.242C658.049 203.409 657.922 204.703 657.922 206.125V207.219C657.922 208.458 658.086 209.607 658.414 210.664C658.76 211.721 659.262 212.642 659.918 213.426C660.592 214.191 661.395 214.793 662.324 215.23C663.272 215.65 664.348 215.859 665.551 215.859C667.064 215.859 668.431 215.568 669.652 214.984C670.892 214.383 671.967 213.499 672.879 212.332L676.516 216.105C675.896 217.017 675.057 217.892 674 218.73C672.961 219.569 671.703 220.253 670.227 220.781C668.75 221.292 667.046 221.547 665.113 221.547ZM689.039 197.73V221H681.82V191.414H688.602L689.039 197.73ZM687.891 205.141H685.758C685.776 202.99 686.068 201.039 686.633 199.289C687.198 197.539 687.991 196.035 689.012 194.777C690.051 193.52 691.281 192.553 692.703 191.879C694.125 191.204 695.711 190.867 697.461 190.867C698.883 190.867 700.168 191.068 701.316 191.469C702.465 191.87 703.449 192.508 704.27 193.383C705.108 194.258 705.746 195.406 706.184 196.828C706.639 198.232 706.867 199.964 706.867 202.023V221H699.594V201.969C699.594 200.62 699.393 199.553 698.992 198.77C698.609 197.986 698.044 197.43 697.297 197.102C696.568 196.773 695.665 196.609 694.59 196.609C693.478 196.609 692.503 196.837 691.664 197.293C690.844 197.73 690.151 198.341 689.586 199.125C689.039 199.909 688.62 200.811 688.328 201.832C688.036 202.853 687.891 203.956 687.891 205.141ZM729.508 212.906C729.508 212.286 729.344 211.73 729.016 211.238C728.688 210.746 728.068 210.299 727.156 209.898C726.263 209.479 724.951 209.087 723.219 208.723C721.688 208.395 720.275 207.984 718.98 207.492C717.686 207 716.574 206.408 715.645 205.715C714.715 205.004 713.986 204.174 713.457 203.227C712.947 202.26 712.691 201.148 712.691 199.891C712.691 198.669 712.956 197.521 713.484 196.445C714.013 195.352 714.779 194.395 715.781 193.574C716.784 192.736 718.005 192.079 719.445 191.605C720.885 191.113 722.508 190.867 724.312 190.867C726.828 190.867 728.988 191.277 730.793 192.098C732.616 192.918 734.01 194.048 734.977 195.488C735.943 196.91 736.426 198.514 736.426 200.301H729.207C729.207 199.517 729.025 198.806 728.66 198.168C728.314 197.53 727.776 197.02 727.047 196.637C726.318 196.236 725.397 196.035 724.285 196.035C723.283 196.035 722.435 196.199 721.742 196.527C721.068 196.855 720.557 197.284 720.211 197.812C719.865 198.341 719.691 198.924 719.691 199.562C719.691 200.036 719.783 200.465 719.965 200.848C720.165 201.212 720.484 201.549 720.922 201.859C721.359 202.169 721.952 202.452 722.699 202.707C723.465 202.962 724.404 203.208 725.516 203.445C727.721 203.883 729.645 204.466 731.285 205.195C732.944 205.906 734.238 206.854 735.168 208.039C736.098 209.224 736.562 210.737 736.562 212.578C736.562 213.891 736.28 215.094 735.715 216.188C735.15 217.263 734.329 218.202 733.254 219.004C732.178 219.806 730.893 220.435 729.398 220.891C727.904 221.328 726.217 221.547 724.34 221.547C721.624 221.547 719.327 221.064 717.449 220.098C715.572 219.113 714.15 217.874 713.184 216.379C712.217 214.866 711.734 213.298 711.734 211.676H718.652C718.707 212.824 719.017 213.745 719.582 214.438C720.147 215.13 720.858 215.632 721.715 215.941C722.59 216.233 723.51 216.379 724.477 216.379C725.57 216.379 726.491 216.233 727.238 215.941C727.986 215.632 728.551 215.221 728.934 214.711C729.316 214.182 729.508 213.581 729.508 212.906ZM755.348 221.547C753.105 221.547 751.091 221.182 749.305 220.453C747.518 219.724 745.996 218.712 744.738 217.418C743.499 216.105 742.542 214.583 741.867 212.852C741.211 211.102 740.883 209.224 740.883 207.219V206.125C740.883 203.846 741.211 201.777 741.867 199.918C742.523 198.04 743.453 196.427 744.656 195.078C745.859 193.729 747.299 192.69 748.977 191.961C750.654 191.232 752.504 190.867 754.527 190.867C756.624 190.867 758.474 191.223 760.078 191.934C761.682 192.626 763.022 193.611 764.098 194.887C765.173 196.163 765.984 197.694 766.531 199.48C767.078 201.249 767.352 203.208 767.352 205.359V208.395H744.164V203.418H760.242V202.871C760.206 201.723 759.987 200.674 759.586 199.727C759.185 198.76 758.565 197.995 757.727 197.43C756.888 196.846 755.803 196.555 754.473 196.555C753.397 196.555 752.458 196.792 751.656 197.266C750.872 197.721 750.216 198.378 749.688 199.234C749.177 200.073 748.794 201.076 748.539 202.242C748.284 203.409 748.156 204.703 748.156 206.125V207.219C748.156 208.458 748.32 209.607 748.648 210.664C748.995 211.721 749.496 212.642 750.152 213.426C750.827 214.191 751.629 214.793 752.559 215.23C753.507 215.65 754.582 215.859 755.785 215.859C757.298 215.859 758.665 215.568 759.887 214.984C761.126 214.383 762.202 213.499 763.113 212.332L766.75 216.105C766.13 217.017 765.292 217.892 764.234 218.73C763.195 219.569 761.938 220.253 760.461 220.781C758.984 221.292 757.28 221.547 755.348 221.547Z" fill="#1C4670"/>
<path d="M134.702 227.396C157.166 227.396 178.71 218.472 194.595 202.587C210.48 186.702 219.403 165.158 219.403 142.694C219.403 120.23 210.48 98.6854 194.595 82.8007C178.71 66.9161 157.166 57.9922 134.702 57.9922H50V142.694C50 153.817 52.1909 164.831 56.4475 175.108C60.7042 185.384 66.9433 194.722 74.8086 202.587C82.6738 210.452 92.0113 216.691 102.288 220.948C112.564 225.205 123.579 227.396 134.702 227.396Z" fill="#1C4670"/>
<g filter="url(#filter1_d_43_6075)">
<path d="M1079.97 405.047H85.75C74.7043 405.047 65.75 414.001 65.75 425.047V644.027C65.75 655.073 74.7043 664.027 85.75 664.027H1079.97C1091.02 664.027 1099.97 655.073 1099.97 644.027V425.047C1099.97 414.001 1091.02 405.047 1079.97 405.047Z" fill="white"/>
</g>
<path d="M412.742 554H404.156L404.211 548.094H412.742C415.057 548.094 416.999 547.583 418.566 546.562C420.134 545.523 421.319 544.038 422.121 542.105C422.923 540.155 423.324 537.822 423.324 535.105V533.055C423.324 530.958 423.096 529.108 422.641 527.504C422.185 525.9 421.51 524.551 420.617 523.457C419.742 522.363 418.658 521.534 417.363 520.969C416.069 520.404 414.583 520.121 412.906 520.121H403.992V514.188H412.906C415.568 514.188 417.992 514.634 420.18 515.527C422.385 516.421 424.29 517.706 425.895 519.383C427.517 521.042 428.757 523.029 429.613 525.344C430.488 527.659 430.926 530.247 430.926 533.109V535.105C430.926 537.949 430.488 540.538 429.613 542.871C428.757 545.186 427.517 547.173 425.895 548.832C424.29 550.491 422.376 551.767 420.152 552.66C417.928 553.553 415.458 554 412.742 554ZM408.367 514.188V554H400.848V514.188H408.367ZM444.434 524.414V554H437.188V524.414H444.434ZM436.695 516.676C436.695 515.6 437.06 514.707 437.789 513.996C438.536 513.285 439.539 512.93 440.797 512.93C442.055 512.93 443.048 513.285 443.777 513.996C444.525 514.707 444.898 515.6 444.898 516.676C444.898 517.733 444.525 518.617 443.777 519.328C443.048 520.039 442.055 520.395 440.797 520.395C439.539 520.395 438.536 520.039 437.789 519.328C437.06 518.617 436.695 517.733 436.695 516.676ZM467.594 545.906C467.594 545.286 467.43 544.73 467.102 544.238C466.773 543.746 466.154 543.299 465.242 542.898C464.349 542.479 463.036 542.087 461.305 541.723C459.773 541.395 458.361 540.984 457.066 540.492C455.772 540 454.66 539.408 453.73 538.715C452.801 538.004 452.072 537.174 451.543 536.227C451.033 535.26 450.777 534.148 450.777 532.891C450.777 531.669 451.042 530.521 451.57 529.445C452.099 528.352 452.865 527.395 453.867 526.574C454.87 525.736 456.091 525.079 457.531 524.605C458.971 524.113 460.594 523.867 462.398 523.867C464.914 523.867 467.074 524.277 468.879 525.098C470.702 525.918 472.096 527.048 473.062 528.488C474.029 529.91 474.512 531.514 474.512 533.301H467.293C467.293 532.517 467.111 531.806 466.746 531.168C466.4 530.53 465.862 530.02 465.133 529.637C464.404 529.236 463.483 529.035 462.371 529.035C461.368 529.035 460.521 529.199 459.828 529.527C459.154 529.855 458.643 530.284 458.297 530.812C457.951 531.341 457.777 531.924 457.777 532.562C457.777 533.036 457.868 533.465 458.051 533.848C458.251 534.212 458.57 534.549 459.008 534.859C459.445 535.169 460.038 535.452 460.785 535.707C461.551 535.962 462.49 536.208 463.602 536.445C465.807 536.883 467.73 537.466 469.371 538.195C471.03 538.906 472.324 539.854 473.254 541.039C474.184 542.224 474.648 543.737 474.648 545.578C474.648 546.891 474.366 548.094 473.801 549.188C473.236 550.263 472.415 551.202 471.34 552.004C470.264 552.806 468.979 553.435 467.484 553.891C465.99 554.328 464.303 554.547 462.426 554.547C459.71 554.547 457.413 554.064 455.535 553.098C453.658 552.113 452.236 550.874 451.27 549.379C450.303 547.866 449.82 546.298 449.82 544.676H456.738C456.793 545.824 457.103 546.745 457.668 547.438C458.233 548.13 458.944 548.632 459.801 548.941C460.676 549.233 461.596 549.379 462.562 549.379C463.656 549.379 464.577 549.233 465.324 548.941C466.072 548.632 466.637 548.221 467.02 547.711C467.402 547.182 467.594 546.581 467.594 545.906ZM494.145 524.414V529.609H477.191V524.414H494.145ZM481.73 517.141H488.977V545.469C488.977 546.344 489.095 547.018 489.332 547.492C489.569 547.966 489.924 548.285 490.398 548.449C490.872 548.613 491.438 548.695 492.094 548.695C492.568 548.695 493.005 548.668 493.406 548.613C493.807 548.559 494.145 548.504 494.418 548.449L494.445 553.863C493.844 554.064 493.16 554.228 492.395 554.355C491.647 554.483 490.799 554.547 489.852 554.547C488.229 554.547 486.807 554.273 485.586 553.727C484.365 553.161 483.417 552.259 482.742 551.02C482.068 549.762 481.73 548.103 481.73 546.043V517.141ZM506.176 530.457V554H498.957V524.414H505.793L506.176 530.457ZM515.172 524.223L515.062 530.949C514.661 530.876 514.206 530.822 513.695 530.785C513.203 530.749 512.738 530.73 512.301 530.73C511.189 530.73 510.214 530.885 509.375 531.195C508.536 531.487 507.835 531.915 507.27 532.48C506.723 533.046 506.303 533.738 506.012 534.559C505.72 535.361 505.556 536.272 505.52 537.293L503.961 537.102C503.961 535.224 504.152 533.483 504.535 531.879C504.918 530.275 505.474 528.871 506.203 527.668C506.932 526.465 507.844 525.535 508.938 524.879C510.049 524.204 511.326 523.867 512.766 523.867C513.167 523.867 513.595 523.904 514.051 523.977C514.525 524.031 514.898 524.113 515.172 524.223ZM526.793 524.414V554H519.547V524.414H526.793ZM519.055 516.676C519.055 515.6 519.419 514.707 520.148 513.996C520.896 513.285 521.898 512.93 523.156 512.93C524.414 512.93 525.408 513.285 526.137 513.996C526.884 514.707 527.258 515.6 527.258 516.676C527.258 517.733 526.884 518.617 526.137 519.328C525.408 520.039 524.414 520.395 523.156 520.395C521.898 520.395 520.896 520.039 520.148 519.328C519.419 518.617 519.055 517.733 519.055 516.676ZM533.656 512H540.902V547.465L540.191 554H533.656V512ZM559.934 538.906V539.48C559.934 541.686 559.688 543.71 559.195 545.551C558.721 547.392 558.001 548.987 557.035 550.336C556.069 551.667 554.866 552.706 553.426 553.453C552.004 554.182 550.336 554.547 548.422 554.547C546.599 554.547 545.013 554.191 543.664 553.48C542.333 552.77 541.212 551.767 540.301 550.473C539.389 549.16 538.66 547.62 538.113 545.852C537.566 544.065 537.156 542.115 536.883 540V538.441C537.156 536.309 537.566 534.358 538.113 532.59C538.66 530.822 539.389 529.281 540.301 527.969C541.212 526.656 542.333 525.645 543.664 524.934C544.995 524.223 546.562 523.867 548.367 523.867C550.299 523.867 551.986 524.241 553.426 524.988C554.884 525.717 556.087 526.757 557.035 528.105C558.001 529.436 558.721 531.022 559.195 532.863C559.688 534.686 559.934 536.701 559.934 538.906ZM552.688 539.48V538.906C552.688 537.648 552.587 536.464 552.387 535.352C552.186 534.221 551.858 533.228 551.402 532.371C550.947 531.514 550.327 530.84 549.543 530.348C548.759 529.855 547.775 529.609 546.59 529.609C545.46 529.609 544.493 529.801 543.691 530.184C542.908 530.566 542.251 531.095 541.723 531.77C541.212 532.444 540.811 533.237 540.52 534.148C540.246 535.06 540.064 536.044 539.973 537.102V541.367C540.1 542.771 540.401 544.038 540.875 545.168C541.349 546.28 542.051 547.164 542.98 547.82C543.928 548.477 545.15 548.805 546.645 548.805C547.811 548.805 548.786 548.577 549.57 548.121C550.354 547.647 550.974 546.991 551.43 546.152C551.885 545.296 552.204 544.302 552.387 543.172C552.587 542.042 552.688 540.811 552.688 539.48ZM582.793 546.973V524.414H590.066V554H583.23L582.793 546.973ZM583.723 540.848L585.965 540.793C585.965 542.78 585.746 544.612 585.309 546.289C584.871 547.966 584.188 549.424 583.258 550.664C582.346 551.885 581.189 552.842 579.785 553.535C578.382 554.21 576.723 554.547 574.809 554.547C573.35 554.547 572.02 554.346 570.816 553.945C569.613 553.526 568.574 552.879 567.699 552.004C566.842 551.111 566.177 549.971 565.703 548.586C565.229 547.182 564.992 545.496 564.992 543.527V524.414H572.211V543.582C572.211 544.566 572.32 545.387 572.539 546.043C572.776 546.699 573.095 547.237 573.496 547.656C573.915 548.057 574.398 548.349 574.945 548.531C575.51 548.695 576.112 548.777 576.75 548.777C578.5 548.777 579.876 548.431 580.879 547.738C581.9 547.027 582.629 546.079 583.066 544.895C583.504 543.691 583.723 542.342 583.723 540.848ZM610.465 524.414V529.609H593.512V524.414H610.465ZM598.051 517.141H605.297V545.469C605.297 546.344 605.415 547.018 605.652 547.492C605.889 547.966 606.245 548.285 606.719 548.449C607.193 548.613 607.758 548.695 608.414 548.695C608.888 548.695 609.326 548.668 609.727 548.613C610.128 548.559 610.465 548.504 610.738 548.449L610.766 553.863C610.164 554.064 609.48 554.228 608.715 554.355C607.967 554.483 607.12 554.547 606.172 554.547C604.549 554.547 603.128 554.273 601.906 553.727C600.685 553.161 599.737 552.259 599.062 551.02C598.388 549.762 598.051 548.103 598.051 546.043V517.141ZM613.281 539.508V538.934C613.281 536.764 613.591 534.768 614.211 532.945C614.831 531.104 615.733 529.509 616.918 528.16C618.103 526.811 619.552 525.763 621.266 525.016C622.979 524.25 624.93 523.867 627.117 523.867C629.341 523.867 631.31 524.25 633.023 525.016C634.755 525.763 636.214 526.811 637.398 528.16C638.583 529.509 639.486 531.104 640.105 532.945C640.725 534.768 641.035 536.764 641.035 538.934V539.508C641.035 541.659 640.725 543.655 640.105 545.496C639.486 547.319 638.583 548.914 637.398 550.281C636.214 551.63 634.764 552.678 633.051 553.426C631.337 554.173 629.378 554.547 627.172 554.547C624.984 554.547 623.025 554.173 621.293 553.426C619.561 552.678 618.103 551.63 616.918 550.281C615.733 548.914 614.831 547.319 614.211 545.496C613.591 543.655 613.281 541.659 613.281 539.508ZM620.5 538.934V539.508C620.5 540.802 620.628 542.014 620.883 543.145C621.138 544.275 621.53 545.268 622.059 546.125C622.587 546.982 623.271 547.656 624.109 548.148C624.966 548.622 625.987 548.859 627.172 548.859C628.339 548.859 629.341 548.622 630.18 548.148C631.018 547.656 631.702 546.982 632.23 546.125C632.777 545.268 633.178 544.275 633.434 543.145C633.689 542.014 633.816 540.802 633.816 539.508V538.934C633.816 537.658 633.689 536.464 633.434 535.352C633.178 534.221 632.777 533.228 632.23 532.371C631.702 531.496 631.009 530.812 630.152 530.32C629.314 529.81 628.302 529.555 627.117 529.555C625.951 529.555 624.948 529.81 624.109 530.32C623.271 530.812 622.587 531.496 622.059 532.371C621.53 533.228 621.138 534.221 620.883 535.352C620.628 536.464 620.5 537.658 620.5 538.934ZM653.504 530.457V554H646.285V524.414H653.121L653.504 530.457ZM662.5 524.223L662.391 530.949C661.99 530.876 661.534 530.822 661.023 530.785C660.531 530.749 660.066 530.73 659.629 530.73C658.517 530.73 657.542 530.885 656.703 531.195C655.865 531.487 655.163 531.915 654.598 532.48C654.051 533.046 653.632 533.738 653.34 534.559C653.048 535.361 652.884 536.272 652.848 537.293L651.289 537.102C651.289 535.224 651.48 533.483 651.863 531.879C652.246 530.275 652.802 528.871 653.531 527.668C654.26 526.465 655.172 525.535 656.266 524.879C657.378 524.204 658.654 523.867 660.094 523.867C660.495 523.867 660.923 523.904 661.379 523.977C661.853 524.031 662.227 524.113 662.5 524.223ZM706.223 548.094V554H686.207V548.094H706.223ZM688.477 514.188V554H680.957V514.188H688.477ZM718.363 524.414V554H711.117V524.414H718.363ZM710.625 516.676C710.625 515.6 710.99 514.707 711.719 513.996C712.466 513.285 713.469 512.93 714.727 512.93C715.984 512.93 716.978 513.285 717.707 513.996C718.454 514.707 718.828 515.6 718.828 516.676C718.828 517.733 718.454 518.617 717.707 519.328C716.978 520.039 715.984 520.395 714.727 520.395C713.469 520.395 712.466 520.039 711.719 519.328C710.99 518.617 710.625 517.733 710.625 516.676ZM737.395 548.859C738.415 548.859 739.327 548.659 740.129 548.258C740.931 547.857 741.569 547.292 742.043 546.562C742.535 545.833 742.799 544.986 742.836 544.02H749.645C749.608 546.025 749.043 547.82 747.949 549.406C746.855 550.992 745.397 552.25 743.574 553.18C741.77 554.091 739.746 554.547 737.504 554.547C735.225 554.547 733.238 554.164 731.543 553.398C729.848 552.633 728.435 551.566 727.305 550.199C726.193 548.832 725.354 547.246 724.789 545.441C724.242 543.637 723.969 541.704 723.969 539.645V538.77C723.969 536.71 724.242 534.777 724.789 532.973C725.354 531.168 726.193 529.582 727.305 528.215C728.435 526.848 729.848 525.781 731.543 525.016C733.238 524.25 735.216 523.867 737.477 523.867C739.865 523.867 741.961 524.332 743.766 525.262C745.589 526.191 747.01 527.504 748.031 529.199C749.07 530.895 749.608 532.891 749.645 535.188H742.836C742.799 534.13 742.562 533.182 742.125 532.344C741.688 531.505 741.068 530.831 740.266 530.32C739.464 529.81 738.488 529.555 737.34 529.555C736.118 529.555 735.098 529.81 734.277 530.32C733.475 530.831 732.846 531.533 732.391 532.426C731.953 533.301 731.643 534.285 731.461 535.379C731.297 536.454 731.215 537.585 731.215 538.77V539.645C731.215 540.848 731.297 541.996 731.461 543.09C731.643 544.184 731.953 545.168 732.391 546.043C732.846 546.9 733.475 547.583 734.277 548.094C735.098 548.604 736.137 548.859 737.395 548.859ZM767.746 554.547C765.504 554.547 763.49 554.182 761.703 553.453C759.917 552.724 758.395 551.712 757.137 550.418C755.897 549.105 754.94 547.583 754.266 545.852C753.609 544.102 753.281 542.224 753.281 540.219V539.125C753.281 536.846 753.609 534.777 754.266 532.918C754.922 531.04 755.852 529.427 757.055 528.078C758.258 526.729 759.698 525.69 761.375 524.961C763.052 524.232 764.902 523.867 766.926 523.867C769.022 523.867 770.872 524.223 772.477 524.934C774.081 525.626 775.421 526.611 776.496 527.887C777.572 529.163 778.383 530.694 778.93 532.48C779.477 534.249 779.75 536.208 779.75 538.359V541.395H756.562V536.418H772.641V535.871C772.604 534.723 772.385 533.674 771.984 532.727C771.583 531.76 770.964 530.995 770.125 530.43C769.286 529.846 768.202 529.555 766.871 529.555C765.796 529.555 764.857 529.792 764.055 530.266C763.271 530.721 762.615 531.378 762.086 532.234C761.576 533.073 761.193 534.076 760.938 535.242C760.682 536.409 760.555 537.703 760.555 539.125V540.219C760.555 541.458 760.719 542.607 761.047 543.664C761.393 544.721 761.895 545.642 762.551 546.426C763.225 547.191 764.027 547.793 764.957 548.23C765.905 548.65 766.98 548.859 768.184 548.859C769.697 548.859 771.064 548.568 772.285 547.984C773.525 547.383 774.6 546.499 775.512 545.332L779.148 549.105C778.529 550.017 777.69 550.892 776.633 551.73C775.594 552.569 774.336 553.253 772.859 553.781C771.383 554.292 769.678 554.547 767.746 554.547ZM791.672 530.73V554H784.453V524.414H791.234L791.672 530.73ZM790.523 538.141H788.391C788.409 535.99 788.701 534.039 789.266 532.289C789.831 530.539 790.624 529.035 791.645 527.777C792.684 526.52 793.914 525.553 795.336 524.879C796.758 524.204 798.344 523.867 800.094 523.867C801.516 523.867 802.801 524.068 803.949 524.469C805.098 524.87 806.082 525.508 806.902 526.383C807.741 527.258 808.379 528.406 808.816 529.828C809.272 531.232 809.5 532.964 809.5 535.023V554H802.227V534.969C802.227 533.62 802.026 532.553 801.625 531.77C801.242 530.986 800.677 530.43 799.93 530.102C799.201 529.773 798.298 529.609 797.223 529.609C796.111 529.609 795.135 529.837 794.297 530.293C793.477 530.73 792.784 531.341 792.219 532.125C791.672 532.909 791.253 533.811 790.961 534.832C790.669 535.853 790.523 536.956 790.523 538.141ZM828.012 548.859C829.033 548.859 829.944 548.659 830.746 548.258C831.548 547.857 832.186 547.292 832.66 546.562C833.152 545.833 833.417 544.986 833.453 544.02H840.262C840.225 546.025 839.66 547.82 838.566 549.406C837.473 550.992 836.014 552.25 834.191 553.18C832.387 554.091 830.363 554.547 828.121 554.547C825.842 554.547 823.855 554.164 822.16 553.398C820.465 552.633 819.052 551.566 817.922 550.199C816.81 548.832 815.971 547.246 815.406 545.441C814.859 543.637 814.586 541.704 814.586 539.645V538.77C814.586 536.71 814.859 534.777 815.406 532.973C815.971 531.168 816.81 529.582 817.922 528.215C819.052 526.848 820.465 525.781 822.16 525.016C823.855 524.25 825.833 523.867 828.094 523.867C830.482 523.867 832.578 524.332 834.383 525.262C836.206 526.191 837.628 527.504 838.648 529.199C839.688 530.895 840.225 532.891 840.262 535.188H833.453C833.417 534.13 833.18 533.182 832.742 532.344C832.305 531.505 831.685 530.831 830.883 530.32C830.081 529.81 829.105 529.555 827.957 529.555C826.736 529.555 825.715 529.81 824.895 530.32C824.092 530.831 823.464 531.533 823.008 532.426C822.57 533.301 822.26 534.285 822.078 535.379C821.914 536.454 821.832 537.585 821.832 538.77V539.645C821.832 540.848 821.914 541.996 822.078 543.09C822.26 544.184 822.57 545.168 823.008 546.043C823.464 546.9 824.092 547.583 824.895 548.094C825.715 548.604 826.754 548.859 828.012 548.859ZM858.363 554.547C856.121 554.547 854.107 554.182 852.32 553.453C850.534 552.724 849.012 551.712 847.754 550.418C846.514 549.105 845.557 547.583 844.883 545.852C844.227 544.102 843.898 542.224 843.898 540.219V539.125C843.898 536.846 844.227 534.777 844.883 532.918C845.539 531.04 846.469 529.427 847.672 528.078C848.875 526.729 850.315 525.69 851.992 524.961C853.669 524.232 855.52 523.867 857.543 523.867C859.639 523.867 861.49 524.223 863.094 524.934C864.698 525.626 866.038 526.611 867.113 527.887C868.189 529.163 869 530.694 869.547 532.48C870.094 534.249 870.367 536.208 870.367 538.359V541.395H847.18V536.418H863.258V535.871C863.221 534.723 863.003 533.674 862.602 532.727C862.201 531.76 861.581 530.995 860.742 530.43C859.904 529.846 858.819 529.555 857.488 529.555C856.413 529.555 855.474 529.792 854.672 530.266C853.888 530.721 853.232 531.378 852.703 532.234C852.193 533.073 851.81 534.076 851.555 535.242C851.299 536.409 851.172 537.703 851.172 539.125V540.219C851.172 541.458 851.336 542.607 851.664 543.664C852.01 544.721 852.512 545.642 853.168 546.426C853.842 547.191 854.645 547.793 855.574 548.23C856.522 548.65 857.598 548.859 858.801 548.859C860.314 548.859 861.681 548.568 862.902 547.984C864.142 547.383 865.217 546.499 866.129 545.332L869.766 549.105C869.146 550.017 868.307 550.892 867.25 551.73C866.211 552.569 864.953 553.253 863.477 553.781C862 554.292 860.296 554.547 858.363 554.547Z" fill="#1C4670"/>
<path d="M134.702 545.646C157.166 545.646 178.71 536.722 194.595 520.837C210.48 504.952 219.403 483.408 219.403 460.944C219.403 438.48 210.48 416.935 194.595 401.051C178.71 385.166 157.166 376.242 134.702 376.242H50V460.944C50 472.067 52.1909 483.081 56.4475 493.358C60.7042 503.634 66.9433 512.972 74.8086 520.837C82.6738 528.702 92.0113 534.941 102.288 539.198C112.564 543.455 123.579 545.646 134.702 545.646Z" fill="#FFA229"/>
<g filter="url(#filter2_d_43_6075)">
<path d="M1079.97 723.305H85.75C74.7043 723.305 65.75 732.259 65.75 743.305V962.285C65.75 973.331 74.7043 982.285 85.75 982.285H1079.97C1091.02 982.285 1099.97 973.331 1099.97 962.285V743.305C1099.97 732.259 1091.02 723.305 1079.97 723.305Z" fill="white"/>
</g>
<path d="M368.152 813.188V853H360.66V813.188H368.152ZM380.512 813.188V819.121H348.438V813.188H380.512ZM395.688 853.547C393.445 853.547 391.431 853.182 389.645 852.453C387.858 851.724 386.336 850.712 385.078 849.418C383.839 848.105 382.882 846.583 382.207 844.852C381.551 843.102 381.223 841.224 381.223 839.219V838.125C381.223 835.846 381.551 833.777 382.207 831.918C382.863 830.04 383.793 828.427 384.996 827.078C386.199 825.729 387.639 824.69 389.316 823.961C390.993 823.232 392.844 822.867 394.867 822.867C396.964 822.867 398.814 823.223 400.418 823.934C402.022 824.626 403.362 825.611 404.438 826.887C405.513 828.163 406.324 829.694 406.871 831.48C407.418 833.249 407.691 835.208 407.691 837.359V840.395H384.504V835.418H400.582V834.871C400.546 833.723 400.327 832.674 399.926 831.727C399.525 830.76 398.905 829.995 398.066 829.43C397.228 828.846 396.143 828.555 394.812 828.555C393.737 828.555 392.798 828.792 391.996 829.266C391.212 829.721 390.556 830.378 390.027 831.234C389.517 832.073 389.134 833.076 388.879 834.242C388.624 835.409 388.496 836.703 388.496 838.125V839.219C388.496 840.458 388.66 841.607 388.988 842.664C389.335 843.721 389.836 844.642 390.492 845.426C391.167 846.191 391.969 846.793 392.898 847.23C393.846 847.65 394.922 847.859 396.125 847.859C397.638 847.859 399.005 847.568 400.227 846.984C401.466 846.383 402.542 845.499 403.453 844.332L407.09 848.105C406.47 849.017 405.632 849.892 404.574 850.73C403.535 851.569 402.277 852.253 400.801 852.781C399.324 853.292 397.62 853.547 395.688 853.547ZM428.828 846.711V833.066C428.828 832.064 428.655 831.198 428.309 830.469C427.962 829.74 427.434 829.174 426.723 828.773C426.012 828.372 425.109 828.172 424.016 828.172C423.049 828.172 422.202 828.336 421.473 828.664C420.762 828.992 420.215 829.457 419.832 830.059C419.449 830.642 419.258 831.316 419.258 832.082H412.012C412.012 830.861 412.303 829.703 412.887 828.609C413.47 827.497 414.299 826.513 415.375 825.656C416.469 824.781 417.772 824.098 419.285 823.605C420.816 823.113 422.53 822.867 424.426 822.867C426.668 822.867 428.664 823.25 430.414 824.016C432.182 824.763 433.568 825.893 434.57 827.406C435.591 828.919 436.102 830.824 436.102 833.121V846.027C436.102 847.504 436.193 848.771 436.375 849.828C436.576 850.867 436.867 851.77 437.25 852.535V853H429.895C429.548 852.253 429.284 851.305 429.102 850.156C428.919 848.99 428.828 847.841 428.828 846.711ZM429.84 834.98L429.895 839.273H425.328C424.198 839.273 423.204 839.392 422.348 839.629C421.491 839.848 420.789 840.176 420.242 840.613C419.695 841.033 419.285 841.543 419.012 842.145C418.738 842.728 418.602 843.393 418.602 844.141C418.602 844.87 418.766 845.526 419.094 846.109C419.44 846.693 419.932 847.158 420.57 847.504C421.227 847.832 421.992 847.996 422.867 847.996C424.143 847.996 425.255 847.741 426.203 847.23C427.151 846.702 427.889 846.064 428.418 845.316C428.947 844.569 429.229 843.858 429.266 843.184L431.344 846.301C431.089 847.048 430.706 847.841 430.195 848.68C429.685 849.518 429.029 850.302 428.227 851.031C427.424 851.76 426.458 852.362 425.328 852.836C424.198 853.31 422.885 853.547 421.391 853.547C419.477 853.547 417.763 853.164 416.25 852.398C414.737 851.633 413.543 850.585 412.668 849.254C411.793 847.923 411.355 846.41 411.355 844.715C411.355 843.147 411.647 841.762 412.23 840.559C412.814 839.355 413.68 838.344 414.828 837.523C415.977 836.685 417.398 836.056 419.094 835.637C420.807 835.199 422.767 834.98 424.973 834.98H429.84ZM466.891 845.371L474.82 813.188H479.113L479.387 819.969L470.91 853H466.371L466.891 845.371ZM461.887 813.188L468.395 845.262V853H463.445L454.422 813.188H461.887ZM487.617 845.125L494.016 813.188H501.508L492.484 853H487.535L487.617 845.125ZM481.164 813.188L489.094 845.48L489.559 853H485.02L476.57 819.941L476.898 813.188H481.164ZM521.086 846.711V833.066C521.086 832.064 520.913 831.198 520.566 830.469C520.22 829.74 519.691 829.174 518.98 828.773C518.27 828.372 517.367 828.172 516.273 828.172C515.307 828.172 514.46 828.336 513.73 828.664C513.02 828.992 512.473 829.457 512.09 830.059C511.707 830.642 511.516 831.316 511.516 832.082H504.27C504.27 830.861 504.561 829.703 505.145 828.609C505.728 827.497 506.557 826.513 507.633 825.656C508.727 824.781 510.03 824.098 511.543 823.605C513.074 823.113 514.788 822.867 516.684 822.867C518.926 822.867 520.922 823.25 522.672 824.016C524.44 824.763 525.826 825.893 526.828 827.406C527.849 828.919 528.359 830.824 528.359 833.121V846.027C528.359 847.504 528.451 848.771 528.633 849.828C528.833 850.867 529.125 851.77 529.508 852.535V853H522.152C521.806 852.253 521.542 851.305 521.359 850.156C521.177 848.99 521.086 847.841 521.086 846.711ZM522.098 834.98L522.152 839.273H517.586C516.456 839.273 515.462 839.392 514.605 839.629C513.749 839.848 513.047 840.176 512.5 840.613C511.953 841.033 511.543 841.543 511.27 842.145C510.996 842.728 510.859 843.393 510.859 844.141C510.859 844.87 511.023 845.526 511.352 846.109C511.698 846.693 512.19 847.158 512.828 847.504C513.484 847.832 514.25 847.996 515.125 847.996C516.401 847.996 517.513 847.741 518.461 847.23C519.409 846.702 520.147 846.064 520.676 845.316C521.204 844.569 521.487 843.858 521.523 843.184L523.602 846.301C523.346 847.048 522.964 847.841 522.453 848.68C521.943 849.518 521.286 850.302 520.484 851.031C519.682 851.76 518.716 852.362 517.586 852.836C516.456 853.31 515.143 853.547 513.648 853.547C511.734 853.547 510.021 853.164 508.508 852.398C506.995 851.633 505.801 850.585 504.926 849.254C504.051 847.923 503.613 846.41 503.613 844.715C503.613 843.147 503.905 841.762 504.488 840.559C505.072 839.355 505.938 838.344 507.086 837.523C508.234 836.685 509.656 836.056 511.352 835.637C513.065 835.199 515.025 834.98 517.23 834.98H522.098ZM551.137 844.906C551.137 844.286 550.973 843.73 550.645 843.238C550.316 842.746 549.697 842.299 548.785 841.898C547.892 841.479 546.579 841.087 544.848 840.723C543.316 840.395 541.904 839.984 540.609 839.492C539.315 839 538.203 838.408 537.273 837.715C536.344 837.004 535.615 836.174 535.086 835.227C534.576 834.26 534.32 833.148 534.32 831.891C534.32 830.669 534.585 829.521 535.113 828.445C535.642 827.352 536.408 826.395 537.41 825.574C538.413 824.736 539.634 824.079 541.074 823.605C542.514 823.113 544.137 822.867 545.941 822.867C548.457 822.867 550.617 823.277 552.422 824.098C554.245 824.918 555.639 826.048 556.605 827.488C557.572 828.91 558.055 830.514 558.055 832.301H550.836C550.836 831.517 550.654 830.806 550.289 830.168C549.943 829.53 549.405 829.02 548.676 828.637C547.947 828.236 547.026 828.035 545.914 828.035C544.911 828.035 544.064 828.199 543.371 828.527C542.697 828.855 542.186 829.284 541.84 829.812C541.493 830.341 541.32 830.924 541.32 831.562C541.32 832.036 541.411 832.465 541.594 832.848C541.794 833.212 542.113 833.549 542.551 833.859C542.988 834.169 543.581 834.452 544.328 834.707C545.094 834.962 546.033 835.208 547.145 835.445C549.35 835.883 551.273 836.466 552.914 837.195C554.573 837.906 555.867 838.854 556.797 840.039C557.727 841.224 558.191 842.737 558.191 844.578C558.191 845.891 557.909 847.094 557.344 848.188C556.779 849.263 555.958 850.202 554.883 851.004C553.807 851.806 552.522 852.435 551.027 852.891C549.533 853.328 547.846 853.547 545.969 853.547C543.253 853.547 540.956 853.064 539.078 852.098C537.201 851.113 535.779 849.874 534.812 848.379C533.846 846.866 533.363 845.298 533.363 843.676H540.281C540.336 844.824 540.646 845.745 541.211 846.438C541.776 847.13 542.487 847.632 543.344 847.941C544.219 848.233 545.139 848.379 546.105 848.379C547.199 848.379 548.12 848.233 548.867 847.941C549.615 847.632 550.18 847.221 550.562 846.711C550.945 846.182 551.137 845.581 551.137 844.906ZM577.688 823.414V828.609H560.734V823.414H577.688ZM565.273 816.141H572.52V844.469C572.52 845.344 572.638 846.018 572.875 846.492C573.112 846.966 573.467 847.285 573.941 847.449C574.415 847.613 574.98 847.695 575.637 847.695C576.111 847.695 576.548 847.668 576.949 847.613C577.35 847.559 577.688 847.504 577.961 847.449L577.988 852.863C577.387 853.064 576.703 853.228 575.938 853.355C575.19 853.483 574.342 853.547 573.395 853.547C571.772 853.547 570.35 853.273 569.129 852.727C567.908 852.161 566.96 851.259 566.285 850.02C565.611 848.762 565.273 847.103 565.273 845.043V816.141ZM595.789 853.547C593.547 853.547 591.533 853.182 589.746 852.453C587.96 851.724 586.438 850.712 585.18 849.418C583.94 848.105 582.983 846.583 582.309 844.852C581.652 843.102 581.324 841.224 581.324 839.219V838.125C581.324 835.846 581.652 833.777 582.309 831.918C582.965 830.04 583.895 828.427 585.098 827.078C586.301 825.729 587.741 824.69 589.418 823.961C591.095 823.232 592.945 822.867 594.969 822.867C597.065 822.867 598.915 823.223 600.52 823.934C602.124 824.626 603.464 825.611 604.539 826.887C605.615 828.163 606.426 829.694 606.973 831.48C607.52 833.249 607.793 835.208 607.793 837.359V840.395H584.605V835.418H600.684V834.871C600.647 833.723 600.428 832.674 600.027 831.727C599.626 830.76 599.007 829.995 598.168 829.43C597.329 828.846 596.245 828.555 594.914 828.555C593.839 828.555 592.9 828.792 592.098 829.266C591.314 829.721 590.658 830.378 590.129 831.234C589.618 832.073 589.236 833.076 588.98 834.242C588.725 835.409 588.598 836.703 588.598 838.125V839.219C588.598 840.458 588.762 841.607 589.09 842.664C589.436 843.721 589.938 844.642 590.594 845.426C591.268 846.191 592.07 846.793 593 847.23C593.948 847.65 595.023 847.859 596.227 847.859C597.74 847.859 599.107 847.568 600.328 846.984C601.568 846.383 602.643 845.499 603.555 844.332L607.191 848.105C606.572 849.017 605.733 849.892 604.676 850.73C603.637 851.569 602.379 852.253 600.902 852.781C599.426 853.292 597.721 853.547 595.789 853.547ZM652.391 847.094V853H632.375V847.094H652.391ZM634.645 813.188V853H627.125V813.188H634.645ZM664.531 823.414V853H657.285V823.414H664.531ZM656.793 815.676C656.793 814.6 657.158 813.707 657.887 812.996C658.634 812.285 659.637 811.93 660.895 811.93C662.152 811.93 663.146 812.285 663.875 812.996C664.622 813.707 664.996 814.6 664.996 815.676C664.996 816.733 664.622 817.617 663.875 818.328C663.146 819.039 662.152 819.395 660.895 819.395C659.637 819.395 658.634 819.039 657.887 818.328C657.158 817.617 656.793 816.733 656.793 815.676ZM683.562 847.859C684.583 847.859 685.495 847.659 686.297 847.258C687.099 846.857 687.737 846.292 688.211 845.562C688.703 844.833 688.967 843.986 689.004 843.02H695.812C695.776 845.025 695.211 846.82 694.117 848.406C693.023 849.992 691.565 851.25 689.742 852.18C687.938 853.091 685.914 853.547 683.672 853.547C681.393 853.547 679.406 853.164 677.711 852.398C676.016 851.633 674.603 850.566 673.473 849.199C672.361 847.832 671.522 846.246 670.957 844.441C670.41 842.637 670.137 840.704 670.137 838.645V837.77C670.137 835.71 670.41 833.777 670.957 831.973C671.522 830.168 672.361 828.582 673.473 827.215C674.603 825.848 676.016 824.781 677.711 824.016C679.406 823.25 681.384 822.867 683.645 822.867C686.033 822.867 688.129 823.332 689.934 824.262C691.757 825.191 693.178 826.504 694.199 828.199C695.238 829.895 695.776 831.891 695.812 834.188H689.004C688.967 833.13 688.73 832.182 688.293 831.344C687.855 830.505 687.236 829.831 686.434 829.32C685.632 828.81 684.656 828.555 683.508 828.555C682.286 828.555 681.266 828.81 680.445 829.32C679.643 829.831 679.014 830.533 678.559 831.426C678.121 832.301 677.811 833.285 677.629 834.379C677.465 835.454 677.383 836.585 677.383 837.77V838.645C677.383 839.848 677.465 840.996 677.629 842.09C677.811 843.184 678.121 844.168 678.559 845.043C679.014 845.9 679.643 846.583 680.445 847.094C681.266 847.604 682.305 847.859 683.562 847.859ZM713.914 853.547C711.672 853.547 709.658 853.182 707.871 852.453C706.085 851.724 704.562 850.712 703.305 849.418C702.065 848.105 701.108 846.583 700.434 844.852C699.777 843.102 699.449 841.224 699.449 839.219V838.125C699.449 835.846 699.777 833.777 700.434 831.918C701.09 830.04 702.02 828.427 703.223 827.078C704.426 825.729 705.866 824.69 707.543 823.961C709.22 823.232 711.07 822.867 713.094 822.867C715.19 822.867 717.04 823.223 718.645 823.934C720.249 824.626 721.589 825.611 722.664 826.887C723.74 828.163 724.551 829.694 725.098 831.48C725.645 833.249 725.918 835.208 725.918 837.359V840.395H702.73V835.418H718.809V834.871C718.772 833.723 718.553 832.674 718.152 831.727C717.751 830.76 717.132 829.995 716.293 829.43C715.454 828.846 714.37 828.555 713.039 828.555C711.964 828.555 711.025 828.792 710.223 829.266C709.439 829.721 708.783 830.378 708.254 831.234C707.743 832.073 707.361 833.076 707.105 834.242C706.85 835.409 706.723 836.703 706.723 838.125V839.219C706.723 840.458 706.887 841.607 707.215 842.664C707.561 843.721 708.062 844.642 708.719 845.426C709.393 846.191 710.195 846.793 711.125 847.23C712.073 847.65 713.148 847.859 714.352 847.859C715.865 847.859 717.232 847.568 718.453 846.984C719.693 846.383 720.768 845.499 721.68 844.332L725.316 848.105C724.697 849.017 723.858 849.892 722.801 850.73C721.762 851.569 720.504 852.253 719.027 852.781C717.551 853.292 715.846 853.547 713.914 853.547ZM737.84 829.73V853H730.621V823.414H737.402L737.84 829.73ZM736.691 837.141H734.559C734.577 834.99 734.868 833.039 735.434 831.289C735.999 829.539 736.792 828.035 737.812 826.777C738.852 825.52 740.082 824.553 741.504 823.879C742.926 823.204 744.512 822.867 746.262 822.867C747.684 822.867 748.969 823.068 750.117 823.469C751.266 823.87 752.25 824.508 753.07 825.383C753.909 826.258 754.547 827.406 754.984 828.828C755.44 830.232 755.668 831.964 755.668 834.023V853H748.395V833.969C748.395 832.62 748.194 831.553 747.793 830.77C747.41 829.986 746.845 829.43 746.098 829.102C745.368 828.773 744.466 828.609 743.391 828.609C742.279 828.609 741.303 828.837 740.465 829.293C739.645 829.73 738.952 830.341 738.387 831.125C737.84 831.909 737.421 832.811 737.129 833.832C736.837 834.853 736.691 835.956 736.691 837.141ZM778.309 844.906C778.309 844.286 778.145 843.73 777.816 843.238C777.488 842.746 776.868 842.299 775.957 841.898C775.064 841.479 773.751 841.087 772.02 840.723C770.488 840.395 769.076 839.984 767.781 839.492C766.487 839 765.375 838.408 764.445 837.715C763.516 837.004 762.786 836.174 762.258 835.227C761.747 834.26 761.492 833.148 761.492 831.891C761.492 830.669 761.757 829.521 762.285 828.445C762.814 827.352 763.579 826.395 764.582 825.574C765.585 824.736 766.806 824.079 768.246 823.605C769.686 823.113 771.309 822.867 773.113 822.867C775.629 822.867 777.789 823.277 779.594 824.098C781.417 824.918 782.811 826.048 783.777 827.488C784.743 828.91 785.227 830.514 785.227 832.301H778.008C778.008 831.517 777.826 830.806 777.461 830.168C777.115 829.53 776.577 829.02 775.848 828.637C775.118 828.236 774.198 828.035 773.086 828.035C772.083 828.035 771.236 828.199 770.543 828.527C769.868 828.855 769.358 829.284 769.012 829.812C768.665 830.341 768.492 830.924 768.492 831.562C768.492 832.036 768.583 832.465 768.766 832.848C768.966 833.212 769.285 833.549 769.723 833.859C770.16 834.169 770.753 834.452 771.5 834.707C772.266 834.962 773.204 835.208 774.316 835.445C776.522 835.883 778.445 836.466 780.086 837.195C781.745 837.906 783.039 838.854 783.969 840.039C784.898 841.224 785.363 842.737 785.363 844.578C785.363 845.891 785.081 847.094 784.516 848.188C783.951 849.263 783.13 850.202 782.055 851.004C780.979 851.806 779.694 852.435 778.199 852.891C776.704 853.328 775.018 853.547 773.141 853.547C770.424 853.547 768.128 853.064 766.25 852.098C764.372 851.113 762.951 849.874 761.984 848.379C761.018 846.866 760.535 845.298 760.535 843.676H767.453C767.508 844.824 767.818 845.745 768.383 846.438C768.948 847.13 769.659 847.632 770.516 847.941C771.391 848.233 772.311 848.379 773.277 848.379C774.371 848.379 775.292 848.233 776.039 847.941C776.786 847.632 777.352 847.221 777.734 846.711C778.117 846.182 778.309 845.581 778.309 844.906ZM804.148 853.547C801.906 853.547 799.892 853.182 798.105 852.453C796.319 851.724 794.797 850.712 793.539 849.418C792.299 848.105 791.342 846.583 790.668 844.852C790.012 843.102 789.684 841.224 789.684 839.219V838.125C789.684 835.846 790.012 833.777 790.668 831.918C791.324 830.04 792.254 828.427 793.457 827.078C794.66 825.729 796.1 824.69 797.777 823.961C799.454 823.232 801.305 822.867 803.328 822.867C805.424 822.867 807.275 823.223 808.879 823.934C810.483 824.626 811.823 825.611 812.898 826.887C813.974 828.163 814.785 829.694 815.332 831.48C815.879 833.249 816.152 835.208 816.152 837.359V840.395H792.965V835.418H809.043V834.871C809.007 833.723 808.788 832.674 808.387 831.727C807.986 830.76 807.366 829.995 806.527 829.43C805.689 828.846 804.604 828.555 803.273 828.555C802.198 828.555 801.259 828.792 800.457 829.266C799.673 829.721 799.017 830.378 798.488 831.234C797.978 832.073 797.595 833.076 797.34 834.242C797.085 835.409 796.957 836.703 796.957 838.125V839.219C796.957 840.458 797.121 841.607 797.449 842.664C797.796 843.721 798.297 844.642 798.953 845.426C799.628 846.191 800.43 846.793 801.359 847.23C802.307 847.65 803.383 847.859 804.586 847.859C806.099 847.859 807.466 847.568 808.688 846.984C809.927 846.383 811.003 845.499 811.914 844.332L815.551 848.105C814.931 849.017 814.092 849.892 813.035 850.73C811.996 851.569 810.738 852.253 809.262 852.781C807.785 853.292 806.081 853.547 804.148 853.547Z" fill="#1C4670"/>
<path d="M134.702 863.888C157.166 863.888 178.71 854.964 194.595 839.079C210.48 823.195 219.403 801.65 219.403 779.186C219.403 756.722 210.48 735.178 194.595 719.293C178.71 703.408 157.166 694.484 134.702 694.484H50V779.186C50 790.309 52.1909 801.324 56.4475 811.6C60.7042 821.877 66.9433 831.214 74.8086 839.079C82.6738 846.945 92.0113 853.184 102.288 857.44C112.564 861.697 123.579 863.888 134.702 863.888Z" fill="#1C4670"/>
<g filter="url(#filter3_d_43_6075)">
<path d="M1079.97 1042.54H85.75C74.7043 1042.54 65.75 1051.49 65.75 1062.54V1281.52C65.75 1292.57 74.7043 1301.52 85.75 1301.52H1079.97C1091.02 1301.52 1099.97 1292.57 1099.97 1281.52V1062.54C1099.97 1051.49 1091.02 1042.54 1079.97 1042.54Z" fill="white"/>
</g>
<path d="M367.215 1174.09V1180H347.199V1174.09H367.215ZM349.469 1140.19V1180H341.949V1140.19H349.469ZM379.355 1150.41V1180H372.109V1150.41H379.355ZM371.617 1142.68C371.617 1141.6 371.982 1140.71 372.711 1140C373.458 1139.29 374.461 1138.93 375.719 1138.93C376.977 1138.93 377.97 1139.29 378.699 1140C379.447 1140.71 379.82 1141.6 379.82 1142.68C379.82 1143.73 379.447 1144.62 378.699 1145.33C377.97 1146.04 376.977 1146.39 375.719 1146.39C374.461 1146.39 373.458 1146.04 372.711 1145.33C371.982 1144.62 371.617 1143.73 371.617 1142.68ZM398.387 1174.86C399.408 1174.86 400.319 1174.66 401.121 1174.26C401.923 1173.86 402.561 1173.29 403.035 1172.56C403.527 1171.83 403.792 1170.99 403.828 1170.02H410.637C410.6 1172.02 410.035 1173.82 408.941 1175.41C407.848 1176.99 406.389 1178.25 404.566 1179.18C402.762 1180.09 400.738 1180.55 398.496 1180.55C396.217 1180.55 394.23 1180.16 392.535 1179.4C390.84 1178.63 389.427 1177.57 388.297 1176.2C387.185 1174.83 386.346 1173.25 385.781 1171.44C385.234 1169.64 384.961 1167.7 384.961 1165.64V1164.77C384.961 1162.71 385.234 1160.78 385.781 1158.97C386.346 1157.17 387.185 1155.58 388.297 1154.21C389.427 1152.85 390.84 1151.78 392.535 1151.02C394.23 1150.25 396.208 1149.87 398.469 1149.87C400.857 1149.87 402.953 1150.33 404.758 1151.26C406.581 1152.19 408.003 1153.5 409.023 1155.2C410.062 1156.89 410.6 1158.89 410.637 1161.19H403.828C403.792 1160.13 403.555 1159.18 403.117 1158.34C402.68 1157.51 402.06 1156.83 401.258 1156.32C400.456 1155.81 399.48 1155.55 398.332 1155.55C397.111 1155.55 396.09 1155.81 395.27 1156.32C394.467 1156.83 393.839 1157.53 393.383 1158.43C392.945 1159.3 392.635 1160.29 392.453 1161.38C392.289 1162.45 392.207 1163.58 392.207 1164.77V1165.64C392.207 1166.85 392.289 1168 392.453 1169.09C392.635 1170.18 392.945 1171.17 393.383 1172.04C393.839 1172.9 394.467 1173.58 395.27 1174.09C396.09 1174.6 397.129 1174.86 398.387 1174.86ZM428.738 1180.55C426.496 1180.55 424.482 1180.18 422.695 1179.45C420.909 1178.72 419.387 1177.71 418.129 1176.42C416.889 1175.11 415.932 1173.58 415.258 1171.85C414.602 1170.1 414.273 1168.22 414.273 1166.22V1165.12C414.273 1162.85 414.602 1160.78 415.258 1158.92C415.914 1157.04 416.844 1155.43 418.047 1154.08C419.25 1152.73 420.69 1151.69 422.367 1150.96C424.044 1150.23 425.895 1149.87 427.918 1149.87C430.014 1149.87 431.865 1150.22 433.469 1150.93C435.073 1151.63 436.413 1152.61 437.488 1153.89C438.564 1155.16 439.375 1156.69 439.922 1158.48C440.469 1160.25 440.742 1162.21 440.742 1164.36V1167.39H417.555V1162.42H433.633V1161.87C433.596 1160.72 433.378 1159.67 432.977 1158.73C432.576 1157.76 431.956 1156.99 431.117 1156.43C430.279 1155.85 429.194 1155.55 427.863 1155.55C426.788 1155.55 425.849 1155.79 425.047 1156.27C424.263 1156.72 423.607 1157.38 423.078 1158.23C422.568 1159.07 422.185 1160.08 421.93 1161.24C421.674 1162.41 421.547 1163.7 421.547 1165.12V1166.22C421.547 1167.46 421.711 1168.61 422.039 1169.66C422.385 1170.72 422.887 1171.64 423.543 1172.43C424.217 1173.19 425.02 1173.79 425.949 1174.23C426.897 1174.65 427.973 1174.86 429.176 1174.86C430.689 1174.86 432.056 1174.57 433.277 1173.98C434.517 1173.38 435.592 1172.5 436.504 1171.33L440.141 1175.11C439.521 1176.02 438.682 1176.89 437.625 1177.73C436.586 1178.57 435.328 1179.25 433.852 1179.78C432.375 1180.29 430.671 1180.55 428.738 1180.55ZM452.664 1156.73V1180H445.445V1150.41H452.227L452.664 1156.73ZM451.516 1164.14H449.383C449.401 1161.99 449.693 1160.04 450.258 1158.29C450.823 1156.54 451.616 1155.04 452.637 1153.78C453.676 1152.52 454.906 1151.55 456.328 1150.88C457.75 1150.2 459.336 1149.87 461.086 1149.87C462.508 1149.87 463.793 1150.07 464.941 1150.47C466.09 1150.87 467.074 1151.51 467.895 1152.38C468.733 1153.26 469.371 1154.41 469.809 1155.83C470.264 1157.23 470.492 1158.96 470.492 1161.02V1180H463.219V1160.97C463.219 1159.62 463.018 1158.55 462.617 1157.77C462.234 1156.99 461.669 1156.43 460.922 1156.1C460.193 1155.77 459.29 1155.61 458.215 1155.61C457.103 1155.61 456.128 1155.84 455.289 1156.29C454.469 1156.73 453.776 1157.34 453.211 1158.12C452.664 1158.91 452.245 1159.81 451.953 1160.83C451.661 1161.85 451.516 1162.96 451.516 1164.14ZM493.133 1171.91C493.133 1171.29 492.969 1170.73 492.641 1170.24C492.312 1169.75 491.693 1169.3 490.781 1168.9C489.888 1168.48 488.576 1168.09 486.844 1167.72C485.312 1167.39 483.9 1166.98 482.605 1166.49C481.311 1166 480.199 1165.41 479.27 1164.71C478.34 1164 477.611 1163.17 477.082 1162.23C476.572 1161.26 476.316 1160.15 476.316 1158.89C476.316 1157.67 476.581 1156.52 477.109 1155.45C477.638 1154.35 478.404 1153.39 479.406 1152.57C480.409 1151.74 481.63 1151.08 483.07 1150.61C484.51 1150.11 486.133 1149.87 487.938 1149.87C490.453 1149.87 492.613 1150.28 494.418 1151.1C496.241 1151.92 497.635 1153.05 498.602 1154.49C499.568 1155.91 500.051 1157.51 500.051 1159.3H492.832C492.832 1158.52 492.65 1157.81 492.285 1157.17C491.939 1156.53 491.401 1156.02 490.672 1155.64C489.943 1155.24 489.022 1155.04 487.91 1155.04C486.908 1155.04 486.06 1155.2 485.367 1155.53C484.693 1155.86 484.182 1156.28 483.836 1156.81C483.49 1157.34 483.316 1157.92 483.316 1158.56C483.316 1159.04 483.408 1159.46 483.59 1159.85C483.79 1160.21 484.109 1160.55 484.547 1160.86C484.984 1161.17 485.577 1161.45 486.324 1161.71C487.09 1161.96 488.029 1162.21 489.141 1162.45C491.346 1162.88 493.27 1163.47 494.91 1164.2C496.569 1164.91 497.863 1165.85 498.793 1167.04C499.723 1168.22 500.188 1169.74 500.188 1171.58C500.188 1172.89 499.905 1174.09 499.34 1175.19C498.775 1176.26 497.954 1177.2 496.879 1178C495.803 1178.81 494.518 1179.43 493.023 1179.89C491.529 1180.33 489.842 1180.55 487.965 1180.55C485.249 1180.55 482.952 1180.06 481.074 1179.1C479.197 1178.11 477.775 1176.87 476.809 1175.38C475.842 1173.87 475.359 1172.3 475.359 1170.68H482.277C482.332 1171.82 482.642 1172.74 483.207 1173.44C483.772 1174.13 484.483 1174.63 485.34 1174.94C486.215 1175.23 487.135 1175.38 488.102 1175.38C489.195 1175.38 490.116 1175.23 490.863 1174.94C491.611 1174.63 492.176 1174.22 492.559 1173.71C492.941 1173.18 493.133 1172.58 493.133 1171.91ZM518.973 1180.55C516.73 1180.55 514.716 1180.18 512.93 1179.45C511.143 1178.72 509.621 1177.71 508.363 1176.42C507.124 1175.11 506.167 1173.58 505.492 1171.85C504.836 1170.1 504.508 1168.22 504.508 1166.22V1165.12C504.508 1162.85 504.836 1160.78 505.492 1158.92C506.148 1157.04 507.078 1155.43 508.281 1154.08C509.484 1152.73 510.924 1151.69 512.602 1150.96C514.279 1150.23 516.129 1149.87 518.152 1149.87C520.249 1149.87 522.099 1150.22 523.703 1150.93C525.307 1151.63 526.647 1152.61 527.723 1153.89C528.798 1155.16 529.609 1156.69 530.156 1158.48C530.703 1160.25 530.977 1162.21 530.977 1164.36V1167.39H507.789V1162.42H523.867V1161.87C523.831 1160.72 523.612 1159.67 523.211 1158.73C522.81 1157.76 522.19 1156.99 521.352 1156.43C520.513 1155.85 519.428 1155.55 518.098 1155.55C517.022 1155.55 516.083 1155.79 515.281 1156.27C514.497 1156.72 513.841 1157.38 513.312 1158.23C512.802 1159.07 512.419 1160.08 512.164 1161.24C511.909 1162.41 511.781 1163.7 511.781 1165.12V1166.22C511.781 1167.46 511.945 1168.61 512.273 1169.66C512.62 1170.72 513.121 1171.64 513.777 1172.43C514.452 1173.19 515.254 1173.79 516.184 1174.23C517.132 1174.65 518.207 1174.86 519.41 1174.86C520.923 1174.86 522.29 1174.57 523.512 1173.98C524.751 1173.38 525.827 1172.5 526.738 1171.33L530.375 1175.11C529.755 1176.02 528.917 1176.89 527.859 1177.73C526.82 1178.57 525.562 1179.25 524.086 1179.78C522.609 1180.29 520.905 1180.55 518.973 1180.55ZM559.223 1180H551.949V1147.68C551.949 1145.46 552.378 1143.59 553.234 1142.07C554.091 1140.54 555.312 1139.39 556.898 1138.6C558.484 1137.82 560.353 1137.43 562.504 1137.43C563.215 1137.43 563.889 1137.47 564.527 1137.56C565.184 1137.65 565.831 1137.78 566.469 1137.95L566.332 1143.44C565.986 1143.35 565.603 1143.29 565.184 1143.25C564.783 1143.21 564.336 1143.2 563.844 1143.2C562.859 1143.2 562.021 1143.37 561.328 1143.71C560.635 1144.06 560.107 1144.57 559.742 1145.25C559.396 1145.9 559.223 1146.71 559.223 1147.68V1180ZM565.211 1150.41V1155.61H547.492V1150.41H565.211ZM568.383 1165.51V1164.93C568.383 1162.76 568.693 1160.77 569.312 1158.95C569.932 1157.1 570.835 1155.51 572.02 1154.16C573.204 1152.81 574.654 1151.76 576.367 1151.02C578.081 1150.25 580.031 1149.87 582.219 1149.87C584.443 1149.87 586.411 1150.25 588.125 1151.02C589.857 1151.76 591.315 1152.81 592.5 1154.16C593.685 1155.51 594.587 1157.1 595.207 1158.95C595.827 1160.77 596.137 1162.76 596.137 1164.93V1165.51C596.137 1167.66 595.827 1169.65 595.207 1171.5C594.587 1173.32 593.685 1174.91 592.5 1176.28C591.315 1177.63 589.866 1178.68 588.152 1179.43C586.439 1180.17 584.479 1180.55 582.273 1180.55C580.086 1180.55 578.126 1180.17 576.395 1179.43C574.663 1178.68 573.204 1177.63 572.02 1176.28C570.835 1174.91 569.932 1173.32 569.312 1171.5C568.693 1169.65 568.383 1167.66 568.383 1165.51ZM575.602 1164.93V1165.51C575.602 1166.8 575.729 1168.01 575.984 1169.14C576.24 1170.27 576.632 1171.27 577.16 1172.12C577.689 1172.98 578.372 1173.66 579.211 1174.15C580.068 1174.62 581.089 1174.86 582.273 1174.86C583.44 1174.86 584.443 1174.62 585.281 1174.15C586.12 1173.66 586.803 1172.98 587.332 1172.12C587.879 1171.27 588.28 1170.27 588.535 1169.14C588.79 1168.01 588.918 1166.8 588.918 1165.51V1164.93C588.918 1163.66 588.79 1162.46 588.535 1161.35C588.28 1160.22 587.879 1159.23 587.332 1158.37C586.803 1157.5 586.111 1156.81 585.254 1156.32C584.415 1155.81 583.404 1155.55 582.219 1155.55C581.052 1155.55 580.049 1155.81 579.211 1156.32C578.372 1156.81 577.689 1157.5 577.16 1158.37C576.632 1159.23 576.24 1160.22 575.984 1161.35C575.729 1162.46 575.602 1163.66 575.602 1164.93ZM608.605 1156.46V1180H601.387V1150.41H608.223L608.605 1156.46ZM617.602 1150.22L617.492 1156.95C617.091 1156.88 616.635 1156.82 616.125 1156.79C615.633 1156.75 615.168 1156.73 614.73 1156.73C613.618 1156.73 612.643 1156.89 611.805 1157.2C610.966 1157.49 610.264 1157.92 609.699 1158.48C609.152 1159.05 608.733 1159.74 608.441 1160.56C608.15 1161.36 607.986 1162.27 607.949 1163.29L606.391 1163.1C606.391 1161.22 606.582 1159.48 606.965 1157.88C607.348 1156.27 607.904 1154.87 608.633 1153.67C609.362 1152.46 610.273 1151.54 611.367 1150.88C612.479 1150.2 613.755 1149.87 615.195 1149.87C615.596 1149.87 616.025 1149.9 616.48 1149.98C616.954 1150.03 617.328 1150.11 617.602 1150.22ZM651.781 1140.19V1180H644.289V1140.19H651.781ZM664.141 1140.19V1146.12H632.066V1140.19H664.141ZM679.316 1180.55C677.074 1180.55 675.06 1180.18 673.273 1179.45C671.487 1178.72 669.965 1177.71 668.707 1176.42C667.467 1175.11 666.51 1173.58 665.836 1171.85C665.18 1170.1 664.852 1168.22 664.852 1166.22V1165.12C664.852 1162.85 665.18 1160.78 665.836 1158.92C666.492 1157.04 667.422 1155.43 668.625 1154.08C669.828 1152.73 671.268 1151.69 672.945 1150.96C674.622 1150.23 676.473 1149.87 678.496 1149.87C680.592 1149.87 682.443 1150.22 684.047 1150.93C685.651 1151.63 686.991 1152.61 688.066 1153.89C689.142 1155.16 689.953 1156.69 690.5 1158.48C691.047 1160.25 691.32 1162.21 691.32 1164.36V1167.39H668.133V1162.42H684.211V1161.87C684.174 1160.72 683.956 1159.67 683.555 1158.73C683.154 1157.76 682.534 1156.99 681.695 1156.43C680.857 1155.85 679.772 1155.55 678.441 1155.55C677.366 1155.55 676.427 1155.79 675.625 1156.27C674.841 1156.72 674.185 1157.38 673.656 1158.23C673.146 1159.07 672.763 1160.08 672.508 1161.24C672.253 1162.41 672.125 1163.7 672.125 1165.12V1166.22C672.125 1167.46 672.289 1168.61 672.617 1169.66C672.964 1170.72 673.465 1171.64 674.121 1172.43C674.796 1173.19 675.598 1173.79 676.527 1174.23C677.475 1174.65 678.551 1174.86 679.754 1174.86C681.267 1174.86 682.634 1174.57 683.855 1173.98C685.095 1173.38 686.171 1172.5 687.082 1171.33L690.719 1175.11C690.099 1176.02 689.26 1176.89 688.203 1177.73C687.164 1178.57 685.906 1179.25 684.43 1179.78C682.953 1180.29 681.249 1180.55 679.316 1180.55ZM712.457 1173.71V1160.07C712.457 1159.06 712.284 1158.2 711.938 1157.47C711.591 1156.74 711.062 1156.17 710.352 1155.77C709.641 1155.37 708.738 1155.17 707.645 1155.17C706.678 1155.17 705.831 1155.34 705.102 1155.66C704.391 1155.99 703.844 1156.46 703.461 1157.06C703.078 1157.64 702.887 1158.32 702.887 1159.08H695.641C695.641 1157.86 695.932 1156.7 696.516 1155.61C697.099 1154.5 697.928 1153.51 699.004 1152.66C700.098 1151.78 701.401 1151.1 702.914 1150.61C704.445 1150.11 706.159 1149.87 708.055 1149.87C710.297 1149.87 712.293 1150.25 714.043 1151.02C715.811 1151.76 717.197 1152.89 718.199 1154.41C719.22 1155.92 719.73 1157.82 719.73 1160.12V1173.03C719.73 1174.5 719.822 1175.77 720.004 1176.83C720.204 1177.87 720.496 1178.77 720.879 1179.54V1180H713.523C713.177 1179.25 712.913 1178.3 712.73 1177.16C712.548 1175.99 712.457 1174.84 712.457 1173.71ZM713.469 1161.98L713.523 1166.27H708.957C707.827 1166.27 706.833 1166.39 705.977 1166.63C705.12 1166.85 704.418 1167.18 703.871 1167.61C703.324 1168.03 702.914 1168.54 702.641 1169.14C702.367 1169.73 702.23 1170.39 702.23 1171.14C702.23 1171.87 702.395 1172.53 702.723 1173.11C703.069 1173.69 703.561 1174.16 704.199 1174.5C704.855 1174.83 705.621 1175 706.496 1175C707.772 1175 708.884 1174.74 709.832 1174.23C710.78 1173.7 711.518 1173.06 712.047 1172.32C712.576 1171.57 712.858 1170.86 712.895 1170.18L714.973 1173.3C714.717 1174.05 714.335 1174.84 713.824 1175.68C713.314 1176.52 712.658 1177.3 711.855 1178.03C711.053 1178.76 710.087 1179.36 708.957 1179.84C707.827 1180.31 706.514 1180.55 705.02 1180.55C703.105 1180.55 701.392 1180.16 699.879 1179.4C698.366 1178.63 697.172 1177.58 696.297 1176.25C695.422 1174.92 694.984 1173.41 694.984 1171.71C694.984 1170.15 695.276 1168.76 695.859 1167.56C696.443 1166.36 697.309 1165.34 698.457 1164.52C699.605 1163.68 701.027 1163.06 702.723 1162.64C704.436 1162.2 706.396 1161.98 708.602 1161.98H713.469ZM756.562 1146.23L745.215 1180H737.258L752.133 1140.19H757.219L756.562 1146.23ZM766.051 1180L754.648 1146.23L753.965 1140.19H759.078L774.035 1180H766.051ZM765.531 1165.21V1171.14H744.176V1165.21H765.531ZM794.871 1172.97V1150.41H802.145V1180H795.309L794.871 1172.97ZM795.801 1166.85L798.043 1166.79C798.043 1168.78 797.824 1170.61 797.387 1172.29C796.949 1173.97 796.266 1175.42 795.336 1176.66C794.424 1177.89 793.267 1178.84 791.863 1179.54C790.46 1180.21 788.801 1180.55 786.887 1180.55C785.428 1180.55 784.098 1180.35 782.895 1179.95C781.691 1179.53 780.652 1178.88 779.777 1178C778.921 1177.11 778.255 1175.97 777.781 1174.59C777.307 1173.18 777.07 1171.5 777.07 1169.53V1150.41H784.289V1169.58C784.289 1170.57 784.398 1171.39 784.617 1172.04C784.854 1172.7 785.173 1173.24 785.574 1173.66C785.993 1174.06 786.477 1174.35 787.023 1174.53C787.589 1174.7 788.19 1174.78 788.828 1174.78C790.578 1174.78 791.954 1174.43 792.957 1173.74C793.978 1173.03 794.707 1172.08 795.145 1170.89C795.582 1169.69 795.801 1168.34 795.801 1166.85ZM820.684 1174.86C821.704 1174.86 822.616 1174.66 823.418 1174.26C824.22 1173.86 824.858 1173.29 825.332 1172.56C825.824 1171.83 826.089 1170.99 826.125 1170.02H832.934C832.897 1172.02 832.332 1173.82 831.238 1175.41C830.145 1176.99 828.686 1178.25 826.863 1179.18C825.059 1180.09 823.035 1180.55 820.793 1180.55C818.514 1180.55 816.527 1180.16 814.832 1179.4C813.137 1178.63 811.724 1177.57 810.594 1176.2C809.482 1174.83 808.643 1173.25 808.078 1171.44C807.531 1169.64 807.258 1167.7 807.258 1165.64V1164.77C807.258 1162.71 807.531 1160.78 808.078 1158.97C808.643 1157.17 809.482 1155.58 810.594 1154.21C811.724 1152.85 813.137 1151.78 814.832 1151.02C816.527 1150.25 818.505 1149.87 820.766 1149.87C823.154 1149.87 825.25 1150.33 827.055 1151.26C828.878 1152.19 830.299 1153.5 831.32 1155.2C832.359 1156.89 832.897 1158.89 832.934 1161.19H826.125C826.089 1160.13 825.852 1159.18 825.414 1158.34C824.977 1157.51 824.357 1156.83 823.555 1156.32C822.753 1155.81 821.777 1155.55 820.629 1155.55C819.408 1155.55 818.387 1155.81 817.566 1156.32C816.764 1156.83 816.135 1157.53 815.68 1158.43C815.242 1159.3 814.932 1160.29 814.75 1161.38C814.586 1162.45 814.504 1163.58 814.504 1164.77V1165.64C814.504 1166.85 814.586 1168 814.75 1169.09C814.932 1170.18 815.242 1171.17 815.68 1172.04C816.135 1172.9 816.764 1173.58 817.566 1174.09C818.387 1174.6 819.426 1174.86 820.684 1174.86ZM851.746 1150.41V1155.61H834.793V1150.41H851.746ZM839.332 1143.14H846.578V1171.47C846.578 1172.34 846.697 1173.02 846.934 1173.49C847.171 1173.97 847.526 1174.29 848 1174.45C848.474 1174.61 849.039 1174.7 849.695 1174.7C850.169 1174.7 850.607 1174.67 851.008 1174.61C851.409 1174.56 851.746 1174.5 852.02 1174.45L852.047 1179.86C851.445 1180.06 850.762 1180.23 849.996 1180.36C849.249 1180.48 848.401 1180.55 847.453 1180.55C845.831 1180.55 844.409 1180.27 843.188 1179.73C841.966 1179.16 841.018 1178.26 840.344 1177.02C839.669 1175.76 839.332 1174.1 839.332 1172.04V1143.14ZM864.215 1150.41V1180H856.969V1150.41H864.215ZM856.477 1142.68C856.477 1141.6 856.841 1140.71 857.57 1140C858.318 1139.29 859.32 1138.93 860.578 1138.93C861.836 1138.93 862.829 1139.29 863.559 1140C864.306 1140.71 864.68 1141.6 864.68 1142.68C864.68 1143.73 864.306 1144.62 863.559 1145.33C862.829 1146.04 861.836 1146.39 860.578 1146.39C859.32 1146.39 858.318 1146.04 857.57 1145.33C856.841 1144.62 856.477 1143.73 856.477 1142.68ZM869.82 1165.51V1164.93C869.82 1162.76 870.13 1160.77 870.75 1158.95C871.37 1157.1 872.272 1155.51 873.457 1154.16C874.642 1152.81 876.091 1151.76 877.805 1151.02C879.518 1150.25 881.469 1149.87 883.656 1149.87C885.88 1149.87 887.849 1150.25 889.562 1151.02C891.294 1151.76 892.753 1152.81 893.938 1154.16C895.122 1155.51 896.025 1157.1 896.645 1158.95C897.264 1160.77 897.574 1162.76 897.574 1164.93V1165.51C897.574 1167.66 897.264 1169.65 896.645 1171.5C896.025 1173.32 895.122 1174.91 893.938 1176.28C892.753 1177.63 891.303 1178.68 889.59 1179.43C887.876 1180.17 885.917 1180.55 883.711 1180.55C881.523 1180.55 879.564 1180.17 877.832 1179.43C876.1 1178.68 874.642 1177.63 873.457 1176.28C872.272 1174.91 871.37 1173.32 870.75 1171.5C870.13 1169.65 869.82 1167.66 869.82 1165.51ZM877.039 1164.93V1165.51C877.039 1166.8 877.167 1168.01 877.422 1169.14C877.677 1170.27 878.069 1171.27 878.598 1172.12C879.126 1172.98 879.81 1173.66 880.648 1174.15C881.505 1174.62 882.526 1174.86 883.711 1174.86C884.878 1174.86 885.88 1174.62 886.719 1174.15C887.557 1173.66 888.241 1172.98 888.77 1172.12C889.316 1171.27 889.717 1170.27 889.973 1169.14C890.228 1168.01 890.355 1166.8 890.355 1165.51V1164.93C890.355 1163.66 890.228 1162.46 889.973 1161.35C889.717 1160.22 889.316 1159.23 888.77 1158.37C888.241 1157.5 887.548 1156.81 886.691 1156.32C885.853 1155.81 884.841 1155.55 883.656 1155.55C882.49 1155.55 881.487 1155.81 880.648 1156.32C879.81 1156.81 879.126 1157.5 878.598 1158.37C878.069 1159.23 877.677 1160.22 877.422 1161.35C877.167 1162.46 877.039 1163.66 877.039 1164.93ZM909.906 1156.73V1180H902.688V1150.41H909.469L909.906 1156.73ZM908.758 1164.14H906.625C906.643 1161.99 906.935 1160.04 907.5 1158.29C908.065 1156.54 908.858 1155.04 909.879 1153.78C910.918 1152.52 912.148 1151.55 913.57 1150.88C914.992 1150.2 916.578 1149.87 918.328 1149.87C919.75 1149.87 921.035 1150.07 922.184 1150.47C923.332 1150.87 924.316 1151.51 925.137 1152.38C925.975 1153.26 926.613 1154.41 927.051 1155.83C927.507 1157.23 927.734 1158.96 927.734 1161.02V1180H920.461V1160.97C920.461 1159.62 920.26 1158.55 919.859 1157.77C919.477 1156.99 918.911 1156.43 918.164 1156.1C917.435 1155.77 916.533 1155.61 915.457 1155.61C914.345 1155.61 913.37 1155.84 912.531 1156.29C911.711 1156.73 911.018 1157.34 910.453 1158.12C909.906 1158.91 909.487 1159.81 909.195 1160.83C908.904 1161.85 908.758 1162.96 908.758 1164.14Z" fill="#1C4670"/>
<path d="M134.702 1183.14C157.166 1183.14 178.71 1174.21 194.595 1158.33C210.48 1142.44 219.403 1120.9 219.403 1098.44C219.403 1075.97 210.48 1054.43 194.595 1038.54C178.71 1022.66 157.166 1013.73 134.702 1013.73H50V1098.44C50 1109.56 52.1909 1120.57 56.4475 1130.85C60.7042 1141.13 66.9433 1150.46 74.8086 1158.33C82.6738 1166.19 92.0113 1172.43 102.288 1176.69C112.564 1180.95 123.579 1183.14 134.702 1183.14Z" fill="#FFA229"/>
<g filter="url(#filter4_d_43_6075)">
<path d="M1079.97 1361.8H85.75C74.7043 1361.8 65.75 1370.75 65.75 1381.8V1600.78C65.75 1611.82 74.7043 1620.78 85.75 1620.78H1079.97C1091.02 1620.78 1099.97 1611.82 1099.97 1600.78V1381.8C1099.97 1370.75 1091.02 1361.8 1079.97 1361.8Z" fill="white"/>
</g>
<path d="M360.754 1490.37L368.684 1458.19H372.977L373.25 1464.97L364.773 1498H360.234L360.754 1490.37ZM355.75 1458.19L362.258 1490.26V1498H357.309L348.285 1458.19H355.75ZM381.48 1490.12L387.879 1458.19H395.371L386.348 1498H381.398L381.48 1490.12ZM375.027 1458.19L382.957 1490.48L383.422 1498H378.883L370.434 1464.94L370.762 1458.19H375.027ZM414.949 1491.71V1478.07C414.949 1477.06 414.776 1476.2 414.43 1475.47C414.083 1474.74 413.555 1474.17 412.844 1473.77C412.133 1473.37 411.23 1473.17 410.137 1473.17C409.171 1473.17 408.323 1473.34 407.594 1473.66C406.883 1473.99 406.336 1474.46 405.953 1475.06C405.57 1475.64 405.379 1476.32 405.379 1477.08H398.133C398.133 1475.86 398.424 1474.7 399.008 1473.61C399.591 1472.5 400.421 1471.51 401.496 1470.66C402.59 1469.78 403.893 1469.1 405.406 1468.61C406.938 1468.11 408.651 1467.87 410.547 1467.87C412.789 1467.87 414.785 1468.25 416.535 1469.02C418.303 1469.76 419.689 1470.89 420.691 1472.41C421.712 1473.92 422.223 1475.82 422.223 1478.12V1491.03C422.223 1492.5 422.314 1493.77 422.496 1494.83C422.697 1495.87 422.988 1496.77 423.371 1497.54V1498H416.016C415.669 1497.25 415.405 1496.3 415.223 1495.16C415.04 1493.99 414.949 1492.84 414.949 1491.71ZM415.961 1479.98L416.016 1484.27H411.449C410.319 1484.27 409.326 1484.39 408.469 1484.63C407.612 1484.85 406.91 1485.18 406.363 1485.61C405.816 1486.03 405.406 1486.54 405.133 1487.14C404.859 1487.73 404.723 1488.39 404.723 1489.14C404.723 1489.87 404.887 1490.53 405.215 1491.11C405.561 1491.69 406.053 1492.16 406.691 1492.5C407.348 1492.83 408.113 1493 408.988 1493C410.264 1493 411.376 1492.74 412.324 1492.23C413.272 1491.7 414.01 1491.06 414.539 1490.32C415.068 1489.57 415.35 1488.86 415.387 1488.18L417.465 1491.3C417.21 1492.05 416.827 1492.84 416.316 1493.68C415.806 1494.52 415.15 1495.3 414.348 1496.03C413.546 1496.76 412.579 1497.36 411.449 1497.84C410.319 1498.31 409.007 1498.55 407.512 1498.55C405.598 1498.55 403.884 1498.16 402.371 1497.4C400.858 1496.63 399.664 1495.58 398.789 1494.25C397.914 1492.92 397.477 1491.41 397.477 1489.71C397.477 1488.15 397.768 1486.76 398.352 1485.56C398.935 1484.36 399.801 1483.34 400.949 1482.52C402.098 1481.68 403.52 1481.06 405.215 1480.64C406.928 1480.2 408.888 1479.98 411.094 1479.98H415.961ZM435.949 1474.46V1498H428.73V1468.41H435.566L435.949 1474.46ZM444.945 1468.22L444.836 1474.95C444.435 1474.88 443.979 1474.82 443.469 1474.79C442.977 1474.75 442.512 1474.73 442.074 1474.73C440.962 1474.73 439.987 1474.89 439.148 1475.2C438.31 1475.49 437.608 1475.92 437.043 1476.48C436.496 1477.05 436.077 1477.74 435.785 1478.56C435.493 1479.36 435.329 1480.27 435.293 1481.29L433.734 1481.1C433.734 1479.22 433.926 1477.48 434.309 1475.88C434.691 1474.27 435.247 1472.87 435.977 1471.67C436.706 1470.46 437.617 1469.54 438.711 1468.88C439.823 1468.2 441.099 1467.87 442.539 1467.87C442.94 1467.87 443.368 1467.9 443.824 1467.98C444.298 1468.03 444.672 1468.11 444.945 1468.22ZM461.652 1498.55C459.41 1498.55 457.396 1498.18 455.609 1497.45C453.823 1496.72 452.301 1495.71 451.043 1494.42C449.803 1493.11 448.846 1491.58 448.172 1489.85C447.516 1488.1 447.188 1486.22 447.188 1484.22V1483.12C447.188 1480.85 447.516 1478.78 448.172 1476.92C448.828 1475.04 449.758 1473.43 450.961 1472.08C452.164 1470.73 453.604 1469.69 455.281 1468.96C456.958 1468.23 458.809 1467.87 460.832 1467.87C462.928 1467.87 464.779 1468.22 466.383 1468.93C467.987 1469.63 469.327 1470.61 470.402 1471.89C471.478 1473.16 472.289 1474.69 472.836 1476.48C473.383 1478.25 473.656 1480.21 473.656 1482.36V1485.39H450.469V1480.42H466.547V1479.87C466.51 1478.72 466.292 1477.67 465.891 1476.73C465.49 1475.76 464.87 1474.99 464.031 1474.43C463.193 1473.85 462.108 1473.55 460.777 1473.55C459.702 1473.55 458.763 1473.79 457.961 1474.27C457.177 1474.72 456.521 1475.38 455.992 1476.23C455.482 1477.07 455.099 1478.08 454.844 1479.24C454.589 1480.41 454.461 1481.7 454.461 1483.12V1484.22C454.461 1485.46 454.625 1486.61 454.953 1487.66C455.299 1488.72 455.801 1489.64 456.457 1490.43C457.132 1491.19 457.934 1491.79 458.863 1492.23C459.811 1492.65 460.887 1492.86 462.09 1492.86C463.603 1492.86 464.97 1492.57 466.191 1491.98C467.431 1491.38 468.507 1490.5 469.418 1489.33L473.055 1493.11C472.435 1494.02 471.596 1494.89 470.539 1495.73C469.5 1496.57 468.242 1497.25 466.766 1497.78C465.289 1498.29 463.585 1498.55 461.652 1498.55ZM485.578 1456V1498H478.332V1456H485.578ZM484.43 1482.14H482.297C482.297 1480.08 482.57 1478.18 483.117 1476.45C483.664 1474.72 484.439 1473.22 485.441 1471.94C486.444 1470.65 487.638 1469.64 489.023 1468.93C490.427 1468.22 491.977 1467.87 493.672 1467.87C495.13 1467.87 496.452 1468.08 497.637 1468.5C498.84 1468.9 499.87 1469.54 500.727 1470.44C501.583 1471.33 502.24 1472.5 502.695 1473.94C503.169 1475.36 503.406 1477.09 503.406 1479.13V1498H496.133V1479.08C496.133 1477.71 495.932 1476.64 495.531 1475.85C495.13 1475.05 494.556 1474.48 493.809 1474.13C493.079 1473.78 492.177 1473.61 491.102 1473.61C489.935 1473.61 488.932 1473.84 488.094 1474.29C487.255 1474.73 486.562 1475.34 486.016 1476.12C485.487 1476.91 485.086 1477.81 484.812 1478.83C484.557 1479.85 484.43 1480.96 484.43 1482.14ZM508.492 1483.51V1482.93C508.492 1480.76 508.802 1478.77 509.422 1476.95C510.042 1475.1 510.944 1473.51 512.129 1472.16C513.314 1470.81 514.763 1469.76 516.477 1469.02C518.19 1468.25 520.141 1467.87 522.328 1467.87C524.552 1467.87 526.521 1468.25 528.234 1469.02C529.966 1469.76 531.424 1470.81 532.609 1472.16C533.794 1473.51 534.697 1475.1 535.316 1476.95C535.936 1478.77 536.246 1480.76 536.246 1482.93V1483.51C536.246 1485.66 535.936 1487.65 535.316 1489.5C534.697 1491.32 533.794 1492.91 532.609 1494.28C531.424 1495.63 529.975 1496.68 528.262 1497.43C526.548 1498.17 524.589 1498.55 522.383 1498.55C520.195 1498.55 518.236 1498.17 516.504 1497.43C514.772 1496.68 513.314 1495.63 512.129 1494.28C510.944 1492.91 510.042 1491.32 509.422 1489.5C508.802 1487.65 508.492 1485.66 508.492 1483.51ZM515.711 1482.93V1483.51C515.711 1484.8 515.839 1486.01 516.094 1487.14C516.349 1488.27 516.741 1489.27 517.27 1490.12C517.798 1490.98 518.482 1491.66 519.32 1492.15C520.177 1492.62 521.198 1492.86 522.383 1492.86C523.549 1492.86 524.552 1492.62 525.391 1492.15C526.229 1491.66 526.913 1490.98 527.441 1490.12C527.988 1489.27 528.389 1488.27 528.645 1487.14C528.9 1486.01 529.027 1484.8 529.027 1483.51V1482.93C529.027 1481.66 528.9 1480.46 528.645 1479.35C528.389 1478.22 527.988 1477.23 527.441 1476.37C526.913 1475.5 526.22 1474.81 525.363 1474.32C524.525 1473.81 523.513 1473.55 522.328 1473.55C521.161 1473.55 520.159 1473.81 519.32 1474.32C518.482 1474.81 517.798 1475.5 517.27 1476.37C516.741 1477.23 516.349 1478.22 516.094 1479.35C515.839 1480.46 515.711 1481.66 515.711 1482.93ZM559.105 1490.97V1468.41H566.379V1498H559.543L559.105 1490.97ZM560.035 1484.85L562.277 1484.79C562.277 1486.78 562.059 1488.61 561.621 1490.29C561.184 1491.97 560.5 1493.42 559.57 1494.66C558.659 1495.89 557.501 1496.84 556.098 1497.54C554.694 1498.21 553.035 1498.55 551.121 1498.55C549.663 1498.55 548.332 1498.35 547.129 1497.95C545.926 1497.53 544.887 1496.88 544.012 1496C543.155 1495.11 542.49 1493.97 542.016 1492.59C541.542 1491.18 541.305 1489.5 541.305 1487.53V1468.41H548.523V1487.58C548.523 1488.57 548.633 1489.39 548.852 1490.04C549.089 1490.7 549.408 1491.24 549.809 1491.66C550.228 1492.06 550.711 1492.35 551.258 1492.53C551.823 1492.7 552.424 1492.78 553.062 1492.78C554.812 1492.78 556.189 1492.43 557.191 1491.74C558.212 1491.03 558.941 1490.08 559.379 1488.89C559.816 1487.69 560.035 1486.34 560.035 1484.85ZM589.047 1489.91C589.047 1489.29 588.883 1488.73 588.555 1488.24C588.227 1487.75 587.607 1487.3 586.695 1486.9C585.802 1486.48 584.49 1486.09 582.758 1485.72C581.227 1485.39 579.814 1484.98 578.52 1484.49C577.225 1484 576.113 1483.41 575.184 1482.71C574.254 1482 573.525 1481.17 572.996 1480.23C572.486 1479.26 572.23 1478.15 572.23 1476.89C572.23 1475.67 572.495 1474.52 573.023 1473.45C573.552 1472.35 574.318 1471.39 575.32 1470.57C576.323 1469.74 577.544 1469.08 578.984 1468.61C580.424 1468.11 582.047 1467.87 583.852 1467.87C586.367 1467.87 588.527 1468.28 590.332 1469.1C592.155 1469.92 593.549 1471.05 594.516 1472.49C595.482 1473.91 595.965 1475.51 595.965 1477.3H588.746C588.746 1476.52 588.564 1475.81 588.199 1475.17C587.853 1474.53 587.315 1474.02 586.586 1473.64C585.857 1473.24 584.936 1473.04 583.824 1473.04C582.822 1473.04 581.974 1473.2 581.281 1473.53C580.607 1473.86 580.096 1474.28 579.75 1474.81C579.404 1475.34 579.23 1475.92 579.23 1476.56C579.23 1477.04 579.322 1477.46 579.504 1477.85C579.704 1478.21 580.023 1478.55 580.461 1478.86C580.898 1479.17 581.491 1479.45 582.238 1479.71C583.004 1479.96 583.943 1480.21 585.055 1480.45C587.26 1480.88 589.184 1481.47 590.824 1482.2C592.483 1482.91 593.777 1483.85 594.707 1485.04C595.637 1486.22 596.102 1487.74 596.102 1489.58C596.102 1490.89 595.819 1492.09 595.254 1493.19C594.689 1494.26 593.868 1495.2 592.793 1496C591.717 1496.81 590.432 1497.43 588.938 1497.89C587.443 1498.33 585.757 1498.55 583.879 1498.55C581.163 1498.55 578.866 1498.06 576.988 1497.1C575.111 1496.11 573.689 1494.87 572.723 1493.38C571.757 1491.87 571.273 1490.3 571.273 1488.68H578.191C578.246 1489.82 578.556 1490.74 579.121 1491.44C579.686 1492.13 580.397 1492.63 581.254 1492.94C582.129 1493.23 583.049 1493.38 584.016 1493.38C585.109 1493.38 586.03 1493.23 586.777 1492.94C587.525 1492.63 588.09 1492.22 588.473 1491.71C588.855 1491.18 589.047 1490.58 589.047 1489.91ZM614.887 1498.55C612.645 1498.55 610.63 1498.18 608.844 1497.45C607.057 1496.72 605.535 1495.71 604.277 1494.42C603.038 1493.11 602.081 1491.58 601.406 1489.85C600.75 1488.1 600.422 1486.22 600.422 1484.22V1483.12C600.422 1480.85 600.75 1478.78 601.406 1476.92C602.062 1475.04 602.992 1473.43 604.195 1472.08C605.398 1470.73 606.839 1469.69 608.516 1468.96C610.193 1468.23 612.043 1467.87 614.066 1467.87C616.163 1467.87 618.013 1468.22 619.617 1468.93C621.221 1469.63 622.561 1470.61 623.637 1471.89C624.712 1473.16 625.523 1474.69 626.07 1476.48C626.617 1478.25 626.891 1480.21 626.891 1482.36V1485.39H603.703V1480.42H619.781V1479.87C619.745 1478.72 619.526 1477.67 619.125 1476.73C618.724 1475.76 618.104 1474.99 617.266 1474.43C616.427 1473.85 615.342 1473.55 614.012 1473.55C612.936 1473.55 611.997 1473.79 611.195 1474.27C610.411 1474.72 609.755 1475.38 609.227 1476.23C608.716 1477.07 608.333 1478.08 608.078 1479.24C607.823 1480.41 607.695 1481.7 607.695 1483.12V1484.22C607.695 1485.46 607.859 1486.61 608.188 1487.66C608.534 1488.72 609.035 1489.64 609.691 1490.43C610.366 1491.19 611.168 1491.79 612.098 1492.23C613.046 1492.65 614.121 1492.86 615.324 1492.86C616.837 1492.86 618.204 1492.57 619.426 1491.98C620.665 1491.38 621.741 1490.5 622.652 1489.33L626.289 1493.11C625.669 1494.02 624.831 1494.89 623.773 1495.73C622.734 1496.57 621.477 1497.25 620 1497.78C618.523 1498.29 616.819 1498.55 614.887 1498.55ZM671.488 1492.09V1498H651.473V1492.09H671.488ZM653.742 1458.19V1498H646.223V1458.19H653.742ZM683.629 1468.41V1498H676.383V1468.41H683.629ZM675.891 1460.68C675.891 1459.6 676.255 1458.71 676.984 1458C677.732 1457.29 678.734 1456.93 679.992 1456.93C681.25 1456.93 682.243 1457.29 682.973 1458C683.72 1458.71 684.094 1459.6 684.094 1460.68C684.094 1461.73 683.72 1462.62 682.973 1463.33C682.243 1464.04 681.25 1464.39 679.992 1464.39C678.734 1464.39 677.732 1464.04 676.984 1463.33C676.255 1462.62 675.891 1461.73 675.891 1460.68ZM702.66 1492.86C703.681 1492.86 704.592 1492.66 705.395 1492.26C706.197 1491.86 706.835 1491.29 707.309 1490.56C707.801 1489.83 708.065 1488.99 708.102 1488.02H714.91C714.874 1490.02 714.309 1491.82 713.215 1493.41C712.121 1494.99 710.663 1496.25 708.84 1497.18C707.035 1498.09 705.012 1498.55 702.77 1498.55C700.491 1498.55 698.504 1498.16 696.809 1497.4C695.113 1496.63 693.701 1495.57 692.57 1494.2C691.458 1492.83 690.62 1491.25 690.055 1489.44C689.508 1487.64 689.234 1485.7 689.234 1483.64V1482.77C689.234 1480.71 689.508 1478.78 690.055 1476.97C690.62 1475.17 691.458 1473.58 692.57 1472.21C693.701 1470.85 695.113 1469.78 696.809 1469.02C698.504 1468.25 700.482 1467.87 702.742 1467.87C705.13 1467.87 707.227 1468.33 709.031 1469.26C710.854 1470.19 712.276 1471.5 713.297 1473.2C714.336 1474.89 714.874 1476.89 714.91 1479.19H708.102C708.065 1478.13 707.828 1477.18 707.391 1476.34C706.953 1475.51 706.333 1474.83 705.531 1474.32C704.729 1473.81 703.754 1473.55 702.605 1473.55C701.384 1473.55 700.363 1473.81 699.543 1474.32C698.741 1474.83 698.112 1475.53 697.656 1476.43C697.219 1477.3 696.909 1478.29 696.727 1479.38C696.562 1480.45 696.48 1481.58 696.48 1482.77V1483.64C696.48 1484.85 696.562 1486 696.727 1487.09C696.909 1488.18 697.219 1489.17 697.656 1490.04C698.112 1490.9 698.741 1491.58 699.543 1492.09C700.363 1492.6 701.402 1492.86 702.66 1492.86ZM733.012 1498.55C730.77 1498.55 728.755 1498.18 726.969 1497.45C725.182 1496.72 723.66 1495.71 722.402 1494.42C721.163 1493.11 720.206 1491.58 719.531 1489.85C718.875 1488.1 718.547 1486.22 718.547 1484.22V1483.12C718.547 1480.85 718.875 1478.78 719.531 1476.92C720.188 1475.04 721.117 1473.43 722.32 1472.08C723.523 1470.73 724.964 1469.69 726.641 1468.96C728.318 1468.23 730.168 1467.87 732.191 1467.87C734.288 1467.87 736.138 1468.22 737.742 1468.93C739.346 1469.63 740.686 1470.61 741.762 1471.89C742.837 1473.16 743.648 1474.69 744.195 1476.48C744.742 1478.25 745.016 1480.21 745.016 1482.36V1485.39H721.828V1480.42H737.906V1479.87C737.87 1478.72 737.651 1477.67 737.25 1476.73C736.849 1475.76 736.229 1474.99 735.391 1474.43C734.552 1473.85 733.467 1473.55 732.137 1473.55C731.061 1473.55 730.122 1473.79 729.32 1474.27C728.536 1474.72 727.88 1475.38 727.352 1476.23C726.841 1477.07 726.458 1478.08 726.203 1479.24C725.948 1480.41 725.82 1481.7 725.82 1483.12V1484.22C725.82 1485.46 725.984 1486.61 726.312 1487.66C726.659 1488.72 727.16 1489.64 727.816 1490.43C728.491 1491.19 729.293 1491.79 730.223 1492.23C731.171 1492.65 732.246 1492.86 733.449 1492.86C734.962 1492.86 736.329 1492.57 737.551 1491.98C738.79 1491.38 739.866 1490.5 740.777 1489.33L744.414 1493.11C743.794 1494.02 742.956 1494.89 741.898 1495.73C740.859 1496.57 739.602 1497.25 738.125 1497.78C736.648 1498.29 734.944 1498.55 733.012 1498.55ZM756.938 1474.73V1498H749.719V1468.41H756.5L756.938 1474.73ZM755.789 1482.14H753.656C753.674 1479.99 753.966 1478.04 754.531 1476.29C755.096 1474.54 755.889 1473.04 756.91 1471.78C757.949 1470.52 759.18 1469.55 760.602 1468.88C762.023 1468.2 763.609 1467.87 765.359 1467.87C766.781 1467.87 768.066 1468.07 769.215 1468.47C770.363 1468.87 771.348 1469.51 772.168 1470.38C773.007 1471.26 773.645 1472.41 774.082 1473.83C774.538 1475.23 774.766 1476.96 774.766 1479.02V1498H767.492V1478.97C767.492 1477.62 767.292 1476.55 766.891 1475.77C766.508 1474.99 765.943 1474.43 765.195 1474.1C764.466 1473.77 763.564 1473.61 762.488 1473.61C761.376 1473.61 760.401 1473.84 759.562 1474.29C758.742 1474.73 758.049 1475.34 757.484 1476.12C756.938 1476.91 756.518 1477.81 756.227 1478.83C755.935 1479.85 755.789 1480.96 755.789 1482.14ZM797.406 1489.91C797.406 1489.29 797.242 1488.73 796.914 1488.24C796.586 1487.75 795.966 1487.3 795.055 1486.9C794.161 1486.48 792.849 1486.09 791.117 1485.72C789.586 1485.39 788.173 1484.98 786.879 1484.49C785.585 1484 784.473 1483.41 783.543 1482.71C782.613 1482 781.884 1481.17 781.355 1480.23C780.845 1479.26 780.59 1478.15 780.59 1476.89C780.59 1475.67 780.854 1474.52 781.383 1473.45C781.911 1472.35 782.677 1471.39 783.68 1470.57C784.682 1469.74 785.904 1469.08 787.344 1468.61C788.784 1468.11 790.406 1467.87 792.211 1467.87C794.727 1467.87 796.887 1468.28 798.691 1469.1C800.514 1469.92 801.909 1471.05 802.875 1472.49C803.841 1473.91 804.324 1475.51 804.324 1477.3H797.105C797.105 1476.52 796.923 1475.81 796.559 1475.17C796.212 1474.53 795.674 1474.02 794.945 1473.64C794.216 1473.24 793.296 1473.04 792.184 1473.04C791.181 1473.04 790.333 1473.2 789.641 1473.53C788.966 1473.86 788.456 1474.28 788.109 1474.81C787.763 1475.34 787.59 1475.92 787.59 1476.56C787.59 1477.04 787.681 1477.46 787.863 1477.85C788.064 1478.21 788.383 1478.55 788.82 1478.86C789.258 1479.17 789.85 1479.45 790.598 1479.71C791.363 1479.96 792.302 1480.21 793.414 1480.45C795.62 1480.88 797.543 1481.47 799.184 1482.2C800.842 1482.91 802.137 1483.85 803.066 1485.04C803.996 1486.22 804.461 1487.74 804.461 1489.58C804.461 1490.89 804.178 1492.09 803.613 1493.19C803.048 1494.26 802.228 1495.2 801.152 1496C800.077 1496.81 798.792 1497.43 797.297 1497.89C795.802 1498.33 794.116 1498.55 792.238 1498.55C789.522 1498.55 787.225 1498.06 785.348 1497.1C783.47 1496.11 782.048 1494.87 781.082 1493.38C780.116 1491.87 779.633 1490.3 779.633 1488.68H786.551C786.605 1489.82 786.915 1490.74 787.48 1491.44C788.046 1492.13 788.757 1492.63 789.613 1492.94C790.488 1493.23 791.409 1493.38 792.375 1493.38C793.469 1493.38 794.389 1493.23 795.137 1492.94C795.884 1492.63 796.449 1492.22 796.832 1491.71C797.215 1491.18 797.406 1490.58 797.406 1489.91ZM823.246 1498.55C821.004 1498.55 818.99 1498.18 817.203 1497.45C815.417 1496.72 813.895 1495.71 812.637 1494.42C811.397 1493.11 810.44 1491.58 809.766 1489.85C809.109 1488.1 808.781 1486.22 808.781 1484.22V1483.12C808.781 1480.85 809.109 1478.78 809.766 1476.92C810.422 1475.04 811.352 1473.43 812.555 1472.08C813.758 1470.73 815.198 1469.69 816.875 1468.96C818.552 1468.23 820.402 1467.87 822.426 1467.87C824.522 1467.87 826.372 1468.22 827.977 1468.93C829.581 1469.63 830.921 1470.61 831.996 1471.89C833.072 1473.16 833.883 1474.69 834.43 1476.48C834.977 1478.25 835.25 1480.21 835.25 1482.36V1485.39H812.062V1480.42H828.141V1479.87C828.104 1478.72 827.885 1477.67 827.484 1476.73C827.083 1475.76 826.464 1474.99 825.625 1474.43C824.786 1473.85 823.702 1473.55 822.371 1473.55C821.296 1473.55 820.357 1473.79 819.555 1474.27C818.771 1474.72 818.115 1475.38 817.586 1476.23C817.076 1477.07 816.693 1478.08 816.438 1479.24C816.182 1480.41 816.055 1481.7 816.055 1483.12V1484.22C816.055 1485.46 816.219 1486.61 816.547 1487.66C816.893 1488.72 817.395 1489.64 818.051 1490.43C818.725 1491.19 819.527 1491.79 820.457 1492.23C821.405 1492.65 822.48 1492.86 823.684 1492.86C825.197 1492.86 826.564 1492.57 827.785 1491.98C829.025 1491.38 830.1 1490.5 831.012 1489.33L834.648 1493.11C834.029 1494.02 833.19 1494.89 832.133 1495.73C831.094 1496.57 829.836 1497.25 828.359 1497.78C826.883 1498.29 825.178 1498.55 823.246 1498.55Z" fill="#1C4670"/>
<path d="M134.702 1502.39C157.166 1502.39 178.71 1493.46 194.595 1477.58C210.48 1461.69 219.403 1440.15 219.403 1417.69C219.403 1395.22 210.48 1373.68 194.595 1357.79C178.71 1341.91 157.166 1332.98 134.702 1332.98H50V1417.69C50 1428.81 52.1909 1439.82 56.4475 1450.1C60.7042 1460.38 66.9433 1469.71 74.8086 1477.58C82.6738 1485.44 92.0113 1491.68 102.288 1495.94C112.564 1500.2 123.579 1502.39 134.702 1502.39Z" fill="#1C4670"/>
<path d="M116.777 173.594C111.26 173.594 106.993 172.048 103.975 168.955C100.981 165.863 99.4844 161.41 99.4844 155.596V126.131C99.4844 119.995 100.907 115.295 103.752 112.029C106.622 108.739 110.964 107.094 116.777 107.094C122.616 107.094 126.958 108.739 129.803 112.029C132.648 115.295 134.07 119.995 134.07 126.131V155.596C134.07 161.41 132.574 165.863 129.58 168.955C126.587 172.048 122.319 173.594 116.777 173.594ZM116.777 161.57C117.792 161.57 118.583 161.113 119.152 160.197C119.721 159.282 120.006 158.255 120.006 157.117V124.869C120.006 123.335 119.833 121.999 119.486 120.861C119.165 119.699 118.262 119.117 116.777 119.117C115.293 119.117 114.378 119.699 114.031 120.861C113.71 121.999 113.549 123.335 113.549 124.869V157.117C113.549 158.255 113.833 159.282 114.402 160.197C114.996 161.113 115.788 161.57 116.777 161.57ZM144.572 173V122.68C143.682 123.743 142.457 124.609 140.898 125.277C139.34 125.921 137.868 126.242 136.482 126.242V115.814C137.794 115.617 139.204 115.196 140.713 114.553C142.222 113.885 143.62 112.982 144.906 111.844C146.217 110.681 147.219 109.283 147.912 107.65H158.414V173H144.572Z" fill="white"/>
<path d="M116.777 491.594C111.26 491.594 106.993 490.048 103.975 486.955C100.981 483.863 99.4844 479.41 99.4844 473.596V444.131C99.4844 437.995 100.907 433.295 103.752 430.029C106.622 426.739 110.964 425.094 116.777 425.094C122.616 425.094 126.958 426.739 129.803 430.029C132.648 433.295 134.07 437.995 134.07 444.131V473.596C134.07 479.41 132.574 483.863 129.58 486.955C126.587 490.048 122.319 491.594 116.777 491.594ZM116.777 479.57C117.792 479.57 118.583 479.113 119.152 478.197C119.721 477.282 120.006 476.255 120.006 475.117V442.869C120.006 441.335 119.833 439.999 119.486 438.861C119.165 437.699 118.262 437.117 116.777 437.117C115.293 437.117 114.378 437.699 114.031 438.861C113.71 439.999 113.549 441.335 113.549 442.869V475.117C113.549 476.255 113.833 477.282 114.402 478.197C114.996 479.113 115.788 479.57 116.777 479.57ZM137.855 491V487.883C137.855 484.642 138.35 481.735 139.34 479.162C140.354 476.564 141.653 474.165 143.236 471.963C144.82 469.736 146.49 467.559 148.246 465.432C149.953 463.354 151.574 461.226 153.107 459.049C154.666 456.847 155.928 454.472 156.893 451.924C157.882 449.351 158.377 446.469 158.377 443.277C158.377 441.743 158.142 440.432 157.672 439.344C157.227 438.23 156.286 437.674 154.852 437.674C152.674 437.674 151.586 439.616 151.586 443.5V451.479H137.855C137.831 450.91 137.794 450.266 137.744 449.549C137.719 448.831 137.707 448.139 137.707 447.471C137.707 442.77 138.202 438.787 139.191 435.521C140.181 432.231 141.925 429.732 144.424 428.025C146.947 426.294 150.485 425.428 155.037 425.428C160.455 425.428 164.661 426.949 167.654 429.992C170.673 433.035 172.182 437.377 172.182 443.018C172.182 446.852 171.687 450.217 170.697 453.111C169.708 455.981 168.396 458.604 166.764 460.979C165.131 463.329 163.337 465.679 161.383 468.029C159.997 469.687 158.649 471.382 157.338 473.113C156.051 474.845 154.913 476.701 153.924 478.68H171.736V491H137.855Z" fill="white"/>
<path d="M116.777 809.594C111.26 809.594 106.993 808.048 103.975 804.955C100.981 801.863 99.4844 797.41 99.4844 791.596V762.131C99.4844 755.995 100.907 751.295 103.752 748.029C106.622 744.739 110.964 743.094 116.777 743.094C122.616 743.094 126.958 744.739 129.803 748.029C132.648 751.295 134.07 755.995 134.07 762.131V791.596C134.07 797.41 132.574 801.863 129.58 804.955C126.587 808.048 122.319 809.594 116.777 809.594ZM116.777 797.57C117.792 797.57 118.583 797.113 119.152 796.197C119.721 795.282 120.006 794.255 120.006 793.117V760.869C120.006 759.335 119.833 757.999 119.486 756.861C119.165 755.699 118.262 755.117 116.777 755.117C115.293 755.117 114.378 755.699 114.031 756.861C113.71 757.999 113.549 759.335 113.549 760.869V793.117C113.549 794.255 113.833 795.282 114.402 796.197C114.996 797.113 115.788 797.57 116.777 797.57ZM153.516 809.742C147.751 809.742 143.558 808.221 140.936 805.178C138.313 802.135 137.002 797.546 137.002 791.41V784.582H150.398V791.447C150.398 793.179 150.609 794.651 151.029 795.863C151.475 797.051 152.452 797.645 153.961 797.645C155.495 797.645 156.472 797.001 156.893 795.715C157.313 794.404 157.523 792.276 157.523 789.332V787.699C157.523 785.448 157.14 783.481 156.373 781.799C155.631 780.117 154.159 779.275 151.957 779.275C151.685 779.275 151.438 779.288 151.215 779.312C151.017 779.312 150.844 779.325 150.695 779.35V767.623C152.947 767.623 154.666 767.128 155.854 766.139C157.041 765.124 157.635 763.442 157.635 761.092C157.635 757.406 156.571 755.562 154.443 755.562C153.058 755.562 152.118 756.107 151.623 757.195C151.153 758.259 150.918 759.62 150.918 761.277V763.244H137.41C137.385 762.947 137.361 762.589 137.336 762.168C137.336 761.747 137.336 761.339 137.336 760.943C137.336 754.956 138.734 750.565 141.529 747.77C144.325 744.974 148.605 743.576 154.369 743.576C165.502 743.576 171.068 749.365 171.068 760.943C171.068 764.16 170.635 766.819 169.77 768.922C168.904 771 167.296 772.46 164.945 773.301C166.801 774.191 168.174 775.329 169.064 776.715C169.955 778.1 170.536 779.82 170.809 781.873C171.081 783.926 171.217 786.413 171.217 789.332C171.217 795.863 169.844 800.898 167.098 804.436C164.376 807.973 159.849 809.742 153.516 809.742Z" fill="white"/>
<path d="M116.777 1128.59C111.26 1128.59 106.993 1127.05 103.975 1123.96C100.981 1120.86 99.4844 1116.41 99.4844 1110.6V1081.13C99.4844 1075 100.907 1070.29 103.752 1067.03C106.622 1063.74 110.964 1062.09 116.777 1062.09C122.616 1062.09 126.958 1063.74 129.803 1067.03C132.648 1070.29 134.07 1075 134.07 1081.13V1110.6C134.07 1116.41 132.574 1120.86 129.58 1123.96C126.587 1127.05 122.319 1128.59 116.777 1128.59ZM116.777 1116.57C117.792 1116.57 118.583 1116.11 119.152 1115.2C119.721 1114.28 120.006 1113.26 120.006 1112.12V1079.87C120.006 1078.34 119.833 1077 119.486 1075.86C119.165 1074.7 118.262 1074.12 116.777 1074.12C115.293 1074.12 114.378 1074.7 114.031 1075.86C113.71 1077 113.549 1078.34 113.549 1079.87V1112.12C113.549 1113.26 113.833 1114.28 114.402 1115.2C114.996 1116.11 115.788 1116.57 116.777 1116.57ZM155.594 1128.04V1117.68H136.223V1107.48L148.58 1062.65H168.916V1106.77H172.404V1117.68H168.916V1128.04H155.594ZM147.875 1106.77H155.594V1073.86L147.875 1106.77Z" fill="white"/>
<path d="M116.777 1448.59C111.26 1448.59 106.993 1447.05 103.975 1443.96C100.981 1440.86 99.4844 1436.41 99.4844 1430.6V1401.13C99.4844 1395 100.907 1390.29 103.752 1387.03C106.622 1383.74 110.964 1382.09 116.777 1382.09C122.616 1382.09 126.958 1383.74 129.803 1387.03C132.648 1390.29 134.07 1395 134.07 1401.13V1430.6C134.07 1436.41 132.574 1440.86 129.58 1443.96C126.587 1447.05 122.319 1448.59 116.777 1448.59ZM116.777 1436.57C117.792 1436.57 118.583 1436.11 119.152 1435.2C119.721 1434.28 120.006 1433.26 120.006 1432.12V1399.87C120.006 1398.34 119.833 1397 119.486 1395.86C119.165 1394.7 118.262 1394.12 116.777 1394.12C115.293 1394.12 114.378 1394.7 114.031 1395.86C113.71 1397 113.549 1398.34 113.549 1399.87V1432.12C113.549 1433.26 113.833 1434.28 114.402 1435.2C114.996 1436.11 115.788 1436.57 116.777 1436.57ZM154.332 1448.93C149.31 1448.93 145.203 1447.69 142.012 1445.22C138.845 1442.72 137.262 1438.9 137.262 1433.75V1424.03H150.844V1429.63C150.844 1430.79 150.906 1431.92 151.029 1433.01C151.178 1434.1 151.499 1434.99 151.994 1435.68C152.489 1436.37 153.268 1436.72 154.332 1436.72C155.742 1436.72 156.67 1436.25 157.115 1435.31C157.561 1434.34 157.783 1433.12 157.783 1431.63V1418.79C157.783 1417.73 157.709 1416.68 157.561 1415.64C157.437 1414.6 157.14 1413.74 156.67 1413.04C156.2 1412.35 155.445 1412 154.406 1412C151.932 1412 150.695 1413.8 150.695 1417.38H138.709V1382.65H169.844V1394.9H151.104V1404.1C151.747 1403.31 152.613 1402.62 153.701 1402.02C154.814 1401.4 156.113 1401.09 157.598 1401.09C160.566 1401.09 162.979 1401.66 164.834 1402.8C166.714 1403.94 168.149 1405.52 169.139 1407.55C170.153 1409.58 170.846 1411.93 171.217 1414.6C171.613 1417.27 171.811 1420.14 171.811 1423.21C171.811 1427.14 171.6 1430.69 171.18 1433.86C170.784 1437 169.98 1439.7 168.768 1441.95C167.58 1444.2 165.824 1445.93 163.498 1447.15C161.197 1448.33 158.142 1448.93 154.332 1448.93Z" fill="white"/>
<defs>
<filter id="filter0_d_43_6075" x="61.75" y="86.7969" width="1042.22" height="266.981" filterUnits="userSpaceOnUse" color-interpolation-filters="sRGB">
<feFlood flood-opacity="0" result="BackgroundImageFix"/>
<feColorMatrix in="SourceAlpha" type="matrix" values="0 0 0 0 0 0 0 0 0 0 0 0 0 0 0 0 0 0 127 0" result="hardAlpha"/>
<feOffset dy="4"/>
<feGaussianBlur stdDeviation="2"/>
<feComposite in2="hardAlpha" operator="out"/>
<feColorMatrix type="matrix" values="0 0 0 0 0 0 0 0 0 0 0 0 0 0 0 0 0 0 0.25 0"/>
<feBlend mode="normal" in2="BackgroundImageFix" result="effect1_dropShadow_43_6075"/>
<feBlend mode="normal" in="SourceGraphic" in2="effect1_dropShadow_43_6075" result="shape"/>
</filter>
<filter id="filter1_d_43_6075" x="61.75" y="405.047" width="1042.22" height="266.981" filterUnits="userSpaceOnUse" color-interpolation-filters="sRGB">
<feFlood flood-opacity="0" result="BackgroundImageFix"/>
<feColorMatrix in="SourceAlpha" type="matrix" values="0 0 0 0 0 0 0 0 0 0 0 0 0 0 0 0 0 0 127 0" result="hardAlpha"/>
<feOffset dy="4"/>
<feGaussianBlur stdDeviation="2"/>
<feComposite in2="hardAlpha" operator="out"/>
<feColorMatrix type="matrix" values="0 0 0 0 0 0 0 0 0 0 0 0 0 0 0 0 0 0 0.25 0"/>
<feBlend mode="normal" in2="BackgroundImageFix" result="effect1_dropShadow_43_6075"/>
<feBlend mode="normal" in="SourceGraphic" in2="effect1_dropShadow_43_6075" result="shape"/>
</filter>
<filter id="filter2_d_43_6075" x="61.75" y="723.305" width="1042.22" height="266.98" filterUnits="userSpaceOnUse" color-interpolation-filters="sRGB">
<feFlood flood-opacity="0" result="BackgroundImageFix"/>
<feColorMatrix in="SourceAlpha" type="matrix" values="0 0 0 0 0 0 0 0 0 0 0 0 0 0 0 0 0 0 127 0" result="hardAlpha"/>
<feOffset dy="4"/>
<feGaussianBlur stdDeviation="2"/>
<feComposite in2="hardAlpha" operator="out"/>
<feColorMatrix type="matrix" values="0 0 0 0 0 0 0 0 0 0 0 0 0 0 0 0 0 0 0.25 0"/>
<feBlend mode="normal" in2="BackgroundImageFix" result="effect1_dropShadow_43_6075"/>
<feBlend mode="normal" in="SourceGraphic" in2="effect1_dropShadow_43_6075" result="shape"/>
</filter>
<filter id="filter3_d_43_6075" x="61.75" y="1042.54" width="1042.22" height="266.98" filterUnits="userSpaceOnUse" color-interpolation-filters="sRGB">
<feFlood flood-opacity="0" result="BackgroundImageFix"/>
<feColorMatrix in="SourceAlpha" type="matrix" values="0 0 0 0 0 0 0 0 0 0 0 0 0 0 0 0 0 0 127 0" result="hardAlpha"/>
<feOffset dy="4"/>
<feGaussianBlur stdDeviation="2"/>
<feComposite in2="hardAlpha" operator="out"/>
<feColorMatrix type="matrix" values="0 0 0 0 0 0 0 0 0 0 0 0 0 0 0 0 0 0 0.25 0"/>
<feBlend mode="normal" in2="BackgroundImageFix" result="effect1_dropShadow_43_6075"/>
<feBlend mode="normal" in="SourceGraphic" in2="effect1_dropShadow_43_6075" result="shape"/>
</filter>
<filter id="filter4_d_43_6075" x="61.75" y="1361.8" width="1042.22" height="266.98" filterUnits="userSpaceOnUse" color-interpolation-filters="sRGB">
<feFlood flood-opacity="0" result="BackgroundImageFix"/>
<feColorMatrix in="SourceAlpha" type="matrix" values="0 0 0 0 0 0 0 0 0 0 0 0 0 0 0 0 0 0 127 0" result="hardAlpha"/>
<feOffset dy="4"/>
<feGaussianBlur stdDeviation="2"/>
<feComposite in2="hardAlpha" operator="out"/>
<feColorMatrix type="matrix" values="0 0 0 0 0 0 0 0 0 0 0 0 0 0 0 0 0 0 0.25 0"/>
<feBlend mode="normal" in2="BackgroundImageFix" result="effect1_dropShadow_43_6075"/>
<feBlend mode="normal" in="SourceGraphic" in2="effect1_dropShadow_43_6075" result="shape"/>
</filter>
</defs>
</svg>
