<svg width="1080" height="1080" viewBox="0 0 1080 1080" fill="none" xmlns="http://www.w3.org/2000/svg">
<g clip-path="url(#clip0_84_1201)">
<rect width="1080" height="1080" fill="white"/>
<path d="M976.213 688.985C973.142 681.912 969.508 675.076 965.917 668.284C950.776 639.927 933.277 612.306 926.464 580.163C913.377 518.43 959.861 452.977 939.853 393.365C931.417 368.23 910.976 347.941 886.815 340.955C859.864 333.06 831.139 340.955 803.28 338.337C749.593 333.384 706.571 291.53 662.359 258.717C635.278 238.622 601.837 220.669 570.409 231.484C537.726 242.753 520.01 280.736 490.377 299.23C428.536 337.797 346.947 296.548 280.348 300.744C254.175 302.388 225.558 311.689 212.602 335.98C198.845 361.763 203.733 390.618 202.501 418.823C201.224 447.808 191.058 471.06 172.348 492.561C157.877 509.216 139.903 522.021 124.48 537.552C109.058 553.082 95.3661 572.657 93.3329 595.261C88.7689 647.541 146.132 687.47 144.791 739.967C144.164 764.214 130.84 786.018 126.557 809.854C119.83 847.512 136.81 886.425 162.052 913.679C226.532 983.415 333.277 986.184 419.452 985.967C502.447 985.773 585.29 979.478 668.069 972.989C696.816 970.826 725.692 968.555 753.898 962.174C776.401 956.852 798.486 949.897 819.978 941.366C850.26 929.794 882.057 914.977 906.261 892.114C932.412 867.391 953.177 829.559 968.037 796.335C980.691 767.978 989.818 735.771 982.075 705.38C980.574 699.764 978.613 694.28 976.213 688.985Z" fill="#D8EFF2"/>
<path d="M728.335 815.269C732.163 785.182 752.798 759.225 778.084 742.484C803.37 725.742 833.003 716.982 862.442 709.757C864.887 708.897 867.378 708.175 869.904 707.594L854.763 763.054C848.274 786.696 841.569 810.857 827.401 830.865C815.266 847.974 798.59 859.503 779.814 868.198C762.792 876.072 743.519 877.997 726.215 886.476C729.265 862.726 725.306 839.041 728.335 815.269Z" fill="#6CC7B5"/>
<mask id="mask0_84_1201" style="mask-type:luminance" maskUnits="userSpaceOnUse" x="726" y="707" width="144" height="180">
<path d="M728.335 815.275C732.163 785.188 752.798 759.231 778.084 742.49C803.37 725.748 833.003 716.987 862.442 709.763C864.887 708.903 867.378 708.181 869.904 707.6L854.763 763.06C848.274 786.702 841.569 810.863 827.401 830.871C815.266 847.98 798.59 859.509 779.814 868.204C762.792 876.078 743.519 878.003 726.215 886.482C729.265 862.732 725.306 839.047 728.335 815.275Z" fill="white"/>
</mask>
<g mask="url(#mask0_84_1201)">
<path d="M720.035 896.595L758.97 837.047C764.269 828.979 769.568 820.911 775.192 813.059C795.46 784.788 819.88 759.784 844.193 734.909L897.446 680.401" stroke="#00986E" stroke-miterlimit="10"/>
<path d="M833.315 692.667C832.728 696.356 831.591 699.936 829.941 703.287C821.721 722.971 819.536 743.541 816.746 764.479" stroke="#00986E" stroke-miterlimit="10"/>
<path d="M787.703 797.375C788.114 768.823 788.612 739.838 796.874 712.519" stroke="#00986E" stroke-miterlimit="10"/>
<path d="M765.922 825.302C754.652 797.507 759.259 766.122 764.472 736.618" stroke="#00986E" stroke-miterlimit="10"/>
<path d="M745.626 858.77C744.074 853.331 741.897 848.09 739.137 843.153C728.339 823.969 725.371 801.356 730.852 780.036" stroke="#00986E" stroke-miterlimit="10"/>
<path d="M765.375 826.197C793.502 834.809 823.822 832.706 850.49 820.292" stroke="#00986E" stroke-miterlimit="10"/>
<path d="M787.398 797.17C800.323 796.055 813.135 793.885 825.706 790.681C838.34 787.492 850.01 781.279 859.708 772.576" stroke="#00986E" stroke-miterlimit="10"/>
<path d="M815.422 764.789C835.879 761.302 855.02 752.374 870.838 738.941" stroke="#00986E" stroke-miterlimit="10"/>
<path d="M744.922 857.342C767.004 862.064 789.953 860.711 811.327 853.427" stroke="#00986E" stroke-miterlimit="10"/>
</g>
<path d="M349.57 378.008C319.548 373.681 293.851 352.808 277.434 327.328C261.016 301.848 252.645 272.084 245.81 242.559C245.005 240.099 244.348 237.592 243.842 235.053L299.085 250.952C322.641 257.744 346.672 264.773 366.528 279.201C383.486 291.552 394.799 308.358 403.3 327.306C410.935 344.416 412.622 363.732 420.863 381.122C397.027 377.683 373.277 381.339 349.57 378.008Z" fill="#6CC7B5"/>
<mask id="mask1_84_1201" style="mask-type:luminance" maskUnits="userSpaceOnUse" x="243" y="235" width="178" height="147">
<path d="M349.584 378.02C319.561 373.694 293.865 352.821 277.447 327.341C261.03 301.86 252.659 272.097 245.824 242.572C245.019 240.111 244.361 237.605 243.855 235.066L299.099 250.964C322.654 257.756 346.685 264.786 366.542 279.213C383.5 291.564 394.813 308.371 403.313 327.319C410.949 344.428 412.636 363.744 420.877 381.135C397.041 377.696 373.291 381.351 349.584 378.02Z" fill="white"/>
</mask>
<g mask="url(#mask1_84_1201)">
<path d="M430.79 387.385L371.739 347.585C363.736 342.178 355.733 336.77 347.946 331.06C319.957 310.425 295.277 285.636 270.705 261.043L216.889 206.967" stroke="#00986E" stroke-miterlimit="10"/>
<path d="M228.34 271.466C232.017 272.089 235.576 273.27 238.895 274.971C258.492 283.428 279.019 285.894 299.914 288.965" stroke="#00986E" stroke-miterlimit="10"/>
<path d="M332.456 318.449C303.904 317.649 274.941 316.762 247.709 308.153" stroke="#00986E" stroke-miterlimit="10"/>
<path d="M360.086 340.602C332.162 351.525 300.819 346.486 271.402 340.883" stroke="#00986E" stroke-miterlimit="10"/>
<path d="M393.184 361.285C387.728 362.759 382.464 364.872 377.502 367.58C358.183 378.14 335.529 380.821 314.277 375.064" stroke="#00986E" stroke-miterlimit="10"/>
<path d="M360.989 341.117C369.944 313.102 368.234 282.768 356.188 255.937" stroke="#00986E" stroke-miterlimit="10"/>
<path d="M332.259 318.734C331.325 305.798 329.35 292.959 326.354 280.34C323.314 267.674 317.25 255.932 308.682 246.121" stroke="#00986E" stroke-miterlimit="10"/>
<path d="M300.224 290.288C296.993 269.784 288.312 250.525 275.09 234.525" stroke="#00986E" stroke-miterlimit="10"/>
<path d="M391.847 361.966C396.84 339.968 395.787 317.029 388.797 295.583" stroke="#00986E" stroke-miterlimit="10"/>
</g>
<path d="M300.519 899.539C275.039 883.122 260.503 853.315 256.264 823.293C252.024 793.27 256.934 762.728 263.099 733.073C263.411 730.505 263.866 727.955 264.462 725.438L307.96 763.052C326.476 779.08 345.402 795.498 357.342 816.977C367.551 835.297 370.774 855.305 370.515 876.027C370.277 894.78 363.701 913.015 363.896 932.266C343.736 919.158 320.657 912.517 300.519 899.539Z" fill="#00986E"/>
<mask id="mask2_84_1201" style="mask-type:luminance" maskUnits="userSpaceOnUse" x="254" y="725" width="117" height="208">
<path d="M300.529 899.544C275.049 883.127 260.513 853.32 256.274 823.298C252.034 793.275 256.944 762.733 263.109 733.078C263.421 730.51 263.876 727.96 264.472 725.443L307.97 763.058C326.485 779.086 345.412 795.503 357.352 816.982C367.561 835.302 370.784 855.31 370.524 876.032C370.286 894.786 363.711 913.02 363.906 932.271C343.746 919.163 320.667 912.522 300.529 899.544Z" fill="white"/>
</mask>
<g mask="url(#mask2_84_1201)">
<path d="M370.325 942.114L333.424 881.225C328.427 872.962 323.409 864.699 318.758 856.242C301.995 825.765 289.968 792.952 277.985 760.29L251.77 688.738" stroke="#6CC7B5" stroke-miterlimit="10"/>
<path d="M235.164 751.991C238.235 754.107 240.97 756.673 243.275 759.605C257.508 775.503 275.115 786.339 292.809 797.89" stroke="#6CC7B5" stroke-miterlimit="10"/>
<path d="M309.954 838.286C284.388 825.589 258.453 812.654 237.342 793.425" stroke="#6CC7B5" stroke-miterlimit="10"/>
<path d="M325.78 869.998C295.844 868.181 269.542 850.53 245.1 833.053" stroke="#6CC7B5" stroke-miterlimit="10"/>
<path d="M347.147 902.666C341.569 901.719 335.9 901.429 330.254 901.801C308.277 903.284 286.577 896.216 269.689 882.074" stroke="#6CC7B5" stroke-miterlimit="10"/>
<path d="M326.348 870.84C346.237 849.172 357.409 820.912 357.711 791.5" stroke="#6CC7B5" stroke-miterlimit="10"/>
<path d="M309.682 838.464C314.292 826.333 317.909 813.847 320.497 801.13C323.061 788.363 322.482 775.164 318.81 762.671" stroke="#6CC7B5" stroke-miterlimit="10"/>
<path d="M292.535 799.195C298.192 779.23 298.386 758.113 293.098 738.047" stroke="#6CC7B5" stroke-miterlimit="10"/>
<path d="M345.641 902.703C359.399 884.832 368.055 863.565 370.688 841.165" stroke="#6CC7B5" stroke-miterlimit="10"/>
</g>
<path d="M382.432 343.512C356.951 327.094 342.416 297.288 338.198 267.265C333.98 237.242 338.869 206.701 345.033 177.046C345.335 174.476 345.79 171.926 346.396 169.41L389.873 207.025C408.41 223.053 427.314 239.47 439.254 260.949C449.485 279.27 452.687 299.278 452.427 320C452.189 338.775 445.635 356.987 445.808 376.238C425.671 363.13 402.526 356.49 382.432 343.512Z" fill="#00986E"/>
<mask id="mask3_84_1201" style="mask-type:luminance" maskUnits="userSpaceOnUse" x="336" y="169" width="117" height="208">
<path d="M382.42 343.499C356.94 327.082 342.404 297.276 338.186 267.253C333.968 237.23 338.857 206.688 345.021 177.033C345.323 174.463 345.778 171.914 346.384 169.398L389.861 207.013C408.398 223.041 427.303 239.458 439.243 260.937C449.474 279.258 452.675 299.266 452.415 319.987C452.178 338.762 445.624 356.975 445.797 376.226C425.659 363.118 402.515 356.477 382.42 343.499Z" fill="white"/>
</mask>
<g mask="url(#mask3_84_1201)">
<path d="M452.258 386.069L415.336 325.18C410.339 316.917 405.343 308.655 400.692 300.197C383.929 269.72 371.881 236.929 359.919 204.267C351.18 180.402 342.435 156.544 333.682 132.693" stroke="#6CC7B5" stroke-miterlimit="10"/>
<path d="M317.059 195.946C320.132 198.067 322.873 200.633 325.192 203.56C339.424 219.458 357.01 230.295 374.703 241.845" stroke="#6CC7B5" stroke-miterlimit="10"/>
<path d="M391.892 282.241C366.325 269.544 340.39 256.609 319.279 237.38" stroke="#6CC7B5" stroke-miterlimit="10"/>
<path d="M407.669 313.953C377.733 312.136 351.43 294.486 327.01 277.008" stroke="#6CC7B5" stroke-miterlimit="10"/>
<path d="M429.044 346.621C423.466 345.674 417.796 345.383 412.151 345.756C390.173 347.244 368.471 340.175 351.586 326.029" stroke="#6CC7B5" stroke-miterlimit="10"/>
<path d="M408.277 314.795C428.156 293.122 439.319 264.863 439.619 235.456" stroke="#6CC7B5" stroke-miterlimit="10"/>
<path d="M391.578 282.419C396.188 270.288 399.805 257.802 402.393 245.085C404.556 232.323 404.708 218.956 400.684 206.626" stroke="#6CC7B5" stroke-miterlimit="10"/>
<path d="M374.395 243.15C380.062 223.187 380.256 202.066 374.957 182.002" stroke="#6CC7B5" stroke-miterlimit="10"/>
<path d="M427.535 346.658C441.299 328.788 449.963 307.522 452.605 285.12" stroke="#6CC7B5" stroke-miterlimit="10"/>
</g>
<path d="M734.314 853.482C746.622 825.774 773.854 806.848 802.86 798.066C831.866 789.284 862.776 789.414 893.058 790.971C895.64 790.87 898.226 790.921 900.802 791.123C890.707 807.388 880.549 823.64 870.325 839.877C857.347 860.642 843.936 881.883 824.62 896.959C808.095 909.937 788.822 916.102 768.382 919.044C749.801 921.682 730.788 918.005 711.797 921.207C721.574 899.209 724.58 875.394 734.314 853.482Z" fill="#00986E"/>
<mask id="mask4_84_1201" style="mask-type:luminance" maskUnits="userSpaceOnUse" x="711" y="790" width="190" height="132">
<path d="M734.314 853.491C746.622 825.783 773.854 806.856 802.86 798.074C831.866 789.292 862.776 789.422 893.058 790.98C895.64 790.878 898.226 790.929 900.802 791.131C890.707 807.397 880.549 823.648 870.325 839.885C857.347 860.65 843.936 881.891 824.62 896.968C808.095 909.946 788.822 916.11 768.382 919.052C749.801 921.691 730.788 918.014 711.797 921.215C721.574 899.217 724.58 875.402 734.314 853.491Z" fill="white"/>
</mask>
<g mask="url(#mask4_84_1201)">
<path d="M702.984 929.012L757.493 883.178C764.868 876.97 772.266 870.762 779.901 864.857C807.458 843.616 838.022 826.679 868.455 809.851L935.141 772.95" stroke="#6CC7B5" stroke-miterlimit="10"/>
<path d="M870.076 766.228C868.468 769.597 866.361 772.703 863.825 775.442C850.285 791.946 842.303 811.002 833.543 830.253" stroke="#6CC7B5" stroke-miterlimit="10"/>
<path d="M796.211 853.42C804.863 826.209 813.645 798.587 829.392 774.772" stroke="#6CC7B5" stroke-miterlimit="10"/>
<path d="M767.411 873.901C764.599 844.029 778.053 815.283 791.529 788.505" stroke="#6CC7B5" stroke-miterlimit="10"/>
<path d="M738.396 900.032C738.482 894.375 737.901 888.726 736.665 883.204C731.838 861.729 735.488 839.219 746.853 820.368" stroke="#6CC7B5" stroke-miterlimit="10"/>
<path d="M766.66 874.619C791.136 890.918 820.771 897.597 849.872 893.373" stroke="#6CC7B5" stroke-miterlimit="10"/>
<path d="M796.082 853.147C808.779 855.801 821.669 857.429 834.627 858.014C847.636 858.583 860.588 855.985 872.372 850.444" stroke="#6CC7B5" stroke-miterlimit="10"/>
<path d="M832.246 830.16C852.86 832.701 873.779 829.653 892.811 821.335" stroke="#6CC7B5" stroke-miterlimit="10"/>
<path d="M738.137 898.557C757.883 909.394 780.193 914.685 802.703 913.871" stroke="#6CC7B5" stroke-miterlimit="10"/>
</g>
<path d="M781.047 956.1H361.421V428.064L311.672 363.433H731.298C744.492 363.433 757.146 368.674 766.476 378.004C775.806 387.334 781.047 399.988 781.047 413.182V956.1Z" fill="white"/>
<path d="M311.73 363.348C324.924 363.348 337.578 368.589 346.908 377.919C356.238 387.249 361.479 399.903 361.479 413.097V525.034H261.98V413.054C261.992 399.867 267.238 387.224 276.567 377.904C285.896 368.583 298.543 363.348 311.73 363.348Z" fill="#A1C9D9"/>
<path d="M749.665 505.485H406.48C402.502 505.485 399.277 508.71 399.277 512.688V512.709C399.277 516.687 402.502 519.912 406.48 519.912H749.665C753.643 519.912 756.868 516.687 756.868 512.709V512.688C756.868 508.71 753.643 505.485 749.665 505.485Z" fill="#DDEDF2"/>
<path d="M665.129 461.686H490.984C487.006 461.686 483.781 464.911 483.781 468.889V468.91C483.781 472.888 487.006 476.113 490.984 476.113H665.129C669.107 476.113 672.332 472.888 672.332 468.91V468.889C672.332 464.911 669.107 461.686 665.129 461.686Z" fill="#A1C9D9"/>
<path d="M601.887 538.908H406.48C402.502 538.908 399.277 542.133 399.277 546.111V546.133C399.277 550.111 402.502 553.336 406.48 553.336H601.887C605.866 553.336 609.09 550.111 609.09 546.133V546.111C609.09 542.133 605.866 538.908 601.887 538.908Z" fill="#DDEDF2"/>
<path d="M749.021 538.908H632.586C628.608 538.908 625.383 542.133 625.383 546.111V546.133C625.383 550.111 628.608 553.336 632.586 553.336H749.021C752.999 553.336 756.224 550.111 756.224 546.133V546.111C756.224 542.133 752.999 538.908 749.021 538.908Z" fill="#DDEDF2"/>
<path d="M553.612 588.963H749.02C752.998 588.963 756.223 585.738 756.223 581.76V581.739C756.223 577.761 752.998 574.536 749.02 574.536H553.612C549.634 574.536 546.41 577.761 546.41 581.739V581.76C546.41 585.738 549.634 588.963 553.612 588.963Z" fill="#DDEDF2"/>
<path d="M406.502 588.963H522.938C526.916 588.963 530.141 585.738 530.141 581.76V581.739C530.141 577.761 526.916 574.536 522.938 574.536H406.502C402.524 574.536 399.299 577.761 399.299 581.739V581.76C399.299 585.738 402.524 588.963 406.502 588.963Z" fill="#DDEDF2"/>
<path d="M749.665 609.426H406.48C402.502 609.426 399.277 612.651 399.277 616.629V616.65C399.277 620.628 402.502 623.853 406.48 623.853H749.665C753.643 623.853 756.868 620.628 756.868 616.65V616.629C756.868 612.651 753.643 609.426 749.665 609.426Z" fill="#DDEDF2"/>
<path d="M601.887 642.875H406.48C402.502 642.875 399.277 646.1 399.277 650.078V650.099C399.277 654.077 402.502 657.302 406.48 657.302H601.887C605.866 657.302 609.09 654.077 609.09 650.099V650.078C609.09 646.1 605.866 642.875 601.887 642.875Z" fill="#DDEDF2"/>
<path d="M749.021 642.875H632.586C628.608 642.875 625.383 646.1 625.383 650.078V650.099C625.383 654.077 628.608 657.302 632.586 657.302H749.021C752.999 657.302 756.224 654.077 756.224 650.099V650.078C756.224 646.1 752.999 642.875 749.021 642.875Z" fill="#DDEDF2"/>
<path d="M553.612 692.921H749.02C752.998 692.921 756.223 689.696 756.223 685.718V685.696C756.223 681.718 752.998 678.494 749.02 678.494H553.612C549.634 678.494 546.41 681.718 546.41 685.696V685.718C546.41 689.696 549.634 692.921 553.612 692.921Z" fill="#DDEDF2"/>
<path d="M406.502 692.921H522.938C526.916 692.921 530.141 689.696 530.141 685.718V685.696C530.141 681.718 526.916 678.494 522.938 678.494H406.502C402.524 678.494 399.299 681.718 399.299 685.696V685.718C399.299 689.696 402.524 692.921 406.502 692.921Z" fill="#DDEDF2"/>
<path d="M749.665 714.638H406.48C402.502 714.638 399.277 717.863 399.277 721.841V721.863C399.277 725.841 402.502 729.065 406.48 729.065H749.665C753.643 729.065 756.868 725.841 756.868 721.863V721.841C756.868 717.863 753.643 714.638 749.665 714.638Z" fill="#DDEDF2"/>
<path d="M601.887 748.079H406.48C402.502 748.079 399.277 751.303 399.277 755.281V755.303C399.277 759.281 402.502 762.506 406.48 762.506H601.887C605.866 762.506 609.09 759.281 609.09 755.303V755.281C609.09 751.303 605.866 748.079 601.887 748.079Z" fill="#DDEDF2"/>
<path d="M749.021 748.079H632.586C628.608 748.079 625.383 751.303 625.383 755.281V755.303C625.383 759.281 628.608 762.506 632.586 762.506H749.021C752.999 762.506 756.224 759.281 756.224 755.303V755.281C756.224 751.303 752.999 748.079 749.021 748.079Z" fill="#DDEDF2"/>
<path d="M553.612 798.133H749.02C752.998 798.133 756.223 794.909 756.223 790.931V790.909C756.223 786.931 752.998 783.706 749.02 783.706H553.612C549.634 783.706 546.41 786.931 546.41 790.909V790.931C546.41 794.909 549.634 798.133 553.612 798.133Z" fill="#DDEDF2"/>
<path d="M406.502 798.133H522.938C526.916 798.133 530.141 794.909 530.141 790.931V790.909C530.141 786.931 526.916 783.706 522.938 783.706H406.502C402.524 783.706 399.299 786.931 399.299 790.909V790.931C399.299 794.909 402.524 798.133 406.502 798.133Z" fill="#DDEDF2"/>
<path opacity="0.1" d="M782.658 899.545C772.646 902.359 762.164 903.095 751.856 901.708C728.063 898.052 707.45 880.64 683.354 879.905C660.837 879.191 640.893 893.121 619.955 901.535C589.363 913.595 555.412 914.026 524.523 902.746C502.785 894.721 482.798 880.921 459.784 878.239C426.733 874.389 395.261 894.159 362.945 900.951V956.108H782.571L782.658 899.545Z" fill="#231F20"/>
<path d="M1002.38 920.112C976.036 917.949 947.03 931.446 924.513 917.646C912.984 910.594 906.171 897.746 895.442 889.527C872.752 872.222 840.026 879.793 813.94 891.473C787.854 903.154 760.881 918.554 732.632 914.228C708.838 910.573 688.203 893.16 664.129 892.425C641.612 891.711 621.647 905.641 600.731 914.055C570.138 926.116 536.187 926.547 505.298 915.267C483.56 907.242 463.573 893.442 440.559 890.76C397.623 885.763 357.369 920.609 314.498 915.115C276.775 910.27 242.772 874.753 206.477 886.066C193.672 890.046 183.116 899.52 170.289 903.37C157.095 907.328 142.949 904.971 129.192 905.23C82.3194 906.117 38.3452 941.785 27.7031 987.425C82.1896 1017.99 147.556 1020.43 210.003 1021C278.57 1021.67 347.16 1020.99 415.749 1020.43C520.958 1019.5 626.168 1018.55 731.334 1015.72C784.573 1014.28 837.79 1012.27 890.986 1009.7C917.375 1008.38 943.735 1006.87 970.066 1005.18C994.4 1003.63 1023.82 1005.79 1047.35 999.473C1068.46 993.806 1062.49 971.721 1054.51 956.58C1044.32 937.048 1024.81 921.95 1002.38 920.112Z" fill="#7BCED2"/>
<path d="M603.165 621.939C599.575 608.074 573.618 580.841 562.068 576.018C550.517 571.194 506.348 553.652 486.6 554.063C466.852 554.474 396.272 599.205 396.272 599.205L338.001 581.728L317.062 682.525L433.628 716.268L537.453 749.189L597.693 732.318L649.281 700.305C649.281 700.305 584.953 632.04 596.849 642.185C608.746 652.329 614.673 666.259 603.165 621.939Z" fill="#EE9C84"/>
<path d="M472.309 621.939C475.9 608.074 501.878 580.841 513.407 576.018C524.936 571.194 569.234 553.652 588.94 554.063C608.645 554.474 679.202 599.205 679.202 599.205L737.496 581.728L758.434 682.525L661.098 712.418L561.166 611.102C561.166 611.102 524.114 620.338 512.217 630.569C500.321 640.8 460.932 666.259 472.309 621.939Z" fill="#F7B690"/>
<path d="M663.408 733.32L661.028 735.592C658.553 737.973 655.235 739.276 651.801 739.215C648.367 739.154 645.097 737.734 642.708 735.267L620.385 712.361C619.209 711.151 618.283 709.721 617.663 708.152C617.042 706.583 616.738 704.906 616.768 703.219C616.798 701.532 617.162 699.868 617.838 698.322C618.515 696.776 619.491 695.38 620.71 694.213L623.089 691.942C625.58 689.592 628.892 688.31 632.316 688.371C635.739 688.432 639.004 689.83 641.41 692.266L663.732 715.194C664.905 716.403 665.828 717.833 666.447 719.4C667.066 720.966 667.369 722.64 667.339 724.325C667.309 726.009 666.946 727.671 666.271 729.215C665.597 730.759 664.623 732.154 663.408 733.32Z" fill="#EE9C84"/>
<path d="M633.071 743.851L630.692 746.122C628.216 748.503 624.898 749.806 621.464 749.745C618.03 749.685 614.76 748.265 612.371 745.798L593.358 726.33C592.181 725.121 591.256 723.69 590.635 722.121C590.014 720.552 589.71 718.876 589.74 717.189C589.77 715.502 590.134 713.838 590.811 712.292C591.487 710.746 592.463 709.349 593.682 708.183L596.062 705.912C598.55 703.557 601.863 702.271 605.288 702.332C608.714 702.393 611.979 703.794 614.382 706.236L633.395 725.703C634.574 726.911 635.502 728.341 636.125 729.911C636.747 731.48 637.052 733.157 637.022 734.845C636.992 736.533 636.627 738.198 635.949 739.744C635.271 741.29 634.292 742.686 633.071 743.851Z" fill="#EE9C84"/>
<path d="M601.792 753.437L599.412 755.708C596.937 758.09 593.619 759.392 590.185 759.332C586.751 759.271 583.481 757.851 581.092 755.384L566.405 740.243C565.228 739.033 564.303 737.603 563.682 736.034C563.061 734.465 562.757 732.788 562.787 731.101C562.817 729.414 563.181 727.75 563.858 726.204C564.534 724.658 565.51 723.262 566.729 722.095L569.109 719.932C571.597 717.577 574.91 716.292 578.335 716.353C581.761 716.413 585.026 717.815 587.429 720.256L602.116 735.398C604.464 737.833 605.749 741.102 605.689 744.484C605.628 747.867 604.226 751.087 601.792 753.437Z" fill="#EE9C84"/>
<path d="M569.623 761.803L567.244 764.074C564.77 766.448 561.456 767.747 558.028 767.686C554.599 767.626 551.333 766.21 548.945 763.749L540.098 754.665C538.922 753.457 537.998 752.028 537.377 750.461C536.756 748.894 536.452 747.219 536.483 745.534C536.513 743.849 536.876 742.186 537.553 740.642C538.229 739.098 539.204 737.703 540.423 736.539L542.802 734.267C545.277 731.886 548.595 730.583 552.029 730.644C555.464 730.705 558.733 732.125 561.123 734.592L569.97 743.655C571.142 744.867 572.063 746.299 572.681 747.869C573.298 749.438 573.6 751.114 573.567 752.801C573.535 754.487 573.17 756.15 572.493 757.695C571.817 759.24 570.841 760.636 569.623 761.803Z" fill="#EE9C84"/>
<path d="M411.183 733.32L413.562 735.592C416.036 737.966 419.35 739.265 422.779 739.204C426.207 739.143 429.473 737.728 431.861 735.267L454.205 712.361C455.378 711.148 456.299 709.716 456.916 708.147C457.534 706.577 457.835 704.901 457.803 703.215C457.771 701.529 457.406 699.865 456.729 698.321C456.052 696.776 455.077 695.38 453.859 694.213L451.48 691.942C448.989 689.592 445.677 688.31 442.253 688.371C438.829 688.432 435.565 689.83 433.159 692.266L410.837 715.194C409.665 716.405 408.744 717.835 408.127 719.403C407.51 720.971 407.208 722.645 407.241 724.329C407.273 726.014 407.638 727.675 408.314 729.218C408.991 730.761 409.966 732.155 411.183 733.32Z" fill="#F7B690"/>
<path d="M441.453 743.851L443.832 746.122C446.308 748.503 449.626 749.806 453.06 749.745C456.494 749.685 459.764 748.265 462.153 745.798L481.166 726.33C482.343 725.121 483.268 723.69 483.889 722.121C484.51 720.552 484.814 718.876 484.784 717.189C484.754 715.502 484.39 713.838 483.713 712.292C483.037 710.746 482.061 709.349 480.842 708.183L478.462 705.912C475.974 703.557 472.661 702.271 469.236 702.332C465.81 702.393 462.545 703.794 460.142 706.236L441.129 725.703C439.95 726.911 439.022 728.341 438.399 729.911C437.777 731.48 437.472 733.157 437.502 734.845C437.532 736.533 437.897 738.198 438.575 739.744C439.253 741.29 440.232 742.686 441.453 743.851Z" fill="#F7B690"/>
<path d="M472.77 753.437L475.149 755.708C477.624 758.09 480.943 759.392 484.377 759.332C487.811 759.271 491.081 757.851 493.47 755.384L508.179 740.243C509.351 739.03 510.272 737.598 510.89 736.029C511.507 734.459 511.809 732.783 511.776 731.097C511.744 729.411 511.379 727.747 510.702 726.202C510.026 724.658 509.05 723.262 507.832 722.095L505.453 719.932C502.965 717.577 499.652 716.292 496.227 716.353C492.801 716.413 489.536 717.815 487.132 720.256L472.445 735.398C470.097 737.833 468.812 741.102 468.873 744.484C468.934 747.867 470.336 751.087 472.77 753.437Z" fill="#F7B690"/>
<path d="M504.952 761.803L507.331 764.074C509.82 766.429 513.132 767.714 516.558 767.653C519.983 767.593 523.248 766.191 525.652 763.749L534.477 754.665C535.653 753.457 536.578 752.028 537.198 750.461C537.819 748.894 538.123 747.219 538.093 745.534C538.063 743.849 537.699 742.186 537.023 740.642C536.346 739.098 535.371 737.703 534.153 736.539L531.773 734.267C529.298 731.886 525.98 730.583 522.546 730.644C519.112 730.705 515.842 732.125 513.453 734.592L504.627 743.655C503.451 744.865 502.526 746.295 501.905 747.864C501.284 749.433 500.98 751.109 501.01 752.796C501.04 754.483 501.404 756.148 502.08 757.694C502.757 759.239 503.733 760.636 504.952 761.803Z" fill="#F7B690"/>
<path d="M358.218 581.804L332.608 699.278L297.762 689.263L321.966 570.73L358.218 581.804Z" fill="#A1C9D9"/>
<path d="M719.754 581.804L745.386 699.278L780.21 689.263L756.006 570.73L719.754 581.804Z" fill="#A1C9D9"/>
<path d="M747.594 568.49L1079.79 467.586V607.144L779.282 693.189L747.594 568.49Z" fill="#376489"/>
<path opacity="0.2" d="M779.27 693.185L771.938 664.287L1079.78 571.645V606.275L779.27 693.185Z" fill="#231F20"/>
<path d="M330.689 568.492L-1.03195 467.738L-1.50781 607.145L299.001 693.19L330.689 568.492Z" fill="#376489"/>
<path opacity="0.2" d="M299.001 693.185L306.333 664.287L-1.50781 571.645V606.275L299.001 693.185Z" fill="#231F20"/>
<path opacity="0.2" d="M742.776 687.312L665.989 693.195L561.082 611.087L661.014 712.403L742.776 687.312Z" fill="#231F20"/>
<path d="M633.516 726.027C629.32 722.199 625.297 718.219 621.295 714.196C617.294 710.172 613.379 706.106 609.507 701.996C605.635 697.886 601.785 693.69 598.064 689.429L592.484 682.94C590.667 680.777 588.807 678.614 587.055 676.451C589.218 678.354 591.186 680.344 593.241 682.291L599.276 688.261C603.299 692.263 607.192 696.372 611.064 700.482C614.936 704.592 618.786 708.788 622.507 713.049C626.227 717.31 629.969 721.593 633.516 726.027Z" fill="#D8816C"/>
<path d="M602.893 736.238C599.086 732.82 595.452 729.251 591.84 725.661C588.228 722.07 584.702 718.371 581.198 714.673C577.694 710.974 574.276 707.21 570.924 703.36L565.927 697.585C564.305 695.616 562.639 693.67 561.082 691.658C563.007 693.345 564.824 695.119 566.684 696.871L572.135 702.235C575.769 705.804 579.273 709.503 582.777 713.202C586.281 716.9 589.699 720.664 593.03 724.514C596.361 728.364 599.735 732.215 602.893 736.238Z" fill="#D8816C"/>
<path d="M570.8 745.158C564.203 739.361 558.082 733.132 552.069 726.773C546.055 720.413 540.28 713.794 534.938 706.916C541.535 712.713 547.656 718.942 553.648 725.302C559.639 731.661 565.436 738.193 570.8 745.158Z" fill="#D8816C"/>
<path d="M1080 955H-2V1080H1080V955Z" fill="#FFFFFA"/>
<path opacity="0.1" d="M251.107 982.38C251.107 985.646 225.453 988.328 193.83 988.328C162.207 988.328 136.467 985.646 136.467 982.38C136.467 979.114 162.12 976.432 193.765 976.432C225.41 976.432 251.107 979.092 251.107 982.38Z" fill="#231F20"/>
<path opacity="0.1" d="M941.8 982.38C941.8 985.646 916.168 988.328 884.523 988.328C852.878 988.328 827.246 985.646 827.246 982.38C827.246 979.114 852.878 976.432 884.523 976.432C916.168 976.432 941.8 979.092 941.8 982.38Z" fill="#231F20"/>
<path d="M868.138 979.372C867.704 979.386 867.273 979.467 866.862 979.61C866.66 979.695 866.485 979.835 866.359 980.015C866.233 980.195 866.16 980.407 866.148 980.626C866.167 980.874 866.266 981.11 866.43 981.297C866.903 981.742 867.475 982.07 868.099 982.254C868.722 982.438 869.381 982.473 870.02 982.357L884.404 981.989C884.635 982.016 884.868 981.975 885.076 981.871C885.283 981.768 885.456 981.606 885.572 981.405C885.986 980.651 886.238 979.82 886.313 978.963C886.387 978.106 886.283 977.244 886.005 976.43C885.437 974.8 885.116 973.094 885.053 971.368C885.053 970.763 885.183 970.049 884.729 969.638C884.51 969.468 884.248 969.363 883.972 969.335C882.444 969.007 880.883 968.862 879.321 968.903C879.482 970.694 879.482 972.497 879.321 974.289C877.872 978.55 871.902 979.09 868.138 979.372Z" fill="#8B0137"/>
<path d="M892.097 863.088C895.019 863.362 897.88 864.092 900.576 865.251C907.671 868.279 902.523 883.745 901.009 889.282C899.062 896.29 897.122 903.299 895.19 910.307C892.176 921.753 890.299 933.468 889.588 945.283C889.415 947.446 888.03 971.802 887.836 971.802L878.146 971.931C877.28 971.931 876.199 958.953 876.112 957.764C875.745 952.962 875.68 948.16 875.442 943.336C874.014 921.36 875.442 898.756 876.329 876.737C876.224 873.037 877.283 869.398 879.357 866.333C880.309 865.121 882.904 864.84 884.267 864.299C886.182 863.451 888.25 863.002 890.345 862.98L892.097 863.088Z" fill="#376489"/>
<path d="M888.701 979.371C888.266 979.384 887.835 979.464 887.425 979.609C887.222 979.694 887.048 979.835 886.921 980.015C886.795 980.195 886.722 980.406 886.711 980.626C886.722 980.872 886.813 981.107 886.97 981.296C887.445 981.74 888.017 982.067 888.64 982.251C889.264 982.435 889.921 982.471 890.561 982.356L904.967 981.989C905.182 982.007 905.398 981.97 905.594 981.881C905.81 981.777 905.991 981.611 906.113 981.405C906.536 980.654 906.795 979.823 906.873 978.966C906.951 978.108 906.847 977.244 906.567 976.43C906 974.799 905.679 973.093 905.616 971.368C905.616 970.763 905.746 970.049 905.291 969.638C905.068 969.475 904.808 969.371 904.534 969.335C903.007 969.008 901.446 968.863 899.884 968.902C900.055 970.694 900.055 972.497 899.884 974.288C898.413 978.549 892.465 979.09 888.701 979.371Z" fill="#8B0137"/>
<path d="M887.753 808.105C887.748 808.364 887.816 808.618 887.948 808.84C888.083 808.958 888.242 809.044 888.414 809.093C888.586 809.141 888.766 809.151 888.943 809.122C891.821 809.012 894.556 807.841 896.622 805.834C896.832 805.652 896.983 805.411 897.054 805.142C897.097 804.957 897.097 804.764 897.054 804.579L894.329 794.391C894.285 794.131 894.165 793.89 893.983 793.699C893.741 793.557 893.462 793.489 893.182 793.505C891.987 793.428 890.79 793.62 889.678 794.067C887.256 795.213 887.84 797.528 887.883 799.713C887.905 802.524 887.623 805.315 887.753 808.105Z" fill="#D99D81"/>
<path d="M912.607 863.82C912.981 865.965 913.212 868.133 913.299 870.309C914.64 890.122 912.629 909.979 911.266 929.749C910.293 943.808 909.103 957.868 908.389 971.928L898.699 972.058C897.855 972.058 896.774 959.079 896.687 957.89C896.32 953.088 896.255 948.286 895.995 943.462C895.995 935.805 895.195 928.062 894.827 920.405C894.373 911.342 893.832 902.192 892.664 893.194C892.015 887.786 891.215 882.379 890.609 877.036C890.047 872.083 888.684 866.221 890.912 861.549C892.113 859.024 894.245 857.063 896.86 856.076C899.29 855.341 901.834 855.055 904.366 855.233C905.73 855.179 907.092 855.37 908.389 855.795C911.655 856.92 912.045 860.921 912.607 863.82Z" fill="#376489"/>
<path d="M866.381 842.37C863.354 834.444 861.009 826.274 859.373 817.949C859.318 817.252 859.037 816.591 858.573 816.067C858.178 815.789 857.702 815.651 857.22 815.674C856.738 815.698 856.277 815.882 855.912 816.197C855.217 816.867 854.729 817.723 854.506 818.663C853.435 823.245 853.435 828.011 854.506 832.593C855.564 838.997 856.95 845.343 858.659 851.606C859.101 853.762 860.001 855.798 861.298 857.576C868.501 866.228 875.834 851.476 877.759 846.198C880.506 838.606 886.194 829.262 884.14 820.891C883.599 818.728 881.263 816.565 879.208 817.581C878.428 818.047 877.786 818.711 877.348 819.507C872.329 827.315 869.907 836.443 867.528 845.463L866.381 842.37Z" fill="#FAB594"/>
<path d="M882.129 795.368C870.146 785.007 879.252 756.001 896.427 767.725C908.475 775.966 897.011 807.113 882.41 795.606L882.129 795.368Z" fill="#FAB594"/>
<path d="M878.971 812.503C877.414 817.586 877.695 823.599 877.565 828.509L876.592 867.703C876.492 868.48 876.619 869.269 876.959 869.974C877.546 870.717 878.385 871.217 879.317 871.38C886.606 873.543 894.458 873.305 901.964 873.089C905.35 873.184 908.726 872.679 911.935 871.597C912.544 871.41 913.081 871.04 913.471 870.537C913.782 869.915 913.903 869.215 913.817 868.525C913.486 857.731 912.613 846.96 911.2 836.253C910.075 827.817 910.508 818.667 906.701 810.859C902.894 803.05 894.285 800.996 886.736 803.829C884.453 804.62 882.468 806.092 881.047 808.047C880.123 809.413 879.422 810.917 878.971 812.503Z" fill="#DE422B"/>
<path d="M930.522 832.678C932.176 835.271 933.664 837.965 934.978 840.746C935.381 841.512 935.582 842.368 935.562 843.233C935.482 843.807 935.306 844.362 935.043 844.877C932.707 850.177 930.998 853.811 926.499 857.726C922 861.641 917.003 865.686 911.985 869.319C911.632 869.635 911.197 869.845 910.73 869.925C909.714 869.925 908.892 868.887 908.957 867.762C908.957 866.313 910.19 865.296 910.882 864.107C911.574 862.917 912.634 861.078 913.521 859.586C915.359 856.514 917.263 853.508 919.231 850.523C920.81 848.122 922.67 845.829 924.141 843.363C925.266 841.481 923.081 839.232 921.978 837.804L914.256 828.503C913.134 827.458 912.23 826.201 911.596 824.804C911.282 824.085 911.129 823.306 911.147 822.521C911.166 821.737 911.356 820.966 911.704 820.262C915.965 812.367 924.985 823.788 930.522 832.678Z" fill="#FAB594"/>
<path d="M897.41 813.339C898.376 817.244 900.467 820.778 903.423 823.506C904.31 824.328 910.28 832.158 910.237 832.158C914.862 829.167 919.174 825.718 923.107 821.862C923.349 821.669 923.523 821.404 923.604 821.105C923.609 820.836 923.534 820.573 923.388 820.348C921.34 817.098 918.859 814.144 916.012 811.566C912.248 807.413 902.666 802.676 898.405 808.602C897.936 809.288 897.606 810.059 897.436 810.872C897.265 811.685 897.256 812.523 897.41 813.339Z" fill="#DE422B"/>
<path d="M876.372 810.192C873.621 813.118 871.793 816.789 871.116 820.748C870.899 821.938 867.655 831.174 867.59 831.13C872.602 833.402 877.835 835.149 883.207 836.343C883.339 836.41 883.484 836.448 883.631 836.454C883.779 836.461 883.927 836.435 884.064 836.38C884.201 836.325 884.325 836.241 884.427 836.134C884.529 836.027 884.607 835.899 884.656 835.759C886.256 832.276 887.383 828.596 888.009 824.814C889.458 819.385 888.225 808.786 880.936 808.419C880.095 808.392 879.257 808.535 878.473 808.84C877.689 809.145 876.974 809.605 876.372 810.192Z" fill="#DE422B"/>
<path d="M857.914 796.136C857.812 796.051 857.694 795.985 857.568 795.941C855.903 795.292 855.903 797.823 855.751 798.818C855.579 799.942 855.492 801.077 855.492 802.214C855.492 803.079 855.665 804.247 854.367 803.75C854.021 803.62 853.675 803.75 853.329 803.533C852.762 803.362 852.154 803.381 851.599 803.588C851.044 803.795 850.573 804.179 850.257 804.68C849.647 805.753 849.34 806.972 849.37 808.206C849.327 809.583 849.48 810.959 849.825 812.294C849.983 813.529 850.494 814.693 851.295 815.646C852.314 816.488 853.065 817.608 853.458 818.869C853.783 820.21 853.826 821.616 854.172 822.957C854.172 822.957 854.172 823.152 854.302 823.195C854.34 823.211 854.38 823.22 854.421 823.22C854.462 823.22 854.502 823.211 854.54 823.195C856.487 823.195 859.363 823.065 859.385 820.556C859.334 818.2 859.457 815.843 859.753 813.505C860.09 811.686 860.257 809.839 860.25 807.989C860.247 806.945 859.835 805.944 859.104 805.199C858.907 804.961 858.753 804.69 858.65 804.399C858.617 804.176 858.617 803.95 858.65 803.728L858.909 798.926C859.006 798.346 859.006 797.754 858.909 797.174C858.715 796.718 858.361 796.349 857.914 796.136Z" fill="#FAB594"/>
<path d="M902.804 765.613C902.02 764.751 901.019 764.116 899.905 763.774C897.742 763.104 895.341 763.341 893.135 762.693C890.929 762.044 888.398 760.53 886.04 761.243C884.787 761.953 883.327 762.206 881.909 761.957C880.852 761.556 879.758 761.259 878.643 761.07C872.413 760.638 870.812 770.869 876.004 773.291C876.933 773.663 877.928 773.842 878.929 773.816C879.929 773.79 880.914 773.56 881.822 773.14C882.347 772.876 882.908 772.694 883.488 772.599C884.579 772.653 885.647 772.933 886.624 773.421C889.35 774.33 892.702 773.421 894.93 775.281C895.759 776.213 896.38 777.31 896.753 778.499C897.126 779.689 897.242 780.944 897.093 782.181C897.093 784.344 896.985 786.68 897.093 788.908C897.093 790.141 896.812 791.807 898.261 791.071C899.908 789.723 901.281 788.07 902.306 786.205C903.483 784.471 904.422 782.586 905.096 780.602C906.546 776.506 906.312 772.003 904.447 768.078C904.024 767.18 903.47 766.349 902.804 765.613Z" fill="#151B35"/>
<path d="M895.572 785.503C895.182 787.666 895.853 789.656 897.086 789.829C898.319 790.002 899.616 788.466 900.027 786.26C900.438 784.053 899.746 782.128 898.513 781.934C897.28 781.739 895.982 783.318 895.572 785.503Z" fill="#FAB594"/>
<path d="M902.657 910.5L921.863 886.698L887.775 859.192L868.569 882.995L902.657 910.5Z" fill="#FFFFFA"/>
<path d="M907.722 882.142C908.678 881.075 909.459 879.863 910.037 878.552C910.612 877.294 911.061 875.983 911.378 874.636C912.161 872.168 913.175 869.778 914.406 867.499C914.495 867.357 914.533 867.189 914.514 867.023C914.487 866.894 914.428 866.775 914.341 866.677C913.51 865.734 912.474 864.994 911.313 864.514C911.213 864.492 911.11 864.492 911.01 864.514C910.815 864.514 910.642 864.665 910.491 864.816C909.691 865.833 908.809 866.78 907.852 867.65C907.721 867.757 907.575 867.844 907.419 867.91C907.052 868.104 906.684 868.212 906.338 868.429C905.992 868.645 905.364 868.969 904.889 869.229C903.894 869.748 902.899 870.202 901.882 870.635C902.686 871.126 903.414 871.731 904.045 872.43C904.564 873.274 903.72 874.81 903.331 875.567C902.682 876.864 901.774 878.011 901.168 879.33C900.952 879.71 900.868 880.152 900.93 880.585C900.93 881.039 900.93 881.493 900.93 881.947C900.952 882.187 901.028 882.418 901.151 882.624C901.275 882.83 901.443 883.005 901.644 883.137C901.878 883.275 902.134 883.371 902.401 883.418C903.269 883.598 904.155 883.671 905.04 883.635C905.386 883.632 905.729 883.573 906.057 883.462C906.365 883.347 906.65 883.178 906.9 882.964C907.196 882.713 907.471 882.439 907.722 882.142Z" fill="#FAB594"/>
<path d="M166.097 828.599C167.717 828.133 169.313 827.584 170.877 826.956C172.129 826.752 173.394 826.636 174.663 826.609C183.576 825.531 191.839 821.396 198.045 814.907C199.324 813.692 200.327 812.217 200.987 810.581C202.544 806.255 199.905 801.194 201.441 796.825C202.133 794.899 203.604 793.342 204.426 791.504C205.598 788.764 205.752 785.695 204.858 782.851C203.991 780.047 202.661 777.408 200.922 775.043C199.599 773.385 198.514 771.55 197.699 769.592C197.223 768.186 197.05 766.672 196.466 765.266C195.616 763.512 194.199 762.097 192.444 761.249C190.689 760.401 188.699 760.17 186.797 760.594C184.448 761.412 181.993 761.886 179.508 762C176.679 761.625 173.801 761.898 171.094 762.8C167.951 763.972 165.37 766.291 163.869 769.289C162.515 772.844 162.033 776.671 162.463 780.451C162.838 782.277 162.733 784.17 162.16 785.945C161 787.375 159.671 788.661 158.202 789.773C157.169 790.858 156.361 792.138 155.826 793.538C155.292 794.938 155.04 796.43 155.087 797.928C155.389 799.848 155.389 801.804 155.087 803.725C154.465 805.285 153.612 806.743 152.556 808.051C151.154 810.233 150.415 812.774 150.428 815.368C150.441 817.961 151.206 820.495 152.629 822.663C154.053 824.831 156.075 826.539 158.45 827.581C160.825 828.623 163.451 828.955 166.01 828.534L166.097 828.599Z" fill="#151B35"/>
<path d="M191.436 979.374C191.871 979.387 192.301 979.467 192.712 979.612C192.914 979.697 193.089 979.838 193.215 980.018C193.341 980.198 193.414 980.409 193.426 980.629C193.415 980.875 193.324 981.11 193.166 981.299C192.691 981.743 192.12 982.07 191.496 982.254C190.873 982.438 190.215 982.474 189.575 982.359L175.17 982.056C174.955 982.075 174.739 982.038 174.542 981.948C174.326 981.845 174.145 981.679 174.023 981.473C173.601 980.722 173.342 979.891 173.264 979.034C173.185 978.176 173.289 977.312 173.569 976.498C174.137 974.867 174.458 973.161 174.521 971.436C174.521 970.83 174.391 970.117 174.845 969.706C175.068 969.543 175.329 969.439 175.602 969.403C177.13 969.076 178.691 968.931 180.253 968.97C180.082 970.761 180.082 972.565 180.253 974.356C181.724 978.552 187.672 979.093 191.436 979.374Z" fill="#8B0137"/>
<path d="M192.238 808.258C192.315 808.497 192.315 808.754 192.238 808.993C192.135 809.139 191.999 809.258 191.841 809.341C191.684 809.423 191.508 809.467 191.33 809.469C188.483 809.943 185.561 809.341 183.132 807.782C182.889 807.65 182.692 807.446 182.57 807.198C182.526 807.013 182.526 806.82 182.57 806.635C182.786 803.131 182.981 799.627 183.197 796.123C183.194 795.858 183.262 795.597 183.392 795.366C183.602 795.175 183.866 795.054 184.149 795.02C185.299 794.711 186.502 794.66 187.674 794.868C190.292 795.496 190.183 797.875 190.573 800.038C190.984 802.785 191.806 805.489 192.238 808.258Z" fill="#FAB594"/>
<path d="M216.006 790.857C217.347 793.02 218.688 795.399 220.008 797.67C220.256 798.179 220.618 798.623 221.067 798.968C222.041 799.617 224.355 798.233 225.394 797.865C225.576 797.831 225.743 797.741 225.869 797.605C226.302 797.129 225.329 795.075 225.134 794.512C224.745 793.322 224.29 792.154 223.858 790.986C222.944 788.714 222.221 786.37 221.695 783.978C221.478 782.853 221.284 781.815 220.029 781.512C218.877 781.405 217.714 781.542 216.619 781.915C215.523 782.287 214.518 782.887 213.67 783.675C212.091 785.449 214.124 787.72 215.054 789.278L216.006 790.857Z" fill="#E5B45E"/>
<path d="M220.627 817.071C220.692 815.044 220.648 813.015 220.498 810.993C220.26 808.203 219.935 805.434 219.914 802.644C219.868 801.902 220.001 801.16 220.303 800.481C220.543 800.066 220.903 799.735 221.335 799.53C221.768 799.325 222.253 799.257 222.725 799.334C223.192 799.437 223.629 799.644 224.003 799.94C224.378 800.236 224.681 800.613 224.889 801.043C225.278 801.893 225.533 802.797 225.646 803.725L228.241 818.585C228.833 821.29 229.073 824.06 228.955 826.826C228.544 831.369 221.947 829.162 219.286 828.319C210.767 825.781 202.572 822.26 194.866 817.828C193.718 817.316 192.721 816.519 191.967 815.514C191.236 814.002 191.12 812.265 191.643 810.669C191.814 809.985 192.174 809.363 192.681 808.873C193.147 808.56 193.683 808.367 194.241 808.311C194.8 808.254 195.363 808.336 195.882 808.549C201.796 810.132 207.535 812.306 213.014 815.038C215.501 816.228 218.01 817.677 220.584 818.628C220.606 818.001 220.606 817.547 220.627 817.071Z" fill="#FAB594"/>
<path d="M221.694 784.39C226.156 783.298 230.857 783.763 235.018 785.71C236.056 786.251 237.441 786.878 238.284 786.056C238.55 785.759 238.743 785.403 238.847 785.018C240.047 781.189 240.159 777.102 239.169 773.213C238.18 769.324 236.129 765.788 233.244 762.998C231.817 761.679 229.719 760.511 228.053 761.506C227.433 761.928 226.921 762.492 226.561 763.15C224.736 766.064 222.689 768.833 220.439 771.434C218.049 774.066 215.261 776.306 212.176 778.074C209.819 779.437 205.428 780.346 204.541 783.33C204.344 784.209 204.467 785.13 204.887 785.926C205.159 786.555 205.557 787.122 206.055 787.592C208.218 789.582 211.398 787.592 213.691 786.878C216.373 786.142 218.947 784.974 221.694 784.39Z" fill="#FDDC80"/>
<path d="M227.661 769.788V769.961C228.413 773.317 229.652 776.545 231.338 779.543C232.701 781.987 234.842 786.032 237.827 786.421C239.882 786.768 240.682 784.756 240.92 783.047C241.898 776.119 240.196 769.079 236.161 763.364C235.468 762.179 234.43 761.233 233.186 760.653C231.941 760.074 230.55 759.887 229.197 760.119C225.671 761.114 227.055 767.127 227.661 769.788Z" fill="#E5B45E"/>
<path d="M223.947 788.676H224.077C224.509 788.994 224.852 789.419 225.072 789.909C225.656 790.99 226.218 792.072 226.737 793.262C226.983 793.742 227.144 794.262 227.213 794.797C227.343 796.766 224.488 798.929 225.18 801.762C223.748 801.55 222.3 801.47 220.854 801.524C220.603 801.563 220.348 801.563 220.097 801.524C219.948 801.336 219.817 801.133 219.708 800.919C219.11 798.921 218.388 796.963 217.545 795.057C217.345 794.694 217.219 794.294 217.174 793.882C217.13 793.47 217.167 793.053 217.285 792.656C217.674 791.726 218.626 791.38 219.448 790.774C220.162 790.102 220.929 789.487 221.741 788.935C222.066 788.73 222.433 788.6 222.815 788.555C223.196 788.511 223.583 788.552 223.947 788.676Z" fill="#FAB594"/>
<path d="M212.001 979.375C212.436 979.387 212.866 979.467 213.277 979.613C213.479 979.698 213.654 979.838 213.78 980.018C213.906 980.198 213.979 980.41 213.991 980.629C213.972 980.877 213.873 981.113 213.709 981.3C213.236 981.745 212.664 982.073 212.04 982.257C211.417 982.441 210.758 982.476 210.119 982.36L195.735 982.057C195.504 982.084 195.271 982.043 195.063 981.939C194.856 981.836 194.683 981.673 194.567 981.473C194.153 980.719 193.9 979.887 193.826 979.031C193.752 978.174 193.856 977.312 194.134 976.498C194.702 974.868 195.023 973.162 195.086 971.436C195.086 970.831 194.956 970.117 195.41 969.706C195.629 969.536 195.891 969.431 196.167 969.403C197.695 969.075 199.256 968.93 200.818 968.971C200.657 970.762 200.657 972.565 200.818 974.356C202.267 978.553 208.237 979.093 212.001 979.375Z" fill="#8B0137"/>
<path d="M188.044 863.088C185.122 863.362 182.261 864.092 179.565 865.251C172.47 868.279 177.618 883.745 179.132 889.282C181.079 896.29 183.018 903.299 184.951 910.307C187.965 921.753 189.841 933.468 190.553 945.283C190.726 947.446 192.11 971.802 192.326 971.802L201.995 971.931C202.86 971.931 203.942 958.953 204.028 957.764C204.396 952.962 204.461 948.16 204.699 943.336C206.127 921.36 204.699 898.756 203.812 876.737C203.917 873.037 202.858 869.398 200.784 866.333C199.832 865.121 197.237 864.84 195.874 864.299C193.959 863.449 191.891 863 189.796 862.98L188.044 863.088Z" fill="#DE422B"/>
<path d="M167.53 863.82C167.167 865.967 166.936 868.134 166.838 870.309C165.497 890.122 167.53 909.979 168.871 929.749C169.844 943.808 171.034 957.868 171.748 971.928L181.438 972.058C182.282 972.058 183.363 959.079 183.45 957.89C183.817 953.088 183.882 948.286 184.142 943.462C184.142 935.805 184.942 928.062 185.31 920.405C185.764 911.342 186.305 902.192 187.473 893.194C188.122 887.786 188.922 882.379 189.528 877.036C190.09 872.083 191.453 866.221 189.225 861.549C188.024 859.024 185.892 857.063 183.277 856.076C180.847 855.341 178.303 855.055 175.771 855.233C174.407 855.179 173.045 855.37 171.748 855.795C168.482 856.92 168.092 860.921 167.53 863.82Z" fill="#DE422B"/>
<path d="M195.195 794.639C204.842 782.072 190.069 755.488 175.62 770.435C165.475 780.904 182.974 809.131 194.871 794.92L195.195 794.639Z" fill="#FAB594"/>
<path d="M168.198 871.745C162.661 869.582 167.636 861.06 168.847 857.621C171.594 849.856 171.01 841.831 169.842 833.828C169.369 831.875 169.173 829.865 169.258 827.858C169.475 826.408 170.037 825.067 170.253 823.532C170.679 819.5 171.752 815.563 173.433 811.873C177.11 804.454 185.849 802.183 193.398 804.951C194.649 805.326 195.793 805.995 196.734 806.902C197.674 807.809 198.385 808.927 198.805 810.164C199.259 811.397 199.714 812.63 200.19 813.863C200.925 815.874 201.682 817.886 202.353 819.919C203.65 823.402 204.948 827.317 203.434 830.734C202.382 832.34 201.456 834.025 200.665 835.774C200.493 836.519 200.405 837.281 200.406 838.046C200.347 845.86 201.233 853.653 203.045 861.255C203.373 863.445 203.518 865.659 203.477 867.874C203.549 868.617 203.414 869.365 203.088 870.037C202.499 870.772 201.66 871.265 200.73 871.421C193.441 873.584 185.589 873.324 178.083 873.108C174.735 873.214 171.393 872.753 168.198 871.745Z" fill="#376489"/>
<path d="M159.041 833.048C158.099 835.984 157.341 838.974 156.77 842.003C156.564 842.834 156.564 843.703 156.77 844.534C156.997 845.067 157.303 845.563 157.678 846.005C160.624 850.315 164.583 853.836 169.207 856.258C174.788 859.026 180.462 861.536 186.23 863.785C186.651 863.999 187.123 864.089 187.593 864.045C187.835 863.967 188.058 863.841 188.25 863.675C188.442 863.508 188.598 863.305 188.71 863.076C188.821 862.848 188.884 862.6 188.897 862.346C188.91 862.092 188.871 861.839 188.783 861.6C188.328 860.194 186.944 859.437 185.992 858.551L182.272 854.83C179.719 852.335 177.117 849.898 174.463 847.519C172.3 845.594 169.943 843.842 167.974 841.83C166.395 840.316 167.974 837.504 168.731 835.904C170.385 831.701 172.503 827.696 175.047 823.964C177.787 820.3 179.011 815.722 178.465 811.18C178.358 809.983 177.802 808.87 176.908 808.066C176.298 807.674 175.588 807.466 174.864 807.466C174.139 807.466 173.429 807.674 172.819 808.066C171.601 808.871 170.574 809.934 169.813 811.18C165.09 817.855 161.454 825.236 159.041 833.048Z" fill="#FAB594"/>
<path d="M178.497 793.615C178.497 794.848 178.086 799.953 176.183 799.282C174.28 798.612 174.344 794.956 174.02 793.637C173.688 792.566 173.269 791.524 172.765 790.522C170.018 784.638 165.952 779.166 167.855 772.309C168.074 771.374 168.431 770.478 168.915 769.649C171.597 765.323 178.043 762.576 182.888 762.013C183.939 761.813 185.019 761.823 186.066 762.042C187.112 762.261 188.106 762.685 188.988 763.289C189.507 763.718 189.934 764.248 190.243 764.846C190.552 765.445 190.735 766.1 190.783 766.772C190.765 767.993 190.448 769.192 189.86 770.263C189.272 771.334 188.43 772.244 187.409 772.915C185.484 774.407 183.213 775.359 181.223 776.787C179.877 777.577 178.815 778.772 178.19 780.201C177.564 781.631 177.407 783.222 177.74 784.747C178.371 787.658 178.626 790.639 178.497 793.615Z" fill="#151B35"/>
<path d="M180.037 787.681C180.859 789.736 180.6 791.791 179.453 792.245C178.307 792.699 176.685 791.402 175.863 789.347C175.041 787.292 175.3 785.237 176.447 784.761C177.593 784.285 179.215 785.605 180.037 787.681Z" fill="#FAB594"/>
<path d="M189.839 861.054L190.315 861.205C191.656 861.508 193.083 861.01 194.489 861.205C195.895 861.4 198.815 862.308 199.356 863.995C199.442 864.263 199.442 864.55 199.356 864.817C199.311 864.954 199.224 865.074 199.108 865.159C198.992 865.245 198.852 865.291 198.707 865.293C198.525 865.255 198.354 865.173 198.21 865.055C197.561 865.055 195.182 863.282 194.792 864.623C194.403 865.964 197.842 869.338 198.924 869.663C199.374 869.765 199.828 869.844 200.286 869.9C200.515 869.937 200.732 870.024 200.923 870.155C201.114 870.285 201.273 870.457 201.389 870.658C201.472 870.877 201.495 871.115 201.457 871.346C201.419 871.578 201.321 871.795 201.173 871.977C200.872 872.347 200.496 872.649 200.07 872.864C198.919 873.574 197.663 874.099 196.35 874.421C192.024 875.286 189.861 871.955 188.173 868.711C186.795 866.516 185.209 864.459 183.436 862.568C183.317 862.45 183.234 862.299 183.198 862.135C183.176 862.014 183.176 861.889 183.198 861.768C183.768 860.656 184.582 859.688 185.578 858.934C185.648 858.855 185.737 858.795 185.837 858.761C185.943 858.743 186.052 858.747 186.156 858.773C186.26 858.799 186.358 858.847 186.443 858.912C187.511 859.723 188.647 860.439 189.839 861.054Z" fill="#FAB594"/>
<path d="M181.286 810.943C181.335 814.291 180.394 817.58 178.582 820.395C178.063 821.261 174.883 828.745 174.926 828.766C170.569 827.339 166.366 825.476 162.381 823.207C162.141 823.101 161.943 822.918 161.818 822.688C161.753 822.477 161.753 822.251 161.818 822.039C162.798 818.989 164.173 816.081 165.906 813.387C168.069 809.256 174.775 803.416 179.469 807.266C180.001 807.726 180.437 808.289 180.749 808.921C181.061 809.552 181.243 810.24 181.286 810.943Z" fill="#376489"/>
<path d="M189.558 813.332C191.279 816.203 193.806 818.505 196.826 819.95C197.734 820.405 204.375 825.12 204.331 825.142C207.328 821.641 209.959 817.843 212.183 813.807C212.323 813.588 212.391 813.331 212.378 813.072C212.319 812.861 212.198 812.673 212.032 812.531C209.61 810.442 206.918 808.689 204.028 807.318C200.027 804.939 191.223 803.49 189.277 809.243C189.046 809.909 188.952 810.614 189.001 811.316C189.049 812.019 189.238 812.704 189.558 813.332Z" fill="#376489"/>
<path opacity="0.1" d="M649.757 374.619C651.776 387.064 653.939 399.472 656.246 411.845C657.425 412.06 658.617 412.19 659.815 412.234C658.645 415.422 656.74 418.29 654.256 420.605C653.045 421.795 651.595 422.768 650.341 423.914C649.627 424.542 646.318 426.423 648.437 427.18C648.935 427.353 650.298 426.64 650.773 426.488C653.153 425.731 655.51 424.996 657.847 424.174C662.54 422.508 667.148 420.67 671.841 419.048C672.041 419.032 672.235 418.969 672.406 418.864C672.577 418.76 672.721 418.616 672.826 418.446C672.932 418.275 672.995 418.082 673.012 417.882C673.029 417.682 672.998 417.481 672.923 417.295C672.504 414.763 671.694 412.311 670.522 410.028L670.998 409.811C671.649 409.548 672.206 409.096 672.598 408.514C672.855 407.951 672.974 407.336 672.944 406.718C672.713 397.526 671.788 388.365 670.176 379.313C669.613 375.181 667.559 370.012 668.316 365.88L673.42 365.556C673.766 368.584 674.242 371.612 674.74 374.619C676.744 387.064 678.907 399.472 681.229 411.845C682.408 412.06 683.6 412.19 684.798 412.234C683.628 415.422 681.723 418.29 679.239 420.605C678.028 421.795 676.6 422.768 675.324 423.914C674.61 424.542 671.301 426.423 673.42 427.18C673.918 427.353 675.281 426.64 675.756 426.488C678.136 425.731 680.493 424.996 682.851 424.174C687.523 422.508 692.13 420.67 696.824 419.048C697.219 418.961 697.571 418.739 697.819 418.42C697.95 418.057 697.95 417.659 697.819 417.295C697.398 414.767 696.596 412.316 695.44 410.028L695.916 409.811C696.559 409.535 697.113 409.086 697.516 408.514C697.756 407.947 697.867 407.333 697.841 406.718C698.014 394.216 695.137 381.995 693.255 369.709C693.255 368.952 692.433 366.032 693.255 365.383C693.54 365.23 693.863 365.163 694.185 365.188C697.145 365.075 700.067 364.483 702.837 363.436C702.967 363.436 703.075 363.306 703.183 363.263H648.199C648.567 367.113 649.108 370.877 649.757 374.619Z" fill="#231F20"/>
<path d="M675.342 411.471C675.424 411.002 675.625 410.563 675.926 410.194C676.258 409.919 676.651 409.726 677.073 409.632L684.254 407.469C686.238 410.443 687.565 413.805 688.147 417.332C688.278 417.696 688.278 418.094 688.147 418.457C687.899 418.776 687.547 418.998 687.152 419.084C682.458 420.707 677.851 422.545 673.179 424.211C670.821 425.033 668.464 425.768 666.084 426.525C665.609 426.677 664.246 427.39 663.748 427.217C661.585 426.46 664.938 424.578 665.652 423.951C666.928 422.805 668.356 421.788 669.588 420.642C672.263 418.131 674.245 414.972 675.342 411.471Z" fill="black"/>
<path d="M650.284 411.471C650.365 411.002 650.566 410.563 650.868 410.194C651.2 409.919 651.593 409.726 652.014 409.632L659.195 407.469C661.179 410.443 662.506 413.805 663.089 417.332C663.219 417.696 663.219 418.094 663.089 418.457C662.84 418.776 662.488 418.998 662.094 419.084C657.4 420.707 652.793 422.545 648.12 424.211C645.763 425.033 643.405 425.768 641.026 426.525C640.55 426.677 639.187 427.39 638.69 427.217C636.527 426.46 639.879 424.578 640.593 423.951C641.869 422.805 643.297 421.788 644.508 420.642C647.196 418.137 649.187 414.977 650.284 411.471Z" fill="black"/>
<path d="M686.968 362.149C688.408 361.611 689.804 360.96 691.143 360.203C694.021 358.641 696.469 356.392 698.269 353.656C700.069 350.92 701.165 347.782 701.46 344.521C699.337 343.934 697.094 343.934 694.971 344.521C690.861 345.256 686.752 346.186 682.599 346.684C678.897 347.045 675.173 347.124 671.459 346.922C663.426 346.604 655.381 346.741 647.363 347.333C641.09 347.96 637.824 350.642 637.932 357.109C638.148 362.917 638.791 368.701 639.857 374.414C641.876 386.858 644.039 399.267 646.346 411.639C651.353 412.615 656.542 411.9 661.098 409.606C661.751 409.336 662.314 408.886 662.72 408.308C662.96 407.741 663.071 407.128 663.045 406.513C662.814 397.321 661.888 388.16 660.276 379.107C659.714 374.976 657.659 369.806 658.416 365.675L667.522 365.091C671.437 364.745 675.417 364.312 679.333 363.793C681.931 363.529 684.491 362.978 686.968 362.149Z" fill="#376489"/>
<path d="M698.853 357.391C700.621 353.604 701.481 349.456 701.363 345.278C699.351 344.738 696.344 346.295 694.333 346.684C692.045 346.977 689.734 347.043 687.433 346.879C682.437 346.778 677.44 346.958 672.465 347.42C666.192 348.047 662.926 350.729 663.034 357.197C663.26 363.003 663.903 368.786 664.959 374.501C666.978 386.945 669.141 399.354 671.448 411.726C676.462 412.7 681.657 411.985 686.221 409.693C686.865 409.417 687.419 408.968 687.822 408.395C688.062 407.828 688.173 407.215 688.146 406.6C688.32 394.098 685.443 381.877 683.561 369.591C683.453 368.834 682.739 365.914 683.561 365.265C683.847 365.114 684.169 365.047 684.491 365.07C687.414 364.945 690.298 364.353 693.035 363.318C695.587 362.055 697.637 359.966 698.853 357.391Z" fill="#376489"/>
<path d="M702.918 300.806C702.918 301.109 684.013 299.681 682.283 299.53C679.018 299.098 675.733 298.838 672.441 298.751C669.91 298.751 668.634 298.967 667.401 295.874C663.075 284.886 662.556 272.773 663.075 260.963C663.27 255.815 663.702 250.472 666.384 246.103C672.354 236.283 692.341 237.927 698.181 247.098C701.706 252.527 702.507 259.232 702.874 265.678C703.646 277.374 703.661 289.108 702.918 300.806Z" fill="#DE422B"/>
<path d="M678.075 286.487C678.021 286.737 678.059 286.999 678.183 287.223C678.295 287.361 678.437 287.472 678.598 287.547C678.759 287.622 678.935 287.659 679.113 287.655C681.97 287.954 684.837 287.184 687.159 285.492C687.404 285.349 687.594 285.128 687.7 284.865C687.732 284.679 687.732 284.489 687.7 284.303C687.267 280.82 686.813 277.338 686.381 273.855C686.381 273.591 686.297 273.334 686.143 273.12C685.92 272.941 685.649 272.835 685.364 272.817C684.203 272.557 682.999 272.557 681.838 272.817C679.264 273.639 679.524 275.997 679.286 278.181C678.983 280.972 678.334 283.697 678.075 286.487Z" fill="#FAB594"/>
<path d="M677.563 276.611C663.114 270.122 663.59 239.666 683.382 246.026C697.29 250.503 695.17 283.619 677.888 276.741L677.563 276.611Z" fill="#FAB594"/>
<path d="M701.031 349.099C706.568 346.936 701.593 338.414 700.36 334.974C697.635 327.209 698.197 319.184 699.387 311.181C699.849 309.227 700.046 307.218 699.971 305.211C699.733 303.784 699.171 302.421 698.976 300.885C698.55 296.86 697.477 292.93 695.796 289.248C692.119 281.807 683.381 279.536 675.832 282.326C674.581 282.696 673.437 283.361 672.496 284.264C671.555 285.167 670.845 286.283 670.424 287.518L669.04 291.216C668.283 293.25 667.526 295.261 666.877 297.273C665.579 300.755 664.281 304.67 665.795 308.088C666.835 309.694 667.76 311.371 668.564 313.106C668.737 313.858 668.824 314.627 668.823 315.399C668.879 323.213 667.993 331.006 666.185 338.608C665.844 340.797 665.699 343.012 665.752 345.227C665.673 345.971 665.808 346.721 666.141 347.39C666.727 348.118 667.557 348.61 668.477 348.774C675.788 350.938 683.618 350.678 691.146 350.44C694.493 350.564 697.837 350.11 701.031 349.099Z" fill="#00986E"/>
<path d="M692.367 266.931C693.059 267.948 696.13 272.036 697.385 270.435C698.64 268.835 696.585 265.806 696.195 264.509C695.896 263.425 695.693 262.318 695.59 261.199C694.724 254.71 695.222 247.961 689.923 243.203C689.211 242.557 688.409 242.018 687.543 241.602C682.979 239.439 676.036 240.542 671.645 242.662C669.653 243.468 668.054 245.02 667.189 246.988C666.987 247.628 666.914 248.301 666.973 248.969C667.032 249.638 667.224 250.287 667.535 250.881C668.21 251.899 669.122 252.737 670.191 253.325C671.261 253.912 672.458 254.232 673.678 254.256C676.122 254.472 678.567 254.061 680.989 254.256C682.52 254.229 684.021 254.678 685.285 255.543C686.548 256.407 687.511 257.643 688.041 259.079C689.15 261.867 690.603 264.505 692.367 266.931Z" fill="#DE422B"/>
<path d="M687.768 262.663C688.201 264.826 689.542 266.535 690.796 266.297C692.051 266.059 692.743 264.134 692.311 261.798C691.878 259.462 690.515 257.947 689.261 258.185C688.006 258.423 687.336 260.435 687.768 262.663Z" fill="#FAB594"/>
<path d="M663.1 295.148C665.034 292.303 667.151 289.586 669.437 287.015C670.257 286.042 671.31 285.294 672.498 284.84C673.686 284.386 674.97 284.241 676.229 284.419C677.924 284.771 679.42 285.758 680.41 287.178C681.399 288.598 681.807 290.343 681.55 292.055C681.377 294.157 680.781 296.202 679.798 298.068C677.84 302.24 675.21 306.062 672.011 309.381C671.823 309.624 671.555 309.793 671.254 309.857C670.983 309.853 670.723 309.753 670.519 309.575C668.356 308.169 666.193 306.72 664.138 305.249C663.078 304.514 661.975 303.714 660.98 303.086C660.352 302.675 659.055 302.351 659.055 301.464C659.114 300.919 659.341 300.405 659.704 299.993L662.213 296.381L663.1 295.148Z" fill="#00986E"/>
<path d="M659.207 337.385L685.444 334.725L678.847 293.627L650.273 296.937L659.207 337.385Z" fill="#FFFFFA"/>
<path d="M654.555 328.824C654.53 329.915 654.581 331.007 654.707 332.09C654.775 332.653 654.988 333.188 655.326 333.643C655.663 334.098 656.114 334.458 656.632 334.686C657.156 334.87 657.701 334.987 658.254 335.032C658.979 335.169 659.728 335.102 660.417 334.837C661.239 334.391 661.894 333.69 662.284 332.84C662.674 331.99 662.778 331.036 662.58 330.122C662.559 329.403 662.318 328.709 661.888 328.132C661.2 327.521 660.387 327.067 659.505 326.801C658.624 326.536 657.695 326.466 656.783 326.596H656.632L656.264 324.974C655.661 325.305 655.143 325.772 654.75 326.337C654.467 327.021 654.342 327.76 654.382 328.5L654.555 328.824Z" fill="#FAAA94"/>
<path d="M698.857 306.635C699.961 310.961 701.258 315.027 702.448 319.223C702.556 319.613 703.335 323.55 703.465 323.55L702.253 323.355C700.476 323.071 698.714 322.696 696.976 322.23C694.596 321.56 692.239 320.824 689.816 320.327C689.157 320.154 688.464 320.154 687.804 320.327C687.411 320.473 687.068 320.731 686.818 321.069C686.568 321.407 686.423 321.811 686.398 322.23C686.411 322.654 686.521 323.07 686.72 323.445C686.918 323.82 687.201 324.145 687.545 324.393C688.202 324.875 688.932 325.248 689.708 325.496L702.167 330.255C704.423 331.216 706.793 331.885 709.218 332.245C713.242 332.656 712.42 326.556 712.138 324.09C711.37 316.297 709.708 308.619 707.185 301.206C706.56 299.427 705.582 297.793 704.308 296.404C703.697 295.658 702.861 295.131 701.925 294.901C700.989 294.67 700.004 294.75 699.117 295.127C696.954 296.533 697.192 299.778 697.668 301.984C698.014 303.412 698.403 305.034 698.857 306.635Z" fill="#FAAA94"/>
<path d="M678.594 318.006C678.118 317.914 677.654 317.769 677.21 317.573C676.643 317.263 676.04 317.023 675.415 316.859C675.095 316.781 674.758 316.811 674.457 316.944C674.156 317.077 673.907 317.306 673.749 317.595C673.682 317.812 673.645 318.038 673.641 318.265C673.543 319.312 673.586 320.367 673.771 321.402C673.865 321.916 674.064 322.406 674.354 322.841C674.644 323.276 675.02 323.647 675.458 323.932C675.779 324.11 676.12 324.248 676.475 324.343C677.821 324.739 679.226 324.9 680.628 324.819C682.034 324.819 683.266 324.192 684.629 323.997C685.784 324.025 686.932 324.192 688.047 324.495C688.198 323.341 688.429 322.199 688.739 321.077C688.847 320.882 689.215 320.061 689.215 320.061C688.598 319.814 688.016 319.486 687.484 319.087C686.817 318.315 686.094 317.592 685.321 316.924C684.489 316.415 683.595 316.015 682.661 315.734C682.704 316.332 682.704 316.932 682.661 317.53C681.392 318.123 679.966 318.29 678.594 318.006Z" fill="#FAAA94"/>
<path d="M693.073 302.264C691.504 299.43 690.124 296.497 688.941 293.482C688.478 292.38 688.303 291.179 688.432 289.991C688.56 288.803 688.989 287.667 689.677 286.69C690.703 285.44 692.159 284.619 693.76 284.387C695.36 284.155 696.99 284.529 698.329 285.436C700.025 286.474 701.496 287.842 702.655 289.459C705.31 292.89 707.385 296.734 708.798 300.836C708.906 301.1 708.906 301.395 708.798 301.658C708.68 301.881 708.489 302.057 708.257 302.156C706.094 303.345 704.039 304.513 701.919 305.638C700.86 306.222 699.756 306.741 698.718 307.325C698.113 307.693 697.269 308.623 696.555 308.255C696.122 307.971 695.783 307.564 695.582 307.087C694.954 305.876 694.306 304.665 693.657 303.454L693.073 302.264Z" fill="#00986E"/>
<path d="M298.066 189.85C304.901 189.374 315.867 188.076 319.393 181.198C324.455 171.161 311.952 162.077 303.106 161.146C297.092 160.519 290.322 162.358 285.412 158.832C283.151 156.776 281.166 154.434 279.507 151.867C276.695 148.631 272.95 146.345 268.787 145.323C264.623 144.301 260.246 144.592 256.255 146.157C253.27 147.39 250.393 149.38 247.17 149.207C243.449 148.99 240.551 145.962 238.301 142.999C233.153 136.185 231.942 124.44 222.1 123.64C216.022 123.142 212.194 126.754 208.625 131.189C201.963 139.473 198.459 156.15 186 157.772C180.873 158.421 175.942 155.955 170.858 154.614C165.775 153.273 159.546 153.489 156.756 157.837C154.463 161.406 155.479 166.489 152.862 169.82C150.245 173.151 145.638 173.086 141.636 174.254C136.899 175.552 129.718 176.417 125.586 178.883C122.515 180.679 120.374 184.55 121.758 187.817C123.445 191.84 128.831 192.38 133.2 192.294C188.228 191.277 242.887 193.765 298.066 189.85Z" fill="#D8EFF2"/>
<path d="M940.751 264.3C948.473 263.759 960.845 262.31 964.825 254.437C970.557 243.124 956.433 232.806 946.44 231.79C939.648 231.098 932.012 233.152 926.453 229.194C923.663 227.182 921.998 223.981 919.791 221.321C916.619 217.662 912.392 215.074 907.691 213.913C902.989 212.751 898.044 213.072 893.532 214.832C890.179 216.216 886.913 218.465 883.279 218.271C879.083 218.033 875.817 214.615 873.286 211.263C867.468 203.562 866.105 190.325 854.987 189.416C848.109 188.854 843.804 192.942 839.846 197.917C832.297 207.283 828.36 226.036 814.279 227.94C808.504 228.697 802.945 225.906 797.299 224.371C791.654 222.835 784.559 223.116 781.401 228.026C778.827 232.049 779.952 237.781 777.075 241.545C774.198 245.309 768.791 245.417 764.27 246.65C758.906 248.121 750.816 249.18 746.144 251.884C742.683 253.896 740.26 258.373 741.818 261.964C743.743 266.506 749.821 267.112 754.796 267.025C816.723 265.922 878.391 268.712 940.751 264.3Z" fill="#D8EFF2"/>
<path d="M291.393 954.884H433.785V927.652H291.393V954.884Z" fill="#FDDC80"/>
<path d="M378.449 954.884H414.637V927.652H378.449V954.884Z" fill="#E5B45E"/>
<path d="M301.062 954.884H320.768V927.652H301.062V954.884Z" fill="#E5B45E"/>
<path d="M291.393 954.909H433.785V951.687H291.393V954.909Z" fill="#DAAC52"/>
<path d="M283.979 927.666H426.371V900.433H283.979V927.666Z" fill="#FDDC80"/>
<path d="M371.051 927.666H407.238V900.433H371.051V927.666Z" fill="#E5B45E"/>
<path d="M293.662 927.666H313.367V900.433H293.662V927.666Z" fill="#E5B45E"/>
<path d="M283.979 927.666H426.371V924.443H283.979V927.666Z" fill="#DAAC52"/>
<path d="M293.862 873.203H436.254V845.97H293.862V873.203Z" fill="#FDDC80"/>
<path d="M380.934 873.203H417.121V845.97H380.934V873.203Z" fill="#E5B45E"/>
<path d="M303.545 873.203H323.25V845.97H303.545V873.203Z" fill="#E5B45E"/>
<path d="M293.862 873.203H436.254V869.98H293.862V873.203Z" fill="#DAAC52"/>
<path d="M291.393 818.74H433.785V791.508H291.393V818.74Z" fill="#FDDC80"/>
<path d="M378.449 818.74H414.637V791.508H378.449V818.74Z" fill="#E5B45E"/>
<path d="M301.062 818.74H320.768V791.508H301.062V818.74Z" fill="#E5B45E"/>
<path d="M291.393 818.74H433.785V815.517H291.393V818.74Z" fill="#DAAC52"/>
<path d="M285.663 845.959H428.055V818.726H285.663V845.959Z" fill="#FDDC80"/>
<path d="M372.719 845.959H408.906V818.726H372.719V845.959Z" fill="#E5B45E"/>
<path d="M295.348 845.959H315.053V818.726H295.348V845.959Z" fill="#E5B45E"/>
<path d="M285.663 845.959H428.055V842.736H285.663V845.959Z" fill="#DAAC52"/>
<path d="M277.331 900.43H419.723V873.198H277.331V900.43Z" fill="#FDDC80"/>
<path d="M364.387 900.43H400.574V873.198H364.387V900.43Z" fill="#E5B45E"/>
<path d="M287.016 900.43H306.721V873.198H287.016V900.43Z" fill="#E5B45E"/>
<path d="M277.331 900.43H419.723V897.207H277.331V900.43Z" fill="#DAAC52"/>
<path d="M462.883 362.868C504.838 362.868 538.849 328.857 538.849 286.903C538.849 244.948 504.838 210.937 462.883 210.937C420.929 210.937 386.918 244.948 386.918 286.903C386.918 328.857 420.929 362.868 462.883 362.868Z" fill="#E5B45E"/>
<path d="M462.904 355.279C500.666 355.279 531.277 324.667 531.277 286.906C531.277 249.144 500.666 218.532 462.904 218.532C425.143 218.532 394.531 249.144 394.531 286.906C394.531 324.667 425.143 355.279 462.904 355.279Z" fill="#FDDC80"/>
<path d="M439.147 286.899C439.154 272.674 443.595 258.804 451.853 247.22C460.111 235.636 471.774 226.914 485.219 222.268C474.916 218.707 463.911 217.66 453.122 219.215C442.332 220.769 432.07 224.88 423.191 231.205C414.313 237.53 407.075 245.886 402.08 255.576C397.086 265.266 394.48 276.009 394.48 286.91C394.48 297.811 397.086 308.555 402.08 318.245C407.075 327.934 414.313 336.29 423.191 342.615C432.07 348.94 442.332 353.051 453.122 354.606C463.911 356.161 474.916 355.113 485.219 351.552C471.77 346.905 460.105 338.18 451.847 326.592C443.589 315.004 439.15 301.129 439.147 286.899Z" fill="#F4C34B"/>
<path d="M458.989 331.845V321.03C453.192 321.012 447.515 319.379 442.594 316.314L445.168 309.133C449.766 312.121 455.128 313.721 460.612 313.74C468.226 313.74 473.352 309.414 473.352 303.228C473.352 297.042 469.177 293.689 461.239 290.488C450.424 286.162 443.567 281.252 443.567 271.929C443.567 263.039 449.883 256.291 459.746 254.625V243.81H466.387V254.214C471.309 254.237 476.139 255.542 480.403 257.999L477.721 265.072C473.641 262.642 468.973 261.378 464.224 261.417C455.961 261.417 452.868 266.349 452.868 270.653C452.868 276.212 456.826 279.002 466.149 282.874C477.202 287.373 482.761 292.932 482.761 302.471C482.761 310.95 476.878 318.888 465.825 320.705V331.845H458.989Z" fill="#E5B45E"/>
<path d="M261.577 80.5376L269.082 51.3203H273.016L272.576 58.8511L264.553 89H260.464L261.577 80.5376ZM255.961 51.3203L262.043 80.3047L262.586 89H258.239L249.518 51.3203H255.961ZM281.53 80.2271L287.534 51.3203H294.003L285.282 89H280.935L281.53 80.2271ZM274.542 51.3203L281.97 80.6152L283.057 89H278.968L271.075 58.8511L270.661 51.3203H274.542ZM304.355 49.25V89H298.144V49.25H304.355ZM303.268 73.9644L301.25 73.9385C301.267 72.0062 301.534 70.2205 302.052 68.5815C302.587 66.9425 303.328 65.5192 304.277 64.3115C305.243 63.0866 306.399 62.1463 307.745 61.4907C309.091 60.8179 310.583 60.4814 312.222 60.4814C313.602 60.4814 314.845 60.6712 315.949 61.0508C317.07 61.4303 318.036 62.0428 318.847 62.8882C319.658 63.7163 320.271 64.8032 320.685 66.1489C321.116 67.4774 321.332 69.0991 321.332 71.0142V89H315.069V70.9624C315.069 69.6167 314.87 68.547 314.474 67.7534C314.094 66.9598 313.533 66.3905 312.792 66.0454C312.05 65.6831 311.144 65.502 310.074 65.502C308.953 65.502 307.961 65.7262 307.098 66.1748C306.253 66.6234 305.545 67.2358 304.976 68.0122C304.407 68.7886 303.975 69.6857 303.682 70.7036C303.406 71.7215 303.268 72.8084 303.268 73.9644ZM343.432 83.3843V70.0308C343.432 69.0301 343.251 68.1675 342.889 67.4429C342.526 66.7183 341.974 66.1576 341.232 65.7607C340.508 65.3639 339.593 65.1655 338.489 65.1655C337.471 65.1655 336.591 65.3381 335.85 65.6831C335.108 66.0282 334.53 66.494 334.116 67.0806C333.702 67.6672 333.495 68.3314 333.495 69.0732H327.284C327.284 67.9691 327.551 66.8994 328.086 65.8643C328.621 64.8291 329.397 63.9061 330.415 63.0952C331.433 62.2843 332.649 61.646 334.064 61.1802C335.479 60.7144 337.066 60.4814 338.826 60.4814C340.931 60.4814 342.794 60.8351 344.416 61.5425C346.055 62.2498 347.34 63.3195 348.271 64.7515C349.22 66.1662 349.695 67.9432 349.695 70.0825V82.5303C349.695 83.807 349.781 84.9543 349.954 85.9722C350.143 86.9728 350.411 87.8441 350.756 88.5859V89H344.364C344.07 88.3271 343.838 87.4731 343.665 86.438C343.51 85.3856 343.432 84.3677 343.432 83.3843ZM344.338 71.9717L344.39 75.8276H339.913C338.757 75.8276 337.739 75.9398 336.859 76.1641C335.979 76.3711 335.246 76.6816 334.659 77.0957C334.073 77.5098 333.633 78.0101 333.339 78.5967C333.046 79.1833 332.899 79.8475 332.899 80.5894C332.899 81.3312 333.072 82.0127 333.417 82.6338C333.762 83.2376 334.262 83.7121 334.918 84.0571C335.591 84.4022 336.402 84.5747 337.351 84.5747C338.627 84.5747 339.74 84.3159 340.689 83.7983C341.655 83.2635 342.414 82.6165 342.966 81.8574C343.518 81.0811 343.812 80.3478 343.846 79.6577L345.865 82.4268C345.658 83.1341 345.304 83.8932 344.804 84.7041C344.303 85.515 343.648 86.2913 342.837 87.0332C342.043 87.7578 341.086 88.353 339.964 88.8188C338.86 89.2847 337.583 89.5176 336.134 89.5176C334.306 89.5176 332.675 89.1553 331.243 88.4307C329.811 87.6888 328.69 86.6968 327.879 85.4546C327.068 84.1951 326.663 82.7718 326.663 81.1846C326.663 79.7008 326.939 78.3896 327.491 77.251C328.06 76.0951 328.888 75.1289 329.975 74.3525C331.079 73.5762 332.425 72.9896 334.012 72.5928C335.599 72.1787 337.411 71.9717 339.447 71.9717H344.338ZM369.052 60.999V65.5537H353.266V60.999H369.052ZM357.821 54.1411H364.058V81.2622C364.058 82.1248 364.178 82.7891 364.42 83.2549C364.679 83.7035 365.032 84.0054 365.481 84.1606C365.93 84.3159 366.456 84.3936 367.06 84.3936C367.491 84.3936 367.905 84.3677 368.302 84.3159C368.699 84.2642 369.018 84.2124 369.259 84.1606L369.285 88.9224C368.768 89.0776 368.164 89.2157 367.474 89.3364C366.801 89.4572 366.024 89.5176 365.145 89.5176C363.713 89.5176 362.444 89.2674 361.34 88.7671C360.236 88.2495 359.374 87.4128 358.752 86.2568C358.131 85.1009 357.821 83.5654 357.821 81.6504V54.1411ZM393.741 60.999V89H387.478V60.999H393.741ZM387.064 53.6494C387.064 52.7005 387.375 51.9155 387.996 51.2944C388.634 50.6561 389.514 50.3369 390.635 50.3369C391.739 50.3369 392.611 50.6561 393.249 51.2944C393.887 51.9155 394.207 52.7005 394.207 53.6494C394.207 54.5811 393.887 55.3574 393.249 55.9785C392.611 56.5996 391.739 56.9102 390.635 56.9102C389.514 56.9102 388.634 56.5996 387.996 55.9785C387.375 55.3574 387.064 54.5811 387.064 53.6494ZM416.281 81.4175C416.281 80.7964 416.126 80.2357 415.815 79.7354C415.505 79.2178 414.91 78.752 414.03 78.3379C413.167 77.9238 411.89 77.5443 410.2 77.1992C408.716 76.8714 407.353 76.4832 406.111 76.0347C404.886 75.5688 403.833 75.0081 402.954 74.3525C402.074 73.6969 401.392 72.9206 400.909 72.0234C400.426 71.1263 400.185 70.0911 400.185 68.918C400.185 67.7793 400.435 66.701 400.935 65.6831C401.435 64.6652 402.151 63.7681 403.083 62.9917C404.015 62.2153 405.145 61.6029 406.473 61.1543C407.819 60.7057 409.32 60.4814 410.976 60.4814C413.322 60.4814 415.332 60.8783 417.006 61.6719C418.697 62.4482 419.991 63.5093 420.888 64.855C421.785 66.1834 422.233 67.6844 422.233 69.3579H415.997C415.997 68.616 415.807 67.9259 415.427 67.2876C415.065 66.632 414.513 66.1058 413.771 65.709C413.029 65.2949 412.097 65.0879 410.976 65.0879C409.906 65.0879 409.018 65.2604 408.311 65.6055C407.62 65.9333 407.103 66.3646 406.758 66.8994C406.43 67.4342 406.266 68.0208 406.266 68.6592C406.266 69.125 406.352 69.5477 406.525 69.9272C406.715 70.2896 407.025 70.626 407.457 70.9365C407.888 71.2298 408.474 71.5059 409.216 71.7646C409.975 72.0234 410.924 72.2736 412.063 72.5151C414.202 72.9637 416.04 73.5417 417.575 74.249C419.128 74.9391 420.318 75.8363 421.146 76.9404C421.975 78.0273 422.389 79.4076 422.389 81.0811C422.389 82.3232 422.121 83.4619 421.586 84.4971C421.069 85.515 420.31 86.4035 419.309 87.1626C418.308 87.9045 417.109 88.4824 415.712 88.8965C414.332 89.3105 412.779 89.5176 411.054 89.5176C408.518 89.5176 406.37 89.069 404.61 88.1719C402.85 87.2575 401.513 86.0929 400.599 84.6782C399.701 83.2463 399.253 81.7625 399.253 80.2271H405.283C405.352 81.383 405.671 82.306 406.24 82.9961C406.827 83.6689 407.551 84.1606 408.414 84.4712C409.294 84.7645 410.2 84.9111 411.131 84.9111C412.253 84.9111 413.193 84.7645 413.952 84.4712C414.711 84.1606 415.289 83.7466 415.686 83.229C416.083 82.6942 416.281 82.0903 416.281 81.4175ZM455.979 74.9478H446.171V69.7979H455.979C457.688 69.7979 459.068 69.5218 460.12 68.9697C461.173 68.4176 461.94 67.6585 462.423 66.6924C462.924 65.709 463.174 64.5876 463.174 63.3281C463.174 62.1377 462.924 61.0249 462.423 59.9897C461.94 58.9373 461.173 58.092 460.12 57.4536C459.068 56.8153 457.688 56.4961 455.979 56.4961H448.164V89H441.668V51.3203H455.979C458.895 51.3203 461.371 51.8379 463.407 52.873C465.46 53.891 467.021 55.3057 468.091 57.1172C469.16 58.9115 469.695 60.9645 469.695 63.2764C469.695 65.709 469.16 67.7965 468.091 69.5391C467.021 71.2816 465.46 72.6187 463.407 73.5503C461.371 74.4819 458.895 74.9478 455.979 74.9478ZM490.373 83.3843V70.0308C490.373 69.0301 490.191 68.1675 489.829 67.4429C489.467 66.7183 488.915 66.1576 488.173 65.7607C487.448 65.3639 486.534 65.1655 485.43 65.1655C484.412 65.1655 483.532 65.3381 482.79 65.6831C482.048 66.0282 481.47 66.494 481.056 67.0806C480.642 67.6672 480.435 68.3314 480.435 69.0732H474.224C474.224 67.9691 474.492 66.8994 475.026 65.8643C475.561 64.8291 476.338 63.9061 477.355 63.0952C478.373 62.2843 479.59 61.646 481.004 61.1802C482.419 60.7144 484.006 60.4814 485.766 60.4814C487.871 60.4814 489.734 60.8351 491.356 61.5425C492.995 62.2498 494.28 63.3195 495.212 64.7515C496.161 66.1662 496.635 67.9432 496.635 70.0825V82.5303C496.635 83.807 496.722 84.9543 496.894 85.9722C497.084 86.9728 497.351 87.8441 497.696 88.5859V89H491.304C491.011 88.3271 490.778 87.4731 490.605 86.438C490.45 85.3856 490.373 84.3677 490.373 83.3843ZM491.278 71.9717L491.33 75.8276H486.853C485.697 75.8276 484.679 75.9398 483.799 76.1641C482.919 76.3711 482.186 76.6816 481.6 77.0957C481.013 77.5098 480.573 78.0101 480.28 78.5967C479.986 79.1833 479.84 79.8475 479.84 80.5894C479.84 81.3312 480.012 82.0127 480.357 82.6338C480.702 83.2376 481.203 83.7121 481.858 84.0571C482.531 84.4022 483.342 84.5747 484.291 84.5747C485.568 84.5747 486.681 84.3159 487.629 83.7983C488.596 83.2635 489.355 82.6165 489.907 81.8574C490.459 81.0811 490.752 80.3478 490.787 79.6577L492.805 82.4268C492.598 83.1341 492.244 83.8932 491.744 84.7041C491.244 85.515 490.588 86.2913 489.777 87.0332C488.984 87.7578 488.026 88.353 486.905 88.8188C485.801 89.2847 484.524 89.5176 483.075 89.5176C481.246 89.5176 479.616 89.1553 478.184 88.4307C476.752 87.6888 475.63 86.6968 474.819 85.4546C474.008 84.1951 473.603 82.7718 473.603 81.1846C473.603 79.7008 473.879 78.3896 474.431 77.251C475 76.0951 475.829 75.1289 476.916 74.3525C478.02 73.5762 479.365 72.9896 480.953 72.5928C482.54 72.1787 484.351 71.9717 486.387 71.9717H491.278ZM510.869 85.9463L518.477 60.999H525.154L513.922 93.27C513.664 93.9601 513.327 94.7106 512.913 95.5215C512.499 96.3324 511.956 97.1001 511.283 97.8247C510.627 98.5666 509.808 99.1618 508.824 99.6104C507.841 100.076 506.65 100.309 505.253 100.309C504.701 100.309 504.166 100.257 503.648 100.154C503.148 100.068 502.674 99.9727 502.225 99.8691L502.199 95.1074C502.372 95.1247 502.579 95.1419 502.82 95.1592C503.079 95.1764 503.286 95.1851 503.441 95.1851C504.477 95.1851 505.339 95.0557 506.029 94.7969C506.719 94.5553 507.28 94.1585 507.711 93.6064C508.16 93.0544 508.54 92.3125 508.85 91.3809L510.869 85.9463ZM506.573 60.999L513.224 81.9609L514.336 88.5342L510.015 89.647L499.844 60.999H506.573ZM534.962 66.6924V89H528.725V60.999H534.6L534.962 66.6924ZM533.953 73.9644L531.831 73.9385C531.831 72.0062 532.072 70.2205 532.555 68.5815C533.038 66.9425 533.746 65.5192 534.677 64.3115C535.609 63.0866 536.765 62.1463 538.145 61.4907C539.542 60.8179 541.156 60.4814 542.984 60.4814C544.261 60.4814 545.426 60.6712 546.478 61.0508C547.548 61.4131 548.471 61.991 549.247 62.7847C550.041 63.5783 550.645 64.5962 551.059 65.8384C551.49 67.0806 551.706 68.5815 551.706 70.3413V89H545.469V70.8848C545.469 69.5218 545.262 68.4521 544.848 67.6758C544.451 66.8994 543.873 66.3473 543.114 66.0195C542.372 65.6745 541.483 65.502 540.448 65.502C539.275 65.502 538.274 65.7262 537.446 66.1748C536.635 66.6234 535.971 67.2358 535.454 68.0122C534.936 68.7886 534.556 69.6857 534.315 70.7036C534.073 71.7215 533.953 72.8084 533.953 73.9644ZM551.317 72.3081L548.393 72.9551C548.393 71.2643 548.626 69.6685 549.092 68.1675C549.575 66.6493 550.274 65.3208 551.188 64.1821C552.12 63.0262 553.267 62.1204 554.63 61.4648C555.993 60.8092 557.554 60.4814 559.314 60.4814C560.746 60.4814 562.023 60.6799 563.144 61.0767C564.283 61.4562 565.249 62.0601 566.042 62.8882C566.836 63.7163 567.44 64.7946 567.854 66.123C568.268 67.4342 568.475 69.0215 568.475 70.8848V89H562.212V70.8589C562.212 69.4442 562.005 68.3486 561.591 67.5723C561.194 66.7959 560.625 66.2611 559.883 65.9678C559.141 65.6572 558.253 65.502 557.218 65.502C556.252 65.502 555.398 65.6831 554.656 66.0454C553.931 66.3905 553.319 66.8822 552.818 67.5205C552.318 68.1416 551.938 68.8576 551.68 69.6685C551.438 70.4793 551.317 71.3592 551.317 72.3081ZM587.237 89.5176C585.167 89.5176 583.295 89.1812 581.622 88.5083C579.965 87.8182 578.551 86.8607 577.377 85.6357C576.222 84.4108 575.333 82.9702 574.712 81.314C574.091 79.6577 573.78 77.8721 573.78 75.957V74.9219C573.78 72.7308 574.099 70.7467 574.738 68.9697C575.376 67.1927 576.265 65.6745 577.403 64.415C578.542 63.1383 579.888 62.1636 581.44 61.4907C582.993 60.8179 584.675 60.4814 586.487 60.4814C588.488 60.4814 590.239 60.8179 591.74 61.4907C593.241 62.1636 594.483 63.1125 595.467 64.3374C596.467 65.5451 597.209 66.9857 597.692 68.6592C598.193 70.3327 598.443 72.1787 598.443 74.1973V76.8628H576.808V72.3857H592.284V71.894C592.249 70.7726 592.025 69.7202 591.611 68.7368C591.214 67.7534 590.602 66.9598 589.773 66.356C588.945 65.7521 587.841 65.4502 586.461 65.4502C585.426 65.4502 584.503 65.6745 583.692 66.123C582.898 66.5544 582.234 67.1841 581.699 68.0122C581.164 68.8403 580.75 69.841 580.457 71.0142C580.181 72.1701 580.043 73.4727 580.043 74.9219V75.957C580.043 77.182 580.207 78.3206 580.535 79.373C580.88 80.4082 581.38 81.314 582.036 82.0903C582.691 82.8667 583.485 83.4792 584.417 83.9277C585.348 84.359 586.409 84.5747 587.6 84.5747C589.101 84.5747 590.438 84.2728 591.611 83.6689C592.784 83.0651 593.802 82.2111 594.665 81.1069L597.951 84.29C597.347 85.1699 596.562 86.0153 595.596 86.8262C594.63 87.6198 593.448 88.2668 592.051 88.7671C590.671 89.2674 589.066 89.5176 587.237 89.5176ZM609.493 66.9771V89H603.256V60.999H609.131L609.493 66.9771ZM608.38 73.9644L606.362 73.9385C606.379 71.9544 606.655 70.1343 607.19 68.478C607.742 66.8218 608.501 65.3984 609.467 64.208C610.451 63.0176 611.624 62.1032 612.987 61.4648C614.35 60.8092 615.868 60.4814 617.542 60.4814C618.887 60.4814 620.104 60.6712 621.19 61.0508C622.295 61.4131 623.235 62.0083 624.011 62.8364C624.805 63.6646 625.409 64.7428 625.823 66.0713C626.237 67.3825 626.444 68.9956 626.444 70.9106V89H620.181V70.8848C620.181 69.5391 619.983 68.478 619.586 67.7017C619.206 66.908 618.646 66.3473 617.904 66.0195C617.179 65.6745 616.273 65.502 615.187 65.502C614.117 65.502 613.159 65.7262 612.314 66.1748C611.469 66.6234 610.753 67.2358 610.166 68.0122C609.597 68.7886 609.157 69.6857 608.846 70.7036C608.536 71.7215 608.38 72.8084 608.38 73.9644ZM645.646 60.999V65.5537H629.86V60.999H645.646ZM634.415 54.1411H640.651V81.2622C640.651 82.1248 640.772 82.7891 641.014 83.2549C641.272 83.7035 641.626 84.0054 642.075 84.1606C642.523 84.3159 643.049 84.3936 643.653 84.3936C644.085 84.3936 644.499 84.3677 644.896 84.3159C645.292 84.2642 645.611 84.2124 645.853 84.1606L645.879 88.9224C645.361 89.0776 644.757 89.2157 644.067 89.3364C643.395 89.4572 642.618 89.5176 641.738 89.5176C640.306 89.5176 639.038 89.2674 637.934 88.7671C636.83 88.2495 635.967 87.4128 635.346 86.2568C634.725 85.1009 634.415 83.5654 634.415 81.6504V54.1411ZM678.409 71.9717H668.808L668.756 67.2358H677.141C678.555 67.2358 679.754 67.0288 680.738 66.6147C681.738 66.1834 682.498 65.571 683.015 64.7773C683.533 63.9665 683.792 62.9917 683.792 61.853C683.792 60.5936 683.55 59.5671 683.067 58.7734C682.584 57.9798 681.842 57.4019 680.841 57.0396C679.858 56.6772 678.598 56.4961 677.063 56.4961H670.774V89H664.279V51.3203H677.063C679.133 51.3203 680.979 51.5187 682.601 51.9155C684.24 52.3123 685.629 52.9334 686.768 53.7788C687.924 54.6069 688.795 55.6593 689.381 56.936C689.985 58.2127 690.287 59.731 690.287 61.4907C690.287 63.0435 689.916 64.4668 689.174 65.7607C688.432 67.0374 687.337 68.0812 685.888 68.8921C684.438 69.703 682.636 70.186 680.479 70.3413L678.409 71.9717ZM678.124 89H666.763L669.688 83.8501H678.124C679.59 83.8501 680.815 83.6086 681.799 83.1255C682.782 82.6252 683.515 81.9437 683.999 81.0811C684.499 80.2012 684.749 79.1746 684.749 78.0015C684.749 76.7765 684.533 75.7155 684.102 74.8184C683.671 73.904 682.989 73.2052 682.058 72.7222C681.126 72.2218 679.91 71.9717 678.409 71.9717H671.111L671.163 67.2358H680.66L682.135 69.0215C684.206 69.0905 685.905 69.5477 687.233 70.3931C688.579 71.2384 689.58 72.334 690.235 73.6797C690.891 75.0254 691.219 76.4746 691.219 78.0273C691.219 80.4255 690.693 82.4354 689.64 84.0571C688.605 85.6789 687.113 86.9124 685.163 87.7578C683.214 88.5859 680.867 89 678.124 89ZM712.931 83.3843V70.0308C712.931 69.0301 712.75 68.1675 712.388 67.4429C712.025 66.7183 711.473 66.1576 710.731 65.7607C710.007 65.3639 709.092 65.1655 707.988 65.1655C706.97 65.1655 706.09 65.3381 705.349 65.6831C704.607 66.0282 704.029 66.494 703.615 67.0806C703.201 67.6672 702.994 68.3314 702.994 69.0732H696.783C696.783 67.9691 697.05 66.8994 697.585 65.8643C698.12 64.8291 698.896 63.9061 699.914 63.0952C700.932 62.2843 702.148 61.646 703.563 61.1802C704.978 60.7144 706.565 60.4814 708.325 60.4814C710.43 60.4814 712.293 60.8351 713.915 61.5425C715.554 62.2498 716.839 63.3195 717.771 64.7515C718.719 66.1662 719.194 67.9432 719.194 70.0825V82.5303C719.194 83.807 719.28 84.9543 719.453 85.9722C719.642 86.9728 719.91 87.8441 720.255 88.5859V89H713.863C713.569 88.3271 713.337 87.4731 713.164 86.438C713.009 85.3856 712.931 84.3677 712.931 83.3843ZM713.837 71.9717L713.889 75.8276H709.412C708.256 75.8276 707.238 75.9398 706.358 76.1641C705.478 76.3711 704.745 76.6816 704.158 77.0957C703.572 77.5098 703.132 78.0101 702.838 78.5967C702.545 79.1833 702.398 79.8475 702.398 80.5894C702.398 81.3312 702.571 82.0127 702.916 82.6338C703.261 83.2376 703.761 83.7121 704.417 84.0571C705.09 84.4022 705.901 84.5747 706.85 84.5747C708.126 84.5747 709.239 84.3159 710.188 83.7983C711.154 83.2635 711.913 82.6165 712.465 81.8574C713.017 81.0811 713.311 80.3478 713.345 79.6577L715.364 82.4268C715.157 83.1341 714.803 83.8932 714.303 84.7041C713.802 85.515 713.147 86.2913 712.336 87.0332C711.542 87.7578 710.585 88.353 709.463 88.8188C708.359 89.2847 707.083 89.5176 705.633 89.5176C703.805 89.5176 702.174 89.1553 700.742 88.4307C699.31 87.6888 698.189 86.6968 697.378 85.4546C696.567 84.1951 696.162 82.7718 696.162 81.1846C696.162 79.7008 696.438 78.3896 696.99 77.251C697.559 76.0951 698.387 75.1289 699.474 74.3525C700.578 73.5762 701.924 72.9896 703.511 72.5928C705.098 72.1787 706.91 71.9717 708.946 71.9717H713.837ZM731.9 66.9771V89H725.664V60.999H731.538L731.9 66.9771ZM730.788 73.9644L728.769 73.9385C728.786 71.9544 729.062 70.1343 729.597 68.478C730.149 66.8218 730.908 65.3984 731.875 64.208C732.858 63.0176 734.031 62.1032 735.394 61.4648C736.757 60.8092 738.275 60.4814 739.949 60.4814C741.294 60.4814 742.511 60.6712 743.598 61.0508C744.702 61.4131 745.642 62.0083 746.418 62.8364C747.212 63.6646 747.816 64.7428 748.23 66.0713C748.644 67.3825 748.851 68.9956 748.851 70.9106V89H742.588V70.8848C742.588 69.5391 742.39 68.478 741.993 67.7017C741.614 66.908 741.053 66.3473 740.311 66.0195C739.586 65.6745 738.681 65.502 737.594 65.502C736.524 65.502 735.567 65.7262 734.721 66.1748C733.876 66.6234 733.16 67.2358 732.573 68.0122C732.004 68.7886 731.564 69.6857 731.253 70.7036C730.943 71.7215 730.788 72.8084 730.788 73.9644ZM761.506 49.25V89H755.243V49.25H761.506ZM778.896 60.999L766.708 74.5078L760.031 81.3398L758.4 76.0605L763.447 69.8237L771.366 60.999H778.896ZM772.711 89L763.628 75.8535L767.562 71.48L779.932 89H772.711ZM798.564 81.4175C798.564 80.7964 798.409 80.2357 798.099 79.7354C797.788 79.2178 797.193 78.752 796.313 78.3379C795.45 77.9238 794.174 77.5443 792.483 77.1992C790.999 76.8714 789.636 76.4832 788.394 76.0347C787.169 75.5688 786.117 75.0081 785.237 74.3525C784.357 73.6969 783.675 72.9206 783.192 72.0234C782.709 71.1263 782.468 70.0911 782.468 68.918C782.468 67.7793 782.718 66.701 783.218 65.6831C783.719 64.6652 784.435 63.7681 785.366 62.9917C786.298 62.2153 787.428 61.6029 788.756 61.1543C790.102 60.7057 791.603 60.4814 793.259 60.4814C795.606 60.4814 797.616 60.8783 799.289 61.6719C800.98 62.4482 802.274 63.5093 803.171 64.855C804.068 66.1834 804.517 67.6844 804.517 69.3579H798.28C798.28 68.616 798.09 67.9259 797.71 67.2876C797.348 66.632 796.796 66.1058 796.054 65.709C795.312 65.2949 794.381 65.0879 793.259 65.0879C792.19 65.0879 791.301 65.2604 790.594 65.6055C789.904 65.9333 789.386 66.3646 789.041 66.8994C788.713 67.4342 788.549 68.0208 788.549 68.6592C788.549 69.125 788.636 69.5477 788.808 69.9272C788.998 70.2896 789.308 70.626 789.74 70.9365C790.171 71.2298 790.758 71.5059 791.5 71.7646C792.259 72.0234 793.208 72.2736 794.346 72.5151C796.486 72.9637 798.323 73.5417 799.858 74.249C801.411 74.9391 802.602 75.8363 803.43 76.9404C804.258 78.0273 804.672 79.4076 804.672 81.0811C804.672 82.3232 804.404 83.4619 803.87 84.4971C803.352 85.515 802.593 86.4035 801.592 87.1626C800.592 87.9045 799.393 88.4824 797.995 88.8965C796.615 89.3105 795.062 89.5176 793.337 89.5176C790.801 89.5176 788.653 89.069 786.893 88.1719C785.133 87.2575 783.796 86.0929 782.882 84.6782C781.985 83.2463 781.536 81.7625 781.536 80.2271H787.566C787.635 81.383 787.954 82.306 788.523 82.9961C789.11 83.6689 789.835 84.1606 790.697 84.4712C791.577 84.7645 792.483 84.9111 793.415 84.9111C794.536 84.9111 795.476 84.7645 796.235 84.4712C796.994 84.1606 797.572 83.7466 797.969 83.229C798.366 82.6942 798.564 82.0903 798.564 81.4175ZM821.804 77.8979H816.033C816.05 76.2935 816.188 74.9478 816.447 73.8608C816.706 72.7567 817.137 71.756 817.741 70.8589C818.362 69.9618 819.181 69.0129 820.199 68.0122C820.993 67.2531 821.709 66.5371 822.347 65.8643C822.986 65.1742 823.494 64.4495 823.874 63.6904C824.254 62.9141 824.443 62.0256 824.443 61.0249C824.443 59.938 824.262 59.015 823.9 58.2559C823.538 57.4967 823.003 56.9188 822.295 56.522C821.605 56.1252 820.743 55.9268 819.708 55.9268C818.845 55.9268 818.034 56.0993 817.275 56.4443C816.516 56.7721 815.903 57.2897 815.438 57.9971C814.972 58.6872 814.722 59.6016 814.687 60.7402H808.45C808.485 58.5664 809.002 56.7376 810.003 55.2539C811.004 53.7702 812.349 52.6574 814.04 51.9155C815.731 51.1737 817.62 50.8027 819.708 50.8027C822.019 50.8027 823.995 51.1995 825.634 51.9932C827.273 52.7695 828.524 53.9082 829.386 55.4092C830.266 56.8929 830.706 58.6872 830.706 60.792C830.706 62.3102 830.404 63.6904 829.8 64.9326C829.196 66.1576 828.411 67.3049 827.445 68.3745C826.479 69.4269 825.435 70.4793 824.314 71.5317C823.348 72.4116 822.692 73.3691 822.347 74.4043C822.002 75.4222 821.821 76.5868 821.804 77.8979ZM815.515 85.9722C815.515 85.0405 815.834 84.2555 816.473 83.6172C817.111 82.9616 817.982 82.6338 819.086 82.6338C820.191 82.6338 821.062 82.9616 821.7 83.6172C822.339 84.2555 822.658 85.0405 822.658 85.9722C822.658 86.9038 822.339 87.6974 821.7 88.353C821.062 88.9914 820.191 89.3105 819.086 89.3105C817.982 89.3105 817.111 88.9914 816.473 88.353C815.834 87.6974 815.515 86.9038 815.515 85.9722Z" fill="#1C4670"/>
</g>
<defs>
<clipPath id="clip0_84_1201">
<rect width="1080" height="1080" fill="white"/>
</clipPath>
</defs>
</svg>
