<svg width="2372" height="2372" viewBox="0 0 2372 2372" fill="none" xmlns="http://www.w3.org/2000/svg">
<path d="M1186 2372C1841.01 2372 2372 1841.01 2372 1186C2372 530.99 1841.01 0 1186 0C530.99 0 0 530.99 0 1186C0 1841.01 530.99 2372 1186 2372Z" fill="white"/>
<path d="M1186 2264C1781.36 2264 2264 1781.36 2264 1186C2264 590.637 1781.36 108 1186 108C590.637 108 108 590.637 108 1186C108 1781.36 590.637 2264 1186 2264Z" fill="#30486E"/>
<path d="M1704 570.5C1704 491.794 1640.2 428 1561.5 428C1482.8 428 1419 491.794 1419 570.5C1419 649.202 1482.8 713 1561.5 713C1640.2 713 1704 649.202 1704 570.5ZM1427.99 570.5C1427.99 496.766 1487.76 436.998 1561.5 436.998C1635.23 436.998 1695.01 496.766 1695.01 570.5C1695.01 626.804 1660.14 674.934 1610.83 694.559V588.303C1620.66 584.952 1629.79 580.565 1637.88 575.191C1660.09 560.443 1672.32 540.173 1672.32 518.113C1672.32 509.312 1665.18 502.169 1656.38 502.169C1647.57 502.169 1640.44 509.312 1640.44 518.113C1640.44 532.992 1627.79 543.615 1620.24 548.623C1605.43 558.461 1584.61 564.101 1563.12 564.101C1541.63 564.101 1520.81 558.461 1505.99 548.623C1498.45 543.615 1485.8 532.993 1485.8 518.113C1485.8 509.312 1478.67 502.169 1469.86 502.169C1461.05 502.169 1453.92 509.312 1453.92 518.113C1453.92 540.173 1466.15 560.443 1488.36 575.191C1496.46 580.565 1505.58 584.952 1515.4 588.303V695.832C1464.38 677.062 1427.99 628.037 1427.99 570.5Z" fill="white"/>
<path d="M1563.5 556C1586.97 556 1606 536.973 1606 513.5C1606 490.023 1586.97 471 1563.5 471C1540.02 471 1521 490.023 1521 513.5C1521 536.973 1540.02 556 1563.5 556Z" fill="white"/>
<path d="M965.5 454C907.238 454 860 501.228 860 559.502C860 617.765 907.238 665 965.5 665C1023.76 665 1071 617.765 1071 559.502C1071 501.228 1023.76 454 965.5 454ZM1002.02 651.347V572.681C1009.3 570.198 1016.05 566.953 1022.05 562.974C1038.5 552.055 1047.55 537.048 1047.55 520.718C1047.55 514.202 1042.26 508.913 1035.74 508.913C1029.22 508.913 1023.95 514.202 1023.95 520.718C1023.95 531.732 1014.58 539.6 1008.99 543.305C998.019 550.588 982.61 554.764 966.698 554.764C950.789 554.764 935.377 550.588 924.406 543.305C918.825 539.6 909.454 531.733 909.454 520.718C909.454 514.202 904.172 508.913 897.656 508.913C891.139 508.913 885.85 514.202 885.85 520.718C885.85 537.048 894.903 552.055 911.349 562.974C917.35 566.953 924.107 570.198 931.379 572.681V652.289C893.607 638.391 866.659 602.094 866.659 559.502C866.659 504.908 910.921 460.663 965.5 460.663C1020.09 460.663 1064.34 504.908 1064.34 559.502C1064.34 601.184 1038.52 636.814 1002.02 651.347Z" fill="white"/>
<path d="M966.502 486C949.107 486 935 500.101 935 517.5C935 534.895 949.107 549 966.502 549C983.9 549 998 534.895 998 517.5C998 500.101 983.9 486 966.502 486Z" fill="white"/>
<path d="M620.498 737C585.43 737 557 765.431 557 800.5C557 835.569 585.43 864 620.498 864C655.567 864 684 835.569 684 800.5C684 765.431 655.567 737 620.498 737ZM642.475 855.747V808.433C646.856 806.939 650.924 804.983 654.534 802.59C664.43 796.024 669.88 786.987 669.88 777.156C669.88 773.236 666.702 770.048 662.776 770.048C658.849 770.048 655.672 773.236 655.672 777.156C655.672 783.787 650.04 788.517 646.674 790.749C640.075 795.134 630.794 797.646 621.218 797.646C611.642 797.646 602.368 795.133 595.762 790.749C592.399 788.517 586.768 783.787 586.768 777.156C586.768 773.236 583.586 770.048 579.664 770.048C575.741 770.048 572.56 773.236 572.56 777.156C572.56 786.986 578.01 796.024 587.906 802.59C591.516 804.983 595.584 806.939 599.965 808.433V856.274C577.246 847.901 561.006 826.124 561.006 800.5C561.006 767.645 587.647 741.014 620.498 741.014C653.356 741.014 679.99 767.645 679.99 800.5C679.99 825.582 664.444 846.996 642.475 855.747Z" fill="white"/>
<path d="M621 756C610.505 756 602 764.511 602 775.004C602 785.497 610.505 794 621 794C631.499 794 640 785.497 640 775.004C640 764.511 631.499 756 621 756Z" fill="white"/>
<path d="M912 1808.5C912 1864.01 956.997 1909 1012.5 1909C1068 1909 1113 1864.01 1113 1808.5C1113 1752.98 1068 1708 1012.5 1708C956.998 1708 912 1752.98 912 1808.5ZM1106.65 1808.5C1106.65 1848.21 1082.06 1882.15 1047.28 1895.99V1821.05C1054.22 1818.69 1060.65 1815.59 1066.36 1811.8C1082.03 1801.41 1090.65 1787.11 1090.65 1771.55C1090.65 1765.34 1085.62 1760.31 1079.41 1760.31C1073.2 1760.31 1068.17 1765.34 1068.17 1771.55C1068.17 1782.05 1059.25 1789.54 1053.92 1793.07C1043.48 1800 1028.79 1803.99 1013.63 1803.99C998.486 1803.99 983.8 1800 973.351 1793.07C968.032 1789.54 959.114 1782.05 959.114 1771.55C959.114 1765.34 954.079 1760.31 947.871 1760.31C941.659 1760.31 936.628 1765.34 936.628 1771.55C936.628 1787.11 945.255 1801.41 960.913 1811.8C966.629 1815.59 973.067 1818.69 979.997 1821.05V1896.9C944.016 1883.66 918.343 1849.08 918.343 1808.5C918.343 1756.5 960.505 1714.34 1012.5 1714.34C1064.5 1714.34 1106.65 1756.5 1106.65 1808.5Z" fill="white"/>
<path d="M984 1768C984 1784.57 997.428 1798 1014 1798C1030.58 1798 1044 1784.57 1044 1768C1044 1751.44 1030.58 1738 1014 1738C997.428 1738 984 1751.44 984 1768Z" fill="white"/>
<path d="M560.998 1249C488.653 1249 430 1307.65 430 1380C430 1452.35 488.653 1511 560.998 1511C633.343 1511 692 1452.35 692 1380C692 1307.65 633.343 1249 560.998 1249ZM606.342 1494.04V1396.36C615.378 1393.28 623.772 1389.25 631.21 1384.31C651.629 1370.76 662.873 1352.11 662.873 1331.84C662.873 1323.75 656.317 1317.18 648.214 1317.18C640.121 1317.18 633.569 1323.75 633.569 1331.84C633.569 1345.52 621.942 1355.28 614.999 1359.89C601.381 1368.93 582.24 1374.12 562.484 1374.12C542.731 1374.12 523.594 1368.93 509.964 1359.89C503.04 1355.28 491.409 1345.52 491.409 1331.84C491.409 1323.75 484.853 1317.18 476.757 1317.18C468.664 1317.18 462.097 1323.75 462.097 1331.84C462.097 1352.11 473.346 1370.76 493.757 1384.31C501.206 1389.25 509.6 1393.28 518.636 1396.36V1495.22C471.73 1477.97 438.264 1432.89 438.264 1380C438.264 1312.21 493.226 1257.27 560.999 1257.27C628.778 1257.27 683.726 1312.21 683.726 1380C683.725 1431.76 651.672 1476 606.342 1494.04Z" fill="white"/>
<path d="M562.002 1288C540.464 1288 523 1305.47 523 1327.01C523 1348.54 540.464 1366 562.002 1366C583.548 1366 601 1348.54 601 1327.01C601 1305.47 583.548 1288 562.002 1288Z" fill="white"/>
<path d="M1865.01 1058C1821.93 1058 1787 1092.92 1787 1136C1787 1179.08 1821.93 1214 1865.01 1214C1908.08 1214 1943 1179.08 1943 1136C1943 1092.92 1908.08 1058 1865.01 1058ZM1892 1203.9V1145.75C1897.38 1143.91 1902.38 1141.51 1906.81 1138.57C1918.97 1130.5 1925.66 1119.39 1925.66 1107.32C1925.66 1102.51 1921.75 1098.6 1916.94 1098.6C1912.12 1098.6 1908.21 1102.51 1908.21 1107.32C1908.21 1115.47 1901.28 1121.28 1897.16 1124.03C1889.05 1129.41 1877.65 1132.5 1865.89 1132.5C1854.12 1132.5 1842.73 1129.41 1834.62 1124.03C1830.5 1121.28 1823.57 1115.47 1823.57 1107.32C1823.57 1102.51 1819.66 1098.6 1814.84 1098.6C1810.03 1098.6 1806.11 1102.51 1806.11 1107.32C1806.11 1119.39 1812.81 1130.5 1824.97 1138.57C1829.4 1141.51 1834.4 1143.91 1839.78 1145.75V1204.61C1811.85 1194.33 1791.92 1167.5 1791.92 1136C1791.92 1095.64 1824.65 1062.92 1865.01 1062.92C1905.37 1062.92 1938.08 1095.64 1938.08 1136C1938.08 1166.82 1918.99 1193.16 1892 1203.9Z" fill="white"/>
<path d="M1866.01 1081C1853.3 1081 1843 1091.52 1843 1104.5C1843 1117.47 1853.3 1128 1866.01 1128C1878.7 1128 1889 1117.47 1889 1104.5C1889 1091.52 1878.7 1081 1866.01 1081Z" fill="white"/>
<path d="M1673.99 1851C1760.15 1851 1830 1780.94 1830 1694.51C1830 1608.06 1760.14 1538 1673.99 1538C1587.84 1538 1518 1608.06 1518 1694.51C1518 1780.94 1587.84 1851 1673.99 1851ZM1673.99 1547.87C1754.71 1547.87 1820.14 1613.52 1820.14 1694.51C1820.14 1756.34 1781.98 1809.19 1727.99 1830.75V1714.05C1738.75 1710.37 1748.74 1705.56 1757.61 1699.66C1781.92 1683.46 1795.32 1661.19 1795.32 1636.96C1795.32 1627.3 1787.5 1619.45 1777.87 1619.45C1768.22 1619.45 1760.41 1627.3 1760.41 1636.96C1760.41 1653.31 1746.56 1664.96 1738.3 1670.47C1722.09 1681.27 1699.29 1687.48 1675.76 1687.48C1652.24 1687.48 1629.45 1681.27 1613.23 1670.47C1604.98 1664.96 1591.12 1653.31 1591.12 1636.96C1591.12 1627.3 1583.31 1619.45 1573.67 1619.45C1564.04 1619.45 1556.21 1627.3 1556.21 1636.96C1556.21 1661.19 1569.62 1683.46 1593.92 1699.66C1602.79 1705.56 1612.79 1710.37 1623.55 1714.05V1832.15C1567.68 1811.53 1527.83 1757.68 1527.83 1694.51C1527.83 1613.52 1593.29 1547.87 1673.99 1547.87Z" fill="white"/>
<path d="M1675.49 1678C1701.18 1678 1722 1656.96 1722 1631C1722 1605.05 1701.18 1584 1675.49 1584C1649.81 1584 1629 1605.05 1629 1631C1629 1656.96 1649.81 1678 1675.49 1678Z" fill="white"/>
<path d="M1959.83 1130.42C1956.66 1077.93 1911.56 1037.95 1859.09 1041.11C1810.44 1044.04 1772.56 1083.03 1769.82 1130.54C1747.58 1132.02 1628.14 1135.94 1588.72 1053.87C1569.43 987.143 1532.45 927.934 1483.19 881.639C1442.63 823.047 1468.99 754.284 1485.09 723.004C1512.93 737.039 1544.93 743.632 1578.25 740.323C1671.68 731.037 1739.92 647.743 1730.63 554.277C1721.35 460.811 1638.09 392.566 1544.65 401.845C1451.22 411.123 1382.98 494.417 1392.26 587.883C1397.21 637.735 1423.21 680.401 1460.56 707.964C1443.32 736.973 1400.44 794.516 1331.87 794.188C1296.95 783.681 1259.93 778.006 1221.58 778.006C1197.64 778.006 1174.22 780.229 1151.49 784.442C1072.84 778.502 1032.65 698.677 1021.84 673.367C1061.42 653.679 1089.49 613.78 1091.82 566.489C1095.27 496.807 1041.6 437.541 971.951 434.094C902.301 430.642 843.045 484.325 839.609 554C836.152 623.67 889.819 682.94 959.469 686.377C971.649 686.982 983.498 685.805 994.799 683.137C1005.35 704.643 1040.54 786.942 996.843 851.098C980.641 862.906 965.383 875.935 951.246 890.094C877.821 939.641 720.077 843.405 696.472 828.455C700.199 818.338 701.955 807.314 701.263 795.86C698.592 751.532 660.504 717.763 616.186 720.431C571.865 723.102 538.101 761.197 540.779 805.532C543.446 849.856 581.53 883.633 625.849 880.961C648.259 879.609 667.966 869.19 681.636 853.497C706.382 867.298 862.796 958.037 857.539 1043.77C845.807 1080.5 839.446 1119.63 839.446 1160.25C839.446 1166.54 839.61 1172.78 839.913 1178.99L839.078 1176.95C839.85 1273.58 735.679 1313.64 708.076 1322.56C682.828 1258.44 617.407 1216.1 545.447 1223.24C458.585 1231.87 395.164 1309.3 403.784 1396.18C412.416 1483.06 489.819 1546.5 576.67 1537.88C663.529 1529.26 726.956 1451.82 718.332 1364.95C717.833 1359.94 717.09 1355.03 716.142 1350.2C739.533 1340.98 840.771 1306.51 903.099 1371.51C932.986 1416.51 972.134 1454.79 1017.83 1483.66C1080.33 1548.66 1046.02 1661.94 1035.81 1690.85C1023.39 1688.38 1010.37 1687.84 997.106 1689.56C931.569 1698.08 885.334 1758.14 893.856 1823.71C902.37 1889.27 962.413 1935.52 1027.96 1926.99C1093.51 1918.47 1139.74 1858.41 1131.22 1792.85C1125.74 1750.7 1098.95 1716.56 1063.11 1699.78C1071.82 1670.23 1111.11 1556.24 1201.77 1542C1208.33 1542.33 1214.94 1542.5 1221.58 1542.5C1282.62 1542.5 1340.28 1528.17 1391.45 1502.72C1462.86 1487.96 1516.91 1542.42 1537.06 1566.86C1500.44 1606.22 1480.95 1660.99 1488.42 1718.48C1501.74 1820.91 1595.55 1893.17 1697.95 1879.86C1800.37 1866.54 1872.6 1772.71 1859.29 1670.27C1845.98 1567.83 1752.17 1495.57 1649.76 1508.89C1615.01 1513.41 1583.76 1527.21 1558.12 1547.46C1537.06 1520.39 1494.34 1452.34 1531.78 1383.51C1561.76 1341.91 1583.58 1294.02 1594.9 1242.21C1632.36 1157.71 1756.87 1159.03 1772.56 1159.54C1783.54 1203.03 1824.14 1233.97 1870.54 1231.18C1923.01 1228.03 1962.98 1182.91 1959.83 1130.42ZM1415.2 585.604C1407.18 504.807 1466.16 432.811 1546.93 424.797C1627.7 416.772 1699.67 475.761 1707.7 556.555C1715.72 637.341 1656.73 709.348 1575.96 717.369C1495.2 725.391 1423.22 666.402 1415.2 585.604ZM960.31 669.336C900.078 666.362 853.661 615.099 856.645 554.838C859.618 494.581 910.866 448.157 971.113 451.135C1031.35 454.124 1077.77 505.379 1074.78 565.644C1071.81 625.89 1020.56 672.324 960.31 669.336ZM625.076 868.14C587.84 870.385 555.833 842.009 553.596 804.763C551.355 767.51 579.719 735.501 616.958 733.255C654.197 731.014 686.197 759.39 688.445 796.632C690.689 833.886 662.315 865.892 625.076 868.14ZM574.625 1517.24C499.16 1524.73 431.91 1469.62 424.416 1394.13C416.922 1318.65 472.028 1251.36 547.493 1243.87C622.958 1236.39 690.204 1291.5 697.703 1366.99C705.201 1442.48 650.091 1509.76 574.625 1517.24ZM1117.02 1794.69C1124.52 1852.41 1083.82 1905.29 1026.12 1912.8C968.409 1920.3 915.544 1879.59 908.049 1821.86C900.552 1764.14 941.244 1711.26 998.956 1703.76C1056.67 1696.26 1109.52 1736.97 1117.02 1794.69ZM1652.73 1531.76C1742.51 1520.09 1824.76 1583.43 1836.42 1673.25C1848.09 1763.05 1784.76 1845.31 1694.98 1856.99C1605.21 1868.65 1522.96 1805.31 1511.3 1715.51C1499.62 1625.71 1562.95 1543.44 1652.73 1531.76ZM1221.58 1500.2C1033.89 1500.2 881.734 1348 881.734 1160.25C881.734 972.499 1033.89 820.3 1221.58 820.3C1409.29 820.3 1561.45 972.499 1561.45 1160.25C1561.45 1348 1409.29 1500.2 1221.58 1500.2ZM1869.71 1217.57C1824.76 1220.28 1786.12 1186.01 1783.41 1141.05C1780.7 1096.08 1814.96 1057.43 1859.91 1054.73C1904.87 1052.01 1943.51 1086.27 1946.21 1131.24C1948.92 1176.21 1914.67 1214.86 1869.71 1217.57Z" fill="white"/>
<path d="M1411 691.496C1411 685.704 1406.52 681 1401 681C1395.48 681 1391 685.704 1391 691.496C1391 697.303 1395.48 702 1401 702C1406.52 702 1411 697.303 1411 691.496Z" fill="white"/>
<path d="M1426.5 411C1448.31 411 1466 393.314 1466 371.506C1466 349.69 1448.31 332 1426.5 332C1404.68 332 1387 349.689 1387 371.506C1387 393.314 1404.68 411 1426.5 411Z" fill="white"/>
<path d="M1714 452C1723.93 452 1732 443.716 1732 433.502C1732 423.284 1723.93 415 1714 415C1704.06 415 1696 423.284 1696 433.502C1696 443.716 1704.06 452 1714 452Z" fill="white"/>
<path d="M1647 749.496C1647 765.791 1660.2 779 1676.49 779C1692.79 779 1706 765.792 1706 749.496C1706 733.205 1692.79 720 1676.49 720C1660.2 720 1647 733.205 1647 749.496Z" fill="white"/>
<path d="M1092 498C1102.49 498 1111 489.495 1111 478.998C1111 468.509 1102.49 460 1092 460C1081.5 460 1073 468.508 1073 478.998C1073 489.495 1081.5 498 1092 498Z" fill="white"/>
<path d="M948 720.005C948 712.816 941.953 707 934.495 707C927.04 707 921 712.816 921 720.005C921 727.181 927.04 733 934.495 733C941.953 733 948 727.181 948 720.005Z" fill="white"/>
<path d="M802.498 621C818.795 621 832 607.794 832 591.5C832 575.21 818.795 562 802.498 562C786.205 562 773 575.21 773 591.5C773 607.794 786.205 621 802.498 621Z" fill="white"/>
<path d="M1903.49 1641C1888.87 1641 1877 1652.87 1877 1667.5C1877 1682.13 1888.87 1694 1903.49 1694C1918.12 1694 1930 1682.13 1930 1667.5C1930 1652.87 1918.12 1641 1903.49 1641Z" fill="white"/>
<path d="M1529.99 1848C1518.95 1848 1510 1856.96 1510 1868C1510 1879.04 1518.95 1888 1529.99 1888C1541.05 1888 1550 1879.04 1550 1868C1550 1856.96 1541.05 1848 1529.99 1848Z" fill="white"/>
<path d="M1559 1475.5C1559 1494.01 1574 1509 1592.49 1509C1610.99 1509 1626 1494.01 1626 1475.5C1626 1457 1610.99 1442 1592.49 1442C1574 1442 1559 1457 1559 1475.5Z" fill="white"/>
<path d="M1458 1635C1448.06 1635 1440 1643.06 1440 1653C1440 1662.94 1448.06 1671 1458 1671C1467.93 1671 1476 1662.94 1476 1653C1476 1643.06 1467.93 1635 1458 1635Z" fill="white"/>
<path d="M737 1257.5C737 1243.42 725.584 1232 711.5 1232C697.424 1232 686 1243.42 686 1257.5C686 1271.59 697.424 1283 711.5 1283C725.584 1283 737 1271.59 737 1257.5Z" fill="white"/>
<path d="M473.503 1222C498.635 1222 519 1201.63 519 1176.5C519 1151.37 498.635 1131 473.503 1131C448.376 1131 428 1151.37 428 1176.5C428 1201.63 448.376 1222 473.503 1222Z" fill="white"/>
<path d="M411.998 1497C398.746 1497 388 1507.74 388 1521C388 1534.25 398.746 1545 411.998 1545C425.261 1545 436 1534.25 436 1521C436 1507.74 425.261 1497 411.998 1497Z" fill="white"/>
<path d="M701.002 1503C691.053 1503 683 1511.06 683 1521C683 1530.95 691.053 1539 701.002 1539C710.944 1539 719 1530.95 719 1521C719 1511.06 710.944 1503 701.002 1503Z" fill="white"/>
<path d="M610.496 709C623.481 709 634 698.701 634 685.996C634 673.299 623.481 663 610.496 663C597.522 663 587 673.299 587 685.996C587 698.701 597.522 709 610.496 709Z" fill="white"/>
<path d="M711.504 766C716.193 766 720 762.193 720 757.496C720 752.807 716.193 749 711.504 749C706.811 749 703 752.807 703 757.496C703 762.193 706.811 766 711.504 766Z" fill="white"/>
<path d="M655 903.496C655 896.042 648.958 890 641.496 890C634.038 890 628 896.042 628 903.496C628 910.951 634.038 917 641.496 917C648.958 917 655 910.95 655 903.496Z" fill="white"/>
<path d="M515.5 815C523.511 815 530 808.505 530 800.504C530 792.495 523.511 786 515.5 786C507.489 786 501 792.495 501 800.504C501 808.505 507.489 815 515.5 815Z" fill="white"/>
<path d="M972 1653C972 1667.36 983.643 1679 998 1679C1012.36 1679 1024 1667.36 1024 1653C1024 1638.64 1012.36 1627 998 1627C983.643 1627 972 1638.64 972 1653Z" fill="white"/>
<path d="M1153.5 1743C1144.94 1743 1138 1749.71 1138 1758C1138 1766.28 1144.94 1773 1153.5 1773C1162.06 1773 1169 1766.28 1169 1758C1169 1749.71 1162.06 1743 1153.5 1743Z" fill="white"/>
<path d="M849.998 1816C832.326 1816 818 1830.32 818 1847.99C818 1865.67 832.326 1880 849.998 1880C867.674 1880 882 1865.67 882 1847.99C882 1830.32 867.674 1816 849.998 1816Z" fill="white"/>
<path d="M1118 1900C1105.85 1900 1096 1909.85 1096 1922C1096 1934.16 1105.85 1944 1118 1944C1130.15 1944 1140 1934.16 1140 1922C1140 1909.85 1130.15 1900 1118 1900Z" fill="white"/>
<path d="M987.996 1955C982.477 1955 978 1959.48 978 1965C978 1970.53 982.477 1975 987.996 1975C993.523 1975 998 1970.53 998 1965C998 1959.48 993.523 1955 987.996 1955Z" fill="white"/>
<path d="M990.408 406.899C993.926 399.862 991.074 391.305 984.037 387.787C977 384.268 968.444 387.12 964.925 394.157C961.407 401.194 964.259 409.751 971.296 413.269C978.333 416.788 986.89 413.935 990.408 406.899Z" fill="white"/>
<path d="M1835.5 1828C1824.18 1828 1815 1836.96 1815 1848C1815 1859.05 1824.18 1868 1835.5 1868C1846.82 1868 1856 1859.05 1856 1848C1856 1836.96 1846.82 1828 1835.5 1828Z" fill="white"/>
<path d="M1743.5 1099C1750.97 1099 1757 1092.95 1757 1085.5C1757 1078.04 1750.97 1072 1743.5 1072C1736.04 1072 1730 1078.04 1730 1085.5C1730 1092.96 1736.04 1099 1743.5 1099Z" fill="white"/>
<path d="M1839 1027C1852.26 1027 1863 1016.25 1863 1003C1863 989.748 1852.26 979 1839 979C1825.75 979 1815 989.748 1815 1003C1815 1016.25 1825.75 1027 1839 1027Z" fill="white"/>
<path d="M1795 1246.49C1795 1252.3 1799.71 1257 1805.5 1257C1811.3 1257 1816 1252.3 1816 1246.49C1816 1240.7 1811.3 1236 1805.5 1236C1799.71 1236 1795 1240.7 1795 1246.49Z" fill="white"/>
<path d="M1960.5 1208C1948.07 1208 1938 1218.3 1938 1231C1938 1243.7 1948.07 1254 1960.5 1254C1972.93 1254 1983 1243.7 1983 1231C1983 1218.3 1972.93 1208 1960.5 1208Z" fill="white"/>
<path d="M1965.49 1064C1974.61 1064 1982 1056.61 1982 1047.5C1982 1038.39 1974.61 1031 1965.49 1031C1956.39 1031 1949 1038.39 1949 1047.5C1949 1056.61 1956.39 1064 1965.49 1064Z" fill="white"/>
<path d="M972.004 1474C964.824 1474 959 1480.04 959 1487.5C959 1494.95 964.824 1501 972.004 1501C979.183 1501 985 1494.95 985 1487.5C985 1480.04 979.183 1474 972.004 1474Z" fill="white"/>
<path d="M866.998 1395C852.643 1395 841 1406.41 841 1420.5C841 1434.58 852.643 1446 866.998 1446C881.357 1446 893 1434.58 893 1420.5C893 1406.41 881.357 1395 866.998 1395Z" fill="white"/>
<path d="M1383.01 1522C1374.18 1522 1367 1529.17 1367 1538.01C1367 1546.83 1374.18 1554 1383.01 1554C1391.83 1554 1399 1546.83 1399 1538.01C1399 1529.17 1391.83 1522 1383.01 1522Z" fill="white"/>
<path d="M1265.5 1564C1257.49 1564 1251 1570.27 1251 1578C1251 1585.73 1257.49 1592 1265.5 1592C1273.51 1592 1280 1585.73 1280 1578C1280 1570.27 1273.51 1564 1265.5 1564Z" fill="white"/>
<path d="M1655 1246.5C1655 1234.62 1645.38 1225 1633.51 1225C1621.64 1225 1612 1234.62 1612 1246.5C1612 1258.37 1621.64 1268 1633.51 1268C1645.38 1268 1655 1258.37 1655 1246.5Z" fill="white"/>
<path d="M1605 1339.99C1605 1333.37 1599.63 1328 1592.99 1328C1586.38 1328 1581 1333.37 1581 1339.99C1581 1346.63 1586.38 1352 1592.99 1352C1599.63 1352 1605 1346.63 1605 1339.99Z" fill="white"/>
<path d="M1485 841.504C1485 857.242 1497.75 870 1513.49 870C1529.24 870 1542 857.242 1542 841.504C1542 825.762 1529.24 813 1513.49 813C1497.75 813 1485 825.762 1485 841.504Z" fill="white"/>
<path d="M1569 912C1562.37 912 1557 917.374 1557 923.997C1557 930.637 1562.37 936 1569 936C1575.62 936 1581 930.637 1581 923.997C1581 917.374 1575.62 912 1569 912Z" fill="white"/>
<path d="M1591 1027.5C1591 1039.37 1600.62 1049 1612.49 1049C1624.37 1049 1634 1039.37 1634 1027.5C1634 1015.63 1624.37 1006 1612.49 1006C1600.62 1006 1591 1015.63 1591 1027.5Z" fill="white"/>
<path d="M921 869.998C921 856.195 909.805 845 895.995 845C882.199 845 871 856.195 871 869.998C871 883.812 882.199 895 895.995 895C909.805 895 921 883.812 921 869.998Z" fill="white"/>
<path d="M979 812.996C979 805.821 972.953 800 965.5 800C958.044 800 952 805.821 952 812.996C952 820.179 958.043 826 965.5 826C972.953 826 979 820.179 979 812.996Z" fill="white"/>
<path d="M1151.01 757C1164.26 757 1175 746.255 1175 732.998C1175 719.749 1164.26 709 1151.01 709C1137.74 709 1127 719.749 1127 732.998C1127 746.255 1137.74 757 1151.01 757Z" fill="white"/>
<path d="M1293 754C1300.73 754 1307 747.957 1307 740.498C1307 733.04 1300.73 727 1293 727C1285.27 727 1279 733.04 1279 740.498C1279 747.957 1285.27 754 1293 754Z" fill="white"/>
<path d="M793.002 999C777.543 999 765 1011.76 765 1027.5C765 1043.24 777.542 1056 793.002 1056C808.464 1056 821 1043.24 821 1027.5C821 1011.76 808.464 999 793.002 999Z" fill="white"/>
<path d="M798 1149C798 1155.63 803.139 1161 809.493 1161C815.854 1161 821 1155.63 821 1149C821 1142.37 815.854 1137 809.493 1137C803.139 1137 798 1142.37 798 1149Z" fill="white"/>
<path d="M1221.49 834C1041.73 834 896 979.959 896 1160C896 1340.06 1041.73 1486 1221.49 1486C1401.27 1486 1547 1340.06 1547 1160C1547 979.959 1401.27 834 1221.49 834ZM1221.49 1464.88C1079.78 1464.88 960.68 1367.88 926.769 1236.55L1066.23 1231.64C1056.22 1226.32 1049.39 1215.78 1049.39 1203.67C1049.39 1192.26 1055.59 1181.7 1065.56 1176.09C1066.66 1175.44 1067.85 1174.88 1069.21 1174.33C1070.28 1173.9 1071.38 1173.53 1072.47 1173.23L1073.38 1172.99C1074.31 1172.76 1075.24 1172.58 1076.28 1172.42C1076.58 1172.37 1076.88 1172.31 1077.22 1172.27C1078.46 1172.13 1079.71 1172.03 1080.99 1172.03C1098.41 1172.03 1112.57 1186.22 1112.57 1203.67C1112.57 1204.79 1112.51 1205.93 1112.38 1207.08C1113.57 1206.92 1114.67 1206.86 1115.76 1206.86C1133.17 1206.86 1147.35 1221.05 1147.35 1238.48C1147.35 1239.89 1147.26 1241.27 1147.07 1242.65C1148.45 1242.47 1149.84 1242.38 1151.22 1242.38C1168.65 1242.38 1182.82 1256.57 1182.82 1274.01C1182.82 1275.53 1182.71 1277.03 1182.5 1278.52C1183.97 1278.31 1185.47 1278.2 1186.99 1278.2C1204.4 1278.2 1218.57 1292.39 1218.57 1309.83C1218.57 1314.46 1217.55 1319.04 1215.58 1323.22L1216.04 1323.66C1219.72 1327.35 1224.61 1329.39 1229.81 1329.39C1235.02 1329.39 1239.92 1327.35 1243.6 1323.66C1247.29 1319.97 1249.31 1315.07 1249.31 1309.86C1249.31 1304.64 1247.29 1299.74 1243.6 1296.05L1213.45 1265.86L1226.2 1253.1L1268.14 1295.11C1271.82 1298.8 1276.72 1300.85 1281.93 1300.85C1287.14 1300.85 1292.04 1298.8 1295.72 1295.11C1303.32 1287.5 1303.32 1275.13 1295.72 1267.5L1253.77 1225.49L1266.5 1212.74L1318.29 1264.6C1321.97 1268.29 1326.86 1270.31 1332.07 1270.31C1337.28 1270.31 1342.17 1268.29 1345.86 1264.6C1349.54 1260.91 1351.57 1256.01 1351.57 1250.79C1351.57 1245.57 1349.54 1240.67 1345.84 1236.99L1294.08 1185.13L1306.82 1172.36L1362.52 1228.17C1366.21 1231.85 1371.11 1233.88 1376.32 1233.88C1381.52 1233.88 1386.43 1231.85 1390.1 1228.17C1397.71 1220.56 1397.71 1208.17 1390.1 1200.56L1314.59 1124.93C1314.45 1124.78 1313.59 1124.01 1313.59 1124.01C1313.59 1124.01 1313.04 1123.38 1312.93 1123.26L1270.15 1080.41C1267.5 1078.88 1266.05 1078.64 1265.41 1078.64C1265.15 1078.64 1264.63 1078.64 1263.63 1079.26L1206.03 1136.93C1199.74 1143.25 1191.37 1146.73 1182.46 1146.73C1173.55 1146.73 1165.19 1143.25 1158.9 1136.95C1152.6 1130.65 1149.13 1122.27 1149.13 1113.33C1149.13 1104.43 1152.6 1096.04 1158.9 1089.74L1215.67 1032.89C1209.96 1030.52 1204.15 1029.39 1197.65 1029.39C1187.49 1029.39 1176.47 1032.19 1163.73 1035.43L1159.22 1036.57C1112.13 1048.42 1059.44 1089.48 1058.9 1089.88L1058 1090.61L927.1 1082.23C961.437 951.527 1080.22 855.129 1221.49 855.129C1366.05 855.129 1487.08 956.048 1518.17 1091.38L1402.39 1097.83L1401.42 1096.59C1395.16 1088.69 1387.49 1082.46 1378.58 1078.1C1367.98 1072.92 1357.61 1067.79 1347.64 1062.86C1310.64 1044.58 1278.7 1028.8 1261.79 1023.26C1259.5 1022.23 1257.05 1021.63 1254.4 1021.48C1254.04 1021.44 1253.68 1021.42 1253.29 1021.42H1253.27C1247.67 1021.43 1242.42 1023.61 1238.46 1027.58L1167.64 1098.49C1159.47 1106.67 1159.47 1120 1167.64 1128.2C1171.6 1132.16 1176.86 1134.34 1182.46 1134.34C1188.07 1134.34 1193.33 1132.16 1197.28 1128.2L1255.72 1069.67L1255.92 1069.53C1259.03 1067.33 1262.13 1066.26 1265.41 1066.26C1272.63 1066.26 1281.04 1071.45 1292.69 1083.12L1394.34 1184.92C1412.89 1203.52 1409.34 1221.35 1406.35 1229.22C1406.7 1229.23 1407.08 1229.24 1407.46 1229.24C1408.06 1229.24 1408.68 1229.22 1409.63 1229.16L1517.29 1232.26C1484.89 1365.75 1364.76 1464.88 1221.49 1464.88Z" fill="white"/>
<path d="M1081.01 1184C1070.53 1184 1062 1192.76 1062 1203.5C1062 1214.24 1070.53 1223 1081.01 1223C1091.48 1223 1100 1214.24 1100 1203.5C1100 1192.76 1091.48 1184 1081.01 1184Z" fill="white"/>
<path d="M1115.5 1219C1104.75 1219 1096 1227.52 1096 1237.99C1096 1248.48 1104.75 1257 1115.5 1257C1126.27 1257 1135 1248.48 1135 1237.99C1135 1227.52 1126.27 1219 1115.5 1219Z" fill="white"/>
<path d="M1151 1254C1140.52 1254 1132 1262.74 1132 1273.49C1132 1284.25 1140.52 1293 1151 1293C1161.48 1293 1170 1284.25 1170 1273.49C1170 1262.74 1161.48 1254 1151 1254Z" fill="white"/>
<path d="M1187 1290C1176.52 1290 1168 1298.75 1168 1309.5C1168 1320.26 1176.52 1329 1187 1329C1197.47 1329 1206 1320.26 1206 1309.5C1206 1298.75 1197.47 1290 1187 1290Z" fill="white"/>
<path d="M2208 1186C2208 1748.23 1752.23 2204 1190 2204C627.774 2204 172 1748.23 172 1186C172 623.774 627.774 168 1190 168C1752.23 168 2208 623.774 2208 1186Z" stroke="#F7A73C" stroke-width="14"/>
</svg>
