<svg width="2372" height="2372" viewBox="0 0 2372 2372" fill="none" xmlns="http://www.w3.org/2000/svg">
<path d="M1186 2372C1841.01 2372 2372 1841.01 2372 1186C2372 530.99 1841.01 0 1186 0C530.99 0 0 530.99 0 1186C0 1841.01 530.99 2372 1186 2372Z" fill="white"/>
<path d="M1186 2264C1781.36 2264 2264 1781.36 2264 1186C2264 590.637 1781.36 108 1186 108C590.637 108 108 590.637 108 1186C108 1781.36 590.637 2264 1186 2264Z" fill="#30486E"/>
<g clip-path="url(#clip0_548_34677)">
<path d="M1586.9 1592.65C1816.55 1362.37 1816.55 989.009 1586.9 758.726C1357.24 528.444 984.904 528.444 755.251 758.726C525.598 989.009 525.598 1362.37 755.251 1592.65C984.904 1822.94 1357.24 1822.94 1586.9 1592.65Z" fill="#FFA229"/>
<path d="M1454.97 855.498H901.593C892.323 855.498 884.809 863.034 884.809 872.329V1479.04C884.809 1488.34 892.323 1495.87 901.593 1495.87H1454.97C1464.24 1495.87 1471.75 1488.34 1471.75 1479.04V872.329C1471.75 863.034 1464.24 855.498 1454.97 855.498Z" fill="#E0DBC0"/>
<path d="M1422.61 1528.66H933.953C912.255 1528.62 891.457 1519.96 876.116 1504.58C860.776 1489.19 852.145 1468.33 852.115 1446.57V904.739C852.15 882.986 860.783 862.133 876.123 846.751C891.463 831.369 912.259 822.712 933.953 822.677H1422.61C1444.31 822.712 1465.1 831.369 1480.44 846.751C1495.78 862.133 1504.41 882.986 1504.45 904.739V1446.59C1504.41 1468.35 1495.78 1489.2 1480.44 1504.58C1465.1 1519.96 1444.31 1528.62 1422.61 1528.66ZM933.953 888.301C929.613 888.359 925.467 890.113 922.398 893.19C919.329 896.268 917.58 900.425 917.522 904.776V1446.59C917.575 1450.95 919.322 1455.11 922.392 1458.19C925.461 1461.27 929.61 1463.03 933.953 1463.09H1422.61C1426.95 1463.03 1431.1 1461.27 1434.17 1458.19C1437.24 1455.11 1438.99 1450.95 1439.04 1446.59V904.739C1438.98 900.387 1437.23 896.23 1434.17 893.153C1431.1 890.076 1426.95 888.321 1422.61 888.263L933.953 888.301Z" fill="#60A2A2"/>
<path d="M1645.15 952.653L1616.2 926.389C1595.32 907.429 1561.58 908.643 1541.22 929.098L1256.85 1214.83L1141.11 1110.78C1118.23 1090.23 1081.49 1091.75 1059.36 1114.14L1041.68 1132.08C1019.61 1154.49 1020.26 1189.61 1043.14 1210.16L1214.52 1364.12L1225.51 1374.1C1246.4 1393.06 1280.14 1391.82 1300.5 1371.39L1646.14 1024.29C1666.5 1003.84 1666.07 971.595 1645.15 952.653Z" fill="#1C4670"/>
<path d="M1348.56 1732.94L1313.76 1219.35C1313.44 1214.72 1314.31 1210.08 1316.28 1205.87C1318.25 1201.67 1321.25 1198.04 1325.01 1195.32C1328.77 1192.61 1333.15 1190.9 1337.75 1190.36C1342.35 1189.82 1347.02 1190.46 1351.3 1192.23L1852.1 1398.75C1856.6 1400.6 1860.51 1403.62 1863.45 1407.5C1866.38 1411.38 1868.23 1415.98 1868.8 1420.81C1869.37 1425.65 1868.64 1430.55 1866.69 1435C1864.74 1439.46 1861.63 1443.31 1857.69 1446.16L1708.34 1554.51C1702.51 1558.73 1698.59 1565.09 1697.42 1572.2C1696.25 1579.31 1697.93 1586.6 1702.1 1592.47L1835.36 1780.56C1839.54 1786.46 1841.21 1793.79 1840.01 1800.93C1838.81 1808.07 1834.83 1814.44 1828.95 1818.65L1748.54 1876.01C1745.54 1878.15 1742.14 1879.66 1738.54 1880.44C1734.94 1881.23 1731.21 1881.27 1727.6 1880.57C1723.98 1879.87 1720.54 1878.45 1717.49 1876.38C1714.43 1874.31 1711.83 1871.64 1709.83 1868.54L1578.42 1663.92C1576.48 1660.89 1573.96 1658.28 1571 1656.23C1568.04 1654.19 1564.71 1652.75 1561.2 1651.99C1557.69 1651.24 1554.06 1651.19 1550.53 1651.85C1547 1652.51 1543.63 1653.86 1540.63 1655.83L1390.64 1753.98C1386.66 1756.58 1382.07 1758.09 1377.33 1758.37C1372.58 1758.65 1367.85 1757.67 1363.59 1755.55C1359.34 1753.42 1355.71 1750.21 1353.08 1746.25C1350.44 1742.28 1348.88 1737.7 1348.56 1732.94Z" fill="white"/>
</g>
<path d="M2208 1186C2208 1748.23 1752.23 2204 1190 2204C627.774 2204 172 1748.23 172 1186C172 623.774 627.774 168 1190 168C1752.23 168 2208 623.774 2208 1186Z" stroke="#F7A73C" stroke-width="14"/>
<defs>
<clipPath id="clip0_548_34677">
<rect width="1286" height="1295" fill="white" transform="translate(583 586)"/>
</clipPath>
</defs>
</svg>
