<svg width="998" height="951" viewBox="0 0 998 951" fill="none" xmlns="http://www.w3.org/2000/svg">
<path d="M997.663 738.78H0.789062V950.179H997.663V738.78Z" fill="#30486E"/>
<path d="M513.069 837.539C733.041 837.539 911.364 826.661 911.364 813.243C911.364 799.825 733.041 788.947 513.069 788.947C293.096 788.947 114.773 799.825 114.773 813.243C114.773 826.661 293.096 837.539 513.069 837.539Z" fill="white"/>
<path d="M902.621 738.78C912.536 703.894 917.843 667.067 917.843 629.001C917.843 407.651 738.404 228.213 517.056 228.213C295.708 228.213 116.267 407.653 116.267 629.001C116.267 667.067 121.574 703.892 131.489 738.78H902.621Z" fill="white"/>
<path d="M685.256 58.0021C685.256 60.8273 686.408 63.4032 688.282 65.2674C690.135 67.1435 692.71 68.2939 695.536 68.2939H915.56C921.21 68.2939 925.84 63.6644 925.84 58.0021C925.84 55.177 924.687 52.6011 922.813 50.7369C920.961 48.8608 918.385 47.7104 915.56 47.7104H905.16C901.053 38.1663 891.567 31.4952 880.528 31.4952C873.097 31.4952 866.376 34.5218 861.509 39.4005C855.028 28.4069 843.073 21.0241 829.386 21.0241C825.622 21.0241 822.001 21.5943 818.582 22.6271C811.424 9.16527 797.273 0 780.962 0C761.373 0 744.897 13.2245 739.922 31.2221C736.314 29.4178 732.243 28.385 727.92 28.385C715.704 28.385 705.401 36.5414 702.159 47.7124H695.534C689.885 47.7084 685.256 52.3399 685.256 58.0021Z" fill="#E9A038"/>
<path d="M47.7559 50.907C47.7559 52.8927 48.5653 54.7011 49.8832 56.011C51.1851 57.3288 52.9934 58.1383 54.9792 58.1383H209.555C213.524 58.1383 216.778 54.8845 216.778 50.907C216.778 48.9212 215.968 47.1129 214.651 45.803C213.349 44.4851 211.54 43.6756 209.555 43.6756H202.249C199.362 36.9707 192.699 32.2834 184.944 32.2834C179.722 32.2834 175.003 34.4107 171.584 37.8379C167.03 30.1142 158.63 24.9264 149.014 24.9264C146.371 24.9264 143.827 25.3272 141.424 26.0529C136.396 16.5946 126.453 10.1567 114.995 10.1567C101.234 10.1567 89.6565 19.4476 86.1634 32.092C83.6274 30.8239 80.7683 30.0982 77.7319 30.0982C69.1508 30.0982 61.9115 35.8282 59.6346 43.6756H54.9812C51.0077 43.6756 47.7559 46.9274 47.7559 50.907Z" fill="#E9A038"/>
<path d="M119.439 201.871C119.439 203.066 119.926 204.154 120.719 204.942C121.503 205.735 122.59 206.222 123.784 206.222H216.768C219.157 206.222 221.113 204.266 221.113 201.871C221.113 200.677 220.626 199.589 219.833 198.801C219.051 198.008 217.963 197.521 216.768 197.521H212.374C210.637 193.488 206.63 190.669 201.965 190.669C198.825 190.669 195.983 191.949 193.928 194.01C191.188 189.365 186.136 186.244 180.352 186.244C178.761 186.244 177.232 186.486 175.787 186.922C172.762 181.234 166.781 177.36 159.889 177.36C151.611 177.36 144.646 182.949 142.545 190.555C141.02 189.793 139.299 189.355 137.473 189.355C132.311 189.355 127.957 192.802 126.587 197.523H123.784C121.395 197.521 119.439 199.479 119.439 201.871Z" fill="#E9A038"/>
<path d="M451.074 101.131C451.074 102.326 451.561 103.414 452.354 104.202C453.138 104.995 454.226 105.482 455.421 105.482H548.405C550.794 105.482 552.749 103.526 552.749 101.131C552.749 99.937 552.263 98.8484 551.469 98.0609C550.688 97.2674 549.597 96.7809 548.405 96.7809H544.011C542.274 92.7475 538.267 89.9284 533.601 89.9284C530.461 89.9284 527.622 91.2084 525.565 93.2699C522.825 88.6245 517.773 85.5043 511.989 85.5043C510.398 85.5043 508.869 85.7455 507.424 86.1821C504.399 80.492 498.418 76.6201 491.525 76.6201C483.247 76.6201 476.283 82.2086 474.182 89.8147C472.657 89.0531 470.936 88.6145 469.11 88.6145C463.948 88.6145 459.594 92.0617 458.224 96.7809H455.425C453.03 96.7809 451.074 98.7368 451.074 101.131Z" fill="#E9A038"/>
<path d="M713.998 208.573C713.998 209.767 714.485 210.856 715.278 211.643C716.062 212.437 717.15 212.923 718.344 212.923H811.329C813.717 212.923 815.673 210.967 815.673 208.573C815.673 207.378 815.187 206.29 814.393 205.502C813.61 204.709 812.521 204.222 811.329 204.222H806.935C805.198 200.189 801.191 197.37 796.525 197.37C793.385 197.37 790.544 198.65 788.488 200.711C785.749 196.066 780.697 192.946 774.913 192.946C773.322 192.946 771.793 193.187 770.347 193.624C767.323 187.933 761.342 184.062 754.449 184.062C746.171 184.062 739.207 189.65 737.106 197.256C735.58 196.495 733.86 196.056 732.034 196.056C726.872 196.056 722.517 199.503 721.148 204.224H718.348C715.954 204.222 713.998 206.18 713.998 208.573Z" fill="url(#paint0_linear_59_7)"/>
<path d="M996.922 436.645C995.062 437.189 993.399 438.192 992.066 439.53C989.326 434.885 984.274 431.765 978.49 431.765C976.899 431.765 975.37 432.006 973.924 432.442C970.9 426.752 964.919 422.88 958.026 422.88C949.748 422.88 942.784 428.469 940.683 436.075C939.157 435.311 937.437 434.875 935.611 434.875C930.449 434.875 926.092 438.322 924.723 443.041H921.923C919.535 443.041 917.579 444.997 917.579 447.391C917.579 448.586 918.066 449.674 918.859 450.462C919.643 451.255 920.731 451.742 921.923 451.742H996.922V436.645Z" fill="#E9A038"/>
<path d="M488.958 810.936V811.066L244.018 812.22L242.892 566.435L312.258 566.126C312.107 533.572 338.38 507.061 370.91 506.909C403.462 506.758 429.975 533.031 430.127 565.561L487.832 565.308L488.137 634.364C486.93 634.29 485.702 634.262 484.444 634.262C451.892 634.414 425.611 660.926 425.768 693.478C425.92 726.036 452.427 752.284 484.984 752.13C486.241 752.13 487.471 752.081 488.699 752.001L488.958 810.936Z" fill="#E9A038"/>
<path d="M488.958 810.936V811.066L244.018 812.22L242.892 566.435C242.892 566.435 250.723 801.153 488.958 810.936Z" fill="#CC8B30"/>
<path d="M753.981 566.433L752.854 812.222L525.053 811.161V808.683C525.053 808.683 525.059 808.683 525.063 808.683L524.809 752.003C523.575 752.085 522.347 752.134 521.091 752.134C488.533 752.286 462.024 726.036 461.873 693.478C461.721 660.921 487.997 634.418 520.553 634.264C521.807 634.264 523.035 634.29 524.245 634.366L523.936 565.38L566.748 565.563C566.899 533.031 593.408 506.756 625.962 506.907C658.494 507.059 684.77 533.568 684.618 566.126L753.981 566.433Z" fill="#E9A038"/>
<path d="M753.981 566.433L752.854 812.222L525.053 811.162C743.073 806.784 753.981 566.433 753.981 566.433Z" fill="#CC8B30"/>
<path d="M165.951 496.68C167.373 551.035 175.025 703.601 170.062 774.461H193.654C193.654 774.461 216.529 579.426 225.225 494.815L165.951 496.68Z" fill="#162D47"/>
<path d="M237.15 771.338L259.777 767.113C266.54 719.728 286.469 563.791 290.032 492.142L232.756 496.679C234.076 520.62 234.488 678.067 237.15 771.338Z" fill="#162D47"/>
<path d="M168.31 446.903C168.31 446.903 165.75 466.472 165.952 496.679C165.952 496.679 229.255 507.33 290.033 492.142C290.033 492.142 291.699 472.681 286.536 445.051L168.31 446.903Z" fill="#162D47"/>
<path d="M208.766 809.919C208.192 821.385 172.34 817.435 166.608 813.996C164.395 812.666 163.466 810.102 163.295 807.002C163.014 802.054 164.642 795.723 166.052 790.765C168.345 782.686 168.03 782.836 169.623 777.315C169.623 777.315 169.21 768.335 180.957 764.908C192.704 761.473 197.011 783.835 199.019 788.135C200.853 792.075 207.99 797.464 208.73 807.16C208.802 808.037 208.812 808.96 208.766 809.919Z" fill="#8028CA"/>
<path d="M174.579 784.568L173.64 783.126C174.076 782.841 184.444 776.194 193.465 780.152L192.776 781.727C184.597 778.14 174.678 784.502 174.579 784.568Z" fill="white"/>
<path d="M175.602 794.547L174.663 793.106C175.1 792.821 185.467 786.174 194.489 790.131L193.797 791.706C185.617 788.118 175.702 794.482 175.602 794.547Z" fill="white"/>
<path d="M175.091 789.557L174.152 788.116C174.589 787.83 184.956 781.183 193.976 785.139L193.284 786.714C185.106 783.127 175.189 789.493 175.091 789.557Z" fill="white"/>
<path d="M175.942 784.119C175.942 785.187 175.075 786.054 174.008 786.054C172.939 786.054 172.074 785.187 172.074 784.119C172.074 783.05 172.939 782.183 174.008 782.183C175.075 782.183 175.942 783.05 175.942 784.119Z" fill="white"/>
<path d="M176.044 788.845C176.044 789.914 175.178 790.779 174.108 790.779C173.039 790.779 172.172 789.912 172.172 788.845C172.172 787.776 173.039 786.909 174.108 786.909C175.178 786.911 176.044 787.776 176.044 788.845Z" fill="white"/>
<path d="M177.067 793.574C177.067 794.643 176.202 795.51 175.133 795.51C174.065 795.51 173.199 794.645 173.199 793.574C173.199 792.505 174.065 791.638 175.133 791.638C176.202 791.638 177.067 792.505 177.067 793.574Z" fill="white"/>
<path d="M196.078 790.781C196.078 791.85 195.211 792.717 194.142 792.717C193.073 792.717 192.206 791.85 192.206 790.781C192.206 789.712 193.071 788.847 194.142 788.847C195.211 788.845 196.078 789.712 196.078 790.781Z" fill="white"/>
<path d="M195.565 785.621C195.565 786.69 194.7 787.557 193.631 787.557C192.563 787.557 191.695 786.69 191.695 785.621C191.695 784.553 192.563 783.688 193.631 783.688C194.7 783.686 195.565 784.553 195.565 785.621Z" fill="white"/>
<path d="M195.054 780.459C195.054 781.528 194.189 782.395 193.119 782.395C192.05 782.395 191.185 781.528 191.185 780.459C191.185 779.391 192.05 778.525 193.119 778.525C194.189 778.525 195.054 779.391 195.054 780.459Z" fill="white"/>
<path d="M208.765 809.919C208.191 821.385 172.34 817.436 166.608 813.997C164.394 812.667 163.465 810.103 163.294 807.002C167.06 809.152 173.699 811.829 183.614 812.007C195.774 812.224 204.547 809.766 208.733 807.156C208.801 808.037 208.811 808.96 208.765 809.919Z" fill="white"/>
<path d="M186.028 768.445C186.028 768.445 180.577 767.871 175.941 770.453L176.468 774.083C176.468 774.083 182.965 772.173 187.266 772.458C187.266 772.458 187.178 770.07 186.028 768.445Z" fill="white"/>
<path d="M305.595 812.007H240.517C237.437 812.007 234.933 809.71 234.544 806.788C234.49 806.375 234.472 805.95 234.508 805.52L237.152 771.339C237.152 771.339 239.861 770.089 243.651 769.191C245.9 768.659 247.794 767.026 248.476 764.815C248.524 764.654 248.566 764.486 248.608 764.319C250.103 757.741 259.587 755.648 261.338 762.076C261.565 762.907 261.762 763.715 261.93 764.492C261.972 764.684 262.014 764.881 262.05 765.066C262.331 766.448 262.534 767.722 262.678 768.835C262.684 768.858 262.684 768.882 262.69 768.906C263.042 771.739 263.013 773.552 263.013 773.552C263.874 774.646 264.705 775.723 265.513 776.782C265.925 777.308 266.32 777.834 266.715 778.349C267.57 779.461 268.402 780.544 269.221 781.585C269.598 782.075 269.975 782.548 270.352 783.014C271.255 784.145 272.146 785.215 273.037 786.214C273.438 786.669 273.839 787.111 274.251 787.536C277.607 791.065 280.99 793.473 284.992 794.03C292.048 794.999 303.577 795.776 309.144 806.134C309.264 806.349 309.353 806.57 309.425 806.792C310.24 809.286 308.362 812.007 305.595 812.007Z" fill="#8028CA"/>
<path d="M305.594 812.005H240.516C237.436 812.005 234.932 809.708 234.543 806.786H309.42C310.24 809.286 308.362 812.005 305.594 812.005Z" fill="white"/>
<path d="M266.713 778.346C265.959 779.453 264.422 780.793 261.326 782.031C260.799 782.246 260.225 782.455 259.603 782.659L259.041 780.96C259.657 780.757 260.213 780.553 260.716 780.35C264.275 778.915 265.25 777.503 265.511 776.781C265.923 777.306 266.318 777.832 266.713 778.346Z" fill="white"/>
<path d="M259.32 783.827C260.435 783.827 261.338 782.923 261.338 781.809C261.338 780.695 260.435 779.792 259.32 779.792C258.206 779.792 257.303 780.695 257.303 781.809C257.303 782.923 258.206 783.827 259.32 783.827Z" fill="white"/>
<path d="M270.35 783.012C269.507 783.904 268.131 784.891 265.896 785.818C265.274 786.087 264.592 786.338 263.833 786.589L263.271 784.885C263.976 784.651 264.61 784.418 265.173 784.185C267.451 783.24 268.622 782.307 269.22 781.583C269.597 782.073 269.974 782.546 270.35 783.012Z" fill="white"/>
<path d="M265.898 785.738C265.898 786.853 264.994 787.756 263.88 787.756C262.765 787.756 261.862 786.853 261.862 785.738C261.862 784.624 262.765 783.721 263.88 783.721C264.994 783.721 265.898 784.624 265.898 785.738Z" fill="white"/>
<path d="M274.248 787.532C273.405 788.393 272.059 789.326 269.932 790.217C269.304 790.487 268.61 790.75 267.838 791.001L267.282 789.296C267.994 789.063 268.628 788.824 269.196 788.585C271.236 787.735 272.39 786.892 273.034 786.21C273.437 786.665 273.836 787.107 274.248 787.532Z" fill="white"/>
<path d="M269.937 790.148C269.937 791.262 269.034 792.165 267.919 792.165C266.805 792.165 265.901 791.262 265.901 790.148C265.901 789.033 266.805 788.13 267.919 788.13C269.034 788.128 269.937 789.031 269.937 790.148Z" fill="white"/>
<path d="M262.679 768.832C259.7 768.79 256.879 769.161 256.879 769.161L256.915 765.901C258.691 765.243 260.51 765.058 262.051 765.064C262.332 766.445 262.535 767.719 262.679 768.832Z" fill="white"/>
<path d="M289.479 450.469C286.435 455.599 276.031 459.514 267.085 461.693C266.473 461.843 265.863 461.983 265.263 462.116C263.708 462.467 262.218 462.75 260.839 462.983C246.163 465.434 231.383 466.518 216.53 466.494C213.774 466.488 210.856 466.295 207.861 465.916C207.255 465.838 206.645 465.755 206.039 465.671C190.579 463.398 173.393 456.663 164.784 448.028L165.001 447.045L166.752 439.238L166.824 438.915L168.845 429.851L170.307 423.306L172.007 415.726L172.123 415.191L174.107 406.301L175.752 398.944L177.319 391.936L177.359 391.759L177.187 390.736L175.781 382.5L174.248 373.542L173.325 368.129L172.809 365.122L171.714 358.72L169.87 347.952L169.264 344.413L168.446 339.618L167.663 335.029L165.518 322.51L165.223 320.775L164.094 314.19L163.622 311.417L161.193 297.225L161.181 297.159L159.77 288.895L159.598 287.884L157.186 273.759L156.875 271.952L155.591 264.434L155.469 263.716L153.436 251.835L185.555 240.844L187.283 240.25L194.491 237.784L200.209 235.828L234.182 240.383L239.705 241.117L241.655 241.378L265.957 244.638L266.712 251.255L266.902 252.888L267.657 259.533L267.968 262.279L269.763 277.95L269.835 278.572L270.712 286.234L270.907 287.962L272.773 304.293L272.807 304.588L273.758 312.878L273.852 313.684L275.714 330.048L275.842 331.155L276.793 339.457L278.665 355.843L278.87 357.656L279.743 365.262L279.821 365.952L281.616 381.676L281.893 384.093L282.692 391.111L282.848 392.451L284.57 407.543L284.897 410.422L285.653 417.002L285.864 418.836L287.531 433.45L287.904 436.724L288.616 442.936L288.871 445.141L289.479 450.469Z" fill="#4E82E8"/>
<path d="M267.967 262.281L157.187 273.761L156.876 271.957L155.592 264.438L266.901 252.891L267.656 259.536L267.967 262.281Z" fill="#2E71D1"/>
<path d="M270.907 287.964L161.193 297.227L161.183 297.161L159.771 288.897L159.598 287.887L269.834 278.574L270.713 286.238L270.907 287.964Z" fill="#2E71D1"/>
<path d="M273.851 313.688L165.222 320.778L164.094 314.194L163.621 311.421L272.775 304.297L272.807 304.59L273.758 312.882L273.851 313.688Z" fill="#2E71D1"/>
<path d="M276.792 339.459L169.261 344.418L168.446 339.621L167.662 335.031L275.713 330.053L275.841 331.157L276.792 339.459Z" fill="#2E71D1"/>
<path d="M279.743 365.267L173.325 368.134L172.806 365.127L171.712 358.725L278.665 355.848L278.87 357.658L279.743 365.267Z" fill="#2E71D1"/>
<path d="M177.32 391.939L177.358 391.761L177.187 390.738L175.779 382.502L281.615 381.681L281.893 384.097L282.694 391.117L177.32 391.939Z" fill="#2E71D1"/>
<path d="M285.655 417.006L172.007 415.728L172.124 415.194L174.108 406.304L284.572 407.548L284.899 410.427L285.655 417.006Z" fill="#2E71D1"/>
<path d="M288.617 442.939L166.749 439.238L166.823 438.915L168.844 429.852L287.532 433.454L287.905 436.726L288.617 442.939Z" fill="#2E71D1"/>
<path d="M253.849 133.134C253.849 133.134 263.251 138.121 261.596 154.266C259.943 170.413 253.978 172.688 253.978 172.688C253.978 172.688 241.344 138.495 253.849 133.134Z" fill="#32324C"/>
<path d="M226.572 211.737L226.753 231.892L226.837 241.129C217.165 255.729 197.028 239.915 197.028 239.915L192.566 208.531C197.684 204.576 211.409 208.398 219.849 210.158C223.826 210.99 226.572 211.737 226.572 211.737Z" fill="#FFAF82"/>
<path d="M226.571 211.737L226.753 231.892C212.964 229.637 200.363 211.554 200.363 211.554L219.848 210.158C223.826 210.99 226.571 211.737 226.571 211.737Z" fill="#F88968"/>
<path d="M260.49 180.257C260.45 181.71 260.407 183.165 260.343 184.613C260.293 185.863 260.241 187.109 260.185 188.349C260.129 189.42 260.072 190.485 260.01 191.545C259.93 193.027 259.84 194.498 259.751 195.935C259.729 196.312 259.701 196.691 259.677 197.062C259.587 198.386 259.497 199.688 259.4 200.962C259.31 202.106 259.147 203.227 258.909 204.315C258.166 207.73 256.688 210.847 254.683 213.512C249.824 219.988 241.783 223.848 233.102 222.941C226.006 222.197 218.149 221.21 210.784 219.896C210.417 219.834 210.062 219.779 209.702 219.711C203.796 218.634 198.238 217.35 193.674 215.817C193.026 215.061 192.394 214.278 191.792 213.49C186.51 206.604 182.989 198.651 180.553 190.293C179.584 186.962 178.779 183.564 178.113 180.143C178.057 179.862 177.977 179.607 177.893 179.347C177.594 176.169 177.329 173.001 177.094 169.941C175.357 147.352 192.649 127.807 215.276 126.81C233.176 126.021 250.793 131.302 255.957 140.067C258.184 143.837 259.446 150.34 260.076 158.09C260.131 158.778 260.189 159.472 260.227 160.182C260.636 166.41 260.666 173.32 260.49 180.257Z" fill="#FFAF82"/>
<path d="M242.287 202.582C238.645 202.582 235.488 201.978 233.895 201.253C233.188 200.93 232.875 200.094 233.198 199.386C233.519 198.679 234.354 198.366 235.064 198.689C237.695 199.887 245.838 200.676 252.023 197.915C252.734 197.598 253.566 197.917 253.883 198.627C254.2 199.337 253.881 200.17 253.171 200.487C249.722 202.028 245.78 202.582 242.287 202.582Z" fill="#F88968"/>
<path d="M242.409 207.1C238.922 207.1 236.455 205.96 236.298 205.884C235.735 205.617 235.496 204.945 235.761 204.383C236.029 203.82 236.698 203.581 237.261 203.846C237.313 203.87 242.502 206.233 248.147 203.551C248.709 203.284 249.381 203.523 249.648 204.086C249.915 204.648 249.676 205.32 249.114 205.587C246.707 206.731 244.392 207.1 242.409 207.1Z" fill="#F88968"/>
<path d="M191.794 213.494C186.513 206.606 182.994 198.649 180.558 190.293C183.09 190.083 186.465 190.534 190.951 192.113C190.951 192.113 193.12 204.562 191.794 213.494Z" fill="#32324C"/>
<path d="M228.014 172.251C228.267 174.905 227.292 177.17 225.833 177.31C224.373 177.449 222.986 175.411 222.732 172.756C222.479 170.102 223.454 167.837 224.914 167.698C226.373 167.558 227.761 169.596 228.014 172.251Z" fill="#32324C"/>
<path d="M254.399 169.727C254.652 172.381 253.677 174.646 252.217 174.786C250.76 174.925 249.372 172.888 249.117 170.232C248.864 167.578 249.839 165.313 251.298 165.174C252.758 165.034 254.145 167.074 254.399 169.727Z" fill="#32324C"/>
<path d="M177.267 172.124C177.267 172.124 185.204 165.802 193.277 174.961L198.822 174.433C198.822 174.433 197.414 163.068 199.519 156.635C201.619 150.201 212.248 149.339 213.137 141.903C213.137 141.903 245.182 159.392 254.505 142.523C254.505 142.523 254.505 142.523 254.511 142.517C254.714 142.202 264.434 132.371 263.152 123.59C260.899 108.164 251.762 102.456 236.545 107C228.959 109.265 222.822 112.24 219.074 114.293C214.891 116.582 210.663 118.777 206.376 120.867C206.284 120.911 206.236 120.936 206.236 120.936C201.846 122.085 197.663 123.891 193.949 126.463C175.662 139.115 171.384 153.116 177.267 172.124Z" fill="#32324C"/>
<path d="M215.034 167.189C215.034 167.189 217.076 161.724 221.829 159.952C226.231 158.309 229.569 159.166 231.269 159.894C232.011 160.211 232.398 161.035 232.188 161.814C231.941 162.737 230.964 163.252 230.063 162.935C227.208 161.922 221.033 160.859 215.034 167.189Z" fill="#32324C"/>
<path d="M260.076 158.091C260.128 158.777 260.182 159.475 260.232 160.181C255.08 158.269 250.959 159.918 248.889 161.132C248.678 161.255 248.447 161.327 248.213 161.349C247.562 161.411 246.896 161.072 246.591 160.436C246.24 159.708 246.463 158.831 247.129 158.376C248.66 157.34 251.774 155.866 256.41 156.644C257.785 156.879 259.02 157.419 260.076 158.091Z" fill="#32324C"/>
<path d="M193.274 174.961C193.274 174.961 183.801 165.489 177.266 172.126C170.064 179.441 178.191 201.131 194.053 199.106L193.274 174.961Z" fill="#FFAF82"/>
<path d="M193.984 194.236C193.282 194.304 192.626 193.836 192.477 193.13C190.104 181.991 183.26 180.896 182.966 180.856C182.203 180.749 181.663 180.043 181.764 179.277C181.866 178.512 182.558 177.969 183.327 178.067C183.698 178.113 192.417 179.349 195.228 192.546C195.39 193.305 194.905 194.053 194.145 194.214C194.092 194.224 194.038 194.232 193.984 194.236Z" fill="#F88968"/>
<path d="M184.363 187.959C184.034 187.99 183.689 187.905 183.402 187.695C182.774 187.237 182.637 186.358 183.095 185.73C183.199 185.588 185.677 182.28 190.368 182.853C191.14 182.946 191.688 183.648 191.594 184.42C191.501 185.189 190.799 185.738 190.029 185.646C186.947 185.271 185.384 187.368 185.368 187.388C185.121 187.725 184.75 187.921 184.363 187.959Z" fill="#F88968"/>
<path d="M240.96 170.399C240.208 170.595 239.758 171.362 239.951 172.114L241.877 179.526C242.019 180.067 242.465 180.474 243.015 180.561L246.331 181.09L242.924 184.248C242.403 184.73 242.262 185.534 242.663 186.118C242.972 186.568 243.476 186.774 243.96 186.728C244.258 186.7 244.547 186.576 244.782 186.359L250.317 181.231C250.63 180.94 250.833 180.531 250.813 180.105C250.781 179.415 250.277 178.873 249.629 178.767L244.367 177.928L242.673 171.404C242.481 170.654 241.714 170.204 240.96 170.399Z" fill="#F88968"/>
<path d="M265.957 244.638C265.957 244.638 287.063 254.27 297.739 270.194L269.592 276.45L265.957 244.638Z" fill="#2E71D1"/>
<path d="M244.01 190.243C227.402 188.42 216.724 200.951 214.168 204.328C213.971 204.183 213.747 204.047 213.56 203.898C203.539 196.009 198.82 174.43 198.82 174.43L193.275 174.959C196.222 214.965 220.012 234.893 243.307 230.01C259.956 226.521 259.402 200.959 259.402 200.959C249.1 212.925 232.273 212.648 220.845 207.997C226.421 197.185 236.829 196.571 244.433 195.161C250.554 194.029 257.277 196.176 259.677 197.061C259.699 196.69 259.727 196.312 259.751 195.935C259.841 194.497 259.93 193.026 260.01 191.545C254.466 187.212 244.01 190.243 244.01 190.243Z" fill="#32324C"/>
<path d="M494.987 475.632L438.847 488.645C437.505 482.835 435.336 477.44 432.501 472.525C432.439 472.412 432.377 472.306 432.315 472.198C419.641 450.494 393.912 438.558 368.135 444.527C364.562 445.351 361.169 446.489 357.935 447.897C356.092 448.696 354.3 449.587 352.57 450.562C330.313 463.069 317.96 489.145 324.013 515.267L256.427 530.918L256.467 531.138L256.387 531.15L203.072 291.208L270.798 276.183L385.889 250.595L442.196 238.084L457.178 305.511C455.965 305.702 454.755 305.922 453.553 306.193C421.755 313.261 401.707 344.73 408.775 376.528C415.843 408.297 447.312 428.344 479.111 421.276C480.305 421.005 481.517 420.684 482.696 420.357L494.987 475.632Z" fill="#E9A038"/>
<path d="M352.57 450.564C330.313 463.071 317.96 489.147 324.013 515.269L256.427 530.92L256.467 531.139L256.387 531.151L203.072 291.209C203.072 291.209 236.182 400.004 352.57 450.564Z" fill="#CC8B30"/>
<path d="M494.987 475.632L438.847 488.645C437.505 482.835 435.336 477.44 432.501 472.525C451.788 475.153 472.579 476.309 494.987 475.632Z" fill="#CC8B30"/>
<path d="M334.035 256.394C330.636 257.217 326.086 258.74 324.95 261.173C323.782 263.677 326.686 263.796 326.686 263.796C329.181 263.33 331.182 262.823 332.787 262.299C333.13 260.311 333.537 258.343 334.035 256.394Z" fill="#F88968"/>
<path d="M341.821 277.369C340.786 274.386 340.381 269.442 340.236 265.149C338.95 273.343 334.376 278.216 332.584 274.29C330.287 269.262 332.839 256.235 332.839 256.235C333.018 255.067 333.515 253.851 334.452 252.612C338.627 247.086 351.714 243.964 360.153 244.761C360.163 244.761 360.175 244.763 360.187 244.763C362.147 244.952 363.748 246.388 364.24 248.296C364.623 249.777 364.9 251.392 365.086 253.053C366.156 262.517 364.294 273.503 362.101 270.04C360.438 267.406 358.935 262.779 357.822 258.673C358.57 267.015 355.869 276.306 353.636 272.773C351.977 270.149 350.479 265.544 349.367 261.449C349.205 270.53 343.366 281.821 341.821 277.369Z" fill="#FFAF82"/>
<path d="M220.378 367.381C220.378 367.381 215.233 366.441 207.768 364.456L207.244 364.314C195.411 361.128 178.069 355.398 166.029 346.697C166.029 346.697 166.089 344.937 166.137 341.916C166.246 333.87 166.697 316.835 165.413 300.273H135.76C135.792 305.385 136.033 311.115 136.537 317.541C137.981 335.849 137.989 350.472 141.233 359.314C143.793 366.298 149.287 371.793 156.254 374.403C167.478 378.631 186.365 384.541 206.203 385.575C206.992 385.617 207.782 385.649 208.571 385.671C213.053 385.821 217.575 385.707 222.053 385.253L220.378 367.381Z" fill="#FFAF82"/>
<path d="M215.142 345.543C215.142 345.543 213.384 342.752 211.037 345.079C207.851 348.235 212.439 359.173 212.439 359.173C212.439 359.173 219.822 361.99 215.142 345.543Z" fill="#F88968"/>
<path d="M233.994 355.333C230.794 355.49 225.989 356.981 221.896 358.475C229.12 354.158 231.969 348.01 227.596 347.81C221.996 347.555 210.705 354.894 210.705 354.894C209.673 355.506 208.718 356.435 207.908 357.785C204.291 363.808 206.315 377.304 210.265 384.942C210.271 384.952 210.275 384.962 210.281 384.972C211.202 386.744 213.16 387.705 215.139 387.446C216.679 387.245 218.303 386.894 219.936 386.437C229.247 383.857 238.877 377.94 234.788 377.19C231.68 376.624 226.755 376.965 222.472 377.473C230.603 375.015 238.321 368.952 234.152 368.19C231.053 367.624 226.153 367.961 221.878 368.467C230.358 364.873 238.769 355.097 233.994 355.333Z" fill="#FFAF82"/>
<path d="M166.136 341.915C166.088 344.936 166.028 346.696 166.028 346.696C166.028 346.696 158.434 350.965 154.781 356.122C154.781 356.122 155.188 347.364 166.136 341.915Z" fill="#F88968"/>
<path d="M153.437 251.839C153.437 251.839 135.763 255.622 132.844 315.207C132.844 315.207 156.232 319.433 169.758 309.57C169.758 309.57 172.902 260.612 153.437 251.839Z" fill="#2E71D1"/>
<path d="M841.002 496.75C839.58 551.105 831.928 703.671 836.891 774.531H813.299C813.299 774.531 790.422 579.496 781.728 494.886L841.002 496.75Z" fill="#162D47"/>
<path d="M769.803 771.409L747.176 767.184C740.413 719.798 720.484 563.861 716.921 492.212L774.197 496.75C772.879 520.691 772.467 678.137 769.803 771.409Z" fill="#162D47"/>
<path d="M838.643 446.974C838.643 446.974 841.203 466.542 841.002 496.75C841.002 496.75 777.698 507.4 716.921 492.212C716.921 492.212 715.254 472.751 720.418 445.122L838.643 446.974Z" fill="#162D47"/>
<path d="M798.189 809.99C798.763 821.456 834.614 817.506 840.346 814.067C842.559 812.737 843.489 810.173 843.66 807.073C843.941 802.124 842.312 795.794 840.903 790.836C838.61 782.757 838.925 782.907 837.33 777.386C837.33 777.386 837.742 768.408 825.995 764.979C814.248 761.544 809.942 783.905 807.934 788.206C806.1 792.146 798.962 797.535 798.222 807.23C798.155 808.108 798.143 809.031 798.189 809.99Z" fill="#4E82E8"/>
<path d="M832.375 784.639L833.314 783.198C832.877 782.913 822.51 776.265 813.488 780.223L814.18 781.798C822.359 778.211 832.275 784.573 832.375 784.639Z" fill="white"/>
<path d="M831.351 794.618L832.29 793.176C831.853 792.891 821.486 786.244 812.464 790.199L813.156 791.775C821.336 788.188 831.251 794.552 831.351 794.618Z" fill="white"/>
<path d="M831.862 789.627L832.801 788.186C832.365 787.901 821.997 781.254 812.976 785.209L813.665 786.784C821.848 783.198 831.765 789.564 831.862 789.627Z" fill="white"/>
<path d="M831.014 784.188C831.014 785.257 831.879 786.124 832.948 786.124C834.016 786.124 834.884 785.257 834.884 784.188C834.884 783.12 834.016 782.252 832.948 782.252C831.879 782.252 831.014 783.12 831.014 784.188Z" fill="white"/>
<path d="M830.909 788.916C830.909 789.985 831.774 790.85 832.843 790.85C833.912 790.85 834.779 789.983 834.779 788.916C834.779 787.847 833.912 786.98 832.843 786.98C831.774 786.982 830.909 787.847 830.909 788.916Z" fill="white"/>
<path d="M829.887 793.645C829.887 794.714 830.754 795.579 831.823 795.579C832.891 795.579 833.757 794.714 833.757 793.645C833.757 792.576 832.889 791.709 831.823 791.709C830.754 791.709 829.887 792.576 829.887 793.645Z" fill="white"/>
<path d="M810.877 790.851C810.877 791.92 811.744 792.787 812.813 792.787C813.882 792.787 814.749 791.92 814.749 790.851C814.749 789.783 813.884 788.917 812.813 788.917C811.744 788.915 810.877 789.783 810.877 790.851Z" fill="white"/>
<path d="M811.389 785.69C811.389 786.758 812.256 787.626 813.323 787.626C814.391 787.626 815.258 786.758 815.258 785.69C815.258 784.621 814.391 783.756 813.323 783.756C812.254 783.756 811.389 784.623 811.389 785.69Z" fill="white"/>
<path d="M813.835 782.466C814.905 782.466 815.771 781.599 815.771 780.53C815.771 779.461 814.905 778.594 813.835 778.594C812.766 778.594 811.899 779.461 811.899 780.53C811.899 781.599 812.766 782.466 813.835 782.466Z" fill="white"/>
<path d="M798.189 809.99C798.763 821.456 834.614 817.506 840.346 814.067C842.56 812.737 843.489 810.173 843.66 807.073C839.894 809.222 833.255 811.9 823.34 812.077C811.18 812.294 802.407 809.834 798.221 807.226C798.155 808.108 798.143 809.031 798.189 809.99Z" fill="white"/>
<path d="M820.927 768.516C820.927 768.516 826.377 767.942 831.013 770.524L830.487 774.154C830.487 774.154 823.989 772.244 819.688 772.529C819.688 772.529 819.774 770.141 820.927 768.516Z" fill="white"/>
<path d="M701.36 812.077H766.438C769.518 812.077 772.022 809.78 772.411 806.857C772.465 806.445 772.483 806.02 772.447 805.589L769.803 771.409C769.803 771.409 767.094 770.158 763.303 769.261C761.054 768.729 759.16 767.096 758.479 764.885C758.431 764.724 758.389 764.556 758.347 764.389C756.852 757.811 747.367 755.718 745.617 762.146C745.39 762.977 745.192 763.784 745.025 764.562C744.983 764.753 744.941 764.951 744.905 765.136C744.624 766.518 744.421 767.79 744.277 768.902C744.271 768.926 744.271 768.95 744.265 768.974C743.912 771.809 743.942 773.62 743.942 773.62C743.081 774.714 742.249 775.791 741.442 776.85C741.029 777.376 740.634 777.902 740.24 778.417C739.384 779.529 738.553 780.612 737.734 781.652C737.357 782.143 736.98 782.615 736.603 783.082C735.7 784.212 734.809 785.283 733.918 786.282C733.517 786.737 733.116 787.179 732.703 787.604C729.348 791.133 725.965 793.541 721.963 794.097C714.907 795.066 703.377 795.844 697.811 806.202C697.691 806.417 697.601 806.638 697.53 806.859C696.712 809.356 698.59 812.077 701.36 812.077Z" fill="#4E82E8"/>
<path d="M701.359 812.075H766.437C769.518 812.075 772.022 809.778 772.411 806.855H697.531C696.712 809.355 698.59 812.075 701.359 812.075Z" fill="white"/>
<path d="M740.238 778.417C740.992 779.523 742.529 780.863 745.625 782.101C746.152 782.316 746.726 782.526 747.348 782.729L747.91 781.031C747.294 780.827 746.738 780.624 746.235 780.42C742.677 778.985 741.702 777.573 741.438 776.85C741.028 777.376 740.633 777.902 740.238 778.417Z" fill="white"/>
<path d="M745.614 781.88C745.614 782.994 746.517 783.898 747.632 783.898C748.746 783.898 749.65 782.994 749.65 781.88C749.65 780.765 748.746 779.862 747.632 779.862C746.517 779.86 745.614 780.765 745.614 781.88Z" fill="white"/>
<path d="M736.604 783.082C737.447 783.973 738.823 784.96 741.058 785.887C741.68 786.156 742.361 786.407 743.121 786.659L743.683 784.954C742.978 784.721 742.344 784.488 741.781 784.254C739.502 783.309 738.33 782.376 737.734 781.652C737.357 782.143 736.98 782.615 736.604 783.082Z" fill="white"/>
<path d="M743.072 787.825C744.187 787.825 745.09 786.922 745.09 785.808C745.09 784.693 744.187 783.79 743.072 783.79C741.958 783.79 741.055 784.693 741.055 785.808C741.055 786.922 741.958 787.825 743.072 787.825Z" fill="white"/>
<path d="M732.704 787.602C733.547 788.463 734.893 789.397 737.021 790.288C737.649 790.557 738.342 790.82 739.114 791.071L739.67 789.367C738.958 789.133 738.324 788.894 737.756 788.655C735.717 787.806 734.562 786.962 733.916 786.28C733.518 786.735 733.117 787.177 732.704 787.602Z" fill="white"/>
<path d="M737.019 790.216C737.019 791.33 737.922 792.234 739.036 792.234C740.151 792.234 741.054 791.33 741.054 790.216C741.054 789.101 740.151 788.198 739.036 788.198C737.924 788.198 737.019 789.101 737.019 790.216Z" fill="white"/>
<path d="M744.275 768.902C747.254 768.86 750.075 769.231 750.075 769.231L750.039 765.971C748.263 765.313 746.447 765.128 744.903 765.134C744.622 766.516 744.419 767.79 744.275 768.902Z" fill="white"/>
<path d="M799.287 208.445C799.287 208.445 827.728 208.693 840.651 220.462C853.575 232.231 841.112 256.002 827.036 259.001C812.958 262.001 769.064 256.636 764.524 249.092C759.982 241.55 762.999 208.892 799.287 208.445Z" fill="#8028CA"/>
<path d="M714.876 456.066C718.01 461.344 728.709 465.375 737.91 467.612C738.544 467.77 739.17 467.913 739.784 468.051C741.389 468.408 742.918 468.703 744.334 468.94C759.432 471.46 774.633 472.575 789.913 472.551C792.746 472.545 795.748 472.343 798.831 471.954C799.451 471.879 800.079 471.791 800.705 471.703C816.607 469.365 834.282 462.44 843.138 453.558L830.2 395.682L854.807 251.755L821.769 240.448L819.996 239.84L812.582 237.302L806.696 235.291L771.754 239.972L766.069 240.729L764.064 240.999L739.068 244.346L714.876 456.066Z" fill="#8028CA"/>
<path d="M739.068 244.375C739.068 244.375 710.782 276.438 710.974 331.324L728.935 333.043L739.068 244.375Z" fill="#6117A7"/>
<path d="M796.728 259.236C821.752 259.236 827.639 237.203 827.697 236.98C827.822 236.488 827.523 235.985 827.031 235.858C826.538 235.734 826.034 236.029 825.908 236.524C825.689 237.381 820.284 257.388 796.736 257.388C796.602 257.388 796.477 257.36 796.339 257.386C795.833 257.386 795.42 257.793 795.416 258.301C795.412 258.812 795.821 259.228 796.331 259.232C796.463 259.234 796.598 259.236 796.728 259.236Z" fill="#6117A7"/>
<path d="M773.23 255.695C773.733 255.695 774.143 255.292 774.153 254.79C774.163 254.282 773.759 253.861 773.25 253.849C772.919 253.839 765.648 253.52 763.804 243.677C763.71 243.177 763.226 242.848 762.727 242.941C762.227 243.035 761.896 243.517 761.99 244.018C764.123 255.394 773.125 255.693 773.214 255.695C773.22 255.695 773.226 255.695 773.23 255.695Z" fill="#6117A7"/>
<path d="M799.552 399.554C799.552 399.554 799.693 419.175 804.14 437.198C804.14 437.198 757.639 444.742 731.332 430.433C731.332 430.433 728.527 413.237 731.874 393.83L799.552 399.554Z" fill="#6117A7"/>
<path d="M791.321 347.677C791.347 347.677 791.373 347.677 791.399 347.673C791.896 347.631 792.262 347.195 792.219 346.698C790.233 323.687 799.063 265.647 799.153 265.062C799.229 264.57 798.89 264.111 798.399 264.036C797.913 263.962 797.448 264.297 797.372 264.789C797.283 265.375 788.419 323.629 790.424 346.852C790.464 347.322 790.859 347.677 791.321 347.677Z" fill="white"/>
<path d="M760.901 343.061C760.927 343.061 760.953 343.061 760.978 343.057C761.475 343.015 761.842 342.579 761.798 342.082C759.812 319.072 768.935 260.578 769.027 259.99C769.105 259.497 768.768 259.037 768.278 258.959C767.787 258.879 767.325 259.218 767.247 259.709C767.153 260.299 757.998 319.011 760.001 342.236C760.045 342.706 760.438 343.061 760.901 343.061Z" fill="white"/>
<path d="M742.951 143.063C742.951 143.063 734.376 148.718 737.448 164.078C740.52 179.439 746.46 181.076 746.46 181.076C746.46 181.076 755.457 147.065 742.951 143.063Z" fill="#162D47"/>
<path d="M776.382 216.077L778.059 235.459L778.826 244.341C790.26 252.274 808.098 240.331 808.098 240.331L808.758 209.871C803.479 206.541 790.641 211.474 782.694 213.94C778.95 215.106 776.382 216.077 776.382 216.077Z" fill="#FFAF82"/>
<path d="M776.382 216.078L778.059 235.459C791.1 232.024 801.543 213.492 801.543 213.492L782.694 213.94C778.95 215.107 776.382 216.078 776.382 216.078Z" fill="#F88968"/>
<path d="M739.262 167.612C739.272 168.282 739.28 168.952 739.308 169.639C739.489 175.657 740.096 182.3 740.901 188.951C741.073 190.344 741.254 191.738 741.443 193.122C741.607 194.316 741.768 195.51 741.942 196.697C742.305 199.159 742.675 201.591 743.054 203.946C743.317 205.585 743.579 207.186 743.85 208.743C744.039 209.837 744.302 210.896 744.627 211.919C745.658 215.131 747.361 217.992 749.532 220.37C754.8 226.144 762.88 229.111 771.132 227.446C777.883 226.08 785.34 224.406 792.298 222.47C792.643 222.38 792.976 222.288 793.321 222.189C798.895 220.614 804.117 218.867 808.362 216.977C808.914 216.189 809.448 215.384 809.955 214.571C814.397 207.467 817.048 199.504 818.623 191.25C819.247 187.956 819.708 184.616 820.035 181.269C820.063 180.998 820.117 180.745 820.171 180.491C820.167 177.409 820.133 174.339 820.077 171.378C819.67 149.516 801.26 132.324 779.424 133.445C762.156 134.332 745.712 141.023 741.559 149.921C739.769 153.747 739.153 160.109 739.262 167.612Z" fill="#FFAF82"/>
<path d="M809.957 214.569C814.399 207.465 817.049 199.496 818.62 191.244C816.168 191.274 812.968 192.018 808.801 193.948C808.801 193.948 807.862 206.11 809.957 214.569Z" fill="#162D47"/>
<path d="M772.273 178.67C772.273 181.244 773.42 183.329 774.833 183.329C776.247 183.329 777.393 181.244 777.393 178.67C777.393 176.096 776.247 174.01 774.833 174.01C773.42 174.01 772.273 176.096 772.273 178.67Z" fill="#162D47"/>
<path d="M745.897 178.67C745.897 181.244 747.044 183.329 748.457 183.329C749.871 183.329 751.017 181.244 751.017 178.67C751.017 176.096 749.871 174.01 748.457 174.01C747.044 174.01 745.897 176.096 745.897 178.67Z" fill="#162D47"/>
<path d="M820.114 173.487C820.114 173.487 811.908 168.144 804.996 177.682H799.618C799.618 177.682 799.925 166.639 797.316 160.648C794.704 154.656 784.412 154.81 782.877 147.744C782.877 147.744 757.684 159.874 743.191 152.14C710.432 134.661 779.278 112.245 804.487 126.351C823.21 136.83 824.02 154.682 820.114 173.487Z" fill="#162D47"/>
<path d="M783.372 172.215C783.372 172.215 780.909 167.153 776.178 165.887C771.798 164.715 768.67 165.843 767.103 166.698C766.419 167.071 766.124 167.897 766.395 168.626C766.716 169.492 767.703 169.896 768.54 169.508C771.192 168.273 777.026 166.684 783.372 172.215Z" fill="#162D47"/>
<path d="M739.261 167.614C739.273 168.278 739.285 168.953 739.305 169.635C744.08 167.325 748.189 168.529 750.29 169.506C750.505 169.603 750.733 169.653 750.96 169.653C751.594 169.653 752.2 169.266 752.435 168.626C752.705 167.895 752.411 167.071 751.728 166.697C750.161 165.843 747.034 164.713 742.652 165.885C741.35 166.238 740.214 166.872 739.261 167.614Z" fill="#162D47"/>
<path d="M804.993 177.682C804.993 177.682 813.223 167.71 820.112 173.487C827.702 179.854 821.888 201.44 806.463 200.951L804.993 177.682Z" fill="#FFAF82"/>
<path d="M806.082 196.268C806.762 196.268 807.35 195.757 807.43 195.065C808.686 184.146 815.162 182.465 815.439 182.399C816.163 182.224 816.617 181.498 816.45 180.772C816.28 180.046 815.567 179.59 814.837 179.753C814.486 179.831 806.222 181.819 804.733 194.756C804.647 195.502 805.181 196.174 805.927 196.26C805.979 196.266 806.031 196.268 806.082 196.268Z" fill="#F88968"/>
<path d="M814.75 189.352C815.069 189.352 815.392 189.239 815.649 189.01C816.209 188.511 816.261 187.654 815.764 187.094C815.653 186.968 812.965 184.015 808.513 184.996C807.78 185.158 807.317 185.881 807.478 186.613C807.64 187.345 808.364 187.805 809.095 187.646C812.022 187.002 813.717 188.874 813.733 188.892C814.002 189.197 814.375 189.352 814.75 189.352Z" fill="#F88968"/>
<path d="M763.895 216.596C769.268 216.596 772.434 213.611 772.604 213.448C773.142 212.926 773.156 212.066 772.636 211.528C772.115 210.99 771.26 210.976 770.72 211.492C770.528 211.671 766.385 215.47 759.477 213.103C758.771 212.862 757.998 213.239 757.754 213.948C757.511 214.658 757.89 215.43 758.6 215.673C760.542 216.337 762.314 216.596 763.895 216.596Z" fill="#F88968"/>
<path d="M763.29 178.671C763.29 172.612 768.219 167.682 774.28 167.682C780.339 167.682 785.269 172.612 785.269 178.671C785.269 184.73 780.339 189.661 774.28 189.661C768.221 189.661 763.29 184.73 763.29 178.671ZM765.1 178.671C765.1 183.733 769.219 187.85 774.28 187.85C779.342 187.85 783.459 183.731 783.459 178.671C783.459 173.609 779.34 169.492 774.28 169.492C769.217 169.492 765.1 173.609 765.1 178.671Z" fill="#162D47"/>
<path d="M734.67 178.671C734.67 172.612 739.6 167.681 745.659 167.681C751.718 167.681 756.649 172.612 756.649 178.671C756.649 184.73 751.718 189.66 745.659 189.66C739.6 189.66 734.67 184.73 734.67 178.671ZM736.478 178.671C736.478 183.733 740.597 187.85 745.658 187.85C750.718 187.85 754.837 183.731 754.837 178.671C754.837 173.609 750.72 169.491 745.658 169.491C740.595 169.491 736.478 173.609 736.478 178.671Z" fill="#162D47"/>
<path d="M804.619 173.37L783.896 174.977L784.036 176.782L804.759 175.175L804.619 173.37Z" fill="#162D47"/>
<path d="M763.791 177.849L764.84 176.374C763.091 175.128 758.797 173.531 755.061 176.392L756.161 177.827C759.758 175.074 763.628 177.736 763.791 177.849Z" fill="#162D47"/>
<path d="M757.373 193.648C757.782 193.648 758.187 193.464 758.454 193.113C758.909 192.517 758.795 191.666 758.199 191.211L754.58 188.45L757.716 187.636C758.239 187.501 758.629 187.07 758.715 186.538L760.099 177.897C760.217 177.157 759.712 176.461 758.972 176.342C758.235 176.218 757.535 176.727 757.417 177.466L756.175 185.23L751.197 186.52C750.694 186.651 750.31 187.056 750.208 187.567C750.104 188.075 750.302 188.599 750.714 188.914L756.552 193.368C756.795 193.556 757.086 193.648 757.373 193.648Z" fill="#F88968"/>
<path d="M759.502 209.732C764.616 209.732 771.071 208.372 776.548 202.973C777.079 202.451 777.085 201.596 776.562 201.065C776.04 200.535 775.184 200.529 774.654 201.051C765.046 210.522 751.563 205.844 751.429 205.797C750.727 205.543 749.956 205.91 749.704 206.612C749.453 207.314 749.818 208.085 750.52 208.337C750.823 208.446 754.529 209.732 759.502 209.732Z" fill="#F88968"/>
<path d="M802.741 311.429L788.494 369.029C780.328 366.082 771.396 364.885 762.163 365.839C744.213 367.687 728.939 377.303 719.347 390.992C711.316 402.36 707.241 416.567 708.774 431.485C711.119 454.253 725.964 472.751 745.814 480.832C750.278 482.64 755.001 483.932 759.916 484.614L746.982 536.92L683.354 521.179C683.635 520.025 683.878 518.909 684.075 517.82C684.177 517.262 684.273 516.703 684.357 516.151C684.424 515.695 684.486 515.244 684.536 514.803C688.065 487.12 670.378 460.591 642.621 453.733C612.769 446.344 582.56 464.581 575.171 494.441L521.489 481.157L531.855 439.282L534.903 426.969C533.749 426.756 532.614 426.512 531.476 426.241C501.594 418.858 483.385 388.649 490.746 358.797C498.134 328.938 528.342 310.727 558.196 318.088C559.335 318.381 560.473 318.702 561.566 319.051L577.256 255.692L577.336 255.708L802.741 311.429Z" fill="#E9A038"/>
<path d="M802.741 311.429L788.494 369.029C780.328 366.082 771.396 364.886 762.163 365.839C744.213 367.687 728.939 377.303 719.347 390.992C711.316 402.36 707.241 416.568 708.774 431.485C711.119 454.253 725.964 472.751 745.814 480.832C750.278 482.64 755.001 483.932 759.916 484.614L746.982 536.92L683.354 521.18C683.635 520.025 683.878 518.909 684.075 517.82C684.183 517.256 684.279 516.698 684.357 516.151C684.424 515.695 684.486 515.244 684.536 514.804C688.065 487.12 670.378 460.592 642.621 453.733C612.769 446.344 582.56 464.581 575.171 494.441L521.489 481.157L531.855 439.282C586.33 434.366 707.929 411.974 802.741 311.429Z" fill="#CC8B30"/>
<path d="M776.393 368.926C780.647 369.556 784.962 369.863 789.246 369.915C790 369.929 790.756 369.933 791.513 369.927C810.498 369.803 828.79 364.987 839.692 361.438C846.457 359.251 851.944 354.244 854.691 347.687C858.172 339.387 862.8 326.158 865.892 308.878C872.539 271.759 854.837 251.75 854.837 251.75C833.19 246.466 832.253 311.935 831.675 329.992C831.59 332.879 831.57 334.562 831.57 334.562C819.693 342.344 802.886 347.061 791.449 349.585L790.941 349.698C783.728 351.27 778.773 351.941 778.773 351.941L776.393 368.926Z" fill="#6117A7"/>
<path d="M778.771 351.939C778.771 351.939 776.595 348.117 773.812 340.342C771.031 332.566 766.9 330.612 766.712 333.501C766.525 336.39 766.748 342.597 766.748 342.597C766.748 342.597 748.697 335.373 741.49 337.191C734.884 338.858 749.552 344.371 749.552 344.371C749.552 344.371 736.934 341.717 735.171 344.253C733.198 347.094 743.942 350.649 747.933 352.424C747.933 352.424 739.187 351.556 736.535 354.146C733.883 356.738 745.772 359.603 745.772 359.603C745.772 359.603 738.381 359.197 737.059 362.111C735.738 365.024 761.094 369.349 776.39 368.928L778.771 351.939Z" fill="#FFAF82"/>
<path d="M699.551 282.934C698.353 280.244 692.898 278.601 689.601 277.838C689.74 279.668 689.886 281.5 690.059 283.329C691.79 284.092 694.234 284.828 697.667 285.46C697.667 285.46 700.64 285.382 699.551 282.934Z" fill="#F88968"/>
<path d="M682.913 298.337C683.97 295.464 684.448 290.679 684.663 286.52C685.766 294.487 690.114 299.288 691.921 295.516C694.235 290.683 691.992 278.011 691.992 278.011C691.839 276.874 691.378 275.688 690.493 274.47C686.544 269.039 673.913 265.783 665.719 266.407C665.709 266.407 665.697 266.409 665.687 266.409C663.785 266.559 662.208 267.922 661.697 269.761C661.301 271.19 661.004 272.751 660.794 274.356C659.59 283.512 661.203 294.194 663.388 290.875C665.047 288.35 666.584 283.89 667.734 279.933C666.863 288.006 669.317 297.059 671.544 293.674C673.199 291.16 674.731 286.722 675.881 282.772C675.877 291.576 681.338 302.626 682.913 298.337Z" fill="#FFAF82"/>
<path d="M139.654 526.432C118.026 527.405 117.239 528.192 116.266 549.82C115.293 528.192 114.505 527.405 92.8789 526.432C114.507 525.459 115.295 524.671 116.266 503.045C117.239 524.671 118.026 525.459 139.654 526.432Z" fill="#30486E"/>
<path d="M563.023 183.088C541.395 184.061 540.608 184.849 539.635 206.477C538.662 184.849 537.874 184.061 516.246 183.088C537.874 182.115 538.662 181.328 539.635 159.702C540.608 181.328 541.395 182.115 563.023 183.088Z" fill="#30486E"/>
<path d="M918.319 614.705C896.691 615.678 895.904 616.466 894.931 638.094C893.958 616.466 893.17 615.678 871.542 614.705C893.17 613.732 893.958 612.945 894.931 591.318C895.904 612.945 896.693 613.734 918.319 614.705Z" fill="#30486E"/>
<defs>
<linearGradient id="paint0_linear_59_7" x1="764.835" y1="-1026.64" x2="764.835" y2="1314.14" gradientUnits="userSpaceOnUse">
<stop stop-color="white"/>
<stop offset="1" stop-color="white" stop-opacity="0"/>
</linearGradient>
</defs>
</svg>
