<svg width="2156" height="2156" viewBox="0 0 2156 2156" fill="none" xmlns="http://www.w3.org/2000/svg">
<path d="M1078 2156C1673.36 2156 2156 1673.36 2156 1078C2156 482.637 1673.36 0 1078 0C482.637 0 0 482.637 0 1078C0 1673.36 482.637 2156 1078 2156Z" fill="#30486E"/>
<path opacity="0.3" d="M1511.97 634.355L1477.4 636.688C1473.43 621.259 1468.21 606.353 1461.74 592.144L1490.43 572.891C1498.26 567.638 1500.27 557.009 1494.93 549.146L1461.47 499.917C1456.11 492.036 1445.4 489.893 1437.55 495.133L1408.48 514.536C1397.44 503.223 1385.45 492.848 1372.62 483.556L1387.95 452.079C1392.08 443.592 1388.46 433.284 1379.86 429.054L1325.99 402.545C1317.36 398.298 1306.99 401.744 1302.84 410.247L1287.4 441.825C1272.3 437.432 1256.68 434.354 1240.69 432.577L1238 397.165C1237.28 387.658 1228.91 380.411 1219.31 380.977L1159.09 384.528C1149.44 385.097 1142.2 393.288 1142.93 402.822L1145.62 438.339C1129.94 442.046 1114.79 447.013 1100.34 453.234L1080.03 423.624C1074.56 415.639 1063.6 413.446 1055.55 418.728L1005.16 451.824C997.083 457.126 994.995 467.912 1000.5 475.909L1020.88 505.525C1009.3 516.46 998.73 528.389 989.254 541.154L956.649 525.404C947.821 521.139 937.208 524.667 932.946 533.288L906.27 587.261C901.998 595.902 905.715 606.353 914.567 610.602L946.933 626.136C942.516 641.305 939.491 657.013 937.817 673.086L901.981 675.503C892.172 676.165 884.805 684.498 885.535 694.116L890.099 754.259C890.829 763.876 899.377 771.112 909.184 770.422L944.727 767.92C948.735 783.693 954.063 798.908 960.678 813.405L931.437 832.921C923.319 838.34 921.218 849.193 926.75 857.157L961.297 906.91C966.815 914.857 977.851 916.893 985.943 911.462L1014.96 891.993C1026.34 903.522 1038.74 914.028 1051.97 923.412L1036.81 954.429C1032.57 963.098 1036.27 973.485 1045.06 977.624L1099.92 1003.47C1108.68 1007.59 1119.2 1003.91 1123.41 995.263L1138.37 964.537C1153.85 968.824 1169.86 971.716 1186.21 973.259L1188.79 1007.22C1189.51 1016.76 1197.92 1023.87 1207.55 1023.11L1267.67 1018.37C1277.27 1017.61 1284.45 1009.29 1283.73 999.785L1281.16 965.92C1296.98 961.903 1312.23 956.617 1326.72 950.052L1345.92 977.947C1351.31 985.792 1362.09 987.782 1369.99 982.395L1419.3 948.775C1427.17 943.409 1429.2 932.712 1423.82 924.88L1404.58 896.816C1415.97 885.694 1426.38 873.618 1435.65 860.705L1466.41 875.472C1474.98 879.581 1485.25 875.992 1489.36 867.458L1515.04 814.154C1519.14 805.639 1515.54 795.396 1507 791.271L1476.18 776.378C1480.37 761.346 1483.23 745.804 1484.75 729.907L1519.04 727.492C1528.48 726.828 1535.55 718.648 1534.83 709.222L1530.36 650.271C1529.64 640.844 1521.41 633.718 1511.97 634.355ZM1200.28 528.429C1297.19 522.274 1381.21 594.83 1388.46 690.456C1395.72 786.08 1323.53 869.407 1226.7 876.609C1129.29 883.856 1043.94 811.391 1036.6 714.716C1029.26 618.04 1102.79 534.621 1200.28 528.429Z" fill="#BFC8D6"/>
<path d="M985.78 627.215V1605.34L1648.82 1560.81C1663.87 1559.9 1675.56 1548.98 1675.56 1535.82V662.84C1675.56 649.278 1663.18 638.178 1647.63 637.796L985.78 627.215Z" fill="url(#paint0_linear_549_34994)"/>
<path d="M952.1 656.14V1576.42L1618.16 1534.21C1632.33 1533.35 1643.32 1523.08 1643.32 1510.69V689.346C1643.32 676.586 1631.67 666.143 1617.04 665.784L952.1 656.14Z" fill="url(#paint1_linear_549_34994)"/>
<path d="M1722.63 876.518H1649.01V691.404H1722.63C1723.87 691.404 1724.88 692.412 1724.88 693.655V874.269C1724.88 875.511 1723.87 876.518 1722.63 876.518Z" fill="url(#paint2_linear_549_34994)"/>
<path d="M944.514 654.956V1580.75C944.514 1594.9 956.345 1606.94 972.384 1609.11L1507.95 1681.53C1524.75 1683.42 1539.63 1672.01 1539.63 1657.24V634.947C1539.63 621.173 1526.61 610.109 1510.82 610.466L976.312 626.274C958.578 626.799 944.514 639.486 944.514 654.956Z" fill="url(#paint3_linear_549_34994)"/>
<path opacity="0.3" d="M1193.4 1396.15C1185.68 1288.04 1262.45 1262.23 1249.51 1136.09C1230.77 953.414 1057.98 892.448 1072.32 742.129C1076.8 695.202 1098.06 654.825 1123.54 621.92L976.311 626.275C958.578 626.8 944.514 639.486 944.514 654.957V1580.75C944.514 1594.9 956.345 1606.94 972.384 1609.11L1385 1664.9C1241.03 1561.17 1198.61 1469.14 1193.4 1396.15Z" fill="url(#paint4_linear_549_34994)"/>
<g opacity="0.8">
<path d="M691.988 1416.5C692.152 1416.58 692.33 1416.63 692.519 1416.65C693.439 1416.74 694.259 1416.06 694.349 1415.14C694.396 1414.66 699.245 1366.15 713.617 1315.81C726.794 1269.65 750.87 1212.45 790.742 1202.09C791.638 1201.86 792.175 1200.95 791.942 1200.05C791.71 1199.16 790.795 1198.62 789.9 1198.85C756.652 1207.49 729.899 1246.55 710.384 1314.93C695.935 1365.56 691.062 1414.33 691.015 1414.82C690.944 1415.55 691.354 1416.22 691.988 1416.5Z" fill="white"/>
</g>
<g opacity="0.8">
<path d="M887.449 1525.18C887.62 1525.13 887.785 1525.04 887.937 1524.93C888.678 1524.38 888.829 1523.33 888.275 1522.58C887.985 1522.2 858.885 1483.09 835.582 1436.2C814.216 1393.22 793.466 1334.73 815.947 1300.21C816.452 1299.44 816.233 1298.4 815.457 1297.89C814.682 1297.39 813.644 1297.61 813.14 1298.38C794.394 1327.17 800.942 1374.05 832.602 1437.74C856.041 1484.88 885.3 1524.2 885.593 1524.59C886.033 1525.18 886.786 1525.4 887.449 1525.18Z" fill="white"/>
<path d="M784.556 1505.14C785.242 1504.92 785.731 1504.27 785.716 1503.51C785.697 1502.58 784.931 1501.85 784.007 1501.87C777.304 1502.01 619.45 1505.71 585.636 1543.1C585.015 1543.78 585.069 1544.84 585.755 1545.46C586.441 1546.08 587.5 1546.03 588.12 1545.34C620.977 1509.02 782.45 1505.25 784.076 1505.22C784.244 1505.22 784.405 1505.19 784.556 1505.14Z" fill="white"/>
</g>
<path d="M1198.95 459.834C1248.65 879.909 1298.35 1295.6 1348.06 1706.91C1350.29 1725.35 1337.55 1741.66 1319.72 1743.18C1119.97 1762.12 920.212 1781.49 720.458 1801.27C684.825 1803 665.258 1783.09 662.965 1763.16C611.805 1319.15 560.646 870.49 509.487 417.185C507.193 396.826 524.44 379.327 560.072 381.066C760.81 395.379 961.548 409.502 1162.29 423.436C1180.23 424.622 1196.72 440.991 1198.95 459.834Z" fill="#AABBCC"/>
<path d="M1226.69 458.974C1276.71 880.88 1326.72 1298.35 1376.74 1711.38C1378.98 1729.88 1366.16 1746.28 1348.22 1747.81C1140.8 1765.38 933.386 1783.29 725.966 1801.55C707.038 1803.24 689.639 1788.24 687.332 1768.21C635.851 1322.17 584.37 871.43 532.888 415.975C530.58 395.531 544.301 379.835 563.356 381.127C772.17 395.056 980.984 408.816 1189.8 422.413C1207.86 423.615 1224.45 440.047 1226.69 458.974Z" fill="#D8DEE8"/>
<path d="M1214.64 527.997C1260.96 918.891 1307.29 1305.97 1353.62 1689.24C1355.71 1706.57 1343.73 1721.86 1326.97 1723.23C1131.91 1739.18 936.839 1755.44 741.773 1772C724.148 1773.51 707.946 1759.47 705.793 1740.86C658.192 1328.88 610.592 912.871 562.991 492.843C560.84 473.84 573.608 459.132 591.344 460.183C787.625 471.611 983.908 482.923 1180.19 494.11C1197.05 495.073 1212.55 510.341 1214.64 527.997Z" fill="#EAEDF3"/>
<path opacity="0.8" d="M1180.19 494.111C986.233 483.057 792.275 471.876 598.319 460.588C604.314 495.06 614.768 532.578 632.396 570.823C696.732 710.4 791.246 718.087 828.223 839.719C866.318 965.028 780.405 1004.25 822.377 1117.38C867.923 1240.15 979.624 1222.38 1038.66 1357.05C1089.55 1473.12 1024.04 1526.18 1076.66 1596.72C1134.33 1674.03 1241.03 1647.82 1351.78 1674.01C1306.06 1295.71 1260.35 913.718 1214.64 527.999C1212.55 510.342 1197.05 495.075 1180.19 494.111Z" fill="#F4F7FA"/>
<path d="M1223.88 1089.59L694.314 1090.68L686.866 1018.09H1212.84L1223.88 1089.59Z" fill="#AABBCC"/>
<path d="M1243.83 1219.1L707.531 1222.2L699.891 1148.49L1232.58 1146.52L1243.83 1219.1Z" fill="#AABBCC"/>
<path d="M1264.3 1351.97L721.103 1357.18L713.248 1278.57L1252.42 1274.6L1264.3 1351.97Z" fill="#AABBCC"/>
<path d="M1102.24 908.585L746.214 908.524L748.952 938.765H1105.18L1102.24 908.585Z" fill="#AABBCC"/>
<path d="M764.902 865.288L767.662 895.34L831.785 895.356L828.979 865.315L815.821 865.309L803.328 729.838L816.484 729.854L813.733 700.509L749.854 700.423L752.577 729.778L765.734 729.793L778.121 865.293L764.902 865.288Z" fill="#AABBCC"/>
<path d="M847.815 865.322L850.636 895.361L914.699 895.377L911.831 865.349L898.705 865.344L885.981 729.936L899.118 729.951L896.33 700.622L832.512 700.536L835.271 729.876L848.421 729.892L861.041 865.328L847.815 865.322Z" fill="#AABBCC"/>
<path d="M930.651 865.357L933.531 895.381L997.534 895.396L994.608 865.385L981.511 865.378L968.556 730.035L981.675 730.05L978.851 700.734L915.093 700.647L917.888 729.974L931.032 729.99L943.882 865.363L930.651 865.357Z" fill="#AABBCC"/>
<path d="M1013.41 865.392L1016.35 895.402L1080.29 895.418L1077.31 865.419L1064.24 865.413L1051.05 730.133L1064.15 730.148L1061.29 700.846L997.595 700.759L1000.43 730.072L1013.56 730.089L1026.65 865.397L1013.41 865.392Z" fill="#AABBCC"/>
<path d="M1077.91 658.372H1079.08L893.844 569.087L725.024 658.372H723.729L725.938 683.916L1080.37 684.139L1077.91 658.372ZM900.913 648.673C890.39 648.656 881.06 640.105 880.075 629.581C879.091 619.059 886.818 610.549 897.333 610.569C907.846 610.588 917.172 619.128 918.164 629.647C919.156 640.17 911.434 648.69 900.913 648.673Z" fill="#AABBCC"/>
<path d="M1236.46 1774.72C1238.1 1786.82 1230.91 1797.21 1220.47 1797.81L534.97 1838.2C522.871 1838.89 507.753 1827.73 506.114 1814.67L445.958 1335.14C444.34 1322.25 456.847 1310.73 468.942 1310.68L1152.25 1294.79C1162.7 1294.73 1172.55 1304.46 1174.17 1316.4L1236.46 1774.72Z" fill="url(#paint5_linear_549_34994)"/>
<path d="M1250.38 1775.58C1252.03 1787.75 1244.79 1798.2 1234.26 1798.8L539.97 1838.32C527.8 1839.01 516.47 1828.83 514.82 1815.69L454.264 1333.41C452.636 1320.44 461.28 1309.8 473.445 1309.74L1165.55 1292.75C1176.07 1292.69 1186 1302.47 1187.63 1314.49L1250.38 1775.58Z" fill="url(#paint6_linear_549_34994)"/>
<g opacity="0.7">
<path d="M711.633 1672.37L595.167 1676.24C589.936 1676.41 584.815 1672.26 583.792 1667L578.178 1638.16C577.153 1632.89 580.607 1628.46 585.849 1628.32L702.552 1625.06C707.654 1624.92 712.637 1629.05 713.632 1634.24L719.08 1662.65C720.074 1667.83 716.725 1672.2 711.633 1672.37Z" fill="#F4F7FA"/>
<path d="M862.789 1667.35L750.246 1671.09C745.193 1671.26 740.245 1667.17 739.257 1662L733.833 1633.65C732.843 1628.47 736.179 1624.12 741.243 1623.98L854.012 1620.83C858.942 1620.7 863.76 1624.76 864.721 1629.86L869.986 1657.79C870.947 1662.89 867.71 1667.19 862.789 1667.35Z" fill="#F4F7FA"/>
<path d="M1008.93 1662.5L900.113 1666.11C895.228 1666.27 890.446 1662.25 889.49 1657.17L884.248 1629.29C883.291 1624.2 886.516 1619.93 891.411 1619.79L1000.44 1616.75C1005.21 1616.62 1009.87 1620.61 1010.8 1625.63L1015.89 1653.1C1016.82 1658.11 1013.69 1662.34 1008.93 1662.5Z" fill="#F4F7FA"/>
<path d="M1150.29 1657.8L1045.02 1661.3C1040.3 1661.46 1035.67 1657.49 1034.75 1652.5L1029.68 1625.08C1028.75 1620.08 1031.87 1615.87 1036.61 1615.74L1142.08 1612.8C1146.69 1612.67 1151.2 1616.6 1152.1 1621.54L1157.03 1648.56C1157.93 1653.49 1154.9 1657.65 1150.29 1657.8Z" fill="#F4F7FA"/>
</g>
<path d="M640.867 1556.44L585.451 1558.06C575.333 1558.36 565.906 1549.65 564.522 1538.72L556.976 1479.16C555.595 1468.25 562.756 1459.17 572.873 1458.97L628.287 1457.9C638.272 1457.71 647.558 1466.4 648.941 1477.21L656.49 1536.22C657.875 1547.05 650.853 1556.15 640.867 1556.44Z" fill="url(#paint7_linear_549_34994)"/>
<path d="M636.253 1550.86L588.651 1552.22C579.297 1552.49 570.631 1544.49 569.349 1534.38L562.868 1483.24C561.589 1473.15 568.172 1464.79 577.526 1464.6L625.125 1463.66C634.373 1463.48 642.926 1471.47 644.206 1481.48L650.689 1532.2C651.97 1542.22 645.501 1550.6 636.253 1550.86ZM577.847 1467.14C569.793 1467.3 564.127 1474.5 565.229 1483.19L571.711 1534.31C572.814 1543.02 580.275 1549.91 588.329 1549.68L635.93 1548.33C643.895 1548.11 649.469 1540.9 648.365 1532.26L641.881 1481.53C640.779 1472.91 633.412 1466.02 625.447 1466.18L577.847 1467.14Z" fill="url(#paint8_linear_549_34994)"/>
<path d="M644.007 1489.05L565.012 1490.82L564.69 1488.28L643.685 1486.53L644.007 1489.05Z" fill="url(#paint9_linear_549_34994)"/>
<path d="M646.445 1508.12L567.45 1510.04L567.127 1507.5L646.123 1505.6L646.445 1508.12Z" fill="url(#paint10_linear_549_34994)"/>
<path d="M648.884 1527.2L569.887 1529.28L569.565 1526.73L648.562 1524.68L648.884 1527.2Z" fill="url(#paint11_linear_549_34994)"/>
<path d="M622.202 1540.78L600.128 1541.39C594.51 1541.54 589.278 1536.7 588.506 1530.62L582.844 1486.04C582.073 1479.98 586.044 1474.92 591.662 1474.8L613.735 1474.34C619.321 1474.22 624.518 1479.07 625.289 1485.11L630.952 1529.5C631.724 1535.55 627.789 1540.62 622.202 1540.78Z" fill="#FEC045"/>
<path d="M622.364 1542.04L600.29 1542.66C594.01 1542.83 588.193 1537.45 587.33 1530.65L581.667 1486.07C580.807 1479.29 585.22 1473.67 591.5 1473.53L613.574 1473.08C619.818 1472.95 625.594 1478.33 626.456 1485.09L632.119 1529.47C632.981 1536.23 628.608 1541.87 622.364 1542.04ZM591.823 1476.07C586.838 1476.17 583.336 1480.64 584.02 1486.02L589.682 1530.59C590.366 1535.98 594.983 1540.25 599.967 1540.12L622.041 1539.51C626.998 1539.38 630.471 1534.9 629.786 1529.53L624.123 1485.14C623.439 1479.78 618.853 1475.5 613.896 1475.6L591.823 1476.07Z" fill="url(#paint12_linear_549_34994)"/>
<path opacity="0.3" d="M759.86 1703.72C702.404 1713.88 665.074 1716.09 620.87 1703.01C559.831 1684.96 515.452 1646.64 490.464 1621.2L514.82 1815.17C516.47 1828.31 527.799 1838.49 539.97 1837.8L1234.26 1798.25C1244.78 1797.65 1252.03 1787.2 1250.38 1775.03L1240.42 1701.45C1130.49 1636.55 1049.73 1631.29 995.157 1639.41C928.809 1649.28 894.99 1679.83 759.86 1703.72Z" fill="url(#paint13_linear_549_34994)"/>
<path d="M758.143 1762.01L599.005 1770.04C595.949 1770.19 593.105 1767.61 592.686 1764.29L589.229 1737.01C588.809 1733.69 590.967 1730.87 594.023 1730.73L753.158 1723.33C756.116 1723.19 758.877 1725.74 759.296 1729L762.755 1755.82C763.174 1759.08 761.099 1761.86 758.143 1762.01Z" fill="url(#paint14_linear_549_34994)"/>
<path d="M1056.66 1747.76L850.904 1758.12C847.94 1758.27 845.167 1755.72 844.743 1752.46L841.248 1725.58C840.824 1722.32 842.904 1719.54 845.867 1719.41L1051.62 1709.85C1054.46 1709.72 1057.13 1712.22 1057.55 1715.41L1061.05 1741.7C1061.47 1744.89 1059.5 1747.62 1056.66 1747.76Z" fill="url(#paint15_linear_549_34994)"/>
<path opacity="0.3" d="M1134.59 1421.97C1138.88 1453.88 1116.64 1480.5 1085.09 1481.41C1053.73 1482.31 1025.05 1457.45 1020.86 1425.9C1016.67 1394.38 1038.47 1367.83 1069.73 1366.57C1101.19 1365.3 1130.3 1390.09 1134.59 1421.97Z" fill="url(#paint16_linear_549_34994)"/>
<g opacity="0.53">
<path d="M688.418 1510.86C685.25 1514.68 679.307 1514.89 675.138 1511.3C670.948 1507.7 670.169 1501.67 673.402 1497.86C676.618 1494.07 682.571 1493.94 686.695 1497.54C690.798 1501.12 691.568 1507.07 688.418 1510.86Z" fill="#F4F7FA"/>
<path d="M722.515 1547.14C721.638 1547.19 720.715 1546.89 719.954 1546.24C718.429 1544.92 718.137 1542.66 719.301 1541.2C736.489 1519.57 732.152 1486.17 709.518 1465.71C707.985 1464.32 707.692 1462.07 708.866 1460.68C710.036 1459.29 712.223 1459.3 713.747 1460.68C739.203 1483.83 744.098 1521.49 724.804 1545.95C724.226 1546.69 723.394 1547.08 722.515 1547.14Z" fill="#F4F7FA"/>
<path d="M711.44 1537.59C710.55 1537.63 709.614 1537.33 708.843 1536.66C707.298 1535.33 707.004 1533.06 708.186 1531.59C721.037 1515.67 717.828 1490.92 700.971 1475.86C699.419 1474.47 699.125 1472.2 700.315 1470.79C701.502 1469.39 703.717 1469.38 705.259 1470.76C725.028 1488.53 728.803 1517.63 713.763 1536.41C713.176 1537.14 712.331 1537.54 711.44 1537.59Z" fill="#F4F7FA"/>
<path d="M700.216 1527.91C699.313 1527.95 698.364 1527.64 697.583 1526.96C696.016 1525.61 695.72 1523.33 696.923 1521.86C705.261 1511.68 703.2 1495.77 692.304 1486.15C690.733 1484.76 690.438 1482.48 691.644 1481.05C692.848 1479.63 695.091 1479.6 696.652 1480.99C703.414 1486.99 707.728 1495.01 708.84 1503.59C709.953 1512.18 707.739 1520.39 702.574 1526.74C701.976 1527.48 701.119 1527.87 700.216 1527.91Z" fill="#F4F7FA"/>
</g>
<path d="M2103 1078C2103 1640.23 1647.23 2096 1085 2096C522.774 2096 67 1640.23 67 1078C67 515.774 522.774 60 1085 60C1647.23 60 2103 515.774 2103 1078Z" stroke="#F7A73C" stroke-width="14"/>
<defs>
<linearGradient id="paint0_linear_549_34994" x1="1802.51" y1="648.612" x2="1541.56" y2="890.774" gradientUnits="userSpaceOnUse">
<stop stop-color="#FFC444"/>
<stop offset="0.9964" stop-color="#F36F56"/>
</linearGradient>
<linearGradient id="paint1_linear_549_34994" x1="952.1" y1="1116.28" x2="1643.32" y2="1116.28" gradientUnits="userSpaceOnUse">
<stop stop-color="white"/>
<stop offset="0.9964" stop-color="#EBEFF2"/>
</linearGradient>
<linearGradient id="paint2_linear_549_34994" x1="1824.5" y1="655.678" x2="1560.52" y2="900.648" gradientUnits="userSpaceOnUse">
<stop stop-color="#FFC444"/>
<stop offset="0.9964" stop-color="#F36F56"/>
</linearGradient>
<linearGradient id="paint3_linear_549_34994" x1="1495.24" y1="905.303" x2="629.832" y2="1759.89" gradientUnits="userSpaceOnUse">
<stop stop-color="#FFC444"/>
<stop offset="0.9964" stop-color="#F36F56"/>
</linearGradient>
<linearGradient id="paint4_linear_549_34994" x1="1438.47" y1="884.203" x2="598.383" y2="1713.8" gradientUnits="userSpaceOnUse">
<stop stop-color="#FFC444"/>
<stop offset="0.9964" stop-color="#F36F56"/>
</linearGradient>
<linearGradient id="paint5_linear_549_34994" x1="1333.29" y1="1596.84" x2="410.829" y2="1637.06" gradientUnits="userSpaceOnUse">
<stop stop-color="#444B8C"/>
<stop offset="0.9964" stop-color="#26264F"/>
</linearGradient>
<linearGradient id="paint6_linear_549_34994" x1="518.722" y1="1565.58" x2="1724.82" y2="1447.09" gradientUnits="userSpaceOnUse">
<stop stop-color="#AA80F9"/>
<stop offset="0.9964" stop-color="#6165D7"/>
</linearGradient>
<linearGradient id="paint7_linear_549_34994" x1="401.153" y1="1407.59" x2="864.9" y2="1605.29" gradientUnits="userSpaceOnUse">
<stop stop-color="#F57E53"/>
<stop offset="0.0045" stop-color="#F58152"/>
<stop offset="0.042" stop-color="#F99A4D"/>
<stop offset="0.084" stop-color="#FCAD49"/>
<stop offset="0.1333" stop-color="#FEBA46"/>
<stop offset="0.1962" stop-color="#FFC244"/>
<stop offset="0.3183" stop-color="#FFC444"/>
<stop offset="0.455" stop-color="#FDB946"/>
<stop offset="0.6941" stop-color="#F99C4C"/>
<stop offset="0.9964" stop-color="#F36F56"/>
</linearGradient>
<linearGradient id="paint8_linear_549_34994" x1="565.887" y1="1508.9" x2="646.444" y2="1497.96" gradientUnits="userSpaceOnUse">
<stop stop-color="#FF9085"/>
<stop offset="1" stop-color="#FB6FBB"/>
</linearGradient>
<linearGradient id="paint9_linear_549_34994" x1="564.917" y1="1490.12" x2="642.737" y2="1479.55" gradientUnits="userSpaceOnUse">
<stop stop-color="#FF9085"/>
<stop offset="1" stop-color="#FB6FBB"/>
</linearGradient>
<linearGradient id="paint10_linear_549_34994" x1="567.344" y1="1509.27" x2="645.185" y2="1498.69" gradientUnits="userSpaceOnUse">
<stop stop-color="#FF9085"/>
<stop offset="1" stop-color="#FB6FBB"/>
</linearGradient>
<linearGradient id="paint11_linear_549_34994" x1="569.772" y1="1528.43" x2="647.634" y2="1517.85" gradientUnits="userSpaceOnUse">
<stop stop-color="#FF9085"/>
<stop offset="1" stop-color="#FB6FBB"/>
</linearGradient>
<linearGradient id="paint12_linear_549_34994" x1="584.31" y1="1508.43" x2="628.806" y2="1502.38" gradientUnits="userSpaceOnUse">
<stop stop-color="#FF9085"/>
<stop offset="1" stop-color="#FB6FBB"/>
</linearGradient>
<linearGradient id="paint13_linear_549_34994" x1="542.328" y1="1729.52" x2="1735.8" y2="1612.27" gradientUnits="userSpaceOnUse">
<stop stop-color="#AA80F9"/>
<stop offset="0.9964" stop-color="#6165D7"/>
</linearGradient>
<linearGradient id="paint14_linear_549_34994" x1="598.803" y1="1469.76" x2="633.671" y2="1673.1" gradientUnits="userSpaceOnUse">
<stop stop-color="#AA80F9"/>
<stop offset="0.9964" stop-color="#6165D7"/>
</linearGradient>
<linearGradient id="paint15_linear_549_34994" x1="862.701" y1="1416.65" x2="898.595" y2="1625.99" gradientUnits="userSpaceOnUse">
<stop stop-color="#AA80F9"/>
<stop offset="0.9964" stop-color="#6165D7"/>
</linearGradient>
<linearGradient id="paint16_linear_549_34994" x1="1022.04" y1="1432.23" x2="1130.54" y2="1404.47" gradientUnits="userSpaceOnUse">
<stop stop-color="#AA80F9"/>
<stop offset="0.9964" stop-color="#6165D7"/>
</linearGradient>
</defs>
</svg>
