<svg width="1080" height="1080" viewBox="0 0 1080 1080" fill="none" xmlns="http://www.w3.org/2000/svg">
<rect width="1080" height="1080" fill="white"/>
<path d="M159.433 128.538L166.938 99.3203H170.872L170.432 106.851L162.409 137H158.32L159.433 128.538ZM153.817 99.3203L159.899 128.305L160.442 137H156.095L147.374 99.3203H153.817ZM179.386 128.227L185.39 99.3203H191.859L183.138 137H178.791L179.386 128.227ZM172.398 99.3203L179.826 128.615L180.913 137H176.824L168.931 106.851L168.517 99.3203H172.398ZM202.211 97.25V137H196V97.25H202.211ZM201.124 121.964L199.105 121.938C199.123 120.006 199.39 118.221 199.908 116.582C200.443 114.943 201.184 113.519 202.133 112.312C203.099 111.087 204.255 110.146 205.601 109.491C206.947 108.818 208.439 108.481 210.078 108.481C211.458 108.481 212.701 108.671 213.805 109.051C214.926 109.43 215.892 110.043 216.703 110.888C217.514 111.716 218.126 112.803 218.541 114.149C218.972 115.477 219.188 117.099 219.188 119.014V137H212.925V118.962C212.925 117.617 212.726 116.547 212.33 115.753C211.95 114.96 211.389 114.39 210.647 114.045C209.906 113.683 209 113.502 207.93 113.502C206.809 113.502 205.817 113.726 204.954 114.175C204.109 114.623 203.401 115.236 202.832 116.012C202.263 116.789 201.831 117.686 201.538 118.704C201.262 119.722 201.124 120.808 201.124 121.964ZM241.288 131.384V118.031C241.288 117.03 241.107 116.167 240.745 115.443C240.382 114.718 239.83 114.158 239.088 113.761C238.364 113.364 237.449 113.166 236.345 113.166C235.327 113.166 234.447 113.338 233.706 113.683C232.964 114.028 232.386 114.494 231.972 115.081C231.558 115.667 231.351 116.331 231.351 117.073H225.14C225.14 115.969 225.407 114.899 225.942 113.864C226.477 112.829 227.253 111.906 228.271 111.095C229.289 110.284 230.505 109.646 231.92 109.18C233.335 108.714 234.922 108.481 236.682 108.481C238.786 108.481 240.65 108.835 242.271 109.542C243.91 110.25 245.196 111.319 246.127 112.751C247.076 114.166 247.551 115.943 247.551 118.083V130.53C247.551 131.807 247.637 132.954 247.81 133.972C247.999 134.973 248.267 135.844 248.612 136.586V137H242.22C241.926 136.327 241.694 135.473 241.521 134.438C241.366 133.386 241.288 132.368 241.288 131.384ZM242.194 119.972L242.246 123.828H237.769C236.613 123.828 235.595 123.94 234.715 124.164C233.835 124.371 233.102 124.682 232.515 125.096C231.929 125.51 231.489 126.01 231.195 126.597C230.902 127.183 230.755 127.847 230.755 128.589C230.755 129.331 230.928 130.013 231.273 130.634C231.618 131.238 232.118 131.712 232.774 132.057C233.447 132.402 234.258 132.575 235.207 132.575C236.483 132.575 237.596 132.316 238.545 131.798C239.511 131.264 240.27 130.617 240.822 129.857C241.374 129.081 241.668 128.348 241.702 127.658L243.721 130.427C243.514 131.134 243.16 131.893 242.66 132.704C242.159 133.515 241.504 134.291 240.693 135.033C239.899 135.758 238.942 136.353 237.82 136.819C236.716 137.285 235.439 137.518 233.99 137.518C232.161 137.518 230.531 137.155 229.099 136.431C227.667 135.689 226.546 134.697 225.735 133.455C224.924 132.195 224.519 130.772 224.519 129.185C224.519 127.701 224.795 126.39 225.347 125.251C225.916 124.095 226.744 123.129 227.831 122.353C228.935 121.576 230.281 120.99 231.868 120.593C233.455 120.179 235.267 119.972 237.303 119.972H242.194ZM266.908 108.999V113.554H251.122V108.999H266.908ZM255.677 102.141H261.914V129.262C261.914 130.125 262.034 130.789 262.276 131.255C262.535 131.703 262.888 132.005 263.337 132.161C263.785 132.316 264.312 132.394 264.916 132.394C265.347 132.394 265.761 132.368 266.158 132.316C266.555 132.264 266.874 132.212 267.115 132.161L267.141 136.922C266.624 137.078 266.02 137.216 265.33 137.336C264.657 137.457 263.88 137.518 263 137.518C261.569 137.518 260.3 137.267 259.196 136.767C258.092 136.25 257.229 135.413 256.608 134.257C255.987 133.101 255.677 131.565 255.677 129.65V102.141ZM291.597 108.999V137H285.334V108.999H291.597ZM284.92 101.649C284.92 100.701 285.23 99.9155 285.852 99.2944C286.49 98.6561 287.37 98.3369 288.491 98.3369C289.595 98.3369 290.467 98.6561 291.105 99.2944C291.743 99.9155 292.062 100.701 292.062 101.649C292.062 102.581 291.743 103.357 291.105 103.979C290.467 104.6 289.595 104.91 288.491 104.91C287.37 104.91 286.49 104.6 285.852 103.979C285.23 103.357 284.92 102.581 284.92 101.649ZM314.137 129.417C314.137 128.796 313.982 128.236 313.671 127.735C313.361 127.218 312.766 126.752 311.886 126.338C311.023 125.924 309.746 125.544 308.056 125.199C306.572 124.871 305.209 124.483 303.967 124.035C302.742 123.569 301.689 123.008 300.81 122.353C299.93 121.697 299.248 120.921 298.765 120.023C298.282 119.126 298.041 118.091 298.041 116.918C298.041 115.779 298.291 114.701 298.791 113.683C299.291 112.665 300.007 111.768 300.939 110.992C301.871 110.215 303.001 109.603 304.329 109.154C305.675 108.706 307.176 108.481 308.832 108.481C311.178 108.481 313.188 108.878 314.862 109.672C316.553 110.448 317.847 111.509 318.744 112.855C319.641 114.183 320.089 115.684 320.089 117.358H313.853C313.853 116.616 313.663 115.926 313.283 115.288C312.921 114.632 312.369 114.106 311.627 113.709C310.885 113.295 309.953 113.088 308.832 113.088C307.762 113.088 306.874 113.26 306.167 113.605C305.476 113.933 304.959 114.365 304.614 114.899C304.286 115.434 304.122 116.021 304.122 116.659C304.122 117.125 304.208 117.548 304.381 117.927C304.571 118.29 304.881 118.626 305.312 118.937C305.744 119.23 306.33 119.506 307.072 119.765C307.831 120.023 308.78 120.274 309.919 120.515C312.058 120.964 313.896 121.542 315.431 122.249C316.984 122.939 318.174 123.836 319.002 124.94C319.831 126.027 320.245 127.408 320.245 129.081C320.245 130.323 319.977 131.462 319.442 132.497C318.925 133.515 318.166 134.403 317.165 135.163C316.164 135.904 314.965 136.482 313.568 136.896C312.188 137.311 310.635 137.518 308.91 137.518C306.374 137.518 304.226 137.069 302.466 136.172C300.706 135.257 299.369 134.093 298.455 132.678C297.557 131.246 297.109 129.763 297.109 128.227H303.139C303.208 129.383 303.527 130.306 304.096 130.996C304.683 131.669 305.407 132.161 306.27 132.471C307.15 132.764 308.056 132.911 308.987 132.911C310.109 132.911 311.049 132.764 311.808 132.471C312.567 132.161 313.145 131.747 313.542 131.229C313.939 130.694 314.137 130.09 314.137 129.417ZM353.784 99.3203V137H347.34V99.3203H353.784ZM365.61 99.3203V104.496H335.617V99.3203H365.61ZM374.357 114.33V137H368.121V108.999H374.073L374.357 114.33ZM382.923 108.818L382.872 114.615C382.492 114.546 382.078 114.494 381.629 114.459C381.198 114.425 380.767 114.408 380.335 114.408C379.266 114.408 378.326 114.563 377.515 114.874C376.704 115.167 376.022 115.598 375.47 116.167C374.935 116.72 374.521 117.392 374.228 118.186C373.935 118.98 373.762 119.868 373.71 120.852L372.287 120.955C372.287 119.195 372.46 117.565 372.805 116.064C373.15 114.563 373.667 113.243 374.357 112.104C375.065 110.966 375.945 110.077 376.997 109.439C378.067 108.801 379.3 108.481 380.698 108.481C381.077 108.481 381.483 108.516 381.914 108.585C382.363 108.654 382.699 108.732 382.923 108.818ZM401.686 131.384V118.031C401.686 117.03 401.504 116.167 401.142 115.443C400.78 114.718 400.228 114.158 399.486 113.761C398.761 113.364 397.847 113.166 396.743 113.166C395.725 113.166 394.845 113.338 394.103 113.683C393.361 114.028 392.783 114.494 392.369 115.081C391.955 115.667 391.748 116.331 391.748 117.073H385.537C385.537 115.969 385.805 114.899 386.339 113.864C386.874 112.829 387.651 111.906 388.668 111.095C389.686 110.284 390.903 109.646 392.317 109.18C393.732 108.714 395.319 108.481 397.079 108.481C399.184 108.481 401.047 108.835 402.669 109.542C404.308 110.25 405.593 111.319 406.525 112.751C407.474 114.166 407.948 115.943 407.948 118.083V130.53C407.948 131.807 408.035 132.954 408.207 133.972C408.397 134.973 408.664 135.844 409.009 136.586V137H402.617C402.324 136.327 402.091 135.473 401.918 134.438C401.763 133.386 401.686 132.368 401.686 131.384ZM402.591 119.972L402.643 123.828H398.166C397.01 123.828 395.992 123.94 395.112 124.164C394.232 124.371 393.499 124.682 392.913 125.096C392.326 125.51 391.886 126.01 391.593 126.597C391.299 127.183 391.153 127.847 391.153 128.589C391.153 129.331 391.325 130.013 391.67 130.634C392.015 131.238 392.516 131.712 393.171 132.057C393.844 132.402 394.655 132.575 395.604 132.575C396.881 132.575 397.993 132.316 398.942 131.798C399.909 131.264 400.668 130.617 401.22 129.857C401.772 129.081 402.065 128.348 402.1 127.658L404.118 130.427C403.911 131.134 403.557 131.893 403.057 132.704C402.557 133.515 401.901 134.291 401.09 135.033C400.297 135.758 399.339 136.353 398.218 136.819C397.114 137.285 395.837 137.518 394.388 137.518C392.559 137.518 390.929 137.155 389.497 136.431C388.065 135.689 386.943 134.697 386.132 133.455C385.321 132.195 384.916 130.772 384.916 129.185C384.916 127.701 385.192 126.39 385.744 125.251C386.313 124.095 387.142 123.129 388.229 122.353C389.333 121.576 390.678 120.99 392.266 120.593C393.853 120.179 395.664 119.972 397.7 119.972H402.591ZM431.55 131.203V97.25H437.812V137H432.145L431.55 131.203ZM413.331 123.31V122.767C413.331 120.645 413.581 118.712 414.082 116.97C414.582 115.21 415.306 113.7 416.255 112.441C417.204 111.164 418.36 110.189 419.723 109.517C421.086 108.826 422.622 108.481 424.33 108.481C426.02 108.481 427.504 108.809 428.781 109.465C430.057 110.12 431.144 111.061 432.042 112.286C432.939 113.493 433.655 114.943 434.189 116.633C434.724 118.307 435.104 120.17 435.328 122.223V123.957C435.104 125.958 434.724 127.787 434.189 129.443C433.655 131.1 432.939 132.532 432.042 133.739C431.144 134.947 430.049 135.879 428.755 136.534C427.478 137.19 425.986 137.518 424.278 137.518C422.587 137.518 421.06 137.164 419.697 136.457C418.352 135.749 417.204 134.757 416.255 133.48C415.306 132.204 414.582 130.703 414.082 128.978C413.581 127.235 413.331 125.346 413.331 123.31ZM419.568 122.767V123.31C419.568 124.587 419.68 125.777 419.904 126.881C420.146 127.986 420.517 128.96 421.017 129.806C421.517 130.634 422.164 131.289 422.958 131.772C423.769 132.238 424.735 132.471 425.856 132.471C427.271 132.471 428.436 132.161 429.35 131.54C430.264 130.918 430.98 130.082 431.498 129.029C432.033 127.96 432.395 126.769 432.585 125.458V120.774C432.481 119.756 432.266 118.807 431.938 117.927C431.627 117.047 431.205 116.28 430.67 115.624C430.135 114.951 429.471 114.434 428.677 114.071C427.901 113.692 426.978 113.502 425.908 113.502C424.77 113.502 423.803 113.743 423.01 114.227C422.216 114.71 421.561 115.374 421.043 116.219C420.543 117.065 420.172 118.048 419.93 119.169C419.689 120.291 419.568 121.49 419.568 122.767ZM456.678 137.518C454.608 137.518 452.736 137.181 451.062 136.508C449.406 135.818 447.992 134.861 446.818 133.636C445.662 132.411 444.774 130.97 444.153 129.314C443.532 127.658 443.221 125.872 443.221 123.957V122.922C443.221 120.731 443.54 118.747 444.179 116.97C444.817 115.193 445.706 113.674 446.844 112.415C447.983 111.138 449.329 110.164 450.881 109.491C452.434 108.818 454.116 108.481 455.928 108.481C457.929 108.481 459.68 108.818 461.181 109.491C462.682 110.164 463.924 111.112 464.908 112.337C465.908 113.545 466.65 114.986 467.133 116.659C467.634 118.333 467.884 120.179 467.884 122.197V124.863H446.249V120.386H461.725V119.894C461.69 118.773 461.466 117.72 461.052 116.737C460.655 115.753 460.042 114.96 459.214 114.356C458.386 113.752 457.282 113.45 455.902 113.45C454.867 113.45 453.944 113.674 453.133 114.123C452.339 114.554 451.675 115.184 451.14 116.012C450.605 116.84 450.191 117.841 449.898 119.014C449.622 120.17 449.484 121.473 449.484 122.922V123.957C449.484 125.182 449.648 126.321 449.976 127.373C450.321 128.408 450.821 129.314 451.477 130.09C452.132 130.867 452.926 131.479 453.857 131.928C454.789 132.359 455.85 132.575 457.041 132.575C458.542 132.575 459.879 132.273 461.052 131.669C462.225 131.065 463.243 130.211 464.105 129.107L467.392 132.29C466.788 133.17 466.003 134.015 465.037 134.826C464.071 135.62 462.889 136.267 461.492 136.767C460.111 137.267 458.507 137.518 456.678 137.518ZM478.986 114.692V137H472.749V108.999H478.624L478.986 114.692ZM477.977 121.964L475.854 121.938C475.854 120.006 476.096 118.221 476.579 116.582C477.062 114.943 477.77 113.519 478.701 112.312C479.633 111.087 480.789 110.146 482.169 109.491C483.566 108.818 485.18 108.481 487.008 108.481C488.285 108.481 489.45 108.671 490.502 109.051C491.572 109.413 492.495 109.991 493.271 110.785C494.065 111.578 494.668 112.596 495.083 113.838C495.514 115.081 495.729 116.582 495.729 118.341V137H489.493V118.885C489.493 117.522 489.286 116.452 488.872 115.676C488.475 114.899 487.897 114.347 487.138 114.02C486.396 113.674 485.507 113.502 484.472 113.502C483.299 113.502 482.298 113.726 481.47 114.175C480.659 114.623 479.995 115.236 479.478 116.012C478.96 116.789 478.58 117.686 478.339 118.704C478.097 119.722 477.977 120.808 477.977 121.964ZM495.341 120.308L492.417 120.955C492.417 119.264 492.65 117.668 493.116 116.167C493.599 114.649 494.298 113.321 495.212 112.182C496.144 111.026 497.291 110.12 498.654 109.465C500.017 108.809 501.578 108.481 503.338 108.481C504.77 108.481 506.047 108.68 507.168 109.077C508.307 109.456 509.273 110.06 510.066 110.888C510.86 111.716 511.464 112.795 511.878 114.123C512.292 115.434 512.499 117.021 512.499 118.885V137H506.236V118.859C506.236 117.444 506.029 116.349 505.615 115.572C505.218 114.796 504.649 114.261 503.907 113.968C503.165 113.657 502.277 113.502 501.242 113.502C500.276 113.502 499.422 113.683 498.68 114.045C497.955 114.39 497.343 114.882 496.842 115.521C496.342 116.142 495.962 116.858 495.704 117.668C495.462 118.479 495.341 119.359 495.341 120.308ZM534.703 131.384V118.031C534.703 117.03 534.522 116.167 534.16 115.443C533.797 114.718 533.245 114.158 532.503 113.761C531.779 113.364 530.864 113.166 529.76 113.166C528.742 113.166 527.862 113.338 527.121 113.683C526.379 114.028 525.801 114.494 525.387 115.081C524.973 115.667 524.766 116.331 524.766 117.073H518.555C518.555 115.969 518.822 114.899 519.357 113.864C519.892 112.829 520.668 111.906 521.686 111.095C522.704 110.284 523.92 109.646 525.335 109.18C526.75 108.714 528.337 108.481 530.097 108.481C532.201 108.481 534.065 108.835 535.687 109.542C537.326 110.25 538.611 111.319 539.542 112.751C540.491 114.166 540.966 115.943 540.966 118.083V130.53C540.966 131.807 541.052 132.954 541.225 133.972C541.414 134.973 541.682 135.844 542.027 136.586V137H535.635C535.341 136.327 535.109 135.473 534.936 134.438C534.781 133.386 534.703 132.368 534.703 131.384ZM535.609 119.972L535.661 123.828H531.184C530.028 123.828 529.01 123.94 528.13 124.164C527.25 124.371 526.517 124.682 525.93 125.096C525.344 125.51 524.904 126.01 524.61 126.597C524.317 127.183 524.17 127.847 524.17 128.589C524.17 129.331 524.343 130.013 524.688 130.634C525.033 131.238 525.533 131.712 526.189 132.057C526.862 132.402 527.673 132.575 528.622 132.575C529.898 132.575 531.011 132.316 531.96 131.798C532.926 131.264 533.685 130.617 534.237 129.857C534.789 129.081 535.083 128.348 535.117 127.658L537.136 130.427C536.929 131.134 536.575 131.893 536.075 132.704C535.574 133.515 534.919 134.291 534.108 135.033C533.314 135.758 532.357 136.353 531.235 136.819C530.131 137.285 528.854 137.518 527.405 137.518C525.576 137.518 523.946 137.155 522.514 136.431C521.082 135.689 519.961 134.697 519.15 133.455C518.339 132.195 517.934 130.772 517.934 129.185C517.934 127.701 518.21 126.39 518.762 125.251C519.331 124.095 520.159 123.129 521.246 122.353C522.35 121.576 523.696 120.99 525.283 120.593C526.87 120.179 528.682 119.972 530.718 119.972H535.609ZM553.75 114.33V137H547.513V108.999H553.465L553.75 114.33ZM562.316 108.818L562.264 114.615C561.885 114.546 561.471 114.494 561.022 114.459C560.591 114.425 560.159 114.408 559.728 114.408C558.658 114.408 557.718 114.563 556.907 114.874C556.096 115.167 555.415 115.598 554.863 116.167C554.328 116.72 553.914 117.392 553.621 118.186C553.327 118.98 553.155 119.868 553.103 120.852L551.68 120.955C551.68 119.195 551.852 117.565 552.197 116.064C552.542 114.563 553.06 113.243 553.75 112.104C554.457 110.966 555.337 110.077 556.39 109.439C557.459 108.801 558.693 108.481 560.09 108.481C560.47 108.481 560.875 108.516 561.307 108.585C561.755 108.654 562.092 108.732 562.316 108.818ZM572.512 97.25V137H566.25V97.25H572.512ZM589.903 108.999L577.714 122.508L571.037 129.34L569.407 124.061L574.453 117.824L582.372 108.999H589.903ZM583.718 137L574.634 123.854L578.568 119.48L590.938 137H583.718ZM614.617 99.3203V137H608.122V99.3203H614.617ZM628.255 114.977V137H622.019V108.999H627.893L628.255 114.977ZM627.143 121.964L625.124 121.938C625.141 119.954 625.417 118.134 625.952 116.478C626.504 114.822 627.263 113.398 628.229 112.208C629.213 111.018 630.386 110.103 631.749 109.465C633.112 108.809 634.63 108.481 636.304 108.481C637.649 108.481 638.866 108.671 639.953 109.051C641.057 109.413 641.997 110.008 642.773 110.836C643.567 111.665 644.171 112.743 644.585 114.071C644.999 115.382 645.206 116.996 645.206 118.911V137H638.943V118.885C638.943 117.539 638.745 116.478 638.348 115.702C637.969 114.908 637.408 114.347 636.666 114.02C635.941 113.674 635.036 113.502 633.949 113.502C632.879 113.502 631.922 113.726 631.076 114.175C630.231 114.623 629.515 115.236 628.928 116.012C628.359 116.789 627.919 117.686 627.608 118.704C627.298 119.722 627.143 120.808 627.143 121.964ZM660.009 137H653.772V106.308C653.772 104.22 654.16 102.469 654.937 101.054C655.73 99.6222 656.86 98.5439 658.327 97.8193C659.793 97.0775 661.527 96.7065 663.528 96.7065C664.149 96.7065 664.762 96.7497 665.366 96.8359C665.97 96.9049 666.556 97.0171 667.125 97.1724L666.97 101.986C666.625 101.9 666.246 101.839 665.832 101.805C665.435 101.77 665.003 101.753 664.538 101.753C663.589 101.753 662.769 101.934 662.079 102.296C661.406 102.641 660.889 103.15 660.526 103.823C660.181 104.496 660.009 105.324 660.009 106.308V137ZM665.78 108.999V113.554H649.476V108.999H665.78ZM676.571 114.33V137H670.334V108.999H676.287L676.571 114.33ZM685.137 108.818L685.085 114.615C684.706 114.546 684.292 114.494 683.843 114.459C683.412 114.425 682.981 114.408 682.549 114.408C681.48 114.408 680.539 114.563 679.729 114.874C678.918 115.167 678.236 115.598 677.684 116.167C677.149 116.72 676.735 117.392 676.442 118.186C676.149 118.98 675.976 119.868 675.924 120.852L674.501 120.955C674.501 119.195 674.674 117.565 675.019 116.064C675.364 114.563 675.881 113.243 676.571 112.104C677.279 110.966 678.159 110.077 679.211 109.439C680.281 108.801 681.514 108.481 682.912 108.481C683.291 108.481 683.697 108.516 684.128 108.585C684.576 108.654 684.913 108.732 685.137 108.818ZM695.722 108.999V137H689.459V108.999H695.722ZM689.045 101.649C689.045 100.701 689.355 99.9155 689.977 99.2944C690.615 98.6561 691.495 98.3369 692.616 98.3369C693.72 98.3369 694.592 98.6561 695.23 99.2944C695.868 99.9155 696.188 100.701 696.188 101.649C696.188 102.581 695.868 103.357 695.23 103.979C694.592 104.6 693.72 104.91 692.616 104.91C691.495 104.91 690.615 104.6 689.977 103.979C689.355 103.357 689.045 102.581 689.045 101.649ZM708.739 114.977V137H702.502V108.999H708.376L708.739 114.977ZM707.626 121.964L705.607 121.938C705.625 119.954 705.901 118.134 706.436 116.478C706.988 114.822 707.747 113.398 708.713 112.208C709.696 111.018 710.869 110.103 712.232 109.465C713.595 108.809 715.114 108.481 716.787 108.481C718.133 108.481 719.349 108.671 720.436 109.051C721.54 109.413 722.48 110.008 723.257 110.836C724.05 111.665 724.654 112.743 725.068 114.071C725.482 115.382 725.689 116.996 725.689 118.911V137H719.427V118.885C719.427 117.539 719.228 116.478 718.832 115.702C718.452 114.908 717.891 114.347 717.149 114.02C716.425 113.674 715.519 113.502 714.432 113.502C713.362 113.502 712.405 113.726 711.56 114.175C710.714 114.623 709.998 115.236 709.412 116.012C708.842 116.789 708.402 117.686 708.092 118.704C707.781 119.722 707.626 120.808 707.626 121.964ZM749.99 108.999H755.657V136.224C755.657 138.743 755.122 140.882 754.053 142.642C752.983 144.401 751.491 145.738 749.576 146.653C747.661 147.584 745.444 148.05 742.925 148.05C741.855 148.05 740.665 147.895 739.354 147.584C738.06 147.274 736.8 146.774 735.575 146.083C734.368 145.411 733.358 144.522 732.547 143.418L735.472 139.743C736.472 140.934 737.576 141.805 738.784 142.357C739.992 142.909 741.26 143.185 742.588 143.185C744.02 143.185 745.237 142.918 746.237 142.383C747.255 141.865 748.04 141.097 748.592 140.08C749.144 139.062 749.42 137.819 749.42 136.353V115.339L749.99 108.999ZM730.969 123.31V122.767C730.969 120.645 731.228 118.712 731.745 116.97C732.263 115.21 733.005 113.7 733.971 112.441C734.937 111.164 736.11 110.189 737.49 109.517C738.87 108.826 740.432 108.481 742.174 108.481C743.986 108.481 745.53 108.809 746.807 109.465C748.101 110.12 749.179 111.061 750.042 112.286C750.904 113.493 751.577 114.943 752.06 116.633C752.56 118.307 752.931 120.17 753.173 122.223V123.957C752.949 125.958 752.569 127.787 752.034 129.443C751.499 131.1 750.792 132.532 749.912 133.739C749.032 134.947 747.945 135.879 746.651 136.534C745.375 137.19 743.865 137.518 742.123 137.518C740.415 137.518 738.87 137.164 737.49 136.457C736.127 135.749 734.954 134.757 733.971 133.48C733.005 132.204 732.263 130.703 731.745 128.978C731.228 127.235 730.969 125.346 730.969 123.31ZM737.206 122.767V123.31C737.206 124.587 737.326 125.777 737.568 126.881C737.827 127.986 738.215 128.96 738.732 129.806C739.267 130.634 739.94 131.289 740.751 131.772C741.579 132.238 742.554 132.471 743.675 132.471C745.142 132.471 746.341 132.161 747.272 131.54C748.221 130.918 748.946 130.082 749.446 129.029C749.964 127.96 750.326 126.769 750.533 125.458V120.774C750.43 119.756 750.214 118.807 749.886 117.927C749.576 117.047 749.153 116.28 748.618 115.624C748.083 114.951 747.41 114.434 746.6 114.071C745.789 113.692 744.831 113.502 743.727 113.502C742.606 113.502 741.631 113.743 740.803 114.227C739.975 114.71 739.293 115.374 738.758 116.219C738.241 117.065 737.853 118.048 737.594 119.169C737.335 120.291 737.206 121.49 737.206 122.767ZM774.471 137.518C772.401 137.518 770.529 137.181 768.855 136.508C767.199 135.818 765.785 134.861 764.611 133.636C763.455 132.411 762.567 130.97 761.946 129.314C761.325 127.658 761.014 125.872 761.014 123.957V122.922C761.014 120.731 761.333 118.747 761.972 116.97C762.61 115.193 763.499 113.674 764.637 112.415C765.776 111.138 767.122 110.164 768.674 109.491C770.227 108.818 771.909 108.481 773.721 108.481C775.722 108.481 777.473 108.818 778.974 109.491C780.475 110.164 781.717 111.112 782.701 112.337C783.701 113.545 784.443 114.986 784.926 116.659C785.427 118.333 785.677 120.179 785.677 122.197V124.863H764.042V120.386H779.518V119.894C779.483 118.773 779.259 117.72 778.845 116.737C778.448 115.753 777.835 114.96 777.007 114.356C776.179 113.752 775.075 113.45 773.695 113.45C772.66 113.45 771.737 113.674 770.926 114.123C770.132 114.554 769.468 115.184 768.933 116.012C768.398 116.84 767.984 117.841 767.691 119.014C767.415 120.17 767.277 121.473 767.277 122.922V123.957C767.277 125.182 767.441 126.321 767.769 127.373C768.114 128.408 768.614 129.314 769.27 130.09C769.925 130.867 770.719 131.479 771.65 131.928C772.582 132.359 773.643 132.575 774.833 132.575C776.334 132.575 777.672 132.273 778.845 131.669C780.018 131.065 781.036 130.211 781.898 129.107L785.185 132.29C784.581 133.17 783.796 134.015 782.83 134.826C781.864 135.62 780.682 136.267 779.285 136.767C777.904 137.267 776.3 137.518 774.471 137.518ZM796.779 114.692V137H790.542V108.999H796.417L796.779 114.692ZM795.77 121.964L793.647 121.938C793.647 120.006 793.889 118.221 794.372 116.582C794.855 114.943 795.562 113.519 796.494 112.312C797.426 111.087 798.582 110.146 799.962 109.491C801.359 108.818 802.972 108.481 804.801 108.481C806.078 108.481 807.243 108.671 808.295 109.051C809.365 109.413 810.288 109.991 811.064 110.785C811.858 111.578 812.461 112.596 812.875 113.838C813.307 115.081 813.522 116.582 813.522 118.341V137H807.286V118.885C807.286 117.522 807.079 116.452 806.665 115.676C806.268 114.899 805.69 114.347 804.931 114.02C804.189 113.674 803.3 113.502 802.265 113.502C801.092 113.502 800.091 113.726 799.263 114.175C798.452 114.623 797.788 115.236 797.271 116.012C796.753 116.789 796.373 117.686 796.132 118.704C795.89 119.722 795.77 120.808 795.77 121.964ZM813.134 120.308L810.21 120.955C810.21 119.264 810.443 117.668 810.909 116.167C811.392 114.649 812.09 113.321 813.005 112.182C813.937 111.026 815.084 110.12 816.447 109.465C817.81 108.809 819.371 108.481 821.131 108.481C822.563 108.481 823.84 108.68 824.961 109.077C826.1 109.456 827.066 110.06 827.859 110.888C828.653 111.716 829.257 112.795 829.671 114.123C830.085 115.434 830.292 117.021 830.292 118.885V137H824.029V118.859C824.029 117.444 823.822 116.349 823.408 115.572C823.011 114.796 822.442 114.261 821.7 113.968C820.958 113.657 820.07 113.502 819.035 113.502C818.069 113.502 817.215 113.683 816.473 114.045C815.748 114.39 815.136 114.882 814.635 115.521C814.135 116.142 813.755 116.858 813.497 117.668C813.255 118.479 813.134 119.359 813.134 120.308ZM849.054 137.518C846.984 137.518 845.112 137.181 843.438 136.508C841.782 135.818 840.368 134.861 839.194 133.636C838.038 132.411 837.15 130.97 836.529 129.314C835.908 127.658 835.597 125.872 835.597 123.957V122.922C835.597 120.731 835.916 118.747 836.555 116.97C837.193 115.193 838.082 113.674 839.22 112.415C840.359 111.138 841.705 110.164 843.257 109.491C844.81 108.818 846.492 108.481 848.304 108.481C850.305 108.481 852.056 108.818 853.557 109.491C855.058 110.164 856.3 111.112 857.284 112.337C858.284 113.545 859.026 114.986 859.509 116.659C860.01 118.333 860.26 120.179 860.26 122.197V124.863H838.625V120.386H854.101V119.894C854.066 118.773 853.842 117.72 853.428 116.737C853.031 115.753 852.418 114.96 851.59 114.356C850.762 113.752 849.658 113.45 848.278 113.45C847.243 113.45 846.32 113.674 845.509 114.123C844.715 114.554 844.051 115.184 843.516 116.012C842.981 116.84 842.567 117.841 842.274 119.014C841.998 120.17 841.86 121.473 841.86 122.922V123.957C841.86 125.182 842.024 126.321 842.352 127.373C842.697 128.408 843.197 129.314 843.853 130.09C844.508 130.867 845.302 131.479 846.233 131.928C847.165 132.359 848.226 132.575 849.417 132.575C850.917 132.575 852.255 132.273 853.428 131.669C854.601 131.065 855.619 130.211 856.481 129.107L859.768 132.29C859.164 133.17 858.379 134.015 857.413 134.826C856.447 135.62 855.265 136.267 853.868 136.767C852.487 137.267 850.883 137.518 849.054 137.518ZM871.31 114.977V137H865.073V108.999H870.948L871.31 114.977ZM870.197 121.964L868.179 121.938C868.196 119.954 868.472 118.134 869.007 116.478C869.559 114.822 870.318 113.398 871.284 112.208C872.268 111.018 873.441 110.103 874.804 109.465C876.167 108.809 877.685 108.481 879.358 108.481C880.704 108.481 881.92 108.671 883.007 109.051C884.111 109.413 885.052 110.008 885.828 110.836C886.622 111.665 887.226 112.743 887.64 114.071C888.054 115.382 888.261 116.996 888.261 118.911V137H881.998V118.885C881.998 117.539 881.8 116.478 881.403 115.702C881.023 114.908 880.463 114.347 879.721 114.02C878.996 113.674 878.09 113.502 877.003 113.502C875.934 113.502 874.976 113.726 874.131 114.175C873.285 114.623 872.569 115.236 871.983 116.012C871.414 116.789 870.974 117.686 870.663 118.704C870.353 119.722 870.197 120.808 870.197 121.964ZM907.463 108.999V113.554H891.677V108.999H907.463ZM896.231 102.141H902.468V129.262C902.468 130.125 902.589 130.789 902.831 131.255C903.089 131.703 903.443 132.005 903.892 132.161C904.34 132.316 904.866 132.394 905.47 132.394C905.902 132.394 906.316 132.368 906.712 132.316C907.109 132.264 907.428 132.212 907.67 132.161L907.696 136.922C907.178 137.078 906.574 137.216 905.884 137.336C905.211 137.457 904.435 137.518 903.555 137.518C902.123 137.518 900.855 137.267 899.751 136.767C898.647 136.25 897.784 135.413 897.163 134.257C896.542 133.101 896.231 131.565 896.231 129.65V102.141ZM923.948 125.898H918.177C918.194 124.293 918.332 122.948 918.591 121.861C918.85 120.757 919.281 119.756 919.885 118.859C920.506 117.962 921.325 117.013 922.343 116.012C923.137 115.253 923.853 114.537 924.491 113.864C925.13 113.174 925.639 112.45 926.018 111.69C926.398 110.914 926.587 110.026 926.587 109.025C926.587 107.938 926.406 107.015 926.044 106.256C925.682 105.497 925.147 104.919 924.439 104.522C923.749 104.125 922.887 103.927 921.852 103.927C920.989 103.927 920.178 104.099 919.419 104.444C918.66 104.772 918.047 105.29 917.582 105.997C917.116 106.687 916.866 107.602 916.831 108.74H910.594C910.629 106.566 911.146 104.738 912.147 103.254C913.148 101.77 914.493 100.657 916.184 99.9155C917.875 99.1737 919.764 98.8027 921.852 98.8027C924.163 98.8027 926.139 99.1995 927.778 99.9932C929.417 100.77 930.668 101.908 931.53 103.409C932.41 104.893 932.85 106.687 932.85 108.792C932.85 110.31 932.548 111.69 931.944 112.933C931.34 114.158 930.556 115.305 929.589 116.375C928.623 117.427 927.579 118.479 926.458 119.532C925.492 120.412 924.836 121.369 924.491 122.404C924.146 123.422 923.965 124.587 923.948 125.898ZM917.659 133.972C917.659 133.041 917.978 132.256 918.617 131.617C919.255 130.962 920.126 130.634 921.23 130.634C922.335 130.634 923.206 130.962 923.844 131.617C924.483 132.256 924.802 133.041 924.802 133.972C924.802 134.904 924.483 135.697 923.844 136.353C923.206 136.991 922.335 137.311 921.23 137.311C920.126 137.311 919.255 136.991 918.617 136.353C917.978 135.697 917.659 134.904 917.659 133.972Z" fill="#1C4670"/>
<path d="M364.366 421.573C364.366 421.573 375.624 376.671 340.67 369.213C340.67 369.213 316.821 367.192 302.311 375.598C302.311 375.598 341.142 400.855 336.042 407.871C330.941 414.887 294.785 376.58 294.785 376.58C294.785 376.58 251.006 393.418 240.819 406.657C240.819 406.657 290.991 418.255 284.341 423.776C277.69 429.298 224.919 419.679 224.919 419.679C224.919 419.679 189.361 445.82 203.196 468.707C217.032 491.593 234.043 492.273 239.617 488.688C245.19 485.103 273.076 454.597 276.217 459.088C279.358 463.578 266.489 489.867 252.326 497.879C252.326 497.879 294.716 514.647 308.614 496.721C322.512 478.796 317.182 464.069 325.986 453.152C334.791 442.235 344.45 437.394 342.393 445.077C340.336 452.759 322.345 468.229 321.546 483.075C320.747 497.921 318.766 508.649 336.202 496.35C353.637 484.051 377.396 454.794 370.905 438.194L364.366 421.573Z" fill="#1C4670" fill-opacity="0.45"/>
<path d="M222 461C222 461 326.491 401.303 365.139 420.979C365.139 420.979 378.077 434.599 401.127 441.133L407 446.961C407 446.961 378.877 436.171 371.685 438.376C371.692 438.376 363.286 393.468 222 461Z" fill="#8BC0CC"/>
<path d="M401.261 441.183C401.261 441.183 432.452 446.658 449 475.611L445.038 478C445.038 478 422.282 450.828 403.039 445.256C383.796 439.685 401.261 441.183 401.261 441.183Z" fill="#599DAD"/>
<path d="M408.423 351.913C408.423 351.913 462.867 304.098 424.021 263.223C424.021 263.223 394.801 239.266 368.497 237.112C368.497 237.112 396.596 304.421 383.759 308.876C370.923 313.332 357.855 231.618 357.855 231.618C357.855 231.618 286.08 214.138 261.052 222.06C261.052 222.06 316.001 281.924 302.464 283.109C288.926 284.295 228.852 224.636 228.852 224.636C228.852 224.636 159.446 226.481 157.168 268.359C154.889 310.238 176.391 326.356 186.809 326.721C197.227 327.086 260.519 312.722 260.61 321.318C260.701 329.914 220.649 352.249 195.187 349.913C195.187 349.913 235.414 409.467 269.331 398.794C303.249 388.121 309.397 364.41 330.478 358.172C351.559 351.934 368.441 354.397 358.956 362.452C349.47 370.508 312.377 374.382 298.201 392.766C284.026 411.151 271.946 423.242 305.492 422.996C339.038 422.751 395.853 406.331 402.127 379.125L408.423 351.913Z" fill="#BCECF7"/>
<path d="M190 274C190 274 374.233 293.379 407.214 352.344C407.214 352.344 412.331 380.808 436.382 409.526L439 422C439 422 412.031 383.475 400.958 379.782C400.958 379.782 428.004 316.565 190 274Z" fill="#8BC0CC"/>
<path d="M436.84 409.009C436.84 409.009 472.296 443.684 467.566 496L460.273 495.616C460.273 495.616 455.346 440.134 435.488 415.901C415.631 391.668 436.84 409.009 436.84 409.009Z" fill="#6BB7BF"/>
<path d="M395.875 792.365C395.875 792.365 466.634 776.51 452.009 722.339C452.009 722.339 437.763 687.532 415.661 673.135C415.661 673.135 408.183 745.274 394.759 743.063C381.334 740.852 408.921 663.278 408.921 663.278C408.921 663.278 354.156 613.886 328.339 608.87C328.339 608.87 348.04 687.274 335.578 681.847C323.115 676.42 298.78 595.812 298.78 595.812C298.78 595.812 236.853 564.423 214.807 599.907C192.76 635.391 203.987 659.686 212.974 664.96C221.961 670.233 284.492 687.804 280.476 695.365C276.46 702.927 230.541 703.373 209.246 689.22C209.246 689.22 216.155 760.369 251.099 767.156C286.043 773.943 302.796 756.17 324.316 760.767C345.836 765.363 359.52 775.527 347.317 778.052C335.114 780.577 300.654 766.291 279.38 775.631C258.106 784.971 241.705 789.749 271.334 805.486C300.963 821.223 358.796 833.911 377.353 813.159L395.875 792.365Z" fill="#BCECF7"/>
<path d="M241 620C241 620 393.84 725.135 395 792.203C395 792.203 386.062 819.391 393.651 855.904L390.066 868C390.066 868 384.538 821.596 376.551 813.077C376.551 813.028 430.179 771.048 241 620Z" fill="#8BC0CC"/>
<path d="M394.279 856.815C394.279 856.815 409.445 904.18 378.543 948L372 944.203C372 944.203 395.596 893.013 389.542 862.241C383.487 831.468 394.279 856.815 394.279 856.815Z" fill="#6BB7BF"/>
<path d="M864 303H350V1025H864V303Z" fill="#1C4670"/>
<path d="M846 323H368V1012H846V323Z" fill="#DCF6F9"/>
<path d="M808 408H417V429H808V408Z" fill="#FFA229"/>
<path d="M808 544H417V554H808V544Z" fill="#FFA229"/>
<path d="M808 567H417V578H808V567Z" fill="#FFA229"/>
<path d="M808 592H417V602H808V592Z" fill="#FFA229"/>
<path d="M808 616H417V627H808V616Z" fill="#FFA229"/>
<path d="M808 640H417V650H808V640Z" fill="#FFA229"/>
<path d="M808 664H417V674H808V664Z" fill="#FFA229"/>
<path d="M512.884 831.94C528.252 825.574 535.55 807.955 529.184 792.587C522.818 777.218 505.199 769.92 489.831 776.286C474.463 782.652 467.164 800.271 473.53 815.639C479.896 831.008 497.515 838.306 512.884 831.94Z" fill="#FFA229"/>
<path d="M657.516 833H657.262C656.866 832.932 656.514 832.711 656.281 832.386C656.049 832.062 655.955 831.659 656.02 831.266C656.303 829.616 663.2 790.767 684.938 777.54C686.489 776.603 687.463 777.093 687.9 777.463C689.811 779.085 688.359 783.21 681.813 798.765C679.204 804.966 676.114 812.321 674.838 816.788C677.158 813.782 680.621 808.629 683.372 804.533C691.97 791.732 693.648 789.649 695.362 789.649C695.663 789.646 695.96 789.716 696.227 789.854C696.494 789.992 696.723 790.193 696.893 790.439C697.803 791.732 697.111 793.934 694.734 800.282C693.666 802.959 692.762 805.698 692.026 808.482C693.525 806.954 694.909 805.318 696.166 803.589C699.15 799.751 700.659 797.912 702.436 798.192C702.84 798.265 703.214 798.45 703.515 798.726C703.816 799.002 704.032 799.358 704.136 799.751C704.308 800.285 704.426 800.836 704.489 801.394C704.722 802.932 704.99 804.672 706.859 805.721C710.632 807.818 721.508 807.706 751.892 795.151C752.266 794.998 752.687 794.998 753.06 795.152C753.434 795.306 753.73 795.601 753.885 795.972C754.039 796.343 754.038 796.759 753.883 797.13C753.728 797.5 753.43 797.794 753.056 797.947C727.404 808.545 711.803 811.929 705.37 808.357C702.239 806.609 701.773 803.68 701.498 801.904C700.638 802.806 699.439 804.358 698.557 805.49C695.271 809.734 693.112 812.286 690.905 812.111C690.58 812.084 690.265 811.982 689.987 811.815C689.708 811.648 689.471 811.419 689.297 811.146C688.246 809.496 689.297 806.252 691.878 799.261C692.294 798.15 692.774 796.863 693.19 795.668C691.074 798.52 688.253 802.771 685.918 806.217C676.284 820.549 674.542 822.625 672.602 822.101C672.203 821.986 671.853 821.744 671.608 821.411C671.363 821.078 671.236 820.674 671.248 820.262C671.05 816.907 674.203 809.126 679.006 797.632C681.461 791.795 684.649 784.147 685.474 780.784C665.725 793.948 659.06 831.406 658.997 831.818C658.923 832.153 658.736 832.453 658.466 832.668C658.197 832.883 657.861 833 657.516 833Z" fill="#1C4670"/>
<path d="M719.236 290.987H658.887C660.743 286.068 661.378 280.771 660.74 275.552C660.101 270.333 658.207 265.346 655.22 261.021C652.233 256.695 648.243 253.16 643.592 250.718C638.94 248.276 633.766 247 628.514 247C623.262 247 618.088 248.276 613.436 250.718C608.785 253.16 604.794 256.695 601.808 261.021C598.821 265.346 596.927 270.333 596.288 275.552C595.65 280.771 596.285 286.068 598.141 290.987H537.792C535.46 290.987 533.224 291.915 531.575 293.566C529.926 295.216 529 297.455 529 299.79V324.198C529 326.532 529.926 328.771 531.575 330.422C533.224 332.073 535.46 333 537.792 333H719.208C721.54 333 723.776 332.073 725.425 330.422C727.074 328.771 728 326.532 728 324.198V299.79C728 297.46 727.078 295.225 725.435 293.575C723.792 291.926 721.563 290.995 719.236 290.987ZM628.528 291.483C626.157 291.482 623.84 290.777 621.87 289.457C619.899 288.138 618.364 286.263 617.458 284.07C616.552 281.877 616.315 279.464 616.779 277.136C617.242 274.809 618.384 272.671 620.061 270.993C621.738 269.315 623.874 268.173 626.199 267.71C628.524 267.248 630.934 267.486 633.124 268.395C635.314 269.303 637.186 270.841 638.503 272.815C639.819 274.788 640.522 277.109 640.522 279.482C640.522 281.06 640.212 282.622 639.608 284.08C639.004 285.537 638.119 286.861 637.004 287.976C635.888 289.09 634.565 289.974 633.108 290.576C631.651 291.178 630.09 291.486 628.514 291.483H628.528Z" fill="#FFA229"/>
<path d="M50.4881 1022.24C62.6006 1009.81 83.9458 1001.26 108.604 1000.26V963.647H66.0743C65.1307 963.647 64.292 962.82 63.7539 961.543C63.3495 960.524 63.1477 959.435 63.1597 958.338V956.486C63.1597 953.568 64.4737 951.183 66.0743 951.183H108.611V848.91C108.611 847.608 109.126 846.359 110.044 845.438C110.962 844.517 112.206 844 113.504 844C114.801 844 116.045 844.517 116.963 845.438C117.881 846.359 118.396 847.608 118.396 848.91V951.183H160.933C162.533 951.183 163.847 953.568 163.847 956.486V958.338C163.862 959.468 163.645 960.59 163.211 961.634C162.68 962.855 161.855 963.647 160.933 963.647H118.396V1000.26C143.054 1001.26 164.399 1009.81 176.512 1022.24C177.393 1023.13 178.222 1024.06 179 1025H48C48.7735 1024.06 49.6028 1023.13 50.4881 1022.24Z" fill="#1C3A3E"/>
<path d="M108 1000.29C125.358 1001.89 140.282 1010.28 148.908 1022.22C149.566 1023.13 150.185 1024.05 150.763 1025H163C162.417 1024.06 161.796 1023.13 161.138 1022.22C151.503 1008.9 134.047 1000 114.108 1000C112.048 1000.04 110.003 1000.1 108 1000.29Z" fill="#1C4670"/>
<path d="M243 999.933C243 999.933 244.489 1024.6 249.138 1024.95C249.756 1025 272.707 1025 272.707 1025L302 1024.83C302 1024.83 301.81 1017.57 293.242 1016.04C284.674 1014.51 270.347 1008.33 265.15 996.71C259.701 984.479 243 999.933 243 999.933Z" fill="#163560"/>
<path d="M127.297 824.614C131.521 831.576 136.218 838.244 141.354 844.569C156.775 863.944 173.559 879.919 176.497 895.02C177.162 898.302 178.069 901.53 179.21 904.679C180.433 908.177 181.944 911.779 183.687 915.535C190.231 929.684 200.015 945.534 209.785 959.942C226.653 984.849 240.507 1001.57 240.507 1001.57C240.507 1001.57 244.935 1005 257.6 1005C261.115 1005 273 1003.08 273 1003.08C271.833 1000.17 257.818 967.104 240.823 925.075L219.505 872.365C218.563 870.022 217.614 867.7 216.694 865.371C214.529 860.013 212.399 854.739 210.319 849.605L181.649 778.717C181.649 778.717 117.864 754.67 111.236 770.254C105.719 783.11 110.168 795.7 127.297 824.614Z" fill="#1C3A3E"/>
<path d="M332 758H235V1025H332V758Z" fill="#49ADB7"/>
<path d="M328 1025H397L397 758H328V1025Z" fill="#8BC0CC"/>
<path d="M328 753H229V758H328V753Z" fill="#24555E"/>
<path d="M405 753H328V758H405V753Z" fill="#49ADB7"/>
<path d="M227.281 717C227.281 717 241.37 724.949 245.313 724.949C249.256 724.949 264.748 721.975 269.062 724.168C273.377 726.361 281.227 735.155 282.658 738.03C285.291 743.204 272.046 740.918 265.785 736.511C265.336 736.194 264.826 735.974 264.286 735.864C263.746 735.754 263.19 735.757 262.651 735.872C259.41 736.582 252.676 737.788 249.42 736.582C245.041 734.971 222 733.189 222 733.189L227.281 717Z" fill="#F9A6A0"/>
<path d="M123 609.33C123 609.33 137.24 711.956 160.81 721.15C172.442 725.684 223.851 736.003 239.06 737C239.06 737 242.784 733.93 241.85 721.44C241.85 721.44 187.986 701.389 180.336 690.483C168.948 674.216 187.407 624.169 173.119 608.927C158.83 593.686 134.792 587.143 123 609.33Z" fill="white" fill-opacity="0.36"/>
<path d="M175.592 932C175.592 932 155.136 945.143 157.138 949.416C157.408 949.984 168.715 970.231 168.715 970.231L183.294 996C183.294 996 189.433 992.352 186.53 984.063C183.627 975.774 181.874 960.161 189.305 949.998C197.078 939.324 175.592 932 175.592 932Z" fill="#FF4B42"/>
<path d="M187.196 957C187.196 957 173.013 943.802 170.79 935.637C170.79 935.637 222.686 873.363 233.94 859.402C234.457 858.765 234.324 858.064 233.646 857.301C225.146 847.709 130.729 828.195 118.391 808.989C114.713 803.346 112.016 797.119 110.416 790.574C107.62 778.839 109.828 770.731 109.828 770.731L204.127 768C204.127 768 282.634 816.971 291.505 850.355C300.375 883.74 187.196 957 187.196 957Z" fill="#24555E"/>
<path d="M234 858C225.447 848.292 130.44 828.544 118.026 809.108C114.325 803.398 111.611 797.097 110 790.473V778.377L150.325 772C150.325 772 161.762 807.429 195.63 820.743C227.353 833.2 233.367 855.265 234 858Z" fill="#1C3A3E"/>
<path d="M178 604.14C158.811 609.047 127 591.361 127 591.361C127 591.361 139.347 583.083 143.925 564.907C144.164 563.988 144.368 563.056 144.558 562.103L154.402 560L169.056 573.087C168.63 578.051 167.907 582.985 166.89 587.863C166.571 589.494 166.203 591.242 165.786 593.107C170.501 596.008 174.641 599.748 178 604.14Z" fill="#FCBDB6"/>
<path d="M107.514 683.18C110.257 720.229 106.651 776.58 109.759 786.341C112.446 794.756 143.045 789.752 155.253 786.94C159.772 785.904 165.244 784.417 170.9 782.655C186.672 777.722 203.876 770.752 205.701 765.551C205.77 765.355 205.829 765.155 205.876 764.952C206.041 764.235 206.041 763.491 205.876 762.774C205.259 760.124 202.894 757.256 202.614 750.688C202.305 743.365 202.347 734.732 202.073 725.458C202.073 724.408 202.073 723.273 201.933 722.23V721.85C201.933 721.652 201.933 721.455 201.933 721.258C201.673 710.912 201.133 700.031 200.53 689.241C200.13 682.468 199.674 675.752 199.126 669.325C197.723 652.728 195.899 637.971 193.443 628.64C189.437 613.431 180.596 603.509 172.548 596.222L166.732 591.211C160.235 592.62 152.552 591.69 145.613 588.392C138.091 584.805 135.495 582.239 134.19 583.205C116.754 596.666 104.272 637.886 107.514 683.18Z" fill="#FFA229"/>
<path d="M170.51 782C186.514 777.101 203.971 770.179 205.822 765.015C205.892 764.82 205.952 764.621 206 764.42C206 763.72 206 762.978 206 762.257C205.374 759.626 202.974 756.777 202.689 750.255C202.376 742.983 202.419 734.41 202.141 725.2C202.141 724.157 202.141 723.03 201.999 721.995V721.617C201.999 721.421 201.999 721.225 201.999 721.029L137.305 640C137.305 640 93.7563 729.028 170.51 782Z" fill="white" fill-opacity="0.36"/>
<path d="M170 573.155C169.577 578.142 168.858 583.099 167.846 588C153.615 583.366 147.161 570.394 145 564.93C145.238 564.007 145.441 563.07 145.629 562.113L155.42 560L170 573.155Z" fill="#F9A6A0"/>
<path d="M171.793 580.984C171.793 580.984 140.761 575.737 144.278 556.165C147.795 536.594 146.173 522.773 166.137 525.297C186.1 527.822 188.597 535.998 188.988 542.813C189.38 549.627 179.961 581.821 171.793 580.984Z" fill="#FCBDB6"/>
<path d="M240.035 748.256L317.269 748.249L338.255 680L341 680.855L318.809 753H240L240.035 748.256Z" fill="#1C4670"/>
<path d="M219 750.08C219 750.08 244.361 756.641 253.904 755.949C263.446 755.257 271.355 750.826 272.521 748.505C273.687 746.183 276.228 742.081 269.729 742.841C263.23 743.602 254.413 744.951 254.141 743.732C253.869 742.513 259.418 742.622 259.418 742.622C259.418 742.622 261.094 740.232 258.985 740.143C256.877 740.054 250.706 738.417 248.417 739.541C246.127 740.664 244.012 744.807 242.336 744.636C240.661 744.464 221.115 736 221.115 736L219 750.08Z" fill="#FCBDB6"/>
<path d="M129 615.807C129 615.807 132.001 718.157 154.443 729.793C165.517 735.53 215.531 751.303 230.506 754C230.506 754 234.546 751.4 235 739.045C235 739.045 183.612 713.405 177.192 701.846C167.632 684.648 191.435 637.512 178.881 620.964C166.327 604.416 143.138 595.317 129 615.807Z" fill="#FFA229"/>
<path d="M144.556 565C144.556 565 144.203 558.234 148.326 554.358C148.326 554.358 146.912 547.578 149.543 546.455C152.174 545.333 152.754 551.04 153.964 550.146C155.173 549.252 160.598 545.004 162.925 538.746C165.252 532.488 186.5 540.062 188.976 541.192C191.451 542.322 199.416 538.181 201 534.827C201 534.827 196.572 531.251 194.585 528.569C192.597 525.887 178.663 507.772 159.219 512.914C139.775 518.056 137.108 527.453 138.212 535.499C139.315 543.545 136.557 562.297 144.556 565Z" fill="#501506"/>
<path d="M180.1 811.117C150.83 811.119 121.864 805.125 94.9463 793.495L77.4779 785.951C73.8215 784.373 69.8353 783.737 65.8761 784.099C61.917 784.461 58.1084 785.811 54.7914 788.027C51.4744 790.244 48.7524 793.258 46.8691 796.799C44.9859 800.341 44 804.3 44 808.321V842.039C44.0056 843.619 44.6292 845.133 45.7347 846.25C46.8401 847.367 48.3376 847.996 49.9 848H180.1C181.662 847.996 183.16 847.367 184.265 846.25C185.371 845.133 185.994 843.619 186 842.039V817.071C185.993 815.492 185.368 813.98 184.263 812.864C183.158 811.749 181.661 811.121 180.1 811.117Z" fill="#8BC0CC"/>
<path d="M689.956 837.148C662.556 841.866 635.996 842.893 615.744 841.304C595.31 839.693 583.376 833.365 582.108 826.143C580.993 819.603 588.555 812.079 603.992 804.457C589.199 811.784 582.031 820.032 583.047 825.981C584.175 832.584 596.102 837.232 615.758 838.814C635.905 840.396 662.058 838.681 689.381 833.976C716.704 829.272 741.939 822.142 760.404 813.9C778.42 805.863 788.105 797.467 786.977 790.864C785.778 783.832 772.919 777.138 753.41 773.284C731.224 768.911 705.057 770.38 679.269 774.824C630.86 783.157 611.897 792.263 595.829 802.347C611.946 792.214 630.271 780.738 678.848 772.37C704.742 767.912 731.273 767.877 753.557 772.265C773.48 776.189 786.647 783.249 787.895 790.688C789.128 797.91 779.486 806.489 760.768 814.843C742.282 823.14 717.349 832.443 689.956 837.148Z" fill="#1C4670"/>
<path d="M1009 746.278C1009 746.278 1007.28 762.225 1005.4 765.262C1003.52 768.299 995.512 777.94 992.101 779.832C988.689 781.723 994.188 767.118 993.492 764.269C992.796 761.42 990.686 769.459 989.18 769.647C987.675 769.836 988.061 762.609 988.008 759.978C987.955 757.347 995.323 750.852 997.925 745.249C1000.53 739.646 1009 746.278 1009 746.278Z" fill="#FCBDB6"/>
<path d="M819 604.557L815.429 597.649C815.429 597.649 817.204 585.367 802.18 577.571C802.18 577.571 796.686 575.28 793.587 579.876C790.77 584.102 799.032 583.344 798.581 590.576C798.13 597.808 801.49 602.064 806.153 604.419L810.005 609L819 604.557Z" fill="#FCBDB6"/>
<path d="M959 589.261C959 589.261 946.212 651.327 875.856 671.603C853.896 677.934 804 606.417 804 606.417C804 606.417 805.752 599.824 816.739 601.343C816.739 601.343 865.323 633.149 871.438 636.608C876.869 639.673 912.559 597.194 928.831 590.352C945.102 583.51 959 589.261 959 589.261Z" fill="#FFA229" fill-opacity="0.56"/>
<path d="M771.578 576.186L769.574 589.234L835.2 599.312L837.204 586.263L771.578 576.186Z" fill="#FF4B42"/>
<path d="M755 580.843L769.027 589L771 577L755 580.843Z" fill="#1C3A3E"/>
<path d="M843.95 592.268L843.314 596.219C843.222 596.798 843.012 597.353 842.696 597.853C842.381 598.354 841.966 598.79 841.475 599.136C840.984 599.482 840.427 599.732 839.835 599.872C839.244 600.011 838.629 600.037 838.028 599.948L835 599.505L837 587L840.293 587.484C841.438 587.653 842.466 588.252 843.152 589.149C843.838 590.046 844.125 591.168 843.95 592.268Z" fill="#1C3A3E"/>
<path d="M1044.73 984.732C1044.73 984.732 1053.49 992.619 1051.78 998.224C1050.07 1003.83 1042.17 1007.56 1041.1 1014.41C1040.02 1021.26 1035.76 1025 1031.91 1025H1013.57C1013.57 1025 1010.77 1020.16 1017.58 1018.72C1024.39 1017.29 1026.99 1009.23 1026.57 1001.75C1026.14 994.271 1027.21 984.318 1027.21 984.318L1041.74 981L1044.73 984.732Z" fill="#FF4B42"/>
<path d="M935.685 1005C935.685 1005 937.237 1023.13 933.451 1025L885 1024.9C885 1024.9 885 1019.25 892.786 1017.99C900.571 1016.72 914.232 1012.12 916.549 1001.87C918.866 991.61 935.685 1005 935.685 1005Z" fill="#FF4B42"/>
<path d="M894 747.455C894 747.455 896.645 779.592 899.762 818.224C903.994 870.702 909.056 935.167 909.585 947.381C910.457 968.561 913.946 1002.51 913.946 1002.51C913.946 1002.51 922.232 1010.56 938.803 1007.16C938.803 1007.16 953.573 958.74 957.791 907.513C957.855 906.672 957.92 905.825 957.991 904.978C961.916 852.826 968 743 968 743L894 747.455Z" fill="#24555E"/>
<path d="M894 747.441C894 747.441 896.645 779.478 899.762 817.99L957.791 907C957.855 906.162 957.92 905.318 957.991 904.473C961.916 852.483 968 743 968 743L894 747.441Z" fill="#1C3A3E"/>
<path d="M907 751.847C907 751.847 953.733 867.809 984.463 922.298C1015.19 976.786 1024.79 992 1024.79 992C1024.79 992 1042.4 985.03 1044 980.282C1044 980.282 1032.25 875.075 1011.67 849.459C1000.04 834.97 986.38 791.481 985.778 776.31C985.177 761.139 981.58 731 981.58 731L907 751.847Z" fill="#24555E"/>
<path d="M969 574.185C969 574.185 937.288 589.386 919 583.745C922.48 579.735 926.677 576.399 931.379 573.906C930.747 570.259 930.256 567.093 929.976 564.415C929.538 561.196 929.28 557.956 929.204 554.709L941.442 545.149L953.042 536C952.123 561.731 969 574.185 969 574.185Z" fill="#FCBDB6"/>
<path d="M984.999 737.025C985.069 738.967 980.917 741.191 979.084 742.022C965.496 747.996 952.829 752.162 938.469 753.548C921.502 755.286 901.437 751.437 894.538 751.606C893.833 751.592 893.158 751.319 892.641 750.839C892.142 750.494 891.791 730.009 892.142 704.254C892.142 703.212 892.142 702.143 892.212 701.129V700.785C892.36 690.715 892.711 680.159 893.203 669.611C894.186 646.389 896.013 624.06 899.111 611.703C902.849 597.123 911.294 587.468 918.966 580.459L925.289 574.907C931.939 576.346 938.879 575.513 945.003 572.542C952.323 569.024 960.206 565.182 961.47 566.153C971.046 573.19 977.524 588.931 980.973 609.078C983.027 621.7 983.993 634.474 983.861 647.261C983.861 652.265 983.72 657.402 983.439 662.468C981.746 689.962 983.439 713.838 984.423 727.666C984.739 731.677 984.95 734.802 984.999 737.025Z" fill="#FFA229"/>
<path d="M985 736C874.531 735.785 964.624 616.783 964.624 616.783L982.522 611C984.007 624.371 984.706 637.817 984.616 651.269C984.616 656.538 984.518 661.954 984.316 667.293C983.08 696.28 984.295 721.462 985 736Z" fill="#FFA229" fill-opacity="0.56"/>
<path d="M953 545.681C953 545.681 945.002 559.991 929.77 564C929.334 560.826 929.077 557.63 929 554.428L941.214 545L953 545.681Z" fill="#F9A6A0"/>
<path d="M922.88 553.422C922.88 553.422 953.073 558.249 955.91 540.01C958.746 521.771 964.552 510.055 945.404 506.18C926.255 502.305 921.409 508.724 918.936 514.599C916.464 520.474 915.098 551.684 922.88 553.422Z" fill="#FCBDB6"/>
<path d="M967.65 504.334C967.928 504.015 968.569 503.76 970 503.682C969.181 503.234 968.264 502.991 967.33 502.973C967.031 500.99 965.97 497.49 962.545 496.64C963.103 496.962 963.581 497.407 963.943 497.939C964.304 498.472 964.539 499.079 964.631 499.715C960.665 495.663 952.17 492.716 928.644 494.565C897.633 497.001 907.851 516.752 911.867 519.104C915.883 521.456 925.988 515.002 933.464 515.562C940.941 516.122 942.365 526.897 944.9 528.384C947.435 529.872 946.445 527.251 949.884 525.706C953.323 524.162 953.644 529.822 952.647 533.499C951.65 537.176 956.371 542 956.371 542L961.142 536.892C965.906 531.785 970.399 510.15 968.263 505.545L967.65 504.334Z" fill="#501506"/>
<path d="M961.5 566C961.5 566 980.686 575.085 989.886 589.06C1004.16 610.734 1020.69 689.732 1020.99 697.044C1021.3 704.355 1008.95 756 1008.95 756C1008.95 756 996.392 755.177 993.157 748.836C993.157 748.836 995.668 695.777 994.078 692.364C992.489 688.951 941.743 621.184 947.447 606.723C953.151 592.262 961.5 566 961.5 566Z" fill="#FFA229"/>
<path d="M814.806 597.32C814.806 597.32 815.897 593.51 812.905 591.8C809.914 590.09 807.158 585.428 805.891 586.058C803.275 587.359 807.327 591.429 806.583 596.501C806.325 598.276 811.004 602.925 814.806 597.32Z" fill="#FCBDB6"/>
<path d="M0.964696 1028H1079.04C1079.57 1028 1080 1027.32 1080 1026.5C1080 1025.68 1079.57 1025 1079.04 1025H0.964696C0.434123 1025 0 1025.68 0 1026.5C0 1027.32 0.434123 1028 0.964696 1028Z" fill="#1C3A3E"/>
</svg>
