<svg width="1000" height="1021" viewBox="0 0 1000 1021" fill="none" xmlns="http://www.w3.org/2000/svg">
<g clip-path="url(#clip0_44_6474)">
<rect width="1000" height="1021" fill="white"/>
<path d="M824.393 789.686C770.354 847.677 691.394 870.559 621.884 853.699C578.622 843.169 539.528 818.867 501.608 793.947C463.688 769.027 425.767 743.026 383.555 728.637C323.828 708.349 258.507 715.708 218.102 763.777C172.447 817.892 87.6575 794.66 74.357 729.161C56.6154 641.266 90.444 571.079 139.359 496.36C186.697 424.101 240.767 356.042 306.232 305.925C371.697 255.931 449.576 224.773 525.663 231.32C585.415 236.446 641.369 264.392 689.511 302.961C737.59 341.529 778.475 390.535 816.858 441.425C843.939 477.276 870.496 515.382 882.91 561.269C903.908 638.962 878.432 731.694 824.393 789.686Z" fill="#F8F7FC"/>
<path d="M0 911.274C0 917.429 223.837 922.398 499.966 922.398C776.163 922.398 1000 917.429 1000 911.274C1000 905.12 776.163 900.15 499.966 900.15C223.837 900.15 0 905.12 0 911.274Z" fill="#F8F7FC"/>
<path d="M72.4165 862.953L43.6614 862.972L40.8135 892.779L67.0179 895.284C65.8746 884.65 68.0044 871.997 72.4165 862.953Z" fill="#F6A285"/>
<path d="M64.4685 877.87C65.6194 876.481 66.5848 873.555 70.5194 873.931C74.4497 874.307 86.1053 889.094 94.2632 890.607C102.164 892.071 118.422 895.052 115.922 913.178C115.782 914.191 114.825 914.915 113.808 914.818L38.4399 907.616C37.3755 907.514 36.596 906.569 36.6973 905.505L38.8578 882.9C39.3767 878.62 44.1878 876.353 47.8183 878.676C47.8183 878.676 57.3132 886.509 64.4685 877.87Z" fill="#FFD375"/>
<path d="M116.041 907.205C116.245 908.99 116.228 910.968 115.923 913.18C115.783 914.193 114.826 914.916 113.808 914.819L38.4403 907.618C37.3759 907.516 36.5961 906.571 36.6973 905.506L37.2547 899.676L116.041 907.205Z" fill="#EE9545"/>
<path d="M47.6933 891.035C47.4038 894.062 49.6254 896.752 52.6522 897.042C55.6785 897.331 58.3696 895.109 58.6587 892.083C58.9475 889.057 56.7261 886.366 53.6996 886.077C50.6733 885.787 47.9824 888.009 47.6933 891.035Z" fill="#EE9545"/>
<path d="M71.0856 881.112C70.7779 881.082 70.4798 880.958 70.2395 880.727C69.6665 880.188 69.6416 879.28 70.1842 878.707L73.9493 874.735C74.4963 874.167 75.4005 874.137 75.9686 874.684C76.5411 875.223 76.567 876.13 76.0237 876.703L72.2586 880.676C71.9428 881.005 71.5081 881.152 71.0856 881.112Z" fill="#EE9545"/>
<path d="M75.9716 885.033C75.6639 885.004 75.3655 884.879 75.1255 884.648C74.5525 884.109 74.5269 883.202 75.0702 882.629L78.8332 878.655C79.3762 878.087 80.2839 878.058 80.8525 878.605C81.4255 879.144 81.4509 880.051 80.9079 880.624L77.1448 884.597C76.8304 884.927 76.3946 885.074 75.9716 885.033Z" fill="#EE9545"/>
<path d="M80.6395 889.184C80.3323 889.155 80.0337 889.03 79.793 888.799C79.2204 888.26 79.1951 887.353 79.7383 886.78L83.5034 882.807C84.0502 882.239 84.9537 882.213 85.522 882.756C86.0955 883.295 86.1209 884.202 85.5774 884.775L81.8123 888.748C81.4972 889.078 81.062 889.224 80.6395 889.184Z" fill="#EE9545"/>
<path d="M157.397 870.041L156.641 897.804L182.956 898.523C180.952 887.206 181.685 876.475 186.295 866.573L157.397 870.041Z" fill="#F6A285"/>
<path d="M179.226 881.32C180.28 879.855 181.045 876.871 184.995 876.978C188.942 877.086 201.576 891.048 209.817 892.002C217.8 892.926 234.222 894.795 232.96 913.048C232.89 914.069 231.984 914.857 230.962 914.829L155.279 912.766C154.21 912.737 153.368 911.847 153.397 910.779L154.016 888.079C154.243 883.774 158.889 881.185 162.669 883.256C162.669 883.256 172.674 890.425 179.226 881.32Z" fill="#FFD375"/>
<path d="M232.673 907.077C232.998 908.845 233.115 910.819 232.961 913.047C232.89 914.068 231.985 914.854 230.962 914.826L155.279 912.763C154.211 912.734 153.368 911.844 153.397 910.775L153.557 904.921L232.673 907.077Z" fill="#EE9545"/>
<path d="M163.384 895.59C163.301 898.629 165.7 901.163 168.739 901.246C171.778 901.329 174.312 898.929 174.395 895.89C174.477 892.851 172.078 890.318 169.039 890.234C166 890.152 163.467 892.551 163.384 895.59Z" fill="#EE9545"/>
<path d="M186.051 884.13C185.742 884.122 185.436 884.018 185.181 883.804C184.572 883.304 184.485 882.4 184.988 881.792L188.475 877.573C188.982 876.969 189.882 876.878 190.485 877.385C191.094 877.884 191.181 878.787 190.678 879.396L187.191 883.615C186.899 883.966 186.475 884.142 186.051 884.13Z" fill="#EE9545"/>
<path d="M191.19 887.7C190.881 887.692 190.575 887.587 190.319 887.373C189.711 886.874 189.624 885.971 190.127 885.362L193.611 881.143C194.115 880.539 195.018 880.447 195.622 880.955C196.231 881.454 196.318 882.357 195.815 882.966L192.33 887.185C192.04 887.536 191.615 887.712 191.19 887.7Z" fill="#EE9545"/>
<path d="M196.131 891.517C195.822 891.508 195.516 891.405 195.26 891.19C194.652 890.691 194.565 889.787 195.069 889.179L198.555 884.96C199.062 884.355 199.962 884.269 200.565 884.771C201.174 885.27 201.261 886.174 200.758 886.782L197.271 891.002C196.979 891.353 196.555 891.529 196.131 891.517Z" fill="#EE9545"/>
<path d="M116.158 524.309C115.718 553.958 124.642 589.849 134.278 618.154C134.786 619.65 135.294 621.146 135.802 622.641C144.651 647.899 151.168 659.494 152.849 666.445C152.906 666.473 152.906 666.473 152.906 666.473C154.204 671.412 154.797 676.521 154.599 681.686C153.555 716.402 150.563 823.787 151.099 867.647C151.155 873.912 187.965 875.09 189.8 869.191C208.569 809.412 215.845 707.201 216.833 668.533C217.717 634.735 204.087 539.471 201.564 520.329C192.83 520.736 233.199 518.855 116.158 524.309Z" fill="#4C5C75"/>
<path d="M152.9 666.484C152.9 666.484 152.9 666.484 152.859 666.446C150.903 658.582 144.147 647.463 134.288 618.149C134.509 607.935 134.796 618.487 135.93 572.024C139.031 605.159 154.071 667.627 152.9 666.484Z" fill="#111D33"/>
<path d="M74.9515 865.008C102.385 822.304 115.82 714.037 127.307 668.088C130.638 654.851 133.573 639.667 135.802 622.647C140.153 589.866 141.255 556.769 140.205 523.186V523.158L73.8508 526.234C73.6871 526.625 42.1869 548.464 51.8078 622.224C59.3153 680.225 54.5171 745.761 47.2355 802.096C44.1873 825.663 40.7157 847.65 37.5264 866.757C36.0022 876.015 69.8992 872.91 74.9515 865.008Z" fill="#4C5C75"/>
<path d="M57.1992 551.411C60.6708 555.532 64.8197 559.483 70.0976 559.652C76.956 559.906 82.0927 553.81 87.1732 549.182C95.2171 541.843 105.66 537.327 116.47 536.142C142.299 533.147 151.109 550.207 180.059 546.641C188.243 545.654 196.682 543 204.133 538.823C202.609 527.505 201.565 520.336 201.565 520.336L140.206 523.187V523.158L73.8515 526.235C73.8515 526.235 64.199 532.952 57.1992 551.411Z" fill="#111D33"/>
<path d="M71.0647 585.265C46.8633 648.054 90.6056 708.188 48.2261 809.433C47.9128 806.973 47.5605 804.556 47.2461 802.096C54.5189 745.772 59.3266 680.225 51.7975 622.236C42.1693 548.304 73.8626 526.237 73.8626 526.237L86.2454 525.661C92.6977 548.487 78.7275 565.626 71.0647 585.265Z" fill="#111D33"/>
<path d="M323.124 283.99C323.124 283.99 333.208 286.847 324.871 293.305C324.871 293.305 333.562 295.702 326.121 301.972C326.121 301.972 331.719 306.235 325.056 311.068C322.094 313.249 320.106 315.033 317.791 316.716L317.762 316.718C315.502 318.312 312.972 319.772 308.96 321.331C306.697 322.224 305.004 324.112 304.472 326.472C300.731 343.25 284.976 409.729 268.187 418.274C248.945 428.069 214.369 394.926 214.369 394.926C216.946 391.655 205.03 406.775 239.579 362.936L252.684 375.516C252.166 368.156 262.99 354.317 270.207 347.648C277.426 340.978 282.154 310.293 282.154 310.293C282.154 310.293 289.975 290.261 303.449 282.572C316.95 274.852 325.9 275.363 327.525 277.362C328.78 278.906 327.139 281.916 323.124 283.99Z" fill="#F6A285"/>
<path d="M317.763 316.717C315.503 318.311 312.973 319.77 308.96 321.33C306.697 322.223 305.004 324.111 304.472 326.471C300.731 343.249 284.976 409.727 268.187 418.272C248.946 428.068 214.369 394.925 214.369 394.925L235.062 368.689C245.417 372.405 249.47 381.307 247.597 387.831C246.186 392.625 241.775 396.915 242.993 401.761C244.211 406.608 250.182 408.254 255.121 409.046C259.883 409.787 265.734 410.098 268.438 406.12C271.471 401.69 268.046 395.838 267.563 390.462C266.938 383.954 270.888 377.905 275.212 373.006C279.564 368.075 284.574 363.493 286.974 357.4C290.76 347.826 287.251 336.376 291.691 327.094C294.058 322.139 298.664 318.307 303.965 316.834C308.631 315.537 313.16 316.902 317.763 316.717Z" fill="#F6A285"/>
<path d="M708.47 173.218V633.546C708.47 647.811 696.906 659.375 682.641 659.375H333.559C319.294 659.375 307.73 647.811 307.73 633.546V173.218C307.73 158.953 319.294 147.389 333.559 147.389H682.641C696.906 147.389 708.47 158.953 708.47 173.218Z" fill="#1C4670"/>
<path d="M333.559 650.627C324.139 650.627 316.473 642.961 316.473 633.545V173.214C316.473 163.79 324.139 156.124 333.559 156.124H682.642C692.063 156.124 699.729 163.79 699.729 173.214V633.545C699.729 642.961 692.063 650.627 682.642 650.627L333.559 650.627Z" fill="white"/>
<path d="M537.045 234.913C537.045 238.453 534.175 241.323 530.635 241.323H345.106C341.566 241.323 338.696 238.453 338.696 234.913C338.696 231.373 341.566 228.503 345.106 228.503H530.635C534.175 228.503 537.045 231.373 537.045 234.913Z" fill="#F3F1FC"/>
<path d="M508.1 267.905C508.1 271.445 505.23 274.315 501.69 274.315H345.106C341.566 274.315 338.696 271.445 338.696 267.905C338.696 264.364 341.566 261.495 345.106 261.495H501.69C505.23 261.494 508.1 264.364 508.1 267.905Z" fill="#F3F1FC"/>
<path d="M534.88 300.896C534.88 304.437 532.01 307.306 528.47 307.306H345.106C341.566 307.306 338.696 304.436 338.696 300.896C338.696 297.356 341.566 294.486 345.106 294.486H528.47C532.01 294.486 534.88 297.356 534.88 300.896Z" fill="#F3F1FC"/>
<path d="M391.574 341.338V377.781C391.574 381.365 388.669 384.27 385.084 384.27H348.643C345.059 384.27 342.153 381.365 342.153 377.781V341.338C342.153 337.754 345.059 334.849 348.643 334.849H385.084C388.669 334.848 391.574 337.754 391.574 341.338Z" fill="#FFD375"/>
<path d="M391.574 420.483V456.925C391.574 460.509 388.669 463.415 385.084 463.415H348.643C345.059 463.415 342.153 460.509 342.153 456.925V420.483C342.153 416.899 345.059 413.993 348.643 413.993H385.084C388.669 413.993 391.574 416.899 391.574 420.483Z" fill="#FFA229"/>
<path d="M391.574 499.619V536.062C391.574 539.646 388.669 542.552 385.084 542.552H348.643C345.059 542.552 342.153 539.646 342.153 536.062V499.619C342.153 496.035 345.059 493.13 348.643 493.13H385.084C388.669 493.13 391.574 496.035 391.574 499.619Z" fill="#FFA229"/>
<path d="M391.574 578.764V615.207C391.574 618.791 388.669 621.696 385.084 621.696H348.643C345.059 621.696 342.153 618.791 342.153 615.207V578.764C342.153 575.18 345.059 572.274 348.643 572.274H385.084C388.669 572.274 391.574 575.18 391.574 578.764Z" fill="#1C4670"/>
<path d="M357.86 365.621L353.486 357.465C352.587 355.789 353.216 353.699 354.894 352.8C356.575 351.895 358.661 352.531 359.561 354.207L362.296 359.306L375.556 352.09C377.225 351.174 379.317 351.794 380.231 353.467C381.141 355.139 380.524 357.233 378.851 358.142L362.545 367.018C360.877 367.932 358.767 367.309 357.86 365.621Z" fill="white"/>
<path d="M357.86 444.765L353.486 436.61C352.587 434.933 353.216 432.843 354.894 431.945C356.575 431.043 358.661 431.675 359.561 433.352L362.296 438.451L375.556 431.234C377.225 430.319 379.317 430.938 380.231 432.611C381.141 434.284 380.524 436.378 378.851 437.286L362.545 446.162C360.877 447.076 358.767 446.454 357.86 444.765Z" fill="white"/>
<path d="M580.906 344.215H413.202C412.662 344.215 412.226 343.777 412.226 343.239C412.226 342.701 412.662 342.262 413.202 342.262H580.906C581.445 342.262 581.882 342.701 581.882 343.239C581.882 343.777 581.445 344.215 580.906 344.215Z" fill="#E2DFF4"/>
<path d="M605.226 360.535H413.202C412.662 360.535 412.226 360.096 412.226 359.558C412.226 359.02 412.662 358.582 413.202 358.582H605.226C605.766 358.582 606.203 359.02 606.203 359.558C606.203 360.096 605.766 360.535 605.226 360.535Z" fill="#E2DFF4"/>
<path d="M644.035 376.838H413.202C412.662 376.838 412.226 376.399 412.226 375.861C412.226 375.323 412.662 374.885 413.202 374.885H644.035C644.575 374.885 645.012 375.323 645.012 375.861C645.012 376.399 644.575 376.838 644.035 376.838Z" fill="#E2DFF4"/>
<path d="M580.906 423.36H413.202C412.662 423.36 412.226 422.921 412.226 422.383C412.226 421.845 412.662 421.407 413.202 421.407H580.906C581.445 421.407 581.882 421.845 581.882 422.383C581.882 422.921 581.445 423.36 580.906 423.36Z" fill="#E2DFF4"/>
<path d="M605.226 439.68H413.202C412.662 439.68 412.226 439.241 412.226 438.703C412.226 438.165 412.662 437.727 413.202 437.727H605.226C605.766 437.727 606.203 438.165 606.203 438.703C606.203 439.241 605.766 439.68 605.226 439.68Z" fill="#E2DFF4"/>
<path d="M644.035 455.982H413.202C412.662 455.982 412.226 455.544 412.226 455.006C412.226 454.468 412.662 454.029 413.202 454.029H644.035C644.575 454.029 645.012 454.468 645.012 455.006C645.012 455.544 644.575 455.982 644.035 455.982Z" fill="#E2DFF4"/>
<path d="M580.906 502.513H413.202C412.662 502.513 412.226 502.074 412.226 501.537C412.226 500.999 412.662 500.56 413.202 500.56H580.906C581.445 500.56 581.882 500.999 581.882 501.537C581.882 502.074 581.445 502.513 580.906 502.513Z" fill="#E2DFF4"/>
<path d="M605.226 518.816H413.202C412.662 518.816 412.226 518.378 412.226 517.84C412.226 517.302 412.662 516.863 413.202 516.863H605.226C605.766 516.863 606.203 517.302 606.203 517.84C606.203 518.377 605.766 518.816 605.226 518.816Z" fill="#E2DFF4"/>
<path d="M644.035 535.136H413.202C412.662 535.136 412.226 534.697 412.226 534.159C412.226 533.621 412.662 533.183 413.202 533.183H644.035C644.575 533.183 645.012 533.621 645.012 534.159C645.012 534.697 644.575 535.136 644.035 535.136Z" fill="#E2DFF4"/>
<path d="M580.906 581.649H413.202C412.662 581.649 412.226 581.21 412.226 580.672C412.226 580.134 412.662 579.696 413.202 579.696H580.906C581.445 579.696 581.882 580.134 581.882 580.672C581.882 581.21 581.445 581.649 580.906 581.649Z" fill="#E2DFF4"/>
<path d="M605.226 597.961H413.202C412.662 597.961 412.226 597.522 412.226 596.984C412.226 596.446 412.662 596.008 413.202 596.008H605.226C605.766 596.008 606.203 596.446 606.203 596.984C606.203 597.522 605.766 597.961 605.226 597.961Z" fill="#E2DFF4"/>
<path d="M644.035 614.271H413.202C412.662 614.271 412.226 613.833 412.226 613.295C412.226 612.757 412.662 612.318 413.202 612.318H644.035C644.575 612.318 645.012 612.757 645.012 613.295C645.012 613.833 644.575 614.271 644.035 614.271Z" fill="#E2DFF4"/>
<path d="M667.502 266.703C667.502 297.563 642.496 322.569 611.664 322.569C580.805 322.569 555.799 297.563 555.799 266.703C555.799 235.843 580.805 210.837 611.664 210.837C642.496 210.837 667.502 235.843 667.502 266.703Z" fill="#F2F0FB"/>
<path d="M569.012 266.701C569.012 277.197 572.796 286.831 579.163 294.229C586.904 303.462 598.545 309.369 611.621 309.369C624.697 309.369 636.338 303.52 644.138 294.286C650.504 286.888 654.289 277.254 654.289 266.701C654.289 243.131 635.192 224.034 611.621 224.034C588.109 224.034 569.012 243.131 569.012 266.701Z" fill="#A8DFFF"/>
<path d="M579.146 294.221C586.884 303.463 598.534 309.352 611.602 309.352C624.711 309.352 636.318 303.507 644.141 294.307C638.037 290.739 631.032 288.16 623.423 286.87C619.64 286.183 615.642 285.838 611.602 285.838C608.377 285.838 605.195 286.053 602.143 286.484C593.632 287.644 585.852 290.352 579.146 294.221Z" fill="#FFA229"/>
<path d="M602.144 286.484V286.655C602.144 292.544 606.916 297.316 612.805 297.316C618.565 297.316 623.294 292.674 623.423 286.87C619.64 286.183 615.642 285.838 611.602 285.838C608.378 285.839 605.196 286.053 602.144 286.484Z" fill="#F35170"/>
<path d="M606.461 274.904V286.676C606.461 290.176 609.298 293.012 612.797 293.012C616.297 293.012 619.134 290.176 619.134 286.676V274.904H606.461Z" fill="#F6A285"/>
<path d="M598.372 270.647C598.717 273.056 600.036 274.891 601.355 274.719C603.075 280.855 607.319 285.844 612.308 285.844C617.298 285.844 621.541 280.855 623.205 274.719H623.262C624.524 274.891 625.9 273.056 626.187 270.647C626.474 268.296 625.613 266.231 624.351 266.059C624.122 266.059 623.951 266.059 623.721 266.117C622.574 259.522 617.929 255.45 612.308 255.45C606.689 255.45 600.413 250.719 600.839 266.117C600.667 266.059 600.438 266.059 600.265 266.059C598.947 266.231 598.086 268.296 598.372 270.647Z" fill="#F6A285"/>
<path d="M601.526 267.189C601.526 267.189 605.457 261.458 604.036 256.012C604.036 256.012 617.202 257.907 625.915 270.409C634.629 282.912 638.731 253.144 623.188 244.93C609.651 237.776 600.592 249.349 602.149 253.738C602.149 253.738 597.995 252.37 597.712 256.57C597.43 260.77 599.261 266.651 599.261 266.651C599.261 266.651 600.619 265.167 601.526 267.189Z" fill="#111D33"/>
<path d="M577.778 189.225H438.423C434.026 189.225 430.45 185.651 430.45 181.257V166.108H585.75V181.257C585.75 185.651 582.174 189.225 577.778 189.225ZM434.356 170.014V181.256C434.356 183.496 436.18 185.319 438.423 185.319H577.778C580.021 185.319 581.844 183.495 581.844 181.256V170.014H434.356Z" fill="#1C4670"/>
<path d="M604.847 139.827V164.289C604.847 168.889 601.118 172.617 596.519 172.617H419.682C415.082 172.617 411.354 168.889 411.354 164.289V139.827C411.354 135.227 415.082 131.499 419.682 131.499H596.519C601.118 131.499 604.847 135.227 604.847 139.827Z" fill="#1C4670"/>
<path d="M215.295 404.021C210.511 403.987 202.19 393.657 199.282 389.823C199.64 391.668 208.218 466.621 206.795 505.295C206.378 516.804 205.083 525.086 202.417 527.343C185.28 541.679 113.176 510.973 64.7564 537.255C39.4171 551.015 68.0192 415.195 68.0192 415.195C67.6183 415.203 48.9248 415.599 50.0957 415.574L49.8509 410.318L32.9004 411.108C33.1802 399.799 34.8753 346.399 41.1302 337.191C49.576 323.489 70.0853 309.406 85.8532 302.721C88.7446 301.548 91.839 300.388 94.8383 299.624C104.44 297.177 140.661 295.901 163.614 299.827C178.079 302.242 193.775 306.687 204.201 313.105C221.909 324.02 242.453 348.295 249.942 368.75C254.141 380.291 227.66 403.59 215.295 404.021Z" fill="#FFA229"/>
<path d="M206.796 505.293C206.378 516.803 205.083 525.085 202.418 527.342C185.281 541.677 113.177 510.971 64.7572 537.254C39.4179 551.014 68.02 415.194 68.02 415.194L53.1377 415.523C55.1042 412.131 56.8472 408.421 59.7747 405.904C63.7465 402.447 69.1007 402.335 72.2621 406.821C74.35 409.72 73.8012 412.562 74.1412 415.953C74.6644 421.333 76.353 426.388 76.5633 431.875C77.651 459.862 61.911 479.95 68.0419 518.068C68.534 520.817 69.4561 524.043 72.0896 525.012C74.8593 525.971 77.6717 523.933 80.0454 522.232C92.7158 513.421 109.459 513.052 124.664 515.75C148.796 520.102 182.644 534.62 194.716 518.027C197.906 513.548 199.387 505.426 206.796 505.293Z" fill="#EE9545"/>
<path d="M121.623 575.727C121.228 575.946 89.8924 593.383 91.8876 592.272C91.8876 592.272 39.5827 507.194 34.8966 485.122C30.2508 463.341 31.4041 416.402 35.2208 393.644L84.7248 399.793C76.4443 516.125 79.3045 475.94 78.685 484.646L121.623 575.727Z" fill="#F6A285"/>
<path d="M90.6406 589.629C91.7883 601.392 95.039 607.839 97.9446 611.301C100.54 614.527 108.313 624.022 112.621 622.697C115.383 621.844 111.221 613.738 112.075 612.651C113.174 617.992 118.21 624.01 120.772 622.974C123.373 621.926 120.483 614.207 121.338 613.12C121.761 615.451 124.6 623.062 128.854 622.191C132.817 621.38 126.984 610.925 127.879 609.841C128.301 612.169 132.954 620.742 135.857 619.522C139.356 618.05 135.066 604.908 133.415 600.441C128.626 587.479 144.773 596.525 147.811 591.763C151.384 586.163 129.194 579.268 120.899 575.778L90.6406 589.629Z" fill="#F6A285"/>
<path d="M91.8885 592.273C91.8885 592.273 39.5836 507.194 34.8976 485.122C30.2518 463.341 31.405 416.402 35.2218 393.644L84.7257 399.793L82.3099 433.856C71.522 436.768 68.6099 432.606 60.7592 432.077C53.2618 431.578 48.0502 431.211 43.7536 438.541C33.712 455.68 55.6316 468.785 59.6071 484.157C63.3862 498.717 57.2337 513.421 58.1562 528.114C58.4934 533.081 63.0939 535.676 66.4578 539.045C69.6802 542.235 73.176 545.013 76.2736 548.367C83.1129 555.787 81.0134 570.462 89.2197 576.495C92.265 578.738 91.8885 592.273 91.8885 592.273Z" fill="url(#paint0_linear_44_6474)"/>
<path d="M250.372 371.025C241.688 352.49 223.516 331.364 207.023 321.219C190.842 311.282 161.058 305.737 142.655 305.658C109.863 305.489 102.16 305.266 88.707 310.855C72.9091 317.515 52.4089 331.602 43.944 345.331C38.1505 354.767 36.4536 399.178 35.9401 410.953L32.8838 411.095C33.2077 398.746 34.8312 347.704 41.1136 337.205C49.5791 323.475 70.0789 309.389 85.8773 302.728C98.261 297.583 104.349 297.348 139.825 297.531C158.26 297.611 188.016 303.157 204.194 313.093C228.938 328.332 249.961 362.204 250.372 371.025Z" fill="#FFA229"/>
<path d="M171.597 327.579C177.209 344.057 190.419 375.051 199.563 389.863C175.892 360.999 171.597 327.579 171.597 327.579Z" fill="white"/>
<path d="M153.844 298.457L153.845 298.487L140.774 334.017C139.848 336.535 136.68 337.334 134.669 335.557L94.2314 299.805C94.2335 299.797 94.2324 299.799 94.2342 299.791C104.874 296.823 128.345 297.475 139.824 297.535C143.851 297.552 148.651 297.852 153.844 298.457Z" fill="white"/>
<path d="M215.284 404.001C214.438 404.01 213.431 403.678 212.352 403.057C218.625 390.814 235.226 388.94 243.75 378.629C245.906 376.048 247.482 372.911 247.94 369.591C248.137 368.183 247.645 365.753 248.031 364.014C248.747 365.615 249.375 367.19 249.943 368.739C254.223 380.225 227.67 403.609 215.284 404.001Z" fill="white"/>
<path d="M32.2894 410.266C33.2243 419.1 78.022 417.999 84.0478 411.563C96.0922 398.631 82.3675 346.646 82.3675 346.646C77.8587 346.553 98.7013 346.984 38.2708 345.735C30.9971 378.8 31.3794 390.729 32.2894 410.266Z" fill="#FFA229"/>
<path d="M32.2901 410.266C32.4562 411.835 33.9487 413.061 36.3559 414.015C36.6831 391.208 40.0738 362.561 43.6506 345.856L38.2715 345.735C31.241 377.694 31.3201 389.441 32.2901 410.266Z" fill="#FFA229"/>
<path d="M145.067 247.639L147.064 297.897L135.518 326.09L104.908 298.152L102.647 249.615L145.067 247.639Z" fill="#F6A285"/>
<path d="M135.517 326.096L104.907 298.157L103.203 261.57C103.283 261.436 103.363 261.304 103.486 261.168C105.591 258.27 109.38 257.32 112.876 256.554C115.798 261.025 119.659 265.325 120.851 270.567C122.269 276.962 123.686 283.357 125.059 289.712C125.921 293.417 126.742 297.171 128.742 300.35C131.302 304.451 135.517 326.096 135.517 326.096Z" fill="url(#paint1_linear_44_6474)"/>
<path d="M172.912 254.02C173.907 274.825 171.481 296.683 156.469 294.464C140.091 292.103 122.528 283.656 108.944 274.433C105.549 272.118 103.611 270.605 103.611 270.605L103.094 259.507C102.932 259.116 84.9178 240.622 100.84 233.687L102.549 209.417C131.116 206.851 157.965 205.784 168.613 218.75C168.665 219.15 172.13 237.237 172.912 254.02Z" fill="url(#paint2_linear_44_6474)"/>
<path d="M140.547 247.809C140.524 249.48 141.866 250.837 143.537 250.86C145.185 250.883 146.563 249.563 146.586 247.893C146.609 246.221 145.267 244.866 143.619 244.843C141.949 244.82 140.57 246.139 140.547 247.809Z" fill="#111D33"/>
<path d="M144.714 248.858C145.75 248.871 145.772 247.303 144.736 247.288C143.688 247.274 143.662 248.843 144.714 248.858Z" fill="#FBFBFB"/>
<path d="M83.4824 222.338C85.8363 233.406 94.3391 248.345 100.49 256.426C96.3754 249.103 93.3617 236.648 100.194 234.171C107.97 231.36 112.138 245.545 112.138 245.545C112.138 245.545 115.454 254.321 117.695 253.426C121.94 251.728 115.334 237.432 119.798 235.266C124.271 233.1 129.258 231.427 129.153 222.743C129.089 217.972 131.234 216.265 134.515 215.695C157.523 211.724 163.37 226.539 173.666 215.979C178.739 210.785 180.613 204.859 179.043 199.242C176.083 188.633 160.786 179.115 131.379 177.711C86.9275 175.591 98.5766 198.908 98.834 199.42C98.8428 199.429 98.8429 199.429 98.8429 199.429C83.6533 201.51 81.1384 211.375 83.4824 222.338Z" fill="black"/>
<path opacity="0.1" d="M179.564 203.658C179.485 202.952 179.339 202.271 179.147 201.593C176.202 190.967 160.895 181.466 131.492 180.041C103.262 178.7 97.6541 187.617 97.3762 194.433C96.5285 187.556 99.779 176.205 131.384 177.711C160.786 179.112 176.093 188.636 179.037 199.24C179.449 200.709 179.609 202.167 179.564 203.658Z" fill="white"/>
<path opacity="0.3" d="M156.467 294.463C153.846 294.079 151.254 293.557 148.689 292.899C150.362 293.261 152.065 293.553 153.767 293.812C180.885 297.821 168.619 218.745 168.619 218.745C168.619 218.745 184.505 298.631 156.467 294.463Z" fill="#FDE0BB"/>
<path d="M130.362 244.721C127.376 246.628 127.716 241.426 131.893 237.736C136.799 233.398 143.702 232.517 147.773 233.893C148.654 234.19 149.498 234.654 150.115 235.349C150.732 236.046 151.099 236.994 150.966 237.915C150.574 240.639 147.836 239.858 145.938 239.742C138.865 239.312 136.275 240.942 130.362 244.721Z" fill="#111D33"/>
<path d="M159.694 233.724C162.131 231.928 166.809 230.542 171.659 231.311C173.077 231.537 174.122 232.762 174.116 234.198C174.11 235.841 172.742 237.128 171.099 237.081C170.754 237.072 170.409 237.073 170.064 237.087C167.697 237.184 165.404 237.866 163.21 238.717C161.443 239.403 159.084 240.974 157.885 238.509C157.25 237.204 157.601 235.268 159.694 233.724Z" fill="#111D33"/>
<path d="M107.441 246.778C105.867 241.308 101.273 238.529 96.8915 241.219C96.4632 241.48 96.859 242.121 97.2843 241.865C101.276 239.431 105.229 242.067 106.663 246.862C105.726 246.193 104.726 245.973 103.191 246.527C101.198 247.256 101.622 248.879 102.252 248.711C102.257 248.709 102.263 248.708 102.272 248.706C102.467 248.641 102.576 248.429 102.514 248.229C102.217 247.318 105.507 246.028 106.875 248.072C106.889 248.095 106.922 248.08 106.94 248.097C107.687 251.661 107.211 252.556 107.907 252.503C107.93 252.5 107.955 252.497 107.974 252.491C108.148 252.445 108.269 252.281 108.253 252.096" fill="#E17659"/>
<path d="M100.49 256.432C96.3754 249.109 93.3616 236.654 100.194 234.177C107.97 231.366 112.138 245.551 112.138 245.551C112.138 245.551 115.454 254.327 117.695 253.432C121.94 251.734 115.334 237.438 119.798 235.272C124.271 233.106 129.258 231.433 129.153 222.749C129.089 217.978 131.234 216.271 134.515 215.701C157.523 211.73 163.37 226.545 173.666 215.985C178.739 210.791 180.613 204.865 179.043 199.248C178.757 199.552 178.462 199.825 178.156 200.072C166.327 209.575 143.053 194.277 126.451 202.314C120.178 205.347 115.463 212.498 117.227 219.238C117.784 221.371 118.941 223.332 119.293 225.516C120.115 230.487 115.778 233.349 111.79 229.331C110.479 228.016 109.503 226.372 108.057 225.198C105.174 222.857 100.574 223.005 97.8505 225.531C94.97 228.21 94.5193 232 91.9072 242.986C96.1158 250.53 100.232 256.094 100.49 256.432Z" fill="#111D33"/>
<path d="M83.4824 222.342C83.5552 222.305 83.594 222.07 83.5901 221.628C83.5059 216.234 87.2252 206.322 93.3315 202.731C99.2915 199.228 109.234 203.606 109.702 203.818C103.243 198.936 98.8431 199.434 98.8431 199.434C83.6533 201.515 81.1384 211.379 83.4824 222.342Z" fill="#111D33"/>
<path d="M161.805 263.787C156.666 262.021 159.527 262.204 155.484 264.081C153.404 265.047 155.841 259.711 157.591 259.63C159.328 259.549 164.273 264.634 161.805 263.787Z" fill="#E17659"/>
<path d="M151.428 274.554C151.077 274.53 150.804 274.889 150.954 275.207C152.466 278.425 155.613 280.562 159.147 280.335C162.605 280.113 165.428 277.727 166.624 274.488C166.747 274.155 166.45 273.821 166.101 273.883C161.469 274.71 156.569 274.914 151.428 274.554Z" fill="#E17659"/>
<path d="M150.026 247.472C149.955 247.551 149.955 247.551 149.881 247.554C147.928 246.98 145.825 246.337 143.943 245.683C140.745 247.302 139.365 249.119 134.496 249.529C134.422 249.533 134.344 249.464 134.341 249.388C134.411 249.313 134.411 249.313 134.411 249.313C135.676 247.843 137.113 246.89 138.63 246.079C140.225 245.339 141.904 244.816 143.502 244.148L143.576 244.144C144.039 243.963 143.847 243.814 149.945 247.33C150.022 247.399 150.026 247.472 150.026 247.472Z" fill="#111D33"/>
<path d="M164.33 246.697C164.307 248.368 165.649 249.724 167.32 249.748C168.968 249.771 170.347 248.451 170.369 246.781C170.392 245.109 169.051 243.753 167.402 243.73C165.732 243.708 164.353 245.026 164.33 246.697Z" fill="#111D33"/>
<path d="M173.8 246.361C173.73 246.44 173.73 246.44 173.655 246.444C171.703 245.869 169.6 245.226 167.718 244.572C164.52 246.191 163.139 248.008 158.27 248.418C158.196 248.422 158.119 248.353 158.115 248.277C158.185 248.202 158.185 248.202 158.185 248.202C160.978 244.956 164.407 244.236 167.276 243.037L167.35 243.034C167.568 242.948 167.789 242.938 167.941 243.006C169.914 244.025 171.816 245.123 173.719 246.22C173.796 246.289 173.8 246.361 173.8 246.361Z" fill="#111D33"/>
<path d="M168.498 247.746C169.535 247.758 169.553 246.19 168.519 246.175C167.472 246.162 167.445 247.73 168.498 247.746Z" fill="#FBFBFB"/>
<path d="M299.492 308.867C312.084 301.307 307.502 291.347 307.502 291.347C314.779 288.089 324.192 285.246 322.442 279.994C320.312 273.601 300.697 282.852 293.818 289.319C289.665 293.223 287.64 299.819 287.518 311.226" fill="#F6A285"/>
<path d="M306.914 301.539C308.53 298.438 308.821 294.603 307.431 291.38C307.066 290.637 322.689 286.777 322.516 281.185C322.866 272.121 296.056 284.394 291.262 292.827C288.013 298.597 287.815 305.108 287.518 311.244C287.7 305.03 287.742 298.64 290.982 292.664C295.435 284.436 322.532 271.558 322.779 281.18C322.885 285.995 312.891 289.041 307.535 291.416L307.573 291.31C309.418 295.657 308.61 301.051 303.748 305.739C301.709 307.643 299.082 309.13 299.475 308.875C300.051 308.373 304.622 305.919 306.914 301.539Z" fill="#E17659"/>
<path d="M776.742 889.131C782.524 877.955 799.598 881.09 814.435 881.09C822.282 881.09 824.483 875.649 824.831 870.519L853.112 869.503C857.961 877.385 860.401 892.951 860.33 902.683C860.296 907.402 856.443 911.184 851.723 911.184H785.164C781.929 911.184 778.994 909.367 777.501 906.497C775.309 902.286 773.313 895.761 776.742 889.131Z" fill="#4C5C75"/>
<path d="M881.013 889.131C886.794 877.955 903.868 881.09 918.706 881.09C926.553 881.09 928.753 875.649 929.102 870.519L957.383 869.503C962.231 877.385 964.67 892.951 964.6 902.683C964.566 907.402 960.713 911.184 955.994 911.184H889.435C886.2 911.184 883.264 909.367 881.771 906.497C879.58 902.286 877.584 895.761 881.013 889.131Z" fill="#4C5C75"/>
<path d="M775.166 899.567C775.596 902.206 776.511 904.591 777.5 906.49C778.994 909.361 781.929 911.178 785.164 911.178L851.723 911.176C856.443 911.176 860.296 907.397 860.329 902.676C860.337 901.706 860.3 900.642 860.257 899.568L775.166 899.567Z" fill="#111D33"/>
<path d="M879.438 899.567C879.866 902.206 880.783 904.591 881.772 906.49C883.265 909.361 886.201 911.178 889.436 911.178L955.995 911.176C960.714 911.176 964.567 907.397 964.601 902.676C964.609 901.706 964.571 900.642 964.528 899.568L879.438 899.567Z" fill="#111D33"/>
<path d="M819.52 868.811C820.371 871.238 822.712 872.855 825.265 872.855H853.141C855.78 872.855 858.036 871.154 858.93 868.726C870.591 836.595 851.864 782.332 856.759 723.517V723.473C857.696 711.727 859.653 699.81 862.931 687.85C873.144 650.74 877.06 618.693 877.996 593.116C878.889 568.006 876.89 549.067 875.06 537.533C873.655 529.021 872.378 524.51 872.378 524.51L804.88 514.167C804.473 517.897 794.173 591.713 792.282 672.87C790.367 752.711 801.092 816.932 819.52 868.811Z" fill="#497BFD"/>
<path d="M856.759 723.471C857.695 711.725 859.653 699.808 862.93 687.848C873.144 650.738 877.059 618.69 877.996 593.114L868.761 598.56C868.761 598.56 851.056 695.595 856.759 723.471Z" fill="#2C65E4"/>
<path d="M872.761 677.935C881.316 759.861 893.019 830.977 923.788 869.363C924.981 870.811 927.109 872.046 929.832 873.024C940.132 876.684 958.347 876.343 959.751 869.363C969.88 820.338 935.875 761.137 944.77 683.764C955.921 586.517 933.535 518.551 933.535 518.551H869.866C867.247 573.017 866.994 622.842 872.761 677.935Z" fill="#497BFD"/>
<path d="M869.526 523.957C880.86 533.048 896.163 535.265 907.488 544.298C920.172 554.385 925.576 571.45 925.96 587.666C926.386 603.924 922.554 619.926 920.172 636.014C914.469 674.317 912 717.77 926.683 753.604C942.048 791.055 946.431 836.297 929.832 873.024C940.132 876.684 958.347 876.343 959.751 869.363C969.88 820.338 935.876 761.137 944.771 683.764C955.922 586.517 933.535 518.551 933.535 518.551H869.866C869.866 518.551 869.74 520.423 869.526 523.957Z" fill="#2C65E4"/>
<path d="M693.521 298.657C693.521 298.657 683.654 301.063 691.497 307.614C691.497 307.614 682.996 309.625 689.978 315.962C689.978 315.962 684.405 319.891 690.683 324.808C693.474 327.026 695.337 328.824 697.519 330.537L697.546 330.539C699.678 332.164 702.075 333.668 705.905 335.321C708.066 336.265 709.637 338.155 710.067 340.458C713.093 356.841 725.978 421.777 741.932 430.651C760.215 440.824 794.881 409.962 794.881 409.962C792.501 406.702 803.501 421.77 771.608 378.084L758.47 389.799C759.233 382.69 749.245 368.903 742.494 362.187C735.742 355.472 732.258 325.588 732.258 325.588C732.258 325.588 703.686 289.093 690.914 281.167C685.227 279.051 682.667 283.659 693.521 298.657Z" fill="#F6A285"/>
<path d="M697.545 330.544C699.677 332.169 702.074 333.673 705.904 335.326C708.065 336.27 709.636 338.16 710.067 340.463C713.092 356.846 725.977 421.783 741.931 430.656C760.214 440.829 794.88 409.967 794.88 409.967L775.776 383.823C765.633 387.044 761.371 395.515 762.955 401.913C764.151 406.605 768.27 410.917 766.917 415.566C765.565 420.216 759.724 421.597 754.912 422.188C750.275 422.735 744.598 422.828 742.121 418.88C739.343 414.482 742.867 408.937 743.527 403.747C745.298 390.464 730.074 382.874 725.909 371.039C722.584 361.634 726.391 350.67 722.422 341.524C720.307 336.642 715.982 332.766 710.902 331.152C706.429 329.728 701.996 330.888 697.545 330.544Z" fill="url(#paint3_linear_44_6474)"/>
<path d="M966.617 416.265H950.172V421.412L932.771 421.777C932.771 421.777 939.149 489.377 942.201 524.315C943.75 541.99 818.525 551.92 803.174 521.172C801.762 518.303 800.669 514.339 799.94 509.602C794.747 476.532 804.222 405.515 804.54 403.146C804.085 403.874 802.217 407.975 797.116 411.163C796.113 411.8 795.157 412.165 794.291 412.21C782.172 412.359 755.488 390.674 759.17 379.641C765.427 360.318 778.827 341.115 796.387 329.122C806.181 322.472 821.122 317.461 835.06 314.409C859.948 309.417 892.748 309.355 901.614 311.175C901.75 311.175 901.841 311.22 901.978 311.265C902.069 311.265 902.16 311.311 902.206 311.311C920.963 314.852 950.419 335.16 955.684 345.703C957.461 348.71 959.01 354.722 960.376 362.102C963.747 380.004 965.843 405.834 966.617 416.265Z" fill="#C5ADFF"/>
<path d="M966.6 416.245H950.194V421.414L932.792 421.793C932.792 421.793 939.145 489.364 942.18 524.311C943.745 541.997 818.515 551.907 803.153 521.181C801.777 518.289 800.686 514.353 799.927 509.611C794.76 476.513 804.243 405.529 804.528 403.158C804.099 403.869 802.203 407.995 797.13 411.172C796.132 411.789 795.137 412.167 794.285 412.215C782.452 412.366 755.835 391.224 759.147 379.638C765.889 359.482 779.142 340.883 796.371 329.139C807.505 321.554 824.466 316.546 837.861 313.871C849.429 310.974 887.022 308.858 899.884 310.883C900.451 310.978 901.069 311.073 901.59 311.168C901.734 311.168 901.826 311.215 901.97 311.263C902.065 311.263 902.16 311.31 902.206 311.31C918.497 314.568 947.296 331.847 955.695 345.688C957.449 348.724 959.012 354.744 960.388 362.095C963.754 380.018 965.84 405.813 966.6 416.245Z" fill="#FFA229"/>
<path d="M759.497 380.563C767.068 362.231 778.49 347.701 793.997 337.137C806.6 328.564 827.012 323.09 842.073 320.696C856.433 318.385 882.752 317.658 892.466 318.324C895.008 318.493 897.324 318.776 899.244 319.171C899.442 319.2 899.64 319.256 899.837 319.313C916.094 322.862 942.708 338.136 952.941 353.123C954.862 355.948 956.557 362.247 958.025 370.1C960.313 382.416 962.432 402.838 963.646 416.285H966.613C965.85 405.832 963.732 379.987 960.398 362.106C959.014 354.735 957.433 348.746 955.681 345.695C946.898 331.705 919.788 315.202 902.351 311.346C902.295 311.346 902.266 311.319 902.21 311.319C902.012 311.262 901.815 311.206 901.617 311.179C892.557 309.308 858.496 309.517 835.039 314.454C821.142 317.475 806.171 322.478 796.369 329.143C779.224 340.837 765.35 359.241 759.808 378.331C759.602 379.043 759.497 379.773 759.497 380.563Z" fill="#FFA229"/>
<path d="M828.577 341.684C823.887 357.887 812.497 388.485 804.313 403.235C825.926 374.228 828.577 341.684 828.577 341.684Z" fill="#FFA229"/>
<path d="M794.318 412.207C795.137 412.178 796.097 411.811 797.114 411.162C788.963 396.927 764.355 397.602 761.157 380.371C760.902 379.017 761.269 376.643 760.817 374.978C760.196 376.559 759.658 378.113 759.179 379.638C755.557 390.935 782.297 412.388 794.318 412.207Z" fill="white"/>
<path d="M799.929 509.553C800.663 514.327 801.736 518.309 803.149 521.162C818.515 551.924 943.733 541.981 942.179 524.298C939.128 489.356 932.774 421.791 932.774 421.791L950.173 421.367V416.254H966.613C965.851 405.804 963.732 379.958 960.399 362.078C957.941 360.976 955.343 360.128 952.688 359.535C946.078 358.095 938.847 358.292 932.914 361.512C923.989 366.371 922.576 378.037 919.102 386.708C904.034 424.183 931.364 458.045 913.481 512.943C912.775 515.175 911.956 517.434 910.402 519.185C906.646 523.394 900.12 523.197 894.528 522.688C879.444 521.303 858.823 530.287 849.248 518.535C843.627 511.616 860.292 495.938 852.298 491.87C848.118 489.752 846.395 499.131 843.711 502.973C841.056 506.842 838.006 510.627 833.882 512.858C829.759 515.09 824.278 515.373 820.606 512.462C816.934 509.554 823.515 503.649 820.211 500.345C818.43 498.566 807.131 504.243 799.929 509.553Z" fill="#FFA229"/>
<path d="M840.238 407.744L868.478 521.731C869.964 527.732 866.305 532.595 860.305 532.595H776.984C770.984 532.595 764.915 527.732 763.428 521.731L735.189 407.744C733.702 401.744 737.361 396.879 743.361 396.879H826.682C832.682 396.879 838.752 401.744 840.238 407.744Z" fill="#FFDC98"/>
<path d="M719.328 331.667C708.64 325.253 712.732 311.037 712.732 311.037C705.77 308.511 702.583 308.223 703.849 303.239C705.391 297.172 718.462 302.707 725.273 308.234C729.383 311.57 731.705 317.543 732.59 328.104" fill="#F6A285"/>
<path d="M719.317 331.683C712.257 327.571 710.739 318.89 712.655 311.015L712.704 311.11C708.296 309.466 703.672 308.672 703.478 305.55C703.456 304.294 703.576 302.965 704.353 301.893C706.95 298.557 714.761 301.752 718.509 303.665C727.236 308.347 731.249 311.641 732.608 328.101C732.609 328.112 732.601 328.122 732.59 328.123C732.58 328.123 732.57 328.115 732.569 328.104C730.965 311.802 727.039 308.77 718.347 303.979C714.769 302.131 707.042 298.914 704.566 302.059C703.852 303.007 703.704 304.346 703.721 305.526C703.897 308.537 708.499 309.326 712.758 310.961C712.796 310.976 712.817 311.018 712.807 311.058C710.869 318.85 712.309 327.504 719.337 331.649C719.347 331.655 719.35 331.666 719.344 331.676C719.339 331.685 719.327 331.689 719.317 331.683Z" fill="#E17659"/>
<path d="M833.742 462.887C834.222 462.83 837.273 462.547 838.063 462.462C811.37 467.264 828.685 469.722 840.804 468.422C816.681 471.924 830.747 475.144 842.781 474.523C838.742 475.116 833.799 476.134 833.685 477.94C833.601 479.352 837.922 480.652 843.656 481.726C845.097 481.98 846.622 482.234 848.205 482.489C854.814 483.478 857.159 483.505 859.842 485.68C863.429 487.376 880.123 490.2 886.507 490.681C916.815 492.939 946.107 490.284 957.858 473.563C965.909 462.067 965.569 437.464 962.914 415.091H918.793C918.751 421.46 919.013 427.571 919.104 428.651C919.527 439.101 919.782 444.271 921.985 455.992C895.094 460.568 877.016 459.608 875.632 458.986C872.779 457.717 865.125 449.582 860.407 449.156C854.871 448.649 849.316 443.459 849.316 443.459L851.932 454.012C850.718 454.293 822.19 459.043 823.009 461.755C823.742 464.213 831.934 463.027 833.742 462.887Z" fill="#F6A285"/>
<path d="M843.654 481.728C845.095 481.982 846.62 482.236 848.203 482.491C854.812 483.48 857.157 483.507 859.84 485.682C863.428 487.378 880.121 490.202 886.505 490.683C916.813 492.941 946.105 490.286 957.856 473.565C965.907 462.069 965.568 437.466 962.912 415.093H918.791C918.749 421.462 919.011 427.573 919.102 428.653C919.13 428.68 919.158 428.709 919.187 428.709C928.927 433.577 935.609 429.392 942.038 427.72C945.541 426.844 949.411 426.619 952.517 428.454C957.743 431.534 958.393 438.708 958.477 444.781C958.563 451.616 958.167 459.497 952.772 463.706C948.619 466.927 942.885 466.842 937.688 467.492C914.37 470.433 892.915 491.576 869.331 483.677C865.8 482.49 862.523 480.654 859.021 479.383C855.547 478.084 851.648 477.378 848.118 478.564C846.366 479.13 844.757 480.259 843.654 481.728Z" fill="url(#paint4_linear_44_6474)"/>
<path d="M914.219 355.444L957.631 352.553C963.246 373.724 967.45 392.26 966.471 415.831C966.11 424.518 921.786 425.527 915.561 419.457C903.079 407.285 914.219 355.444 914.219 355.444Z" fill="#FFA229"/>
<path d="M915.91 419.83C925.619 425.869 966.126 423.88 966.471 415.831C967.448 392.264 963.251 373.726 957.618 352.544L952.337 352.91C957.797 373.633 964.631 391.688 963.683 414.826C963.367 422.126 926.229 422.474 915.91 419.83Z" fill="white"/>
<path d="M899.884 310.878L899.409 311.684C884.614 337.479 872.808 348.955 861.049 348.955C848.388 348.955 840.802 337.196 838.382 313.771C859.228 309.902 890.082 309.334 899.884 310.878Z" fill="white"/>
<path d="M815.025 223.657C815.025 223.657 811.203 231.317 820.477 241.159L831.5 220.882L815.025 223.657Z" fill="black"/>
<path d="M890.694 309.895V259.241H847.47V314.297C853.606 344.183 866.086 349.819 890.694 309.895Z" fill="#F6A285"/>
<path d="M820.605 267.409C822.026 282.841 826.528 297.745 838.157 300.515C850.124 303.38 878.221 290.209 885.469 284.792C888.815 282.287 890.693 280.627 890.693 280.627V269.334C890.693 269.334 896.063 263.243 898.085 256.717C899.77 251.396 899.217 245.786 891.753 242.97L888.863 218.363C859.706 217.111 831.801 215.979 821.568 229.656C821.552 230.103 818.976 250.064 820.605 267.409Z" fill="url(#paint5_linear_44_6474)"/>
<path d="M816.886 228.412C827.841 238.644 833.09 223.308 856.685 226.269C860.032 226.678 862.295 228.316 862.464 233.178C862.777 242.015 867.93 243.484 872.576 245.458C877.223 247.456 871.179 262.312 875.562 263.829C877.897 264.647 880.859 255.546 880.859 255.546C880.859 255.546 884.422 240.932 892.464 243.411C899.518 245.627 897.038 258.436 893.21 266.068C893.45 265.707 897.375 259.856 901.3 251.982C901.902 250.803 902.48 249.552 903.058 248.275C904.984 244.134 906.742 239.583 907.897 235.129C908.306 233.612 908.643 232.095 908.884 230.602C910.088 223.428 909.077 215.603 900.818 213.315C900.843 213.267 900.843 213.219 900.843 213.171C900.866 213.195 900.866 213.171 900.866 213.171C904.623 199.76 893.547 194.415 893.547 194.415C870.746 185.241 860.514 205.658 850.665 204.768C840.795 203.877 829.43 186.012 813.322 197.424C797.454 208.63 816.748 228.021 816.886 228.412Z" fill="black"/>
<path d="M838.224 270.898C838.44 270.765 838.683 271.029 838.601 271.327C838.124 273.055 837.25 274.601 836.074 275.571C834.719 276.688 832.848 277.156 831.489 276.164C829.864 274.98 828.712 272.497 829.701 271.894C830.417 271.457 831.618 273.644 832.516 273.726C836.139 274.061 837.363 271.421 838.224 270.898Z" fill="#E17659"/>
<path d="M885.684 256.585C886.168 254.546 887.023 252.886 888.221 251.648C889.639 250.191 891.565 249.407 893.375 249.55C894.282 249.619 895.215 249.918 896.148 250.432C896.334 250.534 896.403 250.767 896.301 250.953C896.195 251.142 895.96 251.205 895.779 251.107C894.939 250.648 894.115 250.382 893.312 250.316C891.729 250.189 890.034 250.888 888.774 252.184C887.7 253.291 886.935 254.798 886.478 256.633C886.932 256.277 887.443 256.001 888.02 255.918C888.61 255.832 889.254 255.899 889.993 256.129C890.347 256.239 890.753 256.392 891.079 256.697C891.458 257.059 891.627 257.582 891.504 258.031C891.45 258.228 891.251 258.348 891.051 258.304C891.046 258.303 891.04 258.302 891.031 258.3C890.829 258.243 890.709 258.032 890.763 257.826C890.81 257.652 890.725 257.421 890.553 257.255C890.343 257.059 890.036 256.949 889.765 256.865C889.15 256.669 888.607 256.612 888.13 256.68C887.395 256.784 886.702 257.241 886.321 257.874C886.307 257.897 886.273 257.884 886.255 257.903C886.036 259.259 885.926 260.64 885.878 262.058C885.871 262.272 885.694 262.435 885.48 262.429C885.457 262.427 885.432 262.425 885.412 262.42C885.233 262.381 885.102 262.22 885.11 262.031" fill="#E17659"/>
<path d="M848.441 258.66C848.441 259.982 847.364 261.041 846.042 261.041C844.739 261.041 843.662 259.983 843.662 258.66C843.662 257.338 844.739 256.281 846.042 256.281C847.364 256.281 848.441 257.338 848.441 258.66Z" fill="#111D33"/>
<path d="M841.204 258.216C841.228 258.24 841.277 258.264 841.301 258.264C842.818 257.807 844.286 257.374 845.779 256.892C846.863 257.518 847.874 258.24 849.005 258.842C850.185 259.372 851.461 259.781 852.882 259.877C852.93 259.877 852.978 259.853 852.978 259.781C852.978 259.757 852.978 259.733 852.954 259.733C852.039 258.65 850.956 257.879 849.8 257.252C848.597 256.675 847.344 256.29 846.14 255.76L846.068 255.736C845.924 255.688 845.779 255.688 845.659 255.736C844.166 256.482 842.697 257.3 841.228 258.095C841.204 258.12 841.18 258.168 841.204 258.216Z" fill="#111D33"/>
<path d="M826.961 258.333C826.961 259.655 825.885 260.713 824.562 260.713C823.259 260.713 822.183 259.655 822.183 258.333C822.183 257.011 823.259 255.954 824.562 255.954C825.885 255.954 826.961 257.011 826.961 258.333Z" fill="#111D33"/>
<path d="M823.322 258.954C822.501 258.954 822.501 257.712 823.322 257.712C824.151 257.712 824.151 258.954 823.322 258.954Z" fill="#FBFBFB"/>
<path d="M845.63 258.333C845.63 258.678 845.349 258.954 845.004 258.954C844.664 258.954 844.383 258.678 844.383 258.333C844.383 257.988 844.664 257.712 845.004 257.712C845.349 257.712 845.63 257.988 845.63 258.333Z" fill="#FBFBFB"/>
<path d="M819.825 257.929C821.424 257.458 823.033 257.006 824.611 256.478L824.137 256.461C825.28 257.113 826.358 257.894 827.518 258.51C828.716 259.052 829.977 259.468 831.401 259.556C831.452 259.56 831.497 259.521 831.5 259.47C831.501 259.443 831.493 259.42 831.478 259.403C830.553 258.315 829.465 257.555 828.314 256.92C827.126 256.36 825.855 255.965 824.648 255.44L824.585 255.413C824.449 255.353 824.299 255.362 824.175 255.423C822.684 256.162 821.225 256.976 819.758 257.77C819.668 257.819 819.724 257.958 819.825 257.929Z" fill="#111D33"/>
<path d="M839.834 245.306C835.814 247.236 837.891 251.779 841.602 250.551C842.471 250.264 843.282 249.768 844.124 249.379C847.405 247.866 851.182 248.064 854.346 249.915C854.97 250.279 855.585 250.711 856.268 250.838C856.951 250.964 857.739 250.701 858.083 249.964C859.511 246.911 847.545 241.609 839.834 245.306Z" fill="#111D33"/>
<path d="M831.203 245.7C831.984 246.075 832.818 246.698 832.96 247.716C833.169 249.21 831.863 250.687 829.757 249.99C829.047 249.755 828.382 249.35 827.694 249.032C825.01 247.794 821.92 247.955 819.331 249.469C818.821 249.768 818.317 250.121 817.759 250.225C817.2 250.328 816.556 250.114 816.274 249.511C815.081 246.957 824.966 242.708 831.203 245.7Z" fill="#111D33"/>
<path d="M807.423 211.959C809.156 220.579 816.885 228.404 816.885 228.404C827.84 238.636 833.089 223.3 856.684 226.261C860.031 226.671 862.295 228.308 862.463 233.171C862.776 242.007 867.929 243.476 872.575 245.45C877.222 247.449 871.178 262.304 875.561 263.822C877.896 264.639 880.858 255.538 880.858 255.538C880.858 255.538 884.421 240.924 892.463 243.403C899.517 245.619 897.037 258.429 893.209 266.061C893.449 265.699 897.374 259.848 901.299 251.975C901.901 250.795 902.479 249.544 903.057 248.267C902.816 247.377 902.527 246.534 902.166 245.691C900.143 240.852 895.713 236.397 890.488 236.759C887.479 236.976 884.854 238.709 882.085 239.888C875.974 242.493 871.327 240.428 871.178 233.773C871.106 231.582 871.492 229.367 871.251 227.176C870.528 220.41 864.076 215.402 857.407 214.078C841.146 210.85 820.422 225.578 807.423 211.959Z" fill="black"/>
<path d="M885.987 218.635C889.743 217.792 893.475 216.95 897.231 216.082C902.622 214.886 905.061 216.119 905.465 222.319C905.634 226.075 907.247 230.794 907.897 235.128C908.306 233.611 908.643 232.094 908.884 230.601C910.088 223.426 909.077 215.602 900.818 213.314C900.843 213.266 900.843 213.218 900.843 213.17C900.65 213.339 900.433 213.459 900.216 213.555C898.843 214.156 892.223 215.674 885.987 218.635Z" fill="black"/>
<path d="M837.848 282.794C834.895 283.271 832.128 283.292 829.558 282.828C829.056 282.738 828.64 283.208 828.829 283.682C829.471 285.301 830.989 288.161 833.7 288.161C836.374 288.161 837.918 285.267 838.571 283.654C838.76 283.185 838.347 282.713 837.848 282.794Z" fill="#E17659"/>
<path d="M500 783.226V896.167C500 901.25 495.875 905.365 490.793 905.365H306.398C301.316 905.365 297.19 901.25 297.19 896.167V783.226C297.19 778.143 301.316 774.018 306.398 774.018H490.793C495.875 774.018 500 778.143 500 783.226Z" fill="#FFA229"/>
<path d="M345.093 767.201V774.022H321.71V767.201C321.71 766.054 322.64 765.123 323.788 765.123H343.014C344.162 765.123 345.093 766.054 345.093 767.201Z" fill="#1C4670"/>
<path d="M475.482 767.201V774.022H452.1V767.201C452.1 766.054 453.03 765.123 454.178 765.123H473.404C474.552 765.123 475.482 766.054 475.482 767.201Z" fill="#1C4670"/>
<path d="M500.001 798.84H297.19V810.902H500.001V798.84Z" fill="#1C4670"/>
<path d="M434.664 855.636C434.664 875.559 418.515 891.699 398.592 891.699C378.678 891.699 362.528 875.559 362.528 855.636C362.528 835.712 378.678 819.572 398.592 819.572C418.515 819.572 434.664 835.712 434.664 855.636Z" fill="white"/>
<path d="M435.23 753.927V774.027H426.308V760.851C426.308 758.767 424.62 757.079 422.536 757.079H374.652C372.568 757.079 370.88 758.767 370.88 760.851V774.027H361.958V753.927C361.958 751.171 364.197 748.949 366.936 748.949H430.252C432.991 748.949 435.23 751.171 435.23 753.927Z" fill="#1C4670"/>
<path d="M418.309 861.865L408.615 856.268L418.089 850.798C418.765 850.407 418.997 849.542 418.607 848.866L415.103 842.798C414.713 842.121 413.848 841.889 413.172 842.28L403.328 847.963V836.343C403.328 835.562 402.695 834.929 401.914 834.929H394.907C394.126 834.929 393.493 835.562 393.493 836.343V847.537L384.018 842.067C383.342 841.676 382.477 841.908 382.087 842.584L378.583 848.653C378.193 849.329 378.424 850.194 379.101 850.584L388.944 856.268L378.881 862.078C378.205 862.468 377.973 863.333 378.364 864.009L381.867 870.078C382.257 870.754 383.122 870.986 383.799 870.595L393.493 864.998V875.938C393.493 876.719 394.126 877.352 394.907 877.352H401.914C402.695 877.352 403.328 876.719 403.328 875.938V864.572L413.391 870.382C414.068 870.772 414.933 870.541 415.323 869.864L418.827 863.796C419.217 863.12 418.985 862.255 418.309 861.865Z" fill="#1C4670"/>
<path d="M752.895 585.279C755.642 585.683 757.692 588.013 757.696 590.79L757.802 671.732C757.826 689.958 749.014 707.058 734.163 717.622L681.39 755.147C679.459 756.52 676.871 756.524 674.936 755.155L622.065 717.769C607.186 707.244 598.328 690.167 598.305 671.942L598.198 590.999C598.195 588.222 600.238 585.887 602.985 585.476C617.027 583.373 628.12 572.255 630.186 558.203C630.59 555.456 632.92 553.406 635.697 553.402L720.099 553.292C722.876 553.288 725.211 555.332 725.622 558.078C727.725 572.124 738.848 583.213 752.895 585.279Z" fill="#1C4670"/>
<path d="M706.179 671.255C721.739 655.694 721.739 630.467 706.179 614.907C690.619 599.347 665.391 599.346 649.831 614.907C634.271 630.467 634.271 655.695 649.831 671.255C665.391 686.815 690.619 686.815 706.179 671.255Z" fill="white"/>
<path d="M669.304 654.107L661.861 645.511C660.08 643.455 660.305 640.345 662.36 638.566C664.417 636.785 667.525 637.009 669.306 639.065L673.661 644.095L687.379 633.213C689.51 631.524 692.607 631.878 694.296 634.011C695.987 636.141 695.629 639.238 693.499 640.928L676.086 654.741C674.026 656.377 671.033 656.105 669.304 654.107Z" fill="#1C4670"/>
<path d="M841.595 103.366V150.226C841.595 152.312 839.904 154.003 837.819 154.003H808.634L797.989 169.356C796.487 171.521 793.285 171.522 791.783 169.357L782.253 155.627C781.548 154.61 780.389 154.003 779.151 154.003H751.943C749.857 154.003 748.166 152.312 748.166 150.226V103.366C748.166 101.281 749.857 99.5898 751.943 99.5898H837.819C839.904 99.5901 841.595 101.281 841.595 103.366Z" fill="#FFA229"/>
<path d="M779.467 125.553C779.467 130.034 775.848 133.653 771.367 133.653C766.921 133.653 763.302 130.034 763.302 125.553C763.302 121.107 766.921 117.488 771.367 117.488C775.848 117.488 779.467 121.107 779.467 125.553Z" fill="#1C4670"/>
<path d="M802.965 125.553C802.965 130.034 799.346 133.653 794.865 133.653C790.419 133.653 786.8 130.034 786.8 125.553C786.8 121.107 790.419 117.488 794.865 117.488C799.346 117.488 802.965 121.107 802.965 125.553Z" fill="#1C4670"/>
<path d="M826.461 125.553C826.461 130.034 822.842 133.653 818.361 133.653C813.915 133.653 810.296 130.034 810.296 125.553C810.296 121.107 813.915 117.488 818.361 117.488C822.842 117.488 826.461 121.107 826.461 125.553Z" fill="#1C4670"/>
</g>
<defs>
<linearGradient id="paint0_linear_44_6474" x1="33.7929" y1="494.344" x2="89.0075" y2="491.774" gradientUnits="userSpaceOnUse">
<stop offset="1e-07" stop-color="#F6A285"/>
<stop offset="1" stop-color="#FC6B58"/>
</linearGradient>
<linearGradient id="paint1_linear_44_6474" x1="104.63" y1="292.235" x2="136.792" y2="290.738" gradientUnits="userSpaceOnUse">
<stop offset="1e-07" stop-color="#F6A285"/>
<stop offset="1" stop-color="#FC6B58"/>
</linearGradient>
<linearGradient id="paint2_linear_44_6474" x1="191.254" y1="249.276" x2="52.6474" y2="254.853" gradientUnits="userSpaceOnUse">
<stop offset="1e-07" stop-color="#FDE0BB"/>
<stop offset="1" stop-color="#FC6B58"/>
</linearGradient>
<linearGradient id="paint3_linear_44_6474" x1="796.774" y1="387.309" x2="693.521" y2="378.678" gradientUnits="userSpaceOnUse">
<stop offset="1e-07" stop-color="#F6A285"/>
<stop offset="1" stop-color="#FC6B58"/>
</linearGradient>
<linearGradient id="paint4_linear_44_6474" x1="964.603" y1="453.234" x2="843.654" y2="453.234" gradientUnits="userSpaceOnUse">
<stop offset="1e-07" stop-color="#F6A285"/>
<stop offset="1" stop-color="#FC6B58"/>
</linearGradient>
<linearGradient id="paint5_linear_44_6474" x1="801.413" y1="259.615" x2="941.374" y2="258.733" gradientUnits="userSpaceOnUse">
<stop offset="1e-07" stop-color="#FDE0BB"/>
<stop offset="1" stop-color="#FC6B58"/>
</linearGradient>
<clipPath id="clip0_44_6474">
<rect width="1000" height="1021" fill="white"/>
</clipPath>
</defs>
</svg>
