<svg width="1080" height="1049" viewBox="0 0 1080 1049" fill="none" xmlns="http://www.w3.org/2000/svg">
<g clip-path="url(#clip0_1172_89)">
<rect width="1080" height="1049" fill="white"/>
<path d="M1174.1 782.638C1239.93 900.494 1144.67 1131.73 540.57 971.027C237.683 890.452 11.4205 1071.97 -35.1835 945.266C-143.783 650.151 299.715 308.771 546.335 547.106C771.762 764.958 1054.29 568.136 1174.1 782.638Z" stroke="#E4E4E4" stroke-width="4" stroke-miterlimit="10" stroke-dasharray="32.09 32.09"/>
<path d="M1074 1045H8C41.3614 798.595 267.251 608 540.982 608C814.713 608 1040.62 798.595 1074 1045Z" fill="#F6F5F5"/>
<path d="M966.029 262H479.971C457.343 262 439 280.387 439 303.068V1001.93C439 1024.61 457.343 1043 479.971 1043H966.029C988.657 1043 1007 1024.61 1007 1001.93V303.068C1007 280.387 988.657 262 966.029 262Z" fill="#A9BAE6"/>
<path d="M958 293H489V974H958V293Z" fill="#F6F5F5"/>
<path d="M957.75 293C957.894 558.379 966.467 878.446 936.641 949.321C805.277 962.116 651.456 966.221 489 967L550.752 295.05L957.75 293Z" fill="#E4E4E4"/>
<path d="M915.451 927.604C711.214 960.347 574.725 962.076 464 953.842C478.335 800.866 484.102 546.729 489.913 293L736.024 293.552L958.764 308.281C961.978 571.619 962.336 814.872 915.451 927.604Z" fill="white"/>
<path d="M843.485 362.302L597.273 356.5L596.39 394.002L842.601 399.804L843.485 362.302Z" fill="#708CD5"/>
<path d="M890.95 454.077L668.867 448.844L668.463 466.009L890.546 471.242L890.95 454.077Z" fill="#708CD5"/>
<path d="M818.929 489.839L667.977 486.281L667.572 503.446L818.524 507.003L818.929 489.839Z" fill="#D3DFFF"/>
<path d="M598.881 448.216L546.305 446.977L545.066 499.552L597.642 500.792L598.881 448.216Z" fill="white" stroke="#708CD5" stroke-width="6" stroke-miterlimit="10"/>
<path d="M554.083 460.464C555.725 466.748 558.758 493.074 571.959 485.712C575.003 484.038 577.578 479.529 579.857 476.945L592.147 463.026L616.693 435.176C618.793 432.799 609.531 426.833 606.9 429.819L585.081 454.57L574.171 466.949C571.646 469.812 565.791 479.043 562.065 479.863L568.171 481.833C569.612 483.011 566.937 474.651 566.875 474.422C565.866 470.541 564.851 466.659 563.831 462.774C562.993 459.571 552.865 455.714 554.105 460.464H554.083Z" fill="#FFA229"/>
<path d="M849.499 548.747L666.617 544.438L666.213 561.602L849.094 565.912L849.499 548.747Z" fill="#708CD5"/>
<path d="M890.067 582.802L667.922 578.359L667.578 595.529L889.724 599.972L890.067 582.802Z" fill="#D3DFFF"/>
<path d="M596.631 543.794L544.055 542.555L542.816 595.131L595.392 596.37L596.631 543.794Z" fill="white" stroke="#708CD5" stroke-width="6" stroke-miterlimit="10"/>
<path d="M552.083 557.926C553.725 564.101 556.758 589.968 569.959 582.735C573.003 581.09 575.578 576.659 577.857 574.12L590.147 560.438L614.693 533.079C616.793 530.743 607.531 524.853 604.9 527.815L583.081 552.135L572.171 564.293C569.646 567.106 563.791 576.182 560.065 576.988L566.171 578.923C567.612 580.081 564.937 571.866 564.881 571.641C563.864 567.828 562.849 564.013 561.836 560.196C560.993 557.049 550.865 553.259 552.105 557.926H552.083Z" fill="#FFA229"/>
<path d="M886.443 645.249L664.359 640.016L663.955 657.181L886.038 662.414L886.443 645.249Z" fill="#708CD5"/>
<path d="M762.804 679.786L663.484 677.445L663.08 694.61L762.4 696.951L762.804 679.786Z" fill="#D3DFFF"/>
<path d="M594.388 639.372L541.812 638.133L540.573 690.709L593.149 691.948L594.388 639.372Z" fill="white" stroke="#708CD5" stroke-width="6" stroke-miterlimit="10"/>
<path d="M551.104 653.921C552.72 660.097 555.704 685.969 568.691 678.734C571.687 677.089 574.22 672.657 576.457 670.118L588.548 656.439L612.698 629.07C614.764 626.733 605.652 620.87 603.063 623.804L581.59 648.129L570.84 660.295C568.356 663.108 562.596 672.18 558.931 672.986L564.943 674.923C566.356 676.08 563.728 667.864 563.668 667.639C562.675 663.829 561.677 660.013 560.673 656.192C559.848 653.044 549.879 649.254 551.104 653.921Z" fill="#FFA229"/>
<path d="M886.981 736.607L664.836 732.164L664.493 749.334L886.638 753.777L886.981 736.607Z" fill="#708CD5"/>
<path d="M836.673 777.158L661.234 773.023L660.83 790.188L836.269 794.323L836.673 777.158Z" fill="#D3DFFF"/>
<path d="M592.123 734.958L539.547 733.719L538.308 786.295L590.884 787.534L592.123 734.958Z" fill="white" stroke="#708CD5" stroke-width="6" stroke-miterlimit="10"/>
<path d="M548.056 749.399C549.699 755.463 552.734 780.861 565.941 773.757C568.987 772.142 571.563 767.79 573.838 765.302L586.134 751.838L610.693 724.97C612.794 722.676 603.527 716.892 600.895 719.8L579.058 743.685L568.176 755.651C565.65 758.414 559.793 767.327 556.065 768.113L562.179 770.014C563.621 771.156 560.944 763.089 560.883 762.868C559.869 759.119 558.854 755.373 557.837 751.628C556.998 748.532 546.86 744.81 548.106 749.399H548.056Z" fill="#FFA229"/>
<path d="M747.898 832.536L659.867 830.461L659.463 847.626L747.494 849.7L747.898 832.536Z" fill="#708CD5"/>
<path d="M880.952 873.447L659.402 868L659 885.887C744.718 887.986 853.853 892.179 876.123 888.613C879.504 884.57 881.326 879.641 880.952 873.447Z" fill="#D3DFFF"/>
<path d="M590.631 829.841L538.055 828.602L536.816 881.177L589.392 882.416L590.631 829.841Z" fill="white" stroke="#708CD5" stroke-width="6" stroke-miterlimit="10"/>
<path d="M547.059 842.943C548.709 849.115 551.666 874.965 564.65 867.735C567.641 866.091 570.18 861.662 572.418 859.129L584.512 845.426L608.699 818.08C610.76 815.739 601.652 809.858 599.057 812.812L577.585 837.122L566.849 849.279C564.364 852.091 558.603 861.157 554.937 861.963L560.951 863.898C562.363 865.06 559.736 856.844 559.675 856.624C558.675 852.809 557.676 848.996 556.679 845.185C555.855 842.033 545.883 838.246 547.103 842.916L547.059 842.943Z" fill="#FFA229"/>
<path d="M828 267.33V320H617V267.33C616.995 263.333 617.777 259.373 619.301 255.679C620.825 251.985 623.062 248.628 625.882 245.802C626.559 245.119 627.274 244.475 628.025 243.875C633.454 239.349 640.297 236.88 647.357 236.898C652.728 236.9 658.029 235.689 662.868 233.354C664.915 232.362 666.868 231.183 668.701 229.832C674.864 225.262 679.395 218.824 681.626 211.471C683.864 204.102 688.405 197.65 694.579 193.064C700.752 188.478 708.232 186.002 715.916 186H729.084C736.768 186.002 744.248 188.478 750.422 193.064C756.595 197.65 761.136 204.102 763.374 211.471C765.602 218.843 770.143 225.298 776.322 229.877C778.154 231.227 780.107 232.406 782.154 233.398C786.993 235.733 792.295 236.944 797.665 236.942C805.703 236.954 813.409 240.158 819.094 245.854C824.78 251.55 827.982 259.272 828 267.33Z" fill="#FFA229"/>
<path d="M845 293V333H600V293H617.106V319.418H827.894V293H845Z" fill="#E4E4E4"/>
<path d="M722.5 235C732.717 235 741 226.941 741 217C741 207.059 732.717 199 722.5 199C712.283 199 704 207.059 704 217C704 226.941 712.283 235 722.5 235Z" fill="white"/>
<path d="M393.455 488.113C386.442 486.761 379.889 474.805 377.612 470.221C377.051 469.1 376.869 467.821 377.094 466.583L379.889 451.49C379.889 451.49 386.328 452.604 385.831 461.355C385.795 462.266 385.946 463.174 386.276 464.022L388.745 470.602L396.033 464.845L392.037 453.328C392.037 453.328 386.685 454.828 383.921 453.93C378.228 452.081 385.686 447.593 388.062 447.065C390.438 446.536 395.588 444.667 397.938 448.744C400.287 452.821 401.7 455.224 401.7 455.224C401.7 455.224 404.288 446.103 402.523 425.714C402.446 424.795 404.697 424.816 405.329 425.476C407.223 427.441 410.241 433.424 410.401 451.622C410.401 451.622 410.717 430.414 414.278 428.233C417.218 426.432 418.703 436.814 416.633 454.416C416.633 454.416 420.468 439.175 423.217 439.148C427.849 439.101 423.273 479.854 411.628 492L393.455 488.113Z" fill="#F9B384"/>
<path d="M416 482C415.791 484.028 415.561 485.994 415.31 487.895C414.594 493.933 413.56 499.929 412.213 505.856C412.15 506.11 412.108 506.342 412.046 506.574C408.468 521.366 407.819 528.634 395.6 526.69L383.046 512.237L382.921 512.089L382 511.033L384.553 503.426L384.887 502.433L386.77 496.897L387.001 496.178L390.223 486.67L391.52 482.803L416 482Z" fill="#F9B384"/>
<path d="M181.022 1005L177.8 1015.26C155.688 1022.65 142.827 1031.12 142 1041H205.877L211 1006.68C198.064 1009.87 187.693 1007.64 181.022 1005Z" fill="#1F3C88"/>
<path d="M188.941 980L181 1005.72C187.615 1008.39 197.899 1010.64 210.727 1007.39L214 985.048L188.941 980Z" fill="#F9B384"/>
<path d="M299.046 1004.87L301 979L269.707 980.603L268 1004.45C281.236 1008.56 292.216 1006.95 299.046 1004.87Z" fill="#F9B384"/>
<path d="M335 1041C334.167 1031.26 322.792 1017.93 297.846 1014.76L298.61 1004.41C291.992 1006.47 281.403 1008.06 268.595 1004L266 1040.98L335 1041Z" fill="#1F3C88"/>
<path d="M274 494.742L239 495V439H272.941L272.962 442.425L273.125 460.172L273.369 488.668L274 494.742Z" fill="#F9B384"/>
<path d="M273 463.355C266.629 470.192 250.01 462.472 243 454.941L272.835 446L273 463.355Z" fill="#E28B6D"/>
<path d="M281.999 427.59C282.008 431.615 281.692 435.634 281.056 439.61C279.296 450.398 274.644 459.686 263.916 459.974C238.562 460.693 231.333 446.474 226.555 434.843C221.778 423.213 229.531 395.185 229.531 395.185L262.344 392L280.364 406.487C281.485 413.467 282.031 420.524 281.999 427.59Z" fill="#F9B384"/>
<path d="M226.726 428C226.726 428 234.036 427.673 235.285 409.164C248.352 413.454 257.906 409.543 265.453 401.001C271.91 409.367 289.985 411.989 296.087 394.857C300.512 382.482 288.339 364.046 270.608 375.211C253.232 366.596 226.875 367.188 219.269 388.319C219.269 388.319 192.906 400.263 220.825 426.51C221.402 427.034 226.726 428 226.726 428Z" fill="#102048"/>
<path d="M326 691L306.3 992H260L271.574 699.919L278.659 696.604L326 691Z" fill="#102048"/>
<path d="M204.797 649.377L172 992H222.936L271.433 707.41L326.556 690.628L329 629.795L206.189 627L204.797 649.377Z" fill="#1F3C88"/>
<path opacity="0.6" d="M212.347 651.153C240.168 661.307 305.445 649.706 319 635.563L309.37 616L202 630.5L212.347 651.153Z" fill="#102048"/>
<path d="M317 630.402C316.097 630.779 315.174 631.176 314.229 631.532C302.935 636.109 291.225 639.587 279.261 641.919C271.527 643.449 263.691 644.408 255.816 644.788C243.465 645.479 231.078 644.478 219 641.815L234.637 496.355L236.547 478.618C236.547 478.618 257.012 503.747 279.576 476L317 630.402Z" fill="white"/>
<path opacity="0.3" d="M255.338 644.788C243.148 645.48 230.922 644.477 219 641.808L234.434 496.068L239.945 488C253.556 521.529 267.499 595.795 255.338 644.788Z" fill="#1F3C88"/>
<path d="M237.96 472C253.54 538.235 259.95 606.391 236.998 682.076C219.977 688.557 201.441 688.484 181.612 682.776L186.518 545.184L71.0093 624.687L64 581.34C108.401 538.829 185.172 474.633 237.96 472Z" fill="#708CD5"/>
<path opacity="0.3" d="M314 631.498C302.769 636.125 291.123 639.642 279.226 642C272.338 601.812 270.814 535.792 276.429 506L314 631.498Z" fill="#1F3C88"/>
<path opacity="0.6" d="M412 506.42C411.938 506.666 411.896 506.893 411.834 507.119C408.292 521.516 407.65 528.591 395.553 526.699L383.124 512.631L383 512.487L384.616 504.054L384.947 503.088L386.811 497.699L387.039 497L412 506.42Z" fill="#E28B6D"/>
<path d="M410 519.478C410 519.478 379.001 585.055 360.612 586.629C342.785 588.156 334.341 570.891 334.341 570.891L346.951 666.728C332.135 673.653 315.952 677.031 297.205 673.716C280.54 619.68 274.24 549.811 273 472C286.492 472.839 313.215 473.988 322.782 480.132C339.947 491.149 361.137 530.495 361.137 530.495L385.831 496.919L410 519.478Z" fill="#708CD5"/>
<path d="M32 427.06C32 427.06 33.9159 395.581 37.1843 397.05C40.4526 398.519 47 425.912 47 425.912L39.9964 437L32 427.06Z" fill="#6F3428"/>
<path d="M125.935 993L126.867 1003.62C127.655 1012.62 124.921 1021.58 119.264 1028.52C113.608 1035.46 105.494 1039.81 96.7057 1040.62L94.0404 1040.86C89.6894 1041.26 85.304 1040.78 81.1346 1039.45C76.9652 1038.11 73.0934 1035.95 69.7404 1033.08C66.3874 1030.21 63.6188 1026.69 61.5928 1022.73C59.5668 1018.76 58.3229 1014.42 57.9323 1009.97L57 999.347L125.935 993Z" fill="#EE6F57"/>
<path d="M81.402 493.203L12.6562 499.375L57.5958 999.953L126.342 993.781L81.402 493.203Z" fill="#FBC343"/>
<path opacity="0.3" d="M58.3308 485.144L33.9141 487.336L73.3052 926.11L97.722 923.918L58.3308 485.144Z" stroke="#6F3428" stroke-width="8" stroke-miterlimit="10"/>
<path d="M126 992.929L56.9839 999L55.1693 979.176L53.9034 965.403L50 923.071L119.037 917L122.919 959.332L124.185 973.105L126 992.929Z" fill="#102048"/>
<path d="M123.377 959.529L54.6484 965.711L55.9092 979.727L124.638 973.544L123.377 959.529Z" fill="#FBC343"/>
<path d="M12 499L31.4453 422.023C31.4453 422.023 38.1517 424.966 46.2914 420L82 492.787L12 499Z" fill="#EE6F57"/>
<path d="M231.017 424.497C230.703 423.348 225.428 421.773 224.267 421.458C222.469 420.966 220.487 420.72 218.759 421.506C212.381 424.358 213.235 433.39 216.539 438.139C218.4 440.86 221.155 442.861 224.337 443.801C225.498 444.127 236.465 444.26 235.985 442.513L231.017 424.497Z" fill="#F9B384"/>
<path d="M35.8829 603.624C35.5215 602.429 34.9211 601.319 34.1174 600.359C33.3138 599.399 32.3233 598.609 31.2052 598.037C30.087 597.464 28.8639 597.121 27.6088 597.027C26.3538 596.932 25.0924 597.089 23.8999 597.488C16.0466 600.175 9.20598 604.732 8.14587 612.488C7.18069 619.548 10.7461 642.099 26.6636 645L25.3661 633.413C25.3661 633.413 35.1129 631.161 37.0591 626.975C38.4251 624.043 38.52 611.808 35.8829 603.624Z" fill="#F9B384"/>
<path d="M329.712 526C330.462 530.961 331.099 535.937 331.708 540.919C332.316 545.9 332.844 550.903 333.42 555.879L334.882 570.866C335.307 575.874 335.726 580.85 336 585.905L335.269 586C334.495 581.039 333.854 576.063 333.245 571.081L331.561 556.121C331.09 551.118 330.542 546.137 330.146 541.123C329.75 536.11 329.297 531.113 329 526.095L329.712 526Z" fill="#1F3C88"/>
<path d="M188 525.021C188 530.61 187.889 536.198 187.765 541.782C187.642 547.365 187.443 552.964 187.292 558.547L186.603 575.282C186.321 580.86 186.03 586.432 185.621 592L185 591.958C185 586.364 185.099 580.781 185.215 575.197L185.7 558.453C185.943 552.874 186.122 547.291 186.416 541.718C186.711 536.146 186.981 530.568 187.371 525L188 525.021Z" fill="#1F3C88"/>
<path d="M256.869 423.924C257.351 425.82 256.462 427.61 254.878 427.947C253.294 428.284 251.613 426.972 251.131 425.076C250.649 423.18 251.538 421.39 253.122 421.053C254.706 420.716 256.381 422.028 256.869 423.924Z" fill="#102048"/>
<path d="M277.995 422.61C277.896 424.542 276.48 426.058 274.825 425.998C273.17 425.938 271.901 424.327 272.006 422.39C272.111 420.453 273.521 418.942 275.17 419.002C276.82 419.062 278.089 420.673 277.995 422.61Z" fill="#102048"/>
<path d="M264.92 424C265.733 425.569 265.602 427.256 266.106 428.54C266.31 429.137 266.704 429.681 267.251 430.118C267.929 430.506 268.682 430.801 269.481 430.991C270.603 431.327 271.579 431.914 272.293 432.682C272.698 433.127 272.94 433.654 272.99 434.202C273.04 434.751 272.898 435.3 272.578 435.787C271.999 436.554 271.205 437.203 270.259 437.682C269.446 438.123 268.663 438.588 267.815 439L267.221 438.441C267.844 437.829 268.526 437.27 269.179 436.687C269.807 436.233 270.327 435.692 270.715 435.09C271.214 434.213 270.122 433.251 268.58 432.758C267.779 432.464 266.622 432.209 265.691 431.446C264.871 430.755 264.339 429.88 264.167 428.938C263.775 427.185 264.226 425.682 264.012 424.199L264.92 424Z" fill="#E28B6D"/>
<path d="M246 418.714C246.35 417.692 247.13 416.786 248.22 416.135C249.341 415.449 250.72 415.055 252.155 415.009C253.545 414.948 254.928 415.192 256.141 415.712C257.354 416.233 258.346 417.007 259 417.944L258.338 418.358C256.639 417.262 254.484 416.663 252.258 416.669C251.17 416.71 250.109 416.942 249.158 417.346C248.206 417.75 247.389 418.316 246.771 419L246 418.714Z" fill="#102048"/>
<path d="M268 416.636C268.343 415.763 268.955 414.973 269.779 414.339C270.661 413.656 271.785 413.209 272.996 413.06C275.426 412.737 278.043 413.734 279 415.467L278.292 415.895C276.853 415.066 275.084 414.695 273.324 414.853C272.487 414.954 271.684 415.189 270.962 415.544C270.176 415.975 269.44 416.462 268.765 417L268 416.636Z" fill="#102048"/>
<path d="M257 444C260.279 450.256 264.632 450.938 268 444.355L257 444Z" fill="white"/>
<path opacity="0.4" d="M282 426C281.971 430.351 281.584 434.696 280.842 439C279.432 438.614 278.203 437.85 277.332 436.821C276.461 435.791 275.994 434.549 276 433.275C276.006 430.264 278.716 426.459 282 426Z" fill="#FC8879"/>
<path opacity="0.4" d="M247.5 444C251.09 444 254 441.09 254 437.5C254 433.91 251.09 431 247.5 431C243.91 431 241 433.91 241 437.5C241 441.09 243.91 444 247.5 444Z" fill="#FC8879"/>
<path d="M226.386 432C225.257 431.064 224.073 430.21 222.843 429.443C222.366 429.149 221.827 428.997 221.28 429.001C220.679 429.113 220.115 429.395 219.644 429.82L219 429.367C219.133 428.866 219.371 428.406 219.695 428.023C220.019 427.641 220.421 427.347 220.867 427.165C221.338 427.012 221.833 426.964 222.321 427.026C222.809 427.088 223.281 427.258 223.708 427.526C225.186 428.399 226.347 429.799 227 431.494L226.386 432Z" fill="#E28B6D"/>
<path opacity="0.6" d="M37 627L27.0571 656L25 633.339C31.1822 632.048 34.5571 629.673 37 627Z" fill="#6F3428"/>
<path d="M0 1044L1080 1044" stroke="#1C4670" stroke-width="8" stroke-miterlimit="10"/>
</g>
<defs>
<clipPath id="clip0_1172_89">
<rect width="1080" height="1049" fill="white"/>
</clipPath>
</defs>
</svg>
