<svg width="1386" height="771" viewBox="0 0 1386 771" fill="none" xmlns="http://www.w3.org/2000/svg">
<g clip-path="url(#clip0_1159_5201)">
<path d="M1386 67H0V731H1386V67Z" fill="white"/>
<path d="M560.359 407.931L521.827 430.178L521.827 385.684L560.359 407.931Z" fill="#FFA229"/>
<path d="M825.008 466.696L863.541 488.943L863.541 444.449L825.008 466.696Z" fill="#1C4670"/>
<g filter="url(#filter0_d_1159_5201)">
<circle cx="299.594" cy="437.5" r="227.5" fill="#FFA229"/>
</g>
<g filter="url(#filter1_d_1159_5201)">
<circle cx="1085.4" cy="437.5" r="227.5" fill="#1C4670"/>
</g>
<g filter="url(#filter2_d_1159_5201)">
<circle cx="299.146" cy="437.146" r="183.146" fill="white"/>
</g>
<path d="M269.057 394.719V426H263.664L249.635 403.592V426H244.242V394.719H249.635L263.707 417.17V394.719H269.057ZM288.07 421.338V410.252C288.07 409.421 287.92 408.705 287.619 408.104C287.318 407.502 286.86 407.036 286.244 406.707C285.643 406.378 284.883 406.213 283.967 406.213C283.122 406.213 282.391 406.356 281.775 406.643C281.16 406.929 280.68 407.316 280.336 407.803C279.992 408.29 279.82 408.841 279.82 409.457H274.664C274.664 408.54 274.886 407.652 275.33 406.793C275.774 405.934 276.419 405.167 277.264 404.494C278.109 403.821 279.118 403.291 280.293 402.904C281.467 402.518 282.785 402.324 284.246 402.324C285.993 402.324 287.54 402.618 288.887 403.205C290.247 403.792 291.314 404.68 292.088 405.869C292.876 407.044 293.27 408.519 293.27 410.295V420.629C293.27 421.689 293.341 422.641 293.484 423.486C293.642 424.317 293.864 425.04 294.15 425.656V426H288.844C288.6 425.441 288.407 424.732 288.264 423.873C288.135 422.999 288.07 422.154 288.07 421.338ZM288.822 411.863L288.865 415.064H285.148C284.189 415.064 283.344 415.158 282.613 415.344C281.883 415.516 281.274 415.773 280.787 416.117C280.3 416.461 279.935 416.876 279.691 417.363C279.448 417.85 279.326 418.402 279.326 419.018C279.326 419.633 279.469 420.199 279.756 420.715C280.042 421.216 280.458 421.61 281.002 421.896C281.561 422.183 282.234 422.326 283.021 422.326C284.081 422.326 285.005 422.111 285.793 421.682C286.595 421.238 287.225 420.701 287.684 420.07C288.142 419.426 288.385 418.817 288.414 418.244L290.09 420.543C289.918 421.13 289.624 421.76 289.209 422.434C288.794 423.107 288.249 423.751 287.576 424.367C286.917 424.969 286.122 425.463 285.191 425.85C284.275 426.236 283.215 426.43 282.012 426.43C280.493 426.43 279.14 426.129 277.951 425.527C276.762 424.911 275.831 424.088 275.158 423.057C274.485 422.011 274.148 420.829 274.148 419.512C274.148 418.28 274.378 417.191 274.836 416.246C275.309 415.286 275.996 414.484 276.898 413.84C277.815 413.195 278.932 412.708 280.25 412.379C281.568 412.035 283.072 411.863 284.762 411.863H288.822ZM303.861 407.48V426H298.684V402.754H303.561L303.861 407.48ZM303.023 413.518L301.262 413.496C301.262 411.892 301.462 410.41 301.863 409.049C302.264 407.688 302.852 406.507 303.625 405.504C304.398 404.487 305.358 403.706 306.504 403.162C307.664 402.604 309.003 402.324 310.521 402.324C311.581 402.324 312.548 402.482 313.422 402.797C314.31 403.098 315.076 403.577 315.721 404.236C316.38 404.895 316.881 405.74 317.225 406.771C317.583 407.803 317.762 409.049 317.762 410.51V426H312.584V410.961C312.584 409.829 312.412 408.941 312.068 408.297C311.739 407.652 311.259 407.194 310.629 406.922C310.013 406.635 309.275 406.492 308.416 406.492C307.442 406.492 306.611 406.678 305.924 407.051C305.251 407.423 304.699 407.932 304.27 408.576C303.84 409.221 303.525 409.965 303.324 410.811C303.124 411.656 303.023 412.558 303.023 413.518ZM317.439 412.143L315.012 412.68C315.012 411.276 315.205 409.951 315.592 408.705C315.993 407.445 316.573 406.342 317.332 405.396C318.105 404.437 319.058 403.685 320.189 403.141C321.321 402.596 322.617 402.324 324.078 402.324C325.267 402.324 326.327 402.489 327.258 402.818C328.203 403.133 329.005 403.635 329.664 404.322C330.323 405.01 330.824 405.905 331.168 407.008C331.512 408.096 331.684 409.414 331.684 410.961V426H326.484V410.939C326.484 409.765 326.312 408.855 325.969 408.211C325.639 407.566 325.167 407.122 324.551 406.879C323.935 406.621 323.197 406.492 322.338 406.492C321.536 406.492 320.827 406.643 320.211 406.943C319.609 407.23 319.101 407.638 318.686 408.168C318.27 408.684 317.955 409.278 317.74 409.951C317.54 410.624 317.439 411.355 317.439 412.143ZM347.26 426.43C345.541 426.43 343.987 426.15 342.598 425.592C341.223 425.019 340.048 424.224 339.074 423.207C338.115 422.19 337.377 420.994 336.861 419.619C336.346 418.244 336.088 416.762 336.088 415.172V414.312C336.088 412.493 336.353 410.846 336.883 409.371C337.413 407.896 338.15 406.635 339.096 405.59C340.041 404.53 341.158 403.721 342.447 403.162C343.736 402.604 345.133 402.324 346.637 402.324C348.298 402.324 349.752 402.604 350.998 403.162C352.244 403.721 353.275 404.508 354.092 405.525C354.923 406.528 355.538 407.724 355.939 409.113C356.355 410.503 356.562 412.035 356.562 413.711V415.924H338.602V412.207H351.449V411.799C351.421 410.868 351.234 409.994 350.891 409.178C350.561 408.361 350.053 407.702 349.365 407.201C348.678 406.7 347.761 406.449 346.615 406.449C345.756 406.449 344.99 406.635 344.316 407.008C343.658 407.366 343.106 407.889 342.662 408.576C342.218 409.264 341.874 410.094 341.631 411.068C341.402 412.028 341.287 413.109 341.287 414.312V415.172C341.287 416.189 341.423 417.134 341.695 418.008C341.982 418.867 342.397 419.619 342.941 420.264C343.486 420.908 344.145 421.417 344.918 421.789C345.691 422.147 346.572 422.326 347.561 422.326C348.807 422.326 349.917 422.076 350.891 421.574C351.865 421.073 352.71 420.364 353.426 419.447L356.154 422.09C355.653 422.82 355.001 423.522 354.199 424.195C353.397 424.854 352.416 425.391 351.256 425.807C350.11 426.222 348.778 426.43 347.26 426.43ZM212.381 446.719H217.193L226.238 470.846L235.262 446.719H240.074L228.129 478H224.305L212.381 446.719ZM210.189 446.719H214.766L215.561 467.602V478H210.189V446.719ZM237.689 446.719H242.287V478H236.895V467.602L237.689 446.719ZM261.279 473.338V462.252C261.279 461.421 261.129 460.705 260.828 460.104C260.527 459.502 260.069 459.036 259.453 458.707C258.852 458.378 258.092 458.213 257.176 458.213C256.331 458.213 255.6 458.356 254.984 458.643C254.368 458.929 253.889 459.316 253.545 459.803C253.201 460.29 253.029 460.841 253.029 461.457H247.873C247.873 460.54 248.095 459.652 248.539 458.793C248.983 457.934 249.628 457.167 250.473 456.494C251.318 455.821 252.327 455.291 253.502 454.904C254.676 454.518 255.994 454.324 257.455 454.324C259.202 454.324 260.749 454.618 262.096 455.205C263.456 455.792 264.523 456.68 265.297 457.869C266.085 459.044 266.479 460.519 266.479 462.295V472.629C266.479 473.689 266.55 474.641 266.693 475.486C266.851 476.317 267.073 477.04 267.359 477.656V478H262.053C261.809 477.441 261.616 476.732 261.473 475.873C261.344 474.999 261.279 474.154 261.279 473.338ZM262.031 463.863L262.074 467.064H258.357C257.398 467.064 256.553 467.158 255.822 467.344C255.092 467.516 254.483 467.773 253.996 468.117C253.509 468.461 253.144 468.876 252.9 469.363C252.657 469.85 252.535 470.402 252.535 471.018C252.535 471.633 252.678 472.199 252.965 472.715C253.251 473.216 253.667 473.61 254.211 473.896C254.77 474.183 255.443 474.326 256.23 474.326C257.29 474.326 258.214 474.111 259.002 473.682C259.804 473.238 260.434 472.701 260.893 472.07C261.351 471.426 261.594 470.817 261.623 470.244L263.299 472.543C263.127 473.13 262.833 473.76 262.418 474.434C262.003 475.107 261.458 475.751 260.785 476.367C260.126 476.969 259.331 477.463 258.4 477.85C257.484 478.236 256.424 478.43 255.221 478.43C253.702 478.43 252.349 478.129 251.16 477.527C249.971 476.911 249.04 476.088 248.367 475.057C247.694 474.011 247.357 472.829 247.357 471.512C247.357 470.28 247.587 469.191 248.045 468.246C248.518 467.286 249.205 466.484 250.107 465.84C251.024 465.195 252.141 464.708 253.459 464.379C254.777 464.035 256.281 463.863 257.971 463.863H262.031ZM282.549 454.754V458.535H269.443V454.754H282.549ZM273.225 449.061H278.402V471.576C278.402 472.292 278.503 472.844 278.703 473.23C278.918 473.603 279.212 473.854 279.584 473.982C279.956 474.111 280.393 474.176 280.895 474.176C281.253 474.176 281.596 474.154 281.926 474.111C282.255 474.068 282.52 474.025 282.721 473.982L282.742 477.936C282.312 478.064 281.811 478.179 281.238 478.279C280.68 478.38 280.035 478.43 279.305 478.43C278.116 478.43 277.063 478.222 276.146 477.807C275.23 477.377 274.514 476.682 273.998 475.723C273.482 474.763 273.225 473.488 273.225 471.898V449.061ZM296.041 474.305C296.886 474.305 297.645 474.14 298.318 473.811C299.006 473.467 299.557 472.994 299.973 472.393C300.402 471.791 300.639 471.096 300.682 470.309H305.559C305.53 471.812 305.086 473.18 304.227 474.412C303.367 475.644 302.229 476.625 300.811 477.355C299.393 478.072 297.824 478.43 296.105 478.43C294.329 478.43 292.783 478.129 291.465 477.527C290.147 476.911 289.051 476.066 288.178 474.992C287.304 473.918 286.645 472.679 286.201 471.275C285.771 469.872 285.557 468.368 285.557 466.764V466.012C285.557 464.408 285.771 462.904 286.201 461.5C286.645 460.082 287.304 458.836 288.178 457.762C289.051 456.688 290.147 455.85 291.465 455.248C292.783 454.632 294.322 454.324 296.084 454.324C297.946 454.324 299.579 454.697 300.982 455.441C302.386 456.172 303.489 457.196 304.291 458.514C305.107 459.817 305.53 461.335 305.559 463.068H300.682C300.639 462.209 300.424 461.436 300.037 460.748C299.665 460.046 299.135 459.488 298.447 459.072C297.774 458.657 296.965 458.449 296.02 458.449C294.974 458.449 294.107 458.664 293.42 459.094C292.732 459.509 292.195 460.082 291.809 460.812C291.422 461.529 291.143 462.338 290.971 463.24C290.813 464.128 290.734 465.052 290.734 466.012V466.764C290.734 467.723 290.813 468.654 290.971 469.557C291.128 470.459 291.4 471.268 291.787 471.984C292.188 472.686 292.732 473.252 293.42 473.682C294.107 474.097 294.981 474.305 296.041 474.305ZM314.646 445V478H309.49V445H314.646ZM313.744 465.518L312.068 465.496C312.083 463.892 312.305 462.41 312.734 461.049C313.178 459.688 313.794 458.507 314.582 457.504C315.384 456.487 316.344 455.706 317.461 455.162C318.578 454.604 319.817 454.324 321.178 454.324C322.324 454.324 323.355 454.482 324.271 454.797C325.202 455.112 326.005 455.62 326.678 456.322C327.351 457.01 327.859 457.912 328.203 459.029C328.561 460.132 328.74 461.479 328.74 463.068V478H323.541V463.025C323.541 461.908 323.376 461.02 323.047 460.361C322.732 459.702 322.266 459.23 321.65 458.943C321.035 458.643 320.283 458.492 319.395 458.492C318.464 458.492 317.64 458.678 316.924 459.051C316.222 459.423 315.635 459.932 315.162 460.576C314.689 461.221 314.331 461.965 314.088 462.811C313.859 463.656 313.744 464.558 313.744 465.518ZM339.525 454.754V478H334.326V454.754H339.525ZM333.982 448.652C333.982 447.865 334.24 447.213 334.756 446.697C335.286 446.167 336.016 445.902 336.947 445.902C337.864 445.902 338.587 446.167 339.117 446.697C339.647 447.213 339.912 447.865 339.912 448.652C339.912 449.426 339.647 450.07 339.117 450.586C338.587 451.102 337.864 451.359 336.947 451.359C336.016 451.359 335.286 451.102 334.756 450.586C334.24 450.07 333.982 449.426 333.982 448.652ZM350.332 459.717V478H345.154V454.754H350.031L350.332 459.717ZM349.408 465.518L347.732 465.496C347.747 463.849 347.976 462.338 348.42 460.963C348.878 459.588 349.508 458.406 350.311 457.418C351.127 456.43 352.101 455.671 353.232 455.141C354.364 454.596 355.624 454.324 357.014 454.324C358.131 454.324 359.141 454.482 360.043 454.797C360.96 455.098 361.74 455.592 362.385 456.279C363.044 456.967 363.545 457.862 363.889 458.965C364.232 460.053 364.404 461.393 364.404 462.982V478H359.205V462.961C359.205 461.844 359.04 460.963 358.711 460.318C358.396 459.66 357.93 459.194 357.314 458.922C356.713 458.635 355.961 458.492 355.059 458.492C354.171 458.492 353.376 458.678 352.674 459.051C351.972 459.423 351.378 459.932 350.891 460.576C350.418 461.221 350.053 461.965 349.795 462.811C349.537 463.656 349.408 464.558 349.408 465.518ZM384.578 454.754H389.283V477.355C389.283 479.447 388.839 481.223 387.951 482.684C387.063 484.145 385.824 485.255 384.234 486.014C382.645 486.787 380.804 487.174 378.713 487.174C377.825 487.174 376.837 487.045 375.748 486.787C374.674 486.529 373.628 486.114 372.611 485.541C371.609 484.982 370.771 484.245 370.098 483.328L372.525 480.277C373.356 481.266 374.273 481.989 375.275 482.447C376.278 482.906 377.331 483.135 378.434 483.135C379.622 483.135 380.632 482.913 381.463 482.469C382.308 482.039 382.96 481.402 383.418 480.557C383.876 479.712 384.105 478.68 384.105 477.463V460.018L384.578 454.754ZM368.787 466.635V466.184C368.787 464.422 369.002 462.818 369.432 461.371C369.861 459.91 370.477 458.657 371.279 457.611C372.081 456.551 373.055 455.742 374.201 455.184C375.347 454.611 376.643 454.324 378.09 454.324C379.594 454.324 380.876 454.596 381.936 455.141C383.01 455.685 383.905 456.465 384.621 457.482C385.337 458.485 385.896 459.688 386.297 461.092C386.712 462.481 387.02 464.028 387.221 465.732V467.172C387.035 468.833 386.719 470.352 386.275 471.727C385.831 473.102 385.244 474.29 384.514 475.293C383.783 476.296 382.881 477.069 381.807 477.613C380.747 478.158 379.493 478.43 378.047 478.43C376.629 478.43 375.347 478.136 374.201 477.549C373.07 476.962 372.096 476.138 371.279 475.078C370.477 474.018 369.861 472.772 369.432 471.34C369.002 469.893 368.787 468.325 368.787 466.635ZM373.965 466.184V466.635C373.965 467.695 374.065 468.683 374.266 469.6C374.48 470.516 374.803 471.326 375.232 472.027C375.676 472.715 376.235 473.259 376.908 473.66C377.596 474.047 378.405 474.24 379.336 474.24C380.553 474.24 381.549 473.982 382.322 473.467C383.11 472.951 383.712 472.257 384.127 471.383C384.557 470.495 384.857 469.507 385.029 468.418V464.529C384.943 463.684 384.764 462.896 384.492 462.166C384.234 461.436 383.883 460.798 383.439 460.254C382.995 459.695 382.437 459.266 381.764 458.965C381.09 458.65 380.296 458.492 379.379 458.492C378.448 458.492 377.639 458.693 376.951 459.094C376.264 459.495 375.698 460.046 375.254 460.748C374.824 461.45 374.502 462.266 374.287 463.197C374.072 464.128 373.965 465.124 373.965 466.184Z" fill="#30486E"/>
<g filter="url(#filter3_d_1159_5201)">
<circle cx="1085.15" cy="437.146" r="183.146" fill="white"/>
</g>
<path d="M967.652 372.887L958.307 400H952.656L964.43 368.719H968.039L967.652 372.887ZM975.473 400L966.105 372.887L965.697 368.719H969.328L981.145 400H975.473ZM975.021 388.398V392.674H958.006V388.398H975.021ZM997.859 394.521V376.754H1003.06V400H998.16L997.859 394.521ZM998.59 389.688L1000.33 389.645C1000.33 391.206 1000.16 392.645 999.814 393.963C999.471 395.266 998.941 396.405 998.225 397.379C997.508 398.339 996.592 399.09 995.475 399.635C994.357 400.165 993.018 400.43 991.457 400.43C990.326 400.43 989.287 400.265 988.342 399.936C987.396 399.606 986.58 399.098 985.893 398.41C985.219 397.723 984.697 396.827 984.324 395.725C983.952 394.622 983.766 393.304 983.766 391.771V376.754H988.943V391.814C988.943 392.66 989.044 393.368 989.244 393.941C989.445 394.5 989.717 394.951 990.061 395.295C990.404 395.639 990.805 395.882 991.264 396.025C991.722 396.169 992.209 396.24 992.725 396.24C994.2 396.24 995.36 395.954 996.205 395.381C997.064 394.794 997.673 394.006 998.031 393.018C998.404 392.029 998.59 390.919 998.59 389.688ZM1019.02 376.754V380.535H1005.92V376.754H1019.02ZM1009.7 371.061H1014.88V393.576C1014.88 394.292 1014.98 394.844 1015.18 395.23C1015.39 395.603 1015.68 395.854 1016.06 395.982C1016.43 396.111 1016.87 396.176 1017.37 396.176C1017.73 396.176 1018.07 396.154 1018.4 396.111C1018.73 396.068 1018.99 396.025 1019.19 395.982L1019.21 399.936C1018.79 400.064 1018.28 400.179 1017.71 400.279C1017.15 400.38 1016.51 400.43 1015.78 400.43C1014.59 400.43 1013.54 400.222 1012.62 399.807C1011.7 399.377 1010.99 398.682 1010.47 397.723C1009.96 396.763 1009.7 395.488 1009.7 393.898V371.061ZM1028.13 367V400H1022.97V367H1028.13ZM1027.23 387.518L1025.55 387.496C1025.57 385.892 1025.79 384.41 1026.22 383.049C1026.66 381.688 1027.28 380.507 1028.07 379.504C1028.87 378.487 1029.83 377.706 1030.95 377.162C1032.06 376.604 1033.3 376.324 1034.66 376.324C1035.81 376.324 1036.84 376.482 1037.76 376.797C1038.69 377.112 1039.49 377.62 1040.16 378.322C1040.84 379.01 1041.34 379.912 1041.69 381.029C1042.05 382.132 1042.22 383.479 1042.22 385.068V400H1037.03V385.025C1037.03 383.908 1036.86 383.02 1036.53 382.361C1036.22 381.702 1035.75 381.23 1035.13 380.943C1034.52 380.643 1033.77 380.492 1032.88 380.492C1031.95 380.492 1031.12 380.678 1030.41 381.051C1029.71 381.423 1029.12 381.932 1028.65 382.576C1028.17 383.221 1027.82 383.965 1027.57 384.811C1027.34 385.656 1027.23 386.558 1027.23 387.518ZM1046.48 388.635V388.141C1046.48 386.465 1046.72 384.911 1047.21 383.479C1047.7 382.032 1048.4 380.779 1049.31 379.719C1050.25 378.645 1051.38 377.814 1052.71 377.227C1054.06 376.625 1055.57 376.324 1057.26 376.324C1058.97 376.324 1060.49 376.625 1061.82 377.227C1063.16 377.814 1064.3 378.645 1065.23 379.719C1066.17 380.779 1066.87 382.032 1067.36 383.479C1067.85 384.911 1068.09 386.465 1068.09 388.141V388.635C1068.09 390.311 1067.85 391.865 1067.36 393.297C1066.87 394.729 1066.17 395.982 1065.23 397.057C1064.3 398.117 1063.17 398.947 1061.84 399.549C1060.51 400.136 1059 400.43 1057.31 400.43C1055.6 400.43 1054.08 400.136 1052.73 399.549C1051.4 398.947 1050.27 398.117 1049.34 397.057C1048.4 395.982 1047.7 394.729 1047.21 393.297C1046.72 391.865 1046.48 390.311 1046.48 388.635ZM1051.66 388.141V388.635C1051.66 389.68 1051.76 390.669 1051.98 391.6C1052.19 392.531 1052.53 393.347 1052.99 394.049C1053.45 394.751 1054.03 395.302 1054.75 395.703C1055.47 396.104 1056.32 396.305 1057.31 396.305C1058.27 396.305 1059.1 396.104 1059.8 395.703C1060.51 395.302 1061.1 394.751 1061.56 394.049C1062.02 393.347 1062.36 392.531 1062.57 391.6C1062.8 390.669 1062.91 389.68 1062.91 388.635V388.141C1062.91 387.109 1062.8 386.135 1062.57 385.219C1062.36 384.288 1062.01 383.464 1061.54 382.748C1061.08 382.032 1060.49 381.473 1059.78 381.072C1059.08 380.657 1058.24 380.449 1057.26 380.449C1056.29 380.449 1055.44 380.657 1054.73 381.072C1054.03 381.473 1053.45 382.032 1052.99 382.748C1052.53 383.464 1052.19 384.288 1051.98 385.219C1051.76 386.135 1051.66 387.109 1051.66 388.141ZM1077.63 381.18V400H1072.45V376.754H1077.39L1077.63 381.18ZM1084.74 376.604L1084.7 381.416C1084.38 381.359 1084.04 381.316 1083.67 381.287C1083.31 381.258 1082.95 381.244 1082.59 381.244C1081.71 381.244 1080.93 381.373 1080.25 381.631C1079.58 381.874 1079.01 382.232 1078.55 382.705C1078.11 383.163 1077.77 383.722 1077.52 384.381C1077.28 385.04 1077.14 385.777 1077.09 386.594L1075.91 386.68C1075.91 385.219 1076.06 383.865 1076.34 382.619C1076.63 381.373 1077.06 380.277 1077.63 379.332C1078.22 378.387 1078.95 377.649 1079.82 377.119C1080.71 376.589 1081.73 376.324 1082.89 376.324C1083.21 376.324 1083.55 376.353 1083.9 376.41C1084.28 376.467 1084.56 376.532 1084.74 376.604ZM1093.53 376.754V400H1088.33V376.754H1093.53ZM1087.99 370.652C1087.99 369.865 1088.24 369.213 1088.76 368.697C1089.29 368.167 1090.02 367.902 1090.95 367.902C1091.87 367.902 1092.59 368.167 1093.12 368.697C1093.65 369.213 1093.92 369.865 1093.92 370.652C1093.92 371.426 1093.65 372.07 1093.12 372.586C1092.59 373.102 1091.87 373.359 1090.95 373.359C1090.02 373.359 1089.29 373.102 1088.76 372.586C1088.24 372.07 1087.99 371.426 1087.99 370.652ZM1117.18 395.875V400H1099.87V395.875H1117.18ZM1116.71 379.977L1101.63 400H1098.28V396.67L1113.27 376.754H1116.71V379.977ZM1114.71 376.754V380.879H1098.54V376.754H1114.71ZM1134.44 395.338V384.252C1134.44 383.421 1134.29 382.705 1133.98 382.104C1133.68 381.502 1133.23 381.036 1132.61 380.707C1132.01 380.378 1131.25 380.213 1130.33 380.213C1129.49 380.213 1128.76 380.356 1128.14 380.643C1127.52 380.929 1127.04 381.316 1126.7 381.803C1126.36 382.29 1126.19 382.841 1126.19 383.457H1121.03C1121.03 382.54 1121.25 381.652 1121.7 380.793C1122.14 379.934 1122.78 379.167 1123.63 378.494C1124.47 377.821 1125.48 377.291 1126.66 376.904C1127.83 376.518 1129.15 376.324 1130.61 376.324C1132.36 376.324 1133.91 376.618 1135.25 377.205C1136.61 377.792 1137.68 378.68 1138.45 379.869C1139.24 381.044 1139.63 382.519 1139.63 384.295V394.629C1139.63 395.689 1139.71 396.641 1139.85 397.486C1140.01 398.317 1140.23 399.04 1140.52 399.656V400H1135.21C1134.97 399.441 1134.77 398.732 1134.63 397.873C1134.5 396.999 1134.44 396.154 1134.44 395.338ZM1135.19 385.863L1135.23 389.064H1131.51C1130.55 389.064 1129.71 389.158 1128.98 389.344C1128.25 389.516 1127.64 389.773 1127.15 390.117C1126.67 390.461 1126.3 390.876 1126.06 391.363C1125.81 391.85 1125.69 392.402 1125.69 393.018C1125.69 393.633 1125.83 394.199 1126.12 394.715C1126.41 395.216 1126.82 395.61 1127.37 395.896C1127.93 396.183 1128.6 396.326 1129.39 396.326C1130.45 396.326 1131.37 396.111 1132.16 395.682C1132.96 395.238 1133.59 394.701 1134.05 394.07C1134.51 393.426 1134.75 392.817 1134.78 392.244L1136.46 394.543C1136.28 395.13 1135.99 395.76 1135.57 396.434C1135.16 397.107 1134.61 397.751 1133.94 398.367C1133.28 398.969 1132.49 399.463 1131.56 399.85C1130.64 400.236 1129.58 400.43 1128.38 400.43C1126.86 400.43 1125.51 400.129 1124.32 399.527C1123.13 398.911 1122.2 398.088 1121.52 397.057C1120.85 396.011 1120.51 394.829 1120.51 393.512C1120.51 392.28 1120.74 391.191 1121.2 390.246C1121.67 389.286 1122.36 388.484 1123.26 387.84C1124.18 387.195 1125.3 386.708 1126.62 386.379C1127.93 386.035 1129.44 385.863 1131.13 385.863H1135.19ZM1155.71 376.754V380.535H1142.6V376.754H1155.71ZM1146.38 371.061H1151.56V393.576C1151.56 394.292 1151.66 394.844 1151.86 395.23C1152.07 395.603 1152.37 395.854 1152.74 395.982C1153.11 396.111 1153.55 396.176 1154.05 396.176C1154.41 396.176 1154.75 396.154 1155.08 396.111C1155.41 396.068 1155.68 396.025 1155.88 395.982L1155.9 399.936C1155.47 400.064 1154.97 400.179 1154.39 400.279C1153.84 400.38 1153.19 400.43 1152.46 400.43C1151.27 400.43 1150.22 400.222 1149.3 399.807C1148.39 399.377 1147.67 398.682 1147.15 397.723C1146.64 396.763 1146.38 395.488 1146.38 393.898V371.061ZM1165.24 376.754V400H1160.04V376.754H1165.24ZM1159.7 370.652C1159.7 369.865 1159.96 369.213 1160.47 368.697C1161 368.167 1161.74 367.902 1162.67 367.902C1163.58 367.902 1164.31 368.167 1164.84 368.697C1165.37 369.213 1165.63 369.865 1165.63 370.652C1165.63 371.426 1165.37 372.07 1164.84 372.586C1164.31 373.102 1163.58 373.359 1162.67 373.359C1161.74 373.359 1161 373.102 1160.47 372.586C1159.96 372.07 1159.7 371.426 1159.7 370.652ZM1169.93 388.635V388.141C1169.93 386.465 1170.17 384.911 1170.66 383.479C1171.15 382.032 1171.85 380.779 1172.76 379.719C1173.69 378.645 1174.83 377.814 1176.16 377.227C1177.5 376.625 1179.02 376.324 1180.71 376.324C1182.42 376.324 1183.94 376.625 1185.27 377.227C1186.61 377.814 1187.75 378.645 1188.68 379.719C1189.61 380.779 1190.32 382.032 1190.81 383.479C1191.3 384.911 1191.54 386.465 1191.54 388.141V388.635C1191.54 390.311 1191.3 391.865 1190.81 393.297C1190.32 394.729 1189.61 395.982 1188.68 397.057C1187.75 398.117 1186.62 398.947 1185.29 399.549C1183.96 400.136 1182.45 400.43 1180.76 400.43C1179.05 400.43 1177.53 400.136 1176.18 399.549C1174.85 398.947 1173.72 398.117 1172.79 397.057C1171.85 395.982 1171.15 394.729 1170.66 393.297C1170.17 391.865 1169.93 390.311 1169.93 388.635ZM1175.11 388.141V388.635C1175.11 389.68 1175.21 390.669 1175.43 391.6C1175.64 392.531 1175.98 393.347 1176.44 394.049C1176.9 394.751 1177.48 395.302 1178.2 395.703C1178.92 396.104 1179.77 396.305 1180.76 396.305C1181.72 396.305 1182.55 396.104 1183.25 395.703C1183.96 395.302 1184.55 394.751 1185.01 394.049C1185.47 393.347 1185.8 392.531 1186.02 391.6C1186.25 390.669 1186.36 389.68 1186.36 388.635V388.141C1186.36 387.109 1186.25 386.135 1186.02 385.219C1185.8 384.288 1185.46 383.464 1184.99 382.748C1184.53 382.032 1183.94 381.473 1183.23 381.072C1182.52 380.657 1181.69 380.449 1180.71 380.449C1179.74 380.449 1178.89 380.657 1178.18 381.072C1177.48 381.473 1176.9 382.032 1176.44 382.748C1175.98 383.464 1175.64 384.288 1175.43 385.219C1175.21 386.135 1175.11 387.109 1175.11 388.141ZM1201.02 381.717V400H1195.84V376.754H1200.71L1201.02 381.717ZM1200.09 387.518L1198.42 387.496C1198.43 385.849 1198.66 384.338 1199.1 382.963C1199.56 381.588 1200.19 380.406 1200.99 379.418C1201.81 378.43 1202.78 377.671 1203.92 377.141C1205.05 376.596 1206.31 376.324 1207.7 376.324C1208.81 376.324 1209.82 376.482 1210.73 376.797C1211.64 377.098 1212.42 377.592 1213.07 378.279C1213.73 378.967 1214.23 379.862 1214.57 380.965C1214.92 382.053 1215.09 383.393 1215.09 384.982V400H1209.89V384.961C1209.89 383.844 1209.72 382.963 1209.39 382.318C1209.08 381.66 1208.61 381.194 1208 380.922C1207.4 380.635 1206.64 380.492 1205.74 380.492C1204.85 380.492 1204.06 380.678 1203.36 381.051C1202.66 381.423 1202.06 381.932 1201.57 382.576C1201.1 383.221 1200.74 383.965 1200.48 384.811C1200.22 385.656 1200.09 386.558 1200.09 387.518ZM958.844 447.725V452H943.139V447.725H958.844ZM944.643 420.719V452H939.25V420.719H944.643ZM972.744 452.43C971.025 452.43 969.471 452.15 968.082 451.592C966.707 451.019 965.533 450.224 964.559 449.207C963.599 448.19 962.861 446.994 962.346 445.619C961.83 444.244 961.572 442.762 961.572 441.172V440.312C961.572 438.493 961.837 436.846 962.367 435.371C962.897 433.896 963.635 432.635 964.58 431.59C965.525 430.53 966.643 429.721 967.932 429.162C969.221 428.604 970.617 428.324 972.121 428.324C973.783 428.324 975.236 428.604 976.482 429.162C977.729 429.721 978.76 430.508 979.576 431.525C980.407 432.528 981.023 433.724 981.424 435.113C981.839 436.503 982.047 438.035 982.047 439.711V441.924H964.086V438.207H976.934V437.799C976.905 436.868 976.719 435.994 976.375 435.178C976.046 434.361 975.537 433.702 974.85 433.201C974.162 432.7 973.245 432.449 972.1 432.449C971.24 432.449 970.474 432.635 969.801 433.008C969.142 433.366 968.59 433.889 968.146 434.576C967.702 435.264 967.359 436.094 967.115 437.068C966.886 438.028 966.771 439.109 966.771 440.312V441.172C966.771 442.189 966.908 443.134 967.18 444.008C967.466 444.867 967.882 445.619 968.426 446.264C968.97 446.908 969.629 447.417 970.402 447.789C971.176 448.147 972.057 448.326 973.045 448.326C974.291 448.326 975.401 448.076 976.375 447.574C977.349 447.073 978.194 446.364 978.91 445.447L981.639 448.09C981.137 448.82 980.486 449.522 979.684 450.195C978.882 450.854 977.9 451.391 976.74 451.807C975.594 452.222 974.262 452.43 972.744 452.43ZM996.742 428.754V432.535H983.637V428.754H996.742ZM987.418 423.061H992.596V445.576C992.596 446.292 992.696 446.844 992.896 447.23C993.111 447.603 993.405 447.854 993.777 447.982C994.15 448.111 994.587 448.176 995.088 448.176C995.446 448.176 995.79 448.154 996.119 448.111C996.449 448.068 996.714 448.025 996.914 447.982L996.936 451.936C996.506 452.064 996.005 452.179 995.432 452.279C994.873 452.38 994.229 452.43 993.498 452.43C992.309 452.43 991.257 452.222 990.34 451.807C989.423 451.377 988.707 450.682 988.191 449.723C987.676 448.763 987.418 447.488 987.418 445.898V423.061ZM1011.39 428.754V432.535H998.289V428.754H1011.39ZM1002.07 423.061H1007.25V445.576C1007.25 446.292 1007.35 446.844 1007.55 447.23C1007.76 447.603 1008.06 447.854 1008.43 447.982C1008.8 448.111 1009.24 448.176 1009.74 448.176C1010.1 448.176 1010.44 448.154 1010.77 448.111C1011.1 448.068 1011.37 448.025 1011.57 447.982L1011.59 451.936C1011.16 452.064 1010.66 452.179 1010.08 452.279C1009.53 452.38 1008.88 452.43 1008.15 452.43C1006.96 452.43 1005.91 452.222 1004.99 451.807C1004.08 451.377 1003.36 450.682 1002.84 449.723C1002.33 448.763 1002.07 447.488 1002.07 445.898V423.061ZM1025.64 452.43C1023.92 452.43 1022.37 452.15 1020.98 451.592C1019.6 451.019 1018.43 450.224 1017.45 449.207C1016.49 448.19 1015.76 446.994 1015.24 445.619C1014.72 444.244 1014.47 442.762 1014.47 441.172V440.312C1014.47 438.493 1014.73 436.846 1015.26 435.371C1015.79 433.896 1016.53 432.635 1017.47 431.59C1018.42 430.53 1019.54 429.721 1020.83 429.162C1022.12 428.604 1023.51 428.324 1025.02 428.324C1026.68 428.324 1028.13 428.604 1029.38 429.162C1030.62 429.721 1031.65 430.508 1032.47 431.525C1033.3 432.528 1033.92 433.724 1034.32 435.113C1034.73 436.503 1034.94 438.035 1034.94 439.711V441.924H1016.98V438.207H1029.83V437.799C1029.8 436.868 1029.61 435.994 1029.27 435.178C1028.94 434.361 1028.43 433.702 1027.74 433.201C1027.06 432.7 1026.14 432.449 1024.99 432.449C1024.13 432.449 1023.37 432.635 1022.7 433.008C1022.04 433.366 1021.49 433.889 1021.04 434.576C1020.6 435.264 1020.25 436.094 1020.01 437.068C1019.78 438.028 1019.67 439.109 1019.67 440.312V441.172C1019.67 442.189 1019.8 443.134 1020.07 444.008C1020.36 444.867 1020.78 445.619 1021.32 446.264C1021.86 446.908 1022.52 447.417 1023.3 447.789C1024.07 448.147 1024.95 448.326 1025.94 448.326C1027.19 448.326 1028.3 448.076 1029.27 447.574C1030.24 447.073 1031.09 446.364 1031.8 445.447L1034.53 448.09C1034.03 448.82 1033.38 449.522 1032.58 450.195C1031.78 450.854 1030.79 451.391 1029.63 451.807C1028.49 452.222 1027.16 452.43 1025.64 452.43ZM1044.18 433.18V452H1039V428.754H1043.94L1044.18 433.18ZM1051.29 428.604L1051.25 433.416C1050.93 433.359 1050.59 433.316 1050.22 433.287C1049.86 433.258 1049.5 433.244 1049.14 433.244C1048.25 433.244 1047.47 433.373 1046.8 433.631C1046.13 433.874 1045.56 434.232 1045.1 434.705C1044.66 435.163 1044.32 435.722 1044.07 436.381C1043.83 437.04 1043.69 437.777 1043.64 438.594L1042.46 438.68C1042.46 437.219 1042.6 435.865 1042.89 434.619C1043.18 433.373 1043.61 432.277 1044.18 431.332C1044.77 430.387 1045.5 429.649 1046.37 429.119C1047.26 428.589 1048.28 428.324 1049.44 428.324C1049.76 428.324 1050.1 428.353 1050.45 428.41C1050.83 428.467 1051.1 428.532 1051.29 428.604ZM1065.6 439.646V439.281C1065.6 436.216 1065.93 433.438 1066.59 430.945C1067.26 428.439 1068.13 426.247 1069.21 424.371C1070.28 422.48 1071.43 420.919 1072.65 419.688C1073.88 418.441 1075.06 417.546 1076.19 417.002L1077.22 419.967C1076.39 420.583 1075.56 421.435 1074.73 422.523C1073.91 423.612 1073.16 424.951 1072.47 426.541C1071.8 428.117 1071.26 429.964 1070.84 432.084C1070.44 434.189 1070.24 436.574 1070.24 439.238V439.689C1070.24 442.354 1070.44 444.745 1070.84 446.865C1071.26 448.971 1071.8 450.818 1072.47 452.408C1073.16 453.998 1073.91 455.344 1074.73 456.447C1075.56 457.564 1076.39 458.452 1077.22 459.111L1076.19 461.947C1075.06 461.389 1073.88 460.486 1072.65 459.24C1071.43 458.008 1070.28 456.447 1069.21 454.557C1068.13 452.68 1067.26 450.496 1066.59 448.004C1065.93 445.497 1065.6 442.712 1065.6 439.646ZM1087.02 420.719V452H1081.63V420.719H1087.02ZM1100.21 452H1095.03V426.52C1095.03 424.786 1095.36 423.333 1096 422.158C1096.66 420.969 1097.6 420.074 1098.81 419.473C1100.03 418.857 1101.47 418.549 1103.13 418.549C1103.65 418.549 1104.16 418.585 1104.66 418.656C1105.16 418.714 1105.65 418.807 1106.12 418.936L1105.99 422.932C1105.7 422.86 1105.39 422.81 1105.04 422.781C1104.72 422.753 1104.36 422.738 1103.97 422.738C1103.18 422.738 1102.5 422.889 1101.93 423.189C1101.37 423.476 1100.94 423.898 1100.64 424.457C1100.35 425.016 1100.21 425.703 1100.21 426.52V452ZM1105 428.754V432.535H1091.47V428.754H1105ZM1145.05 420.719V452H1139.66L1125.63 429.592V452H1120.23V420.719H1125.63L1139.7 443.17V420.719H1145.05ZM1164.06 447.338V436.252C1164.06 435.421 1163.91 434.705 1163.61 434.104C1163.31 433.502 1162.85 433.036 1162.24 432.707C1161.63 432.378 1160.88 432.213 1159.96 432.213C1159.11 432.213 1158.38 432.356 1157.77 432.643C1157.15 432.929 1156.67 433.316 1156.33 433.803C1155.98 434.29 1155.81 434.841 1155.81 435.457H1150.66C1150.66 434.54 1150.88 433.652 1151.32 432.793C1151.77 431.934 1152.41 431.167 1153.26 430.494C1154.1 429.821 1155.11 429.291 1156.29 428.904C1157.46 428.518 1158.78 428.324 1160.24 428.324C1161.99 428.324 1163.53 428.618 1164.88 429.205C1166.24 429.792 1167.31 430.68 1168.08 431.869C1168.87 433.044 1169.26 434.519 1169.26 436.295V446.629C1169.26 447.689 1169.33 448.641 1169.48 449.486C1169.63 450.317 1169.86 451.04 1170.14 451.656V452H1164.84C1164.59 451.441 1164.4 450.732 1164.26 449.873C1164.13 448.999 1164.06 448.154 1164.06 447.338ZM1164.81 437.863L1164.86 441.064H1161.14C1160.18 441.064 1159.34 441.158 1158.61 441.344C1157.88 441.516 1157.27 441.773 1156.78 442.117C1156.29 442.461 1155.93 442.876 1155.68 443.363C1155.44 443.85 1155.32 444.402 1155.32 445.018C1155.32 445.633 1155.46 446.199 1155.75 446.715C1156.03 447.216 1156.45 447.61 1156.99 447.896C1157.55 448.183 1158.23 448.326 1159.01 448.326C1160.07 448.326 1161 448.111 1161.79 447.682C1162.59 447.238 1163.22 446.701 1163.68 446.07C1164.13 445.426 1164.38 444.817 1164.41 444.244L1166.08 446.543C1165.91 447.13 1165.62 447.76 1165.2 448.434C1164.79 449.107 1164.24 449.751 1163.57 450.367C1162.91 450.969 1162.11 451.463 1161.18 451.85C1160.27 452.236 1159.21 452.43 1158 452.43C1156.49 452.43 1155.13 452.129 1153.94 451.527C1152.75 450.911 1151.82 450.088 1151.15 449.057C1150.48 448.011 1150.14 446.829 1150.14 445.512C1150.14 444.28 1150.37 443.191 1150.83 442.246C1151.3 441.286 1151.99 440.484 1152.89 439.84C1153.81 439.195 1154.92 438.708 1156.24 438.379C1157.56 438.035 1159.06 437.863 1160.75 437.863H1164.81ZM1179.85 433.48V452H1174.68V428.754H1179.55L1179.85 433.48ZM1179.02 439.518L1177.25 439.496C1177.25 437.892 1177.45 436.41 1177.86 435.049C1178.26 433.688 1178.84 432.507 1179.62 431.504C1180.39 430.487 1181.35 429.706 1182.5 429.162C1183.66 428.604 1185 428.324 1186.51 428.324C1187.57 428.324 1188.54 428.482 1189.41 428.797C1190.3 429.098 1191.07 429.577 1191.71 430.236C1192.37 430.895 1192.87 431.74 1193.22 432.771C1193.57 433.803 1193.75 435.049 1193.75 436.51V452H1188.58V436.961C1188.58 435.829 1188.4 434.941 1188.06 434.297C1187.73 433.652 1187.25 433.194 1186.62 432.922C1186.01 432.635 1185.27 432.492 1184.41 432.492C1183.43 432.492 1182.6 432.678 1181.92 433.051C1181.24 433.423 1180.69 433.932 1180.26 434.576C1179.83 435.221 1179.52 435.965 1179.32 436.811C1179.12 437.656 1179.02 438.558 1179.02 439.518ZM1193.43 438.143L1191 438.68C1191 437.276 1191.2 435.951 1191.58 434.705C1191.99 433.445 1192.57 432.342 1193.32 431.396C1194.1 430.437 1195.05 429.685 1196.18 429.141C1197.31 428.596 1198.61 428.324 1200.07 428.324C1201.26 428.324 1202.32 428.489 1203.25 428.818C1204.2 429.133 1205 429.635 1205.66 430.322C1206.32 431.01 1206.82 431.905 1207.16 433.008C1207.5 434.096 1207.68 435.414 1207.68 436.961V452H1202.48V436.939C1202.48 435.765 1202.3 434.855 1201.96 434.211C1201.63 433.566 1201.16 433.122 1200.54 432.879C1199.93 432.621 1199.19 432.492 1198.33 432.492C1197.53 432.492 1196.82 432.643 1196.2 432.943C1195.6 433.23 1195.09 433.638 1194.68 434.168C1194.26 434.684 1193.95 435.278 1193.73 435.951C1193.53 436.624 1193.43 437.355 1193.43 438.143ZM1223.25 452.43C1221.53 452.43 1219.98 452.15 1218.59 451.592C1217.21 451.019 1216.04 450.224 1215.07 449.207C1214.11 448.19 1213.37 446.994 1212.85 445.619C1212.34 444.244 1212.08 442.762 1212.08 441.172V440.312C1212.08 438.493 1212.35 436.846 1212.88 435.371C1213.4 433.896 1214.14 432.635 1215.09 431.59C1216.03 430.53 1217.15 429.721 1218.44 429.162C1219.73 428.604 1221.12 428.324 1222.63 428.324C1224.29 428.324 1225.74 428.604 1226.99 429.162C1228.24 429.721 1229.27 430.508 1230.08 431.525C1230.91 432.528 1231.53 433.724 1231.93 435.113C1232.35 436.503 1232.55 438.035 1232.55 439.711V441.924H1214.59V438.207H1227.44V437.799C1227.41 436.868 1227.23 435.994 1226.88 435.178C1226.55 434.361 1226.04 433.702 1225.36 433.201C1224.67 432.7 1223.75 432.449 1222.61 432.449C1221.75 432.449 1220.98 432.635 1220.31 433.008C1219.65 433.366 1219.1 433.889 1218.65 434.576C1218.21 435.264 1217.87 436.094 1217.62 437.068C1217.39 438.028 1217.28 439.109 1217.28 440.312V441.172C1217.28 442.189 1217.42 443.134 1217.69 444.008C1217.97 444.867 1218.39 445.619 1218.93 446.264C1219.48 446.908 1220.14 447.417 1220.91 447.789C1221.68 448.147 1222.56 448.326 1223.55 448.326C1224.8 448.326 1225.91 448.076 1226.88 447.574C1227.86 447.073 1228.7 446.364 1229.42 445.447L1232.15 448.09C1231.65 448.82 1230.99 449.522 1230.19 450.195C1229.39 450.854 1228.41 451.391 1227.25 451.807C1226.1 452.222 1224.77 452.43 1223.25 452.43ZM1001.43 472.719V504H996.033L982.004 481.592V504H976.611V472.719H982.004L996.076 495.17V472.719H1001.43ZM1006.35 492.635V492.141C1006.35 490.465 1006.59 488.911 1007.08 487.479C1007.56 486.032 1008.26 484.779 1009.18 483.719C1010.11 482.645 1011.24 481.814 1012.58 481.227C1013.92 480.625 1015.44 480.324 1017.13 480.324C1018.84 480.324 1020.35 480.625 1021.69 481.227C1023.03 481.814 1024.17 482.645 1025.1 483.719C1026.03 484.779 1026.74 486.032 1027.23 487.479C1027.72 488.911 1027.96 490.465 1027.96 492.141V492.635C1027.96 494.311 1027.72 495.865 1027.23 497.297C1026.74 498.729 1026.03 499.982 1025.1 501.057C1024.17 502.117 1023.04 502.947 1021.71 503.549C1020.38 504.136 1018.86 504.43 1017.17 504.43C1015.47 504.43 1013.94 504.136 1012.6 503.549C1011.27 502.947 1010.13 502.117 1009.2 501.057C1008.27 499.982 1007.56 498.729 1007.08 497.297C1006.59 495.865 1006.35 494.311 1006.35 492.635ZM1011.52 492.141V492.635C1011.52 493.68 1011.63 494.669 1011.85 495.6C1012.06 496.531 1012.4 497.347 1012.86 498.049C1013.31 498.751 1013.9 499.302 1014.62 499.703C1015.33 500.104 1016.19 500.305 1017.17 500.305C1018.13 500.305 1018.96 500.104 1019.67 499.703C1020.38 499.302 1020.97 498.751 1021.43 498.049C1021.89 497.347 1022.22 496.531 1022.44 495.6C1022.67 494.669 1022.78 493.68 1022.78 492.635V492.141C1022.78 491.109 1022.67 490.135 1022.44 489.219C1022.22 488.288 1021.88 487.464 1021.41 486.748C1020.95 486.032 1020.36 485.473 1019.64 485.072C1018.94 484.657 1018.1 484.449 1017.13 484.449C1016.16 484.449 1015.31 484.657 1014.6 485.072C1013.89 485.473 1013.31 486.032 1012.86 486.748C1012.4 487.464 1012.06 488.288 1011.85 489.219C1011.63 490.135 1011.52 491.109 1011.52 492.141ZM1042.96 480.754V484.535H1029.85V480.754H1042.96ZM1033.63 475.061H1038.81V497.576C1038.81 498.292 1038.91 498.844 1039.11 499.23C1039.32 499.603 1039.62 499.854 1039.99 499.982C1040.36 500.111 1040.8 500.176 1041.3 500.176C1041.66 500.176 1042 500.154 1042.33 500.111C1042.66 500.068 1042.93 500.025 1043.13 499.982L1043.15 503.936C1042.72 504.064 1042.22 504.179 1041.64 504.279C1041.09 504.38 1040.44 504.43 1039.71 504.43C1038.52 504.43 1037.47 504.222 1036.55 503.807C1035.64 503.377 1034.92 502.682 1034.4 501.723C1033.89 500.763 1033.63 499.488 1033.63 497.898V475.061ZM1056.92 492.635V492.141C1056.92 490.465 1057.16 488.911 1057.65 487.479C1058.14 486.032 1058.84 484.779 1059.76 483.719C1060.69 482.645 1061.82 481.814 1063.15 481.227C1064.5 480.625 1066.01 480.324 1067.71 480.324C1069.41 480.324 1070.93 480.625 1072.26 481.227C1073.61 481.814 1074.74 482.645 1075.68 483.719C1076.61 484.779 1077.32 486.032 1077.8 487.479C1078.29 488.911 1078.53 490.465 1078.53 492.141V492.635C1078.53 494.311 1078.29 495.865 1077.8 497.297C1077.32 498.729 1076.61 499.982 1075.68 501.057C1074.74 502.117 1073.61 502.947 1072.28 503.549C1070.95 504.136 1069.44 504.43 1067.75 504.43C1066.04 504.43 1064.52 504.136 1063.17 503.549C1061.84 502.947 1060.71 502.117 1059.78 501.057C1058.85 499.982 1058.14 498.729 1057.65 497.297C1057.16 495.865 1056.92 494.311 1056.92 492.635ZM1062.1 492.141V492.635C1062.1 493.68 1062.21 494.669 1062.42 495.6C1062.63 496.531 1062.97 497.347 1063.43 498.049C1063.89 498.751 1064.48 499.302 1065.19 499.703C1065.91 500.104 1066.76 500.305 1067.75 500.305C1068.71 500.305 1069.54 500.104 1070.24 499.703C1070.96 499.302 1071.54 498.751 1072 498.049C1072.46 497.347 1072.8 496.531 1073.01 495.6C1073.24 494.669 1073.36 493.68 1073.36 492.635V492.141C1073.36 491.109 1073.24 490.135 1073.01 489.219C1072.8 488.288 1072.45 487.464 1071.98 486.748C1071.52 486.032 1070.93 485.473 1070.22 485.072C1069.52 484.657 1068.68 484.449 1067.71 484.449C1066.73 484.449 1065.89 484.657 1065.17 485.072C1064.47 485.473 1063.89 486.032 1063.43 486.748C1062.97 487.464 1062.63 488.288 1062.42 489.219C1062.21 490.135 1062.1 491.109 1062.1 492.141ZM1088.01 485.717V504H1082.83V480.754H1087.71L1088.01 485.717ZM1087.08 491.518L1085.41 491.496C1085.42 489.849 1085.65 488.338 1086.1 486.963C1086.55 485.588 1087.18 484.406 1087.99 483.418C1088.8 482.43 1089.78 481.671 1090.91 481.141C1092.04 480.596 1093.3 480.324 1094.69 480.324C1095.81 480.324 1096.82 480.482 1097.72 480.797C1098.64 481.098 1099.42 481.592 1100.06 482.279C1100.72 482.967 1101.22 483.862 1101.56 484.965C1101.91 486.053 1102.08 487.393 1102.08 488.982V504H1096.88V488.961C1096.88 487.844 1096.72 486.963 1096.39 486.318C1096.07 485.66 1095.61 485.194 1094.99 484.922C1094.39 484.635 1093.64 484.492 1092.73 484.492C1091.85 484.492 1091.05 484.678 1090.35 485.051C1089.65 485.423 1089.05 485.932 1088.57 486.576C1088.09 487.221 1087.73 487.965 1087.47 488.811C1087.21 489.656 1087.08 490.558 1087.08 491.518ZM1124.6 472.719V504H1119.2V472.719H1124.6ZM1151.77 499.725V504H1135.17V499.725H1151.77ZM1136.69 472.719V504H1131.3V472.719H1136.69ZM1149.6 485.781V489.992H1135.17V485.781H1149.6ZM1151.67 472.719V477.016H1135.17V472.719H1151.67ZM1174.65 493.816H1180.03C1179.85 495.865 1179.28 497.691 1178.31 499.295C1177.33 500.885 1175.96 502.138 1174.2 503.055C1172.44 503.971 1170.3 504.43 1167.78 504.43C1165.85 504.43 1164.11 504.086 1162.56 503.398C1161.01 502.697 1159.69 501.708 1158.58 500.434C1157.48 499.145 1156.64 497.59 1156.05 495.771C1155.48 493.952 1155.19 491.919 1155.19 489.67V487.07C1155.19 484.822 1155.48 482.788 1156.07 480.969C1156.67 479.15 1157.53 477.596 1158.65 476.307C1159.77 475.003 1161.1 474.008 1162.67 473.32C1164.24 472.633 1166.01 472.289 1167.97 472.289C1170.46 472.289 1172.57 472.747 1174.29 473.664C1176.01 474.581 1177.34 475.848 1178.29 477.467C1179.24 479.085 1179.83 480.94 1180.05 483.031H1174.68C1174.53 481.685 1174.22 480.532 1173.73 479.572C1173.26 478.613 1172.56 477.882 1171.62 477.381C1170.69 476.865 1169.48 476.607 1167.97 476.607C1166.74 476.607 1165.67 476.837 1164.75 477.295C1163.83 477.753 1163.07 478.426 1162.45 479.314C1161.84 480.202 1161.37 481.298 1161.05 482.602C1160.75 483.891 1160.6 485.366 1160.6 487.027V489.67C1160.6 491.245 1160.74 492.678 1161.01 493.967C1161.3 495.242 1161.73 496.337 1162.3 497.254C1162.89 498.171 1163.63 498.88 1164.54 499.381C1165.44 499.882 1166.52 500.133 1167.78 500.133C1169.31 500.133 1170.55 499.889 1171.5 499.402C1172.46 498.915 1173.18 498.206 1173.67 497.275C1174.17 496.33 1174.5 495.177 1174.65 493.816ZM1193.84 491.281V491.646C1193.84 494.669 1193.5 497.426 1192.81 499.918C1192.14 502.41 1191.25 504.602 1190.17 506.492C1189.09 508.383 1187.92 509.958 1186.66 511.219C1185.42 512.479 1184.22 513.389 1183.08 513.947L1182.02 511.111C1182.85 510.481 1183.68 509.615 1184.49 508.512C1185.32 507.423 1186.08 506.07 1186.75 504.451C1187.44 502.847 1187.98 500.985 1188.38 498.865C1188.8 496.745 1189.01 494.354 1189.01 491.689V491.238C1189.01 488.574 1188.79 486.182 1188.36 484.062C1187.95 481.928 1187.39 480.066 1186.69 478.477C1185.98 476.872 1185.22 475.519 1184.41 474.416C1183.59 473.313 1182.8 472.454 1182.02 471.838L1183.08 469.002C1184.22 469.546 1185.42 470.449 1186.66 471.709C1187.92 472.969 1189.09 474.552 1190.17 476.457C1191.25 478.348 1192.14 480.539 1192.81 483.031C1193.5 485.523 1193.84 488.273 1193.84 491.281Z" fill="#30486E"/>
<circle cx="566.46" cy="407.561" r="3.14175" transform="rotate(180 566.46 407.561)" fill="#FFA229"/>
<circle cx="749.788" cy="407.561" r="3.14175" transform="rotate(180 749.788 407.561)" fill="#FFA229"/>
<circle cx="716.155" cy="466.702" r="3.14175" transform="rotate(180 716.155 466.702)" fill="#1C4670"/>
<circle cx="658.124" cy="407.561" r="3.14175" transform="rotate(180 658.124 407.561)" fill="#FFA229"/>
<circle cx="624.491" cy="466.702" r="3.14175" transform="rotate(180 624.491 466.702)" fill="#1C4670"/>
<circle cx="807.819" cy="466.702" r="3.14175" transform="rotate(180 807.819 466.702)" fill="#1C4670"/>
<circle cx="612.288" cy="407.561" r="3.14175" transform="rotate(180 612.288 407.561)" fill="#FFA229"/>
<circle cx="761.983" cy="466.702" r="3.14175" transform="rotate(180 761.983 466.702)" fill="#1C4670"/>
<circle cx="703.96" cy="407.561" r="3.14175" transform="rotate(180 703.96 407.561)" fill="#FFA229"/>
<circle cx="670.319" cy="466.702" r="3.14175" transform="rotate(180 670.319 466.702)" fill="#1C4670"/>
<circle cx="589.374" cy="407.561" r="3.14175" transform="rotate(180 589.374 407.561)" fill="#FFA229"/>
<circle cx="739.069" cy="466.702" r="3.14175" transform="rotate(180 739.069 466.702)" fill="#1C4670"/>
<circle cx="681.038" cy="407.561" r="3.14175" transform="rotate(180 681.038 407.561)" fill="#FFA229"/>
<circle cx="647.405" cy="466.702" r="3.14175" transform="rotate(180 647.405 466.702)" fill="#1C4670"/>
<circle cx="635.21" cy="407.561" r="3.14175" transform="rotate(180 635.21 407.561)" fill="#FFA229"/>
<circle cx="784.905" cy="466.702" r="3.14175" transform="rotate(180 784.905 466.702)" fill="#1C4670"/>
<circle cx="726.874" cy="407.561" r="3.14175" transform="rotate(180 726.874 407.561)" fill="#FFA229"/>
<circle cx="693.233" cy="466.702" r="3.14175" transform="rotate(180 693.233 466.702)" fill="#1C4670"/>
<circle cx="577.913" cy="407.561" r="3.14175" transform="rotate(180 577.913 407.561)" fill="#FFA229"/>
<circle cx="761.249" cy="407.561" r="3.14175" transform="rotate(180 761.249 407.561)" fill="#FFA229"/>
<circle cx="783.796" cy="407.562" r="20.8834" transform="rotate(180 783.796 407.562)" fill="#FFA229"/>
<circle cx="601.57" cy="466.328" r="20.8834" transform="rotate(180 601.57 466.328)" fill="#1C4670"/>
<circle cx="727.608" cy="466.702" r="3.14175" transform="rotate(180 727.608 466.702)" fill="#1C4670"/>
<circle cx="669.585" cy="407.561" r="3.14175" transform="rotate(180 669.585 407.561)" fill="#FFA229"/>
<circle cx="635.944" cy="466.702" r="3.14175" transform="rotate(180 635.944 466.702)" fill="#1C4670"/>
<circle cx="819.28" cy="466.702" r="3.14175" transform="rotate(180 819.28 466.702)" fill="#1C4670"/>
<circle cx="623.749" cy="407.561" r="3.14175" transform="rotate(180 623.749 407.561)" fill="#FFA229"/>
<circle cx="773.444" cy="466.702" r="3.14175" transform="rotate(180 773.444 466.702)" fill="#1C4670"/>
<circle cx="715.413" cy="407.561" r="3.14175" transform="rotate(180 715.413 407.561)" fill="#FFA229"/>
<circle cx="681.78" cy="466.702" r="3.14175" transform="rotate(180 681.78 466.702)" fill="#1C4670"/>
<circle cx="600.835" cy="407.561" r="3.14175" transform="rotate(180 600.835 407.561)" fill="#FFA229"/>
<circle cx="750.53" cy="466.702" r="3.14175" transform="rotate(180 750.53 466.702)" fill="#1C4670"/>
<circle cx="692.499" cy="407.561" r="3.14175" transform="rotate(180 692.499 407.561)" fill="#FFA229"/>
<circle cx="658.866" cy="466.702" r="3.14175" transform="rotate(180 658.866 466.702)" fill="#1C4670"/>
<circle cx="646.663" cy="407.561" r="3.14175" transform="rotate(180 646.663 407.561)" fill="#FFA229"/>
<circle cx="796.358" cy="466.702" r="3.14175" transform="rotate(180 796.358 466.702)" fill="#1C4670"/>
<circle cx="738.327" cy="407.561" r="3.14175" transform="rotate(180 738.327 407.561)" fill="#FFA229"/>
<circle cx="704.694" cy="466.702" r="3.14175" transform="rotate(180 704.694 466.702)" fill="#1C4670"/>
<path d="M230.431 144.999H220.543V139.304H230.431C232.048 139.304 233.357 139.04 234.359 138.513C235.379 137.968 236.126 137.229 236.601 136.298C237.075 135.349 237.312 134.268 237.312 133.055C237.312 131.877 237.075 130.778 236.601 129.759C236.126 128.739 235.379 127.913 234.359 127.28C233.357 126.647 232.048 126.331 230.431 126.331H222.916V159H215.665V120.609H230.431C233.419 120.609 235.968 121.146 238.077 122.218C240.204 123.272 241.821 124.74 242.929 126.621C244.054 128.484 244.616 130.611 244.616 133.002C244.616 135.48 244.054 137.616 242.929 139.409C241.821 141.202 240.204 142.582 238.077 143.549C235.968 144.516 233.419 144.999 230.431 144.999ZM256.745 136.298V159H249.784V130.471H256.376L256.745 136.298ZM265.42 130.286L265.314 136.772C264.928 136.702 264.488 136.649 263.996 136.614C263.521 136.579 263.073 136.562 262.651 136.562C261.579 136.562 260.639 136.711 259.83 137.01C259.021 137.291 258.345 137.704 257.8 138.249C257.272 138.794 256.868 139.462 256.587 140.253C256.306 141.026 256.147 141.905 256.112 142.89L254.609 142.705C254.609 140.895 254.794 139.216 255.163 137.669C255.532 136.122 256.068 134.769 256.771 133.608C257.475 132.448 258.354 131.552 259.408 130.919C260.48 130.269 261.711 129.943 263.1 129.943C263.486 129.943 263.899 129.979 264.339 130.049C264.796 130.102 265.156 130.181 265.42 130.286ZM281.53 159.527C279.368 159.527 277.426 159.176 275.703 158.473C273.98 157.77 272.513 156.794 271.3 155.546C270.104 154.28 269.182 152.812 268.531 151.143C267.898 149.455 267.582 147.645 267.582 145.711V144.656C267.582 142.459 267.898 140.464 268.531 138.671C269.164 136.86 270.061 135.305 271.221 134.004C272.381 132.703 273.77 131.701 275.387 130.998C277.004 130.295 278.788 129.943 280.739 129.943C282.761 129.943 284.545 130.286 286.092 130.972C287.639 131.64 288.931 132.589 289.968 133.819C291.005 135.05 291.787 136.526 292.314 138.249C292.842 139.954 293.105 141.844 293.105 143.918V146.845H270.746V142.046H286.25V141.519C286.215 140.411 286.004 139.4 285.617 138.486C285.23 137.555 284.633 136.816 283.824 136.271C283.016 135.709 281.97 135.428 280.687 135.428C279.649 135.428 278.744 135.656 277.971 136.113C277.215 136.553 276.582 137.186 276.072 138.012C275.58 138.82 275.211 139.787 274.965 140.912C274.719 142.037 274.596 143.285 274.596 144.656V145.711C274.596 146.906 274.754 148.014 275.07 149.033C275.404 150.053 275.888 150.94 276.521 151.696C277.171 152.435 277.944 153.015 278.841 153.437C279.755 153.841 280.792 154.043 281.952 154.043C283.411 154.043 284.729 153.762 285.907 153.199C287.103 152.619 288.14 151.767 289.019 150.642L292.525 154.28C291.928 155.159 291.119 156.003 290.1 156.812C289.098 157.62 287.885 158.279 286.461 158.789C285.037 159.281 283.394 159.527 281.53 159.527ZM304.733 136.298V159H297.772V130.471H304.364L304.733 136.298ZM313.408 130.286L313.303 136.772C312.916 136.702 312.477 136.649 311.984 136.614C311.51 136.579 311.062 136.562 310.64 136.562C309.567 136.562 308.627 136.711 307.818 137.01C307.01 137.291 306.333 137.704 305.788 138.249C305.261 138.794 304.856 139.462 304.575 140.253C304.294 141.026 304.136 141.905 304.101 142.89L302.598 142.705C302.598 140.895 302.782 139.216 303.151 137.669C303.521 136.122 304.057 134.769 304.76 133.608C305.463 132.448 306.342 131.552 307.396 130.919C308.469 130.269 309.699 129.943 311.088 129.943C311.475 129.943 311.888 129.979 312.327 130.049C312.784 130.102 313.145 130.181 313.408 130.286ZM329.519 159.527C327.356 159.527 325.414 159.176 323.691 158.473C321.969 157.77 320.501 156.794 319.288 155.546C318.093 154.28 317.17 152.812 316.52 151.143C315.887 149.455 315.57 147.645 315.57 145.711V144.656C315.57 142.459 315.887 140.464 316.52 138.671C317.152 136.86 318.049 135.305 319.209 134.004C320.369 132.703 321.758 131.701 323.375 130.998C324.992 130.295 326.776 129.943 328.728 129.943C330.749 129.943 332.533 130.286 334.08 130.972C335.627 131.64 336.919 132.589 337.956 133.819C338.993 135.05 339.775 136.526 340.303 138.249C340.83 139.954 341.094 141.844 341.094 143.918V146.845H318.734V142.046H334.238V141.519C334.203 140.411 333.992 139.4 333.605 138.486C333.219 137.555 332.621 136.816 331.812 136.271C331.004 135.709 329.958 135.428 328.675 135.428C327.638 135.428 326.732 135.656 325.959 136.113C325.203 136.553 324.57 137.186 324.061 138.012C323.568 138.82 323.199 139.787 322.953 140.912C322.707 142.037 322.584 143.285 322.584 144.656V145.711C322.584 146.906 322.742 148.014 323.059 149.033C323.393 150.053 323.876 150.94 324.509 151.696C325.159 152.435 325.933 153.015 326.829 153.437C327.743 153.841 328.78 154.043 329.94 154.043C331.399 154.043 332.718 153.762 333.896 153.199C335.091 152.619 336.128 151.767 337.007 150.642L340.514 154.28C339.916 155.159 339.107 156.003 338.088 156.812C337.086 157.62 335.873 158.279 334.449 158.789C333.025 159.281 331.382 159.527 329.519 159.527ZM362.847 169.969V136.219L363.69 130.471H369.86V169.969H362.847ZM344.548 145.025V144.472C344.548 142.292 344.794 140.314 345.286 138.539C345.778 136.746 346.499 135.217 347.448 133.951C348.415 132.668 349.593 131.684 350.981 130.998C352.37 130.295 353.961 129.943 355.754 129.943C357.512 129.943 359.032 130.286 360.315 130.972C361.599 131.657 362.688 132.633 363.585 133.898C364.481 135.146 365.193 136.632 365.721 138.354C366.266 140.077 366.67 141.984 366.934 144.076V145.579C366.67 147.583 366.266 149.438 365.721 151.143C365.193 152.83 364.481 154.307 363.585 155.572C362.706 156.82 361.616 157.796 360.315 158.499C359.015 159.185 357.477 159.527 355.701 159.527C353.926 159.527 352.344 159.167 350.955 158.446C349.584 157.708 348.415 156.688 347.448 155.388C346.499 154.087 345.778 152.558 345.286 150.8C344.794 149.024 344.548 147.1 344.548 145.025ZM351.535 144.472V145.025C351.535 146.273 351.641 147.442 351.852 148.532C352.08 149.604 352.432 150.554 352.906 151.38C353.381 152.206 353.987 152.856 354.726 153.331C355.481 153.806 356.396 154.043 357.468 154.043C358.909 154.043 360.078 153.727 360.975 153.094C361.889 152.461 362.574 151.608 363.031 150.536C363.506 149.446 363.813 148.233 363.954 146.897V142.784C363.866 141.712 363.682 140.728 363.4 139.831C363.119 138.935 362.724 138.161 362.214 137.511C361.722 136.86 361.089 136.351 360.315 135.981C359.542 135.612 358.61 135.428 357.521 135.428C356.448 135.428 355.534 135.665 354.778 136.14C354.022 136.597 353.407 137.238 352.933 138.064C352.458 138.891 352.106 139.849 351.878 140.938C351.649 142.028 351.535 143.206 351.535 144.472ZM393.274 152.224V130.471H400.288V159H393.696L393.274 152.224ZM394.171 146.317L396.333 146.265C396.333 148.181 396.122 149.947 395.7 151.564C395.278 153.182 394.619 154.588 393.723 155.783C392.844 156.961 391.728 157.884 390.374 158.552C389.021 159.202 387.421 159.527 385.575 159.527C384.169 159.527 382.886 159.334 381.726 158.947C380.565 158.543 379.563 157.919 378.72 157.075C377.894 156.214 377.252 155.115 376.795 153.779C376.338 152.426 376.109 150.8 376.109 148.901V130.471H383.07V148.954C383.07 149.903 383.176 150.694 383.387 151.327C383.615 151.96 383.923 152.479 384.31 152.883C384.714 153.27 385.18 153.551 385.707 153.727C386.252 153.885 386.832 153.964 387.447 153.964C389.135 153.964 390.462 153.63 391.429 152.962C392.413 152.276 393.116 151.362 393.538 150.22C393.96 149.06 394.171 147.759 394.171 146.317ZM413.841 130.471V159H406.854V130.471H413.841ZM406.379 123.009C406.379 121.972 406.73 121.11 407.434 120.425C408.154 119.739 409.121 119.396 410.334 119.396C411.547 119.396 412.505 119.739 413.208 120.425C413.929 121.11 414.289 121.972 414.289 123.009C414.289 124.028 413.929 124.881 413.208 125.566C412.505 126.252 411.547 126.595 410.334 126.595C409.121 126.595 408.154 126.252 407.434 125.566C406.73 124.881 406.379 124.028 406.379 123.009ZM436.174 151.195C436.174 150.598 436.016 150.062 435.699 149.587C435.383 149.112 434.785 148.682 433.906 148.295C433.045 147.891 431.779 147.513 430.109 147.161C428.633 146.845 427.271 146.449 426.022 145.975C424.774 145.5 423.702 144.929 422.806 144.261C421.909 143.575 421.206 142.775 420.696 141.861C420.204 140.93 419.958 139.857 419.958 138.645C419.958 137.467 420.213 136.359 420.723 135.322C421.232 134.268 421.971 133.345 422.938 132.554C423.904 131.745 425.082 131.112 426.471 130.655C427.859 130.181 429.424 129.943 431.164 129.943C433.59 129.943 435.673 130.339 437.413 131.13C439.171 131.921 440.516 133.011 441.447 134.399C442.379 135.771 442.845 137.317 442.845 139.04H435.884C435.884 138.284 435.708 137.599 435.356 136.983C435.022 136.368 434.504 135.876 433.801 135.507C433.098 135.12 432.21 134.927 431.138 134.927C430.171 134.927 429.354 135.085 428.686 135.401C428.035 135.718 427.543 136.131 427.209 136.641C426.875 137.15 426.708 137.713 426.708 138.328C426.708 138.785 426.796 139.198 426.972 139.567C427.165 139.919 427.473 140.244 427.895 140.543C428.316 140.842 428.888 141.114 429.608 141.36C430.347 141.606 431.252 141.844 432.324 142.072C434.451 142.494 436.306 143.057 437.888 143.76C439.487 144.445 440.735 145.359 441.632 146.502C442.528 147.645 442.977 149.104 442.977 150.879C442.977 152.145 442.704 153.305 442.159 154.359C441.614 155.396 440.823 156.302 439.786 157.075C438.749 157.849 437.51 158.455 436.068 158.895C434.627 159.316 433.001 159.527 431.19 159.527C428.571 159.527 426.356 159.062 424.546 158.13C422.735 157.181 421.364 155.985 420.433 154.544C419.501 153.085 419.035 151.573 419.035 150.009H425.706C425.759 151.116 426.058 152.004 426.603 152.672C427.147 153.34 427.833 153.823 428.659 154.122C429.503 154.403 430.391 154.544 431.322 154.544C432.377 154.544 433.265 154.403 433.985 154.122C434.706 153.823 435.251 153.428 435.62 152.936C435.989 152.426 436.174 151.846 436.174 151.195ZM455.659 130.471V159H448.672V130.471H455.659ZM448.197 123.009C448.197 121.972 448.549 121.11 449.252 120.425C449.973 119.739 450.939 119.396 452.152 119.396C453.365 119.396 454.323 119.739 455.026 120.425C455.747 121.11 456.107 121.972 456.107 123.009C456.107 124.028 455.747 124.881 455.026 125.566C454.323 126.252 453.365 126.595 452.152 126.595C450.939 126.595 449.973 126.252 449.252 125.566C448.549 124.881 448.197 124.028 448.197 123.009ZM475.804 130.471V135.48H459.456V130.471H475.804ZM463.833 123.457H470.82V150.773C470.82 151.617 470.935 152.268 471.163 152.725C471.392 153.182 471.734 153.489 472.191 153.647C472.648 153.806 473.193 153.885 473.826 153.885C474.283 153.885 474.705 153.858 475.092 153.806C475.479 153.753 475.804 153.7 476.067 153.647L476.094 158.868C475.514 159.062 474.854 159.22 474.116 159.343C473.396 159.466 472.578 159.527 471.664 159.527C470.1 159.527 468.729 159.264 467.551 158.736C466.373 158.191 465.459 157.321 464.809 156.126C464.158 154.913 463.833 153.313 463.833 151.327V123.457ZM493.259 159.527C491.097 159.527 489.154 159.176 487.432 158.473C485.709 157.77 484.241 156.794 483.028 155.546C481.833 154.28 480.91 152.812 480.26 151.143C479.627 149.455 479.311 147.645 479.311 145.711V144.656C479.311 142.459 479.627 140.464 480.26 138.671C480.893 136.86 481.789 135.305 482.949 134.004C484.109 132.703 485.498 131.701 487.115 130.998C488.732 130.295 490.517 129.943 492.468 129.943C494.489 129.943 496.273 130.286 497.82 130.972C499.367 131.64 500.659 132.589 501.696 133.819C502.733 135.05 503.516 136.526 504.043 138.249C504.57 139.954 504.834 141.844 504.834 143.918V146.845H482.475V142.046H497.979V141.519C497.943 140.411 497.732 139.4 497.346 138.486C496.959 137.555 496.361 136.816 495.553 136.271C494.744 135.709 493.698 135.428 492.415 135.428C491.378 135.428 490.473 135.656 489.699 136.113C488.943 136.553 488.311 137.186 487.801 138.012C487.309 138.82 486.939 139.787 486.693 140.912C486.447 142.037 486.324 143.285 486.324 144.656V145.711C486.324 146.906 486.482 148.014 486.799 149.033C487.133 150.053 487.616 150.94 488.249 151.696C488.899 152.435 489.673 153.015 490.569 153.437C491.483 153.841 492.521 154.043 493.681 154.043C495.14 154.043 496.458 153.762 497.636 153.199C498.831 152.619 499.868 151.767 500.747 150.642L504.254 154.28C503.656 155.159 502.848 156.003 501.828 156.812C500.826 157.62 499.613 158.279 498.189 158.789C496.766 159.281 495.122 159.527 493.259 159.527ZM525.189 151.195C525.189 150.598 525.031 150.062 524.715 149.587C524.398 149.112 523.801 148.682 522.922 148.295C522.061 147.891 520.795 147.513 519.125 147.161C517.648 146.845 516.286 146.449 515.038 145.975C513.79 145.5 512.718 144.929 511.821 144.261C510.925 143.575 510.222 142.775 509.712 141.861C509.22 140.93 508.974 139.857 508.974 138.645C508.974 137.467 509.229 136.359 509.738 135.322C510.248 134.268 510.986 133.345 511.953 132.554C512.92 131.745 514.098 131.112 515.486 130.655C516.875 130.181 518.439 129.943 520.18 129.943C522.605 129.943 524.688 130.339 526.429 131.13C528.187 131.921 529.531 133.011 530.463 134.399C531.395 135.771 531.86 137.317 531.86 139.04H524.899C524.899 138.284 524.724 137.599 524.372 136.983C524.038 136.368 523.52 135.876 522.816 135.507C522.113 135.12 521.226 134.927 520.153 134.927C519.187 134.927 518.369 135.085 517.701 135.401C517.051 135.718 516.559 136.131 516.225 136.641C515.891 137.15 515.724 137.713 515.724 138.328C515.724 138.785 515.812 139.198 515.987 139.567C516.181 139.919 516.488 140.244 516.91 140.543C517.332 140.842 517.903 141.114 518.624 141.36C519.362 141.606 520.268 141.844 521.34 142.072C523.467 142.494 525.321 143.057 526.903 143.76C528.503 144.445 529.751 145.359 530.647 146.502C531.544 147.645 531.992 149.104 531.992 150.879C531.992 152.145 531.72 153.305 531.175 154.359C530.63 155.396 529.839 156.302 528.802 157.075C527.765 157.849 526.525 158.455 525.084 158.895C523.643 159.316 522.017 159.527 520.206 159.527C517.587 159.527 515.372 159.062 513.562 158.13C511.751 157.181 510.38 155.985 509.448 154.544C508.517 153.085 508.051 151.573 508.051 150.009H514.722C514.774 151.116 515.073 152.004 515.618 152.672C516.163 153.34 516.849 153.823 517.675 154.122C518.519 154.403 519.406 154.544 520.338 154.544C521.393 154.544 522.28 154.403 523.001 154.122C523.722 153.823 524.267 153.428 524.636 152.936C525.005 152.426 525.189 151.846 525.189 151.195ZM559.862 159H552.849V127.834C552.849 125.689 553.262 123.888 554.088 122.429C554.914 120.952 556.092 119.836 557.621 119.08C559.15 118.324 560.952 117.946 563.026 117.946C563.712 117.946 564.362 117.99 564.978 118.078C565.61 118.166 566.234 118.289 566.85 118.447L566.718 123.747C566.384 123.659 566.015 123.598 565.61 123.562C565.224 123.527 564.793 123.51 564.318 123.51C563.369 123.51 562.561 123.677 561.893 124.011C561.225 124.345 560.715 124.837 560.363 125.487C560.029 126.12 559.862 126.902 559.862 127.834V159ZM565.637 130.471V135.48H548.551V130.471H565.637ZM568.695 145.025V144.472C568.695 142.38 568.994 140.455 569.592 138.697C570.189 136.922 571.06 135.384 572.202 134.083C573.345 132.782 574.742 131.771 576.395 131.051C578.047 130.312 579.928 129.943 582.037 129.943C584.182 129.943 586.08 130.312 587.732 131.051C589.402 131.771 590.809 132.782 591.951 134.083C593.094 135.384 593.964 136.922 594.562 138.697C595.159 140.455 595.458 142.38 595.458 144.472V145.025C595.458 147.1 595.159 149.024 594.562 150.8C593.964 152.558 593.094 154.096 591.951 155.414C590.809 156.715 589.411 157.726 587.759 158.446C586.106 159.167 584.217 159.527 582.09 159.527C579.98 159.527 578.091 159.167 576.421 158.446C574.751 157.726 573.345 156.715 572.202 155.414C571.06 154.096 570.189 152.558 569.592 150.8C568.994 149.024 568.695 147.1 568.695 145.025ZM575.656 144.472V145.025C575.656 146.273 575.779 147.442 576.025 148.532C576.271 149.622 576.649 150.58 577.159 151.406C577.669 152.232 578.328 152.883 579.137 153.357C579.963 153.814 580.947 154.043 582.09 154.043C583.215 154.043 584.182 153.814 584.99 153.357C585.799 152.883 586.458 152.232 586.968 151.406C587.495 150.58 587.882 149.622 588.128 148.532C588.374 147.442 588.497 146.273 588.497 145.025V144.472C588.497 143.241 588.374 142.09 588.128 141.018C587.882 139.928 587.495 138.97 586.968 138.144C586.458 137.3 585.79 136.641 584.964 136.166C584.155 135.674 583.18 135.428 582.037 135.428C580.912 135.428 579.945 135.674 579.137 136.166C578.328 136.641 577.669 137.3 577.159 138.144C576.649 138.97 576.271 139.928 576.025 141.018C575.779 142.09 575.656 143.241 575.656 144.472ZM607.481 136.298V159H600.521V130.471H607.112L607.481 136.298ZM616.156 130.286L616.051 136.772C615.664 136.702 615.225 136.649 614.732 136.614C614.258 136.579 613.81 136.562 613.388 136.562C612.315 136.562 611.375 136.711 610.566 137.01C609.758 137.291 609.081 137.704 608.536 138.249C608.009 138.794 607.604 139.462 607.323 140.253C607.042 141.026 606.884 141.905 606.849 142.89L605.346 142.705C605.346 140.895 605.53 139.216 605.899 137.669C606.269 136.122 606.805 134.769 607.508 133.608C608.211 132.448 609.09 131.552 610.145 130.919C611.217 130.269 612.447 129.943 613.836 129.943C614.223 129.943 614.636 129.979 615.075 130.049C615.532 130.102 615.893 130.181 616.156 130.286Z" fill="#1C4670"/>
<path d="M648.72 144.999H638.832V139.304H648.72C650.337 139.304 651.646 139.04 652.648 138.513C653.668 137.968 654.415 137.229 654.89 136.298C655.364 135.349 655.602 134.268 655.602 133.055C655.602 131.877 655.364 130.778 654.89 129.759C654.415 128.739 653.668 127.913 652.648 127.28C651.646 126.647 650.337 126.331 648.72 126.331H641.205V159H633.954V120.609H648.72C651.708 120.609 654.257 121.146 656.366 122.218C658.493 123.272 660.11 124.74 661.218 126.621C662.343 128.484 662.905 130.611 662.905 133.002C662.905 135.48 662.343 137.616 661.218 139.409C660.11 141.202 658.493 142.582 656.366 143.549C654.257 144.516 651.708 144.999 648.72 144.999ZM675.034 136.298V159H668.073V130.471H674.665L675.034 136.298ZM683.709 130.286L683.604 136.772C683.217 136.702 682.777 136.649 682.285 136.614C681.811 136.579 681.362 136.562 680.94 136.562C679.868 136.562 678.928 136.711 678.119 137.01C677.311 137.291 676.634 137.704 676.089 138.249C675.562 138.794 675.157 139.462 674.876 140.253C674.595 141.026 674.437 141.905 674.401 142.89L672.898 142.705C672.898 140.895 673.083 139.216 673.452 137.669C673.821 136.122 674.357 134.769 675.061 133.608C675.764 132.448 676.643 131.552 677.697 130.919C678.77 130.269 680 129.943 681.389 129.943C681.775 129.943 682.188 129.979 682.628 130.049C683.085 130.102 683.445 130.181 683.709 130.286ZM685.555 145.025V144.472C685.555 142.38 685.854 140.455 686.451 138.697C687.049 136.922 687.919 135.384 689.062 134.083C690.204 132.782 691.602 131.771 693.254 131.051C694.906 130.312 696.787 129.943 698.896 129.943C701.041 129.943 702.939 130.312 704.592 131.051C706.262 131.771 707.668 132.782 708.811 134.083C709.953 135.384 710.823 136.922 711.421 138.697C712.019 140.455 712.317 142.38 712.317 144.472V145.025C712.317 147.1 712.019 149.024 711.421 150.8C710.823 152.558 709.953 154.096 708.811 155.414C707.668 156.715 706.271 157.726 704.618 158.446C702.966 159.167 701.076 159.527 698.949 159.527C696.84 159.527 694.95 159.167 693.28 158.446C691.61 157.726 690.204 156.715 689.062 155.414C687.919 154.096 687.049 152.558 686.451 150.8C685.854 149.024 685.555 147.1 685.555 145.025ZM692.516 144.472V145.025C692.516 146.273 692.639 147.442 692.885 148.532C693.131 149.622 693.509 150.58 694.019 151.406C694.528 152.232 695.188 152.883 695.996 153.357C696.822 153.814 697.807 154.043 698.949 154.043C700.074 154.043 701.041 153.814 701.85 153.357C702.658 152.883 703.317 152.232 703.827 151.406C704.354 150.58 704.741 149.622 704.987 148.532C705.233 147.442 705.356 146.273 705.356 145.025V144.472C705.356 143.241 705.233 142.09 704.987 141.018C704.741 139.928 704.354 138.97 703.827 138.144C703.317 137.3 702.649 136.641 701.823 136.166C701.015 135.674 700.039 135.428 698.896 135.428C697.771 135.428 696.805 135.674 695.996 136.166C695.188 136.641 694.528 137.3 694.019 138.144C693.509 138.97 693.131 139.928 692.885 141.018C692.639 142.09 692.516 143.241 692.516 144.472ZM724.341 135.955V169.969H717.354V130.471H723.813L724.341 135.955ZM742.666 144.445V144.999C742.666 147.073 742.42 148.998 741.928 150.773C741.453 152.531 740.75 154.069 739.818 155.388C738.887 156.688 737.727 157.708 736.338 158.446C734.967 159.167 733.385 159.527 731.592 159.527C729.834 159.527 728.305 159.193 727.004 158.525C725.703 157.84 724.604 156.873 723.708 155.625C722.812 154.377 722.091 152.927 721.546 151.274C721.019 149.604 720.623 147.785 720.359 145.816V144.05C720.623 141.958 721.019 140.06 721.546 138.354C722.091 136.632 722.812 135.146 723.708 133.898C724.604 132.633 725.694 131.657 726.978 130.972C728.278 130.286 729.799 129.943 731.539 129.943C733.35 129.943 734.94 130.286 736.312 130.972C737.7 131.657 738.869 132.642 739.818 133.925C740.768 135.208 741.479 136.737 741.954 138.513C742.429 140.288 742.666 142.266 742.666 144.445ZM735.679 144.999V144.445C735.679 143.18 735.564 142.011 735.336 140.938C735.107 139.849 734.756 138.899 734.281 138.091C733.807 137.265 733.191 136.623 732.436 136.166C731.68 135.709 730.766 135.48 729.693 135.48C728.621 135.48 727.698 135.656 726.925 136.008C726.151 136.359 725.519 136.86 725.026 137.511C724.534 138.161 724.147 138.935 723.866 139.831C723.603 140.71 723.427 141.686 723.339 142.758V147.135C723.497 148.436 723.805 149.604 724.262 150.642C724.719 151.679 725.387 152.505 726.266 153.12C727.162 153.735 728.322 154.043 729.746 154.043C730.818 154.043 731.732 153.806 732.488 153.331C733.244 152.856 733.859 152.206 734.334 151.38C734.809 150.536 735.151 149.569 735.362 148.479C735.573 147.39 735.679 146.229 735.679 144.999ZM754.716 136.298V159H747.755V130.471H754.347L754.716 136.298ZM763.391 130.286L763.285 136.772C762.898 136.702 762.459 136.649 761.967 136.614C761.492 136.579 761.044 136.562 760.622 136.562C759.55 136.562 758.609 136.711 757.801 137.01C756.992 137.291 756.315 137.704 755.771 138.249C755.243 138.794 754.839 139.462 754.558 140.253C754.276 141.026 754.118 141.905 754.083 142.89L752.58 142.705C752.58 140.895 752.765 139.216 753.134 137.669C753.503 136.122 754.039 134.769 754.742 133.608C755.445 132.448 756.324 131.552 757.379 130.919C758.451 130.269 759.682 129.943 761.07 129.943C761.457 129.943 761.87 129.979 762.31 130.049C762.767 130.102 763.127 130.181 763.391 130.286ZM774.597 130.471V159H767.609V130.471H774.597ZM767.135 123.009C767.135 121.972 767.486 121.11 768.189 120.425C768.91 119.739 769.877 119.396 771.09 119.396C772.303 119.396 773.261 119.739 773.964 120.425C774.685 121.11 775.045 121.972 775.045 123.009C775.045 124.028 774.685 124.881 773.964 125.566C773.261 126.252 772.303 126.595 771.09 126.595C769.877 126.595 768.91 126.252 768.189 125.566C767.486 124.881 767.135 124.028 767.135 123.009ZM794.056 159.527C791.894 159.527 789.951 159.176 788.229 158.473C786.506 157.77 785.038 156.794 783.825 155.546C782.63 154.28 781.707 152.812 781.057 151.143C780.424 149.455 780.107 147.645 780.107 145.711V144.656C780.107 142.459 780.424 140.464 781.057 138.671C781.689 136.86 782.586 135.305 783.746 134.004C784.906 132.703 786.295 131.701 787.912 130.998C789.529 130.295 791.313 129.943 793.265 129.943C795.286 129.943 797.07 130.286 798.617 130.972C800.164 131.64 801.456 132.589 802.493 133.819C803.53 135.05 804.312 136.526 804.84 138.249C805.367 139.954 805.631 141.844 805.631 143.918V146.845H783.271V142.046H798.775V141.519C798.74 140.411 798.529 139.4 798.143 138.486C797.756 137.555 797.158 136.816 796.35 136.271C795.541 135.709 794.495 135.428 793.212 135.428C792.175 135.428 791.27 135.656 790.496 136.113C789.74 136.553 789.107 137.186 788.598 138.012C788.105 138.82 787.736 139.787 787.49 140.912C787.244 142.037 787.121 143.285 787.121 144.656V145.711C787.121 146.906 787.279 148.014 787.596 149.033C787.93 150.053 788.413 150.94 789.046 151.696C789.696 152.435 790.47 153.015 791.366 153.437C792.28 153.841 793.317 154.043 794.478 154.043C795.937 154.043 797.255 153.762 798.433 153.199C799.628 152.619 800.665 151.767 801.544 150.642L805.051 154.28C804.453 155.159 803.645 156.003 802.625 156.812C801.623 157.62 800.41 158.279 798.986 158.789C797.562 159.281 795.919 159.527 794.056 159.527ZM823.798 130.471V135.48H807.45V130.471H823.798ZM811.827 123.457H818.814V150.773C818.814 151.617 818.929 152.268 819.157 152.725C819.386 153.182 819.729 153.489 820.186 153.647C820.643 153.806 821.188 153.885 821.82 153.885C822.277 153.885 822.699 153.858 823.086 153.806C823.473 153.753 823.798 153.7 824.062 153.647L824.088 158.868C823.508 159.062 822.849 159.22 822.11 159.343C821.39 159.466 820.572 159.527 819.658 159.527C818.094 159.527 816.723 159.264 815.545 158.736C814.367 158.191 813.453 157.321 812.803 156.126C812.152 154.913 811.827 153.313 811.827 151.327V123.457ZM826.514 145.025V144.472C826.514 142.38 826.812 140.455 827.41 138.697C828.008 136.922 828.878 135.384 830.021 134.083C831.163 132.782 832.561 131.771 834.213 131.051C835.865 130.312 837.746 129.943 839.855 129.943C842 129.943 843.898 130.312 845.551 131.051C847.221 131.771 848.627 132.782 849.77 134.083C850.912 135.384 851.782 136.922 852.38 138.697C852.978 140.455 853.276 142.38 853.276 144.472V145.025C853.276 147.1 852.978 149.024 852.38 150.8C851.782 152.558 850.912 154.096 849.77 155.414C848.627 156.715 847.229 157.726 845.577 158.446C843.925 159.167 842.035 159.527 839.908 159.527C837.799 159.527 835.909 159.167 834.239 158.446C832.569 157.726 831.163 156.715 830.021 155.414C828.878 154.096 828.008 152.558 827.41 150.8C826.812 149.024 826.514 147.1 826.514 145.025ZM833.475 144.472V145.025C833.475 146.273 833.598 147.442 833.844 148.532C834.09 149.622 834.468 150.58 834.978 151.406C835.487 152.232 836.146 152.883 836.955 153.357C837.781 153.814 838.766 154.043 839.908 154.043C841.033 154.043 842 153.814 842.809 153.357C843.617 152.883 844.276 152.232 844.786 151.406C845.313 150.58 845.7 149.622 845.946 148.532C846.192 147.442 846.315 146.273 846.315 145.025V144.472C846.315 143.241 846.192 142.09 845.946 141.018C845.7 139.928 845.313 138.97 844.786 138.144C844.276 137.3 843.608 136.641 842.782 136.166C841.974 135.674 840.998 135.428 839.855 135.428C838.73 135.428 837.764 135.674 836.955 136.166C836.146 136.641 835.487 137.3 834.978 138.144C834.468 138.97 834.09 139.928 833.844 141.018C833.598 142.09 833.475 143.241 833.475 144.472ZM865.3 136.298V159H858.339V130.471H864.931L865.3 136.298ZM873.975 130.286L873.869 136.772C873.482 136.702 873.043 136.649 872.551 136.614C872.076 136.579 871.628 136.562 871.206 136.562C870.134 136.562 869.193 136.711 868.385 137.01C867.576 137.291 866.899 137.704 866.354 138.249C865.827 138.794 865.423 139.462 865.142 140.253C864.86 141.026 864.702 141.905 864.667 142.89L863.164 142.705C863.164 140.895 863.349 139.216 863.718 137.669C864.087 136.122 864.623 134.769 865.326 133.608C866.029 132.448 866.908 131.552 867.963 130.919C869.035 130.269 870.266 129.943 871.654 129.943C872.041 129.943 872.454 129.979 872.894 130.049C873.351 130.102 873.711 130.181 873.975 130.286ZM893.486 151.195C893.486 150.598 893.328 150.062 893.012 149.587C892.695 149.112 892.098 148.682 891.219 148.295C890.357 147.891 889.092 147.513 887.422 147.161C885.945 146.845 884.583 146.449 883.335 145.975C882.087 145.5 881.015 144.929 880.118 144.261C879.222 143.575 878.519 142.775 878.009 141.861C877.517 140.93 877.271 139.857 877.271 138.645C877.271 137.467 877.525 136.359 878.035 135.322C878.545 134.268 879.283 133.345 880.25 132.554C881.217 131.745 882.395 131.112 883.783 130.655C885.172 130.181 886.736 129.943 888.477 129.943C890.902 129.943 892.985 130.339 894.726 131.13C896.483 131.921 897.828 133.011 898.76 134.399C899.691 135.771 900.157 137.317 900.157 139.04H893.196C893.196 138.284 893.021 137.599 892.669 136.983C892.335 136.368 891.816 135.876 891.113 135.507C890.41 135.12 889.522 134.927 888.45 134.927C887.483 134.927 886.666 135.085 885.998 135.401C885.348 135.718 884.855 136.131 884.521 136.641C884.188 137.15 884.021 137.713 884.021 138.328C884.021 138.785 884.108 139.198 884.284 139.567C884.478 139.919 884.785 140.244 885.207 140.543C885.629 140.842 886.2 141.114 886.921 141.36C887.659 141.606 888.564 141.844 889.637 142.072C891.764 142.494 893.618 143.057 895.2 143.76C896.8 144.445 898.048 145.359 898.944 146.502C899.841 147.645 900.289 149.104 900.289 150.879C900.289 152.145 900.017 153.305 899.472 154.359C898.927 155.396 898.136 156.302 897.099 157.075C896.062 157.849 894.822 158.455 893.381 158.895C891.939 159.316 890.313 159.527 888.503 159.527C885.884 159.527 883.669 159.062 881.858 158.13C880.048 157.181 878.677 155.985 877.745 154.544C876.813 153.085 876.348 151.573 876.348 150.009H883.019C883.071 151.116 883.37 152.004 883.915 152.672C884.46 153.34 885.146 153.823 885.972 154.122C886.815 154.403 887.703 154.544 888.635 154.544C889.689 154.544 890.577 154.403 891.298 154.122C892.019 153.823 892.563 153.428 892.933 152.936C893.302 152.426 893.486 151.846 893.486 151.195ZM912.418 118.5V159H905.431V118.5H912.418ZM911.311 143.707H909.254C909.254 141.721 909.518 139.893 910.045 138.223C910.572 136.553 911.319 135.103 912.286 133.872C913.253 132.624 914.404 131.657 915.74 130.972C917.094 130.286 918.588 129.943 920.223 129.943C921.629 129.943 922.903 130.146 924.046 130.55C925.206 130.937 926.199 131.561 927.025 132.422C927.852 133.283 928.484 134.408 928.924 135.797C929.381 137.168 929.609 138.838 929.609 140.807V159H922.596V140.754C922.596 139.436 922.402 138.398 922.016 137.643C921.629 136.869 921.075 136.315 920.354 135.981C919.651 135.647 918.781 135.48 917.744 135.48C916.619 135.48 915.652 135.7 914.844 136.14C914.035 136.562 913.367 137.15 912.84 137.906C912.33 138.662 911.943 139.532 911.68 140.517C911.434 141.501 911.311 142.564 911.311 143.707ZM943.136 130.471V159H936.148V130.471H943.136ZM935.674 123.009C935.674 121.972 936.025 121.11 936.729 120.425C937.449 119.739 938.416 119.396 939.629 119.396C940.842 119.396 941.8 119.739 942.503 120.425C943.224 121.11 943.584 121.972 943.584 123.009C943.584 124.028 943.224 124.881 942.503 125.566C941.8 126.252 940.842 126.595 939.629 126.595C938.416 126.595 937.449 126.252 936.729 125.566C936.025 124.881 935.674 124.028 935.674 123.009ZM956.741 135.955V169.969H949.754V130.471H956.214L956.741 135.955ZM975.066 144.445V144.999C975.066 147.073 974.82 148.998 974.328 150.773C973.854 152.531 973.15 154.069 972.219 155.388C971.287 156.688 970.127 157.708 968.738 158.446C967.367 159.167 965.785 159.527 963.992 159.527C962.234 159.527 960.705 159.193 959.404 158.525C958.104 157.84 957.005 156.873 956.108 155.625C955.212 154.377 954.491 152.927 953.946 151.274C953.419 149.604 953.023 147.785 952.76 145.816V144.05C953.023 141.958 953.419 140.06 953.946 138.354C954.491 136.632 955.212 135.146 956.108 133.898C957.005 132.633 958.095 131.657 959.378 130.972C960.679 130.286 962.199 129.943 963.939 129.943C965.75 129.943 967.341 130.286 968.712 130.972C970.101 131.657 971.27 132.642 972.219 133.925C973.168 135.208 973.88 136.737 974.354 138.513C974.829 140.288 975.066 142.266 975.066 144.445ZM968.079 144.999V144.445C968.079 143.18 967.965 142.011 967.736 140.938C967.508 139.849 967.156 138.899 966.682 138.091C966.207 137.265 965.592 136.623 964.836 136.166C964.08 135.709 963.166 135.48 962.094 135.48C961.021 135.48 960.099 135.656 959.325 136.008C958.552 136.359 957.919 136.86 957.427 137.511C956.935 138.161 956.548 138.935 956.267 139.831C956.003 140.71 955.827 141.686 955.739 142.758V147.135C955.897 148.436 956.205 149.604 956.662 150.642C957.119 151.679 957.787 152.505 958.666 153.12C959.562 153.735 960.723 154.043 962.146 154.043C963.219 154.043 964.133 153.806 964.889 153.331C965.645 152.856 966.26 152.206 966.734 151.38C967.209 150.536 967.552 149.569 967.763 148.479C967.974 147.39 968.079 146.229 968.079 144.999ZM1019.57 153.305V159H999.166V153.305H1019.57ZM1001.38 120.609V159H994.13V120.609H1001.38ZM1016.91 136.456V142.02H999.166V136.456H1016.91ZM1019.5 120.609V126.331H999.166V120.609H1019.5ZM1030.91 136.562V159H1023.95V130.471H1030.49L1030.91 136.562ZM1029.8 143.707H1027.75C1027.77 141.633 1028.05 139.752 1028.59 138.064C1029.14 136.377 1029.9 134.927 1030.89 133.714C1031.89 132.501 1033.07 131.569 1034.45 130.919C1035.82 130.269 1037.35 129.943 1039.03 129.943C1040.4 129.943 1041.64 130.137 1042.75 130.523C1043.86 130.91 1044.81 131.525 1045.6 132.369C1046.41 133.213 1047.02 134.32 1047.44 135.691C1047.88 137.045 1048.1 138.715 1048.1 140.701V159H1041.09V140.648C1041.09 139.348 1040.9 138.319 1040.51 137.563C1040.14 136.808 1039.6 136.271 1038.88 135.955C1038.17 135.639 1037.3 135.48 1036.26 135.48C1035.19 135.48 1034.25 135.7 1033.44 136.14C1032.65 136.562 1031.98 137.15 1031.44 137.906C1030.91 138.662 1030.51 139.532 1030.23 140.517C1029.95 141.501 1029.8 142.564 1029.8 143.707ZM1067.75 130.471V135.48H1051.4V130.471H1067.75ZM1055.78 123.457H1062.76V150.773C1062.76 151.617 1062.88 152.268 1063.11 152.725C1063.33 153.182 1063.68 153.489 1064.13 153.647C1064.59 153.806 1065.14 153.885 1065.77 153.885C1066.23 153.885 1066.65 153.858 1067.04 153.806C1067.42 153.753 1067.75 153.7 1068.01 153.647L1068.04 158.868C1067.46 159.062 1066.8 159.22 1066.06 159.343C1065.34 159.466 1064.52 159.527 1063.61 159.527C1062.04 159.527 1060.67 159.264 1059.49 158.736C1058.32 158.191 1057.4 157.321 1056.75 156.126C1056.1 154.913 1055.78 153.313 1055.78 151.327V123.457ZM1079.77 130.471V159H1072.78V130.471H1079.77ZM1072.31 123.009C1072.31 121.972 1072.66 121.11 1073.36 120.425C1074.08 119.739 1075.05 119.396 1076.26 119.396C1077.48 119.396 1078.43 119.739 1079.14 120.425C1079.86 121.11 1080.22 121.972 1080.22 123.009C1080.22 124.028 1079.86 124.881 1079.14 125.566C1078.43 126.252 1077.48 126.595 1076.26 126.595C1075.05 126.595 1074.08 126.252 1073.36 125.566C1072.66 124.881 1072.31 124.028 1072.31 123.009ZM1099.92 130.471V135.48H1083.57V130.471H1099.92ZM1087.94 123.457H1094.93V150.773C1094.93 151.617 1095.05 152.268 1095.27 152.725C1095.5 153.182 1095.85 153.489 1096.3 153.647C1096.76 153.806 1097.3 153.885 1097.94 153.885C1098.39 153.885 1098.82 153.858 1099.2 153.806C1099.59 153.753 1099.92 153.7 1100.18 153.647L1100.21 158.868C1099.62 159.062 1098.97 159.22 1098.23 159.343C1097.51 159.466 1096.69 159.527 1095.78 159.527C1094.21 159.527 1092.84 159.264 1091.66 158.736C1090.48 158.191 1089.57 157.321 1088.92 156.126C1088.27 154.913 1087.94 153.313 1087.94 151.327V123.457ZM1111.94 130.471V159H1104.95V130.471H1111.94ZM1104.48 123.009C1104.48 121.972 1104.83 121.11 1105.53 120.425C1106.25 119.739 1107.22 119.396 1108.43 119.396C1109.64 119.396 1110.6 119.739 1111.31 120.425C1112.03 121.11 1112.39 121.972 1112.39 123.009C1112.39 124.028 1112.03 124.881 1111.31 125.566C1110.6 126.252 1109.64 126.595 1108.43 126.595C1107.22 126.595 1106.25 126.252 1105.53 125.566C1104.83 124.881 1104.48 124.028 1104.48 123.009ZM1131.4 159.527C1129.24 159.527 1127.29 159.176 1125.57 158.473C1123.85 157.77 1122.38 156.794 1121.17 155.546C1119.97 154.28 1119.05 152.812 1118.4 151.143C1117.77 149.455 1117.45 147.645 1117.45 145.711V144.656C1117.45 142.459 1117.77 140.464 1118.4 138.671C1119.03 136.86 1119.93 135.305 1121.09 134.004C1122.25 132.703 1123.64 131.701 1125.25 130.998C1126.87 130.295 1128.66 129.943 1130.61 129.943C1132.63 129.943 1134.41 130.286 1135.96 130.972C1137.51 131.64 1138.8 132.589 1139.83 133.819C1140.87 135.05 1141.65 136.526 1142.18 138.249C1142.71 139.954 1142.97 141.844 1142.97 143.918V146.845H1120.61V142.046H1136.12V141.519C1136.08 140.411 1135.87 139.4 1135.48 138.486C1135.1 137.555 1134.5 136.816 1133.69 136.271C1132.88 135.709 1131.84 135.428 1130.55 135.428C1129.52 135.428 1128.61 135.656 1127.84 136.113C1127.08 136.553 1126.45 137.186 1125.94 138.012C1125.45 138.82 1125.08 139.787 1124.83 140.912C1124.59 142.037 1124.46 143.285 1124.46 144.656V145.711C1124.46 146.906 1124.62 148.014 1124.94 149.033C1125.27 150.053 1125.75 150.94 1126.39 151.696C1127.04 152.435 1127.81 153.015 1128.71 153.437C1129.62 153.841 1130.66 154.043 1131.82 154.043C1133.28 154.043 1134.6 153.762 1135.77 153.199C1136.97 152.619 1138.01 151.767 1138.89 150.642L1142.39 154.28C1141.79 155.159 1140.99 156.003 1139.97 156.812C1138.96 157.62 1137.75 158.279 1136.33 158.789C1134.9 159.281 1133.26 159.527 1131.4 159.527ZM1163.33 151.195C1163.33 150.598 1163.17 150.062 1162.85 149.587C1162.54 149.112 1161.94 148.682 1161.06 148.295C1160.2 147.891 1158.93 147.513 1157.26 147.161C1155.79 146.845 1154.42 146.449 1153.18 145.975C1151.93 145.5 1150.86 144.929 1149.96 144.261C1149.06 143.575 1148.36 142.775 1147.85 141.861C1147.36 140.93 1147.11 139.857 1147.11 138.645C1147.11 137.467 1147.37 136.359 1147.88 135.322C1148.39 134.268 1149.12 133.345 1150.09 132.554C1151.06 131.745 1152.24 131.112 1153.62 130.655C1155.01 130.181 1156.58 129.943 1158.32 129.943C1160.74 129.943 1162.83 130.339 1164.57 131.13C1166.33 131.921 1167.67 133.011 1168.6 134.399C1169.53 135.771 1170 137.317 1170 139.04H1163.04C1163.04 138.284 1162.86 137.599 1162.51 136.983C1162.18 136.368 1161.66 135.876 1160.96 135.507C1160.25 135.12 1159.36 134.927 1158.29 134.927C1157.33 134.927 1156.51 135.085 1155.84 135.401C1155.19 135.718 1154.7 136.131 1154.36 136.641C1154.03 137.15 1153.86 137.713 1153.86 138.328C1153.86 138.785 1153.95 139.198 1154.13 139.567C1154.32 139.919 1154.63 140.244 1155.05 140.543C1155.47 140.842 1156.04 141.114 1156.76 141.36C1157.5 141.606 1158.41 141.844 1159.48 142.072C1161.61 142.494 1163.46 143.057 1165.04 143.76C1166.64 144.445 1167.89 145.359 1168.79 146.502C1169.68 147.645 1170.13 149.104 1170.13 150.879C1170.13 152.145 1169.86 153.305 1169.31 154.359C1168.77 155.396 1167.98 156.302 1166.94 157.075C1165.9 157.849 1164.66 158.455 1163.22 158.895C1161.78 159.316 1160.16 159.527 1158.34 159.527C1155.73 159.527 1153.51 159.062 1151.7 158.13C1149.89 157.181 1148.52 155.985 1147.59 154.544C1146.66 153.085 1146.19 151.573 1146.19 150.009H1152.86C1152.91 151.116 1153.21 152.004 1153.76 152.672C1154.3 153.34 1154.99 153.823 1155.81 154.122C1156.66 154.403 1157.54 154.544 1158.48 154.544C1159.53 154.544 1160.42 154.403 1161.14 154.122C1161.86 153.823 1162.41 153.428 1162.77 152.936C1163.14 152.426 1163.33 151.846 1163.33 151.195Z" fill="#FFA229"/>
</g>
<defs>
<filter id="filter0_d_1159_5201" x="-4.90625" y="204" width="549" height="549" filterUnits="userSpaceOnUse" color-interpolation-filters="sRGB">
<feFlood flood-opacity="0" result="BackgroundImageFix"/>
<feColorMatrix in="SourceAlpha" type="matrix" values="0 0 0 0 0 0 0 0 0 0 0 0 0 0 0 0 0 0 127 0" result="hardAlpha"/>
<feMorphology radius="7" operator="erode" in="SourceAlpha" result="effect1_dropShadow_1159_5201"/>
<feOffset dx="-30" dy="41"/>
<feGaussianBlur stdDeviation="27"/>
<feComposite in2="hardAlpha" operator="out"/>
<feColorMatrix type="matrix" values="0 0 0 0 0 0 0 0 0 0 0 0 0 0 0 0 0 0 0.25 0"/>
<feBlend mode="normal" in2="BackgroundImageFix" result="effect1_dropShadow_1159_5201"/>
<feBlend mode="normal" in="SourceGraphic" in2="effect1_dropShadow_1159_5201" result="shape"/>
</filter>
<filter id="filter1_d_1159_5201" x="780.898" y="204" width="549" height="549" filterUnits="userSpaceOnUse" color-interpolation-filters="sRGB">
<feFlood flood-opacity="0" result="BackgroundImageFix"/>
<feColorMatrix in="SourceAlpha" type="matrix" values="0 0 0 0 0 0 0 0 0 0 0 0 0 0 0 0 0 0 127 0" result="hardAlpha"/>
<feMorphology radius="7" operator="erode" in="SourceAlpha" result="effect1_dropShadow_1159_5201"/>
<feOffset dx="-30" dy="41"/>
<feGaussianBlur stdDeviation="27"/>
<feComposite in2="hardAlpha" operator="out"/>
<feColorMatrix type="matrix" values="0 0 0 0 0 0 0 0 0 0 0 0 0 0 0 0 0 0 0.25 0"/>
<feBlend mode="normal" in2="BackgroundImageFix" result="effect1_dropShadow_1159_5201"/>
<feBlend mode="normal" in="SourceGraphic" in2="effect1_dropShadow_1159_5201" result="shape"/>
</filter>
<filter id="filter2_d_1159_5201" x="65" y="237" width="434.289" height="434.289" filterUnits="userSpaceOnUse" color-interpolation-filters="sRGB">
<feFlood flood-opacity="0" result="BackgroundImageFix"/>
<feColorMatrix in="SourceAlpha" type="matrix" values="0 0 0 0 0 0 0 0 0 0 0 0 0 0 0 0 0 0 127 0" result="hardAlpha"/>
<feOffset dx="-17" dy="17"/>
<feGaussianBlur stdDeviation="17"/>
<feComposite in2="hardAlpha" operator="out"/>
<feColorMatrix type="matrix" values="0 0 0 0 0 0 0 0 0 0 0 0 0 0 0 0 0 0 0.25 0"/>
<feBlend mode="normal" in2="BackgroundImageFix" result="effect1_dropShadow_1159_5201"/>
<feBlend mode="normal" in="SourceGraphic" in2="effect1_dropShadow_1159_5201" result="shape"/>
</filter>
<filter id="filter3_d_1159_5201" x="851" y="237" width="434.289" height="434.289" filterUnits="userSpaceOnUse" color-interpolation-filters="sRGB">
<feFlood flood-opacity="0" result="BackgroundImageFix"/>
<feColorMatrix in="SourceAlpha" type="matrix" values="0 0 0 0 0 0 0 0 0 0 0 0 0 0 0 0 0 0 127 0" result="hardAlpha"/>
<feOffset dx="-17" dy="17"/>
<feGaussianBlur stdDeviation="17"/>
<feComposite in2="hardAlpha" operator="out"/>
<feColorMatrix type="matrix" values="0 0 0 0 0 0 0 0 0 0 0 0 0 0 0 0 0 0 0.25 0"/>
<feBlend mode="normal" in2="BackgroundImageFix" result="effect1_dropShadow_1159_5201"/>
<feBlend mode="normal" in="SourceGraphic" in2="effect1_dropShadow_1159_5201" result="shape"/>
</filter>
<clipPath id="clip0_1159_5201">
<rect width="1386" height="771" fill="white"/>
</clipPath>
</defs>
</svg>
