<svg width="1000" height="1393" viewBox="0 0 1000 1393" fill="none" xmlns="http://www.w3.org/2000/svg">
<g clip-path="url(#clip0_780_306)">
<rect width="1000" height="1393" fill="#FBF7F7"/>
<path d="M70.4658 85.373V92H48.5176V85.373H70.4658ZM51.293 50.7656V92H42.7969V50.7656H51.293ZM67.6055 67.5596V74.0166H48.5176V67.5596H67.6055ZM70.4375 50.7656V57.4209H48.5176V50.7656H70.4375ZM83.5215 48.5V92H75.3369V48.5H83.5215ZM98.8711 61.3574V92H90.6865V61.3574H98.8711ZM90.1768 53.3711C90.1768 52.1816 90.5921 51.1999 91.4229 50.4258C92.2536 49.6517 93.3675 49.2646 94.7646 49.2646C96.1429 49.2646 97.2474 49.6517 98.0781 50.4258C98.9277 51.1999 99.3525 52.1816 99.3525 53.3711C99.3525 54.5605 98.9277 55.5423 98.0781 56.3164C97.2474 57.0905 96.1429 57.4775 94.7646 57.4775C93.3675 57.4775 92.2536 57.0905 91.4229 56.3164C90.5921 55.5423 90.1768 54.5605 90.1768 53.3711ZM125.011 61.3574H132.402V90.9805C132.402 93.7747 131.779 96.1442 130.533 98.0889C129.306 100.052 127.588 101.535 125.379 102.535C123.17 103.555 120.602 104.064 117.676 104.064C116.392 104.064 115.033 103.895 113.598 103.555C112.182 103.215 110.822 102.686 109.52 101.969C108.236 101.251 107.16 100.345 106.291 99.25L109.888 94.4355C110.832 95.5306 111.927 96.3802 113.173 96.9844C114.419 97.6074 115.797 97.9189 117.308 97.9189C118.78 97.9189 120.026 97.6452 121.046 97.0977C122.065 96.569 122.849 95.7855 123.396 94.7471C123.944 93.7275 124.218 92.4909 124.218 91.0371V68.4375L125.011 61.3574ZM104.394 77.0469V76.4521C104.394 74.111 104.677 71.987 105.243 70.0801C105.828 68.1543 106.65 66.5023 107.707 65.124C108.783 63.7458 110.086 62.679 111.615 61.9238C113.145 61.1686 114.872 60.791 116.798 60.791C118.837 60.791 120.546 61.1686 121.924 61.9238C123.302 62.679 124.435 63.7552 125.322 65.1523C126.21 66.5306 126.899 68.1637 127.39 70.0518C127.899 71.9209 128.296 73.9694 128.579 76.1973V77.5C128.296 79.6335 127.871 81.6159 127.305 83.4473C126.738 85.2786 125.993 86.8835 125.067 88.2617C124.142 89.6211 122.991 90.6784 121.612 91.4336C120.253 92.1888 118.629 92.5664 116.741 92.5664C114.853 92.5664 113.145 92.1794 111.615 91.4053C110.105 90.6312 108.812 89.5456 107.735 88.1484C106.659 86.7513 105.828 85.1087 105.243 83.2207C104.677 81.3327 104.394 79.2747 104.394 77.0469ZM112.55 76.4521V77.0469C112.55 78.3118 112.673 79.4919 112.918 80.5869C113.163 81.682 113.541 82.6543 114.051 83.5039C114.579 84.3346 115.231 84.986 116.005 85.458C116.798 85.9111 117.732 86.1377 118.809 86.1377C120.3 86.1377 121.518 85.8262 122.462 85.2031C123.406 84.5612 124.114 83.6833 124.586 82.5693C125.058 81.4554 125.332 80.1715 125.407 78.7178V75.0078C125.369 73.8184 125.209 72.7516 124.926 71.8076C124.643 70.8447 124.246 70.0234 123.736 69.3438C123.227 68.6641 122.566 68.1354 121.754 67.7578C120.942 67.3802 119.979 67.1914 118.865 67.1914C117.789 67.1914 116.854 67.4368 116.062 67.9277C115.287 68.3997 114.636 69.0511 114.107 69.8818C113.598 70.7126 113.211 71.6943 112.946 72.8271C112.682 73.9411 112.55 75.1494 112.55 76.4521ZM147.355 61.3574V92H139.171V61.3574H147.355ZM138.661 53.3711C138.661 52.1816 139.076 51.1999 139.907 50.4258C140.738 49.6517 141.852 49.2646 143.249 49.2646C144.627 49.2646 145.732 49.6517 146.562 50.4258C147.412 51.1999 147.837 52.1816 147.837 53.3711C147.837 54.5605 147.412 55.5423 146.562 56.3164C145.732 57.0905 144.627 57.4775 143.249 57.4775C141.852 57.4775 140.738 57.0905 139.907 56.3164C139.076 55.5423 138.661 54.5605 138.661 53.3711ZM154.096 48.5H162.252V84.9766L161.431 92H154.096V48.5ZM181.651 76.3672V76.9619C181.651 79.2464 181.406 81.3421 180.915 83.249C180.443 85.1559 179.707 86.8079 178.706 88.2051C177.705 89.5833 176.459 90.6595 174.968 91.4336C173.495 92.1888 171.758 92.5664 169.757 92.5664C167.888 92.5664 166.264 92.1888 164.886 91.4336C163.526 90.6784 162.384 89.6117 161.459 88.2334C160.534 86.8551 159.788 85.2409 159.222 83.3906C158.655 81.5404 158.23 79.5202 157.947 77.3301V76.0273C158.23 73.8372 158.655 71.8171 159.222 69.9668C159.788 68.1165 160.534 66.5023 161.459 65.124C162.384 63.7458 163.526 62.679 164.886 61.9238C166.245 61.1686 167.85 60.791 169.7 60.791C171.72 60.791 173.476 61.1781 174.968 61.9521C176.478 62.7074 177.724 63.7835 178.706 65.1807C179.707 66.5589 180.443 68.2015 180.915 70.1084C181.406 71.9964 181.651 74.0827 181.651 76.3672ZM173.495 76.9619V76.3672C173.495 75.1211 173.401 73.9505 173.212 72.8555C173.042 71.7415 172.74 70.7692 172.306 69.9385C171.871 69.0889 171.277 68.4186 170.521 67.9277C169.785 67.4368 168.832 67.1914 167.661 67.1914C166.547 67.1914 165.603 67.3802 164.829 67.7578C164.055 68.1354 163.413 68.6641 162.903 69.3438C162.412 70.0234 162.044 70.8353 161.799 71.7793C161.553 72.7044 161.402 73.724 161.346 74.8379V78.5479C161.402 80.0394 161.648 81.361 162.082 82.5127C162.535 83.6455 163.215 84.5423 164.121 85.2031C165.046 85.8451 166.245 86.166 167.718 86.166C168.869 86.166 169.823 85.9395 170.578 85.4863C171.333 85.0332 171.919 84.3913 172.334 83.5605C172.768 82.7298 173.07 81.7575 173.24 80.6436C173.41 79.5107 173.495 78.2835 173.495 76.9619ZM195.33 61.3574V92H187.146V61.3574H195.33ZM186.636 53.3711C186.636 52.1816 187.051 51.1999 187.882 50.4258C188.713 49.6517 189.826 49.2646 191.224 49.2646C192.602 49.2646 193.706 49.6517 194.537 50.4258C195.387 51.1999 195.812 52.1816 195.812 53.3711C195.812 54.5605 195.387 55.5423 194.537 56.3164C193.706 57.0905 192.602 57.4775 191.224 57.4775C189.826 57.4775 188.713 57.0905 187.882 56.3164C187.051 55.5423 186.636 54.5605 186.636 53.3711ZM210.68 48.5V92H202.495V48.5H210.68ZM226.029 61.3574V92H217.845V61.3574H226.029ZM217.335 53.3711C217.335 52.1816 217.75 51.1999 218.581 50.4258C219.412 49.6517 220.526 49.2646 221.923 49.2646C223.301 49.2646 224.406 49.6517 225.236 50.4258C226.086 51.1999 226.511 52.1816 226.511 53.3711C226.511 54.5605 226.086 55.5423 225.236 56.3164C224.406 57.0905 223.301 57.4775 221.923 57.4775C220.526 57.4775 219.412 57.0905 218.581 56.3164C217.75 55.5423 217.335 54.5605 217.335 53.3711ZM247.779 61.3574V67.1348H229.938V61.3574H247.779ZM234.355 53.7959H242.512V82.7676C242.512 83.6549 242.625 84.3346 242.852 84.8066C243.097 85.2786 243.456 85.609 243.928 85.7979C244.4 85.9678 244.994 86.0527 245.712 86.0527C246.222 86.0527 246.675 86.0339 247.071 85.9961C247.487 85.9395 247.836 85.8828 248.119 85.8262L248.147 91.8301C247.449 92.0566 246.694 92.236 245.882 92.3682C245.07 92.5003 244.173 92.5664 243.191 92.5664C241.398 92.5664 239.831 92.2738 238.49 91.6885C237.169 91.0843 236.149 90.1214 235.432 88.7998C234.714 87.4782 234.355 85.7412 234.355 83.5889V53.7959ZM261.515 88.5449L269.643 61.3574H278.394L266.074 96.6162C265.81 97.3903 265.451 98.221 264.998 99.1084C264.564 99.9958 263.969 100.836 263.214 101.629C262.478 102.441 261.543 103.102 260.41 103.611C259.296 104.121 257.927 104.376 256.304 104.376C255.53 104.376 254.897 104.329 254.406 104.234C253.915 104.14 253.33 104.008 252.65 103.838V97.8623C252.858 97.8623 253.075 97.8623 253.302 97.8623C253.528 97.8812 253.745 97.8906 253.953 97.8906C255.029 97.8906 255.907 97.7679 256.587 97.5225C257.267 97.277 257.814 96.8994 258.229 96.3896C258.645 95.8988 258.975 95.2568 259.221 94.4639L261.515 88.5449ZM258.116 61.3574L264.771 83.5605L265.933 92.1982L260.382 92.793L249.365 61.3574H258.116ZM306.487 92H298.274V58.6387C298.274 56.3164 298.728 54.3623 299.634 52.7764C300.559 51.1715 301.852 49.9632 303.514 49.1514C305.194 48.3206 307.186 47.9053 309.489 47.9053C310.244 47.9053 310.971 47.9619 311.67 48.0752C312.368 48.1696 313.048 48.2923 313.709 48.4434L313.624 54.5889C313.265 54.4945 312.888 54.4284 312.491 54.3906C312.095 54.3529 311.632 54.334 311.104 54.334C310.122 54.334 309.282 54.5039 308.583 54.8438C307.903 55.1647 307.384 55.6462 307.025 56.2881C306.667 56.93 306.487 57.7135 306.487 58.6387V92ZM312.604 61.3574V67.1348H293.715V61.3574H312.604ZM315.578 76.9902V76.3955C315.578 74.1488 315.899 72.0814 316.541 70.1934C317.183 68.2865 318.118 66.6344 319.345 65.2373C320.572 63.8402 322.082 62.7546 323.876 61.9805C325.67 61.1875 327.728 60.791 330.05 60.791C332.372 60.791 334.439 61.1875 336.252 61.9805C338.064 62.7546 339.584 63.8402 340.812 65.2373C342.058 66.6344 343.002 68.2865 343.644 70.1934C344.285 72.0814 344.606 74.1488 344.606 76.3955V76.9902C344.606 79.2181 344.285 81.2855 343.644 83.1924C343.002 85.0804 342.058 86.7324 340.812 88.1484C339.584 89.5456 338.074 90.6312 336.28 91.4053C334.487 92.1794 332.429 92.5664 330.106 92.5664C327.784 92.5664 325.717 92.1794 323.904 91.4053C322.111 90.6312 320.591 89.5456 319.345 88.1484C318.118 86.7324 317.183 85.0804 316.541 83.1924C315.899 81.2855 315.578 79.2181 315.578 76.9902ZM323.734 76.3955V76.9902C323.734 78.2741 323.848 79.473 324.074 80.5869C324.301 81.7008 324.66 82.6826 325.15 83.5322C325.66 84.363 326.321 85.0143 327.133 85.4863C327.945 85.9583 328.936 86.1943 330.106 86.1943C331.239 86.1943 332.212 85.9583 333.023 85.4863C333.835 85.0143 334.487 84.363 334.978 83.5322C335.468 82.6826 335.827 81.7008 336.054 80.5869C336.299 79.473 336.422 78.2741 336.422 76.9902V76.3955C336.422 75.1494 336.299 73.9788 336.054 72.8838C335.827 71.7699 335.459 70.7881 334.949 69.9385C334.458 69.07 333.807 68.3903 332.995 67.8994C332.183 67.4085 331.201 67.1631 330.05 67.1631C328.898 67.1631 327.916 67.4085 327.104 67.8994C326.312 68.3903 325.66 69.07 325.15 69.9385C324.66 70.7881 324.301 71.7699 324.074 72.8838C323.848 73.9788 323.734 75.1494 323.734 76.3955ZM357.775 68.041V92H349.619V61.3574H357.294L357.775 68.041ZM367.008 61.1592L366.866 68.7207C366.47 68.6641 365.988 68.6169 365.422 68.5791C364.874 68.5225 364.374 68.4941 363.921 68.4941C362.769 68.4941 361.769 68.6452 360.919 68.9473C360.088 69.2305 359.39 69.6553 358.823 70.2217C358.276 70.7881 357.86 71.4772 357.577 72.2891C357.313 73.1009 357.162 74.026 357.124 75.0645L355.481 74.5547C355.481 72.5723 355.68 70.7503 356.076 69.0889C356.473 67.4085 357.049 65.9453 357.804 64.6992C358.578 63.4531 359.522 62.4902 360.636 61.8105C361.75 61.1309 363.024 60.791 364.459 60.791C364.912 60.791 365.375 60.8288 365.847 60.9043C366.319 60.9609 366.706 61.0459 367.008 61.1592ZM409.715 78.3213H418.183C418.013 81.0967 417.248 83.5605 415.889 85.7129C414.548 87.8652 412.67 89.5456 410.253 90.7539C407.855 91.9622 404.966 92.5664 401.587 92.5664C398.944 92.5664 396.574 92.1133 394.479 91.207C392.383 90.2819 390.589 88.9603 389.098 87.2422C387.625 85.5241 386.502 83.4473 385.728 81.0117C384.953 78.5762 384.566 75.848 384.566 72.8271V69.9668C384.566 66.946 384.963 64.2178 385.756 61.7822C386.568 59.3278 387.719 57.2415 389.211 55.5234C390.721 53.8053 392.524 52.4837 394.62 51.5586C396.716 50.6335 399.057 50.1709 401.644 50.1709C405.08 50.1709 407.978 50.7939 410.338 52.04C412.717 53.2861 414.558 55.0042 415.86 57.1943C417.182 59.3844 417.975 61.8766 418.239 64.6709H409.743C409.649 63.0094 409.318 61.6029 408.752 60.4512C408.186 59.2806 407.326 58.4027 406.175 57.8174C405.042 57.2132 403.532 56.9111 401.644 56.9111C400.228 56.9111 398.991 57.1755 397.934 57.7041C396.876 58.2327 395.989 59.0352 395.271 60.1113C394.554 61.1875 394.016 62.5469 393.657 64.1895C393.317 65.8132 393.147 67.7201 393.147 69.9102V72.8271C393.147 74.9606 393.308 76.8392 393.629 78.4629C393.95 80.0677 394.441 81.4271 395.102 82.541C395.781 83.6361 396.65 84.4668 397.707 85.0332C398.783 85.5807 400.076 85.8545 401.587 85.8545C403.362 85.8545 404.825 85.5713 405.977 85.0049C407.128 84.4385 408.006 83.5983 408.61 82.4844C409.233 81.3704 409.602 79.9827 409.715 78.3213ZM421.949 76.9902V76.3955C421.949 74.1488 422.27 72.0814 422.912 70.1934C423.554 68.2865 424.489 66.6344 425.716 65.2373C426.943 63.8402 428.453 62.7546 430.247 61.9805C432.041 61.1875 434.099 60.791 436.421 60.791C438.743 60.791 440.811 61.1875 442.623 61.9805C444.436 62.7546 445.955 63.8402 447.183 65.2373C448.429 66.6344 449.373 68.2865 450.015 70.1934C450.657 72.0814 450.978 74.1488 450.978 76.3955V76.9902C450.978 79.2181 450.657 81.2855 450.015 83.1924C449.373 85.0804 448.429 86.7324 447.183 88.1484C445.955 89.5456 444.445 90.6312 442.651 91.4053C440.858 92.1794 438.8 92.5664 436.478 92.5664C434.155 92.5664 432.088 92.1794 430.275 91.4053C428.482 90.6312 426.962 89.5456 425.716 88.1484C424.489 86.7324 423.554 85.0804 422.912 83.1924C422.27 81.2855 421.949 79.2181 421.949 76.9902ZM430.105 76.3955V76.9902C430.105 78.2741 430.219 79.473 430.445 80.5869C430.672 81.7008 431.031 82.6826 431.521 83.5322C432.031 84.363 432.692 85.0143 433.504 85.4863C434.316 85.9583 435.307 86.1943 436.478 86.1943C437.61 86.1943 438.583 85.9583 439.395 85.4863C440.206 85.0143 440.858 84.363 441.349 83.5322C441.84 82.6826 442.198 81.7008 442.425 80.5869C442.67 79.473 442.793 78.2741 442.793 76.9902V76.3955C442.793 75.1494 442.67 73.9788 442.425 72.8838C442.198 71.7699 441.83 70.7881 441.32 69.9385C440.829 69.07 440.178 68.3903 439.366 67.8994C438.554 67.4085 437.573 67.1631 436.421 67.1631C435.269 67.1631 434.287 67.4085 433.476 67.8994C432.683 68.3903 432.031 69.07 431.521 69.9385C431.031 70.7881 430.672 71.7699 430.445 72.8838C430.219 73.9788 430.105 75.1494 430.105 76.3955ZM464.146 67.7012V92H455.962V61.3574H463.637L464.146 67.7012ZM463.014 75.6025H460.748C460.748 73.4691 461.003 71.5055 461.513 69.7119C462.041 67.8994 462.806 66.3324 463.807 65.0107C464.826 63.6702 466.082 62.6318 467.573 61.8955C469.065 61.1592 470.792 60.791 472.756 60.791C474.115 60.791 475.361 60.9987 476.494 61.4141C477.627 61.8105 478.599 62.443 479.411 63.3115C480.242 64.1611 480.884 65.2751 481.337 66.6533C481.79 68.0127 482.017 69.6458 482.017 71.5527V92H473.86V72.459C473.86 71.0618 473.672 69.9857 473.294 69.2305C472.916 68.4753 472.378 67.9466 471.68 67.6445C471 67.3424 470.179 67.1914 469.216 67.1914C468.159 67.1914 467.233 67.4085 466.44 67.8428C465.666 68.277 465.024 68.8812 464.515 69.6553C464.005 70.4105 463.627 71.2979 463.382 72.3174C463.136 73.3369 463.014 74.432 463.014 75.6025ZM481.252 74.668L478.335 75.0361C478.335 73.0348 478.58 71.1751 479.071 69.457C479.581 67.7389 480.327 66.2285 481.309 64.9258C482.309 63.623 483.546 62.613 485.019 61.8955C486.491 61.1592 488.19 60.791 490.116 60.791C491.589 60.791 492.929 61.0081 494.138 61.4424C495.346 61.8577 496.375 62.528 497.225 63.4531C498.093 64.3594 498.754 65.5488 499.207 67.0215C499.679 68.4941 499.915 70.2972 499.915 72.4307V92H491.73V72.4307C491.73 71.0146 491.542 69.9385 491.164 69.2021C490.805 68.4469 490.277 67.9277 489.578 67.6445C488.898 67.3424 488.087 67.1914 487.143 67.1914C486.161 67.1914 485.302 67.3896 484.565 67.7861C483.829 68.1637 483.215 68.6924 482.725 69.3721C482.234 70.0518 481.866 70.8447 481.62 71.751C481.375 72.6383 481.252 73.6107 481.252 74.668ZM514.387 67.248V103.781H506.23V61.3574H513.792L514.387 67.248ZM533.786 76.3389V76.9336C533.786 79.1615 533.522 81.2288 532.993 83.1357C532.483 85.0426 531.728 86.7041 530.728 88.1201C529.727 89.5173 528.481 90.6123 526.989 91.4053C525.517 92.1794 523.817 92.5664 521.892 92.5664C520.022 92.5664 518.399 92.1888 517.021 91.4336C515.642 90.6784 514.481 89.6211 513.537 88.2617C512.612 86.8835 511.866 85.2881 511.3 83.4756C510.733 81.6631 510.299 79.7184 509.997 77.6416V76.084C510.299 73.8561 510.733 71.8171 511.3 69.9668C511.866 68.0977 512.612 66.4834 513.537 65.124C514.481 63.7458 515.633 62.679 516.992 61.9238C518.37 61.1686 519.985 60.791 521.835 60.791C523.78 60.791 525.488 61.1592 526.961 61.8955C528.452 62.6318 529.699 63.6891 530.699 65.0674C531.719 66.4456 532.483 68.0882 532.993 69.9951C533.522 71.902 533.786 74.0166 533.786 76.3389ZM525.602 76.9336V76.3389C525.602 75.0361 525.488 73.8372 525.262 72.7422C525.054 71.6283 524.714 70.6559 524.242 69.8252C523.789 68.9945 523.185 68.3525 522.43 67.8994C521.693 67.4274 520.797 67.1914 519.739 67.1914C518.625 67.1914 517.672 67.3708 516.879 67.7295C516.105 68.0882 515.472 68.6074 514.981 69.2871C514.491 69.9668 514.122 70.7786 513.877 71.7227C513.632 72.6667 513.48 73.7334 513.424 74.9229V78.8594C513.518 80.2565 513.783 81.512 514.217 82.626C514.651 83.721 515.321 84.5895 516.228 85.2314C517.134 85.8734 518.323 86.1943 519.796 86.1943C520.872 86.1943 521.778 85.9583 522.515 85.4863C523.251 84.9954 523.846 84.3252 524.299 83.4756C524.771 82.626 525.101 81.6442 525.29 80.5303C525.498 79.4163 525.602 78.2174 525.602 76.9336ZM555.395 85.0898V71.4395C555.395 70.4577 555.234 69.6175 554.913 68.9189C554.592 68.2015 554.092 67.6445 553.412 67.248C552.751 66.8516 551.892 66.6533 550.835 66.6533C549.929 66.6533 549.145 66.8138 548.484 67.1348C547.824 67.4368 547.314 67.8805 546.955 68.4658C546.596 69.0322 546.417 69.7025 546.417 70.4766H538.261C538.261 69.1738 538.563 67.9372 539.167 66.7666C539.771 65.596 540.649 64.5671 541.801 63.6797C542.952 62.7734 544.321 62.0654 545.907 61.5557C547.512 61.0459 549.306 60.791 551.288 60.791C553.667 60.791 555.782 61.1875 557.632 61.9805C559.482 62.7734 560.936 63.9629 561.993 65.5488C563.069 67.1348 563.607 69.1172 563.607 71.4961V84.6084C563.607 86.2887 563.711 87.667 563.919 88.7432C564.127 89.8005 564.429 90.7256 564.825 91.5186V92H556.584C556.188 91.1693 555.885 90.1309 555.678 88.8848C555.489 87.6198 555.395 86.3548 555.395 85.0898ZM556.471 73.3369L556.527 77.9531H551.968C550.892 77.9531 549.957 78.0758 549.164 78.3213C548.371 78.5667 547.72 78.916 547.21 79.3691C546.7 79.8034 546.323 80.3132 546.077 80.8984C545.851 81.4837 545.737 82.1257 545.737 82.8242C545.737 83.5228 545.898 84.1553 546.219 84.7217C546.54 85.2692 547.002 85.7035 547.606 86.0244C548.211 86.3265 548.919 86.4775 549.73 86.4775C550.958 86.4775 552.024 86.2321 552.931 85.7412C553.837 85.2503 554.535 84.6462 555.026 83.9287C555.536 83.2113 555.8 82.5316 555.819 81.8896L557.972 85.3447C557.67 86.1188 557.254 86.9212 556.726 87.752C556.216 88.5827 555.564 89.3662 554.771 90.1025C553.979 90.82 553.025 91.4147 551.911 91.8867C550.797 92.3398 549.476 92.5664 547.946 92.5664C546.002 92.5664 544.236 92.1794 542.65 91.4053C541.083 90.6123 539.837 89.5267 538.912 88.1484C538.006 86.7513 537.553 85.1654 537.553 83.3906C537.553 81.7858 537.855 80.3604 538.459 79.1143C539.063 77.8682 539.951 76.8203 541.121 75.9707C542.311 75.1022 543.793 74.4508 545.567 74.0166C547.342 73.5635 549.4 73.3369 551.741 73.3369H556.471ZM577.881 67.8994V92H569.725V61.3574H577.371L577.881 67.8994ZM576.691 75.6025H574.482C574.482 73.3369 574.775 71.2979 575.36 69.4854C575.946 67.654 576.767 66.0964 577.824 64.8125C578.882 63.5098 580.137 62.5186 581.591 61.8389C583.063 61.1403 584.706 60.791 586.519 60.791C587.953 60.791 589.266 60.9987 590.455 61.4141C591.645 61.8294 592.664 62.4902 593.514 63.3965C594.382 64.3027 595.043 65.5016 595.496 66.9932C595.968 68.4847 596.204 70.3066 596.204 72.459V92H587.991V72.4307C587.991 71.0713 587.802 70.014 587.425 69.2588C587.047 68.5036 586.49 67.9749 585.754 67.6729C585.036 67.3519 584.149 67.1914 583.092 67.1914C581.997 67.1914 581.043 67.4085 580.231 67.8428C579.438 68.277 578.778 68.8812 578.249 69.6553C577.739 70.4105 577.352 71.2979 577.088 72.3174C576.824 73.3369 576.691 74.432 576.691 75.6025ZM611.497 88.5449L619.625 61.3574H628.376L616.057 96.6162C615.792 97.3903 615.434 98.221 614.98 99.1084C614.546 99.9958 613.951 100.836 613.196 101.629C612.46 102.441 611.525 103.102 610.393 103.611C609.279 104.121 607.91 104.376 606.286 104.376C605.512 104.376 604.88 104.329 604.389 104.234C603.898 104.14 603.312 104.008 602.633 103.838V97.8623C602.84 97.8623 603.058 97.8623 603.284 97.8623C603.511 97.8812 603.728 97.8906 603.936 97.8906C605.012 97.8906 605.89 97.7679 606.569 97.5225C607.249 97.277 607.797 96.8994 608.212 96.3896C608.627 95.8988 608.958 95.2568 609.203 94.4639L611.497 88.5449ZM608.099 61.3574L614.754 83.5605L615.915 92.1982L610.364 92.793L599.348 61.3574H608.099ZM646.586 50.7656H661.964C665.117 50.7656 667.826 51.2376 670.092 52.1816C672.376 53.1257 674.132 54.5228 675.359 56.373C676.587 58.2233 677.2 60.4984 677.2 63.1982C677.2 65.4072 676.823 67.3047 676.067 68.8906C675.331 70.4577 674.283 71.7699 672.924 72.8271C671.583 73.8656 670.007 74.6963 668.194 75.3193L665.504 76.7354H652.137L652.08 70.1084H662.021C663.512 70.1084 664.749 69.8441 665.73 69.3154C666.712 68.7868 667.449 68.0505 667.939 67.1064C668.449 66.1624 668.704 65.0674 668.704 63.8213C668.704 62.4997 668.459 61.3574 667.968 60.3945C667.477 59.4316 666.731 58.6953 665.73 58.1855C664.73 57.6758 663.474 57.4209 661.964 57.4209H655.082V92H646.586V50.7656ZM669.639 92L660.236 73.6201L669.214 73.5635L678.729 91.6035V92H669.639ZM697.336 92.5664C694.957 92.5664 692.824 92.1888 690.936 91.4336C689.048 90.6595 687.443 89.5928 686.121 88.2334C684.818 86.874 683.818 85.2975 683.119 83.5039C682.421 81.6914 682.071 79.7656 682.071 77.7266V76.5938C682.071 74.2715 682.402 72.1475 683.062 70.2217C683.723 68.2959 684.667 66.625 685.895 65.209C687.141 63.793 688.651 62.7074 690.426 61.9521C692.201 61.1781 694.202 60.791 696.43 60.791C698.601 60.791 700.527 61.1497 702.207 61.8672C703.887 62.5846 705.294 63.6042 706.427 64.9258C707.578 66.2474 708.447 67.8333 709.032 69.6836C709.618 71.515 709.91 73.554 709.91 75.8008V79.1992H685.555V73.7617H701.896V73.1387C701.896 72.0059 701.688 70.9958 701.272 70.1084C700.876 69.2021 700.272 68.4847 699.46 67.9561C698.648 67.4274 697.61 67.1631 696.345 67.1631C695.269 67.1631 694.343 67.3991 693.569 67.8711C692.795 68.3431 692.163 69.0039 691.672 69.8535C691.2 70.7031 690.841 71.7038 690.596 72.8555C690.369 73.9883 690.256 75.2344 690.256 76.5938V77.7266C690.256 78.9538 690.426 80.0866 690.766 81.125C691.124 82.1634 691.625 83.0602 692.267 83.8154C692.927 84.5706 693.72 85.1559 694.646 85.5713C695.59 85.9867 696.656 86.1943 697.846 86.1943C699.318 86.1943 700.687 85.9111 701.952 85.3447C703.236 84.7594 704.34 83.8815 705.266 82.7109L709.23 87.0156C708.589 87.9408 707.711 88.8281 706.597 89.6777C705.502 90.5273 704.18 91.2259 702.632 91.7734C701.084 92.3021 699.318 92.5664 697.336 92.5664ZM733.954 61.3574H741.346V90.9805C741.346 93.7747 740.723 96.1442 739.477 98.0889C738.249 100.052 736.531 101.535 734.322 102.535C732.113 103.555 729.546 104.064 726.619 104.064C725.335 104.064 723.976 103.895 722.541 103.555C721.125 103.215 719.766 102.686 718.463 101.969C717.179 101.251 716.103 100.345 715.234 99.25L718.831 94.4355C719.775 95.5306 720.87 96.3802 722.116 96.9844C723.362 97.6074 724.741 97.9189 726.251 97.9189C727.724 97.9189 728.97 97.6452 729.989 97.0977C731.009 96.569 731.792 95.7855 732.34 94.7471C732.887 93.7275 733.161 92.4909 733.161 91.0371V68.4375L733.954 61.3574ZM713.337 77.0469V76.4521C713.337 74.111 713.62 71.987 714.187 70.0801C714.772 68.1543 715.593 66.5023 716.65 65.124C717.727 63.7458 719.029 62.679 720.559 61.9238C722.088 61.1686 723.815 60.791 725.741 60.791C727.78 60.791 729.489 61.1686 730.867 61.9238C732.245 62.679 733.378 63.7552 734.266 65.1523C735.153 66.5306 735.842 68.1637 736.333 70.0518C736.843 71.9209 737.239 73.9694 737.522 76.1973V77.5C737.239 79.6335 736.814 81.6159 736.248 83.4473C735.682 85.2786 734.936 86.8835 734.011 88.2617C733.086 89.6211 731.934 90.6784 730.556 91.4336C729.196 92.1888 727.573 92.5664 725.685 92.5664C723.797 92.5664 722.088 92.1794 720.559 91.4053C719.048 90.6312 717.755 89.5456 716.679 88.1484C715.603 86.7513 714.772 85.1087 714.187 83.2207C713.62 81.3327 713.337 79.2747 713.337 77.0469ZM721.493 76.4521V77.0469C721.493 78.3118 721.616 79.4919 721.861 80.5869C722.107 81.682 722.484 82.6543 722.994 83.5039C723.523 84.3346 724.174 84.986 724.948 85.458C725.741 85.9111 726.676 86.1377 727.752 86.1377C729.243 86.1377 730.461 85.8262 731.405 85.2031C732.349 84.5612 733.057 83.6833 733.529 82.5693C734.001 81.4554 734.275 80.1715 734.351 78.7178V75.0078C734.313 73.8184 734.152 72.7516 733.869 71.8076C733.586 70.8447 733.189 70.0234 732.68 69.3438C732.17 68.6641 731.509 68.1354 730.697 67.7578C729.885 67.3802 728.923 67.1914 727.809 67.1914C726.732 67.1914 725.798 67.4368 725.005 67.9277C724.231 68.3997 723.579 69.0511 723.051 69.8818C722.541 70.7126 722.154 71.6943 721.89 72.8271C721.625 73.9411 721.493 75.1494 721.493 76.4521ZM756.299 61.3574V92H748.114V61.3574H756.299ZM747.604 53.3711C747.604 52.1816 748.02 51.1999 748.851 50.4258C749.681 49.6517 750.795 49.2646 752.192 49.2646C753.571 49.2646 754.675 49.6517 755.506 50.4258C756.355 51.1999 756.78 52.1816 756.78 53.3711C756.78 54.5605 756.355 55.5423 755.506 56.3164C754.675 57.0905 753.571 57.4775 752.192 57.4775C750.795 57.4775 749.681 57.0905 748.851 56.3164C748.02 55.5423 747.604 54.5605 747.604 53.3711ZM779.606 83.5322C779.606 82.9469 779.437 82.4183 779.097 81.9463C778.757 81.4743 778.124 81.04 777.199 80.6436C776.293 80.2282 774.981 79.8506 773.263 79.5107C771.715 79.1709 770.27 78.7461 768.93 78.2363C767.608 77.7077 766.456 77.0752 765.475 76.3389C764.512 75.6025 763.757 74.734 763.209 73.7334C762.661 72.7139 762.388 71.5527 762.388 70.25C762.388 68.9661 762.661 67.7578 763.209 66.625C763.775 65.4922 764.578 64.4915 765.616 63.623C766.674 62.7357 767.957 62.0465 769.468 61.5557C770.997 61.0459 772.715 60.791 774.622 60.791C777.284 60.791 779.569 61.2158 781.476 62.0654C783.401 62.915 784.874 64.0856 785.894 65.5771C786.932 67.0498 787.451 68.7301 787.451 70.6182H779.295C779.295 69.8252 779.125 69.1172 778.785 68.4941C778.464 67.8522 777.954 67.3519 777.256 66.9932C776.576 66.6156 775.689 66.4268 774.594 66.4268C773.688 66.4268 772.904 66.5872 772.243 66.9082C771.582 67.2103 771.073 67.6257 770.714 68.1543C770.374 68.6641 770.204 69.2305 770.204 69.8535C770.204 70.3255 770.299 70.7503 770.487 71.1279C770.695 71.4867 771.025 71.8171 771.479 72.1191C771.932 72.4212 772.517 72.7044 773.234 72.9688C773.971 73.2142 774.877 73.4408 775.953 73.6484C778.162 74.1016 780.135 74.6963 781.872 75.4326C783.609 76.1501 784.987 77.1318 786.007 78.3779C787.026 79.6051 787.536 81.2194 787.536 83.2207C787.536 84.5801 787.234 85.8262 786.63 86.959C786.026 88.0918 785.157 89.083 784.024 89.9326C782.892 90.7633 781.532 91.4147 779.946 91.8867C778.379 92.3398 776.614 92.5664 774.65 92.5664C771.799 92.5664 769.383 92.0566 767.4 91.0371C765.437 90.0176 763.945 88.7243 762.926 87.1572C761.925 85.5713 761.425 83.9476 761.425 82.2861H769.156C769.194 83.4001 769.477 84.2969 770.006 84.9766C770.553 85.6562 771.243 86.1471 772.073 86.4492C772.923 86.7513 773.839 86.9023 774.82 86.9023C775.878 86.9023 776.756 86.7607 777.454 86.4775C778.153 86.1755 778.681 85.779 779.04 85.2881C779.418 84.7783 779.606 84.193 779.606 83.5322ZM807.842 61.3574V67.1348H790V61.3574H807.842ZM794.418 53.7959H802.574V82.7676C802.574 83.6549 802.688 84.3346 802.914 84.8066C803.16 85.2786 803.518 85.609 803.99 85.7979C804.462 85.9678 805.057 86.0527 805.774 86.0527C806.284 86.0527 806.737 86.0339 807.134 85.9961C807.549 85.9395 807.898 85.8828 808.182 85.8262L808.21 91.8301C807.511 92.0566 806.756 92.236 805.944 92.3682C805.132 92.5003 804.236 92.5664 803.254 92.5664C801.46 92.5664 799.893 92.2738 798.553 91.6885C797.231 91.0843 796.212 90.1214 795.494 88.7998C794.777 87.4782 794.418 85.7412 794.418 83.5889V53.7959ZM820.643 68.041V92H812.486V61.3574H820.161L820.643 68.041ZM829.875 61.1592L829.733 68.7207C829.337 68.6641 828.855 68.6169 828.289 68.5791C827.742 68.5225 827.241 68.4941 826.788 68.4941C825.636 68.4941 824.636 68.6452 823.786 68.9473C822.955 69.2305 822.257 69.6553 821.69 70.2217C821.143 70.7881 820.728 71.4772 820.444 72.2891C820.18 73.1009 820.029 74.026 819.991 75.0645L818.349 74.5547C818.349 72.5723 818.547 70.7503 818.943 69.0889C819.34 67.4085 819.916 65.9453 820.671 64.6992C821.445 63.4531 822.389 62.4902 823.503 61.8105C824.617 61.1309 825.891 60.791 827.326 60.791C827.779 60.791 828.242 60.8288 828.714 60.9043C829.186 60.9609 829.573 61.0459 829.875 61.1592ZM849.303 85.0898V71.4395C849.303 70.4577 849.142 69.6175 848.821 68.9189C848.5 68.2015 848 67.6445 847.32 67.248C846.66 66.8516 845.8 66.6533 844.743 66.6533C843.837 66.6533 843.053 66.8138 842.393 67.1348C841.732 67.4368 841.222 67.8805 840.863 68.4658C840.505 69.0322 840.325 69.7025 840.325 70.4766H832.169C832.169 69.1738 832.471 67.9372 833.075 66.7666C833.679 65.596 834.557 64.5671 835.709 63.6797C836.861 62.7734 838.229 62.0654 839.815 61.5557C841.42 61.0459 843.214 60.791 845.196 60.791C847.575 60.791 849.69 61.1875 851.54 61.9805C853.39 62.7734 854.844 63.9629 855.901 65.5488C856.978 67.1348 857.516 69.1172 857.516 71.4961V84.6084C857.516 86.2887 857.619 87.667 857.827 88.7432C858.035 89.8005 858.337 90.7256 858.733 91.5186V92H850.492C850.096 91.1693 849.794 90.1309 849.586 88.8848C849.397 87.6198 849.303 86.3548 849.303 85.0898ZM850.379 73.3369L850.436 77.9531H845.876C844.8 77.9531 843.865 78.0758 843.072 78.3213C842.279 78.5667 841.628 78.916 841.118 79.3691C840.608 79.8034 840.231 80.3132 839.985 80.8984C839.759 81.4837 839.646 82.1257 839.646 82.8242C839.646 83.5228 839.806 84.1553 840.127 84.7217C840.448 85.2692 840.91 85.7035 841.515 86.0244C842.119 86.3265 842.827 86.4775 843.639 86.4775C844.866 86.4775 845.933 86.2321 846.839 85.7412C847.745 85.2503 848.444 84.6462 848.935 83.9287C849.444 83.2113 849.709 82.5316 849.728 81.8896L851.88 85.3447C851.578 86.1188 851.162 86.9212 850.634 87.752C850.124 88.5827 849.473 89.3662 848.68 90.1025C847.887 90.82 846.933 91.4147 845.819 91.8867C844.705 92.3398 843.384 92.5664 841.854 92.5664C839.91 92.5664 838.145 92.1794 836.559 91.4053C834.992 90.6123 833.745 89.5267 832.82 88.1484C831.914 86.7513 831.461 85.1654 831.461 83.3906C831.461 81.7858 831.763 80.3604 832.367 79.1143C832.971 77.8682 833.859 76.8203 835.029 75.9707C836.219 75.1022 837.701 74.4508 839.476 74.0166C841.25 73.5635 843.308 73.3369 845.649 73.3369H850.379ZM878.812 61.3574V67.1348H860.971V61.3574H878.812ZM865.389 53.7959H873.545V82.7676C873.545 83.6549 873.658 84.3346 873.885 84.8066C874.13 85.2786 874.489 85.609 874.961 85.7979C875.433 85.9678 876.028 86.0527 876.745 86.0527C877.255 86.0527 877.708 86.0339 878.104 85.9961C878.52 85.9395 878.869 85.8828 879.152 85.8262L879.181 91.8301C878.482 92.0566 877.727 92.236 876.915 92.3682C876.103 92.5003 875.206 92.5664 874.225 92.5664C872.431 92.5664 870.864 92.2738 869.523 91.6885C868.202 91.0843 867.182 90.1214 866.465 88.7998C865.747 87.4782 865.389 85.7412 865.389 83.5889V53.7959ZM892.066 61.3574V92H883.882V61.3574H892.066ZM883.372 53.3711C883.372 52.1816 883.787 51.1999 884.618 50.4258C885.449 49.6517 886.563 49.2646 887.96 49.2646C889.338 49.2646 890.443 49.6517 891.273 50.4258C892.123 51.1999 892.548 52.1816 892.548 53.3711C892.548 54.5605 892.123 55.5423 891.273 56.3164C890.443 57.0905 889.338 57.4775 887.96 57.4775C886.563 57.4775 885.449 57.0905 884.618 56.3164C883.787 55.5423 883.372 54.5605 883.372 53.3711ZM897.504 76.9902V76.3955C897.504 74.1488 897.825 72.0814 898.467 70.1934C899.109 68.2865 900.043 66.6344 901.271 65.2373C902.498 63.8402 904.008 62.7546 905.802 61.9805C907.595 61.1875 909.653 60.791 911.976 60.791C914.298 60.791 916.365 61.1875 918.178 61.9805C919.99 62.7546 921.51 63.8402 922.737 65.2373C923.983 66.6344 924.927 68.2865 925.569 70.1934C926.211 72.0814 926.532 74.1488 926.532 76.3955V76.9902C926.532 79.2181 926.211 81.2855 925.569 83.1924C924.927 85.0804 923.983 86.7324 922.737 88.1484C921.51 89.5456 920 90.6312 918.206 91.4053C916.412 92.1794 914.354 92.5664 912.032 92.5664C909.71 92.5664 907.643 92.1794 905.83 91.4053C904.036 90.6312 902.517 89.5456 901.271 88.1484C900.043 86.7324 899.109 85.0804 898.467 83.1924C897.825 81.2855 897.504 79.2181 897.504 76.9902ZM905.66 76.3955V76.9902C905.66 78.2741 905.773 79.473 906 80.5869C906.227 81.7008 906.585 82.6826 907.076 83.5322C907.586 84.363 908.247 85.0143 909.059 85.4863C909.87 85.9583 910.862 86.1943 912.032 86.1943C913.165 86.1943 914.137 85.9583 914.949 85.4863C915.761 85.0143 916.412 84.363 916.903 83.5322C917.394 82.6826 917.753 81.7008 917.979 80.5869C918.225 79.473 918.348 78.2741 918.348 76.9902V76.3955C918.348 75.1494 918.225 73.9788 917.979 72.8838C917.753 71.7699 917.385 70.7881 916.875 69.9385C916.384 69.07 915.733 68.3903 914.921 67.8994C914.109 67.4085 913.127 67.1631 911.976 67.1631C910.824 67.1631 909.842 67.4085 909.03 67.8994C908.237 68.3903 907.586 69.07 907.076 69.9385C906.585 70.7881 906.227 71.7699 906 72.8838C905.773 73.9788 905.66 75.1494 905.66 76.3955ZM939.531 67.8994V92H931.375V61.3574H939.021L939.531 67.8994ZM938.342 75.6025H936.133C936.133 73.3369 936.425 71.2979 937.011 69.4854C937.596 67.654 938.417 66.0964 939.475 64.8125C940.532 63.5098 941.787 62.5186 943.241 61.8389C944.714 61.1403 946.356 60.791 948.169 60.791C949.604 60.791 950.916 60.9987 952.105 61.4141C953.295 61.8294 954.314 62.4902 955.164 63.3965C956.033 64.3027 956.693 65.5016 957.146 66.9932C957.618 68.4847 957.854 70.3066 957.854 72.459V92H949.642V72.4307C949.642 71.0713 949.453 70.014 949.075 69.2588C948.698 68.5036 948.141 67.9749 947.404 67.6729C946.687 67.3519 945.799 67.1914 944.742 67.1914C943.647 67.1914 942.694 67.4085 941.882 67.8428C941.089 68.277 940.428 68.8812 939.899 69.6553C939.39 70.4105 939.003 71.2979 938.738 72.3174C938.474 73.3369 938.342 74.432 938.342 75.6025Z" fill="#001B78"/>
<path d="M377.543 129.357V160H369.358V129.357H377.543ZM368.849 121.371C368.849 120.182 369.264 119.2 370.095 118.426C370.925 117.652 372.039 117.265 373.437 117.265C374.815 117.265 375.919 117.652 376.75 118.426C377.6 119.2 378.024 120.182 378.024 121.371C378.024 122.561 377.6 123.542 376.75 124.316C375.919 125.09 374.815 125.478 373.437 125.478C372.039 125.478 370.925 125.09 370.095 124.316C369.264 123.542 368.849 122.561 368.849 121.371ZM392.27 135.899V160H384.113V129.357H391.76L392.27 135.899ZM391.08 143.603H388.871C388.871 141.337 389.164 139.298 389.749 137.485C390.334 135.654 391.156 134.096 392.213 132.812C393.27 131.51 394.526 130.519 395.979 129.839C397.452 129.14 399.095 128.791 400.907 128.791C402.342 128.791 403.654 128.999 404.844 129.414C406.033 129.829 407.053 130.49 407.902 131.396C408.771 132.303 409.432 133.502 409.885 134.993C410.357 136.485 410.593 138.307 410.593 140.459V160H402.38V140.431C402.38 139.071 402.191 138.014 401.813 137.259C401.436 136.504 400.879 135.975 400.143 135.673C399.425 135.352 398.538 135.191 397.48 135.191C396.385 135.191 395.432 135.409 394.62 135.843C393.827 136.277 393.166 136.881 392.638 137.655C392.128 138.41 391.741 139.298 391.477 140.317C391.212 141.337 391.08 142.432 391.08 143.603ZM453.215 149.21C453.215 148.474 453.102 147.813 452.875 147.228C452.667 146.623 452.271 146.076 451.686 145.585C451.1 145.075 450.279 144.575 449.222 144.084C448.164 143.593 446.796 143.083 445.115 142.555C443.246 141.951 441.471 141.271 439.791 140.516C438.13 139.76 436.657 138.882 435.373 137.882C434.108 136.862 433.107 135.682 432.371 134.342C431.654 133.001 431.295 131.444 431.295 129.669C431.295 127.951 431.673 126.393 432.428 124.996C433.183 123.58 434.24 122.372 435.6 121.371C436.959 120.352 438.564 119.568 440.414 119.021C442.283 118.473 444.332 118.199 446.56 118.199C449.599 118.199 452.252 118.747 454.518 119.842C456.783 120.937 458.539 122.438 459.785 124.345C461.05 126.252 461.683 128.432 461.683 130.887H453.243C453.243 129.678 452.988 128.621 452.479 127.715C451.988 126.79 451.232 126.063 450.213 125.534C449.212 125.006 447.947 124.741 446.418 124.741C444.945 124.741 443.718 124.968 442.736 125.421C441.755 125.855 441.018 126.45 440.527 127.205C440.036 127.941 439.791 128.772 439.791 129.697C439.791 130.396 439.961 131.028 440.301 131.595C440.66 132.161 441.188 132.69 441.887 133.181C442.585 133.672 443.444 134.134 444.464 134.568C445.483 135.003 446.663 135.427 448.004 135.843C450.251 136.522 452.224 137.287 453.923 138.137C455.641 138.986 457.076 139.94 458.228 140.997C459.379 142.054 460.248 143.253 460.833 144.594C461.418 145.934 461.711 147.454 461.711 149.153C461.711 150.947 461.362 152.552 460.663 153.968C459.965 155.384 458.954 156.583 457.633 157.564C456.311 158.546 454.735 159.292 452.903 159.802C451.072 160.312 449.023 160.566 446.758 160.566C444.719 160.566 442.708 160.302 440.726 159.773C438.743 159.226 436.94 158.405 435.316 157.31C433.712 156.215 432.428 154.817 431.465 153.118C430.502 151.419 430.021 149.408 430.021 147.086H438.545C438.545 148.37 438.743 149.455 439.14 150.343C439.536 151.23 440.093 151.948 440.811 152.495C441.547 153.043 442.415 153.439 443.416 153.685C444.436 153.93 445.549 154.053 446.758 154.053C448.23 154.053 449.439 153.845 450.383 153.43C451.346 153.014 452.054 152.438 452.507 151.702C452.979 150.966 453.215 150.135 453.215 149.21ZM475.729 152.07L482.102 129.357H487.284L485.613 138.278L479.241 160H474.908L475.729 152.07ZM472.501 129.357L477.061 152.042L477.485 160H472.388L464.628 129.357H472.501ZM493.118 151.674L497.564 129.357H505.466L497.706 160H492.637L493.118 151.674ZM487.992 129.357L494.336 151.9L495.214 160H490.853L484.48 138.307L482.866 129.357H487.992ZM523.676 160.566C521.297 160.566 519.163 160.189 517.275 159.434C515.387 158.66 513.783 157.593 512.461 156.233C511.158 154.874 510.158 153.298 509.459 151.504C508.76 149.691 508.411 147.766 508.411 145.727V144.594C508.411 142.271 508.742 140.147 509.402 138.222C510.063 136.296 511.007 134.625 512.234 133.209C513.48 131.793 514.991 130.707 516.766 129.952C518.54 129.178 520.542 128.791 522.77 128.791C524.941 128.791 526.867 129.15 528.547 129.867C530.227 130.585 531.634 131.604 532.767 132.926C533.918 134.247 534.787 135.833 535.372 137.684C535.957 139.515 536.25 141.554 536.25 143.801V147.199H511.895V141.762H528.235V141.139C528.235 140.006 528.028 138.996 527.612 138.108C527.216 137.202 526.612 136.485 525.8 135.956C524.988 135.427 523.95 135.163 522.685 135.163C521.608 135.163 520.683 135.399 519.909 135.871C519.135 136.343 518.503 137.004 518.012 137.854C517.54 138.703 517.181 139.704 516.936 140.855C516.709 141.988 516.596 143.234 516.596 144.594V145.727C516.596 146.954 516.766 148.087 517.105 149.125C517.464 150.163 517.965 151.06 518.606 151.815C519.267 152.571 520.06 153.156 520.985 153.571C521.929 153.987 522.996 154.194 524.186 154.194C525.658 154.194 527.027 153.911 528.292 153.345C529.576 152.759 530.68 151.882 531.605 150.711L535.57 155.016C534.928 155.941 534.05 156.828 532.937 157.678C531.841 158.527 530.52 159.226 528.972 159.773C527.424 160.302 525.658 160.566 523.676 160.566ZM558.991 153.316V116.5H567.204V160H559.812L558.991 153.316ZM539.62 145.047V144.452C539.62 142.111 539.884 139.987 540.413 138.08C540.942 136.154 541.716 134.502 542.735 133.124C543.755 131.746 545.01 130.679 546.502 129.924C547.993 129.169 549.693 128.791 551.6 128.791C553.393 128.791 554.96 129.169 556.301 129.924C557.66 130.679 558.812 131.755 559.756 133.152C560.719 134.531 561.493 136.164 562.078 138.052C562.663 139.921 563.088 141.969 563.353 144.197V145.5C563.088 147.633 562.663 149.616 562.078 151.447C561.493 153.279 560.719 154.883 559.756 156.262C558.812 157.621 557.66 158.678 556.301 159.434C554.941 160.189 553.355 160.566 551.543 160.566C549.636 160.566 547.937 160.179 546.445 159.405C544.973 158.631 543.727 157.546 542.707 156.148C541.706 154.751 540.942 153.109 540.413 151.221C539.884 149.333 539.62 147.275 539.62 145.047ZM547.776 144.452V145.047C547.776 146.312 547.871 147.492 548.06 148.587C548.267 149.682 548.598 150.654 549.051 151.504C549.523 152.335 550.127 152.986 550.863 153.458C551.618 153.911 552.534 154.138 553.61 154.138C555.007 154.138 556.159 153.826 557.065 153.203C557.972 152.561 558.661 151.683 559.133 150.569C559.624 149.455 559.907 148.172 559.982 146.718V143.008C559.926 141.818 559.756 140.752 559.473 139.808C559.208 138.845 558.812 138.023 558.283 137.344C557.773 136.664 557.132 136.135 556.357 135.758C555.602 135.38 554.705 135.191 553.667 135.191C552.61 135.191 551.703 135.437 550.948 135.928C550.193 136.4 549.579 137.051 549.107 137.882C548.654 138.713 548.314 139.694 548.088 140.827C547.88 141.941 547.776 143.149 547.776 144.452ZM587.68 160.566C585.301 160.566 583.167 160.189 581.279 159.434C579.391 158.66 577.786 157.593 576.465 156.233C575.162 154.874 574.161 153.298 573.463 151.504C572.764 149.691 572.415 147.766 572.415 145.727V144.594C572.415 142.271 572.745 140.147 573.406 138.222C574.067 136.296 575.011 134.625 576.238 133.209C577.484 131.793 578.995 130.707 580.77 129.952C582.544 129.178 584.546 128.791 586.773 128.791C588.945 128.791 590.87 129.15 592.551 129.867C594.231 130.585 595.638 131.604 596.771 132.926C597.922 134.247 598.791 135.833 599.376 137.684C599.961 139.515 600.254 141.554 600.254 143.801V147.199H575.898V141.762H592.239V141.139C592.239 140.006 592.032 138.996 591.616 138.108C591.22 137.202 590.616 136.485 589.804 135.956C588.992 135.427 587.953 135.163 586.688 135.163C585.612 135.163 584.687 135.399 583.913 135.871C583.139 136.343 582.507 137.004 582.016 137.854C581.544 138.703 581.185 139.704 580.939 140.855C580.713 141.988 580.6 143.234 580.6 144.594V145.727C580.6 146.954 580.77 148.087 581.109 149.125C581.468 150.163 581.968 151.06 582.61 151.815C583.271 152.571 584.064 153.156 584.989 153.571C585.933 153.987 587 154.194 588.189 154.194C589.662 154.194 591.031 153.911 592.296 153.345C593.58 152.759 594.684 151.882 595.609 150.711L599.574 155.016C598.932 155.941 598.054 156.828 596.94 157.678C595.845 158.527 594.524 159.226 592.976 159.773C591.427 160.302 589.662 160.566 587.68 160.566ZM612.885 135.899V160H604.729V129.357H612.375L612.885 135.899ZM611.695 143.603H609.486C609.486 141.337 609.779 139.298 610.364 137.485C610.95 135.654 611.771 134.096 612.828 132.812C613.885 131.51 615.141 130.519 616.595 129.839C618.067 129.14 619.71 128.791 621.522 128.791C622.957 128.791 624.27 128.999 625.459 129.414C626.648 129.829 627.668 130.49 628.518 131.396C629.386 132.303 630.047 133.502 630.5 134.993C630.972 136.485 631.208 138.307 631.208 140.459V160H622.995V140.431C622.995 139.071 622.806 138.014 622.429 137.259C622.051 136.504 621.494 135.975 620.758 135.673C620.04 135.352 619.153 135.191 618.096 135.191C617.001 135.191 616.047 135.409 615.235 135.843C614.442 136.277 613.782 136.881 613.253 137.655C612.743 138.41 612.356 139.298 612.092 140.317C611.827 141.337 611.695 142.432 611.695 143.603Z" fill="#FFA229"/>
<path d="M909.999 437.704C946.45 437.704 975.999 400.934 975.999 355.575C975.999 310.216 946.45 273.445 909.999 273.445C873.549 273.445 844 310.216 844 355.575C844 400.934 873.549 437.704 909.999 437.704Z" fill="#1C4670"/>
<path d="M907.28 273.445H81.8594V437.702H907.28V273.445Z" fill="#1C4670"/>
<path d="M84.9993 437.704C121.45 437.704 150.999 400.934 150.999 355.575C150.999 310.216 121.45 273.445 84.9993 273.445C48.5489 273.445 19 310.216 19 355.575C19 400.934 48.5489 437.704 84.9993 437.704Z" fill="#1C4670"/>
<path d="M155.979 456.414C116.535 421.751 103.141 366.643 122.755 317.407C142.344 268.234 190.028 237.309 242.529 239.138L249.19 222.417C219.097 220.127 189.06 227.497 163.46 243.452C137.86 259.408 118.038 283.113 106.886 311.108C95.7345 339.104 93.8369 369.924 101.47 399.072C109.104 428.22 125.869 454.17 149.318 473.135L155.979 456.414Z" fill="#1C4670"/>
<path d="M234.176 487.458C286.694 489.302 334.338 458.437 353.952 409.189C373.539 360.017 360.151 304.841 320.726 270.182L327.391 253.461C350.843 272.425 367.609 298.376 375.243 327.525C382.878 356.674 380.98 387.496 369.828 415.492C358.675 443.489 338.851 467.194 313.25 483.149C287.648 499.103 257.609 506.472 227.516 504.179L234.176 487.458Z" fill="#1C4670"/>
<path d="M326.218 451.014C374.746 402.569 374.746 324.025 326.218 275.58C277.691 227.136 199.012 227.136 150.484 275.58C101.957 324.025 101.957 402.569 150.484 451.014C199.012 499.458 277.691 499.458 326.218 451.014Z" fill="white"/>
<path d="M313.351 438.168C354.772 396.818 354.772 329.776 313.351 288.425C271.93 247.075 204.773 247.075 163.351 288.425C121.93 329.776 121.93 396.818 163.351 438.168C204.773 479.519 271.93 479.519 313.351 438.168Z" fill="#FFA229"/>
<path d="M223.756 397.656C217.658 397.656 212.941 395.947 209.605 392.529C206.297 389.111 204.642 384.189 204.642 377.764V345.197C204.642 338.416 206.215 333.221 209.359 329.611C212.531 325.975 217.33 324.156 223.756 324.156C230.209 324.156 235.008 325.975 238.152 329.611C241.297 333.221 242.869 338.416 242.869 345.197V377.764C242.869 384.189 241.215 389.111 237.906 392.529C234.597 395.947 229.881 397.656 223.756 397.656ZM223.756 384.367C224.877 384.367 225.752 383.861 226.381 382.85C227.01 381.838 227.324 380.703 227.324 379.445V343.803C227.324 342.107 227.133 340.631 226.75 339.373C226.394 338.088 225.396 337.445 223.756 337.445C222.115 337.445 221.103 338.088 220.721 339.373C220.365 340.631 220.187 342.107 220.187 343.803V379.445C220.187 380.703 220.502 381.838 221.131 382.85C221.787 383.861 222.662 384.367 223.756 384.367ZM256.156 397V341.383C255.172 342.559 253.819 343.516 252.096 344.254C250.373 344.965 248.746 345.32 247.215 345.32V333.795C248.664 333.576 250.223 333.111 251.891 332.4C253.559 331.662 255.104 330.664 256.526 329.406C257.975 328.121 259.082 326.576 259.848 324.771H271.455V397H256.156Z" fill="white"/>
<path d="M84.9993 713.408C121.45 713.408 150.999 676.637 150.999 631.278C150.999 585.919 121.45 549.148 84.9993 549.148C48.5489 549.148 19 585.919 19 631.278C19 676.637 48.5489 713.408 84.9993 713.408Z" fill="#FFA229"/>
<path d="M918.132 549.148H92.7109V713.405H918.132V549.148Z" fill="#FFA229"/>
<path d="M239.727 644H231.223L231.277 638.559H239.727C242.188 638.559 244.247 638.021 245.906 636.945C247.583 635.87 248.841 634.329 249.68 632.324C250.536 630.319 250.965 627.931 250.965 625.16V623C250.965 620.849 250.719 618.944 250.227 617.285C249.753 615.626 249.042 614.232 248.094 613.102C247.164 611.971 246.016 611.115 244.648 610.531C243.299 609.948 241.741 609.656 239.973 609.656H231.059V604.188H239.973C242.616 604.188 245.031 604.634 247.219 605.527C249.406 606.402 251.293 607.669 252.879 609.328C254.483 610.987 255.714 612.974 256.57 615.289C257.427 617.604 257.855 620.193 257.855 623.055V625.16C257.855 628.022 257.427 630.611 256.57 632.926C255.714 635.241 254.483 637.228 252.879 638.887C251.275 640.527 249.361 641.794 247.137 642.688C244.931 643.562 242.461 644 239.727 644ZM235.023 604.188V644H228.16V604.188H235.023ZM271.145 614.414V644H264.527V614.414H271.145ZM264.09 606.648C264.09 605.646 264.418 604.816 265.074 604.16C265.749 603.486 266.678 603.148 267.863 603.148C269.03 603.148 269.951 603.486 270.625 604.16C271.299 604.816 271.637 605.646 271.637 606.648C271.637 607.633 271.299 608.453 270.625 609.109C269.951 609.766 269.03 610.094 267.863 610.094C266.678 610.094 265.749 609.766 265.074 609.109C264.418 608.453 264.09 607.633 264.09 606.648ZM284.98 620.047V644H278.391V614.414H284.68L284.98 620.047ZM294.031 614.223L293.977 620.348C293.576 620.275 293.138 620.22 292.664 620.184C292.208 620.147 291.753 620.129 291.297 620.129C290.167 620.129 289.173 620.293 288.316 620.621C287.46 620.931 286.74 621.387 286.156 621.988C285.591 622.572 285.154 623.283 284.844 624.121C284.534 624.96 284.352 625.898 284.297 626.938L282.793 627.047C282.793 625.188 282.975 623.465 283.34 621.879C283.704 620.293 284.251 618.898 284.98 617.695C285.728 616.492 286.658 615.553 287.77 614.879C288.9 614.204 290.203 613.867 291.68 613.867C292.081 613.867 292.509 613.904 292.965 613.977C293.439 614.049 293.794 614.132 294.031 614.223ZM310.656 644.547C308.469 644.547 306.491 644.191 304.723 643.48C302.973 642.751 301.478 641.74 300.238 640.445C299.017 639.151 298.078 637.629 297.422 635.879C296.766 634.129 296.438 632.242 296.438 630.219V629.125C296.438 626.81 296.775 624.714 297.449 622.836C298.124 620.958 299.062 619.354 300.266 618.023C301.469 616.674 302.891 615.645 304.531 614.934C306.172 614.223 307.949 613.867 309.863 613.867C311.978 613.867 313.828 614.223 315.414 614.934C317 615.645 318.312 616.647 319.352 617.941C320.409 619.217 321.193 620.74 321.703 622.508C322.232 624.276 322.496 626.227 322.496 628.359V631.176H299.637V626.445H315.988V625.926C315.952 624.741 315.715 623.629 315.277 622.59C314.858 621.551 314.211 620.712 313.336 620.074C312.461 619.436 311.294 619.117 309.836 619.117C308.742 619.117 307.767 619.354 306.91 619.828C306.072 620.284 305.37 620.949 304.805 621.824C304.24 622.699 303.802 623.757 303.492 624.996C303.201 626.217 303.055 627.594 303.055 629.125V630.219C303.055 631.513 303.228 632.716 303.574 633.828C303.939 634.922 304.467 635.879 305.16 636.699C305.853 637.52 306.691 638.167 307.676 638.641C308.66 639.096 309.781 639.324 311.039 639.324C312.625 639.324 314.038 639.005 315.277 638.367C316.517 637.729 317.592 636.827 318.504 635.66L321.977 639.023C321.339 639.953 320.509 640.846 319.488 641.703C318.467 642.542 317.219 643.225 315.742 643.754C314.284 644.283 312.589 644.547 310.656 644.547ZM339.723 639.297C340.798 639.297 341.764 639.087 342.621 638.668C343.496 638.23 344.198 637.629 344.727 636.863C345.273 636.098 345.574 635.214 345.629 634.211H351.836C351.799 636.125 351.234 637.866 350.141 639.434C349.047 641.001 347.598 642.25 345.793 643.18C343.988 644.091 341.992 644.547 339.805 644.547C337.544 644.547 335.576 644.164 333.898 643.398C332.221 642.615 330.827 641.539 329.715 640.172C328.603 638.805 327.764 637.228 327.199 635.441C326.652 633.655 326.379 631.741 326.379 629.699V628.742C326.379 626.701 326.652 624.786 327.199 623C327.764 621.195 328.603 619.609 329.715 618.242C330.827 616.875 332.221 615.809 333.898 615.043C335.576 614.259 337.535 613.867 339.777 613.867C342.147 613.867 344.225 614.341 346.012 615.289C347.798 616.219 349.202 617.522 350.223 619.199C351.262 620.858 351.799 622.79 351.836 624.996H345.629C345.574 623.902 345.301 622.918 344.809 622.043C344.335 621.15 343.66 620.439 342.785 619.91C341.928 619.382 340.898 619.117 339.695 619.117C338.365 619.117 337.262 619.391 336.387 619.938C335.512 620.466 334.828 621.195 334.336 622.125C333.844 623.036 333.488 624.066 333.27 625.215C333.069 626.345 332.969 627.521 332.969 628.742V629.699C332.969 630.921 333.069 632.105 333.27 633.254C333.47 634.402 333.816 635.432 334.309 636.344C334.819 637.237 335.512 637.957 336.387 638.504C337.262 639.033 338.374 639.297 339.723 639.297ZM370.457 614.414V619.227H353.777V614.414H370.457ZM358.59 607.168H365.18V635.824C365.18 636.736 365.307 637.438 365.562 637.93C365.836 638.404 366.21 638.723 366.684 638.887C367.158 639.051 367.714 639.133 368.352 639.133C368.807 639.133 369.245 639.105 369.664 639.051C370.083 638.996 370.421 638.941 370.676 638.887L370.703 643.918C370.156 644.082 369.518 644.228 368.789 644.355C368.078 644.483 367.258 644.547 366.328 644.547C364.815 644.547 363.475 644.283 362.309 643.754C361.142 643.207 360.23 642.323 359.574 641.102C358.918 639.88 358.59 638.258 358.59 636.234V607.168ZM373.629 629.535V628.906C373.629 626.773 373.939 624.796 374.559 622.973C375.178 621.132 376.072 619.536 377.238 618.188C378.423 616.82 379.863 615.763 381.559 615.016C383.272 614.25 385.204 613.867 387.355 613.867C389.525 613.867 391.457 614.25 393.152 615.016C394.866 615.763 396.315 616.82 397.5 618.188C398.685 619.536 399.587 621.132 400.207 622.973C400.827 624.796 401.137 626.773 401.137 628.906V629.535C401.137 631.668 400.827 633.646 400.207 635.469C399.587 637.292 398.685 638.887 397.5 640.254C396.315 641.603 394.875 642.66 393.18 643.426C391.484 644.173 389.561 644.547 387.41 644.547C385.241 644.547 383.299 644.173 381.586 643.426C379.891 642.66 378.451 641.603 377.266 640.254C376.081 638.887 375.178 637.292 374.559 635.469C373.939 633.646 373.629 631.668 373.629 629.535ZM380.219 628.906V629.535C380.219 630.866 380.355 632.124 380.629 633.309C380.902 634.493 381.331 635.533 381.914 636.426C382.497 637.319 383.245 638.021 384.156 638.531C385.068 639.042 386.152 639.297 387.41 639.297C388.632 639.297 389.689 639.042 390.582 638.531C391.493 638.021 392.241 637.319 392.824 636.426C393.408 635.533 393.836 634.493 394.109 633.309C394.401 632.124 394.547 630.866 394.547 629.535V628.906C394.547 627.594 394.401 626.354 394.109 625.188C393.836 624.003 393.398 622.954 392.797 622.043C392.214 621.132 391.466 620.421 390.555 619.91C389.661 619.382 388.595 619.117 387.355 619.117C386.116 619.117 385.04 619.382 384.129 619.91C383.236 620.421 382.497 621.132 381.914 622.043C381.331 622.954 380.902 624.003 380.629 625.188C380.355 626.354 380.219 627.594 380.219 628.906ZM413.277 620.047V644H406.688V614.414H412.977L413.277 620.047ZM422.328 614.223L422.273 620.348C421.872 620.275 421.435 620.22 420.961 620.184C420.505 620.147 420.049 620.129 419.594 620.129C418.464 620.129 417.47 620.293 416.613 620.621C415.757 620.931 415.036 621.387 414.453 621.988C413.888 622.572 413.451 623.283 413.141 624.121C412.831 624.96 412.648 625.898 412.594 626.938L411.09 627.047C411.09 625.188 411.272 623.465 411.637 621.879C412.001 620.293 412.548 618.898 413.277 617.695C414.025 616.492 414.954 615.553 416.066 614.879C417.197 614.204 418.5 613.867 419.977 613.867C420.378 613.867 420.806 613.904 421.262 613.977C421.736 614.049 422.091 614.132 422.328 614.223ZM443.055 635.988C443.055 635.332 442.891 634.74 442.562 634.211C442.234 633.664 441.605 633.172 440.676 632.734C439.764 632.297 438.415 631.896 436.629 631.531C435.061 631.185 433.621 630.775 432.309 630.301C431.014 629.809 429.902 629.216 428.973 628.523C428.043 627.831 427.323 627.01 426.812 626.062C426.302 625.115 426.047 624.021 426.047 622.781C426.047 621.578 426.311 620.439 426.84 619.363C427.368 618.288 428.125 617.34 429.109 616.52C430.094 615.699 431.288 615.052 432.691 614.578C434.113 614.104 435.699 613.867 437.449 613.867C439.928 613.867 442.052 614.286 443.82 615.125C445.607 615.945 446.974 617.066 447.922 618.488C448.87 619.892 449.344 621.478 449.344 623.246H442.754C442.754 622.462 442.553 621.733 442.152 621.059C441.77 620.366 441.186 619.81 440.402 619.391C439.618 618.953 438.634 618.734 437.449 618.734C436.319 618.734 435.38 618.917 434.633 619.281C433.904 619.628 433.357 620.083 432.992 620.648C432.646 621.214 432.473 621.833 432.473 622.508C432.473 623 432.564 623.447 432.746 623.848C432.947 624.23 433.275 624.586 433.73 624.914C434.186 625.224 434.806 625.516 435.59 625.789C436.392 626.062 437.395 626.327 438.598 626.582C440.858 627.056 442.799 627.667 444.422 628.414C446.062 629.143 447.32 630.091 448.195 631.258C449.07 632.406 449.508 633.865 449.508 635.633C449.508 636.945 449.225 638.148 448.66 639.242C448.113 640.318 447.311 641.257 446.254 642.059C445.197 642.842 443.93 643.453 442.453 643.891C440.995 644.328 439.354 644.547 437.531 644.547C434.852 644.547 432.582 644.073 430.723 643.125C428.863 642.159 427.451 640.928 426.484 639.434C425.536 637.921 425.062 636.353 425.062 634.73H431.434C431.507 635.952 431.844 636.927 432.445 637.656C433.065 638.367 433.831 638.887 434.742 639.215C435.672 639.525 436.629 639.68 437.613 639.68C438.798 639.68 439.792 639.525 440.594 639.215C441.396 638.887 442.007 638.449 442.426 637.902C442.845 637.337 443.055 636.699 443.055 635.988Z" fill="white"/>
<path d="M914.999 713.408C951.45 713.408 980.999 676.637 980.999 631.278C980.999 585.919 951.45 549.148 914.999 549.148C878.549 549.148 849 585.919 849 631.278C849 676.637 878.549 713.408 914.999 713.408Z" fill="#FFA229"/>
<path d="M844.023 732.117C883.467 697.454 896.861 642.348 877.247 593.111C857.658 543.935 809.974 513.013 757.473 514.843L750.812 498.12C780.905 495.83 810.943 503.2 836.543 519.155C862.143 535.11 881.966 558.815 893.118 586.81C904.27 614.806 906.167 645.627 898.534 674.775C890.901 703.923 874.136 729.874 850.686 748.839L844.023 732.117Z" fill="#FFA229"/>
<path d="M765.827 763.161C713.31 765.005 665.665 734.13 646.051 684.894C626.465 635.72 639.852 580.546 679.277 545.887L672.613 529.164C649.161 548.128 632.394 574.079 624.76 603.228C617.126 632.377 619.023 663.199 630.176 691.195C641.328 719.192 661.152 742.897 686.754 758.852C712.355 774.806 742.395 782.175 772.488 779.883L765.827 763.161Z" fill="#FFA229"/>
<path d="M849.507 726.717C898.035 678.272 898.035 599.728 849.507 551.283C800.98 502.839 722.301 502.839 673.773 551.283C625.246 599.728 625.246 678.272 673.773 726.717C722.301 775.161 800.98 775.161 849.507 726.717Z" fill="white"/>
<path d="M836.294 564.482C877.52 605.637 877.52 672.363 836.294 713.518C795.068 754.673 728.228 754.673 687.002 713.518C645.776 672.363 645.776 605.637 687.002 564.482C728.228 523.327 795.068 523.327 836.294 564.482Z" fill="white" stroke="black"/>
<path d="M457.309 335.188H463.434L474.945 365.895L486.43 335.188H492.555L477.352 375H472.484L457.309 335.188ZM454.52 335.188H460.344L461.355 361.766V375H454.52V335.188ZM489.52 335.188H495.371V375H488.508V361.766L489.52 335.188ZM509.918 345.414V375H503.301V345.414H509.918ZM502.863 337.648C502.863 336.646 503.191 335.816 503.848 335.16C504.522 334.486 505.452 334.148 506.637 334.148C507.803 334.148 508.724 334.486 509.398 335.16C510.073 335.816 510.41 336.646 510.41 337.648C510.41 338.633 510.073 339.453 509.398 340.109C508.724 340.766 507.803 341.094 506.637 341.094C505.452 341.094 504.522 340.766 503.848 340.109C503.191 339.453 502.863 338.633 502.863 337.648ZM523.672 351.73V375H517.082V345.414H523.289L523.672 351.73ZM522.496 359.113L520.363 359.086C520.382 356.99 520.673 355.066 521.238 353.316C521.822 351.566 522.624 350.062 523.645 348.805C524.684 347.547 525.923 346.581 527.363 345.906C528.803 345.214 530.408 344.867 532.176 344.867C533.598 344.867 534.883 345.068 536.031 345.469C537.198 345.852 538.191 346.48 539.012 347.355C539.85 348.23 540.488 349.37 540.926 350.773C541.363 352.159 541.582 353.863 541.582 355.887V375H534.965V355.859C534.965 354.438 534.755 353.316 534.336 352.496C533.935 351.658 533.342 351.065 532.559 350.719C531.793 350.354 530.836 350.172 529.688 350.172C528.557 350.172 527.546 350.409 526.652 350.883C525.759 351.357 525.003 352.004 524.383 352.824C523.781 353.645 523.316 354.592 522.988 355.668C522.66 356.743 522.496 357.892 522.496 359.113ZM555.363 345.414V375H548.746V345.414H555.363ZM548.309 337.648C548.309 336.646 548.637 335.816 549.293 335.16C549.967 334.486 550.897 334.148 552.082 334.148C553.249 334.148 554.169 334.486 554.844 335.16C555.518 335.816 555.855 336.646 555.855 337.648C555.855 338.633 555.518 339.453 554.844 340.109C554.169 340.766 553.249 341.094 552.082 341.094C550.897 341.094 549.967 340.766 549.293 340.109C548.637 339.453 548.309 338.633 548.309 337.648ZM569.172 351.43V375H562.582V345.414H568.789L569.172 351.43ZM568.105 359.113L565.863 359.086C565.863 357.044 566.118 355.158 566.629 353.426C567.139 351.694 567.887 350.19 568.871 348.914C569.855 347.62 571.077 346.626 572.535 345.934C574.012 345.223 575.716 344.867 577.648 344.867C578.997 344.867 580.228 345.068 581.34 345.469C582.47 345.852 583.445 346.462 584.266 347.301C585.104 348.139 585.742 349.215 586.18 350.527C586.635 351.84 586.863 353.426 586.863 355.285V375H580.273V355.859C580.273 354.419 580.055 353.289 579.617 352.469C579.198 351.648 578.587 351.065 577.785 350.719C577.001 350.354 576.062 350.172 574.969 350.172C573.729 350.172 572.672 350.409 571.797 350.883C570.94 351.357 570.238 352.004 569.691 352.824C569.145 353.645 568.743 354.592 568.488 355.668C568.233 356.743 568.105 357.892 568.105 359.113ZM586.453 357.363L583.363 358.047C583.363 356.26 583.609 354.574 584.102 352.988C584.612 351.384 585.35 349.98 586.316 348.777C587.301 347.556 588.513 346.599 589.953 345.906C591.393 345.214 593.043 344.867 594.902 344.867C596.415 344.867 597.764 345.077 598.949 345.496C600.152 345.897 601.173 346.535 602.012 347.41C602.85 348.285 603.488 349.424 603.926 350.828C604.363 352.214 604.582 353.891 604.582 355.859V375H597.965V355.832C597.965 354.337 597.746 353.18 597.309 352.359C596.889 351.539 596.288 350.974 595.504 350.664C594.72 350.336 593.781 350.172 592.688 350.172C591.667 350.172 590.764 350.363 589.98 350.746C589.215 351.111 588.568 351.63 588.039 352.305C587.51 352.961 587.109 353.717 586.836 354.574C586.581 355.431 586.453 356.361 586.453 357.363ZM629.164 368.027V345.414H635.781V375H629.547L629.164 368.027ZM630.094 361.875L632.309 361.82C632.309 363.807 632.09 365.639 631.652 367.316C631.215 368.975 630.54 370.424 629.629 371.664C628.717 372.885 627.551 373.842 626.129 374.535C624.707 375.21 623.003 375.547 621.016 375.547C619.576 375.547 618.254 375.337 617.051 374.918C615.848 374.499 614.809 373.852 613.934 372.977C613.077 372.102 612.411 370.962 611.938 369.559C611.464 368.155 611.227 366.478 611.227 364.527V345.414H617.816V364.582C617.816 365.658 617.944 366.56 618.199 367.289C618.454 368 618.801 368.574 619.238 369.012C619.676 369.449 620.186 369.759 620.77 369.941C621.353 370.124 621.973 370.215 622.629 370.215C624.507 370.215 625.983 369.85 627.059 369.121C628.152 368.374 628.927 367.371 629.383 366.113C629.857 364.855 630.094 363.443 630.094 361.875ZM649.125 351.43V375H642.535V345.414H648.742L649.125 351.43ZM648.059 359.113L645.816 359.086C645.816 357.044 646.072 355.158 646.582 353.426C647.092 351.694 647.84 350.19 648.824 348.914C649.809 347.62 651.03 346.626 652.488 345.934C653.965 345.223 655.669 344.867 657.602 344.867C658.951 344.867 660.181 345.068 661.293 345.469C662.423 345.852 663.398 346.462 664.219 347.301C665.057 348.139 665.695 349.215 666.133 350.527C666.589 351.84 666.816 353.426 666.816 355.285V375H660.227V355.859C660.227 354.419 660.008 353.289 659.57 352.469C659.151 351.648 658.54 351.065 657.738 350.719C656.954 350.354 656.016 350.172 654.922 350.172C653.682 350.172 652.625 350.409 651.75 350.883C650.893 351.357 650.191 352.004 649.645 352.824C649.098 353.645 648.697 354.592 648.441 355.668C648.186 356.743 648.059 357.892 648.059 359.113ZM666.406 357.363L663.316 358.047C663.316 356.26 663.562 354.574 664.055 352.988C664.565 351.384 665.303 349.98 666.27 348.777C667.254 347.556 668.466 346.599 669.906 345.906C671.346 345.214 672.996 344.867 674.855 344.867C676.368 344.867 677.717 345.077 678.902 345.496C680.105 345.897 681.126 346.535 681.965 347.41C682.803 348.285 683.441 349.424 683.879 350.828C684.316 352.214 684.535 353.891 684.535 355.859V375H677.918V355.832C677.918 354.337 677.699 353.18 677.262 352.359C676.842 351.539 676.241 350.974 675.457 350.664C674.673 350.336 673.734 350.172 672.641 350.172C671.62 350.172 670.717 350.363 669.934 350.746C669.168 351.111 668.521 351.63 667.992 352.305C667.464 352.961 667.062 353.717 666.789 354.574C666.534 355.431 666.406 356.361 666.406 357.363ZM729.434 362.039H736.27C736.051 364.646 735.322 366.97 734.082 369.012C732.842 371.035 731.102 372.63 728.859 373.797C726.617 374.964 723.892 375.547 720.684 375.547C718.223 375.547 716.008 375.109 714.039 374.234C712.07 373.341 710.384 372.083 708.98 370.461C707.577 368.82 706.501 366.842 705.754 364.527C705.025 362.212 704.66 359.624 704.66 356.762V353.453C704.66 350.591 705.034 348.003 705.781 345.688C706.547 343.372 707.641 341.395 709.062 339.754C710.484 338.095 712.189 336.828 714.176 335.953C716.181 335.078 718.432 334.641 720.93 334.641C724.102 334.641 726.781 335.224 728.969 336.391C731.156 337.557 732.852 339.171 734.055 341.23C735.276 343.29 736.023 345.651 736.297 348.312H729.461C729.279 346.599 728.878 345.132 728.258 343.91C727.656 342.689 726.763 341.759 725.578 341.121C724.393 340.465 722.844 340.137 720.93 340.137C719.362 340.137 717.995 340.428 716.828 341.012C715.661 341.595 714.686 342.452 713.902 343.582C713.118 344.712 712.526 346.107 712.125 347.766C711.742 349.406 711.551 351.284 711.551 353.398V356.762C711.551 358.767 711.724 360.59 712.07 362.23C712.435 363.853 712.982 365.247 713.711 366.414C714.458 367.581 715.406 368.483 716.555 369.121C717.703 369.759 719.079 370.078 720.684 370.078C722.634 370.078 724.211 369.768 725.414 369.148C726.635 368.529 727.556 367.626 728.176 366.441C728.814 365.238 729.233 363.771 729.434 362.039ZM758.527 369.066V354.957C758.527 353.9 758.336 352.988 757.953 352.223C757.57 351.457 756.987 350.865 756.203 350.445C755.438 350.026 754.471 349.816 753.305 349.816C752.229 349.816 751.299 349.999 750.516 350.363C749.732 350.728 749.121 351.22 748.684 351.84C748.246 352.46 748.027 353.161 748.027 353.945H741.465C741.465 352.779 741.747 351.648 742.312 350.555C742.878 349.461 743.698 348.486 744.773 347.629C745.849 346.772 747.134 346.098 748.629 345.605C750.124 345.113 751.801 344.867 753.66 344.867C755.884 344.867 757.853 345.241 759.566 345.988C761.298 346.736 762.656 347.866 763.641 349.379C764.643 350.874 765.145 352.751 765.145 355.012V368.164C765.145 369.513 765.236 370.725 765.418 371.801C765.618 372.858 765.901 373.779 766.266 374.562V375H759.512C759.202 374.289 758.956 373.387 758.773 372.293C758.609 371.181 758.527 370.105 758.527 369.066ZM759.484 357.008L759.539 361.082H754.809C753.587 361.082 752.512 361.201 751.582 361.438C750.652 361.656 749.878 361.984 749.258 362.422C748.638 362.859 748.173 363.388 747.863 364.008C747.553 364.628 747.398 365.329 747.398 366.113C747.398 366.897 747.581 367.617 747.945 368.273C748.31 368.911 748.839 369.413 749.531 369.777C750.242 370.142 751.099 370.324 752.102 370.324C753.451 370.324 754.626 370.051 755.629 369.504C756.65 368.939 757.452 368.255 758.035 367.453C758.618 366.633 758.928 365.858 758.965 365.129L761.098 368.055C760.879 368.802 760.505 369.604 759.977 370.461C759.448 371.318 758.755 372.138 757.898 372.922C757.06 373.688 756.048 374.316 754.863 374.809C753.697 375.301 752.348 375.547 750.816 375.547C748.884 375.547 747.161 375.164 745.648 374.398C744.135 373.615 742.951 372.566 742.094 371.254C741.237 369.923 740.809 368.419 740.809 366.742C740.809 365.174 741.1 363.789 741.684 362.586C742.285 361.365 743.16 360.344 744.309 359.523C745.475 358.703 746.897 358.083 748.574 357.664C750.251 357.227 752.165 357.008 754.316 357.008H759.484ZM778.652 351.102V386.375H772.062V345.414H778.133L778.652 351.102ZM797.93 359.934V360.508C797.93 362.659 797.674 364.655 797.164 366.496C796.672 368.319 795.934 369.914 794.949 371.281C793.983 372.63 792.789 373.678 791.367 374.426C789.945 375.173 788.305 375.547 786.445 375.547C784.604 375.547 782.991 375.21 781.605 374.535C780.238 373.842 779.081 372.867 778.133 371.609C777.185 370.352 776.419 368.875 775.836 367.18C775.271 365.466 774.87 363.589 774.633 361.547V359.332C774.87 357.163 775.271 355.194 775.836 353.426C776.419 351.658 777.185 350.135 778.133 348.859C779.081 347.583 780.238 346.599 781.605 345.906C782.973 345.214 784.568 344.867 786.391 344.867C788.25 344.867 789.9 345.232 791.34 345.961C792.78 346.672 793.992 347.693 794.977 349.023C795.961 350.336 796.699 351.922 797.191 353.781C797.684 355.622 797.93 357.673 797.93 359.934ZM791.34 360.508V359.934C791.34 358.566 791.212 357.299 790.957 356.133C790.702 354.948 790.301 353.909 789.754 353.016C789.207 352.122 788.505 351.43 787.648 350.938C786.81 350.427 785.798 350.172 784.613 350.172C783.447 350.172 782.444 350.372 781.605 350.773C780.767 351.156 780.065 351.694 779.5 352.387C778.935 353.079 778.497 353.891 778.188 354.82C777.878 355.732 777.659 356.725 777.531 357.801V363.105C777.75 364.418 778.124 365.621 778.652 366.715C779.181 367.809 779.928 368.684 780.895 369.34C781.879 369.978 783.137 370.297 784.668 370.297C785.853 370.297 786.865 370.042 787.703 369.531C788.542 369.021 789.225 368.319 789.754 367.426C790.301 366.514 790.702 365.466 790.957 364.281C791.212 363.096 791.34 361.839 791.34 360.508ZM810.59 345.414V375H803.973V345.414H810.59ZM803.535 337.648C803.535 336.646 803.863 335.816 804.52 335.16C805.194 334.486 806.124 334.148 807.309 334.148C808.475 334.148 809.396 334.486 810.07 335.16C810.745 335.816 811.082 336.646 811.082 337.648C811.082 338.633 810.745 339.453 810.07 340.109C809.396 340.766 808.475 341.094 807.309 341.094C806.124 341.094 805.194 340.766 804.52 340.109C803.863 339.453 803.535 338.633 803.535 337.648ZM831.371 345.414V350.227H814.691V345.414H831.371ZM819.504 338.168H826.094V366.824C826.094 367.736 826.221 368.438 826.477 368.93C826.75 369.404 827.124 369.723 827.598 369.887C828.072 370.051 828.628 370.133 829.266 370.133C829.721 370.133 830.159 370.105 830.578 370.051C830.997 369.996 831.335 369.941 831.59 369.887L831.617 374.918C831.07 375.082 830.432 375.228 829.703 375.355C828.992 375.483 828.172 375.547 827.242 375.547C825.729 375.547 824.389 375.283 823.223 374.754C822.056 374.207 821.145 373.323 820.488 372.102C819.832 370.88 819.504 369.258 819.504 367.234V338.168ZM853.137 369.066V354.957C853.137 353.9 852.945 352.988 852.562 352.223C852.18 351.457 851.596 350.865 850.812 350.445C850.047 350.026 849.081 349.816 847.914 349.816C846.839 349.816 845.909 349.999 845.125 350.363C844.341 350.728 843.73 351.22 843.293 351.84C842.855 352.46 842.637 353.161 842.637 353.945H836.074C836.074 352.779 836.357 351.648 836.922 350.555C837.487 349.461 838.307 348.486 839.383 347.629C840.458 346.772 841.743 346.098 843.238 345.605C844.733 345.113 846.41 344.867 848.27 344.867C850.493 344.867 852.462 345.241 854.176 345.988C855.908 346.736 857.266 347.866 858.25 349.379C859.253 350.874 859.754 352.751 859.754 355.012V368.164C859.754 369.513 859.845 370.725 860.027 371.801C860.228 372.858 860.51 373.779 860.875 374.562V375H854.121C853.811 374.289 853.565 373.387 853.383 372.293C853.219 371.181 853.137 370.105 853.137 369.066ZM854.094 357.008L854.148 361.082H849.418C848.197 361.082 847.121 361.201 846.191 361.438C845.262 361.656 844.487 361.984 843.867 362.422C843.247 362.859 842.783 363.388 842.473 364.008C842.163 364.628 842.008 365.329 842.008 366.113C842.008 366.897 842.19 367.617 842.555 368.273C842.919 368.911 843.448 369.413 844.141 369.777C844.852 370.142 845.708 370.324 846.711 370.324C848.06 370.324 849.236 370.051 850.238 369.504C851.259 368.939 852.061 368.255 852.645 367.453C853.228 366.633 853.538 365.858 853.574 365.129L855.707 368.055C855.488 368.802 855.115 369.604 854.586 370.461C854.057 371.318 853.365 372.138 852.508 372.922C851.669 373.688 850.658 374.316 849.473 374.809C848.306 375.301 846.957 375.547 845.426 375.547C843.493 375.547 841.771 375.164 840.258 374.398C838.745 373.615 837.56 372.566 836.703 371.254C835.846 369.923 835.418 368.419 835.418 366.742C835.418 365.174 835.71 363.789 836.293 362.586C836.895 361.365 837.77 360.344 838.918 359.523C840.085 358.703 841.507 358.083 843.184 357.664C844.861 357.227 846.775 357.008 848.926 357.008H854.094ZM873.699 333V375H867.082V333H873.699Z" fill="white"/>
<path d="M910.999 990.111C947.45 990.111 976.999 953.34 976.999 907.981C976.999 862.622 947.45 825.852 910.999 825.852C874.549 825.852 845 862.622 845 907.981C845 953.34 874.549 990.111 910.999 990.111Z" fill="#1C4670"/>
<path d="M85.0006 1112.03C48.5502 1112.03 19.0014 1148.8 19.0014 1194.16C19.0014 1239.52 48.5503 1276.29 85.0007 1276.29C121.451 1276.29 151 1239.52 151 1194.16C151 1148.8 121.451 1112.03 85.0006 1112.03Z" fill="#FFA229"/>
<path d="M907.28 825.852H81.8594V990.109H907.28V825.852Z" fill="#1C4670"/>
<path d="M591.867 890.492L579.973 925H572.781L587.766 885.188H592.359L591.867 890.492ZM601.82 925L589.898 890.492L589.379 885.188H594L609.039 925H601.82ZM601.246 910.234V915.676H579.59V910.234H601.246ZM630.312 918.027V895.414H636.93V925H630.695L630.312 918.027ZM631.242 911.875L633.457 911.82C633.457 913.807 633.238 915.639 632.801 917.316C632.363 918.975 631.689 920.424 630.777 921.664C629.866 922.885 628.699 923.842 627.277 924.535C625.855 925.21 624.151 925.547 622.164 925.547C620.724 925.547 619.402 925.337 618.199 924.918C616.996 924.499 615.957 923.852 615.082 922.977C614.225 922.102 613.56 920.962 613.086 919.559C612.612 918.155 612.375 916.478 612.375 914.527V895.414H618.965V914.582C618.965 915.658 619.092 916.56 619.348 917.289C619.603 918 619.949 918.574 620.387 919.012C620.824 919.449 621.335 919.759 621.918 919.941C622.501 920.124 623.121 920.215 623.777 920.215C625.655 920.215 627.132 919.85 628.207 919.121C629.301 918.374 630.076 917.371 630.531 916.113C631.005 914.855 631.242 913.443 631.242 911.875ZM661.73 918.875V883H668.348V925H662.359L661.73 918.875ZM642.48 910.535V909.961C642.48 907.719 642.745 905.677 643.273 903.836C643.802 901.977 644.568 900.382 645.57 899.051C646.573 897.702 647.794 896.672 649.234 895.961C650.674 895.232 652.297 894.867 654.102 894.867C655.888 894.867 657.456 895.214 658.805 895.906C660.154 896.599 661.302 897.592 662.25 898.887C663.198 900.163 663.954 901.694 664.52 903.48C665.085 905.249 665.486 907.217 665.723 909.387V911.219C665.486 913.333 665.085 915.266 664.52 917.016C663.954 918.766 663.198 920.279 662.25 921.555C661.302 922.831 660.145 923.815 658.777 924.508C657.428 925.201 655.852 925.547 654.047 925.547C652.26 925.547 650.647 925.173 649.207 924.426C647.785 923.678 646.573 922.63 645.57 921.281C644.568 919.932 643.802 918.346 643.273 916.523C642.745 914.682 642.48 912.686 642.48 910.535ZM649.07 909.961V910.535C649.07 911.884 649.189 913.142 649.426 914.309C649.681 915.475 650.073 916.505 650.602 917.398C651.13 918.273 651.814 918.966 652.652 919.477C653.509 919.969 654.53 920.215 655.715 920.215C657.21 920.215 658.44 919.887 659.406 919.23C660.372 918.574 661.129 917.69 661.676 916.578C662.241 915.448 662.624 914.19 662.824 912.805V907.855C662.715 906.78 662.487 905.777 662.141 904.848C661.812 903.918 661.366 903.107 660.801 902.414C660.236 901.703 659.534 901.156 658.695 900.773C657.875 900.372 656.9 900.172 655.77 900.172C654.566 900.172 653.546 900.427 652.707 900.938C651.868 901.448 651.176 902.15 650.629 903.043C650.1 903.936 649.708 904.975 649.453 906.16C649.198 907.345 649.07 908.612 649.07 909.961ZM682.293 895.414V925H675.676V895.414H682.293ZM675.238 887.648C675.238 886.646 675.566 885.816 676.223 885.16C676.897 884.486 677.827 884.148 679.012 884.148C680.178 884.148 681.099 884.486 681.773 885.16C682.448 885.816 682.785 886.646 682.785 887.648C682.785 888.633 682.448 889.453 681.773 890.109C681.099 890.766 680.178 891.094 679.012 891.094C677.827 891.094 676.897 890.766 676.223 890.109C675.566 889.453 675.238 888.633 675.238 887.648ZM703.074 895.414V900.227H686.395V895.414H703.074ZM691.207 888.168H697.797V916.824C697.797 917.736 697.924 918.438 698.18 918.93C698.453 919.404 698.827 919.723 699.301 919.887C699.775 920.051 700.331 920.133 700.969 920.133C701.424 920.133 701.862 920.105 702.281 920.051C702.701 919.996 703.038 919.941 703.293 919.887L703.32 924.918C702.773 925.082 702.135 925.228 701.406 925.355C700.695 925.483 699.875 925.547 698.945 925.547C697.432 925.547 696.092 925.283 694.926 924.754C693.759 924.207 692.848 923.323 692.191 922.102C691.535 920.88 691.207 919.258 691.207 917.234V888.168ZM706.246 910.535V909.906C706.246 907.773 706.556 905.796 707.176 903.973C707.796 902.132 708.689 900.536 709.855 899.188C711.04 897.82 712.48 896.763 714.176 896.016C715.889 895.25 717.822 894.867 719.973 894.867C722.142 894.867 724.074 895.25 725.77 896.016C727.483 896.763 728.932 897.82 730.117 899.188C731.302 900.536 732.204 902.132 732.824 903.973C733.444 905.796 733.754 907.773 733.754 909.906V910.535C733.754 912.668 733.444 914.646 732.824 916.469C732.204 918.292 731.302 919.887 730.117 921.254C728.932 922.603 727.492 923.66 725.797 924.426C724.102 925.173 722.178 925.547 720.027 925.547C717.858 925.547 715.917 925.173 714.203 924.426C712.508 923.66 711.068 922.603 709.883 921.254C708.698 919.887 707.796 918.292 707.176 916.469C706.556 914.646 706.246 912.668 706.246 910.535ZM712.836 909.906V910.535C712.836 911.866 712.973 913.124 713.246 914.309C713.52 915.493 713.948 916.533 714.531 917.426C715.115 918.319 715.862 919.021 716.773 919.531C717.685 920.042 718.77 920.297 720.027 920.297C721.249 920.297 722.306 920.042 723.199 919.531C724.111 919.021 724.858 918.319 725.441 917.426C726.025 916.533 726.453 915.493 726.727 914.309C727.018 913.124 727.164 911.866 727.164 910.535V909.906C727.164 908.594 727.018 907.354 726.727 906.188C726.453 905.003 726.016 903.954 725.414 903.043C724.831 902.132 724.083 901.421 723.172 900.91C722.279 900.382 721.212 900.117 719.973 900.117C718.733 900.117 717.658 900.382 716.746 900.91C715.853 901.421 715.115 902.132 714.531 903.043C713.948 903.954 713.52 905.003 713.246 906.188C712.973 907.354 712.836 908.594 712.836 909.906ZM745.895 901.047V925H739.305V895.414H745.594L745.895 901.047ZM754.945 895.223L754.891 901.348C754.49 901.275 754.052 901.22 753.578 901.184C753.122 901.147 752.667 901.129 752.211 901.129C751.081 901.129 750.087 901.293 749.23 901.621C748.374 901.931 747.654 902.387 747.07 902.988C746.505 903.572 746.068 904.283 745.758 905.121C745.448 905.96 745.266 906.898 745.211 907.938L743.707 908.047C743.707 906.188 743.889 904.465 744.254 902.879C744.618 901.293 745.165 899.898 745.895 898.695C746.642 897.492 747.572 896.553 748.684 895.879C749.814 895.204 751.117 894.867 752.594 894.867C752.995 894.867 753.423 894.904 753.879 894.977C754.353 895.049 754.708 895.132 754.945 895.223Z" fill="white"/>
<path d="M92.72 1276.28L918.141 1276.28L918.141 1112.02L92.72 1112.02L92.72 1276.28Z" fill="#FFA229"/>
<path d="M224.621 1152.19H238.703C241.729 1152.19 244.309 1152.64 246.441 1153.55C248.574 1154.47 250.206 1155.82 251.336 1157.6C252.484 1159.37 253.059 1161.56 253.059 1164.16C253.059 1166.15 252.694 1167.9 251.965 1169.41C251.236 1170.93 250.206 1172.2 248.875 1173.24C247.544 1174.26 245.958 1175.06 244.117 1175.62L242.039 1176.63H229.379L229.324 1171.19H238.812C240.453 1171.19 241.82 1170.9 242.914 1170.32C244.008 1169.73 244.828 1168.94 245.375 1167.94C245.94 1166.92 246.223 1165.77 246.223 1164.49C246.223 1163.11 245.949 1161.9 245.402 1160.88C244.874 1159.84 244.053 1159.05 242.941 1158.5C241.829 1157.94 240.417 1157.66 238.703 1157.66H231.484V1192H224.621V1152.19ZM247.344 1192L237.992 1174.12L245.184 1174.09L254.672 1191.64V1192H247.344ZM272.281 1192.55C270.094 1192.55 268.116 1192.19 266.348 1191.48C264.598 1190.75 263.103 1189.74 261.863 1188.45C260.642 1187.15 259.703 1185.63 259.047 1183.88C258.391 1182.13 258.062 1180.24 258.062 1178.22V1177.12C258.062 1174.81 258.4 1172.71 259.074 1170.84C259.749 1168.96 260.688 1167.35 261.891 1166.02C263.094 1164.67 264.516 1163.64 266.156 1162.93C267.797 1162.22 269.574 1161.87 271.488 1161.87C273.603 1161.87 275.453 1162.22 277.039 1162.93C278.625 1163.64 279.938 1164.65 280.977 1165.94C282.034 1167.22 282.818 1168.74 283.328 1170.51C283.857 1172.28 284.121 1174.23 284.121 1176.36V1179.18H261.262V1174.45H277.613V1173.93C277.577 1172.74 277.34 1171.63 276.902 1170.59C276.483 1169.55 275.836 1168.71 274.961 1168.07C274.086 1167.44 272.919 1167.12 271.461 1167.12C270.367 1167.12 269.392 1167.35 268.535 1167.83C267.697 1168.28 266.995 1168.95 266.43 1169.82C265.865 1170.7 265.427 1171.76 265.117 1173C264.826 1174.22 264.68 1175.59 264.68 1177.12V1178.22C264.68 1179.51 264.853 1180.72 265.199 1181.83C265.564 1182.92 266.092 1183.88 266.785 1184.7C267.478 1185.52 268.316 1186.17 269.301 1186.64C270.285 1187.1 271.406 1187.32 272.664 1187.32C274.25 1187.32 275.663 1187.01 276.902 1186.37C278.142 1185.73 279.217 1184.83 280.129 1183.66L283.602 1187.02C282.964 1187.95 282.134 1188.85 281.113 1189.7C280.092 1190.54 278.844 1191.23 277.367 1191.75C275.909 1192.28 274.214 1192.55 272.281 1192.55ZM305.859 1183.99C305.859 1183.33 305.695 1182.74 305.367 1182.21C305.039 1181.66 304.41 1181.17 303.48 1180.73C302.569 1180.3 301.22 1179.9 299.434 1179.53C297.866 1179.18 296.426 1178.77 295.113 1178.3C293.819 1177.81 292.707 1177.22 291.777 1176.52C290.848 1175.83 290.128 1175.01 289.617 1174.06C289.107 1173.11 288.852 1172.02 288.852 1170.78C288.852 1169.58 289.116 1168.44 289.645 1167.36C290.173 1166.29 290.93 1165.34 291.914 1164.52C292.898 1163.7 294.092 1163.05 295.496 1162.58C296.918 1162.1 298.504 1161.87 300.254 1161.87C302.733 1161.87 304.857 1162.29 306.625 1163.12C308.411 1163.95 309.779 1165.07 310.727 1166.49C311.674 1167.89 312.148 1169.48 312.148 1171.25H305.559C305.559 1170.46 305.358 1169.73 304.957 1169.06C304.574 1168.37 303.991 1167.81 303.207 1167.39C302.423 1166.95 301.439 1166.73 300.254 1166.73C299.124 1166.73 298.185 1166.92 297.438 1167.28C296.708 1167.63 296.161 1168.08 295.797 1168.65C295.451 1169.21 295.277 1169.83 295.277 1170.51C295.277 1171 295.368 1171.45 295.551 1171.85C295.751 1172.23 296.079 1172.59 296.535 1172.91C296.991 1173.22 297.611 1173.52 298.395 1173.79C299.197 1174.06 300.199 1174.33 301.402 1174.58C303.663 1175.06 305.604 1175.67 307.227 1176.41C308.867 1177.14 310.125 1178.09 311 1179.26C311.875 1180.41 312.312 1181.86 312.312 1183.63C312.312 1184.95 312.03 1186.15 311.465 1187.24C310.918 1188.32 310.116 1189.26 309.059 1190.06C308.001 1190.84 306.734 1191.45 305.258 1191.89C303.799 1192.33 302.159 1192.55 300.336 1192.55C297.656 1192.55 295.387 1192.07 293.527 1191.12C291.668 1190.16 290.255 1188.93 289.289 1187.43C288.341 1185.92 287.867 1184.35 287.867 1182.73H294.238C294.311 1183.95 294.648 1184.93 295.25 1185.66C295.87 1186.37 296.635 1186.89 297.547 1187.21C298.477 1187.52 299.434 1187.68 300.418 1187.68C301.603 1187.68 302.596 1187.52 303.398 1187.21C304.201 1186.89 304.811 1186.45 305.23 1185.9C305.65 1185.34 305.859 1184.7 305.859 1183.99ZM325.137 1162.41V1192H318.52V1162.41H325.137ZM318.082 1154.65C318.082 1153.65 318.41 1152.82 319.066 1152.16C319.741 1151.49 320.671 1151.15 321.855 1151.15C323.022 1151.15 323.943 1151.49 324.617 1152.16C325.292 1152.82 325.629 1153.65 325.629 1154.65C325.629 1155.63 325.292 1156.45 324.617 1157.11C323.943 1157.77 323.022 1158.09 321.855 1158.09C320.671 1158.09 319.741 1157.77 319.066 1157.11C318.41 1156.45 318.082 1155.63 318.082 1154.65ZM350.402 1185.88V1150H357.02V1192H351.031L350.402 1185.88ZM331.152 1177.54V1176.96C331.152 1174.72 331.417 1172.68 331.945 1170.84C332.474 1168.98 333.24 1167.38 334.242 1166.05C335.245 1164.7 336.466 1163.67 337.906 1162.96C339.346 1162.23 340.969 1161.87 342.773 1161.87C344.56 1161.87 346.128 1162.21 347.477 1162.91C348.826 1163.6 349.974 1164.59 350.922 1165.89C351.87 1167.16 352.626 1168.69 353.191 1170.48C353.757 1172.25 354.158 1174.22 354.395 1176.39V1178.22C354.158 1180.33 353.757 1182.27 353.191 1184.02C352.626 1185.77 351.87 1187.28 350.922 1188.55C349.974 1189.83 348.816 1190.82 347.449 1191.51C346.1 1192.2 344.523 1192.55 342.719 1192.55C340.932 1192.55 339.319 1192.17 337.879 1191.43C336.457 1190.68 335.245 1189.63 334.242 1188.28C333.24 1186.93 332.474 1185.35 331.945 1183.52C331.417 1181.68 331.152 1179.69 331.152 1177.54ZM337.742 1176.96V1177.54C337.742 1178.88 337.861 1180.14 338.098 1181.31C338.353 1182.48 338.745 1183.51 339.273 1184.4C339.802 1185.27 340.486 1185.97 341.324 1186.48C342.181 1186.97 343.202 1187.21 344.387 1187.21C345.882 1187.21 347.112 1186.89 348.078 1186.23C349.044 1185.57 349.801 1184.69 350.348 1183.58C350.913 1182.45 351.296 1181.19 351.496 1179.8V1174.86C351.387 1173.78 351.159 1172.78 350.812 1171.85C350.484 1170.92 350.038 1170.11 349.473 1169.41C348.908 1168.7 348.206 1168.16 347.367 1167.77C346.547 1167.37 345.572 1167.17 344.441 1167.17C343.238 1167.17 342.217 1167.43 341.379 1167.94C340.54 1168.45 339.848 1169.15 339.301 1170.04C338.772 1170.94 338.38 1171.98 338.125 1173.16C337.87 1174.35 337.742 1175.61 337.742 1176.96ZM376.953 1192.55C374.766 1192.55 372.788 1192.19 371.02 1191.48C369.27 1190.75 367.775 1189.74 366.535 1188.45C365.314 1187.15 364.375 1185.63 363.719 1183.88C363.062 1182.13 362.734 1180.24 362.734 1178.22V1177.12C362.734 1174.81 363.072 1172.71 363.746 1170.84C364.421 1168.96 365.359 1167.35 366.562 1166.02C367.766 1164.67 369.188 1163.64 370.828 1162.93C372.469 1162.22 374.246 1161.87 376.16 1161.87C378.275 1161.87 380.125 1162.22 381.711 1162.93C383.297 1163.64 384.609 1164.65 385.648 1165.94C386.706 1167.22 387.49 1168.74 388 1170.51C388.529 1172.28 388.793 1174.23 388.793 1176.36V1179.18H365.934V1174.45H382.285V1173.93C382.249 1172.74 382.012 1171.63 381.574 1170.59C381.155 1169.55 380.508 1168.71 379.633 1168.07C378.758 1167.44 377.591 1167.12 376.133 1167.12C375.039 1167.12 374.064 1167.35 373.207 1167.83C372.368 1168.28 371.667 1168.95 371.102 1169.82C370.536 1170.7 370.099 1171.76 369.789 1173C369.497 1174.22 369.352 1175.59 369.352 1177.12V1178.22C369.352 1179.51 369.525 1180.72 369.871 1181.83C370.236 1182.92 370.764 1183.88 371.457 1184.7C372.15 1185.52 372.988 1186.17 373.973 1186.64C374.957 1187.1 376.078 1187.32 377.336 1187.32C378.922 1187.32 380.335 1187.01 381.574 1186.37C382.814 1185.73 383.889 1184.83 384.801 1183.66L388.273 1187.02C387.635 1187.95 386.806 1188.85 385.785 1189.7C384.764 1190.54 383.516 1191.23 382.039 1191.75C380.581 1192.28 378.885 1192.55 376.953 1192.55ZM400.469 1168.73V1192H393.879V1162.41H400.086L400.469 1168.73ZM399.293 1176.11L397.16 1176.09C397.178 1173.99 397.47 1172.07 398.035 1170.32C398.618 1168.57 399.421 1167.06 400.441 1165.8C401.48 1164.55 402.72 1163.58 404.16 1162.91C405.6 1162.21 407.204 1161.87 408.973 1161.87C410.395 1161.87 411.68 1162.07 412.828 1162.47C413.995 1162.85 414.988 1163.48 415.809 1164.36C416.647 1165.23 417.285 1166.37 417.723 1167.77C418.16 1169.16 418.379 1170.86 418.379 1172.89V1192H411.762V1172.86C411.762 1171.44 411.552 1170.32 411.133 1169.5C410.732 1168.66 410.139 1168.07 409.355 1167.72C408.59 1167.35 407.633 1167.17 406.484 1167.17C405.354 1167.17 404.342 1167.41 403.449 1167.88C402.556 1168.36 401.799 1169 401.18 1169.82C400.578 1170.64 400.113 1171.59 399.785 1172.67C399.457 1173.74 399.293 1174.89 399.293 1176.11ZM437.191 1187.3C438.267 1187.3 439.233 1187.09 440.09 1186.67C440.965 1186.23 441.667 1185.63 442.195 1184.86C442.742 1184.1 443.043 1183.21 443.098 1182.21H449.305C449.268 1184.12 448.703 1185.87 447.609 1187.43C446.516 1189 445.066 1190.25 443.262 1191.18C441.457 1192.09 439.461 1192.55 437.273 1192.55C435.013 1192.55 433.044 1192.16 431.367 1191.4C429.69 1190.61 428.296 1189.54 427.184 1188.17C426.072 1186.8 425.233 1185.23 424.668 1183.44C424.121 1181.65 423.848 1179.74 423.848 1177.7V1176.74C423.848 1174.7 424.121 1172.79 424.668 1171C425.233 1169.2 426.072 1167.61 427.184 1166.24C428.296 1164.88 429.69 1163.81 431.367 1163.04C433.044 1162.26 435.004 1161.87 437.246 1161.87C439.616 1161.87 441.694 1162.34 443.48 1163.29C445.267 1164.22 446.671 1165.52 447.691 1167.2C448.73 1168.86 449.268 1170.79 449.305 1173H443.098C443.043 1171.9 442.77 1170.92 442.277 1170.04C441.803 1169.15 441.129 1168.44 440.254 1167.91C439.397 1167.38 438.367 1167.12 437.164 1167.12C435.833 1167.12 434.73 1167.39 433.855 1167.94C432.98 1168.47 432.297 1169.2 431.805 1170.12C431.312 1171.04 430.957 1172.07 430.738 1173.21C430.538 1174.35 430.438 1175.52 430.438 1176.74V1177.7C430.438 1178.92 430.538 1180.11 430.738 1181.25C430.939 1182.4 431.285 1183.43 431.777 1184.34C432.288 1185.24 432.98 1185.96 433.855 1186.5C434.73 1187.03 435.842 1187.3 437.191 1187.3ZM462.949 1188.77L470.988 1162.41H478.043L466.176 1196.51C465.902 1197.24 465.547 1198.03 465.109 1198.89C464.672 1199.75 464.098 1200.56 463.387 1201.32C462.694 1202.11 461.828 1202.74 460.789 1203.21C459.75 1203.7 458.492 1203.95 457.016 1203.95C456.432 1203.95 455.867 1203.89 455.32 1203.79C454.792 1203.69 454.29 1203.59 453.816 1203.48L453.789 1198.45C453.971 1198.47 454.19 1198.49 454.445 1198.51C454.719 1198.53 454.938 1198.54 455.102 1198.54C456.195 1198.54 457.107 1198.4 457.836 1198.12C458.565 1197.87 459.158 1197.45 459.613 1196.87C460.087 1196.28 460.488 1195.5 460.816 1194.52L462.949 1188.77ZM458.41 1162.41L465.438 1184.56L466.613 1191.51L462.047 1192.68L451.301 1162.41H458.41Z" fill="white"/>
<path d="M84.9993 990.111C121.45 990.111 150.999 953.34 150.999 907.981C150.999 862.622 121.45 825.852 84.9993 825.852C48.5489 825.852 19 862.622 19 907.981C19 953.34 48.5489 990.111 84.9993 990.111Z" fill="#1C4670"/>
<path d="M915.001 1112.03C878.55 1112.03 849.001 1148.8 849.001 1194.16C849.001 1239.52 878.55 1276.29 915.001 1276.29C951.451 1276.29 981 1239.52 981 1194.16C981 1148.8 951.451 1112.03 915.001 1112.03Z" fill="#FFA229"/>
<path d="M155.979 1008.82C116.535 974.151 103.141 919.051 122.755 869.814C142.344 820.64 190.029 789.716 242.531 791.547L249.192 774.823C219.1 772.533 189.062 779.903 163.461 795.858C137.861 811.813 118.039 835.518 106.887 863.513C95.7346 891.509 93.8369 922.33 101.47 951.478C109.104 980.627 125.869 1006.58 149.319 1025.54L155.979 1008.82Z" fill="#1C4670"/>
<path d="M844.021 1093.32C883.465 1127.99 896.859 1183.09 877.245 1232.33C857.656 1281.5 809.971 1312.42 757.469 1310.59L750.808 1327.32C780.9 1329.61 810.938 1322.24 836.539 1306.28C862.139 1290.33 881.961 1266.62 893.113 1238.63C904.265 1210.63 906.163 1179.81 898.53 1150.66C890.896 1121.51 874.131 1095.56 850.681 1076.6L844.021 1093.32Z" fill="#FFA229"/>
<path d="M234.176 1039.87C286.694 1041.72 334.338 1010.84 353.952 961.605C373.539 912.431 360.151 857.257 320.726 822.598L327.387 805.875C350.833 824.841 367.595 850.79 375.227 879.936C382.858 909.083 380.96 939.901 369.808 967.894C358.657 995.887 338.836 1019.59 313.239 1035.55C287.641 1051.5 257.606 1058.87 227.516 1056.58L234.176 1039.87Z" fill="#1C4670"/>
<path d="M765.824 1062.27C713.306 1060.42 665.662 1091.3 646.048 1140.54C626.461 1189.71 639.849 1244.88 679.274 1279.54L672.613 1296.27C649.167 1277.3 632.405 1251.35 624.773 1222.2C617.142 1193.06 619.04 1162.24 630.192 1134.25C641.343 1106.25 661.164 1082.55 686.761 1066.6C712.359 1050.64 742.394 1043.27 772.484 1045.56L765.824 1062.27Z" fill="#FFA229"/>
<path d="M326.218 1003.42C374.746 954.975 374.746 876.431 326.218 827.986C277.691 779.542 199.012 779.542 150.484 827.986C101.957 876.431 101.957 954.975 150.484 1003.42C199.012 1051.86 277.691 1051.86 326.218 1003.42Z" fill="white"/>
<path d="M673.868 1098.71C625.34 1147.16 625.34 1225.7 673.868 1274.15C722.395 1322.59 801.074 1322.59 849.602 1274.15C898.129 1225.7 898.129 1147.16 849.602 1098.71C801.074 1050.27 722.395 1050.27 673.868 1098.71Z" fill="white"/>
<path d="M313.351 990.575C354.772 949.224 354.772 882.182 313.351 840.832C271.93 799.481 204.773 799.481 163.351 840.832C121.93 882.182 121.93 949.224 163.351 990.575C204.773 1031.92 271.93 1031.92 313.351 990.575Z" fill="#FFA229"/>
<path d="M219.906 949.656C213.808 949.656 209.092 947.947 205.756 944.529C202.447 941.111 200.793 936.189 200.793 929.764V897.197C200.793 890.416 202.365 885.221 205.51 881.611C208.681 877.975 213.48 876.156 219.906 876.156C226.359 876.156 231.158 877.975 234.303 881.611C237.447 885.221 239.019 890.416 239.019 897.197V929.764C239.019 936.189 237.365 941.111 234.056 944.529C230.748 947.947 226.031 949.656 219.906 949.656ZM219.906 936.367C221.027 936.367 221.902 935.861 222.531 934.85C223.16 933.838 223.474 932.703 223.474 931.445V895.803C223.474 894.107 223.283 892.631 222.9 891.373C222.545 890.088 221.547 889.445 219.906 889.445C218.265 889.445 217.254 890.088 216.871 891.373C216.515 892.631 216.338 894.107 216.338 895.803V931.445C216.338 932.703 216.652 933.838 217.281 934.85C217.937 935.861 218.812 936.367 219.906 936.367ZM262.192 949.82C255.82 949.82 251.186 948.139 248.287 944.775C245.389 941.412 243.94 936.34 243.94 929.559V922.012H258.746V929.6C258.746 931.514 258.979 933.141 259.444 934.48C259.936 935.793 261.016 936.449 262.684 936.449C264.379 936.449 265.459 935.738 265.924 934.316C266.389 932.867 266.621 930.516 266.621 927.262V925.457C266.621 922.969 266.197 920.795 265.35 918.936C264.529 917.076 262.903 916.146 260.469 916.146C260.168 916.146 259.895 916.16 259.649 916.188C259.43 916.188 259.238 916.201 259.074 916.229V903.268C261.563 903.268 263.463 902.721 264.776 901.627C266.088 900.506 266.744 898.646 266.744 896.049C266.744 891.975 265.569 889.938 263.217 889.938C261.686 889.938 260.647 890.539 260.1 891.742C259.58 892.918 259.32 894.422 259.32 896.254V898.428H244.391C244.363 898.1 244.336 897.703 244.309 897.238C244.309 896.773 244.309 896.322 244.309 895.885C244.309 889.268 245.854 884.414 248.944 881.324C252.033 878.234 256.764 876.689 263.135 876.689C275.44 876.689 281.592 883.088 281.592 895.885C281.592 899.439 281.113 902.379 280.156 904.703C279.199 907 277.422 908.613 274.824 909.543C276.875 910.527 278.393 911.785 279.377 913.316C280.361 914.848 281.004 916.748 281.305 919.018C281.606 921.287 281.756 924.035 281.756 927.262C281.756 934.48 280.238 940.045 277.203 943.955C274.195 947.865 269.192 949.82 262.192 949.82Z" fill="white"/>
<path d="M686.649 1111.56C645.228 1152.91 645.228 1219.95 686.649 1261.3C728.07 1302.65 795.227 1302.65 836.649 1261.3C878.07 1219.95 878.07 1152.91 836.649 1111.56C795.227 1070.21 728.07 1070.21 686.649 1111.56Z" fill="#1C4670"/>
<path d="M836.294 1112.22C877.52 1153.38 877.52 1220.11 836.294 1261.26C795.068 1302.42 728.228 1302.42 687.002 1261.26C645.776 1220.11 645.776 1153.38 687.002 1112.22C728.228 1071.07 795.068 1071.07 836.294 1112.22Z" fill="white" stroke="black"/>
<path d="M740.906 1223.66C734.808 1223.66 730.092 1221.95 726.756 1218.53C723.447 1215.11 721.793 1210.19 721.793 1203.76V1171.2C721.793 1164.42 723.365 1159.22 726.51 1155.61C729.681 1151.97 734.48 1150.16 740.906 1150.16C747.359 1150.16 752.158 1151.97 755.303 1155.61C758.447 1159.22 760.019 1164.42 760.019 1171.2V1203.76C760.019 1210.19 758.365 1215.11 755.056 1218.53C751.748 1221.95 747.031 1223.66 740.906 1223.66ZM740.906 1210.37C742.027 1210.37 742.902 1209.86 743.531 1208.85C744.16 1207.84 744.474 1206.7 744.474 1205.45V1169.8C744.474 1168.11 744.283 1166.63 743.9 1165.37C743.545 1164.09 742.547 1163.45 740.906 1163.45C739.265 1163.45 738.254 1164.09 737.871 1165.37C737.515 1166.63 737.338 1168.11 737.338 1169.8V1205.45C737.338 1206.7 737.652 1207.84 738.281 1208.85C738.937 1209.86 739.812 1210.37 740.906 1210.37ZM785.488 1223.04V1211.6H764.078V1200.32L777.736 1150.77H800.213V1199.54H804.069V1211.6H800.213V1223.04H785.488ZM776.957 1199.54H785.488V1163.16L776.957 1199.54Z" fill="#1C4670"/>
<path d="M836.294 564.482C877.52 605.637 877.52 672.363 836.294 713.518C795.068 754.673 728.228 754.673 687.002 713.518C645.776 672.363 645.776 605.637 687.002 564.482C728.228 523.327 795.068 523.327 836.294 564.482Z" fill="white" stroke="black"/>
<path d="M738.906 677.656C732.808 677.656 728.092 675.947 724.756 672.529C721.447 669.111 719.793 664.189 719.793 657.764V625.197C719.793 618.416 721.365 613.221 724.51 609.611C727.681 605.975 732.48 604.156 738.906 604.156C745.359 604.156 750.158 605.975 753.303 609.611C756.447 613.221 758.019 618.416 758.019 625.197V657.764C758.019 664.189 756.365 669.111 753.056 672.529C749.748 675.947 745.031 677.656 738.906 677.656ZM738.906 664.367C740.027 664.367 740.902 663.861 741.531 662.85C742.16 661.838 742.474 660.703 742.474 659.445V623.803C742.474 622.107 742.283 620.631 741.9 619.373C741.545 618.088 740.547 617.445 738.906 617.445C737.265 617.445 736.254 618.088 735.871 619.373C735.515 620.631 735.338 622.107 735.338 623.803V659.445C735.338 660.703 735.652 661.838 736.281 662.85C736.937 663.861 737.812 664.367 738.906 664.367ZM763.883 677V673.555C763.883 669.973 764.43 666.76 765.524 663.916C766.645 661.045 768.08 658.393 769.83 655.959C771.58 653.498 773.426 651.092 775.367 648.74C777.254 646.443 779.045 644.092 780.74 641.686C782.463 639.252 783.858 636.627 784.924 633.811C786.018 630.967 786.565 627.781 786.565 624.254C786.565 622.559 786.305 621.109 785.785 619.906C785.293 618.676 784.254 618.061 782.668 618.061C780.262 618.061 779.059 620.207 779.059 624.5V633.318H763.883C763.856 632.689 763.815 631.979 763.76 631.186C763.733 630.393 763.719 629.627 763.719 628.889C763.719 623.693 764.266 619.291 765.36 615.682C766.453 612.045 768.381 609.283 771.143 607.396C773.932 605.482 777.842 604.525 782.873 604.525C788.861 604.525 793.51 606.207 796.819 609.57C800.154 612.934 801.822 617.732 801.822 623.967C801.822 628.205 801.276 631.924 800.182 635.123C799.088 638.295 797.639 641.193 795.834 643.818C794.029 646.416 792.047 649.014 789.887 651.611C788.356 653.443 786.865 655.316 785.416 657.23C783.994 659.145 782.736 661.195 781.643 663.383H801.33V677H763.883Z" fill="#1C4670"/>
</g>
<defs>
<clipPath id="clip0_780_306">
<rect width="1000" height="1393" fill="white"/>
</clipPath>
</defs>
</svg>
