<svg width="1080" height="1080" viewBox="0 0 1080 1080" fill="none" xmlns="http://www.w3.org/2000/svg">
<g clip-path="url(#clip0_564_662)">
<rect width="1080" height="1080" transform="translate(1080 1080) rotate(180)" fill="white"/>
<path d="M779.569 863.511C779.569 863.511 830.872 897.68 861.959 869.772C893.047 841.864 860.139 821.066 889.261 787.406C918.383 753.746 961.871 756.707 968.448 713.68C975.024 670.652 933.332 681.646 969.37 636.993C1005.41 592.339 987.692 463.743 936.56 476.314C885.427 488.885 904.671 607.361 891.761 622.213C878.85 637.065 846.428 626.339 842.278 657.887C838.128 689.436 857.688 728.483 834.076 748.238C810.463 767.992 765.178 813.203 779.569 863.511Z" fill="#1C4670"/>
<path d="M743.191 887.253C743.191 887.253 907.899 791.685 957.964 556.867" stroke="white" stroke-width="2" stroke-miterlimit="10"/>
<path d="M759.715 927.418C759.715 927.418 761.559 964.111 785.973 969.086C810.387 974.061 808.639 950.909 835.091 952.875C861.544 954.841 875.595 976.731 898.504 964.597C921.413 952.463 901.392 936.421 935.561 937.902C969.731 939.382 1024.92 885.094 1000.82 865.098C976.72 845.101 926.704 896.428 915.055 895.481C903.406 894.535 896.999 875.242 880.473 884.439C863.946 893.637 852.128 916.886 834.363 912.59C816.599 908.295 778.692 902.64 759.715 927.418Z" fill="#FFA229"/>
<path d="M749.643 921.38C749.643 921.38 847.03 953.753 977.762 885.172" stroke="white" stroke-width="2" stroke-miterlimit="10"/>
<path d="M771.973 920.87C771.973 920.87 803.036 959.092 833.395 945.138C863.755 931.184 843.539 907.523 873.729 888.691C903.918 869.859 936.437 882.454 951.629 851.172C966.821 819.891 932.409 818.386 970.51 792.929C1008.61 767.472 1025.38 665.036 983.469 662.488C941.558 659.94 928.089 754.973 914.742 763.225C901.394 771.476 879.165 755.604 868.632 778.659C858.1 801.714 863.779 836.199 840.967 845.688C818.155 855.176 772.895 879.008 771.973 920.87Z" fill="#FFBB6A"/>
<path d="M754.084 922.078C754.084 922.078 887.34 880.215 974.438 702.5" stroke="white" stroke-width="2" stroke-miterlimit="10"/>
<path d="M846.934 909.521C859.432 882.365 894.014 864.285 918.84 857.952C943.666 851.618 941.288 838.294 943.302 812.522C945.268 787.404 1001.55 736.466 1004.39 733.82C998.609 758.331 986.451 782.356 970.628 792.865C932.527 818.419 966.964 819.899 951.748 851.108C936.532 882.317 904.037 869.819 873.847 888.651C843.658 907.483 863.873 931.12 833.514 945.074C816.526 952.888 799.247 944.297 787.404 935.245C787.404 935.245 834.339 936.653 846.934 909.521Z" fill="#FFA229"/>
<path d="M430.666 863.517C430.666 863.517 379.387 897.686 348.276 869.778C317.164 841.869 350.096 821.072 320.998 787.412C291.901 753.752 248.388 756.713 241.811 713.71C235.235 670.707 276.903 681.676 240.865 637.023C204.827 592.369 222.664 463.846 273.7 476.344C324.736 488.842 305.564 607.391 318.474 622.243C331.385 637.095 363.831 626.345 367.957 657.893C372.083 689.442 352.547 728.489 376.184 748.243C399.821 767.997 445.081 813.209 430.666 863.517Z" fill="#1C4670"/>
<path d="M467.069 887.253C467.069 887.253 302.361 791.685 252.369 556.867" stroke="white" stroke-width="2" stroke-miterlimit="10"/>
<path d="M450.544 927.418C450.544 927.418 448.675 964.111 424.261 969.086C399.848 974.061 401.595 950.909 375.143 952.875C348.69 954.841 334.664 976.731 311.73 964.597C288.797 952.463 308.867 936.421 274.697 937.902C240.528 939.382 185.342 885.094 209.44 865.098C233.538 845.101 283.531 896.428 295.179 895.481C306.828 894.535 313.259 875.242 329.786 884.439C346.312 893.637 358.106 916.886 375.895 912.59C393.683 908.295 431.542 902.64 450.544 927.418Z" fill="#FFA229"/>
<path d="M460.587 921.38C460.587 921.38 363.199 953.753 232.467 885.172" stroke="white" stroke-width="2" stroke-miterlimit="10"/>
<path d="M438.262 920.87C438.262 920.87 407.199 959.092 376.84 945.138C346.48 931.184 366.72 907.523 336.531 888.691C306.341 869.859 273.822 882.454 258.606 851.172C243.39 819.891 277.826 818.386 239.75 792.929C201.673 767.472 184.855 665.036 226.766 662.488C268.677 659.94 282.146 754.973 295.493 763.225C308.841 771.476 331.095 755.604 341.603 778.659C352.111 801.714 346.456 836.199 369.268 845.688C392.08 855.176 437.34 879.008 438.262 920.87Z" fill="#FFBB6A"/>
<path d="M456.219 922.078C456.219 922.078 322.988 880.215 235.865 702.5" stroke="white" stroke-width="2" stroke-miterlimit="10"/>
<path d="M363.417 909.521C350.943 882.365 316.361 864.285 291.535 857.952C266.709 851.618 269.063 838.294 267.049 812.522C265.083 787.404 208.805 736.466 205.99 733.82C211.766 758.331 223.9 782.356 239.747 792.865C277.824 818.419 243.412 819.899 258.603 851.108C273.795 882.317 306.314 869.819 336.528 888.651C366.742 907.483 346.502 931.12 376.837 945.074C393.825 952.888 411.104 944.297 422.947 935.245C422.947 935.245 375.891 936.653 363.417 909.521Z" fill="#FFA229"/>
<g style="mix-blend-mode:multiply">
<path d="M602.629 1009.71C784.52 1009.71 931.971 1000.7 931.971 989.572C931.971 978.448 784.52 969.43 602.629 969.43C420.739 969.43 273.287 978.448 273.287 989.572C273.287 1000.7 420.739 1009.71 602.629 1009.71Z" fill="#E2E2E2"/>
</g>
<path d="M905.181 58.2578H301.683C292.998 58.2578 285.957 65.2985 285.957 73.9835V971.854C285.957 980.539 292.998 987.58 301.683 987.58H905.181C913.866 987.58 920.907 980.539 920.907 971.854V73.9835C920.907 65.2985 913.866 58.2578 905.181 58.2578Z" fill="#1C4670"/>
<path d="M885.523 90.6406H316V987.419H885.523V90.6406Z" fill="#FCFCFC"/>
<path d="M810.924 442.602H474.059V456.823H810.924V442.602Z" fill="#D9D9D9"/>
<path d="M810.924 498.797H474.059V513.018H810.924V498.797Z" fill="#D9D9D9"/>
<path d="M810.924 555.008H474.059V569.229H810.924V555.008Z" fill="#D9D9D9"/>
<path d="M810.924 611.227H474.059V625.448H810.924V611.227Z" fill="#D9D9D9"/>
<path d="M810.924 667.438H474.059V681.659H810.924V667.438Z" fill="#D9D9D9"/>
<path d="M810.924 723.633H474.059V737.854H810.924V723.633Z" fill="#D9D9D9"/>
<path d="M810.922 787.094H551.326V801.315H810.922V787.094Z" fill="#D9D9D9"/>
<path d="M810.922 843.328H551.326V857.549H810.922V843.328Z" fill="#D9D9D9"/>
<path d="M810.922 897.305H551.326V911.526H810.922V897.305Z" fill="#D9D9D9"/>
<path d="M440.347 441.484H376.668C374.524 441.484 372.785 443.223 372.785 445.367V509.047C372.785 511.191 374.524 512.93 376.668 512.93H440.347C442.492 512.93 444.23 511.191 444.23 509.047V445.367C444.23 443.223 442.492 441.484 440.347 441.484Z" fill="#D9D9D9"/>
<path d="M386.328 475.403L404.189 491.323L430.69 463.852" stroke="#28478F" stroke-width="3" stroke-miterlimit="10"/>
<path d="M440.347 553.93H376.668C374.524 553.93 372.785 555.668 372.785 557.813V621.492C372.785 623.636 374.524 625.375 376.668 625.375H440.347C442.492 625.375 444.23 623.636 444.23 621.492V557.813C444.23 555.668 442.492 553.93 440.347 553.93Z" fill="#D9D9D9"/>
<path d="M386.328 587.856L404.189 603.776L430.69 576.305" stroke="#FCFCFC" stroke-width="3" stroke-miterlimit="10"/>
<path d="M376.669 666.399H440.324C440.834 666.399 441.339 666.499 441.81 666.694C442.281 666.889 442.709 667.175 443.07 667.536C443.43 667.896 443.716 668.324 443.911 668.795C444.107 669.267 444.207 669.772 444.207 670.281V733.937C444.207 734.966 443.798 735.954 443.07 736.682C442.342 737.41 441.354 737.819 440.324 737.819H376.669C375.633 737.819 374.639 737.408 373.906 736.675C373.173 735.942 372.762 734.949 372.762 733.912V670.306C372.759 669.792 372.857 669.282 373.053 668.807C373.248 668.331 373.536 667.899 373.899 667.536C374.262 667.172 374.694 666.885 375.17 666.689C375.645 666.494 376.155 666.395 376.669 666.399Z" fill="#D9D9D9"/>
<path d="M386.328 700.317L404.189 716.237L430.69 688.766" stroke="#FCFCFC" stroke-width="3" stroke-miterlimit="10"/>
<path d="M408.361 966.422L394.092 945.624L369.217 949.677L406.638 862.094L445.807 878.839L408.361 966.422Z" fill="#FFDA78"/>
<path d="M384.338 914.24C384.889 915.268 385.611 916.196 386.473 916.982C390.793 920.768 398.607 919.53 404.068 921.836C409.528 924.141 414.066 930.669 419.794 931.179C421.081 931.267 422.374 931.111 423.604 930.718L445.809 878.784L406.64 862.039L384.338 914.24Z" fill="#E0AB67"/>
<path d="M456.389 966.422L470.659 945.624L495.533 949.677L458.112 862.094L418.943 878.839L456.389 966.422Z" fill="#FFDA78"/>
<path d="M480.487 914.249C479.944 915.283 479.221 916.212 478.352 916.991C474.032 920.777 466.218 919.54 460.757 921.845C455.297 924.151 450.759 930.679 445.056 931.188C443.768 931.277 442.475 931.12 441.246 930.727L418.943 878.745L458.088 862L480.487 914.249Z" fill="#E0AB67"/>
<path d="M506.258 856.367C506.258 863.647 498.977 869.763 496.745 876.363C494.512 882.964 496.745 892.453 492.692 898.205C488.639 903.956 478.981 904.563 473.278 908.761C467.575 912.96 464.08 921.793 457.212 924.026C450.344 926.259 442.651 921.09 435.371 921.09C428.09 921.09 420.009 926.162 413.408 924.026C406.807 921.89 403.07 912.911 397.367 908.761C391.664 904.612 382.078 903.908 377.953 898.205C373.827 892.502 376.157 883.256 373.924 876.363C371.691 869.471 364.387 863.696 364.387 856.367C364.387 849.038 371.788 842.995 373.924 836.394C376.06 829.793 373.803 820.304 377.953 814.553C382.102 808.801 391.688 808.194 397.367 803.996C403.046 799.798 406.565 790.964 413.408 788.731C420.252 786.499 427.969 791.668 435.371 791.668C442.773 791.668 450.733 786.596 457.212 788.731C463.692 790.867 467.575 799.846 473.278 803.996C478.981 808.146 488.566 808.85 492.692 814.553C496.818 820.256 494.512 829.502 496.745 836.394C498.977 843.286 506.258 849.062 506.258 856.367Z" fill="#FFA229"/>
<path d="M474.858 884.544C489.332 860.907 481.903 830.011 458.266 815.537C434.628 801.063 403.732 808.492 389.258 832.13C374.784 855.767 382.213 886.663 405.851 901.137C429.489 915.611 460.384 908.182 474.858 884.544Z" fill="#E0AB67"/>
<path d="M435.229 906.576C462.947 906.576 485.416 884.107 485.416 856.389C485.416 828.672 462.947 806.203 435.229 806.203C407.512 806.203 385.043 828.672 385.043 856.389C385.043 884.107 407.512 906.576 435.229 906.576Z" fill="#FFDA78"/>
<path d="M481.049 863.952C486.752 839.697 471.712 815.412 447.457 809.71C423.203 804.007 398.918 819.047 393.216 843.302C387.513 867.556 402.553 891.841 426.808 897.544C451.062 903.246 475.347 888.206 481.049 863.952Z" fill="#FFE68A"/>
<path d="M454.958 842.982C454.958 844.73 454.439 846.439 453.468 847.892C452.496 849.345 451.115 850.478 449.499 851.146C447.884 851.813 446.107 851.987 444.392 851.644C442.678 851.301 441.104 850.457 439.87 849.22C438.635 847.982 437.796 846.406 437.458 844.69C437.12 842.975 437.298 841.198 437.97 839.585C438.643 837.971 439.779 836.593 441.235 835.625C442.69 834.658 444.401 834.144 446.149 834.148C447.308 834.148 448.455 834.377 449.526 834.821C450.596 835.266 451.568 835.917 452.387 836.737C453.205 837.558 453.853 838.532 454.295 839.603C454.736 840.675 454.961 841.823 454.958 842.982Z" fill="#FFFFA6"/>
<path d="M431.954 791.71C432.512 791.71 433.07 791.71 433.629 791.71C427.513 791.127 421.033 787.778 415.379 788.458C420.621 788.943 426.421 791.71 431.954 791.71Z" fill="#FFDA78"/>
<path d="M431.954 921.039C426.518 921.039 420.718 923.83 415.379 924.388C421.033 925.068 427.513 921.719 433.629 921.136C432.973 921.088 432.415 921.039 431.954 921.039Z" fill="#FFDA78"/>
<path d="M496.748 836.395C494.516 829.552 496.748 820.305 492.696 814.554C488.643 808.802 478.984 808.196 473.281 803.997C467.578 799.799 464.084 790.965 457.216 788.733C455.471 788.204 453.633 788.063 451.828 788.32C452.521 788.383 453.204 788.521 453.867 788.733C460.71 790.965 464.205 799.848 469.908 803.997C475.611 808.147 485.197 808.851 489.322 814.554C493.448 820.257 491.118 829.503 493.351 836.395C495.583 843.287 502.888 849.063 502.888 856.368C502.888 863.673 495.486 869.764 493.351 876.365C491.215 882.966 493.472 892.454 489.322 898.206C485.172 903.958 475.587 904.564 469.908 908.763C464.229 912.961 460.71 921.795 453.867 924.027C453.204 924.239 452.521 924.377 451.828 924.44C453.633 924.697 455.471 924.556 457.216 924.027C464.084 921.795 467.578 912.912 473.281 908.763C478.984 904.613 488.57 903.909 492.696 898.206C496.821 892.503 494.516 883.257 496.748 876.365C498.981 869.473 506.261 863.697 506.261 856.368C506.261 849.039 498.884 842.996 496.748 836.395Z" fill="#FFDA78"/>
<path d="M432.43 194.112H437.532C437.396 195.918 436.895 197.52 436.029 198.918C435.163 200.303 433.957 201.392 432.411 202.184C430.865 202.975 428.991 203.371 426.789 203.371C425.094 203.371 423.567 203.074 422.206 202.48C420.858 201.874 419.701 201.015 418.736 199.901C417.784 198.776 417.054 197.427 416.547 195.856C416.04 194.273 415.786 192.498 415.786 190.531V188.472C415.786 186.505 416.046 184.73 416.565 183.146C417.085 181.563 417.827 180.215 418.792 179.102C419.769 177.976 420.938 177.11 422.299 176.504C423.672 175.898 425.206 175.595 426.9 175.595C429.102 175.595 430.964 176.003 432.485 176.819C434.007 177.623 435.188 178.73 436.029 180.141C436.87 181.551 437.378 183.171 437.551 185.002H432.448C432.349 183.864 432.102 182.899 431.706 182.107C431.323 181.316 430.741 180.716 429.962 180.308C429.195 179.887 428.174 179.677 426.9 179.677C425.911 179.677 425.039 179.862 424.284 180.233C423.542 180.604 422.924 181.161 422.429 181.903C421.934 182.633 421.563 183.549 421.315 184.649C421.068 185.738 420.944 187 420.944 188.435V190.531C420.944 191.904 421.056 193.135 421.278 194.224C421.501 195.312 421.847 196.234 422.317 196.988C422.787 197.743 423.394 198.318 424.136 198.714C424.878 199.11 425.762 199.308 426.789 199.308C428.038 199.308 429.053 199.11 429.832 198.714C430.624 198.318 431.224 197.737 431.632 196.97C432.052 196.203 432.318 195.25 432.43 194.112ZM445.919 174.5V203H441.002V174.5H445.919ZM445.14 192.238H443.692C443.692 190.84 443.878 189.554 444.249 188.379C444.62 187.204 445.146 186.183 445.826 185.317C446.507 184.439 447.317 183.759 448.257 183.276C449.209 182.794 450.261 182.553 451.411 182.553C452.401 182.553 453.298 182.695 454.102 182.979C454.918 183.252 455.617 183.691 456.198 184.297C456.78 184.903 457.225 185.695 457.534 186.672C457.856 187.637 458.017 188.812 458.017 190.197V203H453.081V190.16C453.081 189.232 452.945 188.503 452.673 187.971C452.401 187.426 452.011 187.037 451.504 186.802C451.009 186.567 450.397 186.449 449.667 186.449C448.875 186.449 448.195 186.604 447.626 186.913C447.057 187.21 446.587 187.624 446.216 188.156C445.857 188.688 445.585 189.3 445.399 189.993C445.226 190.686 445.14 191.434 445.14 192.238ZM473.398 198.732V189.474C473.398 188.793 473.281 188.206 473.046 187.711C472.811 187.216 472.452 186.833 471.97 186.561C471.487 186.288 470.875 186.152 470.133 186.152C469.477 186.152 468.902 186.264 468.407 186.486C467.925 186.709 467.554 187.024 467.294 187.433C467.034 187.828 466.904 188.286 466.904 188.806H461.987C461.987 187.977 462.185 187.191 462.581 186.449C462.977 185.695 463.54 185.027 464.27 184.445C465.012 183.852 465.896 183.388 466.923 183.054C467.962 182.72 469.125 182.553 470.411 182.553C471.933 182.553 473.287 182.812 474.475 183.332C475.674 183.839 476.615 184.606 477.295 185.633C477.988 186.66 478.334 187.952 478.334 189.511V198.269C478.334 199.271 478.396 200.13 478.52 200.848C478.656 201.553 478.854 202.165 479.113 202.685V203H474.122C473.887 202.493 473.708 201.85 473.584 201.07C473.46 200.279 473.398 199.499 473.398 198.732ZM474.085 190.772L474.122 193.686H471.023C470.257 193.686 469.582 193.766 469.001 193.927C468.42 194.075 467.943 194.298 467.572 194.595C467.201 194.879 466.923 195.226 466.737 195.634C466.552 196.03 466.459 196.481 466.459 196.988C466.459 197.483 466.57 197.928 466.793 198.324C467.028 198.72 467.362 199.035 467.795 199.271C468.24 199.493 468.76 199.604 469.354 199.604C470.219 199.604 470.974 199.431 471.617 199.085C472.26 198.726 472.761 198.293 473.12 197.786C473.479 197.279 473.671 196.797 473.695 196.339L475.105 198.454C474.932 198.961 474.673 199.499 474.326 200.068C473.98 200.637 473.535 201.169 472.99 201.664C472.446 202.159 471.79 202.567 471.023 202.889C470.257 203.21 469.366 203.371 468.352 203.371C467.053 203.371 465.89 203.111 464.863 202.592C463.837 202.072 463.026 201.361 462.433 200.458C461.839 199.555 461.542 198.528 461.542 197.378C461.542 196.314 461.74 195.374 462.136 194.558C462.532 193.741 463.119 193.055 463.898 192.498C464.678 191.929 465.643 191.502 466.793 191.218C467.956 190.921 469.285 190.772 470.782 190.772H474.085ZM487.556 187.21V203H482.657V182.924H487.259L487.556 187.21ZM486.776 192.238H485.329C485.341 190.779 485.539 189.455 485.923 188.268C486.306 187.08 486.844 186.06 487.537 185.206C488.242 184.353 489.077 183.697 490.042 183.239C491.007 182.782 492.083 182.553 493.271 182.553C494.235 182.553 495.107 182.689 495.887 182.961C496.666 183.233 497.334 183.666 497.891 184.26C498.46 184.854 498.893 185.633 499.189 186.598C499.499 187.55 499.653 188.725 499.653 190.123V203H494.718V190.086C494.718 189.171 494.582 188.447 494.31 187.915C494.05 187.383 493.666 187.006 493.159 186.783C492.664 186.561 492.052 186.449 491.322 186.449C490.568 186.449 489.906 186.604 489.337 186.913C488.78 187.21 488.31 187.624 487.927 188.156C487.556 188.688 487.271 189.3 487.073 189.993C486.875 190.686 486.776 191.434 486.776 192.238ZM516.742 182.924H521.195V202.388C521.195 204.206 520.799 205.746 520.008 207.008C519.229 208.282 518.134 209.247 516.724 209.902C515.313 210.57 513.674 210.904 511.807 210.904C511.003 210.904 510.131 210.793 509.19 210.57C508.263 210.348 507.366 209.995 506.5 209.513C505.646 209.043 504.935 208.43 504.366 207.676L506.574 204.781C507.242 205.561 507.997 206.148 508.838 206.544C509.679 206.952 510.588 207.156 511.565 207.156C512.555 207.156 513.396 206.971 514.089 206.6C514.794 206.241 515.332 205.709 515.703 205.004C516.087 204.311 516.278 203.458 516.278 202.443V187.507L516.742 182.924ZM503.179 193.203V192.813C503.179 191.28 503.364 189.888 503.735 188.639C504.106 187.377 504.638 186.295 505.331 185.392C506.036 184.489 506.883 183.79 507.873 183.295C508.875 182.8 510.001 182.553 511.25 182.553C512.574 182.553 513.687 182.794 514.59 183.276C515.505 183.759 516.26 184.445 516.854 185.336C517.46 186.227 517.93 187.284 518.264 188.509C518.61 189.721 518.876 191.057 519.062 192.517V193.574C518.888 194.997 518.61 196.302 518.227 197.489C517.855 198.677 517.361 199.716 516.742 200.606C516.124 201.485 515.357 202.165 514.441 202.647C513.526 203.13 512.45 203.371 511.213 203.371C509.976 203.371 508.863 203.118 507.873 202.61C506.883 202.103 506.036 201.392 505.331 200.477C504.638 199.561 504.106 198.485 503.735 197.248C503.364 196.011 503.179 194.663 503.179 193.203ZM508.077 192.813V193.203C508.077 194.069 508.164 194.879 508.337 195.634C508.51 196.388 508.776 197.056 509.135 197.638C509.493 198.207 509.945 198.652 510.489 198.974C511.034 199.295 511.683 199.456 512.438 199.456C513.452 199.456 514.281 199.246 514.924 198.825C515.579 198.392 516.074 197.805 516.408 197.062C516.755 196.308 516.977 195.461 517.076 194.521V191.607C517.014 190.865 516.878 190.179 516.668 189.548C516.47 188.917 516.192 188.373 515.833 187.915C515.474 187.457 515.017 187.099 514.46 186.839C513.903 186.579 513.242 186.449 512.475 186.449C511.732 186.449 511.083 186.616 510.526 186.95C509.97 187.272 509.512 187.723 509.153 188.305C508.795 188.886 508.522 189.56 508.337 190.327C508.164 191.094 508.077 191.923 508.077 192.813ZM534.629 203.371C533.107 203.371 531.741 203.124 530.528 202.629C529.316 202.134 528.283 201.448 527.43 200.569C526.589 199.679 525.939 198.646 525.481 197.471C525.036 196.283 524.813 195.009 524.813 193.648V192.906C524.813 191.36 525.036 189.956 525.481 188.694C525.927 187.42 526.558 186.326 527.374 185.41C528.19 184.495 529.168 183.79 530.306 183.295C531.444 182.8 532.699 182.553 534.072 182.553C535.495 182.553 536.75 182.794 537.839 183.276C538.927 183.746 539.837 184.414 540.566 185.28C541.296 186.146 541.847 187.185 542.218 188.397C542.589 189.597 542.774 190.927 542.774 192.387V194.446H527.04V191.069H537.95V190.698C537.925 189.919 537.777 189.208 537.505 188.564C537.233 187.909 536.812 187.389 536.243 187.006C535.674 186.61 534.938 186.412 534.035 186.412C533.305 186.412 532.668 186.573 532.124 186.895C531.592 187.204 531.147 187.649 530.788 188.23C530.442 188.799 530.182 189.48 530.009 190.271C529.836 191.063 529.749 191.941 529.749 192.906V193.648C529.749 194.49 529.86 195.269 530.083 195.986C530.318 196.704 530.658 197.328 531.104 197.86C531.561 198.38 532.105 198.788 532.736 199.085C533.38 199.369 534.109 199.512 534.926 199.512C535.952 199.512 536.88 199.314 537.709 198.918C538.55 198.51 539.28 197.91 539.898 197.118L542.366 199.679C541.946 200.297 541.377 200.891 540.659 201.46C539.954 202.029 539.101 202.493 538.099 202.852C537.097 203.198 535.94 203.371 534.629 203.371ZM560.717 182.924V203H555.8V182.924H560.717ZM555.466 177.673C555.466 176.943 555.713 176.337 556.208 175.854C556.715 175.372 557.396 175.131 558.249 175.131C559.103 175.131 559.777 175.372 560.271 175.854C560.779 176.337 561.032 176.943 561.032 177.673C561.032 178.39 560.779 178.99 560.271 179.473C559.777 179.955 559.103 180.196 558.249 180.196C557.396 180.196 556.715 179.955 556.208 179.473C555.713 178.99 555.466 178.39 555.466 177.673ZM570.198 187.21V203H565.3V182.924H569.901L570.198 187.21ZM569.419 192.238H567.972C567.984 190.779 568.182 189.455 568.565 188.268C568.949 187.08 569.487 186.06 570.18 185.206C570.885 184.353 571.72 183.697 572.685 183.239C573.649 182.782 574.726 182.553 575.913 182.553C576.878 182.553 577.75 182.689 578.529 182.961C579.309 183.233 579.977 183.666 580.533 184.26C581.102 184.854 581.535 185.633 581.832 186.598C582.141 187.55 582.296 188.725 582.296 190.123V203H577.36V190.086C577.36 189.171 577.224 188.447 576.952 187.915C576.692 187.383 576.309 187.006 575.802 186.783C575.307 186.561 574.695 186.449 573.965 186.449C573.21 186.449 572.549 186.604 571.979 186.913C571.423 187.21 570.953 187.624 570.569 188.156C570.198 188.688 569.914 189.3 569.716 189.993C569.518 190.686 569.419 191.434 569.419 192.238ZM604.524 203H598.698L598.735 198.992H604.524C606.095 198.992 607.413 198.646 608.477 197.953C609.54 197.248 610.344 196.24 610.889 194.929C611.433 193.605 611.705 192.022 611.705 190.179V188.787C611.705 187.365 611.55 186.109 611.241 185.021C610.932 183.932 610.474 183.017 609.868 182.274C609.274 181.532 608.538 180.969 607.66 180.586C606.782 180.202 605.774 180.011 604.636 180.011H598.587V175.984H604.636C606.442 175.984 608.087 176.287 609.571 176.894C611.068 177.5 612.361 178.372 613.449 179.51C614.55 180.635 615.391 181.984 615.973 183.555C616.566 185.126 616.863 186.882 616.863 188.824V190.179C616.863 192.108 616.566 193.865 615.973 195.448C615.391 197.019 614.55 198.368 613.449 199.493C612.361 200.619 611.062 201.485 609.553 202.091C608.044 202.697 606.368 203 604.524 203ZM601.556 175.984V203H596.453V175.984H601.556ZM626.029 182.924V203H621.112V182.924H626.029ZM620.778 177.673C620.778 176.943 621.026 176.337 621.521 175.854C622.028 175.372 622.708 175.131 623.562 175.131C624.415 175.131 625.089 175.372 625.584 175.854C626.091 176.337 626.345 176.943 626.345 177.673C626.345 178.39 626.091 178.99 625.584 179.473C625.089 179.955 624.415 180.196 623.562 180.196C622.708 180.196 622.028 179.955 621.521 179.473C621.026 178.99 620.778 178.39 620.778 177.673ZM635.604 187.024V203H630.705V182.924H635.344L635.604 187.024ZM641.708 182.794L641.634 187.358C641.362 187.309 641.052 187.272 640.706 187.247C640.372 187.222 640.057 187.21 639.76 187.21C639.005 187.21 638.343 187.315 637.774 187.525C637.205 187.723 636.729 188.014 636.346 188.397C635.975 188.781 635.69 189.251 635.492 189.808C635.294 190.352 635.183 190.97 635.158 191.663L634.101 191.533C634.101 190.259 634.23 189.078 634.49 187.989C634.75 186.901 635.127 185.948 635.622 185.132C636.117 184.315 636.735 183.685 637.478 183.239C638.232 182.782 639.098 182.553 640.075 182.553C640.347 182.553 640.638 182.577 640.947 182.627C641.269 182.664 641.522 182.72 641.708 182.794ZM653.045 203.371C651.523 203.371 650.157 203.124 648.944 202.629C647.732 202.134 646.699 201.448 645.846 200.569C645.005 199.679 644.355 198.646 643.897 197.471C643.452 196.283 643.229 195.009 643.229 193.648V192.906C643.229 191.36 643.452 189.956 643.897 188.694C644.343 187.42 644.974 186.326 645.79 185.41C646.606 184.495 647.584 183.79 648.722 183.295C649.86 182.8 651.115 182.553 652.488 182.553C653.911 182.553 655.166 182.794 656.255 183.276C657.343 183.746 658.253 184.414 658.982 185.28C659.712 186.146 660.263 187.185 660.634 188.397C661.005 189.597 661.19 190.927 661.19 192.387V194.446H645.456V191.069H656.366V190.698C656.341 189.919 656.193 189.208 655.921 188.564C655.649 187.909 655.228 187.389 654.659 187.006C654.09 186.61 653.354 186.412 652.451 186.412C651.721 186.412 651.084 186.573 650.54 186.895C650.008 187.204 649.563 187.649 649.204 188.23C648.858 188.799 648.598 189.48 648.425 190.271C648.252 191.063 648.165 191.941 648.165 192.906V193.648C648.165 194.49 648.276 195.269 648.499 195.986C648.734 196.704 649.074 197.328 649.52 197.86C649.977 198.38 650.521 198.788 651.152 199.085C651.796 199.369 652.525 199.512 653.342 199.512C654.368 199.512 655.296 199.314 656.125 198.918C656.966 198.51 657.696 197.91 658.314 197.118L660.782 199.679C660.362 200.297 659.793 200.891 659.075 201.46C658.37 202.029 657.517 202.493 656.515 202.852C655.513 203.198 654.356 203.371 653.045 203.371ZM672.713 199.512C673.406 199.512 674.024 199.376 674.568 199.104C675.113 198.831 675.546 198.448 675.867 197.953C676.201 197.458 676.381 196.883 676.405 196.228H681.025C681.001 197.588 680.617 198.807 679.875 199.883C679.133 200.959 678.143 201.812 676.906 202.443C675.682 203.062 674.309 203.371 672.787 203.371C671.241 203.371 669.893 203.111 668.742 202.592C667.592 202.072 666.633 201.349 665.866 200.421C665.112 199.493 664.543 198.417 664.159 197.192C663.788 195.968 663.603 194.657 663.603 193.259V192.665C663.603 191.267 663.788 189.956 664.159 188.731C664.543 187.507 665.112 186.431 665.866 185.503C666.633 184.575 667.592 183.852 668.742 183.332C669.893 182.812 671.235 182.553 672.769 182.553C674.389 182.553 675.812 182.868 677.036 183.499C678.273 184.13 679.238 185.021 679.931 186.171C680.636 187.321 681.001 188.676 681.025 190.234H676.405C676.381 189.517 676.22 188.874 675.923 188.305C675.626 187.736 675.205 187.278 674.661 186.932C674.117 186.585 673.455 186.412 672.676 186.412C671.847 186.412 671.154 186.585 670.598 186.932C670.053 187.278 669.627 187.754 669.317 188.36C669.021 188.954 668.81 189.622 668.687 190.364C668.575 191.094 668.52 191.861 668.52 192.665V193.259C668.52 194.075 668.575 194.854 668.687 195.597C668.81 196.339 669.021 197.007 669.317 197.601C669.627 198.182 670.053 198.646 670.598 198.992C671.154 199.339 671.859 199.512 672.713 199.512ZM693.791 182.924V186.449H682.287V182.924H693.791ZM685.367 177.988H690.284V197.211C690.284 197.805 690.365 198.262 690.525 198.584C690.686 198.906 690.927 199.122 691.249 199.233C691.571 199.345 691.954 199.4 692.399 199.4C692.721 199.4 693.018 199.382 693.29 199.345C693.562 199.308 693.791 199.271 693.977 199.233L693.995 202.907C693.587 203.043 693.123 203.155 692.604 203.241C692.096 203.328 691.521 203.371 690.878 203.371C689.777 203.371 688.812 203.186 687.983 202.814C687.155 202.431 686.511 201.819 686.054 200.978C685.596 200.124 685.367 198.998 685.367 197.601V177.988ZM695.702 193.166V192.776C695.702 191.304 695.912 189.95 696.333 188.713C696.754 187.464 697.366 186.381 698.17 185.466C698.974 184.55 699.957 183.839 701.12 183.332C702.283 182.812 703.606 182.553 705.091 182.553C706.6 182.553 707.936 182.812 709.099 183.332C710.274 183.839 711.263 184.55 712.067 185.466C712.871 186.381 713.484 187.464 713.904 188.713C714.325 189.95 714.535 191.304 714.535 192.776V193.166C714.535 194.626 714.325 195.98 713.904 197.229C713.484 198.466 712.871 199.549 712.067 200.477C711.263 201.392 710.28 202.103 709.117 202.61C707.954 203.118 706.625 203.371 705.128 203.371C703.644 203.371 702.314 203.118 701.139 202.61C699.964 202.103 698.974 201.392 698.17 200.477C697.366 199.549 696.754 198.466 696.333 197.229C695.912 195.98 695.702 194.626 695.702 193.166ZM700.601 192.776V193.166C700.601 194.044 700.687 194.867 700.86 195.634C701.034 196.401 701.299 197.075 701.658 197.656C702.017 198.238 702.481 198.695 703.05 199.029C703.631 199.351 704.324 199.512 705.128 199.512C705.92 199.512 706.6 199.351 707.169 199.029C707.738 198.695 708.202 198.238 708.561 197.656C708.932 197.075 709.204 196.401 709.377 195.634C709.55 194.867 709.637 194.044 709.637 193.166V192.776C709.637 191.91 709.55 191.1 709.377 190.346C709.204 189.579 708.932 188.905 708.561 188.323C708.202 187.729 707.732 187.266 707.15 186.932C706.581 186.585 705.895 186.412 705.091 186.412C704.299 186.412 703.619 186.585 703.05 186.932C702.481 187.266 702.017 187.729 701.658 188.323C701.299 188.905 701.034 189.579 700.86 190.346C700.687 191.1 700.601 191.91 700.601 192.776ZM722.996 187.024V203H718.098V182.924H722.736L722.996 187.024ZM729.101 182.794L729.026 187.358C728.754 187.309 728.445 187.272 728.099 187.247C727.765 187.222 727.449 187.21 727.152 187.21C726.398 187.21 725.736 187.315 725.167 187.525C724.598 187.723 724.122 188.014 723.738 188.397C723.367 188.781 723.083 189.251 722.885 189.808C722.687 190.352 722.576 190.97 722.551 191.663L721.493 191.533C721.493 190.259 721.623 189.078 721.883 187.989C722.143 186.901 722.52 185.948 723.015 185.132C723.509 184.315 724.128 183.685 724.87 183.239C725.625 182.782 726.491 182.553 727.468 182.553C727.74 182.553 728.031 182.577 728.34 182.627C728.661 182.664 728.915 182.72 729.101 182.794Z" fill="#1C4670"/>
<path d="M740.382 193.166V192.776C740.382 191.304 740.592 189.95 741.013 188.713C741.433 187.464 742.046 186.381 742.85 185.466C743.654 184.55 744.637 183.839 745.8 183.332C746.963 182.812 748.286 182.553 749.771 182.553C751.28 182.553 752.616 182.812 753.778 183.332C754.953 183.839 755.943 184.55 756.747 185.466C757.551 186.381 758.163 187.464 758.584 188.713C759.005 189.95 759.215 191.304 759.215 192.776V193.166C759.215 194.626 759.005 195.98 758.584 197.229C758.163 198.466 757.551 199.549 756.747 200.477C755.943 201.392 754.96 202.103 753.797 202.61C752.634 203.118 751.304 203.371 749.808 203.371C748.323 203.371 746.993 203.118 745.818 202.61C744.643 202.103 743.654 201.392 742.85 200.477C742.046 199.549 741.433 198.466 741.013 197.229C740.592 195.98 740.382 194.626 740.382 193.166ZM745.28 192.776V193.166C745.28 194.044 745.367 194.867 745.54 195.634C745.713 196.401 745.979 197.075 746.338 197.656C746.697 198.238 747.16 198.695 747.729 199.029C748.311 199.351 749.004 199.512 749.808 199.512C750.599 199.512 751.28 199.351 751.849 199.029C752.418 198.695 752.882 198.238 753.24 197.656C753.611 197.075 753.883 196.401 754.057 195.634C754.23 194.867 754.316 194.044 754.316 193.166V192.776C754.316 191.91 754.23 191.1 754.057 190.346C753.883 189.579 753.611 188.905 753.24 188.323C752.882 187.729 752.411 187.266 751.83 186.932C751.261 186.585 750.575 186.412 749.771 186.412C748.979 186.412 748.299 186.585 747.729 186.932C747.16 187.266 746.697 187.729 746.338 188.323C745.979 188.905 745.713 189.579 745.54 190.346C745.367 191.1 745.28 191.91 745.28 192.776ZM769.197 203H764.262V181.068C764.262 179.559 764.552 178.291 765.134 177.265C765.715 176.226 766.544 175.44 767.62 174.908C768.696 174.376 769.964 174.11 771.424 174.11C771.906 174.11 772.364 174.141 772.797 174.203C773.242 174.265 773.681 174.352 774.114 174.463L774.021 178.192C773.786 178.131 773.527 178.087 773.242 178.062C772.97 178.038 772.667 178.025 772.333 178.025C771.665 178.025 771.096 178.143 770.626 178.378C770.156 178.613 769.797 178.959 769.55 179.417C769.315 179.862 769.197 180.413 769.197 181.068V203ZM773.261 182.924V186.449H761.237V182.924H773.261ZM796.807 198.732V189.474C796.807 188.793 796.689 188.206 796.454 187.711C796.219 187.216 795.86 186.833 795.378 186.561C794.896 186.288 794.283 186.152 793.541 186.152C792.885 186.152 792.31 186.264 791.815 186.486C791.333 186.709 790.962 187.024 790.702 187.433C790.442 187.828 790.312 188.286 790.312 188.806H785.396C785.396 187.977 785.593 187.191 785.989 186.449C786.385 185.695 786.948 185.027 787.678 184.445C788.42 183.852 789.304 183.388 790.331 183.054C791.37 182.72 792.533 182.553 793.819 182.553C795.341 182.553 796.695 182.812 797.883 183.332C799.083 183.839 800.023 184.606 800.703 185.633C801.396 186.66 801.742 187.952 801.742 189.511V198.269C801.742 199.271 801.804 200.13 801.928 200.848C802.064 201.553 802.262 202.165 802.521 202.685V203H797.53C797.295 202.493 797.116 201.85 796.992 201.07C796.868 200.279 796.807 199.499 796.807 198.732ZM797.493 190.772L797.53 193.686H794.432C793.665 193.686 792.991 193.766 792.409 193.927C791.828 194.075 791.352 194.298 790.98 194.595C790.609 194.879 790.331 195.226 790.146 195.634C789.96 196.03 789.867 196.481 789.867 196.988C789.867 197.483 789.979 197.928 790.201 198.324C790.436 198.72 790.77 199.035 791.203 199.271C791.648 199.493 792.168 199.604 792.762 199.604C793.628 199.604 794.382 199.431 795.025 199.085C795.669 198.726 796.17 198.293 796.528 197.786C796.887 197.279 797.079 196.797 797.104 196.339L798.514 198.454C798.34 198.961 798.081 199.499 797.734 200.068C797.388 200.637 796.943 201.169 796.398 201.664C795.854 202.159 795.199 202.567 794.432 202.889C793.665 203.21 792.774 203.371 791.76 203.371C790.461 203.371 789.298 203.111 788.271 202.592C787.245 202.072 786.435 201.361 785.841 200.458C785.247 199.555 784.95 198.528 784.95 197.378C784.95 196.314 785.148 195.374 785.544 194.558C785.94 193.741 786.527 193.055 787.307 192.498C788.086 191.929 789.051 191.502 790.201 191.218C791.364 190.921 792.694 190.772 794.19 190.772H797.493ZM546.727 239.112H551.829C551.693 240.918 551.192 242.52 550.326 243.918C549.46 245.303 548.254 246.392 546.708 247.184C545.162 247.975 543.288 248.371 541.086 248.371C539.391 248.371 537.864 248.074 536.503 247.48C535.155 246.874 533.998 246.015 533.033 244.901C532.081 243.776 531.351 242.427 530.844 240.856C530.337 239.273 530.083 237.498 530.083 235.531V233.472C530.083 231.505 530.343 229.73 530.862 228.146C531.382 226.563 532.124 225.215 533.089 224.102C534.066 222.976 535.235 222.11 536.596 221.504C537.969 220.898 539.503 220.595 541.197 220.595C543.399 220.595 545.261 221.003 546.782 221.819C548.304 222.623 549.485 223.73 550.326 225.141C551.167 226.551 551.674 228.171 551.848 230.002H546.745C546.646 228.864 546.399 227.899 546.003 227.107C545.619 226.316 545.038 225.716 544.259 225.308C543.492 224.887 542.471 224.677 541.197 224.677C540.208 224.677 539.336 224.862 538.581 225.233C537.839 225.604 537.22 226.161 536.726 226.903C536.231 227.633 535.86 228.549 535.612 229.649C535.365 230.738 535.241 232 535.241 233.435V235.531C535.241 236.904 535.353 238.135 535.575 239.224C535.798 240.312 536.144 241.234 536.614 241.988C537.084 242.743 537.69 243.318 538.433 243.714C539.175 244.11 540.059 244.308 541.086 244.308C542.335 244.308 543.35 244.11 544.129 243.714C544.921 243.318 545.521 242.737 545.929 241.97C546.349 241.203 546.615 240.25 546.727 239.112ZM554.538 238.166V237.776C554.538 236.304 554.748 234.95 555.169 233.713C555.59 232.464 556.202 231.381 557.006 230.466C557.81 229.55 558.793 228.839 559.956 228.332C561.119 227.812 562.442 227.553 563.927 227.553C565.436 227.553 566.772 227.812 567.935 228.332C569.11 228.839 570.099 229.55 570.903 230.466C571.707 231.381 572.32 232.464 572.74 233.713C573.161 234.95 573.371 236.304 573.371 237.776V238.166C573.371 239.626 573.161 240.98 572.74 242.229C572.32 243.466 571.707 244.549 570.903 245.477C570.099 246.392 569.116 247.103 567.953 247.61C566.79 248.118 565.461 248.371 563.964 248.371C562.479 248.371 561.15 248.118 559.975 247.61C558.799 247.103 557.81 246.392 557.006 245.477C556.202 244.549 555.59 243.466 555.169 242.229C554.748 240.98 554.538 239.626 554.538 238.166ZM559.437 237.776V238.166C559.437 239.044 559.523 239.867 559.696 240.634C559.869 241.401 560.135 242.075 560.494 242.656C560.853 243.238 561.317 243.695 561.886 244.029C562.467 244.351 563.16 244.512 563.964 244.512C564.756 244.512 565.436 244.351 566.005 244.029C566.574 243.695 567.038 243.238 567.396 242.656C567.768 242.075 568.04 241.401 568.213 240.634C568.386 239.867 568.473 239.044 568.473 238.166V237.776C568.473 236.91 568.386 236.1 568.213 235.346C568.04 234.579 567.768 233.905 567.396 233.323C567.038 232.729 566.568 232.266 565.986 231.932C565.417 231.585 564.731 231.412 563.927 231.412C563.135 231.412 562.455 231.585 561.886 231.932C561.317 232.266 560.853 232.729 560.494 233.323C560.135 233.905 559.869 234.579 559.696 235.346C559.523 236.1 559.437 236.91 559.437 237.776ZM581.813 232.043V248H576.915V227.924H581.535L581.813 232.043ZM581.09 237.238H579.587C579.587 235.84 579.754 234.554 580.088 233.379C580.434 232.204 580.941 231.183 581.609 230.317C582.277 229.439 583.1 228.759 584.077 228.276C585.067 227.794 586.211 227.553 587.51 227.553C588.413 227.553 589.242 227.689 589.996 227.961C590.751 228.221 591.4 228.635 591.944 229.204C592.501 229.761 592.928 230.491 593.225 231.394C593.521 232.284 593.67 233.354 593.67 234.604V248H588.771V235.104C588.771 234.164 588.635 233.428 588.363 232.896C588.104 232.365 587.726 231.993 587.231 231.783C586.737 231.561 586.143 231.449 585.45 231.449C584.683 231.449 584.021 231.604 583.465 231.913C582.921 232.21 582.469 232.624 582.11 233.156C581.764 233.688 581.504 234.3 581.331 234.993C581.17 235.686 581.09 236.434 581.09 237.238ZM593.299 236.329L591.276 236.7C591.289 235.438 591.462 234.257 591.796 233.156C592.13 232.043 592.618 231.072 593.262 230.243C593.917 229.402 594.728 228.746 595.692 228.276C596.67 227.794 597.795 227.553 599.069 227.553C600.059 227.553 600.95 227.695 601.741 227.979C602.545 228.252 603.232 228.691 603.801 229.297C604.37 229.891 604.803 230.664 605.1 231.616C605.409 232.569 605.563 233.731 605.563 235.104V248H600.628V235.086C600.628 234.109 600.492 233.36 600.22 232.841C599.96 232.321 599.583 231.963 599.088 231.765C598.593 231.554 598.012 231.449 597.344 231.449C596.663 231.449 596.07 231.579 595.562 231.839C595.068 232.086 594.647 232.433 594.301 232.878C593.967 233.323 593.713 233.843 593.54 234.437C593.379 235.018 593.299 235.649 593.299 236.329ZM614.859 231.783V255.719H609.942V227.924H614.488L614.859 231.783ZM627.755 237.758V238.147C627.755 239.607 627.582 240.962 627.235 242.211C626.901 243.448 626.407 244.53 625.751 245.458C625.095 246.373 624.279 247.091 623.302 247.61C622.337 248.118 621.224 248.371 619.962 248.371C618.725 248.371 617.649 248.136 616.733 247.666C615.818 247.184 615.045 246.503 614.414 245.625C613.783 244.747 613.276 243.726 612.893 242.563C612.521 241.388 612.243 240.108 612.058 238.723V237.479C612.243 236.007 612.521 234.672 612.893 233.472C613.276 232.259 613.783 231.214 614.414 230.336C615.045 229.445 615.812 228.759 616.715 228.276C617.63 227.794 618.7 227.553 619.925 227.553C621.199 227.553 622.318 227.794 623.283 228.276C624.26 228.759 625.083 229.451 625.751 230.354C626.419 231.257 626.92 232.334 627.254 233.583C627.588 234.832 627.755 236.224 627.755 237.758ZM622.838 238.147V237.758C622.838 236.867 622.757 236.045 622.597 235.29C622.436 234.523 622.188 233.855 621.854 233.286C621.521 232.705 621.088 232.253 620.556 231.932C620.024 231.61 619.381 231.449 618.626 231.449C617.871 231.449 617.222 231.573 616.678 231.82C616.133 232.068 615.688 232.42 615.342 232.878C614.995 233.336 614.723 233.88 614.525 234.511C614.34 235.129 614.216 235.816 614.154 236.57V239.65C614.266 240.566 614.482 241.388 614.804 242.118C615.125 242.848 615.595 243.429 616.214 243.862C616.845 244.295 617.661 244.512 618.663 244.512C619.418 244.512 620.061 244.345 620.593 244.011C621.125 243.677 621.558 243.219 621.892 242.638C622.226 242.044 622.467 241.364 622.615 240.597C622.764 239.83 622.838 239.013 622.838 238.147ZM642.395 243.732V234.474C642.395 233.793 642.277 233.206 642.042 232.711C641.807 232.216 641.448 231.833 640.966 231.561C640.483 231.288 639.871 231.152 639.129 231.152C638.473 231.152 637.898 231.264 637.403 231.486C636.921 231.709 636.55 232.024 636.29 232.433C636.03 232.828 635.9 233.286 635.9 233.806H630.983C630.983 232.977 631.181 232.191 631.577 231.449C631.973 230.695 632.536 230.027 633.266 229.445C634.008 228.852 634.892 228.388 635.919 228.054C636.958 227.72 638.121 227.553 639.407 227.553C640.929 227.553 642.283 227.812 643.471 228.332C644.671 228.839 645.611 229.606 646.291 230.633C646.984 231.66 647.33 232.952 647.33 234.511V243.269C647.33 244.271 647.392 245.13 647.516 245.848C647.652 246.553 647.85 247.165 648.109 247.685V248H643.118C642.883 247.493 642.704 246.85 642.58 246.07C642.456 245.279 642.395 244.499 642.395 243.732ZM643.081 235.772L643.118 238.686H640.02C639.253 238.686 638.578 238.766 637.997 238.927C637.416 239.075 636.939 239.298 636.568 239.595C636.197 239.879 635.919 240.226 635.733 240.634C635.548 241.03 635.455 241.481 635.455 241.988C635.455 242.483 635.566 242.928 635.789 243.324C636.024 243.72 636.358 244.035 636.791 244.271C637.236 244.493 637.756 244.604 638.35 244.604C639.215 244.604 639.97 244.431 640.613 244.085C641.257 243.726 641.757 243.293 642.116 242.786C642.475 242.279 642.667 241.797 642.691 241.339L644.102 243.454C643.928 243.961 643.669 244.499 643.322 245.068C642.976 245.637 642.531 246.169 641.986 246.664C641.442 247.159 640.786 247.567 640.02 247.889C639.253 248.21 638.362 248.371 637.348 248.371C636.049 248.371 634.886 248.111 633.859 247.592C632.833 247.072 632.022 246.361 631.429 245.458C630.835 244.555 630.538 243.528 630.538 242.378C630.538 241.314 630.736 240.374 631.132 239.558C631.528 238.741 632.115 238.055 632.895 237.498C633.674 236.929 634.639 236.502 635.789 236.218C636.952 235.921 638.282 235.772 639.778 235.772H643.081ZM656.552 232.21V248H651.653V227.924H656.255L656.552 232.21ZM655.772 237.238H654.325C654.338 235.779 654.535 234.455 654.919 233.268C655.302 232.08 655.84 231.06 656.533 230.206C657.238 229.353 658.073 228.697 659.038 228.239C660.003 227.782 661.079 227.553 662.267 227.553C663.231 227.553 664.104 227.689 664.883 227.961C665.662 228.233 666.33 228.666 666.887 229.26C667.456 229.854 667.889 230.633 668.186 231.598C668.495 232.55 668.649 233.725 668.649 235.123V248H663.714V235.086C663.714 234.171 663.578 233.447 663.306 232.915C663.046 232.383 662.662 232.006 662.155 231.783C661.66 231.561 661.048 231.449 660.318 231.449C659.564 231.449 658.902 231.604 658.333 231.913C657.776 232.21 657.306 232.624 656.923 233.156C656.552 233.688 656.267 234.3 656.069 234.993C655.871 235.686 655.772 236.434 655.772 237.238ZM678.854 245.773L684.235 227.924H689.486L681.434 251.043C681.248 251.538 681.007 252.076 680.71 252.657C680.425 253.239 680.042 253.789 679.56 254.309C679.077 254.84 678.471 255.273 677.741 255.607C677.024 255.941 676.152 256.108 675.125 256.108C674.68 256.108 674.284 256.077 673.938 256.016C673.591 255.954 673.226 255.873 672.843 255.774V252.101C672.966 252.113 673.109 252.119 673.27 252.119C673.443 252.132 673.591 252.138 673.715 252.138C674.432 252.138 675.026 252.051 675.496 251.878C675.966 251.717 676.343 251.451 676.628 251.08C676.925 250.721 677.172 250.251 677.37 249.67L678.854 245.773ZM676.201 227.924L680.747 242.712L681.545 247.889L678.168 248.501L670.913 227.924H676.201Z" fill="#FFA229"/>
<path d="M709.82 53.1618H671.961C668.236 37.9916 659.532 24.5088 647.239 14.8697C634.947 5.23062 619.777 -0.0078125 604.156 -0.0078125C588.536 -0.0078125 573.366 5.23062 561.074 14.8697C548.781 24.5088 540.076 37.9916 536.351 53.1618H498.469C497.774 53.1618 497.087 53.2997 496.446 53.5677C495.805 53.8357 495.224 54.2283 494.736 54.7228C494.249 55.2173 493.864 55.8038 493.605 56.4482C493.346 57.0926 493.217 57.7821 493.227 58.4765V92.8159C493.227 94.2061 493.779 95.5394 494.762 96.5225C495.745 97.5055 497.079 98.0578 498.469 98.0578H709.82C710.51 98.061 711.194 97.9277 711.833 97.6657C712.472 97.4037 713.053 97.0181 713.542 96.5311C714.031 96.044 714.42 95.465 714.685 94.8275C714.949 94.1899 715.086 93.5063 715.086 92.8159V58.4765C715.092 57.7809 714.961 57.0909 714.699 56.4463C714.437 55.8018 714.05 55.2155 713.561 54.7214C713.071 54.2272 712.488 53.835 711.846 53.5673C711.204 53.2996 710.515 53.1618 709.82 53.1618ZM591.149 40.6395C591.14 38.1827 591.85 35.7771 593.192 33.7188C594.533 31.6605 596.447 30.0394 598.698 29.0552C600.949 28.0709 603.439 27.7665 605.86 28.1794C608.282 28.5922 610.53 29.7043 612.328 31.3788C614.126 33.0532 615.395 35.2169 615.978 37.6033C616.562 39.9898 616.435 42.4948 615.613 44.81C614.791 47.1251 613.31 49.1493 611.352 50.6332C609.394 52.1172 607.044 52.9961 604.593 53.1618H602.895C599.712 52.9583 596.726 51.5504 594.544 49.2243C592.363 46.8983 591.148 43.8287 591.149 40.6395Z" fill="#FFA229"/>
<path d="M698.22 79.9219H589.402C587.258 79.9219 585.52 81.6603 585.52 83.8048V86.5471C585.52 88.6915 587.258 90.4299 589.402 90.4299H698.22C700.365 90.4299 702.103 88.6915 702.103 86.5471V83.8048C702.103 81.6603 700.365 79.9219 698.22 79.9219Z" fill="#FAD282"/>
<path d="M606.684 0.242388C605.835 0.242388 605.034 0.242388 604.257 0.242388C588.646 0.205012 573.472 5.39715 561.156 14.9904C548.84 24.5837 540.092 38.0254 536.307 53.1711H541.306C544.976 38.4452 553.342 25.3148 565.137 15.7654C576.933 6.21608 591.517 0.767078 606.684 0.242388Z" fill="#E0AB67"/>
<path d="M616.39 40.65C616.384 43.5449 615.374 46.348 613.533 48.5824C611.693 50.8167 609.135 52.3444 606.295 52.9054C606.846 53.0317 607.406 53.1209 607.969 53.1724H609.644C612.911 52.97 615.969 51.5015 618.17 49.0792C620.371 46.6569 621.541 43.4717 621.43 40.2007C621.32 36.9297 619.938 33.8308 617.578 31.5627C615.218 29.2946 612.067 28.0362 608.795 28.0549C607.979 28.0632 607.166 28.1526 606.368 28.3218C609.2 28.9128 611.743 30.461 613.568 32.7062C615.394 34.9514 616.39 37.7565 616.39 40.65Z" fill="#E0AB67"/>
<path d="M498.23 92.8078V58.4685C498.236 57.076 498.794 55.7428 499.781 54.7604C500.768 53.778 502.103 53.2265 503.496 53.2266H498.472C497.082 53.2266 495.749 53.7788 494.766 54.7619C493.783 55.7449 493.23 57.0782 493.23 58.4685V92.8078C493.23 94.198 493.783 95.5313 494.766 96.5144C495.749 97.4974 497.082 98.0497 498.472 98.0497H503.496C502.805 98.0529 502.121 97.9197 501.482 97.6577C500.844 97.3957 500.263 97.0101 499.774 96.523C499.284 96.0359 498.896 95.457 498.631 94.8194C498.366 94.1818 498.23 93.4982 498.23 92.8078Z" fill="#E0AB67"/>
<path d="M601.39 28.277C599.699 27.9376 597.956 27.9499 596.27 28.3131C594.584 28.6762 592.99 29.3825 591.589 30.388C590.187 31.3935 589.007 32.6767 588.123 34.1577C587.239 35.6386 586.669 37.2857 586.449 38.9965C586.228 40.7072 586.362 42.445 586.843 44.1017C587.323 45.7584 588.139 47.2986 589.24 48.6263C590.341 49.9541 591.703 51.0411 593.243 51.8196C594.782 52.5981 596.465 53.0516 598.187 53.1518H599.885C600.392 53.1065 600.895 53.0254 601.39 52.9091C598.51 52.3797 595.906 50.8577 594.032 48.6075C592.158 46.3574 591.131 43.5215 591.131 40.593C591.131 37.6645 592.158 34.8287 594.032 32.5786C595.906 30.3284 598.51 28.8063 601.39 28.277Z" fill="#FAD282"/>
<path d="M667.354 53.1549H672.086C668.344 37.991 659.631 24.5175 647.337 14.8845C635.042 5.25137 619.876 0.0138993 604.257 0.0078125C603.456 0.0078125 602.679 0.0078125 601.83 0.0078125C617.053 0.510264 631.694 5.97517 643.524 15.5699C655.353 25.1647 663.721 38.3633 667.354 53.1549Z" fill="#FAD282"/>
<path d="M709.819 53.1563H705.111C705.806 53.1562 706.494 53.2941 707.134 53.5621C707.775 53.8301 708.356 54.2227 708.844 54.7172C709.332 55.2117 709.716 55.7982 709.975 56.4426C710.234 57.087 710.363 57.7765 710.353 58.471V92.8103C710.356 93.4996 710.223 94.1826 709.961 94.8201C709.699 95.4575 709.312 96.0366 708.825 96.524C708.338 97.0114 707.759 97.3974 707.121 97.6597C706.484 97.922 705.801 98.0554 705.111 98.0522H709.819C710.51 98.0554 711.194 97.9222 711.833 97.6602C712.472 97.3982 713.052 97.0126 713.542 96.5255C714.031 96.0384 714.419 95.4595 714.684 94.8219C714.949 94.1843 715.086 93.5007 715.086 92.8103V58.471C715.092 57.7753 714.96 57.0853 714.699 56.4408C714.437 55.7962 714.05 55.21 713.56 54.7158C713.071 54.2216 712.488 53.8294 711.846 53.5617C711.204 53.294 710.515 53.1562 709.819 53.1563Z" fill="#FAD282"/>
<path d="M885.133 90.6406V987.419H858.777L885.133 90.6406Z" fill="#D9D9D9"/>
<g style="mix-blend-mode:multiply">
<path d="M855.768 1061.56C855.768 1072.7 811.236 1081.72 756.269 1081.72C701.301 1081.72 656.77 1072.7 656.77 1061.56C656.77 1050.42 701.301 1041.41 756.269 1041.41C811.236 1041.41 855.768 1050.44 855.768 1061.56Z" fill="#E2E2E2"/>
</g>
<path d="M821.747 528.641C834.051 540.314 844.146 550.288 848.684 555.141C849.533 556.034 850.159 557.115 850.509 558.297C850.859 559.478 850.924 560.725 850.698 561.936C847.301 580.38 815.413 628.771 804.322 646.05L786.121 634.838C786.121 634.838 814.418 573.779 812.962 567.057C812.962 567.057 806.433 562.81 796.653 555.36" fill="#FAC0AC"/>
<path d="M793.69 558.398C781.556 549.176 767.626 531.946 751.973 514.886C748.23 510.781 745.411 505.92 743.708 500.633C742.004 495.345 741.454 489.753 742.096 484.235C743.771 473.63 758.938 476.955 758.938 476.955C776.12 490.618 803.81 511.561 821.744 528.524" fill="#FFA229"/>
<path d="M693.514 643.435L693.441 866.629L715.38 1055L741.177 1053.27L739.672 865.003L797.527 631.398L693.514 643.435Z" fill="#1C4670"/>
<path d="M745.396 648.484L777.649 879.104L832.398 1055.24L846.619 1039.3L819.511 874.08L808.809 688.697L805.994 652.828L745.396 648.484Z" fill="#1C4670"/>
<path d="M714.917 1047.06C712.344 1047.06 689.896 1059 677.35 1065.77C676.773 1066.08 676.309 1066.56 676.026 1067.15C675.742 1067.74 675.653 1068.41 675.772 1069.05C675.891 1069.69 676.211 1070.28 676.687 1070.73C677.162 1071.18 677.768 1071.47 678.417 1071.55L709.553 1075.58L720.061 1073.51C721.287 1073.27 722.551 1073.29 723.771 1073.56C724.991 1073.83 726.141 1074.35 727.148 1075.09L730.667 1077.69C731.461 1078.27 732.426 1078.57 733.409 1078.54L737.801 1078.37C738.374 1078.35 738.937 1078.22 739.459 1077.98C739.98 1077.74 740.45 1077.4 740.84 1076.98C741.23 1076.57 741.534 1076.07 741.733 1075.54C741.932 1075 742.022 1074.43 742 1073.85L740.786 1043.88L714.917 1047.06Z" fill="#28478F"/>
<path d="M846.596 1038.7C843.417 1038.7 809.199 1046.76 795.367 1050.06C794.978 1050.16 794.629 1050.37 794.371 1050.68C794.112 1050.98 793.957 1051.36 793.927 1051.76C793.897 1052.16 793.995 1052.56 794.206 1052.9C794.416 1053.24 794.729 1053.5 795.1 1053.65L816.941 1062.56L824.974 1062.85C826.431 1062.89 827.846 1063.35 829.05 1064.17C830.255 1064.99 831.198 1066.14 831.769 1067.49C832.034 1068.08 832.509 1068.55 833.103 1068.82L835.53 1069.91C836.37 1070.3 837.305 1070.45 838.224 1070.32L847.713 1069.16C849.012 1069 850.196 1068.33 851.012 1067.31C851.828 1066.28 852.212 1064.98 852.081 1063.67L846.596 1038.7Z" fill="#28478F"/>
<path d="M468.498 443.521L515.505 409.594L529.969 424.422L482.234 458.882L468.498 443.521Z" fill="#28478F"/>
<path d="M466.146 446.258L458.672 465.138L479.009 460.382L466.146 446.258Z" fill="#FAC0AC"/>
<path d="M486.847 449.037C487.408 451.211 487.299 453.503 486.532 455.613C485.765 457.723 484.378 459.551 482.552 460.857C480.726 462.163 478.548 462.885 476.304 462.929C474.059 462.973 471.854 462.337 469.979 461.104C468.103 459.87 466.645 458.098 465.796 456.02C464.947 453.942 464.747 451.655 465.223 449.462C465.699 447.268 466.828 445.269 468.461 443.73C470.094 442.19 472.155 441.18 474.373 440.835C477.114 440.282 479.962 440.833 482.298 442.369C484.634 443.905 486.269 446.302 486.847 449.037Z" fill="#28478F"/>
<path d="M533.636 415.229C534.193 417.403 534.078 419.694 533.308 421.802C532.537 423.909 531.147 425.734 529.319 427.036C527.492 428.339 525.313 429.057 523.069 429.098C520.826 429.139 518.622 428.499 516.749 427.264C514.876 426.028 513.421 424.255 512.574 422.176C511.728 420.098 511.531 417.812 512.009 415.619C512.486 413.427 513.616 411.43 515.25 409.892C516.884 408.354 518.945 407.346 521.163 407.002C523.907 406.443 526.762 406.995 529.1 408.537C531.438 410.079 533.069 412.486 533.636 415.229Z" fill="#FAC0AC"/>
<path d="M527.226 415.683C527.427 416.48 527.382 417.32 527.097 418.091C526.812 418.862 526.3 419.529 525.629 420.004C524.958 420.479 524.16 420.741 523.338 420.754C522.516 420.767 521.709 420.531 521.023 420.078C520.338 419.624 519.805 418.974 519.495 418.213C519.186 417.451 519.114 416.614 519.289 415.81C519.463 415.007 519.877 414.275 520.475 413.711C521.073 413.147 521.828 412.777 522.64 412.65C523.14 412.547 523.656 412.544 524.157 412.641C524.659 412.738 525.136 412.933 525.563 413.215C525.989 413.496 526.355 413.859 526.64 414.283C526.926 414.707 527.125 415.182 527.226 415.683Z" fill="#28478F"/>
<path d="M460.566 460.328L458.648 465.182L464.157 463.896C462.674 463.034 461.437 461.806 460.566 460.328Z" fill="#28478F"/>
<path d="M509.074 436.044C507.902 436.282 506.689 436.215 505.55 435.85C504.411 435.484 503.385 434.833 502.57 433.957C496.6 427.526 492.693 419.906 489.271 421.556C485.34 423.425 487.743 425.512 484.418 427.939C483.35 428.691 479.928 427.939 479.224 430.608C478.521 433.278 478.448 435.899 475.973 437.889C473.497 439.879 474.953 446.116 475.803 448.251C477.052 450.417 478.632 452.374 480.486 454.051C485.519 459.132 491.485 463.195 498.057 466.016C504.56 468.612 511.064 461.526 515.044 454.755C518.102 449.635 515.432 435.025 515.432 435.025C513.167 435.349 511.048 435.689 509.074 436.044Z" fill="#FAC0AC"/>
<path d="M490.121 421.372L500.411 420.547L494.319 424.915L490.121 421.372Z" fill="#FAC0AC"/>
<path d="M654.636 426.312L649.54 438.665C649.364 439.222 649.416 439.825 649.685 440.344C649.953 440.862 650.416 441.253 650.971 441.432L656.48 443.252L654.636 426.312Z" fill="#FAC0AC"/>
<path d="M593.625 533.885L673.71 552.547C682.616 553.882 679.17 487.703 679.17 487.703L636.434 493.115L604.449 491.902" fill="#FFA229"/>
<path d="M680.091 487.602L680.527 487.335C684.58 484.908 681.619 451.952 676.645 443.943L705.111 392.641C706.715 414.182 710.216 435.539 715.571 456.466C716.9 460.562 719.045 464.348 721.877 467.592C724.709 470.837 728.169 473.475 732.049 475.346" fill="#FAC0AC"/>
<path d="M692.689 458.6L696.766 437.633C696.766 437.633 690.044 451.66 689.971 452.461C689.899 453.261 682.351 459.741 681.162 460.809C682.109 467.951 682.49 475.157 682.303 482.359L692.689 458.6Z" fill="#E69E96"/>
<path d="M659.125 462.921C659.257 463.915 659.714 464.838 660.425 465.544C661.136 466.251 662.062 466.703 663.057 466.828C685.941 469.109 717.684 430.159 714.408 406.886C712.782 395.189 699.847 391.427 687.713 390.214C668.93 388.345 654.805 387.787 653.301 421.762C653.277 422.029 659.125 462.921 659.125 462.921Z" fill="#FAC0AC"/>
<path d="M655.871 403.937L653.153 399.544C651.775 397.336 651.065 394.776 651.107 392.174C651.149 389.571 651.942 387.036 653.39 384.873C654.838 382.71 656.88 381.011 659.27 379.98C661.66 378.949 664.297 378.631 666.864 379.062C696.811 384.158 722.317 392.312 722.098 406.582C721.443 445.411 716.298 455.749 716.298 455.749C716.298 455.749 699.772 464.825 695.743 432.209C682.687 442.596 676.717 409.834 676.717 409.834C676.159 404.713 663.248 405.66 655.871 403.937Z" fill="black"/>
<path d="M698.756 434.995C697.033 439.582 692.762 442.276 689.267 441.135C685.773 439.994 684.414 435.262 686.088 430.676C687.763 426.089 692.083 423.395 695.577 424.56C699.072 425.725 700.504 430.433 698.756 434.995Z" fill="#FAC0AC"/>
<path d="M604.4 491.91L578.725 487.251L507.935 448.422L488.666 459.1L573.24 523.119L595.3 529.089L604.4 491.91Z" fill="#FAC0AC"/>
<path d="M657.207 532.701C656.479 513.553 649.15 496.153 653.008 494.454C653.008 494.454 678.005 484.116 682.324 482.053C682.324 482.053 717.052 479.457 723.313 469.312C723.313 469.312 757.919 474.749 759.181 477.515C778.305 518.916 776.654 530.517 776.654 530.517L789.783 588.76L808.373 653.701C795.559 662.001 726.395 680.396 694.021 678.697C694.021 678.697 688.513 616.571 686.595 606.427C686.595 606.476 657.838 549.446 657.207 532.701Z" fill="#FFA229"/>
<g style="mix-blend-mode:multiply" opacity="0.16">
<path d="M193.518 1057.49C193.518 1065.23 153.16 1071.79 103.265 1072.05C53.3695 1072.32 12.8904 1066.35 12.8418 1058.59C12.7933 1050.82 53.1997 1044.29 103.095 1044.02C152.99 1043.76 193.469 1049.73 193.518 1057.49Z" fill="#6C467A"/>
</g>
<path d="M162.235 567.711C162.235 567.711 165.002 608.967 164.177 620.834C164.177 620.834 173.326 747.028 156.12 709.388L153.11 697.739C153.11 697.739 140.127 671.36 148.257 627.726L141.098 575.38L162.235 567.711Z" fill="#FAC0AC"/>
<path d="M133.842 595.729C133.842 595.729 156.581 772.886 160.925 843.094C161.459 851.636 156.533 862.096 152.868 869.789L150.442 881.51C149.471 893.013 142.821 929.464 140.734 940.821L125.591 1013.33L140.516 1039.91L128.382 1045.15L104.114 1018.46C104.114 1018.46 110.278 1007.61 107.414 962.905C104.648 920.096 97.974 881.68 106.055 864.328C119.184 836.226 108.482 804.799 102.536 787.399C87.9756 745.755 26.9899 670.912 79.1178 594.734L133.842 595.729Z" fill="#FAC0AC"/>
<path d="M119.206 493.752C106.272 488.899 109.499 482.322 109.815 477.056C110.616 461.039 105.641 444.731 110.203 433.664L85.5223 422.695C85.5223 422.695 88.8956 434.441 82.7072 474.459C81.2754 483.705 65.04 493.874 63.2927 494.796C53.5855 500.28 69.7481 555.636 119.425 528.286L120.032 527.922C130.127 522.291 128.719 497.368 119.206 493.752Z" fill="#FAC0AC"/>
<path d="M110.23 473.319C109.988 469.922 110.958 468.83 110.619 465.238C98.1692 463.345 88.0979 452.716 83.9238 450.07C83.9238 451.357 84.5548 460.967 84.4335 462.204C88.7289 469.072 96.2035 478.804 109.575 479.726C109.575 479.799 110.279 474.144 110.23 473.319Z" fill="#E69E96"/>
<path d="M158.933 1049.44C147.649 1046.07 141.946 1041.87 140.174 1039.08C140.732 1041.5 129.108 1040.27 119.595 1035.29C119.595 1035.29 106.612 1016.7 104.185 1018.57C98.3846 1041.96 102.316 1027.28 107.801 1059.83H113.188L114.838 1052.96C114.838 1052.96 120.808 1052.96 130.516 1059.97C140.223 1066.98 171.48 1061.21 171.48 1061.21C177.28 1057.76 171.116 1053.08 158.933 1049.44Z" fill="#526080"/>
<path d="M135.273 619.719C135.273 619.719 120.397 795.274 118.892 852.522L110.155 882.008C108.675 893.463 98.2641 944.11 95.5946 955.346L76.4713 1023.71L87.8288 1050.84L75.4763 1055.5L57.615 1022.64C57.615 1022.64 60.4301 1022.5 61.0126 984.007C61.6435 941.101 57.9062 906.907 66.7884 889.968C81.1793 862.497 66.7884 814.567 61.595 796.924C49.0727 754.649 40.7973 668.546 65.5022 626.344L135.273 619.719Z" fill="#FAC0AC"/>
<path d="M103.894 1064.6C93.5797 1058.88 88.9203 1053.54 87.804 1050.43C87.804 1052.86 76.7377 1049.19 68.5351 1042.28C68.5351 1042.28 59.8714 1021.33 57.1048 1022.64C46.3783 1044.22 54.945 1036.21 53.2705 1069.17L60.1383 1068.75V1058.46C60.1383 1058.46 65.9627 1059.7 73.8983 1068.71C81.834 1077.71 113.649 1078.75 113.649 1078.75C119.983 1076.69 114.984 1070.79 103.894 1064.6Z" fill="#526080"/>
<path d="M159.881 554.518C157.77 551.048 151.921 526.076 149.033 513.796C148.395 510.108 146.588 506.722 143.879 504.14C141.169 501.557 137.701 499.914 133.987 499.454C128.939 498.823 123.26 495.158 119.062 492.95C116.805 499.648 96.5412 503.264 84.2615 496.08L72.2731 488.023C56.1106 498.968 57.7123 496.687 53.9022 499.891C35.2886 515.665 34.4877 517.873 49.8009 557.285L60.6487 578.519C63.8521 602.787 52.8101 682.386 52.8101 682.386C104.04 706.048 145.344 686.342 154.154 640.403L151.217 591.527C160.609 585.314 169.855 570.68 159.881 554.518Z" fill="#FFA229"/>
<path d="M124.159 409.279C124.159 409.279 128.042 414.594 127.022 426.412C127.543 432.585 128.394 438.726 129.571 444.808C130.323 463.688 118.043 475.531 113.578 475.434C108.974 475.214 104.458 474.085 100.293 472.11C96.1276 470.136 92.3947 467.356 89.3098 463.931C80.1122 454.054 76.9331 415.395 87.0771 407.459C102.9 394.985 119.329 402.703 124.159 409.279Z" fill="#FAC0AC"/>
<path d="M55.0426 642.129C55.0426 642.129 33.2013 711.779 58.1003 853.528C58.1003 853.528 85.9601 874.545 168.569 851.539C168.569 851.539 185.192 685.375 154.008 640.406C154.081 640.406 128.599 651.157 55.0426 642.129Z" fill="#1C4670"/>
<path d="M156.469 561.85L77.6072 531.768C76.643 531.4 75.5632 531.883 75.1953 532.847L34.6468 639.145C34.279 640.109 34.7625 641.189 35.7267 641.557L114.588 671.64C115.552 672.007 116.632 671.524 117 670.56L157.549 564.262C157.916 563.298 157.433 562.218 156.469 561.85Z" fill="#EDEDED"/>
<path d="M86.4707 621.858C86.4707 621.858 93.4114 614.699 97.8282 614.577C102.245 614.456 110.423 613.534 111.297 615.232C112.462 617.441 106.443 618.727 99.8909 619.407L86.4707 621.858Z" fill="#FAC0AC"/>
<path d="M94.0671 617.82C94.0671 617.82 110.812 621.194 113.336 622.31C113.963 622.549 114.508 622.965 114.903 623.508C115.299 624.05 115.529 624.696 115.565 625.366C115.6 626.037 115.441 626.703 115.106 627.285C114.771 627.867 114.274 628.339 113.676 628.644C112.317 629.348 115.375 631.993 111.759 634.735C109.502 636.458 111.467 637.162 110.011 639.128C108.846 640.681 105.692 640.147 105.158 642.04C104.381 645.534 101.008 644.273 98.4597 644.467C95.9115 644.661 86.6411 642.307 80.4528 634.954C72.4686 625.416 94.0671 617.82 94.0671 617.82Z" fill="#FAC0AC"/>
<path d="M10.2694 573.781C2.2609 593.948 -2.37431 600.088 1.24163 609.48C5.17306 619.624 97.2461 643.455 109.113 639.572L112.681 628.384C109.118 626.088 105.074 624.643 100.862 624.162C81.8116 621.177 56.0147 595.817 36.94 591.157C36.94 591.157 39.7793 589.094 47.9819 577.276" fill="#FAC0AC"/>
<path d="M41.6226 587.934C51.3298 571.189 68.3175 547.042 71.6422 532.263C81.8591 485.401 47.0101 496.88 39.3899 516.367C30.0467 540.247 14.0055 560.972 8.59375 574.61L41.6226 587.934Z" fill="#FFA229"/>
<path d="M140.348 516.562L146.997 537.7L156.365 549.98" stroke="#28478F" stroke-width="0.5" stroke-miterlimit="10" stroke-linecap="round"/>
<path d="M125.154 428.305C127.658 433.996 131.049 439.255 135.201 443.885C137.239 445.996 130.347 452.087 127.459 452.209C121.101 452.451 125.154 428.305 125.154 428.305Z" fill="#FAC0AC"/>
<path d="M107.853 621.195C107.853 621.195 117.56 622.918 118.361 622.918C119.161 622.918 126.903 622.166 127.655 622.166C129.67 622.166 128.675 626.34 123.675 627.02C118.676 627.699 116.395 629.446 112.124 628.597C106.542 627.554 107.853 621.195 107.853 621.195Z" fill="#FAC0AC"/>
<path d="M104.067 627.664C104.067 627.664 118.312 628.465 119.186 628.368C120.059 628.271 129.209 626.548 130.082 626.475C132.509 626.281 131.757 630.48 125.884 631.717C120.011 632.955 114.89 634.629 109.891 634.411C109.04 634.43 108.194 634.261 107.416 633.915C106.637 633.569 105.945 633.056 105.388 632.411C104.832 631.766 104.424 631.006 104.196 630.186C103.968 629.365 103.923 628.504 104.067 627.664Z" fill="#FAC0AC"/>
<path d="M75.4529 409.422C77.3023 405.795 77.9213 401.664 77.2165 397.654C76.5117 393.644 74.5212 389.972 71.5458 387.193C62.6394 379.208 45.8459 382.339 40.9923 393.041C39.2185 397.549 39.2214 402.562 41.0006 407.067C42.7797 411.573 46.2024 415.235 50.5774 417.315C54.9524 419.395 59.9536 419.736 64.5708 418.271C69.1881 416.806 73.0773 413.644 75.4529 409.422Z" fill="#10233C"/>
<path d="M90.5264 438.666C92.5188 431.843 92.4089 424.578 90.2109 417.819C90.2109 417.819 105.354 401.924 122.949 407.772C122.949 407.772 94.1181 385.227 75.8685 403.817C57.6189 422.406 61.9386 448.421 84.7506 461.114L90.5264 438.666Z" fill="#10233C"/>
<path d="M79.6739 449.748C82.6831 454.213 87.6823 455.887 90.8372 453.461C93.992 451.034 94.0648 445.476 91.0313 441.011C87.9978 436.546 83.0229 434.896 79.868 437.298C76.7132 439.701 76.6403 445.282 79.6739 449.748Z" fill="#FAC0AC"/>
<path d="M102.928 917.395L110.208 893.928C114.5 889.768 117.72 884.631 119.593 878.954C121.465 873.278 121.934 867.233 120.959 861.336" stroke="#28478F" stroke-width="0.5" stroke-miterlimit="10" stroke-linecap="round"/>
<path d="M54.3906 566.829L62.5204 546.273" stroke="#28478F" stroke-width="0.5" stroke-miterlimit="10" stroke-linecap="round"/>
</g>
<defs>
<clipPath id="clip0_564_662">
<rect width="1080" height="1080" fill="white" transform="translate(1080 1080) rotate(180)"/>
</clipPath>
</defs>
</svg>
