<svg width="1000" height="984" viewBox="0 0 1000 984" fill="none" xmlns="http://www.w3.org/2000/svg">
<g clip-path="url(#clip0_21_3229)">
<rect width="1000" height="984" fill="white"/>
<path d="M922.227 943.166C922.227 943.166 1105.24 662.312 910.942 585.496C862.003 566.147 844.928 295.268 627.543 430.707C541.089 484.571 416.61 419.39 297.4 455.015C187.921 487.738 185.402 582.118 199.245 616.097C214.37 653.222 154.054 697.606 92.2843 728.095C-4.61477 775.91 66.6349 943.966 158.179 944.766C249.717 945.572 922.227 943.166 922.227 943.166Z" fill="#EAEAEA"/>
<path d="M515.23 581.265L499.305 580.902C504.422 587.532 505.572 593.64 502.386 598.81C499.199 604.085 491.577 608.415 480.2 611.707C488.814 588.788 493.151 564.62 493.151 539.816C493.151 512.045 487.723 485.1 476.968 459.781C466.629 435.295 451.801 413.262 432.908 394.415C414.008 375.515 392.027 360.687 367.542 350.302C342.17 339.599 315.231 334.172 287.506 334.172C259.735 334.172 232.79 339.599 207.418 350.302C204.39 351.604 201.363 352.966 198.441 354.374C198.434 354.381 198.421 354.381 198.414 354.387C189.569 351.69 180.956 349.476 172.646 347.79C130.688 339.275 100.914 345.159 88.8162 364.363C77.307 382.621 83.5739 410.115 106.414 442.17C106.414 442.177 106.407 442.183 106.407 442.183C103.327 447.875 100.557 453.719 97.9984 459.774C96.0681 464.316 94.3427 468.858 92.776 473.505C49.8595 476.063 26.8875 483.613 18.5382 497.297C8.82716 513.222 22.0881 534.587 64.5352 555.371C70.379 558.24 76.6459 561.063 83.2235 563.879C85.4183 583.143 90.3763 601.884 97.9984 619.845C108.337 644.331 123.165 666.364 142.058 685.258C160.958 704.105 182.939 718.932 207.425 729.318C232.796 740.02 259.735 745.448 287.513 745.448C315.238 745.448 342.176 740.02 367.548 729.318C392.034 718.926 414.014 704.105 432.914 685.258C451.292 666.88 465.855 645.475 476.141 621.775C497.077 617.445 510.861 610.656 516.341 601.672C520.135 595.465 519.666 588.577 515.23 581.265ZM466.1 614.94C452.158 617.445 434.779 618.906 414.464 619.118C382.951 619.501 346.758 617.016 308.621 611.985C311.827 604.997 314.974 597.818 318.047 590.474C329.881 594.434 341.37 597.567 352.324 599.795C364.871 602.34 376.327 603.603 386.547 603.603C410.511 603.603 427.672 596.688 436.154 583.229C437.548 581.014 438.685 578.661 439.565 576.175H427.348C427.143 576.545 426.932 576.915 426.707 577.272C420.407 587.268 406.333 592.431 386.574 592.431C377.12 592.431 366.365 591.254 354.538 588.848C344.232 586.759 333.424 583.824 322.278 580.122C325.22 572.764 328.076 565.261 330.839 557.652C338.283 537.126 344.655 516.772 349.812 497.23C373.313 500.694 398.532 502.433 425.332 502.433C442.017 502.433 459.317 501.759 477.193 500.41C479.843 513.275 481.185 526.443 481.185 539.81C481.192 565.862 476.128 591.135 466.1 614.94ZM211.629 716.89C205.686 714.734 202.672 706.207 201.191 699.437C198.844 688.735 198.421 673.695 199.968 655.959C200.748 646.988 202.004 637.449 203.69 627.467C228.037 633.959 252.152 642.308 275.634 652.363C270.345 661.479 264.997 669.941 259.649 677.602C249.462 692.205 239.5 703.477 230.833 710.186C225.346 714.43 217.565 719.045 211.629 716.89ZM281.001 642.81C256.423 632.22 231.157 623.468 205.633 616.712C206.532 612.078 207.517 607.371 208.588 602.585C215.688 604.198 222.88 605.758 230.172 607.265C251.498 611.628 272.771 615.33 293.595 618.325C289.476 626.859 285.265 635.036 281.001 642.81ZM234.879 599.537C226.642 597.838 218.517 596.073 210.538 594.229C214.293 578.594 218.907 562.299 224.295 545.693C252.304 562.907 280.783 576.915 307.755 586.851C304.37 594.929 300.899 602.803 297.35 610.425C276.863 607.496 255.901 603.847 234.879 599.537ZM166.472 388.525C168.257 392.18 170.722 396.709 174.041 401.845C188.201 423.727 206.896 439.586 220.091 449.039C227.667 454.466 235.751 459.497 244.319 464.124C236.498 481.167 229.048 499.359 222.2 518.246C220.924 521.769 219.681 525.28 218.464 528.79C177.551 502.155 142.911 471.594 120.184 442.025C120.184 442.018 120.177 442.018 120.177 442.012C125.869 432.307 132.387 423.125 139.692 414.511C142.72 410.961 145.853 407.517 149.138 404.172C149.608 403.703 150.024 403.286 150.494 402.817C155.59 397.74 160.919 392.974 166.472 388.525ZM341.423 359.015C347.366 361.17 350.38 369.698 351.861 376.467C354.208 387.17 354.631 402.209 353.084 419.945C351.398 439.361 347.505 461.421 341.72 484.902C334.733 483.698 327.904 482.337 321.26 480.81C298.295 475.528 277.352 468.302 258.657 459.226C269.816 435.956 281.616 415.205 293.41 398.295C303.597 383.692 313.559 372.421 322.225 365.711C326.747 362.208 332.829 358.459 338.151 358.459C339.281 358.466 340.378 358.631 341.423 359.015ZM318.074 491.261C324.876 492.841 331.87 494.242 339.017 495.492C333.992 514.392 327.811 534.072 320.599 553.943C317.823 561.605 314.947 569.141 311.986 576.532C284.908 566.59 256.172 552.377 227.924 534.812C229.385 530.542 230.893 526.264 232.446 521.968C239.143 503.504 246.408 485.735 254.03 469.095C273.234 478.397 294.646 485.82 318.074 491.261ZM424.439 402.824C442.242 420.626 456.237 441.351 465.994 464.428C469.478 472.672 472.367 481.1 474.654 489.674C430.006 492.94 389.086 491.915 352.516 486.62C358.32 462.908 362.227 440.597 363.939 420.897C365.829 399.135 365.598 373.366 356.779 358.863C358.822 359.649 360.858 360.469 362.888 361.328C385.965 371.079 406.69 385.021 424.439 402.824ZM287.5 346.071C300.919 346.071 314.114 347.42 327.018 350.104C311.8 356.727 296.265 375.165 284.472 392.068C272.401 409.368 260.35 430.549 248.966 454.248C241.284 450.077 234.019 445.568 227.197 440.729C204.562 424.665 190.997 407.848 183.606 396.57C179.68 390.581 177.035 385.477 175.35 381.815C183.296 376.163 191.652 371.112 200.384 366.71H200.391C203.947 364.911 207.577 363.232 211.259 361.659C211.523 361.547 211.788 361.428 212.059 361.315C212.118 361.289 212.184 361.262 212.244 361.236C213.031 360.905 213.817 360.581 214.604 360.264C214.815 360.178 215.034 360.092 215.238 360.013C238.164 350.771 262.492 346.071 287.5 346.071ZM98.2562 370.312C104.556 360.317 118.63 355.154 138.39 355.154C147.843 355.154 158.598 356.331 170.425 358.737C174.913 359.643 179.501 360.714 184.162 361.943C184.168 361.943 184.168 361.943 184.175 361.943C168.832 370.815 154.738 381.676 142.058 394.408C139.394 397.019 136.836 399.736 134.331 402.553C131.197 405.997 128.222 409.6 125.353 413.255C120.759 419.106 116.528 425.214 112.615 431.474C112.615 431.481 112.608 431.487 112.608 431.487C95.136 405.574 89.8871 383.587 98.2562 370.312ZM108.952 464.428C110.678 460.462 112.449 456.542 114.38 452.734L114.386 452.728C138.317 482.634 173.585 513.208 214.789 539.724C208.945 557.507 203.961 574.985 199.935 591.737C169.955 584.485 142.171 576.274 117.824 567.489C112.707 565.664 107.749 563.78 102.996 561.903C100.18 560.805 97.41 559.655 94.6931 558.511C94.2766 554.333 93.9593 550.103 93.8601 545.878C93.8072 543.842 93.7543 541.859 93.7543 539.823C93.7543 537.476 93.8072 535.07 93.8601 532.723C94.541 515.132 97.5158 497.951 102.738 481.352C103.624 478.536 104.563 475.766 105.607 472.996C106.652 470.114 107.749 467.245 108.952 464.428ZM74.0281 549.21C37.015 531.143 20.0983 513.711 27.6675 501.336C33.7758 491.314 56.0141 484.525 90.0524 482.019C85.8744 496.113 83.3161 510.683 82.3245 525.458C82.0138 529.841 81.8551 534.23 81.8023 538.666V539.816C81.8023 544.252 81.9609 548.694 82.2187 553.077C79.4026 551.821 76.6856 550.519 74.0281 549.21ZM102.11 571.402C107.121 573.28 112.238 575.164 117.513 576.988C141.754 585.39 168.924 593.191 197.991 600.119C196.934 604.826 195.962 609.466 195.069 614.034C192.696 613.459 190.316 612.897 187.936 612.355C147.757 603.206 117.599 601.348 103.624 601.031C100.16 590.599 97.615 579.936 96.002 569.049C98.038 569.835 100.074 570.615 102.11 571.402ZM108.952 615.204C108.509 614.153 108.08 613.096 107.657 612.038C124.653 612.732 152.907 615.528 185.927 623.071C188.32 623.62 190.706 624.188 193.093 624.77C191.275 635.367 189.933 645.494 189.107 655.014C187.54 673.048 187.427 693.838 192.458 708.686C177.148 700.065 163.107 689.409 150.507 676.809C132.704 659 118.716 638.276 108.952 615.204ZM362.888 718.311C338.977 728.438 313.658 733.555 287.5 733.555C267.35 733.555 247.664 730.514 228.757 724.492C243.089 716.982 257.487 699.728 268.573 683.836C274.292 675.639 280.01 666.563 285.649 656.772C318.18 671.507 349.461 689.601 378.846 710.689C373.67 713.459 368.341 716.004 362.888 718.311ZM424.439 676.809C413.73 687.545 401.943 696.879 389.205 704.739C358.339 682.177 325.359 662.867 290.997 647.24C295.723 638.586 300.377 629.444 304.919 619.898C336.366 624.063 366.603 626.568 394.209 627.216C401.415 627.427 408.409 627.427 415.198 627.375C432.789 627.163 448.456 626.119 461.869 624.241C452.475 643.703 439.895 661.353 424.439 676.809Z" fill="#B8C1C9"/>
<path d="M242.936 321.931L194.281 330.188L226.105 307.242L227.943 314.276L239.875 316.114L242.936 321.931Z" fill="#FCD82E"/>
<path d="M194.281 330.189L234.368 308.162L274.151 305.102L194.281 330.189Z" fill="#FFA229"/>
<path d="M226.105 307.243L194.281 330.189L218.456 295L226.105 307.243Z" fill="#FFA229"/>
<path d="M29.2812 440.614L75.3311 458.357L48.6902 429.555L45.4906 436.086L33.4327 435.524L29.2812 440.614Z" fill="#FCD82E"/>
<path d="M75.3318 458.362L40.4076 428.819L2.01953 417.938L75.3318 458.362Z" fill="#FFA229"/>
<path d="M48.6914 429.555L75.3324 458.357L58.614 419.07L48.6914 429.555Z" fill="#FFA229"/>
<path d="M917.227 942.471H15.3477C15.3477 942.471 114.891 876.173 160.676 902.516C206.462 928.86 285.155 896.282 308.491 862.085C331.827 827.888 365.224 911.421 395.652 890.61C426.081 869.8 438.569 782.162 479.02 801.214C519.47 820.266 502.197 926.738 529.426 868.736C556.655 810.74 611.55 778.07 624.309 848.699C637.067 919.327 778.007 834.155 917.227 942.471Z" fill="#D5D6DA"/>
<path d="M756.597 468.68H727.371V491.46H756.597V468.68Z" fill="white"/>
<path d="M775.162 492.221L769.999 512.939H730.309L738.479 482.695C740.714 474.426 748.21 468.688 756.778 468.688C769.1 468.681 778.143 480.263 775.162 492.221Z" fill="#D5D6DA"/>
<path d="M574.506 655.971L597.313 927.147C597.313 927.147 599.699 943.588 587.476 943.614C567.373 943.661 487.411 943.614 487.411 943.614C487.411 943.614 502.542 940.19 502.357 932.495C502.139 923.419 475.703 653.406 475.703 653.406L574.506 655.971Z" fill="#364154"/>
<path d="M580.828 938.692C561.247 938.944 484.881 938.706 480.921 938.692C482.408 938.692 493.898 938.408 495.517 929.768C495.643 929.087 495.715 928.36 495.709 927.573C495.702 925.881 494.77 915.152 493.263 898.804C491.914 884.141 490.103 864.964 488.067 843.737C480.187 761.48 469.055 648.484 469.055 648.484L567.858 651.049L584.06 843.737L587.22 881.345L590.063 915.178L590.658 922.225C590.664 922.225 593.454 938.534 580.828 938.692Z" fill="#FFA229"/>
<path d="M814.455 508.414L758.905 731.55L751.296 762.111L725.422 866.044H244.734L340.1 508.414H814.455Z" fill="#1C4670"/>
<path d="M814.454 508.406L822.156 510.978L735.655 873.811L725.422 866.043L814.454 508.406Z" fill="#364154"/>
<path d="M735.655 873.814H257.929L244.734 866.047H725.422L735.655 873.814Z" fill="#364154"/>
<path d="M567.894 938.805H464.457V943.723H567.894V938.805Z" fill="#364154"/>
<path d="M587.873 873.648L587.225 881.343L587.198 881.628C587.198 881.628 520.008 888.066 493.261 898.802C492.587 891.451 491.793 882.963 490.914 873.648H587.873Z" fill="#364154"/>
<path d="M810.833 513.141L742.281 795.839H269.195L346.018 513.141H810.833Z" fill="#B8C1C9"/>
<path d="M263.346 795.836H269.196L268.026 800.146L262.367 799.505L263.346 795.836Z" fill="#657285"/>
<path d="M815.225 508.406V513.139H810.836L811.98 508.406H815.225Z" fill="#657285"/>
<path d="M307.391 905.771H632.543L741.519 468.688H434.844C423.989 468.688 414.523 476.078 411.899 486.616L307.391 905.771Z" fill="#F4F4F4"/>
<path d="M468.582 502.264L474.264 502.351C475.453 502.37 476.471 502.564 477.317 502.935C478.164 503.307 478.811 503.846 479.258 504.555C479.706 505.264 479.922 506.13 479.906 507.154C479.894 507.963 479.74 508.663 479.444 509.253C479.149 509.843 478.736 510.334 478.207 510.727C477.686 511.12 477.072 511.426 476.367 511.645L475.436 512.103L470.42 512.026L470.434 509.695L474.183 509.752C474.792 509.762 475.298 509.662 475.702 509.453C476.107 509.245 476.412 508.952 476.618 508.576C476.832 508.199 476.942 507.768 476.95 507.281C476.958 506.758 476.864 506.305 476.67 505.923C476.475 505.533 476.175 505.231 475.77 505.017C475.365 504.803 474.851 504.692 474.228 504.682L471.5 504.64L471.296 517.948L468.342 517.903L468.582 502.264ZM477.171 518.038L473.659 510.98L476.785 511.017L480.342 517.937L480.34 518.087L477.171 518.038ZM492.728 515.957L492.692 518.277L484.378 518.149L484.414 515.829L492.728 515.957ZM485.521 502.524L485.281 518.163L482.327 518.118L482.567 502.479L485.521 502.524ZM491.748 509.077L491.713 511.343L484.485 511.232L484.519 508.966L491.748 509.077ZM492.9 502.637L492.864 504.968L484.583 504.841L484.618 502.51L492.9 502.637ZM507.069 510.408L506.976 516.498C506.742 516.788 506.376 517.101 505.876 517.437C505.384 517.773 504.742 518.061 503.951 518.299C503.159 518.53 502.191 518.637 501.045 518.62C500.05 518.605 499.143 518.426 498.324 518.084C497.506 517.735 496.805 517.233 496.22 516.58C495.636 515.926 495.19 515.131 494.882 514.196C494.574 513.26 494.429 512.194 494.447 510.998L494.463 509.967C494.482 508.771 494.648 507.71 494.963 506.784C495.285 505.858 495.734 505.077 496.31 504.441C496.893 503.805 497.584 503.325 498.384 503.001C499.191 502.677 500.089 502.522 501.077 502.537C502.402 502.558 503.487 502.793 504.332 503.243C505.185 503.693 505.834 504.304 506.281 505.077C506.727 505.844 507 506.722 507.1 507.711L504.221 507.667C504.151 507.122 504.001 506.643 503.771 506.231C503.541 505.813 503.209 505.485 502.776 505.249C502.35 505.006 501.793 504.88 501.106 504.869C500.526 504.86 500.012 504.967 499.564 505.189C499.117 505.412 498.74 505.739 498.432 506.171C498.125 506.603 497.887 507.14 497.72 507.782C497.559 508.424 497.473 509.161 497.46 509.991L497.444 511.044C497.431 511.882 497.506 512.628 497.668 513.282C497.83 513.929 498.068 514.477 498.384 514.926C498.706 515.368 499.106 515.707 499.582 515.944C500.066 516.173 500.615 516.293 501.231 516.302C501.79 516.311 502.252 516.271 502.619 516.184C502.993 516.089 503.292 515.976 503.516 515.843C503.74 515.71 503.914 515.58 504.037 515.453L504.082 512.521L500.978 512.474L501.011 510.315L507.069 510.408ZM513.125 502.948L512.885 518.587L509.931 518.541L510.171 502.903L513.125 502.948ZM524.322 514.701C524.326 514.4 524.284 514.131 524.195 513.893C524.112 513.649 523.955 513.428 523.721 513.231C523.495 513.027 523.172 512.829 522.753 512.636C522.34 512.436 521.806 512.227 521.151 512.01C520.424 511.769 519.748 511.501 519.122 511.205C518.496 510.909 517.946 510.567 517.472 510.18C517.006 509.794 516.644 509.351 516.386 508.853C516.129 508.348 516.005 507.766 516.015 507.107C516.025 506.463 516.17 505.877 516.451 505.352C516.738 504.826 517.139 504.377 517.653 504.006C518.167 503.627 518.77 503.339 519.461 503.142C520.158 502.945 520.926 502.853 521.764 502.866C522.924 502.883 523.923 503.11 524.762 503.545C525.607 503.981 526.257 504.564 526.712 505.294C527.166 506.025 527.386 506.841 527.372 507.743L524.429 507.698C524.437 507.211 524.34 506.78 524.138 506.404C523.943 506.029 523.639 505.731 523.227 505.509C522.823 505.288 522.309 505.173 521.686 505.164C521.084 505.154 520.582 505.236 520.178 505.409C519.781 505.582 519.48 505.821 519.275 506.126C519.077 506.431 518.975 506.773 518.969 507.152C518.965 507.439 519.029 507.698 519.161 507.929C519.294 508.153 519.495 508.367 519.764 508.572C520.033 508.769 520.367 508.957 520.765 509.135C521.171 509.306 521.641 509.478 522.175 509.651C523.031 509.922 523.778 510.22 524.418 510.545C525.065 510.87 525.6 511.236 526.023 511.644C526.454 512.052 526.773 512.508 526.98 513.012C527.194 513.517 527.296 514.088 527.287 514.725C527.276 515.398 527.135 515.998 526.861 516.524C526.588 517.049 526.202 517.495 525.702 517.859C525.202 518.224 524.604 518.498 523.906 518.681C523.216 518.863 522.445 518.948 521.592 518.935C520.833 518.924 520.083 518.812 519.341 518.6C518.607 518.381 517.942 518.063 517.347 517.645C516.752 517.221 516.28 516.691 515.932 516.055C515.584 515.412 515.416 514.665 515.429 513.813L518.394 513.858C518.386 514.352 518.458 514.776 518.61 515.129C518.77 515.475 518.995 515.762 519.285 515.988C519.582 516.208 519.931 516.371 520.33 516.477C520.73 516.583 521.162 516.64 521.628 516.647C522.229 516.657 522.724 516.582 523.114 516.423C523.51 516.257 523.807 516.025 524.005 515.728C524.21 515.43 524.316 515.088 524.322 514.701ZM536.454 503.306L536.214 518.945L533.271 518.9L533.511 503.261L536.454 503.306ZM541.309 503.38L541.273 505.711L528.674 505.518L528.71 503.187L541.309 503.38ZM543.275 503.411L548.957 503.498C550.145 503.516 551.163 503.711 552.01 504.082C552.856 504.453 553.503 504.993 553.951 505.702C554.398 506.411 554.614 507.277 554.598 508.301C554.586 509.11 554.432 509.81 554.136 510.399C553.841 510.989 553.429 511.481 552.9 511.874C552.378 512.267 551.765 512.573 551.059 512.791L550.128 513.249L545.112 513.172L545.127 510.841L548.875 510.899C549.484 510.908 549.99 510.809 550.395 510.6C550.799 510.391 551.104 510.099 551.311 509.722C551.524 509.346 551.635 508.914 551.642 508.427C551.65 507.905 551.557 507.452 551.362 507.069C551.167 506.68 550.868 506.378 550.463 506.164C550.058 505.95 549.544 505.838 548.921 505.829L546.193 505.787L545.988 519.095L543.035 519.049L543.275 503.411ZM551.864 519.185L548.351 512.126L551.477 512.164L555.035 519.083L555.032 519.234L551.864 519.185ZM563.442 506.095L558.781 519.291L555.655 519.243L561.738 503.694L563.736 503.725L563.442 506.095ZM566.965 519.417L562.69 506.083L562.458 503.705L564.466 503.736L570.102 519.465L566.965 519.417ZM566.85 513.603L566.815 515.934L558.426 515.805L558.462 513.474L566.85 513.603ZM577.313 503.933L577.073 519.572L574.13 519.527L574.37 503.888L577.313 503.933ZM582.168 504.008L582.132 506.338L569.533 506.145L569.568 503.814L582.168 504.008ZM587.28 504.086L587.04 519.725L584.086 519.68L584.326 504.041L587.28 504.086ZM603.02 511.751L603.008 512.557C602.989 513.739 602.816 514.799 602.486 515.74C602.156 516.673 601.697 517.465 601.107 518.114C600.516 518.764 599.818 519.259 599.01 519.597C598.203 519.936 597.309 520.097 596.328 520.082C595.361 520.068 594.476 519.878 593.672 519.515C592.875 519.152 592.189 518.636 591.612 517.969C591.035 517.301 590.592 516.496 590.284 515.553C589.977 514.602 589.832 513.537 589.85 512.355L589.862 511.549C589.88 510.361 590.058 509.3 590.395 508.367C590.731 507.434 591.195 506.642 591.785 505.992C592.375 505.335 593.074 504.838 593.881 504.499C594.696 504.161 595.586 503.999 596.553 504.014C597.534 504.029 598.423 504.218 599.219 504.581C600.016 504.944 600.699 505.463 601.269 506.138C601.846 506.806 602.285 507.611 602.586 508.554C602.893 509.497 603.038 510.563 603.02 511.751ZM600.022 512.511L600.034 511.684C600.047 510.832 599.98 510.083 599.832 509.436C599.685 508.782 599.461 508.23 599.159 507.782C598.858 507.333 598.484 506.994 598.036 506.765C597.589 506.529 597.082 506.407 596.516 506.398C595.943 506.389 595.433 506.496 594.986 506.718C594.546 506.934 594.168 507.261 593.853 507.7C593.539 508.139 593.294 508.684 593.119 509.333C592.952 509.975 592.862 510.722 592.849 511.574L592.836 512.401C592.823 513.246 592.89 513.995 593.038 514.649C593.192 515.304 593.42 515.859 593.721 516.314C594.029 516.763 594.404 517.106 594.844 517.341C595.285 517.577 595.791 517.7 596.364 517.709C596.937 517.717 597.447 517.611 597.895 517.388C598.342 517.166 598.72 516.835 599.027 516.396C599.342 515.949 599.583 515.402 599.751 514.752C599.918 514.103 600.009 513.356 600.022 512.511ZM618.203 504.561L617.963 520.2L614.999 520.154L608.517 509.204L608.35 520.052L605.396 520.007L605.636 504.368L608.59 504.413L615.094 515.375L615.26 504.516L618.203 504.561ZM629.836 504.739L629.596 520.378L626.642 520.333L626.882 504.694L629.836 504.739ZM645.593 504.981L645.353 520.62L642.388 520.575L635.906 509.624L635.739 520.472L632.786 520.427L633.026 504.788L635.98 504.834L642.483 515.795L642.65 504.936L645.593 504.981Z" fill="#1C4670"/>
<path d="M505.545 529.209L500.884 542.405L497.758 542.357L503.842 526.808L505.839 526.839L505.545 529.209ZM509.069 542.531L504.793 529.197L504.561 526.819L506.57 526.85L512.205 542.579L509.069 542.531ZM508.954 536.717L508.918 539.048L500.529 538.919L500.565 536.588L508.954 536.717ZM522.563 527.096L525.517 527.141L525.357 537.527C525.339 538.723 525.066 539.725 524.538 540.534C524.01 541.335 523.299 541.936 522.404 542.338C521.51 542.733 520.497 542.921 519.366 542.904C518.22 542.886 517.203 542.667 516.314 542.245C515.425 541.816 514.733 541.193 514.237 540.376C513.741 539.551 513.502 538.542 513.521 537.346L513.68 526.959L516.634 527.005L516.475 537.391C516.463 538.121 516.576 538.721 516.812 539.19C517.049 539.652 517.387 539.998 517.828 540.227C518.268 540.455 518.793 540.574 519.401 540.584C520.017 540.593 520.545 540.49 520.986 540.275C521.433 540.06 521.778 539.725 522.022 539.27C522.265 538.809 522.392 538.212 522.404 537.482L522.563 527.096ZM536.327 538.888C536.332 538.588 536.289 538.318 536.2 538.081C536.118 537.836 535.96 537.615 535.726 537.418C535.5 537.214 535.178 537.016 534.758 536.823C534.346 536.623 533.812 536.414 533.156 536.197C532.429 535.956 531.753 535.688 531.127 535.392C530.501 535.096 529.952 534.754 529.478 534.368C529.011 533.981 528.649 533.538 528.391 533.04C528.134 532.535 528.011 531.953 528.021 531.294C528.031 530.65 528.176 530.065 528.456 529.539C528.743 529.013 529.144 528.565 529.658 528.193C530.173 527.814 530.775 527.526 531.466 527.329C532.163 527.132 532.931 527.04 533.769 527.053C534.929 527.071 535.928 527.297 536.767 527.733C537.612 528.168 538.262 528.751 538.717 529.481C539.171 530.212 539.391 531.028 539.377 531.93L536.434 531.885C536.442 531.398 536.345 530.967 536.143 530.592C535.948 530.216 535.645 529.918 535.233 529.697C534.828 529.475 534.314 529.36 533.691 529.351C533.089 529.341 532.587 529.423 532.183 529.596C531.786 529.769 531.485 530.008 531.28 530.313C531.082 530.618 530.98 530.96 530.974 531.339C530.97 531.626 531.034 531.885 531.167 532.116C531.299 532.34 531.5 532.554 531.769 532.759C532.038 532.957 532.372 533.144 532.77 533.322C533.176 533.493 533.646 533.665 534.181 533.838C535.036 534.109 535.783 534.407 536.423 534.732C537.07 535.057 537.605 535.423 538.028 535.831C538.459 536.239 538.778 536.695 538.985 537.199C539.199 537.704 539.302 538.275 539.292 538.912C539.281 539.585 539.14 540.185 538.867 540.711C538.594 541.237 538.207 541.682 537.707 542.047C537.208 542.411 536.609 542.685 535.911 542.868C535.221 543.051 534.45 543.135 533.598 543.122C532.839 543.111 532.088 542.999 531.347 542.787C530.612 542.568 529.947 542.25 529.352 541.832C528.757 541.408 528.285 540.878 527.937 540.242C527.589 539.599 527.421 538.852 527.434 538L530.399 538.045C530.391 538.539 530.463 538.963 530.616 539.316C530.775 539.663 531 539.949 531.29 540.175C531.587 540.395 531.936 540.558 532.335 540.664C532.735 540.771 533.167 540.827 533.633 540.834C534.234 540.844 534.73 540.769 535.119 540.61C535.515 540.444 535.812 540.213 536.01 539.915C536.216 539.617 536.321 539.275 536.327 538.888ZM548.459 527.493L548.219 543.132L545.276 543.087L545.516 527.448L548.459 527.493ZM553.314 527.568L553.278 529.898L540.679 529.705L540.715 527.374L553.314 527.568ZM555.28 527.598L560.962 527.685C562.15 527.703 563.168 527.898 564.015 528.269C564.861 528.64 565.508 529.18 565.956 529.889C566.403 530.598 566.619 531.464 566.604 532.488C566.591 533.297 566.437 533.997 566.142 534.587C565.846 535.177 565.434 535.668 564.905 536.061C564.383 536.454 563.77 536.76 563.065 536.978L562.134 537.437L557.118 537.36L557.132 535.028L560.88 535.086C561.489 535.095 561.996 534.996 562.4 534.787C562.804 534.578 563.109 534.286 563.316 533.909C563.529 533.533 563.64 533.101 563.647 532.614C563.655 532.092 563.562 531.639 563.367 531.257C563.173 530.867 562.873 530.565 562.468 530.351C562.063 530.137 561.549 530.025 560.926 530.016L558.198 529.974L557.994 543.282L555.04 543.237L555.28 527.598ZM563.869 543.372L560.357 536.313L563.482 536.351L567.04 543.27L567.037 543.421L563.869 543.372ZM575.447 530.282L570.786 543.478L567.66 543.43L573.743 527.881L575.741 527.912L575.447 530.282ZM578.971 543.604L574.695 530.27L574.463 527.892L576.472 527.923L582.107 543.652L578.971 543.604ZM578.856 537.79L578.82 540.121L570.431 539.992L570.467 537.661L578.856 537.79ZM593.678 541.509L593.643 543.829L585.78 543.708L585.816 541.388L593.678 541.509ZM586.912 528.083L586.672 543.722L583.718 543.677L583.958 528.038L586.912 528.083ZM599.006 528.269L598.766 543.908L595.812 543.862L596.052 528.224L599.006 528.269ZM608.572 530.79L603.911 543.987L600.785 543.939L606.868 528.39L608.866 528.42L608.572 530.79ZM612.096 544.112L607.82 530.779L607.588 528.401L609.597 528.432L615.232 544.16L612.096 544.112ZM611.981 538.298L611.945 540.629L603.556 540.5L603.592 538.17L611.981 538.298Z" fill="#FFA229"/>
<path d="M422.137 670.124H637.532C640.203 670.124 642.933 667.942 643.594 665.272L644.05 663.454C644.718 660.783 643.078 658.602 640.407 658.602H425.012C422.342 658.602 419.611 660.783 418.95 663.454L418.494 665.272C417.833 667.942 419.473 670.124 422.137 670.124Z" fill="#1C4670"/>
<path d="M441.299 593.272H656.695C659.365 593.272 662.095 591.091 662.757 588.42L663.213 586.602C663.88 583.932 662.241 581.75 659.57 581.75H444.175C441.504 581.75 438.774 583.932 438.113 586.602L437.657 588.42C436.989 591.084 438.629 593.272 441.299 593.272Z" fill="#1C4670"/>
<path d="M434.643 619.968H650.038C652.709 619.968 655.439 617.786 656.1 615.115L656.556 613.298C657.224 610.627 655.585 608.445 652.914 608.445H437.519C434.848 608.445 432.118 610.627 431.457 613.298L431.001 615.115C430.333 617.786 431.972 619.968 434.643 619.968Z" fill="#1C4670"/>
<path d="M428.389 645.046H643.784C646.455 645.046 649.185 642.864 649.846 640.194L650.302 638.376C650.97 635.705 649.331 633.523 646.66 633.523H431.265C428.594 633.523 425.864 635.705 425.203 638.376L424.747 640.194C424.079 642.864 425.718 645.046 428.389 645.046Z" fill="#1C4670"/>
<path d="M409.397 721.241H624.792C627.463 721.241 630.193 719.06 630.854 716.389L631.31 714.571C631.978 711.9 630.339 709.719 627.668 709.719H412.266C409.595 709.719 406.865 711.9 406.204 714.571L405.748 716.389C405.087 719.06 406.726 721.241 409.397 721.241Z" fill="#1C4670"/>
<path d="M415.651 696.163H631.046C633.717 696.163 636.447 693.982 637.108 691.311L637.564 689.493C638.232 686.822 636.593 684.641 633.922 684.641H418.52C415.849 684.641 413.119 686.822 412.458 689.493L412.002 691.311C411.341 693.982 412.98 696.163 415.651 696.163Z" fill="#1C4670"/>
<path d="M390.653 800.052H442.97C446.143 800.052 449.382 797.461 450.169 794.288C450.962 791.121 449.012 788.523 445.839 788.523H393.522C390.349 788.523 387.11 791.115 386.323 794.288C385.537 797.461 387.48 800.052 390.653 800.052Z" fill="#1C4670"/>
<path d="M550.915 800.052H603.231C606.404 800.052 609.644 797.461 610.43 794.288C611.224 791.121 609.273 788.523 606.1 788.523H553.784C550.61 788.523 547.371 791.115 546.585 794.288C545.798 797.461 547.748 800.052 550.915 800.052Z" fill="#1C4670"/>
<path d="M435.651 862.11H359.364C357.354 862.11 355.635 861.33 354.525 859.909C353.368 858.434 353.024 856.464 353.546 854.375L359.046 832.316C360.091 828.131 364.341 824.727 368.533 824.727H444.826C446.836 824.727 448.555 825.507 449.665 826.928C450.822 828.402 451.166 830.372 450.644 832.461L445.144 854.521C444.093 858.705 439.842 862.11 435.651 862.11ZM368.526 825.341C364.606 825.341 360.613 828.534 359.635 832.461L354.135 854.521C353.659 856.425 353.969 858.203 355.007 859.532C355.999 860.801 357.546 861.495 359.364 861.495H435.657C439.577 861.495 443.57 858.302 444.549 854.375L450.049 832.316C450.525 830.412 450.214 828.633 449.176 827.305C448.185 826.035 446.638 825.341 444.82 825.341H368.526Z" fill="#476BA7"/>
<path d="M596.189 862.11H519.895C517.885 862.11 516.166 861.33 515.056 859.909C513.899 858.434 513.555 856.464 514.078 854.375L519.578 832.316C520.622 828.131 524.873 824.727 529.064 824.727H605.358C607.367 824.727 609.086 825.507 610.197 826.928C611.353 828.402 611.697 830.372 611.175 832.461L605.675 854.521C604.63 858.705 600.373 862.11 596.189 862.11ZM529.064 825.341C525.144 825.341 521.151 828.534 520.173 832.461L514.672 854.521C514.196 856.425 514.507 858.203 515.545 859.532C516.537 860.794 518.084 861.495 519.902 861.495H596.195C600.115 861.495 604.108 858.302 605.087 854.375L610.587 832.316C611.063 830.412 610.752 828.633 609.714 827.305C608.722 826.035 607.182 825.341 605.364 825.341H529.064Z" fill="#476BA7"/>
<path d="M612.71 821.796C601.121 826.582 589.605 831.824 578.202 837.489C578.651 836.213 579.061 834.931 579.418 833.648C579.709 832.617 578.321 831.936 577.462 833.067C577.078 833.569 576.681 834.045 576.252 834.501C576.543 833.582 575.452 833.067 574.52 833.741C574.46 833.787 574.401 833.834 574.341 833.88C574.791 832.644 572.867 832.459 572.153 833.655L571.082 835.447C570.177 836.531 568.921 837.35 567.631 837.754C567.36 837.165 567.189 836.531 567.122 835.83C567.076 835.301 566.693 835.017 566.23 835.017C566.21 834.389 565.642 834.019 564.802 834.389C563.784 834.838 562.892 835.526 562.178 836.326C561.609 835.261 559.771 836.022 558.786 837.046C558.813 836.987 558.839 836.934 558.872 836.874C559.335 835.883 558.476 834.752 557.312 835.751C555.243 837.529 553.749 839.77 553.048 842.004C552.367 842.758 551.64 843.485 550.867 844.153C550.49 844.477 548.718 846.116 548.315 845.977C547.932 845.845 548.137 844.827 548.308 844.107C548.375 844.021 548.434 843.928 548.5 843.842C549.968 841.799 557.061 832.161 552.063 832.247C551.534 832.254 550.992 832.604 550.675 833.093C548.851 835.903 547.442 838.864 546.583 841.813C546.418 842.381 546.193 843.108 546.008 843.875C545.863 844.073 545.717 844.265 545.572 844.457C543.588 847.055 540.845 850.81 537.632 852.092C537.335 848.02 539.391 843.201 540.944 838.924C541.612 837.079 542.313 835.242 543.04 833.397C543.251 833.358 543.489 833.245 543.734 833.04C547.205 830.118 548.626 825.782 547.052 822.866C546.596 822.027 545.215 822.794 544.818 823.68C542.425 829.041 540.25 834.435 538.313 839.829C536.594 844.616 534.644 849.679 535.365 854.095C535.438 854.565 535.986 854.736 536.495 854.624C540.158 853.824 543.357 850.565 545.929 847.313C546.114 847.736 546.431 848.046 546.933 848.199C548.639 848.708 550.973 846.81 552.645 845.224C552.678 845.779 552.777 846.321 552.943 846.837C553.121 847.399 553.703 847.524 554.384 847.253C555.97 846.619 557.451 845.601 558.7 844.371C560.36 843.862 561.807 842.493 563.017 840.907C563.784 840.239 564.491 839.532 565.146 838.785C565.291 839.195 565.476 839.572 565.741 839.869C566.362 840.583 567.936 839.935 568.94 839.479C569.906 839.036 570.791 838.448 571.578 837.747C572.193 837.701 572.808 837.529 573.396 837.251C573.508 837.423 573.647 837.582 573.826 837.701C574.454 838.117 575.187 837.952 575.921 837.502C575.756 837.965 575.591 838.435 575.412 838.897C573.746 839.737 572.087 840.583 570.428 841.442C569.33 842.004 569.079 843.683 570.302 843.591C571.823 843.472 573.35 843.36 574.87 843.241C575.564 843.188 576.106 842.751 576.404 842.09C576.675 841.482 576.926 840.874 577.177 840.259C589.09 834.29 601.128 828.79 613.245 823.779C614.765 823.144 614.256 821.161 612.71 821.796ZM559.613 839.327C559.514 839.644 559.388 839.968 559.236 840.279C559.13 840.497 559.018 840.709 558.899 840.914C559.077 840.385 559.309 839.849 559.613 839.327ZM556.261 842.183C556.136 842.824 555.983 843.459 556.221 843.921C555.858 844.199 555.474 844.45 555.078 844.675C555.005 843.994 555.045 843.274 555.21 842.54C555.739 841.918 556.235 841.271 556.697 840.616C556.506 841.165 556.36 841.694 556.261 842.183Z" fill="#FFA229"/>
<path d="M399.48 814.7C395.381 822.322 393.074 830.149 389.742 837.864C388.116 841.625 386.205 845.38 383.72 848.93C381.988 851.402 378.22 856.777 375.02 855.613C374.227 855.322 374.002 854.642 374.26 853.709C374.319 853.504 374.386 853.293 374.458 853.081C374.861 853.326 375.49 853.227 376.118 852.89C377.149 852.334 378.021 851.244 378.478 850.265C378.96 849.227 378.881 848.15 378.041 847.687C377.307 847.284 376.21 847.641 375.437 848.421C374.577 849.28 374.194 850.378 373.771 851.369C373.255 852.586 372.568 853.901 372.647 855.078C372.766 856.836 374.663 857.464 376.521 857.054C378.775 856.559 380.778 854.589 382.298 852.797C384.09 850.682 385.663 848.427 387.032 846.127C389.815 841.447 391.785 836.581 393.636 831.762C395.778 826.183 397.781 820.57 400.736 815.083C401.212 814.184 399.962 813.801 399.48 814.7ZM377.268 849.32C377.407 849.862 376.884 850.563 376.461 851.065C376.309 851.244 376.17 851.402 375.972 851.541C375.86 851.627 375.747 851.693 375.628 851.746C375.582 851.753 375.542 851.759 375.523 851.772C375.437 851.607 375.271 851.534 375.093 851.528C375.271 851.125 375.463 850.728 375.642 850.345C375.906 849.783 376.977 848.189 377.268 849.32Z" fill="#FFA229"/>
<path d="M426.955 838.52C426.115 838.963 425.223 839.459 424.35 839.604C424.138 839.638 423.907 839.651 423.682 839.624C424.297 839.01 424.872 838.282 424.971 837.601C425.123 836.497 423.907 836.24 422.876 836.808C421.957 837.317 421.362 838.342 421.296 839.195C421.276 839.492 421.322 839.75 421.421 839.981C420.529 840.623 419.002 841.502 418.057 841.33C419.253 840.504 420.324 839.459 421.15 838.269C421.309 838.044 421.316 837.734 421.197 837.575C420.675 836.894 419.623 836.848 418.592 837.377C417.482 837.945 416.787 839.049 416.358 840.067C416.212 840.411 416.113 840.742 416.073 841.052C414.976 841.555 413.832 841.819 412.768 841.799C412.768 841.793 412.768 841.786 412.768 841.779C413.112 841.455 413.456 841.132 413.793 840.801C414.295 840.299 413.998 839.79 413.528 839.73C412.484 839.591 411.704 840.484 411.406 841.396C409.787 842.837 408.022 844.126 406.164 845.19C405.701 845.455 405.073 845.997 404.763 845.653C405.523 845.091 406.237 844.457 406.891 843.776C408.154 842.447 409.397 840.074 407.909 839.254C407.645 839.109 407.136 839.128 406.852 839.512C406.197 840.385 405.543 841.251 404.888 842.123C404.32 842.883 403.725 843.637 403.374 844.47C403.262 844.734 403.189 845.012 403.163 845.29C402.489 845.706 401.794 846.07 401.087 846.361C401.028 846.387 400.968 846.407 400.909 846.433C401.292 846.123 401.682 845.818 402.065 845.501C403.15 844.622 404.135 843.584 404.187 842.354C404.24 841.204 403.507 840.404 402.819 839.723C402.634 839.538 402.191 839.631 401.92 839.836C399.824 841.429 398.112 843.571 397.26 845.819C396.988 846.532 396.883 847.279 397.193 847.775C395.329 849.197 393.439 850.591 391.528 851.947C391.323 852.092 390.834 852.542 390.636 852.469C390.451 852.409 390.53 851.973 390.53 851.775C390.53 851.252 390.556 850.717 390.622 850.175C390.755 848.998 391.059 847.795 391.495 846.592C391.878 845.541 392.361 844.503 392.949 843.498C393.174 843.597 393.472 843.577 393.749 843.353C395.184 842.183 395.898 840.649 395.759 839.214C395.713 838.712 394.906 838.785 394.529 839.214C390.973 843.254 388.857 848.258 389.042 852.608C389.082 853.566 389.518 854.373 390.808 853.837C391.396 853.593 391.945 853.143 392.473 852.766C393.174 852.27 393.868 851.768 394.556 851.259C395.858 850.307 397.154 849.342 398.436 848.357C399.157 848.377 399.99 848.112 400.73 847.841C401.629 847.511 402.522 847.088 403.381 846.579C403.632 847.028 404.088 847.306 404.769 847.24C405.463 847.167 406.435 846.46 407.09 846.07C407.863 845.6 408.623 845.105 409.37 844.576C410.091 844.06 410.792 843.518 411.466 842.943C411.624 843.161 411.896 843.227 412.358 843.24C412.986 843.26 413.654 843.181 414.315 843.029C415.029 842.864 415.736 842.612 416.43 842.282C416.523 842.374 416.642 842.454 416.774 842.52C417.554 842.897 418.638 842.725 419.637 842.341C420.569 841.984 421.494 841.469 422.327 840.827C422.565 840.933 422.836 841.006 423.114 841.039C424.456 841.184 425.923 840.47 427.285 839.757C428.204 839.261 427.893 838.025 426.955 838.52ZM399.044 844.986C399.752 843.611 400.77 842.355 402.013 841.297C402.541 841.885 403.017 842.685 402.297 843.617C401.894 844.139 401.272 844.569 400.757 844.972C400.168 845.442 399.58 845.904 398.985 846.367C398.833 846.486 398.674 846.605 398.516 846.724C398.324 846.328 398.82 845.422 399.044 844.986ZM407.057 841.224C406.891 841.958 406.012 842.943 405.523 843.419C405.43 843.511 405.331 843.604 405.232 843.69C405.767 842.857 406.422 842.037 407.057 841.224ZM419.524 838.401C418.995 839.049 418.381 839.624 417.706 840.107C418.076 839.287 418.942 838.355 419.524 838.401ZM422.949 838.362C423.034 838.216 423.444 837.767 423.378 838.077C423.345 838.243 423.035 838.56 422.797 838.791C422.81 838.646 422.863 838.494 422.949 838.362Z" fill="#FFA229"/>
<path d="M287.967 481.149C287.967 481.149 285.462 445.465 239.128 458.977C228.61 462.045 229.979 493.789 255.443 505.88L287.967 481.149Z" fill="#131F2D"/>
<path d="M269.44 528.266C269.44 528.266 287.579 531.551 294.309 538.274C301.039 545.004 316.911 564.849 306.922 631.015C306.922 631.015 306.122 650.96 283.699 652.877C261.269 654.8 269.44 528.266 269.44 528.266Z" fill="#FFA229"/>
<path d="M227.754 692.816C230.874 714.532 251.797 770.967 251.188 790.475C250.706 805.845 250.964 841.358 252.987 864.944C253.542 871.363 254.203 876.864 255.042 880.876C256.841 889.576 259.154 899.598 260.397 905.911C263.16 920.091 261.719 928.361 263.973 935.969C266.459 944.292 294.997 942.765 286.397 937.721C283.33 935.923 278.861 932.089 276.659 927.144C268.647 909.183 279.879 831.746 283.23 801.892C283.66 798.164 283.964 795.195 284.09 793.166C285.207 774.729 297.866 651.876 297.866 651.876C267.12 634.774 224.66 671.1 227.754 692.816Z" fill="#FF7955"/>
<path d="M227.753 692.815C230.873 714.531 251.796 770.966 251.187 790.474C250.705 805.844 250.963 841.357 252.985 864.943L283.223 801.884C283.652 798.156 283.956 795.188 284.082 793.158C285.199 774.721 298.176 651.822 298.176 651.822C267.436 634.727 224.659 671.099 227.753 692.815Z" fill="#EF6343"/>
<path d="M294.448 655.858C294.448 655.858 268.045 777.223 265.044 795.448C262.042 813.667 238 899.467 243.242 920.972C246.336 933.657 251.723 937.406 251.723 937.406C252.992 939.733 232.109 944.347 230.424 935.449C228.282 924.151 227.832 908.292 224.692 881.4C219.291 835.106 230.007 808.762 232.599 789.413C235.197 770.063 223.879 708.564 230.159 687.549C241.153 650.774 265.632 635.695 294.448 655.858Z" fill="#FF7955"/>
<path d="M223.983 767.386C223.983 767.386 230.859 768.45 240.979 769.164L246.486 747.097L248.416 769.574C264.679 770.235 285.906 769.422 301.56 762.956L298.188 651.831C298.188 651.831 275.52 657.814 248.251 647.336C248.245 647.329 212.785 675.015 223.983 767.386Z" fill="#1C4670"/>
<path d="M255.854 942.418H231.401C229.445 939.568 226.708 928.066 224.639 925.752C224.5 925.6 224.348 925.422 224.189 925.217L223.984 942.418H221.756C221.723 939.727 221.492 926.294 220.196 918.917C218.861 916.365 217.909 913.899 218.325 912.855C219.191 910.686 227.177 905.867 227.177 905.867C227.177 905.867 232.591 935.318 235.897 936.144C243.776 938.127 250.989 936.726 250.989 936.726C250.989 936.726 254.525 938.266 255.649 940.051V940.058C256.105 940.805 256.284 941.604 255.854 942.418Z" fill="#131F2D"/>
<path d="M289.252 942.417H264.8C262.869 939.601 260.172 928.336 258.11 925.851L257.911 942.417H255.683C255.677 941.934 255.664 941.121 255.637 940.064V940.057C255.538 935.496 255.234 926.419 254.341 920.291C252.636 917.296 251.234 914.09 251.724 912.854C252.59 910.686 260.397 905.906 260.397 905.906C260.397 905.906 265.983 935.317 269.288 936.143C277.168 938.127 285.094 936.897 285.094 936.897C285.094 936.897 290.72 939.64 289.252 942.417Z" fill="#131F2D"/>
<path d="M298.593 652.943C298.593 652.943 309.342 616.187 305.958 580.801C302.573 545.414 275.595 527.32 275.595 527.32C275.595 527.32 247.804 529.66 244.227 537.435C240.651 545.209 252.649 633.653 246.329 649.082C246.329 649.089 267.153 663.46 298.593 652.943Z" fill="#364154"/>
<path d="M280.217 531.042C280.211 531.029 280.211 531.023 280.211 531.023C279.054 525.807 279.206 520.842 279.45 518.079V518.072C279.569 516.651 279.715 515.811 279.715 515.811L279.45 515.732L257.126 508.93C256.802 516.023 256.392 521.278 255.956 525.179C255.751 527.023 255.54 528.57 255.328 529.852C259.645 531.736 263.221 533.039 266.176 533.898C274.182 536.225 277.652 535.3 279.14 533.898C280.376 532.735 280.237 531.247 280.217 531.042Z" fill="#FF7955"/>
<path d="M279.446 515.724V518.071C279.446 518.071 264.566 518.236 255.945 525.171C256.382 521.271 256.798 516.015 257.122 508.922L279.446 515.724Z" fill="#EF6343"/>
<path d="M285.609 517.344C285.609 517.344 258.564 522.778 255.438 505.881C252.317 488.984 246.718 478.308 263.853 474.123C280.988 469.939 285.542 475.763 287.962 481.15C290.381 486.538 292.563 515.493 285.609 517.344Z" fill="#FF7955"/>
<path d="M277.526 468.324C275.239 468.376 273.566 468.515 272.376 468.707C266.44 466.816 255.089 465.316 246.046 476.673C233.182 492.823 260.953 519.92 260.953 519.92C257.244 514.995 256.173 497.477 270.129 488.717C278.775 483.29 279.126 477.545 278.141 473.962C278.385 474.035 278.524 474.075 278.524 474.075C278.524 474.075 289.67 475.443 290.304 488.308C290.304 488.301 295.183 467.914 277.526 468.324Z" fill="#131F2D"/>
<path d="M229.949 655.124C239.231 657.027 254.045 656.062 265.032 652.916C268.688 651.878 271.907 650.582 274.34 649.088C284.157 643.053 288.923 598.358 287.224 581.441C285.552 564.551 255.407 529.336 255.407 529.336C248.433 534.512 247.051 547.072 242.866 562.878C232.792 600.89 229.949 655.124 229.949 655.124Z" fill="#FFA229"/>
<path d="M229.949 655.119C239.231 657.023 254.045 656.058 265.032 652.911C269.065 647.18 272.284 640.179 274.009 631.631C279.007 606.974 259.301 580.214 242.86 562.867C232.792 600.885 229.949 655.119 229.949 655.119Z" fill="#D08C33"/>
<path d="M235.692 645.417L257.566 661.204C260.27 663.154 264.084 662.539 266.041 659.835L290.435 626.035C292.385 623.331 291.77 619.517 289.066 617.567L267.191 601.78C264.488 599.83 260.673 600.445 258.717 603.149L234.323 636.949C232.373 639.653 232.988 643.467 235.692 645.417Z" fill="white"/>
<path d="M269.676 634.495C269.676 634.495 280.366 633.411 281.688 635.215C283.01 637.02 281.807 643.988 275.804 644.708C269.795 645.429 262.953 640.504 262.953 640.504L269.676 634.495Z" fill="#EF6343"/>
<path d="M255.405 529.328C255.405 529.328 238.092 532.085 229.848 549.206C221.605 566.328 212.727 610.401 214.948 614.52C217.169 618.638 243.803 640.837 265.678 643.693C265.678 643.693 270.431 637.67 270.12 632.276C270.12 632.276 240.63 613.885 238.098 608.815C235.56 603.744 260.608 561.575 260.29 554.277C259.966 546.992 255.405 529.328 255.405 529.328Z" fill="#FFA229"/>
<path d="M103.598 521.883C103.598 521.883 66.2473 560.443 64.4558 574.98C62.6643 589.516 82.2253 612.264 82.2253 612.264L103.598 521.883Z" fill="#131F2D"/>
<path d="M119.566 921.877C119.566 921.877 120.836 942.376 124.802 942.667C125.331 942.707 144.918 942.707 144.918 942.707L169.92 942.561C169.92 942.561 169.755 936.539 162.45 935.263C155.138 933.987 142.909 928.851 138.48 919.193C133.819 909.032 119.566 921.877 119.566 921.877Z" fill="#131F2D"/>
<path d="M63.8828 921.874C63.8828 921.874 65.1521 942.374 69.1185 942.665C69.6473 942.704 89.2347 942.704 89.2347 942.704L114.316 942.619C114.316 942.619 114.078 936.537 106.766 935.267C99.4548 933.992 87.2251 928.855 82.7959 919.197C78.1354 909.03 63.8828 921.874 63.8828 921.874Z" fill="#131F2D"/>
<path d="M147.26 702.06C147.26 702.06 140.723 743.886 116.329 818.13C91.9358 892.374 88.6106 924.522 88.6106 924.522C88.6106 924.522 82.0132 925.48 75.0456 925.48C70.6363 925.48 62.4456 923.788 62.4456 923.788C62.4456 923.788 62.2209 842.649 73.4656 805.312C84.7104 767.975 75.8917 670.719 75.8917 670.719L147.26 702.06Z" fill="#28598B"/>
<path d="M159.992 673.008C159.992 673.008 160.917 736.034 150.016 813.418C139.109 890.803 142.811 923.651 142.811 923.651C142.811 923.651 133.834 925.257 130.68 925.363C127.302 925.476 116.692 924.517 116.692 924.517C116.692 924.517 101.084 847.106 105.56 808.368C110.035 769.636 84.1875 675.46 84.1875 675.46L159.992 673.008Z" fill="#1C4670"/>
<path d="M109.434 525.523L121.749 534.646L139.552 530.898C139.307 529.271 138.13 522.548 137.06 516.453C136.993 516.096 136.927 515.733 136.868 515.382C135.949 510.2 135.162 505.744 135.162 505.744L118.536 497.454L112.336 494.367C112.349 494.48 112.818 500.125 112.878 500.945C114.048 515.581 109.434 525.523 109.434 525.523Z" fill="#FF7955"/>
<path d="M138.311 520.919C137.921 520.754 114.097 513.727 111.505 514.58C108.914 515.432 107.387 520.443 107.387 520.443L146.357 529.255C146.357 529.255 143.289 523.015 138.311 520.919Z" fill="#131F2D"/>
<path d="M74.1454 680.783C78.1845 699.207 145.402 701.395 162.728 684.67C164.698 682.766 164.797 673.894 164.05 661.936C162.596 638.574 157.929 603.425 157.744 585.47C157.658 576.797 156.461 567.932 154.875 559.874C151.497 542.706 146.347 529.24 146.347 529.24C146.347 529.24 113.519 518.623 107.371 520.435C77.7879 529.128 70.1063 662.359 74.1454 680.783Z" fill="#364154"/>
<path d="M164.057 661.944C162.603 638.582 157.936 603.433 157.751 585.479C157.665 576.806 156.468 567.941 154.882 559.882L135.129 556.398C135.136 556.398 115.826 635.27 164.057 661.944Z" fill="#131F2D"/>
<path d="M153.361 629.378C153.361 629.378 152.013 632.598 154.842 634.759C157.672 636.921 159.503 640.418 158.855 642.976C158.207 645.535 152.006 649.706 149.858 649.032C147.709 648.357 143.333 644.993 143.802 643.637C144.272 642.289 140.861 631.798 146.103 627.759C151.339 623.719 153.361 629.378 153.361 629.378Z" fill="#FF7955"/>
<path d="M131.277 524.523C131.277 524.523 150.541 528.126 165.884 550.748C181.234 573.363 191.328 590.181 188.499 598.331C185.67 606.482 159.901 634.756 155.459 634.756C151.016 634.756 143.844 631.524 143.441 624.258C143.441 624.258 161.587 597.069 158.011 592.99C156.484 591.251 134.457 573.37 131.31 581.448C126.114 594.808 131.277 524.523 131.277 524.523Z" fill="#364154"/>
<path d="M114.132 501.204C117.781 508.192 131.393 514.234 137.065 516.455C136.999 516.098 136.933 515.734 136.873 515.384C135.954 510.201 135.167 505.746 135.167 505.746L118.542 497.456C114.86 497.396 112.625 498.328 114.132 501.204Z" fill="#EF6343"/>
<path d="M140.464 507.463C140.464 507.463 111.099 510.841 109.275 492.516C107.457 474.198 102.439 462.293 121.108 459.364C139.783 456.435 144.126 463.059 146.215 469.029C148.317 474.998 148.059 506.115 140.464 507.463Z" fill="#FF7955"/>
<path d="M145.456 467.157C145.456 467.157 139.85 487.009 135.844 485.336C131.838 483.664 128.175 482.295 127.627 488.496C127.078 494.697 131.533 502.822 118.464 501.453C105.395 500.085 93.2115 463.389 97.9381 457.777C111.576 441.594 164.395 447.847 145.456 467.157Z" fill="#131F2D"/>
<path d="M829.534 893.086L822.612 922.239L812.24 922.179L811.863 893.086H829.534Z" fill="#FF7955"/>
<path d="M742.325 894.334L722.632 922.244L714.957 912.388L726.81 890.5L742.325 894.334Z" fill="#FF7955"/>
<path d="M793.526 510.023C797.103 507.987 801.393 507.769 804.394 507.947C803.621 507.147 802.1 506.857 802.1 506.857C803.958 506.579 808.116 508.423 808.116 508.423C833.99 498.454 838.062 536.552 837.514 545.403C836.972 554.255 846.207 557.144 859.673 564.118C885.362 577.425 887.616 595.248 887.616 595.248C887.417 595.367 887.206 595.499 886.981 595.651C885.705 593.489 883.081 589.437 880.873 588.822C880.959 589.021 883.484 594.402 884.429 597.489C876.854 603.253 862.674 616.025 852.797 625.082C852.844 623.31 852.771 620.798 852.123 619.469L850.9 626.82C845.612 631.679 841.969 635.097 841.969 635.097C842.624 627.944 809.617 590.197 792.396 578.886C788.205 572.712 786.717 561.811 786.605 560.958C787.325 569.605 788.806 574.451 790.128 577.181C775.552 563.781 784.04 515.417 793.526 510.023Z" fill="#131F2D"/>
<path d="M793.423 579.466C793.337 579.506 801.739 583.869 808.052 582.137C813.995 580.517 817.882 572.809 817.796 572.789C815.277 572.287 814.55 568.83 814.61 553.969L813.473 554.194L794.341 557.981C794.341 557.981 794.778 564.004 794.791 569.676C794.804 574.442 794.513 578.957 793.423 579.466Z" fill="#FF7955"/>
<path d="M794.34 557.991C794.34 557.991 794.776 564.013 794.789 569.685C805.499 569.381 811.157 559.617 813.471 554.203L794.34 557.991Z" fill="#EF6343"/>
<path d="M815.446 552.109C815.446 552.109 821.058 543.244 822.4 535.662C823.359 530.248 820.602 510.191 800.446 513.08C800.446 513.08 794.589 513.655 789.089 517.377C784.713 520.332 778.393 526.718 785.46 544.223L787.297 550.139L815.446 552.109Z" fill="#131F2D"/>
<path d="M718.078 904.738L728.219 905.049L739.199 905.386C739.199 905.386 764.558 877.151 778.777 831.902C779.108 830.85 779.458 829.786 779.828 828.709C787.616 806.014 803.752 777.522 812.254 751.734C813.609 747.629 814.825 743.762 815.916 740.099C816.266 738.929 816.603 737.779 816.927 736.642C823.194 714.866 825.006 700.574 826.678 685.297L765.272 685.786C765.278 685.786 755.362 790.089 718.078 904.738Z" fill="#1C4670"/>
<path d="M773.874 650.497C774.026 679.717 769.59 692.257 769.59 692.257C769.59 692.257 795.881 705.617 827.129 695.78C827.5 695.668 853.004 689.844 853.004 689.844C852.481 688.661 847.827 668.968 847.318 667.883C840.721 653.717 835.71 647.503 834.93 643.146C833.476 635.015 833.449 626.6 834.17 618.667C836.074 597.658 841.746 580.219 841.746 580.219C833.231 578.283 825.041 574.971 816.176 571.645C814.14 574.184 808.124 576.749 802.723 576.63C796.496 576.491 794.552 573.86 794.784 570.898C788.153 574.587 782.878 578.097 782.878 578.097C777.239 587.888 765.809 597.401 764.976 612.42C764.771 616.115 773.867 649.678 773.874 650.497Z" fill="#EAEAEA"/>
<path d="M826.683 653.76C829.367 657.561 834.516 680.652 847.315 683.554C840.717 667.093 835.706 659.881 834.926 654.824C833.472 645.377 833.445 635.607 834.166 626.385C829.882 618.875 826.683 613.726 826.683 613.726C826.346 612.509 819.874 592.492 817.798 610.387C815.722 628.276 823.681 649.509 826.683 653.76Z" fill="#5F9AA8"/>
<path d="M790.763 563.359C790.763 563.359 816.095 563.775 816.109 547.996C816.128 532.216 819.407 521.646 803.238 520.713C787.068 519.781 783.915 525.797 782.632 531.059C781.343 536.328 784.172 562.843 790.763 563.359Z" fill="#FF7955"/>
<path d="M783.386 522.286C787.292 517.546 790.247 518.577 791.907 519.999C797.38 511.821 814.68 523.648 814.68 523.648C816.373 534.972 824.537 541.457 824.537 541.457C824.537 541.457 819.923 544.306 809.273 541.569C800.897 539.414 794.815 527.495 792.607 522.511C791.1 523.853 787.92 526.946 786.968 529.974C785.706 533.993 785.137 542.263 782.724 541.979C782.738 541.986 777.509 529.406 783.386 522.286Z" fill="#131F2D"/>
<path d="M822.958 920.609C822.958 920.609 822.125 926.38 824.28 932.561C824.28 932.561 825.979 940.296 818.364 940.435C810.748 940.58 808.884 939.86 809.744 935.12C810.603 930.38 812.242 922.183 812.242 922.183L822.958 920.609Z" fill="#FF7955"/>
<path d="M809.025 944.233C809.025 944.233 809.032 944.24 809.051 944.253H824.805C824.824 944.24 824.831 944.233 824.831 944.233C825.69 940.188 824.282 932.572 824.282 932.572C815.662 940.816 810.261 932.367 810.261 932.367C808.866 935.891 809.025 944.233 809.025 944.233Z" fill="#131F2D"/>
<path d="M696.608 936.262C696.608 936.262 710.649 920.317 714.959 912.391L725.398 917.739L702.062 939.653L696.602 938.932L696.608 936.262Z" fill="#FF7955"/>
<path d="M687.992 944.208H707.467C709.179 942.661 710.819 939.548 712.822 935.462C713.972 933.122 716.544 931.833 719.181 931.126V944.202H723.214L726.949 930.293C729.434 925.632 727.57 921.362 725.818 917.68C723.782 917.673 717.886 919.147 707.513 931.06C704.102 934.973 700.348 936.368 696.606 936.256C696.56 936.289 696.5 936.315 696.454 936.335C690.544 939.052 688.62 942.384 687.992 944.208Z" fill="#131F2D"/>
<path d="M688.938 589.542C688.938 589.542 705.564 598.836 711.507 601.52C713.623 602.472 717.444 604.25 721.357 606.082C723.717 607.186 726.11 608.303 728.173 609.281C731.663 610.921 735.821 610.022 738.327 607.093C747.33 596.582 770.633 573.795 794.696 570.939L794.782 570.906C794.782 570.906 794.775 570.913 794.769 570.933C794.782 570.933 794.788 570.933 794.802 570.926L794.669 571.184C793.314 574.549 780.126 607.509 779.716 614.457C779.286 621.782 777.991 734.276 777.991 734.276C777.991 734.276 778.85 739.445 768.941 737.29C759.025 735.135 756.44 732.98 756.44 732.98C756.44 732.98 765.92 663.588 763.335 639.452C762.826 634.719 763.282 629.391 764.346 623.897C749.69 632.775 732.41 636.722 732.41 636.722C732.41 636.722 725.965 633.912 715.95 627.705C711.745 625.094 706.873 620.936 702.074 616.54C696.276 611.225 686.301 598.387 686.301 598.387L688.938 589.542Z" fill="#FFA229"/>
<path d="M728.227 905.05L739.207 905.387C739.207 905.387 764.565 877.153 778.785 831.903C779.115 830.852 779.466 829.787 779.836 828.71C787.623 806.015 803.76 777.523 812.261 751.735C813.616 747.63 814.833 743.763 815.924 740.1C816.274 738.93 816.611 737.78 816.935 736.643L807.892 729.781C807.892 729.781 780.742 773.742 772.34 815.118C765.035 851.054 735.789 894.294 728.227 905.05Z" fill="#131F2D"/>
<path d="M806.939 818.962C806.787 839.078 807.798 885.339 810.423 904.484H820.147C825.522 904.484 828.206 904.404 828.206 904.404C834.777 871.107 839.457 843.56 842.861 819.821C845.651 800.339 848.137 783.641 850.047 769.263C851.971 754.792 853.306 742.681 853.782 732.441C853.855 730.828 853.914 729.262 853.941 727.741C853.974 726.214 853.981 724.727 853.967 723.279L800.91 718.109C801.578 753.357 807.032 807.267 806.939 818.962Z" fill="#1C4670"/>
<path d="M820.148 904.496C825.523 904.496 828.207 904.416 828.207 904.416C834.778 871.118 839.458 843.572 842.863 819.833C845.652 800.351 848.138 783.653 850.048 769.275C851.972 754.804 853.308 742.693 853.783 732.453L834.315 743.903C834.315 743.903 846.743 748.286 841.997 781.471C837.257 814.657 826.746 899.795 820.148 904.496Z" fill="#131F2D"/>
<path d="M817.64 732.123C817.64 732.123 821.376 745.629 834.306 743.904C847.236 742.178 865.621 734.424 865.621 734.424C865.621 734.424 860.094 716.965 853.226 694.026C844.91 666.255 834.61 630.458 829.758 607.876C828.396 601.55 827.464 596.268 827.12 592.48L816.173 571.656C816.173 571.656 800.4 607.565 799.54 616.615C798.675 625.659 817.64 732.123 817.64 732.123Z" fill="#FFA229"/>
<path d="M818.219 635.572C818.794 650.228 822.245 678.674 852.991 693.898C853.07 693.938 853.156 693.978 853.235 694.017C844.919 666.246 834.62 630.449 829.768 607.867C824.115 616.309 817.901 627.507 818.219 635.572Z" fill="#016EB9"/>
<path d="M711.506 601.519C713.621 602.471 717.442 604.249 721.356 606.08C719.267 609.795 716.649 616.545 715.948 627.704C711.744 625.092 706.303 620.749 701.656 616.194C694.199 608.876 686.293 598.385 686.293 598.385L688.937 589.547C688.937 589.54 705.57 598.841 711.506 601.519Z" fill="#FF7955"/>
<path d="M648.641 554.974C648.343 555.456 648.495 556.084 648.978 556.382L655.079 560.143L656.157 558.398L650.055 554.637C649.566 554.339 648.938 554.491 648.641 554.974Z" fill="#163560"/>
<path d="M865.45 679.414L864.247 681.364L856.869 676.816L851.158 686.084L858.072 690.341C852.89 695.444 845.096 697.123 838.108 694.248C824.708 688.741 805.67 677.463 780.146 659.905C777.131 652.964 769.522 652.462 769.47 652.462C768.888 652.052 768.306 651.642 767.711 651.219C766.521 650.379 764.882 650.657 764.042 651.847C763.196 653.03 763.48 654.676 764.67 655.516C796.871 678.336 820.239 692.595 836.105 699.113C845.505 702.974 856.03 700.442 862.66 693.164L862.819 693.263C865.377 694.843 868.729 694.043 870.309 691.485C871.842 688.992 871.122 685.753 868.722 684.127L869.932 682.17C870.692 680.934 870.309 679.308 869.072 678.548C867.836 677.794 866.217 678.177 865.45 679.414Z" fill="#131F2D"/>
<path d="M654.516 556.93C653.392 556.977 652.658 558.167 653.121 559.198C663.11 581.33 816.266 684.08 836.078 691.491C837.023 691.841 837.942 692.158 838.841 692.436C856.472 697.929 869.845 676.227 857.014 662.946C856.359 662.271 855.665 661.591 854.925 660.903C839.396 646.545 678.771 555.906 654.516 556.93Z" fill="#364154"/>
<path d="M660.367 560.93C660.367 560.93 722.845 587.333 802.596 632.08C802.596 632.08 726.15 582.87 660.367 560.93Z" fill="#B8C1C9"/>
<path d="M770.004 628.947C776.225 629.766 780.072 630.831 780.846 635.293C781.262 637.699 782.499 640.079 783.556 641.758C789.757 642.089 804.519 642.895 816.92 643.682L817.945 659.951C807.758 658.681 795.237 656.097 780.826 651.165C779.722 650.973 778.334 650.286 776.602 648.871C767.671 641.56 762.025 634.956 762.012 633.197C761.986 631.445 763.777 628.133 770.004 628.947Z" fill="#FF7955"/>
<path d="M816.175 571.648C816.175 571.648 842.472 573.513 848.792 587.593C855.112 601.674 857.121 648.511 849.076 662.3C849.076 662.3 837.997 665.454 818.409 661.791C818.171 661.745 817.927 661.699 817.682 661.653C817.682 661.653 811.435 646.349 817.034 643.334C817.034 643.334 833.554 644.194 831.829 638.74C830.103 633.286 816.175 571.648 816.175 571.648Z" fill="#FFA229"/>
<path d="M686.299 598.377C686.299 598.377 673.229 584.554 678.703 581.817C684.176 579.081 691.627 583.86 688.513 592.566C685.393 601.266 691.726 595.191 686.299 598.377Z" fill="#FF7955"/>
<path d="M973.076 945H1.15026C0.515632 945 0 944.418 0 943.711C0 943.004 0.515632 942.422 1.15026 942.422H973.07C973.704 942.422 974.22 943.004 974.22 943.711C974.227 944.418 973.704 945 973.076 945Z" fill="#131F2D"/>
<path d="M169.909 127.37H177.16C176.967 129.937 176.255 132.213 175.024 134.199C173.794 136.168 172.08 137.715 169.883 138.84C167.686 139.965 165.022 140.527 161.894 140.527C159.485 140.527 157.314 140.105 155.381 139.262C153.465 138.4 151.821 137.179 150.45 135.597C149.097 133.997 148.06 132.081 147.339 129.849C146.618 127.599 146.258 125.076 146.258 122.281V119.354C146.258 116.56 146.627 114.037 147.365 111.787C148.104 109.537 149.158 107.621 150.529 106.039C151.918 104.439 153.579 103.209 155.513 102.348C157.464 101.486 159.644 101.056 162.052 101.056C165.181 101.056 167.826 101.636 169.988 102.796C172.15 103.938 173.829 105.512 175.024 107.516C176.22 109.52 176.94 111.822 177.187 114.424H169.936C169.795 112.807 169.443 111.436 168.881 110.311C168.336 109.186 167.51 108.333 166.402 107.753C165.312 107.155 163.862 106.856 162.052 106.856C160.646 106.856 159.406 107.12 158.334 107.647C157.279 108.175 156.4 108.966 155.697 110.021C154.994 111.058 154.467 112.358 154.115 113.923C153.764 115.47 153.588 117.263 153.588 119.302V122.281C153.588 124.232 153.746 125.981 154.062 127.528C154.379 129.075 154.871 130.385 155.539 131.457C156.207 132.529 157.068 133.347 158.123 133.909C159.178 134.472 160.435 134.753 161.894 134.753C163.669 134.753 165.11 134.472 166.218 133.909C167.343 133.347 168.195 132.521 168.775 131.431C169.373 130.341 169.751 128.987 169.909 127.37ZM213.863 119.829V121.807C213.863 124.707 213.477 127.317 212.703 129.638C211.93 131.94 210.831 133.9 209.407 135.518C207.983 137.135 206.287 138.374 204.318 139.235C202.35 140.097 200.161 140.527 197.753 140.527C195.38 140.527 193.2 140.097 191.214 139.235C189.245 138.374 187.54 137.135 186.099 135.518C184.657 133.9 183.541 131.94 182.75 129.638C181.959 127.317 181.563 124.707 181.563 121.807V119.829C181.563 116.911 181.959 114.301 182.75 111.998C183.541 109.695 184.648 107.735 186.072 106.118C187.496 104.483 189.192 103.235 191.161 102.374C193.147 101.513 195.327 101.082 197.7 101.082C200.108 101.082 202.297 101.513 204.266 102.374C206.234 103.235 207.931 104.483 209.354 106.118C210.796 107.735 211.903 109.695 212.677 111.998C213.468 114.301 213.863 116.911 213.863 119.829ZM206.533 121.807V119.776C206.533 117.685 206.34 115.848 205.953 114.266C205.566 112.666 204.995 111.321 204.239 110.231C203.483 109.142 202.552 108.324 201.444 107.779C200.337 107.217 199.089 106.936 197.7 106.936C196.294 106.936 195.046 107.217 193.956 107.779C192.884 108.324 191.97 109.142 191.214 110.231C190.458 111.321 189.878 112.666 189.474 114.266C189.087 115.848 188.894 117.685 188.894 119.776V121.807C188.894 123.881 189.087 125.718 189.474 127.317C189.878 128.917 190.458 130.271 191.214 131.378C191.987 132.468 192.919 133.294 194.009 133.856C195.099 134.419 196.347 134.7 197.753 134.7C199.159 134.7 200.407 134.419 201.497 133.856C202.587 133.294 203.501 132.468 204.239 131.378C204.995 130.271 205.566 128.917 205.953 127.317C206.34 125.718 206.533 123.881 206.533 121.807ZM223.171 101.609H229.446L239.94 130.508L250.408 101.609H256.71L242.445 140H237.409L223.171 101.609ZM220.007 101.609H226.15L227.258 128.161V140H220.007V101.609ZM253.704 101.609H259.874V140H252.623V128.161L253.704 101.609ZM282.022 125.999H272.135V120.304H282.022C283.64 120.304 284.949 120.04 285.951 119.513C286.971 118.968 287.718 118.229 288.192 117.298C288.667 116.349 288.904 115.268 288.904 114.055C288.904 112.877 288.667 111.778 288.192 110.759C287.718 109.739 286.971 108.913 285.951 108.28C284.949 107.647 283.64 107.331 282.022 107.331H274.508V140H267.257V101.609H282.022C285.011 101.609 287.56 102.146 289.669 103.218C291.796 104.272 293.413 105.74 294.521 107.621C295.646 109.484 296.208 111.611 296.208 114.002C296.208 116.48 295.646 118.616 294.521 120.409C293.413 122.202 291.796 123.582 289.669 124.549C287.56 125.516 285.011 125.999 282.022 125.999ZM313.004 107.437L302.062 140H294.389L308.732 101.609H313.637L313.004 107.437ZM322.153 140L311.158 107.437L310.499 101.609H315.43L329.853 140H322.153ZM321.652 125.735V131.457H301.06V125.735H321.652ZM364.657 101.609V140H357.38L341.059 113.369V140H333.808V101.609H341.059L357.433 128.267V101.609H364.657ZM375.784 101.609L384.222 119.513L392.712 101.609H400.675L387.913 125.946V140H380.557V125.946L367.769 101.609H375.784ZM417.972 101.609H431.92C434.838 101.609 437.343 102.049 439.435 102.928C441.526 103.807 443.135 105.107 444.26 106.83C445.385 108.553 445.947 110.671 445.947 113.185C445.947 115.171 445.596 116.894 444.893 118.353C444.189 119.812 443.196 121.033 441.913 122.018C440.647 123.002 439.153 123.775 437.431 124.338L435.163 125.498H422.85L422.797 119.776H431.999C433.493 119.776 434.732 119.513 435.717 118.985C436.701 118.458 437.439 117.729 437.932 116.797C438.441 115.865 438.696 114.802 438.696 113.606C438.696 112.323 438.45 111.216 437.958 110.284C437.466 109.335 436.719 108.605 435.717 108.096C434.715 107.586 433.449 107.331 431.92 107.331H425.223V140H417.972V101.609ZM439.646 140L430.76 122.809L438.433 122.782L447.424 139.631V140H439.646ZM477.746 134.305V140H457.338V134.305H477.746ZM459.553 101.609V140H452.302V101.609H459.553ZM475.083 117.456V123.02H457.338V117.456H475.083ZM477.667 101.609V107.331H457.338V101.609H477.667ZM512.735 120.146V135.096C512.173 135.816 511.285 136.599 510.072 137.442C508.877 138.286 507.312 139.016 505.379 139.631C503.445 140.229 501.072 140.527 498.26 140.527C495.816 140.527 493.584 140.123 491.562 139.314C489.541 138.488 487.801 137.284 486.342 135.702C484.883 134.12 483.758 132.187 482.967 129.901C482.176 127.616 481.78 125.006 481.78 122.07V119.539C481.78 116.604 482.149 113.993 482.888 111.708C483.644 109.423 484.716 107.489 486.104 105.907C487.511 104.325 489.189 103.121 491.141 102.295C493.109 101.469 495.307 101.056 497.732 101.056C500.984 101.056 503.656 101.592 505.748 102.664C507.857 103.736 509.475 105.213 510.6 107.094C511.725 108.957 512.428 111.102 512.709 113.527H505.643C505.449 112.191 505.062 111.022 504.482 110.021C503.902 109.001 503.076 108.21 502.004 107.647C500.949 107.067 499.578 106.777 497.891 106.777C496.467 106.777 495.21 107.059 494.12 107.621C493.03 108.184 492.116 109.001 491.378 110.073C490.64 111.146 490.077 112.473 489.69 114.055C489.321 115.637 489.137 117.447 489.137 119.486V122.07C489.137 124.127 489.348 125.955 489.77 127.555C490.191 129.137 490.798 130.473 491.589 131.562C492.397 132.635 493.391 133.452 494.568 134.015C495.764 134.56 497.117 134.832 498.629 134.832C500 134.832 501.134 134.718 502.03 134.489C502.944 134.243 503.674 133.953 504.219 133.619C504.764 133.285 505.186 132.96 505.484 132.644V125.445H497.864V120.146H512.735ZM527.316 101.609V140H520.065V101.609H527.316ZM555.239 130.033C555.239 129.295 555.125 128.636 554.896 128.056C554.686 127.458 554.29 126.922 553.71 126.447C553.147 125.955 552.348 125.48 551.311 125.023C550.291 124.549 548.973 124.057 547.355 123.547C545.562 122.984 543.893 122.352 542.346 121.648C540.799 120.945 539.437 120.128 538.259 119.196C537.099 118.265 536.193 117.192 535.543 115.979C534.893 114.749 534.567 113.325 534.567 111.708C534.567 110.126 534.901 108.685 535.569 107.384C536.255 106.083 537.222 104.967 538.47 104.035C539.718 103.086 541.186 102.356 542.873 101.847C544.578 101.337 546.459 101.082 548.516 101.082C551.363 101.082 553.824 101.601 555.898 102.638C557.99 103.675 559.607 105.081 560.75 106.856C561.893 108.632 562.464 110.627 562.464 112.842H555.239C555.239 111.646 554.984 110.592 554.475 109.678C553.982 108.764 553.227 108.043 552.207 107.516C551.205 106.988 549.939 106.725 548.41 106.725C546.934 106.725 545.703 106.944 544.719 107.384C543.752 107.823 543.022 108.421 542.53 109.177C542.056 109.933 541.818 110.776 541.818 111.708C541.818 112.411 541.985 113.044 542.319 113.606C542.653 114.151 543.154 114.67 543.822 115.162C544.49 115.637 545.316 116.085 546.301 116.507C547.303 116.911 548.463 117.315 549.781 117.72C551.891 118.353 553.736 119.056 555.318 119.829C556.918 120.603 558.245 121.481 559.3 122.466C560.372 123.45 561.172 124.558 561.699 125.788C562.244 127.019 562.517 128.416 562.517 129.98C562.517 131.633 562.191 133.109 561.541 134.41C560.891 135.711 559.959 136.818 558.746 137.732C557.533 138.646 556.074 139.341 554.369 139.815C552.682 140.29 550.792 140.527 548.7 140.527C546.837 140.527 544.991 140.281 543.163 139.789C541.353 139.279 539.709 138.523 538.232 137.521C536.756 136.502 535.578 135.219 534.699 133.672C533.82 132.107 533.381 130.279 533.381 128.188H540.658C540.658 129.4 540.852 130.438 541.238 131.299C541.643 132.143 542.205 132.837 542.926 133.382C543.664 133.909 544.525 134.296 545.51 134.542C546.494 134.788 547.558 134.911 548.7 134.911C550.177 134.911 551.39 134.709 552.339 134.305C553.306 133.883 554.026 133.303 554.501 132.564C554.993 131.826 555.239 130.982 555.239 130.033ZM584.586 101.609V140H577.361V101.609H584.586ZM596.504 101.609V107.331H565.575V101.609H596.504ZM601.329 101.609H615.277C618.195 101.609 620.7 102.049 622.792 102.928C624.884 103.807 626.492 105.107 627.617 106.83C628.742 108.553 629.305 110.671 629.305 113.185C629.305 115.171 628.953 116.894 628.25 118.353C627.547 119.812 626.554 121.033 625.271 122.018C624.005 123.002 622.511 123.775 620.788 124.338L618.521 125.498H606.207L606.154 119.776H615.356C616.851 119.776 618.09 119.513 619.074 118.985C620.059 118.458 620.797 117.729 621.289 116.797C621.799 115.865 622.054 114.802 622.054 113.606C622.054 112.323 621.808 111.216 621.315 110.284C620.823 109.335 620.076 108.605 619.074 108.096C618.072 107.586 616.807 107.331 615.277 107.331H608.58V140H601.329V101.609ZM623.003 140L614.117 122.809L621.79 122.782L630.781 139.631V140H623.003ZM650.926 107.437L639.983 140H632.311L646.654 101.609H651.559L650.926 107.437ZM660.075 140L649.08 107.437L648.421 101.609H653.352L667.774 140H660.075ZM659.574 125.735V131.457H638.981V125.735H659.574ZM684.887 101.609V140H677.662V101.609H684.887ZM696.805 101.609V107.331H665.876V101.609H696.805ZM709.355 101.609V140H702.104V101.609H709.355ZM748.273 119.829V121.807C748.273 124.707 747.887 127.317 747.113 129.638C746.34 131.94 745.241 133.9 743.817 135.518C742.394 137.135 740.697 138.374 738.729 139.235C736.76 140.097 734.571 140.527 732.163 140.527C729.79 140.527 727.61 140.097 725.624 139.235C723.655 138.374 721.95 137.135 720.509 135.518C719.067 133.9 717.951 131.94 717.16 129.638C716.369 127.317 715.974 124.707 715.974 121.807V119.829C715.974 116.911 716.369 114.301 717.16 111.998C717.951 109.695 719.059 107.735 720.482 106.118C721.906 104.483 723.603 103.235 725.571 102.374C727.558 101.513 729.737 101.082 732.11 101.082C734.519 101.082 736.707 101.513 738.676 102.374C740.645 103.235 742.341 104.483 743.765 106.118C745.206 107.735 746.313 109.695 747.087 111.998C747.878 114.301 748.273 116.911 748.273 119.829ZM740.943 121.807V119.776C740.943 117.685 740.75 115.848 740.363 114.266C739.977 112.666 739.405 111.321 738.649 110.231C737.894 109.142 736.962 108.324 735.854 107.779C734.747 107.217 733.499 106.936 732.11 106.936C730.704 106.936 729.456 107.217 728.366 107.779C727.294 108.324 726.38 109.142 725.624 110.231C724.868 111.321 724.288 112.666 723.884 114.266C723.497 115.848 723.304 117.685 723.304 119.776V121.807C723.304 123.881 723.497 125.718 723.884 127.317C724.288 128.917 724.868 130.271 725.624 131.378C726.397 132.468 727.329 133.294 728.419 133.856C729.509 134.419 730.757 134.7 732.163 134.7C733.569 134.7 734.817 134.419 735.907 133.856C736.997 133.294 737.911 132.468 738.649 131.378C739.405 130.271 739.977 128.917 740.363 127.317C740.75 125.718 740.943 123.881 740.943 121.807ZM785.267 101.609V140H777.989L761.668 113.369V140H754.417V101.609H761.668L778.042 128.267V101.609H785.267ZM813.822 101.609V140H806.571V101.609H813.822ZM852.503 101.609V140H845.226L828.904 113.369V140H821.653V101.609H828.904L845.278 128.267V101.609H852.503Z" fill="#1C4670"/>
<path d="M374.439 166.437L363.497 199H355.824L370.168 160.609H375.072L374.439 166.437ZM383.589 199L372.594 166.437L371.935 160.609H376.865L391.288 199H383.589ZM383.088 184.735V190.457H362.495V184.735H383.088ZM416.126 160.609H423.377V186.106C423.377 189.042 422.744 191.512 421.479 193.516C420.213 195.502 418.49 197.005 416.311 198.024C414.131 199.026 411.652 199.527 408.875 199.527C406.062 199.527 403.558 199.026 401.36 198.024C399.163 197.005 397.44 195.502 396.192 193.516C394.944 191.512 394.32 189.042 394.32 186.106V160.609H401.571V186.106C401.571 187.899 401.87 189.367 402.468 190.51C403.065 191.635 403.909 192.47 404.999 193.015C406.089 193.56 407.381 193.832 408.875 193.832C410.387 193.832 411.679 193.56 412.751 193.015C413.841 192.47 414.676 191.635 415.256 190.51C415.836 189.367 416.126 187.899 416.126 186.106V160.609ZM450.351 189.033C450.351 188.295 450.236 187.636 450.008 187.056C449.797 186.458 449.401 185.922 448.821 185.447C448.259 184.955 447.459 184.48 446.422 184.023C445.402 183.549 444.084 183.057 442.467 182.547C440.674 181.984 439.004 181.352 437.457 180.648C435.91 179.945 434.548 179.128 433.37 178.196C432.21 177.265 431.305 176.192 430.654 174.979C430.004 173.749 429.679 172.325 429.679 170.708C429.679 169.126 430.013 167.685 430.681 166.384C431.366 165.083 432.333 163.967 433.581 163.035C434.829 162.086 436.297 161.356 437.984 160.847C439.689 160.337 441.57 160.082 443.627 160.082C446.475 160.082 448.936 160.601 451.01 161.638C453.102 162.675 454.719 164.081 455.861 165.856C457.004 167.632 457.575 169.627 457.575 171.842H450.351C450.351 170.646 450.096 169.592 449.586 168.678C449.094 167.764 448.338 167.043 447.318 166.516C446.316 165.988 445.051 165.725 443.521 165.725C442.045 165.725 440.814 165.944 439.83 166.384C438.863 166.823 438.134 167.421 437.642 168.177C437.167 168.933 436.93 169.776 436.93 170.708C436.93 171.411 437.097 172.044 437.431 172.606C437.765 173.151 438.266 173.67 438.934 174.162C439.602 174.637 440.428 175.085 441.412 175.507C442.414 175.911 443.574 176.315 444.893 176.72C447.002 177.353 448.848 178.056 450.43 178.829C452.029 179.603 453.356 180.481 454.411 181.466C455.483 182.45 456.283 183.558 456.811 184.788C457.355 186.019 457.628 187.416 457.628 188.98C457.628 190.633 457.303 192.109 456.652 193.41C456.002 194.711 455.07 195.818 453.857 196.732C452.645 197.646 451.186 198.341 449.48 198.815C447.793 199.29 445.903 199.527 443.812 199.527C441.948 199.527 440.103 199.281 438.274 198.789C436.464 198.279 434.82 197.523 433.344 196.521C431.867 195.502 430.689 194.219 429.811 192.672C428.932 191.107 428.492 189.279 428.492 187.188H435.77C435.77 188.4 435.963 189.438 436.35 190.299C436.754 191.143 437.316 191.837 438.037 192.382C438.775 192.909 439.637 193.296 440.621 193.542C441.605 193.788 442.669 193.911 443.812 193.911C445.288 193.911 446.501 193.709 447.45 193.305C448.417 192.883 449.138 192.303 449.612 191.564C450.104 190.826 450.351 189.982 450.351 189.033ZM479.697 160.609V199H472.473V160.609H479.697ZM491.615 160.609V166.331H460.687V160.609H491.615ZM496.44 160.609H510.389C513.307 160.609 515.812 161.049 517.903 161.928C519.995 162.807 521.604 164.107 522.729 165.83C523.854 167.553 524.416 169.671 524.416 172.185C524.416 174.171 524.064 175.894 523.361 177.353C522.658 178.812 521.665 180.033 520.382 181.018C519.116 182.002 517.622 182.775 515.899 183.338L513.632 184.498H501.318L501.266 178.776H510.468C511.962 178.776 513.201 178.513 514.186 177.985C515.17 177.458 515.908 176.729 516.4 175.797C516.91 174.865 517.165 173.802 517.165 172.606C517.165 171.323 516.919 170.216 516.427 169.284C515.935 168.335 515.188 167.605 514.186 167.096C513.184 166.586 511.918 166.331 510.389 166.331H503.691V199H496.44V160.609ZM518.114 199L509.229 181.809L516.901 181.782L525.893 198.631V199H518.114ZM546.037 166.437L535.095 199H527.422L541.766 160.609H546.67L546.037 166.437ZM555.187 199L544.191 166.437L543.532 160.609H548.463L562.886 199H555.187ZM554.686 184.735V190.457H534.093V184.735H554.686ZM591.204 193.305V199H571.903V193.305H591.204ZM574.092 160.609V199H566.841V160.609H574.092ZM603.781 160.609V199H596.53V160.609H603.781ZM627.354 166.437L616.411 199H608.738L623.082 160.609H627.986L627.354 166.437ZM636.503 199L625.508 166.437L624.849 160.609H629.779L644.202 199H636.503ZM636.002 184.735V190.457H615.409V184.735H636.002Z" fill="#FFA229"/>
</g>
<defs>
<clipPath id="clip0_21_3229">
<rect width="1000" height="984" fill="white"/>
</clipPath>
</defs>
</svg>
