<svg width="1016" height="846" viewBox="0 0 1016 846" fill="none" xmlns="http://www.w3.org/2000/svg">
<rect width="1016" height="846" fill="#EAEAEA"/>
<path d="M28.069 233C24.8681 233 21.7983 234.281 19.5349 236.56C17.2716 238.84 16 241.932 16 245.156V394.844C16 398.068 17.2716 401.16 19.5349 403.44C21.7983 405.719 24.8681 407 28.069 407H66V233H28.069Z" fill="#FFA229"/>
<g filter="url(#filter0_d_51_13823)">
<path d="M785 233H66V407H785V233Z" fill="white"/>
</g>
<path d="M353.363 320.986C353.363 320.467 353.283 320.003 353.122 319.595C352.974 319.174 352.695 318.797 352.287 318.463C351.891 318.117 351.328 317.783 350.599 317.461C349.881 317.127 348.953 316.781 347.815 316.422C346.554 316.026 345.379 315.581 344.29 315.086C343.201 314.591 342.243 314.016 341.414 313.36C340.598 312.705 339.961 311.95 339.503 311.097C339.045 310.231 338.816 309.229 338.816 308.091C338.816 306.978 339.051 305.963 339.521 305.048C340.004 304.132 340.684 303.347 341.562 302.691C342.441 302.023 343.474 301.51 344.661 301.151C345.861 300.793 347.185 300.613 348.632 300.613C350.636 300.613 352.368 300.978 353.827 301.708C355.299 302.438 356.437 303.427 357.241 304.677C358.045 305.926 358.447 307.33 358.447 308.889H353.363C353.363 308.048 353.184 307.305 352.825 306.662C352.479 306.019 351.947 305.512 351.229 305.141C350.524 304.77 349.634 304.584 348.558 304.584C347.519 304.584 346.653 304.739 345.96 305.048C345.28 305.357 344.766 305.778 344.42 306.31C344.086 306.841 343.919 307.435 343.919 308.091C343.919 308.586 344.036 309.031 344.271 309.427C344.507 309.81 344.859 310.175 345.329 310.521C345.799 310.855 346.381 311.171 347.073 311.468C347.778 311.752 348.595 312.037 349.522 312.321C351.007 312.767 352.306 313.261 353.419 313.806C354.545 314.35 355.479 314.968 356.221 315.661C356.975 316.354 357.538 317.133 357.909 317.999C358.293 318.865 358.484 319.848 358.484 320.949C358.484 322.112 358.256 323.151 357.798 324.066C357.34 324.982 356.685 325.761 355.831 326.404C354.978 327.048 353.951 327.536 352.751 327.87C351.563 328.204 350.234 328.371 348.762 328.371C347.451 328.371 346.152 328.198 344.865 327.852C343.591 327.493 342.435 326.961 341.396 326.256C340.356 325.538 339.528 324.635 338.909 323.547C338.291 322.446 337.981 321.16 337.981 319.688H343.103C343.103 320.541 343.239 321.271 343.511 321.877C343.795 322.471 344.191 322.959 344.698 323.343C345.218 323.714 345.824 323.986 346.517 324.159C347.209 324.332 347.958 324.419 348.762 324.419C349.801 324.419 350.654 324.277 351.322 323.992C352.003 323.695 352.51 323.287 352.844 322.768C353.19 322.248 353.363 321.654 353.363 320.986ZM371.547 307.924V311.449H360.043V307.924H371.547ZM363.123 302.988H368.04V322.211C368.04 322.805 368.12 323.262 368.281 323.584C368.442 323.906 368.683 324.122 369.005 324.233C369.326 324.345 369.71 324.4 370.155 324.4C370.477 324.4 370.774 324.382 371.046 324.345C371.318 324.308 371.547 324.271 371.732 324.233L371.751 327.907C371.343 328.043 370.879 328.155 370.359 328.241C369.852 328.328 369.277 328.371 368.634 328.371C367.533 328.371 366.568 328.186 365.739 327.814C364.91 327.431 364.267 326.819 363.81 325.978C363.352 325.124 363.123 323.998 363.123 322.601V302.988ZM385.871 323.732V314.474C385.871 313.793 385.754 313.206 385.519 312.711C385.284 312.216 384.925 311.833 384.442 311.561C383.96 311.288 383.348 311.152 382.605 311.152C381.95 311.152 381.375 311.264 380.88 311.486C380.397 311.709 380.026 312.024 379.767 312.433C379.507 312.828 379.377 313.286 379.377 313.806H374.46C374.46 312.977 374.658 312.191 375.054 311.449C375.45 310.695 376.012 310.027 376.742 309.445C377.484 308.852 378.369 308.388 379.396 308.054C380.435 307.72 381.597 307.553 382.884 307.553C384.405 307.553 385.76 307.812 386.947 308.332C388.147 308.839 389.087 309.606 389.768 310.633C390.46 311.66 390.807 312.952 390.807 314.511V323.269C390.807 324.271 390.868 325.13 390.992 325.848C391.128 326.553 391.326 327.165 391.586 327.685V328H386.595C386.36 327.493 386.18 326.85 386.057 326.07C385.933 325.279 385.871 324.499 385.871 323.732ZM386.558 315.772L386.595 318.686H383.496C382.729 318.686 382.055 318.766 381.474 318.927C380.892 319.075 380.416 319.298 380.045 319.595C379.674 319.879 379.396 320.226 379.21 320.634C379.024 321.03 378.932 321.481 378.932 321.988C378.932 322.483 379.043 322.928 379.266 323.324C379.501 323.72 379.835 324.035 380.268 324.271C380.713 324.493 381.232 324.604 381.826 324.604C382.692 324.604 383.447 324.431 384.09 324.085C384.733 323.726 385.234 323.293 385.593 322.786C385.951 322.279 386.143 321.797 386.168 321.339L387.578 323.454C387.405 323.961 387.145 324.499 386.799 325.068C386.452 325.637 386.007 326.169 385.463 326.664C384.919 327.159 384.263 327.567 383.496 327.889C382.729 328.21 381.839 328.371 380.824 328.371C379.525 328.371 378.363 328.111 377.336 327.592C376.309 327.072 375.499 326.361 374.905 325.458C374.312 324.555 374.015 323.528 374.015 322.378C374.015 321.314 374.213 320.374 374.608 319.558C375.004 318.741 375.592 318.055 376.371 317.498C377.15 316.929 378.115 316.502 379.266 316.218C380.428 315.921 381.758 315.772 383.255 315.772H386.558ZM400.028 312.21V328H395.13V307.924H399.731L400.028 312.21ZM399.249 317.238H397.802C397.814 315.779 398.012 314.455 398.396 313.268C398.779 312.08 399.317 311.06 400.01 310.206C400.715 309.353 401.55 308.697 402.515 308.239C403.479 307.782 404.556 307.553 405.743 307.553C406.708 307.553 407.58 307.689 408.359 307.961C409.139 308.233 409.807 308.666 410.363 309.26C410.932 309.854 411.365 310.633 411.662 311.598C411.971 312.55 412.126 313.725 412.126 315.123V328H407.19V315.086C407.19 314.171 407.054 313.447 406.782 312.915C406.522 312.383 406.139 312.006 405.632 311.783C405.137 311.561 404.525 311.449 403.795 311.449C403.04 311.449 402.379 311.604 401.81 311.913C401.253 312.21 400.783 312.624 400.399 313.156C400.028 313.688 399.744 314.3 399.546 314.993C399.348 315.686 399.249 316.434 399.249 317.238ZM428.491 323.732V299.5H433.427V328H428.974L428.491 323.732ZM415.596 318.203V317.813C415.596 316.28 415.769 314.888 416.115 313.639C416.474 312.377 416.993 311.295 417.674 310.392C418.354 309.489 419.177 308.79 420.142 308.295C421.119 307.8 422.226 307.553 423.463 307.553C424.663 307.553 425.708 307.794 426.599 308.276C427.502 308.759 428.269 309.445 428.899 310.336C429.543 311.227 430.056 312.284 430.439 313.509C430.823 314.721 431.101 316.057 431.274 317.517V318.574C431.101 319.997 430.823 321.302 430.439 322.489C430.056 323.677 429.543 324.716 428.899 325.606C428.269 326.485 427.502 327.165 426.599 327.647C425.696 328.13 424.638 328.371 423.426 328.371C422.201 328.371 421.1 328.118 420.123 327.61C419.158 327.103 418.336 326.392 417.655 325.477C416.987 324.561 416.474 323.485 416.115 322.248C415.769 321.011 415.596 319.663 415.596 318.203ZM420.513 317.813V318.203C420.513 319.069 420.587 319.879 420.735 320.634C420.884 321.388 421.125 322.056 421.459 322.638C421.793 323.207 422.22 323.652 422.739 323.974C423.271 324.295 423.914 324.456 424.669 324.456C425.634 324.456 426.425 324.246 427.044 323.825C427.675 323.392 428.163 322.805 428.51 322.062C428.856 321.308 429.079 320.461 429.178 319.521V316.607C429.128 315.865 428.998 315.179 428.788 314.548C428.59 313.917 428.306 313.373 427.935 312.915C427.576 312.457 427.131 312.099 426.599 311.839C426.067 311.579 425.436 311.449 424.706 311.449C423.951 311.449 423.308 311.616 422.776 311.95C422.244 312.272 421.812 312.723 421.478 313.305C421.144 313.886 420.896 314.56 420.735 315.327C420.587 316.094 420.513 316.923 420.513 317.813ZM448.92 323.732V314.474C448.92 313.793 448.802 313.206 448.567 312.711C448.332 312.216 447.974 311.833 447.491 311.561C447.009 311.288 446.396 311.152 445.654 311.152C444.999 311.152 444.424 311.264 443.929 311.486C443.446 311.709 443.075 312.024 442.815 312.433C442.556 312.828 442.426 313.286 442.426 313.806H437.509C437.509 312.977 437.707 312.191 438.103 311.449C438.498 310.695 439.061 310.027 439.791 309.445C440.533 308.852 441.418 308.388 442.444 308.054C443.483 307.72 444.646 307.553 445.933 307.553C447.454 307.553 448.809 307.812 449.996 308.332C451.196 308.839 452.136 309.606 452.816 310.633C453.509 311.66 453.855 312.952 453.855 314.511V323.269C453.855 324.271 453.917 325.13 454.041 325.848C454.177 326.553 454.375 327.165 454.635 327.685V328H449.644C449.409 327.493 449.229 326.85 449.105 326.07C448.982 325.279 448.92 324.499 448.92 323.732ZM449.606 315.772L449.644 318.686H446.545C445.778 318.686 445.104 318.766 444.522 318.927C443.941 319.075 443.465 319.298 443.094 319.595C442.723 319.879 442.444 320.226 442.259 320.634C442.073 321.03 441.98 321.481 441.98 321.988C441.98 322.483 442.092 322.928 442.314 323.324C442.549 323.72 442.883 324.035 443.316 324.271C443.762 324.493 444.281 324.604 444.875 324.604C445.741 324.604 446.495 324.431 447.139 324.085C447.782 323.726 448.283 323.293 448.642 322.786C449 322.279 449.192 321.797 449.217 321.339L450.627 323.454C450.454 323.961 450.194 324.499 449.848 325.068C449.501 325.637 449.056 326.169 448.512 326.664C447.967 327.159 447.312 327.567 446.545 327.889C445.778 328.21 444.887 328.371 443.873 328.371C442.574 328.371 441.411 328.111 440.385 327.592C439.358 327.072 438.548 326.361 437.954 325.458C437.36 324.555 437.063 323.528 437.063 322.378C437.063 321.314 437.261 320.374 437.657 319.558C438.053 318.741 438.641 318.055 439.42 317.498C440.199 316.929 441.164 316.502 442.314 316.218C443.477 315.921 444.807 315.772 446.304 315.772H449.606ZM463.17 312.024V328H458.271V307.924H462.91L463.17 312.024ZM469.274 307.794L469.2 312.358C468.928 312.309 468.619 312.272 468.272 312.247C467.938 312.222 467.623 312.21 467.326 312.21C466.572 312.21 465.91 312.315 465.341 312.525C464.772 312.723 464.296 313.014 463.912 313.397C463.541 313.781 463.257 314.251 463.059 314.808C462.861 315.352 462.749 315.97 462.725 316.663L461.667 316.533C461.667 315.259 461.797 314.078 462.057 312.989C462.316 311.901 462.694 310.948 463.188 310.132C463.683 309.315 464.302 308.685 465.044 308.239C465.799 307.782 466.664 307.553 467.642 307.553C467.914 307.553 468.204 307.577 468.514 307.627C468.835 307.664 469.089 307.72 469.274 307.794ZM483.636 323.732V299.5H488.571V328H484.118L483.636 323.732ZM470.74 318.203V317.813C470.74 316.28 470.913 314.888 471.26 313.639C471.618 312.377 472.138 311.295 472.818 310.392C473.499 309.489 474.321 308.79 475.286 308.295C476.263 307.8 477.37 307.553 478.607 307.553C479.807 307.553 480.853 307.794 481.743 308.276C482.646 308.759 483.413 309.445 484.044 310.336C484.687 311.227 485.201 312.284 485.584 313.509C485.967 314.721 486.246 316.057 486.419 317.517V318.574C486.246 319.997 485.967 321.302 485.584 322.489C485.201 323.677 484.687 324.716 484.044 325.606C483.413 326.485 482.646 327.165 481.743 327.647C480.84 328.13 479.783 328.371 478.57 328.371C477.346 328.371 476.245 328.118 475.268 327.61C474.303 327.103 473.48 326.392 472.8 325.477C472.132 324.561 471.618 323.485 471.26 322.248C470.913 321.011 470.74 319.663 470.74 318.203ZM475.657 317.813V318.203C475.657 319.069 475.731 319.879 475.88 320.634C476.028 321.388 476.27 322.056 476.604 322.638C476.938 323.207 477.364 323.652 477.884 323.974C478.416 324.295 479.059 324.456 479.813 324.456C480.778 324.456 481.57 324.246 482.188 323.825C482.819 323.392 483.308 322.805 483.654 322.062C484.001 321.308 484.223 320.461 484.322 319.521V316.607C484.273 315.865 484.143 315.179 483.933 314.548C483.735 313.917 483.45 313.373 483.079 312.915C482.72 312.457 482.275 312.099 481.743 311.839C481.211 311.579 480.58 311.449 479.851 311.449C479.096 311.449 478.453 311.616 477.921 311.95C477.389 312.272 476.956 312.723 476.622 313.305C476.288 313.886 476.041 314.56 475.88 315.327C475.731 316.094 475.657 316.923 475.657 317.813ZM504.046 322.508C504.046 322.087 503.935 321.71 503.712 321.376C503.489 321.042 503.069 320.739 502.45 320.467C501.844 320.182 500.953 319.916 499.778 319.669C498.739 319.446 497.781 319.168 496.902 318.834C496.024 318.5 495.27 318.098 494.639 317.628C494.008 317.146 493.513 316.583 493.154 315.939C492.808 315.284 492.635 314.529 492.635 313.676C492.635 312.847 492.814 312.068 493.173 311.338C493.532 310.596 494.051 309.946 494.731 309.39C495.412 308.821 496.241 308.375 497.218 308.054C498.195 307.72 499.296 307.553 500.521 307.553C502.228 307.553 503.693 307.831 504.918 308.388C506.155 308.944 507.101 309.711 507.757 310.688C508.412 311.653 508.74 312.742 508.74 313.954H503.842C503.842 313.422 503.718 312.94 503.471 312.507C503.236 312.074 502.871 311.728 502.376 311.468C501.881 311.196 501.257 311.06 500.502 311.06C499.822 311.06 499.246 311.171 498.776 311.394C498.319 311.616 497.972 311.907 497.737 312.266C497.502 312.624 497.385 313.02 497.385 313.453C497.385 313.775 497.447 314.065 497.57 314.325C497.706 314.573 497.923 314.801 498.22 315.012C498.517 315.222 498.919 315.414 499.426 315.587C499.945 315.76 500.582 315.927 501.337 316.088C502.834 316.385 504.139 316.781 505.252 317.275C506.378 317.758 507.256 318.401 507.887 319.205C508.518 320.009 508.833 321.036 508.833 322.285C508.833 323.176 508.641 323.992 508.258 324.734C507.874 325.464 507.318 326.101 506.588 326.646C505.858 327.19 504.986 327.617 503.972 327.926C502.957 328.223 501.813 328.371 500.539 328.371C498.696 328.371 497.137 328.043 495.863 327.388C494.589 326.72 493.624 325.879 492.969 324.864C492.313 323.838 491.985 322.774 491.985 321.673H496.68C496.717 322.452 496.927 323.077 497.311 323.547C497.694 324.017 498.176 324.357 498.758 324.567C499.352 324.765 499.976 324.864 500.632 324.864C501.374 324.864 501.999 324.765 502.506 324.567C503.013 324.357 503.396 324.079 503.656 323.732C503.916 323.374 504.046 322.965 504.046 322.508Z" fill="#1C4670"/>
<path d="M987.827 233H785V407H987.827C991.056 407 994.152 405.72 996.435 403.441C998.717 401.162 1000 398.072 1000 394.849V245.22C1000.01 243.619 999.701 242.031 999.093 240.549C998.486 239.067 997.59 237.719 996.459 236.583C995.328 235.448 993.983 234.547 992.502 233.932C991.02 233.317 989.432 233 987.827 233Z" fill="#FFA229"/>
<path opacity="0.2" d="M815 407H987.871C991.088 407 994.173 405.727 996.448 403.462C998.722 401.196 1000 398.123 1000 394.919V249C950.324 270.331 879.889 314.841 815 407Z" fill="white"/>
<path d="M870.264 358.703C863.73 358.703 858.677 356.872 855.103 353.21C851.558 349.548 849.785 344.274 849.785 337.39V302.497C849.785 295.231 851.47 289.665 854.839 285.798C858.237 281.901 863.379 279.953 870.264 279.953C877.178 279.953 882.319 281.901 885.688 285.798C889.058 289.665 890.742 295.231 890.742 302.497V337.39C890.742 344.274 888.97 349.548 885.425 353.21C881.88 356.872 876.826 358.703 870.264 358.703ZM870.264 344.465C871.465 344.465 872.402 343.923 873.076 342.839C873.75 341.755 874.087 340.539 874.087 339.191V301.003C874.087 299.187 873.882 297.604 873.472 296.257C873.091 294.88 872.021 294.191 870.264 294.191C868.506 294.191 867.422 294.88 867.012 296.257C866.631 297.604 866.44 299.187 866.44 301.003V339.191C866.44 340.539 866.777 341.755 867.451 342.839C868.154 343.923 869.092 344.465 870.264 344.465ZM895.225 358V354.309C895.225 350.471 895.811 347.028 896.982 343.981C898.184 340.905 899.722 338.063 901.597 335.456C903.472 332.819 905.449 330.241 907.529 327.722C909.551 325.261 911.47 322.741 913.286 320.163C915.132 317.556 916.626 314.743 917.769 311.726C918.94 308.679 919.526 305.266 919.526 301.486C919.526 299.67 919.248 298.117 918.691 296.828C918.164 295.51 917.051 294.851 915.352 294.851C912.773 294.851 911.484 297.15 911.484 301.75V311.198H895.225C895.195 310.524 895.151 309.763 895.093 308.913C895.063 308.063 895.049 307.243 895.049 306.452C895.049 300.886 895.635 296.169 896.807 292.302C897.979 288.405 900.044 285.446 903.003 283.425C905.991 281.374 910.181 280.349 915.571 280.349C921.987 280.349 926.968 282.15 930.513 285.754C934.087 289.357 935.874 294.499 935.874 301.179C935.874 305.72 935.288 309.704 934.116 313.132C932.944 316.53 931.392 319.636 929.458 322.448C927.524 325.231 925.4 328.015 923.086 330.798C921.445 332.761 919.849 334.768 918.296 336.818C916.772 338.869 915.425 341.066 914.253 343.41H935.347V358H895.225Z" fill="white"/>
<path d="M28.069 439C24.8681 439 21.7983 440.281 19.5349 442.56C17.2716 444.84 16 447.932 16 451.156V600.844C16 604.068 17.2716 607.16 19.5349 609.44C21.7983 611.719 24.8681 613 28.069 613H66V439H28.069Z" fill="#1C4670"/>
<g filter="url(#filter1_d_51_13823)">
<path d="M785 439H66V613H785V439Z" fill="white"/>
</g>
<path d="M358.896 529.992V534H344.535V529.992H358.896ZM346.094 506.984V534H340.991V506.984H346.094ZM357.022 518.136V522.051H344.535V518.136H357.022ZM358.841 506.984V511.011H344.535V506.984H358.841ZM368.489 534H363.554V512.068C363.554 510.559 363.844 509.291 364.426 508.265C365.007 507.226 365.836 506.44 366.912 505.908C367.988 505.376 369.256 505.11 370.716 505.11C371.198 505.11 371.656 505.141 372.089 505.203C372.534 505.265 372.973 505.352 373.406 505.463L373.313 509.192C373.078 509.131 372.819 509.087 372.534 509.062C372.262 509.038 371.959 509.025 371.625 509.025C370.957 509.025 370.388 509.143 369.918 509.378C369.448 509.613 369.089 509.959 368.842 510.417C368.607 510.862 368.489 511.413 368.489 512.068V534ZM372.646 513.924V517.449H360.529V513.924H372.646ZM380.253 534H375.336V512.811C375.336 511.153 375.67 509.755 376.338 508.617C377.006 507.467 377.971 506.595 379.232 506.001C380.494 505.407 382.009 505.11 383.778 505.11C384.805 505.11 385.795 505.215 386.747 505.426C387.7 505.624 388.689 505.883 389.716 506.205L388.992 510.176C388.337 509.965 387.619 509.768 386.84 509.582C386.061 509.396 385.145 509.304 384.094 509.304C382.807 509.304 381.842 509.601 381.199 510.194C380.568 510.788 380.253 511.66 380.253 512.811V534ZM384.261 513.924V517.449H372.293V513.924H384.261ZM392.017 513.924V534H387.1V513.924H392.017ZM404.968 530.512C405.66 530.512 406.279 530.376 406.823 530.104C407.368 529.831 407.8 529.448 408.122 528.953C408.456 528.458 408.635 527.883 408.66 527.228H413.28C413.256 528.588 412.872 529.807 412.13 530.883C411.388 531.959 410.398 532.812 409.161 533.443C407.937 534.062 406.563 534.371 405.042 534.371C403.496 534.371 402.147 534.111 400.997 533.592C399.847 533.072 398.888 532.349 398.121 531.421C397.367 530.493 396.798 529.417 396.414 528.192C396.043 526.968 395.857 525.657 395.857 524.259V523.665C395.857 522.267 396.043 520.956 396.414 519.731C396.798 518.507 397.367 517.431 398.121 516.503C398.888 515.575 399.847 514.852 400.997 514.332C402.147 513.812 403.49 513.553 405.023 513.553C406.644 513.553 408.066 513.868 409.291 514.499C410.528 515.13 411.493 516.021 412.186 517.171C412.891 518.321 413.256 519.676 413.28 521.234H408.66C408.635 520.517 408.475 519.874 408.178 519.305C407.881 518.736 407.46 518.278 406.916 517.932C406.372 517.585 405.71 517.412 404.931 517.412C404.102 517.412 403.409 517.585 402.853 517.932C402.308 518.278 401.882 518.754 401.572 519.36C401.275 519.954 401.065 520.622 400.941 521.364C400.83 522.094 400.774 522.861 400.774 523.665V524.259C400.774 525.075 400.83 525.854 400.941 526.597C401.065 527.339 401.275 528.007 401.572 528.601C401.882 529.182 402.308 529.646 402.853 529.992C403.409 530.339 404.114 530.512 404.968 530.512ZM421.741 513.924V534H416.824V513.924H421.741ZM416.49 508.673C416.49 507.943 416.738 507.337 417.232 506.854C417.74 506.372 418.42 506.131 419.273 506.131C420.127 506.131 420.801 506.372 421.296 506.854C421.803 507.337 422.057 507.943 422.057 508.673C422.057 509.39 421.803 509.99 421.296 510.473C420.801 510.955 420.127 511.196 419.273 511.196C418.42 511.196 417.74 510.955 417.232 510.473C416.738 509.99 416.49 509.39 416.49 508.673ZM435.435 534.371C433.913 534.371 432.546 534.124 431.334 533.629C430.122 533.134 429.089 532.448 428.235 531.569C427.394 530.679 426.745 529.646 426.287 528.471C425.842 527.283 425.619 526.009 425.619 524.648V523.906C425.619 522.36 425.842 520.956 426.287 519.694C426.732 518.42 427.363 517.326 428.18 516.41C428.996 515.495 429.973 514.79 431.111 514.295C432.249 513.8 433.505 513.553 434.878 513.553C436.3 513.553 437.556 513.794 438.645 514.276C439.733 514.746 440.642 515.414 441.372 516.28C442.102 517.146 442.652 518.185 443.023 519.397C443.395 520.597 443.58 521.927 443.58 523.387V525.446H427.846V522.069H438.756V521.698C438.731 520.919 438.583 520.208 438.311 519.564C438.038 518.909 437.618 518.389 437.049 518.006C436.48 517.61 435.744 517.412 434.841 517.412C434.111 517.412 433.474 517.573 432.93 517.895C432.398 518.204 431.952 518.649 431.594 519.23C431.247 519.799 430.988 520.48 430.814 521.271C430.641 522.063 430.555 522.941 430.555 523.906V524.648C430.555 525.49 430.666 526.269 430.889 526.986C431.124 527.704 431.464 528.328 431.909 528.86C432.367 529.38 432.911 529.788 433.542 530.085C434.185 530.369 434.915 530.512 435.731 530.512C436.758 530.512 437.686 530.314 438.515 529.918C439.356 529.51 440.086 528.91 440.704 528.118L443.172 530.679C442.751 531.297 442.182 531.891 441.465 532.46C440.76 533.029 439.906 533.493 438.904 533.852C437.902 534.198 436.746 534.371 435.435 534.371ZM451.67 518.21V534H446.771V513.924H451.373L451.67 518.21ZM450.891 523.238H449.443C449.456 521.779 449.654 520.455 450.037 519.268C450.421 518.08 450.959 517.06 451.651 516.206C452.356 515.353 453.191 514.697 454.156 514.239C455.121 513.782 456.197 513.553 457.385 513.553C458.35 513.553 459.222 513.689 460.001 513.961C460.78 514.233 461.448 514.666 462.005 515.26C462.574 515.854 463.007 516.633 463.304 517.598C463.613 518.55 463.768 519.725 463.768 521.123V534H458.832V521.086C458.832 520.171 458.696 519.447 458.424 518.915C458.164 518.383 457.781 518.006 457.273 517.783C456.779 517.561 456.166 517.449 455.437 517.449C454.682 517.449 454.02 517.604 453.451 517.913C452.895 518.21 452.424 518.624 452.041 519.156C451.67 519.688 451.385 520.3 451.188 520.993C450.99 521.686 450.891 522.434 450.891 523.238ZM476.329 530.512C477.022 530.512 477.64 530.376 478.185 530.104C478.729 529.831 479.162 529.448 479.483 528.953C479.817 528.458 479.997 527.883 480.021 527.228H484.642C484.617 528.588 484.233 529.807 483.491 530.883C482.749 531.959 481.759 532.812 480.522 533.443C479.298 534.062 477.925 534.371 476.403 534.371C474.857 534.371 473.509 534.111 472.358 533.592C471.208 533.072 470.249 532.349 469.482 531.421C468.728 530.493 468.159 529.417 467.775 528.192C467.404 526.968 467.219 525.657 467.219 524.259V523.665C467.219 522.267 467.404 520.956 467.775 519.731C468.159 518.507 468.728 517.431 469.482 516.503C470.249 515.575 471.208 514.852 472.358 514.332C473.509 513.812 474.851 513.553 476.385 513.553C478.005 513.553 479.428 513.868 480.652 514.499C481.889 515.13 482.854 516.021 483.547 517.171C484.252 518.321 484.617 519.676 484.642 521.234H480.021C479.997 520.517 479.836 519.874 479.539 519.305C479.242 518.736 478.822 518.278 478.277 517.932C477.733 517.585 477.071 517.412 476.292 517.412C475.463 517.412 474.771 517.585 474.214 517.932C473.67 518.278 473.243 518.754 472.934 519.36C472.637 519.954 472.426 520.622 472.303 521.364C472.191 522.094 472.136 522.861 472.136 523.665V524.259C472.136 525.075 472.191 525.854 472.303 526.597C472.426 527.339 472.637 528.007 472.934 528.601C473.243 529.182 473.67 529.646 474.214 529.992C474.771 530.339 475.476 530.512 476.329 530.512ZM493.789 531.773L499.17 513.924H504.421L496.368 537.043C496.183 537.538 495.941 538.076 495.645 538.657C495.36 539.239 494.977 539.789 494.494 540.309C494.012 540.84 493.406 541.273 492.676 541.607C491.958 541.941 491.086 542.108 490.06 542.108C489.614 542.108 489.218 542.077 488.872 542.016C488.526 541.954 488.161 541.873 487.777 541.774V538.101C487.901 538.113 488.043 538.119 488.204 538.119C488.377 538.132 488.526 538.138 488.649 538.138C489.367 538.138 489.961 538.051 490.431 537.878C490.901 537.717 491.278 537.451 491.562 537.08C491.859 536.721 492.107 536.251 492.305 535.67L493.789 531.773ZM491.136 513.924L495.682 528.712L496.479 533.889L493.103 534.501L485.848 513.924H491.136Z" fill="#1C4670"/>
<path d="M987.827 439H785V613H987.827C991.056 613 994.152 611.72 996.435 609.441C998.717 607.162 1000 604.072 1000 600.849V451.22C1000.01 449.619 999.701 448.031 999.093 446.549C998.486 445.067 997.59 443.719 996.459 442.583C995.328 441.448 993.983 440.547 992.502 439.932C991.02 439.317 989.432 439 987.827 439Z" fill="#1C4670"/>
<path d="M870.264 564.703C863.73 564.703 858.677 562.872 855.103 559.21C851.558 555.548 849.785 550.274 849.785 543.39V508.497C849.785 501.231 851.47 495.665 854.839 491.798C858.237 487.901 863.379 485.953 870.264 485.953C877.178 485.953 882.319 487.901 885.688 491.798C889.058 495.665 890.742 501.231 890.742 508.497V543.39C890.742 550.274 888.97 555.548 885.425 559.21C881.88 562.872 876.826 564.703 870.264 564.703ZM870.264 550.465C871.465 550.465 872.402 549.923 873.076 548.839C873.75 547.755 874.087 546.539 874.087 545.191V507.003C874.087 505.187 873.882 503.604 873.472 502.257C873.091 500.88 872.021 500.191 870.264 500.191C868.506 500.191 867.422 500.88 867.012 502.257C866.631 503.604 866.44 505.187 866.44 507.003V545.191C866.44 546.539 866.777 547.755 867.451 548.839C868.154 549.923 869.092 550.465 870.264 550.465ZM913.77 564.879C906.943 564.879 901.978 563.077 898.872 559.474C895.767 555.87 894.214 550.436 894.214 543.17V535.084H910.078V543.214C910.078 545.265 910.327 547.008 910.825 548.443C911.353 549.85 912.51 550.553 914.297 550.553C916.113 550.553 917.271 549.791 917.769 548.268C918.267 546.715 918.516 544.195 918.516 540.709V538.775C918.516 536.109 918.062 533.78 917.153 531.788C916.274 529.796 914.531 528.8 911.924 528.8C911.602 528.8 911.309 528.814 911.045 528.844C910.811 528.844 910.605 528.858 910.43 528.888V515.001C913.096 515.001 915.132 514.415 916.538 513.243C917.944 512.042 918.647 510.05 918.647 507.267C918.647 502.901 917.388 500.719 914.868 500.719C913.228 500.719 912.114 501.363 911.528 502.652C910.972 503.912 910.693 505.523 910.693 507.486V509.815H894.697C894.668 509.464 894.639 509.039 894.609 508.541C894.609 508.043 894.609 507.56 894.609 507.091C894.609 500.001 896.265 494.801 899.575 491.49C902.886 488.18 907.954 486.524 914.78 486.524C927.964 486.524 934.556 493.38 934.556 507.091C934.556 510.899 934.043 514.049 933.018 516.539C931.992 519 930.088 520.729 927.305 521.725C929.502 522.779 931.128 524.127 932.183 525.768C933.237 527.408 933.926 529.444 934.248 531.876C934.57 534.308 934.731 537.252 934.731 540.709C934.731 548.443 933.105 554.405 929.854 558.595C926.631 562.784 921.27 564.879 913.77 564.879Z" fill="white"/>
<path opacity="0.2" d="M815 613H987.871C991.088 613 994.173 611.719 996.448 609.439C998.722 607.159 1000 604.067 1000 600.843V454C950.324 475.484 879.889 520.257 815 613Z" fill="white"/>
<path d="M28.069 641C24.8681 641 21.7983 642.281 19.5349 644.561C17.2716 646.84 16 649.933 16 653.157V802.843C16 806.067 17.2716 809.159 19.5349 811.439C21.7983 813.719 24.8681 815 28.069 815H66V641H28.069Z" fill="#FFA229"/>
<g filter="url(#filter2_d_51_13823)">
<path d="M785 641H66V815H785V641Z" fill="white"/>
</g>
<path d="M335.194 708.984H345.01C347.063 708.984 348.826 709.294 350.298 709.912C351.77 710.531 352.902 711.446 353.693 712.658C354.485 713.87 354.881 715.361 354.881 717.13C354.881 718.528 354.633 719.74 354.139 720.767C353.644 721.793 352.945 722.653 352.042 723.346C351.151 724.038 350.1 724.583 348.888 724.979L347.292 725.795H338.627L338.59 721.769H345.065C346.117 721.769 346.989 721.583 347.682 721.212C348.374 720.841 348.894 720.327 349.24 719.672C349.599 719.016 349.778 718.268 349.778 717.427C349.778 716.524 349.605 715.744 349.259 715.089C348.912 714.421 348.387 713.908 347.682 713.549C346.977 713.19 346.086 713.011 345.01 713.011H340.297V736H335.194V708.984ZM350.446 736L344.193 723.902L349.593 723.884L355.92 735.74V736H350.446ZM367.999 736.371C366.478 736.371 365.111 736.124 363.898 735.629C362.686 735.134 361.653 734.448 360.8 733.569C359.959 732.679 359.309 731.646 358.852 730.471C358.406 729.283 358.184 728.009 358.184 726.648V725.906C358.184 724.36 358.406 722.956 358.852 721.694C359.297 720.42 359.928 719.326 360.744 718.41C361.561 717.495 362.538 716.79 363.676 716.295C364.814 715.8 366.069 715.553 367.442 715.553C368.865 715.553 370.12 715.794 371.209 716.276C372.298 716.746 373.207 717.414 373.937 718.28C374.666 719.146 375.217 720.185 375.588 721.397C375.959 722.597 376.145 723.927 376.145 725.387V727.446H360.41V724.069H371.32V723.698C371.296 722.919 371.147 722.208 370.875 721.564C370.603 720.909 370.182 720.389 369.613 720.006C369.044 719.61 368.308 719.412 367.405 719.412C366.675 719.412 366.038 719.573 365.494 719.895C364.962 720.204 364.517 720.649 364.158 721.23C363.812 721.799 363.552 722.48 363.379 723.271C363.206 724.063 363.119 724.941 363.119 725.906V726.648C363.119 727.49 363.23 728.269 363.453 728.986C363.688 729.704 364.028 730.328 364.474 730.86C364.931 731.38 365.476 731.788 366.106 732.085C366.75 732.369 367.479 732.512 368.296 732.512C369.323 732.512 370.25 732.314 371.079 731.918C371.92 731.51 372.65 730.91 373.269 730.118L375.736 732.679C375.316 733.297 374.747 733.891 374.029 734.46C373.324 735.029 372.471 735.493 371.469 735.852C370.467 736.198 369.31 736.371 367.999 736.371ZM384.327 719.783V743.719H379.41V715.924H383.956L384.327 719.783ZM397.223 725.758V726.147C397.223 727.607 397.049 728.962 396.703 730.211C396.369 731.448 395.874 732.53 395.219 733.458C394.563 734.373 393.747 735.091 392.77 735.61C391.805 736.118 390.691 736.371 389.43 736.371C388.193 736.371 387.117 736.136 386.201 735.666C385.286 735.184 384.513 734.503 383.882 733.625C383.251 732.747 382.744 731.726 382.36 730.563C381.989 729.388 381.711 728.108 381.525 726.723V725.479C381.711 724.007 381.989 722.672 382.36 721.472C382.744 720.259 383.251 719.214 383.882 718.336C384.513 717.445 385.28 716.759 386.183 716.276C387.098 715.794 388.168 715.553 389.393 715.553C390.667 715.553 391.786 715.794 392.751 716.276C393.728 716.759 394.551 717.451 395.219 718.354C395.887 719.257 396.388 720.334 396.722 721.583C397.056 722.832 397.223 724.224 397.223 725.758ZM392.306 726.147V725.758C392.306 724.867 392.225 724.045 392.064 723.29C391.904 722.523 391.656 721.855 391.322 721.286C390.988 720.705 390.555 720.253 390.023 719.932C389.492 719.61 388.848 719.449 388.094 719.449C387.339 719.449 386.69 719.573 386.146 719.82C385.601 720.068 385.156 720.42 384.81 720.878C384.463 721.336 384.191 721.88 383.993 722.511C383.808 723.129 383.684 723.816 383.622 724.57V727.65C383.733 728.566 383.95 729.388 384.271 730.118C384.593 730.848 385.063 731.429 385.682 731.862C386.312 732.295 387.129 732.512 388.131 732.512C388.885 732.512 389.529 732.345 390.061 732.011C390.592 731.677 391.025 731.219 391.359 730.638C391.693 730.044 391.935 729.364 392.083 728.597C392.231 727.83 392.306 727.013 392.306 726.147ZM412.753 731.231V715.924H417.688V736H413.05L412.753 731.231ZM413.384 727.075L414.905 727.038C414.905 728.386 414.757 729.63 414.46 730.768C414.163 731.906 413.699 732.895 413.068 733.736C412.45 734.565 411.664 735.215 410.712 735.685C409.759 736.142 408.634 736.371 407.335 736.371C406.345 736.371 405.442 736.235 404.626 735.963C403.81 735.678 403.104 735.239 402.511 734.646C401.929 734.039 401.478 733.266 401.156 732.326C400.835 731.374 400.674 730.229 400.674 728.894V715.924H405.572V728.931C405.572 729.599 405.646 730.155 405.795 730.601C405.956 731.046 406.172 731.411 406.444 731.695C406.729 731.967 407.057 732.165 407.428 732.289C407.811 732.4 408.219 732.456 408.652 732.456C409.84 732.456 410.774 732.221 411.454 731.751C412.147 731.269 412.642 730.625 412.938 729.821C413.235 729.005 413.384 728.09 413.384 727.075ZM431.53 715.924V719.449H420.026V715.924H431.53ZM423.106 710.988H428.023V730.211C428.023 730.805 428.104 731.262 428.265 731.584C428.425 731.906 428.667 732.122 428.988 732.233C429.31 732.345 429.693 732.4 430.139 732.4C430.46 732.4 430.757 732.382 431.029 732.345C431.301 732.308 431.53 732.271 431.716 732.233L431.734 735.907C431.326 736.043 430.862 736.155 430.343 736.241C429.836 736.328 429.26 736.371 428.617 736.371C427.516 736.371 426.551 736.186 425.723 735.814C424.894 735.431 424.251 734.819 423.793 733.978C423.335 733.124 423.106 731.998 423.106 730.601V710.988ZM445.854 731.732V722.474C445.854 721.793 445.737 721.206 445.502 720.711C445.267 720.216 444.908 719.833 444.426 719.561C443.943 719.288 443.331 719.152 442.589 719.152C441.933 719.152 441.358 719.264 440.863 719.486C440.381 719.709 440.01 720.024 439.75 720.433C439.49 720.828 439.36 721.286 439.36 721.806H434.443C434.443 720.977 434.641 720.191 435.037 719.449C435.433 718.695 435.996 718.027 436.726 717.445C437.468 716.852 438.352 716.388 439.379 716.054C440.418 715.72 441.581 715.553 442.867 715.553C444.389 715.553 445.743 715.812 446.931 716.332C448.131 716.839 449.071 717.606 449.751 718.633C450.444 719.66 450.79 720.952 450.79 722.511V731.269C450.79 732.271 450.852 733.13 450.976 733.848C451.112 734.553 451.31 735.165 451.569 735.685V736H446.578C446.343 735.493 446.164 734.85 446.04 734.07C445.916 733.279 445.854 732.499 445.854 731.732ZM446.541 723.772L446.578 726.686H443.479C442.713 726.686 442.038 726.766 441.457 726.927C440.876 727.075 440.399 727.298 440.028 727.595C439.657 727.879 439.379 728.226 439.193 728.634C439.008 729.03 438.915 729.481 438.915 729.988C438.915 730.483 439.026 730.928 439.249 731.324C439.484 731.72 439.818 732.035 440.251 732.271C440.696 732.493 441.216 732.604 441.81 732.604C442.675 732.604 443.43 732.431 444.073 732.085C444.716 731.726 445.217 731.293 445.576 730.786C445.935 730.279 446.127 729.797 446.151 729.339L447.562 731.454C447.388 731.961 447.129 732.499 446.782 733.068C446.436 733.637 445.991 734.169 445.446 734.664C444.902 735.159 444.246 735.567 443.479 735.889C442.713 736.21 441.822 736.371 440.808 736.371C439.509 736.371 438.346 736.111 437.319 735.592C436.293 735.072 435.482 734.361 434.889 733.458C434.295 732.555 433.998 731.528 433.998 730.378C433.998 729.314 434.196 728.374 434.592 727.558C434.988 726.741 435.575 726.055 436.354 725.498C437.134 724.929 438.099 724.502 439.249 724.218C440.412 723.921 441.742 723.772 443.238 723.772H446.541ZM464.706 715.924V719.449H453.202V715.924H464.706ZM456.282 710.988H461.199V730.211C461.199 730.805 461.28 731.262 461.44 731.584C461.601 731.906 461.842 732.122 462.164 732.233C462.486 732.345 462.869 732.4 463.314 732.4C463.636 732.4 463.933 732.382 464.205 732.345C464.477 732.308 464.706 732.271 464.892 732.233L464.91 735.907C464.502 736.043 464.038 736.155 463.519 736.241C463.011 736.328 462.436 736.371 461.793 736.371C460.692 736.371 459.727 736.186 458.898 735.814C458.07 735.431 457.426 734.819 456.969 733.978C456.511 733.124 456.282 731.998 456.282 730.601V710.988ZM473.167 715.924V736H468.25V715.924H473.167ZM467.916 710.673C467.916 709.943 468.163 709.337 468.658 708.854C469.165 708.372 469.846 708.131 470.699 708.131C471.553 708.131 472.227 708.372 472.722 708.854C473.229 709.337 473.482 709.943 473.482 710.673C473.482 711.39 473.229 711.99 472.722 712.473C472.227 712.955 471.553 713.196 470.699 713.196C469.846 713.196 469.165 712.955 468.658 712.473C468.163 711.99 467.916 711.39 467.916 710.673ZM476.971 726.166V725.776C476.971 724.304 477.181 722.95 477.602 721.713C478.022 720.464 478.634 719.381 479.438 718.466C480.243 717.55 481.226 716.839 482.389 716.332C483.551 715.812 484.875 715.553 486.359 715.553C487.868 715.553 489.204 715.812 490.367 716.332C491.542 716.839 492.532 717.55 493.336 718.466C494.14 719.381 494.752 720.464 495.173 721.713C495.593 722.95 495.804 724.304 495.804 725.776V726.166C495.804 727.626 495.593 728.98 495.173 730.229C494.752 731.466 494.14 732.549 493.336 733.477C492.532 734.392 491.549 735.103 490.386 735.61C489.223 736.118 487.893 736.371 486.396 736.371C484.912 736.371 483.582 736.118 482.407 735.61C481.232 735.103 480.243 734.392 479.438 733.477C478.634 732.549 478.022 731.466 477.602 730.229C477.181 728.98 476.971 727.626 476.971 726.166ZM481.869 725.776V726.166C481.869 727.044 481.956 727.867 482.129 728.634C482.302 729.401 482.568 730.075 482.927 730.656C483.285 731.238 483.749 731.695 484.318 732.029C484.9 732.351 485.592 732.512 486.396 732.512C487.188 732.512 487.868 732.351 488.438 732.029C489.007 731.695 489.47 731.238 489.829 730.656C490.2 730.075 490.472 729.401 490.646 728.634C490.819 727.867 490.905 727.044 490.905 726.166V725.776C490.905 724.91 490.819 724.1 490.646 723.346C490.472 722.579 490.2 721.905 489.829 721.323C489.47 720.729 489 720.266 488.419 719.932C487.85 719.585 487.163 719.412 486.359 719.412C485.568 719.412 484.887 719.585 484.318 719.932C483.749 720.266 483.285 720.729 482.927 721.323C482.568 721.905 482.302 722.579 482.129 723.346C481.956 724.1 481.869 724.91 481.869 725.776ZM504.172 720.21V736H499.273V715.924H503.875L504.172 720.21ZM503.393 725.238H501.945C501.958 723.779 502.156 722.455 502.539 721.268C502.923 720.08 503.461 719.06 504.153 718.206C504.858 717.353 505.693 716.697 506.658 716.239C507.623 715.782 508.699 715.553 509.887 715.553C510.852 715.553 511.724 715.689 512.503 715.961C513.282 716.233 513.95 716.666 514.507 717.26C515.076 717.854 515.509 718.633 515.806 719.598C516.115 720.55 516.27 721.725 516.27 723.123V736H511.334V723.086C511.334 722.171 511.198 721.447 510.926 720.915C510.666 720.383 510.283 720.006 509.775 719.783C509.281 719.561 508.668 719.449 507.938 719.449C507.184 719.449 506.522 719.604 505.953 719.913C505.396 720.21 504.926 720.624 504.543 721.156C504.172 721.688 503.887 722.3 503.689 722.993C503.492 723.686 503.393 724.434 503.393 725.238Z" fill="#1C4670"/>
<path d="M987.827 641H785V815H987.827C991.056 815 994.152 813.72 996.435 811.441C998.717 809.163 1000 806.073 1000 802.85V653.202C1000.01 651.602 999.697 650.016 999.088 648.536C998.48 647.056 997.584 645.711 996.453 644.577C995.322 643.443 993.978 642.544 992.498 641.93C991.018 641.316 989.43 641 987.827 641Z" fill="#FFA229"/>
<path d="M870.264 766.703C863.73 766.703 858.677 764.872 855.103 761.21C851.558 757.548 849.785 752.274 849.785 745.39V710.497C849.785 703.231 851.47 697.665 854.839 693.798C858.237 689.901 863.379 687.953 870.264 687.953C877.178 687.953 882.319 689.901 885.688 693.798C889.058 697.665 890.742 703.231 890.742 710.497V745.39C890.742 752.274 888.97 757.548 885.425 761.21C881.88 764.872 876.826 766.703 870.264 766.703ZM870.264 752.465C871.465 752.465 872.402 751.923 873.076 750.839C873.75 749.755 874.087 748.539 874.087 747.191V709.003C874.087 707.187 873.882 705.604 873.472 704.257C873.091 702.88 872.021 702.191 870.264 702.191C868.506 702.191 867.422 702.88 867.012 704.257C866.631 705.604 866.44 707.187 866.44 709.003V747.191C866.44 748.539 866.777 749.755 867.451 750.839C868.154 751.923 869.092 752.465 870.264 752.465ZM916.23 766.044V753.783H893.291V741.698L907.925 688.612H932.007V740.863H936.138V753.783H932.007V766.044H916.23ZM907.09 740.863H916.23V701.884L907.09 740.863Z" fill="white"/>
<path opacity="0.2" d="M815 815H987.872C991.089 815 994.174 813.719 996.448 811.44C998.722 809.16 1000 806.068 1000 802.844V656C950.328 677.481 879.901 722.267 815 815Z" fill="white"/>
<path d="M28.069 28C24.8681 28 21.7983 29.2808 19.5349 31.5607C17.2716 33.8405 16 36.9327 16 40.1569V189.843C16 193.067 17.2716 196.159 19.5349 198.439C21.7983 200.719 24.8681 202 28.069 202H66V28H28.069Z" fill="#1C4670"/>
<g filter="url(#filter3_d_51_13823)">
<path d="M785 28H66V202H785V28Z" fill="white"/>
</g>
<path d="M342.672 117.112H347.774C347.638 118.918 347.137 120.52 346.271 121.918C345.406 123.303 344.2 124.392 342.653 125.184C341.107 125.975 339.233 126.371 337.031 126.371C335.337 126.371 333.809 126.074 332.448 125.48C331.1 124.874 329.943 124.015 328.979 122.901C328.026 121.776 327.296 120.427 326.789 118.856C326.282 117.273 326.028 115.498 326.028 113.531V111.472C326.028 109.505 326.288 107.73 326.808 106.146C327.327 104.563 328.069 103.215 329.034 102.102C330.011 100.976 331.18 100.11 332.541 99.5039C333.914 98.8978 335.448 98.5947 337.143 98.5947C339.344 98.5947 341.206 99.0029 342.728 99.8193C344.249 100.623 345.43 101.73 346.271 103.141C347.113 104.551 347.62 106.171 347.793 108.002H342.69C342.591 106.864 342.344 105.899 341.948 105.107C341.565 104.316 340.983 103.716 340.204 103.308C339.437 102.887 338.417 102.677 337.143 102.677C336.153 102.677 335.281 102.862 334.526 103.233C333.784 103.604 333.166 104.161 332.671 104.903C332.176 105.633 331.805 106.549 331.558 107.649C331.31 108.738 331.187 110 331.187 111.435V113.531C331.187 114.904 331.298 116.135 331.521 117.224C331.743 118.312 332.09 119.234 332.56 119.988C333.03 120.743 333.636 121.318 334.378 121.714C335.12 122.11 336.005 122.308 337.031 122.308C338.281 122.308 339.295 122.11 340.074 121.714C340.866 121.318 341.466 120.737 341.874 119.97C342.295 119.203 342.561 118.25 342.672 117.112ZM350.483 116.166V115.776C350.483 114.304 350.694 112.95 351.114 111.713C351.535 110.464 352.147 109.381 352.951 108.466C353.755 107.55 354.739 106.839 355.901 106.332C357.064 105.812 358.388 105.553 359.872 105.553C361.381 105.553 362.717 105.812 363.88 106.332C365.055 106.839 366.045 107.55 366.849 108.466C367.653 109.381 368.265 110.464 368.686 111.713C369.106 112.95 369.316 114.304 369.316 115.776V116.166C369.316 117.626 369.106 118.98 368.686 120.229C368.265 121.466 367.653 122.549 366.849 123.477C366.045 124.392 365.061 125.103 363.898 125.61C362.736 126.118 361.406 126.371 359.909 126.371C358.425 126.371 357.095 126.118 355.92 125.61C354.745 125.103 353.755 124.392 352.951 123.477C352.147 122.549 351.535 121.466 351.114 120.229C350.694 118.98 350.483 117.626 350.483 116.166ZM355.382 115.776V116.166C355.382 117.044 355.468 117.867 355.642 118.634C355.815 119.401 356.081 120.075 356.439 120.656C356.798 121.238 357.262 121.695 357.831 122.029C358.412 122.351 359.105 122.512 359.909 122.512C360.701 122.512 361.381 122.351 361.95 122.029C362.519 121.695 362.983 121.238 363.342 120.656C363.713 120.075 363.985 119.401 364.158 118.634C364.331 117.867 364.418 117.044 364.418 116.166V115.776C364.418 114.91 364.331 114.1 364.158 113.346C363.985 112.579 363.713 111.905 363.342 111.323C362.983 110.729 362.513 110.266 361.932 109.932C361.363 109.585 360.676 109.412 359.872 109.412C359.08 109.412 358.4 109.585 357.831 109.932C357.262 110.266 356.798 110.729 356.439 111.323C356.081 111.905 355.815 112.579 355.642 113.346C355.468 114.1 355.382 114.91 355.382 115.776ZM377.759 110.043V126H372.86V105.924H377.48L377.759 110.043ZM377.035 115.238H375.532C375.532 113.84 375.699 112.554 376.033 111.379C376.38 110.204 376.887 109.183 377.555 108.317C378.223 107.439 379.045 106.759 380.022 106.276C381.012 105.794 382.156 105.553 383.455 105.553C384.358 105.553 385.187 105.689 385.941 105.961C386.696 106.221 387.345 106.635 387.89 107.204C388.446 107.761 388.873 108.491 389.17 109.394C389.467 110.284 389.615 111.354 389.615 112.604V126H384.717V113.104C384.717 112.164 384.581 111.428 384.309 110.896C384.049 110.365 383.672 109.993 383.177 109.783C382.682 109.561 382.088 109.449 381.396 109.449C380.629 109.449 379.967 109.604 379.41 109.913C378.866 110.21 378.414 110.624 378.056 111.156C377.709 111.688 377.45 112.3 377.276 112.993C377.116 113.686 377.035 114.434 377.035 115.238ZM389.244 114.329L387.222 114.7C387.234 113.438 387.407 112.257 387.741 111.156C388.075 110.043 388.564 109.072 389.207 108.243C389.863 107.402 390.673 106.746 391.638 106.276C392.615 105.794 393.741 105.553 395.015 105.553C396.004 105.553 396.895 105.695 397.687 105.979C398.491 106.252 399.177 106.691 399.746 107.297C400.315 107.891 400.748 108.664 401.045 109.616C401.354 110.569 401.509 111.731 401.509 113.104V126H396.573V113.086C396.573 112.109 396.437 111.36 396.165 110.841C395.905 110.321 395.528 109.963 395.033 109.765C394.538 109.554 393.957 109.449 393.289 109.449C392.609 109.449 392.015 109.579 391.508 109.839C391.013 110.086 390.592 110.433 390.246 110.878C389.912 111.323 389.659 111.843 389.485 112.437C389.325 113.018 389.244 113.649 389.244 114.329ZM410.805 109.783V133.719H405.888V105.924H410.434L410.805 109.783ZM423.7 115.758V116.147C423.7 117.607 423.527 118.962 423.181 120.211C422.847 121.448 422.352 122.53 421.696 123.458C421.041 124.373 420.224 125.091 419.247 125.61C418.282 126.118 417.169 126.371 415.907 126.371C414.67 126.371 413.594 126.136 412.679 125.666C411.763 125.184 410.99 124.503 410.359 123.625C409.729 122.747 409.221 121.726 408.838 120.563C408.467 119.388 408.188 118.108 408.003 116.723V115.479C408.188 114.007 408.467 112.672 408.838 111.472C409.221 110.259 409.729 109.214 410.359 108.336C410.99 107.445 411.757 106.759 412.66 106.276C413.576 105.794 414.646 105.553 415.87 105.553C417.144 105.553 418.264 105.794 419.229 106.276C420.206 106.759 421.028 107.451 421.696 108.354C422.364 109.257 422.865 110.334 423.199 111.583C423.533 112.832 423.7 114.224 423.7 115.758ZM418.783 116.147V115.758C418.783 114.867 418.703 114.045 418.542 113.29C418.381 112.523 418.134 111.855 417.8 111.286C417.466 110.705 417.033 110.253 416.501 109.932C415.969 109.61 415.326 109.449 414.571 109.449C413.817 109.449 413.167 109.573 412.623 109.82C412.079 110.068 411.633 110.42 411.287 110.878C410.941 111.336 410.669 111.88 410.471 112.511C410.285 113.129 410.161 113.816 410.1 114.57V117.65C410.211 118.566 410.427 119.388 410.749 120.118C411.071 120.848 411.541 121.429 412.159 121.862C412.79 122.295 413.606 122.512 414.608 122.512C415.363 122.512 416.006 122.345 416.538 122.011C417.07 121.677 417.503 121.219 417.837 120.638C418.171 120.044 418.412 119.364 418.561 118.597C418.709 117.83 418.783 117.013 418.783 116.147ZM432.477 97.5V126H427.56V97.5H432.477ZM442.348 105.924V126H437.431V105.924H442.348ZM437.097 100.673C437.097 99.943 437.344 99.3369 437.839 98.8545C438.346 98.3721 439.026 98.1309 439.88 98.1309C440.733 98.1309 441.408 98.3721 441.902 98.8545C442.41 99.3369 442.663 99.943 442.663 100.673C442.663 101.39 442.41 101.99 441.902 102.473C441.408 102.955 440.733 103.196 439.88 103.196C439.026 103.196 438.346 102.955 437.839 102.473C437.344 101.99 437.097 101.39 437.097 100.673ZM458.082 121.732V112.474C458.082 111.793 457.965 111.206 457.729 110.711C457.494 110.216 457.136 109.833 456.653 109.561C456.171 109.288 455.559 109.152 454.816 109.152C454.161 109.152 453.586 109.264 453.091 109.486C452.608 109.709 452.237 110.024 451.978 110.433C451.718 110.828 451.588 111.286 451.588 111.806H446.671C446.671 110.977 446.869 110.191 447.265 109.449C447.66 108.695 448.223 108.027 448.953 107.445C449.695 106.852 450.58 106.388 451.606 106.054C452.646 105.72 453.808 105.553 455.095 105.553C456.616 105.553 457.971 105.812 459.158 106.332C460.358 106.839 461.298 107.606 461.979 108.633C462.671 109.66 463.018 110.952 463.018 112.511V121.269C463.018 122.271 463.079 123.13 463.203 123.848C463.339 124.553 463.537 125.165 463.797 125.685V126H458.806C458.571 125.493 458.391 124.85 458.268 124.07C458.144 123.279 458.082 122.499 458.082 121.732ZM458.769 113.772L458.806 116.686H455.707C454.94 116.686 454.266 116.766 453.685 116.927C453.103 117.075 452.627 117.298 452.256 117.595C451.885 117.879 451.606 118.226 451.421 118.634C451.235 119.03 451.143 119.481 451.143 119.988C451.143 120.483 451.254 120.928 451.477 121.324C451.712 121.72 452.046 122.035 452.479 122.271C452.924 122.493 453.443 122.604 454.037 122.604C454.903 122.604 455.658 122.431 456.301 122.085C456.944 121.726 457.445 121.293 457.804 120.786C458.162 120.279 458.354 119.797 458.379 119.339L459.789 121.454C459.616 121.961 459.356 122.499 459.01 123.068C458.663 123.637 458.218 124.169 457.674 124.664C457.13 125.159 456.474 125.567 455.707 125.889C454.94 126.21 454.049 126.371 453.035 126.371C451.736 126.371 450.574 126.111 449.547 125.592C448.52 125.072 447.71 124.361 447.116 123.458C446.522 122.555 446.226 121.528 446.226 120.378C446.226 119.314 446.424 118.374 446.819 117.558C447.215 116.741 447.803 116.055 448.582 115.498C449.361 114.929 450.326 114.502 451.477 114.218C452.639 113.921 453.969 113.772 455.466 113.772H458.769ZM472.239 110.21V126H467.341V105.924H471.942L472.239 110.21ZM471.46 115.238H470.013C470.025 113.779 470.223 112.455 470.606 111.268C470.99 110.08 471.528 109.06 472.221 108.206C472.926 107.353 473.761 106.697 474.726 106.239C475.69 105.782 476.767 105.553 477.954 105.553C478.919 105.553 479.791 105.689 480.57 105.961C481.35 106.233 482.018 106.666 482.574 107.26C483.143 107.854 483.576 108.633 483.873 109.598C484.182 110.55 484.337 111.725 484.337 113.123V126H479.401V113.086C479.401 112.171 479.265 111.447 478.993 110.915C478.733 110.383 478.35 110.006 477.843 109.783C477.348 109.561 476.736 109.449 476.006 109.449C475.251 109.449 474.59 109.604 474.021 109.913C473.464 110.21 472.994 110.624 472.61 111.156C472.239 111.688 471.955 112.3 471.757 112.993C471.559 113.686 471.46 114.434 471.46 115.238ZM496.898 122.512C497.591 122.512 498.21 122.376 498.754 122.104C499.298 121.831 499.731 121.448 500.053 120.953C500.387 120.458 500.566 119.883 500.591 119.228H505.211C505.186 120.588 504.803 121.807 504.061 122.883C503.318 123.959 502.329 124.812 501.092 125.443C499.867 126.062 498.494 126.371 496.973 126.371C495.426 126.371 494.078 126.111 492.928 125.592C491.777 125.072 490.819 124.349 490.052 123.421C489.297 122.493 488.728 121.417 488.345 120.192C487.974 118.968 487.788 117.657 487.788 116.259V115.665C487.788 114.267 487.974 112.956 488.345 111.731C488.728 110.507 489.297 109.431 490.052 108.503C490.819 107.575 491.777 106.852 492.928 106.332C494.078 105.812 495.42 105.553 496.954 105.553C498.575 105.553 499.997 105.868 501.222 106.499C502.459 107.13 503.424 108.021 504.116 109.171C504.821 110.321 505.186 111.676 505.211 113.234H500.591C500.566 112.517 500.405 111.874 500.108 111.305C499.812 110.736 499.391 110.278 498.847 109.932C498.302 109.585 497.641 109.412 496.861 109.412C496.033 109.412 495.34 109.585 494.783 109.932C494.239 110.278 493.812 110.754 493.503 111.36C493.206 111.954 492.996 112.622 492.872 113.364C492.761 114.094 492.705 114.861 492.705 115.665V116.259C492.705 117.075 492.761 117.854 492.872 118.597C492.996 119.339 493.206 120.007 493.503 120.601C493.812 121.182 494.239 121.646 494.783 121.992C495.34 122.339 496.045 122.512 496.898 122.512ZM517.494 126.371C515.973 126.371 514.606 126.124 513.394 125.629C512.181 125.134 511.148 124.448 510.295 123.569C509.454 122.679 508.804 121.646 508.347 120.471C507.901 119.283 507.679 118.009 507.679 116.648V115.906C507.679 114.36 507.901 112.956 508.347 111.694C508.792 110.42 509.423 109.326 510.239 108.41C511.056 107.495 512.033 106.79 513.171 106.295C514.309 105.8 515.564 105.553 516.938 105.553C518.36 105.553 519.616 105.794 520.704 106.276C521.793 106.746 522.702 107.414 523.432 108.28C524.161 109.146 524.712 110.185 525.083 111.397C525.454 112.597 525.64 113.927 525.64 115.387V117.446H509.905V114.069H520.815V113.698C520.791 112.919 520.642 112.208 520.37 111.564C520.098 110.909 519.677 110.389 519.108 110.006C518.539 109.61 517.803 109.412 516.9 109.412C516.171 109.412 515.534 109.573 514.989 109.895C514.457 110.204 514.012 110.649 513.653 111.23C513.307 111.799 513.047 112.48 512.874 113.271C512.701 114.063 512.614 114.941 512.614 115.906V116.648C512.614 117.49 512.726 118.269 512.948 118.986C513.183 119.704 513.523 120.328 513.969 120.86C514.426 121.38 514.971 121.788 515.602 122.085C516.245 122.369 516.975 122.512 517.791 122.512C518.818 122.512 519.745 122.314 520.574 121.918C521.415 121.51 522.145 120.91 522.764 120.118L525.231 122.679C524.811 123.297 524.242 123.891 523.524 124.46C522.819 125.029 521.966 125.493 520.964 125.852C519.962 126.198 518.805 126.371 517.494 126.371Z" fill="#1C4670"/>
<path d="M987.827 28H785V202H987.827C991.056 202 994.152 200.72 996.435 198.441C998.717 196.162 1000 193.072 1000 189.849V40.2029C1000.01 38.6029 999.697 37.0172 999.088 35.537C998.48 34.0568 997.584 32.7111 996.453 31.5773C995.322 30.4435 993.978 29.5438 992.498 28.9299C991.018 28.316 989.43 28 987.827 28Z" fill="#1C4670"/>
<path opacity="0.2" d="M815 202H987.871C991.088 202 994.173 200.719 996.448 198.439C998.722 196.159 1000 193.067 1000 189.843V43C950.324 64.4837 879.889 109.257 815 202Z" fill="white"/>
<path d="M877.603 153.703C871.069 153.703 866.016 151.872 862.441 148.21C858.896 144.548 857.124 139.274 857.124 132.39V97.4971C857.124 90.2314 858.809 84.665 862.178 80.7979C865.576 76.9014 870.718 74.9531 877.603 74.9531C884.517 74.9531 889.658 76.9014 893.027 80.7979C896.396 84.665 898.081 90.2314 898.081 97.4971V132.39C898.081 139.274 896.309 144.548 892.764 148.21C889.219 151.872 884.165 153.703 877.603 153.703ZM877.603 139.465C878.804 139.465 879.741 138.923 880.415 137.839C881.089 136.755 881.426 135.539 881.426 134.191V96.0029C881.426 94.1865 881.221 92.6045 880.811 91.2568C880.43 89.8799 879.36 89.1914 877.603 89.1914C875.845 89.1914 874.761 89.8799 874.351 91.2568C873.97 92.6045 873.779 94.1865 873.779 96.0029V134.191C873.779 135.539 874.116 136.755 874.79 137.839C875.493 138.923 876.431 139.465 877.603 139.465ZM910.518 153V93.4102C909.463 94.6699 908.013 95.6953 906.167 96.4863C904.321 97.248 902.578 97.6289 900.938 97.6289V85.2803C902.49 85.0459 904.16 84.5479 905.947 83.7861C907.734 82.9951 909.39 81.9258 910.913 80.5781C912.466 79.2012 913.652 77.5459 914.473 75.6123H926.909V153H910.518Z" fill="white"/>
<defs>
<filter id="filter0_d_51_13823" x="62" y="233" width="727" height="182" filterUnits="userSpaceOnUse" color-interpolation-filters="sRGB">
<feFlood flood-opacity="0" result="BackgroundImageFix"/>
<feColorMatrix in="SourceAlpha" type="matrix" values="0 0 0 0 0 0 0 0 0 0 0 0 0 0 0 0 0 0 127 0" result="hardAlpha"/>
<feOffset dy="4"/>
<feGaussianBlur stdDeviation="2"/>
<feComposite in2="hardAlpha" operator="out"/>
<feColorMatrix type="matrix" values="0 0 0 0 0 0 0 0 0 0 0 0 0 0 0 0 0 0 0.25 0"/>
<feBlend mode="normal" in2="BackgroundImageFix" result="effect1_dropShadow_51_13823"/>
<feBlend mode="normal" in="SourceGraphic" in2="effect1_dropShadow_51_13823" result="shape"/>
</filter>
<filter id="filter1_d_51_13823" x="62" y="439" width="727" height="182" filterUnits="userSpaceOnUse" color-interpolation-filters="sRGB">
<feFlood flood-opacity="0" result="BackgroundImageFix"/>
<feColorMatrix in="SourceAlpha" type="matrix" values="0 0 0 0 0 0 0 0 0 0 0 0 0 0 0 0 0 0 127 0" result="hardAlpha"/>
<feOffset dy="4"/>
<feGaussianBlur stdDeviation="2"/>
<feComposite in2="hardAlpha" operator="out"/>
<feColorMatrix type="matrix" values="0 0 0 0 0 0 0 0 0 0 0 0 0 0 0 0 0 0 0.25 0"/>
<feBlend mode="normal" in2="BackgroundImageFix" result="effect1_dropShadow_51_13823"/>
<feBlend mode="normal" in="SourceGraphic" in2="effect1_dropShadow_51_13823" result="shape"/>
</filter>
<filter id="filter2_d_51_13823" x="62" y="641" width="727" height="182" filterUnits="userSpaceOnUse" color-interpolation-filters="sRGB">
<feFlood flood-opacity="0" result="BackgroundImageFix"/>
<feColorMatrix in="SourceAlpha" type="matrix" values="0 0 0 0 0 0 0 0 0 0 0 0 0 0 0 0 0 0 127 0" result="hardAlpha"/>
<feOffset dy="4"/>
<feGaussianBlur stdDeviation="2"/>
<feComposite in2="hardAlpha" operator="out"/>
<feColorMatrix type="matrix" values="0 0 0 0 0 0 0 0 0 0 0 0 0 0 0 0 0 0 0.25 0"/>
<feBlend mode="normal" in2="BackgroundImageFix" result="effect1_dropShadow_51_13823"/>
<feBlend mode="normal" in="SourceGraphic" in2="effect1_dropShadow_51_13823" result="shape"/>
</filter>
<filter id="filter3_d_51_13823" x="62" y="28" width="727" height="182" filterUnits="userSpaceOnUse" color-interpolation-filters="sRGB">
<feFlood flood-opacity="0" result="BackgroundImageFix"/>
<feColorMatrix in="SourceAlpha" type="matrix" values="0 0 0 0 0 0 0 0 0 0 0 0 0 0 0 0 0 0 127 0" result="hardAlpha"/>
<feOffset dy="4"/>
<feGaussianBlur stdDeviation="2"/>
<feComposite in2="hardAlpha" operator="out"/>
<feColorMatrix type="matrix" values="0 0 0 0 0 0 0 0 0 0 0 0 0 0 0 0 0 0 0.25 0"/>
<feBlend mode="normal" in2="BackgroundImageFix" result="effect1_dropShadow_51_13823"/>
<feBlend mode="normal" in="SourceGraphic" in2="effect1_dropShadow_51_13823" result="shape"/>
</filter>
</defs>
</svg>
