<svg width="1000" height="974" viewBox="0 0 1000 974" fill="none" xmlns="http://www.w3.org/2000/svg">
<rect width="1000" height="974" fill="white"/>
<path d="M191.697 83.5376L199.202 54.3203H203.135L202.695 61.8511L194.673 92H190.584L191.697 83.5376ZM186.081 54.3203L192.163 83.3047L192.706 92H188.358L179.637 54.3203H186.081ZM211.649 83.2271L217.653 54.3203H224.123L215.402 92H211.054L211.649 83.2271ZM204.662 54.3203L212.089 83.6152L213.176 92H209.087L201.194 61.8511L200.78 54.3203H204.662ZM234.475 52.25V92H228.264V52.25H234.475ZM233.388 76.9644L231.369 76.9385C231.386 75.0062 231.654 73.2205 232.171 71.5815C232.706 69.9425 233.448 68.5192 234.397 67.3115C235.363 66.0866 236.519 65.1463 237.865 64.4907C239.21 63.8179 240.703 63.4814 242.342 63.4814C243.722 63.4814 244.964 63.6712 246.068 64.0508C247.19 64.4303 248.156 65.0428 248.967 65.8882C249.778 66.7163 250.39 67.8032 250.804 69.1489C251.236 70.4774 251.451 72.0991 251.451 74.0142V92H245.188V73.9624C245.188 72.6167 244.99 71.547 244.593 70.7534C244.214 69.9598 243.653 69.3905 242.911 69.0454C242.169 68.6831 241.264 68.502 240.194 68.502C239.072 68.502 238.08 68.7262 237.218 69.1748C236.372 69.6234 235.665 70.2358 235.096 71.0122C234.526 71.7886 234.095 72.6857 233.802 73.7036C233.526 74.7215 233.388 75.8084 233.388 76.9644ZM273.552 86.3843V73.0308C273.552 72.0301 273.371 71.1675 273.008 70.4429C272.646 69.7183 272.094 69.1576 271.352 68.7607C270.627 68.3639 269.713 68.1655 268.609 68.1655C267.591 68.1655 266.711 68.3381 265.969 68.6831C265.227 69.0282 264.649 69.494 264.235 70.0806C263.821 70.6672 263.614 71.3314 263.614 72.0732H257.403C257.403 70.9691 257.671 69.8994 258.206 68.8643C258.74 67.8291 259.517 66.9061 260.535 66.0952C261.553 65.2843 262.769 64.646 264.184 64.1802C265.598 63.7144 267.186 63.4814 268.945 63.4814C271.05 63.4814 272.913 63.8351 274.535 64.5425C276.174 65.2498 277.459 66.3195 278.391 67.7515C279.34 69.1662 279.814 70.9432 279.814 73.0825V85.5303C279.814 86.807 279.901 87.9543 280.073 88.9722C280.263 89.9728 280.53 90.8441 280.875 91.5859V92H274.483C274.19 91.3271 273.957 90.4731 273.785 89.438C273.629 88.3856 273.552 87.3677 273.552 86.3843ZM274.458 74.9717L274.509 78.8276H270.032C268.876 78.8276 267.858 78.9398 266.979 79.1641C266.099 79.3711 265.365 79.6816 264.779 80.0957C264.192 80.5098 263.752 81.0101 263.459 81.5967C263.166 82.1833 263.019 82.8475 263.019 83.5894C263.019 84.3312 263.192 85.0127 263.537 85.6338C263.882 86.2376 264.382 86.7121 265.038 87.0571C265.71 87.4022 266.521 87.5747 267.47 87.5747C268.747 87.5747 269.86 87.3159 270.809 86.7983C271.775 86.2635 272.534 85.6165 273.086 84.8574C273.638 84.0811 273.931 83.3478 273.966 82.6577L275.984 85.4268C275.777 86.1341 275.424 86.8932 274.923 87.7041C274.423 88.515 273.767 89.2913 272.957 90.0332C272.163 90.7578 271.205 91.353 270.084 91.8188C268.98 92.2847 267.703 92.5176 266.254 92.5176C264.425 92.5176 262.795 92.1553 261.363 91.4307C259.931 90.6888 258.809 89.6968 257.999 88.4546C257.188 87.1951 256.782 85.7718 256.782 84.1846C256.782 82.7008 257.058 81.3896 257.61 80.251C258.18 79.0951 259.008 78.1289 260.095 77.3525C261.199 76.5762 262.545 75.9896 264.132 75.5928C265.719 75.1787 267.531 74.9717 269.566 74.9717H274.458ZM299.172 63.999V68.5537H283.386V63.999H299.172ZM287.94 57.1411H294.177V84.2622C294.177 85.1248 294.298 85.7891 294.54 86.2549C294.798 86.7035 295.152 87.0054 295.601 87.1606C296.049 87.3159 296.575 87.3936 297.179 87.3936C297.611 87.3936 298.025 87.3677 298.421 87.3159C298.818 87.2642 299.137 87.2124 299.379 87.1606L299.405 91.9224C298.887 92.0776 298.283 92.2157 297.593 92.3364C296.92 92.4572 296.144 92.5176 295.264 92.5176C293.832 92.5176 292.564 92.2674 291.46 91.7671C290.356 91.2495 289.493 90.4128 288.872 89.2568C288.251 88.1009 287.94 86.5654 287.94 84.6504V57.1411ZM323.86 63.999V92H317.598V63.999H323.86ZM317.184 56.6494C317.184 55.7005 317.494 54.9155 318.115 54.2944C318.754 53.6561 319.633 53.3369 320.755 53.3369C321.859 53.3369 322.73 53.6561 323.369 54.2944C324.007 54.9155 324.326 55.7005 324.326 56.6494C324.326 57.5811 324.007 58.3574 323.369 58.9785C322.73 59.5996 321.859 59.9102 320.755 59.9102C319.633 59.9102 318.754 59.5996 318.115 58.9785C317.494 58.3574 317.184 57.5811 317.184 56.6494ZM346.401 84.4175C346.401 83.7964 346.246 83.2357 345.935 82.7354C345.625 82.2178 345.029 81.752 344.149 81.3379C343.287 80.9238 342.01 80.5443 340.319 80.1992C338.836 79.8714 337.473 79.4832 336.23 79.0347C335.006 78.5688 333.953 78.0081 333.073 77.3525C332.193 76.6969 331.512 75.9206 331.029 75.0234C330.546 74.1263 330.304 73.0911 330.304 71.918C330.304 70.7793 330.554 69.701 331.055 68.6831C331.555 67.6652 332.271 66.7681 333.203 65.9917C334.134 65.2153 335.264 64.6029 336.593 64.1543C337.938 63.7057 339.439 63.4814 341.096 63.4814C343.442 63.4814 345.452 63.8783 347.125 64.6719C348.816 65.4482 350.11 66.5093 351.007 67.855C351.904 69.1834 352.353 70.6844 352.353 72.3579H346.116C346.116 71.616 345.926 70.9259 345.547 70.2876C345.185 69.632 344.632 69.1058 343.891 68.709C343.149 68.2949 342.217 68.0879 341.096 68.0879C340.026 68.0879 339.138 68.2604 338.43 68.6055C337.74 68.9333 337.222 69.3646 336.877 69.8994C336.55 70.4342 336.386 71.0208 336.386 71.6592C336.386 72.125 336.472 72.5477 336.645 72.9272C336.834 73.2896 337.145 73.626 337.576 73.9365C338.007 74.2298 338.594 74.5059 339.336 74.7646C340.095 75.0234 341.044 75.2736 342.183 75.5151C344.322 75.9637 346.159 76.5417 347.695 77.249C349.248 77.9391 350.438 78.8363 351.266 79.9404C352.094 81.0273 352.508 82.4076 352.508 84.0811C352.508 85.3232 352.241 86.4619 351.706 87.4971C351.188 88.515 350.429 89.4035 349.429 90.1626C348.428 90.9045 347.229 91.4824 345.832 91.8965C344.451 92.3105 342.899 92.5176 341.173 92.5176C338.637 92.5176 336.489 92.069 334.729 91.1719C332.97 90.2575 331.633 89.0929 330.718 87.6782C329.821 86.2463 329.373 84.7625 329.373 83.2271H335.402C335.471 84.383 335.791 85.306 336.36 85.9961C336.946 86.6689 337.671 87.1606 338.534 87.4712C339.414 87.7645 340.319 87.9111 341.251 87.9111C342.372 87.9111 343.313 87.7645 344.072 87.4712C344.831 87.1606 345.409 86.7466 345.806 86.229C346.202 85.6942 346.401 85.0903 346.401 84.4175Z" fill="#1C456F"/>
<path d="M385.918 74.9717H376.317L376.265 70.2358H384.65C386.065 70.2358 387.264 70.0288 388.247 69.6147C389.248 69.1834 390.007 68.571 390.524 67.7773C391.042 66.9665 391.301 65.9917 391.301 64.853C391.301 63.5936 391.059 62.5671 390.576 61.7734C390.093 60.9798 389.351 60.4019 388.351 60.0396C387.367 59.6772 386.108 59.4961 384.572 59.4961H378.284V92H371.788V54.3203H384.572C386.643 54.3203 388.489 54.5187 390.11 54.9155C391.749 55.3123 393.138 55.9334 394.277 56.7788C395.433 57.6069 396.304 58.6593 396.891 59.936C397.494 61.2127 397.796 62.731 397.796 64.4907C397.796 66.0435 397.425 67.4668 396.684 68.7607C395.942 70.0374 394.846 71.0812 393.397 71.8921C391.948 72.703 390.145 73.186 387.988 73.3413L385.918 74.9717ZM385.633 92H374.272L377.197 86.8501H385.633C387.1 86.8501 388.325 86.6086 389.308 86.1255C390.292 85.6252 391.025 84.9437 391.508 84.0811C392.008 83.2012 392.258 82.1746 392.258 81.0015C392.258 79.7765 392.043 78.7155 391.611 77.8184C391.18 76.904 390.499 76.2052 389.567 75.7222C388.635 75.2218 387.419 74.9717 385.918 74.9717H378.62L378.672 70.2358H388.169L389.645 72.0215C391.715 72.0905 393.414 72.5477 394.743 73.3931C396.088 74.2384 397.089 75.334 397.745 76.6797C398.4 78.0254 398.728 79.4746 398.728 81.0273C398.728 83.4255 398.202 85.4354 397.149 87.0571C396.114 88.6789 394.622 89.9124 392.672 90.7578C390.723 91.5859 388.376 92 385.633 92ZM429.938 86.8501V92H409.934V86.8501H429.938ZM411.771 54.3203V92H405.275V54.3203H411.771ZM427.324 70.0547V75.127H409.934V70.0547H427.324ZM429.809 54.3203V59.4961H409.934V54.3203H429.809ZM459.906 86.8501V92H439.901V86.8501H459.906ZM441.739 54.3203V92H435.243V54.3203H441.739ZM457.292 70.0547V75.127H439.901V70.0547H457.292ZM459.776 54.3203V59.4961H439.901V54.3203H459.776ZM500.665 79.7334H507.135C506.928 82.2005 506.238 84.4002 505.064 86.3325C503.891 88.2476 502.244 89.7572 500.122 90.8613C498 91.9655 495.42 92.5176 492.384 92.5176C490.055 92.5176 487.958 92.1035 486.095 91.2754C484.232 90.43 482.636 89.2396 481.308 87.7041C479.979 86.1514 478.961 84.2795 478.254 82.0884C477.564 79.8973 477.219 77.4474 477.219 74.7388V71.6074C477.219 68.8988 477.572 66.4489 478.28 64.2578C479.004 62.0667 480.04 60.1948 481.385 58.6421C482.731 57.0721 484.344 55.873 486.225 55.0449C488.122 54.2168 490.253 53.8027 492.617 53.8027C495.619 53.8027 498.155 54.3548 500.225 55.459C502.295 56.5632 503.9 58.09 505.039 60.0396C506.194 61.9891 506.902 64.2233 507.161 66.7422H500.691C500.518 65.1204 500.139 63.7316 499.552 62.5757C498.983 61.4198 498.138 60.5399 497.016 59.936C495.895 59.3149 494.428 59.0044 492.617 59.0044C491.133 59.0044 489.839 59.2804 488.735 59.8325C487.631 60.3846 486.708 61.1955 485.966 62.2651C485.224 63.3348 484.663 64.6546 484.284 66.2246C483.921 67.7773 483.74 69.5544 483.74 71.5557V74.7388C483.74 76.6366 483.904 78.3618 484.232 79.9146C484.577 81.45 485.095 82.7699 485.785 83.874C486.492 84.9782 487.389 85.8322 488.476 86.436C489.563 87.0399 490.866 87.3418 492.384 87.3418C494.23 87.3418 495.722 87.0485 496.861 86.4619C498.017 85.8753 498.888 85.0213 499.475 83.8999C500.078 82.7612 500.475 81.3724 500.665 79.7334ZM524.758 92.5176C522.688 92.5176 520.816 92.1812 519.143 91.5083C517.486 90.8182 516.072 89.8607 514.898 88.6357C513.743 87.4108 512.854 85.9702 512.233 84.314C511.612 82.6577 511.301 80.8721 511.301 78.957V77.9219C511.301 75.7308 511.62 73.7467 512.259 71.9697C512.897 70.1927 513.786 68.6745 514.924 67.415C516.063 66.1383 517.409 65.1636 518.961 64.4907C520.514 63.8179 522.196 63.4814 524.008 63.4814C526.009 63.4814 527.76 63.8179 529.261 64.4907C530.762 65.1636 532.004 66.1125 532.988 67.3374C533.988 68.5451 534.73 69.9857 535.213 71.6592C535.714 73.3327 535.964 75.1787 535.964 77.1973V79.8628H514.329V75.3857H529.805V74.894C529.77 73.7726 529.546 72.7202 529.132 71.7368C528.735 70.7534 528.123 69.9598 527.294 69.356C526.466 68.7521 525.362 68.4502 523.982 68.4502C522.947 68.4502 522.024 68.6745 521.213 69.123C520.419 69.5544 519.755 70.1841 519.22 71.0122C518.685 71.8403 518.271 72.841 517.978 74.0142C517.702 75.1701 517.564 76.4727 517.564 77.9219V78.957C517.564 80.182 517.728 81.3206 518.056 82.373C518.401 83.4082 518.901 84.314 519.557 85.0903C520.212 85.8667 521.006 86.4792 521.938 86.9277C522.869 87.359 523.93 87.5747 525.121 87.5747C526.622 87.5747 527.959 87.2728 529.132 86.6689C530.305 86.0651 531.323 85.2111 532.186 84.1069L535.472 87.29C534.868 88.1699 534.083 89.0153 533.117 89.8262C532.151 90.6198 530.969 91.2668 529.572 91.7671C528.192 92.2674 526.587 92.5176 524.758 92.5176ZM547.092 69.3301V92H540.855V63.999H546.807L547.092 69.3301ZM555.658 63.8179L555.606 69.6147C555.226 69.5457 554.812 69.494 554.364 69.4595C553.932 69.425 553.501 69.4077 553.07 69.4077C552 69.4077 551.06 69.563 550.249 69.8735C549.438 70.1668 548.757 70.5981 548.205 71.1675C547.67 71.7196 547.256 72.3924 546.962 73.186C546.669 73.9797 546.497 74.8682 546.445 75.8516L545.021 75.9551C545.021 74.1953 545.194 72.5649 545.539 71.064C545.884 69.563 546.402 68.2432 547.092 67.1045C547.799 65.9658 548.679 65.0773 549.731 64.439C550.801 63.8006 552.035 63.4814 553.432 63.4814C553.812 63.4814 554.217 63.516 554.648 63.585C555.097 63.654 555.433 63.7316 555.658 63.8179ZM573.695 63.999V68.5537H557.909V63.999H573.695ZM562.464 57.1411H568.701V84.2622C568.701 85.1248 568.821 85.7891 569.063 86.2549C569.322 86.7035 569.675 87.0054 570.124 87.1606C570.573 87.3159 571.099 87.3936 571.703 87.3936C572.134 87.3936 572.548 87.3677 572.945 87.3159C573.342 87.2642 573.661 87.2124 573.902 87.1606L573.928 91.9224C573.411 92.0776 572.807 92.2157 572.117 92.3364C571.444 92.4572 570.667 92.5176 569.788 92.5176C568.356 92.5176 567.088 92.2674 565.983 91.7671C564.879 91.2495 564.017 90.4128 563.396 89.2568C562.774 88.1009 562.464 86.5654 562.464 84.6504V57.1411ZM585.186 63.999V92H578.923V63.999H585.186ZM578.509 56.6494C578.509 55.7005 578.819 54.9155 579.44 54.2944C580.079 53.6561 580.959 53.3369 582.08 53.3369C583.184 53.3369 584.056 53.6561 584.694 54.2944C585.332 54.9155 585.651 55.7005 585.651 56.6494C585.651 57.5811 585.332 58.3574 584.694 58.9785C584.056 59.5996 583.184 59.9102 582.08 59.9102C580.959 59.9102 580.079 59.5996 579.44 58.9785C578.819 58.3574 578.509 57.5811 578.509 56.6494ZM600.04 92H593.777V62.1875C593.777 59.9274 594.226 58.021 595.123 56.4683C596.037 54.9155 597.34 53.7337 599.031 52.9229C600.739 52.112 602.766 51.7065 605.112 51.7065C606.493 51.7065 607.821 51.8532 609.098 52.1465C610.392 52.4398 611.729 52.8107 613.109 53.2593L612.151 58.3315C611.271 58.0382 610.297 57.7622 609.227 57.5034C608.157 57.2274 606.924 57.0894 605.526 57.0894C603.646 57.0894 602.257 57.5207 601.36 58.3833C600.48 59.2287 600.04 60.4967 600.04 62.1875V92ZM605.656 63.999V68.5537H589.481V63.999H605.656ZM616.059 63.999V92H609.822V63.999H616.059ZM634.459 87.5488C635.477 87.5488 636.391 87.3504 637.202 86.9536C638.03 86.5396 638.694 85.9702 639.195 85.2456C639.712 84.521 639.997 83.6842 640.049 82.7354H645.923C645.889 84.5469 645.354 86.1945 644.319 87.6782C643.284 89.1619 641.912 90.3438 640.204 91.2236C638.496 92.0863 636.607 92.5176 634.537 92.5176C632.397 92.5176 630.534 92.1553 628.947 91.4307C627.36 90.6888 626.04 89.6709 624.987 88.377C623.935 87.083 623.141 85.5907 622.606 83.8999C622.089 82.2091 621.83 80.3976 621.83 78.4653V77.5596C621.83 75.6273 622.089 73.8158 622.606 72.125C623.141 70.417 623.935 68.916 624.987 67.6221C626.04 66.3281 627.36 65.3188 628.947 64.5942C630.534 63.8524 632.389 63.4814 634.511 63.4814C636.754 63.4814 638.72 63.93 640.411 64.8271C642.102 65.707 643.43 66.9406 644.396 68.5278C645.38 70.0978 645.889 71.9266 645.923 74.0142H640.049C639.997 72.979 639.738 72.0474 639.272 71.2192C638.824 70.3739 638.186 69.701 637.357 69.2007C636.547 68.7004 635.572 68.4502 634.433 68.4502C633.174 68.4502 632.13 68.709 631.302 69.2266C630.474 69.7269 629.827 70.417 629.361 71.2969C628.895 72.1595 628.559 73.1343 628.352 74.2212C628.162 75.2909 628.067 76.4036 628.067 77.5596V78.4653C628.067 79.6213 628.162 80.7427 628.352 81.8296C628.541 82.9165 628.869 83.8913 629.335 84.7539C629.818 85.5993 630.474 86.2808 631.302 86.7983C632.13 87.2987 633.182 87.5488 634.459 87.5488ZM666.497 86.3843V73.0308C666.497 72.0301 666.316 71.1675 665.954 70.4429C665.591 69.7183 665.039 69.1576 664.297 68.7607C663.573 68.3639 662.658 68.1655 661.554 68.1655C660.536 68.1655 659.656 68.3381 658.915 68.6831C658.173 69.0282 657.595 69.494 657.181 70.0806C656.767 70.6672 656.56 71.3314 656.56 72.0732H650.349C650.349 70.9691 650.616 69.8994 651.151 68.8643C651.686 67.8291 652.462 66.9061 653.48 66.0952C654.498 65.2843 655.714 64.646 657.129 64.1802C658.544 63.7144 660.131 63.4814 661.891 63.4814C663.995 63.4814 665.859 63.8351 667.48 64.5425C669.119 65.2498 670.405 66.3195 671.336 67.7515C672.285 69.1662 672.76 70.9432 672.76 73.0825V85.5303C672.76 86.807 672.846 87.9543 673.019 88.9722C673.208 89.9728 673.476 90.8441 673.821 91.5859V92H667.429C667.135 91.3271 666.903 90.4731 666.73 89.438C666.575 88.3856 666.497 87.3677 666.497 86.3843ZM667.403 74.9717L667.455 78.8276H662.978C661.822 78.8276 660.804 78.9398 659.924 79.1641C659.044 79.3711 658.311 79.6816 657.724 80.0957C657.138 80.5098 656.698 81.0101 656.404 81.5967C656.111 82.1833 655.964 82.8475 655.964 83.5894C655.964 84.3312 656.137 85.0127 656.482 85.6338C656.827 86.2376 657.327 86.7121 657.983 87.0571C658.656 87.4022 659.467 87.5747 660.416 87.5747C661.692 87.5747 662.805 87.3159 663.754 86.7983C664.72 86.2635 665.479 85.6165 666.031 84.8574C666.583 84.0811 666.877 83.3478 666.911 82.6577L668.93 85.4268C668.723 86.1341 668.369 86.8932 667.869 87.7041C667.368 88.515 666.713 89.2913 665.902 90.0332C665.108 90.7578 664.151 91.353 663.029 91.8188C661.925 92.2847 660.648 92.5176 659.199 92.5176C657.37 92.5176 655.74 92.1553 654.308 91.4307C652.876 90.6888 651.755 89.6968 650.944 88.4546C650.133 87.1951 649.728 85.7718 649.728 84.1846C649.728 82.7008 650.004 81.3896 650.556 80.251C651.125 79.0951 651.953 78.1289 653.04 77.3525C654.144 76.5762 655.49 75.9896 657.077 75.5928C658.664 75.1787 660.476 74.9717 662.512 74.9717H667.403ZM692.117 63.999V68.5537H676.331V63.999H692.117ZM680.886 57.1411H687.123V84.2622C687.123 85.1248 687.243 85.7891 687.485 86.2549C687.744 86.7035 688.097 87.0054 688.546 87.1606C688.994 87.3159 689.521 87.3936 690.125 87.3936C690.556 87.3936 690.97 87.3677 691.367 87.3159C691.764 87.2642 692.083 87.2124 692.324 87.1606L692.35 91.9224C691.833 92.0776 691.229 92.2157 690.539 92.3364C689.866 92.4572 689.089 92.5176 688.209 92.5176C686.778 92.5176 685.509 92.2674 684.405 91.7671C683.301 91.2495 682.438 90.4128 681.817 89.2568C681.196 88.1009 680.886 86.5654 680.886 84.6504V57.1411ZM703.607 63.999V92H697.345V63.999H703.607ZM696.931 56.6494C696.931 55.7005 697.241 54.9155 697.862 54.2944C698.501 53.6561 699.381 53.3369 700.502 53.3369C701.606 53.3369 702.477 53.6561 703.116 54.2944C703.754 54.9155 704.073 55.7005 704.073 56.6494C704.073 57.5811 703.754 58.3574 703.116 58.9785C702.477 59.5996 701.606 59.9102 700.502 59.9102C699.381 59.9102 698.501 59.5996 697.862 58.9785C697.241 58.3574 696.931 57.5811 696.931 56.6494ZM709.249 78.3101V77.7148C709.249 75.6963 709.542 73.8244 710.129 72.0991C710.715 70.3566 711.561 68.847 712.665 67.5703C713.786 66.2764 715.149 65.2757 716.754 64.5684C718.376 63.8438 720.204 63.4814 722.24 63.4814C724.293 63.4814 726.122 63.8438 727.727 64.5684C729.348 65.2757 730.72 66.2764 731.841 67.5703C732.963 68.847 733.817 70.3566 734.403 72.0991C734.99 73.8244 735.283 75.6963 735.283 77.7148V78.3101C735.283 80.3286 734.99 82.2005 734.403 83.9258C733.817 85.651 732.963 87.1606 731.841 88.4546C730.72 89.7313 729.357 90.7319 727.752 91.4565C726.148 92.1639 724.328 92.5176 722.292 92.5176C720.239 92.5176 718.402 92.1639 716.78 91.4565C715.175 90.7319 713.812 89.7313 712.691 88.4546C711.569 87.1606 710.715 85.651 710.129 83.9258C709.542 82.2005 709.249 80.3286 709.249 78.3101ZM715.486 77.7148V78.3101C715.486 79.5695 715.615 80.7599 715.874 81.8813C716.133 83.0028 716.538 83.9862 717.09 84.8315C717.642 85.6769 718.35 86.3411 719.212 86.8242C720.075 87.3073 721.102 87.5488 722.292 87.5488C723.448 87.5488 724.449 87.3073 725.294 86.8242C726.157 86.3411 726.864 85.6769 727.416 84.8315C727.968 83.9862 728.374 83.0028 728.632 81.8813C728.908 80.7599 729.046 79.5695 729.046 78.3101V77.7148C729.046 76.4727 728.908 75.2995 728.632 74.1953C728.374 73.0739 727.959 72.0819 727.39 71.2192C726.838 70.3566 726.131 69.6838 725.268 69.2007C724.423 68.7004 723.413 68.4502 722.24 68.4502C721.067 68.4502 720.049 68.7004 719.187 69.2007C718.341 69.6838 717.642 70.3566 717.09 71.2192C716.538 72.0819 716.133 73.0739 715.874 74.1953C715.615 75.2995 715.486 76.4727 715.486 77.7148ZM746.696 69.9771V92H740.459V63.999H746.333L746.696 69.9771ZM745.583 76.9644L743.564 76.9385C743.582 74.9544 743.858 73.1343 744.393 71.478C744.945 69.8218 745.704 68.3984 746.67 67.208C747.653 66.0176 748.826 65.1032 750.189 64.4648C751.552 63.8092 753.071 63.4814 754.744 63.4814C756.09 63.4814 757.306 63.6712 758.393 64.0508C759.497 64.4131 760.438 65.0083 761.214 65.8364C762.007 66.6646 762.611 67.7428 763.025 69.0713C763.439 70.3825 763.646 71.9956 763.646 73.9106V92H757.384V73.8848C757.384 72.5391 757.185 71.478 756.789 70.7017C756.409 69.908 755.848 69.3473 755.106 69.0195C754.382 68.6745 753.476 68.502 752.389 68.502C751.319 68.502 750.362 68.7262 749.517 69.1748C748.671 69.6234 747.955 70.2358 747.369 71.0122C746.799 71.7886 746.359 72.6857 746.049 73.7036C745.738 74.7215 745.583 75.8084 745.583 76.9644ZM781.684 80.8979H775.913C775.93 79.2935 776.068 77.9478 776.327 76.8608C776.586 75.7567 777.017 74.756 777.621 73.8589C778.242 72.9618 779.062 72.0129 780.08 71.0122C780.873 70.2531 781.589 69.5371 782.228 68.8643C782.866 68.1742 783.375 67.4495 783.754 66.6904C784.134 65.9141 784.324 65.0256 784.324 64.0249C784.324 62.938 784.143 62.015 783.78 61.2559C783.418 60.4967 782.883 59.9188 782.176 59.522C781.486 59.1252 780.623 58.9268 779.588 58.9268C778.725 58.9268 777.914 59.0993 777.155 59.4443C776.396 59.7721 775.784 60.2897 775.318 60.9971C774.852 61.6872 774.602 62.6016 774.567 63.7402H768.331C768.365 61.5664 768.883 59.7376 769.883 58.2539C770.884 56.7702 772.23 55.6574 773.92 54.9155C775.611 54.1737 777.5 53.8027 779.588 53.8027C781.9 53.8027 783.875 54.1995 785.514 54.9932C787.153 55.7695 788.404 56.9082 789.267 58.4092C790.146 59.8929 790.586 61.6872 790.586 63.792C790.586 65.3102 790.285 66.6904 789.681 67.9326C789.077 69.1576 788.292 70.3049 787.326 71.3745C786.36 72.4269 785.316 73.4793 784.194 74.5317C783.228 75.4116 782.573 76.3691 782.228 77.4043C781.882 78.4222 781.701 79.5868 781.684 80.8979ZM775.396 88.9722C775.396 88.0405 775.715 87.2555 776.353 86.6172C776.991 85.9616 777.863 85.6338 778.967 85.6338C780.071 85.6338 780.942 85.9616 781.581 86.6172C782.219 87.2555 782.538 88.0405 782.538 88.9722C782.538 89.9038 782.219 90.6974 781.581 91.353C780.942 91.9914 780.071 92.3105 778.967 92.3105C777.863 92.3105 776.991 91.9914 776.353 91.353C775.715 90.6974 775.396 89.9038 775.396 88.9722Z" fill="#FFA229"/>
<path d="M337.595 864.959C198.86 883.03 56.9836 902.665 40.5527 906.054C-25.607 919.477 69.0939 927.557 208.33 931.531C395.987 936.896 578.057 939.85 643.147 936.723C918.914 923.43 962.25 884.334 966.854 868.543C975.779 837.918 931.679 840.676 865.978 837.462C674.94 828.057 471.835 847.409 337.595 864.959Z" fill="#FFE9C8"/>
<path d="M860 283H848V834H860V283Z" fill="#44435E"/>
<path d="M955 359H739L778.709 200H915.291L955 359Z" fill="url(#paint0_linear_51_12784)"/>
<path style="mix-blend-mode:overlay" opacity="0.7" d="M906.309 359H941L898.801 200H863L906.309 359Z" fill="url(#paint1_linear_51_12784)"/>
<path d="M791.559 833H915.441C917.18 833 918.849 833.681 920.079 834.894C921.309 836.107 922 837.752 922 839.468V842.852C922 843.687 921.664 844.488 921.065 845.078C920.466 845.668 919.654 846 918.808 846H788.192C787.346 846 786.534 845.668 785.935 845.078C785.336 844.488 785 843.687 785 842.852V839.468C785 837.752 785.691 836.107 786.921 834.894C788.151 833.681 789.82 833 791.559 833Z" fill="#44435E"/>
<path style="mix-blend-mode:multiply" d="M791.559 833H915.441C917.18 833 918.849 833.681 920.079 834.894C921.309 836.107 922 837.752 922 839.468V842.852C922 843.687 921.664 844.488 921.065 845.078C920.466 845.668 919.654 846 918.808 846H788.192C787.346 846 786.534 845.668 785.935 845.078C785.336 844.488 785 843.687 785 842.852V839.468C785 837.752 785.691 836.107 786.921 834.894C788.151 833.681 789.82 833 791.559 833Z" fill="url(#paint2_linear_51_12784)"/>
<path d="M737 801.325C737 801.325 778.771 723.421 925 743.224C925 743.311 776.199 849.874 737 801.325Z" fill="url(#paint3_linear_51_12784)"/>
<path style="mix-blend-mode:multiply" d="M737 801.325C737 801.325 778.771 723.421 925 743.224C925 743.311 776.199 849.874 737 801.325Z" fill="url(#paint4_linear_51_12784)"/>
<path style="mix-blend-mode:multiply" d="M886 753C803.476 762.678 729.229 804.774 659 847" stroke="url(#paint5_linear_51_12784)" stroke-miterlimit="10"/>
<path d="M670.743 812C670.743 812 737.272 753.499 684.903 615C684.903 615 614.605 784.685 670.743 812Z" fill="url(#paint6_linear_51_12784)"/>
<path style="mix-blend-mode:multiply" d="M670.743 812C670.743 812 737.272 753.499 684.903 615C684.903 615 614.605 784.685 670.743 812Z" fill="url(#paint7_linear_51_12784)"/>
<path style="mix-blend-mode:multiply" d="M684.837 655C690.784 703.66 683.756 752.757 672.445 800.106C669.245 813.484 665.72 826.753 662 840" stroke="url(#paint8_linear_51_12784)" stroke-miterlimit="10"/>
<path d="M732.94 783.892C732.94 783.892 827.397 822.706 879 626C879 626 705.513 682.009 732.94 783.892Z" fill="url(#paint9_linear_51_12784)"/>
<path style="mix-blend-mode:multiply" d="M732.94 783.892C732.94 783.892 827.397 822.706 879 626C879 626 705.513 682.009 732.94 783.892Z" fill="url(#paint10_linear_51_12784)"/>
<path style="mix-blend-mode:multiply" d="M852 661C828.788 702.61 791.558 740.016 751.554 769.165C736.972 779.934 721.381 789.256 705 797" stroke="url(#paint11_linear_51_12784)" stroke-miterlimit="10"/>
<path d="M692.205 781C692.205 781 796.862 747.7 778.934 603C778.934 602.978 654.198 695.597 692.205 781Z" fill="url(#paint12_linear_51_12784)"/>
<path style="mix-blend-mode:multiply" d="M692.205 781C692.205 781 796.862 747.7 778.934 603C778.934 602.978 654.198 695.597 692.205 781Z" fill="url(#paint13_linear_51_12784)"/>
<path style="mix-blend-mode:multiply" d="M764 640C749.916 688.589 725.892 734.813 694.143 776.965C684.727 789.181 674.665 800.877 664 812" stroke="url(#paint14_linear_51_12784)" stroke-miterlimit="10"/>
<path d="M655.124 842.033C653.123 832.375 675.846 808.598 691.872 800.499C748.582 771.849 858 847.209 858 847.209C856.63 853.272 662.517 877.677 655.124 842.033Z" fill="url(#paint15_linear_51_12784)"/>
<path style="mix-blend-mode:multiply" d="M655.124 842.033C653.123 832.375 675.846 808.598 691.872 800.499C748.582 771.849 858 847.209 858 847.209C856.63 853.272 662.517 877.677 655.124 842.033Z" fill="url(#paint16_linear_51_12784)"/>
<path style="mix-blend-mode:multiply" d="M817 833.173C768.767 817.204 719.923 816.202 674.158 834.611C661.543 839.972 649.441 846.461 638 854" stroke="url(#paint17_linear_51_12784)" stroke-miterlimit="10"/>
<path d="M611.156 853.69C611.156 853.69 598.882 753.035 792 745C792 745.044 697.752 902.249 611.156 853.69Z" fill="url(#paint18_linear_51_12784)"/>
<path style="mix-blend-mode:multiply" d="M611.156 853.69C611.156 853.69 598.882 753.035 792 745C792 745.044 697.752 902.249 611.156 853.69Z" fill="url(#paint19_linear_51_12784)"/>
<path style="mix-blend-mode:multiply" d="M753 764C706.777 781.265 664.28 807.146 627.779 840.259C617.583 849.575 607.972 859.508 599 870" stroke="url(#paint20_linear_51_12784)" stroke-miterlimit="10"/>
<path d="M182 848.013C182 848.013 148.573 764.194 21 778.683C20.9127 778.683 146.149 897.297 182 848.013Z" fill="url(#paint21_linear_51_12784)"/>
<path style="mix-blend-mode:multiply" d="M182 848.013C182 848.013 148.573 764.194 21 778.683C20.9127 778.683 146.149 897.297 182 848.013Z" fill="url(#paint22_linear_51_12784)"/>
<path style="mix-blend-mode:multiply" d="M54 790C125.025 803.628 187.736 851.521 247 899" stroke="url(#paint23_linear_51_12784)" stroke-miterlimit="10"/>
<path d="M276.763 838C276.763 838 188.073 802.692 181 627C181.044 627 319.66 783.231 276.763 838Z" fill="url(#paint24_linear_51_12784)"/>
<path style="mix-blend-mode:multiply" d="M276.763 838C276.763 838 188.073 802.692 181 627C181.044 627 319.66 783.231 276.763 838Z" fill="url(#paint25_linear_51_12784)"/>
<path style="mix-blend-mode:multiply" d="M198 671C223.575 766.174 281.648 845.95 339 921" stroke="url(#paint26_linear_51_12784)" stroke-miterlimit="10"/>
<path d="M234.589 832.005C234.589 832.005 124.843 869.391 65 680C65 680 266.419 734.021 234.589 832.005Z" fill="url(#paint27_linear_51_12784)"/>
<path style="mix-blend-mode:multiply" d="M234.589 832.005C234.589 832.005 124.843 869.391 65 680C65 680 266.419 734.021 234.589 832.005Z" fill="url(#paint28_linear_51_12784)"/>
<path style="mix-blend-mode:multiply" d="M97 714C123.849 754.143 166.859 790.105 213.172 818.187C230.304 828.69 248.315 837.662 267 845" stroke="url(#paint29_linear_51_12784)" stroke-miterlimit="10"/>
<path d="M271.408 865C271.408 865 288.189 733.378 143 677C143.044 676.934 173.065 861.59 271.408 865Z" fill="url(#paint30_linear_51_12784)"/>
<path style="mix-blend-mode:multiply" d="M271.408 865C271.408 865 288.189 733.378 143 677C143.044 676.934 173.065 861.59 271.408 865Z" fill="url(#paint31_linear_51_12784)"/>
<path style="mix-blend-mode:multiply" d="M171 712C210.233 752.765 242.928 803.153 267.885 859.826C275.143 876.237 281.224 893.476 287 911" stroke="url(#paint32_linear_51_12784)" stroke-miterlimit="10"/>
<path d="M250.861 892.916C253.04 882.702 229.074 857.475 212.124 848.899C152.34 818.499 37 898.415 37 898.415C38.3726 904.831 243.171 930.647 250.861 892.916Z" fill="url(#paint33_linear_51_12784)"/>
<path style="mix-blend-mode:multiply" d="M250.861 892.916C253.04 882.702 229.074 857.475 212.124 848.899C152.34 818.499 37 898.415 37 898.415C38.3726 904.831 243.171 930.647 250.861 892.916Z" fill="url(#paint34_linear_51_12784)"/>
<path style="mix-blend-mode:multiply" d="M80 883.91C130.656 866.979 181.967 865.903 230.029 885.447C243.284 891.112 255.994 897.992 268 906" stroke="url(#paint35_linear_51_12784)" stroke-miterlimit="10"/>
<path d="M326 895.864C326 895.864 316.471 789.389 116 823.874C116 823.874 247.634 965.184 326 895.864Z" fill="url(#paint36_linear_51_12784)"/>
<path style="mix-blend-mode:multiply" d="M326 895.864C326 895.864 316.471 789.389 116 823.874C116 823.874 247.634 965.184 326 895.864Z" fill="url(#paint37_linear_51_12784)"/>
<path style="mix-blend-mode:multiply" d="M161 835C212.394 842.594 261.866 859.83 306.784 885.79C319.342 893.117 331.437 901.202 343 910" stroke="url(#paint38_linear_51_12784)" stroke-miterlimit="10"/>
<path d="M681.341 864.491L283.108 924.56C271.264 926.349 259.988 917.232 257.981 904.21L159.197 269.497C157.125 256.061 165.392 244.719 177.628 244.13L587.945 224.827C598.632 224.325 608.709 234.031 610.476 246.529L696.871 839.67C698.682 851.775 691.702 862.921 681.341 864.491Z" fill="#44435E"/>
<path d="M688.91 868.37L291.745 928.613C279.924 930.402 268.691 921.328 266.684 908.307L168.14 274.553C166.09 261.161 174.334 249.819 186.549 249.23L595.754 229.6C606.398 229.076 616.453 238.782 618.219 251.259L704.484 843.549C706.207 855.698 699.249 866.8 688.91 868.37Z" fill="#5D5E8A"/>
<path style="mix-blend-mode:multiply" d="M688.91 868.37L291.767 928.614C279.923 930.402 268.668 921.329 266.683 908.329L168.139 274.554C166.089 261.161 174.356 249.819 186.548 249.231L258.94 245.763L506.74 233.875L595.753 229.513C606.397 229.011 616.452 238.696 618.241 251.172L704.483 843.462C706.206 855.698 699.27 866.8 688.91 868.37Z" fill="url(#paint39_linear_51_12784)"/>
<g style="mix-blend-mode:multiply">
<path d="M613.333 282.37L228.164 290.789L234.097 338.273L244.872 424.384L303.195 888.489L679.574 844.299L628.077 407.895L618.567 326.996L613.333 282.37Z" fill="#CFCFCF"/>
</g>
<path d="M594.14 268.107L209.386 295.895L217.303 343.422L231.633 429.49L308.497 891.915L681.735 829.033L613.792 393.741L601.141 312.777L594.14 268.107Z" fill="#EDE9F1"/>
<g style="mix-blend-mode:multiply">
<path d="M595.142 271.379L208.316 284.902L214.86 332.538L226.703 418.846L290.633 883.692L667.818 834.376L595.142 271.379Z" fill="#CFCFCF"/>
</g>
<path d="M664.874 823.079L288.365 879.156L204.107 328.155L590.454 304.795L664.874 823.079Z" fill="white"/>
<path d="M602.1 386.006L217.324 414.535L196.8 280.46L584.019 259.979L602.1 386.006Z" fill="white"/>
<path d="M297.873 492.373L571.127 466.2" stroke="#1C4670" stroke-miterlimit="10"/>
<path d="M308.691 563.801L581.073 534.77" stroke="#1C4670" stroke-miterlimit="10"/>
<path d="M319.469 635.018L591.021 603.152" stroke="#1C4670" stroke-miterlimit="10"/>
<path d="M330.221 705.993L600.923 671.312" stroke="#1C4670" stroke-miterlimit="10"/>
<path d="M339.947 770.174L609.864 732.964" stroke="#1C4670" stroke-miterlimit="10"/>
<g style="mix-blend-mode:multiply">
<path d="M513.525 275.075L508.422 239.784C508.125 237.749 507.56 235.761 506.742 233.874L258.942 245.761C258.66 247.765 258.66 249.798 258.942 251.803L264.373 288.228C264.619 290.312 265.608 292.237 267.158 293.651C268.708 295.065 270.717 295.873 272.814 295.927L507.811 283.298C511.65 283.058 514.158 279.394 513.525 275.075Z" fill="#CFCFCF"/>
</g>
<path d="M422.396 182.163L420.804 178.607C412.908 160.962 397.225 148.071 380.452 146.893C360.495 145.367 344.354 159.566 341.192 180.745L340.494 185.5C337.266 207.028 321.736 222.121 301.8 223.037L277.808 224.128C268.058 224.564 261.471 233.812 263.107 244.783L268.581 281.23C268.827 283.311 269.812 285.233 271.358 286.647C272.904 288.06 274.907 288.871 277.001 288.93L511.997 276.279C515.727 276.083 518.257 272.397 517.625 268.078L512.499 232.787C510.972 222.187 502.269 213.92 493.087 214.334L470.185 215.381C450.903 216.188 431.709 202.84 422.396 182.163ZM384.967 205.893C376.243 206.264 367.867 198.456 366.384 188.444C364.901 178.433 370.746 170.014 379.624 169.686C388.501 169.359 396.68 177.146 398.163 187.136C399.646 197.125 393.692 205.501 384.967 205.893Z" fill="url(#paint40_linear_51_12784)"/>
<path d="M273.047 381.992L274.555 368.957L276.326 368.804L276.136 373.837L274.444 387.459L272.686 387.611L273.047 381.992ZM267.118 369.6L272.132 381.817L273.976 387.5L272.231 387.65L264.69 369.81L267.118 369.6ZM283.159 380.851L283.902 368.15L286.343 367.939L284.968 386.55L283.222 386.701L283.159 380.851ZM276.591 368.781L282.292 381.193L284.512 386.589L282.754 386.741L276.718 373.787L274.846 368.932L276.591 368.781ZM290.867 366.532L294.112 385.76L291.772 385.962L288.527 366.734L290.867 366.532ZM292.326 378.522L291.346 378.569C291.198 377.642 291.192 376.774 291.33 375.967C291.466 375.15 291.729 374.429 292.12 373.803C292.51 373.176 293.016 372.675 293.637 372.3C294.265 371.915 294.992 371.687 295.818 371.616C296.493 371.558 297.116 371.597 297.686 371.734C298.256 371.863 298.763 372.107 299.209 372.466C299.663 372.825 300.044 373.309 300.352 373.917C300.658 374.517 300.887 375.264 301.038 376.157L302.536 385.032L300.183 385.235L298.681 376.335C298.561 375.625 298.36 375.067 298.077 374.66C297.793 374.244 297.433 373.958 296.996 373.801C296.557 373.635 296.043 373.578 295.452 373.629C294.871 373.679 294.36 373.846 293.92 374.13C293.489 374.413 293.136 374.782 292.862 375.237C292.597 375.692 292.414 376.203 292.313 376.771C292.219 377.329 292.223 377.913 292.326 378.522ZM313.718 381.716L312.541 374.744C312.451 374.209 312.263 373.756 311.978 373.382C311.699 373 311.327 372.719 310.86 372.539C310.393 372.359 309.844 372.297 309.212 372.351C308.621 372.402 308.12 372.547 307.707 372.786C307.302 373.024 307.001 373.317 306.802 373.664C306.613 374.011 306.55 374.372 306.613 374.748L304.273 374.95C304.192 374.466 304.237 373.975 304.41 373.477C304.582 372.98 304.872 372.519 305.28 372.094C305.694 371.66 306.216 371.302 306.844 371.019C307.479 370.727 308.209 370.546 309.036 370.474C310.031 370.388 310.936 370.479 311.751 370.748C312.575 371.015 313.259 371.468 313.803 372.107C314.354 372.737 314.715 373.557 314.885 374.566L315.95 380.876C316.026 381.326 316.145 381.803 316.307 382.305C316.477 382.807 316.674 383.235 316.896 383.588L316.93 383.788L314.488 383.999C314.325 383.742 314.173 383.396 314.031 382.959C313.887 382.514 313.783 382.1 313.718 381.716ZM313.128 375.785L313.428 377.41L311.062 377.615C310.396 377.672 309.811 377.778 309.306 377.932C308.801 378.077 308.388 378.269 308.069 378.508C307.75 378.748 307.525 379.034 307.393 379.367C307.259 379.692 307.228 380.063 307.298 380.48C307.37 380.906 307.533 381.285 307.786 381.619C308.039 381.953 308.377 382.207 308.8 382.382C309.23 382.548 309.732 382.607 310.305 382.557C311.022 382.495 311.629 382.29 312.127 381.943C312.624 381.595 312.996 381.19 313.243 380.728C313.499 380.266 313.605 379.829 313.561 379.418L314.748 380.446C314.749 380.802 314.654 381.204 314.464 381.652C314.275 382.1 313.994 382.539 313.622 382.969C313.256 383.39 312.796 383.756 312.241 384.066C311.693 384.368 311.048 384.551 310.306 384.615C309.379 384.695 308.535 384.586 307.774 384.287C307.022 383.988 306.402 383.555 305.912 382.988C305.43 382.411 305.125 381.747 304.999 380.996C304.876 380.27 304.912 379.619 305.105 379.044C305.298 378.46 305.633 377.961 306.11 377.547C306.587 377.125 307.188 376.785 307.915 376.528C308.641 376.27 309.472 376.101 310.408 376.02L313.128 375.785ZM323.573 369.472L323.873 371.25L316.474 371.889L316.174 370.111L323.573 369.472ZM318.122 366.603L320.462 366.401L322.738 379.883C322.815 380.342 322.946 380.682 323.128 380.903C323.311 381.124 323.523 381.263 323.763 381.318C324.003 381.374 324.254 381.39 324.516 381.368C324.71 381.351 324.909 381.317 325.114 381.265C325.327 381.204 325.485 381.157 325.591 381.122L325.922 383.011C325.747 383.086 325.511 383.161 325.216 383.238C324.931 383.321 324.578 383.382 324.156 383.418C323.583 383.468 323.037 383.4 322.518 383.217C321.999 383.033 321.552 382.69 321.177 382.189C320.808 381.679 320.548 380.974 320.396 380.072L318.122 366.603ZM335.285 368.46L337.571 382.005L335.219 382.208L332.933 368.663L335.285 368.46ZM332.149 365.086C332.086 364.711 332.146 364.384 332.33 364.105C332.522 363.826 332.846 363.667 333.302 363.627C333.749 363.589 334.112 363.689 334.392 363.927C334.68 364.165 334.856 364.471 334.919 364.847C334.98 365.206 334.909 365.525 334.709 365.805C334.515 366.076 334.194 366.23 333.747 366.269C333.292 366.308 332.925 366.213 332.647 365.983C332.376 365.744 332.21 365.445 332.149 365.086ZM348.69 377.399C348.633 377.065 348.505 376.763 348.306 376.493C348.113 376.213 347.769 375.976 347.275 375.781C346.787 375.578 346.077 375.428 345.145 375.33C344.36 375.237 343.641 375.109 342.989 374.945C342.345 374.781 341.782 374.563 341.3 374.291C340.826 374.019 340.44 373.684 340.142 373.286C339.844 372.888 339.648 372.41 339.553 371.851C339.463 371.317 339.496 370.802 339.652 370.306C339.816 369.809 340.086 369.358 340.463 368.953C340.848 368.547 341.335 368.213 341.923 367.95C342.512 367.688 343.19 367.523 343.958 367.457C345.054 367.362 346.022 367.473 346.863 367.79C347.703 368.107 348.384 368.569 348.906 369.176C349.426 369.774 349.752 370.462 349.883 371.238L347.543 371.44C347.479 371.064 347.304 370.711 347.017 370.38C346.738 370.041 346.363 369.772 345.894 369.576C345.433 369.379 344.894 369.307 344.279 369.36C343.629 369.416 343.119 369.561 342.748 369.797C342.384 370.023 342.135 370.294 342 370.611C341.874 370.926 341.839 371.251 341.895 371.585C341.938 371.835 342.018 372.057 342.136 372.25C342.261 372.434 342.452 372.6 342.707 372.747C342.962 372.886 343.308 373.008 343.745 373.114C344.182 373.221 344.733 373.317 345.398 373.403C346.561 373.557 347.535 373.778 348.32 374.065C349.104 374.353 349.716 374.737 350.156 375.215C350.596 375.693 350.878 376.296 351 377.022C351.1 377.614 351.065 378.168 350.895 378.682C350.734 379.195 350.447 379.652 350.036 380.052C349.631 380.442 349.121 380.766 348.506 381.022C347.897 381.269 347.193 381.428 346.391 381.497C345.186 381.601 344.129 381.476 343.223 381.123C342.316 380.769 341.591 380.273 341.047 379.634C340.503 378.996 340.167 378.301 340.04 377.55L342.393 377.346C342.534 377.978 342.804 378.467 343.205 378.813C343.604 379.151 344.062 379.378 344.578 379.494C345.092 379.602 345.59 379.636 346.07 379.594C346.711 379.539 347.233 379.409 347.634 379.205C348.045 379 348.339 378.742 348.517 378.43C348.696 378.118 348.753 377.775 348.69 377.399ZM366.615 370.846L361.947 371.25L361.595 369.312L365.832 368.945C366.532 368.885 367.123 368.715 367.607 368.436C368.09 368.158 368.438 367.789 368.652 367.33C368.872 366.862 368.931 366.324 368.828 365.715C368.716 365.047 368.493 364.516 368.161 364.121C367.837 363.717 367.392 363.442 366.829 363.296C366.272 363.141 365.589 363.099 364.78 363.169L361.188 363.479L363.93 379.728L361.489 379.938L358.413 361.712L364.446 361.191C365.39 361.109 366.25 361.132 367.024 361.26C367.797 361.38 368.475 361.617 369.057 361.973C369.646 362.321 370.126 362.787 370.499 363.373C370.872 363.959 371.13 364.677 371.274 365.529C371.4 366.28 371.321 366.977 371.036 367.619C370.75 368.254 370.293 368.793 369.667 369.236C369.048 369.679 368.289 369.995 367.388 370.183L366.615 370.846ZM367.94 379.381L362.425 379.858L363.472 377.773L367.608 377.416C368.384 377.349 369.019 377.158 369.513 376.845C370.016 376.53 370.37 376.119 370.575 375.61C370.779 375.093 370.824 374.5 370.712 373.833C370.598 373.157 370.377 372.583 370.049 372.112C369.722 371.641 369.274 371.294 368.706 371.072C368.138 370.85 367.441 370.775 366.615 370.846L363.136 371.147L362.834 369.204L367.59 368.794L368.227 369.45C369.125 369.448 369.918 369.634 370.605 370.006C371.291 370.37 371.849 370.864 372.279 371.487C372.718 372.11 373.004 372.813 373.136 373.598C373.328 374.733 373.237 375.714 372.863 376.543C372.497 377.362 371.893 378.015 371.051 378.503C370.208 378.982 369.171 379.275 367.94 379.381ZM388.996 375.568L389.328 377.533L379.576 378.376L379.244 376.41L388.996 375.568ZM376.993 360.107L380.069 378.333L377.628 378.544L374.552 360.318L376.993 360.107ZM386.284 367.255L386.616 369.22L378.154 369.951L377.822 367.986L386.284 367.255ZM386.125 359.318L386.459 361.295L376.833 362.127L376.5 360.149L386.125 359.318ZM403.719 374.296L404.05 376.261L394.299 377.104L393.967 375.138L403.719 374.296ZM391.715 358.835L394.792 377.061L392.351 377.272L389.274 359.046L391.715 358.835ZM401.006 365.983L401.338 367.948L392.876 368.679L392.545 366.714L401.006 365.983ZM400.847 358.046L401.181 360.023L391.556 360.855L391.222 358.877L400.847 358.046ZM423.638 368.688L426.066 368.479C426.134 369.641 425.975 370.701 425.589 371.657C425.203 372.613 424.562 373.401 423.665 374.02C422.767 374.631 421.581 375.001 420.105 375.128C419.026 375.221 418.01 375.106 417.057 374.782C416.112 374.457 415.262 373.955 414.505 373.275C413.748 372.587 413.108 371.74 412.588 370.735C412.075 369.721 411.71 368.576 411.495 367.299L411.188 365.484C410.973 364.207 410.946 363.037 411.109 361.973C411.279 360.9 411.621 359.964 412.137 359.166C412.661 358.367 413.344 357.728 414.187 357.249C415.03 356.769 416.021 356.481 417.159 356.382C418.55 356.262 419.77 356.419 420.819 356.853C421.868 357.288 422.735 357.941 423.421 358.813C424.114 359.676 424.626 360.703 424.955 361.894L422.527 362.104C422.265 361.263 421.922 360.551 421.499 359.97C421.074 359.38 420.539 358.944 419.892 358.661C419.246 358.378 418.446 358.278 417.493 358.36C416.675 358.431 415.98 358.647 415.408 359.01C414.845 359.372 414.4 359.855 414.074 360.459C413.757 361.062 413.56 361.769 413.483 362.58C413.406 363.391 413.449 364.281 413.613 365.249L413.923 367.089C414.074 367.982 414.308 368.813 414.626 369.581C414.952 370.349 415.36 371.012 415.848 371.571C416.335 372.13 416.908 372.555 417.564 372.846C418.219 373.128 418.955 373.233 419.773 373.163C420.811 373.073 421.609 372.839 422.17 372.46C422.731 372.082 423.116 371.574 423.325 370.938C423.542 370.301 423.647 369.551 423.638 368.688ZM435.738 373.777C434.785 373.86 433.894 373.776 433.065 373.526C432.243 373.267 431.504 372.869 430.849 372.333C430.202 371.796 429.664 371.14 429.233 370.364C428.803 369.588 428.508 368.725 428.347 367.774L428.258 367.248C428.072 366.146 428.071 365.151 428.255 364.263C428.437 363.367 428.76 362.594 429.224 361.944C429.687 361.295 430.252 360.784 430.916 360.414C431.581 360.043 432.297 359.824 433.064 359.758C434.042 359.674 434.914 359.768 435.678 360.04C436.451 360.312 437.116 360.729 437.673 361.291C438.228 361.844 438.684 362.516 439.04 363.306C439.394 364.088 439.652 364.955 439.812 365.907L439.988 366.946L429.768 367.829L429.449 365.938L437.329 365.257L437.299 365.082C437.164 364.484 436.939 363.911 436.624 363.362C436.317 362.813 435.901 362.375 435.375 362.048C434.85 361.721 434.186 361.592 433.385 361.661C432.854 361.707 432.384 361.862 431.975 362.126C431.565 362.381 431.236 362.74 430.989 363.202C430.742 363.663 430.582 364.215 430.511 364.856C430.44 365.497 430.473 366.227 430.611 367.044L430.7 367.57C430.808 368.213 430.999 368.81 431.272 369.362C431.552 369.906 431.9 370.375 432.318 370.771C432.744 371.166 433.226 371.463 433.764 371.662C434.311 371.86 434.905 371.932 435.546 371.876C436.372 371.805 437.044 371.577 437.561 371.194C438.078 370.811 438.504 370.321 438.84 369.725L440.445 370.716C440.224 371.184 439.92 371.638 439.532 372.078C439.145 372.518 438.639 372.892 438.015 373.2C437.399 373.507 436.641 373.699 435.738 373.777ZM444.166 361.212L446.093 372.629L443.753 372.831L441.467 359.286L443.743 359.09L444.166 361.212ZM448.069 358.64L448.42 360.794C448.219 360.769 448.029 360.76 447.851 360.767C447.679 360.765 447.484 360.773 447.265 360.792C446.725 360.839 446.263 360.963 445.878 361.166C445.493 361.368 445.182 361.632 444.946 361.958C444.71 362.283 444.543 362.661 444.445 363.093C444.354 363.516 444.324 363.976 444.357 364.472L443.763 364.905C443.624 364.087 443.575 363.312 443.614 362.581C443.662 361.848 443.812 361.192 444.064 360.611C444.316 360.022 444.681 359.55 445.16 359.196C445.646 358.832 446.26 358.618 447.002 358.554C447.171 358.539 447.368 358.543 447.595 358.566C447.82 358.581 447.978 358.605 448.069 358.64ZM456.607 357.978L456.907 359.756L449.507 360.395L449.207 358.617L456.607 357.978ZM451.156 355.109L453.496 354.907L455.772 368.389C455.849 368.848 455.979 369.188 456.162 369.409C456.345 369.63 456.556 369.769 456.797 369.824C457.037 369.88 457.288 369.896 457.549 369.874C457.743 369.857 457.943 369.823 458.148 369.771C458.36 369.71 458.519 369.663 458.624 369.628L458.956 371.517C458.78 371.592 458.545 371.667 458.25 371.744C457.965 371.827 457.611 371.888 457.19 371.924C456.616 371.974 456.07 371.906 455.552 371.723C455.033 371.539 454.586 371.196 454.21 370.695C453.842 370.185 453.582 369.48 453.43 368.578L451.156 355.109ZM461.894 357.521L464.18 371.066L461.827 371.269L459.541 357.725L461.894 357.521ZM458.758 354.147C458.694 353.772 458.754 353.445 458.938 353.166C459.131 352.887 459.455 352.728 459.91 352.689C460.357 352.65 460.72 352.75 461 352.988C461.288 353.226 461.464 353.532 461.527 353.908C461.588 354.267 461.518 354.586 461.317 354.866C461.123 355.137 460.803 355.291 460.356 355.33C459.901 355.369 459.534 355.274 459.255 355.044C458.984 354.805 458.818 354.506 458.758 354.147ZM471.06 370.472L468.72 370.674L466.236 355.952C466.062 354.926 466.118 354.04 466.403 353.296C466.688 352.552 467.175 351.964 467.863 351.532C468.552 351.099 469.411 350.839 470.439 350.75C471.046 350.698 471.654 350.721 472.261 350.821C472.866 350.913 473.495 351.041 474.148 351.204L474.085 353.191C473.672 353.074 473.197 352.972 472.66 352.883C472.13 352.784 471.562 352.761 470.954 352.814C469.951 352.901 469.264 353.189 468.893 353.678C468.529 354.158 468.423 354.849 468.576 355.75L471.06 370.472ZM471.569 356.685L471.869 358.463L464.571 359.094L464.271 357.316L471.569 356.685ZM476.173 356.288L478.46 369.832L476.12 370.034L473.833 356.49L476.173 356.288ZM487.502 367.375C488.059 367.326 488.554 367.169 488.988 366.903C489.423 366.637 489.758 366.295 489.996 365.876C490.232 365.45 490.328 364.98 490.284 364.467L492.51 364.275C492.603 365.08 492.455 365.85 492.066 366.587C491.684 367.314 491.124 367.925 490.387 368.421C489.648 368.908 488.793 369.194 487.824 369.277C486.795 369.366 485.867 369.264 485.039 368.972C484.219 368.678 483.504 368.241 482.892 367.659C482.289 367.076 481.793 366.39 481.403 365.603C481.02 364.806 480.752 363.953 480.599 363.043L480.51 362.517C480.357 361.608 480.334 360.738 480.442 359.907C480.556 359.067 480.81 358.313 481.202 357.644C481.602 356.974 482.151 356.427 482.85 356.003C483.556 355.578 484.424 355.321 485.453 355.232C486.524 355.139 487.496 355.275 488.371 355.64C489.243 355.997 489.97 356.527 490.551 357.23C491.139 357.924 491.533 358.737 491.732 359.668L489.506 359.86C489.37 359.305 489.124 358.814 488.77 358.387C488.424 357.96 487.993 357.633 487.475 357.407C486.965 357.171 486.398 357.081 485.774 357.135C485.057 357.197 484.478 357.39 484.037 357.717C483.603 358.033 483.283 358.442 483.076 358.943C482.877 359.434 482.763 359.973 482.733 360.56C482.711 361.138 482.75 361.723 482.85 362.315L482.939 362.841C483.039 363.433 483.196 364.013 483.412 364.578C483.627 365.144 483.913 365.648 484.27 366.092C484.636 366.534 485.083 366.877 485.611 367.119C486.147 367.352 486.777 367.437 487.502 367.375ZM503.542 365.316L502.365 358.343C502.275 357.809 502.087 357.355 501.802 356.982C501.523 356.599 501.151 356.318 500.684 356.138C500.218 355.959 499.668 355.896 499.036 355.951C498.445 356.002 497.944 356.147 497.531 356.386C497.126 356.624 496.825 356.916 496.627 357.264C496.437 357.61 496.374 357.972 496.437 358.347L494.097 358.549C494.016 358.065 494.061 357.574 494.234 357.077C494.406 356.579 494.696 356.118 495.104 355.693C495.518 355.26 496.04 354.901 496.668 354.619C497.303 354.327 498.034 354.145 498.86 354.073C499.855 353.988 500.76 354.079 501.575 354.347C502.399 354.614 503.083 355.068 503.627 355.706C504.178 356.336 504.539 357.156 504.709 358.166L505.774 364.475C505.85 364.926 505.969 365.402 506.131 365.905C506.301 366.407 506.498 366.834 506.72 367.187L506.754 367.388L504.312 367.599C504.149 367.342 503.997 366.995 503.855 366.559C503.711 366.114 503.607 365.699 503.542 365.316ZM502.952 359.385L503.252 361.01L500.886 361.214C500.22 361.272 499.635 361.377 499.131 361.531C498.625 361.676 498.212 361.868 497.893 362.108C497.574 362.347 497.349 362.633 497.217 362.966C497.084 363.291 497.052 363.662 497.122 364.079C497.194 364.505 497.357 364.885 497.61 365.218C497.863 365.552 498.201 365.807 498.624 365.982C499.054 366.148 499.556 366.206 500.129 366.157C500.846 366.095 501.453 365.89 501.951 365.542C502.448 365.194 502.82 364.789 503.067 364.328C503.323 363.865 503.429 363.429 503.385 363.018L504.573 364.045C504.573 364.401 504.478 364.803 504.288 365.251C504.099 365.699 503.818 366.138 503.446 366.569C503.08 366.99 502.62 367.355 502.065 367.666C501.517 367.967 500.872 368.15 500.13 368.214C499.203 368.294 498.359 368.185 497.598 367.887C496.846 367.588 496.226 367.154 495.736 366.587C495.254 366.01 494.95 365.347 494.823 364.596C494.7 363.87 494.736 363.219 494.93 362.643C495.122 362.059 495.457 361.56 495.934 361.147C496.411 360.724 497.012 360.385 497.739 360.127C498.465 359.87 499.296 359.7 500.232 359.619L502.952 359.385ZM513.397 353.071L513.697 354.849L506.298 355.488L505.998 353.711L513.397 353.071ZM507.946 350.202L510.286 350L512.562 363.482C512.639 363.941 512.77 364.281 512.952 364.503C513.135 364.724 513.347 364.862 513.587 364.918C513.827 364.973 514.078 364.989 514.34 364.967C514.534 364.95 514.733 364.916 514.938 364.864C515.151 364.804 515.309 364.756 515.415 364.722L515.746 366.611C515.571 366.685 515.335 366.761 515.04 366.837C514.755 366.921 514.402 366.981 513.98 367.017C513.407 367.067 512.861 367 512.342 366.816C511.823 366.632 511.376 366.29 511.001 365.789C510.632 365.279 510.372 364.573 510.22 363.672L507.946 350.202ZM518.684 352.615L520.97 366.159L518.618 366.363L516.331 352.818L518.684 352.615ZM515.548 349.241C515.484 348.865 515.545 348.538 515.729 348.26C515.921 347.981 516.245 347.821 516.7 347.782C517.147 347.743 517.511 347.843 517.79 348.082C518.079 348.319 518.254 348.626 518.318 349.001C518.378 349.36 518.308 349.679 518.107 349.959C517.914 350.23 517.593 350.385 517.146 350.423C516.691 350.463 516.324 350.367 516.046 350.137C515.774 349.898 515.608 349.599 515.548 349.241ZM522.989 359.266L522.941 358.978C522.776 358.002 522.766 357.084 522.912 356.225C523.057 355.357 523.346 354.591 523.782 353.927C524.216 353.254 524.788 352.714 525.497 352.305C526.205 351.889 527.036 351.639 527.989 351.557C528.95 351.474 529.844 351.574 530.67 351.859C531.504 352.134 532.243 352.561 532.889 353.14C533.541 353.71 534.082 354.405 534.51 355.223C534.938 356.032 535.234 356.926 535.399 357.902L535.448 358.19C535.612 359.166 535.622 360.084 535.476 360.943C535.33 361.803 535.036 362.569 534.594 363.242C534.158 363.907 533.586 364.447 532.878 364.864C532.177 365.272 531.346 365.517 530.385 365.6C529.423 365.683 528.53 365.587 527.705 365.311C526.879 365.027 526.139 364.599 525.487 364.029C524.842 363.45 524.305 362.755 523.878 361.946C523.45 361.136 523.154 360.243 522.989 359.266ZM525.28 358.776L525.329 359.064C525.443 359.74 525.631 360.372 525.893 360.959C526.153 361.537 526.482 362.042 526.88 362.474C527.286 362.904 527.756 363.232 528.291 363.457C528.823 363.673 529.414 363.753 530.064 363.697C530.704 363.642 531.243 363.464 531.68 363.164C532.124 362.855 532.468 362.457 532.711 361.97C532.954 361.483 533.105 360.937 533.165 360.33C533.233 359.715 533.209 359.069 533.095 358.393L533.046 358.105C532.934 357.438 532.743 356.815 532.474 356.237C532.213 355.65 531.879 355.141 531.473 354.71C531.073 354.271 530.606 353.938 530.072 353.714C529.547 353.488 528.959 353.403 528.31 353.46C527.669 353.515 527.127 353.697 526.683 354.007C526.247 354.315 525.904 354.717 525.654 355.213C525.411 355.7 525.261 356.25 525.202 356.865C525.142 357.472 525.168 358.109 525.28 358.776ZM540.042 353.703L541.84 364.356L539.5 364.559L537.214 351.014L539.427 350.823L540.042 353.703ZM540.053 357.119L539.073 357.165C538.925 356.238 538.92 355.371 539.057 354.563C539.193 353.747 539.457 353.026 539.847 352.399C540.238 351.773 540.743 351.272 541.364 350.896C541.992 350.512 542.72 350.284 543.546 350.213C544.221 350.154 544.843 350.194 545.414 350.331C545.983 350.459 546.49 350.703 546.936 351.063C547.39 351.422 547.771 351.905 548.079 352.514C548.386 353.114 548.615 353.86 548.765 354.753L550.263 363.629L547.911 363.832L546.408 354.931C546.289 354.222 546.088 353.664 545.805 353.256C545.521 352.84 545.16 352.554 544.723 352.397C544.285 352.232 543.77 352.175 543.18 352.226C542.598 352.276 542.087 352.443 541.648 352.726C541.216 353.009 540.864 353.378 540.59 353.834C540.324 354.289 540.141 354.8 540.04 355.367C539.946 355.926 539.951 356.51 540.053 357.119ZM558.036 357.75L555.683 357.953C555.556 357.151 555.518 356.49 555.566 355.969C555.623 355.439 555.775 354.948 556.023 354.494C556.272 354.041 556.616 353.52 557.056 352.932C557.377 352.506 557.67 352.108 557.932 351.738C558.202 351.36 558.404 350.961 558.539 350.543C558.672 350.117 558.691 349.62 558.595 349.052C558.498 348.476 558.309 347.989 558.028 347.59C557.755 347.19 557.397 346.895 556.954 346.705C556.52 346.513 556.008 346.443 555.417 346.494C554.928 346.537 554.479 346.664 554.07 346.877C553.662 347.091 553.353 347.392 553.145 347.783C552.936 348.165 552.877 348.649 552.967 349.234L550.627 349.436C550.484 348.491 550.584 347.661 550.925 346.946C551.275 346.23 551.811 345.659 552.535 345.232C553.259 344.805 554.105 344.55 555.075 344.466C556.146 344.374 557.089 344.487 557.904 344.806C558.728 345.125 559.399 345.625 559.916 346.309C560.432 346.984 560.772 347.81 560.937 348.786C561.064 349.537 561.025 350.243 560.82 350.905C560.622 351.557 560.329 352.179 559.942 352.771C559.554 353.364 559.133 353.934 558.677 354.481C558.286 354.947 558.055 355.453 557.985 356.001C557.914 356.549 557.932 357.132 558.036 357.75ZM556.252 361.93C556.188 361.554 556.253 361.227 556.445 360.948C556.638 360.669 556.957 360.51 557.404 360.471C557.86 360.432 558.227 360.532 558.507 360.77C558.787 361.008 558.958 361.315 559.022 361.691C559.082 362.049 559.016 362.368 558.824 362.648C558.632 362.927 558.308 363.086 557.852 363.125C557.405 363.164 557.042 363.064 556.762 362.826C556.483 362.587 556.312 362.289 556.252 361.93Z" fill="#1C4670"/>
<path d="M783.181 502.792C793.825 491.603 820.086 515.203 792.756 547.527C780.214 562.359 769.657 565.238 755.262 573.876C741.87 581.902 692.467 570.56 692.467 570.56C691.574 566.67 691.574 562.628 692.467 558.738C692.467 558.738 734.476 562.708 745.665 553.569C762.045 540.155 776.746 509.488 783.181 502.792Z" fill="url(#paint41_linear_51_12784)"/>
<path d="M811.207 897.709V914.7H787.105C787.105 914.7 783.637 908.549 795.088 905.714L796.767 897.709H811.207Z" fill="#133A50"/>
<path d="M739.555 897.709V914.7H715.562C716.091 912.679 717.09 910.812 718.477 909.25C719.865 907.689 721.601 906.477 723.546 905.714L725.836 897.709H739.555Z" fill="#133A50"/>
<path d="M805.731 618.267C805.731 618.267 810.289 672.926 810.464 717.531C810.638 762.135 813.278 901.619 813.278 901.619H795.261C795.261 901.619 776.7 781.525 769.96 752.865C763.22 724.205 745.662 618.812 745.662 618.812L805.731 618.267Z" fill="#133A50"/>
<path style="mix-blend-mode:multiply" d="M805.731 618.267C805.731 618.267 810.289 672.926 810.464 717.531C810.638 762.135 813.278 901.619 813.278 901.619H795.261C795.261 901.619 776.7 781.525 769.96 752.865C763.22 724.205 745.662 618.812 745.662 618.812L805.731 618.267Z" fill="url(#paint42_linear_51_12784)"/>
<path d="M776.047 671.725C775.589 696.481 754.235 756.79 753.647 770.226C753.058 783.661 740.56 901.552 740.56 901.552C740.56 901.552 723.699 901.989 723.699 901.552C723.699 901.116 717.81 779.932 715.738 746.975C713.666 714.018 720.406 662.739 720.101 657.417C719.512 646.293 725.619 627.71 725.619 627.71L776.069 622.867C776.069 622.867 776.701 635.671 776.047 671.725Z" fill="#133A50"/>
<path style="mix-blend-mode:multiply" d="M776.047 671.725C775.589 696.481 754.235 756.79 753.647 770.226C753.058 783.661 740.56 901.552 740.56 901.552C740.56 901.552 723.699 901.989 723.699 901.552C723.699 901.116 717.81 779.932 715.738 746.975C713.666 714.018 720.406 662.739 720.101 657.417C719.512 646.293 725.619 627.71 725.619 627.71L776.069 622.867C776.069 622.867 776.701 635.671 776.047 671.725Z" fill="url(#paint43_linear_51_12784)"/>
<path d="M561.879 477.365L813.278 649.567L827.935 628.671L576.558 456.47L561.879 477.365Z" fill="url(#paint44_linear_51_12784)"/>
<path d="M561.88 477.363L540.549 453.872L546.809 444.951L576.56 456.467L561.88 477.363Z" fill="url(#paint45_linear_51_12784)"/>
<path d="M838 635.631L828.02 628.627L813.348 649.534L823.328 656.538L838 635.631Z" fill="url(#paint46_linear_51_12784)"/>
<path d="M841.613 669.45L823.379 656.56L838.036 635.665L856.401 648.555C857.776 649.515 858.947 650.738 859.848 652.152C860.75 653.566 861.363 655.144 861.652 656.796C861.942 658.447 861.903 660.14 861.537 661.776C861.171 663.412 860.486 664.961 859.521 666.331C858.558 667.722 857.328 668.907 855.903 669.818C854.478 670.729 852.886 671.348 851.22 671.638C849.553 671.928 847.846 671.884 846.197 671.509C844.548 671.133 842.99 670.434 841.613 669.45Z" fill="url(#paint47_linear_51_12784)"/>
<path d="M529.402 442.178L540.592 453.804L546.808 444.948L532.085 438.405C531.563 438.124 530.96 438.034 530.379 438.149C529.798 438.265 529.275 438.579 528.901 439.037C528.616 439.54 528.511 440.125 528.602 440.696C528.693 441.266 528.975 441.789 529.402 442.178Z" fill="#1B2D35"/>
<path d="M742.261 421.725C738.488 423.906 736.917 430.319 736.917 430.319C736.917 430.319 735.456 437.516 734.54 442.969C733.624 448.422 728.956 452.719 729.501 454.18C730.046 455.642 733.231 455.642 733.231 457.67C733.231 459.699 733.994 465.522 733.951 469.536C733.907 473.549 737.942 474.16 741.694 474.487C745.445 474.814 750.418 475.73 751.182 477.475C751.945 479.22 753.014 496.931 753.014 496.931L780.496 486.156C778.793 480.801 777.911 475.22 777.879 469.601C778.163 461.902 778.555 452.675 778.555 452.675C778.555 452.675 777.007 435.924 766.69 429.184C756.373 422.445 742.261 421.725 742.261 421.725Z" fill="#FEC4AD"/>
<path d="M749.655 430.447C747.059 430.12 740.93 430.447 736.917 430.316C736 430.242 735.116 429.941 734.344 429.441C733.572 428.941 732.935 428.258 732.492 427.452C732.049 426.645 731.813 425.742 731.805 424.822C731.797 423.902 732.017 422.995 732.446 422.181C734.154 419.601 735.706 416.921 737.091 414.154C737.091 414.154 741.454 417.949 749.829 414.307C758.205 410.664 774.084 410.817 779.449 422.682C779.449 422.682 790.071 427.045 790.551 435.508C791.031 443.97 789.243 447.111 785.186 452.739C781.129 458.366 777.879 469.599 777.879 469.599C774.588 469.782 771.289 469.782 767.998 469.599C763.091 469.25 758.554 461.987 756.569 458.519C756.569 458.519 763.745 453.109 761.978 447.613C760.212 442.116 752.97 444.625 752.076 447.22C751.133 449.445 749.948 451.559 748.542 453.524L745.38 453.786C744.953 449.488 744.808 445.168 744.944 440.851C745.271 435.878 749.655 430.447 749.655 430.447Z" fill="#1B2D35"/>
<path d="M777.705 482.763C777.705 482.763 765.949 484.944 760.256 485.664C754.563 486.383 738.575 496.918 738.575 496.918C738.575 496.918 721.235 505.643 720.603 524.074C719.97 542.504 722.195 628.943 721.562 635.094C721.562 635.094 727.321 648.486 768.239 647.352C782.193 647.032 796.007 644.485 809.157 639.805C809.157 639.805 810.422 587.959 810.553 571.797C811.077 507.519 802.156 497.398 794.086 489.306C787.76 483.155 777.705 482.763 777.705 482.763Z" fill="url(#paint48_linear_51_12784)"/>
<path d="M611.043 511.142C607.401 508.655 606.856 503.399 604.718 500.978C602.58 498.557 602.144 498.404 601.839 499.451C601.74 501.301 601.82 503.157 602.079 504.991L588.425 495.612C586.418 494.216 585.895 496.114 586.811 498.251C587.727 500.389 585.895 501.589 586.811 505.209C587.727 508.83 588.643 509.157 588.992 512.342C589.341 515.526 593.354 518.034 596.582 519.823C599.81 521.611 604.02 521.35 607.357 522.68C610.694 524.011 614.468 525.996 614.468 525.996L611.043 511.142Z" fill="#FEC4AD"/>
<path d="M750.964 488.197C767.868 480.716 777.247 502.048 752.818 521.438C733.188 536.99 665.572 547.481 665.572 547.481L609.146 526.476C609.146 526.476 606.834 515.854 610.957 511.208L662.955 522.725C662.955 522.725 731.247 496.944 750.964 488.197Z" fill="url(#paint49_linear_51_12784)"/>
<path d="M692.507 570.512C695.779 570.12 697.567 568.135 697.153 566.281C696.738 564.427 694.841 564.602 694.863 563.162C694.884 561.722 693.183 559.694 692.507 558.691C691.831 557.687 692.18 554.677 689.89 554.656C687.92 554.874 686.063 555.689 684.568 556.989C682.495 557.902 680.148 557.972 678.024 557.186C676.672 556.357 676.737 558.145 677.217 559.018C678.504 561.199 680.969 561.373 681.819 564.841C682.67 568.31 688.254 571.014 692.507 570.512Z" fill="#FEC4AD"/>
<defs>
<linearGradient id="paint0_linear_51_12784" x1="800.64" y1="394.743" x2="914.024" y2="199.271" gradientUnits="userSpaceOnUse">
<stop stop-color="#FFA229"/>
<stop offset="1" stop-color="#FFC63B"/>
</linearGradient>
<linearGradient id="paint1_linear_51_12784" x1="862.695" y1="419.897" x2="936.987" y2="156.195" gradientUnits="userSpaceOnUse">
<stop stop-color="white"/>
<stop offset="1" stop-color="white" stop-opacity="0"/>
</linearGradient>
<linearGradient id="paint2_linear_51_12784" x1="784.913" y1="839.554" x2="922.109" y2="839.554" gradientUnits="userSpaceOnUse">
<stop stop-color="#75769A"/>
<stop offset="0.97" stop-color="white" stop-opacity="0"/>
</linearGradient>
<linearGradient id="paint3_linear_51_12784" x1="923.683" y1="758.761" x2="753.196" y2="787.956" gradientUnits="userSpaceOnUse">
<stop stop-color="#6AC578"/>
<stop offset="0.88" stop-color="#4A974D"/>
</linearGradient>
<linearGradient id="paint4_linear_51_12784" x1="782.774" y1="800.059" x2="880.039" y2="733.808" gradientUnits="userSpaceOnUse">
<stop stop-color="#7C8A99"/>
<stop offset="1" stop-color="white" stop-opacity="0"/>
</linearGradient>
<linearGradient id="paint5_linear_51_12784" x1="769.256" y1="862.996" x2="779.5" y2="747.468" gradientUnits="userSpaceOnUse">
<stop stop-color="#007378"/>
<stop offset="1" stop-color="#CCFFCE"/>
</linearGradient>
<linearGradient id="paint6_linear_51_12784" x1="670.338" y1="623.412" x2="680.449" y2="797.531" gradientUnits="userSpaceOnUse">
<stop stop-color="#6AC578"/>
<stop offset="0.88" stop-color="#4A974D"/>
</linearGradient>
<linearGradient id="paint7_linear_51_12784" x1="686.166" y1="803.121" x2="664.236" y2="639.954" gradientUnits="userSpaceOnUse">
<stop stop-color="#7C9B8F"/>
<stop offset="1" stop-color="white" stop-opacity="0"/>
</linearGradient>
<linearGradient id="paint8_linear_51_12784" x1="628.805" y1="768.212" x2="718.706" y2="727.78" gradientUnits="userSpaceOnUse">
<stop stop-color="#007378"/>
<stop offset="1" stop-color="#CCFFCE"/>
</linearGradient>
<linearGradient id="paint9_linear_51_12784" x1="869.378" y1="633.54" x2="735.894" y2="786.427" gradientUnits="userSpaceOnUse">
<stop offset="0.12" stop-color="#4A974D"/>
<stop offset="1" stop-color="#327B67"/>
</linearGradient>
<linearGradient id="paint10_linear_51_12784" x1="781.903" y1="800.542" x2="824.919" y2="589.934" gradientUnits="userSpaceOnUse">
<stop stop-color="#8687AB"/>
<stop offset="1" stop-color="white" stop-opacity="0"/>
</linearGradient>
<linearGradient id="paint11_linear_51_12784" x1="763.265" y1="720.594" x2="792.532" y2="743.581" gradientUnits="userSpaceOnUse">
<stop stop-color="#007378"/>
<stop offset="1" stop-color="#CCFFCE"/>
</linearGradient>
<linearGradient id="paint12_linear_51_12784" x1="710.9" y1="666.53" x2="766.306" y2="723.058" gradientUnits="userSpaceOnUse">
<stop offset="0.12" stop-color="#6AC578"/>
<stop offset="1" stop-color="#328F7B"/>
</linearGradient>
<linearGradient id="paint13_linear_51_12784" x1="730.409" y1="753.21" x2="737.272" y2="594.17" gradientUnits="userSpaceOnUse">
<stop stop-color="#7C87AB"/>
<stop offset="1" stop-color="white" stop-opacity="0"/>
</linearGradient>
<linearGradient id="paint14_linear_51_12784" x1="673.883" y1="721.197" x2="754.085" y2="730.797" gradientUnits="userSpaceOnUse">
<stop stop-color="#007378"/>
<stop offset="1" stop-color="#CCFFCE"/>
</linearGradient>
<linearGradient id="paint15_linear_51_12784" x1="853.22" y1="823.834" x2="673.546" y2="829.254" gradientUnits="userSpaceOnUse">
<stop stop-color="#6AC578"/>
<stop offset="0.88" stop-color="#327B67"/>
</linearGradient>
<linearGradient id="paint16_linear_51_12784" x1="694.155" y1="901.144" x2="800.497" y2="805.418" gradientUnits="userSpaceOnUse">
<stop stop-color="#7C87AB"/>
<stop offset="1" stop-color="white" stop-opacity="0"/>
</linearGradient>
<linearGradient id="paint17_linear_51_12784" x1="655.881" y1="811.682" x2="798.641" y2="875.014" gradientUnits="userSpaceOnUse">
<stop stop-color="#007378"/>
<stop offset="1" stop-color="#CCFFCE"/>
</linearGradient>
<linearGradient id="paint18_linear_51_12784" x1="786.845" y1="737.823" x2="630.532" y2="839.23" gradientUnits="userSpaceOnUse">
<stop stop-color="#6AC578"/>
<stop offset="0.88" stop-color="#327B67"/>
</linearGradient>
<linearGradient id="paint19_linear_51_12784" x1="674.577" y1="881.136" x2="718.955" y2="735.976" gradientUnits="userSpaceOnUse">
<stop stop-color="#7C87AB"/>
<stop offset="1" stop-color="white" stop-opacity="0"/>
</linearGradient>
<linearGradient id="paint20_linear_51_12784" x1="592.894" y1="827.37" x2="758.732" y2="806.176" gradientUnits="userSpaceOnUse">
<stop stop-color="#007378"/>
<stop offset="1" stop-color="#CCFFCE"/>
</linearGradient>
<linearGradient id="paint21_linear_51_12784" x1="19.1839" y1="799.017" x2="167.945" y2="831.092" gradientUnits="userSpaceOnUse">
<stop stop-color="#6AC578"/>
<stop offset="0.88" stop-color="#4A974D"/>
</linearGradient>
<linearGradient id="paint22_linear_51_12784" x1="141.136" y1="845.247" x2="55.1491" y2="781.304" gradientUnits="userSpaceOnUse">
<stop stop-color="#7C8A99"/>
<stop offset="1" stop-color="white" stop-opacity="0"/>
</linearGradient>
<linearGradient id="paint23_linear_51_12784" x1="153.819" y1="904.636" x2="147.666" y2="784.202" gradientUnits="userSpaceOnUse">
<stop stop-color="#007378"/>
<stop offset="1" stop-color="#CCFFCE"/>
</linearGradient>
<linearGradient id="paint24_linear_51_12784" x1="194.557" y1="624.309" x2="261.158" y2="817.046" gradientUnits="userSpaceOnUse">
<stop stop-color="#6AC578"/>
<stop offset="0.88" stop-color="#4A974D"/>
</linearGradient>
<linearGradient id="paint25_linear_51_12784" x1="262.749" y1="828.081" x2="213.22" y2="640.877" gradientUnits="userSpaceOnUse">
<stop stop-color="#7C9B8F"/>
<stop offset="1" stop-color="white" stop-opacity="0"/>
</linearGradient>
<linearGradient id="paint26_linear_51_12784" x1="331.223" y1="795.951" x2="206.455" y2="805.056" gradientUnits="userSpaceOnUse">
<stop stop-color="#007378"/>
<stop offset="1" stop-color="#CCFFCE"/>
</linearGradient>
<linearGradient id="paint27_linear_51_12784" x1="85.1004" y1="679.194" x2="225.455" y2="839.949" gradientUnits="userSpaceOnUse">
<stop offset="0.12" stop-color="#4A974D"/>
<stop offset="1" stop-color="#327B67"/>
</linearGradient>
<linearGradient id="paint28_linear_51_12784" x1="173.699" y1="850.817" x2="130.983" y2="641.657" gradientUnits="userSpaceOnUse">
<stop stop-color="#8687AB"/>
<stop offset="1" stop-color="white" stop-opacity="0"/>
</linearGradient>
<linearGradient id="paint29_linear_51_12784" x1="205.058" y1="765.042" x2="160.692" y2="799.701" gradientUnits="userSpaceOnUse">
<stop stop-color="#007378"/>
<stop offset="1" stop-color="#CCFFCE"/>
</linearGradient>
<linearGradient id="paint30_linear_51_12784" x1="173.169" y1="782.339" x2="249.865" y2="756.838" gradientUnits="userSpaceOnUse">
<stop offset="0.12" stop-color="#6AC578"/>
<stop offset="1" stop-color="#328F7B"/>
</linearGradient>
<linearGradient id="paint31_linear_51_12784" x1="266.001" y1="806.002" x2="109.891" y2="721.96" gradientUnits="userSpaceOnUse">
<stop stop-color="#7C87AB"/>
<stop offset="1" stop-color="white" stop-opacity="0"/>
</linearGradient>
<linearGradient id="paint32_linear_51_12784" x1="198.671" y1="858.707" x2="256.352" y2="769.403" gradientUnits="userSpaceOnUse">
<stop stop-color="#007378"/>
<stop offset="1" stop-color="#CCFFCE"/>
</linearGradient>
<linearGradient id="paint33_linear_51_12784" x1="39.9861" y1="875.3" x2="229.716" y2="881.238" gradientUnits="userSpaceOnUse">
<stop stop-color="#6AC578"/>
<stop offset="0.88" stop-color="#327B67"/>
</linearGradient>
<linearGradient id="paint34_linear_51_12784" x1="207.546" y1="955.784" x2="94.8606" y2="854.938" gradientUnits="userSpaceOnUse">
<stop stop-color="#7C87AB"/>
<stop offset="1" stop-color="white" stop-opacity="0"/>
</linearGradient>
<linearGradient id="paint35_linear_51_12784" x1="256.346" y1="862.045" x2="106.51" y2="928.916" gradientUnits="userSpaceOnUse">
<stop stop-color="#007378"/>
<stop offset="1" stop-color="#CCFFCE"/>
</linearGradient>
<linearGradient id="paint36_linear_51_12784" x1="125.245" y1="816.878" x2="308.882" y2="885.96" gradientUnits="userSpaceOnUse">
<stop stop-color="#6AC578"/>
<stop offset="0.88" stop-color="#327B67"/>
</linearGradient>
<linearGradient id="paint37_linear_51_12784" x1="264.571" y1="940.823" x2="186.497" y2="800.846" gradientUnits="userSpaceOnUse">
<stop stop-color="#7C87AB"/>
<stop offset="1" stop-color="white" stop-opacity="0"/>
</linearGradient>
<linearGradient id="paint38_linear_51_12784" x1="342.761" y1="863.847" x2="167.763" y2="879.076" gradientUnits="userSpaceOnUse">
<stop stop-color="#007378"/>
<stop offset="1" stop-color="#CCFFCE"/>
</linearGradient>
<linearGradient id="paint39_linear_51_12784" x1="35.2858" y1="1089.39" x2="705.377" y2="203.099" gradientUnits="userSpaceOnUse">
<stop stop-color="#75769A"/>
<stop offset="0.97" stop-color="white" stop-opacity="0"/>
</linearGradient>
<linearGradient id="paint40_linear_51_12784" x1="366.327" y1="326.155" x2="436.129" y2="166.15" gradientUnits="userSpaceOnUse">
<stop stop-color="#FFA229"/>
<stop offset="1" stop-color="#FFC63B"/>
</linearGradient>
<linearGradient id="paint41_linear_51_12784" x1="691.791" y1="538.323" x2="804.796" y2="538.323" gradientUnits="userSpaceOnUse">
<stop stop-color="#7D22BE"/>
<stop offset="1" stop-color="#CF74F1"/>
</linearGradient>
<linearGradient id="paint42_linear_51_12784" x1="772.207" y1="668.106" x2="845.951" y2="907.486" gradientUnits="userSpaceOnUse">
<stop stop-color="#75769A"/>
<stop offset="0.97" stop-color="white" stop-opacity="0"/>
</linearGradient>
<linearGradient id="paint43_linear_51_12784" x1="772.317" y1="610.348" x2="701.539" y2="887.506" gradientUnits="userSpaceOnUse">
<stop stop-color="#75769A"/>
<stop offset="0.97" stop-color="white" stop-opacity="0"/>
</linearGradient>
<linearGradient id="paint44_linear_51_12784" x1="735.215" y1="666.928" x2="657.457" y2="447.156" gradientUnits="userSpaceOnUse">
<stop stop-color="#D12C80"/>
<stop offset="1" stop-color="#FF6672"/>
</linearGradient>
<linearGradient id="paint45_linear_51_12784" x1="544.911" y1="473.218" x2="566.766" y2="445.278" gradientUnits="userSpaceOnUse">
<stop stop-color="#DE9F78"/>
<stop offset="1" stop-color="#ECCD84"/>
</linearGradient>
<linearGradient id="paint46_linear_51_12784" x1="813.314" y1="642.646" x2="837.961" y2="642.646" gradientUnits="userSpaceOnUse">
<stop stop-color="#FF980C"/>
<stop offset="1" stop-color="#FFC63B"/>
</linearGradient>
<linearGradient id="paint47_linear_51_12784" x1="823.27" y1="653.724" x2="861.723" y2="653.724" gradientUnits="userSpaceOnUse">
<stop stop-color="#7D22BE"/>
<stop offset="1" stop-color="#CF74F1"/>
</linearGradient>
<linearGradient id="paint48_linear_51_12784" x1="697.068" y1="666.241" x2="867.939" y2="442.433" gradientUnits="userSpaceOnUse">
<stop stop-color="#7D22BE"/>
<stop offset="1" stop-color="#CF74F1"/>
</linearGradient>
<linearGradient id="paint49_linear_51_12784" x1="615.035" y1="605.281" x2="791.839" y2="373.709" gradientUnits="userSpaceOnUse">
<stop stop-color="#7D22BE"/>
<stop offset="1" stop-color="#CF74F1"/>
</linearGradient>
</defs>
</svg>
