<svg width="1230" height="799" viewBox="0 0 1230 799" fill="none" xmlns="http://www.w3.org/2000/svg">
<rect width="1230" height="799" fill="white"/>
<g filter="url(#filter0_d_51_12864)">
<path d="M1178.98 292C1190.03 292 1198.99 300.968 1198.98 312.022L1198.78 487.022C1198.77 498.059 1189.82 507 1178.78 507H964.527H70C58.9543 507 50 498.046 50 487V312C50 300.954 58.9543 292 70 292H1178.98Z" fill="white"/>
</g>
<path d="M380.969 379.609V418H374.351V379.609H380.969ZM394.917 395.271V418H388.562V389.471H394.548L394.917 395.271ZM393.889 402.681L391.727 402.654C391.727 400.686 391.973 398.866 392.465 397.196C392.957 395.526 393.678 394.076 394.627 392.846C395.576 391.598 396.754 390.64 398.16 389.972C399.584 389.286 401.228 388.943 403.091 388.943C404.392 388.943 405.578 389.137 406.65 389.523C407.74 389.893 408.681 390.481 409.472 391.29C410.28 392.099 410.896 393.136 411.317 394.401C411.757 395.667 411.977 397.196 411.977 398.989V418H405.622V399.543C405.622 398.154 405.411 397.064 404.989 396.273C404.585 395.482 403.996 394.92 403.223 394.586C402.467 394.234 401.562 394.059 400.507 394.059C399.312 394.059 398.292 394.287 397.448 394.744C396.622 395.201 395.945 395.825 395.418 396.616C394.891 397.407 394.504 398.321 394.258 399.358C394.012 400.396 393.889 401.503 393.889 402.681ZM411.581 400.993L408.602 401.652C408.602 399.93 408.839 398.304 409.313 396.774C409.806 395.228 410.518 393.874 411.449 392.714C412.398 391.536 413.567 390.613 414.956 389.945C416.345 389.277 417.936 388.943 419.729 388.943C421.188 388.943 422.488 389.146 423.631 389.55C424.791 389.937 425.775 390.552 426.584 391.396C427.393 392.239 428.008 393.338 428.43 394.691C428.852 396.027 429.062 397.645 429.062 399.543V418H422.682V399.517C422.682 398.075 422.471 396.959 422.049 396.168C421.645 395.377 421.064 394.832 420.309 394.533C419.553 394.217 418.647 394.059 417.593 394.059C416.608 394.059 415.738 394.243 414.982 394.612C414.244 394.964 413.62 395.465 413.11 396.115C412.601 396.748 412.214 397.478 411.95 398.304C411.704 399.13 411.581 400.026 411.581 400.993ZM441.982 394.955V428.969H435.628V389.471H441.481L441.982 394.955ZM460.571 403.472V404.025C460.571 406.1 460.325 408.024 459.833 409.8C459.358 411.558 458.646 413.096 457.697 414.414C456.766 415.715 455.614 416.726 454.243 417.446C452.872 418.167 451.29 418.527 449.497 418.527C447.722 418.527 446.166 418.202 444.83 417.552C443.512 416.884 442.396 415.943 441.481 414.73C440.567 413.518 439.829 412.094 439.267 410.459C438.722 408.807 438.335 406.996 438.106 405.027V402.892C438.335 400.8 438.722 398.901 439.267 397.196C439.829 395.491 440.567 394.023 441.481 392.793C442.396 391.562 443.512 390.613 444.83 389.945C446.148 389.277 447.687 388.943 449.444 388.943C451.237 388.943 452.828 389.295 454.217 389.998C455.605 390.684 456.774 391.668 457.724 392.951C458.673 394.217 459.385 395.746 459.859 397.539C460.334 399.314 460.571 401.292 460.571 403.472ZM454.217 404.025V403.472C454.217 402.153 454.094 400.932 453.848 399.807C453.602 398.664 453.215 397.662 452.688 396.801C452.16 395.939 451.483 395.271 450.657 394.797C449.849 394.305 448.873 394.059 447.73 394.059C446.605 394.059 445.639 394.252 444.83 394.639C444.021 395.008 443.345 395.526 442.8 396.194C442.255 396.862 441.833 397.645 441.534 398.541C441.235 399.42 441.024 400.378 440.901 401.415V406.53C441.112 407.796 441.473 408.956 441.982 410.011C442.492 411.065 443.213 411.909 444.145 412.542C445.094 413.157 446.307 413.465 447.783 413.465C448.926 413.465 449.901 413.219 450.71 412.727C451.519 412.234 452.178 411.558 452.688 410.696C453.215 409.817 453.602 408.807 453.848 407.664C454.094 406.521 454.217 405.309 454.217 404.025ZM464.764 404.052V403.445C464.764 401.389 465.062 399.481 465.66 397.724C466.258 395.948 467.119 394.41 468.244 393.109C469.387 391.791 470.775 390.771 472.41 390.051C474.062 389.312 475.926 388.943 478 388.943C480.092 388.943 481.955 389.312 483.59 390.051C485.242 390.771 486.64 391.791 487.782 393.109C488.925 394.41 489.795 395.948 490.393 397.724C490.99 399.481 491.289 401.389 491.289 403.445V404.052C491.289 406.108 490.99 408.016 490.393 409.773C489.795 411.531 488.925 413.069 487.782 414.388C486.64 415.688 485.251 416.708 483.616 417.446C481.981 418.167 480.127 418.527 478.053 418.527C475.961 418.527 474.089 418.167 472.437 417.446C470.802 416.708 469.413 415.688 468.271 414.388C467.128 413.069 466.258 411.531 465.66 409.773C465.062 408.016 464.764 406.108 464.764 404.052ZM471.118 403.445V404.052C471.118 405.335 471.25 406.548 471.514 407.69C471.777 408.833 472.19 409.835 472.753 410.696C473.315 411.558 474.036 412.234 474.915 412.727C475.794 413.219 476.84 413.465 478.053 413.465C479.23 413.465 480.25 413.219 481.111 412.727C481.99 412.234 482.711 411.558 483.273 410.696C483.836 409.835 484.249 408.833 484.513 407.69C484.794 406.548 484.935 405.335 484.935 404.052V403.445C484.935 402.18 484.794 400.984 484.513 399.859C484.249 398.717 483.827 397.706 483.247 396.827C482.685 395.948 481.964 395.263 481.085 394.771C480.224 394.261 479.195 394.006 478 394.006C476.805 394.006 475.768 394.261 474.889 394.771C474.027 395.263 473.315 395.948 472.753 396.827C472.19 397.706 471.777 398.717 471.514 399.859C471.25 400.984 471.118 402.18 471.118 403.445ZM502.996 394.902V418H496.642V389.471H502.706L502.996 394.902ZM511.724 389.286L511.671 395.192C511.284 395.122 510.862 395.069 510.405 395.034C509.966 394.999 509.526 394.981 509.087 394.981C507.997 394.981 507.039 395.14 506.213 395.456C505.387 395.755 504.692 396.194 504.13 396.774C503.585 397.337 503.163 398.022 502.864 398.831C502.565 399.64 502.39 400.545 502.337 401.547L500.887 401.652C500.887 399.859 501.062 398.198 501.414 396.669C501.766 395.14 502.293 393.795 502.996 392.635C503.717 391.475 504.613 390.569 505.686 389.919C506.775 389.269 508.032 388.943 509.456 388.943C509.843 388.943 510.256 388.979 510.695 389.049C511.152 389.119 511.495 389.198 511.724 389.286ZM530.102 389.471V394.111H514.018V389.471H530.102ZM518.658 382.483H525.013V410.116C525.013 410.995 525.136 411.672 525.382 412.146C525.646 412.604 526.006 412.911 526.463 413.069C526.92 413.228 527.456 413.307 528.071 413.307C528.511 413.307 528.933 413.28 529.337 413.228C529.741 413.175 530.066 413.122 530.312 413.069L530.339 417.921C529.812 418.079 529.196 418.22 528.493 418.343C527.808 418.466 527.017 418.527 526.12 418.527C524.661 418.527 523.369 418.272 522.244 417.763C521.119 417.235 520.24 416.383 519.607 415.205C518.975 414.027 518.658 412.463 518.658 410.512V382.483ZM547.583 418.527C545.474 418.527 543.566 418.185 541.861 417.499C540.174 416.796 538.732 415.82 537.537 414.572C536.359 413.324 535.454 411.856 534.821 410.169C534.188 408.481 533.872 406.662 533.872 404.711V403.656C533.872 401.424 534.197 399.402 534.848 397.592C535.498 395.781 536.403 394.234 537.563 392.951C538.724 391.65 540.095 390.657 541.677 389.972C543.259 389.286 544.973 388.943 546.818 388.943C548.857 388.943 550.642 389.286 552.171 389.972C553.7 390.657 554.966 391.624 555.968 392.872C556.987 394.103 557.743 395.57 558.235 397.275C558.745 398.98 559 400.861 559 402.918V405.634H536.957V401.072H552.725V400.571C552.689 399.429 552.461 398.356 552.039 397.354C551.635 396.353 551.011 395.544 550.167 394.929C549.323 394.313 548.198 394.006 546.792 394.006C545.737 394.006 544.797 394.234 543.971 394.691C543.162 395.131 542.485 395.772 541.94 396.616C541.396 397.46 540.974 398.479 540.675 399.675C540.394 400.853 540.253 402.18 540.253 403.656V404.711C540.253 405.959 540.42 407.119 540.754 408.191C541.105 409.246 541.615 410.169 542.283 410.96C542.951 411.751 543.76 412.375 544.709 412.832C545.658 413.271 546.739 413.491 547.952 413.491C549.481 413.491 550.844 413.184 552.039 412.568C553.234 411.953 554.271 411.083 555.15 409.958L558.499 413.201C557.884 414.098 557.084 414.959 556.1 415.785C555.115 416.594 553.911 417.253 552.487 417.763C551.081 418.272 549.446 418.527 547.583 418.527ZM570.338 394.902V418H563.983V389.471H570.048L570.338 394.902ZM579.065 389.286L579.013 395.192C578.626 395.122 578.204 395.069 577.747 395.034C577.308 394.999 576.868 394.981 576.429 394.981C575.339 394.981 574.381 395.14 573.555 395.456C572.729 395.755 572.034 396.194 571.472 396.774C570.927 397.337 570.505 398.022 570.206 398.831C569.907 399.64 569.731 400.545 569.679 401.547L568.229 401.652C568.229 399.859 568.404 398.198 568.756 396.669C569.107 395.14 569.635 393.795 570.338 392.635C571.059 391.475 571.955 390.569 573.027 389.919C574.117 389.269 575.374 388.943 576.798 388.943C577.185 388.943 577.598 388.979 578.037 389.049C578.494 389.119 578.837 389.198 579.065 389.286ZM599.052 410.274C599.052 409.642 598.894 409.07 598.577 408.561C598.261 408.033 597.654 407.559 596.758 407.137C595.879 406.715 594.578 406.328 592.855 405.977C591.344 405.643 589.955 405.247 588.689 404.79C587.441 404.315 586.369 403.744 585.473 403.076C584.576 402.408 583.882 401.617 583.39 400.703C582.897 399.789 582.651 398.734 582.651 397.539C582.651 396.379 582.906 395.28 583.416 394.243C583.926 393.206 584.655 392.292 585.604 391.501C586.554 390.71 587.705 390.086 589.059 389.629C590.43 389.172 591.959 388.943 593.646 388.943C596.037 388.943 598.085 389.348 599.79 390.156C601.513 390.947 602.831 392.028 603.745 393.399C604.659 394.753 605.116 396.282 605.116 397.987H598.762C598.762 397.231 598.568 396.528 598.182 395.878C597.812 395.21 597.25 394.674 596.494 394.27C595.738 393.848 594.789 393.637 593.646 393.637C592.557 393.637 591.651 393.812 590.931 394.164C590.228 394.498 589.7 394.938 589.349 395.482C589.015 396.027 588.848 396.625 588.848 397.275C588.848 397.75 588.936 398.181 589.111 398.567C589.305 398.937 589.621 399.279 590.061 399.596C590.5 399.895 591.098 400.176 591.854 400.439C592.627 400.703 593.594 400.958 594.754 401.204C596.934 401.661 598.806 402.25 600.37 402.971C601.952 403.674 603.165 404.588 604.009 405.713C604.853 406.82 605.274 408.227 605.274 409.932C605.274 411.197 605.002 412.357 604.457 413.412C603.93 414.449 603.156 415.354 602.137 416.128C601.117 416.884 599.896 417.473 598.472 417.895C597.065 418.316 595.483 418.527 593.726 418.527C591.142 418.527 588.953 418.07 587.16 417.156C585.367 416.225 584.005 415.038 583.073 413.597C582.159 412.138 581.702 410.626 581.702 409.062H587.846C587.916 410.239 588.241 411.18 588.821 411.883C589.419 412.568 590.157 413.069 591.036 413.386C591.933 413.685 592.855 413.834 593.805 413.834C594.947 413.834 595.905 413.685 596.679 413.386C597.452 413.069 598.041 412.647 598.445 412.12C598.85 411.575 599.052 410.96 599.052 410.274Z" fill="#1C4670"/>
<path d="M29 459.665V346.837L50.701 324H145.846C150.48 324.004 154.928 325.816 158.228 329.046L216.879 387.272C220.158 390.534 222 394.955 222 399.564C222 404.172 220.158 408.593 216.879 411.856L158.228 470.081C156.596 471.674 154.66 472.93 152.534 473.774C150.409 474.618 148.135 475.034 145.846 474.998H44.7705L29 459.665Z" fill="url(#paint0_linear_51_12864)"/>
<path d="M114.037 400.12C114.037 407.32 112.25 413.107 108.677 417.48C105.103 421.8 100.277 423.96 94.1966 423.96C88.1699 423.96 83.3966 421.8 79.8766 417.48C76.4099 413.16 74.6766 407.053 74.6766 399.16C74.6766 392.653 76.4099 387.187 79.8766 382.76C83.3966 378.28 88.2499 376.04 94.4366 376.04C100.677 376.04 105.503 378.253 108.917 382.68C112.33 387.053 114.037 392.867 114.037 400.12ZM102.117 399.16C102.117 384.813 99.5299 377.64 94.3566 377.64C89.1832 377.64 86.5966 384.813 86.5966 399.16C86.5966 406.84 87.1566 412.627 88.2766 416.52C89.3966 420.413 91.4499 422.36 94.4366 422.36C97.4232 422.36 99.4499 420.44 100.517 416.6C101.583 412.76 102.117 406.947 102.117 399.16ZM155.498 411.64C155.498 415 154.698 417.88 153.098 420.28C151.551 422.627 149.258 423.8 146.218 423.8C143.231 423.8 139.738 422.813 135.738 420.84C131.738 418.813 128.858 417.8 127.098 417.8C123.951 417.8 122.004 419.533 121.258 423H119.658C119.978 418.947 121.471 415.133 124.138 411.56C125.951 409.16 129.791 405.08 135.658 399.32C137.204 397.773 138.591 395.933 139.818 393.8C141.044 391.667 141.658 389.373 141.658 386.92C141.658 384.467 140.938 382.36 139.498 380.6C138.058 378.84 135.924 377.96 133.098 377.96C131.284 377.96 129.631 378.307 128.138 379C126.644 379.693 125.898 380.493 125.898 381.4C125.898 382.253 126.244 382.893 126.938 383.32C127.684 383.747 128.458 384.093 129.258 384.36C130.111 384.573 130.884 385.107 131.578 385.96C132.324 386.813 132.698 387.96 132.698 389.4C132.698 390.84 132.164 392.067 131.098 393.08C130.084 394.093 128.671 394.6 126.858 394.6C125.044 394.6 123.551 393.933 122.378 392.6C121.204 391.267 120.618 389.56 120.618 387.48C120.618 384.227 122.004 381.507 124.778 379.32C127.604 377.133 131.524 376.04 136.538 376.04C141.604 376.04 145.898 377.133 149.418 379.32C152.938 381.507 154.698 384.52 154.698 388.36C154.698 391.507 153.951 394.173 152.458 396.36C151.018 398.547 149.151 400.2 146.858 401.32C144.618 402.44 142.298 403.427 139.898 404.28C137.551 405.08 135.231 406.04 132.938 407.16C130.698 408.227 129.098 409.48 128.138 410.92C129.418 409.853 131.071 409.32 133.098 409.32C135.124 409.32 137.418 409.667 139.978 410.36C142.591 411.053 144.644 411.4 146.138 411.4C147.631 411.4 148.858 411.32 149.818 411.16C150.778 411 151.684 410.547 152.538 409.8C153.391 409.053 153.898 407.987 154.058 406.6H154.858C155.284 408.307 155.498 409.987 155.498 411.64Z" fill="white"/>
<path d="M29 308V492L50 476.607V323.459L29 308Z" fill="url(#paint1_linear_51_12864)"/>
<path d="M29 490.966C29 495.207 30.5541 499.275 33.322 502.28C36.0898 505.285 39.8461 506.982 43.7687 507H50V475H43.7687C39.8569 475.018 36.1099 476.706 33.3438 479.696C30.5777 482.687 29.0164 486.737 29 490.966Z" fill="url(#paint2_linear_51_12864)"/>
<path d="M29 308C29 303.756 30.5561 299.687 33.3258 296.686C36.0954 293.686 39.8519 292 43.7687 292H50V324H43.7687C39.8569 323.982 36.1099 322.291 33.3438 319.294C30.5777 316.297 29.0164 312.238 29 308Z" fill="url(#paint3_linear_51_12864)"/>
<g filter="url(#filter1_d_51_12864)">
<path d="M1178.98 47C1190.03 47 1198.99 55.9678 1198.98 67.0222L1198.78 241.022C1198.77 252.059 1189.82 261 1178.78 261H964.527H70C58.9543 261 50 252.046 50 241V67C50 55.9543 58.9543 47 70 47H1178.98Z" fill="white"/>
</g>
<path d="M376.592 134.609H382.498L393.599 164.22L404.673 134.609H410.579L395.919 173H391.226L376.592 134.609ZM373.902 134.609H379.519L380.494 160.238V173H373.902V134.609ZM407.652 134.609H413.295V173H406.677V160.238L407.652 134.609ZM436.604 167.278V153.673C436.604 152.653 436.419 151.774 436.05 151.036C435.681 150.298 435.118 149.727 434.362 149.322C433.624 148.918 432.692 148.716 431.567 148.716C430.53 148.716 429.634 148.892 428.878 149.243C428.122 149.595 427.533 150.069 427.111 150.667C426.689 151.265 426.479 151.941 426.479 152.697H420.15C420.15 151.572 420.423 150.482 420.968 149.428C421.513 148.373 422.304 147.433 423.341 146.606C424.378 145.78 425.617 145.13 427.059 144.655C428.5 144.181 430.117 143.943 431.91 143.943C434.055 143.943 435.953 144.304 437.605 145.024C439.275 145.745 440.585 146.835 441.534 148.294C442.501 149.735 442.984 151.546 442.984 153.726V166.408C442.984 167.709 443.072 168.878 443.248 169.915C443.441 170.935 443.714 171.822 444.065 172.578V173H437.553C437.254 172.314 437.017 171.444 436.841 170.39C436.683 169.317 436.604 168.28 436.604 167.278ZM437.526 155.65L437.579 159.579H433.018C431.84 159.579 430.803 159.693 429.906 159.922C429.01 160.133 428.263 160.449 427.665 160.871C427.067 161.293 426.619 161.803 426.32 162.4C426.021 162.998 425.872 163.675 425.872 164.431C425.872 165.187 426.048 165.881 426.399 166.514C426.751 167.129 427.261 167.612 427.929 167.964C428.614 168.315 429.44 168.491 430.407 168.491C431.708 168.491 432.842 168.228 433.809 167.7C434.793 167.155 435.566 166.496 436.129 165.723C436.691 164.932 436.99 164.185 437.025 163.481L439.082 166.303C438.871 167.023 438.511 167.797 438.001 168.623C437.491 169.449 436.823 170.24 435.997 170.996C435.188 171.734 434.213 172.341 433.07 172.815C431.945 173.29 430.645 173.527 429.168 173.527C427.305 173.527 425.644 173.158 424.185 172.42C422.726 171.664 421.583 170.653 420.757 169.388C419.931 168.104 419.518 166.654 419.518 165.037C419.518 163.525 419.799 162.189 420.361 161.029C420.941 159.852 421.785 158.867 422.893 158.076C424.018 157.285 425.389 156.688 427.006 156.283C428.623 155.861 430.469 155.65 432.543 155.65H437.526ZM455.931 150.562V173H449.576V144.471H455.562L455.931 150.562ZM454.797 157.681L452.74 157.654C452.758 155.633 453.039 153.778 453.584 152.091C454.146 150.403 454.92 148.953 455.904 147.74C456.906 146.527 458.102 145.596 459.49 144.945C460.879 144.277 462.426 143.943 464.131 143.943C465.502 143.943 466.741 144.137 467.849 144.523C468.974 144.893 469.932 145.499 470.723 146.343C471.531 147.187 472.146 148.285 472.568 149.639C472.99 150.975 473.201 152.618 473.201 154.569V173H466.82V154.543C466.82 153.172 466.618 152.091 466.214 151.3C465.827 150.491 465.256 149.92 464.5 149.586C463.762 149.234 462.839 149.059 461.731 149.059C460.642 149.059 459.666 149.287 458.805 149.744C457.943 150.201 457.214 150.825 456.616 151.616C456.036 152.407 455.588 153.321 455.271 154.358C454.955 155.396 454.797 156.503 454.797 157.681ZM496.853 166.276V144.471H503.233V173H497.222L496.853 166.276ZM497.749 160.344L499.885 160.291C499.885 162.207 499.674 163.974 499.252 165.591C498.83 167.19 498.18 168.588 497.301 169.783C496.422 170.961 495.297 171.884 493.926 172.552C492.555 173.202 490.911 173.527 488.995 173.527C487.606 173.527 486.332 173.325 485.172 172.921C484.012 172.517 483.01 171.893 482.166 171.049C481.34 170.205 480.698 169.106 480.241 167.753C479.784 166.399 479.556 164.782 479.556 162.901V144.471H485.91V162.954C485.91 163.991 486.033 164.861 486.279 165.564C486.525 166.25 486.859 166.804 487.281 167.226C487.703 167.647 488.195 167.946 488.758 168.122C489.32 168.298 489.918 168.386 490.551 168.386C492.361 168.386 493.785 168.034 494.822 167.331C495.877 166.61 496.624 165.644 497.063 164.431C497.521 163.218 497.749 161.855 497.749 160.344ZM518.342 173H511.987V141.729C511.987 139.602 512.383 137.817 513.174 136.376C513.982 134.917 515.134 133.818 516.628 133.08C518.122 132.324 519.889 131.946 521.928 131.946C522.561 131.946 523.185 131.99 523.8 132.078C524.415 132.148 525.013 132.263 525.593 132.421L525.435 137.325C525.083 137.237 524.696 137.176 524.274 137.141C523.87 137.105 523.431 137.088 522.956 137.088C521.989 137.088 521.154 137.272 520.451 137.642C519.766 137.993 519.238 138.512 518.869 139.197C518.518 139.883 518.342 140.727 518.342 141.729V173ZM524.222 144.471V149.111H507.61V144.471H524.222ZM544.92 167.278V153.673C544.92 152.653 544.735 151.774 544.366 151.036C543.997 150.298 543.435 149.727 542.679 149.322C541.94 148.918 541.009 148.716 539.884 148.716C538.847 148.716 537.95 148.892 537.194 149.243C536.438 149.595 535.85 150.069 535.428 150.667C535.006 151.265 534.795 151.941 534.795 152.697H528.467C528.467 151.572 528.739 150.482 529.284 149.428C529.829 148.373 530.62 147.433 531.657 146.606C532.694 145.78 533.934 145.13 535.375 144.655C536.816 144.181 538.434 143.943 540.227 143.943C542.371 143.943 544.27 144.304 545.922 145.024C547.592 145.745 548.901 146.835 549.851 148.294C550.817 149.735 551.301 151.546 551.301 153.726V166.408C551.301 167.709 551.389 168.878 551.564 169.915C551.758 170.935 552.03 171.822 552.382 172.578V173H545.869C545.57 172.314 545.333 171.444 545.157 170.39C544.999 169.317 544.92 168.28 544.92 167.278ZM545.843 155.65L545.896 159.579H541.334C540.156 159.579 539.119 159.693 538.223 159.922C537.326 160.133 536.579 160.449 535.981 160.871C535.384 161.293 534.936 161.803 534.637 162.4C534.338 162.998 534.188 163.675 534.188 164.431C534.188 165.187 534.364 165.881 534.716 166.514C535.067 167.129 535.577 167.612 536.245 167.964C536.931 168.315 537.757 168.491 538.724 168.491C540.024 168.491 541.158 168.228 542.125 167.7C543.109 167.155 543.883 166.496 544.445 165.723C545.008 164.932 545.307 164.185 545.342 163.481L547.398 166.303C547.188 167.023 546.827 167.797 546.317 168.623C545.808 169.449 545.14 170.24 544.313 170.996C543.505 171.734 542.529 172.341 541.387 172.815C540.262 173.29 538.961 173.527 537.484 173.527C535.621 173.527 533.96 173.158 532.501 172.42C531.042 171.664 529.899 170.653 529.073 169.388C528.247 168.104 527.834 166.654 527.834 165.037C527.834 163.525 528.115 162.189 528.678 161.029C529.258 159.852 530.102 158.867 531.209 158.076C532.334 157.285 533.705 156.688 535.322 156.283C536.939 155.861 538.785 155.65 540.859 155.65H545.843ZM569.6 168.465C570.637 168.465 571.568 168.263 572.395 167.858C573.238 167.437 573.915 166.856 574.425 166.118C574.952 165.38 575.242 164.527 575.295 163.561H581.28C581.245 165.406 580.7 167.085 579.646 168.597C578.591 170.108 577.193 171.312 575.453 172.209C573.713 173.088 571.788 173.527 569.679 173.527C567.499 173.527 565.601 173.158 563.983 172.42C562.366 171.664 561.021 170.627 559.949 169.309C558.877 167.99 558.068 166.47 557.523 164.747C556.996 163.024 556.732 161.179 556.732 159.21V158.287C556.732 156.318 556.996 154.473 557.523 152.75C558.068 151.01 558.877 149.48 559.949 148.162C561.021 146.844 562.366 145.815 563.983 145.077C565.601 144.321 567.49 143.943 569.652 143.943C571.938 143.943 573.941 144.4 575.664 145.314C577.387 146.211 578.74 147.468 579.725 149.085C580.727 150.685 581.245 152.548 581.28 154.675H575.295C575.242 153.62 574.979 152.671 574.504 151.827C574.047 150.966 573.396 150.28 572.553 149.771C571.727 149.261 570.733 149.006 569.573 149.006C568.29 149.006 567.227 149.27 566.383 149.797C565.539 150.307 564.88 151.01 564.405 151.906C563.931 152.785 563.588 153.778 563.377 154.886C563.184 155.976 563.087 157.109 563.087 158.287V159.21C563.087 160.388 563.184 161.53 563.377 162.638C563.57 163.745 563.904 164.738 564.379 165.617C564.871 166.479 565.539 167.173 566.383 167.7C567.227 168.21 568.299 168.465 569.6 168.465ZM599.236 144.471V149.111H583.152V144.471H599.236ZM587.793 137.483H594.147V165.116C594.147 165.995 594.271 166.672 594.517 167.146C594.78 167.604 595.141 167.911 595.598 168.069C596.055 168.228 596.591 168.307 597.206 168.307C597.646 168.307 598.067 168.28 598.472 168.228C598.876 168.175 599.201 168.122 599.447 168.069L599.474 172.921C598.946 173.079 598.331 173.22 597.628 173.343C596.942 173.466 596.151 173.527 595.255 173.527C593.796 173.527 592.504 173.272 591.379 172.763C590.254 172.235 589.375 171.383 588.742 170.205C588.109 169.027 587.793 167.463 587.793 165.512V137.483ZM621.306 166.276V144.471H627.687V173H621.675L621.306 166.276ZM622.202 160.344L624.338 160.291C624.338 162.207 624.127 163.974 623.705 165.591C623.283 167.19 622.633 168.588 621.754 169.783C620.875 170.961 619.75 171.884 618.379 172.552C617.008 173.202 615.364 173.527 613.448 173.527C612.06 173.527 610.785 173.325 609.625 172.921C608.465 172.517 607.463 171.893 606.619 171.049C605.793 170.205 605.151 169.106 604.694 167.753C604.237 166.399 604.009 164.782 604.009 162.901V144.471H610.363V162.954C610.363 163.991 610.486 164.861 610.732 165.564C610.979 166.25 611.312 166.804 611.734 167.226C612.156 167.647 612.648 167.946 613.211 168.122C613.773 168.298 614.371 168.386 615.004 168.386C616.814 168.386 618.238 168.034 619.275 167.331C620.33 166.61 621.077 165.644 621.517 164.431C621.974 163.218 622.202 161.855 622.202 160.344ZM640.58 149.902V173H634.226V144.471H640.29L640.58 149.902ZM649.308 144.286L649.255 150.192C648.868 150.122 648.446 150.069 647.989 150.034C647.55 149.999 647.11 149.981 646.671 149.981C645.581 149.981 644.623 150.14 643.797 150.456C642.971 150.755 642.276 151.194 641.714 151.774C641.169 152.337 640.747 153.022 640.448 153.831C640.149 154.64 639.974 155.545 639.921 156.547L638.471 156.652C638.471 154.859 638.646 153.198 638.998 151.669C639.35 150.14 639.877 148.795 640.58 147.635C641.301 146.475 642.197 145.569 643.27 144.919C644.359 144.269 645.616 143.943 647.04 143.943C647.427 143.943 647.84 143.979 648.279 144.049C648.736 144.119 649.079 144.198 649.308 144.286ZM665.339 173.527C663.229 173.527 661.322 173.185 659.617 172.499C657.93 171.796 656.488 170.82 655.293 169.572C654.115 168.324 653.21 166.856 652.577 165.169C651.944 163.481 651.628 161.662 651.628 159.711V158.656C651.628 156.424 651.953 154.402 652.604 152.592C653.254 150.781 654.159 149.234 655.319 147.951C656.479 146.65 657.851 145.657 659.433 144.972C661.015 144.286 662.729 143.943 664.574 143.943C666.613 143.943 668.397 144.286 669.927 144.972C671.456 145.657 672.722 146.624 673.724 147.872C674.743 149.103 675.499 150.57 675.991 152.275C676.501 153.98 676.756 155.861 676.756 157.918V160.634H654.713V156.072H670.48V155.571C670.445 154.429 670.217 153.356 669.795 152.354C669.391 151.353 668.767 150.544 667.923 149.929C667.079 149.313 665.954 149.006 664.548 149.006C663.493 149.006 662.553 149.234 661.727 149.691C660.918 150.131 660.241 150.772 659.696 151.616C659.151 152.46 658.729 153.479 658.431 154.675C658.149 155.853 658.009 157.18 658.009 158.656V159.711C658.009 160.959 658.176 162.119 658.51 163.191C658.861 164.246 659.371 165.169 660.039 165.96C660.707 166.751 661.516 167.375 662.465 167.832C663.414 168.271 664.495 168.491 665.708 168.491C667.237 168.491 668.6 168.184 669.795 167.568C670.99 166.953 672.027 166.083 672.906 164.958L676.255 168.201C675.64 169.098 674.84 169.959 673.855 170.785C672.871 171.594 671.667 172.253 670.243 172.763C668.837 173.272 667.202 173.527 665.339 173.527ZM688.094 149.902V173H681.739V144.471H687.804L688.094 149.902ZM696.821 144.286L696.769 150.192C696.382 150.122 695.96 150.069 695.503 150.034C695.063 149.999 694.624 149.981 694.185 149.981C693.095 149.981 692.137 150.14 691.311 150.456C690.484 150.755 689.79 151.194 689.228 151.774C688.683 152.337 688.261 153.022 687.962 153.831C687.663 154.64 687.487 155.545 687.435 156.547L685.984 156.652C685.984 154.859 686.16 153.198 686.512 151.669C686.863 150.14 687.391 148.795 688.094 147.635C688.814 146.475 689.711 145.569 690.783 144.919C691.873 144.269 693.13 143.943 694.554 143.943C694.94 143.943 695.354 143.979 695.793 144.049C696.25 144.119 696.593 144.198 696.821 144.286ZM716.808 165.274C716.808 164.642 716.649 164.07 716.333 163.561C716.017 163.033 715.41 162.559 714.514 162.137C713.635 161.715 712.334 161.328 710.611 160.977C709.1 160.643 707.711 160.247 706.445 159.79C705.197 159.315 704.125 158.744 703.229 158.076C702.332 157.408 701.638 156.617 701.146 155.703C700.653 154.789 700.407 153.734 700.407 152.539C700.407 151.379 700.662 150.28 701.172 149.243C701.682 148.206 702.411 147.292 703.36 146.501C704.31 145.71 705.461 145.086 706.814 144.629C708.186 144.172 709.715 143.943 711.402 143.943C713.793 143.943 715.841 144.348 717.546 145.156C719.269 145.947 720.587 147.028 721.501 148.399C722.415 149.753 722.872 151.282 722.872 152.987H716.518C716.518 152.231 716.324 151.528 715.938 150.878C715.568 150.21 715.006 149.674 714.25 149.27C713.494 148.848 712.545 148.637 711.402 148.637C710.312 148.637 709.407 148.812 708.687 149.164C707.983 149.498 707.456 149.938 707.104 150.482C706.771 151.027 706.604 151.625 706.604 152.275C706.604 152.75 706.691 153.181 706.867 153.567C707.061 153.937 707.377 154.279 707.816 154.596C708.256 154.895 708.854 155.176 709.609 155.439C710.383 155.703 711.35 155.958 712.51 156.204C714.689 156.661 716.562 157.25 718.126 157.971C719.708 158.674 720.921 159.588 721.765 160.713C722.608 161.82 723.03 163.227 723.03 164.932C723.03 166.197 722.758 167.357 722.213 168.412C721.686 169.449 720.912 170.354 719.893 171.128C718.873 171.884 717.651 172.473 716.228 172.895C714.821 173.316 713.239 173.527 711.481 173.527C708.897 173.527 706.709 173.07 704.916 172.156C703.123 171.225 701.761 170.038 700.829 168.597C699.915 167.138 699.458 165.626 699.458 164.062H705.602C705.672 165.239 705.997 166.18 706.577 166.883C707.175 167.568 707.913 168.069 708.792 168.386C709.688 168.685 710.611 168.834 711.561 168.834C712.703 168.834 713.661 168.685 714.435 168.386C715.208 168.069 715.797 167.647 716.201 167.12C716.605 166.575 716.808 165.96 716.808 165.274Z" fill="#1C4670"/>
<g filter="url(#filter2_d_51_12864)">
<path d="M1178.98 538C1190.03 538 1198.99 546.968 1198.98 558.022L1198.78 732.022C1198.77 743.059 1189.82 752 1178.78 752H964.527H70C58.9543 752 50 743.046 50 732V558C50 546.954 58.9543 538 70 538H1178.98Z" fill="white"/>
</g>
<path d="M389.696 624.609V663H383.131V624.609H389.696ZM401.746 624.609V629.883H371.187V624.609H401.746ZM410.658 639.902V663H404.304V634.471H410.368L410.658 639.902ZM419.386 634.286L419.333 640.192C418.946 640.122 418.524 640.069 418.067 640.034C417.628 639.999 417.188 639.981 416.749 639.981C415.659 639.981 414.701 640.14 413.875 640.456C413.049 640.755 412.354 641.194 411.792 641.774C411.247 642.337 410.825 643.022 410.526 643.831C410.228 644.64 410.052 645.545 409.999 646.547L408.549 646.652C408.549 644.859 408.725 643.198 409.076 641.669C409.428 640.14 409.955 638.795 410.658 637.635C411.379 636.475 412.275 635.569 413.348 634.919C414.438 634.269 415.694 633.943 417.118 633.943C417.505 633.943 417.918 633.979 418.357 634.049C418.814 634.119 419.157 634.198 419.386 634.286ZM438.502 657.278V643.673C438.502 642.653 438.317 641.774 437.948 641.036C437.579 640.298 437.017 639.727 436.261 639.322C435.522 638.918 434.591 638.716 433.466 638.716C432.429 638.716 431.532 638.892 430.776 639.243C430.021 639.595 429.432 640.069 429.01 640.667C428.588 641.265 428.377 641.941 428.377 642.697H422.049C422.049 641.572 422.321 640.482 422.866 639.428C423.411 638.373 424.202 637.433 425.239 636.606C426.276 635.78 427.516 635.13 428.957 634.655C430.398 634.181 432.016 633.943 433.809 633.943C435.953 633.943 437.852 634.304 439.504 635.024C441.174 635.745 442.483 636.835 443.433 638.294C444.399 639.735 444.883 641.546 444.883 643.726V656.408C444.883 657.709 444.971 658.878 445.146 659.915C445.34 660.935 445.612 661.822 445.964 662.578V663H439.451C439.152 662.314 438.915 661.444 438.739 660.39C438.581 659.317 438.502 658.28 438.502 657.278ZM439.425 645.65L439.478 649.579H434.916C433.738 649.579 432.701 649.693 431.805 649.922C430.908 650.133 430.161 650.449 429.563 650.871C428.966 651.293 428.518 651.803 428.219 652.4C427.92 652.998 427.771 653.675 427.771 654.431C427.771 655.187 427.946 655.881 428.298 656.514C428.649 657.129 429.159 657.612 429.827 657.964C430.513 658.315 431.339 658.491 432.306 658.491C433.606 658.491 434.74 658.228 435.707 657.7C436.691 657.155 437.465 656.496 438.027 655.723C438.59 654.932 438.889 654.185 438.924 653.481L440.98 656.303C440.77 657.023 440.409 657.797 439.899 658.623C439.39 659.449 438.722 660.24 437.896 660.996C437.087 661.734 436.111 662.341 434.969 662.815C433.844 663.29 432.543 663.527 431.066 663.527C429.203 663.527 427.542 663.158 426.083 662.42C424.624 661.664 423.481 660.653 422.655 659.388C421.829 658.104 421.416 656.654 421.416 655.037C421.416 653.525 421.697 652.189 422.26 651.029C422.84 649.852 423.684 648.867 424.791 648.076C425.916 647.285 427.287 646.688 428.904 646.283C430.521 645.861 432.367 645.65 434.441 645.65H439.425ZM468.93 657.094V622.5H475.311V663H469.536L468.93 657.094ZM450.367 649.052V648.498C450.367 646.336 450.622 644.367 451.132 642.592C451.642 640.799 452.38 639.261 453.347 637.978C454.313 636.677 455.491 635.684 456.88 634.998C458.269 634.295 459.833 633.943 461.573 633.943C463.296 633.943 464.808 634.277 466.108 634.945C467.409 635.613 468.517 636.571 469.431 637.819C470.345 639.05 471.074 640.526 471.619 642.249C472.164 643.954 472.551 645.853 472.779 647.944V649.711C472.551 651.75 472.164 653.613 471.619 655.301C471.074 656.988 470.345 658.447 469.431 659.678C468.517 660.908 467.4 661.857 466.082 662.525C464.781 663.193 463.261 663.527 461.521 663.527C459.798 663.527 458.242 663.167 456.854 662.446C455.482 661.726 454.313 660.715 453.347 659.414C452.38 658.113 451.642 656.584 451.132 654.826C450.622 653.051 450.367 651.126 450.367 649.052ZM456.722 648.498V649.052C456.722 650.353 456.836 651.565 457.064 652.69C457.311 653.815 457.688 654.809 458.198 655.67C458.708 656.514 459.367 657.182 460.176 657.674C461.002 658.148 461.986 658.386 463.129 658.386C464.57 658.386 465.757 658.069 466.688 657.437C467.62 656.804 468.35 655.951 468.877 654.879C469.422 653.789 469.791 652.576 469.984 651.24V646.468C469.879 645.431 469.659 644.464 469.325 643.567C469.009 642.671 468.578 641.889 468.033 641.221C467.488 640.535 466.812 640.008 466.003 639.639C465.212 639.252 464.271 639.059 463.182 639.059C462.021 639.059 461.037 639.305 460.229 639.797C459.42 640.289 458.752 640.966 458.225 641.827C457.715 642.688 457.337 643.69 457.091 644.833C456.845 645.976 456.722 647.197 456.722 648.498ZM494.532 663.527C492.423 663.527 490.516 663.185 488.811 662.499C487.123 661.796 485.682 660.82 484.486 659.572C483.309 658.324 482.403 656.856 481.771 655.169C481.138 653.481 480.821 651.662 480.821 649.711V648.656C480.821 646.424 481.146 644.402 481.797 642.592C482.447 640.781 483.353 639.234 484.513 637.951C485.673 636.65 487.044 635.657 488.626 634.972C490.208 634.286 491.922 633.943 493.768 633.943C495.807 633.943 497.591 634.286 499.12 634.972C500.649 635.657 501.915 636.624 502.917 637.872C503.937 639.103 504.692 640.57 505.185 642.275C505.694 643.98 505.949 645.861 505.949 647.918V650.634H483.906V646.072H499.674V645.571C499.639 644.429 499.41 643.356 498.988 642.354C498.584 641.353 497.96 640.544 497.116 639.929C496.272 639.313 495.147 639.006 493.741 639.006C492.687 639.006 491.746 639.234 490.92 639.691C490.111 640.131 489.435 640.772 488.89 641.616C488.345 642.46 487.923 643.479 487.624 644.675C487.343 645.853 487.202 647.18 487.202 648.656V649.711C487.202 650.959 487.369 652.119 487.703 653.191C488.055 654.246 488.564 655.169 489.232 655.96C489.9 656.751 490.709 657.375 491.658 657.832C492.607 658.271 493.688 658.491 494.901 658.491C496.431 658.491 497.793 658.184 498.988 657.568C500.184 656.953 501.221 656.083 502.1 654.958L505.448 658.201C504.833 659.098 504.033 659.959 503.049 660.785C502.064 661.594 500.86 662.253 499.437 662.763C498.03 663.272 496.396 663.527 494.532 663.527ZM517.287 639.902V663H510.933V634.471H516.997L517.287 639.902ZM526.015 634.286L525.962 640.192C525.575 640.122 525.153 640.069 524.696 640.034C524.257 639.999 523.817 639.981 523.378 639.981C522.288 639.981 521.33 640.14 520.504 640.456C519.678 640.755 518.983 641.194 518.421 641.774C517.876 642.337 517.454 643.022 517.155 643.831C516.856 644.64 516.681 645.545 516.628 646.547L515.178 646.652C515.178 644.859 515.354 643.198 515.705 641.669C516.057 640.14 516.584 638.795 517.287 637.635C518.008 636.475 518.904 635.569 519.977 634.919C521.066 634.269 522.323 633.943 523.747 633.943C524.134 633.943 524.547 633.979 524.986 634.049C525.443 634.119 525.786 634.198 526.015 634.286ZM546.001 655.274C546.001 654.642 545.843 654.07 545.526 653.561C545.21 653.033 544.604 652.559 543.707 652.137C542.828 651.715 541.527 651.328 539.805 650.977C538.293 650.643 536.904 650.247 535.639 649.79C534.391 649.315 533.318 648.744 532.422 648.076C531.525 647.408 530.831 646.617 530.339 645.703C529.847 644.789 529.601 643.734 529.601 642.539C529.601 641.379 529.855 640.28 530.365 639.243C530.875 638.206 531.604 637.292 532.554 636.501C533.503 635.71 534.654 635.086 536.008 634.629C537.379 634.172 538.908 633.943 540.596 633.943C542.986 633.943 545.034 634.348 546.739 635.156C548.462 635.947 549.78 637.028 550.694 638.399C551.608 639.753 552.065 641.282 552.065 642.987H545.711C545.711 642.231 545.518 641.528 545.131 640.878C544.762 640.21 544.199 639.674 543.443 639.27C542.688 638.848 541.738 638.637 540.596 638.637C539.506 638.637 538.601 638.812 537.88 639.164C537.177 639.498 536.649 639.938 536.298 640.482C535.964 641.027 535.797 641.625 535.797 642.275C535.797 642.75 535.885 643.181 536.061 643.567C536.254 643.937 536.57 644.279 537.01 644.596C537.449 644.895 538.047 645.176 538.803 645.439C539.576 645.703 540.543 645.958 541.703 646.204C543.883 646.661 545.755 647.25 547.319 647.971C548.901 648.674 550.114 649.588 550.958 650.713C551.802 651.82 552.224 653.227 552.224 654.932C552.224 656.197 551.951 657.357 551.406 658.412C550.879 659.449 550.105 660.354 549.086 661.128C548.066 661.884 546.845 662.473 545.421 662.895C544.015 663.316 542.433 663.527 540.675 663.527C538.091 663.527 535.902 663.07 534.109 662.156C532.316 661.225 530.954 660.038 530.022 658.597C529.108 657.138 528.651 655.626 528.651 654.062H534.795C534.865 655.239 535.19 656.18 535.771 656.883C536.368 657.568 537.106 658.069 537.985 658.386C538.882 658.685 539.805 658.834 540.754 658.834C541.896 658.834 542.854 658.685 543.628 658.386C544.401 658.069 544.99 657.647 545.395 657.12C545.799 656.575 546.001 655.96 546.001 655.274Z" fill="#1C4670"/>
<path d="M29 214.401V101.783L50.6986 79.0002H145.833C148.13 78.9883 150.407 79.4283 152.532 80.2948C154.657 81.1613 156.588 82.437 158.214 84.0486L216.858 142.299C218.488 143.906 219.781 145.817 220.663 147.922C221.546 150.027 222 152.284 222 154.564C222 156.845 221.546 159.102 220.663 161.207C219.781 163.312 218.488 165.223 216.858 166.829L158.214 225.08C154.9 228.276 150.451 230.044 145.833 229.999H44.7688L29 214.401Z" fill="url(#paint4_linear_51_12864)"/>
<path d="M119.591 152.12C119.591 159.32 117.805 165.107 114.231 169.48C110.658 173.8 105.831 175.96 99.7513 175.96C93.7246 175.96 88.9513 173.8 85.4313 169.48C81.9646 165.16 80.2313 159.053 80.2313 151.16C80.2313 144.653 81.9646 139.187 85.4313 134.76C88.9513 130.28 93.8046 128.04 99.9913 128.04C106.231 128.04 111.058 130.253 114.471 134.68C117.885 139.053 119.591 144.867 119.591 152.12ZM107.671 151.16C107.671 136.813 105.085 129.64 99.9113 129.64C94.7379 129.64 92.1513 136.813 92.1513 151.16C92.1513 158.84 92.7113 164.627 93.8313 168.52C94.9513 172.413 97.0046 174.36 99.9913 174.36C102.978 174.36 105.005 172.44 106.071 168.6C107.138 164.76 107.671 158.947 107.671 151.16ZM144.973 173.4H150.573V175H126.573V173.4H132.973V134.92L126.493 137.4L126.013 135.88L142.093 128.44H144.973V173.4Z" fill="white"/>
<path d="M29 705.401V592.783L50.6986 570H145.833C148.13 569.988 150.407 570.428 152.532 571.295C154.657 572.161 156.588 573.437 158.214 575.049L216.858 633.299C218.488 634.906 219.781 636.817 220.663 638.922C221.546 641.027 222 643.284 222 645.564C222 647.845 221.546 650.102 220.663 652.207C219.781 654.312 218.488 656.223 216.858 657.829L158.214 716.08C154.9 719.276 150.451 721.044 145.833 720.999H44.7688L29 705.401Z" fill="url(#paint5_linear_51_12864)"/>
<path d="M115.115 645.12C115.115 652.32 113.328 658.107 109.755 662.48C106.181 666.8 101.355 668.96 95.2747 668.96C89.248 668.96 84.4747 666.8 80.9547 662.48C77.488 658.16 75.7547 652.053 75.7547 644.16C75.7547 637.653 77.488 632.187 80.9547 627.76C84.4747 623.28 89.328 621.04 95.5147 621.04C101.755 621.04 106.581 623.253 109.995 627.68C113.408 632.053 115.115 637.867 115.115 645.12ZM103.195 644.16C103.195 629.813 100.608 622.64 95.4347 622.64C90.2614 622.64 87.6747 629.813 87.6747 644.16C87.6747 651.84 88.2347 657.627 89.3547 661.52C90.4747 665.413 92.528 667.36 95.5147 667.36C98.5014 667.36 100.528 665.44 101.595 661.6C102.661 657.76 103.195 651.947 103.195 644.16ZM136.096 621.04C148.256 621.04 154.336 624.72 154.336 632.08C154.336 635.013 153.163 637.493 150.816 639.52C148.523 641.547 145.216 642.667 140.896 642.88C145.749 642.933 149.669 644.027 152.656 646.16C155.696 648.293 157.216 651.2 157.216 654.88C157.216 659.413 155.376 662.96 151.696 665.52C148.069 668.027 142.923 669.28 136.256 669.28C131.616 669.28 127.989 668.267 125.376 666.24C122.816 664.16 121.536 661.413 121.536 658C121.536 655.867 122.096 654.133 123.216 652.8C124.389 651.467 125.909 650.8 127.776 650.8C129.643 650.8 131.083 651.307 132.096 652.32C133.163 653.333 133.696 654.587 133.696 656.08C133.696 657.52 133.296 658.667 132.496 659.52C131.696 660.373 130.816 660.907 129.856 661.12C127.349 661.707 126.096 662.56 126.096 663.68C126.096 664.747 126.843 665.627 128.336 666.32C129.883 667.013 131.643 667.36 133.616 667.36C136.709 667.36 139.216 666.24 141.136 664C143.056 661.76 144.016 658.747 144.016 654.96C144.016 651.12 143.163 648.293 141.456 646.48C139.803 644.667 136.763 643.76 132.336 643.76H131.056V642.16H132.336C135.749 642.16 138.203 641.147 139.696 639.12C141.189 637.04 141.936 634.693 141.936 632.08C141.936 629.467 141.189 627.28 139.696 625.52C138.203 623.76 136.309 622.88 134.016 622.88C131.723 622.88 129.989 623.253 128.816 624C127.643 624.747 127.056 625.547 127.056 626.4C127.056 627.2 127.376 627.787 128.016 628.16C128.709 628.533 129.456 628.827 130.256 629.04C131.109 629.2 131.856 629.653 132.496 630.4C133.189 631.147 133.536 632.16 133.536 633.44C133.536 634.72 133.083 635.813 132.176 636.72C131.269 637.627 129.989 638.08 128.336 638.08C126.683 638.08 125.323 637.493 124.256 636.32C123.189 635.147 122.656 633.547 122.656 631.52C122.656 628.587 123.856 626.107 126.256 624.08C128.709 622.053 131.989 621.04 136.096 621.04Z" fill="white"/>
<path d="M29 62V246L50 230.607V77.3934L29 62Z" fill="url(#paint6_linear_51_12864)"/>
<path d="M29 553V737L50 721.607V568.393L29 553Z" fill="url(#paint7_linear_51_12864)"/>
<path d="M29 245.5C29 249.611 30.5561 253.553 33.3258 256.46C36.0954 259.367 39.8519 261 43.7687 261H50V230H43.7687C39.8569 230.017 36.1099 231.656 33.3438 234.559C30.5777 237.462 29.0164 241.394 29 245.5Z" fill="url(#paint8_linear_51_12864)"/>
<path d="M29 736.5C29 740.611 30.5561 744.553 33.3258 747.46C36.0954 750.367 39.8519 752 43.7687 752H50V721H43.7687C39.8569 721.017 36.1099 722.656 33.3438 725.559C30.5777 728.462 29.0164 732.394 29 736.5Z" fill="url(#paint9_linear_51_12864)"/>
<path d="M29 63.0337C29 58.793 30.5541 54.725 33.322 51.72C36.0898 48.715 39.8461 47.0178 43.7687 47H50V79H43.7687C39.8569 78.9823 36.1099 77.2945 33.3438 74.3041C30.5777 71.3136 29.0164 67.2628 29 63.0337Z" fill="url(#paint10_linear_51_12864)"/>
<path d="M29 554.034C29 549.793 30.5541 545.725 33.322 542.72C36.0898 539.715 39.8461 538.018 43.7687 538H50V570H43.7687C39.8569 569.982 36.1099 568.295 33.3438 565.304C30.5777 562.314 29.0164 558.263 29 554.034Z" fill="url(#paint11_linear_51_12864)"/>
<defs>
<filter id="filter0_d_51_12864" x="46" y="292" width="1156.98" height="223" filterUnits="userSpaceOnUse" color-interpolation-filters="sRGB">
<feFlood flood-opacity="0" result="BackgroundImageFix"/>
<feColorMatrix in="SourceAlpha" type="matrix" values="0 0 0 0 0 0 0 0 0 0 0 0 0 0 0 0 0 0 127 0" result="hardAlpha"/>
<feOffset dy="4"/>
<feGaussianBlur stdDeviation="2"/>
<feComposite in2="hardAlpha" operator="out"/>
<feColorMatrix type="matrix" values="0 0 0 0 0 0 0 0 0 0 0 0 0 0 0 0 0 0 0.25 0"/>
<feBlend mode="normal" in2="BackgroundImageFix" result="effect1_dropShadow_51_12864"/>
<feBlend mode="normal" in="SourceGraphic" in2="effect1_dropShadow_51_12864" result="shape"/>
</filter>
<filter id="filter1_d_51_12864" x="46" y="47" width="1156.98" height="222" filterUnits="userSpaceOnUse" color-interpolation-filters="sRGB">
<feFlood flood-opacity="0" result="BackgroundImageFix"/>
<feColorMatrix in="SourceAlpha" type="matrix" values="0 0 0 0 0 0 0 0 0 0 0 0 0 0 0 0 0 0 127 0" result="hardAlpha"/>
<feOffset dy="4"/>
<feGaussianBlur stdDeviation="2"/>
<feComposite in2="hardAlpha" operator="out"/>
<feColorMatrix type="matrix" values="0 0 0 0 0 0 0 0 0 0 0 0 0 0 0 0 0 0 0.25 0"/>
<feBlend mode="normal" in2="BackgroundImageFix" result="effect1_dropShadow_51_12864"/>
<feBlend mode="normal" in="SourceGraphic" in2="effect1_dropShadow_51_12864" result="shape"/>
</filter>
<filter id="filter2_d_51_12864" x="46" y="538" width="1156.98" height="222" filterUnits="userSpaceOnUse" color-interpolation-filters="sRGB">
<feFlood flood-opacity="0" result="BackgroundImageFix"/>
<feColorMatrix in="SourceAlpha" type="matrix" values="0 0 0 0 0 0 0 0 0 0 0 0 0 0 0 0 0 0 127 0" result="hardAlpha"/>
<feOffset dy="4"/>
<feGaussianBlur stdDeviation="2"/>
<feComposite in2="hardAlpha" operator="out"/>
<feColorMatrix type="matrix" values="0 0 0 0 0 0 0 0 0 0 0 0 0 0 0 0 0 0 0.25 0"/>
<feBlend mode="normal" in2="BackgroundImageFix" result="effect1_dropShadow_51_12864"/>
<feBlend mode="normal" in="SourceGraphic" in2="effect1_dropShadow_51_12864" result="shape"/>
</filter>
<linearGradient id="paint0_linear_51_12864" x1="29" y1="399.564" x2="222.158" y2="399.564" gradientUnits="userSpaceOnUse">
<stop stop-color="#1C4670"/>
<stop offset="1" stop-color="#2588EA"/>
</linearGradient>
<linearGradient id="paint1_linear_51_12864" x1="29" y1="400.033" x2="50" y2="400.033" gradientUnits="userSpaceOnUse">
<stop stop-color="#1C4670"/>
<stop offset="1" stop-color="#5386B8"/>
</linearGradient>
<linearGradient id="paint2_linear_51_12864" x1="29" y1="490.966" x2="50.1246" y2="490.966" gradientUnits="userSpaceOnUse">
<stop stop-color="#1C4670"/>
<stop offset="1" stop-color="#4184C7"/>
</linearGradient>
<linearGradient id="paint3_linear_51_12864" x1="29" y1="308" x2="50.1246" y2="308" gradientUnits="userSpaceOnUse">
<stop stop-color="#1C4670"/>
<stop offset="1" stop-color="#4184C7"/>
</linearGradient>
<linearGradient id="paint4_linear_51_12864" x1="29" y1="154.532" x2="222.136" y2="154.532" gradientUnits="userSpaceOnUse">
<stop stop-color="#FFA229"/>
<stop offset="1" stop-color="#FFBB6A"/>
</linearGradient>
<linearGradient id="paint5_linear_51_12864" x1="29" y1="645.532" x2="222.136" y2="645.532" gradientUnits="userSpaceOnUse">
<stop stop-color="#FFA229"/>
<stop offset="1" stop-color="#FFBB6A"/>
</linearGradient>
<linearGradient id="paint6_linear_51_12864" x1="29" y1="154.033" x2="50" y2="154.033" gradientUnits="userSpaceOnUse">
<stop stop-color="#E19000"/>
<stop offset="1" stop-color="#FFCC1E"/>
</linearGradient>
<linearGradient id="paint7_linear_51_12864" x1="29" y1="645.033" x2="50" y2="645.033" gradientUnits="userSpaceOnUse">
<stop stop-color="#E19000"/>
<stop offset="1" stop-color="#FFCC1E"/>
</linearGradient>
<linearGradient id="paint8_linear_51_12864" x1="29" y1="245.5" x2="50.1246" y2="245.5" gradientUnits="userSpaceOnUse">
<stop stop-color="#E15E00"/>
<stop offset="1" stop-color="#FF9A1E"/>
</linearGradient>
<linearGradient id="paint9_linear_51_12864" x1="29" y1="736.5" x2="50.1246" y2="736.5" gradientUnits="userSpaceOnUse">
<stop stop-color="#E15E00"/>
<stop offset="1" stop-color="#FF9A1E"/>
</linearGradient>
<linearGradient id="paint10_linear_51_12864" x1="29" y1="63.0337" x2="50.1246" y2="63.0337" gradientUnits="userSpaceOnUse">
<stop stop-color="#E15E00"/>
<stop offset="1" stop-color="#FF9A1E"/>
</linearGradient>
<linearGradient id="paint11_linear_51_12864" x1="29" y1="554.034" x2="50.1246" y2="554.034" gradientUnits="userSpaceOnUse">
<stop stop-color="#E15E00"/>
<stop offset="1" stop-color="#FF9A1E"/>
</linearGradient>
</defs>
</svg>
