<svg width="1000" height="1233" viewBox="0 0 1000 1233" fill="none" xmlns="http://www.w3.org/2000/svg">
<g clip-path="url(#clip0_52_486)">
<rect width="1000" height="1233" fill="white"/>
<path d="M824.393 1001.69C770.354 1059.68 691.394 1082.56 621.884 1065.7C578.622 1055.17 539.528 1030.87 501.608 1005.95C463.688 981.028 425.767 955.027 383.555 940.637C323.828 920.349 258.507 927.708 218.102 975.778C172.447 1029.89 87.6575 1006.66 74.357 941.162C56.6154 853.267 90.444 783.079 139.359 708.36C186.697 636.102 240.767 568.043 306.232 517.925C371.697 467.931 449.576 436.774 525.663 443.32C585.415 448.446 641.369 476.392 689.511 514.961C737.59 553.53 778.475 602.536 816.858 653.426C843.939 689.276 870.496 727.382 882.91 773.269C903.908 850.963 878.432 943.694 824.393 1001.69Z" fill="#F8F7FC"/>
<path d="M0 1123.27C0 1129.43 223.837 1134.4 499.966 1134.4C776.163 1134.4 1000 1129.43 1000 1123.27C1000 1117.12 776.163 1112.15 499.966 1112.15C223.837 1112.15 0 1117.12 0 1123.27Z" fill="#F8F7FC"/>
<path d="M72.4165 1074.95L43.6614 1074.97L40.8135 1104.78L67.0179 1107.28C65.8746 1096.65 68.0044 1084 72.4165 1074.95Z" fill="#F6A285"/>
<path d="M64.4685 1089.87C65.6194 1088.48 66.5848 1085.56 70.5194 1085.93C74.4497 1086.31 86.1053 1101.09 94.2632 1102.61C102.164 1104.07 118.422 1107.05 115.922 1125.18C115.782 1126.19 114.825 1126.92 113.808 1126.82L38.4399 1119.62C37.3755 1119.51 36.596 1118.57 36.6973 1117.51L38.8578 1094.9C39.3767 1090.62 44.1878 1088.35 47.8183 1090.68C47.8183 1090.68 57.3132 1098.51 64.4685 1089.87Z" fill="#FFD375"/>
<path d="M116.041 1119.21C116.245 1120.99 116.228 1122.97 115.923 1125.18C115.783 1126.19 114.826 1126.92 113.808 1126.82L38.4403 1119.62C37.3759 1119.52 36.5961 1118.57 36.6973 1117.51L37.2547 1111.68L116.041 1119.21Z" fill="#EE9545"/>
<path d="M47.6933 1103.03C47.4038 1106.06 49.6254 1108.75 52.6522 1109.04C55.6785 1109.33 58.3696 1107.11 58.6587 1104.08C58.9475 1101.06 56.7261 1098.37 53.6996 1098.08C50.6733 1097.79 47.9824 1100.01 47.6933 1103.03Z" fill="#EE9545"/>
<path d="M71.0856 1093.11C70.7779 1093.08 70.4798 1092.96 70.2395 1092.73C69.6665 1092.19 69.6416 1091.28 70.1842 1090.71L73.9493 1086.74C74.4963 1086.17 75.4005 1086.14 75.9686 1086.68C76.5411 1087.22 76.567 1088.13 76.0237 1088.7L72.2586 1092.68C71.9428 1093.01 71.5081 1093.15 71.0856 1093.11Z" fill="#EE9545"/>
<path d="M75.9716 1097.03C75.6639 1097 75.3655 1096.88 75.1255 1096.65C74.5525 1096.11 74.5269 1095.2 75.0702 1094.63L78.8332 1090.65C79.3762 1090.09 80.2839 1090.06 80.8525 1090.6C81.4255 1091.14 81.4509 1092.05 80.9079 1092.62L77.1448 1096.6C76.8304 1096.93 76.3946 1097.07 75.9716 1097.03Z" fill="#EE9545"/>
<path d="M80.6395 1101.18C80.3323 1101.16 80.0337 1101.03 79.793 1100.8C79.2204 1100.26 79.1951 1099.35 79.7383 1098.78L83.5034 1094.81C84.0502 1094.24 84.9537 1094.21 85.522 1094.76C86.0955 1095.3 86.1209 1096.2 85.5774 1096.78L81.8123 1100.75C81.4972 1101.08 81.062 1101.23 80.6395 1101.18Z" fill="#EE9545"/>
<path d="M157.397 1082.04L156.641 1109.8L182.956 1110.52C180.952 1099.21 181.685 1088.47 186.295 1078.57L157.397 1082.04Z" fill="#F6A285"/>
<path d="M179.226 1093.32C180.28 1091.85 181.045 1088.87 184.995 1088.98C188.942 1089.08 201.576 1103.05 209.817 1104C217.8 1104.93 234.222 1106.79 232.96 1125.05C232.89 1126.07 231.984 1126.86 230.962 1126.83L155.279 1124.76C154.21 1124.74 153.368 1123.85 153.397 1122.78L154.016 1100.08C154.243 1095.77 158.889 1093.18 162.669 1095.25C162.669 1095.25 172.674 1102.42 179.226 1093.32Z" fill="#FFD375"/>
<path d="M232.673 1119.08C232.998 1120.84 233.115 1122.82 232.961 1125.05C232.89 1126.07 231.985 1126.85 230.962 1126.83L155.279 1124.76C154.211 1124.73 153.368 1123.84 153.397 1122.77L153.557 1116.92L232.673 1119.08Z" fill="#EE9545"/>
<path d="M163.385 1107.59C163.302 1110.63 165.701 1113.16 168.74 1113.25C171.779 1113.33 174.313 1110.93 174.396 1107.89C174.478 1104.85 172.079 1102.32 169.04 1102.23C166.001 1102.15 163.468 1104.55 163.385 1107.59Z" fill="#EE9545"/>
<path d="M186.052 1096.13C185.743 1096.12 185.437 1096.02 185.182 1095.8C184.573 1095.3 184.486 1094.4 184.989 1093.79L188.476 1089.57C188.983 1088.97 189.883 1088.88 190.486 1089.38C191.095 1089.88 191.182 1090.79 190.679 1091.39L187.192 1095.61C186.899 1095.96 186.476 1096.14 186.052 1096.13Z" fill="#EE9545"/>
<path d="M191.191 1099.7C190.882 1099.69 190.576 1099.59 190.32 1099.37C189.712 1098.87 189.625 1097.97 190.128 1097.36L193.612 1093.14C194.116 1092.54 195.019 1092.45 195.623 1092.95C196.232 1093.45 196.319 1094.36 195.816 1094.97L192.331 1099.18C192.041 1099.54 191.616 1099.71 191.191 1099.7Z" fill="#EE9545"/>
<path d="M196.132 1103.52C195.823 1103.51 195.517 1103.4 195.261 1103.19C194.653 1102.69 194.566 1101.79 195.07 1101.18L198.556 1096.96C199.063 1096.35 199.963 1096.27 200.566 1096.77C201.175 1097.27 201.262 1098.17 200.759 1098.78L197.272 1103C196.98 1103.35 196.556 1103.53 196.132 1103.52Z" fill="#EE9545"/>
<path d="M116.158 736.309C115.718 765.958 124.642 801.849 134.278 830.154C134.786 831.65 135.294 833.146 135.802 834.641C144.651 859.899 151.168 871.494 152.849 878.445C152.906 878.473 152.906 878.473 152.906 878.473C154.204 883.412 154.797 888.521 154.599 893.686C153.555 928.402 150.563 1035.79 151.099 1079.65C151.155 1085.91 187.965 1087.09 189.8 1081.19C208.569 1021.41 215.845 919.201 216.833 880.533C217.717 846.735 204.087 751.471 201.564 732.329C192.83 732.736 233.199 730.855 116.158 736.309Z" fill="#4C5C75"/>
<path d="M152.9 878.484C152.9 878.484 152.9 878.484 152.859 878.445C150.903 870.582 144.147 859.462 134.288 830.148C134.509 819.934 134.796 830.487 135.93 784.023C139.031 817.159 154.071 879.626 152.9 878.484Z" fill="#111D33"/>
<path d="M74.9515 1077.01C102.385 1034.3 115.82 926.038 127.307 880.089C130.638 866.852 133.573 851.667 135.802 834.648C140.153 801.867 141.255 768.77 140.205 735.187V735.158L73.8508 738.235C73.6871 738.626 42.1869 760.465 51.8078 834.225C59.3153 892.225 54.5171 957.762 47.2355 1014.1C44.1873 1037.66 40.7157 1059.65 37.5264 1078.76C36.0022 1088.02 69.8992 1084.91 74.9515 1077.01Z" fill="#4C5C75"/>
<path d="M57.1992 763.41C60.6708 767.531 64.8197 771.483 70.0976 771.652C76.956 771.906 82.0927 765.81 87.1732 761.181C95.2171 753.843 105.66 749.327 116.47 748.141C142.299 745.147 151.109 762.207 180.059 758.641C188.243 757.653 196.682 755 204.133 750.823C202.609 739.505 201.565 732.336 201.565 732.336L140.206 735.186V735.158L73.8515 738.235C73.8515 738.235 64.199 744.952 57.1992 763.41Z" fill="#111D33"/>
<path d="M71.0647 797.265C46.8633 860.054 90.6056 920.188 48.2261 1021.43C47.9128 1018.97 47.5605 1016.56 47.2461 1014.1C54.5189 957.771 59.3266 892.225 51.7975 834.235C42.1693 760.303 73.8626 738.237 73.8626 738.237L86.2454 737.66C92.6977 760.487 78.7275 777.626 71.0647 797.265Z" fill="#111D33"/>
<path d="M323.124 495.99C323.124 495.99 333.208 498.847 324.871 505.305C324.871 505.305 333.562 507.702 326.121 513.972C326.121 513.972 331.719 518.235 325.056 523.068C322.094 525.249 320.106 527.033 317.791 528.716L317.762 528.718C315.502 530.312 312.972 531.772 308.96 533.331C306.697 534.224 305.004 536.112 304.472 538.472C300.731 555.25 284.976 621.729 268.187 630.274C248.945 640.069 214.369 606.926 214.369 606.926C216.946 603.655 205.03 618.775 239.579 574.936L252.684 587.516C252.166 580.156 262.99 566.317 270.207 559.648C277.426 552.978 282.154 522.293 282.154 522.293C282.154 522.293 289.975 502.261 303.449 494.572C316.95 486.852 325.9 487.363 327.525 489.362C328.78 490.906 327.139 493.916 323.124 495.99Z" fill="#F6A285"/>
<path d="M317.763 528.716C315.503 530.31 312.973 531.769 308.96 533.329C306.697 534.222 305.004 536.11 304.472 538.47C300.731 555.248 284.976 621.726 268.187 630.271C248.946 640.067 214.369 606.924 214.369 606.924L235.062 580.688C245.417 584.404 249.47 593.306 247.597 599.83C246.186 604.624 241.775 608.914 242.993 613.76C244.211 618.607 250.182 620.253 255.121 621.045C259.883 621.786 265.734 622.097 268.438 618.119C271.471 613.689 268.046 607.837 267.563 602.461C266.938 595.953 270.888 589.904 275.212 585.005C279.564 580.074 284.574 575.492 286.974 569.399C290.76 559.826 287.251 548.375 291.691 539.093C294.058 534.138 298.664 530.306 303.965 528.833C308.631 527.536 313.16 528.901 317.763 528.716Z" fill="#F6A285"/>
<path d="M708.47 385.218V845.546C708.47 859.811 696.906 871.375 682.641 871.375H333.559C319.294 871.375 307.73 859.811 307.73 845.546V385.218C307.73 370.953 319.294 359.389 333.559 359.389H682.641C696.906 359.389 708.47 370.953 708.47 385.218Z" fill="#1C4670"/>
<path d="M333.559 862.626C324.139 862.626 316.473 854.96 316.473 845.544V385.214C316.473 375.789 324.139 368.123 333.559 368.123H682.642C692.063 368.123 699.729 375.789 699.729 385.214V845.544C699.729 854.96 692.063 862.626 682.642 862.626L333.559 862.626Z" fill="white"/>
<path d="M537.044 446.912C537.044 450.452 534.174 453.322 530.634 453.322H345.105C341.565 453.322 338.695 450.452 338.695 446.912C338.695 443.372 341.565 440.502 345.105 440.502H530.634C534.174 440.502 537.044 443.372 537.044 446.912Z" fill="#F3F1FC"/>
<path d="M508.099 479.904C508.099 483.444 505.229 486.314 501.689 486.314H345.105C341.565 486.314 338.695 483.444 338.695 479.904C338.695 476.364 341.565 473.494 345.105 473.494H501.689C505.229 473.494 508.099 476.364 508.099 479.904Z" fill="#F3F1FC"/>
<path d="M534.879 512.895C534.879 516.436 532.009 519.305 528.469 519.305H345.105C341.565 519.305 338.695 516.435 338.695 512.895C338.695 509.355 341.565 506.485 345.105 506.485H528.469C532.009 506.485 534.879 509.355 534.879 512.895Z" fill="#F3F1FC"/>
<path d="M391.575 553.337V589.78C391.575 593.364 388.67 596.269 385.085 596.269H348.644C345.06 596.269 342.154 593.364 342.154 589.78V553.337C342.154 549.753 345.06 546.848 348.644 546.848H385.085C388.67 546.847 391.575 549.753 391.575 553.337Z" fill="#FFD375"/>
<path d="M391.575 632.482V668.924C391.575 672.508 388.67 675.414 385.085 675.414H348.644C345.06 675.414 342.154 672.508 342.154 668.924V632.482C342.154 628.898 345.06 625.992 348.644 625.992H385.085C388.67 625.992 391.575 628.898 391.575 632.482Z" fill="#FFA229"/>
<path d="M391.575 711.618V748.061C391.575 751.645 388.67 754.551 385.085 754.551H348.644C345.06 754.551 342.154 751.645 342.154 748.061V711.618C342.154 708.034 345.06 705.129 348.644 705.129H385.085C388.67 705.129 391.575 708.034 391.575 711.618Z" fill="#FFA229"/>
<path d="M391.575 790.763V827.206C391.575 830.79 388.67 833.695 385.085 833.695H348.644C345.06 833.695 342.154 830.79 342.154 827.206V790.763C342.154 787.179 345.06 784.273 348.644 784.273H385.085C388.67 784.273 391.575 787.179 391.575 790.763Z" fill="#1C4670"/>
<path d="M357.86 577.62L353.486 569.465C352.587 567.788 353.216 565.698 354.894 564.8C356.575 563.894 358.661 564.53 359.561 566.207L362.296 571.306L375.556 564.089C377.225 563.174 379.317 563.793 380.231 565.466C381.141 567.139 380.524 569.233 378.851 570.141L362.545 579.017C360.877 579.931 358.767 579.309 357.86 577.62Z" fill="white"/>
<path d="M357.86 656.765L353.486 648.609C352.587 646.933 353.216 644.843 354.894 643.944C356.575 643.042 358.661 643.675 359.561 645.351L362.296 650.45L375.556 643.234C377.225 642.318 379.317 642.938 380.231 644.611C381.141 646.283 380.524 648.377 378.851 649.286L362.545 658.162C360.877 659.076 358.767 658.454 357.86 656.765Z" fill="white"/>
<path d="M580.907 556.215H413.203C412.663 556.215 412.227 555.776 412.227 555.238C412.227 554.7 412.663 554.262 413.203 554.262H580.907C581.446 554.262 581.883 554.7 581.883 555.238C581.883 555.776 581.446 556.215 580.907 556.215Z" fill="#E2DFF4"/>
<path d="M605.227 572.535H413.203C412.663 572.535 412.227 572.096 412.227 571.559C412.227 571.021 412.663 570.582 413.203 570.582H605.227C605.767 570.582 606.204 571.021 606.204 571.559C606.204 572.096 605.767 572.535 605.227 572.535Z" fill="#E2DFF4"/>
<path d="M644.036 588.838H413.203C412.663 588.838 412.227 588.399 412.227 587.861C412.227 587.323 412.663 586.885 413.203 586.885H644.036C644.576 586.885 645.013 587.323 645.013 587.861C645.013 588.399 644.576 588.838 644.036 588.838Z" fill="#E2DFF4"/>
<path d="M580.907 635.359H413.203C412.663 635.359 412.227 634.921 412.227 634.383C412.227 633.845 412.663 633.406 413.203 633.406H580.907C581.446 633.406 581.883 633.845 581.883 634.383C581.883 634.921 581.446 635.359 580.907 635.359Z" fill="#E2DFF4"/>
<path d="M605.227 651.68H413.203C412.663 651.68 412.227 651.241 412.227 650.703C412.227 650.165 412.663 649.727 413.203 649.727H605.227C605.767 649.727 606.204 650.165 606.204 650.703C606.204 651.241 605.767 651.68 605.227 651.68Z" fill="#E2DFF4"/>
<path d="M644.036 667.982H413.203C412.663 667.982 412.227 667.544 412.227 667.006C412.227 666.468 412.663 666.029 413.203 666.029H644.036C644.576 666.029 645.013 666.468 645.013 667.006C645.013 667.544 644.576 667.982 644.036 667.982Z" fill="#E2DFF4"/>
<path d="M580.907 714.512H413.203C412.663 714.512 412.227 714.073 412.227 713.535C412.227 712.997 412.663 712.559 413.203 712.559H580.907C581.446 712.559 581.883 712.997 581.883 713.535C581.883 714.073 581.446 714.512 580.907 714.512Z" fill="#E2DFF4"/>
<path d="M605.227 730.816H413.203C412.663 730.816 412.227 730.378 412.227 729.84C412.227 729.302 412.663 728.863 413.203 728.863H605.227C605.767 728.863 606.204 729.302 606.204 729.84C606.204 730.377 605.767 730.816 605.227 730.816Z" fill="#E2DFF4"/>
<path d="M644.036 747.135H413.203C412.663 747.135 412.227 746.696 412.227 746.158C412.227 745.62 412.663 745.182 413.203 745.182H644.036C644.576 745.182 645.013 745.62 645.013 746.158C645.013 746.696 644.576 747.135 644.036 747.135Z" fill="#E2DFF4"/>
<path d="M580.907 793.648H413.203C412.663 793.648 412.227 793.21 412.227 792.672C412.227 792.134 412.663 791.695 413.203 791.695H580.907C581.446 791.695 581.883 792.134 581.883 792.672C581.883 793.209 581.446 793.648 580.907 793.648Z" fill="#E2DFF4"/>
<path d="M605.227 809.961H413.203C412.663 809.961 412.227 809.522 412.227 808.984C412.227 808.446 412.663 808.008 413.203 808.008H605.227C605.767 808.008 606.204 808.446 606.204 808.984C606.204 809.522 605.767 809.961 605.227 809.961Z" fill="#E2DFF4"/>
<path d="M644.036 826.271H413.203C412.663 826.271 412.227 825.833 412.227 825.295C412.227 824.757 412.663 824.318 413.203 824.318H644.036C644.576 824.318 645.013 824.757 645.013 825.295C645.013 825.833 644.576 826.271 644.036 826.271Z" fill="#E2DFF4"/>
<path d="M667.502 478.703C667.502 509.563 642.496 534.568 611.664 534.568C580.805 534.568 555.799 509.563 555.799 478.703C555.799 447.843 580.805 422.837 611.664 422.837C642.496 422.837 667.502 447.843 667.502 478.703Z" fill="#F2F0FB"/>
<path d="M569.012 478.701C569.012 489.197 572.796 498.831 579.163 506.229C586.904 515.462 598.545 521.369 611.621 521.369C624.697 521.369 636.338 515.52 644.138 506.286C650.504 498.888 654.289 489.254 654.289 478.701C654.289 455.131 635.192 436.034 611.621 436.034C588.109 436.034 569.012 455.131 569.012 478.701Z" fill="#A8DFFF"/>
<path d="M579.146 506.221C586.884 515.464 598.534 521.352 611.602 521.352C624.711 521.352 636.318 515.507 644.141 506.307C638.037 502.74 631.032 500.16 623.423 498.871C619.64 498.183 615.642 497.839 611.602 497.839C608.377 497.839 605.195 498.054 602.143 498.484C593.632 499.644 585.852 502.353 579.146 506.221Z" fill="#FFA229"/>
<path d="M602.143 498.484V498.656C602.143 504.545 606.915 509.316 612.804 509.316C618.564 509.316 623.293 504.674 623.422 498.871C619.639 498.183 615.641 497.839 611.601 497.839C608.377 497.839 605.195 498.054 602.143 498.484Z" fill="#F35170"/>
<path d="M606.461 486.904V498.676C606.461 502.176 609.298 505.013 612.797 505.013C616.297 505.013 619.134 502.176 619.134 498.676V486.904H606.461Z" fill="#F6A285"/>
<path d="M598.373 482.647C598.718 485.056 600.037 486.891 601.356 486.719C603.076 492.855 607.32 497.844 612.309 497.844C617.299 497.844 621.542 492.855 623.206 486.719H623.263C624.525 486.891 625.901 485.056 626.188 482.647C626.475 480.296 625.614 478.231 624.352 478.059C624.123 478.059 623.952 478.059 623.722 478.117C622.575 471.522 617.93 467.45 612.309 467.45C606.69 467.45 600.414 462.719 600.84 478.117C600.668 478.059 600.439 478.059 600.266 478.059C598.948 478.231 598.087 480.296 598.373 482.647Z" fill="#F6A285"/>
<path d="M601.527 479.189C601.527 479.189 605.458 473.459 604.037 468.012C604.037 468.012 617.203 469.907 625.916 482.409C634.63 494.912 638.732 465.145 623.189 456.931C609.652 449.776 600.593 461.349 602.15 465.738C602.15 465.738 597.996 464.37 597.713 468.57C597.43 472.77 599.262 478.652 599.262 478.652C599.262 478.652 600.62 477.167 601.527 479.189Z" fill="#111D33"/>
<path d="M577.779 401.225H438.424C434.027 401.225 430.451 397.651 430.451 393.257V378.108H585.751V393.257C585.751 397.651 582.175 401.225 577.779 401.225ZM434.357 382.014V393.256C434.357 395.496 436.181 397.319 438.424 397.319H577.779C580.022 397.319 581.845 395.495 581.845 393.256V382.014H434.357Z" fill="#1C4670"/>
<path d="M604.847 351.826V376.289C604.847 380.888 601.118 384.617 596.519 384.617H419.682C415.082 384.617 411.354 380.888 411.354 376.289V351.826C411.354 347.227 415.082 343.498 419.682 343.498H596.519C601.118 343.498 604.847 347.227 604.847 351.826Z" fill="#1C4670"/>
<path d="M215.295 616.021C210.511 615.987 202.19 605.656 199.282 601.823C199.64 603.667 208.218 678.621 206.795 717.294C206.378 728.804 205.083 737.086 202.417 739.343C185.28 753.678 113.176 722.972 64.7564 749.255C39.4171 763.014 68.0192 627.194 68.0192 627.194C67.6183 627.203 48.9248 627.599 50.0957 627.574L49.8509 622.318L32.9004 623.107C33.1802 611.798 34.8753 558.398 41.1302 549.19C49.576 535.488 70.0853 521.405 85.8532 514.721C88.7446 513.547 91.839 512.387 94.8383 511.623C104.44 509.176 140.661 507.9 163.614 511.826C178.079 514.241 193.775 518.687 204.201 525.105C221.909 536.019 242.453 560.294 249.942 580.75C254.141 592.29 227.66 615.589 215.295 616.021Z" fill="#FFA229"/>
<path d="M206.796 717.294C206.378 728.803 205.083 737.085 202.418 739.343C185.281 753.678 113.177 722.972 64.7572 749.254C39.4179 763.014 68.02 627.194 68.02 627.194L53.1377 627.523C55.1042 624.132 56.8472 620.421 59.7747 617.904C63.7465 614.448 69.1007 614.336 72.2621 618.822C74.35 621.72 73.8012 624.563 74.1412 627.953C74.6644 633.333 76.353 638.389 76.5633 643.875C77.651 671.863 61.911 691.951 68.0419 730.069C68.534 732.818 69.4561 736.044 72.0896 737.012C74.8593 737.972 77.6717 735.934 80.0454 734.233C92.7158 725.422 109.459 725.052 124.664 727.75C148.796 732.103 182.644 746.62 194.716 730.027C197.906 725.549 199.387 717.426 206.796 717.294Z" fill="#EE9545"/>
<path d="M121.623 787.726C121.228 787.945 89.8924 805.382 91.8876 804.271C91.8876 804.271 39.5827 719.193 34.8966 697.121C30.2508 675.34 31.4041 628.401 35.2208 605.643L84.7248 611.792C76.4443 728.124 79.3045 687.939 78.685 696.645L121.623 787.726Z" fill="#F6A285"/>
<path d="M90.6406 801.629C91.7883 813.391 95.039 819.838 97.9446 823.3C100.54 826.526 108.313 836.022 112.621 834.696C115.383 833.844 111.221 825.738 112.075 824.651C113.174 829.991 118.21 836.01 120.772 834.974C123.373 833.926 120.483 826.206 121.338 825.119C121.761 827.45 124.6 835.062 128.854 834.191C132.817 833.38 126.984 822.925 127.879 821.841C128.301 824.169 132.954 832.742 135.857 831.521C139.356 830.05 135.066 816.907 133.415 812.44C128.626 799.479 144.773 808.524 147.811 803.762C151.384 798.163 129.194 791.267 120.899 787.777L90.6406 801.629Z" fill="#F6A285"/>
<path d="M91.8885 804.271C91.8885 804.271 39.5836 719.193 34.8976 697.121C30.2518 675.34 31.405 628.401 35.2218 605.643L84.7257 611.792L82.3099 645.855C71.522 648.767 68.6099 644.605 60.7592 644.075C53.2618 643.577 48.0502 643.21 43.7536 650.54C33.712 667.678 55.6316 680.784 59.6071 696.155C63.3862 710.715 57.2337 725.42 58.1562 740.113C58.4934 745.08 63.0939 747.675 66.4578 751.043C69.6802 754.234 73.176 757.012 76.2736 760.366C83.1129 767.786 81.0134 782.46 89.2197 788.494C92.265 790.737 91.8885 804.271 91.8885 804.271Z" fill="url(#paint0_linear_52_486)"/>
<path d="M250.372 583.025C241.688 564.49 223.516 543.364 207.023 533.219C190.842 523.281 161.058 517.736 142.655 517.657C109.863 517.488 102.16 517.265 88.707 522.854C72.9091 529.514 52.4089 543.601 43.944 557.331C38.1505 566.767 36.4536 611.178 35.9401 622.952L32.8838 623.095C33.2077 610.745 34.8312 559.703 41.1136 549.204C49.5791 535.475 70.0789 521.388 85.8773 514.728C98.261 509.583 104.349 509.348 139.825 509.531C158.26 509.611 188.016 515.157 204.194 525.092C228.938 540.331 249.961 574.204 250.372 583.025Z" fill="#FFA229"/>
<path d="M171.596 539.578C177.208 556.056 190.418 587.05 199.562 601.862C175.891 572.998 171.596 539.578 171.596 539.578Z" fill="white"/>
<path d="M153.844 510.456L153.845 510.486L140.774 546.016C139.848 548.534 136.68 549.333 134.669 547.556L94.2314 511.804C94.2335 511.796 94.2324 511.798 94.2342 511.79C104.874 508.822 128.345 509.474 139.824 509.534C143.851 509.551 148.651 509.851 153.844 510.456Z" fill="white"/>
<path d="M215.284 616C214.438 616.009 213.431 615.677 212.352 615.057C218.625 602.813 235.226 600.939 243.75 590.628C245.906 588.047 247.482 584.91 247.94 581.591C248.137 580.182 247.645 577.753 248.031 576.014C248.747 577.614 249.375 579.189 249.943 580.739C254.223 592.224 227.67 615.609 215.284 616Z" fill="white"/>
<path d="M32.2894 622.265C33.2243 631.099 78.022 629.998 84.0478 623.562C96.0922 610.63 82.3675 558.645 82.3675 558.645C77.8587 558.552 98.7013 558.983 38.2708 557.734C30.9971 590.799 31.3794 602.728 32.2894 622.265Z" fill="#FFA229"/>
<path d="M32.2901 622.265C32.4562 623.834 33.9487 625.06 36.3559 626.014C36.6831 603.207 40.0738 574.56 43.6506 557.855L38.2715 557.734C31.241 589.693 31.3201 601.44 32.2901 622.265Z" fill="#FFA229"/>
<path d="M145.067 459.639L147.064 509.897L135.518 538.09L104.908 510.151L102.647 461.614L145.067 459.639Z" fill="#F6A285"/>
<path d="M135.517 538.096L104.907 510.157L103.203 473.57C103.283 473.436 103.363 473.304 103.486 473.168C105.591 470.27 109.38 469.32 112.876 468.554C115.798 473.025 119.659 477.325 120.851 482.567C122.269 488.962 123.686 495.357 125.059 501.712C125.921 505.417 126.742 509.171 128.742 512.35C131.302 516.451 135.517 538.096 135.517 538.096Z" fill="url(#paint1_linear_52_486)"/>
<path d="M172.912 466.019C173.907 486.824 171.481 508.682 156.469 506.463C140.091 504.102 122.528 495.655 108.944 486.432C105.549 484.117 103.611 482.604 103.611 482.604L103.094 471.506C102.932 471.115 84.9178 452.621 100.84 445.686L102.549 421.416C131.116 418.85 157.965 417.783 168.613 430.749C168.665 431.149 172.13 449.236 172.912 466.019Z" fill="url(#paint2_linear_52_486)"/>
<path d="M140.547 459.809C140.524 461.48 141.866 462.836 143.537 462.86C145.185 462.883 146.563 461.563 146.586 459.893C146.609 458.22 145.267 456.865 143.619 456.842C141.949 456.82 140.57 458.138 140.547 459.809Z" fill="#111D33"/>
<path d="M144.714 460.858C145.75 460.87 145.772 459.302 144.736 459.287C143.688 459.274 143.662 460.842 144.714 460.858Z" fill="#FBFBFB"/>
<path d="M83.4824 434.337C85.8363 445.406 94.3391 460.345 100.49 468.426C96.3754 461.103 93.3617 448.647 100.194 446.171C107.97 443.36 112.138 457.545 112.138 457.545C112.138 457.545 115.454 466.321 117.695 465.425C121.94 463.728 115.334 449.432 119.798 447.266C124.271 445.1 129.258 443.426 129.153 434.742C129.089 429.972 131.234 428.264 134.515 427.694C157.523 423.723 163.37 438.538 173.666 427.979C178.739 422.785 180.613 416.859 179.043 411.241C176.083 400.632 160.786 391.114 131.379 389.71C86.9275 387.59 98.5766 410.907 98.834 411.42C98.8428 411.428 98.8429 411.428 98.8429 411.428C83.6533 413.51 81.1384 423.374 83.4824 434.337Z" fill="black"/>
<path opacity="0.1" d="M179.564 415.657C179.485 414.951 179.339 414.271 179.147 413.592C176.202 402.966 160.895 393.465 131.492 392.041C103.262 390.699 97.6541 399.617 97.3762 406.432C96.5285 399.555 99.779 388.205 131.384 389.71C160.786 391.111 176.093 400.636 179.037 411.239C179.449 412.708 179.609 414.166 179.564 415.657Z" fill="white"/>
<path opacity="0.3" d="M156.467 506.462C153.846 506.078 151.254 505.556 148.689 504.898C150.362 505.26 152.065 505.552 153.767 505.811C180.885 509.82 168.619 430.744 168.619 430.744C168.619 430.744 184.505 510.63 156.467 506.462Z" fill="#FDE0BB"/>
<path d="M130.362 456.72C127.376 458.628 127.716 453.425 131.893 449.736C136.799 445.398 143.702 444.517 147.773 445.892C148.654 446.189 149.498 446.653 150.115 447.348C150.732 448.045 151.099 448.994 150.966 449.915C150.574 452.639 147.836 451.857 145.938 451.741C138.865 451.311 136.275 452.942 130.362 456.72Z" fill="#111D33"/>
<path d="M159.694 445.723C162.131 443.928 166.809 442.541 171.659 443.311C173.077 443.537 174.122 444.761 174.116 446.198C174.11 447.841 172.742 449.128 171.099 449.081C170.754 449.071 170.409 449.072 170.064 449.086C167.697 449.183 165.404 449.865 163.21 450.716C161.443 451.402 159.084 452.974 157.885 450.509C157.25 449.204 157.601 447.268 159.694 445.723Z" fill="#111D33"/>
<path d="M107.441 458.777C105.867 453.307 101.273 450.528 96.8915 453.218C96.4632 453.479 96.859 454.12 97.2843 453.864C101.276 451.43 105.229 454.066 106.663 458.861C105.726 458.192 104.726 457.972 103.191 458.526C101.198 459.255 101.622 460.878 102.252 460.71C102.257 460.708 102.263 460.707 102.272 460.705C102.467 460.64 102.576 460.428 102.514 460.228C102.217 459.317 105.507 458.027 106.875 460.071C106.889 460.094 106.922 460.079 106.94 460.096C107.687 463.66 107.211 464.555 107.907 464.502C107.93 464.499 107.955 464.496 107.974 464.49C108.148 464.444 108.269 464.28 108.253 464.095" fill="#E17659"/>
<path d="M100.49 468.431C96.3754 461.108 93.3616 448.653 100.194 446.177C107.97 443.365 112.138 457.551 112.138 457.551C112.138 457.551 115.454 466.327 117.695 465.431C121.94 463.734 115.334 449.438 119.798 447.271C124.271 445.106 129.258 443.432 129.153 434.748C129.089 429.978 131.234 428.27 134.515 427.7C157.523 423.729 163.37 438.544 173.666 427.985C178.739 422.791 180.613 416.865 179.043 411.247C178.757 411.552 178.462 411.824 178.156 412.071C166.327 421.575 143.053 406.277 126.451 414.314C120.178 417.347 115.463 424.497 117.227 431.238C117.784 433.37 118.941 435.331 119.293 437.515C120.115 442.486 115.778 445.349 111.79 441.33C110.479 440.016 109.503 438.371 108.057 437.197C105.174 434.857 100.574 435.005 97.8505 437.53C94.97 440.209 94.5193 444 91.9072 454.986C96.1158 462.529 100.232 468.093 100.49 468.431Z" fill="#111D33"/>
<path d="M83.4824 434.342C83.5552 434.304 83.594 434.07 83.5901 433.628C83.5059 428.233 87.2252 418.321 93.3315 414.73C99.2915 411.228 109.234 415.605 109.702 415.817C103.243 410.936 98.8431 411.433 98.8431 411.433C83.6533 413.514 81.1384 423.379 83.4824 434.342Z" fill="#111D33"/>
<path d="M161.805 475.786C156.666 474.021 159.527 474.203 155.484 476.081C153.404 477.046 155.841 471.711 157.591 471.629C159.328 471.548 164.273 476.633 161.805 475.786Z" fill="#E17659"/>
<path d="M151.428 486.553C151.077 486.53 150.804 486.889 150.954 487.206C152.466 490.425 155.613 492.562 159.147 492.334C162.605 492.112 165.428 489.727 166.624 486.487C166.747 486.155 166.45 485.82 166.101 485.883C161.469 486.71 156.569 486.913 151.428 486.553Z" fill="#E17659"/>
<path d="M150.026 459.471C149.955 459.55 149.955 459.55 149.881 459.553C147.928 458.979 145.825 458.336 143.943 457.682C140.745 459.301 139.365 461.118 134.496 461.529C134.422 461.532 134.344 461.463 134.341 461.387C134.411 461.312 134.411 461.312 134.411 461.312C135.676 459.843 137.113 458.89 138.63 458.078C140.225 457.338 141.904 456.816 143.502 456.147L143.576 456.144C144.039 455.962 143.847 455.814 149.945 459.33C150.022 459.399 150.026 459.471 150.026 459.471Z" fill="#111D33"/>
<path d="M164.33 458.697C164.307 460.367 165.649 461.724 167.32 461.747C168.968 461.77 170.347 460.45 170.369 458.78C170.392 457.108 169.051 455.753 167.402 455.73C165.732 455.707 164.353 457.026 164.33 458.697Z" fill="#111D33"/>
<path d="M173.8 458.361C173.73 458.44 173.73 458.44 173.655 458.443C171.703 457.869 169.6 457.226 167.718 456.572C164.52 458.191 163.139 460.008 158.27 460.418C158.196 460.421 158.119 460.353 158.115 460.277C158.185 460.202 158.185 460.202 158.185 460.202C160.978 456.956 164.407 456.236 167.276 455.037L167.35 455.033C167.568 454.948 167.789 454.937 167.941 455.006C169.914 456.024 171.816 457.122 173.719 458.219C173.796 458.288 173.8 458.361 173.8 458.361Z" fill="#111D33"/>
<path d="M168.498 459.745C169.535 459.758 169.553 458.19 168.519 458.175C167.472 458.161 167.445 459.73 168.498 459.745Z" fill="#FBFBFB"/>
<path d="M299.492 520.868C312.084 513.308 307.502 503.348 307.502 503.348C314.779 500.09 324.192 497.246 322.442 491.995C320.312 485.601 300.697 494.853 293.818 501.32C289.665 505.224 287.64 511.819 287.518 523.227" fill="#F6A285"/>
<path d="M306.914 513.539C308.53 510.438 308.821 506.603 307.431 503.38C307.066 502.637 322.689 498.777 322.516 493.185C322.866 484.121 296.056 496.394 291.262 504.827C288.013 510.597 287.815 517.108 287.518 523.244C287.7 517.03 287.742 510.64 290.982 504.664C295.435 496.436 322.532 483.558 322.779 493.18C322.885 497.995 312.891 501.041 307.535 503.416L307.573 503.31C309.418 507.657 308.61 513.051 303.748 517.739C301.709 519.643 299.082 521.13 299.475 520.875C300.051 520.373 304.622 517.919 306.914 513.539Z" fill="#E17659"/>
<path d="M776.743 1101.13C782.525 1089.96 799.599 1093.09 814.436 1093.09C822.283 1093.09 824.484 1087.65 824.832 1082.52L853.113 1081.5C857.961 1089.39 860.402 1104.95 860.331 1114.68C860.297 1119.4 856.444 1123.18 851.724 1123.18H785.165C781.93 1123.18 778.995 1121.37 777.502 1118.5C775.31 1114.29 773.314 1107.76 776.743 1101.13Z" fill="#4C5C75"/>
<path d="M881.015 1101.13C886.796 1089.96 903.87 1093.09 918.708 1093.09C926.555 1093.09 928.755 1087.65 929.104 1082.52L957.385 1081.5C962.233 1089.39 964.672 1104.95 964.602 1114.68C964.568 1119.4 960.715 1123.18 955.996 1123.18H889.437C886.202 1123.18 883.266 1121.37 881.773 1118.5C879.582 1114.29 877.586 1107.76 881.015 1101.13Z" fill="#4C5C75"/>
<path d="M775.168 1111.57C775.598 1114.21 776.513 1116.59 777.502 1118.49C778.996 1121.36 781.931 1123.18 785.166 1123.18L851.725 1123.18C856.445 1123.18 860.298 1119.4 860.331 1114.68C860.339 1113.71 860.302 1112.64 860.259 1111.57L775.168 1111.57Z" fill="#111D33"/>
<path d="M879.438 1111.57C879.866 1114.21 880.783 1116.59 881.772 1118.49C883.265 1121.36 886.201 1123.18 889.436 1123.18L955.995 1123.18C960.714 1123.18 964.567 1119.4 964.601 1114.68C964.609 1113.71 964.571 1112.64 964.528 1111.57L879.438 1111.57Z" fill="#111D33"/>
<path d="M819.52 1080.81C820.371 1083.24 822.712 1084.86 825.265 1084.86H853.141C855.78 1084.86 858.036 1083.15 858.93 1080.73C870.591 1048.6 851.864 994.332 856.759 935.517V935.473C857.696 923.728 859.653 911.811 862.931 899.851C873.144 862.741 877.06 830.693 877.996 805.117C878.889 780.006 876.89 761.067 875.06 749.533C873.655 741.022 872.378 736.51 872.378 736.51L804.88 726.168C804.473 729.898 794.173 803.713 792.282 884.87C790.367 964.711 801.092 1028.93 819.52 1080.81Z" fill="#497BFD"/>
<path d="M856.759 935.472C857.695 923.727 859.653 911.809 862.93 899.85C873.144 862.74 877.059 830.692 877.996 805.115L868.761 810.561C868.761 810.561 851.056 907.597 856.759 935.472Z" fill="#2C65E4"/>
<path d="M872.762 889.935C881.317 971.861 893.02 1042.98 923.789 1081.36C924.982 1082.81 927.11 1084.05 929.833 1085.02C940.133 1088.68 958.348 1088.34 959.752 1081.36C969.881 1032.34 935.876 973.137 944.771 895.764C955.922 798.517 933.536 730.551 933.536 730.551H869.867C867.248 785.016 866.995 834.842 872.762 889.935Z" fill="#497BFD"/>
<path d="M869.527 735.956C880.861 745.048 896.164 747.265 907.489 756.298C920.173 766.385 925.577 783.45 925.961 799.665C926.387 815.924 922.555 831.925 920.173 848.014C914.47 886.317 912.001 929.77 926.684 965.604C942.049 1003.05 946.432 1048.3 929.833 1085.02C940.133 1088.68 958.348 1088.34 959.752 1081.36C969.881 1032.34 935.877 973.137 944.772 895.764C955.923 798.517 933.536 730.551 933.536 730.551H869.867C869.867 730.551 869.741 732.423 869.527 735.956Z" fill="#2C65E4"/>
<path d="M693.522 510.657C693.522 510.657 683.655 513.063 691.498 519.614C691.498 519.614 682.997 521.625 689.979 527.962C689.979 527.962 684.406 531.891 690.684 536.808C693.475 539.026 695.338 540.824 697.52 542.537L697.547 542.539C699.679 544.164 702.076 545.668 705.906 547.321C708.067 548.265 709.638 550.155 710.068 552.458C713.094 568.841 725.979 633.777 741.933 642.651C760.216 652.824 794.882 621.962 794.882 621.962C792.502 618.702 803.502 633.77 771.609 590.084L758.471 601.799C759.234 594.69 749.246 580.903 742.495 574.187C735.743 567.472 732.259 537.588 732.259 537.588C732.259 537.588 703.687 501.093 690.915 493.167C685.228 491.051 682.668 495.659 693.522 510.657Z" fill="#F6A285"/>
<path d="M697.547 542.544C699.679 544.169 702.076 545.673 705.906 547.326C708.067 548.27 709.638 550.16 710.069 552.463C713.094 568.846 725.979 633.783 741.933 642.656C760.216 652.829 794.882 621.967 794.882 621.967L775.778 595.823C765.635 599.044 761.373 607.515 762.957 613.913C764.153 618.605 768.271 622.917 766.919 627.566C765.567 632.216 759.726 633.597 754.914 634.188C750.277 634.735 744.6 634.828 742.123 630.88C739.345 626.482 742.869 620.937 743.529 615.747C745.3 602.464 730.076 594.874 725.911 583.039C722.586 573.634 726.393 562.67 722.424 553.524C720.309 548.642 715.984 544.766 710.904 543.152C706.431 541.728 701.998 542.888 697.547 542.544Z" fill="url(#paint3_linear_52_486)"/>
<path d="M966.617 628.265H950.172V633.412L932.771 633.777C932.771 633.777 939.149 701.377 942.201 736.315C943.75 753.99 818.525 763.92 803.174 733.172C801.762 730.303 800.669 726.339 799.94 721.602C794.747 688.532 804.222 617.515 804.54 615.146C804.085 615.874 802.217 619.975 797.116 623.163C796.113 623.8 795.157 624.165 794.291 624.21C782.172 624.359 755.488 602.674 759.17 591.641C765.427 572.318 778.827 553.115 796.387 541.122C806.181 534.472 821.122 529.461 835.06 526.409C859.948 521.417 892.748 521.355 901.614 523.175C901.75 523.175 901.841 523.22 901.978 523.265C902.069 523.265 902.16 523.311 902.206 523.311C920.963 526.852 950.419 547.16 955.684 557.703C957.461 560.71 959.01 566.722 960.376 574.102C963.747 592.004 965.843 617.834 966.617 628.265Z" fill="#C5ADFF"/>
<path d="M966.601 628.245H950.195V633.414L932.793 633.793C932.793 633.793 939.146 701.364 942.181 736.311C943.746 753.997 818.516 763.907 803.154 733.181C801.778 730.289 800.687 726.353 799.928 721.611C794.761 688.513 804.244 617.529 804.529 615.158C804.1 615.869 802.204 619.995 797.131 623.172C796.133 623.789 795.138 624.167 794.286 624.215C782.453 624.366 755.836 603.224 759.148 591.638C765.89 571.482 779.143 552.883 796.372 541.139C807.506 533.554 824.467 528.546 837.862 525.871C849.43 522.974 887.023 520.858 899.885 522.883C900.452 522.978 901.07 523.073 901.591 523.168C901.735 523.168 901.827 523.215 901.971 523.263C902.066 523.263 902.161 523.31 902.207 523.31C918.498 526.568 947.297 543.847 955.695 557.688C957.45 560.724 959.013 566.744 960.389 574.095C963.755 592.018 965.841 617.813 966.601 628.245Z" fill="#FFA229"/>
<path d="M759.498 592.562C767.069 574.231 778.491 559.7 793.998 549.137C806.601 540.563 827.013 535.09 842.074 532.696C856.434 530.385 882.753 529.658 892.466 530.324C895.009 530.493 897.325 530.775 899.245 531.171C899.443 531.2 899.641 531.256 899.838 531.312C916.095 534.862 942.709 550.136 952.942 565.123C954.863 567.948 956.558 574.246 958.026 582.1C960.314 594.416 962.433 614.838 963.647 628.284H966.614C965.851 617.832 963.733 591.987 960.399 574.106C959.015 566.734 957.434 560.745 955.682 557.694C946.899 543.704 919.789 527.202 902.352 523.346C902.296 523.346 902.267 523.318 902.211 523.318C902.013 523.262 901.816 523.206 901.618 523.178C892.558 521.307 858.497 521.517 835.04 526.454C821.143 529.475 806.172 534.477 796.37 541.143C779.225 552.836 765.351 571.24 759.809 590.331C759.603 591.042 759.498 591.772 759.498 592.562Z" fill="#FFA229"/>
<path d="M828.578 553.684C823.888 569.887 812.498 600.485 804.314 615.235C825.927 586.228 828.578 553.684 828.578 553.684Z" fill="#FFA229"/>
<path d="M794.319 624.208C795.138 624.179 796.098 623.812 797.115 623.163C788.964 608.928 764.356 609.603 761.158 592.372C760.903 591.018 761.27 588.644 760.818 586.979C760.197 588.56 759.659 590.114 759.18 591.639C755.558 602.936 782.298 624.389 794.319 624.208Z" fill="white"/>
<path d="M799.93 721.553C800.664 726.326 801.737 730.308 803.15 733.162C818.516 763.923 943.734 753.98 942.18 736.297C939.129 701.355 932.775 633.79 932.775 633.79L950.174 633.366V628.254H966.614C965.852 617.803 963.733 591.958 960.4 574.078C957.942 572.976 955.344 572.127 952.689 571.534C946.079 570.094 938.848 570.291 932.915 573.512C923.99 578.371 922.577 590.037 919.103 598.708C904.035 636.183 931.365 670.044 913.482 724.942C912.776 727.174 911.957 729.434 910.403 731.185C906.646 735.394 900.121 735.197 894.529 734.688C879.445 733.303 858.824 742.287 849.249 730.535C843.628 723.615 860.293 707.937 852.299 703.869C848.119 701.751 846.396 711.13 843.712 714.972C841.057 718.842 838.007 722.626 833.883 724.858C829.76 727.09 824.279 727.372 820.607 724.461C816.935 721.553 823.516 715.649 820.212 712.344C818.431 710.565 807.132 716.243 799.93 721.553Z" fill="#FFA229"/>
<path d="M840.238 619.743L868.478 733.731C869.964 739.731 866.305 744.595 860.305 744.595H776.984C770.984 744.595 764.915 739.731 763.428 733.731L735.189 619.743C733.702 613.743 737.361 608.879 743.361 608.879H826.682C832.682 608.879 838.752 613.743 840.238 619.743Z" fill="#FFDC98"/>
<path d="M719.329 543.667C708.641 537.253 712.733 523.037 712.733 523.037C705.771 520.511 702.584 520.223 703.85 515.239C705.392 509.172 718.462 514.707 725.274 520.234C729.384 523.57 731.706 529.543 732.591 540.104" fill="#F6A285"/>
<path d="M719.318 543.683C712.258 539.571 710.74 530.89 712.656 523.015L712.705 523.11C708.297 521.466 703.673 520.672 703.479 517.55C703.457 516.294 703.577 514.965 704.354 513.893C706.951 510.557 714.762 513.752 718.51 515.665C727.237 520.347 731.25 523.641 732.609 540.101C732.61 540.112 732.602 540.122 732.591 540.123C732.581 540.123 732.571 540.115 732.57 540.104C730.966 523.802 727.04 520.77 718.348 515.979C714.77 514.131 707.043 510.914 704.567 514.059C703.853 515.007 703.704 516.346 703.722 517.526C703.898 520.537 708.5 521.326 712.759 522.961C712.797 522.976 712.818 523.018 712.808 523.058C710.87 530.85 712.31 539.504 719.338 543.649C719.347 543.655 719.351 543.666 719.345 543.676C719.34 543.685 719.328 543.689 719.318 543.683Z" fill="#E17659"/>
<path d="M833.743 674.888C834.223 674.831 837.274 674.548 838.064 674.463C811.371 679.265 828.686 681.722 840.805 680.423C816.682 683.925 830.748 687.145 842.782 686.524C838.743 687.117 833.8 688.135 833.686 689.941C833.602 691.353 837.923 692.653 843.657 693.727C845.098 693.981 846.623 694.235 848.206 694.49C854.815 695.479 857.159 695.506 859.843 697.681C863.43 699.377 880.124 702.201 886.508 702.682C916.816 704.94 946.108 702.285 957.859 685.564C965.91 674.068 965.57 649.465 962.915 627.092H918.794C918.752 633.461 919.014 639.572 919.105 640.652C919.528 651.102 919.783 656.272 921.986 667.993C895.095 672.569 877.017 671.609 875.633 670.987C872.779 669.718 865.126 661.583 860.408 661.157C854.872 660.65 849.316 655.46 849.316 655.46L851.933 666.013C850.719 666.294 822.191 671.044 823.009 673.756C823.743 676.214 831.935 675.028 833.743 674.888Z" fill="#F6A285"/>
<path d="M843.656 693.729C845.097 693.983 846.622 694.237 848.205 694.492C854.814 695.481 857.159 695.508 859.842 697.683C863.429 699.379 880.123 702.203 886.507 702.683C916.815 704.942 946.107 702.287 957.858 685.566C965.909 674.07 965.569 649.467 962.914 627.094H918.793C918.751 633.463 919.013 639.574 919.104 640.654C919.132 640.681 919.16 640.71 919.189 640.71C928.929 645.578 935.61 641.393 942.04 639.721C945.543 638.845 949.413 638.62 952.519 640.455C957.745 643.535 958.395 650.709 958.479 656.782C958.565 663.617 958.169 671.498 952.774 675.707C948.621 678.928 942.887 678.843 937.69 679.493C914.372 682.434 892.917 703.577 869.333 695.678C865.802 694.491 862.525 692.655 859.023 691.384C855.549 690.085 851.65 689.379 848.119 690.565C846.368 691.131 844.759 692.26 843.656 693.729Z" fill="url(#paint4_linear_52_486)"/>
<path d="M914.219 567.444L957.631 564.553C963.246 585.724 967.45 604.26 966.471 627.831C966.11 636.518 921.786 637.527 915.561 631.457C903.079 619.285 914.219 567.444 914.219 567.444Z" fill="#FFA229"/>
<path d="M915.91 631.831C925.619 637.869 966.126 635.88 966.471 627.832C967.448 604.265 963.251 585.726 957.618 564.545L952.337 564.91C957.797 585.633 964.631 603.689 963.683 626.827C963.367 634.127 926.229 634.475 915.91 631.831Z" fill="white"/>
<path d="M899.885 522.878L899.41 523.684C884.615 549.479 872.809 560.955 861.05 560.955C848.389 560.955 840.803 549.196 838.383 525.771C859.229 521.902 890.083 521.334 899.885 522.878Z" fill="white"/>
<path d="M815.026 435.657C815.026 435.657 811.204 443.317 820.478 453.159L831.501 432.882L815.026 435.657Z" fill="black"/>
<path d="M890.695 521.895V471.241H847.471V526.297C853.607 556.183 866.087 561.819 890.695 521.895Z" fill="#F6A285"/>
<path d="M820.606 479.409C822.027 494.841 826.529 509.745 838.158 512.515C850.125 515.38 878.222 502.209 885.47 496.792C888.816 494.287 890.694 492.627 890.694 492.627V481.334C890.694 481.334 896.064 475.243 898.086 468.717C899.771 463.396 899.218 457.786 891.754 454.97L888.864 430.363C859.707 429.111 831.802 427.979 821.569 441.656C821.553 442.103 818.977 462.064 820.606 479.409Z" fill="url(#paint5_linear_52_486)"/>
<path d="M816.887 440.412C827.842 450.644 833.091 435.308 856.686 438.269C860.033 438.678 862.296 440.316 862.465 445.178C862.778 454.015 867.931 455.484 872.577 457.458C877.224 459.456 871.18 474.312 875.563 475.829C877.898 476.647 880.859 467.546 880.859 467.546C880.859 467.546 884.423 452.932 892.465 455.411C899.519 457.627 897.039 470.436 893.211 478.068C893.451 477.707 897.376 471.856 901.301 463.982C901.903 462.803 902.481 461.552 903.059 460.275C904.985 456.134 906.743 451.583 907.898 447.129C908.307 445.612 908.644 444.095 908.885 442.602C910.089 435.428 909.078 427.603 900.819 425.315C900.844 425.267 900.844 425.219 900.844 425.171C900.867 425.195 900.867 425.171 900.867 425.171C904.623 411.76 893.548 406.415 893.548 406.415C870.747 397.241 860.515 417.658 850.666 416.768C840.796 415.877 829.431 398.012 813.323 409.424C797.455 420.63 816.749 440.021 816.887 440.412Z" fill="black"/>
<path d="M838.226 482.897C838.442 482.765 838.685 483.029 838.603 483.326C838.126 485.055 837.252 486.601 836.076 487.571C834.721 488.687 832.85 489.155 831.491 488.164C829.866 486.98 828.713 484.496 829.703 483.894C830.419 483.457 831.62 485.643 832.518 485.726C836.141 486.06 837.365 483.421 838.226 482.897Z" fill="#E17659"/>
<path d="M885.684 468.585C886.168 466.546 887.023 464.886 888.221 463.648C889.639 462.191 891.565 461.407 893.375 461.55C894.282 461.619 895.215 461.918 896.148 462.432C896.334 462.534 896.403 462.767 896.301 462.953C896.195 463.142 895.96 463.205 895.779 463.107C894.939 462.648 894.115 462.382 893.312 462.316C891.729 462.189 890.034 462.888 888.774 464.184C887.7 465.291 886.935 466.798 886.478 468.633C886.932 468.277 887.443 468.001 888.02 467.918C888.61 467.832 889.254 467.899 889.993 468.129C890.347 468.239 890.753 468.392 891.079 468.697C891.458 469.059 891.627 469.582 891.504 470.031C891.45 470.228 891.251 470.348 891.051 470.304C891.046 470.303 891.04 470.302 891.031 470.3C890.829 470.243 890.709 470.032 890.763 469.826C890.81 469.652 890.725 469.421 890.553 469.255C890.343 469.059 890.036 468.949 889.765 468.865C889.15 468.669 888.607 468.612 888.13 468.68C887.395 468.784 886.702 469.241 886.321 469.874C886.307 469.897 886.273 469.884 886.255 469.903C886.036 471.259 885.926 472.64 885.878 474.058C885.871 474.272 885.694 474.435 885.48 474.429C885.457 474.427 885.432 474.425 885.412 474.42C885.233 474.381 885.102 474.22 885.11 474.031" fill="#E17659"/>
<path d="M848.441 470.66C848.441 471.982 847.364 473.04 846.042 473.04C844.739 473.04 843.662 471.982 843.662 470.66C843.662 469.338 844.739 468.28 846.042 468.28C847.364 468.28 848.441 469.338 848.441 470.66Z" fill="#111D33"/>
<path d="M841.205 470.217C841.229 470.241 841.278 470.264 841.302 470.264C842.818 469.808 844.287 469.374 845.78 468.892C846.864 469.519 847.875 470.241 849.006 470.842C850.186 471.372 851.462 471.782 852.883 471.878C852.931 471.878 852.979 471.854 852.979 471.782C852.979 471.757 852.979 471.733 852.955 471.733C852.04 470.65 850.957 469.879 849.801 469.253C848.598 468.676 847.345 468.29 846.141 467.76L846.069 467.736C845.925 467.688 845.78 467.688 845.66 467.736C844.167 468.483 842.698 469.301 841.229 470.096C841.205 470.12 841.181 470.168 841.205 470.217Z" fill="#111D33"/>
<path d="M826.962 470.333C826.962 471.655 825.885 472.712 824.563 472.712C823.26 472.712 822.184 471.655 822.184 470.333C822.184 469.011 823.26 467.953 824.563 467.953C825.885 467.953 826.962 469.011 826.962 470.333Z" fill="#111D33"/>
<path d="M823.323 470.954C822.502 470.954 822.502 469.712 823.323 469.712C824.152 469.712 824.152 470.954 823.323 470.954Z" fill="#FBFBFB"/>
<path d="M845.63 470.333C845.63 470.678 845.349 470.954 845.004 470.954C844.664 470.954 844.383 470.678 844.383 470.333C844.383 469.988 844.664 469.712 845.004 469.712C845.349 469.712 845.63 469.988 845.63 470.333Z" fill="#FBFBFB"/>
<path d="M819.825 469.93C821.424 469.458 823.033 469.006 824.611 468.479L824.137 468.462C825.28 469.113 826.358 469.894 827.518 470.51C828.716 471.052 829.977 471.468 831.401 471.557C831.452 471.56 831.497 471.521 831.5 471.47C831.501 471.444 831.493 471.421 831.478 471.403C830.553 470.316 829.465 469.556 828.314 468.921C827.126 468.361 825.855 467.966 824.648 467.441L824.585 467.413C824.449 467.354 824.299 467.363 824.175 467.424C822.684 468.162 821.225 468.976 819.758 469.771C819.668 469.82 819.724 469.959 819.825 469.93Z" fill="#111D33"/>
<path d="M839.835 457.306C835.815 459.235 837.892 463.779 841.603 462.55C842.472 462.263 843.283 461.767 844.125 461.379C847.406 459.866 851.183 460.063 854.347 461.914C854.971 462.279 855.586 462.71 856.269 462.837C856.952 462.964 857.74 462.701 858.084 461.964C859.512 458.911 847.546 453.608 839.835 457.306Z" fill="#111D33"/>
<path d="M831.204 457.699C831.985 458.074 832.819 458.698 832.961 459.715C833.17 461.21 831.864 462.686 829.758 461.99C829.048 461.755 828.383 461.349 827.695 461.031C825.011 459.793 821.921 459.955 819.332 461.469C818.822 461.768 818.318 462.121 817.76 462.224C817.201 462.328 816.557 462.113 816.275 461.51C815.082 458.956 824.967 454.708 831.204 457.699Z" fill="#111D33"/>
<path d="M807.424 423.96C809.157 432.58 816.886 440.404 816.886 440.404C827.841 450.637 833.09 435.3 856.685 438.262C860.032 438.671 862.295 440.309 862.464 445.171C862.777 454.008 867.93 455.477 872.576 457.451C877.223 459.449 871.179 474.305 875.562 475.822C877.897 476.64 880.858 467.539 880.858 467.539C880.858 467.539 884.422 452.925 892.464 455.404C899.518 457.619 897.038 470.429 893.21 478.061C893.45 477.7 897.375 471.849 901.3 463.975C901.902 462.796 902.48 461.545 903.058 460.268C902.817 459.377 902.528 458.535 902.167 457.691C900.144 452.852 895.714 448.398 890.489 448.76C887.48 448.976 884.855 450.71 882.086 451.889C875.975 454.494 871.328 452.429 871.179 445.773C871.107 443.582 871.493 441.367 871.252 439.177C870.529 432.411 864.077 427.403 857.408 426.078C841.147 422.851 820.423 437.579 807.424 423.96Z" fill="black"/>
<path d="M885.988 430.635C889.744 429.792 893.476 428.95 897.232 428.082C902.623 426.886 905.062 428.119 905.466 434.319C905.635 438.075 907.248 442.794 907.898 447.128C908.307 445.611 908.644 444.094 908.885 442.601C910.089 435.426 909.078 427.602 900.819 425.314C900.844 425.266 900.844 425.218 900.844 425.17C900.651 425.339 900.434 425.459 900.217 425.555C898.844 426.156 892.224 427.674 885.988 430.635Z" fill="black"/>
<path d="M837.849 494.793C834.896 495.271 832.129 495.291 829.559 494.828C829.057 494.737 828.641 495.207 828.83 495.682C829.472 497.301 830.99 500.161 833.701 500.161C836.375 500.161 837.919 497.267 838.572 495.653C838.761 495.185 838.348 494.713 837.849 494.793Z" fill="#E17659"/>
<path d="M500.001 995.225V1108.17C500.001 1113.25 495.876 1117.36 490.794 1117.36H306.399C301.317 1117.36 297.191 1113.25 297.191 1108.17V995.225C297.191 990.143 301.317 986.018 306.399 986.018H490.794C495.876 986.018 500.001 990.142 500.001 995.225Z" fill="#FFA229"/>
<path d="M345.094 979.201V986.022H321.711V979.201C321.711 978.054 322.641 977.123 323.789 977.123H343.015C344.163 977.123 345.094 978.054 345.094 979.201Z" fill="#1C4670"/>
<path d="M475.482 979.201V986.022H452.1V979.201C452.1 978.054 453.03 977.123 454.178 977.123H473.404C474.552 977.123 475.482 978.054 475.482 979.201Z" fill="#1C4670"/>
<path d="M500.002 1010.84H297.191V1022.9H500.002V1010.84Z" fill="#1C4670"/>
<path d="M434.665 1067.64C434.665 1087.56 418.516 1103.7 398.593 1103.7C378.679 1103.7 362.529 1087.56 362.529 1067.64C362.529 1047.71 378.679 1031.57 398.593 1031.57C418.516 1031.57 434.665 1047.71 434.665 1067.64Z" fill="white"/>
<path d="M435.231 965.927V986.028H426.309V972.851C426.309 970.767 424.621 969.079 422.537 969.079H374.653C372.569 969.079 370.881 970.767 370.881 972.851V986.028H361.959V965.927C361.959 963.171 364.198 960.949 366.937 960.949H430.253C432.992 960.949 435.231 963.171 435.231 965.927Z" fill="#1C4670"/>
<path d="M418.311 1073.87L408.617 1068.27L418.091 1062.8C418.767 1062.41 418.999 1061.54 418.609 1060.87L415.105 1054.8C414.715 1054.12 413.85 1053.89 413.174 1054.28L403.33 1059.96V1048.34C403.33 1047.56 402.697 1046.93 401.916 1046.93H394.909C394.128 1046.93 393.495 1047.56 393.495 1048.34V1059.54L384.02 1054.07C383.344 1053.68 382.479 1053.91 382.089 1054.59L378.585 1060.65C378.195 1061.33 378.426 1062.19 379.103 1062.59L388.946 1068.27L378.883 1074.08C378.207 1074.47 377.975 1075.33 378.365 1076.01L381.869 1082.08C382.259 1082.75 383.124 1082.99 383.801 1082.6L393.495 1077V1087.94C393.495 1088.72 394.128 1089.35 394.909 1089.35H401.916C402.697 1089.35 403.33 1088.72 403.33 1087.94V1076.57L413.393 1082.38C414.07 1082.77 414.935 1082.54 415.325 1081.87L418.829 1075.8C419.219 1075.12 418.987 1074.26 418.311 1073.87Z" fill="#1C4670"/>
<path d="M752.896 797.278C755.643 797.682 757.693 800.012 757.697 802.789L757.803 883.732C757.827 901.958 749.015 919.058 734.164 929.622L681.391 967.146C679.46 968.52 676.872 968.523 674.937 967.155L622.066 929.769C607.187 919.244 598.329 902.167 598.306 883.941L598.199 802.999C598.196 800.222 600.239 797.886 602.986 797.475C617.028 795.372 628.121 784.255 630.187 770.203C630.591 767.455 632.921 765.405 635.698 765.402L720.1 765.291C722.877 765.287 725.212 767.331 725.623 770.078C727.726 784.124 738.849 795.212 752.896 797.278Z" fill="#1C4670"/>
<path d="M706.18 883.254C721.74 867.694 721.74 842.466 706.18 826.906C690.62 811.346 665.392 811.346 649.832 826.906C634.272 842.466 634.272 867.694 649.832 883.254C665.392 898.814 690.62 898.814 706.18 883.254Z" fill="white"/>
<path d="M669.305 866.107L661.862 857.511C660.081 855.455 660.306 852.345 662.361 850.566C664.418 848.785 667.526 849.009 669.307 851.065L673.662 856.095L687.38 845.213C689.511 843.524 692.608 843.878 694.297 846.011C695.988 848.141 695.63 851.238 693.5 852.928L676.087 866.741C674.027 868.377 671.034 868.105 669.305 866.107Z" fill="#1C4670"/>
<path d="M841.595 315.366V362.226C841.595 364.312 839.904 366.003 837.819 366.003H808.634L797.989 381.356C796.487 383.521 793.285 383.522 791.783 381.357L782.253 367.627C781.548 366.61 780.389 366.003 779.151 366.003H751.943C749.857 366.003 748.166 364.312 748.166 362.226V315.366C748.166 313.281 749.857 311.59 751.943 311.59H837.819C839.904 311.59 841.595 313.281 841.595 315.366Z" fill="#FFA229"/>
<path d="M779.466 337.554C779.466 342.035 775.847 345.653 771.366 345.653C766.92 345.653 763.301 342.035 763.301 337.554C763.301 333.108 766.92 329.488 771.366 329.488C775.847 329.489 779.466 333.108 779.466 337.554Z" fill="#1C4670"/>
<path d="M802.964 337.554C802.964 342.035 799.345 345.653 794.864 345.653C790.418 345.653 786.799 342.035 786.799 337.554C786.799 333.108 790.418 329.488 794.864 329.488C799.345 329.489 802.964 333.108 802.964 337.554Z" fill="#1C4670"/>
<path d="M826.46 337.554C826.46 342.035 822.841 345.653 818.36 345.653C813.914 345.653 810.295 342.035 810.295 337.554C810.295 333.108 813.914 329.488 818.36 329.488C822.841 329.489 826.46 333.108 826.46 337.554Z" fill="#1C4670"/>
<path d="M205.61 132.538L213.115 103.32H217.049L216.609 110.851L208.586 141H204.498L205.61 132.538ZM199.995 103.32L206.076 132.305L206.62 141H202.272L193.551 103.32H199.995ZM225.563 132.227L231.567 103.32H238.037L229.315 141H224.968L225.563 132.227ZM218.576 103.32L226.003 132.615L227.09 141H223.001L215.108 110.851L214.694 103.32H218.576ZM248.906 112.999V141H242.643V112.999H248.906ZM242.229 105.649C242.229 104.701 242.54 103.916 243.161 103.294C243.799 102.656 244.679 102.337 245.8 102.337C246.904 102.337 247.776 102.656 248.414 103.294C249.052 103.916 249.372 104.701 249.372 105.649C249.372 106.581 249.052 107.357 248.414 107.979C247.776 108.6 246.904 108.91 245.8 108.91C244.679 108.91 243.799 108.6 243.161 107.979C242.54 107.357 242.229 106.581 242.229 105.649ZM268.574 112.999V117.554H252.788V112.999H268.574ZM257.342 106.141H263.579V133.262C263.579 134.125 263.7 134.789 263.941 135.255C264.2 135.703 264.554 136.005 265.002 136.161C265.451 136.316 265.977 136.394 266.581 136.394C267.012 136.394 267.426 136.368 267.823 136.316C268.22 136.264 268.539 136.212 268.781 136.161L268.807 140.922C268.289 141.078 267.685 141.216 266.995 141.336C266.322 141.457 265.546 141.518 264.666 141.518C263.234 141.518 261.966 141.267 260.862 140.767C259.758 140.25 258.895 139.413 258.274 138.257C257.653 137.101 257.342 135.565 257.342 133.65V106.141ZM279.546 101.25V141H273.335V101.25H279.546ZM278.459 125.964L276.441 125.938C276.458 124.006 276.726 122.221 277.243 120.582C277.778 118.943 278.52 117.519 279.469 116.312C280.435 115.087 281.591 114.146 282.937 113.491C284.282 112.818 285.775 112.481 287.414 112.481C288.794 112.481 290.036 112.671 291.14 113.051C292.262 113.43 293.228 114.043 294.039 114.888C294.849 115.716 295.462 116.803 295.876 118.149C296.307 119.477 296.523 121.099 296.523 123.014V141H290.26V122.962C290.26 121.617 290.062 120.547 289.665 119.753C289.285 118.96 288.725 118.39 287.983 118.045C287.241 117.683 286.335 117.502 285.266 117.502C284.144 117.502 283.152 117.726 282.29 118.175C281.444 118.623 280.737 119.236 280.167 120.012C279.598 120.789 279.167 121.686 278.874 122.704C278.597 123.722 278.459 124.808 278.459 125.964ZM319.917 135.203V101.25H326.18V141H320.513L319.917 135.203ZM301.699 127.31V126.767C301.699 124.645 301.949 122.712 302.449 120.97C302.95 119.21 303.674 117.7 304.623 116.441C305.572 115.164 306.728 114.189 308.091 113.517C309.454 112.826 310.989 112.481 312.697 112.481C314.388 112.481 315.872 112.809 317.148 113.465C318.425 114.12 319.512 115.061 320.409 116.286C321.306 117.493 322.022 118.943 322.557 120.633C323.092 122.307 323.472 124.17 323.696 126.223V127.957C323.472 129.958 323.092 131.787 322.557 133.443C322.022 135.1 321.306 136.532 320.409 137.739C319.512 138.947 318.417 139.879 317.123 140.534C315.846 141.19 314.354 141.518 312.646 141.518C310.955 141.518 309.428 141.164 308.065 140.457C306.719 139.749 305.572 138.757 304.623 137.48C303.674 136.204 302.95 134.703 302.449 132.978C301.949 131.235 301.699 129.346 301.699 127.31ZM307.936 126.767V127.31C307.936 128.587 308.048 129.777 308.272 130.881C308.514 131.986 308.884 132.96 309.385 133.806C309.885 134.634 310.532 135.289 311.326 135.772C312.137 136.238 313.103 136.471 314.224 136.471C315.639 136.471 316.803 136.161 317.718 135.54C318.632 134.918 319.348 134.082 319.866 133.029C320.401 131.96 320.763 130.769 320.953 129.458V124.774C320.849 123.756 320.633 122.807 320.306 121.927C319.995 121.047 319.572 120.28 319.038 119.624C318.503 118.951 317.839 118.434 317.045 118.071C316.269 117.692 315.346 117.502 314.276 117.502C313.137 117.502 312.171 117.743 311.377 118.227C310.584 118.71 309.928 119.374 309.411 120.219C308.91 121.065 308.539 122.048 308.298 123.169C308.056 124.291 307.936 125.49 307.936 126.767ZM338.964 118.33V141H332.728V112.999H338.68L338.964 118.33ZM347.53 112.818L347.479 118.615C347.099 118.546 346.685 118.494 346.236 118.459C345.805 118.425 345.374 118.408 344.942 118.408C343.873 118.408 342.932 118.563 342.122 118.874C341.311 119.167 340.629 119.598 340.077 120.167C339.542 120.72 339.128 121.392 338.835 122.186C338.542 122.98 338.369 123.868 338.317 124.852L336.894 124.955C336.894 123.195 337.067 121.565 337.412 120.064C337.757 118.563 338.274 117.243 338.964 116.104C339.672 114.966 340.552 114.077 341.604 113.439C342.674 112.801 343.907 112.481 345.305 112.481C345.684 112.481 346.09 112.516 346.521 112.585C346.97 112.654 347.306 112.732 347.53 112.818ZM366.292 135.384V122.031C366.292 121.03 366.111 120.167 365.749 119.443C365.387 118.718 364.835 118.158 364.093 117.761C363.368 117.364 362.454 117.166 361.35 117.166C360.332 117.166 359.452 117.338 358.71 117.683C357.968 118.028 357.39 118.494 356.976 119.081C356.562 119.667 356.355 120.331 356.355 121.073H350.144C350.144 119.969 350.411 118.899 350.946 117.864C351.481 116.829 352.257 115.906 353.275 115.095C354.293 114.284 355.51 113.646 356.924 113.18C358.339 112.714 359.926 112.481 361.686 112.481C363.791 112.481 365.654 112.835 367.276 113.542C368.915 114.25 370.2 115.319 371.132 116.751C372.081 118.166 372.555 119.943 372.555 122.083V134.53C372.555 135.807 372.641 136.954 372.814 137.972C373.004 138.973 373.271 139.844 373.616 140.586V141H367.224C366.931 140.327 366.698 139.473 366.525 138.438C366.37 137.386 366.292 136.368 366.292 135.384ZM367.198 123.972L367.25 127.828H362.773C361.617 127.828 360.599 127.94 359.719 128.164C358.839 128.371 358.106 128.682 357.52 129.096C356.933 129.51 356.493 130.01 356.2 130.597C355.906 131.183 355.76 131.847 355.76 132.589C355.76 133.331 355.932 134.013 356.277 134.634C356.622 135.238 357.123 135.712 357.778 136.057C358.451 136.402 359.262 136.575 360.211 136.575C361.488 136.575 362.6 136.316 363.549 135.798C364.515 135.264 365.275 134.617 365.827 133.857C366.379 133.081 366.672 132.348 366.707 131.658L368.725 134.427C368.518 135.134 368.164 135.893 367.664 136.704C367.164 137.515 366.508 138.291 365.697 139.033C364.904 139.758 363.946 140.353 362.825 140.819C361.721 141.285 360.444 141.518 358.995 141.518C357.166 141.518 355.535 141.155 354.104 140.431C352.672 139.689 351.55 138.697 350.739 137.455C349.928 136.195 349.523 134.772 349.523 133.185C349.523 131.701 349.799 130.39 350.351 129.251C350.92 128.095 351.749 127.129 352.835 126.353C353.94 125.576 355.285 124.99 356.873 124.593C358.46 124.179 360.271 123.972 362.307 123.972H367.198ZM386.685 134.789L393.155 112.999H397.14L396.053 119.521L389.532 141H385.96L386.685 134.789ZM382.881 112.999L387.927 134.893L388.341 141H384.356L376.773 112.999H382.881ZM403.196 134.634L408.087 112.999H414.168L406.612 141H402.626L403.196 134.634ZM397.813 112.999L404.205 134.53L405.007 141H401.436L394.837 119.495L393.75 112.999H397.813ZM434.199 135.384V122.031C434.199 121.03 434.018 120.167 433.655 119.443C433.293 118.718 432.741 118.158 431.999 117.761C431.274 117.364 430.36 117.166 429.256 117.166C428.238 117.166 427.358 117.338 426.616 117.683C425.874 118.028 425.296 118.494 424.882 119.081C424.468 119.667 424.261 120.331 424.261 121.073H418.05C418.05 119.969 418.318 118.899 418.853 117.864C419.387 116.829 420.164 115.906 421.182 115.095C422.2 114.284 423.416 113.646 424.831 113.18C426.245 112.714 427.833 112.481 429.592 112.481C431.697 112.481 433.56 112.835 435.182 113.542C436.821 114.25 438.106 115.319 439.038 116.751C439.987 118.166 440.461 119.943 440.461 122.083V134.53C440.461 135.807 440.548 136.954 440.72 137.972C440.91 138.973 441.177 139.844 441.522 140.586V141H435.13C434.837 140.327 434.604 139.473 434.432 138.438C434.276 137.386 434.199 136.368 434.199 135.384ZM435.104 123.972L435.156 127.828H430.679C429.523 127.828 428.505 127.94 427.625 128.164C426.746 128.371 426.012 128.682 425.426 129.096C424.839 129.51 424.399 130.01 424.106 130.597C423.813 131.183 423.666 131.847 423.666 132.589C423.666 133.331 423.839 134.013 424.184 134.634C424.529 135.238 425.029 135.712 425.685 136.057C426.357 136.402 427.168 136.575 428.117 136.575C429.394 136.575 430.507 136.316 431.456 135.798C432.422 135.264 433.181 134.617 433.733 133.857C434.285 133.081 434.578 132.348 434.613 131.658L436.631 134.427C436.424 135.134 436.071 135.893 435.57 136.704C435.07 137.515 434.414 138.291 433.604 139.033C432.81 139.758 431.852 140.353 430.731 140.819C429.627 141.285 428.35 141.518 426.901 141.518C425.072 141.518 423.442 141.155 422.01 140.431C420.578 139.689 419.456 138.697 418.646 137.455C417.835 136.195 417.429 134.772 417.429 133.185C417.429 131.701 417.705 130.39 418.257 129.251C418.827 128.095 419.655 127.129 420.742 126.353C421.846 125.576 423.192 124.99 424.779 124.593C426.366 124.179 428.178 123.972 430.213 123.972H435.104ZM453.66 101.25V141H447.397V101.25H453.66ZM472.5 127.31V126.715C472.5 124.696 472.793 122.824 473.379 121.099C473.966 119.357 474.811 117.847 475.916 116.57C477.037 115.276 478.4 114.276 480.004 113.568C481.626 112.844 483.455 112.481 485.491 112.481C487.544 112.481 489.373 112.844 490.977 113.568C492.599 114.276 493.97 115.276 495.092 116.57C496.213 117.847 497.067 119.357 497.654 121.099C498.24 122.824 498.534 124.696 498.534 126.715V127.31C498.534 129.329 498.24 131.201 497.654 132.926C497.067 134.651 496.213 136.161 495.092 137.455C493.97 138.731 492.607 139.732 491.003 140.457C489.398 141.164 487.578 141.518 485.542 141.518C483.489 141.518 481.652 141.164 480.03 140.457C478.426 139.732 477.063 138.731 475.941 137.455C474.82 136.161 473.966 134.651 473.379 132.926C472.793 131.201 472.5 129.329 472.5 127.31ZM478.736 126.715V127.31C478.736 128.569 478.866 129.76 479.125 130.881C479.383 132.003 479.789 132.986 480.341 133.832C480.893 134.677 481.6 135.341 482.463 135.824C483.326 136.307 484.352 136.549 485.542 136.549C486.698 136.549 487.699 136.307 488.544 135.824C489.407 135.341 490.114 134.677 490.667 133.832C491.219 132.986 491.624 132.003 491.883 130.881C492.159 129.76 492.297 128.569 492.297 127.31V126.715C492.297 125.473 492.159 124.299 491.883 123.195C491.624 122.074 491.21 121.082 490.641 120.219C490.089 119.357 489.381 118.684 488.519 118.201C487.673 117.7 486.664 117.45 485.491 117.45C484.318 117.45 483.3 117.7 482.437 118.201C481.592 118.684 480.893 119.357 480.341 120.219C479.789 121.082 479.383 122.074 479.125 123.195C478.866 124.299 478.736 125.473 478.736 126.715ZM512.198 141H505.961V110.308C505.961 108.22 506.349 106.469 507.125 105.054C507.919 103.622 509.049 102.544 510.516 101.819C511.982 101.077 513.716 100.707 515.717 100.707C516.338 100.707 516.951 100.75 517.555 100.836C518.159 100.905 518.745 101.017 519.314 101.172L519.159 105.986C518.814 105.9 518.435 105.839 518.021 105.805C517.624 105.77 517.192 105.753 516.727 105.753C515.778 105.753 514.958 105.934 514.268 106.296C513.595 106.641 513.078 107.15 512.715 107.823C512.37 108.496 512.198 109.324 512.198 110.308V141ZM517.969 112.999V117.554H501.665V112.999H517.969Z" fill="#1C4670"/>
<path d="M550.447 123.972H540.846L540.794 119.236H549.179C550.593 119.236 551.792 119.029 552.776 118.615C553.777 118.183 554.536 117.571 555.053 116.777C555.571 115.966 555.83 114.992 555.83 113.853C555.83 112.594 555.588 111.567 555.105 110.773C554.622 109.98 553.88 109.402 552.879 109.04C551.896 108.677 550.637 108.496 549.101 108.496H542.812V141H536.317V103.32H549.101C551.171 103.32 553.017 103.519 554.639 103.916C556.278 104.312 557.667 104.933 558.806 105.779C559.962 106.607 560.833 107.659 561.419 108.936C562.023 110.213 562.325 111.731 562.325 113.491C562.325 115.043 561.954 116.467 561.212 117.761C560.471 119.037 559.375 120.081 557.926 120.892C556.477 121.703 554.674 122.186 552.517 122.341L550.447 123.972ZM550.162 141H538.801L541.726 135.85H550.162C551.629 135.85 552.854 135.609 553.837 135.125C554.82 134.625 555.554 133.944 556.037 133.081C556.537 132.201 556.787 131.175 556.787 130.001C556.787 128.777 556.571 127.715 556.14 126.818C555.709 125.904 555.027 125.205 554.096 124.722C553.164 124.222 551.948 123.972 550.447 123.972H543.149L543.201 119.236H552.698L554.173 121.021C556.244 121.09 557.943 121.548 559.271 122.393C560.617 123.238 561.618 124.334 562.273 125.68C562.929 127.025 563.257 128.475 563.257 130.027C563.257 132.425 562.731 134.435 561.678 136.057C560.643 137.679 559.151 138.912 557.201 139.758C555.252 140.586 552.905 141 550.162 141ZM594.467 135.85V141H574.462V135.85H594.467ZM576.3 103.32V141H569.804V103.32H576.3ZM591.853 119.055V124.127H574.462V119.055H591.853ZM594.337 103.32V108.496H574.462V103.32H594.337ZM624.435 135.85V141H604.43V135.85H624.435ZM606.268 103.32V141H599.772V103.32H606.268ZM621.821 119.055V124.127H604.43V119.055H621.821ZM624.305 103.32V108.496H604.43V103.32H624.305ZM665.194 128.733H671.664C671.457 131.201 670.766 133.4 669.593 135.333C668.42 137.248 666.772 138.757 664.65 139.861C662.528 140.965 659.949 141.518 656.913 141.518C654.583 141.518 652.487 141.104 650.624 140.275C648.761 139.43 647.165 138.24 645.836 136.704C644.508 135.151 643.49 133.279 642.783 131.088C642.093 128.897 641.748 126.447 641.748 123.739V120.607C641.748 117.899 642.101 115.449 642.809 113.258C643.533 111.067 644.568 109.195 645.914 107.642C647.26 106.072 648.873 104.873 650.753 104.045C652.651 103.217 654.782 102.803 657.146 102.803C660.147 102.803 662.684 103.355 664.754 104.459C666.824 105.563 668.429 107.09 669.567 109.04C670.723 110.989 671.431 113.223 671.689 115.742H665.22C665.047 114.12 664.668 112.732 664.081 111.576C663.512 110.42 662.666 109.54 661.545 108.936C660.424 108.315 658.957 108.004 657.146 108.004C655.662 108.004 654.368 108.28 653.264 108.833C652.16 109.385 651.236 110.195 650.495 111.265C649.753 112.335 649.192 113.655 648.812 115.225C648.45 116.777 648.269 118.554 648.269 120.556V123.739C648.269 125.637 648.433 127.362 648.761 128.915C649.106 130.45 649.623 131.77 650.313 132.874C651.021 133.978 651.918 134.832 653.005 135.436C654.092 136.04 655.394 136.342 656.913 136.342C658.759 136.342 660.251 136.049 661.39 135.462C662.546 134.875 663.417 134.021 664.003 132.9C664.607 131.761 665.004 130.372 665.194 128.733ZM689.287 141.518C687.217 141.518 685.345 141.181 683.671 140.508C682.015 139.818 680.6 138.861 679.427 137.636C678.271 136.411 677.383 134.97 676.762 133.314C676.141 131.658 675.83 129.872 675.83 127.957V126.922C675.83 124.731 676.149 122.747 676.788 120.97C677.426 119.193 678.314 117.674 679.453 116.415C680.592 115.138 681.938 114.164 683.49 113.491C685.043 112.818 686.725 112.481 688.537 112.481C690.538 112.481 692.289 112.818 693.79 113.491C695.291 114.164 696.533 115.112 697.517 116.337C698.517 117.545 699.259 118.986 699.742 120.659C700.243 122.333 700.493 124.179 700.493 126.197V128.863H678.858V124.386H694.333V123.894C694.299 122.773 694.075 121.72 693.661 120.737C693.264 119.753 692.651 118.96 691.823 118.356C690.995 117.752 689.891 117.45 688.511 117.45C687.476 117.45 686.553 117.674 685.742 118.123C684.948 118.554 684.284 119.184 683.749 120.012C683.214 120.84 682.8 121.841 682.507 123.014C682.231 124.17 682.093 125.473 682.093 126.922V127.957C682.093 129.182 682.257 130.321 682.584 131.373C682.93 132.408 683.43 133.314 684.085 134.09C684.741 134.867 685.535 135.479 686.466 135.928C687.398 136.359 688.459 136.575 689.649 136.575C691.15 136.575 692.487 136.273 693.661 135.669C694.834 135.065 695.852 134.211 696.714 133.107L700.001 136.29C699.397 137.17 698.612 138.015 697.646 138.826C696.68 139.62 695.498 140.267 694.101 140.767C692.72 141.267 691.116 141.518 689.287 141.518ZM711.621 118.33V141H705.384V112.999H711.336L711.621 118.33ZM720.187 112.818L720.135 118.615C719.755 118.546 719.341 118.494 718.893 118.459C718.461 118.425 718.03 118.408 717.599 118.408C716.529 118.408 715.589 118.563 714.778 118.874C713.967 119.167 713.285 119.598 712.733 120.167C712.199 120.72 711.785 121.392 711.491 122.186C711.198 122.98 711.025 123.868 710.974 124.852L709.55 124.955C709.55 123.195 709.723 121.565 710.068 120.064C710.413 118.563 710.931 117.243 711.621 116.104C712.328 114.966 713.208 114.077 714.26 113.439C715.33 112.801 716.563 112.481 717.961 112.481C718.34 112.481 718.746 112.516 719.177 112.585C719.626 112.654 719.962 112.732 720.187 112.818ZM738.224 112.999V117.554H722.438V112.999H738.224ZM726.993 106.141H733.229V133.262C733.229 134.125 733.35 134.789 733.592 135.255C733.851 135.703 734.204 136.005 734.653 136.161C735.101 136.316 735.628 136.394 736.231 136.394C736.663 136.394 737.077 136.368 737.474 136.316C737.87 136.264 738.19 136.212 738.431 136.161L738.457 140.922C737.939 141.078 737.336 141.216 736.646 141.336C735.973 141.457 735.196 141.518 734.316 141.518C732.884 141.518 731.616 141.267 730.512 140.767C729.408 140.25 728.545 139.413 727.924 138.257C727.303 137.101 726.993 135.565 726.993 133.65V106.141ZM749.714 112.999V141H743.452V112.999H749.714ZM743.038 105.649C743.038 104.701 743.348 103.916 743.969 103.294C744.608 102.656 745.487 102.337 746.609 102.337C747.713 102.337 748.584 102.656 749.223 103.294C749.861 103.916 750.18 104.701 750.18 105.649C750.18 106.581 749.861 107.357 749.223 107.979C748.584 108.6 747.713 108.91 746.609 108.91C745.487 108.91 744.608 108.6 743.969 107.979C743.348 107.357 743.038 106.581 743.038 105.649ZM764.569 141H758.306V111.188C758.306 108.927 758.755 107.021 759.652 105.468C760.566 103.916 761.869 102.734 763.56 101.923C765.268 101.112 767.295 100.707 769.641 100.707C771.021 100.707 772.35 100.853 773.626 101.146C774.92 101.44 776.257 101.811 777.638 102.259L776.68 107.332C775.8 107.038 774.826 106.762 773.756 106.503C772.686 106.227 771.453 106.089 770.055 106.089C768.175 106.089 766.786 106.521 765.889 107.383C765.009 108.229 764.569 109.497 764.569 111.188V141ZM770.185 112.999V117.554H754.01V112.999H770.185ZM780.588 112.999V141H774.351V112.999H780.588ZM798.988 136.549C800.006 136.549 800.92 136.35 801.731 135.954C802.559 135.54 803.223 134.97 803.724 134.246C804.241 133.521 804.526 132.684 804.578 131.735H810.452C810.418 133.547 809.883 135.194 808.848 136.678C807.812 138.162 806.441 139.344 804.733 140.224C803.025 141.086 801.136 141.518 799.065 141.518C796.926 141.518 795.063 141.155 793.476 140.431C791.888 139.689 790.569 138.671 789.516 137.377C788.464 136.083 787.67 134.591 787.135 132.9C786.618 131.209 786.359 129.398 786.359 127.465V126.56C786.359 124.627 786.618 122.816 787.135 121.125C787.67 119.417 788.464 117.916 789.516 116.622C790.569 115.328 791.888 114.319 793.476 113.594C795.063 112.852 796.917 112.481 799.04 112.481C801.282 112.481 803.249 112.93 804.94 113.827C806.631 114.707 807.959 115.941 808.925 117.528C809.909 119.098 810.418 120.927 810.452 123.014H804.578C804.526 121.979 804.267 121.047 803.801 120.219C803.353 119.374 802.714 118.701 801.886 118.201C801.075 117.7 800.101 117.45 798.962 117.45C797.702 117.45 796.659 117.709 795.831 118.227C795.002 118.727 794.355 119.417 793.89 120.297C793.424 121.16 793.087 122.134 792.88 123.221C792.691 124.291 792.596 125.404 792.596 126.56V127.465C792.596 128.621 792.691 129.743 792.88 130.83C793.07 131.917 793.398 132.891 793.864 133.754C794.347 134.599 795.002 135.281 795.831 135.798C796.659 136.299 797.711 136.549 798.988 136.549ZM831.026 135.384V122.031C831.026 121.03 830.845 120.167 830.482 119.443C830.12 118.718 829.568 118.158 828.826 117.761C828.102 117.364 827.187 117.166 826.083 117.166C825.065 117.166 824.185 117.338 823.443 117.683C822.701 118.028 822.124 118.494 821.709 119.081C821.295 119.667 821.088 120.331 821.088 121.073H814.877C814.877 119.969 815.145 118.899 815.68 117.864C816.215 116.829 816.991 115.906 818.009 115.095C819.027 114.284 820.243 113.646 821.658 113.18C823.072 112.714 824.66 112.481 826.419 112.481C828.524 112.481 830.388 112.835 832.009 113.542C833.648 114.25 834.934 115.319 835.865 116.751C836.814 118.166 837.289 119.943 837.289 122.083V134.53C837.289 135.807 837.375 136.954 837.547 137.972C837.737 138.973 838.005 139.844 838.35 140.586V141H831.958C831.664 140.327 831.431 139.473 831.259 138.438C831.104 137.386 831.026 136.368 831.026 135.384ZM831.932 123.972L831.983 127.828H827.506C826.35 127.828 825.333 127.94 824.453 128.164C823.573 128.371 822.84 128.682 822.253 129.096C821.666 129.51 821.226 130.01 820.933 130.597C820.64 131.183 820.493 131.847 820.493 132.589C820.493 133.331 820.666 134.013 821.011 134.634C821.356 135.238 821.856 135.712 822.512 136.057C823.185 136.402 823.995 136.575 824.944 136.575C826.221 136.575 827.334 136.316 828.283 135.798C829.249 135.264 830.008 134.617 830.56 133.857C831.112 133.081 831.405 132.348 831.44 131.658L833.458 134.427C833.251 135.134 832.898 135.893 832.397 136.704C831.897 137.515 831.242 138.291 830.431 139.033C829.637 139.758 828.68 140.353 827.558 140.819C826.454 141.285 825.177 141.518 823.728 141.518C821.899 141.518 820.269 141.155 818.837 140.431C817.405 139.689 816.284 138.697 815.473 137.455C814.662 136.195 814.256 134.772 814.256 133.185C814.256 131.701 814.532 130.39 815.084 129.251C815.654 128.095 816.482 127.129 817.569 126.353C818.673 125.576 820.019 124.99 821.606 124.593C823.193 124.179 825.005 123.972 827.041 123.972H831.932ZM856.646 112.999V117.554H840.86V112.999H856.646ZM845.415 106.141H851.651V133.262C851.651 134.125 851.772 134.789 852.014 135.255C852.272 135.703 852.626 136.005 853.075 136.161C853.523 136.316 854.049 136.394 854.653 136.394C855.085 136.394 855.499 136.368 855.896 136.316C856.292 136.264 856.611 136.212 856.853 136.161L856.879 140.922C856.361 141.078 855.757 141.216 855.067 141.336C854.395 141.457 853.618 141.518 852.738 141.518C851.306 141.518 850.038 141.267 848.934 140.767C847.83 140.25 846.967 139.413 846.346 138.257C845.725 137.101 845.415 135.565 845.415 133.65V106.141ZM873.804 141.518C871.733 141.518 869.861 141.181 868.188 140.508C866.532 139.818 865.117 138.861 863.944 137.636C862.788 136.411 861.899 134.97 861.278 133.314C860.657 131.658 860.347 129.872 860.347 127.957V126.922C860.347 124.731 860.666 122.747 861.304 120.97C861.943 119.193 862.831 117.674 863.97 116.415C865.108 115.138 866.454 114.164 868.007 113.491C869.56 112.818 871.242 112.481 873.053 112.481C875.055 112.481 876.806 112.818 878.307 113.491C879.808 114.164 881.05 115.112 882.033 116.337C883.034 117.545 883.776 118.986 884.259 120.659C884.759 122.333 885.009 124.179 885.009 126.197V128.863H863.375V124.386H878.85V123.894C878.816 122.773 878.591 121.72 878.177 120.737C877.78 119.753 877.168 118.96 876.34 118.356C875.512 117.752 874.408 117.45 873.027 117.45C871.992 117.45 871.069 117.674 870.258 118.123C869.465 118.554 868.8 119.184 868.266 120.012C867.731 120.84 867.317 121.841 867.023 123.014C866.747 124.17 866.609 125.473 866.609 126.922V127.957C866.609 129.182 866.773 130.321 867.101 131.373C867.446 132.408 867.946 133.314 868.602 134.09C869.258 134.867 870.051 135.479 870.983 135.928C871.915 136.359 872.976 136.575 874.166 136.575C875.667 136.575 877.004 136.273 878.177 135.669C879.35 135.065 880.368 134.211 881.231 133.107L884.518 136.29C883.914 137.17 883.129 138.015 882.163 138.826C881.196 139.62 880.015 140.267 878.617 140.767C877.237 141.267 875.632 141.518 873.804 141.518ZM347.763 163.25H354V197.022L353.405 203H347.763V163.25ZM372.271 188.741V189.284C372.271 191.354 372.038 193.261 371.572 195.003C371.123 196.729 370.433 198.23 369.501 199.506C368.587 200.783 367.448 201.775 366.085 202.482C364.74 203.173 363.178 203.518 361.401 203.518C359.659 203.518 358.141 203.19 356.847 202.534C355.553 201.879 354.466 200.947 353.586 199.739C352.723 198.532 352.025 197.091 351.49 195.417C350.955 193.744 350.575 191.898 350.351 189.879V188.146C350.575 186.11 350.955 184.264 351.49 182.607C352.025 180.934 352.723 179.493 353.586 178.286C354.466 177.061 355.544 176.12 356.821 175.465C358.115 174.809 359.624 174.481 361.35 174.481C363.144 174.481 364.722 174.826 366.085 175.517C367.466 176.207 368.613 177.19 369.527 178.467C370.442 179.726 371.123 181.227 371.572 182.97C372.038 184.712 372.271 186.636 372.271 188.741ZM366.034 189.284V188.741C366.034 187.481 365.93 186.299 365.723 185.195C365.516 184.074 365.171 183.09 364.688 182.245C364.222 181.4 363.584 180.736 362.773 180.252C361.979 179.752 360.987 179.502 359.797 179.502C358.693 179.502 357.744 179.692 356.95 180.071C356.157 180.451 355.492 180.968 354.958 181.624C354.423 182.28 354 183.039 353.689 183.901C353.396 184.764 353.198 185.696 353.094 186.696V191.38C353.25 192.674 353.577 193.865 354.078 194.952C354.595 196.021 355.32 196.884 356.251 197.54C357.183 198.178 358.382 198.497 359.849 198.497C361.005 198.497 361.979 198.264 362.773 197.798C363.567 197.333 364.196 196.686 364.662 195.857C365.145 195.012 365.49 194.029 365.697 192.907C365.922 191.786 366.034 190.578 366.034 189.284ZM385.365 199.946L392.974 174.999H399.65L388.419 207.27C388.16 207.96 387.824 208.711 387.41 209.521C386.996 210.332 386.452 211.1 385.779 211.825C385.124 212.567 384.304 213.162 383.321 213.61C382.337 214.076 381.147 214.309 379.75 214.309C379.197 214.309 378.663 214.257 378.145 214.154C377.645 214.068 377.17 213.973 376.722 213.869L376.696 209.107C376.868 209.125 377.075 209.142 377.317 209.159C377.576 209.176 377.783 209.185 377.938 209.185C378.973 209.185 379.836 209.056 380.526 208.797C381.216 208.555 381.777 208.159 382.208 207.606C382.657 207.054 383.036 206.312 383.347 205.381L385.365 199.946ZM381.069 174.999L387.72 195.961L388.833 202.534L384.511 203.647L374.341 174.999H381.069ZM422.657 180.692V203H416.42V174.999H422.294L422.657 180.692ZM421.647 187.964L419.525 187.938C419.525 186.006 419.767 184.221 420.25 182.582C420.733 180.943 421.44 179.519 422.372 178.312C423.304 177.087 424.46 176.146 425.84 175.491C427.237 174.818 428.85 174.481 430.679 174.481C431.956 174.481 433.12 174.671 434.173 175.051C435.243 175.413 436.166 175.991 436.942 176.785C437.736 177.578 438.339 178.596 438.753 179.838C439.185 181.081 439.4 182.582 439.4 184.341V203H433.164V184.885C433.164 183.522 432.957 182.452 432.542 181.676C432.146 180.899 431.568 180.347 430.809 180.02C430.067 179.674 429.178 179.502 428.143 179.502C426.97 179.502 425.969 179.726 425.141 180.175C424.33 180.623 423.666 181.236 423.148 182.012C422.631 182.789 422.251 183.686 422.01 184.704C421.768 185.722 421.647 186.808 421.647 187.964ZM439.012 186.308L436.088 186.955C436.088 185.264 436.321 183.668 436.787 182.167C437.27 180.649 437.968 179.321 438.883 178.182C439.814 177.026 440.962 176.12 442.325 175.465C443.688 174.809 445.249 174.481 447.009 174.481C448.441 174.481 449.717 174.68 450.839 175.077C451.978 175.456 452.944 176.06 453.737 176.888C454.531 177.716 455.135 178.795 455.549 180.123C455.963 181.434 456.17 183.021 456.17 184.885V203H449.907V184.859C449.907 183.444 449.7 182.349 449.286 181.572C448.889 180.796 448.32 180.261 447.578 179.968C446.836 179.657 445.948 179.502 444.913 179.502C443.946 179.502 443.092 179.683 442.351 180.045C441.626 180.39 441.014 180.882 440.513 181.521C440.013 182.142 439.633 182.858 439.375 183.668C439.133 184.479 439.012 185.359 439.012 186.308ZM478.374 197.384V184.031C478.374 183.03 478.193 182.167 477.831 181.443C477.468 180.718 476.916 180.158 476.174 179.761C475.45 179.364 474.535 179.166 473.431 179.166C472.413 179.166 471.533 179.338 470.792 179.683C470.05 180.028 469.472 180.494 469.058 181.081C468.644 181.667 468.437 182.331 468.437 183.073H462.226C462.226 181.969 462.493 180.899 463.028 179.864C463.563 178.829 464.339 177.906 465.357 177.095C466.375 176.284 467.591 175.646 469.006 175.18C470.421 174.714 472.008 174.481 473.768 174.481C475.872 174.481 477.736 174.835 479.357 175.542C480.996 176.25 482.282 177.319 483.213 178.751C484.162 180.166 484.637 181.943 484.637 184.083V196.53C484.637 197.807 484.723 198.954 484.896 199.972C485.085 200.973 485.353 201.844 485.698 202.586V203H479.306C479.012 202.327 478.779 201.473 478.607 200.438C478.452 199.386 478.374 198.368 478.374 197.384ZM479.28 185.972L479.332 189.828H474.854C473.699 189.828 472.681 189.94 471.801 190.164C470.921 190.371 470.188 190.682 469.601 191.096C469.014 191.51 468.575 192.01 468.281 192.597C467.988 193.183 467.841 193.847 467.841 194.589C467.841 195.331 468.014 196.013 468.359 196.634C468.704 197.238 469.204 197.712 469.86 198.057C470.533 198.402 471.344 198.575 472.292 198.575C473.569 198.575 474.682 198.316 475.631 197.798C476.597 197.264 477.356 196.617 477.908 195.857C478.46 195.081 478.754 194.348 478.788 193.658L480.807 196.427C480.6 197.134 480.246 197.893 479.746 198.704C479.245 199.515 478.59 200.291 477.779 201.033C476.985 201.758 476.028 202.353 474.906 202.819C473.802 203.285 472.525 203.518 471.076 203.518C469.247 203.518 467.617 203.155 466.185 202.431C464.753 201.689 463.632 200.697 462.821 199.455C462.01 198.195 461.604 196.772 461.604 195.185C461.604 193.701 461.881 192.39 462.433 191.251C463.002 190.095 463.83 189.129 464.917 188.353C466.021 187.576 467.367 186.99 468.954 186.593C470.541 186.179 472.353 185.972 474.389 185.972H479.28ZM497.343 180.977V203H491.106V174.999H496.981L497.343 180.977ZM496.23 187.964L494.212 187.938C494.229 185.954 494.505 184.134 495.04 182.478C495.592 180.822 496.351 179.398 497.317 178.208C498.301 177.018 499.474 176.103 500.837 175.465C502.2 174.809 503.718 174.481 505.392 174.481C506.737 174.481 507.954 174.671 509.041 175.051C510.145 175.413 511.085 176.008 511.861 176.836C512.655 177.665 513.259 178.743 513.673 180.071C514.087 181.382 514.294 182.996 514.294 184.911V203H508.031V184.885C508.031 183.539 507.833 182.478 507.436 181.702C507.056 180.908 506.496 180.347 505.754 180.02C505.029 179.674 504.124 179.502 503.037 179.502C501.967 179.502 501.009 179.726 500.164 180.175C499.319 180.623 498.603 181.236 498.016 182.012C497.447 182.789 497.007 183.686 496.696 184.704C496.386 185.722 496.23 186.808 496.23 187.964ZM537.507 196.401V174.999H543.77V203H537.87L537.507 196.401ZM538.387 190.578L540.483 190.526C540.483 192.407 540.276 194.141 539.862 195.728C539.448 197.298 538.81 198.67 537.947 199.843C537.085 200.999 535.98 201.904 534.635 202.56C533.289 203.198 531.676 203.518 529.795 203.518C528.432 203.518 527.182 203.319 526.043 202.922C524.904 202.526 523.921 201.913 523.093 201.085C522.282 200.257 521.652 199.179 521.204 197.85C520.755 196.522 520.531 194.934 520.531 193.088V174.999H526.768V193.14C526.768 194.158 526.888 195.012 527.13 195.702C527.371 196.375 527.699 196.918 528.113 197.333C528.527 197.747 529.01 198.04 529.562 198.212C530.115 198.385 530.701 198.471 531.322 198.471C533.099 198.471 534.497 198.126 535.515 197.436C536.55 196.729 537.283 195.78 537.714 194.589C538.163 193.399 538.387 192.062 538.387 190.578ZM558.599 203H552.362V172.308C552.362 170.22 552.75 168.469 553.526 167.054C554.32 165.622 555.45 164.544 556.917 163.819C558.383 163.077 560.117 162.707 562.118 162.707C562.739 162.707 563.352 162.75 563.956 162.836C564.559 162.905 565.146 163.017 565.715 163.172L565.56 167.986C565.215 167.9 564.835 167.839 564.421 167.805C564.025 167.77 563.593 167.753 563.127 167.753C562.179 167.753 561.359 167.934 560.669 168.296C559.996 168.641 559.479 169.15 559.116 169.823C558.771 170.496 558.599 171.324 558.599 172.308V203ZM564.37 174.999V179.554H548.066V174.999H564.37ZM584.685 197.384V184.031C584.685 183.03 584.503 182.167 584.141 181.443C583.779 180.718 583.227 180.158 582.485 179.761C581.76 179.364 580.846 179.166 579.742 179.166C578.724 179.166 577.844 179.338 577.102 179.683C576.36 180.028 575.782 180.494 575.368 181.081C574.954 181.667 574.747 182.331 574.747 183.073H568.536C568.536 181.969 568.804 180.899 569.338 179.864C569.873 178.829 570.65 177.906 571.667 177.095C572.685 176.284 573.902 175.646 575.316 175.18C576.731 174.714 578.318 174.481 580.078 174.481C582.183 174.481 584.046 174.835 585.668 175.542C587.307 176.25 588.592 177.319 589.524 178.751C590.473 180.166 590.947 181.943 590.947 184.083V196.53C590.947 197.807 591.034 198.954 591.206 199.972C591.396 200.973 591.663 201.844 592.008 202.586V203H585.616C585.323 202.327 585.09 201.473 584.917 200.438C584.762 199.386 584.685 198.368 584.685 197.384ZM585.59 185.972L585.642 189.828H581.165C580.009 189.828 578.991 189.94 578.111 190.164C577.231 190.371 576.498 190.682 575.912 191.096C575.325 191.51 574.885 192.01 574.592 192.597C574.299 193.183 574.152 193.847 574.152 194.589C574.152 195.331 574.324 196.013 574.669 196.634C575.014 197.238 575.515 197.712 576.17 198.057C576.843 198.402 577.654 198.575 578.603 198.575C579.88 198.575 580.993 198.316 581.941 197.798C582.908 197.264 583.667 196.617 584.219 195.857C584.771 195.081 585.064 194.348 585.099 193.658L587.117 196.427C586.91 197.134 586.556 197.893 586.056 198.704C585.556 199.515 584.9 200.291 584.089 201.033C583.296 201.758 582.338 202.353 581.217 202.819C580.113 203.285 578.836 203.518 577.387 203.518C575.558 203.518 573.928 203.155 572.496 202.431C571.064 201.689 569.942 200.697 569.131 199.455C568.32 198.195 567.915 196.772 567.915 195.185C567.915 193.701 568.191 192.39 568.743 191.251C569.312 190.095 570.141 189.129 571.228 188.353C572.332 187.576 573.677 186.99 575.265 186.593C576.852 186.179 578.663 185.972 580.699 185.972H585.59ZM608.907 198.549C609.925 198.549 610.84 198.35 611.65 197.954C612.479 197.54 613.143 196.97 613.643 196.246C614.161 195.521 614.445 194.684 614.497 193.735H620.372C620.337 195.547 619.802 197.194 618.767 198.678C617.732 200.162 616.36 201.344 614.652 202.224C612.944 203.086 611.055 203.518 608.985 203.518C606.846 203.518 604.982 203.155 603.395 202.431C601.808 201.689 600.488 200.671 599.436 199.377C598.383 198.083 597.59 196.591 597.055 194.9C596.537 193.209 596.278 191.398 596.278 189.465V188.56C596.278 186.627 596.537 184.816 597.055 183.125C597.59 181.417 598.383 179.916 599.436 178.622C600.488 177.328 601.808 176.319 603.395 175.594C604.982 174.852 606.837 174.481 608.959 174.481C611.202 174.481 613.169 174.93 614.859 175.827C616.55 176.707 617.879 177.941 618.845 179.528C619.828 181.098 620.337 182.927 620.372 185.014H614.497C614.445 183.979 614.187 183.047 613.721 182.219C613.272 181.374 612.634 180.701 611.806 180.201C610.995 179.7 610.02 179.45 608.881 179.45C607.622 179.45 606.578 179.709 605.75 180.227C604.922 180.727 604.275 181.417 603.809 182.297C603.343 183.16 603.007 184.134 602.8 185.221C602.61 186.291 602.515 187.404 602.515 188.56V189.465C602.515 190.621 602.61 191.743 602.8 192.83C602.99 193.917 603.317 194.891 603.783 195.754C604.266 196.599 604.922 197.281 605.75 197.798C606.578 198.299 607.631 198.549 608.907 198.549ZM637.995 174.999V179.554H622.209V174.999H637.995ZM626.764 168.141H633V195.262C633 196.125 633.121 196.789 633.363 197.255C633.622 197.703 633.975 198.005 634.424 198.161C634.872 198.316 635.399 198.394 636.002 198.394C636.434 198.394 636.848 198.368 637.245 198.316C637.641 198.264 637.961 198.212 638.202 198.161L638.228 202.922C637.71 203.078 637.107 203.216 636.417 203.336C635.744 203.457 634.967 203.518 634.087 203.518C632.655 203.518 631.387 203.267 630.283 202.767C629.179 202.25 628.316 201.413 627.695 200.257C627.074 199.101 626.764 197.565 626.764 195.65V168.141ZM659.656 196.401V174.999H665.918V203H660.018L659.656 196.401ZM660.536 190.578L662.632 190.526C662.632 192.407 662.425 194.141 662.011 195.728C661.597 197.298 660.958 198.67 660.096 199.843C659.233 200.999 658.129 201.904 656.783 202.56C655.438 203.198 653.824 203.518 651.944 203.518C650.581 203.518 649.33 203.319 648.191 202.922C647.053 202.526 646.069 201.913 645.241 201.085C644.43 200.257 643.801 199.179 643.352 197.85C642.903 196.522 642.679 194.934 642.679 193.088V174.999H648.916V193.14C648.916 194.158 649.037 195.012 649.278 195.702C649.52 196.375 649.848 196.918 650.262 197.333C650.676 197.747 651.159 198.04 651.711 198.212C652.263 198.385 652.85 198.471 653.471 198.471C655.248 198.471 656.645 198.126 657.663 197.436C658.698 196.729 659.431 195.78 659.863 194.589C660.311 193.399 660.536 192.062 660.536 190.578ZM678.573 180.33V203H672.336V174.999H678.289L678.573 180.33ZM687.139 174.818L687.087 180.615C686.708 180.546 686.294 180.494 685.845 180.459C685.414 180.425 684.983 180.408 684.551 180.408C683.482 180.408 682.541 180.563 681.73 180.874C680.92 181.167 680.238 181.598 679.686 182.167C679.151 182.72 678.737 183.392 678.444 184.186C678.151 184.98 677.978 185.868 677.926 186.852L676.503 186.955C676.503 185.195 676.675 183.565 677.021 182.064C677.366 180.563 677.883 179.243 678.573 178.104C679.281 176.966 680.16 176.077 681.213 175.439C682.283 174.801 683.516 174.481 684.914 174.481C685.293 174.481 685.699 174.516 686.13 174.585C686.578 174.654 686.915 174.732 687.139 174.818ZM702.874 203.518C700.803 203.518 698.931 203.181 697.258 202.508C695.602 201.818 694.187 200.861 693.014 199.636C691.858 198.411 690.969 196.97 690.348 195.314C689.727 193.658 689.417 191.872 689.417 189.957V188.922C689.417 186.731 689.736 184.747 690.374 182.97C691.012 181.193 691.901 179.674 693.04 178.415C694.178 177.138 695.524 176.164 697.077 175.491C698.629 174.818 700.312 174.481 702.123 174.481C704.124 174.481 705.875 174.818 707.376 175.491C708.877 176.164 710.12 177.112 711.103 178.337C712.104 179.545 712.846 180.986 713.329 182.659C713.829 184.333 714.079 186.179 714.079 188.197V190.863H692.444V186.386H707.92V185.894C707.885 184.773 707.661 183.72 707.247 182.737C706.85 181.753 706.238 180.96 705.41 180.356C704.582 179.752 703.477 179.45 702.097 179.45C701.062 179.45 700.139 179.674 699.328 180.123C698.535 180.554 697.87 181.184 697.335 182.012C696.801 182.84 696.387 183.841 696.093 185.014C695.817 186.17 695.679 187.473 695.679 188.922V189.957C695.679 191.182 695.843 192.321 696.171 193.373C696.516 194.408 697.016 195.314 697.672 196.09C698.327 196.867 699.121 197.479 700.053 197.928C700.984 198.359 702.045 198.575 703.236 198.575C704.737 198.575 706.074 198.273 707.247 197.669C708.42 197.065 709.438 196.211 710.301 195.107L713.587 198.29C712.984 199.17 712.199 200.015 711.232 200.826C710.266 201.62 709.084 202.267 707.687 202.767C706.307 203.267 704.702 203.518 702.874 203.518ZM725.207 180.33V203H718.97V174.999H724.922L725.207 180.33ZM733.773 174.818L733.721 180.615C733.342 180.546 732.928 180.494 732.479 180.459C732.048 180.425 731.616 180.408 731.185 180.408C730.115 180.408 729.175 180.563 728.364 180.874C727.553 181.167 726.872 181.598 726.32 182.167C725.785 182.72 725.371 183.392 725.078 184.186C724.784 184.98 724.612 185.868 724.56 186.852L723.137 186.955C723.137 185.195 723.309 183.565 723.654 182.064C723.999 180.563 724.517 179.243 725.207 178.104C725.914 176.966 726.794 176.077 727.847 175.439C728.916 174.801 730.15 174.481 731.547 174.481C731.927 174.481 732.332 174.516 732.764 174.585C733.212 174.654 733.549 174.732 733.773 174.818Z" fill="#FFA229"/>
</g>
<defs>
<linearGradient id="paint0_linear_52_486" x1="33.7929" y1="706.342" x2="89.0075" y2="703.772" gradientUnits="userSpaceOnUse">
<stop offset="1e-07" stop-color="#F6A285"/>
<stop offset="1" stop-color="#FC6B58"/>
</linearGradient>
<linearGradient id="paint1_linear_52_486" x1="104.63" y1="504.235" x2="136.792" y2="502.738" gradientUnits="userSpaceOnUse">
<stop offset="1e-07" stop-color="#F6A285"/>
<stop offset="1" stop-color="#FC6B58"/>
</linearGradient>
<linearGradient id="paint2_linear_52_486" x1="191.254" y1="461.275" x2="52.6474" y2="466.852" gradientUnits="userSpaceOnUse">
<stop offset="1e-07" stop-color="#FDE0BB"/>
<stop offset="1" stop-color="#FC6B58"/>
</linearGradient>
<linearGradient id="paint3_linear_52_486" x1="796.776" y1="599.309" x2="693.523" y2="590.678" gradientUnits="userSpaceOnUse">
<stop offset="1e-07" stop-color="#F6A285"/>
<stop offset="1" stop-color="#FC6B58"/>
</linearGradient>
<linearGradient id="paint4_linear_52_486" x1="964.605" y1="665.235" x2="843.656" y2="665.235" gradientUnits="userSpaceOnUse">
<stop offset="1e-07" stop-color="#F6A285"/>
<stop offset="1" stop-color="#FC6B58"/>
</linearGradient>
<linearGradient id="paint5_linear_52_486" x1="801.414" y1="471.615" x2="941.375" y2="470.733" gradientUnits="userSpaceOnUse">
<stop offset="1e-07" stop-color="#FDE0BB"/>
<stop offset="1" stop-color="#FC6B58"/>
</linearGradient>
<clipPath id="clip0_52_486">
<rect width="1000" height="1233" fill="white"/>
</clipPath>
</defs>
</svg>
