<svg width="938" height="1382" viewBox="0 0 938 1382" fill="none" xmlns="http://www.w3.org/2000/svg">
<rect width="938" height="1382" fill="#EDE3E3"/>
<g filter="url(#filter0_d_816_4053)">
<path fill-rule="evenodd" clip-rule="evenodd" d="M881.98 1111C893.033 1111 901.991 1119.97 901.98 1131.02L901.805 1302.02C901.794 1313.06 892.843 1322 881.805 1322H750.475H63C51.9543 1322 43 1313.05 43 1302V1131C43 1119.95 51.9543 1111 63 1111H881.98Z" fill="white"/>
</g>
<path d="M416.754 1187.97V1242H406.549V1187.97H416.754ZM438.537 1211.31V1219.36H414.082V1211.31H438.537ZM441.395 1187.97V1196.02H414.082V1187.97H441.395ZM445.031 1222.33V1221.55C445.031 1218.61 445.452 1215.9 446.293 1213.43C447.134 1210.93 448.359 1208.76 449.967 1206.93C451.575 1205.1 453.542 1203.68 455.867 1202.66C458.193 1201.62 460.84 1201.11 463.809 1201.11C466.827 1201.11 469.499 1201.62 471.824 1202.66C474.174 1203.68 476.154 1205.1 477.762 1206.93C479.37 1208.76 480.594 1210.93 481.436 1213.43C482.277 1215.9 482.697 1218.61 482.697 1221.55V1222.33C482.697 1225.25 482.277 1227.96 481.436 1230.46C480.594 1232.93 479.37 1235.1 477.762 1236.95C476.154 1238.78 474.187 1240.21 471.861 1241.22C469.536 1242.24 466.876 1242.74 463.883 1242.74C460.914 1242.74 458.255 1242.24 455.904 1241.22C453.554 1240.21 451.575 1238.78 449.967 1236.95C448.359 1235.1 447.134 1232.93 446.293 1230.46C445.452 1227.96 445.031 1225.25 445.031 1222.33ZM454.828 1221.55V1222.33C454.828 1224.09 455.001 1225.73 455.348 1227.27C455.694 1228.8 456.226 1230.15 456.943 1231.31C457.661 1232.48 458.589 1233.39 459.727 1234.06C460.889 1234.7 462.275 1235.02 463.883 1235.02C465.466 1235.02 466.827 1234.7 467.965 1234.06C469.103 1233.39 470.031 1232.48 470.748 1231.31C471.49 1230.15 472.035 1228.8 472.381 1227.27C472.727 1225.73 472.9 1224.09 472.9 1222.33V1221.55C472.9 1219.82 472.727 1218.2 472.381 1216.69C472.035 1215.16 471.49 1213.81 470.748 1212.65C470.031 1211.46 469.09 1210.53 467.928 1209.86C466.79 1209.17 465.417 1208.82 463.809 1208.82C462.225 1208.82 460.865 1209.17 459.727 1209.86C458.589 1210.53 457.661 1211.46 456.943 1212.65C456.226 1213.81 455.694 1215.16 455.348 1216.69C455.001 1218.2 454.828 1219.82 454.828 1221.55ZM499.619 1210.05V1242H489.822V1201.85H499.1L499.619 1210.05ZM511.828 1201.59L511.68 1210.72C511.135 1210.62 510.517 1210.54 509.824 1210.49C509.156 1210.44 508.525 1210.42 507.932 1210.42C506.423 1210.42 505.099 1210.63 503.961 1211.05C502.823 1211.45 501.87 1212.03 501.104 1212.79C500.361 1213.56 499.792 1214.5 499.396 1215.62C499.001 1216.7 498.778 1217.94 498.729 1219.33L496.613 1219.07C496.613 1216.52 496.873 1214.16 497.393 1211.98C497.912 1209.8 498.667 1207.9 499.656 1206.26C500.646 1204.63 501.883 1203.37 503.367 1202.48C504.876 1201.56 506.608 1201.11 508.562 1201.11C509.107 1201.11 509.688 1201.15 510.307 1201.25C510.95 1201.33 511.457 1201.44 511.828 1201.59ZM526.969 1210.09V1242H517.172V1201.85H526.412L526.969 1210.09ZM525.521 1220.48H522.516C522.516 1217.68 522.85 1215.11 523.518 1212.76C524.21 1210.41 525.225 1208.37 526.561 1206.63C527.896 1204.88 529.542 1203.52 531.496 1202.55C533.475 1201.59 535.764 1201.11 538.361 1201.11C540.167 1201.11 541.825 1201.38 543.334 1201.92C544.843 1202.44 546.142 1203.27 547.23 1204.41C548.344 1205.52 549.197 1206.98 549.791 1208.79C550.385 1210.57 550.682 1212.71 550.682 1215.21V1242H540.885V1216.21C540.885 1214.33 540.613 1212.86 540.068 1211.79C539.549 1210.73 538.794 1209.99 537.805 1209.57C536.815 1209.12 535.628 1208.9 534.242 1208.9C532.708 1208.9 531.385 1209.21 530.271 1209.83C529.183 1210.42 528.28 1211.25 527.562 1212.31C526.87 1213.38 526.35 1214.6 526.004 1215.99C525.682 1217.37 525.521 1218.87 525.521 1220.48ZM549.939 1218.66L545.895 1219.4C545.919 1216.88 546.266 1214.51 546.934 1212.31C547.602 1210.09 548.579 1208.14 549.865 1206.49C551.176 1204.8 552.797 1203.49 554.727 1202.55C556.681 1201.59 558.932 1201.11 561.48 1201.11C563.46 1201.11 565.241 1201.39 566.824 1201.96C568.432 1202.5 569.805 1203.38 570.943 1204.59C572.081 1205.78 572.947 1207.33 573.541 1209.23C574.16 1211.14 574.469 1213.46 574.469 1216.21V1242H564.598V1216.17C564.598 1214.22 564.326 1212.72 563.781 1211.68C563.262 1210.64 562.507 1209.93 561.518 1209.53C560.528 1209.11 559.365 1208.9 558.029 1208.9C556.669 1208.9 555.481 1209.16 554.467 1209.68C553.477 1210.17 552.636 1210.87 551.943 1211.76C551.275 1212.65 550.768 1213.69 550.422 1214.87C550.1 1216.04 549.939 1217.3 549.939 1218.66ZM638.26 1234.28V1242H601.67V1235.39L619.223 1216.43C621.053 1214.35 622.501 1212.55 623.564 1211.01C624.628 1209.48 625.383 1208.09 625.828 1206.86C626.298 1205.6 626.533 1204.4 626.533 1203.26C626.533 1201.6 626.236 1200.15 625.643 1198.92C625.049 1197.65 624.183 1196.68 623.045 1195.98C621.932 1195.29 620.559 1194.95 618.926 1194.95C617.12 1194.95 615.574 1195.37 614.287 1196.21C613.025 1197.02 612.061 1198.16 611.393 1199.62C610.749 1201.08 610.428 1202.75 610.428 1204.63H600.594C600.594 1201.44 601.336 1198.53 602.82 1195.91C604.305 1193.26 606.432 1191.15 609.203 1189.56C611.974 1187.98 615.264 1187.19 619.074 1187.19C622.785 1187.19 625.927 1187.81 628.5 1189.04C631.073 1190.26 633.027 1191.99 634.363 1194.24C635.699 1196.49 636.367 1199.18 636.367 1202.29C636.367 1204.02 636.083 1205.73 635.514 1207.41C634.945 1209.1 634.141 1210.77 633.102 1212.42C632.087 1214.06 630.875 1215.71 629.465 1217.4C628.055 1219.08 626.484 1220.8 624.752 1222.55L614.213 1234.28H638.26ZM672.363 1187.52H673.699V1195.43H673.068C670.075 1195.43 667.44 1195.89 665.164 1196.8C662.913 1197.72 661.033 1199 659.523 1200.66C658.039 1202.29 656.913 1204.24 656.146 1206.49C655.38 1208.71 654.996 1211.15 654.996 1213.8V1222.55C654.996 1224.61 655.206 1226.41 655.627 1227.97C656.072 1229.51 656.678 1230.81 657.445 1231.87C658.237 1232.91 659.152 1233.69 660.191 1234.21C661.255 1234.73 662.418 1234.99 663.68 1234.99C664.941 1234.99 666.079 1234.73 667.094 1234.21C668.108 1233.69 668.974 1232.96 669.691 1232.02C670.434 1231.05 670.99 1229.93 671.361 1228.64C671.757 1227.35 671.955 1225.94 671.955 1224.41C671.955 1222.9 671.77 1221.5 671.398 1220.22C671.027 1218.93 670.483 1217.8 669.766 1216.84C669.048 1215.85 668.158 1215.1 667.094 1214.58C666.055 1214.03 664.867 1213.76 663.531 1213.76C661.799 1213.76 660.253 1214.17 658.893 1214.98C657.532 1215.78 656.456 1216.82 655.664 1218.1C654.872 1219.39 654.439 1220.75 654.365 1222.18L651.062 1220.55C651.186 1218.45 651.632 1216.52 652.398 1214.76C653.19 1213.01 654.242 1211.47 655.553 1210.16C656.889 1208.85 658.46 1207.83 660.266 1207.12C662.096 1206.4 664.125 1206.04 666.352 1206.04C668.924 1206.04 671.176 1206.54 673.105 1207.53C675.035 1208.49 676.631 1209.81 677.893 1211.5C679.179 1213.18 680.144 1215.12 680.787 1217.32C681.43 1219.5 681.752 1221.8 681.752 1224.22C681.752 1226.82 681.331 1229.25 680.49 1231.5C679.674 1233.75 678.486 1235.72 676.928 1237.4C675.369 1239.08 673.489 1240.39 671.287 1241.33C669.085 1242.27 666.611 1242.74 663.865 1242.74C660.971 1242.74 658.373 1242.2 656.072 1241.11C653.796 1240.02 651.842 1238.51 650.209 1236.58C648.576 1234.65 647.327 1232.4 646.461 1229.83C645.595 1227.26 645.162 1224.47 645.162 1221.48V1217.54C645.162 1213.31 645.743 1209.38 646.906 1205.74C648.069 1202.11 649.788 1198.93 652.064 1196.21C654.365 1193.46 657.21 1191.33 660.6 1189.82C663.989 1188.29 667.91 1187.52 672.363 1187.52Z" fill="#1C4670"/>
<path d="M180 1111V1364H71.196C51.227 1364 35 1341.31 35 1313.31V1111H180Z" fill="url(#paint0_linear_816_4053)"/>
<path d="M179.75 1262H71.036C91.0348 1262 107.25 1284.92 107.25 1313C107.25 1341.08 90.9988 1364 71 1364H179.75C199.785 1364 216 1341.12 216 1313C216 1284.88 199.641 1262 179.75 1262Z" fill="url(#paint1_linear_816_4053)"/>
<path d="M110 1183.23C110 1201.48 102.566 1214 87.304 1214C72.0423 1214 65.1084 1200.31 65.0011 1183.59C64.8939 1166.86 72.3639 1153 87.7686 1153C103.745 1153 110 1167.07 110 1183.23ZM79.0477 1183.59C79.0477 1197.13 82.2644 1203.57 87.6972 1203.57C93.1299 1203.57 96.025 1196.85 96.025 1183.41C96.025 1169.97 93.2014 1163.43 87.59 1163.43C81.9785 1163.43 78.9762 1169.76 79.0477 1183.59Z" fill="white"/>
<path d="M154.691 1165.35H131.701L130.422 1174.43C131.695 1174.28 132.977 1174.22 134.259 1174.26C139.77 1174.07 145.209 1175.55 149.859 1178.5C152.216 1180.16 154.106 1182.39 155.35 1184.98C156.594 1187.58 157.15 1190.44 156.965 1193.31C156.965 1204.3 147.478 1213.99 131.523 1213.99C125.831 1214.13 120.181 1212.98 115 1210.63L117.452 1200.31C121.686 1202.17 126.255 1203.16 130.884 1203.21C136.604 1203.21 142.716 1200.48 142.716 1194.23C142.716 1187.97 137.884 1184.4 126.051 1184.4C123.363 1184.36 120.676 1184.55 118.02 1184.97L121.929 1154H154.585L154.691 1165.35Z" fill="white"/>
<path d="M110 1183.23C110 1201.48 102.566 1214 87.304 1214C72.0423 1214 65.1084 1200.31 65.0011 1183.59C64.8939 1166.86 72.3639 1153 87.7686 1153C103.745 1153 110 1167.07 110 1183.23ZM79.0477 1183.59C79.0477 1197.13 82.2644 1203.57 87.6972 1203.57C93.1299 1203.57 96.025 1196.85 96.025 1183.41C96.025 1169.97 93.2014 1163.43 87.59 1163.43C81.9785 1163.43 78.9762 1169.76 79.0477 1183.59Z" fill="white"/>
<path d="M154.691 1165.35H131.701L130.422 1174.43C131.695 1174.28 132.977 1174.22 134.259 1174.26C139.77 1174.07 145.209 1175.55 149.859 1178.5C152.216 1180.16 154.106 1182.39 155.35 1184.98C156.594 1187.58 157.15 1190.44 156.965 1193.31C156.965 1204.3 147.478 1213.99 131.523 1213.99C125.831 1214.13 120.181 1212.98 115 1210.63L117.452 1200.31C121.686 1202.17 126.255 1203.16 130.884 1203.21C136.604 1203.21 142.716 1200.48 142.716 1194.23C142.716 1187.97 137.884 1184.4 126.051 1184.4C123.363 1184.36 120.676 1184.55 118.02 1184.97L121.929 1154H154.585L154.691 1165.35Z" fill="white"/>
<g filter="url(#filter1_d_816_4053)">
<path fill-rule="evenodd" clip-rule="evenodd" d="M881.98 845C893.033 845 901.991 853.967 901.98 865.02L901.805 1036.02C901.794 1047.06 892.843 1056 881.805 1056H750.475H63C51.9543 1056 43 1047.05 43 1036V865C43 853.954 51.9543 845 63 845H881.98Z" fill="white"/>
</g>
<path d="M438.463 921.969V976H428.258V921.969H438.463ZM460.246 945.311V953.363H435.791V945.311H460.246ZM463.104 921.969V930.021H435.791V921.969H463.104ZM466.74 956.332V955.553C466.74 952.609 467.161 949.9 468.002 947.426C468.843 944.927 470.068 942.762 471.676 940.932C473.284 939.101 475.251 937.678 477.576 936.664C479.902 935.625 482.549 935.105 485.518 935.105C488.536 935.105 491.208 935.625 493.533 936.664C495.883 937.678 497.863 939.101 499.471 940.932C501.079 942.762 502.303 944.927 503.145 947.426C503.986 949.9 504.406 952.609 504.406 955.553V956.332C504.406 959.251 503.986 961.96 503.145 964.459C502.303 966.933 501.079 969.098 499.471 970.953C497.863 972.784 495.896 974.206 493.57 975.221C491.245 976.235 488.585 976.742 485.592 976.742C482.623 976.742 479.964 976.235 477.613 975.221C475.263 974.206 473.284 972.784 471.676 970.953C470.068 969.098 468.843 966.933 468.002 964.459C467.161 961.96 466.74 959.251 466.74 956.332ZM476.537 955.553V956.332C476.537 958.089 476.71 959.734 477.057 961.268C477.403 962.801 477.935 964.15 478.652 965.312C479.37 966.475 480.298 967.391 481.436 968.059C482.598 968.702 483.984 969.023 485.592 969.023C487.175 969.023 488.536 968.702 489.674 968.059C490.812 967.391 491.74 966.475 492.457 965.312C493.199 964.15 493.743 962.801 494.09 961.268C494.436 959.734 494.609 958.089 494.609 956.332V955.553C494.609 953.821 494.436 952.201 494.09 950.691C493.743 949.158 493.199 947.809 492.457 946.646C491.74 945.459 490.799 944.531 489.637 943.863C488.499 943.171 487.126 942.824 485.518 942.824C483.934 942.824 482.574 943.171 481.436 943.863C480.298 944.531 479.37 945.459 478.652 946.646C477.935 947.809 477.403 949.158 477.057 950.691C476.71 952.201 476.537 953.821 476.537 955.553ZM521.328 944.049V976H511.531V935.848H520.809L521.328 944.049ZM533.537 935.588L533.389 944.717C532.844 944.618 532.226 944.544 531.533 944.494C530.865 944.445 530.234 944.42 529.641 944.42C528.132 944.42 526.808 944.63 525.67 945.051C524.532 945.447 523.579 946.028 522.812 946.795C522.07 947.562 521.501 948.502 521.105 949.615C520.71 950.704 520.487 951.941 520.438 953.326L518.322 953.066C518.322 950.518 518.582 948.156 519.102 945.979C519.621 943.801 520.376 941.896 521.365 940.264C522.355 938.631 523.592 937.369 525.076 936.479C526.585 935.563 528.317 935.105 530.271 935.105C530.816 935.105 531.397 935.155 532.016 935.254C532.659 935.328 533.166 935.439 533.537 935.588ZM548.678 944.086V976H538.881V935.848H548.121L548.678 944.086ZM547.23 954.477H544.225C544.225 951.681 544.559 949.108 545.227 946.758C545.919 944.408 546.934 942.367 548.27 940.635C549.605 938.878 551.251 937.518 553.205 936.553C555.184 935.588 557.473 935.105 560.07 935.105C561.876 935.105 563.534 935.378 565.043 935.922C566.552 936.441 567.851 937.27 568.939 938.408C570.053 939.521 570.906 940.981 571.5 942.787C572.094 944.568 572.391 946.708 572.391 949.207V976H562.594V950.209C562.594 948.329 562.322 946.857 561.777 945.793C561.258 944.729 560.503 943.987 559.514 943.566C558.524 943.121 557.337 942.898 555.951 942.898C554.417 942.898 553.094 943.208 551.98 943.826C550.892 944.42 549.989 945.249 549.271 946.312C548.579 947.376 548.059 948.601 547.713 949.986C547.391 951.372 547.23 952.868 547.23 954.477ZM571.648 952.658L567.604 953.4C567.628 950.877 567.975 948.514 568.643 946.312C569.311 944.086 570.288 942.144 571.574 940.486C572.885 938.804 574.506 937.493 576.436 936.553C578.39 935.588 580.641 935.105 583.189 935.105C585.169 935.105 586.95 935.39 588.533 935.959C590.141 936.503 591.514 937.382 592.652 938.594C593.79 939.781 594.656 941.327 595.25 943.232C595.868 945.137 596.178 947.463 596.178 950.209V976H586.307V950.172C586.307 948.217 586.035 946.721 585.49 945.682C584.971 944.643 584.216 943.925 583.227 943.529C582.237 943.109 581.074 942.898 579.738 942.898C578.378 942.898 577.19 943.158 576.176 943.678C575.186 944.173 574.345 944.865 573.652 945.756C572.984 946.646 572.477 947.686 572.131 948.873C571.809 950.036 571.648 951.298 571.648 952.658ZM633.102 951.137L625.271 949.244L628.277 921.969H658.002V930.096H636.404L634.994 942.713C635.761 942.243 636.874 941.773 638.334 941.303C639.818 940.808 641.488 940.561 643.344 940.561C645.917 940.561 648.217 940.981 650.246 941.822C652.275 942.639 653.994 943.826 655.404 945.385C656.839 946.943 657.915 948.848 658.633 951.1C659.375 953.326 659.746 955.85 659.746 958.67C659.746 961.144 659.375 963.469 658.633 965.646C657.915 967.799 656.814 969.716 655.33 971.398C653.846 973.056 651.978 974.367 649.727 975.332C647.475 976.272 644.828 976.742 641.785 976.742C639.484 976.742 637.27 976.408 635.143 975.74C633.04 975.048 631.147 974.046 629.465 972.734C627.783 971.398 626.434 969.766 625.42 967.836C624.43 965.906 623.886 963.692 623.787 961.193H633.473C633.646 962.851 634.091 964.261 634.809 965.424C635.526 966.587 636.466 967.477 637.629 968.096C638.816 968.714 640.189 969.023 641.748 969.023C643.158 969.023 644.37 968.764 645.385 968.244C646.424 967.7 647.277 966.945 647.945 965.98C648.613 965.016 649.108 963.878 649.43 962.566C649.751 961.255 649.912 959.82 649.912 958.262C649.912 956.753 649.727 955.38 649.355 954.143C648.984 952.881 648.415 951.792 647.648 950.877C646.882 949.962 645.917 949.257 644.754 948.762C643.616 948.267 642.28 948.02 640.746 948.02C638.693 948.02 637.109 948.329 635.996 948.947C634.908 949.566 633.943 950.296 633.102 951.137Z" fill="#1C4670"/>
<path d="M180 845V1098H71.196C51.227 1098 35 1075.31 35 1047.31V845H180Z" fill="url(#paint2_linear_816_4053)"/>
<path d="M179.75 996H71.036C91.0348 996 107.25 1018.89 107.25 1046.98C107.25 1075.08 90.9988 1098 71 1098H179.75C199.785 1098 216 1075.11 216 1046.98C216 1018.85 199.641 996 179.75 996Z" fill="url(#paint3_linear_816_4053)"/>
<path d="M110 917.217C110 935.454 102.566 948 87.304 948C72.0423 948 65.1084 934.287 65.0011 917.571C64.8939 900.854 72.3639 887 87.7686 887C103.745 887 110 901.066 110 917.217ZM79.0477 917.571C79.0477 931.107 82.2644 937.539 87.6972 937.539C93.1299 937.539 96.025 930.824 96.025 917.394C96.025 903.964 93.2014 897.426 87.59 897.426C81.9785 897.426 78.9762 903.893 79.0477 917.571Z" fill="white"/>
<path d="M140.57 947.929V933.806H114V924.908L136.692 889H153.819V923.567H161V933.877H153.819V948L140.57 947.929ZM140.57 923.567V910.503C140.57 906.972 140.749 903.441 141.001 899.522H140.642C138.703 903.335 137.051 906.795 135.112 910.503L127.105 923.39V923.567H140.57Z" fill="white"/>
<path d="M110 917.217C110 935.454 102.566 948 87.304 948C72.0423 948 65.1084 934.287 65.0011 917.571C64.8939 900.854 72.3639 887 87.7686 887C103.745 887 110 901.066 110 917.217ZM79.0477 917.571C79.0477 931.107 82.2644 937.539 87.6972 937.539C93.1299 937.539 96.025 930.824 96.025 917.394C96.025 903.964 93.2014 897.426 87.59 897.426C81.9785 897.426 78.9762 903.893 79.0477 917.571Z" fill="white"/>
<path d="M140.57 947.929V933.806H114V924.908L136.692 889H153.819V923.567H161V933.877H153.819V948L140.57 947.929ZM140.57 923.567V910.503C140.57 906.972 140.749 903.441 141.001 899.522H140.642C138.703 903.335 137.051 906.795 135.112 910.503L127.105 923.39V923.567H140.57Z" fill="white"/>
<g filter="url(#filter2_d_816_4053)">
<path fill-rule="evenodd" clip-rule="evenodd" d="M881.979 580C893.033 580 901.991 588.967 901.979 600.021L901.805 770.021C901.794 781.058 892.843 790 881.805 790H750.475H63C51.9543 790 43 781.046 43 770V600C43 588.954 51.9543 580 63 580H881.979Z" fill="white"/>
</g>
<path d="M438.463 655.969V710H428.258V655.969H438.463ZM460.246 679.311V687.363H435.791V679.311H460.246ZM463.104 655.969V664.021H435.791V655.969H463.104ZM466.74 690.332V689.553C466.74 686.609 467.161 683.9 468.002 681.426C468.843 678.927 470.068 676.762 471.676 674.932C473.284 673.101 475.251 671.678 477.576 670.664C479.902 669.625 482.549 669.105 485.518 669.105C488.536 669.105 491.208 669.625 493.533 670.664C495.883 671.678 497.863 673.101 499.471 674.932C501.079 676.762 502.303 678.927 503.145 681.426C503.986 683.9 504.406 686.609 504.406 689.553V690.332C504.406 693.251 503.986 695.96 503.145 698.459C502.303 700.933 501.079 703.098 499.471 704.953C497.863 706.784 495.896 708.206 493.57 709.221C491.245 710.235 488.585 710.742 485.592 710.742C482.623 710.742 479.964 710.235 477.613 709.221C475.263 708.206 473.284 706.784 471.676 704.953C470.068 703.098 468.843 700.933 468.002 698.459C467.161 695.96 466.74 693.251 466.74 690.332ZM476.537 689.553V690.332C476.537 692.089 476.71 693.734 477.057 695.268C477.403 696.801 477.935 698.15 478.652 699.312C479.37 700.475 480.298 701.391 481.436 702.059C482.598 702.702 483.984 703.023 485.592 703.023C487.175 703.023 488.536 702.702 489.674 702.059C490.812 701.391 491.74 700.475 492.457 699.312C493.199 698.15 493.743 696.801 494.09 695.268C494.436 693.734 494.609 692.089 494.609 690.332V689.553C494.609 687.821 494.436 686.201 494.09 684.691C493.743 683.158 493.199 681.809 492.457 680.646C491.74 679.459 490.799 678.531 489.637 677.863C488.499 677.171 487.126 676.824 485.518 676.824C483.934 676.824 482.574 677.171 481.436 677.863C480.298 678.531 479.37 679.459 478.652 680.646C477.935 681.809 477.403 683.158 477.057 684.691C476.71 686.201 476.537 687.821 476.537 689.553ZM521.328 678.049V710H511.531V669.848H520.809L521.328 678.049ZM533.537 669.588L533.389 678.717C532.844 678.618 532.226 678.544 531.533 678.494C530.865 678.445 530.234 678.42 529.641 678.42C528.132 678.42 526.808 678.63 525.67 679.051C524.532 679.447 523.579 680.028 522.812 680.795C522.07 681.562 521.501 682.502 521.105 683.615C520.71 684.704 520.487 685.941 520.438 687.326L518.322 687.066C518.322 684.518 518.582 682.156 519.102 679.979C519.621 677.801 520.376 675.896 521.365 674.264C522.355 672.631 523.592 671.369 525.076 670.479C526.585 669.563 528.317 669.105 530.271 669.105C530.816 669.105 531.397 669.155 532.016 669.254C532.659 669.328 533.166 669.439 533.537 669.588ZM548.678 678.086V710H538.881V669.848H548.121L548.678 678.086ZM547.23 688.477H544.225C544.225 685.681 544.559 683.108 545.227 680.758C545.919 678.408 546.934 676.367 548.27 674.635C549.605 672.878 551.251 671.518 553.205 670.553C555.184 669.588 557.473 669.105 560.07 669.105C561.876 669.105 563.534 669.378 565.043 669.922C566.552 670.441 567.851 671.27 568.939 672.408C570.053 673.521 570.906 674.981 571.5 676.787C572.094 678.568 572.391 680.708 572.391 683.207V710H562.594V684.209C562.594 682.329 562.322 680.857 561.777 679.793C561.258 678.729 560.503 677.987 559.514 677.566C558.524 677.121 557.337 676.898 555.951 676.898C554.417 676.898 553.094 677.208 551.98 677.826C550.892 678.42 549.989 679.249 549.271 680.312C548.579 681.376 548.059 682.601 547.713 683.986C547.391 685.372 547.23 686.868 547.23 688.477ZM571.648 686.658L567.604 687.4C567.628 684.877 567.975 682.514 568.643 680.312C569.311 678.086 570.288 676.144 571.574 674.486C572.885 672.804 574.506 671.493 576.436 670.553C578.39 669.588 580.641 669.105 583.189 669.105C585.169 669.105 586.95 669.39 588.533 669.959C590.141 670.503 591.514 671.382 592.652 672.594C593.79 673.781 594.656 675.327 595.25 677.232C595.868 679.137 596.178 681.463 596.178 684.209V710H586.307V684.172C586.307 682.217 586.035 680.721 585.49 679.682C584.971 678.643 584.216 677.925 583.227 677.529C582.237 677.109 581.074 676.898 579.738 676.898C578.378 676.898 577.19 677.158 576.176 677.678C575.186 678.173 574.345 678.865 573.652 679.756C572.984 680.646 572.477 681.686 572.131 682.873C571.809 684.036 571.648 685.298 571.648 686.658ZM634.104 678.643H639.633C641.587 678.643 643.195 678.309 644.457 677.641C645.743 676.948 646.696 676.008 647.314 674.82C647.958 673.608 648.279 672.21 648.279 670.627C648.279 669.068 647.995 667.72 647.426 666.582C646.857 665.419 645.991 664.529 644.828 663.91C643.69 663.267 642.23 662.945 640.449 662.945C639.014 662.945 637.691 663.23 636.479 663.799C635.291 664.368 634.339 665.184 633.621 666.248C632.928 667.287 632.582 668.536 632.582 669.996H622.748C622.748 667.077 623.515 664.516 625.049 662.314C626.607 660.088 628.71 658.344 631.357 657.082C634.005 655.82 636.961 655.189 640.227 655.189C643.789 655.189 646.906 655.783 649.578 656.971C652.275 658.133 654.365 659.853 655.85 662.129C657.359 664.405 658.113 667.225 658.113 670.59C658.113 672.198 657.73 673.806 656.963 675.414C656.221 676.997 655.12 678.432 653.66 679.719C652.225 680.98 650.456 682.007 648.354 682.799C646.275 683.566 643.888 683.949 641.191 683.949H634.104V678.643ZM634.104 686.213V680.98H641.191C644.234 680.98 646.869 681.339 649.096 682.057C651.347 682.749 653.202 683.739 654.662 685.025C656.122 686.287 657.198 687.759 657.891 689.441C658.608 691.124 658.967 692.93 658.967 694.859C658.967 697.383 658.497 699.634 657.557 701.613C656.617 703.568 655.293 705.225 653.586 706.586C651.904 707.947 649.924 708.986 647.648 709.703C645.372 710.396 642.911 710.742 640.264 710.742C637.963 710.742 635.724 710.433 633.547 709.814C631.395 709.171 629.452 708.219 627.721 706.957C625.989 705.671 624.616 704.062 623.602 702.133C622.587 700.178 622.08 697.915 622.08 695.342H631.914C631.914 696.826 632.273 698.15 632.99 699.312C633.732 700.475 634.747 701.391 636.033 702.059C637.344 702.702 638.816 703.023 640.449 703.023C642.255 703.023 643.801 702.702 645.088 702.059C646.399 701.391 647.401 700.451 648.094 699.238C648.786 698.001 649.133 696.529 649.133 694.822C649.133 692.794 648.749 691.148 647.982 689.887C647.215 688.625 646.115 687.697 644.68 687.104C643.27 686.51 641.587 686.213 639.633 686.213H634.104Z" fill="#1C4670"/>
<path d="M180 580V832H71.196C51.227 832 35 809.403 35 781.507V580H180Z" fill="url(#paint4_linear_816_4053)"/>
<path d="M179.75 731H71.036C91.0348 731 107.25 753.663 107.25 781.518C107.25 809.373 90.9988 832 71 832H179.75C199.785 832 216 809.373 216 781.518C216 753.663 199.641 731 179.75 731Z" fill="url(#paint5_linear_816_4053)"/>
<path d="M110 652.713C110 671.284 102.566 684 87.304 684C72.0423 684 65.1084 670.063 65.0011 653.108C64.8939 636.153 72.3639 622 87.7686 622C103.745 621.964 110 636.261 110 652.713ZM79.0477 653.108C79.0477 666.83 82.2644 673.403 87.6972 673.403C93.1299 673.403 96.025 666.578 96.025 652.928C96.025 639.278 93.2014 632.633 87.59 632.633C81.9785 632.633 78.9762 639.134 79.0477 653.072V653.108Z" fill="white"/>
<path d="M117.745 668.708C122.039 670.885 126.762 672.094 131.579 672.251C138.71 672.251 142.489 668.708 142.489 664.314C142.489 658.503 136.606 655.881 130.474 655.881H124.805V645.959H130.188C134.859 645.959 140.885 644.116 140.885 639.12C140.885 635.577 137.961 632.955 132.114 632.955C127.739 633.121 123.47 634.337 119.671 636.498L116.818 626.47C122.462 623.434 128.799 621.896 135.216 622.005C147.944 622.005 155.003 628.667 155.003 636.746C154.997 639.921 153.918 643.002 151.94 645.495C149.962 647.988 147.199 649.749 144.093 650.495C147.627 650.947 150.878 652.65 153.249 655.293C155.62 657.936 156.952 661.34 157 664.881C157 675.511 147.766 682.988 132.649 682.988C126.499 683.149 120.415 681.708 115 678.807L117.745 668.708Z" fill="white"/>
<path d="M110 652.713C110 671.284 102.566 684 87.304 684C72.0423 684 65.1084 670.063 65.0011 653.108C64.8939 636.153 72.3639 622 87.7686 622C103.745 621.964 110 636.261 110 652.713ZM79.0477 653.108C79.0477 666.83 82.2644 673.403 87.6972 673.403C93.1299 673.403 96.025 666.578 96.025 652.928C96.025 639.278 93.2014 632.633 87.59 632.633C81.9785 632.633 78.9762 639.134 79.0477 653.072V653.108Z" fill="white"/>
<path d="M117.745 668.708C122.039 670.885 126.762 672.094 131.579 672.251C138.71 672.251 142.489 668.708 142.489 664.314C142.489 658.503 136.606 655.881 130.474 655.881H124.805V645.959H130.188C134.859 645.959 140.885 644.116 140.885 639.12C140.885 635.577 137.961 632.955 132.114 632.955C127.739 633.121 123.47 634.337 119.671 636.498L116.818 626.47C122.462 623.434 128.799 621.896 135.216 622.005C147.944 622.005 155.003 628.667 155.003 636.746C154.997 639.921 153.918 643.002 151.94 645.495C149.962 647.988 147.199 649.749 144.093 650.495C147.627 650.947 150.878 652.65 153.249 655.293C155.62 657.936 156.952 661.34 157 664.881C157 675.511 147.766 682.988 132.649 682.988C126.499 683.149 120.415 681.708 115 678.807L117.745 668.708Z" fill="white"/>
<g filter="url(#filter3_d_816_4053)">
<path fill-rule="evenodd" clip-rule="evenodd" d="M881.98 316C893.033 316 901.991 324.967 901.98 336.02L901.805 507.02C901.794 518.058 892.843 527 881.805 527H750.475H63C51.9543 527 43 518.046 43 507V336C43 324.954 51.9543 316 63 316H881.98Z" fill="white"/>
</g>
<path d="M438.463 392.969V447H428.258V392.969H438.463ZM460.246 416.311V424.363H435.791V416.311H460.246ZM463.104 392.969V401.021H435.791V392.969H463.104ZM466.74 427.332V426.553C466.74 423.609 467.161 420.9 468.002 418.426C468.843 415.927 470.068 413.762 471.676 411.932C473.284 410.101 475.251 408.678 477.576 407.664C479.902 406.625 482.549 406.105 485.518 406.105C488.536 406.105 491.208 406.625 493.533 407.664C495.883 408.678 497.863 410.101 499.471 411.932C501.079 413.762 502.303 415.927 503.145 418.426C503.986 420.9 504.406 423.609 504.406 426.553V427.332C504.406 430.251 503.986 432.96 503.145 435.459C502.303 437.933 501.079 440.098 499.471 441.953C497.863 443.784 495.896 445.206 493.57 446.221C491.245 447.235 488.585 447.742 485.592 447.742C482.623 447.742 479.964 447.235 477.613 446.221C475.263 445.206 473.284 443.784 471.676 441.953C470.068 440.098 468.843 437.933 468.002 435.459C467.161 432.96 466.74 430.251 466.74 427.332ZM476.537 426.553V427.332C476.537 429.089 476.71 430.734 477.057 432.268C477.403 433.801 477.935 435.15 478.652 436.312C479.37 437.475 480.298 438.391 481.436 439.059C482.598 439.702 483.984 440.023 485.592 440.023C487.175 440.023 488.536 439.702 489.674 439.059C490.812 438.391 491.74 437.475 492.457 436.312C493.199 435.15 493.743 433.801 494.09 432.268C494.436 430.734 494.609 429.089 494.609 427.332V426.553C494.609 424.821 494.436 423.201 494.09 421.691C493.743 420.158 493.199 418.809 492.457 417.646C491.74 416.459 490.799 415.531 489.637 414.863C488.499 414.171 487.126 413.824 485.518 413.824C483.934 413.824 482.574 414.171 481.436 414.863C480.298 415.531 479.37 416.459 478.652 417.646C477.935 418.809 477.403 420.158 477.057 421.691C476.71 423.201 476.537 424.821 476.537 426.553ZM521.328 415.049V447H511.531V406.848H520.809L521.328 415.049ZM533.537 406.588L533.389 415.717C532.844 415.618 532.226 415.544 531.533 415.494C530.865 415.445 530.234 415.42 529.641 415.42C528.132 415.42 526.808 415.63 525.67 416.051C524.532 416.447 523.579 417.028 522.812 417.795C522.07 418.562 521.501 419.502 521.105 420.615C520.71 421.704 520.487 422.941 520.438 424.326L518.322 424.066C518.322 421.518 518.582 419.156 519.102 416.979C519.621 414.801 520.376 412.896 521.365 411.264C522.355 409.631 523.592 408.369 525.076 407.479C526.585 406.563 528.317 406.105 530.271 406.105C530.816 406.105 531.397 406.155 532.016 406.254C532.659 406.328 533.166 406.439 533.537 406.588ZM548.678 415.086V447H538.881V406.848H548.121L548.678 415.086ZM547.23 425.477H544.225C544.225 422.681 544.559 420.108 545.227 417.758C545.919 415.408 546.934 413.367 548.27 411.635C549.605 409.878 551.251 408.518 553.205 407.553C555.184 406.588 557.473 406.105 560.07 406.105C561.876 406.105 563.534 406.378 565.043 406.922C566.552 407.441 567.851 408.27 568.939 409.408C570.053 410.521 570.906 411.981 571.5 413.787C572.094 415.568 572.391 417.708 572.391 420.207V447H562.594V421.209C562.594 419.329 562.322 417.857 561.777 416.793C561.258 415.729 560.503 414.987 559.514 414.566C558.524 414.121 557.337 413.898 555.951 413.898C554.417 413.898 553.094 414.208 551.98 414.826C550.892 415.42 549.989 416.249 549.271 417.312C548.579 418.376 548.059 419.601 547.713 420.986C547.391 422.372 547.23 423.868 547.23 425.477ZM571.648 423.658L567.604 424.4C567.628 421.877 567.975 419.514 568.643 417.312C569.311 415.086 570.288 413.144 571.574 411.486C572.885 409.804 574.506 408.493 576.436 407.553C578.39 406.588 580.641 406.105 583.189 406.105C585.169 406.105 586.95 406.39 588.533 406.959C590.141 407.503 591.514 408.382 592.652 409.594C593.79 410.781 594.656 412.327 595.25 414.232C595.868 416.137 596.178 418.463 596.178 421.209V447H586.307V421.172C586.307 419.217 586.035 417.721 585.49 416.682C584.971 415.643 584.216 414.925 583.227 414.529C582.237 414.109 581.074 413.898 579.738 413.898C578.378 413.898 577.19 414.158 576.176 414.678C575.186 415.173 574.345 415.865 573.652 416.756C572.984 417.646 572.477 418.686 572.131 419.873C571.809 421.036 571.648 422.298 571.648 423.658ZM659.969 439.281V447H623.379V440.395L640.932 421.432C642.762 419.354 644.21 417.548 645.273 416.014C646.337 414.48 647.092 413.094 647.537 411.857C648.007 410.596 648.242 409.396 648.242 408.258C648.242 406.6 647.945 405.153 647.352 403.916C646.758 402.654 645.892 401.677 644.754 400.984C643.641 400.292 642.268 399.945 640.635 399.945C638.829 399.945 637.283 400.366 635.996 401.207C634.734 402.023 633.77 403.161 633.102 404.621C632.458 406.081 632.137 407.751 632.137 409.631H622.303C622.303 406.439 623.045 403.533 624.529 400.91C626.014 398.263 628.141 396.148 630.912 394.564C633.683 392.981 636.973 392.189 640.783 392.189C644.494 392.189 647.636 392.808 650.209 394.045C652.782 395.257 654.736 396.989 656.072 399.24C657.408 401.492 658.076 404.176 658.076 407.293C658.076 409.025 657.792 410.732 657.223 412.414C656.654 414.096 655.85 415.766 654.811 417.424C653.796 419.057 652.584 420.714 651.174 422.396C649.764 424.079 648.193 425.798 646.461 427.555L635.922 439.281H659.969Z" fill="#1C4670"/>
<path d="M180 316V568H71.196C51.227 568 35 545.368 35 517.507V316H180Z" fill="url(#paint6_linear_816_4053)"/>
<path d="M179.75 467H71.036C91.0348 467 107.25 489.691 107.25 517.5C107.25 545.309 90.9988 568 71 568H179.75C199.785 568 216 545.345 216 517.5C216 489.655 199.641 467 179.75 467Z" fill="url(#paint7_linear_816_4053)"/>
<path d="M110 388.731C110 407.277 102.566 420 87.304 420C72.0423 420 65.1084 406.091 65.0011 389.09C64.8939 372.09 72.3639 358.001 87.7686 358.001C103.745 357.857 110 372.234 110 388.731ZM79.0477 389.09C79.0477 402.856 82.2644 409.397 87.6972 409.397C93.1299 409.397 96.025 402.568 96.025 388.911C96.025 375.253 93.2014 368.604 87.59 368.604C81.9785 368.604 78.9762 375.145 79.0477 389.09Z" fill="white"/>
<path d="M115 419V410.542L122.845 403.374C136.064 391.691 142.492 384.953 142.71 377.964C142.71 373.09 139.696 369.219 132.723 369.219C127.966 369.437 123.412 371.187 119.758 374.201L115.726 364.166C121.519 360.087 128.476 357.928 135.592 358.002C149.32 358.002 156.874 365.886 156.874 376.746C156.874 386.781 149.611 394.665 140.749 402.55L135.12 407.137V407.316H158V419H115Z" fill="white"/>
<path d="M110 388.731C110 407.277 102.566 420 87.304 420C72.0423 420 65.1084 406.091 65.0011 389.09C64.8939 372.09 72.3639 358.001 87.7686 358.001C103.745 357.857 110 372.234 110 388.731ZM79.0477 389.09C79.0477 402.856 82.2644 409.397 87.6972 409.397C93.1299 409.397 96.025 402.568 96.025 388.911C96.025 375.253 93.2014 368.604 87.59 368.604C81.9785 368.604 78.9762 375.145 79.0477 389.09Z" fill="white"/>
<path d="M115 419V410.542L122.845 403.374C136.064 391.691 142.492 384.953 142.71 377.964C142.71 373.09 139.696 369.219 132.723 369.219C127.966 369.437 123.412 371.187 119.758 374.201L115.726 364.166C121.519 360.087 128.476 357.928 135.592 358.002C149.32 358.002 156.874 365.886 156.874 376.746C156.874 386.781 149.611 394.665 140.749 402.55L135.12 407.137V407.316H158V419H115Z" fill="white"/>
<g filter="url(#filter4_d_816_4053)">
<path fill-rule="evenodd" clip-rule="evenodd" d="M881.98 51C893.033 51 901.991 59.9668 901.98 71.0204L901.805 242.02C901.794 253.058 892.843 262 881.805 262H750.475H63C51.9543 262 43 253.046 43 242V71C43 59.9543 51.9543 51 63 51H881.98Z" fill="white"/>
</g>
<path d="M438.463 127.969V182H428.258V127.969H438.463ZM460.246 151.311V159.363H435.791V151.311H460.246ZM463.104 127.969V136.021H435.791V127.969H463.104ZM466.74 162.332V161.553C466.74 158.609 467.161 155.9 468.002 153.426C468.843 150.927 470.068 148.762 471.676 146.932C473.284 145.101 475.251 143.678 477.576 142.664C479.902 141.625 482.549 141.105 485.518 141.105C488.536 141.105 491.208 141.625 493.533 142.664C495.883 143.678 497.863 145.101 499.471 146.932C501.079 148.762 502.303 150.927 503.145 153.426C503.986 155.9 504.406 158.609 504.406 161.553V162.332C504.406 165.251 503.986 167.96 503.145 170.459C502.303 172.933 501.079 175.098 499.471 176.953C497.863 178.784 495.896 180.206 493.57 181.221C491.245 182.235 488.585 182.742 485.592 182.742C482.623 182.742 479.964 182.235 477.613 181.221C475.263 180.206 473.284 178.784 471.676 176.953C470.068 175.098 468.843 172.933 468.002 170.459C467.161 167.96 466.74 165.251 466.74 162.332ZM476.537 161.553V162.332C476.537 164.089 476.71 165.734 477.057 167.268C477.403 168.801 477.935 170.15 478.652 171.312C479.37 172.475 480.298 173.391 481.436 174.059C482.598 174.702 483.984 175.023 485.592 175.023C487.175 175.023 488.536 174.702 489.674 174.059C490.812 173.391 491.74 172.475 492.457 171.312C493.199 170.15 493.743 168.801 494.09 167.268C494.436 165.734 494.609 164.089 494.609 162.332V161.553C494.609 159.821 494.436 158.201 494.09 156.691C493.743 155.158 493.199 153.809 492.457 152.646C491.74 151.459 490.799 150.531 489.637 149.863C488.499 149.171 487.126 148.824 485.518 148.824C483.934 148.824 482.574 149.171 481.436 149.863C480.298 150.531 479.37 151.459 478.652 152.646C477.935 153.809 477.403 155.158 477.057 156.691C476.71 158.201 476.537 159.821 476.537 161.553ZM521.328 150.049V182H511.531V141.848H520.809L521.328 150.049ZM533.537 141.588L533.389 150.717C532.844 150.618 532.226 150.544 531.533 150.494C530.865 150.445 530.234 150.42 529.641 150.42C528.132 150.42 526.808 150.63 525.67 151.051C524.532 151.447 523.579 152.028 522.812 152.795C522.07 153.562 521.501 154.502 521.105 155.615C520.71 156.704 520.487 157.941 520.438 159.326L518.322 159.066C518.322 156.518 518.582 154.156 519.102 151.979C519.621 149.801 520.376 147.896 521.365 146.264C522.355 144.631 523.592 143.369 525.076 142.479C526.585 141.563 528.317 141.105 530.271 141.105C530.816 141.105 531.397 141.155 532.016 141.254C532.659 141.328 533.166 141.439 533.537 141.588ZM548.678 150.086V182H538.881V141.848H548.121L548.678 150.086ZM547.23 160.477H544.225C544.225 157.681 544.559 155.108 545.227 152.758C545.919 150.408 546.934 148.367 548.27 146.635C549.605 144.878 551.251 143.518 553.205 142.553C555.184 141.588 557.473 141.105 560.07 141.105C561.876 141.105 563.534 141.378 565.043 141.922C566.552 142.441 567.851 143.27 568.939 144.408C570.053 145.521 570.906 146.981 571.5 148.787C572.094 150.568 572.391 152.708 572.391 155.207V182H562.594V156.209C562.594 154.329 562.322 152.857 561.777 151.793C561.258 150.729 560.503 149.987 559.514 149.566C558.524 149.121 557.337 148.898 555.951 148.898C554.417 148.898 553.094 149.208 551.98 149.826C550.892 150.42 549.989 151.249 549.271 152.312C548.579 153.376 548.059 154.601 547.713 155.986C547.391 157.372 547.23 158.868 547.23 160.477ZM571.648 158.658L567.604 159.4C567.628 156.877 567.975 154.514 568.643 152.312C569.311 150.086 570.288 148.144 571.574 146.486C572.885 144.804 574.506 143.493 576.436 142.553C578.39 141.588 580.641 141.105 583.189 141.105C585.169 141.105 586.95 141.39 588.533 141.959C590.141 142.503 591.514 143.382 592.652 144.594C593.79 145.781 594.656 147.327 595.25 149.232C595.868 151.137 596.178 153.463 596.178 156.209V182H586.307V156.172C586.307 154.217 586.035 152.721 585.49 151.682C584.971 150.643 584.216 149.925 583.227 149.529C582.237 149.109 581.074 148.898 579.738 148.898C578.378 148.898 577.19 149.158 576.176 149.678C575.186 150.173 574.345 150.865 573.652 151.756C572.984 152.646 572.477 153.686 572.131 154.873C571.809 156.036 571.648 157.298 571.648 158.658ZM648.613 127.82V182H638.779V139.287L625.754 143.592V135.65L647.5 127.82H648.613Z" fill="#1C4670"/>
<path d="M180 51V304H71.196C51.227 304 35 281.314 35 253.307V51H180Z" fill="url(#paint8_linear_816_4053)"/>
<path d="M179.75 202H71.036C91.0348 202 107.25 224.888 107.25 252.982C107.25 281.076 90.9988 304 71 304H179.75C199.785 304 216 281.112 216 252.982C216 224.851 199.641 202 179.75 202Z" fill="url(#paint9_linear_816_4053)"/>
<path d="M110 123.713C110 142.248 102.566 155 87.304 155C72.0423 155 65.1084 141.063 65.0011 124.072C64.8939 107.081 72.3639 93 87.7686 93C103.745 93 110 107.297 110 123.713ZM79.0477 124.072C79.0477 137.83 82.2644 144.367 87.6972 144.367C93.1299 144.367 96.025 137.542 96.025 123.892C96.025 110.242 93.2014 103.597 87.59 103.597C81.9785 103.597 78.9762 110.17 79.0477 124.072Z" fill="white"/>
<path d="M133.017 106.475L122.175 111.903L120 101.406L135.022 94H146V154H133.187L133.017 106.475Z" fill="white"/>
<path d="M110 123.713C110 142.248 102.566 155 87.304 155C72.0423 155 65.1084 141.063 65.0011 124.072C64.8939 107.081 72.3639 93 87.7686 93C103.745 93 110 107.297 110 123.713ZM79.0477 124.072C79.0477 137.83 82.2644 144.367 87.6972 144.367C93.1299 144.367 96.025 137.542 96.025 123.892C96.025 110.242 93.2014 103.597 87.59 103.597C81.9785 103.597 78.9762 110.17 79.0477 124.072Z" fill="white"/>
<path d="M133.017 106.475L122.175 111.903L120 101.406L135.022 94H146V154H133.187L133.017 106.475Z" fill="white"/>
<defs>
<filter id="filter0_d_816_4053" x="36" y="1108" width="872.977" height="225" filterUnits="userSpaceOnUse" color-interpolation-filters="sRGB">
<feFlood flood-opacity="0" result="BackgroundImageFix"/>
<feColorMatrix in="SourceAlpha" type="matrix" values="0 0 0 0 0 0 0 0 0 0 0 0 0 0 0 0 0 0 127 0" result="hardAlpha"/>
<feOffset dy="4"/>
<feGaussianBlur stdDeviation="3.5"/>
<feComposite in2="hardAlpha" operator="out"/>
<feColorMatrix type="matrix" values="0 0 0 0 0 0 0 0 0 0 0 0 0 0 0 0 0 0 0.25 0"/>
<feBlend mode="normal" in2="BackgroundImageFix" result="effect1_dropShadow_816_4053"/>
<feBlend mode="normal" in="SourceGraphic" in2="effect1_dropShadow_816_4053" result="shape"/>
</filter>
<filter id="filter1_d_816_4053" x="36" y="842" width="872.977" height="225" filterUnits="userSpaceOnUse" color-interpolation-filters="sRGB">
<feFlood flood-opacity="0" result="BackgroundImageFix"/>
<feColorMatrix in="SourceAlpha" type="matrix" values="0 0 0 0 0 0 0 0 0 0 0 0 0 0 0 0 0 0 127 0" result="hardAlpha"/>
<feOffset dy="4"/>
<feGaussianBlur stdDeviation="3.5"/>
<feComposite in2="hardAlpha" operator="out"/>
<feColorMatrix type="matrix" values="0 0 0 0 0 0 0 0 0 0 0 0 0 0 0 0 0 0 0.25 0"/>
<feBlend mode="normal" in2="BackgroundImageFix" result="effect1_dropShadow_816_4053"/>
<feBlend mode="normal" in="SourceGraphic" in2="effect1_dropShadow_816_4053" result="shape"/>
</filter>
<filter id="filter2_d_816_4053" x="36" y="577" width="872.977" height="224" filterUnits="userSpaceOnUse" color-interpolation-filters="sRGB">
<feFlood flood-opacity="0" result="BackgroundImageFix"/>
<feColorMatrix in="SourceAlpha" type="matrix" values="0 0 0 0 0 0 0 0 0 0 0 0 0 0 0 0 0 0 127 0" result="hardAlpha"/>
<feOffset dy="4"/>
<feGaussianBlur stdDeviation="3.5"/>
<feComposite in2="hardAlpha" operator="out"/>
<feColorMatrix type="matrix" values="0 0 0 0 0 0 0 0 0 0 0 0 0 0 0 0 0 0 0.25 0"/>
<feBlend mode="normal" in2="BackgroundImageFix" result="effect1_dropShadow_816_4053"/>
<feBlend mode="normal" in="SourceGraphic" in2="effect1_dropShadow_816_4053" result="shape"/>
</filter>
<filter id="filter3_d_816_4053" x="36" y="313" width="872.977" height="225" filterUnits="userSpaceOnUse" color-interpolation-filters="sRGB">
<feFlood flood-opacity="0" result="BackgroundImageFix"/>
<feColorMatrix in="SourceAlpha" type="matrix" values="0 0 0 0 0 0 0 0 0 0 0 0 0 0 0 0 0 0 127 0" result="hardAlpha"/>
<feOffset dy="4"/>
<feGaussianBlur stdDeviation="3.5"/>
<feComposite in2="hardAlpha" operator="out"/>
<feColorMatrix type="matrix" values="0 0 0 0 0 0 0 0 0 0 0 0 0 0 0 0 0 0 0.25 0"/>
<feBlend mode="normal" in2="BackgroundImageFix" result="effect1_dropShadow_816_4053"/>
<feBlend mode="normal" in="SourceGraphic" in2="effect1_dropShadow_816_4053" result="shape"/>
</filter>
<filter id="filter4_d_816_4053" x="36" y="48" width="872.977" height="225" filterUnits="userSpaceOnUse" color-interpolation-filters="sRGB">
<feFlood flood-opacity="0" result="BackgroundImageFix"/>
<feColorMatrix in="SourceAlpha" type="matrix" values="0 0 0 0 0 0 0 0 0 0 0 0 0 0 0 0 0 0 127 0" result="hardAlpha"/>
<feOffset dy="4"/>
<feGaussianBlur stdDeviation="3.5"/>
<feComposite in2="hardAlpha" operator="out"/>
<feColorMatrix type="matrix" values="0 0 0 0 0 0 0 0 0 0 0 0 0 0 0 0 0 0 0.25 0"/>
<feBlend mode="normal" in2="BackgroundImageFix" result="effect1_dropShadow_816_4053"/>
<feBlend mode="normal" in="SourceGraphic" in2="effect1_dropShadow_816_4053" result="shape"/>
</filter>
<linearGradient id="paint0_linear_816_4053" x1="35" y1="1237.48" x2="180" y2="1237.48" gradientUnits="userSpaceOnUse">
<stop stop-color="#229CB4"/>
<stop offset="1" stop-color="#5ED8F0"/>
</linearGradient>
<linearGradient id="paint1_linear_816_4053" x1="71" y1="1313" x2="216" y2="1313" gradientUnits="userSpaceOnUse">
<stop stop-color="#01819A"/>
<stop offset="1" stop-color="#3DBDD6"/>
</linearGradient>
<linearGradient id="paint2_linear_816_4053" x1="35" y1="971.518" x2="180" y2="971.518" gradientUnits="userSpaceOnUse">
<stop stop-color="#673D89"/>
<stop offset="1" stop-color="#A379C5"/>
</linearGradient>
<linearGradient id="paint3_linear_816_4053" x1="71" y1="1046.98" x2="216" y2="1046.98" gradientUnits="userSpaceOnUse">
<stop stop-color="#4A1C6F"/>
<stop offset="1" stop-color="#8658AB"/>
</linearGradient>
<linearGradient id="paint4_linear_816_4053" x1="35" y1="706.018" x2="180" y2="706.018" gradientUnits="userSpaceOnUse">
<stop stop-color="#B32079"/>
<stop offset="1" stop-color="#EF5CB5"/>
</linearGradient>
<linearGradient id="paint5_linear_816_4053" x1="71" y1="781.41" x2="216" y2="781.41" gradientUnits="userSpaceOnUse">
<stop stop-color="#99005C"/>
<stop offset="1" stop-color="#D53B98"/>
</linearGradient>
<linearGradient id="paint6_linear_816_4053" x1="35" y1="441.982" x2="180" y2="441.982" gradientUnits="userSpaceOnUse">
<stop stop-color="#738494"/>
<stop offset="1" stop-color="#AFC0D0"/>
</linearGradient>
<linearGradient id="paint7_linear_816_4053" x1="71" y1="517.5" x2="216" y2="517.5" gradientUnits="userSpaceOnUse">
<stop stop-color="#5E6E7E"/>
<stop offset="1" stop-color="#9AAABA"/>
</linearGradient>
<linearGradient id="paint8_linear_816_4053" x1="35" y1="177.518" x2="180" y2="177.518" gradientUnits="userSpaceOnUse">
<stop stop-color="#E19000"/>
<stop offset="1" stop-color="#FFCC1E"/>
</linearGradient>
<linearGradient id="paint9_linear_816_4053" x1="71" y1="252.982" x2="216" y2="252.982" gradientUnits="userSpaceOnUse">
<stop stop-color="#E15E00"/>
<stop offset="1" stop-color="#FF9A1E"/>
</linearGradient>
</defs>
</svg>
