<svg width="1000" height="1254" viewBox="0 0 1000 1254" fill="none" xmlns="http://www.w3.org/2000/svg">
<rect width="1000" height="1254" fill="#FBF7F7"/>
<path d="M152.64 99.665H136.16V90.1729H152.64C155.335 90.1729 157.518 89.7334 159.188 88.8545C160.887 87.9463 162.132 86.7158 162.923 85.1631C163.714 83.5811 164.109 81.7793 164.109 79.7578C164.109 77.7949 163.714 75.9639 162.923 74.2646C162.132 72.5654 160.887 71.1885 159.188 70.1338C157.518 69.0791 155.335 68.5518 152.64 68.5518H140.115V123H128.03V59.0156H152.64C157.62 59.0156 161.868 59.9092 165.384 61.6963C168.929 63.4541 171.624 65.9004 173.47 69.0352C175.345 72.1406 176.282 75.6855 176.282 79.6699C176.282 83.8008 175.345 87.3604 173.47 90.3486C171.624 93.3369 168.929 95.6367 165.384 97.248C161.868 98.8594 157.62 99.665 152.64 99.665ZM196.497 85.1631V123H184.896V75.4512H195.882L196.497 85.1631ZM210.955 75.1436L210.779 85.9541C210.135 85.8369 209.402 85.749 208.582 85.6904C207.791 85.6318 207.044 85.6025 206.341 85.6025C204.554 85.6025 202.986 85.8516 201.639 86.3496C200.291 86.8184 199.163 87.5068 198.255 88.415C197.376 89.3232 196.702 90.4365 196.233 91.7549C195.765 93.0439 195.501 94.5088 195.442 96.1494L192.938 95.8418C192.938 92.8242 193.245 90.0264 193.86 87.4482C194.476 84.8701 195.369 82.6143 196.541 80.6807C197.713 78.7471 199.178 77.2529 200.936 76.1982C202.723 75.1143 204.773 74.5723 207.088 74.5723C207.732 74.5723 208.421 74.6309 209.153 74.748C209.915 74.8359 210.516 74.9678 210.955 75.1436ZM214.031 99.709V98.7861C214.031 95.2998 214.529 92.0918 215.525 89.1621C216.521 86.2031 217.972 83.6396 219.876 81.4717C221.78 79.3037 224.109 77.6191 226.863 76.418C229.617 75.1875 232.752 74.5723 236.268 74.5723C239.842 74.5723 243.006 75.1875 245.76 76.418C248.543 77.6191 250.887 79.3037 252.791 81.4717C254.695 83.6396 256.146 86.2031 257.142 89.1621C258.138 92.0918 258.636 95.2998 258.636 98.7861V99.709C258.636 103.166 258.138 106.374 257.142 109.333C256.146 112.263 254.695 114.826 252.791 117.023C250.887 119.191 248.558 120.876 245.804 122.077C243.05 123.278 239.9 123.879 236.355 123.879C232.84 123.879 229.69 123.278 226.907 122.077C224.124 120.876 221.78 119.191 219.876 117.023C217.972 114.826 216.521 112.263 215.525 109.333C214.529 106.374 214.031 103.166 214.031 99.709ZM225.633 98.7861V99.709C225.633 101.789 225.838 103.737 226.248 105.554C226.658 107.37 227.288 108.967 228.138 110.344C228.987 111.721 230.086 112.805 231.434 113.596C232.811 114.357 234.451 114.738 236.355 114.738C238.23 114.738 239.842 114.357 241.189 113.596C242.537 112.805 243.636 111.721 244.485 110.344C245.364 108.967 246.009 107.37 246.419 105.554C246.829 103.737 247.034 101.789 247.034 99.709V98.7861C247.034 96.7354 246.829 94.8164 246.419 93.0293C246.009 91.2129 245.364 89.6162 244.485 88.2393C243.636 86.833 242.522 85.7344 241.146 84.9434C239.798 84.123 238.172 83.7129 236.268 83.7129C234.393 83.7129 232.781 84.123 231.434 84.9434C230.086 85.7344 228.987 86.833 228.138 88.2393C227.288 89.6162 226.658 91.2129 226.248 93.0293C225.838 94.8164 225.633 96.7354 225.633 98.7861ZM286.585 114.738C288.226 114.738 289.69 114.416 290.979 113.771C292.269 113.127 293.294 112.219 294.056 111.047C294.847 109.875 295.271 108.513 295.33 106.96H306.272C306.214 110.183 305.306 113.068 303.548 115.617C301.79 118.166 299.446 120.188 296.517 121.682C293.616 123.146 290.364 123.879 286.761 123.879C283.099 123.879 279.905 123.264 277.181 122.033C274.456 120.803 272.186 119.089 270.369 116.892C268.582 114.694 267.234 112.146 266.326 109.245C265.447 106.345 265.008 103.239 265.008 99.9287V98.5225C265.008 95.2119 265.447 92.1064 266.326 89.2061C267.234 86.3057 268.582 83.7568 270.369 81.5596C272.186 79.3623 274.456 77.6484 277.181 76.418C279.905 75.1875 283.084 74.5723 286.717 74.5723C290.555 74.5723 293.924 75.3193 296.824 76.8135C299.754 78.3076 302.039 80.417 303.68 83.1416C305.35 85.8662 306.214 89.0742 306.272 92.7656H295.33C295.271 91.0664 294.891 89.543 294.188 88.1953C293.484 86.8477 292.488 85.7637 291.199 84.9434C289.91 84.123 288.343 83.7129 286.497 83.7129C284.534 83.7129 282.894 84.123 281.575 84.9434C280.286 85.7637 279.275 86.8916 278.543 88.3271C277.84 89.7334 277.342 91.3154 277.049 93.0732C276.785 94.8018 276.653 96.6182 276.653 98.5225V99.9287C276.653 101.862 276.785 103.708 277.049 105.466C277.342 107.224 277.84 108.806 278.543 110.212C279.275 111.589 280.286 112.688 281.575 113.508C282.894 114.328 284.563 114.738 286.585 114.738ZM335.364 123.879C331.761 123.879 328.523 123.293 325.652 122.121C322.781 120.949 320.335 119.323 318.313 117.243C316.321 115.134 314.783 112.688 313.699 109.904C312.645 107.092 312.117 104.074 312.117 100.852V99.0938C312.117 95.4316 312.645 92.1064 313.699 89.1182C314.754 86.1006 316.248 83.5078 318.182 81.3398C320.115 79.1719 322.43 77.502 325.125 76.3301C327.82 75.1582 330.794 74.5723 334.046 74.5723C337.415 74.5723 340.389 75.1436 342.967 76.2861C345.545 77.3994 347.698 78.9814 349.427 81.0322C351.155 83.083 352.459 85.5439 353.338 88.415C354.217 91.2568 354.656 94.4062 354.656 97.8633V102.741H317.391V94.7432H343.23V93.8643C343.172 92.0186 342.82 90.334 342.176 88.8105C341.531 87.2578 340.535 86.0273 339.188 85.1191C337.84 84.1816 336.097 83.7129 333.958 83.7129C332.229 83.7129 330.721 84.0938 329.432 84.8555C328.172 85.5879 327.117 86.6426 326.268 88.0195C325.447 89.3672 324.832 90.9785 324.422 92.8535C324.012 94.7285 323.807 96.8086 323.807 99.0938V100.852C323.807 102.844 324.07 104.689 324.598 106.389C325.154 108.088 325.96 109.567 327.015 110.827C328.099 112.058 329.388 113.024 330.882 113.728C332.405 114.401 334.134 114.738 336.067 114.738C338.499 114.738 340.696 114.27 342.659 113.332C344.651 112.365 346.38 110.944 347.845 109.069L353.689 115.134C352.693 116.599 351.346 118.005 349.646 119.353C347.977 120.7 345.955 121.799 343.582 122.648C341.209 123.469 338.47 123.879 335.364 123.879ZM390.955 112.893V55.5H402.645V123H392.098L390.955 112.893ZM360.413 99.7969V98.874C360.413 95.2412 360.823 91.9453 361.644 88.9863C362.493 85.998 363.724 83.4346 365.335 81.2959C366.946 79.1572 368.895 77.502 371.18 76.3301C373.494 75.1582 376.116 74.5723 379.046 74.5723C381.888 74.5723 384.363 75.1436 386.473 76.2861C388.611 77.4287 390.428 79.0547 391.922 81.1641C393.445 83.2734 394.661 85.7783 395.569 88.6787C396.478 91.5498 397.137 94.7139 397.547 98.1709V100.676C397.137 104.045 396.478 107.136 395.569 109.948C394.661 112.761 393.445 115.222 391.922 117.331C390.428 119.411 388.611 121.022 386.473 122.165C384.334 123.308 381.829 123.879 378.958 123.879C376.058 123.879 373.45 123.278 371.136 122.077C368.851 120.876 366.902 119.191 365.291 117.023C363.709 114.855 362.493 112.307 361.644 109.377C360.823 106.447 360.413 103.254 360.413 99.7969ZM372.059 98.874V99.7969C372.059 101.848 372.234 103.767 372.586 105.554C372.938 107.341 373.509 108.923 374.3 110.3C375.091 111.647 376.102 112.702 377.332 113.464C378.592 114.226 380.115 114.606 381.902 114.606C384.188 114.606 386.062 114.108 387.527 113.112C389.021 112.087 390.179 110.695 390.999 108.938C391.819 107.15 392.347 105.144 392.581 102.917V96.0176C392.464 94.2598 392.156 92.6338 391.658 91.1396C391.189 89.6455 390.516 88.3564 389.637 87.2725C388.787 86.1885 387.732 85.3389 386.473 84.7236C385.213 84.1084 383.719 83.8008 381.99 83.8008C380.203 83.8008 378.68 84.1963 377.42 84.9873C376.16 85.749 375.135 86.8184 374.344 88.1953C373.553 89.5723 372.967 91.1689 372.586 92.9854C372.234 94.8018 372.059 96.7646 372.059 98.874ZM441.448 111.706V75.4512H453.138V123H442.151L441.448 111.706ZM442.942 101.862L446.546 101.774C446.546 104.968 446.194 107.912 445.491 110.607C444.788 113.303 443.689 115.646 442.195 117.639C440.73 119.602 438.87 121.14 436.614 122.253C434.358 123.337 431.692 123.879 428.616 123.879C426.272 123.879 424.134 123.557 422.2 122.912C420.267 122.238 418.597 121.198 417.19 119.792C415.813 118.356 414.744 116.525 413.982 114.299C413.221 112.043 412.84 109.333 412.84 106.169V75.4512H424.441V106.257C424.441 107.839 424.617 109.157 424.969 110.212C425.35 111.267 425.862 112.131 426.507 112.805C427.181 113.449 427.957 113.918 428.836 114.211C429.744 114.475 430.711 114.606 431.736 114.606C434.549 114.606 436.761 114.05 438.372 112.937C440.013 111.794 441.185 110.271 441.888 108.366C442.591 106.433 442.942 104.265 442.942 101.862ZM475.022 85.1631V123H463.421V75.4512H474.407L475.022 85.1631ZM489.48 75.1436L489.305 85.9541C488.66 85.8369 487.928 85.749 487.107 85.6904C486.316 85.6318 485.569 85.6025 484.866 85.6025C483.079 85.6025 481.512 85.8516 480.164 86.3496C478.816 86.8184 477.688 87.5068 476.78 88.415C475.901 89.3232 475.228 90.4365 474.759 91.7549C474.29 93.0439 474.026 94.5088 473.968 96.1494L471.463 95.8418C471.463 92.8242 471.771 90.0264 472.386 87.4482C473.001 84.8701 473.895 82.6143 475.066 80.6807C476.238 78.7471 477.703 77.2529 479.461 76.1982C481.248 75.1143 483.299 74.5723 485.613 74.5723C486.258 74.5723 486.946 74.6309 487.679 74.748C488.44 74.8359 489.041 74.9678 489.48 75.1436ZM516.331 123.879C512.728 123.879 509.49 123.293 506.619 122.121C503.748 120.949 501.302 119.323 499.28 117.243C497.288 115.134 495.75 112.688 494.666 109.904C493.611 107.092 493.084 104.074 493.084 100.852V99.0938C493.084 95.4316 493.611 92.1064 494.666 89.1182C495.721 86.1006 497.215 83.5078 499.148 81.3398C501.082 79.1719 503.396 77.502 506.092 76.3301C508.787 75.1582 511.761 74.5723 515.013 74.5723C518.382 74.5723 521.355 75.1436 523.934 76.2861C526.512 77.3994 528.665 78.9814 530.394 81.0322C532.122 83.083 533.426 85.5439 534.305 88.415C535.184 91.2568 535.623 94.4062 535.623 97.8633V102.741H498.357V94.7432H524.197V93.8643C524.139 92.0186 523.787 90.334 523.143 88.8105C522.498 87.2578 521.502 86.0273 520.154 85.1191C518.807 84.1816 517.063 83.7129 514.925 83.7129C513.196 83.7129 511.688 84.0938 510.398 84.8555C509.139 85.5879 508.084 86.6426 507.234 88.0195C506.414 89.3672 505.799 90.9785 505.389 92.8535C504.979 94.7285 504.773 96.8086 504.773 99.0938V100.852C504.773 102.844 505.037 104.689 505.564 106.389C506.121 108.088 506.927 109.567 507.981 110.827C509.065 112.058 510.354 113.024 511.849 113.728C513.372 114.401 515.101 114.738 517.034 114.738C519.466 114.738 521.663 114.27 523.626 113.332C525.618 112.365 527.347 110.944 528.812 109.069L534.656 115.134C533.66 116.599 532.312 118.005 530.613 119.353C528.943 120.7 526.922 121.799 524.549 122.648C522.176 123.469 519.437 123.879 516.331 123.879ZM581.019 123H569.329V71.0566C569.329 67.4824 570.018 64.4795 571.395 62.0479C572.771 59.5869 574.734 57.7266 577.283 56.4668C579.832 55.207 582.835 54.5771 586.292 54.5771C587.435 54.5771 588.519 54.6504 589.544 54.7969C590.599 54.9434 591.639 55.1484 592.664 55.4121L592.444 64.2451C591.888 64.0986 591.272 63.9961 590.599 63.9375C589.954 63.8789 589.236 63.8496 588.445 63.8496C586.863 63.8496 585.516 64.1279 584.402 64.6846C583.289 65.2412 582.439 66.0615 581.854 67.1455C581.297 68.2002 581.019 69.5039 581.019 71.0566V123ZM590.643 75.4512V83.8008H562.166V75.4512H590.643ZM595.74 99.709V98.7861C595.74 95.2998 596.238 92.0918 597.234 89.1621C598.23 86.2031 599.681 83.6396 601.585 81.4717C603.489 79.3037 605.818 77.6191 608.572 76.418C611.326 75.1875 614.461 74.5723 617.977 74.5723C621.551 74.5723 624.715 75.1875 627.469 76.418C630.252 77.6191 632.596 79.3037 634.5 81.4717C636.404 83.6396 637.854 86.2031 638.851 89.1621C639.847 92.0918 640.345 95.2998 640.345 98.7861V99.709C640.345 103.166 639.847 106.374 638.851 109.333C637.854 112.263 636.404 114.826 634.5 117.023C632.596 119.191 630.267 120.876 627.513 122.077C624.759 123.278 621.609 123.879 618.064 123.879C614.549 123.879 611.399 123.278 608.616 122.077C605.833 120.876 603.489 119.191 601.585 117.023C599.681 114.826 598.23 112.263 597.234 109.333C596.238 106.374 595.74 103.166 595.74 99.709ZM607.342 98.7861V99.709C607.342 101.789 607.547 103.737 607.957 105.554C608.367 107.37 608.997 108.967 609.847 110.344C610.696 111.721 611.795 112.805 613.143 113.596C614.52 114.357 616.16 114.738 618.064 114.738C619.939 114.738 621.551 114.357 622.898 113.596C624.246 112.805 625.345 111.721 626.194 110.344C627.073 108.967 627.718 107.37 628.128 105.554C628.538 103.737 628.743 101.789 628.743 99.709V98.7861C628.743 96.7354 628.538 94.8164 628.128 93.0293C627.718 91.2129 627.073 89.6162 626.194 88.2393C625.345 86.833 624.231 85.7344 622.854 84.9434C621.507 84.123 619.881 83.7129 617.977 83.7129C616.102 83.7129 614.49 84.123 613.143 84.9434C611.795 85.7344 610.696 86.833 609.847 88.2393C608.997 89.6162 608.367 91.2129 607.957 93.0293C607.547 94.8164 607.342 96.7354 607.342 98.7861ZM660.384 85.1631V123H648.782V75.4512H659.769L660.384 85.1631ZM674.842 75.1436L674.666 85.9541C674.021 85.8369 673.289 85.749 672.469 85.6904C671.678 85.6318 670.931 85.6025 670.228 85.6025C668.44 85.6025 666.873 85.8516 665.525 86.3496C664.178 86.8184 663.05 87.5068 662.142 88.415C661.263 89.3232 660.589 90.4365 660.12 91.7549C659.651 93.0439 659.388 94.5088 659.329 96.1494L656.824 95.8418C656.824 92.8242 657.132 90.0264 657.747 87.4482C658.362 84.8701 659.256 82.6143 660.428 80.6807C661.6 78.7471 663.064 77.2529 664.822 76.1982C666.609 75.1143 668.66 74.5723 670.975 74.5723C671.619 74.5723 672.308 74.6309 673.04 74.748C673.802 74.8359 674.402 74.9678 674.842 75.1436Z" fill="#1C4670"/>
<path d="M756.316 89.3818V92.6777C756.316 97.5117 755.672 101.862 754.383 105.729C753.094 109.567 751.263 112.834 748.89 115.529C746.517 118.225 743.689 120.29 740.408 121.726C737.127 123.161 733.479 123.879 729.466 123.879C725.511 123.879 721.878 123.161 718.567 121.726C715.286 120.29 712.444 118.225 710.042 115.529C707.64 112.834 705.779 109.567 704.461 105.729C703.143 101.862 702.483 97.5117 702.483 92.6777V89.3818C702.483 84.5186 703.143 80.168 704.461 76.3301C705.779 72.4922 707.625 69.2256 709.998 66.5303C712.371 63.8057 715.198 61.7256 718.479 60.29C721.79 58.8545 725.423 58.1367 729.378 58.1367C733.392 58.1367 737.039 58.8545 740.32 60.29C743.602 61.7256 746.429 63.8057 748.802 66.5303C751.204 69.2256 753.05 72.4922 754.339 76.3301C755.657 80.168 756.316 84.5186 756.316 89.3818ZM744.1 92.6777V89.2939C744.1 85.8076 743.777 82.7461 743.133 80.1094C742.488 77.4434 741.536 75.2021 740.276 73.3857C739.017 71.5693 737.464 70.207 735.618 69.2988C733.772 68.3613 731.692 67.8926 729.378 67.8926C727.034 67.8926 724.954 68.3613 723.138 69.2988C721.351 70.207 719.827 71.5693 718.567 73.3857C717.308 75.2021 716.341 77.4434 715.667 80.1094C715.022 82.7461 714.7 85.8076 714.7 89.2939V92.6777C714.7 96.1348 715.022 99.1963 715.667 101.862C716.341 104.528 717.308 106.784 718.567 108.63C719.856 110.446 721.409 111.823 723.226 112.761C725.042 113.698 727.122 114.167 729.466 114.167C731.81 114.167 733.89 113.698 735.706 112.761C737.522 111.823 739.046 110.446 740.276 108.63C741.536 106.784 742.488 104.528 743.133 101.862C743.777 99.1963 744.1 96.1348 744.1 92.6777ZM791.165 99.665H774.686V90.1729H791.165C793.86 90.1729 796.043 89.7334 797.713 88.8545C799.412 87.9463 800.657 86.7158 801.448 85.1631C802.239 83.5811 802.635 81.7793 802.635 79.7578C802.635 77.7949 802.239 75.9639 801.448 74.2646C800.657 72.5654 799.412 71.1885 797.713 70.1338C796.043 69.0791 793.86 68.5518 791.165 68.5518H778.641V123H766.556V59.0156H791.165C796.146 59.0156 800.394 59.9092 803.909 61.6963C807.454 63.4541 810.149 65.9004 811.995 69.0352C813.87 72.1406 814.808 75.6855 814.808 79.6699C814.808 83.8008 813.87 87.3604 811.995 90.3486C810.149 93.3369 807.454 95.6367 803.909 97.248C800.394 98.8594 796.146 99.665 791.165 99.665ZM861.741 101.95H873.826C873.504 106.228 872.317 110.021 870.267 113.332C868.216 116.613 865.359 119.191 861.697 121.066C858.035 122.941 853.597 123.879 848.382 123.879C844.368 123.879 840.75 123.176 837.527 121.77C834.334 120.334 831.595 118.298 829.31 115.661C827.054 112.995 825.325 109.802 824.124 106.081C822.923 102.331 822.322 98.127 822.322 93.4688V88.5908C822.322 83.9326 822.938 79.7285 824.168 75.9785C825.398 72.2285 827.156 69.0352 829.441 66.3984C831.756 63.7324 834.524 61.6816 837.747 60.2461C840.999 58.8105 844.632 58.0928 848.646 58.0928C853.86 58.0928 858.27 59.0596 861.873 60.9932C865.477 62.8975 868.274 65.5195 870.267 68.8594C872.259 72.1992 873.46 76.0371 873.87 80.373H861.785C861.551 77.6777 860.965 75.3926 860.027 73.5176C859.119 71.6426 857.742 70.2217 855.896 69.2549C854.08 68.2588 851.663 67.7607 848.646 67.7607C846.302 67.7607 844.236 68.2002 842.449 69.0791C840.691 69.958 839.227 71.2764 838.055 73.0342C836.883 74.7627 836.004 76.9307 835.418 79.5381C834.832 82.1162 834.539 85.1045 834.539 88.5029V93.4688C834.539 96.7207 834.803 99.6357 835.33 102.214C835.857 104.792 836.678 106.975 837.791 108.762C838.904 110.549 840.34 111.911 842.098 112.849C843.855 113.786 845.95 114.255 848.382 114.255C851.341 114.255 853.743 113.786 855.589 112.849C857.464 111.911 858.885 110.534 859.852 108.718C860.848 106.901 861.478 104.646 861.741 101.95ZM260.13 165.016H283.377C288.24 165.016 292.415 165.748 295.901 167.213C299.388 168.678 302.068 170.846 303.943 173.717C305.818 176.588 306.756 180.118 306.756 184.308C306.756 187.618 306.17 190.489 304.998 192.921C303.826 195.353 302.171 197.389 300.032 199.029C297.923 200.67 295.433 201.959 292.562 202.896L288.782 204.83H268.26L268.172 195.294H283.509C285.999 195.294 288.064 194.854 289.705 193.976C291.346 193.097 292.576 191.881 293.396 190.328C294.246 188.775 294.671 187.003 294.671 185.011C294.671 182.872 294.261 181.026 293.44 179.474C292.62 177.892 291.375 176.676 289.705 175.826C288.035 174.977 285.926 174.552 283.377 174.552H272.215V229H260.13V165.016ZM296.253 229L281.443 200.348L294.231 200.304L309.217 228.385V229H296.253ZM337.825 229.879C334.222 229.879 330.984 229.293 328.113 228.121C325.242 226.949 322.796 225.323 320.774 223.243C318.782 221.134 317.244 218.688 316.16 215.904C315.105 213.092 314.578 210.074 314.578 206.852V205.094C314.578 201.432 315.105 198.106 316.16 195.118C317.215 192.101 318.709 189.508 320.643 187.34C322.576 185.172 324.891 183.502 327.586 182.33C330.281 181.158 333.255 180.572 336.507 180.572C339.876 180.572 342.85 181.144 345.428 182.286C348.006 183.399 350.159 184.981 351.888 187.032C353.616 189.083 354.92 191.544 355.799 194.415C356.678 197.257 357.117 200.406 357.117 203.863V208.741H319.852V200.743H345.691V199.864C345.633 198.019 345.281 196.334 344.637 194.811C343.992 193.258 342.996 192.027 341.648 191.119C340.301 190.182 338.558 189.713 336.419 189.713C334.69 189.713 333.182 190.094 331.893 190.855C330.633 191.588 329.578 192.643 328.729 194.02C327.908 195.367 327.293 196.979 326.883 198.854C326.473 200.729 326.268 202.809 326.268 205.094V206.852C326.268 208.844 326.531 210.689 327.059 212.389C327.615 214.088 328.421 215.567 329.476 216.827C330.56 218.058 331.849 219.024 333.343 219.728C334.866 220.401 336.595 220.738 338.528 220.738C340.96 220.738 343.157 220.27 345.12 219.332C347.112 218.365 348.841 216.944 350.306 215.069L356.15 221.134C355.154 222.599 353.807 224.005 352.107 225.353C350.438 226.7 348.416 227.799 346.043 228.648C343.67 229.469 340.931 229.879 337.825 229.879ZM395.13 181.451H405.677V227.55C405.677 231.856 404.739 235.504 402.864 238.492C401.019 241.51 398.426 243.795 395.086 245.348C391.746 246.93 387.864 247.721 383.44 247.721C381.536 247.721 379.471 247.457 377.244 246.93C375.047 246.402 372.923 245.567 370.872 244.425C368.851 243.312 367.166 241.861 365.818 240.074L371.048 233.219C372.63 235.064 374.417 236.456 376.409 237.394C378.401 238.36 380.555 238.844 382.869 238.844C385.213 238.844 387.205 238.404 388.846 237.525C390.516 236.676 391.79 235.416 392.669 233.746C393.577 232.105 394.031 230.084 394.031 227.682V192.306L395.13 181.451ZM363.006 205.797V204.874C363.006 201.241 363.445 197.945 364.324 194.986C365.203 191.998 366.463 189.435 368.104 187.296C369.773 185.157 371.78 183.502 374.124 182.33C376.497 181.158 379.163 180.572 382.122 180.572C385.257 180.572 387.894 181.144 390.032 182.286C392.2 183.429 393.987 185.055 395.394 187.164C396.829 189.273 397.942 191.778 398.733 194.679C399.554 197.55 400.184 200.714 400.623 204.171V206.676C400.213 210.045 399.554 213.136 398.646 215.948C397.767 218.761 396.595 221.222 395.13 223.331C393.665 225.411 391.849 227.022 389.681 228.165C387.513 229.308 384.964 229.879 382.034 229.879C379.104 229.879 376.468 229.278 374.124 228.077C371.78 226.876 369.773 225.191 368.104 223.023C366.463 220.855 365.203 218.307 364.324 215.377C363.445 212.447 363.006 209.254 363.006 205.797ZM374.607 204.874V205.797C374.607 207.848 374.812 209.767 375.223 211.554C375.633 213.341 376.263 214.923 377.112 216.3C377.962 217.647 379.031 218.702 380.32 219.464C381.609 220.226 383.147 220.606 384.935 220.606C387.337 220.606 389.3 220.108 390.823 219.112C392.376 218.087 393.548 216.695 394.339 214.938C395.159 213.15 395.687 211.144 395.921 208.917V202.018C395.774 200.26 395.452 198.634 394.954 197.14C394.485 195.646 393.826 194.356 392.977 193.272C392.127 192.188 391.043 191.339 389.725 190.724C388.406 190.108 386.839 189.801 385.022 189.801C383.265 189.801 381.727 190.196 380.408 190.987C379.09 191.749 378.006 192.818 377.156 194.195C376.307 195.572 375.662 197.169 375.223 198.985C374.812 200.802 374.607 202.765 374.607 204.874ZM428.44 181.451V229H416.795V181.451H428.44ZM416.004 169.015C416.004 167.286 416.59 165.851 417.762 164.708C418.963 163.565 420.574 162.994 422.596 162.994C424.617 162.994 426.214 163.565 427.386 164.708C428.587 165.851 429.188 167.286 429.188 169.015C429.188 170.714 428.587 172.135 427.386 173.277C426.214 174.42 424.617 174.991 422.596 174.991C420.574 174.991 418.963 174.42 417.762 173.277C416.59 172.135 416.004 170.714 416.004 169.015ZM465.662 215.992C465.662 214.996 465.398 214.103 464.871 213.312C464.344 212.521 463.348 211.803 461.883 211.158C460.447 210.484 458.338 209.854 455.555 209.269C453.094 208.741 450.823 208.082 448.743 207.291C446.663 206.5 444.876 205.548 443.382 204.435C441.888 203.292 440.716 201.959 439.866 200.436C439.046 198.883 438.636 197.096 438.636 195.074C438.636 193.111 439.061 191.266 439.91 189.537C440.76 187.779 441.99 186.241 443.602 184.923C445.213 183.575 447.176 182.521 449.49 181.759C451.805 180.968 454.412 180.572 457.312 180.572C461.355 180.572 464.827 181.231 467.728 182.55C470.657 183.868 472.898 185.685 474.451 187.999C476.004 190.284 476.78 192.862 476.78 195.733H465.179C465.179 194.474 464.886 193.331 464.3 192.306C463.743 191.28 462.879 190.46 461.707 189.845C460.535 189.2 459.056 188.878 457.269 188.878C455.657 188.878 454.295 189.142 453.182 189.669C452.098 190.196 451.277 190.885 450.721 191.734C450.164 192.584 449.886 193.521 449.886 194.547C449.886 195.309 450.032 195.997 450.325 196.612C450.647 197.198 451.16 197.74 451.863 198.238C452.566 198.736 453.519 199.19 454.72 199.601C455.95 200.011 457.459 200.406 459.246 200.787C462.791 201.49 465.882 202.428 468.519 203.6C471.185 204.742 473.265 206.266 474.759 208.17C476.253 210.074 477 212.506 477 215.465C477 217.574 476.546 219.508 475.638 221.266C474.729 222.994 473.411 224.503 471.683 225.792C469.954 227.081 467.889 228.092 465.486 228.824C463.084 229.527 460.374 229.879 457.356 229.879C452.991 229.879 449.3 229.103 446.282 227.55C443.265 225.968 440.979 223.976 439.427 221.573C437.874 219.142 437.098 216.622 437.098 214.015H448.216C448.304 215.86 448.802 217.34 449.71 218.453C450.618 219.566 451.761 220.372 453.138 220.87C454.544 221.339 456.023 221.573 457.576 221.573C459.334 221.573 460.813 221.339 462.015 220.87C463.216 220.372 464.124 219.713 464.739 218.893C465.354 218.043 465.662 217.076 465.662 215.992ZM508.333 181.451V189.801H481.087V181.451H508.333ZM488.382 169.762H500.027V215.289C500.027 216.695 500.218 217.779 500.599 218.541C500.979 219.303 501.551 219.815 502.312 220.079C503.074 220.343 503.982 220.475 505.037 220.475C505.799 220.475 506.502 220.431 507.146 220.343C507.791 220.255 508.333 220.167 508.772 220.079L508.816 228.78C507.85 229.103 506.751 229.366 505.521 229.571C504.319 229.776 502.957 229.879 501.434 229.879C498.826 229.879 496.541 229.439 494.578 228.561C492.615 227.652 491.092 226.202 490.008 224.21C488.924 222.188 488.382 219.522 488.382 216.212V169.762ZM527.669 191.163V229H516.067V181.451H527.054L527.669 191.163ZM542.127 181.144L541.951 191.954C541.307 191.837 540.574 191.749 539.754 191.69C538.963 191.632 538.216 191.603 537.513 191.603C535.726 191.603 534.158 191.852 532.811 192.35C531.463 192.818 530.335 193.507 529.427 194.415C528.548 195.323 527.874 196.437 527.405 197.755C526.937 199.044 526.673 200.509 526.614 202.149L524.109 201.842C524.109 198.824 524.417 196.026 525.032 193.448C525.647 190.87 526.541 188.614 527.713 186.681C528.885 184.747 530.35 183.253 532.107 182.198C533.895 181.114 535.945 180.572 538.26 180.572C538.904 180.572 539.593 180.631 540.325 180.748C541.087 180.836 541.688 180.968 542.127 181.144ZM573.196 218.893V196.964C573.196 195.353 572.918 193.961 572.361 192.789C571.805 191.617 570.955 190.709 569.812 190.064C568.67 189.42 567.22 189.098 565.462 189.098C563.909 189.098 562.547 189.361 561.375 189.889C560.232 190.416 559.354 191.163 558.738 192.13C558.123 193.067 557.815 194.151 557.815 195.382H546.17C546.17 193.419 546.639 191.559 547.576 189.801C548.514 188.014 549.847 186.432 551.575 185.055C553.333 183.648 555.428 182.55 557.859 181.759C560.32 180.968 563.074 180.572 566.121 180.572C569.725 180.572 572.933 181.188 575.745 182.418C578.587 183.619 580.813 185.436 582.425 187.867C584.065 190.299 584.886 193.36 584.886 197.052V217.794C584.886 220.167 585.032 222.203 585.325 223.902C585.647 225.572 586.116 227.022 586.731 228.253V229H574.91C574.354 227.799 573.929 226.275 573.636 224.43C573.343 222.555 573.196 220.709 573.196 218.893ZM574.822 200.04L574.91 206.939H567.571C565.755 206.939 564.158 207.13 562.781 207.511C561.404 207.862 560.276 208.39 559.397 209.093C558.519 209.767 557.859 210.587 557.42 211.554C556.98 212.491 556.761 213.561 556.761 214.762C556.761 215.934 557.024 216.988 557.552 217.926C558.108 218.863 558.899 219.61 559.925 220.167C560.979 220.694 562.21 220.958 563.616 220.958C565.667 220.958 567.454 220.548 568.978 219.728C570.501 218.878 571.688 217.853 572.537 216.651C573.387 215.45 573.841 214.308 573.899 213.224L577.239 218.233C576.829 219.435 576.214 220.709 575.394 222.057C574.573 223.404 573.519 224.664 572.229 225.836C570.94 227.008 569.388 227.975 567.571 228.736C565.755 229.498 563.646 229.879 561.243 229.879C558.167 229.879 555.413 229.264 552.981 228.033C550.55 226.803 548.631 225.118 547.225 222.979C545.818 220.841 545.115 218.409 545.115 215.685C545.115 213.165 545.584 210.938 546.521 209.005C547.459 207.071 548.851 205.445 550.696 204.127C552.542 202.779 554.827 201.769 557.552 201.095C560.306 200.392 563.455 200.04 567 200.04H574.822ZM617.845 181.451V189.801H590.599V181.451H617.845ZM597.894 169.762H609.539V215.289C609.539 216.695 609.729 217.779 610.11 218.541C610.491 219.303 611.062 219.815 611.824 220.079C612.586 220.343 613.494 220.475 614.549 220.475C615.311 220.475 616.014 220.431 616.658 220.343C617.303 220.255 617.845 220.167 618.284 220.079L618.328 228.78C617.361 229.103 616.263 229.366 615.032 229.571C613.831 229.776 612.469 229.879 610.945 229.879C608.338 229.879 606.053 229.439 604.09 228.561C602.127 227.652 600.604 226.202 599.52 224.21C598.436 222.188 597.894 219.522 597.894 216.212V169.762ZM637.884 181.451V229H626.238V181.451H637.884ZM625.447 169.015C625.447 167.286 626.033 165.851 627.205 164.708C628.406 163.565 630.018 162.994 632.039 162.994C634.061 162.994 635.657 163.565 636.829 164.708C638.03 165.851 638.631 167.286 638.631 169.015C638.631 170.714 638.03 172.135 636.829 173.277C635.657 174.42 634.061 174.991 632.039 174.991C630.018 174.991 628.406 174.42 627.205 173.277C626.033 172.135 625.447 170.714 625.447 169.015ZM646.893 205.709V204.786C646.893 201.3 647.391 198.092 648.387 195.162C649.383 192.203 650.833 189.64 652.737 187.472C654.642 185.304 656.971 183.619 659.725 182.418C662.479 181.188 665.613 180.572 669.129 180.572C672.703 180.572 675.867 181.188 678.621 182.418C681.404 183.619 683.748 185.304 685.652 187.472C687.557 189.64 689.007 192.203 690.003 195.162C690.999 198.092 691.497 201.3 691.497 204.786V205.709C691.497 209.166 690.999 212.374 690.003 215.333C689.007 218.263 687.557 220.826 685.652 223.023C683.748 225.191 681.419 226.876 678.665 228.077C675.911 229.278 672.762 229.879 669.217 229.879C665.701 229.879 662.552 229.278 659.769 228.077C656.985 226.876 654.642 225.191 652.737 223.023C650.833 220.826 649.383 218.263 648.387 215.333C647.391 212.374 646.893 209.166 646.893 205.709ZM658.494 204.786V205.709C658.494 207.789 658.699 209.737 659.109 211.554C659.52 213.37 660.149 214.967 660.999 216.344C661.849 217.721 662.947 218.805 664.295 219.596C665.672 220.357 667.312 220.738 669.217 220.738C671.092 220.738 672.703 220.357 674.051 219.596C675.398 218.805 676.497 217.721 677.347 216.344C678.226 214.967 678.87 213.37 679.28 211.554C679.69 209.737 679.896 207.789 679.896 205.709V204.786C679.896 202.735 679.69 200.816 679.28 199.029C678.87 197.213 678.226 195.616 677.347 194.239C676.497 192.833 675.384 191.734 674.007 190.943C672.659 190.123 671.033 189.713 669.129 189.713C667.254 189.713 665.643 190.123 664.295 190.943C662.947 191.734 661.849 192.833 660.999 194.239C660.149 195.616 659.52 197.213 659.109 199.029C658.699 200.816 658.494 202.735 658.494 204.786ZM711.316 191.603V229H699.715V181.451H710.613L711.316 191.603ZM709.471 203.512H706.043C706.072 200.055 706.541 196.92 707.449 194.107C708.357 191.295 709.632 188.878 711.272 186.856C712.942 184.835 714.92 183.282 717.205 182.198C719.49 181.114 722.039 180.572 724.852 180.572C727.137 180.572 729.202 180.895 731.048 181.539C732.894 182.184 734.476 183.209 735.794 184.615C737.142 186.021 738.167 187.867 738.87 190.152C739.603 192.408 739.969 195.191 739.969 198.502V229H728.279V198.414C728.279 196.246 727.957 194.532 727.312 193.272C726.697 192.013 725.789 191.119 724.588 190.592C723.416 190.064 721.966 189.801 720.237 189.801C718.45 189.801 716.883 190.167 715.535 190.899C714.217 191.603 713.104 192.584 712.195 193.844C711.316 195.104 710.643 196.554 710.174 198.194C709.705 199.835 709.471 201.607 709.471 203.512Z" fill="#E9A038"/>
<g clip-path="url(#clip0_160_2844)">
<path d="M182.241 1209.47H824.916C838.703 1198.09 851.258 1185.41 861.277 1170.64C879.489 1143.78 888.292 1108.82 877.446 1078.24C869.682 1056.34 853.028 1039.01 839.734 1019.96C805.063 970.265 793.069 905.376 807.689 846.572C818.62 802.604 843.592 761.73 845.11 716.449C846.218 683.34 833.913 649.974 811.573 625.515C787.497 599.156 753.713 584.052 720.345 571.361C686.975 558.674 652.406 547.38 623.538 526.376C594.67 505.373 571.87 472.147 573.895 436.505C574.586 424.31 578.122 412.208 576.827 400.061C573.068 364.808 530.783 346.168 495.485 349.483C472.037 351.686 449.231 360.383 430.271 374.354C406.706 391.719 389.629 416.48 367.319 435.431C307.6 486.153 220.774 488.197 151.348 524.518C129.305 536.048 107.97 552.535 99.9569 576.086C87.5845 612.456 110.381 650.29 129.526 683.597C151.363 721.588 169.965 763.423 169.1 807.236C168.066 859.595 139.637 907.069 110.769 950.763C98.304 969.628 85.4451 988.619 78.2139 1010.04C64.7537 1049.92 72.6627 1095.25 94.408 1131.29C114.928 1165.29 146.785 1191.43 182.241 1209.47Z" fill="#BDF7FF"/>
<path opacity="0.63" d="M499.973 1224.8C720.552 1224.8 899.366 1217.94 899.366 1209.47C899.366 1201.01 720.552 1194.14 499.973 1194.14C279.395 1194.14 100.581 1201.01 100.581 1209.47C100.581 1217.94 279.395 1224.8 499.973 1224.8Z" fill="#BFCAE0"/>
<path d="M766.24 377.113V383.428C766.24 385.752 767.803 387.79 770.051 388.377C776.874 390.161 783.322 392.866 789.265 396.341C791.274 397.516 793.818 397.183 795.462 395.539L799.93 391.071C801.937 389.067 805.186 389.067 807.193 391.071L822.097 405.975C824.103 407.981 824.103 411.231 822.097 413.237L817.642 417.692C815.996 419.338 815.665 421.885 816.843 423.894C820.329 429.839 823.04 436.293 824.831 443.121C825.421 445.369 827.454 446.929 829.778 446.929H836.052C838.888 446.929 841.187 449.229 841.187 452.064V473.143C841.187 475.98 838.888 478.277 836.052 478.277H829.778C827.456 478.277 825.421 479.838 824.831 482.085C823.04 488.913 820.329 495.368 816.843 501.313C815.665 503.322 815.996 505.869 817.642 507.515L822.097 511.967C824.103 513.974 824.103 517.223 822.097 519.23L807.193 534.134C805.186 536.14 801.937 536.14 799.93 534.134L795.462 529.666C793.816 528.022 791.274 527.688 789.265 528.864C783.322 532.341 776.874 535.043 770.051 536.827C767.801 537.415 766.238 539.451 766.238 541.775V548.089C766.238 550.925 763.939 553.224 761.103 553.224H740.025C737.19 553.224 734.89 550.925 734.89 548.089V541.743C734.89 539.421 733.332 537.386 731.087 536.796C724.279 535.005 717.843 532.301 711.911 528.823C709.902 527.646 707.355 527.977 705.709 529.623L701.198 534.134C699.192 536.14 695.942 536.14 693.935 534.134L679.032 519.23C677.025 517.223 677.025 513.974 679.032 511.967L683.556 507.443C685.202 505.797 685.533 503.254 684.358 501.245C680.892 495.318 678.194 488.889 676.41 482.085C675.82 479.838 673.787 478.277 671.463 478.277H665.076C662.241 478.277 659.941 475.978 659.941 473.143V452.064C659.941 449.229 662.241 446.929 665.076 446.929H671.463C673.787 446.929 675.822 445.369 676.41 443.121C678.194 436.318 680.892 429.889 684.358 423.961C685.533 421.953 685.2 419.408 683.556 417.764L679.032 413.24C677.025 411.235 677.025 407.983 679.032 405.977L693.935 391.073C695.942 389.069 699.192 389.069 701.198 391.073L705.709 395.584C707.355 397.23 709.902 397.561 711.911 396.383C717.84 392.906 724.277 390.202 731.087 388.411C733.332 387.821 734.89 385.785 734.89 383.464V377.113C734.89 374.278 737.19 371.978 740.025 371.978H761.103C763.941 371.978 766.24 374.278 766.24 377.113ZM701.903 462.601C701.903 489.508 723.716 511.321 750.623 511.321C777.53 511.321 799.342 489.508 799.342 462.601C799.342 435.694 777.53 413.881 750.623 413.881C723.714 413.881 701.903 435.694 701.903 462.601Z" fill="#A9E3F7"/>
<path d="M858.388 571.943L855.235 573.762C854.075 574.433 853.508 575.798 853.863 577.091C854.94 581.011 855.449 585.011 855.426 588.979C855.42 590.321 856.318 591.494 857.613 591.841L861.133 592.785C862.712 593.208 863.648 594.832 863.227 596.411L860.081 608.148C859.658 609.727 858.034 610.663 856.456 610.242L852.949 609.303C851.652 608.956 850.285 609.524 849.623 610.693C847.659 614.147 845.218 617.361 842.324 620.223C841.372 621.165 841.18 622.631 841.849 623.79L843.657 626.923C844.475 628.339 843.991 630.15 842.574 630.968L832.051 637.043C830.634 637.861 828.824 637.377 828.006 635.96L826.198 632.828C825.529 631.668 824.162 631.1 822.869 631.454C818.944 632.528 814.94 633.035 810.967 633.01C809.625 633.001 808.45 633.9 808.101 635.197L807.161 638.703C806.738 640.282 805.114 641.219 803.536 640.797L791.798 637.651C790.22 637.228 789.283 635.604 789.704 634.026L790.648 630.506C790.994 629.211 790.427 627.844 789.26 627.18C785.813 625.214 782.603 622.775 779.746 619.883C778.804 618.931 777.336 618.737 776.176 619.406L773.023 621.225C771.607 622.043 769.796 621.559 768.979 620.142L762.903 609.619C762.085 608.202 762.572 606.391 763.986 605.574L767.155 603.745C768.315 603.076 768.88 601.712 768.528 600.419C767.459 596.505 766.954 592.51 766.981 588.549C766.99 587.207 766.092 586.031 764.795 585.682L761.243 584.729C759.665 584.306 758.728 582.682 759.149 581.104L762.295 569.366C762.718 567.788 764.342 566.849 765.921 567.272L769.483 568.227C770.778 568.574 772.145 568.006 772.809 566.84C774.769 563.401 777.203 560.198 780.083 557.347C781.036 556.406 781.227 554.94 780.559 553.78L778.717 550.591C777.899 549.175 778.385 547.364 779.8 546.547L790.323 540.471C791.74 539.653 793.55 540.138 794.368 541.554L796.208 544.743C796.877 545.903 798.244 546.47 799.536 546.114C803.446 545.045 807.434 544.538 811.393 544.561C812.735 544.567 813.908 543.669 814.258 542.374L815.212 538.811C815.636 537.232 817.259 536.293 818.838 536.717L830.576 539.863C832.154 540.286 833.091 541.91 832.67 543.489L831.717 547.04C831.371 548.337 831.938 549.704 833.107 550.366C836.552 552.325 839.757 554.758 842.615 557.642C843.556 558.593 845.022 558.786 846.182 558.115L849.35 556.287C850.767 555.469 852.578 555.956 853.395 557.37L859.471 567.893C860.291 569.314 859.804 571.125 858.388 571.943ZM800.59 570.4C790.436 576.262 786.957 589.247 792.819 599.401C798.68 609.556 811.665 613.035 821.82 607.173C831.974 601.311 835.453 588.326 829.591 578.172C823.729 568.017 810.744 564.538 800.59 570.4Z" fill="#8CD6EA"/>
<path d="M177.741 1209.47C162.405 997.674 103.396 960.566 90.1404 989.216C71.5367 1029.43 151.613 1037.04 164.281 1209.47H177.741Z" fill="#8CD6EA"/>
<path d="M165.819 1209.47C135.025 964.027 228.821 914.327 228.785 964.38C228.733 1035.04 191.01 1024.07 173.458 1209.47H165.819Z" fill="#8CD6EA"/>
<path d="M176.415 1209.47C162.02 1140.82 73.8472 1101.91 75.3245 1126.74C77.1982 1158.29 150.154 1153.58 162.067 1209.47H176.415Z" fill="#8CD6EA"/>
<path d="M177.741 1209.47C154.895 1072.18 20.2114 1011.4 25.4428 1060.79C29.4671 1098.78 143.195 1097.7 162.065 1209.47H177.741Z" fill="#A9E3F7"/>
<path d="M165.819 1209.47C174.955 1164.3 274.528 1098.88 276.104 1133.73C277.401 1162.36 207.119 1156.4 178.351 1209.47H165.819Z" fill="#A9E3F7"/>
<path d="M165.819 1209.47C182.088 1021.45 309.652 961.205 305.927 1028.84C303.063 1080.86 191.179 1056.4 177.741 1209.47H165.819Z" fill="#A9E3F7"/>
<path d="M844.529 1209.47C829.195 997.674 770.184 960.566 756.929 989.216C738.325 1029.43 818.401 1037.04 831.069 1209.47H844.529Z" fill="#8CD6EA"/>
<path d="M832.607 1209.47C801.813 964.027 895.609 914.327 895.573 964.38C895.521 1035.04 857.798 1024.07 840.246 1209.47H832.607Z" fill="#8CD6EA"/>
<path d="M843.203 1209.47C828.808 1140.82 740.635 1101.91 742.113 1126.74C743.986 1158.29 816.942 1153.58 828.855 1209.47H843.203Z" fill="#8CD6EA"/>
<path d="M844.529 1209.47C821.682 1072.18 686.999 1011.4 692.233 1060.79C696.257 1098.78 809.986 1097.7 828.857 1209.47H844.529Z" fill="#A9E3F7"/>
<path d="M832.607 1209.47C841.743 1164.3 941.315 1098.88 942.894 1133.73C944.191 1162.36 873.909 1156.4 845.139 1209.47H832.607Z" fill="#A9E3F7"/>
<path d="M832.607 1209.47C848.875 1021.45 976.442 961.205 972.715 1028.84C969.848 1080.86 857.967 1056.4 844.529 1209.47H832.607Z" fill="#A9E3F7"/>
<path d="M725.464 1209.47H230.048C226.808 1209.47 224.18 1206.84 224.18 1203.6V515.424C224.18 512.184 226.808 509.555 230.048 509.555H725.461C728.702 509.555 731.33 512.184 731.33 515.424V1203.61C731.33 1206.84 728.704 1209.47 725.464 1209.47Z" fill="#58258E"/>
<path d="M704.581 1175.38H250.931C249.801 1175.38 248.882 1174.47 248.882 1173.33V545.695C248.882 544.563 249.798 543.646 250.931 543.646H704.578C705.711 543.646 706.628 544.563 706.628 545.695V1173.33C706.628 1174.47 705.711 1175.38 704.581 1175.38Z" fill="#EBFCFC"/>
<path d="M477.771 451.974C456.721 451.974 439.694 469.042 439.694 490.053C439.694 511.062 456.721 528.132 477.771 528.132C498.78 528.132 515.807 511.064 515.807 490.053C515.807 469.042 498.78 451.974 477.771 451.974ZM477.771 504.966C469.522 504.966 462.856 498.3 462.856 490.051C462.856 481.802 469.519 475.136 477.771 475.136C485.979 475.136 492.686 481.799 492.686 490.051C492.683 498.3 485.979 504.966 477.771 504.966Z" fill="#E9A038"/>
<path d="M490.53 472.837C486.963 470.186 482.545 468.616 477.759 468.616C465.923 468.616 456.329 478.212 456.329 490.046C456.329 501.883 465.923 511.476 477.759 511.476C489.596 511.476 499.189 501.883 499.189 490.046C499.189 485.527 497.791 481.336 495.404 477.879" stroke="#FA2F67" stroke-miterlimit="10" stroke-linecap="round" stroke-linejoin="round"/>
<path d="M582.396 585.205H373.116C360.527 585.205 350.323 575.001 350.323 562.412V522.067C350.323 520.5 351.593 519.23 353.161 519.23H602.351C603.919 519.23 605.189 520.5 605.189 522.067V562.412C605.189 575.001 594.985 585.205 582.396 585.205Z" fill="#E9A038"/>
<path opacity="0.36" d="M605.191 519.237V555.26C605.191 571.805 591.783 585.214 575.237 585.214H380.293C363.747 585.214 350.337 571.805 350.337 555.26V519.237H355.636V545.758C355.636 562.304 369.044 575.712 385.589 575.712H569.938C586.484 575.712 599.892 562.304 599.892 545.758V519.237H605.191Z" fill="#FA2F67"/>
<path d="M571.341 519.23H384.168V493.74C384.168 491.702 385.821 490.049 387.859 490.049H567.648C569.686 490.049 571.339 491.702 571.339 493.74L571.341 519.23Z" fill="#E9A038"/>
<path opacity="0.36" d="M571.344 513.591H384.171V519.23H571.344V513.591Z" fill="#FA2F67"/>
<path d="M667.783 745.759H287.731V768.756H667.783V745.759Z" fill="#1C4670"/>
<path d="M667.783 809.821H287.731V832.819H667.783V809.821Z" fill="#1C4670"/>
<path d="M667.783 873.884H287.731V896.881H667.783V873.884Z" fill="#1C4670"/>
<path d="M667.783 937.947H287.731V960.944H667.783V937.947Z" fill="#1C4670"/>
<path d="M500 1002.01H287.731V1025.01H500V1002.01Z" fill="#1C4670"/>
<path d="M500 1066.07H287.731V1089.07H500V1066.07Z" fill="#1C4670"/>
<path d="M300.407 670.513C298.031 670.513 295.874 670.073 293.938 669.194C292.001 668.299 290.332 667.046 288.933 665.435C287.549 663.807 286.483 661.903 285.734 659.722C284.986 657.524 284.611 655.116 284.611 652.495V651.958C284.611 649.354 284.986 646.961 285.734 644.78C286.483 642.583 287.549 640.679 288.933 639.067C290.332 637.44 291.993 636.178 293.913 635.283C295.85 634.388 298.007 633.94 300.383 633.94C302.808 633.94 304.989 634.388 306.926 635.283C308.879 636.178 310.555 637.44 311.955 639.067C313.355 640.679 314.421 642.583 315.153 644.78C315.902 646.961 316.276 649.354 316.276 651.958V652.495C316.276 655.116 315.902 657.524 315.153 659.722C314.421 661.903 313.355 663.807 311.955 665.435C310.572 667.046 308.903 668.299 306.95 669.194C304.997 670.073 302.816 670.513 300.407 670.513ZM300.407 665.288C302.491 665.288 304.216 664.759 305.583 663.701C306.95 662.627 307.967 661.13 308.635 659.209C309.318 657.288 309.66 655.05 309.66 652.495V651.909C309.66 649.386 309.318 647.173 308.635 645.269C307.951 643.364 306.918 641.875 305.534 640.801C304.167 639.727 302.45 639.189 300.383 639.189C298.365 639.189 296.68 639.727 295.329 640.801C293.978 641.859 292.961 643.34 292.277 645.244C291.61 647.148 291.276 649.37 291.276 651.909V652.495C291.276 655.034 291.61 657.272 292.277 659.209C292.961 661.13 293.978 662.627 295.329 663.701C296.696 664.759 298.389 665.288 300.407 665.288ZM319.304 670V665.996L323.137 665.264V639.214L319.304 638.481V634.453H323.137H336.101C338.786 634.453 341.089 634.925 343.01 635.869C344.947 636.797 346.436 638.107 347.478 639.8C348.519 641.476 349.04 643.429 349.04 645.659C349.04 647.905 348.519 649.867 347.478 651.543C346.436 653.203 344.947 654.497 343.01 655.425C341.089 656.353 338.786 656.816 336.101 656.816H329.777V665.264L333.61 665.996V670H319.304ZM329.777 651.689H336.101C338.184 651.689 339.755 651.128 340.812 650.005C341.87 648.882 342.399 647.45 342.399 645.708C342.399 643.95 341.87 642.493 340.812 641.338C339.755 640.166 338.184 639.58 336.101 639.58H329.777V651.689ZM368.425 670.513C364.942 670.513 361.939 669.78 359.416 668.315C356.91 666.851 354.981 664.792 353.63 662.139C352.279 659.469 351.604 656.344 351.604 652.764V651.714C351.604 648.263 352.263 645.203 353.581 642.534C354.899 639.865 356.787 637.765 359.245 636.235C361.703 634.705 364.632 633.94 368.034 633.94C370.427 633.94 372.657 634.29 374.724 634.99C376.791 635.674 378.614 636.683 380.192 638.018V646.416H375.188L374.504 640.972C373.967 640.581 373.373 640.247 372.722 639.971C372.087 639.694 371.387 639.482 370.622 639.336C369.873 639.189 369.06 639.116 368.181 639.116C366.097 639.116 364.315 639.637 362.834 640.679C361.353 641.704 360.214 643.153 359.416 645.024C358.635 646.896 358.244 649.11 358.244 651.665V652.764C358.244 655.352 358.659 657.59 359.489 659.478C360.319 661.366 361.499 662.822 363.029 663.848C364.576 664.857 366.415 665.361 368.547 665.361C369.605 665.361 370.655 665.247 371.696 665.02C372.738 664.775 373.666 664.458 374.479 664.067L375.188 659.062H380.144V667.388C378.776 668.283 377.084 669.032 375.065 669.634C373.047 670.22 370.834 670.513 368.425 670.513ZM396.062 670V665.996L399.895 665.264V639.214L396.062 638.481V634.453H412.712C415.397 634.453 417.701 634.868 419.621 635.698C421.558 636.528 423.031 637.725 424.04 639.287C425.065 640.85 425.578 642.721 425.578 644.902C425.578 646.986 425.074 648.825 424.064 650.42C423.055 652.015 421.639 653.268 419.816 654.18C418.01 655.075 415.91 655.531 413.518 655.547L406.535 655.571V665.264L410.368 665.996V670H396.062ZM419.06 670L412.663 654.131L418.767 652.886L424.235 665.312L427.141 665.947V670H419.06ZM406.535 650.444H412.492C414.689 650.444 416.317 649.997 417.375 649.102C418.433 648.19 418.962 646.872 418.962 645.146C418.962 643.454 418.441 642.103 417.399 641.094C416.358 640.085 414.795 639.58 412.712 639.58H406.535V650.444ZM442.961 670.513C440.454 670.513 438.265 669.959 436.394 668.853C434.538 667.729 433.098 666.191 432.072 664.238C431.047 662.269 430.534 660.023 430.534 657.5V656.499C430.534 653.911 431.022 651.608 431.999 649.59C432.992 647.555 434.375 645.968 436.149 644.829C437.924 643.674 439.974 643.096 442.302 643.096C444.694 643.096 446.704 643.576 448.332 644.536C449.96 645.48 451.188 646.839 452.019 648.613C452.849 650.387 453.264 652.52 453.264 655.01V658.696H437.419L437.37 658.843C437.435 660.112 437.72 661.243 438.225 662.236C438.729 663.213 439.437 663.986 440.349 664.556C441.26 665.125 442.367 665.41 443.669 665.41C445.052 665.41 446.314 665.231 447.453 664.873C448.609 664.515 449.707 663.986 450.749 663.286L452.653 667.412C451.595 668.291 450.253 669.032 448.625 669.634C446.997 670.22 445.109 670.513 442.961 670.513ZM437.492 654.18H447.014V653.545C447.014 652.438 446.851 651.478 446.525 650.664C446.2 649.834 445.695 649.191 445.012 648.735C444.344 648.28 443.474 648.052 442.399 648.052C441.423 648.052 440.585 648.32 439.885 648.857C439.185 649.378 438.632 650.094 438.225 651.006C437.818 651.901 437.549 652.918 437.419 654.058L437.492 654.18ZM468.498 680.669C467.18 680.669 465.707 680.49 464.079 680.132C462.451 679.79 461.019 679.31 459.782 678.691L461.101 673.906C462.191 674.395 463.363 674.777 464.616 675.054C465.886 675.347 467.074 675.493 468.181 675.493C470.15 675.493 471.59 674.948 472.502 673.857C473.413 672.767 473.869 671.245 473.869 669.292V667.388C473.072 668.397 472.128 669.17 471.037 669.707C469.947 670.244 468.693 670.513 467.277 670.513C465.129 670.513 463.282 669.976 461.735 668.901C460.189 667.827 459.001 666.322 458.171 664.385C457.357 662.432 456.95 660.161 456.95 657.573V657.061C456.95 654.277 457.357 651.836 458.171 649.736C459.001 647.637 460.173 646.009 461.687 644.854C463.216 643.682 465.048 643.096 467.18 643.096C468.775 643.096 470.15 643.429 471.306 644.097C472.478 644.748 473.47 645.684 474.284 646.904L474.772 643.584H480.534V669.316C480.534 671.628 480.054 673.63 479.094 675.322C478.133 677.031 476.75 678.35 474.943 679.277C473.153 680.205 471.005 680.669 468.498 680.669ZM469.133 665.312C470.223 665.312 471.159 665.085 471.94 664.629C472.722 664.173 473.365 663.522 473.869 662.676V651.055C473.381 650.192 472.738 649.517 471.94 649.028C471.143 648.54 470.215 648.296 469.157 648.296C467.871 648.296 466.813 648.67 465.983 649.419C465.17 650.151 464.567 651.177 464.177 652.495C463.786 653.797 463.591 655.319 463.591 657.061V657.573C463.591 659.966 464.022 661.854 464.885 663.237C465.764 664.621 467.18 665.312 469.133 665.312ZM479.655 648.467L476.823 643.584H483.659V647.612L479.655 648.467ZM485.71 670V665.996L489.25 665.264V648.345L485.417 647.612V643.584H495.891V665.264L499.431 665.996V670H485.71ZM489.006 637.798V631.914H495.891V637.798H489.006ZM513.225 670.513C511.288 670.513 509.481 670.334 507.805 669.976C506.145 669.601 504.517 669.056 502.922 668.34L502.849 661.113H507.536L508.464 664.922C509.099 665.215 509.766 665.443 510.466 665.605C511.166 665.768 511.955 665.85 512.834 665.85C514.51 665.85 515.69 665.573 516.374 665.02C517.074 664.45 517.424 663.742 517.424 662.896C517.424 662.082 517.058 661.382 516.325 660.796C515.593 660.194 514.177 659.673 512.077 659.233C508.936 658.566 506.625 657.565 505.144 656.23C503.662 654.88 502.922 653.154 502.922 651.055C502.922 649.59 503.296 648.263 504.045 647.075C504.81 645.887 505.949 644.935 507.463 644.219C508.977 643.486 510.873 643.12 513.151 643.12C515.153 643.12 516.952 643.324 518.547 643.73C520.158 644.137 521.517 644.658 522.624 645.293L522.746 652.275H518.083L517.326 648.809C516.854 648.467 516.301 648.206 515.666 648.027C515.031 647.832 514.315 647.734 513.518 647.734C512.215 647.734 511.198 648.011 510.466 648.564C509.75 649.118 509.392 649.818 509.392 650.664C509.392 651.152 509.514 651.6 509.758 652.007C510.002 652.414 510.474 652.796 511.174 653.154C511.89 653.496 512.932 653.822 514.299 654.131C517.652 654.896 520.069 655.913 521.55 657.183C523.047 658.452 523.796 660.177 523.796 662.358C523.796 664.767 522.917 666.729 521.159 668.242C519.418 669.756 516.773 670.513 513.225 670.513ZM537.37 670.488C535.026 670.488 533.203 669.837 531.901 668.535C530.616 667.217 529.973 665.133 529.973 662.285V648.296H526.237V643.584H529.973V637.139H536.589V643.584H541.643V648.296H536.589V662.285C536.589 663.359 536.817 664.132 537.272 664.604C537.728 665.076 538.339 665.312 539.104 665.312C539.527 665.312 539.991 665.28 540.495 665.215C541 665.15 541.423 665.085 541.765 665.02L542.399 669.731C541.667 669.943 540.853 670.122 539.958 670.269C539.079 670.415 538.216 670.488 537.37 670.488ZM545.549 670V665.996L549.089 665.264V648.345L545.28 647.612V643.584H555.241L555.534 646.88L555.583 647.441C556.25 646.025 557.08 644.951 558.073 644.219C559.066 643.47 560.238 643.096 561.589 643.096C562.028 643.096 562.5 643.136 563.005 643.218C563.526 643.283 563.965 643.372 564.323 643.486L563.566 649.614L560.075 649.419C559.017 649.37 558.146 649.565 557.463 650.005C556.796 650.444 556.218 651.071 555.729 651.885V665.264L559.27 665.996V670H545.549ZM575.017 670.513C572.364 670.513 570.272 669.821 568.742 668.438C567.229 667.038 566.472 665.125 566.472 662.7C566.472 661.04 566.919 659.583 567.814 658.33C568.726 657.061 570.061 656.076 571.818 655.376C573.592 654.66 575.749 654.302 578.288 654.302H582.048V652.227C582.048 650.892 581.649 649.818 580.852 649.004C580.07 648.19 578.915 647.783 577.385 647.783C576.555 647.783 575.806 647.889 575.139 648.101C574.488 648.296 573.902 648.581 573.381 648.955L572.819 652.495H567.985L567.937 645.806C569.271 644.992 570.736 644.341 572.331 643.853C573.942 643.348 575.733 643.096 577.702 643.096C581.104 643.096 583.781 643.893 585.734 645.488C587.704 647.067 588.688 649.338 588.688 652.3V663.555C588.688 663.913 588.688 664.263 588.688 664.604C588.705 664.946 588.737 665.28 588.786 665.605L591.496 665.996V670H583.073C582.894 669.495 582.723 668.983 582.561 668.462C582.414 667.925 582.308 667.388 582.243 666.851C581.381 667.941 580.347 668.828 579.143 669.512C577.954 670.179 576.579 670.513 575.017 670.513ZM576.652 665.508C577.775 665.508 578.825 665.247 579.802 664.727C580.795 664.206 581.543 663.547 582.048 662.749V658.452H578.264C576.555 658.452 575.261 658.851 574.382 659.648C573.519 660.43 573.088 661.357 573.088 662.432C573.088 663.408 573.397 664.165 574.016 664.702C574.634 665.239 575.513 665.508 576.652 665.508ZM603.776 670.488C601.433 670.488 599.61 669.837 598.308 668.535C597.022 667.217 596.379 665.133 596.379 662.285V648.296H592.644V643.584H596.379V637.139H602.995V643.584H608.049V648.296H602.995V662.285C602.995 663.359 603.223 664.132 603.679 664.604C604.134 665.076 604.745 665.312 605.51 665.312C605.933 665.312 606.397 665.28 606.901 665.215C607.406 665.15 607.829 665.085 608.171 665.02L608.806 669.731C608.073 669.943 607.259 670.122 606.364 670.269C605.485 670.415 604.623 670.488 603.776 670.488ZM611.833 670V665.996L615.373 665.264V648.345L611.54 647.612V643.584H622.014V665.264L625.554 665.996V670H611.833ZM615.129 637.798V631.914H622.014V637.798H615.129ZM640.617 670.513C638.029 670.513 635.816 669.943 633.977 668.804C632.137 667.664 630.721 666.086 629.729 664.067C628.736 662.033 628.239 659.697 628.239 657.061V656.548C628.239 653.927 628.736 651.608 629.729 649.59C630.721 647.572 632.137 645.985 633.977 644.829C635.816 643.674 638.013 643.096 640.568 643.096C643.14 643.096 645.345 643.674 647.185 644.829C649.024 645.968 650.432 647.547 651.408 649.565C652.401 651.584 652.897 653.911 652.897 656.548V657.061C652.897 659.697 652.401 662.033 651.408 664.067C650.432 666.086 649.024 667.664 647.185 668.804C645.345 669.943 643.156 670.513 640.617 670.513ZM640.617 665.41C641.903 665.41 642.961 665.06 643.791 664.36C644.637 663.66 645.264 662.684 645.671 661.431C646.078 660.161 646.281 658.704 646.281 657.061V656.548C646.281 654.92 646.078 653.48 645.671 652.227C645.264 650.973 644.637 649.997 643.791 649.297C642.945 648.581 641.87 648.223 640.568 648.223C639.266 648.223 638.192 648.581 637.346 649.297C636.516 649.997 635.897 650.973 635.49 652.227C635.083 653.48 634.88 654.92 634.88 656.548V657.061C634.88 658.721 635.083 660.177 635.49 661.431C635.897 662.684 636.524 663.66 637.37 664.36C638.216 665.06 639.299 665.41 640.617 665.41ZM655.949 670V665.996L659.489 665.264V648.345L655.681 647.612V643.584H665.642L665.959 647.393C666.838 646.042 667.928 644.992 669.23 644.243C670.549 643.478 672.038 643.096 673.698 643.096C676.351 643.096 678.426 643.934 679.924 645.61C681.438 647.271 682.194 649.883 682.194 653.447V665.264L685.734 665.996V670H672.282V665.996L675.529 665.264V653.496C675.529 651.608 675.155 650.273 674.406 649.492C673.658 648.695 672.543 648.296 671.062 648.296C669.955 648.296 668.986 648.54 668.156 649.028C667.342 649.5 666.667 650.176 666.13 651.055V665.264L669.255 665.996V670H655.949Z" fill="#E9A038"/>
<path d="M684.344 1184.86L653.415 1173.2L637.246 1202L620.928 1157.19L617.933 1148.99L600.885 1102.16L617.933 1095.94L648.008 1085.01L668.612 1141.63L684.344 1184.86Z" fill="#FAAF20"/>
<path d="M634.981 1102.16L617.933 1148.99L614.963 1157.19L598.645 1202L582.45 1173.2L551.521 1184.86L567.254 1141.63L587.88 1085.01L617.933 1095.94L634.981 1102.16Z" fill="#FAAF20"/>
<path opacity="0.36" d="M668.612 1141.63C666.835 1141.92 664.91 1141.56 663.158 1140.27C661.793 1139.27 660.284 1138.83 658.822 1138.83C654.974 1138.83 651.371 1141.88 651.395 1146.26V1146.28C651.395 1153.44 642.214 1156.44 638 1150.62C636.492 1148.52 634.251 1147.55 632.035 1147.55C629.015 1147.55 626.045 1149.35 624.973 1152.69C624.265 1154.93 622.732 1156.44 620.93 1157.2L617.935 1148.99L614.965 1157.2C613.138 1156.47 611.627 1154.96 610.898 1152.69C609.826 1149.36 606.855 1147.55 603.835 1147.55C601.619 1147.55 599.379 1148.52 597.868 1150.62C596.334 1152.74 594.14 1153.69 591.949 1153.69C588.175 1153.69 584.473 1150.81 584.497 1146.26C584.497 1141.88 580.917 1138.83 577.07 1138.83C575.609 1138.83 574.1 1139.27 572.735 1140.27C571.348 1141.29 569.837 1141.73 568.375 1141.73C567.986 1141.73 567.621 1141.71 567.256 1141.64L587.882 1085.01L617.935 1095.95L648.011 1085.01L668.612 1141.63Z" fill="#FA2F67"/>
<path d="M624.263 988.234C625.927 993.425 632.789 994.512 635.978 990.089C639.755 984.849 648.035 987.538 648.011 993.999C647.99 999.449 654.181 1002.6 658.579 999.383C663.79 995.566 670.835 1000.68 668.815 1006.82C667.11 1012 672.024 1016.91 677.201 1015.21C683.338 1013.19 688.454 1020.23 684.637 1025.44C681.417 1029.84 684.57 1036.03 690.022 1036.01C696.483 1035.99 699.172 1044.26 693.931 1048.04C689.508 1051.23 690.596 1058.09 695.787 1059.76C701.939 1061.73 701.939 1070.43 695.787 1072.41C690.596 1074.07 689.51 1080.93 693.931 1084.12C699.172 1087.9 696.483 1096.18 690.022 1096.15C684.572 1096.13 681.417 1102.32 684.637 1106.72C688.454 1111.94 683.338 1118.98 677.201 1116.96C672.024 1115.25 667.11 1120.17 668.815 1125.34C670.835 1131.48 663.793 1136.6 658.579 1132.78C654.181 1129.56 647.99 1132.72 648.011 1138.17C648.035 1144.63 639.757 1147.31 635.978 1142.07C632.792 1137.65 625.927 1138.74 624.263 1143.93C622.29 1150.08 613.587 1150.08 611.612 1143.93C609.947 1138.74 603.085 1137.65 599.897 1142.07C596.12 1147.31 587.842 1144.63 587.864 1138.17C587.884 1132.72 581.694 1129.56 577.296 1132.78C572.082 1136.6 565.04 1131.48 567.06 1125.34C568.765 1120.17 563.851 1115.25 558.674 1116.96C552.537 1118.98 547.421 1111.94 551.238 1106.72C554.458 1102.32 551.305 1096.13 545.853 1096.15C539.392 1096.18 536.703 1087.9 541.944 1084.12C546.367 1080.94 545.279 1074.07 540.088 1072.41C533.936 1070.43 533.936 1061.73 540.088 1059.76C545.279 1058.09 546.364 1051.23 541.944 1048.04C536.703 1044.26 539.392 1035.99 545.853 1036.01C551.303 1036.03 554.458 1029.84 551.238 1025.44C547.421 1020.23 552.537 1013.19 558.674 1015.21C563.851 1016.91 568.765 1012 567.06 1006.82C565.04 1000.68 572.082 995.566 577.296 999.383C581.694 1002.6 587.884 999.449 587.864 993.999C587.839 987.538 596.118 984.849 599.897 990.089C603.083 994.512 609.947 993.425 611.612 988.234C613.587 982.081 622.29 982.081 624.263 988.234Z" fill="#FAAF20"/>
<path d="M677.832 1075.68C683.155 1042.58 660.64 1011.43 627.541 1006.11C594.443 1000.79 563.296 1023.3 557.973 1056.4C552.649 1089.5 575.165 1120.65 608.263 1125.97C641.361 1131.29 672.508 1108.78 677.832 1075.68Z" fill="#58258E"/>
<path d="M617.937 1121.59C648.596 1121.59 673.449 1096.74 673.449 1066.08C673.449 1035.42 648.596 1010.57 617.937 1010.57C587.279 1010.57 562.426 1035.42 562.426 1066.08C562.426 1096.74 587.279 1121.59 617.937 1121.59Z" fill="white"/>
<path d="M201.164 1190.06C201.164 1190.06 198.928 1208.25 200.907 1209.47C204.686 1209.47 238.732 1209.47 238.732 1209.47C239.606 1209.37 241.759 1202.05 238.365 1199.81C235.298 1197.79 229.924 1196.88 227.886 1195.58C224.88 1193.66 224.261 1191.35 224.175 1190.06C223.445 1179.2 207.722 1179.7 207.722 1179.7C207.722 1179.7 202.47 1179.76 201.164 1190.06Z" fill="#260040"/>
<path d="M161.855 1190.06C161.855 1190.06 164.092 1208.25 162.112 1209.47C158.333 1209.47 128.814 1209.47 128.814 1209.47C127.94 1209.37 125.79 1202.05 129.181 1199.81C132.248 1197.79 133.482 1197.92 135.52 1196.61C138.527 1194.69 138.759 1191.35 138.847 1190.06C139.576 1179.2 155.3 1179.7 155.3 1179.7C155.3 1179.7 160.551 1179.76 161.855 1190.06Z" fill="#260040"/>
<path d="M264.783 857.456C264.783 857.456 265.873 861 266.927 863.462C267.981 865.923 266.459 874.294 266.459 874.294L259.495 868.668V861.003L264.783 857.456Z" fill="#FCB788"/>
<path d="M196.387 733.377C196.387 733.377 203.243 739.307 205.024 747.195C206.805 755.082 203.398 752.675 204.416 761.325C205.434 769.974 202.634 782.018 198.054 784.14C193.473 786.259 163.119 782.074 163.119 782.074L196.387 733.377Z" fill="#FCB788"/>
<path d="M240.786 896.577L236.881 894.323C236.298 893.985 236.097 893.24 236.435 892.657L263.781 845.29C264.119 844.707 264.864 844.507 265.447 844.844L269.35 847.099C269.933 847.437 270.134 848.182 269.796 848.765L242.45 896.131C242.114 896.715 241.369 896.915 240.786 896.577Z" fill="#58258E"/>
<path d="M242.419 894.307L237.516 891.477C237.5 891.468 237.536 891.375 237.597 891.269L263.162 846.991C263.222 846.885 263.286 846.808 263.301 846.817L268.204 849.648C268.22 849.657 268.184 849.749 268.123 849.855L242.558 894.134C242.497 894.238 242.434 894.316 242.419 894.307Z" fill="#D9F3F4"/>
<path d="M266.096 849.553L264.285 848.509C263.95 848.281 264.173 847.774 264.531 847.155L265.175 846.038C265.267 845.889 265.418 845.871 265.547 845.944L267.916 847.31C267.981 847.347 268.044 847.437 267.938 847.63L267.292 848.75C266.936 849.369 266.456 849.749 266.096 849.553Z" fill="#FA2F67"/>
<path d="M267.706 847.189L265.677 846.018L266.141 845.212C266.279 844.991 266.425 845.002 266.583 845.083L268.206 846.02C268.328 846.088 268.29 846.175 268.231 846.277L267.706 847.189Z" fill="#FA2F67"/>
<path d="M257.881 855.535C257.881 855.535 252.564 849.947 251.676 851.202C250.433 852.956 253.113 854.744 253.811 856.827C252.208 857.118 251.706 858.982 251.791 859.404C250.638 859.901 250.422 862.637 250.422 863.532C249.343 864.295 249.467 865.488 249.604 866.265C249.787 867.292 250.334 869.587 251.278 867.952C252.221 866.317 251.426 865.957 251.426 865.957C251.426 865.957 252.179 867.015 253.014 866.078C254.095 864.865 253.338 863.137 252.973 862.297C252.973 862.297 253.469 865.067 255.131 863.498C256.329 862.365 255.604 859.478 255.604 859.478L257.881 855.535Z" fill="#FCB788"/>
<path d="M188.845 780.48C192.805 781.057 204.751 784.739 192.881 784.736C193.349 789.884 193.061 797.246 193.061 797.246H160.808L163.119 782.072C163.119 782.072 182.911 779.615 188.845 780.48Z" fill="#F4A671"/>
<path d="M160.808 737.791C160.808 737.791 158.777 729.161 175.262 728.385C191.746 727.61 204.193 721.917 207.292 721.725C210.391 721.534 203.044 731.585 203.044 731.585C205.718 732.078 209.001 730.434 209.553 733.379C209.44 740.498 201.576 745.734 197.732 746.745C198.489 767.337 189.314 770.727 188.846 780.482C188.805 781.311 163.279 782.577 163.119 782.074C159.063 769.382 157.295 764.835 154.386 759.059C150.327 751.001 153.131 738.266 160.808 737.791Z" fill="#260040"/>
<path d="M240.094 935.578C240.094 935.578 241.617 946.624 241.279 968.553C240.784 1000.67 225.477 1187.4 224.173 1189.04C222.869 1190.68 202.623 1190.29 201.164 1189.04C199.707 1187.79 198.579 1078.43 198.579 1078.43L191.622 1023.23C191.622 1023.23 162.783 1188.3 161.729 1189.04C160.675 1189.78 139.989 1189.79 138.966 1189.04C137.944 1188.29 147.708 1079.67 147.708 1079.67C147.708 1079.67 150.51 971.287 150.974 966.488C152.854 947.069 156.804 935.578 156.804 935.578H240.094Z" fill="#FAAF20"/>
<path d="M198.002 759.057C198.002 759.057 194.762 751.668 192.05 755.559C189.339 759.449 192.579 770.882 195.027 768.524C197.475 766.166 198.002 759.057 198.002 759.057Z" fill="#FCB788"/>
<path d="M267.035 869.463C267.587 871.366 267.422 875.087 265.607 878.505C261.723 885.829 250.618 895.857 247.571 897.199C244.756 898.44 240.052 898.789 240.052 898.789C240.052 898.789 242.301 934.747 240.099 935.573C229.519 939.548 159.718 939.269 156.815 935.573C154.563 932.706 152.291 913.801 150.237 901.813C150.237 901.813 139.421 899.793 137.187 896.861C134.951 893.952 128.737 816.125 134.363 809.767C143.179 799.802 161.767 790.889 161.767 790.889H193.061C193.061 790.889 225.578 799.138 233.582 804.378C239.085 807.984 246.317 847.752 250.188 870.709L260.864 864.399C260.862 864.403 265.148 862.971 267.035 869.463Z" fill="#44D5F4"/>
<path d="M136.568 821.543C136.568 821.543 148.132 864.122 150.183 894.307" stroke="#260040" stroke-width="0.25" stroke-miterlimit="10" stroke-linecap="round" stroke-linejoin="round"/>
<path d="M217.856 835.278C217.856 835.278 221.2 859.088 235.762 897.113" stroke="#260040" stroke-width="0.25" stroke-miterlimit="10" stroke-linecap="round" stroke-linejoin="round"/>
<path d="M784.578 772.467C784.578 772.467 783.419 807.785 776.453 817.07C769.49 826.355 799.392 813.422 799.392 813.422L803.313 788.218L784.578 772.467Z" fill="#260040"/>
<path d="M745.333 1187.61C743.059 1197.08 744.669 1207.59 742.788 1209.47C739.75 1209.47 715.368 1209.47 707.211 1209.47C707.211 1202.3 710.107 1200.95 712.693 1199.7C716.631 1197.78 726.862 1197.37 728.95 1189.4C730.598 1183.09 748.634 1173.88 745.333 1187.61Z" fill="#FA2F67"/>
<path d="M813.888 1187.49C814.942 1197.17 816.145 1207.59 814.264 1209.47C811.227 1209.47 797.917 1209.47 789.76 1209.47C788.716 1201.91 791.992 1198.42 793.735 1196.96C797.088 1194.14 797.318 1192.58 797.055 1189.4C796.514 1182.9 812.524 1174.97 813.888 1187.49Z" fill="#FA2F67"/>
<path d="M834.954 929.95C834.954 929.95 844.218 945.07 845.173 966.027C846.126 986.984 825.628 1057.47 824.639 1062.23C823.651 1067 830.218 1073.55 827.56 1099.74C824.903 1125.94 814.778 1178.47 813.929 1187.49C813.618 1190.79 797.568 1192.25 797.093 1189.4C796.616 1186.54 792.15 1078.43 792.564 1066.04C792.979 1053.66 781.829 939.895 781.829 939.895L834.954 929.95Z" fill="#260040"/>
<path d="M803.261 929.95C803.261 929.95 811.474 945.07 810.97 966.027C810.465 986.984 778.859 1064.17 777.541 1068.93C776.221 1073.69 778.744 1082.22 776.291 1095.43C771.44 1121.56 749.38 1174.24 744.997 1189.27C744.482 1191.04 728.788 1192.25 728.511 1189.4C728.234 1186.54 745.799 1080.35 745.736 1067.9C745.592 1039.68 763.23 939.273 763.23 939.273L803.261 929.95Z" fill="#260040"/>
<path d="M828.956 902.667C828.956 902.667 828.796 904.734 829.247 907.168C830.47 913.778 834.658 928.267 834.956 929.95C835.251 931.632 830.314 937.525 809.925 939.595C789.535 941.665 754.697 932.332 754.834 929.673C754.971 927.013 766.598 908.328 766.605 896.911C766.612 885.495 761.32 852.807 761.32 852.807L746.445 860.797L739.131 844.939C739.131 844.939 761.743 816.368 770.265 812.177C778.784 807.986 796.573 805.169 796.573 805.169L822.635 803.878C822.635 803.878 844.234 812.452 846.671 816.793C849.107 821.135 846.921 888.779 845.214 891.26C843.502 893.749 828.956 902.667 828.956 902.667Z" fill="#FAAF20"/>
<path d="M797.372 797.185C797.372 797.185 796.451 803.932 794.152 808.378C791.853 812.823 787.975 829.096 790.276 829.249C792.575 829.402 815.467 809.911 816.845 805.004C818.226 800.097 812.244 786.45 812.244 786.45L797.372 797.185Z" fill="#F4A671"/>
<path d="M779.002 762.739C778.84 765.29 779.779 772.01 779.741 776.228C779.595 792.553 789.555 802.923 793.668 802.923C797.777 802.923 812.949 797.435 817.232 788.391C821.518 779.347 819.138 752.042 819.138 752.042H779.205C779.205 752.042 779.365 757.019 779.002 762.739Z" fill="#FCB788"/>
<path d="M805.587 765.054C805.587 765.054 790.612 771.13 780.304 768.88C769.997 766.63 769.004 752.071 778.469 747.387C787.934 742.703 811.857 739.861 821.363 747.666C829.918 754.692 831.927 800.737 829.677 807.858C827.427 814.978 809.81 820.946 804.563 817.07C799.316 813.197 805.13 801.77 808.13 792.402C811.13 783.034 805.587 765.054 805.587 765.054Z" fill="#260040"/>
<path d="M839.19 817.854C839.19 817.854 832.089 822.649 830.504 834.278C828.918 845.907 833.602 875.528 830.889 878.048C828.175 880.568 825.074 882.324 825.074 882.324" stroke="#260040" stroke-width="0.25" stroke-miterlimit="10" stroke-linecap="round" stroke-linejoin="round"/>
<path d="M814.557 951.859H683.286C679.807 951.859 676.987 949.04 676.987 945.561V814.289C676.987 810.81 679.807 807.99 683.286 807.99H814.557C818.037 807.99 820.856 810.81 820.856 814.289V945.561C820.856 949.04 818.037 951.859 814.557 951.859Z" fill="#12C2C6"/>
<path d="M804.694 941.996H693.147C689.668 941.996 686.849 939.176 686.849 935.697V824.153C686.849 820.674 689.668 817.854 693.147 817.854H804.694C808.173 817.854 810.992 820.674 810.992 824.153V935.697C810.992 939.176 808.173 941.996 804.694 941.996Z" fill="#44D5F4"/>
<path opacity="0.36" d="M802.02 939.323H695.821C692.341 939.323 689.522 936.503 689.522 933.024V826.824C689.522 823.345 692.341 820.525 695.821 820.525H802.02C805.5 820.525 808.319 823.345 808.319 826.824V933.024C808.319 936.503 805.5 939.323 802.02 939.323Z" fill="#44D5F4"/>
<path d="M794.307 846.558L732.352 908.513L703.536 879.696" stroke="white" stroke-width="7" stroke-miterlimit="10" stroke-linecap="round" stroke-linejoin="round"/>
<path d="M821.948 906.202C821.043 906.846 817.365 909.844 817.302 907.824C817.239 905.804 821.138 902.791 821.138 902.791C821.138 902.791 812.965 907.042 812.965 904.198C812.965 901.354 820.962 897.989 820.962 897.989C820.962 897.989 810.866 903.302 810.866 900.214C810.866 897.127 820.861 891.927 820.861 891.927C820.861 891.927 812.609 895.812 813.003 893.242C813.397 890.673 820.876 886.22 820.876 886.22L820.861 883.133C822.39 883.261 826.443 883.723 826.768 886.853C826.887 888.006 825.504 889.691 825.504 892.859C825.504 903.013 823.441 905.139 821.948 906.202Z" fill="#FCB788"/>
<path d="M675.715 852.744C676.789 853.51 678.671 854.577 678.748 852.179C678.825 849.778 676.678 848.691 676.678 848.691C676.678 848.691 682.588 851.922 682.588 848.542C682.588 845.162 676.888 842.982 676.888 842.982C676.888 842.982 685.083 847.475 685.083 843.806C685.083 840.138 677.007 835.778 677.007 835.778C677.007 835.778 687.24 836.688 687.042 834.555C686.747 831.373 676.985 829.923 676.982 829.481C676.98 828.594 676.98 828.961 676.98 828.015C675.19 827.853 667.344 829.88 671.458 833.458C672.001 833.931 669.168 833.575 670.512 837.926C671.726 841.851 670.467 844.315 670.729 846.295C671.352 851.04 674.386 851.796 675.715 852.744Z" fill="#FCB788"/>
<path d="M785.855 779.521C785.855 780.505 785.058 781.3 784.076 781.3C783.095 781.3 782.297 780.502 782.297 779.521C782.297 778.539 783.095 777.741 784.076 777.741C785.058 777.739 785.855 778.536 785.855 779.521Z" fill="#260040"/>
<path d="M799.843 779.521C799.843 780.505 799.045 781.3 798.064 781.3C797.079 781.3 796.284 780.502 796.284 779.521C796.284 778.539 797.082 777.741 798.064 777.741C799.048 777.739 799.843 778.536 799.843 779.521Z" fill="#260040"/>
<path d="M786.006 775.307C786.006 775.307 783.943 773.936 781.583 775.307" stroke="#260040" stroke-width="0.5" stroke-miterlimit="10" stroke-linecap="round" stroke-linejoin="round"/>
<path d="M800.07 774.978C800.07 774.978 798.007 773.607 795.645 774.978" stroke="#260040" stroke-width="0.5" stroke-miterlimit="10" stroke-linecap="round" stroke-linejoin="round"/>
<path d="M789.166 781.165C789.387 784.142 787.065 788.936 788.092 789.222C789.351 789.574 790.691 789.222 790.691 789.222" stroke="#260040" stroke-width="0.5" stroke-miterlimit="10" stroke-linecap="round" stroke-linejoin="round"/>
<path d="M788.301 794.055C788.301 794.055 792.451 794.913 795.314 793.769" stroke="#260040" stroke-width="0.5" stroke-miterlimit="10" stroke-linecap="round" stroke-linejoin="round"/>
<path d="M243.772 393.582L249.661 412.269C249.704 412.406 249.812 412.514 249.952 412.557L268.639 418.446C269.051 418.577 269.051 419.16 268.639 419.291L249.952 425.18C249.814 425.222 249.706 425.33 249.661 425.47L243.772 444.157C243.641 444.569 243.058 444.569 242.928 444.157L237.039 425.47C236.996 425.333 236.888 425.225 236.75 425.18L218.063 419.291C217.651 419.16 217.651 418.577 218.063 418.446L236.75 412.557C236.888 412.514 236.996 412.406 237.039 412.269L242.928 393.582C243.056 393.17 243.641 393.17 243.772 393.582Z" fill="#FCCA73"/>
<path d="M904.979 468.927L910.868 487.614C910.911 487.751 911.019 487.86 911.157 487.902L929.844 493.791C930.256 493.922 930.256 494.505 929.844 494.636L911.157 500.525C911.019 500.568 910.911 500.676 910.868 500.813L904.979 519.5C904.849 519.912 904.265 519.912 904.135 519.5L898.246 500.813C898.203 500.676 898.095 500.568 897.955 500.525L879.268 494.636C878.856 494.505 878.856 493.922 879.268 493.791L897.955 487.902C898.093 487.86 898.201 487.751 898.246 487.614L904.135 468.927C904.265 468.515 904.849 468.515 904.979 468.927Z" fill="#FCCA73"/>
<path d="M166.031 543.802L168.976 553.145C168.999 553.213 169.053 553.267 169.12 553.289L178.464 556.235C178.671 556.3 178.671 556.593 178.464 556.658L169.12 559.602C169.05 559.624 168.996 559.678 168.976 559.746L166.031 569.089C165.965 569.296 165.672 569.296 165.607 569.089L162.664 559.746C162.641 559.676 162.587 559.622 162.52 559.602L153.176 556.658C152.969 556.593 152.969 556.3 153.176 556.235L162.52 553.289C162.59 553.267 162.644 553.213 162.664 553.145L165.607 543.802C165.672 543.594 165.965 543.594 166.031 543.802Z" fill="#FCCA73"/>
<path d="M342.691 439.329L345.634 448.673C345.657 448.742 345.711 448.796 345.778 448.817L355.122 451.762C355.329 451.828 355.329 452.12 355.122 452.186L345.778 455.129C345.709 455.152 345.655 455.206 345.634 455.273L342.691 464.617C342.626 464.824 342.333 464.824 342.268 464.617L339.324 455.273C339.302 455.203 339.248 455.149 339.18 455.129L329.837 452.186C329.629 452.12 329.629 451.828 329.837 451.762L339.18 448.817C339.25 448.794 339.304 448.74 339.324 448.673L342.268 439.329C342.333 439.124 342.626 439.124 342.691 439.329Z" fill="#FCCA73"/>
<path d="M879.171 618.658L882.115 628.002C882.137 628.071 882.191 628.125 882.259 628.146L891.602 631.089C891.81 631.154 891.81 631.447 891.602 631.512L882.259 634.456C882.189 634.478 882.135 634.532 882.115 634.6L879.171 643.943C879.106 644.151 878.813 644.151 878.748 643.943L875.805 634.6C875.782 634.53 875.728 634.478 875.661 634.456L866.317 631.512C866.11 631.447 866.11 631.154 866.317 631.089L875.661 628.146C875.73 628.123 875.784 628.069 875.805 628.002L878.748 618.658C878.813 618.453 879.106 618.453 879.171 618.658Z" fill="#FCCA73"/>
<path d="M853.249 406.225L856.192 415.568C856.215 415.638 856.269 415.692 856.336 415.712L865.68 418.656C865.887 418.721 865.887 419.014 865.68 419.079L856.336 422.022C856.266 422.045 856.212 422.099 856.192 422.167L853.249 431.51C853.183 431.717 852.891 431.717 852.825 431.51L849.882 422.167C849.86 422.097 849.805 422.043 849.738 422.022L840.394 419.079C840.187 419.014 840.187 418.721 840.394 418.656L849.738 415.712C849.808 415.69 849.862 415.636 849.882 415.568L852.825 406.225C852.891 406.02 853.183 406.02 853.249 406.225Z" fill="#FCCA73"/>
</g>
<defs>
<clipPath id="clip0_160_2844">
<rect width="1000" height="1035" fill="white" transform="translate(0 219)"/>
</clipPath>
</defs>
</svg>
