<svg width="938" height="810" viewBox="0 0 938 810" fill="none" xmlns="http://www.w3.org/2000/svg">
<g clip-path="url(#clip0_1281_1902)">
<rect width="938" height="810" fill="white"/>
<g filter="url(#filter0_d_1281_1902)">
<path fill-rule="evenodd" clip-rule="evenodd" d="M72.0271 576C57.6571 576 46.0121 587.657 46.0271 602.027L46.1887 757.236C46.2036 771.585 57.8398 783.209 72.1887 783.209H194.651H862.627C876.986 783.209 888.627 771.569 888.627 757.209V602C888.627 587.641 876.986 576 862.627 576H72.0271Z" fill="white"/>
</g>
<path d="M169.791 672.965H176.139C175.936 675.385 175.258 677.544 174.107 679.439C172.956 681.318 171.34 682.799 169.258 683.883C167.176 684.966 164.645 685.508 161.666 685.508C159.381 685.508 157.324 685.102 155.496 684.289C153.668 683.46 152.102 682.292 150.799 680.785C149.495 679.262 148.497 677.425 147.803 675.275C147.126 673.126 146.787 670.722 146.787 668.064V664.992C146.787 662.335 147.134 659.931 147.828 657.781C148.539 655.632 149.555 653.795 150.875 652.271C152.195 650.731 153.778 649.555 155.623 648.742C157.485 647.93 159.576 647.523 161.895 647.523C164.84 647.523 167.328 648.065 169.359 649.148C171.391 650.232 172.965 651.73 174.082 653.643C175.216 655.555 175.91 657.747 176.164 660.219H169.816C169.647 658.628 169.275 657.265 168.699 656.131C168.141 654.997 167.311 654.133 166.211 653.541C165.111 652.932 163.672 652.627 161.895 652.627C160.439 652.627 159.169 652.898 158.086 653.439C157.003 653.981 156.097 654.777 155.369 655.826C154.641 656.876 154.091 658.171 153.719 659.711C153.363 661.234 153.186 662.978 153.186 664.941V668.064C153.186 669.926 153.346 671.619 153.668 673.143C154.007 674.649 154.514 675.944 155.191 677.027C155.885 678.111 156.766 678.949 157.832 679.541C158.898 680.133 160.176 680.43 161.666 680.43C163.477 680.43 164.941 680.142 166.059 679.566C167.193 678.991 168.048 678.153 168.623 677.053C169.215 675.936 169.605 674.573 169.791 672.965ZM180.15 671.568V670.984C180.15 669.004 180.438 667.167 181.014 665.475C181.589 663.765 182.419 662.284 183.502 661.031C184.602 659.762 185.939 658.78 187.514 658.086C189.105 657.375 190.899 657.02 192.896 657.02C194.911 657.02 196.705 657.375 198.279 658.086C199.87 658.78 201.216 659.762 202.316 661.031C203.417 662.284 204.255 663.765 204.83 665.475C205.406 667.167 205.693 669.004 205.693 670.984V671.568C205.693 673.549 205.406 675.385 204.83 677.078C204.255 678.771 203.417 680.252 202.316 681.521C201.216 682.774 199.879 683.756 198.305 684.467C196.73 685.161 194.945 685.508 192.947 685.508C190.933 685.508 189.13 685.161 187.539 684.467C185.965 683.756 184.628 682.774 183.527 681.521C182.427 680.252 181.589 678.771 181.014 677.078C180.438 675.385 180.15 673.549 180.15 671.568ZM186.27 670.984V671.568C186.27 672.804 186.396 673.972 186.65 675.072C186.904 676.173 187.302 677.137 187.844 677.967C188.385 678.796 189.079 679.448 189.926 679.922C190.772 680.396 191.779 680.633 192.947 680.633C194.081 680.633 195.063 680.396 195.893 679.922C196.739 679.448 197.433 678.796 197.975 677.967C198.516 677.137 198.914 676.173 199.168 675.072C199.439 673.972 199.574 672.804 199.574 671.568V670.984C199.574 669.766 199.439 668.615 199.168 667.531C198.914 666.431 198.508 665.458 197.949 664.611C197.408 663.765 196.714 663.105 195.867 662.631C195.038 662.14 194.048 661.895 192.896 661.895C191.745 661.895 190.747 662.14 189.9 662.631C189.071 663.105 188.385 663.765 187.844 664.611C187.302 665.458 186.904 666.431 186.65 667.531C186.396 668.615 186.27 669.766 186.27 670.984ZM216.941 663.113V685H210.822V657.527H216.586L216.941 663.113ZM215.951 670.248L213.869 670.223C213.869 668.327 214.106 666.575 214.58 664.967C215.054 663.359 215.748 661.962 216.662 660.777C217.576 659.576 218.71 658.653 220.064 658.01C221.436 657.35 223.018 657.02 224.812 657.02C226.065 657.02 227.208 657.206 228.24 657.578C229.29 657.934 230.195 658.501 230.957 659.279C231.736 660.058 232.328 661.057 232.734 662.275C233.158 663.494 233.369 664.967 233.369 666.693V685H227.25V667.227C227.25 665.889 227.047 664.84 226.641 664.078C226.251 663.316 225.684 662.775 224.939 662.453C224.212 662.115 223.34 661.945 222.324 661.945C221.173 661.945 220.191 662.165 219.379 662.605C218.583 663.046 217.932 663.646 217.424 664.408C216.916 665.17 216.544 666.05 216.307 667.049C216.07 668.048 215.951 669.114 215.951 670.248ZM232.988 668.623L230.119 669.258C230.119 667.599 230.348 666.033 230.805 664.561C231.279 663.071 231.964 661.768 232.861 660.65C233.775 659.516 234.901 658.628 236.238 657.984C237.576 657.341 239.107 657.02 240.834 657.02C242.239 657.02 243.492 657.214 244.592 657.604C245.709 657.976 246.657 658.568 247.436 659.381C248.214 660.193 248.807 661.251 249.213 662.555C249.619 663.841 249.822 665.398 249.822 667.227V685H243.678V667.201C243.678 665.813 243.475 664.738 243.068 663.977C242.679 663.215 242.12 662.69 241.393 662.402C240.665 662.098 239.793 661.945 238.777 661.945C237.829 661.945 236.992 662.123 236.264 662.479C235.553 662.817 234.952 663.299 234.461 663.926C233.97 664.535 233.598 665.238 233.344 666.033C233.107 666.829 232.988 667.692 232.988 668.623ZM262.264 662.809V695.562H256.145V657.527H261.781L262.264 662.809ZM280.164 671.01V671.543C280.164 673.54 279.927 675.394 279.453 677.104C278.996 678.796 278.311 680.277 277.396 681.547C276.499 682.799 275.391 683.773 274.07 684.467C272.75 685.161 271.227 685.508 269.5 685.508C267.79 685.508 266.292 685.195 265.006 684.568C263.736 683.925 262.661 683.02 261.781 681.852C260.901 680.684 260.19 679.312 259.648 677.738C259.124 676.147 258.751 674.404 258.531 672.508V670.451C258.751 668.437 259.124 666.609 259.648 664.967C260.19 663.325 260.901 661.911 261.781 660.727C262.661 659.542 263.736 658.628 265.006 657.984C266.275 657.341 267.757 657.02 269.449 657.02C271.176 657.02 272.708 657.358 274.045 658.035C275.382 658.695 276.508 659.643 277.422 660.879C278.336 662.098 279.021 663.57 279.479 665.297C279.936 667.007 280.164 668.911 280.164 671.01ZM274.045 671.543V671.01C274.045 669.74 273.926 668.564 273.689 667.48C273.452 666.38 273.08 665.415 272.572 664.586C272.064 663.757 271.413 663.113 270.617 662.656C269.839 662.182 268.899 661.945 267.799 661.945C266.715 661.945 265.785 662.132 265.006 662.504C264.227 662.859 263.576 663.359 263.051 664.002C262.526 664.645 262.12 665.398 261.832 666.262C261.544 667.108 261.341 668.031 261.223 669.029V673.955C261.426 675.174 261.773 676.291 262.264 677.307C262.755 678.322 263.449 679.135 264.346 679.744C265.26 680.337 266.428 680.633 267.85 680.633C268.95 680.633 269.889 680.396 270.668 679.922C271.447 679.448 272.081 678.796 272.572 677.967C273.08 677.12 273.452 676.147 273.689 675.047C273.926 673.947 274.045 672.779 274.045 671.543ZM300.857 679.49V666.389C300.857 665.407 300.68 664.561 300.324 663.85C299.969 663.139 299.427 662.589 298.699 662.199C297.988 661.81 297.091 661.615 296.008 661.615C295.009 661.615 294.146 661.785 293.418 662.123C292.69 662.462 292.123 662.919 291.717 663.494C291.311 664.07 291.107 664.721 291.107 665.449H285.014C285.014 664.366 285.276 663.316 285.801 662.301C286.326 661.285 287.087 660.38 288.086 659.584C289.085 658.788 290.278 658.162 291.666 657.705C293.054 657.248 294.611 657.02 296.338 657.02C298.403 657.02 300.231 657.367 301.822 658.061C303.43 658.755 304.691 659.804 305.605 661.209C306.536 662.597 307.002 664.34 307.002 666.439V678.652C307.002 679.905 307.087 681.031 307.256 682.029C307.442 683.011 307.704 683.866 308.043 684.594V685H301.771C301.484 684.34 301.255 683.502 301.086 682.486C300.934 681.454 300.857 680.455 300.857 679.49ZM301.746 668.293L301.797 672.076H297.404C296.27 672.076 295.271 672.186 294.408 672.406C293.545 672.609 292.826 672.914 292.25 673.32C291.674 673.727 291.243 674.217 290.955 674.793C290.667 675.368 290.523 676.02 290.523 676.748C290.523 677.476 290.693 678.145 291.031 678.754C291.37 679.346 291.861 679.812 292.504 680.15C293.164 680.489 293.96 680.658 294.891 680.658C296.143 680.658 297.235 680.404 298.166 679.896C299.114 679.372 299.859 678.737 300.4 677.992C300.942 677.23 301.23 676.511 301.264 675.834L303.244 678.551C303.041 679.245 302.694 679.99 302.203 680.785C301.712 681.581 301.069 682.342 300.273 683.07C299.495 683.781 298.555 684.365 297.455 684.822C296.372 685.279 295.119 685.508 293.697 685.508C291.903 685.508 290.303 685.152 288.898 684.441C287.493 683.714 286.393 682.74 285.598 681.521C284.802 680.286 284.404 678.889 284.404 677.332C284.404 675.876 284.675 674.59 285.217 673.473C285.775 672.339 286.588 671.391 287.654 670.629C288.738 669.867 290.058 669.292 291.615 668.902C293.173 668.496 294.95 668.293 296.947 668.293H301.746ZM319.469 663.393V685H313.35V657.527H319.113L319.469 663.393ZM318.377 670.248L316.396 670.223C316.413 668.276 316.684 666.49 317.209 664.865C317.751 663.24 318.495 661.844 319.443 660.676C320.408 659.508 321.559 658.611 322.896 657.984C324.234 657.341 325.723 657.02 327.365 657.02C328.686 657.02 329.879 657.206 330.945 657.578C332.029 657.934 332.951 658.518 333.713 659.33C334.492 660.143 335.084 661.201 335.49 662.504C335.896 663.79 336.1 665.373 336.1 667.252V685H329.955V667.227C329.955 665.906 329.76 664.865 329.371 664.104C328.999 663.325 328.449 662.775 327.721 662.453C327.01 662.115 326.121 661.945 325.055 661.945C324.005 661.945 323.066 662.165 322.236 662.605C321.407 663.046 320.704 663.646 320.129 664.408C319.57 665.17 319.139 666.05 318.834 667.049C318.529 668.048 318.377 669.114 318.377 670.248ZM348.896 657.527V685H342.752V657.527H348.896ZM342.346 650.316C342.346 649.385 342.65 648.615 343.26 648.006C343.886 647.38 344.749 647.066 345.85 647.066C346.933 647.066 347.788 647.38 348.414 648.006C349.04 648.615 349.354 649.385 349.354 650.316C349.354 651.23 349.04 651.992 348.414 652.602C347.788 653.211 346.933 653.516 345.85 653.516C344.749 653.516 343.886 653.211 343.26 652.602C342.65 651.992 342.346 651.23 342.346 650.316ZM367.711 685.508C365.68 685.508 363.843 685.178 362.201 684.518C360.576 683.84 359.188 682.901 358.037 681.699C356.903 680.497 356.031 679.084 355.422 677.459C354.812 675.834 354.508 674.082 354.508 672.203V671.188C354.508 669.038 354.821 667.091 355.447 665.348C356.074 663.604 356.945 662.115 358.062 660.879C359.18 659.626 360.5 658.67 362.023 658.01C363.547 657.35 365.197 657.02 366.975 657.02C368.938 657.02 370.656 657.35 372.129 658.01C373.602 658.67 374.82 659.601 375.785 660.803C376.767 661.988 377.495 663.401 377.969 665.043C378.46 666.685 378.705 668.496 378.705 670.477V673.092H357.479V668.699H372.662V668.217C372.628 667.117 372.408 666.084 372.002 665.119C371.613 664.154 371.012 663.376 370.199 662.783C369.387 662.191 368.303 661.895 366.949 661.895C365.934 661.895 365.028 662.115 364.232 662.555C363.454 662.978 362.802 663.596 362.277 664.408C361.753 665.221 361.346 666.202 361.059 667.354C360.788 668.488 360.652 669.766 360.652 671.188V672.203C360.652 673.405 360.813 674.522 361.135 675.555C361.473 676.57 361.964 677.459 362.607 678.221C363.251 678.982 364.029 679.583 364.943 680.023C365.857 680.447 366.898 680.658 368.066 680.658C369.539 680.658 370.851 680.362 372.002 679.77C373.153 679.177 374.152 678.339 374.998 677.256L378.223 680.379C377.63 681.242 376.86 682.072 375.912 682.867C374.964 683.646 373.805 684.281 372.434 684.771C371.079 685.262 369.505 685.508 367.711 685.508ZM398.891 677.561C398.891 676.951 398.738 676.401 398.434 675.91C398.129 675.402 397.545 674.945 396.682 674.539C395.835 674.133 394.583 673.76 392.924 673.422C391.468 673.1 390.131 672.719 388.912 672.279C387.71 671.822 386.678 671.272 385.814 670.629C384.951 669.986 384.283 669.224 383.809 668.344C383.335 667.464 383.098 666.448 383.098 665.297C383.098 664.18 383.343 663.122 383.834 662.123C384.325 661.124 385.027 660.244 385.941 659.482C386.855 658.721 387.964 658.12 389.268 657.68C390.588 657.24 392.061 657.02 393.686 657.02C395.988 657.02 397.96 657.409 399.602 658.188C401.26 658.949 402.53 659.99 403.41 661.311C404.29 662.614 404.73 664.087 404.73 665.729H398.611C398.611 665.001 398.425 664.324 398.053 663.697C397.697 663.054 397.156 662.538 396.428 662.148C395.7 661.742 394.786 661.539 393.686 661.539C392.636 661.539 391.764 661.708 391.07 662.047C390.393 662.368 389.885 662.792 389.547 663.316C389.225 663.841 389.064 664.417 389.064 665.043C389.064 665.5 389.149 665.915 389.318 666.287C389.505 666.643 389.809 666.973 390.232 667.277C390.656 667.565 391.231 667.836 391.959 668.09C392.704 668.344 393.635 668.589 394.752 668.826C396.851 669.266 398.654 669.833 400.16 670.527C401.684 671.204 402.852 672.085 403.664 673.168C404.477 674.234 404.883 675.589 404.883 677.23C404.883 678.449 404.62 679.566 404.096 680.582C403.588 681.581 402.843 682.452 401.861 683.197C400.88 683.925 399.703 684.492 398.332 684.898C396.978 685.305 395.454 685.508 393.762 685.508C391.273 685.508 389.166 685.068 387.439 684.188C385.713 683.29 384.401 682.148 383.504 680.76C382.624 679.355 382.184 677.899 382.184 676.393H388.1C388.167 677.527 388.48 678.432 389.039 679.109C389.615 679.77 390.326 680.252 391.172 680.557C392.035 680.844 392.924 680.988 393.838 680.988C394.938 680.988 395.861 680.844 396.605 680.557C397.35 680.252 397.917 679.846 398.307 679.338C398.696 678.813 398.891 678.221 398.891 677.561ZM438.195 652.957L427.15 685H420.473L434.387 648.031H438.652L438.195 652.957ZM447.438 685L436.367 652.957L435.885 648.031H440.176L454.141 685H447.438ZM446.904 671.289V676.342H426.795V671.289H446.904ZM468.893 680.633C469.891 680.633 470.788 680.438 471.584 680.049C472.396 679.643 473.048 679.084 473.539 678.373C474.047 677.662 474.326 676.841 474.377 675.91H480.141C480.107 677.688 479.582 679.304 478.566 680.76C477.551 682.215 476.205 683.375 474.529 684.238C472.854 685.085 471 685.508 468.969 685.508C466.87 685.508 465.042 685.152 463.484 684.441C461.927 683.714 460.632 682.715 459.6 681.445C458.567 680.176 457.788 678.712 457.264 677.053C456.756 675.394 456.502 673.617 456.502 671.721V670.832C456.502 668.936 456.756 667.159 457.264 665.5C457.788 663.824 458.567 662.352 459.6 661.082C460.632 659.812 461.927 658.822 463.484 658.111C465.042 657.383 466.861 657.02 468.943 657.02C471.144 657.02 473.074 657.46 474.732 658.34C476.391 659.203 477.695 660.413 478.643 661.971C479.607 663.511 480.107 665.305 480.141 667.354H474.377C474.326 666.338 474.072 665.424 473.615 664.611C473.175 663.782 472.549 663.122 471.736 662.631C470.941 662.14 469.984 661.895 468.867 661.895C467.632 661.895 466.607 662.148 465.795 662.656C464.982 663.147 464.348 663.824 463.891 664.688C463.434 665.534 463.104 666.49 462.9 667.557C462.714 668.606 462.621 669.698 462.621 670.832V671.721C462.621 672.855 462.714 673.955 462.9 675.021C463.087 676.088 463.408 677.044 463.865 677.891C464.339 678.72 464.982 679.389 465.795 679.896C466.607 680.387 467.64 680.633 468.893 680.633ZM497.432 657.527V661.996H481.943V657.527H497.432ZM486.412 650.799H492.531V677.408C492.531 678.255 492.65 678.906 492.887 679.363C493.141 679.803 493.488 680.1 493.928 680.252C494.368 680.404 494.884 680.48 495.477 680.48C495.9 680.48 496.306 680.455 496.695 680.404C497.085 680.354 497.398 680.303 497.635 680.252L497.66 684.924C497.152 685.076 496.56 685.212 495.883 685.33C495.223 685.449 494.461 685.508 493.598 685.508C492.193 685.508 490.949 685.262 489.865 684.771C488.782 684.264 487.936 683.443 487.326 682.309C486.717 681.174 486.412 679.668 486.412 677.789V650.799ZM507.893 679.109L507.867 683.477C507.867 685.203 507.436 686.98 506.572 688.809C505.709 690.637 504.566 692.143 503.145 693.328L499.869 691.424C500.343 690.662 500.775 689.892 501.164 689.113C501.553 688.335 501.867 687.505 502.104 686.625C502.34 685.745 502.459 684.771 502.459 683.705V679.109H507.893ZM551.158 680.125V685H526.377V680.811L538.412 667.684C539.732 666.194 540.773 664.908 541.535 663.824C542.297 662.741 542.83 661.768 543.135 660.904C543.456 660.024 543.617 659.169 543.617 658.34C543.617 657.172 543.397 656.148 542.957 655.268C542.534 654.37 541.908 653.668 541.078 653.16C540.249 652.635 539.242 652.373 538.057 652.373C536.686 652.373 535.535 652.669 534.604 653.262C533.673 653.854 532.97 654.675 532.496 655.725C532.022 656.757 531.785 657.942 531.785 659.279H525.666C525.666 657.13 526.157 655.166 527.139 653.389C528.12 651.594 529.542 650.173 531.404 649.123C533.266 648.057 535.509 647.523 538.133 647.523C540.604 647.523 542.703 647.938 544.43 648.768C546.156 649.597 547.468 650.773 548.365 652.297C549.279 653.82 549.736 655.623 549.736 657.705C549.736 658.856 549.55 659.999 549.178 661.133C548.805 662.267 548.272 663.401 547.578 664.535C546.901 665.652 546.097 666.778 545.166 667.912C544.235 669.029 543.211 670.163 542.094 671.314L534.096 680.125H551.158ZM580.027 663.418V669.461C580.027 672.355 579.74 674.827 579.164 676.875C578.605 678.906 577.793 680.557 576.727 681.826C575.66 683.096 574.382 684.027 572.893 684.619C571.42 685.212 569.77 685.508 567.941 685.508C566.486 685.508 565.132 685.322 563.879 684.949C562.643 684.577 561.526 683.993 560.527 683.197C559.529 682.402 558.674 681.378 557.963 680.125C557.269 678.855 556.727 677.34 556.338 675.58C555.965 673.82 555.779 671.78 555.779 669.461V663.418C555.779 660.507 556.067 658.052 556.643 656.055C557.218 654.04 558.039 652.407 559.105 651.154C560.172 649.885 561.441 648.962 562.914 648.387C564.404 647.811 566.062 647.523 567.891 647.523C569.363 647.523 570.717 647.71 571.953 648.082C573.206 648.438 574.323 649.005 575.305 649.783C576.303 650.562 577.15 651.577 577.844 652.83C578.555 654.066 579.096 655.564 579.469 657.324C579.841 659.068 580.027 661.099 580.027 663.418ZM573.908 670.324V662.504C573.908 661.031 573.824 659.736 573.654 658.619C573.485 657.485 573.231 656.529 572.893 655.75C572.571 654.954 572.165 654.311 571.674 653.82C571.183 653.312 570.624 652.949 569.998 652.729C569.372 652.492 568.669 652.373 567.891 652.373C566.943 652.373 566.096 652.559 565.352 652.932C564.607 653.287 563.98 653.863 563.473 654.658C562.965 655.454 562.576 656.503 562.305 657.807C562.051 659.093 561.924 660.659 561.924 662.504V670.324C561.924 671.814 562.008 673.126 562.178 674.26C562.347 675.394 562.601 676.367 562.939 677.18C563.278 677.975 563.684 678.635 564.158 679.16C564.649 679.668 565.208 680.04 565.834 680.277C566.477 680.514 567.18 680.633 567.941 680.633C568.906 680.633 569.761 680.447 570.506 680.074C571.251 679.702 571.877 679.109 572.385 678.297C572.893 677.467 573.273 676.393 573.527 675.072C573.781 673.752 573.908 672.169 573.908 670.324ZM602.193 647.904V685H596.074V655.166L587.01 658.238V653.186L601.457 647.904H602.193ZM622.227 663.748H625.883C627.305 663.748 628.481 663.503 629.412 663.012C630.36 662.521 631.062 661.844 631.52 660.98C631.977 660.117 632.205 659.127 632.205 658.01C632.205 656.842 631.993 655.843 631.57 655.014C631.164 654.167 630.538 653.516 629.691 653.059C628.862 652.602 627.804 652.373 626.518 652.373C625.434 652.373 624.452 652.593 623.572 653.033C622.709 653.456 622.023 654.066 621.516 654.861C621.008 655.64 620.754 656.571 620.754 657.654H614.609C614.609 655.691 615.126 653.947 616.158 652.424C617.191 650.9 618.596 649.707 620.373 648.844C622.167 647.964 624.182 647.523 626.416 647.523C628.803 647.523 630.885 647.921 632.662 648.717C634.456 649.495 635.853 650.663 636.852 652.221C637.85 653.778 638.35 655.708 638.35 658.01C638.35 659.059 638.104 660.126 637.613 661.209C637.122 662.292 636.395 663.283 635.43 664.18C634.465 665.06 633.263 665.779 631.824 666.338C630.385 666.88 628.718 667.15 626.822 667.15H622.227V663.748ZM622.227 668.521V665.17H626.822C628.989 665.17 630.834 665.424 632.357 665.932C633.898 666.439 635.15 667.142 636.115 668.039C637.08 668.919 637.783 669.926 638.223 671.061C638.68 672.195 638.908 673.396 638.908 674.666C638.908 676.393 638.595 677.933 637.969 679.287C637.359 680.624 636.488 681.758 635.354 682.689C634.219 683.62 632.891 684.323 631.367 684.797C629.861 685.271 628.219 685.508 626.441 685.508C624.85 685.508 623.327 685.288 621.871 684.848C620.415 684.408 619.112 683.756 617.961 682.893C616.81 682.012 615.896 680.921 615.219 679.617C614.559 678.297 614.229 676.773 614.229 675.047H620.348C620.348 676.147 620.602 677.12 621.109 677.967C621.634 678.796 622.362 679.448 623.293 679.922C624.241 680.396 625.324 680.633 626.543 680.633C627.829 680.633 628.938 680.404 629.869 679.947C630.8 679.49 631.511 678.813 632.002 677.916C632.51 677.019 632.764 675.936 632.764 674.666C632.764 673.227 632.484 672.059 631.926 671.162C631.367 670.265 630.572 669.605 629.539 669.182C628.507 668.742 627.288 668.521 625.883 668.521H622.227Z" fill="#30486E"/>
<path d="M858.794 572.844C864.519 564.79 858.752 553.633 848.871 553.633C845.219 553.633 842.665 553.633 842.775 553.633H742.092C733.284 553.633 725.969 560.474 725.969 569.279C725.969 609.616 725.969 671.861 725.969 711.089C725.969 722.682 735.545 732.099 747.142 732.099H835.506C847.096 732.099 856.545 722.682 856.545 711.089C856.545 676.858 856.545 605.388 856.545 579.86C856.545 577.334 857.331 574.903 858.794 572.844V572.844Z" fill="url(#paint0_linear_1281_1902)"/>
<path d="M772.406 675.625C766.599 675.625 762.107 673.997 758.93 670.742C755.779 667.487 754.203 662.799 754.203 656.68V625.664C754.203 619.206 755.701 614.258 758.695 610.82C761.716 607.357 766.286 605.625 772.406 605.625C778.552 605.625 783.122 607.357 786.117 610.82C789.112 614.258 790.609 619.206 790.609 625.664V656.68C790.609 662.799 789.034 667.487 785.883 670.742C782.732 673.997 778.24 675.625 772.406 675.625ZM772.406 662.969C773.474 662.969 774.307 662.487 774.906 661.523C775.505 660.56 775.805 659.479 775.805 658.281V624.336C775.805 622.721 775.622 621.315 775.258 620.117C774.919 618.893 773.969 618.281 772.406 618.281C770.844 618.281 769.88 618.893 769.516 620.117C769.177 621.315 769.008 622.721 769.008 624.336V658.281C769.008 659.479 769.307 660.56 769.906 661.523C770.531 662.487 771.365 662.969 772.406 662.969ZM811.078 675.781C805.01 675.781 800.596 674.18 797.836 670.977C795.076 667.773 793.695 662.943 793.695 656.484V649.297H807.797V656.523C807.797 658.346 808.018 659.896 808.461 661.172C808.93 662.422 809.958 663.047 811.547 663.047C813.161 663.047 814.19 662.37 814.633 661.016C815.076 659.635 815.297 657.396 815.297 654.297V652.578C815.297 650.208 814.893 648.138 814.086 646.367C813.305 644.596 811.755 643.711 809.438 643.711C809.151 643.711 808.891 643.724 808.656 643.75C808.448 643.75 808.266 643.763 808.109 643.789V631.445C810.479 631.445 812.289 630.924 813.539 629.883C814.789 628.815 815.414 627.044 815.414 624.57C815.414 620.69 814.294 618.75 812.055 618.75C810.596 618.75 809.607 619.323 809.086 620.469C808.591 621.589 808.344 623.021 808.344 624.766V626.836H794.125C794.099 626.523 794.073 626.146 794.047 625.703C794.047 625.26 794.047 624.831 794.047 624.414C794.047 618.112 795.518 613.49 798.461 610.547C801.404 607.604 805.909 606.133 811.977 606.133C823.695 606.133 829.555 612.227 829.555 624.414C829.555 627.799 829.099 630.599 828.188 632.812C827.276 635 825.583 636.536 823.109 637.422C825.062 638.359 826.508 639.557 827.445 641.016C828.383 642.474 828.995 644.284 829.281 646.445C829.568 648.607 829.711 651.224 829.711 654.297C829.711 661.172 828.266 666.471 825.375 670.195C822.51 673.919 817.745 675.781 811.078 675.781Z" fill="white"/>
<path d="M872.585 553.633C881.4 553.633 888.637 560.778 888.637 569.59V569.59C888.637 573.382 885.562 576.457 881.77 576.457H863.414C859.621 576.457 856.547 573.382 856.547 569.59V569.59C856.547 560.778 863.783 553.633 872.585 553.633Z" fill="url(#paint1_linear_1281_1902)"/>
<g filter="url(#filter1_d_1281_1902)">
<path fill-rule="evenodd" clip-rule="evenodd" d="M72.0271 320.367C57.6571 320.367 46.0121 332.024 46.0271 346.394L46.1887 501.603C46.2036 515.952 57.8398 527.576 72.1887 527.576H194.651H862.627C876.986 527.576 888.627 515.936 888.627 501.576V346.367C888.627 332.008 876.986 320.367 862.627 320.367H72.0271Z" fill="white"/>
</g>
<path d="M858.794 317.211C864.519 309.158 858.752 298 848.871 298C845.219 298 842.665 298 842.775 298H742.092C733.284 298 725.969 304.841 725.969 313.646C725.969 353.983 725.969 416.228 725.969 455.453C725.969 467.05 735.545 476.466 747.142 476.466H835.506C847.096 476.466 856.545 467.05 856.545 455.453C856.545 421.225 856.545 349.757 856.545 324.227C856.545 321.701 857.331 319.27 858.794 317.211V317.211Z" fill="url(#paint2_linear_1281_1902)"/>
<path d="M772.406 420C766.599 420 762.107 418.372 758.93 415.117C755.779 411.862 754.203 407.174 754.203 401.055V370.039C754.203 363.581 755.701 358.633 758.695 355.195C761.716 351.732 766.286 350 772.406 350C778.552 350 783.122 351.732 786.117 355.195C789.112 358.633 790.609 363.581 790.609 370.039V401.055C790.609 407.174 789.034 411.862 785.883 415.117C782.732 418.372 778.24 420 772.406 420ZM772.406 407.344C773.474 407.344 774.307 406.862 774.906 405.898C775.505 404.935 775.805 403.854 775.805 402.656V368.711C775.805 367.096 775.622 365.69 775.258 364.492C774.919 363.268 773.969 362.656 772.406 362.656C770.844 362.656 769.88 363.268 769.516 364.492C769.177 365.69 769.008 367.096 769.008 368.711V402.656C769.008 403.854 769.307 404.935 769.906 405.898C770.531 406.862 771.365 407.344 772.406 407.344ZM794.594 419.375V416.094C794.594 412.682 795.115 409.622 796.156 406.914C797.224 404.18 798.591 401.654 800.258 399.336C801.924 396.992 803.682 394.701 805.531 392.461C807.328 390.273 809.034 388.034 810.648 385.742C812.289 383.424 813.617 380.924 814.633 378.242C815.674 375.534 816.195 372.5 816.195 369.141C816.195 367.526 815.948 366.146 815.453 365C814.984 363.828 813.995 363.242 812.484 363.242C810.193 363.242 809.047 365.286 809.047 369.375V377.773H794.594C794.568 377.174 794.529 376.497 794.477 375.742C794.451 374.987 794.438 374.258 794.438 373.555C794.438 368.607 794.958 364.414 796 360.977C797.042 357.513 798.878 354.883 801.508 353.086C804.164 351.263 807.888 350.352 812.68 350.352C818.383 350.352 822.81 351.953 825.961 355.156C829.138 358.359 830.727 362.93 830.727 368.867C830.727 372.904 830.206 376.445 829.164 379.492C828.122 382.513 826.742 385.273 825.023 387.773C823.305 390.247 821.417 392.721 819.359 395.195C817.901 396.94 816.482 398.724 815.102 400.547C813.747 402.37 812.549 404.323 811.508 406.406H830.258V419.375H794.594Z" fill="white"/>
<path d="M872.585 298C881.4 298 888.637 305.145 888.637 313.957V313.957C888.637 317.749 885.562 320.824 881.77 320.824H863.414C859.621 320.824 856.547 317.749 856.547 313.957V313.957C856.547 305.145 863.783 298 872.585 298Z" fill="url(#paint3_linear_1281_1902)"/>
<g filter="url(#filter2_d_1281_1902)">
<path fill-rule="evenodd" clip-rule="evenodd" d="M72.0271 65C57.6571 65 46.0121 76.6571 46.0271 91.0271L46.1887 246.236C46.2036 260.585 57.8398 272.209 72.1887 272.209H194.651H862.627C876.986 272.209 888.627 260.569 888.627 246.209V91C888.627 76.6406 876.986 65 862.627 65H72.0271Z" fill="white"/>
</g>
<path d="M134.727 147.031V184H128.354V147.031H134.727ZM148.107 162.393V184H141.988V156.527H147.752L148.107 162.393ZM147.016 169.248L145.035 169.223C145.052 167.276 145.323 165.49 145.848 163.865C146.389 162.24 147.134 160.844 148.082 159.676C149.047 158.508 150.198 157.611 151.535 156.984C152.872 156.341 154.362 156.02 156.004 156.02C157.324 156.02 158.518 156.206 159.584 156.578C160.667 156.934 161.59 157.518 162.352 158.33C163.13 159.143 163.723 160.201 164.129 161.504C164.535 162.79 164.738 164.373 164.738 166.252V184H158.594V166.227C158.594 164.906 158.399 163.865 158.01 163.104C157.637 162.325 157.087 161.775 156.359 161.453C155.648 161.115 154.76 160.945 153.693 160.945C152.644 160.945 151.704 161.165 150.875 161.605C150.046 162.046 149.343 162.646 148.768 163.408C148.209 164.17 147.777 165.05 147.473 166.049C147.168 167.048 147.016 168.114 147.016 169.248ZM187.742 178.312V145H193.887V184H188.326L187.742 178.312ZM169.867 170.568V170.035C169.867 167.953 170.113 166.057 170.604 164.348C171.094 162.621 171.805 161.14 172.736 159.904C173.667 158.652 174.801 157.695 176.139 157.035C177.476 156.358 178.982 156.02 180.658 156.02C182.317 156.02 183.773 156.341 185.025 156.984C186.278 157.628 187.344 158.55 188.225 159.752C189.105 160.937 189.807 162.359 190.332 164.018C190.857 165.66 191.229 167.488 191.449 169.502V171.203C191.229 173.167 190.857 174.961 190.332 176.586C189.807 178.211 189.105 179.616 188.225 180.801C187.344 181.986 186.27 182.9 185 183.543C183.747 184.186 182.283 184.508 180.607 184.508C178.949 184.508 177.451 184.161 176.113 183.467C174.793 182.773 173.667 181.799 172.736 180.547C171.805 179.294 171.094 177.822 170.604 176.129C170.113 174.419 169.867 172.566 169.867 170.568ZM175.986 170.035V170.568C175.986 171.821 176.096 172.989 176.316 174.072C176.553 175.156 176.917 176.112 177.408 176.941C177.899 177.754 178.534 178.397 179.312 178.871C180.108 179.328 181.056 179.557 182.156 179.557C183.544 179.557 184.687 179.252 185.584 178.643C186.481 178.033 187.184 177.212 187.691 176.18C188.216 175.13 188.572 173.962 188.758 172.676V168.08C188.656 167.081 188.445 166.15 188.123 165.287C187.818 164.424 187.404 163.671 186.879 163.027C186.354 162.367 185.702 161.859 184.924 161.504C184.162 161.132 183.257 160.945 182.207 160.945C181.09 160.945 180.142 161.182 179.363 161.656C178.585 162.13 177.941 162.782 177.434 163.611C176.943 164.441 176.579 165.406 176.342 166.506C176.105 167.606 175.986 168.783 175.986 170.035ZM206.836 156.527V184H200.691V156.527H206.836ZM200.285 149.316C200.285 148.385 200.59 147.615 201.199 147.006C201.826 146.38 202.689 146.066 203.789 146.066C204.872 146.066 205.727 146.38 206.354 147.006C206.98 147.615 207.293 148.385 207.293 149.316C207.293 150.23 206.98 150.992 206.354 151.602C205.727 152.211 204.872 152.516 203.789 152.516C202.689 152.516 201.826 152.211 201.199 151.602C200.59 150.992 200.285 150.23 200.285 149.316ZM229.027 178.49V165.389C229.027 164.407 228.85 163.561 228.494 162.85C228.139 162.139 227.597 161.589 226.869 161.199C226.158 160.81 225.261 160.615 224.178 160.615C223.179 160.615 222.316 160.785 221.588 161.123C220.86 161.462 220.293 161.919 219.887 162.494C219.48 163.07 219.277 163.721 219.277 164.449H213.184C213.184 163.366 213.446 162.316 213.971 161.301C214.495 160.285 215.257 159.38 216.256 158.584C217.255 157.788 218.448 157.162 219.836 156.705C221.224 156.248 222.781 156.02 224.508 156.02C226.573 156.02 228.401 156.367 229.992 157.061C231.6 157.755 232.861 158.804 233.775 160.209C234.706 161.597 235.172 163.34 235.172 165.439V177.652C235.172 178.905 235.257 180.031 235.426 181.029C235.612 182.011 235.874 182.866 236.213 183.594V184H229.941C229.654 183.34 229.425 182.502 229.256 181.486C229.104 180.454 229.027 179.455 229.027 178.49ZM229.916 167.293L229.967 171.076H225.574C224.44 171.076 223.441 171.186 222.578 171.406C221.715 171.609 220.995 171.914 220.42 172.32C219.844 172.727 219.413 173.217 219.125 173.793C218.837 174.368 218.693 175.02 218.693 175.748C218.693 176.476 218.863 177.145 219.201 177.754C219.54 178.346 220.031 178.812 220.674 179.15C221.334 179.489 222.13 179.658 223.061 179.658C224.313 179.658 225.405 179.404 226.336 178.896C227.284 178.372 228.029 177.737 228.57 176.992C229.112 176.23 229.4 175.511 229.434 174.834L231.414 177.551C231.211 178.245 230.864 178.99 230.373 179.785C229.882 180.581 229.239 181.342 228.443 182.07C227.665 182.781 226.725 183.365 225.625 183.822C224.542 184.279 223.289 184.508 221.867 184.508C220.073 184.508 218.473 184.152 217.068 183.441C215.663 182.714 214.563 181.74 213.768 180.521C212.972 179.286 212.574 177.889 212.574 176.332C212.574 174.876 212.845 173.59 213.387 172.473C213.945 171.339 214.758 170.391 215.824 169.629C216.908 168.867 218.228 168.292 219.785 167.902C221.342 167.496 223.12 167.293 225.117 167.293H229.916ZM247.639 162.393V184H241.52V156.527H247.283L247.639 162.393ZM246.547 169.248L244.566 169.223C244.583 167.276 244.854 165.49 245.379 163.865C245.921 162.24 246.665 160.844 247.613 159.676C248.578 158.508 249.729 157.611 251.066 156.984C252.404 156.341 253.893 156.02 255.535 156.02C256.855 156.02 258.049 156.206 259.115 156.578C260.199 156.934 261.121 157.518 261.883 158.33C262.661 159.143 263.254 160.201 263.66 161.504C264.066 162.79 264.27 164.373 264.27 166.252V184H258.125V166.227C258.125 164.906 257.93 163.865 257.541 163.104C257.169 162.325 256.618 161.775 255.891 161.453C255.18 161.115 254.291 160.945 253.225 160.945C252.175 160.945 251.236 161.165 250.406 161.605C249.577 162.046 248.874 162.646 248.299 163.408C247.74 164.17 247.309 165.05 247.004 166.049C246.699 167.048 246.547 168.114 246.547 169.248ZM298.064 147.031V184H291.742V147.031H298.064ZM309.668 147.031V152.109H280.24V147.031H309.668ZM318.25 161.758V184H312.131V156.527H317.971L318.25 161.758ZM326.654 156.35L326.604 162.037C326.231 161.969 325.825 161.919 325.385 161.885C324.962 161.851 324.538 161.834 324.115 161.834C323.066 161.834 322.143 161.986 321.348 162.291C320.552 162.579 319.883 163.002 319.342 163.561C318.817 164.102 318.411 164.762 318.123 165.541C317.835 166.32 317.666 167.191 317.615 168.156L316.219 168.258C316.219 166.531 316.388 164.932 316.727 163.459C317.065 161.986 317.573 160.691 318.25 159.574C318.944 158.457 319.807 157.585 320.84 156.959C321.889 156.333 323.1 156.02 324.471 156.02C324.843 156.02 325.241 156.053 325.664 156.121C326.104 156.189 326.434 156.265 326.654 156.35ZM347.018 177.525V156.527H353.162V184H347.373L347.018 177.525ZM347.881 171.812L349.938 171.762C349.938 173.607 349.734 175.308 349.328 176.865C348.922 178.406 348.296 179.751 347.449 180.902C346.603 182.036 345.52 182.925 344.199 183.568C342.879 184.195 341.296 184.508 339.451 184.508C338.114 184.508 336.887 184.313 335.77 183.924C334.652 183.535 333.688 182.934 332.875 182.121C332.079 181.309 331.462 180.251 331.021 178.947C330.581 177.644 330.361 176.087 330.361 174.275V156.527H336.48V174.326C336.48 175.325 336.599 176.163 336.836 176.84C337.073 177.5 337.395 178.033 337.801 178.439C338.207 178.846 338.681 179.133 339.223 179.303C339.764 179.472 340.34 179.557 340.949 179.557C342.693 179.557 344.064 179.218 345.062 178.541C346.078 177.847 346.798 176.916 347.221 175.748C347.661 174.58 347.881 173.268 347.881 171.812ZM374.846 176.561C374.846 175.951 374.693 175.401 374.389 174.91C374.084 174.402 373.5 173.945 372.637 173.539C371.79 173.133 370.538 172.76 368.879 172.422C367.423 172.1 366.086 171.719 364.867 171.279C363.665 170.822 362.633 170.272 361.77 169.629C360.906 168.986 360.238 168.224 359.764 167.344C359.29 166.464 359.053 165.448 359.053 164.297C359.053 163.18 359.298 162.122 359.789 161.123C360.28 160.124 360.982 159.244 361.896 158.482C362.811 157.721 363.919 157.12 365.223 156.68C366.543 156.24 368.016 156.02 369.641 156.02C371.943 156.02 373.915 156.409 375.557 157.188C377.215 157.949 378.485 158.99 379.365 160.311C380.245 161.614 380.686 163.087 380.686 164.729H374.566C374.566 164.001 374.38 163.324 374.008 162.697C373.652 162.054 373.111 161.538 372.383 161.148C371.655 160.742 370.741 160.539 369.641 160.539C368.591 160.539 367.719 160.708 367.025 161.047C366.348 161.368 365.84 161.792 365.502 162.316C365.18 162.841 365.02 163.417 365.02 164.043C365.02 164.5 365.104 164.915 365.273 165.287C365.46 165.643 365.764 165.973 366.188 166.277C366.611 166.565 367.186 166.836 367.914 167.09C368.659 167.344 369.59 167.589 370.707 167.826C372.806 168.266 374.609 168.833 376.115 169.527C377.639 170.204 378.807 171.085 379.619 172.168C380.432 173.234 380.838 174.589 380.838 176.23C380.838 177.449 380.576 178.566 380.051 179.582C379.543 180.581 378.798 181.452 377.816 182.197C376.835 182.925 375.658 183.492 374.287 183.898C372.933 184.305 371.41 184.508 369.717 184.508C367.229 184.508 365.121 184.068 363.395 183.188C361.668 182.29 360.356 181.148 359.459 179.76C358.579 178.355 358.139 176.899 358.139 175.393H364.055C364.122 176.527 364.436 177.432 364.994 178.109C365.57 178.77 366.281 179.252 367.127 179.557C367.99 179.844 368.879 179.988 369.793 179.988C370.893 179.988 371.816 179.844 372.561 179.557C373.305 179.252 373.872 178.846 374.262 178.338C374.651 177.813 374.846 177.221 374.846 176.561ZM398.789 156.527V160.996H383.301V156.527H398.789ZM387.77 149.799H393.889V176.408C393.889 177.255 394.007 177.906 394.244 178.363C394.498 178.803 394.845 179.1 395.285 179.252C395.725 179.404 396.242 179.48 396.834 179.48C397.257 179.48 397.663 179.455 398.053 179.404C398.442 179.354 398.755 179.303 398.992 179.252L399.018 183.924C398.51 184.076 397.917 184.212 397.24 184.33C396.58 184.449 395.818 184.508 394.955 184.508C393.55 184.508 392.306 184.262 391.223 183.771C390.139 183.264 389.293 182.443 388.684 181.309C388.074 180.174 387.77 178.668 387.77 176.789V149.799ZM418.924 176.561C418.924 175.951 418.771 175.401 418.467 174.91C418.162 174.402 417.578 173.945 416.715 173.539C415.868 173.133 414.616 172.76 412.957 172.422C411.501 172.1 410.164 171.719 408.945 171.279C407.743 170.822 406.711 170.272 405.848 169.629C404.984 168.986 404.316 168.224 403.842 167.344C403.368 166.464 403.131 165.448 403.131 164.297C403.131 163.18 403.376 162.122 403.867 161.123C404.358 160.124 405.061 159.244 405.975 158.482C406.889 157.721 407.997 157.12 409.301 156.68C410.621 156.24 412.094 156.02 413.719 156.02C416.021 156.02 417.993 156.409 419.635 157.188C421.294 157.949 422.563 158.99 423.443 160.311C424.324 161.614 424.764 163.087 424.764 164.729H418.645C418.645 164.001 418.458 163.324 418.086 162.697C417.73 162.054 417.189 161.538 416.461 161.148C415.733 160.742 414.819 160.539 413.719 160.539C412.669 160.539 411.798 160.708 411.104 161.047C410.426 161.368 409.919 161.792 409.58 162.316C409.258 162.841 409.098 163.417 409.098 164.043C409.098 164.5 409.182 164.915 409.352 165.287C409.538 165.643 409.842 165.973 410.266 166.277C410.689 166.565 411.264 166.836 411.992 167.09C412.737 167.344 413.668 167.589 414.785 167.826C416.884 168.266 418.687 168.833 420.193 169.527C421.717 170.204 422.885 171.085 423.697 172.168C424.51 173.234 424.916 174.589 424.916 176.23C424.916 177.449 424.654 178.566 424.129 179.582C423.621 180.581 422.876 181.452 421.895 182.197C420.913 182.925 419.736 183.492 418.365 183.898C417.011 184.305 415.488 184.508 413.795 184.508C411.307 184.508 409.199 184.068 407.473 183.188C405.746 182.29 404.434 181.148 403.537 179.76C402.657 178.355 402.217 176.899 402.217 175.393H408.133C408.201 176.527 408.514 177.432 409.072 178.109C409.648 178.77 410.359 179.252 411.205 179.557C412.068 179.844 412.957 179.988 413.871 179.988C414.971 179.988 415.894 179.844 416.639 179.557C417.383 179.252 417.951 178.846 418.34 178.338C418.729 177.813 418.924 177.221 418.924 176.561ZM458.229 151.957L447.184 184H440.506L454.42 147.031H458.686L458.229 151.957ZM467.471 184L456.4 151.957L455.918 147.031H460.209L474.174 184H467.471ZM466.938 170.289V175.342H446.828V170.289H466.938ZM488.926 179.633C489.924 179.633 490.822 179.438 491.617 179.049C492.43 178.643 493.081 178.084 493.572 177.373C494.08 176.662 494.359 175.841 494.41 174.91H500.174C500.14 176.688 499.615 178.304 498.6 179.76C497.584 181.215 496.238 182.375 494.562 183.238C492.887 184.085 491.033 184.508 489.002 184.508C486.903 184.508 485.075 184.152 483.518 183.441C481.96 182.714 480.665 181.715 479.633 180.445C478.6 179.176 477.822 177.712 477.297 176.053C476.789 174.394 476.535 172.617 476.535 170.721V169.832C476.535 167.936 476.789 166.159 477.297 164.5C477.822 162.824 478.6 161.352 479.633 160.082C480.665 158.812 481.96 157.822 483.518 157.111C485.075 156.383 486.895 156.02 488.977 156.02C491.177 156.02 493.107 156.46 494.766 157.34C496.424 158.203 497.728 159.413 498.676 160.971C499.641 162.511 500.14 164.305 500.174 166.354H494.41C494.359 165.338 494.105 164.424 493.648 163.611C493.208 162.782 492.582 162.122 491.77 161.631C490.974 161.14 490.018 160.895 488.9 160.895C487.665 160.895 486.641 161.148 485.828 161.656C485.016 162.147 484.381 162.824 483.924 163.688C483.467 164.534 483.137 165.49 482.934 166.557C482.747 167.606 482.654 168.698 482.654 169.832V170.721C482.654 171.855 482.747 172.955 482.934 174.021C483.12 175.088 483.441 176.044 483.898 176.891C484.372 177.72 485.016 178.389 485.828 178.896C486.641 179.387 487.673 179.633 488.926 179.633ZM517.465 156.527V160.996H501.977V156.527H517.465ZM506.445 149.799H512.564V176.408C512.564 177.255 512.683 177.906 512.92 178.363C513.174 178.803 513.521 179.1 513.961 179.252C514.401 179.404 514.917 179.48 515.51 179.48C515.933 179.48 516.339 179.455 516.729 179.404C517.118 179.354 517.431 179.303 517.668 179.252L517.693 183.924C517.186 184.076 516.593 184.212 515.916 184.33C515.256 184.449 514.494 184.508 513.631 184.508C512.226 184.508 510.982 184.262 509.898 183.771C508.815 183.264 507.969 182.443 507.359 181.309C506.75 180.174 506.445 178.668 506.445 176.789V149.799ZM527.926 178.109L527.9 182.477C527.9 184.203 527.469 185.98 526.605 187.809C525.742 189.637 524.6 191.143 523.178 192.328L519.902 190.424C520.376 189.662 520.808 188.892 521.197 188.113C521.587 187.335 521.9 186.505 522.137 185.625C522.374 184.745 522.492 183.771 522.492 182.705V178.109H527.926ZM563.117 146.904V184H556.998V154.166L547.934 157.238V152.186L562.381 146.904H563.117ZM600.137 173.92C600.137 176.222 599.604 178.16 598.537 179.734C597.471 181.309 596.015 182.502 594.17 183.314C592.342 184.11 590.277 184.508 587.975 184.508C585.673 184.508 583.599 184.11 581.754 183.314C579.909 182.502 578.453 181.309 577.387 179.734C576.32 178.16 575.787 176.222 575.787 173.92C575.787 172.396 576.083 171.017 576.676 169.781C577.268 168.529 578.106 167.454 579.189 166.557C580.29 165.643 581.576 164.94 583.049 164.449C584.538 163.958 586.163 163.713 587.924 163.713C590.26 163.713 592.35 164.145 594.195 165.008C596.04 165.871 597.488 167.064 598.537 168.588C599.604 170.111 600.137 171.889 600.137 173.92ZM593.992 173.615C593.992 172.38 593.738 171.296 593.23 170.365C592.723 169.434 592.012 168.715 591.098 168.207C590.184 167.699 589.126 167.445 587.924 167.445C586.705 167.445 585.647 167.699 584.75 168.207C583.853 168.715 583.15 169.434 582.643 170.365C582.152 171.296 581.906 172.38 581.906 173.615C581.906 174.868 582.152 175.951 582.643 176.865C583.133 177.762 583.836 178.448 584.75 178.922C585.664 179.396 586.739 179.633 587.975 179.633C589.21 179.633 590.277 179.396 591.174 178.922C592.071 178.448 592.765 177.762 593.256 176.865C593.747 175.951 593.992 174.868 593.992 173.615ZM599.299 156.756C599.299 158.601 598.808 160.243 597.826 161.682C596.861 163.12 595.524 164.255 593.814 165.084C592.105 165.896 590.158 166.303 587.975 166.303C585.774 166.303 583.811 165.896 582.084 165.084C580.374 164.255 579.029 163.12 578.047 161.682C577.082 160.243 576.6 158.601 576.6 156.756C576.6 154.555 577.082 152.702 578.047 151.195C579.029 149.672 580.374 148.512 582.084 147.717C583.794 146.921 585.749 146.523 587.949 146.523C590.15 146.523 592.105 146.921 593.814 147.717C595.524 148.512 596.861 149.672 597.826 151.195C598.808 152.702 599.299 154.555 599.299 156.756ZM593.18 156.959C593.18 155.859 592.96 154.894 592.52 154.064C592.096 153.218 591.495 152.558 590.717 152.084C589.938 151.61 589.016 151.373 587.949 151.373C586.883 151.373 585.96 151.602 585.182 152.059C584.403 152.516 583.802 153.159 583.379 153.988C582.956 154.818 582.744 155.808 582.744 156.959C582.744 158.093 582.956 159.083 583.379 159.93C583.802 160.759 584.403 161.411 585.182 161.885C585.977 162.359 586.908 162.596 587.975 162.596C589.041 162.596 589.964 162.359 590.742 161.885C591.521 161.411 592.122 160.759 592.545 159.93C592.968 159.083 593.18 158.093 593.18 156.959ZM629.691 173.92C629.691 176.222 629.158 178.16 628.092 179.734C627.025 181.309 625.57 182.502 623.725 183.314C621.896 184.11 619.831 184.508 617.529 184.508C615.227 184.508 613.154 184.11 611.309 183.314C609.464 182.502 608.008 181.309 606.941 179.734C605.875 178.16 605.342 176.222 605.342 173.92C605.342 172.396 605.638 171.017 606.23 169.781C606.823 168.529 607.661 167.454 608.744 166.557C609.844 165.643 611.131 164.94 612.604 164.449C614.093 163.958 615.718 163.713 617.479 163.713C619.814 163.713 621.905 164.145 623.75 165.008C625.595 165.871 627.042 167.064 628.092 168.588C629.158 170.111 629.691 171.889 629.691 173.92ZM623.547 173.615C623.547 172.38 623.293 171.296 622.785 170.365C622.277 169.434 621.566 168.715 620.652 168.207C619.738 167.699 618.68 167.445 617.479 167.445C616.26 167.445 615.202 167.699 614.305 168.207C613.408 168.715 612.705 169.434 612.197 170.365C611.706 171.296 611.461 172.38 611.461 173.615C611.461 174.868 611.706 175.951 612.197 176.865C612.688 177.762 613.391 178.448 614.305 178.922C615.219 179.396 616.294 179.633 617.529 179.633C618.765 179.633 619.831 179.396 620.729 178.922C621.626 178.448 622.32 177.762 622.811 176.865C623.301 175.951 623.547 174.868 623.547 173.615ZM628.854 156.756C628.854 158.601 628.363 160.243 627.381 161.682C626.416 163.12 625.079 164.255 623.369 165.084C621.66 165.896 619.713 166.303 617.529 166.303C615.329 166.303 613.365 165.896 611.639 165.084C609.929 164.255 608.583 163.12 607.602 161.682C606.637 160.243 606.154 158.601 606.154 156.756C606.154 154.555 606.637 152.702 607.602 151.195C608.583 149.672 609.929 148.512 611.639 147.717C613.348 146.921 615.303 146.523 617.504 146.523C619.704 146.523 621.66 146.921 623.369 147.717C625.079 148.512 626.416 149.672 627.381 151.195C628.363 152.702 628.854 154.555 628.854 156.756ZM622.734 156.959C622.734 155.859 622.514 154.894 622.074 154.064C621.651 153.218 621.05 152.558 620.271 152.084C619.493 151.61 618.57 151.373 617.504 151.373C616.438 151.373 615.515 151.602 614.736 152.059C613.958 152.516 613.357 153.159 612.934 153.988C612.51 154.818 612.299 155.808 612.299 156.959C612.299 158.093 612.51 159.083 612.934 159.93C613.357 160.759 613.958 161.411 614.736 161.885C615.532 162.359 616.463 162.596 617.529 162.596C618.596 162.596 619.518 162.359 620.297 161.885C621.076 161.411 621.676 160.759 622.1 159.93C622.523 159.083 622.734 158.093 622.734 156.959ZM659.855 179.125V184H635.074V179.811L647.109 166.684C648.43 165.194 649.471 163.908 650.232 162.824C650.994 161.741 651.527 160.768 651.832 159.904C652.154 159.024 652.314 158.169 652.314 157.34C652.314 156.172 652.094 155.148 651.654 154.268C651.231 153.37 650.605 152.668 649.775 152.16C648.946 151.635 647.939 151.373 646.754 151.373C645.383 151.373 644.232 151.669 643.301 152.262C642.37 152.854 641.667 153.675 641.193 154.725C640.719 155.757 640.482 156.942 640.482 158.279H634.363C634.363 156.13 634.854 154.166 635.836 152.389C636.818 150.594 638.24 149.173 640.102 148.123C641.964 147.057 644.206 146.523 646.83 146.523C649.301 146.523 651.4 146.938 653.127 147.768C654.854 148.597 656.165 149.773 657.062 151.297C657.977 152.82 658.434 154.623 658.434 156.705C658.434 157.856 658.247 158.999 657.875 160.133C657.503 161.267 656.969 162.401 656.275 163.535C655.598 164.652 654.794 165.778 653.863 166.912C652.932 168.029 651.908 169.163 650.791 170.314L642.793 179.125H659.855Z" fill="#30486E"/>
<path d="M858.794 61.8364C864.519 53.7825 858.752 42.625 848.871 42.625C845.219 42.625 842.665 42.625 842.775 42.625H742.092C733.284 42.625 725.969 49.4692 725.969 58.2745C725.969 98.6077 725.969 160.853 725.969 200.081C725.969 211.675 735.545 221.091 747.142 221.091H835.506C847.096 221.091 856.545 211.675 856.545 200.081C856.545 165.85 856.545 94.382 856.545 68.852C856.545 66.3263 857.331 63.895 858.794 61.8364V61.8364Z" fill="url(#paint4_linear_1281_1902)"/>
<path d="M777.406 165.625C771.599 165.625 767.107 163.997 763.93 160.742C760.779 157.487 759.203 152.799 759.203 146.68V115.664C759.203 109.206 760.701 104.258 763.695 100.82C766.716 97.3568 771.286 95.625 777.406 95.625C783.552 95.625 788.122 97.3568 791.117 100.82C794.112 104.258 795.609 109.206 795.609 115.664V146.68C795.609 152.799 794.034 157.487 790.883 160.742C787.732 163.997 783.24 165.625 777.406 165.625ZM777.406 152.969C778.474 152.969 779.307 152.487 779.906 151.523C780.505 150.56 780.805 149.479 780.805 148.281V114.336C780.805 112.721 780.622 111.315 780.258 110.117C779.919 108.893 778.969 108.281 777.406 108.281C775.844 108.281 774.88 108.893 774.516 110.117C774.177 111.315 774.008 112.721 774.008 114.336V148.281C774.008 149.479 774.307 150.56 774.906 151.523C775.531 152.487 776.365 152.969 777.406 152.969ZM806.664 165V112.031C805.727 113.151 804.438 114.062 802.797 114.766C801.156 115.443 799.607 115.781 798.148 115.781V104.805C799.529 104.596 801.013 104.154 802.602 103.477C804.19 102.773 805.661 101.823 807.016 100.625C808.396 99.401 809.451 97.9297 810.18 96.2109H821.234V165H806.664Z" fill="white"/>
<path d="M872.585 42.625C881.4 42.625 888.637 49.7732 888.637 58.5818V58.5818C888.637 62.3744 885.562 65.4489 881.77 65.4489H863.414C859.621 65.4489 856.547 62.3744 856.547 58.5818V58.5818C856.547 49.7732 863.783 42.625 872.585 42.625Z" fill="url(#paint5_linear_1281_1902)"/>
<path d="M110.217 398.479C110.217 397.717 110.098 397.04 109.861 396.447C109.641 395.855 109.243 395.313 108.668 394.822C108.092 394.331 107.28 393.857 106.23 393.4C105.198 392.926 103.878 392.444 102.27 391.953C100.509 391.411 98.8841 390.811 97.3945 390.15C95.9219 389.473 94.6354 388.695 93.5352 387.814C92.4349 386.917 91.5801 385.893 90.9707 384.742C90.3613 383.574 90.0566 382.229 90.0566 380.705C90.0566 379.199 90.3698 377.827 90.9961 376.592C91.6393 375.356 92.5449 374.29 93.7129 373.393C94.8978 372.479 96.2943 371.776 97.9023 371.285C99.5104 370.777 101.288 370.523 103.234 370.523C105.977 370.523 108.338 371.031 110.318 372.047C112.316 373.062 113.848 374.425 114.914 376.135C115.997 377.844 116.539 379.732 116.539 381.797H110.217C110.217 380.578 109.954 379.503 109.43 378.572C108.922 377.624 108.143 376.88 107.094 376.338C106.061 375.796 104.749 375.525 103.158 375.525C101.652 375.525 100.399 375.754 99.4004 376.211C98.4017 376.668 97.6569 377.286 97.166 378.064C96.6751 378.843 96.4297 379.723 96.4297 380.705C96.4297 381.399 96.5905 382.034 96.9121 382.609C97.2337 383.168 97.7246 383.693 98.3848 384.184C99.0449 384.658 99.8743 385.106 100.873 385.529C101.872 385.952 103.048 386.359 104.402 386.748C106.451 387.357 108.236 388.035 109.76 388.779C111.283 389.507 112.553 390.337 113.568 391.268C114.584 392.199 115.346 393.257 115.854 394.441C116.361 395.609 116.615 396.938 116.615 398.428C116.615 399.985 116.302 401.39 115.676 402.643C115.049 403.878 114.152 404.936 112.984 405.816C111.833 406.68 110.445 407.348 108.82 407.822C107.212 408.279 105.418 408.508 103.438 408.508C101.66 408.508 99.9082 408.271 98.1816 407.797C96.472 407.323 94.9147 406.604 93.5098 405.639C92.1048 404.657 90.9876 403.438 90.1582 401.982C89.3288 400.51 88.9141 398.792 88.9141 396.828H95.2871C95.2871 398.03 95.4902 399.054 95.8965 399.9C96.3197 400.747 96.9036 401.441 97.6484 401.982C98.3932 402.507 99.2565 402.896 100.238 403.15C101.237 403.404 102.303 403.531 103.438 403.531C104.927 403.531 106.171 403.32 107.17 402.896C108.186 402.473 108.947 401.881 109.455 401.119C109.963 400.357 110.217 399.477 110.217 398.479ZM120.475 394.568V393.984C120.475 392.004 120.762 390.167 121.338 388.475C121.913 386.765 122.743 385.284 123.826 384.031C124.926 382.762 126.264 381.78 127.838 381.086C129.429 380.375 131.223 380.02 133.221 380.02C135.235 380.02 137.029 380.375 138.604 381.086C140.195 381.78 141.54 382.762 142.641 384.031C143.741 385.284 144.579 386.765 145.154 388.475C145.73 390.167 146.018 392.004 146.018 393.984V394.568C146.018 396.549 145.73 398.385 145.154 400.078C144.579 401.771 143.741 403.252 142.641 404.521C141.54 405.774 140.203 406.756 138.629 407.467C137.055 408.161 135.269 408.508 133.271 408.508C131.257 408.508 129.454 408.161 127.863 407.467C126.289 406.756 124.952 405.774 123.852 404.521C122.751 403.252 121.913 401.771 121.338 400.078C120.762 398.385 120.475 396.549 120.475 394.568ZM126.594 393.984V394.568C126.594 395.804 126.721 396.972 126.975 398.072C127.229 399.173 127.626 400.137 128.168 400.967C128.71 401.796 129.404 402.448 130.25 402.922C131.096 403.396 132.104 403.633 133.271 403.633C134.406 403.633 135.387 403.396 136.217 402.922C137.063 402.448 137.757 401.796 138.299 400.967C138.84 400.137 139.238 399.173 139.492 398.072C139.763 396.972 139.898 395.804 139.898 394.568V393.984C139.898 392.766 139.763 391.615 139.492 390.531C139.238 389.431 138.832 388.458 138.273 387.611C137.732 386.765 137.038 386.105 136.191 385.631C135.362 385.14 134.372 384.895 133.221 384.895C132.07 384.895 131.071 385.14 130.225 385.631C129.395 386.105 128.71 386.765 128.168 387.611C127.626 388.458 127.229 389.431 126.975 390.531C126.721 391.615 126.594 392.766 126.594 393.984ZM162.369 403.633C163.368 403.633 164.265 403.438 165.061 403.049C165.873 402.643 166.525 402.084 167.016 401.373C167.523 400.662 167.803 399.841 167.854 398.91H173.617C173.583 400.688 173.059 402.304 172.043 403.76C171.027 405.215 169.682 406.375 168.006 407.238C166.33 408.085 164.477 408.508 162.445 408.508C160.346 408.508 158.518 408.152 156.961 407.441C155.404 406.714 154.109 405.715 153.076 404.445C152.044 403.176 151.265 401.712 150.74 400.053C150.232 398.394 149.979 396.617 149.979 394.721V393.832C149.979 391.936 150.232 390.159 150.74 388.5C151.265 386.824 152.044 385.352 153.076 384.082C154.109 382.812 155.404 381.822 156.961 381.111C158.518 380.383 160.338 380.02 162.42 380.02C164.62 380.02 166.55 380.46 168.209 381.34C169.868 382.203 171.171 383.413 172.119 384.971C173.084 386.511 173.583 388.305 173.617 390.354H167.854C167.803 389.338 167.549 388.424 167.092 387.611C166.652 386.782 166.025 386.122 165.213 385.631C164.417 385.14 163.461 384.895 162.344 384.895C161.108 384.895 160.084 385.148 159.271 385.656C158.459 386.147 157.824 386.824 157.367 387.688C156.91 388.534 156.58 389.49 156.377 390.557C156.191 391.606 156.098 392.698 156.098 393.832V394.721C156.098 395.855 156.191 396.955 156.377 398.021C156.563 399.088 156.885 400.044 157.342 400.891C157.816 401.72 158.459 402.389 159.271 402.896C160.084 403.387 161.117 403.633 162.369 403.633ZM184.865 380.527V408H178.721V380.527H184.865ZM178.314 373.316C178.314 372.385 178.619 371.615 179.229 371.006C179.855 370.38 180.718 370.066 181.818 370.066C182.902 370.066 183.757 370.38 184.383 371.006C185.009 371.615 185.322 372.385 185.322 373.316C185.322 374.23 185.009 374.992 184.383 375.602C183.757 376.211 182.902 376.516 181.818 376.516C180.718 376.516 179.855 376.211 179.229 375.602C178.619 374.992 178.314 374.23 178.314 373.316ZM203.68 408.508C201.648 408.508 199.812 408.178 198.17 407.518C196.545 406.84 195.157 405.901 194.006 404.699C192.872 403.497 192 402.084 191.391 400.459C190.781 398.834 190.477 397.082 190.477 395.203V394.188C190.477 392.038 190.79 390.091 191.416 388.348C192.042 386.604 192.914 385.115 194.031 383.879C195.148 382.626 196.469 381.67 197.992 381.01C199.516 380.35 201.166 380.02 202.943 380.02C204.907 380.02 206.625 380.35 208.098 381.01C209.57 381.67 210.789 382.601 211.754 383.803C212.736 384.988 213.464 386.401 213.938 388.043C214.428 389.685 214.674 391.496 214.674 393.477V396.092H193.447V391.699H208.631V391.217C208.597 390.117 208.377 389.084 207.971 388.119C207.581 387.154 206.98 386.376 206.168 385.783C205.355 385.191 204.272 384.895 202.918 384.895C201.902 384.895 200.997 385.115 200.201 385.555C199.423 385.978 198.771 386.596 198.246 387.408C197.721 388.221 197.315 389.202 197.027 390.354C196.757 391.488 196.621 392.766 196.621 394.188V395.203C196.621 396.405 196.782 397.522 197.104 398.555C197.442 399.57 197.933 400.459 198.576 401.221C199.219 401.982 199.998 402.583 200.912 403.023C201.826 403.447 202.867 403.658 204.035 403.658C205.508 403.658 206.82 403.362 207.971 402.77C209.122 402.177 210.12 401.339 210.967 400.256L214.191 403.379C213.599 404.242 212.829 405.072 211.881 405.867C210.933 406.646 209.773 407.281 208.402 407.771C207.048 408.262 205.474 408.508 203.68 408.508ZM232.041 380.527V384.996H216.553V380.527H232.041ZM221.021 373.799H227.141V400.408C227.141 401.255 227.259 401.906 227.496 402.363C227.75 402.803 228.097 403.1 228.537 403.252C228.977 403.404 229.493 403.48 230.086 403.48C230.509 403.48 230.915 403.455 231.305 403.404C231.694 403.354 232.007 403.303 232.244 403.252L232.27 407.924C231.762 408.076 231.169 408.212 230.492 408.33C229.832 408.449 229.07 408.508 228.207 408.508C226.802 408.508 225.558 408.262 224.475 407.771C223.391 407.264 222.545 406.443 221.936 405.309C221.326 404.174 221.021 402.668 221.021 400.789V373.799ZM243.314 380.527V408H237.17V380.527H243.314ZM236.764 373.316C236.764 372.385 237.068 371.615 237.678 371.006C238.304 370.38 239.167 370.066 240.268 370.066C241.351 370.066 242.206 370.38 242.832 371.006C243.458 371.615 243.771 372.385 243.771 373.316C243.771 374.23 243.458 374.992 242.832 375.602C242.206 376.211 241.351 376.516 240.268 376.516C239.167 376.516 238.304 376.211 237.678 375.602C237.068 374.992 236.764 374.23 236.764 373.316ZM262.129 408.508C260.098 408.508 258.261 408.178 256.619 407.518C254.994 406.84 253.606 405.901 252.455 404.699C251.321 403.497 250.449 402.084 249.84 400.459C249.23 398.834 248.926 397.082 248.926 395.203V394.188C248.926 392.038 249.239 390.091 249.865 388.348C250.492 386.604 251.363 385.115 252.48 383.879C253.598 382.626 254.918 381.67 256.441 381.01C257.965 380.35 259.615 380.02 261.393 380.02C263.356 380.02 265.074 380.35 266.547 381.01C268.02 381.67 269.238 382.601 270.203 383.803C271.185 384.988 271.913 386.401 272.387 388.043C272.878 389.685 273.123 391.496 273.123 393.477V396.092H251.896V391.699H267.08V391.217C267.046 390.117 266.826 389.084 266.42 388.119C266.031 387.154 265.43 386.376 264.617 385.783C263.805 385.191 262.721 384.895 261.367 384.895C260.352 384.895 259.446 385.115 258.65 385.555C257.872 385.978 257.22 386.596 256.695 387.408C256.171 388.221 255.764 389.202 255.477 390.354C255.206 391.488 255.07 392.766 255.07 394.188V395.203C255.07 396.405 255.231 397.522 255.553 398.555C255.891 399.57 256.382 400.459 257.025 401.221C257.669 401.982 258.447 402.583 259.361 403.023C260.275 403.447 261.316 403.658 262.484 403.658C263.957 403.658 265.269 403.362 266.42 402.77C267.571 402.177 268.57 401.339 269.416 400.256L272.641 403.379C272.048 404.242 271.278 405.072 270.33 405.867C269.382 406.646 268.223 407.281 266.852 407.771C265.497 408.262 263.923 408.508 262.129 408.508ZM293.309 400.561C293.309 399.951 293.156 399.401 292.852 398.91C292.547 398.402 291.963 397.945 291.1 397.539C290.253 397.133 289.001 396.76 287.342 396.422C285.886 396.1 284.549 395.719 283.33 395.279C282.128 394.822 281.096 394.272 280.232 393.629C279.369 392.986 278.701 392.224 278.227 391.344C277.753 390.464 277.516 389.448 277.516 388.297C277.516 387.18 277.761 386.122 278.252 385.123C278.743 384.124 279.445 383.244 280.359 382.482C281.273 381.721 282.382 381.12 283.686 380.68C285.006 380.24 286.479 380.02 288.104 380.02C290.406 380.02 292.378 380.409 294.02 381.188C295.678 381.949 296.948 382.99 297.828 384.311C298.708 385.614 299.148 387.087 299.148 388.729H293.029C293.029 388.001 292.843 387.324 292.471 386.697C292.115 386.054 291.574 385.538 290.846 385.148C290.118 384.742 289.204 384.539 288.104 384.539C287.054 384.539 286.182 384.708 285.488 385.047C284.811 385.368 284.303 385.792 283.965 386.316C283.643 386.841 283.482 387.417 283.482 388.043C283.482 388.5 283.567 388.915 283.736 389.287C283.923 389.643 284.227 389.973 284.65 390.277C285.074 390.565 285.649 390.836 286.377 391.09C287.122 391.344 288.053 391.589 289.17 391.826C291.269 392.266 293.072 392.833 294.578 393.527C296.102 394.204 297.27 395.085 298.082 396.168C298.895 397.234 299.301 398.589 299.301 400.23C299.301 401.449 299.038 402.566 298.514 403.582C298.006 404.581 297.261 405.452 296.279 406.197C295.298 406.925 294.121 407.492 292.75 407.898C291.396 408.305 289.872 408.508 288.18 408.508C285.691 408.508 283.584 408.068 281.857 407.188C280.131 406.29 278.819 405.148 277.922 403.76C277.042 402.355 276.602 400.899 276.602 399.393H282.518C282.585 400.527 282.898 401.432 283.457 402.109C284.033 402.77 284.743 403.252 285.59 403.557C286.453 403.844 287.342 403.988 288.256 403.988C289.356 403.988 290.279 403.844 291.023 403.557C291.768 403.252 292.335 402.846 292.725 402.338C293.114 401.813 293.309 401.221 293.309 400.561ZM318.217 371.031H331.293C334.103 371.031 336.498 371.454 338.479 372.301C340.459 373.147 341.974 374.4 343.023 376.059C344.09 377.701 344.623 379.732 344.623 382.152C344.623 383.997 344.285 385.622 343.607 387.027C342.93 388.432 341.974 389.617 340.738 390.582C339.503 391.53 338.03 392.266 336.32 392.791L334.391 393.73H322.635L322.584 388.678H331.395C332.918 388.678 334.188 388.407 335.203 387.865C336.219 387.324 336.98 386.587 337.488 385.656C338.013 384.708 338.275 383.642 338.275 382.457C338.275 381.171 338.021 380.053 337.514 379.105C337.023 378.141 336.261 377.404 335.229 376.896C334.196 376.372 332.884 376.109 331.293 376.109H324.59V408H318.217V371.031ZM339.316 408L330.633 391.395L337.311 391.369L346.121 407.67V408H339.316ZM362.473 408.508C360.441 408.508 358.605 408.178 356.963 407.518C355.338 406.84 353.95 405.901 352.799 404.699C351.665 403.497 350.793 402.084 350.184 400.459C349.574 398.834 349.27 397.082 349.27 395.203V394.188C349.27 392.038 349.583 390.091 350.209 388.348C350.835 386.604 351.707 385.115 352.824 383.879C353.941 382.626 355.262 381.67 356.785 381.01C358.309 380.35 359.959 380.02 361.736 380.02C363.7 380.02 365.418 380.35 366.891 381.01C368.363 381.67 369.582 382.601 370.547 383.803C371.529 384.988 372.257 386.401 372.73 388.043C373.221 389.685 373.467 391.496 373.467 393.477V396.092H352.24V391.699H367.424V391.217C367.39 390.117 367.17 389.084 366.764 388.119C366.374 387.154 365.773 386.376 364.961 385.783C364.148 385.191 363.065 384.895 361.711 384.895C360.695 384.895 359.79 385.115 358.994 385.555C358.215 385.978 357.564 386.596 357.039 387.408C356.514 388.221 356.108 389.202 355.82 390.354C355.549 391.488 355.414 392.766 355.414 394.188V395.203C355.414 396.405 355.575 397.522 355.896 398.555C356.235 399.57 356.726 400.459 357.369 401.221C358.012 401.982 358.791 402.583 359.705 403.023C360.619 403.447 361.66 403.658 362.828 403.658C364.301 403.658 365.613 403.362 366.764 402.77C367.915 402.177 368.913 401.339 369.76 400.256L372.984 403.379C372.392 404.242 371.622 405.072 370.674 405.867C369.726 406.646 368.566 407.281 367.195 407.771C365.841 408.262 364.267 408.508 362.473 408.508ZM395.836 380.527H401.396V407.238C401.396 409.71 400.872 411.809 399.822 413.535C398.773 415.262 397.309 416.574 395.43 417.471C393.551 418.385 391.376 418.842 388.904 418.842C387.855 418.842 386.687 418.689 385.4 418.385C384.131 418.08 382.895 417.589 381.693 416.912C380.508 416.252 379.518 415.38 378.723 414.297L381.592 410.691C382.574 411.859 383.657 412.714 384.842 413.256C386.027 413.798 387.271 414.068 388.574 414.068C389.979 414.068 391.173 413.806 392.154 413.281C393.153 412.773 393.923 412.02 394.465 411.021C395.007 410.023 395.277 408.804 395.277 407.365V386.748L395.836 380.527ZM377.174 394.568V394.035C377.174 391.953 377.428 390.057 377.936 388.348C378.443 386.621 379.171 385.14 380.119 383.904C381.067 382.652 382.218 381.695 383.572 381.035C384.926 380.358 386.458 380.02 388.168 380.02C389.945 380.02 391.46 380.341 392.713 380.984C393.982 381.628 395.04 382.55 395.887 383.752C396.733 384.937 397.393 386.359 397.867 388.018C398.358 389.66 398.722 391.488 398.959 393.502V395.203C398.739 397.167 398.367 398.961 397.842 400.586C397.317 402.211 396.623 403.616 395.76 404.801C394.896 405.986 393.83 406.9 392.561 407.543C391.308 408.186 389.827 408.508 388.117 408.508C386.441 408.508 384.926 408.161 383.572 407.467C382.235 406.773 381.084 405.799 380.119 404.547C379.171 403.294 378.443 401.822 377.936 400.129C377.428 398.419 377.174 396.566 377.174 394.568ZM383.293 394.035V394.568C383.293 395.821 383.411 396.989 383.648 398.072C383.902 399.156 384.283 400.112 384.791 400.941C385.316 401.754 385.976 402.397 386.771 402.871C387.584 403.328 388.54 403.557 389.641 403.557C391.079 403.557 392.256 403.252 393.17 402.643C394.101 402.033 394.812 401.212 395.303 400.18C395.811 399.13 396.166 397.962 396.369 396.676V392.08C396.268 391.081 396.056 390.15 395.734 389.287C395.43 388.424 395.015 387.671 394.49 387.027C393.965 386.367 393.305 385.859 392.51 385.504C391.714 385.132 390.775 384.945 389.691 384.945C388.591 384.945 387.635 385.182 386.822 385.656C386.01 386.13 385.341 386.782 384.816 387.611C384.309 388.441 383.928 389.406 383.674 390.506C383.42 391.606 383.293 392.783 383.293 394.035ZM414.295 380.527V408H408.15V380.527H414.295ZM407.744 373.316C407.744 372.385 408.049 371.615 408.658 371.006C409.285 370.38 410.148 370.066 411.248 370.066C412.331 370.066 413.186 370.38 413.812 371.006C414.439 371.615 414.752 372.385 414.752 373.316C414.752 374.23 414.439 374.992 413.812 375.602C413.186 376.211 412.331 376.516 411.248 376.516C410.148 376.516 409.285 376.211 408.658 375.602C408.049 374.992 407.744 374.23 407.744 373.316ZM436.41 400.561C436.41 399.951 436.258 399.401 435.953 398.91C435.648 398.402 435.064 397.945 434.201 397.539C433.355 397.133 432.102 396.76 430.443 396.422C428.988 396.1 427.65 395.719 426.432 395.279C425.23 394.822 424.197 394.272 423.334 393.629C422.471 392.986 421.802 392.224 421.328 391.344C420.854 390.464 420.617 389.448 420.617 388.297C420.617 387.18 420.863 386.122 421.354 385.123C421.844 384.124 422.547 383.244 423.461 382.482C424.375 381.721 425.484 381.12 426.787 380.68C428.107 380.24 429.58 380.02 431.205 380.02C433.507 380.02 435.479 380.409 437.121 381.188C438.78 381.949 440.049 382.99 440.93 384.311C441.81 385.614 442.25 387.087 442.25 388.729H436.131C436.131 388.001 435.945 387.324 435.572 386.697C435.217 386.054 434.675 385.538 433.947 385.148C433.219 384.742 432.305 384.539 431.205 384.539C430.156 384.539 429.284 384.708 428.59 385.047C427.913 385.368 427.405 385.792 427.066 386.316C426.745 386.841 426.584 387.417 426.584 388.043C426.584 388.5 426.669 388.915 426.838 389.287C427.024 389.643 427.329 389.973 427.752 390.277C428.175 390.565 428.751 390.836 429.479 391.09C430.223 391.344 431.154 391.589 432.271 391.826C434.37 392.266 436.173 392.833 437.68 393.527C439.203 394.204 440.371 395.085 441.184 396.168C441.996 397.234 442.402 398.589 442.402 400.23C442.402 401.449 442.14 402.566 441.615 403.582C441.107 404.581 440.363 405.452 439.381 406.197C438.399 406.925 437.223 407.492 435.852 407.898C434.497 408.305 432.974 408.508 431.281 408.508C428.793 408.508 426.686 408.068 424.959 407.188C423.232 406.29 421.921 405.148 421.023 403.76C420.143 402.355 419.703 400.899 419.703 399.393H425.619C425.687 400.527 426 401.432 426.559 402.109C427.134 402.77 427.845 403.252 428.691 403.557C429.555 403.844 430.443 403.988 431.357 403.988C432.458 403.988 433.38 403.844 434.125 403.557C434.87 403.252 435.437 402.846 435.826 402.338C436.215 401.813 436.41 401.221 436.41 400.561ZM460.354 380.527V384.996H444.865V380.527H460.354ZM449.334 373.799H455.453V400.408C455.453 401.255 455.572 401.906 455.809 402.363C456.062 402.803 456.41 403.1 456.85 403.252C457.29 403.404 457.806 403.48 458.398 403.48C458.822 403.48 459.228 403.455 459.617 403.404C460.007 403.354 460.32 403.303 460.557 403.252L460.582 407.924C460.074 408.076 459.482 408.212 458.805 408.33C458.145 408.449 457.383 408.508 456.52 408.508C455.115 408.508 453.87 408.262 452.787 407.771C451.704 407.264 450.857 406.443 450.248 405.309C449.639 404.174 449.334 402.668 449.334 400.789V373.799ZM471.221 385.758V408H465.102V380.527H470.941L471.221 385.758ZM479.625 380.35L479.574 386.037C479.202 385.969 478.796 385.919 478.355 385.885C477.932 385.851 477.509 385.834 477.086 385.834C476.036 385.834 475.114 385.986 474.318 386.291C473.523 386.579 472.854 387.002 472.312 387.561C471.788 388.102 471.382 388.762 471.094 389.541C470.806 390.32 470.637 391.191 470.586 392.156L469.189 392.258C469.189 390.531 469.359 388.932 469.697 387.459C470.036 385.986 470.544 384.691 471.221 383.574C471.915 382.457 472.778 381.585 473.811 380.959C474.86 380.333 476.07 380.02 477.441 380.02C477.814 380.02 478.212 380.053 478.635 380.121C479.075 380.189 479.405 380.265 479.625 380.35ZM498.033 402.49V389.389C498.033 388.407 497.855 387.561 497.5 386.85C497.145 386.139 496.603 385.589 495.875 385.199C495.164 384.81 494.267 384.615 493.184 384.615C492.185 384.615 491.322 384.785 490.594 385.123C489.866 385.462 489.299 385.919 488.893 386.494C488.486 387.07 488.283 387.721 488.283 388.449H482.189C482.189 387.366 482.452 386.316 482.977 385.301C483.501 384.285 484.263 383.38 485.262 382.584C486.26 381.788 487.454 381.162 488.842 380.705C490.23 380.248 491.787 380.02 493.514 380.02C495.579 380.02 497.407 380.367 498.998 381.061C500.606 381.755 501.867 382.804 502.781 384.209C503.712 385.597 504.178 387.34 504.178 389.439V401.652C504.178 402.905 504.262 404.031 504.432 405.029C504.618 406.011 504.88 406.866 505.219 407.594V408H498.947C498.66 407.34 498.431 406.502 498.262 405.486C498.109 404.454 498.033 403.455 498.033 402.49ZM498.922 391.293L498.973 395.076H494.58C493.446 395.076 492.447 395.186 491.584 395.406C490.721 395.609 490.001 395.914 489.426 396.32C488.85 396.727 488.419 397.217 488.131 397.793C487.843 398.368 487.699 399.02 487.699 399.748C487.699 400.476 487.868 401.145 488.207 401.754C488.546 402.346 489.036 402.812 489.68 403.15C490.34 403.489 491.135 403.658 492.066 403.658C493.319 403.658 494.411 403.404 495.342 402.896C496.29 402.372 497.035 401.737 497.576 400.992C498.118 400.23 498.406 399.511 498.439 398.834L500.42 401.551C500.217 402.245 499.87 402.99 499.379 403.785C498.888 404.581 498.245 405.342 497.449 406.07C496.671 406.781 495.731 407.365 494.631 407.822C493.548 408.279 492.295 408.508 490.873 408.508C489.079 408.508 487.479 408.152 486.074 407.441C484.669 406.714 483.569 405.74 482.773 404.521C481.978 403.286 481.58 401.889 481.58 400.332C481.58 398.876 481.851 397.59 482.393 396.473C482.951 395.339 483.764 394.391 484.83 393.629C485.913 392.867 487.234 392.292 488.791 391.902C490.348 391.496 492.126 391.293 494.123 391.293H498.922ZM523.17 380.527V384.996H507.682V380.527H523.17ZM512.15 373.799H518.27V400.408C518.27 401.255 518.388 401.906 518.625 402.363C518.879 402.803 519.226 403.1 519.666 403.252C520.106 403.404 520.622 403.48 521.215 403.48C521.638 403.48 522.044 403.455 522.434 403.404C522.823 403.354 523.136 403.303 523.373 403.252L523.398 407.924C522.891 408.076 522.298 408.212 521.621 408.33C520.961 408.449 520.199 408.508 519.336 408.508C517.931 408.508 516.687 408.262 515.604 407.771C514.52 407.264 513.674 406.443 513.064 405.309C512.455 404.174 512.15 402.668 512.15 400.789V373.799ZM534.443 380.527V408H528.299V380.527H534.443ZM527.893 373.316C527.893 372.385 528.197 371.615 528.807 371.006C529.433 370.38 530.296 370.066 531.396 370.066C532.48 370.066 533.335 370.38 533.961 371.006C534.587 371.615 534.9 372.385 534.9 373.316C534.9 374.23 534.587 374.992 533.961 375.602C533.335 376.211 532.48 376.516 531.396 376.516C530.296 376.516 529.433 376.211 528.807 375.602C528.197 374.992 527.893 374.23 527.893 373.316ZM539.979 394.568V393.984C539.979 392.004 540.266 390.167 540.842 388.475C541.417 386.765 542.247 385.284 543.33 384.031C544.43 382.762 545.768 381.78 547.342 381.086C548.933 380.375 550.727 380.02 552.725 380.02C554.739 380.02 556.533 380.375 558.107 381.086C559.699 381.78 561.044 382.762 562.145 384.031C563.245 385.284 564.083 386.765 564.658 388.475C565.234 390.167 565.521 392.004 565.521 393.984V394.568C565.521 396.549 565.234 398.385 564.658 400.078C564.083 401.771 563.245 403.252 562.145 404.521C561.044 405.774 559.707 406.756 558.133 407.467C556.559 408.161 554.773 408.508 552.775 408.508C550.761 408.508 548.958 408.161 547.367 407.467C545.793 406.756 544.456 405.774 543.355 404.521C542.255 403.252 541.417 401.771 540.842 400.078C540.266 398.385 539.979 396.549 539.979 394.568ZM546.098 393.984V394.568C546.098 395.804 546.225 396.972 546.479 398.072C546.732 399.173 547.13 400.137 547.672 400.967C548.214 401.796 548.908 402.448 549.754 402.922C550.6 403.396 551.607 403.633 552.775 403.633C553.91 403.633 554.891 403.396 555.721 402.922C556.567 402.448 557.261 401.796 557.803 400.967C558.344 400.137 558.742 399.173 558.996 398.072C559.267 396.972 559.402 395.804 559.402 394.568V393.984C559.402 392.766 559.267 391.615 558.996 390.531C558.742 389.431 558.336 388.458 557.777 387.611C557.236 386.765 556.542 386.105 555.695 385.631C554.866 385.14 553.876 384.895 552.725 384.895C551.574 384.895 550.575 385.14 549.729 385.631C548.899 386.105 548.214 386.765 547.672 387.611C547.13 388.458 546.732 389.431 546.479 390.531C546.225 391.615 546.098 392.766 546.098 393.984ZM576.719 386.393V408H570.6V380.527H576.363L576.719 386.393ZM575.627 393.248L573.646 393.223C573.663 391.276 573.934 389.49 574.459 387.865C575.001 386.24 575.745 384.844 576.693 383.676C577.658 382.508 578.809 381.611 580.146 380.984C581.484 380.341 582.973 380.02 584.615 380.02C585.936 380.02 587.129 380.206 588.195 380.578C589.279 380.934 590.201 381.518 590.963 382.33C591.742 383.143 592.334 384.201 592.74 385.504C593.146 386.79 593.35 388.373 593.35 390.252V408H587.205V390.227C587.205 388.906 587.01 387.865 586.621 387.104C586.249 386.325 585.699 385.775 584.971 385.453C584.26 385.115 583.371 384.945 582.305 384.945C581.255 384.945 580.316 385.165 579.486 385.605C578.657 386.046 577.954 386.646 577.379 387.408C576.82 388.17 576.389 389.05 576.084 390.049C575.779 391.048 575.627 392.114 575.627 393.248ZM627.551 375.957L616.506 408H609.828L623.742 371.031H628.008L627.551 375.957ZM636.793 408L625.723 375.957L625.24 371.031H629.531L643.496 408H636.793ZM636.26 394.289V399.342H616.15V394.289H636.26ZM658.248 403.633C659.247 403.633 660.144 403.438 660.939 403.049C661.752 402.643 662.404 402.084 662.895 401.373C663.402 400.662 663.682 399.841 663.732 398.91H669.496C669.462 400.688 668.938 402.304 667.922 403.76C666.906 405.215 665.561 406.375 663.885 407.238C662.209 408.085 660.355 408.508 658.324 408.508C656.225 408.508 654.397 408.152 652.84 407.441C651.283 406.714 649.988 405.715 648.955 404.445C647.923 403.176 647.144 401.712 646.619 400.053C646.111 398.394 645.857 396.617 645.857 394.721V393.832C645.857 391.936 646.111 390.159 646.619 388.5C647.144 386.824 647.923 385.352 648.955 384.082C649.988 382.812 651.283 381.822 652.84 381.111C654.397 380.383 656.217 380.02 658.299 380.02C660.499 380.02 662.429 380.46 664.088 381.34C665.747 382.203 667.05 383.413 667.998 384.971C668.963 386.511 669.462 388.305 669.496 390.354H663.732C663.682 389.338 663.428 388.424 662.971 387.611C662.531 386.782 661.904 386.122 661.092 385.631C660.296 385.14 659.34 384.895 658.223 384.895C656.987 384.895 655.963 385.148 655.15 385.656C654.338 386.147 653.703 386.824 653.246 387.688C652.789 388.534 652.459 389.49 652.256 390.557C652.07 391.606 651.977 392.698 651.977 393.832V394.721C651.977 395.855 652.07 396.955 652.256 398.021C652.442 399.088 652.764 400.044 653.221 400.891C653.695 401.72 654.338 402.389 655.15 402.896C655.963 403.387 656.995 403.633 658.248 403.633ZM686.787 380.527V384.996H671.299V380.527H686.787ZM675.768 373.799H681.887V400.408C681.887 401.255 682.005 401.906 682.242 402.363C682.496 402.803 682.843 403.1 683.283 403.252C683.723 403.404 684.24 403.48 684.832 403.48C685.255 403.48 685.661 403.455 686.051 403.404C686.44 403.354 686.753 403.303 686.99 403.252L687.016 407.924C686.508 408.076 685.915 408.212 685.238 408.33C684.578 408.449 683.816 408.508 682.953 408.508C681.548 408.508 680.304 408.262 679.221 407.771C678.137 407.264 677.291 406.443 676.682 405.309C676.072 404.174 675.768 402.668 675.768 400.789V373.799ZM697.248 402.109L697.223 406.477C697.223 408.203 696.791 409.98 695.928 411.809C695.064 413.637 693.922 415.143 692.5 416.328L689.225 414.424C689.699 413.662 690.13 412.892 690.52 412.113C690.909 411.335 691.222 410.505 691.459 409.625C691.696 408.745 691.814 407.771 691.814 406.705V402.109H697.248ZM353.891 431.904V469H347.771V439.166L338.707 442.238V437.186L353.154 431.904H353.891ZM390.91 458.92C390.91 461.222 390.377 463.16 389.311 464.734C388.244 466.309 386.788 467.502 384.943 468.314C383.115 469.11 381.05 469.508 378.748 469.508C376.446 469.508 374.372 469.11 372.527 468.314C370.682 467.502 369.227 466.309 368.16 464.734C367.094 463.16 366.561 461.222 366.561 458.92C366.561 457.396 366.857 456.017 367.449 454.781C368.042 453.529 368.88 452.454 369.963 451.557C371.063 450.643 372.35 449.94 373.822 449.449C375.312 448.958 376.937 448.713 378.697 448.713C381.033 448.713 383.124 449.145 384.969 450.008C386.814 450.871 388.261 452.064 389.311 453.588C390.377 455.111 390.91 456.889 390.91 458.92ZM384.766 458.615C384.766 457.38 384.512 456.296 384.004 455.365C383.496 454.434 382.785 453.715 381.871 453.207C380.957 452.699 379.899 452.445 378.697 452.445C377.479 452.445 376.421 452.699 375.523 453.207C374.626 453.715 373.924 454.434 373.416 455.365C372.925 456.296 372.68 457.38 372.68 458.615C372.68 459.868 372.925 460.951 373.416 461.865C373.907 462.762 374.609 463.448 375.523 463.922C376.438 464.396 377.512 464.633 378.748 464.633C379.984 464.633 381.05 464.396 381.947 463.922C382.844 463.448 383.538 462.762 384.029 461.865C384.52 460.951 384.766 459.868 384.766 458.615ZM390.072 441.756C390.072 443.601 389.581 445.243 388.6 446.682C387.635 448.12 386.298 449.255 384.588 450.084C382.878 450.896 380.932 451.303 378.748 451.303C376.548 451.303 374.584 450.896 372.857 450.084C371.148 449.255 369.802 448.12 368.82 446.682C367.855 445.243 367.373 443.601 367.373 441.756C367.373 439.555 367.855 437.702 368.82 436.195C369.802 434.672 371.148 433.512 372.857 432.717C374.567 431.921 376.522 431.523 378.723 431.523C380.923 431.523 382.878 431.921 384.588 432.717C386.298 433.512 387.635 434.672 388.6 436.195C389.581 437.702 390.072 439.555 390.072 441.756ZM383.953 441.959C383.953 440.859 383.733 439.894 383.293 439.064C382.87 438.218 382.269 437.558 381.49 437.084C380.712 436.61 379.789 436.373 378.723 436.373C377.656 436.373 376.734 436.602 375.955 437.059C375.176 437.516 374.576 438.159 374.152 438.988C373.729 439.818 373.518 440.808 373.518 441.959C373.518 443.093 373.729 444.083 374.152 444.93C374.576 445.759 375.176 446.411 375.955 446.885C376.751 447.359 377.682 447.596 378.748 447.596C379.814 447.596 380.737 447.359 381.516 446.885C382.294 446.411 382.895 445.759 383.318 444.93C383.742 444.083 383.953 443.093 383.953 441.959ZM414.777 431.803H415.539V436.805H415.107C412.924 436.805 411.036 437.143 409.445 437.82C407.871 438.497 406.576 439.428 405.561 440.613C404.545 441.798 403.783 443.186 403.275 444.777C402.785 446.352 402.539 448.027 402.539 449.805V455.619C402.539 457.092 402.7 458.395 403.021 459.529C403.343 460.646 403.792 461.586 404.367 462.348C404.96 463.092 405.637 463.66 406.398 464.049C407.16 464.438 407.981 464.633 408.861 464.633C409.775 464.633 410.605 464.447 411.35 464.074C412.094 463.685 412.729 463.152 413.254 462.475C413.779 461.798 414.176 460.993 414.447 460.062C414.718 459.132 414.854 458.116 414.854 457.016C414.854 455.966 414.718 454.984 414.447 454.07C414.193 453.139 413.812 452.327 413.305 451.633C412.797 450.922 412.162 450.372 411.4 449.982C410.656 449.576 409.792 449.373 408.811 449.373C407.592 449.373 406.483 449.661 405.484 450.236C404.503 450.812 403.707 451.565 403.098 452.496C402.505 453.41 402.184 454.383 402.133 455.416L399.797 454.654C399.932 453.08 400.279 451.667 400.838 450.414C401.413 449.161 402.167 448.095 403.098 447.215C404.029 446.335 405.104 445.666 406.322 445.209C407.558 444.735 408.912 444.498 410.385 444.498C412.179 444.498 413.736 444.837 415.057 445.514C416.377 446.191 417.469 447.113 418.332 448.281C419.212 449.432 419.864 450.753 420.287 452.242C420.727 453.715 420.947 455.255 420.947 456.863C420.947 458.641 420.676 460.299 420.135 461.84C419.593 463.363 418.798 464.701 417.748 465.852C416.715 467.003 415.454 467.9 413.965 468.543C412.492 469.186 410.816 469.508 408.938 469.508C406.957 469.508 405.188 469.127 403.631 468.365C402.09 467.604 400.779 466.554 399.695 465.217C398.629 463.88 397.816 462.339 397.258 460.596C396.699 458.852 396.42 457.007 396.42 455.061V452.521C396.42 449.712 396.775 447.062 397.486 444.574C398.197 442.069 399.289 439.86 400.762 437.947C402.251 436.035 404.156 434.536 406.475 433.453C408.794 432.353 411.561 431.803 414.777 431.803ZM449.943 447.418V453.461C449.943 456.355 449.656 458.827 449.08 460.875C448.521 462.906 447.709 464.557 446.643 465.826C445.576 467.096 444.298 468.027 442.809 468.619C441.336 469.212 439.686 469.508 437.857 469.508C436.402 469.508 435.048 469.322 433.795 468.949C432.559 468.577 431.442 467.993 430.443 467.197C429.445 466.402 428.59 465.378 427.879 464.125C427.185 462.855 426.643 461.34 426.254 459.58C425.882 457.82 425.695 455.78 425.695 453.461V447.418C425.695 444.507 425.983 442.052 426.559 440.055C427.134 438.04 427.955 436.407 429.021 435.154C430.088 433.885 431.357 432.962 432.83 432.387C434.32 431.811 435.979 431.523 437.807 431.523C439.279 431.523 440.633 431.71 441.869 432.082C443.122 432.438 444.239 433.005 445.221 433.783C446.219 434.562 447.066 435.577 447.76 436.83C448.471 438.066 449.012 439.564 449.385 441.324C449.757 443.068 449.943 445.099 449.943 447.418ZM443.824 454.324V446.504C443.824 445.031 443.74 443.736 443.57 442.619C443.401 441.485 443.147 440.529 442.809 439.75C442.487 438.954 442.081 438.311 441.59 437.82C441.099 437.312 440.54 436.949 439.914 436.729C439.288 436.492 438.585 436.373 437.807 436.373C436.859 436.373 436.012 436.559 435.268 436.932C434.523 437.287 433.896 437.863 433.389 438.658C432.881 439.454 432.492 440.503 432.221 441.807C431.967 443.093 431.84 444.659 431.84 446.504V454.324C431.84 455.814 431.924 457.126 432.094 458.26C432.263 459.394 432.517 460.367 432.855 461.18C433.194 461.975 433.6 462.635 434.074 463.16C434.565 463.668 435.124 464.04 435.75 464.277C436.393 464.514 437.096 464.633 437.857 464.633C438.822 464.633 439.677 464.447 440.422 464.074C441.167 463.702 441.793 463.109 442.301 462.297C442.809 461.467 443.189 460.393 443.443 459.072C443.697 457.752 443.824 456.169 443.824 454.324Z" fill="#30486E"/>
</g>
<defs>
<filter id="filter0_d_1281_1902" x="42.0234" y="576" width="850.602" height="215.211" filterUnits="userSpaceOnUse" color-interpolation-filters="sRGB">
<feFlood flood-opacity="0" result="BackgroundImageFix"/>
<feColorMatrix in="SourceAlpha" type="matrix" values="0 0 0 0 0 0 0 0 0 0 0 0 0 0 0 0 0 0 127 0" result="hardAlpha"/>
<feOffset dy="4"/>
<feGaussianBlur stdDeviation="2"/>
<feComposite in2="hardAlpha" operator="out"/>
<feColorMatrix type="matrix" values="0 0 0 0 0 0 0 0 0 0 0 0 0 0 0 0 0 0 0.25 0"/>
<feBlend mode="normal" in2="BackgroundImageFix" result="effect1_dropShadow_1281_1902"/>
<feBlend mode="normal" in="SourceGraphic" in2="effect1_dropShadow_1281_1902" result="shape"/>
</filter>
<filter id="filter1_d_1281_1902" x="42.0234" y="320.367" width="850.602" height="215.211" filterUnits="userSpaceOnUse" color-interpolation-filters="sRGB">
<feFlood flood-opacity="0" result="BackgroundImageFix"/>
<feColorMatrix in="SourceAlpha" type="matrix" values="0 0 0 0 0 0 0 0 0 0 0 0 0 0 0 0 0 0 127 0" result="hardAlpha"/>
<feOffset dy="4"/>
<feGaussianBlur stdDeviation="2"/>
<feComposite in2="hardAlpha" operator="out"/>
<feColorMatrix type="matrix" values="0 0 0 0 0 0 0 0 0 0 0 0 0 0 0 0 0 0 0.25 0"/>
<feBlend mode="normal" in2="BackgroundImageFix" result="effect1_dropShadow_1281_1902"/>
<feBlend mode="normal" in="SourceGraphic" in2="effect1_dropShadow_1281_1902" result="shape"/>
</filter>
<filter id="filter2_d_1281_1902" x="42.0234" y="65" width="850.602" height="215.211" filterUnits="userSpaceOnUse" color-interpolation-filters="sRGB">
<feFlood flood-opacity="0" result="BackgroundImageFix"/>
<feColorMatrix in="SourceAlpha" type="matrix" values="0 0 0 0 0 0 0 0 0 0 0 0 0 0 0 0 0 0 127 0" result="hardAlpha"/>
<feOffset dy="4"/>
<feGaussianBlur stdDeviation="2"/>
<feComposite in2="hardAlpha" operator="out"/>
<feColorMatrix type="matrix" values="0 0 0 0 0 0 0 0 0 0 0 0 0 0 0 0 0 0 0.25 0"/>
<feBlend mode="normal" in2="BackgroundImageFix" result="effect1_dropShadow_1281_1902"/>
<feBlend mode="normal" in="SourceGraphic" in2="effect1_dropShadow_1281_1902" result="shape"/>
</filter>
<linearGradient id="paint0_linear_1281_1902" x1="725.971" y1="642.867" x2="872.45" y2="642.867" gradientUnits="userSpaceOnUse">
<stop stop-color="#B32079"/>
<stop offset="1" stop-color="#EF5CB5"/>
</linearGradient>
<linearGradient id="paint1_linear_1281_1902" x1="856.547" y1="565.045" x2="888.638" y2="565.045" gradientUnits="userSpaceOnUse">
<stop stop-color="#99005C"/>
<stop offset="1" stop-color="#D53B98"/>
</linearGradient>
<linearGradient id="paint2_linear_1281_1902" x1="725.971" y1="387.233" x2="872.45" y2="387.233" gradientUnits="userSpaceOnUse">
<stop stop-color="#738494"/>
<stop offset="1" stop-color="#AFC0D0"/>
</linearGradient>
<linearGradient id="paint3_linear_1281_1902" x1="856.547" y1="309.412" x2="888.638" y2="309.412" gradientUnits="userSpaceOnUse">
<stop stop-color="#5E6E7E"/>
<stop offset="1" stop-color="#9AAABA"/>
</linearGradient>
<linearGradient id="paint4_linear_1281_1902" x1="725.971" y1="131.857" x2="872.45" y2="131.857" gradientUnits="userSpaceOnUse">
<stop stop-color="#E19000"/>
<stop offset="1" stop-color="#FFCC1E"/>
</linearGradient>
<linearGradient id="paint5_linear_1281_1902" x1="856.547" y1="54.036" x2="888.638" y2="54.036" gradientUnits="userSpaceOnUse">
<stop stop-color="#E15E00"/>
<stop offset="1" stop-color="#FF9A1E"/>
</linearGradient>
<clipPath id="clip0_1281_1902">
<rect width="938" height="810" fill="white"/>
</clipPath>
</defs>
</svg>
