<svg width="1080" height="1049" viewBox="0 0 1080 1049" fill="none" xmlns="http://www.w3.org/2000/svg">
<rect width="1080" height="1049" fill="white"/>
<path d="M735.911 765.051C853.925 647.037 853.925 455.698 735.911 337.683C617.896 219.669 426.557 219.669 308.543 337.683C190.529 455.698 190.529 647.037 308.543 765.051C426.557 883.065 617.896 883.065 735.911 765.051Z" fill="#DFF6F5"/>
<path d="M1080 1047C1077.96 962.4 836.981 894 540 894C243.019 894 2.07065 962.4 0 1047H1080Z" fill="#F4B73B"/>
<path d="M689 584.921V568.857H676.243C675.665 562.777 674.435 556.776 672.575 550.955L684.216 546.044L677.838 531.279L666.516 536.19C663.79 531.256 660.585 526.597 656.948 522.281L665.91 513.378L654.492 502.035L645.531 510.938C640.796 507.058 635.665 503.681 630.222 500.862L634.974 489.202L619.985 483.182L615.233 494.842C609.826 493.234 604.27 492.173 598.649 491.674V479H582.511V491.674C576.38 492.246 570.329 493.467 564.46 495.317L559.516 483.753L544.655 490.09L549.598 501.654C544.633 504.366 539.944 507.549 535.597 511.16L526.603 502.256L515.186 513.599L524.18 522.503C520.255 527.205 516.855 532.314 514.038 537.743L502.269 533.022L496.21 547.882L507.946 552.603C506.342 557.978 505.274 563.496 504.757 569.079H492V585.143H504.757C505.32 591.225 506.55 597.228 508.425 603.045L496.752 607.924L503.131 622.721L514.803 617.778C517.51 622.734 520.715 627.405 524.371 631.719L515.377 640.622L526.795 651.965L535.788 643.062C540.52 646.946 545.652 650.323 551.097 653.138L546.345 664.798L561.302 670.818L566.054 659.158C571.471 660.769 577.038 661.83 582.67 662.326V675H598.808V662.326C604.927 661.762 610.967 660.551 616.827 658.714L621.771 670.279L636.633 663.942L631.434 652.251C636.394 649.53 641.082 646.348 645.435 642.745L654.397 651.649L665.814 640.305L656.948 631.561C660.861 626.851 664.261 621.742 667.09 616.32L678.858 621.041L684.886 606.181L673.149 601.46C674.768 596.089 675.836 590.569 676.339 584.984L689 584.921ZM643.936 590.371C642.689 595.207 640.79 599.854 638.291 604.185C637.109 606.202 635.81 608.149 634.4 610.015C631.345 613.974 627.774 617.512 623.78 620.534C622.169 621.762 620.486 622.894 618.741 623.925C614.431 626.5 609.784 628.473 604.931 629.786C602.653 630.382 600.342 630.847 598.011 631.18C593.037 631.856 587.995 631.856 583.021 631.18C576.009 630.218 569.251 627.915 563.12 624.4C561.078 623.245 559.118 621.953 557.252 620.534C553.243 617.528 549.67 613.989 546.632 610.015C545.4 608.401 544.261 606.719 543.219 604.977C540.626 600.7 538.65 596.082 537.351 591.258C536.722 589.012 536.253 586.725 535.948 584.414C535.225 579.466 535.225 574.439 535.948 569.491C536.201 567.483 536.585 565.493 537.096 563.534C540.17 551.497 547.279 540.858 557.252 533.371C558.86 532.129 560.543 530.986 562.291 529.949C566.606 527.39 571.252 525.429 576.101 524.119C578.374 523.505 580.686 523.039 583.021 522.725C587.995 522.049 593.037 522.049 598.011 522.725C600.031 522.999 602.032 523.391 604.006 523.897C608.881 525.117 613.561 527.004 617.912 529.505C619.955 530.646 621.916 531.927 623.78 533.339C627.774 536.362 631.345 539.899 634.4 543.858C635.612 545.474 636.76 547.027 637.813 548.896C640.393 553.18 642.368 557.796 643.681 562.615C644.298 564.864 644.767 567.15 645.084 569.459C645.764 574.411 645.764 579.431 645.084 584.382C644.797 586.379 644.414 588.343 643.936 590.371Z" fill="#B2EAF2"/>
<path d="M261.5 295C308.72 295 347 264.332 347 226.5C347 188.668 308.72 158 261.5 158C214.28 158 176 188.668 176 226.5C176 264.332 214.28 295 261.5 295Z" fill="#FAAAB3"/>
<path d="M333 298L313.653 265L287 283.205L333 298Z" fill="#FAAAB3"/>
<path d="M999.5 462C1030.7 462 1056 437.6 1056 407.5C1056 377.4 1030.7 353 999.5 353C968.296 353 943 377.4 943 407.5C943 437.6 968.296 462 999.5 462Z" fill="#FFF0AC"/>
<path d="M953 464L965.61 442L983 454.138L953 464Z" fill="#FFF0AC"/>
<g style="mix-blend-mode:screen" opacity="0.7">
<path d="M738.109 420.477V478.863H796.496C796.479 463.383 790.323 448.542 779.377 437.596C768.431 426.65 753.589 420.493 738.109 420.477Z" fill="#DFF6F5"/>
<path d="M731.527 427.023C719.98 427.023 708.691 430.448 699.089 436.863C689.488 443.279 682.004 452.398 677.585 463.067C673.166 473.735 672.01 485.475 674.263 496.801C676.515 508.127 682.076 518.53 690.242 526.696C698.407 534.861 708.811 540.422 720.137 542.675C731.463 544.928 743.202 543.772 753.871 539.353C764.54 534.933 773.659 527.45 780.074 517.848C786.49 508.247 789.914 496.958 789.914 485.41H731.527V427.023Z" fill="#DFF6F5"/>
</g>
<path d="M287 353C287 356.165 286.062 359.258 284.303 361.889C282.545 364.52 280.047 366.571 277.123 367.782C274.199 368.993 270.982 369.31 267.879 368.693C264.775 368.075 261.924 366.551 259.686 364.314C257.449 362.076 255.925 359.225 255.307 356.121C254.69 353.018 255.007 349.801 256.218 346.877C257.429 343.953 259.48 341.455 262.111 339.696C264.742 337.938 267.835 337 271 337C275.243 337 279.313 338.686 282.314 341.686C285.314 344.687 287 348.757 287 353Z" fill="#FAAAB3"/>
<path d="M362 195.033C361.994 196.218 361.666 197.375 361.059 198.357C360.451 199.339 359.59 200.103 358.584 200.553C357.579 201.002 356.474 201.116 355.409 200.881C354.344 200.646 353.367 200.072 352.6 199.231C351.834 198.391 351.313 197.322 351.104 196.159C350.894 194.996 351.004 193.791 351.422 192.696C351.839 191.602 352.544 190.667 353.447 190.009C354.351 189.351 355.413 189 356.5 189C357.961 189.009 359.36 189.648 360.391 190.778C361.422 191.909 362 193.438 362 195.033Z" fill="#B2EAF2"/>
<path d="M650 426.5C650 428.577 649.355 430.607 648.146 432.333C646.937 434.06 645.219 435.406 643.21 436.201C641.2 436.995 638.988 437.203 636.854 436.798C634.72 436.393 632.76 435.393 631.222 433.925C629.683 432.456 628.636 430.585 628.211 428.548C627.787 426.512 628.005 424.4 628.837 422.482C629.67 420.563 631.08 418.923 632.889 417.77C634.698 416.616 636.824 416 639 416C641.917 416 644.715 417.106 646.778 419.075C648.841 421.045 650 423.715 650 426.5Z" fill="#FFD969"/>
<path d="M930.154 515.686L932.984 494.778C933.022 494.511 932.992 494.24 932.897 493.989C932.802 493.738 932.645 493.517 932.442 493.348C932.24 493.178 931.997 493.066 931.74 493.021C931.482 492.977 931.217 493.002 930.972 493.095L910.029 500.733C909.763 500.825 909.528 500.991 909.349 501.213C909.17 501.434 909.054 501.703 909.015 501.989C908.976 502.274 909.014 502.565 909.127 502.829C909.239 503.094 909.421 503.32 909.652 503.484L927.764 516.722C927.977 516.872 928.223 516.965 928.48 516.992C928.737 517.019 928.996 516.979 929.234 516.876C929.472 516.773 929.681 516.61 929.842 516.402C930.002 516.194 930.11 515.948 930.154 515.686Z" fill="#46D0DD"/>
<path d="M277.104 599.182L278.993 585.165C279.013 584.988 278.99 584.81 278.925 584.645C278.86 584.481 278.755 584.337 278.62 584.226C278.486 584.115 278.326 584.042 278.157 584.014C277.987 583.985 277.814 584.002 277.652 584.062L263.668 589.165C263.494 589.229 263.341 589.341 263.225 589.488C263.109 589.636 263.035 589.814 263.009 590.002C262.984 590.19 263.01 590.382 263.083 590.557C263.156 590.731 263.274 590.882 263.424 590.992L275.611 599.875C275.75 599.951 275.905 599.994 276.063 599.999C276.22 600.005 276.377 599.973 276.521 599.906C276.665 599.839 276.793 599.739 276.894 599.614C276.995 599.488 277.066 599.34 277.104 599.182Z" fill="#46D0DD"/>
<path d="M540.856 254.074L534.774 248L540.856 241.926C541.508 241.275 541.874 240.392 541.874 239.471C541.874 238.551 541.508 237.668 540.856 237.017C540.204 236.366 539.32 236 538.398 236C537.476 236 536.592 236.366 535.94 237.017L529.858 243.091L523.934 237.017C523.282 236.366 522.398 236 521.476 236C520.554 236 519.67 236.366 519.018 237.017C518.366 237.668 518 238.551 518 239.471C518 240.392 518.366 241.275 519.018 241.926L525.068 248L519.018 254.074C518.366 254.725 518 255.608 518 256.529C518 257.449 518.366 258.332 519.018 258.983C519.67 259.634 520.554 260 521.476 260C522.398 260 523.282 259.634 523.934 258.983L529.984 252.909L536.066 258.983C536.389 259.306 536.772 259.561 537.194 259.736C537.615 259.91 538.067 260 538.524 260C538.98 260 539.432 259.91 539.854 259.736C540.276 259.561 540.659 259.306 540.982 258.983C541.305 258.661 541.561 258.278 541.735 257.857C541.91 257.436 542 256.984 542 256.529C542 256.073 541.91 255.621 541.735 255.2C541.561 254.779 541.305 254.396 540.982 254.074H540.856Z" fill="#FFF0AC"/>
<path d="M763.575 580.072L760.48 577L763.575 573.928C763.863 573.599 764.014 573.174 763.999 572.739C763.983 572.304 763.802 571.891 763.492 571.583C763.182 571.276 762.766 571.096 762.327 571.081C761.889 571.065 761.461 571.215 761.13 571.501L758.034 574.573L754.938 571.501C754.613 571.18 754.174 571 753.715 571C753.257 571 752.817 571.18 752.492 571.501C752.176 571.827 752 572.262 752 572.714C752 573.167 752.176 573.602 752.492 573.928L755.588 577L752.492 580.072C752.176 580.398 752 580.833 752 581.286C752 581.738 752.176 582.173 752.492 582.499C752.817 582.82 753.257 583 753.715 583C754.174 583 754.613 582.82 754.938 582.499L758.034 579.427L761.13 582.499C761.461 582.785 761.889 582.935 762.327 582.919C762.766 582.904 763.182 582.724 763.492 582.417C763.802 582.109 763.983 581.696 763.999 581.261C764.014 580.826 763.863 580.401 763.575 580.072Z" fill="#FFA5B2"/>
<path d="M468.442 303.994L433.787 293.315C433.237 293.092 432.645 292.977 432.047 292.977C431.448 292.977 430.856 293.092 430.306 293.315C429.001 294.016 427.86 294.959 426.949 296.089C426.038 297.219 425.377 298.511 425.006 299.889C424.985 299.951 424.951 300.007 424.906 300.056C424.861 300.105 424.806 300.144 424.744 300.172C424.683 300.2 424.616 300.216 424.547 300.218C424.479 300.221 424.411 300.21 424.347 300.186C424.282 300.166 424.222 300.134 424.171 300.091C424.12 300.049 424.078 299.997 424.049 299.938C424.019 299.88 424.003 299.816 424 299.751C423.998 299.687 424.009 299.622 424.034 299.562C424.454 298.05 425.193 296.636 426.206 295.404C427.22 294.171 428.486 293.147 429.93 292.393C431.287 291.869 432.806 291.869 434.164 292.393L468.661 303.042C468.787 303.089 468.89 303.179 468.948 303.295C469.006 303.411 469.016 303.544 468.975 303.667C468.945 303.774 468.874 303.868 468.775 303.928C468.677 303.989 468.558 304.012 468.442 303.994Z" fill="#2A1200"/>
<path d="M491.666 467C492.02 467 508 513.605 508 513.605L458.389 517L449 478.051L491.666 467Z" fill="#EFCAAC"/>
<path d="M317.53 937.36C320.282 938.986 337.277 947.115 343.55 950.009C349.15 952.635 355.037 954.578 361.088 955.797C367.124 957.014 373.305 957.31 379.427 956.675C379.562 956.526 379.68 956.362 379.779 956.187C380.188 955.95 380.583 955.689 380.963 955.407C382.355 954.328 383.345 952.801 383.77 951.075C384.194 949.35 384.028 947.529 383.3 945.912C382.367 944.255 381.115 942.807 379.619 941.652C377.859 940.189 376.002 938.824 374.114 937.523C369.922 934.629 365.505 932.06 361.312 929.232C357.12 926.403 353.439 924.322 349.854 921.395C348.099 919.994 346.509 918.39 345.118 916.616C344.434 915.829 343.989 914.857 343.838 913.819C343.838 912.844 344.222 911.901 344.126 910.893C343.838 907.641 338.301 908.194 336.124 908.324C334.376 908.287 332.634 908.551 330.972 909.105C330.264 909.408 329.67 909.931 329.275 910.6C328.795 911.381 328.635 912.454 327.579 911.998C325.883 911.283 324.795 909.43 323.418 908.292C322.247 907.264 320.855 906.529 319.354 906.146C318.699 905.983 318.018 905.956 317.352 906.068C316.686 906.18 316.05 906.427 315.481 906.796C312.523 914.959 311.428 923.698 312.281 932.353C313.858 934.199 315.617 935.877 317.53 937.36Z" fill="#7E4A28"/>
<path d="M405.081 938.899C408.05 940.074 411.147 940.835 414.117 942.073C420.502 944.548 426.505 947.816 433.083 949.752C438.976 951.536 445.066 952.602 451.218 952.925C457.351 953.225 463.494 952.626 469.45 951.148C469.558 950.986 469.654 950.816 469.738 950.64L470.791 949.688C472.022 948.449 472.788 946.829 472.962 945.097C473.136 943.364 472.708 941.625 471.749 940.169C470.59 938.702 469.146 937.483 467.502 936.583C465.545 935.426 463.531 934.367 461.468 933.41C456.934 931.22 452.208 929.38 447.642 927.254C443.077 925.128 439.149 923.637 435.19 921.32C433.268 920.214 431.479 918.894 429.858 917.386C429.075 916.724 428.499 915.854 428.197 914.879C427.974 913.927 428.197 912.975 428.197 912.023C427.431 908.85 422.035 910.246 419.928 910.69C418.193 910.895 416.507 911.4 414.947 912.182C414.306 912.583 413.805 913.17 413.51 913.863C413.127 914.657 413.127 915.736 412.009 915.45C410.253 915.006 408.816 913.356 407.379 912.467C406.076 911.654 404.6 911.155 403.069 911.008C402.398 910.933 401.719 910.998 401.076 911.2C400.432 911.403 399.839 911.737 399.333 912.182C397.493 920.434 397.559 928.994 399.525 937.218C400.738 938.233 403.644 938.328 405.081 938.899Z" fill="#7E4A28"/>
<path d="M421.675 537C416.801 537 411.894 536.809 406.987 536.587C387.347 535.864 367.899 532.456 349.19 526.458C346.195 525.474 343.264 524.331 340.269 523.283C338.996 520.995 337.868 518.63 336.892 516.202C336.382 513.599 335.968 511.027 335.585 508.455C338.102 503.406 321.216 412.372 324.402 399.926C326.887 390.4 322.554 369.539 324.943 359.854C328.13 354.52 350.019 351.853 361.871 348.36C368.435 346.391 372.099 301.684 376.209 302.002C381.912 302.414 394.115 313.464 399.468 315.179C401.794 315.941 406.732 326.197 408.771 327.594C409.058 329.785 407.115 350.329 408.58 352.329C410.039 354.227 411.742 355.924 413.646 357.378C415.908 359.156 444.456 369.158 446.75 371.476C447.451 372.523 449.172 433.551 446.75 451.682C442.035 486.292 440.378 503.66 430.151 528.617C429.322 528.681 422.472 537 421.675 537Z" fill="#F6DFC9"/>
<path d="M424.439 379.476C422.004 384.558 417.93 388.697 412.856 391.241C403.231 396.284 391.264 396.664 380.58 395.364C369.784 394.081 359.614 389.667 351.352 382.679C343.359 375.742 337.276 366.915 333.674 357.023L333 355.057C341.374 352.52 353.534 350.586 361.33 348.302C367.939 346.336 371.629 301.685 375.768 302.002C381.511 302.414 393.799 313.45 399.189 315.162C401.531 315.924 406.504 326.167 408.557 327.562C408.846 329.75 406.889 350.268 408.365 352.266C409.833 354.162 411.548 355.857 413.466 357.309C418.203 359.561 423.054 361.572 428 363.334C427.873 368.891 426.664 374.371 424.439 379.476Z" fill="#EFCAAC"/>
<path d="M394.266 914.001C389.786 832.578 380.539 612.448 380.539 612.448C380.539 612.448 357.438 564.739 361.473 552.239C365.509 539.739 426.614 535 426.614 535C432.648 551.17 437.824 567.647 442.121 584.363C446.443 602.27 433.542 883.722 431.254 913.683C428.267 913.524 414.126 923.257 394.266 914.001Z" fill="#5E7D92"/>
<path d="M388.896 617.018L346.466 915.834C342.191 913.706 327.847 922.663 312.711 910.308C309.228 886.391 319.582 601.169 321.292 577.856C322.844 556.607 324.902 527.672 336.523 517C342.508 520.589 428.034 518.652 435 524.337C434.715 532.976 436.045 561.022 425.912 573.917C417.679 584.653 388.896 617.018 388.896 617.018Z" fill="#759AB3"/>
<path d="M351.456 534.047C350.556 543.906 349.527 553.764 347.823 563.559C346.289 573.152 343.757 582.561 340.266 591.636C337.123 599.952 332.234 607.51 325.923 613.81C324.674 614.942 323.364 616.007 322 617C322.836 595.751 323.544 580.756 323.865 576.13C325.473 554.753 327.563 525.688 339.333 515C343.795 516.154 348.389 516.722 353 516.691C352.453 522.53 352.1 528.272 351.456 534.047Z" fill="#203A59"/>
<path d="M362.957 265.266C360.281 277.933 359.771 290.948 365.156 303.014C370.295 314.351 378.656 323.949 389.21 330.628C398.991 336.961 410.907 341.521 422.695 339.526C428.509 338.337 434.01 335.957 438.848 332.539C443.686 329.12 447.755 324.738 450.795 319.671C454.746 313.337 455.192 306.339 455.415 299.087C455.452 295.119 455.793 291.16 456.435 287.243C457.267 283.4 458.473 279.645 460.035 276.033C462.711 269.351 465.546 262.384 464.909 255.037C464.774 253.598 464.54 252.17 464.208 250.762C464.208 249.464 463.922 248.134 463.73 246.804C461.946 235.625 456.052 230.97 446.749 224.13C436.745 216.942 424.128 208.296 411.99 210.291C399.089 212.493 387.418 219.238 379.11 229.292C370.833 239.781 365.285 252.137 362.957 265.266Z" fill="#F6DFC9"/>
<path d="M444.248 293.806C444.998 292.043 446.184 290.542 447.589 291.13C447.831 291.285 448.034 291.497 448.183 291.75C448.761 292.727 449.044 293.865 448.994 295.013C448.99 296.781 448.595 298.523 447.839 300.104C447.483 300.835 446.915 301.429 446.215 301.801C445.848 301.979 445.439 302.039 445.04 301.975C444.64 301.911 444.267 301.726 443.967 301.442C443.497 300.77 443.187 299.99 443.062 299.167C442.937 298.344 443.001 297.502 443.249 296.71C443.49 295.71 443.825 294.737 444.248 293.806Z" fill="#6B3F33"/>
<path d="M447.734 293.576C447.93 293.341 448.236 293.15 448.612 293.027C448.668 293.009 448.729 293 448.792 293C448.854 293 448.916 293.009 448.971 293.027V293.152C449.01 293.301 449.01 293.452 448.971 293.601C448.962 293.949 448.826 294.291 448.572 294.6C448.465 294.743 448.281 294.858 448.053 294.925C447.949 294.974 447.823 295 447.694 295C447.564 295 447.438 294.974 447.334 294.925C447.17 294.797 447.062 294.645 447.02 294.483C446.978 294.321 447.003 294.155 447.095 294.001C447.277 293.842 447.491 293.699 447.734 293.576Z" fill="white"/>
<path d="M408.04 284.772C408.665 283.05 409.653 281.522 410.824 282.14C411.031 282.285 411.202 282.499 411.318 282.757C411.802 283.73 412.038 284.864 411.995 286.008C411.992 287.768 411.662 289.503 411.032 291.078C410.737 291.815 410.264 292.417 409.679 292.8C409.372 292.982 409.029 293.041 408.694 292.972C408.359 292.902 408.049 292.706 407.806 292.41C407.414 291.746 407.156 290.975 407.052 290.161C406.948 289.347 407.001 288.513 407.207 287.73C407.406 286.712 407.685 285.721 408.04 284.772Z" fill="#6B3F33"/>
<path d="M410.367 284.576C410.465 284.341 410.618 284.15 410.806 284.027C410.834 284.009 410.865 284 410.896 284C410.927 284 410.958 284.009 410.986 284.027V284.152C411.005 284.301 411.005 284.452 410.986 284.601C410.975 284.948 410.907 285.288 410.786 285.6C410.726 285.737 410.636 285.85 410.526 285.925C410.475 285.974 410.412 286 410.347 286C410.282 286 410.219 285.974 410.167 285.925C410.085 285.797 410.031 285.645 410.01 285.483C409.989 285.321 410.002 285.155 410.047 285.001C410.138 284.842 410.246 284.699 410.367 284.576Z" fill="white"/>
<path d="M456.948 275.128C455.255 274.945 453.537 275.106 451.922 275.598C449.898 276.121 447.932 276.809 446.047 277.652C444.448 278.356 442.784 279.149 441.315 280C441.054 279.795 440.891 279.442 441.086 279.266C441.935 278.415 442.686 277.564 443.567 276.772C444.586 275.906 445.677 275.111 446.83 274.394C448.797 273.078 451.007 272.084 453.358 271.46C455.185 270.99 457.829 270.491 459.167 272.105C459.969 273.336 460.203 274.8 459.82 276.185C459.852 276.29 459.852 276.402 459.82 276.508V276.713C459.488 276.285 459.062 275.924 458.568 275.651C458.074 275.378 457.522 275.2 456.948 275.128Z" fill="#694312"/>
<path d="M418.001 270.283C415.295 269.222 412.557 268.316 409.787 267.442C405.234 265.975 400.649 264.632 396 263.571C397.129 262.639 398.456 261.967 399.884 261.604C401.963 260.998 404.153 260.845 406.298 261.158C408.444 261.471 410.493 262.241 412.302 263.415C414.524 264.715 416.652 266.165 418.67 267.754C419.815 268.595 420.88 269.536 421.854 270.564C422.175 270.89 422.463 271.245 422.713 271.625L423 272C421.292 271.552 419.621 270.978 418.001 270.283Z" fill="#694312"/>
<g style="mix-blend-mode:multiply">
<path d="M429.23 312.368C431.352 311.788 433.377 310.852 435.232 309.593C435.614 309.316 435.932 308.947 436.162 308.515C436.237 307.899 436.175 307.273 435.982 306.687C435.682 305.479 435.232 304.337 434.992 303.129C434.572 300.974 434.152 298.82 433.882 296.6C433.882 296.045 434.032 295.522 434.122 295C434.502 298.024 435.084 301.013 435.862 303.945C436.373 305.904 437.633 308.32 436.613 310.474C436.053 311.281 435.345 311.954 434.534 312.448C433.723 312.943 432.826 313.249 431.901 313.347C431.361 313.347 430.821 313.576 430.311 313.739L428 314C428.443 313.486 428.854 312.941 429.23 312.368Z" fill="#F6DFC9"/>
</g>
<path d="M428 329.045C419.197 325.856 410.827 321.471 403.104 316C403.104 316 401.451 322.255 411.308 327.172C413.833 328.632 416.609 329.549 419.475 329.871C422.341 330.193 425.238 329.912 428 329.045Z" fill="white"/>
<path d="M357.992 222.74C362.283 217.302 367.941 213.079 374.399 210.494C380.806 207.816 387.718 206.532 394.668 206.729C395.926 205.316 397.429 204.137 399.105 203.248C405.564 201.296 412.508 201.643 418.736 204.229C425.75 206.916 432.566 210.088 439.133 213.722C447.272 217.993 455.093 222.645 463.679 226.379C468.34 228.372 473.926 228.277 478.075 231.315C481.237 233.792 483.481 237.238 484.457 241.114C485.433 244.99 485.086 249.077 483.47 252.737C476.064 268.558 453.273 263.812 440.952 258.084C435.111 255.363 429.333 252.42 423.651 249.383C419.499 247.397 415.721 244.721 412.479 241.472C403.864 245.765 395.946 251.311 388.986 257.926C381.694 264.472 375.517 272.144 370.696 280.645C369.271 283.185 368.126 285.869 367.28 288.651C366.591 291.35 365.76 294.012 364.791 296.625C364.535 297.258 363.705 296.973 363.354 296.625C362.357 295.31 361.759 293.74 361.631 292.1C361.277 290.068 360.797 288.061 360.194 286.088C358.885 281.671 357.329 277.329 355.534 273.083C353.74 268.992 352.299 264.758 351.225 260.426C350.257 255.786 349.86 251.047 350.044 246.313C350.163 237.828 352.94 229.59 357.992 222.74Z" fill="black"/>
<path d="M353.079 282.938C353.028 288.679 354.972 294.268 358.592 298.789C359.358 299.887 360.414 300.761 361.647 301.319C362.881 301.878 364.246 302.099 365.597 301.959C368.84 301.199 369.1 297.394 369.424 294.826C369.959 291.461 370.122 288.049 369.911 284.65C369.747 283.133 369.433 281.636 368.97 280.18C368.97 279.007 368.646 277.865 368.484 277.009C367.803 273.49 365.954 268.735 361.835 268.006C360.203 267.941 358.595 268.411 357.267 269.342C355.939 270.272 354.967 271.61 354.506 273.142C353.282 276.261 352.794 279.609 353.079 282.938Z" fill="#F6DFC9"/>
<g style="mix-blend-mode:multiply">
<path d="M356.99 275.937C357.199 275.67 357.464 275.45 357.767 275.29C358.069 275.13 358.403 275.034 358.746 275.007C359.089 274.981 359.435 275.025 359.759 275.137C360.084 275.249 360.381 275.426 360.631 275.656C362.203 276.938 363.321 278.67 363.825 280.606C364.408 282.575 364.772 284.6 364.911 286.645C365.185 289.723 364.826 292.824 363.857 295.765C363.665 296.326 362.994 295.766 363.058 295.299C363.418 293.518 363.685 291.72 363.857 289.913L363.218 289.664C362.89 289.496 362.58 289.298 362.292 289.073C361.687 288.559 361.15 287.974 360.695 287.33C359.832 286.147 359.225 284.808 358.427 283.532C358.267 283.252 358.682 283.065 358.842 283.345C359.577 284.497 360.279 285.649 361.11 286.707C361.527 287.249 361.998 287.749 362.515 288.201C362.773 288.396 363.051 288.563 363.346 288.699L363.953 288.979C364.016 288.13 364.016 287.277 363.953 286.427C363.812 284.199 363.36 282 362.611 279.89C362.068 278.489 360.663 275.501 358.65 276.123C357.117 276.59 356.447 278.769 356.383 280.139C356.383 280.357 356.095 280.139 356.063 280.139C355.85 278.675 356.179 277.186 356.99 275.937Z" fill="#F6DFC9"/>
</g>
<path d="M415.292 357.176C415.292 357.176 423.368 372.185 397.365 374.634C371.362 377.082 359.675 347 359.675 347C349.243 348.183 338.94 350.311 328.89 353.36C321.203 356.547 314.385 361.529 309 367.892L310.425 591.95C310.425 591.95 341.907 601.204 388.434 599.868C434.96 598.533 445.634 585.527 445.634 585.527C445.634 585.527 457.194 447.677 454.628 416.227C453.635 400.349 451.197 384.596 447.344 369.164L415.292 357.176Z" fill="#FFA229"/>
<path d="M448 370C448 370 454.092 372.193 463.7 382.52C473.308 392.847 507 466.089 507 466.089C501.662 475.245 493.505 482.378 483.779 486.395C474.053 490.412 463.294 491.093 453.15 488.332L454.563 461.323C454.563 461.323 454.751 391.035 448 370Z" fill="#ED8718"/>
<path d="M295 465.073L298.489 492L333 489.048L331.114 458L295 465.073Z" fill="#EFCAAC"/>
<path d="M395.346 485.636C399.228 479.233 405.243 477.952 412.085 476.288C414.727 475.647 417.337 475.007 419.978 474.431C422.281 473.828 424.62 473.368 426.979 473.054C427.866 472.936 428.767 473.012 429.621 473.278C431.721 473.47 433.822 473.791 435.986 474.111C438.723 474.559 441.46 475.103 444.196 475.743C446.451 476.275 448.655 477.004 450.784 477.92C452.817 478.909 454.66 480.253 456.226 481.89C457.639 483.087 458.978 484.37 460.236 485.732C460.735 486.282 461.008 487.003 461 487.748C460.936 488.052 460.784 488.33 460.563 488.546C460.342 488.763 460.062 488.908 459.759 488.965C459.057 489.174 458.321 489.239 457.595 489.157C454.112 488.079 450.8 486.505 447.761 484.483C446.737 483.978 445.672 483.56 444.578 483.235C442.914 482.731 441.211 482.367 439.486 482.146C438.316 481.965 437.137 481.848 435.954 481.794L436.972 482.21C438.598 483.027 440.171 483.947 441.682 484.963C443.231 485.803 444.683 486.812 446.01 487.973C447.038 488.619 447.988 489.382 448.843 490.245C450.414 491.869 451.801 493.662 452.98 495.592L454.444 497.705C455.303 498.633 456.162 499.593 456.958 500.586C457.879 501.608 458.515 502.855 458.804 504.203C459.027 505.772 457.626 506.252 456.29 506.188C455.3 506.056 454.353 505.699 453.52 505.144C452.688 504.59 451.992 503.852 451.484 502.987C449.922 500.871 448.164 498.91 446.233 497.128C444.294 495.318 441.994 493.943 439.486 493.095H439.2L439.677 493.351C440.665 494.158 441.477 495.16 442.064 496.296C443.719 499.081 445.692 501.674 447.538 504.363C448.461 505.74 449.447 507.085 450.402 508.429C451.071 509.294 454.826 514.192 451.866 514.384C451.013 514.376 450.174 514.167 449.416 513.775C448.385 513.278 447.44 512.619 446.615 511.823C444.889 510.032 443.363 508.057 442.064 505.932C441.362 504.814 440.586 503.745 439.741 502.731C438.579 501.481 437.155 500.507 435.572 499.882C433.109 498.862 430.535 498.142 427.902 497.737L430.512 498.953C433.879 500.884 436.687 503.664 438.659 507.021C439.805 508.589 441.364 509.774 442.446 511.374C443.083 512.335 443.655 513.807 442.637 514.576C441.619 515.344 440.728 514.896 439.932 514.576C437.538 512.932 435.394 510.948 433.567 508.685C431.045 506.469 428.267 504.567 425.293 503.019C422.938 501.642 422.11 503.659 420.264 504.684C418.046 505.68 415.639 506.179 413.21 506.146C410.781 506.113 408.388 505.548 406.198 504.492C402.252 502.987 396.651 501.29 394.232 497.545C391.813 493.799 393.373 488.933 395.346 485.636Z" fill="#F6DFC9"/>
<path d="M380.166 501.828C375.437 501.828 370.646 502.055 366.012 502.282C359.189 502.606 352.367 503.254 345.544 503.643C338.721 504.032 331.739 504.096 324.821 503.87C321.648 503.87 318.188 503.61 314.888 503.286C311.587 503.135 308.35 502.308 305.368 500.856C303.078 499.563 301.18 497.652 299.882 495.332C298.583 493.012 297.934 490.372 298.005 487.701C298.166 485.34 299.018 483.082 300.449 481.22C302.196 479.216 304.366 477.643 306.796 476.619C311.518 474.337 316.601 472.932 321.806 472.472C327.081 471.981 332.383 471.873 337.673 472.148C359.348 476.878 400 483.002 400 483.002L399.429 498.75C399.429 498.75 391.463 500.111 380.166 501.828Z" fill="#F6DFC9"/>
<path d="M282.351 452.976C284.058 443.476 286.208 433.722 288.674 424.222C291.14 414.722 293.48 405.221 296.451 396.069C299.017 387.328 302.393 378.847 306.536 370.736C309.698 364.909 315.167 358.069 322.628 360.507C328.54 362.439 344.063 373.174 344 396.703C344 405.633 338.183 463.964 339.068 471.533C330.153 473.116 302.332 477.36 279 473.275C280.265 466.624 281.276 459.721 282.351 452.976Z" fill="#ED8718"/>
<path d="M434.492 528.365C437.627 529.678 440.574 530.931 443.615 532.183C446.657 533.436 449.666 534.811 452.802 535.819C455.685 536.567 458.658 536.937 461.643 536.919C464.966 536.919 468.258 537.102 471.581 536.919C477.67 536.979 483.718 535.944 489.42 533.864C494.868 531.548 500.111 528.8 505.096 525.646C507.008 524.516 508.921 523.355 510.739 522.072C511.21 521.736 513.091 520.666 512.997 519.964C512.808 518.62 499.296 519.628 498.136 519.2C494.892 518.275 491.51 517.893 488.135 518.07C481.43 517.881 474.72 518.075 468.038 518.65C461.517 519.383 454.996 520.422 448.381 520.636C445.026 520.636 441.64 520.636 438.286 520.636C435.218 520.516 432.155 520.962 429.256 521.95C424.93 524.332 433.05 527.754 434.492 528.365Z" fill="#F6DFC9"/>
<path d="M443.375 522.988C444.217 522.018 445.332 521.32 446.577 520.982C447.822 520.644 449.14 520.682 450.363 521.092C452.987 520.001 455.881 519.719 458.668 520.283C462.176 520.648 465.653 521.261 469.073 522.118C473.14 523.328 477.362 523.946 481.608 523.952C485.495 523.455 489.41 523.206 493.329 523.206C493.517 523.206 493.329 523.206 493.329 523.206C490.278 523.376 487.241 523.75 484.241 524.325C481.31 524.745 478.334 524.745 475.403 524.325C472.269 523.828 469.135 522.864 466.158 522.211C463.068 521.515 459.922 521.088 456.756 520.936C455.503 520.936 448.358 521.123 450.489 523.766C451.335 524.823 453.121 525.04 454.343 525.382C455.566 525.724 457.477 526.191 459.044 526.688C465.03 528.616 470.859 530.854 476.939 532.471C479.654 533.21 482.46 533.566 485.275 533.528C488.164 533.587 491.017 532.89 493.548 531.507C493.737 531.507 494.175 531.725 493.925 531.911C491.709 533.256 489.234 534.125 486.659 534.462C484.085 534.8 481.467 534.598 478.976 533.87C472.215 532.187 465.56 530.11 459.044 527.652C457.352 527.092 455.628 526.688 453.905 526.222C452.648 525.974 451.448 525.5 450.363 524.823C450.102 524.673 449.874 524.472 449.694 524.231C449.515 523.991 449.387 523.716 449.319 523.424C449.252 523.132 449.246 522.83 449.301 522.535C449.357 522.241 449.473 521.961 449.642 521.714C446.697 521.309 442.058 522.988 444.409 526.377C445.385 527.611 446.573 528.663 447.919 529.486C449.675 530.678 451.531 531.718 453.466 532.595C457.098 534.303 460.945 535.516 464.905 536.202H465.751C470.013 536.793 474.306 536.202 478.568 536.793C474.557 536.793 470.546 537.259 466.534 536.793C465.845 536.793 465.155 536.606 464.497 536.513C463.839 536.42 463.181 536.762 462.491 536.917C461.721 537.01 460.943 537.01 460.172 536.917C458.48 536.917 456.819 536.917 455.158 536.637C452.534 536.577 449.984 535.755 447.825 534.274C447.806 534.262 447.79 534.246 447.778 534.228C447.766 534.21 447.757 534.189 447.753 534.167C447.748 534.146 447.748 534.123 447.753 534.102C447.757 534.08 447.765 534.06 447.778 534.041C447.79 534.023 447.806 534.007 447.825 533.995C447.843 533.982 447.864 533.974 447.886 533.97C447.907 533.965 447.93 533.965 447.952 533.969C447.974 533.974 447.994 533.982 448.013 533.995C450.403 535.229 453.032 535.939 455.722 536.078L460.58 536.295C461.266 536.291 461.95 536.208 462.617 536.047C459.999 535.469 457.44 534.658 454.97 533.621C451.707 532.316 448.646 530.558 445.882 528.398C444.283 527.434 442.121 525.196 443.375 522.988Z" fill="#EFCAAC"/>
<path d="M370 521H492V513H370V521Z" fill="#646669"/>
<path d="M420 519H459V517H420V519Z" fill="#AFB1B4"/>
<path d="M466 521H548.229L587 374H504.771L466 521Z" fill="#646669"/>
<path d="M469 521H551.208L590 374H507.792L469 521Z" fill="#AFB1B4"/>
<path d="M451.955 317C450.143 317.007 448.346 316.656 446.661 315.966C442.779 313.993 439.753 310.581 438.181 306.404C436.609 302.228 436.606 297.591 438.172 293.412C439.738 289.233 442.759 285.816 446.638 283.837C450.517 281.858 454.97 281.462 459.117 282.726C461.107 283.631 462.906 284.934 464.41 286.561C465.913 288.188 467.092 290.107 467.879 292.208C468.666 294.309 469.046 296.55 468.996 298.803C468.946 301.057 468.467 303.277 467.588 305.338C466.402 308.679 464.279 311.575 461.493 313.653C458.707 315.731 455.385 316.897 451.955 317ZM453.823 282.759C450.587 282.858 447.455 283.964 444.834 285.934C442.212 287.905 440.223 290.648 439.125 293.806C438.182 295.727 437.639 297.831 437.53 299.983C437.422 302.135 437.751 304.287 438.496 306.298C439.241 308.31 440.386 310.137 441.855 311.66C443.325 313.183 445.086 314.369 447.026 315.141C448.966 315.913 451.04 316.253 453.115 316.139C455.189 316.026 457.218 315.461 459.068 314.482C460.919 313.503 462.551 312.131 463.857 310.456C465.164 308.78 466.117 306.839 466.653 304.757C468.291 300.856 468.38 296.442 466.898 292.475C465.417 288.507 462.487 285.306 458.743 283.566C457.126 282.969 455.414 282.695 453.699 282.759H453.823Z" fill="#2A1200"/>
<path d="M410.04 306C408.126 306 406.228 305.674 404.438 305.036C400.196 303.265 396.87 299.981 395.19 295.902C393.51 291.823 393.612 287.283 395.474 283.274C397.149 279.088 400.431 275.648 404.668 273.637C406.66 272.684 408.841 272.134 411.071 272.022C413.301 271.909 415.531 272.237 417.62 272.984C419.708 273.754 421.598 274.934 423.166 276.445C424.735 277.957 425.944 279.765 426.715 281.751C428.428 285.921 428.428 290.545 426.715 294.715C425.462 297.961 423.201 300.774 420.226 302.788C417.25 304.801 413.7 305.921 410.04 306ZM396.462 283.679C395.629 285.505 395.195 287.472 395.185 289.46C395.176 291.449 395.591 293.419 396.407 295.253C397.222 297.086 398.421 298.746 399.932 300.133C401.443 301.52 403.234 302.605 405.2 303.324C407.165 304.043 409.264 304.381 411.371 304.318C413.478 304.255 415.55 303.792 417.463 302.956C419.376 302.121 421.09 300.93 422.504 299.455C423.919 297.98 425.003 296.252 425.694 294.373C427.322 290.435 427.322 286.063 425.694 282.124C424.97 280.276 423.838 278.594 422.372 277.19C420.907 275.785 419.142 274.691 417.194 273.98C415.246 273.268 413.16 272.956 411.075 273.063C408.989 273.17 406.951 273.694 405.097 274.601C401.115 276.51 398.027 279.744 396.429 283.679H396.462Z" fill="#2A1200"/>
<path d="M398.232 279.943L363.002 268.419C361.861 267.96 360.588 267.96 359.447 268.419C358.111 269.175 356.941 270.193 356.005 271.411C355.07 272.63 354.389 274.025 354.002 275.513C353.982 275.58 353.948 275.642 353.903 275.695C353.858 275.748 353.803 275.792 353.74 275.823C353.678 275.854 353.61 275.872 353.54 275.876C353.471 275.879 353.401 275.869 353.336 275.845C353.271 275.821 353.211 275.784 353.16 275.736C353.11 275.688 353.069 275.63 353.042 275.566C353.014 275.502 353 275.433 353 275.363C353 275.293 353.014 275.224 353.042 275.16C353.47 273.529 354.225 272.003 355.26 270.673C356.295 269.343 357.589 268.238 359.063 267.424C360.449 266.859 362 266.859 363.386 267.424L398.616 278.916C398.686 278.934 398.75 278.966 398.806 279.011C398.862 279.055 398.908 279.111 398.941 279.175C398.975 279.238 398.994 279.308 398.999 279.379C399.004 279.451 398.993 279.523 398.969 279.59C398.953 279.668 398.919 279.74 398.87 279.803C398.822 279.865 398.759 279.916 398.688 279.95C398.616 279.984 398.538 280.001 398.459 280C398.38 279.999 398.302 279.979 398.232 279.943Z" fill="#2A1200"/>
<path d="M437.496 295.919C437.403 295.922 437.311 295.901 437.231 295.858C437.15 295.814 437.086 295.751 437.045 295.675C437.045 295.513 434.429 291.267 426.58 293.566C426.461 293.58 426.339 293.557 426.237 293.498C426.135 293.44 426.059 293.351 426.023 293.247C425.987 293.144 425.993 293.032 426.04 292.932C426.087 292.831 426.172 292.749 426.28 292.7C434.97 290.185 437.917 295.243 437.947 295.405C437.977 295.458 437.995 295.516 437.999 295.575C438.003 295.634 437.994 295.694 437.971 295.75C437.948 295.805 437.913 295.856 437.868 295.899C437.822 295.943 437.768 295.977 437.707 296C437.628 295.999 437.552 295.97 437.496 295.919Z" fill="#2A1200"/>
<path d="M144.551 500.054C143.593 496.17 142.475 492.317 141.677 488.433C140.768 484.444 140.573 480.326 141.102 476.27C141.102 475.633 141.325 474.964 141.485 474.327C141.471 474.084 141.471 473.839 141.485 473.595C141.462 472.018 141.569 470.442 141.804 468.883C140.838 471.643 140.206 474.507 139.92 477.416C139.614 481.39 139.938 485.387 140.878 489.261C141.772 493.241 142.922 497.157 143.848 501.137C144.925 505.021 145.357 509.054 145.126 513.077C144.838 516.949 143.239 520.609 140.591 523.457C137.912 525.902 134.966 528.039 131.807 529.825C128.783 531.672 126.26 534.23 124.461 537.276C123.571 538.99 122.977 540.841 122.704 542.752C122.366 539.854 122.727 536.918 123.758 534.187C126.952 525.909 136.279 524.03 139.728 516.42C141.24 512.989 141.674 509.181 140.974 505.499C140.239 500.85 138.163 496.584 137.205 491.967C135.687 483.401 137.491 474.58 142.251 467.291C142.489 466.21 142.798 465.146 143.178 464.107C144.44 461.167 146.165 458.448 148.288 456.051C151.674 452.039 155.635 448.601 158.701 444.334C161.878 440.19 163.382 435.01 162.917 429.815C162.216 425.065 160.113 420.631 156.877 417.076C153.641 413.521 149.417 411.006 144.743 409.851C139.161 408.482 133.299 408.77 127.878 410.679C125.405 411.691 123.109 413.088 121.075 414.818C120.053 415.55 119.094 416.315 118.104 417.111C114.2 421.418 111.183 426.449 109.225 431.916C107.404 437.892 105.272 443.77 102.837 449.524C100.145 454.656 96.627 459.313 92.4241 463.311C85.5888 469.934 78.1146 476.811 78.0827 487.032C78.4168 492.765 79.3263 498.45 80.7976 504.003C83.1613 515.465 83.7362 528.329 77.1564 538.581C73.0361 544.376 65.9772 549.693 58.6628 548.802C58.024 548.802 57.8323 549.407 58.1517 549.853C59.0049 550.846 60.0627 551.645 61.2533 552.194C62.4438 552.743 63.739 553.031 65.0509 553.037H65.7217V553.228C64.5808 554.462 63.6623 555.884 63.0067 557.431C61.8905 559.482 61.3187 561.783 61.3458 564.117C61.5373 566.65 62.2668 569.114 63.4858 571.345C64.4409 573.483 65.9015 575.359 67.7428 576.812C69.584 578.265 71.751 579.251 74.0582 579.687C74.4734 579.687 74.5692 579.305 74.3776 578.986C74.0023 578.435 73.7316 577.82 73.5791 577.171C74.6641 578.69 75.9662 580.041 77.4439 581.183C79.5431 582.673 81.8592 583.833 84.3111 584.622C86.7243 585.482 89.3061 585.765 91.8491 585.45C92.2324 585.45 92.1685 584.909 91.8491 584.718C90.8997 583.836 90.0629 582.842 89.3578 581.756L88.9106 580.96C90.3516 582.439 91.9972 583.704 93.7975 584.718C95.1303 585.697 96.5653 586.529 98.0775 587.201C101.942 588.952 106.414 591.309 110.566 589.112C110.95 588.921 110.566 588.411 110.566 588.252C110.166 587.968 109.837 587.597 109.605 587.166C109.372 586.736 109.242 586.257 109.225 585.768V585.386C109.234 584.89 109.31 584.398 109.448 583.922L109.736 583.412C110.387 582.381 111.171 581.439 112.068 580.61C112.962 580.069 113.888 579.56 114.783 578.986C116.038 578.199 117.215 577.293 118.296 576.28C118.584 576.084 118.851 575.86 119.094 575.611C118.501 576.838 117.652 577.923 116.603 578.795C114.979 579.895 113.544 581.25 112.355 582.807C112.068 583.253 112.77 583.953 113.217 583.858C115.727 583.367 118.157 582.531 120.436 581.374C122.707 580.134 124.612 578.323 125.962 576.121C128.547 571.413 129.2 565.888 127.782 560.71C126.92 556.475 125.259 552.336 124.141 548.197C124.174 547.571 124.174 546.944 124.141 546.318C124.045 545.179 124.109 544.032 124.333 542.911C124.717 540.631 125.589 538.459 126.888 536.543C129.367 533.449 132.454 530.892 135.959 529.029C139.011 527.307 141.675 524.976 143.785 522.183C145.87 519.05 146.981 515.373 146.979 511.612C146.648 507.675 145.832 503.793 144.551 500.054Z" fill="black"/>
<path d="M213 502.75L197.794 543L175 535.094L190.466 491L213 502.75Z" fill="#EFCAAC"/>
<path d="M179 491.7C179 506.921 181.492 503.274 194.975 507.27C205.582 510.441 227.275 524.077 238.105 521.73C244.176 520.398 252.578 499.532 254.08 490.844C254.08 490.051 270.789 483.994 267.594 481.616C259.639 475.622 252.386 468.931 255.262 454.249C257.754 441.565 257.69 426.407 250.054 414.959C246.565 410.222 241.902 406.46 236.517 404.037C231.133 401.615 225.208 400.615 219.32 401.133C212.93 401.863 193.058 403.448 192.195 407.032C190.917 412.962 178.936 486.563 179 491.7Z" fill="#F6DFC9"/>
<path d="M212 480L210.415 481.254C209.894 481.657 209.355 482.029 208.798 482.369C208.481 482.612 208.164 482.752 207.847 482.961L206.833 483.448C206.507 483.612 206.167 483.741 205.818 483.832C205.488 483.957 205.149 484.05 204.804 484.11C204.478 484.16 204.147 484.16 203.821 484.11C203.526 484.144 203.229 484.144 202.934 484.11H201L201.475 484.389C201.91 484.656 202.381 484.844 202.87 484.946C203.196 485.002 203.527 485.002 203.853 484.946C204.22 485.018 204.596 485.018 204.963 484.946C205.352 484.997 205.746 484.997 206.135 484.946C206.548 484.946 206.928 484.668 207.308 484.528C208.057 484.192 208.76 483.747 209.401 483.205C209.949 482.745 210.449 482.219 210.89 481.637C211.322 481.146 211.695 480.595 212 480Z" fill="#D18C59"/>
<path d="M141.474 406.387C146.097 401.205 151.453 396.732 157.37 393.11C163.047 389.81 169.255 387.532 175.714 386.376C183.259 385.063 190.936 384.688 198.572 385.258C206.595 385.683 214.516 387.252 222.098 389.918C229.144 392.336 235.686 396.036 241.396 400.833C246.544 405.23 250.853 410.529 254.113 416.472C259.902 426.804 261.496 438.98 258.564 450.462C255.798 450.462 253 450.462 250.234 450.462C246.547 450.462 242.859 450.654 239.171 450.462C235.483 450.271 232.59 450.462 229.283 450.462C226.134 450.537 222.995 450.073 220 449.09C219.815 449.051 219.622 449.086 219.462 449.188C219.302 449.289 219.187 449.448 219.142 449.633C218.259 456.192 216.405 462.581 213.642 468.591C212.517 471.005 211.142 473.294 209.54 475.421C209.54 472.899 209.54 470.378 209.223 467.857C208.928 465.434 208.091 463.11 206.775 461.058C206.584 460.739 206.361 460.452 206.171 460.165C205.458 459.259 204.569 458.51 203.557 457.961C202.546 457.412 201.434 457.076 200.289 456.973C194.916 456.973 189.098 463.707 193.231 475.325C197.364 486.942 205.63 484.453 205.63 484.453C198 502.134 197.873 508.709 197.873 508.709C197.873 508.709 171.581 514.741 152.156 500.73C132.731 486.719 115.404 449.345 136.959 412.036C138.353 410.066 139.861 408.18 141.474 406.387Z" fill="black"/>
<path d="M241.224 465.629C240.63 468.927 241.224 471.78 242.935 471.988C244.646 472.196 246.182 469.67 246.776 466.371C247.369 463.073 246.776 460.22 245.1 460.012C243.424 459.804 241.852 462.33 241.224 465.629Z" fill="#492717"/>
<path d="M243 463.368C243 464.2 243 464.918 243.333 464.994C243.666 465.07 243.904 464.427 243.975 463.633C244.046 462.838 243.975 462.082 243.642 462.006C243.309 461.931 243.071 462.536 243 463.368Z" fill="white"/>
<path d="M245.589 505.932C243.532 506.16 241.456 505.811 239.554 504.917C237.65 504.153 235.933 502.913 234.535 501.292C233.897 500.628 233.433 499.786 233.19 498.855C232.948 497.924 232.937 496.938 233.158 496L240.833 500.205L247.393 503.83L249 504.664C247.982 505.407 246.806 505.844 245.589 505.932Z" fill="white"/>
<path d="M251.846 458C251.846 458 248.011 452.603 240 457.075C240 457.075 241.164 452.397 246.847 453.065C247.639 453.083 248.415 453.233 249.12 453.504C249.824 453.776 250.438 454.163 250.917 454.636C251.397 455.109 251.729 455.657 251.89 456.239C252.05 456.821 252.035 457.423 251.846 458Z" fill="#8E5640"/>
<g style="mix-blend-mode:multiply">
<path d="M204.7 476.965C204.533 476.965 204.7 476.965 204.333 476.965C203.99 477.012 203.642 477.012 203.299 476.965C201.248 476.463 199.372 475.448 197.863 474.024C196.974 473.19 196.266 472.195 195.78 471.098C195.293 470.001 195.038 468.822 195.028 467.63C194.891 466.274 195.257 464.915 196.062 463.793C196.521 463.215 197.117 462.75 197.802 462.438C198.487 462.127 199.24 461.977 199.997 462.003C200.747 462.074 201.46 462.349 202.051 462.797C202.642 463.245 203.087 463.846 203.332 464.528C203.066 465.775 202.632 466.958 202.432 468.237C202.354 471.208 203.252 474.127 205 476.582C204.984 476.663 204.949 476.74 204.896 476.807C204.844 476.873 204.777 476.928 204.7 476.965Z" fill="#FFCAA6"/>
</g>
<path d="M313.408 729C314.139 788.54 319.762 916.811 317.443 931.887L298.732 933C298.732 933 276.051 807.75 271 735.806L313.408 729Z" fill="#EFCAAC"/>
<path d="M298.79 939.526C298.79 942.483 299.71 947.36 302.946 948.524C303.986 948.758 305.056 948.832 306.118 948.744C308.943 949.378 311.616 950.554 313.986 952.205C316.64 953.483 319.4 954.536 322.234 955.352C327.987 957.095 334.075 957.462 339.999 956.421C344.567 955.509 356.083 952.551 353.672 945.755C352.974 943.836 353.133 943.459 351.229 942.609C349.196 941.789 347.063 941.239 344.884 940.973C339.243 939.956 333.717 938.386 328.388 936.285C325.445 935.185 322.582 933.881 319.823 932.384C317.317 931.031 318.046 920.239 315.381 919.201C313.573 918.508 305.293 919.83 303.771 919.83C302.05 920.096 300.345 920.453 298.663 920.9C296.982 921.151 299.044 935.907 298.917 938.802L298.79 939.526Z" fill="#EFCAAC"/>
<path d="M298.008 951.516C297.96 948.867 298.129 946.219 298.512 943.596C301.172 943.587 303.825 943.854 306.426 944.394C310.903 945.346 315.033 947.464 319.51 948.201C324.069 948.972 328.692 949.332 333.319 949.275C336.777 949.477 340.239 948.954 343.471 947.74C346.08 946.588 348.166 944.547 349.335 942C351.226 942.153 353.118 942.276 354.978 942.46H355.357C357.942 943.044 360.559 943.504 363.144 944.118C366.861 944.757 370.273 946.531 372.886 949.183C373.345 949.616 373.68 950.158 373.857 950.756C374.034 951.354 374.047 951.986 373.895 952.59C373.307 953.761 372.374 954.733 371.215 955.384C368.441 957.12 365.38 958.376 362.166 959.098C359.169 959.875 356.111 960.409 353.024 960.694C348.453 960.956 343.87 960.894 339.309 960.51C334.611 960.265 329.851 960.019 325.153 960.203C321.559 960.357 318.028 960.878 314.465 961.37C309.326 962.045 303.179 962.72 298.418 960.295C298.432 957.364 298.295 954.434 298.008 951.516Z" fill="#844036"/>
<path d="M305 740C299.42 799.23 291.583 927.256 287.519 942L268.489 941.142C268.489 941.142 258.813 814.324 261.458 742.193L305 740Z" fill="#F6DFC9"/>
<path d="M269.097 946.821C268.78 949.765 269.097 954.682 272.26 956.216C273.279 956.559 274.347 956.739 275.423 956.749C278.121 957.676 280.613 959.112 282.761 960.976C285.279 962.547 287.924 963.908 290.669 965.047C296.188 967.36 302.184 968.337 308.161 967.897C312.779 967.49 324.514 965.736 322.837 958.784C322.363 956.78 322.521 956.435 320.75 955.402C318.763 954.337 316.633 953.556 314.424 953.085C308.95 951.537 303.65 949.438 298.608 946.821C295.784 945.446 293.067 943.866 290.479 942.092C288.17 940.495 290.005 929.879 287.474 928.595C285.766 927.718 277.416 928.157 275.897 928C274.17 928.084 272.449 928.262 270.741 928.532C269.033 928.532 269.508 943.439 269.097 946.289V946.821Z" fill="#F6DFC9"/>
<path d="M266.661 958.935C266.888 956.26 267.33 953.606 267.984 951C270.63 951.248 273.239 951.791 275.761 952.618C280.106 954.05 283.979 956.446 288.356 957.784C292.8 959.045 297.354 959.889 301.959 960.304C305.377 960.855 308.876 960.686 312.223 959.806C314.894 958.891 317.133 957.043 318.521 954.61C320.379 954.983 322.268 955.294 324.063 955.699H324.441C326.928 956.57 329.479 957.317 331.998 958.219C335.639 959.252 338.836 961.439 341.097 964.443C341.524 964.919 341.813 965.499 341.935 966.123C342.057 966.747 342.007 967.392 341.79 967.99C341.051 969.09 340.015 969.963 338.799 970.511C335.837 971.976 332.641 972.924 329.353 973.312C326.293 973.804 323.195 974.033 320.095 973.996C315.529 973.768 310.984 973.227 306.493 972.378C301.833 971.631 297.047 970.915 292.481 970.604C288.891 970.386 285.333 970.604 281.744 970.604C276.548 970.76 270.377 970.791 266 967.866C266.126 964.941 266.945 960.149 266.661 958.935Z" fill="#9C4E42"/>
<path d="M114.441 690.797L184.363 688C184.363 688 263.471 701.795 304.089 721.694C310.528 726.854 315.322 733.78 317.883 741.624C321.015 753.49 322.575 765.716 322.523 777.988C322.523 784.091 322.778 790.226 323 796.329C319.963 796.573 316.953 797.084 314.005 797.855C306.87 799.483 299.657 800.746 292.393 801.638C284.494 802.908 276.477 803.291 268.492 802.782C263.526 802.24 258.607 801.326 253.777 800.048L254.254 754.911C254.254 754.911 161.575 748.554 135.354 742.832C109.133 737.111 114.441 690.797 114.441 690.797Z" fill="#1C4670"/>
<path d="M196.204 698.259C193.455 699.532 190.619 700.601 187.718 701.459C180.624 703.469 173.315 704.598 165.952 704.819C159.009 705.176 152.05 705.005 145.132 704.307C135.038 703.283 120.243 697.619 111 693.076C112.009 677.078 120.464 620.7 128.161 594.303C137.025 563.618 158.665 525.511 178.475 513L203.712 527.974L202.86 532.326C211.81 551.681 216.626 572.736 216.992 594.111C217.213 628.539 212.608 693.3 212.608 693.3C206.909 694.03 201.367 695.705 196.204 698.259Z" fill="#FFA5B2"/>
<path d="M527 514H504V657H527V514Z" fill="#2D4C71"/>
<path d="M525 514H506V522H525V514Z" fill="#E3E2D7"/>
<path d="M527 523H504V666H527V523Z" fill="#5282BD"/>
<g style="mix-blend-mode:multiply">
<path d="M527 523H524V666H527V523Z" fill="#5282BD"/>
</g>
<path d="M549 514H527V657H549V514Z" fill="#864E2C"/>
<path d="M547 514H528V522H547V514Z" fill="#E3E2D7"/>
<path d="M549 523H527V666H549V523Z" fill="#D8804E"/>
<g style="mix-blend-mode:multiply">
<path d="M549 523H547V666H549V523Z" fill="#9C4E42"/>
</g>
<path d="M570 529H549V658H570V529Z" fill="#18534E"/>
<path d="M568 529H551V536H568V529Z" fill="#E3E2D7"/>
<path d="M570 536H549V666H570V536Z" fill="#49A199"/>
<g style="mix-blend-mode:multiply" opacity="0.51">
<path d="M570 536H567V666H570V536Z" fill="#456EA0"/>
</g>
<g style="mix-blend-mode:multiply">
<path d="M582 662.044C582 663.962 574.272 665.729 564.579 665.972C554.887 666.216 547.032 664.815 547 662.927C546.968 661.039 554.729 659.272 564.421 659.029C574.113 658.785 581.968 660.125 582 662.044Z" fill="#E2DFCA"/>
</g>
<path d="M587.316 635.334C587.316 635.334 589.45 629.828 598.473 631.228C607.495 632.628 606.913 646.632 598.279 652.616C591.002 657.677 577 660 577 660V656.34C583.361 656.048 589.526 654.08 594.851 650.643C602.741 644.85 601.318 636.575 596.856 635.429C590.388 633.806 586.669 642.145 586.669 642.145L587.316 635.334Z" fill="#EDEAD3"/>
<g style="mix-blend-mode:multiply">
<path d="M585 655C582.382 655.68 579.702 656.096 577 656.242V660C577 660 579.599 659.564 583.143 658.691C583.785 657.584 584.561 656.242 585 655Z" fill="#E2DFCA"/>
</g>
<g style="mix-blend-mode:multiply">
<path d="M589.978 636.982C590.387 634.988 590.737 632.994 591 631C589.473 631.711 588.248 633.069 587.584 634.789L587 642C587.726 640.141 588.734 638.442 589.978 636.982Z" fill="#E2DFCA"/>
</g>
<path d="M589 629.342L563.376 629H562.624L537 629.342C538.088 640.982 541.614 652.269 547.35 662.48C548.197 663.911 554.877 665 563.031 665C571.186 665 577.96 663.88 578.713 662.449C584.434 652.247 587.938 640.969 589 629.342Z" fill="#EDEAD3"/>
<path d="M589 629C589 630.093 577.364 631 563 631C548.636 631 537 630.093 537 629C537 627.907 548.636 627 563 627C577.364 627 589 627.88 589 629Z" fill="#BDBDAC"/>
<g style="mix-blend-mode:multiply">
<path d="M469 662.044C469 663.962 461.272 665.729 451.579 665.972C441.887 666.216 434.032 664.815 434 662.927C433.968 661.039 441.729 659.272 451.421 659.029C461.113 658.785 469 660.125 469 662.044Z" fill="#E2DFCA"/>
</g>
<path d="M474.947 635.334C474.947 635.334 476.974 629.828 485.705 631.228C494.436 632.628 493.813 646.632 485.518 652.616C478.502 657.677 465 660 465 660V656.34C471.134 656.048 477.078 654.08 482.213 650.643C489.821 644.85 488.449 636.575 484.146 635.429C477.91 633.806 474.324 642.145 474.324 642.145L474.947 635.334Z" fill="#EDEAD3"/>
<g style="mix-blend-mode:multiply">
<path d="M472 655C469.709 655.68 467.364 656.096 465 656.242V660C465 660 467.274 659.564 470.376 658.691C470.937 657.584 471.498 656.242 472 655Z" fill="#E2DFCA"/>
</g>
<g style="mix-blend-mode:multiply">
<path d="M477.768 637.037C478.261 635.024 478.683 633.012 479 631C477.111 631.657 475.569 632.994 474.704 634.723L474 642C474.939 640.147 476.215 638.467 477.768 637.037Z" fill="#E2DFCA"/>
</g>
<path d="M478 629.342L451.884 629H451.116L425 629.342C426.109 640.982 429.702 652.269 435.549 662.48C436.412 663.911 443.221 665 451.532 665C459.843 665 466.748 663.88 467.515 662.449C473.346 652.247 476.918 640.969 478 629.342Z" fill="#EDEAD3"/>
<path d="M478 629C478 630.093 466.141 631 451.5 631C436.859 631 425 630.093 425 629C425 627.907 436.859 627 451.5 627C466.141 627 478 627.88 478 629Z" fill="#BDBDAC"/>
<path d="M860 500.983L874.794 542L897 533.937L881.954 489L860 500.983Z" fill="#EFCAAC"/>
<path d="M858.472 398.291C856.688 395.091 837.006 398.739 830.828 399.634C825.02 400.669 819.577 403.191 815.025 406.958C810.472 410.725 806.964 415.609 804.84 421.137C800.509 434.257 804.458 449.2 810.127 460.751C816.687 474.158 811.496 482.734 805.413 490.638C802.961 493.837 820.509 495.373 820.859 496.109C824.554 504.141 838.121 522.316 844.299 521.996C855.319 521.484 872.612 502.477 882.039 496.685C894.11 489.23 897.294 492.173 893.473 477.294C892.167 472.271 861.402 403.698 858.472 398.291Z" fill="#F6DFC9"/>
<path d="M859 474L860.713 474.724L862.456 475.317C862.787 475.317 863.118 475.317 863.448 475.58L864.47 475.744H865.492C865.822 475.778 866.154 475.778 866.484 475.744C866.793 475.78 867.106 475.78 867.415 475.744C867.7 475.701 867.981 475.635 868.257 475.547L868.978 475.349L869.519 475.152L870 474.955L869.639 475.349C869.305 475.712 868.92 476.012 868.497 476.238C868.239 476.428 867.955 476.572 867.656 476.666C867.329 476.815 866.985 476.914 866.634 476.962C866.255 477.013 865.871 477.013 865.492 476.962C865.102 476.995 864.71 476.995 864.32 476.962C863.565 476.848 862.828 476.627 862.126 476.304C861.53 476.029 860.957 475.699 860.413 475.317C859.886 474.955 859.41 474.511 859 474Z" fill="#D18C59"/>
<path d="M825.996 467.972C827.218 471.136 827.354 474.3 826.24 474.901C825.127 475.503 823.252 473.288 822.003 470.028C820.753 466.769 820.671 463.7 821.758 463.099C822.845 462.497 824.746 464.712 825.996 467.972Z" fill="#492717"/>
<path d="M823.875 466.774C824.062 467.306 824.02 467.838 823.875 467.971C823.729 468.105 823.313 467.759 823.125 467.226C822.938 466.694 822.98 466.162 823.125 466.029C823.271 465.895 823.687 466.241 823.875 466.774Z" fill="white"/>
<path d="M832.566 507.871C834.442 507.535 836.209 506.694 837.704 505.425C839.228 504.276 840.481 502.757 841.361 500.99C841.779 500.236 842 499.374 842 498.495C842 497.616 841.779 496.754 841.361 496C839.397 497.924 837.462 499.816 835.317 501.675L830.269 506.371L829 507.545C830.138 508.007 831.372 508.12 832.566 507.871Z" fill="white"/>
<path d="M814.569 464C814.569 464 816.136 456.17 824 459.782C823.466 458.304 822.459 457.127 821.192 456.497C819.925 455.867 818.497 455.835 817.21 456.407C816.564 456.635 815.97 457.029 815.472 457.559C814.973 458.089 814.583 458.742 814.33 459.47C814.077 460.198 813.967 460.983 814.009 461.766C814.05 462.55 814.242 463.313 814.569 464Z" fill="#8E5640"/>
<g style="mix-blend-mode:multiply">
<path d="M863.918 470C864.116 470 863.918 470 864.315 470C864.66 469.958 864.996 469.853 865.306 469.688C867.122 468.61 868.629 467.041 869.671 465.144C870.938 462.924 871.318 460.269 870.729 457.757C870.484 456.295 869.759 454.97 868.679 454.011C868.084 453.536 867.39 453.217 866.654 453.078C865.919 452.94 865.162 452.986 864.447 453.213C863.78 453.508 863.201 453.985 862.77 454.596C862.34 455.206 862.074 455.926 862 456.682C862.628 457.895 863.356 459.04 863.885 460.323C864.744 463.415 864.675 466.709 863.686 469.757L863.918 470Z" fill="#FFCAA6"/>
</g>
<path d="M930.771 404.485C928.987 401.608 926.988 398.868 924.791 396.289C920.267 391.193 915.003 386.798 909.173 383.251C897.925 375.923 884.617 372.364 871.192 373.093C867.37 373.351 863.585 374.009 859.9 375.055C858.145 375.529 856.456 376.22 854.874 377.112C851.496 376.655 848.057 377.069 844.886 378.315C839.316 380.22 833.98 382.747 828.982 385.846C823.685 389.159 818.74 392.997 814.222 397.302C809.832 401.416 805.634 405.751 801.148 409.77C798.655 412.159 795.914 414.281 792.973 416.099C791.508 417.096 789.786 417.656 788.011 417.713C786.662 417.507 785.289 417.507 783.94 417.713C783.399 417.713 782.731 418.63 783.113 419.232C783.867 420.394 784.946 421.312 786.217 421.874C787.488 422.436 788.897 422.618 790.27 422.396C789.301 423.712 788.47 425.122 787.789 426.605C786.443 429.349 785.582 432.304 785.244 435.339C784.641 437.837 784.729 440.45 785.498 442.902C785.88 443.756 786.993 442.902 787.28 442.459C788.104 441.005 788.796 439.479 789.347 437.902C790.028 436.241 790.893 434.659 791.924 433.187C792.903 431.796 793.966 430.465 795.105 429.2C794.197 431.857 793.662 434.625 793.514 437.427C793.137 444.122 794.623 450.79 797.809 456.699C799.449 459.909 802.064 462.522 805.284 464.167C806.015 464.484 806.874 463.408 806.715 462.743C806.232 461.188 805.647 459.666 804.966 458.186C804.455 456.687 804.103 455.139 803.916 453.566C803.566 450.51 803.662 447.419 804.202 444.389C804.202 443.82 804.425 443.25 804.52 442.68C804.412 446.405 804.851 450.126 805.824 453.725C806.397 455.813 807.129 457.838 807.828 459.864C808.306 461.193 808.91 462.838 810.405 463.218C810.674 463.27 810.953 463.229 811.195 463.103C811.438 462.976 811.631 462.771 811.741 462.522C813.659 459.822 816.026 457.468 818.739 455.56C821.515 452.91 824.009 449.984 826.182 446.826C827.232 445.434 828.218 444.01 829.204 442.586C828.788 446.799 828.852 451.045 829.395 455.243C829.416 455.34 829.458 455.432 829.518 455.511C829.577 455.591 829.653 455.657 829.741 455.705C829.828 455.753 829.925 455.782 830.024 455.789C830.124 455.797 830.224 455.784 830.318 455.75C835.285 453.853 839.671 450.701 843.041 446.604C843.444 448.692 844.337 450.655 845.65 452.332C847.049 454.516 848.385 456.668 849.848 458.661C852.585 462.758 855.593 466.669 858.851 470.37C859.264 470.844 859.9 469.958 859.868 469.579C859.359 466.224 858.819 462.902 858.628 459.547C858.517 458.03 858.517 456.507 858.628 454.99C858.992 453.614 859.763 452.378 860.84 451.442C861.917 450.505 863.252 449.912 864.672 449.737C866.614 449.814 868.483 450.497 870.013 451.69C871.543 452.883 872.657 454.525 873.196 456.383C875.678 463.408 874.214 473.408 866.835 476.889C866.672 476.968 866.528 477.08 866.412 477.218C866.296 477.355 866.209 477.515 866.158 477.688C866.108 477.861 866.093 478.042 866.117 478.22C866.14 478.398 866.2 478.57 866.294 478.724C867.036 481.066 868.165 483.269 869.634 485.243C871.065 487.395 872.624 489.515 874.119 491.572C875.614 493.629 877.045 495.749 878.636 497.901C879.845 499.356 880.799 501.065 882.58 501.951C883.153 502.205 883.884 501.413 883.884 500.875C883.83 499.496 883.682 498.121 883.439 496.762V496.983C884.639 498.702 886.003 500.302 887.511 501.761C887.924 502.205 888.592 501.761 888.815 501.255C889.737 499.799 889.228 498.091 889.546 496.413C889.546 496.413 889.546 496.097 889.546 495.907C890.31 497.553 891.455 498.629 893.141 497.679C894.826 496.318 896.066 494.49 896.704 492.426C897.635 490.484 898.777 488.649 900.107 486.952L900.425 486.667C902.654 484.18 905.138 481.932 907.837 479.958C910.509 477.711 913.085 475.37 915.757 473.123C920.891 469.282 925.425 464.708 929.213 459.547C932.139 454.995 934.118 449.905 935.034 444.579C936.205 438.717 936.312 432.694 935.352 426.795C934.988 423.372 933.739 420.101 931.725 417.301L931.185 416.763H931.503C932.139 416.763 932.648 416.035 932.584 415.466C932.443 414.73 932.157 414.03 931.742 413.406C931.327 412.781 930.792 412.244 930.167 411.827L931.725 412.555C932.393 412.871 933.093 411.985 933.157 411.415C933.079 408.919 932.248 406.505 930.771 404.485Z" fill="black"/>
<path d="M724 939.999V939.81C723.943 939.348 723.755 938.913 723.456 938.555C723.158 938.196 722.763 937.931 722.318 937.789C720.128 936.957 717.892 936.251 715.62 935.675L708.415 933.56L701.432 931.634C699.818 930.965 698.151 930.427 696.449 930.024C694.323 929.772 693.466 931.539 692.609 932.897C689.879 937.158 682.642 937.979 677.659 938.736C670.763 939.589 663.797 939.748 656.869 939.21L646.521 938.579C643.129 938.015 639.644 938.592 636.618 940.22C635.602 940.834 634.746 941.676 634.117 942.679C633.489 943.683 633.106 944.819 633 945.997C635.648 948.279 638.507 950.309 641.538 952.057C644.654 953.18 647.833 954.118 651.06 954.866C657.408 956.413 662.804 958.496 669.216 959.696C672.819 960.407 676.467 960.871 680.135 961.085C683.118 961.085 685.213 960.106 687.911 961.653C689.288 962.559 690.756 963.321 692.291 963.926C694.418 964.589 696.608 965.094 698.798 965.567C702.861 966.451 706.987 966.956 711.082 967.682C712.591 968.028 714.151 968.092 715.684 967.872C719.525 958.749 723.397 949.69 724 939.999Z" fill="#76392F"/>
<path d="M864 703C849.422 703.634 827.761 709.562 813.152 710.671C804.677 711.305 762.715 726.521 754.525 728.772C748.201 730.579 739.6 732.259 735.932 738.282C729.607 748.743 709.18 844.286 693.021 930.699C692.104 935.612 721.481 943.886 725.433 939.987L770.969 773.342C770.969 773.342 806.417 769.252 836.141 764.91C836.078 762.912 863.905 712.668 864 703Z" fill="#1C4670"/>
<path d="M783.091 937.757C783.103 937.649 783.103 937.54 783.091 937.432C782.889 937.008 782.577 936.651 782.188 936.404C781.8 936.157 781.352 936.028 780.896 936.034C778.574 935.953 776.249 936.018 773.934 936.229C771.457 936.229 768.98 936.456 766.534 936.619L759.385 937.074C757.663 936.944 755.933 936.944 754.211 937.074C752.173 937.562 751.922 939.577 751.546 941.17C750.385 946.242 743.926 949.46 739.505 951.866C733.357 955.024 726.917 957.529 720.283 959.343L710.405 962.204C707.064 962.793 704.008 964.521 701.72 967.113C700.975 968.058 700.451 969.169 700.19 970.36C699.929 971.55 699.937 972.786 700.214 973.973C703.444 975.289 706.781 976.301 710.186 976.996C713.453 977.028 716.72 976.865 719.969 976.508C726.241 975.891 732.136 976.118 738.501 975.078C742.093 974.586 745.645 973.825 749.131 972.802C751.953 971.859 753.552 970.104 756.563 970.722C758.141 971.152 759.761 971.403 761.392 971.469C763.587 971.469 765.813 971.144 768.008 970.852C772.084 970.364 776.098 969.454 780.143 968.771C781.664 968.616 783.143 968.164 784.502 967.438C785.035 957.523 785.725 947.412 783.091 937.757Z" fill="#4C1D14"/>
<path d="M925.507 743.502C927.345 742.933 929.147 742.255 930.903 741.472C937.267 737.911 941.967 731.984 943.981 724.98C947.727 713.911 947.156 702.05 946.584 690.442L885.352 688C885.352 688 805.709 707.029 765.173 726.788C758.825 732.084 749.143 734.748 746.762 742.645C743.239 754.412 745.08 853.204 751.556 940.928C751.905 945.908 781.838 944.385 784.695 939.565L789.774 767.542C789.774 767.542 880.337 752.667 920.587 745.341L925.507 743.502Z" fill="#1C4670"/>
<path d="M823.377 967H823.043C822.613 966.976 822.191 966.861 821.804 966.664C821.417 966.466 821.071 966.188 820.789 965.848C820.506 965.508 820.291 965.111 820.158 964.682C820.024 964.253 819.975 963.801 820.012 963.351L839.291 760.038C839.397 759.13 839.843 758.303 840.53 757.738C841.218 757.173 842.091 756.916 842.959 757.024C843.388 757.052 843.808 757.169 844.193 757.368C844.578 757.568 844.922 757.845 845.204 758.184C845.486 758.524 845.701 758.919 845.836 759.346C845.971 759.773 846.023 760.224 845.99 760.672L826.681 963.954C826.59 964.801 826.202 965.582 825.591 966.145C824.98 966.708 824.191 967.013 823.377 967Z" fill="#4F5153"/>
<path d="M978.527 966.999H978.842C979.287 966.971 979.723 966.854 980.123 966.655C980.523 966.455 980.88 966.178 981.173 965.838C981.466 965.499 981.689 965.104 981.83 964.677C981.97 964.25 982.024 963.799 981.99 963.351L961.934 760.034C961.824 759.132 961.366 758.311 960.658 757.747C959.951 757.183 959.053 756.922 958.156 757.02C957.259 757.085 956.424 757.506 955.834 758.19C955.244 758.873 954.947 759.765 955.008 760.669L975.063 963.985C975.165 964.832 975.576 965.61 976.217 966.167C976.857 966.724 977.681 967.021 978.527 966.999Z" fill="#4F5153"/>
<path d="M971 758.281C971 758.281 962.501 737.383 946.839 735.388C931.177 733.394 904.023 739.821 855.159 738.048C806.296 736.275 796.332 733.964 789.52 744.222C787.661 748.489 787.501 753.3 789.074 757.679C791.78 764.74 799.802 770.756 812.758 770.344C825.714 769.933 962.341 779.083 971 758.281Z" fill="#4583A7"/>
<path d="M822.208 743.501C844.349 740.968 958.85 760.404 973.527 731.662C999.4 681.016 1022.55 577.54 1022.55 577.54C1022.55 577.54 1025.72 567.252 1031.88 568.043C1038.05 568.835 1041.72 572.886 1039.19 582.193C1039.19 582.193 1011.51 682.092 1005.66 702.477C1004.97 704.946 992.252 767.336 954.865 772.369C917.478 777.402 813.636 773.667 813.636 773.667C813.636 773.667 803.894 773.92 802.597 765.563C801.301 757.207 800.099 746.033 822.208 743.501Z" fill="#AFB1B4"/>
<g style="mix-blend-mode:screen">
<path d="M998 716C998 716 990.407 744.007 978.271 757.234C972.009 763.563 964.218 768.173 955.651 770.619C955.651 770.619 941.132 772.998 898.306 772.744C855.481 772.49 808.906 774.901 807 768.716C807 768.716 811.035 769.667 819.708 770.841C828.381 772.014 883.915 771.095 907.234 770.619C930.553 770.143 947.137 770.873 958.065 767.637C972.552 763.387 985.864 749.019 998 716Z" fill="#AFB1B4"/>
</g>
<path d="M950.554 694.401C949.886 676.03 949.249 657.628 947.912 639.321C945.28 619.325 940.717 599.632 934.289 580.516C912.804 522.125 901.345 520.692 899.276 519.164C896.761 517.156 894.608 514.733 892.91 512L865.759 527.919L866.618 532.249C866.618 532.249 846.597 566.984 846.374 601.242C846.151 635.5 843 698.603 843 698.603C848.062 702.714 853.649 706.13 859.615 708.76C871.138 713.822 951.127 714.013 951 711.116C950.841 706.945 950.682 698.603 950.554 694.401Z" fill="#FFA229"/>
<path d="M887.842 525.888C887.842 525.888 878.683 519.534 864.546 540.82C850.408 562.106 825.963 615.607 825.963 615.607L742.989 636.13L742 653C742 653 824.272 651.539 840.324 641.531C856.376 631.523 894.576 560.041 894.576 560.041C894.576 560.041 908.107 530.526 887.842 525.888Z" fill="#F6DFC9"/>
<path d="M747.347 636.275C745.833 635.066 744.178 634.032 742.414 633.193C740.589 632.236 738.706 631.382 736.777 630.636C732.868 629.124 728.88 627.808 724.83 626.692L718.584 624.874C716.611 624.169 714.501 623.885 712.403 624.042C707.924 624.9 703.562 626.243 699.399 628.048C694.948 629.649 690.587 631.469 686.331 633.501C684.441 634.395 682.423 635.104 680.661 636.151C679.992 636.582 679.418 637.135 678.973 637.781C678.527 638.426 678.22 639.15 678.067 639.91C677.773 642.922 676.823 645.84 675.281 648.476C674.004 649.816 672.926 651.32 672.078 652.944C672.004 653.159 671.983 653.387 672.014 653.612C672.045 653.836 672.128 654.051 672.257 654.241C672.387 654.43 672.558 654.589 672.76 654.706C672.962 654.823 673.188 654.894 673.423 654.916C674.745 655.117 676.099 654.957 677.33 654.453C678.083 654.219 678.812 653.92 679.508 653.56C680.309 654.607 682.711 654.484 683.736 654.392C684.739 654.334 685.735 654.2 686.715 653.991C688.494 653.62 690.239 653.115 691.936 652.482C691.804 652.762 691.739 653.067 691.744 653.375C691.744 655.039 694.434 654.7 695.587 654.608C698.597 654.239 701.574 653.652 704.491 652.851C707.365 652.021 710.285 651.342 713.235 650.818C715.877 650.453 718.552 650.381 721.211 650.602C724.414 650.848 727.617 651.003 730.627 651.341C733.798 651.721 736.928 652.371 739.98 653.283C741.306 653.595 742.689 653.609 744.023 653.325C745.356 653.041 746.603 652.465 747.668 651.643C748.733 650.821 749.587 649.775 750.165 648.584C750.742 647.394 751.027 646.092 750.998 644.779C751.003 643.199 750.684 641.635 750.057 640.175C749.43 638.715 748.509 637.39 747.347 636.275Z" fill="#F6DFC9"/>
<path opacity="0.58" d="M719.964 641.003C718.673 641.29 717.318 641.386 716.028 641.641C714.837 641.94 713.663 642.302 712.511 642.726C709.962 643.715 707.51 644.959 705.058 646.076C702.606 647.192 700.025 648.437 697.573 649.649L694.347 651.181C693.455 651.473 692.663 652.003 692.056 652.712C691.863 652.935 692.218 653.095 692.379 652.935C693.23 652.294 694.177 651.788 695.186 651.436C696.315 650.957 697.412 650.383 698.412 649.841C700.767 648.628 703.219 647.543 705.607 646.395C707.994 645.246 710.221 644.098 712.576 643.204C713.828 642.68 715.123 642.264 716.447 641.96C717.624 641.795 718.789 641.55 719.932 641.226C719.932 641.226 720.061 640.971 719.964 641.003Z" fill="#D18C59"/>
<path opacity="0.58" d="M708.936 635C703.656 636.909 698.667 639.608 694.122 643.012C691.462 644.699 688.834 646.483 686.236 648.267C684.937 649.143 683.576 649.987 682.37 650.96C681.477 651.772 680.696 652.711 680.051 653.749C679.865 654.009 680.236 654.074 680.391 653.912C681.21 652.832 682.121 651.833 683.112 650.927L686.731 648.397C689.236 646.678 691.772 644.959 694.339 643.337C698.932 640.098 703.835 637.37 708.967 635.195C708.967 635.195 709.059 635 708.936 635Z" fill="#D18C59"/>
<path opacity="0.58" d="M699.901 632.018C694.738 634.732 689.639 637.666 684.736 640.822C682.336 642.256 680.094 643.927 678.046 645.807C677.176 646.674 676.373 647.602 675.643 648.584C675.156 649.183 674.701 649.846 674.182 650.414C673.776 650.833 673.397 651.276 673.045 651.739C672.85 652.055 673.338 652.118 673.5 651.739C673.885 651.216 674.308 650.72 674.766 650.256L675.903 648.805C676.707 647.748 677.586 646.746 678.533 645.807C680.651 643.917 682.957 642.236 685.418 640.79C690.159 637.635 695.16 634.953 699.966 632.018C700.031 632.081 699.999 631.955 699.901 632.018Z" fill="#D18C59"/>
<path d="M886.933 525.685C886.933 525.685 876.36 520.004 862.252 541.362C848.144 562.719 823.145 613.462 823.145 613.462L747 632.946L751.618 659C751.618 659 830.31 651.765 846.329 641.768C862.347 631.772 895.85 561.735 895.85 561.735C895.85 561.735 907.155 530.318 886.933 525.685Z" fill="#ED8718"/>
<path d="M247.493 967H247.84C248.287 966.976 248.724 966.861 249.127 966.664C249.529 966.466 249.887 966.188 250.181 965.848C250.475 965.508 250.698 965.111 250.836 964.682C250.975 964.253 251.026 963.801 250.988 963.351L230.967 760.038C230.857 759.13 230.394 758.303 229.68 757.738C228.966 757.173 228.059 756.916 227.158 757.024C226.712 757.052 226.277 757.169 225.877 757.368C225.476 757.568 225.119 757.845 224.827 758.184C224.534 758.524 224.311 758.919 224.17 759.346C224.03 759.773 223.976 760.224 224.01 760.672L244.062 963.986C244.163 964.827 244.57 965.6 245.203 966.157C245.837 966.713 246.653 967.014 247.493 967Z" fill="#4F5153"/>
<path d="M91.4732 966.999H91.1584C90.7128 966.971 90.2772 966.854 89.8769 966.655C89.4766 966.455 89.1197 966.178 88.8267 965.839C88.5338 965.499 88.3107 965.104 88.1705 964.677C88.0302 964.25 87.9757 963.799 88.0099 963.351L108.066 760.034C108.176 759.132 108.634 758.311 109.341 757.747C110.048 757.183 110.947 756.922 111.844 757.02C112.741 757.085 113.576 757.506 114.166 758.19C114.756 758.873 115.053 759.765 114.992 760.669L94.9366 963.954C94.8423 964.806 94.4342 965.591 93.793 966.155C93.1518 966.719 92.324 967.02 91.4732 966.999Z" fill="#4F5153"/>
<path d="M99 758.281C99 758.281 107.499 737.383 123.161 735.388C138.823 733.394 165.977 739.821 214.84 738.048C263.704 736.275 273.668 733.964 280.48 744.222C282.339 748.489 282.499 753.3 280.926 757.679C278.22 764.74 270.198 770.756 257.242 770.344C244.286 769.933 107.595 779.083 99 758.281Z" fill="#4583A7"/>
<path d="M248.647 743.501C226.318 740.968 110.841 760.404 96.0398 731.662C69.9459 681.016 46.5954 577.54 46.5954 577.54C46.5954 577.54 43.4055 567.252 37.185 568.043C30.9646 568.835 27.2643 572.886 29.8162 582.193C29.8162 582.193 57.6965 682.092 63.5979 702.477C64.2997 704.946 77.1233 767.336 114.829 772.369C152.534 777.402 257.26 773.667 257.26 773.667C257.26 773.667 267.085 773.92 268.393 765.563C269.701 757.207 270.945 746.033 248.647 743.501Z" fill="#AFB1B4"/>
<g style="mix-blend-mode:screen">
<path d="M72 716C72 716 79.6006 743.93 91.7487 757.119C97.9897 763.484 105.779 768.136 114.36 770.625C114.36 770.625 128.893 772.998 171.602 772.745C214.312 772.492 261.124 774.896 263 768.728C263 768.728 258.961 769.677 250.279 770.847C241.598 772.017 186.008 771.1 162.666 770.625C139.324 770.151 122.723 770.879 111.784 767.652C97.473 763.256 84.1482 748.927 72 716Z" fill="#AFB1B4"/>
</g>
<path d="M183.087 525.888C183.087 525.888 192.187 519.534 206.235 540.82C220.282 562.106 244.572 615.607 244.572 615.607L327.017 636.13L328 653C328 653 246.252 651.539 230.303 641.531C214.353 631.523 176.396 560.041 176.396 560.041C176.396 560.041 162.951 530.526 183.087 525.888Z" fill="#F6DFC9"/>
<path d="M322.607 636.275C324.102 635.066 325.736 634.032 327.477 633.193C329.28 632.236 331.138 631.382 333.043 630.636C336.903 629.124 340.84 627.808 344.839 626.692L351.005 624.874C352.954 624.169 355.037 623.885 357.109 624.042C361.53 624.9 365.838 626.243 369.948 628.048C374.342 629.649 378.649 631.469 382.851 633.501C384.717 634.395 386.709 635.104 388.448 636.151C389.109 636.582 389.676 637.135 390.116 637.781C390.555 638.426 390.859 639.15 391.01 639.91C391.3 642.922 392.238 645.84 393.761 648.476C395.021 649.816 396.086 651.32 396.923 652.944C396.996 653.159 397.017 653.387 396.986 653.612C396.956 653.836 396.873 654.051 396.746 654.241C396.618 654.43 396.449 654.589 396.249 654.706C396.05 654.823 395.827 654.894 395.595 654.916C394.29 655.117 392.953 654.957 391.737 654.453C390.994 654.219 390.274 653.92 389.587 653.56C388.796 654.607 386.424 654.484 385.412 654.392C384.423 654.334 383.439 654.2 382.471 653.991C380.715 653.62 378.992 653.115 377.317 652.482C377.446 652.762 377.511 653.067 377.506 653.375C377.506 655.039 374.85 654.7 373.711 654.608C370.74 654.239 367.801 653.652 364.92 652.851C362.082 652.021 359.2 651.342 356.287 650.818C353.679 650.453 351.037 650.381 348.412 650.602C345.25 650.848 342.087 651.003 339.115 651.341C335.984 651.721 332.894 652.371 329.881 653.283C328.571 653.595 327.205 653.609 325.889 653.325C324.573 653.041 323.341 652.465 322.29 651.643C321.238 650.821 320.395 649.775 319.825 648.584C319.255 647.394 318.973 646.092 319.002 644.779C318.997 643.199 319.312 641.635 319.931 640.175C320.55 638.715 321.46 637.39 322.607 636.275Z" fill="#F6DFC9"/>
<path opacity="0.58" d="M351.035 641.003C352.279 641.29 353.586 641.386 354.83 641.641C355.979 641.94 357.111 642.302 358.221 642.726C360.679 643.715 363.044 644.959 365.408 646.076C367.772 647.192 370.261 648.437 372.626 649.649L375.737 651.181C376.597 651.473 377.361 652.003 377.946 652.712C378.132 652.935 377.79 653.095 377.635 652.935C376.814 652.294 375.901 651.788 374.928 651.436C373.839 650.957 372.781 650.383 371.817 649.841C369.546 648.628 367.181 647.543 364.879 646.395C362.577 645.246 360.43 644.098 358.159 643.204C356.952 642.68 355.703 642.264 354.426 641.96C353.291 641.795 352.168 641.55 351.066 641.226C351.066 641.226 350.941 640.971 351.035 641.003Z" fill="#D18C59"/>
<path opacity="0.58" d="M360.067 635C365.528 636.909 370.69 639.608 375.391 643.012C378.142 644.699 380.862 646.483 383.549 648.267C384.893 649.143 386.3 649.987 387.548 650.96C388.481 651.763 389.29 652.703 389.947 653.749C390.139 654.009 389.756 654.074 389.596 653.912C388.748 652.832 387.806 651.833 386.78 650.927L383.037 648.397C380.446 646.678 377.822 644.959 375.167 643.337C370.415 640.098 365.343 637.37 360.035 635.195C360.035 635.195 359.939 635 360.067 635Z" fill="#D18C59"/>
<path opacity="0.58" d="M370.099 632.018C375.262 634.732 380.36 637.666 385.264 640.822C387.664 642.256 389.906 643.927 391.954 645.807C392.824 646.674 393.627 647.602 394.357 648.584C394.844 649.183 395.299 649.846 395.818 650.414C396.224 650.833 396.603 651.276 396.955 651.739C397.15 652.055 396.662 652.118 396.5 651.739C396.115 651.216 395.692 650.72 395.234 650.256L394.097 648.805C393.293 647.748 392.414 646.746 391.467 645.807C389.349 643.917 387.043 642.236 384.582 640.79C379.841 637.635 374.84 634.953 370.034 632.018C369.969 632.081 370.001 631.955 370.099 632.018Z" fill="#D18C59"/>
<path d="M183.054 525.685C183.054 525.685 193.628 520.004 207.737 541.362C221.846 562.719 246.848 613.462 246.848 613.462L323 632.946L318.382 659C318.382 659 239.682 651.765 223.662 641.768C207.642 631.772 174.168 561.671 174.168 561.671C174.168 561.671 162.83 530.318 183.054 525.685Z" fill="#EF9CAC"/>
<path d="M747 654H628V661H747V654Z" fill="#646669"/>
<path d="M646 658H636V659H646V658Z" fill="#313436"/>
<path d="M659 658H649V659H659V658Z" fill="#313436"/>
<path d="M595.351 533H590L629.649 661H635L595.351 533Z" fill="#646669"/>
<path d="M286 661H404V654H286V661Z" fill="#646669"/>
<path d="M388 659H396V658H388V659Z" fill="#313436"/>
<path d="M374 659H383V658H374V659Z" fill="#313436"/>
<path d="M437.649 533H443L403.383 661H398L437.649 533Z" fill="#646669"/>
<path d="M735 988H747.5L760 682H735V988Z" fill="#A4775A"/>
<g style="mix-blend-mode:screen">
<path d="M744 988H746.909L760 682H756.245L744 988Z" fill="#A4775A"/>
</g>
<path d="M270 988H257.5L245 682H270V988Z" fill="#A4775A"/>
<g style="mix-blend-mode:screen">
<path d="M260 988H257.273L245 682H248.52L260 988Z" fill="#A4775A"/>
</g>
<path d="M785 662H237V692H785V662Z" fill="#72533D"/>
<path d="M819 660H220V673H819V660Z" fill="#A4775A"/>
<g style="mix-blend-mode:multiply">
<path d="M562.955 513.82C574.652 512.145 586.567 513.043 597.892 516.455C603.583 517.966 609.749 520.537 612.088 526.097C614.776 532.524 611.077 539.691 606.777 545.058C601.095 552.146 594.156 558.087 586.32 562.574C578.416 567.073 569.595 570.158 562.765 576.168C558.402 580.025 554.956 586.902 558.497 591.53C561.311 595.226 567.381 595.612 569.342 599.854C571.302 604.097 568.33 608.05 565.073 610.621C561.817 613.192 557.801 615.056 555.588 618.623C554.899 619.63 554.544 620.835 554.576 622.062C554.798 624.89 557.896 627.365 556.853 630C555.103 629.206 553.704 627.781 552.928 626.001C552.151 624.22 552.051 622.21 552.648 620.359C553.874 616.721 556.062 613.496 558.971 611.038C561.184 608.917 563.619 606.218 562.987 603.197C562.101 598.922 556.347 598.44 552.869 595.805C551.141 594.227 549.928 592.151 549.391 589.854C548.854 587.557 549.02 585.148 549.865 582.949C551.706 578.539 554.596 574.663 558.276 571.669C567.128 563.442 577.246 556.339 584.139 546.248C584.868 545.309 585.366 544.207 585.593 543.034C585.909 539.338 581.419 537.377 577.847 536.606L547.304 529.825C545.37 529.552 543.522 528.838 541.898 527.736C541.101 527.163 540.509 526.342 540.212 525.397C539.916 524.451 539.93 523.433 540.254 522.497C541.035 521.216 542.249 520.268 543.668 519.83C549.888 517.244 556.335 515.264 562.923 513.916" fill="#E5E5E5"/>
</g>
<g style="mix-blend-mode:multiply">
<path d="M450.093 513.819C461.768 512.145 473.66 513.044 484.965 516.454C490.641 517.965 496.758 520.536 499.091 526.096C501.771 532.524 498.082 539.691 493.794 545.058C488.128 552.145 481.208 558.086 473.394 562.573C465.543 567.073 456.746 570.158 449.904 576.168C445.553 580.025 442.116 586.902 445.648 591.53C448.485 595.226 454.507 595.612 456.462 599.854C458.417 604.096 455.453 608.049 452.206 610.62C448.958 613.192 444.985 615.056 442.747 618.623C442.07 619.634 441.728 620.839 441.769 622.062C441.959 624.89 444.922 627.365 444.008 630C442.267 629.201 440.877 627.775 440.103 625.996C439.33 624.217 439.227 622.21 439.814 620.358C441.041 616.722 443.222 613.499 446.12 611.038C448.296 608.917 450.755 606.217 450.125 603.196C449.21 598.922 443.472 598.44 440.035 595.805C438.277 594.252 437.032 592.184 436.468 589.884C435.903 587.584 436.048 585.162 436.882 582.949C438.708 578.551 441.567 574.677 445.206 571.669C454.066 563.441 464.124 556.338 470.998 546.247C471.748 545.323 472.248 544.215 472.448 543.033C472.763 539.337 468.318 537.377 464.755 536.605L434.265 529.824C432.338 529.546 430.495 528.832 428.874 527.735C428.08 527.161 427.493 526.338 427.203 525.392C426.912 524.446 426.934 523.429 427.266 522.496C428.039 521.223 429.237 520.276 430.639 519.829C436.842 517.243 443.271 515.263 449.841 513.915" fill="#E5E5E5"/>
</g>
<path d="M658.71 254C667.658 246.024 678.89 241.128 690.78 240.021C702.67 238.914 714.601 241.652 724.845 247.841L763 209.347C742.454 193.174 716.86 184.934 690.826 186.111C664.793 187.287 640.031 197.802 621 215.762L658.71 254Z" fill="#FFA5B2"/>
<path d="M639.27 294C639.732 283.365 643.105 273.081 649 264.334L611.763 226C596.288 245.139 587.56 269.105 587 294H639.27Z" fill="#B2EAF2"/>
<path d="M678.937 350.465C669.363 347.434 660.77 341.901 654.045 334.436C647.319 326.972 642.705 317.846 640.677 308H587C589.527 332.054 599.914 354.6 616.549 372.14C633.184 389.679 655.137 401.23 679 405L678.937 350.465Z" fill="#46D0DD"/>
<path d="M772.919 218.096L735.229 255.894C743.086 263.835 748.424 273.933 750.572 284.915C752.719 295.897 751.58 307.271 747.298 317.604C743.015 327.937 735.781 336.766 726.506 342.978C717.232 349.191 706.333 352.509 695.183 352.514C694.133 352.514 693.114 352.514 692 352.514V406H695.183C716.888 406.011 738.11 399.563 756.164 387.471C774.219 375.378 788.296 358.184 796.616 338.062C804.936 317.941 807.126 295.795 802.908 274.424C798.69 253.054 788.254 233.418 772.919 218V218.096Z" fill="#FCE2AB"/>
<path d="M917 275H841V280H917V275Z" fill="#FCE2AB"/>
<path d="M891 283H841V290H891V283Z" fill="#FCE2AB"/>
<path d="M559 275H532V280H559V275Z" fill="#B2EAF2"/>
<path d="M557 283H532V290H557V283Z" fill="#B2EAF2"/>
<path d="M576 349H537V354H576V349Z" fill="#73CDDA"/>
<path d="M563 357H537V363H563V357Z" fill="#73CDDA"/>
<path d="M798 277C798 277.989 797.677 278.956 797.073 279.778C796.469 280.6 795.61 281.241 794.605 281.619C793.6 281.998 792.494 282.097 791.427 281.904C790.36 281.711 789.38 281.235 788.611 280.536C787.842 279.836 787.318 278.945 787.106 277.975C786.893 277.006 787.002 276 787.419 275.087C787.835 274.173 788.54 273.392 789.444 272.843C790.349 272.293 791.412 272 792.5 272C793.959 272 795.358 272.527 796.389 273.464C797.421 274.402 798 275.674 798 277Z" fill="#988575"/>
<path d="M837 276H792V277H837V276Z" fill="#988575"/>
<path d="M596 277C596 276.011 596.293 275.044 596.843 274.222C597.392 273.4 598.173 272.759 599.087 272.381C600 272.002 601.006 271.903 601.975 272.096C602.945 272.289 603.836 272.765 604.536 273.464C605.235 274.164 605.711 275.055 605.904 276.025C606.097 276.994 605.998 278 605.619 278.913C605.241 279.827 604.6 280.608 603.778 281.157C602.956 281.707 601.989 282 601 282C599.674 282 598.402 281.473 597.464 280.536C596.527 279.598 596 278.326 596 277Z" fill="#988575"/>
<path d="M564 277H601V276H564V277Z" fill="#988575"/>
<path d="M612 352C612 351.011 612.323 350.044 612.927 349.222C613.531 348.4 614.39 347.759 615.395 347.381C616.4 347.002 617.506 346.903 618.573 347.096C619.64 347.289 620.62 347.765 621.389 348.464C622.158 349.164 622.682 350.055 622.894 351.025C623.107 351.994 622.998 353 622.581 353.913C622.165 354.827 621.46 355.608 620.556 356.157C619.651 356.707 618.588 357 617.5 357C616.041 357 614.642 356.473 613.611 355.536C612.579 354.598 612 353.326 612 352Z" fill="#988575"/>
<path d="M580 353H617V352H580V353Z" fill="#988575"/>
<path d="M692.502 196C693.595 196 694.664 196.267 695.571 196.767C696.479 197.267 697.183 197.976 697.595 198.805C698.007 199.634 698.107 200.545 697.884 201.421C697.66 202.297 697.122 203.098 696.339 203.723C695.556 204.347 694.563 204.766 693.487 204.927C692.411 205.088 691.301 204.982 690.299 204.624C689.296 204.266 688.447 203.671 687.86 202.916C687.273 202.162 686.974 201.281 687.002 200.386C687.038 199.212 687.634 198.097 688.661 197.277C689.689 196.458 691.067 196 692.502 196Z" fill="#988575"/>
<path d="M692 172V200H693V172H692Z" fill="#988575"/>
</svg>
