<svg width="1016" height="1295" viewBox="0 0 1016 1295" fill="none" xmlns="http://www.w3.org/2000/svg">
<rect width="1016" height="1295" fill="white"/>
<path d="M102 85L102 1178" stroke="#58595B" stroke-miterlimit="2.6131"/>
<path d="M226.729 136.53V141H209.367V136.53H226.729ZM210.962 108.297V141H205.324V108.297H210.962ZM224.461 121.953V126.355H209.367V121.953H224.461ZM226.617 108.297V112.789H209.367V108.297H226.617ZM234.928 116.697L239.555 124.761L244.271 116.697H250.224L242.856 128.624L250.516 141H244.563L239.622 132.6L234.681 141H228.706L236.343 128.624L228.998 116.697H234.928ZM267.631 136.126V124.536C267.631 123.668 267.474 122.919 267.159 122.29C266.845 121.661 266.366 121.174 265.722 120.83C265.093 120.486 264.299 120.313 263.341 120.313C262.457 120.313 261.694 120.463 261.05 120.763C260.406 121.062 259.904 121.466 259.545 121.976C259.186 122.485 259.006 123.061 259.006 123.705H253.615C253.615 122.747 253.847 121.818 254.312 120.92C254.776 120.021 255.45 119.22 256.333 118.517C257.216 117.813 258.272 117.259 259.5 116.854C260.728 116.45 262.105 116.248 263.633 116.248C265.46 116.248 267.077 116.555 268.484 117.169C269.907 117.783 271.022 118.711 271.831 119.954C272.655 121.182 273.066 122.724 273.066 124.581V135.385C273.066 136.493 273.141 137.489 273.291 138.372C273.456 139.241 273.688 139.997 273.987 140.641V141H268.439C268.185 140.416 267.983 139.675 267.833 138.776C267.698 137.863 267.631 136.979 267.631 136.126ZM268.417 126.221L268.462 129.567H264.576C263.573 129.567 262.689 129.665 261.926 129.859C261.162 130.039 260.526 130.309 260.017 130.668C259.507 131.027 259.126 131.462 258.871 131.971C258.617 132.48 258.489 133.056 258.489 133.7C258.489 134.344 258.639 134.936 258.938 135.475C259.238 135.999 259.672 136.41 260.241 136.71C260.825 137.009 261.529 137.159 262.353 137.159C263.461 137.159 264.426 136.935 265.25 136.485C266.089 136.021 266.747 135.46 267.227 134.801C267.706 134.127 267.96 133.491 267.99 132.892L269.742 135.295C269.562 135.909 269.256 136.568 268.821 137.271C268.387 137.975 267.818 138.649 267.114 139.293C266.425 139.922 265.594 140.438 264.621 140.843C263.663 141.247 262.555 141.449 261.297 141.449C259.71 141.449 258.295 141.135 257.052 140.506C255.809 139.862 254.836 139.001 254.132 137.923C253.428 136.83 253.076 135.594 253.076 134.217C253.076 132.929 253.316 131.791 253.795 130.803C254.289 129.799 255.008 128.961 255.951 128.287C256.91 127.613 258.077 127.104 259.455 126.76C260.833 126.4 262.405 126.221 264.172 126.221H268.417ZM284.14 121.639V141H278.727V116.697H283.825L284.14 121.639ZM283.264 127.95L281.422 127.928C281.422 126.251 281.632 124.701 282.051 123.278C282.47 121.856 283.084 120.62 283.893 119.572C284.701 118.509 285.704 117.693 286.902 117.124C288.115 116.54 289.515 116.248 291.103 116.248C292.211 116.248 293.221 116.413 294.135 116.742C295.063 117.057 295.864 117.558 296.538 118.247C297.227 118.936 297.751 119.819 298.11 120.897C298.485 121.976 298.672 123.278 298.672 124.806V141H293.259V125.277C293.259 124.094 293.079 123.166 292.72 122.492C292.375 121.818 291.874 121.339 291.215 121.055C290.571 120.755 289.8 120.605 288.901 120.605C287.883 120.605 287.015 120.8 286.296 121.189C285.592 121.579 285.016 122.11 284.566 122.784C284.117 123.458 283.788 124.237 283.578 125.12C283.368 126.004 283.264 126.947 283.264 127.95ZM298.335 126.513L295.797 127.074C295.797 125.607 295.999 124.222 296.403 122.919C296.823 121.601 297.429 120.448 298.223 119.46C299.031 118.457 300.027 117.671 301.21 117.102C302.393 116.533 303.748 116.248 305.275 116.248C306.518 116.248 307.626 116.42 308.6 116.765C309.588 117.094 310.426 117.618 311.115 118.337C311.804 119.056 312.328 119.992 312.688 121.145C313.047 122.283 313.227 123.66 313.227 125.277V141H307.791V125.255C307.791 124.027 307.611 123.076 307.252 122.402C306.908 121.729 306.413 121.264 305.77 121.01C305.126 120.74 304.354 120.605 303.456 120.605C302.618 120.605 301.876 120.763 301.232 121.077C300.604 121.377 300.072 121.803 299.638 122.357C299.203 122.896 298.874 123.518 298.649 124.222C298.44 124.925 298.335 125.689 298.335 126.513ZM324.592 116.697V141H319.156V116.697H324.592ZM318.797 110.318C318.797 109.495 319.066 108.813 319.605 108.274C320.16 107.72 320.923 107.443 321.896 107.443C322.855 107.443 323.611 107.72 324.165 108.274C324.719 108.813 324.996 109.495 324.996 110.318C324.996 111.127 324.719 111.801 324.165 112.34C323.611 112.879 322.855 113.148 321.896 113.148C320.923 113.148 320.16 112.879 319.605 112.34C319.066 111.801 318.797 111.127 318.797 110.318ZM335.89 121.886V141H330.477V116.697H335.575L335.89 121.886ZM334.924 127.95L333.172 127.928C333.187 126.206 333.426 124.626 333.891 123.188C334.37 121.751 335.029 120.516 335.867 119.482C336.721 118.449 337.739 117.656 338.922 117.102C340.105 116.533 341.423 116.248 342.875 116.248C344.043 116.248 345.099 116.413 346.042 116.742C347 117.057 347.816 117.573 348.49 118.292C349.179 119.011 349.703 119.947 350.062 121.1C350.422 122.238 350.602 123.638 350.602 125.3V141H345.166V125.277C345.166 124.109 344.994 123.188 344.649 122.515C344.32 121.826 343.833 121.339 343.189 121.055C342.561 120.755 341.774 120.605 340.831 120.605C339.903 120.605 339.072 120.8 338.338 121.189C337.604 121.579 336.983 122.11 336.474 122.784C335.979 123.458 335.598 124.237 335.328 125.12C335.059 126.004 334.924 126.947 334.924 127.95ZM369.828 136.126V124.536C369.828 123.668 369.671 122.919 369.356 122.29C369.042 121.661 368.563 121.174 367.919 120.83C367.29 120.486 366.496 120.313 365.538 120.313C364.655 120.313 363.891 120.463 363.247 120.763C362.603 121.062 362.102 121.466 361.742 121.976C361.383 122.485 361.203 123.061 361.203 123.705H355.812C355.812 122.747 356.045 121.818 356.509 120.92C356.973 120.021 357.647 119.22 358.53 118.517C359.414 117.813 360.469 117.259 361.697 116.854C362.925 116.45 364.303 116.248 365.83 116.248C367.657 116.248 369.274 116.555 370.682 117.169C372.104 117.783 373.22 118.711 374.028 119.954C374.852 121.182 375.264 122.724 375.264 124.581V135.385C375.264 136.493 375.339 137.489 375.488 138.372C375.653 139.241 375.885 139.997 376.185 140.641V141H370.637C370.382 140.416 370.18 139.675 370.03 138.776C369.896 137.863 369.828 136.979 369.828 136.126ZM370.614 126.221L370.659 129.567H366.773C365.77 129.567 364.887 129.665 364.123 129.859C363.359 130.039 362.723 130.309 362.214 130.668C361.705 131.027 361.323 131.462 361.068 131.971C360.814 132.48 360.687 133.056 360.687 133.7C360.687 134.344 360.836 134.936 361.136 135.475C361.435 135.999 361.869 136.41 362.438 136.71C363.022 137.009 363.726 137.159 364.55 137.159C365.658 137.159 366.624 136.935 367.447 136.485C368.286 136.021 368.945 135.46 369.424 134.801C369.903 134.127 370.158 133.491 370.188 132.892L371.939 135.295C371.76 135.909 371.453 136.568 371.019 137.271C370.584 137.975 370.015 138.649 369.312 139.293C368.623 139.922 367.792 140.438 366.818 140.843C365.86 141.247 364.752 141.449 363.494 141.449C361.907 141.449 360.492 141.135 359.249 140.506C358.006 139.862 357.033 139.001 356.329 137.923C355.625 136.83 355.273 135.594 355.273 134.217C355.273 132.929 355.513 131.791 355.992 130.803C356.486 129.799 357.205 128.961 358.148 128.287C359.107 127.613 360.275 127.104 361.652 126.76C363.03 126.4 364.602 126.221 366.369 126.221H370.614ZM392.064 116.697V120.65H378.363V116.697H392.064ZM382.316 110.745H387.729V134.284C387.729 135.033 387.834 135.609 388.044 136.014C388.269 136.403 388.576 136.665 388.965 136.8C389.354 136.935 389.811 137.002 390.335 137.002C390.709 137.002 391.069 136.979 391.413 136.935C391.757 136.89 392.035 136.845 392.244 136.8L392.267 140.933C391.817 141.067 391.293 141.187 390.694 141.292C390.11 141.397 389.437 141.449 388.673 141.449C387.43 141.449 386.329 141.232 385.371 140.798C384.413 140.349 383.664 139.622 383.125 138.619C382.586 137.616 382.316 136.283 382.316 134.621V110.745ZM402.037 116.697V141H396.602V116.697H402.037ZM396.242 110.318C396.242 109.495 396.512 108.813 397.051 108.274C397.605 107.72 398.368 107.443 399.342 107.443C400.3 107.443 401.056 107.72 401.61 108.274C402.164 108.813 402.441 109.495 402.441 110.318C402.441 111.127 402.164 111.801 401.61 112.34C401.056 112.879 400.3 113.148 399.342 113.148C398.368 113.148 397.605 112.879 397.051 112.34C396.512 111.801 396.242 111.127 396.242 110.318ZM406.934 129.118V128.602C406.934 126.85 407.188 125.225 407.697 123.728C408.206 122.215 408.94 120.905 409.898 119.797C410.872 118.674 412.055 117.805 413.447 117.191C414.855 116.562 416.442 116.248 418.209 116.248C419.991 116.248 421.578 116.562 422.971 117.191C424.378 117.805 425.569 118.674 426.542 119.797C427.515 120.905 428.257 122.215 428.766 123.728C429.275 125.225 429.529 126.85 429.529 128.602V129.118C429.529 130.87 429.275 132.495 428.766 133.992C428.257 135.49 427.515 136.8 426.542 137.923C425.569 139.031 424.386 139.899 422.993 140.528C421.601 141.142 420.021 141.449 418.254 141.449C416.472 141.449 414.877 141.142 413.47 140.528C412.077 139.899 410.894 139.031 409.921 137.923C408.948 136.8 408.206 135.49 407.697 133.992C407.188 132.495 406.934 130.87 406.934 129.118ZM412.347 128.602V129.118C412.347 130.211 412.459 131.244 412.684 132.218C412.908 133.191 413.26 134.045 413.739 134.778C414.218 135.512 414.832 136.089 415.581 136.508C416.33 136.927 417.221 137.137 418.254 137.137C419.257 137.137 420.126 136.927 420.859 136.508C421.608 136.089 422.222 135.512 422.701 134.778C423.18 134.045 423.532 133.191 423.757 132.218C423.996 131.244 424.116 130.211 424.116 129.118V128.602C424.116 127.523 423.996 126.505 423.757 125.547C423.532 124.574 423.173 123.713 422.679 122.964C422.2 122.215 421.586 121.631 420.837 121.212C420.103 120.778 419.227 120.561 418.209 120.561C417.191 120.561 416.307 120.778 415.559 121.212C414.825 121.631 414.218 122.215 413.739 122.964C413.26 123.713 412.908 124.574 412.684 125.547C412.459 126.505 412.347 127.523 412.347 128.602ZM439.435 121.886V141H434.021V116.697H439.12L439.435 121.886ZM438.469 127.95L436.717 127.928C436.732 126.206 436.971 124.626 437.436 123.188C437.915 121.751 438.574 120.516 439.412 119.482C440.266 118.449 441.284 117.656 442.467 117.102C443.65 116.533 444.967 116.248 446.42 116.248C447.588 116.248 448.644 116.413 449.587 116.742C450.545 117.057 451.361 117.573 452.035 118.292C452.724 119.011 453.248 119.947 453.607 121.1C453.967 122.238 454.146 123.638 454.146 125.3V141H448.711V125.277C448.711 124.109 448.539 123.188 448.194 122.515C447.865 121.826 447.378 121.339 446.734 121.055C446.105 120.755 445.319 120.605 444.376 120.605C443.448 120.605 442.617 120.8 441.883 121.189C441.149 121.579 440.528 122.11 440.019 122.784C439.524 123.458 439.143 124.237 438.873 125.12C438.604 126.004 438.469 126.947 438.469 127.95Z" fill="#1C4670"/>
<path d="M231.401 334.75V336.547C231.401 339.018 231.079 341.234 230.436 343.195C229.792 345.157 228.871 346.826 227.673 348.204C226.49 349.582 225.067 350.637 223.405 351.371C221.743 352.09 219.901 352.449 217.88 352.449C215.873 352.449 214.039 352.09 212.377 351.371C210.73 350.637 209.3 349.582 208.087 348.204C206.874 346.826 205.931 345.157 205.257 343.195C204.598 341.234 204.269 339.018 204.269 336.547V334.75C204.269 332.279 204.598 330.071 205.257 328.124C205.916 326.162 206.844 324.493 208.042 323.115C209.255 321.723 210.685 320.667 212.332 319.948C213.994 319.215 215.828 318.848 217.835 318.848C219.856 318.848 221.698 319.215 223.36 319.948C225.022 320.667 226.452 321.723 227.65 323.115C228.848 324.493 229.769 326.162 230.413 328.124C231.072 330.071 231.401 332.279 231.401 334.75ZM225.764 336.547V334.705C225.764 332.878 225.584 331.269 225.225 329.876C224.88 328.468 224.364 327.293 223.675 326.35C223.001 325.391 222.17 324.673 221.182 324.193C220.193 323.699 219.078 323.452 217.835 323.452C216.592 323.452 215.484 323.699 214.511 324.193C213.537 324.673 212.706 325.391 212.018 326.35C211.344 327.293 210.827 328.468 210.468 329.876C210.108 331.269 209.929 332.878 209.929 334.705V336.547C209.929 338.374 210.108 339.991 210.468 341.398C210.827 342.806 211.351 343.996 212.04 344.97C212.744 345.928 213.582 346.654 214.556 347.148C215.529 347.628 216.637 347.867 217.88 347.867C219.138 347.867 220.253 347.628 221.227 347.148C222.2 346.654 223.023 345.928 223.697 344.97C224.371 343.996 224.88 342.806 225.225 341.398C225.584 339.991 225.764 338.374 225.764 336.547ZM241.936 332.369V361.344H236.522V327.697H241.509L241.936 332.369ZM257.771 339.624V340.096C257.771 341.863 257.561 343.502 257.142 345.015C256.737 346.512 256.131 347.822 255.322 348.945C254.529 350.053 253.548 350.914 252.38 351.528C251.212 352.142 249.864 352.449 248.337 352.449C246.825 352.449 245.499 352.172 244.361 351.618C243.238 351.049 242.287 350.248 241.509 349.215C240.73 348.182 240.101 346.969 239.622 345.576C239.158 344.169 238.828 342.626 238.634 340.949V339.13C238.828 337.348 239.158 335.731 239.622 334.278C240.101 332.826 240.73 331.576 241.509 330.527C242.287 329.479 243.238 328.671 244.361 328.102C245.484 327.533 246.795 327.248 248.292 327.248C249.819 327.248 251.174 327.548 252.357 328.146C253.54 328.73 254.536 329.569 255.345 330.662C256.153 331.74 256.76 333.043 257.164 334.57C257.568 336.083 257.771 337.767 257.771 339.624ZM252.357 340.096V339.624C252.357 338.501 252.253 337.46 252.043 336.502C251.833 335.529 251.504 334.675 251.055 333.941C250.605 333.208 250.029 332.639 249.325 332.234C248.636 331.815 247.805 331.605 246.832 331.605C245.874 331.605 245.05 331.77 244.361 332.1C243.673 332.414 243.096 332.856 242.632 333.425C242.168 333.994 241.808 334.66 241.554 335.424C241.299 336.173 241.119 336.989 241.015 337.872V342.229C241.194 343.308 241.501 344.296 241.936 345.194C242.37 346.093 242.984 346.812 243.777 347.351C244.586 347.875 245.619 348.137 246.877 348.137C247.85 348.137 248.681 347.927 249.37 347.508C250.059 347.089 250.62 346.512 251.055 345.778C251.504 345.03 251.833 344.169 252.043 343.195C252.253 342.222 252.357 341.189 252.357 340.096ZM267.811 332.369V361.344H262.397V327.697H267.384L267.811 332.369ZM283.646 339.624V340.096C283.646 341.863 283.436 343.502 283.017 345.015C282.612 346.512 282.006 347.822 281.197 348.945C280.404 350.053 279.423 350.914 278.255 351.528C277.087 352.142 275.739 352.449 274.212 352.449C272.7 352.449 271.374 352.172 270.236 351.618C269.113 351.049 268.162 350.248 267.384 349.215C266.605 348.182 265.976 346.969 265.497 345.576C265.033 344.169 264.703 342.626 264.509 340.949V339.13C264.703 337.348 265.033 335.731 265.497 334.278C265.976 332.826 266.605 331.576 267.384 330.527C268.162 329.479 269.113 328.671 270.236 328.102C271.359 327.533 272.67 327.248 274.167 327.248C275.694 327.248 277.049 327.548 278.232 328.146C279.415 328.73 280.411 329.569 281.22 330.662C282.028 331.74 282.635 333.043 283.039 334.57C283.443 336.083 283.646 337.767 283.646 339.624ZM278.232 340.096V339.624C278.232 338.501 278.128 337.46 277.918 336.502C277.708 335.529 277.379 334.675 276.93 333.941C276.48 333.208 275.904 332.639 275.2 332.234C274.511 331.815 273.68 331.605 272.707 331.605C271.749 331.605 270.925 331.77 270.236 332.1C269.548 332.414 268.971 332.856 268.507 333.425C268.043 333.994 267.683 334.66 267.429 335.424C267.174 336.173 266.994 336.989 266.89 337.872V342.229C267.069 343.308 267.376 344.296 267.811 345.194C268.245 346.093 268.859 346.812 269.652 347.351C270.461 347.875 271.494 348.137 272.752 348.137C273.725 348.137 274.556 347.927 275.245 347.508C275.934 347.089 276.495 346.512 276.93 345.778C277.379 345.03 277.708 344.169 277.918 343.195C278.128 342.222 278.232 341.189 278.232 340.096ZM287.217 340.118V339.602C287.217 337.85 287.471 336.225 287.98 334.728C288.49 333.215 289.223 331.905 290.182 330.797C291.155 329.674 292.338 328.805 293.73 328.191C295.138 327.562 296.725 327.248 298.492 327.248C300.274 327.248 301.861 327.562 303.254 328.191C304.661 328.805 305.852 329.674 306.825 330.797C307.799 331.905 308.54 333.215 309.049 334.728C309.558 336.225 309.812 337.85 309.812 339.602V340.118C309.812 341.87 309.558 343.495 309.049 344.992C308.54 346.49 307.799 347.8 306.825 348.923C305.852 350.031 304.669 350.899 303.276 351.528C301.884 352.142 300.304 352.449 298.537 352.449C296.755 352.449 295.16 352.142 293.753 351.528C292.36 350.899 291.177 350.031 290.204 348.923C289.231 347.8 288.49 346.49 287.98 344.992C287.471 343.495 287.217 341.87 287.217 340.118ZM292.63 339.602V340.118C292.63 341.211 292.742 342.244 292.967 343.218C293.191 344.191 293.543 345.045 294.022 345.778C294.502 346.512 295.116 347.089 295.864 347.508C296.613 347.927 297.504 348.137 298.537 348.137C299.54 348.137 300.409 347.927 301.143 347.508C301.891 347.089 302.505 346.512 302.984 345.778C303.464 345.045 303.815 344.191 304.04 343.218C304.28 342.244 304.399 341.211 304.399 340.118V339.602C304.399 338.523 304.28 337.505 304.04 336.547C303.815 335.574 303.456 334.713 302.962 333.964C302.483 333.215 301.869 332.631 301.12 332.212C300.386 331.778 299.51 331.561 298.492 331.561C297.474 331.561 296.59 331.778 295.842 332.212C295.108 332.631 294.502 333.215 294.022 333.964C293.543 334.713 293.191 335.574 292.967 336.547C292.742 337.505 292.63 338.523 292.63 339.602ZM327.983 345.419C327.983 344.88 327.849 344.393 327.579 343.959C327.31 343.51 326.793 343.105 326.029 342.746C325.281 342.387 324.173 342.057 322.705 341.758C321.417 341.473 320.234 341.136 319.156 340.747C318.093 340.343 317.18 339.856 316.416 339.287C315.652 338.718 315.061 338.044 314.642 337.266C314.222 336.487 314.013 335.589 314.013 334.57C314.013 333.582 314.23 332.646 314.664 331.763C315.098 330.879 315.72 330.101 316.528 329.427C317.337 328.753 318.318 328.221 319.471 327.832C320.639 327.443 321.941 327.248 323.379 327.248C325.415 327.248 327.16 327.592 328.612 328.281C330.08 328.955 331.203 329.876 331.981 331.044C332.76 332.197 333.149 333.5 333.149 334.952H327.736C327.736 334.308 327.572 333.709 327.242 333.155C326.928 332.586 326.449 332.13 325.805 331.785C325.161 331.426 324.352 331.246 323.379 331.246C322.451 331.246 321.679 331.396 321.065 331.695C320.466 331.98 320.017 332.354 319.718 332.818C319.433 333.283 319.291 333.792 319.291 334.346C319.291 334.75 319.366 335.117 319.516 335.446C319.68 335.761 319.95 336.053 320.324 336.322C320.699 336.577 321.208 336.816 321.852 337.041C322.51 337.266 323.334 337.483 324.322 337.692C326.179 338.082 327.774 338.583 329.106 339.197C330.454 339.796 331.487 340.575 332.206 341.533C332.925 342.477 333.284 343.674 333.284 345.127C333.284 346.205 333.052 347.193 332.588 348.092C332.139 348.975 331.48 349.746 330.611 350.405C329.743 351.049 328.702 351.551 327.489 351.91C326.291 352.27 324.944 352.449 323.446 352.449C321.245 352.449 319.381 352.06 317.854 351.281C316.326 350.488 315.166 349.477 314.372 348.249C313.593 347.006 313.204 345.718 313.204 344.386H318.438C318.497 345.389 318.774 346.19 319.269 346.789C319.778 347.373 320.407 347.8 321.155 348.069C321.919 348.324 322.705 348.451 323.514 348.451C324.487 348.451 325.303 348.324 325.962 348.069C326.621 347.8 327.122 347.44 327.467 346.991C327.811 346.527 327.983 346.003 327.983 345.419ZM343.818 327.697V352H338.383V327.697H343.818ZM338.023 321.318C338.023 320.495 338.293 319.813 338.832 319.274C339.386 318.72 340.15 318.443 341.123 318.443C342.081 318.443 342.838 318.72 343.392 319.274C343.946 319.813 344.223 320.495 344.223 321.318C344.223 322.127 343.946 322.801 343.392 323.34C342.838 323.879 342.081 324.148 341.123 324.148C340.15 324.148 339.386 323.879 338.832 323.34C338.293 322.801 338.023 322.127 338.023 321.318ZM360.889 327.697V331.65H347.188V327.697H360.889ZM351.141 321.745H356.554V345.284C356.554 346.033 356.659 346.609 356.868 347.014C357.093 347.403 357.4 347.665 357.789 347.8C358.178 347.935 358.635 348.002 359.159 348.002C359.534 348.002 359.893 347.979 360.237 347.935C360.582 347.89 360.859 347.845 361.068 347.8L361.091 351.933C360.642 352.067 360.118 352.187 359.519 352.292C358.935 352.397 358.261 352.449 357.497 352.449C356.254 352.449 355.154 352.232 354.195 351.798C353.237 351.349 352.488 350.622 351.949 349.619C351.41 348.616 351.141 347.283 351.141 345.621V321.745ZM370.861 327.697V352H365.426V327.697H370.861ZM365.066 321.318C365.066 320.495 365.336 319.813 365.875 319.274C366.429 318.72 367.193 318.443 368.166 318.443C369.124 318.443 369.881 318.72 370.435 319.274C370.989 319.813 371.266 320.495 371.266 321.318C371.266 322.127 370.989 322.801 370.435 323.34C369.881 323.879 369.124 324.148 368.166 324.148C367.193 324.148 366.429 323.879 365.875 323.34C365.336 322.801 365.066 322.127 365.066 321.318ZM375.758 340.118V339.602C375.758 337.85 376.012 336.225 376.521 334.728C377.031 333.215 377.764 331.905 378.723 330.797C379.696 329.674 380.879 328.805 382.271 328.191C383.679 327.562 385.266 327.248 387.033 327.248C388.815 327.248 390.402 327.562 391.795 328.191C393.202 328.805 394.393 329.674 395.366 330.797C396.34 331.905 397.081 333.215 397.59 334.728C398.099 336.225 398.354 337.85 398.354 339.602V340.118C398.354 341.87 398.099 343.495 397.59 344.992C397.081 346.49 396.34 347.8 395.366 348.923C394.393 350.031 393.21 350.899 391.817 351.528C390.425 352.142 388.845 352.449 387.078 352.449C385.296 352.449 383.701 352.142 382.294 351.528C380.901 350.899 379.718 350.031 378.745 348.923C377.772 347.8 377.031 346.49 376.521 344.992C376.012 343.495 375.758 341.87 375.758 340.118ZM381.171 339.602V340.118C381.171 341.211 381.283 342.244 381.508 343.218C381.732 344.191 382.084 345.045 382.563 345.778C383.043 346.512 383.657 347.089 384.405 347.508C385.154 347.927 386.045 348.137 387.078 348.137C388.081 348.137 388.95 347.927 389.684 347.508C390.432 347.089 391.046 346.512 391.525 345.778C392.005 345.045 392.356 344.191 392.581 343.218C392.821 342.244 392.94 341.211 392.94 340.118V339.602C392.94 338.523 392.821 337.505 392.581 336.547C392.356 335.574 391.997 334.713 391.503 333.964C391.024 333.215 390.41 332.631 389.661 332.212C388.927 331.778 388.051 331.561 387.033 331.561C386.015 331.561 385.132 331.778 384.383 332.212C383.649 332.631 383.043 333.215 382.563 333.964C382.084 334.713 381.732 335.574 381.508 336.547C381.283 337.505 381.171 338.523 381.171 339.602ZM408.259 332.886V352H402.846V327.697H407.944L408.259 332.886ZM407.293 338.95L405.541 338.928C405.556 337.206 405.796 335.626 406.26 334.188C406.739 332.751 407.398 331.516 408.236 330.482C409.09 329.449 410.108 328.656 411.291 328.102C412.474 327.533 413.792 327.248 415.244 327.248C416.412 327.248 417.468 327.413 418.411 327.742C419.369 328.057 420.186 328.573 420.859 329.292C421.548 330.011 422.072 330.947 422.432 332.1C422.791 333.238 422.971 334.638 422.971 336.3V352H417.535V336.277C417.535 335.109 417.363 334.188 417.019 333.515C416.689 332.826 416.202 332.339 415.559 332.055C414.93 331.755 414.144 331.605 413.2 331.605C412.272 331.605 411.441 331.8 410.707 332.189C409.973 332.579 409.352 333.11 408.843 333.784C408.349 334.458 407.967 335.237 407.697 336.12C407.428 337.004 407.293 337.947 407.293 338.95Z" fill="#1C4670"/>
<path d="M226.932 543.953V548.423H209.569V543.953H226.932ZM210.962 530.297V563H205.324V530.297H210.962ZM231.267 530.297V563H225.651V530.297H231.267ZM248.157 563.449C246.36 563.449 244.736 563.157 243.283 562.573C241.846 561.974 240.618 561.143 239.6 560.08C238.596 559.017 237.825 557.767 237.286 556.329C236.747 554.892 236.478 553.342 236.478 551.68V550.781C236.478 548.88 236.755 547.158 237.309 545.615C237.863 544.073 238.634 542.755 239.622 541.662C240.61 540.554 241.778 539.708 243.126 539.124C244.474 538.54 245.934 538.248 247.506 538.248C249.243 538.248 250.763 538.54 252.065 539.124C253.368 539.708 254.446 540.532 255.3 541.595C256.168 542.643 256.812 543.893 257.231 545.346C257.666 546.798 257.883 548.4 257.883 550.152V552.466H239.105V548.58H252.537V548.153C252.507 547.18 252.312 546.267 251.953 545.413C251.609 544.56 251.077 543.871 250.358 543.347C249.64 542.823 248.681 542.561 247.483 542.561C246.585 542.561 245.784 542.755 245.08 543.145C244.391 543.519 243.815 544.065 243.351 544.784C242.886 545.503 242.527 546.371 242.272 547.39C242.033 548.393 241.913 549.523 241.913 550.781V551.68C241.913 552.743 242.055 553.731 242.34 554.645C242.639 555.543 243.074 556.329 243.643 557.003C244.212 557.677 244.9 558.208 245.709 558.598C246.518 558.972 247.438 559.159 248.472 559.159C249.774 559.159 250.935 558.897 251.953 558.373C252.971 557.849 253.855 557.108 254.604 556.149L257.456 558.912C256.932 559.676 256.251 560.41 255.412 561.113C254.574 561.802 253.548 562.364 252.335 562.798C251.137 563.232 249.744 563.449 248.157 563.449ZM275.807 558.126V546.536C275.807 545.668 275.649 544.919 275.335 544.29C275.021 543.661 274.541 543.174 273.897 542.83C273.269 542.486 272.475 542.313 271.517 542.313C270.633 542.313 269.869 542.463 269.226 542.763C268.582 543.062 268.08 543.466 267.721 543.976C267.361 544.485 267.182 545.061 267.182 545.705H261.791C261.791 544.747 262.023 543.818 262.487 542.92C262.951 542.021 263.625 541.22 264.509 540.517C265.392 539.813 266.448 539.259 267.676 538.854C268.904 538.45 270.281 538.248 271.809 538.248C273.635 538.248 275.253 538.555 276.66 539.169C278.083 539.783 279.198 540.711 280.007 541.954C280.83 543.182 281.242 544.724 281.242 546.581V557.385C281.242 558.493 281.317 559.489 281.467 560.372C281.632 561.241 281.864 561.997 282.163 562.641V563H276.615C276.361 562.416 276.159 561.675 276.009 560.776C275.874 559.863 275.807 558.979 275.807 558.126ZM276.593 548.221L276.638 551.567H272.752C271.749 551.567 270.865 551.665 270.102 551.859C269.338 552.039 268.701 552.309 268.192 552.668C267.683 553.027 267.301 553.462 267.047 553.971C266.792 554.48 266.665 555.056 266.665 555.7C266.665 556.344 266.815 556.936 267.114 557.475C267.414 557.999 267.848 558.41 268.417 558.71C269.001 559.009 269.705 559.159 270.528 559.159C271.636 559.159 272.602 558.935 273.426 558.485C274.264 558.021 274.923 557.46 275.402 556.801C275.882 556.127 276.136 555.491 276.166 554.892L277.918 557.295C277.738 557.909 277.431 558.568 276.997 559.271C276.563 559.975 275.994 560.649 275.29 561.293C274.601 561.922 273.77 562.438 272.797 562.843C271.839 563.247 270.73 563.449 269.473 563.449C267.885 563.449 266.47 563.135 265.228 562.506C263.985 561.862 263.011 561.001 262.308 559.923C261.604 558.83 261.252 557.594 261.252 556.217C261.252 554.929 261.492 553.791 261.971 552.803C262.465 551.799 263.184 550.961 264.127 550.287C265.085 549.613 266.253 549.104 267.631 548.76C269.008 548.4 270.581 548.221 272.348 548.221H276.593ZM292.338 543.324V563H286.925V538.697H292.091L292.338 543.324ZM299.772 538.54L299.728 543.571C299.398 543.511 299.039 543.466 298.649 543.437C298.275 543.407 297.901 543.392 297.526 543.392C296.598 543.392 295.782 543.526 295.078 543.796C294.374 544.05 293.783 544.425 293.304 544.919C292.84 545.398 292.48 545.982 292.226 546.671C291.971 547.36 291.821 548.131 291.776 548.984L290.541 549.074C290.541 547.547 290.691 546.132 290.99 544.829C291.29 543.526 291.739 542.381 292.338 541.393C292.952 540.404 293.715 539.633 294.629 539.079C295.557 538.525 296.628 538.248 297.841 538.248C298.17 538.248 298.522 538.278 298.896 538.338C299.286 538.398 299.578 538.465 299.772 538.54ZM308.959 538.697V563H303.523V538.697H308.959ZM303.164 532.318C303.164 531.495 303.434 530.813 303.973 530.274C304.527 529.72 305.29 529.443 306.264 529.443C307.222 529.443 307.978 529.72 308.532 530.274C309.086 530.813 309.363 531.495 309.363 532.318C309.363 533.127 309.086 533.801 308.532 534.34C307.978 534.879 307.222 535.148 306.264 535.148C305.29 535.148 304.527 534.879 303.973 534.34C303.434 533.801 303.164 533.127 303.164 532.318ZM320.257 543.886V563H314.844V538.697H319.942L320.257 543.886ZM319.291 549.95L317.539 549.928C317.554 548.206 317.794 546.626 318.258 545.188C318.737 543.751 319.396 542.516 320.234 541.482C321.088 540.449 322.106 539.656 323.289 539.102C324.472 538.533 325.79 538.248 327.242 538.248C328.41 538.248 329.466 538.413 330.409 538.742C331.368 539.057 332.184 539.573 332.857 540.292C333.546 541.011 334.07 541.947 334.43 543.1C334.789 544.238 334.969 545.638 334.969 547.3V563H329.533V547.277C329.533 546.109 329.361 545.188 329.017 544.515C328.687 543.826 328.201 543.339 327.557 543.055C326.928 542.755 326.142 542.605 325.198 542.605C324.27 542.605 323.439 542.8 322.705 543.189C321.971 543.579 321.35 544.11 320.841 544.784C320.347 545.458 319.965 546.237 319.695 547.12C319.426 548.004 319.291 548.947 319.291 549.95ZM356.06 538.697H360.979V562.326C360.979 564.512 360.514 566.369 359.586 567.896C358.658 569.424 357.362 570.584 355.7 571.378C354.038 572.187 352.114 572.591 349.928 572.591C348.999 572.591 347.966 572.456 346.828 572.187C345.705 571.917 344.612 571.483 343.549 570.884C342.501 570.3 341.625 569.529 340.921 568.57L343.459 565.381C344.327 566.414 345.286 567.17 346.334 567.649C347.382 568.129 348.483 568.368 349.636 568.368C350.879 568.368 351.934 568.136 352.803 567.672C353.686 567.223 354.368 566.556 354.847 565.673C355.326 564.789 355.565 563.711 355.565 562.438V544.2L356.06 538.697ZM339.551 551.118V550.646C339.551 548.805 339.775 547.128 340.225 545.615C340.674 544.088 341.318 542.778 342.156 541.685C342.995 540.576 344.013 539.73 345.211 539.146C346.409 538.548 347.764 538.248 349.276 538.248C350.849 538.248 352.189 538.533 353.297 539.102C354.42 539.671 355.356 540.487 356.104 541.55C356.853 542.598 357.437 543.856 357.856 545.323C358.291 546.776 358.613 548.393 358.822 550.175V551.68C358.628 553.417 358.298 555.004 357.834 556.441C357.37 557.879 356.756 559.122 355.992 560.17C355.229 561.218 354.285 562.027 353.162 562.596C352.054 563.165 350.744 563.449 349.231 563.449C347.749 563.449 346.409 563.142 345.211 562.528C344.028 561.914 343.01 561.053 342.156 559.945C341.318 558.837 340.674 557.535 340.225 556.037C339.775 554.525 339.551 552.885 339.551 551.118ZM344.964 550.646V551.118C344.964 552.226 345.069 553.259 345.278 554.218C345.503 555.176 345.84 556.022 346.289 556.756C346.753 557.475 347.337 558.044 348.041 558.463C348.76 558.867 349.606 559.069 350.579 559.069C351.852 559.069 352.893 558.8 353.701 558.261C354.525 557.722 355.154 556.995 355.588 556.082C356.037 555.154 356.352 554.12 356.531 552.982V548.917C356.441 548.034 356.254 547.21 355.97 546.446C355.7 545.683 355.333 545.016 354.869 544.447C354.405 543.863 353.821 543.414 353.117 543.1C352.413 542.77 351.582 542.605 350.624 542.605C349.651 542.605 348.805 542.815 348.086 543.234C347.367 543.654 346.776 544.23 346.312 544.964C345.862 545.698 345.525 546.551 345.301 547.524C345.076 548.498 344.964 549.538 344.964 550.646ZM404.53 530.297V563H398.893L384.226 539.573V563H378.588V530.297H384.226L398.938 553.769V530.297H404.53ZM409.674 551.118V550.602C409.674 548.85 409.928 547.225 410.438 545.728C410.947 544.215 411.68 542.905 412.639 541.797C413.612 540.674 414.795 539.805 416.188 539.191C417.595 538.562 419.182 538.248 420.949 538.248C422.731 538.248 424.318 538.562 425.711 539.191C427.118 539.805 428.309 540.674 429.282 541.797C430.256 542.905 430.997 544.215 431.506 545.728C432.015 547.225 432.27 548.85 432.27 550.602V551.118C432.27 552.87 432.015 554.495 431.506 555.992C430.997 557.49 430.256 558.8 429.282 559.923C428.309 561.031 427.126 561.899 425.733 562.528C424.341 563.142 422.761 563.449 420.994 563.449C419.212 563.449 417.618 563.142 416.21 562.528C414.817 561.899 413.634 561.031 412.661 559.923C411.688 558.8 410.947 557.49 410.438 555.992C409.928 554.495 409.674 552.87 409.674 551.118ZM415.087 550.602V551.118C415.087 552.211 415.199 553.244 415.424 554.218C415.648 555.191 416 556.045 416.479 556.778C416.959 557.512 417.573 558.089 418.321 558.508C419.07 558.927 419.961 559.137 420.994 559.137C421.997 559.137 422.866 558.927 423.6 558.508C424.348 558.089 424.962 557.512 425.441 556.778C425.921 556.045 426.272 555.191 426.497 554.218C426.737 553.244 426.856 552.211 426.856 551.118V550.602C426.856 549.523 426.737 548.505 426.497 547.547C426.272 546.574 425.913 545.713 425.419 544.964C424.94 544.215 424.326 543.631 423.577 543.212C422.843 542.778 421.967 542.561 420.949 542.561C419.931 542.561 419.048 542.778 418.299 543.212C417.565 543.631 416.959 544.215 416.479 544.964C416 545.713 415.648 546.574 415.424 547.547C415.199 548.505 415.087 549.523 415.087 550.602ZM447.947 538.697V542.65H434.246V538.697H447.947ZM438.199 532.745H443.612V556.284C443.612 557.033 443.717 557.609 443.927 558.014C444.151 558.403 444.458 558.665 444.848 558.8C445.237 558.935 445.694 559.002 446.218 559.002C446.592 559.002 446.951 558.979 447.296 558.935C447.64 558.89 447.917 558.845 448.127 558.8L448.149 562.933C447.7 563.067 447.176 563.187 446.577 563.292C445.993 563.397 445.319 563.449 444.556 563.449C443.313 563.449 442.212 563.232 441.254 562.798C440.296 562.349 439.547 561.622 439.008 560.619C438.469 559.616 438.199 558.283 438.199 556.621V532.745ZM457.92 538.697V563H452.484V538.697H457.92ZM452.125 532.318C452.125 531.495 452.395 530.813 452.934 530.274C453.488 529.72 454.251 529.443 455.225 529.443C456.183 529.443 456.939 529.72 457.493 530.274C458.047 530.813 458.324 531.495 458.324 532.318C458.324 533.127 458.047 533.801 457.493 534.34C456.939 534.879 456.183 535.148 455.225 535.148C454.251 535.148 453.488 534.879 452.934 534.34C452.395 533.801 452.125 533.127 452.125 532.318ZM473.777 559.137C474.661 559.137 475.454 558.965 476.158 558.62C476.877 558.261 477.453 557.767 477.888 557.138C478.337 556.509 478.584 555.783 478.629 554.959H483.728C483.698 556.531 483.233 557.961 482.335 559.249C481.437 560.537 480.246 561.562 478.764 562.326C477.281 563.075 475.642 563.449 473.845 563.449C471.988 563.449 470.371 563.135 468.993 562.506C467.616 561.862 466.47 560.979 465.557 559.855C464.643 558.732 463.954 557.437 463.49 555.97C463.041 554.502 462.816 552.93 462.816 551.253V550.467C462.816 548.79 463.041 547.217 463.49 545.75C463.954 544.268 464.643 542.965 465.557 541.842C466.47 540.719 467.616 539.843 468.993 539.214C470.371 538.57 471.98 538.248 473.822 538.248C475.769 538.248 477.476 538.637 478.943 539.416C480.411 540.18 481.564 541.25 482.402 542.628C483.256 543.991 483.698 545.578 483.728 547.39H478.629C478.584 546.491 478.359 545.683 477.955 544.964C477.566 544.23 477.012 543.646 476.293 543.212C475.589 542.778 474.743 542.561 473.755 542.561C472.662 542.561 471.756 542.785 471.037 543.234C470.318 543.669 469.757 544.268 469.353 545.031C468.948 545.78 468.656 546.626 468.477 547.569C468.312 548.498 468.229 549.464 468.229 550.467V551.253C468.229 552.256 468.312 553.229 468.477 554.173C468.641 555.116 468.926 555.962 469.33 556.711C469.749 557.445 470.318 558.036 471.037 558.485C471.756 558.92 472.669 559.137 473.777 559.137ZM498.597 563.449C496.8 563.449 495.175 563.157 493.723 562.573C492.285 561.974 491.057 561.143 490.039 560.08C489.036 559.017 488.265 557.767 487.726 556.329C487.187 554.892 486.917 553.342 486.917 551.68V550.781C486.917 548.88 487.194 547.158 487.748 545.615C488.302 544.073 489.073 542.755 490.062 541.662C491.05 540.554 492.218 539.708 493.565 539.124C494.913 538.54 496.373 538.248 497.945 538.248C499.682 538.248 501.202 538.54 502.505 539.124C503.808 539.708 504.886 540.532 505.739 541.595C506.608 542.643 507.252 543.893 507.671 545.346C508.105 546.798 508.322 548.4 508.322 550.152V552.466H489.545V548.58H502.977V548.153C502.947 547.18 502.752 546.267 502.393 545.413C502.048 544.56 501.517 543.871 500.798 543.347C500.079 542.823 499.121 542.561 497.923 542.561C497.024 542.561 496.223 542.755 495.52 543.145C494.831 543.519 494.254 544.065 493.79 544.784C493.326 545.503 492.966 546.371 492.712 547.39C492.472 548.393 492.353 549.523 492.353 550.781V551.68C492.353 552.743 492.495 553.731 492.779 554.645C493.079 555.543 493.513 556.329 494.082 557.003C494.651 557.677 495.34 558.208 496.148 558.598C496.957 558.972 497.878 559.159 498.911 559.159C500.214 559.159 501.374 558.897 502.393 558.373C503.411 557.849 504.294 557.108 505.043 556.149L507.896 558.912C507.371 559.676 506.69 560.41 505.852 561.113C505.013 561.802 503.987 562.364 502.774 562.798C501.576 563.232 500.184 563.449 498.597 563.449Z" fill="#1C4670"/>
<path d="M205.324 1163.3H216.892C219.377 1163.3 221.496 1163.67 223.248 1164.42C225 1165.17 226.34 1166.28 227.269 1167.74C228.212 1169.2 228.684 1170.99 228.684 1173.13C228.684 1174.77 228.384 1176.2 227.785 1177.45C227.186 1178.69 226.34 1179.74 225.247 1180.59C224.154 1181.43 222.851 1182.08 221.339 1182.55L219.632 1183.38H209.232L209.188 1178.91H216.981C218.329 1178.91 219.452 1178.67 220.351 1178.19C221.249 1177.71 221.923 1177.06 222.372 1176.23C222.836 1175.4 223.068 1174.45 223.068 1173.4C223.068 1172.27 222.844 1171.28 222.395 1170.44C221.96 1169.59 221.286 1168.93 220.373 1168.49C219.46 1168.02 218.299 1167.79 216.892 1167.79H210.962V1196H205.324V1163.3ZM223.989 1196L216.308 1181.31L222.215 1181.29L230.009 1195.71V1196H223.989ZM244.474 1196.45C242.677 1196.45 241.052 1196.16 239.6 1195.57C238.162 1194.97 236.934 1194.14 235.916 1193.08C234.913 1192.02 234.142 1190.77 233.603 1189.33C233.063 1187.89 232.794 1186.34 232.794 1184.68V1183.78C232.794 1181.88 233.071 1180.16 233.625 1178.62C234.179 1177.07 234.95 1175.76 235.938 1174.66C236.927 1173.55 238.095 1172.71 239.442 1172.12C240.79 1171.54 242.25 1171.25 243.822 1171.25C245.559 1171.25 247.079 1171.54 248.382 1172.12C249.685 1172.71 250.763 1173.53 251.616 1174.59C252.485 1175.64 253.129 1176.89 253.548 1178.35C253.982 1179.8 254.199 1181.4 254.199 1183.15V1185.47H235.422V1181.58H248.854V1181.15C248.824 1180.18 248.629 1179.27 248.27 1178.41C247.925 1177.56 247.394 1176.87 246.675 1176.35C245.956 1175.82 244.998 1175.56 243.8 1175.56C242.901 1175.56 242.1 1175.76 241.396 1176.14C240.708 1176.52 240.131 1177.07 239.667 1177.78C239.203 1178.5 238.843 1179.37 238.589 1180.39C238.349 1181.39 238.229 1182.52 238.229 1183.78V1184.68C238.229 1185.74 238.372 1186.73 238.656 1187.64C238.956 1188.54 239.39 1189.33 239.959 1190C240.528 1190.68 241.217 1191.21 242.025 1191.6C242.834 1191.97 243.755 1192.16 244.788 1192.16C246.091 1192.16 247.251 1191.9 248.27 1191.37C249.288 1190.85 250.171 1190.11 250.92 1189.15L253.772 1191.91C253.248 1192.68 252.567 1193.41 251.729 1194.11C250.89 1194.8 249.864 1195.36 248.651 1195.8C247.453 1196.23 246.061 1196.45 244.474 1196.45ZM273.987 1171.7H278.906V1195.33C278.906 1197.51 278.442 1199.37 277.514 1200.9C276.585 1202.42 275.29 1203.58 273.628 1204.38C271.966 1205.19 270.042 1205.59 267.855 1205.59C266.927 1205.59 265.894 1205.46 264.756 1205.19C263.633 1204.92 262.54 1204.48 261.477 1203.88C260.428 1203.3 259.552 1202.53 258.849 1201.57L261.387 1198.38C262.255 1199.41 263.214 1200.17 264.262 1200.65C265.31 1201.13 266.41 1201.37 267.563 1201.37C268.806 1201.37 269.862 1201.14 270.73 1200.67C271.614 1200.22 272.295 1199.56 272.774 1198.67C273.254 1197.79 273.493 1196.71 273.493 1195.44V1177.2L273.987 1171.7ZM257.479 1184.12V1183.65C257.479 1181.8 257.703 1180.13 258.152 1178.62C258.602 1177.09 259.245 1175.78 260.084 1174.68C260.923 1173.58 261.941 1172.73 263.139 1172.15C264.337 1171.55 265.692 1171.25 267.204 1171.25C268.776 1171.25 270.117 1171.53 271.225 1172.1C272.348 1172.67 273.284 1173.49 274.032 1174.55C274.781 1175.6 275.365 1176.86 275.784 1178.32C276.218 1179.78 276.54 1181.39 276.75 1183.17V1184.68C276.555 1186.42 276.226 1188 275.762 1189.44C275.298 1190.88 274.684 1192.12 273.92 1193.17C273.156 1194.22 272.213 1195.03 271.09 1195.6C269.982 1196.16 268.672 1196.45 267.159 1196.45C265.677 1196.45 264.337 1196.14 263.139 1195.53C261.956 1194.91 260.938 1194.05 260.084 1192.95C259.245 1191.84 258.602 1190.53 258.152 1189.04C257.703 1187.52 257.479 1185.89 257.479 1184.12ZM262.892 1183.65V1184.12C262.892 1185.23 262.996 1186.26 263.206 1187.22C263.431 1188.18 263.768 1189.02 264.217 1189.76C264.681 1190.47 265.265 1191.04 265.969 1191.46C266.688 1191.87 267.534 1192.07 268.507 1192.07C269.78 1192.07 270.82 1191.8 271.629 1191.26C272.452 1190.72 273.081 1190 273.516 1189.08C273.965 1188.15 274.279 1187.12 274.459 1185.98V1181.92C274.369 1181.03 274.182 1180.21 273.897 1179.45C273.628 1178.68 273.261 1178.02 272.797 1177.45C272.333 1176.86 271.749 1176.41 271.045 1176.1C270.341 1175.77 269.51 1175.61 268.552 1175.61C267.578 1175.61 266.732 1175.82 266.014 1176.23C265.295 1176.65 264.703 1177.23 264.239 1177.96C263.79 1178.7 263.453 1179.55 263.229 1180.52C263.004 1181.5 262.892 1182.54 262.892 1183.65ZM290.316 1171.7V1196H284.881V1171.7H290.316ZM284.521 1165.32C284.521 1164.49 284.791 1163.81 285.33 1163.27C285.884 1162.72 286.648 1162.44 287.621 1162.44C288.579 1162.44 289.336 1162.72 289.89 1163.27C290.444 1163.81 290.721 1164.49 290.721 1165.32C290.721 1166.13 290.444 1166.8 289.89 1167.34C289.336 1167.88 288.579 1168.15 287.621 1168.15C286.648 1168.15 285.884 1167.88 285.33 1167.34C284.791 1166.8 284.521 1166.13 284.521 1165.32ZM309.88 1189.42C309.88 1188.88 309.745 1188.39 309.476 1187.96C309.206 1187.51 308.689 1187.11 307.926 1186.75C307.177 1186.39 306.069 1186.06 304.602 1185.76C303.314 1185.47 302.131 1185.14 301.053 1184.75C299.99 1184.34 299.076 1183.86 298.312 1183.29C297.549 1182.72 296.957 1182.04 296.538 1181.27C296.119 1180.49 295.909 1179.59 295.909 1178.57C295.909 1177.58 296.126 1176.65 296.561 1175.76C296.995 1174.88 297.616 1174.1 298.425 1173.43C299.233 1172.75 300.214 1172.22 301.367 1171.83C302.535 1171.44 303.838 1171.25 305.275 1171.25C307.312 1171.25 309.056 1171.59 310.509 1172.28C311.976 1172.96 313.099 1173.88 313.878 1175.04C314.657 1176.2 315.046 1177.5 315.046 1178.95H309.633C309.633 1178.31 309.468 1177.71 309.139 1177.16C308.824 1176.59 308.345 1176.13 307.701 1175.79C307.057 1175.43 306.249 1175.25 305.275 1175.25C304.347 1175.25 303.576 1175.4 302.962 1175.7C302.363 1175.98 301.914 1176.35 301.614 1176.82C301.33 1177.28 301.188 1177.79 301.188 1178.35C301.188 1178.75 301.262 1179.12 301.412 1179.45C301.577 1179.76 301.846 1180.05 302.221 1180.32C302.595 1180.58 303.104 1180.82 303.748 1181.04C304.407 1181.27 305.23 1181.48 306.219 1181.69C308.076 1182.08 309.67 1182.58 311.003 1183.2C312.351 1183.8 313.384 1184.57 314.103 1185.53C314.821 1186.48 315.181 1187.67 315.181 1189.13C315.181 1190.21 314.949 1191.19 314.484 1192.09C314.035 1192.98 313.376 1193.75 312.508 1194.41C311.639 1195.05 310.599 1195.55 309.386 1195.91C308.188 1196.27 306.84 1196.45 305.343 1196.45C303.142 1196.45 301.277 1196.06 299.75 1195.28C298.223 1194.49 297.062 1193.48 296.269 1192.25C295.49 1191.01 295.101 1189.72 295.101 1188.39H300.334C300.394 1189.39 300.671 1190.19 301.165 1190.79C301.674 1191.37 302.303 1191.8 303.052 1192.07C303.815 1192.32 304.602 1192.45 305.41 1192.45C306.383 1192.45 307.2 1192.32 307.858 1192.07C308.517 1191.8 309.019 1191.44 309.363 1190.99C309.708 1190.53 309.88 1190 309.88 1189.42ZM331.061 1171.7V1175.65H317.359V1171.7H331.061ZM321.312 1165.75H326.726V1189.28C326.726 1190.03 326.83 1190.61 327.04 1191.01C327.265 1191.4 327.572 1191.67 327.961 1191.8C328.35 1191.93 328.807 1192 329.331 1192C329.705 1192 330.065 1191.98 330.409 1191.93C330.754 1191.89 331.031 1191.84 331.24 1191.8L331.263 1195.93C330.813 1196.07 330.289 1196.19 329.69 1196.29C329.106 1196.4 328.433 1196.45 327.669 1196.45C326.426 1196.45 325.326 1196.23 324.367 1195.8C323.409 1195.35 322.66 1194.62 322.121 1193.62C321.582 1192.62 321.312 1191.28 321.312 1189.62V1165.75ZM340.674 1176.32V1196H335.261V1171.7H340.427L340.674 1176.32ZM348.108 1171.54L348.063 1176.57C347.734 1176.51 347.375 1176.47 346.985 1176.44C346.611 1176.41 346.237 1176.39 345.862 1176.39C344.934 1176.39 344.118 1176.53 343.414 1176.8C342.71 1177.05 342.119 1177.42 341.64 1177.92C341.175 1178.4 340.816 1178.98 340.562 1179.67C340.307 1180.36 340.157 1181.13 340.112 1181.98L338.877 1182.07C338.877 1180.55 339.027 1179.13 339.326 1177.83C339.626 1176.53 340.075 1175.38 340.674 1174.39C341.288 1173.4 342.051 1172.63 342.965 1172.08C343.893 1171.53 344.964 1171.25 346.177 1171.25C346.506 1171.25 346.858 1171.28 347.232 1171.34C347.622 1171.4 347.914 1171.47 348.108 1171.54ZM364.393 1191.13V1179.54C364.393 1178.67 364.235 1177.92 363.921 1177.29C363.606 1176.66 363.127 1176.17 362.483 1175.83C361.854 1175.49 361.061 1175.31 360.103 1175.31C359.219 1175.31 358.455 1175.46 357.812 1175.76C357.168 1176.06 356.666 1176.47 356.307 1176.98C355.947 1177.48 355.768 1178.06 355.768 1178.71H350.377C350.377 1177.75 350.609 1176.82 351.073 1175.92C351.537 1175.02 352.211 1174.22 353.095 1173.52C353.978 1172.81 355.034 1172.26 356.262 1171.85C357.49 1171.45 358.867 1171.25 360.395 1171.25C362.221 1171.25 363.839 1171.56 365.246 1172.17C366.669 1172.78 367.784 1173.71 368.593 1174.95C369.416 1176.18 369.828 1177.72 369.828 1179.58V1190.38C369.828 1191.49 369.903 1192.49 370.053 1193.37C370.217 1194.24 370.45 1195 370.749 1195.64V1196H365.201C364.947 1195.42 364.744 1194.67 364.595 1193.78C364.46 1192.86 364.393 1191.98 364.393 1191.13ZM365.179 1181.22L365.224 1184.57H361.338C360.335 1184.57 359.451 1184.66 358.688 1184.86C357.924 1185.04 357.287 1185.31 356.778 1185.67C356.269 1186.03 355.887 1186.46 355.633 1186.97C355.378 1187.48 355.251 1188.06 355.251 1188.7C355.251 1189.34 355.401 1189.94 355.7 1190.47C356 1191 356.434 1191.41 357.003 1191.71C357.587 1192.01 358.291 1192.16 359.114 1192.16C360.222 1192.16 361.188 1191.93 362.012 1191.49C362.85 1191.02 363.509 1190.46 363.988 1189.8C364.467 1189.13 364.722 1188.49 364.752 1187.89L366.504 1190.29C366.324 1190.91 366.017 1191.57 365.583 1192.27C365.149 1192.98 364.58 1193.65 363.876 1194.29C363.187 1194.92 362.356 1195.44 361.383 1195.84C360.424 1196.25 359.316 1196.45 358.059 1196.45C356.471 1196.45 355.056 1196.13 353.813 1195.51C352.571 1194.86 351.597 1194 350.894 1192.92C350.19 1191.83 349.838 1190.59 349.838 1189.22C349.838 1187.93 350.077 1186.79 350.557 1185.8C351.051 1184.8 351.77 1183.96 352.713 1183.29C353.671 1182.61 354.839 1182.1 356.217 1181.76C357.594 1181.4 359.167 1181.22 360.934 1181.22H365.179ZM380.924 1176.32V1196H375.511V1171.7H380.677L380.924 1176.32ZM388.358 1171.54L388.313 1176.57C387.984 1176.51 387.625 1176.47 387.235 1176.44C386.861 1176.41 386.487 1176.39 386.112 1176.39C385.184 1176.39 384.368 1176.53 383.664 1176.8C382.96 1177.05 382.369 1177.42 381.89 1177.92C381.425 1178.4 381.066 1178.98 380.812 1179.67C380.557 1180.36 380.407 1181.13 380.362 1181.98L379.127 1182.07C379.127 1180.55 379.277 1179.13 379.576 1177.83C379.876 1176.53 380.325 1175.38 380.924 1174.39C381.538 1173.4 382.301 1172.63 383.215 1172.08C384.143 1171.53 385.214 1171.25 386.427 1171.25C386.756 1171.25 387.108 1171.28 387.482 1171.34C387.872 1171.4 388.164 1171.47 388.358 1171.54ZM395.276 1161.5V1164.4L394.692 1173.04H391.166L391.188 1164.76V1161.5H395.276ZM411.583 1189.42C411.583 1188.88 411.448 1188.39 411.179 1187.96C410.909 1187.51 410.393 1187.11 409.629 1186.75C408.88 1186.39 407.772 1186.06 406.305 1185.76C405.017 1185.47 403.834 1185.14 402.756 1184.75C401.693 1184.34 400.779 1183.86 400.016 1183.29C399.252 1182.72 398.66 1182.04 398.241 1181.27C397.822 1180.49 397.612 1179.59 397.612 1178.57C397.612 1177.58 397.829 1176.65 398.264 1175.76C398.698 1174.88 399.319 1174.1 400.128 1173.43C400.937 1172.75 401.917 1172.22 403.07 1171.83C404.238 1171.44 405.541 1171.25 406.979 1171.25C409.015 1171.25 410.759 1171.59 412.212 1172.28C413.679 1172.96 414.802 1173.88 415.581 1175.04C416.36 1176.2 416.749 1177.5 416.749 1178.95H411.336C411.336 1178.31 411.171 1177.71 410.842 1177.16C410.527 1176.59 410.048 1176.13 409.404 1175.79C408.76 1175.43 407.952 1175.25 406.979 1175.25C406.05 1175.25 405.279 1175.4 404.665 1175.7C404.066 1175.98 403.617 1176.35 403.317 1176.82C403.033 1177.28 402.891 1177.79 402.891 1178.35C402.891 1178.75 402.965 1179.12 403.115 1179.45C403.28 1179.76 403.549 1180.05 403.924 1180.32C404.298 1180.58 404.807 1180.82 405.451 1181.04C406.11 1181.27 406.934 1181.48 407.922 1181.69C409.779 1182.08 411.373 1182.58 412.706 1183.2C414.054 1183.8 415.087 1184.57 415.806 1185.53C416.524 1186.48 416.884 1187.67 416.884 1189.13C416.884 1190.21 416.652 1191.19 416.188 1192.09C415.738 1192.98 415.079 1193.75 414.211 1194.41C413.342 1195.05 412.302 1195.55 411.089 1195.91C409.891 1196.27 408.543 1196.45 407.046 1196.45C404.845 1196.45 402.98 1196.06 401.453 1195.28C399.926 1194.49 398.765 1193.48 397.972 1192.25C397.193 1191.01 396.804 1189.72 396.804 1188.39H402.037C402.097 1189.39 402.374 1190.19 402.868 1190.79C403.377 1191.37 404.006 1191.8 404.755 1192.07C405.519 1192.32 406.305 1192.45 407.113 1192.45C408.087 1192.45 408.903 1192.32 409.562 1192.07C410.22 1191.8 410.722 1191.44 411.066 1190.99C411.411 1190.53 411.583 1190 411.583 1189.42ZM443.118 1196H436.133L436.178 1191.53H443.118C445.14 1191.53 446.832 1191.09 448.194 1190.21C449.572 1189.32 450.605 1188.06 451.294 1186.41C451.998 1184.76 452.35 1182.8 452.35 1180.52V1178.75C452.35 1176.98 452.147 1175.42 451.743 1174.06C451.354 1172.69 450.77 1171.55 449.991 1170.62C449.228 1169.69 448.284 1168.99 447.161 1168.51C446.053 1168.03 444.773 1167.79 443.32 1167.79H435.998V1163.3H443.32C445.492 1163.3 447.476 1163.66 449.272 1164.4C451.069 1165.12 452.619 1166.16 453.922 1167.52C455.24 1168.88 456.25 1170.51 456.954 1172.42C457.658 1174.32 458.01 1176.44 458.01 1178.79V1180.52C458.01 1182.88 457.658 1185 456.954 1186.9C456.25 1188.81 455.24 1190.44 453.922 1191.8C452.604 1193.15 451.032 1194.19 449.205 1194.92C447.393 1195.64 445.364 1196 443.118 1196ZM439.255 1163.3V1196H433.617V1163.3H439.255ZM473.845 1196.45C472.048 1196.45 470.423 1196.16 468.971 1195.57C467.533 1194.97 466.305 1194.14 465.287 1193.08C464.284 1192.02 463.513 1190.77 462.974 1189.33C462.435 1187.89 462.165 1186.34 462.165 1184.68V1183.78C462.165 1181.88 462.442 1180.16 462.996 1178.62C463.55 1177.07 464.321 1175.76 465.31 1174.66C466.298 1173.55 467.466 1172.71 468.813 1172.12C470.161 1171.54 471.621 1171.25 473.193 1171.25C474.93 1171.25 476.45 1171.54 477.753 1172.12C479.056 1172.71 480.134 1173.53 480.987 1174.59C481.856 1175.64 482.5 1176.89 482.919 1178.35C483.353 1179.8 483.57 1181.4 483.57 1183.15V1185.47H464.793V1181.58H478.225V1181.15C478.195 1180.18 478 1179.27 477.641 1178.41C477.296 1177.56 476.765 1176.87 476.046 1176.35C475.327 1175.82 474.369 1175.56 473.171 1175.56C472.272 1175.56 471.471 1175.76 470.768 1176.14C470.079 1176.52 469.502 1177.07 469.038 1177.78C468.574 1178.5 468.215 1179.37 467.96 1180.39C467.72 1181.39 467.601 1182.52 467.601 1183.78V1184.68C467.601 1185.74 467.743 1186.73 468.027 1187.64C468.327 1188.54 468.761 1189.33 469.33 1190C469.899 1190.68 470.588 1191.21 471.396 1191.6C472.205 1191.97 473.126 1192.16 474.159 1192.16C475.462 1192.16 476.622 1191.9 477.641 1191.37C478.659 1190.85 479.542 1190.11 480.291 1189.15L483.144 1191.91C482.619 1192.68 481.938 1193.41 481.1 1194.11C480.261 1194.8 479.235 1195.36 478.022 1195.8C476.825 1196.23 475.432 1196.45 473.845 1196.45ZM497.721 1192.14C498.604 1192.14 499.398 1191.96 500.102 1191.62C500.82 1191.26 501.397 1190.77 501.831 1190.14C502.28 1189.51 502.527 1188.78 502.572 1187.96H507.671C507.641 1189.53 507.177 1190.96 506.278 1192.25C505.38 1193.54 504.189 1194.56 502.707 1195.33C501.225 1196.07 499.585 1196.45 497.788 1196.45C495.931 1196.45 494.314 1196.13 492.937 1195.51C491.559 1194.86 490.413 1193.98 489.5 1192.86C488.587 1191.73 487.898 1190.44 487.434 1188.97C486.984 1187.5 486.76 1185.93 486.76 1184.25V1183.47C486.76 1181.79 486.984 1180.22 487.434 1178.75C487.898 1177.27 488.587 1175.96 489.5 1174.84C490.413 1173.72 491.559 1172.84 492.937 1172.21C494.314 1171.57 495.924 1171.25 497.766 1171.25C499.712 1171.25 501.419 1171.64 502.887 1172.42C504.354 1173.18 505.507 1174.25 506.346 1175.63C507.199 1176.99 507.641 1178.58 507.671 1180.39H502.572C502.527 1179.49 502.303 1178.68 501.898 1177.96C501.509 1177.23 500.955 1176.65 500.236 1176.21C499.533 1175.78 498.687 1175.56 497.698 1175.56C496.605 1175.56 495.699 1175.79 494.98 1176.23C494.262 1176.67 493.7 1177.27 493.296 1178.03C492.892 1178.78 492.6 1179.63 492.42 1180.57C492.255 1181.5 492.173 1182.46 492.173 1183.47V1184.25C492.173 1185.26 492.255 1186.23 492.42 1187.17C492.585 1188.12 492.869 1188.96 493.273 1189.71C493.693 1190.44 494.262 1191.04 494.98 1191.49C495.699 1191.92 496.613 1192.14 497.721 1192.14ZM517.621 1171.7V1196H512.186V1171.7H517.621ZM511.826 1165.32C511.826 1164.49 512.096 1163.81 512.635 1163.27C513.189 1162.72 513.952 1162.44 514.926 1162.44C515.884 1162.44 516.64 1162.72 517.194 1163.27C517.748 1163.81 518.025 1164.49 518.025 1165.32C518.025 1166.13 517.748 1166.8 517.194 1167.34C516.64 1167.88 515.884 1168.15 514.926 1168.15C513.952 1168.15 513.189 1167.88 512.635 1167.34C512.096 1166.8 511.826 1166.13 511.826 1165.32ZM537.185 1189.42C537.185 1188.88 537.05 1188.39 536.78 1187.96C536.511 1187.51 535.994 1187.11 535.23 1186.75C534.482 1186.39 533.374 1186.06 531.906 1185.76C530.618 1185.47 529.436 1185.14 528.357 1184.75C527.294 1184.34 526.381 1183.86 525.617 1183.29C524.854 1182.72 524.262 1182.04 523.843 1181.27C523.424 1180.49 523.214 1179.59 523.214 1178.57C523.214 1177.58 523.431 1176.65 523.865 1175.76C524.299 1174.88 524.921 1174.1 525.729 1173.43C526.538 1172.75 527.519 1172.22 528.672 1171.83C529.84 1171.44 531.143 1171.25 532.58 1171.25C534.617 1171.25 536.361 1171.59 537.813 1172.28C539.281 1172.96 540.404 1173.88 541.183 1175.04C541.961 1176.2 542.351 1177.5 542.351 1178.95H536.938C536.938 1178.31 536.773 1177.71 536.443 1177.16C536.129 1176.59 535.65 1176.13 535.006 1175.79C534.362 1175.43 533.553 1175.25 532.58 1175.25C531.652 1175.25 530.881 1175.4 530.267 1175.7C529.668 1175.98 529.218 1176.35 528.919 1176.82C528.634 1177.28 528.492 1177.79 528.492 1178.35C528.492 1178.75 528.567 1179.12 528.717 1179.45C528.882 1179.76 529.151 1180.05 529.525 1180.32C529.9 1180.58 530.409 1180.82 531.053 1181.04C531.712 1181.27 532.535 1181.48 533.523 1181.69C535.38 1182.08 536.975 1182.58 538.308 1183.2C539.655 1183.8 540.688 1184.57 541.407 1185.53C542.126 1186.48 542.485 1187.67 542.485 1189.13C542.485 1190.21 542.253 1191.19 541.789 1192.09C541.34 1192.98 540.681 1193.75 539.812 1194.41C538.944 1195.05 537.903 1195.55 536.69 1195.91C535.493 1196.27 534.145 1196.45 532.647 1196.45C530.446 1196.45 528.582 1196.06 527.055 1195.28C525.527 1194.49 524.367 1193.48 523.573 1192.25C522.795 1191.01 522.405 1189.72 522.405 1188.39H527.639C527.699 1189.39 527.976 1190.19 528.47 1190.79C528.979 1191.37 529.608 1191.8 530.356 1192.07C531.12 1192.32 531.906 1192.45 532.715 1192.45C533.688 1192.45 534.504 1192.32 535.163 1192.07C535.822 1191.8 536.324 1191.44 536.668 1190.99C537.012 1190.53 537.185 1190 537.185 1189.42ZM553.02 1171.7V1196H547.584V1171.7H553.02ZM547.225 1165.32C547.225 1164.49 547.494 1163.81 548.033 1163.27C548.587 1162.72 549.351 1162.44 550.324 1162.44C551.283 1162.44 552.039 1162.72 552.593 1163.27C553.147 1163.81 553.424 1164.49 553.424 1165.32C553.424 1166.13 553.147 1166.8 552.593 1167.34C552.039 1167.88 551.283 1168.15 550.324 1168.15C549.351 1168.15 548.587 1167.88 548.033 1167.34C547.494 1166.8 547.225 1166.13 547.225 1165.32ZM557.916 1184.12V1183.6C557.916 1181.85 558.171 1180.22 558.68 1178.73C559.189 1177.22 559.923 1175.9 560.881 1174.8C561.854 1173.67 563.037 1172.81 564.43 1172.19C565.837 1171.56 567.424 1171.25 569.191 1171.25C570.973 1171.25 572.561 1171.56 573.953 1172.19C575.361 1172.81 576.551 1173.67 577.524 1174.8C578.498 1175.9 579.239 1177.22 579.748 1178.73C580.257 1180.22 580.512 1181.85 580.512 1183.6V1184.12C580.512 1185.87 580.257 1187.49 579.748 1188.99C579.239 1190.49 578.498 1191.8 577.524 1192.92C576.551 1194.03 575.368 1194.9 573.976 1195.53C572.583 1196.14 571.003 1196.45 569.236 1196.45C567.454 1196.45 565.86 1196.14 564.452 1195.53C563.06 1194.9 561.877 1194.03 560.903 1192.92C559.93 1191.8 559.189 1190.49 558.68 1188.99C558.171 1187.49 557.916 1185.87 557.916 1184.12ZM563.329 1183.6V1184.12C563.329 1185.21 563.441 1186.24 563.666 1187.22C563.891 1188.19 564.243 1189.04 564.722 1189.78C565.201 1190.51 565.815 1191.09 566.563 1191.51C567.312 1191.93 568.203 1192.14 569.236 1192.14C570.24 1192.14 571.108 1191.93 571.842 1191.51C572.59 1191.09 573.204 1190.51 573.684 1189.78C574.163 1189.04 574.515 1188.19 574.739 1187.22C574.979 1186.24 575.099 1185.21 575.099 1184.12V1183.6C575.099 1182.52 574.979 1181.51 574.739 1180.55C574.515 1179.57 574.155 1178.71 573.661 1177.96C573.182 1177.22 572.568 1176.63 571.819 1176.21C571.086 1175.78 570.21 1175.56 569.191 1175.56C568.173 1175.56 567.29 1175.78 566.541 1176.21C565.807 1176.63 565.201 1177.22 564.722 1177.96C564.243 1178.71 563.891 1179.57 563.666 1180.55C563.441 1181.51 563.329 1182.52 563.329 1183.6ZM590.417 1176.89V1196H585.004V1171.7H590.103L590.417 1176.89ZM589.451 1182.95L587.699 1182.93C587.714 1181.21 587.954 1179.63 588.418 1178.19C588.897 1176.75 589.556 1175.52 590.395 1174.48C591.248 1173.45 592.266 1172.66 593.449 1172.1C594.632 1171.53 595.95 1171.25 597.402 1171.25C598.57 1171.25 599.626 1171.41 600.569 1171.74C601.528 1172.06 602.344 1172.57 603.018 1173.29C603.706 1174.01 604.23 1174.95 604.59 1176.1C604.949 1177.24 605.129 1178.64 605.129 1180.3V1196H599.693V1180.28C599.693 1179.11 599.521 1178.19 599.177 1177.51C598.847 1176.83 598.361 1176.34 597.717 1176.05C597.088 1175.76 596.302 1175.61 595.358 1175.61C594.43 1175.61 593.599 1175.8 592.865 1176.19C592.132 1176.58 591.51 1177.11 591.001 1177.78C590.507 1178.46 590.125 1179.24 589.855 1180.12C589.586 1181 589.451 1181.95 589.451 1182.95Z" fill="#1C4670"/>
<path d="M226.729 769.53V774H209.367V769.53H226.729ZM210.962 741.297V774H205.324V741.297H210.962ZM224.461 754.953V759.355H209.367V754.953H224.461ZM226.617 741.297V745.789H209.367V741.297H226.617ZM238.117 769.71L244.069 749.697H249.685L241.239 774H237.735L238.117 769.71ZM233.558 749.697L239.622 769.8L239.914 774H236.41L227.92 749.697H233.558ZM258.826 749.697V774H253.391V749.697H258.826ZM253.031 743.318C253.031 742.495 253.301 741.813 253.84 741.274C254.394 740.72 255.158 740.443 256.131 740.443C257.089 740.443 257.845 740.72 258.399 741.274C258.953 741.813 259.23 742.495 259.23 743.318C259.23 744.127 258.953 744.801 258.399 745.34C257.845 745.879 257.089 746.148 256.131 746.148C255.158 746.148 254.394 745.879 253.84 745.34C253.301 744.801 253.031 744.127 253.031 743.318ZM279.58 768.969V739.5H285.016V774H280.097L279.58 768.969ZM263.768 762.118V761.646C263.768 759.805 263.985 758.128 264.419 756.615C264.853 755.088 265.482 753.778 266.306 752.685C267.129 751.576 268.132 750.73 269.315 750.146C270.498 749.548 271.831 749.248 273.313 749.248C274.781 749.248 276.069 749.533 277.177 750.102C278.285 750.671 279.228 751.487 280.007 752.55C280.785 753.598 281.407 754.856 281.871 756.323C282.335 757.776 282.665 759.393 282.859 761.175V762.68C282.665 764.417 282.335 766.004 281.871 767.441C281.407 768.879 280.785 770.122 280.007 771.17C279.228 772.218 278.277 773.027 277.154 773.596C276.046 774.165 274.751 774.449 273.269 774.449C271.801 774.449 270.476 774.142 269.293 773.528C268.125 772.914 267.129 772.053 266.306 770.945C265.482 769.837 264.853 768.535 264.419 767.037C263.985 765.525 263.768 763.885 263.768 762.118ZM269.181 761.646V762.118C269.181 763.226 269.278 764.259 269.473 765.218C269.682 766.176 270.004 767.022 270.438 767.756C270.873 768.475 271.434 769.044 272.123 769.463C272.827 769.867 273.665 770.069 274.639 770.069C275.867 770.069 276.877 769.8 277.671 769.261C278.465 768.722 279.086 767.995 279.535 767.082C279.999 766.154 280.314 765.12 280.479 763.982V759.917C280.389 759.034 280.201 758.21 279.917 757.446C279.647 756.683 279.281 756.016 278.816 755.447C278.352 754.863 277.776 754.414 277.087 754.1C276.413 753.77 275.612 753.605 274.684 753.605C273.695 753.605 272.857 753.815 272.168 754.234C271.479 754.654 270.91 755.23 270.461 755.964C270.027 756.698 269.705 757.551 269.495 758.524C269.285 759.498 269.181 760.538 269.181 761.646ZM301.39 774.449C299.593 774.449 297.968 774.157 296.516 773.573C295.078 772.974 293.85 772.143 292.832 771.08C291.829 770.017 291.058 768.767 290.519 767.329C289.979 765.892 289.71 764.342 289.71 762.68V761.781C289.71 759.88 289.987 758.158 290.541 756.615C291.095 755.073 291.866 753.755 292.854 752.662C293.843 751.554 295.011 750.708 296.358 750.124C297.706 749.54 299.166 749.248 300.738 749.248C302.475 749.248 303.995 749.54 305.298 750.124C306.601 750.708 307.679 751.532 308.532 752.595C309.401 753.643 310.045 754.893 310.464 756.346C310.898 757.798 311.115 759.4 311.115 761.152V763.466H292.338V759.58H305.77V759.153C305.74 758.18 305.545 757.267 305.186 756.413C304.841 755.56 304.31 754.871 303.591 754.347C302.872 753.823 301.914 753.561 300.716 753.561C299.817 753.561 299.016 753.755 298.312 754.145C297.624 754.519 297.047 755.065 296.583 755.784C296.119 756.503 295.759 757.371 295.505 758.39C295.265 759.393 295.146 760.523 295.146 761.781V762.68C295.146 763.743 295.288 764.731 295.572 765.645C295.872 766.543 296.306 767.329 296.875 768.003C297.444 768.677 298.133 769.208 298.941 769.598C299.75 769.972 300.671 770.159 301.704 770.159C303.007 770.159 304.167 769.897 305.186 769.373C306.204 768.849 307.087 768.108 307.836 767.149L310.688 769.912C310.164 770.676 309.483 771.41 308.645 772.113C307.806 772.802 306.78 773.364 305.567 773.798C304.369 774.232 302.977 774.449 301.39 774.449ZM320.706 754.886V774H315.293V749.697H320.392L320.706 754.886ZM319.74 760.95L317.988 760.928C318.003 759.206 318.243 757.626 318.707 756.188C319.186 754.751 319.845 753.516 320.684 752.482C321.537 751.449 322.555 750.656 323.738 750.102C324.921 749.533 326.239 749.248 327.691 749.248C328.859 749.248 329.915 749.413 330.858 749.742C331.817 750.057 332.633 750.573 333.307 751.292C333.995 752.011 334.52 752.947 334.879 754.1C335.238 755.238 335.418 756.638 335.418 758.3V774H329.982V758.277C329.982 757.109 329.81 756.188 329.466 755.515C329.136 754.826 328.65 754.339 328.006 754.055C327.377 753.755 326.591 753.605 325.647 753.605C324.719 753.605 323.888 753.8 323.154 754.189C322.421 754.579 321.799 755.11 321.29 755.784C320.796 756.458 320.414 757.237 320.145 758.12C319.875 759.004 319.74 759.947 319.74 760.95ZM350.871 770.137C351.755 770.137 352.548 769.965 353.252 769.62C353.971 769.261 354.547 768.767 354.981 768.138C355.431 767.509 355.678 766.783 355.723 765.959H360.821C360.791 767.531 360.327 768.961 359.429 770.249C358.53 771.537 357.34 772.562 355.857 773.326C354.375 774.075 352.735 774.449 350.938 774.449C349.082 774.449 347.465 774.135 346.087 773.506C344.709 772.862 343.564 771.979 342.65 770.855C341.737 769.732 341.048 768.437 340.584 766.97C340.135 765.502 339.91 763.93 339.91 762.253V761.467C339.91 759.79 340.135 758.217 340.584 756.75C341.048 755.268 341.737 753.965 342.65 752.842C343.564 751.719 344.709 750.843 346.087 750.214C347.465 749.57 349.074 749.248 350.916 749.248C352.863 749.248 354.57 749.637 356.037 750.416C357.505 751.18 358.658 752.25 359.496 753.628C360.35 754.991 360.791 756.578 360.821 758.39H355.723C355.678 757.491 355.453 756.683 355.049 755.964C354.66 755.23 354.105 754.646 353.387 754.212C352.683 753.778 351.837 753.561 350.849 753.561C349.756 753.561 348.85 753.785 348.131 754.234C347.412 754.669 346.851 755.268 346.446 756.031C346.042 756.78 345.75 757.626 345.57 758.569C345.406 759.498 345.323 760.464 345.323 761.467V762.253C345.323 763.256 345.406 764.229 345.57 765.173C345.735 766.116 346.02 766.962 346.424 767.711C346.843 768.445 347.412 769.036 348.131 769.485C348.85 769.92 349.763 770.137 350.871 770.137ZM375.69 774.449C373.894 774.449 372.269 774.157 370.816 773.573C369.379 772.974 368.151 772.143 367.133 771.08C366.13 770.017 365.358 768.767 364.819 767.329C364.28 765.892 364.011 764.342 364.011 762.68V761.781C364.011 759.88 364.288 758.158 364.842 756.615C365.396 755.073 366.167 753.755 367.155 752.662C368.144 751.554 369.312 750.708 370.659 750.124C372.007 749.54 373.467 749.248 375.039 749.248C376.776 749.248 378.296 749.54 379.599 750.124C380.901 750.708 381.979 751.532 382.833 752.595C383.701 753.643 384.345 754.893 384.765 756.346C385.199 757.798 385.416 759.4 385.416 761.152V763.466H366.639V759.58H380.07V759.153C380.04 758.18 379.846 757.267 379.486 756.413C379.142 755.56 378.61 754.871 377.892 754.347C377.173 753.823 376.215 753.561 375.017 753.561C374.118 753.561 373.317 753.755 372.613 754.145C371.924 754.519 371.348 755.065 370.884 755.784C370.42 756.503 370.06 757.371 369.806 758.39C369.566 759.393 369.446 760.523 369.446 761.781V762.68C369.446 763.743 369.589 764.731 369.873 765.645C370.173 766.543 370.607 767.329 371.176 768.003C371.745 768.677 372.434 769.208 373.242 769.598C374.051 769.972 374.972 770.159 376.005 770.159C377.308 770.159 378.468 769.897 379.486 769.373C380.505 768.849 381.388 768.108 382.137 767.149L384.989 769.912C384.465 770.676 383.784 771.41 382.945 772.113C382.107 772.802 381.081 773.364 379.868 773.798C378.67 774.232 377.278 774.449 375.69 774.449ZM418.838 765.577C418.838 764.903 418.733 764.304 418.523 763.78C418.329 763.256 417.977 762.777 417.468 762.343C416.959 761.909 416.24 761.489 415.312 761.085C414.398 760.666 413.23 760.239 411.808 759.805C410.25 759.326 408.813 758.794 407.495 758.21C406.192 757.611 405.054 756.922 404.081 756.144C403.108 755.35 402.352 754.444 401.812 753.426C401.273 752.393 401.004 751.202 401.004 749.854C401.004 748.522 401.281 747.309 401.835 746.216C402.404 745.123 403.205 744.179 404.238 743.386C405.286 742.577 406.522 741.956 407.944 741.521C409.367 741.072 410.939 740.848 412.661 740.848C415.087 740.848 417.176 741.297 418.928 742.195C420.695 743.094 422.05 744.299 422.993 745.812C423.951 747.324 424.431 748.993 424.431 750.82H418.838C418.838 749.742 418.606 748.791 418.142 747.968C417.692 747.129 417.004 746.47 416.075 745.991C415.162 745.512 414.001 745.272 412.594 745.272C411.261 745.272 410.153 745.475 409.27 745.879C408.386 746.283 407.727 746.83 407.293 747.519C406.859 748.207 406.642 748.986 406.642 749.854C406.642 750.468 406.784 751.03 407.068 751.539C407.353 752.033 407.787 752.497 408.371 752.932C408.955 753.351 409.689 753.748 410.572 754.122C411.456 754.496 412.496 754.856 413.694 755.2C415.506 755.739 417.086 756.338 418.434 756.997C419.781 757.641 420.904 758.375 421.803 759.198C422.701 760.022 423.375 760.958 423.824 762.006C424.273 763.039 424.498 764.215 424.498 765.532C424.498 766.91 424.221 768.153 423.667 769.261C423.113 770.354 422.319 771.29 421.286 772.068C420.268 772.832 419.04 773.424 417.603 773.843C416.18 774.247 414.593 774.449 412.841 774.449C411.269 774.449 409.719 774.24 408.191 773.82C406.679 773.401 405.301 772.765 404.059 771.911C402.816 771.043 401.827 769.965 401.094 768.677C400.36 767.374 399.993 765.854 399.993 764.117H405.631C405.631 765.18 405.811 766.086 406.17 766.835C406.544 767.584 407.061 768.198 407.72 768.677C408.379 769.141 409.142 769.485 410.011 769.71C410.894 769.935 411.838 770.047 412.841 770.047C414.159 770.047 415.259 769.86 416.143 769.485C417.041 769.111 417.715 768.587 418.164 767.913C418.613 767.239 418.838 766.461 418.838 765.577ZM443.567 768.272V749.697H449.003V774H443.882L443.567 768.272ZM444.331 763.219L446.15 763.174C446.15 764.806 445.971 766.311 445.611 767.688C445.252 769.051 444.698 770.242 443.949 771.26C443.201 772.263 442.242 773.049 441.074 773.618C439.906 774.172 438.506 774.449 436.874 774.449C435.691 774.449 434.605 774.277 433.617 773.933C432.629 773.588 431.775 773.057 431.057 772.338C430.353 771.619 429.806 770.683 429.417 769.53C429.028 768.377 428.833 767 428.833 765.397V749.697H434.246V765.442C434.246 766.326 434.351 767.067 434.561 767.666C434.77 768.25 435.055 768.722 435.414 769.081C435.773 769.44 436.193 769.695 436.672 769.845C437.151 769.994 437.66 770.069 438.199 770.069C439.742 770.069 440.954 769.77 441.838 769.171C442.736 768.557 443.373 767.733 443.747 766.7C444.136 765.667 444.331 764.507 444.331 763.219ZM454.573 739.5H459.986V768.812L459.47 774H454.573V739.5ZM475.844 761.624V762.096C475.844 763.893 475.642 765.547 475.237 767.06C474.848 768.557 474.249 769.86 473.44 770.968C472.647 772.076 471.659 772.937 470.476 773.551C469.308 774.15 467.952 774.449 466.41 774.449C464.898 774.449 463.58 774.165 462.457 773.596C461.334 773.027 460.391 772.218 459.627 771.17C458.878 770.122 458.272 768.871 457.808 767.419C457.343 765.966 457.014 764.364 456.819 762.612V761.107C457.014 759.34 457.343 757.738 457.808 756.301C458.272 754.848 458.878 753.598 459.627 752.55C460.391 751.487 461.326 750.671 462.435 750.102C463.558 749.533 464.868 749.248 466.365 749.248C467.923 749.248 469.293 749.548 470.476 750.146C471.674 750.745 472.669 751.599 473.463 752.707C474.257 753.8 474.848 755.103 475.237 756.615C475.642 758.128 475.844 759.797 475.844 761.624ZM470.431 762.096V761.624C470.431 760.531 470.341 759.505 470.161 758.547C469.981 757.574 469.682 756.72 469.263 755.986C468.858 755.253 468.304 754.676 467.601 754.257C466.912 753.823 466.051 753.605 465.018 753.605C464.059 753.605 463.236 753.77 462.547 754.1C461.858 754.429 461.282 754.878 460.817 755.447C460.353 756.016 459.986 756.675 459.717 757.424C459.462 758.173 459.29 758.981 459.2 759.85V763.915C459.335 765.038 459.619 766.071 460.054 767.015C460.503 767.943 461.132 768.692 461.94 769.261C462.749 769.815 463.79 770.092 465.062 770.092C466.066 770.092 466.912 769.89 467.601 769.485C468.289 769.081 468.836 768.52 469.24 767.801C469.66 767.067 469.959 766.214 470.139 765.24C470.333 764.267 470.431 763.219 470.431 762.096ZM485.839 754.639V774H480.426V749.697H485.524L485.839 754.639ZM484.963 760.95L483.121 760.928C483.121 759.251 483.331 757.701 483.75 756.278C484.169 754.856 484.783 753.62 485.592 752.572C486.4 751.509 487.404 750.693 488.602 750.124C489.814 749.54 491.215 749.248 492.802 749.248C493.91 749.248 494.921 749.413 495.834 749.742C496.762 750.057 497.563 750.558 498.237 751.247C498.926 751.936 499.45 752.819 499.81 753.897C500.184 754.976 500.371 756.278 500.371 757.806V774H494.958V758.277C494.958 757.094 494.778 756.166 494.419 755.492C494.075 754.818 493.573 754.339 492.914 754.055C492.27 753.755 491.499 753.605 490.601 753.605C489.582 753.605 488.714 753.8 487.995 754.189C487.291 754.579 486.715 755.11 486.266 755.784C485.816 756.458 485.487 757.237 485.277 758.12C485.068 759.004 484.963 759.947 484.963 760.95ZM500.034 759.513L497.496 760.074C497.496 758.607 497.698 757.222 498.103 755.919C498.522 754.601 499.128 753.448 499.922 752.46C500.73 751.457 501.726 750.671 502.909 750.102C504.092 749.533 505.447 749.248 506.975 749.248C508.217 749.248 509.326 749.42 510.299 749.765C511.287 750.094 512.126 750.618 512.814 751.337C513.503 752.056 514.027 752.992 514.387 754.145C514.746 755.283 514.926 756.66 514.926 758.277V774H509.49V758.255C509.49 757.027 509.311 756.076 508.951 755.402C508.607 754.729 508.113 754.264 507.469 754.01C506.825 753.74 506.054 753.605 505.155 753.605C504.317 753.605 503.576 753.763 502.932 754.077C502.303 754.377 501.771 754.803 501.337 755.357C500.903 755.896 500.573 756.518 500.349 757.222C500.139 757.925 500.034 758.689 500.034 759.513ZM526.291 749.697V774H520.855V749.697H526.291ZM520.496 743.318C520.496 742.495 520.766 741.813 521.305 741.274C521.859 740.72 522.622 740.443 523.596 740.443C524.554 740.443 525.31 740.72 525.864 741.274C526.418 741.813 526.695 742.495 526.695 743.318C526.695 744.127 526.418 744.801 525.864 745.34C525.31 745.879 524.554 746.148 523.596 746.148C522.622 746.148 521.859 745.879 521.305 745.34C520.766 744.801 520.496 744.127 520.496 743.318ZM545.854 767.419C545.854 766.88 545.72 766.393 545.45 765.959C545.181 765.51 544.664 765.105 543.9 764.746C543.152 764.387 542.044 764.057 540.576 763.758C539.288 763.473 538.105 763.136 537.027 762.747C535.964 762.343 535.051 761.856 534.287 761.287C533.523 760.718 532.932 760.044 532.513 759.266C532.093 758.487 531.884 757.589 531.884 756.57C531.884 755.582 532.101 754.646 532.535 753.763C532.969 752.879 533.591 752.101 534.399 751.427C535.208 750.753 536.189 750.221 537.342 749.832C538.51 749.443 539.812 749.248 541.25 749.248C543.286 749.248 545.031 749.592 546.483 750.281C547.951 750.955 549.074 751.876 549.853 753.044C550.631 754.197 551.021 755.5 551.021 756.952H545.607C545.607 756.308 545.443 755.709 545.113 755.155C544.799 754.586 544.32 754.13 543.676 753.785C543.032 753.426 542.223 753.246 541.25 753.246C540.322 753.246 539.55 753.396 538.937 753.695C538.338 753.98 537.888 754.354 537.589 754.818C537.304 755.283 537.162 755.792 537.162 756.346C537.162 756.75 537.237 757.117 537.387 757.446C537.551 757.761 537.821 758.053 538.195 758.322C538.57 758.577 539.079 758.816 539.723 759.041C540.382 759.266 541.205 759.483 542.193 759.692C544.05 760.082 545.645 760.583 546.978 761.197C548.325 761.796 549.358 762.575 550.077 763.533C550.796 764.477 551.155 765.674 551.155 767.127C551.155 768.205 550.923 769.193 550.459 770.092C550.01 770.975 549.351 771.746 548.482 772.405C547.614 773.049 546.573 773.551 545.36 773.91C544.162 774.27 542.815 774.449 541.317 774.449C539.116 774.449 537.252 774.06 535.725 773.281C534.197 772.488 533.037 771.477 532.243 770.249C531.465 769.006 531.075 767.718 531.075 766.386H536.309C536.368 767.389 536.646 768.19 537.14 768.789C537.649 769.373 538.278 769.8 539.026 770.069C539.79 770.324 540.576 770.451 541.385 770.451C542.358 770.451 543.174 770.324 543.833 770.069C544.492 769.8 544.993 769.44 545.338 768.991C545.682 768.527 545.854 768.003 545.854 767.419ZM569.528 767.419C569.528 766.88 569.394 766.393 569.124 765.959C568.854 765.51 568.338 765.105 567.574 764.746C566.826 764.387 565.717 764.057 564.25 763.758C562.962 763.473 561.779 763.136 560.701 762.747C559.638 762.343 558.725 761.856 557.961 761.287C557.197 760.718 556.606 760.044 556.187 759.266C555.767 758.487 555.558 757.589 555.558 756.57C555.558 755.582 555.775 754.646 556.209 753.763C556.643 752.879 557.265 752.101 558.073 751.427C558.882 750.753 559.863 750.221 561.016 749.832C562.184 749.443 563.486 749.248 564.924 749.248C566.96 749.248 568.705 749.592 570.157 750.281C571.625 750.955 572.748 751.876 573.526 753.044C574.305 754.197 574.694 755.5 574.694 756.952H569.281C569.281 756.308 569.117 755.709 568.787 755.155C568.473 754.586 567.993 754.13 567.35 753.785C566.706 753.426 565.897 753.246 564.924 753.246C563.995 753.246 563.224 753.396 562.61 753.695C562.011 753.98 561.562 754.354 561.263 754.818C560.978 755.283 560.836 755.792 560.836 756.346C560.836 756.75 560.911 757.117 561.061 757.446C561.225 757.761 561.495 758.053 561.869 758.322C562.243 758.577 562.753 758.816 563.396 759.041C564.055 759.266 564.879 759.483 565.867 759.692C567.724 760.082 569.319 760.583 570.651 761.197C571.999 761.796 573.032 762.575 573.751 763.533C574.47 764.477 574.829 765.674 574.829 767.127C574.829 768.205 574.597 769.193 574.133 770.092C573.684 770.975 573.025 771.746 572.156 772.405C571.288 773.049 570.247 773.551 569.034 773.91C567.836 774.27 566.489 774.449 564.991 774.449C562.79 774.449 560.926 774.06 559.398 773.281C557.871 772.488 556.711 771.477 555.917 770.249C555.138 769.006 554.749 767.718 554.749 766.386H559.982C560.042 767.389 560.319 768.19 560.813 768.789C561.323 769.373 561.951 769.8 562.7 770.069C563.464 770.324 564.25 770.451 565.059 770.451C566.032 770.451 566.848 770.324 567.507 770.069C568.166 769.8 568.667 769.44 569.012 768.991C569.356 768.527 569.528 768.003 569.528 767.419ZM585.363 749.697V774H579.928V749.697H585.363ZM579.568 743.318C579.568 742.495 579.838 741.813 580.377 741.274C580.931 740.72 581.695 740.443 582.668 740.443C583.626 740.443 584.382 740.72 584.937 741.274C585.491 741.813 585.768 742.495 585.768 743.318C585.768 744.127 585.491 744.801 584.937 745.34C584.382 745.879 583.626 746.148 582.668 746.148C581.695 746.148 580.931 745.879 580.377 745.34C579.838 744.801 579.568 744.127 579.568 743.318ZM590.26 762.118V761.602C590.26 759.85 590.514 758.225 591.023 756.728C591.533 755.215 592.266 753.905 593.225 752.797C594.198 751.674 595.381 750.805 596.773 750.191C598.181 749.562 599.768 749.248 601.535 749.248C603.317 749.248 604.904 749.562 606.297 750.191C607.704 750.805 608.895 751.674 609.868 752.797C610.841 753.905 611.583 755.215 612.092 756.728C612.601 758.225 612.855 759.85 612.855 761.602V762.118C612.855 763.87 612.601 765.495 612.092 766.992C611.583 768.49 610.841 769.8 609.868 770.923C608.895 772.031 607.712 772.899 606.319 773.528C604.927 774.142 603.347 774.449 601.58 774.449C599.798 774.449 598.203 774.142 596.796 773.528C595.403 772.899 594.22 772.031 593.247 770.923C592.274 769.8 591.533 768.49 591.023 766.992C590.514 765.495 590.26 763.87 590.26 762.118ZM595.673 761.602V762.118C595.673 763.211 595.785 764.244 596.01 765.218C596.234 766.191 596.586 767.045 597.065 767.778C597.545 768.512 598.159 769.089 598.907 769.508C599.656 769.927 600.547 770.137 601.58 770.137C602.583 770.137 603.452 769.927 604.186 769.508C604.934 769.089 605.548 768.512 606.027 767.778C606.507 767.045 606.858 766.191 607.083 765.218C607.323 764.244 607.442 763.211 607.442 762.118V761.602C607.442 760.523 607.323 759.505 607.083 758.547C606.858 757.574 606.499 756.713 606.005 755.964C605.526 755.215 604.912 754.631 604.163 754.212C603.429 753.778 602.553 753.561 601.535 753.561C600.517 753.561 599.633 753.778 598.885 754.212C598.151 754.631 597.545 755.215 597.065 755.964C596.586 756.713 596.234 757.574 596.01 758.547C595.785 759.505 595.673 760.523 595.673 761.602ZM622.761 754.886V774H617.348V749.697H622.446L622.761 754.886ZM621.795 760.95L620.043 760.928C620.058 759.206 620.298 757.626 620.762 756.188C621.241 754.751 621.9 753.516 622.738 752.482C623.592 751.449 624.61 750.656 625.793 750.102C626.976 749.533 628.294 749.248 629.746 749.248C630.914 749.248 631.97 749.413 632.913 749.742C633.871 750.057 634.688 750.573 635.361 751.292C636.05 752.011 636.574 752.947 636.934 754.1C637.293 755.238 637.473 756.638 637.473 758.3V774H632.037V758.277C632.037 757.109 631.865 756.188 631.521 755.515C631.191 754.826 630.704 754.339 630.061 754.055C629.432 753.755 628.646 753.605 627.702 753.605C626.774 753.605 625.943 753.8 625.209 754.189C624.475 754.579 623.854 755.11 623.345 755.784C622.851 756.458 622.469 757.237 622.199 758.12C621.93 759.004 621.795 759.947 621.795 760.95Z" fill="#1C4670"/>
<path d="M231.401 967.75V969.547C231.401 972.018 231.079 974.234 230.436 976.195C229.792 978.157 228.871 979.826 227.673 981.204C226.49 982.582 225.067 983.637 223.405 984.371C221.743 985.09 219.901 985.449 217.88 985.449C215.873 985.449 214.039 985.09 212.377 984.371C210.73 983.637 209.3 982.582 208.087 981.204C206.874 979.826 205.931 978.157 205.257 976.195C204.598 974.234 204.269 972.018 204.269 969.547V967.75C204.269 965.279 204.598 963.071 205.257 961.124C205.916 959.162 206.844 957.493 208.042 956.115C209.255 954.723 210.685 953.667 212.332 952.948C213.994 952.215 215.828 951.848 217.835 951.848C219.856 951.848 221.698 952.215 223.36 952.948C225.022 953.667 226.452 954.723 227.65 956.115C228.848 957.493 229.769 959.162 230.413 961.124C231.072 963.071 231.401 965.279 231.401 967.75ZM225.764 969.547V967.705C225.764 965.878 225.584 964.269 225.225 962.876C224.88 961.468 224.364 960.293 223.675 959.35C223.001 958.391 222.17 957.673 221.182 957.193C220.193 956.699 219.078 956.452 217.835 956.452C216.592 956.452 215.484 956.699 214.511 957.193C213.537 957.673 212.706 958.391 212.018 959.35C211.344 960.293 210.827 961.468 210.468 962.876C210.108 964.269 209.929 965.878 209.929 967.705V969.547C209.929 971.374 210.108 972.991 210.468 974.398C210.827 975.806 211.351 976.996 212.04 977.97C212.744 978.928 213.582 979.654 214.556 980.148C215.529 980.628 216.637 980.867 217.88 980.867C219.138 980.867 220.253 980.628 221.227 980.148C222.2 979.654 223.023 978.928 223.697 977.97C224.371 976.996 224.88 975.806 225.225 974.398C225.584 972.991 225.764 971.374 225.764 969.547ZM241.936 965.324V985H236.522V960.697H241.688L241.936 965.324ZM249.37 960.54L249.325 965.571C248.996 965.511 248.636 965.466 248.247 965.437C247.873 965.407 247.498 965.392 247.124 965.392C246.196 965.392 245.38 965.526 244.676 965.796C243.972 966.05 243.381 966.425 242.901 966.919C242.437 967.398 242.078 967.982 241.823 968.671C241.569 969.36 241.419 970.131 241.374 970.984L240.139 971.074C240.139 969.547 240.288 968.132 240.588 966.829C240.887 965.526 241.337 964.381 241.936 963.393C242.549 962.404 243.313 961.633 244.227 961.079C245.155 960.525 246.226 960.248 247.438 960.248C247.768 960.248 248.12 960.278 248.494 960.338C248.883 960.398 249.175 960.465 249.37 960.54ZM265.654 980.126V968.536C265.654 967.668 265.497 966.919 265.183 966.29C264.868 965.661 264.389 965.174 263.745 964.83C263.116 964.486 262.323 964.313 261.364 964.313C260.481 964.313 259.717 964.463 259.073 964.763C258.429 965.062 257.928 965.466 257.568 965.976C257.209 966.485 257.029 967.061 257.029 967.705H251.639C251.639 966.747 251.871 965.818 252.335 964.92C252.799 964.021 253.473 963.22 254.356 962.517C255.24 961.813 256.296 961.259 257.523 960.854C258.751 960.45 260.129 960.248 261.656 960.248C263.483 960.248 265.1 960.555 266.508 961.169C267.93 961.783 269.046 962.711 269.854 963.954C270.678 965.182 271.09 966.724 271.09 968.581V979.385C271.09 980.493 271.165 981.489 271.314 982.372C271.479 983.241 271.711 983.997 272.011 984.641V985H266.463C266.208 984.416 266.006 983.675 265.856 982.776C265.722 981.863 265.654 980.979 265.654 980.126ZM266.44 970.221L266.485 973.567H262.6C261.596 973.567 260.713 973.665 259.949 973.859C259.186 974.039 258.549 974.309 258.04 974.668C257.531 975.027 257.149 975.462 256.895 975.971C256.64 976.48 256.513 977.056 256.513 977.7C256.513 978.344 256.662 978.936 256.962 979.475C257.261 979.999 257.696 980.41 258.265 980.71C258.849 981.009 259.552 981.159 260.376 981.159C261.484 981.159 262.45 980.935 263.273 980.485C264.112 980.021 264.771 979.46 265.25 978.801C265.729 978.127 265.984 977.491 266.014 976.892L267.766 979.295C267.586 979.909 267.279 980.568 266.845 981.271C266.41 981.975 265.841 982.649 265.138 983.293C264.449 983.922 263.618 984.438 262.645 984.843C261.686 985.247 260.578 985.449 259.32 985.449C257.733 985.449 256.318 985.135 255.075 984.506C253.832 983.862 252.859 983.001 252.155 981.923C251.451 980.83 251.1 979.594 251.1 978.217C251.1 976.929 251.339 975.791 251.818 974.803C252.312 973.799 253.031 972.961 253.975 972.287C254.933 971.613 256.101 971.104 257.479 970.76C258.856 970.4 260.428 970.221 262.195 970.221H266.44ZM282.545 950.5V985H277.109V950.5H282.545ZM313.204 956.654L303.434 985H297.526L309.835 952.297H313.608L313.204 956.654ZM321.38 985L311.587 956.654L311.16 952.297H314.956L327.31 985H321.38ZM320.908 972.871V977.341H303.119V972.871H320.908ZM335.867 965.324V985H330.454V960.697H335.62L335.867 965.324ZM343.302 960.54L343.257 965.571C342.927 965.511 342.568 965.466 342.179 965.437C341.804 965.407 341.43 965.392 341.056 965.392C340.127 965.392 339.311 965.526 338.607 965.796C337.904 966.05 337.312 966.425 336.833 966.919C336.369 967.398 336.009 967.982 335.755 968.671C335.5 969.36 335.351 970.131 335.306 970.984L334.07 971.074C334.07 969.547 334.22 968.132 334.52 966.829C334.819 965.526 335.268 964.381 335.867 963.393C336.481 962.404 337.245 961.633 338.158 961.079C339.087 960.525 340.157 960.248 341.37 960.248C341.7 960.248 342.051 960.278 342.426 960.338C342.815 960.398 343.107 960.465 343.302 960.54ZM361.81 960.697H366.729V984.326C366.729 986.512 366.264 988.369 365.336 989.896C364.408 991.424 363.112 992.584 361.45 993.378C359.788 994.187 357.864 994.591 355.678 994.591C354.749 994.591 353.716 994.456 352.578 994.187C351.455 993.917 350.362 993.483 349.299 992.884C348.251 992.3 347.375 991.529 346.671 990.57L349.209 987.381C350.077 988.414 351.036 989.17 352.084 989.649C353.132 990.129 354.233 990.368 355.386 990.368C356.629 990.368 357.684 990.136 358.553 989.672C359.436 989.223 360.118 988.556 360.597 987.673C361.076 986.789 361.315 985.711 361.315 984.438V966.2L361.81 960.697ZM345.301 973.118V972.646C345.301 970.805 345.525 969.128 345.975 967.615C346.424 966.088 347.068 964.778 347.906 963.685C348.745 962.576 349.763 961.73 350.961 961.146C352.159 960.548 353.514 960.248 355.026 960.248C356.599 960.248 357.939 960.533 359.047 961.102C360.17 961.671 361.106 962.487 361.854 963.55C362.603 964.598 363.187 965.856 363.606 967.323C364.041 968.776 364.363 970.393 364.572 972.175V973.68C364.378 975.417 364.048 977.004 363.584 978.441C363.12 979.879 362.506 981.122 361.742 982.17C360.979 983.218 360.035 984.027 358.912 984.596C357.804 985.165 356.494 985.449 354.981 985.449C353.499 985.449 352.159 985.142 350.961 984.528C349.778 983.914 348.76 983.053 347.906 981.945C347.068 980.837 346.424 979.535 345.975 978.037C345.525 976.525 345.301 974.885 345.301 973.118ZM350.714 972.646V973.118C350.714 974.226 350.819 975.259 351.028 976.218C351.253 977.176 351.59 978.022 352.039 978.756C352.503 979.475 353.087 980.044 353.791 980.463C354.51 980.867 355.356 981.069 356.329 981.069C357.602 981.069 358.643 980.8 359.451 980.261C360.275 979.722 360.904 978.995 361.338 978.082C361.787 977.154 362.102 976.12 362.281 974.982V970.917C362.191 970.034 362.004 969.21 361.72 968.446C361.45 967.683 361.083 967.016 360.619 966.447C360.155 965.863 359.571 965.414 358.867 965.1C358.163 964.77 357.332 964.605 356.374 964.605C355.401 964.605 354.555 964.815 353.836 965.234C353.117 965.654 352.526 966.23 352.062 966.964C351.612 967.698 351.275 968.551 351.051 969.524C350.826 970.498 350.714 971.538 350.714 972.646ZM386.966 979.272V960.697H392.401V985H387.28L386.966 979.272ZM387.729 974.219L389.549 974.174C389.549 975.806 389.369 977.311 389.01 978.688C388.65 980.051 388.096 981.242 387.348 982.26C386.599 983.263 385.641 984.049 384.473 984.618C383.305 985.172 381.905 985.449 380.272 985.449C379.09 985.449 378.004 985.277 377.016 984.933C376.027 984.588 375.174 984.057 374.455 983.338C373.751 982.619 373.205 981.683 372.815 980.53C372.426 979.377 372.231 978 372.231 976.397V960.697H377.645V976.442C377.645 977.326 377.749 978.067 377.959 978.666C378.169 979.25 378.453 979.722 378.812 980.081C379.172 980.44 379.591 980.695 380.07 980.845C380.549 980.994 381.059 981.069 381.598 981.069C383.14 981.069 384.353 980.77 385.236 980.171C386.135 979.557 386.771 978.733 387.146 977.7C387.535 976.667 387.729 975.507 387.729 974.219ZM403.362 965.639V985H397.949V960.697H403.048L403.362 965.639ZM402.486 971.95L400.645 971.928C400.645 970.251 400.854 968.701 401.273 967.278C401.693 965.856 402.307 964.62 403.115 963.572C403.924 962.509 404.927 961.693 406.125 961.124C407.338 960.54 408.738 960.248 410.325 960.248C411.433 960.248 412.444 960.413 413.357 960.742C414.286 961.057 415.087 961.558 415.761 962.247C416.45 962.936 416.974 963.819 417.333 964.897C417.707 965.976 417.895 967.278 417.895 968.806V985H412.481V969.277C412.481 968.094 412.302 967.166 411.942 966.492C411.598 965.818 411.096 965.339 410.438 965.055C409.794 964.755 409.022 964.605 408.124 964.605C407.106 964.605 406.237 964.8 405.519 965.189C404.815 965.579 404.238 966.11 403.789 966.784C403.34 967.458 403.01 968.237 402.801 969.12C402.591 970.004 402.486 970.947 402.486 971.95ZM417.558 970.513L415.02 971.074C415.02 969.607 415.222 968.222 415.626 966.919C416.045 965.601 416.652 964.448 417.445 963.46C418.254 962.457 419.25 961.671 420.433 961.102C421.616 960.533 422.971 960.248 424.498 960.248C425.741 960.248 426.849 960.42 427.822 960.765C428.811 961.094 429.649 961.618 430.338 962.337C431.027 963.056 431.551 963.992 431.91 965.145C432.27 966.283 432.449 967.66 432.449 969.277V985H427.014V969.255C427.014 968.027 426.834 967.076 426.475 966.402C426.13 965.729 425.636 965.264 424.992 965.01C424.348 964.74 423.577 964.605 422.679 964.605C421.84 964.605 421.099 964.763 420.455 965.077C419.826 965.377 419.295 965.803 418.86 966.357C418.426 966.896 418.097 967.518 417.872 968.222C417.662 968.925 417.558 969.689 417.558 970.513ZM448.733 985.449C446.937 985.449 445.312 985.157 443.859 984.573C442.422 983.974 441.194 983.143 440.176 982.08C439.173 981.017 438.401 979.767 437.862 978.329C437.323 976.892 437.054 975.342 437.054 973.68V972.781C437.054 970.88 437.331 969.158 437.885 967.615C438.439 966.073 439.21 964.755 440.198 963.662C441.187 962.554 442.354 961.708 443.702 961.124C445.05 960.54 446.51 960.248 448.082 960.248C449.819 960.248 451.339 960.54 452.642 961.124C453.944 961.708 455.022 962.532 455.876 963.595C456.744 964.643 457.388 965.893 457.808 967.346C458.242 968.798 458.459 970.4 458.459 972.152V974.466H439.682V970.58H453.113V970.153C453.083 969.18 452.889 968.267 452.529 967.413C452.185 966.56 451.653 965.871 450.935 965.347C450.216 964.823 449.257 964.561 448.06 964.561C447.161 964.561 446.36 964.755 445.656 965.145C444.967 965.519 444.391 966.065 443.927 966.784C443.463 967.503 443.103 968.371 442.849 969.39C442.609 970.393 442.489 971.523 442.489 972.781V973.68C442.489 974.743 442.632 975.731 442.916 976.645C443.215 977.543 443.65 978.329 444.219 979.003C444.788 979.677 445.477 980.208 446.285 980.598C447.094 980.972 448.015 981.159 449.048 981.159C450.351 981.159 451.511 980.897 452.529 980.373C453.548 979.849 454.431 979.108 455.18 978.149L458.032 980.912C457.508 981.676 456.827 982.41 455.988 983.113C455.15 983.802 454.124 984.364 452.911 984.798C451.713 985.232 450.321 985.449 448.733 985.449ZM468.05 965.886V985H462.637V960.697H467.735L468.05 965.886ZM467.084 971.95L465.332 971.928C465.347 970.206 465.587 968.626 466.051 967.188C466.53 965.751 467.189 964.516 468.027 963.482C468.881 962.449 469.899 961.656 471.082 961.102C472.265 960.533 473.583 960.248 475.035 960.248C476.203 960.248 477.259 960.413 478.202 960.742C479.16 961.057 479.977 961.573 480.65 962.292C481.339 963.011 481.863 963.947 482.223 965.1C482.582 966.238 482.762 967.638 482.762 969.3V985H477.326V969.277C477.326 968.109 477.154 967.188 476.81 966.515C476.48 965.826 475.993 965.339 475.35 965.055C474.721 964.755 473.935 964.605 472.991 964.605C472.063 964.605 471.232 964.8 470.498 965.189C469.764 965.579 469.143 966.11 468.634 966.784C468.14 967.458 467.758 968.237 467.488 969.12C467.219 970.004 467.084 970.947 467.084 971.95ZM499.428 960.697V964.65H485.727V960.697H499.428ZM489.68 954.745H495.093V978.284C495.093 979.033 495.198 979.609 495.407 980.014C495.632 980.403 495.939 980.665 496.328 980.8C496.717 980.935 497.174 981.002 497.698 981.002C498.073 981.002 498.432 980.979 498.776 980.935C499.121 980.89 499.398 980.845 499.607 980.8L499.63 984.933C499.181 985.067 498.657 985.187 498.058 985.292C497.474 985.397 496.8 985.449 496.036 985.449C494.793 985.449 493.693 985.232 492.734 984.798C491.776 984.349 491.027 983.622 490.488 982.619C489.949 981.616 489.68 980.283 489.68 978.621V954.745ZM517.239 978.419C517.239 977.88 517.104 977.393 516.835 976.959C516.565 976.51 516.049 976.105 515.285 975.746C514.536 975.387 513.428 975.057 511.961 974.758C510.673 974.473 509.49 974.136 508.412 973.747C507.349 973.343 506.436 972.856 505.672 972.287C504.908 971.718 504.317 971.044 503.897 970.266C503.478 969.487 503.269 968.589 503.269 967.57C503.269 966.582 503.486 965.646 503.92 964.763C504.354 963.879 504.976 963.101 505.784 962.427C506.593 961.753 507.574 961.221 508.727 960.832C509.895 960.443 511.197 960.248 512.635 960.248C514.671 960.248 516.416 960.592 517.868 961.281C519.336 961.955 520.459 962.876 521.237 964.044C522.016 965.197 522.405 966.5 522.405 967.952H516.992C516.992 967.308 516.827 966.709 516.498 966.155C516.184 965.586 515.704 965.13 515.061 964.785C514.417 964.426 513.608 964.246 512.635 964.246C511.706 964.246 510.935 964.396 510.321 964.695C509.722 964.98 509.273 965.354 508.974 965.818C508.689 966.283 508.547 966.792 508.547 967.346C508.547 967.75 508.622 968.117 508.771 968.446C508.936 968.761 509.206 969.053 509.58 969.322C509.954 969.577 510.464 969.816 511.107 970.041C511.766 970.266 512.59 970.483 513.578 970.692C515.435 971.082 517.03 971.583 518.362 972.197C519.71 972.796 520.743 973.575 521.462 974.533C522.181 975.477 522.54 976.674 522.54 978.127C522.54 979.205 522.308 980.193 521.844 981.092C521.395 981.975 520.736 982.746 519.867 983.405C518.999 984.049 517.958 984.551 516.745 984.91C515.547 985.27 514.2 985.449 512.702 985.449C510.501 985.449 508.637 985.06 507.109 984.281C505.582 983.488 504.422 982.477 503.628 981.249C502.849 980.006 502.46 978.718 502.46 977.386H507.693C507.753 978.389 508.03 979.19 508.524 979.789C509.034 980.373 509.662 980.8 510.411 981.069C511.175 981.324 511.961 981.451 512.77 981.451C513.743 981.451 514.559 981.324 515.218 981.069C515.877 980.8 516.378 980.44 516.723 979.991C517.067 979.527 517.239 979.003 517.239 978.419Z" fill="#1C4670"/>
<path fill-rule="evenodd" clip-rule="evenodd" d="M102.351 166.702C125.127 166.702 143.702 148.127 143.702 125.351C143.702 102.575 125.127 84 102.351 84C79.5745 84 61 102.575 61 125.351C61 148.127 79.5745 166.702 102.351 166.702Z" fill="url(#paint0_radial_2_1734)"/>
<path d="M102.351 166.702C125.127 166.702 143.702 148.127 143.702 125.351C143.702 102.575 125.127 84 102.351 84C79.5745 84 61 102.575 61 125.351C61 148.127 79.5745 166.702 102.351 166.702Z" stroke="#53595E" stroke-miterlimit="2.6131"/>
<path fill-rule="evenodd" clip-rule="evenodd" d="M102.351 373.697C125.127 373.697 143.702 355.123 143.702 332.351C143.702 309.575 125.127 291 102.351 291C79.5745 291 61 309.575 61 332.351C61 355.123 79.5745 373.697 102.351 373.697Z" fill="url(#paint1_radial_2_1734)"/>
<path d="M102.351 373.611C125.127 373.611 143.702 355.037 143.702 332.265C143.702 309.489 125.127 290.914 102.351 290.914C79.5745 290.914 61 309.489 61 332.265C61 355.037 79.5745 373.611 102.351 373.611Z" stroke="#53595E" stroke-miterlimit="2.6131"/>
<path fill-rule="evenodd" clip-rule="evenodd" d="M102.351 592.702C125.127 592.702 143.702 574.127 143.702 551.351C143.702 528.575 125.127 510 102.351 510C79.5745 510 61 528.575 61 551.351C61 574.127 79.5745 592.702 102.351 592.702Z" fill="url(#paint2_radial_2_1734)"/>
<path fill-rule="evenodd" clip-rule="evenodd" d="M102.351 1219.7C125.127 1219.7 143.702 1201.13 143.702 1178.35C143.702 1155.57 125.127 1137 102.351 1137C79.5745 1137 61 1155.57 61 1178.35C61 1201.13 79.5745 1219.7 102.351 1219.7Z" fill="url(#paint3_radial_2_1734)"/>
<path d="M102.351 592.506C125.127 592.506 143.702 573.932 143.702 551.156C143.702 528.379 125.127 509.805 102.351 509.805C79.5745 509.805 61 528.379 61 551.156C61 573.932 79.5745 592.506 102.351 592.506Z" stroke="#53595E" stroke-miterlimit="2.6131"/>
<path fill-rule="evenodd" clip-rule="evenodd" d="M102.351 799.975C125.127 799.975 143.702 781.401 143.702 758.624C143.702 735.848 125.127 717.273 102.351 717.273C79.5745 717.273 61 735.848 61 758.624C61 781.401 79.5745 799.975 102.351 799.975Z" fill="url(#paint4_radial_2_1734)"/>
<path d="M102.351 799.702C125.127 799.702 143.702 781.127 143.702 758.351C143.702 735.575 125.127 717 102.351 717C79.5745 717 61 735.575 61 758.351C61 781.127 79.5745 799.702 102.351 799.702Z" stroke="#53595E" stroke-miterlimit="2.6131"/>
<path fill-rule="evenodd" clip-rule="evenodd" d="M102.351 1010.7C125.127 1010.7 143.702 992.123 143.702 969.347C143.702 946.57 125.127 928 102.351 928C79.5745 928 61 946.575 61 969.347C61 992.123 79.5745 1010.7 102.351 1010.7Z" fill="url(#paint5_radial_2_1734)"/>
<path d="M102.351 1010.7C125.127 1010.7 143.702 992.123 143.702 969.347C143.702 946.57 125.127 928 102.351 928C79.5745 928 61 946.575 61 969.347C61 992.123 79.5745 1010.7 102.351 1010.7Z" stroke="#53595E" stroke-miterlimit="2.6131"/>
<defs>
<radialGradient id="paint0_radial_2_1734" cx="0" cy="0" r="1" gradientUnits="userSpaceOnUse" gradientTransform="translate(102.351 125.352) scale(41.35)">
<stop offset="0.2978" stop-color="#FFCB42"/>
<stop offset="1" stop-color="#C5850D"/>
</radialGradient>
<radialGradient id="paint1_radial_2_1734" cx="0" cy="0" r="1" gradientUnits="userSpaceOnUse" gradientTransform="translate(102.351 332.348) scale(41.3496 41.3496)">
<stop stop-color="#49EAD1"/>
<stop offset="1" stop-color="#108977"/>
</radialGradient>
<radialGradient id="paint2_radial_2_1734" cx="0" cy="0" r="1" gradientUnits="userSpaceOnUse" gradientTransform="translate(102.351 551.353) scale(41.3496)">
<stop offset="0.1688" stop-color="#53B8FF"/>
<stop offset="1" stop-color="#0A558E"/>
</radialGradient>
<radialGradient id="paint3_radial_2_1734" cx="0" cy="0" r="1" gradientUnits="userSpaceOnUse" gradientTransform="translate(102.351 1178.35) scale(41.3496)">
<stop offset="0.1688" stop-color="#53B8FF"/>
<stop offset="1" stop-color="#0A558E"/>
</radialGradient>
<radialGradient id="paint4_radial_2_1734" cx="0" cy="0" r="1" gradientUnits="userSpaceOnUse" gradientTransform="translate(102.351 758.627) scale(41.35)">
<stop offset="0.2849" stop-color="#FF8666"/>
<stop offset="1" stop-color="#D24720"/>
</radialGradient>
<radialGradient id="paint5_radial_2_1734" cx="0" cy="0" r="1" gradientUnits="userSpaceOnUse" gradientTransform="translate(102.351 969.35) scale(41.3496 41.3496)">
<stop stop-color="#78668D"/>
<stop offset="1" stop-color="#3E3448"/>
</radialGradient>
</defs>
</svg>
