<svg width="1000" height="1091" viewBox="0 0 1000 1091" fill="none" xmlns="http://www.w3.org/2000/svg">
<g clip-path="url(#clip0_648_1792)">
<rect width="1000" height="1091" fill="white"/>
<path d="M190.271 56.6387L178.67 92H169.324L185.174 49.3438H191.121L190.271 56.6387ZM199.91 92L188.279 56.6387L187.342 49.3438H193.348L209.285 92H199.91ZM199.383 76.1211V83.0059H176.854V76.1211H199.383ZM246.375 85.0859V47H254.871V92H247.225L246.375 85.0859ZM226.336 76.5312V75.916C226.336 73.4941 226.609 71.2969 227.156 69.3242C227.703 67.332 228.504 65.623 229.559 64.1973C230.613 62.7715 231.912 61.668 233.455 60.8867C234.998 60.1055 236.756 59.7148 238.729 59.7148C240.584 59.7148 242.205 60.1055 243.592 60.8867C244.998 61.668 246.189 62.7812 247.166 64.2266C248.162 65.6523 248.963 67.3418 249.568 69.2949C250.174 71.2285 250.613 73.3477 250.887 75.6523V77C250.613 79.207 250.174 81.2578 249.568 83.1523C248.963 85.0469 248.162 86.707 247.166 88.1328C246.189 89.5391 244.998 90.6328 243.592 91.4141C242.186 92.1953 240.545 92.5859 238.67 92.5859C236.697 92.5859 234.939 92.1855 233.396 91.3848C231.873 90.584 230.584 89.4609 229.529 88.0156C228.494 86.5703 227.703 84.8711 227.156 82.918C226.609 80.9648 226.336 78.8359 226.336 76.5312ZM234.773 75.916V76.5312C234.773 77.8398 234.871 79.0605 235.066 80.1934C235.281 81.3262 235.623 82.332 236.092 83.2109C236.58 84.0703 237.205 84.7441 237.967 85.2324C238.748 85.7012 239.695 85.9355 240.809 85.9355C242.254 85.9355 243.445 85.6133 244.383 84.9688C245.32 84.3047 246.033 83.3965 246.521 82.2441C247.029 81.0918 247.322 79.7637 247.4 78.2598V74.4219C247.342 73.1914 247.166 72.0879 246.873 71.1113C246.6 70.1152 246.189 69.2656 245.643 68.5625C245.115 67.8594 244.451 67.3125 243.65 66.9219C242.869 66.5312 241.941 66.3359 240.867 66.3359C239.773 66.3359 238.836 66.5898 238.055 67.0977C237.273 67.5859 236.639 68.2598 236.15 69.1191C235.682 69.9785 235.33 70.9941 235.096 72.166C234.881 73.3184 234.773 74.5684 234.773 75.916ZM276.053 92.5859C273.592 92.5859 271.385 92.1953 269.432 91.4141C267.479 90.6133 265.818 89.5098 264.451 88.1035C263.104 86.6973 262.068 85.0664 261.346 83.2109C260.623 81.3359 260.262 79.3438 260.262 77.2344V76.0625C260.262 73.6602 260.604 71.4629 261.287 69.4707C261.971 67.4785 262.947 65.75 264.217 64.2852C265.506 62.8203 267.068 61.6973 268.904 60.916C270.74 60.1152 272.811 59.7148 275.115 59.7148C277.361 59.7148 279.354 60.0859 281.092 60.8281C282.83 61.5703 284.285 62.625 285.457 63.9922C286.648 65.3594 287.547 67 288.152 68.9141C288.758 70.8086 289.061 72.918 289.061 75.2422V78.7578H263.865V73.1328H280.77V72.4883C280.77 71.3164 280.555 70.2715 280.125 69.3535C279.715 68.416 279.09 67.6738 278.25 67.127C277.41 66.5801 276.336 66.3066 275.027 66.3066C273.914 66.3066 272.957 66.5508 272.156 67.0391C271.355 67.5273 270.701 68.2109 270.193 69.0898C269.705 69.9688 269.334 71.0039 269.08 72.1953C268.846 73.3672 268.729 74.6562 268.729 76.0625V77.2344C268.729 78.5039 268.904 79.6758 269.256 80.75C269.627 81.8242 270.145 82.752 270.809 83.5332C271.492 84.3145 272.312 84.9199 273.27 85.3496C274.246 85.7793 275.35 85.9941 276.58 85.9941C278.104 85.9941 279.52 85.7012 280.828 85.1152C282.156 84.5098 283.299 83.6016 284.256 82.3906L288.357 86.8438C287.693 87.8008 286.785 88.7188 285.633 89.5977C284.5 90.4766 283.133 91.1992 281.531 91.7656C279.93 92.3125 278.104 92.5859 276.053 92.5859ZM309.393 60.3008V66.2773H290.936V60.3008H309.393ZM295.506 52.4785H303.943V82.4492C303.943 83.3672 304.061 84.0703 304.295 84.5586C304.549 85.0469 304.92 85.3887 305.408 85.584C305.896 85.7598 306.512 85.8477 307.254 85.8477C307.781 85.8477 308.25 85.8281 308.66 85.7891C309.09 85.7305 309.451 85.6719 309.744 85.6133L309.773 91.8242C309.051 92.0586 308.27 92.2441 307.43 92.3809C306.59 92.5176 305.662 92.5859 304.646 92.5859C302.791 92.5859 301.17 92.2832 299.783 91.6777C298.416 91.0527 297.361 90.0566 296.619 88.6895C295.877 87.3223 295.506 85.5254 295.506 83.2988V52.4785ZM331.307 84.8516V70.7305C331.307 69.7148 331.141 68.8457 330.809 68.123C330.477 67.3809 329.959 66.8047 329.256 66.3945C328.572 65.9844 327.684 65.7793 326.59 65.7793C325.652 65.7793 324.842 65.9453 324.158 66.2773C323.475 66.5898 322.947 67.0488 322.576 67.6543C322.205 68.2402 322.02 68.9336 322.02 69.7344H313.582C313.582 68.3867 313.895 67.1074 314.52 65.8965C315.145 64.6855 316.053 63.6211 317.244 62.7031C318.436 61.7656 319.852 61.0332 321.492 60.5059C323.152 59.9785 325.008 59.7148 327.059 59.7148C329.52 59.7148 331.707 60.125 333.621 60.9453C335.535 61.7656 337.039 62.9961 338.133 64.6367C339.246 66.2773 339.803 68.3281 339.803 70.7891V84.3535C339.803 86.0918 339.91 87.5176 340.125 88.6309C340.34 89.7246 340.652 90.6816 341.062 91.502V92H332.537C332.127 91.1406 331.814 90.0664 331.6 88.7773C331.404 87.4688 331.307 86.1602 331.307 84.8516ZM332.42 72.6934L332.479 77.4688H327.762C326.648 77.4688 325.682 77.5957 324.861 77.8496C324.041 78.1035 323.367 78.4648 322.84 78.9336C322.312 79.3828 321.922 79.9102 321.668 80.5156C321.434 81.1211 321.316 81.7852 321.316 82.5078C321.316 83.2305 321.482 83.8848 321.814 84.4707C322.146 85.0371 322.625 85.4863 323.25 85.8184C323.875 86.1309 324.607 86.2871 325.447 86.2871C326.717 86.2871 327.82 86.0332 328.758 85.5254C329.695 85.0176 330.418 84.3926 330.926 83.6504C331.453 82.9082 331.727 82.2051 331.746 81.541L333.973 85.1152C333.66 85.916 333.23 86.7461 332.684 87.6055C332.156 88.4648 331.482 89.2754 330.662 90.0371C329.842 90.7793 328.855 91.3945 327.703 91.8828C326.551 92.3516 325.184 92.5859 323.602 92.5859C321.59 92.5859 319.764 92.1855 318.123 91.3848C316.502 90.5645 315.213 89.4414 314.256 88.0156C313.318 86.5703 312.85 84.9297 312.85 83.0938C312.85 81.4336 313.162 79.959 313.787 78.6699C314.412 77.3809 315.33 76.2969 316.541 75.418C317.771 74.5195 319.305 73.8457 321.141 73.3965C322.977 72.9277 325.105 72.6934 327.527 72.6934H332.42ZM355.213 60.3008V92H346.746V60.3008H355.213ZM346.219 52.0391C346.219 50.8086 346.648 49.793 347.508 48.9922C348.367 48.1914 349.52 47.791 350.965 47.791C352.391 47.791 353.533 48.1914 354.393 48.9922C355.271 49.793 355.711 50.8086 355.711 52.0391C355.711 53.2695 355.271 54.2852 354.393 55.0859C353.533 55.8867 352.391 56.2871 350.965 56.2871C349.52 56.2871 348.367 55.8867 347.508 55.0859C346.648 54.2852 346.219 53.2695 346.219 52.0391ZM371.092 47V92H362.625V47H371.092ZM392.654 92.5859C390.193 92.5859 387.986 92.1953 386.033 91.4141C384.08 90.6133 382.42 89.5098 381.053 88.1035C379.705 86.6973 378.67 85.0664 377.947 83.2109C377.225 81.3359 376.863 79.3438 376.863 77.2344V76.0625C376.863 73.6602 377.205 71.4629 377.889 69.4707C378.572 67.4785 379.549 65.75 380.818 64.2852C382.107 62.8203 383.67 61.6973 385.506 60.916C387.342 60.1152 389.412 59.7148 391.717 59.7148C393.963 59.7148 395.955 60.0859 397.693 60.8281C399.432 61.5703 400.887 62.625 402.059 63.9922C403.25 65.3594 404.148 67 404.754 68.9141C405.359 70.8086 405.662 72.918 405.662 75.2422V78.7578H380.467V73.1328H397.371V72.4883C397.371 71.3164 397.156 70.2715 396.727 69.3535C396.316 68.416 395.691 67.6738 394.852 67.127C394.012 66.5801 392.938 66.3066 391.629 66.3066C390.516 66.3066 389.559 66.5508 388.758 67.0391C387.957 67.5273 387.303 68.2109 386.795 69.0898C386.307 69.9688 385.936 71.0039 385.682 72.1953C385.447 73.3672 385.33 74.6562 385.33 76.0625V77.2344C385.33 78.5039 385.506 79.6758 385.857 80.75C386.229 81.8242 386.746 82.752 387.41 83.5332C388.094 84.3145 388.914 84.9199 389.871 85.3496C390.848 85.7793 391.951 85.9941 393.182 85.9941C394.705 85.9941 396.121 85.7012 397.43 85.1152C398.758 84.5098 399.9 83.6016 400.857 82.3906L404.959 86.8438C404.295 87.8008 403.387 88.7188 402.234 89.5977C401.102 90.4766 399.734 91.1992 398.133 91.7656C396.531 92.3125 394.705 92.5859 392.654 92.5859ZM429.188 85.0859V47H437.684V92H430.037L429.188 85.0859ZM409.148 76.5312V75.916C409.148 73.4941 409.422 71.2969 409.969 69.3242C410.516 67.332 411.316 65.623 412.371 64.1973C413.426 62.7715 414.725 61.668 416.268 60.8867C417.811 60.1055 419.568 59.7148 421.541 59.7148C423.396 59.7148 425.018 60.1055 426.404 60.8867C427.811 61.668 429.002 62.7812 429.979 64.2266C430.975 65.6523 431.775 67.3418 432.381 69.2949C432.986 71.2285 433.426 73.3477 433.699 75.6523V77C433.426 79.207 432.986 81.2578 432.381 83.1523C431.775 85.0469 430.975 86.707 429.979 88.1328C429.002 89.5391 427.811 90.6328 426.404 91.4141C424.998 92.1953 423.357 92.5859 421.482 92.5859C419.51 92.5859 417.752 92.1855 416.209 91.3848C414.686 90.584 413.396 89.4609 412.342 88.0156C411.307 86.5703 410.516 84.8711 409.969 82.918C409.422 80.9648 409.148 78.8359 409.148 76.5312ZM417.586 75.916V76.5312C417.586 77.8398 417.684 79.0605 417.879 80.1934C418.094 81.3262 418.436 82.332 418.904 83.2109C419.393 84.0703 420.018 84.7441 420.779 85.2324C421.561 85.7012 422.508 85.9355 423.621 85.9355C425.066 85.9355 426.258 85.6133 427.195 84.9688C428.133 84.3047 428.846 83.3965 429.334 82.2441C429.842 81.0918 430.135 79.7637 430.213 78.2598V74.4219C430.154 73.1914 429.979 72.0879 429.686 71.1113C429.412 70.1152 429.002 69.2656 428.455 68.5625C427.928 67.8594 427.264 67.3125 426.463 66.9219C425.682 66.5312 424.754 66.3359 423.68 66.3359C422.586 66.3359 421.648 66.5898 420.867 67.0977C420.086 67.5859 419.451 68.2598 418.963 69.1191C418.494 69.9785 418.143 70.9941 417.908 72.166C417.693 73.3184 417.586 74.5684 417.586 75.916ZM477.938 85.0859V47H486.434V92H478.787L477.938 85.0859ZM457.898 76.5312V75.916C457.898 73.4941 458.172 71.2969 458.719 69.3242C459.266 67.332 460.066 65.623 461.121 64.1973C462.176 62.7715 463.475 61.668 465.018 60.8867C466.561 60.1055 468.318 59.7148 470.291 59.7148C472.146 59.7148 473.768 60.1055 475.154 60.8867C476.561 61.668 477.752 62.7812 478.729 64.2266C479.725 65.6523 480.525 67.3418 481.131 69.2949C481.736 71.2285 482.176 73.3477 482.449 75.6523V77C482.176 79.207 481.736 81.2578 481.131 83.1523C480.525 85.0469 479.725 86.707 478.729 88.1328C477.752 89.5391 476.561 90.6328 475.154 91.4141C473.748 92.1953 472.107 92.5859 470.232 92.5859C468.26 92.5859 466.502 92.1855 464.959 91.3848C463.436 90.584 462.146 89.4609 461.092 88.0156C460.057 86.5703 459.266 84.8711 458.719 82.918C458.172 80.9648 457.898 78.8359 457.898 76.5312ZM466.336 75.916V76.5312C466.336 77.8398 466.434 79.0605 466.629 80.1934C466.844 81.3262 467.186 82.332 467.654 83.2109C468.143 84.0703 468.768 84.7441 469.529 85.2324C470.311 85.7012 471.258 85.9355 472.371 85.9355C473.816 85.9355 475.008 85.6133 475.945 84.9688C476.883 84.3047 477.596 83.3965 478.084 82.2441C478.592 81.0918 478.885 79.7637 478.963 78.2598V74.4219C478.904 73.1914 478.729 72.0879 478.436 71.1113C478.162 70.1152 477.752 69.2656 477.205 68.5625C476.678 67.8594 476.014 67.3125 475.213 66.9219C474.432 66.5312 473.504 66.3359 472.43 66.3359C471.336 66.3359 470.398 66.5898 469.617 67.0977C468.836 67.5859 468.201 68.2598 467.713 69.1191C467.244 69.9785 466.893 70.9941 466.658 72.166C466.443 73.3184 466.336 74.5684 466.336 75.916ZM507.615 92.5859C505.154 92.5859 502.947 92.1953 500.994 91.4141C499.041 90.6133 497.381 89.5098 496.014 88.1035C494.666 86.6973 493.631 85.0664 492.908 83.2109C492.186 81.3359 491.824 79.3438 491.824 77.2344V76.0625C491.824 73.6602 492.166 71.4629 492.85 69.4707C493.533 67.4785 494.51 65.75 495.779 64.2852C497.068 62.8203 498.631 61.6973 500.467 60.916C502.303 60.1152 504.373 59.7148 506.678 59.7148C508.924 59.7148 510.916 60.0859 512.654 60.8281C514.393 61.5703 515.848 62.625 517.02 63.9922C518.211 65.3594 519.109 67 519.715 68.9141C520.32 70.8086 520.623 72.918 520.623 75.2422V78.7578H495.428V73.1328H512.332V72.4883C512.332 71.3164 512.117 70.2715 511.688 69.3535C511.277 68.416 510.652 67.6738 509.812 67.127C508.973 66.5801 507.898 66.3066 506.59 66.3066C505.477 66.3066 504.52 66.5508 503.719 67.0391C502.918 67.5273 502.264 68.2109 501.756 69.0898C501.268 69.9688 500.896 71.0039 500.643 72.1953C500.408 73.3672 500.291 74.6562 500.291 76.0625V77.2344C500.291 78.5039 500.467 79.6758 500.818 80.75C501.189 81.8242 501.707 82.752 502.371 83.5332C503.055 84.3145 503.875 84.9199 504.832 85.3496C505.809 85.7793 506.912 85.9941 508.143 85.9941C509.666 85.9941 511.082 85.7012 512.391 85.1152C513.719 84.5098 514.861 83.6016 515.818 82.3906L519.92 86.8438C519.256 87.8008 518.348 88.7188 517.195 89.5977C516.062 90.4766 514.695 91.1992 513.094 91.7656C511.492 92.3125 509.666 92.5859 507.615 92.5859ZM542.566 83.2402C542.566 82.6348 542.391 82.0879 542.039 81.5996C541.688 81.1113 541.033 80.6621 540.076 80.252C539.139 79.8223 537.781 79.4316 536.004 79.0801C534.402 78.7285 532.908 78.2891 531.521 77.7617C530.154 77.2148 528.963 76.5605 527.947 75.7988C526.951 75.0371 526.17 74.1387 525.604 73.1035C525.037 72.0488 524.754 70.8477 524.754 69.5C524.754 68.1719 525.037 66.9219 525.604 65.75C526.189 64.5781 527.02 63.543 528.094 62.6445C529.188 61.7266 530.516 61.0137 532.078 60.5059C533.66 59.9785 535.438 59.7148 537.41 59.7148C540.164 59.7148 542.527 60.1543 544.5 61.0332C546.492 61.9121 548.016 63.123 549.07 64.666C550.145 66.1895 550.682 67.9277 550.682 69.8809H542.244C542.244 69.0605 542.068 68.3281 541.717 67.6836C541.385 67.0195 540.857 66.502 540.135 66.1309C539.432 65.7402 538.514 65.5449 537.381 65.5449C536.443 65.5449 535.633 65.7109 534.949 66.043C534.266 66.3555 533.738 66.7852 533.367 67.332C533.016 67.8594 532.84 68.4453 532.84 69.0898C532.84 69.5781 532.938 70.0176 533.133 70.4082C533.348 70.7793 533.689 71.1211 534.158 71.4336C534.627 71.7461 535.232 72.0391 535.975 72.3125C536.736 72.5664 537.674 72.8008 538.787 73.0156C541.072 73.4844 543.113 74.0996 544.91 74.8613C546.707 75.6035 548.133 76.6191 549.188 77.9082C550.242 79.1777 550.77 80.8477 550.77 82.918C550.77 84.3242 550.457 85.6133 549.832 86.7852C549.207 87.957 548.309 88.9824 547.137 89.8613C545.965 90.7207 544.559 91.3945 542.918 91.8828C541.297 92.3516 539.471 92.5859 537.439 92.5859C534.49 92.5859 531.99 92.0586 529.939 91.0039C527.908 89.9492 526.365 88.6113 525.311 86.9902C524.275 85.3496 523.758 83.6699 523.758 81.9512H531.756C531.795 83.1035 532.088 84.0312 532.635 84.7344C533.201 85.4375 533.914 85.9453 534.773 86.2578C535.652 86.5703 536.6 86.7266 537.615 86.7266C538.709 86.7266 539.617 86.5801 540.34 86.2871C541.062 85.9746 541.609 85.5645 541.98 85.0566C542.371 84.5293 542.566 83.9238 542.566 83.2402ZM569.344 85.9941C570.379 85.9941 571.297 85.7988 572.098 85.4082C572.898 84.998 573.523 84.4316 573.973 83.709C574.441 82.9668 574.686 82.0977 574.705 81.1016H582.645C582.625 83.3281 582.029 85.3105 580.857 87.0488C579.686 88.7676 578.113 90.125 576.141 91.1211C574.168 92.0977 571.961 92.5859 569.52 92.5859C567.059 92.5859 564.91 92.1758 563.074 91.3555C561.258 90.5352 559.744 89.4023 558.533 87.957C557.322 86.4922 556.414 84.793 555.809 82.8594C555.203 80.9062 554.9 78.8164 554.9 76.5898V75.7402C554.9 73.4941 555.203 71.4043 555.809 69.4707C556.414 67.5176 557.322 65.8184 558.533 64.373C559.744 62.9082 561.258 61.7656 563.074 60.9453C564.891 60.125 567.02 59.7148 569.461 59.7148C572.059 59.7148 574.334 60.2129 576.287 61.209C578.26 62.2051 579.803 63.6309 580.916 65.4863C582.049 67.3223 582.625 69.5 582.645 72.0195H574.705C574.686 70.9648 574.461 70.0078 574.031 69.1484C573.621 68.2891 573.016 67.6055 572.215 67.0977C571.434 66.5703 570.467 66.3066 569.314 66.3066C568.084 66.3066 567.078 66.5703 566.297 67.0977C565.516 67.6055 564.91 68.3086 564.48 69.207C564.051 70.0859 563.748 71.0918 563.572 72.2246C563.416 73.3379 563.338 74.5098 563.338 75.7402V76.5898C563.338 77.8203 563.416 79.002 563.572 80.1348C563.729 81.2676 564.021 82.2734 564.451 83.1523C564.9 84.0312 565.516 84.7246 566.297 85.2324C567.078 85.7402 568.094 85.9941 569.344 85.9941ZM595.975 67.2148V92H587.537V60.3008H595.477L595.975 67.2148ZM605.525 60.0957L605.379 67.918C604.969 67.8594 604.471 67.8105 603.885 67.7715C603.318 67.7129 602.801 67.6836 602.332 67.6836C601.141 67.6836 600.105 67.8398 599.227 68.1523C598.367 68.4453 597.645 68.8848 597.059 69.4707C596.492 70.0566 596.062 70.7695 595.77 71.6094C595.496 72.4492 595.34 73.4062 595.301 74.4805L593.602 73.9531C593.602 71.9023 593.807 70.0176 594.217 68.2988C594.627 66.5605 595.223 65.0469 596.004 63.7578C596.805 62.4688 597.781 61.4727 598.934 60.7695C600.086 60.0664 601.404 59.7148 602.889 59.7148C603.357 59.7148 603.836 59.7539 604.324 59.832C604.812 59.8906 605.213 59.9785 605.525 60.0957ZM618.416 60.3008V92H609.949V60.3008H618.416ZM609.422 52.0391C609.422 50.8086 609.852 49.793 610.711 48.9922C611.57 48.1914 612.723 47.791 614.168 47.791C615.594 47.791 616.736 48.1914 617.596 48.9922C618.475 49.793 618.914 50.8086 618.914 52.0391C618.914 53.2695 618.475 54.2852 617.596 55.0859C616.736 55.8867 615.594 56.2871 614.168 56.2871C612.723 56.2871 611.57 55.8867 610.711 55.0859C609.852 54.2852 609.422 53.2695 609.422 52.0391ZM633.826 66.3945V104.188H625.389V60.3008H633.211L633.826 66.3945ZM653.895 75.7988V76.4141C653.895 78.7188 653.621 80.8574 653.074 82.8301C652.547 84.8027 651.766 86.5215 650.73 87.9863C649.695 89.4316 648.406 90.5645 646.863 91.3848C645.34 92.1855 643.582 92.5859 641.59 92.5859C639.656 92.5859 637.977 92.1953 636.551 91.4141C635.125 90.6328 633.924 89.5391 632.947 88.1328C631.99 86.707 631.219 85.0566 630.633 83.1816C630.047 81.3066 629.598 79.2949 629.285 77.1465V75.5352C629.598 73.2305 630.047 71.1211 630.633 69.207C631.219 67.2734 631.99 65.6035 632.947 64.1973C633.924 62.7715 635.115 61.668 636.521 60.8867C637.947 60.1055 639.617 59.7148 641.531 59.7148C643.543 59.7148 645.311 60.0957 646.834 60.8574C648.377 61.6191 649.666 62.7129 650.701 64.1387C651.756 65.5645 652.547 67.2637 653.074 69.2363C653.621 71.209 653.895 73.3965 653.895 75.7988ZM645.428 76.4141V75.7988C645.428 74.4512 645.311 73.2109 645.076 72.0781C644.861 70.9258 644.51 69.9199 644.021 69.0605C643.553 68.2012 642.928 67.5371 642.146 67.0684C641.385 66.5801 640.457 66.3359 639.363 66.3359C638.211 66.3359 637.225 66.5215 636.404 66.8926C635.604 67.2637 634.949 67.8008 634.441 68.5039C633.934 69.207 633.553 70.0469 633.299 71.0234C633.045 72 632.889 73.1035 632.83 74.334V78.4062C632.928 79.8516 633.201 81.1504 633.65 82.3027C634.1 83.4355 634.793 84.334 635.73 84.998C636.668 85.6621 637.898 85.9941 639.422 85.9941C640.535 85.9941 641.473 85.75 642.234 85.2617C642.996 84.7539 643.611 84.0605 644.08 83.1816C644.568 82.3027 644.91 81.2871 645.105 80.1348C645.32 78.9824 645.428 77.7422 645.428 76.4141ZM674.666 60.3008V66.2773H656.209V60.3008H674.666ZM660.779 52.4785H669.217V82.4492C669.217 83.3672 669.334 84.0703 669.568 84.5586C669.822 85.0469 670.193 85.3887 670.682 85.584C671.17 85.7598 671.785 85.8477 672.527 85.8477C673.055 85.8477 673.523 85.8281 673.934 85.7891C674.363 85.7305 674.725 85.6719 675.018 85.6133L675.047 91.8242C674.324 92.0586 673.543 92.2441 672.703 92.3809C671.863 92.5176 670.936 92.5859 669.92 92.5859C668.064 92.5859 666.443 92.2832 665.057 91.6777C663.689 91.0527 662.635 90.0566 661.893 88.6895C661.15 87.3223 660.779 85.5254 660.779 83.2988V52.4785ZM688.377 60.3008V92H679.91V60.3008H688.377ZM679.383 52.0391C679.383 50.8086 679.812 49.793 680.672 48.9922C681.531 48.1914 682.684 47.791 684.129 47.791C685.555 47.791 686.697 48.1914 687.557 48.9922C688.436 49.793 688.875 50.8086 688.875 52.0391C688.875 53.2695 688.436 54.2852 687.557 55.0859C686.697 55.8867 685.555 56.2871 684.129 56.2871C682.684 56.2871 681.531 55.8867 680.672 55.0859C679.812 54.2852 679.383 53.2695 679.383 52.0391ZM694.002 76.4727V75.8574C694.002 73.5332 694.334 71.3945 694.998 69.4414C695.662 67.4688 696.629 65.7598 697.898 64.3145C699.168 62.8691 700.73 61.7461 702.586 60.9453C704.441 60.125 706.57 59.7148 708.973 59.7148C711.375 59.7148 713.514 60.125 715.389 60.9453C717.264 61.7461 718.836 62.8691 720.105 64.3145C721.395 65.7598 722.371 67.4688 723.035 69.4414C723.699 71.3945 724.031 73.5332 724.031 75.8574V76.4727C724.031 78.7773 723.699 80.916 723.035 82.8887C722.371 84.8418 721.395 86.5508 720.105 88.0156C718.836 89.4609 717.273 90.584 715.418 91.3848C713.562 92.1855 711.434 92.5859 709.031 92.5859C706.629 92.5859 704.49 92.1855 702.615 91.3848C700.76 90.584 699.188 89.4609 697.898 88.0156C696.629 86.5508 695.662 84.8418 694.998 82.8887C694.334 80.916 694.002 78.7773 694.002 76.4727ZM702.439 75.8574V76.4727C702.439 77.8008 702.557 79.041 702.791 80.1934C703.025 81.3457 703.396 82.3613 703.904 83.2402C704.432 84.0996 705.115 84.7734 705.955 85.2617C706.795 85.75 707.82 85.9941 709.031 85.9941C710.203 85.9941 711.209 85.75 712.049 85.2617C712.889 84.7734 713.562 84.0996 714.07 83.2402C714.578 82.3613 714.949 81.3457 715.184 80.1934C715.438 79.041 715.564 77.8008 715.564 76.4727V75.8574C715.564 74.5684 715.438 73.3574 715.184 72.2246C714.949 71.0723 714.568 70.0566 714.041 69.1777C713.533 68.2793 712.859 67.5762 712.02 67.0684C711.18 66.5605 710.164 66.3066 708.973 66.3066C707.781 66.3066 706.766 66.5605 705.926 67.0684C705.105 67.5762 704.432 68.2793 703.904 69.1777C703.396 70.0566 703.025 71.0723 702.791 72.2246C702.557 73.3574 702.439 74.5684 702.439 75.8574ZM737.479 67.0684V92H729.041V60.3008H736.951L737.479 67.0684ZM736.248 75.0371H733.963C733.963 72.6934 734.266 70.584 734.871 68.709C735.477 66.8145 736.326 65.2031 737.42 63.875C738.514 62.5273 739.812 61.502 741.316 60.7988C742.84 60.0762 744.539 59.7148 746.414 59.7148C747.898 59.7148 749.256 59.9297 750.486 60.3594C751.717 60.7891 752.771 61.4727 753.65 62.4102C754.549 63.3477 755.232 64.5879 755.701 66.1309C756.189 67.6738 756.434 69.5586 756.434 71.7852V92H747.938V71.7559C747.938 70.3496 747.742 69.2559 747.352 68.4746C746.961 67.6934 746.385 67.1465 745.623 66.834C744.881 66.502 743.963 66.3359 742.869 66.3359C741.736 66.3359 740.75 66.5605 739.91 67.0098C739.09 67.459 738.406 68.084 737.859 68.8848C737.332 69.666 736.932 70.584 736.658 71.6387C736.385 72.6934 736.248 73.8262 736.248 75.0371ZM776.443 76.4727V75.8574C776.443 73.5332 776.775 71.3945 777.439 69.4414C778.104 67.4688 779.07 65.7598 780.34 64.3145C781.609 62.8691 783.172 61.7461 785.027 60.9453C786.883 60.125 789.012 59.7148 791.414 59.7148C793.816 59.7148 795.955 60.125 797.83 60.9453C799.705 61.7461 801.277 62.8691 802.547 64.3145C803.836 65.7598 804.812 67.4688 805.477 69.4414C806.141 71.3945 806.473 73.5332 806.473 75.8574V76.4727C806.473 78.7773 806.141 80.916 805.477 82.8887C804.812 84.8418 803.836 86.5508 802.547 88.0156C801.277 89.4609 799.715 90.584 797.859 91.3848C796.004 92.1855 793.875 92.5859 791.473 92.5859C789.07 92.5859 786.932 92.1855 785.057 91.3848C783.201 90.584 781.629 89.4609 780.34 88.0156C779.07 86.5508 778.104 84.8418 777.439 82.8887C776.775 80.916 776.443 78.7773 776.443 76.4727ZM784.881 75.8574V76.4727C784.881 77.8008 784.998 79.041 785.232 80.1934C785.467 81.3457 785.838 82.3613 786.346 83.2402C786.873 84.0996 787.557 84.7734 788.396 85.2617C789.236 85.75 790.262 85.9941 791.473 85.9941C792.645 85.9941 793.65 85.75 794.49 85.2617C795.33 84.7734 796.004 84.0996 796.512 83.2402C797.02 82.3613 797.391 81.3457 797.625 80.1934C797.879 79.041 798.006 77.8008 798.006 76.4727V75.8574C798.006 74.5684 797.879 73.3574 797.625 72.2246C797.391 71.0723 797.01 70.0566 796.482 69.1777C795.975 68.2793 795.301 67.5762 794.461 67.0684C793.621 66.5605 792.605 66.3066 791.414 66.3066C790.223 66.3066 789.207 66.5605 788.367 67.0684C787.547 67.5762 786.873 68.2793 786.346 69.1777C785.838 70.0566 785.467 71.0723 785.232 72.2246C784.998 73.3574 784.881 74.5684 784.881 75.8574ZM822.41 92H813.914V57.4883C813.914 55.0859 814.383 53.0645 815.32 51.4238C816.277 49.7637 817.615 48.5137 819.334 47.6738C821.072 46.8145 823.133 46.3848 825.516 46.3848C826.297 46.3848 827.049 46.4434 827.771 46.5605C828.494 46.6582 829.197 46.7852 829.881 46.9414L829.793 53.2988C829.422 53.2012 829.031 53.1328 828.621 53.0938C828.211 53.0547 827.732 53.0352 827.186 53.0352C826.17 53.0352 825.301 53.2109 824.578 53.5625C823.875 53.8945 823.338 54.3926 822.967 55.0566C822.596 55.7207 822.41 56.5312 822.41 57.4883V92ZM828.738 60.3008V66.2773H809.197V60.3008H828.738Z" fill="#1C4670"/>
<path d="M287.068 119.344V162H278.309V119.344H287.068ZM300.193 119.344V126.229H265.389V119.344H300.193ZM312.908 117V162H304.471V117H312.908ZM311.707 145.037H309.393C309.412 142.83 309.705 140.799 310.271 138.943C310.838 137.068 311.648 135.447 312.703 134.08C313.758 132.693 315.018 131.619 316.482 130.857C317.967 130.096 319.607 129.715 321.404 129.715C322.967 129.715 324.383 129.939 325.652 130.389C326.941 130.818 328.045 131.521 328.963 132.498C329.9 133.455 330.623 134.715 331.131 136.277C331.639 137.84 331.893 139.734 331.893 141.961V162H323.396V141.902C323.396 140.496 323.191 139.393 322.781 138.592C322.391 137.771 321.814 137.195 321.053 136.863C320.311 136.512 319.393 136.336 318.299 136.336C317.088 136.336 316.053 136.561 315.193 137.01C314.354 137.459 313.68 138.084 313.172 138.885C312.664 139.666 312.293 140.584 312.059 141.639C311.824 142.693 311.707 143.826 311.707 145.037ZM352.898 162.586C350.438 162.586 348.23 162.195 346.277 161.414C344.324 160.613 342.664 159.51 341.297 158.104C339.949 156.697 338.914 155.066 338.191 153.211C337.469 151.336 337.107 149.344 337.107 147.234V146.062C337.107 143.66 337.449 141.463 338.133 139.471C338.816 137.479 339.793 135.75 341.062 134.285C342.352 132.82 343.914 131.697 345.75 130.916C347.586 130.115 349.656 129.715 351.961 129.715C354.207 129.715 356.199 130.086 357.938 130.828C359.676 131.57 361.131 132.625 362.303 133.992C363.494 135.359 364.393 137 364.998 138.914C365.604 140.809 365.906 142.918 365.906 145.242V148.758H340.711V143.133H357.615V142.488C357.615 141.316 357.4 140.271 356.971 139.354C356.561 138.416 355.936 137.674 355.096 137.127C354.256 136.58 353.182 136.307 351.873 136.307C350.76 136.307 349.803 136.551 349.002 137.039C348.201 137.527 347.547 138.211 347.039 139.09C346.551 139.969 346.18 141.004 345.926 142.195C345.691 143.367 345.574 144.656 345.574 146.062V147.234C345.574 148.504 345.75 149.676 346.102 150.75C346.473 151.824 346.99 152.752 347.654 153.533C348.338 154.314 349.158 154.92 350.115 155.35C351.092 155.779 352.195 155.994 353.426 155.994C354.949 155.994 356.365 155.701 357.674 155.115C359.002 154.51 360.145 153.602 361.102 152.391L365.203 156.844C364.539 157.801 363.631 158.719 362.479 159.598C361.346 160.477 359.979 161.199 358.377 161.766C356.775 162.312 354.949 162.586 352.898 162.586ZM402.791 146.795H391.922V139.939H402.791C404.471 139.939 405.838 139.666 406.893 139.119C407.947 138.553 408.719 137.771 409.207 136.775C409.695 135.779 409.939 134.656 409.939 133.406C409.939 132.137 409.695 130.955 409.207 129.861C408.719 128.768 407.947 127.889 406.893 127.225C405.838 126.561 404.471 126.229 402.791 126.229H394.969V162H386.18V119.344H402.791C406.131 119.344 408.992 119.949 411.375 121.16C413.777 122.352 415.613 124.002 416.883 126.111C418.152 128.221 418.787 130.633 418.787 133.348C418.787 136.102 418.152 138.484 416.883 140.496C415.613 142.508 413.777 144.061 411.375 145.154C408.992 146.248 406.131 146.795 402.791 146.795ZM422.566 146.473V145.857C422.566 143.533 422.898 141.395 423.562 139.441C424.227 137.469 425.193 135.76 426.463 134.314C427.732 132.869 429.295 131.746 431.15 130.945C433.006 130.125 435.135 129.715 437.537 129.715C439.939 129.715 442.078 130.125 443.953 130.945C445.828 131.746 447.4 132.869 448.67 134.314C449.959 135.76 450.936 137.469 451.6 139.441C452.264 141.395 452.596 143.533 452.596 145.857V146.473C452.596 148.777 452.264 150.916 451.6 152.889C450.936 154.842 449.959 156.551 448.67 158.016C447.4 159.461 445.838 160.584 443.982 161.385C442.127 162.186 439.998 162.586 437.596 162.586C435.193 162.586 433.055 162.186 431.18 161.385C429.324 160.584 427.752 159.461 426.463 158.016C425.193 156.551 424.227 154.842 423.562 152.889C422.898 150.916 422.566 148.777 422.566 146.473ZM431.004 145.857V146.473C431.004 147.801 431.121 149.041 431.355 150.193C431.59 151.346 431.961 152.361 432.469 153.24C432.996 154.1 433.68 154.773 434.52 155.262C435.359 155.75 436.385 155.994 437.596 155.994C438.768 155.994 439.773 155.75 440.613 155.262C441.453 154.773 442.127 154.1 442.635 153.24C443.143 152.361 443.514 151.346 443.748 150.193C444.002 149.041 444.129 147.801 444.129 146.473V145.857C444.129 144.568 444.002 143.357 443.748 142.225C443.514 141.072 443.133 140.057 442.605 139.178C442.098 138.279 441.424 137.576 440.584 137.068C439.744 136.561 438.729 136.307 437.537 136.307C436.346 136.307 435.33 136.561 434.49 137.068C433.67 137.576 432.996 138.279 432.469 139.178C431.961 140.057 431.59 141.072 431.355 142.225C431.121 143.357 431.004 144.568 431.004 145.857ZM466.834 153.797L473.426 130.301H478.787L477.059 139.529L470.467 162H465.984L466.834 153.797ZM463.494 130.301L468.211 153.768L468.65 162H463.377L455.35 130.301H463.494ZM484.822 153.387L489.422 130.301H497.596L489.568 162H484.324L484.822 153.387ZM479.52 130.301L486.082 153.621L486.99 162H482.479L475.887 139.559L474.217 130.301H479.52ZM516.434 162.586C513.973 162.586 511.766 162.195 509.812 161.414C507.859 160.613 506.199 159.51 504.832 158.104C503.484 156.697 502.449 155.066 501.727 153.211C501.004 151.336 500.643 149.344 500.643 147.234V146.062C500.643 143.66 500.984 141.463 501.668 139.471C502.352 137.479 503.328 135.75 504.598 134.285C505.887 132.82 507.449 131.697 509.285 130.916C511.121 130.115 513.191 129.715 515.496 129.715C517.742 129.715 519.734 130.086 521.473 130.828C523.211 131.57 524.666 132.625 525.838 133.992C527.029 135.359 527.928 137 528.533 138.914C529.139 140.809 529.441 142.918 529.441 145.242V148.758H504.246V143.133H521.15V142.488C521.15 141.316 520.936 140.271 520.506 139.354C520.096 138.416 519.471 137.674 518.631 137.127C517.791 136.58 516.717 136.307 515.408 136.307C514.295 136.307 513.338 136.551 512.537 137.039C511.736 137.527 511.082 138.211 510.574 139.09C510.086 139.969 509.715 141.004 509.461 142.195C509.227 143.367 509.109 144.656 509.109 146.062V147.234C509.109 148.504 509.285 149.676 509.637 150.75C510.008 151.824 510.525 152.752 511.189 153.533C511.873 154.314 512.693 154.92 513.65 155.35C514.627 155.779 515.73 155.994 516.961 155.994C518.484 155.994 519.9 155.701 521.209 155.115C522.537 154.51 523.68 153.602 524.637 152.391L528.738 156.844C528.074 157.801 527.166 158.719 526.014 159.598C524.881 160.477 523.514 161.199 521.912 161.766C520.311 162.312 518.484 162.586 516.434 162.586ZM542.684 137.215V162H534.246V130.301H542.186L542.684 137.215ZM552.234 130.096L552.088 137.918C551.678 137.859 551.18 137.811 550.594 137.771C550.027 137.713 549.51 137.684 549.041 137.684C547.85 137.684 546.814 137.84 545.936 138.152C545.076 138.445 544.354 138.885 543.768 139.471C543.201 140.057 542.771 140.77 542.479 141.609C542.205 142.449 542.049 143.406 542.01 144.48L540.311 143.953C540.311 141.902 540.516 140.018 540.926 138.299C541.336 136.561 541.932 135.047 542.713 133.758C543.514 132.469 544.49 131.473 545.643 130.77C546.795 130.066 548.113 129.715 549.598 129.715C550.066 129.715 550.545 129.754 551.033 129.832C551.521 129.891 551.922 129.979 552.234 130.096ZM588.387 143.279H577.43L577.371 137.244H586.57C588.191 137.244 589.52 137.039 590.555 136.629C591.59 136.199 592.361 135.584 592.869 134.783C593.396 133.963 593.66 132.967 593.66 131.795C593.66 130.467 593.406 129.393 592.898 128.572C592.41 127.752 591.639 127.156 590.584 126.785C589.549 126.414 588.211 126.229 586.57 126.229H580.477V162H571.688V119.344H586.57C589.051 119.344 591.268 119.578 593.221 120.047C595.193 120.516 596.863 121.229 598.23 122.186C599.598 123.143 600.643 124.354 601.365 125.818C602.088 127.264 602.449 128.982 602.449 130.975C602.449 132.732 602.049 134.354 601.248 135.838C600.467 137.322 599.227 138.533 597.527 139.471C595.848 140.408 593.65 140.926 590.936 141.023L588.387 143.279ZM588.006 162H575.027L578.455 155.145H588.006C589.549 155.145 590.809 154.9 591.785 154.412C592.762 153.904 593.484 153.221 593.953 152.361C594.422 151.502 594.656 150.516 594.656 149.402C594.656 148.152 594.441 147.068 594.012 146.15C593.602 145.232 592.938 144.529 592.02 144.041C591.102 143.533 589.891 143.279 588.387 143.279H579.92L579.979 137.244H590.525L592.547 139.617C595.145 139.578 597.234 140.037 598.816 140.994C600.418 141.932 601.58 143.152 602.303 144.656C603.045 146.16 603.416 147.771 603.416 149.49C603.416 152.225 602.82 154.529 601.629 156.404C600.438 158.26 598.689 159.656 596.385 160.594C594.1 161.531 591.307 162 588.006 162ZM626.59 154.852V140.73C626.59 139.715 626.424 138.846 626.092 138.123C625.76 137.381 625.242 136.805 624.539 136.395C623.855 135.984 622.967 135.779 621.873 135.779C620.936 135.779 620.125 135.945 619.441 136.277C618.758 136.59 618.23 137.049 617.859 137.654C617.488 138.24 617.303 138.934 617.303 139.734H608.865C608.865 138.387 609.178 137.107 609.803 135.896C610.428 134.686 611.336 133.621 612.527 132.703C613.719 131.766 615.135 131.033 616.775 130.506C618.436 129.979 620.291 129.715 622.342 129.715C624.803 129.715 626.99 130.125 628.904 130.945C630.818 131.766 632.322 132.996 633.416 134.637C634.529 136.277 635.086 138.328 635.086 140.789V154.354C635.086 156.092 635.193 157.518 635.408 158.631C635.623 159.725 635.936 160.682 636.346 161.502V162H627.82C627.41 161.141 627.098 160.066 626.883 158.777C626.688 157.469 626.59 156.16 626.59 154.852ZM627.703 142.693L627.762 147.469H623.045C621.932 147.469 620.965 147.596 620.145 147.85C619.324 148.104 618.65 148.465 618.123 148.934C617.596 149.383 617.205 149.91 616.951 150.516C616.717 151.121 616.6 151.785 616.6 152.508C616.6 153.23 616.766 153.885 617.098 154.471C617.43 155.037 617.908 155.486 618.533 155.818C619.158 156.131 619.891 156.287 620.73 156.287C622 156.287 623.104 156.033 624.041 155.525C624.979 155.018 625.701 154.393 626.209 153.65C626.736 152.908 627.01 152.205 627.029 151.541L629.256 155.115C628.943 155.916 628.514 156.746 627.967 157.605C627.439 158.465 626.766 159.275 625.945 160.037C625.125 160.779 624.139 161.395 622.986 161.883C621.834 162.352 620.467 162.586 618.885 162.586C616.873 162.586 615.047 162.186 613.406 161.385C611.785 160.564 610.496 159.441 609.539 158.016C608.602 156.57 608.133 154.93 608.133 153.094C608.133 151.434 608.445 149.959 609.07 148.67C609.695 147.381 610.613 146.297 611.824 145.418C613.055 144.52 614.588 143.846 616.424 143.396C618.26 142.928 620.389 142.693 622.811 142.693H627.703ZM649.852 137.068V162H641.414V130.301H649.324L649.852 137.068ZM648.621 145.037H646.336C646.336 142.693 646.639 140.584 647.244 138.709C647.85 136.814 648.699 135.203 649.793 133.875C650.887 132.527 652.186 131.502 653.689 130.799C655.213 130.076 656.912 129.715 658.787 129.715C660.271 129.715 661.629 129.93 662.859 130.359C664.09 130.789 665.145 131.473 666.023 132.41C666.922 133.348 667.605 134.588 668.074 136.131C668.562 137.674 668.807 139.559 668.807 141.785V162H660.311V141.756C660.311 140.35 660.115 139.256 659.725 138.475C659.334 137.693 658.758 137.146 657.996 136.834C657.254 136.502 656.336 136.336 655.242 136.336C654.109 136.336 653.123 136.561 652.283 137.01C651.463 137.459 650.779 138.084 650.232 138.885C649.705 139.666 649.305 140.584 649.031 141.639C648.758 142.693 648.621 143.826 648.621 145.037ZM683.66 116.971V162H675.223V116.971H683.66ZM703.641 130.301L689.871 146.004L682.488 153.475L679.412 147.381L685.271 139.939L693.504 130.301H703.641ZM694.881 162L685.506 147.352L691.336 142.254L704.607 162H694.881ZM724.412 153.24C724.412 152.635 724.236 152.088 723.885 151.6C723.533 151.111 722.879 150.662 721.922 150.252C720.984 149.822 719.627 149.432 717.85 149.08C716.248 148.729 714.754 148.289 713.367 147.762C712 147.215 710.809 146.561 709.793 145.799C708.797 145.037 708.016 144.139 707.449 143.104C706.883 142.049 706.6 140.848 706.6 139.5C706.6 138.172 706.883 136.922 707.449 135.75C708.035 134.578 708.865 133.543 709.939 132.645C711.033 131.727 712.361 131.014 713.924 130.506C715.506 129.979 717.283 129.715 719.256 129.715C722.01 129.715 724.373 130.154 726.346 131.033C728.338 131.912 729.861 133.123 730.916 134.666C731.99 136.189 732.527 137.928 732.527 139.881H724.09C724.09 139.061 723.914 138.328 723.562 137.684C723.23 137.02 722.703 136.502 721.98 136.131C721.277 135.74 720.359 135.545 719.227 135.545C718.289 135.545 717.479 135.711 716.795 136.043C716.111 136.355 715.584 136.785 715.213 137.332C714.861 137.859 714.686 138.445 714.686 139.09C714.686 139.578 714.783 140.018 714.979 140.408C715.193 140.779 715.535 141.121 716.004 141.434C716.473 141.746 717.078 142.039 717.82 142.312C718.582 142.566 719.52 142.801 720.633 143.016C722.918 143.484 724.959 144.1 726.756 144.861C728.553 145.604 729.979 146.619 731.033 147.908C732.088 149.178 732.615 150.848 732.615 152.918C732.615 154.324 732.303 155.613 731.678 156.785C731.053 157.957 730.154 158.982 728.982 159.861C727.811 160.721 726.404 161.395 724.764 161.883C723.143 162.352 721.316 162.586 719.285 162.586C716.336 162.586 713.836 162.059 711.785 161.004C709.754 159.949 708.211 158.611 707.156 156.99C706.121 155.35 705.604 153.67 705.604 151.951H713.602C713.641 153.104 713.934 154.031 714.48 154.734C715.047 155.438 715.76 155.945 716.619 156.258C717.498 156.57 718.445 156.727 719.461 156.727C720.555 156.727 721.463 156.58 722.186 156.287C722.908 155.975 723.455 155.564 723.826 155.057C724.217 154.529 724.412 153.924 724.412 153.24Z" fill="#FFA229"/>
<path d="M909.999 427.704C946.45 427.704 975.999 390.934 975.999 345.575C975.999 300.216 946.45 263.445 909.999 263.445C873.549 263.445 844 300.216 844 345.575C844 390.934 873.549 427.704 909.999 427.704Z" fill="#1C4670"/>
<path d="M907.284 263.445H81.8633V427.702H907.284V263.445Z" fill="#1C4670"/>
<path d="M84.9993 427.704C121.45 427.704 150.999 390.934 150.999 345.575C150.999 300.216 121.45 263.445 84.9993 263.445C48.5489 263.445 19 300.216 19 345.575C19 390.934 48.5489 427.704 84.9993 427.704Z" fill="#1C4670"/>
<path d="M155.979 446.414C116.535 411.751 103.141 356.643 122.755 307.407C142.344 258.234 190.028 227.309 242.529 229.138L249.19 212.417C219.097 210.127 189.06 217.497 163.46 233.452C137.86 249.408 118.038 273.113 106.886 301.108C95.7345 329.104 93.8369 359.924 101.47 389.072C109.104 418.22 125.869 444.17 149.318 463.135L155.979 446.414Z" fill="#1C4670"/>
<path d="M234.176 477.458C286.694 479.302 334.338 448.437 353.952 399.189C373.539 350.017 360.151 294.841 320.726 260.182L327.391 243.461C350.843 262.425 367.609 288.376 375.243 317.525C382.878 346.674 380.98 377.496 369.828 405.492C358.675 433.489 338.851 457.194 313.25 473.149C287.648 489.103 257.609 496.472 227.516 494.179L234.176 477.458Z" fill="#1C4670"/>
<path d="M326.218 441.014C374.746 392.569 374.746 314.025 326.218 265.58C277.691 217.136 199.012 217.136 150.484 265.58C101.957 314.025 101.957 392.569 150.484 441.014C199.012 489.458 277.691 489.458 326.218 441.014Z" fill="white"/>
<path d="M313.351 428.168C354.772 386.818 354.772 319.776 313.351 278.425C271.93 237.075 204.773 237.075 163.351 278.425C121.93 319.776 121.93 386.818 163.351 428.168C204.773 469.519 271.93 469.519 313.351 428.168Z" fill="#FFA229"/>
<path d="M223.756 387.656C217.658 387.656 212.941 385.947 209.605 382.529C206.297 379.111 204.642 374.189 204.642 367.764V335.197C204.642 328.416 206.215 323.221 209.359 319.611C212.531 315.975 217.33 314.156 223.756 314.156C230.209 314.156 235.008 315.975 238.152 319.611C241.297 323.221 242.869 328.416 242.869 335.197V367.764C242.869 374.189 241.215 379.111 237.906 382.529C234.597 385.947 229.881 387.656 223.756 387.656ZM223.756 374.367C224.877 374.367 225.752 373.861 226.381 372.85C227.01 371.838 227.324 370.703 227.324 369.445V333.803C227.324 332.107 227.133 330.631 226.75 329.373C226.394 328.088 225.396 327.445 223.756 327.445C222.115 327.445 221.103 328.088 220.721 329.373C220.365 330.631 220.187 332.107 220.187 333.803V369.445C220.187 370.703 220.502 371.838 221.131 372.85C221.787 373.861 222.662 374.367 223.756 374.367ZM256.156 387V331.383C255.172 332.559 253.819 333.516 252.096 334.254C250.373 334.965 248.746 335.32 247.215 335.32V323.795C248.664 323.576 250.223 323.111 251.891 322.4C253.559 321.662 255.104 320.664 256.526 319.406C257.975 318.121 259.082 316.576 259.848 314.771H271.455V387H256.156Z" fill="white"/>
<path d="M84.9993 719.408C121.45 719.408 150.999 682.637 150.999 637.278C150.999 591.919 121.45 555.148 84.9993 555.148C48.5489 555.148 19 591.919 19 637.278C19 682.637 48.5489 719.408 84.9993 719.408Z" fill="#FFA229"/>
<path d="M918.132 555.148H92.7109V719.405H918.132V555.148Z" fill="#FFA229"/>
<path d="M164.65 615.344H179.738C182.98 615.344 185.744 615.832 188.029 616.809C190.314 617.785 192.062 619.23 193.273 621.145C194.504 623.039 195.119 625.383 195.119 628.176C195.119 630.305 194.729 632.18 193.947 633.801C193.166 635.422 192.062 636.789 190.637 637.902C189.211 638.996 187.512 639.846 185.539 640.451L183.312 641.535H169.748L169.689 635.705H179.855C181.613 635.705 183.078 635.393 184.25 634.768C185.422 634.143 186.301 633.293 186.887 632.219C187.492 631.125 187.795 629.895 187.795 628.527C187.795 627.043 187.502 625.754 186.916 624.66C186.35 623.547 185.471 622.697 184.279 622.111C183.088 621.506 181.574 621.203 179.738 621.203H172.004V658H164.65V615.344ZM188.996 658L178.977 638.84L186.682 638.811L196.848 657.619V658H188.996ZM215.715 658.586C213.371 658.586 211.252 658.205 209.357 657.443C207.482 656.662 205.881 655.578 204.553 654.191C203.244 652.805 202.238 651.174 201.535 649.299C200.832 647.424 200.48 645.402 200.48 643.234V642.062C200.48 639.582 200.842 637.336 201.564 635.324C202.287 633.312 203.293 631.594 204.582 630.168C205.871 628.723 207.395 627.619 209.152 626.857C210.91 626.096 212.814 625.715 214.865 625.715C217.131 625.715 219.113 626.096 220.812 626.857C222.512 627.619 223.918 628.693 225.031 630.08C226.164 631.447 227.004 633.078 227.551 634.973C228.117 636.867 228.4 638.957 228.4 641.242V644.26H203.908V639.191H221.428V638.635C221.389 637.365 221.135 636.174 220.666 635.061C220.217 633.947 219.523 633.049 218.586 632.365C217.648 631.682 216.398 631.34 214.836 631.34C213.664 631.34 212.619 631.594 211.701 632.102C210.803 632.59 210.051 633.303 209.445 634.24C208.84 635.178 208.371 636.311 208.039 637.639C207.727 638.947 207.57 640.422 207.57 642.062V643.234C207.57 644.621 207.756 645.91 208.127 647.102C208.518 648.273 209.084 649.299 209.826 650.178C210.568 651.057 211.467 651.75 212.521 652.258C213.576 652.746 214.777 652.99 216.125 652.99C217.824 652.99 219.338 652.648 220.666 651.965C221.994 651.281 223.146 650.314 224.123 649.064L227.844 652.668C227.16 653.664 226.271 654.621 225.178 655.539C224.084 656.438 222.746 657.17 221.164 657.736C219.602 658.303 217.785 658.586 215.715 658.586ZM254.211 626.301H260.627V657.121C260.627 659.973 260.021 662.395 258.811 664.387C257.6 666.379 255.91 667.893 253.742 668.928C251.574 669.982 249.064 670.51 246.213 670.51C245.002 670.51 243.654 670.334 242.17 669.982C240.705 669.631 239.279 669.064 237.893 668.283C236.525 667.521 235.383 666.516 234.465 665.266L237.775 661.105C238.908 662.453 240.158 663.439 241.525 664.064C242.893 664.689 244.328 665.002 245.832 665.002C247.453 665.002 248.83 664.699 249.963 664.094C251.115 663.508 252.004 662.639 252.629 661.486C253.254 660.334 253.566 658.928 253.566 657.268V633.479L254.211 626.301ZM232.678 642.502V641.887C232.678 639.484 232.971 637.297 233.557 635.324C234.143 633.332 234.982 631.623 236.076 630.197C237.17 628.752 238.498 627.648 240.061 626.887C241.623 626.105 243.391 625.715 245.363 625.715C247.414 625.715 249.162 626.086 250.607 626.828C252.072 627.57 253.293 628.635 254.27 630.021C255.246 631.389 256.008 633.029 256.555 634.943C257.121 636.838 257.541 638.947 257.814 641.271V643.234C257.561 645.5 257.131 647.57 256.525 649.445C255.92 651.32 255.119 652.941 254.123 654.309C253.127 655.676 251.896 656.73 250.432 657.473C248.986 658.215 247.277 658.586 245.305 658.586C243.371 658.586 241.623 658.186 240.061 657.385C238.518 656.584 237.189 655.461 236.076 654.016C234.982 652.57 234.143 650.871 233.557 648.918C232.971 646.945 232.678 644.807 232.678 642.502ZM239.738 641.887V642.502C239.738 643.947 239.875 645.295 240.148 646.545C240.441 647.795 240.881 648.898 241.467 649.855C242.072 650.793 242.834 651.535 243.752 652.082C244.689 652.609 245.793 652.873 247.062 652.873C248.723 652.873 250.08 652.521 251.135 651.818C252.209 651.115 253.029 650.168 253.596 648.977C254.182 647.766 254.592 646.418 254.826 644.934V639.631C254.709 638.479 254.465 637.404 254.094 636.408C253.742 635.412 253.264 634.543 252.658 633.801C252.053 633.039 251.291 632.453 250.373 632.043C249.455 631.613 248.371 631.398 247.121 631.398C245.852 631.398 244.748 631.672 243.811 632.219C242.873 632.766 242.102 633.518 241.496 634.475C240.91 635.432 240.471 636.545 240.178 637.814C239.885 639.084 239.738 640.441 239.738 641.887ZM275.51 626.301V658H268.42V626.301H275.51ZM267.951 617.98C267.951 616.906 268.303 616.018 269.006 615.314C269.729 614.592 270.725 614.23 271.994 614.23C273.244 614.23 274.23 614.592 274.953 615.314C275.676 616.018 276.037 616.906 276.037 617.98C276.037 619.035 275.676 619.914 274.953 620.617C274.23 621.32 273.244 621.672 271.994 621.672C270.725 621.672 269.729 621.32 269.006 620.617C268.303 619.914 267.951 619.035 267.951 617.98ZM301.027 649.416C301.027 648.713 300.852 648.078 300.5 647.512C300.148 646.926 299.475 646.398 298.479 645.93C297.502 645.461 296.057 645.031 294.143 644.641C292.463 644.27 290.92 643.83 289.514 643.322C288.127 642.795 286.936 642.16 285.939 641.418C284.943 640.676 284.172 639.797 283.625 638.781C283.078 637.766 282.805 636.594 282.805 635.266C282.805 633.977 283.088 632.756 283.654 631.604C284.221 630.451 285.031 629.436 286.086 628.557C287.141 627.678 288.42 626.984 289.924 626.477C291.447 625.969 293.146 625.715 295.021 625.715C297.678 625.715 299.953 626.164 301.848 627.062C303.762 627.941 305.227 629.143 306.242 630.666C307.258 632.17 307.766 633.869 307.766 635.764H300.705C300.705 634.924 300.49 634.143 300.061 633.42C299.65 632.678 299.025 632.082 298.186 631.633C297.346 631.164 296.291 630.93 295.021 630.93C293.811 630.93 292.805 631.125 292.004 631.516C291.223 631.887 290.637 632.375 290.246 632.98C289.875 633.586 289.689 634.25 289.689 634.973C289.689 635.5 289.787 635.979 289.982 636.408C290.197 636.818 290.549 637.199 291.037 637.551C291.525 637.883 292.189 638.195 293.029 638.488C293.889 638.781 294.963 639.064 296.252 639.338C298.674 639.846 300.754 640.5 302.492 641.301C304.25 642.082 305.598 643.098 306.535 644.348C307.473 645.578 307.941 647.141 307.941 649.035C307.941 650.441 307.639 651.73 307.033 652.902C306.447 654.055 305.588 655.061 304.455 655.92C303.322 656.76 301.965 657.414 300.383 657.883C298.82 658.352 297.062 658.586 295.109 658.586C292.238 658.586 289.807 658.078 287.814 657.062C285.822 656.027 284.309 654.709 283.273 653.107C282.258 651.486 281.75 649.807 281.75 648.068H288.576C288.654 649.377 289.016 650.422 289.66 651.203C290.324 651.965 291.145 652.521 292.121 652.873C293.117 653.205 294.143 653.371 295.197 653.371C296.467 653.371 297.531 653.205 298.391 652.873C299.25 652.521 299.904 652.053 300.354 651.467C300.803 650.861 301.027 650.178 301.027 649.416ZM328.654 626.301V631.457H310.783V626.301H328.654ZM315.939 618.537H323V649.24C323 650.217 323.137 650.969 323.41 651.496C323.703 652.004 324.104 652.346 324.611 652.521C325.119 652.697 325.715 652.785 326.398 652.785C326.887 652.785 327.355 652.756 327.805 652.697C328.254 652.639 328.615 652.58 328.889 652.521L328.918 657.912C328.332 658.088 327.648 658.244 326.867 658.381C326.105 658.518 325.227 658.586 324.23 658.586C322.609 658.586 321.174 658.303 319.924 657.736C318.674 657.15 317.697 656.203 316.994 654.895C316.291 653.586 315.939 651.848 315.939 649.68V618.537ZM341.193 632.336V658H334.133V626.301H340.871L341.193 632.336ZM350.891 626.096L350.832 632.658C350.402 632.58 349.934 632.521 349.426 632.482C348.938 632.443 348.449 632.424 347.961 632.424C346.75 632.424 345.686 632.6 344.768 632.951C343.85 633.283 343.078 633.771 342.453 634.416C341.848 635.041 341.379 635.803 341.047 636.701C340.715 637.6 340.52 638.605 340.461 639.719L338.85 639.836C338.85 637.844 339.045 635.998 339.436 634.299C339.826 632.6 340.412 631.105 341.193 629.816C341.994 628.527 342.99 627.521 344.182 626.799C345.393 626.076 346.789 625.715 348.371 625.715C348.801 625.715 349.26 625.754 349.748 625.832C350.256 625.91 350.637 625.998 350.891 626.096ZM372.131 651.643V636.525C372.131 635.393 371.926 634.416 371.516 633.596C371.105 632.775 370.48 632.141 369.641 631.691C368.82 631.242 367.785 631.018 366.535 631.018C365.383 631.018 364.387 631.213 363.547 631.604C362.707 631.994 362.053 632.521 361.584 633.186C361.115 633.85 360.881 634.602 360.881 635.441H353.85C353.85 634.191 354.152 632.98 354.758 631.809C355.363 630.637 356.242 629.592 357.395 628.674C358.547 627.756 359.924 627.033 361.525 626.506C363.127 625.979 364.924 625.715 366.916 625.715C369.299 625.715 371.408 626.115 373.244 626.916C375.1 627.717 376.555 628.928 377.609 630.549C378.684 632.15 379.221 634.162 379.221 636.584V650.676C379.221 652.121 379.318 653.42 379.514 654.572C379.729 655.705 380.031 656.691 380.422 657.531V658H373.186C372.854 657.238 372.59 656.271 372.395 655.1C372.219 653.908 372.131 652.756 372.131 651.643ZM373.156 638.723L373.215 643.088H368.146C366.838 643.088 365.686 643.215 364.689 643.469C363.693 643.703 362.863 644.055 362.199 644.523C361.535 644.992 361.037 645.559 360.705 646.223C360.373 646.887 360.207 647.639 360.207 648.479C360.207 649.318 360.402 650.09 360.793 650.793C361.184 651.477 361.75 652.014 362.492 652.404C363.254 652.795 364.172 652.99 365.246 652.99C366.691 652.99 367.951 652.697 369.025 652.111C370.119 651.506 370.979 650.773 371.604 649.914C372.229 649.035 372.561 648.205 372.6 647.424L374.885 650.559C374.65 651.359 374.25 652.219 373.684 653.137C373.117 654.055 372.375 654.934 371.457 655.773C370.559 656.594 369.475 657.268 368.205 657.795C366.955 658.322 365.51 658.586 363.869 658.586C361.799 658.586 359.953 658.176 358.332 657.355C356.711 656.516 355.441 655.393 354.523 653.986C353.605 652.561 353.146 650.949 353.146 649.152C353.146 647.473 353.459 645.988 354.084 644.699C354.729 643.391 355.666 642.297 356.896 641.418C358.146 640.539 359.67 639.875 361.467 639.426C363.264 638.957 365.314 638.723 367.619 638.723H373.156ZM401.135 626.301V631.457H383.264V626.301H401.135ZM388.42 618.537H395.48V649.24C395.48 650.217 395.617 650.969 395.891 651.496C396.184 652.004 396.584 652.346 397.092 652.521C397.6 652.697 398.195 652.785 398.879 652.785C399.367 652.785 399.836 652.756 400.285 652.697C400.734 652.639 401.096 652.58 401.369 652.521L401.398 657.912C400.812 658.088 400.129 658.244 399.348 658.381C398.586 658.518 397.707 658.586 396.711 658.586C395.09 658.586 393.654 658.303 392.404 657.736C391.154 657.15 390.178 656.203 389.475 654.895C388.771 653.586 388.42 651.848 388.42 649.68V618.537ZM414.143 626.301V658H407.053V626.301H414.143ZM406.584 617.98C406.584 616.906 406.936 616.018 407.639 615.314C408.361 614.592 409.357 614.23 410.627 614.23C411.877 614.23 412.863 614.592 413.586 615.314C414.309 616.018 414.67 616.906 414.67 617.98C414.67 619.035 414.309 619.914 413.586 620.617C412.863 621.32 411.877 621.672 410.627 621.672C409.357 621.672 408.361 621.32 407.639 620.617C406.936 619.914 406.584 619.035 406.584 617.98ZM420.529 642.502V641.828C420.529 639.543 420.861 637.424 421.525 635.471C422.189 633.498 423.146 631.789 424.396 630.344C425.666 628.879 427.209 627.746 429.025 626.945C430.861 626.125 432.932 625.715 435.236 625.715C437.561 625.715 439.631 626.125 441.447 626.945C443.283 627.746 444.836 628.879 446.105 630.344C447.375 631.789 448.342 633.498 449.006 635.471C449.67 637.424 450.002 639.543 450.002 641.828V642.502C450.002 644.787 449.67 646.906 449.006 648.859C448.342 650.812 447.375 652.521 446.105 653.986C444.836 655.432 443.293 656.564 441.477 657.385C439.66 658.186 437.6 658.586 435.295 658.586C432.971 658.586 430.891 658.186 429.055 657.385C427.238 656.564 425.695 655.432 424.426 653.986C423.156 652.521 422.189 650.812 421.525 648.859C420.861 646.906 420.529 644.787 420.529 642.502ZM427.59 641.828V642.502C427.59 643.928 427.736 645.275 428.029 646.545C428.322 647.814 428.781 648.928 429.406 649.885C430.031 650.842 430.832 651.594 431.809 652.141C432.785 652.688 433.947 652.961 435.295 652.961C436.604 652.961 437.736 652.688 438.693 652.141C439.67 651.594 440.471 650.842 441.096 649.885C441.721 648.928 442.18 647.814 442.473 646.545C442.785 645.275 442.941 643.928 442.941 642.502V641.828C442.941 640.422 442.785 639.094 442.473 637.844C442.18 636.574 441.711 635.451 441.066 634.475C440.441 633.498 439.641 632.736 438.664 632.189C437.707 631.623 436.564 631.34 435.236 631.34C433.908 631.34 432.756 631.623 431.779 632.189C430.822 632.736 430.031 633.498 429.406 634.475C428.781 635.451 428.322 636.574 428.029 637.844C427.736 639.094 427.59 640.422 427.59 641.828ZM462.922 633.068V658H455.861V626.301H462.512L462.922 633.068ZM461.662 640.979L459.377 640.949C459.396 638.703 459.709 636.643 460.314 634.768C460.939 632.893 461.799 631.281 462.893 629.934C464.006 628.586 465.334 627.551 466.877 626.828C468.42 626.086 470.139 625.715 472.033 625.715C473.557 625.715 474.934 625.93 476.164 626.359C477.414 626.77 478.479 627.443 479.357 628.381C480.256 629.318 480.939 630.539 481.408 632.043C481.877 633.527 482.111 635.354 482.111 637.521V658H475.021V637.492C475.021 635.969 474.797 634.768 474.348 633.889C473.918 632.99 473.283 632.355 472.443 631.984C471.623 631.594 470.598 631.398 469.367 631.398C468.156 631.398 467.072 631.652 466.115 632.16C465.158 632.668 464.348 633.361 463.684 634.24C463.039 635.119 462.541 636.135 462.189 637.287C461.838 638.439 461.662 639.67 461.662 640.979Z" fill="white"/>
<path d="M914.999 719.408C951.45 719.408 980.999 682.637 980.999 637.278C980.999 591.919 951.45 555.148 914.999 555.148C878.549 555.148 849 591.919 849 637.278C849 682.637 878.549 719.408 914.999 719.408Z" fill="#FFA229"/>
<path d="M844.019 738.117C883.463 703.454 896.857 648.348 877.243 599.111C857.654 549.935 809.97 519.013 757.469 520.843L750.809 504.12C780.901 501.83 810.939 509.2 836.539 525.155C862.139 541.11 881.962 564.815 893.114 592.81C904.266 620.806 906.164 651.627 898.53 680.775C890.897 709.923 874.132 735.874 850.682 754.839L844.019 738.117Z" fill="#FFA229"/>
<path d="M765.823 769.161C713.306 771.005 665.662 740.13 646.047 690.894C626.461 641.72 639.848 586.546 679.274 551.887L672.609 535.164C649.157 554.128 632.39 580.079 624.756 609.228C617.122 638.377 619.019 669.199 630.172 697.195C641.325 725.192 661.148 748.897 686.75 764.852C712.351 780.806 742.391 788.175 772.484 785.883L765.823 769.161Z" fill="#FFA229"/>
<path d="M849.511 732.717C898.039 684.272 898.039 605.728 849.511 557.283C800.984 508.839 722.305 508.839 673.777 557.283C625.25 605.728 625.25 684.272 673.777 732.717C722.305 781.161 800.984 781.161 849.511 732.717Z" fill="white"/>
<path d="M836.294 570.482C877.52 611.637 877.52 678.363 836.294 719.518C795.068 760.673 728.228 760.673 687.002 719.518C645.776 678.363 645.776 611.637 687.002 570.482C728.228 529.327 795.068 529.327 836.294 570.482Z" fill="white" stroke="black"/>
<path d="M576.129 325.344V368H568.834V325.344H576.129ZM589.518 325.344V331.203H555.562V325.344H589.518ZM605.602 368.586C603.258 368.586 601.139 368.205 599.244 367.443C597.369 366.662 595.768 365.578 594.439 364.191C593.131 362.805 592.125 361.174 591.422 359.299C590.719 357.424 590.367 355.402 590.367 353.234V352.062C590.367 349.582 590.729 347.336 591.451 345.324C592.174 343.312 593.18 341.594 594.469 340.168C595.758 338.723 597.281 337.619 599.039 336.857C600.797 336.096 602.701 335.715 604.752 335.715C607.018 335.715 609 336.096 610.699 336.857C612.398 337.619 613.805 338.693 614.918 340.08C616.051 341.447 616.891 343.078 617.438 344.973C618.004 346.867 618.287 348.957 618.287 351.242V354.26H593.795V349.191H611.314V348.635C611.275 347.365 611.021 346.174 610.553 345.061C610.104 343.947 609.41 343.049 608.473 342.365C607.535 341.682 606.285 341.34 604.723 341.34C603.551 341.34 602.506 341.594 601.588 342.102C600.689 342.59 599.938 343.303 599.332 344.24C598.727 345.178 598.258 346.311 597.926 347.639C597.613 348.947 597.457 350.422 597.457 352.062V353.234C597.457 354.621 597.643 355.91 598.014 357.102C598.404 358.273 598.971 359.299 599.713 360.178C600.455 361.057 601.354 361.75 602.408 362.258C603.463 362.746 604.664 362.99 606.012 362.99C607.711 362.99 609.225 362.648 610.553 361.965C611.881 361.281 613.033 360.314 614.01 359.064L617.73 362.668C617.047 363.664 616.158 364.621 615.064 365.539C613.971 366.438 612.633 367.17 611.051 367.736C609.488 368.303 607.672 368.586 605.602 368.586ZM641.578 359.416C641.578 358.713 641.402 358.078 641.051 357.512C640.699 356.926 640.025 356.398 639.029 355.93C638.053 355.461 636.607 355.031 634.693 354.641C633.014 354.27 631.471 353.83 630.064 353.322C628.678 352.795 627.486 352.16 626.49 351.418C625.494 350.676 624.723 349.797 624.176 348.781C623.629 347.766 623.355 346.594 623.355 345.266C623.355 343.977 623.639 342.756 624.205 341.604C624.771 340.451 625.582 339.436 626.637 338.557C627.691 337.678 628.971 336.984 630.475 336.477C631.998 335.969 633.697 335.715 635.572 335.715C638.229 335.715 640.504 336.164 642.398 337.062C644.312 337.941 645.777 339.143 646.793 340.666C647.809 342.17 648.316 343.869 648.316 345.764H641.256C641.256 344.924 641.041 344.143 640.611 343.42C640.201 342.678 639.576 342.082 638.736 341.633C637.896 341.164 636.842 340.93 635.572 340.93C634.361 340.93 633.355 341.125 632.555 341.516C631.773 341.887 631.188 342.375 630.797 342.98C630.426 343.586 630.24 344.25 630.24 344.973C630.24 345.5 630.338 345.979 630.533 346.408C630.748 346.818 631.1 347.199 631.588 347.551C632.076 347.883 632.74 348.195 633.58 348.488C634.439 348.781 635.514 349.064 636.803 349.338C639.225 349.846 641.305 350.5 643.043 351.301C644.801 352.082 646.148 353.098 647.086 354.348C648.023 355.578 648.492 357.141 648.492 359.035C648.492 360.441 648.189 361.73 647.584 362.902C646.998 364.055 646.139 365.061 645.006 365.92C643.873 366.76 642.516 367.414 640.934 367.883C639.371 368.352 637.613 368.586 635.66 368.586C632.789 368.586 630.357 368.078 628.365 367.062C626.373 366.027 624.859 364.709 623.824 363.107C622.809 361.486 622.301 359.807 622.301 358.068H629.127C629.205 359.377 629.566 360.422 630.211 361.203C630.875 361.965 631.695 362.521 632.672 362.873C633.668 363.205 634.693 363.371 635.748 363.371C637.018 363.371 638.082 363.205 638.941 362.873C639.801 362.521 640.455 362.053 640.904 361.467C641.354 360.861 641.578 360.178 641.578 359.416ZM669.205 336.301V341.457H651.334V336.301H669.205ZM656.49 328.537H663.551V359.24C663.551 360.217 663.688 360.969 663.961 361.496C664.254 362.004 664.654 362.346 665.162 362.521C665.67 362.697 666.266 362.785 666.949 362.785C667.438 362.785 667.906 362.756 668.355 362.697C668.805 362.639 669.166 362.58 669.439 362.521L669.469 367.912C668.883 368.088 668.199 368.244 667.418 368.381C666.656 368.518 665.777 368.586 664.781 368.586C663.16 368.586 661.725 368.303 660.475 367.736C659.225 367.15 658.248 366.203 657.545 364.895C656.842 363.586 656.49 361.848 656.49 359.68V328.537ZM682.213 336.301V368H675.123V336.301H682.213ZM674.654 327.98C674.654 326.906 675.006 326.018 675.709 325.314C676.432 324.592 677.428 324.23 678.697 324.23C679.947 324.23 680.934 324.592 681.656 325.314C682.379 326.018 682.74 326.906 682.74 327.98C682.74 329.035 682.379 329.914 681.656 330.617C680.934 331.32 679.947 331.672 678.697 331.672C677.428 331.672 676.432 331.32 675.709 330.617C675.006 329.914 674.654 329.035 674.654 327.98ZM696.949 343.068V368H689.889V336.301H696.539L696.949 343.068ZM695.689 350.979L693.404 350.949C693.424 348.703 693.736 346.643 694.342 344.768C694.967 342.893 695.826 341.281 696.92 339.934C698.033 338.586 699.361 337.551 700.904 336.828C702.447 336.086 704.166 335.715 706.061 335.715C707.584 335.715 708.961 335.93 710.191 336.359C711.441 336.77 712.506 337.443 713.385 338.381C714.283 339.318 714.967 340.539 715.436 342.043C715.904 343.527 716.139 345.354 716.139 347.521V368H709.049V347.492C709.049 345.969 708.824 344.768 708.375 343.889C707.945 342.99 707.311 342.355 706.471 341.984C705.65 341.594 704.625 341.398 703.395 341.398C702.184 341.398 701.1 341.652 700.143 342.16C699.186 342.668 698.375 343.361 697.711 344.24C697.066 345.119 696.568 346.135 696.217 347.287C695.865 348.439 695.689 349.67 695.689 350.979ZM743.648 336.301H750.064V367.121C750.064 369.973 749.459 372.395 748.248 374.387C747.037 376.379 745.348 377.893 743.18 378.928C741.012 379.982 738.502 380.51 735.65 380.51C734.439 380.51 733.092 380.334 731.607 379.982C730.143 379.631 728.717 379.064 727.33 378.283C725.963 377.521 724.82 376.516 723.902 375.266L727.213 371.105C728.346 372.453 729.596 373.439 730.963 374.064C732.33 374.689 733.766 375.002 735.27 375.002C736.891 375.002 738.268 374.699 739.4 374.094C740.553 373.508 741.441 372.639 742.066 371.486C742.691 370.334 743.004 368.928 743.004 367.268V343.479L743.648 336.301ZM722.115 352.502V351.887C722.115 349.484 722.408 347.297 722.994 345.324C723.58 343.332 724.42 341.623 725.514 340.197C726.607 338.752 727.936 337.648 729.498 336.887C731.061 336.105 732.828 335.715 734.801 335.715C736.852 335.715 738.6 336.086 740.045 336.828C741.51 337.57 742.73 338.635 743.707 340.021C744.684 341.389 745.445 343.029 745.992 344.943C746.559 346.838 746.979 348.947 747.252 351.271V353.234C746.998 355.5 746.568 357.57 745.963 359.445C745.357 361.32 744.557 362.941 743.561 364.309C742.564 365.676 741.334 366.73 739.869 367.473C738.424 368.215 736.715 368.586 734.742 368.586C732.809 368.586 731.061 368.186 729.498 367.385C727.955 366.584 726.627 365.461 725.514 364.016C724.42 362.57 723.58 360.871 722.994 358.918C722.408 356.945 722.115 354.807 722.115 352.502ZM729.176 351.887V352.502C729.176 353.947 729.312 355.295 729.586 356.545C729.879 357.795 730.318 358.898 730.904 359.855C731.51 360.793 732.271 361.535 733.189 362.082C734.127 362.609 735.23 362.873 736.5 362.873C738.16 362.873 739.518 362.521 740.572 361.818C741.646 361.115 742.467 360.168 743.033 358.977C743.619 357.766 744.029 356.418 744.264 354.934V349.631C744.146 348.479 743.902 347.404 743.531 346.408C743.18 345.412 742.701 344.543 742.096 343.801C741.49 343.039 740.729 342.453 739.811 342.043C738.893 341.613 737.809 341.398 736.559 341.398C735.289 341.398 734.186 341.672 733.248 342.219C732.311 342.766 731.539 343.518 730.934 344.475C730.348 345.432 729.908 346.545 729.615 347.814C729.322 349.084 729.176 350.441 729.176 351.887Z" fill="white"/>
<path d="M910.999 990.111C947.45 990.111 976.999 953.34 976.999 907.981C976.999 862.622 947.45 825.852 910.999 825.852C874.549 825.852 845 862.622 845 907.981C845 953.34 874.549 990.111 910.999 990.111Z" fill="#1C4670"/>
<path d="M907.284 825.852H81.8633V990.109H907.284V825.852Z" fill="#1C4670"/>
<path d="M532.48 915.113H539.805C539.57 917.906 538.789 920.396 537.461 922.584C536.133 924.752 534.268 926.461 531.865 927.711C529.463 928.961 526.543 929.586 523.105 929.586C520.469 929.586 518.096 929.117 515.986 928.18C513.877 927.223 512.07 925.875 510.566 924.137C509.062 922.379 507.91 920.26 507.109 917.779C506.328 915.299 505.938 912.525 505.938 909.459V905.914C505.938 902.848 506.338 900.074 507.139 897.594C507.959 895.113 509.131 892.994 510.654 891.236C512.178 889.459 514.004 888.102 516.133 887.164C518.281 886.227 520.693 885.758 523.369 885.758C526.768 885.758 529.639 886.383 531.982 887.633C534.326 888.883 536.143 890.611 537.432 892.818C538.74 895.025 539.541 897.555 539.834 900.406H532.51C532.314 898.57 531.885 896.998 531.221 895.689C530.576 894.381 529.619 893.385 528.35 892.701C527.08 891.998 525.42 891.646 523.369 891.646C521.689 891.646 520.225 891.959 518.975 892.584C517.725 893.209 516.68 894.127 515.84 895.338C515 896.549 514.365 898.043 513.936 899.82C513.525 901.578 513.32 903.59 513.32 905.855V909.459C513.32 911.607 513.506 913.561 513.877 915.318C514.268 917.057 514.854 918.551 515.635 919.801C516.436 921.051 517.451 922.018 518.682 922.701C519.912 923.385 521.387 923.727 523.105 923.727C525.195 923.727 526.885 923.395 528.174 922.73C529.482 922.066 530.469 921.1 531.133 919.83C531.816 918.541 532.266 916.969 532.48 915.113ZM544.434 913.502V912.828C544.434 910.543 544.766 908.424 545.43 906.471C546.094 904.498 547.051 902.789 548.301 901.344C549.57 899.879 551.113 898.746 552.93 897.945C554.766 897.125 556.836 896.715 559.141 896.715C561.465 896.715 563.535 897.125 565.352 897.945C567.188 898.746 568.74 899.879 570.01 901.344C571.279 902.789 572.246 904.498 572.91 906.471C573.574 908.424 573.906 910.543 573.906 912.828V913.502C573.906 915.787 573.574 917.906 572.91 919.859C572.246 921.812 571.279 923.521 570.01 924.986C568.74 926.432 567.197 927.564 565.381 928.385C563.564 929.186 561.504 929.586 559.199 929.586C556.875 929.586 554.795 929.186 552.959 928.385C551.143 927.564 549.6 926.432 548.33 924.986C547.061 923.521 546.094 921.812 545.43 919.859C544.766 917.906 544.434 915.787 544.434 913.502ZM551.494 912.828V913.502C551.494 914.928 551.641 916.275 551.934 917.545C552.227 918.814 552.686 919.928 553.311 920.885C553.936 921.842 554.736 922.594 555.713 923.141C556.689 923.688 557.852 923.961 559.199 923.961C560.508 923.961 561.641 923.688 562.598 923.141C563.574 922.594 564.375 921.842 565 920.885C565.625 919.928 566.084 918.814 566.377 917.545C566.689 916.275 566.846 914.928 566.846 913.502V912.828C566.846 911.422 566.689 910.094 566.377 908.844C566.084 907.574 565.615 906.451 564.971 905.475C564.346 904.498 563.545 903.736 562.568 903.189C561.611 902.623 560.469 902.34 559.141 902.34C557.812 902.34 556.66 902.623 555.684 903.189C554.727 903.736 553.936 904.498 553.311 905.475C552.686 906.451 552.227 907.574 551.934 908.844C551.641 910.094 551.494 911.422 551.494 912.828ZM586.885 903.746V929H579.824V897.301H586.475L586.885 903.746ZM585.742 911.979L583.34 911.949C583.34 909.762 583.613 907.74 584.16 905.885C584.707 904.029 585.508 902.418 586.562 901.051C587.617 899.664 588.926 898.6 590.488 897.857C592.07 897.096 593.896 896.715 595.967 896.715C597.412 896.715 598.73 896.93 599.922 897.359C601.133 897.77 602.178 898.424 603.057 899.322C603.955 900.221 604.639 901.373 605.107 902.779C605.596 904.186 605.84 905.885 605.84 907.877V929H598.779V908.492C598.779 906.949 598.545 905.738 598.076 904.859C597.627 903.98 596.973 903.355 596.113 902.984C595.273 902.594 594.268 902.398 593.096 902.398C591.768 902.398 590.635 902.652 589.697 903.16C588.779 903.668 588.027 904.361 587.441 905.24C586.855 906.119 586.426 907.135 586.152 908.287C585.879 909.439 585.742 910.67 585.742 911.979ZM605.4 910.104L602.09 910.836C602.09 908.922 602.354 907.115 602.881 905.416C603.428 903.697 604.219 902.193 605.254 900.904C606.309 899.596 607.607 898.57 609.15 897.828C610.693 897.086 612.461 896.715 614.453 896.715C616.074 896.715 617.52 896.939 618.789 897.389C620.078 897.818 621.172 898.502 622.07 899.439C622.969 900.377 623.652 901.598 624.121 903.102C624.59 904.586 624.824 906.383 624.824 908.492V929H617.734V908.463C617.734 906.861 617.5 905.621 617.031 904.742C616.582 903.863 615.938 903.258 615.098 902.926C614.258 902.574 613.252 902.398 612.08 902.398C610.986 902.398 610.02 902.604 609.18 903.014C608.359 903.404 607.666 903.961 607.1 904.684C606.533 905.387 606.104 906.197 605.811 907.115C605.537 908.033 605.4 909.029 605.4 910.104ZM639.18 903.395V941.188H632.119V897.301H638.623L639.18 903.395ZM659.834 912.857V913.473C659.834 915.777 659.561 917.916 659.014 919.889C658.486 921.842 657.695 923.551 656.641 925.016C655.605 926.461 654.326 927.584 652.803 928.385C651.279 929.186 649.521 929.586 647.529 929.586C645.557 929.586 643.828 929.225 642.344 928.502C640.879 927.76 639.639 926.715 638.623 925.367C637.607 924.02 636.787 922.438 636.162 920.621C635.557 918.785 635.127 916.773 634.873 914.586V912.213C635.127 909.889 635.557 907.779 636.162 905.885C636.787 903.99 637.607 902.359 638.623 900.992C639.639 899.625 640.879 898.57 642.344 897.828C643.809 897.086 645.518 896.715 647.471 896.715C649.463 896.715 651.23 897.105 652.773 897.887C654.316 898.648 655.615 899.742 656.67 901.168C657.725 902.574 658.516 904.273 659.043 906.266C659.57 908.238 659.834 910.436 659.834 912.857ZM652.773 913.473V912.857C652.773 911.393 652.637 910.035 652.363 908.785C652.09 907.516 651.66 906.402 651.074 905.445C650.488 904.488 649.736 903.746 648.818 903.219C647.92 902.672 646.836 902.398 645.566 902.398C644.316 902.398 643.242 902.613 642.344 903.043C641.445 903.453 640.693 904.029 640.088 904.771C639.482 905.514 639.014 906.383 638.682 907.379C638.35 908.355 638.115 909.42 637.979 910.572V916.256C638.213 917.662 638.613 918.951 639.18 920.123C639.746 921.295 640.547 922.232 641.582 922.936C642.637 923.619 643.984 923.961 645.625 923.961C646.895 923.961 647.979 923.688 648.877 923.141C649.775 922.594 650.508 921.842 651.074 920.885C651.66 919.908 652.09 918.785 652.363 917.516C652.637 916.246 652.773 914.898 652.773 913.473ZM673.398 884V929H666.309V884H673.398ZM688.691 897.301V929H681.602V897.301H688.691ZM681.133 888.98C681.133 887.906 681.484 887.018 682.188 886.314C682.91 885.592 683.906 885.23 685.176 885.23C686.426 885.23 687.412 885.592 688.135 886.314C688.857 887.018 689.219 887.906 689.219 888.98C689.219 890.035 688.857 890.914 688.135 891.617C687.412 892.32 686.426 892.672 685.176 892.672C683.906 892.672 682.91 892.32 682.188 891.617C681.484 890.914 681.133 890.035 681.133 888.98ZM714.297 922.643V907.525C714.297 906.393 714.092 905.416 713.682 904.596C713.271 903.775 712.646 903.141 711.807 902.691C710.986 902.242 709.951 902.018 708.701 902.018C707.549 902.018 706.553 902.213 705.713 902.604C704.873 902.994 704.219 903.521 703.75 904.186C703.281 904.85 703.047 905.602 703.047 906.441H696.016C696.016 905.191 696.318 903.98 696.924 902.809C697.529 901.637 698.408 900.592 699.561 899.674C700.713 898.756 702.09 898.033 703.691 897.506C705.293 896.979 707.09 896.715 709.082 896.715C711.465 896.715 713.574 897.115 715.41 897.916C717.266 898.717 718.721 899.928 719.775 901.549C720.85 903.15 721.387 905.162 721.387 907.584V921.676C721.387 923.121 721.484 924.42 721.68 925.572C721.895 926.705 722.197 927.691 722.588 928.531V929H715.352C715.02 928.238 714.756 927.271 714.561 926.1C714.385 924.908 714.297 923.756 714.297 922.643ZM715.322 909.723L715.381 914.088H710.312C709.004 914.088 707.852 914.215 706.855 914.469C705.859 914.703 705.029 915.055 704.365 915.523C703.701 915.992 703.203 916.559 702.871 917.223C702.539 917.887 702.373 918.639 702.373 919.479C702.373 920.318 702.568 921.09 702.959 921.793C703.35 922.477 703.916 923.014 704.658 923.404C705.42 923.795 706.338 923.99 707.412 923.99C708.857 923.99 710.117 923.697 711.191 923.111C712.285 922.506 713.145 921.773 713.77 920.914C714.395 920.035 714.727 919.205 714.766 918.424L717.051 921.559C716.816 922.359 716.416 923.219 715.85 924.137C715.283 925.055 714.541 925.934 713.623 926.773C712.725 927.594 711.641 928.268 710.371 928.795C709.121 929.322 707.676 929.586 706.035 929.586C703.965 929.586 702.119 929.176 700.498 928.355C698.877 927.516 697.607 926.393 696.689 924.986C695.771 923.561 695.312 921.949 695.312 920.152C695.312 918.473 695.625 916.988 696.25 915.699C696.895 914.391 697.832 913.297 699.062 912.418C700.312 911.539 701.836 910.875 703.633 910.426C705.43 909.957 707.48 909.723 709.785 909.723H715.322ZM735.771 904.068V929H728.711V897.301H735.361L735.771 904.068ZM734.512 911.979L732.227 911.949C732.246 909.703 732.559 907.643 733.164 905.768C733.789 903.893 734.648 902.281 735.742 900.934C736.855 899.586 738.184 898.551 739.727 897.828C741.27 897.086 742.988 896.715 744.883 896.715C746.406 896.715 747.783 896.93 749.014 897.359C750.264 897.77 751.328 898.443 752.207 899.381C753.105 900.318 753.789 901.539 754.258 903.043C754.727 904.527 754.961 906.354 754.961 908.521V929H747.871V908.492C747.871 906.969 747.646 905.768 747.197 904.889C746.768 903.99 746.133 903.355 745.293 902.984C744.473 902.594 743.447 902.398 742.217 902.398C741.006 902.398 739.922 902.652 738.965 903.16C738.008 903.668 737.197 904.361 736.533 905.24C735.889 906.119 735.391 907.135 735.039 908.287C734.688 909.439 734.512 910.67 734.512 911.979ZM775.117 923.961C776.27 923.961 777.305 923.736 778.223 923.287C779.16 922.818 779.912 922.174 780.479 921.354C781.064 920.533 781.387 919.586 781.445 918.512H788.096C788.057 920.562 787.451 922.428 786.279 924.107C785.107 925.787 783.555 927.125 781.621 928.121C779.688 929.098 777.549 929.586 775.205 929.586C772.783 929.586 770.674 929.176 768.877 928.355C767.08 927.516 765.586 926.363 764.395 924.898C763.203 923.434 762.305 921.744 761.699 919.83C761.113 917.916 760.82 915.865 760.82 913.678V912.652C760.82 910.465 761.113 908.414 761.699 906.5C762.305 904.566 763.203 902.867 764.395 901.402C765.586 899.938 767.08 898.795 768.877 897.975C770.674 897.135 772.773 896.715 775.176 896.715C777.715 896.715 779.941 897.223 781.855 898.238C783.77 899.234 785.273 900.631 786.367 902.428C787.48 904.205 788.057 906.275 788.096 908.639H781.445C781.387 907.467 781.094 906.412 780.566 905.475C780.059 904.518 779.336 903.756 778.398 903.189C777.48 902.623 776.377 902.34 775.088 902.34C773.662 902.34 772.48 902.633 771.543 903.219C770.605 903.785 769.873 904.566 769.346 905.562C768.818 906.539 768.438 907.643 768.203 908.873C767.988 910.084 767.881 911.344 767.881 912.652V913.678C767.881 914.986 767.988 916.256 768.203 917.486C768.418 918.717 768.789 919.82 769.316 920.797C769.863 921.754 770.605 922.525 771.543 923.111C772.48 923.678 773.672 923.961 775.117 923.961ZM807.49 929.586C805.146 929.586 803.027 929.205 801.133 928.443C799.258 927.662 797.656 926.578 796.328 925.191C795.02 923.805 794.014 922.174 793.311 920.299C792.607 918.424 792.256 916.402 792.256 914.234V913.062C792.256 910.582 792.617 908.336 793.34 906.324C794.062 904.312 795.068 902.594 796.357 901.168C797.646 899.723 799.17 898.619 800.928 897.857C802.686 897.096 804.59 896.715 806.641 896.715C808.906 896.715 810.889 897.096 812.588 897.857C814.287 898.619 815.693 899.693 816.807 901.08C817.939 902.447 818.779 904.078 819.326 905.973C819.893 907.867 820.176 909.957 820.176 912.242V915.26H795.684V910.191H813.203V909.635C813.164 908.365 812.91 907.174 812.441 906.061C811.992 904.947 811.299 904.049 810.361 903.365C809.424 902.682 808.174 902.34 806.611 902.34C805.439 902.34 804.395 902.594 803.477 903.102C802.578 903.59 801.826 904.303 801.221 905.24C800.615 906.178 800.146 907.311 799.814 908.639C799.502 909.947 799.346 911.422 799.346 913.062V914.234C799.346 915.621 799.531 916.91 799.902 918.102C800.293 919.273 800.859 920.299 801.602 921.178C802.344 922.057 803.242 922.75 804.297 923.258C805.352 923.746 806.553 923.99 807.9 923.99C809.6 923.99 811.113 923.648 812.441 922.965C813.77 922.281 814.922 921.314 815.898 920.064L819.619 923.668C818.936 924.664 818.047 925.621 816.953 926.539C815.859 927.438 814.521 928.17 812.939 928.736C811.377 929.303 809.561 929.586 807.49 929.586Z" fill="white"/>
<path d="M84.9993 990.111C121.45 990.111 150.999 953.34 150.999 907.981C150.999 862.622 121.45 825.852 84.9993 825.852C48.5489 825.852 19 862.622 19 907.981C19 953.34 48.5489 990.111 84.9993 990.111Z" fill="#1C4670"/>
<path d="M155.979 1008.82C116.535 974.151 103.141 919.051 122.755 869.814C142.344 820.64 190.029 789.716 242.531 791.547L249.192 774.823C219.1 772.533 189.062 779.903 163.461 795.858C137.861 811.813 118.039 835.518 106.887 863.513C95.7346 891.509 93.8369 922.33 101.47 951.478C109.104 980.627 125.869 1006.58 149.319 1025.54L155.979 1008.82Z" fill="#1C4670"/>
<path d="M234.176 1039.87C286.694 1041.72 334.338 1010.84 353.952 961.605C373.539 912.431 360.151 857.257 320.726 822.598L327.387 805.875C350.833 824.841 367.595 850.79 375.227 879.936C382.858 909.083 380.96 939.901 369.808 967.894C358.657 995.887 338.836 1019.59 313.239 1035.55C287.641 1051.5 257.606 1058.87 227.516 1056.58L234.176 1039.87Z" fill="#1C4670"/>
<path d="M326.218 1003.42C374.746 954.975 374.746 876.431 326.218 827.986C277.691 779.542 199.012 779.542 150.484 827.986C101.957 876.431 101.957 954.975 150.484 1003.42C199.012 1051.86 277.691 1051.86 326.218 1003.42Z" fill="white"/>
<path d="M313.351 990.575C354.772 949.224 354.772 882.182 313.351 840.832C271.93 799.481 204.773 799.481 163.351 840.832C121.93 882.182 121.93 949.224 163.351 990.575C204.773 1031.92 271.93 1031.92 313.351 990.575Z" fill="#FFA229"/>
<path d="M219.906 949.656C213.808 949.656 209.092 947.947 205.756 944.529C202.447 941.111 200.793 936.189 200.793 929.764V897.197C200.793 890.416 202.365 885.221 205.51 881.611C208.681 877.975 213.48 876.156 219.906 876.156C226.359 876.156 231.158 877.975 234.303 881.611C237.447 885.221 239.019 890.416 239.019 897.197V929.764C239.019 936.189 237.365 941.111 234.056 944.529C230.748 947.947 226.031 949.656 219.906 949.656ZM219.906 936.367C221.027 936.367 221.902 935.861 222.531 934.85C223.16 933.838 223.474 932.703 223.474 931.445V895.803C223.474 894.107 223.283 892.631 222.9 891.373C222.545 890.088 221.547 889.445 219.906 889.445C218.265 889.445 217.254 890.088 216.871 891.373C216.515 892.631 216.338 894.107 216.338 895.803V931.445C216.338 932.703 216.652 933.838 217.281 934.85C217.937 935.861 218.812 936.367 219.906 936.367ZM262.192 949.82C255.82 949.82 251.186 948.139 248.287 944.775C245.389 941.412 243.94 936.34 243.94 929.559V922.012H258.746V929.6C258.746 931.514 258.979 933.141 259.444 934.48C259.936 935.793 261.016 936.449 262.684 936.449C264.379 936.449 265.459 935.738 265.924 934.316C266.389 932.867 266.621 930.516 266.621 927.262V925.457C266.621 922.969 266.197 920.795 265.35 918.936C264.529 917.076 262.903 916.146 260.469 916.146C260.168 916.146 259.895 916.16 259.649 916.188C259.43 916.188 259.238 916.201 259.074 916.229V903.268C261.563 903.268 263.463 902.721 264.776 901.627C266.088 900.506 266.744 898.646 266.744 896.049C266.744 891.975 265.569 889.938 263.217 889.938C261.686 889.938 260.647 890.539 260.1 891.742C259.58 892.918 259.32 894.422 259.32 896.254V898.428H244.391C244.363 898.1 244.336 897.703 244.309 897.238C244.309 896.773 244.309 896.322 244.309 895.885C244.309 889.268 245.854 884.414 248.944 881.324C252.033 878.234 256.764 876.689 263.135 876.689C275.44 876.689 281.592 883.088 281.592 895.885C281.592 899.439 281.113 902.379 280.156 904.703C279.199 907 277.422 908.613 274.824 909.543C276.875 910.527 278.393 911.785 279.377 913.316C280.361 914.848 281.004 916.748 281.305 919.018C281.606 921.287 281.756 924.035 281.756 927.262C281.756 934.48 280.238 940.045 277.203 943.955C274.195 947.865 269.192 949.82 262.192 949.82Z" fill="white"/>
<path d="M836.294 570.482C877.52 611.637 877.52 678.363 836.294 719.518C795.068 760.673 728.228 760.673 687.002 719.518C645.776 678.363 645.776 611.637 687.002 570.482C728.228 529.327 795.068 529.327 836.294 570.482Z" fill="white" stroke="black"/>
<path d="M738.906 683.656C732.808 683.656 728.092 681.947 724.756 678.529C721.447 675.111 719.793 670.189 719.793 663.764V631.197C719.793 624.416 721.365 619.221 724.51 615.611C727.681 611.975 732.48 610.156 738.906 610.156C745.359 610.156 750.158 611.975 753.303 615.611C756.447 619.221 758.019 624.416 758.019 631.197V663.764C758.019 670.189 756.365 675.111 753.056 678.529C749.748 681.947 745.031 683.656 738.906 683.656ZM738.906 670.367C740.027 670.367 740.902 669.861 741.531 668.85C742.16 667.838 742.474 666.703 742.474 665.445V629.803C742.474 628.107 742.283 626.631 741.9 625.373C741.545 624.088 740.547 623.445 738.906 623.445C737.265 623.445 736.254 624.088 735.871 625.373C735.515 626.631 735.338 628.107 735.338 629.803V665.445C735.338 666.703 735.652 667.838 736.281 668.85C736.937 669.861 737.812 670.367 738.906 670.367ZM763.883 683V679.555C763.883 675.973 764.43 672.76 765.524 669.916C766.645 667.045 768.08 664.393 769.83 661.959C771.58 659.498 773.426 657.092 775.367 654.74C777.254 652.443 779.045 650.092 780.74 647.686C782.463 645.252 783.858 642.627 784.924 639.811C786.018 636.967 786.565 633.781 786.565 630.254C786.565 628.559 786.305 627.109 785.785 625.906C785.293 624.676 784.254 624.061 782.668 624.061C780.262 624.061 779.059 626.207 779.059 630.5V639.318H763.883C763.856 638.689 763.815 637.979 763.76 637.186C763.733 636.393 763.719 635.627 763.719 634.889C763.719 629.693 764.266 625.291 765.36 621.682C766.453 618.045 768.381 615.283 771.143 613.396C773.932 611.482 777.842 610.525 782.873 610.525C788.861 610.525 793.51 612.207 796.819 615.57C800.154 618.934 801.822 623.732 801.822 629.967C801.822 634.205 801.276 637.924 800.182 641.123C799.088 644.295 797.639 647.193 795.834 649.818C794.029 652.416 792.047 655.014 789.887 657.611C788.356 659.443 786.865 661.316 785.416 663.23C783.994 665.145 782.736 667.195 781.643 669.383H801.33V683H763.883Z" fill="#1C4670"/>
</g>
<defs>
<clipPath id="clip0_648_1792">
<rect width="1000" height="1091" fill="white"/>
</clipPath>
</defs>
</svg>
