<svg width="1080" height="1080" viewBox="0 0 1080 1080" fill="none" xmlns="http://www.w3.org/2000/svg">
<g clip-path="url(#clip0_26_3937)">
<rect width="1080" height="1080" fill="white"/>
<path d="M1066.1 958H12.8975C9.64053 958 7 954.642 7 950.5C7 946.358 9.64053 943 12.8975 943H1066.1C1069.36 943 1072 946.358 1072 950.5C1072 954.642 1069.36 958 1066.1 958Z" fill="#FFA229"/>
<path d="M776.007 905.091C783.173 910.666 790.645 915.858 797.812 921.436C804.58 926.681 810.313 932.923 816.6 938.584C816.858 938.829 817.129 939.1 817.411 939.333C817.467 940.746 817.504 942.143 817.512 943.553H819.341C819.341 943.462 819.349 943.367 819.347 943.282C819.347 943.282 819.372 943.27 819.359 943.245C819.38 942.5 819.413 941.782 819.407 941.05C819.689 941.283 819.947 941.528 820.218 941.737C821.016 942.399 822.283 941.662 821.765 940.627C821.053 939.281 820.253 937.952 819.39 936.687C819.339 935.567 819.365 934.595 819.262 933.501C819.26 933.437 819.233 933.388 819.209 933.338C817.574 909.925 806.107 889.084 788.887 872.666C766.327 851.171 732.656 831.456 734.897 795.746C735.008 794.091 732.871 793.79 732.155 794.904C731.926 794.834 731.639 794.892 731.467 795.111C731.443 795.125 731.418 795.138 731.406 795.175C729.026 799.469 727.332 803.972 726.296 808.575C726.284 808.612 726.298 808.637 726.274 808.652C721.329 829.941 729.344 853.476 741.762 870.941C751.193 884.154 763.264 895.134 776.007 905.091Z" fill="#00838F"/>
<path d="M986.427 725.488C959.888 746.528 933.236 767.66 909.742 792.156C891.744 810.961 875.416 832.197 861.332 854.411C860.156 855.321 859.019 856.245 857.869 857.205C857.51 857.49 857.127 857.791 856.782 858.1C856.101 858.62 855.472 859.178 854.805 859.724C855.067 858.534 855.263 857.343 855.463 856.152C855.971 856.33 856.576 856.264 857.009 856.002C857.494 855.713 857.783 855.176 857.512 854.427C857.418 854.126 857.283 853.814 857.188 853.515L857.176 853.49C856.813 852.504 856.45 851.58 856.035 850.618C856.217 847.651 856.194 844.663 855.983 841.679C855.926 840.307 855.791 838.91 855.581 837.554C855.591 837.453 855.577 837.364 855.538 837.29C853.165 817.779 843.507 798.784 833.782 781.645C814.071 747.056 796.356 710.641 793.758 670.255C793.686 668.858 792.404 667.942 791.251 668.171L791.226 668.184C790.986 668.215 790.751 668.31 790.528 668.491C790.318 668.636 790.134 668.828 789.951 669.085C773.277 694.781 768.785 727.57 779.651 756.42C786.127 773.562 797.299 788.5 809.853 801.648C824.969 817.523 843.804 830.913 852.867 851.373C853.402 852.622 853.897 853.858 854.382 855.131C854.436 855.23 854.512 855.317 854.551 855.391C854.378 857.11 854.118 858.843 853.819 860.566L852.226 861.891C851.175 862.799 851.966 864.167 853.028 864.369C852.467 866.74 851.757 869.128 850.895 871.532C850.835 871.66 851.049 871.705 851.085 871.59C851.107 871.513 851.12 871.476 851.157 871.425C851.25 871.598 851.489 871.631 851.623 871.464C852.405 870.411 853.175 869.396 853.982 868.393C854.006 868.381 853.994 868.356 854.019 868.342L854.054 868.228C856.093 865.519 858.107 862.76 860.094 860.013C860.62 859.32 861.144 858.627 861.656 857.908C864.896 855.296 868.187 852.783 871.518 850.282C871.542 850.269 871.542 850.269 871.542 850.269C891.734 835.119 913.149 821.615 931.523 804.24C942.255 794.108 951.147 782.85 958.491 770.052C965.495 757.817 972.93 746.819 981.543 736.059L981.555 736.022C983.769 733.22 986.085 730.428 988.474 727.661C988.99 727.068 988.998 726.425 988.722 725.903L988.71 725.878C988.324 725.154 987.319 724.761 986.427 725.488ZM855.81 863.247C855.798 863.284 855.798 863.284 855.773 863.298L855.76 863.338L855.748 863.375C855.763 863.4 855.736 863.414 855.736 863.414C855.748 863.439 855.723 863.451 855.723 863.451C854.258 865.919 852.793 868.389 851.365 870.869C852.259 868.705 853.026 866.542 853.654 864.359C853.854 864.316 854.054 864.21 854.25 864.041C854.842 863.536 855.437 863.03 856.041 862.547C856.188 862.405 856.361 862.25 856.522 862.132C856.272 862.553 856.118 862.923 855.81 863.247Z" fill="#00838F"/>
<path d="M892.22 567.723C891.815 568.224 891.413 568.725 891.033 569.215C879.127 584.051 868.485 598.025 861.919 616.315C855.435 634.399 852.788 653.768 854.445 672.892C856.298 693.891 863.852 713.971 868.427 734.449C871.31 747.404 872.99 760.136 873.126 773.081L873.138 773.105C873.192 778.502 872.981 783.877 872.484 789.374C875.602 780.159 878.757 770.891 881.836 761.663C881.848 761.626 881.848 761.626 881.859 761.587C890.4 735.71 898.113 709.6 902.023 682.512C907.391 645.239 903.866 609.239 894.314 573.245C894.302 573.22 894.302 573.22 894.302 573.22C893.771 571.076 893.192 568.961 892.572 566.831C892.546 567.135 892.478 567.425 892.22 567.723Z" fill="#00838F"/>
<path d="M982.187 654.988C937.155 691.075 901.051 736.844 876.842 789.223C876.768 789.262 876.691 789.301 876.631 789.367L876.607 789.379C874.172 790.863 871.751 792.372 869.291 793.868C869.056 794.024 868.858 794.194 868.712 794.398C868.332 794.885 868.233 795.481 868.334 796.034L868.346 796.059C868.615 797.289 869.836 798.267 871.19 797.452C872.593 796.612 873.984 795.745 875.375 794.881C898.35 780.711 920.743 765.443 936.216 742.779C953.857 716.985 968.114 688.298 982.736 660.661C982.748 660.624 982.773 660.609 982.783 660.572C983.398 659.386 984.036 658.185 984.651 656.996C984.698 656.907 984.723 656.831 984.746 656.755C985.344 655.227 983.559 653.909 982.187 654.988Z" fill="#00838F"/>
<path d="M810.237 831.178C791.719 801.125 759.881 780.661 753.878 743.773C753.698 742.593 752.353 742.7 751.841 743.482C751.732 743.637 751.622 743.79 751.577 744.006C750.717 749.122 750.133 754.153 749.912 759.089C749.621 763.773 749.631 768.362 749.953 772.881C751.226 792.305 757.823 810.34 771.226 826.772C790.73 850.625 817.269 868.317 832.663 895.306C833.167 897.879 833.431 900.481 833.237 902.945C833.237 902.945 833.249 902.97 833.225 902.982C833.225 902.982 833.237 903.007 833.212 903.02C833.076 905.23 832.622 907.258 831.648 909.21C831.107 910.358 832.736 911.441 833.363 910.279C834.983 907.378 835.624 904.26 835.686 901.07L835.911 901.493C835.965 901.592 836.031 901.715 836.107 901.802C836.289 902.025 836.532 902.182 836.786 902.24C837.878 902.553 839.3 901.385 838.65 900.038C837.907 898.517 837.154 897.035 836.363 895.603C835.847 894.633 835.284 893.688 834.758 892.756C833.501 887.137 831.275 881.555 829.743 876.561C824.878 860.833 818.906 845.243 810.237 831.178Z" fill="#00838F"/>
<path d="M975.051 799.237C974.925 799.239 974.787 799.28 974.65 799.385C944.723 818.968 915.854 840.13 888.416 863.082C870.896 877.678 852.915 892.483 837.75 909.656C837.626 909.786 837.517 909.939 837.395 910.069C837.37 910.081 837.37 910.081 837.358 910.12C837.333 910.133 837.345 910.157 837.345 910.157C835.038 912.722 832.833 915.36 830.705 918.083C830.455 918.216 830.208 918.348 829.948 918.519C828.654 921.375 827.348 924.142 826.052 926.872C827.62 925.562 829.281 924.361 831.019 923.246C831.204 923.116 831.39 922.984 831.59 922.879C833.068 921.936 834.597 921.028 836.163 920.197L837.632 919.417C837.731 919.363 837.857 919.297 837.969 919.27C848.651 913.793 860.824 910.108 870.938 905.061C885.446 897.838 899.455 889.192 911.271 877.977C932.22 858.181 946.221 832.501 965.666 811.428C965.703 811.376 965.738 811.325 965.79 811.298C969.009 807.804 972.378 804.418 975.983 801.23C976.794 800.481 976.004 799.051 975.051 799.237Z" fill="#00838F"/>
<path d="M821.482 943.543C821.856 942.81 822.229 942.094 822.609 941.353C824.739 937.129 826.889 932.765 829.037 928.275C829.493 927.332 829.924 926.399 830.368 925.431C830.789 924.602 831.183 923.722 831.592 922.866C831.687 922.625 831.819 922.394 831.926 922.115L831.951 922.103C832.299 921.376 832.646 920.648 832.983 919.897C834.431 916.735 835.878 913.51 837.361 910.171L837.349 910.147C837.349 910.147 837.336 910.122 837.361 910.109C837.374 910.072 837.374 910.072 837.398 910.058C837.493 909.816 837.613 909.561 837.733 909.305C843.145 896.956 848.676 883.269 853.989 868.389C854.014 868.375 854.002 868.352 854.026 868.337L854.061 868.224C854.629 866.647 855.194 865.069 855.737 863.443C855.737 863.443 855.762 863.43 855.749 863.406C855.749 863.406 855.774 863.391 855.762 863.366L855.774 863.329L855.786 863.29C855.811 863.278 855.811 863.278 855.824 863.238C855.894 863.009 855.989 862.768 856.059 862.539C856.684 860.77 857.285 859.016 857.883 857.201C864.354 838.07 870.407 817.183 875.39 794.884C875.642 793.856 875.871 792.843 876.085 791.803L876.11 791.791C876.176 791.374 876.279 790.968 876.37 790.536C876.449 790.144 876.527 789.75 876.62 789.383L876.645 789.37C878.558 780.347 880.326 771.112 881.851 761.657C881.863 761.62 881.863 761.62 881.874 761.581C886.248 734.875 888.908 706.499 889.007 676.96C889.013 675.125 887.515 673.631 885.681 673.633C883.855 673.635 882.387 675.119 882.383 676.945C882.367 685.777 882.101 694.51 881.614 703.111C881.601 703.148 881.616 703.175 881.628 703.2C880.285 727.553 877.282 750.939 873.139 773.079L873.151 773.104C871.787 780.336 870.32 787.433 868.723 794.405C868.622 794.938 868.471 795.495 868.345 796.042L868.358 796.066C864.765 811.725 860.663 826.664 856.288 840.727L855.995 841.681C855.421 843.484 854.858 845.251 854.297 847.017C853.801 848.492 853.333 849.953 852.877 851.375C847.578 867.363 841.973 882.175 836.373 895.613C836.183 896.096 835.968 896.593 835.764 897.053C835.609 897.423 835.455 897.792 835.3 898.162C834.609 899.804 833.93 901.41 833.247 902.953C833.247 902.953 833.259 902.978 833.234 902.99C833.234 902.99 833.247 903.015 833.222 903.027C831.109 907.945 829.016 912.66 826.957 917.136C825.651 919.967 824.369 922.722 823.061 925.425C821.777 928.116 820.506 930.769 819.219 933.334C818.499 934.802 817.776 936.269 817.054 937.674C816.897 937.981 816.765 938.275 816.608 938.58C815.752 940.276 814.904 941.904 814.054 943.551H821.482V943.543Z" fill="#22475C"/>
<path d="M943.954 706.244C923.684 737.16 899.495 765.121 871.811 789.619C868.808 792.277 872.925 796.938 875.923 794.284C903.991 769.446 928.578 741.039 949.129 709.694C951.324 706.345 946.149 702.895 943.954 706.244Z" fill="#22475C"/>
<path d="M929.776 785.611C903.33 810.941 876.882 836.271 850.436 861.603C847.547 864.37 851.655 869.04 854.55 866.269C880.996 840.939 907.445 815.609 933.891 790.279C936.778 787.51 932.671 782.838 929.776 785.611Z" fill="#22475C"/>
<path d="M923.567 845.845C889.57 868.81 857.105 893.909 826.319 921.026C823.31 923.677 827.427 928.337 830.434 925.691C861.219 898.573 893.685 873.476 927.681 850.511C930.995 848.272 926.84 843.633 923.567 845.845Z" fill="#22475C"/>
<path d="M857.894 856.607C855.927 834.096 843.887 814.901 831.225 796.82C815.975 775.044 802.29 754.169 797.94 727.42C797.298 723.468 791.215 724.766 791.857 728.716C795.73 752.535 806.644 772.549 820.334 792.105C834.427 812.235 849.599 832.606 851.811 857.905C852.157 861.877 858.238 860.554 857.894 856.607Z" fill="#22475C"/>
<path d="M839.384 901.721C832.18 881.443 820.641 863.362 808.221 845.921C794.366 826.466 780.105 807.292 766.026 788C763.663 784.762 759.02 788.906 761.36 792.114C774.909 810.68 788.58 829.161 801.98 847.834C814.686 865.541 826.495 883.873 833.829 904.517C835.168 908.283 840.709 905.45 839.384 901.721Z" fill="#22475C"/>
<path d="M771.561 885.597C789.373 902.501 805.85 919.212 815.702 942.119C816.001 942.812 816.438 943.275 816.944 943.545H819.496C820.968 942.893 822.076 941.228 821.257 939.323C812.012 917.823 797.128 901.296 780.32 885.355C763.511 869.415 746.26 853.255 738.282 830.901C736.939 827.135 731.396 829.968 732.727 833.697C740.207 854.654 755.731 870.574 771.561 885.597Z" fill="#22475C"/>
<path d="M294.673 943.558C294.797 943.451 294.917 943.348 295.047 943.241C295.047 943.346 295.053 943.453 295.053 943.558H296.652C296.669 942.981 296.671 942.403 296.693 941.823C296.926 941.631 297.151 941.406 297.364 941.204C302.56 936.526 307.298 931.367 312.89 927.034C318.812 922.426 324.988 918.136 330.911 913.528C341.441 905.301 351.418 896.227 359.21 885.307C369.472 870.875 376.096 851.424 372.01 833.832C371.989 833.822 372 833.802 371.991 833.771C371.135 829.967 369.736 826.245 367.769 822.698C367.759 822.667 367.738 822.654 367.718 822.644C367.575 822.465 367.338 822.417 367.148 822.475C366.556 821.554 364.79 821.802 364.883 823.17C366.734 852.681 338.909 868.972 320.267 886.735C306.037 900.301 296.561 917.525 295.21 936.873C295.187 936.914 295.166 936.955 295.164 937.007C295.08 937.911 295.102 938.713 295.059 939.64C294.347 940.686 293.685 941.784 293.094 942.896C292.969 943.15 292.981 943.377 293.066 943.563H294.673V943.558Z" fill="#00838F"/>
<path d="M155.143 765.424L155.133 765.444C154.904 765.876 154.912 766.408 155.337 766.897C157.314 769.186 159.227 771.493 161.055 773.808L161.066 773.839C168.183 782.731 174.328 791.818 180.114 801.93C186.181 812.505 193.529 821.81 202.398 830.181C217.582 844.541 235.278 855.699 251.964 868.22C251.964 868.22 251.964 868.22 251.985 868.231C254.738 870.296 257.457 872.374 260.134 874.533C260.557 875.127 260.99 875.699 261.425 876.272C263.068 878.542 264.731 880.822 266.417 883.061L266.446 883.156C266.467 883.167 266.456 883.187 266.477 883.2C267.143 884.029 267.781 884.867 268.427 885.736C268.538 885.874 268.736 885.847 268.813 885.703C268.844 885.746 268.852 885.777 268.873 885.839C268.902 885.934 269.079 885.897 269.03 885.791C268.318 883.804 267.729 881.831 267.265 879.873C268.144 879.706 268.796 878.577 267.93 877.826L266.613 876.732C266.365 875.309 266.151 873.877 266.006 872.457C266.039 872.395 266.103 872.323 266.147 872.242C266.547 871.19 266.958 870.168 267.399 869.137C274.888 852.23 290.455 841.163 302.946 828.046C313.321 817.179 322.553 804.835 327.904 790.669C336.882 766.827 333.17 739.731 319.392 718.497C319.241 718.285 319.089 718.126 318.915 718.006C318.732 717.855 318.536 717.777 318.337 717.752L318.317 717.742C317.363 717.552 316.305 718.307 316.245 719.463C314.099 752.836 299.46 782.929 283.171 811.511C275.133 825.675 267.152 841.372 265.191 857.494C265.158 857.556 265.146 857.628 265.154 857.713C264.981 858.833 264.869 859.989 264.822 861.122C264.649 863.588 264.63 866.056 264.779 868.507C264.436 869.302 264.137 870.065 263.836 870.88L263.825 870.901C263.747 871.149 263.635 871.406 263.557 871.656C263.334 872.275 263.574 872.719 263.974 872.958C264.333 873.175 264.832 873.229 265.251 873.082C265.414 874.066 265.579 875.049 265.794 876.033C265.243 875.581 264.723 875.121 264.16 874.692C263.875 874.436 263.557 874.188 263.262 873.951C262.313 873.156 261.372 872.395 260.402 871.642C248.764 853.285 235.27 835.736 220.396 820.196C200.981 799.953 178.957 782.489 157.025 765.102C156.291 764.503 155.459 764.827 155.143 765.424ZM264.374 878.022C264.508 878.119 264.651 878.247 264.772 878.365C265.274 878.763 265.763 879.18 266.252 879.599C266.415 879.739 266.58 879.826 266.745 879.861C267.265 881.666 267.899 883.451 268.635 885.24C267.455 883.191 266.246 881.15 265.035 879.11C265.035 879.11 265.014 879.099 265.024 879.079C265.024 879.079 265.004 879.068 265.014 879.048L265.004 879.017L264.993 878.986C264.973 878.976 264.973 878.976 264.962 878.945C264.713 878.676 264.585 878.371 264.374 878.022Z" fill="#00838F"/>
<path d="M234.588 633.996C234.076 635.756 233.598 637.504 233.158 639.274C233.158 639.274 233.158 639.274 233.148 639.295C225.257 669.038 222.343 698.788 226.778 729.591C230.009 751.976 236.386 773.552 243.443 794.936C243.453 794.967 243.453 794.967 243.461 794.998C246.006 802.625 248.614 810.283 251.189 817.899C250.779 813.357 250.603 808.915 250.649 804.455L250.659 804.435C250.77 793.737 252.159 783.215 254.54 772.51C258.323 755.587 264.565 738.994 266.096 721.64C267.466 705.835 265.279 689.831 259.92 674.884C254.493 659.771 245.7 648.222 235.861 635.962C235.548 635.558 235.215 635.145 234.881 634.73C234.671 634.487 234.613 634.245 234.588 633.996Z" fill="#00838F"/>
<path d="M158.419 708.312C158.438 708.374 158.459 708.438 158.498 708.512C159.006 709.493 159.534 710.485 160.041 711.467C160.052 711.498 160.072 711.511 160.081 711.542C172.165 734.381 183.945 758.087 198.524 779.403C211.312 798.133 229.817 810.748 248.802 822.46C249.951 823.176 251.101 823.89 252.26 824.586C253.379 825.258 254.388 824.45 254.611 823.434L254.621 823.414C254.706 822.958 254.623 822.464 254.31 822.062C254.188 821.893 254.025 821.753 253.831 821.623C251.798 820.386 249.797 819.14 247.785 817.912L247.764 817.902C247.712 817.848 247.65 817.815 247.589 817.782C227.581 774.498 197.746 736.675 160.532 706.853C159.402 705.96 157.928 707.049 158.419 708.312Z" fill="#00838F"/>
<path d="M286.507 889.961C285.243 894.088 283.402 898.7 282.364 903.343C281.928 904.115 281.462 904.895 281.037 905.697C280.383 906.88 279.76 908.105 279.147 909.362C278.61 910.474 279.784 911.44 280.686 911.18C280.895 911.133 281.097 911.003 281.248 910.819C281.312 910.747 281.367 910.644 281.411 910.563L281.596 910.214C281.648 912.852 282.178 915.427 283.517 917.825C284.035 918.784 285.381 917.891 284.935 916.941C284.13 915.328 283.755 913.652 283.641 911.826C283.621 911.816 283.631 911.795 283.631 911.795C283.61 911.785 283.621 911.764 283.621 911.764C283.462 909.727 283.68 907.577 284.095 905.452C296.817 883.149 318.748 868.527 334.866 848.818C345.941 835.238 351.393 820.335 352.445 804.283C352.712 800.548 352.72 796.755 352.48 792.886C352.297 788.809 351.814 784.649 351.104 780.423C351.067 780.245 350.976 780.117 350.885 779.991C350.464 779.345 349.352 779.257 349.204 780.231C344.241 810.713 317.933 827.624 302.63 852.46C295.463 864.076 290.527 876.961 286.507 889.961Z" fill="#00838F"/>
<path d="M165.662 827.691C168.64 830.326 171.426 833.122 174.086 836.011C174.127 836.034 174.158 836.075 174.187 836.118C190.254 853.53 201.826 874.754 219.137 891.111C228.901 900.381 240.478 907.527 252.467 913.494C260.824 917.665 270.884 920.711 279.712 925.238C279.804 925.261 279.908 925.316 279.99 925.36L281.203 926.004C282.499 926.691 283.762 927.442 284.982 928.22C285.147 928.306 285.3 928.416 285.454 928.523C286.891 929.443 288.263 930.434 289.559 931.519C288.488 929.264 287.408 926.978 286.34 924.617C286.125 924.477 285.919 924.367 285.712 924.258C283.954 922.007 282.132 919.827 280.225 917.708C280.225 917.708 280.236 917.688 280.215 917.677C280.205 917.646 280.205 917.646 280.184 917.634C280.083 917.527 279.992 917.401 279.891 917.293C267.359 903.103 252.5 890.866 238.022 878.807C215.348 859.839 191.49 842.352 166.76 826.17C166.647 826.083 166.533 826.05 166.43 826.048C165.644 825.887 164.99 827.07 165.662 827.691Z" fill="#00838F"/>
<path d="M243.458 794.992C244.717 802.806 246.18 810.435 247.761 817.893L247.781 817.903C247.858 818.206 247.922 818.532 247.988 818.856C248.062 819.213 248.149 819.548 248.202 819.892L248.223 819.903C248.4 820.761 248.588 821.599 248.797 822.449C252.915 840.876 257.915 858.136 263.264 873.946C263.759 875.449 264.254 876.897 264.772 878.358C264.83 878.548 264.909 878.746 264.966 878.936C264.977 878.967 264.977 878.967 264.997 878.977L265.008 879.008L265.018 879.039C265.006 879.06 265.028 879.07 265.028 879.07C265.018 879.091 265.039 879.101 265.039 879.101C265.486 880.444 265.955 881.749 266.423 883.053L266.452 883.148C266.473 883.158 266.462 883.179 266.483 883.191C270.874 895.488 275.445 906.798 279.917 917.002C280.016 917.212 280.115 917.423 280.193 917.623C280.214 917.633 280.214 917.633 280.224 917.666C280.245 917.677 280.234 917.697 280.234 917.697L280.224 917.718C281.45 920.477 282.645 923.143 283.841 925.755C284.118 926.376 284.405 926.977 284.694 927.577L284.714 927.588C284.803 927.819 284.912 928.009 284.991 928.209C285.327 928.915 285.653 929.641 286.002 930.328C286.367 931.129 286.724 931.898 287.102 932.678C288.876 936.389 290.653 939.996 292.413 943.487C292.424 943.506 292.434 943.526 292.442 943.545H298.583C298.179 942.755 297.779 941.993 297.372 941.188C297.242 940.935 297.135 940.693 297.005 940.439C296.408 939.28 295.812 938.066 295.216 936.853C294.153 934.734 293.101 932.54 292.04 930.316C290.959 928.081 289.898 925.805 288.819 923.465C287.116 919.767 285.387 915.869 283.641 911.806C283.621 911.796 283.631 911.775 283.631 911.775C283.61 911.765 283.621 911.744 283.621 911.744C283.057 910.469 282.496 909.144 281.924 907.786C281.797 907.481 281.669 907.175 281.541 906.87C281.371 906.49 281.196 906.08 281.037 905.681C276.409 894.578 271.778 882.337 267.399 869.124C267.022 867.948 266.634 866.741 266.225 865.521C265.761 864.062 265.297 862.601 264.822 861.111L264.581 860.323C260.965 848.701 257.575 836.357 254.605 823.417L254.616 823.396C254.513 822.946 254.389 822.484 254.304 822.045C252.986 816.281 251.772 810.419 250.646 804.441L250.656 804.42C247.232 786.125 244.75 766.8 243.64 746.674C243.65 746.654 243.663 746.633 243.652 746.602C243.25 739.495 243.029 732.279 243.015 724.98C243.013 723.472 241.797 722.246 240.289 722.244C238.772 722.242 237.536 723.476 237.54 724.993C237.623 749.402 239.82 772.852 243.436 794.922C243.448 794.961 243.448 794.961 243.458 794.992Z" fill="#22475C"/>
<path d="M192.128 749.199C208.878 774.747 228.87 797.852 251.746 818.098C254.226 820.293 250.823 824.146 248.347 821.952C225.153 801.427 204.836 777.952 187.853 752.048C186.035 749.281 190.313 746.431 192.128 749.199Z" fill="#22475C"/>
<path d="M203.842 814.784C225.697 835.717 247.552 856.649 269.407 877.581C271.794 879.868 268.4 883.727 266.008 881.436C244.153 860.504 222.298 839.571 200.444 818.639C198.056 816.352 201.451 812.494 203.842 814.784Z" fill="#22475C"/>
<path d="M208.969 864.563C237.064 883.541 263.891 904.279 289.333 926.689C291.819 928.881 288.416 932.731 285.934 930.544C260.493 908.134 233.665 887.394 205.57 868.415C202.832 866.568 206.265 862.737 208.969 864.563Z" fill="#22475C"/>
<path d="M263.24 873.46C264.866 854.857 274.815 838.995 285.279 824.053C297.881 806.057 309.189 788.808 312.783 766.701C313.314 763.437 318.34 764.508 317.81 767.772C314.61 787.456 305.592 803.996 294.278 820.155C282.631 836.789 270.093 853.623 268.267 874.529C267.98 877.816 262.955 876.723 263.24 873.46Z" fill="#22475C"/>
<path d="M278.535 910.747C284.489 893.989 294.024 879.047 304.288 864.636C315.736 848.559 327.521 832.715 339.158 816.77C341.11 814.094 344.948 817.519 343.012 820.169C331.816 835.511 320.518 850.783 309.445 866.214C298.946 880.847 289.187 895.997 283.127 913.056C282.018 916.17 277.44 913.828 278.535 910.747Z" fill="#22475C"/>
<path d="M298.372 943.547C306.54 924.915 320.019 911.238 334.589 897.411C347.67 884.996 360.499 871.839 366.681 854.522C367.781 851.443 363.202 849.101 362.09 852.211C355.497 870.684 341.242 884.037 327.35 897.21C313.461 910.382 301.162 924.042 293.521 941.807C293.253 942.43 293.244 943.021 293.395 943.545H298.372V943.547Z" fill="#22475C"/>
<path d="M958.295 544.215C959.781 550.812 961.266 557.412 962.752 564.011C962.979 565.022 963.206 566.043 963.425 567.071C952.608 572.96 939.442 577.071 926.803 577.296C926.046 574.339 925.301 571.382 924.531 568.429C922.03 558.817 919.449 549.226 916.828 539.645C930.119 539.087 943.285 535.54 954.783 528.074C955.928 533.456 957.083 538.84 958.295 544.215Z" fill="#A87536"/>
<path d="M918.893 458.817C923.322 456.415 928.646 456.083 934.677 459.279C937.944 461.01 939.749 464.626 940.771 468.177C946.46 487.935 950.517 508.007 954.782 528.079C943.284 535.543 930.121 539.092 916.828 539.649C916.52 538.527 916.234 537.398 915.924 536.278C910.076 514.996 891.521 473.666 918.893 458.817Z" fill="#3D84A8"/>
<path d="M967.562 559.718C967.148 580.908 929.771 579.687 915.57 580.477C887.737 582.027 859.735 580.535 832.222 576.036C832.506 572.98 837.711 568.511 837.993 565.455C869.887 560.545 892.869 549.324 924.763 544.413C932.274 543.257 939.973 542.102 947.591 542.851C954.721 543.55 967.682 553.36 967.562 559.718Z" fill="#A87536"/>
<path d="M807.089 568.08C806.001 569.275 803.11 568.627 803.337 567.091C803.822 563.827 807.097 561.796 811.315 561.153C813.876 560.76 816.629 560.806 819.243 560.763C819.604 560.756 819.961 560.744 820.312 560.732C820.269 560.302 820.225 559.875 820.165 559.452C817.753 558.883 815.155 558.614 812.646 558.682C811.416 558.718 810.3 559.184 809.318 559.714C808.335 560.247 807.423 560.86 806.332 561.264C805.172 561.693 803.729 561.856 802.572 561.351C801.204 560.754 801.119 559.314 802.308 558.577C804.992 556.91 807.667 554.233 810.888 553.786C810.956 553.775 811.024 553.767 811.092 553.757C821.397 552.35 832.761 555.018 840.677 561.968C841.983 563.115 843.688 564.304 844.371 566.008C845.134 567.915 843.873 570.007 843.042 571.687C842.414 572.956 841.641 574.175 840.815 575.37C837.565 577.186 833.535 578.193 829.474 577.576C825.956 577.042 822.392 575.876 820.06 573.884C819.941 573.928 819.817 573.969 819.703 574.014C818.013 574.683 817.2 576.111 815.504 576.678C814.672 576.957 813.346 576.718 813.009 576C812.023 573.907 814.307 571.912 816.521 570.816C816.544 570.806 816.569 570.793 816.594 570.783C814.419 571.045 812.477 571.621 810.657 572.679C808.558 573.901 805.583 572.019 807.037 570.3C808.925 568.072 812.246 566.726 815.723 566.282C817.085 566.109 818.727 565.983 820.366 566.012C820.372 565.932 820.374 565.851 820.38 565.773C815.432 565.688 810.031 564.844 807.089 568.08Z" fill="#A87536"/>
<path d="M931.925 452.492C918.939 452.601 906.449 461.328 901.88 473.484C897.681 484.658 899.942 497.209 903.65 508.554C907.359 519.899 912.488 530.912 914.048 542.746C892.355 549.876 870.384 556.269 848.69 563.398C849.603 569.793 850.558 576.279 851.468 582.676C886.519 588.61 922.767 586.72 957.218 577.95C962.927 576.497 965.969 571.07 970.577 567.399C966.107 545.161 962.816 522.027 958.346 499.788C956.471 490.457 954.566 481.03 950.62 472.37C946.675 463.707 941.442 452.411 931.925 452.492Z" fill="#2F2E47"/>
<path d="M923.411 556.159C922.071 551.897 919.93 547.958 917.03 544.553C916.032 543.379 914.232 544.962 915.233 546.136C917.841 549.2 919.851 552.776 921.06 556.619C921.254 557.236 921.781 557.698 922.466 557.564C923.043 557.45 923.605 556.78 923.411 556.159Z" fill="#2F2E47"/>
<path d="M863.716 571.74C863.481 570.417 863.188 569.107 862.833 567.811C862.484 566.535 861.888 565.221 861.987 563.878C862.099 562.338 859.709 562.186 859.598 563.725C859.496 565.116 859.942 566.379 860.322 567.695C860.693 568.985 861.007 570.293 861.259 571.612C861.772 574.301 862.024 577.024 862.022 579.761C862.02 581.298 864.41 581.459 864.412 579.913C864.414 577.177 864.193 574.437 863.716 571.74Z" fill="#2F2E47"/>
<path d="M927.644 617.184L924.388 672.683L902.636 775.065C902.147 786.216 910.793 795.652 921.944 796.141C931.649 796.566 940.281 790.029 942.503 780.574L984.841 669.653L986.743 612.446C986.743 612.446 947.782 607.145 927.644 617.184Z" fill="#2F2E47"/>
<path d="M903.212 780.802L932.332 928.221L955.04 929.215L959.618 868.603C961.911 838.257 955.999 807.855 942.501 780.579L903.212 780.802Z" fill="#2F2E47"/>
<path d="M931.596 786.157C934.209 782.003 936.819 777.851 939.431 773.697C940.03 772.746 941.544 773.625 940.942 774.581C938.329 778.732 935.719 782.886 933.107 787.038C932.508 787.992 930.994 787.115 931.596 786.157Z" fill="#2F2E47"/>
<path d="M935.31 790.871C936.17 788.211 937.033 785.553 937.893 782.894C938.24 781.827 939.93 782.283 939.581 783.36C938.721 786.02 937.858 788.678 936.996 791.338C936.651 792.404 934.961 791.946 935.31 790.871Z" fill="#2F2E47"/>
<path d="M916.692 926.462L933.648 925.102L955.505 924.724C955.505 924.724 958.947 933.073 958.947 942.588H922.299L916.692 926.462Z" fill="white"/>
<path d="M900.491 942.594C900.532 933.681 907.767 926.467 916.69 926.467C925.613 926.467 932.847 933.679 932.889 942.594H900.491Z" fill="white"/>
<path d="M955.16 622.902V652.935C955.16 658.639 956.862 664.214 960.048 668.946L947.941 776.594C947.941 787.448 956.99 796.247 968.154 796.247C977.867 796.247 986.205 789.53 988.013 780.25L1012.53 723.776C1027.27 689.806 1031.65 652.238 1025.1 615.789C1025.1 615.785 974.839 612.294 955.16 622.902Z" fill="#48466D"/>
<path d="M948.772 782.14L983.793 924.859H1006.52L1008.76 865.518C1009.87 836.012 1002.81 806.755 988.326 780.805L988.019 780.251L948.772 782.14Z" fill="#48466D"/>
<path d="M977.36 786.135C979.787 781.989 982.215 777.846 984.642 773.7C985.197 772.751 986.749 773.539 986.19 774.495C983.761 778.64 981.334 782.786 978.906 786.929C978.352 787.877 976.801 787.09 977.36 786.135Z" fill="#2F2E47"/>
<path d="M981.276 790.558C982.021 787.939 982.764 785.318 983.509 782.7C983.808 781.649 985.517 782.021 985.215 783.081C984.471 785.7 983.728 788.321 982.983 790.939C982.686 791.988 980.977 791.616 981.276 790.558Z" fill="#2F2E47"/>
<path d="M982.23 630.87C990.881 636.549 1001.43 637.962 1011.32 634.696C1012.39 634.343 1012.93 635.963 1011.86 636.316C1001.57 639.712 990.431 638.295 981.413 632.374C980.491 631.77 981.296 630.255 982.23 630.87Z" fill="#2D4537"/>
<path d="M967.98 926.549L984.936 925.226L1006.79 924.859C1006.79 924.859 1010.24 932.977 1010.24 942.228H973.587L967.98 926.549Z" fill="white"/>
<path d="M951.779 942.227C951.821 933.56 959.055 926.548 967.978 926.548C976.901 926.548 984.135 933.562 984.177 942.227H951.779Z" fill="white"/>
<path d="M1002.06 453.087C989.798 432.728 953.1 442.881 944.751 444.055C934.042 445.562 923.951 449.909 914.746 455.592C896.834 466.651 912.309 504.871 921.182 524.481C926.782 536.862 928.355 585.683 926.056 626.421C925.753 631.793 929.45 636.58 934.628 637.399C962.108 641.749 1003.88 641.246 1026.46 629.401C1028.69 628.231 1029.99 625.794 1029.87 623.211C1027.57 573.907 1009.85 466.021 1002.06 453.087Z" fill="#FFA229"/>
<path d="M920.658 474.078C919.08 467.589 919.932 457.387 925.029 450.094C921.112 451.871 917.311 453.932 913.646 456.204C895.132 467.682 910.875 506.924 919.913 527.055C925.619 539.765 926.979 589.991 924.397 631.924C924.057 637.452 927.841 642.359 933.171 643.174C934.445 643.368 935.778 643.542 937.106 643.715C940.21 587.092 927.202 531.251 920.658 474.078Z" fill="#48466D"/>
<path d="M1003.62 453.157C995.988 440.425 978.937 439.418 964.835 440.852C956.587 449.54 959.868 462.451 959.868 471.964C966.349 530.261 981.727 587.249 983.045 644.984C1000.01 643.765 1016.32 640.527 1027.83 634.452C1030.13 633.237 1031.49 630.721 1031.38 628.064C1029.27 577.338 1011.58 466.421 1003.62 453.157Z" fill="#48466D"/>
<path d="M1031.09 629.121C1024.41 634.484 1016.75 638.607 1008.6 641.211C1000.41 643.825 990.715 645.85 982.42 642.666C981.182 642.191 980.666 644.191 981.896 644.661C990.494 647.961 1000.63 645.918 1009.12 643.206C1017.65 640.484 1025.58 636.182 1032.55 630.577C1033.58 629.748 1032.11 628.297 1031.09 629.121Z" fill="#2F2E47"/>
<path d="M953.348 457.649C944.516 462.071 934.387 463.598 924.645 461.943C923.347 461.722 922.808 463.716 924.121 463.938C934.418 465.686 945.024 464.12 954.366 459.442C955.558 458.848 954.533 457.054 953.348 457.649Z" fill="#2C607A"/>
<path d="M974.2 612.963C964.202 619.545 953.664 625.267 942.698 630.069C941.481 630.602 942.513 632.393 943.718 631.864C954.683 627.065 965.222 621.343 975.219 614.758C976.323 614.029 975.31 612.23 974.2 612.963Z" fill="#2C607A"/>
<path d="M975.246 622.035C971.779 625.841 967.534 628.818 962.784 630.801C962.27 631.016 962.144 631.765 962.396 632.209C962.699 632.743 963.287 632.811 963.803 632.597C968.704 630.552 973.128 627.421 976.705 623.496C977.596 622.516 976.141 621.051 975.246 622.035Z" fill="#2C607A"/>
<path d="M934.272 593.957C931.519 593.571 928.767 593.183 926.012 592.797C925.498 592.725 924.984 592.946 924.84 593.534C924.722 594.021 925.007 594.72 925.525 594.793C928.278 595.178 931.03 595.566 933.785 595.952C934.299 596.024 934.813 595.804 934.957 595.216C935.077 594.731 934.79 594.029 934.272 593.957Z" fill="#2F2E47"/>
<path d="M1015.04 582.514C1007.58 588.057 998.447 590.88 989.167 590.463C987.838 590.403 987.842 592.467 989.167 592.527C998.756 592.958 1008.35 590.042 1016.05 584.31C1017.11 583.526 1016.1 581.724 1015.04 582.514Z" fill="#2F2E47"/>
<path d="M908.281 410.291C903.973 399.911 901.688 388.696 901.591 377.458C901.575 375.543 899.501 374.474 898.766 372.708C897.893 370.607 897.01 368.469 896.773 366.208C896.536 363.946 897.033 361.499 898.607 359.858C900.182 358.216 902.974 357.673 904.796 359.037C905.725 354.761 908.459 350.975 912.138 348.608C913.642 347.64 915.396 346.899 917.177 347.077C918.958 347.252 920.71 348.577 920.896 350.356C923.894 346.726 928.479 343.637 933.107 342.778C934.824 342.461 936.655 342.378 938.26 343.063C939.866 343.748 941.172 345.362 941.044 347.103C943.196 346.082 945.949 345.632 948.307 345.296C950.666 344.957 953.26 345.42 954.983 347.064C956.706 348.709 957.212 351.691 955.678 353.517C957.35 352.403 959.523 351.907 961.506 352.227C963.883 352.609 966.124 354.219 966.879 356.503C967.634 358.787 966.601 361.637 964.391 362.59C966.871 363.007 969.083 364.91 969.564 367.378C970.045 369.848 968.854 372.555 966.712 373.872C969.382 375.124 970.738 378.762 970.082 381.639C969.426 384.515 966.605 386.74 963.656 386.711C964.859 388.725 964.991 390.871 964.013 393.003C963.035 395.134 960.963 396.727 958.652 397.128C955.955 405.928 952.6 414.515 949.903 423.316L908.281 410.291Z" fill="#43221D"/>
<path d="M952.876 415.599C951.949 425.476 952.341 435.471 954.035 445.244C954.879 444.285 958.088 445.093 958.815 446.144C959.541 447.196 959.39 448.67 958.755 449.778C958.119 450.888 957.083 451.703 956.041 452.444C948.561 457.757 939.368 460.617 930.193 460.483C928.512 460.458 926.786 460.326 925.257 459.625C923.728 458.923 922.416 457.545 922.21 455.875C921.985 454.068 923.099 452.303 924.579 451.241C926.056 450.176 927.855 449.674 929.612 449.192C929.135 441.817 929.451 434.846 928.974 427.471L952.876 415.599Z" fill="#A87536"/>
<path d="M936.32 444.474C934.149 446.051 931.902 447.483 929.593 448.785C929.153 441.563 929.44 434.712 928.974 427.473L952.873 415.599C952.71 417.335 952.591 419.072 952.514 420.814C952.285 425.956 950.154 430.83 946.666 434.617C943.437 438.127 940.226 441.637 936.32 444.474Z" fill="#805126"/>
<path d="M906.85 379.002C905.651 379.543 904.906 380.756 904.937 382.071C905.327 398.397 905.651 412.083 911.84 427.163C914.126 432.732 917.793 438.518 923.658 439.878C929.351 441.197 935.057 437.852 939.518 434.076C945.269 429.208 950.195 423.368 954.023 416.88C958.135 417.297 960.962 415.426 962.667 411.658C964.155 408.37 964.365 404.165 962.004 401.437C959.641 398.709 954.316 398.909 953.061 402.291C952.223 395.673 949.006 392.403 944.879 387.163C945.436 383.051 945.655 378.365 942.353 375.849C941.338 375.077 940.106 374.654 938.88 374.306C930.09 371.798 915.845 374.943 906.85 379.002Z" fill="#A87536"/>
<path d="M925.612 388.79C929.976 385.757 935.366 385.602 939.939 388.266C941.311 389.067 939.803 391.025 938.443 390.235C934.879 388.159 930.502 388.396 927.135 390.736C925.833 391.644 924.304 389.7 925.612 388.79Z" fill="#43221D"/>
<path d="M904.74 391.208C907.693 388.154 912.631 387.743 915.866 390.645C916.991 391.652 915.571 393.538 914.438 392.522C912.245 390.556 908.733 390.449 906.618 392.634C905.573 393.715 903.685 392.3 904.74 391.208Z" fill="#43221D"/>
<path d="M930.468 393.791C930.369 392.212 932.818 391.866 932.917 393.457C933.016 395.031 933.115 396.606 933.212 398.18C933.311 399.759 930.862 400.103 930.763 398.512C930.664 396.94 930.565 395.366 930.468 393.791Z" fill="#212121"/>
<path d="M908.252 395.836C908.153 394.258 910.602 393.911 910.701 395.502C910.8 397.076 910.897 398.651 910.996 400.225C911.096 401.804 908.646 402.151 908.547 400.56C908.448 398.985 908.349 397.411 908.252 395.836Z" fill="#212121"/>
<path d="M955.18 410.063C957.334 409.491 956.859 406.803 955.031 406.217C953.516 405.732 954.47 403.449 955.978 403.932C957.871 404.539 959.228 406.402 959.119 408.408C959.005 410.49 957.437 412.001 955.512 412.51C953.979 412.919 953.661 410.465 955.18 410.063Z" fill="#805126"/>
<path d="M920.165 417.16C919.098 417.649 917.633 417.098 916.593 416.722C915.452 416.309 914.468 415.684 914.063 414.489C913.172 411.858 915.221 409.324 916.736 407.405C917.557 406.363 915.943 405.078 915.118 406.124C913.067 408.724 910.799 412.073 912.245 415.515C912.92 417.12 914.329 418.123 915.937 418.672C917.458 419.192 919.346 419.799 920.898 419.089C922.099 418.538 921.372 416.607 920.165 417.16Z" fill="#805126"/>
<path d="M932.806 422.01C932.271 421.704 931.735 421.95 931.398 422.398C929.112 425.443 924.793 425.918 921.543 424.265C920.365 423.667 919.335 425.456 920.524 426.06C922.732 427.183 925.268 427.602 927.701 427.045C929.923 426.537 931.834 425.227 933.192 423.417C933.528 422.969 933.247 422.259 932.806 422.01Z" fill="#212121"/>
<path d="M1026.7 522.371C1027.4 525.557 1028.12 528.743 1028.85 531.925C1030.37 538.525 1031.89 545.124 1033.41 551.725C1035.39 560.348 1037.33 569.634 1033.97 577.82C1030.61 586.006 1010.05 592.546 1003.09 587.079C1001.1 585.515 1000.25 575.845 999.573 573.227C998.123 567.589 996.651 561.956 995.159 556.331C993.073 548.46 990.9 540.615 988.731 532.765C1002.08 533.44 1015.77 529.051 1026.7 522.371Z" fill="#A87536"/>
<path d="M988.992 446.607C993.414 444.18 998.742 443.821 1004.8 446.995C1008.08 448.712 1009.9 452.325 1010.94 455.876C1017.37 477.795 1021.78 500.11 1026.7 522.378C1015.77 529.057 1002.08 533.446 988.732 532.772C987.942 529.909 987.191 527.037 986.388 524.179C980.429 502.9 961.655 461.607 988.992 446.607Z" fill="#3D84A8"/>
<path d="M1034.86 574.4C1032.45 595.483 995.311 590.741 981.081 590.19C953.188 589.111 925.415 584.984 898.416 577.904C898.988 574.885 898.203 572.048 898.775 569.029C931.03 567.143 961.391 556.992 993.648 555.104C1001.24 554.661 1009.03 554.234 1016.55 555.699C1023.59 557.073 1035.58 568.076 1034.86 574.4Z" fill="#A87536"/>
<path d="M870.628 574.911C869.611 576.17 866.682 575.689 866.821 574.141C867.116 570.85 870.273 568.63 874.452 567.74C876.988 567.2 879.742 567.086 882.353 566.888C882.714 566.861 883.069 566.828 883.42 566.795C883.352 566.37 883.284 565.943 883.199 565.526C880.754 565.097 878.141 564.979 875.638 565.194C874.41 565.299 873.323 565.829 872.372 566.42C871.42 567.008 870.545 567.674 869.478 568.143C868.346 568.638 866.911 568.886 865.727 568.448C864.324 567.932 864.157 566.498 865.302 565.691C867.89 563.869 870.407 561.036 873.599 560.402C873.667 560.388 873.736 560.376 873.804 560.361C884.022 558.357 895.537 560.363 903.853 566.851C905.225 567.922 906.998 569.009 907.78 570.677C908.653 572.538 907.516 574.703 906.781 576.432C906.228 577.736 905.524 579.001 904.769 580.243C901.624 582.247 897.656 583.487 893.562 583.107C890.013 582.779 886.385 581.818 883.938 579.963C883.82 580.012 883.7 580.06 883.589 580.113C881.94 580.881 881.208 582.354 879.544 583.021C878.729 583.347 877.39 583.186 877.01 582.486C875.904 580.452 878.071 578.324 880.221 577.103C880.244 577.09 880.269 577.078 880.291 577.065C878.133 577.455 876.226 578.14 874.468 579.306C872.442 580.65 869.357 578.941 870.713 577.14C872.471 574.804 875.71 573.264 879.161 572.621C880.512 572.369 882.147 572.146 883.787 572.08C883.789 571.999 883.785 571.919 883.787 571.838C878.828 572.037 873.381 571.506 870.628 574.911Z" fill="#A87536"/>
<path d="M983.55 445.775C975.708 449.567 970.556 457.632 968.511 466.098C966.466 474.565 967.165 483.451 968.503 492.058C971.635 512.214 978.224 531.828 987.894 549.787C961.835 555.012 936.66 560.109 910.602 565.333C910.751 572.684 910.127 579.182 910.276 586.532C944.859 591.681 979.551 593.81 1014.51 593.224C1022.71 593.088 1031.96 592.298 1037.16 585.96C1041.91 580.16 1041.5 571.819 1040.66 564.361C1037.16 533.008 1030.64 501.991 1021.24 471.876C1018.64 463.546 1015.62 454.957 1009.39 448.843C1003.17 442.735 991.406 441.976 983.55 445.775Z" fill="#48466D"/>
<path d="M988.262 549.653C987.577 544.62 985.554 539.942 983.355 535.407C981.068 530.691 978.765 526.007 976.879 521.113C973.146 511.43 970.577 501.296 969.224 491.01C968.437 485.038 968.095 479.017 968.144 472.995C968.157 471.45 965.759 471.4 965.747 472.944C965.573 494.023 970.511 514.73 979.807 533.62C982.426 538.939 985.119 544.276 985.93 550.221C986.14 551.75 988.468 551.168 988.262 549.653Z" fill="#2F2E47"/>
<path d="M986.343 547.885C967.726 553.092 948.876 557.927 929.852 561.41C924.495 562.39 919.103 563.168 913.67 563.56C912.141 563.671 912.079 566.069 913.618 565.958C923.119 565.271 932.469 563.453 941.763 561.435C951.424 559.334 961.047 557.052 970.621 554.592C976.067 553.193 981.496 551.732 986.911 550.217C988.394 549.802 987.831 547.471 986.343 547.885Z" fill="#2F2E47"/>
<path d="M995.016 557.277C992.515 554.652 990.014 552.029 987.513 549.404C986.448 548.288 984.735 549.966 985.802 551.086C988.303 553.711 990.804 556.334 993.305 558.958C994.368 560.073 996.082 558.395 995.016 557.277Z" fill="#2F2E47"/>
<path d="M1026.66 590.021C997.048 593.744 966.964 593.692 937.356 589.893C928.968 588.816 920.625 587.427 912.336 585.752C910.832 585.448 910.163 587.751 911.68 588.059C941.327 594.053 971.71 596.303 1001.91 594.648C1010.38 594.183 1018.82 593.41 1027.23 592.353C1028.76 592.159 1028.18 589.831 1026.66 590.021Z" fill="#2F2E47"/>
<path d="M923.953 584.031C923.977 579.558 924.004 575.084 924.029 570.61C924.037 569.065 921.639 569.015 921.631 570.559C921.606 575.032 921.579 579.506 921.555 583.98C921.546 585.525 923.944 585.577 923.953 584.031Z" fill="#2F2E47"/>
<path d="M851.156 146.505V917.707C851.156 931.801 839.724 943.212 825.63 943.212H316.764C302.67 943.212 291.238 931.801 291.238 917.707V146.505C291.238 132.411 302.67 121 316.764 121H825.63C839.724 121 851.156 132.411 851.156 146.505Z" fill="#1C4670"/>
<path d="M800.428 903.24H341.037C328.314 903.24 318 892.925 318 880.203V184.008C318 171.285 328.316 160.969 341.037 160.969H800.428C813.152 160.969 823.465 171.285 823.465 184.008V880.201C823.467 892.925 813.152 903.24 800.428 903.24Z" fill="#E8E8E8"/>
<path d="M455.357 209.814H460.057C459.932 211.477 459.47 212.953 458.673 214.24C457.875 215.516 456.764 216.519 455.34 217.248C453.916 217.977 452.19 218.342 450.162 218.342C448.601 218.342 447.194 218.068 445.941 217.521C444.699 216.963 443.634 216.171 442.745 215.146C441.868 214.109 441.196 212.867 440.729 211.42C440.261 209.962 440.028 208.327 440.028 206.516V204.619C440.028 202.807 440.267 201.172 440.746 199.714C441.224 198.256 441.908 197.014 442.796 195.988C443.696 194.951 444.773 194.154 446.026 193.596C447.291 193.037 448.704 192.758 450.265 192.758C452.293 192.758 454.007 193.134 455.409 193.886C456.81 194.627 457.898 195.646 458.673 196.945C459.448 198.244 459.915 199.737 460.074 201.423H455.375C455.283 200.375 455.056 199.486 454.691 198.757C454.338 198.028 453.802 197.475 453.084 197.099C452.378 196.712 451.438 196.518 450.265 196.518C449.353 196.518 448.55 196.689 447.855 197.031C447.171 197.373 446.602 197.885 446.146 198.569C445.69 199.241 445.348 200.084 445.121 201.098C444.893 202.101 444.779 203.263 444.779 204.584V206.516C444.779 207.78 444.881 208.914 445.086 209.917C445.292 210.919 445.611 211.768 446.043 212.463C446.476 213.158 447.035 213.688 447.718 214.052C448.402 214.417 449.216 214.599 450.162 214.599C451.313 214.599 452.247 214.417 452.965 214.052C453.694 213.688 454.247 213.152 454.623 212.446C455.01 211.739 455.255 210.862 455.357 209.814ZM476.72 211.54C476.72 211.062 476.646 210.634 476.498 210.258C476.361 209.871 476.104 209.523 475.729 209.216C475.364 208.897 474.846 208.589 474.173 208.293C473.513 207.985 472.658 207.666 471.61 207.336C470.448 206.971 469.365 206.561 468.363 206.105C467.36 205.65 466.477 205.12 465.714 204.516C464.962 203.912 464.375 203.217 463.954 202.431C463.532 201.634 463.321 200.711 463.321 199.663C463.321 198.637 463.538 197.703 463.971 196.86C464.415 196.017 465.042 195.293 465.851 194.689C466.66 194.074 467.611 193.601 468.705 193.271C469.81 192.941 471.029 192.775 472.362 192.775C474.208 192.775 475.803 193.111 477.147 193.784C478.503 194.456 479.551 195.367 480.292 196.518C481.032 197.669 481.402 198.962 481.402 200.397H476.72C476.72 199.623 476.555 198.939 476.224 198.347C475.905 197.754 475.415 197.287 474.754 196.945C474.105 196.604 473.285 196.433 472.293 196.433C471.336 196.433 470.539 196.575 469.901 196.86C469.274 197.145 468.801 197.532 468.482 198.022C468.175 198.512 468.021 199.059 468.021 199.663C468.021 200.118 468.129 200.528 468.346 200.893C468.562 201.246 468.887 201.582 469.32 201.901C469.753 202.209 470.288 202.5 470.926 202.773C471.576 203.035 472.328 203.297 473.182 203.559C474.549 203.969 475.746 204.425 476.771 204.926C477.808 205.428 478.668 205.997 479.352 206.635C480.047 207.273 480.565 207.991 480.907 208.789C481.26 209.586 481.437 210.492 481.437 211.506C481.437 212.577 481.226 213.534 480.804 214.377C480.383 215.22 479.779 215.938 478.993 216.53C478.207 217.123 477.261 217.573 476.156 217.88C475.062 218.188 473.837 218.342 472.481 218.342C471.274 218.342 470.077 218.182 468.893 217.863C467.719 217.533 466.654 217.043 465.697 216.394C464.74 215.733 463.976 214.901 463.407 213.898C462.837 212.884 462.552 211.7 462.552 210.344H467.269C467.269 211.13 467.394 211.802 467.645 212.36C467.907 212.907 468.272 213.357 468.739 213.71C469.217 214.052 469.776 214.303 470.414 214.462C471.052 214.622 471.741 214.702 472.481 214.702C473.438 214.702 474.225 214.571 474.84 214.309C475.466 214.035 475.934 213.659 476.241 213.181C476.56 212.702 476.72 212.155 476.72 211.54ZM485.06 193.117H494.1C495.991 193.117 497.615 193.402 498.971 193.972C500.326 194.541 501.369 195.384 502.098 196.501C502.827 197.618 503.192 198.99 503.192 200.62C503.192 201.907 502.964 203.024 502.508 203.969C502.053 204.915 501.409 205.707 500.577 206.345C499.757 206.983 498.788 207.484 497.672 207.849L496.202 208.601H488.221L488.187 204.892H494.151C495.12 204.892 495.923 204.721 496.561 204.379C497.199 204.038 497.678 203.565 497.997 202.961C498.327 202.357 498.492 201.668 498.492 200.893C498.492 200.061 498.333 199.344 498.014 198.74C497.695 198.125 497.21 197.652 496.561 197.321C495.912 196.991 495.091 196.826 494.1 196.826H489.759V218H485.06V193.117ZM499.107 218L493.348 206.857L498.321 206.84L504.149 217.761V218H499.107ZM516.026 193.117H525.067C526.958 193.117 528.582 193.402 529.938 193.972C531.293 194.541 532.336 195.384 533.065 196.501C533.794 197.618 534.159 198.99 534.159 200.62C534.159 201.907 533.931 203.024 533.475 203.969C533.019 204.915 532.376 205.707 531.544 206.345C530.724 206.983 529.755 207.484 528.639 207.849L527.169 208.601H519.188L519.154 204.892H525.118C526.087 204.892 526.89 204.721 527.528 204.379C528.166 204.038 528.644 203.565 528.963 202.961C529.294 202.357 529.459 201.668 529.459 200.893C529.459 200.061 529.299 199.344 528.98 198.74C528.661 198.125 528.177 197.652 527.528 197.321C526.878 196.991 526.058 196.826 525.067 196.826H520.726V218H516.026V193.117ZM530.074 218L524.315 206.857L529.288 206.84L535.116 217.761V218H530.074ZM546.241 218.342C544.84 218.342 543.581 218.114 542.464 217.658C541.348 217.202 540.396 216.57 539.61 215.761C538.836 214.941 538.237 213.99 537.816 212.907C537.406 211.813 537.201 210.64 537.201 209.387V208.703C537.201 207.279 537.406 205.986 537.816 204.824C538.226 203.65 538.807 202.642 539.559 201.799C540.311 200.956 541.211 200.306 542.259 199.851C543.307 199.395 544.464 199.167 545.729 199.167C547.039 199.167 548.195 199.389 549.198 199.833C550.2 200.266 551.038 200.882 551.71 201.679C552.382 202.477 552.889 203.434 553.231 204.55C553.573 205.655 553.744 206.88 553.744 208.225V210.122H539.251V207.011H549.3V206.669C549.278 205.952 549.141 205.297 548.89 204.704C548.639 204.1 548.252 203.622 547.728 203.269C547.204 202.904 546.526 202.722 545.694 202.722C545.022 202.722 544.435 202.87 543.934 203.166C543.444 203.451 543.034 203.861 542.704 204.396C542.385 204.921 542.145 205.547 541.986 206.276C541.826 207.006 541.747 207.814 541.747 208.703V209.387C541.747 210.161 541.849 210.879 542.054 211.54C542.271 212.201 542.584 212.776 542.994 213.266C543.416 213.745 543.917 214.121 544.498 214.394C545.09 214.656 545.763 214.787 546.515 214.787C547.46 214.787 548.315 214.605 549.078 214.24C549.853 213.864 550.525 213.312 551.095 212.583L553.368 214.941C552.98 215.511 552.456 216.057 551.795 216.582C551.146 217.106 550.36 217.533 549.437 217.863C548.514 218.182 547.449 218.342 546.241 218.342ZM568.526 199.509H572.628V217.436C572.628 219.111 572.263 220.529 571.534 221.691C570.816 222.865 569.808 223.754 568.509 224.357C567.21 224.973 565.701 225.28 563.98 225.28C563.24 225.28 562.437 225.178 561.571 224.973C560.716 224.768 559.89 224.443 559.093 223.999C558.307 223.566 557.652 223.002 557.127 222.307L559.161 219.641C559.776 220.358 560.471 220.9 561.246 221.264C562.021 221.64 562.858 221.828 563.758 221.828C564.67 221.828 565.444 221.657 566.083 221.315C566.732 220.985 567.228 220.495 567.569 219.846C567.923 219.208 568.099 218.422 568.099 217.487V203.73L568.526 199.509ZM556.034 208.977V208.618C556.034 207.205 556.205 205.923 556.546 204.772C556.888 203.61 557.378 202.613 558.016 201.782C558.666 200.95 559.446 200.306 560.357 199.851C561.28 199.395 562.317 199.167 563.468 199.167C564.687 199.167 565.712 199.389 566.544 199.833C567.387 200.278 568.082 200.91 568.629 201.73C569.187 202.551 569.62 203.525 569.928 204.653C570.247 205.769 570.492 207 570.663 208.344V209.318C570.503 210.629 570.247 211.831 569.894 212.924C569.552 214.018 569.096 214.975 568.526 215.795C567.957 216.604 567.25 217.231 566.407 217.675C565.564 218.12 564.573 218.342 563.434 218.342C562.294 218.342 561.269 218.108 560.357 217.641C559.446 217.174 558.666 216.519 558.016 215.676C557.378 214.833 556.888 213.841 556.546 212.702C556.205 211.563 556.034 210.321 556.034 208.977ZM560.545 208.618V208.977C560.545 209.774 560.625 210.52 560.785 211.215C560.944 211.91 561.189 212.526 561.52 213.061C561.85 213.585 562.266 213.995 562.767 214.292C563.268 214.588 563.867 214.736 564.562 214.736C565.496 214.736 566.259 214.542 566.852 214.155C567.455 213.756 567.911 213.215 568.219 212.531C568.538 211.836 568.743 211.056 568.834 210.19V207.507C568.777 206.823 568.652 206.191 568.458 205.61C568.276 205.029 568.019 204.528 567.689 204.106C567.359 203.684 566.937 203.354 566.424 203.115C565.912 202.875 565.302 202.756 564.596 202.756C563.912 202.756 563.314 202.91 562.801 203.217C562.289 203.514 561.867 203.929 561.537 204.465C561.206 205 560.956 205.621 560.785 206.328C560.625 207.034 560.545 207.797 560.545 208.618ZM581.48 199.509V218H576.952V199.509H581.48ZM576.644 194.672C576.644 194 576.872 193.442 577.328 192.998C577.795 192.553 578.421 192.331 579.208 192.331C579.994 192.331 580.615 192.553 581.07 192.998C581.537 193.442 581.771 194 581.771 194.672C581.771 195.333 581.537 195.886 581.07 196.33C580.615 196.774 579.994 196.997 579.208 196.997C578.421 196.997 577.795 196.774 577.328 196.33C576.872 195.886 576.644 195.333 576.644 194.672ZM595.956 212.941C595.956 212.554 595.853 212.207 595.648 211.899C595.443 211.591 595.056 211.312 594.486 211.062C593.928 210.799 593.107 210.555 592.025 210.327C591.068 210.122 590.185 209.865 589.376 209.558C588.567 209.25 587.872 208.88 587.291 208.447C586.71 208.002 586.254 207.484 585.924 206.892C585.605 206.288 585.445 205.593 585.445 204.807C585.445 204.043 585.611 203.326 585.941 202.653C586.271 201.97 586.75 201.372 587.376 200.859C588.003 200.335 588.766 199.925 589.667 199.628C590.567 199.321 591.581 199.167 592.708 199.167C594.281 199.167 595.631 199.423 596.759 199.936C597.898 200.449 598.77 201.155 599.374 202.055C599.977 202.944 600.279 203.946 600.279 205.063H595.768C595.768 204.573 595.654 204.129 595.426 203.73C595.209 203.331 594.873 203.012 594.417 202.773C593.962 202.522 593.386 202.397 592.691 202.397C592.065 202.397 591.535 202.5 591.102 202.705C590.681 202.91 590.361 203.177 590.145 203.508C589.929 203.838 589.82 204.203 589.82 204.602C589.82 204.898 589.877 205.166 589.991 205.405C590.117 205.633 590.316 205.843 590.589 206.037C590.863 206.231 591.233 206.407 591.7 206.567C592.179 206.726 592.765 206.88 593.46 207.028C594.839 207.302 596.041 207.666 597.066 208.122C598.103 208.566 598.912 209.159 599.493 209.899C600.074 210.64 600.365 211.586 600.365 212.736C600.365 213.557 600.188 214.309 599.835 214.992C599.482 215.664 598.969 216.251 598.297 216.752C597.625 217.254 596.821 217.647 595.887 217.932C594.953 218.205 593.899 218.342 592.726 218.342C591.028 218.342 589.592 218.04 588.419 217.436C587.245 216.821 586.357 216.046 585.753 215.112C585.149 214.166 584.847 213.186 584.847 212.172H589.171C589.205 212.89 589.399 213.465 589.752 213.898C590.105 214.331 590.549 214.645 591.085 214.838C591.632 215.021 592.207 215.112 592.811 215.112C593.495 215.112 594.07 215.021 594.537 214.838C595.004 214.645 595.357 214.388 595.597 214.069C595.836 213.739 595.956 213.363 595.956 212.941ZM612.55 199.509V202.756H601.954V199.509H612.55ZM604.791 194.963H609.32V212.668C609.32 213.215 609.394 213.636 609.542 213.933C609.69 214.229 609.912 214.428 610.208 214.531C610.505 214.633 610.858 214.685 611.268 214.685C611.564 214.685 611.838 214.667 612.088 214.633C612.339 214.599 612.55 214.565 612.721 214.531L612.738 217.915C612.362 218.04 611.935 218.142 611.456 218.222C610.989 218.302 610.459 218.342 609.867 218.342C608.853 218.342 607.964 218.171 607.201 217.829C606.437 217.476 605.845 216.912 605.423 216.137C605.002 215.351 604.791 214.314 604.791 213.027V194.963ZM620.069 203.286V218H615.558V199.509H619.83L620.069 203.286ZM625.692 199.389L625.624 203.593C625.373 203.548 625.088 203.514 624.769 203.491C624.461 203.468 624.171 203.457 623.897 203.457C623.202 203.457 622.593 203.553 622.069 203.747C621.545 203.929 621.106 204.197 620.753 204.55C620.411 204.903 620.149 205.336 619.967 205.849C619.785 206.35 619.682 206.92 619.659 207.558L618.685 207.438C618.685 206.265 618.805 205.177 619.044 204.174C619.283 203.172 619.631 202.294 620.086 201.542C620.542 200.791 621.112 200.209 621.795 199.799C622.49 199.378 623.288 199.167 624.188 199.167C624.439 199.167 624.706 199.19 624.991 199.235C625.287 199.27 625.521 199.321 625.692 199.389ZM637.774 214.069V205.542C637.774 204.915 637.666 204.374 637.45 203.918C637.233 203.462 636.903 203.109 636.458 202.858C636.014 202.608 635.45 202.482 634.767 202.482C634.163 202.482 633.633 202.585 633.177 202.79C632.733 202.995 632.391 203.286 632.152 203.662C631.913 204.026 631.793 204.448 631.793 204.926H627.264C627.264 204.163 627.446 203.439 627.811 202.756C628.176 202.061 628.694 201.446 629.366 200.91C630.05 200.363 630.864 199.936 631.81 199.628C632.767 199.321 633.838 199.167 635.023 199.167C636.424 199.167 637.672 199.406 638.766 199.885C639.871 200.352 640.737 201.058 641.363 202.004C642.001 202.95 642.32 204.14 642.32 205.576V213.642C642.32 214.565 642.377 215.357 642.491 216.018C642.617 216.667 642.799 217.231 643.038 217.709V218H638.441C638.224 217.533 638.059 216.94 637.945 216.223C637.831 215.493 637.774 214.776 637.774 214.069ZM638.407 206.738L638.441 209.421H635.587C634.881 209.421 634.26 209.495 633.724 209.643C633.189 209.78 632.75 209.985 632.408 210.258C632.066 210.52 631.81 210.839 631.639 211.215C631.468 211.58 631.383 211.996 631.383 212.463C631.383 212.919 631.485 213.329 631.69 213.693C631.907 214.058 632.215 214.348 632.613 214.565C633.023 214.77 633.502 214.873 634.049 214.873C634.846 214.873 635.541 214.713 636.134 214.394C636.726 214.064 637.188 213.665 637.518 213.198C637.848 212.731 638.025 212.286 638.048 211.865L639.347 213.813C639.187 214.28 638.948 214.776 638.629 215.3C638.31 215.824 637.9 216.314 637.398 216.77C636.897 217.225 636.293 217.601 635.587 217.897C634.881 218.194 634.06 218.342 633.126 218.342C631.93 218.342 630.859 218.103 629.913 217.624C628.967 217.146 628.221 216.49 627.674 215.659C627.127 214.827 626.854 213.881 626.854 212.822C626.854 211.842 627.036 210.976 627.401 210.224C627.765 209.472 628.307 208.84 629.024 208.327C629.742 207.803 630.631 207.41 631.69 207.148C632.761 206.875 633.986 206.738 635.365 206.738H638.407ZM655.138 199.509V202.756H644.542V199.509H655.138ZM647.379 194.963H651.908V212.668C651.908 213.215 651.982 213.636 652.13 213.933C652.278 214.229 652.5 214.428 652.796 214.531C653.093 214.633 653.446 214.685 653.856 214.685C654.152 214.685 654.426 214.667 654.676 214.633C654.927 214.599 655.138 214.565 655.309 214.531L655.326 217.915C654.95 218.04 654.522 218.142 654.044 218.222C653.577 218.302 653.047 218.342 652.455 218.342C651.441 218.342 650.552 218.171 649.789 217.829C649.025 217.476 648.433 216.912 648.011 216.137C647.59 215.351 647.379 214.314 647.379 213.027V194.963ZM662.931 199.509V218H658.402V199.509H662.931ZM658.094 194.672C658.094 194 658.322 193.442 658.778 192.998C659.245 192.553 659.872 192.331 660.658 192.331C661.444 192.331 662.065 192.553 662.521 192.998C662.988 193.442 663.221 194 663.221 194.672C663.221 195.333 662.988 195.886 662.521 196.33C662.065 196.774 661.444 196.997 660.658 196.997C659.872 196.997 659.245 196.774 658.778 196.33C658.322 195.886 658.094 195.333 658.094 194.672ZM666.434 208.942V208.583C666.434 207.228 666.628 205.98 667.015 204.841C667.403 203.69 667.966 202.693 668.707 201.85C669.448 201.007 670.353 200.352 671.424 199.885C672.495 199.406 673.714 199.167 675.082 199.167C676.472 199.167 677.702 199.406 678.773 199.885C679.855 200.352 680.767 201.007 681.507 201.85C682.248 202.693 682.812 203.69 683.199 204.841C683.587 205.98 683.78 207.228 683.78 208.583V208.942C683.78 210.287 683.587 211.534 683.199 212.685C682.812 213.824 682.248 214.821 681.507 215.676C680.767 216.519 679.861 217.174 678.79 217.641C677.719 218.108 676.494 218.342 675.116 218.342C673.749 218.342 672.524 218.108 671.441 217.641C670.359 217.174 669.448 216.519 668.707 215.676C667.966 214.821 667.403 213.824 667.015 212.685C666.628 211.534 666.434 210.287 666.434 208.942ZM670.946 208.583V208.942C670.946 209.751 671.026 210.509 671.185 211.215C671.345 211.922 671.59 212.543 671.92 213.078C672.25 213.614 672.678 214.035 673.202 214.343C673.737 214.639 674.375 214.787 675.116 214.787C675.845 214.787 676.472 214.639 676.996 214.343C677.52 214.035 677.947 213.614 678.277 213.078C678.619 212.543 678.87 211.922 679.029 211.215C679.189 210.509 679.269 209.751 679.269 208.942V208.583C679.269 207.786 679.189 207.04 679.029 206.345C678.87 205.638 678.619 205.017 678.277 204.482C677.947 203.935 677.514 203.508 676.979 203.2C676.454 202.881 675.822 202.722 675.082 202.722C674.352 202.722 673.726 202.881 673.202 203.2C672.678 203.508 672.25 203.935 671.92 204.482C671.59 205.017 671.345 205.638 671.185 206.345C671.026 207.04 670.946 207.786 670.946 208.583ZM691.488 203.457V218H686.976V199.509H691.214L691.488 203.457ZM690.77 208.088H689.437C689.448 206.743 689.631 205.524 689.984 204.431C690.337 203.337 690.833 202.397 691.471 201.611C692.12 200.825 692.889 200.221 693.778 199.799C694.667 199.378 695.658 199.167 696.751 199.167C697.64 199.167 698.443 199.292 699.161 199.543C699.879 199.794 700.494 200.192 701.007 200.739C701.531 201.286 701.93 202.004 702.203 202.893C702.488 203.77 702.63 204.852 702.63 206.14V218H698.084V206.105C698.084 205.262 697.959 204.596 697.708 204.106C697.469 203.616 697.116 203.269 696.649 203.063C696.193 202.858 695.629 202.756 694.957 202.756C694.262 202.756 693.653 202.898 693.128 203.183C692.616 203.457 692.183 203.838 691.83 204.328C691.488 204.818 691.226 205.382 691.043 206.02C690.861 206.658 690.77 207.347 690.77 208.088Z" fill="#1C4670"/>
<path d="M385.28 651.924H362.352C357.303 651.924 353.209 647.83 353.209 642.781V619.853C353.209 614.804 357.303 610.709 362.352 610.709H385.28C390.33 610.709 394.424 614.804 394.424 619.853V642.781C394.424 647.83 390.33 651.924 385.28 651.924Z" fill="white"/>
<path d="M561.665 626.864H434.48C432.631 626.864 431.133 625.366 431.133 623.517V619.522C431.133 617.673 432.631 616.175 434.48 616.175H561.665C563.514 616.175 565.012 617.673 565.012 619.522V623.517C565.012 625.366 563.514 626.864 561.665 626.864Z" fill="#FFA229"/>
<path d="M495.75 646.435H434.48C432.631 646.435 431.133 644.937 431.133 643.088V639.093C431.133 637.244 432.631 635.746 434.48 635.746H495.75C497.599 635.746 499.097 637.244 499.097 639.093V643.088C499.097 644.937 497.597 646.435 495.75 646.435Z" fill="#FFA229"/>
<path d="M375.879 650.753L360.111 634.983C358.097 632.967 358.097 629.701 360.111 627.689C362.125 625.673 365.392 625.673 367.408 627.689L375.876 636.16L411.681 600.355C413.695 598.339 416.963 598.339 418.975 600.355C420.991 602.369 420.991 605.636 418.975 607.65L375.879 650.753Z" fill="#1C4670"/>
<path d="M618.745 651.924H595.817C590.768 651.924 586.674 647.83 586.674 642.781V619.853C586.674 614.804 590.768 610.709 595.817 610.709H618.745C623.795 610.709 627.889 614.804 627.889 619.853V642.781C627.889 647.83 623.795 651.924 618.745 651.924Z" fill="white"/>
<path d="M795.13 626.864H667.945C666.096 626.864 664.598 625.366 664.598 623.517V619.522C664.598 617.673 666.096 616.175 667.945 616.175H795.13C796.979 616.175 798.477 617.673 798.477 619.522V623.517C798.477 625.366 796.979 626.864 795.13 626.864Z" fill="#FFA229"/>
<path d="M729.213 646.435H667.945C666.096 646.435 664.598 644.937 664.598 643.088V639.093C664.598 637.244 666.096 635.746 667.945 635.746H729.213C731.062 635.746 732.56 637.244 732.56 639.093V643.088C732.56 644.937 731.06 646.435 729.213 646.435Z" fill="#FFA229"/>
<path d="M609.343 650.753L593.576 634.983C591.562 632.967 591.562 629.701 593.578 627.689C595.592 625.673 598.858 625.673 600.874 627.689L609.343 636.16L645.145 600.355C647.159 598.339 650.428 598.339 652.44 600.355C654.456 602.369 654.456 605.636 652.44 607.65L609.343 650.753Z" fill="#1C4670"/>
<path d="M385.28 556.5H362.352C357.303 556.5 353.209 552.406 353.209 547.356V524.428C353.209 519.379 357.303 515.285 362.352 515.285H385.28C390.33 515.285 394.424 519.379 394.424 524.428V547.356C394.424 552.408 390.33 556.5 385.28 556.5Z" fill="white"/>
<path d="M561.665 531.451H434.48C432.631 531.451 431.133 529.953 431.133 528.104V524.109C431.133 522.26 432.631 520.762 434.48 520.762H561.665C563.514 520.762 565.012 522.26 565.012 524.109V528.104C565.012 529.953 563.514 531.451 561.665 531.451Z" fill="#FFA229"/>
<path d="M495.75 551.022H434.48C432.631 551.022 431.133 549.524 431.133 547.675V543.68C431.133 541.832 432.631 540.333 434.48 540.333H495.75C497.599 540.333 499.097 541.832 499.097 543.68V547.675C499.097 549.524 497.597 551.022 495.75 551.022Z" fill="#FFA229"/>
<path d="M375.879 555.318L360.111 539.549C358.097 537.533 358.097 534.268 360.111 532.254C362.125 530.238 365.392 530.238 367.408 532.254L375.876 540.725L411.681 504.921C413.695 502.905 416.963 502.905 418.975 504.921C420.991 506.935 420.991 510.201 418.975 512.215L375.879 555.318Z" fill="#1C4670"/>
<path d="M618.745 556.5H595.817C590.768 556.5 586.674 552.406 586.674 547.356V524.428C586.674 519.379 590.768 515.285 595.817 515.285H618.745C623.795 515.285 627.889 519.379 627.889 524.428V547.356C627.889 552.408 623.795 556.5 618.745 556.5Z" fill="white"/>
<path d="M795.13 531.451H667.945C666.096 531.451 664.598 529.953 664.598 528.104V524.109C664.598 522.26 666.096 520.762 667.945 520.762H795.13C796.979 520.762 798.477 522.26 798.477 524.109V528.104C798.477 529.953 796.979 531.451 795.13 531.451Z" fill="#FFA229"/>
<path d="M729.213 551.022H667.945C666.096 551.022 664.598 549.524 664.598 547.675V543.68C664.598 541.832 666.096 540.333 667.945 540.333H729.213C731.062 540.333 732.56 541.832 732.56 543.68V547.675C732.56 549.524 731.06 551.022 729.213 551.022Z" fill="#FFA229"/>
<path d="M609.343 555.318L593.576 539.549C591.562 537.533 591.562 534.268 593.578 532.254C595.592 530.238 598.858 530.238 600.874 532.254L609.343 540.725L645.145 504.921C647.159 502.905 650.428 502.905 652.44 504.921C654.456 506.935 654.456 510.201 652.44 512.215L609.343 555.318Z" fill="#1C4670"/>
<path d="M385.28 461.054H362.352C357.303 461.054 353.209 456.96 353.209 451.911V428.983C353.209 423.934 357.303 419.839 362.352 419.839H385.28C390.33 419.839 394.424 423.934 394.424 428.983V451.911C394.424 456.96 390.33 461.054 385.28 461.054Z" fill="white"/>
<path d="M561.665 435.996H434.48C432.631 435.996 431.133 434.498 431.133 432.649V428.654C431.133 426.805 432.631 425.307 434.48 425.307H561.665C563.514 425.307 565.012 426.805 565.012 428.654V432.649C565.012 434.498 563.514 435.996 561.665 435.996Z" fill="#FFA229"/>
<path d="M495.75 455.585H434.48C432.631 455.585 431.133 454.087 431.133 452.238V448.243C431.133 446.394 432.631 444.896 434.48 444.896H495.75C497.599 444.896 499.097 446.394 499.097 448.243V452.238C499.097 454.087 497.597 455.585 495.75 455.585Z" fill="#FFA229"/>
<path d="M375.879 459.873L360.111 444.103C358.097 442.087 358.097 438.821 360.111 436.809C362.125 434.793 365.392 434.793 367.408 436.809L375.876 445.28L411.681 409.475C413.695 407.459 416.963 407.459 418.975 409.475C420.991 411.489 420.991 414.756 418.975 416.77L375.879 459.873Z" fill="#1C4670"/>
<path d="M618.745 461.054H595.817C590.768 461.054 586.674 456.96 586.674 451.911V428.983C586.674 423.934 590.768 419.839 595.817 419.839H618.745C623.795 419.839 627.889 423.934 627.889 428.983V451.911C627.889 456.96 623.795 461.054 618.745 461.054Z" fill="white"/>
<path d="M795.13 435.996H667.945C666.096 435.996 664.598 434.498 664.598 432.649V428.654C664.598 426.805 666.096 425.307 667.945 425.307H795.13C796.979 425.307 798.477 426.805 798.477 428.654V432.649C798.477 434.498 796.979 435.996 795.13 435.996Z" fill="#FFA229"/>
<path d="M729.213 455.585H667.945C666.096 455.585 664.598 454.087 664.598 452.238V448.243C664.598 446.394 666.096 444.896 667.945 444.896H729.213C731.062 444.896 732.56 446.394 732.56 448.243V452.238C732.56 454.087 731.06 455.585 729.213 455.585Z" fill="#FFA229"/>
<path d="M609.343 459.873L593.576 444.103C591.562 442.087 591.562 438.821 593.578 436.809C595.592 434.793 598.858 434.793 600.874 436.809L609.343 445.28L645.145 409.475C647.159 407.459 650.428 407.459 652.44 409.475C654.456 411.489 654.456 414.756 652.44 416.77L609.343 459.873Z" fill="#1C4670"/>
<path d="M780.889 771.353H358.547C355.596 771.353 353.202 768.961 353.202 766.009C353.202 763.058 355.596 760.664 358.547 760.664H780.889C783.84 760.664 786.233 763.058 786.233 766.009C786.233 768.961 783.842 771.353 780.889 771.353Z" fill="#FFA229"/>
<path d="M780.889 752.396H358.547C355.596 752.396 353.202 750.004 353.202 747.051C353.202 744.1 355.596 741.707 358.547 741.707H780.889C783.84 741.707 786.233 744.1 786.233 747.051C786.233 750.004 783.842 752.396 780.889 752.396Z" fill="#FFA229"/>
<path d="M780.889 733.438H358.547C355.596 733.438 353.202 731.044 353.202 728.094C353.202 725.143 355.596 722.749 358.547 722.749H780.889C783.84 722.749 786.233 725.143 786.233 728.094C786.233 731.046 783.842 733.438 780.889 733.438Z" fill="#FFA229"/>
<path d="M780.889 714.463H358.547C355.596 714.463 353.202 712.071 353.202 709.118C353.202 706.168 355.596 703.774 358.547 703.774H780.889C783.84 703.774 786.233 706.168 786.233 709.118C786.233 712.071 783.842 714.463 780.889 714.463Z" fill="#FFA229"/>
<path d="M780.889 695.506H358.547C355.596 695.506 353.202 693.112 353.202 690.161C353.202 687.21 355.596 684.816 358.547 684.816H780.889C783.84 684.816 786.233 687.21 786.233 690.161C786.233 693.114 783.842 695.506 780.889 695.506Z" fill="#FFA229"/>
<path d="M567.683 790.942H358.547C355.596 790.942 353.202 788.548 353.202 785.597C353.202 782.647 355.596 780.253 358.547 780.253H567.683C570.634 780.253 573.028 782.647 573.028 785.597C573.028 788.548 570.634 790.942 567.683 790.942Z" fill="#FFA229"/>
<path d="M780.889 347.509H358.547C355.596 347.509 353.202 345.115 353.202 342.164C353.202 339.214 355.596 336.82 358.547 336.82H780.889C783.84 336.82 786.233 339.214 786.233 342.164C786.233 345.117 783.842 347.509 780.889 347.509Z" fill="#FFA229"/>
<path d="M780.889 328.551H358.547C355.596 328.551 353.202 326.158 353.202 323.207C353.202 320.256 355.596 317.862 358.547 317.862H780.889C783.84 317.862 786.233 320.256 786.233 323.207C786.233 326.16 783.842 328.551 780.889 328.551Z" fill="#FFA229"/>
<path d="M780.889 309.594H358.547C355.596 309.594 353.202 307.2 353.202 304.249C353.202 301.299 355.596 298.905 358.547 298.905H780.889C783.84 298.905 786.233 301.299 786.233 304.249C786.233 307.202 783.842 309.594 780.889 309.594Z" fill="#FFA229"/>
<path d="M780.889 290.619H358.547C355.596 290.619 353.202 288.225 353.202 285.274C353.202 282.323 355.596 279.93 358.547 279.93H780.889C783.84 279.93 786.233 282.323 786.233 285.274C786.233 288.227 783.842 290.619 780.889 290.619Z" fill="#FFA229"/>
<path d="M780.889 271.661H358.547C355.596 271.661 353.202 269.268 353.202 266.317C353.202 263.366 355.596 260.972 358.547 260.972H780.889C783.84 260.972 786.233 263.366 786.233 266.317C786.233 269.27 783.842 271.661 780.889 271.661Z" fill="#FFA229"/>
<path d="M567.683 367.098H358.547C355.596 367.098 353.202 364.704 353.202 361.753C353.202 358.802 355.596 356.409 358.547 356.409H567.683C570.634 356.409 573.028 358.802 573.028 361.753C573.028 364.704 570.634 367.098 567.683 367.098Z" fill="#FFA229"/>
<path d="M129.418 480.653C123.076 481.323 116.735 486.49 117.816 493.331C118.607 498.331 120.745 502.957 122.639 507.609C124.612 512.45 126.341 517.388 128.173 522.286C132.366 533.487 136.51 544.705 140.703 555.905C142.655 561.122 144.607 566.339 146.559 571.555C149.11 578.371 151.993 585.622 158.012 589.712C164.031 593.804 174.116 592.55 176.408 585.643C165.606 555.004 155.618 524.106 146.324 492.98C144.438 486.662 140.451 482.008 133.681 480.803C132.253 480.547 130.815 480.504 129.418 480.653Z" fill="#363452"/>
<path d="M151.066 582.311C155.372 599.226 185.114 591.232 196.651 589.201C219.261 585.223 241.434 578.772 262.651 570.002C261.85 567.606 262.172 565.206 261.372 562.811C234.876 564.858 208.353 565.487 181.86 567.534C175.62 568.017 169.229 568.535 163.261 570.563C157.675 572.464 149.776 577.237 151.066 582.311Z" fill="#363452"/>
<path d="M277.028 560.122C273.301 562.891 271.37 567.559 267.695 570.397C263.987 573.259 258.646 573.828 254.416 571.814C253.518 569.402 252.724 567.386 251.826 564.974C259.325 557.929 261.281 556.41 268.169 549.759C268.741 550.498 278.778 549.45 279.352 550.188C279.461 554.272 280.309 557.685 277.028 560.122Z" fill="#FCCABA"/>
<path d="M280.836 555.906C277.434 555.39 274.363 557.14 271.596 558.882C268.884 560.588 271.862 564.588 274.567 562.883C275.783 562.118 283.133 558.236 283.647 561.626C284.128 564.792 287.186 564.909 286.703 561.736C286.234 558.651 283.932 556.377 280.836 555.906Z" fill="#FCCABA"/>
<path d="M290.511 553.653C284.962 550.149 278.317 550.085 272.75 553.607C270.043 555.32 273.018 559.317 275.721 557.609C279.24 555.384 283.932 553.222 287.473 555.458C290.156 557.151 293.226 555.368 290.511 553.653Z" fill="#FCCABA"/>
<path d="M290.457 544.587C283.938 544.346 277.896 546.191 272.822 550.351C270.352 552.375 273.303 556.393 275.793 554.352C279.763 551.098 283.899 547.705 289.07 547.897C292.242 548.015 293.657 544.705 290.457 544.587Z" fill="#FCCABA"/>
<path d="M282.667 538.988C274.943 542.75 268.549 548.198 263.792 555.373C262.034 558.024 265.916 561.157 267.692 558.476C271.951 552.052 275.612 546.151 282.56 542.766C285.424 541.369 285.556 537.581 282.667 538.988Z" fill="#FCCABA"/>
<path d="M265.111 559.528C265.869 564.185 261.899 567.947 257.295 566.856C256.115 566.577 255.531 568.381 256.719 568.663C262.747 570.091 267.957 565.24 266.962 559.113C266.766 557.908 264.918 558.325 265.111 559.528Z" fill="#FDA98F"/>
<path d="M273.183 549.87C273.24 553.995 270.308 557.513 266.237 558.198C265.034 558.401 265.449 560.252 266.652 560.049C271.515 559.232 275.147 554.878 275.079 549.946C275.06 548.731 273.166 548.646 273.183 549.87Z" fill="#FDA98F"/>
<path d="M287.734 679.183L258.906 664.037L230.595 680.029L229.934 634.343L229.48 603.348H286.62L286.661 605.453L287.074 634.466L287.734 679.183Z" fill="#48466D"/>
<path d="M287.076 634.465C282.949 637.024 279.627 642.884 274.943 643.71C269.805 644.617 263.986 638.943 258.6 638.943C253.214 638.943 247.395 644.617 242.257 643.71C237.49 642.863 234.168 636.838 229.937 634.341L229.483 603.347H286.622L286.664 605.452L287.076 634.465Z" fill="#48466D"/>
<path d="M352.742 545.651C352.742 551.045 346.128 555.796 345.229 560.932C344.304 566.214 348.881 572.931 347.088 577.859C345.262 582.873 337.42 585.073 334.783 589.631C332.121 594.233 334.117 602.12 330.718 606.166C327.309 610.225 319.191 609.618 315.134 613.027C311.088 616.426 310.283 624.53 305.681 627.192C301.123 629.829 293.707 626.494 288.692 628.32C283.767 630.113 280.234 637.451 274.951 638.378C269.815 639.278 263.998 633.603 258.604 633.603C253.21 633.603 247.393 639.278 242.257 638.378C236.974 637.453 233.443 630.116 228.516 628.32C223.501 626.494 216.083 629.829 211.525 627.192C206.923 624.53 206.118 616.426 202.072 613.027C198.013 609.618 189.897 610.223 186.488 606.166C183.089 602.12 185.085 594.233 182.423 589.631C179.786 585.073 171.944 582.873 170.118 577.861C168.325 572.935 172.902 566.216 171.977 560.934C171.077 555.798 164.464 551.047 164.464 545.653C164.464 540.259 171.077 535.509 171.977 530.373C172.902 525.09 168.325 518.373 170.118 513.446C171.944 508.431 179.786 506.232 182.423 501.673C185.085 497.072 183.089 489.185 186.488 485.138C189.897 481.079 198.015 481.686 202.072 478.277C206.118 474.878 206.923 466.775 211.525 464.113C216.083 461.476 223.499 464.811 228.514 462.986C233.441 461.193 236.972 453.855 242.255 452.929C247.391 452.029 253.208 457.704 258.602 457.704C263.996 457.704 269.813 452.029 274.949 452.929C280.232 453.853 283.763 461.191 288.69 462.986C293.705 464.813 301.123 461.478 305.681 464.115C310.283 466.777 311.088 474.881 315.134 478.279C319.193 481.688 327.309 481.083 330.718 485.14C334.117 489.187 332.121 497.074 334.783 501.675C337.42 506.234 345.262 508.431 347.086 513.446C348.879 518.371 344.302 525.09 345.227 530.373C346.129 535.507 352.742 540.257 352.742 545.651Z" fill="#3D84A8"/>
<path d="M258.603 622.335C216.321 622.335 181.922 587.936 181.922 545.654C181.922 503.372 216.321 468.971 258.603 468.971C300.884 468.971 335.283 503.37 335.283 545.654C335.285 587.936 300.886 622.335 258.603 622.335ZM258.603 471.541C217.736 471.541 184.489 504.788 184.489 545.654C184.489 586.52 217.736 619.768 258.603 619.768C299.469 619.768 332.716 586.52 332.716 545.654C332.716 504.788 299.469 471.541 258.603 471.541Z" fill="#FFA229"/>
<path d="M316.651 569.563C330.101 537.449 314.97 500.512 282.855 487.062C250.74 473.612 213.803 488.743 200.354 520.858C186.904 552.973 202.035 589.91 234.15 603.36C266.264 616.809 303.202 601.678 316.651 569.563Z" fill="#E8E8E8"/>
<path d="M237.987 533.095C239.149 533.095 240.26 533.3 241.319 533.71C242.379 534.109 243.262 534.696 243.968 535.471L248.138 532.155L243.37 542.375L242.96 537.402C242.584 536.946 242.185 536.587 241.764 536.325C241.342 536.063 240.932 535.869 240.533 535.744C240.146 535.607 239.793 535.522 239.474 535.488C239.166 535.454 238.927 535.437 238.756 535.437C237.833 535.437 236.973 535.67 236.175 536.137C235.389 536.604 234.706 537.277 234.125 538.154C233.543 539.02 233.082 540.068 232.74 541.298C232.41 542.529 232.245 543.902 232.245 545.417C232.245 546.932 232.41 548.317 232.74 549.57C233.082 550.823 233.538 551.9 234.107 552.8C234.688 553.7 235.366 554.401 236.141 554.902C236.916 555.392 237.742 555.637 238.619 555.637C239.508 555.637 240.271 555.42 240.909 554.987C241.547 554.543 242.071 553.985 242.481 553.312C242.892 552.64 243.188 551.905 243.37 551.108C243.564 550.31 243.661 549.547 243.661 548.818C243.661 548.658 243.661 548.51 243.661 548.374C243.661 548.225 243.649 548.072 243.626 547.912C244.367 548.402 244.908 548.96 245.25 549.587C245.603 550.202 245.78 550.84 245.78 551.501C245.78 552.116 245.626 552.771 245.318 553.466C245.022 554.15 244.578 554.788 243.985 555.38C243.393 555.961 242.664 556.446 241.798 556.833C240.932 557.209 239.929 557.397 238.79 557.397C237.867 557.397 236.95 557.3 236.039 557.106C235.127 556.913 234.256 556.617 233.424 556.218C232.592 555.808 231.817 555.289 231.1 554.663C230.382 554.036 229.761 553.29 229.237 552.424C228.713 551.558 228.297 550.561 227.989 549.433C227.693 548.305 227.545 547.046 227.545 545.656C227.545 544.3 227.682 543.053 227.955 541.914C228.24 540.763 228.627 539.726 229.117 538.803C229.618 537.869 230.2 537.049 230.86 536.342C231.533 535.625 232.25 535.026 233.014 534.548C233.788 534.069 234.597 533.71 235.44 533.471C236.295 533.221 237.144 533.095 237.987 533.095ZM256.461 533.864C257.236 533.864 257.976 533.938 258.683 534.086C259.4 534.223 260.067 534.411 260.682 534.65C261.297 534.878 261.856 535.14 262.357 535.437C262.858 535.733 263.285 536.029 263.639 536.325L268.082 533.266L262.972 543.076L262.579 537.932C262.249 537.704 261.89 537.504 261.502 537.333C261.126 537.151 260.745 537.003 260.357 536.889C259.981 536.764 259.617 536.667 259.264 536.599C258.91 536.519 258.597 536.456 258.324 536.411C258.05 536.365 257.828 536.337 257.657 536.325C257.498 536.302 257.412 536.291 257.401 536.291C256.626 536.291 255.977 536.376 255.453 536.547C254.929 536.718 254.501 536.94 254.171 537.214C253.852 537.487 253.618 537.801 253.47 538.154C253.333 538.496 253.265 538.843 253.265 539.196C253.265 539.914 253.413 540.524 253.709 541.025C254.006 541.515 254.456 541.953 255.06 542.341C255.663 542.728 256.432 543.093 257.367 543.435C258.301 543.765 259.4 544.124 260.665 544.511C261.428 544.75 262.146 545.075 262.818 545.485C263.502 545.884 264.094 546.357 264.596 546.904C265.097 547.439 265.49 548.043 265.775 548.715C266.071 549.376 266.219 550.088 266.219 550.852C266.219 551.74 266.094 552.532 265.843 553.227C265.593 553.911 265.257 554.514 264.835 555.039C264.425 555.551 263.946 555.99 263.399 556.354C262.853 556.708 262.283 556.993 261.69 557.209C261.109 557.437 260.517 557.596 259.913 557.688C259.321 557.79 258.762 557.841 258.238 557.841C256.7 557.841 255.305 557.579 254.051 557.055C252.798 556.531 251.63 555.813 250.548 554.902L246.104 557.944L251.061 549.16C251.197 549.98 251.437 550.772 251.778 551.535C252.132 552.287 252.564 552.959 253.077 553.552C253.59 554.144 254.182 554.617 254.854 554.97C255.527 555.323 256.262 555.5 257.059 555.5C257.697 555.5 258.278 555.403 258.802 555.209C259.338 555.016 259.793 554.759 260.169 554.44C260.545 554.11 260.836 553.734 261.041 553.312C261.257 552.88 261.366 552.43 261.366 551.962C261.366 551.313 261.183 550.755 260.819 550.288C260.454 549.809 259.976 549.388 259.383 549.023C258.791 548.647 258.113 548.305 257.35 547.998C256.598 547.679 255.823 547.354 255.025 547.023C254.228 546.693 253.447 546.328 252.684 545.93C251.932 545.531 251.26 545.064 250.667 544.528C250.075 543.981 249.597 543.343 249.232 542.614C248.867 541.885 248.685 541.025 248.685 540.034C248.685 539.27 248.833 538.524 249.129 537.795C249.437 537.054 249.904 536.394 250.531 535.812C251.169 535.231 251.978 534.764 252.958 534.411C253.937 534.047 255.105 533.864 256.461 533.864ZM289.667 550.219C289.359 551.78 288.966 553.068 288.487 554.082C288.009 555.084 287.525 555.876 287.035 556.457C286.545 557.038 286.083 557.443 285.65 557.67C285.229 557.898 284.91 558.012 284.693 558.012C284.352 558.012 283.913 557.864 283.377 557.568C282.842 557.272 282.25 556.89 281.6 556.423C280.962 555.956 280.296 555.432 279.601 554.851C278.917 554.258 278.256 553.671 277.618 553.09C276.98 552.509 276.393 551.962 275.858 551.45C275.322 550.937 274.889 550.515 274.559 550.185L274.696 554.406L278.302 556.406L267.45 557.175L271.09 553.825L271.722 536.633L267.279 534.497C269.5 534.371 271.386 534.28 272.936 534.223C274.485 534.155 275.767 534.109 276.781 534.086C277.795 534.064 278.575 534.052 279.122 534.052C279.669 534.052 280.056 534.052 280.284 534.052C280.774 534.052 281.304 534.098 281.874 534.189C282.455 534.269 283.03 534.411 283.6 534.616C284.169 534.81 284.722 535.061 285.257 535.368C285.793 535.676 286.266 536.052 286.676 536.496C287.086 536.94 287.411 537.459 287.65 538.051C287.901 538.632 288.026 539.293 288.026 540.034C288.026 540.205 288.003 540.444 287.958 540.751C287.923 541.048 287.844 541.395 287.718 541.794C287.593 542.181 287.405 542.597 287.154 543.042C286.904 543.474 286.562 543.913 286.129 544.357C285.707 544.79 285.183 545.212 284.557 545.622C283.93 546.032 283.172 546.397 282.284 546.716C281.406 547.035 280.381 547.297 279.208 547.502C278.045 547.696 276.712 547.804 275.208 547.827C275.949 548.385 276.752 548.983 277.618 549.621C278.484 550.248 279.361 550.829 280.25 551.364C281.139 551.888 282.01 552.327 282.865 552.68C283.719 553.022 284.517 553.193 285.257 553.193C285.611 553.193 285.986 553.153 286.385 553.073C286.795 552.993 287.194 552.845 287.582 552.629C287.98 552.401 288.356 552.099 288.709 551.723C289.074 551.336 289.393 550.834 289.667 550.219ZM283.087 540.837C283.087 540.484 283.058 540.131 283.001 539.777C282.944 539.424 282.825 539.088 282.643 538.769C282.46 538.45 282.198 538.148 281.856 537.863C281.515 537.578 281.053 537.333 280.472 537.128C279.903 536.923 279.196 536.764 278.353 536.65C277.51 536.525 276.502 536.462 275.328 536.462C275.146 536.462 274.969 536.462 274.798 536.462C274.627 536.462 274.451 536.473 274.269 536.496L274.439 545.622C275.157 545.611 275.869 545.554 276.576 545.451C277.282 545.337 277.954 545.183 278.592 544.99C279.23 544.796 279.823 544.562 280.37 544.289C280.928 544.016 281.406 543.708 281.805 543.366C282.204 543.013 282.517 542.626 282.745 542.204C282.973 541.783 283.087 541.327 283.087 540.837Z" fill="#1C4670"/>
<path d="M164.677 435.72C168.639 429.866 172.486 423.82 174.681 417.101C176.877 410.382 177.294 402.836 174.45 396.365C171.607 389.894 165.069 384.826 158.002 384.997C159.826 380.802 154.413 376.087 150.627 373.522C146.838 370.959 142.08 370.366 137.513 370.115C127.699 369.57 117.614 370.3 108.553 374.114C99.4925 377.927 91.5397 385.158 88.5414 394.52C85.7742 403.164 86.9628 413.682 80.5741 420.126C76.6555 424.078 70.7951 425.392 66.3502 428.742C60.8592 432.879 57.9888 440.225 59.2166 446.989C60.4444 453.754 65.7167 459.62 72.3097 461.562C76.5998 462.825 81.6141 462.689 84.8745 465.749C88.1473 468.819 88.3144 473.846 89.7032 478.114C92.914 487.981 103.814 494.219 114.164 493.497C124.515 492.775 133.856 485.984 139.248 477.119C141.937 472.699 143.947 467.567 148.181 464.591C152.199 461.766 157.395 461.477 162.17 460.32C166.943 459.162 172.075 456.325 172.886 451.482C174.124 444.107 165.076 443.19 164.677 435.72Z" fill="#212121"/>
<path d="M163.76 710.453C162.85 676.298 158.481 642.747 150.254 610.913C149.032 606.187 146.952 601.899 142.014 601.113C137.074 600.327 131.645 601.976 126.719 604.363C112.058 611.466 100.217 625.618 96.2287 640.801C92.2399 655.984 96.7508 670.13 107.015 679.773C108.521 692.071 110.812 704.645 113.802 717.096C119.53 740.954 127.873 764.365 138.525 784.526C145.838 786.218 153.525 782.481 161.077 779.107C163.454 756.169 164.366 733.179 163.76 710.453Z" fill="#46CDCF"/>
<path d="M160.624 772.371L141.37 779.67C123.372 797.74 114.585 822.661 112.703 846.105C111.108 865.985 113.949 885.168 117.451 904.059H135.771C139.254 860.855 163.119 815.249 160.624 772.371Z" fill="#46CDCF"/>
<path d="M135.774 904.069H117.454C118.081 907.455 118.727 910.835 119.377 914.205C120.225 918.608 119.555 920.913 119.322 925.556C124.955 925.814 130.502 926.842 136.135 927.1C135.174 919.52 135.149 911.832 135.774 904.069Z" fill="#FCCABA"/>
<path d="M143.796 803.857C142.36 800.906 140.922 797.955 139.486 795.004C138.532 793.046 135.08 794.87 136.041 796.843C137.478 799.794 138.916 802.745 140.352 805.696C141.306 807.656 144.756 805.832 143.796 803.857Z" fill="#339596"/>
<path d="M139.257 661.223C129.757 667.112 119.833 671.175 109.334 673.46C106.963 673.975 107.361 677.49 109.732 676.974C120.508 674.63 130.827 670.418 140.586 664.37C142.718 663.045 141.411 659.886 139.257 661.223Z" fill="#339596"/>
<path d="M155.46 929.369L140.271 925.302L117.863 924.912C117.863 924.912 112.929 933.494 111.34 943.277H149.016L155.46 929.369Z" fill="#CCD6DA"/>
<path d="M171.432 943.266C172.879 934.104 164.631 929.358 155.459 929.358C146.286 929.358 139.658 934.104 138.127 943.266H171.432Z" fill="#EAEDEF"/>
<path d="M98.7687 720.978C100.554 702.844 102.337 684.677 104.084 666.2C105.244 653.943 113.29 642.275 114.629 630.006C115.97 617.736 112.493 605.019 102.76 599.001C97.0312 595.46 86.7363 592.868 80.2754 597.253C64.6483 607.858 53.5672 624.597 47.6985 641.811C41.8319 659.027 40.7485 676.771 41.4295 693.913C41.7803 702.739 42.5954 711.472 43.8521 720.075C47.7563 746.822 55.9732 772.307 68.2038 795.3C75.8223 796.885 84.7182 795.179 92.0045 790.488C94.2228 767.009 96.4989 744.022 98.7687 720.978Z" fill="#46CDCF"/>
<path d="M102.52 673.969C97.8664 665.789 91.387 659.204 83.1576 654.514C81.2571 653.431 78.9026 656.573 80.8073 657.661C88.5104 662.052 94.7134 668.141 99.0757 675.81C100.14 677.681 103.599 675.865 102.52 673.969Z" fill="#339596"/>
<path d="M81.2215 661.861C79.226 661.328 77.2285 660.798 75.2331 660.267C73.054 659.688 71.5126 663.202 73.6937 663.782C75.6912 664.312 77.6866 664.844 79.6841 665.375C81.8611 665.953 83.4026 662.44 81.2215 661.861Z" fill="#339596"/>
<path d="M92.4848 772.348L73.23 779.647C55.2319 797.717 46.4454 822.638 44.5634 846.082C42.9683 865.962 45.8098 885.145 49.3116 904.036H67.6316C71.1128 860.832 94.9796 815.226 92.4848 772.348Z" fill="#46CDCF"/>
<path d="M67.6345 904.046H49.3145C49.9418 907.432 50.5877 910.812 51.2377 914.182C52.0837 918.585 51.4151 920.89 51.1819 925.533C56.8154 925.791 62.3622 926.819 67.9956 927.077C67.034 919.497 67.0092 911.809 67.6345 904.046Z" fill="#FCCABA"/>
<path d="M75.6566 803.834C74.2204 800.883 72.7821 797.932 71.3459 794.981C70.3925 793.023 66.9402 794.847 67.9018 796.82C69.338 799.771 70.7763 802.722 72.2125 805.673C73.1659 807.633 76.6161 805.809 75.6566 803.834Z" fill="#339596"/>
<path d="M87.924 929.357L72.7344 925.289L50.3265 924.899C50.3265 924.899 45.3926 933.482 43.8037 943.265H81.4796L87.924 929.357Z" fill="#CCD6DA"/>
<path d="M103.896 943.254C105.343 934.092 97.0948 929.345 87.9224 929.345C78.75 929.345 72.122 934.092 70.5908 943.254H103.896Z" fill="#EAEDEF"/>
<path d="M159.712 535.882C155.486 540.189 154.456 545.977 153.886 551.984C151.449 577.681 159.458 600.555 156.897 624.717C156.802 625.53 156.707 626.38 156.179 627.006C155.574 627.724 154.59 627.969 153.663 628.14C124.471 633.774 84.0566 627.526 60.3838 609.527C82.1643 591.812 100.837 559.264 92.2343 532.548C89.1906 523.095 84.1432 514.415 80.4928 505.171C78.6212 500.427 75.497 495.885 74.6469 490.794C73.8338 485.916 74.6159 480.384 77.3604 476.12C80.9901 470.479 86.6937 469.918 92.8699 469.263C98.3816 468.679 103.961 468.915 109.413 469.891C120.531 471.882 130.905 476.867 140.23 483.128C142.496 484.649 144.543 486.465 146.309 488.543C152.741 496.112 160.95 504.215 164.136 513.64C164.74 515.416 165.176 517.232 165.366 519.104C165.403 519.349 165.423 519.576 165.442 519.822C165.892 525.639 163.719 531.794 159.712 535.882Z" fill="#FFA229"/>
<path d="M127.964 487.214C124.365 488.739 120.405 488.871 116.565 488.485C114.603 488.289 112.659 487.942 110.725 487.56C108.98 487.214 107.219 486.914 105.752 485.839C104.683 485.057 103.672 486.857 104.733 487.635C106.334 488.809 108.292 489.18 110.201 489.558C112.306 489.975 114.427 490.336 116.563 490.55C120.799 490.975 125.032 490.684 128.981 489.009C130.205 488.491 129.173 486.702 127.964 487.214Z" fill="#B0BEC5"/>
<path d="M87.6437 469.949C83.5538 470.686 79.9343 472.126 77.359 476.127C74.6146 480.391 73.8325 485.923 74.6455 490.801C75.4957 495.892 78.6178 500.434 80.4915 505.178C84.1398 514.424 89.1893 523.102 92.233 532.555C100.836 559.271 52.7762 607.44 37.9023 651.866C49.7305 660.861 76.3686 670.062 93.0687 673.169C103.423 618.042 129.389 508.737 87.6437 469.949Z" fill="#48466D"/>
<path d="M161.297 534.04C164.277 530.072 165.824 524.829 165.439 519.835C165.42 519.589 165.401 519.362 165.362 519.117C165.172 517.245 164.739 515.429 164.132 513.652C160.946 504.228 154.062 489.604 145.497 484.573C138.516 480.473 134.316 479.584 134.023 479.268C135.187 480.521 135.813 483.129 136.475 484.689C137.585 487.299 138.675 489.918 139.83 492.51C142.292 498.032 145.495 503.195 147.556 508.917C150.156 516.129 150.018 523.229 149.937 530.755C149.863 537.602 149.607 544.446 149.228 551.283C148.495 564.446 147.294 577.578 146.301 590.723C145.327 603.618 137.676 657.881 137.529 670.815C140.689 670.487 162.537 668.13 165.494 667.561C166.421 667.391 152.199 578.107 154.504 552.597C155.014 546.991 157.917 538.541 161.297 534.04Z" fill="#48466D"/>
<path d="M102.927 437.294C103.211 447.936 102.347 458.724 100.366 469.285C99.6849 468.26 96.862 469.168 96.1769 470.311C95.4918 471.454 95.5454 473.041 96.0366 474.231C96.5277 475.422 97.384 476.291 98.2487 477.077C104.452 482.725 112.268 485.707 120.225 485.459C121.684 485.414 123.186 485.251 124.548 484.477C125.91 483.701 127.119 482.203 127.386 480.399C127.675 478.447 126.802 476.557 125.576 475.424C124.35 474.293 122.819 473.771 121.321 473.272C122.122 465.311 122.214 457.798 123.013 449.834L102.927 437.294Z" fill="#FCCABA"/>
<path d="M115.759 468.253C117.558 469.929 119.43 471.448 121.361 472.828C122.12 465.032 122.232 457.645 123.018 449.832L102.93 437.294C102.979 439.164 102.992 441.038 102.967 442.913C102.895 448.458 104.488 453.691 107.308 457.738C109.925 461.487 112.523 465.239 115.759 468.253Z" fill="#FDA98F"/>
<path d="M156.365 403.619C155.565 421.289 148.951 456.068 134.323 460.513C128.275 462.353 106.376 447.322 102.388 440.199C97.9242 440.564 94.9011 438.468 93.1513 434.351C92.5673 433.022 92.2041 431.563 92.0947 430.088C93.8632 429.869 95.5924 429.597 97.3237 429.232C98.9993 428.885 100.658 428.466 102.28 427.993C118.712 423.22 132.94 411.871 140.627 395.458C145.619 396.677 150.464 398.39 154.364 400.249C155.653 400.868 156.419 402.197 156.365 403.619Z" fill="#FCCABA"/>
<path d="M133.802 410.431C129.145 407.043 123.307 406.754 118.293 409.536C116.786 410.372 118.377 412.528 119.869 411.703C123.778 409.534 128.513 409.893 132.108 412.507C133.499 413.518 135.199 411.447 133.802 410.431Z" fill="#212121"/>
<path d="M156.364 413.506C153.234 410.128 147.896 409.573 144.324 412.642C143.084 413.708 144.578 415.782 145.828 414.709C148.249 412.629 152.058 412.592 154.299 415.011C155.403 416.201 157.483 414.711 156.364 413.506Z" fill="#212121"/>
<path d="M130.527 415.725C130.67 414.016 128.026 413.587 127.882 415.308C127.74 417.01 127.597 418.715 127.455 420.417C127.312 422.124 129.956 422.555 130.1 420.834C130.243 419.129 130.385 417.427 130.527 415.725Z" fill="#212121"/>
<path d="M152.452 418.463C152.595 416.756 149.951 416.325 149.807 418.046C149.664 419.748 149.522 421.453 149.378 423.155C149.235 424.864 151.879 425.295 152.023 423.572C152.168 421.87 152.31 420.167 152.452 418.463Z" fill="#212121"/>
<path d="M143.651 433.055C142.774 434.157 141.565 434.72 140.166 434.764C138.998 434.799 139.227 436.6 140.387 436.565C142.24 436.51 143.932 435.618 145.081 434.172C145.81 433.257 144.378 432.141 143.651 433.055Z" fill="#FDA98F"/>
<path d="M100.871 435.442C98.7952 434.842 97.1176 433.164 97.0453 430.907C97.0268 430.323 97.1176 429.76 97.3177 429.231C98.9933 428.885 100.652 428.466 102.274 427.993C102.165 428.284 101.928 428.503 101.527 428.631C99.5422 429.231 98.9582 432.128 101.29 432.785C102.912 433.255 102.512 435.915 100.871 435.442Z" fill="#FDA98F"/>
<path d="M140.488 443.844C137.83 445.144 134.516 444.347 132.766 441.948C132.083 441.009 130.502 441.917 131.194 442.868C133.556 446.112 137.793 447.187 141.406 445.418C142.458 444.9 141.536 443.33 140.488 443.844Z" fill="#C42828"/>
<path d="M84.8341 471.887C78.6641 470.278 70.9073 472.876 69.5062 479.656C68.4806 484.615 65.3771 584.1 69.566 590.051C73.755 596.002 87.1824 592.356 91.7634 586.702C92.465 554.222 94.0188 521.787 96.3052 489.384C96.7695 482.805 94.6812 477.046 88.7713 473.53C87.5249 472.789 86.1939 472.242 84.8341 471.887Z" fill="#48466D"/>
<path d="M68.5044 583.692C66.9072 601.073 97.6083 603.487 109.16 605.431C131.799 609.242 150.932 612.218 173.858 611.05C182.26 609.82 178.932 604.731 178.979 602.206C153.326 595.274 128.12 586.995 102.466 580.064C96.4239 578.432 90.2292 576.783 83.9251 576.698C78.0255 576.622 68.9852 578.479 68.5044 583.692Z" fill="#48466D"/>
<path d="M94.6364 504.038C93.5531 513.547 93.1631 523.114 92.8886 532.676C92.6142 542.288 92.3707 551.9 92.1127 561.51C91.9662 566.959 91.8197 572.407 91.6752 577.857C91.6402 579.188 93.7037 579.184 93.7388 577.857C94.2526 558.658 94.4528 539.417 95.4185 520.235C95.6909 514.824 96.0871 509.42 96.7 504.036C96.8506 502.72 94.785 502.732 94.6364 504.038Z" fill="#2F2E47"/>
<path d="M154.405 594.5C133.46 589.127 112.67 583.159 92.0635 576.607C90.7965 576.205 90.2744 578.202 91.5394 578.603C112.146 585.154 132.936 591.12 153.881 596.495C155.166 596.826 155.696 594.83 154.405 594.5Z" fill="#2F2E47"/>
<path d="M163.088 609.616C150.104 608.654 137.119 607.693 124.135 606.731C111.875 605.823 99.4344 605.018 87.6765 601.151C81.5849 599.148 75.7245 596.304 70.6338 592.375C69.5958 591.574 68.1245 593.023 69.1749 593.834C78.502 601.032 89.87 604.657 101.382 606.5C114.302 608.565 127.503 609.044 140.538 610.01C148.055 610.567 155.573 611.122 163.09 611.679C164.415 611.778 164.407 609.715 163.088 609.616Z" fill="#2F2E47"/>
<path d="M92.0391 576.795C90.0416 576.881 88.2484 577.754 86.6223 578.866C85.0148 579.966 83.2443 581.142 82.1919 582.82C81.4883 583.945 83.2815 584.966 83.9872 583.84C84.825 582.498 86.3582 581.539 87.6417 580.662C88.9562 579.762 90.4089 578.93 92.0391 578.858C92.5962 578.833 93.0708 578.4 93.0708 577.826C93.0708 577.288 92.5983 576.772 92.0391 576.795Z" fill="#2F2E47"/>
<path d="M198.252 592.44C199.521 593.014 201.585 591.514 200.881 590.379C199.383 587.96 196.098 587.475 192.542 588.406C190.384 588.971 188.221 589.947 186.137 590.804C185.848 590.921 185.563 591.035 185.281 591.144C185.167 590.791 185.056 590.436 184.959 590.084C186.671 588.808 188.636 587.708 190.644 586.906C191.628 586.514 192.67 586.499 193.63 586.586C194.587 586.671 195.52 586.846 196.521 586.792C197.583 586.735 198.78 586.371 199.523 585.577C200.402 584.638 199.977 583.47 198.784 583.293C196.091 582.892 193.06 581.687 190.361 582.432C190.303 582.449 190.245 582.463 190.19 582.48C181.558 584.888 173.479 590.878 169.594 599.079C168.952 600.432 168.009 601.953 168.052 603.536C168.1 605.304 169.812 606.528 171.044 607.574C171.975 608.364 173.003 609.064 174.065 609.726C177.258 610.052 180.788 609.473 183.789 607.599C186.391 605.975 188.809 603.835 189.973 601.462C190.082 601.454 190.194 601.445 190.301 601.441C191.865 601.394 192.998 602.244 194.533 602.114C195.285 602.05 196.254 601.408 196.275 600.723C196.339 598.732 193.852 597.933 191.727 597.824C191.706 597.822 191.682 597.824 191.659 597.822C193.469 597.287 195.2 597.079 197.001 597.296C199.079 597.545 200.79 595.04 199.053 594.178C196.797 593.061 193.712 593.129 190.811 593.967C189.674 594.295 188.33 594.755 187.045 595.339C187.012 595.278 186.983 595.216 186.952 595.154C190.836 593.4 194.818 590.888 198.252 592.44Z" fill="#FCCABA"/>
</g>
<defs>
<clipPath id="clip0_26_3937">
<rect width="1080" height="1080" fill="white"/>
</clipPath>
</defs>
</svg>
