<svg width="2372" height="2372" viewBox="0 0 2372 2372" fill="none" xmlns="http://www.w3.org/2000/svg">
<path d="M1186 2372C1841.01 2372 2372 1841.01 2372 1186C2372 530.99 1841.01 0 1186 0C530.99 0 0 530.99 0 1186C0 1841.01 530.99 2372 1186 2372Z" fill="white"/>
<path d="M1186 2264C1781.36 2264 2264 1781.36 2264 1186C2264 590.637 1781.36 108 1186 108C590.637 108 108 590.637 108 1186C108 1781.36 590.637 2264 1186 2264Z" fill="#30486E"/>
<path d="M861.626 677.313H985V650H860.795C853.695 650.007 846.888 652.8 841.866 657.765C836.843 662.731 834.014 669.465 834 676.491V1083.89L861.626 1108V677.313Z" fill="white"/>
<path d="M1513.34 677.328V1108L1541 1083.92V676.487C1540.99 669.463 1538.16 662.73 1533.13 657.765C1528.1 652.8 1521.29 650.007 1514.18 650H1376V677.328H1513.34Z" fill="white"/>
<path d="M1455 1039H1071V1067H1455V1039Z" fill="white"/>
<path d="M1455 924H1071V951H1455V924Z" fill="white"/>
<path d="M1455 809H1071V836H1455V809Z" fill="white"/>
<path d="M1386 1154H1071V1182H1386V1154Z" fill="white"/>
<path d="M969.037 1118.07L939.578 1088.79L920 1108.25L949.459 1137.54L969.037 1157L988.615 1137.54L1043 1083.46L1023.43 1064L969.037 1118.07Z" fill="white"/>
<path d="M969.037 982.493L939.578 953.522L920 972.776L949.459 1001.75L969.037 1021L988.615 1001.75L1043 948.254L1023.43 929L969.037 982.493Z" fill="white"/>
<path d="M969.037 847.498L939.578 818.524L920 837.78L949.459 866.753L969.037 886L988.615 866.753L1043 813.256L1023.43 794L969.037 847.498Z" fill="white"/>
<path d="M985 705.078C985 710.097 987.023 714.909 990.624 718.458C994.226 722.006 999.11 724 1004.2 724H1356.8C1359.32 724 1361.82 723.511 1364.15 722.56C1366.48 721.609 1368.59 720.215 1370.38 718.458C1372.16 716.701 1373.57 714.615 1374.54 712.319C1375.5 710.024 1376 707.563 1376 705.078V588.475C1376 585.99 1375.5 583.53 1374.54 581.234C1373.57 578.938 1372.16 576.852 1370.38 575.095C1368.59 573.338 1366.48 571.944 1364.15 570.993C1361.82 570.043 1359.32 569.553 1356.8 569.553H1273.27C1271.18 546.728 1260.51 525.497 1243.34 510.036C1226.17 494.574 1203.76 486 1180.5 486C1157.24 486 1134.83 494.574 1117.66 510.036C1100.49 525.497 1089.82 546.728 1087.73 569.553H1004.2C999.11 569.553 994.226 571.547 990.624 575.095C987.023 578.644 985 583.457 985 588.475V705.114V705.078ZM1095.83 596.782C1098.39 596.79 1100.92 596.287 1103.28 595.303C1105.63 594.32 1107.77 592.877 1109.54 591.061C1113.08 587.486 1115.05 582.689 1115.03 577.699C1115.03 560.588 1121.93 544.179 1134.2 532.08C1146.48 519.981 1163.14 513.184 1180.5 513.184C1197.86 513.184 1214.52 519.981 1226.8 532.08C1239.07 544.179 1245.97 560.588 1245.97 577.699C1245.95 582.676 1247.92 587.461 1251.46 591.016C1253.23 592.832 1255.36 594.276 1257.72 595.259C1260.08 596.242 1262.61 596.745 1265.17 596.738H1348.34V696.69H1012.66V596.782H1095.83Z" fill="white"/>
<path d="M1180.5 587C1183.37 587 1186.17 586.12 1188.56 584.471C1190.94 582.823 1192.8 580.48 1193.9 577.738C1194.99 574.997 1195.28 571.98 1194.72 569.07C1194.16 566.16 1192.78 563.487 1190.75 561.39C1188.72 559.293 1186.14 557.865 1183.32 557.287C1180.51 556.709 1177.59 557.008 1174.94 558.144C1172.3 559.281 1170.03 561.205 1168.44 563.673C1166.85 566.141 1166 569.042 1166 572.009C1166 575.986 1167.53 579.799 1170.25 582.61C1172.97 585.421 1176.66 587 1180.5 587Z" fill="white"/>
<path d="M1836.51 1480.91C1834.54 1478.02 1831.57 1475.93 1828.15 1475.03C1824.73 1474.14 1821.1 1474.51 1817.94 1476.06L1654.88 1555.96C1649.38 1558.61 1643.11 1559.24 1637.19 1557.73C1631.27 1556.22 1626.09 1552.67 1622.59 1547.72L1541.34 1431.17L1519.38 1399.66L1513.65 1391.44L1500.01 1371.91L1451.89 1302.81L1431.75 1274L1420.11 1257.32C1416.59 1252.26 1415.07 1246.1 1415.83 1240.01C1416.59 1233.92 1419.59 1228.31 1424.26 1224.26L1513.65 1146.42L1541.34 1122.31L1550.9 1114L1551.01 1114.16L1563.42 1103.4C1564.86 1102.14 1566.04 1100.61 1566.89 1098.89C1567.74 1097.18 1568.24 1095.32 1568.36 1093.42C1568.48 1091.52 1568.22 1089.61 1567.59 1087.81C1566.97 1086 1565.99 1084.34 1564.71 1082.91C1563.43 1081.48 1561.88 1080.31 1560.15 1079.48C1558.41 1078.64 1556.53 1078.15 1554.6 1078.03C1552.68 1077.91 1550.74 1078.17 1548.92 1078.78C1547.09 1079.4 1545.41 1080.37 1543.96 1081.63L1541.34 1083.92L1513.65 1108L1404.94 1202.6C1394.94 1211.33 1388.53 1223.38 1386.9 1236.46C1385.27 1249.54 1388.55 1262.75 1396.11 1273.61L1396.38 1274H1113.78L1109.89 1273.48L1054.06 1265.87L986.532 1256.69C989.089 1247.04 988.884 1236.87 985.941 1227.32C982.997 1217.77 977.431 1209.21 969.858 1202.6L861.129 1107.93L833.474 1083.85L830.975 1081.67C829.394 1080.3 827.535 1079.27 825.522 1078.67C823.51 1078.06 821.389 1077.89 819.302 1078.15C817.215 1078.42 815.21 1079.12 813.419 1080.22C811.629 1081.31 810.095 1082.76 808.92 1084.49C807.266 1086.88 806.385 1089.72 806.394 1092.62C806.389 1094.7 806.836 1096.75 807.704 1098.64C808.573 1100.53 809.842 1102.22 811.428 1103.59L823.737 1114.28L823.947 1113.96L833.474 1122.24L861.166 1146.35L950.604 1224.21C955.263 1228.27 958.256 1233.88 959.016 1239.97C959.777 1246.06 958.252 1252.21 954.731 1257.27L861.166 1391.49L833.474 1431.25L752.272 1547.8C748.772 1552.75 743.594 1556.3 737.673 1557.81C731.751 1559.32 725.478 1558.69 719.986 1556.04L556.76 1476.21C553.318 1474.59 549.368 1474.38 545.765 1475.61C542.162 1476.84 539.194 1479.42 537.504 1482.8C535.814 1486.17 535.536 1490.07 536.732 1493.64C537.927 1497.22 540.5 1500.18 543.893 1501.9L707.027 1581.84C714.517 1585.51 722.764 1587.41 731.123 1587.41C745.239 1587.39 758.814 1582.04 769.056 1572.45L821.119 1631.42C814.809 1644.63 813.345 1659.6 816.978 1673.75C820.611 1687.91 829.114 1700.38 841.033 1709.03L844.007 1711.18C851.739 1716.8 860.659 1720.61 870.096 1722.33C879.533 1724.05 889.242 1723.64 898.495 1721.12C898.979 1730.99 901.75 1740.62 906.594 1749.27C911.438 1757.92 918.226 1765.36 926.437 1771.01C934.648 1776.67 944.062 1780.38 953.957 1781.88C963.851 1783.38 973.962 1782.62 983.512 1779.66C983.777 1789.66 986.388 1799.46 991.139 1808.29C995.89 1817.12 1002.65 1824.75 1010.89 1830.56C1019.13 1836.38 1028.63 1840.23 1038.63 1841.8C1048.63 1843.38 1058.87 1842.65 1068.54 1839.66C1068.42 1852.2 1071.99 1864.51 1078.83 1875.09C1085.66 1885.66 1095.46 1894.05 1107.03 1899.23C1118.61 1904.41 1131.45 1906.15 1144.01 1904.26C1156.57 1902.36 1168.31 1896.9 1177.78 1888.54L1182.36 1891.84C1193.9 1900.26 1207.87 1904.78 1222.22 1904.75C1231.09 1904.78 1239.88 1903.02 1248.03 1899.58C1256.19 1896.14 1263.56 1891.1 1269.68 1884.76C1275.8 1878.41 1280.54 1870.91 1283.62 1862.69C1286.7 1854.48 1288.05 1845.73 1287.59 1836.99L1299.83 1845.89C1311.08 1854.08 1324.7 1858.49 1338.67 1858.46C1348.97 1858.45 1359.12 1856.05 1368.31 1851.46C1377.5 1846.87 1385.47 1840.22 1391.59 1832.04C1400.63 1819.96 1405.1 1805.12 1404.23 1790.12L1411.65 1795.54C1422.89 1803.74 1436.5 1808.14 1450.47 1808.11C1460.76 1808.09 1470.91 1805.69 1480.1 1801.1C1489.29 1796.51 1497.26 1789.87 1503.38 1781.69C1512.09 1770.05 1516.56 1755.85 1516.09 1741.38C1525.15 1745.84 1535.14 1748.15 1545.27 1748.13C1555.56 1748.11 1565.71 1745.71 1574.89 1741.12C1584.07 1736.53 1592.04 1729.89 1598.15 1721.71C1603.26 1714.85 1606.94 1707.07 1609 1698.81C1611.06 1690.55 1611.44 1681.97 1610.14 1673.56C1608.84 1665.15 1605.87 1657.07 1601.41 1649.8C1596.94 1642.52 1591.07 1636.18 1584.13 1631.14L1499.81 1570.22L1461.95 1542.82L1385.47 1487.55L1365.58 1473.15L1345.65 1458.79H1329.56C1316.83 1458.88 1304.3 1455.67 1293.22 1449.5C1273.26 1438.26 1257.58 1416.17 1255.7 1379.93C1255.63 1378.55 1255.03 1377.25 1254.02 1376.3C1253.01 1375.35 1251.67 1374.82 1250.27 1374.82H1099.83C1098.65 1374.82 1097.49 1375.05 1096.41 1375.49C1095.32 1375.94 1094.34 1376.58 1093.51 1377.4C1092.68 1378.22 1092.02 1379.2 1091.57 1380.27C1091.13 1381.34 1090.9 1382.48 1090.9 1383.64V1414.82C1090.9 1423.29 1089.21 1431.67 1085.93 1439.49C1082.66 1447.31 1077.85 1454.42 1071.79 1460.41C1065.72 1466.39 1058.53 1471.14 1050.6 1474.38C1042.68 1477.62 1034.19 1479.29 1025.62 1479.29C1023.59 1479.28 1021.66 1478.48 1020.23 1477.06C1018.8 1475.65 1017.99 1473.73 1017.99 1471.73V1386.69C1017.98 1384.31 1018.47 1381.95 1019.44 1379.78C1020.41 1377.6 1021.83 1375.64 1023.61 1374.04L1096.55 1308.08C1100.27 1304.71 1105.13 1302.84 1110.17 1302.84H1416.47L1487.19 1404.28L1497.63 1419.26L1508.04 1434.2L1513.65 1442.26L1541.34 1481.96L1598.58 1564.05C1603.63 1571.26 1610.38 1577.14 1618.24 1581.21C1626.11 1585.27 1634.86 1587.38 1643.74 1587.36C1652.09 1587.37 1660.33 1585.46 1667.82 1581.8L1830.9 1501.9C1832.77 1500.98 1834.41 1499.68 1835.72 1498.09C1837.03 1496.49 1837.98 1494.64 1838.52 1492.66C1839.05 1490.67 1839.14 1488.6 1838.8 1486.57C1838.45 1484.55 1837.67 1482.62 1836.51 1480.91ZM909.678 1680.58C906.986 1684.2 903.598 1687.26 899.708 1689.58C895.819 1691.91 891.503 1693.45 887.009 1694.13C882.514 1694.81 877.928 1694.61 873.513 1693.53C869.098 1692.46 864.939 1690.54 861.276 1687.88L858.293 1685.73C852.415 1681.47 848.053 1675.47 845.83 1668.61C843.607 1661.75 843.637 1654.37 845.916 1647.53C848.194 1640.69 852.605 1634.73 858.517 1630.51C864.43 1626.29 871.542 1624.02 878.838 1624.03C886.198 1624.02 893.366 1626.35 899.282 1630.67L902.256 1632.81C909.658 1638.17 914.598 1646.22 915.99 1655.18C917.382 1664.14 915.112 1673.28 909.678 1680.59V1680.58ZM993.369 1739.09C990.535 1742.9 986.97 1746.12 982.877 1748.57C978.783 1751.02 974.241 1752.64 969.51 1753.36C964.78 1754.07 959.952 1753.86 955.305 1752.73C950.657 1751.61 946.279 1749.59 942.422 1746.79C938.565 1743.99 935.304 1740.47 932.824 1736.43C930.345 1732.39 928.696 1727.91 927.972 1723.24C927.248 1718.57 927.463 1713.8 928.605 1709.21C929.746 1704.62 931.792 1700.3 934.625 1696.49L964.825 1655.88C970.559 1648.21 979.141 1643.1 988.689 1641.67C998.236 1640.24 1007.97 1642.6 1015.75 1648.25C1023.53 1653.89 1028.73 1662.35 1030.2 1671.78C1031.67 1681.2 1029.29 1690.81 1023.59 1698.51L993.369 1739.09ZM1088.14 1786.07L1078.44 1799.08C1075.8 1802.61 1072.53 1805.65 1068.8 1808.03C1061.63 1812.59 1053.08 1814.53 1044.62 1813.51C1036.16 1812.49 1028.33 1808.58 1022.49 1802.44C1016.66 1796.31 1013.18 1788.36 1012.67 1779.96C1012.16 1771.56 1014.65 1763.25 1019.71 1756.48L1065.32 1695.17C1071.04 1687.47 1079.63 1682.34 1089.18 1680.89C1098.74 1679.45 1108.49 1681.81 1116.28 1687.46C1124.07 1693.11 1129.27 1701.59 1130.73 1711.02C1132.2 1720.46 1129.8 1730.08 1124.08 1737.77L1088.14 1786.07ZM1166.84 1857.03L1163.53 1861.46C1157.81 1869.15 1149.23 1874.28 1139.67 1875.73C1130.12 1877.17 1120.38 1874.81 1112.59 1869.16C1104.8 1863.51 1099.6 1855.04 1098.14 1845.61C1096.67 1836.17 1099.07 1826.55 1104.79 1818.86L1108.08 1814.42C1113.81 1806.72 1122.39 1801.59 1131.95 1800.15C1141.5 1798.7 1151.25 1801.06 1159.04 1806.71C1166.84 1812.37 1172.03 1820.84 1173.5 1830.27C1174.96 1839.71 1172.57 1849.33 1166.84 1857.03ZM1003.95 1352.77C999.2 1357.08 995.408 1362.31 992.814 1368.14C990.22 1373.97 988.879 1380.27 988.875 1386.63V1471.68C988.878 1481.31 992.753 1490.55 999.649 1497.36C1006.55 1504.17 1015.9 1508 1025.66 1508.01C1038.06 1508.01 1050.34 1505.61 1061.81 1500.92C1073.27 1496.24 1083.68 1489.37 1092.45 1480.71C1101.23 1472.05 1108.18 1461.77 1112.93 1450.46C1117.67 1439.14 1120.11 1427.01 1120.11 1414.77V1403.57H1229.37C1234.96 1430.84 1247.96 1451.1 1264.68 1464.86C1272.84 1471.54 1282.04 1476.87 1291.94 1480.63C1303.95 1485.22 1316.72 1487.57 1329.59 1487.54H1336.16L1412.64 1542.81L1450.45 1570.14L1566.87 1654.26C1574.66 1659.91 1579.86 1668.38 1581.32 1677.82C1582.78 1687.25 1580.39 1696.87 1574.67 1704.57C1568.94 1712.26 1560.36 1717.39 1550.8 1718.84C1541.25 1720.28 1531.5 1717.92 1523.71 1712.27L1357.18 1591.52C1353.74 1589.04 1349.44 1588.01 1345.23 1588.66C1341.03 1589.3 1337.25 1591.57 1334.73 1594.95C1332.21 1598.34 1331.15 1602.58 1331.78 1606.73C1332.42 1610.89 1334.69 1614.63 1338.11 1617.13L1472.02 1714.25C1478.21 1718.74 1482.81 1725.05 1485.15 1732.27C1487.5 1739.5 1487.47 1747.27 1485.07 1754.48C1482.67 1761.68 1478.03 1767.96 1471.8 1772.41C1465.58 1776.85 1458.09 1779.24 1450.4 1779.24C1442.65 1779.26 1435.09 1776.81 1428.86 1772.25L1295.83 1675.79C1294 1674.46 1291.94 1673.51 1289.74 1672.98C1287.55 1672.44 1285.27 1672.34 1283.04 1672.68C1280.8 1673.02 1278.66 1673.79 1276.73 1674.94C1274.79 1676.1 1273.11 1677.62 1271.77 1679.41C1270.43 1681.21 1269.47 1683.25 1268.93 1685.42C1268.39 1687.58 1268.29 1689.83 1268.63 1692.04C1268.97 1694.24 1269.75 1696.36 1270.92 1698.27C1272.09 1700.18 1273.62 1701.84 1275.45 1703.16L1360.22 1764.6C1366.42 1769.09 1371.01 1775.4 1373.36 1782.62C1375.7 1789.85 1375.67 1797.62 1373.28 1804.83C1370.88 1812.04 1366.24 1818.31 1360.01 1822.76C1353.78 1827.2 1346.29 1829.59 1338.61 1829.59C1330.85 1829.61 1323.3 1827.17 1317.07 1822.61L1232.25 1761.08C1230.44 1759.77 1228.4 1758.83 1226.22 1758.3C1224.04 1757.77 1221.78 1757.68 1219.57 1758.01C1217.35 1758.34 1215.23 1759.11 1213.31 1760.25C1211.4 1761.4 1209.73 1762.91 1208.4 1764.69C1207.08 1766.47 1206.12 1768.49 1205.58 1770.64C1205.05 1772.79 1204.95 1775.02 1205.29 1777.21C1205.63 1779.39 1206.4 1781.49 1207.56 1783.39C1208.72 1785.28 1210.25 1786.92 1212.05 1788.23L1243.6 1811.16C1247.58 1814.04 1250.92 1817.7 1253.42 1821.9C1255.93 1826.1 1257.54 1830.76 1258.17 1835.59C1258.8 1840.43 1258.43 1845.34 1257.08 1850.03C1255.73 1854.71 1253.43 1859.08 1250.32 1862.87C1246.92 1866.98 1242.63 1870.28 1237.76 1872.54C1232.89 1874.79 1227.57 1875.94 1222.19 1875.9C1214.07 1875.9 1206.15 1873.33 1199.61 1868.57L1195.62 1865.68C1200.83 1855.81 1203.38 1844.78 1203.02 1833.65C1202.65 1822.52 1199.39 1811.67 1193.55 1802.15C1187.7 1792.63 1179.47 1784.76 1169.65 1779.29C1159.82 1773.83 1148.74 1770.95 1137.46 1770.95C1136.81 1770.95 1136.19 1770.95 1135.56 1771L1147.57 1754.83C1156.28 1743.11 1160.74 1728.83 1160.24 1714.3C1159.74 1699.77 1154.32 1685.83 1144.83 1674.71C1141.5 1670.79 1137.71 1667.28 1133.53 1664.27C1122.66 1656.37 1109.58 1651.99 1096.08 1651.71C1082.59 1651.44 1069.34 1655.29 1058.14 1662.73C1055.35 1650.67 1049.11 1639.65 1040.17 1630.98C1031.22 1622.3 1019.95 1616.34 1007.68 1613.8C995.417 1611.26 982.668 1612.24 970.948 1616.63C959.228 1621.02 949.027 1628.63 941.553 1638.56C937.259 1626.98 929.584 1616.92 919.498 1609.65L916.551 1607.5C905.636 1599.52 892.408 1595.23 878.829 1595.27C864.637 1595.3 850.857 1599.98 839.66 1608.59L786.902 1548.8L833.465 1482.01L861.157 1442.26L971.698 1283.72L1066.03 1296.56L1003.95 1352.77Z" fill="white"/>
<path d="M724.403 1518.09C728.131 1520.59 732.71 1521.53 737.138 1520.71C741.567 1519.89 745.486 1517.37 748.04 1513.7L749.028 1512.27C750.29 1510.45 751.176 1508.4 751.636 1506.25C752.095 1504.09 752.12 1501.86 751.709 1499.7C751.297 1497.53 750.457 1495.46 749.237 1493.62C748.017 1491.77 746.44 1490.18 744.596 1488.93C742.753 1487.69 740.679 1486.81 738.494 1486.36C736.308 1485.91 734.053 1485.88 731.857 1486.29C729.662 1486.69 727.569 1487.52 725.698 1488.73C723.828 1489.93 722.216 1491.49 720.954 1493.31L719.957 1494.74C717.418 1498.42 716.46 1502.95 717.293 1507.32C718.127 1511.7 720.683 1515.57 724.403 1518.09Z" fill="white"/>
<path d="M755.406 1475.09C759.132 1477.59 763.709 1478.53 768.136 1477.71C772.563 1476.89 776.48 1474.37 779.032 1470.71L780.029 1469.27C782.577 1465.6 783.54 1461.07 782.708 1456.69C781.876 1452.32 779.317 1448.45 775.593 1445.93C771.869 1443.42 767.286 1442.47 762.852 1443.29C758.418 1444.11 754.495 1446.64 751.948 1450.31L750.951 1451.74C748.415 1455.42 747.46 1459.95 748.295 1464.32C749.129 1468.7 751.686 1472.57 755.406 1475.09Z" fill="white"/>
<path d="M1625.97 1512.26L1626.97 1513.69C1629.51 1517.37 1633.43 1519.89 1637.86 1520.71C1642.3 1521.53 1646.88 1520.58 1650.6 1518.07C1654.32 1515.56 1656.88 1511.69 1657.71 1507.31C1658.54 1502.94 1657.58 1498.42 1655.03 1494.74L1654.03 1493.31C1651.49 1489.63 1647.57 1487.11 1643.14 1486.29C1638.71 1485.47 1634.12 1486.42 1630.4 1488.93C1626.68 1491.44 1624.12 1495.31 1623.29 1499.69C1622.46 1504.06 1623.42 1508.58 1625.97 1512.26Z" fill="white"/>
<path d="M1595.96 1470.69C1597.22 1472.51 1598.83 1474.07 1600.7 1475.27C1602.57 1476.48 1604.66 1477.31 1606.86 1477.71C1609.05 1478.12 1611.31 1478.09 1613.49 1477.64C1615.68 1477.19 1617.75 1476.31 1619.6 1475.07C1621.44 1473.82 1623.02 1472.23 1624.24 1470.39C1625.46 1468.54 1626.3 1466.48 1626.71 1464.31C1627.12 1462.14 1627.1 1459.92 1626.64 1457.76C1626.18 1455.6 1625.29 1453.56 1624.03 1451.74L1623.04 1450.31C1621.78 1448.49 1620.17 1446.93 1618.3 1445.73C1616.43 1444.52 1614.34 1443.69 1612.14 1443.29C1609.95 1442.88 1607.69 1442.91 1605.51 1443.36C1603.32 1443.81 1601.25 1444.69 1599.4 1445.93C1597.56 1447.18 1595.98 1448.77 1594.76 1450.61C1593.54 1452.46 1592.7 1454.52 1592.29 1456.69C1591.88 1458.86 1591.9 1461.08 1592.36 1463.24C1592.82 1465.4 1593.71 1467.45 1594.97 1469.26L1595.96 1470.69Z" fill="white"/>
<path d="M2208 1186C2208 1748.23 1752.23 2204 1190 2204C627.774 2204 172 1748.23 172 1186C172 623.774 627.774 168 1190 168C1752.23 168 2208 623.774 2208 1186Z" stroke="#F7A73C" stroke-width="14"/>
</svg>
