<svg width="2372" height="2372" viewBox="0 0 2372 2372" fill="none" xmlns="http://www.w3.org/2000/svg">
<path d="M1186 2372C1841.01 2372 2372 1841.01 2372 1186C2372 530.99 1841.01 0 1186 0C530.99 0 0 530.99 0 1186C0 1841.01 530.99 2372 1186 2372Z" fill="white"/>
<path d="M1186 2264C1781.36 2264 2264 1781.36 2264 1186C2264 590.637 1781.36 108 1186 108C590.637 108 108 590.637 108 1186C108 1781.36 590.637 2264 1186 2264Z" fill="#30486E"/>
<path d="M1206.57 1614.31C1211.19 1641.1 1220.76 1670.74 1251.94 1672.83C1289.62 1675.31 1313.93 1650.5 1306.74 1611.34C1303.56 1593.99 1289.84 1581.38 1282.2 1566.17C1272.29 1546.39 1245.83 1519.05 1221.23 1522.26C1180.57 1527.57 1202.44 1590.4 1206.57 1614.31Z" fill="#543309"/>
<path d="M1427 1634.7L1288.02 1487C1288.02 1487 1213.24 1490.54 1209.11 1553.38C1204.98 1616.2 1318.44 1663 1318.44 1663L1427 1634.7Z" fill="#033D91"/>
<path d="M1259 798H1134V855H1259V798Z" fill="#0258A0"/>
<path d="M1236.93 823.561L1237.05 742H1156.15L1155.9 823.593C1149.57 823.936 1143.16 824.248 1137 824.764C1142.04 853.294 1166.74 875 1196.44 875C1226.18 875 1250.97 853.294 1256 824.67C1249.78 824.202 1243.33 823.889 1236.93 823.561Z" fill="#F49D56"/>
<path d="M968.981 1302.53C901.357 1287.47 842.88 1245.04 774.773 1202.58C735.415 1178.07 658.519 1123.93 578.605 1095.91C462.087 1055.06 396.967 1091.94 362.867 1130.1C367.721 1182.42 367.721 1182.42 395.131 1236.68C546.668 1022.73 780.934 1318.63 955.182 1389.07C960.238 1360.25 965.092 1331.42 968.981 1302.53Z" fill="white"/>
<path d="M2063.9 1287.29C1977.23 1321.71 1867.68 1306.13 1763.33 1244.57C1657.52 1182.08 1578.92 1118.33 1432.18 1148.79C1432.41 1150.23 1432.65 1151.7 1432.77 1153.2C1435.43 1183.98 1436.13 1214.72 1435.8 1245.47C1553.51 1215.24 1602.1 1259.88 1715 1326.46C1844.86 1403.09 1984.83 1420.99 2098.99 1375.66L2063.9 1287.29Z" fill="white"/>
<path d="M1062.8 1906.79L1052.1 1873.28L1049.89 1843.03H1003.71L1001.53 1873.28L990.805 1906.79H1062.8Z" fill="#543309"/>
<path d="M1078.13 1940.95H975.953V1955.75H1078.13V1940.95Z" fill="#543309"/>
<path d="M975.953 1940.95H1078.13C1078.13 1878.64 975.953 1878.4 975.953 1940.95Z" fill="#313C3B"/>
<path d="M707.006 706.97L728.863 757.918C732.581 766.615 719.436 772.464 715.625 763.596L693.768 712.649C690.003 703.875 703.257 698.197 707.006 706.97Z" fill="#F9B078"/>
<path d="M674.285 721.37L700.373 770.295C704.838 778.618 692.206 785.572 687.663 777.078L661.575 728.137C657.095 719.752 669.804 712.985 674.285 721.37Z" fill="#F9B078"/>
<path d="M666.029 740.469L688.01 780.901C691.744 787.777 681.321 793.626 677.509 786.61L655.543 746.179C651.763 739.225 662.248 733.531 666.029 740.469Z" fill="#F9B078"/>
<path d="M739.022 769.587C735.241 768.234 725.705 750.468 725.705 750.468C710.04 757.904 686.907 770.038 676.484 784.008C676.484 784.008 696.49 834.863 709.106 831.207C713.042 838.518 721.956 855.351 724.585 860.313L765.546 834.645C761.05 823.973 756.818 814.499 753.629 806.005C768.968 788.597 756.881 761.638 756.554 743.079C756.398 733.948 756.601 726.792 756.601 726.792C756.601 726.792 746.364 722.405 743.58 734.679C740.748 746.968 746.427 772.216 739.022 769.587Z" fill="#F9B078"/>
<path d="M688.649 710.179L712.497 760.239C716.542 768.78 703.63 775.143 699.476 766.447L675.643 716.37C671.536 707.767 684.542 701.592 688.649 710.179Z" fill="#F9B078"/>
<path d="M1010.31 858.539C908.304 1033.45 818.826 896.924 760.224 811L706 840.918C762.785 1079.9 914.576 1144.3 1053 1006.26L1010.31 858.539Z" fill="#FAAF20"/>
<path d="M1686.68 706.97L1664.82 757.918C1661.1 766.615 1674.26 772.464 1678.06 763.596L1699.91 712.649C1703.68 703.875 1690.44 698.197 1686.68 706.97Z" fill="#F9B078"/>
<path d="M1719.5 721.37L1693.41 770.295C1688.96 778.618 1701.59 785.572 1706.12 777.078L1732.22 728.137C1736.71 719.752 1724 712.985 1719.5 721.37Z" fill="#F9B078"/>
<path d="M1727.81 740.469L1705.84 780.901C1702.09 787.777 1712.51 793.626 1716.34 786.61L1738.29 746.179C1742.06 739.225 1731.57 733.531 1727.81 740.469Z" fill="#F9B078"/>
<path d="M1654.83 769.587C1658.61 768.234 1668.13 750.468 1668.13 750.468C1683.8 757.904 1706.94 770.038 1717.37 784.008C1717.37 784.008 1697.34 834.863 1684.73 831.207C1680.79 838.518 1671.88 855.351 1669.25 860.313L1628.3 834.645C1632.8 823.973 1637.02 814.499 1640.22 806.005C1624.88 788.597 1636.97 761.638 1637.3 743.079C1637.45 733.948 1637.27 726.792 1637.27 726.792C1637.27 726.792 1647.5 722.405 1650.27 734.679C1653.1 746.968 1647.42 772.216 1654.83 769.587Z" fill="#F9B078"/>
<path d="M1705.08 710.179L1681.23 760.239C1677.17 768.78 1690.1 775.143 1694.25 766.447L1718.09 716.37C1722.18 707.767 1709.17 701.592 1705.08 710.179Z" fill="#F9B078"/>
<path d="M1382.81 858.539C1485.09 1033.45 1574.84 896.924 1633.61 811L1688 840.918C1631.07 1079.9 1478.83 1144.3 1340 1006.26L1382.81 858.539Z" fill="#FAAF20"/>
<path d="M1323.65 840.79C1303.29 838.595 1285.12 830.919 1277.3 826C1277.3 870.68 1116.69 870.68 1116.69 826C1108.87 830.919 1090.71 838.61 1070.34 840.79C929.74 833.784 1043.36 1006.64 1043.36 1006.64L1040.96 1092.23L1050.98 1351H1343.03L1353.05 1092.23L1350.65 1006.64C1350.65 1006.64 1464.25 833.784 1323.65 840.79Z" fill="#FAAF20"/>
<path d="M1434.12 1612.2C1411.07 1533.94 1351.99 1430.09 1351.99 1430.09L1343.06 1351H1051.46C1051.46 1351 931.767 1825.22 932 1968H1053.82L1197.27 1447.71C1214.53 1489.15 1297.39 1641.17 1319.02 1663.41C1376.3 1722.37 1456.62 1688.53 1434.12 1612.2Z" fill="#0258A0"/>
<path d="M1212.99 900H1181.45L1171 1040.29L1197.23 1063L1229 1040.29L1212.99 900Z" fill="#0258A0"/>
<path d="M1218.19 855H1176.83L1165 871.883L1181.76 900H1213.22L1230 871.883L1218.19 855Z" fill="#033D91"/>
<path d="M1106 826.302L1134.53 798L1197 854.869L1151.37 903L1106 826.302Z" fill="#D2F7FF"/>
<path d="M1287 826.443L1258.96 798L1197 854.637L1241.88 903L1287 826.443Z" fill="#D2F7FF"/>
<path d="M1340 608.536C1340 608.536 1331.51 681.5 1319.05 724.459L1291.26 744H1197V507L1308.63 547.858L1340 608.536Z" fill="#313C3B"/>
<path d="M1053 608.536C1053 608.536 1061.54 681.5 1074.08 724.459L1102.06 744H1197V507L1084.58 547.858L1053 608.536Z" fill="#313C3B"/>
<path d="M1196.5 519L1062 565.388L1090.56 747.471C1090.56 747.471 1134.61 809 1196.5 809C1258.39 809 1302.45 747.471 1302.45 747.471L1331 565.388L1196.5 519Z" fill="#FCB87A"/>
<path d="M1080.45 636.359C1056 615.583 1038.07 641.038 1066.66 684.65C1066.66 684.65 1064.49 699 1085 699L1080.45 636.359Z" fill="#FCB87A"/>
<path d="M1314.38 640.361C1338.13 619.585 1355.51 645.025 1327.78 688.65C1327.78 688.65 1329.89 703 1310 703L1314.38 640.361Z" fill="#FCB87A"/>
<path d="M1061.8 610C1061.8 610 1271.76 609.624 1316 554.606L1155.64 538L1061.8 565.07C1061.8 565.07 1057.75 595.274 1061.8 610Z" fill="#313C3B"/>
<path d="M1215.17 699C1205.93 708.346 1187.04 708.346 1177.81 699H1171L1179.78 707.018C1184.5 720.167 1208.43 720.487 1213.22 707.018L1222 699H1215.17Z" fill="#F49D56"/>
<path d="M1228 750C1222.41 760.086 1210.65 767 1197 767C1183.35 767 1171.6 760.086 1166 750H1228Z" fill="#C41902"/>
<path d="M1231 740C1230.54 743.541 1229.42 746.922 1227.81 750H1166.17C1164.56 746.922 1163.45 743.541 1163 740H1231Z" fill="white"/>
<path d="M1248 556C1248 556 1277.19 600.361 1327.82 616L1331 556H1248Z" fill="#313C3B"/>
<path d="M1148 667.516C1148 676.069 1141.07 683 1132.48 683C1123.92 683 1117 676.069 1117 667.516C1117 658.915 1123.92 652 1132.48 652C1141.05 652 1148 658.915 1148 667.516Z" fill="#313C3B"/>
<path d="M1143 665.976C1143 669.309 1140.54 672 1137.51 672C1134.48 672 1132 669.309 1132 665.976C1132 662.692 1134.48 660 1137.51 660C1140.55 660 1143 662.692 1143 665.976Z" fill="white"/>
<path d="M1275 667.516C1275 676.069 1268.03 683 1259.49 683C1250.95 683 1244 676.069 1244 667.516C1244 658.915 1250.93 652 1259.49 652C1268.05 652 1275 658.915 1275 667.516Z" fill="#313C3B"/>
<path d="M1270 665.976C1270 669.309 1267.32 672 1263.99 672C1260.68 672 1258 669.309 1258 665.976C1258 662.692 1260.68 660 1263.99 660C1267.32 660 1270 662.692 1270 665.976Z" fill="white"/>
<path d="M1198 438.031C1197.78 438.031 1197.59 438 1197.38 438C1108.64 438 1022.39 490.459 1053.47 609L1198 597.789V438.031Z" fill="#313C3B"/>
<path d="M1196 438.031C1196.2 438.031 1196.42 438 1196.62 438C1285.37 438 1371.6 490.459 1340.53 609L1196 597.789V438.031Z" fill="#313C3B"/>
<path d="M1123.65 596.184L1093 621.709C1093 621.709 1181.17 650.032 1222.27 595.03L1215.76 624.792C1215.76 624.792 1270.82 623.985 1287 573.693C1287 573.693 1200.8 566.881 1123.65 596.184Z" fill="#313C3B"/>
<path d="M2208 1186C2208 1748.23 1752.23 2204 1190 2204C627.774 2204 172 1748.23 172 1186C172 623.774 627.774 168 1190 168C1752.23 168 2208 623.774 2208 1186Z" stroke="#F7A73C" stroke-width="14"/>
</svg>
