<svg width="1000" height="1021" viewBox="0 0 1000 1021" fill="none" xmlns="http://www.w3.org/2000/svg">
<rect width="1000" height="1021" fill="white"/>
<path opacity="0.18" d="M293.472 905.512C201.007 903.029 114.186 859.226 57.3469 786.251C2.91999 716.374 -31.6907 620.78 44.2813 515.976C197.964 303.971 326.033 129.654 552.288 233.302C778.543 336.95 705.971 327.527 868.192 299.26C1030.41 270.993 1073.1 897.588 821.234 907.01C651.695 913.352 424.13 909.021 293.472 905.512Z" fill="#6D79FF"/>
<path opacity="0.18" d="M786.364 240.667C786.364 264.085 781.969 278.357 760.75 278.357C739.53 278.357 700.984 254.662 700.984 231.245C700.984 207.829 730.993 202.978 752.212 202.978C773.431 202.978 786.364 217.249 786.364 240.667Z" fill="#6D79FF"/>
<path opacity="0.6" d="M704.545 926.781H310.602C300.634 926.781 292.555 918.702 292.555 908.734C292.555 898.767 300.634 890.688 310.602 890.688H704.545C714.513 890.688 722.592 898.767 722.592 908.734C722.592 918.701 714.513 926.781 704.545 926.781Z" fill="#8AA8FF"/>
<path d="M677.738 605.653C677.738 605.653 627.396 592.774 632.261 556.806C637.125 520.838 672.469 524.109 676.066 504.044C679.663 483.978 671.359 460.231 691.562 445.399C711.765 430.566 736.515 433.672 741.972 427.933C747.429 422.193 754.865 405.196 763.192 399.628C771.52 394.06 782.347 372.485 805.215 366.268C828.083 360.051 840.278 367.317 855.646 350.844C855.646 350.844 865.078 371.664 865.204 381.015C865.329 390.365 852.001 408.408 834.977 413.304C817.952 418.199 793.289 444.389 794.238 461.262C795.187 478.135 800.365 485.225 806.012 494.959C811.658 504.692 818.963 519.926 796.484 533.458C774.006 546.99 772.106 552.61 775.573 570.228C779.041 587.847 774.71 604.729 730.898 608.489C684.403 612.48 677.738 605.653 677.738 605.653Z" fill="url(#paint0_linear_786_196)"/>
<path d="M662.495 692.917C661.688 692.596 661.152 691.773 661.235 690.865C665.563 643.084 677.197 597.291 695.815 554.756C710.71 520.727 730.082 488.698 753.393 459.559C793.103 409.922 831.063 385.525 831.443 385.284C832.382 384.688 833.626 384.966 834.221 385.904C834.818 386.842 834.54 388.086 833.602 388.683C833.228 388.921 795.732 413.041 756.433 462.205C720.191 507.545 674.953 584.082 665.246 691.227C665.145 692.335 664.166 693.151 663.059 693.051C662.861 693.034 662.671 692.987 662.495 692.917Z" fill="#513983"/>
<path d="M699.354 551.979C698.942 551.815 698.581 551.514 698.346 551.098C697.8 550.13 698.141 548.902 699.11 548.355L793.222 495.186C794.191 494.638 795.42 494.981 795.965 495.948C796.512 496.916 796.171 498.145 795.202 498.691L701.089 551.861C700.537 552.174 699.9 552.196 699.354 551.979Z" fill="#513983"/>
<path d="M703.77 542.563C703.423 542.425 703.109 542.188 702.877 541.86C702.191 540.897 701.813 540.365 708.237 500.459C711.349 481.131 714.617 461.712 714.65 461.519C714.834 460.422 715.872 459.683 716.97 459.868C718.062 460.055 718.806 461.09 718.621 462.187C713.685 491.501 706.435 536.146 706.48 540.242C706.657 541.012 706.368 541.846 705.684 542.333C705.106 542.745 704.384 542.807 703.77 542.563Z" fill="#513983"/>
<path d="M795.381 418.255C795.268 418.21 795.158 418.155 795.051 418.087C794.11 417.495 793.827 416.251 794.419 415.31L814.211 383.86C814.803 382.919 816.049 382.637 816.988 383.228C817.929 383.821 818.212 385.064 817.62 386.005L797.828 417.455C797.302 418.289 796.265 418.606 795.381 418.255Z" fill="#513983"/>
<path d="M438.978 843.684C438.978 843.684 428.79 820.273 426.92 797.352C425.049 774.432 418.683 714.794 381.387 687.645C344.091 660.496 206.722 603.061 56.1406 677.384C56.1406 677.384 111.671 704.029 125.324 723.666C141.815 747.383 193.27 836.467 227.161 854.248C261.053 872.029 322.19 869.946 368.925 858.02C415.659 846.093 438.978 843.684 438.978 843.684Z" fill="url(#paint1_linear_786_196)"/>
<path d="M438.978 845.715C438.36 845.715 437.75 845.434 437.35 844.901C437.092 844.556 410.878 810.012 352.545 773.31C298.702 739.433 205.698 696.74 68.4002 685.729C67.283 685.639 66.448 684.66 66.5379 683.541C66.6262 682.422 67.6235 681.604 68.7258 681.679C206.97 692.765 300.661 735.827 354.913 769.999C413.801 807.092 440.344 842.118 440.605 842.467C441.277 843.367 441.093 844.639 440.195 845.311C439.829 845.583 439.402 845.715 438.978 845.715Z" fill="#513983"/>
<path d="M381.458 792.594C380.578 792.594 379.769 792.018 379.51 791.132L349.059 686.975C348.744 685.898 349.361 684.77 350.438 684.455C351.514 684.141 352.644 684.758 352.958 685.835L383.41 789.992C383.725 791.068 383.107 792.197 382.03 792.512C381.839 792.568 381.647 792.594 381.458 792.594Z" fill="#513983"/>
<path d="M367.328 798.94C348.029 798.94 314.139 795.709 260.84 780.688C259.76 780.384 259.131 779.263 259.436 778.182C259.739 777.103 260.862 776.47 261.943 776.779C352.109 802.187 386.676 793.287 387.016 793.196C388.093 792.895 389.216 793.533 389.514 794.613C389.812 795.692 389.184 796.809 388.105 797.11C387.513 797.275 381.179 798.94 367.328 798.94Z" fill="#513983"/>
<path d="M300.302 744.465C299.693 744.465 299.092 744.193 298.691 743.675L236.617 663.13C235.934 662.242 236.098 660.965 236.986 660.28C237.878 659.595 239.15 659.763 239.836 660.649L301.91 741.193C302.594 742.081 302.43 743.358 301.541 744.043C301.171 744.327 300.734 744.465 300.302 744.465Z" fill="#513983"/>
<path d="M167.005 733.31C166.029 733.31 165.168 732.606 165.004 731.611C164.821 730.504 165.569 729.457 166.677 729.275L241.867 716.815C242.973 716.632 244.02 717.379 244.203 718.487C244.387 719.594 243.639 720.64 242.532 720.823L167.34 733.283C167.228 733.301 167.117 733.31 167.005 733.31Z" fill="#513983"/>
<path d="M173.376 701.4C173.04 701.4 172.699 701.317 172.385 701.143L115.572 669.368C114.593 668.821 114.242 667.583 114.79 666.603C115.34 665.624 116.578 665.277 117.555 665.821L174.369 697.595C175.347 698.143 175.698 699.381 175.151 700.361C174.778 701.026 174.087 701.4 173.376 701.4Z" fill="#513983"/>
<path d="M359.047 691.222C359.047 691.222 361.778 672.826 369.46 657.939C377.141 643.052 396.204 603.74 383.623 572.58C371.041 541.42 308.292 452.955 186.57 440.825C186.57 440.825 210.616 478.704 211.481 496.105C212.527 517.122 209.976 592.017 224.066 616.075C238.156 640.132 276.743 662.42 310.224 673.069C343.706 683.719 359.047 691.222 359.047 691.222Z" fill="url(#paint2_linear_786_196)"/>
<path d="M358.783 693.236C357.856 693.115 357.106 692.364 357.023 691.394C356.997 691.082 354.114 659.681 332.243 614.585C312.053 572.957 271.093 510.812 190.603 451.152C189.702 450.485 189.513 449.213 190.181 448.311C190.851 447.409 192.119 447.221 193.023 447.889C274.276 508.115 315.624 570.935 336.004 613.029C358.14 658.753 360.963 689.756 361.073 691.052C361.166 692.17 360.338 693.152 359.219 693.246C359.072 693.259 358.925 693.255 358.783 693.236Z" fill="#513983"/>
<path d="M343.724 638.228C343.628 638.215 343.531 638.196 343.437 638.168C342.356 637.866 341.727 636.744 342.029 635.664L363.372 559.551C363.675 558.47 364.798 557.838 365.876 558.143C366.957 558.446 367.586 559.568 367.283 560.647L345.94 636.76C345.665 637.747 344.709 638.356 343.724 638.228Z" fill="#513983"/>
<path d="M345.724 643.418C345.621 643.404 345.517 643.383 345.413 643.353C344.38 643.049 319.579 635.336 272.842 583.972C272.086 583.141 272.147 581.857 272.977 581.103C273.805 580.346 275.093 580.404 275.847 581.238C321.613 631.534 346.32 639.382 346.565 639.455C347.637 639.778 348.249 640.906 347.93 641.98C347.641 642.95 346.696 643.545 345.724 643.418Z" fill="#513983"/>
<path d="M312.12 577.189C311.204 577.069 310.458 576.333 310.363 575.375L303.057 501.661C302.947 500.544 303.762 499.55 304.877 499.439C306.001 499.331 306.99 500.144 307.1 501.26L314.406 574.974C314.516 576.091 313.701 577.085 312.585 577.197C312.426 577.212 312.27 577.208 312.12 577.189Z" fill="#513983"/>
<path d="M285.317 540.189C285.144 540.167 284.97 540.121 284.8 540.051L233.526 518.758C232.49 518.327 231.999 517.138 232.429 516.102C232.86 515.066 234.045 514.574 235.085 515.005L286.359 536.299C287.395 536.729 287.887 537.918 287.456 538.954C287.095 539.82 286.205 540.305 285.317 540.189Z" fill="#513983"/>
<path d="M250.286 501.632C249.667 501.551 249.093 501.187 248.769 500.597L225.908 459.053C225.368 458.07 225.725 456.835 226.709 456.293C227.69 455.753 228.927 456.11 229.468 457.094L252.328 498.638C252.869 499.621 252.511 500.856 251.528 501.396C251.134 501.614 250.7 501.687 250.286 501.632Z" fill="#513983"/>
<path opacity="0.18" d="M190.983 261.375C183.763 254.155 182.956 243.258 189.179 237.035C195.402 230.812 206.299 231.619 213.519 238.839C220.738 246.058 221.546 256.956 215.323 263.179C209.099 269.402 198.201 268.594 190.983 261.375Z" fill="#6D79FF"/>
<path opacity="0.18" d="M267.42 192.192C268.522 187.928 272.395 185.241 276.071 186.191C279.747 187.141 281.833 191.368 280.731 195.632C279.628 199.896 275.755 202.583 272.079 201.633C268.404 200.682 266.317 196.455 267.42 192.192Z" fill="#6D79FF"/>
<path d="M652.55 888.481C652.55 888.481 650.665 856.435 639.732 829.668C628.799 802.901 602.031 732.4 628.422 680.75C654.812 629.1 776.209 486.591 987.333 484.329C987.333 484.329 940.207 545.782 936.06 575.565C931.051 611.538 923.995 740.695 896.097 779.903C868.199 819.112 798.452 851.535 739.262 864.73C680.071 877.925 652.55 888.481 652.55 888.481Z" fill="url(#paint3_linear_786_196)"/>
<path d="M652.55 890.513C652.433 890.513 652.315 890.503 652.198 890.482C651.093 890.289 650.353 889.237 650.546 888.132C650.64 887.593 660.475 833.316 705.377 758.323C731.718 714.328 764.812 671.865 803.74 632.117C852.376 582.455 910.308 536.909 975.929 496.746C976.887 496.162 978.137 496.46 978.722 497.417C979.308 498.375 979.007 499.626 978.051 500.212C830.221 590.69 750.136 691.538 708.985 760.206C664.401 834.6 654.641 888.297 654.547 888.83C654.376 889.817 653.518 890.513 652.55 890.513Z" fill="#513983"/>
<path d="M687.23 798.204C687.104 798.228 686.978 798.239 686.854 798.239C685.896 798.239 685.043 797.558 684.86 796.58L659.793 662.462C659.587 661.359 660.314 660.298 661.417 660.092C662.514 659.885 663.582 660.612 663.787 661.716L688.854 795.835C689.06 796.938 688.333 797.999 687.23 798.204Z" fill="#513983"/>
<path d="M683.007 806.818C682.874 806.845 682.74 806.857 682.607 806.857C681.659 806.857 680.81 806.189 680.618 805.224C680.398 804.124 681.11 803.055 682.209 802.834C682.642 802.746 726.556 793.094 813.387 713.187C814.212 712.427 815.498 712.482 816.257 713.306C817.018 714.131 816.963 715.416 816.138 716.175C728.241 797.066 684.813 806.457 683.007 806.818Z" fill="#513983"/>
<path d="M750.503 698.123C750.378 698.123 750.25 698.111 750.123 698.088C749.02 697.879 748.296 696.815 748.505 695.714L772.325 570.097C772.534 568.994 773.592 568.275 774.699 568.48C775.802 568.689 776.526 569.753 776.317 570.854L752.497 696.471C752.311 697.445 751.46 698.123 750.503 698.123Z" fill="#513983"/>
<path d="M802.227 638.607C801.364 638.607 800.562 638.052 800.289 637.185C799.953 636.115 800.547 634.975 801.617 634.638L893.023 605.862C894.099 605.524 895.235 606.121 895.571 607.19C895.907 608.259 895.313 609.4 894.242 609.737L802.836 638.513C802.635 638.577 802.428 638.607 802.227 638.607Z" fill="#513983"/>
<path d="M868.351 577.669C867.961 577.669 867.566 577.557 867.219 577.323C866.288 576.698 866.04 575.434 866.666 574.503L912.315 506.569C912.942 505.638 914.205 505.389 915.135 506.016C916.066 506.641 916.314 507.905 915.688 508.836L870.038 576.77C869.646 577.354 869.004 577.669 868.351 577.669Z" fill="#513983"/>
<path d="M696.98 260.295C696.98 242.44 684.282 227.965 668.621 227.965H380.538C364.876 227.965 352.18 242.44 352.18 260.295V600.598V841.422V876.742C352.18 894.597 364.876 909.071 380.538 909.072L668.62 909.071C684.283 909.071 696.979 894.597 696.979 876.742V846.08V303.821L696.98 260.295Z" fill="#87A7F9"/>
<path d="M646.425 909.071L358.344 909.072C342.681 909.072 329.984 894.598 329.984 876.742V260.295C329.984 242.44 342.681 227.965 358.344 227.965H646.426C662.088 227.965 674.785 242.44 674.785 260.295V876.742C674.784 894.598 662.088 909.072 646.425 909.071Z" fill="#D7E4FF"/>
<path d="M674.785 846.08L329.984 841.422V303.821H674.785V846.08Z" fill="#353FB0"/>
<path d="M553.295 273.659L451.489 273.659C449.221 273.659 447.383 271.537 447.383 268.918C447.383 266.299 449.221 264.176 451.489 264.177H553.295C555.563 264.177 557.401 266.299 557.401 268.918C557.4 271.536 555.563 273.659 553.295 273.659Z" fill="#8AA8FF"/>
<path d="M584.669 268.918C584.669 271.536 582.547 273.659 579.928 273.659C577.31 273.659 575.188 271.536 575.188 268.918C575.188 266.299 577.31 264.177 579.928 264.177C582.547 264.176 584.669 266.299 584.669 268.918Z" fill="#8AA8FF"/>
<path d="M358.344 233.941H646.426C662.088 233.941 674.785 248.415 674.786 266.27V260.294C674.785 242.439 662.088 227.964 646.426 227.964H358.344C342.682 227.964 329.984 242.439 329.984 260.294V266.27C329.984 248.416 342.682 233.941 358.344 233.941Z" fill="#E9F1FF"/>
<path d="M646.427 903.095H358.345C342.682 903.096 329.985 888.621 329.984 870.766V876.742C329.985 894.597 342.682 909.072 358.345 909.072H646.427C662.088 909.072 674.786 894.598 674.786 876.742V870.766C674.786 888.621 662.088 903.095 646.427 903.095Z" fill="#C4D5F2"/>
<path d="M674.781 505.511L696.969 495.001V512.226L674.781 521.86V505.511Z" fill="white"/>
<path d="M674.781 400.702L696.969 391.359V396.907L674.781 406.541V400.702Z" fill="white"/>
<path d="M659.757 360.063V799.243H345.508V360.063C345.508 354.238 350.23 349.515 356.056 349.515H649.208C655.034 349.515 659.757 354.238 659.757 360.063Z" fill="#EFF8FF"/>
<path d="M635.699 400.176H492.656V404.302H635.699V400.176Z" fill="#B8D4F5"/>
<path d="M439.94 398.113H368.648V402.24H439.94V398.113Z" fill="#679AE2"/>
<path d="M439.938 404.99H393.633V409.116H439.938V404.99Z" fill="#679AE2"/>
<path d="M439.94 431.581H368.648V435.708H439.94V431.581Z" fill="#679AE2"/>
<path d="M439.939 438.458H390.195V442.585H439.939V438.458Z" fill="#679AE2"/>
<path d="M439.94 466.425H368.648V470.552H439.94V466.425Z" fill="#679AE2"/>
<path d="M439.939 473.302H390.195V477.429H439.939V473.302Z" fill="#679AE2"/>
<path d="M439.94 501.269H368.648V505.396H439.94V501.269Z" fill="#679AE2"/>
<path d="M439.939 508.146H390.195V512.272H439.939V508.146Z" fill="#679AE2"/>
<path d="M635.699 435.02H492.656V439.146H635.699V435.02Z" fill="#EF487D"/>
<path d="M635.699 469.863H492.656V473.99H635.699V469.863Z" fill="#B8D4F5"/>
<path d="M635.699 504.708H492.656V508.834H635.699V504.708Z" fill="#B8D4F5"/>
<path d="M461.711 393.414V411.065L475.007 402.125L461.711 393.414Z" fill="#679AE2"/>
<path d="M461.711 463.101V480.752L475.007 471.813L461.711 463.101Z" fill="#679AE2"/>
<path d="M461.711 497.945V515.596L475.007 506.656L461.711 497.945Z" fill="#679AE2"/>
<path d="M439.94 536.113H368.648V540.239H439.94V536.113Z" fill="#679AE2"/>
<path d="M439.939 542.99H390.195V547.117H439.939V542.99Z" fill="#679AE2"/>
<path d="M635.707 539.551H492.664V543.678H635.707V539.551Z" fill="#B8D4F5"/>
<path d="M461.719 532.789V550.44L475.015 541.5L461.719 532.789Z" fill="#679AE2"/>
<path d="M439.94 570.957H368.648V575.083H439.94V570.957Z" fill="#679AE2"/>
<path d="M439.939 577.833H390.195V581.96H439.939V577.833Z" fill="#679AE2"/>
<path d="M635.707 574.395H492.664V578.522H635.707V574.395Z" fill="#B8D4F5"/>
<path d="M461.719 567.633V585.284L475.015 576.343L461.719 567.633Z" fill="#679AE2"/>
<path d="M439.94 605.8H368.648V609.927H439.94V605.8Z" fill="#679AE2"/>
<path d="M439.939 612.677H390.195V616.804H439.939V612.677Z" fill="#679AE2"/>
<path d="M635.707 609.238H492.664V613.365H635.707V609.238Z" fill="#B8D4F5"/>
<path d="M461.719 602.476V620.127L475.015 611.187L461.719 602.476Z" fill="#679AE2"/>
<path d="M439.94 640.644H368.648V644.771H439.94V640.644Z" fill="#679AE2"/>
<path d="M439.939 647.521H390.195V651.647H439.939V647.521Z" fill="#679AE2"/>
<path d="M635.707 644.083H492.664V648.209H635.707V644.083Z" fill="#B8D4F5"/>
<path d="M461.719 637.32V654.971L475.015 646.031L461.719 637.32Z" fill="#679AE2"/>
<path d="M439.94 675.488H368.648V679.615H439.94V675.488Z" fill="#679AE2"/>
<path d="M439.939 682.365H390.195V686.492H439.939V682.365Z" fill="#679AE2"/>
<path d="M635.707 678.927H492.664V683.053H635.707V678.927Z" fill="#B8D4F5"/>
<path d="M461.719 672.164V689.815L475.015 680.875L461.719 672.164Z" fill="#679AE2"/>
<path d="M439.94 710.332H368.648V714.458H439.94V710.332Z" fill="#679AE2"/>
<path d="M439.939 717.208H390.195V721.335H439.939V717.208Z" fill="#679AE2"/>
<path d="M635.707 713.77H492.664V717.897H635.707V713.77Z" fill="#B8D4F5"/>
<path d="M461.719 707.008V724.659L475.015 715.718L461.719 707.008Z" fill="#679AE2"/>
<path d="M439.94 745.176H368.648V749.302H439.94V745.176Z" fill="#679AE2"/>
<path d="M439.939 752.053H390.195V756.18H439.939V752.053Z" fill="#679AE2"/>
<path d="M635.707 748.614H492.664V752.74H635.707V748.614Z" fill="#B8D4F5"/>
<path d="M461.719 741.852V759.503L475.015 750.563L461.719 741.852Z" fill="#679AE2"/>
<path d="M466.077 430.206H461.492V443.73H466.077V430.206Z" fill="#679AE2"/>
<path d="M474.093 430.206H469.508V443.73H474.093V430.206Z" fill="#679AE2"/>
<path d="M510.591 428.601H505.047V445.336H510.591V428.601Z" fill="#CD3E6A"/>
<path d="M649.208 349.515H356.056C350.23 349.515 345.508 354.238 345.508 360.063V372.21H659.757V360.063C659.757 354.238 655.034 349.515 649.208 349.515Z" fill="#679AE2"/>
<path d="M598.569 360.748C598.569 363.659 596.208 366.02 593.296 366.02C590.385 366.02 588.023 363.659 588.023 360.748C588.023 357.836 590.384 355.476 593.296 355.476C596.208 355.475 598.569 357.836 598.569 360.748Z" fill="white"/>
<path d="M617.131 360.748C617.131 363.659 614.771 366.02 611.859 366.02C608.947 366.02 606.586 363.659 606.586 360.748C606.586 357.836 608.946 355.476 611.859 355.476C614.771 355.476 617.131 357.836 617.131 360.748Z" fill="white"/>
<path d="M635.701 360.748C635.701 363.659 633.341 366.02 630.429 366.02C627.518 366.02 625.156 363.659 625.156 360.748C625.156 357.836 627.517 355.476 630.429 355.476C633.342 355.476 635.701 357.836 635.701 360.748Z" fill="white"/>
<path d="M507.738 780.131C507.738 782.953 505.45 785.242 502.627 785.242C499.804 785.242 497.516 782.953 497.516 780.131C497.516 777.308 499.805 775.02 502.627 775.02C505.45 775.02 507.738 777.308 507.738 780.131Z" fill="#679AE2"/>
<path d="M527.004 780.131C527.004 782.953 524.715 785.242 521.893 785.242C519.07 785.242 516.781 782.953 516.781 780.131C516.781 777.308 519.07 775.02 521.893 775.02C524.715 775.02 527.004 777.308 527.004 780.131Z" fill="#679AE2"/>
<path d="M478.258 780.131C478.258 782.953 480.547 785.242 483.369 785.242C486.192 785.242 488.481 782.953 488.481 780.131C488.481 777.308 486.192 775.02 483.369 775.02C480.547 775.02 478.258 777.308 478.258 780.131Z" fill="#679AE2"/>
<path d="M197.967 928.34L197.835 931.52L149.453 929.522L149.574 926.579L197.967 928.34Z" fill="#000932"/>
<path d="M197.828 931.739C197.744 933.762 186.846 934.954 173.485 934.402C160.125 933.85 149.362 931.763 149.446 929.74C149.529 927.717 160.428 926.525 173.788 927.077C187.148 927.629 197.911 929.717 197.828 931.739Z" fill="#000932"/>
<path d="M163.326 920.597C158.758 920.597 154.942 917.012 154.708 912.398L153.332 885.337C153.09 880.573 156.755 876.515 161.519 876.272C166.277 876.031 170.341 879.696 170.583 884.459L171.96 911.52C172.202 916.284 168.536 920.343 163.773 920.585C163.624 920.593 163.474 920.597 163.326 920.597Z" fill="#FFA08A"/>
<path d="M154.087 906.543L149.602 926.079L196.743 927.073C196.743 927.073 190.475 924.69 182.874 919.012C178.115 915.459 176.174 909.05 173.163 903.971L154.087 906.543Z" fill="#3B2D6A"/>
<path d="M197.969 928.34C197.885 930.363 186.987 931.555 173.626 931.003C160.266 930.451 149.503 928.364 149.586 926.341C149.67 924.318 160.568 923.126 173.929 923.678C187.289 924.23 198.052 926.318 197.969 928.34Z" fill="#3B2D6A"/>
<path d="M173.976 907.131C173.845 910.296 171.174 912.757 168.008 912.626C164.843 912.495 162.382 909.823 162.513 906.657C162.644 903.492 165.316 901.031 168.481 901.162C171.647 901.293 174.107 903.965 173.976 907.131Z" fill="#3B2D6A"/>
<path d="M144.645 926.688L144.492 929.868L96.125 927.549L96.2653 924.607L144.645 926.688Z" fill="#000932"/>
<path d="M144.478 930.086C144.381 932.109 133.475 933.229 120.118 932.588C106.762 931.948 96.0131 929.789 96.11 927.767C96.207 925.745 107.113 924.625 120.47 925.265C133.826 925.906 144.575 928.064 144.478 930.086Z" fill="#000932"/>
<path d="M110.101 918.716C105.507 918.716 101.684 915.096 101.479 910.46L100.282 883.391C100.072 878.625 103.764 874.591 108.529 874.381C113.3 874.164 117.328 877.862 117.539 882.627L118.736 909.697C118.946 914.463 115.254 918.497 110.489 918.707C110.36 918.713 110.229 918.716 110.101 918.716Z" fill="#FFA08A"/>
<path d="M100.904 904.601L96.2891 924.105L143.423 925.413C143.423 925.413 137.171 922.987 129.607 917.26C124.872 913.675 122.974 907.253 119.996 902.155L100.904 904.601Z" fill="#3B2D6A"/>
<path d="M144.702 926.628C144.799 924.606 134.049 922.448 120.692 921.807C107.335 921.167 96.4288 922.287 96.3318 924.309C96.2349 926.331 106.984 928.489 120.341 929.13C133.698 929.77 144.605 928.65 144.702 926.628Z" fill="#3B2D6A"/>
<path d="M120.788 905.32C120.635 908.485 117.947 910.928 114.782 910.776C111.617 910.624 109.175 907.936 109.327 904.771C109.479 901.606 112.168 899.164 115.332 899.316C118.496 899.467 120.939 902.156 120.788 905.32Z" fill="#3B2D6A"/>
<path d="M182.317 579.165L204.512 634.639L190.284 626.952L249.181 618.819C255.445 617.955 261.224 622.331 262.089 628.595C262.923 634.628 258.86 640.217 252.966 641.394L194.636 652.914C188.849 654.057 183.205 651.061 180.766 645.978L180.409 645.227L154.565 591.356C150.943 583.805 154.128 574.747 161.679 571.125C169.229 567.502 178.287 570.687 181.909 578.238C182.051 578.533 182.197 578.868 182.317 579.165Z" fill="#AFCCE8"/>
<path d="M177.859 674.725C178.237 679.187 178.507 683.657 178.776 688.125L179.139 694.831L179.449 701.539C179.56 703.775 179.627 706.013 179.717 708.25C179.798 710.487 179.899 712.723 179.957 714.961C180.08 719.437 180.245 723.911 180.32 728.388C180.756 746.292 180.521 764.211 180.7 782.096C180.7 786.57 180.971 791.03 180.652 795.518C180.48 800 180.535 804.473 180.604 808.947C180.676 813.422 180.638 817.899 180.353 822.381C180.049 826.863 179.718 831.346 179.366 835.826L178.827 842.546C178.647 844.786 178.455 847.025 178.257 849.264C177.876 853.742 177.426 858.219 177.014 862.693C176.113 871.643 175.172 880.586 173.973 889.52C173.009 896.702 166.405 901.742 159.222 900.778C153.248 899.975 148.756 895.271 147.969 889.577L147.968 889.549C146.748 880.693 145.787 871.846 144.865 863.005C144.443 858.585 143.983 854.166 143.591 849.75C143.388 847.541 143.191 845.333 143.005 843.125L142.451 836.502C142.089 832.088 141.747 827.674 141.433 823.261C141.137 818.848 141.089 814.43 141.15 810.009C141.209 805.589 141.253 801.167 141.072 796.754C141.033 795.65 140.976 794.547 140.921 793.444L140.88 792.617C140.856 792.341 140.82 792.066 140.791 791.791L140.606 790.138C140.359 787.934 140.12 785.731 139.848 783.528C137.753 765.905 135.245 748.317 133.406 730.712C132.913 726.312 132.51 721.908 132.065 717.507C131.838 715.307 131.656 713.105 131.452 710.904C131.259 708.701 131.041 706.502 130.867 704.299L130.324 697.692L129.834 691.083C129.535 686.675 129.236 682.267 129.046 677.852V677.845C128.467 664.348 138.939 652.937 152.436 652.357C165.572 651.792 176.738 661.751 177.859 674.725Z" fill="#5F48A8"/>
<path d="M149.011 672.447C148.897 676.993 148.627 681.529 148.351 686.064L147.882 692.865C147.713 695.13 147.532 697.396 147.34 699.661C146.574 708.719 145.657 717.768 144.615 726.808C142.547 744.888 139.293 762.89 137.121 780.958C136.859 783.217 136.583 785.475 136.344 787.736C136.08 789.995 135.788 792.253 135.627 794.519C135.451 796.784 135.351 799.054 135.311 801.328C135.27 803.602 135.284 805.88 135.258 808.155C135.38 817.271 133.749 826.269 132.557 835.295C131.276 844.315 129.886 853.327 128.359 862.327C126.816 871.327 125.164 880.318 123.183 889.283C121.617 896.37 114.602 900.846 107.515 899.28C101.718 897.999 97.6687 893.072 97.2437 887.442L97.2462 887.423C96.5642 878.278 96.2109 869.159 95.9673 860.049C95.7394 850.939 95.6488 841.841 95.6661 832.751C95.7726 823.667 95.4406 814.555 96.8621 805.561C97.161 803.309 97.4993 801.059 97.7831 798.806C98.0669 796.553 98.2932 794.295 98.4406 792.033C98.7331 787.507 98.73 782.962 98.7568 778.419C98.8049 760.241 97.772 741.997 97.9242 723.833C97.9928 714.75 98.1851 705.676 98.5296 696.611C98.6164 694.345 98.7126 692.079 98.8214 689.815L99.1849 683.024C99.4632 678.498 99.7486 673.973 100.19 669.457V669.455C101.504 656.003 113.475 646.164 126.927 647.479C139.756 648.732 149.296 659.767 149.011 672.447Z" fill="#5F48A8"/>
<path d="M188.968 692.239C188.409 682.324 181.533 642.176 181.47 629.948C181.283 593.588 188.478 565.484 153.097 564.026C147.314 563.788 115.726 567.871 110.382 568.461C103.149 569.259 102.394 570.493 101.58 578.177C100.813 585.413 100.876 587.192 103.149 594.105C106.071 602.993 108.015 612.704 106.828 623.803C104.83 642.489 96.4219 700.351 96.4219 700.351C105.049 718.533 167.678 712.681 188.968 692.239Z" fill="#EFF8FF"/>
<path d="M61.0869 692.799C61.0869 692.799 76.4611 690.137 79.8506 702.249L73.7268 718.135L56.6797 708.636C56.6797 708.636 59.0433 695.274 61.0869 692.799Z" fill="#FFA08A"/>
<path d="M68.4909 713.614L67.5267 722.39L67.071 726.775L66.8597 728.957L66.7643 730.037C66.732 730.402 66.7107 730.735 66.6886 731.068L66.6839 731.143C66.6058 732.309 65.5966 733.192 64.4298 733.114C63.3031 733.04 62.4414 732.09 62.4532 730.975C62.458 730.571 62.465 730.167 62.4792 729.798L62.521 728.671L62.6227 726.444L62.8569 722.012L63.3756 713.166C63.4592 711.75 64.6743 710.669 66.0903 710.753C67.5063 710.835 68.5871 712.051 68.5035 713.467C68.5012 713.508 68.498 713.548 68.4941 713.588L68.4909 713.614Z" fill="#FFA08A"/>
<path d="M64.3659 711.11L63.4017 719.887L62.946 724.271L62.7347 726.454L62.6393 727.534C62.607 727.899 62.5857 728.232 62.5636 728.564L62.5589 728.639C62.4808 729.806 61.4716 730.689 60.3048 730.611C59.1781 730.536 58.3164 729.587 58.3282 728.471C58.333 728.068 58.3401 727.664 58.3535 727.294L58.3952 726.168L58.497 723.94L58.7311 719.509L59.2507 710.662C59.3335 709.246 60.5493 708.166 61.9653 708.248C63.3813 708.332 64.4621 709.547 64.3785 710.963C64.3762 711.004 64.373 711.044 64.3691 711.083L64.3659 711.11Z" fill="#FFA08A"/>
<path d="M61.6572 709.884L60.0835 717.032L59.3273 720.604L58.9694 722.379C58.8519 722.969 58.7447 723.556 58.6556 724.092L58.6453 724.152C58.4545 725.307 57.3642 726.088 56.2099 725.897C55.1022 725.714 54.339 724.696 54.4478 723.595C54.5164 722.919 54.5937 722.297 54.6765 721.679L54.9319 719.837L55.4743 716.186L56.6152 708.911C56.8352 707.509 58.1495 706.551 59.5513 706.771C60.9531 706.991 61.911 708.305 61.691 709.707C61.6831 709.757 61.6744 709.806 61.6634 709.854L61.6572 709.884Z" fill="#FFA08A"/>
<path d="M73.4317 712.858L72.372 721.626L71.8691 726.006L71.634 728.187L71.5268 729.265C71.4906 729.63 71.4654 729.963 71.4386 730.296L71.4322 730.375C71.3408 731.541 70.3206 732.412 69.1545 732.32C68.0452 732.232 67.2031 731.297 67.2031 730.203C67.2039 729.799 67.2063 729.395 67.2166 729.025L67.2465 727.897L67.3246 725.667L67.5106 721.231L67.9349 712.377C68.0082 710.853 69.3019 709.678 70.8243 709.751C72.3476 709.824 73.5232 711.118 73.4498 712.641C73.4467 712.705 73.4412 712.769 73.4341 712.833L73.4317 712.858Z" fill="#FFA08A"/>
<path d="M77.4062 707.036L77.5237 714.043L77.6033 717.539C77.6356 718.693 77.6679 719.879 77.727 720.966L77.7302 721.014C77.7933 722.183 76.8977 723.181 75.7285 723.245C74.6278 723.305 73.6769 722.505 73.5169 721.436C73.3348 720.195 73.1999 719.048 73.0588 717.869L72.6575 714.363L71.8991 707.362C71.7351 705.845 72.8309 704.482 74.3479 704.318C75.8648 704.154 77.2272 705.25 77.3912 706.766C77.3999 706.849 77.4053 706.931 77.4069 707.013L77.4062 707.036Z" fill="#FFA08A"/>
<path d="M121.694 590.617L96.77 644.92L97.3858 643.082L80.5263 702.274C78.7942 708.355 72.4599 711.881 66.3789 710.149C60.5146 708.478 57.0337 702.496 58.3465 696.62L71.8765 636.58C71.9554 636.23 72.0563 635.892 72.1785 635.566L72.4923 634.742L93.741 578.899C96.7197 571.071 105.479 567.14 113.306 570.119C121.134 573.098 125.065 581.857 122.086 589.684C121.969 589.989 121.828 590.325 121.694 590.617Z" fill="#B8D4F5"/>
<path d="M145.198 528.474C145.738 531.742 147.383 534.9 150.651 534.36C153.919 533.82 157.573 529.787 157.032 526.519C156.492 523.251 153.406 521.04 150.138 521.58C146.87 522.12 144.658 525.206 145.198 528.474Z" fill="#EF9789"/>
<path d="M127.937 547.219L127.432 571.124C127.372 573.972 128.612 576.704 130.799 578.53C135.991 582.863 142.486 582.237 146.821 578.739C149.202 576.82 150.495 573.858 150.291 570.807L148.814 548.641C144.78 542.4 134.523 540.317 127.937 547.219Z" fill="#FFA08A"/>
<path d="M148.827 548.919L149.354 556.846C149.354 556.846 139.877 557.935 134.172 552.692L148.827 548.919Z" fill="#3B3348"/>
<path d="M152.545 510.939L152.537 510.88L152.529 510.882C150.187 502.298 140.453 497.354 130.613 499.82C120.66 502.315 114.373 511.443 116.571 520.208C116.947 521.707 117.551 523.095 118.336 524.359L121.009 538.411C122.007 543.658 125.276 548.216 130.052 551.015C134.827 553.813 140.688 554.607 146.259 553.211C154.163 551.23 157.574 543.041 155.733 535.694L153.043 514.807C153.05 513.602 152.914 512.385 152.611 511.175C152.591 511.095 152.566 511.018 152.545 510.939Z" fill="#FFA08A"/>
<path d="M127.035 532.075C127.84 535.288 127.587 538.84 124.375 539.645C121.162 540.45 116.205 538.204 115.4 534.991C114.595 531.779 116.546 528.522 119.759 527.716C122.971 526.911 126.229 528.862 127.035 532.075Z" fill="#FFA08A"/>
<path d="M153.166 504.047C154.129 507.888 151.796 511.783 147.954 512.745C144.113 513.708 140.219 511.375 139.256 507.534C138.293 503.693 140.626 499.798 144.467 498.835C148.309 497.873 152.202 500.205 153.166 504.047Z" fill="#461F16"/>
<path d="M132.621 495.507C118.941 498.937 112.5 507.742 117.984 514.885C127.781 508.796 144.125 508.763 150.221 511.745C152.481 512.85 155.213 512.16 156.67 510.108C158.169 507.998 157.644 505.96 156.85 502.791C155.11 495.85 144.262 492.59 132.621 495.507Z" fill="#461F16"/>
<path d="M126.19 510.505C126.19 510.505 120.978 514.275 121.455 518.412C121.932 522.549 122.957 528.267 122.957 528.267L117.934 528.675C117.934 528.675 113.107 518.209 114.696 513.359C116.284 508.508 126.19 510.505 126.19 510.505Z" fill="#461F16"/>
<path d="M144.16 535.868C144.014 535.868 143.881 535.769 143.844 535.621C143.8 535.446 143.906 535.269 144.08 535.226C144.545 535.109 144.939 534.798 145.159 534.371C145.379 533.945 145.404 533.444 145.229 532.997L141.927 524.198C141.864 524.029 141.949 523.842 142.118 523.779C142.287 523.716 142.474 523.801 142.537 523.97L145.838 532.764C146.08 533.381 146.044 534.077 145.738 534.671C145.432 535.264 144.886 535.697 144.239 535.86C144.212 535.864 144.186 535.868 144.16 535.868Z" fill="#461F16"/>
<path d="M149.574 538.465C150.202 540.973 148.679 543.515 146.171 544.144C143.663 544.772 141.121 543.249 140.492 540.741L149.574 538.465Z" fill="white"/>
<path d="M145.729 519.267C145.438 519.267 145.172 519.07 145.098 518.774C145.01 518.424 145.222 518.07 145.572 517.983L150.566 516.731C150.916 516.646 151.27 516.855 151.357 517.205C151.445 517.554 151.233 517.908 150.883 517.995L145.889 519.247C145.836 519.261 145.782 519.267 145.729 519.267Z" fill="#461F16"/>
<path d="M130.55 522.701C130.241 522.701 129.967 522.481 129.909 522.166C129.844 521.812 130.079 521.472 130.433 521.408L135.5 520.485C135.855 520.421 136.194 520.655 136.258 521.009C136.323 521.363 136.088 521.703 135.734 521.768L130.668 522.69C130.628 522.698 130.589 522.701 130.55 522.701Z" fill="#461F16"/>
<path d="M121.862 536.109C121.732 536.109 121.602 536.071 121.487 535.991C119.638 534.692 119.461 532.387 119.455 532.289C119.43 531.931 119.701 531.619 120.061 531.595C120.418 531.57 120.729 531.841 120.755 532.199C120.758 532.229 120.911 533.992 122.238 534.924C122.532 535.132 122.604 535.538 122.396 535.833C122.269 536.012 122.067 536.109 121.862 536.109Z" fill="#461F16"/>
<path d="M137.738 524.759C137.738 524.759 136.447 527.149 134.334 527.588C132.221 528.026 130.086 526.348 130.086 526.348C130.086 526.348 131.377 523.958 133.49 523.519C135.603 523.08 137.738 524.759 137.738 524.759Z" fill="white"/>
<path d="M137.738 524.759C137.971 525.882 137.249 526.982 136.126 527.216C135.002 527.449 133.902 526.727 133.669 525.603C133.435 524.48 134.158 523.38 135.281 523.147C136.405 522.913 137.504 523.635 137.738 524.759Z" fill="#461F16"/>
<path d="M152.644 521.735C152.644 521.735 151.353 524.124 149.24 524.563C147.127 525.002 144.992 523.323 144.992 523.323C144.992 523.323 146.283 520.934 148.396 520.494C150.509 520.055 152.644 521.735 152.644 521.735Z" fill="white"/>
<path d="M151.683 521.933C151.917 523.056 151.194 524.156 150.071 524.389C148.947 524.623 147.847 523.9 147.614 522.777C147.381 521.653 148.103 520.554 149.226 520.32C150.351 520.088 151.451 520.809 151.683 521.933Z" fill="#461F16"/>
<path opacity="0.5" d="M137.081 534.44C137.553 536.713 136.092 538.939 133.818 539.411C131.544 539.884 129.319 538.423 128.846 536.149C128.374 533.875 129.835 531.649 132.109 531.177C134.383 530.706 136.608 532.166 137.081 534.44Z" fill="#FF7D90"/>
<path opacity="0.5" d="M155.225 530.306C155.656 532.384 154.322 534.419 152.243 534.85C150.164 535.282 148.129 533.947 147.698 531.868C147.267 529.79 148.602 527.755 150.68 527.323C152.759 526.892 154.794 528.228 155.225 530.306Z" fill="#FF7D90"/>
<path d="M145.584 710.043L149.613 742.898L143.578 725.67L145.584 710.043Z" fill="#3B2D6A"/>
<path d="M116.287 732.25C115.841 732.25 115.392 732.224 114.942 732.17L110.563 731.656C104.619 730.956 100.257 725.73 100.632 719.757L101.315 708.858C101.344 708.409 101.734 708.073 102.18 708.096C102.629 708.124 102.97 708.511 102.942 708.96L102.258 719.858C101.937 724.967 105.669 729.439 110.754 730.037L115.133 730.552C117.749 730.858 120.312 730.112 122.353 728.448C124.393 726.783 125.641 724.421 125.864 721.797L126.739 711.55C126.777 711.102 127.173 710.771 127.62 710.807C128.068 710.846 128.401 711.24 128.363 711.689L127.489 721.936C127.227 725.004 125.769 727.764 123.383 729.71C121.348 731.37 118.869 732.25 116.287 732.25Z" fill="#7457CA"/>
<path d="M154.756 512.452C150.309 511.493 148.305 509.743 146.367 508.05C144.042 506.02 141.847 504.102 135.861 503.594C127.828 502.911 121.369 507.69 118.448 510.342C121.035 507.111 126.109 502.144 133.329 501.345C139.189 500.697 141.668 502.126 144.292 503.639C146.561 504.947 148.907 506.3 153.552 506.378C154.901 506.401 156.084 506.265 157.12 506.011C157.276 505.973 157.425 505.93 157.574 505.886C157.554 505.777 157.532 505.665 157.51 505.553C156.392 505.881 155.087 506.067 153.557 506.042C149 505.965 146.692 504.634 144.46 503.347C141.786 501.806 139.261 500.35 133.291 501.011C126.42 501.77 121.462 506.244 118.705 509.503C120.424 506.37 125.155 499.236 133.385 497.378C139.137 496.08 141.76 497.223 144.537 498.433C146.938 499.48 149.42 500.562 154.044 500.121C154.492 500.078 154.917 500.018 155.325 499.945C155.243 499.844 155.161 499.742 155.075 499.643C154.733 499.699 154.382 499.749 154.012 499.785C149.475 500.217 147.033 499.153 144.672 498.124C141.842 496.891 139.17 495.726 133.31 497.049C133.202 497.073 133.094 497.099 132.987 497.125C122.92 499.591 118.122 509.798 117.682 510.78C117.366 511.195 117.101 511.569 116.884 511.887C116.806 511.973 116.76 512.025 116.754 512.031L116.774 512.048C116.393 512.615 116.191 512.969 116.18 512.987L116.474 513.152C116.485 513.132 116.712 512.736 117.144 512.101C118.214 510.927 125.773 503.078 135.832 503.932C141.706 504.431 143.862 506.314 146.144 508.306C148.046 509.968 150.018 511.682 154.23 512.677C154.41 512.611 154.584 512.535 154.756 512.452Z" fill="black"/>
<path d="M139.243 710.656C143.419 676.826 135.096 630.107 135.096 630.107L111.781 631.259L100.867 705.325C108.561 710.676 123.468 712.243 139.243 710.656Z" fill="#B8D4F5"/>
<path d="M125.06 566.695C138.737 630.94 137.038 672.335 125.145 724.442L80.5469 716.259L98.9557 658.112L100.642 571.01C100.642 571.01 103.495 568.668 125.06 566.695Z" fill="#B8D4F5"/>
<path d="M152.414 563.989C152.414 563.989 178.717 691.591 171.92 716.94L196.65 712.066L184.166 646.146L181.184 578.563C181.184 578.563 175.429 564.433 152.414 563.989Z" fill="#B8D4F5"/>
<path d="M124.844 591.787L118.256 607.287L135.702 639.773C134.703 618.402 131.162 595.352 125.062 566.695L114.297 586.597L124.844 591.787Z" fill="#ADCCEA"/>
<path d="M152.414 563.989L168.019 576.815L158.479 588.381L172.196 599.051L165.849 638.013L152.414 563.989Z" fill="#ADCCEA"/>
<path d="M249.372 618.967C246.958 619.94 245.037 621.84 244.036 624.242C243.036 626.644 243.04 629.348 244.05 631.745C244.483 632.773 245.023 633.794 245.696 634.75C248.564 638.824 254.029 640.057 258.377 637.622L269.176 631.573L257.35 616.05C257.35 616.05 253.307 617.38 249.372 618.967Z" fill="#FFA08A"/>
<path d="M262.781 622.038L271.463 620.266L275.816 619.404L278.006 618.987L279.115 618.786C279.48 618.718 279.878 618.655 280.277 618.592C281.433 618.412 282.517 619.202 282.697 620.358C282.871 621.473 282.141 622.521 281.051 622.755L280.972 622.772C280.646 622.841 280.319 622.91 279.962 622.993L278.907 623.241L276.777 623.76L272.502 624.834L263.952 627.036L263.936 627.04C262.562 627.394 261.161 626.567 260.808 625.194C260.455 623.82 261.281 622.419 262.655 622.066C262.693 622.057 262.741 622.046 262.781 622.038Z" fill="#FFA08A"/>
<path d="M259.712 618.305L268.394 616.534L272.747 615.672L274.937 615.255L276.047 615.053C276.411 614.986 276.809 614.923 277.208 614.86C278.364 614.679 279.447 615.469 279.628 616.625C279.802 617.741 279.072 618.789 277.981 619.023L277.902 619.039C277.575 619.109 277.249 619.177 276.892 619.262L275.837 619.509L273.707 620.029L269.432 621.103L260.881 623.305L260.866 623.309C259.492 623.663 258.091 622.836 257.738 621.461C257.384 620.088 258.211 618.687 259.585 618.334C259.625 618.325 259.673 618.314 259.712 618.305Z" fill="#FFA08A"/>
<path d="M257.612 615.946L264.651 613.783L268.188 612.727L269.974 612.212C270.573 612.042 271.178 611.877 271.838 611.713C272.973 611.432 274.122 612.124 274.404 613.259C274.675 614.349 274.048 615.451 272.994 615.787L272.929 615.807C272.411 615.971 271.845 616.161 271.278 616.362L269.571 616.969L266.143 618.225L259.291 620.799L259.27 620.807C257.941 621.306 256.461 620.633 255.962 619.306C255.463 617.977 256.135 616.496 257.463 615.997C257.51 615.979 257.565 615.961 257.612 615.946Z" fill="#FFA08A"/>
<path d="M262.653 626.655L271.358 624.976L275.722 624.161L277.918 623.767L279.03 623.577C279.395 623.514 279.794 623.454 280.194 623.396C281.352 623.227 282.427 624.028 282.597 625.186C282.757 626.287 282.04 627.314 280.973 627.557L280.888 627.576C280.562 627.65 280.237 627.722 279.88 627.81L278.828 628.069L276.702 628.612L272.438 629.733L263.91 632.028L263.893 632.032C262.42 632.429 260.905 631.556 260.51 630.084C260.113 628.612 260.986 627.097 262.459 626.7C262.522 626.683 262.591 626.667 262.653 626.655Z" fill="#FFA08A"/>
<path d="M318.296 592.05H265.414V662.776H318.296V592.05Z" fill="#EFF8FF"/>
<path d="M258.245 631.295L265.284 631.05L268.811 630.949C269.998 630.922 271.153 630.892 272.407 630.896C273.578 630.9 274.524 631.851 274.52 633.022C274.517 634.124 273.672 635.027 272.597 635.126L272.539 635.131C271.456 635.227 270.278 635.363 269.13 635.495L265.658 635.913L258.706 636.793L258.688 636.795C257.175 636.987 255.793 635.915 255.6 634.402C255.409 632.888 256.48 631.506 257.994 631.314C258.077 631.305 258.163 631.298 258.245 631.295Z" fill="#FFA08A"/>
<path d="M778.943 590.668L791.309 593.157C792.984 593.494 793.83 592.252 793.2 590.383L785.724 568.193C785.094 566.323 783.226 564.535 781.552 564.198L769.186 561.709C767.511 561.372 766.665 562.614 767.294 564.483L774.77 586.673C775.401 588.544 777.269 590.332 778.943 590.668Z" fill="#3B2D6A"/>
<path d="M819.782 566.164C821.331 542.745 830.434 530.268 853.658 529.708C877.842 529.125 895.393 552.699 893.844 576.117C893.577 580.144 892.725 583.908 891.375 587.374C906.37 592.296 915.113 604.374 912.396 629.748C912.104 632.484 911.333 634.907 910.162 637.048C910.699 638.821 910.934 640.718 910.804 642.675C910.227 651.4 902.687 658.004 893.962 657.427C889.017 657.1 884.755 654.534 882.093 650.785C876.025 651.414 869.509 651.427 862.997 650.996C834.763 649.128 830.783 642.561 832.253 620.345C832.504 616.544 834.66 613.651 835.256 610.28C821.741 603.841 818.525 585.162 819.782 566.164Z" fill="#000932"/>
<path d="M841.169 565.099C841.597 568.255 840.979 571.622 837.823 572.05C834.667 572.479 830.169 569.806 829.741 566.651C829.312 563.495 831.523 560.589 834.679 560.161C837.835 559.732 840.741 561.943 841.169 565.099Z" fill="#EF9789"/>
<path d="M861.906 564.206C862.051 566.939 863.113 569.682 865.845 569.537C868.578 569.392 871.945 566.414 871.8 563.681C871.655 560.949 869.323 558.852 866.59 558.997C863.858 559.142 861.76 561.475 861.906 564.206Z" fill="#FFA08A"/>
<path d="M838.322 618.273L818.467 674.302L818.283 674.823C816.218 680.647 809.824 683.695 804 681.631C800.543 680.406 798.047 677.596 797.034 674.344L775.888 604.877C774.312 599.7 777.232 594.226 782.408 592.65C787.451 591.115 792.783 593.866 794.512 598.793L818.453 667.347L797.021 667.389L813.628 610.313C815.631 603.431 822.833 599.475 829.715 601.478C836.597 603.48 840.552 610.682 838.549 617.564C838.484 617.792 838.399 618.053 838.322 618.273Z" fill="#FFA08A"/>
<path d="M841.21 618.977L833.531 641.238C830.904 648.851 822.603 652.894 814.99 650.268C807.72 647.76 803.72 640.029 805.659 632.711L811.749 609.965C813.95 601.742 822.401 596.86 830.624 599.061C838.848 601.262 843.729 609.713 841.528 617.937C841.438 618.277 841.322 618.649 841.21 618.977Z" fill="#E54880"/>
<path d="M771.661 586.912L772.843 578.911L773.459 574.908L773.785 572.897C773.896 572.223 774.011 571.554 774.154 570.827C774.378 569.684 775.486 568.94 776.628 569.165C777.729 569.381 778.46 570.418 778.311 571.515L778.303 571.575C778.221 572.173 778.143 572.835 778.071 573.493L777.861 575.481L777.47 579.481L776.736 587.502L776.734 587.519C776.606 588.925 775.362 589.96 773.956 589.832C772.55 589.703 771.515 588.459 771.644 587.053C771.648 587.008 771.655 586.956 771.661 586.912Z" fill="#FFA08A"/>
<path d="M775.591 585.995L781.61 571.306L781.616 571.291C782.058 570.213 783.289 569.698 784.367 570.139C785.406 570.565 785.92 571.73 785.561 572.779L780.371 587.802C779.911 589.136 778.455 589.844 777.12 589.384C775.786 588.922 775.079 587.468 775.539 586.133C775.554 586.09 775.57 586.048 775.586 586.006L775.591 585.995Z" fill="#FFA08A"/>
<path d="M778.101 587.15L783.007 580.72L785.484 577.514L786.741 575.912C787.166 575.376 787.589 574.847 788.066 574.279C788.815 573.388 790.144 573.272 791.036 574.021C791.895 574.742 792.033 576.004 791.372 576.892L791.336 576.94C790.974 577.424 790.586 577.965 790.205 578.507L789.06 580.145L786.782 583.457L782.259 590.121L782.249 590.135C781.457 591.304 779.867 591.607 778.699 590.815C777.531 590.022 777.227 588.432 778.019 587.265C778.044 587.228 778.075 587.185 778.101 587.15Z" fill="#FFA08A"/>
<path d="M779.718 588.36L785.267 584.95L788.059 583.26C789.002 582.698 789.922 582.146 790.934 581.58C791.951 581.011 793.235 581.374 793.804 582.39C794.347 583.361 794.04 584.578 793.124 585.18L793.084 585.206C792.244 585.756 791.346 586.379 790.47 586.988L787.828 588.846L782.557 592.608L782.542 592.62C781.392 593.44 779.796 593.173 778.976 592.024C778.156 590.874 778.422 589.278 779.572 588.458C779.617 588.425 779.669 588.39 779.718 588.36Z" fill="#FFA08A"/>
<path d="M889.685 896.362C894.553 896.042 898.76 899.729 899.08 904.598L900.363 924.114C900.683 928.983 896.996 933.189 892.127 933.509C887.259 933.829 883.053 930.142 882.733 925.273L881.449 905.757C881.129 900.888 884.816 896.682 889.685 896.362Z" fill="#FFA08A"/>
<path d="M802.8 894.822C807.56 895.895 810.548 900.623 809.475 905.383L805.173 924.463C804.1 929.223 799.372 932.211 794.612 931.138C789.853 930.065 786.864 925.337 787.937 920.578L792.238 901.498C793.311 896.737 798.04 893.749 802.8 894.822Z" fill="#FFA08A"/>
<path d="M861.592 576.79L864.375 603.832C857.923 614.971 845.259 609.164 843.188 603.995L843.714 578.765C847.441 572.379 854.732 570.229 861.592 576.79Z" fill="#FFA08A"/>
<path d="M857.854 695.998C857.319 700.439 856.631 704.856 855.938 709.273L854.844 715.89C854.466 718.092 854.08 720.295 853.681 722.495C852.09 731.296 850.345 740.073 848.485 748.831C844.791 766.352 839.928 783.69 836.074 801.186C835.123 805.561 834.165 809.936 833.35 814.333C832.956 816.534 832.658 818.75 832.413 820.975C832.166 823.199 831.994 825.435 831.787 827.665C831.412 832.132 830.864 836.571 829.918 840.948C828.956 845.322 827.987 849.695 826.974 854.062C824.958 862.796 822.833 871.513 820.569 880.207C818.292 888.9 815.902 897.575 813.184 906.198C811.012 913.089 803.665 916.914 796.774 914.742C791.164 912.974 787.589 907.758 787.625 902.169C787.692 893.128 788.086 884.138 788.593 875.167C789.114 866.197 789.774 857.249 790.542 848.319C790.922 843.852 791.344 839.393 791.775 834.935C792.221 830.48 793.065 826.087 794.082 821.721C794.571 819.536 795.095 817.355 795.544 815.163C795.995 812.972 796.393 810.771 796.696 808.556C797.273 804.122 797.708 799.664 798.147 795.208C799.863 777.374 800.569 759.383 802.444 741.575C803.368 732.669 804.407 723.781 805.601 714.917C805.898 712.701 806.208 710.487 806.525 708.274L807.52 701.641C808.219 697.225 808.923 692.811 809.781 688.42C812.356 675.22 825.145 666.608 838.344 669.184C850.928 671.64 859.332 683.469 857.854 695.998Z" fill="#000932"/>
<path d="M887.351 690.685C888.085 695.041 888.665 699.418 889.241 703.794L890.05 710.367C890.306 712.559 890.554 714.753 890.789 716.948C891.735 725.729 892.526 734.529 893.202 743.345C894.579 760.974 894.782 778.755 896 796.404C896.316 800.814 896.625 805.226 897.078 809.618C897.319 811.813 897.655 813.995 898.045 816.17C898.433 818.345 898.895 820.511 899.323 822.681C900.219 827.016 900.939 831.374 901.261 835.784C901.567 840.196 901.865 844.608 902.119 849.027C902.637 857.864 903.047 866.714 903.318 875.583C903.575 884.453 903.718 893.339 903.532 902.267C903.382 909.493 897.402 915.229 890.177 915.078C884.311 914.956 879.426 910.975 877.876 905.623C875.4 897.043 873.252 888.42 871.22 879.782C869.2 871.143 867.319 862.484 865.548 853.812C864.657 849.476 863.809 845.135 862.97 840.792C862.147 836.448 861.723 832.051 861.473 827.632C861.328 825.425 861.219 823.214 861.034 821.012C860.851 818.81 860.615 816.615 860.283 814.432C859.591 810.07 858.755 805.727 857.926 801.384C854.563 784.016 850.186 766.78 846.983 749.391C845.368 740.698 843.87 731.99 842.525 723.262C842.187 721.08 841.862 718.897 841.545 716.712L840.637 710.153C840.069 705.776 839.503 701.397 839.092 696.999C837.84 683.608 847.68 671.739 861.07 670.487C873.831 669.292 885.224 678.26 887.351 690.685Z" fill="#000932"/>
<path d="M804.672 708.087C805.675 673.581 818.797 678.7 818.996 666.535C819.586 630.359 802.784 597.969 838.003 596.911C843.759 596.738 869.337 600.181 874.649 600.828C881.836 601.703 882.574 602.938 883.299 610.593C883.981 617.802 883.898 619.57 881.561 626.423C878.555 635.234 878.855 651.92 879.912 662.976C881.693 681.59 893.341 702.332 893.341 702.332C884.556 720.326 825.627 728.663 804.672 708.087Z" fill="#EF487D"/>
<path d="M843.687 580.071L843.523 587.975C843.523 587.975 854.456 589.15 858.267 582.033L843.687 580.071Z" fill="#3B3348"/>
<path d="M893.762 616.509L900.26 727.002C900.578 732.405 896.455 737.042 891.052 737.36C885.847 737.666 881.35 733.823 880.743 728.713L867.917 618.775C867.087 611.655 872.184 605.212 879.303 604.381C886.422 603.55 892.866 608.648 893.697 615.767C893.724 616.001 893.748 616.276 893.762 616.509Z" fill="#FFA08A"/>
<path d="M894.926 615.671L898.046 647.087C898.843 655.099 892.993 662.239 884.981 663.035C877.238 663.804 870.304 658.327 869.129 650.731L864.359 619.523C863.073 611.11 868.85 603.247 877.264 601.962C885.676 600.676 893.539 606.453 894.824 614.866C894.863 615.117 894.9 615.42 894.926 615.671Z" fill="#EF487D"/>
<path d="M900.155 726.001C900.155 726.001 886.831 718.473 880.664 727.838L882.073 743.009L899.131 739.571C899.131 739.571 901.218 728.658 900.155 726.001Z" fill="#FFA08A"/>
<path d="M892.474 741.658L890.489 749.308L889.473 753.134L888.948 755.054L888.674 756.023C888.584 756.342 888.479 756.689 888.371 757.037C888.028 758.148 886.848 758.771 885.736 758.428C884.667 758.098 884.05 756.995 884.309 755.923L884.328 755.841C884.398 755.555 884.468 755.27 884.539 754.95L884.748 754.009L885.156 752.099L885.948 748.25L887.49 740.531L887.493 740.515C887.77 739.131 889.116 738.233 890.5 738.51C891.885 738.786 892.783 740.132 892.506 741.517C892.497 741.561 892.485 741.614 892.474 741.658Z" fill="#FFA08A"/>
<path d="M896.661 740.653L894.677 748.303L893.66 752.128L893.135 754.048L892.862 755.018C892.772 755.336 892.666 755.683 892.559 756.031C892.215 757.143 891.035 757.766 889.923 757.423C888.854 757.092 888.238 755.989 888.496 754.917L888.516 754.836C888.585 754.55 888.656 754.265 888.726 753.946L888.935 753.004L889.343 751.094L890.135 747.246L891.677 739.526L891.681 739.51C891.957 738.126 893.303 737.228 894.688 737.505C896.072 737.781 896.97 739.127 896.693 740.512C896.684 740.556 896.672 740.609 896.661 740.653Z" fill="#FFA08A"/>
<path d="M899.38 739.854L898.35 746.342L897.807 749.59L897.518 751.225C897.42 751.773 897.314 752.323 897.185 752.923C896.939 754.062 895.818 754.786 894.681 754.541C893.594 754.307 892.885 753.275 893.036 752.192L893.046 752.121C893.113 751.648 893.18 751.121 893.238 750.59L893.41 748.986L893.726 745.748L894.307 739.249L894.308 739.226C894.435 737.819 895.676 736.781 897.083 736.907C898.489 737.033 899.527 738.275 899.402 739.682C899.397 739.736 899.389 739.798 899.38 739.854Z" fill="#FFA08A"/>
<path d="M888.839 739.755L886.762 747.385L885.699 751.2L885.151 753.114L884.865 754.081C884.772 754.398 884.662 754.745 884.552 755.091C884.196 756.2 883.009 756.809 881.901 756.454C880.858 756.119 880.256 755.046 880.487 753.998L880.509 753.895L880.708 753.003L880.905 752.059L881.289 750.143L882.035 746.285L883.484 738.545L883.487 738.527C883.766 737.036 885.202 736.053 886.694 736.333C888.185 736.612 889.168 738.047 888.889 739.539C888.875 739.61 888.858 739.686 888.839 739.755Z" fill="#FFA08A"/>
<path d="M885.869 736.806L883.111 742.452L881.711 745.272C881.235 746.219 880.775 747.139 880.242 748.134C879.693 749.16 878.414 749.547 877.387 748.998C876.427 748.484 876.027 747.333 876.428 746.347L876.452 746.29C876.817 745.401 877.194 744.41 877.559 743.45L878.655 740.53L880.814 734.667L880.82 734.649C881.345 733.225 882.925 732.495 884.35 733.02C885.775 733.544 886.505 735.125 885.98 736.549C885.947 736.636 885.91 736.724 885.869 736.806Z" fill="#FFA08A"/>
<path d="M864.793 600.509C864.832 596.241 859.846 592.736 853.658 592.68C847.47 592.624 842.422 596.037 842.383 600.305C842.344 604.572 847.329 608.077 853.517 608.133C859.706 608.189 864.754 604.776 864.793 600.509Z" fill="#FFA08A"/>
<path d="M834.742 633.479C840.181 627.681 839.891 618.572 834.093 613.133C828.295 607.693 819.186 607.984 813.747 613.782C808.308 619.58 808.598 628.689 814.396 634.128C820.194 639.567 829.303 639.277 834.742 633.479Z" fill="#EF487D"/>
<path d="M832.517 565.305C833.695 577.807 841.184 586.878 848.909 586.564C858.247 586.185 868.383 572.657 867.206 560.154C866.028 547.652 855.834 540.269 846.529 541.146C837.225 542.023 831.339 552.803 832.517 565.305Z" fill="#FFA08A"/>
<path d="M850.047 559.517C850.047 559.517 851.765 557.037 854.151 556.812C856.538 556.587 858.69 558.703 858.69 558.703C858.69 558.703 856.972 561.183 854.585 561.408C852.199 561.633 850.047 559.517 850.047 559.517Z" fill="white"/>
<path d="M850.792 559.405C850.672 558.136 851.604 557.01 852.873 556.89C854.142 556.77 855.268 557.702 855.387 558.971C855.507 560.241 854.575 561.367 853.306 561.487C852.037 561.606 850.911 560.674 850.792 559.405Z" fill="#461F16"/>
<path d="M833.211 561.027C833.211 561.027 834.929 558.546 837.315 558.322C839.702 558.097 841.853 560.212 841.853 560.212C841.853 560.212 840.135 562.693 837.748 562.917C835.362 563.142 833.211 561.027 833.211 561.027Z" fill="white"/>
<path d="M834.268 560.626C834.148 559.356 835.081 558.23 836.35 558.11C837.619 557.991 838.745 558.923 838.864 560.192C838.983 561.461 838.051 562.587 836.782 562.706C835.513 562.827 834.387 561.895 834.268 560.626Z" fill="#461F16"/>
<path d="M846.181 571.584C845.579 571.584 845 571.342 844.577 570.909C844.126 570.448 843.895 569.815 843.944 569.172L844.489 560.162C844.5 559.983 844.654 559.854 844.832 559.858C845.011 559.869 845.146 560.022 845.136 560.201L844.591 569.216C844.557 569.678 844.72 570.127 845.041 570.455C845.361 570.782 845.805 570.959 846.265 570.932C846.444 570.92 846.597 571.061 846.606 571.239C846.616 571.418 846.479 571.571 846.3 571.58C846.26 571.583 846.22 571.584 846.181 571.584Z" fill="#461F16"/>
<path d="M849.65 574.833C849.701 576.731 848.203 578.312 846.303 578.363C844.405 578.413 842.824 576.915 842.773 575.016L849.65 574.833Z" fill="white"/>
<path d="M844.91 535.978C829.285 537.921 831.445 553.896 831.445 553.896C834.287 554.391 839.17 554.295 842.216 554.177C848.662 553.929 854.649 552.255 859.752 549.54C859.752 549.54 861.14 533.96 844.91 535.978Z" fill="#000932"/>
<path d="M873.241 558.172C879.092 555.826 881.933 549.18 879.587 543.329C877.24 537.477 870.594 534.636 864.743 536.983C858.892 539.329 856.051 545.975 858.397 551.826C860.744 557.678 867.39 560.519 873.241 558.172Z" fill="#000932"/>
<path d="M866.312 566.513C866.15 566.513 865.987 566.453 865.862 566.33C865.605 566.082 865.597 565.672 865.846 565.415C865.869 565.391 867.02 564.156 866.834 562.621C866.792 562.265 867.045 561.942 867.4 561.899C867.761 561.858 868.079 562.109 868.123 562.465C868.385 564.632 866.845 566.248 866.779 566.316C866.651 566.448 866.482 566.513 866.312 566.513Z" fill="#461F16"/>
<path d="M851.415 556.021C851.186 556.021 850.963 555.899 850.845 555.683C850.673 555.369 850.789 554.975 851.104 554.803C852.637 553.965 853.919 553.422 856.481 554.077C856.828 554.166 857.038 554.519 856.949 554.867C856.861 555.214 856.509 555.425 856.16 555.334C854.005 554.784 853.071 555.206 851.725 555.941C851.627 555.996 851.52 556.021 851.415 556.021Z" fill="#461F16"/>
<path d="M835.008 557.508C834.753 557.508 834.512 557.358 834.409 557.108C834.272 556.777 834.429 556.397 834.76 556.26C837.075 555.301 838.319 555.478 840.092 555.883C840.441 555.963 840.66 556.311 840.58 556.66C840.5 557.009 840.151 557.227 839.803 557.148C838.196 556.78 837.263 556.627 835.257 557.458C835.175 557.492 835.091 557.508 835.008 557.508Z" fill="#461F16"/>
<path opacity="0.5" d="M859.486 568.364C859.715 570.799 857.927 572.959 855.493 573.188C853.057 573.418 850.898 571.63 850.668 569.195C850.439 566.76 852.227 564.6 854.662 564.371C857.096 564.141 859.256 565.929 859.486 568.364Z" fill="#FF7D90"/>
<path opacity="0.5" d="M842.828 569.759C843.035 571.952 841.424 573.898 839.231 574.104C837.037 574.311 835.092 572.7 834.885 570.507C834.678 568.314 836.289 566.368 838.483 566.161C840.676 565.955 842.622 567.565 842.828 569.759Z" fill="#FF7D90"/>
<path d="M762.094 941.809V944.899H809.098V942.04L762.094 941.809Z" fill="#000932"/>
<path d="M762.094 945.112C762.094 947.077 772.616 948.67 785.596 948.67C798.575 948.67 809.098 947.077 809.098 945.112C809.098 943.147 798.576 941.554 785.596 941.554C772.615 941.554 762.094 943.147 762.094 945.112Z" fill="#000932"/>
<path d="M805.53 922.427L809.097 941.553L763.336 940.629C763.336 940.629 769.512 938.568 777.111 933.367C781.868 930.111 784.008 923.973 787.133 919.168L805.53 922.427Z" fill="#CCE3F5"/>
<path d="M762.094 941.809C762.094 943.774 772.616 945.367 785.596 945.367C798.575 945.367 809.098 943.774 809.098 941.809C809.098 939.844 798.576 938.251 785.596 938.251C772.615 938.251 762.094 939.844 762.094 941.809Z" fill="#CCE3F5"/>
<path d="M787.894 932.9C783.497 932.9 780.975 929.374 780.87 929.224C780.715 929.004 780.769 928.7 780.989 928.546C781.209 928.392 781.511 928.444 781.666 928.665C781.697 928.708 784.019 931.927 787.894 931.927C788.163 931.927 788.381 932.144 788.381 932.413C788.381 932.682 788.163 932.9 787.894 932.9Z" fill="white"/>
<path d="M785.051 935.799C780.654 935.799 778.131 932.273 778.026 932.123C777.871 931.903 777.925 931.6 778.145 931.446C778.365 931.292 778.668 931.344 778.822 931.565C778.853 931.608 781.175 934.827 785.051 934.827C785.319 934.827 785.537 935.044 785.537 935.313C785.537 935.581 785.319 935.799 785.051 935.799Z" fill="white"/>
<path d="M791.787 927.769C794.863 927.769 797.356 925.276 797.356 922.201C797.356 919.125 794.863 916.632 791.787 916.632C788.712 916.632 786.219 919.125 786.219 922.201C786.219 925.276 788.712 927.769 791.787 927.769Z" fill="#CCE3F5"/>
<path d="M904.402 941.91V944.91L864.344 944.648L864.297 941.91H904.402Z" fill="#000932"/>
<path d="M884.99 948.765C896.065 948.765 905.043 947.041 905.043 944.914C905.043 942.787 896.065 941.062 884.99 941.062C873.915 941.062 864.938 942.787 864.938 944.914C864.938 947.041 873.915 948.765 884.99 948.765Z" fill="#000932"/>
<path d="M900.435 921.618L905.043 941.913H864.938C864.938 941.913 878.425 936.949 880.923 919.865L900.435 921.618Z" fill="#CCE3F5"/>
<path d="M905.043 941.914C905.043 944.041 896.065 945.765 884.99 945.765C873.915 945.765 864.938 944.041 864.938 941.914C864.938 939.787 873.915 938.063 884.99 938.063C896.065 938.063 905.043 939.787 905.043 941.914Z" fill="#CCE3F5"/>
<path d="M890.295 932.949C890.207 932.949 890.118 932.926 890.037 932.875C886.646 930.754 882.878 932.306 882.84 932.322C882.592 932.427 882.308 932.31 882.203 932.063C882.098 931.816 882.214 931.53 882.461 931.425C882.634 931.352 886.737 929.662 890.553 932.051C890.781 932.193 890.849 932.493 890.707 932.721C890.615 932.869 890.457 932.949 890.295 932.949Z" fill="white"/>
<path d="M887.466 936.346C887.378 936.346 887.288 936.322 887.208 936.272C883.816 934.15 880.049 935.703 880.012 935.718C879.764 935.822 879.479 935.707 879.374 935.46C879.27 935.212 879.385 934.927 879.633 934.822C879.806 934.749 883.908 933.059 887.724 935.446C887.952 935.589 888.021 935.889 887.879 936.117C887.787 936.265 887.628 936.346 887.466 936.346Z" fill="white"/>
<path d="M886.271 927.573C889.423 927.573 891.979 925.018 891.979 921.865C891.979 918.713 889.423 916.157 886.271 916.157C883.118 916.157 880.562 918.713 880.562 921.865C880.562 925.018 883.118 927.573 886.271 927.573Z" fill="#CCE3F5"/>
<path d="M850.348 532.361C850.325 532.361 850.302 532.359 850.278 532.353C850.103 532.314 849.993 532.142 850.031 531.967C850.051 531.877 852.08 522.997 858.884 522.408C859.066 522.388 859.22 522.525 859.235 522.703C859.251 522.881 859.118 523.038 858.94 523.054C852.606 523.602 850.683 532.021 850.664 532.106C850.631 532.258 850.497 532.361 850.348 532.361Z" fill="#000932"/>
<path d="M851.145 532.311C851.084 532.311 851.023 532.294 850.967 532.258C850.818 532.16 850.775 531.959 850.873 531.81C851.004 531.61 854.121 526.925 859.171 526.776C859.174 526.776 859.177 526.776 859.18 526.776C859.355 526.776 859.499 526.915 859.504 527.091C859.509 527.27 859.369 527.42 859.19 527.424C854.475 527.562 851.447 532.118 851.416 532.164C851.354 532.26 851.25 532.311 851.145 532.311Z" fill="#000932"/>
<path d="M906.328 634.323C906.26 634.323 906.191 634.302 906.132 634.257C905.99 634.149 905.962 633.945 906.07 633.803C906.11 633.751 910.07 628.489 912.671 621.453C915.056 614.999 916.752 605.682 911.285 597.949C905.067 589.154 893.794 588.686 893.682 588.682L893.291 588.669L893.375 588.288C893.413 588.118 897.129 571.094 893.954 559.38C890.798 547.737 879.174 542.656 879.056 542.606C878.892 542.536 878.815 542.345 878.885 542.18C878.956 542.016 879.148 541.939 879.311 542.009C879.431 542.06 891.343 547.267 894.58 559.211C897.535 570.112 894.612 585.49 894.086 588.06C896.154 588.228 906.068 589.447 911.814 597.575C916.274 603.881 916.778 612.222 913.273 621.693C910.638 628.815 906.627 634.142 906.587 634.195C906.523 634.279 906.426 634.323 906.328 634.323Z" fill="#000932"/>
<path d="M785.702 609.015C785.25 609.015 784.794 608.981 784.335 608.91C782.551 608.635 773.544 606.549 771.363 592.37C770.614 587.502 773.953 582.949 778.821 582.2C783.692 581.452 788.243 584.79 788.992 589.658C789.181 590.891 789.43 591.654 789.608 592.08C793.024 593.749 795.113 597.496 794.505 601.451C793.827 605.859 790.029 609.015 785.702 609.015ZM787.047 591.28C787.048 591.28 787.052 591.281 787.054 591.282C787.052 591.281 787.049 591.281 787.047 591.28Z" fill="#FFA08A"/>
<path d="M87.3535 73.9395V90.5508C86.7285 91.3516 85.7422 92.2207 84.3945 93.1582C83.0664 94.0957 81.3281 94.9062 79.1797 95.5898C77.0312 96.2539 74.3945 96.5859 71.2695 96.5859C68.5547 96.5859 66.0742 96.1367 63.8281 95.2383C61.582 94.3203 59.6484 92.9824 58.0273 91.2246C56.4062 89.4668 55.1562 87.3184 54.2773 84.7793C53.3984 82.2402 52.959 79.3398 52.959 76.0781V73.2656C52.959 70.0039 53.3691 67.1035 54.1895 64.5645C55.0293 62.0254 56.2207 59.877 57.7637 58.1191C59.3262 56.3613 61.1914 55.0234 63.3594 54.1055C65.5469 53.1875 67.9883 52.7285 70.6836 52.7285C74.2969 52.7285 77.2656 53.3242 79.5898 54.5156C81.9336 55.707 83.7305 57.3477 84.9805 59.4375C86.2305 61.5078 87.0117 63.8906 87.3242 66.5859H79.4727C79.2578 65.1016 78.8281 63.8027 78.1836 62.6895C77.5391 61.5566 76.6211 60.6777 75.4297 60.0527C74.2578 59.4082 72.7344 59.0859 70.8594 59.0859C69.2773 59.0859 67.8809 59.3984 66.6699 60.0234C65.459 60.6484 64.4434 61.5566 63.623 62.748C62.8027 63.9395 62.1777 65.4141 61.748 67.1719C61.3379 68.9297 61.1328 70.9414 61.1328 73.207V76.0781C61.1328 78.3633 61.3672 80.3945 61.8359 82.1719C62.3047 83.9297 62.9785 85.4141 63.8574 86.625C64.7559 87.8164 65.8594 88.7246 67.168 89.3496C68.4961 89.9551 70 90.2578 71.6797 90.2578C73.2031 90.2578 74.4629 90.1309 75.459 89.877C76.4746 89.6035 77.2852 89.2812 77.8906 88.9102C78.4961 88.5391 78.9648 88.1777 79.2969 87.8262V79.8281H70.8301V73.9395H87.3535ZM108.623 96.5859C106.221 96.5859 104.062 96.1953 102.148 95.4141C100.234 94.6328 98.6035 93.5488 97.2559 92.1621C95.9277 90.7559 94.9023 89.125 94.1797 87.2695C93.4766 85.3945 93.125 83.3828 93.125 81.2344V80.0625C93.125 77.6211 93.4766 75.4043 94.1797 73.4121C94.8828 71.4004 95.8789 69.6719 97.168 68.2266C98.457 66.7812 100 65.668 101.797 64.8867C103.594 64.1055 105.576 63.7148 107.744 63.7148C109.99 63.7148 111.973 64.0957 113.691 64.8574C115.41 65.5996 116.846 66.6543 117.998 68.0215C119.15 69.3887 120.02 71.0293 120.605 72.9434C121.191 74.8379 121.484 76.9375 121.484 79.2422V82.4941H96.6406V77.1621H113.867V76.5762C113.828 75.3457 113.594 74.2227 113.164 73.207C112.734 72.1719 112.07 71.3516 111.172 70.7461C110.273 70.1211 109.111 69.8086 107.686 69.8086C106.533 69.8086 105.527 70.0625 104.668 70.5703C103.828 71.0586 103.125 71.7617 102.559 72.6797C102.012 73.5781 101.602 74.6523 101.328 75.9023C101.055 77.1523 100.918 78.5391 100.918 80.0625V81.2344C100.918 82.5625 101.094 83.793 101.445 84.9258C101.816 86.0586 102.354 87.0449 103.057 87.8848C103.779 88.7051 104.639 89.3496 105.635 89.8184C106.65 90.2676 107.803 90.4922 109.092 90.4922C110.713 90.4922 112.178 90.1797 113.486 89.5547C114.814 88.9102 115.967 87.9629 116.943 86.7129L120.84 90.7559C120.176 91.7324 119.277 92.6699 118.145 93.5684C117.031 94.4668 115.684 95.1992 114.102 95.7656C112.52 96.3125 110.693 96.5859 108.623 96.5859ZM141.67 64.3008V69.8672H123.506V64.3008H141.67ZM128.369 56.5078H136.133V86.8594C136.133 87.7969 136.26 88.5195 136.514 89.0273C136.768 89.5352 137.148 89.877 137.656 90.0527C138.164 90.2285 138.77 90.3164 139.473 90.3164C139.98 90.3164 140.449 90.2871 140.879 90.2285C141.309 90.1699 141.67 90.1113 141.963 90.0527L141.992 95.8535C141.348 96.0684 140.615 96.2441 139.795 96.3809C138.994 96.5176 138.086 96.5859 137.07 96.5859C135.332 96.5859 133.809 96.293 132.5 95.707C131.191 95.1016 130.176 94.1348 129.453 92.8066C128.73 91.459 128.369 89.6816 128.369 87.4746V56.5078ZM196.895 73.5879V75.7852C196.895 79.0078 196.465 81.9082 195.605 84.4863C194.746 87.0449 193.525 89.2227 191.943 91.0195C190.361 92.8164 188.477 94.1934 186.289 95.1504C184.102 96.1074 181.67 96.5859 178.994 96.5859C176.357 96.5859 173.936 96.1074 171.729 95.1504C169.541 94.1934 167.646 92.8164 166.045 91.0195C164.443 89.2227 163.203 87.0449 162.324 84.4863C161.445 81.9082 161.006 79.0078 161.006 75.7852V73.5879C161.006 70.3457 161.445 67.4453 162.324 64.8867C163.203 62.3281 164.434 60.1504 166.016 58.3535C167.598 56.5371 169.482 55.1504 171.67 54.1934C173.877 53.2363 176.299 52.7578 178.936 52.7578C181.611 52.7578 184.043 53.2363 186.23 54.1934C188.418 55.1504 190.303 56.5371 191.885 58.3535C193.486 60.1504 194.717 62.3281 195.576 64.8867C196.455 67.4453 196.895 70.3457 196.895 73.5879ZM188.75 75.7852V73.5293C188.75 71.2051 188.535 69.1641 188.105 67.4062C187.676 65.6289 187.041 64.1348 186.201 62.9238C185.361 61.7129 184.326 60.8047 183.096 60.1992C181.865 59.5742 180.479 59.2617 178.936 59.2617C177.373 59.2617 175.986 59.5742 174.775 60.1992C173.584 60.8047 172.568 61.7129 171.729 62.9238C170.889 64.1348 170.244 65.6289 169.795 67.4062C169.365 69.1641 169.15 71.2051 169.15 73.5293V75.7852C169.15 78.0898 169.365 80.1309 169.795 81.9082C170.244 83.6855 170.889 85.1895 171.729 86.4199C172.588 87.6309 173.623 88.5488 174.834 89.1738C176.045 89.7988 177.432 90.1113 178.994 90.1113C180.557 90.1113 181.943 89.7988 183.154 89.1738C184.365 88.5488 185.381 87.6309 186.201 86.4199C187.041 85.1895 187.676 83.6855 188.105 81.9082C188.535 80.1309 188.75 78.0898 188.75 75.7852ZM210.723 71.0684V96H202.988V64.3008H210.254L210.723 71.0684ZM209.492 79.0078H207.207C207.227 76.7031 207.539 74.6133 208.145 72.7383C208.75 70.8633 209.6 69.252 210.693 67.9043C211.807 66.5566 213.125 65.5215 214.648 64.7988C216.172 64.0762 217.871 63.7148 219.746 63.7148C221.27 63.7148 222.646 63.9297 223.877 64.3594C225.107 64.7891 226.162 65.4727 227.041 66.4102C227.939 67.3477 228.623 68.5781 229.092 70.1016C229.58 71.6055 229.824 73.4609 229.824 75.668V96H222.031V75.6094C222.031 74.1641 221.816 73.0215 221.387 72.1816C220.977 71.3418 220.371 70.7461 219.57 70.3945C218.789 70.043 217.822 69.8672 216.67 69.8672C215.479 69.8672 214.434 70.1113 213.535 70.5996C212.656 71.0684 211.914 71.7227 211.309 72.5625C210.723 73.4023 210.273 74.3691 209.961 75.4629C209.648 76.5566 209.492 77.7383 209.492 79.0078ZM244.854 51V96H237.09V51H244.854ZM260.439 64.3008V96H252.676V64.3008H260.439ZM252.148 56.0098C252.148 54.8574 252.539 53.9004 253.32 53.1387C254.121 52.377 255.195 51.9961 256.543 51.9961C257.891 51.9961 258.955 52.377 259.736 53.1387C260.537 53.9004 260.938 54.8574 260.938 56.0098C260.938 57.1426 260.537 58.0898 259.736 58.8516C258.955 59.6133 257.891 59.9941 256.543 59.9941C255.195 59.9941 254.121 59.6133 253.32 58.8516C252.539 58.0898 252.148 57.1426 252.148 56.0098ZM275.41 71.0684V96H267.676V64.3008H274.941L275.41 71.0684ZM274.18 79.0078H271.895C271.914 76.7031 272.227 74.6133 272.832 72.7383C273.438 70.8633 274.287 69.252 275.381 67.9043C276.494 66.5566 277.812 65.5215 279.336 64.7988C280.859 64.0762 282.559 63.7148 284.434 63.7148C285.957 63.7148 287.334 63.9297 288.564 64.3594C289.795 64.7891 290.85 65.4727 291.729 66.4102C292.627 67.3477 293.311 68.5781 293.779 70.1016C294.268 71.6055 294.512 73.4609 294.512 75.668V96H286.719V75.6094C286.719 74.1641 286.504 73.0215 286.074 72.1816C285.664 71.3418 285.059 70.7461 284.258 70.3945C283.477 70.043 282.51 69.8672 281.357 69.8672C280.166 69.8672 279.121 70.1113 278.223 70.5996C277.344 71.0684 276.602 71.7227 275.996 72.5625C275.41 73.4023 274.961 74.3691 274.648 75.4629C274.336 76.5566 274.18 77.7383 274.18 79.0078ZM315.576 96.5859C313.174 96.5859 311.016 96.1953 309.102 95.4141C307.188 94.6328 305.557 93.5488 304.209 92.1621C302.881 90.7559 301.855 89.125 301.133 87.2695C300.43 85.3945 300.078 83.3828 300.078 81.2344V80.0625C300.078 77.6211 300.43 75.4043 301.133 73.4121C301.836 71.4004 302.832 69.6719 304.121 68.2266C305.41 66.7812 306.953 65.668 308.75 64.8867C310.547 64.1055 312.529 63.7148 314.697 63.7148C316.943 63.7148 318.926 64.0957 320.645 64.8574C322.363 65.5996 323.799 66.6543 324.951 68.0215C326.104 69.3887 326.973 71.0293 327.559 72.9434C328.145 74.8379 328.438 76.9375 328.438 79.2422V82.4941H303.594V77.1621H320.82V76.5762C320.781 75.3457 320.547 74.2227 320.117 73.207C319.688 72.1719 319.023 71.3516 318.125 70.7461C317.227 70.1211 316.064 69.8086 314.639 69.8086C313.486 69.8086 312.48 70.0625 311.621 70.5703C310.781 71.0586 310.078 71.7617 309.512 72.6797C308.965 73.5781 308.555 74.6523 308.281 75.9023C308.008 77.1523 307.871 78.5391 307.871 80.0625V81.2344C307.871 82.5625 308.047 83.793 308.398 84.9258C308.77 86.0586 309.307 87.0449 310.01 87.8848C310.732 88.7051 311.592 89.3496 312.588 89.8184C313.604 90.2676 314.756 90.4922 316.045 90.4922C317.666 90.4922 319.131 90.1797 320.439 89.5547C321.768 88.9102 322.92 87.9629 323.896 86.7129L327.793 90.7559C327.129 91.7324 326.23 92.6699 325.098 93.5684C323.984 94.4668 322.637 95.1992 321.055 95.7656C319.473 96.3125 317.646 96.5859 315.576 96.5859ZM851.123 53.3438V96H843.037L824.902 66.4102V96H816.846V53.3438H824.902L843.096 82.9629V53.3438H851.123ZM857.363 80.4727V79.8574C857.363 77.5332 857.695 75.3945 858.359 73.4414C859.023 71.4688 859.99 69.7598 861.26 68.3145C862.529 66.8691 864.082 65.7461 865.918 64.9453C867.754 64.125 869.844 63.7148 872.188 63.7148C874.57 63.7148 876.68 64.125 878.516 64.9453C880.371 65.7461 881.934 66.8691 883.203 68.3145C884.473 69.7598 885.439 71.4688 886.104 73.4414C886.768 75.3945 887.1 77.5332 887.1 79.8574V80.4727C887.1 82.7773 886.768 84.916 886.104 86.8887C885.439 88.8418 884.473 90.5508 883.203 92.0156C881.934 93.4609 880.381 94.584 878.545 95.3848C876.709 96.1855 874.609 96.5859 872.246 96.5859C869.902 96.5859 867.803 96.1855 865.947 95.3848C864.092 94.584 862.529 93.4609 861.26 92.0156C859.99 90.5508 859.023 88.8418 858.359 86.8887C857.695 84.916 857.363 82.7773 857.363 80.4727ZM865.098 79.8574V80.4727C865.098 81.8594 865.234 83.1582 865.508 84.3691C865.781 85.5801 866.201 86.6445 866.768 87.5625C867.334 88.4805 868.066 89.2031 868.965 89.7305C869.883 90.2383 870.977 90.4922 872.246 90.4922C873.496 90.4922 874.57 90.2383 875.469 89.7305C876.367 89.2031 877.1 88.4805 877.666 87.5625C878.252 86.6445 878.682 85.5801 878.955 84.3691C879.229 83.1582 879.365 81.8594 879.365 80.4727V79.8574C879.365 78.4902 879.229 77.2109 878.955 76.0195C878.682 74.8086 878.252 73.7441 877.666 72.8262C877.1 71.8887 876.357 71.1562 875.439 70.6289C874.541 70.082 873.457 69.8086 872.188 69.8086C870.938 69.8086 869.863 70.082 868.965 70.6289C868.066 71.1562 867.334 71.8887 866.768 72.8262C866.201 73.7441 865.781 74.8086 865.508 76.0195C865.234 77.2109 865.098 78.4902 865.098 79.8574ZM901.543 88.3828L908.486 64.3008H913.408L911.943 72.6211L904.941 96H900.693L901.543 88.3828ZM897.705 64.3008L902.92 88.4414L903.389 96H898.496L890.176 64.3008H897.705ZM919.854 88.0898L924.951 64.3008H932.451L924.189 96H919.297L919.854 88.0898ZM914.17 64.3008L921.055 88.1484L921.963 96H917.715L910.654 72.6211L909.219 64.3008H914.17ZM945.84 53.3438L944.99 83.1973H938.457L937.607 53.3438H945.84ZM937.373 92.3965C937.373 91.2441 937.764 90.2773 938.545 89.4961C939.346 88.6953 940.42 88.2949 941.768 88.2949C943.115 88.2949 944.18 88.6953 944.961 89.4961C945.762 90.2773 946.162 91.2441 946.162 92.3965C946.162 93.5293 945.762 94.4863 944.961 95.2676C944.18 96.0488 943.115 96.4395 941.768 96.4395C940.42 96.4395 939.346 96.0488 938.545 95.2676C937.764 94.4863 937.373 93.5293 937.373 92.3965Z" fill="#1C4670"/>
<path d="M377.422 89.6719V96H354.746V89.6719H377.422ZM357.207 53.3438V96H349.15V53.3438H357.207ZM374.463 70.9512V77.1328H354.746V70.9512H374.463ZM377.334 53.3438V59.7012H354.746V53.3438H377.334ZM399.424 80.4434H388.438V74.1152H399.424C401.221 74.1152 402.676 73.8223 403.789 73.2363C404.922 72.6309 405.752 71.8105 406.279 70.7754C406.807 69.7207 407.07 68.5195 407.07 67.1719C407.07 65.8633 406.807 64.6426 406.279 63.5098C405.752 62.377 404.922 61.459 403.789 60.7559C402.676 60.0527 401.221 59.7012 399.424 59.7012H391.074V96H383.018V53.3438H399.424C402.744 53.3438 405.576 53.9395 407.92 55.1309C410.283 56.3027 412.08 57.9336 413.311 60.0234C414.561 62.0938 415.186 64.457 415.186 67.1133C415.186 69.8672 414.561 72.2402 413.311 74.2324C412.08 76.2246 410.283 77.7578 407.92 78.832C405.576 79.9062 402.744 80.4434 399.424 80.4434ZM421.514 53.3438H437.012C440.254 53.3438 443.037 53.832 445.361 54.8086C447.686 55.7852 449.473 57.2305 450.723 59.1445C451.973 61.0586 452.598 63.4121 452.598 66.2051C452.598 68.4121 452.207 70.3262 451.426 71.9473C450.645 73.5684 449.541 74.9258 448.115 76.0195C446.709 77.1133 445.049 77.9727 443.135 78.5977L440.615 79.8867H426.934L426.875 73.5293H437.1C438.76 73.5293 440.137 73.2363 441.23 72.6504C442.324 72.0645 443.145 71.2539 443.691 70.2188C444.258 69.1836 444.541 68.002 444.541 66.6738C444.541 65.248 444.268 64.0176 443.721 62.9824C443.174 61.9277 442.344 61.1172 441.23 60.5508C440.117 59.9844 438.711 59.7012 437.012 59.7012H429.57V96H421.514V53.3438ZM445.596 96L435.723 76.8984L444.248 76.8691L454.238 95.5898V96H445.596ZM474.6 53.3438H490.098C493.34 53.3438 496.123 53.832 498.447 54.8086C500.771 55.7852 502.559 57.2305 503.809 59.1445C505.059 61.0586 505.684 63.4121 505.684 66.2051C505.684 68.4121 505.293 70.3262 504.512 71.9473C503.73 73.5684 502.627 74.9258 501.201 76.0195C499.795 77.1133 498.135 77.9727 496.221 78.5977L493.701 79.8867H480.02L479.961 73.5293H490.186C491.846 73.5293 493.223 73.2363 494.316 72.6504C495.41 72.0645 496.23 71.2539 496.777 70.2188C497.344 69.1836 497.627 68.002 497.627 66.6738C497.627 65.248 497.354 64.0176 496.807 62.9824C496.26 61.9277 495.43 61.1172 494.316 60.5508C493.203 59.9844 491.797 59.7012 490.098 59.7012H482.656V96H474.6V53.3438ZM498.682 96L488.809 76.8984L497.334 76.8691L507.324 95.5898V96H498.682ZM526.396 96.5859C523.994 96.5859 521.836 96.1953 519.922 95.4141C518.008 94.6328 516.377 93.5488 515.029 92.1621C513.701 90.7559 512.676 89.125 511.953 87.2695C511.25 85.3945 510.898 83.3828 510.898 81.2344V80.0625C510.898 77.6211 511.25 75.4043 511.953 73.4121C512.656 71.4004 513.652 69.6719 514.941 68.2266C516.23 66.7812 517.773 65.668 519.57 64.8867C521.367 64.1055 523.35 63.7148 525.518 63.7148C527.764 63.7148 529.746 64.0957 531.465 64.8574C533.184 65.5996 534.619 66.6543 535.771 68.0215C536.924 69.3887 537.793 71.0293 538.379 72.9434C538.965 74.8379 539.258 76.9375 539.258 79.2422V82.4941H514.414V77.1621H531.641V76.5762C531.602 75.3457 531.367 74.2227 530.938 73.207C530.508 72.1719 529.844 71.3516 528.945 70.7461C528.047 70.1211 526.885 69.8086 525.459 69.8086C524.307 69.8086 523.301 70.0625 522.441 70.5703C521.602 71.0586 520.898 71.7617 520.332 72.6797C519.785 73.5781 519.375 74.6523 519.102 75.9023C518.828 77.1523 518.691 78.5391 518.691 80.0625V81.2344C518.691 82.5625 518.867 83.793 519.219 84.9258C519.59 86.0586 520.127 87.0449 520.83 87.8848C521.553 88.7051 522.412 89.3496 523.408 89.8184C524.424 90.2676 525.576 90.4922 526.865 90.4922C528.486 90.4922 529.951 90.1797 531.26 89.5547C532.588 88.9102 533.74 87.9629 534.717 86.7129L538.613 90.7559C537.949 91.7324 537.051 92.6699 535.918 93.5684C534.805 94.4668 533.457 95.1992 531.875 95.7656C530.293 96.3125 528.467 96.5859 526.396 96.5859ZM564.6 64.3008H571.631V95.0332C571.631 97.9043 571.006 100.336 569.756 102.328C568.525 104.34 566.797 105.863 564.57 106.898C562.344 107.953 559.756 108.48 556.807 108.48C555.537 108.48 554.16 108.305 552.676 107.953C551.211 107.602 549.795 107.045 548.428 106.283C547.08 105.541 545.957 104.574 545.059 103.383L548.545 98.8125C549.6 100.043 550.791 100.971 552.119 101.596C553.447 102.24 554.883 102.562 556.426 102.562C557.988 102.562 559.316 102.27 560.41 101.684C561.523 101.117 562.373 100.277 562.959 99.1641C563.564 98.0703 563.867 96.7227 563.867 95.1211V71.5371L564.6 64.3008ZM543.184 80.5312V79.916C543.184 77.4941 543.477 75.2969 544.062 73.3242C544.648 71.332 545.488 69.623 546.582 68.1973C547.695 66.7715 549.033 65.668 550.596 64.8867C552.178 64.1055 553.955 63.7148 555.928 63.7148C558.018 63.7148 559.775 64.0957 561.201 64.8574C562.646 65.6191 563.838 66.7031 564.775 68.1094C565.732 69.5156 566.475 71.1855 567.002 73.1191C567.549 75.0332 567.969 77.1426 568.262 79.4473V81.1172C567.988 83.3633 567.549 85.4238 566.943 87.2988C566.357 89.1738 565.576 90.8145 564.6 92.2207C563.623 93.6074 562.412 94.6816 560.967 95.4434C559.521 96.2051 557.822 96.5859 555.869 96.5859C553.916 96.5859 552.158 96.1855 550.596 95.3848C549.033 94.584 547.695 93.4609 546.582 92.0156C545.488 90.5703 544.648 88.8711 544.062 86.918C543.477 84.9648 543.184 82.8359 543.184 80.5312ZM550.918 79.916V80.5312C550.918 81.8984 551.055 83.1777 551.328 84.3691C551.602 85.5605 552.021 86.6152 552.588 87.5332C553.154 88.4316 553.867 89.1348 554.727 89.6426C555.586 90.1504 556.611 90.4043 557.803 90.4043C559.404 90.4043 560.713 90.0723 561.729 89.4082C562.764 88.7246 563.545 87.7969 564.072 86.625C564.619 85.4336 564.971 84.0957 565.127 82.6113V78.0117C565.029 76.8398 564.814 75.7559 564.482 74.7598C564.17 73.7637 563.73 72.9043 563.164 72.1816C562.598 71.459 561.875 70.8926 560.996 70.4824C560.117 70.0723 559.072 69.8672 557.861 69.8672C556.689 69.8672 555.664 70.1309 554.785 70.6582C553.906 71.166 553.184 71.8789 552.617 72.7969C552.051 73.7148 551.621 74.7793 551.328 75.9902C551.055 77.2012 550.918 78.5098 550.918 79.916ZM586.807 64.3008V96H579.043V64.3008H586.807ZM578.516 56.0098C578.516 54.8574 578.906 53.9004 579.688 53.1387C580.488 52.377 581.562 51.9961 582.91 51.9961C584.258 51.9961 585.322 52.377 586.104 53.1387C586.904 53.9004 587.305 54.8574 587.305 56.0098C587.305 57.1426 586.904 58.0898 586.104 58.8516C585.322 59.6133 584.258 59.9941 582.91 59.9941C581.562 59.9941 580.488 59.6133 579.688 58.8516C578.906 58.0898 578.516 57.1426 578.516 56.0098ZM611.621 87.3281C611.621 86.6641 611.445 86.0684 611.094 85.541C610.742 85.0137 610.078 84.5352 609.102 84.1055C608.145 83.6562 606.738 83.2363 604.883 82.8457C603.242 82.4941 601.729 82.0547 600.342 81.5273C598.955 81 597.764 80.3652 596.768 79.623C595.771 78.8613 594.99 77.9727 594.424 76.957C593.877 75.9219 593.604 74.7305 593.604 73.3828C593.604 72.0742 593.887 70.8438 594.453 69.6914C595.02 68.5195 595.84 67.4941 596.914 66.6152C597.988 65.7168 599.297 65.0137 600.84 64.5059C602.383 63.9785 604.121 63.7148 606.055 63.7148C608.75 63.7148 611.064 64.1543 612.998 65.0332C614.951 65.9121 616.445 67.123 617.48 68.666C618.516 70.1895 619.033 71.9082 619.033 73.8223H611.299C611.299 72.9824 611.104 72.2207 610.713 71.5371C610.342 70.8535 609.766 70.3066 608.984 69.8965C608.203 69.4668 607.217 69.252 606.025 69.252C604.951 69.252 604.043 69.4277 603.301 69.7793C602.578 70.1309 602.031 70.5898 601.66 71.1562C601.289 71.7227 601.104 72.3477 601.104 73.0312C601.104 73.5391 601.201 73.998 601.396 74.4082C601.611 74.7988 601.953 75.1602 602.422 75.4922C602.891 75.8242 603.525 76.127 604.326 76.4004C605.146 76.6738 606.152 76.9375 607.344 77.1914C609.707 77.6602 611.768 78.2852 613.525 79.0664C615.303 79.8281 616.689 80.8438 617.686 82.1133C618.682 83.3828 619.18 85.0039 619.18 86.9766C619.18 88.3828 618.877 89.6719 618.271 90.8438C617.666 91.9961 616.787 93.002 615.635 93.8613C614.482 94.7207 613.105 95.3945 611.504 95.8828C609.902 96.3516 608.096 96.5859 606.084 96.5859C603.174 96.5859 600.713 96.0684 598.701 95.0332C596.689 93.9785 595.166 92.6504 594.131 91.0488C593.096 89.4277 592.578 87.748 592.578 86.0098H599.99C600.049 87.2402 600.381 88.2266 600.986 88.9688C601.592 89.7109 602.354 90.248 603.271 90.5801C604.209 90.8926 605.195 91.0488 606.23 91.0488C607.402 91.0488 608.389 90.8926 609.189 90.5801C609.99 90.248 610.596 89.8086 611.006 89.2617C611.416 88.6953 611.621 88.0508 611.621 87.3281ZM640.068 64.3008V69.8672H621.904V64.3008H640.068ZM626.768 56.5078H634.531V86.8594C634.531 87.7969 634.658 88.5195 634.912 89.0273C635.166 89.5352 635.547 89.877 636.055 90.0527C636.562 90.2285 637.168 90.3164 637.871 90.3164C638.379 90.3164 638.848 90.2871 639.277 90.2285C639.707 90.1699 640.068 90.1113 640.361 90.0527L640.391 95.8535C639.746 96.0684 639.014 96.2441 638.193 96.3809C637.393 96.5176 636.484 96.5859 635.469 96.5859C633.73 96.5859 632.207 96.293 630.898 95.707C629.59 95.1016 628.574 94.1348 627.852 92.8066C627.129 91.459 626.768 89.6816 626.768 87.4746V56.5078ZM652.959 70.7754V96H645.225V64.3008H652.549L652.959 70.7754ZM662.598 64.0957L662.48 71.3027C662.051 71.2246 661.562 71.166 661.016 71.127C660.488 71.0879 659.99 71.0684 659.521 71.0684C658.33 71.0684 657.285 71.2344 656.387 71.5664C655.488 71.8789 654.736 72.3379 654.131 72.9434C653.545 73.5488 653.096 74.291 652.783 75.1699C652.471 76.0293 652.295 77.0059 652.256 78.0996L650.586 77.8945C650.586 75.8828 650.791 74.0176 651.201 72.2988C651.611 70.5801 652.207 69.0762 652.988 67.7871C653.77 66.498 654.746 65.502 655.918 64.7988C657.109 64.0762 658.477 63.7148 660.02 63.7148C660.449 63.7148 660.908 63.7539 661.396 63.832C661.904 63.8906 662.305 63.9785 662.598 64.0957ZM683.311 89.2617V74.6426C683.311 73.5684 683.125 72.6406 682.754 71.8594C682.383 71.0781 681.816 70.4727 681.055 70.043C680.293 69.6133 679.326 69.3984 678.154 69.3984C677.119 69.3984 676.211 69.5742 675.43 69.9258C674.668 70.2773 674.082 70.7754 673.672 71.4199C673.262 72.0449 673.057 72.7676 673.057 73.5879H665.293C665.293 72.2793 665.605 71.0391 666.23 69.8672C666.855 68.6758 667.744 67.6211 668.896 66.7031C670.068 65.7656 671.465 65.0332 673.086 64.5059C674.727 63.9785 676.562 63.7148 678.594 63.7148C680.996 63.7148 683.135 64.125 685.01 64.9453C686.904 65.7461 688.389 66.957 689.463 68.5781C690.557 70.1992 691.104 72.2402 691.104 74.7012V88.5293C691.104 90.1113 691.201 91.4688 691.396 92.6016C691.611 93.7148 691.924 94.6816 692.334 95.502V96H684.453C684.082 95.1992 683.799 94.1836 683.604 92.9531C683.408 91.7031 683.311 90.4727 683.311 89.2617ZM684.395 76.6934L684.453 81.293H679.561C678.35 81.293 677.285 81.4199 676.367 81.6738C675.449 81.9082 674.697 82.2598 674.111 82.7285C673.525 83.1777 673.086 83.7246 672.793 84.3691C672.5 84.9941 672.354 85.707 672.354 86.5078C672.354 87.2891 672.529 87.9922 672.881 88.6172C673.252 89.2422 673.779 89.7402 674.463 90.1113C675.166 90.4629 675.986 90.6387 676.924 90.6387C678.291 90.6387 679.482 90.3652 680.498 89.8184C681.514 89.252 682.305 88.5684 682.871 87.7676C683.438 86.9668 683.74 86.2051 683.779 85.4824L686.006 88.8223C685.732 89.623 685.322 90.4727 684.775 91.3711C684.229 92.2695 683.525 93.1094 682.666 93.8906C681.807 94.6719 680.771 95.3164 679.561 95.8242C678.35 96.332 676.943 96.5859 675.342 96.5859C673.291 96.5859 671.455 96.1758 669.834 95.3555C668.213 94.5352 666.934 93.4121 665.996 91.9863C665.059 90.5605 664.59 88.9395 664.59 87.123C664.59 85.4434 664.902 83.959 665.527 82.6699C666.152 81.3809 667.08 80.2969 668.311 79.418C669.541 78.5195 671.064 77.8457 672.881 77.3965C674.717 76.9277 676.816 76.6934 679.18 76.6934H684.395ZM713.076 64.3008V69.8672H694.912V64.3008H713.076ZM699.775 56.5078H707.539V86.8594C707.539 87.7969 707.666 88.5195 707.92 89.0273C708.174 89.5352 708.555 89.877 709.062 90.0527C709.57 90.2285 710.176 90.3164 710.879 90.3164C711.387 90.3164 711.855 90.2871 712.285 90.2285C712.715 90.1699 713.076 90.1113 713.369 90.0527L713.398 95.8535C712.754 96.0684 712.021 96.2441 711.201 96.3809C710.4 96.5176 709.492 96.5859 708.477 96.5859C706.738 96.5859 705.215 96.293 703.906 95.707C702.598 95.1016 701.582 94.1348 700.859 92.8066C700.137 91.459 699.775 89.6816 699.775 87.4746V56.5078ZM726.436 64.3008V96H718.672V64.3008H726.436ZM718.145 56.0098C718.145 54.8574 718.535 53.9004 719.316 53.1387C720.117 52.377 721.191 51.9961 722.539 51.9961C723.887 51.9961 724.951 52.377 725.732 53.1387C726.533 53.9004 726.934 54.8574 726.934 56.0098C726.934 57.1426 726.533 58.0898 725.732 58.8516C724.951 59.6133 723.887 59.9941 722.539 59.9941C721.191 59.9941 720.117 59.6133 719.316 58.8516C718.535 58.0898 718.145 57.1426 718.145 56.0098ZM732.441 80.4727V79.8574C732.441 77.5332 732.773 75.3945 733.438 73.4414C734.102 71.4688 735.068 69.7598 736.338 68.3145C737.607 66.8691 739.16 65.7461 740.996 64.9453C742.832 64.125 744.922 63.7148 747.266 63.7148C749.648 63.7148 751.758 64.125 753.594 64.9453C755.449 65.7461 757.012 66.8691 758.281 68.3145C759.551 69.7598 760.518 71.4688 761.182 73.4414C761.846 75.3945 762.178 77.5332 762.178 79.8574V80.4727C762.178 82.7773 761.846 84.916 761.182 86.8887C760.518 88.8418 759.551 90.5508 758.281 92.0156C757.012 93.4609 755.459 94.584 753.623 95.3848C751.787 96.1855 749.688 96.5859 747.324 96.5859C744.98 96.5859 742.881 96.1855 741.025 95.3848C739.17 94.584 737.607 93.4609 736.338 92.0156C735.068 90.5508 734.102 88.8418 733.438 86.8887C732.773 84.916 732.441 82.7773 732.441 80.4727ZM740.176 79.8574V80.4727C740.176 81.8594 740.312 83.1582 740.586 84.3691C740.859 85.5801 741.279 86.6445 741.846 87.5625C742.412 88.4805 743.145 89.2031 744.043 89.7305C744.961 90.2383 746.055 90.4922 747.324 90.4922C748.574 90.4922 749.648 90.2383 750.547 89.7305C751.445 89.2031 752.178 88.4805 752.744 87.5625C753.33 86.6445 753.76 85.5801 754.033 84.3691C754.307 83.1582 754.443 81.8594 754.443 80.4727V79.8574C754.443 78.4902 754.307 77.2109 754.033 76.0195C753.76 74.8086 753.33 73.7441 752.744 72.8262C752.178 71.8887 751.436 71.1562 750.518 70.6289C749.619 70.082 748.535 69.8086 747.266 69.8086C746.016 69.8086 744.941 70.082 744.043 70.6289C743.145 71.1562 742.412 71.8887 741.846 72.8262C741.279 73.7441 740.859 74.8086 740.586 76.0195C740.312 77.2109 740.176 78.4902 740.176 79.8574ZM775.391 71.0684V96H767.656V64.3008H774.922L775.391 71.0684ZM774.16 79.0078H771.875C771.895 76.7031 772.207 74.6133 772.812 72.7383C773.418 70.8633 774.268 69.252 775.361 67.9043C776.475 66.5566 777.793 65.5215 779.316 64.7988C780.84 64.0762 782.539 63.7148 784.414 63.7148C785.938 63.7148 787.314 63.9297 788.545 64.3594C789.775 64.7891 790.83 65.4727 791.709 66.4102C792.607 67.3477 793.291 68.5781 793.76 70.1016C794.248 71.6055 794.492 73.4609 794.492 75.668V96H786.699V75.6094C786.699 74.1641 786.484 73.0215 786.055 72.1816C785.645 71.3418 785.039 70.7461 784.238 70.3945C783.457 70.043 782.49 69.8672 781.338 69.8672C780.146 69.8672 779.102 70.1113 778.203 70.5996C777.324 71.0684 776.582 71.7227 775.977 72.5625C775.391 73.4023 774.941 74.3691 774.629 75.4629C774.316 76.5566 774.16 77.7383 774.16 79.0078Z" fill="#FFA229"/>
<defs>
<linearGradient id="paint0_linear_786_196" x1="622.306" y1="510.311" x2="880.284" y2="464.537" gradientUnits="userSpaceOnUse">
<stop stop-color="#513983"/>
<stop offset="1" stop-color="#D671D9"/>
</linearGradient>
<linearGradient id="paint1_linear_786_196" x1="332.797" y1="897.518" x2="187.437" y2="610.816" gradientUnits="userSpaceOnUse">
<stop stop-color="#513983"/>
<stop offset="1" stop-color="#D671D9"/>
</linearGradient>
<linearGradient id="paint2_linear_786_196" x1="272.662" y1="683.546" x2="293.385" y2="450.316" gradientUnits="userSpaceOnUse">
<stop stop-color="#513983"/>
<stop offset="1" stop-color="#D671D9"/>
</linearGradient>
<linearGradient id="paint3_linear_786_196" x1="802.241" y1="888.482" x2="802.241" y2="484.329" gradientUnits="userSpaceOnUse">
<stop stop-color="#513983"/>
<stop offset="1" stop-color="#D671D9"/>
</linearGradient>
</defs>
</svg>
