<svg width="1000" height="1241" viewBox="0 0 1000 1241" fill="none" xmlns="http://www.w3.org/2000/svg">
<g clip-path="url(#clip0_886_2258)">
<rect width="1000" height="1241" fill="white"/>
<path d="M914.999 269.704C951.45 269.704 980.999 232.934 980.999 187.575C980.999 142.216 951.45 105.445 914.999 105.445C878.549 105.445 849 142.216 849 187.575C849 232.934 878.549 269.704 914.999 269.704Z" fill="#1C4670"/>
<path d="M907.284 105.445H81.8633V269.702H907.284V105.445Z" fill="#1C4670"/>
<path d="M504.447 195.305V201H484.039V195.305H504.447ZM486.254 162.609V201H479.003V162.609H486.254ZM501.784 178.456V184.02H484.039V178.456H501.784ZM504.368 162.609V168.331H484.039V162.609H504.368ZM514.414 172.471L519.503 181.541L524.671 172.471H532.238L523.854 186.445L532.581 201H525.014L519.556 191.481L514.071 201H506.504L515.205 186.445L506.873 172.471H514.414ZM543.233 177.955V211.969H536.246V172.471H542.706L543.233 177.955ZM561.559 186.445V186.999C561.559 189.073 561.312 190.998 560.82 192.773C560.346 194.531 559.643 196.069 558.711 197.388C557.779 198.688 556.619 199.708 555.23 200.446C553.859 201.167 552.277 201.527 550.484 201.527C548.727 201.527 547.197 201.193 545.896 200.525C544.596 199.84 543.497 198.873 542.601 197.625C541.704 196.377 540.983 194.927 540.438 193.274C539.911 191.604 539.516 189.785 539.252 187.816V186.05C539.516 183.958 539.911 182.06 540.438 180.354C540.983 178.632 541.704 177.146 542.601 175.898C543.497 174.633 544.587 173.657 545.87 172.972C547.171 172.286 548.691 171.943 550.432 171.943C552.242 171.943 553.833 172.286 555.204 172.972C556.593 173.657 557.762 174.642 558.711 175.925C559.66 177.208 560.372 178.737 560.847 180.513C561.321 182.288 561.559 184.266 561.559 186.445ZM554.571 186.999V186.445C554.571 185.18 554.457 184.011 554.229 182.938C554 181.849 553.648 180.899 553.174 180.091C552.699 179.265 552.084 178.623 551.328 178.166C550.572 177.709 549.658 177.48 548.586 177.48C547.514 177.48 546.591 177.656 545.817 178.008C545.044 178.359 544.411 178.86 543.919 179.511C543.427 180.161 543.04 180.935 542.759 181.831C542.495 182.71 542.319 183.686 542.231 184.758V189.135C542.39 190.436 542.697 191.604 543.154 192.642C543.611 193.679 544.279 194.505 545.158 195.12C546.055 195.735 547.215 196.043 548.639 196.043C549.711 196.043 550.625 195.806 551.381 195.331C552.137 194.856 552.752 194.206 553.227 193.38C553.701 192.536 554.044 191.569 554.255 190.479C554.466 189.39 554.571 188.229 554.571 186.999ZM579.462 201.527C577.3 201.527 575.357 201.176 573.635 200.473C571.912 199.77 570.444 198.794 569.231 197.546C568.036 196.28 567.113 194.812 566.463 193.143C565.83 191.455 565.514 189.645 565.514 187.711V186.656C565.514 184.459 565.83 182.464 566.463 180.671C567.096 178.86 567.992 177.305 569.152 176.004C570.312 174.703 571.701 173.701 573.318 172.998C574.936 172.295 576.72 171.943 578.671 171.943C580.692 171.943 582.477 172.286 584.023 172.972C585.57 173.64 586.862 174.589 587.899 175.819C588.937 177.05 589.719 178.526 590.246 180.249C590.773 181.954 591.037 183.844 591.037 185.918V188.845H568.678V184.046H584.182V183.519C584.146 182.411 583.936 181.4 583.549 180.486C583.162 179.555 582.564 178.816 581.756 178.271C580.947 177.709 579.901 177.428 578.618 177.428C577.581 177.428 576.676 177.656 575.902 178.113C575.146 178.553 574.514 179.186 574.004 180.012C573.512 180.82 573.143 181.787 572.896 182.912C572.65 184.037 572.527 185.285 572.527 186.656V187.711C572.527 188.906 572.686 190.014 573.002 191.033C573.336 192.053 573.819 192.94 574.452 193.696C575.103 194.435 575.876 195.015 576.772 195.437C577.687 195.841 578.724 196.043 579.884 196.043C581.343 196.043 582.661 195.762 583.839 195.199C585.034 194.619 586.071 193.767 586.95 192.642L590.457 196.28C589.859 197.159 589.051 198.003 588.031 198.812C587.029 199.62 585.816 200.279 584.393 200.789C582.969 201.281 581.325 201.527 579.462 201.527ZM602.665 178.298V201H595.704V172.471H602.296L602.665 178.298ZM611.34 172.286L611.234 178.772C610.848 178.702 610.408 178.649 609.916 178.614C609.441 178.579 608.993 178.562 608.571 178.562C607.499 178.562 606.559 178.711 605.75 179.01C604.941 179.291 604.265 179.704 603.72 180.249C603.192 180.794 602.788 181.462 602.507 182.253C602.226 183.026 602.067 183.905 602.032 184.89L600.529 184.705C600.529 182.895 600.714 181.216 601.083 179.669C601.452 178.122 601.988 176.769 602.691 175.608C603.395 174.448 604.273 173.552 605.328 172.919C606.4 172.269 607.631 171.943 609.02 171.943C609.406 171.943 609.819 171.979 610.259 172.049C610.716 172.102 611.076 172.181 611.34 172.286ZM629.981 172.471V177.48H613.634V172.471H629.981ZM618.011 165.457H624.998V192.773C624.998 193.617 625.112 194.268 625.341 194.725C625.569 195.182 625.912 195.489 626.369 195.647C626.826 195.806 627.371 195.885 628.004 195.885C628.461 195.885 628.883 195.858 629.27 195.806C629.656 195.753 629.981 195.7 630.245 195.647L630.271 200.868C629.691 201.062 629.032 201.22 628.294 201.343C627.573 201.466 626.756 201.527 625.842 201.527C624.277 201.527 622.906 201.264 621.729 200.736C620.551 200.191 619.637 199.321 618.986 198.126C618.336 196.913 618.011 195.313 618.011 193.327V165.457ZM663.863 168.437L652.921 201H645.248L659.592 162.609H664.496L663.863 168.437ZM673.013 201L662.018 168.437L661.358 162.609H666.289L680.712 201H673.013ZM672.512 186.735V192.457H651.919V186.735H672.512ZM701.252 194.936V160.5H708.266V201H701.938L701.252 194.936ZM682.927 187.078V186.524C682.927 184.345 683.173 182.367 683.665 180.592C684.175 178.799 684.913 177.261 685.88 175.978C686.847 174.694 688.016 173.701 689.387 172.998C690.775 172.295 692.349 171.943 694.106 171.943C695.812 171.943 697.297 172.286 698.562 172.972C699.846 173.657 700.936 174.633 701.832 175.898C702.746 177.164 703.476 178.667 704.021 180.407C704.565 182.13 704.961 184.028 705.207 186.103V187.605C704.961 189.627 704.565 191.481 704.021 193.169C703.476 194.856 702.746 196.333 701.832 197.599C700.936 198.847 699.846 199.813 698.562 200.499C697.279 201.185 695.776 201.527 694.054 201.527C692.313 201.527 690.749 201.167 689.36 200.446C687.989 199.726 686.82 198.715 685.854 197.414C684.904 196.113 684.175 194.584 683.665 192.826C683.173 191.068 682.927 189.152 682.927 187.078ZM689.914 186.524V187.078C689.914 188.309 690.02 189.46 690.23 190.532C690.441 191.604 690.784 192.554 691.259 193.38C691.733 194.188 692.34 194.821 693.078 195.278C693.834 195.735 694.748 195.964 695.82 195.964C697.191 195.964 698.316 195.665 699.195 195.067C700.092 194.452 700.786 193.617 701.278 192.562C701.771 191.49 702.087 190.286 702.228 188.95V184.811C702.157 183.756 701.973 182.78 701.674 181.884C701.393 180.987 700.988 180.214 700.461 179.563C699.951 178.913 699.318 178.403 698.562 178.034C697.807 177.665 696.91 177.48 695.873 177.48C694.801 177.48 693.887 177.718 693.131 178.192C692.375 178.649 691.76 179.291 691.285 180.117C690.811 180.943 690.459 181.901 690.23 182.991C690.02 184.081 689.914 185.259 689.914 186.524ZM724.033 195.727L730.678 172.471H737.955L728.173 201H723.743L724.033 195.727ZM719.182 172.471L725.905 195.779L726.143 201H721.687L711.878 172.471H719.182ZM749.003 172.471V201H742.016V172.471H749.003ZM741.541 165.009C741.541 163.972 741.893 163.11 742.596 162.425C743.316 161.739 744.283 161.396 745.496 161.396C746.709 161.396 747.667 161.739 748.37 162.425C749.091 163.11 749.451 163.972 749.451 165.009C749.451 166.028 749.091 166.881 748.37 167.566C747.667 168.252 746.709 168.595 745.496 168.595C744.283 168.595 743.316 168.252 742.596 167.566C741.893 166.881 741.541 166.028 741.541 165.009ZM771.336 193.195C771.336 192.598 771.178 192.062 770.861 191.587C770.545 191.112 769.947 190.682 769.068 190.295C768.207 189.891 766.941 189.513 765.271 189.161C763.795 188.845 762.433 188.449 761.185 187.975C759.937 187.5 758.864 186.929 757.968 186.261C757.071 185.575 756.368 184.775 755.858 183.861C755.366 182.93 755.12 181.857 755.12 180.645C755.12 179.467 755.375 178.359 755.885 177.322C756.395 176.268 757.133 175.345 758.1 174.554C759.066 173.745 760.244 173.112 761.633 172.655C763.021 172.181 764.586 171.943 766.326 171.943C768.752 171.943 770.835 172.339 772.575 173.13C774.333 173.921 775.678 175.011 776.609 176.399C777.541 177.771 778.007 179.317 778.007 181.04H771.046C771.046 180.284 770.87 179.599 770.519 178.983C770.185 178.368 769.666 177.876 768.963 177.507C768.26 177.12 767.372 176.927 766.3 176.927C765.333 176.927 764.516 177.085 763.848 177.401C763.197 177.718 762.705 178.131 762.371 178.641C762.037 179.15 761.87 179.713 761.87 180.328C761.87 180.785 761.958 181.198 762.134 181.567C762.327 181.919 762.635 182.244 763.057 182.543C763.479 182.842 764.05 183.114 764.771 183.36C765.509 183.606 766.414 183.844 767.486 184.072C769.613 184.494 771.468 185.057 773.05 185.76C774.649 186.445 775.897 187.359 776.794 188.502C777.69 189.645 778.139 191.104 778.139 192.879C778.139 194.145 777.866 195.305 777.321 196.359C776.776 197.396 775.985 198.302 774.948 199.075C773.911 199.849 772.672 200.455 771.23 200.895C769.789 201.316 768.163 201.527 766.353 201.527C763.733 201.527 761.519 201.062 759.708 200.13C757.897 199.181 756.526 197.985 755.595 196.544C754.663 195.085 754.197 193.573 754.197 192.009H760.868C760.921 193.116 761.22 194.004 761.765 194.672C762.31 195.34 762.995 195.823 763.821 196.122C764.665 196.403 765.553 196.544 766.484 196.544C767.539 196.544 768.427 196.403 769.147 196.122C769.868 195.823 770.413 195.428 770.782 194.936C771.151 194.426 771.336 193.846 771.336 193.195ZM782.199 187.025V186.472C782.199 184.38 782.498 182.455 783.096 180.697C783.693 178.922 784.563 177.384 785.706 176.083C786.849 174.782 788.246 173.771 789.898 173.051C791.551 172.312 793.432 171.943 795.541 171.943C797.686 171.943 799.584 172.312 801.236 173.051C802.906 173.771 804.312 174.782 805.455 176.083C806.598 177.384 807.468 178.922 808.065 180.697C808.663 182.455 808.962 184.38 808.962 186.472V187.025C808.962 189.1 808.663 191.024 808.065 192.8C807.468 194.558 806.598 196.096 805.455 197.414C804.312 198.715 802.915 199.726 801.263 200.446C799.61 201.167 797.721 201.527 795.594 201.527C793.484 201.527 791.595 201.167 789.925 200.446C788.255 199.726 786.849 198.715 785.706 197.414C784.563 196.096 783.693 194.558 783.096 192.8C782.498 191.024 782.199 189.1 782.199 187.025ZM789.16 186.472V187.025C789.16 188.273 789.283 189.442 789.529 190.532C789.775 191.622 790.153 192.58 790.663 193.406C791.173 194.232 791.832 194.883 792.641 195.357C793.467 195.814 794.451 196.043 795.594 196.043C796.719 196.043 797.686 195.814 798.494 195.357C799.303 194.883 799.962 194.232 800.472 193.406C800.999 192.58 801.386 191.622 801.632 190.532C801.878 189.442 802.001 188.273 802.001 187.025V186.472C802.001 185.241 801.878 184.09 801.632 183.018C801.386 181.928 800.999 180.97 800.472 180.144C799.962 179.3 799.294 178.641 798.468 178.166C797.659 177.674 796.684 177.428 795.541 177.428C794.416 177.428 793.449 177.674 792.641 178.166C791.832 178.641 791.173 179.3 790.663 180.144C790.153 180.97 789.775 181.928 789.529 183.018C789.283 184.09 789.16 185.241 789.16 186.472ZM820.985 178.298V201H814.024V172.471H820.616L820.985 178.298ZM829.66 172.286L829.555 178.772C829.168 178.702 828.729 178.649 828.236 178.614C827.762 178.579 827.313 178.562 826.892 178.562C825.819 178.562 824.879 178.711 824.07 179.01C823.262 179.291 822.585 179.704 822.04 180.249C821.513 180.794 821.108 181.462 820.827 182.253C820.546 183.026 820.388 183.905 820.353 184.89L818.85 184.705C818.85 182.895 819.034 181.216 819.403 179.669C819.772 178.122 820.309 176.769 821.012 175.608C821.715 174.448 822.594 173.552 823.648 172.919C824.721 172.269 825.951 171.943 827.34 171.943C827.727 171.943 828.14 171.979 828.579 172.049C829.036 172.102 829.396 172.181 829.66 172.286ZM842.316 197.836L849.963 172.471H857.425L845.981 205.324C845.718 206.027 845.375 206.792 844.953 207.618C844.549 208.444 844.004 209.227 843.318 209.965C842.633 210.721 841.771 211.336 840.734 211.811C839.715 212.285 838.476 212.522 837.017 212.522C836.384 212.522 835.821 212.479 835.329 212.391C834.837 212.303 834.318 212.188 833.773 212.048V206.827C833.949 206.845 834.151 206.854 834.38 206.854C834.626 206.871 834.837 206.88 835.013 206.88C836.032 206.88 836.876 206.757 837.544 206.511C838.212 206.282 838.748 205.904 839.152 205.377C839.574 204.867 839.926 204.199 840.207 203.373L842.316 197.836ZM838.546 172.471L845.006 193.485L846.14 200.842L841.341 201.712L831.031 172.471H838.546Z" fill="white"/>
<path d="M84.9993 269.704C121.45 269.704 150.999 232.934 150.999 187.575C150.999 142.216 121.45 105.445 84.9993 105.445C48.5489 105.445 19 142.216 19 187.575C19 232.934 48.5489 269.704 84.9993 269.704Z" fill="#1C4670"/>
<path d="M155.979 288.414C116.535 253.751 103.141 198.643 122.755 149.407C142.344 100.234 190.028 69.3093 242.529 71.138L249.19 54.4168C219.097 52.1267 189.06 59.4971 163.46 75.4524C137.86 91.4076 118.038 115.113 106.886 143.108C95.7345 171.104 93.8369 201.924 101.47 231.072C109.104 260.22 125.869 286.17 149.318 305.135L155.979 288.414Z" fill="#1C4670"/>
<path d="M234.176 319.458C286.694 321.302 334.338 290.437 353.952 241.189C373.539 192.017 360.151 136.841 320.726 102.182L327.391 85.4609C350.843 104.425 367.609 130.376 375.243 159.525C382.878 188.674 380.98 219.496 369.828 247.492C358.675 275.489 338.851 299.194 313.25 315.149C287.648 331.103 257.609 338.472 227.516 336.179L234.176 319.458Z" fill="#1C4670"/>
<path d="M326.218 283.014C374.746 234.569 374.746 156.025 326.218 107.58C277.691 59.1357 199.012 59.1357 150.484 107.58C101.957 156.025 101.957 234.569 150.484 283.014C199.012 331.458 277.691 331.458 326.218 283.014Z" fill="white"/>
<path d="M313.351 270.168C354.772 228.818 354.772 161.776 313.351 120.425C271.93 79.0751 204.773 79.0751 163.351 120.425C121.93 161.776 121.93 228.818 163.351 270.168C204.773 311.519 271.93 311.519 313.351 270.168Z" fill="#FFA229"/>
<path d="M84.9993 555.408C121.45 555.408 150.999 518.637 150.999 473.278C150.999 427.919 121.45 391.148 84.9993 391.148C48.5489 391.148 19 427.919 19 473.278C19 518.637 48.5489 555.408 84.9993 555.408Z" fill="#FFA229"/>
<path d="M918.132 391.148H92.7109V555.405H918.132V391.148Z" fill="#FFA229"/>
<path d="M212.462 454.37H219.713C219.52 456.937 218.808 459.213 217.577 461.199C216.347 463.168 214.633 464.715 212.436 465.84C210.238 466.965 207.575 467.527 204.446 467.527C202.038 467.527 199.867 467.105 197.934 466.262C196.018 465.4 194.374 464.179 193.003 462.597C191.649 460.997 190.612 459.081 189.892 456.849C189.171 454.599 188.811 452.076 188.811 449.281V446.354C188.811 443.56 189.18 441.037 189.918 438.787C190.656 436.537 191.711 434.621 193.082 433.039C194.471 431.439 196.132 430.209 198.065 429.348C200.017 428.486 202.196 428.056 204.604 428.056C207.733 428.056 210.379 428.636 212.541 429.796C214.703 430.938 216.382 432.512 217.577 434.516C218.772 436.52 219.493 438.822 219.739 441.424H212.488C212.348 439.807 211.996 438.436 211.434 437.311C210.889 436.186 210.062 435.333 208.955 434.753C207.865 434.155 206.415 433.856 204.604 433.856C203.198 433.856 201.959 434.12 200.887 434.647C199.832 435.175 198.953 435.966 198.25 437.021C197.547 438.058 197.02 439.358 196.668 440.923C196.316 442.47 196.141 444.263 196.141 446.302V449.281C196.141 451.232 196.299 452.981 196.615 454.528C196.932 456.075 197.424 457.385 198.092 458.457C198.76 459.529 199.621 460.347 200.676 460.909C201.73 461.472 202.987 461.753 204.446 461.753C206.222 461.753 207.663 461.472 208.771 460.909C209.896 460.347 210.748 459.521 211.328 458.431C211.926 457.341 212.304 455.987 212.462 454.37ZM223.562 453.025V452.472C223.562 450.38 223.861 448.455 224.459 446.697C225.057 444.922 225.927 443.384 227.069 442.083C228.212 440.782 229.609 439.771 231.262 439.051C232.914 438.312 234.795 437.943 236.904 437.943C239.049 437.943 240.947 438.312 242.6 439.051C244.27 439.771 245.676 440.782 246.818 442.083C247.961 443.384 248.831 444.922 249.429 446.697C250.026 448.455 250.325 450.38 250.325 452.472V453.025C250.325 455.1 250.026 457.024 249.429 458.8C248.831 460.558 247.961 462.096 246.818 463.414C245.676 464.715 244.278 465.726 242.626 466.446C240.974 467.167 239.084 467.527 236.957 467.527C234.848 467.527 232.958 467.167 231.288 466.446C229.618 465.726 228.212 464.715 227.069 463.414C225.927 462.096 225.057 460.558 224.459 458.8C223.861 457.024 223.562 455.1 223.562 453.025ZM230.523 452.472V453.025C230.523 454.273 230.646 455.442 230.893 456.532C231.139 457.622 231.517 458.58 232.026 459.406C232.536 460.232 233.195 460.883 234.004 461.357C234.83 461.814 235.814 462.043 236.957 462.043C238.082 462.043 239.049 461.814 239.857 461.357C240.666 460.883 241.325 460.232 241.835 459.406C242.362 458.58 242.749 457.622 242.995 456.532C243.241 455.442 243.364 454.273 243.364 453.025V452.472C243.364 451.241 243.241 450.09 242.995 449.018C242.749 447.928 242.362 446.97 241.835 446.144C241.325 445.3 240.657 444.641 239.831 444.166C239.022 443.674 238.047 443.428 236.904 443.428C235.779 443.428 234.812 443.674 234.004 444.166C233.195 444.641 232.536 445.3 232.026 446.144C231.517 446.97 231.139 447.928 230.893 449.018C230.646 450.09 230.523 451.241 230.523 452.472ZM262.771 426.5V467H255.783V426.5H262.771ZM276.798 426.5V467H269.811V426.5H276.798ZM296.257 467.527C294.095 467.527 292.152 467.176 290.43 466.473C288.707 465.77 287.239 464.794 286.026 463.546C284.831 462.28 283.908 460.812 283.258 459.143C282.625 457.455 282.309 455.645 282.309 453.711V452.656C282.309 450.459 282.625 448.464 283.258 446.671C283.891 444.86 284.787 443.305 285.947 442.004C287.107 440.703 288.496 439.701 290.113 438.998C291.73 438.295 293.515 437.943 295.466 437.943C297.487 437.943 299.271 438.286 300.818 438.972C302.365 439.64 303.657 440.589 304.694 441.819C305.731 443.05 306.514 444.526 307.041 446.249C307.568 447.954 307.832 449.844 307.832 451.918V454.845H285.473V450.046H300.977V449.519C300.941 448.411 300.73 447.4 300.344 446.486C299.957 445.555 299.359 444.816 298.551 444.271C297.742 443.709 296.696 443.428 295.413 443.428C294.376 443.428 293.471 443.656 292.697 444.113C291.941 444.553 291.309 445.186 290.799 446.012C290.307 446.82 289.938 447.787 289.691 448.912C289.445 450.037 289.322 451.285 289.322 452.656V453.711C289.322 454.906 289.48 456.014 289.797 457.033C290.131 458.053 290.614 458.94 291.247 459.696C291.897 460.435 292.671 461.015 293.567 461.437C294.481 461.841 295.519 462.043 296.679 462.043C298.138 462.043 299.456 461.762 300.634 461.199C301.829 460.619 302.866 459.767 303.745 458.642L307.252 462.28C306.654 463.159 305.846 464.003 304.826 464.812C303.824 465.62 302.611 466.279 301.188 466.789C299.764 467.281 298.12 467.527 296.257 467.527ZM324.206 462.043C325.19 462.043 326.069 461.85 326.843 461.463C327.616 461.076 328.231 460.531 328.688 459.828C329.163 459.125 329.418 458.308 329.453 457.376H336.019C335.983 459.31 335.438 461.041 334.384 462.57C333.329 464.1 331.923 465.312 330.165 466.209C328.425 467.088 326.474 467.527 324.312 467.527C322.114 467.527 320.198 467.158 318.563 466.42C316.929 465.682 315.566 464.653 314.477 463.335C313.404 462.017 312.596 460.487 312.051 458.747C311.523 457.007 311.26 455.144 311.26 453.157V452.313C311.26 450.327 311.523 448.464 312.051 446.724C312.596 444.983 313.404 443.454 314.477 442.136C315.566 440.817 316.929 439.789 318.563 439.051C320.198 438.312 322.105 437.943 324.285 437.943C326.588 437.943 328.609 438.392 330.35 439.288C332.107 440.185 333.479 441.45 334.463 443.085C335.465 444.72 335.983 446.645 336.019 448.859H329.453C329.418 447.84 329.189 446.926 328.768 446.117C328.346 445.309 327.748 444.658 326.975 444.166C326.201 443.674 325.261 443.428 324.153 443.428C322.976 443.428 321.991 443.674 321.2 444.166C320.427 444.658 319.82 445.335 319.381 446.196C318.959 447.04 318.66 447.989 318.484 449.044C318.326 450.081 318.247 451.171 318.247 452.313V453.157C318.247 454.317 318.326 455.425 318.484 456.479C318.66 457.534 318.959 458.483 319.381 459.327C319.82 460.153 320.427 460.812 321.2 461.305C321.991 461.797 322.993 462.043 324.206 462.043ZM354.159 438.471V443.48H337.812V438.471H354.159ZM342.188 431.457H349.176V458.773C349.176 459.617 349.29 460.268 349.519 460.725C349.747 461.182 350.09 461.489 350.547 461.647C351.004 461.806 351.549 461.885 352.182 461.885C352.639 461.885 353.061 461.858 353.447 461.806C353.834 461.753 354.159 461.7 354.423 461.647L354.449 466.868C353.869 467.062 353.21 467.22 352.472 467.343C351.751 467.466 350.934 467.527 350.02 467.527C348.455 467.527 347.084 467.264 345.906 466.736C344.729 466.191 343.814 465.321 343.164 464.126C342.514 462.913 342.188 461.313 342.188 459.327V431.457ZM366.183 438.471V467H359.195V438.471H366.183ZM358.721 431.009C358.721 429.972 359.072 429.11 359.775 428.425C360.496 427.739 361.463 427.396 362.676 427.396C363.889 427.396 364.847 427.739 365.55 428.425C366.271 429.11 366.631 429.972 366.631 431.009C366.631 432.028 366.271 432.881 365.55 433.566C364.847 434.252 363.889 434.595 362.676 434.595C361.463 434.595 360.496 434.252 359.775 433.566C359.072 432.881 358.721 432.028 358.721 431.009ZM371.588 453.025V452.472C371.588 450.38 371.887 448.455 372.484 446.697C373.082 444.922 373.952 443.384 375.095 442.083C376.237 440.782 377.635 439.771 379.287 439.051C380.939 438.312 382.82 437.943 384.93 437.943C387.074 437.943 388.973 438.312 390.625 439.051C392.295 439.771 393.701 440.782 394.844 442.083C395.986 443.384 396.856 444.922 397.454 446.697C398.052 448.455 398.351 450.38 398.351 452.472V453.025C398.351 455.1 398.052 457.024 397.454 458.8C396.856 460.558 395.986 462.096 394.844 463.414C393.701 464.715 392.304 465.726 390.651 466.446C388.999 467.167 387.109 467.527 384.982 467.527C382.873 467.527 380.983 467.167 379.313 466.446C377.644 465.726 376.237 464.715 375.095 463.414C373.952 462.096 373.082 460.558 372.484 458.8C371.887 457.024 371.588 455.1 371.588 453.025ZM378.549 452.472V453.025C378.549 454.273 378.672 455.442 378.918 456.532C379.164 457.622 379.542 458.58 380.052 459.406C380.562 460.232 381.221 460.883 382.029 461.357C382.855 461.814 383.84 462.043 384.982 462.043C386.107 462.043 387.074 461.814 387.883 461.357C388.691 460.883 389.351 460.232 389.86 459.406C390.388 458.58 390.774 457.622 391.021 456.532C391.267 455.442 391.39 454.273 391.39 453.025V452.472C391.39 451.241 391.267 450.09 391.021 449.018C390.774 447.928 390.388 446.97 389.86 446.144C389.351 445.3 388.683 444.641 387.856 444.166C387.048 443.674 386.072 443.428 384.93 443.428C383.805 443.428 382.838 443.674 382.029 444.166C381.221 444.641 380.562 445.3 380.052 446.144C379.542 446.97 379.164 447.928 378.918 449.018C378.672 450.09 378.549 451.241 378.549 452.472ZM410.242 444.562V467H403.281V438.471H409.82L410.242 444.562ZM409.135 451.707H407.078C407.096 449.633 407.377 447.752 407.922 446.064C408.467 444.377 409.231 442.927 410.216 441.714C411.218 440.501 412.404 439.569 413.775 438.919C415.146 438.269 416.676 437.943 418.363 437.943C419.734 437.943 420.974 438.137 422.081 438.523C423.188 438.91 424.138 439.525 424.929 440.369C425.737 441.213 426.353 442.32 426.774 443.691C427.214 445.045 427.434 446.715 427.434 448.701V467H420.42V448.648C420.42 447.348 420.227 446.319 419.84 445.563C419.471 444.808 418.926 444.271 418.205 443.955C417.502 443.639 416.632 443.48 415.595 443.48C414.522 443.48 413.582 443.7 412.773 444.14C411.982 444.562 411.314 445.15 410.77 445.906C410.242 446.662 409.838 447.532 409.557 448.517C409.275 449.501 409.135 450.564 409.135 451.707ZM445.785 453.025V452.472C445.785 450.38 446.084 448.455 446.682 446.697C447.279 444.922 448.149 443.384 449.292 442.083C450.435 440.782 451.832 439.771 453.484 439.051C455.137 438.312 457.018 437.943 459.127 437.943C461.271 437.943 463.17 438.312 464.822 439.051C466.492 439.771 467.898 440.782 469.041 442.083C470.184 443.384 471.054 444.922 471.651 446.697C472.249 448.455 472.548 450.38 472.548 452.472V453.025C472.548 455.1 472.249 457.024 471.651 458.8C471.054 460.558 470.184 462.096 469.041 463.414C467.898 464.715 466.501 465.726 464.849 466.446C463.196 467.167 461.307 467.527 459.18 467.527C457.07 467.527 455.181 467.167 453.511 466.446C451.841 465.726 450.435 464.715 449.292 463.414C448.149 462.096 447.279 460.558 446.682 458.8C446.084 457.024 445.785 455.1 445.785 453.025ZM452.746 452.472V453.025C452.746 454.273 452.869 455.442 453.115 456.532C453.361 457.622 453.739 458.58 454.249 459.406C454.759 460.232 455.418 460.883 456.227 461.357C457.053 461.814 458.037 462.043 459.18 462.043C460.305 462.043 461.271 461.814 462.08 461.357C462.889 460.883 463.548 460.232 464.058 459.406C464.585 458.58 464.972 457.622 465.218 456.532C465.464 455.442 465.587 454.273 465.587 453.025V452.472C465.587 451.241 465.464 450.09 465.218 449.018C464.972 447.928 464.585 446.97 464.058 446.144C463.548 445.3 462.88 444.641 462.054 444.166C461.245 443.674 460.27 443.428 459.127 443.428C458.002 443.428 457.035 443.674 456.227 444.166C455.418 444.641 454.759 445.3 454.249 446.144C453.739 446.97 453.361 447.928 453.115 449.018C452.869 450.09 452.746 451.241 452.746 452.472ZM486.733 467H479.72V435.834C479.72 433.689 480.133 431.888 480.959 430.429C481.785 428.952 482.963 427.836 484.492 427.08C486.021 426.324 487.823 425.946 489.897 425.946C490.583 425.946 491.233 425.99 491.849 426.078C492.481 426.166 493.105 426.289 493.721 426.447L493.589 431.747C493.255 431.659 492.886 431.598 492.481 431.562C492.095 431.527 491.664 431.51 491.189 431.51C490.24 431.51 489.432 431.677 488.764 432.011C488.096 432.345 487.586 432.837 487.234 433.487C486.9 434.12 486.733 434.902 486.733 435.834V467ZM492.508 438.471V443.48H475.422V438.471H492.508ZM217.05 516H208.771L208.823 510.305H217.05C219.282 510.305 221.154 509.812 222.666 508.828C224.178 507.826 225.32 506.394 226.094 504.53C226.867 502.649 227.254 500.399 227.254 497.78V495.803C227.254 493.781 227.034 491.997 226.595 490.45C226.155 488.903 225.505 487.603 224.644 486.548C223.8 485.493 222.754 484.693 221.506 484.148C220.258 483.604 218.825 483.331 217.208 483.331H208.612V477.609H217.208C219.774 477.609 222.112 478.04 224.222 478.901C226.349 479.763 228.186 481.002 229.732 482.619C231.297 484.219 232.492 486.135 233.318 488.367C234.162 490.6 234.584 493.096 234.584 495.855V497.78C234.584 500.522 234.162 503.019 233.318 505.269C232.492 507.501 231.297 509.417 229.732 511.017C228.186 512.616 226.34 513.847 224.195 514.708C222.051 515.569 219.669 516 217.05 516ZM212.831 477.609V516H205.58V477.609H212.831ZM238.987 502.025V501.472C238.987 499.38 239.286 497.455 239.884 495.697C240.481 493.922 241.352 492.384 242.494 491.083C243.637 489.782 245.034 488.771 246.687 488.051C248.339 487.312 250.22 486.943 252.329 486.943C254.474 486.943 256.372 487.312 258.024 488.051C259.694 488.771 261.101 489.782 262.243 491.083C263.386 492.384 264.256 493.922 264.854 495.697C265.451 497.455 265.75 499.38 265.75 501.472V502.025C265.75 504.1 265.451 506.024 264.854 507.8C264.256 509.558 263.386 511.096 262.243 512.414C261.101 513.715 259.703 514.726 258.051 515.446C256.398 516.167 254.509 516.527 252.382 516.527C250.272 516.527 248.383 516.167 246.713 515.446C245.043 514.726 243.637 513.715 242.494 512.414C241.352 511.096 240.481 509.558 239.884 507.8C239.286 506.024 238.987 504.1 238.987 502.025ZM245.948 501.472V502.025C245.948 503.273 246.071 504.442 246.317 505.532C246.563 506.622 246.941 507.58 247.451 508.406C247.961 509.232 248.62 509.883 249.429 510.357C250.255 510.814 251.239 511.043 252.382 511.043C253.507 511.043 254.474 510.814 255.282 510.357C256.091 509.883 256.75 509.232 257.26 508.406C257.787 507.58 258.174 506.622 258.42 505.532C258.666 504.442 258.789 503.273 258.789 502.025V501.472C258.789 500.241 258.666 499.09 258.42 498.018C258.174 496.928 257.787 495.97 257.26 495.144C256.75 494.3 256.082 493.641 255.256 493.166C254.447 492.674 253.472 492.428 252.329 492.428C251.204 492.428 250.237 492.674 249.429 493.166C248.62 493.641 247.961 494.3 247.451 495.144C246.941 495.97 246.563 496.928 246.317 498.018C246.071 499.09 245.948 500.241 245.948 501.472ZM282.52 511.043C283.504 511.043 284.383 510.85 285.156 510.463C285.93 510.076 286.545 509.531 287.002 508.828C287.477 508.125 287.731 507.308 287.767 506.376H294.332C294.297 508.31 293.752 510.041 292.697 511.57C291.643 513.1 290.236 514.312 288.479 515.209C286.738 516.088 284.787 516.527 282.625 516.527C280.428 516.527 278.512 516.158 276.877 515.42C275.242 514.682 273.88 513.653 272.79 512.335C271.718 511.017 270.909 509.487 270.364 507.747C269.837 506.007 269.573 504.144 269.573 502.157V501.313C269.573 499.327 269.837 497.464 270.364 495.724C270.909 493.983 271.718 492.454 272.79 491.136C273.88 489.817 275.242 488.789 276.877 488.051C278.512 487.312 280.419 486.943 282.599 486.943C284.901 486.943 286.923 487.392 288.663 488.288C290.421 489.185 291.792 490.45 292.776 492.085C293.778 493.72 294.297 495.645 294.332 497.859H287.767C287.731 496.84 287.503 495.926 287.081 495.117C286.659 494.309 286.062 493.658 285.288 493.166C284.515 492.674 283.574 492.428 282.467 492.428C281.289 492.428 280.305 492.674 279.514 493.166C278.74 493.658 278.134 494.335 277.694 495.196C277.272 496.04 276.974 496.989 276.798 498.044C276.64 499.081 276.561 500.171 276.561 501.313V502.157C276.561 503.317 276.64 504.425 276.798 505.479C276.974 506.534 277.272 507.483 277.694 508.327C278.134 509.153 278.74 509.812 279.514 510.305C280.305 510.797 281.307 511.043 282.52 511.043ZM315.953 509.224V487.471H322.967V516H316.375L315.953 509.224ZM316.85 503.317L319.012 503.265C319.012 505.181 318.801 506.947 318.379 508.564C317.957 510.182 317.298 511.588 316.401 512.783C315.522 513.961 314.406 514.884 313.053 515.552C311.699 516.202 310.1 516.527 308.254 516.527C306.848 516.527 305.564 516.334 304.404 515.947C303.244 515.543 302.242 514.919 301.398 514.075C300.572 513.214 299.931 512.115 299.474 510.779C299.017 509.426 298.788 507.8 298.788 505.901V487.471H305.749V505.954C305.749 506.903 305.854 507.694 306.065 508.327C306.294 508.96 306.602 509.479 306.988 509.883C307.393 510.27 307.858 510.551 308.386 510.727C308.931 510.885 309.511 510.964 310.126 510.964C311.813 510.964 313.141 510.63 314.107 509.962C315.092 509.276 315.795 508.362 316.217 507.22C316.639 506.06 316.85 504.759 316.85 503.317ZM336.071 493.324V516H329.11V487.471H335.676L336.071 493.324ZM335.043 500.707H332.907C332.907 498.721 333.145 496.893 333.619 495.223C334.111 493.553 334.832 492.103 335.781 490.872C336.73 489.624 337.899 488.657 339.288 487.972C340.694 487.286 342.32 486.943 344.166 486.943C345.449 486.943 346.627 487.137 347.699 487.523C348.771 487.893 349.694 488.481 350.468 489.29C351.259 490.081 351.865 491.118 352.287 492.401C352.709 493.667 352.92 495.188 352.92 496.963V516H345.959V497.675C345.959 496.339 345.766 495.293 345.379 494.537C345.01 493.781 344.474 493.254 343.771 492.955C343.067 492.639 342.224 492.48 341.239 492.48C340.149 492.48 339.209 492.7 338.418 493.14C337.645 493.562 337.003 494.15 336.493 494.906C336.001 495.662 335.632 496.532 335.386 497.517C335.157 498.501 335.043 499.564 335.043 500.707ZM352.393 499.415L349.519 499.942C349.536 498.149 349.782 496.471 350.257 494.906C350.731 493.324 351.426 491.944 352.34 490.767C353.271 489.571 354.423 488.64 355.794 487.972C357.183 487.286 358.782 486.943 360.593 486.943C361.999 486.943 363.265 487.146 364.39 487.55C365.532 487.937 366.508 488.561 367.316 489.422C368.125 490.266 368.74 491.364 369.162 492.718C369.602 494.071 369.821 495.724 369.821 497.675V516H362.808V497.648C362.808 496.26 362.614 495.196 362.228 494.458C361.858 493.72 361.322 493.21 360.619 492.929C359.916 492.63 359.09 492.48 358.141 492.48C357.174 492.48 356.33 492.665 355.609 493.034C354.906 493.386 354.309 493.878 353.816 494.511C353.342 495.144 352.981 495.882 352.735 496.726C352.507 497.552 352.393 498.448 352.393 499.415ZM388.885 516.527C386.723 516.527 384.78 516.176 383.058 515.473C381.335 514.77 379.867 513.794 378.654 512.546C377.459 511.28 376.536 509.812 375.886 508.143C375.253 506.455 374.937 504.645 374.937 502.711V501.656C374.937 499.459 375.253 497.464 375.886 495.671C376.519 493.86 377.415 492.305 378.575 491.004C379.735 489.703 381.124 488.701 382.741 487.998C384.358 487.295 386.143 486.943 388.094 486.943C390.115 486.943 391.899 487.286 393.446 487.972C394.993 488.64 396.285 489.589 397.322 490.819C398.359 492.05 399.142 493.526 399.669 495.249C400.196 496.954 400.46 498.844 400.46 500.918V503.845H378.101V499.046H393.604V498.519C393.569 497.411 393.358 496.4 392.972 495.486C392.585 494.555 391.987 493.816 391.179 493.271C390.37 492.709 389.324 492.428 388.041 492.428C387.004 492.428 386.099 492.656 385.325 493.113C384.569 493.553 383.937 494.186 383.427 495.012C382.935 495.82 382.565 496.787 382.319 497.912C382.073 499.037 381.95 500.285 381.95 501.656V502.711C381.95 503.906 382.108 505.014 382.425 506.033C382.759 507.053 383.242 507.94 383.875 508.696C384.525 509.435 385.299 510.015 386.195 510.437C387.109 510.841 388.146 511.043 389.307 511.043C390.766 511.043 392.084 510.762 393.262 510.199C394.457 509.619 395.494 508.767 396.373 507.642L399.88 511.28C399.282 512.159 398.474 513.003 397.454 513.812C396.452 514.62 395.239 515.279 393.815 515.789C392.392 516.281 390.748 516.527 388.885 516.527ZM411.956 493.562V516H404.995V487.471H411.534L411.956 493.562ZM410.849 500.707H408.792C408.81 498.633 409.091 496.752 409.636 495.064C410.181 493.377 410.945 491.927 411.93 490.714C412.932 489.501 414.118 488.569 415.489 487.919C416.86 487.269 418.39 486.943 420.077 486.943C421.448 486.943 422.688 487.137 423.795 487.523C424.902 487.91 425.852 488.525 426.643 489.369C427.451 490.213 428.066 491.32 428.488 492.691C428.928 494.045 429.147 495.715 429.147 497.701V516H422.134V497.648C422.134 496.348 421.94 495.319 421.554 494.563C421.185 493.808 420.64 493.271 419.919 492.955C419.216 492.639 418.346 492.48 417.309 492.48C416.236 492.48 415.296 492.7 414.487 493.14C413.696 493.562 413.028 494.15 412.483 494.906C411.956 495.662 411.552 496.532 411.271 497.517C410.989 498.501 410.849 499.564 410.849 500.707ZM448.791 487.471V492.48H432.443V487.471H448.791ZM436.82 480.457H443.808V507.773C443.808 508.617 443.922 509.268 444.15 509.725C444.379 510.182 444.722 510.489 445.179 510.647C445.636 510.806 446.181 510.885 446.813 510.885C447.271 510.885 447.692 510.858 448.079 510.806C448.466 510.753 448.791 510.7 449.055 510.647L449.081 515.868C448.501 516.062 447.842 516.22 447.104 516.343C446.383 516.466 445.565 516.527 444.651 516.527C443.087 516.527 441.716 516.264 440.538 515.736C439.36 515.191 438.446 514.321 437.796 513.126C437.146 511.913 436.82 510.313 436.82 508.327V480.457ZM469.12 508.195C469.12 507.598 468.962 507.062 468.646 506.587C468.329 506.112 467.731 505.682 466.853 505.295C465.991 504.891 464.726 504.513 463.056 504.161C461.579 503.845 460.217 503.449 458.969 502.975C457.721 502.5 456.648 501.929 455.752 501.261C454.855 500.575 454.152 499.775 453.643 498.861C453.15 497.93 452.904 496.857 452.904 495.645C452.904 494.467 453.159 493.359 453.669 492.322C454.179 491.268 454.917 490.345 455.884 489.554C456.851 488.745 458.028 488.112 459.417 487.655C460.806 487.181 462.37 486.943 464.11 486.943C466.536 486.943 468.619 487.339 470.359 488.13C472.117 488.921 473.462 490.011 474.394 491.399C475.325 492.771 475.791 494.317 475.791 496.04H468.83C468.83 495.284 468.654 494.599 468.303 493.983C467.969 493.368 467.45 492.876 466.747 492.507C466.044 492.12 465.156 491.927 464.084 491.927C463.117 491.927 462.3 492.085 461.632 492.401C460.981 492.718 460.489 493.131 460.155 493.641C459.821 494.15 459.654 494.713 459.654 495.328C459.654 495.785 459.742 496.198 459.918 496.567C460.111 496.919 460.419 497.244 460.841 497.543C461.263 497.842 461.834 498.114 462.555 498.36C463.293 498.606 464.198 498.844 465.271 499.072C467.397 499.494 469.252 500.057 470.834 500.76C472.434 501.445 473.682 502.359 474.578 503.502C475.475 504.645 475.923 506.104 475.923 507.879C475.923 509.145 475.65 510.305 475.105 511.359C474.561 512.396 473.77 513.302 472.732 514.075C471.695 514.849 470.456 515.455 469.015 515.895C467.573 516.316 465.947 516.527 464.137 516.527C461.518 516.527 459.303 516.062 457.492 515.13C455.682 514.181 454.311 512.985 453.379 511.544C452.447 510.085 451.981 508.573 451.981 507.009H458.652C458.705 508.116 459.004 509.004 459.549 509.672C460.094 510.34 460.779 510.823 461.605 511.122C462.449 511.403 463.337 511.544 464.269 511.544C465.323 511.544 466.211 511.403 466.932 511.122C467.652 510.823 468.197 510.428 468.566 509.936C468.936 509.426 469.12 508.846 469.12 508.195Z" fill="white"/>
<path d="M914.999 555.408C951.45 555.408 980.999 518.637 980.999 473.278C980.999 427.919 951.45 391.148 914.999 391.148C878.549 391.148 849 427.919 849 473.278C849 518.637 878.549 555.408 914.999 555.408Z" fill="#FFA229"/>
<path d="M844.019 574.117C883.463 539.454 896.857 484.348 877.243 435.111C857.654 385.935 809.97 355.013 757.469 356.843L750.809 340.12C780.901 337.83 810.939 345.2 836.539 361.155C862.139 377.11 881.962 400.815 893.114 428.81C904.266 456.806 906.164 487.627 898.53 516.775C890.897 545.923 874.132 571.874 850.682 590.839L844.019 574.117Z" fill="#FFA229"/>
<path d="M765.823 605.161C713.306 607.005 665.662 576.13 646.047 526.894C626.461 477.72 639.848 422.546 679.274 387.887L672.609 371.164C649.157 390.128 632.39 416.079 624.756 445.228C617.122 474.377 619.019 505.199 630.172 533.195C641.325 561.192 661.148 584.897 686.75 600.852C712.351 616.806 742.391 624.175 772.484 621.883L765.823 605.161Z" fill="#FFA229"/>
<path d="M849.511 568.717C898.039 520.272 898.039 441.728 849.511 393.283C800.984 344.839 722.305 344.839 673.777 393.283C625.25 441.728 625.25 520.272 673.777 568.717C722.305 617.161 800.984 617.161 849.511 568.717Z" fill="white"/>
<path d="M836.294 406.482C877.52 447.637 877.52 514.363 836.294 555.518C795.068 596.673 728.228 596.673 687.002 555.518C645.776 514.363 645.776 447.637 687.002 406.482C728.228 365.327 795.068 365.327 836.294 406.482Z" fill="white" stroke="black"/>
<g clip-path="url(#clip1_886_2258)">
<path d="M838.141 491.479C838.141 491.479 838.436 492.589 838.361 493.37L838.425 493.475L838.566 493.495C838.566 493.495 838.731 492.191 838.332 491.352L838.141 491.479Z" fill="#AA5821"/>
<path d="M738.264 520.703C731.73 520.703 726.677 518.872 723.103 515.21C719.558 511.548 717.785 506.274 717.785 499.39V464.497C717.785 457.231 719.47 451.665 722.839 447.798C726.237 443.901 731.379 441.953 738.264 441.953C745.178 441.953 750.319 443.901 753.688 447.798C757.058 451.665 758.742 457.231 758.742 464.497V499.39C758.742 506.274 756.97 511.548 753.425 515.21C749.88 518.872 744.826 520.703 738.264 520.703ZM738.264 506.465C739.465 506.465 740.402 505.923 741.076 504.839C741.75 503.755 742.087 502.539 742.087 501.191V463.003C742.087 461.187 741.882 459.604 741.472 458.257C741.091 456.88 740.021 456.191 738.264 456.191C736.506 456.191 735.422 456.88 735.012 458.257C734.631 459.604 734.44 461.187 734.44 463.003V501.191C734.44 502.539 734.777 503.755 735.451 504.839C736.154 505.923 737.092 506.465 738.264 506.465ZM763.225 520V516.309C763.225 512.471 763.811 509.028 764.982 505.981C766.184 502.905 767.722 500.063 769.597 497.456C771.472 494.819 773.449 492.241 775.529 489.722C777.551 487.261 779.47 484.741 781.286 482.163C783.132 479.556 784.626 476.743 785.769 473.726C786.94 470.679 787.526 467.266 787.526 463.486C787.526 461.67 787.248 460.117 786.691 458.828C786.164 457.51 785.051 456.851 783.352 456.851C780.773 456.851 779.484 459.15 779.484 463.75V473.198H763.225C763.195 472.524 763.151 471.763 763.093 470.913C763.063 470.063 763.049 469.243 763.049 468.452C763.049 462.886 763.635 458.169 764.807 454.302C765.979 450.405 768.044 447.446 771.003 445.425C773.991 443.374 778.181 442.349 783.571 442.349C789.987 442.349 794.968 444.15 798.513 447.754C802.087 451.357 803.874 456.499 803.874 463.179C803.874 467.72 803.288 471.704 802.116 475.132C800.944 478.53 799.392 481.636 797.458 484.448C795.524 487.231 793.4 490.015 791.086 492.798C789.445 494.761 787.849 496.768 786.296 498.818C784.772 500.869 783.425 503.066 782.253 505.41H803.347V520H763.225Z" fill="#1C4670"/>
</g>
<path d="M221.603 233.703C215.069 233.703 210.016 231.872 206.441 228.21C202.896 224.548 201.124 219.274 201.124 212.39V177.497C201.124 170.231 202.809 164.665 206.178 160.798C209.576 156.901 214.718 154.953 221.603 154.953C228.517 154.953 233.658 156.901 237.027 160.798C240.396 164.665 242.081 170.231 242.081 177.497V212.39C242.081 219.274 240.309 224.548 236.764 228.21C233.219 231.872 228.165 233.703 221.603 233.703ZM221.603 219.465C222.804 219.465 223.741 218.923 224.415 217.839C225.089 216.755 225.426 215.539 225.426 214.191V176.003C225.426 174.187 225.221 172.604 224.811 171.257C224.43 169.88 223.36 169.191 221.603 169.191C219.845 169.191 218.761 169.88 218.351 171.257C217.97 172.604 217.779 174.187 217.779 176.003V214.191C217.779 215.539 218.116 216.755 218.79 217.839C219.493 218.923 220.431 219.465 221.603 219.465ZM254.518 233V173.41C253.463 174.67 252.013 175.695 250.167 176.486C248.321 177.248 246.578 177.629 244.938 177.629V165.28C246.49 165.046 248.16 164.548 249.947 163.786C251.734 162.995 253.39 161.926 254.913 160.578C256.466 159.201 257.652 157.546 258.473 155.612H270.909V233H254.518Z" fill="white"/>
<path d="M914.999 841.111C951.45 841.111 980.999 804.34 980.999 758.981C980.999 713.622 951.45 676.852 914.999 676.852C878.549 676.852 849 713.622 849 758.981C849 804.34 878.549 841.111 914.999 841.111Z" fill="#1C4670"/>
<path d="M85.0006 963.03C48.5502 963.03 19.0014 999.801 19.0014 1045.16C19.0014 1090.52 48.5503 1127.29 85.0007 1127.29C121.451 1127.29 151 1090.52 151 1045.16C151 999.801 121.451 963.03 85.0006 963.03Z" fill="#FFA229"/>
<path d="M907.284 676.852H81.8633V841.109H907.284V676.852Z" fill="#1C4670"/>
<path d="M479.232 744.437L468.29 777H460.617L474.961 738.609H479.865L479.232 744.437ZM488.382 777L477.387 744.437L476.728 738.609H481.658L496.081 777H488.382ZM487.881 762.735V768.457H467.288V762.735H487.881ZM505.784 753.955V787.969H498.797V748.471H505.257L505.784 753.955ZM524.109 762.445V762.999C524.109 765.073 523.863 766.998 523.371 768.773C522.896 770.531 522.193 772.069 521.262 773.388C520.33 774.688 519.17 775.708 517.781 776.446C516.41 777.167 514.828 777.527 513.035 777.527C511.277 777.527 509.748 777.193 508.447 776.525C507.146 775.84 506.048 774.873 505.151 773.625C504.255 772.377 503.534 770.927 502.989 769.274C502.462 767.604 502.066 765.785 501.803 763.816V762.05C502.066 759.958 502.462 758.06 502.989 756.354C503.534 754.632 504.255 753.146 505.151 751.898C506.048 750.633 507.138 749.657 508.421 748.972C509.722 748.286 511.242 747.943 512.982 747.943C514.793 747.943 516.384 748.286 517.755 748.972C519.144 749.657 520.312 750.642 521.262 751.925C522.211 753.208 522.923 754.737 523.397 756.513C523.872 758.288 524.109 760.266 524.109 762.445ZM517.122 762.999V762.445C517.122 761.18 517.008 760.011 516.779 758.938C516.551 757.849 516.199 756.899 515.725 756.091C515.25 755.265 514.635 754.623 513.879 754.166C513.123 753.709 512.209 753.48 511.137 753.48C510.064 753.48 509.142 753.656 508.368 754.008C507.595 754.359 506.962 754.86 506.47 755.511C505.978 756.161 505.591 756.935 505.31 757.831C505.046 758.71 504.87 759.686 504.782 760.758V765.135C504.94 766.436 505.248 767.604 505.705 768.642C506.162 769.679 506.83 770.505 507.709 771.12C508.605 771.735 509.766 772.043 511.189 772.043C512.262 772.043 513.176 771.806 513.932 771.331C514.688 770.856 515.303 770.206 515.777 769.38C516.252 768.536 516.595 767.569 516.806 766.479C517.017 765.39 517.122 764.229 517.122 762.999ZM536.159 753.955V787.969H529.172V748.471H535.632L536.159 753.955ZM554.484 762.445V762.999C554.484 765.073 554.238 766.998 553.746 768.773C553.271 770.531 552.568 772.069 551.637 773.388C550.705 774.688 549.545 775.708 548.156 776.446C546.785 777.167 545.203 777.527 543.41 777.527C541.652 777.527 540.123 777.193 538.822 776.525C537.521 775.84 536.423 774.873 535.526 773.625C534.63 772.377 533.909 770.927 533.364 769.274C532.837 767.604 532.441 765.785 532.178 763.816V762.05C532.441 759.958 532.837 758.06 533.364 756.354C533.909 754.632 534.63 753.146 535.526 751.898C536.423 750.633 537.513 749.657 538.796 748.972C540.097 748.286 541.617 747.943 543.357 747.943C545.168 747.943 546.759 748.286 548.13 748.972C549.519 749.657 550.688 750.642 551.637 751.925C552.586 753.208 553.298 754.737 553.772 756.513C554.247 758.288 554.484 760.266 554.484 762.445ZM547.497 762.999V762.445C547.497 761.18 547.383 760.011 547.154 758.938C546.926 757.849 546.574 756.899 546.1 756.091C545.625 755.265 545.01 754.623 544.254 754.166C543.498 753.709 542.584 753.48 541.512 753.48C540.439 753.48 539.517 753.656 538.743 754.008C537.97 754.359 537.337 754.86 536.845 755.511C536.353 756.161 535.966 756.935 535.685 757.831C535.421 758.71 535.245 759.686 535.157 760.758V765.135C535.315 766.436 535.623 767.604 536.08 768.642C536.537 769.679 537.205 770.505 538.084 771.12C538.98 771.735 540.141 772.043 541.564 772.043C542.637 772.043 543.551 771.806 544.307 771.331C545.062 770.856 545.678 770.206 546.152 769.38C546.627 768.536 546.97 767.569 547.181 766.479C547.392 765.39 547.497 764.229 547.497 762.999ZM566.956 736.5V777H559.969V736.5H566.956ZM580.983 748.471V777H573.996V748.471H580.983ZM573.521 741.009C573.521 739.972 573.873 739.11 574.576 738.425C575.297 737.739 576.264 737.396 577.477 737.396C578.689 737.396 579.647 737.739 580.351 738.425C581.071 739.11 581.432 739.972 581.432 741.009C581.432 742.028 581.071 742.881 580.351 743.566C579.647 744.252 578.689 744.595 577.477 744.595C576.264 744.595 575.297 744.252 574.576 743.566C573.873 742.881 573.521 742.028 573.521 741.009ZM599.335 772.043C600.319 772.043 601.198 771.85 601.972 771.463C602.745 771.076 603.36 770.531 603.817 769.828C604.292 769.125 604.547 768.308 604.582 767.376H611.147C611.112 769.31 610.567 771.041 609.513 772.57C608.458 774.1 607.052 775.312 605.294 776.209C603.554 777.088 601.603 777.527 599.44 777.527C597.243 777.527 595.327 777.158 593.692 776.42C592.058 775.682 590.695 774.653 589.605 773.335C588.533 772.017 587.725 770.487 587.18 768.747C586.652 767.007 586.389 765.144 586.389 763.157V762.313C586.389 760.327 586.652 758.464 587.18 756.724C587.725 754.983 588.533 753.454 589.605 752.136C590.695 750.817 592.058 749.789 593.692 749.051C595.327 748.312 597.234 747.943 599.414 747.943C601.717 747.943 603.738 748.392 605.479 749.288C607.236 750.185 608.607 751.45 609.592 753.085C610.594 754.72 611.112 756.645 611.147 758.859H604.582C604.547 757.84 604.318 756.926 603.896 756.117C603.475 755.309 602.877 754.658 602.104 754.166C601.33 753.674 600.39 753.428 599.282 753.428C598.104 753.428 597.12 753.674 596.329 754.166C595.556 754.658 594.949 755.335 594.51 756.196C594.088 757.04 593.789 757.989 593.613 759.044C593.455 760.081 593.376 761.171 593.376 762.313V763.157C593.376 764.317 593.455 765.425 593.613 766.479C593.789 767.534 594.088 768.483 594.51 769.327C594.949 770.153 595.556 770.812 596.329 771.305C597.12 771.797 598.122 772.043 599.335 772.043ZM631.503 770.936V757.778C631.503 756.812 631.336 755.977 631.002 755.273C630.668 754.57 630.158 754.025 629.473 753.639C628.787 753.252 627.917 753.059 626.862 753.059C625.931 753.059 625.113 753.217 624.41 753.533C623.725 753.85 623.197 754.298 622.828 754.878C622.459 755.44 622.274 756.091 622.274 756.829H615.287C615.287 755.651 615.568 754.535 616.131 753.48C616.693 752.408 617.493 751.459 618.53 750.633C619.585 749.789 620.842 749.13 622.301 748.655C623.777 748.181 625.43 747.943 627.258 747.943C629.42 747.943 631.345 748.312 633.032 749.051C634.737 749.771 636.073 750.861 637.04 752.32C638.024 753.779 638.517 755.616 638.517 757.831V770.276C638.517 771.7 638.604 772.922 638.78 773.941C638.974 774.943 639.255 775.813 639.624 776.552V777H632.531C632.197 776.279 631.942 775.365 631.767 774.258C631.591 773.133 631.503 772.025 631.503 770.936ZM632.479 759.624L632.531 763.764H628.128C627.038 763.764 626.08 763.878 625.254 764.106C624.428 764.317 623.751 764.634 623.224 765.056C622.696 765.46 622.301 765.952 622.037 766.532C621.773 767.095 621.642 767.736 621.642 768.457C621.642 769.16 621.8 769.793 622.116 770.355C622.45 770.918 622.925 771.366 623.54 771.7C624.173 772.017 624.911 772.175 625.755 772.175C626.985 772.175 628.058 771.929 628.972 771.437C629.886 770.927 630.598 770.312 631.107 769.591C631.617 768.87 631.89 768.185 631.925 767.534L633.929 770.54C633.683 771.261 633.313 772.025 632.821 772.834C632.329 773.643 631.696 774.398 630.923 775.102C630.149 775.805 629.218 776.385 628.128 776.842C627.038 777.299 625.772 777.527 624.331 777.527C622.485 777.527 620.833 777.158 619.374 776.42C617.915 775.682 616.764 774.671 615.92 773.388C615.076 772.104 614.654 770.646 614.654 769.011C614.654 767.499 614.936 766.163 615.498 765.003C616.061 763.843 616.896 762.867 618.003 762.076C619.11 761.268 620.481 760.661 622.116 760.257C623.769 759.835 625.658 759.624 627.785 759.624H632.479ZM658.292 748.471V753.48H641.944V748.471H658.292ZM646.321 741.457H653.309V768.773C653.309 769.617 653.423 770.268 653.651 770.725C653.88 771.182 654.223 771.489 654.68 771.647C655.137 771.806 655.682 771.885 656.314 771.885C656.771 771.885 657.193 771.858 657.58 771.806C657.967 771.753 658.292 771.7 658.556 771.647L658.582 776.868C658.002 777.062 657.343 777.22 656.604 777.343C655.884 777.466 655.066 777.527 654.152 777.527C652.588 777.527 651.217 777.264 650.039 776.736C648.861 776.191 647.947 775.321 647.297 774.126C646.646 772.913 646.321 771.313 646.321 769.327V741.457ZM670.315 748.471V777H663.328V748.471H670.315ZM662.854 741.009C662.854 739.972 663.205 739.11 663.908 738.425C664.629 737.739 665.596 737.396 666.809 737.396C668.021 737.396 668.979 737.739 669.683 738.425C670.403 739.11 670.764 739.972 670.764 741.009C670.764 742.028 670.403 742.881 669.683 743.566C668.979 744.252 668.021 744.595 666.809 744.595C665.596 744.595 664.629 744.252 663.908 743.566C663.205 742.881 662.854 742.028 662.854 741.009ZM675.721 763.025V762.472C675.721 760.38 676.02 758.455 676.617 756.697C677.215 754.922 678.085 753.384 679.228 752.083C680.37 750.782 681.768 749.771 683.42 749.051C685.072 748.312 686.953 747.943 689.062 747.943C691.207 747.943 693.105 748.312 694.758 749.051C696.428 749.771 697.834 750.782 698.977 752.083C700.119 753.384 700.989 754.922 701.587 756.697C702.185 758.455 702.483 760.38 702.483 762.472V763.025C702.483 765.1 702.185 767.024 701.587 768.8C700.989 770.558 700.119 772.096 698.977 773.414C697.834 774.715 696.437 775.726 694.784 776.446C693.132 777.167 691.242 777.527 689.115 777.527C687.006 777.527 685.116 777.167 683.446 776.446C681.776 775.726 680.37 774.715 679.228 773.414C678.085 772.096 677.215 770.558 676.617 768.8C676.02 767.024 675.721 765.1 675.721 763.025ZM682.682 762.472V763.025C682.682 764.273 682.805 765.442 683.051 766.532C683.297 767.622 683.675 768.58 684.185 769.406C684.694 770.232 685.354 770.883 686.162 771.357C686.988 771.814 687.973 772.043 689.115 772.043C690.24 772.043 691.207 771.814 692.016 771.357C692.824 770.883 693.483 770.232 693.993 769.406C694.521 768.58 694.907 767.622 695.153 766.532C695.399 765.442 695.522 764.273 695.522 763.025V762.472C695.522 761.241 695.399 760.09 695.153 759.018C694.907 757.928 694.521 756.97 693.993 756.144C693.483 755.3 692.815 754.641 691.989 754.166C691.181 753.674 690.205 753.428 689.062 753.428C687.938 753.428 686.971 753.674 686.162 754.166C685.354 754.641 684.694 755.3 684.185 756.144C683.675 756.97 683.297 757.928 683.051 759.018C682.805 760.09 682.682 761.241 682.682 762.472ZM714.375 754.562V777H707.414V748.471H713.953L714.375 754.562ZM713.268 761.707H711.211C711.229 759.633 711.51 757.752 712.055 756.064C712.6 754.377 713.364 752.927 714.349 751.714C715.351 750.501 716.537 749.569 717.908 748.919C719.279 748.269 720.809 747.943 722.496 747.943C723.867 747.943 725.106 748.137 726.214 748.523C727.321 748.91 728.271 749.525 729.062 750.369C729.87 751.213 730.485 752.32 730.907 753.691C731.347 755.045 731.566 756.715 731.566 758.701V777H724.553V758.648C724.553 757.348 724.359 756.319 723.973 755.563C723.604 754.808 723.059 754.271 722.338 753.955C721.635 753.639 720.765 753.48 719.728 753.48C718.655 753.48 717.715 753.7 716.906 754.14C716.115 754.562 715.447 755.15 714.902 755.906C714.375 756.662 713.971 757.532 713.689 758.517C713.408 759.501 713.268 760.564 713.268 761.707ZM758.936 738.609V777H751.685V738.609H758.936ZM774.413 755.194V760.916H757.037V755.194H774.413ZM776.443 738.609V744.331H757.037V738.609H776.443ZM788.229 748.471V777H781.242V748.471H788.229ZM780.768 741.009C780.768 739.972 781.119 739.11 781.822 738.425C782.543 737.739 783.51 737.396 784.723 737.396C785.936 737.396 786.894 737.739 787.597 738.425C788.317 739.11 788.678 739.972 788.678 741.009C788.678 742.028 788.317 742.881 787.597 743.566C786.894 744.252 785.936 744.595 784.723 744.595C783.51 744.595 782.543 744.252 781.822 743.566C781.119 742.881 780.768 742.028 780.768 741.009ZM802.257 736.5V777H795.27V736.5H802.257ZM816.284 748.471V777H809.297V748.471H816.284ZM808.822 741.009C808.822 739.972 809.174 739.11 809.877 738.425C810.598 737.739 811.564 737.396 812.777 737.396C813.99 737.396 814.948 737.739 815.651 738.425C816.372 739.11 816.732 739.972 816.732 741.009C816.732 742.028 816.372 742.881 815.651 743.566C814.948 744.252 813.99 744.595 812.777 744.595C811.564 744.595 810.598 744.252 809.877 743.566C809.174 742.881 808.822 742.028 808.822 741.009ZM829.758 754.562V777H822.797V748.471H829.336L829.758 754.562ZM828.65 761.707H826.594C826.611 759.633 826.893 757.752 827.438 756.064C827.982 754.377 828.747 752.927 829.731 751.714C830.733 750.501 831.92 749.569 833.291 748.919C834.662 748.269 836.191 747.943 837.879 747.943C839.25 747.943 840.489 748.137 841.597 748.523C842.704 748.91 843.653 749.525 844.444 750.369C845.253 751.213 845.868 752.32 846.29 753.691C846.729 755.045 846.949 756.715 846.949 758.701V777H839.936V758.648C839.936 757.348 839.742 756.319 839.355 755.563C838.986 754.808 838.441 754.271 837.721 753.955C837.018 753.639 836.147 753.48 835.11 753.48C834.038 753.48 833.098 753.7 832.289 754.14C831.498 754.562 830.83 755.15 830.285 755.906C829.758 756.662 829.354 757.532 829.072 758.517C828.791 759.501 828.65 760.564 828.65 761.707ZM871.233 748.471H877.562V776.13C877.562 778.714 876.999 780.902 875.874 782.695C874.767 784.506 873.211 785.877 871.207 786.809C869.203 787.758 866.874 788.232 864.22 788.232C863.077 788.232 861.838 788.074 860.502 787.758C859.184 787.441 857.909 786.94 856.679 786.255C855.466 785.587 854.455 784.717 853.646 783.645L856.784 779.531C857.733 780.639 858.806 781.474 860.001 782.036C861.196 782.616 862.488 782.906 863.877 782.906C865.283 782.906 866.479 782.643 867.463 782.115C868.465 781.605 869.229 780.85 869.757 779.848C870.302 778.863 870.574 777.65 870.574 776.209V754.983L871.233 748.471ZM851.959 763.078V762.524C851.959 760.345 852.223 758.367 852.75 756.592C853.277 754.799 854.033 753.261 855.018 751.978C856.02 750.694 857.224 749.701 858.63 748.998C860.054 748.295 861.653 747.943 863.429 747.943C865.31 747.943 866.892 748.286 868.175 748.972C869.476 749.657 870.548 750.633 871.392 751.898C872.253 753.164 872.921 754.667 873.396 756.407C873.888 758.13 874.266 760.028 874.529 762.103V763.605C874.283 765.627 873.888 767.481 873.343 769.169C872.815 770.856 872.112 772.333 871.233 773.599C870.354 774.847 869.265 775.813 867.964 776.499C866.663 777.185 865.134 777.527 863.376 777.527C861.618 777.527 860.036 777.167 858.63 776.446C857.224 775.726 856.02 774.715 855.018 773.414C854.033 772.113 853.277 770.584 852.75 768.826C852.223 767.068 851.959 765.152 851.959 763.078ZM858.92 762.524V763.078C858.92 764.309 859.043 765.46 859.289 766.532C859.535 767.604 859.913 768.554 860.423 769.38C860.933 770.188 861.574 770.821 862.348 771.278C863.121 771.735 864.044 771.964 865.116 771.964C866.558 771.964 867.735 771.665 868.649 771.067C869.581 770.452 870.284 769.617 870.759 768.562C871.251 767.49 871.567 766.286 871.708 764.95V760.811C871.62 759.756 871.427 758.78 871.128 757.884C870.847 756.987 870.451 756.214 869.941 755.563C869.432 754.913 868.781 754.403 867.99 754.034C867.199 753.665 866.259 753.48 865.169 753.48C864.114 753.48 863.191 753.718 862.4 754.192C861.609 754.649 860.959 755.291 860.449 756.117C859.939 756.943 859.553 757.901 859.289 758.991C859.043 760.081 858.92 761.259 858.92 762.524Z" fill="white"/>
<path d="M92.7161 1127L918.137 1127L918.137 962.743L92.7161 962.743L92.7161 1127Z" fill="#FFA229"/>
<path d="M185.985 992.609H199.564C202.482 992.609 204.97 993.049 207.026 993.928C209.083 994.807 210.656 996.107 211.746 997.83C212.854 999.535 213.407 1001.64 213.407 1004.16C213.407 1006.07 213.056 1007.76 212.353 1009.22C211.649 1010.68 210.656 1011.91 209.373 1012.91C208.09 1013.9 206.561 1014.66 204.785 1015.21L202.781 1016.18H190.573L190.521 1010.93H199.67C201.252 1010.93 202.57 1010.65 203.625 1010.09C204.68 1009.53 205.471 1008.76 205.998 1007.8C206.543 1006.81 206.815 1005.71 206.815 1004.47C206.815 1003.14 206.552 1001.98 206.024 1000.99C205.515 999.992 204.724 999.228 203.651 998.7C202.579 998.155 201.217 997.883 199.564 997.883H192.604V1031H185.985V992.609ZM207.896 1031L198.879 1013.76L205.813 1013.73L214.963 1030.66V1031H207.896ZM231.943 1031.53C229.834 1031.53 227.927 1031.18 226.222 1030.5C224.534 1029.8 223.093 1028.82 221.897 1027.57C220.72 1026.32 219.814 1024.86 219.182 1023.17C218.549 1021.48 218.232 1019.66 218.232 1017.71V1016.66C218.232 1014.42 218.558 1012.4 219.208 1010.59C219.858 1008.78 220.764 1007.23 221.924 1005.95C223.084 1004.65 224.455 1003.66 226.037 1002.97C227.619 1002.29 229.333 1001.94 231.179 1001.94C233.218 1001.94 235.002 1002.29 236.531 1002.97C238.061 1003.66 239.326 1004.62 240.328 1005.87C241.348 1007.1 242.104 1008.57 242.596 1010.28C243.105 1011.98 243.36 1013.86 243.36 1015.92V1018.63H221.317V1014.07H237.085V1013.57C237.05 1012.43 236.821 1011.36 236.399 1010.35C235.995 1009.35 235.371 1008.54 234.527 1007.93C233.684 1007.31 232.559 1007.01 231.152 1007.01C230.098 1007.01 229.157 1007.23 228.331 1007.69C227.522 1008.13 226.846 1008.77 226.301 1009.62C225.756 1010.46 225.334 1011.48 225.035 1012.67C224.754 1013.85 224.613 1015.18 224.613 1016.66V1017.71C224.613 1018.96 224.78 1020.12 225.114 1021.19C225.466 1022.25 225.976 1023.17 226.644 1023.96C227.312 1024.75 228.12 1025.38 229.069 1025.83C230.019 1026.27 231.1 1026.49 232.312 1026.49C233.842 1026.49 235.204 1026.18 236.399 1025.57C237.595 1024.95 238.632 1024.08 239.511 1022.96L242.859 1026.2C242.244 1027.1 241.444 1027.96 240.46 1028.79C239.476 1029.59 238.271 1030.25 236.848 1030.76C235.441 1031.27 233.807 1031.53 231.943 1031.53ZM266.59 1002.47H272.364V1030.21C272.364 1032.78 271.819 1034.96 270.729 1036.75C269.64 1038.54 268.119 1039.9 266.168 1040.83C264.217 1041.78 261.958 1042.26 259.392 1042.26C258.302 1042.26 257.089 1042.1 255.753 1041.78C254.435 1041.47 253.151 1040.96 251.903 1040.25C250.673 1039.57 249.645 1038.66 248.818 1037.54L251.798 1033.79C252.817 1035.01 253.942 1035.9 255.173 1036.46C256.403 1037.02 257.695 1037.3 259.049 1037.3C260.508 1037.3 261.747 1037.03 262.767 1036.48C263.804 1035.96 264.604 1035.17 265.166 1034.14C265.729 1033.1 266.01 1031.83 266.01 1030.34V1008.93L266.59 1002.47ZM247.21 1017.05V1016.5C247.21 1014.34 247.474 1012.37 248.001 1010.59C248.528 1008.8 249.284 1007.26 250.269 1005.98C251.253 1004.68 252.448 1003.68 253.854 1003C255.261 1002.29 256.852 1001.94 258.627 1001.94C260.473 1001.94 262.046 1002.28 263.347 1002.95C264.665 1003.61 265.764 1004.57 266.643 1005.82C267.521 1007.05 268.207 1008.53 268.699 1010.25C269.209 1011.95 269.587 1013.85 269.833 1015.94V1017.71C269.604 1019.75 269.218 1021.61 268.673 1023.3C268.128 1024.99 267.407 1026.45 266.511 1027.68C265.614 1028.91 264.507 1029.86 263.188 1030.53C261.888 1031.19 260.35 1031.53 258.574 1031.53C256.834 1031.53 255.261 1031.17 253.854 1030.45C252.466 1029.73 251.271 1028.71 250.269 1027.41C249.284 1026.11 248.528 1024.58 248.001 1022.83C247.474 1021.05 247.21 1019.13 247.21 1017.05ZM253.564 1016.5V1017.05C253.564 1018.35 253.688 1019.57 253.934 1020.69C254.197 1021.82 254.593 1022.81 255.12 1023.67C255.665 1024.51 256.351 1025.18 257.177 1025.67C258.021 1026.15 259.014 1026.39 260.156 1026.39C261.65 1026.39 262.872 1026.07 263.821 1025.44C264.788 1024.8 265.526 1023.95 266.036 1022.88C266.563 1021.79 266.933 1020.58 267.144 1019.24V1014.47C267.038 1013.43 266.818 1012.46 266.484 1011.57C266.168 1010.67 265.737 1009.89 265.192 1009.22C264.647 1008.54 263.962 1008.01 263.136 1007.64C262.31 1007.25 261.334 1007.06 260.209 1007.06C259.066 1007.06 258.073 1007.3 257.229 1007.8C256.386 1008.29 255.691 1008.97 255.146 1009.83C254.619 1010.69 254.224 1011.69 253.96 1012.83C253.696 1013.98 253.564 1015.2 253.564 1016.5ZM285.759 1002.47V1031H279.378V1002.47H285.759ZM278.956 994.982C278.956 994.016 279.272 993.216 279.905 992.583C280.556 991.933 281.452 991.607 282.595 991.607C283.72 991.607 284.607 991.933 285.258 992.583C285.908 993.216 286.233 994.016 286.233 994.982C286.233 995.932 285.908 996.723 285.258 997.355C284.607 997.988 283.72 998.305 282.595 998.305C281.452 998.305 280.556 997.988 279.905 997.355C279.272 996.723 278.956 995.932 278.956 994.982ZM308.725 1023.27C308.725 1022.64 308.566 1022.07 308.25 1021.56C307.934 1021.03 307.327 1020.56 306.431 1020.14C305.552 1019.71 304.251 1019.33 302.528 1018.98C301.017 1018.64 299.628 1018.25 298.362 1017.79C297.114 1017.32 296.042 1016.74 295.146 1016.08C294.249 1015.41 293.555 1014.62 293.062 1013.7C292.57 1012.79 292.324 1011.73 292.324 1010.54C292.324 1009.38 292.579 1008.28 293.089 1007.24C293.599 1006.21 294.328 1005.29 295.277 1004.5C296.227 1003.71 297.378 1003.09 298.731 1002.63C300.103 1002.17 301.632 1001.94 303.319 1001.94C305.71 1001.94 307.758 1002.35 309.463 1003.16C311.186 1003.95 312.504 1005.03 313.418 1006.4C314.332 1007.75 314.789 1009.28 314.789 1010.99H308.435C308.435 1010.23 308.241 1009.53 307.854 1008.88C307.485 1008.21 306.923 1007.67 306.167 1007.27C305.411 1006.85 304.462 1006.64 303.319 1006.64C302.229 1006.64 301.324 1006.81 300.604 1007.16C299.9 1007.5 299.373 1007.94 299.021 1008.48C298.688 1009.03 298.521 1009.62 298.521 1010.28C298.521 1010.75 298.608 1011.18 298.784 1011.57C298.978 1011.94 299.294 1012.28 299.733 1012.6C300.173 1012.89 300.771 1013.18 301.526 1013.44C302.3 1013.7 303.267 1013.96 304.427 1014.2C306.606 1014.66 308.479 1015.25 310.043 1015.97C311.625 1016.67 312.838 1017.59 313.682 1018.71C314.525 1019.82 314.947 1021.23 314.947 1022.93C314.947 1024.2 314.675 1025.36 314.13 1026.41C313.603 1027.45 312.829 1028.35 311.81 1029.13C310.79 1029.88 309.568 1030.47 308.145 1030.89C306.738 1031.32 305.156 1031.53 303.398 1031.53C300.814 1031.53 298.626 1031.07 296.833 1030.16C295.04 1029.22 293.678 1028.04 292.746 1026.6C291.832 1025.14 291.375 1023.63 291.375 1022.06H297.519C297.589 1023.24 297.914 1024.18 298.494 1024.88C299.092 1025.57 299.83 1026.07 300.709 1026.39C301.605 1026.68 302.528 1026.83 303.478 1026.83C304.62 1026.83 305.578 1026.68 306.352 1026.39C307.125 1026.07 307.714 1025.65 308.118 1025.12C308.522 1024.58 308.725 1023.96 308.725 1023.27ZM333.589 1002.47V1007.11H317.505V1002.47H333.589ZM322.146 995.483H328.5V1023.12C328.5 1024 328.623 1024.67 328.869 1025.15C329.133 1025.6 329.493 1025.91 329.95 1026.07C330.407 1026.23 330.943 1026.31 331.559 1026.31C331.998 1026.31 332.42 1026.28 332.824 1026.23C333.229 1026.17 333.554 1026.12 333.8 1026.07L333.826 1030.92C333.299 1031.08 332.684 1031.22 331.98 1031.34C331.295 1031.47 330.504 1031.53 329.607 1031.53C328.148 1031.53 326.856 1031.27 325.731 1030.76C324.606 1030.24 323.728 1029.38 323.095 1028.21C322.462 1027.03 322.146 1025.46 322.146 1023.51V995.483ZM344.874 1007.9V1031H338.52V1002.47H344.584L344.874 1007.9ZM353.602 1002.29L353.549 1008.19C353.162 1008.12 352.74 1008.07 352.283 1008.03C351.844 1008 351.404 1007.98 350.965 1007.98C349.875 1007.98 348.917 1008.14 348.091 1008.46C347.265 1008.75 346.57 1009.19 346.008 1009.77C345.463 1010.34 345.041 1011.02 344.742 1011.83C344.443 1012.64 344.268 1013.54 344.215 1014.55L342.765 1014.65C342.765 1012.86 342.94 1011.2 343.292 1009.67C343.644 1008.14 344.171 1006.79 344.874 1005.63C345.595 1004.47 346.491 1003.57 347.563 1002.92C348.653 1002.27 349.91 1001.94 351.334 1001.94C351.721 1001.94 352.134 1001.98 352.573 1002.05C353.03 1002.12 353.373 1002.2 353.602 1002.29ZM372.718 1025.28V1011.67C372.718 1010.65 372.533 1009.77 372.164 1009.04C371.795 1008.3 371.232 1007.73 370.477 1007.32C369.738 1006.92 368.807 1006.72 367.682 1006.72C366.645 1006.72 365.748 1006.89 364.992 1007.24C364.236 1007.59 363.647 1008.07 363.226 1008.67C362.804 1009.26 362.593 1009.94 362.593 1010.7H356.265C356.265 1009.57 356.537 1008.48 357.082 1007.43C357.627 1006.37 358.418 1005.43 359.455 1004.61C360.492 1003.78 361.731 1003.13 363.173 1002.66C364.614 1002.18 366.231 1001.94 368.024 1001.94C370.169 1001.94 372.067 1002.3 373.72 1003.02C375.39 1003.75 376.699 1004.83 377.648 1006.29C378.615 1007.74 379.099 1009.55 379.099 1011.73V1024.41C379.099 1025.71 379.187 1026.88 379.362 1027.92C379.556 1028.93 379.828 1029.82 380.18 1030.58V1031H373.667C373.368 1030.31 373.131 1029.44 372.955 1028.39C372.797 1027.32 372.718 1026.28 372.718 1025.28ZM373.641 1013.65L373.693 1017.58H369.132C367.954 1017.58 366.917 1017.69 366.021 1017.92C365.124 1018.13 364.377 1018.45 363.779 1018.87C363.182 1019.29 362.733 1019.8 362.435 1020.4C362.136 1021 361.986 1021.67 361.986 1022.43C361.986 1023.19 362.162 1023.88 362.514 1024.51C362.865 1025.13 363.375 1025.61 364.043 1025.96C364.729 1026.32 365.555 1026.49 366.521 1026.49C367.822 1026.49 368.956 1026.23 369.923 1025.7C370.907 1025.16 371.681 1024.5 372.243 1023.72C372.806 1022.93 373.104 1022.18 373.14 1021.48L375.196 1024.3C374.985 1025.02 374.625 1025.8 374.115 1026.62C373.605 1027.45 372.938 1028.24 372.111 1029C371.303 1029.73 370.327 1030.34 369.185 1030.82C368.06 1031.29 366.759 1031.53 365.282 1031.53C363.419 1031.53 361.758 1031.16 360.299 1030.42C358.84 1029.66 357.697 1028.65 356.871 1027.39C356.045 1026.1 355.632 1024.65 355.632 1023.04C355.632 1021.53 355.913 1020.19 356.476 1019.03C357.056 1017.85 357.899 1016.87 359.007 1016.08C360.132 1015.29 361.503 1014.69 363.12 1014.28C364.737 1013.86 366.583 1013.65 368.657 1013.65H373.641ZM398.821 1002.47V1007.11H382.737V1002.47H398.821ZM387.378 995.483H393.732V1023.12C393.732 1024 393.855 1024.67 394.102 1025.15C394.365 1025.6 394.726 1025.91 395.183 1026.07C395.64 1026.23 396.176 1026.31 396.791 1026.31C397.23 1026.31 397.652 1026.28 398.057 1026.23C398.461 1026.17 398.786 1026.12 399.032 1026.07L399.059 1030.92C398.531 1031.08 397.916 1031.22 397.213 1031.34C396.527 1031.47 395.736 1031.53 394.84 1031.53C393.381 1031.53 392.089 1031.27 390.964 1030.76C389.839 1030.24 388.96 1029.38 388.327 1028.21C387.694 1027.03 387.378 1025.46 387.378 1023.51V995.483ZM410.528 1002.47V1031H404.147V1002.47H410.528ZM403.726 994.982C403.726 994.016 404.042 993.216 404.675 992.583C405.325 991.933 406.222 991.607 407.364 991.607C408.489 991.607 409.377 991.933 410.027 992.583C410.678 993.216 411.003 994.016 411.003 994.982C411.003 995.932 410.678 996.723 410.027 997.355C409.377 997.988 408.489 998.305 407.364 998.305C406.222 998.305 405.325 997.988 404.675 997.355C404.042 996.723 403.726 995.932 403.726 994.982ZM416.276 1017.05V1016.45C416.276 1014.39 416.575 1012.48 417.173 1010.72C417.771 1008.95 418.632 1007.41 419.757 1006.11C420.899 1004.79 422.288 1003.77 423.923 1003.05C425.575 1002.31 427.438 1001.94 429.513 1001.94C431.604 1001.94 433.468 1002.31 435.103 1003.05C436.755 1003.77 438.152 1004.79 439.295 1006.11C440.438 1007.41 441.308 1008.95 441.905 1010.72C442.503 1012.48 442.802 1014.39 442.802 1016.45V1017.05C442.802 1019.11 442.503 1021.02 441.905 1022.77C441.308 1024.53 440.438 1026.07 439.295 1027.39C438.152 1028.69 436.764 1029.71 435.129 1030.45C433.494 1031.17 431.64 1031.53 429.565 1031.53C427.474 1031.53 425.602 1031.17 423.949 1030.45C422.314 1029.71 420.926 1028.69 419.783 1027.39C418.641 1026.07 417.771 1024.53 417.173 1022.77C416.575 1021.02 416.276 1019.11 416.276 1017.05ZM422.631 1016.45V1017.05C422.631 1018.33 422.763 1019.55 423.026 1020.69C423.29 1021.83 423.703 1022.83 424.266 1023.7C424.828 1024.56 425.549 1025.23 426.428 1025.73C427.307 1026.22 428.353 1026.46 429.565 1026.46C430.743 1026.46 431.763 1026.22 432.624 1025.73C433.503 1025.23 434.224 1024.56 434.786 1023.7C435.349 1022.83 435.762 1021.83 436.025 1020.69C436.307 1019.55 436.447 1018.33 436.447 1017.05V1016.45C436.447 1015.18 436.307 1013.98 436.025 1012.86C435.762 1011.72 435.34 1010.71 434.76 1009.83C434.197 1008.95 433.477 1008.26 432.598 1007.77C431.736 1007.26 430.708 1007.01 429.513 1007.01C428.317 1007.01 427.28 1007.26 426.401 1007.77C425.54 1008.26 424.828 1008.95 424.266 1009.83C423.703 1010.71 423.29 1011.72 423.026 1012.86C422.763 1013.98 422.631 1015.18 422.631 1016.45ZM454.43 1008.56V1031H448.075V1002.47H454.061L454.43 1008.56ZM453.296 1015.68L451.239 1015.65C451.257 1013.63 451.538 1011.78 452.083 1010.09C452.646 1008.4 453.419 1006.95 454.403 1005.74C455.405 1004.53 456.601 1003.6 457.989 1002.95C459.378 1002.28 460.925 1001.94 462.63 1001.94C464.001 1001.94 465.24 1002.14 466.348 1002.52C467.473 1002.89 468.431 1003.5 469.222 1004.34C470.03 1005.19 470.646 1006.29 471.067 1007.64C471.489 1008.97 471.7 1010.62 471.7 1012.57V1031H465.319V1012.54C465.319 1011.17 465.117 1010.09 464.713 1009.3C464.326 1008.49 463.755 1007.92 462.999 1007.59C462.261 1007.23 461.338 1007.06 460.23 1007.06C459.141 1007.06 458.165 1007.29 457.304 1007.74C456.442 1008.2 455.713 1008.83 455.115 1009.62C454.535 1010.41 454.087 1011.32 453.771 1012.36C453.454 1013.4 453.296 1014.5 453.296 1015.68ZM228.964 1081.5H235.556C235.345 1084.02 234.642 1086.26 233.446 1088.23C232.251 1090.18 230.572 1091.71 228.41 1092.84C226.248 1093.96 223.62 1094.53 220.526 1094.53C218.153 1094.53 216.018 1094.11 214.119 1093.26C212.221 1092.4 210.595 1091.19 209.241 1089.62C207.888 1088.04 206.851 1086.13 206.13 1083.9C205.427 1081.67 205.075 1079.17 205.075 1076.41V1073.22C205.075 1070.46 205.436 1067.97 206.156 1065.73C206.895 1063.5 207.949 1061.59 209.32 1060.01C210.691 1058.41 212.335 1057.19 214.251 1056.35C216.185 1055.5 218.355 1055.08 220.764 1055.08C223.822 1055.08 226.406 1055.64 228.516 1056.77C230.625 1057.89 232.26 1059.45 233.42 1061.44C234.598 1063.42 235.318 1065.7 235.582 1068.27H228.99C228.814 1066.61 228.428 1065.2 227.83 1064.02C227.25 1062.84 226.389 1061.95 225.246 1061.33C224.104 1060.7 222.609 1060.38 220.764 1060.38C219.252 1060.38 217.934 1060.66 216.809 1061.23C215.684 1061.79 214.743 1062.61 213.987 1063.7C213.231 1064.79 212.66 1066.14 212.273 1067.74C211.904 1069.32 211.72 1071.13 211.72 1073.17V1076.41C211.72 1078.35 211.887 1080.1 212.221 1081.69C212.572 1083.25 213.1 1084.6 213.803 1085.72C214.523 1086.85 215.438 1087.72 216.545 1088.33C217.652 1088.95 218.979 1089.25 220.526 1089.25C222.407 1089.25 223.928 1088.96 225.088 1088.36C226.266 1087.76 227.153 1086.89 227.751 1085.75C228.366 1084.59 228.771 1083.17 228.964 1081.5ZM253.512 1094.53C251.402 1094.53 249.495 1094.18 247.79 1093.5C246.103 1092.8 244.661 1091.82 243.466 1090.57C242.288 1089.32 241.383 1087.86 240.75 1086.17C240.117 1084.48 239.801 1082.66 239.801 1080.71V1079.66C239.801 1077.42 240.126 1075.4 240.776 1073.59C241.427 1071.78 242.332 1070.23 243.492 1068.95C244.652 1067.65 246.023 1066.66 247.605 1065.97C249.188 1065.29 250.901 1064.94 252.747 1064.94C254.786 1064.94 256.57 1065.29 258.1 1065.97C259.629 1066.66 260.895 1067.62 261.896 1068.87C262.916 1070.1 263.672 1071.57 264.164 1073.28C264.674 1074.98 264.929 1076.86 264.929 1078.92V1081.63H242.886V1077.07H258.653V1076.57C258.618 1075.43 258.39 1074.36 257.968 1073.35C257.563 1072.35 256.939 1071.54 256.096 1070.93C255.252 1070.31 254.127 1070.01 252.721 1070.01C251.666 1070.01 250.726 1070.23 249.899 1070.69C249.091 1071.13 248.414 1071.77 247.869 1072.62C247.324 1073.46 246.902 1074.48 246.604 1075.67C246.322 1076.85 246.182 1078.18 246.182 1079.66V1080.71C246.182 1081.96 246.349 1083.12 246.683 1084.19C247.034 1085.25 247.544 1086.17 248.212 1086.96C248.88 1087.75 249.688 1088.38 250.638 1088.83C251.587 1089.27 252.668 1089.49 253.881 1089.49C255.41 1089.49 256.772 1089.18 257.968 1088.57C259.163 1087.95 260.2 1087.08 261.079 1085.96L264.428 1089.2C263.812 1090.1 263.013 1090.96 262.028 1091.79C261.044 1092.59 259.84 1093.25 258.416 1093.76C257.01 1094.27 255.375 1094.53 253.512 1094.53ZM276.267 1070.9V1094H269.912V1065.47H275.977L276.267 1070.9ZM284.994 1065.29L284.941 1071.19C284.555 1071.12 284.133 1071.07 283.676 1071.03C283.236 1071 282.797 1070.98 282.357 1070.98C281.268 1070.98 280.31 1071.14 279.483 1071.46C278.657 1071.75 277.963 1072.19 277.4 1072.77C276.855 1073.34 276.434 1074.02 276.135 1074.83C275.836 1075.64 275.66 1076.54 275.607 1077.55L274.157 1077.65C274.157 1075.86 274.333 1074.2 274.685 1072.67C275.036 1071.14 275.563 1069.79 276.267 1068.63C276.987 1067.47 277.884 1066.57 278.956 1065.92C280.046 1065.27 281.303 1064.94 282.727 1064.94C283.113 1064.94 283.526 1064.98 283.966 1065.05C284.423 1065.12 284.766 1065.2 284.994 1065.29ZM303.372 1065.47V1070.11H287.288V1065.47H303.372ZM291.929 1058.48H298.283V1086.12C298.283 1087 298.406 1087.67 298.652 1088.15C298.916 1088.6 299.276 1088.91 299.733 1089.07C300.19 1089.23 300.727 1089.31 301.342 1089.31C301.781 1089.31 302.203 1089.28 302.607 1089.23C303.012 1089.17 303.337 1089.12 303.583 1089.07L303.609 1093.92C303.082 1094.08 302.467 1094.22 301.764 1094.34C301.078 1094.47 300.287 1094.53 299.391 1094.53C297.932 1094.53 296.64 1094.27 295.515 1093.76C294.39 1093.24 293.511 1092.38 292.878 1091.21C292.245 1090.03 291.929 1088.46 291.929 1086.51V1058.48ZM315.079 1065.47V1094H308.698V1065.47H315.079ZM308.276 1057.98C308.276 1057.02 308.593 1056.22 309.226 1055.58C309.876 1054.93 310.772 1054.61 311.915 1054.61C313.04 1054.61 313.928 1054.93 314.578 1055.58C315.229 1056.22 315.554 1057.02 315.554 1057.98C315.554 1058.93 315.229 1059.72 314.578 1060.36C313.928 1060.99 313.04 1061.3 311.915 1061.3C310.772 1061.3 309.876 1060.99 309.226 1060.36C308.593 1059.72 308.276 1058.93 308.276 1057.98ZM330.214 1094H323.833V1063.62C323.833 1061.32 324.29 1059.38 325.204 1057.8C326.136 1056.22 327.463 1055.01 329.186 1054.19C330.926 1053.36 332.991 1052.95 335.382 1052.95C336.788 1052.95 338.142 1053.1 339.442 1053.39C340.761 1053.69 342.123 1054.07 343.529 1054.53L342.554 1059.7C341.657 1059.4 340.664 1059.12 339.574 1058.85C338.484 1058.57 337.228 1058.43 335.804 1058.43C333.888 1058.43 332.473 1058.87 331.559 1059.75C330.662 1060.61 330.214 1061.9 330.214 1063.62V1094ZM335.936 1065.47V1070.11H319.456V1065.47H335.936ZM346.535 1065.47V1094H340.181V1065.47H346.535ZM365.282 1089.46C366.319 1089.46 367.251 1089.26 368.077 1088.86C368.921 1088.44 369.598 1087.86 370.107 1087.12C370.635 1086.38 370.925 1085.53 370.978 1084.56H376.963C376.928 1086.41 376.383 1088.08 375.328 1089.6C374.273 1091.11 372.876 1092.31 371.136 1093.21C369.396 1094.09 367.471 1094.53 365.361 1094.53C363.182 1094.53 361.283 1094.16 359.666 1093.42C358.049 1092.66 356.704 1091.63 355.632 1090.31C354.56 1088.99 353.751 1087.47 353.206 1085.75C352.679 1084.02 352.415 1082.18 352.415 1080.21V1079.29C352.415 1077.32 352.679 1075.47 353.206 1073.75C353.751 1072.01 354.56 1070.48 355.632 1069.16C356.704 1067.84 358.049 1066.82 359.666 1066.08C361.283 1065.32 363.173 1064.94 365.335 1064.94C367.62 1064.94 369.624 1065.4 371.347 1066.31C373.069 1067.21 374.423 1068.47 375.407 1070.08C376.409 1071.68 376.928 1073.55 376.963 1075.67H370.978C370.925 1074.62 370.661 1073.67 370.187 1072.83C369.729 1071.97 369.079 1071.28 368.235 1070.77C367.409 1070.26 366.416 1070.01 365.256 1070.01C363.973 1070.01 362.909 1070.27 362.065 1070.8C361.222 1071.31 360.562 1072.01 360.088 1072.91C359.613 1073.79 359.271 1074.78 359.06 1075.89C358.866 1076.98 358.77 1078.11 358.77 1079.29V1080.21C358.77 1081.39 358.866 1082.53 359.06 1083.64C359.253 1084.75 359.587 1085.74 360.062 1086.62C360.554 1087.48 361.222 1088.17 362.065 1088.7C362.909 1089.21 363.981 1089.46 365.282 1089.46ZM397.925 1088.28V1074.67C397.925 1073.65 397.74 1072.77 397.371 1072.04C397.002 1071.3 396.439 1070.73 395.684 1070.32C394.945 1069.92 394.014 1069.72 392.889 1069.72C391.852 1069.72 390.955 1069.89 390.199 1070.24C389.443 1070.59 388.854 1071.07 388.433 1071.67C388.011 1072.26 387.8 1072.94 387.8 1073.7H381.472C381.472 1072.57 381.744 1071.48 382.289 1070.43C382.834 1069.37 383.625 1068.43 384.662 1067.61C385.699 1066.78 386.938 1066.13 388.38 1065.66C389.821 1065.18 391.438 1064.94 393.231 1064.94C395.376 1064.94 397.274 1065.3 398.927 1066.02C400.597 1066.75 401.906 1067.83 402.855 1069.29C403.822 1070.74 404.306 1072.55 404.306 1074.73V1087.41C404.306 1088.71 404.394 1089.88 404.569 1090.92C404.763 1091.93 405.035 1092.82 405.387 1093.58V1094H398.874C398.575 1093.31 398.338 1092.44 398.162 1091.39C398.004 1090.32 397.925 1089.28 397.925 1088.28ZM398.848 1076.65L398.9 1080.58H394.339C393.161 1080.58 392.124 1080.69 391.228 1080.92C390.331 1081.13 389.584 1081.45 388.986 1081.87C388.389 1082.29 387.94 1082.8 387.642 1083.4C387.343 1084 387.193 1084.67 387.193 1085.43C387.193 1086.19 387.369 1086.88 387.721 1087.51C388.072 1088.13 388.582 1088.61 389.25 1088.96C389.936 1089.32 390.762 1089.49 391.729 1089.49C393.029 1089.49 394.163 1089.23 395.13 1088.7C396.114 1088.16 396.888 1087.5 397.45 1086.72C398.013 1085.93 398.312 1085.18 398.347 1084.48L400.403 1087.3C400.192 1088.02 399.832 1088.8 399.322 1089.62C398.812 1090.45 398.145 1091.24 397.318 1092C396.51 1092.73 395.534 1093.34 394.392 1093.82C393.267 1094.29 391.966 1094.53 390.489 1094.53C388.626 1094.53 386.965 1094.16 385.506 1093.42C384.047 1092.66 382.904 1091.65 382.078 1090.39C381.252 1089.1 380.839 1087.65 380.839 1086.04C380.839 1084.53 381.12 1083.19 381.683 1082.03C382.263 1080.85 383.106 1079.87 384.214 1079.08C385.339 1078.29 386.71 1077.69 388.327 1077.28C389.944 1076.86 391.79 1076.65 393.864 1076.65H398.848ZM424.028 1065.47V1070.11H407.944V1065.47H424.028ZM412.585 1058.48H418.939V1086.12C418.939 1087 419.062 1087.67 419.309 1088.15C419.572 1088.6 419.933 1088.91 420.39 1089.07C420.847 1089.23 421.383 1089.31 421.998 1089.31C422.438 1089.31 422.859 1089.28 423.264 1089.23C423.668 1089.17 423.993 1089.12 424.239 1089.07L424.266 1093.92C423.738 1094.08 423.123 1094.22 422.42 1094.34C421.734 1094.47 420.943 1094.53 420.047 1094.53C418.588 1094.53 417.296 1094.27 416.171 1093.76C415.046 1093.24 414.167 1092.38 413.534 1091.21C412.901 1090.03 412.585 1088.46 412.585 1086.51V1058.48ZM441.51 1094.53C439.4 1094.53 437.493 1094.18 435.788 1093.5C434.101 1092.8 432.659 1091.82 431.464 1090.57C430.286 1089.32 429.381 1087.86 428.748 1086.17C428.115 1084.48 427.799 1082.66 427.799 1080.71V1079.66C427.799 1077.42 428.124 1075.4 428.774 1073.59C429.425 1071.78 430.33 1070.23 431.49 1068.95C432.65 1067.65 434.021 1066.66 435.604 1065.97C437.186 1065.29 438.899 1064.94 440.745 1064.94C442.784 1064.94 444.568 1065.29 446.098 1065.97C447.627 1066.66 448.893 1067.62 449.895 1068.87C450.914 1070.1 451.67 1071.57 452.162 1073.28C452.672 1074.98 452.927 1076.86 452.927 1078.92V1081.63H430.884V1077.07H446.651V1076.57C446.616 1075.43 446.388 1074.36 445.966 1073.35C445.562 1072.35 444.938 1071.54 444.094 1070.93C443.25 1070.31 442.125 1070.01 440.719 1070.01C439.664 1070.01 438.724 1070.23 437.897 1070.69C437.089 1071.13 436.412 1071.77 435.867 1072.62C435.322 1073.46 434.9 1074.48 434.602 1075.67C434.32 1076.85 434.18 1078.18 434.18 1079.66V1080.71C434.18 1081.96 434.347 1083.12 434.681 1084.19C435.032 1085.25 435.542 1086.17 436.21 1086.96C436.878 1087.75 437.687 1088.38 438.636 1088.83C439.585 1089.27 440.666 1089.49 441.879 1089.49C443.408 1089.49 444.771 1089.18 445.966 1088.57C447.161 1087.95 448.198 1087.08 449.077 1085.96L452.426 1089.2C451.811 1090.1 451.011 1090.96 450.026 1091.79C449.042 1092.59 447.838 1093.25 446.414 1093.76C445.008 1094.27 443.373 1094.53 441.51 1094.53Z" fill="white"/>
<path d="M84.9993 841.111C121.45 841.111 150.999 804.34 150.999 758.981C150.999 713.622 121.45 676.852 84.9993 676.852C48.5489 676.852 19 713.622 19 758.981C19 804.34 48.5489 841.111 84.9993 841.111Z" fill="#1C4670"/>
<path d="M915.001 963.03C878.55 963.03 849.001 999.801 849.001 1045.16C849.001 1090.52 878.55 1127.29 915.001 1127.29C951.451 1127.29 981 1090.52 981 1045.16C981 999.801 951.451 963.03 915.001 963.03Z" fill="#FFA229"/>
<path d="M155.979 859.823C116.535 825.151 103.141 770.051 122.755 720.814C142.344 671.64 190.029 640.716 242.531 642.547L249.192 625.823C219.1 623.533 189.062 630.903 163.461 646.858C137.861 662.813 118.039 686.518 106.887 714.513C95.7346 742.509 93.8369 773.33 101.47 802.478C109.104 831.627 125.869 857.577 149.319 876.542L155.979 859.823Z" fill="#1C4670"/>
<path d="M844.021 944.318C883.465 978.99 896.859 1034.09 877.245 1083.33C857.656 1132.5 809.971 1163.42 757.469 1161.59L750.808 1178.32C780.9 1180.61 810.938 1173.24 836.539 1157.28C862.139 1141.33 881.961 1117.62 893.113 1089.63C904.265 1061.63 906.163 1030.81 898.53 1001.66C890.896 972.514 874.131 946.564 850.681 927.599L844.021 944.318Z" fill="#FFA229"/>
<path d="M234.176 890.874C286.694 892.716 334.338 861.84 353.952 812.605C373.539 763.431 360.151 708.257 320.726 673.598L327.387 656.875C350.833 675.841 367.595 701.79 375.227 730.936C382.858 760.083 380.96 790.901 369.808 818.894C358.657 846.887 338.836 870.591 313.239 886.545C287.641 902.5 257.606 909.871 227.516 907.583L234.176 890.874Z" fill="#1C4670"/>
<path d="M765.824 913.266C713.306 911.425 665.662 942.3 646.048 991.536C626.461 1040.71 639.849 1095.88 679.274 1130.54L672.613 1147.27C649.167 1128.3 632.405 1102.35 624.773 1073.2C617.142 1044.06 619.04 1013.24 630.192 985.246C641.343 957.253 661.164 933.55 686.761 917.595C712.359 901.641 742.394 894.27 772.484 896.558L765.824 913.266Z" fill="#FFA229"/>
<path d="M326.218 854.42C374.746 805.975 374.746 727.431 326.218 678.986C277.691 630.542 199.012 630.542 150.484 678.986C101.957 727.431 101.957 805.975 150.484 854.42C199.012 902.864 277.691 902.864 326.218 854.42Z" fill="white"/>
<path d="M673.782 949.713C625.254 998.158 625.254 1076.7 673.782 1125.15C722.309 1173.59 800.988 1173.59 849.516 1125.15C898.043 1076.7 898.043 998.158 849.516 949.713C800.988 901.268 722.309 901.268 673.782 949.713Z" fill="white"/>
<path d="M313.351 841.575C354.772 800.224 354.772 733.182 313.351 691.832C271.93 650.481 204.773 650.481 163.351 691.832C121.93 733.182 121.93 800.224 163.351 841.575C204.773 882.925 271.93 882.925 313.351 841.575Z" fill="#FFA229"/>
<path d="M216.264 803.703C209.73 803.703 204.677 801.872 201.103 798.21C197.558 794.548 195.785 789.274 195.785 782.39V747.497C195.785 740.231 197.47 734.665 200.839 730.798C204.237 726.901 209.379 724.953 216.264 724.953C223.178 724.953 228.319 726.901 231.688 730.798C235.058 734.665 236.742 740.231 236.742 747.497V782.39C236.742 789.274 234.97 794.548 231.425 798.21C227.88 801.872 222.826 803.703 216.264 803.703ZM216.264 789.465C217.465 789.465 218.402 788.923 219.076 787.839C219.75 786.755 220.087 785.539 220.087 784.191V746.003C220.087 744.187 219.882 742.604 219.472 741.257C219.091 739.88 218.021 739.191 216.264 739.191C214.506 739.191 213.422 739.88 213.012 741.257C212.631 742.604 212.44 744.187 212.44 746.003V784.191C212.44 785.539 212.777 786.755 213.451 787.839C214.154 788.923 215.092 789.465 216.264 789.465ZM259.77 803.879C252.943 803.879 247.978 802.077 244.872 798.474C241.767 794.87 240.214 789.436 240.214 782.17V774.084H256.078V782.214C256.078 784.265 256.327 786.008 256.825 787.443C257.353 788.85 258.51 789.553 260.297 789.553C262.113 789.553 263.271 788.791 263.769 787.268C264.267 785.715 264.516 783.195 264.516 779.709V777.775C264.516 775.109 264.062 772.78 263.153 770.788C262.274 768.796 260.531 767.8 257.924 767.8C257.602 767.8 257.309 767.814 257.045 767.844C256.811 767.844 256.605 767.858 256.43 767.888V754.001C259.096 754.001 261.132 753.415 262.538 752.243C263.944 751.042 264.647 749.05 264.647 746.267C264.647 741.901 263.388 739.719 260.868 739.719C259.228 739.719 258.114 740.363 257.528 741.652C256.972 742.912 256.693 744.523 256.693 746.486V748.815H240.697C240.668 748.464 240.639 748.039 240.609 747.541C240.609 747.043 240.609 746.56 240.609 746.091C240.609 739.001 242.265 733.801 245.575 730.49C248.886 727.18 253.954 725.524 260.78 725.524C273.964 725.524 280.556 732.38 280.556 746.091C280.556 749.899 280.043 753.049 279.018 755.539C277.992 758 276.088 759.729 273.305 760.725C275.502 761.779 277.128 763.127 278.183 764.768C279.237 766.408 279.926 768.444 280.248 770.876C280.57 773.308 280.731 776.252 280.731 779.709C280.731 787.443 279.105 793.405 275.854 797.595C272.631 801.784 267.27 803.879 259.77 803.879Z" fill="white"/>
<path d="M686.649 962.558C645.228 1003.91 645.228 1070.95 686.649 1112.3C728.07 1153.65 795.227 1153.65 836.649 1112.3C878.07 1070.95 878.07 1003.91 836.649 962.558C795.227 921.208 728.07 921.208 686.649 962.558Z" fill="#1C4670"/>
<path d="M835.645 964.224C876.871 1005.38 876.871 1072.11 835.645 1113.26C794.42 1154.42 727.579 1154.42 686.354 1113.26C645.128 1072.11 645.128 1005.38 686.354 964.224C727.579 923.069 794.42 923.069 835.645 964.224Z" fill="white" stroke="black"/>
<path d="M736.264 1081.7C729.73 1081.7 724.677 1079.87 721.103 1076.21C717.558 1072.55 715.785 1067.27 715.785 1060.39V1025.5C715.785 1018.23 717.47 1012.67 720.839 1008.8C724.237 1004.9 729.379 1002.95 736.264 1002.95C743.178 1002.95 748.319 1004.9 751.688 1008.8C755.058 1012.67 756.742 1018.23 756.742 1025.5V1060.39C756.742 1067.27 754.97 1072.55 751.425 1076.21C747.88 1079.87 742.826 1081.7 736.264 1081.7ZM736.264 1067.46C737.465 1067.46 738.402 1066.92 739.076 1065.84C739.75 1064.75 740.087 1063.54 740.087 1062.19V1024C740.087 1022.19 739.882 1020.6 739.472 1019.26C739.091 1017.88 738.021 1017.19 736.264 1017.19C734.506 1017.19 733.422 1017.88 733.012 1019.26C732.631 1020.6 732.44 1022.19 732.44 1024V1062.19C732.44 1063.54 732.777 1064.75 733.451 1065.84C734.154 1066.92 735.092 1067.46 736.264 1067.46ZM782.23 1081.04V1068.78H759.291V1056.7L773.925 1003.61H798.007V1055.86H802.138V1068.78H798.007V1081.04H782.23ZM773.09 1055.86H782.23V1016.88L773.09 1055.86Z" fill="#1C4670"/>
</g>
<defs>
<clipPath id="clip0_886_2258">
<rect width="1000" height="1241" fill="white"/>
</clipPath>
<clipPath id="clip1_886_2258">
<rect width="167" height="151" fill="white" transform="translate(677 358)"/>
</clipPath>
</defs>
</svg>
