<svg width="1016" height="1358" viewBox="0 0 1016 1358" fill="none" xmlns="http://www.w3.org/2000/svg">
<rect width="1016" height="1358" fill="white"/>
<path d="M185.781 88.7812L194.844 50.5H199.906L201.062 56.875L191.406 96H185.969L185.781 88.7812ZM181.125 50.5L188.625 88.7812L188 96H181.938L171.844 50.5H181.125ZM209.031 88.625L216.438 50.5H225.719L215.656 96H209.594L209.031 88.625ZM202.75 50.5L211.875 88.9375L211.625 96H206.188L196.469 56.8438L197.719 50.5H202.75ZM239.031 48V96H230.031V48H239.031ZM237.75 77.9062H235.281C235.302 75.5521 235.615 73.3854 236.219 71.4062C236.823 69.4062 237.688 67.6771 238.812 66.2188C239.938 64.7396 241.281 63.5938 242.844 62.7812C244.427 61.9688 246.177 61.5625 248.094 61.5625C249.76 61.5625 251.271 61.8021 252.625 62.2812C254 62.7396 255.177 63.4896 256.156 64.5312C257.156 65.5521 257.927 66.8958 258.469 68.5625C259.01 70.2292 259.281 72.25 259.281 74.625V96H250.219V74.5625C250.219 73.0625 250 71.8854 249.562 71.0312C249.146 70.1562 248.531 69.5417 247.719 69.1875C246.927 68.8125 245.948 68.625 244.781 68.625C243.49 68.625 242.385 68.8646 241.469 69.3438C240.573 69.8229 239.854 70.4896 239.312 71.3438C238.771 72.1771 238.375 73.1562 238.125 74.2812C237.875 75.4062 237.75 76.6146 237.75 77.9062ZM281.688 96.625C279.062 96.625 276.708 96.2083 274.625 95.375C272.542 94.5208 270.771 93.3438 269.312 91.8438C267.875 90.3438 266.771 88.6042 266 86.625C265.229 84.625 264.844 82.5 264.844 80.25V79C264.844 76.4375 265.208 74.0938 265.938 71.9688C266.667 69.8438 267.708 68 269.062 66.4375C270.438 64.875 272.104 63.6771 274.062 62.8438C276.021 61.9896 278.229 61.5625 280.688 61.5625C283.083 61.5625 285.208 61.9583 287.062 62.75C288.917 63.5417 290.469 64.6667 291.719 66.125C292.99 67.5833 293.948 69.3333 294.594 71.375C295.24 73.3958 295.562 75.6458 295.562 78.125V81.875H268.688V75.875H286.719V75.1875C286.719 73.9375 286.49 72.8229 286.031 71.8438C285.594 70.8438 284.927 70.0521 284.031 69.4688C283.135 68.8854 281.99 68.5938 280.594 68.5938C279.406 68.5938 278.385 68.8542 277.531 69.375C276.677 69.8958 275.979 70.625 275.438 71.5625C274.917 72.5 274.521 73.6042 274.25 74.875C274 76.125 273.875 77.5 273.875 79V80.25C273.875 81.6042 274.062 82.8542 274.438 84C274.833 85.1458 275.385 86.1354 276.094 86.9688C276.823 87.8021 277.698 88.4479 278.719 88.9062C279.76 89.3646 280.938 89.5938 282.25 89.5938C283.875 89.5938 285.385 89.2812 286.781 88.6562C288.198 88.0104 289.417 87.0417 290.438 85.75L294.812 90.5C294.104 91.5208 293.135 92.5 291.906 93.4375C290.698 94.375 289.24 95.1458 287.531 95.75C285.823 96.3333 283.875 96.625 281.688 96.625ZM309.5 69.4062V96H300.5V62.1875H308.938L309.5 69.4062ZM308.188 77.9062H305.75C305.75 75.4062 306.073 73.1562 306.719 71.1562C307.365 69.1354 308.271 67.4167 309.438 66C310.604 64.5625 311.99 63.4688 313.594 62.7188C315.219 61.9479 317.031 61.5625 319.031 61.5625C320.615 61.5625 322.062 61.7917 323.375 62.25C324.688 62.7083 325.812 63.4375 326.75 64.4375C327.708 65.4375 328.438 66.7604 328.938 68.4062C329.458 70.0521 329.719 72.0625 329.719 74.4375V96H320.656V74.4062C320.656 72.9062 320.448 71.7396 320.031 70.9062C319.615 70.0729 319 69.4896 318.188 69.1562C317.396 68.8021 316.417 68.625 315.25 68.625C314.042 68.625 312.99 68.8646 312.094 69.3438C311.219 69.8229 310.49 70.4896 309.906 71.3438C309.344 72.1771 308.917 73.1562 308.625 74.2812C308.333 75.4062 308.188 76.6146 308.188 77.9062ZM369.062 62.1875V68.5625H349.375V62.1875H369.062ZM354.25 53.8438H363.25V85.8125C363.25 86.7917 363.375 87.5417 363.625 88.0625C363.896 88.5833 364.292 88.9479 364.812 89.1562C365.333 89.3438 365.99 89.4375 366.781 89.4375C367.344 89.4375 367.844 89.4167 368.281 89.375C368.74 89.3125 369.125 89.25 369.438 89.1875L369.469 95.8125C368.698 96.0625 367.865 96.2604 366.969 96.4062C366.073 96.5521 365.083 96.625 364 96.625C362.021 96.625 360.292 96.3021 358.812 95.6562C357.354 94.9896 356.229 93.9271 355.438 92.4688C354.646 91.0104 354.25 89.0938 354.25 86.7188V53.8438ZM371.938 79.4375V78.7812C371.938 76.3021 372.292 74.0208 373 71.9375C373.708 69.8333 374.74 68.0104 376.094 66.4688C377.448 64.9271 379.115 63.7292 381.094 62.875C383.073 62 385.344 61.5625 387.906 61.5625C390.469 61.5625 392.75 62 394.75 62.875C396.75 63.7292 398.427 64.9271 399.781 66.4688C401.156 68.0104 402.198 69.8333 402.906 71.9375C403.615 74.0208 403.969 76.3021 403.969 78.7812V79.4375C403.969 81.8958 403.615 84.1771 402.906 86.2812C402.198 88.3646 401.156 90.1875 399.781 91.75C398.427 93.2917 396.76 94.4896 394.781 95.3438C392.802 96.1979 390.531 96.625 387.969 96.625C385.406 96.625 383.125 96.1979 381.125 95.3438C379.146 94.4896 377.469 93.2917 376.094 91.75C374.74 90.1875 373.708 88.3646 373 86.2812C372.292 84.1771 371.938 81.8958 371.938 79.4375ZM380.938 78.7812V79.4375C380.938 80.8542 381.062 82.1771 381.312 83.4062C381.562 84.6354 381.958 85.7188 382.5 86.6562C383.062 87.5729 383.792 88.2917 384.688 88.8125C385.583 89.3333 386.677 89.5938 387.969 89.5938C389.219 89.5938 390.292 89.3333 391.188 88.8125C392.083 88.2917 392.802 87.5729 393.344 86.6562C393.885 85.7188 394.281 84.6354 394.531 83.4062C394.802 82.1771 394.938 80.8542 394.938 79.4375V78.7812C394.938 77.4062 394.802 76.1146 394.531 74.9062C394.281 73.6771 393.875 72.5938 393.312 71.6562C392.771 70.6979 392.052 69.9479 391.156 69.4062C390.26 68.8646 389.177 68.5938 387.906 68.5938C386.635 68.5938 385.552 68.8646 384.656 69.4062C383.781 69.9479 383.062 70.6979 382.5 71.6562C381.958 72.5938 381.562 73.6771 381.312 74.9062C381.062 76.1146 380.938 77.4062 380.938 78.7812ZM426 50.5H442.969C446.448 50.5 449.438 51.0208 451.938 52.0625C454.458 53.1042 456.396 54.6458 457.75 56.6875C459.104 58.7292 459.781 61.2396 459.781 64.2188C459.781 66.6562 459.365 68.75 458.531 70.5C457.719 72.2292 456.562 73.6771 455.062 74.8438C453.583 75.9896 451.844 76.9062 449.844 77.5938L446.875 79.1562H432.125L432.062 71.8438H443.031C444.677 71.8438 446.042 71.5521 447.125 70.9688C448.208 70.3854 449.021 69.5729 449.562 68.5312C450.125 67.4896 450.406 66.2812 450.406 64.9062C450.406 63.4479 450.135 62.1875 449.594 61.125C449.052 60.0625 448.229 59.25 447.125 58.6875C446.021 58.125 444.635 57.8438 442.969 57.8438H435.375V96H426V50.5ZM451.438 96L441.062 75.7188L450.969 75.6562L461.469 95.5625V96H451.438ZM482 96.625C479.375 96.625 477.021 96.2083 474.938 95.375C472.854 94.5208 471.083 93.3438 469.625 91.8438C468.188 90.3438 467.083 88.6042 466.312 86.625C465.542 84.625 465.156 82.5 465.156 80.25V79C465.156 76.4375 465.521 74.0938 466.25 71.9688C466.979 69.8438 468.021 68 469.375 66.4375C470.75 64.875 472.417 63.6771 474.375 62.8438C476.333 61.9896 478.542 61.5625 481 61.5625C483.396 61.5625 485.521 61.9583 487.375 62.75C489.229 63.5417 490.781 64.6667 492.031 66.125C493.302 67.5833 494.26 69.3333 494.906 71.375C495.552 73.3958 495.875 75.6458 495.875 78.125V81.875H469V75.875H487.031V75.1875C487.031 73.9375 486.802 72.8229 486.344 71.8438C485.906 70.8438 485.24 70.0521 484.344 69.4688C483.448 68.8854 482.302 68.5938 480.906 68.5938C479.719 68.5938 478.698 68.8542 477.844 69.375C476.99 69.8958 476.292 70.625 475.75 71.5625C475.229 72.5 474.833 73.6042 474.562 74.875C474.312 76.125 474.188 77.5 474.188 79V80.25C474.188 81.6042 474.375 82.8542 474.75 84C475.146 85.1458 475.698 86.1354 476.406 86.9688C477.135 87.8021 478.01 88.4479 479.031 88.9062C480.073 89.3646 481.25 89.5938 482.562 89.5938C484.188 89.5938 485.698 89.2812 487.094 88.6562C488.51 88.0104 489.729 87.0417 490.75 85.75L495.125 90.5C494.417 91.5208 493.448 92.5 492.219 93.4375C491.01 94.375 489.552 95.1458 487.844 95.75C486.135 96.3333 484.188 96.625 482 96.625ZM509.812 69.4062V96H500.812V62.1875H509.25L509.812 69.4062ZM508.5 77.9062H506.062C506.062 75.4062 506.385 73.1562 507.031 71.1562C507.677 69.1354 508.583 67.4167 509.75 66C510.917 64.5625 512.302 63.4688 513.906 62.7188C515.531 61.9479 517.344 61.5625 519.344 61.5625C520.927 61.5625 522.375 61.7917 523.688 62.25C525 62.7083 526.125 63.4375 527.062 64.4375C528.021 65.4375 528.75 66.7604 529.25 68.4062C529.771 70.0521 530.031 72.0625 530.031 74.4375V96H520.969V74.4062C520.969 72.9062 520.76 71.7396 520.344 70.9062C519.927 70.0729 519.312 69.4896 518.5 69.1562C517.708 68.8021 516.729 68.625 515.562 68.625C514.354 68.625 513.302 68.8646 512.406 69.3438C511.531 69.8229 510.802 70.4896 510.219 71.3438C509.656 72.1771 509.229 73.1562 508.938 74.2812C508.646 75.4062 508.5 76.6146 508.5 77.9062ZM552.438 96.625C549.812 96.625 547.458 96.2083 545.375 95.375C543.292 94.5208 541.521 93.3438 540.062 91.8438C538.625 90.3438 537.521 88.6042 536.75 86.625C535.979 84.625 535.594 82.5 535.594 80.25V79C535.594 76.4375 535.958 74.0938 536.688 71.9688C537.417 69.8438 538.458 68 539.812 66.4375C541.188 64.875 542.854 63.6771 544.812 62.8438C546.771 61.9896 548.979 61.5625 551.438 61.5625C553.833 61.5625 555.958 61.9583 557.812 62.75C559.667 63.5417 561.219 64.6667 562.469 66.125C563.74 67.5833 564.698 69.3333 565.344 71.375C565.99 73.3958 566.312 75.6458 566.312 78.125V81.875H539.438V75.875H557.469V75.1875C557.469 73.9375 557.24 72.8229 556.781 71.8438C556.344 70.8438 555.677 70.0521 554.781 69.4688C553.885 68.8854 552.74 68.5938 551.344 68.5938C550.156 68.5938 549.135 68.8542 548.281 69.375C547.427 69.8958 546.729 70.625 546.188 71.5625C545.667 72.5 545.271 73.6042 545 74.875C544.75 76.125 544.625 77.5 544.625 79V80.25C544.625 81.6042 544.812 82.8542 545.188 84C545.583 85.1458 546.135 86.1354 546.844 86.9688C547.573 87.8021 548.448 88.4479 549.469 88.9062C550.51 89.3646 551.688 89.5938 553 89.5938C554.625 89.5938 556.135 89.2812 557.531 88.6562C558.948 88.0104 560.167 87.0417 561.188 85.75L565.562 90.5C564.854 91.5208 563.885 92.5 562.656 93.4375C561.448 94.375 559.99 95.1458 558.281 95.75C556.573 96.3333 554.625 96.625 552.438 96.625ZM581.094 87.25L588.125 62.1875H593.844L592 72.0312L584.969 96H580.188L581.094 87.25ZM577.531 62.1875L582.562 87.2188L583.031 96H577.406L568.844 62.1875H577.531ZM600.281 86.8125L605.188 62.1875H613.906L605.344 96H599.75L600.281 86.8125ZM594.625 62.1875L601.625 87.0625L602.594 96H597.781L590.75 72.0625L588.969 62.1875H594.625ZM742.625 137.188V171H733.594V137.188H742.625ZM733.031 128.375C733.031 127.062 733.49 125.979 734.406 125.125C735.323 124.271 736.552 123.844 738.094 123.844C739.615 123.844 740.833 124.271 741.75 125.125C742.688 125.979 743.156 127.062 743.156 128.375C743.156 129.688 742.688 130.771 741.75 131.625C740.833 132.479 739.615 132.906 738.094 132.906C736.552 132.906 735.323 132.479 734.406 131.625C733.49 130.771 733.031 129.688 733.031 128.375ZM758.875 144.406V171H749.875V137.188H758.312L758.875 144.406ZM757.562 152.906H755.125C755.125 150.406 755.448 148.156 756.094 146.156C756.74 144.135 757.646 142.417 758.812 141C759.979 139.562 761.365 138.469 762.969 137.719C764.594 136.948 766.406 136.562 768.406 136.562C769.99 136.562 771.438 136.792 772.75 137.25C774.062 137.708 775.188 138.438 776.125 139.438C777.083 140.438 777.812 141.76 778.312 143.406C778.833 145.052 779.094 147.062 779.094 149.438V171H770.031V149.406C770.031 147.906 769.823 146.74 769.406 145.906C768.99 145.073 768.375 144.49 767.562 144.156C766.771 143.802 765.792 143.625 764.625 143.625C763.417 143.625 762.365 143.865 761.469 144.344C760.594 144.823 759.865 145.49 759.281 146.344C758.719 147.177 758.292 148.156 758 149.281C757.708 150.406 757.562 151.615 757.562 152.906ZM812.406 125.5V171H803.062V125.5H812.406ZM829.438 144.406V171H820.438V137.188H828.875L829.438 144.406ZM828.125 152.906H825.688C825.688 150.406 826.01 148.156 826.656 146.156C827.302 144.135 828.208 142.417 829.375 141C830.542 139.562 831.927 138.469 833.531 137.719C835.156 136.948 836.969 136.562 838.969 136.562C840.552 136.562 842 136.792 843.312 137.25C844.625 137.708 845.75 138.438 846.688 139.438C847.646 140.438 848.375 141.76 848.875 143.406C849.396 145.052 849.656 147.062 849.656 149.438V171H840.594V149.406C840.594 147.906 840.385 146.74 839.969 145.906C839.552 145.073 838.938 144.49 838.125 144.156C837.333 143.802 836.354 143.625 835.188 143.625C833.979 143.625 832.927 143.865 832.031 144.344C831.156 144.823 830.427 145.49 829.844 146.344C829.281 147.177 828.854 148.156 828.562 149.281C828.271 150.406 828.125 151.615 828.125 152.906ZM876.469 163.625V123H885.531V171H877.375L876.469 163.625ZM855.094 154.5V153.844C855.094 151.26 855.385 148.917 855.969 146.812C856.552 144.688 857.406 142.865 858.531 141.344C859.656 139.823 861.042 138.646 862.688 137.812C864.333 136.979 866.208 136.562 868.312 136.562C870.292 136.562 872.021 136.979 873.5 137.812C875 138.646 876.271 139.833 877.312 141.375C878.375 142.896 879.229 144.698 879.875 146.781C880.521 148.844 880.99 151.104 881.281 153.562V155C880.99 157.354 880.521 159.542 879.875 161.562C879.229 163.583 878.375 165.354 877.312 166.875C876.271 168.375 875 169.542 873.5 170.375C872 171.208 870.25 171.625 868.25 171.625C866.146 171.625 864.271 171.198 862.625 170.344C861 169.49 859.625 168.292 858.5 166.75C857.396 165.208 856.552 163.396 855.969 161.312C855.385 159.229 855.094 156.958 855.094 154.5ZM864.094 153.844V154.5C864.094 155.896 864.198 157.198 864.406 158.406C864.635 159.615 865 160.688 865.5 161.625C866.021 162.542 866.688 163.26 867.5 163.781C868.333 164.281 869.344 164.531 870.531 164.531C872.073 164.531 873.344 164.188 874.344 163.5C875.344 162.792 876.104 161.823 876.625 160.594C877.167 159.365 877.479 157.948 877.562 156.344V152.25C877.5 150.938 877.312 149.76 877 148.719C876.708 147.656 876.271 146.75 875.688 146C875.125 145.25 874.417 144.667 873.562 144.25C872.729 143.833 871.74 143.625 870.594 143.625C869.427 143.625 868.427 143.896 867.594 144.438C866.76 144.958 866.083 145.677 865.562 146.594C865.062 147.51 864.688 148.594 864.438 149.844C864.208 151.073 864.094 152.406 864.094 153.844ZM902.062 137.188V171H893.031V137.188H902.062ZM892.469 128.375C892.469 127.062 892.927 125.979 893.844 125.125C894.76 124.271 895.99 123.844 897.531 123.844C899.052 123.844 900.271 124.271 901.188 125.125C902.125 125.979 902.594 127.062 902.594 128.375C902.594 129.688 902.125 130.771 901.188 131.625C900.271 132.479 899.052 132.906 897.531 132.906C895.99 132.906 894.76 132.479 893.844 131.625C892.927 130.771 892.469 129.688 892.469 128.375ZM927.75 163.375V148.312C927.75 147.229 927.573 146.302 927.219 145.531C926.865 144.74 926.312 144.125 925.562 143.688C924.833 143.25 923.885 143.031 922.719 143.031C921.719 143.031 920.854 143.208 920.125 143.562C919.396 143.896 918.833 144.385 918.438 145.031C918.042 145.656 917.844 146.396 917.844 147.25H908.844C908.844 145.812 909.177 144.448 909.844 143.156C910.51 141.865 911.479 140.729 912.75 139.75C914.021 138.75 915.531 137.969 917.281 137.406C919.052 136.844 921.031 136.562 923.219 136.562C925.844 136.562 928.177 137 930.219 137.875C932.26 138.75 933.865 140.062 935.031 141.812C936.219 143.562 936.812 145.75 936.812 148.375V162.844C936.812 164.698 936.927 166.219 937.156 167.406C937.385 168.573 937.719 169.594 938.156 170.469V171H929.062C928.625 170.083 928.292 168.938 928.062 167.562C927.854 166.167 927.75 164.771 927.75 163.375ZM928.938 150.406L929 155.5H923.969C922.781 155.5 921.75 155.635 920.875 155.906C920 156.177 919.281 156.562 918.719 157.062C918.156 157.542 917.74 158.104 917.469 158.75C917.219 159.396 917.094 160.104 917.094 160.875C917.094 161.646 917.271 162.344 917.625 162.969C917.979 163.573 918.49 164.052 919.156 164.406C919.823 164.74 920.604 164.906 921.5 164.906C922.854 164.906 924.031 164.635 925.031 164.094C926.031 163.552 926.802 162.885 927.344 162.094C927.906 161.302 928.198 160.552 928.219 159.844L930.594 163.656C930.26 164.51 929.802 165.396 929.219 166.312C928.656 167.229 927.938 168.094 927.062 168.906C926.188 169.698 925.135 170.354 923.906 170.875C922.677 171.375 921.219 171.625 919.531 171.625C917.385 171.625 915.438 171.198 913.688 170.344C911.958 169.469 910.583 168.271 909.562 166.75C908.562 165.208 908.062 163.458 908.062 161.5C908.062 159.729 908.396 158.156 909.062 156.781C909.729 155.406 910.708 154.25 912 153.312C913.312 152.354 914.948 151.635 916.906 151.156C918.865 150.656 921.135 150.406 923.719 150.406H928.938ZM959.094 157.094H951.125C951.146 155.219 951.292 153.604 951.562 152.25C951.854 150.875 952.344 149.635 953.031 148.531C953.74 147.427 954.677 146.333 955.844 145.25C956.823 144.375 957.677 143.542 958.406 142.75C959.135 141.958 959.708 141.146 960.125 140.312C960.542 139.458 960.75 138.51 960.75 137.469C960.75 136.26 960.562 135.26 960.188 134.469C959.833 133.656 959.292 133.042 958.562 132.625C957.854 132.208 956.958 132 955.875 132C954.979 132 954.146 132.198 953.375 132.594C952.604 132.969 951.969 133.552 951.469 134.344C950.99 135.135 950.74 136.177 950.719 137.469H941.656C941.719 134.615 942.375 132.26 943.625 130.406C944.896 128.531 946.594 127.146 948.719 126.25C950.844 125.333 953.229 124.875 955.875 124.875C958.792 124.875 961.292 125.354 963.375 126.312C965.458 127.25 967.052 128.635 968.156 130.469C969.26 132.281 969.812 134.49 969.812 137.094C969.812 138.906 969.458 140.521 968.75 141.938C968.042 143.333 967.115 144.635 965.969 145.844C964.823 147.052 963.562 148.302 962.188 149.594C961 150.656 960.188 151.771 959.75 152.938C959.333 154.104 959.115 155.49 959.094 157.094ZM950.188 166.75C950.188 165.417 950.646 164.312 951.562 163.438C952.479 162.542 953.708 162.094 955.25 162.094C956.771 162.094 957.99 162.542 958.906 163.438C959.844 164.312 960.312 165.417 960.312 166.75C960.312 168.042 959.844 169.135 958.906 170.031C957.99 170.927 956.771 171.375 955.25 171.375C953.708 171.375 952.479 170.927 951.562 170.031C950.646 169.135 950.188 168.042 950.188 166.75Z" fill="#001B78"/>
<path d="M658.625 84.0938C658.625 83.2812 658.5 82.5521 658.25 81.9062C658.021 81.2396 657.583 80.6354 656.938 80.0938C656.292 79.5312 655.385 78.9792 654.219 78.4375C653.052 77.8958 651.542 77.3333 649.688 76.75C647.625 76.0833 645.667 75.3333 643.812 74.5C641.979 73.6667 640.354 72.6979 638.938 71.5938C637.542 70.4688 636.438 69.1667 635.625 67.6875C634.833 66.2083 634.438 64.4896 634.438 62.5312C634.438 60.6354 634.854 58.9167 635.688 57.375C636.521 55.8125 637.688 54.4792 639.188 53.375C640.688 52.25 642.458 51.3854 644.5 50.7812C646.562 50.1771 648.823 49.875 651.281 49.875C654.635 49.875 657.562 50.4792 660.062 51.6875C662.562 52.8958 664.5 54.5521 665.875 56.6562C667.271 58.7604 667.969 61.1667 667.969 63.875H658.656C658.656 62.5417 658.375 61.375 657.812 60.375C657.271 59.3542 656.438 58.5521 655.312 57.9688C654.208 57.3854 652.812 57.0938 651.125 57.0938C649.5 57.0938 648.146 57.3438 647.062 57.8438C645.979 58.3229 645.167 58.9792 644.625 59.8125C644.083 60.625 643.812 61.5417 643.812 62.5625C643.812 63.3333 644 64.0312 644.375 64.6562C644.771 65.2812 645.354 65.8646 646.125 66.4062C646.896 66.9479 647.844 67.4583 648.969 67.9375C650.094 68.4167 651.396 68.8854 652.875 69.3438C655.354 70.0938 657.531 70.9375 659.406 71.875C661.302 72.8125 662.885 73.8646 664.156 75.0312C665.427 76.1979 666.385 77.5208 667.031 79C667.677 80.4792 668 82.1562 668 84.0312C668 86.0104 667.615 87.7812 666.844 89.3438C666.073 90.9062 664.958 92.2292 663.5 93.3125C662.042 94.3958 660.302 95.2188 658.281 95.7812C656.26 96.3438 654 96.625 651.5 96.625C649.25 96.625 647.031 96.3333 644.844 95.75C642.656 95.1458 640.667 94.2396 638.875 93.0312C637.104 91.8229 635.688 90.2812 634.625 88.4062C633.562 86.5312 633.031 84.3125 633.031 81.75H642.438C642.438 83.1667 642.656 84.3646 643.094 85.3438C643.531 86.3229 644.146 87.1146 644.938 87.7188C645.75 88.3229 646.708 88.7604 647.812 89.0312C648.938 89.3021 650.167 89.4375 651.5 89.4375C653.125 89.4375 654.458 89.2083 655.5 88.75C656.562 88.2917 657.344 87.6562 657.844 86.8438C658.365 86.0312 658.625 85.1146 658.625 84.0938ZM672.375 79.4375V78.7812C672.375 76.3021 672.729 74.0208 673.438 71.9375C674.146 69.8333 675.177 68.0104 676.531 66.4688C677.885 64.9271 679.552 63.7292 681.531 62.875C683.51 62 685.781 61.5625 688.344 61.5625C690.906 61.5625 693.188 62 695.188 62.875C697.188 63.7292 698.865 64.9271 700.219 66.4688C701.594 68.0104 702.635 69.8333 703.344 71.9375C704.052 74.0208 704.406 76.3021 704.406 78.7812V79.4375C704.406 81.8958 704.052 84.1771 703.344 86.2812C702.635 88.3646 701.594 90.1875 700.219 91.75C698.865 93.2917 697.198 94.4896 695.219 95.3438C693.24 96.1979 690.969 96.625 688.406 96.625C685.844 96.625 683.562 96.1979 681.562 95.3438C679.583 94.4896 677.906 93.2917 676.531 91.75C675.177 90.1875 674.146 88.3646 673.438 86.2812C672.729 84.1771 672.375 81.8958 672.375 79.4375ZM681.375 78.7812V79.4375C681.375 80.8542 681.5 82.1771 681.75 83.4062C682 84.6354 682.396 85.7188 682.938 86.6562C683.5 87.5729 684.229 88.2917 685.125 88.8125C686.021 89.3333 687.115 89.5938 688.406 89.5938C689.656 89.5938 690.729 89.3333 691.625 88.8125C692.521 88.2917 693.24 87.5729 693.781 86.6562C694.323 85.7188 694.719 84.6354 694.969 83.4062C695.24 82.1771 695.375 80.8542 695.375 79.4375V78.7812C695.375 77.4062 695.24 76.1146 694.969 74.9062C694.719 73.6771 694.312 72.5938 693.75 71.6562C693.208 70.6979 692.49 69.9479 691.594 69.4062C690.698 68.8646 689.615 68.5938 688.344 68.5938C687.073 68.5938 685.99 68.8646 685.094 69.4062C684.219 69.9479 683.5 70.6979 682.938 71.6562C682.396 72.5938 682 73.6771 681.75 74.9062C681.5 76.1146 681.375 77.4062 681.375 78.7812ZM723.906 89.5938C725.01 89.5938 725.99 89.3854 726.844 88.9688C727.698 88.5312 728.365 87.9271 728.844 87.1562C729.344 86.3646 729.604 85.4375 729.625 84.375H738.094C738.073 86.75 737.438 88.8646 736.188 90.7188C734.938 92.5521 733.26 94 731.156 95.0625C729.052 96.1042 726.698 96.625 724.094 96.625C721.469 96.625 719.177 96.1875 717.219 95.3125C715.281 94.4375 713.667 93.2292 712.375 91.6875C711.083 90.125 710.115 88.3125 709.469 86.25C708.823 84.1667 708.5 81.9375 708.5 79.5625V78.6562C708.5 76.2604 708.823 74.0312 709.469 71.9688C710.115 69.8854 711.083 68.0729 712.375 66.5312C713.667 64.9688 715.281 63.75 717.219 62.875C719.156 62 721.427 61.5625 724.031 61.5625C726.802 61.5625 729.229 62.0938 731.312 63.1562C733.417 64.2188 735.062 65.7396 736.25 67.7188C737.458 69.6771 738.073 72 738.094 74.6875H729.625C729.604 73.5625 729.365 72.5417 728.906 71.625C728.469 70.7083 727.823 69.9792 726.969 69.4375C726.135 68.875 725.104 68.5938 723.875 68.5938C722.562 68.5938 721.49 68.875 720.656 69.4375C719.823 69.9792 719.177 70.7292 718.719 71.6875C718.26 72.625 717.938 73.6979 717.75 74.9062C717.583 76.0938 717.5 77.3438 717.5 78.6562V79.5625C717.5 80.875 717.583 82.1354 717.75 83.3438C717.917 84.5521 718.229 85.625 718.688 86.5625C719.167 87.5 719.823 88.2396 720.656 88.7812C721.49 89.3229 722.573 89.5938 723.906 89.5938ZM752.812 62.1875V96H743.781V62.1875H752.812ZM743.219 53.375C743.219 52.0625 743.677 50.9792 744.594 50.125C745.51 49.2708 746.74 48.8438 748.281 48.8438C749.802 48.8438 751.021 49.2708 751.938 50.125C752.875 50.9792 753.344 52.0625 753.344 53.375C753.344 54.6875 752.875 55.7708 751.938 56.625C751.021 57.4792 749.802 57.9062 748.281 57.9062C746.74 57.9062 745.51 57.4792 744.594 56.625C743.677 55.7708 743.219 54.6875 743.219 53.375ZM775.812 96.625C773.188 96.625 770.833 96.2083 768.75 95.375C766.667 94.5208 764.896 93.3438 763.438 91.8438C762 90.3438 760.896 88.6042 760.125 86.625C759.354 84.625 758.969 82.5 758.969 80.25V79C758.969 76.4375 759.333 74.0938 760.062 71.9688C760.792 69.8438 761.833 68 763.188 66.4375C764.562 64.875 766.229 63.6771 768.188 62.8438C770.146 61.9896 772.354 61.5625 774.812 61.5625C777.208 61.5625 779.333 61.9583 781.188 62.75C783.042 63.5417 784.594 64.6667 785.844 66.125C787.115 67.5833 788.073 69.3333 788.719 71.375C789.365 73.3958 789.688 75.6458 789.688 78.125V81.875H762.812V75.875H780.844V75.1875C780.844 73.9375 780.615 72.8229 780.156 71.8438C779.719 70.8438 779.052 70.0521 778.156 69.4688C777.26 68.8854 776.115 68.5938 774.719 68.5938C773.531 68.5938 772.51 68.8542 771.656 69.375C770.802 69.8958 770.104 70.625 769.562 71.5625C769.042 72.5 768.646 73.6042 768.375 74.875C768.125 76.125 768 77.5 768 79V80.25C768 81.6042 768.188 82.8542 768.562 84C768.958 85.1458 769.51 86.1354 770.219 86.9688C770.948 87.8021 771.823 88.4479 772.844 88.9062C773.885 89.3646 775.062 89.5938 776.375 89.5938C778 89.5938 779.51 89.2812 780.906 88.6562C782.323 88.0104 783.542 87.0417 784.562 85.75L788.938 90.5C788.229 91.5208 787.26 92.5 786.031 93.4375C784.823 94.375 783.365 95.1458 781.656 95.75C779.948 96.3333 778 96.625 775.812 96.625ZM811.375 62.1875V68.5625H791.688V62.1875H811.375ZM796.562 53.8438H805.562V85.8125C805.562 86.7917 805.688 87.5417 805.938 88.0625C806.208 88.5833 806.604 88.9479 807.125 89.1562C807.646 89.3438 808.302 89.4375 809.094 89.4375C809.656 89.4375 810.156 89.4167 810.594 89.375C811.052 89.3125 811.438 89.25 811.75 89.1875L811.781 95.8125C811.01 96.0625 810.177 96.2604 809.281 96.4062C808.385 96.5521 807.396 96.625 806.312 96.625C804.333 96.625 802.604 96.3021 801.125 95.6562C799.667 94.9896 798.542 93.9271 797.75 92.4688C796.958 91.0104 796.562 89.0938 796.562 86.7188V53.8438ZM826.531 92.1875L835.5 62.1875H845.156L831.562 101.094C831.271 101.948 830.875 102.865 830.375 103.844C829.896 104.823 829.24 105.75 828.406 106.625C827.594 107.521 826.562 108.25 825.312 108.812C824.083 109.375 822.573 109.656 820.781 109.656C819.927 109.656 819.229 109.604 818.688 109.5C818.146 109.396 817.5 109.25 816.75 109.062V102.469C816.979 102.469 817.219 102.469 817.469 102.469C817.719 102.49 817.958 102.5 818.188 102.5C819.375 102.5 820.344 102.365 821.094 102.094C821.844 101.823 822.448 101.406 822.906 100.844C823.365 100.302 823.729 99.5938 824 98.7188L826.531 92.1875ZM822.781 62.1875L830.125 86.6875L831.406 96.2188L825.281 96.875L813.125 62.1875H822.781ZM47.9375 125.5H64.9062C68.3854 125.5 71.375 126.021 73.875 127.062C76.3958 128.104 78.3333 129.646 79.6875 131.688C81.0417 133.729 81.7188 136.24 81.7188 139.219C81.7188 141.656 81.3021 143.75 80.4688 145.5C79.6562 147.229 78.5 148.677 77 149.844C75.5208 150.99 73.7812 151.906 71.7812 152.594L68.8125 154.156H54.0625L54 146.844H64.9688C66.6146 146.844 67.9792 146.552 69.0625 145.969C70.1458 145.385 70.9583 144.573 71.5 143.531C72.0625 142.49 72.3438 141.281 72.3438 139.906C72.3438 138.448 72.0729 137.188 71.5312 136.125C70.9896 135.062 70.1667 134.25 69.0625 133.688C67.9583 133.125 66.5729 132.844 64.9062 132.844H57.3125V171H47.9375V125.5ZM73.375 171L63 150.719L72.9062 150.656L83.4062 170.562V171H73.375ZM103.938 171.625C101.312 171.625 98.9583 171.208 96.875 170.375C94.7917 169.521 93.0208 168.344 91.5625 166.844C90.125 165.344 89.0208 163.604 88.25 161.625C87.4792 159.625 87.0938 157.5 87.0938 155.25V154C87.0938 151.438 87.4583 149.094 88.1875 146.969C88.9167 144.844 89.9583 143 91.3125 141.438C92.6875 139.875 94.3542 138.677 96.3125 137.844C98.2708 136.99 100.479 136.562 102.938 136.562C105.333 136.562 107.458 136.958 109.312 137.75C111.167 138.542 112.719 139.667 113.969 141.125C115.24 142.583 116.198 144.333 116.844 146.375C117.49 148.396 117.812 150.646 117.812 153.125V156.875H90.9375V150.875H108.969V150.188C108.969 148.938 108.74 147.823 108.281 146.844C107.844 145.844 107.177 145.052 106.281 144.469C105.385 143.885 104.24 143.594 102.844 143.594C101.656 143.594 100.635 143.854 99.7812 144.375C98.9271 144.896 98.2292 145.625 97.6875 146.562C97.1667 147.5 96.7708 148.604 96.5 149.875C96.25 151.125 96.125 152.5 96.125 154V155.25C96.125 156.604 96.3125 157.854 96.6875 159C97.0833 160.146 97.6354 161.135 98.3438 161.969C99.0729 162.802 99.9479 163.448 100.969 163.906C102.01 164.365 103.188 164.594 104.5 164.594C106.125 164.594 107.635 164.281 109.031 163.656C110.448 163.01 111.667 162.042 112.688 160.75L117.062 165.5C116.354 166.521 115.385 167.5 114.156 168.438C112.948 169.375 111.49 170.146 109.781 170.75C108.073 171.333 106.125 171.625 103.938 171.625ZM144.344 137.188H152.5V169.875C152.5 172.958 151.812 175.573 150.438 177.719C149.083 179.885 147.188 181.521 144.75 182.625C142.312 183.75 139.479 184.312 136.25 184.312C134.833 184.312 133.333 184.125 131.75 183.75C130.188 183.375 128.688 182.792 127.25 182C125.833 181.208 124.646 180.208 123.688 179L127.656 173.688C128.698 174.896 129.906 175.833 131.281 176.5C132.656 177.188 134.177 177.531 135.844 177.531C137.469 177.531 138.844 177.229 139.969 176.625C141.094 176.042 141.958 175.177 142.562 174.031C143.167 172.906 143.469 171.542 143.469 169.938V145L144.344 137.188ZM121.594 154.5V153.844C121.594 151.26 121.906 148.917 122.531 146.812C123.177 144.688 124.083 142.865 125.25 141.344C126.438 139.823 127.875 138.646 129.562 137.812C131.25 136.979 133.156 136.562 135.281 136.562C137.531 136.562 139.417 136.979 140.938 137.812C142.458 138.646 143.708 139.833 144.688 141.375C145.667 142.896 146.427 144.698 146.969 146.781C147.531 148.844 147.969 151.104 148.281 153.562V155C147.969 157.354 147.5 159.542 146.875 161.562C146.25 163.583 145.427 165.354 144.406 166.875C143.385 168.375 142.115 169.542 140.594 170.375C139.094 171.208 137.302 171.625 135.219 171.625C133.135 171.625 131.25 171.198 129.562 170.344C127.896 169.49 126.469 168.292 125.281 166.75C124.094 165.208 123.177 163.396 122.531 161.312C121.906 159.229 121.594 156.958 121.594 154.5ZM130.594 153.844V154.5C130.594 155.896 130.729 157.198 131 158.406C131.271 159.615 131.688 160.688 132.25 161.625C132.833 162.542 133.552 163.26 134.406 163.781C135.281 164.281 136.312 164.531 137.5 164.531C139.146 164.531 140.49 164.188 141.531 163.5C142.573 162.792 143.354 161.823 143.875 160.594C144.396 159.365 144.698 157.948 144.781 156.344V152.25C144.74 150.938 144.562 149.76 144.25 148.719C143.938 147.656 143.5 146.75 142.938 146C142.375 145.25 141.646 144.667 140.75 144.25C139.854 143.833 138.792 143.625 137.562 143.625C136.375 143.625 135.344 143.896 134.469 144.438C133.615 144.958 132.896 145.677 132.312 146.594C131.75 147.51 131.323 148.594 131.031 149.844C130.74 151.073 130.594 152.406 130.594 153.844ZM169 137.188V171H159.969V137.188H169ZM159.406 128.375C159.406 127.062 159.865 125.979 160.781 125.125C161.698 124.271 162.927 123.844 164.469 123.844C165.99 123.844 167.208 124.271 168.125 125.125C169.062 125.979 169.531 127.062 169.531 128.375C169.531 129.688 169.062 130.771 168.125 131.625C167.208 132.479 165.99 132.906 164.469 132.906C162.927 132.906 161.698 132.479 160.781 131.625C159.865 130.771 159.406 129.688 159.406 128.375ZM194.719 161.656C194.719 161.01 194.531 160.427 194.156 159.906C193.781 159.385 193.083 158.906 192.062 158.469C191.062 158.01 189.615 157.594 187.719 157.219C186.01 156.844 184.417 156.375 182.938 155.812C181.479 155.229 180.208 154.531 179.125 153.719C178.062 152.906 177.229 151.948 176.625 150.844C176.021 149.719 175.719 148.438 175.719 147C175.719 145.583 176.021 144.25 176.625 143C177.25 141.75 178.135 140.646 179.281 139.688C180.448 138.708 181.865 137.948 183.531 137.406C185.219 136.844 187.115 136.562 189.219 136.562C192.156 136.562 194.677 137.031 196.781 137.969C198.906 138.906 200.531 140.198 201.656 141.844C202.802 143.469 203.375 145.323 203.375 147.406H194.375C194.375 146.531 194.188 145.75 193.812 145.062C193.458 144.354 192.896 143.802 192.125 143.406C191.375 142.99 190.396 142.781 189.188 142.781C188.188 142.781 187.323 142.958 186.594 143.312C185.865 143.646 185.302 144.104 184.906 144.688C184.531 145.25 184.344 145.875 184.344 146.562C184.344 147.083 184.448 147.552 184.656 147.969C184.885 148.365 185.25 148.729 185.75 149.062C186.25 149.396 186.896 149.708 187.688 150C188.5 150.271 189.5 150.521 190.688 150.75C193.125 151.25 195.302 151.906 197.219 152.719C199.135 153.51 200.656 154.594 201.781 155.969C202.906 157.323 203.469 159.104 203.469 161.312C203.469 162.812 203.135 164.188 202.469 165.438C201.802 166.688 200.844 167.781 199.594 168.719C198.344 169.635 196.844 170.354 195.094 170.875C193.365 171.375 191.417 171.625 189.25 171.625C186.104 171.625 183.438 171.062 181.25 169.938C179.083 168.812 177.438 167.385 176.312 165.656C175.208 163.906 174.656 162.115 174.656 160.281H183.188C183.229 161.51 183.542 162.5 184.125 163.25C184.729 164 185.49 164.542 186.406 164.875C187.344 165.208 188.354 165.375 189.438 165.375C190.604 165.375 191.573 165.219 192.344 164.906C193.115 164.573 193.698 164.135 194.094 163.594C194.51 163.031 194.719 162.385 194.719 161.656ZM225.875 137.188V143.562H206.188V137.188H225.875ZM211.062 128.844H220.062V160.812C220.062 161.792 220.188 162.542 220.438 163.062C220.708 163.583 221.104 163.948 221.625 164.156C222.146 164.344 222.802 164.438 223.594 164.438C224.156 164.438 224.656 164.417 225.094 164.375C225.552 164.312 225.938 164.25 226.25 164.188L226.281 170.812C225.51 171.062 224.677 171.26 223.781 171.406C222.885 171.552 221.896 171.625 220.812 171.625C218.833 171.625 217.104 171.302 215.625 170.656C214.167 169.99 213.042 168.927 212.25 167.469C211.458 166.01 211.062 164.094 211.062 161.719V128.844ZM240 144.562V171H231V137.188H239.469L240 144.562ZM250.188 136.969L250.031 145.312C249.594 145.25 249.062 145.198 248.438 145.156C247.833 145.094 247.281 145.062 246.781 145.062C245.51 145.062 244.406 145.229 243.469 145.562C242.552 145.875 241.781 146.344 241.156 146.969C240.552 147.594 240.094 148.354 239.781 149.25C239.49 150.146 239.323 151.167 239.281 152.312L237.469 151.75C237.469 149.562 237.688 147.552 238.125 145.719C238.562 143.865 239.198 142.25 240.031 140.875C240.885 139.5 241.927 138.438 243.156 137.688C244.385 136.938 245.792 136.562 247.375 136.562C247.875 136.562 248.385 136.604 248.906 136.688C249.427 136.75 249.854 136.844 250.188 136.969ZM271.625 163.375V148.312C271.625 147.229 271.448 146.302 271.094 145.531C270.74 144.74 270.188 144.125 269.438 143.688C268.708 143.25 267.76 143.031 266.594 143.031C265.594 143.031 264.729 143.208 264 143.562C263.271 143.896 262.708 144.385 262.312 145.031C261.917 145.656 261.719 146.396 261.719 147.25H252.719C252.719 145.812 253.052 144.448 253.719 143.156C254.385 141.865 255.354 140.729 256.625 139.75C257.896 138.75 259.406 137.969 261.156 137.406C262.927 136.844 264.906 136.562 267.094 136.562C269.719 136.562 272.052 137 274.094 137.875C276.135 138.75 277.74 140.062 278.906 141.812C280.094 143.562 280.688 145.75 280.688 148.375V162.844C280.688 164.698 280.802 166.219 281.031 167.406C281.26 168.573 281.594 169.594 282.031 170.469V171H272.938C272.5 170.083 272.167 168.938 271.938 167.562C271.729 166.167 271.625 164.771 271.625 163.375ZM272.812 150.406L272.875 155.5H267.844C266.656 155.5 265.625 155.635 264.75 155.906C263.875 156.177 263.156 156.562 262.594 157.062C262.031 157.542 261.615 158.104 261.344 158.75C261.094 159.396 260.969 160.104 260.969 160.875C260.969 161.646 261.146 162.344 261.5 162.969C261.854 163.573 262.365 164.052 263.031 164.406C263.698 164.74 264.479 164.906 265.375 164.906C266.729 164.906 267.906 164.635 268.906 164.094C269.906 163.552 270.677 162.885 271.219 162.094C271.781 161.302 272.073 160.552 272.094 159.844L274.469 163.656C274.135 164.51 273.677 165.396 273.094 166.312C272.531 167.229 271.812 168.094 270.938 168.906C270.062 169.698 269.01 170.354 267.781 170.875C266.552 171.375 265.094 171.625 263.406 171.625C261.26 171.625 259.312 171.198 257.562 170.344C255.833 169.469 254.458 168.271 253.438 166.75C252.438 165.208 251.938 163.458 251.938 161.5C251.938 159.729 252.271 158.156 252.938 156.781C253.604 155.406 254.583 154.25 255.875 153.312C257.188 152.354 258.823 151.635 260.781 151.156C262.74 150.656 265.01 150.406 267.594 150.406H272.812ZM304.188 137.188V143.562H284.5V137.188H304.188ZM289.375 128.844H298.375V160.812C298.375 161.792 298.5 162.542 298.75 163.062C299.021 163.583 299.417 163.948 299.938 164.156C300.458 164.344 301.115 164.438 301.906 164.438C302.469 164.438 302.969 164.417 303.406 164.375C303.865 164.312 304.25 164.25 304.562 164.188L304.594 170.812C303.823 171.062 302.99 171.26 302.094 171.406C301.198 171.552 300.208 171.625 299.125 171.625C297.146 171.625 295.417 171.302 293.938 170.656C292.479 169.99 291.354 168.927 290.562 167.469C289.771 166.01 289.375 164.094 289.375 161.719V128.844ZM318.812 137.188V171H309.781V137.188H318.812ZM309.219 128.375C309.219 127.062 309.677 125.979 310.594 125.125C311.51 124.271 312.74 123.844 314.281 123.844C315.802 123.844 317.021 124.271 317.938 125.125C318.875 125.979 319.344 127.062 319.344 128.375C319.344 129.688 318.875 130.771 317.938 131.625C317.021 132.479 315.802 132.906 314.281 132.906C312.74 132.906 311.51 132.479 310.594 131.625C309.677 130.771 309.219 129.688 309.219 128.375ZM324.812 154.438V153.781C324.812 151.302 325.167 149.021 325.875 146.938C326.583 144.833 327.615 143.01 328.969 141.469C330.323 139.927 331.99 138.729 333.969 137.875C335.948 137 338.219 136.562 340.781 136.562C343.344 136.562 345.625 137 347.625 137.875C349.625 138.729 351.302 139.927 352.656 141.469C354.031 143.01 355.073 144.833 355.781 146.938C356.49 149.021 356.844 151.302 356.844 153.781V154.438C356.844 156.896 356.49 159.177 355.781 161.281C355.073 163.365 354.031 165.188 352.656 166.75C351.302 168.292 349.635 169.49 347.656 170.344C345.677 171.198 343.406 171.625 340.844 171.625C338.281 171.625 336 171.198 334 170.344C332.021 169.49 330.344 168.292 328.969 166.75C327.615 165.188 326.583 163.365 325.875 161.281C325.167 159.177 324.812 156.896 324.812 154.438ZM333.812 153.781V154.438C333.812 155.854 333.938 157.177 334.188 158.406C334.438 159.635 334.833 160.719 335.375 161.656C335.938 162.573 336.667 163.292 337.562 163.812C338.458 164.333 339.552 164.594 340.844 164.594C342.094 164.594 343.167 164.333 344.062 163.812C344.958 163.292 345.677 162.573 346.219 161.656C346.76 160.719 347.156 159.635 347.406 158.406C347.677 157.177 347.812 155.854 347.812 154.438V153.781C347.812 152.406 347.677 151.115 347.406 149.906C347.156 148.677 346.75 147.594 346.188 146.656C345.646 145.698 344.927 144.948 344.031 144.406C343.135 143.865 342.052 143.594 340.781 143.594C339.51 143.594 338.427 143.865 337.531 144.406C336.656 144.948 335.938 145.698 335.375 146.656C334.833 147.594 334.438 148.677 334.188 149.906C333.938 151.115 333.812 152.406 333.812 153.781ZM371.188 144.406V171H362.188V137.188H370.625L371.188 144.406ZM369.875 152.906H367.438C367.438 150.406 367.76 148.156 368.406 146.156C369.052 144.135 369.958 142.417 371.125 141C372.292 139.562 373.677 138.469 375.281 137.719C376.906 136.948 378.719 136.562 380.719 136.562C382.302 136.562 383.75 136.792 385.062 137.25C386.375 137.708 387.5 138.438 388.438 139.438C389.396 140.438 390.125 141.76 390.625 143.406C391.146 145.052 391.406 147.062 391.406 149.438V171H382.344V149.406C382.344 147.906 382.135 146.74 381.719 145.906C381.302 145.073 380.688 144.49 379.875 144.156C379.083 143.802 378.104 143.625 376.938 143.625C375.729 143.625 374.677 143.865 373.781 144.344C372.906 144.823 372.177 145.49 371.594 146.344C371.031 147.177 370.604 148.156 370.312 149.281C370.021 150.406 369.875 151.615 369.875 152.906ZM441.125 155.906H450.469C450.281 158.969 449.438 161.688 447.938 164.062C446.458 166.438 444.385 168.292 441.719 169.625C439.073 170.958 435.885 171.625 432.156 171.625C429.24 171.625 426.625 171.125 424.312 170.125C422 169.104 420.021 167.646 418.375 165.75C416.75 163.854 415.51 161.562 414.656 158.875C413.802 156.188 413.375 153.177 413.375 149.844V146.688C413.375 143.354 413.812 140.344 414.688 137.656C415.583 134.948 416.854 132.646 418.5 130.75C420.167 128.854 422.156 127.396 424.469 126.375C426.781 125.354 429.365 124.844 432.219 124.844C436.01 124.844 439.208 125.531 441.812 126.906C444.438 128.281 446.469 130.177 447.906 132.594C449.365 135.01 450.24 137.76 450.531 140.844H441.156C441.052 139.01 440.688 137.458 440.062 136.188C439.438 134.896 438.49 133.927 437.219 133.281C435.969 132.615 434.302 132.281 432.219 132.281C430.656 132.281 429.292 132.573 428.125 133.156C426.958 133.74 425.979 134.625 425.188 135.812C424.396 137 423.802 138.5 423.406 140.312C423.031 142.104 422.844 144.208 422.844 146.625V149.844C422.844 152.198 423.021 154.271 423.375 156.062C423.729 157.833 424.271 159.333 425 160.562C425.75 161.771 426.708 162.688 427.875 163.312C429.062 163.917 430.49 164.219 432.156 164.219C434.115 164.219 435.729 163.906 437 163.281C438.271 162.656 439.24 161.729 439.906 160.5C440.594 159.271 441 157.74 441.125 155.906ZM471.625 171.625C469 171.625 466.646 171.208 464.562 170.375C462.479 169.521 460.708 168.344 459.25 166.844C457.812 165.344 456.708 163.604 455.938 161.625C455.167 159.625 454.781 157.5 454.781 155.25V154C454.781 151.438 455.146 149.094 455.875 146.969C456.604 144.844 457.646 143 459 141.438C460.375 139.875 462.042 138.677 464 137.844C465.958 136.99 468.167 136.562 470.625 136.562C473.021 136.562 475.146 136.958 477 137.75C478.854 138.542 480.406 139.667 481.656 141.125C482.927 142.583 483.885 144.333 484.531 146.375C485.177 148.396 485.5 150.646 485.5 153.125V156.875H458.625V150.875H476.656V150.188C476.656 148.938 476.427 147.823 475.969 146.844C475.531 145.844 474.865 145.052 473.969 144.469C473.073 143.885 471.927 143.594 470.531 143.594C469.344 143.594 468.323 143.854 467.469 144.375C466.615 144.896 465.917 145.625 465.375 146.562C464.854 147.5 464.458 148.604 464.188 149.875C463.938 151.125 463.812 152.5 463.812 154V155.25C463.812 156.604 464 157.854 464.375 159C464.771 160.146 465.323 161.135 466.031 161.969C466.76 162.802 467.635 163.448 468.656 163.906C469.698 164.365 470.875 164.594 472.188 164.594C473.812 164.594 475.323 164.281 476.719 163.656C478.135 163.01 479.354 162.042 480.375 160.75L484.75 165.5C484.042 166.521 483.073 167.5 481.844 168.438C480.635 169.375 479.177 170.146 477.469 170.75C475.76 171.333 473.812 171.625 471.625 171.625ZM499.625 144.562V171H490.625V137.188H499.094L499.625 144.562ZM509.812 136.969L509.656 145.312C509.219 145.25 508.688 145.198 508.062 145.156C507.458 145.094 506.906 145.062 506.406 145.062C505.135 145.062 504.031 145.229 503.094 145.562C502.177 145.875 501.406 146.344 500.781 146.969C500.177 147.594 499.719 148.354 499.406 149.25C499.115 150.146 498.948 151.167 498.906 152.312L497.094 151.75C497.094 149.562 497.312 147.552 497.75 145.719C498.188 143.865 498.823 142.25 499.656 140.875C500.51 139.5 501.552 138.438 502.781 137.688C504.01 136.938 505.417 136.562 507 136.562C507.5 136.562 508.01 136.604 508.531 136.688C509.052 136.75 509.479 136.844 509.812 136.969ZM532.188 137.188V143.562H512.5V137.188H532.188ZM517.375 128.844H526.375V160.812C526.375 161.792 526.5 162.542 526.75 163.062C527.021 163.583 527.417 163.948 527.938 164.156C528.458 164.344 529.115 164.438 529.906 164.438C530.469 164.438 530.969 164.417 531.406 164.375C531.865 164.312 532.25 164.25 532.562 164.188L532.594 170.812C531.823 171.062 530.99 171.26 530.094 171.406C529.198 171.552 528.208 171.625 527.125 171.625C525.146 171.625 523.417 171.302 521.938 170.656C520.479 169.99 519.354 168.927 518.562 167.469C517.771 166.01 517.375 164.094 517.375 161.719V128.844ZM546.812 137.188V171H537.781V137.188H546.812ZM537.219 128.375C537.219 127.062 537.677 125.979 538.594 125.125C539.51 124.271 540.74 123.844 542.281 123.844C543.802 123.844 545.021 124.271 545.938 125.125C546.875 125.979 547.344 127.062 547.344 128.375C547.344 129.688 546.875 130.771 545.938 131.625C545.021 132.479 543.802 132.906 542.281 132.906C540.74 132.906 539.51 132.479 538.594 131.625C537.677 130.771 537.219 129.688 537.219 128.375ZM565.5 171H556.469V135.656C556.469 132.781 557.052 130.354 558.219 128.375C559.406 126.396 561.094 124.896 563.281 123.875C565.49 122.854 568.156 122.344 571.281 122.344C573.052 122.344 574.771 122.521 576.438 122.875C578.104 123.208 579.823 123.646 581.594 124.188L580.281 131.406C579.135 131.052 577.906 130.719 576.594 130.406C575.281 130.094 573.698 129.938 571.844 129.938C569.76 129.938 568.177 130.427 567.094 131.406C566.031 132.365 565.5 133.781 565.5 135.656V171ZM572.219 137.188V143.562H551.438V137.188H572.219ZM585.781 137.188V171H576.75V137.188H585.781ZM607.281 164.594C608.385 164.594 609.365 164.385 610.219 163.969C611.073 163.531 611.74 162.927 612.219 162.156C612.719 161.365 612.979 160.438 613 159.375H621.469C621.448 161.75 620.812 163.865 619.562 165.719C618.312 167.552 616.635 169 614.531 170.062C612.427 171.104 610.073 171.625 607.469 171.625C604.844 171.625 602.552 171.188 600.594 170.312C598.656 169.438 597.042 168.229 595.75 166.688C594.458 165.125 593.49 163.312 592.844 161.25C592.198 159.167 591.875 156.938 591.875 154.562V153.656C591.875 151.26 592.198 149.031 592.844 146.969C593.49 144.885 594.458 143.073 595.75 141.531C597.042 139.969 598.656 138.75 600.594 137.875C602.531 137 604.802 136.562 607.406 136.562C610.177 136.562 612.604 137.094 614.688 138.156C616.792 139.219 618.438 140.74 619.625 142.719C620.833 144.677 621.448 147 621.469 149.688H613C612.979 148.562 612.74 147.542 612.281 146.625C611.844 145.708 611.198 144.979 610.344 144.438C609.51 143.875 608.479 143.594 607.25 143.594C605.938 143.594 604.865 143.875 604.031 144.438C603.198 144.979 602.552 145.729 602.094 146.688C601.635 147.625 601.312 148.698 601.125 149.906C600.958 151.094 600.875 152.344 600.875 153.656V154.562C600.875 155.875 600.958 157.135 601.125 158.344C601.292 159.552 601.604 160.625 602.062 161.562C602.542 162.5 603.198 163.24 604.031 163.781C604.865 164.323 605.948 164.594 607.281 164.594ZM644.938 163.375V148.312C644.938 147.229 644.76 146.302 644.406 145.531C644.052 144.74 643.5 144.125 642.75 143.688C642.021 143.25 641.073 143.031 639.906 143.031C638.906 143.031 638.042 143.208 637.312 143.562C636.583 143.896 636.021 144.385 635.625 145.031C635.229 145.656 635.031 146.396 635.031 147.25H626.031C626.031 145.812 626.365 144.448 627.031 143.156C627.698 141.865 628.667 140.729 629.938 139.75C631.208 138.75 632.719 137.969 634.469 137.406C636.24 136.844 638.219 136.562 640.406 136.562C643.031 136.562 645.365 137 647.406 137.875C649.448 138.75 651.052 140.062 652.219 141.812C653.406 143.562 654 145.75 654 148.375V162.844C654 164.698 654.115 166.219 654.344 167.406C654.573 168.573 654.906 169.594 655.344 170.469V171H646.25C645.812 170.083 645.479 168.938 645.25 167.562C645.042 166.167 644.938 164.771 644.938 163.375ZM646.125 150.406L646.188 155.5H641.156C639.969 155.5 638.938 155.635 638.062 155.906C637.188 156.177 636.469 156.562 635.906 157.062C635.344 157.542 634.927 158.104 634.656 158.75C634.406 159.396 634.281 160.104 634.281 160.875C634.281 161.646 634.458 162.344 634.812 162.969C635.167 163.573 635.677 164.052 636.344 164.406C637.01 164.74 637.792 164.906 638.688 164.906C640.042 164.906 641.219 164.635 642.219 164.094C643.219 163.552 643.99 162.885 644.531 162.094C645.094 161.302 645.385 160.552 645.406 159.844L647.781 163.656C647.448 164.51 646.99 165.396 646.406 166.312C645.844 167.229 645.125 168.094 644.25 168.906C643.375 169.698 642.323 170.354 641.094 170.875C639.865 171.375 638.406 171.625 636.719 171.625C634.573 171.625 632.625 171.198 630.875 170.344C629.146 169.469 627.771 168.271 626.75 166.75C625.75 165.208 625.25 163.458 625.25 161.5C625.25 159.729 625.583 158.156 626.25 156.781C626.917 155.406 627.896 154.25 629.188 153.312C630.5 152.354 632.135 151.635 634.094 151.156C636.052 150.656 638.323 150.406 640.906 150.406H646.125ZM677.5 137.188V143.562H657.812V137.188H677.5ZM662.688 128.844H671.688V160.812C671.688 161.792 671.812 162.542 672.062 163.062C672.333 163.583 672.729 163.948 673.25 164.156C673.771 164.344 674.427 164.438 675.219 164.438C675.781 164.438 676.281 164.417 676.719 164.375C677.177 164.312 677.562 164.25 677.875 164.188L677.906 170.812C677.135 171.062 676.302 171.26 675.406 171.406C674.51 171.552 673.521 171.625 672.438 171.625C670.458 171.625 668.729 171.302 667.25 170.656C665.792 169.99 664.667 168.927 663.875 167.469C663.083 166.01 662.688 164.094 662.688 161.719V128.844ZM698.188 171.625C695.562 171.625 693.208 171.208 691.125 170.375C689.042 169.521 687.271 168.344 685.812 166.844C684.375 165.344 683.271 163.604 682.5 161.625C681.729 159.625 681.344 157.5 681.344 155.25V154C681.344 151.438 681.708 149.094 682.438 146.969C683.167 144.844 684.208 143 685.562 141.438C686.938 139.875 688.604 138.677 690.562 137.844C692.521 136.99 694.729 136.562 697.188 136.562C699.583 136.562 701.708 136.958 703.562 137.75C705.417 138.542 706.969 139.667 708.219 141.125C709.49 142.583 710.448 144.333 711.094 146.375C711.74 148.396 712.062 150.646 712.062 153.125V156.875H685.188V150.875H703.219V150.188C703.219 148.938 702.99 147.823 702.531 146.844C702.094 145.844 701.427 145.052 700.531 144.469C699.635 143.885 698.49 143.594 697.094 143.594C695.906 143.594 694.885 143.854 694.031 144.375C693.177 144.896 692.479 145.625 691.938 146.562C691.417 147.5 691.021 148.604 690.75 149.875C690.5 151.125 690.375 152.5 690.375 154V155.25C690.375 156.604 690.562 157.854 690.938 159C691.333 160.146 691.885 161.135 692.594 161.969C693.323 162.802 694.198 163.448 695.219 163.906C696.26 164.365 697.438 164.594 698.75 164.594C700.375 164.594 701.885 164.281 703.281 163.656C704.698 163.01 705.917 162.042 706.938 160.75L711.312 165.5C710.604 166.521 709.635 167.5 708.406 168.438C707.198 169.375 705.74 170.146 704.031 170.75C702.323 171.333 700.375 171.625 698.188 171.625Z" fill="#FAAF20"/>
<path d="M264.907 436.425V428.163C264.907 405.5 246.366 386.959 223.703 386.959C201.042 386.959 182.498 405.5 182.498 428.163V409.43C182.498 386.769 163.957 368.226 141.293 368.226C118.633 368.226 100.089 386.769 100.089 409.43V437.503C81.8233 441.716 68.0859 458.131 68.0859 477.627C68.0859 500.288 86.6272 518.832 109.291 518.832H264.905C287.568 518.832 306.109 500.29 306.109 477.627C306.109 454.964 287.571 436.425 264.907 436.425Z" fill="#41DBF8"/>
<path d="M147.354 649.112V644.139C147.354 630.495 136.191 619.332 122.547 619.332C108.904 619.332 97.7404 630.495 97.7404 644.139V632.862C97.7404 619.219 86.5773 608.055 72.9335 608.055C59.2897 608.055 48.1266 619.219 48.1266 632.862V649.765C37.1308 652.302 28.8594 662.183 28.8594 673.919C28.8594 687.563 40.0225 698.724 53.6663 698.724H147.352C160.996 698.724 172.159 687.561 172.159 673.919C172.161 660.275 160.998 649.112 147.354 649.112Z" fill="#41DBF8"/>
<path d="M941.899 357.338V344.755C941.899 323.394 924.421 305.918 903.062 305.918C885.726 305.918 870.95 317.431 865.999 333.186V294.095C865.999 272.734 848.521 255.258 827.162 255.258C805.8 255.258 788.325 272.736 788.325 294.095V306.324C784.505 288.903 768.925 275.754 750.401 275.754C729.039 275.754 711.563 293.232 711.563 314.591V354.939C695.774 360.72 684.406 375.882 684.406 393.609C684.406 416.272 702.947 434.813 725.611 434.813H922.43C945.093 434.813 963.634 416.272 963.634 393.609C963.629 377.981 954.807 364.318 941.899 357.338Z" fill="#41DBF8"/>
<path d="M949.269 705.71V691.318C949.269 666.167 930.701 644.207 905.68 641.645C882.126 639.234 861.407 653.921 854.462 674.751C854.412 674.898 854.206 674.869 854.206 674.711V627.824C854.206 602.533 835.406 580.539 810.228 578.159C781.402 575.434 756.922 598.287 756.922 626.582V640.772C756.922 640.934 756.706 640.956 756.669 640.799C751.442 619.363 731.936 603.364 708.896 603.613C682.021 603.903 660.783 626.682 660.783 653.557V702.693C660.783 702.75 660.749 702.801 660.694 702.819C640.965 710.083 626.77 729.048 626.77 751.219C626.77 779.602 649.992 802.826 678.374 802.826H924.878C953.261 802.826 976.483 779.604 976.483 751.219C976.483 731.674 965.465 714.58 949.336 705.828C949.294 705.806 949.269 705.759 949.269 705.71Z" fill="#41DBF8"/>
<path d="M949.543 693.435C949.543 693.435 950.429 684.92 951.814 682.304C951.814 682.304 956.709 667.897 957.625 665.729C957.625 665.729 961.309 665.554 961.147 670.024C960.984 674.493 959.353 679.809 959.353 679.809C959.353 679.809 964.481 675.711 966.494 672.007C968.507 668.306 972.704 661.122 975.292 660.453C977.881 659.783 977.842 662.577 977.842 662.577C977.842 662.577 971.389 673.602 970.028 675.979C968.83 678.066 970.068 678.076 970.068 678.076C970.068 678.076 980.402 667.388 982.257 665.478C984.11 663.568 985.941 663.928 987.135 666.179C987.135 666.179 981.662 671.921 978.63 675.755C977.574 677.092 973.119 680.928 974.783 682.112C974.783 682.112 984.657 673.919 986.143 672.33C987.627 670.74 989.756 671.338 990.186 673.686L977.722 685.868C977.722 685.868 977.023 686.891 977.879 687.155C978.649 687.393 986.118 683.943 986.805 683.365C987.492 682.786 989.81 681.157 990.984 683.286C990.984 683.286 991.287 684.061 989.138 685.619C986.987 687.179 977.079 694.909 977.079 694.909C977.079 694.909 971.124 700.69 961.946 703.063C952.7 705.452 949.991 702.551 955.115 704.923L952.865 700.07L949.543 693.435Z" fill="#FFCDA9"/>
<path d="M846.987 756.124C846.987 756.124 838.63 775.175 845.939 803.841C845.939 803.841 925.899 793.197 964.247 701.337L949.235 691.336C949.235 691.336 900.155 756.319 846.987 756.124Z" fill="#FF7000"/>
<path d="M845.868 803.521C846.837 803.359 848.016 803.238 849.397 803.213C851.91 802.694 855.722 801.774 860.444 800.3C864.982 770.411 846.99 756.125 846.99 756.125L843.641 791.46C844.098 795.254 844.797 799.268 845.868 803.521Z" fill="#FF5800"/>
<path d="M851.463 774.846C851.463 774.846 850.867 807.801 835.006 828.279C819.145 848.757 753.855 930.911 753.855 930.911C753.855 930.911 721.835 945.748 686.266 894.547C686.266 894.547 766.231 783.309 782.693 765.804C799.154 748.299 819.367 732.733 835.577 750.059L851.463 774.846Z" fill="#FF9400"/>
<path d="M835.656 720.163L823.137 749.217C823.137 749.217 824.247 769.353 839.571 780.612L852.543 750.504L835.656 720.163Z" fill="#FFCDA9"/>
<path d="M871.289 666.514C858 657.657 841.344 657.832 829.883 670.403C829.883 670.403 801.283 690.3 824.232 719.02L830.51 728.446L836.156 729.366L841.981 737.453L866.621 718.722L884.881 702.59C890.8 693.359 895.86 672.175 871.289 666.514Z" fill="#131637"/>
<path d="M884.876 702.59L873.048 755.354C873.048 755.354 839.657 764.974 833.443 730.225C833.443 730.225 817.54 722.35 824.65 711.78C825.743 710.155 828.819 709.545 831.204 710.032C833.34 710.471 835.454 712.186 836.478 714.066C838.525 717.824 837.809 721.673 837.809 721.673C837.809 721.673 843.157 718.722 843.157 710.781C843.157 710.781 852.538 706.969 852.538 698.04C852.538 698.04 856.139 698.828 856.798 695.532C856.798 695.532 868.065 707.365 884.876 702.59Z" fill="#FFCDA9"/>
<path d="M839.569 780.612L827.085 785.652C827.085 785.652 805.817 746.719 826.373 741.701C826.373 741.701 823.049 759.046 839.569 780.612Z" fill="#FFC431"/>
<path d="M845.842 766.065L839.574 780.609L850.836 786.707C850.836 786.707 854.03 773.31 848.173 760.653L845.842 766.065Z" fill="#FFC431"/>
<path d="M965.781 1182.25L940.204 1225.27C935.518 1233.16 924.087 1233.11 919.467 1225.19L894.262 1181.95L930.173 1146.34L965.781 1182.25Z" fill="#FFE8AA"/>
<path opacity="0.21" d="M905.398 1236.37C905.398 1239.5 916.328 1242.03 929.809 1242.03C943.291 1242.03 954.22 1239.5 954.22 1236.37C954.22 1233.24 943.291 1230.71 929.809 1230.71C916.328 1230.71 905.398 1233.24 905.398 1236.37Z" fill="#017ABF"/>
<path d="M935.545 1233.11L950.122 1208.59L915.355 1218.13L924.06 1233.06C926.619 1237.45 932.949 1237.48 935.545 1233.11Z" fill="#FF1D42"/>
<path d="M967.47 789.272L967.376 811.114C967.293 830.779 950.701 946.88 931.035 946.796C911.369 946.712 895.776 830.472 895.86 810.806L895.953 788.965C896.037 769.296 912.198 753.275 931.864 753.361C951.533 753.445 967.556 769.606 967.47 789.272Z" fill="#FF5696"/>
<path d="M895.854 815.181L894.277 1181.94L965.794 1182.25L967.371 815.488L895.854 815.181Z" fill="#FF1D42"/>
<path d="M919.972 815.283L918.395 1182.04L941.666 1182.14L943.243 815.383L919.972 815.283Z" fill="#FF5268"/>
<path d="M965.782 1182.25L959.738 1176.16L953.775 1182.07L947.864 1176.11L941.901 1182.02L935.987 1176.06L930.024 1181.97L924.113 1176L918.147 1181.92L912.236 1175.95L906.273 1181.87L900.362 1175.9L894.266 1181.95L900.307 1188.04L906.27 1182.13L912.184 1188.09L918.147 1182.18L924.059 1188.14L930.022 1182.23L935.935 1188.19L941.898 1182.28L947.81 1188.25L953.775 1182.33L959.687 1188.3L965.782 1182.25Z" fill="#FFE8AA"/>
<path d="M895.898 802.928L895.781 830.051L967.298 830.358L967.415 803.236L895.898 802.928Z" fill="#B4CCFF"/>
<path d="M895.851 802.904L895.836 806.378L967.353 806.679L967.367 803.204L895.851 802.904Z" fill="#D9EEFF"/>
<path d="M786.881 768.853C790.301 759.529 808.769 750.482 824.276 779.731C843.804 816.565 871.753 862.089 946.383 865.02L949.752 882.505C949.752 882.505 859.079 906.254 802.501 821.632C795.388 810.998 780.147 787.208 786.881 768.853Z" fill="#FF7000"/>
<path d="M974.524 877.917C970.026 880.804 963.499 884.579 963.499 884.579L949.752 882.505L946.383 865.019L947.579 860.673L957.384 851.752L960.539 856.625L957.817 862.147C957.817 862.147 959.852 861.564 967.203 859.258C967.215 856.115 967.232 852.564 967.232 852.564L975.181 855.96L975.13 863.415L977.97 870.82L974.524 877.917Z" fill="#FFCDA9"/>
<path opacity="0.21" d="M794.126 1238.63C794.126 1246.2 675.451 1252.34 529.059 1252.34C382.668 1252.34 263.996 1246.2 263.996 1238.63C263.996 1231.06 382.671 1224.92 529.059 1224.92C675.449 1224.92 794.126 1231.06 794.126 1238.63Z" fill="#017ABF"/>
<path d="M778.555 1236.28H291.874C279.431 1236.28 269.344 1226.19 269.344 1213.75V524.618C269.344 512.175 279.431 502.087 291.874 502.087H778.555C790.998 502.087 801.086 512.175 801.086 524.618V1213.75C801.086 1226.19 790.998 1236.28 778.555 1236.28Z" fill="#006ABC"/>
<path d="M778.555 1236.28H291.874C279.431 1236.28 269.344 1226.19 269.344 1213.75V524.618C269.344 512.175 279.431 502.087 291.874 502.087H778.555C790.998 502.087 801.086 512.175 801.086 524.618V1213.75C801.086 1226.19 790.998 1236.28 778.555 1236.28Z" fill="#006ABC"/>
<path d="M759.503 1208.25C601.581 1188.29 456.544 1188.29 298.621 1208.25C298.621 995.076 298.621 781.902 298.621 568.732C456.541 548.78 601.581 548.78 759.503 568.732C759.503 781.902 759.503 995.076 759.503 1208.25Z" fill="#005BAB"/>
<path d="M768.539 524.564H301.891V1188.38H768.539V524.564Z" fill="#F0F1F5"/>
<path d="M629.496 461.373H443.383L460.12 405.072C463.332 394.271 473.259 386.866 484.528 386.866H588.353C599.622 386.866 609.55 394.271 612.761 405.072L629.496 461.373Z" fill="#97CEF5"/>
<path d="M539.649 434.838C549.844 433.075 556.679 423.381 554.916 413.186C553.153 402.991 543.459 396.156 533.264 397.919C523.069 399.682 516.234 409.376 517.997 419.571C519.76 429.765 529.454 436.601 539.649 434.838Z" fill="#81BFF5"/>
<path d="M536.438 429.417C543.649 429.417 549.494 423.572 549.494 416.361C549.494 409.151 543.649 403.306 536.438 403.306C529.228 403.306 523.383 409.151 523.383 416.361C523.383 423.572 529.228 429.417 536.438 429.417Z" fill="#30C2EB"/>
<path d="M449.053 442.297L443.383 461.373H629.496L623.829 442.305C544.747 456.95 469.775 445.94 449.053 442.297Z" fill="#81BFF5"/>
<path d="M672.035 553.766H400.848C394.862 553.766 390.012 548.916 390.012 542.93V490.622C390.012 468.411 408.016 450.404 430.229 450.404H642.654C664.864 450.404 682.871 468.409 682.871 490.622V542.93C682.871 548.916 678.021 553.766 672.035 553.766Z" fill="#C2E1F5"/>
<path d="M421.382 488.759H651.516C653.59 488.759 655.286 487.063 655.286 484.989C655.286 482.916 653.59 481.218 651.516 481.218H421.382C419.307 481.218 417.612 482.914 417.612 484.989C417.609 487.061 419.307 488.759 421.382 488.759ZM651.513 502.762H421.38C419.305 502.762 417.609 504.458 417.609 506.532C417.609 508.607 419.305 510.302 421.38 510.302H651.513C653.588 510.302 655.283 508.607 655.283 506.532C655.283 504.458 653.588 502.762 651.513 502.762ZM651.513 524.306H421.38C419.305 524.306 417.609 526.001 417.609 528.076C417.609 530.148 419.305 531.846 421.38 531.846H651.513C653.588 531.846 655.283 530.15 655.283 528.076C655.283 526.004 653.588 524.306 651.513 524.306Z" fill="#97CEF5"/>
<path d="M460.488 651.05H721.274" stroke="#C9D0EC" stroke-width="4" stroke-miterlimit="10" stroke-linecap="round" stroke-linejoin="round"/>
<path d="M460.488 682.362H721.274" stroke="#C9D0EC" stroke-width="4" stroke-miterlimit="10" stroke-linecap="round" stroke-linejoin="round"/>
<path d="M460.488 713.673H721.274" stroke="#C9D0EC" stroke-width="4" stroke-miterlimit="10" stroke-linecap="round" stroke-linejoin="round"/>
<path d="M460.488 781.276H721.274" stroke="#C9D0EC" stroke-width="4" stroke-miterlimit="10" stroke-linecap="round" stroke-linejoin="round"/>
<path d="M460.488 812.588H721.274" stroke="#C9D0EC" stroke-width="4" stroke-miterlimit="10" stroke-linecap="round" stroke-linejoin="round"/>
<path d="M460.488 843.899H721.274" stroke="#C9D0EC" stroke-width="4" stroke-miterlimit="10" stroke-linecap="round" stroke-linejoin="round"/>
<path d="M460.488 911.502H721.274" stroke="#C9D0EC" stroke-width="4" stroke-miterlimit="10" stroke-linecap="round" stroke-linejoin="round"/>
<path d="M460.488 942.814H721.274" stroke="#C9D0EC" stroke-width="4" stroke-miterlimit="10" stroke-linecap="round" stroke-linejoin="round"/>
<path d="M460.488 974.126H721.274" stroke="#C9D0EC" stroke-width="4" stroke-miterlimit="10" stroke-linecap="round" stroke-linejoin="round"/>
<path d="M460.488 1041.73H721.274" stroke="#C9D0EC" stroke-width="4" stroke-miterlimit="10" stroke-linecap="round" stroke-linejoin="round"/>
<path d="M460.488 1073.04H721.274" stroke="#C9D0EC" stroke-width="4" stroke-miterlimit="10" stroke-linecap="round" stroke-linejoin="round"/>
<path d="M460.488 1104.35H721.274" stroke="#C9D0EC" stroke-width="4" stroke-miterlimit="10" stroke-linecap="round" stroke-linejoin="round"/>
<path d="M467.329 593.642H351.598C347.52 593.642 344.215 590.337 344.215 586.259C344.215 582.181 347.52 578.876 351.598 578.876H467.329C471.407 578.876 474.712 582.181 474.712 586.259C474.712 590.337 471.407 593.642 467.329 593.642Z" fill="#00A4FF"/>
<path d="M351.594 611.444H423.829" stroke="#FF1D42" stroke-width="4" stroke-miterlimit="10" stroke-linecap="round" stroke-linejoin="round"/>
<path d="M406.771 718.594H344.149C341.429 718.594 339.227 716.389 339.227 713.672V651.051C339.227 648.334 341.429 646.129 344.149 646.129H406.771C409.488 646.129 411.693 648.334 411.693 651.051V713.672C411.693 716.389 409.488 718.594 406.771 718.594ZM349.071 708.75H401.849V655.973H349.071V708.75Z" fill="#C9D0EC"/>
<path d="M361.694 716.574C359.767 716.574 357.843 715.838 356.374 714.369L335.393 693.393C332.453 690.457 332.453 685.691 335.391 682.75C338.332 679.809 343.096 679.809 346.037 682.75L361.694 698.404L404.757 655.344C407.693 652.403 412.46 652.403 415.401 655.344C418.342 658.285 418.342 663.047 415.401 665.988L367.015 714.371C365.548 715.838 363.621 716.574 361.694 716.574Z" fill="#FF1D42"/>
<path d="M406.771 848.821H344.149C341.429 848.821 339.227 846.616 339.227 843.899V781.279C339.227 778.56 341.429 776.357 344.149 776.357H406.771C409.488 776.357 411.693 778.56 411.693 781.279V843.899C411.693 846.616 409.488 848.821 406.771 848.821ZM349.071 838.977H401.849V786.201H349.071V838.977Z" fill="#C9D0EC"/>
<path d="M361.694 846.798C359.767 846.798 357.843 846.062 356.374 844.593L335.393 823.618C332.453 820.682 332.453 815.915 335.391 812.974C338.332 810.033 343.096 810.033 346.037 812.974L361.694 828.628L404.757 785.568C407.693 782.627 412.46 782.627 415.401 785.568C418.342 788.509 418.342 793.271 415.401 796.212L367.015 844.595C365.548 846.064 363.621 846.798 361.694 846.798Z" fill="#FF1D42"/>
<path d="M406.767 979.047H344.145C341.425 979.047 339.223 976.842 339.223 974.125V911.505C339.223 908.788 341.425 906.583 344.145 906.583H406.767C409.484 906.583 411.689 908.788 411.689 911.505V974.125C411.689 976.842 409.484 979.047 406.767 979.047ZM349.067 969.203H401.845V916.427H349.067V969.203Z" fill="#C9D0EC"/>
<path d="M356.408 989.256C353.74 989.256 351.07 988.237 349.035 986.199L319.965 957.137C315.892 953.069 315.892 946.464 319.963 942.388C324.036 938.315 330.639 938.315 334.714 942.388L356.408 964.077L416.075 904.413C420.143 900.34 426.748 900.34 430.824 904.413C434.899 908.488 434.899 915.086 430.824 919.161L363.783 986.199C361.748 988.237 359.078 989.256 356.408 989.256Z" fill="#00A4FF"/>
<path d="M406.771 1114.2H344.149C341.429 1114.2 339.227 1111.99 339.227 1109.27V1046.65C339.227 1043.94 341.429 1041.73 344.149 1041.73H406.771C409.488 1041.73 411.693 1043.94 411.693 1046.65V1109.27C411.693 1111.99 409.488 1114.2 406.771 1114.2ZM349.071 1104.35H401.849V1051.58H349.071V1104.35Z" fill="#C9D0EC"/>
<path d="M801.086 720.423V544.602H661.574V705.628H681.203V720.423H801.086Z" fill="#C9D0EC"/>
<path d="M798.16 540.598H661.574V701.624H798.16V540.598Z" fill="#FF1D42"/>
<path d="M831.394 553.766H677.027V714.792H831.394V553.766Z" fill="#FFC431"/>
<path d="M815.9 600.668H727.375V606.361H815.9V600.668Z" fill="#006ABC"/>
<path d="M701.313 611.863L714.066 599.11L710.586 595.63L701.313 604.903L697.863 601.451L694.383 604.933L701.313 611.863Z" fill="#FFF000"/>
<path d="M815.9 637.551H727.375V643.243H815.9V637.551Z" fill="#006ABC"/>
<path d="M701.313 648.744L714.066 635.991L710.586 632.511L701.313 641.784L697.863 638.334L694.383 641.814L701.313 648.744Z" fill="#FFF000"/>
<path d="M815.9 674.432H727.375V680.124H815.9V674.432Z" fill="#006ABC"/>
<path d="M701.313 685.623L714.066 672.873L710.586 669.393L701.313 678.664L697.863 675.213L694.383 678.693L701.313 685.623Z" fill="#FFF000"/>
<path d="M737.665 586.598C721.011 586.657 715.877 572.467 715.491 564.954L715.203 485.133C715.203 485.067 715.206 485.001 715.21 484.934C715.22 484.767 716.456 468.216 733.449 468.699C746.167 469.056 750.164 479.412 750.501 484.836C750.504 484.892 750.506 484.949 750.506 485.005L750.752 553.552C750.752 553.608 750.75 553.665 750.747 553.722C750.484 558.521 747.484 567.609 738.009 567.644C727.663 567.68 724.801 558.523 724.732 553.677L724.543 500.936C724.538 499.331 725.835 498.024 727.439 498.019C729.044 498.014 730.351 499.309 730.355 500.916L730.545 553.626C730.577 554.964 731.091 561.855 737.987 561.831C744.159 561.808 744.875 554.357 744.937 553.478L744.693 485.131C744.583 483.807 743.455 474.795 733.284 474.509C722.397 474.177 721.149 483.736 721.016 485.232L721.299 564.708C721.385 565.965 722.731 580.837 737.643 580.783C752.879 580.729 753.664 565.212 753.688 564.553L753.457 500.379C753.452 498.775 754.749 497.468 756.354 497.463C757.958 497.458 759.265 498.755 759.27 500.36L759.499 564.658C759.206 572.302 754.262 586.539 737.665 586.598Z" fill="#00188D"/>
<path d="M751.969 540.598H724.031V570.322H751.969V540.598Z" fill="#FFC431"/>
<path d="M751.969 540.598H724.031V553.767H751.969V540.598Z" fill="#FF1D42"/>
<path d="M751.969 524.306H724.031V540.598H751.969V524.306Z" fill="#F0F1F5"/>
<path d="M751.969 502.087H724.031V524.566H751.969V502.087Z" fill="#006ABC"/>
<path opacity="0.14" d="M412.703 911.889L405.665 862.334L269.34 691.373V806.083L349.748 906.92L388.863 921.893L396.141 924.679L396.49 924.812L405.005 928.07C409.75 929.886 414.699 925.939 413.985 920.909L412.703 911.889Z" fill="#005BAB"/>
<path d="M157.178 747.915C157.178 747.915 151.484 773.147 167.185 806.415C167.185 806.415 262.283 774.506 287.37 653.296L266.678 644.636C266.678 644.636 240.734 737.886 157.178 747.915Z" fill="#5012AC"/>
<path d="M416.025 862.202L415.085 912.244C414.913 921.413 404.956 927.027 397.022 922.425L353.723 897.32L367.315 848.609L416.025 862.202Z" fill="#FFE8AA"/>
<path d="M414.914 921.357L415.451 892.836L389.957 918.325L404.91 926.995C409.303 929.545 414.818 926.436 414.914 921.357Z" fill="#151642"/>
<path d="M223.057 519.856L233.782 538.882C243.439 556.015 286.468 665.117 269.334 674.774C252.201 684.431 181.139 591.131 171.482 573.998L160.757 554.972C151.1 537.838 157.216 515.921 174.349 506.261C191.48 496.607 213.398 502.725 223.057 519.856Z" fill="#FF5696"/>
<path d="M173.64 577.862L353.719 897.345L416.017 862.23L235.939 542.747L173.64 577.862Z" fill="#FFE000"/>
<path d="M194.652 566.018L374.73 885.501L395.002 874.075L214.924 554.592L194.652 566.018Z" fill="#FFF400"/>
<path d="M416.025 862.201L407.756 859.893L405.5 867.982L397.41 865.726L395.154 873.812L387.067 871.556L384.81 879.645L376.721 877.388L374.464 885.475L366.375 883.218L364.118 891.308L356.029 889.051L353.723 897.318L361.989 899.626L364.246 891.537L372.335 893.793L374.592 885.707L382.681 887.963L384.938 879.874L393.027 882.131L395.284 874.041L403.371 876.298L405.628 868.211L413.717 870.468L416.025 862.201Z" fill="#FFE8AA"/>
<path d="M167.616 567.173L180.934 590.8L243.232 555.685L229.915 532.058L167.616 567.173Z" fill="#B4CCFF"/>
<path d="M167.594 567.144L169.301 570.171L231.599 535.049L229.893 532.022L167.594 567.144Z" fill="#D9EEFF"/>
<path d="M177.643 663.772C177.643 663.772 190.492 684.117 194.777 714.097C194.777 714.097 184.605 722.664 163.19 722.664V750.402L137.701 735.493V716.238L143.686 715.167L139.63 707.085C139.63 707.085 131.081 706.48 128.128 697.707C125.174 688.933 135.233 691.074 137.699 692.145L141.235 697.707C141.235 697.707 140.28 685.185 132.727 681.973L135.346 669.661C135.346 669.661 154.623 673.943 177.643 663.772Z" fill="#FFCDA9"/>
<path d="M108.946 672.86C108.946 672.86 104 658.363 117.946 649.375C120.267 660.915 131.162 666.954 139.642 675.1L133.47 676.508C133.47 676.508 140.73 684.11 141.24 697.707L137.703 692.147C137.703 692.147 132.021 689.155 128.994 693.284C125.967 697.411 131.971 705.341 139.633 707.086L143.688 715.167L137.703 716.238V722.678C137.703 722.678 133.857 721.069 131.462 715.167C131.462 715.167 101.758 708.309 108.946 672.86Z" fill="#131C4C"/>
<path d="M125.754 669.21C125.754 669.21 174.108 686.834 180.797 654.56L177.65 653.135C177.65 653.135 180.514 647.458 179.421 636.651C179.421 636.651 144.579 615.487 117.946 649.375L115.465 657.124L125.754 669.21Z" fill="#131C4C"/>
<path opacity="0.21" d="M52.3281 1240.97C52.3281 1248.41 95.7526 1254.43 149.321 1254.43C202.89 1254.43 246.317 1248.41 246.317 1240.97C246.317 1233.54 202.89 1227.51 149.321 1227.51C95.755 1227.51 52.3281 1233.54 52.3281 1240.97Z" fill="#017ABF"/>
<path opacity="0.21" d="M544 1266.57C544 1278.41 613.157 1288 698.467 1288C783.776 1288 852.935 1278.41 852.935 1266.57C852.935 1254.73 783.776 1245.13 698.467 1245.13C613.157 1245.13 544 1254.73 544 1266.57Z" fill="#017ABF"/>
<path d="M185.039 1224.06V1235.46H232.347L200.278 1224.06H185.039Z" fill="#000F1F"/>
<path d="M72.0859 1224.06V1235.46L100.678 1248.55H113.517L89.5517 1224.06H72.0859Z" fill="#000F1F"/>
<path d="M189.853 944.136L200.275 1224.06H185.037C185.037 1224.06 159.642 1152.95 163.705 1082.86L146.436 977.21L89.5475 1224.06H72.2786C72.2786 1224.06 57.264 1132.92 78.3745 1077.78L86.5008 919.305L189.853 944.136Z" fill="#001F5E"/>
<path d="M146.438 977.207L165.914 938.39L163.706 1082.86L146.438 977.207Z" fill="#00143E"/>
<path d="M189.853 944.137L85.4375 965.38L85.5212 942.276L189.853 944.137Z" fill="#00143E"/>
<path d="M83.6211 942.276L189.853 944.137C189.853 944.137 191.275 859.417 175.749 762.613C174.093 752.291 167.219 733.194 143.847 735.591C122.655 737.764 109.587 762.674 100.592 796.151C86.1141 850.023 83.6211 942.276 83.6211 942.276Z" fill="#C14DFF"/>
<path d="M133.465 738.824L135.699 725.525C135.699 725.525 157.487 727.381 169.13 742.447L170.279 748.789C170.279 748.789 148.657 741.236 133.465 738.824Z" fill="#FBFFFF"/>
<path d="M171.744 765.809C171.744 765.809 157.952 750.4 146.577 752.46C124.389 756.477 122.93 780.619 133.465 794.411C134.76 796.106 136.765 798.245 139.315 800.711C184.078 844.024 291.826 846.798 345.934 793.429L331.763 775.955C331.763 775.955 248.347 828.98 171.744 765.809Z" fill="#6A26CE"/>
<path d="M331.758 775.955L333.185 760.227L344.208 737.158C344.208 737.158 349.849 744.688 349.059 750.4C348.269 756.112 349.135 762.777 349.135 762.777L354.059 752.271L348.677 742.722C348.677 742.722 358.187 746.497 361.642 751.03C363.894 753.984 363.871 759.678 363.871 759.678L371.129 773.588L364.898 783.902L345.933 793.426L331.758 775.955Z" fill="#FFCDA9"/>
<path d="M759.504 1073.04L637.652 1080.74L654.062 970.536H743.84L759.504 1073.04Z" fill="#131637"/>
<path d="M667.009 1047.58C667.009 1047.58 617.309 1086.97 608.317 1137.17C597.112 1199.71 639.992 1226.75 639.992 1226.75L645.239 1195.22C645.239 1195.22 630.813 1175.12 633.232 1158C636.345 1136 653.208 1119.97 653.208 1119.97C653.208 1119.97 675.273 1086.31 667.009 1047.58Z" fill="#F32F48"/>
<path d="M655.056 1091.82L665.1 1049.31C665.1 1049.31 625.487 1082.41 634.763 1150.84L634.79 1150.8C639.96 1132.6 653.208 1119.97 653.208 1119.97C653.208 1119.97 653.422 1119.47 653.781 1118.51L655.056 1091.82Z" fill="#D62241"/>
<path d="M719.276 1043.63C719.276 1043.63 715.641 1066.89 731.923 1096.14C731.923 1096.14 817.864 1054.12 833.27 942.524L813.953 935.919C813.953 935.919 777.511 1028.47 719.276 1043.63Z" fill="#F32F48"/>
<path d="M819.079 928.782C819.079 928.782 815.476 919.176 815.506 915.576C815.506 915.576 812.887 897.34 812.676 894.49C812.676 894.49 816.353 892.147 818.555 897.012C820.755 901.878 821.902 908.503 821.902 908.503C821.902 908.503 824.981 901.13 825.082 896.001C825.183 890.872 825.672 880.755 827.968 878.525C830.265 876.296 831.704 879.301 831.704 879.301C831.704 879.301 830.939 894.839 830.804 898.172C830.683 901.098 831.955 900.386 831.955 900.386C831.955 900.386 836.872 882.936 837.758 879.812C838.644 876.692 840.709 876.003 843.123 877.706C843.123 877.706 840.561 887.033 839.491 892.9C839.119 894.943 836.592 901.644 838.92 901.935C838.92 901.935 844.689 887.417 845.368 884.853C846.047 882.288 848.542 881.683 850.226 883.935L843.918 904.223C843.918 904.223 843.743 905.724 844.762 905.505C845.675 905.309 851.496 897.261 851.889 896.24C852.286 895.218 853.797 892.125 856.125 893.712C856.125 893.712 856.846 894.362 855.47 897.283C854.097 900.204 848.048 914.249 848.048 914.249C848.048 914.249 845.013 923.901 836.877 931.801C828.677 939.758 824.368 938.249 830.87 937.781L825.997 933.92L819.079 928.782Z" fill="#FFCDA9"/>
<path d="M837.045 932.062L817.677 925.927L813.953 935.918L833.272 942.524L837.045 932.062Z" fill="#BB232E"/>
<path d="M722.52 1042.94C722.52 1042.94 747.102 1045.22 771.494 1066.55C762.9 1075.35 749.49 1085.61 749.49 1085.61L742.439 1069.71" fill="#D62241"/>
<path d="M754.307 1106.09C754.307 1083 734.4 1041.37 716.065 1041.37H718.694H699.217H699.205H682.357C654.914 1041.37 640.955 1096.19 640.992 1105.35C641.022 1112.8 651.407 1119.66 651.858 1128.23C653.068 1151.28 651.112 1179.53 653.908 1210.53C653.908 1210.53 663.358 1229.69 699.212 1225.65C735.069 1229.69 738.35 1212.23 738.35 1212.23C741.167 1180.99 742.344 1150.65 743.545 1127.48C744.82 1118.51 754.307 1115.75 754.307 1106.09Z" fill="#FF575F"/>
<path opacity="0.51" d="M652.289 1142.57C653.106 1155.78 654.199 1170.11 655.466 1185.64L682.087 1189.26L745.381 1182.68C745.381 1182.68 749.395 1179.13 753.628 1173.83C754.517 1162.59 755.272 1152.06 755.883 1142.14C705.481 1158.66 664.434 1146.91 652.289 1142.57Z" fill="#3BD2FF"/>
<path d="M716.277 996.315C716.277 1002.96 721.66 1008.34 728.302 1008.34C734.942 1008.34 740.326 1002.96 740.326 996.315C740.326 989.676 734.944 984.291 728.302 984.291C721.662 984.291 716.277 989.676 716.277 996.315Z" fill="#FFB59C"/>
<path d="M720.25 996.316C720.25 1000.77 723.855 1004.37 728.305 1004.37C732.754 1004.37 736.36 1000.77 736.36 996.316C736.36 991.866 732.754 988.261 728.305 988.261C723.855 988.258 720.25 991.866 720.25 996.316Z" fill="#FF9F7C"/>
<path d="M657.266 996.315C657.266 1002.95 662.648 1008.34 669.29 1008.34C675.93 1008.34 681.315 1002.95 681.315 996.315C681.315 989.675 675.93 984.291 669.29 984.291C662.648 984.291 657.266 989.675 657.266 996.315Z" fill="#FFB59C"/>
<path d="M661.234 996.315C661.234 1000.76 664.842 1004.37 669.289 1004.37C673.739 1004.37 677.347 1000.76 677.347 996.315C677.347 991.866 673.739 988.26 669.289 988.26C664.842 988.258 661.234 991.866 661.234 996.315Z" fill="#FF9F7C"/>
<path d="M718.592 1041.37L699.217 1083.25L679.797 1041.37V1007.33H718.592V1041.37Z" fill="#FFB899"/>
<path d="M702.504 945.422L697.311 947.691L695.894 945.422L666.805 967.369V1007.27C672.755 1032.76 699.199 1043.27 699.199 1043.27C699.199 1043.27 725.645 1032.76 731.593 1007.27V967.369L702.504 945.422Z" fill="#FFCDA9"/>
<path d="M770.585 1216.77H627.84V1124.59C627.84 1122.4 629.612 1120.63 631.797 1120.63H766.631C768.816 1120.63 770.588 1122.4 770.588 1124.59V1216.77H770.585Z" fill="white"/>
<path d="M698.948 1214.66C698.948 1214.66 671.321 1186.23 627.84 1173.42V1186.71L698.948 1214.66Z" fill="url(#paint0_linear_530_2799)"/>
<path d="M699.48 1214.66C699.48 1214.66 727.108 1186.23 770.589 1173.42V1186.71L699.48 1214.66Z" fill="url(#paint1_linear_530_2799)"/>
<path d="M616.301 1246.14V1261.73C616.301 1261.73 702.02 1252.49 763.976 1238.63C763.976 1238.63 792.181 1229.93 827.411 1210.29C827.411 1210.29 823.367 1180.84 788.719 1181.42C754.07 1182 700.617 1215.53 700.617 1215.53L616.301 1246.14Z" fill="#002A88"/>
<path d="M699.411 1250.58L697.216 1250.18L633.954 1238.63L616.301 1246.14V1261.73" fill="#001F5F"/>
<path d="M763.977 1238.63L782.83 1221.89L827.411 1210.3C827.411 1210.3 804.531 1230.66 763.977 1238.63Z" fill="#001F5F"/>
<path d="M781.622 1246.14V1261.73C781.622 1261.73 695.903 1252.49 633.947 1238.63C633.947 1238.63 598.651 1229.93 563.422 1210.29C563.422 1210.29 567.465 1180.84 602.114 1181.42C636.765 1182 697.305 1215.53 697.305 1215.53L781.622 1246.14Z" fill="#003591"/>
<path d="M633.948 1238.63L615.095 1221.89L563.426 1210.3C563.426 1210.3 593.393 1230.66 633.948 1238.63Z" fill="#001F5F"/>
<path d="M616.291 1261.73C616.291 1261.73 589.859 1264.49 552.391 1266.57L603.776 1240.97L616.293 1246.14V1261.73H616.291Z" fill="#000F1F"/>
<path d="M781.617 1261.73C781.617 1261.73 809.515 1264.49 846.984 1266.57L794.134 1240.97L781.617 1246.14V1261.73Z" fill="#000F1F"/>
<path d="M715.866 957.345C715.866 957.345 699.03 998.604 666.806 995.146V984.293L655.498 973.952L654.516 970.716L661.101 949.681L682.517 945.424L699.456 948.404H726.798L737.919 958.196L732.953 981.091V987.473C732.953 987.473 724.669 985.024 725.52 974.803C725.516 974.801 715.583 966.286 715.866 957.345Z" fill="#131637"/>
<path d="M654.059 971.203C654.059 971.203 657.91 937.554 686.261 927.904C692.435 925.802 708.572 925.925 715.985 937.071C715.985 937.071 743.836 931.093 743.836 966.95C743.836 968.584 743.836 971.203 743.836 971.203L742.527 976.388L723.26 964.189L709.023 953.895L694.562 955.42L654.059 971.203Z" fill="#131637"/>
<defs>
<linearGradient id="paint0_linear_530_2799" x1="634.023" y1="1171.31" x2="702.851" y2="1240.14" gradientUnits="userSpaceOnUse">
<stop stop-color="#E2F3F8"/>
<stop offset="1" stop-color="#D7E4FF"/>
</linearGradient>
<linearGradient id="paint1_linear_530_2799" x1="764.405" y1="1171.31" x2="695.578" y2="1240.14" gradientUnits="userSpaceOnUse">
<stop stop-color="#E2F3F8"/>
<stop offset="1" stop-color="#D7E4FF"/>
</linearGradient>
</defs>
</svg>
