<svg width="1000" height="1224" viewBox="0 0 1000 1224" fill="none" xmlns="http://www.w3.org/2000/svg">
<g clip-path="url(#clip0_272_1454)">
<rect width="1000" height="1224" fill="white"/>
<path d="M909.999 249.704C946.45 249.704 975.999 212.934 975.999 167.575C975.999 122.216 946.45 85.4453 909.999 85.4453C873.549 85.4453 844 122.216 844 167.575C844 212.934 873.549 249.704 909.999 249.704Z" fill="#1C4670"/>
<path d="M907.284 85.4453H81.8633V249.702H907.284V85.4453Z" fill="#1C4670"/>
<path d="M84.9993 249.704C121.45 249.704 150.999 212.934 150.999 167.575C150.999 122.216 121.45 85.4453 84.9993 85.4453C48.5489 85.4453 19 122.216 19 167.575C19 212.934 48.5489 249.704 84.9993 249.704Z" fill="#1C4670"/>
<path d="M155.979 268.414C116.535 233.751 103.141 178.643 122.755 129.407C142.344 80.2338 190.028 49.3093 242.529 51.138L249.19 34.4168C219.097 32.1267 189.06 39.4971 163.46 55.4524C137.86 71.4076 118.038 95.1126 106.886 123.108C95.7345 151.104 93.8369 181.924 101.47 211.072C109.104 240.22 125.869 266.17 149.318 285.135L155.979 268.414Z" fill="#1C4670"/>
<path d="M234.176 299.458C286.694 301.302 334.338 270.437 353.952 221.189C373.539 172.017 360.151 116.841 320.726 82.1822L327.391 65.4609C350.843 84.4253 367.609 110.376 375.243 139.525C382.878 168.674 380.98 199.496 369.828 227.492C358.675 255.489 338.851 279.194 313.25 295.149C287.648 311.103 257.609 318.472 227.516 316.179L234.176 299.458Z" fill="#1C4670"/>
<path d="M326.218 263.014C374.746 214.569 374.746 136.025 326.218 87.5802C277.691 39.1357 199.012 39.1357 150.484 87.5802C101.957 136.025 101.957 214.569 150.484 263.014C199.012 311.458 277.691 311.458 326.218 263.014Z" fill="white"/>
<path d="M313.351 250.168C354.772 208.818 354.772 141.776 313.351 100.425C271.93 59.0751 204.773 59.0751 163.351 100.425C121.93 141.776 121.93 208.818 163.351 250.168C204.773 291.519 271.93 291.519 313.351 250.168Z" fill="#FFA229"/>
<path d="M223.756 209.656C217.658 209.656 212.941 207.947 209.605 204.529C206.297 201.111 204.642 196.189 204.642 189.764V157.197C204.642 150.416 206.215 145.221 209.359 141.611C212.531 137.975 217.33 136.156 223.756 136.156C230.209 136.156 235.008 137.975 238.152 141.611C241.297 145.221 242.869 150.416 242.869 157.197V189.764C242.869 196.189 241.215 201.111 237.906 204.529C234.597 207.947 229.881 209.656 223.756 209.656ZM223.756 196.367C224.877 196.367 225.752 195.861 226.381 194.85C227.01 193.838 227.324 192.703 227.324 191.445V155.803C227.324 154.107 227.133 152.631 226.75 151.373C226.394 150.088 225.396 149.445 223.756 149.445C222.115 149.445 221.103 150.088 220.721 151.373C220.365 152.631 220.187 154.107 220.187 155.803V191.445C220.187 192.703 220.502 193.838 221.131 194.85C221.787 195.861 222.662 196.367 223.756 196.367ZM256.156 209V153.383C255.172 154.559 253.819 155.516 252.096 156.254C250.373 156.965 248.746 157.32 247.215 157.32V145.795C248.664 145.576 250.223 145.111 251.891 144.4C253.559 143.662 255.104 142.664 256.526 141.406C257.975 140.121 259.082 138.576 259.848 136.771H271.455V209H256.156Z" fill="white"/>
<path d="M84.9993 535.408C121.45 535.408 150.999 498.637 150.999 453.278C150.999 407.919 121.45 371.148 84.9993 371.148C48.5489 371.148 19 407.919 19 453.278C19 498.637 48.5489 535.408 84.9993 535.408Z" fill="#FFA229"/>
<path d="M918.132 371.148H92.7109V535.405H918.132V371.148Z" fill="#FFA229"/>
<path d="M212.08 458.502H218.672C218.461 461.016 217.758 463.257 216.562 465.226C215.367 467.177 213.688 468.715 211.526 469.84C209.364 470.965 206.736 471.527 203.643 471.527C201.27 471.527 199.134 471.105 197.235 470.262C195.337 469.4 193.711 468.188 192.357 466.623C191.004 465.041 189.967 463.134 189.246 460.901C188.543 458.669 188.191 456.173 188.191 453.413V450.223C188.191 447.463 188.552 444.967 189.272 442.734C190.011 440.502 191.065 438.595 192.437 437.013C193.808 435.413 195.451 434.191 197.367 433.348C199.301 432.504 201.472 432.082 203.88 432.082C206.938 432.082 209.522 432.645 211.632 433.77C213.741 434.895 215.376 436.45 216.536 438.437C217.714 440.423 218.435 442.699 218.698 445.266H212.106C211.931 443.613 211.544 442.198 210.946 441.021C210.366 439.843 209.505 438.946 208.362 438.331C207.22 437.698 205.726 437.382 203.88 437.382C202.368 437.382 201.05 437.663 199.925 438.226C198.8 438.788 197.859 439.614 197.104 440.704C196.348 441.794 195.776 443.139 195.39 444.738C195.021 446.32 194.836 448.131 194.836 450.17V453.413C194.836 455.347 195.003 457.104 195.337 458.687C195.688 460.251 196.216 461.596 196.919 462.721C197.64 463.846 198.554 464.716 199.661 465.331C200.769 465.946 202.096 466.254 203.643 466.254C205.523 466.254 207.044 465.955 208.204 465.357C209.382 464.76 210.27 463.89 210.867 462.747C211.482 461.587 211.887 460.172 212.08 458.502ZM222.838 457.052V456.445C222.838 454.389 223.137 452.481 223.734 450.724C224.332 448.948 225.193 447.41 226.318 446.109C227.461 444.791 228.85 443.771 230.484 443.051C232.137 442.312 234 441.943 236.074 441.943C238.166 441.943 240.029 442.312 241.664 443.051C243.316 443.771 244.714 444.791 245.856 446.109C246.999 447.41 247.869 448.948 248.467 450.724C249.064 452.481 249.363 454.389 249.363 456.445V457.052C249.363 459.108 249.064 461.016 248.467 462.773C247.869 464.531 246.999 466.069 245.856 467.388C244.714 468.688 243.325 469.708 241.69 470.446C240.056 471.167 238.201 471.527 236.127 471.527C234.035 471.527 232.163 471.167 230.511 470.446C228.876 469.708 227.487 468.688 226.345 467.388C225.202 466.069 224.332 464.531 223.734 462.773C223.137 461.016 222.838 459.108 222.838 457.052ZM229.192 456.445V457.052C229.192 458.335 229.324 459.548 229.588 460.69C229.852 461.833 230.265 462.835 230.827 463.696C231.39 464.558 232.11 465.234 232.989 465.727C233.868 466.219 234.914 466.465 236.127 466.465C237.305 466.465 238.324 466.219 239.186 465.727C240.064 465.234 240.785 464.558 241.348 463.696C241.91 462.835 242.323 461.833 242.587 460.69C242.868 459.548 243.009 458.335 243.009 457.052V456.445C243.009 455.18 242.868 453.984 242.587 452.859C242.323 451.717 241.901 450.706 241.321 449.827C240.759 448.948 240.038 448.263 239.159 447.771C238.298 447.261 237.27 447.006 236.074 447.006C234.879 447.006 233.842 447.261 232.963 447.771C232.102 448.263 231.39 448.948 230.827 449.827C230.265 450.706 229.852 451.717 229.588 452.859C229.324 453.984 229.192 455.18 229.192 456.445ZM261.07 447.902V471H254.716V442.471H260.78L261.07 447.902ZM269.798 442.286L269.745 448.192C269.358 448.122 268.937 448.069 268.479 448.034C268.04 447.999 267.601 447.981 267.161 447.981C266.071 447.981 265.113 448.14 264.287 448.456C263.461 448.755 262.767 449.194 262.204 449.774C261.659 450.337 261.237 451.022 260.938 451.831C260.64 452.64 260.464 453.545 260.411 454.547L258.961 454.652C258.961 452.859 259.137 451.198 259.488 449.669C259.84 448.14 260.367 446.795 261.07 445.635C261.791 444.475 262.688 443.569 263.76 442.919C264.85 442.269 266.106 441.943 267.53 441.943C267.917 441.943 268.33 441.979 268.77 442.049C269.227 442.119 269.569 442.198 269.798 442.286ZM280.16 447.955V481.969H273.806V442.471H279.659L280.16 447.955ZM298.749 456.472V457.025C298.749 459.1 298.503 461.024 298.011 462.8C297.536 464.558 296.824 466.096 295.875 467.414C294.943 468.715 293.792 469.726 292.421 470.446C291.05 471.167 289.468 471.527 287.675 471.527C285.899 471.527 284.344 471.202 283.008 470.552C281.689 469.884 280.573 468.943 279.659 467.73C278.745 466.518 278.007 465.094 277.444 463.459C276.899 461.807 276.513 459.996 276.284 458.027V455.892C276.513 453.8 276.899 451.901 277.444 450.196C278.007 448.491 278.745 447.023 279.659 445.793C280.573 444.562 281.689 443.613 283.008 442.945C284.326 442.277 285.864 441.943 287.622 441.943C289.415 441.943 291.006 442.295 292.395 442.998C293.783 443.684 294.952 444.668 295.901 445.951C296.851 447.217 297.562 448.746 298.037 450.539C298.512 452.314 298.749 454.292 298.749 456.472ZM292.395 457.025V456.472C292.395 455.153 292.271 453.932 292.025 452.807C291.779 451.664 291.393 450.662 290.865 449.801C290.338 448.939 289.661 448.271 288.835 447.797C288.026 447.305 287.051 447.059 285.908 447.059C284.783 447.059 283.816 447.252 283.008 447.639C282.199 448.008 281.522 448.526 280.978 449.194C280.433 449.862 280.011 450.645 279.712 451.541C279.413 452.42 279.202 453.378 279.079 454.415V459.53C279.29 460.796 279.65 461.956 280.16 463.011C280.67 464.065 281.391 464.909 282.322 465.542C283.271 466.157 284.484 466.465 285.961 466.465C287.104 466.465 288.079 466.219 288.888 465.727C289.696 465.234 290.355 464.558 290.865 463.696C291.393 462.817 291.779 461.807 292.025 460.664C292.271 459.521 292.395 458.309 292.395 457.025ZM302.941 457.052V456.445C302.941 454.389 303.24 452.481 303.838 450.724C304.436 448.948 305.297 447.41 306.422 446.109C307.564 444.791 308.953 443.771 310.588 443.051C312.24 442.312 314.104 441.943 316.178 441.943C318.27 441.943 320.133 442.312 321.768 443.051C323.42 443.771 324.817 444.791 325.96 446.109C327.103 447.41 327.973 448.948 328.57 450.724C329.168 452.481 329.467 454.389 329.467 456.445V457.052C329.467 459.108 329.168 461.016 328.57 462.773C327.973 464.531 327.103 466.069 325.96 467.388C324.817 468.688 323.429 469.708 321.794 470.446C320.159 471.167 318.305 471.527 316.23 471.527C314.139 471.527 312.267 471.167 310.614 470.446C308.979 469.708 307.591 468.688 306.448 467.388C305.306 466.069 304.436 464.531 303.838 462.773C303.24 461.016 302.941 459.108 302.941 457.052ZM309.296 456.445V457.052C309.296 458.335 309.428 459.548 309.691 460.69C309.955 461.833 310.368 462.835 310.931 463.696C311.493 464.558 312.214 465.234 313.093 465.727C313.972 466.219 315.018 466.465 316.23 466.465C317.408 466.465 318.428 466.219 319.289 465.727C320.168 465.234 320.889 464.558 321.451 463.696C322.014 462.835 322.427 461.833 322.69 460.69C322.972 459.548 323.112 458.335 323.112 457.052V456.445C323.112 455.18 322.972 453.984 322.69 452.859C322.427 451.717 322.005 450.706 321.425 449.827C320.862 448.948 320.142 448.263 319.263 447.771C318.401 447.261 317.373 447.006 316.178 447.006C314.982 447.006 313.945 447.261 313.066 447.771C312.205 448.263 311.493 448.948 310.931 449.827C310.368 450.706 309.955 451.717 309.691 452.859C309.428 453.984 309.296 455.18 309.296 456.445ZM341.174 447.902V471H334.819V442.471H340.884L341.174 447.902ZM349.901 442.286L349.849 448.192C349.462 448.122 349.04 448.069 348.583 448.034C348.144 447.999 347.704 447.981 347.265 447.981C346.175 447.981 345.217 448.14 344.391 448.456C343.564 448.755 342.87 449.194 342.308 449.774C341.763 450.337 341.341 451.022 341.042 451.831C340.743 452.64 340.567 453.545 340.515 454.547L339.064 454.652C339.064 452.859 339.24 451.198 339.592 449.669C339.943 448.14 340.471 446.795 341.174 445.635C341.895 444.475 342.791 443.569 343.863 442.919C344.953 442.269 346.21 441.943 347.634 441.943C348.021 441.943 348.434 441.979 348.873 442.049C349.33 442.119 349.673 442.198 349.901 442.286ZM369.018 465.278V451.673C369.018 450.653 368.833 449.774 368.464 449.036C368.095 448.298 367.532 447.727 366.776 447.322C366.038 446.918 365.106 446.716 363.981 446.716C362.944 446.716 362.048 446.892 361.292 447.243C360.536 447.595 359.947 448.069 359.525 448.667C359.104 449.265 358.893 449.941 358.893 450.697H352.564C352.564 449.572 352.837 448.482 353.382 447.428C353.927 446.373 354.718 445.433 355.755 444.606C356.792 443.78 358.031 443.13 359.473 442.655C360.914 442.181 362.531 441.943 364.324 441.943C366.469 441.943 368.367 442.304 370.02 443.024C371.689 443.745 372.999 444.835 373.948 446.294C374.915 447.735 375.398 449.546 375.398 451.726V464.408C375.398 465.709 375.486 466.878 375.662 467.915C375.855 468.935 376.128 469.822 376.479 470.578V471H369.967C369.668 470.314 369.431 469.444 369.255 468.39C369.097 467.317 369.018 466.28 369.018 465.278ZM369.94 453.65L369.993 457.579H365.432C364.254 457.579 363.217 457.693 362.32 457.922C361.424 458.133 360.677 458.449 360.079 458.871C359.481 459.293 359.033 459.803 358.734 460.4C358.436 460.998 358.286 461.675 358.286 462.431C358.286 463.187 358.462 463.881 358.813 464.514C359.165 465.129 359.675 465.612 360.343 465.964C361.028 466.315 361.854 466.491 362.821 466.491C364.122 466.491 365.256 466.228 366.223 465.7C367.207 465.155 367.98 464.496 368.543 463.723C369.105 462.932 369.404 462.185 369.439 461.481L371.496 464.303C371.285 465.023 370.925 465.797 370.415 466.623C369.905 467.449 369.237 468.24 368.411 468.996C367.603 469.734 366.627 470.341 365.484 470.815C364.359 471.29 363.059 471.527 361.582 471.527C359.719 471.527 358.058 471.158 356.599 470.42C355.14 469.664 353.997 468.653 353.171 467.388C352.345 466.104 351.932 464.654 351.932 463.037C351.932 461.525 352.213 460.189 352.775 459.029C353.355 457.852 354.199 456.867 355.307 456.076C356.432 455.285 357.803 454.688 359.42 454.283C361.037 453.861 362.883 453.65 364.957 453.65H369.94ZM395.121 442.471V447.111H379.037V442.471H395.121ZM383.678 435.483H390.032V463.116C390.032 463.995 390.155 464.672 390.401 465.146C390.665 465.604 391.025 465.911 391.482 466.069C391.939 466.228 392.476 466.307 393.091 466.307C393.53 466.307 393.952 466.28 394.356 466.228C394.761 466.175 395.086 466.122 395.332 466.069L395.358 470.921C394.831 471.079 394.216 471.22 393.513 471.343C392.827 471.466 392.036 471.527 391.14 471.527C389.681 471.527 388.389 471.272 387.264 470.763C386.139 470.235 385.26 469.383 384.627 468.205C383.994 467.027 383.678 465.463 383.678 463.512V435.483ZM412.603 471.527C410.493 471.527 408.586 471.185 406.881 470.499C405.193 469.796 403.752 468.82 402.557 467.572C401.379 466.324 400.474 464.856 399.841 463.169C399.208 461.481 398.892 459.662 398.892 457.711V456.656C398.892 454.424 399.217 452.402 399.867 450.592C400.518 448.781 401.423 447.234 402.583 445.951C403.743 444.65 405.114 443.657 406.696 442.972C408.278 442.286 409.992 441.943 411.838 441.943C413.877 441.943 415.661 442.286 417.19 442.972C418.72 443.657 419.985 444.624 420.987 445.872C422.007 447.103 422.763 448.57 423.255 450.275C423.765 451.98 424.02 453.861 424.02 455.918V458.634H401.977V454.072H417.744V453.571C417.709 452.429 417.48 451.356 417.059 450.354C416.654 449.353 416.03 448.544 415.187 447.929C414.343 447.313 413.218 447.006 411.812 447.006C410.757 447.006 409.816 447.234 408.99 447.691C408.182 448.131 407.505 448.772 406.96 449.616C406.415 450.46 405.993 451.479 405.694 452.675C405.413 453.853 405.272 455.18 405.272 456.656V457.711C405.272 458.959 405.439 460.119 405.773 461.191C406.125 462.246 406.635 463.169 407.303 463.96C407.971 464.751 408.779 465.375 409.729 465.832C410.678 466.271 411.759 466.491 412.972 466.491C414.501 466.491 415.863 466.184 417.059 465.568C418.254 464.953 419.291 464.083 420.17 462.958L423.519 466.201C422.903 467.098 422.104 467.959 421.119 468.785C420.135 469.594 418.931 470.253 417.507 470.763C416.101 471.272 414.466 471.527 412.603 471.527ZM444.981 463.274C444.981 462.642 444.823 462.07 444.507 461.561C444.19 461.033 443.584 460.559 442.688 460.137C441.809 459.715 440.508 459.328 438.785 458.977C437.273 458.643 435.885 458.247 434.619 457.79C433.371 457.315 432.299 456.744 431.402 456.076C430.506 455.408 429.812 454.617 429.319 453.703C428.827 452.789 428.581 451.734 428.581 450.539C428.581 449.379 428.836 448.28 429.346 447.243C429.855 446.206 430.585 445.292 431.534 444.501C432.483 443.71 433.635 443.086 434.988 442.629C436.359 442.172 437.889 441.943 439.576 441.943C441.967 441.943 444.015 442.348 445.72 443.156C447.442 443.947 448.761 445.028 449.675 446.399C450.589 447.753 451.046 449.282 451.046 450.987H444.691C444.691 450.231 444.498 449.528 444.111 448.878C443.742 448.21 443.18 447.674 442.424 447.27C441.668 446.848 440.719 446.637 439.576 446.637C438.486 446.637 437.581 446.812 436.86 447.164C436.157 447.498 435.63 447.938 435.278 448.482C434.944 449.027 434.777 449.625 434.777 450.275C434.777 450.75 434.865 451.181 435.041 451.567C435.234 451.937 435.551 452.279 435.99 452.596C436.43 452.895 437.027 453.176 437.783 453.439C438.557 453.703 439.523 453.958 440.684 454.204C442.863 454.661 444.735 455.25 446.3 455.971C447.882 456.674 449.095 457.588 449.938 458.713C450.782 459.82 451.204 461.227 451.204 462.932C451.204 464.197 450.932 465.357 450.387 466.412C449.859 467.449 449.086 468.354 448.066 469.128C447.047 469.884 445.825 470.473 444.401 470.895C442.995 471.316 441.413 471.527 439.655 471.527C437.071 471.527 434.883 471.07 433.09 470.156C431.297 469.225 429.935 468.038 429.003 466.597C428.089 465.138 427.632 463.626 427.632 462.062H433.775C433.846 463.239 434.171 464.18 434.751 464.883C435.349 465.568 436.087 466.069 436.966 466.386C437.862 466.685 438.785 466.834 439.734 466.834C440.877 466.834 441.835 466.685 442.608 466.386C443.382 466.069 443.971 465.647 444.375 465.12C444.779 464.575 444.981 463.96 444.981 463.274Z" fill="white"/>
<path d="M914.999 535.408C951.45 535.408 980.999 498.637 980.999 453.278C980.999 407.919 951.45 371.148 914.999 371.148C878.549 371.148 849 407.919 849 453.278C849 498.637 878.549 535.408 914.999 535.408Z" fill="#FFA229"/>
<path d="M844.019 554.117C883.463 519.454 896.857 464.348 877.243 415.111C857.654 365.935 809.97 335.013 757.469 336.843L750.809 320.12C780.901 317.83 810.939 325.2 836.539 341.155C862.139 357.11 881.962 380.815 893.114 408.81C904.266 436.806 906.164 467.627 898.53 496.775C890.897 525.923 874.132 551.874 850.682 570.839L844.019 554.117Z" fill="#FFA229"/>
<path d="M765.823 585.161C713.306 587.005 665.662 556.13 646.047 506.894C626.461 457.72 639.848 402.546 679.274 367.887L672.609 351.164C649.157 370.128 632.39 396.079 624.756 425.228C617.122 454.377 619.019 485.199 630.172 513.195C641.325 541.192 661.148 564.897 686.75 580.852C712.351 596.806 742.391 604.175 772.484 601.883L765.823 585.161Z" fill="#FFA229"/>
<path d="M849.511 548.717C898.039 500.272 898.039 421.728 849.511 373.283C800.984 324.839 722.305 324.839 673.777 373.283C625.25 421.728 625.25 500.272 673.777 548.717C722.305 597.161 800.984 597.161 849.511 548.717Z" fill="white"/>
<path d="M836.294 386.482C877.52 427.637 877.52 494.363 836.294 535.518C795.068 576.673 728.228 576.673 687.002 535.518C645.776 494.363 645.776 427.637 687.002 386.482C728.228 345.327 795.068 345.327 836.294 386.482Z" fill="white" stroke="black"/>
<path d="M523.275 144.609V183H516.657V144.609H523.275ZM537.171 160.562V183H530.816V154.471H536.802L537.171 160.562ZM536.037 167.681L533.98 167.654C533.998 165.633 534.279 163.778 534.824 162.091C535.387 160.403 536.16 158.953 537.145 157.74C538.146 156.527 539.342 155.596 540.73 154.945C542.119 154.277 543.666 153.943 545.371 153.943C546.742 153.943 547.981 154.137 549.089 154.523C550.214 154.893 551.172 155.499 551.963 156.343C552.771 157.187 553.387 158.285 553.809 159.639C554.23 160.975 554.441 162.618 554.441 164.569V183H548.061V164.543C548.061 163.172 547.858 162.091 547.454 161.3C547.067 160.491 546.496 159.92 545.74 159.586C545.002 159.234 544.079 159.059 542.972 159.059C541.882 159.059 540.906 159.287 540.045 159.744C539.184 160.201 538.454 160.825 537.856 161.616C537.276 162.407 536.828 163.321 536.512 164.358C536.195 165.396 536.037 166.503 536.037 167.681ZM578.33 177.094V142.5H584.711V183H578.937L578.33 177.094ZM559.768 169.052V168.498C559.768 166.336 560.022 164.367 560.532 162.592C561.042 160.799 561.78 159.261 562.747 157.978C563.714 156.677 564.892 155.684 566.28 154.998C567.669 154.295 569.233 153.943 570.974 153.943C572.696 153.943 574.208 154.277 575.509 154.945C576.81 155.613 577.917 156.571 578.831 157.819C579.745 159.05 580.475 160.526 581.02 162.249C581.564 163.954 581.951 165.853 582.18 167.944V169.711C581.951 171.75 581.564 173.613 581.02 175.301C580.475 176.988 579.745 178.447 578.831 179.678C577.917 180.908 576.801 181.857 575.482 182.525C574.182 183.193 572.661 183.527 570.921 183.527C569.198 183.527 567.643 183.167 566.254 182.446C564.883 181.726 563.714 180.715 562.747 179.414C561.78 178.113 561.042 176.584 560.532 174.826C560.022 173.051 559.768 171.126 559.768 169.052ZM566.122 168.498V169.052C566.122 170.353 566.236 171.565 566.465 172.69C566.711 173.815 567.089 174.809 567.599 175.67C568.108 176.514 568.768 177.182 569.576 177.674C570.402 178.148 571.387 178.386 572.529 178.386C573.971 178.386 575.157 178.069 576.089 177.437C577.021 176.804 577.75 175.951 578.277 174.879C578.822 173.789 579.191 172.576 579.385 171.24V166.468C579.279 165.431 579.06 164.464 578.726 163.567C578.409 162.671 577.979 161.889 577.434 161.221C576.889 160.535 576.212 160.008 575.403 159.639C574.612 159.252 573.672 159.059 572.582 159.059C571.422 159.059 570.438 159.305 569.629 159.797C568.82 160.289 568.152 160.966 567.625 161.827C567.115 162.688 566.737 163.69 566.491 164.833C566.245 165.976 566.122 167.197 566.122 168.498ZM598.158 154.471V183H591.777V154.471H598.158ZM591.355 146.982C591.355 146.016 591.672 145.216 592.305 144.583C592.955 143.933 593.852 143.607 594.994 143.607C596.119 143.607 597.007 143.933 597.657 144.583C598.308 145.216 598.633 146.016 598.633 146.982C598.633 147.932 598.308 148.723 597.657 149.355C597.007 149.988 596.119 150.305 594.994 150.305C593.852 150.305 592.955 149.988 592.305 149.355C591.672 148.723 591.355 147.932 591.355 146.982ZM621.203 177.278V163.673C621.203 162.653 621.019 161.774 620.649 161.036C620.28 160.298 619.718 159.727 618.962 159.322C618.224 158.918 617.292 158.716 616.167 158.716C615.13 158.716 614.233 158.892 613.478 159.243C612.722 159.595 612.133 160.069 611.711 160.667C611.289 161.265 611.078 161.941 611.078 162.697H604.75C604.75 161.572 605.022 160.482 605.567 159.428C606.112 158.373 606.903 157.433 607.94 156.606C608.978 155.78 610.217 155.13 611.658 154.655C613.1 154.181 614.717 153.943 616.51 153.943C618.654 153.943 620.553 154.304 622.205 155.024C623.875 155.745 625.185 156.835 626.134 158.294C627.101 159.735 627.584 161.546 627.584 163.726V176.408C627.584 177.709 627.672 178.878 627.848 179.915C628.041 180.935 628.313 181.822 628.665 182.578V183H622.152C621.854 182.314 621.616 181.444 621.44 180.39C621.282 179.317 621.203 178.28 621.203 177.278ZM622.126 165.65L622.179 169.579H617.617C616.439 169.579 615.402 169.693 614.506 169.922C613.609 170.133 612.862 170.449 612.265 170.871C611.667 171.293 611.219 171.803 610.92 172.4C610.621 172.998 610.472 173.675 610.472 174.431C610.472 175.187 610.647 175.881 610.999 176.514C611.351 177.129 611.86 177.612 612.528 177.964C613.214 178.315 614.04 178.491 615.007 178.491C616.308 178.491 617.441 178.228 618.408 177.7C619.393 177.155 620.166 176.496 620.729 175.723C621.291 174.932 621.59 174.185 621.625 173.481L623.682 176.303C623.471 177.023 623.11 177.797 622.601 178.623C622.091 179.449 621.423 180.24 620.597 180.996C619.788 181.734 618.812 182.341 617.67 182.815C616.545 183.29 615.244 183.527 613.768 183.527C611.904 183.527 610.243 183.158 608.784 182.42C607.325 181.664 606.183 180.653 605.356 179.388C604.53 178.104 604.117 176.654 604.117 175.037C604.117 173.525 604.398 172.189 604.961 171.029C605.541 169.852 606.385 168.867 607.492 168.076C608.617 167.285 609.988 166.688 611.605 166.283C613.223 165.861 615.068 165.65 617.143 165.65H622.126ZM640.53 160.562V183H634.176V154.471H640.161L640.53 160.562ZM639.396 167.681L637.34 167.654C637.357 165.633 637.639 163.778 638.184 162.091C638.746 160.403 639.52 158.953 640.504 157.74C641.506 156.527 642.701 155.596 644.09 154.945C645.479 154.277 647.025 153.943 648.73 153.943C650.102 153.943 651.341 154.137 652.448 154.523C653.573 154.893 654.531 155.499 655.322 156.343C656.131 157.187 656.746 158.285 657.168 159.639C657.59 160.975 657.801 162.618 657.801 164.569V183H651.42V164.543C651.42 163.172 651.218 162.091 650.813 161.3C650.427 160.491 649.855 159.92 649.1 159.586C648.361 159.234 647.438 159.059 646.331 159.059C645.241 159.059 644.266 159.287 643.404 159.744C642.543 160.201 641.813 160.825 641.216 161.616C640.636 162.407 640.188 163.321 639.871 164.358C639.555 165.396 639.396 166.503 639.396 167.681ZM693.317 149.725L681.848 183H674.913L689.362 144.609H693.792L693.317 149.725ZM702.915 183L691.419 149.725L690.918 144.609H695.374L709.876 183H702.915ZM702.361 168.762V174.009H681.479V168.762H702.361ZM731.813 154.471H737.588V182.209C737.588 184.775 737.043 186.955 735.953 188.748C734.863 190.541 733.343 191.903 731.392 192.835C729.44 193.784 727.182 194.259 724.615 194.259C723.525 194.259 722.312 194.101 720.977 193.784C719.658 193.468 718.375 192.958 717.127 192.255C715.896 191.569 714.868 190.664 714.042 189.539L717.021 185.795C718.041 187.008 719.166 187.896 720.396 188.458C721.627 189.021 722.919 189.302 724.272 189.302C725.731 189.302 726.971 189.029 727.99 188.484C729.027 187.957 729.827 187.175 730.39 186.138C730.952 185.101 731.233 183.835 731.233 182.341V160.931L731.813 154.471ZM712.434 169.052V168.498C712.434 166.336 712.697 164.367 713.225 162.592C713.752 160.799 714.508 159.261 715.492 157.978C716.477 156.677 717.672 155.684 719.078 154.998C720.484 154.295 722.075 153.943 723.851 153.943C725.696 153.943 727.27 154.277 728.57 154.945C729.889 155.613 730.987 156.571 731.866 157.819C732.745 159.05 733.431 160.526 733.923 162.249C734.433 163.954 734.811 165.853 735.057 167.944V169.711C734.828 171.75 734.441 173.613 733.896 175.301C733.352 176.988 732.631 178.447 731.734 179.678C730.838 180.908 729.73 181.857 728.412 182.525C727.111 183.193 725.573 183.527 723.798 183.527C722.058 183.527 720.484 183.167 719.078 182.446C717.689 181.726 716.494 180.715 715.492 179.414C714.508 178.113 713.752 176.584 713.225 174.826C712.697 173.051 712.434 171.126 712.434 169.052ZM718.788 168.498V169.052C718.788 170.353 718.911 171.565 719.157 172.69C719.421 173.815 719.816 174.809 720.344 175.67C720.889 176.514 721.574 177.182 722.4 177.674C723.244 178.148 724.237 178.386 725.38 178.386C726.874 178.386 728.096 178.069 729.045 177.437C730.012 176.804 730.75 175.951 731.26 174.879C731.787 173.789 732.156 172.576 732.367 171.24V166.468C732.262 165.431 732.042 164.464 731.708 163.567C731.392 162.671 730.961 161.889 730.416 161.221C729.871 160.535 729.186 160.008 728.359 159.639C727.533 159.252 726.558 159.059 725.433 159.059C724.29 159.059 723.297 159.305 722.453 159.797C721.609 160.289 720.915 160.966 720.37 161.827C719.843 162.688 719.447 163.69 719.184 164.833C718.92 165.976 718.788 167.197 718.788 168.498ZM756.757 183.527C754.647 183.527 752.74 183.185 751.035 182.499C749.348 181.796 747.906 180.82 746.711 179.572C745.533 178.324 744.628 176.856 743.995 175.169C743.362 173.481 743.046 171.662 743.046 169.711V168.656C743.046 166.424 743.371 164.402 744.021 162.592C744.672 160.781 745.577 159.234 746.737 157.951C747.897 156.65 749.269 155.657 750.851 154.972C752.433 154.286 754.146 153.943 755.992 153.943C758.031 153.943 759.815 154.286 761.345 154.972C762.874 155.657 764.14 156.624 765.142 157.872C766.161 159.103 766.917 160.57 767.409 162.275C767.919 163.98 768.174 165.861 768.174 167.918V170.634H746.131V166.072H761.898V165.571C761.863 164.429 761.635 163.356 761.213 162.354C760.809 161.353 760.185 160.544 759.341 159.929C758.497 159.313 757.372 159.006 755.966 159.006C754.911 159.006 753.971 159.234 753.145 159.691C752.336 160.131 751.659 160.772 751.114 161.616C750.569 162.46 750.147 163.479 749.849 164.675C749.567 165.853 749.427 167.18 749.427 168.656V169.711C749.427 170.959 749.594 172.119 749.928 173.191C750.279 174.246 750.789 175.169 751.457 175.96C752.125 176.751 752.934 177.375 753.883 177.832C754.832 178.271 755.913 178.491 757.126 178.491C758.655 178.491 760.018 178.184 761.213 177.568C762.408 176.953 763.445 176.083 764.324 174.958L767.673 178.201C767.058 179.098 766.258 179.959 765.273 180.785C764.289 181.594 763.085 182.253 761.661 182.763C760.255 183.272 758.62 183.527 756.757 183.527ZM779.433 160.562V183H773.078V154.471H779.063L779.433 160.562ZM778.299 167.681L776.242 167.654C776.26 165.633 776.541 163.778 777.086 162.091C777.648 160.403 778.422 158.953 779.406 157.74C780.408 156.527 781.604 155.596 782.992 154.945C784.381 154.277 785.928 153.943 787.633 153.943C789.004 153.943 790.243 154.137 791.351 154.523C792.476 154.893 793.434 155.499 794.225 156.343C795.033 157.187 795.648 158.285 796.07 159.639C796.492 160.975 796.703 162.618 796.703 164.569V183H790.322V164.543C790.322 163.172 790.12 162.091 789.716 161.3C789.329 160.491 788.758 159.92 788.002 159.586C787.264 159.234 786.341 159.059 785.233 159.059C784.144 159.059 783.168 159.287 782.307 159.744C781.445 160.201 780.716 160.825 780.118 161.616C779.538 162.407 779.09 163.321 778.773 164.358C778.457 165.396 778.299 166.503 778.299 167.681ZM816.268 154.471V159.111H800.184V154.471H816.268ZM804.824 147.483H811.179V175.116C811.179 175.995 811.302 176.672 811.548 177.146C811.812 177.604 812.172 177.911 812.629 178.069C813.086 178.228 813.622 178.307 814.237 178.307C814.677 178.307 815.099 178.28 815.503 178.228C815.907 178.175 816.232 178.122 816.479 178.069L816.505 182.921C815.978 183.079 815.362 183.22 814.659 183.343C813.974 183.466 813.183 183.527 812.286 183.527C810.827 183.527 809.535 183.272 808.41 182.763C807.285 182.235 806.406 181.383 805.773 180.205C805.141 179.027 804.824 177.463 804.824 175.512V147.483ZM837.177 175.274C837.177 174.642 837.019 174.07 836.702 173.561C836.386 173.033 835.779 172.559 834.883 172.137C834.004 171.715 832.703 171.328 830.98 170.977C829.469 170.643 828.08 170.247 826.814 169.79C825.566 169.315 824.494 168.744 823.598 168.076C822.701 167.408 822.007 166.617 821.515 165.703C821.022 164.789 820.776 163.734 820.776 162.539C820.776 161.379 821.031 160.28 821.541 159.243C822.051 158.206 822.78 157.292 823.729 156.501C824.679 155.71 825.83 155.086 827.184 154.629C828.555 154.172 830.084 153.943 831.771 153.943C834.162 153.943 836.21 154.348 837.915 155.156C839.638 155.947 840.956 157.028 841.87 158.399C842.784 159.753 843.241 161.282 843.241 162.987H836.887C836.887 162.231 836.693 161.528 836.307 160.878C835.938 160.21 835.375 159.674 834.619 159.27C833.863 158.848 832.914 158.637 831.771 158.637C830.682 158.637 829.776 158.812 829.056 159.164C828.353 159.498 827.825 159.938 827.474 160.482C827.14 161.027 826.973 161.625 826.973 162.275C826.973 162.75 827.061 163.181 827.236 163.567C827.43 163.937 827.746 164.279 828.186 164.596C828.625 164.895 829.223 165.176 829.979 165.439C830.752 165.703 831.719 165.958 832.879 166.204C835.059 166.661 836.931 167.25 838.495 167.971C840.077 168.674 841.29 169.588 842.134 170.713C842.978 171.82 843.399 173.227 843.399 174.932C843.399 176.197 843.127 177.357 842.582 178.412C842.055 179.449 841.281 180.354 840.262 181.128C839.242 181.884 838.021 182.473 836.597 182.895C835.19 183.316 833.608 183.527 831.851 183.527C829.267 183.527 827.078 183.07 825.285 182.156C823.492 181.225 822.13 180.038 821.198 178.597C820.284 177.138 819.827 175.626 819.827 174.062H825.971C826.041 175.239 826.366 176.18 826.946 176.883C827.544 177.568 828.282 178.069 829.161 178.386C830.058 178.685 830.98 178.834 831.93 178.834C833.072 178.834 834.03 178.685 834.804 178.386C835.577 178.069 836.166 177.647 836.57 177.12C836.975 176.575 837.177 175.96 837.177 175.274Z" fill="white"/>
<path d="M910.999 832.111C947.45 832.111 976.999 795.34 976.999 749.981C976.999 704.622 947.45 667.852 910.999 667.852C874.549 667.852 845 704.622 845 749.981C845 795.34 874.549 832.111 910.999 832.111Z" fill="#1C4670"/>
<path d="M85.0006 974.03C48.5502 974.03 19.0014 1010.8 19.0014 1056.16C19.0014 1101.52 48.5503 1138.29 85.0007 1138.29C121.451 1138.29 151 1101.52 151 1056.16C151 1010.8 121.451 974.03 85.0006 974.03Z" fill="#FFA229"/>
<path d="M907.284 667.852H81.8633V832.109H907.284V667.852Z" fill="#1C4670"/>
<path d="M92.7161 1138.28L918.137 1138.28L918.137 974.024L92.7161 974.024L92.7161 1138.28Z" fill="#FFA229"/>
<path d="M127.141 1010.88V1045H121.258V1010.88H127.141ZM141.062 1025.8V1030.47H125.641V1025.8H141.062ZM143.008 1010.88V1015.56H125.641V1010.88H143.008ZM145.539 1032.6V1032.06C145.539 1030.23 145.805 1028.54 146.336 1026.98C146.867 1025.4 147.633 1024.03 148.633 1022.88C149.648 1021.7 150.883 1020.8 152.336 1020.16C153.805 1019.5 155.461 1019.17 157.305 1019.17C159.164 1019.17 160.82 1019.5 162.273 1020.16C163.742 1020.8 164.984 1021.7 166 1022.88C167.016 1024.03 167.789 1025.4 168.32 1026.98C168.852 1028.54 169.117 1030.23 169.117 1032.06V1032.6C169.117 1034.43 168.852 1036.12 168.32 1037.69C167.789 1039.25 167.016 1040.62 166 1041.79C164.984 1042.95 163.75 1043.85 162.297 1044.51C160.844 1045.15 159.195 1045.47 157.352 1045.47C155.492 1045.47 153.828 1045.15 152.359 1044.51C150.906 1043.85 149.672 1042.95 148.656 1041.79C147.641 1040.62 146.867 1039.25 146.336 1037.69C145.805 1036.12 145.539 1034.43 145.539 1032.6ZM151.188 1032.06V1032.6C151.188 1033.74 151.305 1034.82 151.539 1035.84C151.773 1036.85 152.141 1037.74 152.641 1038.51C153.141 1039.27 153.781 1039.88 154.562 1040.31C155.344 1040.75 156.273 1040.97 157.352 1040.97C158.398 1040.97 159.305 1040.75 160.07 1040.31C160.852 1039.88 161.492 1039.27 161.992 1038.51C162.492 1037.74 162.859 1036.85 163.094 1035.84C163.344 1034.82 163.469 1033.74 163.469 1032.6V1032.06C163.469 1030.94 163.344 1029.88 163.094 1028.88C162.859 1027.86 162.484 1026.96 161.969 1026.18C161.469 1025.4 160.828 1024.79 160.047 1024.35C159.281 1023.9 158.367 1023.67 157.305 1023.67C156.242 1023.67 155.32 1023.9 154.539 1024.35C153.773 1024.79 153.141 1025.4 152.641 1026.18C152.141 1026.96 151.773 1027.86 151.539 1028.88C151.305 1029.88 151.188 1030.94 151.188 1032.06ZM179.523 1024.47V1045H173.875V1019.64H179.266L179.523 1024.47ZM187.281 1019.48L187.234 1024.73C186.891 1024.66 186.516 1024.62 186.109 1024.59C185.719 1024.55 185.328 1024.54 184.938 1024.54C183.969 1024.54 183.117 1024.68 182.383 1024.96C181.648 1025.23 181.031 1025.62 180.531 1026.13C180.047 1026.63 179.672 1027.24 179.406 1027.96C179.141 1028.68 178.984 1029.48 178.938 1030.38L177.648 1030.47C177.648 1028.88 177.805 1027.4 178.117 1026.04C178.43 1024.68 178.898 1023.48 179.523 1022.45C180.164 1021.42 180.961 1020.62 181.914 1020.04C182.883 1019.46 184 1019.17 185.266 1019.17C185.609 1019.17 185.977 1019.2 186.367 1019.27C186.773 1019.33 187.078 1019.4 187.281 1019.48ZM201.531 1045.47C199.656 1045.47 197.961 1045.16 196.445 1044.55C194.945 1043.93 193.664 1043.06 192.602 1041.95C191.555 1040.84 190.75 1039.54 190.188 1038.04C189.625 1036.54 189.344 1034.92 189.344 1033.19V1032.25C189.344 1030.27 189.633 1028.47 190.211 1026.86C190.789 1025.25 191.594 1023.88 192.625 1022.73C193.656 1021.58 194.875 1020.7 196.281 1020.09C197.688 1019.48 199.211 1019.17 200.852 1019.17C202.664 1019.17 204.25 1019.48 205.609 1020.09C206.969 1020.7 208.094 1021.55 208.984 1022.66C209.891 1023.76 210.562 1025.06 211 1026.58C211.453 1028.09 211.68 1029.77 211.68 1031.59V1034.01H192.086V1029.95H206.102V1029.51C206.07 1028.49 205.867 1027.54 205.492 1026.65C205.133 1025.76 204.578 1025.04 203.828 1024.49C203.078 1023.95 202.078 1023.67 200.828 1023.67C199.891 1023.67 199.055 1023.88 198.32 1024.28C197.602 1024.67 197 1025.24 196.516 1025.99C196.031 1026.74 195.656 1027.65 195.391 1028.71C195.141 1029.76 195.016 1030.94 195.016 1032.25V1033.19C195.016 1034.3 195.164 1035.33 195.461 1036.28C195.773 1037.22 196.227 1038.04 196.82 1038.74C197.414 1039.45 198.133 1040 198.977 1040.41C199.82 1040.8 200.781 1040.99 201.859 1040.99C203.219 1040.99 204.43 1040.72 205.492 1040.17C206.555 1039.62 207.477 1038.85 208.258 1037.85L211.234 1040.73C210.688 1041.53 209.977 1042.3 209.102 1043.03C208.227 1043.75 207.156 1044.34 205.891 1044.79C204.641 1045.24 203.188 1045.47 201.531 1045.47ZM222.133 1019.64V1045H216.461V1019.64H222.133ZM216.086 1012.98C216.086 1012.12 216.367 1011.41 216.93 1010.85C217.508 1010.27 218.305 1009.98 219.32 1009.98C220.32 1009.98 221.109 1010.27 221.688 1010.85C222.266 1011.41 222.555 1012.12 222.555 1012.98C222.555 1013.83 222.266 1014.53 221.688 1015.09C221.109 1015.66 220.32 1015.94 219.32 1015.94C218.305 1015.94 217.508 1015.66 216.93 1015.09C216.367 1014.53 216.086 1013.83 216.086 1012.98ZM244.562 1019.64H249.695V1044.3C249.695 1046.58 249.211 1048.52 248.242 1050.11C247.273 1051.7 245.922 1052.91 244.188 1053.74C242.453 1054.59 240.445 1055.01 238.164 1055.01C237.195 1055.01 236.117 1054.87 234.93 1054.59C233.758 1054.3 232.617 1053.85 231.508 1053.23C230.414 1052.62 229.5 1051.81 228.766 1050.81L231.414 1047.48C232.32 1048.56 233.32 1049.35 234.414 1049.85C235.508 1050.35 236.656 1050.6 237.859 1050.6C239.156 1050.6 240.258 1050.36 241.164 1049.88C242.086 1049.41 242.797 1048.71 243.297 1047.79C243.797 1046.87 244.047 1045.74 244.047 1044.41V1025.38L244.562 1019.64ZM227.336 1032.6V1032.11C227.336 1030.19 227.57 1028.44 228.039 1026.86C228.508 1025.27 229.18 1023.9 230.055 1022.76C230.93 1021.6 231.992 1020.72 233.242 1020.11C234.492 1019.48 235.906 1019.17 237.484 1019.17C239.125 1019.17 240.523 1019.47 241.68 1020.06C242.852 1020.66 243.828 1021.51 244.609 1022.62C245.391 1023.71 246 1025.02 246.438 1026.55C246.891 1028.07 247.227 1029.76 247.445 1031.62V1033.19C247.242 1035 246.898 1036.66 246.414 1038.16C245.93 1039.66 245.289 1040.95 244.492 1042.05C243.695 1043.14 242.711 1043.98 241.539 1044.58C240.383 1045.17 239.016 1045.47 237.438 1045.47C235.891 1045.47 234.492 1045.15 233.242 1044.51C232.008 1043.87 230.945 1042.97 230.055 1041.81C229.18 1040.66 228.508 1039.3 228.039 1037.73C227.57 1036.16 227.336 1034.45 227.336 1032.6ZM232.984 1032.11V1032.6C232.984 1033.76 233.094 1034.84 233.312 1035.84C233.547 1036.84 233.898 1037.72 234.367 1038.48C234.852 1039.23 235.461 1039.83 236.195 1040.27C236.945 1040.69 237.828 1040.9 238.844 1040.9C240.172 1040.9 241.258 1040.62 242.102 1040.05C242.961 1039.49 243.617 1038.73 244.07 1037.78C244.539 1036.81 244.867 1035.73 245.055 1034.55V1030.3C244.961 1029.38 244.766 1028.52 244.469 1027.73C244.188 1026.93 243.805 1026.23 243.32 1025.64C242.836 1025.03 242.227 1024.56 241.492 1024.23C240.758 1023.89 239.891 1023.72 238.891 1023.72C237.875 1023.72 236.992 1023.94 236.242 1024.38C235.492 1024.81 234.875 1025.41 234.391 1026.18C233.922 1026.95 233.57 1027.84 233.336 1028.85C233.102 1029.87 232.984 1030.95 232.984 1032.11ZM261.156 1025.05V1045H255.508V1019.64H260.828L261.156 1025.05ZM260.148 1031.38L258.32 1031.36C258.336 1029.56 258.586 1027.91 259.07 1026.41C259.57 1024.91 260.258 1023.62 261.133 1022.55C262.023 1021.47 263.086 1020.64 264.32 1020.06C265.555 1019.47 266.93 1019.17 268.445 1019.17C269.664 1019.17 270.766 1019.34 271.75 1019.69C272.75 1020.02 273.602 1020.55 274.305 1021.3C275.023 1022.05 275.57 1023.03 275.945 1024.23C276.32 1025.42 276.508 1026.88 276.508 1028.62V1045H270.836V1028.59C270.836 1027.38 270.656 1026.41 270.297 1025.71C269.953 1024.99 269.445 1024.48 268.773 1024.19C268.117 1023.88 267.297 1023.72 266.312 1023.72C265.344 1023.72 264.477 1023.92 263.711 1024.33C262.945 1024.73 262.297 1025.29 261.766 1025.99C261.25 1026.7 260.852 1027.51 260.57 1028.43C260.289 1029.35 260.148 1030.34 260.148 1031.38ZM317.125 1040.34V1045H299.008V1040.34H317.125ZM300.672 1010.88V1045H294.789V1010.88H300.672ZM314.758 1025.12V1029.72H299.008V1025.12H314.758ZM317.008 1010.88V1015.56H299.008V1010.88H317.008ZM326.969 1025.05V1045H321.32V1019.64H326.641L326.969 1025.05ZM325.961 1031.38L324.133 1031.36C324.148 1029.56 324.398 1027.91 324.883 1026.41C325.383 1024.91 326.07 1023.62 326.945 1022.55C327.836 1021.47 328.898 1020.64 330.133 1020.06C331.367 1019.47 332.742 1019.17 334.258 1019.17C335.477 1019.17 336.578 1019.34 337.562 1019.69C338.562 1020.02 339.414 1020.55 340.117 1021.3C340.836 1022.05 341.383 1023.03 341.758 1024.23C342.133 1025.42 342.32 1026.88 342.32 1028.62V1045H336.648V1028.59C336.648 1027.38 336.469 1026.41 336.109 1025.71C335.766 1024.99 335.258 1024.48 334.586 1024.19C333.93 1023.88 333.109 1023.72 332.125 1023.72C331.156 1023.72 330.289 1023.92 329.523 1024.33C328.758 1024.73 328.109 1025.29 327.578 1025.99C327.062 1026.7 326.664 1027.51 326.383 1028.43C326.102 1029.35 325.961 1030.34 325.961 1031.38ZM359.711 1019.64V1023.77H345.414V1019.64H359.711ZM349.539 1013.43H355.188V1037.99C355.188 1038.77 355.297 1039.38 355.516 1039.8C355.75 1040.2 356.07 1040.48 356.477 1040.62C356.883 1040.76 357.359 1040.83 357.906 1040.83C358.297 1040.83 358.672 1040.8 359.031 1040.76C359.391 1040.71 359.68 1040.66 359.898 1040.62L359.922 1044.93C359.453 1045.07 358.906 1045.2 358.281 1045.3C357.672 1045.41 356.969 1045.47 356.172 1045.47C354.875 1045.47 353.727 1045.24 352.727 1044.79C351.727 1044.32 350.945 1043.56 350.383 1042.52C349.82 1041.47 349.539 1040.08 349.539 1038.34V1013.43ZM375.25 1045.47C373.375 1045.47 371.68 1045.16 370.164 1044.55C368.664 1043.93 367.383 1043.06 366.32 1041.95C365.273 1040.84 364.469 1039.54 363.906 1038.04C363.344 1036.54 363.062 1034.92 363.062 1033.19V1032.25C363.062 1030.27 363.352 1028.47 363.93 1026.86C364.508 1025.25 365.312 1023.88 366.344 1022.73C367.375 1021.58 368.594 1020.7 370 1020.09C371.406 1019.48 372.93 1019.17 374.57 1019.17C376.383 1019.17 377.969 1019.48 379.328 1020.09C380.688 1020.7 381.812 1021.55 382.703 1022.66C383.609 1023.76 384.281 1025.06 384.719 1026.58C385.172 1028.09 385.398 1029.77 385.398 1031.59V1034.01H365.805V1029.95H379.82V1029.51C379.789 1028.49 379.586 1027.54 379.211 1026.65C378.852 1025.76 378.297 1025.04 377.547 1024.49C376.797 1023.95 375.797 1023.67 374.547 1023.67C373.609 1023.67 372.773 1023.88 372.039 1024.28C371.32 1024.67 370.719 1025.24 370.234 1025.99C369.75 1026.74 369.375 1027.65 369.109 1028.71C368.859 1029.76 368.734 1030.94 368.734 1032.25V1033.19C368.734 1034.3 368.883 1035.33 369.18 1036.28C369.492 1037.22 369.945 1038.04 370.539 1038.74C371.133 1039.45 371.852 1040 372.695 1040.41C373.539 1040.8 374.5 1040.99 375.578 1040.99C376.938 1040.99 378.148 1040.72 379.211 1040.17C380.273 1039.62 381.195 1038.85 381.977 1037.85L384.953 1040.73C384.406 1041.53 383.695 1042.3 382.82 1043.03C381.945 1043.75 380.875 1044.34 379.609 1044.79C378.359 1045.24 376.906 1045.47 375.25 1045.47ZM395.477 1024.47V1045H389.828V1019.64H395.219L395.477 1024.47ZM403.234 1019.48L403.188 1024.73C402.844 1024.66 402.469 1024.62 402.062 1024.59C401.672 1024.55 401.281 1024.54 400.891 1024.54C399.922 1024.54 399.07 1024.68 398.336 1024.96C397.602 1025.23 396.984 1025.62 396.484 1026.13C396 1026.63 395.625 1027.24 395.359 1027.96C395.094 1028.68 394.938 1029.48 394.891 1030.38L393.602 1030.47C393.602 1028.88 393.758 1027.4 394.07 1026.04C394.383 1024.68 394.852 1023.48 395.477 1022.45C396.117 1021.42 396.914 1020.62 397.867 1020.04C398.836 1019.46 399.953 1019.17 401.219 1019.17C401.562 1019.17 401.93 1019.2 402.32 1019.27C402.727 1019.33 403.031 1019.4 403.234 1019.48ZM412.445 1024.52V1054.75H406.797V1019.64H412L412.445 1024.52ZM428.969 1032.09V1032.58C428.969 1034.42 428.75 1036.13 428.312 1037.71C427.891 1039.27 427.258 1040.64 426.414 1041.81C425.586 1042.97 424.562 1043.87 423.344 1044.51C422.125 1045.15 420.719 1045.47 419.125 1045.47C417.547 1045.47 416.164 1045.18 414.977 1044.6C413.805 1044.01 412.812 1043.17 412 1042.09C411.188 1041.02 410.531 1039.75 410.031 1038.3C409.547 1036.83 409.203 1035.22 409 1033.47V1031.57C409.203 1029.71 409.547 1028.02 410.031 1026.51C410.531 1024.99 411.188 1023.69 412 1022.59C412.812 1021.5 413.805 1020.66 414.977 1020.06C416.148 1019.47 417.516 1019.17 419.078 1019.17C420.672 1019.17 422.086 1019.48 423.32 1020.11C424.555 1020.72 425.594 1021.59 426.438 1022.73C427.281 1023.86 427.914 1025.22 428.336 1026.81C428.758 1028.39 428.969 1030.15 428.969 1032.09ZM423.32 1032.58V1032.09C423.32 1030.91 423.211 1029.83 422.992 1028.83C422.773 1027.81 422.43 1026.92 421.961 1026.16C421.492 1025.39 420.891 1024.8 420.156 1024.38C419.438 1023.94 418.57 1023.72 417.555 1023.72C416.555 1023.72 415.695 1023.89 414.977 1024.23C414.258 1024.56 413.656 1025.02 413.172 1025.62C412.688 1026.21 412.312 1026.91 412.047 1027.7C411.781 1028.48 411.594 1029.34 411.484 1030.26V1034.8C411.672 1035.93 411.992 1036.96 412.445 1037.9C412.898 1038.84 413.539 1039.59 414.367 1040.15C415.211 1040.7 416.289 1040.97 417.602 1040.97C418.617 1040.97 419.484 1040.75 420.203 1040.31C420.922 1039.88 421.508 1039.27 421.961 1038.51C422.43 1037.73 422.773 1036.83 422.992 1035.81C423.211 1034.8 423.32 1033.72 423.32 1032.58ZM439.445 1024.47V1045H433.797V1019.64H439.188L439.445 1024.47ZM447.203 1019.48L447.156 1024.73C446.812 1024.66 446.438 1024.62 446.031 1024.59C445.641 1024.55 445.25 1024.54 444.859 1024.54C443.891 1024.54 443.039 1024.68 442.305 1024.96C441.57 1025.23 440.953 1025.62 440.453 1026.13C439.969 1026.63 439.594 1027.24 439.328 1027.96C439.062 1028.68 438.906 1029.48 438.859 1030.38L437.57 1030.47C437.57 1028.88 437.727 1027.4 438.039 1026.04C438.352 1024.68 438.82 1023.48 439.445 1022.45C440.086 1021.42 440.883 1020.62 441.836 1020.04C442.805 1019.46 443.922 1019.17 445.188 1019.17C445.531 1019.17 445.898 1019.2 446.289 1019.27C446.695 1019.33 447 1019.4 447.203 1019.48ZM456.789 1019.64V1045H451.117V1019.64H456.789ZM450.742 1012.98C450.742 1012.12 451.023 1011.41 451.586 1010.85C452.164 1010.27 452.961 1009.98 453.977 1009.98C454.977 1009.98 455.766 1010.27 456.344 1010.85C456.922 1011.41 457.211 1012.12 457.211 1012.98C457.211 1013.83 456.922 1014.53 456.344 1015.09C455.766 1015.66 454.977 1015.94 453.977 1015.94C452.961 1015.94 452.164 1015.66 451.586 1015.09C451.023 1014.53 450.742 1013.83 450.742 1012.98ZM477.203 1038.13C477.203 1037.57 477.062 1037.06 476.781 1036.61C476.5 1036.14 475.961 1035.72 475.164 1035.34C474.383 1034.97 473.227 1034.62 471.695 1034.31C470.352 1034.02 469.117 1033.66 467.992 1033.26C466.883 1032.84 465.93 1032.33 465.133 1031.73C464.336 1031.14 463.719 1030.44 463.281 1029.62C462.844 1028.81 462.625 1027.88 462.625 1026.81C462.625 1025.78 462.852 1024.8 463.305 1023.88C463.758 1022.96 464.406 1022.15 465.25 1021.45C466.094 1020.74 467.117 1020.19 468.32 1019.78C469.539 1019.38 470.898 1019.17 472.398 1019.17C474.523 1019.17 476.344 1019.53 477.859 1020.25C479.391 1020.95 480.562 1021.91 481.375 1023.13C482.188 1024.34 482.594 1025.7 482.594 1027.21H476.945C476.945 1026.54 476.773 1025.91 476.43 1025.34C476.102 1024.74 475.602 1024.27 474.93 1023.91C474.258 1023.53 473.414 1023.34 472.398 1023.34C471.43 1023.34 470.625 1023.5 469.984 1023.81C469.359 1024.11 468.891 1024.5 468.578 1024.98C468.281 1025.47 468.133 1026 468.133 1026.58C468.133 1027 468.211 1027.38 468.367 1027.73C468.539 1028.05 468.82 1028.36 469.211 1028.64C469.602 1028.91 470.133 1029.16 470.805 1029.39C471.492 1029.62 472.352 1029.85 473.383 1030.07C475.32 1030.48 476.984 1031 478.375 1031.64C479.781 1032.27 480.859 1033.08 481.609 1034.08C482.359 1035.06 482.734 1036.31 482.734 1037.83C482.734 1038.95 482.492 1039.98 482.008 1040.92C481.539 1041.84 480.852 1042.65 479.945 1043.34C479.039 1044.01 477.953 1044.53 476.688 1044.91C475.438 1045.28 474.031 1045.47 472.469 1045.47C470.172 1045.47 468.227 1045.06 466.633 1044.25C465.039 1043.42 463.828 1042.37 463 1041.09C462.188 1039.79 461.781 1038.45 461.781 1037.05H467.242C467.305 1038.1 467.594 1038.94 468.109 1039.56C468.641 1040.17 469.297 1040.62 470.078 1040.9C470.875 1041.16 471.695 1041.3 472.539 1041.3C473.555 1041.3 474.406 1041.16 475.094 1040.9C475.781 1040.62 476.305 1040.24 476.664 1039.77C477.023 1039.29 477.203 1038.74 477.203 1038.13ZM498.859 1045.47C496.984 1045.47 495.289 1045.16 493.773 1044.55C492.273 1043.93 490.992 1043.06 489.93 1041.95C488.883 1040.84 488.078 1039.54 487.516 1038.04C486.953 1036.54 486.672 1034.92 486.672 1033.19V1032.25C486.672 1030.27 486.961 1028.47 487.539 1026.86C488.117 1025.25 488.922 1023.88 489.953 1022.73C490.984 1021.58 492.203 1020.7 493.609 1020.09C495.016 1019.48 496.539 1019.17 498.18 1019.17C499.992 1019.17 501.578 1019.48 502.938 1020.09C504.297 1020.7 505.422 1021.55 506.312 1022.66C507.219 1023.76 507.891 1025.06 508.328 1026.58C508.781 1028.09 509.008 1029.77 509.008 1031.59V1034.01H489.414V1029.95H503.43V1029.51C503.398 1028.49 503.195 1027.54 502.82 1026.65C502.461 1025.76 501.906 1025.04 501.156 1024.49C500.406 1023.95 499.406 1023.67 498.156 1023.67C497.219 1023.67 496.383 1023.88 495.648 1024.28C494.93 1024.67 494.328 1025.24 493.844 1025.99C493.359 1026.74 492.984 1027.65 492.719 1028.71C492.469 1029.76 492.344 1030.94 492.344 1032.25V1033.19C492.344 1034.3 492.492 1035.33 492.789 1036.28C493.102 1037.22 493.555 1038.04 494.148 1038.74C494.742 1039.45 495.461 1040 496.305 1040.41C497.148 1040.8 498.109 1040.99 499.188 1040.99C500.547 1040.99 501.758 1040.72 502.82 1040.17C503.883 1039.62 504.805 1038.85 505.586 1037.85L508.562 1040.73C508.016 1041.53 507.305 1042.3 506.43 1043.03C505.555 1043.75 504.484 1044.34 503.219 1044.79C501.969 1045.24 500.516 1045.47 498.859 1045.47ZM527.641 1038.13C527.641 1037.57 527.5 1037.06 527.219 1036.61C526.938 1036.14 526.398 1035.72 525.602 1035.34C524.82 1034.97 523.664 1034.62 522.133 1034.31C520.789 1034.02 519.555 1033.66 518.43 1033.26C517.32 1032.84 516.367 1032.33 515.57 1031.73C514.773 1031.14 514.156 1030.44 513.719 1029.62C513.281 1028.81 513.062 1027.88 513.062 1026.81C513.062 1025.78 513.289 1024.8 513.742 1023.88C514.195 1022.96 514.844 1022.15 515.688 1021.45C516.531 1020.74 517.555 1020.19 518.758 1019.78C519.977 1019.38 521.336 1019.17 522.836 1019.17C524.961 1019.17 526.781 1019.53 528.297 1020.25C529.828 1020.95 531 1021.91 531.812 1023.13C532.625 1024.34 533.031 1025.7 533.031 1027.21H527.383C527.383 1026.54 527.211 1025.91 526.867 1025.34C526.539 1024.74 526.039 1024.27 525.367 1023.91C524.695 1023.53 523.852 1023.34 522.836 1023.34C521.867 1023.34 521.062 1023.5 520.422 1023.81C519.797 1024.11 519.328 1024.5 519.016 1024.98C518.719 1025.47 518.57 1026 518.57 1026.58C518.57 1027 518.648 1027.38 518.805 1027.73C518.977 1028.05 519.258 1028.36 519.648 1028.64C520.039 1028.91 520.57 1029.16 521.242 1029.39C521.93 1029.62 522.789 1029.85 523.82 1030.07C525.758 1030.48 527.422 1031 528.812 1031.64C530.219 1032.27 531.297 1033.08 532.047 1034.08C532.797 1035.06 533.172 1036.31 533.172 1037.83C533.172 1038.95 532.93 1039.98 532.445 1040.92C531.977 1041.84 531.289 1042.65 530.383 1043.34C529.477 1044.01 528.391 1044.53 527.125 1044.91C525.875 1045.28 524.469 1045.47 522.906 1045.47C520.609 1045.47 518.664 1045.06 517.07 1044.25C515.477 1043.42 514.266 1042.37 513.438 1041.09C512.625 1039.79 512.219 1038.45 512.219 1037.05H517.68C517.742 1038.1 518.031 1038.94 518.547 1039.56C519.078 1040.17 519.734 1040.62 520.516 1040.9C521.312 1041.16 522.133 1041.3 522.977 1041.3C523.992 1041.3 524.844 1041.16 525.531 1040.9C526.219 1040.62 526.742 1040.24 527.102 1039.77C527.461 1039.29 527.641 1038.74 527.641 1038.13ZM64.3516 1059V1095H58.7266V1059H64.3516ZM63.3672 1081.38L61.5391 1081.36C61.5547 1079.61 61.7969 1077.99 62.2656 1076.51C62.75 1075.02 63.4219 1073.73 64.2812 1072.64C65.1562 1071.53 66.2031 1070.68 67.4219 1070.09C68.6406 1069.48 69.9922 1069.17 71.4766 1069.17C72.7266 1069.17 73.8516 1069.34 74.8516 1069.69C75.8672 1070.03 76.7422 1070.59 77.4766 1071.35C78.2109 1072.1 78.7656 1073.09 79.1406 1074.3C79.5312 1075.51 79.7266 1076.98 79.7266 1078.71V1095H74.0547V1078.66C74.0547 1077.45 73.875 1076.48 73.5156 1075.76C73.1719 1075.04 72.6641 1074.52 71.9922 1074.21C71.3203 1073.88 70.5 1073.72 69.5312 1073.72C68.5156 1073.72 67.6172 1073.92 66.8359 1074.33C66.0703 1074.73 65.4297 1075.29 64.9141 1075.99C64.3984 1076.7 64.0078 1077.51 63.7422 1078.43C63.4922 1079.35 63.3672 1080.34 63.3672 1081.38ZM84.3672 1082.6V1082.06C84.3672 1080.23 84.6328 1078.54 85.1641 1076.98C85.6953 1075.4 86.4609 1074.03 87.4609 1072.88C88.4766 1071.7 89.7109 1070.8 91.1641 1070.16C92.6328 1069.5 94.2891 1069.17 96.1328 1069.17C97.9922 1069.17 99.6484 1069.5 101.102 1070.16C102.57 1070.8 103.812 1071.7 104.828 1072.88C105.844 1074.03 106.617 1075.4 107.148 1076.98C107.68 1078.54 107.945 1080.23 107.945 1082.06V1082.6C107.945 1084.43 107.68 1086.12 107.148 1087.69C106.617 1089.25 105.844 1090.62 104.828 1091.79C103.812 1092.95 102.578 1093.85 101.125 1094.51C99.6719 1095.15 98.0234 1095.47 96.1797 1095.47C94.3203 1095.47 92.6562 1095.15 91.1875 1094.51C89.7344 1093.85 88.5 1092.95 87.4844 1091.79C86.4688 1090.62 85.6953 1089.25 85.1641 1087.69C84.6328 1086.12 84.3672 1084.43 84.3672 1082.6ZM90.0156 1082.06V1082.6C90.0156 1083.74 90.1328 1084.82 90.3672 1085.84C90.6016 1086.85 90.9688 1087.74 91.4688 1088.51C91.9688 1089.27 92.6094 1089.88 93.3906 1090.31C94.1719 1090.75 95.1016 1090.97 96.1797 1090.97C97.2266 1090.97 98.1328 1090.75 98.8984 1090.31C99.6797 1089.88 100.32 1089.27 100.82 1088.51C101.32 1087.74 101.688 1086.85 101.922 1085.84C102.172 1084.82 102.297 1083.74 102.297 1082.6V1082.06C102.297 1080.94 102.172 1079.88 101.922 1078.88C101.688 1077.86 101.312 1076.96 100.797 1076.18C100.297 1075.4 99.6562 1074.79 98.875 1074.35C98.1094 1073.9 97.1953 1073.67 96.1328 1073.67C95.0703 1073.67 94.1484 1073.9 93.3672 1074.35C92.6016 1074.79 91.9688 1075.4 91.4688 1076.18C90.9688 1076.96 90.6016 1077.86 90.3672 1078.88C90.1328 1079.88 90.0156 1080.94 90.0156 1082.06ZM118.727 1059V1095H113.055V1059H118.727ZM140.383 1089.75V1059H146.055V1095H140.922L140.383 1089.75ZM123.883 1082.6V1082.11C123.883 1080.19 124.109 1078.44 124.562 1076.86C125.016 1075.27 125.672 1073.9 126.531 1072.76C127.391 1071.6 128.438 1070.72 129.672 1070.11C130.906 1069.48 132.297 1069.17 133.844 1069.17C135.375 1069.17 136.719 1069.47 137.875 1070.06C139.031 1070.66 140.016 1071.51 140.828 1072.62C141.641 1073.71 142.289 1075.02 142.773 1076.55C143.258 1078.07 143.602 1079.76 143.805 1081.62V1083.19C143.602 1085 143.258 1086.66 142.773 1088.16C142.289 1089.66 141.641 1090.95 140.828 1092.05C140.016 1093.14 139.023 1093.98 137.852 1094.58C136.695 1095.17 135.344 1095.47 133.797 1095.47C132.266 1095.47 130.883 1095.15 129.648 1094.51C128.43 1093.87 127.391 1092.97 126.531 1091.81C125.672 1090.66 125.016 1089.3 124.562 1087.73C124.109 1086.16 123.883 1084.45 123.883 1082.6ZM129.531 1082.11V1082.6C129.531 1083.76 129.633 1084.84 129.836 1085.84C130.055 1086.84 130.391 1087.72 130.844 1088.48C131.297 1089.23 131.883 1089.83 132.602 1090.27C133.336 1090.69 134.211 1090.9 135.227 1090.9C136.508 1090.9 137.562 1090.62 138.391 1090.05C139.219 1089.49 139.867 1088.73 140.336 1087.78C140.82 1086.81 141.148 1085.73 141.32 1084.55V1080.3C141.227 1079.38 141.031 1078.52 140.734 1077.73C140.453 1076.93 140.07 1076.23 139.586 1075.64C139.102 1075.03 138.5 1074.56 137.781 1074.23C137.078 1073.89 136.242 1073.72 135.273 1073.72C134.242 1073.72 133.367 1073.94 132.648 1074.38C131.93 1074.81 131.336 1075.41 130.867 1076.18C130.414 1076.95 130.078 1077.84 129.859 1078.85C129.641 1079.87 129.531 1080.95 129.531 1082.11ZM158.008 1069.64V1095H152.336V1069.64H158.008ZM151.961 1062.98C151.961 1062.12 152.242 1061.41 152.805 1060.85C153.383 1060.27 154.18 1059.98 155.195 1059.98C156.195 1059.98 156.984 1060.27 157.562 1060.85C158.141 1061.41 158.43 1062.12 158.43 1062.98C158.43 1063.83 158.141 1064.53 157.562 1065.09C156.984 1065.66 156.195 1065.94 155.195 1065.94C154.18 1065.94 153.383 1065.66 152.805 1065.09C152.242 1064.53 151.961 1063.83 151.961 1062.98ZM169.797 1075.05V1095H164.148V1069.64H169.469L169.797 1075.05ZM168.789 1081.38L166.961 1081.36C166.977 1079.56 167.227 1077.91 167.711 1076.41C168.211 1074.91 168.898 1073.62 169.773 1072.55C170.664 1071.47 171.727 1070.64 172.961 1070.06C174.195 1069.47 175.57 1069.17 177.086 1069.17C178.305 1069.17 179.406 1069.34 180.391 1069.69C181.391 1070.02 182.242 1070.55 182.945 1071.3C183.664 1072.05 184.211 1073.03 184.586 1074.23C184.961 1075.42 185.148 1076.88 185.148 1078.62V1095H179.477V1078.59C179.477 1077.38 179.297 1076.41 178.938 1075.71C178.594 1074.99 178.086 1074.48 177.414 1074.19C176.758 1073.88 175.938 1073.72 174.953 1073.72C173.984 1073.72 173.117 1073.92 172.352 1074.33C171.586 1074.73 170.938 1075.29 170.406 1075.99C169.891 1076.7 169.492 1077.51 169.211 1078.43C168.93 1079.35 168.789 1080.34 168.789 1081.38ZM207.156 1069.64H212.289V1094.3C212.289 1096.58 211.805 1098.52 210.836 1100.11C209.867 1101.7 208.516 1102.91 206.781 1103.74C205.047 1104.59 203.039 1105.01 200.758 1105.01C199.789 1105.01 198.711 1104.87 197.523 1104.59C196.352 1104.3 195.211 1103.85 194.102 1103.23C193.008 1102.62 192.094 1101.81 191.359 1100.81L194.008 1097.48C194.914 1098.56 195.914 1099.35 197.008 1099.85C198.102 1100.35 199.25 1100.6 200.453 1100.6C201.75 1100.6 202.852 1100.36 203.758 1099.88C204.68 1099.41 205.391 1098.71 205.891 1097.79C206.391 1096.87 206.641 1095.74 206.641 1094.41V1075.38L207.156 1069.64ZM189.93 1082.6V1082.11C189.93 1080.19 190.164 1078.44 190.633 1076.86C191.102 1075.27 191.773 1073.9 192.648 1072.76C193.523 1071.6 194.586 1070.72 195.836 1070.11C197.086 1069.48 198.5 1069.17 200.078 1069.17C201.719 1069.17 203.117 1069.47 204.273 1070.06C205.445 1070.66 206.422 1071.51 207.203 1072.62C207.984 1073.71 208.594 1075.02 209.031 1076.55C209.484 1078.07 209.82 1079.76 210.039 1081.62V1083.19C209.836 1085 209.492 1086.66 209.008 1088.16C208.523 1089.66 207.883 1090.95 207.086 1092.05C206.289 1093.14 205.305 1093.98 204.133 1094.58C202.977 1095.17 201.609 1095.47 200.031 1095.47C198.484 1095.47 197.086 1095.15 195.836 1094.51C194.602 1093.87 193.539 1092.97 192.648 1091.81C191.773 1090.66 191.102 1089.3 190.633 1087.73C190.164 1086.16 189.93 1084.45 189.93 1082.6ZM195.578 1082.11V1082.6C195.578 1083.76 195.688 1084.84 195.906 1085.84C196.141 1086.84 196.492 1087.72 196.961 1088.48C197.445 1089.23 198.055 1089.83 198.789 1090.27C199.539 1090.69 200.422 1090.9 201.438 1090.9C202.766 1090.9 203.852 1090.62 204.695 1090.05C205.555 1089.49 206.211 1088.73 206.664 1087.78C207.133 1086.81 207.461 1085.73 207.648 1084.55V1080.3C207.555 1079.38 207.359 1078.52 207.062 1077.73C206.781 1076.93 206.398 1076.23 205.914 1075.64C205.43 1075.03 204.82 1074.56 204.086 1074.23C203.352 1073.89 202.484 1073.72 201.484 1073.72C200.469 1073.72 199.586 1073.94 198.836 1074.38C198.086 1074.81 197.469 1075.41 196.984 1076.18C196.516 1076.95 196.164 1077.84 195.93 1078.85C195.695 1079.87 195.578 1080.95 195.578 1082.11ZM236.945 1060.88V1095H231.062V1060.88H236.945ZM249.297 1075.05V1095H243.648V1069.64H248.969L249.297 1075.05ZM248.289 1081.38L246.461 1081.36C246.477 1079.56 246.727 1077.91 247.211 1076.41C247.711 1074.91 248.398 1073.62 249.273 1072.55C250.164 1071.47 251.227 1070.64 252.461 1070.06C253.695 1069.47 255.07 1069.17 256.586 1069.17C257.805 1069.17 258.906 1069.34 259.891 1069.69C260.891 1070.02 261.742 1070.55 262.445 1071.3C263.164 1072.05 263.711 1073.03 264.086 1074.23C264.461 1075.42 264.648 1076.88 264.648 1078.62V1095H258.977V1078.59C258.977 1077.38 258.797 1076.41 258.438 1075.71C258.094 1074.99 257.586 1074.48 256.914 1074.19C256.258 1073.88 255.438 1073.72 254.453 1073.72C253.484 1073.72 252.617 1073.92 251.852 1074.33C251.086 1074.73 250.438 1075.29 249.906 1075.99C249.391 1076.7 248.992 1077.51 248.711 1078.43C248.43 1079.35 248.289 1080.34 248.289 1081.38ZM285.883 1089.75V1059H291.555V1095H286.422L285.883 1089.75ZM269.383 1082.6V1082.11C269.383 1080.19 269.609 1078.44 270.062 1076.86C270.516 1075.27 271.172 1073.9 272.031 1072.76C272.891 1071.6 273.938 1070.72 275.172 1070.11C276.406 1069.48 277.797 1069.17 279.344 1069.17C280.875 1069.17 282.219 1069.47 283.375 1070.06C284.531 1070.66 285.516 1071.51 286.328 1072.62C287.141 1073.71 287.789 1075.02 288.273 1076.55C288.758 1078.07 289.102 1079.76 289.305 1081.62V1083.19C289.102 1085 288.758 1086.66 288.273 1088.16C287.789 1089.66 287.141 1090.95 286.328 1092.05C285.516 1093.14 284.523 1093.98 283.352 1094.58C282.195 1095.17 280.844 1095.47 279.297 1095.47C277.766 1095.47 276.383 1095.15 275.148 1094.51C273.93 1093.87 272.891 1092.97 272.031 1091.81C271.172 1090.66 270.516 1089.3 270.062 1087.73C269.609 1086.16 269.383 1084.45 269.383 1082.6ZM275.031 1082.11V1082.6C275.031 1083.76 275.133 1084.84 275.336 1085.84C275.555 1086.84 275.891 1087.72 276.344 1088.48C276.797 1089.23 277.383 1089.83 278.102 1090.27C278.836 1090.69 279.711 1090.9 280.727 1090.9C282.008 1090.9 283.062 1090.62 283.891 1090.05C284.719 1089.49 285.367 1088.73 285.836 1087.78C286.32 1086.81 286.648 1085.73 286.82 1084.55V1080.3C286.727 1079.38 286.531 1078.52 286.234 1077.73C285.953 1076.93 285.57 1076.23 285.086 1075.64C284.602 1075.03 284 1074.56 283.281 1074.23C282.578 1073.89 281.742 1073.72 280.773 1073.72C279.742 1073.72 278.867 1073.94 278.148 1074.38C277.43 1074.81 276.836 1075.41 276.367 1076.18C275.914 1076.95 275.578 1077.84 275.359 1078.85C275.141 1079.87 275.031 1080.95 275.031 1082.11ZM303.508 1069.64V1095H297.836V1069.64H303.508ZM297.461 1062.98C297.461 1062.12 297.742 1061.41 298.305 1060.85C298.883 1060.27 299.68 1059.98 300.695 1059.98C301.695 1059.98 302.484 1060.27 303.062 1060.85C303.641 1061.41 303.93 1062.12 303.93 1062.98C303.93 1063.83 303.641 1064.53 303.062 1065.09C302.484 1065.66 301.695 1065.94 300.695 1065.94C299.68 1065.94 298.883 1065.66 298.305 1065.09C297.742 1064.53 297.461 1063.83 297.461 1062.98ZM323.992 1089.91V1077.82C323.992 1076.91 323.828 1076.13 323.5 1075.48C323.172 1074.82 322.672 1074.31 322 1073.95C321.344 1073.59 320.516 1073.41 319.516 1073.41C318.594 1073.41 317.797 1073.57 317.125 1073.88C316.453 1074.2 315.93 1074.62 315.555 1075.15C315.18 1075.68 314.992 1076.28 314.992 1076.95H309.367C309.367 1075.95 309.609 1074.98 310.094 1074.05C310.578 1073.11 311.281 1072.27 312.203 1071.54C313.125 1070.8 314.227 1070.23 315.508 1069.8C316.789 1069.38 318.227 1069.17 319.82 1069.17C321.727 1069.17 323.414 1069.49 324.883 1070.13C326.367 1070.77 327.531 1071.74 328.375 1073.04C329.234 1074.32 329.664 1075.93 329.664 1077.87V1089.14C329.664 1090.3 329.742 1091.34 329.898 1092.26C330.07 1093.16 330.312 1093.95 330.625 1094.62V1095H324.836C324.57 1094.39 324.359 1093.62 324.203 1092.68C324.062 1091.73 323.992 1090.8 323.992 1089.91ZM324.812 1079.58L324.859 1083.07H320.805C319.758 1083.07 318.836 1083.17 318.039 1083.38C317.242 1083.56 316.578 1083.84 316.047 1084.22C315.516 1084.59 315.117 1085.05 314.852 1085.58C314.586 1086.11 314.453 1086.71 314.453 1087.38C314.453 1088.05 314.609 1088.67 314.922 1089.23C315.234 1089.78 315.688 1090.21 316.281 1090.52C316.891 1090.84 317.625 1090.99 318.484 1090.99C319.641 1090.99 320.648 1090.76 321.508 1090.29C322.383 1089.8 323.07 1089.22 323.57 1088.53C324.07 1087.83 324.336 1087.16 324.367 1086.54L326.195 1089.05C326.008 1089.69 325.688 1090.38 325.234 1091.11C324.781 1091.84 324.188 1092.55 323.453 1093.22C322.734 1093.88 321.867 1094.41 320.852 1094.84C319.852 1095.26 318.695 1095.47 317.383 1095.47C315.727 1095.47 314.25 1095.14 312.953 1094.48C311.656 1093.81 310.641 1092.91 309.906 1091.79C309.172 1090.65 308.805 1089.36 308.805 1087.92C308.805 1086.58 309.055 1085.39 309.555 1084.36C310.07 1083.31 310.82 1082.44 311.805 1081.73C312.805 1081.03 314.023 1080.5 315.461 1080.14C316.898 1079.77 318.539 1079.58 320.383 1079.58H324.812ZM341.172 1075.05V1095H335.523V1069.64H340.844L341.172 1075.05ZM340.164 1081.38L338.336 1081.36C338.352 1079.56 338.602 1077.91 339.086 1076.41C339.586 1074.91 340.273 1073.62 341.148 1072.55C342.039 1071.47 343.102 1070.64 344.336 1070.06C345.57 1069.47 346.945 1069.17 348.461 1069.17C349.68 1069.17 350.781 1069.34 351.766 1069.69C352.766 1070.02 353.617 1070.55 354.32 1071.3C355.039 1072.05 355.586 1073.03 355.961 1074.23C356.336 1075.42 356.523 1076.88 356.523 1078.62V1095H350.852V1078.59C350.852 1077.38 350.672 1076.41 350.312 1075.71C349.969 1074.99 349.461 1074.48 348.789 1074.19C348.133 1073.88 347.312 1073.72 346.328 1073.72C345.359 1073.72 344.492 1073.92 343.727 1074.33C342.961 1074.73 342.312 1075.29 341.781 1075.99C341.266 1076.7 340.867 1077.51 340.586 1078.43C340.305 1079.35 340.164 1080.34 340.164 1081.38ZM392.758 1086.21C392.758 1085.51 392.648 1084.88 392.43 1084.34C392.227 1083.79 391.859 1083.29 391.328 1082.84C390.797 1082.38 390.047 1081.95 389.078 1081.52C388.125 1081.09 386.906 1080.64 385.422 1080.19C383.797 1079.69 382.297 1079.13 380.922 1078.52C379.562 1077.9 378.375 1077.18 377.359 1076.37C376.344 1075.54 375.555 1074.59 374.992 1073.53C374.43 1072.45 374.148 1071.21 374.148 1069.8C374.148 1068.41 374.438 1067.15 375.016 1066.01C375.609 1064.87 376.445 1063.88 377.523 1063.05C378.617 1062.21 379.906 1061.56 381.391 1061.11C382.875 1060.64 384.516 1060.41 386.312 1060.41C388.844 1060.41 391.023 1060.88 392.852 1061.81C394.695 1062.75 396.109 1064.01 397.094 1065.59C398.094 1067.16 398.594 1068.91 398.594 1070.81H392.758C392.758 1069.69 392.516 1068.7 392.031 1067.84C391.562 1066.96 390.844 1066.27 389.875 1065.77C388.922 1065.27 387.711 1065.02 386.242 1065.02C384.852 1065.02 383.695 1065.23 382.773 1065.66C381.852 1066.08 381.164 1066.65 380.711 1067.37C380.258 1068.09 380.031 1068.9 380.031 1069.8C380.031 1070.45 380.18 1071.03 380.477 1071.56C380.773 1072.08 381.227 1072.56 381.836 1073.02C382.445 1073.45 383.211 1073.87 384.133 1074.26C385.055 1074.65 386.141 1075.02 387.391 1075.38C389.281 1075.95 390.93 1076.57 392.336 1077.26C393.742 1077.93 394.914 1078.7 395.852 1079.55C396.789 1080.41 397.492 1081.39 397.961 1082.48C398.43 1083.56 398.664 1084.79 398.664 1086.16C398.664 1087.6 398.375 1088.9 397.797 1090.05C397.219 1091.2 396.391 1092.17 395.312 1092.98C394.25 1093.78 392.969 1094.4 391.469 1094.84C389.984 1095.26 388.328 1095.47 386.5 1095.47C384.859 1095.47 383.242 1095.25 381.648 1094.81C380.07 1094.38 378.633 1093.71 377.336 1092.82C376.039 1091.91 375.008 1090.79 374.242 1089.45C373.477 1088.09 373.094 1086.5 373.094 1084.69H378.977C378.977 1085.8 379.164 1086.74 379.539 1087.52C379.93 1088.3 380.469 1088.95 381.156 1089.45C381.844 1089.93 382.641 1090.29 383.547 1090.52C384.469 1090.76 385.453 1090.88 386.5 1090.88C387.875 1090.88 389.023 1090.68 389.945 1090.29C390.883 1089.9 391.586 1089.35 392.055 1088.65C392.523 1087.95 392.758 1087.13 392.758 1086.21ZM418.562 1089.02V1069.64H424.234V1095H418.891L418.562 1089.02ZM419.359 1083.75L421.258 1083.7C421.258 1085.41 421.07 1086.98 420.695 1088.41C420.32 1089.84 419.742 1091.08 418.961 1092.14C418.18 1093.19 417.18 1094.01 415.961 1094.6C414.742 1095.18 413.281 1095.47 411.578 1095.47C410.344 1095.47 409.211 1095.29 408.18 1094.93C407.148 1094.57 406.258 1094.02 405.508 1093.27C404.773 1092.52 404.203 1091.54 403.797 1090.34C403.391 1089.13 403.188 1087.7 403.188 1086.02V1069.64H408.836V1086.07C408.836 1086.99 408.945 1087.77 409.164 1088.39C409.383 1089 409.68 1089.49 410.055 1089.87C410.43 1090.24 410.867 1090.51 411.367 1090.66C411.867 1090.82 412.398 1090.9 412.961 1090.9C414.57 1090.9 415.836 1090.59 416.758 1089.96C417.695 1089.32 418.359 1088.46 418.75 1087.38C419.156 1086.3 419.359 1085.09 419.359 1083.75ZM430.047 1059H435.695V1089.59L435.156 1095H430.047V1059ZM452.242 1082.09V1082.58C452.242 1084.45 452.031 1086.18 451.609 1087.76C451.203 1089.32 450.578 1090.68 449.734 1091.84C448.906 1092.99 447.875 1093.89 446.641 1094.53C445.422 1095.16 444.008 1095.47 442.398 1095.47C440.82 1095.47 439.445 1095.17 438.273 1094.58C437.102 1093.98 436.117 1093.14 435.32 1092.05C434.539 1090.95 433.906 1089.65 433.422 1088.13C432.938 1086.62 432.594 1084.95 432.391 1083.12V1081.55C432.594 1079.7 432.938 1078.03 433.422 1076.53C433.906 1075.02 434.539 1073.71 435.32 1072.62C436.117 1071.51 437.094 1070.66 438.25 1070.06C439.422 1069.47 440.789 1069.17 442.352 1069.17C443.977 1069.17 445.406 1069.48 446.641 1070.11C447.891 1070.73 448.93 1071.62 449.758 1072.78C450.586 1073.92 451.203 1075.28 451.609 1076.86C452.031 1078.44 452.242 1080.18 452.242 1082.09ZM446.594 1082.58V1082.09C446.594 1080.95 446.5 1079.88 446.312 1078.88C446.125 1077.86 445.812 1076.97 445.375 1076.2C444.953 1075.44 444.375 1074.84 443.641 1074.4C442.922 1073.95 442.023 1073.72 440.945 1073.72C439.945 1073.72 439.086 1073.89 438.367 1074.23C437.648 1074.58 437.047 1075.05 436.562 1075.64C436.078 1076.23 435.695 1076.92 435.414 1077.7C435.148 1078.48 434.969 1079.33 434.875 1080.23V1084.48C435.016 1085.65 435.312 1086.73 435.766 1087.71C436.234 1088.68 436.891 1089.46 437.734 1090.05C438.578 1090.63 439.664 1090.92 440.992 1090.92C442.039 1090.92 442.922 1090.71 443.641 1090.29C444.359 1089.87 444.93 1089.28 445.352 1088.53C445.789 1087.77 446.102 1086.88 446.289 1085.86C446.492 1084.84 446.594 1083.75 446.594 1082.58ZM471.25 1088.13C471.25 1087.57 471.109 1087.06 470.828 1086.61C470.547 1086.14 470.008 1085.72 469.211 1085.34C468.43 1084.97 467.273 1084.62 465.742 1084.31C464.398 1084.02 463.164 1083.66 462.039 1083.26C460.93 1082.84 459.977 1082.33 459.18 1081.73C458.383 1081.14 457.766 1080.44 457.328 1079.62C456.891 1078.81 456.672 1077.88 456.672 1076.81C456.672 1075.78 456.898 1074.8 457.352 1073.88C457.805 1072.96 458.453 1072.15 459.297 1071.45C460.141 1070.74 461.164 1070.19 462.367 1069.78C463.586 1069.38 464.945 1069.17 466.445 1069.17C468.57 1069.17 470.391 1069.53 471.906 1070.25C473.438 1070.95 474.609 1071.91 475.422 1073.13C476.234 1074.34 476.641 1075.7 476.641 1077.21H470.992C470.992 1076.54 470.82 1075.91 470.477 1075.34C470.148 1074.74 469.648 1074.27 468.977 1073.91C468.305 1073.53 467.461 1073.34 466.445 1073.34C465.477 1073.34 464.672 1073.5 464.031 1073.81C463.406 1074.11 462.938 1074.5 462.625 1074.98C462.328 1075.47 462.18 1076 462.18 1076.58C462.18 1077 462.258 1077.38 462.414 1077.73C462.586 1078.05 462.867 1078.36 463.258 1078.64C463.648 1078.91 464.18 1079.16 464.852 1079.39C465.539 1079.62 466.398 1079.85 467.43 1080.07C469.367 1080.48 471.031 1081 472.422 1081.64C473.828 1082.27 474.906 1083.08 475.656 1084.08C476.406 1085.06 476.781 1086.31 476.781 1087.83C476.781 1088.95 476.539 1089.98 476.055 1090.92C475.586 1091.84 474.898 1092.65 473.992 1093.34C473.086 1094.01 472 1094.53 470.734 1094.91C469.484 1095.28 468.078 1095.47 466.516 1095.47C464.219 1095.47 462.273 1095.06 460.68 1094.25C459.086 1093.42 457.875 1092.37 457.047 1091.09C456.234 1089.79 455.828 1088.45 455.828 1087.05H461.289C461.352 1088.1 461.641 1088.94 462.156 1089.56C462.688 1090.17 463.344 1090.62 464.125 1090.9C464.922 1091.16 465.742 1091.3 466.586 1091.3C467.602 1091.3 468.453 1091.16 469.141 1090.9C469.828 1090.62 470.352 1090.24 470.711 1089.77C471.07 1089.29 471.25 1088.74 471.25 1088.13ZM487.773 1069.64V1095H482.102V1069.64H487.773ZM481.727 1062.98C481.727 1062.12 482.008 1061.41 482.57 1060.85C483.148 1060.27 483.945 1059.98 484.961 1059.98C485.961 1059.98 486.75 1060.27 487.328 1060.85C487.906 1061.41 488.195 1062.12 488.195 1062.98C488.195 1063.83 487.906 1064.53 487.328 1065.09C486.75 1065.66 485.961 1065.94 484.961 1065.94C483.945 1065.94 483.148 1065.66 482.57 1065.09C482.008 1064.53 481.727 1063.83 481.727 1062.98ZM509.43 1089.75V1059H515.102V1095H509.969L509.43 1089.75ZM492.93 1082.6V1082.11C492.93 1080.19 493.156 1078.44 493.609 1076.86C494.062 1075.27 494.719 1073.9 495.578 1072.76C496.438 1071.6 497.484 1070.72 498.719 1070.11C499.953 1069.48 501.344 1069.17 502.891 1069.17C504.422 1069.17 505.766 1069.47 506.922 1070.06C508.078 1070.66 509.062 1071.51 509.875 1072.62C510.688 1073.71 511.336 1075.02 511.82 1076.55C512.305 1078.07 512.648 1079.76 512.852 1081.62V1083.19C512.648 1085 512.305 1086.66 511.82 1088.16C511.336 1089.66 510.688 1090.95 509.875 1092.05C509.062 1093.14 508.07 1093.98 506.898 1094.58C505.742 1095.17 504.391 1095.47 502.844 1095.47C501.312 1095.47 499.93 1095.15 498.695 1094.51C497.477 1093.87 496.438 1092.97 495.578 1091.81C494.719 1090.66 494.062 1089.3 493.609 1087.73C493.156 1086.16 492.93 1084.45 492.93 1082.6ZM498.578 1082.11V1082.6C498.578 1083.76 498.68 1084.84 498.883 1085.84C499.102 1086.84 499.438 1087.72 499.891 1088.48C500.344 1089.23 500.93 1089.83 501.648 1090.27C502.383 1090.69 503.258 1090.9 504.273 1090.9C505.555 1090.9 506.609 1090.62 507.438 1090.05C508.266 1089.49 508.914 1088.73 509.383 1087.78C509.867 1086.81 510.195 1085.73 510.367 1084.55V1080.3C510.273 1079.38 510.078 1078.52 509.781 1077.73C509.5 1076.93 509.117 1076.23 508.633 1075.64C508.148 1075.03 507.547 1074.56 506.828 1074.23C506.125 1073.89 505.289 1073.72 504.32 1073.72C503.289 1073.72 502.414 1073.94 501.695 1074.38C500.977 1074.81 500.383 1075.41 499.914 1076.18C499.461 1076.95 499.125 1077.84 498.906 1078.85C498.688 1079.87 498.578 1080.95 498.578 1082.11ZM527.055 1069.64V1095H521.383V1069.64H527.055ZM521.008 1062.98C521.008 1062.12 521.289 1061.41 521.852 1060.85C522.43 1060.27 523.227 1059.98 524.242 1059.98C525.242 1059.98 526.031 1060.27 526.609 1060.85C527.188 1061.41 527.477 1062.12 527.477 1062.98C527.477 1063.83 527.188 1064.53 526.609 1065.09C526.031 1065.66 525.242 1065.94 524.242 1065.94C523.227 1065.94 522.43 1065.66 521.852 1065.09C521.289 1064.53 521.008 1063.83 521.008 1062.98ZM547.539 1089.91V1077.82C547.539 1076.91 547.375 1076.13 547.047 1075.48C546.719 1074.82 546.219 1074.31 545.547 1073.95C544.891 1073.59 544.062 1073.41 543.062 1073.41C542.141 1073.41 541.344 1073.57 540.672 1073.88C540 1074.2 539.477 1074.62 539.102 1075.15C538.727 1075.68 538.539 1076.28 538.539 1076.95H532.914C532.914 1075.95 533.156 1074.98 533.641 1074.05C534.125 1073.11 534.828 1072.27 535.75 1071.54C536.672 1070.8 537.773 1070.23 539.055 1069.8C540.336 1069.38 541.773 1069.17 543.367 1069.17C545.273 1069.17 546.961 1069.49 548.43 1070.13C549.914 1070.77 551.078 1071.74 551.922 1073.04C552.781 1074.32 553.211 1075.93 553.211 1077.87V1089.14C553.211 1090.3 553.289 1091.34 553.445 1092.26C553.617 1093.16 553.859 1093.95 554.172 1094.62V1095H548.383C548.117 1094.39 547.906 1093.62 547.75 1092.68C547.609 1091.73 547.539 1090.8 547.539 1089.91ZM548.359 1079.58L548.406 1083.07H544.352C543.305 1083.07 542.383 1083.17 541.586 1083.38C540.789 1083.56 540.125 1083.84 539.594 1084.22C539.062 1084.59 538.664 1085.05 538.398 1085.58C538.133 1086.11 538 1086.71 538 1087.38C538 1088.05 538.156 1088.67 538.469 1089.23C538.781 1089.78 539.234 1090.21 539.828 1090.52C540.438 1090.84 541.172 1090.99 542.031 1090.99C543.188 1090.99 544.195 1090.76 545.055 1090.29C545.93 1089.8 546.617 1089.22 547.117 1088.53C547.617 1087.83 547.883 1087.16 547.914 1086.54L549.742 1089.05C549.555 1089.69 549.234 1090.38 548.781 1091.11C548.328 1091.84 547.734 1092.55 547 1093.22C546.281 1093.88 545.414 1094.41 544.398 1094.84C543.398 1095.26 542.242 1095.47 540.93 1095.47C539.273 1095.47 537.797 1095.14 536.5 1094.48C535.203 1093.81 534.188 1092.91 533.453 1091.79C532.719 1090.65 532.352 1089.36 532.352 1087.92C532.352 1086.58 532.602 1085.39 533.102 1084.36C533.617 1083.31 534.367 1082.44 535.352 1081.73C536.352 1081.03 537.57 1080.5 539.008 1080.14C540.445 1079.77 542.086 1079.58 543.93 1079.58H548.359ZM564.789 1074.47V1095H559.141V1069.64H564.531L564.789 1074.47ZM572.547 1069.48L572.5 1074.73C572.156 1074.66 571.781 1074.62 571.375 1074.59C570.984 1074.55 570.594 1074.54 570.203 1074.54C569.234 1074.54 568.383 1074.68 567.648 1074.96C566.914 1075.23 566.297 1075.62 565.797 1076.13C565.312 1076.63 564.938 1077.24 564.672 1077.96C564.406 1078.68 564.25 1079.48 564.203 1080.38L562.914 1080.47C562.914 1078.88 563.07 1077.4 563.383 1076.04C563.695 1074.68 564.164 1073.48 564.789 1072.45C565.43 1071.42 566.227 1070.62 567.18 1070.04C568.148 1069.46 569.266 1069.17 570.531 1069.17C570.875 1069.17 571.242 1069.2 571.633 1069.27C572.039 1069.33 572.344 1069.4 572.547 1069.48ZM583.867 1092.23L590.758 1069.64H596.805L586.633 1098.87C586.398 1099.49 586.094 1100.17 585.719 1100.91C585.344 1101.64 584.852 1102.34 584.242 1102.99C583.648 1103.66 582.906 1104.2 582.016 1104.61C581.125 1105.03 580.047 1105.24 578.781 1105.24C578.281 1105.24 577.797 1105.2 577.328 1105.1C576.875 1105.02 576.445 1104.94 576.039 1104.84L576.016 1100.53C576.172 1100.55 576.359 1100.56 576.578 1100.58C576.812 1100.59 577 1100.6 577.141 1100.6C578.078 1100.6 578.859 1100.48 579.484 1100.25C580.109 1100.03 580.617 1099.67 581.008 1099.17C581.414 1098.67 581.758 1098 582.039 1097.16L583.867 1092.23ZM579.977 1069.64L586 1088.62L587.008 1094.58L583.094 1095.59L573.883 1069.64H579.977Z" fill="white"/>
<path d="M551.185 728.609V767H544.566V728.609H551.185ZM565.133 744.271V767H558.778V738.471H564.764L565.133 744.271ZM564.104 751.681L561.942 751.654C561.942 749.686 562.188 747.866 562.681 746.196C563.173 744.526 563.894 743.076 564.843 741.846C565.792 740.598 566.97 739.64 568.376 738.972C569.8 738.286 571.443 737.943 573.307 737.943C574.607 737.943 575.794 738.137 576.866 738.523C577.956 738.893 578.896 739.481 579.688 740.29C580.496 741.099 581.111 742.136 581.533 743.401C581.973 744.667 582.192 746.196 582.192 747.989V767H575.838V748.543C575.838 747.154 575.627 746.064 575.205 745.273C574.801 744.482 574.212 743.92 573.438 743.586C572.683 743.234 571.777 743.059 570.723 743.059C569.527 743.059 568.508 743.287 567.664 743.744C566.838 744.201 566.161 744.825 565.634 745.616C565.106 746.407 564.72 747.321 564.474 748.358C564.228 749.396 564.104 750.503 564.104 751.681ZM581.797 749.993L578.817 750.652C578.817 748.93 579.055 747.304 579.529 745.774C580.021 744.228 580.733 742.874 581.665 741.714C582.614 740.536 583.783 739.613 585.172 738.945C586.561 738.277 588.151 737.943 589.944 737.943C591.403 737.943 592.704 738.146 593.847 738.55C595.007 738.937 595.991 739.552 596.8 740.396C597.608 741.239 598.224 742.338 598.646 743.691C599.067 745.027 599.278 746.645 599.278 748.543V767H592.897V748.517C592.897 747.075 592.687 745.959 592.265 745.168C591.86 744.377 591.28 743.832 590.524 743.533C589.769 743.217 588.863 743.059 587.809 743.059C586.824 743.059 585.954 743.243 585.198 743.612C584.46 743.964 583.836 744.465 583.326 745.115C582.816 745.748 582.43 746.478 582.166 747.304C581.92 748.13 581.797 749.026 581.797 749.993ZM612.198 743.955V777.969H605.844V738.471H611.697L612.198 743.955ZM630.787 752.472V753.025C630.787 755.1 630.541 757.024 630.049 758.8C629.574 760.558 628.862 762.096 627.913 763.414C626.981 764.715 625.83 765.726 624.459 766.446C623.088 767.167 621.506 767.527 619.713 767.527C617.938 767.527 616.382 767.202 615.046 766.552C613.728 765.884 612.611 764.943 611.697 763.73C610.783 762.518 610.045 761.094 609.482 759.459C608.938 757.807 608.551 755.996 608.322 754.027V751.892C608.551 749.8 608.938 747.901 609.482 746.196C610.045 744.491 610.783 743.023 611.697 741.793C612.611 740.562 613.728 739.613 615.046 738.945C616.364 738.277 617.902 737.943 619.66 737.943C621.453 737.943 623.044 738.295 624.433 738.998C625.821 739.684 626.99 740.668 627.939 741.951C628.889 743.217 629.601 744.746 630.075 746.539C630.55 748.314 630.787 750.292 630.787 752.472ZM624.433 753.025V752.472C624.433 751.153 624.31 749.932 624.063 748.807C623.817 747.664 623.431 746.662 622.903 745.801C622.376 744.939 621.699 744.271 620.873 743.797C620.064 743.305 619.089 743.059 617.946 743.059C616.821 743.059 615.854 743.252 615.046 743.639C614.237 744.008 613.561 744.526 613.016 745.194C612.471 745.862 612.049 746.645 611.75 747.541C611.451 748.42 611.24 749.378 611.117 750.415V755.53C611.328 756.796 611.688 757.956 612.198 759.011C612.708 760.065 613.429 760.909 614.36 761.542C615.31 762.157 616.522 762.465 617.999 762.465C619.142 762.465 620.117 762.219 620.926 761.727C621.734 761.234 622.394 760.558 622.903 759.696C623.431 758.817 623.817 757.807 624.063 756.664C624.31 755.521 624.433 754.309 624.433 753.025ZM634.979 753.052V752.445C634.979 750.389 635.278 748.481 635.876 746.724C636.474 744.948 637.335 743.41 638.46 742.109C639.603 740.791 640.991 739.771 642.626 739.051C644.278 738.312 646.142 737.943 648.216 737.943C650.308 737.943 652.171 738.312 653.806 739.051C655.458 739.771 656.855 740.791 657.998 742.109C659.141 743.41 660.011 744.948 660.608 746.724C661.206 748.481 661.505 750.389 661.505 752.445V753.052C661.505 755.108 661.206 757.016 660.608 758.773C660.011 760.531 659.141 762.069 657.998 763.388C656.855 764.688 655.467 765.708 653.832 766.446C652.197 767.167 650.343 767.527 648.269 767.527C646.177 767.527 644.305 767.167 642.652 766.446C641.018 765.708 639.629 764.688 638.486 763.388C637.344 762.069 636.474 760.531 635.876 758.773C635.278 757.016 634.979 755.108 634.979 753.052ZM641.334 752.445V753.052C641.334 754.335 641.466 755.548 641.729 756.69C641.993 757.833 642.406 758.835 642.969 759.696C643.531 760.558 644.252 761.234 645.131 761.727C646.01 762.219 647.056 762.465 648.269 762.465C649.446 762.465 650.466 762.219 651.327 761.727C652.206 761.234 652.927 760.558 653.489 759.696C654.052 758.835 654.465 757.833 654.729 756.69C655.01 755.548 655.15 754.335 655.15 753.052V752.445C655.15 751.18 655.01 749.984 654.729 748.859C654.465 747.717 654.043 746.706 653.463 745.827C652.9 744.948 652.18 744.263 651.301 743.771C650.439 743.261 649.411 743.006 648.216 743.006C647.021 743.006 645.983 743.261 645.104 743.771C644.243 744.263 643.531 744.948 642.969 745.827C642.406 746.706 641.993 747.717 641.729 748.859C641.466 749.984 641.334 751.18 641.334 752.445ZM673.212 743.902V767H666.857V738.471H672.922L673.212 743.902ZM681.939 738.286L681.887 744.192C681.5 744.122 681.078 744.069 680.621 744.034C680.182 743.999 679.742 743.981 679.303 743.981C678.213 743.981 677.255 744.14 676.429 744.456C675.603 744.755 674.908 745.194 674.346 745.774C673.801 746.337 673.379 747.022 673.08 747.831C672.781 748.64 672.605 749.545 672.553 750.547L671.103 750.652C671.103 748.859 671.278 747.198 671.63 745.669C671.981 744.14 672.509 742.795 673.212 741.635C673.933 740.475 674.829 739.569 675.901 738.919C676.991 738.269 678.248 737.943 679.672 737.943C680.059 737.943 680.472 737.979 680.911 738.049C681.368 738.119 681.711 738.198 681.939 738.286ZM700.317 738.471V743.111H684.233V738.471H700.317ZM688.874 731.483H695.229V759.116C695.229 759.995 695.352 760.672 695.598 761.146C695.861 761.604 696.222 761.911 696.679 762.069C697.136 762.228 697.672 762.307 698.287 762.307C698.727 762.307 699.148 762.28 699.553 762.228C699.957 762.175 700.282 762.122 700.528 762.069L700.555 766.921C700.027 767.079 699.412 767.22 698.709 767.343C698.023 767.466 697.232 767.527 696.336 767.527C694.877 767.527 693.585 767.272 692.46 766.763C691.335 766.235 690.456 765.383 689.823 764.205C689.19 763.027 688.874 761.463 688.874 759.512V731.483ZM717.799 767.527C715.689 767.527 713.782 767.185 712.077 766.499C710.39 765.796 708.948 764.82 707.753 763.572C706.575 762.324 705.67 760.856 705.037 759.169C704.404 757.481 704.088 755.662 704.088 753.711V752.656C704.088 750.424 704.413 748.402 705.063 746.592C705.714 744.781 706.619 743.234 707.779 741.951C708.939 740.65 710.311 739.657 711.893 738.972C713.475 738.286 715.188 737.943 717.034 737.943C719.073 737.943 720.857 738.286 722.387 738.972C723.916 739.657 725.182 740.624 726.184 741.872C727.203 743.103 727.959 744.57 728.451 746.275C728.961 747.98 729.216 749.861 729.216 751.918V754.634H707.173V750.072H722.94V749.571C722.905 748.429 722.677 747.356 722.255 746.354C721.851 745.353 721.227 744.544 720.383 743.929C719.539 743.313 718.414 743.006 717.008 743.006C715.953 743.006 715.013 743.234 714.187 743.691C713.378 744.131 712.701 744.772 712.156 745.616C711.611 746.46 711.189 747.479 710.891 748.675C710.609 749.853 710.469 751.18 710.469 752.656V753.711C710.469 754.959 710.636 756.119 710.97 757.191C711.321 758.246 711.831 759.169 712.499 759.96C713.167 760.751 713.976 761.375 714.925 761.832C715.874 762.271 716.955 762.491 718.168 762.491C719.697 762.491 721.06 762.184 722.255 761.568C723.45 760.953 724.487 760.083 725.366 758.958L728.715 762.201C728.1 763.098 727.3 763.959 726.315 764.785C725.331 765.594 724.127 766.253 722.703 766.763C721.297 767.272 719.662 767.527 717.799 767.527ZM740.554 743.902V767H734.199V738.471H740.264L740.554 743.902ZM749.281 738.286L749.229 744.192C748.842 744.122 748.42 744.069 747.963 744.034C747.523 743.999 747.084 743.981 746.645 743.981C745.555 743.981 744.597 744.14 743.771 744.456C742.944 744.755 742.25 745.194 741.688 745.774C741.143 746.337 740.721 747.022 740.422 747.831C740.123 748.64 739.947 749.545 739.895 750.547L738.444 750.652C738.444 748.859 738.62 747.198 738.972 745.669C739.323 744.14 739.851 742.795 740.554 741.635C741.274 740.475 742.171 739.569 743.243 738.919C744.333 738.269 745.59 737.943 747.014 737.943C747.4 737.943 747.813 737.979 748.253 738.049C748.71 738.119 749.053 738.198 749.281 738.286ZM769.268 759.274C769.268 758.642 769.109 758.07 768.793 757.561C768.477 757.033 767.87 756.559 766.974 756.137C766.095 755.715 764.794 755.328 763.071 754.977C761.56 754.643 760.171 754.247 758.905 753.79C757.657 753.315 756.585 752.744 755.688 752.076C754.792 751.408 754.098 750.617 753.605 749.703C753.113 748.789 752.867 747.734 752.867 746.539C752.867 745.379 753.122 744.28 753.632 743.243C754.142 742.206 754.871 741.292 755.82 740.501C756.77 739.71 757.921 739.086 759.274 738.629C760.646 738.172 762.175 737.943 763.862 737.943C766.253 737.943 768.301 738.348 770.006 739.156C771.729 739.947 773.047 741.028 773.961 742.399C774.875 743.753 775.332 745.282 775.332 746.987H768.978C768.978 746.231 768.784 745.528 768.397 744.878C768.028 744.21 767.466 743.674 766.71 743.27C765.954 742.848 765.005 742.637 763.862 742.637C762.772 742.637 761.867 742.812 761.146 743.164C760.443 743.498 759.916 743.938 759.564 744.482C759.23 745.027 759.063 745.625 759.063 746.275C759.063 746.75 759.151 747.181 759.327 747.567C759.521 747.937 759.837 748.279 760.276 748.596C760.716 748.895 761.313 749.176 762.069 749.439C762.843 749.703 763.81 749.958 764.97 750.204C767.149 750.661 769.021 751.25 770.586 751.971C772.168 752.674 773.381 753.588 774.225 754.713C775.068 755.82 775.49 757.227 775.49 758.932C775.49 760.197 775.218 761.357 774.673 762.412C774.146 763.449 773.372 764.354 772.353 765.128C771.333 765.884 770.111 766.473 768.688 766.895C767.281 767.316 765.699 767.527 763.941 767.527C761.357 767.527 759.169 767.07 757.376 766.156C755.583 765.225 754.221 764.038 753.289 762.597C752.375 761.138 751.918 759.626 751.918 758.062H758.062C758.132 759.239 758.457 760.18 759.037 760.883C759.635 761.568 760.373 762.069 761.252 762.386C762.148 762.685 763.071 762.834 764.021 762.834C765.163 762.834 766.121 762.685 766.895 762.386C767.668 762.069 768.257 761.647 768.661 761.12C769.065 760.575 769.268 759.96 769.268 759.274Z" fill="white"/>
<path d="M915.001 974.03C878.55 974.03 849.001 1010.8 849.001 1056.16C849.001 1101.52 878.55 1138.29 915.001 1138.29C951.451 1138.29 981 1101.52 981 1056.16C981 1010.8 951.451 974.03 915.001 974.03Z" fill="#FFA229"/>
<path d="M844.021 955.318C883.465 989.99 896.859 1045.09 877.245 1094.33C857.656 1143.5 809.971 1174.42 757.469 1172.59L750.808 1189.32C780.9 1191.61 810.938 1184.24 836.539 1168.28C862.139 1152.33 881.961 1128.62 893.113 1100.63C904.265 1072.63 906.163 1041.81 898.53 1012.66C890.896 983.514 874.131 957.564 850.681 938.599L844.021 955.318Z" fill="#FFA229"/>
<path d="M765.824 924.266C713.306 922.425 665.662 953.3 646.048 1002.54C626.461 1051.71 639.849 1106.88 679.274 1141.54L672.613 1158.27C649.167 1139.3 632.405 1113.35 624.773 1084.2C617.142 1055.06 619.04 1024.24 630.192 996.246C641.343 968.253 661.164 944.55 686.761 928.595C712.359 912.641 742.394 905.27 772.484 907.558L765.824 924.266Z" fill="#FFA229"/>
<path d="M84.9993 832.111C121.45 832.111 150.999 795.34 150.999 749.981C150.999 704.622 121.45 667.852 84.9993 667.852C48.5489 667.852 19 704.622 19 749.981C19 795.34 48.5489 832.111 84.9993 832.111Z" fill="#1C4670"/>
<path d="M673.868 960.713C625.34 1009.16 625.34 1087.7 673.868 1136.15C722.395 1184.59 801.074 1184.59 849.602 1136.15C898.129 1087.7 898.129 1009.16 849.602 960.713C801.074 912.268 722.395 912.268 673.868 960.713Z" fill="white"/>
<path d="M155.979 850.823C116.535 816.151 103.141 761.051 122.755 711.814C142.344 662.64 190.029 631.716 242.531 633.547L249.192 616.823C219.1 614.533 189.062 621.903 163.461 637.858C137.861 653.813 118.039 677.518 106.887 705.513C95.7346 733.509 93.8369 764.33 101.47 793.478C109.104 822.627 125.869 848.577 149.319 867.542L155.979 850.823Z" fill="#1C4670"/>
<path d="M686.649 973.558C645.228 1014.91 645.228 1081.95 686.649 1123.3C728.07 1164.65 795.227 1164.65 836.649 1123.3C878.07 1081.95 878.07 1014.91 836.649 973.558C795.227 932.208 728.07 932.208 686.649 973.558Z" fill="#1C4670"/>
<path d="M836.294 974.224C877.52 1015.38 877.52 1082.11 836.294 1123.26C795.068 1164.42 728.228 1164.42 687.002 1123.26C645.776 1082.11 645.776 1015.38 687.002 974.224C728.228 933.069 795.068 933.069 836.294 974.224Z" fill="white" stroke="black"/>
<path d="M740.906 1085.66C734.808 1085.66 730.092 1083.95 726.756 1080.53C723.447 1077.11 721.793 1072.19 721.793 1065.76V1033.2C721.793 1026.42 723.365 1021.22 726.51 1017.61C729.681 1013.97 734.48 1012.16 740.906 1012.16C747.359 1012.16 752.158 1013.97 755.303 1017.61C758.447 1021.22 760.019 1026.42 760.019 1033.2V1065.76C760.019 1072.19 758.365 1077.11 755.056 1080.53C751.748 1083.95 747.031 1085.66 740.906 1085.66ZM740.906 1072.37C742.027 1072.37 742.902 1071.86 743.531 1070.85C744.16 1069.84 744.474 1068.7 744.474 1067.45V1031.8C744.474 1030.11 744.283 1028.63 743.9 1027.37C743.545 1026.09 742.547 1025.45 740.906 1025.45C739.265 1025.45 738.254 1026.09 737.871 1027.37C737.515 1028.63 737.338 1030.11 737.338 1031.8V1067.45C737.338 1068.7 737.652 1069.84 738.281 1070.85C738.937 1071.86 739.812 1072.37 740.906 1072.37ZM785.488 1085.04V1073.6H764.078V1062.32L777.736 1012.77H800.213V1061.54H804.069V1073.6H800.213V1085.04H785.488ZM776.957 1061.54H785.488V1025.16L776.957 1061.54Z" fill="#1C4670"/>
<path d="M234.176 881.874C286.694 883.716 334.338 852.84 353.952 803.605C373.539 754.431 360.151 699.257 320.726 664.598L327.387 647.875C350.833 666.841 367.595 692.79 375.227 721.936C382.858 751.083 380.96 781.901 369.808 809.894C358.657 837.887 338.836 861.591 313.239 877.545C287.641 893.5 257.606 900.871 227.516 898.583L234.176 881.874Z" fill="#1C4670"/>
<path d="M326.218 845.42C374.746 796.975 374.746 718.431 326.218 669.986C277.691 621.542 199.012 621.542 150.484 669.986C101.957 718.431 101.957 796.975 150.484 845.42C199.012 893.864 277.691 893.864 326.218 845.42Z" fill="white"/>
<path d="M313.351 832.575C354.772 791.224 354.772 724.182 313.351 682.832C271.93 641.481 204.773 641.481 163.351 682.832C121.93 724.182 121.93 791.224 163.351 832.575C204.773 873.925 271.93 873.925 313.351 832.575Z" fill="#FFA229"/>
<path d="M219.906 791.656C213.808 791.656 209.092 789.947 205.756 786.529C202.447 783.111 200.793 778.189 200.793 771.764V739.197C200.793 732.416 202.365 727.221 205.51 723.611C208.681 719.975 213.48 718.156 219.906 718.156C226.359 718.156 231.158 719.975 234.303 723.611C237.447 727.221 239.019 732.416 239.019 739.197V771.764C239.019 778.189 237.365 783.111 234.056 786.529C230.748 789.947 226.031 791.656 219.906 791.656ZM219.906 778.367C221.027 778.367 221.902 777.861 222.531 776.85C223.16 775.838 223.474 774.703 223.474 773.445V737.803C223.474 736.107 223.283 734.631 222.9 733.373C222.545 732.088 221.547 731.445 219.906 731.445C218.265 731.445 217.254 732.088 216.871 733.373C216.515 734.631 216.338 736.107 216.338 737.803V773.445C216.338 774.703 216.652 775.838 217.281 776.85C217.937 777.861 218.812 778.367 219.906 778.367ZM262.192 791.82C255.82 791.82 251.186 790.139 248.287 786.775C245.389 783.412 243.94 778.34 243.94 771.559V764.012H258.746V771.6C258.746 773.514 258.979 775.141 259.444 776.48C259.936 777.793 261.016 778.449 262.684 778.449C264.379 778.449 265.459 777.738 265.924 776.316C266.389 774.867 266.621 772.516 266.621 769.262V767.457C266.621 764.969 266.197 762.795 265.35 760.936C264.529 759.076 262.903 758.146 260.469 758.146C260.168 758.146 259.895 758.16 259.649 758.188C259.43 758.188 259.238 758.201 259.074 758.229V745.268C261.563 745.268 263.463 744.721 264.776 743.627C266.088 742.506 266.744 740.646 266.744 738.049C266.744 733.975 265.569 731.938 263.217 731.938C261.686 731.938 260.647 732.539 260.1 733.742C259.58 734.918 259.32 736.422 259.32 738.254V740.428H244.391C244.363 740.1 244.336 739.703 244.309 739.238C244.309 738.773 244.309 738.322 244.309 737.885C244.309 731.268 245.854 726.414 248.944 723.324C252.033 720.234 256.764 718.689 263.135 718.689C275.44 718.689 281.592 725.088 281.592 737.885C281.592 741.439 281.113 744.379 280.156 746.703C279.199 749 277.422 750.613 274.824 751.543C276.875 752.527 278.393 753.785 279.377 755.316C280.361 756.848 281.004 758.748 281.305 761.018C281.606 763.287 281.756 766.035 281.756 769.262C281.756 776.48 280.238 782.045 277.203 785.955C274.195 789.865 269.192 791.82 262.192 791.82Z" fill="white"/>
<path d="M836.294 386.482C877.52 427.637 877.52 494.363 836.294 535.518C795.068 576.673 728.228 576.673 687.002 535.518C645.776 494.363 645.776 427.637 687.002 386.482C728.228 345.327 795.068 345.327 836.294 386.482Z" fill="white" stroke="black"/>
<path d="M738.906 499.656C732.808 499.656 728.092 497.947 724.756 494.529C721.447 491.111 719.793 486.189 719.793 479.764V447.197C719.793 440.416 721.365 435.221 724.51 431.611C727.681 427.975 732.48 426.156 738.906 426.156C745.359 426.156 750.158 427.975 753.303 431.611C756.447 435.221 758.019 440.416 758.019 447.197V479.764C758.019 486.189 756.365 491.111 753.056 494.529C749.748 497.947 745.031 499.656 738.906 499.656ZM738.906 486.367C740.027 486.367 740.902 485.861 741.531 484.85C742.16 483.838 742.474 482.703 742.474 481.445V445.803C742.474 444.107 742.283 442.631 741.9 441.373C741.545 440.088 740.547 439.445 738.906 439.445C737.265 439.445 736.254 440.088 735.871 441.373C735.515 442.631 735.338 444.107 735.338 445.803V481.445C735.338 482.703 735.652 483.838 736.281 484.85C736.937 485.861 737.812 486.367 738.906 486.367ZM763.883 499V495.555C763.883 491.973 764.43 488.76 765.524 485.916C766.645 483.045 768.08 480.393 769.83 477.959C771.58 475.498 773.426 473.092 775.367 470.74C777.254 468.443 779.045 466.092 780.74 463.686C782.463 461.252 783.858 458.627 784.924 455.811C786.018 452.967 786.565 449.781 786.565 446.254C786.565 444.559 786.305 443.109 785.785 441.906C785.293 440.676 784.254 440.061 782.668 440.061C780.262 440.061 779.059 442.207 779.059 446.5V455.318H763.883C763.856 454.689 763.815 453.979 763.76 453.186C763.733 452.393 763.719 451.627 763.719 450.889C763.719 445.693 764.266 441.291 765.36 437.682C766.453 434.045 768.381 431.283 771.143 429.396C773.932 427.482 777.842 426.525 782.873 426.525C788.861 426.525 793.51 428.207 796.819 431.57C800.154 434.934 801.822 439.732 801.822 445.967C801.822 450.205 801.276 453.924 800.182 457.123C799.088 460.295 797.639 463.193 795.834 465.818C794.029 468.416 792.047 471.014 789.887 473.611C788.356 475.443 786.865 477.316 785.416 479.23C783.994 481.145 782.736 483.195 781.643 485.383H801.33V499H763.883Z" fill="#1C4670"/>
</g>
<defs>
<clipPath id="clip0_272_1454">
<rect width="1000" height="1224" fill="white"/>
</clipPath>
</defs>
</svg>
