<svg width="1080" height="1080" viewBox="0 0 1080 1080" fill="none" xmlns="http://www.w3.org/2000/svg">
<rect width="1080" height="1080" fill="#EFE4E4"/>
<path d="M959.4 824.253C750.841 1091.02 262.421 1095.31 127.21 947.125C73.2461 887.994 58.9963 786.431 38.0515 637.253C27.9712 565.437 26.526 507.545 25.6697 467.838C22.7178 332.739 21.2509 265.183 43.0122 219.225C105.294 87.6673 321.7 36.467 461.575 34.0896C471.337 33.9234 481.185 33.9884 491.119 34.2847C654.901 39.1659 839.719 107.344 953.702 253.032C965.614 268.237 976.615 284.135 986.646 300.641C1090.69 471.718 1073.18 678.731 959.4 824.253Z" fill="#F4F7FA"/>
<g opacity="0.4">
<path d="M906.552 274.819L612.932 111.943C610.792 110.756 608.385 110.133 605.937 110.133C603.49 110.133 601.083 110.756 598.942 111.943L302.985 276.116C302.526 276.371 302.165 276.772 301.958 277.254C301.751 277.737 301.71 278.275 301.841 278.783C301.972 279.292 302.269 279.742 302.684 280.064C303.098 280.386 303.608 280.562 304.133 280.563H905.06C905.74 280.564 906.401 280.34 906.939 279.924C907.477 279.508 907.861 278.926 908.031 278.268C908.202 277.61 908.149 276.914 907.88 276.289C907.612 275.665 907.144 275.148 906.549 274.819H906.552Z" fill="#D8DEE8"/>
<path d="M380.474 294.844H326.807C322.512 294.844 319.031 298.325 319.031 302.619V303.548C319.031 307.842 322.512 311.323 326.807 311.323H380.474C384.769 311.323 388.25 307.842 388.25 303.548V302.619C388.25 298.325 384.769 294.844 380.474 294.844Z" fill="#D8DEE8"/>
<path d="M380.474 580.508H326.807C322.512 580.508 319.031 583.989 319.031 588.283V589.212C319.031 593.506 322.512 596.987 326.807 596.987H380.474C384.769 596.987 388.25 593.506 388.25 589.212V588.283C388.25 583.989 384.769 580.508 380.474 580.508Z" fill="#D8DEE8"/>
<path d="M338.804 317.922H326.719V573.916H338.804V317.922Z" fill="#D8DEE8"/>
<path d="M360.784 317.922H349.797V573.916H360.784V317.922Z" fill="#D8DEE8"/>
<path d="M381.649 317.922H367.367V573.916H381.649V317.922Z" fill="#D8DEE8"/>
<path d="M548.576 294.844H494.908C490.614 294.844 487.133 298.325 487.133 302.619V303.548C487.133 307.842 490.614 311.323 494.908 311.323H548.576C552.87 311.323 556.351 307.842 556.351 303.548V302.619C556.351 298.325 552.87 294.844 548.576 294.844Z" fill="#D8DEE8"/>
<path d="M548.576 580.508H494.908C490.614 580.508 487.133 583.989 487.133 588.283V589.212C487.133 593.506 490.614 596.987 494.908 596.987H548.576C552.87 596.987 556.351 593.506 556.351 589.212V588.283C556.351 583.989 552.87 580.508 548.576 580.508Z" fill="#D8DEE8"/>
<path d="M508.002 317.922H491.523V573.916H508.002V317.922Z" fill="#D8DEE8"/>
<path d="M527.778 317.922H514.594V573.916H527.778V317.922Z" fill="#D8DEE8"/>
<path d="M549.751 317.922H535.469V573.916H549.751V317.922Z" fill="#D8DEE8"/>
<path d="M716.678 294.844H663.01C658.715 294.844 655.234 298.325 655.234 302.619V303.548C655.234 307.842 658.715 311.323 663.01 311.323H716.678C720.972 311.323 724.453 307.842 724.453 303.548V302.619C724.453 298.325 720.972 294.844 716.678 294.844Z" fill="#D8DEE8"/>
<path d="M716.678 580.508H663.01C658.715 580.508 655.234 583.989 655.234 588.283V589.212C655.234 593.506 658.715 596.987 663.01 596.987H716.678C720.972 596.987 724.453 593.506 724.453 589.212V588.283C724.453 583.989 720.972 580.508 716.678 580.508Z" fill="#D8DEE8"/>
<path d="M676.103 317.922H661.82V573.916H676.103V317.922Z" fill="#D8DEE8"/>
<path d="M696.981 317.922H683.797V573.916H696.981V317.922Z" fill="#D8DEE8"/>
<path d="M716.754 317.922H703.57V573.916H716.754V317.922Z" fill="#D8DEE8"/>
<path d="M881.475 294.844H827.807C823.512 294.844 820.031 298.325 820.031 302.619V303.548C820.031 307.842 823.512 311.323 827.807 311.323H881.475C885.769 311.323 889.25 307.842 889.25 303.548V302.619C889.25 298.325 885.769 294.844 881.475 294.844Z" fill="#D8DEE8"/>
<path d="M881.475 580.508H827.807C823.512 580.508 820.031 583.989 820.031 588.283V589.212C820.031 593.506 823.512 596.987 827.807 596.987H881.475C885.769 596.987 889.25 593.506 889.25 589.212V588.283C889.25 583.989 885.769 580.508 881.475 580.508Z" fill="#D8DEE8"/>
<path d="M843.106 317.922H829.922V573.916H843.106V317.922Z" fill="#D8DEE8"/>
<path d="M861.784 317.922H850.797V573.916H861.784V317.922Z" fill="#D8DEE8"/>
<path d="M882.661 317.922H869.477V573.916H882.661V317.922Z" fill="#D8DEE8"/>
<path d="M899.133 609.07H311.336V657.413H899.133V609.07Z" fill="#D8DEE8"/>
<path d="M931.388 631.047H283.875V657.415H931.388V631.047Z" fill="#D8DEE8"/>
</g>
<path d="M255.704 238.611C259.96 240.779 265.311 238.788 267.652 234.178C269.994 229.567 268.436 224.061 264.18 221.915C263.96 221.803 263.736 221.709 263.508 221.619C264.297 219.102 264.901 216.531 265.315 213.927C265.557 213.927 265.803 213.927 266.037 213.898C270.893 213.464 274.748 209.002 274.647 203.929C274.546 198.857 270.528 195.092 265.669 195.525C265.416 195.547 265.167 195.59 264.917 195.634C264.415 193.134 263.72 190.678 262.84 188.285C263.06 188.155 263.284 188.021 263.501 187.869C267.656 184.957 268.986 179.198 266.467 175.032C263.949 170.866 258.544 169.83 254.385 172.742C254.172 172.89 253.974 173.052 253.775 173.215C252.124 171.39 250.322 169.707 248.388 168.186C248.521 167.958 248.659 167.73 248.778 167.492C251.119 162.882 254.176 157.849 249.887 155.753C239.962 150.908 235.702 155.056 233.361 159.666C233.238 159.905 233.134 160.147 233.032 160.389C230.667 159.727 228.249 159.265 225.806 159.008C225.806 158.752 225.835 158.495 225.828 158.235C225.727 153.177 227.233 150.417 222.356 150.319C211.723 150.113 208.135 154.731 208.24 159.803C208.24 160.067 208.265 160.327 208.29 160.584C205.84 161.284 203.447 162.172 201.133 163.239C201.021 163.015 200.909 162.788 200.772 162.571C198.242 158.394 192.845 157.368 188.69 160.28C184.535 163.192 183.176 168.937 185.705 173.103C185.835 173.32 185.976 173.518 186.117 173.717C184.254 175.583 182.531 177.582 180.961 179.7C180.755 179.57 180.546 179.444 180.325 179.339C176.069 177.171 170.718 179.162 168.381 183.772C166.043 188.382 167.593 193.889 171.849 196.031C172.067 196.143 172.292 196.242 172.521 196.328C171.739 198.846 171.141 201.418 170.733 204.023C170.491 204.023 170.245 204.023 170.01 204.049C165.154 204.482 161.299 208.948 161.4 214.021C161.502 219.093 165.523 222.854 170.379 222.421C170.632 222.399 170.881 222.359 171.13 222.316C171.633 224.815 172.328 227.271 173.211 229.661C172.987 229.791 172.763 229.929 172.547 230.08C168.392 232.993 167.062 238.752 169.58 242.914C172.099 247.076 180.419 249.034 184.585 246.122C184.798 245.971 182.056 244.897 182.273 244.731C183.925 246.558 185.728 248.241 187.664 249.764C187.526 249.988 187.393 250.216 187.27 250.454C184.928 255.065 186.482 260.571 190.742 262.717C195.002 264.863 200.349 262.894 202.687 258.284C202.809 258.045 202.914 257.8 203.015 257.561C205.381 258.224 207.798 258.686 210.241 258.945C210.241 259.201 210.216 259.458 210.22 259.718C210.321 264.776 214.342 268.552 219.198 268.118C224.054 267.685 227.913 263.223 227.812 258.15C227.812 257.883 227.783 257.626 227.757 257.366C230.208 256.667 232.601 255.779 234.915 254.71C235.027 254.938 235.142 255.162 235.276 255.379C237.805 259.556 243.203 260.585 247.358 257.673C251.513 254.761 252.843 249.002 250.324 244.836C250.198 244.623 250.057 244.424 249.912 244.225C251.773 242.358 253.497 240.359 255.068 238.242C255.274 238.372 255.484 238.499 255.704 238.611ZM202.629 239.283C187.172 231.435 181.529 211.502 190.041 194.781C198.553 178.06 217.948 170.819 233.397 178.667C248.847 186.515 254.497 206.448 246 223.187C237.502 239.926 218.089 247.13 202.629 239.283Z" fill="url(#paint0_linear_1082_9466)"/>
<path d="M266.033 213.892C270.889 213.459 274.744 208.997 274.643 203.924C274.541 198.851 270.524 195.086 265.664 195.52C265.411 195.542 265.162 195.585 264.913 195.628C264.41 193.129 263.715 190.672 262.835 188.28C263.056 188.149 263.28 188.016 263.496 187.86C267.651 184.952 272.793 177.917 269.863 174.019C264.299 166.623 258.539 169.824 254.381 172.736C254.168 172.884 253.969 173.047 253.77 173.21C252.119 171.384 250.317 169.702 248.383 168.18C248.517 167.953 248.654 167.725 248.773 167.486C249.378 166.319 249.739 165.041 249.832 163.729C249.926 162.418 249.751 161.101 249.319 159.859C245.306 166.926 241.352 174.025 237.457 181.155C249.789 190.187 253.716 207.999 246.006 223.181C239.473 236.047 226.495 243.27 213.81 242.367C213.243 243.833 212.69 245.308 212.083 246.76C210.439 250.702 208.575 254.564 206.703 258.419C207.881 258.64 209.059 258.813 210.244 258.94C210.244 259.196 210.219 259.453 210.222 259.713C210.323 264.771 213.405 269.107 222.207 268.63C227.077 268.37 227.915 263.21 227.814 258.152C227.814 257.885 227.785 257.628 227.76 257.368C230.211 256.668 232.603 255.781 234.917 254.712C235.029 254.94 235.145 255.164 235.279 255.381C237.808 259.561 246.526 261.335 250.681 258.423C254.836 255.511 252.849 249.029 250.32 244.838C250.193 244.628 250.055 244.424 249.908 244.227C251.769 242.36 253.492 240.361 255.064 238.244C255.27 238.374 255.479 238.501 255.699 238.605C259.956 240.773 265.307 238.782 267.648 234.172C269.989 229.562 268.432 224.056 264.176 221.91C263.955 221.798 263.731 221.704 263.504 221.613C264.292 219.097 264.896 216.526 265.31 213.921C265.552 213.925 265.783 213.925 266.033 213.892Z" fill="url(#paint1_linear_1082_9466)"/>
<path d="M260.282 239.134C264.542 241.301 269.889 239.311 272.231 234.7C274.572 230.09 273.018 224.584 268.758 222.438C268.538 222.326 268.314 222.232 268.09 222.142C268.871 219.624 269.468 217.053 269.875 214.449C270.121 214.449 270.366 214.449 270.597 214.42C275.457 213.987 279.312 209.525 279.211 204.452C279.11 199.379 275.103 195.615 270.251 196.048C269.998 196.073 269.748 196.113 269.503 196.157C268.999 193.657 268.303 191.2 267.422 188.808C267.646 188.678 267.866 188.544 268.083 188.392C272.241 185.48 273.567 179.721 271.053 175.555C268.538 171.389 263.126 170.352 258.971 173.264C258.758 173.413 258.555 173.575 258.36 173.738C256.707 171.913 254.904 170.231 252.97 168.708C253.107 168.484 253.24 168.257 253.363 168.018C255.701 163.408 254.147 157.902 249.891 155.756C245.635 153.61 240.284 155.579 237.943 160.189C237.824 160.427 237.719 160.669 237.618 160.911C235.252 160.25 232.835 159.789 230.392 159.531C230.392 159.275 230.417 159.018 230.413 158.758C230.309 153.7 226.291 149.921 221.431 150.354C216.572 150.788 212.72 155.253 212.821 160.326C212.821 160.59 212.85 160.85 212.876 161.107C210.424 161.806 208.03 162.694 205.715 163.762C205.606 163.538 205.491 163.314 205.353 163.094C202.824 158.917 197.426 157.891 193.271 160.803C189.116 163.715 187.787 169.474 190.301 173.637C190.431 173.853 190.572 174.052 190.717 174.251C188.852 176.114 187.129 178.114 185.561 180.234C185.352 180.104 185.146 179.977 184.925 179.873C180.665 177.705 175.318 179.696 172.977 184.306C170.636 188.916 172.189 194.404 176.449 196.568C176.669 196.68 176.893 196.774 177.121 196.865C176.33 199.381 175.727 201.952 175.315 204.557C175.069 204.557 174.823 204.557 174.592 204.582C169.732 205.016 165.877 209.481 165.979 214.554C166.08 219.627 170.101 223.388 174.961 222.954C175.213 222.933 175.463 222.893 175.708 222.85C176.209 225.346 176.901 227.801 177.779 230.191C177.555 230.325 177.334 230.459 177.117 230.61C172.959 233.523 171.633 239.282 174.148 243.444C176.662 247.606 182.075 248.65 186.23 245.738C186.443 245.587 186.645 245.428 186.84 245.265C188.494 247.089 190.297 248.771 192.231 250.294C192.094 250.518 191.96 250.746 191.841 250.984C189.499 255.595 191.053 261.101 195.309 263.247C199.565 265.393 204.916 263.424 207.257 258.814C207.377 258.575 207.481 258.333 207.583 258.091C209.954 258.75 212.378 259.207 214.827 259.457C214.809 259.713 214.798 259.97 214.801 260.23C214.906 265.288 218.924 269.064 223.783 268.63C228.643 268.197 232.494 263.735 232.393 258.662C232.393 258.398 232.364 258.138 232.339 257.882C234.791 257.181 237.185 256.292 239.5 255.222C239.609 255.45 239.724 255.674 239.861 255.891C242.391 260.071 247.788 261.097 251.943 258.185C256.098 255.273 257.428 249.514 254.913 245.348C254.783 245.135 254.642 244.936 254.498 244.737C256.362 242.872 258.086 240.872 259.657 238.754C259.856 238.895 260.062 239.022 260.282 239.134ZM207.21 239.806C191.75 231.958 186.11 212.025 194.608 195.289C203.106 178.554 222.526 171.342 237.983 179.193C253.439 187.045 259.086 206.97 250.585 223.71C242.083 240.449 222.667 247.653 207.21 239.806Z" fill="url(#paint2_linear_1082_9466)"/>
<path d="M194.036 427.9C200.929 431.401 209.593 428.189 213.387 420.721C217.181 413.253 214.659 404.361 207.765 400.849C207.404 400.668 207.043 400.513 206.681 400.368C207.947 396.291 208.913 392.126 209.572 387.907C209.966 387.907 210.363 387.907 210.768 387.864C218.633 387.141 224.88 379.915 224.714 371.713C224.548 363.512 218.037 357.402 210.172 358.103C209.76 358.139 209.355 358.204 208.954 358.277C208.138 354.229 207.011 350.25 205.583 346.375C205.944 346.162 206.306 345.945 206.667 345.7C213.398 340.981 215.548 331.674 211.472 324.907C207.397 318.139 198.635 316.481 191.9 321.196C191.539 321.438 191.232 321.698 190.91 321.962C188.235 319.006 185.315 316.281 182.181 313.815C182.405 313.453 182.622 313.092 182.817 312.695C186.607 305.23 191.564 297.072 184.624 293.679C168.546 285.828 161.645 292.548 157.855 300.016C157.656 300.403 157.493 300.797 157.327 301.191C153.487 300.116 149.562 299.367 145.596 298.951C145.621 298.535 145.639 298.12 145.632 297.697C145.466 289.481 147.905 285.033 140.006 284.878C122.783 284.545 116.973 292.021 117.136 300.237C117.136 300.667 117.183 301.086 117.223 301.505C113.252 302.638 109.376 304.076 105.628 305.808C105.448 305.447 105.267 305.086 105.05 304.724C100.975 297.961 92.2132 296.299 85.4785 301.014C78.7438 305.729 76.5941 315.039 80.6732 321.807C80.8827 322.168 81.1104 322.475 81.3416 322.797C78.3226 325.821 75.5283 329.063 72.981 332.494C72.6486 332.284 72.3126 332.082 71.9549 331.898C65.0577 328.397 56.3936 331.612 52.5999 339.081C48.8062 346.549 51.3281 355.44 58.2254 358.952C58.5867 359.133 58.948 359.285 59.3093 359.433C58.0433 363.511 57.0772 367.675 56.4189 371.894C56.0251 371.894 55.6276 371.894 55.2266 371.938C47.3574 372.638 41.1105 379.886 41.2767 388.088C41.4429 396.289 47.9536 402.399 55.8228 401.698C56.2346 401.658 56.6357 401.597 57.0403 401.525C57.8546 405.573 58.9804 409.552 60.4077 413.426C60.0464 413.636 59.6851 413.856 59.3238 414.102C52.5927 418.799 50.4393 428.127 54.5148 434.891C58.5903 441.655 72.0886 444.802 78.8197 440.087C79.181 439.844 74.755 438.103 75.0766 437.836C77.7574 440.79 80.6822 443.513 83.8201 445.976C83.5997 446.337 83.383 446.698 83.1842 447.092C79.3942 454.56 81.9125 463.452 88.8061 466.964C95.6998 470.476 104.367 467.253 108.158 459.785C108.356 459.398 108.519 459.004 108.689 458.611C112.528 459.685 116.451 460.435 120.417 460.851C120.395 461.266 120.373 461.682 120.384 462.101C120.547 470.32 127.061 476.412 134.926 475.711C142.792 475.01 149.039 467.762 148.876 459.561C148.876 459.134 148.833 458.712 148.79 458.296C152.759 457.162 156.636 455.724 160.384 453.993C160.565 454.354 160.745 454.716 160.962 455.077C165.041 461.844 173.803 463.506 180.534 458.788C187.265 454.069 189.418 444.765 185.339 437.998C185.133 437.637 184.902 437.326 184.671 437.008C187.688 433.986 190.48 430.748 193.024 427.318C193.338 427.513 193.678 427.719 194.036 427.9ZM108.064 428.984C83.0253 416.269 73.8843 383.987 87.6499 356.875C101.416 329.763 132.874 318.089 157.913 330.8C182.951 343.51 192.092 375.8 178.326 402.912C164.561 430.024 133.102 441.705 108.064 428.991V428.984Z" fill="url(#paint3_linear_1082_9466)"/>
<path d="M210.768 387.874C218.633 387.151 224.88 379.925 224.714 371.723C224.548 363.522 218.037 357.412 210.172 358.113C209.76 358.149 209.355 358.214 208.954 358.287C208.138 354.239 207.011 350.26 205.583 346.385C205.944 346.172 206.306 345.955 206.667 345.71C213.398 340.991 221.726 329.595 216.975 323.284C207.96 311.306 198.635 316.491 191.9 321.206C191.539 321.448 191.232 321.708 190.91 321.972C188.235 319.016 185.315 316.291 182.181 313.825C182.405 313.463 182.622 313.102 182.817 312.705C183.797 310.814 184.38 308.743 184.532 306.619C184.683 304.495 184.4 302.362 183.699 300.352C177.195 311.793 170.791 323.29 164.485 334.842C184.461 349.478 190.82 378.324 178.334 402.918C167.751 423.758 146.719 435.461 126.183 433.99C125.265 436.364 124.376 438.756 123.387 441.108C120.724 447.492 117.7 453.754 114.672 459.993C116.575 460.352 118.486 460.633 120.406 460.835C120.384 461.251 120.362 461.666 120.373 462.085C120.536 470.305 125.525 477.285 139.786 476.538C147.673 476.118 149.028 467.772 148.866 459.556C148.866 459.13 148.822 458.707 148.779 458.292C152.749 457.158 156.625 455.719 160.373 453.989C160.554 454.35 160.734 454.711 160.951 455.073C165.03 461.84 179.172 464.712 185.903 459.997C192.634 455.282 189.407 444.761 185.328 437.994C185.122 437.632 184.891 437.322 184.66 437.004C187.677 433.982 190.469 430.743 193.013 427.314C193.346 427.523 193.685 427.725 194.043 427.906C200.937 431.407 209.601 428.195 213.394 420.727C217.188 413.259 214.666 404.367 207.772 400.855C207.411 400.671 207.05 400.519 206.689 400.375C207.954 396.297 208.92 392.132 209.579 387.913C209.966 387.913 210.363 387.91 210.768 387.874Z" fill="url(#paint4_linear_1082_9466)"/>
<path d="M201.446 428.746C208.339 432.247 217.003 429.032 220.797 421.563C224.591 414.095 222.069 405.204 215.175 401.692C214.814 401.511 214.452 401.359 214.091 401.211C215.357 397.133 216.323 392.969 216.982 388.75C217.375 388.75 217.773 388.75 218.178 388.706C226.043 388.006 232.29 380.758 232.124 372.556C231.958 364.355 225.447 358.245 217.581 358.946C217.169 358.986 216.765 359.051 216.364 359.119C215.548 355.071 214.421 351.092 212.993 347.218C213.354 347.008 213.715 346.788 214.077 346.542C220.808 341.845 222.958 332.517 218.882 325.753C214.807 318.989 206.045 317.324 199.31 322.039C198.967 322.281 198.642 322.545 198.32 322.808C195.645 319.852 192.725 317.127 189.591 314.661C189.815 314.3 190.032 313.938 190.227 313.541C194.017 306.073 191.503 297.181 184.605 293.669C177.708 290.157 169.044 293.384 165.254 300.848C165.055 301.235 164.893 301.629 164.723 302.023C160.883 300.948 156.96 300.198 152.995 299.782C153.02 299.367 153.038 298.952 153.031 298.532C152.865 290.313 146.354 284.221 138.485 284.922C130.616 285.623 124.372 292.871 124.535 301.072C124.535 301.499 124.582 301.921 124.622 302.337C120.653 303.473 116.776 304.911 113.027 306.64C112.847 306.279 112.666 305.917 112.449 305.556C108.374 298.789 99.6086 297.127 92.8776 301.846C86.1465 306.564 83.9967 315.868 88.0722 322.635C88.2818 322.996 88.5094 323.307 88.7406 323.625C85.7225 326.647 82.9305 329.887 80.3873 333.319C80.0549 333.109 79.7189 332.903 79.3612 332.723C72.4639 329.222 63.7999 332.437 60.0062 339.902C56.2125 347.366 58.7344 356.261 65.6317 359.773C65.9842 359.953 66.346 360.113 66.7156 360.254C65.4499 364.332 64.4839 368.497 63.8252 372.715C63.4313 372.715 63.0339 372.715 62.6329 372.759C54.7637 373.463 48.5167 380.707 48.6829 388.909C48.8491 397.11 55.349 403.231 63.2182 402.53C63.63 402.494 64.0311 402.429 64.4321 402.357C65.2493 406.404 66.3763 410.383 67.8031 414.258C67.4418 414.471 67.0805 414.688 66.7192 414.937C59.9881 419.652 57.8347 428.959 61.9102 435.726C65.9857 442.494 74.751 444.152 81.482 439.437C81.8253 439.195 82.1505 438.935 82.472 438.671C85.1487 441.626 88.0687 444.352 91.2011 446.818C90.9807 447.18 90.7639 447.541 90.5652 447.939C86.7751 455.407 89.2934 464.298 96.1871 467.81C103.081 471.322 111.748 468.096 115.538 460.628C115.737 460.241 115.9 459.847 116.07 459.457C119.909 460.531 123.832 461.279 127.798 461.693C127.776 462.109 127.754 462.524 127.765 462.947C127.928 471.163 134.442 477.258 142.307 476.557C150.173 475.856 156.42 468.609 156.257 460.407C156.257 459.977 156.21 459.558 156.171 459.139C160.141 458.006 164.017 456.568 167.765 454.836C167.946 455.197 168.126 455.558 168.343 455.92C172.422 462.687 181.184 464.349 187.915 459.634C194.646 454.919 196.799 445.608 192.72 438.841C192.514 438.48 192.283 438.173 192.052 437.851C195.069 434.829 197.861 431.59 200.405 428.161C200.748 428.359 201.088 428.562 201.446 428.746ZM115.455 429.83C90.4352 417.123 81.2833 384.826 95.0598 357.728C108.836 330.631 140.284 318.942 165.322 331.657C190.361 344.371 199.502 376.653 185.736 403.766C171.97 430.878 140.512 442.548 115.473 429.837L115.455 429.83Z" fill="url(#paint5_linear_1082_9466)"/>
<path d="M839.608 853.833L343.159 819.549C342.558 819.494 341.953 819.494 341.352 819.549L45.6978 832.942C38.6235 833.586 38.9451 852.092 46.9732 853.114L511.523 915.32C513.425 915.554 515.349 915.548 517.249 915.302L838.683 870.139C842.982 869.384 844.55 854.194 839.608 853.833Z" fill="url(#paint6_linear_1082_9466)"/>
<path d="M838.635 853.287L343.165 806.535C342.565 806.478 341.96 806.478 341.359 806.535L47.1389 832.364C41.7374 832.841 41.6001 840.674 46.9799 841.354L511.54 898.671C513.441 898.911 515.365 898.911 517.267 898.671L838.7 857.121C840.976 856.821 840.919 853.504 838.635 853.287Z" fill="url(#paint7_linear_1082_9466)"/>
<path d="M506.63 893.076C507.32 893.075 508.009 893.031 508.693 892.943L796.789 855.71C797.003 855.68 797.199 855.572 797.339 855.407C797.479 855.242 797.555 855.032 797.551 854.816C797.547 854.6 797.465 854.392 797.32 854.232C797.174 854.072 796.975 853.971 796.76 853.947L354.355 812.285C354.256 812.28 354.157 812.28 354.059 812.285H353.784L72.5493 836.973C72.2618 836.968 71.984 837.077 71.777 837.277C71.57 837.476 71.4508 837.75 71.4455 838.037C71.4402 838.325 71.5494 838.602 71.7489 838.809C71.9485 839.016 72.2221 839.136 72.5095 839.141L504.661 892.95C505.314 893.032 505.972 893.074 506.63 893.076Z" fill="url(#paint8_linear_1082_9466)"/>
<path d="M670.527 875.159C670.628 876.019 673.338 876.398 676.578 876.004C679.819 875.611 682.359 874.595 682.251 873.735C682.142 872.876 679.436 872.496 676.199 872.89C672.962 873.284 670.422 874.303 670.527 875.159Z" fill="url(#paint9_linear_1082_9466)"/>
<path d="M436.253 901.684L480.845 907.54C484.097 907.97 486.77 906.377 486.77 903.982C486.77 901.582 484.104 899.328 480.845 898.949L436.253 893.739C433.496 893.417 431.281 894.92 431.281 897.095C431.281 899.267 433.496 901.322 436.253 901.684Z" fill="url(#paint10_linear_1082_9466)"/>
<path d="M387.54 895.293L424.263 900.117C426.926 900.478 429.101 898.997 429.101 896.832C429.101 894.665 426.933 892.656 424.263 892.345L387.54 888.056C385.253 887.789 383.414 889.18 383.414 891.164C383.414 893.143 385.253 894.99 387.54 895.293Z" fill="url(#paint11_linear_1082_9466)"/>
<path d="M325.993 887.198L353.929 890.869C355.938 891.129 357.575 889.825 357.575 887.946C357.575 886.067 355.938 884.355 353.929 884.12L325.993 880.868C325.596 880.807 325.191 880.833 324.805 880.945C324.42 881.057 324.063 881.252 323.761 881.517C323.459 881.781 323.218 882.109 323.055 882.476C322.893 882.843 322.813 883.241 322.821 883.643C322.849 884.513 323.182 885.346 323.762 885.996C324.342 886.646 325.131 887.071 325.993 887.198Z" fill="url(#paint12_linear_1082_9466)"/>
<g style="mix-blend-mode:soft-light" opacity="0.6">
<path d="M274.278 835.375C317.454 843.063 346.127 858.715 408.083 859.965C461.751 861.049 462.152 848.685 524.528 844.79C606.247 839.671 627.55 859.521 711.13 857.797C739.341 857.198 767.458 854.319 795.205 849.187L838.634 853.285C840.917 853.501 840.975 856.818 838.699 857.111L517.265 898.661C515.364 898.901 513.44 898.901 511.539 898.661L118.336 850.156C185.806 827.657 237.465 828.828 274.278 835.375Z" fill="white"/>
</g>
<path d="M376.616 857.81C361.825 857.81 347.907 857.001 337.426 855.523C321.774 853.322 319.664 850.569 319.664 848.167C319.664 845.764 321.774 843.011 337.426 840.811C347.904 839.333 361.825 838.523 376.616 838.523C391.408 838.523 405.325 839.333 415.807 840.811C431.459 843.011 433.569 845.764 433.569 848.167C433.569 850.569 431.459 853.322 415.807 855.523C405.325 857.001 391.404 857.81 376.616 857.81ZM323.7 848.167C326.789 850.663 346.357 854.009 376.616 854.009C406.875 854.009 426.444 850.663 429.533 848.167C426.444 845.67 406.875 842.324 376.616 842.324C346.357 842.324 326.789 845.67 323.7 848.167Z" fill="white"/>
<g style="mix-blend-mode:soft-light" opacity="0.6">
<path d="M376.61 851.694C390.43 851.694 401.634 850.119 401.634 848.175C401.634 846.232 390.43 844.656 376.61 844.656C362.79 844.656 351.586 846.232 351.586 848.175C351.586 850.119 362.79 851.694 376.61 851.694Z" fill="white"/>
</g>
<path opacity="0.56" d="M729.889 456.82L433.815 825.375L431.113 828.735L427.521 833.212L421.224 841.048L416.653 846.732C416.653 850.525 399.824 853.596 378.677 853.795C377.994 853.795 377.311 853.795 376.617 853.795C354.498 853.795 336.581 850.63 336.581 846.721L332.394 840.94L324.004 829.357L321.143 825.404L317.552 820.447L299.934 796.106L269.585 754.195L235.391 706.969L231.98 702.247L194.188 650.064L170.169 616.896L63.8516 470.059C88.4563 455.708 145.867 424.636 229.592 403.257C242.028 400.078 255.039 397.115 268.613 394.456C271.744 393.834 274.915 393.232 278.126 392.649C280.535 392.211 282.953 391.786 285.381 391.374C287.296 391.038 289.236 390.72 291.162 390.398H291.187C322.133 385.362 353.373 382.334 384.711 381.333C388.721 381.196 392.766 381.096 396.847 381.033C453.493 380.077 510.056 385.734 565.391 397.888C567.021 398.25 568.643 398.611 570.225 398.972C570.691 399.081 571.161 399.182 571.616 399.29C576.752 400.468 581.786 401.683 586.719 402.936C600.21 406.343 612.931 409.981 624.851 413.717C675.166 429.463 711.181 447.033 729.889 456.82Z" fill="white"/>
<path d="M872.569 365.033C920.144 317.458 920.144 240.323 872.569 192.748C824.994 145.173 747.859 145.173 700.283 192.748C652.708 240.323 652.708 317.458 700.283 365.033C747.859 412.609 824.994 412.609 872.569 365.033Z" fill="white"/>
<path d="M862.947 355.412C905.209 313.15 905.209 244.631 862.947 202.369C820.685 160.108 752.166 160.108 709.904 202.369C667.643 244.631 667.643 313.15 709.904 355.412C752.166 397.674 820.685 397.674 862.947 355.412Z" fill="url(#paint13_linear_1082_9466)"/>
<path d="M796.837 334.608C800.381 328.875 798.606 321.354 792.872 317.81C787.138 314.266 779.617 316.041 776.073 321.775C772.529 327.508 774.304 335.029 780.038 338.573C785.772 342.117 793.293 340.342 796.837 334.608Z" fill="white"/>
<path d="M786.431 225.852C761.931 225.816 738.238 234.61 719.695 250.623C718.821 251.365 718.11 252.281 717.607 253.311C717.104 254.342 716.82 255.465 716.773 256.611C716.725 257.756 716.915 258.9 717.331 259.968C717.747 261.037 718.379 262.008 719.189 262.82L719.532 263.182C721 264.659 722.972 265.527 725.054 265.612C727.135 265.696 729.171 264.991 730.754 263.637C746.225 250.273 765.986 242.92 786.429 242.92C806.872 242.92 826.633 250.273 842.104 263.637C843.688 264.991 845.724 265.696 847.806 265.612C849.888 265.527 851.861 264.659 853.33 263.182L853.691 262.82C854.5 262.008 855.133 261.037 855.549 259.968C855.964 258.9 856.155 257.756 856.107 256.611C856.06 255.465 855.775 254.342 855.273 253.311C854.77 252.281 854.059 251.365 853.185 250.623C834.637 234.606 810.937 225.812 786.431 225.852Z" fill="white"/>
<path d="M786.427 254.266C769.499 254.241 753.081 260.058 739.945 270.734C739.051 271.468 738.321 272.382 737.802 273.415C737.283 274.449 736.986 275.581 736.931 276.736C736.876 277.892 737.064 279.046 737.483 280.124C737.902 281.203 738.543 282.181 739.363 282.997L739.421 283.058C740.891 284.508 742.845 285.362 744.908 285.456C746.97 285.549 748.994 284.875 750.589 283.564C760.744 275.392 773.388 270.936 786.423 270.936C799.458 270.936 812.102 275.392 822.257 283.564C823.852 284.875 825.876 285.549 827.938 285.456C830.001 285.362 831.955 284.508 833.425 283.058L833.483 282.997C834.303 282.181 834.944 281.203 835.363 280.124C835.782 279.046 835.97 277.892 835.915 276.736C835.86 275.581 835.563 274.449 835.044 273.415C834.525 272.382 833.795 271.468 832.901 270.734C819.767 260.059 803.352 254.243 786.427 254.266Z" fill="white"/>
<path d="M759.696 303.324C762.695 306.323 767.349 306.663 770.897 304.343C775.514 301.333 780.907 299.73 786.418 299.73C791.93 299.73 797.323 301.333 801.94 304.343C805.495 306.663 810.149 306.323 813.14 303.324L813.18 303.285C814.041 302.42 814.701 301.377 815.114 300.229C815.527 299.081 815.681 297.856 815.567 296.641C815.453 295.427 815.073 294.252 814.454 293.201C813.834 292.15 812.991 291.248 811.984 290.559C804.444 285.425 795.533 282.68 786.411 282.68C777.289 282.68 768.378 285.425 760.838 290.559C759.831 291.248 758.988 292.15 758.369 293.201C757.75 294.252 757.369 295.427 757.255 296.641C757.141 297.856 757.296 299.081 757.708 300.229C758.121 301.377 758.781 302.42 759.642 303.285L759.696 303.324Z" fill="white"/>
<path d="M524.61 680.328H235.672V705.663H236.033C236.033 705.663 236.033 705.952 236.033 705.974C236.033 714.399 300.804 721.358 380.703 721.358C460.601 721.358 525.368 714.338 525.368 705.908C525.368 705.89 525.368 705.663 525.368 705.663H524.61V680.328Z" fill="#D8DEE8"/>
<path d="M380.693 698.118C460.592 698.118 525.362 690.255 525.362 680.555C525.362 670.855 460.592 662.992 380.693 662.992C300.794 662.992 236.023 670.855 236.023 680.555C236.023 690.255 300.794 698.118 380.693 698.118Z" fill="white"/>
<path d="M424.468 278.843C419.818 291.441 416.548 305.608 418.004 314.655C418.484 317.182 419.245 319.647 420.273 322.004C427.344 338.985 445.796 361.213 425.949 372.554C403.064 385.629 324.611 381.879 310.965 372.554C312.728 364.154 316.68 349.174 323.686 335.643C325.728 331.669 328.148 327.163 330.479 322.362C336.093 310.753 341.202 297.345 339.555 285.147C339.087 281.967 337.942 278.925 336.194 276.227C336.108 276.075 336.007 275.923 335.905 275.772C328.441 264.21 312.576 255.99 311.066 240.642C309.205 221.493 332.56 216.124 345.166 210.979C349.563 209.191 351.579 204.96 352.312 200.194C352.934 196.343 352.731 192.386 352.29 188.878C351.978 186.241 351.469 183.632 350.769 181.07H392.789C393.981 191.208 399.339 197.723 406.107 202.474C418.474 211.181 435.567 212.663 440.459 212.916C440.853 212.941 441.182 212.955 441.399 212.955C441.615 212.955 441.829 212.955 441.829 212.955C441.855 213 441.877 213.047 441.894 213.096C445.124 219.863 446.443 245.664 438.093 253.562C436.648 254.928 435.011 257.11 433.327 259.896C430.346 264.791 427.181 271.544 424.468 278.843Z" fill="#D8DEE8"/>
<path d="M312.83 364.726C312.83 364.726 279.789 389.847 303.136 458.957C306.872 514.996 295.415 541.056 312.83 577.57C339.567 633.608 319.623 681.083 319.623 681.083C319.623 681.083 468.48 693.328 460.35 672.209C440.634 621.074 458.182 565.43 465.643 537.411C473.104 509.392 431.088 468.297 435.756 444.95C440.424 421.602 453.565 388.037 434.853 358.121C416.141 328.205 350.543 372.292 312.83 364.726Z" fill="#D8DEE8"/>
<path style="mix-blend-mode:multiply" opacity="0.2" d="M418.022 314.654C418.496 317.179 419.256 319.642 420.287 321.995C401.188 316.98 357.94 308.157 330.492 322.335C336.103 310.741 341.216 297.326 339.568 285.121C339.098 281.943 337.954 278.902 336.212 276.204C337.592 277.439 343.156 280.312 343.459 280.445C350.826 283.838 358.692 284.189 366.456 281.945C369.385 281.071 372.251 280.003 375.037 278.747C376.844 277.949 378.589 277.013 380.32 276.095C381.935 275.232 383.727 274.083 385.642 274.31C389.894 274.834 393.785 278.176 397.723 279.73C400.557 280.86 403.527 281.613 406.557 281.97C412.06 282.588 418.397 282.284 423.34 279.546C423.732 279.331 424.113 279.097 424.482 278.845C419.828 291.436 416.544 305.599 418.022 314.654Z" fill="url(#paint14_linear_1082_9466)"/>
<path style="mix-blend-mode:multiply" opacity="0.2" d="M406.097 202.458C402.846 208.069 398.633 213.572 393.52 217.048C382.721 224.404 360.414 207.076 352.307 200.24C352.924 196.388 352.718 192.407 352.281 188.891C354.294 185.885 357.141 183.591 360.194 181.055H392.78C393.979 191.193 399.334 197.707 406.097 202.458Z" fill="url(#paint15_linear_1082_9466)"/>
<path d="M410.682 149.859C410.346 152.618 409.67 155.324 408.67 157.916C400.573 179.089 396.223 201.493 383.147 203.99C371.947 206.121 354.803 194.997 341.109 179.634C338.819 177.062 336.626 174.374 334.577 171.61C320.255 152.305 310.923 141.726 317.769 129.901C317.769 129.901 353.9 96.903 378.168 106.232C399.352 114.386 412.965 131.548 410.682 149.859Z" fill="#D8DEE8"/>
<path style="mix-blend-mode:multiply" opacity="0.2" d="M410.682 149.859C410.075 149.324 386.796 128.965 379.198 136.939C371.513 145.021 354.962 157.533 347.689 158.754C341.073 159.856 350.829 175.317 341.109 179.634C338.819 177.062 336.626 174.374 334.577 171.61C320.255 152.305 310.923 141.726 317.769 129.901C317.769 129.901 353.9 96.903 378.168 106.232C399.352 114.386 412.965 131.548 410.682 149.859Z" fill="url(#paint16_linear_1082_9466)"/>
<path d="M395.651 122.395C392.288 120 387.114 117.879 383.006 118.901C376.553 120.502 372.889 128.089 368.098 132.114C364.847 134.842 361.212 137.23 357.115 138.444C353.018 139.658 348.216 138.831 344.52 141.284C341.792 143.09 339.552 145.464 337.521 148.019C336.437 149.359 335.469 150.754 334.53 152.188C334.168 152.759 331.744 155.982 332.044 156.632C326.895 145.432 332.651 132.999 346.89 130.275C355.117 128.696 362.751 124.895 369.327 119.761C370.808 118.642 372.168 117.37 373.384 115.967C374.468 114.659 375.274 113.034 376.683 111.993C378.822 110.436 382.128 111.798 384.31 112.633C386.973 113.68 389.414 115.222 391.504 117.178C392.334 117.935 393.102 118.759 393.798 119.642C394.354 120.382 394.929 121.882 395.651 122.395Z" fill="#D8DEE8"/>
<path d="M368.033 110.742C365.41 113.727 362.025 116.162 358.82 118.478C354.398 121.682 349.983 123.406 344.534 123.8C342.601 123.941 340.683 123.868 338.753 124.186C336.125 124.648 333.588 125.527 331.238 126.791C330.729 127.055 329.363 127.543 329.07 128.038C331.379 124.089 334.494 120.67 338.211 118.004C339.269 117.264 340.383 116.607 341.542 116.039C347.439 113.148 354.007 113.224 360.381 112.408C361.927 112.224 363.462 111.952 364.977 111.591C366.01 111.338 367.097 111.262 368.033 110.742Z" fill="#D8DEE8"/>
<path style="mix-blend-mode:multiply" opacity="0.2" d="M363.203 164.21C363.203 164.21 369.096 157.948 373.54 158.956C377.984 159.964 384.039 155.524 385.253 164.21C386.467 172.895 395.756 179.511 391.312 179.637C386.868 179.764 382.222 176.328 381.416 171.689C380.611 167.049 361.552 170.471 363.203 164.21Z" fill="url(#paint17_linear_1082_9466)"/>
<path style="mix-blend-mode:multiply" opacity="0.2" d="M393.538 163.456C393.538 163.456 393.99 160.276 398.687 160.565C403.384 160.854 408.38 162.838 402.625 164.504C396.869 166.169 391.417 168.001 393.538 163.456Z" fill="url(#paint18_linear_1082_9466)"/>
<g style="mix-blend-mode:multiply" opacity="0.2">
<path d="M434.851 358.125C434.851 358.125 326.045 404.274 312.828 364.73C312.828 364.73 333.849 379.25 364.448 369.427C395.046 359.603 434.851 358.125 434.851 358.125Z" fill="url(#paint19_linear_1082_9466)"/>
<path d="M452.913 531.152C452.913 531.152 420.8 554.998 411.106 576.828C401.412 598.658 365.058 619.848 357.785 619.241C350.512 618.634 348.091 648.933 377.48 641.053C406.868 633.173 423.463 617.424 434.855 595.005C446.247 572.586 481.998 525.465 452.913 531.152Z" fill="url(#paint20_linear_1082_9466)"/>
<path d="M313.247 418.914C315.011 419.698 316.524 420.5 317.424 420.952C322.762 423.717 328.33 426.014 334.066 427.816C350.155 432.799 366.681 436.574 383.636 436.401C392.828 436.307 402.558 434.595 410.947 430.678C448.288 413.242 404.256 454.846 386.079 455.247C367.902 455.648 320.239 456.862 314.584 449.997C308.93 443.132 306.505 434.1 319.028 437.713C326.616 439.88 334.467 441.008 342.246 442.222C347.665 443.067 355.794 445.965 360.907 442.995C357.565 440.907 353.32 440.466 349.493 439.913C341.733 438.76 334.077 437.702 326.417 435.939C320.528 434.576 312.489 434.255 307.268 431.021C304.33 429.215 298.889 422.05 301.664 418.376C303.828 415.442 309.183 417.122 313.247 418.914Z" fill="url(#paint21_linear_1082_9466)"/>
<path d="M314.971 505.334C314.971 505.334 389.465 498.874 408.549 481.907C427.633 464.94 435.864 474.233 425.498 487.157C415.132 500.08 368.275 524.732 351.311 536.034C334.348 547.335 286.606 548.556 330.471 527.955C374.337 507.353 392.106 498.469 392.106 498.469C392.106 498.469 308.916 522.301 314.971 505.334Z" fill="url(#paint22_linear_1082_9466)"/>
<path d="M410.699 530.688C410.699 530.688 317.388 597.435 345.664 586.531C373.94 575.626 408.679 553.197 410.699 530.688Z" fill="url(#paint23_linear_1082_9466)"/>
</g>
<path style="mix-blend-mode:multiply" opacity="0.2" d="M438.092 253.55C436.647 254.916 435.01 257.098 433.327 259.884C424.634 254.945 440.459 212.896 440.459 212.896C440.772 212.858 441.089 212.871 441.398 212.936C441.57 212.959 441.737 213.011 441.893 213.088C445.12 219.855 446.442 245.656 438.092 253.55Z" fill="url(#paint24_linear_1082_9466)"/>
<path d="M508.397 726.675C491.7 726.69 474.624 726.131 457.168 724.999C334.13 716.982 235.721 682.603 234.724 682.253C232.087 681.317 230.884 678.875 232.043 676.797C233.203 674.72 236.274 673.795 238.908 674.727C239.887 675.088 336.857 709.069 458.219 717.101C565.407 724.197 711.222 711.757 819.082 616.182C819.924 615.482 820.985 615.103 822.08 615.109C823.174 615.116 824.231 615.508 825.065 616.218C826.738 617.663 826.781 620.026 825.159 621.471C777.105 664.155 717.758 694.411 648.142 711.128C605.429 721.386 558.643 726.621 508.397 726.675Z" fill="url(#paint25_linear_1082_9466)"/>
<path d="M312.964 920.141L134.289 926.283V935.677L136.71 935.594C136.677 935.594 136.627 935.76 136.627 935.861C136.627 940.941 177.125 943.524 226.291 941.678C274.652 939.871 313.297 934.163 313.297 929.235C313.297 929.137 313.416 928.696 313.387 928.696H312.964V920.141Z" fill="url(#paint26_linear_1082_9466)"/>
<path d="M313.318 920.273C313.318 925.201 274.691 930.585 226.327 932.319C177.161 934.086 136.695 931.419 136.695 926.343C136.695 921.267 177.161 915.818 226.327 914.203C274.691 912.613 313.318 915.341 313.318 920.273Z" fill="url(#paint27_linear_1082_9466)"/>
<path d="M235.669 920.701C235.669 924.351 231.135 926.923 225.191 927.129L223.58 927.172C217.629 927.382 214.117 925.073 214.117 921.392V677.049C214.117 673.382 217.618 670.38 223.572 670.43H225.018C230.954 670.481 235.654 673.545 235.654 677.198L235.669 920.701Z" fill="url(#paint28_linear_1082_9466)"/>
<path d="M258.543 675.836C258.543 678.188 243.758 679.995 225.422 679.869C206.967 679.742 191.922 677.701 191.922 675.327C191.922 672.953 206.967 671.143 225.422 671.298C243.758 671.45 258.543 673.481 258.543 675.836Z" fill="url(#paint29_linear_1082_9466)"/>
<path d="M236.793 628.345C227.758 620.801 218.694 620.659 209.602 627.918C214.152 642.831 214.152 657.68 209.602 672.467C218.692 679.953 227.756 680.027 236.793 672.687C232.282 657.85 232.282 643.069 236.793 628.345Z" fill="url(#paint30_linear_1082_9466)"/>
<path d="M258.543 629.344C258.543 631.696 243.758 633.387 225.422 633.112C206.967 632.838 191.922 630.688 191.922 628.307C191.922 625.926 206.967 624.243 225.422 624.542C243.758 624.839 258.543 626.988 258.543 629.344Z" fill="url(#paint31_linear_1082_9466)"/>
<path d="M260.71 598.784C260.71 616.108 244.961 629.91 225.422 629.61C205.749 629.307 189.703 614.844 189.703 597.306C189.703 579.768 205.749 565.974 225.422 566.491C244.957 567 260.71 581.456 260.71 598.784Z" fill="url(#paint32_linear_1082_9466)"/>
<path d="M880.672 816.492L756.484 818.443V825.669L757.846 825.64C757.825 825.64 757.659 825.767 757.659 825.846C757.659 829.745 785.522 832.382 819.543 831.757C853.144 831.136 880.036 827.566 880.036 823.754C880.036 823.682 880.195 823.552 880.173 823.552H880.672V816.492Z" fill="url(#paint33_linear_1082_9466)"/>
<path d="M880.017 816.582C880.017 820.398 853.096 823.946 819.502 824.531C785.482 825.109 757.578 822.425 757.578 818.523C757.578 814.621 785.482 811.055 819.502 810.574C853.096 810.079 880.017 812.785 880.017 816.582Z" fill="url(#paint34_linear_1082_9466)"/>
<path d="M824.916 815.733C824.916 818.551 822.539 820.957 818.413 821.022L818.279 821.04C814.157 821.109 812.234 818.786 812.234 815.961V627.685C812.234 624.864 814.297 622.204 818.423 622.291L818.713 622.309C822.831 622.396 824.909 625.145 824.909 627.964L824.916 815.733Z" fill="url(#paint35_linear_1082_9466)"/>
<path d="M841.873 627.085C841.873 628.892 831.605 630.174 818.883 629.925C806.097 629.672 795.688 627.981 795.688 626.149C795.688 624.318 806.097 623.049 818.883 623.317C831.605 623.581 841.873 625.268 841.873 627.085Z" fill="url(#paint36_linear_1082_9466)"/>
<path d="M826.763 590.272C820.501 584.397 814.218 584.227 807.914 589.762C811.066 600.986 811.066 612.862 807.914 624.086C814.21 629.929 820.493 630.06 826.763 624.476C823.629 613.29 823.629 601.458 826.763 590.272Z" fill="url(#paint37_linear_1082_9466)"/>
<path d="M841.873 591.204C841.873 593.011 831.605 594.225 818.883 593.889C806.097 593.549 795.688 591.79 795.688 589.958C795.688 588.126 806.097 586.927 818.883 587.281C831.605 587.631 841.873 589.391 841.873 591.204Z" fill="url(#paint38_linear_1082_9466)"/>
<path d="M843.372 567.64C843.372 581.008 832.432 591.562 818.876 591.197C805.248 590.835 794.148 579.588 794.148 566.09C794.148 552.591 805.248 542.049 818.876 542.54C832.436 543.017 843.372 554.271 843.372 567.64Z" fill="url(#paint39_linear_1082_9466)"/>
<path d="M847.779 1000.67C847.779 1000.67 857.849 1003.56 865.537 1006.77C873.226 1009.97 872.926 1005.05 871.763 999.182C870.599 993.318 859.991 996.728 859.991 996.728C859.991 996.728 842.938 995.233 847.779 1000.67Z" fill="url(#paint40_linear_1082_9466)"/>
<path d="M888.083 835.734C887.735 849.217 886.163 862.641 883.386 875.839C880.89 887.636 879.437 889.677 878.661 897.835C876.966 915.59 882.685 918.13 883.737 938.196C884.897 960.355 879.007 977.969 876.688 984.685C875.052 989.431 873.136 994.076 870.95 998.595C869.588 999.784 867.742 999.867 865.686 999.596C864.8 999.469 863.984 999.041 863.377 998.382C862.769 997.724 862.407 996.877 862.351 995.983C861.181 977.011 859.764 958.997 858.619 939.916L846.945 849.211L888.083 835.734Z" fill="url(#paint41_linear_1082_9466)"/>
<path style="mix-blend-mode:multiply" opacity="0.3" d="M862.309 995.792C861.139 976.885 859.729 958.939 858.588 939.902L846.914 849.197L888.077 835.734C888.048 836.771 887.994 837.776 887.954 838.795C868.711 855.505 864.947 868.743 865.135 877.772C865.362 888.723 871.349 894.153 870.193 910.033C869.355 921.385 865.94 923.401 865.944 933.629C865.944 946.821 871.609 954.224 874.366 961.862C877.029 969.232 877.979 979.667 872.83 994.509C872.155 996.041 871.515 997.4 870.944 998.592C869.622 999.744 867.841 999.86 865.854 999.614C864.91 999.49 864.039 999.04 863.392 998.342C862.745 997.644 862.362 996.742 862.309 995.792Z" fill="url(#paint42_linear_1082_9466)"/>
<path d="M819.372 1006.55C819.372 1006.55 829.445 1009.44 837.13 1012.64C844.815 1015.85 844.522 1010.92 843.355 1005.04C842.188 999.161 831.588 1002.59 831.588 1002.59C831.588 1002.59 814.534 1001.1 819.372 1006.55Z" fill="url(#paint43_linear_1082_9466)"/>
<path d="M859.654 841.602C859.307 855.085 857.735 868.508 854.957 881.706C852.46 893.506 851.004 895.544 850.227 903.702C848.533 921.457 854.256 924 855.307 944.067C856.467 966.226 850.574 983.836 848.258 990.552C846.622 995.299 844.705 999.944 842.517 1004.46C841.155 1005.65 839.309 1005.74 837.253 1005.46C836.366 1005.34 835.55 1004.91 834.943 1004.25C834.336 1003.59 833.975 1002.74 833.922 1001.85C832.747 982.875 831.335 964.864 830.189 945.783L818.516 855.096L859.654 841.602Z" fill="url(#paint44_linear_1082_9466)"/>
<path style="mix-blend-mode:multiply" opacity="0.3" d="M833.903 1001.66C832.732 982.757 831.323 964.793 830.182 945.774L818.508 855.087L859.653 841.617C859.624 842.658 859.574 843.659 859.53 844.681C840.291 861.391 836.522 874.629 836.71 883.658C836.938 894.609 842.928 900.036 841.769 915.916C840.93 927.268 837.52 929.284 837.52 939.516C837.52 952.707 843.185 960.11 845.942 967.748C848.608 975.115 849.555 985.55 844.406 1000.4C843.73 1001.93 843.091 1003.29 842.52 1004.47C841.198 1005.63 839.416 1005.74 837.429 1005.5C836.487 1005.37 835.618 1004.92 834.974 1004.22C834.33 1003.52 833.951 1002.61 833.903 1001.66Z" fill="url(#paint45_linear_1082_9466)"/>
<path d="M836.133 712.846C820 715.545 807.734 718.454 802.408 727.62C796.787 737.307 806.173 744.883 809.1 766.453C813.587 799.473 796.526 811.41 802.145 844.683C802.975 849.577 804.196 854.398 805.794 859.098C808.184 866.235 812.782 872.427 818.924 876.777C824.021 880.364 829.513 883.356 835.291 885.694C851.831 892.328 859.859 888.845 881.975 890.694C918.148 893.719 923.781 905.306 939.968 898.596C956.327 891.818 967.893 872.803 964.236 864.496C962.043 859.521 955.493 862.462 945.897 856.208C934.19 848.581 935.057 839.83 925.284 828.2C911.06 811.28 899.104 819.167 886.903 804.238C878.347 793.76 877.238 781.299 875.309 759.581C873.253 736.458 876.656 719.502 867.429 714.436C865.21 713.219 862.547 712.568 859.375 712.666C846.856 713.056 837.459 712.622 836.133 712.846Z" fill="url(#paint46_linear_1082_9466)"/>
<path d="M837.131 701.938L830.133 717.857C830.133 717.857 840.47 723.041 849.929 717.857V701.938H837.131Z" fill="url(#paint47_linear_1082_9466)"/>
<path style="mix-blend-mode:multiply" opacity="0.3" d="M937.83 886.07C932.772 882.316 935.268 872.026 927.753 866.376C920.776 861.133 915.541 867.687 905.352 864.071C892.269 859.431 892.685 845.745 880.144 841.11C871.112 837.775 868.546 843.978 855.63 843.975C842.713 843.971 825.717 837.786 814.723 822.589C810.51 816.704 807.501 810.044 805.871 802.992C802.659 815.118 799.14 826.838 802.157 844.687C803.218 850.941 804.913 857.071 807.215 862.983C808.928 867.458 811.828 871.382 815.604 874.332C821.616 879.007 828.243 882.83 835.299 885.695C851.84 892.332 859.868 888.849 881.983 890.699C918.157 893.723 923.79 905.31 939.976 898.604C950.428 894.268 958.905 884.943 962.738 876.604C948.654 887.675 941.511 888.795 937.83 886.07Z" fill="url(#paint48_linear_1082_9466)"/>
<path d="M835.692 670.383C835.692 670.383 827.356 686.034 826.829 697.018C826.301 708.002 838.698 707.2 838.698 707.2L854.089 706.658C854.089 706.658 859.632 672.421 835.692 670.383Z" fill="url(#paint49_linear_1082_9466)"/>
<path d="M839.797 697.906C837.199 706.718 841.394 715.249 844.989 722.565C851.98 736.786 870.215 754.435 888.461 752.412C908.831 750.154 911.191 725.376 929.989 724.509C945.76 723.786 949.019 740.995 969.57 745.276C995.609 750.696 1019.31 729.094 1022.13 726.456C1040.1 709.616 1051.76 680.535 1042.24 655.081C1041.27 652.483 1031.72 627.838 1013.7 625.233C998.478 623.033 992.831 638.804 968.927 640.806C953.311 642.114 950.565 635.812 939.73 639.509C922.496 645.387 924.411 663.048 910.529 666.762C896.142 670.613 889.776 652.79 863.163 650.539C859.488 650.228 838.038 648.415 832.018 659.622C829.594 664.135 829.294 671.451 832.318 676.766C835.443 682.262 840.498 682.757 841.752 688.173C842.612 691.93 840.823 694.423 839.797 697.906Z" fill="url(#paint50_linear_1082_9466)"/>
<path d="M732.064 737.976C756.712 755.925 763.089 751.275 771.309 747.594C777.928 744.631 782.708 738.178 802.222 725.475C805.727 723.191 808.679 721.377 810.706 720.156C819.29 733.795 830.491 736.736 839.079 750.376C839.079 750.376 765.304 815.179 727.562 747.124L732.064 737.976Z" fill="url(#paint51_linear_1082_9466)"/>
<path d="M731.72 739.954C731.72 739.954 731.973 734.766 728.945 731.337C725.917 727.909 717.043 732.692 716.238 735.644C715.432 738.596 728.945 745.591 728.945 745.591L731.72 739.954Z" fill="url(#paint52_linear_1082_9466)"/>
<path d="M722.347 720.722C722.347 720.722 740.965 615.182 674.478 571.695L645.375 628.705C645.375 628.705 678.131 634.277 691.322 668.611C704.513 702.946 712.241 724.931 712.241 724.931L722.347 720.722Z" fill="url(#paint53_linear_1082_9466)"/>
<path d="M454.425 463.478C454.425 463.478 449.728 439.057 445.071 431.784C440.413 424.511 431.673 419.836 431.673 419.836C431.673 419.836 429.867 422.824 435.648 429.125C441.429 435.426 436.613 436.044 435.648 438.071C434.683 440.098 436.764 447.371 440.919 449.969C445.074 452.566 446.635 466.729 446.635 466.729L454.425 463.478Z" fill="url(#paint54_linear_1082_9466)"/>
<path d="M440.914 460.363L455.98 457.766C473.955 491.089 495.001 512.51 509.356 524.943C526.297 539.637 537.238 549.125 555.212 553.883C581.768 560.91 604.711 552.658 607.688 560.116C609.133 563.761 604.075 567.703 595.996 577.39C572.432 605.571 574.679 620.746 561.709 624.93C551.007 628.388 540.233 620.955 521.965 607.912C505.345 596.054 484.505 581.176 466.895 552.843C443.27 514.823 440.903 477.417 440.914 460.363Z" fill="url(#paint55_linear_1082_9466)"/>
<path d="M676.749 996.288C677.183 993.896 684.911 991.728 688.738 994.933C690.634 996.526 691.946 999.749 690.844 1001.21C690.447 1001.74 692.083 1002.65 690.515 1002.69C685.309 1002.75 676.316 998.68 676.749 996.288Z" fill="url(#paint56_linear_1082_9466)"/>
<path d="M684.845 997.157L692.793 996.034C689.112 991.6 689.795 977.484 689.795 977.484L681.344 979.37C681.344 979.37 682.305 983.247 683.941 988.963C684.505 990.918 684.754 993.981 684.845 997.157Z" fill="url(#paint57_linear_1082_9466)"/>
<path d="M684.137 996.179C684.137 996.179 693.704 993.975 694.741 995.872C695.778 997.769 696.58 1002.85 690.51 1002.69C684.44 1002.52 683.598 997.787 684.137 996.179Z" fill="url(#paint58_linear_1082_9466)"/>
<path d="M567.712 1005.26C568.478 1002.95 576.434 1001.89 579.773 1005.6C581.431 1007.44 582.277 1010.82 580.983 1012.1C580.513 1012.57 582.002 1013.72 580.448 1013.52C575.285 1012.85 566.954 1007.55 567.712 1005.26Z" fill="url(#paint59_linear_1082_9466)"/>
<path d="M575.613 1007.25H583.641C580.614 1002.35 583.28 988.461 583.28 988.461L574.648 989.147C574.648 989.147 575.06 993.122 575.88 999.004C576.148 1001.02 575.967 1004.09 575.613 1007.25Z" fill="url(#paint60_linear_1082_9466)"/>
<path d="M554.811 703.762C549.176 722.39 545.015 741.433 542.364 760.714C532.609 831.623 553.337 833.885 549.468 912.461C548.232 937.543 571.196 995.381 573.22 996.645C574.275 996.753 575.335 996.796 576.396 996.772C579.139 996.673 581.859 996.219 584.485 995.42C588.123 994.795 601.239 959.272 598.215 938.15C596.047 923.199 596.686 907.157 597.933 875.07C598.135 869.871 611.438 773.905 611.438 773.905C615.485 809.421 620.139 839.601 624.171 862.995C637.134 938.168 679.277 983.671 681.473 984.393C681.911 984.567 685.863 986.005 689.097 983.873C689.931 983.346 690.599 982.594 691.026 981.705C692.154 980.82 690.694 906.655 677.839 850.838C659.181 769.819 667.303 750.861 661.392 714.673C656.265 683.388 554.811 703.762 554.811 703.762Z" fill="url(#paint61_linear_1082_9466)"/>
<path d="M630.18 556.81C617.794 556.449 589.32 552.073 573.639 566.204C573.365 566.449 576.577 568.166 574.994 570.019C570.811 574.957 567.105 580.28 563.924 585.916C560.614 591.817 557.63 598.688 554.617 608.935C550.79 622.033 548.328 635.493 547.271 649.097C544.403 686.799 547.246 704.193 549.826 716.022C561.026 721.774 589.887 732.067 624.254 726.955C637.235 724.996 649.789 720.852 661.385 714.699C652.465 687.681 659.463 673.225 662.766 659.9C667.463 640.9 667.553 642.337 671.437 627.246C677.836 602.341 678.883 576.895 674.49 571.685C662.632 557.659 641.272 557.171 630.18 556.81Z" fill="url(#paint62_linear_1082_9466)"/>
<path d="M575.053 1006.19C575.053 1006.19 584.833 1005.35 585.592 1007.37C586.351 1009.4 586.438 1014.54 580.451 1013.51C574.464 1012.49 574.294 1007.72 575.053 1006.19Z" fill="url(#paint63_linear_1082_9466)"/>
<path d="M645.437 545.424C651.499 540.947 652.815 533.458 653.086 531.832C654.217 525.028 654.061 523.861 653.465 522.076L652.573 519.677C652.573 519.677 652.504 519.558 652.428 519.439C651.63 518.189 647.955 515.147 647.066 514.717C644.226 513.34 633.918 521.242 623.744 535.842C623.229 536.297 622.712 536.76 622.194 537.23C620.088 539.148 606.965 554.261 604.49 554.973C586.064 560.248 579.373 559.381 583.535 563.131C588.43 567.557 646.571 564.118 647.142 560.451C647.395 558.821 641.723 557.466 636.527 555.902C631.176 554.29 630.432 549.059 631.884 546.641C633.236 546.891 640.967 548.723 645.437 545.424Z" fill="url(#paint64_linear_1082_9466)"/>
<path d="M660.722 519.619C657.326 523.955 651.668 527.001 650.046 526.932C649.055 526.939 648.071 527.106 647.134 527.427C646.905 527.506 646.688 527.614 646.487 527.748C643.405 529.746 645.251 536.355 643.455 536.926C642.155 537.341 640.121 533.851 639.174 534.346C638.227 534.841 639.571 538.219 638.524 538.79C637.729 539.223 636.681 537.449 634.95 537.706C634.087 537.836 633.917 538.338 632.226 539.473C631.341 540.076 630.402 540.597 629.422 541.03C625.936 542.41 620.957 540.036 620.935 538.378C620.935 537.916 621.297 537.829 621.821 536.694C622.152 535.875 622.371 535.014 622.471 534.136C622.731 531.99 621.42 529.295 620.477 526.083C618.735 520.139 619.552 516.866 619.866 515.789C619.982 515.406 620.079 515.128 620.151 514.929C621.597 510.926 625.267 506.218 628.96 504.452C635.142 501.482 638.791 508.018 646.982 506.681C656.43 505.138 659.266 495.188 662.698 496.521C666.492 497.981 666.998 511.605 660.722 519.619Z" fill="#26264F"/>
<path d="M642.692 534.683C642.764 532.393 639.823 532.313 638.356 534.195C636.889 536.078 637.175 539.478 639.245 540.486C641.315 541.494 642.591 537.769 642.692 534.683Z" fill="url(#paint65_linear_1082_9466)"/>
<path d="M722.348 720.727C722.348 720.727 721.813 722.967 725.719 724.921C729.625 726.876 724.747 732.147 724.747 732.147C717.925 734.431 712.697 733.892 712.242 724.921L722.348 720.727Z" fill="url(#paint66_linear_1082_9466)"/>
<defs>
<linearGradient id="paint0_linear_1082_9466" x1="284.648" y1="246.946" x2="218.038" y2="207.907" gradientUnits="userSpaceOnUse">
<stop stop-color="#AA80F9"/>
<stop offset="1" stop-color="#6165D7"/>
</linearGradient>
<linearGradient id="paint1_linear_1082_9466" x1="203.939" y1="201.012" x2="218.742" y2="207.674" gradientUnits="userSpaceOnUse">
<stop stop-color="#AA80F9"/>
<stop offset="1" stop-color="#6165D7"/>
</linearGradient>
<linearGradient id="paint2_linear_1082_9466" x1="267.194" y1="265.989" x2="104.365" y2="59.7393" gradientUnits="userSpaceOnUse">
<stop stop-color="#E38DDD"/>
<stop offset="1" stop-color="#9571F6"/>
</linearGradient>
<linearGradient id="paint3_linear_1082_9466" x1="240.922" y1="441.405" x2="133.022" y2="378.166" gradientUnits="userSpaceOnUse">
<stop stop-color="#AA80F9"/>
<stop offset="1" stop-color="#6165D7"/>
</linearGradient>
<linearGradient id="paint4_linear_1082_9466" x1="110.188" y1="367.008" x2="134.168" y2="377.797" gradientUnits="userSpaceOnUse">
<stop stop-color="#AA80F9"/>
<stop offset="1" stop-color="#6165D7"/>
</linearGradient>
<linearGradient id="paint5_linear_1082_9466" x1="212.639" y1="472.247" x2="-51.1126" y2="138.164" gradientUnits="userSpaceOnUse">
<stop stop-color="#E38DDD"/>
<stop offset="1" stop-color="#9571F6"/>
</linearGradient>
<linearGradient id="paint6_linear_1082_9466" x1="442.792" y1="778.234" x2="442.04" y2="827.144" gradientUnits="userSpaceOnUse">
<stop stop-color="#444B8C"/>
<stop offset="1" stop-color="#26264F"/>
</linearGradient>
<linearGradient id="paint7_linear_1082_9466" x1="451.293" y1="875.298" x2="373.179" y2="638.792" gradientUnits="userSpaceOnUse">
<stop stop-color="#444B8C"/>
<stop offset="1" stop-color="#26264F"/>
</linearGradient>
<linearGradient id="paint8_linear_1082_9466" x1="797.562" y1="852.672" x2="71.5521" y2="852.672" gradientUnits="userSpaceOnUse">
<stop stop-color="#FF9085"/>
<stop offset="1" stop-color="#FB6FBB"/>
</linearGradient>
<linearGradient id="paint9_linear_1082_9466" x1="684.011" y1="870.711" x2="672.315" y2="872.129" gradientUnits="userSpaceOnUse">
<stop stop-color="#FF9085"/>
<stop offset="1" stop-color="#FB6FBB"/>
</linearGradient>
<linearGradient id="paint10_linear_1082_9466" x1="459.109" y1="898.374" x2="458.307" y2="919.109" gradientUnits="userSpaceOnUse">
<stop stop-color="#444B8C"/>
<stop offset="1" stop-color="#26264F"/>
</linearGradient>
<linearGradient id="paint11_linear_1082_9466" x1="406.165" y1="896.33" x2="405.363" y2="917.065" gradientUnits="userSpaceOnUse">
<stop stop-color="#444B8C"/>
<stop offset="1" stop-color="#26264F"/>
</linearGradient>
<linearGradient id="paint12_linear_1082_9466" x1="339.889" y1="893.752" x2="339.087" y2="914.488" gradientUnits="userSpaceOnUse">
<stop stop-color="#444B8C"/>
<stop offset="1" stop-color="#26264F"/>
</linearGradient>
<linearGradient id="paint13_linear_1082_9466" x1="678.208" y1="278.889" x2="894.643" y2="278.889" gradientUnits="userSpaceOnUse">
<stop stop-color="#AA80F9"/>
<stop offset="1" stop-color="#6165D7"/>
</linearGradient>
<linearGradient id="paint14_linear_1082_9466" x1="330.481" y1="298.308" x2="424.471" y2="298.308" gradientUnits="userSpaceOnUse">
<stop stop-color="#AA80F9"/>
<stop offset="1" stop-color="#6165D7"/>
</linearGradient>
<linearGradient id="paint15_linear_1082_9466" x1="352.292" y1="199.944" x2="406.108" y2="199.944" gradientUnits="userSpaceOnUse">
<stop stop-color="#AA80F9"/>
<stop offset="1" stop-color="#6165D7"/>
</linearGradient>
<linearGradient id="paint16_linear_1082_9466" x1="315.479" y1="142.102" x2="410.928" y2="142.102" gradientUnits="userSpaceOnUse">
<stop stop-color="#AA80F9"/>
<stop offset="1" stop-color="#6165D7"/>
</linearGradient>
<linearGradient id="paint17_linear_1082_9466" x1="363.102" y1="169.167" x2="392.508" y2="169.167" gradientUnits="userSpaceOnUse">
<stop stop-color="#AA80F9"/>
<stop offset="1" stop-color="#6165D7"/>
</linearGradient>
<linearGradient id="paint18_linear_1082_9466" x1="393.068" y1="163.441" x2="405.208" y2="163.441" gradientUnits="userSpaceOnUse">
<stop stop-color="#AA80F9"/>
<stop offset="1" stop-color="#6165D7"/>
</linearGradient>
<linearGradient id="paint19_linear_1082_9466" x1="312.828" y1="369.434" x2="434.851" y2="369.434" gradientUnits="userSpaceOnUse">
<stop stop-color="#AA80F9"/>
<stop offset="1" stop-color="#6165D7"/>
</linearGradient>
<linearGradient id="paint20_linear_1082_9466" x1="353.074" y1="586.525" x2="464.055" y2="586.525" gradientUnits="userSpaceOnUse">
<stop stop-color="#AA80F9"/>
<stop offset="1" stop-color="#6165D7"/>
</linearGradient>
<linearGradient id="paint21_linear_1082_9466" x1="300.876" y1="436.184" x2="425.512" y2="436.184" gradientUnits="userSpaceOnUse">
<stop stop-color="#AA80F9"/>
<stop offset="1" stop-color="#6165D7"/>
</linearGradient>
<linearGradient id="paint22_linear_1082_9466" x1="312.439" y1="508.398" x2="430.036" y2="508.398" gradientUnits="userSpaceOnUse">
<stop stop-color="#AA80F9"/>
<stop offset="1" stop-color="#6165D7"/>
</linearGradient>
<linearGradient id="paint23_linear_1082_9466" x1="340.328" y1="559.209" x2="410.699" y2="559.209" gradientUnits="userSpaceOnUse">
<stop stop-color="#AA80F9"/>
<stop offset="1" stop-color="#6165D7"/>
</linearGradient>
<linearGradient id="paint24_linear_1082_9466" x1="430.718" y1="236.381" x2="444.386" y2="236.381" gradientUnits="userSpaceOnUse">
<stop stop-color="#AA80F9"/>
<stop offset="1" stop-color="#6165D7"/>
</linearGradient>
<linearGradient id="paint25_linear_1082_9466" x1="531.322" y1="600.866" x2="525.071" y2="728.431" gradientUnits="userSpaceOnUse">
<stop stop-color="#FF9085"/>
<stop offset="1" stop-color="#FB6FBB"/>
</linearGradient>
<linearGradient id="paint26_linear_1082_9466" x1="218.773" y1="832.944" x2="224.384" y2="942.679" gradientUnits="userSpaceOnUse">
<stop stop-color="#444B8C"/>
<stop offset="1" stop-color="#26264F"/>
</linearGradient>
<linearGradient id="paint27_linear_1082_9466" x1="228.094" y1="860.224" x2="222.913" y2="966.011" gradientUnits="userSpaceOnUse">
<stop stop-color="#444B8C"/>
<stop offset="1" stop-color="#26264F"/>
</linearGradient>
<linearGradient id="paint28_linear_1082_9466" x1="258.897" y1="104.694" x2="201.88" y2="1268.79" gradientUnits="userSpaceOnUse">
<stop stop-color="#444B8C"/>
<stop offset="1" stop-color="#26264F"/>
</linearGradient>
<linearGradient id="paint29_linear_1082_9466" x1="226.423" y1="651.246" x2="224.425" y2="692.055" gradientUnits="userSpaceOnUse">
<stop stop-color="#FFC444"/>
<stop offset="1" stop-color="#F36F56"/>
</linearGradient>
<linearGradient id="paint30_linear_1082_9466" x1="230.55" y1="500.154" x2="218.215" y2="752.012" gradientUnits="userSpaceOnUse">
<stop stop-color="#FFC444"/>
<stop offset="1" stop-color="#F36F56"/>
</linearGradient>
<linearGradient id="paint31_linear_1082_9466" x1="226.405" y1="604.888" x2="224.439" y2="645.028" gradientUnits="userSpaceOnUse">
<stop stop-color="#FFC444"/>
<stop offset="1" stop-color="#F36F56"/>
</linearGradient>
<linearGradient id="paint32_linear_1082_9466" x1="233.565" y1="427.389" x2="219.547" y2="713.57" gradientUnits="userSpaceOnUse">
<stop stop-color="#FFC444"/>
<stop offset="1" stop-color="#F36F56"/>
</linearGradient>
<linearGradient id="paint33_linear_1082_9466" x1="814.499" y1="741.319" x2="819.174" y2="832.744" gradientUnits="userSpaceOnUse">
<stop stop-color="#444B8C"/>
<stop offset="1" stop-color="#26264F"/>
</linearGradient>
<linearGradient id="paint34_linear_1082_9466" x1="820.922" y1="774.166" x2="817.359" y2="846.939" gradientUnits="userSpaceOnUse">
<stop stop-color="#444B8C"/>
<stop offset="1" stop-color="#26264F"/>
</linearGradient>
<linearGradient id="paint35_linear_1082_9466" x1="844.889" y1="184.54" x2="800.77" y2="1085.31" gradientUnits="userSpaceOnUse">
<stop stop-color="#444B8C"/>
<stop offset="1" stop-color="#26264F"/>
</linearGradient>
<linearGradient id="paint36_linear_1082_9466" x1="819.674" y1="608.402" x2="818.179" y2="638.947" gradientUnits="userSpaceOnUse">
<stop stop-color="#FFC444"/>
<stop offset="1" stop-color="#F36F56"/>
</linearGradient>
<linearGradient id="paint37_linear_1082_9466" x1="823.006" y1="491.419" x2="813.5" y2="685.486" gradientUnits="userSpaceOnUse">
<stop stop-color="#FFC444"/>
<stop offset="1" stop-color="#F36F56"/>
</linearGradient>
<linearGradient id="paint38_linear_1082_9466" x1="819.667" y1="572.514" x2="818.182" y2="602.81" gradientUnits="userSpaceOnUse">
<stop stop-color="#FFC444"/>
<stop offset="1" stop-color="#F36F56"/>
</linearGradient>
<linearGradient id="paint39_linear_1082_9466" x1="825.202" y1="435.352" x2="814.399" y2="655.866" gradientUnits="userSpaceOnUse">
<stop stop-color="#FFC444"/>
<stop offset="1" stop-color="#F36F56"/>
</linearGradient>
<linearGradient id="paint40_linear_1082_9466" x1="860.059" y1="1022.97" x2="858.172" y2="904.161" gradientUnits="userSpaceOnUse">
<stop stop-color="#311944"/>
<stop offset="1" stop-color="#893976"/>
</linearGradient>
<linearGradient id="paint41_linear_1082_9466" x1="873.863" y1="848.205" x2="887.217" y2="1006.11" gradientUnits="userSpaceOnUse">
<stop stop-color="#FFC444"/>
<stop offset="1" stop-color="#F36F56"/>
</linearGradient>
<linearGradient id="paint42_linear_1082_9466" x1="873.857" y1="848.205" x2="887.212" y2="1006.11" gradientUnits="userSpaceOnUse">
<stop stop-color="#FFC444"/>
<stop offset="1" stop-color="#F36F56"/>
</linearGradient>
<linearGradient id="paint43_linear_1082_9466" x1="831.655" y1="1028.85" x2="829.768" y2="910.037" gradientUnits="userSpaceOnUse">
<stop stop-color="#311944"/>
<stop offset="1" stop-color="#893976"/>
</linearGradient>
<linearGradient id="paint44_linear_1082_9466" x1="845.455" y1="854.215" x2="858.813" y2="1012.11" gradientUnits="userSpaceOnUse">
<stop stop-color="#FFC444"/>
<stop offset="1" stop-color="#F36F56"/>
</linearGradient>
<linearGradient id="paint45_linear_1082_9466" x1="845.454" y1="854.213" x2="858.812" y2="1012.11" gradientUnits="userSpaceOnUse">
<stop stop-color="#FFC444"/>
<stop offset="1" stop-color="#F36F56"/>
</linearGradient>
<linearGradient id="paint46_linear_1082_9466" x1="848.939" y1="671.357" x2="870.324" y2="815.861" gradientUnits="userSpaceOnUse">
<stop stop-color="#FF9085"/>
<stop offset="1" stop-color="#FB6FBB"/>
</linearGradient>
<linearGradient id="paint47_linear_1082_9466" x1="845.994" y1="705.887" x2="834.111" y2="725.104" gradientUnits="userSpaceOnUse">
<stop stop-color="#FFC444"/>
<stop offset="1" stop-color="#F36F56"/>
</linearGradient>
<linearGradient id="paint48_linear_1082_9466" x1="793.437" y1="724.892" x2="911.879" y2="864.806" gradientUnits="userSpaceOnUse">
<stop stop-color="#FF9085"/>
<stop offset="1" stop-color="#FB6FBB"/>
</linearGradient>
<linearGradient id="paint49_linear_1082_9466" x1="838.406" y1="678.275" x2="859.732" y2="709.875" gradientUnits="userSpaceOnUse">
<stop stop-color="#FFC444"/>
<stop offset="1" stop-color="#F36F56"/>
</linearGradient>
<linearGradient id="paint50_linear_1082_9466" x1="897.945" y1="761.531" x2="971.474" y2="604.422" gradientUnits="userSpaceOnUse">
<stop stop-color="#444B8C"/>
<stop offset="1" stop-color="#26264F"/>
</linearGradient>
<linearGradient id="paint51_linear_1082_9466" x1="765.458" y1="721.675" x2="823.377" y2="809.433" gradientUnits="userSpaceOnUse">
<stop stop-color="#FF9085"/>
<stop offset="1" stop-color="#FB6FBB"/>
</linearGradient>
<linearGradient id="paint52_linear_1082_9466" x1="723.095" y1="731.58" x2="726.658" y2="755.006" gradientUnits="userSpaceOnUse">
<stop stop-color="#FFC444"/>
<stop offset="1" stop-color="#F36F56"/>
</linearGradient>
<linearGradient id="paint53_linear_1082_9466" x1="611.734" y1="469.114" x2="707.703" y2="690.004" gradientUnits="userSpaceOnUse">
<stop stop-color="#AA80F9"/>
<stop offset="1" stop-color="#6165D7"/>
</linearGradient>
<linearGradient id="paint54_linear_1082_9466" x1="435.38" y1="425.252" x2="459.259" y2="480.213" gradientUnits="userSpaceOnUse">
<stop stop-color="#FFC444"/>
<stop offset="1" stop-color="#F36F56"/>
</linearGradient>
<linearGradient id="paint55_linear_1082_9466" x1="496.45" y1="464.739" x2="593.323" y2="687.703" gradientUnits="userSpaceOnUse">
<stop stop-color="#AA80F9"/>
<stop offset="1" stop-color="#6165D7"/>
</linearGradient>
<linearGradient id="paint56_linear_1082_9466" x1="672.418" y1="989.253" x2="689.43" y2="1000.56" gradientUnits="userSpaceOnUse">
<stop stop-color="#444B8C"/>
<stop offset="1" stop-color="#26264F"/>
</linearGradient>
<linearGradient id="paint57_linear_1082_9466" x1="688.898" y1="1000.67" x2="685.175" y2="974.347" gradientUnits="userSpaceOnUse">
<stop stop-color="#FFC444"/>
<stop offset="1" stop-color="#F36F56"/>
</linearGradient>
<linearGradient id="paint58_linear_1082_9466" x1="673.692" y1="987.331" x2="690.704" y2="998.634" gradientUnits="userSpaceOnUse">
<stop stop-color="#444B8C"/>
<stop offset="1" stop-color="#26264F"/>
</linearGradient>
<linearGradient id="paint59_linear_1082_9466" x1="564.432" y1="997.821" x2="579.693" y2="1011.4" gradientUnits="userSpaceOnUse">
<stop stop-color="#444B8C"/>
<stop offset="1" stop-color="#26264F"/>
</linearGradient>
<linearGradient id="paint60_linear_1082_9466" x1="579.136" y1="1011.42" x2="579.136" y2="984.83" gradientUnits="userSpaceOnUse">
<stop stop-color="#FFC444"/>
<stop offset="1" stop-color="#F36F56"/>
</linearGradient>
<linearGradient id="paint61_linear_1082_9466" x1="577.881" y1="1023.62" x2="677.405" y2="621.786" gradientUnits="userSpaceOnUse">
<stop stop-color="#444B8C"/>
<stop offset="1" stop-color="#26264F"/>
</linearGradient>
<linearGradient id="paint62_linear_1082_9466" x1="524.332" y1="441.446" x2="631.039" y2="687.042" gradientUnits="userSpaceOnUse">
<stop stop-color="#AA80F9"/>
<stop offset="1" stop-color="#6165D7"/>
</linearGradient>
<linearGradient id="paint63_linear_1082_9466" x1="565.97" y1="996.099" x2="581.231" y2="1009.68" gradientUnits="userSpaceOnUse">
<stop stop-color="#444B8C"/>
<stop offset="1" stop-color="#26264F"/>
</linearGradient>
<linearGradient id="paint64_linear_1082_9466" x1="674.764" y1="522.465" x2="533.38" y2="599.384" gradientUnits="userSpaceOnUse">
<stop stop-color="#FFC444"/>
<stop offset="1" stop-color="#F36F56"/>
</linearGradient>
<linearGradient id="paint65_linear_1082_9466" x1="670.424" y1="520.726" x2="553.828" y2="584.163" gradientUnits="userSpaceOnUse">
<stop stop-color="#FFC444"/>
<stop offset="1" stop-color="#F36F56"/>
</linearGradient>
<linearGradient id="paint66_linear_1082_9466" x1="732.287" y1="706.654" x2="707.122" y2="746.917" gradientUnits="userSpaceOnUse">
<stop stop-color="#FFC444"/>
<stop offset="1" stop-color="#F36F56"/>
</linearGradient>
</defs>
</svg>
