<svg width="1080" height="1080" viewBox="0 0 1080 1080" fill="none" xmlns="http://www.w3.org/2000/svg">
<g clip-path="url(#clip0_1076_4848)">
<rect width="1080" height="1080" fill="white"/>
<path d="M289.154 978.557C288.79 978.556 288.436 978.443 288.138 978.234C230.326 938.28 182.212 885.868 147.34 824.856C147.22 824.655 147.142 824.432 147.11 824.201C147.078 823.969 147.093 823.734 147.153 823.508C147.213 823.282 147.318 823.071 147.461 822.886C147.604 822.701 147.782 822.547 147.986 822.432C148.395 822.204 148.876 822.143 149.329 822.264C149.781 822.385 150.169 822.677 150.41 823.079C185.011 883.654 232.744 935.708 290.1 975.418C290.489 975.685 290.756 976.094 290.842 976.558C290.929 977.021 290.828 977.499 290.562 977.888C290.393 978.098 290.178 978.267 289.934 978.383C289.691 978.499 289.424 978.558 289.154 978.557Z" fill="#6CB2E6"/>
<path d="M794.637 999.869C794.326 999.866 794.021 999.785 793.75 999.631C793.479 999.478 793.252 999.257 793.091 998.991C792.976 998.788 792.902 998.565 792.873 998.333C792.844 998.101 792.861 997.866 792.923 997.641C792.986 997.416 793.092 997.205 793.235 997.021C793.379 996.837 793.557 996.683 793.76 996.568C879.562 947.214 947.648 872.1 988.365 781.879C1029.08 691.658 1040.36 590.908 1020.61 493.916C1020.56 493.689 1020.56 493.455 1020.61 493.228C1020.65 493 1020.74 492.784 1020.87 492.591C1021 492.398 1021.16 492.232 1021.36 492.103C1021.55 491.974 1021.77 491.884 1021.99 491.839C1022.22 491.793 1022.45 491.793 1022.68 491.838C1022.91 491.883 1023.13 491.973 1023.32 492.101C1023.51 492.23 1023.68 492.395 1023.81 492.588C1023.93 492.78 1024.02 492.997 1024.07 493.224C1043.98 590.938 1032.62 692.439 991.601 783.335C950.586 874.231 881.997 949.908 795.561 999.638C795.281 999.799 794.961 999.879 794.637 999.869Z" fill="#6CB2E6"/>
<path d="M156.197 341.755C155.872 341.753 155.554 341.666 155.274 341.501C155.073 341.38 154.899 341.221 154.76 341.033C154.621 340.844 154.521 340.63 154.465 340.403C154.409 340.175 154.399 339.939 154.435 339.708C154.471 339.477 154.552 339.255 154.674 339.055C196.165 271.884 253.722 216.095 322.155 176.721C411.029 125.272 514.291 104.302 616.193 117.008C616.442 117.013 616.687 117.071 616.912 117.177C617.137 117.283 617.338 117.435 617.5 117.623C617.663 117.811 617.784 118.032 617.856 118.27C617.929 118.508 617.95 118.759 617.919 119.005C617.888 119.252 617.806 119.49 617.677 119.703C617.549 119.916 617.377 120.1 617.173 120.242C616.969 120.385 616.737 120.483 616.493 120.53C616.249 120.577 615.997 120.573 615.755 120.516C514.611 107.919 412.123 128.761 323.932 179.86C256.018 218.931 198.903 274.301 157.743 340.97C157.576 341.224 157.345 341.43 157.074 341.567C156.803 341.705 156.501 341.77 156.197 341.755Z" fill="#6CB2E6"/>
<path d="M304.273 958.111C303.531 958.111 302.806 957.885 302.195 957.465C246.768 918.931 200.719 868.424 167.457 809.682C134.194 750.941 114.571 685.47 110.039 618.117C110.025 617.18 110.372 616.274 111.008 615.586C111.644 614.898 112.52 614.481 113.455 614.421C114.39 614.362 115.312 614.665 116.03 615.267C116.747 615.869 117.206 616.724 117.31 617.655C121.75 683.908 141.038 748.313 173.745 806.101C206.453 863.888 251.742 913.577 306.258 951.487C306.649 951.759 306.983 952.106 307.241 952.507C307.498 952.909 307.674 953.357 307.757 953.827C307.841 954.297 307.831 954.778 307.728 955.244C307.625 955.71 307.431 956.151 307.158 956.542C306.84 957.017 306.411 957.409 305.909 957.682C305.406 957.956 304.845 958.103 304.273 958.111Z" fill="#6CB2E6"/>
<path d="M561.037 1037.58C560.123 1037.5 559.269 1037.09 558.647 1036.42C558.025 1035.74 557.68 1034.86 557.68 1033.94C557.68 1033.02 558.025 1032.14 558.647 1031.47C559.269 1030.79 560.123 1030.38 561.037 1030.31C626.305 1029.87 690.665 1014.98 749.494 986.706C808.323 958.436 860.161 917.487 901.284 866.802C942.408 816.117 971.795 756.954 987.335 693.562C1002.88 630.169 1004.18 564.122 991.165 500.164C991.035 499.683 991.004 499.18 991.076 498.687C991.147 498.194 991.319 497.72 991.58 497.296C991.842 496.871 992.188 496.505 992.597 496.22C993.005 495.934 993.468 495.736 993.957 495.636C994.445 495.536 994.949 495.538 995.437 495.641C995.924 495.743 996.386 495.945 996.793 496.233C997.2 496.521 997.543 496.89 997.802 497.316C998.061 497.742 998.229 498.216 998.298 498.71C1011.52 563.724 1010.19 630.86 994.384 695.296C978.582 759.732 948.706 819.869 906.901 871.387C865.097 922.906 812.403 964.527 752.602 993.261C692.802 1022 627.381 1037.13 561.037 1037.58Z" fill="#6CB2E6"/>
<path d="M179.086 358.438C178.438 358.442 177.801 358.271 177.242 357.944C176.683 357.618 176.221 357.147 175.905 356.581C175.589 356.016 175.431 355.376 175.446 354.728C175.462 354.08 175.651 353.449 175.993 352.899C210.446 297.055 256.714 249.437 311.543 213.392C366.372 177.347 428.432 153.75 493.359 144.261C558.285 134.772 624.502 139.621 687.354 158.468C750.205 177.314 808.166 209.699 857.159 253.347C857.799 254.009 858.165 254.89 858.183 255.811C858.201 256.732 857.87 257.625 857.256 258.312C856.643 258.999 855.792 259.428 854.874 259.513C853.957 259.599 853.042 259.334 852.312 258.771C804.107 215.843 747.085 183.992 685.253 165.459C623.422 146.925 558.282 142.158 494.411 151.492C430.54 160.827 369.489 184.036 315.547 219.489C261.606 254.942 216.083 301.779 182.179 356.707C181.857 357.238 181.402 357.676 180.86 357.98C180.318 358.283 179.707 358.441 179.086 358.438Z" fill="#6CB2E6"/>
<mask id="mask0_1076_4848" style="mask-type:luminance" maskUnits="userSpaceOnUse" x="225" y="537" width="906" height="543">
<path d="M1130.25 537.664H225.195V1079.51H1130.25V537.664Z" fill="white"/>
</mask>
<g mask="url(#mask0_1076_4848)">
<path d="M800.438 842.183C798.868 862.08 786.127 882.715 744.857 905.335C692.161 934.256 635.957 951.498 592.517 949.929C551.732 948.498 508.107 925.601 508.107 925.601L292.87 793.134C282.668 786.856 276.897 778.27 276.505 770.422L274.104 811.761C274.069 812.33 274.069 812.901 274.104 813.469V813.793C274.312 821.756 280.083 830.55 290.469 836.874L505.707 969.341C505.707 969.341 549.331 992.238 590.117 993.692C633.511 995.215 689.715 978.019 742.456 949.098C787.166 924.585 798.384 902.403 798.222 880.96L800.438 842.183Z" fill="#F2AB83"/>
<path d="M335.351 676.727L333.805 720.351L498.308 821.911L509.78 785.649L335.351 676.727Z" fill="#F2AB83"/>
<path d="M305.156 725.453L303.633 769.078L450.641 858.635L462.089 822.374L305.156 725.453Z" fill="#F2AB83"/>
<path d="M418.296 665.312L416.75 708.937L554.34 793.209L565.812 756.97L418.296 665.312Z" fill="#F2AB83"/>
<path d="M580.117 696.492L578.594 740.094L676.945 802.091L688.417 765.853L580.117 696.492Z" fill="#F2AB83"/>
<path d="M972.85 1222.77L590.547 993.895V950.062L972.85 1178.96V1222.77Z" fill="#E89C77"/>
<path d="M789.524 870.204C803.581 851.323 801.896 833.504 797.418 815.8C790.263 787.525 744.33 761.35 744.33 761.35L633.122 692.105C616.965 682.042 595.522 681.488 585.481 690.882C575.441 700.276 580.495 716.272 596.722 726.128L664.005 767.306C666.313 768.783 667.745 770.052 664.952 772.568C664.095 773.263 663.037 773.663 661.935 773.709C660.833 773.755 659.746 773.444 658.835 772.822L470.119 655.22C453.961 645.157 432.518 644.603 422.478 653.997C412.437 663.391 417.492 679.387 433.719 689.243L555.521 764.19C557.829 765.551 557.829 767.005 555.89 769.36C553.951 771.714 549.935 768.852 549.935 768.852L388.04 667.915C371.883 657.829 350.416 657.298 340.376 666.692C330.335 676.086 335.39 691.944 351.617 701.938L500.24 793.411C503.172 795.373 502.179 797.035 499.871 798.812C497.563 800.589 494.262 797.635 494.262 797.635L359.049 713.317C342.892 703.254 321.449 702.7 311.408 712.094C301.368 721.488 306.446 737.345 322.649 747.34L448.422 824.733C449.737 825.772 450.407 827.272 447.706 829.603C445.006 831.934 440.92 828.726 440.92 828.726L329.32 759.135C313.163 749.048 291.72 748.494 281.679 757.888C271.638 767.282 276.693 783.163 292.92 793.134L508.157 925.6C508.157 925.6 550.651 947.874 590.952 949.859L590.559 950.067L972.862 1178.95L1144.64 1082.81L789.524 870.204Z" fill="#FEC49E"/>
<path d="M996.736 1280.84L633.867 1061.43V1005.16L996.736 1224.57V1280.84Z" fill="#E6E7E8"/>
<path d="M1217.21 1101.16L854.321 881.742L633.867 1005.16L996.736 1224.58L1217.21 1101.16Z" fill="#FFFEFE"/>
<path d="M1115.33 1373.57L687.328 1114.78V1052.27L1115.33 1311.07V1373.57Z" fill="#3D69AA"/>
<path d="M1361.89 1172.81L933.911 914.016L687.328 1052.28L1115.33 1311.07L1361.89 1172.81Z" fill="#4F7BC2"/>
</g>
<path d="M282.57 583.713C282.566 636.733 298.284 688.564 327.737 732.651C357.191 776.739 399.056 811.102 448.039 831.395C497.023 851.688 550.924 857 602.926 846.659C654.928 836.318 702.696 810.789 740.189 773.299C777.682 735.809 803.215 688.044 813.561 636.042C823.906 584.041 818.599 530.139 798.31 481.154C778.021 432.169 743.662 390.301 699.577 360.844C655.492 331.387 603.662 315.664 550.642 315.664C515.439 315.661 480.581 322.592 448.057 336.061C415.533 349.531 385.981 369.275 361.088 394.165C336.195 419.056 316.449 448.607 302.976 481.13C289.504 513.652 282.57 548.51 282.57 583.713Z" fill="#A7D4F4"/>
<mask id="mask1_1076_4848" style="mask-type:luminance" maskUnits="userSpaceOnUse" x="282" y="315" width="537" height="537">
<path d="M282.586 583.713C282.581 636.733 298.3 688.564 327.753 732.651C357.206 776.739 399.072 811.102 448.055 831.395C497.038 851.688 550.939 857 602.942 846.659C654.944 836.318 702.712 810.789 740.205 773.299C777.697 735.809 803.231 688.044 813.577 636.042C823.922 584.041 818.615 530.139 798.326 481.154C778.037 432.169 743.677 390.301 699.593 360.844C655.508 331.387 603.678 315.664 550.658 315.664C515.455 315.661 480.597 322.592 448.073 336.061C415.549 349.531 385.997 369.275 361.104 394.165C336.211 419.056 316.464 448.607 302.992 481.13C289.52 513.652 282.586 548.51 282.586 583.713Z" fill="white"/>
</mask>
<g mask="url(#mask1_1076_4848)">
<path d="M351.027 643.886C351.789 645.086 351.627 650.441 354.028 650.372C356.428 650.302 359.452 651.018 359.59 649.518C359.555 647.535 359.733 645.554 360.121 643.609C360.634 641.541 361.459 639.564 362.568 637.746C364.353 635.389 366.44 633.279 368.777 631.468C368.777 631.468 371.685 627.405 372.308 630.152C372.932 632.899 375.332 634.768 375.194 636.199C375.055 637.63 376.186 638.369 378.379 637.4C380.572 636.43 382.995 636.753 381.818 633.683C380.641 630.614 381.079 630.498 379.741 626.944C378.402 623.389 377.686 628.398 378.425 623.412C378.799 620.57 379.576 617.795 380.733 615.172C380.733 615.172 376.902 611.248 380.433 611.848C382.467 612.186 384.289 613.304 385.511 614.964C385.511 614.964 386.85 616.603 388.212 616.28C389.574 615.957 392.643 614.733 392.113 612.471C391.626 610.656 391.04 608.868 390.358 607.116C390.358 607.116 385.049 604.97 388.535 599.338C392.02 593.706 393.982 591.813 394.928 589.667C395.765 587.143 396.436 584.568 396.937 581.957L402.776 576.256C402.776 576.256 405.084 576.256 405.084 578.079C405.084 579.903 402.776 581.034 405.477 581.842C408.177 582.65 408.316 581.657 412.655 581.611C416.995 581.565 421.888 582.28 422.28 583.642C424.562 587.518 427.059 591.263 429.759 594.86C432.775 595.999 435.68 597.413 438.438 599.084C440.238 600.584 447.67 601.23 448.155 603.516C448.64 605.801 460.965 612.979 462.004 615.634C463.091 619.214 463.947 622.861 464.566 626.551C464.982 629.334 465.639 632.076 466.528 634.745C467.382 636.476 473.614 640.285 473.614 640.285C474.542 642.276 475.314 644.337 475.922 646.448C476.453 648.756 477.238 648.063 479.616 649.91C481.282 651.27 482.785 652.819 484.093 654.526C484.093 654.526 490.533 657.365 489.333 652.218C488.133 647.071 488.179 647.232 487.602 644.924C487.025 642.616 493.095 635.461 492.426 632.76C491.757 630.06 491.872 624.243 491.318 621.958C490.849 618.549 491.013 615.082 491.803 611.733C492.769 608.441 493.411 605.063 493.718 601.646C493.298 598.827 493.113 595.978 493.164 593.129C493.326 587.774 494.734 585.535 493.857 583.896C492.98 582.257 491.549 578.172 490.325 575.102C490.024 574.022 489.947 572.891 490.097 571.78C490.248 570.669 490.624 569.6 491.203 568.639C492.585 569.824 493.859 571.13 495.011 572.54C495.796 573.786 499.766 574.294 499.766 574.294L505.236 573.025L506.875 567.808L504.752 565.131L503.205 560.676L506.898 557.929C506.898 557.929 514.515 555.621 514.192 554.259C514.339 552.023 514.789 549.818 515.531 547.704C515.163 546.78 515.128 545.757 515.431 544.809C515.734 543.862 516.357 543.05 517.193 542.51C520.736 540.791 524.559 539.721 528.48 539.348C530.418 539.348 541.105 537.802 541.105 537.802L547.614 534.847L560.425 527.923C562.032 525.959 562.97 523.533 563.102 520.998C563.102 517.121 570.142 514.074 570.142 514.074C570.142 514.074 570.927 515.32 574.32 515.482C577.713 515.643 579.767 516.128 582.953 513.427C586.138 510.727 589.162 509.088 589.415 506.134C589.669 503.179 590.177 501.148 590.685 497.201C591.031 494.627 591.563 492.081 592.278 489.584L597.979 485.36C597.979 485.36 600.956 483.698 602.41 485.729C603.865 487.761 599.941 485.383 603.865 487.807C607.789 490.23 609.243 486.052 609.727 490.23C610.313 493.999 610.077 497.849 609.035 501.517C607.95 505.141 607.489 507.172 606.911 508.742C606.488 510.488 606.425 512.302 606.727 514.074C606.814 514.949 606.7 515.834 606.392 516.658C606.083 517.482 605.59 518.225 604.95 518.829C603.795 520.052 600.818 521.737 601.141 523.122C601.464 524.507 604.049 527.207 601.026 528.869C597.622 530.532 594.132 532.012 590.57 533.301C590.57 533.301 589.531 534.963 586.161 532.908C582.791 530.854 585.215 533.093 582.745 530.808C581.196 529.385 579.465 528.174 577.598 527.207C577.598 527.207 574.412 526.053 573.489 528.2C572.934 529.755 572.83 531.435 573.189 533.047C573.189 533.047 574.528 534.663 573.397 535.932C572.146 537.546 570.713 539.01 569.127 540.295C567.842 541.22 566.816 542.46 566.149 543.895C566.149 543.895 562.571 545.188 562.756 548.05C562.941 550.912 560.794 551.859 563.61 553.613C566.426 555.367 569.265 555.182 572.843 558.229C576.42 561.276 579.606 564.369 581.937 566.239C584.268 568.108 587.246 568.339 590.893 569.401C594.356 570.558 598.052 570.835 601.649 570.209C606.265 569.585 609.52 566.931 611.343 568.385C613.167 569.839 613.236 572.286 618.268 573.001C623.715 573.403 629.185 573.403 634.633 573.001C634.633 573.001 637.356 574.294 638.926 574.871C641.286 575.65 643.823 575.715 646.22 575.056C649.091 574.17 651.879 573.035 654.552 571.663C655.918 572.326 657.481 572.457 658.938 572.032C661.684 571.409 664.2 569.862 663.554 566.631C662.908 563.399 662.977 558.114 661.869 555.482C660.761 552.851 660.646 537.963 660.646 537.963C660.646 537.963 659.815 536.717 661.477 531.547C662.385 528.892 663.034 526.155 663.416 523.376C663.416 523.376 667.64 512.758 665.724 510.358C664.227 508.587 662.962 506.632 661.961 504.541C661.395 503.464 661.123 502.257 661.171 501.042C661.22 499.826 661.588 498.645 662.238 497.616C663.739 495.816 668.032 489.492 668.032 489.492L665.539 479.013C665.539 479.013 666.07 473.15 666.209 471.673C666.203 469.766 666.072 467.861 665.816 465.971C665.816 465.971 674.079 466.71 677.08 471.719C677.08 471.719 683.566 480.951 681.489 484.391C680.387 485.861 679.698 487.6 679.496 489.427C679.293 491.253 679.582 493.101 680.335 494.777C681.996 498.724 684.051 498.24 682.781 502.14C681.512 506.041 681.789 500.917 681.558 506.041C681.036 510.074 681.519 514.174 682.966 517.975C684.42 521.229 686.59 524.345 684.005 528.523C681.419 532.701 682.85 526.653 681.373 532.747C679.896 538.84 681.119 540.802 680.912 542.972C680.704 545.142 682.32 539.741 680.704 545.28C679.088 550.82 676.341 554.259 679.55 555.69C682.758 557.121 687.698 559.545 685.782 563.584C683.866 567.623 682.966 570.024 680.588 569.147C678.211 568.27 676.411 563.63 676.411 563.63C672.441 568.247 670.179 570.901 670.825 573.625C671.471 576.348 669.648 571.709 671.471 576.371C673.295 581.034 671.887 584.173 669.994 585.35C667.997 586.705 665.79 587.719 663.462 588.351C660.201 589.666 656.835 590.701 653.398 591.444C650.401 592.23 647.516 593.393 644.812 594.906C642.25 596.291 639.157 598.438 636.802 597.561C634.448 596.683 632.763 592.736 630.847 596.776C628.931 600.815 625.031 596.776 628.908 600.861C632.786 604.947 635.487 604.347 636.687 606.262C637.887 608.178 658.245 624.22 662.654 627.521C667.063 630.821 666.647 632.322 671.079 632.76C674.669 632.922 678.266 632.791 681.835 632.368C681.835 632.368 682.181 630.821 687.928 633.799C693.676 636.776 698.985 637.677 701.662 639.939C703.941 641.61 706.443 642.954 709.094 643.932C709.094 643.932 714.357 647.763 718.881 651.756C723.405 655.75 724.652 654.734 725.09 659.65C725.529 664.567 722.436 666.806 722.943 668.883C723.354 671.547 723.26 674.264 722.667 676.893L722.113 680.655L718.95 688.595C718.808 691.744 719.799 694.839 721.743 697.32C725.067 702.306 723.336 704.244 726.544 705.56C729.753 706.876 729.937 707.637 734.023 706.668C738.108 705.699 736.654 702.467 741.57 704.891C746.487 707.314 741.409 704.221 746.464 707.199C747.922 708.062 749.171 709.235 750.125 710.635C751.078 712.035 751.712 713.628 751.98 715.301C751.98 715.301 747.526 717.817 748.172 720.54C748.818 723.264 744.894 722.017 748.818 723.264C752.742 724.51 747.826 722.087 752.719 724.487C754.343 725.248 755.795 726.332 756.986 727.674C758.177 729.015 759.081 730.586 759.643 732.289C760.959 734.851 769.292 736.49 769.292 736.49C769.292 736.49 776.216 736.859 777.463 735.52C778.709 734.181 799.529 714.885 807.238 686.356C814.947 657.827 821.087 641.231 820.325 634.907C819.935 628.55 819.164 622.222 818.017 615.957C816.378 609.148 818.733 597.745 817.902 594.352C817.071 590.959 826.396 572.147 821.987 556.544C817.579 540.941 815.732 539.279 815.063 530.069C814.853 522.654 816.06 515.267 818.617 508.303C819.495 505.995 824.665 500.386 827.435 496.762C830.204 493.139 840.36 477.166 839.437 473.681C838.514 470.195 830.874 436.357 813.124 408.544C795.374 380.73 777.186 375.791 767.907 370.044C758.628 364.296 756.089 359.841 753.365 360.488C750.642 361.134 751.473 361.642 745.794 365.104C740.116 368.566 739.101 367.412 735.015 368.382C730.93 369.351 727.768 374.406 724.698 376.576C721.628 378.745 717.935 372.421 721.582 378.768C725.229 385.116 719.273 381.446 725.275 385.116C731.276 388.786 733.4 388.971 732.199 395.734C730.999 402.496 728.876 403.05 728.16 406.097C727.444 409.144 728.76 411.729 727.375 414.938C726.215 417.908 724.373 420.565 721.997 422.693C719.066 425.555 717.381 427.448 714.796 425.855C712.21 424.263 710.641 417.453 710.641 417.453C710.641 417.453 708.148 412.999 705.217 415.861C701.91 418.513 699.494 422.113 698.292 426.178C697.207 430.795 697.184 433.657 692.868 436.842L688.021 440.143C688.021 440.143 682.158 445.867 676.688 447.067C671.217 448.268 665.908 453.23 661.454 452.815C656.999 452.399 654.183 449.491 650.49 446.052C646.797 442.613 641.58 435.896 641.096 433.818C640.611 431.741 635.902 427.125 643.588 426.017C648.248 425.435 652.871 424.595 657.437 423.501C660.877 422.67 671.587 422.324 668.447 415.099C665.308 407.875 666.601 398.203 664.247 397.349C661.478 396.195 658.372 396.145 655.568 397.211C652.918 398.999 650.158 400.618 647.305 402.058C641.488 404.897 641.834 403.351 636.364 404.62C630.893 405.89 627.985 405.913 624.084 407.551C620.183 409.19 619.076 410.898 615.659 411.706C612.243 412.514 608.735 415.538 605.988 413.276C603.241 411.014 598.856 410.644 603.334 405.243C607.812 399.842 615.313 398.065 615.406 392.271C615.498 386.478 615.567 380.73 618.106 379.369C620.645 378.007 613.928 373.875 625.169 375.514C636.41 377.153 640.449 379.138 643.15 381.423C645.85 383.708 648.597 382.992 651.598 386.593C652.399 387.863 653.604 388.826 655.019 389.329C656.434 389.831 657.977 389.843 659.399 389.363C661.454 388.878 660.138 386.293 664.385 385.993C668.632 385.693 671.91 384.216 672.556 386.962C673.117 390.26 674.359 393.404 676.203 396.195C678.211 398.503 678.673 403.535 682.273 400.511C685.874 397.488 686.151 401.758 685.874 397.511C685.597 393.264 683.751 391.487 682.25 388.278C680.75 385.07 681.142 380.592 678.626 379.045C676.469 377.982 674.612 376.395 673.225 374.429C672.048 372.559 670.409 368.612 672.302 367.505C674.195 366.397 677.265 364.181 676.78 362.103L675.487 356.656L671.794 353.194C671.794 353.194 671.679 347.7 676.411 348.97C678.776 349.381 680.923 350.606 682.481 352.432C684.282 353.909 685.436 354.74 686.036 359.357C686.636 363.973 687.098 365.82 686.174 367.966C685.251 370.113 684.074 371.359 685.066 373.552C686.059 375.745 688.644 378.445 691.252 377.36C693.86 376.276 693.999 374.775 693.56 370.574C693.122 366.374 694.668 363.073 694.114 360.811C693.917 358.94 693.482 357.102 692.822 355.34C692.042 353.097 691.508 350.775 691.229 348.416C691.229 348.416 691.391 343.084 694.437 345.715C697.484 348.347 692.683 348.531 697.461 348.393C699.981 348.347 702.479 347.919 704.87 347.123C707.179 346.569 705.932 343.5 709.487 346.015C713.041 348.531 715.327 348.508 718.05 349.755C720.774 351.001 717.404 347.054 725.298 351.901C733.192 356.748 736.677 357.395 736.677 357.395L741.478 355.294C742.212 354.808 742.749 354.077 742.994 353.232C743.24 352.386 743.177 351.481 742.817 350.678C741.594 347.562 743.209 344.33 739.008 342.922C734.807 341.515 732.084 338.306 727.791 335.998C723.497 333.69 722.413 329.558 719.666 330.204C716.919 330.851 712.141 332.951 708.125 333.898C704.109 334.844 693.076 329.281 690.837 326.004C688.598 322.726 689.198 321.087 684.189 322.264C679.18 323.441 682.435 325.08 676.918 324.019C671.402 322.957 665.147 320.972 665.147 320.972C662.935 321.041 660.731 321.249 658.545 321.595C656.722 322.033 653.213 319.471 651.736 319.287C649.515 319.052 647.279 319.573 645.389 320.764C642.85 322.31 638.141 326.811 634.933 327.55C631.724 328.289 626.416 326.211 625.515 328.335C624.615 330.458 625.331 331.774 621.684 332.628C618.037 333.482 616.236 333.921 614.759 331.843C613.282 329.766 614.505 326.627 611.528 326.373C608.55 326.119 606.45 325.15 604.603 326.004C602.757 326.858 601.395 330.62 598.671 329.373C595.948 328.127 595.324 325.357 593.94 325.657C592.555 325.957 587.938 326.627 585.676 327.158C583.414 327.689 579.606 328.127 579.283 326.742C578.959 325.357 577.39 322.864 581.291 320.972C585.192 319.079 588.608 317.325 588.608 317.325L588.446 312.57L584.361 311.601C582.268 310.756 580.038 310.302 577.782 310.262C575.805 310.4 573.818 310.22 571.896 309.731C571.896 309.731 570.719 304.722 573.904 303.96C578.179 303.162 582.558 303.099 586.853 303.776C590.108 304.387 593.267 305.427 596.248 306.869C598.556 308.254 602.018 306.869 605.065 309.592C607.094 311.313 609.238 312.894 611.482 314.324C611.482 314.324 615.336 314.324 616.537 315.524C617.737 316.725 619.814 319.079 621.73 319.102C623.646 319.125 629.024 319.31 628.377 316.586C628.255 315.451 627.853 314.364 627.209 313.422C626.565 312.48 625.697 311.711 624.684 311.185C622.846 310.083 621.214 308.669 619.86 307.007C622.164 305.907 623.94 303.941 624.8 301.537C624.315 300.757 623.656 300.099 622.876 299.615C622.095 299.13 621.213 298.832 620.299 298.744C616.767 298.144 612.682 301.052 605.757 300.267C598.833 299.483 592.693 299.99 588.423 298.144C584.633 296.647 580.671 295.631 576.628 295.12C574.135 294.751 567.118 293.551 565.087 293.527C561.615 293.354 558.152 294.003 554.977 295.42C550.638 297.428 548.722 297.405 546.737 299.275C544.752 301.144 542.49 303.66 540.874 304.999C539.259 306.338 536.835 310.308 537.158 311.693C537.481 313.078 537.158 314.001 540.413 313.285C543.667 312.57 547.337 310.193 548.768 309.892C550.2 309.592 551.538 307.307 552.161 310.054C552.343 311.769 552.746 313.452 553.362 315.063C554.262 316.771 556.247 319.171 555.324 321.318C555.094 322.516 554.4 323.575 553.392 324.263C552.384 324.95 551.145 325.211 549.946 324.988C547.201 325.004 544.478 324.511 541.913 323.534C539.305 322.726 539.42 321.226 535.219 321.733C531.019 322.241 520.239 319.425 518.416 319.956C515.055 320.668 511.747 321.609 508.514 322.772C506.806 323.649 495.957 328.635 491.295 327.388C486.632 326.142 493.095 320.718 485.917 322.934C478.738 325.15 478.577 326.558 477.538 328.242C476.499 329.927 476.015 333.921 474.099 331.936C472.183 329.951 468.167 333.344 466.367 331.936C465.068 330.286 464.268 328.3 464.058 326.211C464.058 326.211 467.982 320.441 462.95 321.595C457.919 322.749 456.026 325.15 455.195 327.319C454.364 329.489 454.249 331.382 451.733 331.012C449.217 330.643 447.116 332.097 446.539 329.35C446.322 326.373 446.587 323.38 447.324 320.487C447.534 319.993 447.641 319.462 447.638 318.925C447.635 318.389 447.521 317.858 447.305 317.367C447.089 316.876 446.774 316.435 446.38 316.07C445.986 315.705 445.522 315.425 445.016 315.247C441.3 313.724 440.4 312.016 438.461 311.97C436.522 311.924 432.459 311.023 431.721 314.047C430.982 317.071 431.098 319.495 428.443 320.602C426.271 321.489 424.023 322.176 421.726 322.657C418.312 322.697 414.898 322.543 411.501 322.195L406.123 319.633L395.644 318.848C395.644 318.848 364.738 343.8 353.243 357.533C353.243 357.533 343.549 380.615 341.31 385.485C339.071 390.356 335.839 396.888 335.839 396.888L328.038 402.566C325.232 406.416 322.819 410.537 320.836 414.868C318.736 420.2 314.789 436.057 313.588 441.135C312.767 444.509 312.456 447.987 312.665 451.453C312.48 456.785 312.342 460.201 312.18 461.678C312.064 463.562 311.707 465.424 311.119 467.218C310.265 469.826 305.394 477.697 304.771 481.205C304.148 484.714 302.094 494.339 305.002 490.438C307.226 487.265 309.172 483.905 310.819 480.397C312.434 477.12 311.534 475.412 313.404 473.034C315.273 470.657 310.703 471.742 315.227 470.726C319.751 469.711 321.805 465.833 322.313 470.057C322.821 474.281 323.329 478.482 323.86 480.744C324.391 483.006 325.614 486.076 322.867 488.661C320.12 491.246 318.713 493.508 317.328 493.831C315.943 494.154 317.928 500.409 317.766 503.825C317.605 507.242 313.635 516.82 313.635 516.82C313.635 516.82 308.672 532.424 309.734 536.971C310.795 541.518 313.958 544.657 312.919 548.304C312.253 550.561 311.827 552.882 311.649 555.228C313.516 560.34 315.834 565.276 318.574 569.978C321.459 574.109 317.097 576.094 324.783 580.041C332.469 583.988 334.316 581.634 338.932 582.973C340.669 583.375 342.269 584.226 343.574 585.442C344.878 586.657 345.84 588.193 346.364 589.897C346.895 592.206 349.157 601.761 348.096 605.339C346.871 608.815 345.421 612.207 343.756 615.495C343.756 615.495 338.609 618.196 339.486 621.819C340.363 625.443 341.517 632.391 342.371 636.061C343.225 639.731 342.371 639.915 345.003 641.208C347.634 642.501 350.242 642.593 351.027 643.886ZM546.968 438.735C546.045 437.027 550.984 433.449 551.584 431.81C552.12 430.598 552.819 429.464 553.662 428.44C555.35 426.099 556.892 423.656 558.278 421.123C559.894 417.823 556.824 417.13 555.485 415.492C554.147 413.853 552.877 414.707 551.307 414.084C550.238 413.881 549.251 413.369 548.471 412.609C547.691 411.85 547.152 410.877 546.922 409.813C545.606 406.328 546.068 406.213 546.783 403.143C547.499 400.073 551.4 402.52 551.4 402.52L556.155 404.274C556.155 404.274 562.133 407.205 563.725 407.782C565.318 408.359 569.704 410.714 573.42 412.191C577.136 413.668 573.42 412.191 574.989 414.73C576.559 417.269 574.989 419.046 574.574 421.1C574.158 423.155 569.611 426.594 569.611 426.594C570.162 428.786 571.151 430.843 572.52 432.641C574.528 434.949 574.643 433.565 576.882 434.949C579.121 436.334 578.221 438.504 579.86 443.397C581.498 448.291 579.006 448.014 576.79 450.876C574.276 453.801 571.552 456.539 568.642 459.07C566.957 464.263 565.526 462.209 561.233 460.339C556.939 458.47 561.233 460.339 561.233 458.031C561.233 455.723 559.34 456.092 557.424 454.13C556.921 453.528 556.645 452.769 556.645 451.984C556.645 451.199 556.921 450.439 557.424 449.837C558.006 448.341 558.454 446.796 558.763 445.221C558.901 443.744 556.963 441.782 553.2 442.174C549.438 442.566 550.384 442.382 548.03 440.535C545.676 438.689 547.845 440.443 546.968 438.735ZM515.231 422.578C516.431 419.415 515.231 422.578 515.715 420.546C516.2 418.515 519.385 417.754 519.385 417.754L521.093 418.792C523.123 419.684 525.362 419.988 527.556 419.669C529.865 419.669 528.087 421.978 528.156 424.286C528.132 426.818 527.76 429.334 527.049 431.764C526.264 435.019 522.04 432.964 522.04 432.964L519.131 428.833C517.677 426.755 517.193 428.833 515.046 427.863C512.899 426.894 513.984 425.832 515.231 422.647V422.578ZM401.391 463.94C400.053 460.386 401.391 463.94 403.007 460.663C404.623 457.385 403.007 460.663 403.492 458.654C403.977 456.646 408.824 458.839 408.824 458.839L408.27 464.702C407.733 465.684 406.906 466.477 405.903 466.972C404.899 467.468 403.767 467.642 402.661 467.472C398.691 467.056 402.661 467.541 401.391 464.009V463.94Z" fill="#27AE61"/>
<path d="M328.155 665.135C327.157 662.96 326.615 660.604 326.562 658.211C326.562 656.295 328.871 658.211 328.871 658.211C328.871 658.211 332.679 664.074 340.273 673.814C347.867 683.555 343.735 678.269 346.09 680.115C348.444 681.962 348.883 683.785 351.352 686.094C353.12 687.799 355.239 689.099 357.561 689.902C360.262 691.218 360.123 698.95 360.654 703.151C361.277 707.929 353.36 706.798 349.113 704.905C344.866 703.012 346.067 702.297 345.443 699.504C344.82 696.711 343.782 694.611 343.343 692.787C342.904 690.964 339.096 689.002 336.742 687.155C334.387 685.309 335.657 682.539 335.472 679.769C335.287 676.999 333.464 675.43 332.933 673.145C332.402 670.86 329.171 667.328 328.155 665.135Z" fill="#27AE61"/>
<path d="M371.873 675.022C371.962 673.171 372.526 671.374 373.512 669.805C375.174 666.505 374.504 665.72 376.997 664.173C379.49 662.627 379.305 666.02 379.513 662.604C379.557 659.903 379.402 657.203 379.051 654.525C379.051 654.525 379.444 650.116 381.613 651.063C383.783 652.009 387.476 653.509 386.876 657.041C386.503 659.386 385.533 661.596 384.06 663.458C382.906 665.177 382.214 667.164 382.052 669.228C381.567 671.614 381.496 674.066 381.844 676.476C382.124 678.968 382.548 681.442 383.114 683.885C382.466 685.29 381.644 686.609 380.667 687.809C379.19 689.609 377.32 691.063 376.374 687.809C375.658 685.501 374.85 681.438 374.527 680.054C374.204 678.669 371.734 676.499 371.873 675.022Z" fill="#27AE61"/>
<path d="M379.559 705.43C380.829 702.706 382.214 702.406 381.868 699.106C381.521 695.805 375.797 700.052 381.544 695.805C387.292 691.558 384.384 695.62 387.269 691.581C390.154 687.542 391.423 686.734 392.001 685.141C392.787 683.524 393.714 681.98 394.77 680.525L396.617 678.217C396.617 678.217 399.294 675.216 399.825 677.455C400.356 679.694 401.302 679.486 400.102 682.694C399.552 685.201 398.474 687.562 396.94 689.619C394.401 693.081 395.971 687.426 394.401 693.081C392.831 698.736 392.855 698.759 392.947 701.137C393.039 703.514 393.916 705.222 393.778 706.723C393.639 708.223 394.955 711.731 393.778 714.432C392.565 716.668 391.135 718.778 389.508 720.733L385.076 722.257C382.768 718.956 382.768 714.178 380.46 712.77C378.151 711.362 375.474 712.008 377.551 708.661C379.629 705.315 378.267 708.154 379.559 705.43Z" fill="#27AE61"/>
<path d="M464.221 656.533C464.426 655.155 464.742 653.797 465.167 652.47C466.16 648.385 467.475 651.916 469.276 651.478C471.076 651.039 471.584 654.802 471.584 654.802C472.769 656.369 474.089 657.829 475.531 659.164C478.001 661.472 476.131 663.434 473.707 667.797C472.069 670.682 467.129 668.374 464.959 665.488L462.328 662.234L463.921 658.979C465.513 655.748 463.828 659.026 464.221 656.533Z" fill="#27AE61"/>
<path d="M676.456 713.644C677.042 713.453 677.665 713.408 678.273 713.512C678.88 713.617 679.453 713.868 679.941 714.244L683.45 716.806C684.852 718.066 686.402 719.151 688.066 720.038C689.659 720.615 690.559 720.407 693.282 719.761C696.006 719.115 696.722 717.984 700.022 717.684C703.323 717.383 700.022 717.684 703 717.937C703.772 717.949 704.522 718.202 705.143 718.662C705.764 719.121 706.226 719.764 706.462 720.5L707.339 724.146L703.438 727.978C703.377 730.07 704.028 732.121 705.285 733.795C707.178 735.71 705.285 733.795 707.224 733.795C709.163 733.795 710.825 736.795 710.825 736.795L711.217 740.558C711.609 744.274 706.485 745.035 706.462 748.867C706.626 750.653 706.557 752.454 706.254 754.222C705.793 756.253 701.823 755.768 693.098 755.422C684.373 755.076 693.098 755.422 691.644 753.368C690.189 751.314 689.497 750.529 687.927 747.967C686.358 745.405 685.388 743.35 683.727 740.327C682.065 737.303 681.949 736.841 681.049 735.156C680.149 733.471 675.117 730.309 674.609 726.085C674.101 721.861 674.609 723.777 673.501 721.469C672.393 719.161 672.786 718.284 674.171 714.06C675.556 709.836 674.148 714.152 676.456 713.644Z" fill="#27AE61"/>
</g>
<g style="mix-blend-mode:multiply" opacity="0.2">
<path d="M564.517 495.916L477.938 458.178L613.52 382.008L691.098 417L564.517 495.916Z" fill="#825F62"/>
</g>
<path d="M564.619 491.346L478.062 453.607V219.766L564.619 257.504V491.346Z" fill="#F4ECEC"/>
<path d="M564.617 491.349L638.363 445.232V211.367L564.617 257.508V491.349Z" fill="#BEB7B8"/>
<path d="M564.619 495.345L478.062 457.583V435.586L564.619 473.348V495.345Z" fill="#AFB1C0"/>
<path d="M564.617 495.333L638.363 449.192V427.195L564.617 473.336V495.333Z" fill="#828392"/>
<path d="M564.619 257.508L478.062 219.769L560.811 176.398L638.365 211.367L564.619 257.508Z" fill="#E6E6E6"/>
<path opacity="0.4" d="M503.468 275.433L486.18 267.632V238.664L503.468 246.466V275.433Z" fill="white"/>
<path d="M502.43 258.649L487.242 251.816V240.922L502.43 247.754V258.649Z" fill="#1C536B"/>
<path d="M502.43 272.662L487.242 265.807V253.273L502.43 260.106V272.662Z" fill="#1C536B"/>
<path opacity="0.4" d="M503.468 316.652L486.18 308.874V279.883L503.468 287.684V316.652Z" fill="white"/>
<path d="M502.43 299.891L487.242 293.059V282.164L502.43 288.996V299.891Z" fill="#1C536B"/>
<path d="M502.43 313.866L487.242 307.056V294.5L502.43 301.332V313.866Z" fill="#1C536B"/>
<path opacity="0.4" d="M503.468 357.871L486.18 350.093V321.125L503.468 328.904V357.871Z" fill="white"/>
<path d="M502.43 341.11L487.242 334.277V323.383L502.43 330.215V341.11Z" fill="#1C536B"/>
<path d="M502.43 355.1L487.242 348.267V335.711L502.43 342.543V355.1Z" fill="#1C536B"/>
<path opacity="0.4" d="M503.468 399.113L486.18 391.335V362.367L503.468 370.146V399.113Z" fill="white"/>
<path d="M502.43 382.328L487.242 375.496V364.602L502.43 371.434V382.328Z" fill="#1C536B"/>
<path d="M502.43 396.326L487.242 389.494V376.938L502.43 383.77V396.326Z" fill="#1C536B"/>
<path opacity="0.4" d="M503.468 440.363L486.18 432.561V403.594L503.468 411.372V440.363Z" fill="white"/>
<path d="M502.43 423.547L487.242 416.715V405.82L502.43 412.652V423.547Z" fill="#1C536B"/>
<path d="M502.43 437.568L487.242 430.736V418.18L502.43 425.012V437.568Z" fill="#1C536B"/>
<path opacity="0.4" d="M528.741 286.558L511.43 278.757V249.789L528.741 257.568V286.558Z" fill="white"/>
<path d="M527.672 269.75L512.484 262.918V252.023L527.672 258.856V269.75Z" fill="#1C536B"/>
<path d="M527.672 283.764L512.484 276.931V264.375L527.672 271.207V283.764Z" fill="#1C536B"/>
<path opacity="0.4" d="M528.741 327.785L511.43 319.983V291.016L528.741 298.794V327.785Z" fill="white"/>
<path d="M527.672 310.969L512.484 304.16V293.266L527.672 300.075V310.969Z" fill="#1C536B"/>
<path d="M527.672 324.99L512.484 318.158V305.602L527.672 312.434V324.99Z" fill="#1C536B"/>
<path opacity="0.4" d="M528.741 369.011L511.43 361.233V332.242L528.741 340.044V369.011Z" fill="white"/>
<path d="M527.672 352.235L512.484 345.402V334.508L527.672 341.34V352.235Z" fill="#1C536B"/>
<path d="M527.672 366.209L512.484 359.377V346.82L527.672 353.676V366.209Z" fill="#1C536B"/>
<path opacity="0.4" d="M528.741 410.223L511.43 402.444V373.477L528.741 381.255V410.223Z" fill="white"/>
<path d="M527.672 393.453L512.484 386.621V375.727L527.672 382.559V393.453Z" fill="#1C536B"/>
<path d="M527.672 407.451L512.484 400.619V388.062L527.672 394.895V407.451Z" fill="#1C536B"/>
<path opacity="0.4" d="M528.741 451.465L511.43 443.686V414.719L528.741 422.497V451.465Z" fill="white"/>
<path d="M527.672 434.68L512.484 427.848V416.953L527.672 423.785V434.68Z" fill="#1C536B"/>
<path d="M527.672 448.693L512.484 441.861V429.305L527.672 436.137V448.693Z" fill="#1C536B"/>
<path opacity="0.4" d="M554.093 297.59L536.781 289.811V260.844L554.093 268.622V297.59Z" fill="white"/>
<path d="M553.032 280.805L537.844 273.973V263.078L553.032 269.91V280.805Z" fill="#1C536B"/>
<path d="M553.032 294.818L537.844 287.986V275.43L553.032 282.262V294.818Z" fill="#1C536B"/>
<path opacity="0.4" d="M554.093 338.84L536.781 331.038V302.07L554.093 309.849V338.84Z" fill="white"/>
<path d="M553.032 322.024L537.844 315.191V304.297L553.032 311.129V322.024Z" fill="#1C536B"/>
<path d="M553.032 336.045L537.844 329.213V316.656L553.032 323.488V336.045Z" fill="#1C536B"/>
<path opacity="0.4" d="M554.093 380.058L536.781 372.257V343.289L554.093 351.068V380.058Z" fill="white"/>
<path d="M553.032 363.25L537.844 356.418V345.523L553.032 352.356V363.25Z" fill="#1C536B"/>
<path d="M553.032 377.264L537.844 370.431V357.875L553.032 364.707V377.264Z" fill="#1C536B"/>
<path opacity="0.4" d="M554.093 421.285L536.781 413.483V384.516L554.093 392.317V421.285Z" fill="white"/>
<path d="M553.032 404.508L537.844 397.676V386.781L553.032 393.613V404.508Z" fill="#1C536B"/>
<path d="M553.032 418.49L537.844 411.658V399.102L553.032 405.957V418.49Z" fill="#1C536B"/>
<path opacity="0.4" d="M554.093 462.504L536.781 454.725V425.734L554.093 433.536V462.504Z" fill="white"/>
<path d="M553.032 445.735L537.844 438.902V428.008L553.032 434.84V445.735Z" fill="#1C536B"/>
<path d="M553.032 459.748L537.844 452.916V440.359L553.032 447.192V459.748Z" fill="#1C536B"/>
<path opacity="0.4" d="M616.031 271.207L630.48 261.882V232.914L616.031 242.239V271.207Z" fill="white"/>
<path d="M616.922 254.339L629.617 246.168V235.273L616.922 243.444V254.339Z" fill="#1C536B"/>
<path d="M616.922 268.352L629.617 260.158V247.625L616.922 255.796V268.352Z" fill="#1C536B"/>
<path opacity="0.4" d="M616.031 312.456L630.48 303.108V274.141L616.031 283.466V312.456Z" fill="white"/>
<path d="M616.922 295.566L629.617 287.395V276.5L616.922 284.671V295.566Z" fill="#1C536B"/>
<path d="M616.922 309.579L629.617 301.385V288.852L616.922 297.023V309.579Z" fill="#1C536B"/>
<path opacity="0.4" d="M616.031 353.667L630.48 344.342V315.352L616.031 324.7V353.667Z" fill="white"/>
<path d="M616.922 336.807L629.617 328.613V317.719L616.922 325.89V336.807Z" fill="#1C536B"/>
<path d="M616.922 350.806L629.617 342.635V330.078L616.922 338.249V350.806Z" fill="#1C536B"/>
<path opacity="0.4" d="M616.031 394.91L630.48 385.585V356.617L616.031 365.942V394.91Z" fill="white"/>
<path d="M616.922 378.034L629.617 369.84V358.945L616.922 367.139V378.034Z" fill="#1C536B"/>
<path d="M616.922 392.024L629.617 383.853V371.297L616.922 379.491V392.024Z" fill="#1C536B"/>
<path opacity="0.4" d="M616.031 436.129L630.48 426.804V397.836L616.031 407.161V436.129Z" fill="white"/>
<path d="M616.922 419.253L629.617 411.059V400.164L616.922 408.358V419.253Z" fill="#1C536B"/>
<path d="M616.922 433.243L629.617 425.072V412.516L616.922 420.71V433.243Z" fill="#1C536B"/>
<g style="mix-blend-mode:multiply" opacity="0.3">
<path d="M616.922 408.375V419.27L629.617 411.076" fill="#1C536B"/>
</g>
<path opacity="0.4" d="M594.953 284.589L609.402 275.241V246.273L594.953 255.622V284.589Z" fill="white"/>
<path d="M595.812 267.706L608.507 259.535V248.641L595.812 256.812V267.706Z" fill="#1C536B"/>
<path d="M595.812 281.72L608.507 273.526V260.992L595.812 269.163V281.72Z" fill="#1C536B"/>
<path opacity="0.4" d="M594.953 325.824L609.402 316.499V287.531L594.953 296.856V325.824Z" fill="white"/>
<path d="M595.812 308.948L608.507 300.754V289.859L595.812 298.053V308.948Z" fill="#1C536B"/>
<path d="M595.812 322.938L608.507 314.767V302.211L595.812 310.382V322.938Z" fill="#1C536B"/>
<path opacity="0.4" d="M594.953 367.05L609.402 357.725V328.758L594.953 338.083V367.05Z" fill="white"/>
<path d="M595.812 350.175L608.507 341.981V331.086L595.812 339.28V350.175Z" fill="#1C536B"/>
<path d="M595.812 364.188L608.507 355.994V343.438L595.812 351.631V364.188Z" fill="#1C536B"/>
<path opacity="0.4" d="M594.953 408.277L609.402 398.952V369.984L594.953 379.309V408.277Z" fill="white"/>
<path d="M595.812 391.393L608.507 383.199V372.305L595.812 380.499V391.393Z" fill="#1C536B"/>
<path d="M595.812 405.407L608.507 397.213V384.656L595.812 392.85V405.407Z" fill="#1C536B"/>
<path opacity="0.4" d="M594.953 449.496L609.402 440.171V411.203L594.953 420.528V449.496Z" fill="white"/>
<path d="M595.812 432.612L608.507 424.418V413.523L595.812 421.717V432.612Z" fill="#1C536B"/>
<path d="M595.812 446.625L608.507 438.431V425.875L595.812 434.069V446.625Z" fill="#1C536B"/>
<path opacity="0.4" d="M573.781 297.894L588.23 288.569V259.602L573.781 268.927V297.894Z" fill="white"/>
<path d="M574.688 281.011L587.359 272.816V261.922L574.688 270.116V281.011Z" fill="#1C536B"/>
<path d="M574.688 295.024L587.359 286.83V274.273L574.688 282.467V295.024Z" fill="#1C536B"/>
<path opacity="0.4" d="M573.781 339.113L588.23 329.788V300.82L573.781 310.145V339.113Z" fill="white"/>
<path d="M574.688 322.253L587.359 314.082V303.188L574.688 311.358V322.253Z" fill="#1C536B"/>
<path d="M574.688 336.243L587.359 328.049V315.516L574.688 323.687V336.243Z" fill="#1C536B"/>
<path opacity="0.4" d="M573.781 380.332L588.23 371.007V342.039L573.781 351.364V380.332Z" fill="white"/>
<path d="M574.688 363.472L587.359 355.301V344.406L574.688 352.577V363.472Z" fill="#1C536B"/>
<path d="M574.688 377.47L587.359 369.299V356.742L574.688 364.913V377.47Z" fill="#1C536B"/>
<path opacity="0.4" d="M573.781 421.581L588.23 412.256V383.266L573.781 392.614V421.581Z" fill="white"/>
<path d="M574.688 404.714L587.359 396.52V385.625L574.688 393.819V404.714Z" fill="#1C536B"/>
<path d="M574.688 418.704L587.359 410.533V397.977L574.688 406.148V418.704Z" fill="#1C536B"/>
<path opacity="0.4" d="M573.781 462.816L588.23 453.491V424.523L573.781 433.848V462.816Z" fill="white"/>
<path d="M574.688 445.94L587.359 437.746V426.852L574.688 435.046V445.94Z" fill="#1C536B"/>
<path d="M574.688 459.931L587.359 451.76V439.203L574.688 447.374V459.931Z" fill="#1C536B"/>
<g style="mix-blend-mode:multiply" opacity="0.2">
<path d="M662.875 541.534L603.07 515.451L711.347 454.008L764.92 478.174L662.875 541.534Z" fill="#825F62"/>
</g>
<path d="M662.875 539.429L603.07 513.347V351.82L662.875 377.903V539.429Z" fill="#F4ECEC"/>
<path d="M662.883 539.41L713.824 507.557V346.008L662.883 377.884V539.41Z" fill="#BEB7B8"/>
<path d="M662.875 542.169L603.07 516.086V500.898L662.875 526.981V542.169Z" fill="#AFB1C0"/>
<path d="M662.883 542.173L713.824 510.32V495.109L662.883 526.985V542.173Z" fill="#828392"/>
<path d="M662.875 377.886L603.07 351.804L660.244 321.844L713.817 346.01L662.875 377.886Z" fill="#E6E6E6"/>
<path opacity="0.4" d="M620.628 390.281L608.672 384.879V364.891L620.628 370.246V390.281Z" fill="white"/>
<path d="M619.893 378.671L609.414 373.962V366.438L619.893 371.146V378.671Z" fill="#1C536B"/>
<path d="M619.893 388.341L609.414 383.632V374.953L619.893 379.685V388.341Z" fill="#1C536B"/>
<path opacity="0.4" d="M620.628 418.757L608.672 413.379V393.367L620.628 398.745V418.757Z" fill="white"/>
<path d="M619.893 407.155L609.414 402.423V394.898L619.893 399.63V407.155Z" fill="#1C536B"/>
<path d="M619.893 416.833L609.414 412.124V403.445L619.893 408.154V416.833Z" fill="#1C536B"/>
<path opacity="0.4" d="M620.628 447.226L608.672 441.848V421.836L620.628 427.214V447.226Z" fill="white"/>
<path d="M619.893 435.639L609.414 430.907V423.383L619.893 428.115V435.639Z" fill="#1C536B"/>
<path d="M619.893 445.309L609.414 440.578V431.922L619.893 436.631V445.309Z" fill="#1C536B"/>
<path opacity="0.4" d="M620.628 475.726L608.672 470.348V450.336L620.628 455.714V475.726Z" fill="white"/>
<path d="M619.893 464.124L609.414 459.392V451.867L619.893 456.599V464.124Z" fill="#1C536B"/>
<path d="M619.893 473.801L609.414 469.069V460.391L619.893 465.122V473.801Z" fill="#1C536B"/>
<path opacity="0.4" d="M620.628 504.195L608.672 498.817V478.805L620.628 484.183V504.195Z" fill="white"/>
<path d="M619.893 492.593L609.414 487.884V480.359L619.893 485.068V492.593Z" fill="#1C536B"/>
<path d="M619.893 502.255L609.414 497.546V488.867L619.893 493.599V502.255Z" fill="#1C536B"/>
<path opacity="0.4" d="M638.082 397.945L626.148 392.567V372.555L638.082 377.933V397.945Z" fill="white"/>
<path d="M637.369 386.358L626.867 381.626V374.102L637.369 378.833V386.358Z" fill="#1C536B"/>
<path d="M637.369 396.044L626.867 391.312V382.656L637.369 387.365V396.044Z" fill="#1C536B"/>
<path opacity="0.4" d="M638.082 426.437L626.148 421.059V401.047L638.082 406.425V426.437Z" fill="white"/>
<path d="M637.369 414.858L626.867 410.126V402.602L637.369 407.333V414.858Z" fill="#1C536B"/>
<path d="M637.369 424.512L626.867 419.781V411.125L637.369 415.834V424.512Z" fill="#1C536B"/>
<path opacity="0.4" d="M638.082 454.913L626.148 449.535V429.523L638.082 434.901V454.913Z" fill="white"/>
<path d="M637.369 443.335L626.867 438.603V431.078L637.369 435.81V443.335Z" fill="#1C536B"/>
<path d="M637.369 452.966L626.867 448.257V439.578L637.369 444.31V452.966Z" fill="#1C536B"/>
<path opacity="0.4" d="M638.082 483.406L626.148 478.028V458.016L638.082 463.371V483.406Z" fill="white"/>
<path d="M637.369 471.796L626.867 467.087V459.562L637.369 464.271V471.796Z" fill="#1C536B"/>
<path d="M637.369 481.458L626.867 476.749V468.07L637.369 472.802V481.458Z" fill="#1C536B"/>
<path opacity="0.4" d="M638.082 511.859L626.148 506.481V486.469L638.082 491.847V511.859Z" fill="white"/>
<path d="M637.369 500.272L626.867 495.541V488.039L637.369 492.748V500.272Z" fill="#1C536B"/>
<path d="M637.369 509.942L626.867 505.233V496.555L637.369 501.263V509.942Z" fill="#1C536B"/>
<path opacity="0.4" d="M655.597 405.593L643.641 400.215V380.203L655.597 385.581V405.593Z" fill="white"/>
<path d="M654.854 394.006L644.375 389.275V381.75L654.854 386.482V394.006Z" fill="#1C536B"/>
<path d="M654.854 403.669L644.375 398.937V390.281L654.854 394.99V403.669Z" fill="#1C536B"/>
<path opacity="0.4" d="M655.597 434.062L643.641 428.684V408.672L655.597 414.05V434.062Z" fill="white"/>
<path d="M654.854 422.46L644.375 417.751V410.227L654.854 414.935V422.46Z" fill="#1C536B"/>
<path d="M654.854 432.145L644.375 427.437V418.758L654.854 423.49V432.145Z" fill="#1C536B"/>
<path opacity="0.4" d="M655.597 462.554L643.641 457.176V437.164L655.597 442.519V462.554Z" fill="white"/>
<path d="M654.854 450.952L644.375 446.243V438.719L654.854 443.427V450.952Z" fill="#1C536B"/>
<path d="M654.854 460.614L644.375 455.905V447.227L654.854 451.958V460.614Z" fill="#1C536B"/>
<path opacity="0.4" d="M655.597 491.007L643.641 485.629V465.617L655.597 470.995V491.007Z" fill="white"/>
<path d="M654.854 479.428L644.375 474.697V467.172L654.854 471.904V479.428Z" fill="#1C536B"/>
<path d="M654.854 489.106L644.375 484.397V475.719L654.854 480.427V489.106Z" fill="#1C536B"/>
<path opacity="0.4" d="M655.597 519.507L643.641 514.129V494.117L655.597 499.495V519.507Z" fill="white"/>
<path d="M654.854 507.92L644.375 503.189V495.664L654.854 500.396V507.92Z" fill="#1C536B"/>
<path d="M654.854 517.575L644.375 512.843V504.188L654.854 508.896V517.575Z" fill="#1C536B"/>
<path opacity="0.4" d="M698.391 387.358L708.362 380.918V360.906L698.391 367.346V387.358Z" fill="white"/>
<path d="M699 375.695L707.771 370.04V362.516L699 368.171V375.695Z" fill="#1C536B"/>
<path d="M699 385.396L707.771 379.718V371.062L699 376.718V385.396Z" fill="#1C536B"/>
<path opacity="0.4" d="M698.391 415.835L708.362 409.395V389.383L698.391 395.823V415.835Z" fill="white"/>
<path d="M699 404.187L707.771 398.532V391.008L699 396.663V404.187Z" fill="#1C536B"/>
<path d="M699 413.865L707.771 408.21V399.555L699 405.21V413.865Z" fill="#1C536B"/>
<path opacity="0.4" d="M698.391 444.319L708.362 437.879V417.867L698.391 424.307V444.319Z" fill="white"/>
<path d="M699 432.672L707.771 427.017V419.492L699 425.147V432.672Z" fill="#1C536B"/>
<path d="M699 442.342L707.771 436.687V428.008L699 433.663V442.342Z" fill="#1C536B"/>
<path opacity="0.4" d="M698.391 472.795L708.362 466.356V446.344L698.391 452.784V472.795Z" fill="white"/>
<path d="M699 461.148L707.771 455.493V447.969L699 453.624V461.148Z" fill="#1C536B"/>
<path d="M699 470.818L707.771 465.163V456.484L699 462.139V470.818Z" fill="#1C536B"/>
<path opacity="0.4" d="M698.391 501.295L708.362 494.833V474.844L698.391 481.26V501.295Z" fill="white"/>
<path d="M699 489.625L707.771 483.97V476.422L699 482.1V489.625Z" fill="#1C536B"/>
<path d="M699 499.303L707.771 493.647V484.969L699 490.624V499.303Z" fill="#1C536B"/>
<g style="mix-blend-mode:multiply" opacity="0.3">
<path d="M699 482.102V489.626L707.771 483.971" fill="#1C536B"/>
</g>
<path opacity="0.4" d="M683.828 396.615L693.799 390.153V370.141L683.828 376.604V396.615Z" fill="white"/>
<path d="M684.43 384.945L693.178 379.267V371.742L684.43 377.397V384.945Z" fill="#1C536B"/>
<path d="M684.43 394.623L693.178 388.945V380.289L684.43 385.944V394.623Z" fill="#1C536B"/>
<path opacity="0.4" d="M683.828 425.061L693.799 418.621V398.609L683.828 405.049V425.061Z" fill="white"/>
<path d="M684.43 413.414L693.178 407.759V400.234L684.43 405.889V413.414Z" fill="#1C536B"/>
<path d="M684.43 423.092L693.178 417.437V408.781L684.43 414.436V423.092Z" fill="#1C536B"/>
<path opacity="0.4" d="M683.828 453.561L693.799 447.121V427.109L683.828 433.549V453.561Z" fill="white"/>
<path d="M684.43 441.906L693.178 436.251V428.727L684.43 434.382V441.906Z" fill="#1C536B"/>
<path d="M684.43 451.568L693.178 445.913V437.258L684.43 442.89V451.568Z" fill="#1C536B"/>
<path opacity="0.4" d="M683.828 482.03L693.799 475.59V455.578L683.828 462.018V482.03Z" fill="white"/>
<path d="M684.43 470.383L693.178 464.728V457.203L684.43 462.858V470.383Z" fill="#1C536B"/>
<path d="M684.43 480.045L693.178 474.39V465.711L684.43 471.366V480.045Z" fill="#1C536B"/>
<path opacity="0.4" d="M683.828 510.522L693.799 504.082V484.07L683.828 490.51V510.522Z" fill="white"/>
<path d="M684.43 498.859L693.178 493.204V485.656L684.43 491.334V498.859Z" fill="#1C536B"/>
<path d="M684.43 508.545L693.178 502.89V494.211L684.43 499.866V508.545Z" fill="#1C536B"/>
<path opacity="0.4" d="M669.195 405.811L679.19 399.371V379.359L669.195 385.799V405.811Z" fill="white"/>
<path d="M669.828 394.133L678.576 388.478V380.953L669.828 386.608V394.133Z" fill="#1C536B"/>
<path d="M669.828 403.818L678.576 398.163V389.484L669.828 395.139V403.818Z" fill="#1C536B"/>
<path opacity="0.4" d="M669.195 434.28L679.19 427.817V407.828L669.195 414.268V434.28Z" fill="white"/>
<path d="M669.828 422.617L678.576 416.962V409.414L669.828 415.092V422.617Z" fill="#1C536B"/>
<path d="M669.828 432.295L678.576 426.64V417.961L669.828 423.616V432.295Z" fill="#1C536B"/>
<path opacity="0.4" d="M669.195 462.741L679.19 456.301V436.289L669.195 442.752V462.741Z" fill="white"/>
<path d="M669.828 451.086L678.576 445.431V437.906L669.828 443.561V451.086Z" fill="#1C536B"/>
<path d="M669.828 460.764L678.576 455.132V446.453L669.828 452.108V460.764Z" fill="#1C536B"/>
<path opacity="0.4" d="M669.195 491.225L679.19 484.785V464.773L669.195 471.213V491.225Z" fill="white"/>
<path d="M669.828 479.563L678.576 473.907V466.383L669.828 472.038V479.563Z" fill="#1C536B"/>
<path d="M669.828 489.24L678.576 483.585V474.93L669.828 480.585V489.24Z" fill="#1C536B"/>
<path opacity="0.4" d="M669.195 519.702L679.19 513.262V493.25L669.195 499.69V519.702Z" fill="white"/>
<path d="M669.828 508.055L678.576 502.4V494.875L669.828 500.53V508.055Z" fill="#1C536B"/>
<path d="M669.828 517.717L678.576 512.062V503.383L669.828 509.038V517.717Z" fill="#1C536B"/>
<g style="mix-blend-mode:multiply" opacity="0.2">
<path d="M388.549 531.753C385.11 534.523 385.618 535.492 388.549 537.777L393.165 538.908C400.09 539.116 401.175 538.654 404.591 535.885L451.978 498.954C455.417 496.184 456.271 493.183 453.686 491.429C453.686 491.429 446.761 486.074 432.589 497.892L388.549 531.753Z" fill="#825F62"/>
</g>
<path d="M398.052 478.5H392.835C389.177 478.5 386.211 481.466 386.211 485.124V534.15C386.211 537.809 389.177 540.775 392.835 540.775H398.052C401.71 540.775 404.676 537.809 404.676 534.15V485.124C404.676 481.466 401.71 478.5 398.052 478.5Z" fill="#825F62"/>
<g style="mix-blend-mode:multiply" opacity="0.4">
<path d="M392.812 478.5H393.205V540.821H392.812C391.059 540.815 389.38 540.114 388.143 538.872C386.906 537.631 386.211 535.949 386.211 534.196V485.124C386.211 483.372 386.906 481.69 388.143 480.448C389.38 479.207 391.059 478.506 392.812 478.5Z" fill="#825F62"/>
</g>
<path d="M381.784 491.109C381.784 491.109 228.452 410.138 381.507 221.422H398.011C515.728 290.136 423.816 461.472 398.011 499.072L381.784 491.109Z" fill="#036859"/>
<path d="M398.001 221.422C551.056 294.66 398.001 499.072 398.001 499.072C398.001 499.072 244.946 410.138 398.001 221.422Z" fill="#008279"/>
<path opacity="0.5" d="M359.831 390.984C360.302 390.52 360.936 390.26 361.597 390.26C362.257 390.26 362.892 390.52 363.362 390.984L395.192 422.121V349.645L370.172 328.271C369.921 328.06 369.715 327.802 369.565 327.511C369.415 327.219 369.324 326.901 369.299 326.575C369.273 326.248 369.312 325.92 369.415 325.609C369.517 325.298 369.68 325.01 369.895 324.763C370.327 324.267 370.936 323.96 371.592 323.908C372.248 323.857 372.898 324.064 373.403 324.486L395.192 343.113V242.568C395.159 242.222 395.198 241.873 395.308 241.543C395.417 241.214 395.594 240.91 395.828 240.653C396.062 240.396 396.347 240.19 396.664 240.049C396.982 239.909 397.326 239.836 397.673 239.836C398.021 239.836 398.365 239.909 398.683 240.049C399 240.19 399.285 240.396 399.519 240.653C399.753 240.91 399.93 241.214 400.039 241.543C400.149 241.873 400.188 242.222 400.155 242.568V307.659L414.142 291.248C414.347 290.977 414.606 290.751 414.901 290.584C415.197 290.416 415.523 290.311 415.861 290.274C416.199 290.238 416.54 290.27 416.865 290.37C417.189 290.471 417.49 290.636 417.748 290.857C418.007 291.077 418.217 291.348 418.367 291.653C418.517 291.958 418.603 292.29 418.62 292.629C418.636 292.968 418.584 293.308 418.465 293.626C418.346 293.944 418.163 294.234 417.928 294.479L400.155 315.253V387.706L427.853 355.161C428.293 354.703 428.892 354.43 429.527 354.398C430.163 354.367 430.786 354.579 431.269 354.992C431.753 355.405 432.06 355.987 432.129 356.619C432.198 357.251 432.022 357.886 431.638 358.393L400.109 395.323V427.869V486.312C400.142 486.658 400.103 487.007 399.993 487.337C399.884 487.667 399.706 487.97 399.473 488.227C399.239 488.485 398.954 488.69 398.636 488.831C398.319 488.972 397.975 489.044 397.627 489.044C397.28 489.044 396.936 488.972 396.618 488.831C396.3 488.69 396.015 488.485 395.782 488.227C395.548 487.97 395.371 487.667 395.261 487.337C395.152 487.007 395.113 486.658 395.146 486.312V429.069L359.831 394.446C359.388 393.979 359.141 393.359 359.141 392.715C359.141 392.071 359.388 391.452 359.831 390.984Z" fill="white"/>
<g style="mix-blend-mode:multiply" opacity="0.2">
<path d="M472.427 570.396C470.996 571.573 471.203 571.988 472.427 572.958L474.389 573.419C477.297 573.419 477.782 573.42 479.213 572.15L499.248 556.524C500.702 555.37 501.071 554.1 499.986 553.338C499.986 553.338 497.055 551.03 491.054 556.085L472.427 570.396Z" fill="#825F62"/>
</g>
<path d="M476.452 544.094H473.959C472.226 544.094 470.82 545.499 470.82 547.233V570.499C470.82 572.233 472.226 573.638 473.959 573.638H476.452C478.186 573.638 479.591 572.233 479.591 570.499V547.233C479.591 545.499 478.186 544.094 476.452 544.094Z" fill="#825F62"/>
<g style="mix-blend-mode:multiply" opacity="0.4">
<path d="M473.983 544.008H474.145V573.552H473.983C473.149 573.552 472.348 573.223 471.755 572.634C471.163 572.046 470.827 571.248 470.821 570.413V547.239C470.812 546.818 470.887 546.4 471.042 546.008C471.196 545.616 471.428 545.259 471.722 544.958C472.017 544.657 472.369 544.418 472.757 544.255C473.145 544.092 473.562 544.008 473.983 544.008Z" fill="#825F62"/>
</g>
<path d="M468.702 550.075C468.702 550.075 395.948 511.667 468.702 422.109H476.527C532.385 454.724 488.783 536.064 476.527 553.86L468.702 550.075Z" fill="#036859"/>
<path d="M476.422 422.109C549.037 456.871 476.422 553.86 476.422 553.86C476.422 553.86 403.807 511.69 476.422 422.109Z" fill="#008279"/>
<path opacity="0.5" d="M458.305 502.579C458.532 502.363 458.834 502.242 459.147 502.242C459.461 502.242 459.762 502.363 459.99 502.579L475.085 517.351V482.959L463.221 472.803C463.103 472.703 463.005 472.581 462.934 472.443C462.863 472.306 462.82 472.155 462.807 472.001C462.794 471.847 462.812 471.691 462.859 471.544C462.906 471.396 462.982 471.259 463.083 471.141C463.288 470.907 463.576 470.762 463.886 470.736C464.196 470.71 464.504 470.806 464.745 471.003L475.085 479.843V432.156C475.139 431.89 475.283 431.65 475.493 431.477C475.704 431.305 475.967 431.211 476.239 431.211C476.511 431.211 476.775 431.305 476.985 431.477C477.196 431.65 477.34 431.89 477.393 432.156V463.04L484.041 455.261C484.246 455.027 484.534 454.882 484.844 454.856C485.154 454.83 485.462 454.926 485.703 455.123C485.923 455.343 486.046 455.642 486.046 455.953C486.046 456.265 485.923 456.564 485.703 456.784L477.278 466.663V501.055L490.435 485.614C490.64 485.375 490.931 485.227 491.245 485.203C491.559 485.18 491.869 485.282 492.108 485.487C492.347 485.692 492.494 485.983 492.518 486.297C492.542 486.611 492.44 486.921 492.235 487.16L477.278 504.702V520.121V547.819C477.224 548.085 477.08 548.325 476.87 548.498C476.659 548.67 476.396 548.764 476.124 548.764C475.852 548.764 475.588 548.67 475.378 548.498C475.168 548.325 475.023 548.085 474.97 547.819V520.652L458.212 504.241C458.01 504.005 457.907 503.701 457.924 503.391C457.941 503.081 458.078 502.79 458.305 502.579Z" fill="white"/>
<path d="M980.586 224.031C977.285 222 972.715 222.184 967.637 225.093L773.542 340.178C763.617 345.856 755.516 359.89 755.516 371.315V544.429C755.516 550.615 757.824 554.792 761.632 556.5L785.176 568.526L1000.6 442.061L1004.01 235.941L980.586 224.031Z" fill="#EBAD00"/>
<g style="mix-blend-mode:multiply" opacity="0.4">
<path d="M967.652 225.093L773.557 340.178C767.482 344.03 762.617 349.518 759.523 356.012L784.29 366.445L1004.03 235.987L980.601 224.031C977.3 222 972.73 222.184 967.652 225.093Z" fill="#EBAD00"/>
</g>
<path d="M991.496 237.287L797.379 352.442C792.146 355.857 787.791 360.454 784.663 365.863C781.535 371.272 779.724 377.341 779.375 383.579V556.693C779.375 568.234 787.5 572.85 797.425 567.195L991.45 453.217C1001.4 447.539 1009.52 433.551 1009.52 422.126V247.72C1009.52 236.272 1001.4 231.586 991.496 237.287Z" fill="#FFDD21"/>
<path d="M977.724 426.556L955.242 439.32V346.624L977.724 333.859V426.556Z" fill="#9A49CF"/>
<path d="M938.172 431.532L955.252 439.311V346.614L938.172 338.836V431.532Z" fill="#4F2988"/>
<path d="M960.653 326.102L938.172 338.843L955.252 346.621L977.734 333.857L960.653 326.102Z" fill="#B574E8"/>
<path d="M948.091 443.3L925.609 456.041V407.085L948.091 394.32V443.3Z" fill="#00D3CB"/>
<path d="M908.555 448.292L925.612 456.047V407.091L908.555 399.312V448.292Z" fill="#169993"/>
<path d="M931.036 386.57L908.555 399.311L925.612 407.09L948.094 394.326L931.036 386.57Z" fill="#41F9EB"/>
<path d="M917.052 461.285L894.57 474.05V390.655L917.052 377.914V461.285Z" fill="#56BA32"/>
<path d="M877.484 466.269L894.565 474.048V390.654L877.484 382.875V466.269Z" fill="#3E9A33"/>
<path d="M899.966 370.141L877.484 382.882L894.565 390.66L917.047 377.919L899.966 370.141Z" fill="#7ABC31"/>
<path d="M885.38 478.86L862.898 491.624V367.444L885.38 354.703V478.86Z" fill="#FF901D"/>
<path d="M845.828 483.836L862.909 491.615V367.435L845.828 359.68V483.836Z" fill="#F28318"/>
<path d="M868.31 346.938L845.828 359.679L862.909 367.434L885.39 354.693L868.31 346.938Z" fill="#FFB36E"/>
<path d="M853.497 496.424L831.016 509.189V434.842L853.497 422.078V496.424Z" fill="#006DBD"/>
<path d="M813.945 501.393L831.026 509.172V434.825L813.945 427.047V501.393Z" fill="#005498"/>
<path d="M836.427 414.32L813.945 427.061L831.026 434.84L853.507 422.076L836.427 414.32Z" fill="#1D93DB"/>
<path d="M792.737 222.648L768.57 235.944L779.534 245.292L803.562 231.858L792.737 222.648Z" fill="#68A1DA"/>
<path d="M792.73 222.655L768.563 235.95L767.617 224.779L791.53 211.438L792.73 222.655Z" fill="#5894C6"/>
<path d="M798.253 201.641L774.225 215.074L767.508 224.861L791.513 211.45L798.253 201.641Z" fill="#68A1DA"/>
<path d="M778.114 183.816L754.086 197.25L766.481 196.95L790.486 183.539L778.114 183.816Z" fill="#68A1DA"/>
<path d="M771.622 160.586L747.594 174.02L747.663 190.477L771.714 177.043L771.622 160.586Z" fill="#68A1DA"/>
<path d="M703.061 186.856L698.006 194.797L687.227 193.135L702.414 184.641L703.061 186.856Z" fill="#5894C6"/>
<path d="M732.7 166.191L730.761 170.761L718.343 177.708L711.188 164.621L735.216 151.188L740.917 161.597L732.7 166.191Z" fill="#68A1DA"/>
<path d="M742.791 279.234L744.799 281.866L731.227 289.46L735.266 279.65L742.791 279.234Z" fill="#5894C6"/>
<path d="M765.452 261.733L776.854 263.695L785.048 259.102L788.741 271.081L764.713 284.515L760.812 269.027L765.452 261.733Z" fill="#5894C6"/>
<path d="M718.328 177.698L730.746 170.75L727.676 178.159L718.328 177.698Z" fill="#5894C6"/>
<path d="M778.117 183.817L771.723 177.031L747.672 190.465L753.765 197.297L778.117 183.817Z" fill="#5894C6"/>
<path d="M776.857 263.683L779.534 245.218L768.57 235.87L767.624 224.698L774.202 215.05L766.493 196.884L753.775 197.231L747.635 190.514L747.474 173.849L732.701 165.978L727.693 178.096L718.46 177.634L711.305 164.547L698.864 171.933L703.18 186.775L698.125 194.715L687.346 193.053L682.914 212.188L695.055 222.436L695.932 229.753L688.061 241.294L696.301 260.405L708.235 259.898L714.074 266.661L714.859 282.172L731.34 289.304L735.379 279.494L742.904 279.079L752.136 291.104L764.808 284.341L760.907 268.853L765.524 261.56L776.857 263.683ZM735.517 256.759C723.123 256.759 711.258 243.879 708.996 227.929C706.734 211.98 714.905 198.985 727.277 198.939C739.649 198.893 751.536 211.795 753.821 227.768C756.106 243.74 747.889 256.782 735.564 256.828L735.517 256.759Z" fill="#78B4E6"/>
<path d="M721.103 229.433C722.188 236.542 727.497 242.22 732.944 242.104C738.391 241.989 741.9 236.126 740.815 228.994C739.73 221.862 734.421 216.207 728.974 216.322C723.527 216.437 720.018 222.3 721.103 229.433Z" fill="#5894C6"/>
<path d="M800.88 250.24L776.852 263.674L779.529 245.277L803.557 231.844L800.88 250.24Z" fill="#94CCF2"/>
<path d="M798.237 201.635L774.209 215.069L766.477 196.95L790.482 183.539L798.237 201.635Z" fill="#94CCF2"/>
<path d="M771.642 160.59L747.614 174.024L732.703 166.199L756.731 152.742L771.642 160.59Z" fill="#94CCF2"/>
<path d="M211.602 387.508C207.771 385.2 202.369 385.338 196.437 388.755L70.5726 462.616C59.0317 469.31 49.4297 485.698 49.4297 499.155V651.494C49.4297 658.719 52.2226 663.635 56.6081 665.62L84.3062 679.746L235.03 592.474L239.046 401.565L211.602 387.508Z" fill="#D30033"/>
<g style="mix-blend-mode:multiply" opacity="0.4">
<path d="M196.385 388.768L70.5198 462.629C63.3812 467.145 57.6735 473.597 54.0625 481.233L83.1224 493.443L239.04 401.555L211.596 387.521C207.718 385.144 202.363 385.352 196.385 388.768Z" fill="#8A0033"/>
</g>
<path d="M224.337 403.028L98.4948 476.89C86.9539 483.561 77.375 499.972 77.375 513.405V665.745C77.375 679.179 86.8847 684.718 98.541 678.071L224.29 605.409C235.831 598.762 245.479 582.328 245.479 568.963V415.262C245.479 401.874 235.97 396.289 224.337 403.028Z" fill="#FF4966"/>
<path d="M209.303 483.148L212.834 477.354L196.677 467.452C189.325 463.085 180.596 461.651 172.234 463.436C141.096 468.883 107.605 506.045 97.7025 546.53C90.778 574.875 97.0331 597.31 112.175 606.266L128.332 616.099L131.84 610.375C133.241 610.281 134.636 610.111 136.018 609.867C167.156 604.443 200.509 567.281 210.526 526.772C214.75 509.392 214.035 494.319 209.303 483.148Z" fill="#F5E3DE"/>
<path d="M188.978 473.682C157.84 479.106 124.464 516.268 114.47 556.776C104.475 597.285 121.579 625.56 152.716 620.136C183.854 614.712 217.345 577.55 227.247 537.042C237.149 496.533 220.115 468.258 188.978 473.682Z" fill="white"/>
<path d="M188.978 473.682C157.84 479.106 124.464 516.268 114.47 556.776C104.475 597.285 121.579 625.56 152.716 620.136C183.854 614.712 217.345 577.55 227.247 537.042C237.149 496.533 220.115 468.258 188.978 473.682ZM216.422 538.911C208.32 571.572 181.361 601.717 156.202 605.987C131.042 610.257 117.193 587.521 125.295 554.791C133.397 522.061 160.333 492.124 185.492 487.739C210.651 483.353 224.501 506.274 216.422 538.911Z" fill="#EECDC5"/>
<path d="M181.726 502.938C163.03 506.193 142.995 528.513 136.994 552.772C130.993 577.031 141.264 594.065 159.96 590.811C178.657 587.556 198.692 565.236 204.67 540.954C210.648 516.672 200.423 499.684 181.726 502.938ZM193.66 542.893C189.597 559.235 176.118 574.261 163.515 576.454C150.912 578.647 143.988 567.221 148.05 550.833C152.113 534.445 165.592 519.465 178.056 517.272C190.521 515.08 197.745 526.551 193.66 542.893Z" fill="#EECDC5"/>
<path d="M182.972 544.763C180.825 553.442 173.739 561.451 166.953 562.605C160.167 563.759 156.566 557.689 158.713 548.987C160.859 540.285 167.946 532.299 174.87 531.122C181.795 529.944 185.142 536.061 182.972 544.763Z" fill="#FF448A"/>
<path d="M214.904 575.227L213.773 586.306L242.118 603.248L243.618 592.261L214.904 575.227Z" fill="#789530"/>
<path d="M247.624 593.135C247.258 593.68 246.691 594.059 246.047 594.188C245.403 594.318 244.734 594.188 244.185 593.827L170.831 550.941C170.243 550.635 169.797 550.113 169.586 549.484C169.375 548.856 169.416 548.17 169.7 547.571C170.067 547.026 170.633 546.647 171.277 546.518C171.921 546.388 172.591 546.518 173.139 546.879L246.516 589.834C247.087 590.14 247.519 590.651 247.725 591.265C247.931 591.878 247.895 592.547 247.624 593.135Z" fill="#845310"/>
<path d="M215.961 572.824L225.194 566.5L253.63 583.211L244.698 589.813L215.961 572.824Z" fill="#92B93B"/>
<path d="M312.587 105.69L317.896 96.9652L293.429 82.0313C283.527 75.8223 271.063 73.468 256.498 76.007C209.55 84.1779 159.255 140.22 144.159 201.133C133.565 243.881 143.144 277.649 165.971 291.152L190.254 305.971L195.516 297.338C197.57 297.176 199.671 296.923 201.817 296.553C248.766 288.382 299.061 232.363 314.156 171.404C320.712 145.345 319.627 122.54 312.587 105.69Z" fill="#009F3B"/>
<path d="M281.851 91.4151C234.902 99.6091 184.584 155.629 169.512 216.564C154.439 277.5 180.245 320.271 227.216 312.077C274.187 303.883 324.436 247.863 339.532 186.927C354.627 125.992 328.799 83.2441 281.851 91.4151Z" fill="#00CF55"/>
<path d="M296.833 206.684C298.218 206.13 299.556 205.622 300.826 205.23L287.277 197.844C285.984 198.259 284.645 198.744 283.261 199.321C282.822 199.483 282.36 199.736 281.899 199.921C280.952 200.314 280.029 200.706 279.06 201.168H278.875L292.424 208.554C293.417 208.069 294.34 207.677 295.286 207.261L296.833 206.684Z" fill="#6C1857"/>
<path d="M268.032 223.555C266.279 228.381 264.188 233.078 261.777 237.611C260.387 240.253 258.845 242.811 257.16 245.275L256.422 246.29L269.994 253.653L270.709 252.638C272.403 250.18 273.944 247.62 275.326 244.975C277.751 240.456 279.842 235.765 281.581 230.941L268.032 223.555Z" fill="#9E7949"/>
<path d="M281.588 230.938L268.039 223.552C269.424 219.766 270.693 215.773 271.801 211.688L285.35 219.051C284.242 223.159 282.988 227.122 281.588 230.938Z" fill="#9E7949"/>
<mask id="mask2_1076_4848" style="mask-type:luminance" maskUnits="userSpaceOnUse" x="247" y="252" width="17" height="10">
<path d="M260.736 261.917L247.188 254.554L248.48 253.585C248.942 253.239 249.38 252.846 249.819 252.5L263.368 259.863C262.929 260.209 262.491 260.625 262.052 260.971C261.614 261.317 261.152 261.594 260.736 261.917Z" fill="white"/>
</mask>
<g mask="url(#mask2_1076_4848)">
<path d="M260.736 261.917L247.188 254.554L248.48 253.585C248.942 253.239 249.38 252.846 249.819 252.5L263.368 259.863C262.929 260.209 262.491 260.625 262.052 260.971C261.614 261.317 261.152 261.594 260.736 261.917Z" fill="#CDAE85"/>
</g>
<mask id="mask3_1076_4848" style="mask-type:luminance" maskUnits="userSpaceOnUse" x="262" y="203" width="26" height="16">
<path d="M275.565 218.303L262.016 210.917C266.078 208.216 269.979 205.885 273.557 203.992L287.106 211.355C283.528 213.271 279.627 215.579 275.565 218.303Z" fill="white"/>
</mask>
<g mask="url(#mask3_1076_4848)">
<path d="M275.565 218.303L262.016 210.917C266.078 208.216 269.979 205.885 273.557 203.992L287.106 211.355C283.459 213.34 279.558 215.648 275.565 218.28" fill="#CDAE85"/>
</g>
<path d="M256.014 221.664C255.209 231.675 253.305 241.568 250.336 251.163C250.151 251.67 249.989 252.109 249.805 252.501L263.354 259.864C263.556 259.437 263.734 258.997 263.885 258.549C266.851 248.953 268.755 239.061 269.563 229.05L256.014 221.664Z" fill="#9E7949"/>
<mask id="mask4_1076_4848" style="mask-type:luminance" maskUnits="userSpaceOnUse" x="273" y="179" width="18" height="33">
<path d="M287.174 211.302L273.625 203.939C275.298 195.96 276.279 187.851 276.556 179.703L290.105 187.066C289.841 195.215 288.86 203.325 287.174 211.302Z" fill="white"/>
</mask>
<g mask="url(#mask4_1076_4848)">
<path d="M287.174 211.302L273.625 203.939C275.298 195.96 276.279 187.851 276.556 179.703L290.105 187.066C289.841 195.215 288.86 203.325 287.174 211.302Z" fill="#9E7949"/>
</g>
<path d="M295.572 176.277L282 168.891L294.418 159.289L307.967 166.675L295.572 176.277Z" fill="#CDAE85"/>
<path d="M240.62 258.472H240.112C239.428 258.529 238.741 258.529 238.058 258.472H237.435C236.975 258.431 236.52 258.354 236.073 258.241L235.403 258.08L234.042 257.572C233.765 257.434 233.464 257.341 233.188 257.18L246.737 264.566L247.175 264.774L246.852 264.612L247.152 264.774L247.567 264.935C248.004 265.128 248.451 265.298 248.906 265.443C249.034 265.475 249.158 265.522 249.275 265.581H249.622C250.064 265.675 250.511 265.744 250.96 265.789H251.607C252.283 265.846 252.962 265.846 253.638 265.789H254.146L240.62 258.472Z" fill="#CDAE85"/>
<mask id="mask5_1076_4848" style="mask-type:luminance" maskUnits="userSpaceOnUse" x="235" y="237" width="20" height="29">
<path d="M254.16 265.826L240.611 258.463C238.303 254.008 236.664 246.368 235.672 237.828L249.221 245.191C250.236 253.731 251.806 261.371 254.16 265.826Z" fill="white"/>
</mask>
<g mask="url(#mask5_1076_4848)">
<path d="M254.16 265.826L240.611 258.463C238.303 254.008 236.664 246.368 235.672 237.828L249.221 245.191C250.236 253.731 251.806 261.348 254.16 265.826Z" fill="#9E7949"/>
</g>
<mask id="mask6_1076_4848" style="mask-type:luminance" maskUnits="userSpaceOnUse" x="240" y="214" width="31" height="21">
<path d="M253.994 234.498L240.445 227.112C243.077 224.804 245.754 222.703 248.524 220.58C251.294 218.456 253.994 216.471 256.626 214.602L270.175 221.965C267.543 223.857 264.843 225.796 262.073 227.943C259.303 230.089 256.649 232.398 253.994 234.498Z" fill="white"/>
</mask>
<g mask="url(#mask6_1076_4848)">
<path d="M253.994 234.498L240.445 227.112C243.077 224.804 245.754 222.703 248.524 220.58C251.294 218.456 253.994 216.471 256.626 214.602L270.175 221.965C267.543 223.857 264.843 225.796 262.073 227.943C259.303 230.089 256.649 232.282 253.994 234.498Z" fill="#CDAE85"/>
</g>
<mask id="mask7_1076_4848" style="mask-type:luminance" maskUnits="userSpaceOnUse" x="256" y="194" width="16" height="28">
<path d="M270.174 221.958L256.625 214.595C257.133 208.455 257.41 201.669 257.502 194.398L271.051 201.762C270.959 209.055 270.682 215.818 270.174 221.958Z" fill="white"/>
</mask>
<g mask="url(#mask7_1076_4848)">
<path d="M270.174 221.958L256.625 214.595C257.133 208.455 257.41 201.669 257.502 194.398L271.051 201.762C271.051 209.055 270.682 215.818 270.174 221.958Z" fill="#9E7949"/>
</g>
<path d="M276.541 190.982L262.992 183.596L276.587 173.117L290.136 180.48L276.541 190.982Z" fill="#CDAE85"/>
<mask id="mask8_1076_4848" style="mask-type:luminance" maskUnits="userSpaceOnUse" x="286" y="137" width="22" height="30">
<path d="M307.956 166.67L294.407 159.284C293.945 149.543 291.268 142.203 286.836 137.656L300.385 145.042C304.817 149.566 307.494 156.906 307.956 166.67Z" fill="white"/>
</mask>
<g mask="url(#mask8_1076_4848)">
<path d="M307.956 166.67L294.407 159.284C293.945 149.543 291.268 142.203 286.836 137.656L300.385 145.042C304.817 149.659 307.494 156.906 307.956 166.67Z" fill="#9E7949"/>
</g>
<mask id="mask9_1076_4848" style="mask-type:luminance" maskUnits="userSpaceOnUse" x="220" y="253" width="22" height="18">
<path d="M241.221 270.952L227.741 263.588C224.292 260.842 221.638 257.224 220.055 253.109L233.604 260.472C235.17 264.578 237.799 268.195 241.221 270.952Z" fill="white"/>
</mask>
<g mask="url(#mask9_1076_4848)">
<path d="M241.221 270.952L227.741 263.588C224.292 260.842 221.638 257.224 220.055 253.109L233.604 260.472C235.189 264.586 237.842 268.203 241.29 270.952" fill="#9E7949"/>
</g>
<path d="M227.767 263.604H227.26C226.243 263.749 225.217 263.826 224.19 263.835H223.474C222.516 263.837 221.56 263.768 220.612 263.627H220.381C219.599 263.502 218.827 263.317 218.073 263.073C217.419 262.879 216.779 262.64 216.157 262.358C215.673 262.15 215.165 261.988 214.703 261.734L228.275 269.121H228.437L228.875 269.374L229.383 269.536C229.991 269.812 230.616 270.051 231.253 270.252C231.576 270.252 231.876 270.505 232.199 270.598C232.776 270.736 233.353 270.852 233.953 270.944H234.161C235.11 271.073 236.066 271.142 237.023 271.152H237.739C238.765 271.131 239.79 271.053 240.809 270.921H241.316L227.767 263.604Z" fill="#CDAE85"/>
<mask id="mask10_1076_4848" style="mask-type:luminance" maskUnits="userSpaceOnUse" x="273" y="152" width="18" height="29">
<path d="M290.07 180.465L276.521 173.102C276.463 166.06 275.39 159.064 273.336 152.328L286.885 159.691C288.939 166.427 290.012 173.423 290.07 180.465Z" fill="white"/>
</mask>
<g mask="url(#mask10_1076_4848)">
<path d="M290.07 180.465L276.521 173.102C276.463 166.06 275.39 159.064 273.336 152.328L286.885 159.691C288.939 166.427 290.012 173.423 290.07 180.465Z" fill="#9E7949"/>
</g>
<mask id="mask11_1076_4848" style="mask-type:luminance" maskUnits="userSpaceOnUse" x="223" y="231" width="26" height="20">
<path d="M236.994 250.061L223.445 242.698C227.115 239.028 230.993 235.335 234.986 231.734L248.558 239.097C244.542 242.721 240.664 246.391 236.994 250.061Z" fill="white"/>
</mask>
<g mask="url(#mask11_1076_4848)">
<path d="M235.079 231.734L233.232 233.396C229.816 236.466 226.561 239.582 223.445 242.629L236.994 249.992C240.11 246.899 243.365 243.76 246.781 240.759L248.651 239.097L235.079 231.734Z" fill="#CDAE85"/>
</g>
<path d="M296.87 142.23L283.321 134.844L281.013 137.429C279.651 138.975 278.243 140.522 276.789 142.045L290.338 149.408C291.785 147.87 293.192 146.331 294.562 144.792C294.747 144.561 294.977 144.33 295.162 144.123L296.87 142.23Z" fill="#9E7949"/>
<mask id="mask12_1076_4848" style="mask-type:luminance" maskUnits="userSpaceOnUse" x="209" y="248" width="23" height="18">
<path d="M223.315 265.168L209.766 257.805C212.366 254.635 215.182 251.435 218.214 248.203L231.763 255.566C228.739 258.775 225.923 262.006 223.315 265.168Z" fill="white"/>
</mask>
<g mask="url(#mask12_1076_4848)">
<path d="M218.214 248.195C216.852 249.649 215.513 251.104 214.243 252.558C212.974 254.012 211.197 256.066 209.766 257.797L223.315 265.183C224.746 263.452 226.246 261.675 227.792 259.921C229.339 258.167 230.401 257.013 231.763 255.558L218.214 248.195Z" fill="#CDAE85"/>
</g>
<mask id="mask13_1076_4848" style="mask-type:luminance" maskUnits="userSpaceOnUse" x="234" y="212" width="15" height="28">
<path d="M248.652 239.105L235.08 231.742C234.503 225.118 234.226 218.378 234.18 212.469L247.729 219.855C247.775 225.741 248.052 232.411 248.652 239.105Z" fill="white"/>
</mask>
<g mask="url(#mask13_1076_4848)">
<path d="M248.652 239.105L235.08 231.742C234.503 225.118 234.226 218.378 234.18 212.469L247.729 219.855C247.729 225.741 248.052 232.481 248.652 239.105Z" fill="#9E7949"/>
</g>
<path d="M253.182 209.025L239.633 201.662L257.498 187.836L271.07 195.199L253.182 209.025Z" fill="#CDAE85"/>
<mask id="mask14_1076_4848" style="mask-type:luminance" maskUnits="userSpaceOnUse" x="256" y="167" width="16" height="29">
<path d="M271.074 195.201L257.525 187.838C257.525 180.106 257.132 173.389 256.602 167.711L270.151 175.074C270.681 180.775 271.005 187.469 271.074 195.201Z" fill="white"/>
</mask>
<g mask="url(#mask14_1076_4848)">
<path d="M271.074 195.201L257.525 187.838C257.525 180.106 257.132 173.389 256.602 167.711L270.151 175.074C270.681 180.775 271.005 187.469 271.074 195.201Z" fill="#9E7949"/>
</g>
<path d="M280.502 159.296C282.048 157.842 283.549 156.388 285.118 154.956L271.569 147.57C270.092 149.024 268.569 150.502 266.953 151.956L265.476 153.341C264.114 154.587 262.775 155.834 261.367 157.057L274.916 164.443L276.647 162.897L278.955 160.773L280.502 159.296Z" fill="#CDAE85"/>
<mask id="mask15_1076_4848" style="mask-type:luminance" maskUnits="userSpaceOnUse" x="263" y="138" width="22" height="17">
<path d="M263.922 138.75L277.494 146.136C280.846 148.218 283.468 151.292 284.996 154.93L271.447 147.544C269.911 143.903 267.282 140.83 263.922 138.75Z" fill="white"/>
</mask>
<g mask="url(#mask15_1076_4848)">
<path d="M284.996 154.93L271.447 147.544C269.911 143.903 267.282 140.83 263.922 138.75L277.494 146.136C280.846 148.218 283.468 151.292 284.996 154.93Z" fill="#9E7949"/>
</g>
<mask id="mask16_1076_4848" style="mask-type:luminance" maskUnits="userSpaceOnUse" x="215" y="227" width="17" height="29">
<path d="M231.752 255.485L218.203 248.122C216.251 241.288 215.226 234.224 215.156 227.117L228.728 234.48C228.778 241.586 229.796 248.653 231.752 255.485Z" fill="white"/>
</mask>
<g mask="url(#mask16_1076_4848)">
<path d="M231.752 255.485L218.203 248.122C216.251 241.288 215.226 234.224 215.156 227.117L228.728 234.48C228.778 241.586 229.796 248.653 231.752 255.485Z" fill="#9E7949"/>
</g>
<path d="M234.143 223.748L220.594 216.385L234.166 205.883L247.715 213.246L234.143 223.748Z" fill="#CDAE85"/>
<mask id="mask17_1076_4848" style="mask-type:luminance" maskUnits="userSpaceOnUse" x="241" y="161" width="29" height="20">
<path d="M254.877 180.392L241.328 173.005C243.636 171.32 246.152 169.543 248.645 167.604C251.138 165.665 253.585 163.68 255.962 161.695L269.534 169.081C267.226 171.043 264.71 173.028 262.194 174.99C259.678 176.952 257.278 178.683 254.877 180.392Z" fill="white"/>
</mask>
<g mask="url(#mask17_1076_4848)">
<path d="M254.877 180.392L241.328 173.005C243.636 171.32 246.152 169.543 248.645 167.604C251.138 165.665 253.585 163.68 255.962 161.695L269.534 169.081C267.226 171.043 264.71 173.028 262.194 174.99C259.678 176.952 257.278 178.683 254.877 180.392Z" fill="#CDAE85"/>
</g>
<mask id="mask18_1076_4848" style="mask-type:luminance" maskUnits="userSpaceOnUse" x="234" y="183" width="15" height="31">
<path d="M247.729 213.264L234.18 205.901C234.18 199.507 234.595 191.821 235.265 183.766L248.837 191.152C248.144 199.184 247.844 206.894 247.729 213.264Z" fill="white"/>
</mask>
<g mask="url(#mask18_1076_4848)">
<path d="M247.729 213.264L234.18 205.901C234.18 199.507 234.595 191.821 235.265 183.766L248.837 191.152C248.144 199.184 247.844 206.894 247.729 213.264Z" fill="#9E7949"/>
</g>
<path d="M216.291 237.582L202.742 230.196L215.183 220.594L228.732 227.957L216.291 237.582Z" fill="#CDAE85"/>
<mask id="mask19_1076_4848" style="mask-type:luminance" maskUnits="userSpaceOnUse" x="250" y="141" width="20" height="29">
<path d="M269.512 169.053L255.94 161.666C254.347 149.341 251.877 142.97 250.008 141.539L263.557 148.902C265.426 150.333 267.896 156.727 269.512 169.053Z" fill="white"/>
</mask>
<g mask="url(#mask19_1076_4848)">
<path d="M269.512 169.053L255.94 161.666C254.347 149.341 251.877 142.97 250.008 141.539L263.557 148.902C265.426 150.333 267.896 156.727 269.512 169.053Z" fill="#9E7949"/>
</g>
<mask id="mask20_1076_4848" style="mask-type:luminance" maskUnits="userSpaceOnUse" x="225" y="176" width="25" height="15">
<path d="M239.283 190.183L225.734 182.819C228.897 181.088 232.29 179.034 235.867 176.68L249.416 184.043C245.908 186.397 242.538 188.544 239.283 190.183Z" fill="white"/>
</mask>
<g mask="url(#mask20_1076_4848)">
<path d="M239.283 190.183L225.734 182.819C228.897 181.088 232.29 179.034 235.867 176.68L249.416 184.043C245.839 186.351 242.492 188.474 239.283 190.183Z" fill="#CDAE85"/>
</g>
<mask id="mask21_1076_4848" style="mask-type:luminance" maskUnits="userSpaceOnUse" x="215" y="193" width="18" height="35">
<path d="M228.736 227.967L215.188 220.604C215.449 211.448 216.57 202.337 218.534 193.391L232.083 200.754C230.12 209.7 228.999 218.811 228.736 227.967Z" fill="white"/>
</mask>
<g mask="url(#mask21_1076_4848)">
<path d="M228.736 227.967L215.188 220.604C215.449 211.448 216.57 202.337 218.534 193.391L232.083 200.754C230.089 209.697 228.937 218.808 228.644 227.967" fill="#9E7949"/>
</g>
<mask id="mask22_1076_4848" style="mask-type:luminance" maskUnits="userSpaceOnUse" x="235" y="149" width="20" height="36">
<path d="M249.502 184.066L235.953 176.703C236.814 167.627 238.435 158.64 240.8 149.836L254.372 157.199C251.988 166 250.359 174.988 249.502 184.066Z" fill="white"/>
</mask>
<g mask="url(#mask22_1076_4848)">
<path d="M249.502 184.066L235.953 176.703C236.814 167.627 238.435 158.64 240.8 149.836L254.372 157.199C251.988 166 250.359 174.988 249.502 184.066Z" fill="#9E7949"/>
</g>
<mask id="mask23_1076_4848" style="mask-type:luminance" maskUnits="userSpaceOnUse" x="220" y="164" width="22" height="29">
<path d="M234.049 192.985L220.5 185.599C222.416 178.443 224.878 171.444 227.863 164.664L241.412 172.027C238.43 178.817 235.969 185.823 234.049 192.985Z" fill="white"/>
</mask>
<g mask="url(#mask23_1076_4848)">
<path d="M227.863 164.664C226.686 167.318 225.555 170.088 224.516 172.927C223.016 177.013 221.677 181.26 220.5 185.599L234.049 192.985C235.226 188.623 236.565 184.376 238.065 180.29C239.127 177.451 240.235 174.705 241.412 172.027L227.863 164.664Z" fill="#9E7949"/>
</g>
<mask id="mask24_1076_4848" style="mask-type:luminance" maskUnits="userSpaceOnUse" x="213" y="185" width="21" height="11">
<path d="M227.524 195.805L213.906 188.534C215.937 187.749 218.13 186.78 220.438 185.672L233.987 193.058C231.748 194.051 229.556 195.043 227.524 195.805Z" fill="white"/>
</mask>
<g mask="url(#mask24_1076_4848)">
<path d="M220.517 185.586L220.216 185.748C217.908 186.786 215.923 187.709 213.984 188.448L227.533 195.811C229.472 195.073 231.55 194.149 233.765 193.111L234.066 192.972L220.517 185.586Z" fill="#CDAE85"/>
</g>
<path d="M300.831 205.21C304.823 194.98 307.228 184.199 307.963 173.242L295.545 182.844C295.241 191.514 294.183 200.14 292.383 208.627C295.101 207.294 297.908 206.152 300.785 205.21" fill="#9E7949"/>
<path d="M282.866 238.812C288.574 230.859 293.469 222.353 297.477 213.422C295.12 214.287 292.808 215.273 290.552 216.376C288.547 224.043 285.954 231.543 282.797 238.812" fill="#9E7949"/>
<path d="M270.377 135.464L271.462 134.841C272.847 134.056 274.208 133.317 275.547 132.694L275.847 132.555C276.771 132.117 277.694 131.725 278.594 131.378L279.448 131.055L281.572 130.317L282.656 130.016L284.457 129.532C285.403 129.324 286.349 129.139 287.273 129.024C288.45 128.854 289.638 128.762 290.827 128.747H291.635C292.747 128.76 293.858 128.845 294.959 129.001H295.328C296.313 129.174 297.284 129.413 298.237 129.716L298.767 129.878C299.826 130.239 300.853 130.686 301.837 131.217L288.288 123.923L287.55 123.53C286.8 123.169 286.029 122.852 285.242 122.584L284.711 122.423C284.341 122.423 283.972 122.169 283.603 122.076C283.233 121.984 282.402 121.822 281.802 121.707H281.433C280.332 121.551 279.222 121.466 278.109 121.453H277.301C276.113 121.471 274.926 121.556 273.747 121.707C272.824 121.846 271.877 122.007 270.931 122.238C270.354 122.353 269.731 122.538 269.13 122.723L268.046 123C267.33 123.23 266.615 123.507 265.922 123.761L265.068 124.061C264.168 124.408 263.245 124.823 262.321 125.262H262.021C260.683 125.908 259.321 126.623 257.936 127.408L256.851 128.055C255.605 128.793 254.358 129.601 253.089 130.363L252.719 130.594C251.565 131.401 250.411 132.255 249.234 133.156C247.341 134.61 245.495 136.156 243.671 137.772C241.986 139.272 240.324 140.888 238.686 142.55L237.416 143.912C236.285 145.089 235.108 146.22 234.092 147.489L233.792 147.836C232.707 149.082 231.646 150.398 230.584 151.69C229.984 152.429 229.361 153.167 228.76 153.998C227.514 155.568 226.314 157.23 225.137 158.869C224.767 159.4 224.352 159.884 224.006 160.392C222.298 162.839 220.659 165.355 219.066 167.917C218.558 168.725 218.074 169.556 217.589 170.363C216.504 172.164 215.465 173.987 214.45 175.811L213.665 177.173L212.257 179.919L211.403 181.558C210.318 183.728 209.279 185.897 208.31 188.09C208.172 188.367 208.079 188.621 207.964 188.898C207.087 190.814 206.302 192.753 205.517 194.715L204.755 196.654C204.478 197.346 204.201 198.038 203.948 198.731C203.532 199.839 203.163 201.039 202.793 202.055C202.655 202.447 202.493 202.863 202.378 203.278C201.639 205.448 200.97 207.64 200.37 209.81C200.231 210.295 200.116 210.78 199.978 211.264C199.493 213.042 199.054 214.819 198.662 216.573C198.662 217.104 198.408 217.635 198.316 218.166C197.854 220.289 197.462 222.413 197.138 224.513L197 225.506C196.738 227.306 196.531 229.083 196.377 230.838C196.377 231.392 196.377 231.946 196.238 232.499C196.077 234.554 195.984 236.562 195.984 238.547C195.984 255.281 201.247 266.43 209.833 271.161L223.382 278.525C214.704 273.908 209.395 262.667 209.533 245.91C209.533 243.948 209.533 241.917 209.787 239.886L209.926 238.224C210.08 236.47 210.287 234.692 210.549 232.892L210.687 231.876C211.011 229.776 211.403 227.675 211.865 225.529L212.211 223.959C212.611 222.174 213.049 220.397 213.527 218.627C213.665 218.143 213.78 217.658 213.919 217.173C214.519 215.004 215.188 212.834 215.927 210.641C215.927 210.226 216.204 209.833 216.342 209.418C216.966 207.617 217.612 205.817 218.304 204.017L219.066 202.078C219.851 200.139 220.659 198.2 221.513 196.261C221.513 196.007 221.721 195.73 221.859 195.476C222.828 193.168 223.89 191.091 224.952 188.944C225.252 188.39 225.529 187.836 225.806 187.282C226.522 185.92 227.26 184.559 228.114 183.197C229.13 181.35 230.192 179.527 231.276 177.726C231.761 176.919 232.223 176.088 232.731 175.418C234.323 172.856 235.962 170.317 237.67 167.871C238.016 167.386 238.409 166.901 238.755 166.393C239.978 164.708 241.202 163.023 242.471 161.408C243.048 160.646 243.671 159.954 244.271 159.099C245.356 157.784 246.418 156.445 247.526 155.199C248.634 153.952 249.834 152.59 251.081 151.321C251.542 150.859 251.958 150.375 252.419 149.913C254.081 148.205 255.766 146.589 257.474 145.066C259.298 143.427 261.144 141.857 263.037 140.449C264.191 139.549 265.345 138.695 266.522 137.91L267.007 137.587C267.884 137.01 269.13 136.202 270.377 135.464Z" fill="#E1CAAA"/>
<path d="M286.891 129.373C303.857 127.065 315.444 139.529 315.397 164.273C315.397 199.75 291.392 247.067 262.009 269.78C253.123 276.704 244.744 280.49 237.381 281.528C220.416 283.836 208.829 271.372 208.875 246.629C208.875 211.175 232.88 163.834 262.263 141.122C271.15 134.267 279.528 130.412 286.891 129.373ZM253.146 209.051L271.034 195.202C271.034 187.493 270.665 180.776 270.111 175.098C267.526 177.291 264.871 179.461 262.125 181.561C259.378 183.662 256.747 185.6 254.138 187.47C253.608 193.956 253.238 201.204 253.146 209.028M223.924 204.158C219.598 214.828 216.996 226.117 216.215 237.604L228.656 228.002C228.971 218.845 230.122 209.736 232.095 200.788C229.432 202.076 226.696 203.209 223.901 204.181M271.011 201.873L253.123 215.722C253.123 222.877 253.469 229.156 253.954 234.58C256.585 232.272 259.263 230.171 262.032 228.025C264.802 225.878 267.48 223.939 270.134 222.07C270.619 215.93 270.919 209.144 271.011 201.873ZM300.787 205.289C304.771 195.056 307.176 184.277 307.919 173.321L295.501 182.923C295.199 191.575 294.157 200.185 292.385 208.659C295.113 207.332 297.928 206.191 300.81 205.243M269.88 253.715C277.035 243.181 282.257 231.457 285.299 219.092C282.044 220.846 278.582 222.97 274.889 225.393C274.034 234.952 272.359 244.42 269.88 253.692M307.942 166.696C307.457 156.956 304.78 149.616 300.371 145.069C297.832 148.116 295.086 151.209 292.177 154.302C294.325 161.424 295.451 168.814 295.524 176.252L307.942 166.65M263.325 259.854C265.264 255.4 267.941 244.644 269.534 229.017C267.087 230.748 264.618 232.526 262.032 234.511C259.447 236.496 257.001 238.527 254.577 240.581C256.17 253.692 258.755 260.408 260.671 261.886L261.986 260.939C262.448 260.593 262.863 260.201 263.325 259.854ZM216.215 244.182C216.677 253.53 219.17 260.593 223.14 265.186C225.725 262.032 228.541 258.831 231.588 255.584C229.636 248.751 228.611 241.686 228.541 234.58L216.215 244.182ZM254.3 157.21C247.431 167.272 242.355 178.447 239.297 190.24C242.459 188.509 245.852 186.431 249.407 184.1C250.275 175.016 251.904 166.021 254.277 157.21M247.653 213.299C247.653 206.905 248.068 199.219 248.737 191.163C244.721 193.825 240.913 196.133 237.312 198.088C235.446 206.533 234.364 215.133 234.08 223.778L247.653 213.299ZM260.832 150.978C258.939 155.294 256.447 165.542 254.785 180.384C257.093 178.676 259.609 176.922 262.102 174.983C264.595 173.044 267.041 171.059 269.419 169.074C267.826 156.748 265.333 150.378 263.487 148.947C263.025 149.27 262.586 149.524 262.148 149.87C261.709 150.216 261.271 150.632 260.832 150.978ZM276.459 190.978L290.031 180.499C289.991 173.458 288.925 166.46 286.868 159.726C283.268 163.303 279.482 166.904 275.466 170.436C276.089 177.36 276.389 184.7 276.459 190.932M290.031 187.031L276.435 197.534C276.435 203.535 276.066 210.713 275.466 218.307C279.544 215.614 283.391 213.306 287.007 211.383C288.698 203.406 289.686 195.296 289.961 187.147M248.414 239.196C247.837 232.572 247.56 225.832 247.491 219.923L233.942 230.425C234.005 237.101 234.96 243.738 236.781 250.16C240.451 246.49 244.306 242.797 248.322 239.196M282.529 238.896C288.24 230.941 293.142 222.435 297.163 213.506C295.062 214.245 292.731 215.284 290.238 216.438C288.24 224.114 285.647 231.622 282.483 238.896M253.308 265.994H253.792C251.484 261.539 249.868 253.899 248.853 245.359C245.183 248.637 241.697 251.914 238.443 255.169C241.951 262.97 247.191 266.917 253.308 266.063M241.074 172.19C235.709 179.662 231.072 187.631 227.225 195.987C229.233 195.202 231.426 194.233 233.734 193.125C235.658 185.968 238.128 178.97 241.12 172.19M270.319 145.069H269.811C272.423 151.244 274.028 157.798 274.566 164.481C278.144 161.341 281.49 158.133 284.699 154.994C281.213 147.792 276.205 144.146 270.319 144.977M240.313 271.095H240.82C237.371 268.344 234.711 264.728 233.111 260.616C230.664 263.224 228.356 265.81 226.186 268.302C230.338 271.029 235.38 272.054 240.266 271.165M283.083 139.922H282.552C285.757 142.45 288.273 145.744 289.869 149.501C292.177 147.054 294.347 144.63 296.378 142.276C292.362 139.949 287.648 139.131 283.083 139.968" fill="white"/>
<path d="M442.838 618.368L463.658 611.328L452.164 619.499L431.344 626.539L442.838 618.368Z" fill="#939598"/>
</g>
<defs>
<clipPath id="clip0_1076_4848">
<rect width="1080" height="1080" fill="white"/>
</clipPath>
</defs>
</svg>
