<svg width="1016" height="664" viewBox="0 0 1016 664" fill="none" xmlns="http://www.w3.org/2000/svg">
<rect width="1016" height="664" fill="white"/>
<path d="M147 83L147 552" stroke="#58595B" stroke-miterlimit="2.6131"/>
<path d="M325.94 120H318.348L318.396 115.142H325.94C328.138 115.142 329.977 114.661 331.458 113.701C332.955 112.741 334.078 111.366 334.827 109.575C335.592 107.785 335.975 105.653 335.975 103.179V101.25C335.975 99.3294 335.755 97.6286 335.315 96.1475C334.892 94.6663 334.257 93.4212 333.411 92.4121C332.581 91.403 331.556 90.638 330.335 90.1172C329.131 89.5964 327.739 89.3359 326.16 89.3359H318.201V84.4531H326.16C328.52 84.4531 330.677 84.8519 332.63 85.6494C334.583 86.4307 336.268 87.5618 337.684 89.043C339.116 90.5241 340.215 92.2982 340.979 94.3652C341.744 96.4323 342.127 98.7435 342.127 101.299V103.179C342.127 105.734 341.744 108.045 340.979 110.112C340.215 112.179 339.116 113.953 337.684 115.435C336.251 116.899 334.542 118.031 332.557 118.828C330.587 119.609 328.382 120 325.94 120ZM321.741 84.4531V120H315.613V84.4531H321.741ZM355.359 117.119L362.537 93.584H368.836L358.24 124.028C357.996 124.679 357.679 125.387 357.288 126.152C356.897 126.917 356.385 127.642 355.75 128.325C355.132 129.025 354.358 129.587 353.431 130.01C352.503 130.449 351.38 130.669 350.062 130.669C349.541 130.669 349.036 130.62 348.548 130.522C348.076 130.441 347.628 130.352 347.205 130.254L347.181 125.762C347.343 125.778 347.539 125.794 347.767 125.811C348.011 125.827 348.206 125.835 348.353 125.835C349.329 125.835 350.143 125.713 350.794 125.469C351.445 125.241 351.974 124.867 352.381 124.346C352.804 123.825 353.162 123.125 353.455 122.246L355.359 117.119ZM351.307 93.584L357.581 113.359L358.631 119.561L354.554 120.61L344.959 93.584H351.307ZM378.04 99.2236V120H372.156V93.584H377.698L378.04 99.2236ZM376.99 105.815L375.086 105.791C375.102 103.919 375.363 102.202 375.867 100.64C376.388 99.0771 377.104 97.7344 378.016 96.6113C378.943 95.4883 380.05 94.6257 381.336 94.0234C382.622 93.4049 384.054 93.0957 385.633 93.0957C386.902 93.0957 388.05 93.2747 389.075 93.6328C390.117 93.9746 391.004 94.5361 391.736 95.3174C392.485 96.0986 393.055 97.1159 393.445 98.3691C393.836 99.6061 394.031 101.128 394.031 102.935V120H388.123V102.91C388.123 101.641 387.936 100.64 387.562 99.9072C387.203 99.1585 386.674 98.6296 385.975 98.3203C385.291 97.9948 384.437 97.832 383.411 97.832C382.402 97.832 381.499 98.0436 380.701 98.4668C379.904 98.89 379.228 99.4678 378.675 100.2C378.138 100.933 377.723 101.779 377.43 102.739C377.137 103.7 376.99 104.725 376.99 105.815ZM414.93 114.702V102.104C414.93 101.16 414.759 100.347 414.417 99.6631C414.075 98.9795 413.554 98.4505 412.854 98.0762C412.171 97.7018 411.308 97.5146 410.267 97.5146C409.306 97.5146 408.476 97.6774 407.776 98.0029C407.076 98.3285 406.531 98.7679 406.141 99.3213C405.75 99.8747 405.555 100.501 405.555 101.201H399.695C399.695 100.16 399.948 99.1504 400.452 98.1738C400.957 97.1973 401.689 96.3265 402.649 95.5615C403.61 94.7965 404.757 94.1943 406.092 93.7549C407.426 93.3154 408.924 93.0957 410.584 93.0957C412.57 93.0957 414.327 93.4294 415.857 94.0967C417.404 94.764 418.616 95.7731 419.495 97.124C420.39 98.4587 420.838 100.135 420.838 102.153V113.896C420.838 115.101 420.919 116.183 421.082 117.144C421.261 118.088 421.513 118.91 421.839 119.609V120H415.809C415.532 119.365 415.312 118.56 415.149 117.583C415.003 116.59 414.93 115.63 414.93 114.702ZM415.784 103.936L415.833 107.573H411.609C410.519 107.573 409.559 107.679 408.729 107.891C407.898 108.086 407.207 108.379 406.653 108.77C406.1 109.16 405.685 109.632 405.408 110.186C405.132 110.739 404.993 111.366 404.993 112.065C404.993 112.765 405.156 113.408 405.481 113.994C405.807 114.564 406.279 115.011 406.897 115.337C407.532 115.662 408.297 115.825 409.192 115.825C410.397 115.825 411.447 115.581 412.342 115.093C413.253 114.588 413.969 113.978 414.49 113.262C415.011 112.529 415.288 111.838 415.32 111.187L417.225 113.799C417.029 114.466 416.696 115.182 416.224 115.947C415.752 116.712 415.133 117.445 414.368 118.145C413.619 118.828 412.716 119.39 411.658 119.829C410.617 120.269 409.412 120.488 408.045 120.488C406.32 120.488 404.782 120.146 403.431 119.463C402.08 118.763 401.022 117.827 400.257 116.655C399.492 115.467 399.109 114.124 399.109 112.627C399.109 111.227 399.37 109.99 399.891 108.916C400.428 107.826 401.209 106.914 402.234 106.182C403.276 105.449 404.546 104.896 406.043 104.521C407.54 104.131 409.249 103.936 411.17 103.936H415.784ZM432.874 98.9551V120H426.99V93.584H432.532L432.874 98.9551ZM431.922 105.815L429.92 105.791C429.92 103.968 430.148 102.284 430.604 100.737C431.059 99.1911 431.727 97.8483 432.605 96.709C433.484 95.5534 434.575 94.6663 435.877 94.0479C437.195 93.4131 438.717 93.0957 440.442 93.0957C441.647 93.0957 442.745 93.2747 443.738 93.6328C444.747 93.9746 445.618 94.5199 446.351 95.2686C447.099 96.0173 447.669 96.9775 448.06 98.1494C448.466 99.3213 448.67 100.737 448.67 102.397V120H442.786V102.91C442.786 101.624 442.591 100.615 442.2 99.8828C441.826 99.1504 441.281 98.6296 440.564 98.3203C439.865 97.9948 439.026 97.832 438.05 97.832C436.943 97.832 435.999 98.0436 435.218 98.4668C434.453 98.89 433.826 99.4678 433.338 100.2C432.85 100.933 432.492 101.779 432.264 102.739C432.036 103.7 431.922 104.725 431.922 105.815ZM448.304 104.253L445.545 104.863C445.545 103.268 445.765 101.763 446.204 100.347C446.66 98.9144 447.319 97.6611 448.182 96.5869C449.061 95.4964 450.143 94.6419 451.429 94.0234C452.715 93.4049 454.188 93.0957 455.848 93.0957C457.199 93.0957 458.403 93.2829 459.461 93.6572C460.535 94.0153 461.447 94.585 462.195 95.3662C462.944 96.1475 463.514 97.1647 463.904 98.418C464.295 99.6549 464.49 101.152 464.49 102.91V120H458.582V102.886C458.582 101.551 458.387 100.518 457.996 99.7852C457.622 99.0527 457.085 98.5482 456.385 98.2715C455.685 97.9785 454.847 97.832 453.87 97.832C452.959 97.832 452.153 98.0029 451.453 98.3447C450.77 98.6702 450.192 99.1341 449.72 99.7363C449.248 100.322 448.89 100.998 448.646 101.763C448.418 102.528 448.304 103.358 448.304 104.253ZM476.844 93.584V120H470.936V93.584H476.844ZM470.545 86.6504C470.545 85.7552 470.838 85.0146 471.424 84.4287C472.026 83.8265 472.856 83.5254 473.914 83.5254C474.956 83.5254 475.778 83.8265 476.38 84.4287C476.982 85.0146 477.283 85.7552 477.283 86.6504C477.283 87.5293 476.982 88.2617 476.38 88.8477C475.778 89.4336 474.956 89.7266 473.914 89.7266C472.856 89.7266 472.026 89.4336 471.424 88.8477C470.838 88.2617 470.545 87.5293 470.545 86.6504ZM494.08 115.801C495.04 115.801 495.903 115.614 496.668 115.239C497.449 114.849 498.076 114.312 498.548 113.628C499.036 112.944 499.305 112.155 499.354 111.26H504.896C504.863 112.969 504.358 114.523 503.382 115.923C502.405 117.323 501.111 118.438 499.5 119.268C497.889 120.081 496.106 120.488 494.153 120.488C492.135 120.488 490.377 120.146 488.88 119.463C487.382 118.763 486.137 117.803 485.145 116.582C484.152 115.361 483.403 113.953 482.898 112.358C482.41 110.763 482.166 109.054 482.166 107.231V106.377C482.166 104.554 482.41 102.845 482.898 101.25C483.403 99.6387 484.152 98.2227 485.145 97.002C486.137 95.7812 487.382 94.8291 488.88 94.1455C490.377 93.4456 492.127 93.0957 494.129 93.0957C496.245 93.0957 498.1 93.5189 499.695 94.3652C501.29 95.1953 502.544 96.359 503.455 97.8564C504.383 99.3376 504.863 101.063 504.896 103.032H499.354C499.305 102.056 499.061 101.177 498.621 100.396C498.198 99.598 497.596 98.9632 496.814 98.4912C496.049 98.0192 495.13 97.7832 494.056 97.7832C492.868 97.7832 491.883 98.0273 491.102 98.5156C490.32 98.9876 489.71 99.6387 489.271 100.469C488.831 101.283 488.514 102.202 488.318 103.228C488.139 104.237 488.05 105.286 488.05 106.377V107.231C488.05 108.322 488.139 109.38 488.318 110.405C488.497 111.431 488.807 112.35 489.246 113.164C489.702 113.962 490.32 114.604 491.102 115.093C491.883 115.565 492.876 115.801 494.08 115.801ZM536.756 114.702V102.104C536.756 101.16 536.585 100.347 536.243 99.6631C535.901 98.9795 535.381 98.4505 534.681 98.0762C533.997 97.7018 533.134 97.5146 532.093 97.5146C531.132 97.5146 530.302 97.6774 529.603 98.0029C528.903 98.3285 528.357 98.7679 527.967 99.3213C527.576 99.8747 527.381 100.501 527.381 101.201H521.521C521.521 100.16 521.774 99.1504 522.278 98.1738C522.783 97.1973 523.515 96.3265 524.476 95.5615C525.436 94.7965 526.583 94.1943 527.918 93.7549C529.253 93.3154 530.75 93.0957 532.41 93.0957C534.396 93.0957 536.154 93.4294 537.684 94.0967C539.23 94.764 540.442 95.7731 541.321 97.124C542.216 98.4587 542.664 100.135 542.664 102.153V113.896C542.664 115.101 542.745 116.183 542.908 117.144C543.087 118.088 543.34 118.91 543.665 119.609V120H537.635C537.358 119.365 537.138 118.56 536.976 117.583C536.829 116.59 536.756 115.63 536.756 114.702ZM537.61 103.936L537.659 107.573H533.436C532.345 107.573 531.385 107.679 530.555 107.891C529.725 108.086 529.033 108.379 528.479 108.77C527.926 109.16 527.511 109.632 527.234 110.186C526.958 110.739 526.819 111.366 526.819 112.065C526.819 112.765 526.982 113.408 527.308 113.994C527.633 114.564 528.105 115.011 528.724 115.337C529.358 115.662 530.123 115.825 531.019 115.825C532.223 115.825 533.273 115.581 534.168 115.093C535.079 114.588 535.796 113.978 536.316 113.262C536.837 112.529 537.114 111.838 537.146 111.187L539.051 113.799C538.855 114.466 538.522 115.182 538.05 115.947C537.578 116.712 536.959 117.445 536.194 118.145C535.446 118.828 534.542 119.39 533.484 119.829C532.443 120.269 531.238 120.488 529.871 120.488C528.146 120.488 526.608 120.146 525.257 119.463C523.906 118.763 522.848 117.827 522.083 116.655C521.318 115.467 520.936 114.124 520.936 112.627C520.936 111.227 521.196 109.99 521.717 108.916C522.254 107.826 523.035 106.914 524.061 106.182C525.102 105.449 526.372 104.896 527.869 104.521C529.367 104.131 531.076 103.936 532.996 103.936H537.61ZM554.651 99.2236V120H548.768V93.584H554.31L554.651 99.2236ZM553.602 105.815L551.697 105.791C551.714 103.919 551.974 102.202 552.479 100.64C552.999 99.0771 553.715 97.7344 554.627 96.6113C555.555 95.4883 556.661 94.6257 557.947 94.0234C559.233 93.4049 560.665 93.0957 562.244 93.0957C563.514 93.0957 564.661 93.2747 565.687 93.6328C566.728 93.9746 567.615 94.5361 568.348 95.3174C569.096 96.0986 569.666 97.1159 570.057 98.3691C570.447 99.6061 570.643 101.128 570.643 102.935V120H564.734V102.91C564.734 101.641 564.547 100.64 564.173 99.9072C563.815 99.1585 563.286 98.6296 562.586 98.3203C561.902 97.9948 561.048 97.832 560.022 97.832C559.013 97.832 558.11 98.0436 557.312 98.4668C556.515 98.89 555.84 99.4678 555.286 100.2C554.749 100.933 554.334 101.779 554.041 102.739C553.748 103.7 553.602 104.725 553.602 105.815ZM592.762 114.531V82.5H598.67V120H593.323L592.762 114.531ZM575.574 107.085V106.572C575.574 104.57 575.81 102.747 576.282 101.104C576.754 99.4434 577.438 98.0192 578.333 96.8311C579.228 95.6266 580.319 94.707 581.604 94.0723C582.89 93.4212 584.339 93.0957 585.95 93.0957C587.545 93.0957 588.945 93.4049 590.149 94.0234C591.354 94.6419 592.379 95.529 593.226 96.6846C594.072 97.8239 594.747 99.1911 595.252 100.786C595.757 102.365 596.115 104.123 596.326 106.06V107.695C596.115 109.583 595.757 111.309 595.252 112.871C594.747 114.434 594.072 115.785 593.226 116.924C592.379 118.063 591.346 118.942 590.125 119.561C588.921 120.179 587.513 120.488 585.901 120.488C584.306 120.488 582.866 120.155 581.58 119.487C580.311 118.82 579.228 117.884 578.333 116.68C577.438 115.475 576.754 114.059 576.282 112.432C575.81 110.788 575.574 109.006 575.574 107.085ZM581.458 106.572V107.085C581.458 108.289 581.564 109.412 581.775 110.454C582.003 111.496 582.353 112.415 582.825 113.213C583.297 113.994 583.908 114.613 584.656 115.068C585.421 115.508 586.333 115.728 587.391 115.728C588.725 115.728 589.824 115.435 590.687 114.849C591.549 114.263 592.225 113.473 592.713 112.48C593.217 111.471 593.559 110.348 593.738 109.111V104.692C593.641 103.732 593.437 102.837 593.128 102.007C592.835 101.177 592.436 100.452 591.932 99.834C591.427 99.1992 590.8 98.7109 590.052 98.3691C589.319 98.0111 588.449 97.832 587.439 97.832C586.365 97.832 585.454 98.0599 584.705 98.5156C583.956 98.9714 583.338 99.598 582.85 100.396C582.378 101.193 582.028 102.121 581.8 103.179C581.572 104.237 581.458 105.368 581.458 106.572ZM624.402 84.4531V120H618.274V84.4531H624.402ZM643.543 93.584V97.8809H628.65V93.584H643.543ZM632.947 87.1143H638.831V112.7C638.831 113.514 638.945 114.141 639.173 114.58C639.417 115.003 639.751 115.288 640.174 115.435C640.597 115.581 641.093 115.654 641.663 115.654C642.07 115.654 642.461 115.63 642.835 115.581C643.209 115.532 643.51 115.483 643.738 115.435L643.763 119.927C643.274 120.073 642.705 120.203 642.054 120.317C641.419 120.431 640.687 120.488 639.856 120.488C638.506 120.488 637.309 120.252 636.268 119.78C635.226 119.292 634.412 118.503 633.826 117.412C633.24 116.322 632.947 114.873 632.947 113.066V87.1143ZM659.729 120.488C657.776 120.488 656.01 120.171 654.432 119.536C652.869 118.885 651.535 117.982 650.428 116.826C649.337 115.671 648.499 114.312 647.913 112.749C647.327 111.187 647.034 109.502 647.034 107.695V106.719C647.034 104.652 647.335 102.78 647.938 101.104C648.54 99.4271 649.378 97.9948 650.452 96.8066C651.526 95.6022 652.796 94.6826 654.261 94.0479C655.726 93.4131 657.312 93.0957 659.021 93.0957C660.91 93.0957 662.562 93.4131 663.978 94.0479C665.394 94.6826 666.565 95.5778 667.493 96.7334C668.437 97.8727 669.137 99.2318 669.593 100.811C670.065 102.389 670.301 104.131 670.301 106.035V108.55H649.891V104.326H664.49V103.862C664.458 102.804 664.246 101.812 663.855 100.884C663.481 99.9561 662.903 99.2074 662.122 98.6377C661.341 98.068 660.299 97.7832 658.997 97.7832C658.021 97.7832 657.15 97.9948 656.385 98.418C655.636 98.8249 655.009 99.4189 654.505 100.2C654 100.981 653.61 101.925 653.333 103.032C653.073 104.123 652.942 105.352 652.942 106.719V107.695C652.942 108.851 653.097 109.925 653.406 110.918C653.732 111.895 654.204 112.749 654.822 113.481C655.441 114.214 656.189 114.792 657.068 115.215C657.947 115.622 658.948 115.825 660.071 115.825C661.487 115.825 662.749 115.54 663.855 114.971C664.962 114.401 665.923 113.595 666.736 112.554L669.837 115.557C669.267 116.387 668.527 117.184 667.615 117.949C666.704 118.698 665.589 119.308 664.271 119.78C662.968 120.252 661.455 120.488 659.729 120.488ZM680.799 98.6133V120H674.915V93.584H680.53L680.799 98.6133ZM688.88 93.4131L688.831 98.8818C688.473 98.8167 688.082 98.7679 687.659 98.7354C687.252 98.7028 686.845 98.6865 686.438 98.6865C685.429 98.6865 684.542 98.833 683.777 99.126C683.012 99.4027 682.369 99.8096 681.849 100.347C681.344 100.868 680.953 101.502 680.677 102.251C680.4 103 680.237 103.838 680.188 104.766L678.846 104.863C678.846 103.203 679.008 101.665 679.334 100.249C679.66 98.833 680.148 97.5879 680.799 96.5137C681.466 95.4395 682.296 94.6012 683.289 93.999C684.298 93.3968 685.462 93.0957 686.78 93.0957C687.138 93.0957 687.521 93.1283 687.928 93.1934C688.351 93.2585 688.668 93.3317 688.88 93.4131ZM706.58 114.702V102.104C706.58 101.16 706.409 100.347 706.067 99.6631C705.726 98.9795 705.205 98.4505 704.505 98.0762C703.821 97.7018 702.959 97.5146 701.917 97.5146C700.957 97.5146 700.127 97.6774 699.427 98.0029C698.727 98.3285 698.182 98.7679 697.791 99.3213C697.4 99.8747 697.205 100.501 697.205 101.201H691.346C691.346 100.16 691.598 99.1504 692.103 98.1738C692.607 97.1973 693.34 96.3265 694.3 95.5615C695.26 94.7965 696.408 94.1943 697.742 93.7549C699.077 93.3154 700.574 93.0957 702.234 93.0957C704.22 93.0957 705.978 93.4294 707.508 94.0967C709.054 94.764 710.267 95.7731 711.146 97.124C712.041 98.4587 712.488 100.135 712.488 102.153V113.896C712.488 115.101 712.57 116.183 712.732 117.144C712.911 118.088 713.164 118.91 713.489 119.609V120H707.459C707.182 119.365 706.963 118.56 706.8 117.583C706.653 116.59 706.58 115.63 706.58 114.702ZM707.435 103.936L707.483 107.573H703.26C702.169 107.573 701.209 107.679 700.379 107.891C699.549 108.086 698.857 108.379 698.304 108.77C697.75 109.16 697.335 109.632 697.059 110.186C696.782 110.739 696.644 111.366 696.644 112.065C696.644 112.765 696.806 113.408 697.132 113.994C697.457 114.564 697.929 115.011 698.548 115.337C699.183 115.662 699.948 115.825 700.843 115.825C702.047 115.825 703.097 115.581 703.992 115.093C704.904 114.588 705.62 113.978 706.141 113.262C706.661 112.529 706.938 111.838 706.971 111.187L708.875 113.799C708.68 114.466 708.346 115.182 707.874 115.947C707.402 116.712 706.784 117.445 706.019 118.145C705.27 118.828 704.367 119.39 703.309 119.829C702.267 120.269 701.062 120.488 699.695 120.488C697.97 120.488 696.432 120.146 695.081 119.463C693.73 118.763 692.672 117.827 691.907 116.655C691.142 115.467 690.76 114.124 690.76 112.627C690.76 111.227 691.02 109.99 691.541 108.916C692.078 107.826 692.859 106.914 693.885 106.182C694.926 105.449 696.196 104.896 697.693 104.521C699.191 104.131 700.9 103.936 702.82 103.936H707.435ZM730.75 93.584V97.8809H715.857V93.584H730.75ZM720.154 87.1143H726.038V112.7C726.038 113.514 726.152 114.141 726.38 114.58C726.624 115.003 726.958 115.288 727.381 115.435C727.804 115.581 728.3 115.654 728.87 115.654C729.277 115.654 729.668 115.63 730.042 115.581C730.416 115.532 730.717 115.483 730.945 115.435L730.97 119.927C730.481 120.073 729.912 120.203 729.261 120.317C728.626 120.431 727.894 120.488 727.063 120.488C725.713 120.488 724.516 120.252 723.475 119.78C722.433 119.292 721.619 118.503 721.033 117.412C720.447 116.322 720.154 114.873 720.154 113.066V87.1143ZM741.59 93.584V120H735.682V93.584H741.59ZM735.291 86.6504C735.291 85.7552 735.584 85.0146 736.17 84.4287C736.772 83.8265 737.602 83.5254 738.66 83.5254C739.702 83.5254 740.524 83.8265 741.126 84.4287C741.728 85.0146 742.029 85.7552 742.029 86.6504C742.029 87.5293 741.728 88.2617 741.126 88.8477C740.524 89.4336 739.702 89.7266 738.66 89.7266C737.602 89.7266 736.772 89.4336 736.17 88.8477C735.584 88.2617 735.291 87.5293 735.291 86.6504ZM756.629 115.337L763.099 93.584H769.202L760.022 120H756.214L756.629 115.337ZM751.673 93.584L758.265 115.435L758.582 120H754.773L745.545 93.584H751.673ZM784.144 120.488C782.19 120.488 780.424 120.171 778.846 119.536C777.283 118.885 775.949 117.982 774.842 116.826C773.751 115.671 772.913 114.312 772.327 112.749C771.741 111.187 771.448 109.502 771.448 107.695V106.719C771.448 104.652 771.749 102.78 772.352 101.104C772.954 99.4271 773.792 97.9948 774.866 96.8066C775.94 95.6022 777.21 94.6826 778.675 94.0479C780.14 93.4131 781.727 93.0957 783.436 93.0957C785.324 93.0957 786.976 93.4131 788.392 94.0479C789.808 94.6826 790.979 95.5778 791.907 96.7334C792.851 97.8727 793.551 99.2318 794.007 100.811C794.479 102.389 794.715 104.131 794.715 106.035V108.55H774.305V104.326H788.904V103.862C788.872 102.804 788.66 101.812 788.27 100.884C787.895 99.9561 787.317 99.2074 786.536 98.6377C785.755 98.068 784.713 97.7832 783.411 97.7832C782.435 97.7832 781.564 97.9948 780.799 98.418C780.05 98.8249 779.424 99.4189 778.919 100.2C778.414 100.981 778.024 101.925 777.747 103.032C777.487 104.123 777.356 105.352 777.356 106.719V107.695C777.356 108.851 777.511 109.925 777.82 110.918C778.146 111.895 778.618 112.749 779.236 113.481C779.855 114.214 780.604 114.792 781.482 115.215C782.361 115.622 783.362 115.825 784.485 115.825C785.901 115.825 787.163 115.54 788.27 114.971C789.376 114.401 790.337 113.595 791.15 112.554L794.251 115.557C793.681 116.387 792.941 117.184 792.029 117.949C791.118 118.698 790.003 119.308 788.685 119.78C787.382 120.252 785.869 120.488 784.144 120.488ZM329.456 148.189L318.836 179H312.415L325.794 143.453H329.896L329.456 148.189ZM338.343 179L327.698 148.189L327.234 143.453H331.36L344.788 179H338.343ZM337.83 165.816V170.675H318.494V165.816H337.83ZM353.65 157.662V189.156H347.767V152.584H353.187L353.65 157.662ZM370.862 165.548V166.061C370.862 167.981 370.634 169.763 370.179 171.407C369.739 173.035 369.08 174.459 368.201 175.68C367.339 176.884 366.272 177.82 365.003 178.487C363.733 179.155 362.269 179.488 360.608 179.488C358.965 179.488 357.524 179.187 356.287 178.585C355.066 177.966 354.033 177.096 353.187 175.973C352.34 174.85 351.657 173.531 351.136 172.018C350.631 170.488 350.273 168.811 350.062 166.988V165.011C350.273 163.074 350.631 161.316 351.136 159.737C351.657 158.159 352.34 156.799 353.187 155.66C354.033 154.521 355.066 153.642 356.287 153.023C357.508 152.405 358.932 152.096 360.56 152.096C362.22 152.096 363.693 152.421 364.979 153.072C366.264 153.707 367.347 154.618 368.226 155.807C369.104 156.979 369.764 158.395 370.203 160.055C370.643 161.699 370.862 163.53 370.862 165.548ZM364.979 166.061V165.548C364.979 164.327 364.865 163.196 364.637 162.154C364.409 161.096 364.051 160.169 363.562 159.371C363.074 158.574 362.448 157.955 361.683 157.516C360.934 157.06 360.031 156.832 358.973 156.832C357.931 156.832 357.036 157.011 356.287 157.369C355.538 157.711 354.912 158.191 354.407 158.81C353.903 159.428 353.512 160.152 353.235 160.982C352.959 161.796 352.763 162.683 352.649 163.644V168.38C352.845 169.552 353.178 170.626 353.65 171.603C354.122 172.579 354.79 173.36 355.652 173.946C356.531 174.516 357.654 174.801 359.021 174.801C360.079 174.801 360.983 174.573 361.731 174.117C362.48 173.661 363.09 173.035 363.562 172.237C364.051 171.424 364.409 170.488 364.637 169.43C364.865 168.372 364.979 167.249 364.979 166.061ZM381.775 157.662V189.156H375.892V152.584H381.312L381.775 157.662ZM398.987 165.548V166.061C398.987 167.981 398.759 169.763 398.304 171.407C397.864 173.035 397.205 174.459 396.326 175.68C395.464 176.884 394.397 177.82 393.128 178.487C391.858 179.155 390.394 179.488 388.733 179.488C387.09 179.488 385.649 179.187 384.412 178.585C383.191 177.966 382.158 177.096 381.312 175.973C380.465 174.85 379.782 173.531 379.261 172.018C378.756 170.488 378.398 168.811 378.187 166.988V165.011C378.398 163.074 378.756 161.316 379.261 159.737C379.782 158.159 380.465 156.799 381.312 155.66C382.158 154.521 383.191 153.642 384.412 153.023C385.633 152.405 387.057 152.096 388.685 152.096C390.345 152.096 391.818 152.421 393.104 153.072C394.389 153.707 395.472 154.618 396.351 155.807C397.229 156.979 397.889 158.395 398.328 160.055C398.768 161.699 398.987 163.53 398.987 165.548ZM393.104 166.061V165.548C393.104 164.327 392.99 163.196 392.762 162.154C392.534 161.096 392.176 160.169 391.688 159.371C391.199 158.574 390.573 157.955 389.808 157.516C389.059 157.06 388.156 156.832 387.098 156.832C386.056 156.832 385.161 157.011 384.412 157.369C383.663 157.711 383.037 158.191 382.532 158.81C382.028 159.428 381.637 160.152 381.36 160.982C381.084 161.796 380.888 162.683 380.774 163.644V168.38C380.97 169.552 381.303 170.626 381.775 171.603C382.247 172.579 382.915 173.36 383.777 173.946C384.656 174.516 385.779 174.801 387.146 174.801C388.204 174.801 389.108 174.573 389.856 174.117C390.605 173.661 391.215 173.035 391.688 172.237C392.176 171.424 392.534 170.488 392.762 169.43C392.99 168.372 393.104 167.249 393.104 166.061ZM409.9 157.613V179H404.017V152.584H409.632L409.9 157.613ZM417.981 152.413L417.933 157.882C417.575 157.817 417.184 157.768 416.761 157.735C416.354 157.703 415.947 157.687 415.54 157.687C414.531 157.687 413.644 157.833 412.879 158.126C412.114 158.403 411.471 158.81 410.95 159.347C410.446 159.868 410.055 160.502 409.778 161.251C409.502 162 409.339 162.838 409.29 163.766L407.947 163.863C407.947 162.203 408.11 160.665 408.436 159.249C408.761 157.833 409.249 156.588 409.9 155.514C410.568 154.439 411.398 153.601 412.391 152.999C413.4 152.397 414.563 152.096 415.882 152.096C416.24 152.096 416.622 152.128 417.029 152.193C417.452 152.258 417.77 152.332 417.981 152.413ZM419.91 166.085V165.523C419.91 163.619 420.187 161.853 420.74 160.226C421.294 158.582 422.091 157.158 423.133 155.953C424.191 154.732 425.477 153.788 426.99 153.121C428.52 152.438 430.245 152.096 432.166 152.096C434.103 152.096 435.828 152.438 437.342 153.121C438.872 153.788 440.166 154.732 441.224 155.953C442.282 157.158 443.087 158.582 443.641 160.226C444.194 161.853 444.471 163.619 444.471 165.523V166.085C444.471 167.989 444.194 169.755 443.641 171.383C443.087 173.01 442.282 174.435 441.224 175.655C440.166 176.86 438.88 177.804 437.366 178.487C435.853 179.155 434.135 179.488 432.215 179.488C430.278 179.488 428.545 179.155 427.015 178.487C425.501 177.804 424.215 176.86 423.157 175.655C422.099 174.435 421.294 173.01 420.74 171.383C420.187 169.755 419.91 167.989 419.91 166.085ZM425.794 165.523V166.085C425.794 167.273 425.916 168.396 426.16 169.454C426.404 170.512 426.787 171.44 427.308 172.237C427.828 173.035 428.496 173.661 429.31 174.117C430.123 174.573 431.092 174.801 432.215 174.801C433.305 174.801 434.249 174.573 435.047 174.117C435.861 173.661 436.528 173.035 437.049 172.237C437.57 171.44 437.952 170.512 438.196 169.454C438.457 168.396 438.587 167.273 438.587 166.085V165.523C438.587 164.352 438.457 163.245 438.196 162.203C437.952 161.145 437.562 160.209 437.024 159.396C436.504 158.582 435.836 157.947 435.022 157.491C434.225 157.019 433.273 156.783 432.166 156.783C431.059 156.783 430.099 157.019 429.285 157.491C428.488 157.947 427.828 158.582 427.308 159.396C426.787 160.209 426.404 161.145 426.16 162.203C425.916 163.245 425.794 164.352 425.794 165.523ZM464.295 173.702V161.104C464.295 160.16 464.124 159.347 463.782 158.663C463.44 157.979 462.92 157.451 462.22 157.076C461.536 156.702 460.674 156.515 459.632 156.515C458.672 156.515 457.841 156.677 457.142 157.003C456.442 157.328 455.896 157.768 455.506 158.321C455.115 158.875 454.92 159.501 454.92 160.201H449.061C449.061 159.16 449.313 158.15 449.817 157.174C450.322 156.197 451.054 155.326 452.015 154.562C452.975 153.797 454.122 153.194 455.457 152.755C456.792 152.315 458.289 152.096 459.949 152.096C461.935 152.096 463.693 152.429 465.223 153.097C466.769 153.764 467.981 154.773 468.86 156.124C469.756 157.459 470.203 159.135 470.203 161.153V172.896C470.203 174.101 470.285 175.183 470.447 176.144C470.626 177.088 470.879 177.91 471.204 178.609V179H465.174C464.897 178.365 464.677 177.56 464.515 176.583C464.368 175.59 464.295 174.63 464.295 173.702ZM465.149 162.936L465.198 166.573H460.975C459.884 166.573 458.924 166.679 458.094 166.891C457.264 167.086 456.572 167.379 456.019 167.77C455.465 168.16 455.05 168.632 454.773 169.186C454.497 169.739 454.358 170.366 454.358 171.065C454.358 171.765 454.521 172.408 454.847 172.994C455.172 173.564 455.644 174.011 456.263 174.337C456.897 174.662 457.662 174.825 458.558 174.825C459.762 174.825 460.812 174.581 461.707 174.093C462.618 173.588 463.335 172.978 463.855 172.262C464.376 171.529 464.653 170.838 464.686 170.187L466.59 172.799C466.395 173.466 466.061 174.182 465.589 174.947C465.117 175.712 464.498 176.445 463.733 177.145C462.985 177.828 462.081 178.39 461.023 178.829C459.982 179.269 458.777 179.488 457.41 179.488C455.685 179.488 454.147 179.146 452.796 178.463C451.445 177.763 450.387 176.827 449.622 175.655C448.857 174.467 448.475 173.124 448.475 171.627C448.475 170.227 448.735 168.99 449.256 167.916C449.793 166.826 450.574 165.914 451.6 165.182C452.641 164.449 453.911 163.896 455.408 163.521C456.906 163.131 458.615 162.936 460.535 162.936H465.149ZM487.146 174.801C488.107 174.801 488.969 174.614 489.734 174.239C490.516 173.849 491.142 173.312 491.614 172.628C492.103 171.944 492.371 171.155 492.42 170.26H497.962C497.929 171.969 497.425 173.523 496.448 174.923C495.472 176.323 494.178 177.438 492.566 178.268C490.955 179.081 489.173 179.488 487.22 179.488C485.201 179.488 483.444 179.146 481.946 178.463C480.449 177.763 479.204 176.803 478.211 175.582C477.218 174.361 476.469 172.953 475.965 171.358C475.477 169.763 475.232 168.054 475.232 166.231V165.377C475.232 163.554 475.477 161.845 475.965 160.25C476.469 158.639 477.218 157.223 478.211 156.002C479.204 154.781 480.449 153.829 481.946 153.146C483.444 152.446 485.193 152.096 487.195 152.096C489.311 152.096 491.167 152.519 492.762 153.365C494.357 154.195 495.61 155.359 496.521 156.856C497.449 158.338 497.929 160.063 497.962 162.032H492.42C492.371 161.056 492.127 160.177 491.688 159.396C491.264 158.598 490.662 157.963 489.881 157.491C489.116 157.019 488.196 156.783 487.122 156.783C485.934 156.783 484.949 157.027 484.168 157.516C483.387 157.988 482.776 158.639 482.337 159.469C481.897 160.283 481.58 161.202 481.385 162.228C481.206 163.237 481.116 164.286 481.116 165.377V166.231C481.116 167.322 481.206 168.38 481.385 169.405C481.564 170.431 481.873 171.35 482.312 172.164C482.768 172.962 483.387 173.604 484.168 174.093C484.949 174.565 485.942 174.801 487.146 174.801ZM508.289 141.5V179H502.43V141.5H508.289ZM507.264 164.815L505.359 164.791C505.376 162.968 505.628 161.284 506.116 159.737C506.621 158.191 507.321 156.848 508.216 155.709C509.127 154.553 510.218 153.666 511.487 153.048C512.757 152.413 514.165 152.096 515.711 152.096C517.013 152.096 518.185 152.275 519.227 152.633C520.285 152.991 521.196 153.569 521.961 154.366C522.726 155.147 523.304 156.173 523.694 157.442C524.101 158.696 524.305 160.226 524.305 162.032V179H518.396V161.983C518.396 160.714 518.209 159.705 517.835 158.956C517.477 158.207 516.948 157.67 516.248 157.345C515.548 157.003 514.694 156.832 513.685 156.832C512.627 156.832 511.691 157.044 510.877 157.467C510.079 157.89 509.412 158.468 508.875 159.2C508.338 159.933 507.931 160.779 507.654 161.739C507.394 162.7 507.264 163.725 507.264 164.815Z" fill="#1C4670"/>
<path d="M337.314 336.845C337.314 336.112 337.201 335.461 336.973 334.892C336.761 334.322 336.379 333.801 335.825 333.329C335.272 332.857 334.491 332.401 333.481 331.962C332.489 331.506 331.219 331.042 329.673 330.57C327.98 330.049 326.418 329.472 324.985 328.837C323.569 328.186 322.332 327.437 321.274 326.591C320.216 325.728 319.395 324.743 318.809 323.637C318.223 322.514 317.93 321.22 317.93 319.755C317.93 318.306 318.231 316.988 318.833 315.8C319.451 314.612 320.322 313.586 321.445 312.724C322.585 311.845 323.927 311.169 325.474 310.697C327.02 310.209 328.729 309.965 330.601 309.965C333.237 309.965 335.508 310.453 337.412 311.43C339.333 312.406 340.806 313.716 341.831 315.36C342.873 317.004 343.394 318.819 343.394 320.805H337.314C337.314 319.633 337.062 318.599 336.558 317.704C336.069 316.793 335.321 316.076 334.312 315.556C333.319 315.035 332.057 314.774 330.527 314.774C329.079 314.774 327.874 314.994 326.914 315.434C325.954 315.873 325.238 316.467 324.766 317.216C324.294 317.965 324.058 318.811 324.058 319.755C324.058 320.422 324.212 321.033 324.521 321.586C324.831 322.123 325.303 322.628 325.938 323.1C326.572 323.555 327.37 323.987 328.33 324.394C329.29 324.8 330.422 325.191 331.724 325.565C333.693 326.151 335.41 326.802 336.875 327.519C338.34 328.218 339.561 329.016 340.537 329.911C341.514 330.806 342.246 331.824 342.734 332.963C343.223 334.086 343.467 335.364 343.467 336.796C343.467 338.293 343.166 339.644 342.563 340.849C341.961 342.037 341.099 343.054 339.976 343.9C338.869 344.73 337.534 345.373 335.972 345.829C334.425 346.269 332.7 346.488 330.796 346.488C329.087 346.488 327.402 346.26 325.742 345.805C324.098 345.349 322.601 344.657 321.25 343.729C319.899 342.785 318.825 341.614 318.027 340.214C317.23 338.798 316.831 337.146 316.831 335.258H322.959C322.959 336.413 323.154 337.398 323.545 338.212C323.952 339.026 324.513 339.693 325.229 340.214C325.946 340.718 326.776 341.093 327.72 341.337C328.68 341.581 329.705 341.703 330.796 341.703C332.228 341.703 333.424 341.5 334.385 341.093C335.361 340.686 336.094 340.116 336.582 339.384C337.07 338.651 337.314 337.805 337.314 336.845ZM359.946 346.488C357.993 346.488 356.227 346.171 354.648 345.536C353.086 344.885 351.751 343.982 350.645 342.826C349.554 341.671 348.716 340.312 348.13 338.749C347.544 337.187 347.251 335.502 347.251 333.695V332.719C347.251 330.652 347.552 328.78 348.154 327.104C348.757 325.427 349.595 323.995 350.669 322.807C351.743 321.602 353.013 320.683 354.478 320.048C355.942 319.413 357.529 319.096 359.238 319.096C361.126 319.096 362.778 319.413 364.194 320.048C365.61 320.683 366.782 321.578 367.71 322.733C368.654 323.873 369.354 325.232 369.81 326.811C370.282 328.389 370.518 330.131 370.518 332.035V334.55H350.107V330.326H364.707V329.862C364.674 328.804 364.463 327.812 364.072 326.884C363.698 325.956 363.12 325.207 362.339 324.638C361.558 324.068 360.516 323.783 359.214 323.783C358.237 323.783 357.367 323.995 356.602 324.418C355.853 324.825 355.226 325.419 354.722 326.2C354.217 326.981 353.826 327.925 353.55 329.032C353.289 330.123 353.159 331.352 353.159 332.719V333.695C353.159 334.851 353.314 335.925 353.623 336.918C353.949 337.895 354.421 338.749 355.039 339.481C355.658 340.214 356.406 340.792 357.285 341.215C358.164 341.622 359.165 341.825 360.288 341.825C361.704 341.825 362.965 341.54 364.072 340.971C365.179 340.401 366.139 339.595 366.953 338.554L370.054 341.557C369.484 342.387 368.743 343.184 367.832 343.949C366.921 344.698 365.806 345.308 364.487 345.78C363.185 346.252 361.672 346.488 359.946 346.488ZM380.942 325.224V346H375.059V319.584H380.601L380.942 325.224ZM379.893 331.815L377.988 331.791C378.005 329.919 378.265 328.202 378.77 326.64C379.29 325.077 380.007 323.734 380.918 322.611C381.846 321.488 382.952 320.626 384.238 320.023C385.524 319.405 386.956 319.096 388.535 319.096C389.805 319.096 390.952 319.275 391.978 319.633C393.019 319.975 393.906 320.536 394.639 321.317C395.387 322.099 395.957 323.116 396.348 324.369C396.738 325.606 396.934 327.128 396.934 328.935V346H391.025V328.91C391.025 327.641 390.838 326.64 390.464 325.907C390.106 325.159 389.577 324.63 388.877 324.32C388.193 323.995 387.339 323.832 386.313 323.832C385.304 323.832 384.401 324.044 383.604 324.467C382.806 324.89 382.131 325.468 381.577 326.2C381.04 326.933 380.625 327.779 380.332 328.739C380.039 329.7 379.893 330.725 379.893 331.815ZM417.759 338.847C417.759 338.261 417.612 337.732 417.319 337.26C417.026 336.771 416.465 336.332 415.635 335.941C414.821 335.551 413.617 335.193 412.021 334.867C410.622 334.558 409.336 334.192 408.164 333.769C407.008 333.329 406.016 332.8 405.186 332.182C404.355 331.563 403.713 330.831 403.257 329.984C402.801 329.138 402.573 328.161 402.573 327.055C402.573 325.98 402.809 324.963 403.281 324.003C403.753 323.043 404.429 322.196 405.308 321.464C406.187 320.731 407.253 320.154 408.506 319.73C409.775 319.307 411.191 319.096 412.754 319.096C414.967 319.096 416.864 319.47 418.442 320.219C420.037 320.951 421.258 321.952 422.104 323.222C422.951 324.475 423.374 325.891 423.374 327.47H417.49C417.49 326.77 417.311 326.119 416.953 325.517C416.611 324.898 416.09 324.402 415.391 324.027C414.691 323.637 413.812 323.441 412.754 323.441C411.745 323.441 410.907 323.604 410.239 323.93C409.588 324.239 409.1 324.646 408.774 325.15C408.465 325.655 408.311 326.208 408.311 326.811C408.311 327.25 408.392 327.649 408.555 328.007C408.734 328.349 409.027 328.666 409.434 328.959C409.84 329.236 410.394 329.496 411.094 329.74C411.81 329.984 412.705 330.22 413.779 330.448C415.798 330.871 417.531 331.417 418.979 332.084C420.444 332.735 421.567 333.581 422.349 334.623C423.13 335.648 423.521 336.951 423.521 338.529C423.521 339.701 423.268 340.775 422.764 341.752C422.275 342.712 421.559 343.55 420.615 344.267C419.671 344.966 418.54 345.512 417.222 345.902C415.92 346.293 414.455 346.488 412.827 346.488C410.435 346.488 408.408 346.065 406.748 345.219C405.088 344.356 403.826 343.257 402.964 341.923C402.118 340.572 401.694 339.172 401.694 337.724H407.383C407.448 338.814 407.749 339.685 408.286 340.336C408.84 340.971 409.523 341.435 410.337 341.728C411.167 342.004 412.021 342.143 412.9 342.143C413.958 342.143 414.845 342.004 415.562 341.728C416.278 341.435 416.823 341.044 417.197 340.556C417.572 340.051 417.759 339.481 417.759 338.847ZM434.971 319.584V346H429.062V319.584H434.971ZM428.672 312.65C428.672 311.755 428.965 311.015 429.551 310.429C430.153 309.826 430.983 309.525 432.041 309.525C433.083 309.525 433.905 309.826 434.507 310.429C435.109 311.015 435.41 311.755 435.41 312.65C435.41 313.529 435.109 314.262 434.507 314.848C433.905 315.434 433.083 315.727 432.041 315.727C430.983 315.727 430.153 315.434 429.551 314.848C428.965 314.262 428.672 313.529 428.672 312.65ZM453.525 319.584V323.881H438.633V319.584H453.525ZM442.93 313.114H448.813V338.7C448.813 339.514 448.927 340.141 449.155 340.58C449.399 341.003 449.733 341.288 450.156 341.435C450.579 341.581 451.076 341.654 451.646 341.654C452.052 341.654 452.443 341.63 452.817 341.581C453.192 341.532 453.493 341.483 453.721 341.435L453.745 345.927C453.257 346.073 452.687 346.203 452.036 346.317C451.401 346.431 450.669 346.488 449.839 346.488C448.488 346.488 447.292 346.252 446.25 345.78C445.208 345.292 444.395 344.503 443.809 343.412C443.223 342.322 442.93 340.873 442.93 339.066V313.114ZM464.365 319.584V346H458.457V319.584H464.365ZM458.066 312.65C458.066 311.755 458.359 311.015 458.945 310.429C459.548 309.826 460.378 309.525 461.436 309.525C462.477 309.525 463.299 309.826 463.901 310.429C464.504 311.015 464.805 311.755 464.805 312.65C464.805 313.529 464.504 314.262 463.901 314.848C463.299 315.434 462.477 315.727 461.436 315.727C460.378 315.727 459.548 315.434 458.945 314.848C458.359 314.262 458.066 313.529 458.066 312.65ZM479.404 341.337L485.874 319.584H491.978L482.798 346H478.989L479.404 341.337ZM474.448 319.584L481.04 341.435L481.357 346H477.549L468.32 319.584H474.448ZM501.914 319.584V346H496.006V319.584H501.914ZM495.615 312.65C495.615 311.755 495.908 311.015 496.494 310.429C497.096 309.826 497.926 309.525 498.984 309.525C500.026 309.525 500.848 309.826 501.45 310.429C502.052 311.015 502.354 311.755 502.354 312.65C502.354 313.529 502.052 314.262 501.45 314.848C500.848 315.434 500.026 315.727 498.984 315.727C497.926 315.727 497.096 315.434 496.494 314.848C495.908 314.262 495.615 313.529 495.615 312.65ZM520.469 319.584V323.881H505.576V319.584H520.469ZM509.873 313.114H515.757V338.7C515.757 339.514 515.871 340.141 516.099 340.58C516.343 341.003 516.676 341.288 517.1 341.435C517.523 341.581 518.019 341.654 518.589 341.654C518.996 341.654 519.386 341.63 519.761 341.581C520.135 341.532 520.436 341.483 520.664 341.435L520.688 345.927C520.2 346.073 519.631 346.203 518.979 346.317C518.345 346.431 517.612 346.488 516.782 346.488C515.431 346.488 514.235 346.252 513.193 345.78C512.152 345.292 511.338 344.503 510.752 343.412C510.166 342.322 509.873 340.873 509.873 339.066V313.114ZM532.676 343.119L539.854 319.584H546.152L535.557 350.028C535.312 350.679 534.995 351.387 534.604 352.152C534.214 352.917 533.701 353.642 533.066 354.325C532.448 355.025 531.675 355.587 530.747 356.01C529.819 356.449 528.696 356.669 527.378 356.669C526.857 356.669 526.353 356.62 525.864 356.522C525.392 356.441 524.945 356.352 524.521 356.254L524.497 351.762C524.66 351.778 524.855 351.794 525.083 351.811C525.327 351.827 525.522 351.835 525.669 351.835C526.646 351.835 527.459 351.713 528.11 351.469C528.761 351.241 529.29 350.867 529.697 350.346C530.12 349.825 530.479 349.125 530.771 348.246L532.676 343.119ZM528.623 319.584L534.897 339.359L535.947 345.561L531.87 346.61L522.275 319.584H528.623ZM576.401 315.189L565.781 346H559.36L572.739 310.453H576.841L576.401 315.189ZM585.288 346L574.644 315.189L574.18 310.453H578.306L591.733 346H585.288ZM584.775 332.816V337.675H565.439V332.816H584.775ZM600.522 325.224V346H594.639V319.584H600.181L600.522 325.224ZM599.473 331.815L597.568 331.791C597.585 329.919 597.845 328.202 598.35 326.64C598.87 325.077 599.587 323.734 600.498 322.611C601.426 321.488 602.533 320.626 603.818 320.023C605.104 319.405 606.536 319.096 608.115 319.096C609.385 319.096 610.532 319.275 611.558 319.633C612.599 319.975 613.486 320.536 614.219 321.317C614.967 322.099 615.537 323.116 615.928 324.369C616.318 325.606 616.514 327.128 616.514 328.935V346H610.605V328.91C610.605 327.641 610.418 326.64 610.044 325.907C609.686 325.159 609.157 324.63 608.457 324.32C607.773 323.995 606.919 323.832 605.894 323.832C604.884 323.832 603.981 324.044 603.184 324.467C602.386 324.89 601.711 325.468 601.157 326.2C600.62 326.933 600.205 327.779 599.912 328.739C599.619 329.7 599.473 330.725 599.473 331.815ZM637.412 340.702V328.104C637.412 327.16 637.241 326.347 636.899 325.663C636.558 324.979 636.037 324.451 635.337 324.076C634.653 323.702 633.791 323.515 632.749 323.515C631.789 323.515 630.959 323.677 630.259 324.003C629.559 324.328 629.014 324.768 628.623 325.321C628.232 325.875 628.037 326.501 628.037 327.201H622.178C622.178 326.16 622.43 325.15 622.935 324.174C623.439 323.197 624.172 322.326 625.132 321.562C626.092 320.797 627.24 320.194 628.574 319.755C629.909 319.315 631.406 319.096 633.066 319.096C635.052 319.096 636.81 319.429 638.34 320.097C639.886 320.764 641.099 321.773 641.978 323.124C642.873 324.459 643.32 326.135 643.32 328.153V339.896C643.32 341.101 643.402 342.183 643.564 343.144C643.743 344.088 643.996 344.91 644.321 345.609V346H638.291C638.014 345.365 637.795 344.56 637.632 343.583C637.485 342.59 637.412 341.63 637.412 340.702ZM638.267 329.936L638.315 333.573H634.092C633.001 333.573 632.041 333.679 631.211 333.891C630.381 334.086 629.689 334.379 629.136 334.77C628.582 335.16 628.167 335.632 627.891 336.186C627.614 336.739 627.476 337.366 627.476 338.065C627.476 338.765 627.638 339.408 627.964 339.994C628.289 340.564 628.761 341.011 629.38 341.337C630.015 341.662 630.78 341.825 631.675 341.825C632.879 341.825 633.929 341.581 634.824 341.093C635.736 340.588 636.452 339.978 636.973 339.262C637.493 338.529 637.77 337.838 637.803 337.187L639.707 339.799C639.512 340.466 639.178 341.182 638.706 341.947C638.234 342.712 637.616 343.445 636.851 344.145C636.102 344.828 635.199 345.39 634.141 345.829C633.099 346.269 631.895 346.488 630.527 346.488C628.802 346.488 627.264 346.146 625.913 345.463C624.562 344.763 623.504 343.827 622.739 342.655C621.974 341.467 621.592 340.124 621.592 338.627C621.592 337.227 621.852 335.99 622.373 334.916C622.91 333.826 623.691 332.914 624.717 332.182C625.758 331.449 627.028 330.896 628.525 330.521C630.023 330.131 631.732 329.936 633.652 329.936H638.267ZM655.771 308.5V346H649.863V308.5H655.771ZM669.883 343.119L677.061 319.584H683.359L672.764 350.028C672.52 350.679 672.202 351.387 671.812 352.152C671.421 352.917 670.908 353.642 670.273 354.325C669.655 355.025 668.882 355.587 667.954 356.01C667.026 356.449 665.903 356.669 664.585 356.669C664.064 356.669 663.56 356.62 663.071 356.522C662.599 356.441 662.152 356.352 661.729 356.254L661.704 351.762C661.867 351.778 662.062 351.794 662.29 351.811C662.534 351.827 662.729 351.835 662.876 351.835C663.853 351.835 664.666 351.713 665.317 351.469C665.968 351.241 666.497 350.867 666.904 350.346C667.327 349.825 667.686 349.125 667.979 348.246L669.883 343.119ZM665.83 319.584L672.104 339.359L673.154 345.561L669.077 346.61L659.482 319.584H665.83ZM701.548 338.847C701.548 338.261 701.401 337.732 701.108 337.26C700.815 336.771 700.254 336.332 699.424 335.941C698.61 335.551 697.406 335.193 695.811 334.867C694.411 334.558 693.125 334.192 691.953 333.769C690.798 333.329 689.805 332.8 688.975 332.182C688.145 331.563 687.502 330.831 687.046 329.984C686.59 329.138 686.362 328.161 686.362 327.055C686.362 325.98 686.598 324.963 687.07 324.003C687.542 323.043 688.218 322.196 689.097 321.464C689.976 320.731 691.042 320.154 692.295 319.73C693.564 319.307 694.98 319.096 696.543 319.096C698.757 319.096 700.653 319.47 702.231 320.219C703.826 320.951 705.047 321.952 705.894 323.222C706.74 324.475 707.163 325.891 707.163 327.47H701.279C701.279 326.77 701.1 326.119 700.742 325.517C700.4 324.898 699.88 324.402 699.18 324.027C698.48 323.637 697.601 323.441 696.543 323.441C695.534 323.441 694.696 323.604 694.028 323.93C693.377 324.239 692.889 324.646 692.563 325.15C692.254 325.655 692.1 326.208 692.1 326.811C692.1 327.25 692.181 327.649 692.344 328.007C692.523 328.349 692.816 328.666 693.223 328.959C693.63 329.236 694.183 329.496 694.883 329.74C695.599 329.984 696.494 330.22 697.568 330.448C699.587 330.871 701.32 331.417 702.769 332.084C704.233 332.735 705.356 333.581 706.138 334.623C706.919 335.648 707.31 336.951 707.31 338.529C707.31 339.701 707.057 340.775 706.553 341.752C706.064 342.712 705.348 343.55 704.404 344.267C703.46 344.966 702.329 345.512 701.011 345.902C699.709 346.293 698.244 346.488 696.616 346.488C694.224 346.488 692.197 346.065 690.537 345.219C688.877 344.356 687.616 343.257 686.753 341.923C685.907 340.572 685.483 339.172 685.483 337.724H691.172C691.237 338.814 691.538 339.685 692.075 340.336C692.629 340.971 693.312 341.435 694.126 341.728C694.956 342.004 695.811 342.143 696.689 342.143C697.747 342.143 698.634 342.004 699.351 341.728C700.067 341.435 700.612 341.044 700.986 340.556C701.361 340.051 701.548 339.481 701.548 338.847ZM718.76 319.584V346H712.852V319.584H718.76ZM712.461 312.65C712.461 311.755 712.754 311.015 713.34 310.429C713.942 309.826 714.772 309.525 715.83 309.525C716.872 309.525 717.694 309.826 718.296 310.429C718.898 311.015 719.199 311.755 719.199 312.65C719.199 313.529 718.898 314.262 718.296 314.848C717.694 315.434 716.872 315.727 715.83 315.727C714.772 315.727 713.942 315.434 713.34 314.848C712.754 314.262 712.461 313.529 712.461 312.65ZM740.024 338.847C740.024 338.261 739.878 337.732 739.585 337.26C739.292 336.771 738.73 336.332 737.9 335.941C737.087 335.551 735.882 335.193 734.287 334.867C732.887 334.558 731.602 334.192 730.43 333.769C729.274 333.329 728.281 332.8 727.451 332.182C726.621 331.563 725.978 330.831 725.522 329.984C725.067 329.138 724.839 328.161 724.839 327.055C724.839 325.98 725.075 324.963 725.547 324.003C726.019 323.043 726.694 322.196 727.573 321.464C728.452 320.731 729.518 320.154 730.771 319.73C732.041 319.307 733.457 319.096 735.02 319.096C737.233 319.096 739.129 319.47 740.708 320.219C742.303 320.951 743.524 321.952 744.37 323.222C745.216 324.475 745.64 325.891 745.64 327.47H739.756C739.756 326.77 739.577 326.119 739.219 325.517C738.877 324.898 738.356 324.402 737.656 324.027C736.956 323.637 736.077 323.441 735.02 323.441C734.01 323.441 733.172 323.604 732.505 323.93C731.854 324.239 731.366 324.646 731.04 325.15C730.731 325.655 730.576 326.208 730.576 326.811C730.576 327.25 730.658 327.649 730.82 328.007C730.999 328.349 731.292 328.666 731.699 328.959C732.106 329.236 732.66 329.496 733.359 329.74C734.076 329.984 734.971 330.22 736.045 330.448C738.063 330.871 739.797 331.417 741.245 332.084C742.71 332.735 743.833 333.581 744.614 334.623C745.396 335.648 745.786 336.951 745.786 338.529C745.786 339.701 745.534 340.775 745.029 341.752C744.541 342.712 743.825 343.55 742.881 344.267C741.937 344.966 740.806 345.512 739.487 345.902C738.185 346.293 736.72 346.488 735.093 346.488C732.7 346.488 730.674 346.065 729.014 345.219C727.354 344.356 726.092 343.257 725.229 341.923C724.383 340.572 723.96 339.172 723.96 337.724H729.648C729.714 338.814 730.015 339.685 730.552 340.336C731.105 340.971 731.789 341.435 732.603 341.728C733.433 342.004 734.287 342.143 735.166 342.143C736.224 342.143 737.111 342.004 737.827 341.728C738.543 341.435 739.089 341.044 739.463 340.556C739.837 340.051 740.024 339.481 740.024 338.847Z" fill="#1C4670"/>
<path d="M341.88 557.142V562H323.008V557.142H341.88ZM324.741 526.453V562H318.613V526.453H324.741ZM339.414 541.297V546.082H323.008V541.297H339.414ZM341.758 526.453V531.336H323.008V526.453H341.758ZM352.134 541.224V562H346.25V535.584H351.792L352.134 541.224ZM351.084 547.815L349.18 547.791C349.196 545.919 349.456 544.202 349.961 542.64C350.482 541.077 351.198 539.734 352.109 538.611C353.037 537.488 354.144 536.626 355.43 536.023C356.715 535.405 358.148 535.096 359.727 535.096C360.996 535.096 362.144 535.275 363.169 535.633C364.211 535.975 365.098 536.536 365.83 537.317C366.579 538.099 367.148 539.116 367.539 540.369C367.93 541.606 368.125 543.128 368.125 544.935V562H362.217V544.91C362.217 543.641 362.03 542.64 361.655 541.907C361.297 541.159 360.768 540.63 360.068 540.32C359.385 539.995 358.53 539.832 357.505 539.832C356.496 539.832 355.592 540.044 354.795 540.467C353.997 540.89 353.322 541.468 352.769 542.2C352.231 542.933 351.816 543.779 351.523 544.739C351.23 545.7 351.084 546.725 351.084 547.815ZM391.05 535.584H396.396V561.268C396.396 563.644 395.892 565.662 394.883 567.322C393.874 568.982 392.466 570.244 390.659 571.106C388.853 571.985 386.761 572.425 384.385 572.425C383.376 572.425 382.253 572.278 381.016 571.985C379.795 571.692 378.607 571.22 377.451 570.569C376.312 569.935 375.36 569.096 374.595 568.055L377.354 564.588C378.298 565.711 379.339 566.533 380.479 567.054C381.618 567.575 382.814 567.835 384.067 567.835C385.418 567.835 386.566 567.583 387.51 567.078C388.47 566.59 389.211 565.866 389.731 564.905C390.252 563.945 390.513 562.773 390.513 561.39V541.565L391.05 535.584ZM373.105 549.085V548.572C373.105 546.57 373.35 544.747 373.838 543.104C374.326 541.443 375.026 540.019 375.938 538.831C376.849 537.627 377.956 536.707 379.258 536.072C380.56 535.421 382.033 535.096 383.677 535.096C385.386 535.096 386.842 535.405 388.047 536.023C389.268 536.642 390.285 537.529 391.099 538.685C391.912 539.824 392.547 541.191 393.003 542.786C393.475 544.365 393.825 546.123 394.053 548.06V549.695C393.841 551.583 393.483 553.309 392.979 554.871C392.474 556.434 391.807 557.785 390.977 558.924C390.146 560.063 389.121 560.942 387.9 561.561C386.696 562.179 385.272 562.488 383.628 562.488C382.017 562.488 380.56 562.155 379.258 561.487C377.972 560.82 376.865 559.884 375.938 558.68C375.026 557.475 374.326 556.059 373.838 554.432C373.35 552.788 373.105 551.006 373.105 549.085ZM378.989 548.572V549.085C378.989 550.289 379.103 551.412 379.331 552.454C379.575 553.496 379.941 554.415 380.43 555.213C380.934 555.994 381.569 556.613 382.334 557.068C383.115 557.508 384.035 557.728 385.093 557.728C386.476 557.728 387.607 557.435 388.486 556.849C389.382 556.263 390.065 555.473 390.537 554.48C391.025 553.471 391.367 552.348 391.562 551.111V546.692C391.465 545.732 391.261 544.837 390.952 544.007C390.659 543.177 390.26 542.452 389.756 541.834C389.251 541.199 388.617 540.711 387.852 540.369C387.087 540.011 386.183 539.832 385.142 539.832C384.084 539.832 383.164 540.06 382.383 540.516C381.602 540.971 380.959 541.598 380.454 542.396C379.966 543.193 379.6 544.121 379.355 545.179C379.111 546.237 378.989 547.368 378.989 548.572ZM417.393 556.702V544.104C417.393 543.16 417.222 542.347 416.88 541.663C416.538 540.979 416.017 540.451 415.317 540.076C414.634 539.702 413.771 539.515 412.729 539.515C411.769 539.515 410.939 539.677 410.239 540.003C409.539 540.328 408.994 540.768 408.604 541.321C408.213 541.875 408.018 542.501 408.018 543.201H402.158C402.158 542.16 402.41 541.15 402.915 540.174C403.42 539.197 404.152 538.326 405.112 537.562C406.073 536.797 407.22 536.194 408.555 535.755C409.889 535.315 411.387 535.096 413.047 535.096C415.033 535.096 416.79 535.429 418.32 536.097C419.867 536.764 421.079 537.773 421.958 539.124C422.853 540.459 423.301 542.135 423.301 544.153V555.896C423.301 557.101 423.382 558.183 423.545 559.144C423.724 560.088 423.976 560.91 424.302 561.609V562H418.271C417.995 561.365 417.775 560.56 417.612 559.583C417.466 558.59 417.393 557.63 417.393 556.702ZM418.247 545.936L418.296 549.573H414.072C412.982 549.573 412.021 549.679 411.191 549.891C410.361 550.086 409.67 550.379 409.116 550.77C408.563 551.16 408.148 551.632 407.871 552.186C407.594 552.739 407.456 553.366 407.456 554.065C407.456 554.765 407.619 555.408 407.944 555.994C408.27 556.564 408.742 557.011 409.36 557.337C409.995 557.662 410.76 557.825 411.655 557.825C412.86 557.825 413.91 557.581 414.805 557.093C415.716 556.588 416.432 555.978 416.953 555.262C417.474 554.529 417.751 553.838 417.783 553.187L419.688 555.799C419.492 556.466 419.159 557.182 418.687 557.947C418.215 558.712 417.596 559.445 416.831 560.145C416.082 560.828 415.179 561.39 414.121 561.829C413.079 562.269 411.875 562.488 410.508 562.488C408.783 562.488 407.244 562.146 405.894 561.463C404.543 560.763 403.485 559.827 402.72 558.655C401.955 557.467 401.572 556.124 401.572 554.627C401.572 553.227 401.833 551.99 402.354 550.916C402.891 549.826 403.672 548.914 404.697 548.182C405.739 547.449 407.008 546.896 408.506 546.521C410.003 546.131 411.712 545.936 413.633 545.936H418.247ZM446.372 535.584H451.719V561.268C451.719 563.644 451.214 565.662 450.205 567.322C449.196 568.982 447.788 570.244 445.981 571.106C444.175 571.985 442.083 572.425 439.707 572.425C438.698 572.425 437.575 572.278 436.338 571.985C435.117 571.692 433.929 571.22 432.773 570.569C431.634 569.935 430.682 569.096 429.917 568.055L432.676 564.588C433.62 565.711 434.661 566.533 435.801 567.054C436.94 567.575 438.136 567.835 439.39 567.835C440.741 567.835 441.888 567.583 442.832 567.078C443.792 566.59 444.533 565.866 445.054 564.905C445.575 563.945 445.835 562.773 445.835 561.39V541.565L446.372 535.584ZM428.428 549.085V548.572C428.428 546.57 428.672 544.747 429.16 543.104C429.648 541.443 430.348 540.019 431.26 538.831C432.171 537.627 433.278 536.707 434.58 536.072C435.882 535.421 437.355 535.096 438.999 535.096C440.708 535.096 442.165 535.405 443.369 536.023C444.59 536.642 445.607 537.529 446.421 538.685C447.235 539.824 447.869 541.191 448.325 542.786C448.797 544.365 449.147 546.123 449.375 548.06V549.695C449.163 551.583 448.805 553.309 448.301 554.871C447.796 556.434 447.129 557.785 446.299 558.924C445.469 560.063 444.443 560.942 443.223 561.561C442.018 562.179 440.594 562.488 438.95 562.488C437.339 562.488 435.882 562.155 434.58 561.487C433.294 560.82 432.188 559.884 431.26 558.68C430.348 557.475 429.648 556.059 429.16 554.432C428.672 552.788 428.428 551.006 428.428 549.085ZM434.312 548.572V549.085C434.312 550.289 434.425 551.412 434.653 552.454C434.897 553.496 435.264 554.415 435.752 555.213C436.257 555.994 436.891 556.613 437.656 557.068C438.438 557.508 439.357 557.728 440.415 557.728C441.799 557.728 442.93 557.435 443.809 556.849C444.704 556.263 445.387 555.473 445.859 554.48C446.348 553.471 446.689 552.348 446.885 551.111V546.692C446.787 545.732 446.584 544.837 446.274 544.007C445.981 543.177 445.583 542.452 445.078 541.834C444.574 541.199 443.939 540.711 443.174 540.369C442.409 540.011 441.506 539.832 440.464 539.832C439.406 539.832 438.486 540.06 437.705 540.516C436.924 540.971 436.281 541.598 435.776 542.396C435.288 543.193 434.922 544.121 434.678 545.179C434.434 546.237 434.312 547.368 434.312 548.572ZM469.468 562.488C467.515 562.488 465.749 562.171 464.17 561.536C462.607 560.885 461.273 559.982 460.166 558.826C459.076 557.671 458.237 556.312 457.651 554.749C457.065 553.187 456.772 551.502 456.772 549.695V548.719C456.772 546.652 457.074 544.78 457.676 543.104C458.278 541.427 459.116 539.995 460.19 538.807C461.265 537.602 462.534 536.683 463.999 536.048C465.464 535.413 467.051 535.096 468.76 535.096C470.648 535.096 472.3 535.413 473.716 536.048C475.132 536.683 476.304 537.578 477.231 538.733C478.175 539.873 478.875 541.232 479.331 542.811C479.803 544.389 480.039 546.131 480.039 548.035V550.55H459.629V546.326H474.229V545.862C474.196 544.804 473.984 543.812 473.594 542.884C473.219 541.956 472.642 541.207 471.86 540.638C471.079 540.068 470.037 539.783 468.735 539.783C467.759 539.783 466.888 539.995 466.123 540.418C465.374 540.825 464.748 541.419 464.243 542.2C463.739 542.981 463.348 543.925 463.071 545.032C462.811 546.123 462.681 547.352 462.681 548.719V549.695C462.681 550.851 462.835 551.925 463.145 552.918C463.47 553.895 463.942 554.749 464.561 555.481C465.179 556.214 465.928 556.792 466.807 557.215C467.686 557.622 468.687 557.825 469.81 557.825C471.226 557.825 472.487 557.54 473.594 556.971C474.701 556.401 475.661 555.595 476.475 554.554L479.575 557.557C479.006 558.387 478.265 559.184 477.354 559.949C476.442 560.698 475.327 561.308 474.009 561.78C472.707 562.252 471.193 562.488 469.468 562.488ZM504.258 556.141L510.361 535.584H514.121L513.096 541.736L506.943 562H503.574L504.258 556.141ZM500.669 535.584L505.43 556.238L505.82 562H502.061L494.907 535.584H500.669ZM519.834 555.994L524.448 535.584H530.186L523.057 562H519.297L519.834 555.994ZM514.756 535.584L520.786 555.896L521.543 562H518.174L511.948 541.712L510.923 535.584H514.756ZM540.488 535.584V562H534.58V535.584H540.488ZM534.189 528.65C534.189 527.755 534.482 527.015 535.068 526.429C535.671 525.826 536.501 525.525 537.559 525.525C538.6 525.525 539.422 525.826 540.024 526.429C540.627 527.015 540.928 527.755 540.928 528.65C540.928 529.529 540.627 530.262 540.024 530.848C539.422 531.434 538.6 531.727 537.559 531.727C536.501 531.727 535.671 531.434 535.068 530.848C534.482 530.262 534.189 529.529 534.189 528.65ZM559.043 535.584V539.881H544.15V535.584H559.043ZM548.447 529.114H554.331V554.7C554.331 555.514 554.445 556.141 554.673 556.58C554.917 557.003 555.251 557.288 555.674 557.435C556.097 557.581 556.593 557.654 557.163 557.654C557.57 557.654 557.961 557.63 558.335 557.581C558.709 557.532 559.01 557.483 559.238 557.435L559.263 561.927C558.774 562.073 558.205 562.203 557.554 562.317C556.919 562.431 556.187 562.488 555.356 562.488C554.006 562.488 552.809 562.252 551.768 561.78C550.726 561.292 549.912 560.503 549.326 559.412C548.74 558.322 548.447 556.873 548.447 555.066V529.114ZM569.395 524.5V562H563.535V524.5H569.395ZM568.369 547.815L566.465 547.791C566.481 545.968 566.733 544.284 567.222 542.737C567.726 541.191 568.426 539.848 569.321 538.709C570.233 537.553 571.323 536.666 572.593 536.048C573.862 535.413 575.27 535.096 576.816 535.096C578.118 535.096 579.29 535.275 580.332 535.633C581.39 535.991 582.301 536.569 583.066 537.366C583.831 538.147 584.409 539.173 584.8 540.442C585.207 541.696 585.41 543.226 585.41 545.032V562H579.502V544.983C579.502 543.714 579.315 542.705 578.94 541.956C578.582 541.207 578.053 540.67 577.354 540.345C576.654 540.003 575.799 539.832 574.79 539.832C573.732 539.832 572.796 540.044 571.982 540.467C571.185 540.89 570.518 541.468 569.98 542.2C569.443 542.933 569.036 543.779 568.76 544.739C568.499 545.7 568.369 546.725 568.369 547.815ZM627.671 557.142V562H608.799V557.142H627.671ZM610.532 526.453V562H604.404V526.453H610.532ZM625.205 541.297V546.082H608.799V541.297H625.205ZM627.549 526.453V531.336H608.799V526.453H627.549ZM636.582 535.584L641.611 544.349L646.738 535.584H653.208L645.2 548.548L653.525 562H647.056L641.685 552.869L636.313 562H629.819L638.12 548.548L630.137 535.584H636.582ZM663.145 540.662V572.156H657.261V535.584H662.681L663.145 540.662ZM680.356 548.548V549.061C680.356 550.981 680.129 552.763 679.673 554.407C679.233 556.035 678.574 557.459 677.695 558.68C676.833 559.884 675.767 560.82 674.497 561.487C673.228 562.155 671.763 562.488 670.103 562.488C668.459 562.488 667.018 562.187 665.781 561.585C664.561 560.966 663.527 560.096 662.681 558.973C661.834 557.85 661.151 556.531 660.63 555.018C660.125 553.488 659.767 551.811 659.556 549.988V548.011C659.767 546.074 660.125 544.316 660.63 542.737C661.151 541.159 661.834 539.799 662.681 538.66C663.527 537.521 664.561 536.642 665.781 536.023C667.002 535.405 668.426 535.096 670.054 535.096C671.714 535.096 673.187 535.421 674.473 536.072C675.758 536.707 676.841 537.618 677.72 538.807C678.599 539.979 679.258 541.395 679.697 543.055C680.137 544.699 680.356 546.53 680.356 548.548ZM674.473 549.061V548.548C674.473 547.327 674.359 546.196 674.131 545.154C673.903 544.096 673.545 543.169 673.057 542.371C672.568 541.574 671.942 540.955 671.177 540.516C670.428 540.06 669.525 539.832 668.467 539.832C667.425 539.832 666.53 540.011 665.781 540.369C665.033 540.711 664.406 541.191 663.901 541.81C663.397 542.428 663.006 543.152 662.729 543.982C662.453 544.796 662.257 545.683 662.144 546.644V551.38C662.339 552.552 662.673 553.626 663.145 554.603C663.617 555.579 664.284 556.36 665.146 556.946C666.025 557.516 667.148 557.801 668.516 557.801C669.574 557.801 670.477 557.573 671.226 557.117C671.974 556.661 672.585 556.035 673.057 555.237C673.545 554.424 673.903 553.488 674.131 552.43C674.359 551.372 674.473 550.249 674.473 549.061ZM697.007 562.488C695.054 562.488 693.288 562.171 691.709 561.536C690.146 560.885 688.812 559.982 687.705 558.826C686.615 557.671 685.776 556.312 685.19 554.749C684.604 553.187 684.312 551.502 684.312 549.695V548.719C684.312 546.652 684.613 544.78 685.215 543.104C685.817 541.427 686.655 539.995 687.729 538.807C688.804 537.602 690.073 536.683 691.538 536.048C693.003 535.413 694.59 535.096 696.299 535.096C698.187 535.096 699.839 535.413 701.255 536.048C702.671 536.683 703.843 537.578 704.771 538.733C705.715 539.873 706.414 541.232 706.87 542.811C707.342 544.389 707.578 546.131 707.578 548.035V550.55H687.168V546.326H701.768V545.862C701.735 544.804 701.523 543.812 701.133 542.884C700.758 541.956 700.181 541.207 699.399 540.638C698.618 540.068 697.576 539.783 696.274 539.783C695.298 539.783 694.427 539.995 693.662 540.418C692.913 540.825 692.287 541.419 691.782 542.2C691.278 542.981 690.887 543.925 690.61 545.032C690.35 546.123 690.22 547.352 690.22 548.719V549.695C690.22 550.851 690.374 551.925 690.684 552.918C691.009 553.895 691.481 554.749 692.1 555.481C692.718 556.214 693.467 556.792 694.346 557.215C695.225 557.622 696.226 557.825 697.349 557.825C698.765 557.825 700.026 557.54 701.133 556.971C702.24 556.401 703.2 555.595 704.014 554.554L707.114 557.557C706.545 558.387 705.804 559.184 704.893 559.949C703.981 560.698 702.866 561.308 701.548 561.78C700.246 562.252 698.732 562.488 697.007 562.488ZM718.076 540.613V562H712.192V535.584H717.808L718.076 540.613ZM726.157 535.413L726.108 540.882C725.75 540.817 725.36 540.768 724.937 540.735C724.53 540.703 724.123 540.687 723.716 540.687C722.707 540.687 721.82 540.833 721.055 541.126C720.29 541.403 719.647 541.81 719.126 542.347C718.621 542.868 718.231 543.502 717.954 544.251C717.677 545 717.515 545.838 717.466 546.766L716.123 546.863C716.123 545.203 716.286 543.665 716.611 542.249C716.937 540.833 717.425 539.588 718.076 538.514C718.743 537.439 719.574 536.601 720.566 535.999C721.576 535.397 722.739 535.096 724.058 535.096C724.416 535.096 724.798 535.128 725.205 535.193C725.628 535.258 725.946 535.332 726.157 535.413ZM743.174 535.584V539.881H728.281V535.584H743.174ZM732.578 529.114H738.462V554.7C738.462 555.514 738.576 556.141 738.804 556.58C739.048 557.003 739.382 557.288 739.805 557.435C740.228 557.581 740.724 557.654 741.294 557.654C741.701 557.654 742.091 557.63 742.466 557.581C742.84 557.532 743.141 557.483 743.369 557.435L743.394 561.927C742.905 562.073 742.336 562.203 741.685 562.317C741.05 562.431 740.317 562.488 739.487 562.488C738.136 562.488 736.94 562.252 735.898 561.78C734.857 561.292 734.043 560.503 733.457 559.412C732.871 558.322 732.578 556.873 732.578 555.066V529.114ZM762.534 554.847C762.534 554.261 762.388 553.732 762.095 553.26C761.802 552.771 761.24 552.332 760.41 551.941C759.596 551.551 758.392 551.193 756.797 550.867C755.397 550.558 754.111 550.192 752.939 549.769C751.784 549.329 750.791 548.8 749.961 548.182C749.131 547.563 748.488 546.831 748.032 545.984C747.576 545.138 747.349 544.161 747.349 543.055C747.349 541.98 747.585 540.963 748.057 540.003C748.529 539.043 749.204 538.196 750.083 537.464C750.962 536.731 752.028 536.154 753.281 535.73C754.551 535.307 755.967 535.096 757.529 535.096C759.743 535.096 761.639 535.47 763.218 536.219C764.813 536.951 766.034 537.952 766.88 539.222C767.726 540.475 768.149 541.891 768.149 543.47H762.266C762.266 542.77 762.087 542.119 761.729 541.517C761.387 540.898 760.866 540.402 760.166 540.027C759.466 539.637 758.587 539.441 757.529 539.441C756.52 539.441 755.682 539.604 755.015 539.93C754.364 540.239 753.875 540.646 753.55 541.15C753.241 541.655 753.086 542.208 753.086 542.811C753.086 543.25 753.167 543.649 753.33 544.007C753.509 544.349 753.802 544.666 754.209 544.959C754.616 545.236 755.169 545.496 755.869 545.74C756.585 545.984 757.48 546.22 758.555 546.448C760.573 546.871 762.306 547.417 763.755 548.084C765.22 548.735 766.343 549.581 767.124 550.623C767.905 551.648 768.296 552.951 768.296 554.529C768.296 555.701 768.044 556.775 767.539 557.752C767.051 558.712 766.335 559.55 765.391 560.267C764.447 560.966 763.315 561.512 761.997 561.902C760.695 562.293 759.23 562.488 757.603 562.488C755.21 562.488 753.184 562.065 751.523 561.219C749.863 560.356 748.602 559.257 747.739 557.923C746.893 556.572 746.47 555.172 746.47 553.724H752.158C752.223 554.814 752.524 555.685 753.062 556.336C753.615 556.971 754.299 557.435 755.112 557.728C755.942 558.004 756.797 558.143 757.676 558.143C758.734 558.143 759.621 558.004 760.337 557.728C761.053 557.435 761.598 557.044 761.973 556.556C762.347 556.051 762.534 555.481 762.534 554.847Z" fill="#1C4670"/>
<path fill-rule="evenodd" clip-rule="evenodd" d="M147.351 164.702C170.127 164.702 188.702 146.127 188.702 123.351C188.702 100.575 170.127 82 147.351 82C124.575 82 106 100.575 106 123.351C106 146.127 124.575 164.702 147.351 164.702Z" fill="url(#paint0_radial_1017_385)"/>
<path d="M147.351 164.702C170.127 164.702 188.702 146.127 188.702 123.351C188.702 100.575 170.127 82 147.351 82C124.575 82 106 100.575 106 123.351C106 146.127 124.575 164.702 147.351 164.702Z" stroke="#53595E" stroke-miterlimit="2.6131"/>
<path fill-rule="evenodd" clip-rule="evenodd" d="M147.351 371.611C170.127 371.611 188.702 353.037 188.702 330.265C188.702 307.489 170.127 288.914 147.351 288.914C124.575 288.914 106 307.489 106 330.265C106 353.037 124.575 371.611 147.351 371.611Z" fill="url(#paint1_radial_1017_385)"/>
<path d="M147.351 371.611C170.127 371.611 188.702 353.037 188.702 330.265C188.702 307.489 170.127 288.914 147.351 288.914C124.575 288.914 106 307.489 106 330.265C106 353.037 124.575 371.611 147.351 371.611Z" stroke="#53595E" stroke-miterlimit="2.6131"/>
<path fill-rule="evenodd" clip-rule="evenodd" d="M147.351 590.506C170.127 590.506 188.702 571.932 188.702 549.156C188.702 526.379 170.127 507.805 147.351 507.805C124.575 507.805 106 526.379 106 549.156C106 571.932 124.575 590.506 147.351 590.506Z" fill="url(#paint2_radial_1017_385)"/>
<path d="M147.351 590.506C170.127 590.506 188.702 571.932 188.702 549.156C188.702 526.379 170.127 507.805 147.351 507.805C124.575 507.805 106 526.379 106 549.156C106 571.932 124.575 590.506 147.351 590.506Z" stroke="#53595E" stroke-miterlimit="2.6131"/>
<defs>
<radialGradient id="paint0_radial_1017_385" cx="0" cy="0" r="1" gradientUnits="userSpaceOnUse" gradientTransform="translate(147.351 123.352) scale(41.35)">
<stop offset="0.2978" stop-color="#FFCB42"/>
<stop offset="1" stop-color="#C5850D"/>
</radialGradient>
<radialGradient id="paint1_radial_1017_385" cx="0" cy="0" r="1" gradientUnits="userSpaceOnUse" gradientTransform="translate(147.351 330.262) scale(41.3496 41.3496)">
<stop stop-color="#49EAD1"/>
<stop offset="1" stop-color="#108977"/>
</radialGradient>
<radialGradient id="paint2_radial_1017_385" cx="0" cy="0" r="1" gradientUnits="userSpaceOnUse" gradientTransform="translate(147.351 549.158) scale(41.3496)">
<stop offset="0.1688" stop-color="#53B8FF"/>
<stop offset="1" stop-color="#0A558E"/>
</radialGradient>
</defs>
</svg>
