<svg width="1080" height="1080" viewBox="0 0 1080 1080" fill="none" xmlns="http://www.w3.org/2000/svg">
<g clip-path="url(#clip0_701_9)">
<rect width="1080" height="1080" transform="translate(1080 1080) rotate(180)" fill="white"/>
<path d="M779.567 863.511C779.567 863.511 830.87 897.68 861.958 869.772C893.045 841.864 860.137 821.066 889.259 787.406C918.381 753.746 961.869 756.707 968.446 713.68C975.023 670.652 933.33 681.646 969.368 636.993C1005.41 592.339 987.69 463.743 936.558 476.314C885.425 488.885 904.669 607.361 891.759 622.213C878.848 637.065 846.426 626.339 842.276 657.887C838.126 689.436 857.686 728.483 834.074 748.238C810.461 767.992 765.176 813.203 779.567 863.511Z" fill="#1C4670"/>
<path d="M743.191 887.253C743.191 887.253 907.899 791.685 957.964 556.867" stroke="white" stroke-width="2" stroke-miterlimit="10"/>
<path d="M759.715 927.418C759.715 927.418 761.559 964.111 785.973 969.086C810.387 974.061 808.639 950.909 835.091 952.875C861.544 954.841 875.595 976.731 898.504 964.597C921.413 952.463 901.392 936.421 935.561 937.902C969.731 939.382 1024.92 885.094 1000.82 865.098C976.72 845.101 926.704 896.428 915.055 895.481C903.406 894.535 896.999 875.242 880.473 884.439C863.946 893.637 852.128 916.886 834.363 912.59C816.599 908.295 778.692 902.64 759.715 927.418Z" fill="#FFA229"/>
<path d="M749.645 921.38C749.645 921.38 847.032 953.753 977.764 885.172" stroke="white" stroke-width="2" stroke-miterlimit="10"/>
<path d="M771.973 920.87C771.973 920.87 803.036 959.092 833.395 945.138C863.755 931.184 843.539 907.523 873.729 888.691C903.918 869.859 936.437 882.454 951.629 851.172C966.821 819.891 932.409 818.386 970.51 792.929C1008.61 767.472 1025.38 665.036 983.469 662.488C941.558 659.94 928.089 754.973 914.742 763.225C901.394 771.476 879.165 755.604 868.632 778.659C858.1 801.714 863.779 836.199 840.967 845.688C818.155 855.176 772.895 879.008 771.973 920.87Z" fill="#FFBB6A"/>
<path d="M754.082 922.078C754.082 922.078 887.338 880.215 974.436 702.5" stroke="white" stroke-width="2" stroke-miterlimit="10"/>
<path d="M846.936 909.521C859.434 882.365 894.016 864.285 918.842 857.952C943.668 851.618 941.29 838.294 943.304 812.522C945.27 787.404 1001.55 736.466 1004.39 733.82C998.611 758.331 986.453 782.356 970.63 792.865C932.529 818.419 966.966 819.899 951.75 851.108C936.534 882.317 904.039 869.819 873.849 888.651C843.66 907.483 863.875 931.12 833.516 945.074C816.528 952.888 799.249 944.297 787.406 935.245C787.406 935.245 834.341 936.653 846.936 909.521Z" fill="#FFA229"/>
<path d="M430.666 863.517C430.666 863.517 379.387 897.686 348.276 869.778C317.164 841.869 350.096 821.072 320.998 787.412C291.901 753.752 248.388 756.713 241.811 713.71C235.235 670.707 276.903 681.676 240.865 637.023C204.827 592.369 222.664 463.846 273.7 476.344C324.736 488.842 305.564 607.391 318.474 622.243C331.385 637.095 363.831 626.345 367.957 657.893C372.083 689.442 352.547 728.489 376.184 748.243C399.821 767.997 445.081 813.209 430.666 863.517Z" fill="#1C4670"/>
<path d="M467.071 887.253C467.071 887.253 302.363 791.685 252.371 556.867" stroke="white" stroke-width="2" stroke-miterlimit="10"/>
<path d="M450.544 927.418C450.544 927.418 448.675 964.111 424.261 969.086C399.848 974.061 401.595 950.909 375.143 952.875C348.69 954.841 334.664 976.731 311.73 964.597C288.797 952.463 308.867 936.421 274.697 937.902C240.528 939.382 185.342 885.094 209.44 865.098C233.538 845.101 283.531 896.428 295.179 895.481C306.828 894.535 313.259 875.242 329.786 884.439C346.312 893.637 358.106 916.886 375.895 912.59C393.683 908.295 431.542 902.64 450.544 927.418Z" fill="#FFA229"/>
<path d="M460.589 921.38C460.589 921.38 363.201 953.753 232.469 885.172" stroke="white" stroke-width="2" stroke-miterlimit="10"/>
<path d="M438.262 920.87C438.262 920.87 407.199 959.092 376.84 945.138C346.48 931.184 366.72 907.523 336.531 888.691C306.341 869.859 273.822 882.454 258.606 851.172C243.39 819.891 277.826 818.386 239.75 792.929C201.673 767.472 184.855 665.036 226.766 662.488C268.677 659.94 282.146 754.973 295.493 763.225C308.841 771.476 331.095 755.604 341.603 778.659C352.111 801.714 346.456 836.199 369.268 845.688C392.08 855.176 437.34 879.008 438.262 920.87Z" fill="#FFBB6A"/>
<path d="M456.221 922.078C456.221 922.078 322.99 880.215 235.867 702.5" stroke="white" stroke-width="2" stroke-miterlimit="10"/>
<path d="M363.419 909.521C350.945 882.365 316.363 864.285 291.537 857.952C266.711 851.618 269.065 838.294 267.051 812.522C265.085 787.404 208.807 736.466 205.992 733.82C211.768 758.331 223.902 782.356 239.749 792.865C277.826 818.419 243.414 819.899 258.605 851.108C273.797 882.317 306.316 869.819 336.53 888.651C366.744 907.483 346.504 931.12 376.839 945.074C393.827 952.888 411.106 944.297 422.949 935.245C422.949 935.245 375.893 936.653 363.419 909.521Z" fill="#FFA229"/>
<g style="mix-blend-mode:multiply">
<path d="M602.627 1009.71C784.518 1009.71 931.969 1000.7 931.969 989.572C931.969 978.448 784.518 969.43 602.627 969.43C420.737 969.43 273.285 978.448 273.285 989.572C273.285 1000.7 420.737 1009.71 602.627 1009.71Z" fill="#E2E2E2"/>
</g>
<path d="M905.181 58.2578H301.683C292.998 58.2578 285.957 65.2985 285.957 73.9835V971.854C285.957 980.539 292.998 987.58 301.683 987.58H905.181C913.866 987.58 920.907 980.539 920.907 971.854V73.9835C920.907 65.2985 913.866 58.2578 905.181 58.2578Z" fill="#1C4670"/>
<path d="M885.523 90.6406H316V987.419H885.523V90.6406Z" fill="#FCFCFC"/>
<path d="M810.924 442.602H474.059V456.823H810.924V442.602Z" fill="#D9D9D9"/>
<path d="M810.924 498.797H474.059V513.018H810.924V498.797Z" fill="#D9D9D9"/>
<path d="M810.924 555.008H474.059V569.229H810.924V555.008Z" fill="#D9D9D9"/>
<path d="M810.924 611.227H474.059V625.448H810.924V611.227Z" fill="#D9D9D9"/>
<path d="M810.924 667.438H474.059V681.659H810.924V667.438Z" fill="#D9D9D9"/>
<path d="M810.924 723.633H474.059V737.854H810.924V723.633Z" fill="#D9D9D9"/>
<path d="M810.924 787.094H551.328V801.315H810.924V787.094Z" fill="#D9D9D9"/>
<path d="M810.924 843.328H551.328V857.549H810.924V843.328Z" fill="#D9D9D9"/>
<path d="M810.924 897.305H551.328V911.526H810.924V897.305Z" fill="#D9D9D9"/>
<path d="M440.347 441.484H376.668C374.524 441.484 372.785 443.223 372.785 445.367V509.047C372.785 511.191 374.524 512.93 376.668 512.93H440.347C442.492 512.93 444.23 511.191 444.23 509.047V445.367C444.23 443.223 442.492 441.484 440.347 441.484Z" fill="#D9D9D9"/>
<path d="M386.328 475.403L404.189 491.323L430.69 463.852" stroke="#28478F" stroke-width="3" stroke-miterlimit="10"/>
<path d="M440.347 553.93H376.668C374.524 553.93 372.785 555.668 372.785 557.813V621.492C372.785 623.636 374.524 625.375 376.668 625.375H440.347C442.492 625.375 444.23 623.636 444.23 621.492V557.813C444.23 555.668 442.492 553.93 440.347 553.93Z" fill="#D9D9D9"/>
<path d="M386.328 587.856L404.189 603.776L430.69 576.305" stroke="#FCFCFC" stroke-width="3" stroke-miterlimit="10"/>
<path d="M376.669 666.399H440.324C440.834 666.399 441.339 666.499 441.81 666.694C442.281 666.889 442.709 667.175 443.07 667.536C443.43 667.896 443.716 668.324 443.911 668.795C444.107 669.267 444.207 669.772 444.207 670.281V733.937C444.207 734.966 443.798 735.954 443.07 736.682C442.342 737.41 441.354 737.819 440.324 737.819H376.669C375.633 737.819 374.639 737.408 373.906 736.675C373.173 735.942 372.762 734.949 372.762 733.912V670.306C372.759 669.792 372.857 669.282 373.053 668.807C373.248 668.331 373.536 667.899 373.899 667.536C374.262 667.172 374.694 666.885 375.17 666.689C375.645 666.494 376.155 666.395 376.669 666.399Z" fill="#D9D9D9"/>
<path d="M386.328 700.317L404.189 716.237L430.69 688.766" stroke="#FCFCFC" stroke-width="3" stroke-miterlimit="10"/>
<path d="M408.363 966.422L394.094 945.624L369.219 949.677L406.64 862.094L445.809 878.839L408.363 966.422Z" fill="#FFDA78"/>
<path d="M384.336 914.24C384.887 915.268 385.609 916.196 386.472 916.982C390.791 920.768 398.606 919.53 404.066 921.836C409.526 924.141 414.064 930.669 419.792 931.179C421.079 931.267 422.372 931.111 423.602 930.718L445.807 878.784L406.638 862.039L384.336 914.24Z" fill="#E0AB67"/>
<path d="M456.387 966.422L470.657 945.624L495.531 949.677L458.11 862.094L418.941 878.839L456.387 966.422Z" fill="#FFDA78"/>
<path d="M480.485 914.249C479.942 915.283 479.219 916.212 478.35 916.991C474.03 920.777 466.216 919.54 460.755 921.845C455.295 924.151 450.757 930.679 445.054 931.188C443.766 931.277 442.473 931.12 441.244 930.727L418.941 878.745L458.086 862L480.485 914.249Z" fill="#E0AB67"/>
<path d="M506.258 856.367C506.258 863.647 498.977 869.763 496.745 876.363C494.512 882.964 496.745 892.453 492.692 898.205C488.639 903.956 478.981 904.563 473.278 908.761C467.575 912.96 464.08 921.793 457.212 924.026C450.344 926.259 442.651 921.09 435.371 921.09C428.09 921.09 420.009 926.162 413.408 924.026C406.807 921.89 403.07 912.911 397.367 908.761C391.664 904.612 382.078 903.908 377.953 898.205C373.827 892.502 376.157 883.256 373.924 876.363C371.691 869.471 364.387 863.696 364.387 856.367C364.387 849.038 371.788 842.995 373.924 836.394C376.06 829.793 373.803 820.304 377.953 814.553C382.102 808.801 391.688 808.194 397.367 803.996C403.046 799.798 406.565 790.964 413.408 788.731C420.252 786.499 427.969 791.668 435.371 791.668C442.773 791.668 450.733 786.596 457.212 788.731C463.692 790.867 467.575 799.846 473.278 803.996C478.981 808.146 488.566 808.85 492.692 814.553C496.818 820.256 494.512 829.502 496.745 836.394C498.977 843.286 506.258 849.062 506.258 856.367Z" fill="#FFA229"/>
<path d="M474.858 884.544C489.332 860.907 481.903 830.011 458.266 815.537C434.628 801.063 403.732 808.492 389.258 832.13C374.784 855.767 382.213 886.663 405.851 901.137C429.489 915.611 460.384 908.182 474.858 884.544Z" fill="#E0AB67"/>
<path d="M435.229 906.576C462.947 906.576 485.416 884.107 485.416 856.389C485.416 828.672 462.947 806.203 435.229 806.203C407.512 806.203 385.043 828.672 385.043 856.389C385.043 884.107 407.512 906.576 435.229 906.576Z" fill="#FFDA78"/>
<path d="M481.049 863.952C486.752 839.697 471.712 815.412 447.457 809.71C423.203 804.007 398.918 819.047 393.216 843.302C387.513 867.556 402.553 891.841 426.808 897.544C451.062 903.246 475.347 888.206 481.049 863.952Z" fill="#FFE68A"/>
<path d="M454.956 842.982C454.956 844.73 454.438 846.439 453.466 847.892C452.494 849.345 451.113 850.478 449.498 851.146C447.882 851.813 446.105 851.987 444.39 851.644C442.676 851.301 441.102 850.457 439.868 849.22C438.633 847.982 437.794 846.406 437.456 844.69C437.118 842.975 437.296 841.198 437.968 839.585C438.641 837.971 439.777 836.593 441.233 835.625C442.689 834.658 444.399 834.144 446.147 834.148C447.306 834.148 448.453 834.377 449.524 834.821C450.594 835.266 451.566 835.917 452.385 836.737C453.203 837.558 453.851 838.532 454.293 839.603C454.734 840.675 454.959 841.823 454.956 842.982Z" fill="#FFFFA6"/>
<path d="M431.954 791.71C432.512 791.71 433.07 791.71 433.629 791.71C427.513 791.127 421.033 787.778 415.379 788.458C420.621 788.943 426.421 791.71 431.954 791.71Z" fill="#FFDA78"/>
<path d="M431.954 921.039C426.518 921.039 420.718 923.83 415.379 924.388C421.033 925.068 427.513 921.719 433.629 921.136C432.973 921.088 432.415 921.039 431.954 921.039Z" fill="#FFDA78"/>
<path d="M496.748 836.395C494.516 829.552 496.748 820.305 492.696 814.554C488.643 808.802 478.984 808.196 473.281 803.997C467.578 799.799 464.084 790.965 457.216 788.733C455.471 788.204 453.633 788.063 451.828 788.32C452.521 788.383 453.204 788.521 453.867 788.733C460.71 790.965 464.205 799.848 469.908 803.997C475.611 808.147 485.197 808.851 489.322 814.554C493.448 820.257 491.118 829.503 493.351 836.395C495.583 843.287 502.888 849.063 502.888 856.368C502.888 863.673 495.486 869.764 493.351 876.365C491.215 882.966 493.472 892.454 489.322 898.206C485.172 903.958 475.587 904.564 469.908 908.763C464.229 912.961 460.71 921.795 453.867 924.027C453.204 924.239 452.521 924.377 451.828 924.44C453.633 924.697 455.471 924.556 457.216 924.027C464.084 921.795 467.578 912.912 473.281 908.763C478.984 904.613 488.57 903.909 492.696 898.206C496.821 892.503 494.516 883.257 496.748 876.365C498.981 869.473 506.261 863.697 506.261 856.368C506.261 849.039 498.884 842.996 496.748 836.395Z" fill="#FFDA78"/>
<path d="M427.348 195.986C427.348 195.467 427.267 195.003 427.106 194.595C426.958 194.174 426.68 193.797 426.271 193.463C425.876 193.117 425.313 192.783 424.583 192.461C423.866 192.127 422.938 191.781 421.8 191.422C420.538 191.026 419.363 190.581 418.274 190.086C417.186 189.591 416.227 189.016 415.398 188.36C414.582 187.705 413.945 186.95 413.487 186.097C413.03 185.231 412.801 184.229 412.801 183.091C412.801 181.978 413.036 180.963 413.506 180.048C413.988 179.132 414.669 178.347 415.547 177.691C416.425 177.023 417.458 176.51 418.646 176.151C419.845 175.793 421.169 175.613 422.616 175.613C424.62 175.613 426.352 175.978 427.812 176.708C429.284 177.438 430.422 178.427 431.226 179.677C432.03 180.926 432.432 182.33 432.432 183.889H427.348C427.348 183.048 427.168 182.305 426.81 181.662C426.463 181.019 425.931 180.512 425.214 180.141C424.509 179.77 423.618 179.584 422.542 179.584C421.503 179.584 420.637 179.739 419.944 180.048C419.264 180.357 418.751 180.778 418.404 181.31C418.07 181.841 417.903 182.435 417.903 183.091C417.903 183.586 418.021 184.031 418.256 184.427C418.491 184.81 418.843 185.175 419.313 185.521C419.784 185.855 420.365 186.171 421.058 186.468C421.763 186.752 422.579 187.037 423.507 187.321C424.991 187.767 426.29 188.261 427.403 188.806C428.529 189.35 429.463 189.968 430.205 190.661C430.96 191.354 431.522 192.133 431.894 192.999C432.277 193.865 432.469 194.848 432.469 195.949C432.469 197.112 432.24 198.151 431.782 199.066C431.325 199.982 430.669 200.761 429.815 201.404C428.962 202.048 427.935 202.536 426.735 202.87C425.548 203.204 424.218 203.371 422.746 203.371C421.435 203.371 420.136 203.198 418.85 202.852C417.576 202.493 416.419 201.961 415.38 201.256C414.341 200.538 413.512 199.635 412.894 198.547C412.275 197.446 411.966 196.16 411.966 194.688H417.087C417.087 195.541 417.223 196.271 417.495 196.877C417.78 197.471 418.175 197.959 418.683 198.343C419.202 198.714 419.808 198.986 420.501 199.159C421.194 199.332 421.942 199.419 422.746 199.419C423.785 199.419 424.639 199.277 425.307 198.992C425.987 198.695 426.494 198.287 426.828 197.768C427.174 197.248 427.348 196.654 427.348 195.986ZM440.911 187.043V203H436.013V182.924H440.633L440.911 187.043ZM440.188 192.238H438.685C438.685 190.84 438.852 189.554 439.186 188.379C439.532 187.204 440.039 186.183 440.707 185.317C441.375 184.439 442.198 183.759 443.175 183.276C444.164 182.794 445.309 182.553 446.607 182.553C447.51 182.553 448.339 182.689 449.094 182.961C449.848 183.221 450.498 183.635 451.042 184.204C451.599 184.761 452.025 185.491 452.322 186.394C452.619 187.284 452.768 188.354 452.768 189.604V203H447.869V190.104C447.869 189.164 447.733 188.428 447.461 187.896C447.201 187.365 446.824 186.993 446.329 186.783C445.834 186.561 445.241 186.449 444.548 186.449C443.781 186.449 443.119 186.604 442.562 186.913C442.018 187.21 441.567 187.624 441.208 188.156C440.862 188.688 440.602 189.3 440.429 189.993C440.268 190.686 440.188 191.434 440.188 192.238ZM452.396 191.329L450.374 191.7C450.386 190.438 450.56 189.257 450.894 188.156C451.228 187.043 451.716 186.072 452.359 185.243C453.015 184.402 453.825 183.746 454.79 183.276C455.767 182.794 456.893 182.553 458.167 182.553C459.157 182.553 460.047 182.695 460.839 182.979C461.643 183.252 462.329 183.691 462.898 184.297C463.467 184.891 463.9 185.664 464.197 186.616C464.507 187.569 464.661 188.731 464.661 190.104V203H459.726V190.086C459.726 189.109 459.59 188.36 459.317 187.841C459.058 187.321 458.68 186.963 458.186 186.765C457.691 186.554 457.109 186.449 456.441 186.449C455.761 186.449 455.167 186.579 454.66 186.839C454.165 187.086 453.745 187.433 453.398 187.878C453.064 188.323 452.811 188.843 452.638 189.437C452.477 190.018 452.396 190.649 452.396 191.329ZM480.117 198.732V189.474C480.117 188.793 480 188.206 479.765 187.711C479.53 187.216 479.171 186.833 478.688 186.561C478.206 186.288 477.594 186.152 476.852 186.152C476.196 186.152 475.621 186.264 475.126 186.486C474.644 186.709 474.272 187.024 474.013 187.433C473.753 187.828 473.623 188.286 473.623 188.806H468.706C468.706 187.977 468.904 187.191 469.3 186.449C469.696 185.695 470.258 185.027 470.988 184.445C471.73 183.852 472.615 183.388 473.642 183.054C474.681 182.72 475.843 182.553 477.13 182.553C478.651 182.553 480.006 182.812 481.193 183.332C482.393 183.839 483.333 184.606 484.014 185.633C484.706 186.66 485.053 187.952 485.053 189.511V198.269C485.053 199.271 485.115 200.13 485.238 200.848C485.374 201.553 485.572 202.165 485.832 202.685V203H480.841C480.606 202.493 480.426 201.85 480.303 201.07C480.179 200.279 480.117 199.499 480.117 198.732ZM480.804 190.772L480.841 193.686H477.742C476.975 193.686 476.301 193.766 475.72 193.927C475.138 194.075 474.662 194.298 474.291 194.595C473.92 194.879 473.642 195.226 473.456 195.634C473.271 196.03 473.178 196.481 473.178 196.988C473.178 197.483 473.289 197.928 473.512 198.324C473.747 198.72 474.081 199.035 474.514 199.271C474.959 199.493 475.479 199.604 476.072 199.604C476.938 199.604 477.693 199.431 478.336 199.085C478.979 198.726 479.48 198.293 479.839 197.786C480.198 197.279 480.389 196.797 480.414 196.339L481.824 198.454C481.651 198.961 481.391 199.499 481.045 200.068C480.699 200.637 480.253 201.169 479.709 201.664C479.165 202.159 478.509 202.567 477.742 202.889C476.975 203.21 476.085 203.371 475.07 203.371C473.771 203.371 472.609 203.111 471.582 202.592C470.555 202.072 469.745 201.361 469.151 200.458C468.558 199.555 468.261 198.528 468.261 197.378C468.261 196.314 468.459 195.374 468.854 194.558C469.25 193.741 469.838 193.055 470.617 192.498C471.396 191.929 472.361 191.502 473.512 191.218C474.674 190.921 476.004 190.772 477.501 190.772H480.804ZM494.664 174.5V203H489.747V174.5H494.664ZM504.535 174.5V203H499.618V174.5H504.535ZM533.184 195.986C533.184 195.467 533.103 195.003 532.942 194.595C532.794 194.174 532.516 193.797 532.107 193.463C531.712 193.117 531.149 192.783 530.419 192.461C529.701 192.127 528.774 191.781 527.636 191.422C526.374 191.026 525.199 190.581 524.11 190.086C523.022 189.591 522.063 189.016 521.234 188.36C520.418 187.705 519.781 186.95 519.323 186.097C518.866 185.231 518.637 184.229 518.637 183.091C518.637 181.978 518.872 180.963 519.342 180.048C519.824 179.132 520.505 178.347 521.383 177.691C522.261 177.023 523.294 176.51 524.481 176.151C525.681 175.793 527.005 175.613 528.452 175.613C530.456 175.613 532.188 175.978 533.647 176.708C535.119 177.438 536.257 178.427 537.062 179.677C537.866 180.926 538.268 182.33 538.268 183.889H533.184C533.184 183.048 533.004 182.305 532.646 181.662C532.299 181.019 531.767 180.512 531.05 180.141C530.345 179.77 529.454 179.584 528.378 179.584C527.339 179.584 526.473 179.739 525.78 180.048C525.1 180.357 524.587 180.778 524.24 181.31C523.906 181.841 523.739 182.435 523.739 183.091C523.739 183.586 523.857 184.031 524.092 184.427C524.327 184.81 524.679 185.175 525.149 185.521C525.619 185.855 526.201 186.171 526.894 186.468C527.599 186.752 528.415 187.037 529.343 187.321C530.827 187.767 532.126 188.261 533.239 188.806C534.365 189.35 535.299 189.968 536.041 190.661C536.796 191.354 537.358 192.133 537.729 192.999C538.113 193.865 538.305 194.848 538.305 195.949C538.305 197.112 538.076 198.151 537.618 199.066C537.16 199.982 536.505 200.761 535.651 201.404C534.798 202.048 533.771 202.536 532.571 202.87C531.384 203.204 530.054 203.371 528.582 203.371C527.271 203.371 525.972 203.198 524.686 202.852C523.411 202.493 522.255 201.961 521.216 201.256C520.177 200.538 519.348 199.635 518.729 198.547C518.111 197.446 517.802 196.16 517.802 194.688H522.923C522.923 195.541 523.059 196.271 523.331 196.877C523.616 197.471 524.011 197.959 524.519 198.343C525.038 198.714 525.644 198.986 526.337 199.159C527.03 199.332 527.778 199.419 528.582 199.419C529.621 199.419 530.475 199.277 531.143 198.992C531.823 198.695 532.33 198.287 532.664 197.768C533.01 197.248 533.184 196.654 533.184 195.986ZM550.105 199.512C550.798 199.512 551.417 199.376 551.961 199.104C552.505 198.831 552.938 198.448 553.26 197.953C553.594 197.458 553.773 196.883 553.798 196.228H558.418C558.393 197.588 558.01 198.807 557.268 199.883C556.525 200.959 555.536 201.812 554.299 202.443C553.074 203.062 551.701 203.371 550.18 203.371C548.633 203.371 547.285 203.111 546.135 202.592C544.984 202.072 544.026 201.349 543.259 200.421C542.504 199.493 541.935 198.417 541.552 197.192C541.181 195.968 540.995 194.657 540.995 193.259V192.665C540.995 191.267 541.181 189.956 541.552 188.731C541.935 187.507 542.504 186.431 543.259 185.503C544.026 184.575 544.984 183.852 546.135 183.332C547.285 182.812 548.627 182.553 550.161 182.553C551.782 182.553 553.204 182.868 554.429 183.499C555.666 184.13 556.631 185.021 557.323 186.171C558.028 187.321 558.393 188.676 558.418 190.234H553.798C553.773 189.517 553.612 188.874 553.315 188.305C553.019 187.736 552.598 187.278 552.054 186.932C551.509 186.585 550.848 186.412 550.068 186.412C549.24 186.412 548.547 186.585 547.99 186.932C547.446 187.278 547.019 187.754 546.71 188.36C546.413 188.954 546.203 189.622 546.079 190.364C545.968 191.094 545.912 191.861 545.912 192.665V193.259C545.912 194.075 545.968 194.854 546.079 195.597C546.203 196.339 546.413 197.007 546.71 197.601C547.019 198.182 547.446 198.646 547.99 198.992C548.547 199.339 549.252 199.512 550.105 199.512ZM572.742 198.732V189.474C572.742 188.793 572.625 188.206 572.39 187.711C572.155 187.216 571.796 186.833 571.313 186.561C570.831 186.288 570.219 186.152 569.477 186.152C568.821 186.152 568.246 186.264 567.751 186.486C567.269 186.709 566.897 187.024 566.638 187.433C566.378 187.828 566.248 188.286 566.248 188.806H561.331C561.331 187.977 561.529 187.191 561.925 186.449C562.321 185.695 562.883 185.027 563.613 184.445C564.355 183.852 565.24 183.388 566.267 183.054C567.306 182.72 568.468 182.553 569.755 182.553C571.276 182.553 572.631 182.812 573.818 183.332C575.018 183.839 575.958 184.606 576.639 185.633C577.331 186.66 577.678 187.952 577.678 189.511V198.269C577.678 199.271 577.74 200.13 577.863 200.848C577.999 201.553 578.197 202.165 578.457 202.685V203H573.466C573.231 202.493 573.051 201.85 572.928 201.07C572.804 200.279 572.742 199.499 572.742 198.732ZM573.429 190.772L573.466 193.686H570.367C569.6 193.686 568.926 193.766 568.345 193.927C567.763 194.075 567.287 194.298 566.916 194.595C566.545 194.879 566.267 195.226 566.081 195.634C565.896 196.03 565.803 196.481 565.803 196.988C565.803 197.483 565.914 197.928 566.137 198.324C566.372 198.72 566.706 199.035 567.139 199.271C567.584 199.493 568.104 199.604 568.697 199.604C569.563 199.604 570.318 199.431 570.961 199.085C571.604 198.726 572.105 198.293 572.464 197.786C572.823 197.279 573.014 196.797 573.039 196.339L574.449 198.454C574.276 198.961 574.016 199.499 573.67 200.068C573.324 200.637 572.878 201.169 572.334 201.664C571.79 202.159 571.134 202.567 570.367 202.889C569.6 203.21 568.71 203.371 567.695 203.371C566.396 203.371 565.234 203.111 564.207 202.592C563.18 202.072 562.37 201.361 561.776 200.458C561.183 199.555 560.886 198.528 560.886 197.378C560.886 196.314 561.084 195.374 561.479 194.558C561.875 193.741 562.463 193.055 563.242 192.498C564.021 191.929 564.986 191.502 566.137 191.218C567.299 190.921 568.629 190.772 570.126 190.772H573.429ZM587.289 174.5V203H582.372V174.5H587.289ZM600.982 203.371C599.461 203.371 598.094 203.124 596.882 202.629C595.67 202.134 594.637 201.448 593.783 200.569C592.942 199.679 592.293 198.646 591.835 197.471C591.39 196.283 591.167 195.009 591.167 193.648V192.906C591.167 191.36 591.39 189.956 591.835 188.694C592.28 187.42 592.911 186.326 593.728 185.41C594.544 184.495 595.521 183.79 596.659 183.295C597.797 182.8 599.053 182.553 600.426 182.553C601.848 182.553 603.104 182.794 604.192 183.276C605.281 183.746 606.19 184.414 606.92 185.28C607.65 186.146 608.2 187.185 608.571 188.397C608.942 189.597 609.128 190.927 609.128 192.387V194.446H593.394V191.069H604.304V190.698C604.279 189.919 604.131 189.208 603.858 188.564C603.586 187.909 603.166 187.389 602.597 187.006C602.028 186.61 601.292 186.412 600.389 186.412C599.659 186.412 599.022 186.573 598.478 186.895C597.946 187.204 597.5 187.649 597.142 188.23C596.795 188.799 596.535 189.48 596.362 190.271C596.189 191.063 596.103 191.941 596.103 192.906V193.648C596.103 194.49 596.214 195.269 596.437 195.986C596.672 196.704 597.012 197.328 597.457 197.86C597.915 198.38 598.459 198.788 599.09 199.085C599.733 199.369 600.463 199.512 601.279 199.512C602.306 199.512 603.234 199.314 604.062 198.918C604.904 198.51 605.633 197.91 606.252 197.118L608.72 199.679C608.299 200.297 607.73 200.891 607.013 201.46C606.308 202.029 605.454 202.493 604.452 202.852C603.45 203.198 602.294 203.371 600.982 203.371ZM627.683 175.984V203H622.58V175.984H627.683ZM637.628 187.21V203H632.729V182.924H637.331L637.628 187.21ZM636.849 192.238H635.401C635.414 190.779 635.612 189.455 635.995 188.268C636.379 187.08 636.917 186.06 637.609 185.206C638.314 184.353 639.149 183.697 640.114 183.239C641.079 182.782 642.155 182.553 643.343 182.553C644.308 182.553 645.18 182.689 645.959 182.961C646.738 183.233 647.406 183.666 647.963 184.26C648.532 184.854 648.965 185.633 649.262 186.598C649.571 187.55 649.726 188.725 649.726 190.123V203H644.79V190.086C644.79 189.171 644.654 188.447 644.382 187.915C644.122 187.383 643.739 187.006 643.231 186.783C642.737 186.561 642.124 186.449 641.395 186.449C640.64 186.449 639.978 186.604 639.409 186.913C638.853 187.21 638.382 187.624 637.999 188.156C637.628 188.688 637.343 189.3 637.146 189.993C636.948 190.686 636.849 191.434 636.849 192.238ZM666.091 198.732V174.5H671.026V203H666.573L666.091 198.732ZM653.195 193.203V192.813C653.195 191.28 653.368 189.888 653.715 188.639C654.074 187.377 654.593 186.295 655.273 185.392C655.954 184.489 656.776 183.79 657.741 183.295C658.718 182.8 659.826 182.553 661.062 182.553C662.262 182.553 663.308 182.794 664.198 183.276C665.101 183.759 665.868 184.445 666.499 185.336C667.142 186.227 667.656 187.284 668.039 188.509C668.423 189.721 668.701 191.057 668.874 192.517V193.574C668.701 194.997 668.423 196.302 668.039 197.489C667.656 198.677 667.142 199.716 666.499 200.606C665.868 201.485 665.101 202.165 664.198 202.647C663.295 203.13 662.238 203.371 661.025 203.371C659.801 203.371 658.7 203.118 657.723 202.61C656.758 202.103 655.935 201.392 655.255 200.477C654.587 199.561 654.074 198.485 653.715 197.248C653.368 196.011 653.195 194.663 653.195 193.203ZM658.112 192.813V193.203C658.112 194.069 658.187 194.879 658.335 195.634C658.483 196.388 658.725 197.056 659.059 197.638C659.393 198.207 659.819 198.652 660.339 198.974C660.871 199.295 661.514 199.456 662.269 199.456C663.233 199.456 664.025 199.246 664.644 198.825C665.274 198.392 665.763 197.805 666.109 197.062C666.456 196.308 666.678 195.461 666.777 194.521V191.607C666.728 190.865 666.598 190.179 666.388 189.548C666.19 188.917 665.905 188.373 665.534 187.915C665.175 187.457 664.73 187.099 664.198 186.839C663.666 186.579 663.035 186.449 662.306 186.449C661.551 186.449 660.908 186.616 660.376 186.95C659.844 187.272 659.411 187.723 659.077 188.305C658.743 188.886 658.496 189.56 658.335 190.327C658.187 191.094 658.112 191.923 658.112 192.813ZM687.41 198.231V182.924H692.346V203H687.707L687.41 198.231ZM688.041 194.075L689.562 194.038C689.562 195.386 689.414 196.63 689.117 197.768C688.82 198.906 688.356 199.895 687.726 200.736C687.107 201.565 686.322 202.215 685.369 202.685C684.417 203.142 683.291 203.371 681.992 203.371C681.003 203.371 680.1 203.235 679.283 202.963C678.467 202.678 677.762 202.239 677.168 201.646C676.587 201.039 676.135 200.266 675.813 199.326C675.492 198.374 675.331 197.229 675.331 195.894V182.924H680.229V195.931C680.229 196.599 680.304 197.155 680.452 197.601C680.613 198.046 680.829 198.411 681.102 198.695C681.386 198.967 681.714 199.165 682.085 199.289C682.468 199.4 682.877 199.456 683.31 199.456C684.497 199.456 685.431 199.221 686.111 198.751C686.804 198.269 687.299 197.625 687.596 196.821C687.893 196.005 688.041 195.09 688.041 194.075ZM707.728 197.508C707.728 197.087 707.616 196.71 707.394 196.376C707.171 196.042 706.75 195.739 706.132 195.467C705.526 195.182 704.635 194.916 703.46 194.669C702.421 194.446 701.462 194.168 700.584 193.834C699.706 193.5 698.951 193.098 698.32 192.628C697.689 192.146 697.195 191.583 696.836 190.939C696.49 190.284 696.316 189.529 696.316 188.676C696.316 187.847 696.496 187.068 696.854 186.338C697.213 185.596 697.733 184.946 698.413 184.39C699.093 183.821 699.922 183.375 700.899 183.054C701.877 182.72 702.978 182.553 704.202 182.553C705.909 182.553 707.375 182.831 708.6 183.388C709.837 183.944 710.783 184.711 711.438 185.688C712.094 186.653 712.422 187.742 712.422 188.954H707.523C707.523 188.422 707.4 187.94 707.152 187.507C706.917 187.074 706.552 186.728 706.058 186.468C705.563 186.196 704.938 186.06 704.184 186.06C703.503 186.06 702.928 186.171 702.458 186.394C702 186.616 701.654 186.907 701.419 187.266C701.184 187.624 701.066 188.02 701.066 188.453C701.066 188.775 701.128 189.065 701.252 189.325C701.388 189.573 701.604 189.801 701.901 190.012C702.198 190.222 702.6 190.414 703.107 190.587C703.627 190.76 704.264 190.927 705.019 191.088C706.515 191.385 707.82 191.781 708.934 192.275C710.059 192.758 710.938 193.401 711.568 194.205C712.199 195.009 712.515 196.036 712.515 197.285C712.515 198.176 712.323 198.992 711.939 199.734C711.556 200.464 710.999 201.101 710.27 201.646C709.54 202.19 708.668 202.617 707.653 202.926C706.639 203.223 705.495 203.371 704.221 203.371C702.378 203.371 700.819 203.043 699.545 202.388C698.271 201.72 697.306 200.879 696.65 199.864C695.995 198.838 695.667 197.774 695.667 196.673H700.361C700.398 197.452 700.609 198.077 700.992 198.547C701.376 199.017 701.858 199.357 702.439 199.567C703.033 199.765 703.658 199.864 704.313 199.864C705.056 199.864 705.68 199.765 706.188 199.567C706.695 199.357 707.078 199.079 707.338 198.732C707.598 198.374 707.728 197.965 707.728 197.508ZM725.744 182.924V186.449H714.24V182.924H725.744ZM717.32 177.988H722.237V197.211C722.237 197.805 722.318 198.262 722.479 198.584C722.639 198.906 722.881 199.122 723.202 199.233C723.524 199.345 723.907 199.4 724.353 199.4C724.674 199.4 724.971 199.382 725.243 199.345C725.515 199.308 725.744 199.271 725.93 199.233L725.948 202.907C725.54 203.043 725.076 203.155 724.557 203.241C724.049 203.328 723.474 203.371 722.831 203.371C721.73 203.371 720.765 203.186 719.937 202.814C719.108 202.431 718.465 201.819 718.007 200.978C717.549 200.124 717.32 198.998 717.32 197.601V177.988ZM733.908 187.024V203H729.01V182.924H733.648L733.908 187.024ZM740.013 182.794L739.938 187.358C739.666 187.309 739.357 187.272 739.011 187.247C738.677 187.222 738.361 187.21 738.064 187.21C737.31 187.21 736.648 187.315 736.079 187.525C735.51 187.723 735.034 188.014 734.65 188.397C734.279 188.781 733.995 189.251 733.797 189.808C733.599 190.352 733.488 190.97 733.463 191.663L732.405 191.533C732.405 190.259 732.535 189.078 732.795 187.989C733.055 186.901 733.432 185.948 733.927 185.132C734.422 184.315 735.04 183.685 735.782 183.239C736.537 182.782 737.403 182.553 738.38 182.553C738.652 182.553 738.943 182.577 739.252 182.627C739.574 182.664 739.827 182.72 740.013 182.794ZM747.898 182.924V203H742.981V182.924H747.898ZM742.647 177.673C742.647 176.943 742.895 176.337 743.39 175.854C743.897 175.372 744.577 175.131 745.431 175.131C746.284 175.131 746.958 175.372 747.453 175.854C747.96 176.337 748.214 176.943 748.214 177.673C748.214 178.39 747.96 178.99 747.453 179.473C746.958 179.955 746.284 180.196 745.431 180.196C744.577 180.196 743.897 179.955 743.39 179.473C742.895 178.99 742.647 178.39 742.647 177.673ZM761.592 203.371C760.07 203.371 758.703 203.124 757.491 202.629C756.279 202.134 755.246 201.448 754.393 200.569C753.551 199.679 752.902 198.646 752.444 197.471C751.999 196.283 751.776 195.009 751.776 193.648V192.906C751.776 191.36 751.999 189.956 752.444 188.694C752.89 187.42 753.521 186.326 754.337 185.41C755.153 184.495 756.131 183.79 757.269 183.295C758.407 182.8 759.662 182.553 761.035 182.553C762.458 182.553 763.713 182.794 764.802 183.276C765.89 183.746 766.799 184.414 767.529 185.28C768.259 186.146 768.81 187.185 769.181 188.397C769.552 189.597 769.737 190.927 769.737 192.387V194.446H754.003V191.069H764.913V190.698C764.888 189.919 764.74 189.208 764.468 188.564C764.196 187.909 763.775 187.389 763.206 187.006C762.637 186.61 761.901 186.412 760.998 186.412C760.268 186.412 759.631 186.573 759.087 186.895C758.555 187.204 758.11 187.649 757.751 188.23C757.405 188.799 757.145 189.48 756.972 190.271C756.799 191.063 756.712 191.941 756.712 192.906V193.648C756.712 194.49 756.823 195.269 757.046 195.986C757.281 196.704 757.621 197.328 758.066 197.86C758.524 198.38 759.068 198.788 759.699 199.085C760.342 199.369 761.072 199.512 761.889 199.512C762.915 199.512 763.843 199.314 764.672 198.918C765.513 198.51 766.243 197.91 766.861 197.118L769.329 199.679C768.909 200.297 768.34 200.891 767.622 201.46C766.917 202.029 766.063 202.493 765.062 202.852C764.06 203.198 762.903 203.371 761.592 203.371ZM784.062 197.508C784.062 197.087 783.95 196.71 783.728 196.376C783.505 196.042 783.084 195.739 782.466 195.467C781.86 195.182 780.969 194.916 779.794 194.669C778.755 194.446 777.796 194.168 776.918 193.834C776.04 193.5 775.285 193.098 774.654 192.628C774.023 192.146 773.529 191.583 773.17 190.939C772.824 190.284 772.65 189.529 772.65 188.676C772.65 187.847 772.83 187.068 773.188 186.338C773.547 185.596 774.067 184.946 774.747 184.39C775.427 183.821 776.256 183.375 777.233 183.054C778.211 182.72 779.312 182.553 780.536 182.553C782.243 182.553 783.709 182.831 784.934 183.388C786.171 183.944 787.117 184.711 787.772 185.688C788.428 186.653 788.756 187.742 788.756 188.954H783.857C783.857 188.422 783.734 187.94 783.486 187.507C783.251 187.074 782.886 186.728 782.392 186.468C781.897 186.196 781.272 186.06 780.518 186.06C779.837 186.06 779.262 186.171 778.792 186.394C778.334 186.616 777.988 186.907 777.753 187.266C777.518 187.624 777.4 188.02 777.4 188.453C777.4 188.775 777.462 189.065 777.586 189.325C777.722 189.573 777.938 189.801 778.235 190.012C778.532 190.222 778.934 190.414 779.441 190.587C779.961 190.76 780.598 190.927 781.353 191.088C782.849 191.385 784.154 191.781 785.268 192.275C786.393 192.758 787.271 193.401 787.902 194.205C788.533 195.009 788.849 196.036 788.849 197.285C788.849 198.176 788.657 198.992 788.273 199.734C787.89 200.464 787.333 201.101 786.604 201.646C785.874 202.19 785.002 202.617 783.987 202.926C782.973 203.223 781.829 203.371 780.555 203.371C778.712 203.371 777.153 203.043 775.879 202.388C774.605 201.72 773.64 200.879 772.984 199.864C772.329 198.838 772.001 197.774 772.001 196.673H776.695C776.732 197.452 776.943 198.077 777.326 198.547C777.71 199.017 778.192 199.357 778.773 199.567C779.367 199.765 779.992 199.864 780.647 199.864C781.39 199.864 782.014 199.765 782.521 199.567C783.029 199.357 783.412 199.079 783.672 198.732C783.932 198.374 784.062 197.965 784.062 197.508Z" fill="#FFA229"/>
<path d="M499.433 220.984H509.248C511.301 220.984 513.064 221.294 514.536 221.912C516.008 222.531 517.14 223.446 517.932 224.658C518.723 225.87 519.119 227.361 519.119 229.13C519.119 230.528 518.872 231.74 518.377 232.767C517.882 233.793 517.183 234.653 516.28 235.346C515.39 236.038 514.338 236.583 513.126 236.979L511.53 237.795H502.865L502.828 233.769H509.304C510.355 233.769 511.227 233.583 511.92 233.212C512.613 232.841 513.132 232.327 513.479 231.672C513.837 231.016 514.017 230.268 514.017 229.427C514.017 228.524 513.843 227.744 513.497 227.089C513.151 226.421 512.625 225.908 511.92 225.549C511.215 225.19 510.324 225.011 509.248 225.011H504.535V248H499.433V220.984ZM514.685 248L508.432 235.902L513.831 235.884L520.158 247.74V248H514.685ZM532.237 248.371C530.716 248.371 529.349 248.124 528.137 247.629C526.924 247.134 525.892 246.448 525.038 245.569C524.197 244.679 523.548 243.646 523.09 242.471C522.645 241.283 522.422 240.009 522.422 238.648V237.906C522.422 236.36 522.645 234.956 523.09 233.694C523.535 232.42 524.166 231.326 524.982 230.41C525.799 229.495 526.776 228.79 527.914 228.295C529.052 227.8 530.308 227.553 531.681 227.553C533.103 227.553 534.359 227.794 535.447 228.276C536.536 228.746 537.445 229.414 538.175 230.28C538.905 231.146 539.455 232.185 539.826 233.397C540.197 234.597 540.383 235.927 540.383 237.387V239.446H524.648V236.069H535.559V235.698C535.534 234.919 535.385 234.208 535.113 233.564C534.841 232.909 534.421 232.389 533.852 232.006C533.283 231.61 532.547 231.412 531.644 231.412C530.914 231.412 530.277 231.573 529.732 231.895C529.201 232.204 528.755 232.649 528.396 233.23C528.05 233.799 527.79 234.48 527.617 235.271C527.444 236.063 527.357 236.941 527.357 237.906V238.648C527.357 239.49 527.469 240.269 527.691 240.986C527.926 241.704 528.267 242.328 528.712 242.86C529.17 243.38 529.714 243.788 530.345 244.085C530.988 244.369 531.718 244.512 532.534 244.512C533.561 244.512 534.489 244.314 535.317 243.918C536.159 243.51 536.888 242.91 537.507 242.118L539.975 244.679C539.554 245.297 538.985 245.891 538.268 246.46C537.562 247.029 536.709 247.493 535.707 247.852C534.705 248.198 533.549 248.371 532.237 248.371ZM556.433 227.924H560.886V247.388C560.886 249.206 560.49 250.746 559.698 252.008C558.919 253.282 557.824 254.247 556.414 254.902C555.004 255.57 553.365 255.904 551.497 255.904C550.693 255.904 549.821 255.793 548.881 255.57C547.953 255.348 547.056 254.995 546.19 254.513C545.337 254.043 544.626 253.43 544.057 252.676L546.265 249.781C546.933 250.561 547.687 251.148 548.528 251.544C549.369 251.952 550.279 252.156 551.256 252.156C552.245 252.156 553.087 251.971 553.779 251.6C554.484 251.241 555.022 250.709 555.394 250.004C555.777 249.311 555.969 248.458 555.969 247.443V232.507L556.433 227.924ZM542.869 238.203V237.813C542.869 236.28 543.055 234.888 543.426 233.639C543.797 232.377 544.329 231.295 545.021 230.392C545.727 229.489 546.574 228.79 547.563 228.295C548.565 227.8 549.691 227.553 550.94 227.553C552.264 227.553 553.377 227.794 554.28 228.276C555.196 228.759 555.95 229.445 556.544 230.336C557.15 231.227 557.62 232.284 557.954 233.509C558.3 234.721 558.566 236.057 558.752 237.517V238.574C558.579 239.997 558.3 241.302 557.917 242.489C557.546 243.677 557.051 244.716 556.433 245.606C555.814 246.485 555.047 247.165 554.132 247.647C553.216 248.13 552.14 248.371 550.903 248.371C549.666 248.371 548.553 248.118 547.563 247.61C546.574 247.103 545.727 246.392 545.021 245.477C544.329 244.561 543.797 243.485 543.426 242.248C543.055 241.011 542.869 239.663 542.869 238.203ZM547.768 237.813V238.203C547.768 239.069 547.854 239.879 548.027 240.634C548.201 241.388 548.466 242.056 548.825 242.638C549.184 243.207 549.635 243.652 550.18 243.974C550.724 244.295 551.373 244.456 552.128 244.456C553.142 244.456 553.971 244.246 554.614 243.825C555.27 243.392 555.765 242.805 556.099 242.062C556.445 241.308 556.668 240.461 556.767 239.521V236.607C556.705 235.865 556.569 235.179 556.358 234.548C556.16 233.917 555.882 233.373 555.523 232.915C555.165 232.457 554.707 232.099 554.15 231.839C553.594 231.579 552.932 231.449 552.165 231.449C551.423 231.449 550.773 231.616 550.217 231.95C549.66 232.272 549.202 232.723 548.844 233.305C548.485 233.886 548.213 234.56 548.027 235.327C547.854 236.094 547.768 236.923 547.768 237.813ZM570.497 227.924V248H565.58V227.924H570.497ZM565.246 222.673C565.246 221.943 565.493 221.337 565.988 220.854C566.495 220.372 567.176 220.131 568.029 220.131C568.883 220.131 569.557 220.372 570.052 220.854C570.559 221.337 570.812 221.943 570.812 222.673C570.812 223.39 570.559 223.99 570.052 224.473C569.557 224.955 568.883 225.196 568.029 225.196C567.176 225.196 566.495 224.955 565.988 224.473C565.493 223.99 565.246 223.39 565.246 222.673ZM586.213 242.508C586.213 242.087 586.102 241.71 585.879 241.376C585.656 241.042 585.236 240.739 584.617 240.467C584.011 240.182 583.12 239.916 581.945 239.669C580.906 239.446 579.948 239.168 579.069 238.834C578.191 238.5 577.437 238.098 576.806 237.628C576.175 237.146 575.68 236.583 575.321 235.939C574.975 235.284 574.802 234.529 574.802 233.676C574.802 232.847 574.981 232.068 575.34 231.338C575.699 230.596 576.218 229.946 576.898 229.39C577.579 228.821 578.408 228.375 579.385 228.054C580.362 227.72 581.463 227.553 582.688 227.553C584.395 227.553 585.86 227.831 587.085 228.388C588.322 228.944 589.268 229.711 589.924 230.688C590.579 231.653 590.907 232.742 590.907 233.954H586.009C586.009 233.422 585.885 232.94 585.638 232.507C585.403 232.074 585.038 231.728 584.543 231.468C584.048 231.196 583.424 231.06 582.669 231.06C581.989 231.06 581.413 231.171 580.943 231.394C580.486 231.616 580.139 231.907 579.904 232.266C579.669 232.624 579.552 233.02 579.552 233.453C579.552 233.775 579.614 234.065 579.737 234.325C579.873 234.573 580.09 234.801 580.387 235.012C580.684 235.222 581.086 235.414 581.593 235.587C582.112 235.76 582.749 235.927 583.504 236.088C585.001 236.385 586.306 236.781 587.419 237.275C588.545 237.758 589.423 238.401 590.054 239.205C590.685 240.009 591 241.036 591 242.285C591 243.176 590.808 243.992 590.425 244.734C590.041 245.464 589.485 246.101 588.755 246.646C588.025 247.19 587.153 247.617 586.139 247.926C585.124 248.223 583.98 248.371 582.706 248.371C580.863 248.371 579.304 248.043 578.03 247.388C576.756 246.72 575.791 245.879 575.136 244.864C574.48 243.838 574.152 242.774 574.152 241.673H578.847C578.884 242.452 579.094 243.077 579.478 243.547C579.861 244.017 580.343 244.357 580.925 244.567C581.519 244.765 582.143 244.864 582.799 244.864C583.541 244.864 584.166 244.765 584.673 244.567C585.18 244.357 585.563 244.079 585.823 243.732C586.083 243.374 586.213 242.965 586.213 242.508ZM604.229 227.924V231.449H592.726V227.924H604.229ZM595.806 222.988H600.723V242.211C600.723 242.805 600.803 243.262 600.964 243.584C601.125 243.906 601.366 244.122 601.688 244.233C602.009 244.345 602.393 244.4 602.838 244.4C603.16 244.4 603.456 244.382 603.729 244.345C604.001 244.308 604.229 244.271 604.415 244.233L604.434 247.907C604.025 248.043 603.562 248.155 603.042 248.241C602.535 248.328 601.96 248.371 601.316 248.371C600.215 248.371 599.251 248.186 598.422 247.814C597.593 247.431 596.95 246.819 596.492 245.978C596.035 245.124 595.806 243.998 595.806 242.601V222.988ZM612.394 232.024V248H607.495V227.924H612.134L612.394 232.024ZM618.498 227.794L618.424 232.358C618.152 232.309 617.842 232.272 617.496 232.247C617.162 232.222 616.847 232.21 616.55 232.21C615.795 232.21 615.133 232.315 614.564 232.525C613.995 232.723 613.519 233.014 613.136 233.397C612.765 233.781 612.48 234.251 612.282 234.808C612.084 235.352 611.973 235.97 611.948 236.663L610.891 236.533C610.891 235.259 611.021 234.078 611.28 232.989C611.54 231.901 611.917 230.948 612.412 230.132C612.907 229.315 613.525 228.685 614.268 228.239C615.022 227.782 615.888 227.553 616.865 227.553C617.137 227.553 617.428 227.577 617.737 227.627C618.059 227.664 618.312 227.72 618.498 227.794ZM631.616 243.732V234.474C631.616 233.793 631.499 233.206 631.264 232.711C631.029 232.216 630.67 231.833 630.188 231.561C629.705 231.288 629.093 231.152 628.351 231.152C627.695 231.152 627.12 231.264 626.625 231.486C626.143 231.709 625.771 232.024 625.512 232.433C625.252 232.828 625.122 233.286 625.122 233.806H620.205C620.205 232.977 620.403 232.191 620.799 231.449C621.195 230.695 621.757 230.027 622.487 229.445C623.229 228.852 624.114 228.388 625.141 228.054C626.18 227.72 627.342 227.553 628.629 227.553C630.15 227.553 631.505 227.812 632.692 228.332C633.892 228.839 634.832 229.606 635.513 230.633C636.205 231.66 636.552 232.952 636.552 234.511V243.269C636.552 244.271 636.614 245.13 636.737 245.848C636.873 246.553 637.071 247.165 637.331 247.685V248H632.34C632.105 247.493 631.925 246.85 631.802 246.07C631.678 245.279 631.616 244.499 631.616 243.732ZM632.303 235.772L632.34 238.686H629.241C628.474 238.686 627.8 238.766 627.219 238.927C626.637 239.075 626.161 239.298 625.79 239.595C625.419 239.879 625.141 240.226 624.955 240.634C624.77 241.03 624.677 241.481 624.677 241.988C624.677 242.483 624.788 242.928 625.011 243.324C625.246 243.72 625.58 244.035 626.013 244.271C626.458 244.493 626.978 244.604 627.571 244.604C628.437 244.604 629.192 244.431 629.835 244.085C630.478 243.726 630.979 243.293 631.338 242.786C631.697 242.279 631.888 241.797 631.913 241.339L633.323 243.454C633.15 243.961 632.89 244.499 632.544 245.068C632.198 245.637 631.752 246.169 631.208 246.664C630.664 247.159 630.008 247.567 629.241 247.889C628.474 248.21 627.584 248.371 626.569 248.371C625.271 248.371 624.108 248.111 623.081 247.592C622.054 247.072 621.244 246.361 620.65 245.458C620.057 244.555 619.76 243.528 619.76 242.378C619.76 241.314 619.958 240.374 620.354 239.558C620.749 238.741 621.337 238.055 622.116 237.498C622.896 236.929 623.86 236.502 625.011 236.218C626.174 235.921 627.503 235.772 629 235.772H632.303ZM650.468 227.924V231.449H638.964V227.924H650.468ZM642.044 222.988H646.961V242.211C646.961 242.805 647.041 243.262 647.202 243.584C647.363 243.906 647.604 244.122 647.926 244.233C648.247 244.345 648.631 244.4 649.076 244.4C649.398 244.4 649.695 244.382 649.967 244.345C650.239 244.308 650.468 244.271 650.653 244.233L650.672 247.907C650.264 248.043 649.8 248.155 649.28 248.241C648.773 248.328 648.198 248.371 647.555 248.371C646.454 248.371 645.489 248.186 644.66 247.814C643.831 247.431 643.188 246.819 642.73 245.978C642.273 245.124 642.044 243.998 642.044 242.601V222.988ZM658.929 227.924V248H654.012V227.924H658.929ZM653.678 222.673C653.678 221.943 653.925 221.337 654.42 220.854C654.927 220.372 655.607 220.131 656.461 220.131C657.314 220.131 657.989 220.372 658.483 220.854C658.991 221.337 659.244 221.943 659.244 222.673C659.244 223.39 658.991 223.99 658.483 224.473C657.989 224.955 657.314 225.196 656.461 225.196C655.607 225.196 654.927 224.955 654.42 224.473C653.925 223.99 653.678 223.39 653.678 222.673ZM662.732 238.166V237.776C662.732 236.304 662.943 234.95 663.363 233.713C663.784 232.464 664.396 231.381 665.2 230.466C666.004 229.55 666.988 228.839 668.15 228.332C669.313 227.812 670.637 227.553 672.121 227.553C673.63 227.553 674.966 227.812 676.129 228.332C677.304 228.839 678.294 229.55 679.098 230.466C679.902 231.381 680.514 232.464 680.935 233.713C681.355 234.95 681.565 236.304 681.565 237.776V238.166C681.565 239.626 681.355 240.98 680.935 242.229C680.514 243.466 679.902 244.549 679.098 245.477C678.294 246.392 677.31 247.103 676.147 247.61C674.985 248.118 673.655 248.371 672.158 248.371C670.674 248.371 669.344 248.118 668.169 247.61C666.994 247.103 666.004 246.392 665.2 245.477C664.396 244.549 663.784 243.466 663.363 242.229C662.943 240.98 662.732 239.626 662.732 238.166ZM667.631 237.776V238.166C667.631 239.044 667.717 239.867 667.891 240.634C668.064 241.401 668.33 242.075 668.688 242.656C669.047 243.238 669.511 243.695 670.08 244.029C670.661 244.351 671.354 244.512 672.158 244.512C672.95 244.512 673.63 244.351 674.199 244.029C674.768 243.695 675.232 243.238 675.591 242.656C675.962 242.075 676.234 241.401 676.407 240.634C676.58 239.867 676.667 239.044 676.667 238.166V237.776C676.667 236.91 676.58 236.1 676.407 235.346C676.234 234.579 675.962 233.905 675.591 233.323C675.232 232.729 674.762 232.266 674.181 231.932C673.612 231.585 672.925 231.412 672.121 231.412C671.329 231.412 670.649 231.585 670.08 231.932C669.511 232.266 669.047 232.729 668.688 233.323C668.33 233.905 668.064 234.579 667.891 235.346C667.717 236.1 667.631 236.91 667.631 237.776ZM689.934 232.21V248H685.035V227.924H689.637L689.934 232.21ZM689.154 237.238H687.707C687.719 235.779 687.917 234.455 688.301 233.268C688.684 232.08 689.222 231.06 689.915 230.206C690.62 229.353 691.455 228.697 692.42 228.239C693.385 227.782 694.461 227.553 695.648 227.553C696.613 227.553 697.485 227.689 698.265 227.961C699.044 228.233 699.712 228.666 700.269 229.26C700.838 229.854 701.271 230.633 701.567 231.598C701.877 232.55 702.031 233.725 702.031 235.123V248H697.096V235.086C697.096 234.171 696.96 233.447 696.688 232.915C696.428 232.383 696.044 232.006 695.537 231.783C695.042 231.561 694.43 231.449 693.7 231.449C692.946 231.449 692.284 231.604 691.715 231.913C691.158 232.21 690.688 232.624 690.305 233.156C689.934 233.688 689.649 234.3 689.451 234.993C689.253 235.686 689.154 236.434 689.154 237.238Z" fill="#1C4670"/>
<path d="M709.82 53.1618H671.961C668.236 37.9916 659.532 24.5088 647.239 14.8697C634.947 5.23062 619.777 -0.0078125 604.156 -0.0078125C588.536 -0.0078125 573.366 5.23062 561.074 14.8697C548.781 24.5088 540.076 37.9916 536.351 53.1618H498.469C497.774 53.1618 497.087 53.2997 496.446 53.5677C495.805 53.8357 495.224 54.2283 494.736 54.7228C494.249 55.2173 493.864 55.8038 493.605 56.4482C493.346 57.0926 493.217 57.7821 493.227 58.4765V92.8159C493.227 94.2061 493.779 95.5394 494.762 96.5225C495.745 97.5055 497.079 98.0578 498.469 98.0578H709.82C710.51 98.061 711.194 97.9277 711.833 97.6657C712.472 97.4037 713.053 97.0181 713.542 96.5311C714.031 96.044 714.42 95.465 714.685 94.8275C714.949 94.1899 715.086 93.5063 715.086 92.8159V58.4765C715.092 57.7809 714.961 57.0909 714.699 56.4463C714.437 55.8018 714.05 55.2155 713.561 54.7214C713.071 54.2272 712.488 53.835 711.846 53.5673C711.204 53.2996 710.515 53.1618 709.82 53.1618ZM591.149 40.6395C591.14 38.1827 591.85 35.7771 593.192 33.7188C594.533 31.6605 596.447 30.0394 598.698 29.0552C600.949 28.0709 603.439 27.7665 605.86 28.1794C608.282 28.5922 610.53 29.7043 612.328 31.3788C614.126 33.0532 615.395 35.2169 615.978 37.6033C616.562 39.9898 616.435 42.4948 615.613 44.81C614.791 47.1251 613.31 49.1493 611.352 50.6332C609.394 52.1172 607.044 52.9961 604.593 53.1618H602.895C599.712 52.9583 596.726 51.5504 594.544 49.2243C592.363 46.8983 591.148 43.8287 591.149 40.6395Z" fill="#FFA229"/>
<path d="M698.22 79.9219H589.402C587.258 79.9219 585.52 81.6603 585.52 83.8048V86.5471C585.52 88.6915 587.258 90.4299 589.402 90.4299H698.22C700.365 90.4299 702.103 88.6915 702.103 86.5471V83.8048C702.103 81.6603 700.365 79.9219 698.22 79.9219Z" fill="#FAD282"/>
<path d="M606.682 0.242388C605.833 0.242388 605.032 0.242388 604.255 0.242388C588.644 0.205012 573.47 5.39715 561.154 14.9904C548.838 24.5837 540.09 38.0254 536.305 53.1711H541.304C544.974 38.4452 553.34 25.3148 565.135 15.7654C576.931 6.21608 591.515 0.767078 606.682 0.242388Z" fill="#E0AB67"/>
<path d="M616.392 40.65C616.386 43.5449 615.376 46.348 613.535 48.5824C611.695 50.8167 609.137 52.3444 606.297 52.9054C606.848 53.0317 607.408 53.1209 607.971 53.1724H609.646C612.913 52.97 615.971 51.5015 618.172 49.0792C620.373 46.6569 621.543 43.4717 621.432 40.2007C621.322 36.9297 619.94 33.8308 617.58 31.5627C615.22 29.2946 612.069 28.0362 608.796 28.0549C607.981 28.0632 607.168 28.1526 606.37 28.3218C609.202 28.9128 611.745 30.461 613.57 32.7062C615.395 34.9514 616.392 37.7565 616.392 40.65Z" fill="#E0AB67"/>
<path d="M498.23 92.8078V58.4685C498.236 57.076 498.794 55.7428 499.781 54.7604C500.768 53.778 502.103 53.2265 503.496 53.2266H498.472C497.082 53.2266 495.749 53.7788 494.766 54.7619C493.783 55.7449 493.23 57.0782 493.23 58.4685V92.8078C493.23 94.198 493.783 95.5313 494.766 96.5144C495.749 97.4974 497.082 98.0497 498.472 98.0497H503.496C502.805 98.0529 502.121 97.9197 501.482 97.6577C500.844 97.3957 500.263 97.0101 499.774 96.523C499.284 96.0359 498.896 95.457 498.631 94.8194C498.366 94.1818 498.23 93.4982 498.23 92.8078Z" fill="#E0AB67"/>
<path d="M601.388 28.277C599.697 27.9376 597.954 27.9499 596.268 28.3131C594.582 28.6762 592.988 29.3825 591.587 30.388C590.185 31.3935 589.006 32.6767 588.121 34.1577C587.237 35.6386 586.667 37.2857 586.447 38.9965C586.226 40.7072 586.361 42.445 586.841 44.1017C587.321 45.7584 588.137 47.2986 589.238 48.6263C590.339 49.9541 591.701 51.0411 593.241 51.8196C594.78 52.5981 596.463 53.0516 598.185 53.1518H599.883C600.39 53.1065 600.893 53.0254 601.388 52.9091C598.508 52.3797 595.904 50.8577 594.03 48.6075C592.156 46.3574 591.129 43.5215 591.129 40.593C591.129 37.6645 592.156 34.8287 594.03 32.5786C595.904 30.3284 598.508 28.8063 601.388 28.277Z" fill="#FAD282"/>
<path d="M667.356 53.1549H672.088C668.346 37.991 659.633 24.5175 647.339 14.8845C635.044 5.25137 619.878 0.0138993 604.259 0.0078125C603.458 0.0078125 602.681 0.0078125 601.832 0.0078125C617.055 0.510264 631.696 5.97517 643.525 15.5699C655.355 25.1647 663.723 38.3633 667.356 53.1549Z" fill="#FAD282"/>
<path d="M709.821 53.1563H705.113C705.808 53.1562 706.495 53.2941 707.136 53.5621C707.777 53.8301 708.358 54.2227 708.846 54.7172C709.334 55.2117 709.718 55.7982 709.977 56.4426C710.236 57.087 710.365 57.7765 710.355 58.471V92.8103C710.358 93.4996 710.225 94.1826 709.963 94.8201C709.7 95.4575 709.314 96.0366 708.827 96.524C708.34 97.0114 707.76 97.3974 707.123 97.6597C706.486 97.922 705.803 98.0554 705.113 98.0522H709.821C710.512 98.0554 711.196 97.9222 711.835 97.6602C712.474 97.3982 713.054 97.0126 713.544 96.5255C714.033 96.0384 714.421 95.4595 714.686 94.8219C714.951 94.1843 715.088 93.5007 715.087 92.8103V58.471C715.094 57.7753 714.962 57.0853 714.701 56.4408C714.439 55.7962 714.052 55.21 713.562 54.7158C713.073 54.2216 712.49 53.8294 711.848 53.5617C711.206 53.294 710.517 53.1562 709.821 53.1563Z" fill="#FAD282"/>
<path d="M885.133 90.6406V987.419H858.777L885.133 90.6406Z" fill="#D9D9D9"/>
<g style="mix-blend-mode:multiply">
<path d="M855.768 1061.56C855.768 1072.7 811.236 1081.72 756.269 1081.72C701.301 1081.72 656.77 1072.7 656.77 1061.56C656.77 1050.42 701.301 1041.41 756.269 1041.41C811.236 1041.41 855.768 1050.44 855.768 1061.56Z" fill="#E2E2E2"/>
</g>
<path d="M821.747 528.641C834.051 540.314 844.146 550.288 848.684 555.141C849.533 556.034 850.159 557.115 850.509 558.297C850.859 559.478 850.924 560.725 850.698 561.936C847.301 580.38 815.413 628.771 804.322 646.05L786.121 634.838C786.121 634.838 814.418 573.779 812.962 567.057C812.962 567.057 806.433 562.81 796.653 555.36" fill="#FAC0AC"/>
<path d="M793.69 558.398C781.556 549.176 767.626 531.946 751.973 514.886C748.23 510.781 745.411 505.92 743.708 500.633C742.004 495.345 741.454 489.753 742.096 484.235C743.771 473.63 758.938 476.955 758.938 476.955C776.12 490.618 803.81 511.561 821.744 528.524" fill="#FFA229"/>
<path d="M693.514 643.435L693.441 866.629L715.38 1055L741.177 1053.27L739.672 865.003L797.527 631.398L693.514 643.435Z" fill="#1C4670"/>
<path d="M745.395 648.484L777.647 879.104L832.396 1055.24L846.617 1039.3L819.509 874.08L808.807 688.697L805.992 652.828L745.395 648.484Z" fill="#1C4670"/>
<path d="M714.915 1047.06C712.342 1047.06 689.894 1059 677.348 1065.77C676.771 1066.08 676.307 1066.56 676.024 1067.15C675.74 1067.74 675.651 1068.41 675.77 1069.05C675.889 1069.69 676.209 1070.28 676.685 1070.73C677.16 1071.18 677.767 1071.47 678.415 1071.55L709.551 1075.58L720.059 1073.51C721.285 1073.27 722.549 1073.29 723.769 1073.56C724.989 1073.83 726.139 1074.35 727.146 1075.09L730.665 1077.69C731.459 1078.27 732.424 1078.57 733.407 1078.54L737.799 1078.37C738.372 1078.35 738.935 1078.22 739.457 1077.98C739.978 1077.74 740.448 1077.4 740.838 1076.98C741.228 1076.57 741.532 1076.07 741.731 1075.54C741.93 1075 742.021 1074.43 741.998 1073.85L740.784 1043.88L714.915 1047.06Z" fill="#28478F"/>
<path d="M846.596 1038.7C843.417 1038.7 809.199 1046.76 795.367 1050.06C794.978 1050.16 794.629 1050.37 794.371 1050.68C794.112 1050.98 793.957 1051.36 793.927 1051.76C793.897 1052.16 793.995 1052.56 794.206 1052.9C794.416 1053.24 794.729 1053.5 795.1 1053.65L816.941 1062.56L824.974 1062.85C826.431 1062.89 827.846 1063.35 829.05 1064.17C830.255 1064.99 831.198 1066.14 831.769 1067.49C832.034 1068.08 832.509 1068.55 833.103 1068.82L835.53 1069.91C836.37 1070.3 837.305 1070.45 838.224 1070.32L847.713 1069.16C849.012 1069 850.196 1068.33 851.012 1067.31C851.828 1066.28 852.212 1064.98 852.081 1063.67L846.596 1038.7Z" fill="#28478F"/>
<path d="M468.496 443.521L515.503 409.594L529.967 424.422L482.232 458.882L468.496 443.521Z" fill="#28478F"/>
<path d="M466.146 446.258L458.672 465.138L479.009 460.382L466.146 446.258Z" fill="#FAC0AC"/>
<path d="M486.849 449.037C487.41 451.211 487.301 453.503 486.534 455.613C485.767 457.723 484.38 459.551 482.554 460.857C480.728 462.163 478.55 462.885 476.306 462.929C474.061 462.973 471.856 462.337 469.981 461.104C468.105 459.87 466.647 458.098 465.798 456.02C464.949 453.942 464.749 451.655 465.225 449.462C465.701 447.268 466.829 445.269 468.463 443.73C470.096 442.19 472.157 441.18 474.375 440.835C477.116 440.282 479.964 440.833 482.3 442.369C484.636 443.905 486.271 446.302 486.849 449.037Z" fill="#28478F"/>
<path d="M533.636 415.229C534.193 417.403 534.078 419.694 533.308 421.802C532.537 423.909 531.147 425.734 529.319 427.036C527.492 428.339 525.313 429.057 523.069 429.098C520.826 429.139 518.622 428.499 516.749 427.264C514.876 426.028 513.421 424.255 512.574 422.176C511.728 420.098 511.531 417.812 512.009 415.619C512.486 413.427 513.616 411.43 515.25 409.892C516.884 408.354 518.945 407.346 521.163 407.002C523.907 406.443 526.762 406.995 529.1 408.537C531.438 410.079 533.069 412.486 533.636 415.229Z" fill="#FAC0AC"/>
<path d="M527.226 415.683C527.427 416.48 527.382 417.32 527.097 418.091C526.812 418.862 526.3 419.529 525.629 420.004C524.958 420.479 524.16 420.741 523.338 420.754C522.516 420.767 521.709 420.531 521.023 420.078C520.338 419.624 519.805 418.974 519.495 418.213C519.186 417.451 519.114 416.614 519.289 415.81C519.463 415.007 519.877 414.275 520.475 413.711C521.073 413.147 521.828 412.777 522.64 412.65C523.14 412.547 523.656 412.544 524.157 412.641C524.659 412.738 525.136 412.933 525.563 413.215C525.989 413.496 526.355 413.859 526.64 414.283C526.926 414.707 527.125 415.182 527.226 415.683Z" fill="#28478F"/>
<path d="M460.566 460.328L458.648 465.182L464.157 463.896C462.674 463.034 461.437 461.806 460.566 460.328Z" fill="#28478F"/>
<path d="M509.074 436.044C507.902 436.282 506.689 436.215 505.55 435.85C504.411 435.484 503.385 434.833 502.57 433.957C496.6 427.526 492.693 419.906 489.271 421.556C485.34 423.425 487.743 425.512 484.418 427.939C483.35 428.691 479.928 427.939 479.224 430.608C478.521 433.278 478.448 435.899 475.973 437.889C473.497 439.879 474.953 446.116 475.803 448.251C477.052 450.417 478.632 452.374 480.486 454.051C485.519 459.132 491.485 463.195 498.057 466.016C504.56 468.612 511.064 461.526 515.044 454.755C518.102 449.635 515.432 435.025 515.432 435.025C513.167 435.349 511.048 435.689 509.074 436.044Z" fill="#FAC0AC"/>
<path d="M490.121 421.372L500.411 420.547L494.319 424.915L490.121 421.372Z" fill="#FAC0AC"/>
<path d="M654.636 426.312L649.54 438.665C649.364 439.222 649.416 439.825 649.685 440.344C649.953 440.862 650.416 441.253 650.971 441.432L656.48 443.252L654.636 426.312Z" fill="#FAC0AC"/>
<path d="M593.625 533.885L673.71 552.547C682.616 553.882 679.17 487.703 679.17 487.703L636.434 493.115L604.449 491.902" fill="#FFA229"/>
<path d="M680.091 487.602L680.527 487.335C684.58 484.908 681.619 451.952 676.645 443.943L705.111 392.641C706.715 414.182 710.216 435.539 715.571 456.466C716.9 460.562 719.045 464.348 721.877 467.592C724.709 470.837 728.169 473.475 732.049 475.346" fill="#FAC0AC"/>
<path d="M692.687 458.6L696.765 437.633C696.765 437.633 690.042 451.66 689.969 452.461C689.897 453.261 682.349 459.741 681.16 460.809C682.107 467.951 682.488 475.157 682.301 482.359L692.687 458.6Z" fill="#E69E96"/>
<path d="M659.125 462.921C659.257 463.915 659.714 464.838 660.425 465.544C661.136 466.251 662.062 466.703 663.057 466.828C685.941 469.109 717.684 430.159 714.408 406.886C712.782 395.189 699.847 391.427 687.713 390.214C668.93 388.345 654.805 387.787 653.301 421.762C653.277 422.029 659.125 462.921 659.125 462.921Z" fill="#FAC0AC"/>
<path d="M655.871 403.937L653.153 399.544C651.775 397.336 651.065 394.776 651.107 392.174C651.149 389.571 651.942 387.036 653.39 384.873C654.838 382.71 656.88 381.011 659.27 379.98C661.66 378.949 664.297 378.631 666.864 379.062C696.811 384.158 722.317 392.312 722.098 406.582C721.443 445.411 716.298 455.749 716.298 455.749C716.298 455.749 699.772 464.825 695.743 432.209C682.687 442.596 676.717 409.834 676.717 409.834C676.159 404.713 663.248 405.66 655.871 403.937Z" fill="black"/>
<path d="M698.756 434.995C697.033 439.582 692.762 442.276 689.267 441.135C685.773 439.994 684.414 435.262 686.088 430.676C687.763 426.089 692.083 423.395 695.577 424.56C699.072 425.725 700.504 430.433 698.756 434.995Z" fill="#FAC0AC"/>
<path d="M604.402 491.91L578.727 487.251L507.937 448.422L488.668 459.1L573.242 523.119L595.302 529.089L604.402 491.91Z" fill="#FAC0AC"/>
<path d="M657.205 532.701C656.477 513.553 649.148 496.153 653.006 494.454C653.006 494.454 678.003 484.116 682.322 482.053C682.322 482.053 717.05 479.457 723.311 469.312C723.311 469.312 757.917 474.749 759.179 477.515C778.303 518.916 776.652 530.517 776.652 530.517L789.781 588.76L808.371 653.701C795.557 662.001 726.393 680.396 694.02 678.697C694.02 678.697 688.511 616.571 686.593 606.427C686.593 606.476 657.836 549.446 657.205 532.701Z" fill="#FFA229"/>
<g style="mix-blend-mode:multiply" opacity="0.16">
<path d="M193.516 1057.49C193.516 1065.23 153.158 1071.79 103.263 1072.05C53.3676 1072.32 12.8884 1066.35 12.8399 1058.59C12.7914 1050.82 53.1977 1044.29 103.093 1044.02C152.988 1043.76 193.467 1049.73 193.516 1057.49Z" fill="#6C467A"/>
</g>
<path d="M162.235 567.711C162.235 567.711 165.002 608.967 164.177 620.834C164.177 620.834 173.326 747.028 156.12 709.388L153.11 697.739C153.11 697.739 140.127 671.36 148.257 627.726L141.098 575.38L162.235 567.711Z" fill="#FAC0AC"/>
<path d="M133.842 595.729C133.842 595.729 156.581 772.886 160.925 843.094C161.459 851.636 156.533 862.096 152.868 869.789L150.442 881.51C149.471 893.013 142.821 929.464 140.734 940.821L125.591 1013.33L140.516 1039.91L128.382 1045.15L104.114 1018.46C104.114 1018.46 110.278 1007.61 107.414 962.905C104.648 920.096 97.974 881.68 106.055 864.328C119.184 836.226 108.482 804.799 102.536 787.399C87.9756 745.755 26.9899 670.912 79.1178 594.734L133.842 595.729Z" fill="#FAC0AC"/>
<path d="M119.206 493.752C106.272 488.899 109.499 482.322 109.815 477.056C110.616 461.039 105.641 444.731 110.203 433.664L85.5223 422.695C85.5223 422.695 88.8956 434.441 82.7072 474.459C81.2754 483.705 65.04 493.874 63.2927 494.796C53.5855 500.28 69.7481 555.636 119.425 528.286L120.032 527.922C130.127 522.291 128.719 497.368 119.206 493.752Z" fill="#FAC0AC"/>
<path d="M110.232 473.319C109.99 469.922 110.96 468.83 110.621 465.238C98.1711 463.345 88.0999 452.716 83.9258 450.07C83.9258 451.357 84.5568 460.967 84.4354 462.204C88.7309 469.072 96.2054 478.804 109.577 479.726C109.577 479.799 110.281 474.144 110.232 473.319Z" fill="#E69E96"/>
<path d="M158.933 1049.44C147.649 1046.07 141.946 1041.87 140.174 1039.08C140.732 1041.5 129.108 1040.27 119.595 1035.29C119.595 1035.29 106.612 1016.7 104.185 1018.57C98.3846 1041.96 102.316 1027.28 107.801 1059.83H113.188L114.838 1052.96C114.838 1052.96 120.808 1052.96 130.516 1059.97C140.223 1066.98 171.48 1061.21 171.48 1061.21C177.28 1057.76 171.116 1053.08 158.933 1049.44Z" fill="#526080"/>
<path d="M135.275 619.719C135.275 619.719 120.399 795.274 118.894 852.522L110.157 882.008C108.677 893.463 98.266 944.11 95.5965 955.346L76.4733 1023.71L87.8307 1050.84L75.4783 1055.5L57.617 1022.64C57.617 1022.64 60.4321 1022.5 61.0145 984.007C61.6455 941.101 57.9082 906.907 66.7903 889.968C81.1813 862.497 66.7903 814.567 61.597 796.924C49.0746 754.649 40.7992 668.546 65.5041 626.344L135.275 619.719Z" fill="#FAC0AC"/>
<path d="M103.896 1064.6C93.5817 1058.88 88.9222 1053.54 87.8059 1050.43C87.8059 1052.86 76.7397 1049.19 68.537 1042.28C68.537 1042.28 59.8733 1021.33 57.1068 1022.64C46.3803 1044.22 54.9469 1036.21 53.2724 1069.17L60.1403 1068.75V1058.46C60.1403 1058.46 65.9646 1059.7 73.9003 1068.71C81.8359 1077.71 113.651 1078.75 113.651 1078.75C119.985 1076.69 114.986 1070.79 103.896 1064.6Z" fill="#526080"/>
<path d="M159.881 554.518C157.77 551.048 151.921 526.076 149.033 513.796C148.395 510.108 146.588 506.722 143.879 504.14C141.169 501.557 137.701 499.914 133.987 499.454C128.939 498.823 123.26 495.158 119.062 492.95C116.805 499.648 96.5412 503.264 84.2615 496.08L72.2731 488.023C56.1106 498.968 57.7123 496.687 53.9022 499.891C35.2886 515.665 34.4877 517.873 49.8009 557.285L60.6487 578.519C63.8521 602.787 52.8101 682.386 52.8101 682.386C104.04 706.048 145.344 686.342 154.154 640.403L151.217 591.527C160.609 585.314 169.855 570.68 159.881 554.518Z" fill="#FFA229"/>
<path d="M124.159 409.279C124.159 409.279 128.042 414.594 127.022 426.412C127.543 432.585 128.394 438.726 129.571 444.808C130.323 463.688 118.043 475.531 113.578 475.434C108.974 475.214 104.458 474.085 100.293 472.11C96.1276 470.136 92.3947 467.356 89.3098 463.931C80.1122 454.054 76.9331 415.395 87.0771 407.459C102.9 394.985 119.329 402.703 124.159 409.279Z" fill="#FAC0AC"/>
<path d="M55.0406 642.129C55.0406 642.129 33.1993 711.779 58.0984 853.528C58.0984 853.528 85.9581 874.545 168.567 851.539C168.567 851.539 185.19 685.375 154.006 640.406C154.079 640.406 128.597 651.157 55.0406 642.129Z" fill="#1C4670"/>
<path d="M156.471 561.85L77.6092 531.768C76.645 531.4 75.5651 531.883 75.1973 532.847L34.6488 639.145C34.2809 640.109 34.7644 641.189 35.7287 641.557L114.59 671.64C115.554 672.007 116.634 671.524 117.002 670.56L157.551 564.262C157.918 563.298 157.435 562.218 156.471 561.85Z" fill="#EDEDED"/>
<path d="M86.4688 621.858C86.4688 621.858 93.4094 614.699 97.8262 614.577C102.243 614.456 110.421 613.534 111.295 615.232C112.46 617.441 106.441 618.727 99.889 619.407L86.4688 621.858Z" fill="#FAC0AC"/>
<path d="M94.0691 617.82C94.0691 617.82 110.814 621.194 113.338 622.31C113.965 622.549 114.51 622.965 114.905 623.508C115.301 624.05 115.531 624.696 115.566 625.366C115.602 626.037 115.443 626.703 115.108 627.285C114.773 627.867 114.276 628.339 113.678 628.644C112.319 629.348 115.376 631.993 111.761 634.735C109.504 636.458 111.469 637.162 110.013 639.128C108.848 640.681 105.694 640.147 105.16 642.04C104.383 645.534 101.01 644.273 98.4616 644.467C95.9135 644.661 86.6431 642.307 80.4547 634.954C72.4705 625.416 94.0691 617.82 94.0691 617.82Z" fill="#FAC0AC"/>
<path d="M10.2694 573.781C2.2609 593.948 -2.37431 600.088 1.24163 609.48C5.17306 619.624 97.2461 643.455 109.113 639.572L112.681 628.384C109.118 626.088 105.074 624.643 100.862 624.162C81.8116 621.177 56.0147 595.817 36.94 591.157C36.94 591.157 39.7793 589.094 47.9819 577.276" fill="#FAC0AC"/>
<path d="M41.6226 587.934C51.3298 571.189 68.3175 547.042 71.6422 532.263C81.8591 485.401 47.0101 496.88 39.3899 516.367C30.0467 540.247 14.0055 560.972 8.59375 574.61L41.6226 587.934Z" fill="#FFA229"/>
<path d="M140.348 516.562L146.997 537.7L156.365 549.98" stroke="#28478F" stroke-width="0.5" stroke-miterlimit="10" stroke-linecap="round"/>
<path d="M125.156 428.305C127.66 433.996 131.051 439.255 135.203 443.885C137.241 445.996 130.349 452.087 127.461 452.209C121.103 452.451 125.156 428.305 125.156 428.305Z" fill="#FAC0AC"/>
<path d="M107.853 621.195C107.853 621.195 117.56 622.918 118.361 622.918C119.161 622.918 126.903 622.166 127.655 622.166C129.67 622.166 128.675 626.34 123.675 627.02C118.676 627.699 116.395 629.446 112.124 628.597C106.542 627.554 107.853 621.195 107.853 621.195Z" fill="#FAC0AC"/>
<path d="M104.067 627.664C104.067 627.664 118.312 628.465 119.186 628.368C120.059 628.271 129.209 626.548 130.082 626.475C132.509 626.281 131.757 630.48 125.884 631.717C120.011 632.955 114.89 634.629 109.891 634.411C109.04 634.43 108.194 634.261 107.416 633.915C106.637 633.569 105.945 633.056 105.388 632.411C104.832 631.766 104.424 631.006 104.196 630.186C103.968 629.365 103.923 628.504 104.067 627.664Z" fill="#FAC0AC"/>
<path d="M75.4529 409.422C77.3023 405.795 77.9213 401.664 77.2165 397.654C76.5117 393.644 74.5212 389.972 71.5458 387.193C62.6394 379.208 45.8459 382.339 40.9923 393.041C39.2185 397.549 39.2214 402.562 41.0006 407.067C42.7797 411.573 46.2024 415.235 50.5774 417.315C54.9524 419.395 59.9536 419.736 64.5708 418.271C69.1881 416.806 73.0773 413.644 75.4529 409.422Z" fill="#10233C"/>
<path d="M90.5264 438.666C92.5188 431.843 92.4089 424.578 90.2109 417.819C90.2109 417.819 105.354 401.924 122.949 407.772C122.949 407.772 94.1181 385.227 75.8685 403.817C57.6189 422.406 61.9386 448.421 84.7506 461.114L90.5264 438.666Z" fill="#10233C"/>
<path d="M79.6739 449.748C82.6831 454.213 87.6823 455.887 90.8372 453.461C93.992 451.034 94.0648 445.476 91.0313 441.011C87.9978 436.546 83.0229 434.896 79.868 437.298C76.7132 439.701 76.6403 445.282 79.6739 449.748Z" fill="#FAC0AC"/>
<path d="M102.926 917.395L110.206 893.928C114.498 889.768 117.718 884.631 119.591 878.954C121.463 873.278 121.932 867.233 120.957 861.336" stroke="#28478F" stroke-width="0.5" stroke-miterlimit="10" stroke-linecap="round"/>
<path d="M54.3906 566.829L62.5204 546.273" stroke="#28478F" stroke-width="0.5" stroke-miterlimit="10" stroke-linecap="round"/>
</g>
<defs>
<clipPath id="clip0_701_9">
<rect width="1080" height="1080" fill="white" transform="translate(1080 1080) rotate(180)"/>
</clipPath>
</defs>
</svg>
