<svg width="1080" height="983" viewBox="0 0 1080 983" fill="none" xmlns="http://www.w3.org/2000/svg">
<rect width="1080" height="983" fill="white"/>
<path d="M389.184 92.9258C389.184 92.1055 389.057 91.373 388.803 90.7285C388.568 90.0645 388.129 89.4688 387.484 88.9414C386.859 88.3945 385.971 87.8672 384.818 87.3594C383.686 86.832 382.221 86.2852 380.424 85.7188C378.432 85.0938 376.576 84.3906 374.857 83.6094C373.139 82.8281 371.625 81.9199 370.316 80.8848C369.027 79.8496 368.021 78.6582 367.299 77.3105C366.576 75.9434 366.215 74.3613 366.215 72.5645C366.215 70.8066 366.586 69.2051 367.328 67.7598C368.09 66.3145 369.164 65.0742 370.551 64.0391C371.938 62.9844 373.568 62.1738 375.443 61.6074C377.338 61.041 379.428 60.7578 381.713 60.7578C384.877 60.7578 387.611 61.334 389.916 62.4863C392.24 63.6387 394.037 65.2012 395.307 67.1738C396.576 69.1465 397.211 71.3633 397.211 73.8242H389.184C389.184 72.4961 388.9 71.3242 388.334 70.3086C387.787 69.293 386.947 68.4922 385.814 67.9062C384.701 67.3203 383.295 67.0273 381.596 67.0273C379.955 67.0273 378.588 67.2715 377.494 67.7598C376.42 68.248 375.609 68.9121 375.062 69.752C374.535 70.5918 374.271 71.5293 374.271 72.5645C374.271 73.3457 374.457 74.0488 374.828 74.6738C375.199 75.2793 375.756 75.8555 376.498 76.4023C377.24 76.9297 378.158 77.4277 379.252 77.8965C380.365 78.3457 381.654 78.7949 383.119 79.2441C385.463 79.9473 387.514 80.7285 389.271 81.5879C391.049 82.4473 392.523 83.4238 393.695 84.5176C394.887 85.6113 395.775 86.8418 396.361 88.209C396.967 89.5762 397.27 91.1289 397.27 92.8672C397.27 94.7031 396.908 96.3438 396.186 97.7891C395.463 99.2344 394.428 100.465 393.08 101.48C391.732 102.496 390.111 103.268 388.217 103.795C386.342 104.322 384.242 104.586 381.918 104.586C379.848 104.586 377.797 104.312 375.766 103.766C373.754 103.199 371.928 102.359 370.287 101.246C368.646 100.113 367.338 98.6875 366.361 96.9688C365.385 95.2305 364.896 93.1992 364.896 90.875H372.982C372.982 92.2227 373.197 93.375 373.627 94.332C374.076 95.2695 374.701 96.041 375.502 96.6465C376.322 97.2324 377.279 97.6621 378.373 97.9355C379.467 98.209 380.648 98.3457 381.918 98.3457C383.559 98.3457 384.906 98.1211 385.961 97.6719C387.035 97.2031 387.836 96.5586 388.363 95.7383C388.91 94.918 389.184 93.9805 389.184 92.9258ZM431.752 97.6719V104H409.076V97.6719H431.752ZM411.537 61.3438V104H403.48V61.3438H411.537ZM428.793 78.9512V85.1328H409.076V78.9512H428.793ZM431.664 61.3438V67.7012H409.076V61.3438H431.664ZM453.754 88.4434H442.768V82.1152H453.754C455.551 82.1152 457.006 81.8223 458.119 81.2363C459.252 80.6309 460.082 79.8105 460.609 78.7754C461.137 77.7207 461.4 76.5195 461.4 75.1719C461.4 73.8633 461.137 72.6426 460.609 71.5098C460.082 70.377 459.252 69.459 458.119 68.7559C457.006 68.0527 455.551 67.7012 453.754 67.7012H445.404V104H437.348V61.3438H453.754C457.074 61.3438 459.906 61.9395 462.25 63.1309C464.613 64.3027 466.41 65.9336 467.641 68.0234C468.891 70.0938 469.516 72.457 469.516 75.1133C469.516 77.8672 468.891 80.2402 467.641 82.2324C466.41 84.2246 464.613 85.7578 462.25 86.832C459.906 87.9062 457.074 88.4434 453.754 88.4434ZM500.805 89.9668H508.861C508.646 92.8184 507.855 95.3477 506.488 97.5547C505.121 99.7422 503.217 101.461 500.775 102.711C498.334 103.961 495.375 104.586 491.898 104.586C489.223 104.586 486.811 104.117 484.662 103.18C482.533 102.223 480.707 100.865 479.184 99.1074C477.68 97.3301 476.527 95.2012 475.727 92.7207C474.926 90.2207 474.525 87.418 474.525 84.3125V81.0605C474.525 77.9551 474.936 75.1523 475.756 72.6523C476.576 70.1523 477.748 68.0234 479.271 66.2656C480.814 64.4883 482.66 63.1211 484.809 62.1641C486.977 61.207 489.398 60.7285 492.074 60.7285C495.551 60.7285 498.49 61.373 500.893 62.6621C503.295 63.9316 505.16 65.6797 506.488 67.9062C507.816 70.1328 508.617 72.6914 508.891 75.582H500.834C500.678 73.7852 500.287 72.2617 499.662 71.0117C499.057 69.7617 498.139 68.8145 496.908 68.1699C495.697 67.5059 494.086 67.1738 492.074 67.1738C490.512 67.1738 489.135 67.4668 487.943 68.0527C486.771 68.6387 485.795 69.5176 485.014 70.6895C484.232 71.8418 483.646 73.2871 483.256 75.0254C482.865 76.7441 482.67 78.7363 482.67 81.002V84.3125C482.67 86.4805 482.846 88.4238 483.197 90.1426C483.549 91.8613 484.096 93.3164 484.838 94.5078C485.58 95.6992 486.537 96.6074 487.709 97.2324C488.881 97.8574 490.277 98.1699 491.898 98.1699C493.871 98.1699 495.473 97.8574 496.703 97.2324C497.953 96.6074 498.9 95.6895 499.545 94.4785C500.209 93.2676 500.629 91.7637 500.805 89.9668Z" fill="#1C4670"/>
<path d="M557.055 97.6719V104H535.609V97.6719H557.055ZM538.041 61.3438V104H529.984V61.3438H538.041ZM570.062 72.3008V104H562.299V72.3008H570.062ZM561.771 64.0098C561.771 62.8574 562.162 61.9004 562.943 61.1387C563.744 60.377 564.818 59.9961 566.166 59.9961C567.514 59.9961 568.578 60.377 569.359 61.1387C570.16 61.9004 570.561 62.8574 570.561 64.0098C570.561 65.1426 570.16 66.0898 569.359 66.8516C568.578 67.6133 567.514 67.9941 566.166 67.9941C564.818 67.9941 563.744 67.6133 562.943 66.8516C562.162 66.0898 561.771 65.1426 561.771 64.0098ZM590.453 98.4922C591.547 98.4922 592.523 98.2773 593.383 97.8477C594.242 97.418 594.926 96.8125 595.434 96.0312C595.961 95.25 596.244 94.3418 596.283 93.3066H603.578C603.539 95.4551 602.934 97.3789 601.762 99.0781C600.59 100.777 599.027 102.125 597.074 103.121C595.141 104.098 592.973 104.586 590.57 104.586C588.129 104.586 586 104.176 584.184 103.355C582.367 102.535 580.854 101.393 579.643 99.9277C578.451 98.4629 577.553 96.7637 576.947 94.8301C576.361 92.8965 576.068 90.8262 576.068 88.6191V87.6816C576.068 85.4746 576.361 83.4043 576.947 81.4707C577.553 79.5371 578.451 77.8379 579.643 76.373C580.854 74.9082 582.367 73.7656 584.184 72.9453C586 72.125 588.119 71.7148 590.541 71.7148C593.1 71.7148 595.346 72.2129 597.279 73.209C599.232 74.2051 600.756 75.6113 601.85 77.4277C602.963 79.2441 603.539 81.3828 603.578 83.8438H596.283C596.244 82.7109 595.99 81.6953 595.521 80.7969C595.053 79.8984 594.389 79.1758 593.529 78.6289C592.67 78.082 591.625 77.8086 590.395 77.8086C589.086 77.8086 587.992 78.082 587.113 78.6289C586.254 79.1758 585.58 79.9277 585.092 80.8848C584.623 81.8223 584.291 82.877 584.096 84.0488C583.92 85.2012 583.832 86.4121 583.832 87.6816V88.6191C583.832 89.9082 583.92 91.1387 584.096 92.3105C584.291 93.4824 584.623 94.5371 585.092 95.4746C585.58 96.3926 586.254 97.125 587.113 97.6719C587.992 98.2188 589.105 98.4922 590.453 98.4922ZM622.973 104.586C620.57 104.586 618.412 104.195 616.498 103.414C614.584 102.633 612.953 101.549 611.605 100.162C610.277 98.7559 609.252 97.125 608.529 95.2695C607.826 93.3945 607.475 91.3828 607.475 89.2344V88.0625C607.475 85.6211 607.826 83.4043 608.529 81.4121C609.232 79.4004 610.229 77.6719 611.518 76.2266C612.807 74.7812 614.35 73.668 616.146 72.8867C617.943 72.1055 619.926 71.7148 622.094 71.7148C624.34 71.7148 626.322 72.0957 628.041 72.8574C629.76 73.5996 631.195 74.6543 632.348 76.0215C633.5 77.3887 634.369 79.0293 634.955 80.9434C635.541 82.8379 635.834 84.9375 635.834 87.2422V90.4941H610.99V85.1621H628.217V84.5762C628.178 83.3457 627.943 82.2227 627.514 81.207C627.084 80.1719 626.42 79.3516 625.521 78.7461C624.623 78.1211 623.461 77.8086 622.035 77.8086C620.883 77.8086 619.877 78.0625 619.018 78.5703C618.178 79.0586 617.475 79.7617 616.908 80.6797C616.361 81.5781 615.951 82.6523 615.678 83.9023C615.404 85.1523 615.268 86.5391 615.268 88.0625V89.2344C615.268 90.5625 615.443 91.793 615.795 92.9258C616.166 94.0586 616.703 95.0449 617.406 95.8848C618.129 96.7051 618.988 97.3496 619.984 97.8184C621 98.2676 622.152 98.4922 623.441 98.4922C625.062 98.4922 626.527 98.1797 627.836 97.5547C629.164 96.9102 630.316 95.9629 631.293 94.7129L635.189 98.7559C634.525 99.7324 633.627 100.67 632.494 101.568C631.381 102.467 630.033 103.199 628.451 103.766C626.869 104.312 625.043 104.586 622.973 104.586ZM648.607 79.0684V104H640.873V72.3008H648.139L648.607 79.0684ZM647.377 87.0078H645.092C645.111 84.7031 645.424 82.6133 646.029 80.7383C646.635 78.8633 647.484 77.252 648.578 75.9043C649.691 74.5566 651.01 73.5215 652.533 72.7988C654.057 72.0762 655.756 71.7148 657.631 71.7148C659.154 71.7148 660.531 71.9297 661.762 72.3594C662.992 72.7891 664.047 73.4727 664.926 74.4102C665.824 75.3477 666.508 76.5781 666.977 78.1016C667.465 79.6055 667.709 81.4609 667.709 83.668V104H659.916V83.6094C659.916 82.1641 659.701 81.0215 659.271 80.1816C658.861 79.3418 658.256 78.7461 657.455 78.3945C656.674 78.043 655.707 77.8672 654.555 77.8672C653.363 77.8672 652.318 78.1113 651.42 78.5996C650.541 79.0684 649.799 79.7227 649.193 80.5625C648.607 81.4023 648.158 82.3691 647.846 83.4629C647.533 84.5566 647.377 85.7383 647.377 87.0078ZM691.967 95.3281C691.967 94.6641 691.791 94.0684 691.439 93.541C691.088 93.0137 690.424 92.5352 689.447 92.1055C688.49 91.6562 687.084 91.2363 685.229 90.8457C683.588 90.4941 682.074 90.0547 680.688 89.5273C679.301 89 678.109 88.3652 677.113 87.623C676.117 86.8613 675.336 85.9727 674.77 84.957C674.223 83.9219 673.949 82.7305 673.949 81.3828C673.949 80.0742 674.232 78.8438 674.799 77.6914C675.365 76.5195 676.186 75.4941 677.26 74.6152C678.334 73.7168 679.643 73.0137 681.186 72.5059C682.729 71.9785 684.467 71.7148 686.4 71.7148C689.096 71.7148 691.41 72.1543 693.344 73.0332C695.297 73.9121 696.791 75.123 697.826 76.666C698.861 78.1895 699.379 79.9082 699.379 81.8223H691.645C691.645 80.9824 691.449 80.2207 691.059 79.5371C690.688 78.8535 690.111 78.3066 689.33 77.8965C688.549 77.4668 687.562 77.252 686.371 77.252C685.297 77.252 684.389 77.4277 683.646 77.7793C682.924 78.1309 682.377 78.5898 682.006 79.1562C681.635 79.7227 681.449 80.3477 681.449 81.0312C681.449 81.5391 681.547 81.998 681.742 82.4082C681.957 82.7988 682.299 83.1602 682.768 83.4922C683.236 83.8242 683.871 84.127 684.672 84.4004C685.492 84.6738 686.498 84.9375 687.689 85.1914C690.053 85.6602 692.113 86.2852 693.871 87.0664C695.648 87.8281 697.035 88.8438 698.031 90.1133C699.027 91.3828 699.525 93.0039 699.525 94.9766C699.525 96.3828 699.223 97.6719 698.617 98.8438C698.012 99.9961 697.133 101.002 695.98 101.861C694.828 102.721 693.451 103.395 691.85 103.883C690.248 104.352 688.441 104.586 686.43 104.586C683.52 104.586 681.059 104.068 679.047 103.033C677.035 101.979 675.512 100.65 674.477 99.0488C673.441 97.4277 672.924 95.748 672.924 94.0098H680.336C680.395 95.2402 680.727 96.2266 681.332 96.9688C681.938 97.7109 682.699 98.248 683.617 98.5801C684.555 98.8926 685.541 99.0488 686.576 99.0488C687.748 99.0488 688.734 98.8926 689.535 98.5801C690.336 98.248 690.941 97.8086 691.352 97.2617C691.762 96.6953 691.967 96.0508 691.967 95.3281ZM719.652 104.586C717.25 104.586 715.092 104.195 713.178 103.414C711.264 102.633 709.633 101.549 708.285 100.162C706.957 98.7559 705.932 97.125 705.209 95.2695C704.506 93.3945 704.154 91.3828 704.154 89.2344V88.0625C704.154 85.6211 704.506 83.4043 705.209 81.4121C705.912 79.4004 706.908 77.6719 708.197 76.2266C709.486 74.7812 711.029 73.668 712.826 72.8867C714.623 72.1055 716.605 71.7148 718.773 71.7148C721.02 71.7148 723.002 72.0957 724.721 72.8574C726.439 73.5996 727.875 74.6543 729.027 76.0215C730.18 77.3887 731.049 79.0293 731.635 80.9434C732.221 82.8379 732.514 84.9375 732.514 87.2422V90.4941H707.67V85.1621H724.896V84.5762C724.857 83.3457 724.623 82.2227 724.193 81.207C723.764 80.1719 723.1 79.3516 722.201 78.7461C721.303 78.1211 720.141 77.8086 718.715 77.8086C717.562 77.8086 716.557 78.0625 715.697 78.5703C714.857 79.0586 714.154 79.7617 713.588 80.6797C713.041 81.5781 712.631 82.6523 712.357 83.9023C712.084 85.1523 711.947 86.5391 711.947 88.0625V89.2344C711.947 90.5625 712.123 91.793 712.475 92.9258C712.846 94.0586 713.383 95.0449 714.086 95.8848C714.809 96.7051 715.668 97.3496 716.664 97.8184C717.68 98.2676 718.832 98.4922 720.121 98.4922C721.742 98.4922 723.207 98.1797 724.516 97.5547C725.844 96.9102 726.996 95.9629 727.973 94.7129L731.869 98.7559C731.205 99.7324 730.307 100.67 729.174 101.568C728.061 102.467 726.713 103.199 725.131 103.766C723.549 104.312 721.723 104.586 719.652 104.586Z" fill="#FFA229"/>
<path opacity="0.36" d="M198.204 881.384C198.204 881.384 -88.1709 714.405 59.106 511.284C206.383 308.162 329.131 141.183 545.944 240.479C762.757 339.775 693.204 330.749 848.681 303.666C1004.16 276.584 1045.05 876.871 803.661 885.897C562.273 894.923 198.204 881.384 198.204 881.384Z" fill="#1C4670"/>
<path opacity="0.36" d="M770 248.004C770 270.372 765.835 284 745.699 284C725.564 284 689 261.368 689 239.005C689 216.642 717.466 212 737.597 212C757.729 212 770 225.637 770 248.004Z" fill="#6D79FF"/>
<path d="M798.037 591.343C798.037 591.343 752.939 579.799 757.297 547.569C761.654 515.339 793.317 518.27 796.542 500.292C799.767 482.313 792.332 461.029 810.436 447.742C828.541 434.455 850.709 437.213 855.598 432.088C860.486 426.963 867.147 411.713 874.608 406.723C882.068 401.732 891.769 382.402 912.253 376.822C932.737 371.242 943.667 377.761 957.435 363C957.435 363 965.886 381.657 965.999 390.037C966.113 398.418 954.168 414.586 938.918 418.97C923.667 423.354 901.571 446.824 902.422 461.947C903.272 477.07 907.895 483.425 912.948 492.139C918 500.852 924.552 514.514 904.413 526.639C884.275 538.763 882.57 543.8 885.677 559.589C888.784 575.377 884.906 590.505 845.678 593.874C804.024 597.458 798.037 591.343 798.037 591.343Z" fill="url(#paint0_linear_37_316)"/>
<path d="M784.134 668.876C783.774 668.732 783.469 668.476 783.266 668.145C783.063 667.815 782.972 667.428 783.007 667.042C786.88 624.386 797.304 583.504 813.948 545.534C827.319 515.08 844.639 486.508 865.463 460.552C900.991 416.238 934.955 394.459 935.295 394.24C935.698 394.009 936.176 393.941 936.627 394.052C937.079 394.163 937.47 394.444 937.72 394.836C937.969 395.228 938.056 395.701 937.964 396.156C937.872 396.611 937.607 397.013 937.225 397.278C936.893 397.488 903.341 419.024 868.179 462.914C835.755 503.389 795.278 571.714 786.603 667.365C786.576 667.643 786.486 667.912 786.338 668.149C786.19 668.386 785.989 668.586 785.75 668.732C785.512 668.879 785.242 668.968 784.963 668.993C784.684 669.018 784.404 668.978 784.143 668.876H784.134Z" fill="#513983"/>
<path d="M818.126 542.87C817.813 542.746 817.541 542.534 817.343 542.26C817.144 541.987 817.027 541.662 817.004 541.324C816.981 540.986 817.054 540.648 817.215 540.35C817.375 540.052 817.616 539.805 817.91 539.639L901.339 492.232C901.543 492.116 901.767 492.042 902 492.013C902.233 491.985 902.469 492.003 902.694 492.066C902.92 492.129 903.131 492.236 903.316 492.382C903.5 492.527 903.654 492.707 903.77 492.913C903.885 493.118 903.959 493.344 903.987 493.578C904.015 493.812 903.997 494.049 903.935 494.276C903.872 494.503 903.765 494.716 903.621 494.901C903.476 495.087 903.297 495.242 903.093 495.358L819.663 542.766C819.432 542.899 819.173 542.978 818.907 542.996C818.641 543.014 818.374 542.971 818.126 542.87Z" fill="#513983"/>
<path d="M821.164 534.871C820.831 534.74 820.543 534.519 820.335 534.233C819.698 533.362 819.349 532.882 825.315 496.808C828.205 479.334 831.238 461.783 831.269 461.605C831.299 461.36 831.38 461.124 831.507 460.91C831.634 460.697 831.804 460.51 832.007 460.363C832.21 460.215 832.441 460.109 832.688 460.051C832.934 459.993 833.19 459.984 833.44 460.026C833.69 460.067 833.929 460.157 834.142 460.29C834.355 460.424 834.538 460.598 834.68 460.803C834.821 461.007 834.919 461.238 834.967 461.48C835.014 461.722 835.011 461.971 834.957 462.212C830.374 488.71 823.639 529.071 823.683 532.772C823.759 533.096 823.742 533.434 823.635 533.749C823.528 534.065 823.334 534.346 823.075 534.562C822.816 534.778 822.501 534.921 822.164 534.975C821.827 535.03 821.482 534.994 821.164 534.871Z" fill="#513983"/>
<path d="M903.174 423.873C903.068 423.832 902.966 423.781 902.87 423.72C902.453 423.464 902.157 423.056 902.047 422.586C901.937 422.116 902.022 421.623 902.284 421.215L920.568 392.849C920.698 392.647 920.867 392.472 921.066 392.334C921.265 392.197 921.49 392.098 921.728 392.045C921.966 391.992 922.213 391.986 922.453 392.026C922.694 392.066 922.924 392.152 923.131 392.279C923.337 392.406 923.516 392.571 923.658 392.766C923.799 392.96 923.899 393.18 923.954 393.412C924.008 393.645 924.015 393.885 923.974 394.12C923.933 394.355 923.845 394.58 923.715 394.782L905.436 423.152C905.204 423.511 904.851 423.779 904.438 423.91C904.025 424.042 903.578 424.028 903.174 423.873Z" fill="#513983"/>
<path d="M775.656 844C775.656 844 773.975 815.299 764.192 791.321C754.409 767.343 730.486 704.182 754.081 657.936C777.677 611.689 886.222 484.033 1075 482C1075 482 1032.86 537.045 1029.15 563.721C1024.67 595.941 1018.37 711.629 993.434 746.746C968.502 781.862 906.123 810.908 853.2 822.725C800.277 834.541 775.656 844 775.656 844Z" fill="url(#paint1_linear_37_316)"/>
<path d="M775.819 846C775.715 846 775.611 845.991 775.508 845.975C775.272 845.934 775.047 845.847 774.845 845.719C774.643 845.591 774.469 845.425 774.331 845.229C774.194 845.034 774.096 844.813 774.044 844.58C773.992 844.347 773.986 844.105 774.027 843.87C774.111 843.385 782.915 794.762 823.1 727.579C846.654 688.167 876.29 650.111 911.129 614.522C954.658 570.032 1006.5 529.231 1065.23 493.267C1065.64 493.015 1066.14 492.938 1066.61 493.051C1067.08 493.164 1067.48 493.459 1067.73 493.871C1067.98 494.283 1068.06 494.779 1067.95 495.248C1067.84 495.717 1067.54 496.122 1067.13 496.374C934.831 577.425 863.159 667.768 826.326 729.284C786.427 795.928 777.695 844.034 777.611 844.51C777.533 844.928 777.311 845.307 776.984 845.579C776.657 845.851 776.244 846 775.819 846Z" fill="#513983"/>
<path d="M806.525 763.966C806.414 763.988 806.302 763.999 806.189 764C805.766 763.999 805.357 763.85 805.032 763.578C804.707 763.306 804.487 762.929 804.41 762.511L782.031 642.159C781.987 641.923 781.99 641.682 782.039 641.447C782.088 641.213 782.183 640.991 782.317 640.793C782.452 640.596 782.624 640.427 782.823 640.296C783.023 640.165 783.246 640.075 783.48 640.031C783.715 639.987 783.955 639.99 784.188 640.039C784.421 640.089 784.642 640.184 784.839 640.319C785.036 640.454 785.204 640.627 785.334 640.828C785.464 641.028 785.553 641.253 785.597 641.488L807.972 761.858C808.056 762.33 807.95 762.816 807.679 763.211C807.408 763.606 806.993 763.877 806.525 763.966Z" fill="#513983"/>
<path d="M802.199 770.966C802.08 770.99 801.96 771.001 801.838 771C801.382 771.001 800.942 770.835 800.604 770.532C800.266 770.23 800.053 769.815 800.009 769.366C799.964 768.918 800.09 768.47 800.363 768.108C800.635 767.747 801.034 767.499 801.482 767.413C801.872 767.337 841.523 758.73 919.922 687.479C920.28 687.154 920.754 686.982 921.24 687.002C921.726 687.021 922.185 687.231 922.515 687.584C922.844 687.938 923.018 688.406 922.998 688.886C922.979 689.366 922.766 689.819 922.408 690.145C843.055 762.271 803.846 770.644 802.199 770.966Z" fill="#513983"/>
<path d="M863.75 674C863.639 674 863.528 673.991 863.418 673.97C862.967 673.879 862.569 673.605 862.309 673.208C862.048 672.812 861.947 672.324 862.026 671.85L882.535 558.491C882.577 558.255 882.664 558.029 882.79 557.828C882.916 557.627 883.078 557.453 883.268 557.318C883.458 557.182 883.671 557.088 883.896 557.038C884.12 556.989 884.352 556.987 884.578 557.032C884.803 557.077 885.018 557.168 885.21 557.3C885.402 557.432 885.567 557.602 885.697 557.801C885.826 558 885.916 558.223 885.963 558.459C886.01 558.694 886.012 558.937 885.969 559.174L865.465 672.533C865.384 672.947 865.169 673.319 864.857 673.586C864.544 673.854 864.153 674 863.75 674Z" fill="#513983"/>
<path d="M909.817 620C909.383 620.002 908.963 619.85 908.633 619.57C908.304 619.291 908.086 618.903 908.021 618.478C907.955 618.052 908.046 617.618 908.277 617.254C908.508 616.889 908.863 616.619 909.277 616.493L990.649 591.082C991.107 590.94 991.603 590.984 992.028 591.204C992.454 591.424 992.773 591.803 992.917 592.257C993.061 592.711 993.017 593.203 992.795 593.625C992.573 594.047 992.191 594.364 991.733 594.506L910.357 619.917C910.182 619.97 910 619.998 909.817 620Z" fill="#513983"/>
<path d="M968.838 566C968.473 566.002 968.116 565.894 967.813 565.69C967.409 565.419 967.129 564.998 967.035 564.521C966.941 564.044 967.04 563.549 967.311 563.144L1008.64 501.809C1008.77 501.61 1008.94 501.438 1009.15 501.305C1009.35 501.172 1009.57 501.08 1009.81 501.034C1010.05 500.988 1010.29 500.989 1010.53 501.037C1010.76 501.084 1010.99 501.178 1011.19 501.313C1011.39 501.448 1011.56 501.62 1011.69 501.821C1011.83 502.022 1011.92 502.247 1011.97 502.483C1012.01 502.72 1012.01 502.963 1011.96 503.199C1011.92 503.435 1011.82 503.659 1011.69 503.859L970.374 565.19C970.205 565.44 969.976 565.645 969.708 565.787C969.44 565.928 969.141 566.001 968.838 566Z" fill="#513983"/>
<g style="mix-blend-mode:multiply" opacity="0.6">
<path d="M837.399 438H179.605C166.018 438 155 448.668 155 461.823V870.715C155 881.366 163.921 890 174.922 890H842.078C853.079 890 862 881.366 862 870.715V461.831C862.013 448.668 850.994 438 837.399 438Z" fill="#8AA8FF"/>
</g>
<path d="M840 847.673C840 850.211 839.501 852.725 838.531 855.07C837.561 857.415 836.139 859.546 834.346 861.341C832.554 863.135 830.426 864.559 828.084 865.53C825.742 866.501 823.232 867.001 820.698 867H174.302C171.768 867.001 169.258 866.501 166.916 865.53C164.574 864.559 162.446 863.135 160.654 861.341C158.861 859.546 157.439 857.415 156.469 855.07C155.499 852.725 155 850.211 155 847.673V437.875C155 431.543 157.512 425.47 161.982 420.993C166.453 416.515 172.516 414 178.839 414H816.153C819.284 413.999 822.385 414.617 825.278 415.816C828.171 417.016 830.799 418.774 833.014 420.991C835.228 423.208 836.985 425.84 838.183 428.737C839.382 431.634 839.999 434.739 840 437.875V847.673Z" fill="#EFF8FF"/>
<path d="M363 515H193V713H363V515Z" fill="#B8D4F5"/>
<path d="M814 507H713V585H814V507Z" fill="#B8D4F5"/>
<path d="M557 515H386V540H557V515Z" fill="#B8D4F5"/>
<path d="M557 633H386V657H557V633Z" fill="#B8D4F5"/>
<path d="M778 633H607V657H778V633Z" fill="#B8D4F5"/>
<path d="M557 689H386V713H557V689Z" fill="#B8D4F5"/>
<path d="M778 689H607V713H778V689Z" fill="#B8D4F5"/>
<path d="M364 788H193V813H364V788Z" fill="#B8D4F5"/>
<path d="M778 778H386V822H778V778Z" fill="#B8D4F5"/>
<path d="M668 574H387V597H668V574Z" fill="#B8D4F5"/>
<path d="M840 438.028C840 434.873 839.383 431.748 838.185 428.832C836.986 425.917 835.23 423.268 833.015 421.036C830.801 418.805 828.172 417.035 825.278 415.828C822.385 414.621 819.284 413.999 816.153 414H178.847C175.716 413.999 172.615 414.621 169.722 415.828C166.828 417.035 164.199 418.805 161.985 421.036C159.77 423.268 158.014 425.917 156.815 428.832C155.617 431.748 155 434.873 155 438.028V489H840V438.028Z" fill="#1C4670"/>
<path d="M395.013 454.694C395.013 454.079 394.917 453.53 394.727 453.046C394.551 452.548 394.222 452.102 393.738 451.706C393.27 451.296 392.603 450.9 391.739 450.52C390.889 450.124 389.791 449.714 388.443 449.289C386.949 448.82 385.557 448.293 384.268 447.707C382.979 447.121 381.844 446.44 380.862 445.664C379.896 444.887 379.141 443.994 378.599 442.983C378.057 441.958 377.786 440.771 377.786 439.423C377.786 438.105 378.064 436.904 378.621 435.82C379.192 434.736 379.998 433.806 381.038 433.029C382.078 432.238 383.301 431.63 384.708 431.206C386.128 430.781 387.696 430.568 389.41 430.568C391.783 430.568 393.833 431 395.562 431.865C397.305 432.729 398.653 433.901 399.605 435.38C400.557 436.86 401.033 438.522 401.033 440.368H395.013C395.013 439.372 394.8 438.493 394.375 437.731C393.965 436.97 393.335 436.369 392.486 435.93C391.651 435.49 390.596 435.271 389.322 435.271C388.091 435.271 387.066 435.454 386.246 435.82C385.44 436.186 384.832 436.684 384.422 437.314C384.026 437.944 383.829 438.647 383.829 439.423C383.829 440.009 383.968 440.537 384.246 441.005C384.524 441.459 384.942 441.892 385.499 442.302C386.055 442.697 386.744 443.071 387.564 443.422C388.399 443.759 389.366 444.096 390.464 444.433C392.222 444.96 393.76 445.546 395.079 446.191C396.412 446.835 397.518 447.568 398.396 448.388C399.29 449.208 399.957 450.131 400.396 451.157C400.85 452.182 401.077 453.347 401.077 454.65C401.077 456.027 400.806 457.258 400.264 458.342C399.722 459.426 398.946 460.349 397.935 461.11C396.924 461.872 395.708 462.451 394.288 462.846C392.881 463.242 391.307 463.439 389.563 463.439C388.011 463.439 386.473 463.234 384.949 462.824C383.44 462.399 382.071 461.77 380.84 460.935C379.61 460.085 378.628 459.016 377.896 457.727C377.164 456.423 376.797 454.899 376.797 453.156H382.862C382.862 454.167 383.023 455.031 383.345 455.749C383.682 456.452 384.151 457.031 384.751 457.485C385.367 457.924 386.084 458.247 386.905 458.452C387.725 458.657 388.611 458.759 389.563 458.759C390.794 458.759 391.805 458.591 392.596 458.254C393.401 457.902 394.002 457.419 394.397 456.804C394.808 456.188 395.013 455.485 395.013 454.694ZM426.939 458.254V463H409.932V458.254H426.939ZM411.778 431.008V463H405.735V431.008H411.778ZM424.72 444.213V448.85H409.932V444.213H424.72ZM426.873 431.008V435.776H409.932V431.008H426.873ZM443.44 451.333H435.201V446.586H443.44C444.788 446.586 445.879 446.367 446.714 445.927C447.564 445.473 448.187 444.858 448.582 444.082C448.978 443.291 449.175 442.39 449.175 441.379C449.175 440.397 448.978 439.482 448.582 438.632C448.187 437.783 447.564 437.094 446.714 436.567C445.879 436.04 444.788 435.776 443.44 435.776H437.178V463H431.136V431.008H443.44C445.931 431.008 448.055 431.455 449.812 432.348C451.585 433.227 452.933 434.45 453.855 436.018C454.793 437.57 455.262 439.343 455.262 441.335C455.262 443.4 454.793 445.18 453.855 446.674C452.933 448.168 451.585 449.318 449.812 450.124C448.055 450.93 445.931 451.333 443.44 451.333ZM478.729 452.475H484.771C484.61 454.614 484.017 456.511 482.991 458.166C481.966 459.807 480.538 461.096 478.707 462.033C476.875 462.971 474.656 463.439 472.049 463.439C470.042 463.439 468.233 463.088 466.622 462.385C465.025 461.667 463.655 460.649 462.513 459.331C461.385 457.998 460.521 456.401 459.92 454.541C459.319 452.666 459.019 450.563 459.019 448.234V445.795C459.019 443.466 459.327 441.364 459.942 439.489C460.557 437.614 461.436 436.018 462.579 434.699C463.736 433.366 465.12 432.341 466.731 431.623C468.357 430.905 470.174 430.546 472.181 430.546C474.788 430.546 476.993 431.03 478.794 431.997C480.596 432.949 481.995 434.26 482.991 435.93C483.987 437.6 484.588 439.519 484.793 441.687H478.75C478.633 440.339 478.34 439.196 477.872 438.259C477.417 437.321 476.729 436.611 475.806 436.127C474.898 435.629 473.689 435.38 472.181 435.38C471.009 435.38 469.976 435.6 469.083 436.04C468.204 436.479 467.471 437.138 466.885 438.017C466.299 438.881 465.86 439.965 465.567 441.269C465.274 442.558 465.127 444.052 465.127 445.751V448.234C465.127 449.86 465.259 451.318 465.523 452.607C465.787 453.896 466.197 454.987 466.753 455.881C467.31 456.774 468.028 457.456 468.907 457.924C469.786 458.393 470.833 458.627 472.049 458.627C473.528 458.627 474.729 458.393 475.652 457.924C476.59 457.456 477.3 456.767 477.784 455.859C478.282 454.951 478.597 453.823 478.729 452.475ZM520.916 458.254V463H504.832V458.254H520.916ZM506.656 431.008V463H500.613V431.008H506.656ZM530.672 439.226V463H524.849V439.226H530.672ZM524.454 433.007C524.454 432.143 524.747 431.425 525.333 430.854C525.933 430.283 526.739 429.997 527.75 429.997C528.76 429.997 529.559 430.283 530.145 430.854C530.745 431.425 531.045 432.143 531.045 433.007C531.045 433.857 530.745 434.567 530.145 435.139C529.559 435.71 528.76 435.996 527.75 435.996C526.739 435.996 525.933 435.71 525.333 435.139C524.747 434.567 524.454 433.857 524.454 433.007ZM545.965 458.869C546.785 458.869 547.518 458.708 548.162 458.386C548.807 458.063 549.319 457.609 549.7 457.023C550.096 456.438 550.308 455.756 550.337 454.98H555.809C555.779 456.591 555.325 458.034 554.446 459.309C553.567 460.583 552.396 461.594 550.931 462.341C549.48 463.073 547.854 463.439 546.053 463.439C544.222 463.439 542.625 463.132 541.263 462.517C539.9 461.901 538.765 461.044 537.857 459.946C536.963 458.847 536.29 457.573 535.835 456.123C535.396 454.672 535.176 453.12 535.176 451.464V450.761C535.176 449.106 535.396 447.553 535.835 446.103C536.29 444.653 536.963 443.378 537.857 442.28C538.765 441.181 539.9 440.324 541.263 439.709C542.625 439.094 544.214 438.786 546.031 438.786C547.95 438.786 549.634 439.16 551.084 439.907C552.549 440.654 553.692 441.708 554.512 443.071C555.347 444.433 555.779 446.037 555.809 447.883H550.337C550.308 447.033 550.118 446.271 549.766 445.598C549.415 444.924 548.917 444.382 548.272 443.972C547.627 443.562 546.844 443.356 545.921 443.356C544.939 443.356 544.119 443.562 543.46 443.972C542.815 444.382 542.31 444.946 541.944 445.664C541.592 446.367 541.343 447.158 541.197 448.037C541.065 448.901 540.999 449.809 540.999 450.761V451.464C540.999 452.431 541.065 453.354 541.197 454.233C541.343 455.112 541.592 455.903 541.944 456.606C542.31 457.294 542.815 457.844 543.46 458.254C544.119 458.664 544.954 458.869 545.965 458.869ZM570.354 463.439C568.553 463.439 566.934 463.146 565.499 462.561C564.063 461.975 562.84 461.162 561.829 460.122C560.833 459.067 560.064 457.844 559.522 456.452C558.995 455.046 558.731 453.537 558.731 451.926V451.047C558.731 449.216 558.995 447.553 559.522 446.059C560.049 444.55 560.796 443.254 561.763 442.17C562.73 441.086 563.887 440.251 565.235 439.665C566.583 439.079 568.069 438.786 569.695 438.786C571.38 438.786 572.867 439.072 574.156 439.643C575.445 440.2 576.521 440.991 577.386 442.016C578.25 443.042 578.902 444.272 579.341 445.708C579.781 447.128 580 448.703 580 450.432V452.871H561.368V448.872H574.288V448.432C574.258 447.509 574.083 446.667 573.76 445.905C573.438 445.129 572.94 444.514 572.266 444.06C571.592 443.591 570.721 443.356 569.651 443.356C568.787 443.356 568.033 443.547 567.388 443.928C566.758 444.294 566.231 444.821 565.806 445.51C565.396 446.184 565.088 446.989 564.883 447.927C564.678 448.864 564.576 449.904 564.576 451.047V451.926C564.576 452.922 564.708 453.845 564.971 454.694C565.25 455.544 565.652 456.284 566.18 456.914C566.722 457.529 567.366 458.012 568.113 458.364C568.875 458.701 569.739 458.869 570.706 458.869C571.922 458.869 573.021 458.635 574.002 458.166C574.998 457.683 575.862 456.972 576.595 456.035L579.517 459.067C579.019 459.799 578.345 460.502 577.496 461.176C576.661 461.85 575.65 462.399 574.463 462.824C573.277 463.234 571.907 463.439 570.354 463.439ZM589.581 444.301V463H583.78V439.226H589.229L589.581 444.301ZM588.658 450.256H586.944C586.958 448.527 587.193 446.96 587.647 445.554C588.101 444.147 588.738 442.939 589.559 441.928C590.394 440.917 591.382 440.141 592.525 439.599C593.667 439.057 594.942 438.786 596.348 438.786C597.491 438.786 598.523 438.947 599.446 439.27C600.369 439.592 601.16 440.104 601.819 440.808C602.493 441.511 603.006 442.434 603.357 443.576C603.724 444.704 603.907 446.096 603.907 447.751V463H598.062V447.707C598.062 446.623 597.901 445.766 597.579 445.136C597.271 444.506 596.817 444.06 596.216 443.796C595.63 443.532 594.905 443.4 594.041 443.4C593.147 443.4 592.364 443.583 591.69 443.95C591.031 444.301 590.474 444.792 590.02 445.422C589.581 446.052 589.244 446.777 589.009 447.597C588.775 448.417 588.658 449.304 588.658 450.256ZM622.1 456.496C622.1 455.998 621.968 455.551 621.705 455.156C621.441 454.76 620.943 454.401 620.21 454.079C619.493 453.742 618.438 453.427 617.046 453.134C615.816 452.871 614.681 452.541 613.641 452.146C612.601 451.75 611.707 451.274 610.96 450.717C610.213 450.146 609.627 449.479 609.202 448.718C608.792 447.941 608.587 447.048 608.587 446.037C608.587 445.056 608.799 444.133 609.224 443.269C609.649 442.39 610.264 441.621 611.07 440.961C611.875 440.288 612.857 439.76 614.014 439.379C615.171 438.984 616.475 438.786 617.925 438.786C619.947 438.786 621.683 439.116 623.133 439.775C624.598 440.434 625.718 441.342 626.495 442.5C627.271 443.642 627.659 444.931 627.659 446.367H621.858C621.858 445.737 621.712 445.166 621.419 444.653C621.141 444.14 620.708 443.73 620.123 443.422C619.537 443.1 618.797 442.939 617.903 442.939C617.098 442.939 616.417 443.071 615.86 443.334C615.318 443.598 614.908 443.942 614.629 444.367C614.351 444.792 614.212 445.261 614.212 445.773C614.212 446.154 614.285 446.499 614.432 446.806C614.593 447.099 614.849 447.37 615.201 447.619C615.552 447.868 616.028 448.095 616.629 448.3C617.244 448.505 617.999 448.703 618.892 448.894C620.665 449.245 622.21 449.714 623.528 450.3C624.861 450.871 625.901 451.633 626.648 452.585C627.396 453.537 627.769 454.753 627.769 456.232C627.769 457.287 627.542 458.254 627.088 459.133C626.634 459.997 625.975 460.751 625.11 461.396C624.246 462.041 623.213 462.546 622.012 462.912C620.811 463.264 619.456 463.439 617.947 463.439C615.765 463.439 613.919 463.051 612.41 462.275C610.901 461.484 609.759 460.488 608.982 459.287C608.206 458.071 607.818 456.811 607.818 455.507H613.377C613.421 456.43 613.67 457.17 614.124 457.727C614.578 458.283 615.149 458.686 615.838 458.935C616.541 459.169 617.281 459.287 618.057 459.287C618.936 459.287 619.676 459.169 620.276 458.935C620.877 458.686 621.331 458.356 621.639 457.946C621.946 457.521 622.1 457.038 622.1 456.496ZM642.864 463.439C641.062 463.439 639.444 463.146 638.008 462.561C636.573 461.975 635.35 461.162 634.339 460.122C633.343 459.067 632.574 457.844 632.032 456.452C631.504 455.046 631.241 453.537 631.241 451.926V451.047C631.241 449.216 631.504 447.553 632.032 446.059C632.559 444.55 633.306 443.254 634.273 442.17C635.24 441.086 636.397 440.251 637.745 439.665C639.092 439.079 640.579 438.786 642.205 438.786C643.89 438.786 645.376 439.072 646.666 439.643C647.955 440.2 649.031 440.991 649.896 442.016C650.76 443.042 651.412 444.272 651.851 445.708C652.291 447.128 652.51 448.703 652.51 450.432V452.871H633.877V448.872H646.797V448.432C646.768 447.509 646.592 446.667 646.27 445.905C645.948 445.129 645.45 444.514 644.776 444.06C644.102 443.591 643.23 443.356 642.161 443.356C641.297 443.356 640.542 443.547 639.898 443.928C639.268 444.294 638.741 444.821 638.316 445.51C637.906 446.184 637.598 446.989 637.393 447.927C637.188 448.864 637.085 449.904 637.085 451.047V451.926C637.085 452.922 637.217 453.845 637.481 454.694C637.759 455.544 638.162 456.284 638.689 456.914C639.231 457.529 639.876 458.012 640.623 458.364C641.385 458.701 642.249 458.869 643.216 458.869C644.432 458.869 645.53 458.635 646.512 458.166C647.508 457.683 648.372 456.972 649.104 456.035L652.027 459.067C651.529 459.799 650.855 460.502 650.005 461.176C649.17 461.85 648.16 462.399 646.973 462.824C645.787 463.234 644.417 463.439 642.864 463.439Z" fill="white"/>
<path d="M289.025 539.645C276.234 529.011 259.868 535.834 248.29 540.41C237.121 544.834 209.611 570.316 193 598.647V713H330L298.998 580.102C298.998 580.102 301.803 550.292 289.025 539.645Z" fill="#06005E"/>
<path d="M207 579C201.88 585.313 197.203 591.956 193 598.883V677C196.462 671.686 199.139 665.923 200.953 659.881C207.167 639.288 196.58 607.054 207 579Z" fill="#06005E"/>
<path d="M337.058 658.956C332.77 647.921 339.252 641.707 345.104 619.292C350.138 599.969 348.132 590.33 342.75 573.191C337.368 556.051 322.149 550.447 311.049 542.134C299.949 533.821 278.597 540.615 278.597 540.615L255 554.129L299.551 685.389L316.465 713H342.125C342.671 699.558 342.809 673.769 337.058 658.956Z" fill="#06005E"/>
<path d="M343.28 683.788C336.254 682.076 328.825 683.179 322.626 686.856C316.427 690.532 311.967 696.481 310.226 703.392L309.804 705.534L309.615 706.931C309.501 707.83 309.337 708.865 309.282 709.652L309 713H363.811C364.592 706.506 362.937 699.956 359.157 694.577C355.377 689.198 349.732 685.362 343.28 683.788Z" fill="#EA94B0"/>
<path d="M363.987 693.753C361.67 687.606 357.289 682.422 351.571 679.062C345.852 675.702 339.139 674.368 332.545 675.279C325.951 676.191 319.871 679.295 315.313 684.075C310.755 688.856 307.993 695.027 307.485 701.565L307.311 703.94L307.166 705.846L307.102 707.299L307 710.135V713H364L363.987 693.753Z" fill="#79C2D8"/>
<path d="M309.096 676.046L307.978 644.529L274.813 636C274.813 636 275.725 679.972 268.391 684.572L268 713H327L321.158 684.567L309.096 676.046Z" fill="#F89AB5"/>
<path d="M310.242 677.991L308 713H345L328.368 677L310.242 677.991Z" fill="#89CEEA"/>
<path d="M276.719 693.432L268.794 685L249 713H300L276.719 693.432Z" fill="#89CEEA"/>
<path d="M275 654.634C301.991 657.209 308 645.352 308 645.352L275.241 636L275 654.634Z" fill="#C6839E"/>
<path d="M262.003 613.38C261.738 633.441 279.299 649.762 297.336 649.998C314.228 650.216 324.973 635.29 325.217 616.511L326 556.84L262.752 556L262.003 613.38Z" fill="#F89AB5"/>
<g style="mix-blend-mode:multiply">
<path d="M269 595C295.504 578.55 297 558 297 558L280.164 564.409L269 595Z" fill="#CCCCCC"/>
</g>
<path d="M237.039 616C272.045 601.016 302 553.667 302 553.667L235 550L237.039 616Z" fill="#06005E"/>
<path d="M302 625.087C302.053 626.057 302.304 627.008 302.74 627.882C303.175 628.757 303.786 629.538 304.536 630.18C305.286 630.822 306.161 631.312 307.108 631.621C308.056 631.93 309.057 632.052 310.054 631.98C311.05 631.907 312.022 631.642 312.911 631.2C313.801 630.757 314.591 630.147 315.235 629.403C315.879 628.66 316.363 627.799 316.661 626.871C316.958 625.944 317.061 624.967 316.965 624L302 625.087Z" fill="white"/>
<path d="M290.099 591.051C289.417 590.933 288.715 591.02 288.082 591.3C287.449 591.581 286.913 592.043 286.543 592.628C286.173 593.213 285.984 593.894 286.001 594.586C286.018 595.278 286.24 595.95 286.639 596.516C287.037 597.082 287.595 597.517 288.241 597.766C288.887 598.015 289.592 598.067 290.268 597.915C290.943 597.763 291.559 597.414 292.036 596.913C292.514 596.412 292.831 595.78 292.95 595.098C293.106 594.184 292.894 593.245 292.36 592.486C291.826 591.728 291.013 591.212 290.099 591.051Z" fill="#06005E"/>
<path d="M318.094 590.058C317.412 589.924 316.711 590.024 316.078 590.345C315.446 590.666 314.911 591.194 314.542 591.863C314.172 592.531 313.984 593.31 314.001 594.1C314.018 594.891 314.24 595.658 314.639 596.304C315.038 596.951 315.595 597.447 316.241 597.732C316.886 598.017 317.591 598.076 318.266 597.903C318.942 597.73 319.557 597.332 320.034 596.76C320.512 596.187 320.83 595.466 320.949 594.687C321.107 593.64 320.896 592.565 320.36 591.697C319.825 590.829 319.01 590.239 318.094 590.058Z" fill="#06005E"/>
<path d="M288.465 582.051C286.092 582.322 284.006 583.611 282.269 585.892C282.161 586.032 282.083 586.191 282.04 586.36C281.996 586.529 281.988 586.704 282.016 586.877C282.044 587.049 282.107 587.214 282.202 587.362C282.296 587.511 282.421 587.64 282.567 587.742C282.802 587.911 283.089 588.002 283.383 588C283.6 588.001 283.814 587.951 284.008 587.857C284.202 587.762 284.369 587.625 284.496 587.455C285.776 585.818 287.197 584.872 288.763 584.688C291.392 584.389 293.692 586.199 293.718 586.219C294.001 586.446 294.366 586.556 294.733 586.524C295.101 586.493 295.44 586.323 295.676 586.051C295.913 585.78 296.027 585.429 295.994 585.077C295.962 584.724 295.784 584.399 295.501 584.172C295.378 584.074 292.288 581.617 288.465 582.051Z" fill="#06005E"/>
<path d="M316.483 581.065C314.116 581.373 312.035 582.871 310.302 585.505C310.186 585.667 310.1 585.853 310.051 586.053C310.001 586.252 309.988 586.461 310.012 586.666C310.036 586.871 310.098 587.069 310.192 587.247C310.287 587.425 310.413 587.58 310.563 587.703C310.713 587.825 310.884 587.912 311.065 587.96C311.246 588.007 311.434 588.013 311.617 587.977C311.8 587.941 311.975 587.865 312.131 587.752C312.287 587.639 312.421 587.492 312.524 587.32C313.801 585.425 315.219 584.33 316.781 584.117C319.395 583.771 321.698 585.866 321.723 585.885C322.005 586.147 322.37 586.274 322.736 586.238C323.103 586.201 323.441 586.004 323.677 585.69C323.913 585.376 324.027 584.97 323.994 584.562C323.962 584.155 323.785 583.778 323.503 583.515C323.379 583.42 320.301 580.534 316.483 581.065Z" fill="#06005E"/>
<path d="M310.456 607.743C309.919 606.331 309.422 604.868 308.925 603.397C307.952 600.456 307.023 597.46 306.145 594.473C306.001 593.991 305.678 593.578 305.237 593.311C304.797 593.045 304.27 592.945 303.757 593.029C303.245 593.114 302.783 593.377 302.459 593.77C302.136 594.162 301.973 594.656 302.004 595.156C302.207 598.322 302.436 601.46 302.76 604.631C302.92 606.218 303.089 607.806 303.314 609.422C303.595 611.11 303.698 612.539 304.489 614.793L304.593 615.093C304.731 615.475 304.927 615.836 305.173 616.164C305.491 616.625 305.903 617.02 306.383 617.324C306.864 617.628 307.403 617.836 307.969 617.934C308.535 618.033 309.115 618.02 309.676 617.897C310.237 617.775 310.766 617.544 311.232 617.219C311.697 616.895 312.091 616.483 312.387 616.008C312.684 615.533 312.878 615.006 312.958 614.457C313.038 613.908 313.003 613.35 312.854 612.815C312.704 612.28 312.445 611.779 312.09 611.343C311.614 610.701 310.961 609.081 310.456 607.743Z" fill="#DD8CA6"/>
<path d="M314.739 593.019C314.446 592.972 314.147 593.012 313.877 593.135C313.608 593.258 313.381 593.458 313.225 593.709C313.069 593.961 312.991 594.253 313.001 594.549C313.01 594.845 313.107 595.131 313.279 595.372C313.451 595.613 313.691 595.797 313.968 595.902C314.244 596.007 314.546 596.028 314.834 595.962C315.123 595.896 315.385 595.746 315.589 595.532C315.793 595.317 315.928 595.046 315.978 594.755C316.012 594.559 316.006 594.359 315.962 594.166C315.918 593.972 315.836 593.79 315.721 593.628C315.605 593.467 315.459 593.33 315.291 593.225C315.122 593.121 314.934 593.051 314.739 593.019Z" fill="white"/>
<path d="M286.742 593.026C286.45 592.963 286.15 593.016 285.88 593.179C285.611 593.342 285.383 593.608 285.227 593.943C285.07 594.278 284.992 594.668 285.001 595.062C285.01 595.457 285.107 595.839 285.278 596.161C285.45 596.482 285.69 596.729 285.966 596.869C286.243 597.01 286.545 597.038 286.834 596.95C287.122 596.862 287.385 596.662 287.589 596.376C287.793 596.089 287.928 595.728 287.978 595.339C288.012 595.079 288.006 594.813 287.962 594.555C287.918 594.298 287.837 594.054 287.722 593.839C287.607 593.624 287.461 593.442 287.293 593.302C287.125 593.163 286.937 593.069 286.742 593.026Z" fill="white"/>
<path d="M311.424 591.272C311.308 591.351 311.211 591.451 311.139 591.565C311.067 591.679 311.022 591.806 311.006 591.936C310.991 592.067 311.005 592.199 311.048 592.324C311.091 592.449 311.163 592.565 311.258 592.665C311.353 592.765 311.47 592.846 311.601 592.903C311.732 592.961 311.875 592.993 312.021 592.999C312.167 593.005 312.312 592.984 312.449 592.937C312.585 592.891 312.709 592.819 312.814 592.728C317.92 588.796 321.992 592.526 322.164 592.688C322.359 592.87 322.627 592.975 322.908 592.98C323.189 592.986 323.461 592.892 323.666 592.718C323.87 592.544 323.99 592.305 323.999 592.052C324.009 591.799 323.907 591.553 323.716 591.367C323.676 591.316 318.091 586.13 311.424 591.272Z" fill="#06005E"/>
<path d="M284.397 591.283C284.286 591.364 284.194 591.465 284.126 591.579C284.059 591.693 284.017 591.817 284.004 591.946C283.991 592.074 284.007 592.204 284.051 592.327C284.094 592.45 284.164 592.564 284.258 592.662C284.351 592.76 284.465 592.84 284.593 592.898C284.721 592.955 284.86 592.989 285.003 592.998C285.146 593.006 285.289 592.988 285.424 592.945C285.559 592.903 285.684 592.836 285.79 592.75C290.907 588.799 294.988 592.543 295.16 592.706C295.356 592.889 295.624 592.994 295.906 593C296.187 593.005 296.46 592.91 296.665 592.736C296.87 592.561 296.99 592.321 296.999 592.066C297.009 591.812 296.907 591.565 296.715 591.379C296.658 591.327 291.083 586.116 284.397 591.283Z" fill="#06005E"/>
<g style="mix-blend-mode:multiply">
<path d="M329 585L295 558C304.234 584.591 329 585 329 585Z" fill="#CCCCCC"/>
</g>
<path d="M294 548L294.466 558.212C294.466 558.212 309.024 576.468 329 585L327.522 556.351L294 548Z" fill="#06005E"/>
<path d="M237 693.321L241.49 713H265.034L268 685L237 693.321Z" fill="#89CEEA"/>
<path d="M262.745 617.963C268.731 617.695 273.325 611.712 273.006 604.6C272.687 597.488 267.575 591.94 261.589 592.209C255.603 592.477 251.009 598.461 251.328 605.573C251.647 612.685 256.759 618.232 262.745 617.963Z" fill="#F89AB5"/>
<g style="mix-blend-mode:multiply">
<path d="M251.109 603.498C250.379 609.372 253.392 614.922 258.081 617C254.764 614.357 252.806 609.77 253.409 604.936C254.253 598.152 259.765 593.521 265.721 594.592C266.508 594.739 267.274 594.979 268 595.307C266.691 594.225 265.116 593.485 263.425 593.155C257.469 592.079 251.957 596.711 251.109 603.498Z" fill="#E6E6E6"/>
</g>
<g style="mix-blend-mode:multiply">
<path d="M265.339 603.004C264.648 603.036 263.981 603.272 263.424 603.682C262.867 604.093 262.444 604.659 262.208 605.31C261.973 605.961 261.936 606.667 262.102 607.339C262.268 608.011 262.629 608.619 263.141 609.085C263.652 609.552 264.29 609.856 264.974 609.96C265.658 610.064 266.358 609.963 266.985 609.669C267.612 609.376 268.137 608.903 268.495 608.311C268.853 607.718 269.028 607.033 268.996 606.342C268.976 605.882 268.865 605.432 268.669 605.015C268.474 604.599 268.199 604.225 267.859 603.915C267.52 603.605 267.122 603.365 266.69 603.208C266.257 603.052 265.798 602.983 265.339 603.004Z" fill="#E6E6E6"/>
</g>
<path d="M236.851 695.42C230.431 694.296 223.815 695.444 218.17 698.661C212.525 701.877 208.215 706.956 206 713H258C256.355 708.495 253.534 704.498 249.82 701.412C246.107 698.325 241.634 696.258 236.851 695.42Z" fill="#F89AB5"/>
<path d="M248.291 693.133C233.81 686.181 212.792 690.976 205.988 705.755C204.929 708.058 203.937 710.499 203 713H266C262.865 704.267 256.508 697.136 248.291 693.133Z" fill="#89CEEA"/>
<path d="M274.265 649C273.943 662.563 272.661 682.233 268 685.303L275.881 694C270.297 680.492 284 655.452 284 655.452L274.265 649Z" fill="#C6839E"/>
<path d="M276 533.898C276 533.898 308.758 567.174 320.585 568.788C332.413 570.402 344.897 562.541 339.848 553.801C321.99 522.912 276 533.898 276 533.898Z" fill="#06005E"/>
<path d="M298.721 536C298.536 536.003 298.36 536.073 298.227 536.197C298.093 536.321 298.012 536.49 298 536.669C297.997 536.76 298.013 536.849 298.046 536.934C298.079 537.018 298.129 537.095 298.193 537.161C298.256 537.226 298.333 537.278 298.417 537.315C298.502 537.351 298.593 537.371 298.686 537.372C326.246 538.037 335.566 557.382 335.657 557.576C335.709 557.701 335.798 557.807 335.913 557.882C336.027 557.958 336.161 557.999 336.299 558C336.397 557.999 336.495 557.979 336.585 557.941C336.67 557.904 336.746 557.851 336.809 557.785C336.873 557.719 336.922 557.641 336.955 557.557C336.988 557.472 337.003 557.382 337 557.292C336.996 557.201 336.975 557.112 336.937 557.03C336.845 556.806 327.196 536.69 298.721 536Z" fill="white"/>
<path d="M235.737 558.239C235.808 558.183 235.867 558.114 235.911 558.035C235.956 557.955 235.984 557.868 235.995 557.778C236.006 557.687 235.999 557.596 235.975 557.508C235.951 557.42 235.91 557.338 235.855 557.266C235.8 557.195 235.731 557.135 235.653 557.09C235.575 557.045 235.489 557.016 235.4 557.005C235.311 556.994 235.22 557.001 235.134 557.025C235.047 557.05 234.966 557.091 234.895 557.147C234.529 557.437 205.826 580.364 193 606.786V610C204.925 582.848 235.363 558.534 235.737 558.239Z" fill="white"/>
<path d="M157.721 396.217C157.721 396.217 159.241 379.907 152.278 374.091C145.316 368.274 136.369 371.995 130.089 374.51C123.809 377.024 107.816 391.921 98.9195 408.134C89.9015 424.561 97.2114 444.902 93.5397 457.411C85.3673 485.249 52.6947 482.386 66.2553 521.895C71.6477 537.609 108.603 563.842 117.332 565.895C122.721 567.153 150.089 556.676 159.237 555.964C171.323 555.025 152.153 527.468 152.153 527.468L183 504.982L157.721 396.217Z" fill="#06005E"/>
<path d="M94 457C98.1247 452.505 101.872 447.215 103.958 439.671C107.083 428.317 101.746 410.504 107 395C104.023 399.02 101.351 403.288 99.0103 407.762C90.5719 424.158 97.3218 444.431 94 457Z" fill="#06005E"/>
<path d="M163 510.342C163 510.342 164.932 513.15 167.17 517L183 505.321L181.089 497L163 510.342Z" fill="#06005E"/>
<path d="M127.843 548.401C119.118 546.334 82.2508 520.09 76.8671 504.381C73.7639 495.305 73.1082 488.484 74.0103 483C65.3062 491.246 58.8157 500.189 66.246 521.876C71.6255 537.597 108.493 563.841 117.201 565.895C122.576 567.153 149.879 556.672 159.005 555.959C165.27 555.473 163.127 547.847 159.631 540.607C147.895 543.823 131.832 549.344 127.843 548.401Z" fill="#2C2C6D"/>
<path d="M146.928 374.43C146.928 374.43 158.639 370.71 164.726 375.27C170.812 379.831 179.163 382.899 182.116 392.293C185.069 401.686 186.177 406.965 183.408 417.553C180.195 429.83 176.642 433.247 178.991 439.291C183.4 450.639 181.508 473.71 181.508 473.71L179.411 488L158.438 453.77L134 381.823L146.928 374.43Z" fill="#06005E"/>
<path d="M215.817 471.621C210.003 468.555 204.251 465.411 198.795 461.989C196.027 460.315 193.39 458.538 190.778 456.769C189.512 455.864 188.204 454.971 187.035 454.061L185.275 452.716L184.499 452.075L184.128 451.767L183.963 451.601C183.256 450.894 182.49 450.25 181.672 449.679C178.19 447.342 173.939 446.487 169.839 447.3C165.739 448.112 162.12 450.526 159.765 454.019C157.41 457.513 156.509 461.804 157.257 465.965C158.004 470.126 160.34 473.822 163.759 476.252L164.844 476.999L165.713 477.597L166.393 478.024L167.726 478.879L170.258 480.378C171.946 481.378 173.579 482.219 175.237 483.142C178.545 484.85 181.836 486.559 185.153 488.041C191.761 491.155 198.437 493.833 205.125 496.396C211.572 498.814 218.058 500.997 224.577 503L235 480.72C228.481 477.866 222.067 474.859 215.817 471.621Z" fill="#79C2D8"/>
<path d="M157.748 609.243L119.846 885.327C119.574 887.265 118.579 889.028 117.061 890.263C115.543 891.498 113.615 892.112 111.663 891.983C109.712 891.854 107.881 890.991 106.539 889.568C105.196 888.145 104.442 886.266 104.426 884.309L103 605.657C102.963 598.36 105.824 591.346 110.955 586.159C116.086 580.973 123.066 578.038 130.359 578C137.653 577.963 144.662 580.826 149.846 585.96C155.029 591.094 157.963 598.078 158 605.375C158 606.669 157.916 607.961 157.748 609.243Z" fill="#F89AB5"/>
<path d="M197.951 610.476L207.996 888.499C208.062 890.579 207.339 892.607 205.972 894.175C204.604 895.743 202.694 896.736 200.624 896.955C198.554 897.173 196.478 896.6 194.813 895.351C193.148 894.102 192.018 892.27 191.649 890.222L143.416 616.233C142.79 612.68 142.871 609.039 143.654 605.517C144.436 601.995 145.905 598.662 147.976 595.707C150.048 592.753 152.681 590.235 155.726 588.297C158.771 586.36 162.168 585.041 165.722 584.416C169.277 583.79 172.921 583.871 176.444 584.653C179.968 585.435 183.303 586.903 186.259 588.974C189.215 591.044 191.734 593.676 193.673 596.719C195.611 599.763 196.931 603.158 197.556 606.711C197.766 607.957 197.898 609.214 197.951 610.476Z" fill="#F89AB5"/>
<path d="M144.183 427C144.183 427 144.679 450.881 140.7 453.389L140 503.7L180 505L169.392 453.389L162.829 448.748L162.217 431.629L144.183 427Z" fill="#F89AB5"/>
<path d="M108.863 580.055C108.863 580.055 84.5053 622.862 100.364 698.95C131.436 711.469 179.179 710.941 202.518 686.208C202.518 686.208 206.41 617.88 192.08 575.791C185.362 556.048 108.863 580.055 108.863 580.055Z" fill="#5F2C82"/>
<path d="M123.918 535.537C126.822 526.405 117.657 509.686 117.657 509.686L114.309 490.137L140.095 453.673L144.492 458.359L161.87 472.962L163.345 449.557L173.28 449L192.362 491.294C193.558 494.048 192.873 500.356 191.939 503.197C189.753 509.719 182.047 526.991 181.371 532.792C180.758 538.102 187.407 560.874 191.313 574.08C193.752 582.341 184.482 590.154 172.214 592.606C149.704 597.107 127.223 589.902 107 582.48C106.992 582.48 121.013 544.67 123.918 535.537Z" fill="#89CEEA"/>
<path d="M162 432.415C162 432.415 158.726 439.282 144 437.787L144.136 427L162 432.415Z" fill="#C6839E"/>
<path d="M172.551 415.83C172.417 426.022 166.542 434.119 157.305 433.999C147.444 433.87 137.842 425.016 138.002 414.13L138.422 383L173 383.449L172.551 415.83Z" fill="#F89AB5"/>
<g style="mix-blend-mode:multiply">
<path d="M157 384C157 384 156.158 395.107 141 404L147.375 387.463L157 384Z" fill="#CCCCCC"/>
</g>
<path d="M160 381.999C160 381.999 143.461 407.825 124.129 416L123 380L160 381.999Z" fill="#06005E"/>
<path d="M163.826 424.986C163.236 425.033 162.643 424.959 162.081 424.769C161.519 424.578 160.999 424.275 160.551 423.877C160.103 423.478 159.735 422.992 159.469 422.446C159.202 421.901 159.043 421.306 159 420.696L167.987 420C168.032 420.61 167.96 421.223 167.775 421.805C167.591 422.386 167.296 422.924 166.91 423.387C166.523 423.85 166.052 424.23 165.522 424.505C164.993 424.779 164.417 424.943 163.826 424.986Z" fill="white"/>
<path d="M151.028 403.667C150.962 404.056 151.013 404.456 151.174 404.817C151.336 405.177 151.6 405.482 151.934 405.692C152.268 405.902 152.656 406.009 153.051 405.999C153.446 405.989 153.828 405.863 154.151 405.635C154.474 405.408 154.722 405.091 154.865 404.722C155.008 404.354 155.038 403.952 154.953 403.567C154.867 403.182 154.669 402.83 154.385 402.557C154.1 402.284 153.74 402.101 153.352 402.031C153.092 401.985 152.825 401.99 152.567 402.047C152.309 402.105 152.065 402.212 151.849 402.365C151.633 402.517 151.449 402.71 151.308 402.934C151.167 403.157 151.072 403.407 151.028 403.667Z" fill="#06005E"/>
<path d="M165.028 403.667C164.962 404.056 165.013 404.456 165.174 404.817C165.336 405.177 165.6 405.482 165.934 405.692C166.268 405.902 166.656 406.009 167.051 405.999C167.446 405.989 167.828 405.863 168.151 405.635C168.474 405.408 168.722 405.091 168.865 404.722C169.008 404.354 169.038 403.952 168.953 403.567C168.867 403.182 168.669 402.83 168.385 402.557C168.1 402.284 167.74 402.101 167.352 402.031C167.092 401.985 166.825 401.99 166.567 402.047C166.309 402.105 166.065 402.212 165.849 402.365C165.633 402.517 165.449 402.71 165.308 402.934C165.167 403.157 165.072 403.407 165.028 403.667Z" fill="#06005E"/>
<path d="M148.793 400C148.646 400.001 148.502 399.967 148.377 399.903C148.252 399.839 148.151 399.747 148.085 399.637C148.019 399.528 147.99 399.404 148.003 399.282C148.016 399.159 148.069 399.042 148.157 398.944C149.149 397.824 150.341 397.16 151.716 397.025C153.914 396.809 155.671 398.044 155.72 398.097C155.799 398.153 155.865 398.221 155.912 398.299C155.96 398.376 155.989 398.46 155.997 398.547C156.006 398.633 155.994 398.721 155.963 398.804C155.931 398.886 155.88 398.963 155.814 399.03C155.747 399.096 155.665 399.151 155.573 399.191C155.481 399.231 155.38 399.255 155.277 399.262C155.174 399.269 155.07 399.259 154.971 399.233C154.872 399.207 154.781 399.164 154.701 399.108C154.701 399.108 153.367 398.194 151.872 398.343C150.982 398.436 150.15 398.903 149.425 399.728C149.353 399.812 149.258 399.881 149.148 399.928C149.038 399.976 148.917 400 148.793 400Z" fill="#06005E"/>
<path d="M164.676 399.999C164.535 399.996 164.399 399.952 164.286 399.873C164.212 399.821 164.15 399.756 164.102 399.682C164.054 399.607 164.022 399.524 164.008 399.438C163.994 399.352 163.998 399.264 164.02 399.179C164.041 399.094 164.08 399.014 164.134 398.943C165.007 397.824 166.053 397.16 167.254 397.025C169.169 396.809 170.718 398.044 170.784 398.096C170.912 398.213 170.989 398.373 170.999 398.542C171.009 398.712 170.95 398.878 170.835 399.008C170.72 399.137 170.558 399.22 170.382 399.238C170.205 399.257 170.028 399.21 169.887 399.108C169.887 399.108 168.717 398.19 167.406 398.343C166.626 398.436 165.897 398.902 165.265 399.727C165.198 399.815 165.109 399.887 165.006 399.934C164.903 399.982 164.79 400.004 164.676 399.999Z" fill="#06005E"/>
<path d="M161.925 403.797C162.331 405.361 162.759 406.933 163.209 408.478C163.433 409.246 163.666 410.014 163.912 410.754C164.105 411.404 164.356 412.032 164.659 412.629C164.947 413.093 165.059 413.662 164.971 414.215C164.882 414.768 164.601 415.262 164.186 415.591C163.772 415.92 163.257 416.059 162.75 415.977C162.244 415.896 161.787 415.602 161.475 415.156C161.363 414.984 161.274 414.795 161.21 414.595L161.163 414.436C160.896 413.522 160.714 412.58 160.619 411.626C160.518 410.774 160.438 409.942 160.365 409.11C160.224 407.451 160.112 405.807 160.003 404.147C159.984 403.882 160.057 403.62 160.206 403.41C160.355 403.201 160.569 403.06 160.808 403.015C161.047 402.97 161.292 403.025 161.496 403.168C161.699 403.311 161.847 403.533 161.91 403.789L161.925 403.797Z" fill="#DD8CA6"/>
<path d="M165.015 403.415C164.981 403.512 165.006 403.612 165.086 403.703C165.166 403.793 165.298 403.87 165.466 403.923C165.633 403.975 165.828 404.002 166.025 404C166.223 403.997 166.415 403.966 166.577 403.909C166.738 403.852 166.862 403.772 166.933 403.679C167.004 403.587 167.019 403.486 166.975 403.39C166.932 403.293 166.832 403.206 166.689 403.137C166.545 403.069 166.365 403.024 166.17 403.007C165.908 402.985 165.64 403.015 165.423 403.091C165.207 403.168 165.06 403.284 165.015 403.415Z" fill="white"/>
<path d="M150.015 403.825C149.981 404.02 150.005 404.22 150.084 404.402C150.164 404.583 150.295 404.737 150.462 404.843C150.629 404.95 150.824 405.004 151.022 405C151.22 404.995 151.412 404.932 151.574 404.819C151.736 404.705 151.861 404.546 151.933 404.361C152.004 404.177 152.019 403.975 151.976 403.782C151.933 403.588 151.833 403.412 151.69 403.276C151.546 403.139 151.366 403.048 151.171 403.015C150.91 402.97 150.642 403.029 150.426 403.181C150.209 403.333 150.062 403.564 150.015 403.825Z" fill="white"/>
<path d="M170.515 403C170.445 403.002 170.375 402.99 170.311 402.965C170.246 402.939 170.188 402.9 170.14 402.851C170.058 402.771 168.155 400.887 165.772 402.872C165.671 402.935 165.55 402.961 165.43 402.944C165.311 402.927 165.202 402.87 165.123 402.782C165.044 402.694 165.001 402.581 165 402.464C164.999 402.347 165.042 402.234 165.12 402.145C168.237 399.553 170.84 402.167 170.867 402.196C170.956 402.29 171.004 402.415 171 402.542C170.996 402.67 170.94 402.791 170.844 402.88C170.753 402.958 170.636 403.001 170.515 403Z" fill="#06005E"/>
<path d="M155.434 403C155.353 403.002 155.272 402.99 155.197 402.965C155.122 402.939 155.054 402.9 154.999 402.851C154.907 402.771 152.695 400.891 149.922 402.872C149.805 402.944 149.66 402.977 149.515 402.963C149.371 402.95 149.238 402.892 149.142 402.8C149.047 402.709 148.996 402.59 149 402.469C149.004 402.348 149.063 402.232 149.164 402.145C152.787 399.554 155.813 402.167 155.843 402.193C155.895 402.239 155.936 402.293 155.963 402.353C155.99 402.412 156.002 402.475 156 402.539C155.997 402.602 155.98 402.665 155.949 402.723C155.917 402.78 155.873 402.833 155.817 402.876C155.712 402.956 155.576 403 155.434 403Z" fill="#06005E"/>
<g style="mix-blend-mode:multiply">
<path d="M174 399C174 399 160.889 398.774 156 384L174 399Z" fill="#CCCCCC"/>
</g>
<path d="M155.258 383.81C155.258 383.81 163.154 394.164 174 399L173.198 382.755L155 378L155.258 383.81Z" fill="#06005E"/>
<path d="M207.73 886L225.896 897.547C226.661 898.037 227.262 898.74 227.623 899.568C227.984 900.395 228.089 901.31 227.924 902.196L227.773 903H193.837C192.672 903 191.645 902.068 190.904 901.177C190.537 900.738 190.271 900.225 190.126 899.674C189.982 899.123 189.961 898.547 190.066 897.987L190.933 887.396C195.596 888.453 205.627 888.034 207.73 886Z" fill="#422360"/>
<path d="M119.63 886.977L122.803 898.647C122.931 899.111 122.998 899.59 123 900.071V902.79C123.001 902.93 122.975 903.068 122.924 903.197C122.872 903.326 122.797 903.443 122.701 903.542C122.605 903.641 122.49 903.719 122.365 903.773C122.239 903.827 122.104 903.854 121.968 903.854L99.0448 904C98.897 904.001 98.7507 903.97 98.6156 903.909C98.4805 903.847 98.3599 903.757 98.2617 903.644C98.1635 903.531 98.0901 903.398 98.0464 903.254C98.0027 903.11 97.9896 902.957 98.0082 902.808L98.4531 899.205C98.5401 898.518 98.7312 897.85 99.0196 897.223L104.001 886.385C108.072 884.253 113.221 882.049 119.63 886.977Z" fill="#422360"/>
<path d="M141 453L124 457.733L135.281 509L141 453Z" fill="#89CEEA"/>
<path d="M100.318 699.032C106.812 701.672 113.908 703.562 121.058 705C105.935 656.674 125 588.642 125 588.642L110.521 580L108.746 580.139C108.746 580.139 84.5943 622.945 100.318 699.032Z" fill="#522872"/>
<path d="M166.2 508.262C166.2 508.262 147.834 533.07 121.642 517.58C123.3 521.953 125.162 528.348 124.43 532.956C123.929 536.48 108.492 577.883 107 581.928L107.323 582.046C108.599 582.517 109.912 582.992 111.239 583.467L111.328 583.497C115.626 585.036 120.103 586.579 124.694 588C130.578 569.811 145.657 531.216 169.618 525.901C176.22 524.438 181.096 524.16 184.553 522.731C187.205 515.477 190.985 506.648 192.418 502.388C192.663 501.605 192.857 500.808 193 500C192.817 500.282 184.323 513.699 166.2 508.262Z" fill="#79C2D8"/>
<path d="M137.747 416.753C141.032 416.606 143.552 413.323 143.377 409.422C143.202 405.52 140.397 402.476 137.113 402.624C133.829 402.771 131.308 406.054 131.483 409.955C131.658 413.857 134.463 416.901 137.747 416.753Z" fill="#F89AB5"/>
<g style="mix-blend-mode:multiply">
<path d="M132.404 409.456C132.897 405.783 136.141 403.276 139.643 403.849C140.113 403.929 140.569 404.064 141 404.249C140.231 403.661 139.304 403.26 138.308 403.084C134.806 402.503 131.567 405.01 131.069 408.691C130.617 411.871 132.427 414.875 135.168 416C134.132 415.197 133.337 414.178 132.855 413.036C132.372 411.894 132.217 410.664 132.404 409.456Z" fill="#E6E6E6"/>
</g>
<g style="mix-blend-mode:multiply">
<path d="M140.999 409.911C141.012 410.306 140.937 410.697 140.783 411.035C140.63 411.373 140.405 411.643 140.136 411.811C139.868 411.979 139.568 412.037 139.275 411.977C138.982 411.918 138.709 411.745 138.49 411.479C138.271 411.212 138.116 410.866 138.044 410.482C137.973 410.099 137.988 409.696 138.088 409.324C138.189 408.952 138.369 408.628 138.607 408.393C138.846 408.157 139.131 408.022 139.427 408.002C139.624 407.99 139.821 408.029 140.007 408.118C140.193 408.207 140.364 408.344 140.51 408.521C140.656 408.699 140.774 408.913 140.858 409.151C140.942 409.39 140.99 409.648 140.999 409.911Z" fill="#E6E6E6"/>
</g>
<path d="M225 502L236 482.992L233.798 482L225 502Z" fill="#C6839E"/>
<path d="M135.331 478.362L112.279 551.13L112.569 548.994L106.115 622.715C105.984 624.184 105.291 625.549 104.175 626.531C103.06 627.513 101.607 628.038 100.113 627.998C98.6195 627.958 97.1974 627.357 96.1374 626.317C95.0773 625.277 94.4593 623.877 94.4094 622.403L92.0018 548.446C91.9935 548.156 92.0135 547.865 92.0616 547.578L92.2921 546.314L105.85 471.24C106.59 467.351 108.856 463.907 112.154 461.659C115.453 459.41 119.518 458.538 123.465 459.233C127.411 459.928 130.92 462.134 133.228 465.369C135.535 468.605 136.455 472.61 135.787 476.512C135.674 477.137 135.521 477.755 135.331 478.362Z" fill="#F89AB5"/>
<path d="M124.691 516.59C134.002 487.992 137.603 481.421 138.759 478.981C142.5 471.049 137.328 461.413 129.359 457.683C121.39 453.953 109.832 456.516 106.083 464.452C97.72 482.184 96.4715 512.97 94 531.048L117.983 536C120.446 528.835 122.499 523.263 124.691 516.59Z" fill="#89CEEA"/>
<path d="M100.696 615.233C99.7486 615.494 98.8754 615.975 98.1474 616.638C97.4193 617.301 96.8568 618.127 96.5055 619.048C95.5686 621.474 94.3953 625.565 95.3618 629.322C96.6025 634.248 102.912 652.641 104.815 658.152C104.88 658.336 104.986 658.503 105.126 658.639C105.265 658.775 105.433 658.878 105.618 658.938C105.803 658.998 105.999 659.015 106.192 658.987C106.384 658.959 106.567 658.886 106.727 658.776L107.369 658.326C107.553 658.196 107.699 658.019 107.793 657.814C107.886 657.608 107.923 657.381 107.9 657.156L106.212 640.99L107.124 642.088C107.255 642.245 107.425 642.366 107.617 642.436C107.809 642.507 108.016 642.526 108.218 642.49C108.419 642.455 108.608 642.367 108.765 642.235C108.922 642.104 109.041 641.933 109.112 641.74L111.505 635.168C112.165 633.344 112.165 631.345 111.505 629.521L107.162 617.467C106.443 616.473 105.436 615.725 104.28 615.326C103.123 614.926 101.872 614.893 100.696 615.233Z" fill="#F89AB5"/>
<path d="M111.941 632C111.413 635.566 107.056 641.918 107.056 641.918L104 633.44C104 633.44 107.234 653.866 107.234 654L106.156 644.216L105.883 641.724L106.85 642.84C106.988 643.002 107.168 643.125 107.372 643.198C107.576 643.271 107.796 643.29 108.01 643.254C108.224 643.218 108.424 643.128 108.591 642.994C108.757 642.859 108.883 642.684 108.957 642.487L111.493 635.803C111.944 634.585 112.097 633.284 111.941 632Z" fill="#DD8EAC"/>
<path d="M301.051 511.68C301.168 512.646 301.512 513.571 302.056 514.38C302.6 515.19 303.328 515.862 304.183 516.342C306.439 517.598 310.301 519.33 314.143 518.945C319.184 518.443 338.23 514.915 343.973 513.844C344.164 513.808 344.344 513.729 344.5 513.612C344.655 513.496 344.781 513.346 344.869 513.174C344.955 513.001 345 512.811 345 512.618C345 512.424 344.955 512.234 344.869 512.061L344.518 511.366C344.417 511.167 344.263 510.997 344.074 510.876C343.884 510.754 343.666 510.685 343.44 510.676L327.251 510.031L328.468 509.299C328.644 509.193 328.789 509.044 328.887 508.865C328.986 508.687 329.035 508.485 329.03 508.282C329.025 508.078 328.965 507.88 328.858 507.706C328.75 507.533 328.598 507.391 328.418 507.294L322.286 503.996C320.587 503.079 318.617 502.783 316.72 503.159L304.204 505.67C303.12 506.231 302.236 507.109 301.672 508.184C301.108 509.259 300.891 510.479 301.051 511.68Z" fill="#EA94B0"/>
<path d="M319 503C322.267 504.05 327.654 509.285 327.654 509.285L319.302 511C319.302 511 338.877 510.903 339 510.925L329.688 510.508L327.315 510.402L328.492 509.626C328.661 509.514 328.801 509.356 328.896 509.167C328.992 508.978 329.039 508.765 329.034 508.549C329.029 508.334 328.972 508.123 328.868 507.94C328.764 507.756 328.617 507.605 328.443 507.503L322.516 504.011C321.431 503.385 320.228 503.039 319 503Z" fill="#DD8EAC"/>
<path d="M141 453.36L145.44 458C142.308 450.795 150 437.442 150 437.442L144.526 434C144.346 441.254 143.628 451.722 141 453.36Z" fill="#C6839E"/>
<path d="M95 531L115.848 540L117 535.996L95 531Z" fill="#C6839E"/>
<path d="M145 371.028C145 371.028 170.475 365.083 180.362 381.786C183.159 386.511 176.243 390.76 169.694 389.885C163.145 389.01 145 371.028 145 371.028Z" fill="#06005E"/>
<path d="M177.621 384C177.549 384 177.478 383.98 177.417 383.941C177.357 383.902 177.309 383.846 177.28 383.781C177.229 383.675 172.212 373.113 157.371 372.751C157.321 372.749 157.272 372.739 157.226 372.719C157.181 372.699 157.139 372.67 157.105 372.635C157.071 372.599 157.044 372.557 157.026 372.511C157.008 372.465 156.999 372.416 157 372.367C157.012 372.271 157.058 372.182 157.128 372.115C157.199 372.049 157.29 372.008 157.388 372C172.719 372.375 177.919 383.384 177.966 383.473C177.987 383.517 177.998 383.566 178 383.614C178.002 383.663 177.993 383.712 177.976 383.758C177.959 383.804 177.932 383.846 177.898 383.882C177.864 383.917 177.824 383.946 177.778 383.966C177.729 383.99 177.675 384.001 177.621 384Z" fill="white"/>
<path d="M80.3662 478C80.2821 477.999 80.2007 477.969 80.1356 477.915C80.0705 477.86 80.0255 477.785 80.008 477.701C79.9906 477.617 80.0018 477.529 80.0397 477.452C80.0776 477.376 80.14 477.314 80.2166 477.279C102.432 467.311 100.072 451.786 97.7861 436.775C97.0339 431.825 96.2527 426.709 96.4397 421.992C97.1794 403.359 122.154 383.283 122.403 383.079C122.442 383.049 122.486 383.026 122.533 383.013C122.58 383 122.628 382.997 122.677 383.003C122.725 383.009 122.771 383.025 122.814 383.05C122.856 383.075 122.893 383.108 122.923 383.147C122.952 383.186 122.974 383.231 122.987 383.279C123 383.327 123.003 383.377 122.997 383.426C122.991 383.475 122.975 383.523 122.951 383.566C122.927 383.609 122.895 383.647 122.856 383.677C122.607 383.872 97.9024 403.74 97.1794 422.022C96.9965 426.688 97.7362 431.519 98.5174 436.66C100.845 451.93 103.251 467.769 80.5158 477.97C80.4684 477.99 80.4175 478 80.3662 478Z" fill="white"/>
<defs>
<linearGradient id="paint0_linear_37_316" x1="748.393" y1="505.933" x2="979.523" y2="464.939" gradientUnits="userSpaceOnUse">
<stop stop-color="#FFA229"/>
<stop offset="1" stop-color="#DBE564"/>
</linearGradient>
<linearGradient id="paint1_linear_37_316" x1="909.498" y1="844" x2="909.498" y2="482" gradientUnits="userSpaceOnUse">
<stop stop-color="#FFA229"/>
<stop offset="1" stop-color="#F6E443"/>
</linearGradient>
</defs>
</svg>
