<svg width="1025" height="1494" viewBox="0 0 1025 1494" fill="none" xmlns="http://www.w3.org/2000/svg">
<rect width="1025" height="1494" fill="#FFFAFA"/>
<g filter="url(#filter0_d_608_34)">
<path fill-rule="evenodd" clip-rule="evenodd" d="M954.959 336C977.066 336 994.981 353.934 994.959 376.041L994.799 530.15C994.776 552.225 976.874 570.108 954.799 570.108H827.055H83C60.9086 570.108 43 552.2 43 530.108V376C43 353.909 60.9086 336 83 336H954.959Z" fill="white"/>
</g>
<path d="M516.156 399.188V439H509.293V399.188H516.156ZM532.398 416.605V422.047H514.406V416.605H532.398ZM534.668 399.188V404.656H514.406V399.188H534.668ZM537.621 424.535V423.906C537.621 421.773 537.931 419.796 538.551 417.973C539.171 416.132 540.064 414.536 541.23 413.188C542.415 411.82 543.855 410.763 545.551 410.016C547.264 409.25 549.197 408.867 551.348 408.867C553.517 408.867 555.449 409.25 557.145 410.016C558.858 410.763 560.307 411.82 561.492 413.188C562.677 414.536 563.579 416.132 564.199 417.973C564.819 419.796 565.129 421.773 565.129 423.906V424.535C565.129 426.668 564.819 428.646 564.199 430.469C563.579 432.292 562.677 433.887 561.492 435.254C560.307 436.603 558.867 437.66 557.172 438.426C555.477 439.173 553.553 439.547 551.402 439.547C549.233 439.547 547.292 439.173 545.578 438.426C543.883 437.66 542.443 436.603 541.258 435.254C540.073 433.887 539.171 432.292 538.551 430.469C537.931 428.646 537.621 426.668 537.621 424.535ZM544.211 423.906V424.535C544.211 425.866 544.348 427.124 544.621 428.309C544.895 429.493 545.323 430.533 545.906 431.426C546.49 432.319 547.237 433.021 548.148 433.531C549.06 434.042 550.145 434.297 551.402 434.297C552.624 434.297 553.681 434.042 554.574 433.531C555.486 433.021 556.233 432.319 556.816 431.426C557.4 430.533 557.828 429.493 558.102 428.309C558.393 427.124 558.539 425.866 558.539 424.535V423.906C558.539 422.594 558.393 421.354 558.102 420.188C557.828 419.003 557.391 417.954 556.789 417.043C556.206 416.132 555.458 415.421 554.547 414.91C553.654 414.382 552.587 414.117 551.348 414.117C550.108 414.117 549.033 414.382 548.121 414.91C547.228 415.421 546.49 416.132 545.906 417.043C545.323 417.954 544.895 419.003 544.621 420.188C544.348 421.354 544.211 422.594 544.211 423.906ZM577.27 415.047V439H570.68V409.414H576.969L577.27 415.047ZM586.32 409.223L586.266 415.348C585.865 415.275 585.427 415.22 584.953 415.184C584.497 415.147 584.042 415.129 583.586 415.129C582.456 415.129 581.462 415.293 580.605 415.621C579.749 415.931 579.029 416.387 578.445 416.988C577.88 417.572 577.443 418.283 577.133 419.121C576.823 419.96 576.641 420.898 576.586 421.938L575.082 422.047C575.082 420.188 575.264 418.465 575.629 416.879C575.993 415.293 576.54 413.898 577.27 412.695C578.017 411.492 578.947 410.553 580.059 409.879C581.189 409.204 582.492 408.867 583.969 408.867C584.37 408.867 584.798 408.904 585.254 408.977C585.728 409.049 586.083 409.132 586.32 409.223ZM602.945 439.547C600.758 439.547 598.78 439.191 597.012 438.48C595.262 437.751 593.767 436.74 592.527 435.445C591.306 434.151 590.367 432.629 589.711 430.879C589.055 429.129 588.727 427.242 588.727 425.219V424.125C588.727 421.81 589.064 419.714 589.738 417.836C590.413 415.958 591.352 414.354 592.555 413.023C593.758 411.674 595.18 410.645 596.82 409.934C598.461 409.223 600.238 408.867 602.152 408.867C604.267 408.867 606.117 409.223 607.703 409.934C609.289 410.645 610.602 411.647 611.641 412.941C612.698 414.217 613.482 415.74 613.992 417.508C614.521 419.276 614.785 421.227 614.785 423.359V426.176H591.926V421.445H608.277V420.926C608.241 419.741 608.004 418.629 607.566 417.59C607.147 416.551 606.5 415.712 605.625 415.074C604.75 414.436 603.583 414.117 602.125 414.117C601.031 414.117 600.056 414.354 599.199 414.828C598.361 415.284 597.659 415.949 597.094 416.824C596.529 417.699 596.091 418.757 595.781 419.996C595.49 421.217 595.344 422.594 595.344 424.125V425.219C595.344 426.513 595.517 427.716 595.863 428.828C596.228 429.922 596.757 430.879 597.449 431.699C598.142 432.52 598.98 433.167 599.965 433.641C600.949 434.096 602.07 434.324 603.328 434.324C604.914 434.324 606.327 434.005 607.566 433.367C608.806 432.729 609.882 431.827 610.793 430.66L614.266 434.023C613.628 434.953 612.798 435.846 611.777 436.703C610.757 437.542 609.508 438.225 608.031 438.754C606.573 439.283 604.878 439.547 602.945 439.547ZM626.98 409.414V439H620.363V409.414H626.98ZM619.926 401.648C619.926 400.646 620.254 399.816 620.91 399.16C621.585 398.486 622.514 398.148 623.699 398.148C624.866 398.148 625.786 398.486 626.461 399.16C627.135 399.816 627.473 400.646 627.473 401.648C627.473 402.633 627.135 403.453 626.461 404.109C625.786 404.766 624.866 405.094 623.699 405.094C622.514 405.094 621.585 404.766 620.91 404.109C620.254 403.453 619.926 402.633 619.926 401.648ZM653.148 409.414H659.137V438.18C659.137 440.841 658.572 443.102 657.441 444.961C656.311 446.82 654.734 448.233 652.711 449.199C650.688 450.184 648.345 450.676 645.684 450.676C644.553 450.676 643.296 450.512 641.91 450.184C640.543 449.855 639.212 449.327 637.918 448.598C636.642 447.887 635.576 446.948 634.719 445.781L637.809 441.898C638.866 443.156 640.033 444.077 641.309 444.66C642.585 445.243 643.924 445.535 645.328 445.535C646.841 445.535 648.126 445.253 649.184 444.688C650.259 444.141 651.089 443.329 651.672 442.254C652.255 441.178 652.547 439.866 652.547 438.316V416.113L653.148 409.414ZM633.051 424.535V423.961C633.051 421.719 633.324 419.677 633.871 417.836C634.418 415.977 635.202 414.382 636.223 413.051C637.243 411.702 638.483 410.672 639.941 409.961C641.4 409.232 643.049 408.867 644.891 408.867C646.805 408.867 648.436 409.214 649.785 409.906C651.152 410.599 652.292 411.592 653.203 412.887C654.115 414.163 654.826 415.694 655.336 417.48C655.865 419.249 656.257 421.217 656.512 423.387V425.219C656.275 427.333 655.874 429.266 655.309 431.016C654.743 432.766 653.996 434.279 653.066 435.555C652.137 436.831 650.988 437.815 649.621 438.508C648.272 439.201 646.677 439.547 644.836 439.547C643.031 439.547 641.4 439.173 639.941 438.426C638.501 437.678 637.262 436.63 636.223 435.281C635.202 433.932 634.418 432.346 633.871 430.523C633.324 428.682 633.051 426.686 633.051 424.535ZM639.641 423.961V424.535C639.641 425.884 639.768 427.142 640.023 428.309C640.297 429.475 640.707 430.505 641.254 431.398C641.819 432.273 642.53 432.966 643.387 433.477C644.262 433.969 645.292 434.215 646.477 434.215C648.026 434.215 649.293 433.887 650.277 433.23C651.28 432.574 652.046 431.69 652.574 430.578C653.121 429.448 653.504 428.19 653.723 426.805V421.855C653.613 420.78 653.385 419.777 653.039 418.848C652.711 417.918 652.264 417.107 651.699 416.414C651.134 415.703 650.423 415.156 649.566 414.773C648.71 414.372 647.698 414.172 646.531 414.172C645.346 414.172 644.316 414.427 643.441 414.938C642.566 415.448 641.846 416.15 641.281 417.043C640.734 417.936 640.324 418.975 640.051 420.16C639.777 421.345 639.641 422.612 639.641 423.961ZM672.508 415.73V439H665.918V409.414H672.125L672.508 415.73ZM671.332 423.113L669.199 423.086C669.217 420.99 669.509 419.066 670.074 417.316C670.658 415.566 671.46 414.062 672.48 412.805C673.52 411.547 674.759 410.581 676.199 409.906C677.639 409.214 679.243 408.867 681.012 408.867C682.434 408.867 683.719 409.068 684.867 409.469C686.034 409.852 687.027 410.48 687.848 411.355C688.686 412.23 689.324 413.37 689.762 414.773C690.199 416.159 690.418 417.863 690.418 419.887V439H683.801V419.859C683.801 418.438 683.591 417.316 683.172 416.496C682.771 415.658 682.178 415.065 681.395 414.719C680.629 414.354 679.672 414.172 678.523 414.172C677.393 414.172 676.382 414.409 675.488 414.883C674.595 415.357 673.839 416.004 673.219 416.824C672.617 417.645 672.152 418.592 671.824 419.668C671.496 420.743 671.332 421.892 671.332 423.113ZM393.848 505H385.344L385.398 499.559H393.848C396.309 499.559 398.368 499.021 400.027 497.945C401.704 496.87 402.962 495.329 403.801 493.324C404.658 491.319 405.086 488.931 405.086 486.16V484C405.086 481.849 404.84 479.944 404.348 478.285C403.874 476.626 403.163 475.232 402.215 474.102C401.285 472.971 400.137 472.115 398.77 471.531C397.421 470.948 395.862 470.656 394.094 470.656H385.18V465.188H394.094C396.737 465.188 399.152 465.634 401.34 466.527C403.527 467.402 405.414 468.669 407 470.328C408.604 471.987 409.835 473.974 410.691 476.289C411.548 478.604 411.977 481.193 411.977 484.055V486.16C411.977 489.022 411.548 491.611 410.691 493.926C409.835 496.241 408.604 498.228 407 499.887C405.396 501.527 403.482 502.794 401.258 503.688C399.052 504.562 396.582 505 393.848 505ZM389.145 465.188V505H382.281V465.188H389.145ZM425.266 475.414V505H418.648V475.414H425.266ZM418.211 467.648C418.211 466.646 418.539 465.816 419.195 465.16C419.87 464.486 420.799 464.148 421.984 464.148C423.151 464.148 424.072 464.486 424.746 465.16C425.421 465.816 425.758 466.646 425.758 467.648C425.758 468.633 425.421 469.453 424.746 470.109C424.072 470.766 423.151 471.094 421.984 471.094C420.799 471.094 419.87 470.766 419.195 470.109C418.539 469.453 418.211 468.633 418.211 467.648ZM439.102 481.047V505H432.512V475.414H438.801L439.102 481.047ZM448.152 475.223L448.098 481.348C447.697 481.275 447.259 481.22 446.785 481.184C446.329 481.147 445.874 481.129 445.418 481.129C444.288 481.129 443.294 481.293 442.438 481.621C441.581 481.931 440.861 482.387 440.277 482.988C439.712 483.572 439.275 484.283 438.965 485.121C438.655 485.96 438.473 486.898 438.418 487.938L436.914 488.047C436.914 486.188 437.096 484.465 437.461 482.879C437.826 481.293 438.372 479.898 439.102 478.695C439.849 477.492 440.779 476.553 441.891 475.879C443.021 475.204 444.324 474.867 445.801 474.867C446.202 474.867 446.63 474.904 447.086 474.977C447.56 475.049 447.915 475.132 448.152 475.223ZM464.777 505.547C462.59 505.547 460.612 505.191 458.844 504.48C457.094 503.751 455.599 502.74 454.359 501.445C453.138 500.151 452.199 498.629 451.543 496.879C450.887 495.129 450.559 493.242 450.559 491.219V490.125C450.559 487.81 450.896 485.714 451.57 483.836C452.245 481.958 453.184 480.354 454.387 479.023C455.59 477.674 457.012 476.645 458.652 475.934C460.293 475.223 462.07 474.867 463.984 474.867C466.099 474.867 467.949 475.223 469.535 475.934C471.121 476.645 472.434 477.647 473.473 478.941C474.53 480.217 475.314 481.74 475.824 483.508C476.353 485.276 476.617 487.227 476.617 489.359V492.176H453.758V487.445H470.109V486.926C470.073 485.741 469.836 484.629 469.398 483.59C468.979 482.551 468.332 481.712 467.457 481.074C466.582 480.436 465.415 480.117 463.957 480.117C462.863 480.117 461.888 480.354 461.031 480.828C460.193 481.284 459.491 481.949 458.926 482.824C458.361 483.699 457.923 484.757 457.613 485.996C457.322 487.217 457.176 488.594 457.176 490.125V491.219C457.176 492.513 457.349 493.716 457.695 494.828C458.06 495.922 458.589 496.879 459.281 497.699C459.974 498.52 460.812 499.167 461.797 499.641C462.781 500.096 463.902 500.324 465.16 500.324C466.746 500.324 468.159 500.005 469.398 499.367C470.638 498.729 471.714 497.827 472.625 496.66L476.098 500.023C475.46 500.953 474.63 501.846 473.609 502.703C472.589 503.542 471.34 504.225 469.863 504.754C468.405 505.283 466.71 505.547 464.777 505.547ZM493.844 500.297C494.919 500.297 495.885 500.087 496.742 499.668C497.617 499.23 498.319 498.629 498.848 497.863C499.395 497.098 499.695 496.214 499.75 495.211H505.957C505.921 497.125 505.355 498.866 504.262 500.434C503.168 502.001 501.719 503.25 499.914 504.18C498.109 505.091 496.113 505.547 493.926 505.547C491.665 505.547 489.697 505.164 488.02 504.398C486.342 503.615 484.948 502.539 483.836 501.172C482.724 499.805 481.885 498.228 481.32 496.441C480.773 494.655 480.5 492.741 480.5 490.699V489.742C480.5 487.701 480.773 485.786 481.32 484C481.885 482.195 482.724 480.609 483.836 479.242C484.948 477.875 486.342 476.809 488.02 476.043C489.697 475.259 491.656 474.867 493.898 474.867C496.268 474.867 498.346 475.341 500.133 476.289C501.919 477.219 503.323 478.522 504.344 480.199C505.383 481.858 505.921 483.79 505.957 485.996H499.75C499.695 484.902 499.422 483.918 498.93 483.043C498.456 482.15 497.781 481.439 496.906 480.91C496.049 480.382 495.02 480.117 493.816 480.117C492.486 480.117 491.383 480.391 490.508 480.938C489.633 481.466 488.949 482.195 488.457 483.125C487.965 484.036 487.609 485.066 487.391 486.215C487.19 487.345 487.09 488.521 487.09 489.742V490.699C487.09 491.921 487.19 493.105 487.391 494.254C487.591 495.402 487.938 496.432 488.43 497.344C488.94 498.237 489.633 498.957 490.508 499.504C491.383 500.033 492.495 500.297 493.844 500.297ZM524.578 475.414V480.227H507.898V475.414H524.578ZM512.711 468.168H519.301V496.824C519.301 497.736 519.428 498.438 519.684 498.93C519.957 499.404 520.331 499.723 520.805 499.887C521.279 500.051 521.835 500.133 522.473 500.133C522.928 500.133 523.366 500.105 523.785 500.051C524.204 499.996 524.542 499.941 524.797 499.887L524.824 504.918C524.277 505.082 523.639 505.228 522.91 505.355C522.199 505.483 521.379 505.547 520.449 505.547C518.936 505.547 517.596 505.283 516.43 504.754C515.263 504.207 514.352 503.323 513.695 502.102C513.039 500.88 512.711 499.258 512.711 497.234V468.168ZM551.594 465.188V505H544.73V465.188H551.594ZM566.004 481.73V505H559.414V475.414H565.621L566.004 481.73ZM564.828 489.113L562.695 489.086C562.714 486.99 563.005 485.066 563.57 483.316C564.154 481.566 564.956 480.062 565.977 478.805C567.016 477.547 568.255 476.581 569.695 475.906C571.135 475.214 572.74 474.867 574.508 474.867C575.93 474.867 577.215 475.068 578.363 475.469C579.53 475.852 580.523 476.48 581.344 477.355C582.182 478.23 582.82 479.37 583.258 480.773C583.695 482.159 583.914 483.863 583.914 485.887V505H577.297V485.859C577.297 484.438 577.087 483.316 576.668 482.496C576.267 481.658 575.674 481.065 574.891 480.719C574.125 480.354 573.168 480.172 572.02 480.172C570.889 480.172 569.878 480.409 568.984 480.883C568.091 481.357 567.335 482.004 566.715 482.824C566.113 483.645 565.648 484.592 565.32 485.668C564.992 486.743 564.828 487.892 564.828 489.113ZM600.266 499.777L607.512 475.414H614.348L604.066 505H599.801L600.266 499.777ZM594.715 475.414L602.098 499.887L602.453 505H598.188L587.852 475.414H594.715ZM631.082 505.547C628.895 505.547 626.917 505.191 625.148 504.48C623.398 503.751 621.904 502.74 620.664 501.445C619.443 500.151 618.504 498.629 617.848 496.879C617.191 495.129 616.863 493.242 616.863 491.219V490.125C616.863 487.81 617.201 485.714 617.875 483.836C618.549 481.958 619.488 480.354 620.691 479.023C621.895 477.674 623.316 476.645 624.957 475.934C626.598 475.223 628.375 474.867 630.289 474.867C632.404 474.867 634.254 475.223 635.84 475.934C637.426 476.645 638.738 477.647 639.777 478.941C640.835 480.217 641.618 481.74 642.129 483.508C642.658 485.276 642.922 487.227 642.922 489.359V492.176H620.062V487.445H636.414V486.926C636.378 485.741 636.141 484.629 635.703 483.59C635.284 482.551 634.637 481.712 633.762 481.074C632.887 480.436 631.72 480.117 630.262 480.117C629.168 480.117 628.193 480.354 627.336 480.828C626.497 481.284 625.796 481.949 625.23 482.824C624.665 483.699 624.228 484.757 623.918 485.996C623.626 487.217 623.48 488.594 623.48 490.125V491.219C623.48 492.513 623.654 493.716 624 494.828C624.365 495.922 624.893 496.879 625.586 497.699C626.279 498.52 627.117 499.167 628.102 499.641C629.086 500.096 630.207 500.324 631.465 500.324C633.051 500.324 634.464 500.005 635.703 499.367C636.943 498.729 638.018 497.827 638.93 496.66L642.402 500.023C641.764 500.953 640.935 501.846 639.914 502.703C638.893 503.542 637.645 504.225 636.168 504.754C634.71 505.283 633.014 505.547 631.082 505.547ZM664.66 496.988C664.66 496.332 664.496 495.74 664.168 495.211C663.84 494.664 663.211 494.172 662.281 493.734C661.37 493.297 660.021 492.896 658.234 492.531C656.667 492.185 655.227 491.775 653.914 491.301C652.62 490.809 651.508 490.216 650.578 489.523C649.648 488.831 648.928 488.01 648.418 487.062C647.908 486.115 647.652 485.021 647.652 483.781C647.652 482.578 647.917 481.439 648.445 480.363C648.974 479.288 649.73 478.34 650.715 477.52C651.699 476.699 652.893 476.052 654.297 475.578C655.719 475.104 657.305 474.867 659.055 474.867C661.534 474.867 663.658 475.286 665.426 476.125C667.212 476.945 668.579 478.066 669.527 479.488C670.475 480.892 670.949 482.478 670.949 484.246H664.359C664.359 483.462 664.159 482.733 663.758 482.059C663.375 481.366 662.792 480.81 662.008 480.391C661.224 479.953 660.24 479.734 659.055 479.734C657.924 479.734 656.986 479.917 656.238 480.281C655.509 480.628 654.962 481.083 654.598 481.648C654.251 482.214 654.078 482.833 654.078 483.508C654.078 484 654.169 484.447 654.352 484.848C654.552 485.23 654.88 485.586 655.336 485.914C655.792 486.224 656.411 486.516 657.195 486.789C657.997 487.062 659 487.327 660.203 487.582C662.464 488.056 664.405 488.667 666.027 489.414C667.668 490.143 668.926 491.091 669.801 492.258C670.676 493.406 671.113 494.865 671.113 496.633C671.113 497.945 670.831 499.148 670.266 500.242C669.719 501.318 668.917 502.257 667.859 503.059C666.802 503.842 665.535 504.453 664.059 504.891C662.6 505.328 660.96 505.547 659.137 505.547C656.457 505.547 654.188 505.073 652.328 504.125C650.469 503.159 649.056 501.928 648.09 500.434C647.142 498.921 646.668 497.353 646.668 495.73H653.039C653.112 496.952 653.449 497.927 654.051 498.656C654.671 499.367 655.436 499.887 656.348 500.215C657.277 500.525 658.234 500.68 659.219 500.68C660.404 500.68 661.397 500.525 662.199 500.215C663.001 499.887 663.612 499.449 664.031 498.902C664.451 498.337 664.66 497.699 664.66 496.988ZM690.445 475.414V480.227H673.766V475.414H690.445ZM678.578 468.168H685.168V496.824C685.168 497.736 685.296 498.438 685.551 498.93C685.824 499.404 686.198 499.723 686.672 499.887C687.146 500.051 687.702 500.133 688.34 500.133C688.796 500.133 689.233 500.105 689.652 500.051C690.072 499.996 690.409 499.941 690.664 499.887L690.691 504.918C690.145 505.082 689.507 505.228 688.777 505.355C688.066 505.483 687.246 505.547 686.316 505.547C684.803 505.547 683.464 505.283 682.297 504.754C681.13 504.207 680.219 503.323 679.562 502.102C678.906 500.88 678.578 499.258 678.578 497.234V468.168ZM702.121 481.43V505H695.531V475.414H701.738L702.121 481.43ZM701.055 489.113L698.812 489.086C698.812 487.044 699.068 485.158 699.578 483.426C700.089 481.694 700.836 480.19 701.82 478.914C702.805 477.62 704.026 476.626 705.484 475.934C706.961 475.223 708.665 474.867 710.598 474.867C711.947 474.867 713.177 475.068 714.289 475.469C715.419 475.852 716.395 476.462 717.215 477.301C718.053 478.139 718.691 479.215 719.129 480.527C719.585 481.84 719.812 483.426 719.812 485.285V505H713.223V485.859C713.223 484.419 713.004 483.289 712.566 482.469C712.147 481.648 711.536 481.065 710.734 480.719C709.951 480.354 709.012 480.172 707.918 480.172C706.678 480.172 705.621 480.409 704.746 480.883C703.889 481.357 703.188 482.004 702.641 482.824C702.094 483.645 701.693 484.592 701.438 485.668C701.182 486.743 701.055 487.892 701.055 489.113ZM719.402 487.363L716.312 488.047C716.312 486.26 716.559 484.574 717.051 482.988C717.561 481.384 718.299 479.98 719.266 478.777C720.25 477.556 721.462 476.599 722.902 475.906C724.342 475.214 725.992 474.867 727.852 474.867C729.365 474.867 730.714 475.077 731.898 475.496C733.102 475.897 734.122 476.535 734.961 477.41C735.799 478.285 736.438 479.424 736.875 480.828C737.312 482.214 737.531 483.891 737.531 485.859V505H730.914V485.832C730.914 484.337 730.695 483.18 730.258 482.359C729.839 481.539 729.237 480.974 728.453 480.664C727.669 480.336 726.73 480.172 725.637 480.172C724.616 480.172 723.714 480.363 722.93 480.746C722.164 481.111 721.517 481.63 720.988 482.305C720.46 482.961 720.059 483.717 719.785 484.574C719.53 485.431 719.402 486.361 719.402 487.363ZM757.355 505.547C755.168 505.547 753.19 505.191 751.422 504.48C749.672 503.751 748.177 502.74 746.938 501.445C745.716 500.151 744.777 498.629 744.121 496.879C743.465 495.129 743.137 493.242 743.137 491.219V490.125C743.137 487.81 743.474 485.714 744.148 483.836C744.823 481.958 745.762 480.354 746.965 479.023C748.168 477.674 749.59 476.645 751.23 475.934C752.871 475.223 754.648 474.867 756.562 474.867C758.677 474.867 760.527 475.223 762.113 475.934C763.699 476.645 765.012 477.647 766.051 478.941C767.108 480.217 767.892 481.74 768.402 483.508C768.931 485.276 769.195 487.227 769.195 489.359V492.176H746.336V487.445H762.688V486.926C762.651 485.741 762.414 484.629 761.977 483.59C761.557 482.551 760.91 481.712 760.035 481.074C759.16 480.436 757.993 480.117 756.535 480.117C755.441 480.117 754.466 480.354 753.609 480.828C752.771 481.284 752.069 481.949 751.504 482.824C750.939 483.699 750.501 484.757 750.191 485.996C749.9 487.217 749.754 488.594 749.754 490.125V491.219C749.754 492.513 749.927 493.716 750.273 494.828C750.638 495.922 751.167 496.879 751.859 497.699C752.552 498.52 753.391 499.167 754.375 499.641C755.359 500.096 756.48 500.324 757.738 500.324C759.324 500.324 760.737 500.005 761.977 499.367C763.216 498.729 764.292 497.827 765.203 496.66L768.676 500.023C768.038 500.953 767.208 501.846 766.188 502.703C765.167 503.542 763.918 504.225 762.441 504.754C760.983 505.283 759.288 505.547 757.355 505.547ZM780.871 481.73V505H774.281V475.414H780.488L780.871 481.73ZM779.695 489.113L777.562 489.086C777.581 486.99 777.872 485.066 778.438 483.316C779.021 481.566 779.823 480.062 780.844 478.805C781.883 477.547 783.122 476.581 784.562 475.906C786.003 475.214 787.607 474.867 789.375 474.867C790.797 474.867 792.082 475.068 793.23 475.469C794.397 475.852 795.391 476.48 796.211 477.355C797.049 478.23 797.688 479.37 798.125 480.773C798.562 482.159 798.781 483.863 798.781 485.887V505H792.164V485.859C792.164 484.438 791.954 483.316 791.535 482.496C791.134 481.658 790.542 481.065 789.758 480.719C788.992 480.354 788.035 480.172 786.887 480.172C785.757 480.172 784.745 480.409 783.852 480.883C782.958 481.357 782.202 482.004 781.582 482.824C780.98 483.645 780.516 484.592 780.188 485.668C779.859 486.743 779.695 487.892 779.695 489.113ZM819.07 475.414V480.227H802.391V475.414H819.07ZM807.203 468.168H813.793V496.824C813.793 497.736 813.921 498.438 814.176 498.93C814.449 499.404 814.823 499.723 815.297 499.887C815.771 500.051 816.327 500.133 816.965 500.133C817.421 500.133 817.858 500.105 818.277 500.051C818.697 499.996 819.034 499.941 819.289 499.887L819.316 504.918C818.77 505.082 818.132 505.228 817.402 505.355C816.691 505.483 815.871 505.547 814.941 505.547C813.428 505.547 812.089 505.283 810.922 504.754C809.755 504.207 808.844 503.323 808.188 502.102C807.531 500.88 807.203 499.258 807.203 497.234V468.168Z" fill="#1C4670"/>
<path d="M215.503 311H95.911L77.0938 331.143V403.544C77.0938 446.287 111.698 480.95 154.445 480.95C196.535 480.95 231.514 446.996 231.514 403.544V331.143L215.503 311Z" fill="url(#paint0_linear_608_34)"/>
<path d="M135.703 424.625C129.896 424.625 125.404 422.997 122.227 419.742C119.076 416.487 117.5 411.799 117.5 405.68V374.664C117.5 368.206 118.997 363.258 121.992 359.82C125.013 356.357 129.583 354.625 135.703 354.625C141.849 354.625 146.419 356.357 149.414 359.82C152.409 363.258 153.906 368.206 153.906 374.664V405.68C153.906 411.799 152.331 416.487 149.18 419.742C146.029 422.997 141.536 424.625 135.703 424.625ZM135.703 411.969C136.771 411.969 137.604 411.487 138.203 410.523C138.802 409.56 139.102 408.479 139.102 407.281V373.336C139.102 371.721 138.919 370.315 138.555 369.117C138.216 367.893 137.266 367.281 135.703 367.281C134.141 367.281 133.177 367.893 132.812 369.117C132.474 370.315 132.305 371.721 132.305 373.336V407.281C132.305 408.479 132.604 409.56 133.203 410.523C133.828 411.487 134.661 411.969 135.703 411.969ZM157.891 424V420.719C157.891 417.307 158.411 414.247 159.453 411.539C160.521 408.805 161.888 406.279 163.555 403.961C165.221 401.617 166.979 399.326 168.828 397.086C170.625 394.898 172.331 392.659 173.945 390.367C175.586 388.049 176.914 385.549 177.93 382.867C178.971 380.159 179.492 377.125 179.492 373.766C179.492 372.151 179.245 370.771 178.75 369.625C178.281 368.453 177.292 367.867 175.781 367.867C173.49 367.867 172.344 369.911 172.344 374V382.398H157.891C157.865 381.799 157.826 381.122 157.773 380.367C157.747 379.612 157.734 378.883 157.734 378.18C157.734 373.232 158.255 369.039 159.297 365.602C160.339 362.138 162.174 359.508 164.805 357.711C167.461 355.888 171.185 354.977 175.977 354.977C181.68 354.977 186.107 356.578 189.258 359.781C192.435 362.984 194.023 367.555 194.023 373.492C194.023 377.529 193.503 381.07 192.461 384.117C191.419 387.138 190.039 389.898 188.32 392.398C186.602 394.872 184.714 397.346 182.656 399.82C181.198 401.565 179.779 403.349 178.398 405.172C177.044 406.995 175.846 408.948 174.805 411.031H193.555V424H157.891Z" fill="white"/>
<path d="M248.586 311H60.0938L77.1222 335.349H231.543L248.586 311Z" fill="url(#paint1_linear_608_34)"/>
<path d="M60.0625 311C50.5014 311 43.0156 318.754 43.0156 328.319V335.349H77.1093V328.319C77.1093 318.754 69.6272 311 60.0625 311Z" fill="url(#paint2_linear_608_34)"/>
<path d="M248.562 311C258.131 311 265.617 318.754 265.617 328.319V335.349H231.516V328.319C231.516 318.754 238.998 311 248.562 311Z" fill="url(#paint3_linear_608_34)"/>
<g filter="url(#filter1_d_608_34)">
<path fill-rule="evenodd" clip-rule="evenodd" d="M954.959 46C977.066 46 994.981 63.9339 994.959 86.0414L994.799 240.146C994.776 262.221 976.874 280.105 954.799 280.105H827.055H83C60.9086 280.105 43 262.196 43 240.105V86C43 63.9086 60.9086 46 83 46H954.959Z" fill="white"/>
</g>
<path d="M354.266 142.188V182H347.402V142.188H354.266ZM370.508 159.605V165.047H352.516V159.605H370.508ZM372.777 142.188V147.656H352.516V142.188H372.777ZM384.645 140V182H378.027V140H384.645ZM404.906 182.547C402.719 182.547 400.741 182.191 398.973 181.48C397.223 180.751 395.728 179.74 394.488 178.445C393.267 177.151 392.328 175.629 391.672 173.879C391.016 172.129 390.688 170.242 390.688 168.219V167.125C390.688 164.81 391.025 162.714 391.699 160.836C392.374 158.958 393.312 157.354 394.516 156.023C395.719 154.674 397.141 153.645 398.781 152.934C400.422 152.223 402.199 151.867 404.113 151.867C406.228 151.867 408.078 152.223 409.664 152.934C411.25 153.645 412.562 154.647 413.602 155.941C414.659 157.217 415.443 158.74 415.953 160.508C416.482 162.276 416.746 164.227 416.746 166.359V169.176H393.887V164.445H410.238V163.926C410.202 162.741 409.965 161.629 409.527 160.59C409.108 159.551 408.461 158.712 407.586 158.074C406.711 157.436 405.544 157.117 404.086 157.117C402.992 157.117 402.017 157.354 401.16 157.828C400.322 158.284 399.62 158.949 399.055 159.824C398.49 160.699 398.052 161.757 397.742 162.996C397.451 164.217 397.305 165.594 397.305 167.125V168.219C397.305 169.513 397.478 170.716 397.824 171.828C398.189 172.922 398.717 173.879 399.41 174.699C400.103 175.52 400.941 176.167 401.926 176.641C402.91 177.096 404.031 177.324 405.289 177.324C406.875 177.324 408.288 177.005 409.527 176.367C410.767 175.729 411.842 174.827 412.754 173.66L416.227 177.023C415.589 177.953 414.759 178.846 413.738 179.703C412.717 180.542 411.469 181.225 409.992 181.754C408.534 182.283 406.839 182.547 404.906 182.547ZM426.918 152.414L432.551 162.23L438.293 152.414H445.539L436.57 166.934L445.895 182H438.648L432.633 171.773L426.617 182H419.344L428.641 166.934L419.699 152.414H426.918ZM457.105 152.414V182H450.488V152.414H457.105ZM450.051 144.648C450.051 143.646 450.379 142.816 451.035 142.16C451.71 141.486 452.639 141.148 453.824 141.148C454.991 141.148 455.911 141.486 456.586 142.16C457.26 142.816 457.598 143.646 457.598 144.648C457.598 145.633 457.26 146.453 456.586 147.109C455.911 147.766 454.991 148.094 453.824 148.094C452.639 148.094 451.71 147.766 451.035 147.109C450.379 146.453 450.051 145.633 450.051 144.648ZM464.352 140H470.941V175.684L470.312 182H464.352V140ZM490.246 166.934V167.508C490.246 169.695 490 171.71 489.508 173.551C489.034 175.374 488.305 176.96 487.32 178.309C486.354 179.658 485.151 180.706 483.711 181.453C482.289 182.182 480.639 182.547 478.762 182.547C476.921 182.547 475.316 182.201 473.949 181.508C472.582 180.815 471.434 179.831 470.504 178.555C469.592 177.279 468.854 175.757 468.289 173.988C467.724 172.22 467.323 170.27 467.086 168.137V166.305C467.323 164.154 467.724 162.203 468.289 160.453C468.854 158.685 469.592 157.163 470.504 155.887C471.434 154.592 472.573 153.599 473.922 152.906C475.289 152.214 476.884 151.867 478.707 151.867C480.603 151.867 482.271 152.232 483.711 152.961C485.169 153.69 486.382 154.729 487.348 156.078C488.314 157.409 489.034 158.995 489.508 160.836C490 162.677 490.246 164.71 490.246 166.934ZM483.656 167.508V166.934C483.656 165.603 483.547 164.354 483.328 163.188C483.109 162.003 482.745 160.964 482.234 160.07C481.742 159.177 481.068 158.475 480.211 157.965C479.372 157.436 478.324 157.172 477.066 157.172C475.9 157.172 474.897 157.372 474.059 157.773C473.22 158.174 472.518 158.721 471.953 159.414C471.388 160.107 470.941 160.909 470.613 161.82C470.303 162.732 470.094 163.716 469.984 164.773V169.723C470.148 171.09 470.495 172.348 471.023 173.496C471.57 174.626 472.336 175.538 473.32 176.23C474.305 176.905 475.572 177.242 477.121 177.242C478.342 177.242 479.372 176.996 480.211 176.504C481.049 176.012 481.715 175.328 482.207 174.453C482.717 173.56 483.082 172.521 483.301 171.336C483.538 170.151 483.656 168.875 483.656 167.508ZM502.879 140V182H496.262V140H502.879ZM523.141 182.547C520.953 182.547 518.975 182.191 517.207 181.48C515.457 180.751 513.962 179.74 512.723 178.445C511.501 177.151 510.562 175.629 509.906 173.879C509.25 172.129 508.922 170.242 508.922 168.219V167.125C508.922 164.81 509.259 162.714 509.934 160.836C510.608 158.958 511.547 157.354 512.75 156.023C513.953 154.674 515.375 153.645 517.016 152.934C518.656 152.223 520.434 151.867 522.348 151.867C524.462 151.867 526.312 152.223 527.898 152.934C529.484 153.645 530.797 154.647 531.836 155.941C532.893 157.217 533.677 158.74 534.188 160.508C534.716 162.276 534.98 164.227 534.98 166.359V169.176H512.121V164.445H528.473V163.926C528.436 162.741 528.199 161.629 527.762 160.59C527.342 159.551 526.695 158.712 525.82 158.074C524.945 157.436 523.779 157.117 522.32 157.117C521.227 157.117 520.251 157.354 519.395 157.828C518.556 158.284 517.854 158.949 517.289 159.824C516.724 160.699 516.286 161.757 515.977 162.996C515.685 164.217 515.539 165.594 515.539 167.125V168.219C515.539 169.513 515.712 170.716 516.059 171.828C516.423 172.922 516.952 173.879 517.645 174.699C518.337 175.52 519.176 176.167 520.16 176.641C521.145 177.096 522.266 177.324 523.523 177.324C525.109 177.324 526.522 177.005 527.762 176.367C529.001 175.729 530.077 174.827 530.988 173.66L534.461 177.023C533.823 177.953 532.993 178.846 531.973 179.703C530.952 180.542 529.703 181.225 528.227 181.754C526.768 182.283 525.073 182.547 523.141 182.547ZM557.512 142.188H563.637L575.148 172.895L586.633 142.188H592.758L577.555 182H572.688L557.512 142.188ZM554.723 142.188H560.547L561.559 168.766V182H554.723V142.188ZM589.723 142.188H595.574V182H588.711V168.766L589.723 142.188ZM619.746 176.066V161.957C619.746 160.9 619.555 159.988 619.172 159.223C618.789 158.457 618.206 157.865 617.422 157.445C616.656 157.026 615.69 156.816 614.523 156.816C613.448 156.816 612.518 156.999 611.734 157.363C610.951 157.728 610.34 158.22 609.902 158.84C609.465 159.46 609.246 160.161 609.246 160.945H602.684C602.684 159.779 602.966 158.648 603.531 157.555C604.096 156.461 604.917 155.486 605.992 154.629C607.068 153.772 608.353 153.098 609.848 152.605C611.342 152.113 613.02 151.867 614.879 151.867C617.103 151.867 619.072 152.241 620.785 152.988C622.517 153.736 623.875 154.866 624.859 156.379C625.862 157.874 626.363 159.751 626.363 162.012V175.164C626.363 176.513 626.454 177.725 626.637 178.801C626.837 179.858 627.12 180.779 627.484 181.562V182H620.73C620.421 181.289 620.174 180.387 619.992 179.293C619.828 178.181 619.746 177.105 619.746 176.066ZM620.703 164.008L620.758 168.082H616.027C614.806 168.082 613.73 168.201 612.801 168.438C611.871 168.656 611.096 168.984 610.477 169.422C609.857 169.859 609.392 170.388 609.082 171.008C608.772 171.628 608.617 172.329 608.617 173.113C608.617 173.897 608.799 174.617 609.164 175.273C609.529 175.911 610.057 176.413 610.75 176.777C611.461 177.142 612.318 177.324 613.32 177.324C614.669 177.324 615.845 177.051 616.848 176.504C617.868 175.939 618.671 175.255 619.254 174.453C619.837 173.633 620.147 172.858 620.184 172.129L622.316 175.055C622.098 175.802 621.724 176.604 621.195 177.461C620.667 178.318 619.974 179.138 619.117 179.922C618.279 180.688 617.267 181.316 616.082 181.809C614.915 182.301 613.566 182.547 612.035 182.547C610.103 182.547 608.38 182.164 606.867 181.398C605.354 180.615 604.169 179.566 603.312 178.254C602.456 176.923 602.027 175.419 602.027 173.742C602.027 172.174 602.319 170.789 602.902 169.586C603.504 168.365 604.379 167.344 605.527 166.523C606.694 165.703 608.116 165.083 609.793 164.664C611.47 164.227 613.384 164.008 615.535 164.008H620.703ZM639.789 158.73V182H633.199V152.414H639.406L639.789 158.73ZM638.613 166.113L636.48 166.086C636.499 163.99 636.79 162.066 637.355 160.316C637.939 158.566 638.741 157.062 639.762 155.805C640.801 154.547 642.04 153.581 643.48 152.906C644.921 152.214 646.525 151.867 648.293 151.867C649.715 151.867 651 152.068 652.148 152.469C653.315 152.852 654.309 153.48 655.129 154.355C655.967 155.23 656.605 156.37 657.043 157.773C657.48 159.159 657.699 160.863 657.699 162.887V182H651.082V162.859C651.082 161.438 650.872 160.316 650.453 159.496C650.052 158.658 649.46 158.065 648.676 157.719C647.91 157.354 646.953 157.172 645.805 157.172C644.674 157.172 643.663 157.409 642.77 157.883C641.876 158.357 641.12 159.004 640.5 159.824C639.898 160.645 639.434 161.592 639.105 162.668C638.777 163.743 638.613 164.892 638.613 166.113ZM681.105 176.066V161.957C681.105 160.9 680.914 159.988 680.531 159.223C680.148 158.457 679.565 157.865 678.781 157.445C678.016 157.026 677.049 156.816 675.883 156.816C674.807 156.816 673.878 156.999 673.094 157.363C672.31 157.728 671.699 158.22 671.262 158.84C670.824 159.46 670.605 160.161 670.605 160.945H664.043C664.043 159.779 664.326 158.648 664.891 157.555C665.456 156.461 666.276 155.486 667.352 154.629C668.427 153.772 669.712 153.098 671.207 152.605C672.702 152.113 674.379 151.867 676.238 151.867C678.462 151.867 680.431 152.241 682.145 152.988C683.876 153.736 685.234 154.866 686.219 156.379C687.221 157.874 687.723 159.751 687.723 162.012V175.164C687.723 176.513 687.814 177.725 687.996 178.801C688.197 179.858 688.479 180.779 688.844 181.562V182H682.09C681.78 181.289 681.534 180.387 681.352 179.293C681.188 178.181 681.105 177.105 681.105 176.066ZM682.062 164.008L682.117 168.082H677.387C676.165 168.082 675.09 168.201 674.16 168.438C673.23 168.656 672.456 168.984 671.836 169.422C671.216 169.859 670.751 170.388 670.441 171.008C670.132 171.628 669.977 172.329 669.977 173.113C669.977 173.897 670.159 174.617 670.523 175.273C670.888 175.911 671.417 176.413 672.109 176.777C672.82 177.142 673.677 177.324 674.68 177.324C676.029 177.324 677.204 177.051 678.207 176.504C679.228 175.939 680.03 175.255 680.613 174.453C681.197 173.633 681.507 172.858 681.543 172.129L683.676 175.055C683.457 175.802 683.083 176.604 682.555 177.461C682.026 178.318 681.333 179.138 680.477 179.922C679.638 180.688 678.626 181.316 677.441 181.809C676.275 182.301 674.926 182.547 673.395 182.547C671.462 182.547 669.74 182.164 668.227 181.398C666.714 180.615 665.529 179.566 664.672 178.254C663.815 176.923 663.387 175.419 663.387 173.742C663.387 172.174 663.678 170.789 664.262 169.586C664.863 168.365 665.738 167.344 666.887 166.523C668.053 165.703 669.475 165.083 671.152 164.664C672.829 164.227 674.743 164.008 676.895 164.008H682.062ZM713.562 152.414H719.551V181.18C719.551 183.841 718.986 186.102 717.855 187.961C716.725 189.82 715.148 191.233 713.125 192.199C711.102 193.184 708.759 193.676 706.098 193.676C704.967 193.676 703.71 193.512 702.324 193.184C700.957 192.855 699.626 192.327 698.332 191.598C697.056 190.887 695.99 189.948 695.133 188.781L698.223 184.898C699.28 186.156 700.447 187.077 701.723 187.66C702.999 188.243 704.339 188.535 705.742 188.535C707.255 188.535 708.54 188.253 709.598 187.688C710.673 187.141 711.503 186.329 712.086 185.254C712.669 184.178 712.961 182.866 712.961 181.316V159.113L713.562 152.414ZM693.465 167.535V166.961C693.465 164.719 693.738 162.677 694.285 160.836C694.832 158.977 695.616 157.382 696.637 156.051C697.658 154.702 698.897 153.672 700.355 152.961C701.814 152.232 703.464 151.867 705.305 151.867C707.219 151.867 708.85 152.214 710.199 152.906C711.566 153.599 712.706 154.592 713.617 155.887C714.529 157.163 715.24 158.694 715.75 160.48C716.279 162.249 716.671 164.217 716.926 166.387V168.219C716.689 170.333 716.288 172.266 715.723 174.016C715.158 175.766 714.41 177.279 713.48 178.555C712.551 179.831 711.402 180.815 710.035 181.508C708.686 182.201 707.091 182.547 705.25 182.547C703.445 182.547 701.814 182.173 700.355 181.426C698.915 180.678 697.676 179.63 696.637 178.281C695.616 176.932 694.832 175.346 694.285 173.523C693.738 171.682 693.465 169.686 693.465 167.535ZM700.055 166.961V167.535C700.055 168.884 700.182 170.142 700.438 171.309C700.711 172.475 701.121 173.505 701.668 174.398C702.233 175.273 702.944 175.966 703.801 176.477C704.676 176.969 705.706 177.215 706.891 177.215C708.44 177.215 709.707 176.887 710.691 176.23C711.694 175.574 712.46 174.69 712.988 173.578C713.535 172.448 713.918 171.19 714.137 169.805V164.855C714.027 163.78 713.799 162.777 713.453 161.848C713.125 160.918 712.678 160.107 712.113 159.414C711.548 158.703 710.837 158.156 709.98 157.773C709.124 157.372 708.112 157.172 706.945 157.172C705.76 157.172 704.73 157.427 703.855 157.938C702.98 158.448 702.26 159.15 701.695 160.043C701.148 160.936 700.738 161.975 700.465 163.16C700.191 164.345 700.055 165.612 700.055 166.961ZM739.43 182.547C737.242 182.547 735.264 182.191 733.496 181.48C731.746 180.751 730.251 179.74 729.012 178.445C727.79 177.151 726.852 175.629 726.195 173.879C725.539 172.129 725.211 170.242 725.211 168.219V167.125C725.211 164.81 725.548 162.714 726.223 160.836C726.897 158.958 727.836 157.354 729.039 156.023C730.242 154.674 731.664 153.645 733.305 152.934C734.945 152.223 736.723 151.867 738.637 151.867C740.751 151.867 742.602 152.223 744.188 152.934C745.773 153.645 747.086 154.647 748.125 155.941C749.182 157.217 749.966 158.74 750.477 160.508C751.005 162.276 751.27 164.227 751.27 166.359V169.176H728.41V164.445H744.762V163.926C744.725 162.741 744.488 161.629 744.051 160.59C743.632 159.551 742.984 158.712 742.109 158.074C741.234 157.436 740.068 157.117 738.609 157.117C737.516 157.117 736.54 157.354 735.684 157.828C734.845 158.284 734.143 158.949 733.578 159.824C733.013 160.699 732.576 161.757 732.266 162.996C731.974 164.217 731.828 165.594 731.828 167.125V168.219C731.828 169.513 732.001 170.716 732.348 171.828C732.712 172.922 733.241 173.879 733.934 174.699C734.626 175.52 735.465 176.167 736.449 176.641C737.434 177.096 738.555 177.324 739.812 177.324C741.398 177.324 742.811 177.005 744.051 176.367C745.29 175.729 746.366 174.827 747.277 173.66L750.75 177.023C750.112 177.953 749.283 178.846 748.262 179.703C747.241 180.542 745.992 181.225 744.516 181.754C743.057 182.283 741.362 182.547 739.43 182.547ZM763 158.43V182H756.41V152.414H762.617L763 158.43ZM761.934 166.113L759.691 166.086C759.691 164.044 759.947 162.158 760.457 160.426C760.967 158.694 761.715 157.19 762.699 155.914C763.684 154.62 764.905 153.626 766.363 152.934C767.84 152.223 769.544 151.867 771.477 151.867C772.826 151.867 774.056 152.068 775.168 152.469C776.298 152.852 777.273 153.462 778.094 154.301C778.932 155.139 779.57 156.215 780.008 157.527C780.464 158.84 780.691 160.426 780.691 162.285V182H774.102V162.859C774.102 161.419 773.883 160.289 773.445 159.469C773.026 158.648 772.415 158.065 771.613 157.719C770.829 157.354 769.891 157.172 768.797 157.172C767.557 157.172 766.5 157.409 765.625 157.883C764.768 158.357 764.066 159.004 763.52 159.824C762.973 160.645 762.572 161.592 762.316 162.668C762.061 163.743 761.934 164.892 761.934 166.113ZM780.281 164.363L777.191 165.047C777.191 163.26 777.438 161.574 777.93 159.988C778.44 158.384 779.178 156.98 780.145 155.777C781.129 154.556 782.341 153.599 783.781 152.906C785.221 152.214 786.871 151.867 788.73 151.867C790.243 151.867 791.592 152.077 792.777 152.496C793.98 152.897 795.001 153.535 795.84 154.41C796.678 155.285 797.316 156.424 797.754 157.828C798.191 159.214 798.41 160.891 798.41 162.859V182H791.793V162.832C791.793 161.337 791.574 160.18 791.137 159.359C790.717 158.539 790.116 157.974 789.332 157.664C788.548 157.336 787.609 157.172 786.516 157.172C785.495 157.172 784.592 157.363 783.809 157.746C783.043 158.111 782.396 158.63 781.867 159.305C781.339 159.961 780.938 160.717 780.664 161.574C780.409 162.431 780.281 163.361 780.281 164.363ZM818.234 182.547C816.047 182.547 814.069 182.191 812.301 181.48C810.551 180.751 809.056 179.74 807.816 178.445C806.595 177.151 805.656 175.629 805 173.879C804.344 172.129 804.016 170.242 804.016 168.219V167.125C804.016 164.81 804.353 162.714 805.027 160.836C805.702 158.958 806.641 157.354 807.844 156.023C809.047 154.674 810.469 153.645 812.109 152.934C813.75 152.223 815.527 151.867 817.441 151.867C819.556 151.867 821.406 152.223 822.992 152.934C824.578 153.645 825.891 154.647 826.93 155.941C827.987 157.217 828.771 158.74 829.281 160.508C829.81 162.276 830.074 164.227 830.074 166.359V169.176H807.215V164.445H823.566V163.926C823.53 162.741 823.293 161.629 822.855 160.59C822.436 159.551 821.789 158.712 820.914 158.074C820.039 157.436 818.872 157.117 817.414 157.117C816.32 157.117 815.345 157.354 814.488 157.828C813.65 158.284 812.948 158.949 812.383 159.824C811.818 160.699 811.38 161.757 811.07 162.996C810.779 164.217 810.633 165.594 810.633 167.125V168.219C810.633 169.513 810.806 170.716 811.152 171.828C811.517 172.922 812.046 173.879 812.738 174.699C813.431 175.52 814.27 176.167 815.254 176.641C816.238 177.096 817.359 177.324 818.617 177.324C820.203 177.324 821.616 177.005 822.855 176.367C824.095 175.729 825.171 174.827 826.082 173.66L829.555 177.023C828.917 177.953 828.087 178.846 827.066 179.703C826.046 180.542 824.797 181.225 823.32 181.754C821.862 182.283 820.167 182.547 818.234 182.547ZM841.75 158.73V182H835.16V152.414H841.367L841.75 158.73ZM840.574 166.113L838.441 166.086C838.46 163.99 838.751 162.066 839.316 160.316C839.9 158.566 840.702 157.062 841.723 155.805C842.762 154.547 844.001 153.581 845.441 152.906C846.882 152.214 848.486 151.867 850.254 151.867C851.676 151.867 852.961 152.068 854.109 152.469C855.276 152.852 856.27 153.48 857.09 154.355C857.928 155.23 858.566 156.37 859.004 157.773C859.441 159.159 859.66 160.863 859.66 162.887V182H853.043V162.859C853.043 161.438 852.833 160.316 852.414 159.496C852.013 158.658 851.421 158.065 850.637 157.719C849.871 157.354 848.914 157.172 847.766 157.172C846.635 157.172 845.624 157.409 844.73 157.883C843.837 158.357 843.081 159.004 842.461 159.824C841.859 160.645 841.395 161.592 841.066 162.668C840.738 163.743 840.574 164.892 840.574 166.113ZM879.949 152.414V157.227H863.27V152.414H879.949ZM868.082 145.168H874.672V173.824C874.672 174.736 874.799 175.438 875.055 175.93C875.328 176.404 875.702 176.723 876.176 176.887C876.65 177.051 877.206 177.133 877.844 177.133C878.299 177.133 878.737 177.105 879.156 177.051C879.576 176.996 879.913 176.941 880.168 176.887L880.195 181.918C879.648 182.082 879.01 182.228 878.281 182.355C877.57 182.483 876.75 182.547 875.82 182.547C874.307 182.547 872.967 182.283 871.801 181.754C870.634 181.207 869.723 180.323 869.066 179.102C868.41 177.88 868.082 176.258 868.082 174.234V145.168Z" fill="#1C4670"/>
<path d="M215.511 22H95.9188L77.1016 42.1433V114.547C77.1016 157.295 111.706 191.954 154.453 191.954C196.543 191.954 231.522 157.996 231.522 114.547V42.1433L215.511 22Z" fill="url(#paint4_linear_608_34)"/>
<path d="M139.75 131.625C133.943 131.625 129.451 129.997 126.273 126.742C123.122 123.487 121.547 118.799 121.547 112.68V81.6641C121.547 75.2057 123.044 70.2578 126.039 66.8203C129.06 63.3568 133.63 61.625 139.75 61.625C145.896 61.625 150.466 63.3568 153.461 66.8203C156.456 70.2578 157.953 75.2057 157.953 81.6641V112.68C157.953 118.799 156.378 123.487 153.227 126.742C150.076 129.997 145.583 131.625 139.75 131.625ZM139.75 118.969C140.818 118.969 141.651 118.487 142.25 117.523C142.849 116.56 143.148 115.479 143.148 114.281V80.3359C143.148 78.7214 142.966 77.3151 142.602 76.1172C142.263 74.8932 141.312 74.2812 139.75 74.2812C138.188 74.2812 137.224 74.8932 136.859 76.1172C136.521 77.3151 136.352 78.7214 136.352 80.3359V114.281C136.352 115.479 136.651 116.56 137.25 117.523C137.875 118.487 138.708 118.969 139.75 118.969ZM169.008 131V78.0312C168.07 79.151 166.781 80.0625 165.141 80.7656C163.5 81.4427 161.951 81.7812 160.492 81.7812V70.8047C161.872 70.5964 163.357 70.1536 164.945 69.4766C166.534 68.7734 168.005 67.8229 169.359 66.625C170.74 65.401 171.794 63.9297 172.523 62.2109H183.578V131H169.008Z" fill="white"/>
<path d="M248.586 22H60.0938L77.1222 46.3489H231.543L248.586 22Z" fill="url(#paint5_linear_608_34)"/>
<path d="M60.0625 22C50.5014 22 43.0156 29.7539 43.0156 39.3223V46.3489H77.1093V39.3223C77.1093 29.7539 69.6272 22 60.0625 22Z" fill="url(#paint6_linear_608_34)"/>
<path d="M248.562 22C258.131 22 265.617 29.7539 265.617 39.3223V46.3489H231.516V39.3223C231.516 29.7539 238.998 22 248.562 22Z" fill="url(#paint7_linear_608_34)"/>
<g filter="url(#filter2_d_608_34)">
<path fill-rule="evenodd" clip-rule="evenodd" d="M954.959 912C977.066 912 994.981 929.934 994.959 952.041L994.799 1106.15C994.776 1128.22 976.874 1146.11 954.799 1146.11H827.055H83C60.9086 1146.11 43 1128.2 43 1106.11V952C43 929.909 60.9086 912 83 912H954.959Z" fill="white"/>
</g>
<path d="M480.074 1008.19V1048H473.266V1008.19H480.074ZM492.57 1008.19V1013.66H460.879V1008.19H492.57ZM510.18 1042.07V1027.96C510.18 1026.9 509.988 1025.99 509.605 1025.22C509.223 1024.46 508.639 1023.86 507.855 1023.45C507.09 1023.03 506.124 1022.82 504.957 1022.82C503.882 1022.82 502.952 1023 502.168 1023.36C501.384 1023.73 500.773 1024.22 500.336 1024.84C499.898 1025.46 499.68 1026.16 499.68 1026.95H493.117C493.117 1025.78 493.4 1024.65 493.965 1023.55C494.53 1022.46 495.35 1021.49 496.426 1020.63C497.501 1019.77 498.786 1019.1 500.281 1018.61C501.776 1018.11 503.453 1017.87 505.312 1017.87C507.536 1017.87 509.505 1018.24 511.219 1018.99C512.951 1019.74 514.309 1020.87 515.293 1022.38C516.296 1023.87 516.797 1025.75 516.797 1028.01V1041.16C516.797 1042.51 516.888 1043.73 517.07 1044.8C517.271 1045.86 517.553 1046.78 517.918 1047.56V1048H511.164C510.854 1047.29 510.608 1046.39 510.426 1045.29C510.262 1044.18 510.18 1043.11 510.18 1042.07ZM511.137 1030.01L511.191 1034.08H506.461C505.24 1034.08 504.164 1034.2 503.234 1034.44C502.305 1034.66 501.53 1034.98 500.91 1035.42C500.29 1035.86 499.826 1036.39 499.516 1037.01C499.206 1037.63 499.051 1038.33 499.051 1039.11C499.051 1039.9 499.233 1040.62 499.598 1041.27C499.962 1041.91 500.491 1042.41 501.184 1042.78C501.895 1043.14 502.751 1043.32 503.754 1043.32C505.103 1043.32 506.279 1043.05 507.281 1042.5C508.302 1041.94 509.104 1041.26 509.688 1040.45C510.271 1039.63 510.581 1038.86 510.617 1038.13L512.75 1041.05C512.531 1041.8 512.158 1042.6 511.629 1043.46C511.1 1044.32 510.408 1045.14 509.551 1045.92C508.712 1046.69 507.701 1047.32 506.516 1047.81C505.349 1048.3 504 1048.55 502.469 1048.55C500.536 1048.55 498.814 1048.16 497.301 1047.4C495.788 1046.61 494.603 1045.57 493.746 1044.25C492.889 1042.92 492.461 1041.42 492.461 1039.74C492.461 1038.17 492.753 1036.79 493.336 1035.59C493.938 1034.36 494.812 1033.34 495.961 1032.52C497.128 1031.7 498.549 1031.08 500.227 1030.66C501.904 1030.23 503.818 1030.01 505.969 1030.01H511.137ZM528.719 1018.41L534.352 1028.23L540.094 1018.41H547.34L538.371 1032.93L547.695 1048H540.449L534.434 1037.77L528.418 1048H521.145L530.441 1032.93L521.5 1018.41H528.719ZM565.824 1006H572.414V1041.68L571.785 1048H565.824V1006ZM591.719 1032.93V1033.51C591.719 1035.7 591.473 1037.71 590.98 1039.55C590.507 1041.37 589.777 1042.96 588.793 1044.31C587.827 1045.66 586.624 1046.71 585.184 1047.45C583.762 1048.18 582.112 1048.55 580.234 1048.55C578.393 1048.55 576.789 1048.2 575.422 1047.51C574.055 1046.82 572.906 1045.83 571.977 1044.55C571.065 1043.28 570.327 1041.76 569.762 1039.99C569.197 1038.22 568.796 1036.27 568.559 1034.14V1032.3C568.796 1030.15 569.197 1028.2 569.762 1026.45C570.327 1024.68 571.065 1023.16 571.977 1021.89C572.906 1020.59 574.046 1019.6 575.395 1018.91C576.762 1018.21 578.357 1017.87 580.18 1017.87C582.076 1017.87 583.743 1018.23 585.184 1018.96C586.642 1019.69 587.854 1020.73 588.82 1022.08C589.786 1023.41 590.507 1024.99 590.98 1026.84C591.473 1028.68 591.719 1030.71 591.719 1032.93ZM585.129 1033.51V1032.93C585.129 1031.6 585.02 1030.35 584.801 1029.19C584.582 1028 584.217 1026.96 583.707 1026.07C583.215 1025.18 582.54 1024.48 581.684 1023.96C580.845 1023.44 579.797 1023.17 578.539 1023.17C577.372 1023.17 576.37 1023.37 575.531 1023.77C574.693 1024.17 573.991 1024.72 573.426 1025.41C572.861 1026.11 572.414 1026.91 572.086 1027.82C571.776 1028.73 571.566 1029.72 571.457 1030.77V1035.72C571.621 1037.09 571.967 1038.35 572.496 1039.5C573.043 1040.63 573.809 1041.54 574.793 1042.23C575.777 1042.9 577.044 1043.24 578.594 1043.24C579.815 1043.24 580.845 1043 581.684 1042.5C582.522 1042.01 583.188 1041.33 583.68 1040.45C584.19 1039.56 584.555 1038.52 584.773 1037.34C585.01 1036.15 585.129 1034.88 585.129 1033.51ZM610.34 1048.55C608.152 1048.55 606.174 1048.19 604.406 1047.48C602.656 1046.75 601.161 1045.74 599.922 1044.45C598.701 1043.15 597.762 1041.63 597.105 1039.88C596.449 1038.13 596.121 1036.24 596.121 1034.22V1033.12C596.121 1030.81 596.458 1028.71 597.133 1026.84C597.807 1024.96 598.746 1023.35 599.949 1022.02C601.152 1020.67 602.574 1019.64 604.215 1018.93C605.855 1018.22 607.633 1017.87 609.547 1017.87C611.661 1017.87 613.512 1018.22 615.098 1018.93C616.684 1019.64 617.996 1020.65 619.035 1021.94C620.092 1023.22 620.876 1024.74 621.387 1026.51C621.915 1028.28 622.18 1030.23 622.18 1032.36V1035.18H599.32V1030.45H615.672V1029.93C615.635 1028.74 615.398 1027.63 614.961 1026.59C614.542 1025.55 613.895 1024.71 613.02 1024.07C612.145 1023.44 610.978 1023.12 609.52 1023.12C608.426 1023.12 607.451 1023.35 606.594 1023.83C605.755 1024.28 605.053 1024.95 604.488 1025.82C603.923 1026.7 603.486 1027.76 603.176 1029C602.884 1030.22 602.738 1031.59 602.738 1033.12V1034.22C602.738 1035.51 602.911 1036.72 603.258 1037.83C603.622 1038.92 604.151 1039.88 604.844 1040.7C605.536 1041.52 606.375 1042.17 607.359 1042.64C608.344 1043.1 609.465 1043.32 610.723 1043.32C612.309 1043.32 613.721 1043.01 614.961 1042.37C616.201 1041.73 617.276 1040.83 618.188 1039.66L621.66 1043.02C621.022 1043.95 620.193 1044.85 619.172 1045.7C618.151 1046.54 616.902 1047.23 615.426 1047.75C613.967 1048.28 612.272 1048.55 610.34 1048.55ZM633.855 1024.73V1048H627.266V1018.41H633.473L633.855 1024.73ZM632.68 1032.11L630.547 1032.09C630.565 1029.99 630.857 1028.07 631.422 1026.32C632.005 1024.57 632.807 1023.06 633.828 1021.8C634.867 1020.55 636.107 1019.58 637.547 1018.91C638.987 1018.21 640.591 1017.87 642.359 1017.87C643.781 1017.87 645.066 1018.07 646.215 1018.47C647.382 1018.85 648.375 1019.48 649.195 1020.36C650.034 1021.23 650.672 1022.37 651.109 1023.77C651.547 1025.16 651.766 1026.86 651.766 1028.89V1048H645.148V1028.86C645.148 1027.44 644.939 1026.32 644.52 1025.5C644.118 1024.66 643.526 1024.07 642.742 1023.72C641.977 1023.35 641.02 1023.17 639.871 1023.17C638.741 1023.17 637.729 1023.41 636.836 1023.88C635.943 1024.36 635.186 1025 634.566 1025.82C633.965 1026.64 633.5 1027.59 633.172 1028.67C632.844 1029.74 632.68 1030.89 632.68 1032.11ZM671.535 1048.55C669.348 1048.55 667.37 1048.19 665.602 1047.48C663.852 1046.75 662.357 1045.74 661.117 1044.45C659.896 1043.15 658.957 1041.63 658.301 1039.88C657.645 1038.13 657.316 1036.24 657.316 1034.22V1033.12C657.316 1030.81 657.654 1028.71 658.328 1026.84C659.003 1024.96 659.941 1023.35 661.145 1022.02C662.348 1020.67 663.77 1019.64 665.41 1018.93C667.051 1018.22 668.828 1017.87 670.742 1017.87C672.857 1017.87 674.707 1018.22 676.293 1018.93C677.879 1019.64 679.191 1020.65 680.23 1021.94C681.288 1023.22 682.072 1024.74 682.582 1026.51C683.111 1028.28 683.375 1030.23 683.375 1032.36V1035.18H660.516V1030.45H676.867V1029.93C676.831 1028.74 676.594 1027.63 676.156 1026.59C675.737 1025.55 675.09 1024.71 674.215 1024.07C673.34 1023.44 672.173 1023.12 670.715 1023.12C669.621 1023.12 668.646 1023.35 667.789 1023.83C666.951 1024.28 666.249 1024.95 665.684 1025.82C665.118 1026.7 664.681 1027.76 664.371 1029C664.079 1030.22 663.934 1031.59 663.934 1033.12V1034.22C663.934 1035.51 664.107 1036.72 664.453 1037.83C664.818 1038.92 665.346 1039.88 666.039 1040.7C666.732 1041.52 667.57 1042.17 668.555 1042.64C669.539 1043.1 670.66 1043.32 671.918 1043.32C673.504 1043.32 674.917 1043.01 676.156 1042.37C677.396 1041.73 678.471 1040.83 679.383 1039.66L682.855 1043.02C682.217 1043.95 681.388 1044.85 680.367 1045.7C679.346 1046.54 678.098 1047.23 676.621 1047.75C675.163 1048.28 673.467 1048.55 671.535 1048.55ZM696.992 1048H690.375V1016.5C690.375 1014.11 690.849 1012.1 691.797 1010.46C692.763 1008.82 694.139 1007.57 695.926 1006.71C697.73 1005.85 699.872 1005.43 702.352 1005.43C703.81 1005.43 705.214 1005.58 706.562 1005.89C707.93 1006.2 709.342 1006.59 710.801 1007.07L709.789 1012.43C708.859 1012.12 707.829 1011.82 706.699 1011.55C705.569 1011.26 704.266 1011.11 702.789 1011.11C700.802 1011.11 699.335 1011.57 698.387 1012.48C697.457 1013.37 696.992 1014.71 696.992 1016.5V1048ZM702.926 1018.41V1023.23H685.836V1018.41H702.926ZM713.918 1018.41V1048H707.328V1018.41H713.918ZM734.836 1018.41V1023.23H718.156V1018.41H734.836ZM722.969 1011.17H729.559V1039.82C729.559 1040.74 729.686 1041.44 729.941 1041.93C730.215 1042.4 730.589 1042.72 731.062 1042.89C731.536 1043.05 732.092 1043.13 732.73 1043.13C733.186 1043.13 733.624 1043.11 734.043 1043.05C734.462 1043 734.799 1042.94 735.055 1042.89L735.082 1047.92C734.535 1048.08 733.897 1048.23 733.168 1048.36C732.457 1048.48 731.637 1048.55 730.707 1048.55C729.194 1048.55 727.854 1048.28 726.688 1047.75C725.521 1047.21 724.609 1046.32 723.953 1045.1C723.297 1043.88 722.969 1042.26 722.969 1040.23V1011.17ZM756.52 1039.99C756.52 1039.33 756.355 1038.74 756.027 1038.21C755.699 1037.66 755.07 1037.17 754.141 1036.73C753.229 1036.3 751.88 1035.9 750.094 1035.53C748.526 1035.18 747.086 1034.77 745.773 1034.3C744.479 1033.81 743.367 1033.22 742.438 1032.52C741.508 1031.83 740.788 1031.01 740.277 1030.06C739.767 1029.11 739.512 1028.02 739.512 1026.78C739.512 1025.58 739.776 1024.44 740.305 1023.36C740.833 1022.29 741.59 1021.34 742.574 1020.52C743.559 1019.7 744.753 1019.05 746.156 1018.58C747.578 1018.1 749.164 1017.87 750.914 1017.87C753.393 1017.87 755.517 1018.29 757.285 1019.12C759.072 1019.95 760.439 1021.07 761.387 1022.49C762.335 1023.89 762.809 1025.48 762.809 1027.25H756.219C756.219 1026.46 756.018 1025.73 755.617 1025.06C755.234 1024.37 754.651 1023.81 753.867 1023.39C753.083 1022.95 752.099 1022.73 750.914 1022.73C749.784 1022.73 748.845 1022.92 748.098 1023.28C747.368 1023.63 746.822 1024.08 746.457 1024.65C746.111 1025.21 745.938 1025.83 745.938 1026.51C745.938 1027 746.029 1027.45 746.211 1027.85C746.411 1028.23 746.74 1028.59 747.195 1028.91C747.651 1029.22 748.271 1029.52 749.055 1029.79C749.857 1030.06 750.859 1030.33 752.062 1030.58C754.323 1031.06 756.264 1031.67 757.887 1032.41C759.527 1033.14 760.785 1034.09 761.66 1035.26C762.535 1036.41 762.973 1037.86 762.973 1039.63C762.973 1040.95 762.69 1042.15 762.125 1043.24C761.578 1044.32 760.776 1045.26 759.719 1046.06C758.661 1046.84 757.395 1047.45 755.918 1047.89C754.46 1048.33 752.819 1048.55 750.996 1048.55C748.316 1048.55 746.047 1048.07 744.188 1047.12C742.328 1046.16 740.915 1044.93 739.949 1043.43C739.001 1041.92 738.527 1040.35 738.527 1038.73H744.898C744.971 1039.95 745.309 1040.93 745.91 1041.66C746.53 1042.37 747.296 1042.89 748.207 1043.21C749.137 1043.52 750.094 1043.68 751.078 1043.68C752.263 1043.68 753.257 1043.52 754.059 1043.21C754.861 1042.89 755.471 1042.45 755.891 1041.9C756.31 1041.34 756.52 1040.7 756.52 1039.99Z" fill="#1C4670"/>
<path d="M215.503 887H95.911L77.0938 907.143V979.544C77.0938 1022.29 111.698 1056.95 154.445 1056.95C196.535 1056.95 231.514 1023 231.514 979.544V907.143L215.503 887Z" fill="url(#paint8_linear_608_34)"/>
<path d="M134.703 999.625C128.896 999.625 124.404 997.997 121.227 994.742C118.076 991.487 116.5 986.799 116.5 980.68V949.664C116.5 943.206 117.997 938.258 120.992 934.82C124.013 931.357 128.583 929.625 134.703 929.625C140.849 929.625 145.419 931.357 148.414 934.82C151.409 938.258 152.906 943.206 152.906 949.664V980.68C152.906 986.799 151.331 991.487 148.18 994.742C145.029 997.997 140.536 999.625 134.703 999.625ZM134.703 986.969C135.771 986.969 136.604 986.487 137.203 985.523C137.802 984.56 138.102 983.479 138.102 982.281V948.336C138.102 946.721 137.919 945.315 137.555 944.117C137.216 942.893 136.266 942.281 134.703 942.281C133.141 942.281 132.177 942.893 131.812 944.117C131.474 945.315 131.305 946.721 131.305 948.336V982.281C131.305 983.479 131.604 984.56 132.203 985.523C132.828 986.487 133.661 986.969 134.703 986.969ZM175.562 999.039V988.141H155.172V977.398L168.18 930.211H189.586V976.656H193.258V988.141H189.586V999.039H175.562ZM167.438 976.656H175.562V942.008L167.438 976.656Z" fill="white"/>
<path d="M248.586 887H60.0938L77.1222 911.349H231.543L248.586 887Z" fill="url(#paint9_linear_608_34)"/>
<path d="M60.0625 887C50.5014 887 43.0156 894.754 43.0156 904.319V911.349H77.1093V904.319C77.1093 894.754 69.6272 887 60.0625 887Z" fill="url(#paint10_linear_608_34)"/>
<path d="M248.562 887C258.131 887 265.617 894.754 265.617 904.319V911.349H231.516V904.319C231.516 894.754 238.998 887 248.562 887Z" fill="url(#paint11_linear_608_34)"/>
<g filter="url(#filter3_d_608_34)">
<path fill-rule="evenodd" clip-rule="evenodd" d="M954.959 620C977.066 620 994.981 637.934 994.959 660.041L994.799 814.146C994.776 836.221 976.874 854.105 954.799 854.105H827.055H83C60.9086 854.105 43 836.196 43 814.105V660C43 637.909 60.9086 620 83 620H954.959Z" fill="white"/>
</g>
<path d="M215.511 597H95.9188L77.1016 617.143V689.547C77.1016 732.295 111.706 766.954 154.453 766.954C196.543 766.954 231.522 732.996 231.522 689.547V617.143L215.511 597Z" fill="url(#paint12_linear_608_34)"/>
<path d="M136.703 709.625C130.896 709.625 126.404 707.997 123.227 704.742C120.076 701.487 118.5 696.799 118.5 690.68V659.664C118.5 653.206 119.997 648.258 122.992 644.82C126.013 641.357 130.583 639.625 136.703 639.625C142.849 639.625 147.419 641.357 150.414 644.82C153.409 648.258 154.906 653.206 154.906 659.664V690.68C154.906 696.799 153.331 701.487 150.18 704.742C147.029 707.997 142.536 709.625 136.703 709.625ZM136.703 696.969C137.771 696.969 138.604 696.487 139.203 695.523C139.802 694.56 140.102 693.479 140.102 692.281V658.336C140.102 656.721 139.919 655.315 139.555 654.117C139.216 652.893 138.266 652.281 136.703 652.281C135.141 652.281 134.177 652.893 133.812 654.117C133.474 655.315 133.305 656.721 133.305 658.336V692.281C133.305 693.479 133.604 694.56 134.203 695.523C134.828 696.487 135.661 696.969 136.703 696.969ZM175.375 709.781C169.307 709.781 164.893 708.18 162.133 704.977C159.372 701.773 157.992 696.943 157.992 690.484V683.297H172.094V690.523C172.094 692.346 172.315 693.896 172.758 695.172C173.227 696.422 174.255 697.047 175.844 697.047C177.458 697.047 178.487 696.37 178.93 695.016C179.372 693.635 179.594 691.396 179.594 688.297V686.578C179.594 684.208 179.19 682.138 178.383 680.367C177.602 678.596 176.052 677.711 173.734 677.711C173.448 677.711 173.188 677.724 172.953 677.75C172.745 677.75 172.562 677.763 172.406 677.789V665.445C174.776 665.445 176.586 664.924 177.836 663.883C179.086 662.815 179.711 661.044 179.711 658.57C179.711 654.69 178.591 652.75 176.352 652.75C174.893 652.75 173.904 653.323 173.383 654.469C172.888 655.589 172.641 657.021 172.641 658.766V660.836H158.422C158.396 660.523 158.37 660.146 158.344 659.703C158.344 659.26 158.344 658.831 158.344 658.414C158.344 652.112 159.815 647.49 162.758 644.547C165.701 641.604 170.206 640.133 176.273 640.133C187.992 640.133 193.852 646.227 193.852 658.414C193.852 661.799 193.396 664.599 192.484 666.812C191.573 669 189.88 670.536 187.406 671.422C189.359 672.359 190.805 673.557 191.742 675.016C192.68 676.474 193.292 678.284 193.578 680.445C193.865 682.607 194.008 685.224 194.008 688.297C194.008 695.172 192.562 700.471 189.672 704.195C186.807 707.919 182.042 709.781 175.375 709.781Z" fill="white"/>
<path d="M248.586 597H60.0938L77.1222 621.349H231.543L248.586 597Z" fill="url(#paint13_linear_608_34)"/>
<path d="M60.0625 597C50.5014 597 43.0156 604.754 43.0156 614.322V621.349H77.1093V614.322C77.1093 604.754 69.6272 597 60.0625 597Z" fill="url(#paint14_linear_608_34)"/>
<path d="M248.562 597C258.131 597 265.617 604.754 265.617 614.322V621.349H231.516V614.322C231.516 604.754 238.998 597 248.562 597Z" fill="url(#paint15_linear_608_34)"/>
<g filter="url(#filter4_d_608_34)">
<path fill-rule="evenodd" clip-rule="evenodd" d="M954.959 1199C977.066 1199 994.981 1216.93 994.959 1239.04L994.799 1393.15C994.776 1415.22 976.874 1433.1 954.799 1433.1H827.055H83C60.9086 1433.1 43 1415.2 43 1393.1V1239C43 1216.91 60.9086 1199 83 1199H954.959Z" fill="white"/>
</g>
<path d="M379.359 1335.56V1341H359.371V1335.56H379.359ZM361.285 1301.19V1341H354.422V1301.19H361.285ZM382.75 1326.54V1325.91C382.75 1323.77 383.06 1321.8 383.68 1319.97C384.299 1318.13 385.193 1316.54 386.359 1315.19C387.544 1313.82 388.984 1312.76 390.68 1312.02C392.393 1311.25 394.326 1310.87 396.477 1310.87C398.646 1310.87 400.578 1311.25 402.273 1312.02C403.987 1312.76 405.436 1313.82 406.621 1315.19C407.806 1316.54 408.708 1318.13 409.328 1319.97C409.948 1321.8 410.258 1323.77 410.258 1325.91V1326.54C410.258 1328.67 409.948 1330.65 409.328 1332.47C408.708 1334.29 407.806 1335.89 406.621 1337.25C405.436 1338.6 403.996 1339.66 402.301 1340.43C400.605 1341.17 398.682 1341.55 396.531 1341.55C394.362 1341.55 392.421 1341.17 390.707 1340.43C389.012 1339.66 387.572 1338.6 386.387 1337.25C385.202 1335.89 384.299 1334.29 383.68 1332.47C383.06 1330.65 382.75 1328.67 382.75 1326.54ZM389.34 1325.91V1326.54C389.34 1327.87 389.477 1329.12 389.75 1330.31C390.023 1331.49 390.452 1332.53 391.035 1333.43C391.618 1334.32 392.366 1335.02 393.277 1335.53C394.189 1336.04 395.273 1336.3 396.531 1336.3C397.753 1336.3 398.81 1336.04 399.703 1335.53C400.615 1335.02 401.362 1334.32 401.945 1333.43C402.529 1332.53 402.957 1331.49 403.23 1330.31C403.522 1329.12 403.668 1327.87 403.668 1326.54V1325.91C403.668 1324.59 403.522 1323.35 403.23 1322.19C402.957 1321 402.52 1319.95 401.918 1319.04C401.335 1318.13 400.587 1317.42 399.676 1316.91C398.783 1316.38 397.716 1316.12 396.477 1316.12C395.237 1316.12 394.161 1316.38 393.25 1316.91C392.357 1317.42 391.618 1318.13 391.035 1319.04C390.452 1319.95 390.023 1321 389.75 1322.19C389.477 1323.35 389.34 1324.59 389.34 1325.91ZM427.867 1336.3C428.943 1336.3 429.909 1336.09 430.766 1335.67C431.641 1335.23 432.342 1334.63 432.871 1333.86C433.418 1333.1 433.719 1332.21 433.773 1331.21H439.98C439.944 1333.12 439.379 1334.87 438.285 1336.43C437.191 1338 435.742 1339.25 433.938 1340.18C432.133 1341.09 430.137 1341.55 427.949 1341.55C425.689 1341.55 423.72 1341.16 422.043 1340.4C420.366 1339.61 418.971 1338.54 417.859 1337.17C416.747 1335.8 415.909 1334.23 415.344 1332.44C414.797 1330.65 414.523 1328.74 414.523 1326.7V1325.74C414.523 1323.7 414.797 1321.79 415.344 1320C415.909 1318.2 416.747 1316.61 417.859 1315.24C418.971 1313.88 420.366 1312.81 422.043 1312.04C423.72 1311.26 425.68 1310.87 427.922 1310.87C430.292 1310.87 432.37 1311.34 434.156 1312.29C435.943 1313.22 437.346 1314.52 438.367 1316.2C439.406 1317.86 439.944 1319.79 439.98 1322H433.773C433.719 1320.9 433.445 1319.92 432.953 1319.04C432.479 1318.15 431.805 1317.44 430.93 1316.91C430.073 1316.38 429.043 1316.12 427.84 1316.12C426.509 1316.12 425.406 1316.39 424.531 1316.94C423.656 1317.47 422.973 1318.2 422.48 1319.12C421.988 1320.04 421.633 1321.07 421.414 1322.21C421.214 1323.35 421.113 1324.52 421.113 1325.74V1326.7C421.113 1327.92 421.214 1329.11 421.414 1330.25C421.615 1331.4 421.961 1332.43 422.453 1333.34C422.964 1334.24 423.656 1334.96 424.531 1335.5C425.406 1336.03 426.518 1336.3 427.867 1336.3ZM461.719 1335.07V1320.96C461.719 1319.9 461.527 1318.99 461.145 1318.22C460.762 1317.46 460.178 1316.86 459.395 1316.45C458.629 1316.03 457.663 1315.82 456.496 1315.82C455.421 1315.82 454.491 1316 453.707 1316.36C452.923 1316.73 452.312 1317.22 451.875 1317.84C451.438 1318.46 451.219 1319.16 451.219 1319.95H444.656C444.656 1318.78 444.939 1317.65 445.504 1316.55C446.069 1315.46 446.889 1314.49 447.965 1313.63C449.04 1312.77 450.326 1312.1 451.82 1311.61C453.315 1311.11 454.992 1310.87 456.852 1310.87C459.076 1310.87 461.044 1311.24 462.758 1311.99C464.49 1312.74 465.848 1313.87 466.832 1315.38C467.835 1316.87 468.336 1318.75 468.336 1321.01V1334.16C468.336 1335.51 468.427 1336.73 468.609 1337.8C468.81 1338.86 469.092 1339.78 469.457 1340.56V1341H462.703C462.393 1340.29 462.147 1339.39 461.965 1338.29C461.801 1337.18 461.719 1336.11 461.719 1335.07ZM462.676 1323.01L462.73 1327.08H458C456.779 1327.08 455.703 1327.2 454.773 1327.44C453.844 1327.66 453.069 1327.98 452.449 1328.42C451.829 1328.86 451.365 1329.39 451.055 1330.01C450.745 1330.63 450.59 1331.33 450.59 1332.11C450.59 1332.9 450.772 1333.62 451.137 1334.27C451.501 1334.91 452.03 1335.41 452.723 1335.78C453.434 1336.14 454.29 1336.32 455.293 1336.32C456.642 1336.32 457.818 1336.05 458.82 1335.5C459.841 1334.94 460.643 1334.26 461.227 1333.45C461.81 1332.63 462.12 1331.86 462.156 1331.13L464.289 1334.05C464.07 1334.8 463.697 1335.6 463.168 1336.46C462.639 1337.32 461.947 1338.14 461.09 1338.92C460.251 1339.69 459.24 1340.32 458.055 1340.81C456.888 1341.3 455.539 1341.55 454.008 1341.55C452.076 1341.55 450.353 1341.16 448.84 1340.4C447.327 1339.61 446.142 1338.57 445.285 1337.25C444.428 1335.92 444 1334.42 444 1332.74C444 1331.17 444.292 1329.79 444.875 1328.59C445.477 1327.36 446.352 1326.34 447.5 1325.52C448.667 1324.7 450.089 1324.08 451.766 1323.66C453.443 1323.23 455.357 1323.01 457.508 1323.01H462.676ZM482.281 1299V1341H475.664V1299H482.281ZM506.891 1301.19H513.016L524.527 1331.89L536.012 1301.19H542.137L526.934 1341H522.066L506.891 1301.19ZM504.102 1301.19H509.926L510.938 1327.77V1341H504.102V1301.19ZM539.102 1301.19H544.953V1341H538.09V1327.77L539.102 1301.19ZM569.125 1335.07V1320.96C569.125 1319.9 568.934 1318.99 568.551 1318.22C568.168 1317.46 567.585 1316.86 566.801 1316.45C566.035 1316.03 565.069 1315.82 563.902 1315.82C562.827 1315.82 561.897 1316 561.113 1316.36C560.329 1316.73 559.719 1317.22 559.281 1317.84C558.844 1318.46 558.625 1319.16 558.625 1319.95H552.062C552.062 1318.78 552.345 1317.65 552.91 1316.55C553.475 1315.46 554.296 1314.49 555.371 1313.63C556.447 1312.77 557.732 1312.1 559.227 1311.61C560.721 1311.11 562.398 1310.87 564.258 1310.87C566.482 1310.87 568.451 1311.24 570.164 1311.99C571.896 1312.74 573.254 1313.87 574.238 1315.38C575.241 1316.87 575.742 1318.75 575.742 1321.01V1334.16C575.742 1335.51 575.833 1336.73 576.016 1337.8C576.216 1338.86 576.499 1339.78 576.863 1340.56V1341H570.109C569.799 1340.29 569.553 1339.39 569.371 1338.29C569.207 1337.18 569.125 1336.11 569.125 1335.07ZM570.082 1323.01L570.137 1327.08H565.406C564.185 1327.08 563.109 1327.2 562.18 1327.44C561.25 1327.66 560.475 1327.98 559.855 1328.42C559.236 1328.86 558.771 1329.39 558.461 1330.01C558.151 1330.63 557.996 1331.33 557.996 1332.11C557.996 1332.9 558.178 1333.62 558.543 1334.27C558.908 1334.91 559.436 1335.41 560.129 1335.78C560.84 1336.14 561.697 1336.32 562.699 1336.32C564.048 1336.32 565.224 1336.05 566.227 1335.5C567.247 1334.94 568.049 1334.26 568.633 1333.45C569.216 1332.63 569.526 1331.86 569.562 1331.13L571.695 1334.05C571.477 1334.8 571.103 1335.6 570.574 1336.46C570.046 1337.32 569.353 1338.14 568.496 1338.92C567.658 1339.69 566.646 1340.32 565.461 1340.81C564.294 1341.3 562.945 1341.55 561.414 1341.55C559.482 1341.55 557.759 1341.16 556.246 1340.4C554.733 1339.61 553.548 1338.57 552.691 1337.25C551.835 1335.92 551.406 1334.42 551.406 1332.74C551.406 1331.17 551.698 1329.79 552.281 1328.59C552.883 1327.36 553.758 1326.34 554.906 1325.52C556.073 1324.7 557.495 1324.08 559.172 1323.66C560.849 1323.23 562.763 1323.01 564.914 1323.01H570.082ZM589.25 1317.05V1341H582.66V1311.41H588.949L589.25 1317.05ZM598.301 1311.22L598.246 1317.35C597.845 1317.27 597.408 1317.22 596.934 1317.18C596.478 1317.15 596.022 1317.13 595.566 1317.13C594.436 1317.13 593.443 1317.29 592.586 1317.62C591.729 1317.93 591.009 1318.39 590.426 1318.99C589.861 1319.57 589.423 1320.28 589.113 1321.12C588.803 1321.96 588.621 1322.9 588.566 1323.94L587.062 1324.05C587.062 1322.19 587.245 1320.46 587.609 1318.88C587.974 1317.29 588.521 1315.9 589.25 1314.7C589.997 1313.49 590.927 1312.55 592.039 1311.88C593.169 1311.2 594.473 1310.87 595.949 1310.87C596.35 1310.87 596.779 1310.9 597.234 1310.98C597.708 1311.05 598.064 1311.13 598.301 1311.22ZM609.074 1299V1341H602.457V1299H609.074ZM627.449 1311.41L614.57 1325.69L607.516 1332.91L605.793 1327.33L611.125 1320.74L619.492 1311.41H627.449ZM620.914 1341L611.316 1327.11L615.473 1322.49L628.543 1341H620.914ZM644.129 1341.55C641.941 1341.55 639.964 1341.19 638.195 1340.48C636.445 1339.75 634.951 1338.74 633.711 1337.45C632.49 1336.15 631.551 1334.63 630.895 1332.88C630.238 1331.13 629.91 1329.24 629.91 1327.22V1326.12C629.91 1323.81 630.247 1321.71 630.922 1319.84C631.596 1317.96 632.535 1316.35 633.738 1315.02C634.941 1313.67 636.363 1312.64 638.004 1311.93C639.645 1311.22 641.422 1310.87 643.336 1310.87C645.451 1310.87 647.301 1311.22 648.887 1311.93C650.473 1312.64 651.785 1313.65 652.824 1314.94C653.882 1316.22 654.665 1317.74 655.176 1319.51C655.704 1321.28 655.969 1323.23 655.969 1325.36V1328.18H633.109V1323.45H649.461V1322.93C649.424 1321.74 649.188 1320.63 648.75 1319.59C648.331 1318.55 647.684 1317.71 646.809 1317.07C645.934 1316.44 644.767 1316.12 643.309 1316.12C642.215 1316.12 641.24 1316.35 640.383 1316.83C639.544 1317.28 638.842 1317.95 638.277 1318.82C637.712 1319.7 637.275 1320.76 636.965 1322C636.673 1323.22 636.527 1324.59 636.527 1326.12V1327.22C636.527 1328.51 636.701 1329.72 637.047 1330.83C637.411 1331.92 637.94 1332.88 638.633 1333.7C639.326 1334.52 640.164 1335.17 641.148 1335.64C642.133 1336.1 643.254 1336.32 644.512 1336.32C646.098 1336.32 647.51 1336.01 648.75 1335.37C649.99 1334.73 651.065 1333.83 651.977 1332.66L655.449 1336.02C654.811 1336.95 653.982 1337.85 652.961 1338.7C651.94 1339.54 650.691 1340.23 649.215 1340.75C647.757 1341.28 646.061 1341.55 644.129 1341.55ZM674.672 1311.41V1316.23H657.992V1311.41H674.672ZM662.805 1304.17H669.395V1332.82C669.395 1333.74 669.522 1334.44 669.777 1334.93C670.051 1335.4 670.424 1335.72 670.898 1335.89C671.372 1336.05 671.928 1336.13 672.566 1336.13C673.022 1336.13 673.46 1336.11 673.879 1336.05C674.298 1336 674.635 1335.94 674.891 1335.89L674.918 1340.92C674.371 1341.08 673.733 1341.23 673.004 1341.36C672.293 1341.48 671.473 1341.55 670.543 1341.55C669.03 1341.55 667.69 1341.28 666.523 1340.75C665.357 1340.21 664.445 1339.32 663.789 1338.1C663.133 1336.88 662.805 1335.26 662.805 1333.23V1304.17ZM709.863 1306.49L697.969 1341H690.777L705.762 1301.19H710.355L709.863 1306.49ZM719.816 1341L707.895 1306.49L707.375 1301.19H711.996L727.035 1341H719.816ZM719.242 1326.23V1331.68H697.586V1326.23H719.242ZM742.922 1336.3C743.997 1336.3 744.964 1336.09 745.82 1335.67C746.695 1335.23 747.397 1334.63 747.926 1333.86C748.473 1333.1 748.773 1332.21 748.828 1331.21H755.035C754.999 1333.12 754.434 1334.87 753.34 1336.43C752.246 1338 750.797 1339.25 748.992 1340.18C747.188 1341.09 745.191 1341.55 743.004 1341.55C740.743 1341.55 738.775 1341.16 737.098 1340.4C735.421 1339.61 734.026 1338.54 732.914 1337.17C731.802 1335.8 730.964 1334.23 730.398 1332.44C729.852 1330.65 729.578 1328.74 729.578 1326.7V1325.74C729.578 1323.7 729.852 1321.79 730.398 1320C730.964 1318.2 731.802 1316.61 732.914 1315.24C734.026 1313.88 735.421 1312.81 737.098 1312.04C738.775 1311.26 740.734 1310.87 742.977 1310.87C745.346 1310.87 747.424 1311.34 749.211 1312.29C750.997 1313.22 752.401 1314.52 753.422 1316.2C754.461 1317.86 754.999 1319.79 755.035 1322H748.828C748.773 1320.9 748.5 1319.92 748.008 1319.04C747.534 1318.15 746.859 1317.44 745.984 1316.91C745.128 1316.38 744.098 1316.12 742.895 1316.12C741.564 1316.12 740.461 1316.39 739.586 1316.94C738.711 1317.47 738.027 1318.2 737.535 1319.12C737.043 1320.04 736.688 1321.07 736.469 1322.21C736.268 1323.35 736.168 1324.52 736.168 1325.74V1326.7C736.168 1327.92 736.268 1329.11 736.469 1330.25C736.669 1331.4 737.016 1332.43 737.508 1333.34C738.018 1334.24 738.711 1334.96 739.586 1335.5C740.461 1336.03 741.573 1336.3 742.922 1336.3ZM772.18 1336.3C773.255 1336.3 774.221 1336.09 775.078 1335.67C775.953 1335.23 776.655 1334.63 777.184 1333.86C777.73 1333.1 778.031 1332.21 778.086 1331.21H784.293C784.257 1333.12 783.691 1334.87 782.598 1336.43C781.504 1338 780.055 1339.25 778.25 1340.18C776.445 1341.09 774.449 1341.55 772.262 1341.55C770.001 1341.55 768.033 1341.16 766.355 1340.4C764.678 1339.61 763.284 1338.54 762.172 1337.17C761.06 1335.8 760.221 1334.23 759.656 1332.44C759.109 1330.65 758.836 1328.74 758.836 1326.7V1325.74C758.836 1323.7 759.109 1321.79 759.656 1320C760.221 1318.2 761.06 1316.61 762.172 1315.24C763.284 1313.88 764.678 1312.81 766.355 1312.04C768.033 1311.26 769.992 1310.87 772.234 1310.87C774.604 1310.87 776.682 1311.34 778.469 1312.29C780.255 1313.22 781.659 1314.52 782.68 1316.2C783.719 1317.86 784.257 1319.79 784.293 1322H778.086C778.031 1320.9 777.758 1319.92 777.266 1319.04C776.792 1318.15 776.117 1317.44 775.242 1316.91C774.385 1316.38 773.355 1316.12 772.152 1316.12C770.822 1316.12 769.719 1316.39 768.844 1316.94C767.969 1317.47 767.285 1318.2 766.793 1319.12C766.301 1320.04 765.945 1321.07 765.727 1322.21C765.526 1323.35 765.426 1324.52 765.426 1325.74V1326.7C765.426 1327.92 765.526 1329.11 765.727 1330.25C765.927 1331.4 766.273 1332.43 766.766 1333.34C767.276 1334.24 767.969 1334.96 768.844 1335.5C769.719 1336.03 770.831 1336.3 772.18 1336.3ZM802.395 1341.55C800.207 1341.55 798.229 1341.19 796.461 1340.48C794.711 1339.75 793.216 1338.74 791.977 1337.45C790.755 1336.15 789.816 1334.63 789.16 1332.88C788.504 1331.13 788.176 1329.24 788.176 1327.22V1326.12C788.176 1323.81 788.513 1321.71 789.188 1319.84C789.862 1317.96 790.801 1316.35 792.004 1315.02C793.207 1313.67 794.629 1312.64 796.27 1311.93C797.91 1311.22 799.688 1310.87 801.602 1310.87C803.716 1310.87 805.566 1311.22 807.152 1311.93C808.738 1312.64 810.051 1313.65 811.09 1314.94C812.147 1316.22 812.931 1317.74 813.441 1319.51C813.97 1321.28 814.234 1323.23 814.234 1325.36V1328.18H791.375V1323.45H807.727V1322.93C807.69 1321.74 807.453 1320.63 807.016 1319.59C806.596 1318.55 805.949 1317.71 805.074 1317.07C804.199 1316.44 803.033 1316.12 801.574 1316.12C800.48 1316.12 799.505 1316.35 798.648 1316.83C797.81 1317.28 797.108 1317.95 796.543 1318.82C795.978 1319.7 795.54 1320.76 795.23 1322C794.939 1323.22 794.793 1324.59 794.793 1326.12V1327.22C794.793 1328.51 794.966 1329.72 795.312 1330.83C795.677 1331.92 796.206 1332.88 796.898 1333.7C797.591 1334.52 798.43 1335.17 799.414 1335.64C800.398 1336.1 801.52 1336.32 802.777 1336.32C804.363 1336.32 805.776 1336.01 807.016 1335.37C808.255 1334.73 809.331 1333.83 810.242 1332.66L813.715 1336.02C813.077 1336.95 812.247 1337.85 811.227 1338.7C810.206 1339.54 808.957 1340.23 807.48 1340.75C806.022 1341.28 804.327 1341.55 802.395 1341.55ZM835.973 1332.99C835.973 1332.33 835.809 1331.74 835.48 1331.21C835.152 1330.66 834.523 1330.17 833.594 1329.73C832.682 1329.3 831.333 1328.9 829.547 1328.53C827.979 1328.18 826.539 1327.77 825.227 1327.3C823.932 1326.81 822.82 1326.22 821.891 1325.52C820.961 1324.83 820.241 1324.01 819.73 1323.06C819.22 1322.11 818.965 1321.02 818.965 1319.78C818.965 1318.58 819.229 1317.44 819.758 1316.36C820.286 1315.29 821.043 1314.34 822.027 1313.52C823.012 1312.7 824.206 1312.05 825.609 1311.58C827.031 1311.1 828.617 1310.87 830.367 1310.87C832.846 1310.87 834.97 1311.29 836.738 1312.12C838.525 1312.95 839.892 1314.07 840.84 1315.49C841.788 1316.89 842.262 1318.48 842.262 1320.25H835.672C835.672 1319.46 835.471 1318.73 835.07 1318.06C834.688 1317.37 834.104 1316.81 833.32 1316.39C832.536 1315.95 831.552 1315.73 830.367 1315.73C829.237 1315.73 828.298 1315.92 827.551 1316.28C826.822 1316.63 826.275 1317.08 825.91 1317.65C825.564 1318.21 825.391 1318.83 825.391 1319.51C825.391 1320 825.482 1320.45 825.664 1320.85C825.865 1321.23 826.193 1321.59 826.648 1321.91C827.104 1322.22 827.724 1322.52 828.508 1322.79C829.31 1323.06 830.312 1323.33 831.516 1323.58C833.776 1324.06 835.717 1324.67 837.34 1325.41C838.98 1326.14 840.238 1327.09 841.113 1328.26C841.988 1329.41 842.426 1330.86 842.426 1332.63C842.426 1333.95 842.143 1335.15 841.578 1336.24C841.031 1337.32 840.229 1338.26 839.172 1339.06C838.115 1339.84 836.848 1340.45 835.371 1340.89C833.913 1341.33 832.272 1341.55 830.449 1341.55C827.77 1341.55 825.5 1341.07 823.641 1340.12C821.781 1339.16 820.368 1337.93 819.402 1336.43C818.454 1334.92 817.98 1333.35 817.98 1331.73H824.352C824.424 1332.95 824.762 1333.93 825.363 1334.66C825.983 1335.37 826.749 1335.89 827.66 1336.21C828.59 1336.52 829.547 1336.68 830.531 1336.68C831.716 1336.68 832.71 1336.52 833.512 1336.21C834.314 1335.89 834.924 1335.45 835.344 1334.9C835.763 1334.34 835.973 1333.7 835.973 1332.99ZM864.793 1332.99C864.793 1332.33 864.629 1331.74 864.301 1331.21C863.973 1330.66 863.344 1330.17 862.414 1329.73C861.503 1329.3 860.154 1328.9 858.367 1328.53C856.799 1328.18 855.359 1327.77 854.047 1327.3C852.753 1326.81 851.641 1326.22 850.711 1325.52C849.781 1324.83 849.061 1324.01 848.551 1323.06C848.04 1322.11 847.785 1321.02 847.785 1319.78C847.785 1318.58 848.049 1317.44 848.578 1316.36C849.107 1315.29 849.863 1314.34 850.848 1313.52C851.832 1312.7 853.026 1312.05 854.43 1311.58C855.852 1311.1 857.438 1310.87 859.188 1310.87C861.667 1310.87 863.79 1311.29 865.559 1312.12C867.345 1312.95 868.712 1314.07 869.66 1315.49C870.608 1316.89 871.082 1318.48 871.082 1320.25H864.492C864.492 1319.46 864.292 1318.73 863.891 1318.06C863.508 1317.37 862.924 1316.81 862.141 1316.39C861.357 1315.95 860.372 1315.73 859.188 1315.73C858.057 1315.73 857.118 1315.92 856.371 1316.28C855.642 1316.63 855.095 1317.08 854.73 1317.65C854.384 1318.21 854.211 1318.83 854.211 1319.51C854.211 1320 854.302 1320.45 854.484 1320.85C854.685 1321.23 855.013 1321.59 855.469 1321.91C855.924 1322.22 856.544 1322.52 857.328 1322.79C858.13 1323.06 859.133 1323.33 860.336 1323.58C862.596 1324.06 864.538 1324.67 866.16 1325.41C867.801 1326.14 869.059 1327.09 869.934 1328.26C870.809 1329.41 871.246 1330.86 871.246 1332.63C871.246 1333.95 870.964 1335.15 870.398 1336.24C869.852 1337.32 869.049 1338.26 867.992 1339.06C866.935 1339.84 865.668 1340.45 864.191 1340.89C862.733 1341.33 861.092 1341.55 859.27 1341.55C856.59 1341.55 854.32 1341.07 852.461 1340.12C850.602 1339.16 849.189 1337.93 848.223 1336.43C847.275 1334.92 846.801 1333.35 846.801 1331.73H853.172C853.245 1332.95 853.582 1333.93 854.184 1334.66C854.803 1335.37 855.569 1335.89 856.48 1336.21C857.41 1336.52 858.367 1336.68 859.352 1336.68C860.536 1336.68 861.53 1336.52 862.332 1336.21C863.134 1335.89 863.745 1335.45 864.164 1334.9C864.583 1334.34 864.793 1333.7 864.793 1332.99Z" fill="#1C4670"/>
<path d="M215.511 1175H95.9188L77.1016 1195.14V1267.55C77.1016 1310.29 111.706 1344.95 154.453 1344.95C196.543 1344.95 231.522 1311 231.522 1267.55V1195.14L215.511 1175Z" fill="url(#paint16_linear_608_34)"/>
<path d="M134.703 1290.62C128.896 1290.62 124.404 1289 121.227 1285.74C118.076 1282.49 116.5 1277.8 116.5 1271.68V1240.66C116.5 1234.21 117.997 1229.26 120.992 1225.82C124.013 1222.36 128.583 1220.62 134.703 1220.62C140.849 1220.62 145.419 1222.36 148.414 1225.82C151.409 1229.26 152.906 1234.21 152.906 1240.66V1271.68C152.906 1277.8 151.331 1282.49 148.18 1285.74C145.029 1289 140.536 1290.62 134.703 1290.62ZM134.703 1277.97C135.771 1277.97 136.604 1277.49 137.203 1276.52C137.802 1275.56 138.102 1274.48 138.102 1273.28V1239.34C138.102 1237.72 137.919 1236.32 137.555 1235.12C137.216 1233.89 136.266 1233.28 134.703 1233.28C133.141 1233.28 132.177 1233.89 131.812 1235.12C131.474 1236.32 131.305 1237.72 131.305 1239.34V1273.28C131.305 1274.48 131.604 1275.56 132.203 1276.52C132.828 1277.49 133.661 1277.97 134.703 1277.97ZM174.234 1290.98C168.948 1290.98 164.625 1289.67 161.266 1287.07C157.932 1284.44 156.266 1280.42 156.266 1275V1264.77H170.562V1270.66C170.562 1271.89 170.628 1273.07 170.758 1274.22C170.914 1275.36 171.253 1276.3 171.773 1277.03C172.294 1277.76 173.115 1278.12 174.234 1278.12C175.719 1278.12 176.695 1277.63 177.164 1276.64C177.633 1275.62 177.867 1274.34 177.867 1272.77V1259.26C177.867 1258.14 177.789 1257.03 177.633 1255.94C177.503 1254.84 177.19 1253.93 176.695 1253.2C176.201 1252.47 175.406 1252.11 174.312 1252.11C171.708 1252.11 170.406 1254 170.406 1257.77H157.789V1221.21H190.562V1234.1H170.836V1243.79C171.513 1242.96 172.424 1242.23 173.57 1241.6C174.742 1240.95 176.109 1240.62 177.672 1240.62C180.797 1240.62 183.336 1241.22 185.289 1242.42C187.268 1243.62 188.779 1245.29 189.82 1247.42C190.888 1249.56 191.617 1252.03 192.008 1254.84C192.424 1257.66 192.633 1260.68 192.633 1263.91C192.633 1268.05 192.411 1271.78 191.969 1275.12C191.552 1278.42 190.706 1281.26 189.43 1283.63C188.18 1286 186.331 1287.83 183.883 1289.1C181.461 1290.35 178.245 1290.98 174.234 1290.98Z" fill="white"/>
<path d="M248.586 1175H60.0938L77.1222 1199.35H231.543L248.586 1175Z" fill="url(#paint17_linear_608_34)"/>
<path d="M60.0625 1175C50.5014 1175 43.0156 1182.75 43.0156 1192.32V1199.35H77.1093V1192.32C77.1093 1182.75 69.6272 1175 60.0625 1175Z" fill="url(#paint18_linear_608_34)"/>
<path d="M248.562 1175C258.131 1175 265.617 1182.75 265.617 1192.32V1199.35H231.516V1192.32C231.516 1182.75 238.998 1175 248.562 1175Z" fill="url(#paint19_linear_608_34)"/>
<path d="M514.355 741V743.188C514.355 746.195 513.964 748.893 513.18 751.281C512.396 753.669 511.275 755.702 509.816 757.379C508.376 759.056 506.645 760.341 504.621 761.234C502.598 762.109 500.355 762.547 497.895 762.547C495.452 762.547 493.219 762.109 491.195 761.234C489.19 760.341 487.449 759.056 485.973 757.379C484.496 755.702 483.348 753.669 482.527 751.281C481.725 748.893 481.324 746.195 481.324 743.188V741C481.324 737.992 481.725 735.303 482.527 732.934C483.329 730.546 484.46 728.513 485.918 726.836C487.395 725.141 489.135 723.855 491.141 722.98C493.164 722.087 495.397 721.641 497.84 721.641C500.301 721.641 502.543 722.087 504.566 722.98C506.59 723.855 508.331 725.141 509.789 726.836C511.247 728.513 512.368 730.546 513.152 732.934C513.954 735.303 514.355 737.992 514.355 741ZM507.492 743.188V740.945C507.492 738.721 507.273 736.762 506.836 735.066C506.417 733.353 505.788 731.922 504.949 730.773C504.129 729.607 503.117 728.732 501.914 728.148C500.711 727.547 499.353 727.246 497.84 727.246C496.327 727.246 494.978 727.547 493.793 728.148C492.608 728.732 491.596 729.607 490.758 730.773C489.938 731.922 489.309 733.353 488.871 735.066C488.434 736.762 488.215 738.721 488.215 740.945V743.188C488.215 745.411 488.434 747.38 488.871 749.094C489.309 750.807 489.947 752.257 490.785 753.441C491.642 754.608 492.663 755.492 493.848 756.094C495.033 756.677 496.382 756.969 497.895 756.969C499.426 756.969 500.784 756.677 501.969 756.094C503.154 755.492 504.156 754.608 504.977 753.441C505.797 752.257 506.417 750.807 506.836 749.094C507.273 747.38 507.492 745.411 507.492 743.188ZM528.602 755.438L535.438 732.414H539.648L538.5 739.305L531.609 762H527.836L528.602 755.438ZM524.582 732.414L529.914 755.547L530.352 762H526.141L518.129 732.414H524.582ZM546.047 755.273L551.215 732.414H557.641L549.656 762H545.445L546.047 755.273ZM540.359 732.414L547.113 755.164L547.961 762H544.188L537.215 739.277L536.066 732.414H540.359ZM568.66 738.73V762H562.07V732.414H568.277L568.66 738.73ZM567.484 746.113L565.352 746.086C565.37 743.99 565.661 742.066 566.227 740.316C566.81 738.566 567.612 737.062 568.633 735.805C569.672 734.547 570.911 733.581 572.352 732.906C573.792 732.214 575.396 731.867 577.164 731.867C578.586 731.867 579.871 732.068 581.02 732.469C582.186 732.852 583.18 733.48 584 734.355C584.839 735.23 585.477 736.37 585.914 737.773C586.352 739.159 586.57 740.863 586.57 742.887V762H579.953V742.859C579.953 741.438 579.743 740.316 579.324 739.496C578.923 738.658 578.331 738.065 577.547 737.719C576.781 737.354 575.824 737.172 574.676 737.172C573.546 737.172 572.534 737.409 571.641 737.883C570.747 738.357 569.991 739.004 569.371 739.824C568.77 740.645 568.305 741.592 567.977 742.668C567.648 743.743 567.484 744.892 567.484 746.113ZM606.34 762.547C604.152 762.547 602.174 762.191 600.406 761.48C598.656 760.751 597.161 759.74 595.922 758.445C594.701 757.151 593.762 755.629 593.105 753.879C592.449 752.129 592.121 750.242 592.121 748.219V747.125C592.121 744.81 592.458 742.714 593.133 740.836C593.807 738.958 594.746 737.354 595.949 736.023C597.152 734.674 598.574 733.645 600.215 732.934C601.855 732.223 603.633 731.867 605.547 731.867C607.661 731.867 609.512 732.223 611.098 732.934C612.684 733.645 613.996 734.647 615.035 735.941C616.092 737.217 616.876 738.74 617.387 740.508C617.915 742.276 618.18 744.227 618.18 746.359V749.176H595.32V744.445H611.672V743.926C611.635 742.741 611.398 741.629 610.961 740.59C610.542 739.551 609.895 738.712 609.02 738.074C608.145 737.436 606.978 737.117 605.52 737.117C604.426 737.117 603.451 737.354 602.594 737.828C601.755 738.284 601.053 738.949 600.488 739.824C599.923 740.699 599.486 741.757 599.176 742.996C598.884 744.217 598.738 745.594 598.738 747.125V748.219C598.738 749.513 598.911 750.716 599.258 751.828C599.622 752.922 600.151 753.879 600.844 754.699C601.536 755.52 602.375 756.167 603.359 756.641C604.344 757.096 605.465 757.324 606.723 757.324C608.309 757.324 609.721 757.005 610.961 756.367C612.201 755.729 613.276 754.827 614.188 753.66L617.66 757.023C617.022 757.953 616.193 758.846 615.172 759.703C614.151 760.542 612.902 761.225 611.426 761.754C609.967 762.283 608.272 762.547 606.34 762.547ZM629.938 738.047V762H623.348V732.414H629.637L629.938 738.047ZM638.988 732.223L638.934 738.348C638.533 738.275 638.095 738.22 637.621 738.184C637.165 738.147 636.71 738.129 636.254 738.129C635.124 738.129 634.13 738.293 633.273 738.621C632.417 738.931 631.697 739.387 631.113 739.988C630.548 740.572 630.111 741.283 629.801 742.121C629.491 742.96 629.309 743.898 629.254 744.938L627.75 745.047C627.75 743.188 627.932 741.465 628.297 739.879C628.661 738.293 629.208 736.898 629.938 735.695C630.685 734.492 631.615 733.553 632.727 732.879C633.857 732.204 635.16 731.867 636.637 731.867C637.038 731.867 637.466 731.904 637.922 731.977C638.396 732.049 638.751 732.132 638.988 732.223ZM659.715 753.988C659.715 753.332 659.551 752.74 659.223 752.211C658.895 751.664 658.266 751.172 657.336 750.734C656.424 750.297 655.076 749.896 653.289 749.531C651.721 749.185 650.281 748.775 648.969 748.301C647.674 747.809 646.562 747.216 645.633 746.523C644.703 745.831 643.983 745.01 643.473 744.062C642.962 743.115 642.707 742.021 642.707 740.781C642.707 739.578 642.971 738.439 643.5 737.363C644.029 736.288 644.785 735.34 645.77 734.52C646.754 733.699 647.948 733.052 649.352 732.578C650.773 732.104 652.359 731.867 654.109 731.867C656.589 731.867 658.712 732.286 660.48 733.125C662.267 733.945 663.634 735.066 664.582 736.488C665.53 737.892 666.004 739.478 666.004 741.246H659.414C659.414 740.462 659.214 739.733 658.812 739.059C658.43 738.366 657.846 737.81 657.062 737.391C656.279 736.953 655.294 736.734 654.109 736.734C652.979 736.734 652.04 736.917 651.293 737.281C650.564 737.628 650.017 738.083 649.652 738.648C649.306 739.214 649.133 739.833 649.133 740.508C649.133 741 649.224 741.447 649.406 741.848C649.607 742.23 649.935 742.586 650.391 742.914C650.846 743.224 651.466 743.516 652.25 743.789C653.052 744.062 654.055 744.327 655.258 744.582C657.518 745.056 659.46 745.667 661.082 746.414C662.723 747.143 663.98 748.091 664.855 749.258C665.73 750.406 666.168 751.865 666.168 753.633C666.168 754.945 665.885 756.148 665.32 757.242C664.773 758.318 663.971 759.257 662.914 760.059C661.857 760.842 660.59 761.453 659.113 761.891C657.655 762.328 656.014 762.547 654.191 762.547C651.512 762.547 649.242 762.073 647.383 761.125C645.523 760.159 644.111 758.928 643.145 757.434C642.197 755.921 641.723 754.353 641.723 752.73H648.094C648.167 753.952 648.504 754.927 649.105 755.656C649.725 756.367 650.491 756.887 651.402 757.215C652.332 757.525 653.289 757.68 654.273 757.68C655.458 757.68 656.452 757.525 657.254 757.215C658.056 756.887 658.667 756.449 659.086 755.902C659.505 755.337 659.715 754.699 659.715 753.988ZM678.445 720V762H671.883V720H678.445ZM677.297 746.113L675.164 746.086C675.182 744.044 675.465 742.158 676.012 740.426C676.577 738.694 677.361 737.19 678.363 735.914C679.384 734.62 680.605 733.626 682.027 732.934C683.449 732.223 685.026 731.867 686.758 731.867C688.216 731.867 689.529 732.068 690.695 732.469C691.88 732.87 692.901 733.517 693.758 734.41C694.615 735.285 695.262 736.434 695.699 737.855C696.155 739.259 696.383 740.973 696.383 742.996V762H689.766V742.941C689.766 741.52 689.556 740.389 689.137 739.551C688.736 738.712 688.143 738.111 687.359 737.746C686.576 737.363 685.618 737.172 684.488 737.172C683.303 737.172 682.255 737.409 681.344 737.883C680.451 738.357 679.703 739.004 679.102 739.824C678.5 740.645 678.044 741.592 677.734 742.668C677.443 743.743 677.297 744.892 677.297 746.113ZM710.109 732.414V762H703.492V732.414H710.109ZM703.055 724.648C703.055 723.646 703.383 722.816 704.039 722.16C704.714 721.486 705.643 721.148 706.828 721.148C707.995 721.148 708.915 721.486 709.59 722.16C710.264 722.816 710.602 723.646 710.602 724.648C710.602 725.633 710.264 726.453 709.59 727.109C708.915 727.766 707.995 728.094 706.828 728.094C705.643 728.094 704.714 727.766 704.039 727.109C703.383 726.453 703.055 725.633 703.055 724.648ZM723.945 738.102V773.375H717.355V732.414H723.426L723.945 738.102ZM743.223 746.934V747.508C743.223 749.659 742.967 751.655 742.457 753.496C741.965 755.319 741.227 756.914 740.242 758.281C739.276 759.63 738.082 760.678 736.66 761.426C735.238 762.173 733.598 762.547 731.738 762.547C729.897 762.547 728.284 762.21 726.898 761.535C725.531 760.842 724.374 759.867 723.426 758.609C722.478 757.352 721.712 755.875 721.129 754.18C720.564 752.466 720.163 750.589 719.926 748.547V746.332C720.163 744.163 720.564 742.194 721.129 740.426C721.712 738.658 722.478 737.135 723.426 735.859C724.374 734.583 725.531 733.599 726.898 732.906C728.266 732.214 729.861 731.867 731.684 731.867C733.543 731.867 735.193 732.232 736.633 732.961C738.073 733.672 739.285 734.693 740.27 736.023C741.254 737.336 741.992 738.922 742.484 740.781C742.977 742.622 743.223 744.673 743.223 746.934ZM736.633 747.508V746.934C736.633 745.566 736.505 744.299 736.25 743.133C735.995 741.948 735.594 740.909 735.047 740.016C734.5 739.122 733.798 738.43 732.941 737.938C732.103 737.427 731.091 737.172 729.906 737.172C728.74 737.172 727.737 737.372 726.898 737.773C726.06 738.156 725.358 738.694 724.793 739.387C724.228 740.079 723.79 740.891 723.48 741.82C723.171 742.732 722.952 743.725 722.824 744.801V750.105C723.043 751.418 723.417 752.621 723.945 753.715C724.474 754.809 725.221 755.684 726.188 756.34C727.172 756.978 728.43 757.297 729.961 757.297C731.146 757.297 732.158 757.042 732.996 756.531C733.835 756.021 734.518 755.319 735.047 754.426C735.594 753.514 735.995 752.466 736.25 751.281C736.505 750.096 736.633 748.839 736.633 747.508Z" fill="#1C4670"/>
<defs>
<filter id="filter0_d_608_34" x="39" y="336" width="959.957" height="242.109" filterUnits="userSpaceOnUse" color-interpolation-filters="sRGB">
<feFlood flood-opacity="0" result="BackgroundImageFix"/>
<feColorMatrix in="SourceAlpha" type="matrix" values="0 0 0 0 0 0 0 0 0 0 0 0 0 0 0 0 0 0 127 0" result="hardAlpha"/>
<feOffset dy="4"/>
<feGaussianBlur stdDeviation="2"/>
<feComposite in2="hardAlpha" operator="out"/>
<feColorMatrix type="matrix" values="0 0 0 0 0 0 0 0 0 0 0 0 0 0 0 0 0 0 0.25 0"/>
<feBlend mode="normal" in2="BackgroundImageFix" result="effect1_dropShadow_608_34"/>
<feBlend mode="normal" in="SourceGraphic" in2="effect1_dropShadow_608_34" result="shape"/>
</filter>
<filter id="filter1_d_608_34" x="39" y="46" width="959.957" height="242.102" filterUnits="userSpaceOnUse" color-interpolation-filters="sRGB">
<feFlood flood-opacity="0" result="BackgroundImageFix"/>
<feColorMatrix in="SourceAlpha" type="matrix" values="0 0 0 0 0 0 0 0 0 0 0 0 0 0 0 0 0 0 127 0" result="hardAlpha"/>
<feOffset dy="4"/>
<feGaussianBlur stdDeviation="2"/>
<feComposite in2="hardAlpha" operator="out"/>
<feColorMatrix type="matrix" values="0 0 0 0 0 0 0 0 0 0 0 0 0 0 0 0 0 0 0.25 0"/>
<feBlend mode="normal" in2="BackgroundImageFix" result="effect1_dropShadow_608_34"/>
<feBlend mode="normal" in="SourceGraphic" in2="effect1_dropShadow_608_34" result="shape"/>
</filter>
<filter id="filter2_d_608_34" x="39" y="912" width="959.957" height="242.109" filterUnits="userSpaceOnUse" color-interpolation-filters="sRGB">
<feFlood flood-opacity="0" result="BackgroundImageFix"/>
<feColorMatrix in="SourceAlpha" type="matrix" values="0 0 0 0 0 0 0 0 0 0 0 0 0 0 0 0 0 0 127 0" result="hardAlpha"/>
<feOffset dy="4"/>
<feGaussianBlur stdDeviation="2"/>
<feComposite in2="hardAlpha" operator="out"/>
<feColorMatrix type="matrix" values="0 0 0 0 0 0 0 0 0 0 0 0 0 0 0 0 0 0 0.25 0"/>
<feBlend mode="normal" in2="BackgroundImageFix" result="effect1_dropShadow_608_34"/>
<feBlend mode="normal" in="SourceGraphic" in2="effect1_dropShadow_608_34" result="shape"/>
</filter>
<filter id="filter3_d_608_34" x="39" y="620" width="959.957" height="242.102" filterUnits="userSpaceOnUse" color-interpolation-filters="sRGB">
<feFlood flood-opacity="0" result="BackgroundImageFix"/>
<feColorMatrix in="SourceAlpha" type="matrix" values="0 0 0 0 0 0 0 0 0 0 0 0 0 0 0 0 0 0 127 0" result="hardAlpha"/>
<feOffset dy="4"/>
<feGaussianBlur stdDeviation="2"/>
<feComposite in2="hardAlpha" operator="out"/>
<feColorMatrix type="matrix" values="0 0 0 0 0 0 0 0 0 0 0 0 0 0 0 0 0 0 0.25 0"/>
<feBlend mode="normal" in2="BackgroundImageFix" result="effect1_dropShadow_608_34"/>
<feBlend mode="normal" in="SourceGraphic" in2="effect1_dropShadow_608_34" result="shape"/>
</filter>
<filter id="filter4_d_608_34" x="39" y="1199" width="959.957" height="242.102" filterUnits="userSpaceOnUse" color-interpolation-filters="sRGB">
<feFlood flood-opacity="0" result="BackgroundImageFix"/>
<feColorMatrix in="SourceAlpha" type="matrix" values="0 0 0 0 0 0 0 0 0 0 0 0 0 0 0 0 0 0 127 0" result="hardAlpha"/>
<feOffset dy="4"/>
<feGaussianBlur stdDeviation="2"/>
<feComposite in2="hardAlpha" operator="out"/>
<feColorMatrix type="matrix" values="0 0 0 0 0 0 0 0 0 0 0 0 0 0 0 0 0 0 0.25 0"/>
<feBlend mode="normal" in2="BackgroundImageFix" result="effect1_dropShadow_608_34"/>
<feBlend mode="normal" in="SourceGraphic" in2="effect1_dropShadow_608_34" result="shape"/>
</filter>
<linearGradient id="paint0_linear_608_34" x1="77.0952" y1="395.976" x2="231.516" y2="395.976" gradientUnits="userSpaceOnUse">
<stop stop-color="#229CB4"/>
<stop offset="1" stop-color="#5ED8F0"/>
</linearGradient>
<linearGradient id="paint1_linear_608_34" x1="60.0945" y1="323.174" x2="248.586" y2="323.174" gradientUnits="userSpaceOnUse">
<stop stop-color="#229CB4"/>
<stop offset="1" stop-color="#5ED8F0"/>
</linearGradient>
<linearGradient id="paint2_linear_608_34" x1="43.0164" y1="323.174" x2="77.1107" y2="323.174" gradientUnits="userSpaceOnUse">
<stop stop-color="#01819A"/>
<stop offset="1" stop-color="#3DBDD6"/>
</linearGradient>
<linearGradient id="paint3_linear_608_34" x1="231.517" y1="323.174" x2="265.619" y2="323.174" gradientUnits="userSpaceOnUse">
<stop stop-color="#01819A"/>
<stop offset="1" stop-color="#3DBDD6"/>
</linearGradient>
<linearGradient id="paint4_linear_608_34" x1="77.103" y1="106.978" x2="231.524" y2="106.978" gradientUnits="userSpaceOnUse">
<stop stop-color="#E19000"/>
<stop offset="1" stop-color="#FFCC1E"/>
</linearGradient>
<linearGradient id="paint5_linear_608_34" x1="60.0945" y1="34.1745" x2="248.586" y2="34.1745" gradientUnits="userSpaceOnUse">
<stop stop-color="#E19000"/>
<stop offset="1" stop-color="#FFCC1E"/>
</linearGradient>
<linearGradient id="paint6_linear_608_34" x1="43.0164" y1="34.1745" x2="77.1107" y2="34.1745" gradientUnits="userSpaceOnUse">
<stop stop-color="#E15E00"/>
<stop offset="1" stop-color="#FF9A1E"/>
</linearGradient>
<linearGradient id="paint7_linear_608_34" x1="231.517" y1="34.1745" x2="265.619" y2="34.1745" gradientUnits="userSpaceOnUse">
<stop stop-color="#E15E00"/>
<stop offset="1" stop-color="#FF9A1E"/>
</linearGradient>
<linearGradient id="paint8_linear_608_34" x1="77.0952" y1="971.976" x2="231.516" y2="971.976" gradientUnits="userSpaceOnUse">
<stop stop-color="#229CB4"/>
<stop offset="1" stop-color="#5ED8F0"/>
</linearGradient>
<linearGradient id="paint9_linear_608_34" x1="60.0945" y1="899.174" x2="248.586" y2="899.174" gradientUnits="userSpaceOnUse">
<stop stop-color="#229CB4"/>
<stop offset="1" stop-color="#5ED8F0"/>
</linearGradient>
<linearGradient id="paint10_linear_608_34" x1="43.0164" y1="899.174" x2="77.1107" y2="899.174" gradientUnits="userSpaceOnUse">
<stop stop-color="#01819A"/>
<stop offset="1" stop-color="#3DBDD6"/>
</linearGradient>
<linearGradient id="paint11_linear_608_34" x1="231.517" y1="899.174" x2="265.619" y2="899.174" gradientUnits="userSpaceOnUse">
<stop stop-color="#01819A"/>
<stop offset="1" stop-color="#3DBDD6"/>
</linearGradient>
<linearGradient id="paint12_linear_608_34" x1="77.103" y1="681.978" x2="231.524" y2="681.978" gradientUnits="userSpaceOnUse">
<stop stop-color="#E19000"/>
<stop offset="1" stop-color="#FFCC1E"/>
</linearGradient>
<linearGradient id="paint13_linear_608_34" x1="60.0945" y1="609.174" x2="248.586" y2="609.174" gradientUnits="userSpaceOnUse">
<stop stop-color="#E19000"/>
<stop offset="1" stop-color="#FFCC1E"/>
</linearGradient>
<linearGradient id="paint14_linear_608_34" x1="43.0164" y1="609.174" x2="77.1107" y2="609.174" gradientUnits="userSpaceOnUse">
<stop stop-color="#E15E00"/>
<stop offset="1" stop-color="#FF9A1E"/>
</linearGradient>
<linearGradient id="paint15_linear_608_34" x1="231.517" y1="609.174" x2="265.619" y2="609.174" gradientUnits="userSpaceOnUse">
<stop stop-color="#E15E00"/>
<stop offset="1" stop-color="#FF9A1E"/>
</linearGradient>
<linearGradient id="paint16_linear_608_34" x1="77.103" y1="1259.98" x2="231.524" y2="1259.98" gradientUnits="userSpaceOnUse">
<stop stop-color="#E19000"/>
<stop offset="1" stop-color="#FFCC1E"/>
</linearGradient>
<linearGradient id="paint17_linear_608_34" x1="60.0945" y1="1187.17" x2="248.586" y2="1187.17" gradientUnits="userSpaceOnUse">
<stop stop-color="#E19000"/>
<stop offset="1" stop-color="#FFCC1E"/>
</linearGradient>
<linearGradient id="paint18_linear_608_34" x1="43.0164" y1="1187.17" x2="77.1107" y2="1187.17" gradientUnits="userSpaceOnUse">
<stop stop-color="#E15E00"/>
<stop offset="1" stop-color="#FF9A1E"/>
</linearGradient>
<linearGradient id="paint19_linear_608_34" x1="231.517" y1="1187.17" x2="265.619" y2="1187.17" gradientUnits="userSpaceOnUse">
<stop stop-color="#E15E00"/>
<stop offset="1" stop-color="#FF9A1E"/>
</linearGradient>
</defs>
</svg>
