<svg width="1080" height="1080" viewBox="0 0 1080 1080" fill="none" xmlns="http://www.w3.org/2000/svg">
<g clip-path="url(#clip0_608_139)">
<rect width="1080" height="1080" transform="translate(1080 1080) rotate(180)" fill="white"/>
<path d="M779.567 863.511C779.567 863.511 830.87 897.68 861.958 869.772C893.045 841.864 860.137 821.066 889.259 787.406C918.381 753.746 961.869 756.707 968.446 713.68C975.023 670.652 933.33 681.646 969.368 636.993C1005.41 592.339 987.69 463.743 936.558 476.314C885.425 488.885 904.669 607.361 891.759 622.213C878.848 637.065 846.426 626.339 842.276 657.887C838.126 689.436 857.686 728.483 834.074 748.238C810.461 767.992 765.176 813.203 779.567 863.511Z" fill="#1C4670"/>
<path d="M743.191 887.253C743.191 887.253 907.899 791.685 957.964 556.867" stroke="white" stroke-width="2" stroke-miterlimit="10"/>
<path d="M759.715 927.418C759.715 927.418 761.559 964.111 785.973 969.086C810.387 974.061 808.639 950.909 835.091 952.875C861.544 954.841 875.595 976.731 898.504 964.597C921.413 952.463 901.392 936.421 935.561 937.902C969.731 939.382 1024.92 885.094 1000.82 865.098C976.72 845.101 926.704 896.428 915.055 895.481C903.406 894.535 896.999 875.242 880.473 884.439C863.946 893.637 852.128 916.886 834.363 912.59C816.599 908.295 778.692 902.64 759.715 927.418Z" fill="#FFA229"/>
<path d="M749.645 921.38C749.645 921.38 847.032 953.753 977.764 885.172" stroke="white" stroke-width="2" stroke-miterlimit="10"/>
<path d="M771.973 920.87C771.973 920.87 803.036 959.092 833.395 945.138C863.755 931.184 843.539 907.523 873.729 888.691C903.918 869.859 936.437 882.454 951.629 851.172C966.821 819.891 932.409 818.386 970.51 792.929C1008.61 767.472 1025.38 665.036 983.469 662.488C941.558 659.94 928.089 754.973 914.742 763.225C901.394 771.476 879.165 755.604 868.632 778.659C858.1 801.714 863.779 836.199 840.967 845.688C818.155 855.176 772.895 879.008 771.973 920.87Z" fill="#FFBB6A"/>
<path d="M754.082 922.078C754.082 922.078 887.338 880.215 974.436 702.5" stroke="white" stroke-width="2" stroke-miterlimit="10"/>
<path d="M846.936 909.521C859.434 882.365 894.016 864.285 918.842 857.952C943.668 851.618 941.29 838.294 943.304 812.522C945.27 787.404 1001.55 736.466 1004.39 733.82C998.611 758.331 986.453 782.356 970.63 792.865C932.529 818.419 966.966 819.899 951.75 851.108C936.534 882.317 904.039 869.819 873.849 888.651C843.66 907.483 863.875 931.12 833.516 945.074C816.528 952.888 799.249 944.297 787.406 935.245C787.406 935.245 834.341 936.653 846.936 909.521Z" fill="#FFA229"/>
<path d="M430.666 863.517C430.666 863.517 379.387 897.686 348.276 869.778C317.164 841.869 350.096 821.072 320.998 787.412C291.901 753.752 248.388 756.713 241.811 713.71C235.235 670.707 276.903 681.676 240.865 637.023C204.827 592.369 222.664 463.846 273.7 476.344C324.736 488.842 305.564 607.391 318.474 622.243C331.385 637.095 363.831 626.345 367.957 657.893C372.083 689.442 352.547 728.489 376.184 748.243C399.821 767.997 445.081 813.209 430.666 863.517Z" fill="#1C4670"/>
<path d="M467.071 887.253C467.071 887.253 302.363 791.685 252.371 556.867" stroke="white" stroke-width="2" stroke-miterlimit="10"/>
<path d="M450.544 927.418C450.544 927.418 448.675 964.111 424.261 969.086C399.848 974.061 401.595 950.909 375.143 952.875C348.69 954.841 334.664 976.731 311.73 964.597C288.797 952.463 308.867 936.421 274.697 937.902C240.528 939.382 185.342 885.094 209.44 865.098C233.538 845.101 283.531 896.428 295.179 895.481C306.828 894.535 313.259 875.242 329.786 884.439C346.312 893.637 358.106 916.886 375.895 912.59C393.683 908.295 431.542 902.64 450.544 927.418Z" fill="#FFA229"/>
<path d="M460.589 921.38C460.589 921.38 363.201 953.753 232.469 885.172" stroke="white" stroke-width="2" stroke-miterlimit="10"/>
<path d="M438.262 920.87C438.262 920.87 407.199 959.092 376.84 945.138C346.48 931.184 366.72 907.523 336.531 888.691C306.341 869.859 273.822 882.454 258.606 851.172C243.39 819.891 277.826 818.386 239.75 792.929C201.673 767.472 184.855 665.036 226.766 662.488C268.677 659.94 282.146 754.973 295.493 763.225C308.841 771.476 331.095 755.604 341.603 778.659C352.111 801.714 346.456 836.199 369.268 845.688C392.08 855.176 437.34 879.008 438.262 920.87Z" fill="#FFBB6A"/>
<path d="M456.221 922.078C456.221 922.078 322.99 880.215 235.867 702.5" stroke="white" stroke-width="2" stroke-miterlimit="10"/>
<path d="M363.419 909.521C350.945 882.365 316.363 864.285 291.537 857.952C266.711 851.618 269.065 838.294 267.051 812.522C265.085 787.404 208.807 736.466 205.992 733.82C211.768 758.331 223.902 782.356 239.749 792.865C277.826 818.419 243.414 819.899 258.605 851.108C273.797 882.317 306.316 869.819 336.53 888.651C366.744 907.483 346.504 931.12 376.839 945.074C393.827 952.888 411.106 944.297 422.949 935.245C422.949 935.245 375.893 936.653 363.419 909.521Z" fill="#FFA229"/>
<g style="mix-blend-mode:multiply">
<path d="M602.627 1009.71C784.518 1009.71 931.969 1000.7 931.969 989.572C931.969 978.448 784.518 969.43 602.627 969.43C420.737 969.43 273.285 978.448 273.285 989.572C273.285 1000.7 420.737 1009.71 602.627 1009.71Z" fill="#E2E2E2"/>
</g>
<path d="M905.181 58.2578H301.683C292.998 58.2578 285.957 65.2985 285.957 73.9835V971.854C285.957 980.539 292.998 987.58 301.683 987.58H905.181C913.866 987.58 920.907 980.539 920.907 971.854V73.9835C920.907 65.2985 913.866 58.2578 905.181 58.2578Z" fill="#1C4670"/>
<path d="M885.523 90.6406H316V987.419H885.523V90.6406Z" fill="#FCFCFC"/>
<path d="M810.924 442.602H474.059V456.823H810.924V442.602Z" fill="#D9D9D9"/>
<path d="M810.924 498.797H474.059V513.018H810.924V498.797Z" fill="#D9D9D9"/>
<path d="M810.924 555.008H474.059V569.229H810.924V555.008Z" fill="#D9D9D9"/>
<path d="M810.924 611.227H474.059V625.448H810.924V611.227Z" fill="#D9D9D9"/>
<path d="M810.924 667.438H474.059V681.659H810.924V667.438Z" fill="#D9D9D9"/>
<path d="M810.924 723.633H474.059V737.854H810.924V723.633Z" fill="#D9D9D9"/>
<path d="M810.924 787.094H551.328V801.315H810.924V787.094Z" fill="#D9D9D9"/>
<path d="M810.924 843.328H551.328V857.549H810.924V843.328Z" fill="#D9D9D9"/>
<path d="M810.924 897.305H551.328V911.526H810.924V897.305Z" fill="#D9D9D9"/>
<path d="M440.347 441.484H376.668C374.524 441.484 372.785 443.223 372.785 445.367V509.047C372.785 511.191 374.524 512.93 376.668 512.93H440.347C442.492 512.93 444.23 511.191 444.23 509.047V445.367C444.23 443.223 442.492 441.484 440.347 441.484Z" fill="#D9D9D9"/>
<path d="M386.328 475.403L404.189 491.323L430.69 463.852" stroke="#28478F" stroke-width="3" stroke-miterlimit="10"/>
<path d="M440.347 553.93H376.668C374.524 553.93 372.785 555.668 372.785 557.813V621.492C372.785 623.636 374.524 625.375 376.668 625.375H440.347C442.492 625.375 444.23 623.636 444.23 621.492V557.813C444.23 555.668 442.492 553.93 440.347 553.93Z" fill="#D9D9D9"/>
<path d="M386.328 587.856L404.189 603.776L430.69 576.305" stroke="#FCFCFC" stroke-width="3" stroke-miterlimit="10"/>
<path d="M376.669 666.399H440.324C440.834 666.399 441.339 666.499 441.81 666.694C442.281 666.889 442.709 667.175 443.07 667.536C443.43 667.896 443.716 668.324 443.911 668.795C444.107 669.267 444.207 669.772 444.207 670.281V733.937C444.207 734.966 443.798 735.954 443.07 736.682C442.342 737.41 441.354 737.819 440.324 737.819H376.669C375.633 737.819 374.639 737.408 373.906 736.675C373.173 735.942 372.762 734.949 372.762 733.912V670.306C372.759 669.792 372.857 669.282 373.053 668.807C373.248 668.331 373.536 667.899 373.899 667.536C374.262 667.172 374.694 666.885 375.17 666.689C375.645 666.494 376.155 666.395 376.669 666.399Z" fill="#D9D9D9"/>
<path d="M386.328 700.317L404.189 716.237L430.69 688.766" stroke="#FCFCFC" stroke-width="3" stroke-miterlimit="10"/>
<path d="M408.363 966.422L394.094 945.624L369.219 949.677L406.64 862.094L445.809 878.839L408.363 966.422Z" fill="#FFDA78"/>
<path d="M384.336 914.24C384.887 915.268 385.609 916.196 386.472 916.982C390.791 920.768 398.606 919.53 404.066 921.836C409.526 924.141 414.064 930.669 419.792 931.179C421.079 931.267 422.372 931.111 423.602 930.718L445.807 878.784L406.638 862.039L384.336 914.24Z" fill="#E0AB67"/>
<path d="M456.387 966.422L470.657 945.624L495.531 949.677L458.11 862.094L418.941 878.839L456.387 966.422Z" fill="#FFDA78"/>
<path d="M480.485 914.249C479.942 915.283 479.219 916.212 478.35 916.991C474.03 920.777 466.216 919.54 460.755 921.845C455.295 924.151 450.757 930.679 445.054 931.188C443.766 931.277 442.473 931.12 441.244 930.727L418.941 878.745L458.086 862L480.485 914.249Z" fill="#E0AB67"/>
<path d="M506.258 856.367C506.258 863.647 498.977 869.763 496.745 876.363C494.512 882.964 496.745 892.453 492.692 898.205C488.639 903.956 478.981 904.563 473.278 908.761C467.575 912.96 464.08 921.793 457.212 924.026C450.344 926.259 442.651 921.09 435.371 921.09C428.09 921.09 420.009 926.162 413.408 924.026C406.807 921.89 403.07 912.911 397.367 908.761C391.664 904.612 382.078 903.908 377.953 898.205C373.827 892.502 376.157 883.256 373.924 876.363C371.691 869.471 364.387 863.696 364.387 856.367C364.387 849.038 371.788 842.995 373.924 836.394C376.06 829.793 373.803 820.304 377.953 814.553C382.102 808.801 391.688 808.194 397.367 803.996C403.046 799.798 406.565 790.964 413.408 788.731C420.252 786.499 427.969 791.668 435.371 791.668C442.773 791.668 450.733 786.596 457.212 788.731C463.692 790.867 467.575 799.846 473.278 803.996C478.981 808.146 488.566 808.85 492.692 814.553C496.818 820.256 494.512 829.502 496.745 836.394C498.977 843.286 506.258 849.062 506.258 856.367Z" fill="#FFA229"/>
<path d="M474.858 884.544C489.332 860.907 481.903 830.011 458.266 815.537C434.628 801.063 403.732 808.492 389.258 832.13C374.784 855.767 382.213 886.663 405.851 901.137C429.489 915.611 460.384 908.182 474.858 884.544Z" fill="#E0AB67"/>
<path d="M435.229 906.576C462.947 906.576 485.416 884.107 485.416 856.389C485.416 828.672 462.947 806.203 435.229 806.203C407.512 806.203 385.043 828.672 385.043 856.389C385.043 884.107 407.512 906.576 435.229 906.576Z" fill="#FFDA78"/>
<path d="M481.049 863.952C486.752 839.697 471.712 815.412 447.457 809.71C423.203 804.007 398.918 819.047 393.216 843.302C387.513 867.556 402.553 891.841 426.808 897.544C451.062 903.246 475.347 888.206 481.049 863.952Z" fill="#FFE68A"/>
<path d="M454.956 842.982C454.956 844.73 454.438 846.439 453.466 847.892C452.494 849.345 451.113 850.478 449.498 851.146C447.882 851.813 446.105 851.987 444.39 851.644C442.676 851.301 441.102 850.457 439.868 849.22C438.633 847.982 437.794 846.406 437.456 844.69C437.118 842.975 437.296 841.198 437.968 839.585C438.641 837.971 439.777 836.593 441.233 835.625C442.689 834.658 444.399 834.144 446.147 834.148C447.306 834.148 448.453 834.377 449.524 834.821C450.594 835.266 451.566 835.917 452.385 836.737C453.203 837.558 453.851 838.532 454.293 839.603C454.734 840.675 454.959 841.823 454.956 842.982Z" fill="#FFFFA6"/>
<path d="M431.954 791.71C432.512 791.71 433.07 791.71 433.629 791.71C427.513 791.127 421.033 787.778 415.379 788.458C420.621 788.943 426.421 791.71 431.954 791.71Z" fill="#FFDA78"/>
<path d="M431.954 921.039C426.518 921.039 420.718 923.83 415.379 924.388C421.033 925.068 427.513 921.719 433.629 921.136C432.973 921.088 432.415 921.039 431.954 921.039Z" fill="#FFDA78"/>
<path d="M496.748 836.395C494.516 829.552 496.748 820.305 492.696 814.554C488.643 808.802 478.984 808.196 473.281 803.997C467.578 799.799 464.084 790.965 457.216 788.733C455.471 788.204 453.633 788.063 451.828 788.32C452.521 788.383 453.204 788.521 453.867 788.733C460.71 790.965 464.205 799.848 469.908 803.997C475.611 808.147 485.197 808.851 489.322 814.554C493.448 820.257 491.118 829.503 493.351 836.395C495.583 843.287 502.888 849.063 502.888 856.368C502.888 863.673 495.486 869.764 493.351 876.365C491.215 882.966 493.472 892.454 489.322 898.206C485.172 903.958 475.587 904.564 469.908 908.763C464.229 912.961 460.71 921.795 453.867 924.027C453.204 924.239 452.521 924.377 451.828 924.44C453.633 924.697 455.471 924.556 457.216 924.027C464.084 921.795 467.578 912.912 473.281 908.763C478.984 904.613 488.57 903.909 492.696 898.206C496.821 892.503 494.516 883.257 496.748 876.365C498.981 869.473 506.261 863.697 506.261 856.368C506.261 849.039 498.884 842.996 496.748 836.395Z" fill="#FFDA78"/>
<path d="M418.072 194.112H423.175C423.039 195.918 422.538 197.52 421.672 198.918C420.806 200.303 419.6 201.392 418.054 202.184C416.507 202.975 414.633 203.371 412.432 203.371C410.737 203.371 409.209 203.074 407.849 202.48C406.5 201.874 405.344 201.015 404.379 199.901C403.426 198.776 402.697 197.427 402.189 195.856C401.682 194.273 401.429 192.498 401.429 190.531V188.472C401.429 186.505 401.688 184.73 402.208 183.146C402.728 181.563 403.47 180.215 404.435 179.102C405.412 177.976 406.581 177.11 407.941 176.504C409.314 175.898 410.848 175.595 412.543 175.595C414.745 175.595 416.606 176.003 418.128 176.819C419.649 177.623 420.831 178.73 421.672 180.141C422.513 181.551 423.02 183.171 423.193 185.002H418.091C417.992 183.864 417.744 182.899 417.349 182.107C416.965 181.316 416.384 180.716 415.604 180.308C414.838 179.887 413.817 179.677 412.543 179.677C411.553 179.677 410.681 179.862 409.927 180.233C409.185 180.604 408.566 181.161 408.071 181.903C407.576 182.633 407.205 183.549 406.958 184.649C406.711 185.738 406.587 187 406.587 188.435V190.531C406.587 191.904 406.698 193.135 406.921 194.224C407.144 195.312 407.49 196.234 407.96 196.988C408.43 197.743 409.036 198.318 409.778 198.714C410.521 199.11 411.405 199.308 412.432 199.308C413.681 199.308 414.695 199.11 415.475 198.714C416.266 198.318 416.866 197.737 417.274 196.97C417.695 196.203 417.961 195.25 418.072 194.112ZM425.884 193.166V192.776C425.884 191.304 426.094 189.95 426.515 188.713C426.935 187.464 427.548 186.381 428.352 185.466C429.156 184.55 430.139 183.839 431.302 183.332C432.465 182.812 433.788 182.553 435.272 182.553C436.782 182.553 438.118 182.812 439.28 183.332C440.455 183.839 441.445 184.55 442.249 185.466C443.053 186.381 443.665 187.464 444.086 188.713C444.507 189.95 444.717 191.304 444.717 192.776V193.166C444.717 194.626 444.507 195.98 444.086 197.229C443.665 198.466 443.053 199.549 442.249 200.477C441.445 201.392 440.462 202.103 439.299 202.61C438.136 203.118 436.806 203.371 435.31 203.371C433.825 203.371 432.495 203.118 431.32 202.61C430.145 202.103 429.156 201.392 428.352 200.477C427.548 199.549 426.935 198.466 426.515 197.229C426.094 195.98 425.884 194.626 425.884 193.166ZM430.782 192.776V193.166C430.782 194.044 430.869 194.867 431.042 195.634C431.215 196.401 431.481 197.075 431.84 197.656C432.199 198.238 432.662 198.695 433.231 199.029C433.813 199.351 434.506 199.512 435.31 199.512C436.101 199.512 436.782 199.351 437.351 199.029C437.92 198.695 438.383 198.238 438.742 197.656C439.113 197.075 439.385 196.401 439.559 195.634C439.732 194.867 439.818 194.044 439.818 193.166V192.776C439.818 191.91 439.732 191.1 439.559 190.346C439.385 189.579 439.113 188.905 438.742 188.323C438.383 187.729 437.913 187.266 437.332 186.932C436.763 186.585 436.076 186.412 435.272 186.412C434.481 186.412 433.8 186.585 433.231 186.932C432.662 187.266 432.199 187.729 431.84 188.323C431.481 188.905 431.215 189.579 431.042 190.346C430.869 191.1 430.782 191.91 430.782 192.776ZM453.159 187.043V203H448.261V182.924H452.881L453.159 187.043ZM452.436 192.238H450.933C450.933 190.84 451.1 189.554 451.434 188.379C451.78 187.204 452.287 186.183 452.955 185.317C453.623 184.439 454.446 183.759 455.423 183.276C456.412 182.794 457.557 182.553 458.855 182.553C459.758 182.553 460.587 182.689 461.342 182.961C462.096 183.221 462.746 183.635 463.29 184.204C463.847 184.761 464.273 185.491 464.57 186.394C464.867 187.284 465.016 188.354 465.016 189.604V203H460.117V190.104C460.117 189.164 459.981 188.428 459.709 187.896C459.449 187.365 459.072 186.993 458.577 186.783C458.082 186.561 457.489 186.449 456.796 186.449C456.029 186.449 455.367 186.604 454.811 186.913C454.266 187.21 453.815 187.624 453.456 188.156C453.11 188.688 452.85 189.3 452.677 189.993C452.516 190.686 452.436 191.434 452.436 192.238ZM464.645 191.329L462.622 191.7C462.634 190.438 462.808 189.257 463.142 188.156C463.476 187.043 463.964 186.072 464.607 185.243C465.263 184.402 466.073 183.746 467.038 183.276C468.015 182.794 469.141 182.553 470.415 182.553C471.405 182.553 472.295 182.695 473.087 182.979C473.891 183.252 474.577 183.691 475.146 184.297C475.715 184.891 476.148 185.664 476.445 186.616C476.755 187.569 476.909 188.731 476.909 190.104V203H471.974V190.086C471.974 189.109 471.838 188.36 471.565 187.841C471.306 187.321 470.928 186.963 470.434 186.765C469.939 186.554 469.357 186.449 468.689 186.449C468.009 186.449 467.415 186.579 466.908 186.839C466.413 187.086 465.993 187.433 465.646 187.878C465.312 188.323 465.059 188.843 464.886 189.437C464.725 190.018 464.645 190.649 464.645 191.329ZM486.205 186.783V210.719H481.288V182.924H485.834L486.205 186.783ZM499.101 192.758V193.147C499.101 194.607 498.927 195.962 498.581 197.211C498.247 198.448 497.752 199.53 497.097 200.458C496.441 201.373 495.625 202.091 494.647 202.61C493.683 203.118 492.569 203.371 491.308 203.371C490.071 203.371 488.994 203.136 488.079 202.666C487.164 202.184 486.391 201.503 485.76 200.625C485.129 199.747 484.622 198.726 484.238 197.563C483.867 196.388 483.589 195.108 483.403 193.723V192.479C483.589 191.007 483.867 189.672 484.238 188.472C484.622 187.259 485.129 186.214 485.76 185.336C486.391 184.445 487.158 183.759 488.061 183.276C488.976 182.794 490.046 182.553 491.271 182.553C492.545 182.553 493.664 182.794 494.629 183.276C495.606 183.759 496.429 184.451 497.097 185.354C497.765 186.257 498.266 187.334 498.6 188.583C498.934 189.832 499.101 191.224 499.101 192.758ZM494.184 193.147V192.758C494.184 191.867 494.103 191.045 493.942 190.29C493.782 189.523 493.534 188.855 493.2 188.286C492.866 187.705 492.433 187.253 491.901 186.932C491.369 186.61 490.726 186.449 489.972 186.449C489.217 186.449 488.568 186.573 488.023 186.82C487.479 187.068 487.034 187.42 486.688 187.878C486.341 188.336 486.069 188.88 485.871 189.511C485.686 190.129 485.562 190.816 485.5 191.57V194.65C485.611 195.566 485.828 196.388 486.149 197.118C486.471 197.848 486.941 198.429 487.56 198.862C488.19 199.295 489.007 199.512 490.009 199.512C490.763 199.512 491.407 199.345 491.938 199.011C492.47 198.677 492.903 198.219 493.237 197.638C493.571 197.044 493.812 196.364 493.961 195.597C494.109 194.83 494.184 194.013 494.184 193.147ZM513.74 198.732V189.474C513.74 188.793 513.623 188.206 513.388 187.711C513.153 187.216 512.794 186.833 512.312 186.561C511.829 186.288 511.217 186.152 510.475 186.152C509.819 186.152 509.244 186.264 508.749 186.486C508.267 186.709 507.896 187.024 507.636 187.433C507.376 187.828 507.246 188.286 507.246 188.806H502.329C502.329 187.977 502.527 187.191 502.923 186.449C503.319 185.695 503.882 185.027 504.611 184.445C505.354 183.852 506.238 183.388 507.265 183.054C508.304 182.72 509.466 182.553 510.753 182.553C512.274 182.553 513.629 182.812 514.816 183.332C516.016 183.839 516.956 184.606 517.637 185.633C518.329 186.66 518.676 187.952 518.676 189.511V198.269C518.676 199.271 518.738 200.13 518.861 200.848C518.997 201.553 519.195 202.165 519.455 202.685V203H514.464C514.229 202.493 514.049 201.85 513.926 201.07C513.802 200.279 513.74 199.499 513.74 198.732ZM514.427 190.772L514.464 193.686H511.365C510.598 193.686 509.924 193.766 509.343 193.927C508.761 194.075 508.285 194.298 507.914 194.595C507.543 194.879 507.265 195.226 507.079 195.634C506.894 196.03 506.801 196.481 506.801 196.988C506.801 197.483 506.912 197.928 507.135 198.324C507.37 198.72 507.704 199.035 508.137 199.271C508.582 199.493 509.102 199.604 509.695 199.604C510.561 199.604 511.316 199.431 511.959 199.085C512.602 198.726 513.103 198.293 513.462 197.786C513.821 197.279 514.012 196.797 514.037 196.339L515.447 198.454C515.274 198.961 515.014 199.499 514.668 200.068C514.322 200.637 513.876 201.169 513.332 201.664C512.788 202.159 512.132 202.567 511.365 202.889C510.598 203.21 509.708 203.371 508.693 203.371C507.395 203.371 506.232 203.111 505.205 202.592C504.178 202.072 503.368 201.361 502.774 200.458C502.181 199.555 501.884 198.528 501.884 197.378C501.884 196.314 502.082 195.374 502.478 194.558C502.873 193.741 503.461 193.055 504.24 192.498C505.02 191.929 505.984 191.502 507.135 191.218C508.298 190.921 509.627 190.772 511.124 190.772H514.427ZM527.897 187.21V203H522.999V182.924H527.601L527.897 187.21ZM527.118 192.238H525.671C525.683 190.779 525.881 189.455 526.265 188.268C526.648 187.08 527.186 186.06 527.879 185.206C528.584 184.353 529.419 183.697 530.384 183.239C531.349 182.782 532.425 182.553 533.612 182.553C534.577 182.553 535.449 182.689 536.229 182.961C537.008 183.233 537.676 183.666 538.232 184.26C538.801 184.854 539.234 185.633 539.531 186.598C539.84 187.55 539.995 188.725 539.995 190.123V203H535.06V190.086C535.06 189.171 534.924 188.447 534.651 187.915C534.392 187.383 534.008 187.006 533.501 186.783C533.006 186.561 532.394 186.449 531.664 186.449C530.91 186.449 530.248 186.604 529.679 186.913C529.122 187.21 528.652 187.624 528.269 188.156C527.897 188.688 527.613 189.3 527.415 189.993C527.217 190.686 527.118 191.434 527.118 192.238ZM550.2 200.773L555.581 182.924H560.832L552.779 206.043C552.594 206.538 552.353 207.076 552.056 207.657C551.771 208.239 551.388 208.789 550.905 209.309C550.423 209.84 549.817 210.273 549.087 210.607C548.369 210.941 547.497 211.108 546.471 211.108C546.025 211.108 545.63 211.077 545.283 211.016C544.937 210.954 544.572 210.873 544.188 210.774V207.101C544.312 207.113 544.454 207.119 544.615 207.119C544.788 207.132 544.937 207.138 545.061 207.138C545.778 207.138 546.372 207.051 546.842 206.878C547.312 206.717 547.689 206.451 547.974 206.08C548.271 205.721 548.518 205.251 548.716 204.67L550.2 200.773ZM547.547 182.924L552.093 197.712L552.891 202.889L549.514 203.501L542.259 182.924H547.547ZM573.041 175.984H582.856C584.91 175.984 586.673 176.294 588.145 176.912C589.617 177.531 590.748 178.446 591.54 179.658C592.332 180.87 592.728 182.361 592.728 184.13C592.728 185.528 592.48 186.74 591.985 187.767C591.491 188.793 590.792 189.653 589.889 190.346C588.998 191.038 587.947 191.583 586.734 191.979L585.139 192.795H576.474L576.437 188.769H582.912C583.964 188.769 584.836 188.583 585.528 188.212C586.221 187.841 586.741 187.327 587.087 186.672C587.446 186.016 587.625 185.268 587.625 184.427C587.625 183.524 587.452 182.744 587.105 182.089C586.759 181.421 586.233 180.908 585.528 180.549C584.823 180.19 583.933 180.011 582.856 180.011H578.144V203H573.041V175.984ZM588.293 203L582.04 190.902L587.439 190.884L593.767 202.74V203H588.293ZM605.846 203.371C604.324 203.371 602.957 203.124 601.745 202.629C600.533 202.134 599.5 201.448 598.646 200.569C597.805 199.679 597.156 198.646 596.698 197.471C596.253 196.283 596.03 195.009 596.03 193.648V192.906C596.03 191.36 596.253 189.956 596.698 188.694C597.144 187.42 597.774 186.326 598.591 185.41C599.407 184.495 600.384 183.79 601.522 183.295C602.66 182.8 603.916 182.553 605.289 182.553C606.712 182.553 607.967 182.794 609.056 183.276C610.144 183.746 611.053 184.414 611.783 185.28C612.513 186.146 613.063 187.185 613.435 188.397C613.806 189.597 613.991 190.927 613.991 192.387V194.446H598.257V191.069H609.167V190.698C609.142 189.919 608.994 189.208 608.722 188.564C608.45 187.909 608.029 187.389 607.46 187.006C606.891 186.61 606.155 186.412 605.252 186.412C604.522 186.412 603.885 186.573 603.341 186.895C602.809 187.204 602.364 187.649 602.005 188.23C601.659 188.799 601.399 189.48 601.226 190.271C601.052 191.063 600.966 191.941 600.966 192.906V193.648C600.966 194.49 601.077 195.269 601.3 195.986C601.535 196.704 601.875 197.328 602.32 197.86C602.778 198.38 603.322 198.788 603.953 199.085C604.596 199.369 605.326 199.512 606.143 199.512C607.169 199.512 608.097 199.314 608.926 198.918C609.767 198.51 610.497 197.91 611.115 197.118L613.583 199.679C613.162 200.297 612.593 200.891 611.876 201.46C611.171 202.029 610.317 202.493 609.315 202.852C608.313 203.198 607.157 203.371 605.846 203.371ZM630.041 182.924H634.494V202.388C634.494 204.206 634.098 205.746 633.307 207.008C632.527 208.282 631.433 209.247 630.022 209.902C628.612 210.57 626.973 210.904 625.105 210.904C624.301 210.904 623.429 210.793 622.489 210.57C621.562 210.348 620.665 209.995 619.799 209.513C618.945 209.043 618.234 208.43 617.665 207.676L619.873 204.781C620.541 205.561 621.296 206.148 622.137 206.544C622.978 206.952 623.887 207.156 624.864 207.156C625.854 207.156 626.695 206.971 627.388 206.6C628.093 206.241 628.631 205.709 629.002 205.004C629.385 204.311 629.577 203.458 629.577 202.443V187.507L630.041 182.924ZM616.478 193.203V192.813C616.478 191.28 616.663 189.888 617.034 188.639C617.405 187.377 617.937 186.295 618.63 185.392C619.335 184.489 620.182 183.79 621.172 183.295C622.174 182.8 623.299 182.553 624.549 182.553C625.872 182.553 626.986 182.794 627.889 183.276C628.804 183.759 629.559 184.445 630.152 185.336C630.758 186.227 631.229 187.284 631.562 188.509C631.909 189.721 632.175 191.057 632.36 192.517V193.574C632.187 194.997 631.909 196.302 631.525 197.489C631.154 198.677 630.66 199.716 630.041 200.606C629.423 201.485 628.656 202.165 627.74 202.647C626.825 203.13 625.749 203.371 624.512 203.371C623.275 203.371 622.161 203.118 621.172 202.61C620.182 202.103 619.335 201.392 618.63 200.477C617.937 199.561 617.405 198.485 617.034 197.248C616.663 196.011 616.478 194.663 616.478 193.203ZM621.376 192.813V193.203C621.376 194.069 621.463 194.879 621.636 195.634C621.809 196.388 622.075 197.056 622.434 197.638C622.792 198.207 623.244 198.652 623.788 198.974C624.332 199.295 624.982 199.456 625.736 199.456C626.751 199.456 627.579 199.246 628.223 198.825C628.878 198.392 629.373 197.805 629.707 197.062C630.053 196.308 630.276 195.461 630.375 194.521V191.607C630.313 190.865 630.177 190.179 629.967 189.548C629.769 188.917 629.491 188.373 629.132 187.915C628.773 187.457 628.315 187.099 627.759 186.839C627.202 186.579 626.54 186.449 625.773 186.449C625.031 186.449 624.382 186.616 623.825 186.95C623.269 187.272 622.811 187.723 622.452 188.305C622.093 188.886 621.821 189.56 621.636 190.327C621.463 191.094 621.376 191.923 621.376 192.813ZM644.105 182.924V203H639.188V182.924H644.105ZM638.854 177.673C638.854 176.943 639.102 176.337 639.597 175.854C640.104 175.372 640.784 175.131 641.638 175.131C642.491 175.131 643.165 175.372 643.66 175.854C644.167 176.337 644.421 176.943 644.421 177.673C644.421 178.39 644.167 178.99 643.66 179.473C643.165 179.955 642.491 180.196 641.638 180.196C640.784 180.196 640.104 179.955 639.597 179.473C639.102 178.99 638.854 178.39 638.854 177.673ZM659.821 197.508C659.821 197.087 659.71 196.71 659.487 196.376C659.265 196.042 658.844 195.739 658.226 195.467C657.619 195.182 656.729 194.916 655.554 194.669C654.515 194.446 653.556 194.168 652.678 193.834C651.799 193.5 651.045 193.098 650.414 192.628C649.783 192.146 649.288 191.583 648.93 190.939C648.583 190.284 648.41 189.529 648.41 188.676C648.41 187.847 648.59 187.068 648.948 186.338C649.307 185.596 649.826 184.946 650.507 184.39C651.187 183.821 652.016 183.375 652.993 183.054C653.97 182.72 655.071 182.553 656.296 182.553C658.003 182.553 659.469 182.831 660.693 183.388C661.93 183.944 662.877 184.711 663.532 185.688C664.188 186.653 664.516 187.742 664.516 188.954H659.617C659.617 188.422 659.493 187.94 659.246 187.507C659.011 187.074 658.646 186.728 658.151 186.468C657.657 186.196 657.032 186.06 656.277 186.06C655.597 186.06 655.022 186.171 654.552 186.394C654.094 186.616 653.748 186.907 653.513 187.266C653.278 187.624 653.16 188.02 653.16 188.453C653.16 188.775 653.222 189.065 653.346 189.325C653.482 189.573 653.698 189.801 653.995 190.012C654.292 190.222 654.694 190.414 655.201 190.587C655.721 190.76 656.358 190.927 657.112 191.088C658.609 191.385 659.914 191.781 661.027 192.275C662.153 192.758 663.031 193.401 663.662 194.205C664.293 195.009 664.608 196.036 664.608 197.285C664.608 198.176 664.417 198.992 664.033 199.734C663.65 200.464 663.093 201.101 662.363 201.646C661.633 202.19 660.761 202.617 659.747 202.926C658.733 203.223 657.589 203.371 656.314 203.371C654.471 203.371 652.913 203.043 651.639 202.388C650.365 201.72 649.4 200.879 648.744 199.864C648.089 198.838 647.761 197.774 647.761 196.673H652.455C652.492 197.452 652.702 198.077 653.086 198.547C653.469 199.017 653.952 199.357 654.533 199.567C655.127 199.765 655.752 199.864 656.407 199.864C657.149 199.864 657.774 199.765 658.281 199.567C658.788 199.357 659.172 199.079 659.432 198.732C659.691 198.374 659.821 197.965 659.821 197.508ZM677.838 182.924V186.449H666.334V182.924H677.838ZM669.414 177.988H674.331V197.211C674.331 197.805 674.411 198.262 674.572 198.584C674.733 198.906 674.974 199.122 675.296 199.233C675.618 199.345 676.001 199.4 676.446 199.4C676.768 199.4 677.065 199.382 677.337 199.345C677.609 199.308 677.838 199.271 678.023 199.233L678.042 202.907C677.634 203.043 677.17 203.155 676.65 203.241C676.143 203.328 675.568 203.371 674.925 203.371C673.824 203.371 672.859 203.186 672.03 202.814C671.201 202.431 670.558 201.819 670.101 200.978C669.643 200.124 669.414 198.998 669.414 197.601V177.988ZM686.002 187.024V203H681.104V182.924H685.742L686.002 187.024ZM692.106 182.794L692.032 187.358C691.76 187.309 691.451 187.272 691.104 187.247C690.771 187.222 690.455 187.21 690.158 187.21C689.404 187.21 688.742 187.315 688.173 187.525C687.604 187.723 687.128 188.014 686.744 188.397C686.373 188.781 686.089 189.251 685.891 189.808C685.693 190.352 685.581 190.97 685.557 191.663L684.499 191.533C684.499 190.259 684.629 189.078 684.889 187.989C685.148 186.901 685.526 185.948 686.021 185.132C686.515 184.315 687.134 183.685 687.876 183.239C688.631 182.782 689.496 182.553 690.474 182.553C690.746 182.553 691.036 182.577 691.346 182.627C691.667 182.664 691.921 182.72 692.106 182.794ZM705.225 198.732V189.474C705.225 188.793 705.107 188.206 704.872 187.711C704.637 187.216 704.278 186.833 703.796 186.561C703.313 186.288 702.701 186.152 701.959 186.152C701.303 186.152 700.728 186.264 700.233 186.486C699.751 186.709 699.38 187.024 699.12 187.433C698.86 187.828 698.73 188.286 698.73 188.806H693.813C693.813 187.977 694.011 187.191 694.407 186.449C694.803 185.695 695.366 185.027 696.096 184.445C696.838 183.852 697.722 183.388 698.749 183.054C699.788 182.72 700.951 182.553 702.237 182.553C703.759 182.553 705.113 182.812 706.301 183.332C707.501 183.839 708.441 184.606 709.121 185.633C709.814 186.66 710.16 187.952 710.16 189.511V198.269C710.16 199.271 710.222 200.13 710.346 200.848C710.482 201.553 710.68 202.165 710.939 202.685V203H705.948C705.713 202.493 705.534 201.85 705.41 201.07C705.286 200.279 705.225 199.499 705.225 198.732ZM705.911 190.772L705.948 193.686H702.85C702.083 193.686 701.409 193.766 700.827 193.927C700.246 194.075 699.77 194.298 699.398 194.595C699.027 194.879 698.749 195.226 698.563 195.634C698.378 196.03 698.285 196.481 698.285 196.988C698.285 197.483 698.396 197.928 698.619 198.324C698.854 198.72 699.188 199.035 699.621 199.271C700.066 199.493 700.586 199.604 701.18 199.604C702.046 199.604 702.8 199.431 703.443 199.085C704.087 198.726 704.588 198.293 704.946 197.786C705.305 197.279 705.497 196.797 705.521 196.339L706.932 198.454C706.758 198.961 706.499 199.499 706.152 200.068C705.806 200.637 705.361 201.169 704.816 201.664C704.272 202.159 703.617 202.567 702.85 202.889C702.083 203.21 701.192 203.371 700.178 203.371C698.879 203.371 697.716 203.111 696.689 202.592C695.663 202.072 694.853 201.361 694.259 200.458C693.665 199.555 693.368 198.528 693.368 197.378C693.368 196.314 693.566 195.374 693.962 194.558C694.358 193.741 694.945 193.055 695.725 192.498C696.504 191.929 697.469 191.502 698.619 191.218C699.782 190.921 701.112 190.772 702.608 190.772H705.911ZM724.076 182.924V186.449H712.572V182.924H724.076ZM715.652 177.988H720.569V197.211C720.569 197.805 720.65 198.262 720.811 198.584C720.971 198.906 721.213 199.122 721.534 199.233C721.856 199.345 722.239 199.4 722.685 199.4C723.006 199.4 723.303 199.382 723.575 199.345C723.847 199.308 724.076 199.271 724.262 199.233L724.28 202.907C723.872 203.043 723.408 203.155 722.889 203.241C722.382 203.328 721.806 203.371 721.163 203.371C720.062 203.371 719.097 203.186 718.269 202.814C717.44 202.431 716.797 201.819 716.339 200.978C715.881 200.124 715.652 198.998 715.652 197.601V177.988ZM732.537 182.924V203H727.62V182.924H732.537ZM727.286 177.673C727.286 176.943 727.534 176.337 728.028 175.854C728.535 175.372 729.216 175.131 730.069 175.131C730.923 175.131 731.597 175.372 732.092 175.854C732.599 176.337 732.853 176.943 732.853 177.673C732.853 178.39 732.599 178.99 732.092 179.473C731.597 179.955 730.923 180.196 730.069 180.196C729.216 180.196 728.535 179.955 728.028 179.473C727.534 178.99 727.286 178.39 727.286 177.673ZM736.341 193.166V192.776C736.341 191.304 736.551 189.95 736.972 188.713C737.392 187.464 738.005 186.381 738.809 185.466C739.613 184.55 740.596 183.839 741.759 183.332C742.922 182.812 744.245 182.553 745.729 182.553C747.239 182.553 748.575 182.812 749.737 183.332C750.912 183.839 751.902 184.55 752.706 185.466C753.51 186.381 754.122 187.464 754.543 188.713C754.964 189.95 755.174 191.304 755.174 192.776V193.166C755.174 194.626 754.964 195.98 754.543 197.229C754.122 198.466 753.51 199.549 752.706 200.477C751.902 201.392 750.919 202.103 749.756 202.61C748.593 203.118 747.263 203.371 745.767 203.371C744.282 203.371 742.952 203.118 741.777 202.61C740.602 202.103 739.613 201.392 738.809 200.477C738.005 199.549 737.392 198.466 736.972 197.229C736.551 195.98 736.341 194.626 736.341 193.166ZM741.239 192.776V193.166C741.239 194.044 741.326 194.867 741.499 195.634C741.672 196.401 741.938 197.075 742.297 197.656C742.656 198.238 743.119 198.695 743.688 199.029C744.27 199.351 744.963 199.512 745.767 199.512C746.558 199.512 747.239 199.351 747.808 199.029C748.377 198.695 748.84 198.238 749.199 197.656C749.57 197.075 749.842 196.401 750.016 195.634C750.189 194.867 750.275 194.044 750.275 193.166V192.776C750.275 191.91 750.189 191.1 750.016 190.346C749.842 189.579 749.57 188.905 749.199 188.323C748.84 187.729 748.37 187.266 747.789 186.932C747.22 186.585 746.534 186.412 745.729 186.412C744.938 186.412 744.257 186.585 743.688 186.932C743.119 187.266 742.656 187.729 742.297 188.323C741.938 188.905 741.672 189.579 741.499 190.346C741.326 191.1 741.239 191.91 741.239 192.776ZM763.542 187.21V203H758.644V182.924H763.245L763.542 187.21ZM762.763 192.238H761.315C761.328 190.779 761.526 189.455 761.909 188.268C762.293 187.08 762.831 186.06 763.523 185.206C764.229 184.353 765.063 183.697 766.028 183.239C766.993 182.782 768.069 182.553 769.257 182.553C770.222 182.553 771.094 182.689 771.873 182.961C772.652 183.233 773.32 183.666 773.877 184.26C774.446 184.854 774.879 185.633 775.176 186.598C775.485 187.55 775.64 188.725 775.64 190.123V203H770.704V190.086C770.704 189.171 770.568 188.447 770.296 187.915C770.036 187.383 769.653 187.006 769.146 186.783C768.651 186.561 768.038 186.449 767.309 186.449C766.554 186.449 765.892 186.604 765.323 186.913C764.767 187.21 764.297 187.624 763.913 188.156C763.542 188.688 763.257 189.3 763.06 189.993C762.862 190.686 762.763 191.434 762.763 192.238ZM794.621 182.924V203H789.704V182.924H794.621ZM789.37 177.673C789.37 176.943 789.618 176.337 790.112 175.854C790.619 175.372 791.3 175.131 792.153 175.131C793.007 175.131 793.681 175.372 794.176 175.854C794.683 176.337 794.937 176.943 794.937 177.673C794.937 178.39 794.683 178.99 794.176 179.473C793.681 179.955 793.007 180.196 792.153 180.196C791.3 180.196 790.619 179.955 790.112 179.473C789.618 178.99 789.37 178.39 789.37 177.673ZM804.103 187.21V203H799.204V182.924H803.806L804.103 187.21ZM803.323 192.238H801.876C801.888 190.779 802.086 189.455 802.47 188.268C802.853 187.08 803.391 186.06 804.084 185.206C804.789 184.353 805.624 183.697 806.589 183.239C807.554 182.782 808.63 182.553 809.817 182.553C810.782 182.553 811.654 182.689 812.434 182.961C813.213 183.233 813.881 183.666 814.438 184.26C815.007 184.854 815.439 185.633 815.736 186.598C816.046 187.55 816.2 188.725 816.2 190.123V203H811.265V190.086C811.265 189.171 811.129 188.447 810.856 187.915C810.597 187.383 810.213 187.006 809.706 186.783C809.211 186.561 808.599 186.449 807.869 186.449C807.115 186.449 806.453 186.604 805.884 186.913C805.327 187.21 804.857 187.624 804.474 188.156C804.103 188.688 803.818 189.3 803.62 189.993C803.422 190.686 803.323 191.434 803.323 192.238Z" fill="#1C4670"/>
<path d="M517.674 240.986C517.674 240.467 517.593 240.003 517.433 239.595C517.284 239.174 517.006 238.797 516.598 238.463C516.202 238.117 515.639 237.783 514.909 237.461C514.192 237.127 513.264 236.781 512.126 236.422C510.864 236.026 509.689 235.581 508.601 235.086C507.512 234.591 506.553 234.016 505.725 233.36C504.908 232.705 504.271 231.95 503.813 231.097C503.356 230.231 503.127 229.229 503.127 228.091C503.127 226.978 503.362 225.963 503.832 225.048C504.314 224.132 504.995 223.347 505.873 222.691C506.751 222.023 507.784 221.51 508.972 221.151C510.172 220.793 511.495 220.613 512.942 220.613C514.946 220.613 516.678 220.978 518.138 221.708C519.61 222.438 520.748 223.427 521.552 224.677C522.356 225.926 522.758 227.33 522.758 228.889H517.674C517.674 228.048 517.494 227.305 517.136 226.662C516.789 226.019 516.257 225.512 515.54 225.141C514.835 224.77 513.944 224.584 512.868 224.584C511.829 224.584 510.963 224.739 510.271 225.048C509.59 225.357 509.077 225.778 508.73 226.31C508.396 226.841 508.229 227.435 508.229 228.091C508.229 228.586 508.347 229.031 508.582 229.427C508.817 229.81 509.17 230.175 509.64 230.521C510.11 230.855 510.691 231.171 511.384 231.468C512.089 231.752 512.905 232.037 513.833 232.321C515.317 232.767 516.616 233.261 517.729 233.806C518.855 234.35 519.789 234.968 520.531 235.661C521.286 236.354 521.849 237.133 522.22 237.999C522.603 238.865 522.795 239.848 522.795 240.949C522.795 242.112 522.566 243.151 522.108 244.066C521.651 244.982 520.995 245.761 520.142 246.404C519.288 247.048 518.261 247.536 517.062 247.87C515.874 248.204 514.544 248.371 513.072 248.371C511.761 248.371 510.462 248.198 509.176 247.852C507.902 247.493 506.745 246.961 505.706 246.256C504.667 245.538 503.838 244.635 503.22 243.547C502.601 242.446 502.292 241.16 502.292 239.688H507.413C507.413 240.541 507.549 241.271 507.821 241.877C508.106 242.471 508.502 242.959 509.009 243.343C509.528 243.714 510.134 243.986 510.827 244.159C511.52 244.332 512.268 244.419 513.072 244.419C514.111 244.419 514.965 244.277 515.633 243.992C516.313 243.695 516.82 243.287 517.154 242.768C517.501 242.248 517.674 241.654 517.674 240.986ZM537.416 243.732V234.474C537.416 233.793 537.299 233.206 537.063 232.711C536.828 232.216 536.47 231.833 535.987 231.561C535.505 231.288 534.893 231.152 534.15 231.152C533.495 231.152 532.92 231.264 532.425 231.486C531.942 231.709 531.571 232.024 531.312 232.433C531.052 232.828 530.922 233.286 530.922 233.806H526.005C526.005 232.977 526.203 232.191 526.599 231.449C526.994 230.695 527.557 230.027 528.287 229.445C529.029 228.852 529.914 228.388 530.94 228.054C531.979 227.72 533.142 227.553 534.429 227.553C535.95 227.553 537.305 227.812 538.492 228.332C539.692 228.839 540.632 229.606 541.312 230.633C542.005 231.66 542.352 232.952 542.352 234.511V243.269C542.352 244.271 542.413 245.13 542.537 245.848C542.673 246.553 542.871 247.165 543.131 247.685V248H538.14C537.905 247.493 537.725 246.85 537.602 246.07C537.478 245.279 537.416 244.499 537.416 243.732ZM538.103 235.772L538.14 238.686H535.041C534.274 238.686 533.6 238.766 533.019 238.927C532.437 239.075 531.961 239.298 531.59 239.595C531.219 239.879 530.94 240.226 530.755 240.634C530.569 241.03 530.477 241.481 530.477 241.988C530.477 242.483 530.588 242.928 530.811 243.324C531.046 243.72 531.38 244.035 531.812 244.271C532.258 244.493 532.777 244.604 533.371 244.604C534.237 244.604 534.992 244.431 535.635 244.085C536.278 243.726 536.779 243.293 537.138 242.786C537.496 242.279 537.688 241.797 537.713 241.339L539.123 243.454C538.95 243.961 538.69 244.499 538.344 245.068C537.997 245.637 537.552 246.169 537.008 246.664C536.464 247.159 535.808 247.567 535.041 247.889C534.274 248.21 533.383 248.371 532.369 248.371C531.07 248.371 529.908 248.111 528.881 247.592C527.854 247.072 527.044 246.361 526.45 245.458C525.856 244.555 525.56 243.528 525.56 242.378C525.56 241.314 525.757 240.374 526.153 239.558C526.549 238.741 527.137 238.055 527.916 237.498C528.695 236.929 529.66 236.502 530.811 236.218C531.973 235.921 533.303 235.772 534.8 235.772H538.103ZM558.717 243.231V227.924H563.652V248H559.014L558.717 243.231ZM559.348 239.075L560.869 239.038C560.869 240.386 560.721 241.63 560.424 242.768C560.127 243.906 559.663 244.895 559.032 245.736C558.414 246.565 557.628 247.215 556.676 247.685C555.723 248.142 554.598 248.371 553.299 248.371C552.309 248.371 551.406 248.235 550.59 247.963C549.773 247.678 549.068 247.239 548.475 246.646C547.893 246.039 547.442 245.266 547.12 244.326C546.799 243.374 546.638 242.229 546.638 240.894V227.924H551.536V240.931C551.536 241.599 551.61 242.155 551.759 242.601C551.92 243.046 552.136 243.411 552.408 243.695C552.693 243.967 553.021 244.165 553.392 244.289C553.775 244.4 554.183 244.456 554.616 244.456C555.804 244.456 556.738 244.221 557.418 243.751C558.111 243.269 558.605 242.625 558.902 241.821C559.199 241.005 559.348 240.09 559.348 239.075ZM580.036 243.732V219.5H584.972V248H580.519L580.036 243.732ZM567.141 238.203V237.813C567.141 236.28 567.314 234.888 567.66 233.639C568.019 232.377 568.538 231.295 569.219 230.392C569.899 229.489 570.722 228.79 571.687 228.295C572.664 227.8 573.771 227.553 575.008 227.553C576.208 227.553 577.253 227.794 578.144 228.276C579.047 228.759 579.813 229.445 580.444 230.336C581.088 231.227 581.601 232.284 581.984 233.509C582.368 234.721 582.646 236.057 582.819 237.517V238.574C582.646 239.997 582.368 241.302 581.984 242.489C581.601 243.677 581.088 244.716 580.444 245.606C579.813 246.485 579.047 247.165 578.144 247.647C577.241 248.13 576.183 248.371 574.971 248.371C573.746 248.371 572.645 248.118 571.668 247.61C570.703 247.103 569.881 246.392 569.2 245.477C568.532 244.561 568.019 243.485 567.66 242.248C567.314 241.011 567.141 239.663 567.141 238.203ZM572.058 237.813V238.203C572.058 239.069 572.132 239.879 572.28 240.634C572.429 241.388 572.67 242.056 573.004 242.638C573.338 243.207 573.765 243.652 574.284 243.974C574.816 244.295 575.459 244.456 576.214 244.456C577.179 244.456 577.97 244.246 578.589 243.825C579.22 243.392 579.708 242.805 580.055 242.062C580.401 241.308 580.624 240.461 580.723 239.521V236.607C580.673 235.865 580.543 235.179 580.333 234.548C580.135 233.917 579.851 233.373 579.479 232.915C579.121 232.457 578.675 232.099 578.144 231.839C577.612 231.579 576.981 231.449 576.251 231.449C575.496 231.449 574.853 231.616 574.321 231.95C573.789 232.272 573.356 232.723 573.022 233.305C572.688 233.886 572.441 234.56 572.28 235.327C572.132 236.094 572.058 236.923 572.058 237.813ZM594.602 227.924V248H589.685V227.924H594.602ZM589.351 222.673C589.351 221.943 589.598 221.337 590.093 220.854C590.6 220.372 591.28 220.131 592.134 220.131C592.987 220.131 593.661 220.372 594.156 220.854C594.663 221.337 594.917 221.943 594.917 222.673C594.917 223.39 594.663 223.99 594.156 224.473C593.661 224.955 592.987 225.196 592.134 225.196C591.28 225.196 590.6 224.955 590.093 224.473C589.598 223.99 589.351 223.39 589.351 222.673ZM619.854 225.085L612.154 248H606.755L616.849 220.984H620.3L619.854 225.085ZM626.293 248L618.556 225.085L618.092 220.984H621.562L631.711 248H626.293ZM625.94 237.962V241.988H611.449V237.962H625.94ZM639.021 232.024V248H634.123V227.924H638.762L639.021 232.024ZM645.126 227.794L645.052 232.358C644.78 232.309 644.47 232.272 644.124 232.247C643.79 232.222 643.475 232.21 643.178 232.21C642.423 232.21 641.761 232.315 641.192 232.525C640.623 232.723 640.147 233.014 639.764 233.397C639.393 233.781 639.108 234.251 638.91 234.808C638.712 235.352 638.601 235.97 638.576 236.663L637.519 236.533C637.519 235.259 637.648 234.078 637.908 232.989C638.168 231.901 638.545 230.948 639.04 230.132C639.535 229.315 640.153 228.685 640.896 228.239C641.65 227.782 642.516 227.553 643.493 227.553C643.765 227.553 644.056 227.577 644.365 227.627C644.687 227.664 644.94 227.72 645.126 227.794ZM658.244 243.732V234.474C658.244 233.793 658.127 233.206 657.892 232.711C657.657 232.216 657.298 231.833 656.815 231.561C656.333 231.288 655.721 231.152 654.979 231.152C654.323 231.152 653.748 231.264 653.253 231.486C652.771 231.709 652.399 232.024 652.14 232.433C651.88 232.828 651.75 233.286 651.75 233.806H646.833C646.833 232.977 647.031 232.191 647.427 231.449C647.823 230.695 648.385 230.027 649.115 229.445C649.857 228.852 650.742 228.388 651.769 228.054C652.808 227.72 653.97 227.553 655.257 227.553C656.778 227.553 658.133 227.812 659.32 228.332C660.52 228.839 661.46 229.606 662.141 230.633C662.833 231.66 663.18 232.952 663.18 234.511V243.269C663.18 244.271 663.242 245.13 663.365 245.848C663.501 246.553 663.699 247.165 663.959 247.685V248H658.968C658.733 247.493 658.553 246.85 658.43 246.07C658.306 245.279 658.244 244.499 658.244 243.732ZM658.931 235.772L658.968 238.686H655.869C655.102 238.686 654.428 238.766 653.847 238.927C653.265 239.075 652.789 239.298 652.418 239.595C652.047 239.879 651.769 240.226 651.583 240.634C651.397 241.03 651.305 241.481 651.305 241.988C651.305 242.483 651.416 242.928 651.639 243.324C651.874 243.72 652.208 244.035 652.641 244.271C653.086 244.493 653.605 244.604 654.199 244.604C655.065 244.604 655.82 244.431 656.463 244.085C657.106 243.726 657.607 243.293 657.966 242.786C658.325 242.279 658.516 241.797 658.541 241.339L659.951 243.454C659.778 243.961 659.518 244.499 659.172 245.068C658.826 245.637 658.38 246.169 657.836 246.664C657.292 247.159 656.636 247.567 655.869 247.889C655.102 248.21 654.212 248.371 653.197 248.371C651.898 248.371 650.736 248.111 649.709 247.592C648.682 247.072 647.872 246.361 647.278 245.458C646.685 244.555 646.388 243.528 646.388 242.378C646.388 241.314 646.586 240.374 646.981 239.558C647.377 238.741 647.965 238.055 648.744 237.498C649.523 236.929 650.488 236.502 651.639 236.218C652.801 235.921 654.131 235.772 655.628 235.772H658.931ZM667.577 219.5H672.494V243.565L672.012 248H667.577V219.5ZM685.408 237.758V238.147C685.408 239.644 685.241 241.017 684.907 242.267C684.586 243.516 684.097 244.598 683.441 245.514C682.786 246.417 681.969 247.122 680.992 247.629C680.027 248.124 678.896 248.371 677.597 248.371C676.36 248.371 675.284 248.13 674.368 247.647C673.465 247.165 672.704 246.485 672.086 245.606C671.467 244.716 670.973 243.671 670.602 242.471C670.23 241.258 669.952 239.935 669.767 238.5V237.442C669.952 235.995 670.23 234.672 670.602 233.472C670.973 232.272 671.467 231.227 672.086 230.336C672.704 229.445 673.465 228.759 674.368 228.276C675.271 227.794 676.335 227.553 677.56 227.553C678.871 227.553 680.015 227.806 680.992 228.313C681.982 228.808 682.798 229.513 683.441 230.429C684.097 231.332 684.586 232.408 684.907 233.657C685.241 234.894 685.408 236.261 685.408 237.758ZM680.491 238.147V237.758C680.491 236.904 680.423 236.1 680.287 235.346C680.151 234.579 679.928 233.905 679.619 233.323C679.31 232.742 678.889 232.284 678.357 231.95C677.826 231.616 677.158 231.449 676.354 231.449C675.587 231.449 674.931 231.579 674.387 231.839C673.855 232.099 673.41 232.457 673.051 232.915C672.704 233.373 672.432 233.911 672.234 234.529C672.049 235.148 671.925 235.816 671.863 236.533V239.428C671.95 240.38 672.154 241.24 672.476 242.007C672.797 242.761 673.273 243.361 673.904 243.807C674.548 244.252 675.376 244.475 676.391 244.475C677.182 244.475 677.844 244.32 678.376 244.011C678.908 243.689 679.328 243.244 679.638 242.675C679.947 242.093 680.163 241.419 680.287 240.652C680.423 239.885 680.491 239.05 680.491 238.147ZM694.166 227.924V248H689.249V227.924H694.166ZM688.915 222.673C688.915 221.943 689.162 221.337 689.657 220.854C690.164 220.372 690.845 220.131 691.698 220.131C692.552 220.131 693.226 220.372 693.721 220.854C694.228 221.337 694.481 221.943 694.481 222.673C694.481 223.39 694.228 223.99 693.721 224.473C693.226 224.955 692.552 225.196 691.698 225.196C690.845 225.196 690.164 224.955 689.657 224.473C689.162 223.99 688.915 223.39 688.915 222.673ZM709.9 243.732V234.474C709.9 233.793 709.783 233.206 709.548 232.711C709.313 232.216 708.954 231.833 708.472 231.561C707.989 231.288 707.377 231.152 706.635 231.152C705.979 231.152 705.404 231.264 704.909 231.486C704.427 231.709 704.056 232.024 703.796 232.433C703.536 232.828 703.406 233.286 703.406 233.806H698.489C698.489 232.977 698.687 232.191 699.083 231.449C699.479 230.695 700.042 230.027 700.771 229.445C701.514 228.852 702.398 228.388 703.425 228.054C704.464 227.72 705.627 227.553 706.913 227.553C708.435 227.553 709.789 227.812 710.977 228.332C712.176 228.839 713.117 229.606 713.797 230.633C714.49 231.66 714.836 232.952 714.836 234.511V243.269C714.836 244.271 714.898 245.13 715.021 245.848C715.158 246.553 715.355 247.165 715.615 247.685V248H710.624C710.389 247.493 710.21 246.85 710.086 246.07C709.962 245.279 709.9 244.499 709.9 243.732ZM710.587 235.772L710.624 238.686H707.525C706.758 238.686 706.084 238.766 705.503 238.927C704.922 239.075 704.445 239.298 704.074 239.595C703.703 239.879 703.425 240.226 703.239 240.634C703.054 241.03 702.961 241.481 702.961 241.988C702.961 242.483 703.072 242.928 703.295 243.324C703.53 243.72 703.864 244.035 704.297 244.271C704.742 244.493 705.262 244.604 705.855 244.604C706.721 244.604 707.476 244.431 708.119 244.085C708.762 243.726 709.263 243.293 709.622 242.786C709.981 242.279 710.173 241.797 710.197 241.339L711.607 243.454C711.434 243.961 711.174 244.499 710.828 245.068C710.482 245.637 710.036 246.169 709.492 246.664C708.948 247.159 708.292 247.567 707.525 247.889C706.758 248.21 705.868 248.371 704.854 248.371C703.555 248.371 702.392 248.111 701.365 247.592C700.339 247.072 699.528 246.361 698.935 245.458C698.341 244.555 698.044 243.528 698.044 242.378C698.044 241.314 698.242 240.374 698.638 239.558C699.034 238.741 699.621 238.055 700.4 237.498C701.18 236.929 702.145 236.502 703.295 236.218C704.458 235.921 705.787 235.772 707.284 235.772H710.587Z" fill="#FFA229"/>
<path d="M709.82 53.1618H671.961C668.236 37.9916 659.532 24.5088 647.239 14.8697C634.947 5.23062 619.777 -0.0078125 604.156 -0.0078125C588.536 -0.0078125 573.366 5.23062 561.074 14.8697C548.781 24.5088 540.076 37.9916 536.351 53.1618H498.469C497.774 53.1618 497.087 53.2997 496.446 53.5677C495.805 53.8357 495.224 54.2283 494.736 54.7228C494.249 55.2173 493.864 55.8038 493.605 56.4482C493.346 57.0926 493.217 57.7821 493.227 58.4765V92.8159C493.227 94.2061 493.779 95.5394 494.762 96.5225C495.745 97.5055 497.079 98.0578 498.469 98.0578H709.82C710.51 98.061 711.194 97.9277 711.833 97.6657C712.472 97.4037 713.053 97.0181 713.542 96.5311C714.031 96.044 714.42 95.465 714.685 94.8275C714.949 94.1899 715.086 93.5063 715.086 92.8159V58.4765C715.092 57.7809 714.961 57.0909 714.699 56.4463C714.437 55.8018 714.05 55.2155 713.561 54.7214C713.071 54.2272 712.488 53.835 711.846 53.5673C711.204 53.2996 710.515 53.1618 709.82 53.1618ZM591.149 40.6395C591.14 38.1827 591.85 35.7771 593.192 33.7188C594.533 31.6605 596.447 30.0394 598.698 29.0552C600.949 28.0709 603.439 27.7665 605.86 28.1794C608.282 28.5922 610.53 29.7043 612.328 31.3788C614.126 33.0532 615.395 35.2169 615.978 37.6033C616.562 39.9898 616.435 42.4948 615.613 44.81C614.791 47.1251 613.31 49.1493 611.352 50.6332C609.394 52.1172 607.044 52.9961 604.593 53.1618H602.895C599.712 52.9583 596.726 51.5504 594.544 49.2243C592.363 46.8983 591.148 43.8287 591.149 40.6395Z" fill="#FFA229"/>
<path d="M698.22 79.9219H589.402C587.258 79.9219 585.52 81.6603 585.52 83.8048V86.5471C585.52 88.6915 587.258 90.4299 589.402 90.4299H698.22C700.365 90.4299 702.103 88.6915 702.103 86.5471V83.8048C702.103 81.6603 700.365 79.9219 698.22 79.9219Z" fill="#FAD282"/>
<path d="M606.682 0.242388C605.833 0.242388 605.032 0.242388 604.255 0.242388C588.644 0.205012 573.47 5.39715 561.154 14.9904C548.838 24.5837 540.09 38.0254 536.305 53.1711H541.304C544.974 38.4452 553.34 25.3148 565.135 15.7654C576.931 6.21608 591.515 0.767078 606.682 0.242388Z" fill="#E0AB67"/>
<path d="M616.392 40.65C616.386 43.5449 615.376 46.348 613.535 48.5824C611.695 50.8167 609.137 52.3444 606.297 52.9054C606.848 53.0317 607.408 53.1209 607.971 53.1724H609.646C612.913 52.97 615.971 51.5015 618.172 49.0792C620.373 46.6569 621.543 43.4717 621.432 40.2007C621.322 36.9297 619.94 33.8308 617.58 31.5627C615.22 29.2946 612.069 28.0362 608.796 28.0549C607.981 28.0632 607.168 28.1526 606.37 28.3218C609.202 28.9128 611.745 30.461 613.57 32.7062C615.395 34.9514 616.392 37.7565 616.392 40.65Z" fill="#E0AB67"/>
<path d="M498.23 92.8078V58.4685C498.236 57.076 498.794 55.7428 499.781 54.7604C500.768 53.778 502.103 53.2265 503.496 53.2266H498.472C497.082 53.2266 495.749 53.7788 494.766 54.7619C493.783 55.7449 493.23 57.0782 493.23 58.4685V92.8078C493.23 94.198 493.783 95.5313 494.766 96.5144C495.749 97.4974 497.082 98.0497 498.472 98.0497H503.496C502.805 98.0529 502.121 97.9197 501.482 97.6577C500.844 97.3957 500.263 97.0101 499.774 96.523C499.284 96.0359 498.896 95.457 498.631 94.8194C498.366 94.1818 498.23 93.4982 498.23 92.8078Z" fill="#E0AB67"/>
<path d="M601.388 28.277C599.697 27.9376 597.954 27.9499 596.268 28.3131C594.582 28.6762 592.988 29.3825 591.587 30.388C590.185 31.3935 589.006 32.6767 588.121 34.1577C587.237 35.6386 586.667 37.2857 586.447 38.9965C586.226 40.7072 586.361 42.445 586.841 44.1017C587.321 45.7584 588.137 47.2986 589.238 48.6263C590.339 49.9541 591.701 51.0411 593.241 51.8196C594.78 52.5981 596.463 53.0516 598.185 53.1518H599.883C600.39 53.1065 600.893 53.0254 601.388 52.9091C598.508 52.3797 595.904 50.8577 594.03 48.6075C592.156 46.3574 591.129 43.5215 591.129 40.593C591.129 37.6645 592.156 34.8287 594.03 32.5786C595.904 30.3284 598.508 28.8063 601.388 28.277Z" fill="#FAD282"/>
<path d="M667.356 53.1549H672.088C668.346 37.991 659.633 24.5175 647.339 14.8845C635.044 5.25137 619.878 0.0138993 604.259 0.0078125C603.458 0.0078125 602.681 0.0078125 601.832 0.0078125C617.055 0.510264 631.696 5.97517 643.525 15.5699C655.355 25.1647 663.723 38.3633 667.356 53.1549Z" fill="#FAD282"/>
<path d="M709.821 53.1563H705.113C705.808 53.1562 706.495 53.2941 707.136 53.5621C707.777 53.8301 708.358 54.2227 708.846 54.7172C709.334 55.2117 709.718 55.7982 709.977 56.4426C710.236 57.087 710.365 57.7765 710.355 58.471V92.8103C710.358 93.4996 710.225 94.1826 709.963 94.8201C709.7 95.4575 709.314 96.0366 708.827 96.524C708.34 97.0114 707.76 97.3974 707.123 97.6597C706.486 97.922 705.803 98.0554 705.113 98.0522H709.821C710.512 98.0554 711.196 97.9222 711.835 97.6602C712.474 97.3982 713.054 97.0126 713.544 96.5255C714.033 96.0384 714.421 95.4595 714.686 94.8219C714.951 94.1843 715.088 93.5007 715.087 92.8103V58.471C715.094 57.7753 714.962 57.0853 714.701 56.4408C714.439 55.7962 714.052 55.21 713.562 54.7158C713.073 54.2216 712.49 53.8294 711.848 53.5617C711.206 53.294 710.517 53.1562 709.821 53.1563Z" fill="#FAD282"/>
<path d="M885.133 90.6406V987.419H858.777L885.133 90.6406Z" fill="#D9D9D9"/>
<g style="mix-blend-mode:multiply">
<path d="M855.768 1061.56C855.768 1072.7 811.236 1081.72 756.269 1081.72C701.301 1081.72 656.77 1072.7 656.77 1061.56C656.77 1050.42 701.301 1041.41 756.269 1041.41C811.236 1041.41 855.768 1050.44 855.768 1061.56Z" fill="#E2E2E2"/>
</g>
<path d="M821.747 528.641C834.051 540.314 844.146 550.288 848.684 555.141C849.533 556.034 850.159 557.115 850.509 558.297C850.859 559.478 850.924 560.725 850.698 561.936C847.301 580.38 815.413 628.771 804.322 646.05L786.121 634.838C786.121 634.838 814.418 573.779 812.962 567.057C812.962 567.057 806.433 562.81 796.653 555.36" fill="#FAC0AC"/>
<path d="M793.69 558.398C781.556 549.176 767.626 531.946 751.973 514.886C748.23 510.781 745.411 505.92 743.708 500.633C742.004 495.345 741.454 489.753 742.096 484.235C743.771 473.63 758.938 476.955 758.938 476.955C776.12 490.618 803.81 511.561 821.744 528.524" fill="#FFA229"/>
<path d="M693.514 643.435L693.441 866.629L715.38 1055L741.177 1053.27L739.672 865.003L797.527 631.398L693.514 643.435Z" fill="#1C4670"/>
<path d="M745.395 648.484L777.647 879.104L832.396 1055.24L846.617 1039.3L819.509 874.08L808.807 688.697L805.992 652.828L745.395 648.484Z" fill="#1C4670"/>
<path d="M714.915 1047.06C712.342 1047.06 689.894 1059 677.348 1065.77C676.771 1066.08 676.307 1066.56 676.024 1067.15C675.74 1067.74 675.651 1068.41 675.77 1069.05C675.889 1069.69 676.209 1070.28 676.685 1070.73C677.16 1071.18 677.767 1071.47 678.415 1071.55L709.551 1075.58L720.059 1073.51C721.285 1073.27 722.549 1073.29 723.769 1073.56C724.989 1073.83 726.139 1074.35 727.146 1075.09L730.665 1077.69C731.459 1078.27 732.424 1078.57 733.407 1078.54L737.799 1078.37C738.372 1078.35 738.935 1078.22 739.457 1077.98C739.978 1077.74 740.448 1077.4 740.838 1076.98C741.228 1076.57 741.532 1076.07 741.731 1075.54C741.93 1075 742.021 1074.43 741.998 1073.85L740.784 1043.88L714.915 1047.06Z" fill="#28478F"/>
<path d="M846.596 1038.7C843.417 1038.7 809.199 1046.76 795.367 1050.06C794.978 1050.16 794.629 1050.37 794.371 1050.68C794.112 1050.98 793.957 1051.36 793.927 1051.76C793.897 1052.16 793.995 1052.56 794.206 1052.9C794.416 1053.24 794.729 1053.5 795.1 1053.65L816.941 1062.56L824.974 1062.85C826.431 1062.89 827.846 1063.35 829.05 1064.17C830.255 1064.99 831.198 1066.14 831.769 1067.49C832.034 1068.08 832.509 1068.55 833.103 1068.82L835.53 1069.91C836.37 1070.3 837.305 1070.45 838.224 1070.32L847.713 1069.16C849.012 1069 850.196 1068.33 851.012 1067.31C851.828 1066.28 852.212 1064.98 852.081 1063.67L846.596 1038.7Z" fill="#28478F"/>
<path d="M468.496 443.521L515.503 409.594L529.967 424.422L482.232 458.882L468.496 443.521Z" fill="#28478F"/>
<path d="M466.146 446.258L458.672 465.138L479.009 460.382L466.146 446.258Z" fill="#FAC0AC"/>
<path d="M486.849 449.037C487.41 451.211 487.301 453.503 486.534 455.613C485.767 457.723 484.38 459.551 482.554 460.857C480.728 462.163 478.55 462.885 476.306 462.929C474.061 462.973 471.856 462.337 469.981 461.104C468.105 459.87 466.647 458.098 465.798 456.02C464.949 453.942 464.749 451.655 465.225 449.462C465.701 447.268 466.829 445.269 468.463 443.73C470.096 442.19 472.157 441.18 474.375 440.835C477.116 440.282 479.964 440.833 482.3 442.369C484.636 443.905 486.271 446.302 486.849 449.037Z" fill="#28478F"/>
<path d="M533.636 415.229C534.193 417.403 534.078 419.694 533.308 421.802C532.537 423.909 531.147 425.734 529.319 427.036C527.492 428.339 525.313 429.057 523.069 429.098C520.826 429.139 518.622 428.499 516.749 427.264C514.876 426.028 513.421 424.255 512.574 422.176C511.728 420.098 511.531 417.812 512.009 415.619C512.486 413.427 513.616 411.43 515.25 409.892C516.884 408.354 518.945 407.346 521.163 407.002C523.907 406.443 526.762 406.995 529.1 408.537C531.438 410.079 533.069 412.486 533.636 415.229Z" fill="#FAC0AC"/>
<path d="M527.226 415.683C527.427 416.48 527.382 417.32 527.097 418.091C526.812 418.862 526.3 419.529 525.629 420.004C524.958 420.479 524.16 420.741 523.338 420.754C522.516 420.767 521.709 420.531 521.023 420.078C520.338 419.624 519.805 418.974 519.495 418.213C519.186 417.451 519.114 416.614 519.289 415.81C519.463 415.007 519.877 414.275 520.475 413.711C521.073 413.147 521.828 412.777 522.64 412.65C523.14 412.547 523.656 412.544 524.157 412.641C524.659 412.738 525.136 412.933 525.563 413.215C525.989 413.496 526.355 413.859 526.64 414.283C526.926 414.707 527.125 415.182 527.226 415.683Z" fill="#28478F"/>
<path d="M460.566 460.328L458.648 465.182L464.157 463.896C462.674 463.034 461.437 461.806 460.566 460.328Z" fill="#28478F"/>
<path d="M509.074 436.044C507.902 436.282 506.689 436.215 505.55 435.85C504.411 435.484 503.385 434.833 502.57 433.957C496.6 427.526 492.693 419.906 489.271 421.556C485.34 423.425 487.743 425.512 484.418 427.939C483.35 428.691 479.928 427.939 479.224 430.608C478.521 433.278 478.448 435.899 475.973 437.889C473.497 439.879 474.953 446.116 475.803 448.251C477.052 450.417 478.632 452.374 480.486 454.051C485.519 459.132 491.485 463.195 498.057 466.016C504.56 468.612 511.064 461.526 515.044 454.755C518.102 449.635 515.432 435.025 515.432 435.025C513.167 435.349 511.048 435.689 509.074 436.044Z" fill="#FAC0AC"/>
<path d="M490.121 421.372L500.411 420.547L494.319 424.915L490.121 421.372Z" fill="#FAC0AC"/>
<path d="M654.636 426.312L649.54 438.665C649.364 439.222 649.416 439.825 649.685 440.344C649.953 440.862 650.416 441.253 650.971 441.432L656.48 443.252L654.636 426.312Z" fill="#FAC0AC"/>
<path d="M593.625 533.885L673.71 552.547C682.616 553.882 679.17 487.703 679.17 487.703L636.434 493.115L604.449 491.902" fill="#FFA229"/>
<path d="M680.091 487.602L680.527 487.335C684.58 484.908 681.619 451.952 676.645 443.943L705.111 392.641C706.715 414.182 710.216 435.539 715.571 456.466C716.9 460.562 719.045 464.348 721.877 467.592C724.709 470.837 728.169 473.475 732.049 475.346" fill="#FAC0AC"/>
<path d="M692.687 458.6L696.765 437.633C696.765 437.633 690.042 451.66 689.969 452.461C689.897 453.261 682.349 459.741 681.16 460.809C682.107 467.951 682.488 475.157 682.301 482.359L692.687 458.6Z" fill="#E69E96"/>
<path d="M659.125 462.921C659.257 463.915 659.714 464.838 660.425 465.544C661.136 466.251 662.062 466.703 663.057 466.828C685.941 469.109 717.684 430.159 714.408 406.886C712.782 395.189 699.847 391.427 687.713 390.214C668.93 388.345 654.805 387.787 653.301 421.762C653.277 422.029 659.125 462.921 659.125 462.921Z" fill="#FAC0AC"/>
<path d="M655.871 403.937L653.153 399.544C651.775 397.336 651.065 394.776 651.107 392.174C651.149 389.571 651.942 387.036 653.39 384.873C654.838 382.71 656.88 381.011 659.27 379.98C661.66 378.949 664.297 378.631 666.864 379.062C696.811 384.158 722.317 392.312 722.098 406.582C721.443 445.411 716.298 455.749 716.298 455.749C716.298 455.749 699.772 464.825 695.743 432.209C682.687 442.596 676.717 409.834 676.717 409.834C676.159 404.713 663.248 405.66 655.871 403.937Z" fill="black"/>
<path d="M698.756 434.995C697.033 439.582 692.762 442.276 689.267 441.135C685.773 439.994 684.414 435.262 686.088 430.676C687.763 426.089 692.083 423.395 695.577 424.56C699.072 425.725 700.504 430.433 698.756 434.995Z" fill="#FAC0AC"/>
<path d="M604.402 491.91L578.727 487.251L507.937 448.422L488.668 459.1L573.242 523.119L595.302 529.089L604.402 491.91Z" fill="#FAC0AC"/>
<path d="M657.205 532.701C656.477 513.553 649.148 496.153 653.006 494.454C653.006 494.454 678.003 484.116 682.322 482.053C682.322 482.053 717.05 479.457 723.311 469.312C723.311 469.312 757.917 474.749 759.179 477.515C778.303 518.916 776.652 530.517 776.652 530.517L789.781 588.76L808.371 653.701C795.557 662.001 726.393 680.396 694.02 678.697C694.02 678.697 688.511 616.571 686.593 606.427C686.593 606.476 657.836 549.446 657.205 532.701Z" fill="#FFA229"/>
<g style="mix-blend-mode:multiply" opacity="0.16">
<path d="M193.516 1057.49C193.516 1065.23 153.158 1071.79 103.263 1072.05C53.3676 1072.32 12.8884 1066.35 12.8399 1058.59C12.7914 1050.82 53.1977 1044.29 103.093 1044.02C152.988 1043.76 193.467 1049.73 193.516 1057.49Z" fill="#6C467A"/>
</g>
<path d="M162.235 567.711C162.235 567.711 165.002 608.967 164.177 620.834C164.177 620.834 173.326 747.028 156.12 709.388L153.11 697.739C153.11 697.739 140.127 671.36 148.257 627.726L141.098 575.38L162.235 567.711Z" fill="#FAC0AC"/>
<path d="M133.842 595.729C133.842 595.729 156.581 772.886 160.925 843.094C161.459 851.636 156.533 862.096 152.868 869.789L150.442 881.51C149.471 893.013 142.821 929.464 140.734 940.821L125.591 1013.33L140.516 1039.91L128.382 1045.15L104.114 1018.46C104.114 1018.46 110.278 1007.61 107.414 962.905C104.648 920.096 97.974 881.68 106.055 864.328C119.184 836.226 108.482 804.799 102.536 787.399C87.9756 745.755 26.9899 670.912 79.1178 594.734L133.842 595.729Z" fill="#FAC0AC"/>
<path d="M119.206 493.752C106.272 488.899 109.499 482.322 109.815 477.056C110.616 461.039 105.641 444.731 110.203 433.664L85.5223 422.695C85.5223 422.695 88.8956 434.441 82.7072 474.459C81.2754 483.705 65.04 493.874 63.2927 494.796C53.5855 500.28 69.7481 555.636 119.425 528.286L120.032 527.922C130.127 522.291 128.719 497.368 119.206 493.752Z" fill="#FAC0AC"/>
<path d="M110.232 473.319C109.99 469.922 110.96 468.83 110.621 465.238C98.1711 463.345 88.0999 452.716 83.9258 450.07C83.9258 451.357 84.5568 460.967 84.4354 462.204C88.7309 469.072 96.2054 478.804 109.577 479.726C109.577 479.799 110.281 474.144 110.232 473.319Z" fill="#E69E96"/>
<path d="M158.933 1049.44C147.649 1046.07 141.946 1041.87 140.174 1039.08C140.732 1041.5 129.108 1040.27 119.595 1035.29C119.595 1035.29 106.612 1016.7 104.185 1018.57C98.3846 1041.96 102.316 1027.28 107.801 1059.83H113.188L114.838 1052.96C114.838 1052.96 120.808 1052.96 130.516 1059.97C140.223 1066.98 171.48 1061.21 171.48 1061.21C177.28 1057.76 171.116 1053.08 158.933 1049.44Z" fill="#526080"/>
<path d="M135.275 619.719C135.275 619.719 120.399 795.274 118.894 852.522L110.157 882.008C108.677 893.463 98.266 944.11 95.5965 955.346L76.4733 1023.71L87.8307 1050.84L75.4783 1055.5L57.617 1022.64C57.617 1022.64 60.4321 1022.5 61.0145 984.007C61.6455 941.101 57.9082 906.907 66.7903 889.968C81.1813 862.497 66.7903 814.567 61.597 796.924C49.0746 754.649 40.7992 668.546 65.5041 626.344L135.275 619.719Z" fill="#FAC0AC"/>
<path d="M103.896 1064.6C93.5817 1058.88 88.9222 1053.54 87.8059 1050.43C87.8059 1052.86 76.7397 1049.19 68.537 1042.28C68.537 1042.28 59.8733 1021.33 57.1068 1022.64C46.3803 1044.22 54.9469 1036.21 53.2724 1069.17L60.1403 1068.75V1058.46C60.1403 1058.46 65.9646 1059.7 73.9003 1068.71C81.8359 1077.71 113.651 1078.75 113.651 1078.75C119.985 1076.69 114.986 1070.79 103.896 1064.6Z" fill="#526080"/>
<path d="M159.881 554.518C157.77 551.048 151.921 526.076 149.033 513.796C148.395 510.108 146.588 506.722 143.879 504.14C141.169 501.557 137.701 499.914 133.987 499.454C128.939 498.823 123.26 495.158 119.062 492.95C116.805 499.648 96.5412 503.264 84.2615 496.08L72.2731 488.023C56.1106 498.968 57.7123 496.687 53.9022 499.891C35.2886 515.665 34.4877 517.873 49.8009 557.285L60.6487 578.519C63.8521 602.787 52.8101 682.386 52.8101 682.386C104.04 706.048 145.344 686.342 154.154 640.403L151.217 591.527C160.609 585.314 169.855 570.68 159.881 554.518Z" fill="#FFA229"/>
<path d="M124.159 409.279C124.159 409.279 128.042 414.594 127.022 426.412C127.543 432.585 128.394 438.726 129.571 444.808C130.323 463.688 118.043 475.531 113.578 475.434C108.974 475.214 104.458 474.085 100.293 472.11C96.1276 470.136 92.3947 467.356 89.3098 463.931C80.1122 454.054 76.9331 415.395 87.0771 407.459C102.9 394.985 119.329 402.703 124.159 409.279Z" fill="#FAC0AC"/>
<path d="M55.0406 642.129C55.0406 642.129 33.1993 711.779 58.0984 853.528C58.0984 853.528 85.9581 874.545 168.567 851.539C168.567 851.539 185.19 685.375 154.006 640.406C154.079 640.406 128.597 651.157 55.0406 642.129Z" fill="#1C4670"/>
<path d="M156.471 561.85L77.6092 531.768C76.645 531.4 75.5651 531.883 75.1973 532.847L34.6488 639.145C34.2809 640.109 34.7644 641.189 35.7287 641.557L114.59 671.64C115.554 672.007 116.634 671.524 117.002 670.56L157.551 564.262C157.918 563.298 157.435 562.218 156.471 561.85Z" fill="#EDEDED"/>
<path d="M86.4688 621.858C86.4688 621.858 93.4094 614.699 97.8262 614.577C102.243 614.456 110.421 613.534 111.295 615.232C112.46 617.441 106.441 618.727 99.889 619.407L86.4688 621.858Z" fill="#FAC0AC"/>
<path d="M94.0691 617.82C94.0691 617.82 110.814 621.194 113.338 622.31C113.965 622.549 114.51 622.965 114.905 623.508C115.301 624.05 115.531 624.696 115.566 625.366C115.602 626.037 115.443 626.703 115.108 627.285C114.773 627.867 114.276 628.339 113.678 628.644C112.319 629.348 115.376 631.993 111.761 634.735C109.504 636.458 111.469 637.162 110.013 639.128C108.848 640.681 105.694 640.147 105.16 642.04C104.383 645.534 101.01 644.273 98.4616 644.467C95.9135 644.661 86.6431 642.307 80.4547 634.954C72.4705 625.416 94.0691 617.82 94.0691 617.82Z" fill="#FAC0AC"/>
<path d="M10.2694 573.781C2.2609 593.948 -2.37431 600.088 1.24163 609.48C5.17306 619.624 97.2461 643.455 109.113 639.572L112.681 628.384C109.118 626.088 105.074 624.643 100.862 624.162C81.8116 621.177 56.0147 595.817 36.94 591.157C36.94 591.157 39.7793 589.094 47.9819 577.276" fill="#FAC0AC"/>
<path d="M41.6226 587.934C51.3298 571.189 68.3175 547.042 71.6422 532.263C81.8591 485.401 47.0101 496.88 39.3899 516.367C30.0467 540.247 14.0055 560.972 8.59375 574.61L41.6226 587.934Z" fill="#FFA229"/>
<path d="M140.348 516.562L146.997 537.7L156.365 549.98" stroke="#28478F" stroke-width="0.5" stroke-miterlimit="10" stroke-linecap="round"/>
<path d="M125.156 428.305C127.66 433.996 131.051 439.255 135.203 443.885C137.241 445.996 130.349 452.087 127.461 452.209C121.103 452.451 125.156 428.305 125.156 428.305Z" fill="#FAC0AC"/>
<path d="M107.853 621.195C107.853 621.195 117.56 622.918 118.361 622.918C119.161 622.918 126.903 622.166 127.655 622.166C129.67 622.166 128.675 626.34 123.675 627.02C118.676 627.699 116.395 629.446 112.124 628.597C106.542 627.554 107.853 621.195 107.853 621.195Z" fill="#FAC0AC"/>
<path d="M104.067 627.664C104.067 627.664 118.312 628.465 119.186 628.368C120.059 628.271 129.209 626.548 130.082 626.475C132.509 626.281 131.757 630.48 125.884 631.717C120.011 632.955 114.89 634.629 109.891 634.411C109.04 634.43 108.194 634.261 107.416 633.915C106.637 633.569 105.945 633.056 105.388 632.411C104.832 631.766 104.424 631.006 104.196 630.186C103.968 629.365 103.923 628.504 104.067 627.664Z" fill="#FAC0AC"/>
<path d="M75.4529 409.422C77.3023 405.795 77.9213 401.664 77.2165 397.654C76.5117 393.644 74.5212 389.972 71.5458 387.193C62.6394 379.208 45.8459 382.339 40.9923 393.041C39.2185 397.549 39.2214 402.562 41.0006 407.067C42.7797 411.573 46.2024 415.235 50.5774 417.315C54.9524 419.395 59.9536 419.736 64.5708 418.271C69.1881 416.806 73.0773 413.644 75.4529 409.422Z" fill="#10233C"/>
<path d="M90.5264 438.666C92.5188 431.843 92.4089 424.578 90.2109 417.819C90.2109 417.819 105.354 401.924 122.949 407.772C122.949 407.772 94.1181 385.227 75.8685 403.817C57.6189 422.406 61.9386 448.421 84.7506 461.114L90.5264 438.666Z" fill="#10233C"/>
<path d="M79.6739 449.748C82.6831 454.213 87.6823 455.887 90.8372 453.461C93.992 451.034 94.0648 445.476 91.0313 441.011C87.9978 436.546 83.0229 434.896 79.868 437.298C76.7132 439.701 76.6403 445.282 79.6739 449.748Z" fill="#FAC0AC"/>
<path d="M102.926 917.395L110.206 893.928C114.498 889.768 117.718 884.631 119.591 878.954C121.463 873.278 121.932 867.233 120.957 861.336" stroke="#28478F" stroke-width="0.5" stroke-miterlimit="10" stroke-linecap="round"/>
<path d="M54.3906 566.829L62.5204 546.273" stroke="#28478F" stroke-width="0.5" stroke-miterlimit="10" stroke-linecap="round"/>
</g>
<defs>
<clipPath id="clip0_608_139">
<rect width="1080" height="1080" fill="white" transform="translate(1080 1080) rotate(180)"/>
</clipPath>
</defs>
</svg>
