<svg width="1000" height="974" viewBox="0 0 1000 974" fill="none" xmlns="http://www.w3.org/2000/svg">
<rect width="1000" height="974" fill="white"/>
<path d="M165.943 43.6562V92H156.812V43.6562H165.943ZM185.434 64.541V71.7461H163.553V64.541H185.434ZM187.99 43.6562V50.8613H163.553V43.6562H187.99ZM212.793 74.3691H200.342V67.1973H212.793C214.829 67.1973 216.479 66.8652 217.74 66.2012C219.024 65.515 219.965 64.5853 220.562 63.4121C221.16 62.2168 221.459 60.8555 221.459 59.3281C221.459 57.8451 221.16 56.4616 220.562 55.1777C219.965 53.8939 219.024 52.8535 217.74 52.0566C216.479 51.2598 214.829 50.8613 212.793 50.8613H203.33V92H194.199V43.6562H212.793C216.556 43.6562 219.766 44.3314 222.422 45.6816C225.1 47.0098 227.137 48.8581 228.531 51.2266C229.948 53.5729 230.656 56.2513 230.656 59.2617C230.656 62.3828 229.948 65.0723 228.531 67.3301C227.137 69.5879 225.1 71.3255 222.422 72.543C219.766 73.7604 216.556 74.3691 212.793 74.3691ZM276.975 66.5996V69.0898C276.975 72.7422 276.488 76.0293 275.514 78.9512C274.54 81.8509 273.156 84.319 271.363 86.3555C269.57 88.3919 267.434 89.9525 264.955 91.0371C262.476 92.1217 259.72 92.6641 256.688 92.6641C253.699 92.6641 250.954 92.1217 248.453 91.0371C245.974 89.9525 243.827 88.3919 242.012 86.3555C240.197 84.319 238.791 81.8509 237.795 78.9512C236.799 76.0293 236.301 72.7422 236.301 69.0898V66.5996C236.301 62.9251 236.799 59.638 237.795 56.7383C238.791 53.8385 240.186 51.3704 241.979 49.334C243.771 47.2754 245.908 45.7038 248.387 44.6191C250.888 43.5345 253.633 42.9922 256.621 42.9922C259.654 42.9922 262.41 43.5345 264.889 44.6191C267.368 45.7038 269.504 47.2754 271.297 49.334C273.112 51.3704 274.507 53.8385 275.48 56.7383C276.477 59.638 276.975 62.9251 276.975 66.5996ZM267.744 69.0898V66.5332C267.744 63.8991 267.501 61.5859 267.014 59.5938C266.527 57.5794 265.807 55.8861 264.855 54.5137C263.904 53.1413 262.73 52.112 261.336 51.4258C259.941 50.7174 258.37 50.3633 256.621 50.3633C254.85 50.3633 253.279 50.7174 251.906 51.4258C250.556 52.112 249.405 53.1413 248.453 54.5137C247.501 55.8861 246.771 57.5794 246.262 59.5938C245.775 61.5859 245.531 63.8991 245.531 66.5332V69.0898C245.531 71.7018 245.775 74.015 246.262 76.0293C246.771 78.0436 247.501 79.748 248.453 81.1426C249.427 82.515 250.6 83.5553 251.973 84.2637C253.345 84.972 254.917 85.3262 256.688 85.3262C258.458 85.3262 260.03 84.972 261.402 84.2637C262.775 83.5553 263.926 82.515 264.855 81.1426C265.807 79.748 266.527 78.0436 267.014 76.0293C267.501 74.015 267.744 71.7018 267.744 69.0898ZM305.629 43.6562H313.531L326.746 80.0469L339.928 43.6562H347.863L329.9 92H323.559L305.629 43.6562ZM301.645 43.6562H309.381L310.775 77.0918V92H301.645V43.6562ZM344.078 43.6562H351.848V92H342.717V77.0918L344.078 43.6562ZM380.27 84.3633V67.7949C380.27 66.5775 380.059 65.526 379.639 64.6406C379.218 63.7552 378.576 63.069 377.713 62.582C376.85 62.0951 375.754 61.8516 374.426 61.8516C373.253 61.8516 372.223 62.0508 371.338 62.4492C370.475 62.8477 369.811 63.4121 369.346 64.1426C368.881 64.8509 368.648 65.6699 368.648 66.5996H359.85C359.85 65.1165 360.204 63.7109 360.912 62.3828C361.62 61.0326 362.628 59.8372 363.934 58.7969C365.262 57.7344 366.844 56.9043 368.682 56.3066C370.541 55.709 372.622 55.4102 374.924 55.4102C377.646 55.4102 380.07 55.875 382.195 56.8047C384.342 57.7122 386.025 59.0846 387.242 60.9219C388.482 62.7591 389.102 65.0723 389.102 67.8613V83.5332C389.102 85.3262 389.212 86.8646 389.434 88.1484C389.677 89.4102 390.031 90.5059 390.496 91.4355V92H381.564C381.144 91.0924 380.823 89.9414 380.602 88.5469C380.38 87.1302 380.27 85.7357 380.27 84.3633ZM381.498 70.1191L381.564 75.332H376.02C374.647 75.332 373.441 75.4759 372.4 75.7637C371.36 76.0293 370.508 76.4277 369.844 76.959C369.18 77.4681 368.682 78.0879 368.35 78.8184C368.018 79.5267 367.852 80.3346 367.852 81.2422C367.852 82.1276 368.051 82.9245 368.449 83.6328C368.87 84.3411 369.467 84.9056 370.242 85.3262C371.039 85.7246 371.969 85.9238 373.031 85.9238C374.581 85.9238 375.931 85.6139 377.082 84.9941C378.233 84.3522 379.13 83.5775 379.771 82.6699C380.413 81.7624 380.757 80.8991 380.801 80.0801L383.324 83.8652C383.014 84.7728 382.549 85.7357 381.93 86.7539C381.31 87.7721 380.513 88.724 379.539 89.6094C378.565 90.4948 377.392 91.2253 376.02 91.8008C374.647 92.3763 373.053 92.6641 371.238 92.6641C368.914 92.6641 366.833 92.1992 364.996 91.2695C363.159 90.3398 361.709 89.0671 360.646 87.4512C359.584 85.8353 359.053 83.998 359.053 81.9395C359.053 80.0358 359.407 78.3535 360.115 76.8926C360.824 75.4316 361.875 74.2031 363.27 73.207C364.664 72.1888 366.391 71.4251 368.449 70.916C370.53 70.3848 372.91 70.1191 375.588 70.1191H381.498ZM405.77 63.4121V92H397.004V56.0742H405.305L405.77 63.4121ZM416.693 55.8418L416.561 64.0098C416.074 63.9212 415.52 63.8548 414.9 63.8105C414.303 63.7663 413.738 63.7441 413.207 63.7441C411.857 63.7441 410.673 63.9323 409.654 64.3086C408.636 64.6628 407.784 65.1829 407.098 65.8691C406.434 66.5553 405.924 67.3965 405.57 68.3926C405.216 69.3665 405.017 70.4733 404.973 71.7129L403.08 71.4805C403.08 69.2005 403.312 67.0866 403.777 65.1387C404.242 63.1908 404.917 61.4863 405.803 60.0254C406.688 58.5645 407.795 57.4355 409.123 56.6387C410.473 55.8197 412.023 55.4102 413.771 55.4102C414.258 55.4102 414.779 55.4544 415.332 55.543C415.908 55.6094 416.361 55.709 416.693 55.8418ZM430.273 40.9668V92H421.508V40.9668H430.273ZM452.785 56.0742L437.146 73.6387L428.68 82.2383L425.891 75.4316L432.432 67.1973L442.193 56.0742H452.785ZM443.82 92L432.697 75.2656L438.541 69.5879L453.98 92H443.82ZM503.32 76.0957H512.451C512.208 79.3275 511.311 82.194 509.762 84.6953C508.212 87.1745 506.054 89.1224 503.287 90.5391C500.52 91.9557 497.167 92.6641 493.227 92.6641C490.194 92.6641 487.46 92.1328 485.025 91.0703C482.613 89.9857 480.543 88.4473 478.816 86.4551C477.112 84.4408 475.806 82.028 474.898 79.2168C473.991 76.3835 473.537 73.207 473.537 69.6875V66.002C473.537 62.4824 474.002 59.306 474.932 56.4727C475.861 53.6393 477.189 51.2266 478.916 49.2344C480.665 47.2201 482.757 45.6706 485.191 44.5859C487.648 43.5013 490.393 42.959 493.426 42.959C497.366 42.959 500.697 43.6895 503.42 45.1504C506.143 46.5892 508.257 48.5703 509.762 51.0938C511.267 53.6172 512.174 56.5169 512.484 59.793H503.354C503.176 57.7565 502.734 56.0299 502.025 54.6133C501.339 53.1966 500.299 52.123 498.904 51.3926C497.532 50.64 495.706 50.2637 493.426 50.2637C491.655 50.2637 490.094 50.5957 488.744 51.2598C487.416 51.9238 486.309 52.9199 485.424 54.248C484.538 55.554 483.874 57.1921 483.432 59.1621C482.989 61.11 482.768 63.3678 482.768 65.9355V69.6875C482.768 72.1445 482.967 74.347 483.365 76.2949C483.764 78.2428 484.383 79.8919 485.225 81.2422C486.066 82.5924 487.15 83.6217 488.479 84.3301C489.807 85.0384 491.389 85.3926 493.227 85.3926C495.462 85.3926 497.277 85.0384 498.672 84.3301C500.089 83.6217 501.162 82.5814 501.893 81.209C502.645 79.8366 503.121 78.1322 503.32 76.0957ZM534.996 92.6641C532.273 92.6641 529.827 92.2214 527.658 91.3359C525.489 90.4505 523.641 89.222 522.113 87.6504C520.608 86.0566 519.446 84.2083 518.627 82.1055C517.83 79.9805 517.432 77.7005 517.432 75.2656V73.9375C517.432 71.1706 517.83 68.6582 518.627 66.4004C519.424 64.1204 520.553 62.1615 522.014 60.5234C523.475 58.8854 525.223 57.6237 527.26 56.7383C529.296 55.8529 531.543 55.4102 534 55.4102C536.546 55.4102 538.792 55.8418 540.74 56.7051C542.688 57.5462 544.315 58.7415 545.621 60.291C546.927 61.8405 547.912 63.6999 548.576 65.8691C549.24 68.0163 549.572 70.3958 549.572 73.0078V76.6934H521.416V70.6504H540.939V69.9863C540.895 68.5918 540.63 67.319 540.143 66.168C539.656 64.9948 538.903 64.0651 537.885 63.3789C536.867 62.6706 535.549 62.3164 533.934 62.3164C532.628 62.3164 531.488 62.6042 530.514 63.1797C529.562 63.7331 528.765 64.5299 528.123 65.5703C527.503 66.5885 527.038 67.806 526.729 69.2227C526.419 70.6393 526.264 72.2109 526.264 73.9375V75.2656C526.264 76.7708 526.463 78.1654 526.861 79.4492C527.282 80.7331 527.891 81.8509 528.688 82.8027C529.507 83.7324 530.48 84.4629 531.609 84.9941C532.76 85.5033 534.066 85.7578 535.527 85.7578C537.365 85.7578 539.025 85.4036 540.508 84.6953C542.013 83.9648 543.319 82.8913 544.426 81.4746L548.842 86.0566C548.089 87.1634 547.071 88.2259 545.787 89.2441C544.525 90.2624 542.998 91.0924 541.205 91.7344C539.412 92.3542 537.342 92.6641 534.996 92.6641ZM564.215 63.4121V92H555.449V56.0742H563.75L564.215 63.4121ZM575.139 55.8418L575.006 64.0098C574.519 63.9212 573.965 63.8548 573.346 63.8105C572.748 63.7663 572.184 63.7441 571.652 63.7441C570.302 63.7441 569.118 63.9323 568.1 64.3086C567.081 64.6628 566.229 65.1829 565.543 65.8691C564.879 66.5553 564.37 67.3965 564.016 68.3926C563.661 69.3665 563.462 70.4733 563.418 71.7129L561.525 71.4805C561.525 69.2005 561.758 67.0866 562.223 65.1387C562.688 63.1908 563.363 61.4863 564.248 60.0254C565.133 58.5645 566.24 57.4355 567.568 56.6387C568.919 55.8197 570.468 55.4102 572.217 55.4102C572.704 55.4102 573.224 55.4544 573.777 55.543C574.353 55.6094 574.807 55.709 575.139 55.8418ZM598.613 56.0742V62.3828H578.027V56.0742H598.613ZM583.539 47.2422H592.338V81.6406C592.338 82.7031 592.482 83.5221 592.77 84.0977C593.057 84.6732 593.489 85.0605 594.064 85.2598C594.64 85.459 595.326 85.5586 596.123 85.5586C596.699 85.5586 597.23 85.5254 597.717 85.459C598.204 85.3926 598.613 85.3262 598.945 85.2598L598.979 91.834C598.248 92.0775 597.418 92.2767 596.488 92.4316C595.581 92.5866 594.551 92.6641 593.4 92.6641C591.43 92.6641 589.704 92.332 588.221 91.668C586.738 90.9818 585.587 89.8861 584.768 88.3809C583.949 86.8535 583.539 84.8392 583.539 82.3379V47.2422ZM613.754 56.0742V92H604.955V56.0742H613.754ZM604.357 46.6777C604.357 45.3717 604.8 44.2871 605.686 43.4238C606.593 42.5605 607.811 42.1289 609.338 42.1289C610.865 42.1289 612.072 42.5605 612.957 43.4238C613.865 44.2871 614.318 45.3717 614.318 46.6777C614.318 47.9616 613.865 49.0352 612.957 49.8984C612.072 50.7617 610.865 51.1934 609.338 51.1934C607.811 51.1934 606.593 50.7617 605.686 49.8984C604.8 49.0352 604.357 47.9616 604.357 46.6777ZM633.211 92H624.379V54.082C624.379 51.1159 624.977 48.6146 626.172 46.5781C627.389 44.5195 629.127 42.959 631.385 41.8965C633.665 40.834 636.376 40.3027 639.52 40.3027C641.357 40.3027 643.128 40.4909 644.832 40.8672C646.559 41.2214 648.329 41.6862 650.145 42.2617L648.85 49.3672C647.676 48.9909 646.393 48.6367 644.998 48.3047C643.626 47.9727 641.999 47.8066 640.117 47.8066C637.793 47.8066 636.055 48.3379 634.904 49.4004C633.775 50.4629 633.211 52.0234 633.211 54.082V92ZM640.383 56.0742V62.3828H618.967V56.0742H640.383ZM654.262 56.0742V92H645.463V56.0742H654.262ZM677.504 85.7578C678.743 85.7578 679.85 85.5143 680.824 85.0273C681.798 84.5404 682.573 83.8542 683.148 82.9688C683.746 82.0833 684.067 81.054 684.111 79.8809H692.379C692.335 82.3158 691.648 84.4961 690.32 86.4219C688.992 88.3477 687.221 89.875 685.008 91.0039C682.816 92.1107 680.359 92.6641 677.637 92.6641C674.87 92.6641 672.457 92.1992 670.398 91.2695C668.34 90.3398 666.624 89.0449 665.252 87.3848C663.902 85.7246 662.883 83.7988 662.197 81.6074C661.533 79.416 661.201 77.0697 661.201 74.5684V73.5059C661.201 71.0046 661.533 68.6582 662.197 66.4668C662.883 64.2754 663.902 62.3496 665.252 60.6895C666.624 59.0293 668.34 57.7344 670.398 56.8047C672.457 55.875 674.859 55.4102 677.604 55.4102C680.503 55.4102 683.049 55.9746 685.24 57.1035C687.454 58.2324 689.18 59.8262 690.42 61.8848C691.682 63.9434 692.335 66.3672 692.379 69.1562H684.111C684.067 67.8724 683.779 66.7214 683.248 65.7031C682.717 64.6849 681.964 63.8659 680.99 63.2461C680.016 62.6263 678.832 62.3164 677.438 62.3164C675.954 62.3164 674.715 62.6263 673.719 63.2461C672.745 63.8659 671.981 64.7181 671.428 65.8027C670.896 66.8652 670.52 68.0605 670.299 69.3887C670.1 70.6947 670 72.0671 670 73.5059V74.5684C670 76.0293 670.1 77.4238 670.299 78.752C670.52 80.0801 670.896 81.2754 671.428 82.3379C671.981 83.3783 672.745 84.2083 673.719 84.8281C674.715 85.4479 675.977 85.7578 677.504 85.7578ZM718.012 84.3633V67.7949C718.012 66.5775 717.801 65.526 717.381 64.6406C716.96 63.7552 716.318 63.069 715.455 62.582C714.592 62.0951 713.496 61.8516 712.168 61.8516C710.995 61.8516 709.965 62.0508 709.08 62.4492C708.217 62.8477 707.553 63.4121 707.088 64.1426C706.623 64.8509 706.391 65.6699 706.391 66.5996H697.592C697.592 65.1165 697.946 63.7109 698.654 62.3828C699.363 61.0326 700.37 59.8372 701.676 58.7969C703.004 57.7344 704.587 56.9043 706.424 56.3066C708.283 55.709 710.364 55.4102 712.666 55.4102C715.389 55.4102 717.812 55.875 719.938 56.8047C722.085 57.7122 723.767 59.0846 724.984 60.9219C726.224 62.7591 726.844 65.0723 726.844 67.8613V83.5332C726.844 85.3262 726.954 86.8646 727.176 88.1484C727.419 89.4102 727.773 90.5059 728.238 91.4355V92H719.307C718.886 91.0924 718.565 89.9414 718.344 88.5469C718.122 87.1302 718.012 85.7357 718.012 84.3633ZM719.24 70.1191L719.307 75.332H713.762C712.389 75.332 711.183 75.4759 710.143 75.7637C709.102 76.0293 708.25 76.4277 707.586 76.959C706.922 77.4681 706.424 78.0879 706.092 78.8184C705.76 79.5267 705.594 80.3346 705.594 81.2422C705.594 82.1276 705.793 82.9245 706.191 83.6328C706.612 84.3411 707.21 84.9056 707.984 85.3262C708.781 85.7246 709.711 85.9238 710.773 85.9238C712.323 85.9238 713.673 85.6139 714.824 84.9941C715.975 84.3522 716.872 83.5775 717.514 82.6699C718.156 81.7624 718.499 80.8991 718.543 80.0801L721.066 83.8652C720.757 84.7728 720.292 85.7357 719.672 86.7539C719.052 87.7721 718.255 88.724 717.281 89.6094C716.307 90.4948 715.134 91.2253 713.762 91.8008C712.389 92.3763 710.796 92.6641 708.98 92.6641C706.656 92.6641 704.576 92.1992 702.738 91.2695C700.901 90.3398 699.451 89.0671 698.389 87.4512C697.326 85.8353 696.795 83.998 696.795 81.9395C696.795 80.0358 697.149 78.3535 697.857 76.8926C698.566 75.4316 699.617 74.2031 701.012 73.207C702.406 72.1888 704.133 71.4251 706.191 70.916C708.272 70.3848 710.652 70.1191 713.33 70.1191H719.24ZM751.746 56.0742V62.3828H731.16V56.0742H751.746ZM736.672 47.2422H745.471V81.6406C745.471 82.7031 745.615 83.5221 745.902 84.0977C746.19 84.6732 746.622 85.0605 747.197 85.2598C747.773 85.459 748.459 85.5586 749.256 85.5586C749.831 85.5586 750.363 85.5254 750.85 85.459C751.337 85.3926 751.746 85.3262 752.078 85.2598L752.111 91.834C751.381 92.0775 750.551 92.2767 749.621 92.4316C748.714 92.5866 747.684 92.6641 746.533 92.6641C744.563 92.6641 742.837 92.332 741.354 91.668C739.87 90.9818 738.719 89.8861 737.9 88.3809C737.081 86.8535 736.672 84.8392 736.672 82.3379V47.2422ZM766.887 56.0742V92H758.088V56.0742H766.887ZM757.49 46.6777C757.49 45.3717 757.933 44.2871 758.818 43.4238C759.726 42.5605 760.943 42.1289 762.471 42.1289C763.998 42.1289 765.204 42.5605 766.09 43.4238C766.997 44.2871 767.451 45.3717 767.451 46.6777C767.451 47.9616 766.997 49.0352 766.09 49.8984C765.204 50.7617 763.998 51.1934 762.471 51.1934C760.943 51.1934 759.726 50.7617 758.818 49.8984C757.933 49.0352 757.49 47.9616 757.49 46.6777ZM773.693 74.4023V73.7051C773.693 71.071 774.07 68.6471 774.822 66.4336C775.575 64.1979 776.671 62.2611 778.109 60.623C779.548 58.985 781.308 57.7122 783.389 56.8047C785.469 55.875 787.838 55.4102 790.494 55.4102C793.195 55.4102 795.585 55.875 797.666 56.8047C799.769 57.7122 801.54 58.985 802.979 60.623C804.417 62.2611 805.513 64.1979 806.266 66.4336C807.018 68.6471 807.395 71.071 807.395 73.7051V74.4023C807.395 77.0143 807.018 79.4382 806.266 81.6738C805.513 83.8874 804.417 85.8242 802.979 87.4844C801.54 89.1224 799.78 90.3952 797.699 91.3027C795.618 92.2103 793.239 92.6641 790.561 92.6641C787.904 92.6641 785.525 92.2103 783.422 91.3027C781.319 90.3952 779.548 89.1224 778.109 87.4844C776.671 85.8242 775.575 83.8874 774.822 81.6738C774.07 79.4382 773.693 77.0143 773.693 74.4023ZM782.459 73.7051V74.4023C782.459 75.974 782.614 77.446 782.924 78.8184C783.234 80.1908 783.71 81.3971 784.352 82.4375C784.993 83.4779 785.824 84.2969 786.842 84.8945C787.882 85.4701 789.122 85.7578 790.561 85.7578C791.977 85.7578 793.195 85.4701 794.213 84.8945C795.231 84.2969 796.061 83.4779 796.703 82.4375C797.367 81.3971 797.854 80.1908 798.164 78.8184C798.474 77.446 798.629 75.974 798.629 74.4023V73.7051C798.629 72.1556 798.474 70.7057 798.164 69.3555C797.854 67.9831 797.367 66.7767 796.703 65.7363C796.061 64.6738 795.22 63.8438 794.18 63.2461C793.161 62.6263 791.933 62.3164 790.494 62.3164C789.077 62.3164 787.86 62.6263 786.842 63.2461C785.824 63.8438 784.993 64.6738 784.352 65.7363C783.71 66.7767 783.234 67.9831 782.924 69.3555C782.614 70.7057 782.459 72.1556 782.459 73.7051ZM822.369 63.7441V92H813.604V56.0742H821.838L822.369 63.7441ZM820.975 72.7422H818.385C818.407 70.1302 818.761 67.7617 819.447 65.6367C820.133 63.5117 821.096 61.6855 822.336 60.1582C823.598 58.6309 825.092 57.4577 826.818 56.6387C828.545 55.8197 830.471 55.4102 832.596 55.4102C834.322 55.4102 835.883 55.6536 837.277 56.1406C838.672 56.6276 839.867 57.4023 840.863 58.4648C841.882 59.5273 842.656 60.9219 843.188 62.6484C843.741 64.3529 844.018 66.4557 844.018 68.957V92H835.186V68.8906C835.186 67.2526 834.942 65.9577 834.455 65.0059C833.99 64.054 833.304 63.3789 832.396 62.9805C831.511 62.582 830.415 62.3828 829.109 62.3828C827.759 62.3828 826.575 62.6595 825.557 63.2129C824.561 63.7441 823.719 64.4857 823.033 65.4375C822.369 66.3893 821.86 67.485 821.506 68.7246C821.152 69.9642 820.975 71.3034 820.975 72.7422Z" fill="#1C4670"/>
<path d="M961.482 731.59L965.089 728.823L963.452 721.046L958.954 719.641C957.52 715.53 955.573 711.707 953.182 708.249L954.914 704.069L949.608 698.152L945.011 699.184C941.772 696.401 938.174 694.057 934.316 692.222L933.725 687.719L926.17 685.248L922.718 688.428C918.586 687.643 914.306 687.407 909.966 687.764L907.199 684.156L899.422 685.793L898.016 690.294C893.906 691.728 890.083 693.675 886.625 696.065L882.445 694.334L876.527 699.64L877.56 704.237C874.777 707.476 872.433 711.074 870.598 714.932L866.095 715.523L863.624 723.078L866.804 726.529C866.019 730.661 865.783 734.942 866.14 739.282L862.532 742.048L864.169 749.826L868.668 751.231C870.099 755.342 872.048 759.165 874.439 762.623L872.705 766.802L878.011 772.72L882.608 771.688C885.847 774.471 889.445 776.814 893.303 778.65L893.894 783.153L901.449 785.624L904.901 782.444C909.033 783.229 913.313 783.465 917.653 783.108L920.42 786.716L928.197 785.078L929.603 780.58C933.713 779.149 937.536 777.2 940.994 774.809L945.174 776.54L951.092 771.234L950.059 766.637C952.842 763.398 955.186 759.8 957.021 755.942L961.524 755.352L963.995 747.796L960.815 744.345C961.6 740.213 961.836 735.93 961.482 731.59ZM913.81 760.899C899.746 760.899 888.344 749.497 888.344 735.434C888.344 721.37 899.746 709.969 913.81 709.969C927.873 709.969 939.275 721.37 939.275 735.434C939.275 749.497 927.873 760.899 913.81 760.899Z" fill="#F0F6FF"/>
<path d="M150.686 285.073L153.665 282.788L152.314 276.365L148.598 275.205C147.414 271.81 145.805 268.654 143.83 265.795L145.262 262.344L140.879 257.456L137.083 258.308C134.406 256.007 131.437 254.073 128.25 252.558L127.761 248.84L121.521 246.799L118.67 249.426C115.259 248.778 111.72 248.582 108.136 248.878L105.851 245.898L99.4277 247.25L98.2677 250.966C94.8728 252.15 91.7142 253.758 88.858 255.733L85.4065 254.302L80.5185 258.684L81.3714 262.481C79.0727 265.157 77.1378 268.129 75.6211 271.314L71.9026 271.803L69.8614 278.042L72.4885 280.894C71.8412 284.307 71.6451 287.844 71.9404 291.428L68.959 293.712L70.3103 300.136L74.0265 301.296C75.2101 304.691 76.8189 307.847 78.7939 310.706L77.3623 314.157L81.7446 319.045L85.5411 318.192C88.2178 320.491 91.1874 322.426 94.3744 323.942L94.8634 327.661L101.103 329.702L103.954 327.075C107.366 327.722 110.905 327.918 114.488 327.623L116.773 330.605L123.196 329.253L124.356 325.537C127.751 324.354 130.908 322.745 133.766 320.77L137.218 322.201L142.106 317.819L141.253 314.022C143.551 311.346 145.489 308.374 147.003 305.189L150.722 304.7L152.763 298.461L150.136 295.609C150.785 292.196 150.979 288.657 150.686 285.073ZM111.309 309.281C99.6923 309.281 90.2755 299.864 90.2755 288.248C90.2755 276.632 99.6923 267.215 111.309 267.215C122.925 267.215 132.342 276.632 132.342 288.248C132.344 299.864 122.925 309.281 111.309 309.281Z" fill="#F0F6FF"/>
<path d="M994.589 384.652L998.001 382.037L996.453 374.68L992.198 373.35C990.842 369.462 989.002 365.847 986.739 362.575L988.378 358.623L983.36 353.026L979.013 354.002C975.949 351.368 972.547 349.152 968.9 347.417L968.34 343.158L961.196 340.821L957.933 343.829C954.026 343.087 949.976 342.865 945.87 343.2L943.255 339.789L935.898 341.336L934.568 345.591C930.68 346.947 927.065 348.788 923.793 351.051L919.841 349.411L914.244 354.429L915.22 358.776C912.586 361.84 910.372 365.242 908.636 368.89L904.376 369.45L902.04 376.594L905.047 379.859C904.305 383.766 904.083 387.816 904.419 391.919L901.005 394.534L902.552 401.891L906.807 403.221C908.161 407.11 910.004 410.722 912.267 413.996L910.627 417.949L915.645 423.546L919.992 422.57C923.056 425.204 926.458 427.418 930.106 429.154L930.666 433.414L937.81 435.75L941.075 432.743C944.982 433.484 949.031 433.706 953.135 433.371L955.75 436.782L963.107 435.235L964.437 430.98C968.326 429.624 971.94 427.784 975.21 425.521L979.162 427.16L984.759 422.142L983.783 417.795C986.417 414.731 988.631 411.329 990.367 407.682L994.625 407.122L996.961 399.978L993.954 396.713C994.703 392.807 994.925 388.758 994.589 384.652ZM949.504 412.371C936.203 412.371 925.421 401.589 925.421 388.288C925.421 374.987 936.203 364.205 949.504 364.205C962.805 364.205 973.587 374.987 973.587 388.288C973.587 401.589 962.805 412.371 949.504 412.371Z" fill="#F0F6FF"/>
<path d="M140.071 751.078L145.065 747.251L142.799 736.485L136.572 734.541C134.59 728.852 131.892 723.562 128.584 718.774L130.982 712.99L123.637 704.8L117.275 706.229C112.791 702.376 107.811 699.132 102.472 696.595L101.655 690.363L91.1985 686.942L86.4216 691.343C80.7044 690.256 74.777 689.93 68.7692 690.424L64.9421 685.43L54.1763 687.695L52.232 693.923C46.5408 695.905 41.2536 698.603 36.4649 701.91L30.6816 699.512L22.4909 706.857L23.9202 713.219C20.067 717.703 16.8234 722.681 14.2861 728.023L8.05392 728.84L4.63307 739.296L9.03434 744.073C7.9476 749.79 7.62395 755.718 8.11534 761.723L3.12109 765.553L5.3867 776.318L11.6142 778.263C13.5963 783.952 16.2942 789.241 19.6016 794.03L17.2037 799.813L24.5486 808.004L30.9108 806.577C35.3947 810.43 40.3748 813.674 45.714 816.211L46.5314 822.443L56.9876 825.864L61.7645 821.463C67.4817 822.549 73.4091 822.875 79.4145 822.382L83.2441 827.376L94.0098 825.11L95.9541 818.883C101.643 816.901 106.932 814.203 111.721 810.895L117.505 813.293L125.695 805.948L124.268 799.586C128.121 795.102 131.365 790.122 133.902 784.783L140.135 783.966L143.555 773.509L139.154 768.733C140.236 763.011 140.562 757.083 140.071 751.078ZM74.0919 791.641C54.6275 791.641 38.8486 775.862 38.8486 756.398C38.8486 736.934 54.6275 721.155 74.0919 721.155C93.5562 721.155 109.335 736.934 109.335 756.398C109.335 775.862 93.5562 791.641 74.0919 791.641ZM88.9778 756.398C88.9778 764.62 82.3132 771.284 74.0919 771.284C65.8705 771.284 59.206 764.62 59.206 756.398C59.206 748.177 65.8705 741.512 74.0919 741.512C82.3132 741.512 88.9778 748.177 88.9778 756.398Z" fill="#F0F6FF"/>
<path d="M950.046 516.287L956.025 511.701L953.313 498.809L945.855 496.48C943.481 489.667 940.251 483.33 936.287 477.597L939.16 470.672L930.364 460.863L922.745 462.574C917.375 457.96 911.413 454.076 905.017 451.036L904.037 443.573L891.516 439.476L885.796 444.747C878.948 443.445 871.851 443.058 864.657 443.646L860.071 437.664L847.18 440.379L844.85 447.837C838.037 450.211 831.701 453.441 825.967 457.405L819.043 454.532L809.234 463.327L810.944 470.946C806.33 476.316 802.446 482.279 799.406 488.674L791.943 489.655L787.846 502.176L793.117 507.895C791.815 514.744 791.428 521.841 792.016 529.035L786.034 533.62L788.746 546.512L796.205 548.842C798.579 555.655 801.808 561.991 805.773 567.725L802.9 574.652L811.695 584.461L819.314 582.75C824.684 587.364 830.647 591.248 837.042 594.288L838.023 601.751L850.544 605.848L856.263 600.577C863.11 601.879 870.209 602.269 877.403 601.678L881.988 607.658L894.88 604.945L897.209 597.487C904.023 595.113 910.359 591.883 916.093 587.919L923.017 590.792L932.826 581.996L931.115 574.377C935.729 569.008 939.613 563.045 942.654 556.65L950.117 555.669L954.213 543.148L948.943 537.429C950.247 530.58 950.637 523.481 950.046 516.287ZM871.031 564.869C847.721 564.869 828.823 545.971 828.823 522.661C828.823 499.35 847.721 480.453 871.031 480.453C894.341 480.453 913.239 499.35 913.239 522.661C913.239 545.971 894.341 564.869 871.031 564.869ZM888.858 522.661C888.858 532.508 880.875 540.488 871.031 540.488C861.184 540.488 853.204 532.505 853.204 522.661C853.204 512.814 861.187 504.834 871.031 504.834C880.878 504.831 888.858 512.814 888.858 522.661Z" fill="#F0F6FF"/>
<path d="M842.576 576.058H752.637C744.467 576.058 737.848 569.436 737.848 561.269V371.695C737.848 363.526 744.47 356.906 752.637 356.906H842.576C850.743 356.906 857.365 363.528 857.365 371.695V561.269C857.365 569.436 850.745 576.058 842.576 576.058Z" fill="#6C92CC"/>
<path d="M848.83 544.184V378.141H746.382V544.184H848.83Z" fill="#DAE9FE"/>
<path d="M807.56 559.82C807.56 554.323 803.104 549.867 797.606 549.867C792.109 549.867 787.653 554.323 787.653 559.82C787.653 565.318 792.109 569.773 797.606 569.773C803.104 569.773 807.56 565.315 807.56 559.82Z" fill="#DAE9FE"/>
<path d="M810.528 368.161H784.532C784.033 368.161 783.627 367.755 783.627 367.256C783.627 366.758 784.033 366.352 784.532 366.352H810.528C811.027 366.352 811.433 366.758 811.433 367.256C811.433 367.755 811.027 368.161 810.528 368.161Z" fill="#2A3E77"/>
<path d="M757.632 404.609H837.582" stroke="#2A3E77" stroke-miterlimit="10"/>
<path d="M757.632 421.812H837.582" stroke="#2A3E77" stroke-miterlimit="10"/>
<path d="M757.632 439.016H837.582" stroke="#2A3E77" stroke-miterlimit="10"/>
<path d="M767.875 456.219H827.411" stroke="#2A3E77" stroke-miterlimit="10"/>
<path d="M792.014 527.088L787.114 521.981L780.046 522.347L787.776 503.234L799.744 507.976L792.014 527.088Z" fill="#2A3E77"/>
<path d="M802.058 527.088L806.957 521.981L814.026 522.347L806.473 503.234L794.505 507.976L802.058 527.088Z" fill="#2A3E77"/>
<path d="M815.892 494.897L816.913 491.408L814.765 488.476L814.524 484.85L811.5 482.832L810.038 479.506L806.508 478.639L803.997 476.012L800.385 476.411L797.122 474.805L793.86 476.411L790.248 476.012L787.736 478.641L784.207 479.506L782.742 482.835L779.718 484.85L779.48 488.476L777.332 491.408L778.353 494.897L777.332 498.389L779.48 501.321L779.72 504.947L782.744 506.965L784.207 510.291L787.736 511.158L790.248 513.785L793.862 513.386L797.122 514.99L800.385 513.386L803.997 513.783L806.511 511.156L810.04 510.289L811.503 506.963L814.527 504.945L814.765 501.321L816.913 498.387L815.892 494.897Z" fill="#6C92CC"/>
<path d="M810.475 494.892C810.475 487.516 804.495 481.539 797.122 481.539C789.747 481.539 783.77 487.518 783.77 494.892C783.77 502.267 789.749 508.244 797.122 508.244C804.498 508.247 810.475 502.267 810.475 494.892Z" stroke="#DAE9FE" stroke-width="0.25" stroke-miterlimit="10"/>
<path d="M806.083 324.88C810.933 319.94 817.664 316.843 825.117 316.775C832.571 316.706 839.358 319.673 844.298 324.523" stroke="#DAE9FE" stroke-width="1.5" stroke-miterlimit="10" stroke-linecap="round" stroke-linejoin="round"/>
<path d="M854.588 314.041C846.962 306.554 836.484 301.974 824.979 302.08C813.474 302.186 803.086 306.966 795.6 314.592" stroke="#DAE9FE" stroke-width="1.5" stroke-miterlimit="10" stroke-linecap="round" stroke-linejoin="round"/>
<path d="M864.386 302.995C854.199 292.995 840.206 286.874 824.839 287.018C809.471 287.162 795.594 293.543 785.596 303.73" stroke="#DAE9FE" stroke-width="1.5" stroke-miterlimit="10" stroke-linecap="round" stroke-linejoin="round"/>
<path d="M816.563 335.149C818.775 332.895 821.848 331.484 825.255 331.454C828.664 331.423 831.761 332.774 834.015 334.986" stroke="#DAE9FE" stroke-width="1.5" stroke-miterlimit="10" stroke-linecap="round" stroke-linejoin="round"/>
<path d="M844.298 324.524C839.356 319.673 832.571 316.704 825.117 316.775C817.664 316.843 810.933 319.94 806.083 324.88" stroke="#DAE9FE" stroke-width="1.5" stroke-miterlimit="10" stroke-linecap="round" stroke-linejoin="round"/>
<path d="M834.013 334.986C831.759 332.774 828.662 331.421 825.253 331.454C821.846 331.484 818.773 332.895 816.562 335.149" stroke="#DAE9FE" stroke-width="1.5" stroke-miterlimit="10" stroke-linecap="round" stroke-linejoin="round"/>
<path d="M215.421 639.869L47.8606 639.874C45.5335 639.874 43.6483 637.989 43.6483 635.662L43.6436 411.155C43.6436 408.827 45.5288 406.942 47.8558 406.942L215.416 406.938C217.743 406.938 219.628 408.823 219.628 411.15L219.635 635.657C219.633 637.982 217.748 639.869 215.421 639.869Z" fill="#DAE9FE"/>
<path d="M77.2921 406.938H43.2324V639.891H77.2921V406.938Z" fill="#9CB4E2"/>
<path d="M195.264 460.336H100.305V468.886H195.264V460.336Z" fill="#DAE9FE"/>
<path d="M180.749 444.906H114.819V453.456H180.749V444.906Z" fill="#DAE9FE"/>
<path d="M152.725 650.813L140.001 644.732L127.274 650.813V619.992H152.725V650.813Z" fill="#6C92CC"/>
<path d="M275.552 619.966L100.809 619.97C98.3832 619.97 96.4153 618.005 96.4153 615.579L96.4082 381.451C96.4082 379.025 98.3738 377.059 100.8 377.059L275.542 377.055C277.968 377.055 279.934 379.02 279.934 381.446L279.941 615.574C279.943 617.998 277.975 619.966 275.552 619.966Z" fill="#FFA229"/>
<path d="M131.501 377.055H95.9834V619.989H131.501V377.055Z" fill="#1C4670"/>
<path d="M254.534 432.734H155.504V441.65H254.534V432.734Z" fill="#DAE9FE"/>
<path d="M239.396 416.641H170.642V425.557H239.396V416.641Z" fill="#DAE9FE"/>
<path d="M266.983 240.254H309.264C313.056 256.243 325.411 259.111 332.562 259.378C334.022 259.432 334.653 257.592 333.503 256.692C325.648 250.557 328.624 240.254 328.624 240.254H357.227C360.525 240.254 363.223 237.556 363.223 234.258V178.098C363.223 174.8 360.525 172.102 357.227 172.102H266.985C263.687 172.102 260.989 174.8 260.989 178.098V234.258C260.987 237.556 263.685 240.254 266.983 240.254Z" fill="#DAE9FE"/>
<path d="M329.48 205.419C329.48 201.83 332.389 198.922 335.977 198.922C339.566 198.922 342.474 201.83 342.474 205.419C342.474 209.007 339.566 211.915 335.977 211.915C332.391 211.918 329.48 209.007 329.48 205.419Z" fill="#FEFEFE"/>
<path d="M305.608 205.419C305.608 201.83 308.517 198.922 312.105 198.922C315.694 198.922 318.602 201.83 318.602 205.419C318.602 209.007 315.694 211.915 312.105 211.915C308.517 211.918 305.608 209.007 305.608 205.419Z" fill="#FEFEFE"/>
<path d="M281.732 205.419C281.732 201.83 284.641 198.922 288.229 198.922C291.818 198.922 294.726 201.83 294.726 205.419C294.726 209.007 291.818 211.915 288.229 211.915C284.641 211.918 281.732 209.007 281.732 205.419Z" fill="#FEFEFE"/>
<path d="M289.3 332.777H247.019C243.227 348.767 230.872 351.635 223.721 351.901C222.261 351.956 221.63 350.115 222.78 349.215C230.636 343.08 227.659 332.777 227.659 332.777H199.056C195.758 332.777 193.061 330.079 193.061 326.781V270.621C193.061 267.323 195.758 264.625 199.056 264.625H289.298C292.596 264.625 295.294 267.323 295.294 270.621V326.781C295.296 330.079 292.598 332.777 289.3 332.777Z" fill="#6C92CC"/>
<path d="M226.802 297.942C226.802 294.354 223.894 291.445 220.305 291.445C216.717 291.445 213.809 294.354 213.809 297.942C213.809 301.531 216.717 304.439 220.305 304.439C223.894 304.439 226.802 301.531 226.802 297.942Z" fill="#FEFEFE"/>
<path d="M250.678 297.942C250.678 294.354 247.77 291.445 244.181 291.445C240.593 291.445 237.685 294.354 237.685 297.942C237.685 301.531 240.593 304.439 244.181 304.439C247.77 304.439 250.678 301.531 250.678 297.942Z" fill="#FEFEFE"/>
<path d="M274.552 297.942C274.552 294.354 271.644 291.445 268.055 291.445C264.467 291.445 261.559 294.354 261.559 297.942C261.559 301.531 264.467 304.439 268.055 304.439C271.644 304.439 274.552 301.531 274.552 297.942Z" fill="#FEFEFE"/>
<path d="M718.719 272.404C748.011 267.683 767.931 240.111 763.21 210.819C758.49 181.527 730.918 161.608 701.626 166.328C672.334 171.048 652.414 198.621 657.135 227.913C661.855 257.205 689.427 277.124 718.719 272.404Z" fill="#DAE9FE"/>
<path d="M710.137 270.489V210.688" stroke="#2A3E77" stroke-width="0.75" stroke-miterlimit="10" stroke-linecap="round" stroke-linejoin="round"/>
<path d="M722.765 270.49C722.765 270.49 711.286 250.636 722.765 221.02C734.244 191.404 753.758 224.923 710.138 226.529C666.517 224.923 686.034 191.404 697.511 221.02C708.987 250.636 697.511 270.49 697.511 270.49" stroke="#2A3E77" stroke-width="0.75" stroke-miterlimit="10" stroke-linecap="round" stroke-linejoin="round"/>
<path d="M724.923 271.042C723.909 263.783 717.677 258.195 710.138 258.195C702.592 258.195 696.356 263.792 695.352 271.061C695.352 271.061 700.955 273.121 710.138 273.121C719.321 273.124 724.923 271.042 724.923 271.042Z" fill="#2A3E77"/>
<path d="M710.135 320.558C705.361 320.558 701.491 316.689 701.491 311.914V308.938H718.78V311.914C718.78 316.689 714.91 320.558 710.135 320.558Z" fill="#2A3E77"/>
<path d="M721.629 308.925H698.643L693.079 299.435V270.469H727.195V299.435L721.629 308.925Z" fill="#FFA229"/>
<path d="M693.079 276.172H727.195" stroke="#DAE9FE" stroke-width="0.5" stroke-miterlimit="10"/>
<path d="M693.079 281.984H727.195" stroke="#DAE9FE" stroke-width="0.5" stroke-miterlimit="10"/>
<path d="M693.079 287.797H727.195" stroke="#DAE9FE" stroke-width="0.5" stroke-miterlimit="10"/>
<path d="M693.079 293.617H727.195" stroke="#DAE9FE" stroke-width="0.5" stroke-miterlimit="10"/>
<path d="M693.079 299.445H727.195" stroke="#DAE9FE" stroke-width="0.5" stroke-miterlimit="10"/>
<path opacity="0.15" d="M833.677 921.47H166.63C161.178 921.47 158.6 914.744 162.657 911.101L251.211 831.583C255.102 828.089 260.146 826.156 265.374 826.156H734.93C740.159 826.156 745.205 828.089 749.093 831.583L837.648 911.101C841.704 914.742 839.129 921.47 833.677 921.47Z" fill="#9CB4E2"/>
<path d="M748.395 749.294H251.913C241.483 749.294 233.025 740.839 233.025 730.406V419.872C233.025 409.442 241.481 400.984 251.913 400.984H748.395C758.825 400.984 767.282 409.44 767.282 419.872V730.406C767.28 740.837 758.825 749.294 748.395 749.294Z" fill="#1C4670"/>
<path d="M749.138 417.32H251.166V732.974H749.138V417.32Z" fill="#BDDCFB"/>
<path d="M136.25 848.844C136.25 848.844 138.454 865.648 152.329 865.648H500.152H847.975C861.852 865.648 864.054 848.844 864.054 848.844H136.25Z" fill="#9CB4E2"/>
<path d="M858.697 851.769H141.609C135.748 851.769 132.977 844.538 137.338 840.621L232.536 755.138C236.717 751.381 242.142 749.305 247.762 749.305H752.545C758.165 749.305 763.589 751.381 767.771 755.138L862.969 840.621C867.327 844.538 864.559 851.769 858.697 851.769Z" fill="#DAE9FE"/>
<path d="M205.079 803.992L255.255 758.938H745.049L796.078 804.757L205.079 803.992Z" fill="#9CB4E2"/>
<path d="M598.366 841.2H401.938L416.954 814.109H583.352L598.366 841.2Z" fill="#9CB4E2"/>
<mask id="mask0_80_65" style="mask-type:luminance" maskUnits="userSpaceOnUse" x="351" y="402" width="323" height="306">
<path d="M673.44 402.984H351.214V707.877H673.44V402.984Z" fill="white"/>
</mask>
<g mask="url(#mask0_80_65)">
<path opacity="0.71" d="M670.967 294.961H370.169V690.957H629.104L670.967 649.094V294.961Z" fill="#9CB4E2"/>
</g>
<path d="M650.798 276.5H350V672.496H608.935L650.798 630.633V276.5Z" fill="#F0F6FF"/>
<path d="M611.225 659.42H363.081V289.586H637.72V631.966" stroke="#DB349A" stroke-miterlimit="10" stroke-linecap="round" stroke-linejoin="round"/>
<path d="M608.935 672.488L650.797 630.625H608.935V672.488Z" fill="#2A3E77"/>
<path d="M490.293 640.531L480.761 630.594L467.009 631.308L482.048 594.125L505.333 603.35L490.293 640.531Z" fill="#FFA229"/>
<path d="M509.836 640.531L519.369 630.594L533.121 631.308L518.426 594.125L495.142 603.35L509.836 640.531Z" fill="#FFA229"/>
<path d="M536.907 577.933L538.591 571.169L534.705 565.386L533.965 558.457L528.328 554.36L525.267 548.102L518.574 546.167L513.558 541.331L506.608 541.813L500.236 538.992L493.865 541.813L486.912 541.331L481.897 546.169L475.204 548.102L472.142 554.362L466.508 558.459L465.768 565.388L461.882 571.171L463.566 577.933L461.882 584.696L465.768 590.48L466.508 597.409L472.144 601.505L475.206 607.766L481.899 609.698L486.914 614.534L493.865 614.052L500.236 616.873L506.608 614.052L513.561 614.534L518.574 609.696L525.269 607.763L528.331 601.503L533.965 597.406L534.705 590.477L538.591 584.694L536.907 577.933Z" fill="#2A3E77"/>
<path d="M524.262 587.859C529.753 574.602 523.458 559.404 510.202 553.913C496.945 548.422 481.747 554.717 476.256 567.974C470.765 581.23 477.06 596.428 490.316 601.919C503.573 607.41 518.771 601.115 524.262 587.859Z" stroke="white" stroke-width="0.75" stroke-miterlimit="10"/>
<path d="M392.682 438.039H607.793" stroke="#2A3E77" stroke-miterlimit="10"/>
<path d="M392.682 456.812H607.793" stroke="#2A3E77" stroke-miterlimit="10"/>
<path d="M392.682 419.25H607.793" stroke="#2A3E77" stroke-miterlimit="10"/>
<path d="M392.682 475.797H607.793" stroke="#2A3E77" stroke-miterlimit="10"/>
<path d="M392.682 494.594H607.793" stroke="#2A3E77" stroke-miterlimit="10"/>
<path d="M424.692 513.375H575.781" stroke="#2A3E77" stroke-miterlimit="10"/>
<path d="M397.245 318.07V333H394.425V318.07H397.245ZM403.264 324.52V326.745H396.507V324.52H403.264ZM404.054 318.07V320.295H396.507V318.07H404.054ZM411.713 327.555H407.868V325.34H411.713C412.342 325.34 412.852 325.238 413.241 325.033C413.638 324.821 413.928 324.534 414.113 324.171C414.297 323.802 414.39 323.382 414.39 322.91C414.39 322.452 414.297 322.025 414.113 321.628C413.928 321.232 413.638 320.911 413.241 320.665C412.852 320.418 412.342 320.295 411.713 320.295H408.791V333H405.971V318.07H411.713C412.875 318.07 413.867 318.279 414.687 318.696C415.514 319.106 416.143 319.677 416.574 320.408C417.011 321.133 417.23 321.96 417.23 322.89C417.23 323.854 417.011 324.684 416.574 325.381C416.143 326.079 415.514 326.615 414.687 326.991C413.867 327.367 412.875 327.555 411.713 327.555ZM431.534 325.156V325.925C431.534 327.053 431.384 328.068 431.083 328.97C430.782 329.866 430.355 330.628 429.801 331.257C429.248 331.886 428.588 332.368 427.822 332.703C427.057 333.038 426.206 333.205 425.269 333.205C424.346 333.205 423.499 333.038 422.726 332.703C421.96 332.368 421.297 331.886 420.737 331.257C420.176 330.628 419.742 329.866 419.435 328.97C419.127 328.068 418.973 327.053 418.973 325.925V325.156C418.973 324.021 419.127 323.006 419.435 322.11C419.742 321.215 420.173 320.453 420.727 319.824C421.28 319.188 421.94 318.703 422.706 318.368C423.478 318.033 424.326 317.865 425.249 317.865C426.185 317.865 427.036 318.033 427.802 318.368C428.567 318.703 429.227 319.188 429.781 319.824C430.341 320.453 430.772 321.215 431.073 322.11C431.38 323.006 431.534 324.021 431.534 325.156ZM428.684 325.925V325.135C428.684 324.322 428.608 323.607 428.458 322.992C428.308 322.37 428.085 321.847 427.792 321.423C427.498 321 427.135 320.682 426.705 320.47C426.274 320.251 425.789 320.142 425.249 320.142C424.702 320.142 424.216 320.251 423.792 320.47C423.375 320.682 423.02 321 422.726 321.423C422.432 321.847 422.207 322.37 422.049 322.992C421.899 323.607 421.824 324.322 421.824 325.135V325.925C421.824 326.731 421.899 327.446 422.049 328.068C422.207 328.69 422.432 329.216 422.726 329.647C423.027 330.071 423.389 330.392 423.813 330.611C424.237 330.83 424.722 330.939 425.269 330.939C425.816 330.939 426.301 330.83 426.725 330.611C427.149 330.392 427.504 330.071 427.792 329.647C428.085 329.216 428.308 328.69 428.458 328.068C428.608 327.446 428.684 326.731 428.684 325.925ZM440.383 318.07H442.824L446.905 329.309L450.976 318.07H453.426L447.879 333H445.92L440.383 318.07ZM439.153 318.07H441.542L441.973 328.396V333H439.153V318.07ZM452.257 318.07H454.657V333H451.837V328.396L452.257 318.07ZM463.434 330.642V325.525C463.434 325.149 463.369 324.824 463.239 324.551C463.109 324.277 462.911 324.065 462.645 323.915C462.378 323.765 462.04 323.689 461.629 323.689C461.267 323.689 460.949 323.751 460.676 323.874C460.409 323.997 460.204 324.171 460.061 324.397C459.917 324.616 459.845 324.869 459.845 325.156H457.128C457.128 324.698 457.237 324.264 457.456 323.854C457.675 323.437 457.986 323.067 458.389 322.746C458.799 322.418 459.288 322.162 459.855 321.977C460.43 321.792 461.072 321.7 461.783 321.7C462.624 321.7 463.373 321.844 464.029 322.131C464.692 322.411 465.211 322.835 465.587 323.402C465.97 323.97 466.162 324.684 466.162 325.545V330.385C466.162 330.939 466.196 331.414 466.264 331.811C466.339 332.2 466.449 332.539 466.592 332.826V333H463.834C463.704 332.72 463.605 332.364 463.537 331.934C463.468 331.496 463.434 331.065 463.434 330.642ZM463.813 326.243L463.834 327.853H462.122C461.698 327.853 461.325 327.897 461.004 327.986C460.683 328.068 460.419 328.191 460.214 328.355C460.009 328.512 459.855 328.704 459.753 328.929C459.65 329.148 459.599 329.397 459.599 329.678C459.599 329.951 459.661 330.197 459.784 330.416C459.914 330.635 460.098 330.809 460.337 330.939C460.583 331.062 460.871 331.124 461.199 331.124C461.677 331.124 462.094 331.028 462.45 330.836C462.805 330.638 463.082 330.399 463.28 330.119C463.479 329.838 463.584 329.572 463.598 329.319L464.377 330.488C464.282 330.768 464.138 331.065 463.947 331.38C463.755 331.694 463.509 331.988 463.208 332.262C462.908 332.535 462.545 332.761 462.122 332.938C461.698 333.116 461.206 333.205 460.645 333.205C459.927 333.205 459.285 333.062 458.717 332.774C458.15 332.487 457.702 332.094 457.374 331.595C457.046 331.096 456.882 330.529 456.882 329.893C456.882 329.305 456.991 328.786 457.21 328.334C457.429 327.883 457.753 327.504 458.184 327.196C458.615 326.882 459.148 326.646 459.784 326.489C460.426 326.325 461.161 326.243 461.988 326.243H463.813ZM471.309 324.171V333H468.602V321.905H471.166L471.309 324.171ZM474.683 321.833L474.642 324.356C474.491 324.329 474.32 324.308 474.129 324.294C473.944 324.281 473.77 324.274 473.606 324.274C473.189 324.274 472.823 324.332 472.509 324.448C472.194 324.558 471.931 324.718 471.719 324.93C471.514 325.142 471.357 325.402 471.248 325.709C471.138 326.01 471.077 326.352 471.063 326.735L470.479 326.663C470.479 325.959 470.55 325.306 470.694 324.705C470.837 324.103 471.046 323.577 471.319 323.125C471.593 322.674 471.935 322.326 472.345 322.08C472.762 321.827 473.24 321.7 473.78 321.7C473.931 321.7 474.091 321.714 474.262 321.741C474.44 321.762 474.58 321.792 474.683 321.833ZM478.876 317.24V333H476.169V317.24H478.876ZM485.829 321.905L480.999 327.33L478.384 329.985L477.523 327.883L479.543 325.34L482.558 321.905H485.829ZM483.06 333L479.625 327.832L481.43 326.079L486.198 333H483.06Z" fill="#1C4670"/>
<path d="M501.435 328.088H504.255C504.18 329.086 503.903 329.972 503.424 330.744C502.946 331.51 502.279 332.111 501.425 332.549C500.57 332.986 499.535 333.205 498.318 333.205C497.381 333.205 496.537 333.041 495.785 332.713C495.04 332.378 494.401 331.903 493.868 331.288C493.341 330.666 492.938 329.92 492.658 329.052C492.377 328.177 492.237 327.196 492.237 326.109V324.971C492.237 323.884 492.381 322.903 492.668 322.028C492.955 321.153 493.365 320.408 493.898 319.793C494.438 319.171 495.084 318.692 495.836 318.357C496.595 318.022 497.443 317.855 498.379 317.855C499.596 317.855 500.625 318.081 501.466 318.532C502.307 318.976 502.959 319.588 503.424 320.367C503.889 321.146 504.169 322.042 504.265 323.054H501.445C501.391 322.425 501.254 321.892 501.035 321.454C500.823 321.017 500.502 320.685 500.071 320.459C499.647 320.227 499.083 320.111 498.379 320.111C497.833 320.111 497.351 320.213 496.934 320.418C496.523 320.624 496.182 320.931 495.908 321.341C495.635 321.745 495.43 322.25 495.293 322.859C495.156 323.46 495.088 324.158 495.088 324.951V326.109C495.088 326.868 495.149 327.548 495.272 328.15C495.396 328.751 495.587 329.261 495.847 329.678C496.106 330.095 496.441 330.413 496.852 330.631C497.262 330.85 497.75 330.959 498.318 330.959C499.008 330.959 499.569 330.85 500 330.631C500.437 330.413 500.769 330.091 500.994 329.667C501.227 329.244 501.374 328.717 501.435 328.088ZM511.217 333.205C510.376 333.205 509.621 333.068 508.951 332.795C508.281 332.521 507.71 332.142 507.239 331.657C506.774 331.165 506.415 330.594 506.162 329.944C505.916 329.288 505.793 328.584 505.793 327.832V327.422C505.793 326.567 505.916 325.792 506.162 325.094C506.408 324.39 506.757 323.785 507.208 323.279C507.659 322.773 508.199 322.384 508.828 322.11C509.457 321.837 510.151 321.7 510.91 321.7C511.696 321.7 512.39 321.833 512.991 322.1C513.593 322.36 514.095 322.729 514.499 323.208C514.902 323.686 515.206 324.26 515.411 324.93C515.616 325.593 515.719 326.328 515.719 327.135V328.273H507.023V326.407H513.053V326.202C513.039 325.771 512.957 325.378 512.807 325.022C512.656 324.66 512.424 324.373 512.109 324.161C511.795 323.942 511.388 323.833 510.889 323.833C510.486 323.833 510.134 323.922 509.833 324.1C509.539 324.271 509.293 324.517 509.095 324.838C508.903 325.152 508.76 325.528 508.664 325.966C508.568 326.403 508.521 326.889 508.521 327.422V327.832C508.521 328.297 508.582 328.728 508.705 329.124C508.835 329.521 509.023 329.866 509.269 330.16C509.522 330.447 509.823 330.672 510.171 330.836C510.527 330.994 510.93 331.072 511.381 331.072C511.949 331.072 512.461 330.963 512.919 330.744C513.384 330.519 513.788 330.187 514.129 329.75L515.493 331.165C515.261 331.506 514.946 331.834 514.55 332.149C514.16 332.463 513.688 332.72 513.135 332.918C512.581 333.109 511.942 333.205 511.217 333.205ZM520.241 324.171V333H517.534V321.905H520.097L520.241 324.171ZM523.614 321.833L523.573 324.356C523.423 324.329 523.252 324.308 523.061 324.294C522.876 324.281 522.702 324.274 522.538 324.274C522.121 324.274 521.755 324.332 521.44 324.448C521.126 324.558 520.863 324.718 520.651 324.93C520.446 325.142 520.289 325.402 520.179 325.709C520.07 326.01 520.008 326.352 519.995 326.735L519.41 326.663C519.41 325.959 519.482 325.306 519.625 324.705C519.769 324.103 519.978 323.577 520.251 323.125C520.524 322.674 520.866 322.326 521.276 322.08C521.693 321.827 522.172 321.7 522.712 321.7C522.862 321.7 523.023 321.714 523.194 321.741C523.372 321.762 523.512 321.792 523.614 321.833ZM530.864 321.905V323.854H524.506V321.905H530.864ZM526.208 319.178H528.926V329.801C528.926 330.129 528.97 330.382 529.059 330.56C529.148 330.737 529.281 330.857 529.459 330.918C529.637 330.98 529.849 331.011 530.095 331.011C530.272 331.011 530.437 331 530.587 330.98C530.737 330.959 530.864 330.939 530.966 330.918L530.977 332.949C530.751 333.024 530.495 333.085 530.208 333.133C529.927 333.181 529.609 333.205 529.254 333.205C528.646 333.205 528.112 333.103 527.654 332.897C527.196 332.686 526.841 332.347 526.588 331.882C526.335 331.411 526.208 330.789 526.208 330.016V319.178ZM535.54 321.905V333H532.822V321.905H535.54ZM532.638 319.003C532.638 318.6 532.774 318.265 533.048 317.999C533.328 317.732 533.704 317.599 534.176 317.599C534.647 317.599 535.02 317.732 535.293 317.999C535.574 318.265 535.714 318.6 535.714 319.003C535.714 319.4 535.574 319.731 535.293 319.998C535.02 320.265 534.647 320.398 534.176 320.398C533.704 320.398 533.328 320.265 533.048 319.998C532.774 319.731 532.638 319.4 532.638 319.003ZM541.548 333H538.821V321.29C538.821 320.374 539.005 319.602 539.375 318.973C539.75 318.337 540.287 317.855 540.984 317.527C541.688 317.199 542.526 317.035 543.497 317.035C544.064 317.035 544.611 317.093 545.137 317.209C545.67 317.318 546.217 317.462 546.778 317.64L546.378 319.834C546.016 319.718 545.619 319.608 545.188 319.506C544.765 319.403 544.262 319.352 543.681 319.352C542.963 319.352 542.427 319.516 542.071 319.844C541.723 320.172 541.548 320.654 541.548 321.29V333ZM543.763 321.905V323.854H537.149V321.905H543.763ZM548.049 321.905V333H545.332V321.905H548.049ZM555.227 331.072C555.61 331.072 555.952 330.997 556.252 330.847C556.553 330.696 556.792 330.484 556.97 330.211C557.155 329.938 557.254 329.62 557.268 329.257H559.821C559.807 330.009 559.595 330.683 559.185 331.277C558.775 331.872 558.228 332.344 557.544 332.692C556.868 333.034 556.109 333.205 555.268 333.205C554.414 333.205 553.668 333.062 553.033 332.774C552.397 332.487 551.867 332.087 551.443 331.575C551.026 331.062 550.712 330.467 550.5 329.791C550.295 329.114 550.192 328.389 550.192 327.617V327.289C550.192 326.516 550.295 325.792 550.5 325.115C550.712 324.438 551.026 323.843 551.443 323.331C551.867 322.818 552.397 322.418 553.033 322.131C553.668 321.844 554.41 321.7 555.258 321.7C556.153 321.7 556.939 321.875 557.616 322.223C558.3 322.572 558.833 323.064 559.216 323.7C559.605 324.335 559.807 325.084 559.821 325.945H557.268C557.254 325.549 557.165 325.193 557.001 324.879C556.837 324.564 556.604 324.312 556.304 324.12C556.003 323.929 555.637 323.833 555.207 323.833C554.749 323.833 554.366 323.929 554.058 324.12C553.757 324.312 553.521 324.575 553.351 324.91C553.187 325.238 553.07 325.607 553.002 326.017C552.94 326.42 552.91 326.844 552.91 327.289V327.617C552.91 328.068 552.94 328.499 553.002 328.909C553.07 329.319 553.187 329.688 553.351 330.016C553.521 330.337 553.757 330.594 554.058 330.785C554.366 330.977 554.755 331.072 555.227 331.072ZM567.737 330.642V325.525C567.737 325.149 567.672 324.824 567.542 324.551C567.412 324.277 567.214 324.065 566.947 323.915C566.681 323.765 566.342 323.689 565.932 323.689C565.57 323.689 565.252 323.751 564.979 323.874C564.712 323.997 564.507 324.171 564.363 324.397C564.22 324.616 564.148 324.869 564.148 325.156H561.431C561.431 324.698 561.54 324.264 561.759 323.854C561.978 323.437 562.289 323.067 562.692 322.746C563.102 322.418 563.591 322.162 564.158 321.977C564.732 321.792 565.375 321.7 566.086 321.7C566.927 321.7 567.675 321.844 568.332 322.131C568.995 322.411 569.514 322.835 569.89 323.402C570.273 323.97 570.464 324.684 570.464 325.545V330.385C570.464 330.939 570.499 331.414 570.567 331.811C570.642 332.2 570.751 332.539 570.895 332.826V333H568.137C568.007 332.72 567.908 332.364 567.839 331.934C567.771 331.496 567.737 331.065 567.737 330.642ZM568.116 326.243L568.137 327.853H566.424C566 327.853 565.628 327.897 565.307 327.986C564.985 328.068 564.722 328.191 564.517 328.355C564.312 328.512 564.158 328.704 564.056 328.929C563.953 329.148 563.902 329.397 563.902 329.678C563.902 329.951 563.963 330.197 564.086 330.416C564.216 330.635 564.401 330.809 564.64 330.939C564.886 331.062 565.173 331.124 565.501 331.124C565.98 331.124 566.397 331.028 566.752 330.836C567.108 330.638 567.385 330.399 567.583 330.119C567.781 329.838 567.887 329.572 567.901 329.319L568.68 330.488C568.584 330.768 568.441 331.065 568.25 331.38C568.058 331.694 567.812 331.988 567.511 332.262C567.21 332.535 566.848 332.761 566.424 332.938C566 333.116 565.508 333.205 564.948 333.205C564.23 333.205 563.587 333.062 563.02 332.774C562.453 332.487 562.005 332.094 561.677 331.595C561.349 331.096 561.185 330.529 561.185 329.893C561.185 329.305 561.294 328.786 561.513 328.334C561.731 327.883 562.056 327.504 562.487 327.196C562.917 326.882 563.451 326.646 564.086 326.489C564.729 326.325 565.464 326.243 566.291 326.243H568.116ZM578.155 321.905V323.854H571.797V321.905H578.155ZM573.5 319.178H576.217V329.801C576.217 330.129 576.261 330.382 576.35 330.56C576.439 330.737 576.572 330.857 576.75 330.918C576.928 330.98 577.14 331.011 577.386 331.011C577.563 331.011 577.728 331 577.878 330.98C578.028 330.959 578.155 330.939 578.257 330.918L578.268 332.949C578.042 333.024 577.786 333.085 577.499 333.133C577.218 333.181 576.9 333.205 576.545 333.205C575.937 333.205 575.403 333.103 574.945 332.897C574.487 332.686 574.132 332.347 573.879 331.882C573.626 331.411 573.5 330.789 573.5 330.016V319.178ZM582.831 321.905V333H580.113V321.905H582.831ZM579.929 319.003C579.929 318.6 580.065 318.265 580.339 317.999C580.619 317.732 580.995 317.599 581.467 317.599C581.938 317.599 582.311 317.732 582.584 317.999C582.865 318.265 583.005 318.6 583.005 319.003C583.005 319.4 582.865 319.731 582.584 319.998C582.311 320.265 581.938 320.398 581.467 320.398C580.995 320.398 580.619 320.265 580.339 319.998C580.065 319.731 579.929 319.4 579.929 319.003ZM584.933 327.565V327.35C584.933 326.537 585.049 325.788 585.281 325.104C585.514 324.414 585.852 323.816 586.296 323.31C586.741 322.804 587.284 322.411 587.927 322.131C588.569 321.844 589.301 321.7 590.121 321.7C590.955 321.7 591.693 321.844 592.336 322.131C592.985 322.411 593.532 322.804 593.977 323.31C594.421 323.816 594.759 324.414 594.992 325.104C595.224 325.788 595.34 326.537 595.34 327.35V327.565C595.34 328.372 595.224 329.121 594.992 329.811C594.759 330.495 594.421 331.093 593.977 331.605C593.532 332.111 592.989 332.504 592.346 332.785C591.704 333.065 590.969 333.205 590.142 333.205C589.321 333.205 588.586 333.065 587.937 332.785C587.288 332.504 586.741 332.111 586.296 331.605C585.852 331.093 585.514 330.495 585.281 329.811C585.049 329.121 584.933 328.372 584.933 327.565ZM587.64 327.35V327.565C587.64 328.051 587.688 328.505 587.783 328.929C587.879 329.353 588.026 329.726 588.224 330.047C588.422 330.368 588.679 330.621 588.993 330.806C589.314 330.983 589.697 331.072 590.142 331.072C590.579 331.072 590.955 330.983 591.27 330.806C591.584 330.621 591.84 330.368 592.039 330.047C592.244 329.726 592.394 329.353 592.49 328.929C592.585 328.505 592.633 328.051 592.633 327.565V327.35C592.633 326.872 592.585 326.424 592.49 326.007C592.394 325.583 592.244 325.21 592.039 324.889C591.84 324.561 591.581 324.305 591.259 324.12C590.945 323.929 590.565 323.833 590.121 323.833C589.684 323.833 589.308 323.929 588.993 324.12C588.679 324.305 588.422 324.561 588.224 324.889C588.026 325.21 587.879 325.583 587.783 326.007C587.688 326.424 587.64 326.872 587.64 327.35ZM599.965 324.274V333H597.258V321.905H599.801L599.965 324.274ZM599.534 327.053H598.734C598.741 326.246 598.851 325.515 599.062 324.858C599.274 324.202 599.572 323.638 599.955 323.167C600.344 322.695 600.806 322.333 601.339 322.08C601.872 321.827 602.467 321.7 603.123 321.7C603.656 321.7 604.138 321.775 604.569 321.926C605 322.076 605.369 322.315 605.676 322.644C605.991 322.972 606.23 323.402 606.394 323.936C606.565 324.462 606.65 325.111 606.65 325.884V333H603.923V325.863C603.923 325.357 603.848 324.958 603.697 324.664C603.554 324.37 603.342 324.161 603.062 324.038C602.788 323.915 602.45 323.854 602.046 323.854C601.629 323.854 601.264 323.939 600.949 324.11C600.642 324.274 600.382 324.503 600.17 324.797C599.965 325.091 599.808 325.429 599.698 325.812C599.589 326.195 599.534 326.608 599.534 327.053Z" fill="#FFA229"/>
<path d="M392.682 609.289H439.34" stroke="#2A3E77" stroke-miterlimit="10"/>
<path d="M562.114 609.289H608.773" stroke="#2A3E77" stroke-miterlimit="10"/>
<mask id="mask1_80_65" style="mask-type:luminance" maskUnits="userSpaceOnUse" x="710" y="630" width="58" height="95">
<path d="M767.836 630.273H710.582V724.316H767.836V630.273Z" fill="white"/>
</mask>
<g mask="url(#mask1_80_65)">
<path opacity="0.71" d="M864.624 657.895L864.591 710.084C864.589 714.192 861.256 717.521 857.147 717.519L734.155 717.441C730.047 717.438 726.718 714.105 726.723 709.999L726.756 657.81C726.758 653.701 730.092 650.373 734.2 650.375L857.192 650.453C861.3 650.455 864.627 653.786 864.624 657.895Z" fill="#9CB4E2"/>
</g>
<path d="M916.116 644.481L916.083 696.67C916.081 700.778 912.748 704.107 908.639 704.105L709.63 704.027C705.522 704.024 702.193 700.691 702.195 696.585L702.228 644.396C702.231 640.287 705.564 636.959 709.673 636.961L908.682 637.039C912.79 637.039 916.119 640.372 916.116 644.481Z" fill="#FFA229"/>
<path d="M771.151 655.641L775.43 664.311L784.998 665.702L778.073 672.452L779.708 681.98L771.151 677.482L762.592 681.98L764.227 672.452L757.303 665.702L766.871 664.311L771.151 655.641Z" fill="#FEFEFE"/>
<path d="M733.255 655.641L737.535 664.311L747.103 665.702L740.179 672.452L741.814 681.98L733.255 677.482L724.698 681.98L726.333 672.452L719.408 665.702L728.976 664.311L733.255 655.641Z" fill="#FEFEFE"/>
<path d="M809.045 655.641L813.323 664.311L822.893 665.702L815.969 672.452L817.604 681.98L809.045 677.482L800.485 681.98L802.12 672.452L795.198 665.702L804.766 664.311L809.045 655.641Z" fill="#FEFEFE"/>
<path d="M846.978 655.641L851.257 664.311L860.825 665.702L853.903 672.452L855.537 681.98L846.978 677.482L838.419 681.98L840.054 672.452L833.132 665.702L842.7 664.311L846.978 655.641Z" fill="#FEFEFE"/>
<path d="M884.873 655.641L889.153 664.311L898.722 665.702L891.797 672.452L893.432 681.98L884.873 677.482L876.316 681.98L877.951 672.452L871.026 665.702L880.594 664.311L884.873 655.641Z" fill="#FEFEFE"/>
<mask id="mask2_80_65" style="mask-type:luminance" maskUnits="userSpaceOnUse" x="233" y="572" width="94" height="124">
<path d="M326.187 572.258H233.293V695.635H326.187V572.258Z" fill="white"/>
</mask>
<g mask="url(#mask2_80_65)">
<path opacity="0.71" d="M271.149 687.618C299.283 687.618 322.091 664.811 322.091 636.676C322.091 608.542 299.283 585.734 271.149 585.734C243.014 585.734 220.207 608.542 220.207 636.676C220.207 664.811 243.014 687.618 271.149 687.618Z" fill="#9CB4E2"/>
</g>
<path d="M258.625 675.079C286.76 675.079 309.567 652.271 309.567 624.137C309.567 596.003 286.76 573.195 258.625 573.195C230.491 573.195 207.684 596.003 207.684 624.137C207.684 652.271 230.491 675.079 258.625 675.079Z" fill="#2A3E77"/>
<path d="M280.083 622.245L250.379 605.096C248.6 604.068 246.375 605.353 246.375 607.409V641.709C246.375 643.765 248.6 645.05 250.379 644.022L280.083 626.873C281.864 625.841 281.864 623.273 280.083 622.245Z" fill="#FEFEFE"/>
<path d="M181.346 749.7C195.832 736.372 196.77 713.823 183.442 699.337C170.113 684.851 147.565 683.913 133.079 697.241C118.593 710.57 117.655 733.118 130.983 747.604C144.312 762.09 166.86 763.029 181.346 749.7Z" fill="#FFA229"/>
<path d="M136.147 722.23L151.794 737.234L175.976 709.641" stroke="#FEFEFE" stroke-width="2" stroke-miterlimit="10" stroke-linecap="round" stroke-linejoin="round"/>
<path d="M476.584 233.938C482.651 227.758 491.071 223.886 500.393 223.798C509.715 223.711 518.206 227.425 524.388 233.492" stroke="#2A3E77" stroke-width="2" stroke-miterlimit="10" stroke-linecap="round" stroke-linejoin="round"/>
<path d="M537.26 220.37C527.721 211.005 514.616 205.274 500.224 205.409C485.832 205.543 472.836 211.518 463.474 221.06" stroke="#2A3E77" stroke-width="2" stroke-miterlimit="10" stroke-linecap="round" stroke-linejoin="round"/>
<path d="M549.519 206.575C536.776 194.069 519.27 186.409 500.047 186.589C480.823 186.769 463.464 194.751 450.957 207.494" stroke="#2A3E77" stroke-width="2" stroke-miterlimit="10" stroke-linecap="round" stroke-linejoin="round"/>
<path d="M489.69 246.804C492.457 243.985 496.301 242.221 500.563 242.18C504.824 242.14 508.701 243.832 511.52 246.601" stroke="#2A3E77" stroke-width="2" stroke-miterlimit="10" stroke-linecap="round" stroke-linejoin="round"/>
<path d="M524.388 233.492C518.208 227.425 509.718 223.711 500.393 223.798C491.068 223.886 482.651 227.758 476.584 233.938" stroke="#2A3E77" stroke-width="2" stroke-miterlimit="10" stroke-linecap="round" stroke-linejoin="round"/>
<path d="M511.524 246.601C508.706 243.834 504.829 242.14 500.567 242.18C496.305 242.221 492.462 243.985 489.695 246.804" stroke="#2A3E77" stroke-width="2" stroke-miterlimit="10" stroke-linecap="round" stroke-linejoin="round"/>
</svg>
