<svg width="1080" height="1080" viewBox="0 0 1080 1080" fill="none" xmlns="http://www.w3.org/2000/svg">
<rect width="1080" height="1080" fill="white"/>
<path d="M110.607 72.0244L98.8545 107H90.6133L106.02 65.7656H111.287L110.607 72.0244ZM120.435 107L108.625 72.0244L107.917 65.7656H113.213L128.704 107H120.435ZM119.896 91.6787V97.8242H97.7783V91.6787H119.896ZM139.126 82.248V118.781H131.621V76.3574H138.56L139.126 82.248ZM158.809 91.3672V91.9619C158.809 94.1898 158.544 96.2572 158.016 98.1641C157.506 100.052 156.751 101.704 155.75 103.12C154.749 104.517 153.503 105.612 152.012 106.405C150.539 107.179 148.84 107.566 146.914 107.566C145.026 107.566 143.383 107.208 141.986 106.49C140.589 105.754 139.409 104.715 138.446 103.375C137.483 102.035 136.709 100.477 136.124 98.7021C135.558 96.9085 135.133 94.9544 134.85 92.8398V90.9424C135.133 88.6956 135.558 86.6566 136.124 84.8252C136.709 82.9749 137.483 81.3796 138.446 80.0391C139.409 78.6797 140.58 77.6318 141.958 76.8955C143.355 76.1592 144.988 75.791 146.857 75.791C148.802 75.791 150.511 76.1592 151.983 76.8955C153.475 77.6318 154.73 78.6891 155.75 80.0674C156.77 81.4456 157.534 83.0882 158.044 84.9951C158.554 86.902 158.809 89.026 158.809 91.3672ZM151.304 91.9619V91.3672C151.304 90.0078 151.181 88.7523 150.936 87.6006C150.69 86.43 150.312 85.4105 149.803 84.542C149.293 83.6546 148.632 82.9655 147.82 82.4746C147.008 81.9837 146.027 81.7383 144.875 81.7383C143.723 81.7383 142.732 81.9271 141.901 82.3047C141.071 82.6823 140.391 83.2204 139.862 83.9189C139.334 84.6175 138.918 85.4482 138.616 86.4111C138.333 87.3551 138.144 88.403 138.05 89.5547V94.2559C138.22 95.653 138.55 96.9085 139.041 98.0225C139.532 99.1364 140.249 100.024 141.193 100.685C142.156 101.345 143.402 101.676 144.932 101.676C146.083 101.676 147.065 101.421 147.877 100.911C148.689 100.401 149.35 99.7028 149.859 98.8154C150.369 97.9092 150.737 96.8708 150.964 95.7002C151.19 94.5296 151.304 93.2835 151.304 91.9619ZM171.751 82.248V118.781H164.246V76.3574H171.185L171.751 82.248ZM191.434 91.3672V91.9619C191.434 94.1898 191.169 96.2572 190.641 98.1641C190.131 100.052 189.376 101.704 188.375 103.12C187.374 104.517 186.128 105.612 184.637 106.405C183.164 107.179 181.465 107.566 179.539 107.566C177.651 107.566 176.008 107.208 174.611 106.49C173.214 105.754 172.034 104.715 171.071 103.375C170.108 102.035 169.334 100.477 168.749 98.7021C168.183 96.9085 167.758 94.9544 167.475 92.8398V90.9424C167.758 88.6956 168.183 86.6566 168.749 84.8252C169.334 82.9749 170.108 81.3796 171.071 80.0391C172.034 78.6797 173.205 77.6318 174.583 76.8955C175.98 76.1592 177.613 75.791 179.482 75.791C181.427 75.791 183.136 76.1592 184.608 76.8955C186.1 77.6318 187.355 78.6891 188.375 80.0674C189.395 81.4456 190.159 83.0882 190.669 84.9951C191.179 86.902 191.434 89.026 191.434 91.3672ZM183.929 91.9619V91.3672C183.929 90.0078 183.806 88.7523 183.561 87.6006C183.315 86.43 182.938 85.4105 182.428 84.542C181.918 83.6546 181.257 82.9655 180.445 82.4746C179.633 81.9837 178.652 81.7383 177.5 81.7383C176.348 81.7383 175.357 81.9271 174.526 82.3047C173.696 82.6823 173.016 83.2204 172.487 83.9189C171.959 84.6175 171.543 85.4482 171.241 86.4111C170.958 87.3551 170.769 88.403 170.675 89.5547V94.2559C170.845 95.653 171.175 96.9085 171.666 98.0225C172.157 99.1364 172.874 100.024 173.818 100.685C174.781 101.345 176.027 101.676 177.557 101.676C178.708 101.676 179.69 101.421 180.502 100.911C181.314 100.401 181.975 99.7028 182.484 98.8154C182.994 97.9092 183.362 96.8708 183.589 95.7002C183.815 94.5296 183.929 93.2835 183.929 91.9619ZM195.568 91.9902V91.3955C195.568 89.1488 195.889 87.0814 196.531 85.1934C197.173 83.2865 198.108 81.6344 199.335 80.2373C200.562 78.8402 202.063 77.7546 203.838 76.9805C205.613 76.1875 207.633 75.791 209.898 75.791C212.202 75.791 214.241 76.1875 216.016 76.9805C217.809 77.7546 219.32 78.8402 220.547 80.2373C221.774 81.6344 222.709 83.2865 223.351 85.1934C223.993 87.0814 224.313 89.1488 224.313 91.3955V91.9902C224.313 94.2181 223.993 96.2855 223.351 98.1924C222.709 100.08 221.774 101.732 220.547 103.148C219.32 104.546 217.819 105.631 216.044 106.405C214.269 107.179 212.24 107.566 209.955 107.566C207.689 107.566 205.66 107.179 203.866 106.405C202.073 105.631 200.562 104.546 199.335 103.148C198.108 101.732 197.173 100.08 196.531 98.1924C195.889 96.2855 195.568 94.2181 195.568 91.9902ZM203.045 91.3955V91.9902C203.045 93.3307 203.177 94.5863 203.441 95.7568C203.706 96.9274 204.112 97.9564 204.659 98.8438C205.207 99.7311 205.915 100.43 206.783 100.939C207.671 101.43 208.728 101.676 209.955 101.676C211.163 101.676 212.202 101.43 213.07 100.939C213.939 100.43 214.647 99.7311 215.194 98.8438C215.761 97.9564 216.176 96.9274 216.44 95.7568C216.705 94.5863 216.837 93.3307 216.837 91.9902V91.3955C216.837 90.0739 216.705 88.8372 216.44 87.6855C216.176 86.515 215.761 85.486 215.194 84.5986C214.647 83.6924 213.929 82.9844 213.042 82.4746C212.174 81.946 211.126 81.6816 209.898 81.6816C208.69 81.6816 207.652 81.946 206.783 82.4746C205.915 82.9844 205.207 83.6924 204.659 84.5986C204.112 85.486 203.706 86.515 203.441 87.6855C203.177 88.8372 203.045 90.0739 203.045 91.3955ZM237.681 76.3574V107H230.176V76.3574H237.681ZM229.666 68.3428C229.666 67.2288 230.044 66.3037 230.799 65.5674C231.573 64.8311 232.611 64.4629 233.914 64.4629C235.217 64.4629 236.246 64.8311 237.001 65.5674C237.775 66.3037 238.162 67.2288 238.162 68.3428C238.162 69.4378 237.775 70.3535 237.001 71.0898C236.246 71.8262 235.217 72.1943 233.914 72.1943C232.611 72.1943 231.573 71.8262 230.799 71.0898C230.044 70.3535 229.666 69.4378 229.666 68.3428ZM252.152 82.8994V107H244.676V76.3574H251.699L252.152 82.8994ZM250.963 90.5742H248.754C248.773 88.3464 249.075 86.3262 249.66 84.5137C250.245 82.7012 251.067 81.1436 252.124 79.8408C253.2 78.5381 254.475 77.5374 255.947 76.8389C257.42 76.1403 259.062 75.791 260.875 75.791C262.348 75.791 263.679 75.9987 264.868 76.4141C266.058 76.8294 267.077 77.4902 267.927 78.3965C268.795 79.3027 269.456 80.4922 269.909 81.9648C270.381 83.4186 270.617 85.2122 270.617 87.3457V107H263.084V87.2891C263.084 85.8919 262.876 84.7874 262.461 83.9756C262.064 83.1637 261.479 82.5879 260.705 82.248C259.95 81.9082 259.015 81.7383 257.901 81.7383C256.75 81.7383 255.74 81.9743 254.871 82.4463C254.021 82.8994 253.304 83.5319 252.719 84.3438C252.152 85.1556 251.718 86.0902 251.416 87.1475C251.114 88.2048 250.963 89.347 250.963 90.5742ZM291.716 76.3574V81.7383H274.157V76.3574H291.716ZM278.858 68.8242H286.363V98.1641C286.363 99.0703 286.486 99.7689 286.731 100.26C286.977 100.751 287.345 101.081 287.836 101.251C288.327 101.421 288.912 101.506 289.592 101.506C290.083 101.506 290.536 101.478 290.951 101.421C291.367 101.364 291.716 101.308 291.999 101.251L292.027 106.858C291.404 107.066 290.696 107.236 289.903 107.368C289.129 107.5 288.251 107.566 287.27 107.566C285.589 107.566 284.117 107.283 282.852 106.717C281.587 106.132 280.605 105.197 279.906 103.913C279.208 102.61 278.858 100.892 278.858 98.7588V68.8242ZM304.148 82.6445V107H296.672V76.3574H303.724L304.148 82.6445ZM303.044 90.5742H300.75C300.75 88.4408 301.005 86.4772 301.515 84.6836C302.043 82.89 302.817 81.3324 303.837 80.0107C304.856 78.6702 306.112 77.6318 307.604 76.8955C309.114 76.1592 310.86 75.791 312.843 75.791C314.221 75.791 315.486 75.9987 316.638 76.4141C317.789 76.8105 318.781 77.443 319.611 78.3115C320.461 79.1611 321.112 80.2751 321.565 81.6533C322.019 83.0127 322.245 84.6458 322.245 86.5527V107H314.769V87.3174C314.769 85.8825 314.561 84.7591 314.146 83.9473C313.749 83.1354 313.173 82.569 312.418 82.248C311.663 81.9082 310.757 81.7383 309.699 81.7383C308.529 81.7383 307.519 81.9743 306.669 82.4463C305.838 82.8994 305.149 83.5319 304.602 84.3438C304.073 85.1556 303.676 86.0902 303.412 87.1475C303.167 88.2048 303.044 89.347 303.044 90.5742ZM321.679 89.1865L318.592 89.7529C318.611 87.8271 318.875 86.0241 319.385 84.3438C319.895 82.6445 320.64 81.1624 321.622 79.8975C322.623 78.6136 323.859 77.613 325.332 76.8955C326.824 76.1592 328.542 75.791 330.486 75.791C331.997 75.791 333.356 76.0081 334.564 76.4424C335.792 76.8577 336.84 77.528 337.708 78.4531C338.576 79.3594 339.237 80.5394 339.69 81.9932C340.162 83.4469 340.398 85.2217 340.398 87.3174V107H332.865V87.2891C332.865 85.7975 332.658 84.6553 332.242 83.8623C331.846 83.0693 331.27 82.5218 330.515 82.2197C329.759 81.8988 328.872 81.7383 327.853 81.7383C326.814 81.7383 325.908 81.9365 325.134 82.333C324.379 82.7106 323.737 83.2393 323.208 83.9189C322.698 84.5986 322.311 85.3916 322.047 86.2979C321.801 87.1852 321.679 88.1481 321.679 89.1865ZM360.874 107.566C358.552 107.566 356.465 107.189 354.615 106.434C352.765 105.678 351.188 104.631 349.886 103.29C348.602 101.931 347.611 100.354 346.912 98.5605C346.232 96.748 345.893 94.8034 345.893 92.7266V91.5938C345.893 89.2337 346.232 87.0908 346.912 85.165C347.592 83.2204 348.555 81.5495 349.801 80.1523C351.047 78.7552 352.538 77.679 354.275 76.9238C356.012 76.1686 357.929 75.791 360.024 75.791C362.196 75.791 364.112 76.1592 365.773 76.8955C367.435 77.613 368.823 78.6325 369.937 79.9541C371.05 81.2757 371.891 82.8617 372.457 84.7119C373.023 86.5433 373.307 88.5729 373.307 90.8008V93.9443H349.291V88.79H365.943V88.2236C365.906 87.0342 365.679 85.9486 365.264 84.9668C364.848 83.9661 364.206 83.1732 363.338 82.5879C362.469 81.9837 361.346 81.6816 359.968 81.6816C358.854 81.6816 357.882 81.9271 357.051 82.418C356.239 82.89 355.559 83.5697 355.012 84.457C354.483 85.3255 354.087 86.3639 353.822 87.5723C353.558 88.7806 353.426 90.1211 353.426 91.5938V92.7266C353.426 94.0104 353.596 95.1999 353.936 96.2949C354.294 97.39 354.813 98.3434 355.493 99.1553C356.192 99.9482 357.022 100.571 357.985 101.024C358.967 101.459 360.081 101.676 361.327 101.676C362.894 101.676 364.31 101.374 365.575 100.77C366.859 100.146 367.973 99.2308 368.917 98.0225L372.684 101.931C372.042 102.875 371.173 103.781 370.078 104.649C369.002 105.518 367.699 106.226 366.17 106.773C364.641 107.302 362.875 107.566 360.874 107.566ZM385.654 82.8994V107H378.178V76.3574H385.201L385.654 82.8994ZM384.465 90.5742H382.256C382.275 88.3464 382.577 86.3262 383.162 84.5137C383.747 82.7012 384.569 81.1436 385.626 79.8408C386.702 78.5381 387.977 77.5374 389.449 76.8389C390.922 76.1403 392.564 75.791 394.377 75.791C395.85 75.791 397.181 75.9987 398.37 76.4141C399.56 76.8294 400.579 77.4902 401.429 78.3965C402.297 79.3027 402.958 80.4922 403.411 81.9648C403.883 83.4186 404.119 85.2122 404.119 87.3457V107H396.586V87.2891C396.586 85.8919 396.378 84.7874 395.963 83.9756C395.566 83.1637 394.981 82.5879 394.207 82.248C393.452 81.9082 392.517 81.7383 391.403 81.7383C390.252 81.7383 389.242 81.9743 388.373 82.4463C387.523 82.8994 386.806 83.5319 386.221 84.3438C385.654 85.1556 385.22 86.0902 384.918 87.1475C384.616 88.2048 384.465 89.347 384.465 90.5742ZM425.218 76.3574V81.7383H407.659V76.3574H425.218ZM412.36 68.8242H419.865V98.1641C419.865 99.0703 419.988 99.7689 420.233 100.26C420.479 100.751 420.847 101.081 421.338 101.251C421.829 101.421 422.414 101.506 423.094 101.506C423.585 101.506 424.038 101.478 424.453 101.421C424.868 101.364 425.218 101.308 425.501 101.251L425.529 106.858C424.906 107.066 424.198 107.236 423.405 107.368C422.631 107.5 421.753 107.566 420.771 107.566C419.091 107.566 417.618 107.283 416.354 106.717C415.089 106.132 414.107 105.197 413.408 103.913C412.71 102.61 412.36 100.892 412.36 98.7588V68.8242ZM443.314 91.9902V91.3955C443.314 89.1488 443.635 87.0814 444.277 85.1934C444.919 83.2865 445.854 81.6344 447.081 80.2373C448.308 78.8402 449.809 77.7546 451.584 76.9805C453.359 76.1875 455.379 75.791 457.645 75.791C459.948 75.791 461.987 76.1875 463.762 76.9805C465.555 77.7546 467.066 78.8402 468.293 80.2373C469.52 81.6344 470.455 83.2865 471.097 85.1934C471.739 87.0814 472.06 89.1488 472.06 91.3955V91.9902C472.06 94.2181 471.739 96.2855 471.097 98.1924C470.455 100.08 469.52 101.732 468.293 103.148C467.066 104.546 465.565 105.631 463.79 106.405C462.015 107.179 459.986 107.566 457.701 107.566C455.436 107.566 453.406 107.179 451.612 106.405C449.819 105.631 448.308 104.546 447.081 103.148C445.854 101.732 444.919 100.08 444.277 98.1924C443.635 96.2855 443.314 94.2181 443.314 91.9902ZM450.791 91.3955V91.9902C450.791 93.3307 450.923 94.5863 451.188 95.7568C451.452 96.9274 451.858 97.9564 452.405 98.8438C452.953 99.7311 453.661 100.43 454.529 100.939C455.417 101.43 456.474 101.676 457.701 101.676C458.91 101.676 459.948 101.43 460.816 100.939C461.685 100.43 462.393 99.7311 462.94 98.8438C463.507 97.9564 463.922 96.9274 464.187 95.7568C464.451 94.5863 464.583 93.3307 464.583 91.9902V91.3955C464.583 90.0739 464.451 88.8372 464.187 87.6855C463.922 86.515 463.507 85.486 462.94 84.5986C462.393 83.6924 461.675 82.9844 460.788 82.4746C459.92 81.946 458.872 81.6816 457.645 81.6816C456.436 81.6816 455.398 81.946 454.529 82.4746C453.661 82.9844 452.953 83.6924 452.405 84.5986C451.858 85.486 451.452 86.515 451.188 87.6855C450.923 88.8372 450.791 90.0739 450.791 91.3955ZM487.296 107H479.763V73.5254C479.763 71.222 480.206 69.2868 481.094 67.7197C481.981 66.1338 483.246 64.9349 484.889 64.123C486.531 63.3112 488.466 62.9053 490.694 62.9053C491.431 62.9053 492.129 62.9525 492.79 63.0469C493.47 63.1413 494.14 63.2734 494.801 63.4434L494.659 69.1357C494.3 69.0413 493.904 68.9753 493.47 68.9375C493.054 68.8997 492.592 68.8809 492.082 68.8809C491.062 68.8809 490.194 69.0602 489.477 69.4189C488.759 69.7777 488.212 70.3063 487.834 71.0049C487.475 71.6846 487.296 72.5247 487.296 73.5254V107ZM493.498 76.3574V81.7383H475.146V76.3574H493.498Z" fill="#001B78"/>
<path d="M516.522 65.7656H523.263L534.534 96.8047L545.777 65.7656H552.546L537.225 107H531.815L516.522 65.7656ZM513.124 65.7656H519.723L520.912 94.2842V107H513.124V65.7656ZM549.317 65.7656H555.944V107H548.156V94.2842L549.317 65.7656ZM580.187 100.486V86.3545C580.187 85.3161 580.007 84.4193 579.648 83.6641C579.29 82.9089 578.742 82.3236 578.006 81.9082C577.27 81.4928 576.335 81.2852 575.202 81.2852C574.201 81.2852 573.324 81.4551 572.568 81.7949C571.832 82.1348 571.266 82.6162 570.869 83.2393C570.473 83.8434 570.274 84.542 570.274 85.335H562.77C562.77 84.07 563.072 82.8711 563.676 81.7383C564.28 80.5866 565.139 79.5671 566.253 78.6797C567.386 77.7734 568.736 77.0654 570.303 76.5557C571.889 76.0459 573.663 75.791 575.627 75.791C577.949 75.791 580.017 76.1875 581.829 76.9805C583.66 77.7546 585.095 78.9251 586.134 80.4922C587.191 82.0592 587.72 84.0322 587.72 86.4111V99.7783C587.72 101.308 587.814 102.62 588.003 103.715C588.211 104.791 588.513 105.726 588.909 106.519V107H581.291C580.932 106.226 580.659 105.244 580.47 104.055C580.281 102.846 580.187 101.657 580.187 100.486ZM581.234 88.3369L581.291 92.7832H576.562C575.391 92.7832 574.362 92.9059 573.475 93.1514C572.587 93.3779 571.86 93.7178 571.294 94.1709C570.728 94.6051 570.303 95.1338 570.02 95.7568C569.736 96.361 569.595 97.0501 569.595 97.8242C569.595 98.5794 569.765 99.2591 570.104 99.8633C570.463 100.467 570.973 100.949 571.634 101.308C572.313 101.647 573.106 101.817 574.013 101.817C575.334 101.817 576.486 101.553 577.468 101.024C578.45 100.477 579.214 99.8161 579.762 99.042C580.309 98.2679 580.602 97.5316 580.64 96.833L582.792 100.062C582.528 100.836 582.131 101.657 581.603 102.525C581.074 103.394 580.394 104.206 579.563 104.961C578.733 105.716 577.732 106.339 576.562 106.83C575.391 107.321 574.032 107.566 572.483 107.566C570.501 107.566 568.726 107.17 567.159 106.377C565.592 105.584 564.355 104.498 563.449 103.12C562.543 101.742 562.09 100.175 562.09 98.4189C562.09 96.7952 562.392 95.3604 562.996 94.1143C563.6 92.8682 564.497 91.8203 565.687 90.9707C566.876 90.1022 568.349 89.4508 570.104 89.0166C571.879 88.5635 573.909 88.3369 576.193 88.3369H581.234ZM601.795 82.8994V107H594.318V76.3574H601.342L601.795 82.8994ZM600.605 90.5742H598.396C598.415 88.3464 598.717 86.3262 599.303 84.5137C599.888 82.7012 600.709 81.1436 601.767 79.8408C602.843 78.5381 604.117 77.5374 605.59 76.8389C607.062 76.1403 608.705 75.791 610.518 75.791C611.99 75.791 613.321 75.9987 614.511 76.4141C615.7 76.8294 616.72 77.4902 617.569 78.3965C618.438 79.3027 619.099 80.4922 619.552 81.9648C620.024 83.4186 620.26 85.2122 620.26 87.3457V107H612.727V87.2891C612.727 85.8919 612.519 84.7874 612.104 83.9756C611.707 83.1637 611.122 82.5879 610.348 82.248C609.592 81.9082 608.658 81.7383 607.544 81.7383C606.392 81.7383 605.382 81.9743 604.514 82.4463C603.664 82.8994 602.947 83.5319 602.361 84.3438C601.795 85.1556 601.361 86.0902 601.059 87.1475C600.757 88.2048 600.605 89.347 600.605 90.5742ZM643.737 100.486V86.3545C643.737 85.3161 643.558 84.4193 643.199 83.6641C642.84 82.9089 642.293 82.3236 641.557 81.9082C640.82 81.4928 639.886 81.2852 638.753 81.2852C637.752 81.2852 636.874 81.4551 636.119 81.7949C635.383 82.1348 634.816 82.6162 634.42 83.2393C634.023 83.8434 633.825 84.542 633.825 85.335H626.32C626.32 84.07 626.622 82.8711 627.227 81.7383C627.831 80.5866 628.69 79.5671 629.804 78.6797C630.937 77.7734 632.286 77.0654 633.854 76.5557C635.439 76.0459 637.214 75.791 639.178 75.791C641.5 75.791 643.567 76.1875 645.38 76.9805C647.211 77.7546 648.646 78.9251 649.685 80.4922C650.742 82.0592 651.271 84.0322 651.271 86.4111V99.7783C651.271 101.308 651.365 102.62 651.554 103.715C651.761 104.791 652.063 105.726 652.46 106.519V107H644.842C644.483 106.226 644.209 105.244 644.021 104.055C643.832 102.846 643.737 101.657 643.737 100.486ZM644.785 88.3369L644.842 92.7832H640.112C638.942 92.7832 637.913 92.9059 637.025 93.1514C636.138 93.3779 635.411 93.7178 634.845 94.1709C634.278 94.6051 633.854 95.1338 633.57 95.7568C633.287 96.361 633.146 97.0501 633.146 97.8242C633.146 98.5794 633.315 99.2591 633.655 99.8633C634.014 100.467 634.524 100.949 635.185 101.308C635.864 101.647 636.657 101.817 637.563 101.817C638.885 101.817 640.037 101.553 641.019 101.024C642 100.477 642.765 99.8161 643.312 99.042C643.86 98.2679 644.153 97.5316 644.19 96.833L646.343 100.062C646.078 100.836 645.682 101.657 645.153 102.525C644.625 103.394 643.945 104.206 643.114 104.961C642.284 105.716 641.283 106.339 640.112 106.83C638.942 107.321 637.582 107.566 636.034 107.566C634.052 107.566 632.277 107.17 630.71 106.377C629.143 105.584 627.906 104.498 627 103.12C626.094 101.742 625.641 100.175 625.641 98.4189C625.641 96.7952 625.943 95.3604 626.547 94.1143C627.151 92.8682 628.048 91.8203 629.237 90.9707C630.427 90.1022 631.899 89.4508 633.655 89.0166C635.43 88.5635 637.46 88.3369 639.744 88.3369H644.785ZM677.495 76.3574H684.292V106.065C684.292 108.841 683.688 111.191 682.479 113.117C681.29 115.062 679.619 116.535 677.467 117.535C675.314 118.555 672.813 119.064 669.962 119.064C668.735 119.064 667.404 118.895 665.969 118.555C664.553 118.215 663.184 117.677 661.862 116.94C660.56 116.223 659.474 115.288 658.605 114.137L661.976 109.719C662.995 110.908 664.147 111.805 665.431 112.409C666.715 113.032 668.102 113.344 669.594 113.344C671.104 113.344 672.388 113.061 673.445 112.494C674.521 111.947 675.343 111.135 675.909 110.059C676.494 109.001 676.787 107.699 676.787 106.15V83.3525L677.495 76.3574ZM656.793 92.0469V91.4521C656.793 89.111 657.076 86.987 657.643 85.0801C658.209 83.1543 659.021 81.5023 660.078 80.124C661.154 78.7458 662.448 77.679 663.958 76.9238C665.487 76.1686 667.205 75.791 669.112 75.791C671.132 75.791 672.832 76.1592 674.21 76.8955C675.607 77.6318 676.759 78.6797 677.665 80.0391C678.59 81.3984 679.308 83.0127 679.817 84.8818C680.346 86.7321 680.752 88.7712 681.035 90.999V92.6133C680.771 94.7845 680.346 96.7764 679.761 98.5889C679.194 100.401 678.439 101.987 677.495 103.347C676.551 104.687 675.381 105.726 673.983 106.462C672.586 107.198 670.944 107.566 669.056 107.566C667.168 107.566 665.468 107.179 663.958 106.405C662.448 105.631 661.154 104.546 660.078 103.148C659.021 101.751 658.209 100.109 657.643 98.2207C657.076 96.3327 656.793 94.2747 656.793 92.0469ZM664.27 91.4521V92.0469C664.27 93.3685 664.402 94.6051 664.666 95.7568C664.93 96.9085 665.336 97.9281 665.884 98.8154C666.431 99.6839 667.12 100.364 667.951 100.854C668.782 101.345 669.773 101.591 670.925 101.591C672.473 101.591 673.738 101.27 674.72 100.628C675.72 99.9671 676.476 99.0703 676.985 97.9375C677.514 96.7858 677.854 95.4925 678.005 94.0576V89.6113C677.91 88.4785 677.703 87.4307 677.382 86.4678C677.08 85.5049 676.655 84.6742 676.107 83.9756C675.56 83.277 674.861 82.7295 674.012 82.333C673.162 81.9365 672.152 81.7383 670.981 81.7383C669.849 81.7383 668.857 81.9932 668.008 82.5029C667.158 82.9938 666.46 83.6829 665.912 84.5703C665.365 85.4577 664.949 86.4867 664.666 87.6572C664.402 88.8278 664.27 90.0928 664.27 91.4521ZM698.962 76.3574V107H691.457V76.3574H698.962ZM690.947 68.3428C690.947 67.2288 691.325 66.3037 692.08 65.5674C692.854 64.8311 693.893 64.4629 695.195 64.4629C696.498 64.4629 697.527 64.8311 698.282 65.5674C699.056 66.3037 699.443 67.2288 699.443 68.3428C699.443 69.4378 699.056 70.3535 698.282 71.0898C697.527 71.8262 696.498 72.1943 695.195 72.1943C693.893 72.1943 692.854 71.8262 692.08 71.0898C691.325 70.3535 690.947 69.4378 690.947 68.3428ZM713.434 82.8994V107H705.957V76.3574H712.98L713.434 82.8994ZM712.244 90.5742H710.035C710.054 88.3464 710.356 86.3262 710.941 84.5137C711.527 82.7012 712.348 81.1436 713.405 79.8408C714.481 78.5381 715.756 77.5374 717.229 76.8389C718.701 76.1403 720.344 75.791 722.156 75.791C723.629 75.791 724.96 75.9987 726.149 76.4141C727.339 76.8294 728.358 77.4902 729.208 78.3965C730.076 79.3027 730.737 80.4922 731.19 81.9648C731.662 83.4186 731.898 85.2122 731.898 87.3457V107H724.365V87.2891C724.365 85.8919 724.158 84.7874 723.742 83.9756C723.346 83.1637 722.76 82.5879 721.986 82.248C721.231 81.9082 720.297 81.7383 719.183 81.7383C718.031 81.7383 717.021 81.9743 716.152 82.4463C715.303 82.8994 714.585 83.5319 714 84.3438C713.434 85.1556 712.999 86.0902 712.697 87.1475C712.395 88.2048 712.244 89.347 712.244 90.5742ZM757.981 76.3574H764.778V106.065C764.778 108.841 764.174 111.191 762.966 113.117C761.776 115.062 760.105 116.535 757.953 117.535C755.801 118.555 753.299 119.064 750.448 119.064C749.221 119.064 747.89 118.895 746.455 118.555C745.039 118.215 743.67 117.677 742.349 116.94C741.046 116.223 739.96 115.288 739.092 114.137L742.462 109.719C743.481 110.908 744.633 111.805 745.917 112.409C747.201 113.032 748.589 113.344 750.08 113.344C751.59 113.344 752.874 113.061 753.932 112.494C755.008 111.947 755.829 111.135 756.396 110.059C756.981 109.001 757.273 107.699 757.273 106.15V83.3525L757.981 76.3574ZM737.279 92.0469V91.4521C737.279 89.111 737.562 86.987 738.129 85.0801C738.695 83.1543 739.507 81.5023 740.564 80.124C741.641 78.7458 742.934 77.679 744.444 76.9238C745.974 76.1686 747.692 75.791 749.599 75.791C751.619 75.791 753.318 76.1592 754.696 76.8955C756.093 77.6318 757.245 78.6797 758.151 80.0391C759.076 81.3984 759.794 83.0127 760.304 84.8818C760.832 86.7321 761.238 88.7712 761.521 90.999V92.6133C761.257 94.7845 760.832 96.7764 760.247 98.5889C759.681 100.401 758.925 101.987 757.981 103.347C757.037 104.687 755.867 105.726 754.47 106.462C753.073 107.198 751.43 107.566 749.542 107.566C747.654 107.566 745.955 107.179 744.444 106.405C742.934 105.631 741.641 104.546 740.564 103.148C739.507 101.751 738.695 100.109 738.129 98.2207C737.562 96.3327 737.279 94.2747 737.279 92.0469ZM744.756 91.4521V92.0469C744.756 93.3685 744.888 94.6051 745.152 95.7568C745.417 96.9085 745.823 97.9281 746.37 98.8154C746.918 99.6839 747.607 100.364 748.438 100.854C749.268 101.345 750.259 101.591 751.411 101.591C752.959 101.591 754.224 101.27 755.206 100.628C756.207 99.9671 756.962 99.0703 757.472 97.9375C758 96.7858 758.34 95.4925 758.491 94.0576V89.6113C758.397 88.4785 758.189 87.4307 757.868 86.4678C757.566 85.5049 757.141 84.6742 756.594 83.9756C756.046 83.277 755.348 82.7295 754.498 82.333C753.648 81.9365 752.638 81.7383 751.468 81.7383C750.335 81.7383 749.344 81.9932 748.494 82.5029C747.645 82.9938 746.946 83.6829 746.398 84.5703C745.851 85.4577 745.436 86.4867 745.152 87.6572C744.888 88.8278 744.756 90.0928 744.756 91.4521ZM798.848 107H789.955L790.012 100.883H798.848C801.245 100.883 803.256 100.354 804.88 99.2969C806.504 98.2207 807.731 96.682 808.562 94.6807C809.392 92.6605 809.808 90.2438 809.808 87.4307V85.3066C809.808 83.1354 809.572 81.2191 809.1 79.5576C808.628 77.8962 807.929 76.499 807.004 75.3662C806.098 74.2334 804.974 73.3743 803.634 72.7891C802.293 72.2038 800.755 71.9111 799.018 71.9111H789.785V65.7656H799.018C801.774 65.7656 804.285 66.2282 806.551 67.1533C808.835 68.0785 810.808 69.4095 812.47 71.1465C814.15 72.8646 815.434 74.9225 816.321 77.3203C817.228 79.7181 817.681 82.3991 817.681 85.3633V87.4307C817.681 90.376 817.228 93.057 816.321 95.4736C815.434 97.8714 814.15 99.9294 812.47 101.647C810.808 103.366 808.826 104.687 806.522 105.612C804.219 106.537 801.661 107 798.848 107ZM794.316 65.7656V107H786.528V65.7656H794.316ZM831.671 76.3574V107H824.166V76.3574H831.671ZM823.656 68.3428C823.656 67.2288 824.034 66.3037 824.789 65.5674C825.563 64.8311 826.602 64.4629 827.904 64.4629C829.207 64.4629 830.236 64.8311 830.991 65.5674C831.765 66.3037 832.152 67.2288 832.152 68.3428C832.152 69.4378 831.765 70.3535 830.991 71.0898C830.236 71.8262 829.207 72.1943 827.904 72.1943C826.602 72.1943 825.563 71.8262 824.789 71.0898C824.034 70.3535 823.656 69.4378 823.656 68.3428ZM846.284 82.6162V107H838.808V76.3574H845.888L846.284 82.6162ZM855.602 76.1592L855.488 83.126C855.073 83.0505 854.601 82.9938 854.072 82.9561C853.562 82.9183 853.081 82.8994 852.628 82.8994C851.476 82.8994 850.466 83.0599 849.598 83.3809C848.729 83.6829 848.002 84.1266 847.417 84.7119C846.851 85.2972 846.416 86.0146 846.114 86.8643C845.812 87.695 845.642 88.639 845.604 89.6963L843.99 89.498C843.99 87.5534 844.188 85.7503 844.585 84.0889C844.981 82.4274 845.557 80.9736 846.312 79.7275C847.068 78.4814 848.012 77.5186 849.145 76.8389C850.296 76.1403 851.618 75.791 853.109 75.791C853.525 75.791 853.968 75.8288 854.44 75.9043C854.931 75.9609 855.318 76.0459 855.602 76.1592ZM872.905 107.566C870.583 107.566 868.497 107.189 866.646 106.434C864.796 105.678 863.22 104.631 861.917 103.29C860.633 101.931 859.642 100.354 858.943 98.5605C858.264 96.748 857.924 94.8034 857.924 92.7266V91.5938C857.924 89.2337 858.264 87.0908 858.943 85.165C859.623 83.2204 860.586 81.5495 861.832 80.1523C863.078 78.7552 864.57 77.679 866.307 76.9238C868.044 76.1686 869.96 75.791 872.056 75.791C874.227 75.791 876.143 76.1592 877.805 76.8955C879.466 77.613 880.854 78.6325 881.968 79.9541C883.082 81.2757 883.922 82.8617 884.488 84.7119C885.055 86.5433 885.338 88.5729 885.338 90.8008V93.9443H861.322V88.79H877.975V88.2236C877.937 87.0342 877.71 85.9486 877.295 84.9668C876.88 83.9661 876.238 83.1732 875.369 82.5879C874.501 81.9837 873.377 81.6816 871.999 81.6816C870.885 81.6816 869.913 81.9271 869.082 82.418C868.27 82.89 867.59 83.5697 867.043 84.457C866.514 85.3255 866.118 86.3639 865.854 87.5723C865.589 88.7806 865.457 90.1211 865.457 91.5938V92.7266C865.457 94.0104 865.627 95.1999 865.967 96.2949C866.326 97.39 866.845 98.3434 867.524 99.1553C868.223 99.9482 869.054 100.571 870.017 101.024C870.998 101.459 872.112 101.676 873.358 101.676C874.925 101.676 876.341 101.374 877.606 100.77C878.89 100.146 880.004 99.2308 880.948 98.0225L884.715 101.931C884.073 102.875 883.204 103.781 882.109 104.649C881.033 105.518 879.73 106.226 878.201 106.773C876.672 107.302 874.907 107.566 872.905 107.566ZM902.925 101.676C903.982 101.676 904.926 101.468 905.757 101.053C906.588 100.637 907.248 100.052 907.739 99.2969C908.249 98.5417 908.523 97.6637 908.561 96.6631H915.612C915.575 98.7399 914.989 100.6 913.856 102.242C912.724 103.885 911.213 105.188 909.325 106.15C907.456 107.094 905.36 107.566 903.038 107.566C900.678 107.566 898.62 107.17 896.864 106.377C895.108 105.584 893.645 104.479 892.475 103.063C891.323 101.647 890.454 100.005 889.869 98.1357C889.303 96.2666 889.02 94.2653 889.02 92.1318V91.2256C889.02 89.0921 889.303 87.0908 889.869 85.2217C890.454 83.3525 891.323 81.71 892.475 80.2939C893.645 78.8779 895.108 77.7734 896.864 76.9805C898.62 76.1875 900.669 75.791 903.01 75.791C905.483 75.791 907.654 76.2725 909.523 77.2354C911.411 78.1982 912.884 79.5576 913.941 81.3135C915.018 83.0693 915.575 85.1367 915.612 87.5156H908.561C908.523 86.4206 908.277 85.4388 907.824 84.5703C907.371 83.7018 906.729 83.0033 905.898 82.4746C905.068 81.946 904.058 81.6816 902.868 81.6816C901.603 81.6816 900.546 81.946 899.696 82.4746C898.866 83.0033 898.214 83.7301 897.742 84.6553C897.289 85.5615 896.968 86.5811 896.779 87.7139C896.609 88.8278 896.524 89.9984 896.524 91.2256V92.1318C896.524 93.3779 896.609 94.5674 896.779 95.7002C896.968 96.833 897.289 97.8525 897.742 98.7588C898.214 99.6462 898.866 100.354 899.696 100.883C900.546 101.411 901.622 101.676 902.925 101.676ZM935.097 76.3574V81.7383H917.538V76.3574H935.097ZM922.239 68.8242H929.744V98.1641C929.744 99.0703 929.867 99.7689 930.112 100.26C930.358 100.751 930.726 101.081 931.217 101.251C931.708 101.421 932.293 101.506 932.973 101.506C933.464 101.506 933.917 101.478 934.332 101.421C934.747 101.364 935.097 101.308 935.38 101.251L935.408 106.858C934.785 107.066 934.077 107.236 933.284 107.368C932.51 107.5 931.632 107.566 930.65 107.566C928.97 107.566 927.497 107.283 926.232 106.717C924.967 106.132 923.986 105.197 923.287 103.913C922.589 102.61 922.239 100.892 922.239 98.7588V68.8242ZM938.014 91.9902V91.3955C938.014 89.1488 938.335 87.0814 938.977 85.1934C939.618 83.2865 940.553 81.6344 941.78 80.2373C943.007 78.8402 944.508 77.7546 946.283 76.9805C948.058 76.1875 950.078 75.791 952.344 75.791C954.647 75.791 956.686 76.1875 958.461 76.9805C960.255 77.7546 961.765 78.8402 962.992 80.2373C964.219 81.6344 965.154 83.2865 965.796 85.1934C966.438 87.0814 966.759 89.1488 966.759 91.3955V91.9902C966.759 94.2181 966.438 96.2855 965.796 98.1924C965.154 100.08 964.219 101.732 962.992 103.148C961.765 104.546 960.264 105.631 958.489 106.405C956.715 107.179 954.685 107.566 952.4 107.566C950.135 107.566 948.105 107.179 946.312 106.405C944.518 105.631 943.007 104.546 941.78 103.148C940.553 101.732 939.618 100.08 938.977 98.1924C938.335 96.2855 938.014 94.2181 938.014 91.9902ZM945.49 91.3955V91.9902C945.49 93.3307 945.622 94.5863 945.887 95.7568C946.151 96.9274 946.557 97.9564 947.104 98.8438C947.652 99.7311 948.36 100.43 949.229 100.939C950.116 101.43 951.173 101.676 952.4 101.676C953.609 101.676 954.647 101.43 955.516 100.939C956.384 100.43 957.092 99.7311 957.64 98.8438C958.206 97.9564 958.621 96.9274 958.886 95.7568C959.15 94.5863 959.282 93.3307 959.282 91.9902V91.3955C959.282 90.0739 959.15 88.8372 958.886 87.6855C958.621 86.515 958.206 85.486 957.64 84.5986C957.092 83.6924 956.375 82.9844 955.487 82.4746C954.619 81.946 953.571 81.6816 952.344 81.6816C951.135 81.6816 950.097 81.946 949.229 82.4746C948.36 82.9844 947.652 83.6924 947.104 84.5986C946.557 85.486 946.151 86.515 945.887 87.6855C945.622 88.8372 945.49 90.0739 945.49 91.3955ZM979.673 82.6162V107H972.196V76.3574H979.276L979.673 82.6162ZM988.99 76.1592L988.877 83.126C988.462 83.0505 987.99 82.9938 987.461 82.9561C986.951 82.9183 986.47 82.8994 986.017 82.8994C984.865 82.8994 983.855 83.0599 982.986 83.3809C982.118 83.6829 981.391 84.1266 980.806 84.7119C980.239 85.2972 979.805 86.0146 979.503 86.8643C979.201 87.695 979.031 88.639 978.993 89.6963L977.379 89.498C977.379 87.5534 977.577 85.7503 977.974 84.0889C978.37 82.4274 978.946 80.9736 979.701 79.7275C980.456 78.4814 981.4 77.5186 982.533 76.8389C983.685 76.1403 985.007 75.791 986.498 75.791C986.913 75.791 987.357 75.8288 987.829 75.9043C988.32 75.9609 988.707 76.0459 988.99 76.1592Z" fill="#FFA229"/>
<path d="M364.366 421.573C364.366 421.573 375.624 376.671 340.67 369.213C340.67 369.213 316.821 367.192 302.311 375.598C302.311 375.598 341.142 400.855 336.042 407.871C330.941 414.887 294.785 376.58 294.785 376.58C294.785 376.58 251.006 393.418 240.819 406.657C240.819 406.657 290.991 418.255 284.341 423.776C277.69 429.298 224.919 419.679 224.919 419.679C224.919 419.679 189.361 445.82 203.196 468.707C217.032 491.593 234.043 492.273 239.617 488.688C245.19 485.103 273.076 454.597 276.217 459.088C279.358 463.578 266.489 489.867 252.326 497.879C252.326 497.879 294.716 514.647 308.614 496.721C322.512 478.796 317.182 464.069 325.986 453.152C334.791 442.235 344.45 437.394 342.393 445.077C340.336 452.759 322.345 468.229 321.546 483.075C320.747 497.921 318.766 508.649 336.202 496.35C353.637 484.051 377.396 454.794 370.905 438.194L364.366 421.573Z" fill="#1C4670" fill-opacity="0.45"/>
<path d="M222 461C222 461 326.491 401.303 365.139 420.979C365.139 420.979 378.077 434.599 401.127 441.133L407 446.961C407 446.961 378.877 436.171 371.685 438.376C371.692 438.376 363.286 393.468 222 461Z" fill="#8BC0CC"/>
<path d="M401.261 441.183C401.261 441.183 432.452 446.658 449 475.611L445.038 478C445.038 478 422.282 450.828 403.039 445.256C383.796 439.685 401.261 441.183 401.261 441.183Z" fill="#599DAD"/>
<path d="M408.423 351.913C408.423 351.913 462.867 304.098 424.021 263.223C424.021 263.223 394.801 239.266 368.497 237.112C368.497 237.112 396.596 304.421 383.759 308.876C370.923 313.332 357.855 231.618 357.855 231.618C357.855 231.618 286.08 214.138 261.052 222.06C261.052 222.06 316.001 281.924 302.464 283.109C288.926 284.295 228.852 224.636 228.852 224.636C228.852 224.636 159.446 226.481 157.168 268.359C154.889 310.238 176.391 326.356 186.809 326.721C197.227 327.086 260.519 312.722 260.61 321.318C260.701 329.914 220.649 352.249 195.187 349.913C195.187 349.913 235.414 409.467 269.331 398.794C303.249 388.121 309.397 364.41 330.478 358.172C351.559 351.934 368.441 354.397 358.956 362.452C349.47 370.508 312.377 374.382 298.201 392.766C284.026 411.151 271.946 423.242 305.492 422.996C339.038 422.751 395.853 406.331 402.127 379.125L408.423 351.913Z" fill="#BCECF7"/>
<path d="M190 274C190 274 374.233 293.379 407.214 352.344C407.214 352.344 412.331 380.808 436.382 409.526L439 422C439 422 412.031 383.475 400.958 379.782C400.958 379.782 428.004 316.565 190 274Z" fill="#8BC0CC"/>
<path d="M436.84 409.009C436.84 409.009 472.296 443.684 467.566 496L460.273 495.616C460.273 495.616 455.346 440.134 435.488 415.901C415.631 391.668 436.84 409.009 436.84 409.009Z" fill="#6BB7BF"/>
<path d="M395.875 792.365C395.875 792.365 466.634 776.51 452.009 722.339C452.009 722.339 437.763 687.532 415.661 673.135C415.661 673.135 408.183 745.274 394.759 743.063C381.334 740.852 408.921 663.278 408.921 663.278C408.921 663.278 354.156 613.886 328.339 608.87C328.339 608.87 348.04 687.274 335.578 681.847C323.115 676.42 298.78 595.812 298.78 595.812C298.78 595.812 236.853 564.423 214.807 599.907C192.76 635.391 203.987 659.686 212.974 664.96C221.961 670.233 284.492 687.804 280.476 695.365C276.46 702.927 230.541 703.373 209.246 689.22C209.246 689.22 216.155 760.369 251.099 767.156C286.043 773.943 302.796 756.17 324.316 760.767C345.836 765.363 359.52 775.527 347.317 778.052C335.114 780.577 300.654 766.291 279.38 775.631C258.106 784.971 241.705 789.749 271.334 805.486C300.963 821.223 358.796 833.911 377.353 813.159L395.875 792.365Z" fill="#BCECF7"/>
<path d="M241 620C241 620 393.84 725.135 395 792.203C395 792.203 386.062 819.391 393.651 855.904L390.066 868C390.066 868 384.538 821.596 376.551 813.077C376.551 813.028 430.179 771.048 241 620Z" fill="#8BC0CC"/>
<path d="M394.279 856.815C394.279 856.815 409.445 904.18 378.543 948L372 944.203C372 944.203 395.596 893.013 389.542 862.241C383.487 831.468 394.279 856.815 394.279 856.815Z" fill="#6BB7BF"/>
<path d="M864 303H350V1025H864V303Z" fill="#1C4670"/>
<path d="M846 323H368V1012H846V323Z" fill="#DCF6F9"/>
<path d="M808 408H417V429H808V408Z" fill="#FFA229"/>
<path d="M808 544H417V554H808V544Z" fill="#FFA229"/>
<path d="M808 567H417V578H808V567Z" fill="#FFA229"/>
<path d="M808 592H417V602H808V592Z" fill="#FFA229"/>
<path d="M808 616H417V627H808V616Z" fill="#FFA229"/>
<path d="M808 640H417V650H808V640Z" fill="#FFA229"/>
<path d="M808 664H417V674H808V664Z" fill="#FFA229"/>
<path d="M512.884 831.94C528.252 825.574 535.55 807.955 529.184 792.587C522.818 777.218 505.199 769.92 489.831 776.286C474.463 782.652 467.164 800.271 473.53 815.639C479.896 831.008 497.515 838.306 512.884 831.94Z" fill="#FFA229"/>
<path d="M657.516 833H657.262C656.866 832.932 656.514 832.711 656.281 832.386C656.049 832.062 655.955 831.659 656.02 831.266C656.303 829.616 663.2 790.767 684.938 777.54C686.49 776.603 687.463 777.093 687.9 777.463C689.811 779.085 688.359 783.21 681.813 798.765C679.204 804.966 676.114 812.321 674.838 816.788C677.158 813.782 680.621 808.629 683.372 804.533C691.97 791.732 693.648 789.649 695.362 789.649C695.663 789.646 695.96 789.716 696.227 789.854C696.494 789.992 696.723 790.193 696.893 790.439C697.803 791.732 697.111 793.934 694.734 800.282C693.666 802.959 692.762 805.698 692.026 808.482C693.525 806.954 694.909 805.318 696.166 803.589C699.15 799.751 700.659 797.912 702.436 798.192C702.84 798.265 703.214 798.45 703.515 798.726C703.816 799.002 704.032 799.358 704.136 799.751C704.308 800.285 704.426 800.836 704.489 801.394C704.722 802.932 704.99 804.672 706.859 805.721C710.632 807.818 721.508 807.706 751.892 795.151C752.266 794.998 752.687 794.998 753.06 795.152C753.434 795.306 753.73 795.601 753.885 795.972C754.039 796.343 754.038 796.759 753.883 797.13C753.728 797.5 753.43 797.794 753.056 797.947C727.404 808.545 711.803 811.929 705.37 808.357C702.239 806.609 701.773 803.68 701.498 801.904C700.638 802.806 699.439 804.358 698.557 805.49C695.271 809.734 693.112 812.286 690.905 812.111C690.58 812.084 690.265 811.982 689.987 811.815C689.708 811.648 689.471 811.419 689.297 811.146C688.246 809.496 689.297 806.252 691.878 799.261C692.294 798.15 692.774 796.863 693.19 795.668C691.074 798.52 688.253 802.771 685.918 806.217C676.284 820.549 674.542 822.625 672.602 822.101C672.203 821.986 671.853 821.744 671.608 821.411C671.363 821.078 671.236 820.674 671.248 820.262C671.05 816.907 674.203 809.126 679.006 797.632C681.461 791.795 684.649 784.147 685.474 780.784C665.725 793.948 659.06 831.406 658.997 831.818C658.923 832.153 658.736 832.453 658.466 832.668C658.197 832.883 657.861 833 657.516 833Z" fill="#1C4670"/>
<path d="M719.236 290.987H658.887C660.743 286.068 661.378 280.771 660.74 275.552C660.101 270.333 658.207 265.346 655.22 261.021C652.233 256.695 648.243 253.16 643.592 250.718C638.94 248.276 633.766 247 628.514 247C623.262 247 618.088 248.276 613.436 250.718C608.785 253.16 604.794 256.695 601.808 261.021C598.821 265.346 596.927 270.333 596.288 275.552C595.65 280.771 596.285 286.068 598.141 290.987H537.792C535.46 290.987 533.224 291.915 531.575 293.566C529.926 295.216 529 297.455 529 299.79V324.198C529 326.532 529.926 328.771 531.575 330.422C533.224 332.073 535.46 333 537.792 333H719.208C721.54 333 723.776 332.073 725.425 330.422C727.074 328.771 728 326.532 728 324.198V299.79C728 297.46 727.078 295.225 725.435 293.575C723.792 291.926 721.563 290.995 719.236 290.987ZM628.528 291.484C626.157 291.482 623.84 290.777 621.87 289.457C619.899 288.138 618.364 286.263 617.458 284.07C616.552 281.877 616.315 279.464 616.779 277.136C617.242 274.809 618.384 272.671 620.061 270.993C621.738 269.315 623.874 268.173 626.199 267.71C628.524 267.248 630.934 267.486 633.124 268.395C635.314 269.303 637.186 270.841 638.503 272.815C639.819 274.788 640.522 277.109 640.522 279.482C640.522 281.06 640.212 282.622 639.608 284.08C639.004 285.537 638.119 286.861 637.004 287.976C635.888 289.09 634.565 289.974 633.108 290.576C631.651 291.178 630.09 291.486 628.514 291.484H628.528Z" fill="#FFA229"/>
<path d="M50.4881 1022.24C62.6006 1009.81 83.9458 1001.26 108.604 1000.26V963.647H66.0743C65.1307 963.647 64.292 962.82 63.7539 961.543C63.3495 960.524 63.1477 959.435 63.1597 958.338V956.486C63.1597 953.568 64.4737 951.183 66.0743 951.183H108.611V848.91C108.611 847.608 109.126 846.359 110.044 845.438C110.962 844.517 112.206 844 113.504 844C114.801 844 116.045 844.517 116.963 845.438C117.881 846.359 118.396 847.608 118.396 848.91V951.183H160.933C162.533 951.183 163.847 953.568 163.847 956.486V958.338C163.862 959.468 163.645 960.59 163.211 961.634C162.68 962.855 161.855 963.647 160.933 963.647H118.396V1000.26C143.054 1001.26 164.399 1009.81 176.512 1022.24C177.393 1023.13 178.222 1024.06 179 1025H48C48.7735 1024.06 49.6028 1023.13 50.4881 1022.24Z" fill="#1C3A3E"/>
<path d="M108 1000.29C125.358 1001.89 140.282 1010.28 148.908 1022.22C149.566 1023.13 150.185 1024.05 150.763 1025H163C162.417 1024.06 161.796 1023.13 161.138 1022.22C151.503 1008.9 134.047 1000 114.108 1000C112.048 1000.04 110.003 1000.1 108 1000.29Z" fill="#1C4670"/>
<path d="M243 999.933C243 999.933 244.489 1024.6 249.138 1024.95C249.756 1025 272.707 1025 272.707 1025L302 1024.83C302 1024.83 301.81 1017.57 293.242 1016.04C284.674 1014.51 270.347 1008.33 265.15 996.71C259.701 984.479 243 999.933 243 999.933Z" fill="#163560"/>
<path d="M127.297 824.614C131.521 831.576 136.218 838.244 141.354 844.569C156.775 863.944 173.559 879.919 176.497 895.02C177.162 898.302 178.069 901.53 179.21 904.679C180.433 908.177 181.944 911.779 183.687 915.535C190.231 929.684 200.015 945.534 209.785 959.942C226.653 984.849 240.507 1001.57 240.507 1001.57C240.507 1001.57 244.935 1005 257.6 1005C261.115 1005 273 1003.08 273 1003.08C271.833 1000.17 257.818 967.104 240.823 925.075L219.505 872.365C218.563 870.022 217.614 867.7 216.694 865.371C214.529 860.013 212.399 854.739 210.319 849.605L181.649 778.717C181.649 778.717 117.864 754.67 111.236 770.254C105.719 783.11 110.168 795.7 127.297 824.614Z" fill="#1C3A3E"/>
<path d="M332 758H235V1025H332V758Z" fill="#49ADB7"/>
<path d="M328 1025H397L397 758H328V1025Z" fill="#8BC0CC"/>
<path d="M328 753H229V758H328V753Z" fill="#24555E"/>
<path d="M405 753H328V758H405V753Z" fill="#49ADB7"/>
<path d="M227.281 717C227.281 717 241.37 724.949 245.313 724.949C249.256 724.949 264.748 721.975 269.062 724.168C273.377 726.361 281.227 735.155 282.658 738.03C285.291 743.204 272.046 740.918 265.785 736.511C265.336 736.194 264.826 735.974 264.286 735.864C263.746 735.754 263.19 735.757 262.651 735.872C259.41 736.582 252.676 737.788 249.42 736.582C245.041 734.971 222 733.189 222 733.189L227.281 717Z" fill="#F9A6A0"/>
<path d="M123 609.33C123 609.33 137.24 711.955 160.81 721.15C172.442 725.684 223.851 736.003 239.06 737C239.06 737 242.784 733.93 241.85 721.44C241.85 721.44 187.986 701.389 180.336 690.483C168.948 674.216 187.407 624.169 173.119 608.927C158.83 593.686 134.792 587.143 123 609.33Z" fill="white" fill-opacity="0.36"/>
<path d="M175.592 932C175.592 932 155.136 945.143 157.138 949.416C157.408 949.984 168.715 970.231 168.715 970.231L183.294 996C183.294 996 189.433 992.352 186.53 984.063C183.627 975.774 181.874 960.161 189.305 949.998C197.078 939.324 175.592 932 175.592 932Z" fill="#FF4B42"/>
<path d="M187.196 957C187.196 957 173.013 943.802 170.79 935.637C170.79 935.637 222.686 873.363 233.94 859.402C234.457 858.765 234.324 858.064 233.646 857.301C225.146 847.709 130.729 828.195 118.391 808.989C114.713 803.346 112.016 797.119 110.416 790.574C107.62 778.839 109.828 770.731 109.828 770.731L204.127 768C204.127 768 282.634 816.971 291.505 850.355C300.375 883.74 187.196 957 187.196 957Z" fill="#24555E"/>
<path d="M234 858C225.447 848.292 130.44 828.544 118.026 809.108C114.325 803.398 111.611 797.097 110 790.473V778.377L150.325 772C150.325 772 161.762 807.429 195.63 820.743C227.353 833.2 233.367 855.265 234 858Z" fill="#1C3A3E"/>
<path d="M178 604.14C158.811 609.047 127 591.361 127 591.361C127 591.361 139.347 583.083 143.925 564.907C144.164 563.988 144.368 563.056 144.558 562.103L154.402 560L169.056 573.087C168.63 578.051 167.907 582.985 166.89 587.863C166.571 589.494 166.203 591.242 165.786 593.107C170.501 596.008 174.641 599.748 178 604.14Z" fill="#FCBDB6"/>
<path d="M107.514 683.18C110.257 720.229 106.651 776.58 109.759 786.341C112.446 794.756 143.045 789.752 155.253 786.94C159.772 785.904 165.244 784.417 170.9 782.655C186.672 777.722 203.876 770.752 205.701 765.551C205.77 765.355 205.829 765.155 205.876 764.952C206.041 764.235 206.041 763.491 205.876 762.774C205.259 760.124 202.894 757.256 202.614 750.688C202.305 743.365 202.347 734.732 202.073 725.458C202.073 724.408 202.073 723.273 201.933 722.23V721.85C201.933 721.652 201.933 721.455 201.933 721.258C201.673 710.912 201.133 700.031 200.53 689.241C200.13 682.468 199.674 675.752 199.126 669.325C197.723 652.728 195.899 637.971 193.443 628.64C189.437 613.431 180.596 603.509 172.548 596.222L166.732 591.211C160.235 592.62 152.552 591.69 145.613 588.392C138.091 584.805 135.495 582.239 134.19 583.205C116.754 596.666 104.272 637.886 107.514 683.18Z" fill="#FFA229"/>
<path d="M170.51 782C186.514 777.101 203.971 770.179 205.822 765.015C205.892 764.82 205.952 764.621 206 764.42C206 763.72 206 762.978 206 762.257C205.373 759.626 202.974 756.777 202.689 750.255C202.376 742.983 202.419 734.41 202.141 725.2C202.141 724.157 202.141 723.03 201.999 721.995V721.617C201.999 721.421 201.999 721.225 201.999 721.029L137.305 640C137.305 640 93.7563 729.028 170.51 782Z" fill="white" fill-opacity="0.36"/>
<path d="M170 573.155C169.577 578.142 168.858 583.099 167.846 588C153.615 583.366 147.161 570.394 145 564.93C145.238 564.007 145.441 563.07 145.629 562.113L155.42 560L170 573.155Z" fill="#F9A6A0"/>
<path d="M171.793 580.984C171.793 580.984 140.761 575.737 144.278 556.165C147.795 536.594 146.173 522.773 166.137 525.297C186.1 527.822 188.597 535.998 188.988 542.813C189.38 549.627 179.961 581.821 171.793 580.984Z" fill="#FCBDB6"/>
<path d="M240.035 748.256L317.269 748.249L338.255 680L341 680.855L318.809 753H240L240.035 748.256Z" fill="#1C4670"/>
<path d="M219 750.08C219 750.08 244.361 756.641 253.904 755.949C263.446 755.257 271.355 750.826 272.521 748.505C273.687 746.183 276.228 742.081 269.729 742.841C263.23 743.602 254.413 744.951 254.141 743.732C253.869 742.513 259.418 742.622 259.418 742.622C259.418 742.622 261.094 740.232 258.985 740.143C256.877 740.054 250.706 738.417 248.417 739.541C246.127 740.664 244.012 744.807 242.336 744.636C240.661 744.464 221.115 736 221.115 736L219 750.08Z" fill="#FCBDB6"/>
<path d="M129 615.807C129 615.807 132.001 718.157 154.443 729.793C165.517 735.53 215.531 751.303 230.506 754C230.506 754 234.546 751.4 235 739.045C235 739.045 183.612 713.405 177.192 701.846C167.632 684.648 191.435 637.512 178.881 620.964C166.327 604.416 143.138 595.317 129 615.807Z" fill="#FFA229"/>
<path d="M144.556 565C144.556 565 144.203 558.234 148.326 554.358C148.326 554.358 146.912 547.578 149.543 546.455C152.174 545.333 152.754 551.04 153.964 550.146C155.173 549.252 160.598 545.004 162.925 538.746C165.252 532.488 186.5 540.062 188.976 541.192C191.451 542.322 199.416 538.181 201 534.827C201 534.827 196.572 531.251 194.585 528.569C192.597 525.887 178.663 507.772 159.219 512.914C139.775 518.056 137.108 527.453 138.212 535.499C139.315 543.545 136.557 562.297 144.556 565Z" fill="#501506"/>
<path d="M180.1 811.117C150.83 811.119 121.864 805.125 94.9463 793.495L77.4779 785.951C73.8215 784.373 69.8353 783.737 65.8761 784.099C61.917 784.461 58.1084 785.811 54.7914 788.027C51.4744 790.244 48.7524 793.258 46.8691 796.799C44.9859 800.341 44 804.3 44 808.321V842.039C44.0056 843.619 44.6292 845.133 45.7347 846.25C46.8401 847.367 48.3376 847.996 49.9 848H180.1C181.662 847.996 183.16 847.367 184.265 846.25C185.371 845.133 185.994 843.619 186 842.039V817.071C185.993 815.492 185.368 813.98 184.263 812.864C183.158 811.749 181.661 811.121 180.1 811.117Z" fill="#8BC0CC"/>
<path d="M689.956 837.148C662.556 841.866 635.996 842.893 615.744 841.304C595.31 839.693 583.376 833.365 582.108 826.143C580.993 819.603 588.555 812.079 603.992 804.457C589.199 811.784 582.031 820.032 583.047 825.981C584.175 832.584 596.102 837.232 615.758 838.814C635.905 840.396 662.058 838.681 689.381 833.976C716.704 829.272 741.939 822.142 760.404 813.9C778.42 805.863 788.105 797.467 786.977 790.864C785.778 783.832 772.919 777.138 753.41 773.284C731.224 768.911 705.057 770.38 679.269 774.824C630.86 783.157 611.897 792.263 595.829 802.347C611.946 792.214 630.271 780.738 678.848 772.37C704.742 767.912 731.273 767.877 753.557 772.265C773.48 776.189 786.647 783.249 787.895 790.688C789.128 797.91 779.486 806.489 760.768 814.843C742.282 823.14 717.349 832.443 689.956 837.148Z" fill="#1C4670"/>
<path d="M1009 746.278C1009 746.278 1007.28 762.225 1005.4 765.262C1003.52 768.299 995.512 777.94 992.101 779.832C988.689 781.723 994.188 767.118 993.492 764.269C992.796 761.42 990.686 769.459 989.18 769.647C987.675 769.836 988.061 762.609 988.008 759.978C987.955 757.347 995.323 750.852 997.925 745.249C1000.53 739.646 1009 746.278 1009 746.278Z" fill="#FCBDB6"/>
<path d="M819 604.557L815.429 597.649C815.429 597.649 817.204 585.367 802.18 577.571C802.18 577.571 796.686 575.28 793.587 579.876C790.77 584.102 799.032 583.344 798.581 590.576C798.13 597.808 801.49 602.064 806.153 604.419L810.005 609L819 604.557Z" fill="#FCBDB6"/>
<path d="M959 589.261C959 589.261 946.212 651.327 875.856 671.603C853.896 677.934 804 606.417 804 606.417C804 606.417 805.752 599.824 816.739 601.343C816.739 601.343 865.323 633.149 871.438 636.608C876.869 639.673 912.559 597.194 928.831 590.352C945.102 583.51 959 589.261 959 589.261Z" fill="#FFA229" fill-opacity="0.56"/>
<path d="M771.578 576.186L769.574 589.234L835.2 599.312L837.204 586.263L771.578 576.186Z" fill="#FF4B42"/>
<path d="M755 580.843L769.027 589L771 577L755 580.843Z" fill="#1C3A3E"/>
<path d="M843.95 592.268L843.314 596.219C843.222 596.798 843.012 597.353 842.696 597.853C842.381 598.354 841.966 598.79 841.475 599.136C840.984 599.482 840.427 599.732 839.835 599.872C839.244 600.011 838.629 600.037 838.028 599.948L835 599.505L837 587L840.293 587.484C841.438 587.653 842.466 588.252 843.152 589.149C843.838 590.046 844.125 591.168 843.95 592.268Z" fill="#1C3A3E"/>
<path d="M1044.73 984.732C1044.73 984.732 1053.49 992.619 1051.78 998.224C1050.07 1003.83 1042.17 1007.56 1041.1 1014.41C1040.02 1021.26 1035.76 1025 1031.91 1025H1013.57C1013.57 1025 1010.77 1020.16 1017.58 1018.72C1024.39 1017.29 1026.99 1009.23 1026.57 1001.75C1026.14 994.271 1027.21 984.318 1027.21 984.318L1041.74 981L1044.73 984.732Z" fill="#FF4B42"/>
<path d="M935.685 1005C935.685 1005 937.237 1023.13 933.451 1025L885 1024.9C885 1024.9 885 1019.25 892.786 1017.99C900.571 1016.72 914.232 1012.12 916.549 1001.87C918.866 991.61 935.685 1005 935.685 1005Z" fill="#FF4B42"/>
<path d="M894 747.455C894 747.455 896.645 779.592 899.762 818.224C903.994 870.702 909.056 935.167 909.585 947.381C910.457 968.561 913.946 1002.51 913.946 1002.51C913.946 1002.51 922.232 1010.56 938.803 1007.16C938.803 1007.16 953.573 958.74 957.791 907.513C957.855 906.672 957.92 905.825 957.991 904.978C961.916 852.826 968 743 968 743L894 747.455Z" fill="#24555E"/>
<path d="M894 747.441C894 747.441 896.645 779.478 899.762 817.99L957.791 907C957.855 906.162 957.92 905.318 957.991 904.473C961.916 852.483 968 743 968 743L894 747.441Z" fill="#1C3A3E"/>
<path d="M907 751.847C907 751.847 953.733 867.809 984.463 922.298C1015.19 976.786 1024.79 992 1024.79 992C1024.79 992 1042.4 985.03 1044 980.282C1044 980.282 1032.25 875.075 1011.67 849.459C1000.04 834.97 986.38 791.481 985.778 776.31C985.177 761.139 981.58 731 981.58 731L907 751.847Z" fill="#24555E"/>
<path d="M969 574.185C969 574.185 937.288 589.386 919 583.745C922.48 579.735 926.677 576.399 931.379 573.906C930.747 570.259 930.256 567.093 929.976 564.415C929.538 561.196 929.28 557.956 929.204 554.709L941.442 545.149L953.042 536C952.123 561.731 969 574.185 969 574.185Z" fill="#FCBDB6"/>
<path d="M984.999 737.025C985.069 738.967 980.917 741.191 979.084 742.022C965.496 747.996 952.829 752.162 938.469 753.548C921.502 755.286 901.437 751.437 894.538 751.606C893.833 751.592 893.158 751.319 892.641 750.839C892.142 750.494 891.791 730.009 892.142 704.254C892.142 703.212 892.142 702.143 892.212 701.129V700.785C892.36 690.715 892.711 680.159 893.203 669.611C894.186 646.389 896.013 624.06 899.111 611.703C902.849 597.123 911.294 587.468 918.966 580.459L925.289 574.907C931.939 576.346 938.879 575.513 945.003 572.542C952.323 569.024 960.206 565.182 961.47 566.153C971.046 573.19 977.524 588.931 980.973 609.078C983.027 621.7 983.993 634.474 983.861 647.261C983.861 652.265 983.72 657.402 983.439 662.468C981.746 689.962 983.439 713.838 984.423 727.666C984.739 731.677 984.95 734.802 984.999 737.025Z" fill="#FFA229"/>
<path d="M985 736C874.531 735.785 964.624 616.783 964.624 616.783L982.522 611C984.007 624.371 984.706 637.817 984.616 651.269C984.616 656.538 984.518 661.954 984.316 667.293C983.08 696.28 984.295 721.462 985 736Z" fill="#FFA229" fill-opacity="0.56"/>
<path d="M953 545.681C953 545.681 945.002 559.991 929.77 564C929.334 560.826 929.077 557.63 929 554.428L941.214 545L953 545.681Z" fill="#F9A6A0"/>
<path d="M922.88 553.422C922.88 553.422 953.073 558.249 955.91 540.01C958.746 521.771 964.552 510.055 945.404 506.18C926.255 502.305 921.409 508.724 918.936 514.599C916.464 520.474 915.098 551.684 922.88 553.422Z" fill="#FCBDB6"/>
<path d="M967.65 504.334C967.928 504.015 968.569 503.76 970 503.682C969.181 503.234 968.264 502.991 967.33 502.973C967.031 500.99 965.97 497.49 962.545 496.64C963.103 496.962 963.581 497.407 963.943 497.939C964.304 498.472 964.539 499.079 964.631 499.715C960.665 495.663 952.17 492.716 928.644 494.565C897.633 497.001 907.851 516.752 911.867 519.104C915.883 521.456 925.988 515.002 933.464 515.562C940.941 516.122 942.365 526.897 944.9 528.384C947.435 529.872 946.445 527.251 949.884 525.706C953.323 524.162 953.644 529.822 952.647 533.499C951.65 537.176 956.371 542 956.371 542L961.142 536.892C965.906 531.785 970.399 510.15 968.263 505.545L967.65 504.334Z" fill="#501506"/>
<path d="M961.5 566C961.5 566 980.686 575.085 989.886 589.06C1004.16 610.734 1020.69 689.732 1020.99 697.044C1021.3 704.355 1008.95 756 1008.95 756C1008.95 756 996.392 755.177 993.157 748.836C993.157 748.836 995.668 695.777 994.078 692.364C992.489 688.951 941.743 621.184 947.447 606.723C953.151 592.262 961.5 566 961.5 566Z" fill="#FFA229"/>
<path d="M814.806 597.32C814.806 597.32 815.897 593.51 812.905 591.8C809.914 590.09 807.158 585.428 805.891 586.058C803.275 587.359 807.327 591.429 806.583 596.501C806.325 598.276 811.004 602.925 814.806 597.32Z" fill="#FCBDB6"/>
<path d="M0.964696 1028H1079.04C1079.57 1028 1080 1027.32 1080 1026.5C1080 1025.68 1079.57 1025 1079.04 1025H0.964696C0.434123 1025 0 1025.68 0 1026.5C0 1027.32 0.434123 1028 0.964696 1028Z" fill="#1C3A3E"/>
</svg>
