<svg width="1386" height="771" viewBox="0 0 1386 771" fill="none" xmlns="http://www.w3.org/2000/svg">
<g clip-path="url(#clip0_1118_1410)">
<path d="M1386 1H0V770H1386V1Z" fill="white"/>
<path d="M560.359 407.931L521.827 430.178L521.827 385.684L560.359 407.931Z" fill="#FFA229"/>
<path d="M825.008 466.696L863.541 488.943L863.541 444.449L825.008 466.696Z" fill="#1C4670"/>
<g filter="url(#filter0_d_1118_1410)">
<circle cx="299.594" cy="437.5" r="227.5" fill="#FFA229"/>
</g>
<g filter="url(#filter1_d_1118_1410)">
<circle cx="1085.4" cy="437.5" r="227.5" fill="#1C4670"/>
</g>
<g filter="url(#filter2_d_1118_1410)">
<circle cx="299.591" cy="437.497" r="183.146" fill="white"/>
</g>
<circle cx="296.5" cy="368.5" r="60" stroke="#1C4670"/>
<path d="M284.92 399.594C279.403 399.594 275.135 398.048 272.117 394.955C269.124 391.863 267.627 387.41 267.627 381.596V352.131C267.627 345.995 269.049 341.295 271.895 338.029C274.764 334.739 279.106 333.094 284.92 333.094C290.758 333.094 295.1 334.739 297.945 338.029C300.79 341.295 302.213 345.995 302.213 352.131V381.596C302.213 387.41 300.716 391.863 297.723 394.955C294.729 398.048 290.462 399.594 284.92 399.594ZM284.92 387.57C285.934 387.57 286.726 387.113 287.295 386.197C287.864 385.282 288.148 384.255 288.148 383.117V350.869C288.148 349.335 287.975 347.999 287.629 346.861C287.307 345.699 286.404 345.117 284.92 345.117C283.436 345.117 282.52 345.699 282.174 346.861C281.852 347.999 281.691 349.335 281.691 350.869V383.117C281.691 384.255 281.976 385.282 282.545 386.197C283.139 387.113 283.93 387.57 284.92 387.57ZM312.715 399V348.68C311.824 349.743 310.6 350.609 309.041 351.277C307.482 351.921 306.01 352.242 304.625 352.242V341.814C305.936 341.617 307.346 341.196 308.855 340.553C310.365 339.885 311.762 338.982 313.049 337.844C314.36 336.681 315.362 335.283 316.055 333.65H326.557V399H312.715Z" fill="#1C4670"/>
<path d="M153.49 450.719V482H148.141V450.719H153.49ZM163.309 450.719V455.016H138.408V450.719H163.309ZM172.031 449V482H166.875V449H172.031ZM171.129 469.518L169.453 469.496C169.467 467.892 169.689 466.41 170.119 465.049C170.563 463.688 171.179 462.507 171.967 461.504C172.769 460.487 173.729 459.706 174.846 459.162C175.963 458.604 177.202 458.324 178.562 458.324C179.708 458.324 180.74 458.482 181.656 458.797C182.587 459.112 183.389 459.62 184.062 460.322C184.736 461.01 185.244 461.912 185.588 463.029C185.946 464.132 186.125 465.479 186.125 467.068V482H180.926V467.025C180.926 465.908 180.761 465.02 180.432 464.361C180.117 463.702 179.651 463.23 179.035 462.943C178.419 462.643 177.667 462.492 176.779 462.492C175.848 462.492 175.025 462.678 174.309 463.051C173.607 463.423 173.02 463.932 172.547 464.576C172.074 465.221 171.716 465.965 171.473 466.811C171.243 467.656 171.129 468.558 171.129 469.518ZM201.615 482.43C199.896 482.43 198.342 482.15 196.953 481.592C195.578 481.019 194.404 480.224 193.43 479.207C192.47 478.19 191.732 476.994 191.217 475.619C190.701 474.244 190.443 472.762 190.443 471.172V470.312C190.443 468.493 190.708 466.846 191.238 465.371C191.768 463.896 192.506 462.635 193.451 461.59C194.396 460.53 195.514 459.721 196.803 459.162C198.092 458.604 199.488 458.324 200.992 458.324C202.654 458.324 204.107 458.604 205.354 459.162C206.6 459.721 207.631 460.508 208.447 461.525C209.278 462.528 209.894 463.724 210.295 465.113C210.71 466.503 210.918 468.035 210.918 469.711V471.924H192.957V468.207H205.805V467.799C205.776 466.868 205.59 465.994 205.246 465.178C204.917 464.361 204.408 463.702 203.721 463.201C203.033 462.7 202.117 462.449 200.971 462.449C200.111 462.449 199.345 462.635 198.672 463.008C198.013 463.366 197.462 463.889 197.018 464.576C196.574 465.264 196.23 466.094 195.986 467.068C195.757 468.028 195.643 469.109 195.643 470.312V471.172C195.643 472.189 195.779 473.134 196.051 474.008C196.337 474.867 196.753 475.619 197.297 476.264C197.841 476.908 198.5 477.417 199.273 477.789C200.047 478.147 200.928 478.326 201.916 478.326C203.162 478.326 204.272 478.076 205.246 477.574C206.22 477.073 207.065 476.364 207.781 475.447L210.51 478.09C210.008 478.82 209.357 479.522 208.555 480.195C207.753 480.854 206.771 481.391 205.611 481.807C204.465 482.222 203.133 482.43 201.615 482.43ZM238.268 450.719V482H232.918V450.719H238.268ZM248.086 450.719V455.016H223.186V450.719H248.086ZM255.348 463.18V482H250.17V458.754H255.111L255.348 463.18ZM262.459 458.604L262.416 463.416C262.101 463.359 261.757 463.316 261.385 463.287C261.027 463.258 260.669 463.244 260.311 463.244C259.423 463.244 258.642 463.373 257.969 463.631C257.296 463.874 256.73 464.232 256.271 464.705C255.827 465.163 255.484 465.722 255.24 466.381C254.997 467.04 254.854 467.777 254.811 468.594L253.629 468.68C253.629 467.219 253.772 465.865 254.059 464.619C254.345 463.373 254.775 462.277 255.348 461.332C255.935 460.387 256.665 459.649 257.539 459.119C258.427 458.589 259.451 458.324 260.611 458.324C260.926 458.324 261.263 458.353 261.621 458.41C261.993 458.467 262.273 458.532 262.459 458.604ZM278.035 477.338V466.252C278.035 465.421 277.885 464.705 277.584 464.104C277.283 463.502 276.825 463.036 276.209 462.707C275.607 462.378 274.848 462.213 273.932 462.213C273.087 462.213 272.356 462.356 271.74 462.643C271.124 462.929 270.645 463.316 270.301 463.803C269.957 464.29 269.785 464.841 269.785 465.457H264.629C264.629 464.54 264.851 463.652 265.295 462.793C265.739 461.934 266.383 461.167 267.229 460.494C268.074 459.821 269.083 459.291 270.258 458.904C271.432 458.518 272.75 458.324 274.211 458.324C275.958 458.324 277.505 458.618 278.852 459.205C280.212 459.792 281.279 460.68 282.053 461.869C282.84 463.044 283.234 464.519 283.234 466.295V476.629C283.234 477.689 283.306 478.641 283.449 479.486C283.607 480.317 283.829 481.04 284.115 481.656V482H278.809C278.565 481.441 278.372 480.732 278.229 479.873C278.1 478.999 278.035 478.154 278.035 477.338ZM278.787 467.863L278.83 471.064H275.113C274.154 471.064 273.309 471.158 272.578 471.344C271.848 471.516 271.239 471.773 270.752 472.117C270.265 472.461 269.9 472.876 269.656 473.363C269.413 473.85 269.291 474.402 269.291 475.018C269.291 475.633 269.434 476.199 269.721 476.715C270.007 477.216 270.423 477.61 270.967 477.896C271.525 478.183 272.199 478.326 272.986 478.326C274.046 478.326 274.97 478.111 275.758 477.682C276.56 477.238 277.19 476.701 277.648 476.07C278.107 475.426 278.35 474.817 278.379 474.244L280.055 476.543C279.883 477.13 279.589 477.76 279.174 478.434C278.758 479.107 278.214 479.751 277.541 480.367C276.882 480.969 276.087 481.463 275.156 481.85C274.24 482.236 273.18 482.43 271.977 482.43C270.458 482.43 269.105 482.129 267.916 481.527C266.727 480.911 265.796 480.088 265.123 479.057C264.45 478.011 264.113 476.829 264.113 475.512C264.113 474.28 264.342 473.191 264.801 472.246C265.273 471.286 265.961 470.484 266.863 469.84C267.78 469.195 268.897 468.708 270.215 468.379C271.533 468.035 273.036 467.863 274.727 467.863H278.787ZM302.828 477.188V449H308.027V482H303.322L302.828 477.188ZM287.703 470.635V470.184C287.703 468.422 287.911 466.818 288.326 465.371C288.742 463.91 289.343 462.657 290.131 461.611C290.919 460.551 291.878 459.742 293.01 459.184C294.141 458.611 295.416 458.324 296.834 458.324C298.238 458.324 299.469 458.596 300.529 459.141C301.589 459.685 302.492 460.465 303.236 461.482C303.981 462.485 304.576 463.688 305.02 465.092C305.464 466.481 305.779 468.028 305.965 469.732V471.172C305.779 472.833 305.464 474.352 305.02 475.727C304.576 477.102 303.981 478.29 303.236 479.293C302.492 480.296 301.582 481.069 300.508 481.613C299.448 482.158 298.209 482.43 296.791 482.43C295.387 482.43 294.12 482.136 292.988 481.549C291.871 480.962 290.919 480.138 290.131 479.078C289.343 478.018 288.742 476.772 288.326 475.34C287.911 473.893 287.703 472.325 287.703 470.635ZM292.881 470.184V470.635C292.881 471.695 292.974 472.683 293.16 473.6C293.361 474.516 293.669 475.326 294.084 476.027C294.499 476.715 295.036 477.259 295.695 477.66C296.368 478.047 297.171 478.24 298.102 478.24C299.276 478.24 300.243 477.982 301.002 477.467C301.761 476.951 302.355 476.257 302.785 475.383C303.229 474.495 303.53 473.507 303.688 472.418V468.529C303.602 467.684 303.423 466.896 303.15 466.166C302.893 465.436 302.542 464.798 302.098 464.254C301.654 463.695 301.102 463.266 300.443 462.965C299.799 462.65 299.033 462.492 298.145 462.492C297.199 462.492 296.397 462.693 295.738 463.094C295.079 463.495 294.535 464.046 294.105 464.748C293.69 465.45 293.382 466.266 293.182 467.197C292.981 468.128 292.881 469.124 292.881 470.184ZM323.689 482.43C321.971 482.43 320.417 482.15 319.027 481.592C317.652 481.019 316.478 480.224 315.504 479.207C314.544 478.19 313.807 476.994 313.291 475.619C312.775 474.244 312.518 472.762 312.518 471.172V470.312C312.518 468.493 312.783 466.846 313.312 465.371C313.842 463.896 314.58 462.635 315.525 461.59C316.471 460.53 317.588 459.721 318.877 459.162C320.166 458.604 321.562 458.324 323.066 458.324C324.728 458.324 326.182 458.604 327.428 459.162C328.674 459.721 329.705 460.508 330.521 461.525C331.352 462.528 331.968 463.724 332.369 465.113C332.785 466.503 332.992 468.035 332.992 469.711V471.924H315.031V468.207H327.879V467.799C327.85 466.868 327.664 465.994 327.32 465.178C326.991 464.361 326.482 463.702 325.795 463.201C325.107 462.7 324.191 462.449 323.045 462.449C322.186 462.449 321.419 462.635 320.746 463.008C320.087 463.366 319.536 463.889 319.092 464.576C318.648 465.264 318.304 466.094 318.061 467.068C317.831 468.028 317.717 469.109 317.717 470.312V471.172C317.717 472.189 317.853 473.134 318.125 474.008C318.411 474.867 318.827 475.619 319.371 476.264C319.915 476.908 320.574 477.417 321.348 477.789C322.121 478.147 323.002 478.326 323.99 478.326C325.236 478.326 326.346 478.076 327.32 477.574C328.294 477.073 329.139 476.364 329.855 475.447L332.584 478.09C332.083 478.82 331.431 479.522 330.629 480.195C329.827 480.854 328.846 481.391 327.686 481.807C326.54 482.222 325.208 482.43 323.689 482.43ZM342.209 463.48V482H337.031V458.754H341.908L342.209 463.48ZM341.371 469.518L339.609 469.496C339.609 467.892 339.81 466.41 340.211 465.049C340.612 463.688 341.199 462.507 341.973 461.504C342.746 460.487 343.706 459.706 344.852 459.162C346.012 458.604 347.351 458.324 348.869 458.324C349.929 458.324 350.896 458.482 351.77 458.797C352.658 459.098 353.424 459.577 354.068 460.236C354.727 460.895 355.229 461.74 355.572 462.771C355.93 463.803 356.109 465.049 356.109 466.51V482H350.932V466.961C350.932 465.829 350.76 464.941 350.416 464.297C350.087 463.652 349.607 463.194 348.977 462.922C348.361 462.635 347.623 462.492 346.764 462.492C345.79 462.492 344.959 462.678 344.271 463.051C343.598 463.423 343.047 463.932 342.617 464.576C342.188 465.221 341.872 465.965 341.672 466.811C341.471 467.656 341.371 468.558 341.371 469.518ZM355.787 468.143L353.359 468.68C353.359 467.276 353.553 465.951 353.939 464.705C354.34 463.445 354.921 462.342 355.68 461.396C356.453 460.437 357.406 459.685 358.537 459.141C359.669 458.596 360.965 458.324 362.426 458.324C363.615 458.324 364.674 458.489 365.605 458.818C366.551 459.133 367.353 459.635 368.012 460.322C368.671 461.01 369.172 461.905 369.516 463.008C369.859 464.096 370.031 465.414 370.031 466.961V482H364.832V466.939C364.832 465.765 364.66 464.855 364.316 464.211C363.987 463.566 363.514 463.122 362.898 462.879C362.283 462.621 361.545 462.492 360.686 462.492C359.883 462.492 359.174 462.643 358.559 462.943C357.957 463.23 357.449 463.638 357.033 464.168C356.618 464.684 356.303 465.278 356.088 465.951C355.887 466.624 355.787 467.355 355.787 468.143ZM388.465 477.338V466.252C388.465 465.421 388.314 464.705 388.014 464.104C387.713 463.502 387.255 463.036 386.639 462.707C386.037 462.378 385.278 462.213 384.361 462.213C383.516 462.213 382.786 462.356 382.17 462.643C381.554 462.929 381.074 463.316 380.73 463.803C380.387 464.29 380.215 464.841 380.215 465.457H375.059C375.059 464.54 375.281 463.652 375.725 462.793C376.169 461.934 376.813 461.167 377.658 460.494C378.503 459.821 379.513 459.291 380.688 458.904C381.862 458.518 383.18 458.324 384.641 458.324C386.388 458.324 387.935 458.618 389.281 459.205C390.642 459.792 391.709 460.68 392.482 461.869C393.27 463.044 393.664 464.519 393.664 466.295V476.629C393.664 477.689 393.736 478.641 393.879 479.486C394.036 480.317 394.258 481.04 394.545 481.656V482H389.238C388.995 481.441 388.801 480.732 388.658 479.873C388.529 478.999 388.465 478.154 388.465 477.338ZM389.217 467.863L389.26 471.064H385.543C384.583 471.064 383.738 471.158 383.008 471.344C382.277 471.516 381.669 471.773 381.182 472.117C380.695 472.461 380.329 472.876 380.086 473.363C379.842 473.85 379.721 474.402 379.721 475.018C379.721 475.633 379.864 476.199 380.15 476.715C380.437 477.216 380.852 477.61 381.396 477.896C381.955 478.183 382.628 478.326 383.416 478.326C384.476 478.326 385.4 478.111 386.188 477.682C386.99 477.238 387.62 476.701 388.078 476.07C388.536 475.426 388.78 474.817 388.809 474.244L390.484 476.543C390.312 477.13 390.019 477.76 389.604 478.434C389.188 479.107 388.644 479.751 387.971 480.367C387.312 480.969 386.517 481.463 385.586 481.85C384.669 482.236 383.609 482.43 382.406 482.43C380.888 482.43 379.535 482.129 378.346 481.527C377.157 480.911 376.226 480.088 375.553 479.057C374.88 478.011 374.543 476.829 374.543 475.512C374.543 474.28 374.772 473.191 375.23 472.246C375.703 471.286 376.391 470.484 377.293 469.84C378.21 469.195 379.327 468.708 380.645 468.379C381.962 468.035 383.466 467.863 385.156 467.863H389.217ZM404.277 463.18V482H399.1V458.754H404.041L404.277 463.18ZM411.389 458.604L411.346 463.416C411.031 463.359 410.687 463.316 410.314 463.287C409.956 463.258 409.598 463.244 409.24 463.244C408.352 463.244 407.572 463.373 406.898 463.631C406.225 463.874 405.66 464.232 405.201 464.705C404.757 465.163 404.413 465.722 404.17 466.381C403.926 467.04 403.783 467.777 403.74 468.594L402.559 468.68C402.559 467.219 402.702 465.865 402.988 464.619C403.275 463.373 403.704 462.277 404.277 461.332C404.865 460.387 405.595 459.649 406.469 459.119C407.357 458.589 408.381 458.324 409.541 458.324C409.856 458.324 410.193 458.353 410.551 458.41C410.923 458.467 411.202 458.532 411.389 458.604ZM419.854 449V482H414.654V449H419.854ZM434.291 458.754L424.172 469.969L418.629 475.641L417.275 471.258L421.465 466.08L428.039 458.754H434.291ZM429.156 482L421.615 471.086L424.881 467.455L435.15 482H429.156ZM450.619 475.705C450.619 475.189 450.49 474.724 450.232 474.309C449.975 473.879 449.48 473.492 448.75 473.148C448.034 472.805 446.974 472.49 445.57 472.203C444.339 471.931 443.207 471.609 442.176 471.236C441.159 470.85 440.285 470.384 439.555 469.84C438.824 469.296 438.258 468.651 437.857 467.906C437.456 467.161 437.256 466.302 437.256 465.328C437.256 464.383 437.464 463.488 437.879 462.643C438.294 461.798 438.889 461.053 439.662 460.408C440.436 459.764 441.374 459.255 442.477 458.883C443.594 458.51 444.84 458.324 446.215 458.324C448.163 458.324 449.831 458.654 451.221 459.312C452.624 459.957 453.699 460.838 454.443 461.955C455.188 463.058 455.561 464.304 455.561 465.693H450.383C450.383 465.077 450.225 464.505 449.91 463.975C449.609 463.43 449.151 462.993 448.535 462.664C447.919 462.32 447.146 462.148 446.215 462.148C445.327 462.148 444.589 462.292 444.002 462.578C443.429 462.85 442.999 463.208 442.713 463.652C442.441 464.096 442.305 464.583 442.305 465.113C442.305 465.5 442.376 465.851 442.52 466.166C442.677 466.467 442.935 466.746 443.293 467.004C443.651 467.247 444.138 467.477 444.754 467.691C445.384 467.906 446.172 468.114 447.117 468.314C448.893 468.687 450.419 469.167 451.693 469.754C452.982 470.327 453.971 471.072 454.658 471.988C455.346 472.891 455.689 474.036 455.689 475.426C455.689 476.457 455.467 477.402 455.023 478.262C454.594 479.107 453.964 479.844 453.133 480.475C452.302 481.09 451.307 481.57 450.146 481.914C449.001 482.258 447.712 482.43 446.279 482.43C444.174 482.43 442.391 482.057 440.93 481.312C439.469 480.553 438.359 479.587 437.6 478.412C436.855 477.223 436.482 475.992 436.482 474.717H441.488C441.546 475.676 441.811 476.443 442.283 477.016C442.77 477.574 443.372 477.982 444.088 478.24C444.818 478.484 445.57 478.605 446.344 478.605C447.275 478.605 448.055 478.484 448.686 478.24C449.316 477.982 449.796 477.639 450.125 477.209C450.454 476.765 450.619 476.264 450.619 475.705ZM219.039 506.887L209.693 534H204.043L215.816 502.719H219.426L219.039 506.887ZM226.859 534L217.492 506.887L217.084 502.719H220.715L232.531 534H226.859ZM226.408 522.398V526.674H209.393V522.398H226.408ZM245.014 530.305C245.859 530.305 246.618 530.14 247.291 529.811C247.979 529.467 248.53 528.994 248.945 528.393C249.375 527.791 249.611 527.096 249.654 526.309H254.531C254.503 527.812 254.059 529.18 253.199 530.412C252.34 531.644 251.201 532.625 249.783 533.355C248.365 534.072 246.797 534.43 245.078 534.43C243.302 534.43 241.755 534.129 240.438 533.527C239.12 532.911 238.024 532.066 237.15 530.992C236.277 529.918 235.618 528.679 235.174 527.275C234.744 525.872 234.529 524.368 234.529 522.764V522.012C234.529 520.408 234.744 518.904 235.174 517.5C235.618 516.082 236.277 514.836 237.15 513.762C238.024 512.688 239.12 511.85 240.438 511.248C241.755 510.632 243.295 510.324 245.057 510.324C246.919 510.324 248.551 510.697 249.955 511.441C251.359 512.172 252.462 513.196 253.264 514.514C254.08 515.817 254.503 517.335 254.531 519.068H249.654C249.611 518.209 249.396 517.436 249.01 516.748C248.637 516.046 248.107 515.488 247.42 515.072C246.747 514.657 245.938 514.449 244.992 514.449C243.947 514.449 243.08 514.664 242.393 515.094C241.705 515.509 241.168 516.082 240.781 516.812C240.395 517.529 240.115 518.338 239.943 519.24C239.786 520.128 239.707 521.052 239.707 522.012V522.764C239.707 523.723 239.786 524.654 239.943 525.557C240.101 526.459 240.373 527.268 240.76 527.984C241.161 528.686 241.705 529.252 242.393 529.682C243.08 530.097 243.954 530.305 245.014 530.305ZM269.162 510.754V514.535H256.057V510.754H269.162ZM259.838 505.061H265.016V527.576C265.016 528.292 265.116 528.844 265.316 529.23C265.531 529.603 265.825 529.854 266.197 529.982C266.57 530.111 267.007 530.176 267.508 530.176C267.866 530.176 268.21 530.154 268.539 530.111C268.868 530.068 269.133 530.025 269.334 529.982L269.355 533.936C268.926 534.064 268.424 534.179 267.852 534.279C267.293 534.38 266.648 534.43 265.918 534.43C264.729 534.43 263.676 534.222 262.76 533.807C261.843 533.377 261.127 532.682 260.611 531.723C260.096 530.763 259.838 529.488 259.838 527.898V505.061ZM278.014 529.016L277.992 532.711C277.992 534.172 277.627 535.676 276.896 537.223C276.166 538.77 275.199 540.044 273.996 541.047L271.225 539.436C271.626 538.791 271.991 538.139 272.32 537.48C272.65 536.822 272.915 536.12 273.115 535.375C273.316 534.63 273.416 533.807 273.416 532.904V529.016H278.014ZM307.791 502.611V534H302.613V508.756L294.943 511.355V507.08L307.168 502.611H307.791ZM322.83 529.918H323.26C325.236 529.918 326.883 529.66 328.201 529.145C329.533 528.615 330.593 527.884 331.381 526.953C332.169 526.022 332.734 524.926 333.078 523.666C333.422 522.406 333.594 521.038 333.594 519.562V514.17C333.594 512.895 333.458 511.778 333.186 510.818C332.928 509.844 332.555 509.035 332.068 508.391C331.596 507.732 331.044 507.238 330.414 506.908C329.798 506.579 329.132 506.414 328.416 506.414C327.628 506.414 326.919 506.593 326.289 506.951C325.673 507.295 325.15 507.775 324.721 508.391C324.305 508.992 323.983 509.701 323.754 510.518C323.539 511.32 323.432 512.179 323.432 513.096C323.432 513.955 323.532 514.786 323.732 515.588C323.947 516.376 324.262 517.077 324.678 517.693C325.093 518.309 325.616 518.796 326.246 519.154C326.876 519.512 327.614 519.691 328.459 519.691C329.261 519.691 329.999 519.541 330.672 519.24C331.345 518.925 331.932 518.503 332.434 517.973C332.935 517.443 333.329 516.848 333.615 516.189C333.902 515.531 334.059 514.857 334.088 514.17L336.064 514.771C336.064 515.86 335.835 516.934 335.377 517.994C334.933 519.04 334.31 519.999 333.508 520.873C332.72 521.732 331.796 522.42 330.736 522.936C329.691 523.451 328.552 523.709 327.32 523.709C325.831 523.709 324.513 523.43 323.367 522.871C322.236 522.298 321.29 521.525 320.531 520.551C319.786 519.577 319.228 518.46 318.855 517.199C318.483 515.939 318.297 514.614 318.297 513.225C318.297 511.721 318.526 510.31 318.984 508.992C319.443 507.674 320.109 506.514 320.982 505.512C321.856 504.495 322.916 503.707 324.162 503.148C325.423 502.576 326.848 502.289 328.438 502.289C330.128 502.289 331.61 502.618 332.885 503.277C334.16 503.936 335.234 504.846 336.107 506.006C336.981 507.166 337.64 508.512 338.084 510.045C338.528 511.577 338.75 513.225 338.75 514.986V516.812C338.75 518.66 338.585 520.443 338.256 522.162C337.926 523.867 337.389 525.449 336.645 526.91C335.914 528.357 334.947 529.632 333.744 530.734C332.555 531.823 331.094 532.675 329.361 533.291C327.643 533.893 325.623 534.193 323.303 534.193H322.83V529.918ZM347.838 529.918H348.268C350.244 529.918 351.891 529.66 353.209 529.145C354.541 528.615 355.601 527.884 356.389 526.953C357.176 526.022 357.742 524.926 358.086 523.666C358.43 522.406 358.602 521.038 358.602 519.562V514.17C358.602 512.895 358.465 511.778 358.193 510.818C357.936 509.844 357.563 509.035 357.076 508.391C356.604 507.732 356.052 507.238 355.422 506.908C354.806 506.579 354.14 506.414 353.424 506.414C352.636 506.414 351.927 506.593 351.297 506.951C350.681 507.295 350.158 507.775 349.729 508.391C349.313 508.992 348.991 509.701 348.762 510.518C348.547 511.32 348.439 512.179 348.439 513.096C348.439 513.955 348.54 514.786 348.74 515.588C348.955 516.376 349.27 517.077 349.686 517.693C350.101 518.309 350.624 518.796 351.254 519.154C351.884 519.512 352.622 519.691 353.467 519.691C354.269 519.691 355.007 519.541 355.68 519.24C356.353 518.925 356.94 518.503 357.441 517.973C357.943 517.443 358.337 516.848 358.623 516.189C358.91 515.531 359.067 514.857 359.096 514.17L361.072 514.771C361.072 515.86 360.843 516.934 360.385 517.994C359.941 519.04 359.318 519.999 358.516 520.873C357.728 521.732 356.804 522.42 355.744 522.936C354.699 523.451 353.56 523.709 352.328 523.709C350.839 523.709 349.521 523.43 348.375 522.871C347.243 522.298 346.298 521.525 345.539 520.551C344.794 519.577 344.236 518.46 343.863 517.199C343.491 515.939 343.305 514.614 343.305 513.225C343.305 511.721 343.534 510.31 343.992 508.992C344.451 507.674 345.117 506.514 345.99 505.512C346.864 504.495 347.924 503.707 349.17 503.148C350.43 502.576 351.855 502.289 353.445 502.289C355.135 502.289 356.618 502.618 357.893 503.277C359.167 503.936 360.242 504.846 361.115 506.006C361.989 507.166 362.648 508.512 363.092 510.045C363.536 511.577 363.758 513.225 363.758 514.986V516.812C363.758 518.66 363.593 520.443 363.264 522.162C362.934 523.867 362.397 525.449 361.652 526.91C360.922 528.357 359.955 529.632 358.752 530.734C357.563 531.823 356.102 532.675 354.369 533.291C352.65 533.893 350.631 534.193 348.311 534.193H347.838V529.918ZM372.846 529.918H373.275C375.252 529.918 376.899 529.66 378.217 529.145C379.549 528.615 380.609 527.884 381.396 526.953C382.184 526.022 382.75 524.926 383.094 523.666C383.438 522.406 383.609 521.038 383.609 519.562V514.17C383.609 512.895 383.473 511.778 383.201 510.818C382.943 509.844 382.571 509.035 382.084 508.391C381.611 507.732 381.06 507.238 380.43 506.908C379.814 506.579 379.148 506.414 378.432 506.414C377.644 506.414 376.935 506.593 376.305 506.951C375.689 507.295 375.166 507.775 374.736 508.391C374.321 508.992 373.999 509.701 373.77 510.518C373.555 511.32 373.447 512.179 373.447 513.096C373.447 513.955 373.548 514.786 373.748 515.588C373.963 516.376 374.278 517.077 374.693 517.693C375.109 518.309 375.632 518.796 376.262 519.154C376.892 519.512 377.63 519.691 378.475 519.691C379.277 519.691 380.014 519.541 380.688 519.24C381.361 518.925 381.948 518.503 382.449 517.973C382.951 517.443 383.344 516.848 383.631 516.189C383.917 515.531 384.075 514.857 384.104 514.17L386.08 514.771C386.08 515.86 385.851 516.934 385.393 517.994C384.949 519.04 384.326 519.999 383.523 520.873C382.736 521.732 381.812 522.42 380.752 522.936C379.706 523.451 378.568 523.709 377.336 523.709C375.846 523.709 374.529 523.43 373.383 522.871C372.251 522.298 371.306 521.525 370.547 520.551C369.802 519.577 369.243 518.46 368.871 517.199C368.499 515.939 368.312 514.614 368.312 513.225C368.312 511.721 368.542 510.31 369 508.992C369.458 507.674 370.124 506.514 370.998 505.512C371.872 504.495 372.932 503.707 374.178 503.148C375.438 502.576 376.863 502.289 378.453 502.289C380.143 502.289 381.626 502.618 382.9 503.277C384.175 503.936 385.249 504.846 386.123 506.006C386.997 507.166 387.656 508.512 388.1 510.045C388.544 511.577 388.766 513.225 388.766 514.986V516.812C388.766 518.66 388.601 520.443 388.271 522.162C387.942 523.867 387.405 525.449 386.66 526.91C385.93 528.357 384.963 529.632 383.76 530.734C382.571 531.823 381.11 532.675 379.377 533.291C377.658 533.893 375.639 534.193 373.318 534.193H372.846V529.918Z" fill="#30486E"/>
<g filter="url(#filter3_d_1118_1410)">
<circle cx="1085.4" cy="437.497" r="183.146" fill="white"/>
</g>
<path d="M941.49 450.719V482H936.141V450.719H941.49ZM951.309 450.719V455.016H926.408V450.719H951.309ZM960.031 449V482H954.875V449H960.031ZM959.129 469.518L957.453 469.496C957.467 467.892 957.689 466.41 958.119 465.049C958.563 463.688 959.179 462.507 959.967 461.504C960.769 460.487 961.729 459.706 962.846 459.162C963.963 458.604 965.202 458.324 966.562 458.324C967.708 458.324 968.74 458.482 969.656 458.797C970.587 459.112 971.389 459.62 972.062 460.322C972.736 461.01 973.244 461.912 973.588 463.029C973.946 464.132 974.125 465.479 974.125 467.068V482H968.926V467.025C968.926 465.908 968.761 465.02 968.432 464.361C968.117 463.702 967.651 463.23 967.035 462.943C966.419 462.643 965.667 462.492 964.779 462.492C963.848 462.492 963.025 462.678 962.309 463.051C961.607 463.423 961.02 463.932 960.547 464.576C960.074 465.221 959.716 465.965 959.473 466.811C959.243 467.656 959.129 468.558 959.129 469.518ZM989.615 482.43C987.896 482.43 986.342 482.15 984.953 481.592C983.578 481.019 982.404 480.224 981.43 479.207C980.47 478.19 979.732 476.994 979.217 475.619C978.701 474.244 978.443 472.762 978.443 471.172V470.312C978.443 468.493 978.708 466.846 979.238 465.371C979.768 463.896 980.506 462.635 981.451 461.59C982.396 460.53 983.514 459.721 984.803 459.162C986.092 458.604 987.488 458.324 988.992 458.324C990.654 458.324 992.107 458.604 993.354 459.162C994.6 459.721 995.631 460.508 996.447 461.525C997.278 462.528 997.894 463.724 998.295 465.113C998.71 466.503 998.918 468.035 998.918 469.711V471.924H980.957V468.207H993.805V467.799C993.776 466.868 993.59 465.994 993.246 465.178C992.917 464.361 992.408 463.702 991.721 463.201C991.033 462.7 990.117 462.449 988.971 462.449C988.111 462.449 987.345 462.635 986.672 463.008C986.013 463.366 985.462 463.889 985.018 464.576C984.574 465.264 984.23 466.094 983.986 467.068C983.757 468.028 983.643 469.109 983.643 470.312V471.172C983.643 472.189 983.779 473.134 984.051 474.008C984.337 474.867 984.753 475.619 985.297 476.264C985.841 476.908 986.5 477.417 987.273 477.789C988.047 478.147 988.928 478.326 989.916 478.326C991.162 478.326 992.272 478.076 993.246 477.574C994.22 477.073 995.065 476.364 995.781 475.447L998.51 478.09C998.008 478.82 997.357 479.522 996.555 480.195C995.753 480.854 994.771 481.391 993.611 481.807C992.465 482.222 991.133 482.43 989.615 482.43ZM1026.27 450.719V482H1020.92V450.719H1026.27ZM1036.09 450.719V455.016H1011.19V450.719H1036.09ZM1043.35 463.18V482H1038.17V458.754H1043.11L1043.35 463.18ZM1050.46 458.604L1050.42 463.416C1050.1 463.359 1049.76 463.316 1049.38 463.287C1049.03 463.258 1048.67 463.244 1048.31 463.244C1047.42 463.244 1046.64 463.373 1045.97 463.631C1045.3 463.874 1044.73 464.232 1044.27 464.705C1043.83 465.163 1043.48 465.722 1043.24 466.381C1043 467.04 1042.85 467.777 1042.81 468.594L1041.63 468.68C1041.63 467.219 1041.77 465.865 1042.06 464.619C1042.35 463.373 1042.77 462.277 1043.35 461.332C1043.93 460.387 1044.67 459.649 1045.54 459.119C1046.43 458.589 1047.45 458.324 1048.61 458.324C1048.93 458.324 1049.26 458.353 1049.62 458.41C1049.99 458.467 1050.27 458.532 1050.46 458.604ZM1066.04 477.338V466.252C1066.04 465.421 1065.88 464.705 1065.58 464.104C1065.28 463.502 1064.82 463.036 1064.21 462.707C1063.61 462.378 1062.85 462.213 1061.93 462.213C1061.09 462.213 1060.36 462.356 1059.74 462.643C1059.12 462.929 1058.64 463.316 1058.3 463.803C1057.96 464.29 1057.79 464.841 1057.79 465.457H1052.63C1052.63 464.54 1052.85 463.652 1053.29 462.793C1053.74 461.934 1054.38 461.167 1055.23 460.494C1056.07 459.821 1057.08 459.291 1058.26 458.904C1059.43 458.518 1060.75 458.324 1062.21 458.324C1063.96 458.324 1065.51 458.618 1066.85 459.205C1068.21 459.792 1069.28 460.68 1070.05 461.869C1070.84 463.044 1071.23 464.519 1071.23 466.295V476.629C1071.23 477.689 1071.31 478.641 1071.45 479.486C1071.61 480.317 1071.83 481.04 1072.12 481.656V482H1066.81C1066.57 481.441 1066.37 480.732 1066.23 479.873C1066.1 478.999 1066.04 478.154 1066.04 477.338ZM1066.79 467.863L1066.83 471.064H1063.11C1062.15 471.064 1061.31 471.158 1060.58 471.344C1059.85 471.516 1059.24 471.773 1058.75 472.117C1058.26 472.461 1057.9 472.876 1057.66 473.363C1057.41 473.85 1057.29 474.402 1057.29 475.018C1057.29 475.633 1057.43 476.199 1057.72 476.715C1058.01 477.216 1058.42 477.61 1058.97 477.896C1059.53 478.183 1060.2 478.326 1060.99 478.326C1062.05 478.326 1062.97 478.111 1063.76 477.682C1064.56 477.238 1065.19 476.701 1065.65 476.07C1066.11 475.426 1066.35 474.817 1066.38 474.244L1068.05 476.543C1067.88 477.13 1067.59 477.76 1067.17 478.434C1066.76 479.107 1066.21 479.751 1065.54 480.367C1064.88 480.969 1064.09 481.463 1063.16 481.85C1062.24 482.236 1061.18 482.43 1059.98 482.43C1058.46 482.43 1057.1 482.129 1055.92 481.527C1054.73 480.911 1053.8 480.088 1053.12 479.057C1052.45 478.011 1052.11 476.829 1052.11 475.512C1052.11 474.28 1052.34 473.191 1052.8 472.246C1053.27 471.286 1053.96 470.484 1054.86 469.84C1055.78 469.195 1056.9 468.708 1058.21 468.379C1059.53 468.035 1061.04 467.863 1062.73 467.863H1066.79ZM1090.83 477.188V449H1096.03V482H1091.32L1090.83 477.188ZM1075.7 470.635V470.184C1075.7 468.422 1075.91 466.818 1076.33 465.371C1076.74 463.91 1077.34 462.657 1078.13 461.611C1078.92 460.551 1079.88 459.742 1081.01 459.184C1082.14 458.611 1083.42 458.324 1084.83 458.324C1086.24 458.324 1087.47 458.596 1088.53 459.141C1089.59 459.685 1090.49 460.465 1091.24 461.482C1091.98 462.485 1092.58 463.688 1093.02 465.092C1093.46 466.481 1093.78 468.028 1093.96 469.732V471.172C1093.78 472.833 1093.46 474.352 1093.02 475.727C1092.58 477.102 1091.98 478.29 1091.24 479.293C1090.49 480.296 1089.58 481.069 1088.51 481.613C1087.45 482.158 1086.21 482.43 1084.79 482.43C1083.39 482.43 1082.12 482.136 1080.99 481.549C1079.87 480.962 1078.92 480.138 1078.13 479.078C1077.34 478.018 1076.74 476.772 1076.33 475.34C1075.91 473.893 1075.7 472.325 1075.7 470.635ZM1080.88 470.184V470.635C1080.88 471.695 1080.97 472.683 1081.16 473.6C1081.36 474.516 1081.67 475.326 1082.08 476.027C1082.5 476.715 1083.04 477.259 1083.7 477.66C1084.37 478.047 1085.17 478.24 1086.1 478.24C1087.28 478.24 1088.24 477.982 1089 477.467C1089.76 476.951 1090.36 476.257 1090.79 475.383C1091.23 474.495 1091.53 473.507 1091.69 472.418V468.529C1091.6 467.684 1091.42 466.896 1091.15 466.166C1090.89 465.436 1090.54 464.798 1090.1 464.254C1089.65 463.695 1089.1 463.266 1088.44 462.965C1087.8 462.65 1087.03 462.492 1086.14 462.492C1085.2 462.492 1084.4 462.693 1083.74 463.094C1083.08 463.495 1082.54 464.046 1082.11 464.748C1081.69 465.45 1081.38 466.266 1081.18 467.197C1080.98 468.128 1080.88 469.124 1080.88 470.184ZM1111.69 482.43C1109.97 482.43 1108.42 482.15 1107.03 481.592C1105.65 481.019 1104.48 480.224 1103.5 479.207C1102.54 478.19 1101.81 476.994 1101.29 475.619C1100.78 474.244 1100.52 472.762 1100.52 471.172V470.312C1100.52 468.493 1100.78 466.846 1101.31 465.371C1101.84 463.896 1102.58 462.635 1103.53 461.59C1104.47 460.53 1105.59 459.721 1106.88 459.162C1108.17 458.604 1109.56 458.324 1111.07 458.324C1112.73 458.324 1114.18 458.604 1115.43 459.162C1116.67 459.721 1117.71 460.508 1118.52 461.525C1119.35 462.528 1119.97 463.724 1120.37 465.113C1120.78 466.503 1120.99 468.035 1120.99 469.711V471.924H1103.03V468.207H1115.88V467.799C1115.85 466.868 1115.66 465.994 1115.32 465.178C1114.99 464.361 1114.48 463.702 1113.79 463.201C1113.11 462.7 1112.19 462.449 1111.04 462.449C1110.19 462.449 1109.42 462.635 1108.75 463.008C1108.09 463.366 1107.54 463.889 1107.09 464.576C1106.65 465.264 1106.3 466.094 1106.06 467.068C1105.83 468.028 1105.72 469.109 1105.72 470.312V471.172C1105.72 472.189 1105.85 473.134 1106.12 474.008C1106.41 474.867 1106.83 475.619 1107.37 476.264C1107.92 476.908 1108.57 477.417 1109.35 477.789C1110.12 478.147 1111 478.326 1111.99 478.326C1113.24 478.326 1114.35 478.076 1115.32 477.574C1116.29 477.073 1117.14 476.364 1117.86 475.447L1120.58 478.09C1120.08 478.82 1119.43 479.522 1118.63 480.195C1117.83 480.854 1116.85 481.391 1115.69 481.807C1114.54 482.222 1113.21 482.43 1111.69 482.43ZM1130.21 463.48V482H1125.03V458.754H1129.91L1130.21 463.48ZM1129.37 469.518L1127.61 469.496C1127.61 467.892 1127.81 466.41 1128.21 465.049C1128.61 463.688 1129.2 462.507 1129.97 461.504C1130.75 460.487 1131.71 459.706 1132.85 459.162C1134.01 458.604 1135.35 458.324 1136.87 458.324C1137.93 458.324 1138.9 458.482 1139.77 458.797C1140.66 459.098 1141.42 459.577 1142.07 460.236C1142.73 460.895 1143.23 461.74 1143.57 462.771C1143.93 463.803 1144.11 465.049 1144.11 466.51V482H1138.93V466.961C1138.93 465.829 1138.76 464.941 1138.42 464.297C1138.09 463.652 1137.61 463.194 1136.98 462.922C1136.36 462.635 1135.62 462.492 1134.76 462.492C1133.79 462.492 1132.96 462.678 1132.27 463.051C1131.6 463.423 1131.05 463.932 1130.62 464.576C1130.19 465.221 1129.87 465.965 1129.67 466.811C1129.47 467.656 1129.37 468.558 1129.37 469.518ZM1143.79 468.143L1141.36 468.68C1141.36 467.276 1141.55 465.951 1141.94 464.705C1142.34 463.445 1142.92 462.342 1143.68 461.396C1144.45 460.437 1145.41 459.685 1146.54 459.141C1147.67 458.596 1148.96 458.324 1150.43 458.324C1151.61 458.324 1152.67 458.489 1153.61 458.818C1154.55 459.133 1155.35 459.635 1156.01 460.322C1156.67 461.01 1157.17 461.905 1157.52 463.008C1157.86 464.096 1158.03 465.414 1158.03 466.961V482H1152.83V466.939C1152.83 465.765 1152.66 464.855 1152.32 464.211C1151.99 463.566 1151.51 463.122 1150.9 462.879C1150.28 462.621 1149.54 462.492 1148.69 462.492C1147.88 462.492 1147.17 462.643 1146.56 462.943C1145.96 463.23 1145.45 463.638 1145.03 464.168C1144.62 464.684 1144.3 465.278 1144.09 465.951C1143.89 466.624 1143.79 467.355 1143.79 468.143ZM1176.46 477.338V466.252C1176.46 465.421 1176.31 464.705 1176.01 464.104C1175.71 463.502 1175.25 463.036 1174.64 462.707C1174.04 462.378 1173.28 462.213 1172.36 462.213C1171.52 462.213 1170.79 462.356 1170.17 462.643C1169.55 462.929 1169.07 463.316 1168.73 463.803C1168.39 464.29 1168.21 464.841 1168.21 465.457H1163.06C1163.06 464.54 1163.28 463.652 1163.72 462.793C1164.17 461.934 1164.81 461.167 1165.66 460.494C1166.5 459.821 1167.51 459.291 1168.69 458.904C1169.86 458.518 1171.18 458.324 1172.64 458.324C1174.39 458.324 1175.93 458.618 1177.28 459.205C1178.64 459.792 1179.71 460.68 1180.48 461.869C1181.27 463.044 1181.66 464.519 1181.66 466.295V476.629C1181.66 477.689 1181.74 478.641 1181.88 479.486C1182.04 480.317 1182.26 481.04 1182.54 481.656V482H1177.24C1176.99 481.441 1176.8 480.732 1176.66 479.873C1176.53 478.999 1176.46 478.154 1176.46 477.338ZM1177.22 467.863L1177.26 471.064H1173.54C1172.58 471.064 1171.74 471.158 1171.01 471.344C1170.28 471.516 1169.67 471.773 1169.18 472.117C1168.69 472.461 1168.33 472.876 1168.09 473.363C1167.84 473.85 1167.72 474.402 1167.72 475.018C1167.72 475.633 1167.86 476.199 1168.15 476.715C1168.44 477.216 1168.85 477.61 1169.4 477.896C1169.96 478.183 1170.63 478.326 1171.42 478.326C1172.48 478.326 1173.4 478.111 1174.19 477.682C1174.99 477.238 1175.62 476.701 1176.08 476.07C1176.54 475.426 1176.78 474.817 1176.81 474.244L1178.48 476.543C1178.31 477.13 1178.02 477.76 1177.6 478.434C1177.19 479.107 1176.64 479.751 1175.97 480.367C1175.31 480.969 1174.52 481.463 1173.59 481.85C1172.67 482.236 1171.61 482.43 1170.41 482.43C1168.89 482.43 1167.53 482.129 1166.35 481.527C1165.16 480.911 1164.23 480.088 1163.55 479.057C1162.88 478.011 1162.54 476.829 1162.54 475.512C1162.54 474.28 1162.77 473.191 1163.23 472.246C1163.7 471.286 1164.39 470.484 1165.29 469.84C1166.21 469.195 1167.33 468.708 1168.64 468.379C1169.96 468.035 1171.47 467.863 1173.16 467.863H1177.22ZM1192.28 463.18V482H1187.1V458.754H1192.04L1192.28 463.18ZM1199.39 458.604L1199.35 463.416C1199.03 463.359 1198.69 463.316 1198.31 463.287C1197.96 463.258 1197.6 463.244 1197.24 463.244C1196.35 463.244 1195.57 463.373 1194.9 463.631C1194.23 463.874 1193.66 464.232 1193.2 464.705C1192.76 465.163 1192.41 465.722 1192.17 466.381C1191.93 467.04 1191.78 467.777 1191.74 468.594L1190.56 468.68C1190.56 467.219 1190.7 465.865 1190.99 464.619C1191.27 463.373 1191.7 462.277 1192.28 461.332C1192.86 460.387 1193.6 459.649 1194.47 459.119C1195.36 458.589 1196.38 458.324 1197.54 458.324C1197.86 458.324 1198.19 458.353 1198.55 458.41C1198.92 458.467 1199.2 458.532 1199.39 458.604ZM1207.85 449V482H1202.65V449H1207.85ZM1222.29 458.754L1212.17 469.969L1206.63 475.641L1205.28 471.258L1209.46 466.08L1216.04 458.754H1222.29ZM1217.16 482L1209.62 471.086L1212.88 467.455L1223.15 482H1217.16ZM1238.62 475.705C1238.62 475.189 1238.49 474.724 1238.23 474.309C1237.97 473.879 1237.48 473.492 1236.75 473.148C1236.03 472.805 1234.97 472.49 1233.57 472.203C1232.34 471.931 1231.21 471.609 1230.18 471.236C1229.16 470.85 1228.29 470.384 1227.55 469.84C1226.82 469.296 1226.26 468.651 1225.86 467.906C1225.46 467.161 1225.26 466.302 1225.26 465.328C1225.26 464.383 1225.46 463.488 1225.88 462.643C1226.29 461.798 1226.89 461.053 1227.66 460.408C1228.44 459.764 1229.37 459.255 1230.48 458.883C1231.59 458.51 1232.84 458.324 1234.21 458.324C1236.16 458.324 1237.83 458.654 1239.22 459.312C1240.62 459.957 1241.7 460.838 1242.44 461.955C1243.19 463.058 1243.56 464.304 1243.56 465.693H1238.38C1238.38 465.077 1238.23 464.505 1237.91 463.975C1237.61 463.43 1237.15 462.993 1236.54 462.664C1235.92 462.32 1235.15 462.148 1234.21 462.148C1233.33 462.148 1232.59 462.292 1232 462.578C1231.43 462.85 1231 463.208 1230.71 463.652C1230.44 464.096 1230.3 464.583 1230.3 465.113C1230.3 465.5 1230.38 465.851 1230.52 466.166C1230.68 466.467 1230.93 466.746 1231.29 467.004C1231.65 467.247 1232.14 467.477 1232.75 467.691C1233.38 467.906 1234.17 468.114 1235.12 468.314C1236.89 468.687 1238.42 469.167 1239.69 469.754C1240.98 470.327 1241.97 471.072 1242.66 471.988C1243.35 472.891 1243.69 474.036 1243.69 475.426C1243.69 476.457 1243.47 477.402 1243.02 478.262C1242.59 479.107 1241.96 479.844 1241.13 480.475C1240.3 481.09 1239.31 481.57 1238.15 481.914C1237 482.258 1235.71 482.43 1234.28 482.43C1232.17 482.43 1230.39 482.057 1228.93 481.312C1227.47 480.553 1226.36 479.587 1225.6 478.412C1224.85 477.223 1224.48 475.992 1224.48 474.717H1229.49C1229.55 475.676 1229.81 476.443 1230.28 477.016C1230.77 477.574 1231.37 477.982 1232.09 478.24C1232.82 478.484 1233.57 478.605 1234.34 478.605C1235.27 478.605 1236.06 478.484 1236.69 478.24C1237.32 477.982 1237.8 477.639 1238.12 477.209C1238.45 476.765 1238.62 476.264 1238.62 475.705ZM973.438 502.719H984.502C986.88 502.719 988.906 503.077 990.582 503.793C992.258 504.509 993.54 505.569 994.428 506.973C995.33 508.362 995.781 510.081 995.781 512.129C995.781 513.69 995.495 515.065 994.922 516.254C994.349 517.443 993.54 518.445 992.494 519.262C991.449 520.064 990.202 520.687 988.756 521.131L987.123 521.926H977.176L977.133 517.65H984.588C985.877 517.65 986.951 517.421 987.811 516.963C988.67 516.505 989.314 515.882 989.744 515.094C990.188 514.292 990.41 513.389 990.41 512.387C990.41 511.298 990.195 510.353 989.766 509.551C989.35 508.734 988.706 508.111 987.832 507.682C986.958 507.238 985.848 507.016 984.502 507.016H978.83V534H973.438V502.719ZM991.291 534L983.943 519.949L989.594 519.928L997.049 533.721V534H991.291ZM1014.62 528.521V510.754H1019.82V534H1014.92L1014.62 528.521ZM1015.35 523.688L1017.09 523.645C1017.09 525.206 1016.92 526.645 1016.58 527.963C1016.23 529.266 1015.7 530.405 1014.99 531.379C1014.27 532.339 1013.36 533.09 1012.24 533.635C1011.12 534.165 1009.78 534.43 1008.22 534.43C1007.09 534.43 1006.05 534.265 1005.11 533.936C1004.16 533.606 1003.34 533.098 1002.66 532.41C1001.98 531.723 1001.46 530.827 1001.09 529.725C1000.72 528.622 1000.53 527.304 1000.53 525.771V510.754H1005.71V525.814C1005.71 526.66 1005.81 527.368 1006.01 527.941C1006.21 528.5 1006.48 528.951 1006.82 529.295C1007.17 529.639 1007.57 529.882 1008.03 530.025C1008.49 530.169 1008.97 530.24 1009.49 530.24C1010.96 530.24 1012.12 529.954 1012.97 529.381C1013.83 528.794 1014.44 528.006 1014.79 527.018C1015.17 526.029 1015.35 524.919 1015.35 523.688ZM1030.67 501V534H1025.47V501H1030.67ZM1046.59 534.43C1044.87 534.43 1043.32 534.15 1041.93 533.592C1040.55 533.019 1039.38 532.224 1038.41 531.207C1037.45 530.19 1036.71 528.994 1036.19 527.619C1035.68 526.244 1035.42 524.762 1035.42 523.172V522.312C1035.42 520.493 1035.68 518.846 1036.21 517.371C1036.74 515.896 1037.48 514.635 1038.43 513.59C1039.37 512.53 1040.49 511.721 1041.78 511.162C1043.07 510.604 1044.46 510.324 1045.97 510.324C1047.63 510.324 1049.08 510.604 1050.33 511.162C1051.58 511.721 1052.61 512.508 1053.42 513.525C1054.25 514.528 1054.87 515.724 1055.27 517.113C1055.69 518.503 1055.89 520.035 1055.89 521.711V523.924H1037.93V520.207H1050.78V519.799C1050.75 518.868 1050.57 517.994 1050.22 517.178C1049.89 516.361 1049.38 515.702 1048.7 515.201C1048.01 514.7 1047.09 514.449 1045.95 514.449C1045.09 514.449 1044.32 514.635 1043.65 515.008C1042.99 515.366 1042.44 515.889 1041.99 516.576C1041.55 517.264 1041.21 518.094 1040.96 519.068C1040.73 520.028 1040.62 521.109 1040.62 522.312V523.172C1040.62 524.189 1040.76 525.134 1041.03 526.008C1041.31 526.867 1041.73 527.619 1042.27 528.264C1042.82 528.908 1043.48 529.417 1044.25 529.789C1045.02 530.147 1045.9 530.326 1046.89 530.326C1048.14 530.326 1049.25 530.076 1050.22 529.574C1051.2 529.073 1052.04 528.364 1052.76 527.447L1055.49 530.09C1054.99 530.82 1054.33 531.522 1053.53 532.195C1052.73 532.854 1051.75 533.391 1050.59 533.807C1049.44 534.222 1048.11 534.43 1046.59 534.43ZM1072.97 527.705C1072.97 527.189 1072.85 526.724 1072.59 526.309C1072.33 525.879 1071.84 525.492 1071.11 525.148C1070.39 524.805 1069.33 524.49 1067.93 524.203C1066.69 523.931 1065.56 523.609 1064.53 523.236C1063.51 522.85 1062.64 522.384 1061.91 521.84C1061.18 521.296 1060.61 520.651 1060.21 519.906C1059.81 519.161 1059.61 518.302 1059.61 517.328C1059.61 516.383 1059.82 515.488 1060.23 514.643C1060.65 513.798 1061.24 513.053 1062.02 512.408C1062.79 511.764 1063.73 511.255 1064.83 510.883C1065.95 510.51 1067.2 510.324 1068.57 510.324C1070.52 510.324 1072.19 510.654 1073.58 511.312C1074.98 511.957 1076.05 512.838 1076.8 513.955C1077.54 515.058 1077.92 516.304 1077.92 517.693H1072.74C1072.74 517.077 1072.58 516.505 1072.27 515.975C1071.96 515.43 1071.51 514.993 1070.89 514.664C1070.27 514.32 1069.5 514.148 1068.57 514.148C1067.68 514.148 1066.94 514.292 1066.36 514.578C1065.78 514.85 1065.35 515.208 1065.07 515.652C1064.8 516.096 1064.66 516.583 1064.66 517.113C1064.66 517.5 1064.73 517.851 1064.88 518.166C1065.03 518.467 1065.29 518.746 1065.65 519.004C1066.01 519.247 1066.49 519.477 1067.11 519.691C1067.74 519.906 1068.53 520.114 1069.47 520.314C1071.25 520.687 1072.77 521.167 1074.05 521.754C1075.34 522.327 1076.33 523.072 1077.01 523.988C1077.7 524.891 1078.04 526.036 1078.04 527.426C1078.04 528.457 1077.82 529.402 1077.38 530.262C1076.95 531.107 1076.32 531.844 1075.49 532.475C1074.66 533.09 1073.66 533.57 1072.5 533.914C1071.36 534.258 1070.07 534.43 1068.63 534.43C1066.53 534.43 1064.75 534.057 1063.29 533.312C1061.82 532.553 1060.71 531.587 1059.96 530.412C1059.21 529.223 1058.84 527.992 1058.84 526.717H1063.84C1063.9 527.676 1064.17 528.443 1064.64 529.016C1065.13 529.574 1065.73 529.982 1066.44 530.24C1067.17 530.484 1067.93 530.605 1068.7 530.605C1069.63 530.605 1070.41 530.484 1071.04 530.24C1071.67 529.982 1072.15 529.639 1072.48 529.209C1072.81 528.765 1072.97 528.264 1072.97 527.705ZM1087.43 529.016L1087.41 532.711C1087.41 534.172 1087.05 535.676 1086.32 537.223C1085.59 538.77 1084.62 540.044 1083.42 541.047L1080.64 539.436C1081.05 538.791 1081.41 538.139 1081.74 537.48C1082.07 536.822 1082.33 536.12 1082.54 535.375C1082.74 534.63 1082.84 533.807 1082.84 532.904V529.016H1087.43ZM1124.04 529.875V534H1103.07V530.455L1113.26 519.348C1114.38 518.087 1115.26 516.999 1115.9 516.082C1116.54 515.165 1117 514.342 1117.25 513.611C1117.53 512.867 1117.66 512.143 1117.66 511.441C1117.66 510.453 1117.48 509.587 1117.1 508.842C1116.75 508.083 1116.22 507.488 1115.51 507.059C1114.81 506.615 1113.96 506.393 1112.96 506.393C1111.8 506.393 1110.82 506.643 1110.04 507.145C1109.25 507.646 1108.65 508.34 1108.25 509.229C1107.85 510.102 1107.65 511.105 1107.65 512.236H1102.47C1102.47 510.417 1102.89 508.756 1103.72 507.252C1104.55 505.734 1105.75 504.531 1107.33 503.643C1108.9 502.74 1110.8 502.289 1113.02 502.289C1115.11 502.289 1116.89 502.64 1118.35 503.342C1119.81 504.044 1120.92 505.039 1121.68 506.328C1122.45 507.617 1122.84 509.143 1122.84 510.904C1122.84 511.878 1122.68 512.845 1122.37 513.805C1122.05 514.764 1121.6 515.724 1121.01 516.684C1120.44 517.629 1119.76 518.581 1118.97 519.541C1118.18 520.486 1117.32 521.446 1116.37 522.42L1109.61 529.875H1124.04ZM1148.47 515.738V520.852C1148.47 523.301 1148.23 525.392 1147.74 527.125C1147.27 528.844 1146.58 530.24 1145.68 531.314C1144.78 532.389 1143.69 533.176 1142.43 533.678C1141.19 534.179 1139.79 534.43 1138.24 534.43C1137.01 534.43 1135.87 534.272 1134.81 533.957C1133.76 533.642 1132.82 533.148 1131.97 532.475C1131.13 531.801 1130.4 530.935 1129.8 529.875C1129.21 528.801 1128.76 527.519 1128.43 526.029C1128.11 524.54 1127.95 522.814 1127.95 520.852V515.738C1127.95 513.275 1128.2 511.198 1128.68 509.508C1129.17 507.803 1129.87 506.421 1130.77 505.361C1131.67 504.287 1132.74 503.507 1133.99 503.02C1135.25 502.533 1136.65 502.289 1138.2 502.289C1139.45 502.289 1140.59 502.447 1141.64 502.762C1142.7 503.062 1143.64 503.542 1144.47 504.201C1145.32 504.86 1146.04 505.719 1146.62 506.779C1147.22 507.825 1147.68 509.092 1148 510.582C1148.31 512.057 1148.47 513.776 1148.47 515.738ZM1143.29 521.582V514.965C1143.29 513.719 1143.22 512.623 1143.08 511.678C1142.93 510.718 1142.72 509.909 1142.43 509.25C1142.16 508.577 1141.82 508.033 1141.4 507.617C1140.99 507.188 1140.51 506.88 1139.98 506.693C1139.45 506.493 1138.86 506.393 1138.2 506.393C1137.4 506.393 1136.68 506.55 1136.05 506.865C1135.42 507.166 1134.89 507.653 1134.46 508.326C1134.03 508.999 1133.7 509.887 1133.47 510.99C1133.26 512.079 1133.15 513.404 1133.15 514.965V521.582C1133.15 522.842 1133.22 523.952 1133.37 524.912C1133.51 525.872 1133.73 526.695 1134.01 527.383C1134.3 528.056 1134.64 528.615 1135.04 529.059C1135.46 529.488 1135.93 529.803 1136.46 530.004C1137.01 530.204 1137.6 530.305 1138.24 530.305C1139.06 530.305 1139.78 530.147 1140.41 529.832C1141.04 529.517 1141.57 529.016 1142 528.328C1142.43 527.626 1142.76 526.717 1142.97 525.6C1143.19 524.482 1143.29 523.143 1143.29 521.582ZM1167.23 502.611V534H1162.05V508.756L1154.38 511.355V507.08L1166.6 502.611H1167.23ZM1198.87 502.719V505.555L1186.37 534H1180.91L1193.39 506.844H1177.2V502.719H1198.87Z" fill="#30486E"/>
<circle cx="1085.5" cy="368.5" r="60" stroke="#1C4670"/>
<path d="M1067.22 399.594C1061.71 399.594 1057.44 398.048 1054.42 394.955C1051.43 391.863 1049.93 387.41 1049.93 381.596V352.131C1049.93 345.995 1051.35 341.295 1054.2 338.029C1057.07 334.739 1061.41 333.094 1067.22 333.094C1073.06 333.094 1077.4 334.739 1080.25 338.029C1083.09 341.295 1084.52 345.995 1084.52 352.131V381.596C1084.52 387.41 1083.02 391.863 1080.03 394.955C1077.03 398.048 1072.76 399.594 1067.22 399.594ZM1067.22 387.57C1068.24 387.57 1069.03 387.113 1069.6 386.197C1070.17 385.282 1070.45 384.255 1070.45 383.117V350.869C1070.45 349.335 1070.28 347.999 1069.93 346.861C1069.61 345.699 1068.71 345.117 1067.22 345.117C1065.74 345.117 1064.82 345.699 1064.48 346.861C1064.15 347.999 1063.99 349.335 1063.99 350.869V383.117C1063.99 384.255 1064.28 385.282 1064.85 386.197C1065.44 387.113 1066.23 387.57 1067.22 387.57ZM1088.3 399V395.883C1088.3 392.642 1088.8 389.735 1089.79 387.162C1090.8 384.564 1092.1 382.165 1093.68 379.963C1095.26 377.736 1096.93 375.559 1098.69 373.432C1100.4 371.354 1102.02 369.226 1103.55 367.049C1105.11 364.847 1106.37 362.472 1107.34 359.924C1108.33 357.351 1108.82 354.469 1108.82 351.277C1108.82 349.743 1108.59 348.432 1108.12 347.344C1107.67 346.23 1106.73 345.674 1105.3 345.674C1103.12 345.674 1102.03 347.616 1102.03 351.5V359.479H1088.3C1088.28 358.91 1088.24 358.266 1088.19 357.549C1088.16 356.831 1088.15 356.139 1088.15 355.471C1088.15 350.77 1088.65 346.787 1089.64 343.521C1090.63 340.231 1092.37 337.732 1094.87 336.025C1097.39 334.294 1100.93 333.428 1105.48 333.428C1110.9 333.428 1115.11 334.949 1118.1 337.992C1121.12 341.035 1122.63 345.377 1122.63 351.018C1122.63 354.852 1122.13 358.217 1121.14 361.111C1120.15 363.981 1118.84 366.604 1117.21 368.979C1115.58 371.329 1113.78 373.679 1111.83 376.029C1110.44 377.687 1109.09 379.382 1107.78 381.113C1106.5 382.845 1105.36 384.701 1104.37 386.68H1122.18V399H1088.3Z" fill="#1C4670"/>
<circle cx="566.46" cy="407.561" r="3.14175" transform="rotate(180 566.46 407.561)" fill="#FFA229"/>
<circle cx="749.788" cy="407.561" r="3.14175" transform="rotate(180 749.788 407.561)" fill="#FFA229"/>
<circle cx="716.155" cy="466.702" r="3.14175" transform="rotate(180 716.155 466.702)" fill="#1C4670"/>
<circle cx="658.124" cy="407.561" r="3.14175" transform="rotate(180 658.124 407.561)" fill="#FFA229"/>
<circle cx="624.491" cy="466.702" r="3.14175" transform="rotate(180 624.491 466.702)" fill="#1C4670"/>
<circle cx="807.819" cy="466.702" r="3.14175" transform="rotate(180 807.819 466.702)" fill="#1C4670"/>
<circle cx="612.288" cy="407.561" r="3.14175" transform="rotate(180 612.288 407.561)" fill="#FFA229"/>
<circle cx="761.983" cy="466.702" r="3.14175" transform="rotate(180 761.983 466.702)" fill="#1C4670"/>
<circle cx="703.96" cy="407.561" r="3.14175" transform="rotate(180 703.96 407.561)" fill="#FFA229"/>
<circle cx="670.319" cy="466.702" r="3.14175" transform="rotate(180 670.319 466.702)" fill="#1C4670"/>
<circle cx="589.374" cy="407.561" r="3.14175" transform="rotate(180 589.374 407.561)" fill="#FFA229"/>
<circle cx="739.069" cy="466.702" r="3.14175" transform="rotate(180 739.069 466.702)" fill="#1C4670"/>
<circle cx="681.038" cy="407.561" r="3.14175" transform="rotate(180 681.038 407.561)" fill="#FFA229"/>
<circle cx="647.405" cy="466.702" r="3.14175" transform="rotate(180 647.405 466.702)" fill="#1C4670"/>
<circle cx="635.21" cy="407.561" r="3.14175" transform="rotate(180 635.21 407.561)" fill="#FFA229"/>
<circle cx="784.905" cy="466.702" r="3.14175" transform="rotate(180 784.905 466.702)" fill="#1C4670"/>
<circle cx="726.874" cy="407.561" r="3.14175" transform="rotate(180 726.874 407.561)" fill="#FFA229"/>
<circle cx="693.233" cy="466.702" r="3.14175" transform="rotate(180 693.233 466.702)" fill="#1C4670"/>
<circle cx="577.913" cy="407.561" r="3.14175" transform="rotate(180 577.913 407.561)" fill="#FFA229"/>
<circle cx="761.249" cy="407.561" r="3.14175" transform="rotate(180 761.249 407.561)" fill="#FFA229"/>
<circle cx="783.796" cy="407.562" r="20.8834" transform="rotate(180 783.796 407.562)" fill="#FFA229"/>
<circle cx="601.57" cy="466.328" r="20.8834" transform="rotate(180 601.57 466.328)" fill="#1C4670"/>
<circle cx="727.608" cy="466.702" r="3.14175" transform="rotate(180 727.608 466.702)" fill="#1C4670"/>
<circle cx="669.585" cy="407.561" r="3.14175" transform="rotate(180 669.585 407.561)" fill="#FFA229"/>
<circle cx="635.944" cy="466.702" r="3.14175" transform="rotate(180 635.944 466.702)" fill="#1C4670"/>
<circle cx="819.28" cy="466.702" r="3.14175" transform="rotate(180 819.28 466.702)" fill="#1C4670"/>
<circle cx="623.749" cy="407.561" r="3.14175" transform="rotate(180 623.749 407.561)" fill="#FFA229"/>
<circle cx="773.444" cy="466.702" r="3.14175" transform="rotate(180 773.444 466.702)" fill="#1C4670"/>
<circle cx="715.413" cy="407.561" r="3.14175" transform="rotate(180 715.413 407.561)" fill="#FFA229"/>
<circle cx="681.78" cy="466.702" r="3.14175" transform="rotate(180 681.78 466.702)" fill="#1C4670"/>
<circle cx="600.835" cy="407.561" r="3.14175" transform="rotate(180 600.835 407.561)" fill="#FFA229"/>
<circle cx="750.53" cy="466.702" r="3.14175" transform="rotate(180 750.53 466.702)" fill="#1C4670"/>
<circle cx="692.499" cy="407.561" r="3.14175" transform="rotate(180 692.499 407.561)" fill="#FFA229"/>
<circle cx="658.866" cy="466.702" r="3.14175" transform="rotate(180 658.866 466.702)" fill="#1C4670"/>
<circle cx="646.663" cy="407.561" r="3.14175" transform="rotate(180 646.663 407.561)" fill="#FFA229"/>
<circle cx="796.358" cy="466.702" r="3.14175" transform="rotate(180 796.358 466.702)" fill="#1C4670"/>
<circle cx="738.327" cy="407.561" r="3.14175" transform="rotate(180 738.327 407.561)" fill="#FFA229"/>
<circle cx="704.694" cy="466.702" r="3.14175" transform="rotate(180 704.694 466.702)" fill="#1C4670"/>
<path d="M282.932 86.4365L271.989 119H264.316L278.66 80.6094H283.564L282.932 86.4365ZM292.081 119L281.086 86.4365L280.427 80.6094H285.357L299.78 119H292.081ZM291.58 104.735V110.457H270.987V104.735H291.58ZM309.483 95.9551V129.969H302.496V90.4707H308.956L309.483 95.9551ZM327.809 104.445V104.999C327.809 107.073 327.562 108.998 327.07 110.773C326.596 112.531 325.893 114.069 324.961 115.388C324.029 116.688 322.869 117.708 321.48 118.446C320.109 119.167 318.527 119.527 316.734 119.527C314.977 119.527 313.447 119.193 312.146 118.525C310.846 117.84 309.747 116.873 308.851 115.625C307.954 114.377 307.233 112.927 306.688 111.274C306.161 109.604 305.766 107.785 305.502 105.816V104.05C305.766 101.958 306.161 100.06 306.688 98.3545C307.233 96.6318 307.954 95.1465 308.851 93.8984C309.747 92.6328 310.837 91.6572 312.12 90.9717C313.421 90.2861 314.941 89.9434 316.682 89.9434C318.492 89.9434 320.083 90.2861 321.454 90.9717C322.843 91.6572 324.012 92.6416 324.961 93.9248C325.91 95.208 326.622 96.7373 327.097 98.5127C327.571 100.288 327.809 102.266 327.809 104.445ZM320.821 104.999V104.445C320.821 103.18 320.707 102.011 320.479 100.938C320.25 99.8486 319.898 98.8994 319.424 98.0908C318.949 97.2646 318.334 96.623 317.578 96.166C316.822 95.709 315.908 95.4805 314.836 95.4805C313.764 95.4805 312.841 95.6562 312.067 96.0078C311.294 96.3594 310.661 96.8604 310.169 97.5107C309.677 98.1611 309.29 98.9346 309.009 99.8311C308.745 100.71 308.569 101.686 308.481 102.758V107.135C308.64 108.436 308.947 109.604 309.404 110.642C309.861 111.679 310.529 112.505 311.408 113.12C312.305 113.735 313.465 114.043 314.889 114.043C315.961 114.043 316.875 113.806 317.631 113.331C318.387 112.856 319.002 112.206 319.477 111.38C319.951 110.536 320.294 109.569 320.505 108.479C320.716 107.39 320.821 106.229 320.821 104.999ZM339.858 95.9551V129.969H332.871V90.4707H339.331L339.858 95.9551ZM358.184 104.445V104.999C358.184 107.073 357.938 108.998 357.445 110.773C356.971 112.531 356.268 114.069 355.336 115.388C354.404 116.688 353.244 117.708 351.855 118.446C350.484 119.167 348.902 119.527 347.109 119.527C345.352 119.527 343.822 119.193 342.521 118.525C341.221 117.84 340.122 116.873 339.226 115.625C338.329 114.377 337.608 112.927 337.063 111.274C336.536 109.604 336.141 107.785 335.877 105.816V104.05C336.141 101.958 336.536 100.06 337.063 98.3545C337.608 96.6318 338.329 95.1465 339.226 93.8984C340.122 92.6328 341.212 91.6572 342.495 90.9717C343.796 90.2861 345.316 89.9434 347.057 89.9434C348.867 89.9434 350.458 90.2861 351.829 90.9717C353.218 91.6572 354.387 92.6416 355.336 93.9248C356.285 95.208 356.997 96.7373 357.472 98.5127C357.946 100.288 358.184 102.266 358.184 104.445ZM351.196 104.999V104.445C351.196 103.18 351.082 102.011 350.854 100.938C350.625 99.8486 350.273 98.8994 349.799 98.0908C349.324 97.2646 348.709 96.623 347.953 96.166C347.197 95.709 346.283 95.4805 345.211 95.4805C344.139 95.4805 343.216 95.6562 342.442 96.0078C341.669 96.3594 341.036 96.8604 340.544 97.5107C340.052 98.1611 339.665 98.9346 339.384 99.8311C339.12 100.71 338.944 101.686 338.856 102.758V107.135C339.015 108.436 339.322 109.604 339.779 110.642C340.236 111.679 340.904 112.505 341.783 113.12C342.68 113.735 343.84 114.043 345.264 114.043C346.336 114.043 347.25 113.806 348.006 113.331C348.762 112.856 349.377 112.206 349.852 111.38C350.326 110.536 350.669 109.569 350.88 108.479C351.091 107.39 351.196 106.229 351.196 104.999ZM370.655 78.5V119H363.668V78.5H370.655ZM384.683 90.4707V119H377.695V90.4707H384.683ZM377.221 83.0088C377.221 81.9717 377.572 81.1104 378.275 80.4248C378.996 79.7393 379.963 79.3965 381.176 79.3965C382.389 79.3965 383.347 79.7393 384.05 80.4248C384.771 81.1104 385.131 81.9717 385.131 83.0088C385.131 84.0283 384.771 84.8809 384.05 85.5664C383.347 86.252 382.389 86.5947 381.176 86.5947C379.963 86.5947 378.996 86.252 378.275 85.5664C377.572 84.8809 377.221 84.0283 377.221 83.0088ZM403.034 114.043C404.019 114.043 404.897 113.85 405.671 113.463C406.444 113.076 407.06 112.531 407.517 111.828C407.991 111.125 408.246 110.308 408.281 109.376H414.847C414.812 111.31 414.267 113.041 413.212 114.57C412.157 116.1 410.751 117.312 408.993 118.209C407.253 119.088 405.302 119.527 403.14 119.527C400.942 119.527 399.026 119.158 397.392 118.42C395.757 117.682 394.395 116.653 393.305 115.335C392.232 114.017 391.424 112.487 390.879 110.747C390.352 109.007 390.088 107.144 390.088 105.157V104.313C390.088 102.327 390.352 100.464 390.879 98.7236C391.424 96.9834 392.232 95.4541 393.305 94.1357C394.395 92.8174 395.757 91.7891 397.392 91.0508C399.026 90.3125 400.934 89.9434 403.113 89.9434C405.416 89.9434 407.438 90.3916 409.178 91.2881C410.936 92.1846 412.307 93.4502 413.291 95.085C414.293 96.7197 414.812 98.6445 414.847 100.859H408.281C408.246 99.8398 408.018 98.9258 407.596 98.1172C407.174 97.3086 406.576 96.6582 405.803 96.166C405.029 95.6738 404.089 95.4277 402.981 95.4277C401.804 95.4277 400.819 95.6738 400.028 96.166C399.255 96.6582 398.648 97.335 398.209 98.1963C397.787 99.04 397.488 99.9893 397.312 101.044C397.154 102.081 397.075 103.171 397.075 104.313V105.157C397.075 106.317 397.154 107.425 397.312 108.479C397.488 109.534 397.787 110.483 398.209 111.327C398.648 112.153 399.255 112.812 400.028 113.305C400.819 113.797 401.821 114.043 403.034 114.043ZM435.202 112.936V99.7783C435.202 98.8115 435.035 97.9766 434.701 97.2734C434.367 96.5703 433.857 96.0254 433.172 95.6387C432.486 95.252 431.616 95.0586 430.562 95.0586C429.63 95.0586 428.812 95.2168 428.109 95.5332C427.424 95.8496 426.896 96.2979 426.527 96.8779C426.158 97.4404 425.974 98.0908 425.974 98.8291H418.986C418.986 97.6514 419.268 96.5352 419.83 95.4805C420.393 94.4082 421.192 93.459 422.229 92.6328C423.284 91.7891 424.541 91.1299 426 90.6553C427.477 90.1807 429.129 89.9434 430.957 89.9434C433.119 89.9434 435.044 90.3125 436.731 91.0508C438.437 91.7715 439.772 92.8613 440.739 94.3203C441.724 95.7793 442.216 97.6162 442.216 99.8311V112.276C442.216 113.7 442.304 114.922 442.479 115.941C442.673 116.943 442.954 117.813 443.323 118.552V119H436.23C435.896 118.279 435.642 117.365 435.466 116.258C435.29 115.133 435.202 114.025 435.202 112.936ZM436.178 101.624L436.23 105.764H431.827C430.737 105.764 429.779 105.878 428.953 106.106C428.127 106.317 427.45 106.634 426.923 107.056C426.396 107.46 426 107.952 425.736 108.532C425.473 109.095 425.341 109.736 425.341 110.457C425.341 111.16 425.499 111.793 425.815 112.355C426.149 112.918 426.624 113.366 427.239 113.7C427.872 114.017 428.61 114.175 429.454 114.175C430.685 114.175 431.757 113.929 432.671 113.437C433.585 112.927 434.297 112.312 434.807 111.591C435.316 110.87 435.589 110.185 435.624 109.534L437.628 112.54C437.382 113.261 437.013 114.025 436.521 114.834C436.028 115.643 435.396 116.398 434.622 117.102C433.849 117.805 432.917 118.385 431.827 118.842C430.737 119.299 429.472 119.527 428.03 119.527C426.185 119.527 424.532 119.158 423.073 118.42C421.614 117.682 420.463 116.671 419.619 115.388C418.775 114.104 418.354 112.646 418.354 111.011C418.354 109.499 418.635 108.163 419.197 107.003C419.76 105.843 420.595 104.867 421.702 104.076C422.81 103.268 424.181 102.661 425.815 102.257C427.468 101.835 429.357 101.624 431.484 101.624H436.178ZM448.465 78.5H455.452V112.698L454.767 119H448.465V78.5ZM473.804 104.445V104.999C473.804 107.126 473.566 109.077 473.092 110.853C472.635 112.628 471.94 114.166 471.009 115.467C470.077 116.75 468.917 117.752 467.528 118.473C466.157 119.176 464.549 119.527 462.703 119.527C460.945 119.527 459.416 119.185 458.115 118.499C456.832 117.813 455.751 116.847 454.872 115.599C453.993 114.333 453.29 112.848 452.763 111.143C452.235 109.42 451.84 107.539 451.576 105.5V103.997C451.84 101.94 452.235 100.06 452.763 98.3545C453.29 96.6494 453.993 95.1641 454.872 93.8984C455.751 92.6328 456.832 91.6572 458.115 90.9717C459.398 90.2861 460.91 89.9434 462.65 89.9434C464.514 89.9434 466.14 90.3037 467.528 91.0244C468.935 91.7275 470.095 92.7295 471.009 94.0303C471.94 95.3135 472.635 96.8428 473.092 98.6182C473.566 100.376 473.804 102.318 473.804 104.445ZM466.816 104.999V104.445C466.816 103.232 466.72 102.09 466.526 101.018C466.333 99.9277 466.017 98.9697 465.577 98.1436C465.138 97.3174 464.54 96.667 463.784 96.1924C463.028 95.7178 462.079 95.4805 460.937 95.4805C459.847 95.4805 458.915 95.665 458.142 96.0342C457.386 96.4033 456.753 96.9131 456.243 97.5635C455.751 98.2139 455.364 98.9785 455.083 99.8574C454.819 100.736 454.644 101.686 454.556 102.705V106.818C454.679 108.172 454.969 109.394 455.426 110.483C455.883 111.556 456.56 112.408 457.456 113.041C458.37 113.674 459.548 113.99 460.989 113.99C462.114 113.99 463.055 113.771 463.811 113.331C464.566 112.874 465.164 112.241 465.604 111.433C466.043 110.606 466.351 109.648 466.526 108.559C466.72 107.469 466.816 106.282 466.816 104.999ZM486.249 78.5V119H479.262V78.5H486.249ZM505.708 119.527C503.546 119.527 501.604 119.176 499.881 118.473C498.158 117.77 496.69 116.794 495.478 115.546C494.282 114.28 493.359 112.812 492.709 111.143C492.076 109.455 491.76 107.645 491.76 105.711V104.656C491.76 102.459 492.076 100.464 492.709 98.6709C493.342 96.8604 494.238 95.3047 495.398 94.0039C496.559 92.7031 497.947 91.7012 499.564 90.998C501.182 90.2949 502.966 89.9434 504.917 89.9434C506.938 89.9434 508.723 90.2861 510.27 90.9717C511.816 91.6396 513.108 92.5889 514.146 93.8193C515.183 95.0498 515.965 96.5264 516.492 98.249C517.02 99.9541 517.283 101.844 517.283 103.918V106.845H494.924V102.046H510.428V101.519C510.393 100.411 510.182 99.4004 509.795 98.4863C509.408 97.5547 508.811 96.8164 508.002 96.2715C507.193 95.709 506.147 95.4277 504.864 95.4277C503.827 95.4277 502.922 95.6562 502.148 96.1133C501.393 96.5527 500.76 97.1855 500.25 98.0117C499.758 98.8203 499.389 99.7871 499.143 100.912C498.896 102.037 498.773 103.285 498.773 104.656V105.711C498.773 106.906 498.932 108.014 499.248 109.033C499.582 110.053 500.065 110.94 500.698 111.696C501.349 112.435 502.122 113.015 503.019 113.437C503.933 113.841 504.97 114.043 506.13 114.043C507.589 114.043 508.907 113.762 510.085 113.199C511.28 112.619 512.317 111.767 513.196 110.642L516.703 114.28C516.105 115.159 515.297 116.003 514.277 116.812C513.275 117.62 512.062 118.279 510.639 118.789C509.215 119.281 507.571 119.527 505.708 119.527ZM535.925 80.6094H549.873C552.791 80.6094 555.296 81.0488 557.388 81.9277C559.479 82.8066 561.088 84.1074 562.213 85.8301C563.338 87.5527 563.9 89.6709 563.9 92.1846C563.9 94.1709 563.549 95.8936 562.846 97.3525C562.143 98.8115 561.149 100.033 559.866 101.018C558.601 102.002 557.106 102.775 555.384 103.338L553.116 104.498H540.803L540.75 98.7764H549.952C551.446 98.7764 552.686 98.5127 553.67 97.9854C554.654 97.458 555.393 96.7285 555.885 95.7969C556.395 94.8652 556.649 93.8018 556.649 92.6064C556.649 91.3232 556.403 90.2158 555.911 89.2842C555.419 88.335 554.672 87.6055 553.67 87.0957C552.668 86.5859 551.402 86.3311 549.873 86.3311H543.176V119H535.925V80.6094ZM557.599 119L548.713 101.809L556.386 101.782L565.377 118.631V119H557.599ZM586.708 112.224V90.4707H593.722V119H587.13L586.708 112.224ZM587.604 106.317L589.767 106.265C589.767 108.181 589.556 109.947 589.134 111.564C588.712 113.182 588.053 114.588 587.156 115.783C586.277 116.961 585.161 117.884 583.808 118.552C582.454 119.202 580.854 119.527 579.009 119.527C577.603 119.527 576.319 119.334 575.159 118.947C573.999 118.543 572.997 117.919 572.153 117.075C571.327 116.214 570.686 115.115 570.229 113.779C569.771 112.426 569.543 110.8 569.543 108.901V90.4707H576.504V108.954C576.504 109.903 576.609 110.694 576.82 111.327C577.049 111.96 577.356 112.479 577.743 112.883C578.147 113.27 578.613 113.551 579.141 113.727C579.686 113.885 580.266 113.964 580.881 113.964C582.568 113.964 583.896 113.63 584.862 112.962C585.847 112.276 586.55 111.362 586.972 110.22C587.394 109.06 587.604 107.759 587.604 106.317ZM607.274 78.5V119H600.287V78.5H607.274ZM626.733 119.527C624.571 119.527 622.629 119.176 620.906 118.473C619.184 117.77 617.716 116.794 616.503 115.546C615.308 114.28 614.385 112.812 613.734 111.143C613.102 109.455 612.785 107.645 612.785 105.711V104.656C612.785 102.459 613.102 100.464 613.734 98.6709C614.367 96.8604 615.264 95.3047 616.424 94.0039C617.584 92.7031 618.973 91.7012 620.59 90.998C622.207 90.2949 623.991 89.9434 625.942 89.9434C627.964 89.9434 629.748 90.2861 631.295 90.9717C632.842 91.6396 634.134 92.5889 635.171 93.8193C636.208 95.0498 636.99 96.5264 637.518 98.249C638.045 99.9541 638.309 101.844 638.309 103.918V106.845H615.949V102.046H631.453V101.519C631.418 100.411 631.207 99.4004 630.82 98.4863C630.434 97.5547 629.836 96.8164 629.027 96.2715C628.219 95.709 627.173 95.4277 625.89 95.4277C624.853 95.4277 623.947 95.6562 623.174 96.1133C622.418 96.5527 621.785 97.1855 621.275 98.0117C620.783 98.8203 620.414 99.7871 620.168 100.912C619.922 102.037 619.799 103.285 619.799 104.656V105.711C619.799 106.906 619.957 108.014 620.273 109.033C620.607 110.053 621.091 110.94 621.724 111.696C622.374 112.435 623.147 113.015 624.044 113.437C624.958 113.841 625.995 114.043 627.155 114.043C628.614 114.043 629.933 113.762 631.11 113.199C632.306 112.619 633.343 111.767 634.222 110.642L637.729 114.28C637.131 115.159 636.322 116.003 635.303 116.812C634.301 117.62 633.088 118.279 631.664 118.789C630.24 119.281 628.597 119.527 626.733 119.527ZM658.664 111.195C658.664 110.598 658.506 110.062 658.189 109.587C657.873 109.112 657.275 108.682 656.396 108.295C655.535 107.891 654.27 107.513 652.6 107.161C651.123 106.845 649.761 106.449 648.513 105.975C647.265 105.5 646.192 104.929 645.296 104.261C644.399 103.575 643.696 102.775 643.187 101.861C642.694 100.93 642.448 99.8574 642.448 98.6445C642.448 97.4668 642.703 96.3594 643.213 95.3223C643.723 94.2676 644.461 93.3447 645.428 92.5537C646.395 91.7451 647.572 91.1123 648.961 90.6553C650.35 90.1807 651.914 89.9434 653.654 89.9434C656.08 89.9434 658.163 90.3389 659.903 91.1299C661.661 91.9209 663.006 93.0107 663.938 94.3994C664.869 95.7705 665.335 97.3174 665.335 99.04H658.374C658.374 98.2842 658.198 97.5986 657.847 96.9834C657.513 96.3682 656.994 95.876 656.291 95.5068C655.588 95.1201 654.7 94.9268 653.628 94.9268C652.661 94.9268 651.844 95.085 651.176 95.4014C650.525 95.7178 650.033 96.1309 649.699 96.6406C649.365 97.1504 649.198 97.7129 649.198 98.3281C649.198 98.7852 649.286 99.1982 649.462 99.5674C649.655 99.9189 649.963 100.244 650.385 100.543C650.807 100.842 651.378 101.114 652.099 101.36C652.837 101.606 653.742 101.844 654.814 102.072C656.941 102.494 658.796 103.057 660.378 103.76C661.978 104.445 663.226 105.359 664.122 106.502C665.019 107.645 665.467 109.104 665.467 110.879C665.467 112.145 665.194 113.305 664.649 114.359C664.104 115.396 663.313 116.302 662.276 117.075C661.239 117.849 660 118.455 658.559 118.895C657.117 119.316 655.491 119.527 653.681 119.527C651.062 119.527 648.847 119.062 647.036 118.13C645.226 117.181 643.854 115.985 642.923 114.544C641.991 113.085 641.525 111.573 641.525 110.009H648.196C648.249 111.116 648.548 112.004 649.093 112.672C649.638 113.34 650.323 113.823 651.149 114.122C651.993 114.403 652.881 114.544 653.812 114.544C654.867 114.544 655.755 114.403 656.476 114.122C657.196 113.823 657.741 113.428 658.11 112.936C658.479 112.426 658.664 111.846 658.664 111.195ZM687.272 80.6094L672.771 122.296H667.471L681.973 80.6094H687.272ZM707.127 86.4365L696.185 119H688.512L702.855 80.6094H707.76L707.127 86.4365ZM716.276 119L705.281 86.4365L704.622 80.6094H709.553L723.976 119H716.276ZM715.775 104.735V110.457H695.183V104.735H715.775ZM739.11 114.043C740.095 114.043 740.974 113.85 741.747 113.463C742.521 113.076 743.136 112.531 743.593 111.828C744.067 111.125 744.322 110.308 744.357 109.376H750.923C750.888 111.31 750.343 113.041 749.288 114.57C748.233 116.1 746.827 117.312 745.069 118.209C743.329 119.088 741.378 119.527 739.216 119.527C737.019 119.527 735.103 119.158 733.468 118.42C731.833 117.682 730.471 116.653 729.381 115.335C728.309 114.017 727.5 112.487 726.955 110.747C726.428 109.007 726.164 107.144 726.164 105.157V104.313C726.164 102.327 726.428 100.464 726.955 98.7236C727.5 96.9834 728.309 95.4541 729.381 94.1357C730.471 92.8174 731.833 91.7891 733.468 91.0508C735.103 90.3125 737.01 89.9434 739.189 89.9434C741.492 89.9434 743.514 90.3916 745.254 91.2881C747.012 92.1846 748.383 93.4502 749.367 95.085C750.369 96.7197 750.888 98.6445 750.923 100.859H744.357C744.322 99.8398 744.094 98.9258 743.672 98.1172C743.25 97.3086 742.652 96.6582 741.879 96.166C741.105 95.6738 740.165 95.4277 739.058 95.4277C737.88 95.4277 736.896 95.6738 736.104 96.166C735.331 96.6582 734.725 97.335 734.285 98.1963C733.863 99.04 733.564 99.9893 733.389 101.044C733.23 102.081 733.151 103.171 733.151 104.313V105.157C733.151 106.317 733.23 107.425 733.389 108.479C733.564 109.534 733.863 110.483 734.285 111.327C734.725 112.153 735.331 112.812 736.104 113.305C736.896 113.797 737.897 114.043 739.11 114.043ZM769.063 90.4707V95.4805H752.716V90.4707H769.063ZM757.093 83.457H764.08V110.773C764.08 111.617 764.194 112.268 764.423 112.725C764.651 113.182 764.994 113.489 765.451 113.647C765.908 113.806 766.453 113.885 767.086 113.885C767.543 113.885 767.965 113.858 768.352 113.806C768.738 113.753 769.063 113.7 769.327 113.647L769.354 118.868C768.773 119.062 768.114 119.22 767.376 119.343C766.655 119.466 765.838 119.527 764.924 119.527C763.359 119.527 761.988 119.264 760.811 118.736C759.633 118.191 758.719 117.321 758.068 116.126C757.418 114.913 757.093 113.313 757.093 111.327V83.457ZM789.393 111.195C789.393 110.598 789.234 110.062 788.918 109.587C788.602 109.112 788.004 108.682 787.125 108.295C786.264 107.891 784.998 107.513 783.328 107.161C781.852 106.845 780.489 106.449 779.241 105.975C777.993 105.5 776.921 104.929 776.024 104.261C775.128 103.575 774.425 102.775 773.915 101.861C773.423 100.93 773.177 99.8574 773.177 98.6445C773.177 97.4668 773.432 96.3594 773.941 95.3223C774.451 94.2676 775.189 93.3447 776.156 92.5537C777.123 91.7451 778.301 91.1123 779.689 90.6553C781.078 90.1807 782.643 89.9434 784.383 89.9434C786.809 89.9434 788.892 90.3389 790.632 91.1299C792.39 91.9209 793.734 93.0107 794.666 94.3994C795.598 95.7705 796.063 97.3174 796.063 99.04H789.103C789.103 98.2842 788.927 97.5986 788.575 96.9834C788.241 96.3682 787.723 95.876 787.02 95.5068C786.316 95.1201 785.429 94.9268 784.356 94.9268C783.39 94.9268 782.572 95.085 781.904 95.4014C781.254 95.7178 780.762 96.1309 780.428 96.6406C780.094 97.1504 779.927 97.7129 779.927 98.3281C779.927 98.7852 780.015 99.1982 780.19 99.5674C780.384 99.9189 780.691 100.244 781.113 100.543C781.535 100.842 782.106 101.114 782.827 101.36C783.565 101.606 784.471 101.844 785.543 102.072C787.67 102.494 789.524 103.057 791.106 103.76C792.706 104.445 793.954 105.359 794.851 106.502C795.747 107.645 796.195 109.104 796.195 110.879C796.195 112.145 795.923 113.305 795.378 114.359C794.833 115.396 794.042 116.302 793.005 117.075C791.968 117.849 790.729 118.455 789.287 118.895C787.846 119.316 786.22 119.527 784.409 119.527C781.79 119.527 779.575 119.062 777.765 118.13C775.954 117.181 774.583 115.985 773.651 114.544C772.72 113.085 772.254 111.573 772.254 110.009H778.925C778.978 111.116 779.276 112.004 779.821 112.672C780.366 113.34 781.052 113.823 781.878 114.122C782.722 114.403 783.609 114.544 784.541 114.544C785.596 114.544 786.483 114.403 787.204 114.122C787.925 113.823 788.47 113.428 788.839 112.936C789.208 112.426 789.393 111.846 789.393 111.195ZM818.001 80.6094L803.499 122.296H798.199L812.701 80.6094H818.001Z" fill="#1C4670"/>
<path d="M836.036 80.6094H849.984C852.902 80.6094 855.407 81.0488 857.499 81.9277C859.591 82.8066 861.199 84.1074 862.324 85.8301C863.449 87.5527 864.012 89.6709 864.012 92.1846C864.012 94.1709 863.66 95.8936 862.957 97.3525C862.254 98.8115 861.261 100.033 859.978 101.018C858.712 102.002 857.218 102.775 855.495 103.338L853.228 104.498H840.914L840.861 98.7764H850.063C851.558 98.7764 852.797 98.5127 853.781 97.9854C854.766 97.458 855.504 96.7285 855.996 95.7969C856.506 94.8652 856.761 93.8018 856.761 92.6064C856.761 91.3232 856.515 90.2158 856.022 89.2842C855.53 88.335 854.783 87.6055 853.781 87.0957C852.779 86.5859 851.514 86.3311 849.984 86.3311H843.287V119H836.036V80.6094ZM857.71 119L848.824 101.809L856.497 101.782L865.488 118.631V119H857.71ZM882.653 119.527C880.491 119.527 878.549 119.176 876.826 118.473C875.104 117.77 873.636 116.794 872.423 115.546C871.228 114.28 870.305 112.812 869.654 111.143C869.021 109.455 868.705 107.645 868.705 105.711V104.656C868.705 102.459 869.021 100.464 869.654 98.6709C870.287 96.8604 871.184 95.3047 872.344 94.0039C873.504 92.7031 874.893 91.7012 876.51 90.998C878.127 90.2949 879.911 89.9434 881.862 89.9434C883.884 89.9434 885.668 90.2861 887.215 90.9717C888.762 91.6396 890.054 92.5889 891.091 93.8193C892.128 95.0498 892.91 96.5264 893.438 98.249C893.965 99.9541 894.229 101.844 894.229 103.918V106.845H871.869V102.046H887.373V101.519C887.338 100.411 887.127 99.4004 886.74 98.4863C886.354 97.5547 885.756 96.8164 884.947 96.2715C884.139 95.709 883.093 95.4277 881.81 95.4277C880.772 95.4277 879.867 95.6562 879.094 96.1133C878.338 96.5527 877.705 97.1855 877.195 98.0117C876.703 98.8203 876.334 99.7871 876.088 100.912C875.842 102.037 875.719 103.285 875.719 104.656V105.711C875.719 106.906 875.877 108.014 876.193 109.033C876.527 110.053 877.011 110.94 877.644 111.696C878.294 112.435 879.067 113.015 879.964 113.437C880.878 113.841 881.915 114.043 883.075 114.043C884.534 114.043 885.853 113.762 887.03 113.199C888.226 112.619 889.263 111.767 890.142 110.642L893.648 114.28C893.051 115.159 892.242 116.003 891.223 116.812C890.221 117.62 889.008 118.279 887.584 118.789C886.16 119.281 884.517 119.527 882.653 119.527ZM917.036 90.4707H923.364V118.13C923.364 120.714 922.802 122.902 921.677 124.695C920.569 126.506 919.014 127.877 917.01 128.809C915.006 129.758 912.677 130.232 910.022 130.232C908.88 130.232 907.641 130.074 906.305 129.758C904.986 129.441 903.712 128.94 902.481 128.255C901.269 127.587 900.258 126.717 899.449 125.645L902.587 121.531C903.536 122.639 904.608 123.474 905.804 124.036C906.999 124.616 908.291 124.906 909.68 124.906C911.086 124.906 912.281 124.643 913.266 124.115C914.268 123.605 915.032 122.85 915.56 121.848C916.104 120.863 916.377 119.65 916.377 118.209V96.9834L917.036 90.4707ZM897.762 105.078V104.524C897.762 102.345 898.025 100.367 898.553 98.5918C899.08 96.7988 899.836 95.2607 900.82 93.9775C901.822 92.6943 903.026 91.7012 904.433 90.998C905.856 90.2949 907.456 89.9434 909.231 89.9434C911.112 89.9434 912.694 90.2861 913.978 90.9717C915.278 91.6572 916.351 92.6328 917.194 93.8984C918.056 95.1641 918.724 96.667 919.198 98.4072C919.69 100.13 920.068 102.028 920.332 104.103V105.605C920.086 107.627 919.69 109.481 919.146 111.169C918.618 112.856 917.915 114.333 917.036 115.599C916.157 116.847 915.067 117.813 913.767 118.499C912.466 119.185 910.937 119.527 909.179 119.527C907.421 119.527 905.839 119.167 904.433 118.446C903.026 117.726 901.822 116.715 900.82 115.414C899.836 114.113 899.08 112.584 898.553 110.826C898.025 109.068 897.762 107.152 897.762 105.078ZM904.723 104.524V105.078C904.723 106.309 904.846 107.46 905.092 108.532C905.338 109.604 905.716 110.554 906.226 111.38C906.735 112.188 907.377 112.821 908.15 113.278C908.924 113.735 909.847 113.964 910.919 113.964C912.36 113.964 913.538 113.665 914.452 113.067C915.384 112.452 916.087 111.617 916.562 110.562C917.054 109.49 917.37 108.286 917.511 106.95V102.811C917.423 101.756 917.229 100.78 916.931 99.8838C916.649 98.9873 916.254 98.2139 915.744 97.5635C915.234 96.9131 914.584 96.4033 913.793 96.0342C913.002 95.665 912.062 95.4805 910.972 95.4805C909.917 95.4805 908.994 95.7178 908.203 96.1924C907.412 96.6494 906.762 97.291 906.252 98.1172C905.742 98.9434 905.355 99.9014 905.092 100.991C904.846 102.081 904.723 103.259 904.723 104.524ZM946.62 112.224V90.4707H953.634V119H947.042L946.62 112.224ZM947.517 106.317L949.679 106.265C949.679 108.181 949.468 109.947 949.046 111.564C948.624 113.182 947.965 114.588 947.068 115.783C946.189 116.961 945.073 117.884 943.72 118.552C942.366 119.202 940.767 119.527 938.921 119.527C937.515 119.527 936.231 119.334 935.071 118.947C933.911 118.543 932.909 117.919 932.065 117.075C931.239 116.214 930.598 115.115 930.141 113.779C929.684 112.426 929.455 110.8 929.455 108.901V90.4707H936.416V108.954C936.416 109.903 936.521 110.694 936.732 111.327C936.961 111.96 937.269 112.479 937.655 112.883C938.06 113.27 938.525 113.551 939.053 113.727C939.598 113.885 940.178 113.964 940.793 113.964C942.48 113.964 943.808 113.63 944.774 112.962C945.759 112.276 946.462 111.362 946.884 110.22C947.306 109.06 947.517 107.759 947.517 106.317ZM967.187 78.5V119H960.199V78.5H967.187ZM989.546 112.936V99.7783C989.546 98.8115 989.379 97.9766 989.045 97.2734C988.711 96.5703 988.201 96.0254 987.516 95.6387C986.83 95.252 985.96 95.0586 984.905 95.0586C983.974 95.0586 983.156 95.2168 982.453 95.5332C981.768 95.8496 981.24 96.2979 980.871 96.8779C980.502 97.4404 980.317 98.0908 980.317 98.8291H973.33C973.33 97.6514 973.611 96.5352 974.174 95.4805C974.736 94.4082 975.536 93.459 976.573 92.6328C977.628 91.7891 978.885 91.1299 980.344 90.6553C981.82 90.1807 983.473 89.9434 985.301 89.9434C987.463 89.9434 989.388 90.3125 991.075 91.0508C992.78 91.7715 994.116 92.8613 995.083 94.3203C996.067 95.7793 996.56 97.6162 996.56 99.8311V112.276C996.56 113.7 996.647 114.922 996.823 115.941C997.017 116.943 997.298 117.813 997.667 118.552V119H990.574C990.24 118.279 989.985 117.365 989.81 116.258C989.634 115.133 989.546 114.025 989.546 112.936ZM990.521 101.624L990.574 105.764H986.171C985.081 105.764 984.123 105.878 983.297 106.106C982.471 106.317 981.794 106.634 981.267 107.056C980.739 107.46 980.344 107.952 980.08 108.532C979.816 109.095 979.685 109.736 979.685 110.457C979.685 111.16 979.843 111.793 980.159 112.355C980.493 112.918 980.968 113.366 981.583 113.7C982.216 114.017 982.954 114.175 983.798 114.175C985.028 114.175 986.101 113.929 987.015 113.437C987.929 112.927 988.641 112.312 989.15 111.591C989.66 110.87 989.933 110.185 989.968 109.534L991.972 112.54C991.726 113.261 991.356 114.025 990.864 114.834C990.372 115.643 989.739 116.398 988.966 117.102C988.192 117.805 987.261 118.385 986.171 118.842C985.081 119.299 983.815 119.527 982.374 119.527C980.528 119.527 978.876 119.158 977.417 118.42C975.958 117.682 974.807 116.671 973.963 115.388C973.119 114.104 972.697 112.646 972.697 111.011C972.697 109.499 972.979 108.163 973.541 107.003C974.104 105.843 974.938 104.867 976.046 104.076C977.153 103.268 978.524 102.661 980.159 102.257C981.812 101.835 983.701 101.624 985.828 101.624H990.521ZM1016.33 90.4707V95.4805H999.987V90.4707H1016.33ZM1004.36 83.457H1011.35V110.773C1011.35 111.617 1011.47 112.268 1011.69 112.725C1011.92 113.182 1012.27 113.489 1012.72 113.647C1013.18 113.806 1013.72 113.885 1014.36 113.885C1014.81 113.885 1015.24 113.858 1015.62 113.806C1016.01 113.753 1016.33 113.7 1016.6 113.647L1016.62 118.868C1016.04 119.062 1015.39 119.22 1014.65 119.343C1013.93 119.466 1013.11 119.527 1012.2 119.527C1010.63 119.527 1009.26 119.264 1008.08 118.736C1006.9 118.191 1005.99 117.321 1005.34 116.126C1004.69 114.913 1004.36 113.313 1004.36 111.327V83.457ZM1028.36 90.4707V119H1021.37V90.4707H1028.36ZM1020.9 83.0088C1020.9 81.9717 1021.25 81.1104 1021.95 80.4248C1022.67 79.7393 1023.64 79.3965 1024.85 79.3965C1026.06 79.3965 1027.02 79.7393 1027.73 80.4248C1028.45 81.1104 1028.81 81.9717 1028.81 83.0088C1028.81 84.0283 1028.45 84.8809 1027.73 85.5664C1027.02 86.252 1026.06 86.5947 1024.85 86.5947C1023.64 86.5947 1022.67 86.252 1021.95 85.5664C1021.25 84.8809 1020.9 84.0283 1020.9 83.0088ZM1033.76 105.025V104.472C1033.76 102.38 1034.06 100.455 1034.66 98.6973C1035.26 96.9219 1036.13 95.3838 1037.27 94.083C1038.41 92.7822 1039.81 91.7715 1041.46 91.0508C1043.12 90.3125 1045 89.9434 1047.11 89.9434C1049.25 89.9434 1051.15 90.3125 1052.8 91.0508C1054.47 91.7715 1055.88 92.7822 1057.02 94.083C1058.16 95.3838 1059.03 96.9219 1059.63 98.6973C1060.23 100.455 1060.53 102.38 1060.53 104.472V105.025C1060.53 107.1 1060.23 109.024 1059.63 110.8C1059.03 112.558 1058.16 114.096 1057.02 115.414C1055.88 116.715 1054.48 117.726 1052.83 118.446C1051.17 119.167 1049.29 119.527 1047.16 119.527C1045.05 119.527 1043.16 119.167 1041.49 118.446C1039.82 117.726 1038.41 116.715 1037.27 115.414C1036.13 114.096 1035.26 112.558 1034.66 110.8C1034.06 109.024 1033.76 107.1 1033.76 105.025ZM1040.72 104.472V105.025C1040.72 106.273 1040.85 107.442 1041.09 108.532C1041.34 109.622 1041.72 110.58 1042.23 111.406C1042.74 112.232 1043.4 112.883 1044.21 113.357C1045.03 113.814 1046.02 114.043 1047.16 114.043C1048.28 114.043 1049.25 113.814 1050.06 113.357C1050.87 112.883 1051.53 112.232 1052.04 111.406C1052.56 110.58 1052.95 109.622 1053.2 108.532C1053.44 107.442 1053.57 106.273 1053.57 105.025V104.472C1053.57 103.241 1053.44 102.09 1053.2 101.018C1052.95 99.9277 1052.56 98.9697 1052.04 98.1436C1051.53 97.2998 1050.86 96.6406 1050.03 96.166C1049.22 95.6738 1048.25 95.4277 1047.11 95.4277C1045.98 95.4277 1045.01 95.6738 1044.21 96.166C1043.4 96.6406 1042.74 97.2998 1042.23 98.1436C1041.72 98.9697 1041.34 99.9277 1041.09 101.018C1040.85 102.09 1040.72 103.241 1040.72 104.472ZM1072.42 96.5615V119H1065.46V90.4707H1072L1072.42 96.5615ZM1071.31 103.707H1069.25C1069.27 101.633 1069.55 99.752 1070.1 98.0645C1070.64 96.377 1071.41 94.9268 1072.39 93.7139C1073.39 92.501 1074.58 91.5693 1075.95 90.9189C1077.32 90.2686 1078.85 89.9434 1080.54 89.9434C1081.91 89.9434 1083.15 90.1367 1084.26 90.5234C1085.36 90.9102 1086.31 91.5254 1087.1 92.3691C1087.91 93.2129 1088.53 94.3203 1088.95 95.6914C1089.39 97.0449 1089.61 98.7148 1089.61 100.701V119H1082.6V100.648C1082.6 99.3477 1082.4 98.3193 1082.02 97.5635C1081.65 96.8076 1081.1 96.2715 1080.38 95.9551C1079.68 95.6387 1078.81 95.4805 1077.77 95.4805C1076.7 95.4805 1075.76 95.7002 1074.95 96.1396C1074.16 96.5615 1073.49 97.1504 1072.95 97.9062C1072.42 98.6621 1072.01 99.5322 1071.73 100.517C1071.45 101.501 1071.31 102.564 1071.31 103.707ZM1111.44 111.195C1111.44 110.598 1111.28 110.062 1110.97 109.587C1110.65 109.112 1110.05 108.682 1109.17 108.295C1108.31 107.891 1107.05 107.513 1105.38 107.161C1103.9 106.845 1102.54 106.449 1101.29 105.975C1100.04 105.5 1098.97 104.929 1098.07 104.261C1097.18 103.575 1096.47 102.775 1095.96 101.861C1095.47 100.93 1095.23 99.8574 1095.23 98.6445C1095.23 97.4668 1095.48 96.3594 1095.99 95.3223C1096.5 94.2676 1097.24 93.3447 1098.21 92.5537C1099.17 91.7451 1100.35 91.1123 1101.74 90.6553C1103.13 90.1807 1104.69 89.9434 1106.43 89.9434C1108.86 89.9434 1110.94 90.3389 1112.68 91.1299C1114.44 91.9209 1115.78 93.0107 1116.71 94.3994C1117.65 95.7705 1118.11 97.3174 1118.11 99.04H1111.15C1111.15 98.2842 1110.98 97.5986 1110.62 96.9834C1110.29 96.3682 1109.77 95.876 1109.07 95.5068C1108.37 95.1201 1107.48 94.9268 1106.41 94.9268C1105.44 94.9268 1104.62 95.085 1103.95 95.4014C1103.3 95.7178 1102.81 96.1309 1102.48 96.6406C1102.14 97.1504 1101.98 97.7129 1101.98 98.3281C1101.98 98.7852 1102.06 99.1982 1102.24 99.5674C1102.43 99.9189 1102.74 100.244 1103.16 100.543C1103.58 100.842 1104.16 101.114 1104.88 101.36C1105.61 101.606 1106.52 101.844 1107.59 102.072C1109.72 102.494 1111.57 103.057 1113.16 103.76C1114.75 104.445 1116 105.359 1116.9 106.502C1117.8 107.645 1118.24 109.104 1118.24 110.879C1118.24 112.145 1117.97 113.305 1117.43 114.359C1116.88 115.396 1116.09 116.302 1115.05 117.075C1114.02 117.849 1112.78 118.455 1111.34 118.895C1109.89 119.316 1108.27 119.527 1106.46 119.527C1103.84 119.527 1101.62 119.062 1099.81 118.13C1098 117.181 1096.63 115.985 1095.7 114.544C1094.77 113.085 1094.3 111.573 1094.3 110.009H1100.97C1101.03 111.116 1101.33 112.004 1101.87 112.672C1102.42 113.34 1103.1 113.823 1103.93 114.122C1104.77 114.403 1105.66 114.544 1106.59 114.544C1107.64 114.544 1108.53 114.403 1109.25 114.122C1109.97 113.823 1110.52 113.428 1110.89 112.936C1111.26 112.426 1111.44 111.846 1111.44 111.195Z" fill="#FFA229"/>
</g>
<defs>
<filter id="filter0_d_1118_1410" x="-4.90625" y="204" width="549" height="549" filterUnits="userSpaceOnUse" color-interpolation-filters="sRGB">
<feFlood flood-opacity="0" result="BackgroundImageFix"/>
<feColorMatrix in="SourceAlpha" type="matrix" values="0 0 0 0 0 0 0 0 0 0 0 0 0 0 0 0 0 0 127 0" result="hardAlpha"/>
<feMorphology radius="7" operator="erode" in="SourceAlpha" result="effect1_dropShadow_1118_1410"/>
<feOffset dx="-30" dy="41"/>
<feGaussianBlur stdDeviation="27"/>
<feComposite in2="hardAlpha" operator="out"/>
<feColorMatrix type="matrix" values="0 0 0 0 0 0 0 0 0 0 0 0 0 0 0 0 0 0 0.25 0"/>
<feBlend mode="normal" in2="BackgroundImageFix" result="effect1_dropShadow_1118_1410"/>
<feBlend mode="normal" in="SourceGraphic" in2="effect1_dropShadow_1118_1410" result="shape"/>
</filter>
<filter id="filter1_d_1118_1410" x="780.898" y="204" width="549" height="549" filterUnits="userSpaceOnUse" color-interpolation-filters="sRGB">
<feFlood flood-opacity="0" result="BackgroundImageFix"/>
<feColorMatrix in="SourceAlpha" type="matrix" values="0 0 0 0 0 0 0 0 0 0 0 0 0 0 0 0 0 0 127 0" result="hardAlpha"/>
<feMorphology radius="7" operator="erode" in="SourceAlpha" result="effect1_dropShadow_1118_1410"/>
<feOffset dx="-30" dy="41"/>
<feGaussianBlur stdDeviation="27"/>
<feComposite in2="hardAlpha" operator="out"/>
<feColorMatrix type="matrix" values="0 0 0 0 0 0 0 0 0 0 0 0 0 0 0 0 0 0 0.25 0"/>
<feBlend mode="normal" in2="BackgroundImageFix" result="effect1_dropShadow_1118_1410"/>
<feBlend mode="normal" in="SourceGraphic" in2="effect1_dropShadow_1118_1410" result="shape"/>
</filter>
<filter id="filter2_d_1118_1410" x="65.4453" y="237.352" width="434.289" height="434.289" filterUnits="userSpaceOnUse" color-interpolation-filters="sRGB">
<feFlood flood-opacity="0" result="BackgroundImageFix"/>
<feColorMatrix in="SourceAlpha" type="matrix" values="0 0 0 0 0 0 0 0 0 0 0 0 0 0 0 0 0 0 127 0" result="hardAlpha"/>
<feOffset dx="-17" dy="17"/>
<feGaussianBlur stdDeviation="17"/>
<feComposite in2="hardAlpha" operator="out"/>
<feColorMatrix type="matrix" values="0 0 0 0 0 0 0 0 0 0 0 0 0 0 0 0 0 0 0.25 0"/>
<feBlend mode="normal" in2="BackgroundImageFix" result="effect1_dropShadow_1118_1410"/>
<feBlend mode="normal" in="SourceGraphic" in2="effect1_dropShadow_1118_1410" result="shape"/>
</filter>
<filter id="filter3_d_1118_1410" x="851.258" y="237.352" width="434.289" height="434.289" filterUnits="userSpaceOnUse" color-interpolation-filters="sRGB">
<feFlood flood-opacity="0" result="BackgroundImageFix"/>
<feColorMatrix in="SourceAlpha" type="matrix" values="0 0 0 0 0 0 0 0 0 0 0 0 0 0 0 0 0 0 127 0" result="hardAlpha"/>
<feOffset dx="-17" dy="17"/>
<feGaussianBlur stdDeviation="17"/>
<feComposite in2="hardAlpha" operator="out"/>
<feColorMatrix type="matrix" values="0 0 0 0 0 0 0 0 0 0 0 0 0 0 0 0 0 0 0.25 0"/>
<feBlend mode="normal" in2="BackgroundImageFix" result="effect1_dropShadow_1118_1410"/>
<feBlend mode="normal" in="SourceGraphic" in2="effect1_dropShadow_1118_1410" result="shape"/>
</filter>
<clipPath id="clip0_1118_1410">
<rect width="1386" height="771" fill="white"/>
</clipPath>
</defs>
</svg>
