<svg width="1080" height="1049" viewBox="0 0 1080 1049" fill="none" xmlns="http://www.w3.org/2000/svg">
<rect width="1080" height="1049" fill="white"/>
<path d="M299.52 120.051C269.117 164.371 304.765 236.226 259.651 269.56C215.734 302.003 161.784 248.822 120.399 276.754C59.0002 318.186 70.2126 507.779 159.978 625.577C186.974 661.002 209.531 674.786 219.52 714.851C240.955 800.878 165.58 852.054 179.928 894.602C212.232 990.407 709.045 1070.81 908.404 782.875C1001.5 648.402 1015.43 454.226 932.25 306.747C781.928 40.253 367.743 20.6021 299.52 120.051Z" fill="#F4F7FA"/>
<path d="M608.263 117.475L163.364 102.417C153.192 102.073 144.93 109.954 144.93 120.019V928.189C144.93 938.257 153.192 945.945 163.364 945.368L608.263 920.068C617.465 919.545 624.91 911.384 624.91 901.836V135.326C624.91 125.778 617.465 117.787 608.263 117.475Z" fill="url(#paint0_linear_1115_33)"/>
<g style="mix-blend-mode:multiply" opacity="0.3">
<path d="M425.727 714.233C418.161 621.822 474.926 583.681 453.28 499.958C426.521 396.471 323.611 392.036 288.565 290.554C275.136 251.671 269.831 192.889 308.272 107.306L163.372 102.401C153.199 102.058 144.938 109.938 144.938 120.003V928.173C144.938 938.241 153.199 945.929 163.372 945.352L560.071 922.795C459.14 844.646 430.376 771.042 425.727 714.233Z" fill="#D8DEE8"/>
</g>
<path opacity="0.3" d="M608.27 127.681L163.37 113.124C162.393 113.082 161.418 113.237 160.503 113.581C159.588 113.925 158.752 114.451 158.045 115.126C157.339 115.802 156.776 116.613 156.391 117.512C156.006 118.41 155.806 119.378 155.805 120.355V927.582C155.801 928.554 155.998 929.516 156.383 930.407C156.769 931.299 157.335 932.102 158.045 932.764C158.755 933.427 159.595 933.936 160.512 934.259C161.428 934.581 162.401 934.711 163.37 934.64L608.27 909.854C612.052 909.643 615.116 906.283 615.116 902.361V135.004C615.116 131.082 612.046 127.791 608.27 127.681Z" fill="url(#paint1_linear_1115_33)"/>
<path opacity="0.6" d="M524.235 738.773L254.276 748.5C251.189 748.633 248.271 749.947 246.125 752.17C243.979 754.392 242.768 757.354 242.742 760.444C242.734 761.941 243.03 763.424 243.613 764.803C244.196 766.182 245.054 767.428 246.134 768.465C247.214 769.501 248.493 770.308 249.895 770.834C251.296 771.361 252.79 771.596 254.286 771.527L524.244 761.125C530.233 760.895 535.094 755.709 535.094 749.544C535.091 743.381 530.224 738.558 524.235 738.773Z" fill="url(#paint2_linear_1115_33)"/>
<path opacity="0.6" d="M524.236 778.595L254.278 789.527C251.189 789.674 248.273 790.996 246.127 793.223C243.981 795.45 242.767 798.413 242.735 801.505C242.723 803.001 243.017 804.483 243.6 805.861C244.182 807.239 245.04 808.483 246.122 809.516C247.203 810.55 248.485 811.351 249.887 811.871C251.29 812.39 252.784 812.617 254.278 812.538L524.236 800.947C530.226 800.689 535.086 795.484 535.086 789.319C535.093 783.153 530.226 778.352 524.236 778.595Z" fill="url(#paint3_linear_1115_33)"/>
<path opacity="0.6" d="M524.235 818.401L254.277 830.537C251.183 830.703 248.269 832.041 246.127 834.278C243.984 836.515 242.774 839.484 242.743 842.582C242.729 844.076 243.023 845.557 243.606 846.932C244.188 848.308 245.048 849.549 246.13 850.579C247.213 851.609 248.495 852.405 249.898 852.919C251.301 853.432 252.795 853.652 254.286 853.564L524.235 840.754C530.224 840.47 535.085 835.24 535.085 829.09C535.091 822.912 530.224 818.133 524.235 818.401Z" fill="url(#paint4_linear_1115_33)"/>
<path opacity="0.6" d="M384.251 159.99L248.457 156.144C247.714 156.118 246.973 156.243 246.279 156.51C245.586 156.777 244.953 157.182 244.419 157.7C243.886 158.217 243.462 158.838 243.174 159.523C242.886 160.209 242.739 160.945 242.742 161.689C242.752 163.215 243.353 164.679 244.42 165.772C245.486 166.864 246.934 167.501 248.46 167.549L384.254 171.227C384.981 171.246 385.704 171.119 386.38 170.852C387.056 170.585 387.671 170.185 388.188 169.675C388.706 169.165 389.116 168.556 389.392 167.884C389.669 167.212 389.807 166.491 389.799 165.765C389.799 164.272 389.222 162.837 388.188 161.76C387.154 160.684 385.743 160.049 384.251 159.99Z" fill="url(#paint5_linear_1115_33)"/>
<path opacity="0.6" d="M384.251 180.009L248.457 176.456C247.713 176.432 246.972 176.558 246.279 176.827C245.585 177.095 244.952 177.501 244.419 178.02C243.885 178.539 243.462 179.16 243.174 179.846C242.886 180.532 242.739 181.269 242.742 182.013C242.751 183.539 243.353 185.002 244.42 186.093C245.486 187.184 246.935 187.817 248.46 187.861L384.254 191.24C384.982 191.257 385.705 191.127 386.381 190.859C387.057 190.59 387.672 190.188 388.189 189.677C388.707 189.166 389.116 188.556 389.392 187.883C389.669 187.21 389.807 186.489 389.799 185.761C389.798 184.271 389.219 182.84 388.185 181.767C387.15 180.694 385.74 180.064 384.251 180.009Z" fill="url(#paint6_linear_1115_33)"/>
<path opacity="0.6" d="M384.251 200.015L248.457 196.768C247.713 196.746 246.972 196.874 246.278 197.144C245.584 197.415 244.952 197.822 244.419 198.341C243.886 198.861 243.462 199.483 243.174 200.169C242.886 200.856 242.739 201.593 242.742 202.338C242.752 203.863 243.353 205.324 244.42 206.413C245.488 207.501 246.936 208.133 248.46 208.173L384.254 211.252C384.982 211.268 385.706 211.136 386.382 210.867C387.058 210.597 387.673 210.194 388.19 209.681C388.707 209.169 389.116 208.558 389.393 207.885C389.669 207.211 389.807 206.489 389.799 205.761C389.801 204.271 389.223 202.838 388.188 201.766C387.152 200.693 385.741 200.066 384.251 200.015Z" fill="url(#paint7_linear_1115_33)"/>
<g style="mix-blend-mode:soft-light" opacity="0.35">
<path d="M426.754 714.207C419.189 621.81 475.929 583.671 454.298 499.958C427.549 396.484 324.661 392.048 289.624 290.579C276.753 253.304 271.341 197.734 304.811 117.753L164.456 113.163C163.479 113.121 162.504 113.276 161.589 113.62C160.674 113.964 159.838 114.49 159.131 115.165C158.425 115.841 157.862 116.652 157.477 117.551C157.092 118.449 156.892 119.417 156.891 120.394V927.527C156.887 928.498 157.084 929.46 157.469 930.352C157.855 931.244 158.42 932.046 159.131 932.709C159.841 933.372 160.681 933.88 161.597 934.203C162.514 934.526 163.487 934.656 164.456 934.585L549.025 913.15C457.829 838.556 431.212 768.649 426.754 714.207Z" fill="white"/>
</g>
<path d="M513.47 926.774C484.854 926.289 458.842 859.979 456.585 805.777C455.712 784.812 454.842 763.953 466.956 742.957C487.398 707.526 518.784 716.822 537.121 687.957C564.198 645.336 514.605 595.392 541.534 559.977C561.342 533.927 594.453 552.702 618.47 524.08C646.332 490.878 619.141 444.925 644.948 428.18C659.934 418.452 673.057 431.395 716.188 421.586C733.062 417.746 741.497 415.83 748.574 409.923C773.388 389.206 754.403 353.939 772.761 327.697C792.97 298.81 846.305 298.186 879.492 307.293C938.955 323.612 973.617 382.111 982.128 431.581C983.95 442.182 994.736 511.373 950.769 555.681C918.806 587.899 870.177 594.592 862.29 595.676C831.562 599.903 824.051 591.953 814.162 600.07C785.584 623.526 841.621 695.469 809.185 751.89C795.946 774.923 769.946 791.907 745.327 796.872C705.524 804.901 683.787 778.589 664.019 791.828C638.449 808.945 663.49 860.562 635.741 881.2C616.112 895.798 596.159 875.475 561.588 890.568C530.889 903.971 530.413 927.061 513.47 926.774Z" fill="url(#paint8_linear_1115_33)"/>
<g style="mix-blend-mode:soft-light" opacity="0.5">
<path d="M507.27 876.263C520.471 877.448 521.908 841.866 558.31 789.814C598.06 732.976 624.488 735.17 661.728 683.808C704.245 625.177 678.214 610.708 714.338 564.809C763.302 502.6 816.189 522.721 875.334 449.605C893.075 427.675 916.581 397.755 907.244 366.939C899.146 340.22 867.422 316.327 836.363 321.064C835.061 321.263 809.005 325.657 795.441 348.303C778.801 376.08 800.337 398.968 784.264 420.57C775.847 431.883 760.537 435.408 729.923 442.456C685.89 452.597 677.016 444.322 666.091 454.343C641.399 476.979 677.416 527.739 652.98 554.87C632.003 578.162 592.984 554.593 574.853 576.62C552.97 603.193 600.493 648.834 580.183 690.73C562.698 726.795 517.53 713.458 492.448 752.198C462.827 797.896 488.218 874.548 507.27 876.263Z" fill="#F4F7FA"/>
</g>
<path d="M699.517 869.942C719.94 869.447 719.18 831.907 753.558 817.407C791.586 801.365 819.922 835.737 845.918 819.134C875.11 800.483 852.78 748.494 885.32 725.123C907.562 709.157 925.855 727.774 954.266 712.369C983.881 696.312 1010.01 651.141 994.254 610.742C981.107 577.039 943.4 558.441 914.699 560.937C891.221 562.977 885.919 578.076 864.998 575.752C838.929 572.849 837.23 548.306 809.403 539.802C781.717 531.344 746.172 544.265 728.17 567.926C713.2 587.598 713.629 610.395 714.007 630.279C715.016 683.659 741.132 701.8 730.131 723.386C716.403 750.319 670.207 732.937 652.451 760.031C630.231 793.929 670.141 870.657 699.517 869.942Z" fill="url(#paint9_linear_1115_33)"/>
<g style="mix-blend-mode:soft-light" opacity="0.5">
<path d="M685.995 831.884C693.561 832.662 693.472 808.305 714.907 785.937C739.494 760.294 760.74 770.255 788.953 749.173C823.914 723.054 807.135 695.916 837.995 669.851C881.253 633.31 942.081 663.111 955.147 635.378C962.778 619.176 949.949 592.158 932.709 584.574C914.313 576.479 903.671 596.13 873.255 594.579C844.766 593.126 841.491 575.243 805.959 569.453C788.637 566.616 765.882 562.925 752.718 575.127C726.927 599.055 749.181 673.687 755.977 696.468C762.225 717.427 766.938 725.352 762.197 734.575C749.78 758.727 699.263 739.767 679.234 766.475C662.48 788.812 676.227 830.869 685.995 831.884Z" fill="#F4F7FA"/>
</g>
<path d="M689.115 100.142L225.252 84.4408C214.648 84.0846 206.023 92.2993 206.023 102.796V945.413C206.023 955.91 214.638 963.926 225.252 963.324L689.115 936.946C698.711 936.401 706.471 927.89 706.471 917.935V118.753C706.471 108.798 698.711 100.467 689.115 100.142Z" fill="url(#paint10_linear_1115_33)"/>
<g style="mix-blend-mode:multiply" opacity="0.3">
<path d="M498.799 722.358C490.918 626.014 550.095 586.246 527.525 498.955C499.628 391.055 392.333 386.421 355.793 280.623C341.791 240.083 336.249 178.807 376.339 89.5647L225.26 84.4487C214.656 84.0925 206.031 92.3071 206.031 102.804V945.421C206.031 955.918 214.646 963.934 225.26 963.332L638.87 939.813C533.637 858.332 503.65 781.579 498.799 722.358Z" fill="#D8DEE8"/>
</g>
<path d="M689.111 110.781L225.248 95.6159C224.23 95.5735 223.215 95.737 222.262 96.0965C221.309 96.4561 220.438 97.0044 219.702 97.7084C218.967 98.4125 218.38 99.2579 217.979 100.194C217.578 101.13 217.37 102.138 217.367 103.156V944.796C217.363 945.808 217.568 946.81 217.97 947.739C218.372 948.668 218.961 949.505 219.701 950.195C220.441 950.886 221.315 951.417 222.27 951.753C223.224 952.09 224.238 952.226 225.248 952.153L689.111 926.305C693.048 926.084 696.251 922.582 696.251 918.494V118.428C696.251 114.34 693.048 110.91 689.111 110.781Z" fill="url(#paint11_linear_1115_33)"/>
<path d="M601.502 747.929L320.039 758.07C316.818 758.206 313.773 759.575 311.532 761.893C309.292 764.211 308.027 767.301 308 770.524C307.989 772.086 308.297 773.634 308.905 775.072C309.512 776.511 310.406 777.811 311.533 778.892C312.66 779.974 313.995 780.815 315.457 781.363C316.92 781.911 318.479 782.155 320.039 782.08L601.502 771.234C607.753 770.994 612.816 765.588 612.816 759.161C612.806 752.73 607.763 747.702 601.502 747.929Z" fill="#D8DEE8"/>
<path d="M601.502 789.447L320.039 800.845C316.815 800.998 313.771 802.378 311.533 804.704C309.294 807.029 308.031 810.122 308 813.35C307.988 814.91 308.295 816.455 308.902 817.892C309.51 819.329 310.405 820.626 311.533 821.704C312.661 822.781 313.997 823.616 315.46 824.158C316.923 824.699 318.481 824.936 320.039 824.852L601.502 812.751C607.753 812.483 612.816 807.055 612.816 800.627C612.806 794.2 607.763 789.194 601.502 789.447Z" fill="#D8DEE8"/>
<path d="M601.502 830.965L320.039 843.614C313.394 843.93 308 849.537 308 856.176C307.987 857.734 308.294 859.278 308.902 860.712C309.509 862.146 310.406 863.44 311.534 864.513C312.663 865.587 314.001 866.417 315.463 866.952C316.926 867.488 318.484 867.716 320.039 867.625L601.502 854.275C607.753 853.979 612.816 848.529 612.816 842.098C612.806 835.677 607.763 830.681 601.502 830.965Z" fill="#D8DEE8"/>
<path d="M455.55 144.475L313.981 140.466C313.204 140.434 312.429 140.56 311.702 140.837C310.975 141.113 310.311 141.534 309.752 142.074C309.192 142.614 308.747 143.262 308.445 143.979C308.143 144.695 307.989 145.466 307.992 146.244C308.003 147.84 308.634 149.37 309.751 150.51C310.869 151.651 312.385 152.313 313.981 152.356L455.563 156.189C456.32 156.209 457.074 156.077 457.779 155.799C458.484 155.521 459.126 155.103 459.666 154.571C460.206 154.04 460.633 153.404 460.921 152.703C461.209 152.002 461.353 151.251 461.344 150.493C461.345 148.935 460.742 147.437 459.661 146.315C458.581 145.193 457.107 144.533 455.55 144.475Z" fill="#D8DEE8"/>
<path d="M455.55 165.35L313.981 161.652C313.204 161.624 312.428 161.752 311.701 162.031C310.974 162.309 310.311 162.732 309.752 163.273C309.192 163.814 308.748 164.463 308.446 165.18C308.143 165.897 307.989 166.668 307.992 167.446C308.003 169.041 308.634 170.569 309.752 171.707C310.87 172.845 312.387 173.503 313.981 173.543L455.563 177.067C456.321 177.085 457.075 176.949 457.78 176.67C458.485 176.39 459.126 175.971 459.666 175.438C460.205 174.905 460.632 174.269 460.92 173.567C461.209 172.866 461.353 172.113 461.344 171.355C461.345 169.798 460.741 168.302 459.661 167.182C458.58 166.061 457.106 165.405 455.55 165.35Z" fill="#D8DEE8"/>
<path d="M455.55 186.217L313.981 182.832C313.203 182.805 312.427 182.935 311.7 183.216C310.973 183.496 310.31 183.92 309.751 184.462C309.192 185.005 308.748 185.654 308.446 186.372C308.143 187.09 307.989 187.862 307.992 188.641C308.002 190.231 308.63 191.754 309.743 192.89C310.856 194.025 312.367 194.683 313.956 194.725L455.538 197.934C456.296 197.948 457.05 197.81 457.754 197.528C458.458 197.247 459.098 196.826 459.637 196.293C460.176 195.759 460.603 195.123 460.892 194.421C461.18 193.72 461.326 192.968 461.319 192.209C461.321 190.658 460.72 189.166 459.644 188.048C458.568 186.931 457.101 186.274 455.55 186.217Z" fill="#D8DEE8"/>
<path d="M401.004 410.365C410.196 392.978 427.4 380.624 447.559 378.32L448.965 292.391C391.509 293.891 342.016 329.319 319.844 380.095L401.004 410.365Z" fill="url(#paint12_linear_1115_33)"/>
<path d="M513.69 449.438C508.782 477.99 484.276 499.901 454.611 500.188C446.122 500.278 437.714 498.546 429.951 495.11L384.922 569.13C406.356 580.519 430.344 586.245 454.611 585.764C529.318 584.396 589.822 525.942 596.64 452.587L513.69 449.438Z" fill="url(#paint13_linear_1115_33)"/>
<path d="M371.014 560.691L416.172 486.614C409.174 480.863 403.542 473.628 399.685 465.433C395.827 457.238 393.84 448.287 393.867 439.23C393.865 434.696 394.36 430.176 395.343 425.751L314.085 395.594C309.707 409.808 307.487 424.599 307.5 439.472C307.5 490.053 332.718 534.43 371.014 560.691Z" fill="url(#paint14_linear_1115_33)"/>
<path d="M463.648 378.65C490.757 382.871 511.82 405.374 514.336 433.262L651.621 438.687V438.498C651.621 332.098 570.385 243.691 465.984 235.836L463.648 378.65Z" fill="url(#paint15_linear_1115_33)"/>
<g style="mix-blend-mode:soft-light" opacity="0.35">
<path d="M499.865 722.317C491.984 625.983 551.148 586.221 528.584 498.939C500.694 391.052 393.424 386.427 356.89 280.633C343.468 241.769 337.832 183.832 372.723 100.44L226.388 95.655C225.371 95.6126 224.355 95.776 223.402 96.1356C222.449 96.4951 221.579 97.0434 220.843 97.7475C220.107 98.4516 219.521 99.297 219.12 100.233C218.719 101.169 218.51 102.177 218.508 103.195V944.737C218.504 945.749 218.709 946.751 219.111 947.681C219.512 948.61 220.101 949.446 220.841 950.137C221.581 950.828 222.456 951.358 223.41 951.695C224.365 952.032 225.379 952.168 226.388 952.094L627.349 929.758C532.263 851.968 504.511 779.079 499.865 722.317Z" fill="white"/>
</g>
<path d="M344.731 328.302L120.237 326.067C115.159 326.017 111.039 321.969 111.039 317.033V231.646C111.039 226.71 115.159 222.82 120.237 222.924L315.674 227.58C317.995 227.643 320.199 228.607 321.823 230.266C323.446 231.925 324.361 234.151 324.374 236.472V309.859L344.731 328.302Z" fill="url(#paint16_linear_1115_33)"/>
<path opacity="0.67" d="M292.843 258.445L144.172 255.548V245.312L292.843 248.414V258.445Z" fill="white"/>
<path opacity="0.67" d="M292.843 278.507L144.172 276.02V265.781L292.843 268.476V278.507Z" fill="white"/>
<path opacity="0.67" d="M292.843 298.566L144.172 296.485V286.25L292.843 288.532V298.566Z" fill="white"/>
<path style="mix-blend-mode:multiply" opacity="0.3" d="M463.274 575.577L733.216 569.777C740.242 569.625 745.935 575.394 745.935 582.663V708.348C745.935 715.617 740.242 721.701 733.216 721.937L448.701 731.526C441.341 731.775 435.367 725.937 435.367 718.485V554.195L463.274 575.577Z" fill="url(#paint17_linear_1115_33)"/>
<path opacity="0.67" d="M483.414 681.987L699.851 675.516V690.706L483.414 697.439V681.987Z" fill="white"/>
<path opacity="0.67" d="M483.414 651.078L699.851 645.133V660.323L483.414 666.53V651.078Z" fill="white"/>
<path opacity="0.67" d="M483.414 620.169L699.851 614.75V629.941L483.414 635.624V620.169Z" fill="white"/>
<path d="M709.588 938.434C709.588 938.434 680.102 951.919 679.626 954.062C679.15 956.206 698.605 953.3 706.552 953.59C714.499 953.88 721.03 951.515 720.305 948.149C719.58 944.782 716.775 936.328 716.775 936.328L709.588 938.434Z" fill="url(#paint18_linear_1115_33)"/>
<path d="M708.484 927.558L710.313 940.844C710.313 940.844 714.987 942.496 718.124 940.529L719.426 925.953L708.484 927.558Z" fill="url(#paint19_linear_1115_33)"/>
<path d="M847.483 927.547L850.931 933.051C851.408 933.81 851.725 934.659 851.862 935.545C851.999 936.432 851.954 937.336 851.729 938.205C850.54 942.788 848.164 951.727 847.123 954.057C845.708 957.234 826.609 959.164 826.609 959.164C826.609 959.164 824.9 956.771 828.859 953.868C832.819 950.965 835.366 950.501 836.74 946.227C838.114 941.952 839.035 929.864 839.035 929.864L847.483 927.547Z" fill="url(#paint20_linear_1115_33)"/>
<path d="M833.156 913.57C834.417 914.566 840.592 933.174 840.592 933.174C840.592 933.174 842.585 935.696 846.348 931.951C850.112 928.206 848.05 930.264 848.05 930.264L847.3 911.953L833.156 913.57Z" fill="url(#paint21_linear_1115_33)"/>
<path d="M691.604 660.611C690.141 700.256 690.179 743.325 692.572 789.331C695.264 841.134 700.54 889.01 707.147 932.403C709.568 932.476 712.109 932.482 714.76 932.403C716.554 932.35 718.29 932.258 719.967 932.139C724.232 920.686 727.855 909.005 730.821 897.149C734.177 883.658 736.694 869.973 738.357 856.17C743.934 811.255 737.264 807.355 741.796 774.068C745.812 744.589 751.619 743.422 758.339 701.567C765.627 656.15 760.104 649.351 757.419 646.899C745.989 636.439 719.217 643.636 691.604 660.611Z" fill="url(#paint22_linear_1115_33)"/>
<path style="mix-blend-mode:multiply" opacity="0.3" d="M757.419 646.885C746.519 636.921 721.658 643.027 695.422 658.34C725.724 690.921 729.072 712.098 725.481 725.851C721.421 741.395 708.983 745.899 709.071 762.886C709.178 783.76 728.031 789.245 727.685 811.336C727.455 825.943 719.174 825.811 717.264 843.857C715.003 865.21 725.838 872.542 722.37 888.341C720.879 895.137 716.602 904.026 704.371 913.203C705.269 919.687 706.19 926.105 707.151 932.4C709.569 932.472 712.11 932.478 714.761 932.4C716.554 932.346 718.291 932.255 719.968 932.135C724.233 920.682 727.856 909.001 730.821 897.145C734.178 883.655 736.695 869.969 738.358 856.167C743.934 811.251 737.264 807.351 741.797 774.064C745.813 744.585 751.619 743.418 758.34 701.563C765.628 656.134 760.105 649.338 757.419 646.885Z" fill="url(#paint23_linear_1115_33)"/>
<path d="M710.312 659.892C765.105 739.611 806.534 827.73 832.971 920.781C835.693 922.036 838.715 922.497 841.687 922.111C847.304 921.355 850.665 917.758 851.541 916.752C854.852 895.848 855.562 874.614 853.653 853.535C852.736 843.476 851.112 826.719 844.65 806.047C837.4 782.891 832.467 781.598 823.035 757.102C813.245 731.68 815.587 725.322 806.193 693.497C800.541 674.427 793.544 655.783 785.253 637.703L710.312 659.892Z" fill="url(#paint24_linear_1115_33)"/>
<path d="M604.229 606.247C604.475 615.499 619.675 623.647 631.921 626.147C660.547 631.988 693.73 611.19 709.481 588.182C712.574 583.665 716.01 578.189 716.839 578.612C718.711 579.557 701.503 607.845 694.045 640.001C690.228 656.449 691.227 664.153 684.09 675.107C682.473 677.588 680.481 680.17 681.181 683.104C682.934 690.455 699.744 692.366 711.404 693.69C723.717 695.086 735.197 694.95 746.548 694.786C764.714 694.522 766.146 693.576 770.294 695.612C782.931 701.813 782.074 716.672 791.584 718.655C799.568 720.319 807.66 711.405 810.239 708.568C823.591 693.872 822.876 676.151 825.246 658.278C830.75 616.725 853.326 571.201 875.407 542.38C882.106 533.642 886.755 529.043 887.055 520.92C887.909 497.077 850.133 470.753 818.68 467.73C810.059 466.901 794.623 467.162 780.151 468.527C774.367 469.069 768.21 469.873 761.591 471.03C745.54 473.839 734.365 475.793 722.976 481.004C677.058 502.013 687.079 548.776 637.375 581.121C620.287 592.245 603.987 596.56 604.229 606.247Z" fill="white"/>
<path d="M792.371 443.008C792.371 443.008 794.344 454.012 798.883 461.849C802.981 468.928 819.953 471.466 823.486 472.698C827.02 473.931 818.153 480.087 808.724 482.319C799.296 484.551 771.718 486.01 766.315 483.041C760.912 480.071 769.823 479.167 776.31 475.756C782.798 472.345 784.969 458.479 782.961 452.584C780.954 446.69 792.371 443.008 792.371 443.008Z" fill="url(#paint25_linear_1115_33)"/>
<path d="M774.454 439.814C767.61 434.925 765.716 421.701 769.518 418.732C770.602 417.884 771.639 418.275 787.082 424.466C794.751 427.542 798.521 429.194 799.763 432.567C800.523 434.635 800.393 437.428 799.561 439.628C799.129 440.76 798.3 442.169 796.409 444.861C794.748 447.247 794.861 447.168 794.354 447.861C793.131 449.529 790.773 452.334 786.458 455.588C786.165 454.095 785.743 452.631 785.197 451.212C784.492 449.367 783.553 447.62 782.404 446.014C779.728 442.424 776.673 441.403 774.454 439.814Z" fill="url(#paint26_linear_1115_33)"/>
<path d="M791.997 452.397C791.997 452.397 787.521 459.064 779.227 458.159C771.804 457.349 771.444 440.605 776.355 437.27C777.991 436.157 781.191 435.807 783.744 436.639C785.251 437.134 785.74 437.79 788.217 438.55C790.503 439.253 791.168 439.022 791.842 439.643C792.681 440.416 793.242 442.244 791.571 447.064C793.053 445.686 794.783 445.21 795.965 445.831C796.368 446.073 796.696 446.422 796.911 446.84C797.872 448.797 796.025 451.155 791.997 452.397Z" fill="url(#paint27_linear_1115_33)"/>
<path style="mix-blend-mode:multiply" opacity="0.3" d="M644.386 604.831C665.14 600.156 673.408 600.307 683.672 592.039C700.76 578.273 703.326 557.317 713.255 557.573C717.946 557.696 721.766 562.487 724.471 567.181L716.972 578.926C716.972 578.774 716.931 578.661 716.846 578.61C716.017 578.188 712.581 583.654 709.488 588.181C693.727 611.192 660.554 631.996 631.928 626.146C623.733 624.469 614.203 620.248 608.734 614.864C620.435 610.901 632.335 607.552 644.386 604.831Z" fill="url(#paint28_linear_1115_33)"/>
<path d="M610.586 622.676C610.586 622.676 598.876 621.513 591.897 618.528C584.918 615.542 580.41 619.826 581.053 622.796C581.696 625.765 593.173 629.894 597.76 630.046C602.346 630.197 610.586 622.676 610.586 622.676Z" fill="url(#paint29_linear_1115_33)"/>
<path d="M862.786 684.613C875.357 685.735 903.661 686.246 923.678 667.73C957 636.901 940.469 578.207 928.869 552.989C915.57 524.055 894.403 507.859 881.539 498.018C865.582 485.806 855.839 478.351 844.122 480.022C813.814 484.337 792.823 546.455 809.448 564.239C814.895 570.062 820.288 566.761 836.053 571.786C841.184 573.419 879.499 585.624 886.173 613.843C890.841 633.594 878.954 656.713 857.803 672.253C859.469 676.372 861.131 680.492 862.786 684.613Z" fill="white"/>
<path style="mix-blend-mode:multiply" opacity="0.3" d="M721.865 674.385C736.1 665.392 738.206 656.272 754.147 650.113C774.85 642.109 784.802 652.275 795.068 644.07C807.286 634.298 796.471 617.276 805.613 587.753C807.164 582.741 818.95 544.671 845.996 539.82C858.604 537.557 875.261 542.389 881.682 553.059C886.703 561.422 882.025 567.657 888.131 576.89C894.237 586.123 901.534 583.863 909.314 591.557C921.668 603.778 923.559 629.545 912.406 644.117C907.205 650.917 900.447 653.602 887.725 658.662C880.861 661.388 873.761 663.473 866.513 664.89C882.088 649.943 890.155 630.664 886.189 613.824C882.032 596.235 865.58 584.868 852.53 578.406C839.474 602.978 828.803 631.452 825.251 658.274C822.88 676.147 823.596 693.869 810.243 708.564C807.674 711.401 799.573 720.309 791.588 718.651C782.078 716.668 782.936 701.809 770.298 695.609C766.15 693.572 764.719 694.518 746.553 694.783C735.205 694.947 723.721 695.082 711.409 693.686C701.041 692.507 686.623 690.849 682.32 685.339C701.041 684.837 713.537 679.639 721.865 674.385Z" fill="url(#paint30_linear_1115_33)"/>
<path d="M854.543 694.502L856.009 690.193C858.341 683.324 854.502 676.008 847.438 673.846L570.359 589.445L561.914 618.061L837.594 702.969C844.623 705.135 852.214 701.349 854.543 694.502Z" fill="url(#paint31_linear_1115_33)"/>
<path d="M295.04 511.917C316.223 428.226 399.236 377.791 481.336 401.429C564.939 425.499 612.802 516.081 587.401 601.471C562.596 684.854 477.534 729.836 398.158 704.11C320.151 678.83 274.34 593.704 295.04 511.917ZM563.293 594.083C584.284 522.625 544.228 446.938 474.417 426.628C405.657 406.624 335.801 448.611 317.777 518.877C300.096 587.797 338.704 659.636 404.57 680.8C471.4 702.276 542.703 664.134 563.284 594.083H563.293Z" fill="url(#paint32_linear_1115_33)"/>
<g style="mix-blend-mode:multiply" opacity="0.3">
<path d="M570.359 589.445L605.686 600.207C608.11 611.473 612.822 617.929 617.566 621.859C635.408 636.653 659.235 620.52 692.479 637.866C709.16 646.57 705.989 652.108 721.627 658.182C747.475 668.222 759.309 654.315 782.184 663.453C805.324 672.695 807.607 692.671 820.729 691.955C826.343 691.64 833.571 687.564 841.628 672.096L847.425 673.861C854.489 676.014 858.329 683.34 855.996 690.209L854.53 694.518C852.201 701.364 844.61 705.15 837.581 702.985L561.914 618.077L570.359 589.445Z" fill="#D8DEE8"/>
</g>
<path opacity="0.56" d="M398.026 692.241C467.164 714.493 540.979 675.09 562.326 602.599C584.114 528.598 542.634 450.199 470.309 429.199C399.104 408.543 326.852 452.043 308.242 524.771C290 596.052 329.929 670.33 398.026 692.241Z" fill="white"/>
<path d="M289.674 519.089C310.857 435.398 393.87 384.963 475.97 408.601C559.572 432.671 607.436 523.253 582.035 608.643C557.224 692.026 472.162 737.004 392.792 711.282C314.784 686.002 268.97 600.876 289.674 519.089ZM557.927 601.255C578.921 529.794 538.866 454.109 469.054 433.8C400.294 413.796 330.438 455.78 312.411 526.049C294.733 594.969 333.338 666.808 399.204 687.972C466.034 709.448 537.337 671.306 557.914 601.255H557.927Z" fill="url(#paint33_linear_1115_33)"/>
<path d="M297.693 521.553C317.769 442.609 396.136 395.178 473.507 417.531C552.215 440.277 597.31 525.572 573.483 606.033C550.185 684.699 469.993 727.279 395.043 703.061C321.319 679.239 278.048 598.798 297.693 521.553ZM557.911 601.26C578.905 529.8 538.85 454.115 469.038 433.805C400.278 413.801 330.422 455.786 312.395 526.055C294.717 594.975 333.322 666.813 399.188 687.977C466.03 709.453 537.333 671.312 557.911 601.26Z" fill="url(#paint34_linear_1115_33)"/>
<path d="M861.718 681.96L858.919 675C858.919 675 854.349 675.281 850.598 672.589C848.552 671.123 844.924 670.697 843.871 670.981C842.818 671.265 838.827 671.098 843.373 673.263C847.918 675.429 847.877 677.046 845.983 678.814C844.088 680.583 836.895 684.413 834.304 684.595C831.713 684.778 836.397 688.788 839.01 689.299C841.623 689.809 845.907 690.459 851.209 687.338C853.141 686.2 861.718 681.96 861.718 681.96Z" fill="url(#paint35_linear_1115_33)"/>
<path d="M782.734 484.707C782.511 489.474 784.708 493.701 788.314 495.425C790.108 496.237 792.112 496.469 794.044 496.087L800.592 483.844C798.246 484.071 795.83 484.258 793.342 484.405C789.653 484.61 786.11 484.704 782.734 484.707Z" fill="url(#paint36_linear_1115_33)"/>
<path d="M786.747 494.477C786.747 494.477 779.39 577.064 753.602 590.304C754.264 592.948 753.602 614.437 753.602 614.437C753.602 614.437 777.64 607.187 779.011 607.676C780.383 608.164 808.125 562.17 794.047 496.087L786.747 494.477Z" fill="url(#paint37_linear_1115_33)"/>
<path d="M567.734 171V329.846C567.733 332.376 568.736 334.802 570.522 336.593C572.309 338.383 574.734 339.391 577.263 339.394H881.329C885.906 339.394 889.61 335.419 889.61 330.511V182.736L567.734 171Z" fill="url(#paint38_linear_1115_33)"/>
<path d="M881.342 163.636L577.277 151.222C576.039 151.16 574.803 151.351 573.642 151.784C572.482 152.218 571.422 152.883 570.529 153.741C569.635 154.599 568.926 155.63 568.446 156.772C567.965 157.913 567.723 159.141 567.735 160.38V176.658L889.61 188.006V172.875C889.623 167.951 885.919 163.822 881.342 163.636Z" fill="url(#paint39_linear_1115_33)"/>
<path d="M589.585 164.4C589.59 164.947 589.484 165.488 589.274 165.993C589.063 166.497 588.752 166.954 588.36 167.334C587.967 167.715 587.502 168.012 586.991 168.207C586.481 168.402 585.936 168.491 585.39 168.469C584.257 168.419 583.188 167.935 582.402 167.118C581.617 166.3 581.177 165.212 581.172 164.078C581.167 163.53 581.273 162.986 581.485 162.481C581.697 161.975 582.01 161.518 582.405 161.137C582.8 160.756 583.268 160.46 583.782 160.267C584.295 160.073 584.842 159.987 585.39 160.012C586.518 160.068 587.581 160.554 588.362 161.37C589.142 162.186 589.58 163.271 589.585 164.4Z" fill="white"/>
<path d="M633.146 318.81L609.297 318.703V200.555L633.146 201.28V318.81Z" fill="white"/>
<path d="M633.146 318.818L609.297 318.711V262.617L633.146 263.018V318.818Z" fill="url(#paint40_linear_1115_33)"/>
<path d="M665.904 318.968L642.398 318.864V201.57L665.904 202.283V318.968Z" fill="white"/>
<path d="M665.904 318.958L642.398 318.854V291.008L665.904 291.26V318.958Z" fill="url(#paint41_linear_1115_33)"/>
<path d="M698.219 319.103L675.047 318.996V202.547L698.219 203.25V319.103Z" fill="white"/>
<path d="M698.219 319.104L675.047 318.997V304.484L698.219 304.664V319.104Z" fill="url(#paint42_linear_1115_33)"/>
<path d="M730.052 319.252L707.211 319.151V203.531L730.052 204.222V319.252Z" fill="white"/>
<path d="M730.052 319.255L707.211 319.154V228.578L730.052 229.142V319.255Z" fill="url(#paint43_linear_1115_33)"/>
<path d="M761.457 319.393L738.938 319.292V204.492L761.457 205.173V319.393Z" fill="white"/>
<path d="M761.457 319.392L738.938 319.291V239.578L761.457 240.082V319.392Z" fill="url(#paint44_linear_1115_33)"/>
<path d="M792.399 319.54L770.195 319.439V205.445L792.399 206.117V319.54Z" fill="white"/>
<path d="M792.399 319.536L770.195 319.435V222.016L792.399 222.605V319.536Z" fill="url(#paint45_linear_1115_33)"/>
<path d="M822.93 319.667L801.031 319.566V206.367L822.93 207.032V319.667Z" fill="white"/>
<path d="M822.93 319.671L801.031 319.57V250.039L822.93 250.487V319.671Z" fill="url(#paint46_linear_1115_33)"/>
<path d="M853.033 319.809L831.438 319.711V207.297L853.033 207.953V319.809Z" fill="white"/>
<path d="M853.033 319.813L831.438 319.715V280.688L853.033 280.978V319.813Z" fill="url(#paint47_linear_1115_33)"/>
<defs>
<linearGradient id="paint0_linear_1115_33" x1="289.742" y1="353.632" x2="533.931" y2="810.447" gradientUnits="userSpaceOnUse">
<stop stop-color="#FF9085"/>
<stop offset="1" stop-color="#FB6FBB"/>
</linearGradient>
<linearGradient id="paint1_linear_1115_33" x1="605.02" y1="152.12" x2="276.632" y2="689.48" gradientUnits="userSpaceOnUse">
<stop stop-color="white"/>
<stop offset="1" stop-color="#EBEFF2"/>
</linearGradient>
<linearGradient id="paint2_linear_1115_33" x1="242.739" y1="755.151" x2="535.091" y2="755.151" gradientUnits="userSpaceOnUse">
<stop stop-color="white"/>
<stop offset="1" stop-color="#EBEFF2"/>
</linearGradient>
<linearGradient id="paint3_linear_1115_33" x1="242.741" y1="795.576" x2="535.093" y2="795.576" gradientUnits="userSpaceOnUse">
<stop stop-color="white"/>
<stop offset="1" stop-color="#EBEFF2"/>
</linearGradient>
<linearGradient id="paint4_linear_1115_33" x1="242.739" y1="835.984" x2="535.091" y2="835.984" gradientUnits="userSpaceOnUse">
<stop stop-color="white"/>
<stop offset="1" stop-color="#EBEFF2"/>
</linearGradient>
<linearGradient id="paint5_linear_1115_33" x1="242.739" y1="163.687" x2="389.796" y2="163.687" gradientUnits="userSpaceOnUse">
<stop stop-color="white"/>
<stop offset="1" stop-color="#EBEFF2"/>
</linearGradient>
<linearGradient id="paint6_linear_1115_33" x1="242.739" y1="183.848" x2="389.796" y2="183.848" gradientUnits="userSpaceOnUse">
<stop stop-color="white"/>
<stop offset="1" stop-color="#EBEFF2"/>
</linearGradient>
<linearGradient id="paint7_linear_1115_33" x1="242.739" y1="204.009" x2="389.796" y2="204.009" gradientUnits="userSpaceOnUse">
<stop stop-color="white"/>
<stop offset="1" stop-color="#EBEFF2"/>
</linearGradient>
<linearGradient id="paint8_linear_1115_33" x1="441.943" y1="634.037" x2="995.957" y2="587.126" gradientUnits="userSpaceOnUse">
<stop stop-color="#AA80F9"/>
<stop offset="1" stop-color="#6165D7"/>
</linearGradient>
<linearGradient id="paint9_linear_1115_33" x1="645.992" y1="703.568" x2="998.995" y2="703.568" gradientUnits="userSpaceOnUse">
<stop stop-color="#E38DDD"/>
<stop offset="1" stop-color="#9571F6"/>
</linearGradient>
<linearGradient id="paint10_linear_1115_33" x1="646.816" y1="143.434" x2="422.561" y2="575.331" gradientUnits="userSpaceOnUse">
<stop stop-color="#E38DDD"/>
<stop offset="1" stop-color="#9571F6"/>
</linearGradient>
<linearGradient id="paint11_linear_1115_33" x1="685.726" y1="136.273" x2="343.339" y2="696.54" gradientUnits="userSpaceOnUse">
<stop stop-color="white"/>
<stop offset="1" stop-color="#EBEFF2"/>
</linearGradient>
<linearGradient id="paint12_linear_1115_33" x1="378.059" y1="278.871" x2="408.686" y2="555.736" gradientUnits="userSpaceOnUse">
<stop stop-color="#FFC444"/>
<stop offset="1" stop-color="#F36F56"/>
</linearGradient>
<linearGradient id="paint13_linear_1115_33" x1="485.099" y1="499.372" x2="607.707" y2="747.019" gradientUnits="userSpaceOnUse">
<stop stop-color="#E38DDD"/>
<stop offset="1" stop-color="#9571F6"/>
</linearGradient>
<linearGradient id="paint14_linear_1115_33" x1="306.179" y1="399.821" x2="470.378" y2="610.937" gradientUnits="userSpaceOnUse">
<stop stop-color="#AA80F9"/>
<stop offset="1" stop-color="#6165D7"/>
</linearGradient>
<linearGradient id="paint15_linear_1115_33" x1="646.801" y1="214.549" x2="515.597" y2="397.516" gradientUnits="userSpaceOnUse">
<stop stop-color="#FF9085"/>
<stop offset="1" stop-color="#FB6FBB"/>
</linearGradient>
<linearGradient id="paint16_linear_1115_33" x1="249.698" y1="207.853" x2="123.452" y2="621.477" gradientUnits="userSpaceOnUse">
<stop stop-color="#FFC444"/>
<stop offset="1" stop-color="#F36F56"/>
</linearGradient>
<linearGradient id="paint17_linear_1115_33" x1="391.923" y1="910.615" x2="638.101" y2="567.321" gradientUnits="userSpaceOnUse">
<stop stop-color="#FF9085"/>
<stop offset="1" stop-color="#FB6FBB"/>
</linearGradient>
<linearGradient id="paint18_linear_1115_33" x1="695.213" y1="891.886" x2="702.773" y2="985.192" gradientUnits="userSpaceOnUse">
<stop stop-color="#311944"/>
<stop offset="1" stop-color="#A03976"/>
</linearGradient>
<linearGradient id="paint19_linear_1115_33" x1="714.272" y1="943.8" x2="712.703" y2="847.147" gradientUnits="userSpaceOnUse">
<stop stop-color="#FFC444"/>
<stop offset="1" stop-color="#F36F56"/>
</linearGradient>
<linearGradient id="paint20_linear_1115_33" x1="833.753" y1="880.67" x2="841.313" y2="973.97" gradientUnits="userSpaceOnUse">
<stop stop-color="#311944"/>
<stop offset="1" stop-color="#A03976"/>
</linearGradient>
<linearGradient id="paint21_linear_1115_33" x1="841.257" y1="941.736" x2="839.69" y2="845.083" gradientUnits="userSpaceOnUse">
<stop stop-color="#FFC444"/>
<stop offset="1" stop-color="#F36F56"/>
</linearGradient>
<linearGradient id="paint22_linear_1115_33" x1="690.822" y1="787.281" x2="762.285" y2="787.106" gradientUnits="userSpaceOnUse">
<stop stop-color="#444B8C"/>
<stop offset="1" stop-color="#3E4177"/>
</linearGradient>
<linearGradient id="paint23_linear_1115_33" x1="690.822" y1="787.28" x2="762.286" y2="787.106" gradientUnits="userSpaceOnUse">
<stop stop-color="#444B8C"/>
<stop offset="1" stop-color="#3E4177"/>
</linearGradient>
<linearGradient id="paint24_linear_1115_33" x1="710.635" y1="780.181" x2="854.502" y2="779.829" gradientUnits="userSpaceOnUse">
<stop stop-color="#444B8C"/>
<stop offset="1" stop-color="#3E4177"/>
</linearGradient>
<linearGradient id="paint25_linear_1115_33" x1="797.408" y1="451.5" x2="782.142" y2="586.178" gradientUnits="userSpaceOnUse">
<stop stop-color="#FFC444"/>
<stop offset="1" stop-color="#F36F56"/>
</linearGradient>
<linearGradient id="paint26_linear_1115_33" x1="801.555" y1="482.814" x2="780.017" y2="419.446" gradientUnits="userSpaceOnUse">
<stop stop-color="#444B8C"/>
<stop offset="1" stop-color="#3E4177"/>
</linearGradient>
<linearGradient id="paint27_linear_1115_33" x1="783.681" y1="435.999" x2="795.678" y2="535.234" gradientUnits="userSpaceOnUse">
<stop stop-color="#FFC444"/>
<stop offset="1" stop-color="#F36F56"/>
</linearGradient>
<linearGradient id="paint28_linear_1115_33" x1="608.734" y1="592.36" x2="724.471" y2="592.36" gradientUnits="userSpaceOnUse">
<stop stop-color="#AA80F9"/>
<stop offset="1" stop-color="#6165D7"/>
</linearGradient>
<linearGradient id="paint29_linear_1115_33" x1="584.059" y1="616.095" x2="606.323" y2="629.583" gradientUnits="userSpaceOnUse">
<stop stop-color="#FFC444"/>
<stop offset="1" stop-color="#F36F56"/>
</linearGradient>
<linearGradient id="paint30_linear_1115_33" x1="682.32" y1="629.069" x2="919.773" y2="629.069" gradientUnits="userSpaceOnUse">
<stop stop-color="#AA80F9"/>
<stop offset="1" stop-color="#6165D7"/>
</linearGradient>
<linearGradient id="paint31_linear_1115_33" x1="561.927" y1="646.513" x2="856.693" y2="646.513" gradientUnits="userSpaceOnUse">
<stop stop-color="#444B8C"/>
<stop offset="1" stop-color="#26264F"/>
</linearGradient>
<linearGradient id="paint32_linear_1115_33" x1="290.069" y1="553.466" x2="594.213" y2="553.466" gradientUnits="userSpaceOnUse">
<stop stop-color="#444B8C"/>
<stop offset="1" stop-color="#26264F"/>
</linearGradient>
<linearGradient id="paint33_linear_1115_33" x1="397.633" y1="728.522" x2="446.847" y2="504.309" gradientUnits="userSpaceOnUse">
<stop stop-color="#444B8C"/>
<stop offset="1" stop-color="#26264F"/>
</linearGradient>
<linearGradient id="paint34_linear_1115_33" x1="470.811" y1="400.416" x2="402.151" y2="701.106" gradientUnits="userSpaceOnUse">
<stop stop-color="#444B8C"/>
<stop offset="1" stop-color="#26264F"/>
</linearGradient>
<linearGradient id="paint35_linear_1115_33" x1="848.183" y1="705.999" x2="860.188" y2="674.953" gradientUnits="userSpaceOnUse">
<stop stop-color="#FFC444"/>
<stop offset="1" stop-color="#F36F56"/>
</linearGradient>
<linearGradient id="paint36_linear_1115_33" x1="789.3" y1="450.355" x2="793.272" y2="508.538" gradientUnits="userSpaceOnUse">
<stop stop-color="#444B8C"/>
<stop offset="1" stop-color="#26264F"/>
</linearGradient>
<linearGradient id="paint37_linear_1115_33" x1="775.812" y1="573.978" x2="775.812" y2="428.923" gradientUnits="userSpaceOnUse">
<stop stop-color="#444B8C"/>
<stop offset="1" stop-color="#26264F"/>
</linearGradient>
<linearGradient id="paint38_linear_1115_33" x1="752.955" y1="146.441" x2="688.001" y2="427.089" gradientUnits="userSpaceOnUse">
<stop stop-color="#D8DEE8"/>
<stop offset="1" stop-color="white"/>
</linearGradient>
<linearGradient id="paint39_linear_1115_33" x1="753.249" y1="132.713" x2="620.484" y2="349.755" gradientUnits="userSpaceOnUse">
<stop stop-color="#FF9085"/>
<stop offset="1" stop-color="#FB6FBB"/>
</linearGradient>
<linearGradient id="paint40_linear_1115_33" x1="633.95" y1="250.998" x2="603.695" y2="345.416" gradientUnits="userSpaceOnUse">
<stop stop-color="#FF9085"/>
<stop offset="1" stop-color="#FB6FBB"/>
</linearGradient>
<linearGradient id="paint41_linear_1115_33" x1="661.214" y1="282.948" x2="644.432" y2="335.312" gradientUnits="userSpaceOnUse">
<stop stop-color="#FF9085"/>
<stop offset="1" stop-color="#FB6FBB"/>
</linearGradient>
<linearGradient id="paint42_linear_1115_33" x1="691.01" y1="298.136" x2="680.617" y2="330.572" gradientUnits="userSpaceOnUse">
<stop stop-color="#FF9085"/>
<stop offset="1" stop-color="#FB6FBB"/>
</linearGradient>
<linearGradient id="paint43_linear_1115_33" x1="738.191" y1="212.88" x2="691.696" y2="357.976" gradientUnits="userSpaceOnUse">
<stop stop-color="#FF9085"/>
<stop offset="1" stop-color="#FB6FBB"/>
</linearGradient>
<linearGradient id="paint44_linear_1115_33" x1="767.566" y1="225.286" x2="726.278" y2="354.126" gradientUnits="userSpaceOnUse">
<stop stop-color="#FF9085"/>
<stop offset="1" stop-color="#FB6FBB"/>
</linearGradient>
<linearGradient id="paint45_linear_1115_33" x1="802.184" y1="205.589" x2="752.53" y2="360.549" gradientUnits="userSpaceOnUse">
<stop stop-color="#FF9085"/>
<stop offset="1" stop-color="#FB6FBB"/>
</linearGradient>
<linearGradient id="paint46_linear_1115_33" x1="827.273" y1="237.124" x2="790.919" y2="350.576" gradientUnits="userSpaceOnUse">
<stop stop-color="#FF9085"/>
<stop offset="1" stop-color="#FB6FBB"/>
</linearGradient>
<linearGradient id="paint47_linear_1115_33" x1="851.413" y1="271.606" x2="829.603" y2="339.672" gradientUnits="userSpaceOnUse">
<stop stop-color="#FF9085"/>
<stop offset="1" stop-color="#FB6FBB"/>
</linearGradient>
</defs>
</svg>
