<svg width="1080" height="1080" viewBox="0 0 1080 1080" fill="none" xmlns="http://www.w3.org/2000/svg">
<rect width="1080" height="1080" fill="white"/>
<path d="M1080 0H0V613H1080V0Z" fill="#EFF6FF"/>
<path d="M341.927 54.375H217.531V220.563H341.927V54.375Z" fill="white"/>
<path d="M311.557 66.0938H255.141V74.8985H311.557V66.0938Z" fill="#BFC9E2"/>
<path d="M331.791 106.578H229.094V115.985H331.791V106.578Z" fill="#BFC9E2"/>
<path d="M331.791 123.344H229.094V132.751H331.791V123.344Z" fill="#BFC9E2"/>
<path d="M331.791 140.117H229.094V149.524H331.791V140.117Z" fill="#BFC9E2"/>
<path d="M331.791 156.875H229.094V166.282H331.791V156.875Z" fill="#BFC9E2"/>
<path d="M289.122 173.625H229.094V183.032H289.122V173.625Z" fill="#BFC9E2"/>
<path d="M731.316 678.479C731.316 691.649 662.483 702.31 577.595 702.31C492.708 702.31 423.875 691.649 423.875 678.479V669.875H731.316V678.479Z" fill="#381905"/>
<path d="M577.595 693.708C662.493 693.708 731.316 683.039 731.316 669.878C731.316 656.716 662.493 646.047 577.595 646.047C492.698 646.047 423.875 656.716 423.875 669.878C423.875 683.039 492.698 693.708 577.595 693.708Z" fill="#454658"/>
<path d="M599.345 655.567L596.26 610.062H558.933L555.823 655.567C549.175 657.072 544.961 659.254 544.961 661.687C544.961 666.228 559.585 669.89 577.571 669.89C595.557 669.89 610.182 666.228 610.182 661.687C610.232 659.254 606.018 657.072 599.345 655.567Z" fill="#381905"/>
<path d="M279.711 241.896V626.097C279.711 627.887 280.422 629.603 281.687 630.869C282.953 632.134 284.669 632.845 286.459 632.845H868.73C869.615 632.845 870.491 632.67 871.309 632.331C872.126 631.991 872.868 631.494 873.493 630.867C874.117 630.24 874.612 629.496 874.948 628.677C875.285 627.859 875.456 626.982 875.453 626.097V241.896C875.453 240.111 874.745 238.398 873.485 237.134C872.225 235.869 870.515 235.155 868.73 235.148H286.459C284.671 235.155 282.959 235.868 281.695 237.132C280.431 238.396 279.718 240.109 279.711 241.896Z" fill="#454658"/>
<path d="M861.51 254.547H293.688V613.437H861.51V254.547Z" fill="#EFF6FF"/>
<path d="M318.194 498.633L704 498.633V319.125L318.194 319.125V498.633Z" fill="white"/>
<path d="M615.549 498.609H656.789L656.789 -0.00378418H615.549L615.549 498.609Z" fill="#0DB3F1"/>
<path d="M365.385 498.633H406.625L406.625 227.716H365.385L365.385 498.633Z" fill="#1C4670"/>
<path d="M448.792 498.633H490.031L490.031 186.476H448.792L448.792 498.633Z" fill="#0DB3F1"/>
<path d="M532.198 498.633H573.438V274.449H532.198V498.633Z" fill="#1C4670"/>
<path d="M649.492 47.0232C649.492 44.3877 648.71 41.8114 647.245 39.6204C645.78 37.4293 643.699 35.7221 641.263 34.7147C638.828 33.7072 636.148 33.4449 633.564 33.9609C630.979 34.4769 628.606 35.748 626.744 37.6134C624.882 39.4787 623.616 41.8545 623.104 44.44C622.593 47.0255 622.861 49.7045 623.873 52.138C624.885 54.5715 626.596 56.6501 628.79 58.1107C630.983 59.5713 633.561 60.3483 636.197 60.3433C637.945 60.3433 639.676 59.9986 641.29 59.3289C642.905 58.6592 644.372 57.6776 645.607 56.4404C646.841 55.2032 647.82 53.7346 648.487 52.1187C649.154 50.5028 649.495 48.7712 649.492 47.0232Z" fill="white"/>
<path d="M566.101 294.008C566.101 291.373 565.32 288.798 563.856 286.607C562.393 284.417 560.312 282.71 557.878 281.701C555.444 280.693 552.766 280.429 550.182 280.943C547.599 281.457 545.225 282.726 543.362 284.589C541.499 286.452 540.231 288.825 539.717 291.409C539.203 293.993 539.467 296.671 540.475 299.105C541.483 301.539 543.19 303.619 545.381 305.083C547.571 306.547 550.147 307.328 552.781 307.328C554.531 307.331 556.265 306.989 557.882 306.321C559.5 305.652 560.97 304.671 562.207 303.434C563.445 302.196 564.426 300.726 565.094 299.109C565.762 297.491 566.104 295.758 566.101 294.008Z" fill="white"/>
<path d="M482.734 206.39C482.734 203.756 481.953 201.181 480.489 198.99C479.025 196.8 476.945 195.092 474.511 194.084C472.077 193.076 469.399 192.812 466.815 193.326C464.231 193.84 461.858 195.109 459.995 196.972C458.132 198.835 456.864 201.208 456.35 203.792C455.836 206.376 456.1 209.054 457.108 211.488C458.116 213.922 459.823 216.002 462.014 217.466C464.204 218.929 466.779 219.71 469.414 219.71C472.947 219.71 476.335 218.307 478.833 215.809C481.331 213.311 482.734 209.923 482.734 206.39Z" fill="white"/>
<path d="M399.32 247.72C399.325 245.084 398.547 242.505 397.085 240.31C395.624 238.116 393.544 236.405 391.109 235.394C388.674 234.382 385.993 234.117 383.407 234.63C380.821 235.143 378.445 236.412 376.581 238.276C374.717 240.141 373.448 242.516 372.934 245.103C372.421 247.689 372.687 250.369 373.698 252.804C374.71 255.239 376.421 257.319 378.615 258.781C380.81 260.243 383.388 261.02 386.025 261.015C387.771 261.015 389.5 260.671 391.113 260.003C392.726 259.335 394.191 258.356 395.426 257.121C396.66 255.887 397.64 254.421 398.308 252.808C398.976 251.195 399.32 249.466 399.32 247.72Z" fill="white"/>
<path d="M636.203 47.0312L552.796 294.018L469.414 206.396L386.031 247.736" stroke="white" stroke-width="2.33" stroke-linecap="round" stroke-linejoin="round"/>
<path d="M318.194 550.727H704V514.981H318.194V550.727Z" fill="#0DB3F1"/>
<path d="M830.028 378.477H746.922V390.643H830.028V378.477Z" fill="white"/>
<path d="M764.18 405.133H746.922V417.299H764.18V405.133Z" fill="white"/>
<path d="M830.006 405.133H773.891V417.299H830.006V405.133Z" fill="white"/>
<path d="M830.028 431.805H746.922V443.971H830.028V431.805Z" fill="white"/>
<path d="M830.006 458.438H773.891V470.604H830.006V458.438Z" fill="white"/>
<path d="M764.18 458.438H746.922V470.604H764.18V458.438Z" fill="white"/>
<path d="M830.028 485.109H746.922V497.276H830.028V485.109Z" fill="white"/>
<path d="M764.18 511.789H746.922V523.955H764.18V511.789Z" fill="white"/>
<path d="M830.006 511.789H773.891V523.955H830.006V511.789Z" fill="white"/>
<path d="M788.465 313.852C775.253 313.852 762.338 309.935 751.352 302.594C740.367 295.254 731.805 284.821 726.749 272.615C721.693 260.409 720.37 246.977 722.948 234.019C725.525 221.061 731.887 209.158 741.23 199.816C750.572 190.473 762.475 184.111 775.433 181.534C788.391 178.956 801.823 180.279 814.029 185.335C826.235 190.391 836.668 198.953 844.008 209.938C851.349 220.924 855.266 233.839 855.266 247.051C855.24 264.76 848.193 281.736 835.671 294.257C823.15 306.779 806.174 313.826 788.465 313.852Z" fill="white"/>
<path d="M731.852 247.04C731.847 235.841 735.163 224.893 741.381 215.579C747.599 206.265 756.44 199.004 766.785 194.715C777.13 190.426 788.514 189.302 799.498 191.483C810.482 193.665 820.573 199.055 828.493 206.972C836.414 214.889 841.809 224.977 843.995 235.961C846.182 246.944 845.062 258.329 840.778 268.676C836.493 279.022 829.237 287.866 819.925 294.088C810.614 300.311 799.667 303.632 788.468 303.632C781.034 303.635 773.673 302.174 766.804 299.331C759.935 296.489 753.693 292.321 748.436 287.065C743.178 281.81 739.007 275.57 736.162 268.703C733.316 261.835 731.852 254.474 731.852 247.04Z" fill="#E1AD19"/>
<path d="M830.277 255.074V239.019H817.735C817.068 236.564 816.09 234.203 814.825 231.995L823.655 223.166L812.291 211.802L803.461 220.632C801.254 219.367 798.893 218.389 796.438 217.722V205.18H780.383V217.722C777.927 218.389 775.567 219.367 773.359 220.632L764.53 211.802L753.216 223.166L762.046 231.995C760.781 234.203 759.803 236.564 759.136 239.019H746.594V255.074H759.136C759.807 257.536 760.785 259.904 762.046 262.122L753.216 271.028L764.58 282.391L773.41 273.561C775.617 274.827 777.978 275.804 780.433 276.471V289.014H796.488V276.471C798.943 275.804 801.304 274.827 803.511 273.561L812.341 282.391L823.705 271.028L814.875 262.223C816.136 260.004 817.114 257.636 817.785 255.174L830.277 255.074Z" fill="#E1AD19" stroke="#F2F2F2" stroke-linecap="round" stroke-linejoin="round"/>
<path d="M773.281 247.059C773.281 244.082 774.164 241.172 775.818 238.697C777.472 236.222 779.822 234.293 782.572 233.154C785.323 232.014 788.349 231.716 791.268 232.297C794.188 232.878 796.87 234.311 798.975 236.416C801.08 238.521 802.513 241.203 803.094 244.122C803.675 247.042 803.377 250.068 802.237 252.819C801.098 255.569 799.169 257.919 796.694 259.573C794.219 261.227 791.309 262.11 788.332 262.11C784.34 262.11 780.512 260.524 777.69 257.701C774.867 254.879 773.281 251.051 773.281 247.059Z" fill="#E1AD19" stroke="#F2F2F2" stroke-linecap="round" stroke-linejoin="round"/>
<path d="M461.783 119.876C461.783 123.762 460.63 127.56 458.471 130.791C456.312 134.021 453.243 136.539 449.652 138.025C446.062 139.511 442.111 139.898 438.3 139.138C434.49 138.378 430.99 136.505 428.244 133.756C425.498 131.006 423.629 127.504 422.874 123.692C422.119 119.881 422.512 115.931 424.002 112.342C425.493 108.753 428.014 105.688 431.248 103.532C434.481 101.377 438.281 100.229 442.167 100.234C444.745 100.234 447.298 100.743 449.679 101.73C452.061 102.717 454.224 104.165 456.046 105.989C457.868 107.813 459.313 109.978 460.297 112.361C461.281 114.744 461.786 117.298 461.783 119.876Z" stroke="#F2F2F2" stroke-width="0.73" stroke-linecap="round" stroke-linejoin="round"/>
<path d="M440.087 138.741C440.087 138.741 441.191 122.837 437.578 123.339C433.966 123.841 435.647 131.015 445.43 128.356C455.213 125.697 448.666 118.171 445.43 119.15C442.194 120.128 444.426 138.666 444.426 138.666" stroke="#F2F2F2" stroke-width="0.73" stroke-linecap="round" stroke-linejoin="round"/>
<path d="M450.577 144.928H433.695C432.97 144.928 432.275 144.64 431.762 144.127C431.249 143.614 430.961 142.919 430.961 142.194C430.961 141.836 431.032 141.481 431.17 141.151C431.307 140.821 431.509 140.521 431.763 140.269C432.018 140.017 432.319 139.818 432.651 139.683C432.982 139.549 433.337 139.481 433.695 139.484H450.577C450.935 139.481 451.29 139.549 451.622 139.683C451.953 139.818 452.255 140.017 452.509 140.269C452.764 140.521 452.965 140.821 453.103 141.151C453.241 141.481 453.312 141.836 453.312 142.194C453.312 142.919 453.024 143.614 452.511 144.127C451.998 144.64 451.303 144.928 450.577 144.928Z" stroke="#F2F2F2" stroke-width="0.73" stroke-linecap="round" stroke-linejoin="round"/>
<path d="M450.577 150.381H433.695C433.337 150.384 432.982 150.317 432.651 150.182C432.319 150.047 432.018 149.848 431.763 149.596C431.509 149.344 431.307 149.045 431.17 148.714C431.032 148.384 430.961 148.03 430.961 147.672C430.961 146.947 431.249 146.251 431.762 145.738C432.275 145.226 432.97 144.938 433.695 144.938H450.577C451.303 144.938 451.998 145.226 452.511 145.738C453.024 146.251 453.312 146.947 453.312 147.672C453.312 148.03 453.241 148.384 453.103 148.714C452.965 149.045 452.764 149.344 452.509 149.596C452.255 149.848 451.953 150.047 451.622 150.182C451.29 150.317 450.935 150.384 450.577 150.381Z" stroke="#F2F2F2" stroke-width="0.73" stroke-linecap="round" stroke-linejoin="round"/>
<path d="M445.267 156.088H439.046C438.292 156.107 437.548 155.909 436.903 155.517C436.258 155.126 435.74 154.558 435.408 153.88C435.308 153.633 435.257 153.369 435.258 153.103C435.258 152.657 435.435 152.229 435.75 151.914C436.065 151.599 436.493 151.422 436.939 151.422H447.374C447.82 151.422 448.247 151.599 448.562 151.914C448.877 152.229 449.055 152.657 449.055 153.103C449.059 153.372 448.999 153.639 448.879 153.88C448.554 154.558 448.041 155.127 447.4 155.519C446.759 155.91 446.018 156.108 445.267 156.088Z" stroke="#F2F2F2" stroke-width="0.73" stroke-linecap="round" stroke-linejoin="round"/>
<path d="M409.712 125.359L401.609 127.14" stroke="#F2F2F2" stroke-width="0.73" stroke-linecap="round" stroke-linejoin="round"/>
<path d="M419.091 101.204L403.789 86.0781" stroke="#F2F2F2" stroke-width="0.73" stroke-linecap="round" stroke-linejoin="round"/>
<path d="M443.133 91.5583L443.71 80.7969" stroke="#F2F2F2" stroke-width="0.73" stroke-linecap="round" stroke-linejoin="round"/>
<path d="M466.617 102.5L482.722 88.2266" stroke="#F2F2F2" stroke-width="0.73" stroke-linecap="round" stroke-linejoin="round"/>
<path d="M474.688 127.125L482.715 128.179" stroke="#F2F2F2" stroke-width="0.73" stroke-linecap="round" stroke-linejoin="round"/>
<path d="M844.023 505.876C844.023 505.876 868.908 646.929 883.206 686.613C891.309 709.19 920.106 679.289 916.519 667.423C912.932 655.558 908.768 492.632 897.605 486.461C893.039 483.952 888.148 484.303 883.281 484.705C863.59 486.36 849.918 499.43 844.023 505.876Z" fill="#E87578"/>
<path d="M925.17 694.336C920.856 674.97 913.932 657.235 907.034 650.362C900.963 644.317 880.644 646.524 880.343 657.11C878.011 680.389 909.141 776.589 912.352 796.632C913.932 806.666 912.477 810.128 920.103 811.031C922.262 811.325 924.459 811.128 926.53 810.455C928.602 809.782 930.495 808.65 932.069 807.143C934.903 801.624 932.294 794.901 931.893 787.075C931.492 779.248 929.485 713.702 925.17 694.336Z" fill="#E87578"/>
<path d="M940.107 827.329C939.756 844.889 932.582 858.159 924.003 858.71C910.306 859.613 911.46 840.674 911.711 823.165C911.962 805.656 916.728 795.17 925.232 795.346C933.736 795.522 940.433 809.845 940.107 827.329Z" fill="#CB374D"/>
<path d="M912.773 799.795C914.279 811.334 912.523 827.714 913.2 832.405C914.68 842.238 932.766 841.511 936.429 829.32C937.608 825.432 936.679 809.252 932.515 796.709C928.351 784.167 912.773 799.795 912.773 799.795Z" fill="#E87578"/>
<path d="M916.975 665.094C920.881 674.482 923.929 684.204 926.081 694.142C929.793 710.824 931.474 753.643 932.227 772.658C932.227 772.808 932.377 776.671 932.478 779.105C932.511 779.687 932.366 780.267 932.061 780.764C931.756 781.262 931.306 781.655 930.772 781.889C924.308 784.455 917.279 785.26 910.403 784.222C909.842 784.132 909.32 783.879 908.901 783.496C908.482 783.113 908.184 782.615 908.045 782.065C906.138 774.69 903.605 765.609 900.896 755.776C895.001 734.428 888.353 710.272 883.913 690.254C883.281 689.207 882.76 688.097 882.358 686.943C868.185 647.634 843.376 507.46 843.125 506.055V505.604L843.426 505.278C851.604 496.322 865.125 485.335 883.286 483.805C887.952 483.404 893.32 482.977 898.136 485.661C905.336 489.65 909.299 546.467 913.388 614.723C914.692 637.977 915.896 658.07 916.975 665.094Z" fill="#105F9A"/>
<path d="M844.706 508.896C844.706 508.896 847.39 652.106 840.968 693.797C837.331 717.452 803.341 693.797 804.595 681.254C805.849 668.712 778.632 508.168 788.39 500.041C792.404 496.679 797.27 496.103 802.137 495.576C821.678 493.519 837.682 503.678 844.706 508.896Z" fill="#E87578"/>
<path d="M801.261 709.429C801.788 689.612 805.174 670.874 810.618 662.797C815.409 655.697 835.703 653.967 838.211 664.277C844.984 686.702 832.893 787.193 833.596 807.261C833.947 817.295 836.104 820.556 828.754 822.888C826.685 823.604 824.48 823.838 822.306 823.573C820.133 823.308 818.048 822.55 816.212 821.358C812.374 816.492 813.703 809.393 812.524 801.566C811.345 793.74 800.734 729.272 801.261 709.429Z" fill="#E87578"/>
<path d="M812.163 842.798C815.85 859.906 825.508 871.596 833.986 870.517C847.582 868.761 842.917 850.449 839.229 833.266C835.542 816.083 828.969 806.751 820.591 808.557C812.213 810.363 808.4 825.69 812.163 842.798Z" fill="#CB374D"/>
<path d="M833.661 810.558C834.414 822.147 839.28 837.9 839.506 842.541C839.957 852.449 822.072 855.209 816.102 843.971C814.195 840.359 811.988 824.254 813.593 811.36C815.198 798.467 833.661 810.558 833.661 810.558Z" fill="#E87578"/>
<path d="M803.693 679.175C801.671 689.13 800.555 699.247 800.357 709.403C799.905 726.511 806.478 768.829 809.387 787.643L810.391 794.039C810.47 794.615 810.724 795.152 811.119 795.578C811.514 796.005 812.03 796.299 812.598 796.422C819.437 797.701 826.493 797.138 833.042 794.792C833.565 794.6 834.02 794.261 834.354 793.816C834.688 793.37 834.886 792.838 834.924 792.283C835.4 784.758 836.128 775.276 836.906 765.116C838.586 743.042 840.493 718.032 840.994 697.563C841.407 696.408 841.702 695.215 841.872 694.001C848.219 652.686 845.66 510.379 845.635 508.949V508.498L845.259 508.222C835.526 500.997 820.174 492.819 802.037 494.801C797.372 495.328 792.004 495.905 787.814 499.492C781.493 504.785 788.517 561.301 797.623 629.081C800.733 652.109 803.392 672.051 803.693 679.175Z" fill="#105F9A"/>
<path d="M788.084 542.936V541.807C787.708 536.79 787.457 531.773 787.332 526.63C787.181 520.911 787.181 515.192 787.332 509.472C787.332 506.537 787.633 503.577 787.858 500.642C787.858 499.915 788.009 499.162 788.059 498.435C788.079 497.809 788.163 497.187 788.31 496.579C788.686 495.475 789.589 494.647 790.016 493.568C790.367 492.322 790.367 491.002 790.016 489.756C789.774 488.755 789.681 487.723 789.74 486.695C789.865 485.742 790.041 484.814 790.216 483.886C790.618 481.879 791.094 479.897 791.596 477.941C792.886 472.849 794.764 467.924 797.19 463.266C797.395 462.888 797.714 462.586 798.101 462.401C798.489 462.216 798.925 462.159 799.347 462.237C812.341 464.345 830.402 468.433 847.31 468.308C862.672 468.168 877.998 466.793 893.14 464.194C893.477 464.143 893.821 464.173 894.144 464.282C894.467 464.391 894.759 464.576 894.996 464.821C898.483 468.659 911.452 487.222 903.4 544.09L788.084 542.936Z" fill="#105F9A"/>
<path d="M886.168 519.977C886.168 519.977 883.057 538.339 901.42 535.579" stroke="#08051A" stroke-width="0.66" stroke-linecap="round" stroke-linejoin="round"/>
<path d="M802.656 514.133C802.656 514.133 805.29 529.535 791.117 528.055" stroke="#08051A" stroke-width="0.66" stroke-linecap="round" stroke-linejoin="round"/>
<path d="M838.504 489.055C838.504 489.055 837.475 537.544 838.504 539.225C839.532 540.905 844.951 540.93 844.951 540.93" stroke="#08051A" stroke-width="0.66" stroke-linecap="round" stroke-linejoin="round"/>
<path d="M844.93 536.331L845.431 490.852" stroke="#08051A" stroke-width="0.66" stroke-linecap="round" stroke-linejoin="round"/>
<path d="M887.9 297.879C882.883 290.027 889.681 282.953 891.211 266.247C891.989 257.943 893.72 240.234 883.184 227.566C870.466 212.163 847.839 213.869 843.048 214.371C836.175 215.124 826.467 216.152 821.325 223.276C816.182 230.4 820.773 237.65 814.226 246.881C809.209 253.855 804.066 253.378 803.364 258.671C802.486 265.369 809.685 274.098 810.638 275.202C812.595 277.535 814.401 279.015 814.752 281.849C814.865 284.757 813.87 287.599 811.968 289.801C808.832 294.317 801.934 304.351 799.426 311.951C799.2 312.629 796.164 322.412 799.124 328.081C804.292 337.99 829.226 338.115 860.557 328.081C893.168 335.08 903.603 331.568 906.563 326.325C909.523 321.082 904.431 312.98 904.055 312.177C899.013 303.372 892.014 304.351 887.9 297.879Z" fill="#08051A"/>
<path d="M704.867 304.868C704.867 304.868 690.97 284.8 676.747 284.65C662.524 284.499 682.642 295.437 683.771 297.067C684.899 298.698 693.804 317.612 694.306 317.612C698.059 313.562 701.585 309.308 704.867 304.868Z" fill="#E87578"/>
<path d="M740.194 413.11C738.057 411.756 736.37 409.798 735.347 407.484C734.325 405.17 734.013 402.604 734.451 400.112C734.889 397.621 736.057 395.315 737.808 393.489C739.558 391.662 741.812 390.396 744.283 389.853C746.754 389.309 749.33 389.512 751.686 390.435C754.041 391.359 756.069 392.961 757.513 395.039C758.956 397.117 759.749 399.576 759.792 402.106C759.835 404.636 759.126 407.121 757.754 409.247C755.924 412.071 753.054 414.06 749.767 414.783C746.48 415.506 743.041 414.905 740.194 413.11Z" fill="#E87578"/>
<path d="M807.904 343.928C804.627 341.832 802.046 338.811 800.486 335.248C798.927 331.685 798.459 327.739 799.141 323.91C799.824 320.081 801.627 316.54 804.321 313.736C807.016 310.931 810.482 308.989 814.281 308.154C818.08 307.319 822.041 307.629 825.664 309.046C829.286 310.462 832.408 312.921 834.633 316.111C836.858 319.301 838.087 323.079 838.165 326.968C838.243 330.857 837.166 334.681 835.071 337.958C832.256 342.347 827.814 345.441 822.722 346.56C817.629 347.679 812.3 346.733 807.904 343.928Z" fill="#E87578"/>
<path d="M801.911 312.918L734.483 394.369C732.742 397.344 732.075 400.826 732.593 404.233C733.111 407.641 734.783 410.767 737.329 413.09C739.875 415.413 743.141 416.792 746.582 416.996C750.022 417.2 753.429 416.217 756.232 414.211L757.085 413.484C757.335 413.258 757.536 413.007 757.787 412.756L834.196 343.572C848.243 330.703 839.213 313.771 830.834 308.453C826.3 305.537 820.855 304.381 815.527 305.204C810.198 306.026 805.355 308.77 801.911 312.918Z" fill="#FFA229"/>
<path d="M866.389 338.078L911.718 433.602C913.691 436.404 916.562 438.448 919.855 439.397C923.148 440.346 926.667 440.142 929.829 438.82C932.99 437.498 935.607 435.137 937.244 432.126C938.882 429.116 939.443 425.636 938.835 422.263C938.835 421.887 938.659 421.536 938.559 421.185C938.458 420.834 938.308 420.558 938.207 420.232L907.754 321.748C902.06 303.562 882.92 304.54 874.441 309.908C869.882 312.803 866.544 317.27 865.06 322.462C863.576 327.655 864.049 333.212 866.389 338.078Z" fill="#FFA229"/>
<path d="M760.095 395.187L716.523 320.961L699.164 331.221L733.154 408.106L733.48 408.859L733.631 409.16C734.206 410.285 734.914 411.337 735.738 412.295C738.243 414.821 741.563 416.379 745.107 416.69C748.651 417.001 752.192 416.047 755.099 413.996C758.007 411.946 760.094 408.931 760.99 405.488C761.886 402.045 761.534 398.395 759.995 395.187H760.095Z" fill="#FFA229"/>
<path d="M709.241 308.667C708.955 308.203 708.636 307.758 708.288 307.338C706.839 305.691 704.851 304.613 702.68 304.299C700.509 303.984 698.296 304.453 696.44 305.621C694.583 306.79 693.203 308.581 692.547 310.675C691.891 312.768 692.002 315.027 692.861 317.046V317.171L699.007 331.018L716.365 320.758L709.241 308.667Z" fill="#E87578"/>
<path d="M698.336 319.751C698.655 320.182 698.873 320.68 698.974 321.206C699.076 321.733 699.058 322.276 698.921 322.795C698.785 323.314 698.534 323.796 698.187 324.205C697.84 324.614 697.406 324.94 696.916 325.159C696.426 325.378 695.893 325.484 695.357 325.47C694.821 325.456 694.294 325.322 693.817 325.077C693.339 324.833 692.923 324.484 692.598 324.057C692.273 323.63 692.048 323.136 691.939 322.61C668.66 268.845 645.39 215.071 622.127 161.289C621.996 161.03 621.972 160.728 622.061 160.451C622.15 160.174 622.345 159.943 622.604 159.809C622.742 159.748 622.891 159.714 623.042 159.711C623.193 159.708 623.344 159.736 623.484 159.792C623.624 159.848 623.752 159.932 623.86 160.038C623.967 160.144 624.052 160.271 624.109 160.411L698.336 319.751Z" fill="#323444"/>
<path d="M692.009 307.009C692.009 307.009 692.009 306.858 692.009 306.758C691.809 306.077 691.407 305.473 690.855 305.027C690.353 304.55 689.751 304.149 689.249 303.672C688.978 303.462 688.766 303.185 688.635 302.869C688.503 302.552 688.455 302.207 688.497 301.866C688.622 301.507 688.799 301.169 689.023 300.863C689.197 300.533 689.3 300.171 689.326 299.8C689.352 299.429 689.3 299.056 689.174 298.705C688.622 297.2 686.666 296.749 685.336 296.197L680.971 294.316L677.886 292.961C677.501 292.843 677.131 292.684 676.782 292.484C678.011 293.463 676.782 293.086 677.334 292.986C676.707 293.111 675.728 292.836 674.976 294.541C674.8 295.638 674.8 296.756 674.976 297.853C675.453 299.032 677.484 299.583 677.861 299.659C678.237 299.734 675.478 301.966 676.13 303.798C676.782 305.629 679.943 306.733 680.745 307.159C681.548 307.585 679.592 309.793 682.276 312.628L682.677 312.979L685.963 313.506L689.299 314.007C690.127 314.007 691.281 314.409 691.808 313.43C691.918 313.195 691.975 312.938 691.975 312.678C691.975 312.418 691.918 312.161 691.808 311.925C691.567 311.469 691.234 311.067 690.83 310.746C690.403 310.37 689.901 309.868 690.127 309.367C690.353 308.865 691.005 308.89 691.482 308.639C691.715 308.445 691.888 308.189 691.981 307.9C692.074 307.611 692.084 307.302 692.009 307.009Z" fill="#E87578"/>
<path d="M676.758 292.43C676.758 292.43 689.024 297.447 689.15 299.077C689.275 300.708 689.15 303.718 679.743 299.83" stroke="#08051A" stroke-width="0.61" stroke-linecap="round" stroke-linejoin="round"/>
<path d="M686.023 301.695C686.023 301.695 692.62 304.078 692.219 307.415C691.817 310.751 680.68 307.114 680.68 307.114" stroke="#08051A" stroke-width="0.61" stroke-linecap="round" stroke-linejoin="round"/>
<path d="M685.686 308.383C685.686 308.383 692.659 310.716 691.882 313.024C691.104 315.331 682.977 312.472 682.977 312.472" stroke="#08051A" stroke-width="0.61" stroke-linecap="round" stroke-linejoin="round"/>
<path d="M710.226 310.215C710.452 305.749 707.894 292.429 704.883 291.175C701.873 289.921 690.936 293.809 693.269 298.701C695.602 303.592 698.286 297.446 699.515 298.224C700.744 299.002 695.15 305.749 696.555 308.509" fill="#E87578"/>
<path d="M704.883 291.104C701.873 289.825 690.936 293.738 693.269 298.63C695.602 303.521 698.286 297.376 699.515 298.153C700.744 298.931 695.15 305.679 696.555 308.438" stroke="#08051A" stroke-width="0.61" stroke-linecap="round" stroke-linejoin="round"/>
<path d="M806.1 346.962C802.194 350.344 798.924 354.396 796.442 358.927C792.454 367.381 794.26 377.365 796.768 386.521C798.85 394.046 801.509 401.572 801.334 409.599C801.334 414.265 800.105 418.955 799.854 423.696C799.651 427.956 799.105 432.192 798.223 436.364C793.733 457.887 792.604 464.485 790.698 472.11C788.616 480.213 785.179 500.682 783.298 509.738C783.043 510.87 783.177 512.054 783.678 513.101C784.178 514.147 785.016 514.995 786.057 515.507C804.628 524.805 825.1 529.676 845.868 529.736C866.637 529.797 887.137 525.047 905.762 515.859C906.72 515.378 907.508 514.615 908.019 513.674C908.531 512.732 908.741 511.656 908.622 510.591C907.744 501.886 906.49 481.392 904.935 473.34C904.935 473.34 903.379 466.893 900.821 448.48C898.563 432.276 897.66 416.046 895.954 399.791C894.399 384.74 900.77 370.667 899.29 355.365C897.937 343.496 899.665 331.479 904.307 320.472C905.411 309.008 888.429 300.931 862.867 296.892C835.7 292.578 806.702 303.264 805.598 314.728C805.598 314.728 801.81 387.248 800.431 413.913" fill="#FFA229"/>
<path d="M810.012 331.227C809.872 335.761 808.678 340.201 806.526 344.195C803.842 348.686 799.527 351.947 796.692 356.286C793.745 360.711 792.63 366.107 793.582 371.337C796.09 387.316 802.512 402.769 800.029 420.604" stroke="#08051A" stroke-width="0.66" stroke-linecap="round" stroke-linejoin="round"/>
<path d="M860.346 298.488L852.369 297.76C835.713 294.7 824.149 314.667 828.765 326.382C833.38 338.097 877.505 311.356 860.346 298.488Z" fill="#E87578"/>
<path d="M844.844 300.826L859.468 305.216L869.904 270.398L853.573 271.703L844.844 300.826Z" fill="#E87578"/>
<path d="M845.891 297.435L851.685 271.898L868.266 271.07C863.601 280.302 854.996 292.894 845.891 297.435Z" fill="#08051A"/>
<path d="M869.629 272.151C869.629 272.151 867.697 274.183 864.612 276.967C855.983 284.643 840.154 291.516 828.138 283.063C811.758 271.549 822.72 226.421 832.227 219.949C854.277 204.973 889.145 229.08 869.629 272.151Z" fill="#E87578"/>
<path d="M832.637 264.032C832.274 263.732 831.852 263.511 831.398 263.386C830.944 263.261 830.469 263.233 830.003 263.304C829.6 263.47 829.247 263.737 828.979 264.08C828.711 264.423 828.536 264.83 828.473 265.261C828.267 266.311 828.451 267.401 828.991 268.325C829.532 269.249 830.391 269.943 831.408 270.278C832.312 270.53 833.275 270.468 834.14 270.104C835.006 269.74 835.722 269.094 836.174 268.271C836.952 266.164 834.017 264.885 832.637 264.032Z" fill="#08051A"/>
<path d="M880.201 265.239C877.491 266.092 869.866 269.303 867.081 266.92C866.304 266.243 866.605 265.816 866.63 264.888C866.678 263.204 866.526 261.52 866.178 259.871C865.235 256.093 863.129 252.706 860.158 250.188C855.517 246.2 849.472 244.419 844.705 240.606C841.207 237.681 838.506 233.919 836.854 229.669C834.739 225.016 834.479 219.732 836.126 214.894C840.516 203.982 853.686 207.368 861.964 211.006C867.27 213.218 872.024 216.572 875.887 220.83C879.75 225.087 882.627 230.143 884.315 235.639C885.626 240.599 885.938 245.771 885.232 250.853C884.525 255.934 882.815 260.825 880.201 265.239Z" fill="#08051A"/>
<path d="M835.642 248.234C835.642 248.234 835.09 254.506 833.735 254.606C832.381 254.706 829.972 252.825 829.621 253.377C829.27 253.929 830.524 256.462 832.556 257.39" stroke="#08051A" stroke-width="0.66" stroke-linecap="round" stroke-linejoin="round"/>
<path d="M864.954 266.409C862.22 270.071 862.27 274.712 864.954 276.794C867.638 278.876 872.203 277.547 874.988 273.884C877.772 270.222 877.647 265.581 874.862 263.499C872.078 261.417 867.663 262.722 864.954 266.409Z" fill="#E87578"/>
<path d="M873.622 267.39C870.336 266.211 867.15 271.705 868.379 274.063C868.379 274.063 869.132 271.329 870.536 272.407C871.941 273.486 869.909 274.514 869.909 274.514" stroke="#08051A" stroke-width="0.66" stroke-linecap="round" stroke-linejoin="round"/>
<path d="M849.138 247.55C848.486 248.202 850.242 249.757 852.299 251.814C854.356 253.871 855.359 256.204 856.012 255.552C856.664 254.899 856.012 252.165 854.005 250.108C851.998 248.051 849.79 246.897 849.138 247.55Z" fill="#08051A"/>
<path d="M830.709 240.696C830.709 241.524 828.552 241.549 825.868 241.7C823.184 241.85 821.002 242.854 820.851 242.001C820.701 241.148 822.908 239.492 825.617 239.492C828.326 239.492 830.659 239.843 830.709 240.696Z" fill="#08051A"/>
<path d="M849.587 257.499C849.547 257.055 849.402 256.626 849.162 256.25C848.922 255.873 848.596 255.56 848.21 255.336C847.823 255.113 847.389 254.985 846.944 254.964C846.498 254.943 846.054 255.03 845.648 255.216" stroke="#08051A" stroke-width="0.66" stroke-linecap="round" stroke-linejoin="round"/>
<path d="M828.473 250.196C828.12 249.664 827.669 249.204 827.144 248.842C826.871 248.665 826.553 248.57 826.228 248.57C825.903 248.57 825.585 248.665 825.312 248.842" stroke="#08051A" stroke-width="0.66" stroke-linecap="round" stroke-linejoin="round"/>
<path d="M870.054 262.477C866.618 263.957 865.639 271.508 865.338 274.142C865.037 276.775 861.952 273.866 863.883 266.215C865.815 258.564 865.263 255.052 861.199 251.164C857.135 247.276 875.974 246.648 875.974 246.648" fill="#08051A"/>
<path d="M883.164 323.703C883.301 328.231 884.495 332.663 886.651 336.647C889.335 341.162 893.65 344.398 896.484 348.763C899.444 353.182 900.56 358.583 899.595 363.814C897.086 379.768 898.993 430.766 901.476 454.396" stroke="#08051A" stroke-width="0.66" stroke-linecap="round" stroke-linejoin="round"/>
<path d="M942.612 325.348C940.931 322.388 938.573 320.582 936.165 320.858C932.126 321.334 934.008 326.803 934.785 333.726C934.94 337.097 935.351 340.452 936.014 343.76C936.179 344.979 936.786 346.095 937.72 346.896C945.246 352.941 948.331 357.908 961.551 341.553C965.167 337.296 967.697 332.226 968.926 326.778C969.277 322.965 966.543 322.338 966.844 321.761C967.789 320.125 968.315 318.281 968.374 316.393C967.772 314.612 964.059 314.787 964.561 314.235C965.063 313.684 966.041 312.329 965.69 311.125C965.153 310.191 964.476 309.345 963.683 308.616C961.551 307.488 961.174 309.244 960.372 308.867C959.569 308.491 957.587 306.61 955.982 307.212C950.956 312.816 946.479 318.89 942.612 325.348Z" fill="#E87578"/>
<path d="M960.369 308.766L952.969 322.036" stroke="#08051A" stroke-width="0.66" stroke-linecap="round" stroke-linejoin="round"/>
<path d="M965.893 311.5L958.594 326.099" stroke="#08051A" stroke-width="0.66" stroke-linecap="round" stroke-linejoin="round"/>
<path d="M967.237 320.742L964.102 327.565" stroke="#08051A" stroke-width="0.66" stroke-linecap="round" stroke-linejoin="round"/>
<path d="M954.927 345.008L938.923 342.5L934.508 355.795L952.694 359.834C953.898 351.706 954.802 345.962 954.927 345.008Z" fill="#E87578"/>
<path d="M934.514 355.922L911.938 423.651C910.913 427.144 911.318 430.901 913.063 434.095C914.809 437.289 917.751 439.659 921.244 440.684C924.737 441.708 928.494 441.304 931.688 439.558C934.882 437.813 937.252 434.87 938.277 431.377C943.846 413.291 949.54 379.477 952.6 359.885L934.514 355.922Z" fill="#FFA229"/>
<path d="M404.249 995.366C404.049 995.893 403.973 1003.29 403.246 1004.05C402.518 1004.8 387.844 1004.9 382.676 1004.2C376.891 1003.48 371.198 1002.15 365.694 1000.23C364.546 999.844 363.43 999.366 362.357 998.803C361.284 998.413 360.339 997.736 359.623 996.846C358.789 995.433 358.293 993.846 358.176 992.21C358.058 990.573 358.322 988.932 358.946 987.414" fill="#08051A"/>
<path d="M360.084 985.109C359.441 985.801 359.036 986.68 358.93 987.618C359.016 988.093 359.195 988.546 359.458 988.951C359.72 989.355 360.061 989.704 360.46 989.976C363.498 991.613 366.787 992.732 370.193 993.287C374.589 994.337 379.059 995.05 383.563 995.419C395.503 996.423 403.154 997.075 403.932 995.72C404.71 994.366 403.556 992.334 403.556 992.334L360.084 985.109Z" fill="white"/>
<path d="M397.709 976.799C398.545 974.995 398.941 973.017 398.863 971.03C399.136 958.292 401.248 945.661 405.134 933.528C407.266 927.794 409.026 921.929 410.402 915.968C411.079 912.08 412.409 901.946 408.671 898.986C406.639 897.405 400.744 898.258 398.261 898.283C394.122 898.283 389.983 898.484 385.869 898.76C384.263 898.885 380.4 898.559 379.071 899.638C378.168 900.391 378.82 905.232 378.82 906.235C378.82 911.403 378.995 916.595 379.146 921.763C379.522 934.933 381.504 948.905 379.146 961.899C378.639 964.726 377.943 967.517 377.064 970.252C376.186 973.036 375.132 976.197 376.562 978.756C377.418 979.917 378.563 980.834 379.883 981.415C381.204 981.996 382.653 982.221 384.088 982.067C387.995 982.112 391.846 981.125 395.25 979.207C396.275 978.644 397.125 977.811 397.709 976.799Z" fill="#E87578"/>
<path d="M403.774 983.448C403.843 981.356 403.632 979.264 403.147 977.227C402.903 976.188 402.453 975.209 401.824 974.347C401.195 973.486 400.4 972.759 399.485 972.21C398.099 971.684 396.614 971.477 395.137 971.603C393.661 971.729 392.232 972.185 390.956 972.938C388.417 974.463 385.659 975.589 382.778 976.274C381.559 976.477 380.307 976.302 379.191 975.772C378.347 975.239 377.654 974.497 377.18 973.618C376.705 972.74 376.465 971.754 376.482 970.755C376.543 968.76 376.95 966.791 377.686 964.935L376.105 964.609C376.482 964.609 375.88 968.397 375.779 968.773C375.39 970.306 374.844 971.794 374.149 973.214C373.357 975.75 371.808 977.982 369.709 979.61C367.553 980.962 365.246 982.056 362.836 982.871C361.674 983.183 360.683 983.94 360.076 984.978C359.892 985.637 359.929 986.338 360.183 986.972C360.437 987.607 360.893 988.141 361.481 988.49C362.959 989.296 364.513 989.951 366.122 990.447C368.406 991.083 370.753 991.47 373.12 991.601C378.137 992.228 383.154 992.705 388.171 993.106L397.729 993.808C399.61 993.934 402.746 994.611 403.674 992.378C403.971 991.104 404.03 989.786 403.849 988.49C403.824 986.91 403.799 985.204 403.774 983.448Z" fill="#454658"/>
<path d="M377.651 992.659C377.781 992.654 377.905 992.604 378.002 992.517C378.098 992.429 378.161 992.311 378.178 992.182C378.541 990.243 379.313 988.404 380.442 986.786C381.57 985.169 383.031 983.81 384.725 982.8C388.188 980.752 392.077 979.533 396.089 979.238C397.523 979.001 398.99 979.053 400.403 979.389C401.046 979.561 401.633 979.897 402.107 980.363C402.582 980.829 402.928 981.409 403.113 982.048C403.124 982.12 403.151 982.19 403.191 982.251C403.231 982.313 403.283 982.365 403.344 982.405C403.406 982.445 403.475 982.472 403.547 982.484C403.62 982.496 403.694 982.493 403.765 982.474C403.903 982.439 404.022 982.351 404.097 982.229C404.172 982.108 404.197 981.962 404.166 981.822C403.946 980.991 403.51 980.232 402.902 979.624C402.294 979.016 401.536 978.58 400.704 978.36C399.156 977.963 397.543 977.886 395.963 978.135C391.784 978.465 387.735 979.743 384.123 981.872C382.301 982.973 380.732 984.447 379.521 986.198C378.311 987.95 377.485 989.938 377.1 992.032C377.089 992.104 377.093 992.178 377.111 992.249C377.13 992.32 377.162 992.387 377.206 992.445C377.251 992.504 377.306 992.553 377.37 992.589C377.433 992.626 377.503 992.65 377.576 992.659H377.651Z" fill="#08051A"/>
<path d="M398.461 978.759C398.576 978.752 398.687 978.71 398.777 978.638C398.867 978.566 398.932 978.468 398.963 978.357C399.59 976.177 399.59 973.865 398.963 971.685C398.95 971.612 398.92 971.543 398.877 971.483C398.834 971.422 398.778 971.373 398.713 971.337C398.648 971.301 398.576 971.279 398.503 971.275C398.429 971.27 398.355 971.281 398.286 971.308C398.15 971.354 398.036 971.449 397.967 971.574C397.897 971.7 397.877 971.846 397.909 971.986C398.474 973.97 398.474 976.072 397.909 978.056C397.887 978.125 397.878 978.198 397.885 978.271C397.892 978.343 397.914 978.414 397.949 978.477C397.984 978.541 398.033 978.597 398.091 978.641C398.148 978.685 398.215 978.716 398.286 978.733L398.461 978.759Z" fill="#08051A"/>
<path d="M397.021 978.906C397.146 978.906 397.266 978.86 397.359 978.777C397.452 978.693 397.51 978.578 397.522 978.454C397.886 976.228 397.886 973.957 397.522 971.731C397.498 971.589 397.418 971.462 397.301 971.377C397.184 971.293 397.038 971.258 396.895 971.28C396.753 971.304 396.626 971.384 396.542 971.501C396.457 971.618 396.422 971.764 396.444 971.907C396.795 974.016 396.795 976.169 396.444 978.278C396.433 978.351 396.437 978.425 396.456 978.496C396.474 978.567 396.506 978.634 396.551 978.692C396.595 978.75 396.65 978.799 396.714 978.836C396.777 978.873 396.848 978.896 396.92 978.906H397.021Z" fill="#08051A"/>
<path d="M401.244 998.489C401.645 998.489 401.369 1001.67 401.043 1002.3C397.979 1002.92 394.832 1003.01 391.737 1002.58C391.386 1002.13 391.16 997.887 391.611 997.962C392.063 998.037 399.513 998.489 401.244 998.489Z" fill="white"/>
<path d="M373.698 977.313C373.949 977.89 374.325 978.392 374.576 978.969C374.725 979.242 374.803 979.548 374.803 979.86C374.803 980.171 374.725 980.477 374.576 980.75C374.326 981.048 373.974 981.242 373.588 981.293C373.203 981.344 372.812 981.249 372.494 981.026C372.177 980.794 371.91 980.502 371.708 980.166C371.505 979.83 371.372 979.457 371.315 979.069C371.176 978.275 371.217 977.459 371.434 976.683C371.651 975.906 372.039 975.187 372.569 974.579C373.121 973.952 373.949 973.225 373.622 974.579C373.339 975.473 373.365 976.437 373.698 977.313Z" fill="#08051A"/>
<path d="M370.397 980.642C370.547 980.993 370.773 981.319 370.924 981.67C371.016 981.84 371.064 982.03 371.064 982.222C371.064 982.415 371.016 982.605 370.924 982.774C370.764 982.956 370.544 983.074 370.304 983.106C370.065 983.138 369.821 983.083 369.619 982.95C369.236 982.657 368.983 982.224 368.917 981.746C368.824 981.255 368.844 980.749 368.974 980.267C369.104 979.785 369.342 979.339 369.669 978.961C370.021 978.56 370.547 978.108 370.322 978.961C370.153 979.513 370.179 980.107 370.397 980.642Z" fill="#08051A"/>
<path d="M367.961 982.343C367.961 982.569 368.211 982.77 368.312 982.995C368.361 983.102 368.387 983.217 368.387 983.334C368.387 983.451 368.361 983.567 368.312 983.673C368.201 983.771 368.058 983.826 367.91 983.826C367.762 983.826 367.619 983.771 367.509 983.673C367.385 983.586 367.281 983.474 367.203 983.344C367.125 983.215 367.076 983.07 367.058 982.92C367.001 982.618 367.015 982.308 367.097 982.012C367.18 981.716 367.329 981.443 367.534 981.214C367.735 980.963 368.061 980.688 367.936 981.214C367.8 981.58 367.809 981.984 367.961 982.343Z" fill="#08051A"/>
<path d="M373.231 683.099C374.285 658.642 379.753 635.162 383.265 611.231C383.265 610.403 416.553 613.363 419.563 613.865C425.008 615.03 430.587 615.443 436.144 615.094C439.298 614.714 442.476 614.571 445.651 614.668L448.762 704.07C447.551 703.763 446.276 703.824 445.1 704.246C438.904 706.755 423.928 823.951 426.487 843.292C429.773 868.377 416.453 939.543 409.529 947.47C406.619 950.781 403.333 954.092 402.33 958.356C400.499 958.482 382.688 956.55 379.753 955.848C380.147 954.571 380.358 953.245 380.38 951.91C379.949 949.213 378.93 946.644 377.395 944.384C371.576 933.096 372.178 707.658 373.231 683.099Z" fill="#105F9A"/>
<path d="M388.492 666.391C388.492 666.391 420.6 673.665 431.136 675.271C431.136 675.271 424.99 708.834 421.378 710.841C417.766 712.848 404.17 716.711 400.357 716.034C396.544 715.356 383.75 700.531 383.876 697.872C384.001 695.213 388.492 666.391 388.492 666.391Z" stroke="#08051A" stroke-width="0.66" stroke-linecap="round" stroke-linejoin="round"/>
<path d="M387.656 671.758C387.656 671.758 412.741 679.91 430.752 680.588" stroke="#08051A" stroke-width="0.66" stroke-linecap="round" stroke-linejoin="round"/>
<path d="M429.291 494.285C426.306 496.794 372.097 539.187 344.253 554.69C340.576 556.742 336.247 557.287 332.176 556.211C328.106 555.135 324.611 552.521 322.429 548.92C321.312 547.084 320.571 545.044 320.247 542.919C319.924 540.794 320.026 538.625 320.546 536.54C321.066 534.454 321.995 532.492 323.278 530.768C324.562 529.044 326.174 527.591 328.023 526.494L417.551 479.234L429.291 494.285Z" fill="#E87578"/>
<path d="M415.018 486.016C414.344 484.93 414.052 483.65 414.191 482.379C413.89 479.594 415.269 475.179 416.197 470.037C417.652 461.909 417.401 454.986 422.117 455.914C424.952 456.441 427.134 459.301 427.912 463.239C434.503 457.172 441.669 451.762 449.309 447.084C451.341 446.934 452.846 449.593 453.749 450.446C454.653 451.299 455.556 449.267 457.562 451.273C458.421 452.607 459.096 454.05 459.569 455.563C459.606 456.082 459.523 456.604 459.328 457.086C459.132 457.569 458.829 458 458.44 458.347C457.688 458.774 460.497 460.705 460.547 462.938C460.56 463.046 460.56 463.156 460.547 463.264C460.322 465.396 457.412 466.475 456.735 467.278C456.057 468.08 459.067 469.611 457.337 473.8C454.094 479.564 449.507 484.461 443.966 488.073C423.321 502.146 421.515 495.448 415.018 486.016Z" fill="#E87578"/>
<path d="M654.574 487.638C651.112 489.218 588.249 517.438 557.495 525.767C553.435 526.874 549.104 526.363 545.413 524.342C541.721 522.321 538.958 518.947 537.703 514.93C537.065 512.878 536.839 510.72 537.039 508.58C537.239 506.44 537.861 504.361 538.868 502.463C539.876 500.565 541.249 498.885 542.909 497.52C544.569 496.155 546.483 495.132 548.54 494.511L646.848 470.078L654.574 487.638Z" fill="#E87578"/>
<path d="M550.403 521.888C571.675 512.556 564.702 497.756 557.227 482.68C549.751 467.604 524.616 398.093 510.995 392.123C497.374 386.153 481.646 395.159 485.132 406.121C488.619 417.083 527.902 513.233 541.498 520.332C547.167 523.368 550.403 521.888 550.403 521.888Z" fill="#E87578"/>
<path d="M498.452 383.524C516.237 386.032 523.537 399.428 557.979 472.149C557.979 472.149 536.732 491.289 519.724 494.349L493.811 445.057C493.811 445.057 472.138 408.659 480.115 395.715C488.092 382.771 498.452 383.524 498.452 383.524Z" fill="#E1AD19"/>
<path d="M641.172 476.739C641.194 475.454 641.654 474.215 642.476 473.227C643.706 470.719 647.268 467.784 650.855 463.971C656.499 457.951 660.011 452.081 663.397 455.367C665.504 457.324 665.68 460.86 664.3 464.648C673.13 463.145 682.086 462.506 691.041 462.742C692.822 463.72 692.596 466.806 692.922 467.985C693.248 469.164 695.079 467.985 695.681 470.769C695.675 472.347 695.455 473.916 695.029 475.435C694.774 475.898 694.414 476.296 693.979 476.596C693.544 476.896 693.044 477.091 692.521 477.166C691.668 477.166 692.972 480.251 691.793 482.183L691.593 482.408C690.238 484.064 687.203 483.387 686.199 483.688C685.196 483.989 686.877 486.924 683.164 489.507C677.301 492.569 670.789 494.177 664.175 494.198C639.366 494.876 641.498 488.278 641.172 476.739Z" fill="#E87578"/>
<path d="M433.529 354.593C433.657 354.59 433.78 354.546 433.88 354.468C433.983 354.365 434.041 354.225 434.041 354.079C434.041 353.934 433.983 353.794 433.88 353.69C429.913 349.127 426.424 344.167 423.47 338.89C423.443 338.815 423.4 338.746 423.344 338.689C423.288 338.632 423.221 338.588 423.146 338.559C423.071 338.531 422.991 338.519 422.911 338.525C422.831 338.531 422.753 338.554 422.683 338.592C422.613 338.631 422.552 338.685 422.505 338.749C422.458 338.814 422.425 338.888 422.409 338.966C422.394 339.045 422.395 339.126 422.414 339.203C422.432 339.281 422.467 339.354 422.517 339.417C425.495 344.787 429.026 349.832 433.053 354.468C433.115 354.528 433.191 354.571 433.275 354.593C433.358 354.615 433.446 354.615 433.529 354.593Z" fill="white"/>
<path d="M472.263 352.103C472.352 352.099 472.439 352.071 472.514 352.023C472.589 351.974 472.649 351.907 472.689 351.827C476.051 346.358 479.287 340.714 482.297 335.045C482.36 334.918 482.372 334.772 482.33 334.636C482.288 334.501 482.195 334.387 482.071 334.318C482.007 334.283 481.937 334.261 481.864 334.253C481.791 334.245 481.718 334.252 481.648 334.273C481.578 334.294 481.512 334.329 481.456 334.375C481.399 334.422 481.353 334.479 481.319 334.543C478.308 340.188 475.098 345.807 471.761 351.275C471.688 351.402 471.669 351.552 471.706 351.693C471.744 351.834 471.836 351.954 471.962 352.028C472.052 352.082 472.157 352.109 472.263 352.103Z" fill="white"/>
<path d="M482.627 335.383C480.619 340.513 479.173 345.845 478.312 351.287C477.426 356.787 475.146 361.969 471.69 366.338C469.062 368.974 466.051 371.198 462.759 372.935C460.138 374.736 457.203 376.029 454.105 376.748C447.633 377.776 441.563 373.788 436.22 370C432.181 367.495 428.65 364.253 425.809 360.443C421.821 354.322 421.695 346.546 421.695 339.246" fill="#E87578"/>
<path d="M477.711 998.019C477.887 998.545 477.711 1005.95 478.338 1006.72C478.965 1007.5 493.69 1008.25 498.883 1007.75C504.699 1007.29 510.45 1006.21 516.041 1004.54C517.196 1004.19 518.328 1003.76 519.427 1003.26C520.517 1002.91 521.489 1002.27 522.237 1001.41C523.134 1000.03 523.699 998.471 523.886 996.842C524.073 995.213 523.878 993.563 523.315 992.023" fill="#08051A"/>
<path d="M522.258 989.672C522.894 990.417 523.265 991.352 523.312 992.331C523.205 992.804 523.006 993.251 522.726 993.647C522.446 994.043 522.091 994.38 521.681 994.639C518.582 996.152 515.249 997.128 511.823 997.523C507.387 998.381 502.892 998.901 498.377 999.079C486.412 999.555 478.736 999.906 478.008 998.502C477.281 997.097 478.535 995.115 478.535 995.115L522.258 989.672Z" fill="white"/>
<path d="M485.039 979.769C484.265 977.923 483.955 975.917 484.136 973.924C484.395 961.222 482.824 948.55 479.47 936.296C477.6 930.454 476.109 924.496 475.005 918.461C474.453 914.548 473.575 904.338 477.514 901.579C479.621 900.074 485.466 901.177 487.949 901.328C492.088 901.554 496.202 901.88 500.316 902.331C501.896 902.507 505.785 902.331 507.064 903.485C507.942 904.288 507.064 909.079 507.064 910.083C506.813 915.275 506.437 920.443 506.06 925.585C505.107 938.755 502.524 952.627 504.254 965.721C504.632 968.574 505.202 971.398 505.96 974.175C506.738 977.009 507.641 980.22 506.111 982.704C505.212 983.798 504.05 984.647 502.734 985.169C501.417 985.691 499.99 985.87 498.585 985.689C494.679 985.551 490.876 984.401 487.548 982.352C486.489 981.739 485.621 980.845 485.039 979.769Z" fill="#E87578"/>
<path d="M478.688 986.168C478.698 984.07 479.002 981.985 479.591 979.972C479.881 978.961 480.373 978.02 481.037 977.205C481.701 976.391 482.523 975.719 483.454 975.231C484.86 974.766 486.352 974.624 487.819 974.815C489.287 975.006 490.693 975.526 491.933 976.334C494.408 977.953 497.115 979.188 499.96 979.997C501.171 980.261 502.435 980.138 503.572 979.646C504.461 979.145 505.199 978.415 505.71 977.533C506.222 976.651 506.488 975.648 506.482 974.629C506.513 972.631 506.191 970.644 505.529 968.759L507.134 968.508C506.758 968.508 507.134 972.321 507.134 972.697C507.467 974.239 507.955 975.743 508.589 977.187C509.275 979.751 510.728 982.044 512.753 983.759C514.844 985.21 517.101 986.406 519.476 987.322C520.622 987.686 521.577 988.489 522.135 989.554C522.294 990.222 522.228 990.923 521.947 991.55C521.665 992.176 521.185 992.691 520.58 993.016C519.065 993.737 517.486 994.317 515.864 994.747C513.554 995.296 511.189 995.582 508.815 995.6C503.798 996.026 498.781 996.277 493.764 996.452C490.553 996.452 487.367 996.653 484.182 996.728C482.3 996.728 479.165 997.33 478.287 995.048C478.061 993.77 478.061 992.462 478.287 991.185L478.688 986.168Z" fill="#454658"/>
<path d="M504.367 996.436C504.245 996.425 504.13 996.371 504.043 996.284C503.956 996.197 503.902 996.082 503.891 995.959C503.616 994.004 502.925 992.13 501.865 990.464C500.805 988.798 499.4 987.379 497.745 986.302C494.37 984.101 490.533 982.71 486.532 982.238C485.117 981.948 483.658 981.948 482.243 982.238C481.595 982.378 480.993 982.682 480.497 983.121C480.001 983.56 479.625 984.12 479.408 984.746C479.393 984.816 479.365 984.883 479.323 984.942C479.282 985 479.229 985.05 479.168 985.087C479.107 985.125 479.039 985.15 478.968 985.16C478.897 985.17 478.825 985.166 478.756 985.148C478.685 985.13 478.618 985.098 478.559 985.055C478.5 985.011 478.45 984.956 478.413 984.893C478.376 984.83 478.351 984.76 478.341 984.688C478.331 984.615 478.336 984.541 478.354 984.47C478.623 983.656 479.096 982.923 479.729 982.344C480.361 981.764 481.132 981.356 481.967 981.159C483.53 980.832 485.144 980.832 486.708 981.159C490.872 981.647 494.866 983.098 498.372 985.398C500.147 986.573 501.653 988.11 502.79 989.909C503.927 991.707 504.67 993.727 504.969 995.834C504.976 995.906 504.969 995.979 504.947 996.049C504.926 996.119 504.891 996.183 504.844 996.239C504.797 996.295 504.74 996.341 504.676 996.375C504.611 996.409 504.54 996.43 504.468 996.436H504.367Z" fill="#08051A"/>
<path d="M484.2 981.676C484.083 981.664 483.972 981.617 483.882 981.541C483.792 981.465 483.728 981.363 483.698 981.249C483.182 979.04 483.286 976.731 483.999 974.577C484.021 974.507 484.058 974.444 484.106 974.389C484.154 974.335 484.213 974.291 484.279 974.26C484.345 974.229 484.416 974.213 484.489 974.211C484.562 974.209 484.634 974.223 484.701 974.251C484.771 974.273 484.835 974.31 484.89 974.357C484.946 974.405 484.991 974.463 485.024 974.529C485.056 974.594 485.076 974.665 485.081 974.738C485.086 974.811 485.076 974.884 485.053 974.953C484.416 976.89 484.329 978.965 484.802 980.948C484.82 981.019 484.825 981.093 484.815 981.166C484.805 981.238 484.78 981.308 484.743 981.371C484.706 981.434 484.656 981.489 484.597 981.533C484.538 981.577 484.471 981.608 484.4 981.626L484.2 981.676Z" fill="#08051A"/>
<path d="M485.784 981.901C485.657 981.896 485.536 981.845 485.444 981.757C485.352 981.669 485.294 981.551 485.282 981.425C485.034 979.188 485.153 976.926 485.634 974.727C485.664 974.584 485.749 974.459 485.872 974.379C485.994 974.299 486.143 974.271 486.286 974.301C486.429 974.331 486.554 974.416 486.634 974.539C486.714 974.661 486.742 974.81 486.712 974.953C486.259 977.036 486.14 979.179 486.361 981.299C486.375 981.442 486.334 981.584 486.245 981.697C486.156 981.809 486.027 981.883 485.884 981.901H485.784Z" fill="#08051A"/>
<path d="M480.563 1001.2C480.137 1001.2 480.287 1004.39 480.563 1005.04C483.606 1005.78 486.753 1006 489.87 1005.69C490.221 1005.29 490.647 1001.05 490.171 1001.1C489.694 1001.15 482.294 1001.38 480.563 1001.2Z" fill="white"/>
<path d="M508.991 981.314C508.715 981.865 508.313 982.342 508.063 982.919C507.909 983.195 507.828 983.506 507.828 983.822C507.828 984.138 507.909 984.449 508.063 984.725C508.309 985.026 508.655 985.227 509.038 985.291C509.421 985.356 509.814 985.279 510.145 985.076C510.795 984.628 511.245 983.944 511.399 983.17C511.574 982.383 511.57 981.566 511.388 980.78C511.206 979.994 510.849 979.259 510.345 978.63C509.819 977.977 509.016 977.2 509.292 978.504C509.52 979.447 509.413 980.44 508.991 981.314Z" fill="#08051A"/>
<path d="M512.155 984.75C512.004 985.101 511.754 985.402 511.578 985.753C511.486 985.923 511.438 986.112 511.438 986.305C511.438 986.498 511.486 986.688 511.578 986.857C511.719 987.055 511.932 987.189 512.172 987.231C512.411 987.273 512.657 987.22 512.857 987.083C513.058 986.953 513.23 986.783 513.364 986.585C513.497 986.387 513.589 986.164 513.635 985.929C513.738 985.437 513.734 984.929 513.621 984.44C513.508 983.95 513.291 983.491 512.983 983.094C512.657 982.718 512.155 982.241 512.331 983.094C512.462 983.65 512.4 984.234 512.155 984.75Z" fill="#08051A"/>
<path d="M514.513 986.594C514.513 986.795 514.262 986.996 514.162 987.222C514.107 987.326 514.078 987.442 514.078 987.56C514.078 987.678 514.107 987.794 514.162 987.899C514.259 988.012 514.393 988.086 514.54 988.109C514.687 988.132 514.838 988.102 514.964 988.024C515.212 987.853 515.383 987.592 515.441 987.297C515.508 986.997 515.506 986.685 515.437 986.386C515.367 986.086 515.232 985.806 515.04 985.566C514.839 985.315 514.538 985.039 514.638 985.566C514.711 985.913 514.667 986.275 514.513 986.594Z" fill="#08051A"/>
<path d="M522.159 687.455C522.159 662.973 517.719 639.267 515.236 615.211C515.236 614.383 481.898 615.913 478.863 616.289C473.375 617.202 467.788 617.362 462.257 616.766C459.146 616.39 439.053 615.988 435.867 616.039L445.901 705.14C447.129 704.877 448.408 705 449.564 705.492C455.634 708.176 465.543 825.899 462.106 845.189C457.716 869.998 467.951 941.766 474.648 949.994C477.408 953.431 480.569 956.868 481.371 961.182C483.202 961.383 501.063 960.229 504.073 959.652C503.737 958.359 503.585 957.024 503.622 955.689C504.132 952.959 505.265 950.384 506.933 948.163C513.028 937.226 522.159 711.988 522.159 687.455Z" fill="#105F9A"/>
<path d="M420.576 332.042C420.031 330.904 419.188 329.935 418.137 329.238C417.086 328.54 415.866 328.139 414.606 328.078C413.676 328.204 412.8 328.588 412.077 329.186C411.354 329.785 410.814 330.574 410.517 331.465C409.941 333.256 410.058 335.198 410.843 336.908C411.639 338.605 412.735 340.143 414.079 341.448C414.936 342.399 415.955 343.189 417.089 343.781C417.668 344.08 418.306 344.246 418.957 344.268C419.607 344.29 420.255 344.166 420.852 343.907C425.142 341.9 422.232 334.801 420.576 332.042Z" fill="#E87578"/>
<path d="M479.561 330.105C480.034 328.933 480.815 327.91 481.822 327.146C482.829 326.382 484.024 325.905 485.28 325.766C486.214 325.832 487.111 326.159 487.869 326.708C488.627 327.258 489.216 328.009 489.57 328.876C490.235 330.63 490.235 332.566 489.57 334.32C488.881 336.062 487.887 337.667 486.635 339.061C485.83 340.061 484.853 340.911 483.75 341.569C483.188 341.9 482.56 342.105 481.91 342.17C481.261 342.235 480.605 342.158 479.987 341.945C475.648 340.24 478.081 332.965 479.561 330.105Z" fill="#E87578"/>
<path d="M437.444 384.218C437.444 383.967 437.669 383.716 437.795 383.44C438.696 381.821 439.227 380.022 439.35 378.172C439.496 374.124 439.429 370.072 439.149 366.031C439.149 358.807 438.673 351.557 437.945 344.383L465.213 354.693C464.134 354.291 462.704 364.727 462.579 365.605C461.723 371.248 461.403 376.959 461.626 382.662C461.975 384.915 461.464 387.216 460.196 389.109C458.764 390.546 456.873 391.434 454.853 391.618C450.66 392.303 446.366 392.003 442.31 390.74C440.626 390.351 439.091 389.479 437.895 388.231C437.399 387.699 437.087 387.022 437.006 386.299C436.924 385.576 437.078 384.846 437.444 384.218Z" fill="#E87578"/>
<path d="M409.716 310.785C409.465 305.166 410.468 305.918 414.733 301.553C418.108 298.497 422.092 296.189 426.422 294.78C437.098 290.349 448.784 288.926 460.211 290.667C468.113 292.147 476.742 293.777 482.336 299.622C489.461 307.147 487.705 318.16 485.723 327.842C483.741 337.525 477.771 343.972 473.532 352.401C469.292 360.829 463.146 364.316 453.614 364.792C447.393 365.119 440.695 364.993 435.628 361.356C431.665 358.521 429.382 354.056 426.221 350.444C424.766 348.788 422.91 347.559 421.631 345.778C419.95 343.395 418.32 340.912 416.764 338.453C412.349 331.254 410.092 318.912 409.716 310.785Z" fill="#08051A"/>
<path d="M479.036 336.374C476.653 332.962 478.861 328.071 477.13 324.283C476.576 323.287 475.965 322.323 475.299 321.398C473.748 318.497 472.833 315.299 472.615 312.016C472.138 308.504 471.636 305.018 471.16 301.506C470.795 300.159 470.957 298.724 471.611 297.492C471.993 297.088 472.454 296.765 472.965 296.545C473.476 296.325 474.027 296.211 474.584 296.211C475.14 296.211 475.691 296.325 476.202 296.545C476.713 296.765 477.174 297.088 477.556 297.492C478.984 299.218 479.858 301.333 480.065 303.563C481.244 309.734 482.573 315.905 483.627 322.126C484.053 324.86 482.423 326.189 481.269 328.673C480.642 330.103 478.234 334.944 479.036 336.374Z" fill="#08051A"/>
<path d="M421.223 338.269C423.38 334.732 420.821 329.966 422.327 326.103C422.811 325.069 423.355 324.064 423.957 323.093C425.317 320.098 426.026 316.85 426.039 313.561L426.792 302.975C427.059 301.601 426.799 300.177 426.064 298.986C425.651 298.615 425.166 298.331 424.64 298.153C424.113 297.975 423.556 297.906 423.002 297.951C422.448 297.995 421.908 298.152 421.417 298.412C420.926 298.672 420.493 299.03 420.144 299.463C418.846 301.283 418.12 303.449 418.062 305.684C417.259 311.905 416.256 318.227 415.704 324.422C415.453 327.182 417.184 328.436 418.489 330.819C419.216 332.124 421.9 336.789 421.223 338.269Z" fill="#08051A"/>
<path d="M334.961 552.141C313.338 543.638 319.735 528.562 326.608 513.21C333.481 497.858 356.058 427.444 369.253 420.947C382.447 414.45 398.702 422.829 395.642 433.941C392.582 445.054 357.011 542.634 343.716 550.235C338.248 553.421 334.961 552.141 334.961 552.141Z" fill="#E87578"/>
<path d="M394.666 382.015C377.107 385.126 370.183 398.897 338.602 472.873C338.602 472.873 360.551 491.185 377.684 493.593L401.665 443.423C401.665 443.423 421.934 406.222 413.455 393.579C404.976 380.936 394.666 382.015 394.666 382.015Z" fill="#E1AD19"/>
<path d="M371.664 659.506C372.116 646.588 373.044 626.896 375 602.739C378.914 554.375 381.748 553.899 382.977 523.32C383.73 505.083 385.21 468.485 383.78 439.963C383.416 428.312 384.426 416.659 386.79 405.245C388.546 396.616 389.474 392.251 391.807 389.241C399.709 379.207 414.911 382.82 445.263 383.697C487.582 384.902 497.942 379.082 507.675 388.514C518.361 398.774 517.232 415.881 516.831 423.131C514.548 463.969 521.848 543.413 525.761 654.715C507.85 660.635 476.569 666.605 445.188 667.559C420.424 668.33 395.674 665.619 371.664 659.506Z" fill="#E1AD19"/>
<path d="M507.946 669.227C507.946 669.227 475.536 674.971 464.875 676.075C464.875 676.075 469.415 709.889 472.927 712.047C476.439 714.204 489.834 718.744 493.698 718.243C497.561 717.741 511.006 703.568 511.006 700.884C511.006 698.2 507.946 669.227 507.946 669.227Z" stroke="#08051A" stroke-width="0.66" stroke-linecap="round" stroke-linejoin="round"/>
<path d="M508.519 674.617C508.519 674.617 482.983 681.591 465.047 681.415" stroke="#08051A" stroke-width="0.66" stroke-linecap="round" stroke-linejoin="round"/>
<path d="M450.127 272.891H446.74C427.199 272.891 411.17 289.095 409.74 309.665C409.654 310.508 409.83 311.357 410.243 312.098C410.655 312.838 411.285 313.433 412.048 313.804C423.545 318.717 435.918 321.25 448.421 321.25C460.924 321.25 473.297 318.717 484.794 313.804C485.558 313.436 486.191 312.841 486.604 312.1C487.017 311.359 487.191 310.509 487.102 309.665C485.697 289.095 469.743 272.891 450.127 272.891Z" fill="#08051A"/>
<path d="M371.662 498.023C371.085 499.378 358.016 532.189 349.086 544.255" stroke="#08051A" stroke-width="0.66" stroke-linecap="round" stroke-linejoin="round"/>
<path d="M123.08 391.449L97.995 508.094C97.6245 512.057 98.6703 516.023 100.947 519.288C103.223 522.553 106.583 524.905 110.43 525.928C114.276 526.95 118.361 526.577 121.958 524.873C125.555 523.17 128.432 520.247 130.079 516.623C130.254 516.221 130.43 515.845 130.58 515.444C130.731 515.042 130.781 514.716 130.881 514.365L171.243 405.221C178.618 385.027 160.808 372.761 149.545 371.757C143.488 371.231 137.448 372.945 132.57 376.574C127.693 380.204 124.316 385.496 123.08 391.449Z" fill="#381905"/>
<path d="M98.2183 507.735V508.036L90.9688 604.889L113.545 606.52L131.305 512.978C131.305 512.677 131.431 512.376 131.456 512.075V511.699C131.632 510.291 131.632 508.867 131.456 507.459C130.998 503.317 129.019 499.491 125.903 496.724C122.787 493.956 118.755 492.443 114.587 492.477C110.419 492.511 106.413 494.091 103.342 496.909C100.272 499.728 98.357 503.586 97.9674 507.735H98.2183Z" fill="#381905"/>
<path d="M89.8107 620.769C89.761 621.387 89.761 622.008 89.8107 622.626C90.1072 625.073 91.2627 627.336 93.0714 629.011C94.8801 630.687 97.2247 631.666 99.6877 631.774C102.151 631.882 104.572 631.113 106.521 629.603C108.47 628.093 109.82 625.941 110.33 623.529V623.303L113.516 606.521L90.9396 604.891L89.8107 620.769Z" fill="#FF8B6A"/>
<path d="M86.1404 635.792C86.6672 632.606 87.6455 629.37 88.1221 626.887C89.1757 621.218 91.7092 615.674 98.1561 615.448C103.65 615.222 108.19 618.634 111.802 622.547C115.414 626.46 119.102 630.75 119.93 635.842C120.168 638.016 120.092 640.212 119.704 642.364C119.611 643.509 119.323 644.629 118.851 645.675C118.224 646.854 116.769 647.783 115.64 647.13C114.511 646.478 114.562 644.973 114.612 643.719C114.662 642.465 114.336 640.859 113.107 640.608C112.098 643.161 111.529 645.867 111.426 648.61C111.426 650.843 111.075 653.903 108.14 654.154C105.205 654.405 104.051 650.417 101.492 650.743C99.9873 650.918 98.8083 652.499 97.253 652.348C95.0706 652.173 94.293 649.363 92.813 648.134C90.8563 646.478 87.796 646.378 86.5668 643.819C85.628 641.246 85.4795 638.45 86.1404 635.792Z" fill="#FF8B6A"/>
<path d="M275.143 392.491L288.639 511.018C288.616 514.996 287.186 518.837 284.6 521.861C282.015 524.884 278.443 526.894 274.517 527.535C270.59 528.175 266.564 527.404 263.152 525.359C259.74 523.313 257.163 520.125 255.878 516.361C255.878 515.959 255.627 515.558 255.527 515.157C255.426 514.755 255.376 514.404 255.301 514.028L225.751 401.472C220.408 380.651 239.322 370.191 250.635 370.266C256.733 370.329 262.595 372.626 267.112 376.722C271.629 380.818 274.486 386.429 275.143 392.491Z" fill="#381905"/>
<path d="M287.592 518.548V518.422V518.297L329.007 430.5L308.387 420.867L258.468 501.816C258.292 502.067 258.142 502.318 257.991 502.569L257.766 502.92C257.081 504.164 256.551 505.487 256.185 506.858C255.187 510.876 255.701 515.12 257.631 518.782C259.561 522.445 262.771 525.269 266.649 526.717C270.527 528.164 274.803 528.135 278.66 526.633C282.518 525.131 285.688 522.262 287.566 518.573L287.592 518.548Z" fill="#381905"/>
<path d="M335.897 416.056C336.147 415.494 336.357 414.916 336.524 414.325C337.15 411.923 336.897 409.376 335.811 407.145C334.725 404.913 332.878 403.142 330.602 402.153C328.325 401.163 325.771 401.019 323.398 401.747C321.025 402.475 318.99 404.026 317.66 406.122L308.68 420.646L329.3 430.279L335.897 416.056Z" fill="#FF8B6A"/>
<path d="M347.473 411.228C345.391 413.486 342.306 414.489 339.948 416.245C335.307 419.632 329.638 421.94 324.746 417.625C320.607 414.013 319.554 408.344 319.729 403.101C319.69 399.573 320.069 396.054 320.858 392.615C321.761 389.279 324.069 386.921 323.843 383.234C323.524 381.809 323.646 380.322 324.194 378.969C324.745 378.264 325.55 377.803 326.436 377.686C327.323 377.568 328.221 377.804 328.935 378.342C329.637 378.903 330.22 379.597 330.651 380.385C331.081 381.173 331.351 382.039 331.444 382.933C331.72 384.714 331.644 386.52 331.92 388.276C333.802 387.272 335.332 385.767 337.263 384.864C339.195 383.961 343.685 383.71 343.384 387.222C343.234 387.781 343.234 388.369 343.384 388.928C343.635 389.455 344.237 389.68 344.739 389.981C347.247 391.411 345.767 394.07 347.247 396.077C347.828 396.741 348.325 397.474 348.727 398.259C348.993 399.32 348.905 400.439 348.476 401.445C348.05 403.276 348.476 403.778 349.179 405.484C349.445 406.282 349.513 407.133 349.378 407.963C349.242 408.793 348.907 409.578 348.401 410.25C348.124 410.605 347.813 410.933 347.473 411.228Z" fill="#FF8B6A"/>
<path d="M193.219 590.463C193.219 590.463 191.287 740.823 183.185 784.345C178.594 809.054 143.701 783.015 145.432 770.097C147.163 757.178 123.884 587.704 134.42 579.451C138.709 576.065 143.827 575.613 148.969 575.212C169.539 573.556 185.994 584.769 193.219 590.463Z" fill="#FF8B6A"/>
<path d="M202.554 600.276C202.554 600.276 193.348 760.82 198.741 808.005C201.802 834.695 240.984 809.51 240.106 795.588C239.228 781.665 268.628 606.548 257.992 596.915C253.652 592.977 256.361 588.06 250.918 587.257C229.094 583.996 210.682 594.632 202.554 600.276Z" fill="#FF8B6A"/>
<path d="M259.476 559.509C253.831 545.11 246.933 531.289 244.425 515.836C239.809 487.666 247.184 458.342 253.029 430.823C255.537 418.733 258.372 406.642 260.178 394.425C261.758 383.714 262.034 389.935 260.454 386.097C248.438 356.848 145.289 351.455 131.593 380.578C130.079 383.983 128.968 387.552 128.281 391.214C126.275 402.678 129.711 410.605 133.599 425.179C135.757 433.307 137.111 441.635 138.917 449.838C142.786 466.903 145.634 484.184 147.446 501.588C149.654 529.182 137.412 537.008 128.908 574.635C123.515 598.642 125.472 676.405 131.793 678.939C144.336 683.956 172.757 686.464 195.559 686.464C221.296 686.464 251.624 682.902 264.467 677.057C268.055 675.402 270.212 611.184 266.976 586.074C265.597 576.94 263.077 568.015 259.476 559.509Z" fill="#381905"/>
<path d="M141.156 799.459C142.36 778.688 146.524 759.122 152.494 750.819C157.762 743.544 179.21 742.39 181.292 753.327C187.663 777.058 171.659 882.013 171.734 903.31C171.734 913.871 173.892 917.333 166.14 919.54C163.956 920.219 161.647 920.39 159.387 920.043C157.126 919.695 154.975 918.837 153.096 917.533C149.208 912.291 150.788 904.991 149.86 896.638C148.932 888.284 139.826 820.254 141.156 799.459Z" fill="#FF8B6A"/>
<path d="M148.039 939.767C151.351 957.829 161.109 970.421 170.039 969.568C184.362 968.189 180.073 948.723 176.762 930.637C173.45 912.55 166.728 902.491 158.023 904.097C149.319 905.702 144.728 921.681 148.039 939.767Z" fill="#381905"/>
<path d="M242.643 827.257C242.918 804.982 239.908 783.785 234.164 774.579C229.147 766.401 206.294 763.592 203.234 775.081C194.68 799.94 203.886 913.048 202.231 935.9C201.403 947.163 198.894 950.7 206.972 953.635C209.257 954.519 211.714 954.872 214.156 954.668C216.598 954.464 218.962 953.708 221.069 952.456C225.61 947.163 224.481 939.136 226.086 930.382C227.692 921.627 242.367 849.533 242.643 827.257Z" fill="#FF8B6A"/>
<path d="M224.624 976.526C219.607 995.565 208.394 1008.26 198.912 1006.63C183.861 1004.12 189.756 983.625 194.648 964.586C199.539 945.546 207.19 935.261 216.622 937.644C226.054 940.027 229.516 957.461 224.624 976.526Z" fill="#381905"/>
<path d="M203.96 349.579L181.961 349.359L181.592 386.259L203.591 386.479L203.96 349.579Z" fill="#FF8B6A"/>
<path d="M206.195 355.015V344.68L184.195 344.555V360.559C191.828 360.216 199.311 358.33 206.195 355.015Z" fill="#381905"/>
<path d="M193.576 270.633C170.397 270.508 162.094 289.723 161.969 312.751C161.969 334.45 175.966 352.686 193.149 352.887C211.261 352.887 224.606 334.901 224.731 313.203C224.857 290.049 216.754 270.759 193.576 270.633Z" fill="#381905"/>
<path d="M226.074 311.794C224.293 312.647 221.685 305.473 210.196 295.414C194.819 281.893 183.781 281.065 183.781 275.045C183.781 269.025 194.568 261.825 203.473 263.305C222.537 266.491 230.289 309.788 226.074 311.794Z" fill="#381905"/>
<path d="M162.146 315.414C164.078 315.414 163.827 307.889 171.202 293.64C174.292 286.774 178.534 280.488 183.744 275.052C192.048 266.875 198.344 266.172 198.018 263.689C197.441 259.374 181.437 253.203 168.694 262.961C151.184 276.482 157.807 315.314 162.146 315.414Z" fill="#381905"/>
<path d="M157.223 287.183C149.296 325.136 135.901 371.618 140.09 383.183C144.279 394.747 254.954 387.572 254.954 387.572C254.954 387.572 227.711 316.607 221.867 283.57" fill="#381905"/>
<path d="M226.429 954.297C226.579 955.576 226.905 1003.64 225.927 1006.22C224.949 1008.81 220.057 1007.68 220.057 1007.68L218 971.831" fill="#381905"/>
<path d="M146.875 925.531C146.875 926.811 148.731 974.823 149.81 977.357C150.889 979.89 155.755 978.561 155.755 978.561L156.182 942.639" fill="#381905"/>
<path d="M141.453 393.805C146.945 432.26 148.985 471.129 147.549 509.948" stroke="#08051A" stroke-width="0.66" stroke-linecap="round" stroke-linejoin="round"/>
<path d="M247.319 398.961C247.319 398.961 240.797 482.243 244.283 515.932" stroke="#08051A" stroke-width="0.66" stroke-linecap="round" stroke-linejoin="round"/>
</svg>
