<svg width="1000" height="1075" viewBox="0 0 1000 1075" fill="none" xmlns="http://www.w3.org/2000/svg">
<g clip-path="url(#clip0_346_3731)">
<rect width="1000" height="1075" fill="white"/>
<path d="M876.83 542.886C876.83 744.762 713.172 908.413 511.297 908.413C309.428 908.413 145.773 744.762 145.773 542.886C145.773 341.014 309.428 177.359 511.297 177.359C713.172 177.359 876.83 341.014 876.83 542.886Z" fill="#98BF13"/>
<path d="M410.305 865.868L500.682 908.188C504.725 908.323 508.787 908.405 512.868 908.405C714.737 908.405 878.395 744.754 878.395 542.879C878.395 484.822 863.353 434.408 844.756 393.301L585.107 264.844L515.214 297.616V822.818L410.305 865.868Z" fill="#719417"/>
<path d="M699.006 946.484C609.692 887.532 585.06 767.327 644.013 678.006C702.969 588.68 823.167 564.067 912.491 623.014C1001.81 681.973 1026.44 802.165 967.484 891.491C908.534 980.818 788.333 1005.43 699.006 946.484Z" fill="#004C7B"/>
<path d="M721.07 664.669L720.477 911.875L904.961 912.318L905.555 665.112L721.07 664.669Z" fill="#FFA229"/>
<path d="M840.237 896.723L736.695 896.466L737.242 678.586L889.37 678.948L888.951 848.252L840.237 896.723Z" fill="white"/>
<path d="M840.19 664.85C840.226 650.012 828.228 637.968 813.404 637.922C798.566 637.889 786.512 649.877 786.475 664.715L748.593 664.623L748.508 700.795L877.98 701.111L878.075 664.946L840.19 664.85ZM813.331 662.926C809.5 662.926 806.406 659.806 806.42 655.972C806.426 652.15 809.539 649.047 813.374 649.057C817.195 649.067 820.292 652.173 820.282 656.015C820.272 659.843 817.166 662.933 813.331 662.926Z" fill="#00252F"/>
<path d="M745.868 711.051L745.852 717.781L877.755 718.098L877.771 711.367L745.868 711.051Z" fill="#B0AFB5"/>
<path d="M745.814 727.731L745.797 734.461L877.703 734.791L877.72 728.06L745.814 727.731Z" fill="#B0AFB5"/>
<path d="M877.697 751.508L745.797 751.186L745.807 744.445L877.72 744.775L877.697 751.508Z" fill="#B0AFB5"/>
<path d="M745.759 761.109L745.742 767.836L877.645 768.166L877.662 761.439L745.759 761.109Z" fill="#B0AFB5"/>
<path d="M745.712 777.8L745.695 784.523L877.605 784.853L877.622 778.129L745.712 777.8Z" fill="#B0AFB5"/>
<path d="M745.736 794.516L745.719 801.25L877.622 801.58L877.639 794.846L745.736 794.516Z" fill="#B0AFB5"/>
<path d="M745.61 811.128L745.594 817.852L877.497 818.168L877.513 811.444L745.61 811.128Z" fill="#B0AFB5"/>
<path d="M745.634 827.876L745.617 834.609L877.514 834.939L877.531 828.206L745.634 827.876Z" fill="#B0AFB5"/>
<path d="M745.532 844.496L745.516 851.227L877.416 851.543L877.432 844.813L745.532 844.496Z" fill="#B0AFB5"/>
<path d="M745.532 861.2L745.516 867.938L863.915 868.233L863.932 861.496L745.532 861.2Z" fill="#B0AFB5"/>
<path d="M745.454 877.853L745.438 884.594L850.963 884.847L850.979 878.107L745.454 877.853Z" fill="#B0AFB5"/>
<path d="M840.234 896.74L840.356 848.148L888.948 848.27L840.234 896.74Z" fill="#D8DADE"/>
<path d="M886.406 448.25C827.911 480.304 754.509 458.874 722.458 400.366C690.394 341.871 711.834 268.463 770.329 236.405C828.83 204.351 902.239 225.788 934.293 284.283C966.35 342.791 944.914 416.199 886.406 448.25Z" fill="#004C7B"/>
<path d="M893.251 333.059H887.967C887.967 298.122 865.315 263.12 828.57 263.12C792.674 263.12 769.162 298.122 769.162 333.059H763.875C763.875 295.013 786.441 257.477 828.573 257.477C872.625 257.477 893.251 295.013 893.251 333.059Z" fill="#FFA229"/>
<path d="M766.64 328.454C767.895 328.435 769.091 328.622 770.215 329.021C770.633 323.045 772.27 310.599 775.09 305.272C776.592 302.403 776.342 298.631 774.023 296.585C771.73 294.539 767.671 295.722 765.629 299.569C761.409 307.535 759.244 323.042 759.234 332.049C761.073 329.911 763.705 328.534 766.64 328.454Z" fill="#00252F"/>
<path d="M888.892 328.454C887.654 328.435 886.451 328.622 885.331 329.021C884.913 323.045 883.266 310.599 880.449 305.272C878.947 302.403 879.2 298.631 881.516 296.585C883.819 294.539 887.875 295.722 889.91 299.569C894.134 307.535 896.295 323.042 896.308 332.049C894.467 329.911 891.838 328.534 888.892 328.454Z" fill="#00252F"/>
<path d="M851.673 269.323C851.149 270.243 849.96 270.513 849.004 269.999C840.696 265.538 816.449 265.538 808.134 269.999C807.172 270.513 805.99 270.243 805.463 269.323C804.105 266.886 802.751 264.448 801.397 262.007C800.864 261.081 801.513 259.645 802.877 258.916C814.492 252.674 842.649 252.674 854.269 258.916C855.629 259.645 856.272 261.078 855.741 262.007C854.381 264.448 853.033 266.886 851.673 269.323Z" fill="#FFA229"/>
<path d="M824.046 408.685C824.046 411.485 821.786 414.908 818.982 414.908H805.129C796.637 414.908 800.059 412.187 800.059 409.548V406.241C800.059 405.605 796.327 400.68 805.129 400.68H818.982C821.789 400.68 824.046 404.406 824.046 407.203V408.685Z" fill="#00252F"/>
<path d="M796.909 409.973C777.35 409.973 757.765 404.956 748.01 395.047C736.332 383.174 736.421 368.751 736.431 368.138C736.431 363.487 737.587 360.004 739.863 357.81C742.252 355.514 744.927 355.557 745.22 355.564L745.082 358.94L745.151 357.247L745.118 358.94C745.042 358.934 743.517 358.94 742.146 360.298C740.614 361.816 739.804 364.531 739.804 368.155C739.797 368.323 739.764 381.879 750.458 392.714C759.557 401.929 778.318 406.6 796.905 406.6L796.909 409.973Z" fill="#55BBD7"/>
<path d="M800.184 410.938C800.204 411.607 799.673 412.154 799.001 412.167L792.33 411.284C791.658 411.304 791.111 410.777 791.101 410.108L791.016 406.774C791.006 406.105 791.523 405.558 792.189 405.545L798.83 404.336C799.489 404.323 800.042 404.857 800.059 405.519L800.184 410.938Z" fill="#00252F"/>
<path d="M800.116 405.519C800.102 404.857 799.549 404.323 798.88 404.336L798.172 404.471C798.564 404.659 798.841 405.051 798.851 405.519L798.976 410.938C798.992 411.432 798.699 411.864 798.267 412.071L799.065 412.167C799.733 412.154 800.254 411.607 800.241 410.938L800.116 405.519Z" fill="#55BBD7"/>
<path d="M902.391 340.039C908.531 340.457 913.437 348.848 913.437 359.156C913.437 369.451 908.535 377.849 902.391 378.26V340.039Z" fill="#FFA229"/>
<path d="M908.402 343.258V375.048C906.682 376.946 904.656 378.112 902.469 378.26V340.039C904.656 340.184 906.682 341.353 908.402 343.258Z" fill="#55BBD7"/>
<path d="M891.172 377.798C891.172 381.023 893.791 383.645 897.019 383.645H899.698C902.926 383.645 905.545 381.02 905.545 377.798V340.528C905.545 337.3 902.926 334.688 899.698 334.688H897.019C893.791 334.688 891.172 337.3 891.172 340.528V377.798Z" fill="url(#paint0_linear_346_3731)"/>
<path d="M892.406 377.798C892.406 381.023 895.019 383.645 898.254 383.645H900.925C904.161 383.645 906.773 381.02 906.773 377.798V340.528C906.773 337.3 904.161 334.688 900.925 334.688H898.254C895.019 334.688 892.406 337.3 892.406 340.528V377.798Z" fill="#00252F"/>
<path d="M876.836 379.074C876.836 385.501 882.048 390.713 888.468 390.713C894.889 390.713 900.101 385.501 900.101 379.074V339.242C900.101 332.814 894.889 327.609 888.468 327.609C882.048 327.609 876.836 332.814 876.836 339.242V379.074Z" fill="#FFA229"/>
<path d="M753.133 340.039C746.992 340.457 742.094 348.848 742.094 359.156C742.094 369.451 746.989 377.849 753.133 378.26V340.039Z" fill="#FFA229"/>
<path d="M747.109 343.258V375.048C748.829 376.946 750.855 378.112 753.043 378.26V340.039C750.855 340.184 748.826 341.353 747.109 343.258Z" fill="#FFA229"/>
<path d="M764.339 377.798C764.339 381.023 761.72 383.645 758.495 383.645H755.81C752.588 383.645 749.969 381.02 749.969 377.798V340.528C749.969 337.3 752.588 334.688 755.81 334.688H758.495C761.723 334.688 764.339 337.3 764.339 340.528V377.798Z" fill="url(#paint1_linear_346_3731)"/>
<path d="M763.108 377.798C763.108 381.023 760.495 383.645 757.267 383.645H754.588C751.353 383.645 748.734 381.02 748.734 377.798V340.528C748.734 337.3 751.353 334.688 754.588 334.688H757.267C760.495 334.688 763.108 337.3 763.108 340.528V377.798Z" fill="#00252F"/>
<path d="M778.698 379.074C778.698 385.501 773.489 390.713 767.069 390.713C760.641 390.713 755.43 385.501 755.43 379.074V339.242C755.43 332.814 760.641 327.609 767.069 327.609C773.489 327.609 778.698 332.814 778.698 339.242V379.074Z" fill="#FFA229"/>
<path d="M318.292 585.158C318.292 672.735 247.295 743.739 159.714 743.739C72.1331 743.739 1.13281 672.735 1.13281 585.158C1.13281 497.574 72.1331 426.57 159.714 426.57C247.295 426.57 318.292 497.574 318.292 585.158Z" fill="#004C7B"/>
<path d="M159.139 508.883L75.5938 570.168V649.954H242.276V570.168L159.139 508.883Z" fill="#5CBDD5"/>
<path d="M158.737 521.492H158.684L89.875 572.272V638.399H227.985V572.272L158.737 521.492Z" fill="#4394A5"/>
<path d="M222.442 474.492H95.4375V641.777H222.442V474.492Z" fill="white"/>
<path d="M214.698 493.742H103.164V500.723H214.698V493.742Z" fill="#D8DADE"/>
<path d="M214.698 508.078H103.164V515.052H214.698V508.078Z" fill="#D8DADE"/>
<path d="M214.698 522.383H103.164V529.364H214.698V522.383Z" fill="#D8DADE"/>
<path d="M214.698 536.727H103.164V543.694H214.698V536.727Z" fill="#D8DADE"/>
<path d="M214.698 551.062H103.164V558.023H214.698V551.062Z" fill="#D8DADE"/>
<path d="M214.698 565.391H103.164V572.358H214.698V565.391Z" fill="#D8DADE"/>
<path d="M214.698 579.734H103.164V586.702H214.698V579.734Z" fill="#D8DADE"/>
<path d="M214.698 594.039H103.164V601H214.698V594.039Z" fill="#D8DADE"/>
<path d="M214.698 608.375H103.164V615.343H214.698V608.375Z" fill="#D8DADE"/>
<path d="M190.303 622.711H103.164V629.685H190.303V622.711Z" fill="#D8DADE"/>
<path d="M233.624 565.016L183.563 620.022H134.282L84.2212 565.016C79.2039 565.813 75.3594 570.152 75.3594 575.386V674.148C75.3594 679.953 80.0736 684.654 85.8816 684.654H231.964C237.772 684.654 242.486 679.95 242.486 674.148V575.386C242.489 570.152 238.645 565.813 233.624 565.016Z" fill="#FFA229"/>
<path d="M183.569 629.742H134.289L84.4219 684.537C84.9029 684.61 85.3937 684.646 85.8879 684.646H231.97C232.461 684.646 232.952 684.607 233.439 684.537L183.569 629.742Z" fill="#F9C27C"/>
<path d="M261.882 307.545C326.361 307.545 378.631 255.275 378.631 190.796C378.631 126.317 326.361 74.0469 261.882 74.0469C197.403 74.0469 145.133 126.317 145.133 190.796C145.133 255.275 197.403 307.545 261.882 307.545Z" fill="#004C7B"/>
<path d="M328.991 214.908C319.217 202.103 304.975 204.794 300.992 206.049L253.817 144.174C253.817 144.174 263.888 129.643 252.615 114.874C243.114 102.445 228.833 105.087 228.833 105.087L246.095 127.683L225.976 142.787L208.849 120.353C208.849 120.353 202.988 134.015 212.048 145.871C221.097 157.724 236.512 156.551 239.987 154.73L287.219 216.601C287.219 216.601 277.079 231.053 288.055 245.414C297.83 258.212 312.197 255.682 312.197 255.682L295.069 233.254L315.053 217.981L332.193 240.403C332.19 240.409 338.769 227.703 328.991 214.908ZM293.574 210.704C291.775 212.071 289.182 211.702 287.802 209.874L246.454 155.51C245.077 153.692 245.407 151.102 247.195 149.729C248.997 148.362 251.59 148.74 252.97 150.565L294.315 204.923C295.695 206.748 295.369 209.34 293.574 210.704Z" fill="white"/>
<path d="M303.313 128.373L297.307 138.329L252.25 186.516L257.185 191.309L302.235 143.142L312.069 136.902L324.469 124.199L315.683 115.641L303.313 128.373Z" fill="#FFA229"/>
<path d="M259.216 191.773L252.571 185.299C249.01 181.824 243.284 181.9 239.812 185.474C239.812 185.474 232.798 194.837 229.309 196.25C226.45 197.416 223.116 197.317 220.793 199.706L188.584 232.784C184.17 237.324 184.265 244.578 188.805 248.993L197.252 257.216C201.788 261.63 209.042 261.534 213.463 257.001L245.669 223.916C247.985 221.531 247.811 218.204 248.894 215.318C250.215 211.799 259.39 204.535 259.39 204.535C262.866 200.961 262.78 195.248 259.216 191.773ZM190.156 241.274C189.174 240.322 189.138 238.747 190.093 237.759L224.72 201.857C225.669 200.862 227.25 200.836 228.232 201.788C229.224 202.743 229.25 204.318 228.301 205.306L193.674 241.211C192.725 242.2 191.151 242.233 190.156 241.274ZM195.17 246.104C194.178 245.152 194.162 243.574 195.111 242.592L229.731 206.686C230.68 205.698 232.258 205.665 233.253 206.617C234.238 207.576 234.274 209.154 233.312 210.139L198.688 246.048C197.739 247.039 196.161 247.062 195.17 246.104ZM200.184 250.936C199.189 249.984 199.163 248.406 200.121 247.425L234.742 211.523C235.697 210.531 237.272 210.498 238.257 211.453C239.245 212.409 239.275 213.987 238.326 214.978L203.702 250.88C202.75 251.862 201.172 251.892 200.184 250.936ZM243.337 219.808L208.713 255.71C207.761 256.702 206.183 256.728 205.195 255.769C204.21 254.817 204.177 253.246 205.129 252.258L239.756 216.349C240.705 215.364 242.289 215.331 243.271 216.286C244.263 217.245 244.295 218.816 243.337 219.808Z" fill="#FFA229"/>
<path d="M550.411 238.325C508.662 210.774 497.154 154.592 524.708 112.842C552.259 71.0897 608.445 59.5857 650.194 87.1365C691.941 114.691 703.454 170.873 675.897 212.626C648.343 254.372 592.164 265.876 550.411 238.325Z" fill="#004C7B"/>
<path d="M658.876 154.591L650.446 152.69C649.718 148.704 648.581 144.892 647.049 141.305L653.549 135.177C654.412 134.736 654.791 133.77 654.389 133.016L650.202 124.938C649.806 124.181 648.808 123.937 647.932 124.365L637.696 126.48C635.295 123.789 632.653 121.351 629.796 119.206L631.483 111.052C631.915 110.196 631.674 109.188 630.917 108.793L622.849 104.586C622.091 104.2 621.119 104.586 620.674 105.429L615.051 111.389C611.859 110.295 608.554 109.484 605.151 109V108.911L601.063 99.0281C600.944 98.0826 600.18 97.3875 599.327 97.4764L590.294 98.5372C589.45 98.636 588.851 99.4827 588.969 100.448L587.513 109.471C583.425 110.262 579.531 111.474 575.878 113.085L568.053 106.332C567.526 105.511 566.528 105.248 565.813 105.706L558.213 110.713C557.511 111.191 557.357 112.206 557.867 113.019L560.98 122.853C558.747 124.918 556.734 127.208 554.886 129.616L544.914 127.732C544.047 127.31 543.049 127.564 542.66 128.331L538.612 136.452C538.223 137.236 538.612 138.201 539.465 138.64L546.633 145.169C545.579 148.322 544.802 151.577 544.341 154.937L535.136 158.702C534.177 158.804 533.476 159.572 533.571 160.415L534.583 169.452C534.685 170.302 535.531 170.908 536.487 170.789L544.818 172.183C545.718 176.93 547.161 181.424 549.154 185.584L543.491 189.472C542.585 189.775 542.061 190.681 542.324 191.478L545.227 200.096C545.503 200.903 546.462 201.308 547.365 201.012L558.065 200.478C558.516 200.343 558.859 200.04 559.076 199.668C560.684 201.328 562.387 202.853 564.183 204.28L563.837 204.82L562.736 215.471C562.384 216.367 562.717 217.342 563.507 217.671L571.951 221.032C572.748 221.364 573.674 220.897 574.036 219.994L579.544 212.868C582.865 214.048 586.321 214.911 589.859 215.425L589.849 215.5L593.875 225.423C593.97 226.382 594.744 227.083 595.588 226.995L604.627 226.016C605.477 225.914 606.07 225.067 605.978 224.119L607.523 214.993C610.9 214.357 614.158 213.435 617.238 212.226L623.745 219.665C624.133 220.534 625.095 220.946 625.87 220.577L634.099 216.686C634.863 216.337 635.16 215.332 634.754 214.466L633.005 203.917L632.333 203.163C634.929 200.966 637.278 198.558 639.393 195.932L639.867 196.235L650.498 197.51C651.378 197.895 652.363 197.549 652.699 196.762L656.191 188.371C656.524 187.587 656.056 186.639 655.189 186.263L648.107 180.636C649.378 177.141 650.278 173.504 650.818 169.761L659.568 166.744C660.52 166.678 661.268 165.95 661.202 165.11L660.701 156.031C660.642 155.184 659.835 154.538 658.876 154.591ZM631.622 163.799L630.752 164.642L626.08 166.289C625.791 168.279 625.31 170.226 624.634 172.094L628.416 175.092L628.956 176.212L627.075 180.709L625.896 181.107L620.226 180.438L619.976 180.264C618.836 181.667 617.591 182.946 616.194 184.125L616.553 184.527L617.489 190.173L617.126 191.369L612.748 193.455L611.602 192.967L608.123 188.978C606.479 189.627 604.72 190.131 602.947 190.46L602.088 195.322L601.376 196.347L596.543 196.861L595.634 196.031L593.469 190.73V190.664C591.605 190.411 589.753 189.966 587.961 189.327L585.019 193.128L583.906 193.698L579.396 191.88L578.978 190.714L579.577 185.018L579.771 184.715C578.793 183.963 577.88 183.13 577.034 182.27L576.494 182.708L570.784 182.972L569.638 182.497L568.073 177.902L568.696 176.815L571.727 174.729C570.659 172.502 569.885 170.101 569.404 167.548L564.95 166.826L563.926 166.092L563.389 161.272L564.212 160.346L569.144 158.34C569.401 156.551 569.806 154.798 570.373 153.105L566.535 149.626L566.087 148.473L568.235 144.102L569.457 143.802L574.777 144.81C575.772 143.512 576.846 142.29 578.029 141.189L576.398 135.918L576.573 134.69L580.612 132.044L581.827 132.347L586.008 135.965C587.958 135.088 590.05 134.452 592.234 134.024L593.002 129.201L593.713 128.177L598.543 127.62L599.482 128.453L601.663 133.731V133.77C603.488 134.024 605.237 134.472 606.94 135.059L609.971 131.886L611.104 131.435L615.44 133.668L615.733 134.877L614.837 139.219C616.372 140.369 617.779 141.677 619.057 143.113L624.539 141.997L625.754 142.29L627.988 146.625L627.537 147.788L624.068 151.063C624.865 152.977 625.491 154.983 625.873 157.141L630.393 158.146L631.351 158.91L631.622 163.799Z" fill="#F6C382"/>
<path d="M567.974 167.327L564.957 166.839L563.932 166.105L563.395 161.285L564.219 160.359L569.15 158.353C569.407 156.564 569.813 154.812 570.379 153.118L566.541 149.639L566.093 148.486L568.241 144.115L569.463 143.815L574.784 144.823C575.779 143.525 576.853 142.303 578.035 141.203L576.405 135.932L576.579 134.703L580.618 132.057L581.834 132.36L586.014 135.978C587.965 135.101 590.056 134.466 592.241 134.037L593.008 129.214L593.72 128.19L598.549 127.633L599.488 128.467L601.178 132.532C610.86 128.084 622.747 125.564 637.311 126.072C636.171 124.806 634.969 123.601 633.713 122.458C633.661 122.411 633.611 122.369 633.559 122.323C632.985 121.805 632.409 121.291 631.816 120.801C631.154 120.254 630.485 119.72 629.796 119.206L631.483 111.052C631.915 110.196 631.674 109.188 630.917 108.793L622.849 104.586C622.091 104.2 621.119 104.586 620.674 105.429L615.051 111.389C611.859 110.295 608.554 109.484 605.151 109V108.911L601.063 99.028C600.944 98.0826 600.18 97.3875 599.327 97.4764L590.294 98.5372C589.45 98.636 588.851 99.4827 588.969 100.448L587.513 109.471C583.425 110.262 579.531 111.474 575.878 113.085L568.053 106.332C567.526 105.511 566.528 105.248 565.813 105.706L558.213 110.713C557.511 111.191 557.357 112.206 557.867 113.019L560.98 122.853C558.747 124.918 556.734 127.208 554.886 129.616L544.914 127.732C544.047 127.31 543.049 127.564 542.66 128.331L538.612 136.452C538.223 137.236 538.612 138.201 539.465 138.64L546.633 145.169C545.579 148.322 544.802 151.577 544.341 154.937L535.136 158.702C534.177 158.804 533.476 159.572 533.571 160.415L534.583 169.452C534.685 170.302 535.531 170.908 536.487 170.789L544.818 172.183C545.718 176.93 547.161 181.424 549.154 185.584L543.491 189.472C542.585 189.775 542.061 190.681 542.324 191.478L545.227 200.096C545.503 200.903 546.462 201.308 547.365 201.012L558.065 200.478C558.516 200.343 558.859 200.04 559.076 199.668C559.093 199.684 559.109 199.701 559.132 199.72C560.097 191.649 562.427 179.47 567.974 167.327Z" fill="#FFA229"/>
<path d="M597.356 206.98C572.691 206.98 552.625 186.917 552.625 162.256C552.625 137.594 572.691 117.531 597.356 117.531C622.011 117.531 642.077 137.594 642.077 162.256C642.08 186.917 622.014 206.98 597.356 206.98ZM597.356 120.038C574.075 120.038 555.135 138.974 555.135 162.252C555.135 185.53 574.075 204.473 597.356 204.473C620.634 204.473 639.57 185.53 639.57 162.252C639.57 138.974 620.637 120.038 597.356 120.038Z" fill="#00252F"/>
<path d="M597.361 209.536C571.283 209.536 550.07 188.327 550.07 162.248C550.07 136.177 571.283 114.961 597.361 114.961C623.433 114.961 644.648 136.173 644.648 162.248C644.648 188.327 623.436 209.536 597.361 209.536ZM597.361 115.933C571.816 115.933 551.039 136.71 551.039 162.252C551.039 187.796 571.82 208.574 597.361 208.574C622.896 208.574 643.677 187.796 643.677 162.252C643.677 136.707 622.899 115.933 597.361 115.933Z" fill="#00252F"/>
<mask id="mask0_346_3731" style="mask-type:luminance" maskUnits="userSpaceOnUse" x="189" y="228" width="648" height="648">
<path d="M836.245 551.891C836.245 730.577 691.389 875.427 512.709 875.427C334.022 875.427 189.172 730.577 189.172 551.891C189.172 373.211 334.022 228.367 512.709 228.367C691.389 228.367 836.245 373.207 836.245 551.891Z" fill="white"/>
</mask>
<g mask="url(#mask0_346_3731)">
<path d="M712.012 588.693C703.783 606.047 690.414 616.925 682.149 613.015C673.89 609.098 673.863 591.852 682.093 574.501C690.319 557.152 703.691 546.255 711.949 550.185C720.215 554.102 720.241 571.335 712.012 588.693Z" fill="#FAD5A9"/>
<path d="M333.994 588.693C342.224 606.047 355.596 616.925 363.855 613.015C372.117 609.098 372.146 591.852 363.914 574.501C355.685 557.152 342.316 546.255 334.057 550.185C325.795 554.102 325.772 571.335 333.994 588.693Z" fill="#FAD5A9"/>
<path d="M559.184 684.422H487.219V809.292H559.184V684.422Z" fill="#F1CA9E"/>
<path d="M702.223 526.446C702.223 636.146 571.726 725.08 523.025 725.08C466.54 725.08 343.828 636.146 343.828 526.446C343.828 416.754 424.056 327.812 523.025 327.812C621.998 327.813 702.223 416.754 702.223 526.446Z" fill="#FAD5A9"/>
<path d="M634.928 880.621C635.149 849.93 634.131 804.781 626.718 784.876C615.998 756.057 603.315 752.364 599.375 751.906V880.617H634.928V880.621Z" fill="#2D2B2B"/>
<path d="M446.459 880.617V751.906C442.525 752.364 429.799 756.057 419.096 784.876C411.69 804.778 410.652 849.927 410.909 880.621H446.459V880.617Z" fill="#2D2B2B"/>
<path d="M599.848 880.63L599.963 751.887L559.419 737.21L523.218 808.487L487.312 736.953L446.469 751.887L446.574 880.63H599.848Z" fill="#413D3E"/>
<path d="M527.795 880.63L559.427 736.953L523.387 762.284L487.32 736.953L518.989 880.63H527.795Z" fill="white"/>
<path d="M532.752 880.647C538.145 869.367 543.824 857.646 543.824 857.646L533.793 773.844H524.038H514.3L502.961 860.245C502.961 860.245 508.232 870.431 513.434 880.647H532.752Z" fill="#BC0C24"/>
<path d="M523.548 787.92C517.655 783.654 515.049 781.002 510.789 775.128C515.049 769.234 517.694 766.596 523.574 762.336C529.452 766.615 532.097 769.248 536.35 775.148C532.084 781.025 529.435 783.667 523.548 787.92Z" fill="#7E0F18"/>
<path d="M512.659 880.63H519.014L487.53 736.953L468.518 743.341L467.289 768.846L483.514 777.721L467.289 796.064L512.659 880.63Z" fill="#2D2B2B"/>
<path d="M534.118 880.63L579.63 796.064L563.415 777.721L579.63 768.846L578.434 743.341L559.406 736.953L527.773 880.63H534.118Z" fill="#2D2B2B"/>
<path d="M559.41 736.953C537.631 751.919 523.406 762.303 523.406 762.303V768.177L545.6 783.934L564.266 738.584L559.41 736.953Z" fill="#D8DADE"/>
<path d="M487.374 736.953C509.146 751.919 523.404 762.303 523.404 762.303V768.177L501.207 783.934L482.531 738.584L487.374 736.953Z" fill="#D8DADE"/>
<path d="M710.105 426.661C708.296 347.408 664.659 339.001 635.665 328.442C621.118 323.115 659.915 308.36 659.915 308.36C624.165 279.327 594.338 300.832 573.942 294.945C540.784 285.474 585.127 264.818 585.127 264.818C534.878 251.802 529.653 279.85 512.189 280.074C482.237 280.433 521.868 245.836 521.868 245.836C405.369 259.231 375.687 357.871 375.687 357.871C364.473 355.225 370.624 326.792 370.624 326.792C312.03 396.52 346.186 553.866 346.186 553.866C357.772 557.526 361.106 552.4 361.106 518.741C361.106 464.997 449.438 435.654 520.425 435.216C592.43 434.798 676.99 472.426 676.99 518.741C676.99 552.4 688.379 557.078 699.962 553.408C699.962 553.408 711.354 478.959 710.105 426.661Z" fill="#76381F"/>
<path d="M598.043 546.962C598.043 555.906 590.796 563.157 581.848 563.157C572.907 563.157 565.656 555.906 565.656 546.962C565.656 538.018 572.907 530.773 581.848 530.773C590.796 530.773 598.043 538.018 598.043 546.962Z" fill="#40290F"/>
<path d="M585.898 541.839C585.898 545.868 582.633 549.129 578.607 549.129C574.582 549.129 571.32 545.868 571.32 541.839C571.32 537.823 574.582 534.555 578.607 534.555C582.633 534.555 585.898 537.823 585.898 541.839Z" fill="white"/>
<path d="M480.376 546.962C480.376 555.906 473.125 563.157 464.184 563.157C455.24 563.157 447.992 555.906 447.992 546.962C447.992 538.018 455.24 530.773 464.184 530.773C473.125 530.773 480.376 538.018 480.376 546.962Z" fill="#40290F"/>
<path d="M468.227 541.839C468.227 545.868 464.966 549.129 460.937 549.129C456.908 549.129 453.656 545.868 453.656 541.839C453.656 537.823 456.908 534.555 460.937 534.555C464.962 534.555 468.227 537.823 468.227 541.839Z" fill="white"/>
<path d="M627.297 517.708C612.462 503.243 588.677 501.249 569.375 504.349C565.709 504.929 562.21 509.13 568.031 508.21C585.327 505.43 606.275 507.868 619.499 520.759C621.318 522.534 629.102 519.461 627.297 517.708Z" fill="#76381F"/>
<path d="M426.432 519.113C438.852 507.022 458.618 505.685 474.678 508.251C476.872 508.603 484.426 505.009 479.933 504.288C459.392 500.98 434.421 504.094 418.776 519.33C416.612 521.448 424.792 520.704 426.432 519.113Z" fill="#76381F"/>
<path d="M474.656 633.414C476.939 658.128 497.71 677.483 523.018 677.483C548.328 677.483 569.093 658.128 571.379 633.414H474.656Z" fill="white"/>
<path d="M513.859 597.844C514.298 602.522 518.228 606.195 523.021 606.195C527.818 606.195 531.751 602.522 532.183 597.844H513.859Z" fill="#F1CA9E"/>
<path d="M333.994 588.685C342.224 606.04 355.596 616.918 363.855 613.007C372.117 609.09 372.146 591.844 363.914 574.493C355.685 557.145 342.316 546.247 334.057 550.177C325.795 554.094 325.772 571.327 333.994 588.685Z" fill="#F5CDA1"/>
<path d="M523.348 684.422H487.219V809.292H523.348V684.422Z" fill="#EBC195"/>
<path d="M523.335 327.819C523.223 327.819 523.114 327.812 523.002 327.812C424.032 327.812 343.805 416.754 343.805 526.446C343.805 636.146 466.513 725.08 523.002 725.08C523.111 725.08 523.223 725.067 523.335 725.067V327.819Z" fill="#F5CDA1"/>
<path d="M446.459 880.609V751.898C442.525 752.356 429.799 756.049 419.096 784.868C411.69 804.77 410.652 849.919 410.909 880.613H446.459V880.609Z" fill="#181616"/>
<path d="M523.346 808.199L523.218 808.456L487.312 736.922L446.469 751.855L446.574 880.599H523.346V808.199Z" fill="#333030"/>
<path d="M523.354 762.219L487.32 736.922L518.989 880.599H523.354V762.219Z" fill="white"/>
<path d="M523.333 773.805H514.3L502.961 860.206C502.961 860.206 508.232 870.392 513.434 880.608H523.337V773.805H523.333Z" fill="#A21121"/>
<path d="M523.341 762.484C517.635 766.635 514.986 769.29 510.789 775.102C514.996 780.913 517.602 783.555 523.341 787.739V762.484Z" fill="#7A0E16"/>
<path d="M512.659 880.599H519.014L487.53 736.922L468.518 743.31L467.289 768.815L483.514 777.69L467.289 796.033L512.659 880.599Z" fill="#181616"/>
<path d="M523.335 762.223C522.607 761.696 508.58 751.483 487.377 736.922L482.531 738.556L501.207 783.906L523.335 768.192V762.223Z" fill="#C3C5CA"/>
<path d="M523.344 276.118C519.809 278.388 516.347 280.018 512.189 280.074C482.237 280.433 521.868 245.836 521.868 245.836C405.369 259.231 375.687 357.871 375.687 357.871C364.473 355.225 370.624 326.792 370.624 326.792C312.03 396.52 346.186 553.866 346.186 553.866C357.772 557.526 361.106 552.4 361.106 518.741C361.106 464.997 449.438 435.654 520.425 435.216C521.397 435.209 522.369 435.216 523.344 435.223V276.118Z" fill="#471B00"/>
<path d="M480.376 546.962C480.376 555.906 473.125 563.157 464.184 563.157C455.24 563.157 447.992 555.906 447.992 546.962C447.992 538.018 455.24 530.773 464.184 530.773C473.125 530.773 480.376 538.018 480.376 546.962Z" fill="#2C1700"/>
<path d="M468.227 541.839C468.227 545.868 464.966 549.129 460.937 549.129C456.908 549.129 453.656 545.868 453.656 541.839C453.656 537.823 456.908 534.555 460.937 534.555C464.962 534.555 468.227 537.823 468.227 541.839Z" fill="white"/>
<path d="M426.432 519.144C438.852 507.053 458.618 505.716 474.678 508.282C476.872 508.635 484.426 505.041 479.933 504.319C459.392 501.012 434.421 504.125 418.776 519.361C416.612 521.48 424.792 520.735 426.432 519.144Z" fill="#471B00"/>
<path d="M523.347 633.414H474.656C476.939 658.128 497.71 677.483 523.018 677.483C523.126 677.483 523.235 677.483 523.35 677.476V633.414H523.347Z" fill="white"/>
<path d="M523.354 597.844H513.859C514.298 602.522 518.228 606.195 523.021 606.195C523.136 606.195 523.238 606.169 523.354 606.169V597.844Z" fill="#EBC195"/>
</g>
<path d="M414.465 989.477C365.24 1016.45 303.454 998.415 276.48 949.18C249.499 899.946 267.542 838.164 316.773 811.189C366.004 784.212 427.787 802.252 454.765 851.489C481.749 900.714 463.699 962.496 414.465 989.477Z" fill="#004C7B"/>
<path d="M338.288 970.823C333.762 970.81 329.446 968.847 326.481 965.417L303.279 938.604C297.622 932.072 298.334 922.199 304.863 916.549C311.396 910.892 321.269 911.614 326.916 918.137L337.843 930.761L399.514 853.883C404.92 847.146 414.757 846.066 421.494 851.478C428.238 856.884 429.308 866.715 423.909 873.458L350.497 964.966C347.595 968.59 343.233 970.725 338.598 970.82C338.496 970.823 338.39 970.823 338.288 970.823Z" fill="#FFA229"/>
</g>
<defs>
<linearGradient id="paint0_linear_346_3731" x1="898.36" y1="383.646" x2="898.36" y2="334.687" gradientUnits="userSpaceOnUse">
<stop stop-color="#434041"/>
<stop offset="0.0763" stop-color="#636367"/>
<stop offset="0.2205" stop-color="#959398"/>
<stop offset="0.3438" stop-color="#B6B6BB"/>
<stop offset="0.4399" stop-color="#CACCD1"/>
<stop offset="0.497" stop-color="#D2D4D9"/>
<stop offset="0.5647" stop-color="#CED0D5"/>
<stop offset="0.6424" stop-color="#C3C4CA"/>
<stop offset="0.7251" stop-color="#B1B1B6"/>
<stop offset="0.8113" stop-color="#99979C"/>
<stop offset="0.9002" stop-color="#77767B"/>
<stop offset="0.9901" stop-color="#494749"/>
<stop offset="1" stop-color="#434041"/>
</linearGradient>
<linearGradient id="paint1_linear_346_3731" x1="757.153" y1="383.646" x2="757.153" y2="334.687" gradientUnits="userSpaceOnUse">
<stop stop-color="#434041"/>
<stop offset="0.0763" stop-color="#636367"/>
<stop offset="0.2205" stop-color="#959398"/>
<stop offset="0.3438" stop-color="#B6B6BB"/>
<stop offset="0.4399" stop-color="#CACCD1"/>
<stop offset="0.497" stop-color="#D2D4D9"/>
<stop offset="0.5647" stop-color="#CED0D5"/>
<stop offset="0.6424" stop-color="#C3C4CA"/>
<stop offset="0.7251" stop-color="#B1B1B6"/>
<stop offset="0.8113" stop-color="#99979C"/>
<stop offset="0.9002" stop-color="#77767B"/>
<stop offset="0.9901" stop-color="#494749"/>
<stop offset="1" stop-color="#434041"/>
</linearGradient>
<clipPath id="clip0_346_3731">
<rect width="1000" height="1075" fill="white"/>
</clipPath>
</defs>
</svg>
