<svg width="1000" height="1021" viewBox="0 0 1000 1021" fill="none" xmlns="http://www.w3.org/2000/svg">
<g clip-path="url(#clip0_528_3983)">
<rect width="1000" height="1021" fill="white"/>
<path d="M824.393 789.684C770.354 847.676 691.394 870.558 621.884 853.698C578.622 843.167 539.528 818.865 501.608 793.945C463.688 769.026 425.767 743.025 383.555 728.635C323.828 708.348 258.507 715.706 218.102 763.776C172.447 817.891 87.6575 794.659 74.357 729.16C56.6154 641.265 90.444 571.077 139.359 496.358C186.697 424.1 240.767 356.041 306.232 305.923C371.697 255.929 449.576 224.772 525.663 231.318C585.415 236.444 641.369 264.39 689.511 302.959C737.59 341.528 778.475 390.534 816.858 441.424C843.939 477.274 870.496 515.38 882.91 561.268C903.908 638.961 878.432 731.692 824.393 789.684Z" fill="#F8F7FC"/>
<path d="M0 911.264C0 917.419 223.837 922.389 499.966 922.389C776.163 922.389 1000 917.419 1000 911.264C1000 905.11 776.163 900.141 499.966 900.141C223.837 900.141 0 905.11 0 911.264Z" fill="#F8F7FC"/>
<path d="M72.4165 862.945L43.6614 862.965L40.8135 892.772L67.0179 895.276C65.8746 884.643 68.0044 871.989 72.4165 862.945Z" fill="#F6A285"/>
<path d="M64.4685 877.863C65.6194 876.473 66.5848 873.548 70.5194 873.924C74.4497 874.3 86.1053 889.087 94.2632 890.6C102.164 892.064 118.422 895.045 115.922 913.171C115.782 914.183 114.825 914.908 113.808 914.81L38.4399 907.609C37.3755 907.507 36.596 906.562 36.6973 905.498L38.8578 882.892C39.3767 878.613 44.1878 876.346 47.8183 878.669C47.8183 878.669 57.3132 886.502 64.4685 877.863Z" fill="#FFD375"/>
<path d="M116.041 907.201C116.245 908.985 116.228 910.963 115.923 913.176C115.783 914.189 114.826 914.912 113.808 914.815L38.4403 907.613C37.3759 907.511 36.5961 906.566 36.6973 905.501L37.2547 899.672L116.041 907.201Z" fill="#EE9545"/>
<path d="M47.6933 891.031C47.4038 894.057 49.6254 896.748 52.6522 897.038C55.6785 897.327 58.3696 895.105 58.6587 892.079C58.9475 889.052 56.7261 886.362 53.6996 886.072C50.6733 885.783 47.9824 888.005 47.6933 891.031Z" fill="#EE9545"/>
<path d="M71.0856 881.102C70.7779 881.073 70.4798 880.949 70.2395 880.718C69.6665 880.179 69.6416 879.271 70.1842 878.698L73.9493 874.726C74.4963 874.157 75.4005 874.128 75.9686 874.674C76.5411 875.214 76.567 876.121 76.0237 876.694L72.2586 880.667C71.9428 880.996 71.5081 881.143 71.0856 881.102Z" fill="#EE9545"/>
<path d="M75.9716 885.025C75.6639 884.996 75.3655 884.871 75.1255 884.639C74.5525 884.1 74.5269 883.193 75.0702 882.621L78.8332 878.647C79.3762 878.079 80.2839 878.05 80.8525 878.596C81.4255 879.136 81.4509 880.043 80.9079 880.616L77.1448 884.589C76.8304 884.919 76.3946 885.065 75.9716 885.025Z" fill="#EE9545"/>
<path d="M80.6395 889.171C80.3323 889.142 80.0337 889.018 79.793 888.787C79.2204 888.248 79.1951 887.34 79.7383 886.767L83.5034 882.794C84.0502 882.226 84.9537 882.201 85.522 882.743C86.0955 883.282 86.1209 884.19 85.5774 884.762L81.8123 888.735C81.4972 889.065 81.062 889.212 80.6395 889.171Z" fill="#EE9545"/>
<path d="M157.397 870.038L156.641 897.802L182.956 898.52C180.952 887.204 181.685 876.473 186.295 866.57L157.397 870.038Z" fill="#F6A285"/>
<path d="M179.226 881.321C180.28 879.856 181.045 876.872 184.995 876.979C188.942 877.087 201.576 891.049 209.817 892.003C217.8 892.927 234.222 894.796 232.96 913.049C232.89 914.07 231.984 914.858 230.962 914.83L155.279 912.767C154.21 912.738 153.368 911.848 153.397 910.78L154.016 888.08C154.243 883.775 158.889 881.186 162.669 883.257C162.669 883.257 172.674 890.426 179.226 881.321Z" fill="#FFD375"/>
<path d="M232.673 907.078C232.998 908.846 233.115 910.82 232.961 913.048C232.89 914.068 231.985 914.855 230.962 914.827L155.279 912.764C154.211 912.735 153.368 911.845 153.397 910.776L153.557 904.922L232.673 907.078Z" fill="#EE9545"/>
<path d="M163.384 895.592C163.301 898.631 165.7 901.165 168.739 901.248C171.778 901.331 174.312 898.931 174.395 895.892C174.477 892.853 172.078 890.319 169.039 890.236C166 890.154 163.467 892.553 163.384 895.592Z" fill="#EE9545"/>
<path d="M186.051 884.129C185.742 884.121 185.436 884.017 185.181 883.803C184.572 883.303 184.485 882.399 184.988 881.791L188.475 877.572C188.982 876.968 189.882 876.877 190.485 877.384C191.094 877.883 191.181 878.786 190.678 879.395L187.191 883.614C186.899 883.965 186.475 884.141 186.051 884.129Z" fill="#EE9545"/>
<path d="M191.19 887.7C190.881 887.692 190.575 887.587 190.319 887.373C189.711 886.874 189.624 885.971 190.127 885.362L193.611 881.142C194.115 880.538 195.018 880.447 195.622 880.954C196.231 881.453 196.318 882.357 195.815 882.965L192.33 887.184C192.04 887.536 191.615 887.711 191.19 887.7Z" fill="#EE9545"/>
<path d="M196.131 891.519C195.822 891.51 195.516 891.407 195.26 891.192C194.652 890.693 194.565 889.789 195.069 889.181L198.555 884.961C199.062 884.357 199.962 884.27 200.565 884.773C201.174 885.271 201.261 886.175 200.758 886.783L197.271 891.003C196.979 891.354 196.555 891.53 196.131 891.519Z" fill="#EE9545"/>
<path d="M116.158 524.301C115.718 553.95 124.642 589.841 134.278 618.146C134.786 619.642 135.294 621.138 135.802 622.633C144.651 647.891 151.168 659.486 152.849 666.437C152.906 666.465 152.906 666.465 152.906 666.465C154.204 671.405 154.797 676.513 154.599 681.678C153.555 716.394 150.563 823.779 151.099 867.639C151.155 873.904 187.965 875.082 189.8 869.183C208.569 809.404 215.845 707.193 216.833 668.526C217.717 634.727 204.087 539.463 201.564 520.321C192.83 520.729 233.199 518.847 116.158 524.301Z" fill="#4C5C75"/>
<path d="M152.9 666.476C152.9 666.476 152.9 666.476 152.859 666.437C150.903 658.574 144.147 647.455 134.288 618.14C134.509 607.926 134.796 618.479 135.93 572.016C139.031 605.151 154.071 667.618 152.9 666.476Z" fill="#111D33"/>
<path d="M74.9515 864.998C102.385 822.295 115.82 714.028 127.307 668.079C130.638 654.842 133.573 639.657 135.802 622.638C140.153 589.857 141.255 556.76 140.205 523.177V523.148L73.8508 526.225C73.6871 526.616 42.1869 548.455 51.8078 622.215C59.3153 680.216 54.5171 745.752 47.2355 802.087C44.1873 825.654 40.7157 847.641 37.5264 866.748C36.0022 876.005 69.8992 872.901 74.9515 864.998Z" fill="#4C5C75"/>
<path d="M57.1992 551.403C60.6708 555.523 64.8197 559.475 70.0976 559.644C76.956 559.898 82.0927 553.802 87.1732 549.173C95.2171 541.835 105.66 537.319 116.47 536.134C142.299 533.139 151.109 550.199 180.059 546.633C188.243 545.645 196.682 542.992 204.133 538.815C202.609 527.497 201.565 520.328 201.565 520.328L140.206 523.178V523.15L73.8515 526.227C73.8515 526.227 64.199 532.944 57.1992 551.403Z" fill="#111D33"/>
<path d="M71.0647 585.261C46.8633 648.05 90.6056 708.184 48.2261 809.428C47.9128 806.968 47.5605 804.551 47.2461 802.091C54.5189 745.767 59.3266 680.221 51.7975 622.231C42.1693 548.299 73.8626 526.233 73.8626 526.233L86.2454 525.656C92.6977 548.483 78.7275 565.622 71.0647 585.261Z" fill="#111D33"/>
<path d="M323.124 283.98C323.124 283.98 333.208 286.837 324.871 293.296C324.871 293.296 333.562 295.692 326.121 301.962C326.121 301.962 331.719 306.226 325.056 311.058C322.094 313.239 320.106 315.023 317.791 316.707L317.762 316.708C315.502 318.303 312.972 319.762 308.96 321.321C306.697 322.214 305.004 324.102 304.472 326.462C300.731 343.24 284.976 409.719 268.187 418.264C248.945 428.06 214.369 394.916 214.369 394.916C216.946 391.645 205.03 406.766 239.579 362.926L252.684 375.506C252.166 368.146 262.99 354.307 270.207 347.638C277.426 340.969 282.154 310.284 282.154 310.284C282.154 310.284 289.975 290.252 303.449 282.562C316.95 274.842 325.9 275.353 327.525 277.352C328.78 278.896 327.139 281.906 323.124 283.98Z" fill="#F6A285"/>
<path d="M317.763 316.714C315.503 318.308 312.973 319.768 308.96 321.327C306.697 322.22 305.004 324.108 304.472 326.468C300.731 343.246 284.976 409.724 268.187 418.269C248.946 428.065 214.369 394.922 214.369 394.922L235.062 368.686C245.417 372.402 249.47 381.304 247.597 387.828C246.186 392.622 241.775 396.912 242.993 401.758C244.211 406.605 250.182 408.251 255.121 409.043C259.883 409.785 265.734 410.095 268.438 406.117C271.471 401.688 268.046 395.835 267.563 390.459C266.938 383.951 270.888 377.902 275.212 373.003C279.564 368.072 284.574 363.49 286.974 357.397C290.76 347.824 287.251 336.373 291.691 327.091C294.058 322.136 298.664 318.304 303.965 316.831C308.631 315.534 313.16 316.899 317.763 316.714Z" fill="#F6A285"/>
<path d="M708.47 173.212V633.54C708.47 647.805 696.906 659.369 682.641 659.369H333.559C319.294 659.369 307.73 647.805 307.73 633.54V173.212C307.73 158.947 319.294 147.383 333.559 147.383H682.641C696.906 147.383 708.47 158.947 708.47 173.212Z" fill="#1C4670"/>
<path d="M333.559 650.62C324.139 650.62 316.473 642.954 316.473 633.538V173.208C316.473 163.783 324.139 156.117 333.559 156.117H682.642C692.063 156.117 699.729 163.783 699.729 173.208V633.538C699.729 642.954 692.063 650.621 682.642 650.621L333.559 650.62Z" fill="white"/>
<path d="M537.045 234.91C537.045 238.45 534.175 241.32 530.635 241.32H345.106C341.566 241.32 338.696 238.45 338.696 234.91C338.696 231.37 341.566 228.5 345.106 228.5H530.635C534.175 228.5 537.045 231.37 537.045 234.91Z" fill="#F3F1FC"/>
<path d="M508.1 267.894C508.1 271.435 505.23 274.304 501.69 274.304H345.106C341.566 274.304 338.696 271.434 338.696 267.894C338.696 264.354 341.566 261.484 345.106 261.484H501.69C505.23 261.484 508.1 264.354 508.1 267.894Z" fill="#F3F1FC"/>
<path d="M534.88 300.887C534.88 304.427 532.01 307.297 528.47 307.297H345.106C341.566 307.297 338.696 304.427 338.696 300.887C338.696 297.346 341.566 294.477 345.106 294.477H528.47C532.01 294.477 534.88 297.347 534.88 300.887Z" fill="#F3F1FC"/>
<path d="M391.574 341.333V377.776C391.574 381.36 388.669 384.265 385.084 384.265H348.643C345.059 384.265 342.153 381.36 342.153 377.776V341.333C342.153 337.749 345.059 334.844 348.643 334.844H385.084C388.669 334.844 391.574 337.749 391.574 341.333Z" fill="#FFD375"/>
<path d="M391.574 420.474V456.917C391.574 460.501 388.669 463.406 385.084 463.406H348.643C345.059 463.406 342.153 460.501 342.153 456.917V420.474C342.153 416.89 345.059 413.984 348.643 413.984H385.084C388.669 413.985 391.574 416.89 391.574 420.474Z" fill="#FFA229"/>
<path d="M391.574 499.614V536.057C391.574 539.641 388.669 542.547 385.084 542.547H348.643C345.059 542.547 342.153 539.641 342.153 536.057V499.614C342.153 496.03 345.059 493.125 348.643 493.125H385.084C388.669 493.125 391.574 496.03 391.574 499.614Z" fill="#FFA229"/>
<path d="M391.574 578.755V615.198C391.574 618.782 388.669 621.687 385.084 621.687H348.643C345.059 621.687 342.153 618.782 342.153 615.198V578.755C342.153 575.171 345.059 572.266 348.643 572.266H385.084C388.669 572.266 391.574 575.171 391.574 578.755Z" fill="#1C4670"/>
<path d="M357.86 365.611L353.486 357.455C352.587 355.779 353.216 353.688 354.894 352.79C356.575 351.885 358.661 352.521 359.561 354.197L362.296 359.296L375.556 352.08C377.225 351.164 379.317 351.783 380.231 353.456C381.141 355.129 380.524 357.223 378.851 358.132L362.545 367.008C360.877 367.921 358.767 367.299 357.86 365.611Z" fill="white"/>
<path d="M357.86 444.759L353.486 436.603C352.587 434.927 353.216 432.837 354.894 431.938C356.575 431.036 358.661 431.669 359.561 433.345L362.296 438.445L375.556 431.228C377.225 430.312 379.317 430.932 380.231 432.605C381.141 434.278 380.524 436.371 378.851 437.28L362.545 446.156C360.877 447.07 358.767 446.448 357.86 444.759Z" fill="white"/>
<path d="M580.906 344.211H413.202C412.662 344.211 412.226 343.772 412.226 343.234C412.226 342.696 412.662 342.258 413.202 342.258H580.906C581.445 342.258 581.882 342.696 581.882 343.234C581.882 343.772 581.445 344.211 580.906 344.211Z" fill="#E2DFF4"/>
<path d="M605.226 360.531H413.202C412.662 360.531 412.226 360.093 412.226 359.555C412.226 359.017 412.662 358.578 413.202 358.578H605.226C605.766 358.578 606.203 359.017 606.203 359.555C606.203 360.092 605.766 360.531 605.226 360.531Z" fill="#E2DFF4"/>
<path d="M644.035 376.828H413.202C412.662 376.828 412.226 376.389 412.226 375.852C412.226 375.314 412.662 374.875 413.202 374.875H644.035C644.575 374.875 645.012 375.314 645.012 375.852C645.012 376.389 644.575 376.828 644.035 376.828Z" fill="#E2DFF4"/>
<path d="M580.906 423.352H413.202C412.662 423.352 412.226 422.913 412.226 422.375C412.226 421.837 412.662 421.398 413.202 421.398H580.906C581.445 421.398 581.882 421.837 581.882 422.375C581.882 422.913 581.445 423.352 580.906 423.352Z" fill="#E2DFF4"/>
<path d="M605.226 439.672H413.202C412.662 439.672 412.226 439.233 412.226 438.695C412.226 438.157 412.662 437.719 413.202 437.719H605.226C605.766 437.719 606.203 438.157 606.203 438.695C606.203 439.233 605.766 439.672 605.226 439.672Z" fill="#E2DFF4"/>
<path d="M644.035 455.976H413.202C412.662 455.976 412.226 455.538 412.226 455C412.226 454.462 412.662 454.023 413.202 454.023H644.035C644.575 454.023 645.012 454.462 645.012 455C645.012 455.538 644.575 455.976 644.035 455.976Z" fill="#E2DFF4"/>
<path d="M580.906 502.508H413.202C412.662 502.508 412.226 502.069 412.226 501.531C412.226 500.993 412.662 500.555 413.202 500.555H580.906C581.445 500.555 581.882 500.993 581.882 501.531C581.882 502.069 581.445 502.508 580.906 502.508Z" fill="#E2DFF4"/>
<path d="M605.226 518.812H413.202C412.662 518.812 412.226 518.374 412.226 517.836C412.226 517.298 412.662 516.859 413.202 516.859H605.226C605.766 516.859 606.203 517.298 606.203 517.836C606.203 518.374 605.766 518.812 605.226 518.812Z" fill="#E2DFF4"/>
<path d="M644.035 535.133H413.202C412.662 535.133 412.226 534.694 412.226 534.156C412.226 533.618 412.662 533.18 413.202 533.18H644.035C644.575 533.18 645.012 533.618 645.012 534.156C645.012 534.694 644.575 535.133 644.035 535.133Z" fill="#E2DFF4"/>
<path d="M580.906 581.641H413.202C412.662 581.641 412.226 581.202 412.226 580.664C412.226 580.126 412.662 579.688 413.202 579.688H580.906C581.445 579.688 581.882 580.126 581.882 580.664C581.882 581.202 581.445 581.641 580.906 581.641Z" fill="#E2DFF4"/>
<path d="M605.226 597.953H413.202C412.662 597.953 412.226 597.514 412.226 596.977C412.226 596.439 412.662 596 413.202 596H605.226C605.766 596 606.203 596.439 606.203 596.977C606.203 597.514 605.766 597.953 605.226 597.953Z" fill="#E2DFF4"/>
<path d="M644.035 614.266H413.202C412.662 614.266 412.226 613.827 412.226 613.289C412.226 612.751 412.662 612.312 413.202 612.312H644.035C644.575 612.312 645.012 612.751 645.012 613.289C645.012 613.827 644.575 614.266 644.035 614.266Z" fill="#E2DFF4"/>
<path d="M667.502 266.694C667.502 297.554 642.496 322.56 611.664 322.56C580.805 322.56 555.799 297.554 555.799 266.694C555.799 235.834 580.805 210.828 611.664 210.828C642.496 210.828 667.502 235.834 667.502 266.694Z" fill="#F2F0FB"/>
<path d="M569.012 266.69C569.012 277.186 572.796 286.82 579.163 294.218C586.904 303.452 598.545 309.358 611.621 309.358C624.697 309.358 636.338 303.509 644.138 294.276C650.504 286.877 654.289 277.243 654.289 266.69C654.289 243.12 635.192 224.023 611.621 224.023C588.109 224.023 569.012 243.12 569.012 266.69Z" fill="#A8DFFF"/>
<path d="M579.146 294.21C586.884 303.453 598.534 309.342 611.602 309.342C624.711 309.342 636.318 303.496 644.141 294.297C638.037 290.729 631.032 288.149 623.423 286.86C619.64 286.172 615.642 285.828 611.602 285.828C608.377 285.828 605.195 286.043 602.143 286.473C593.632 287.634 585.852 290.342 579.146 294.21Z" fill="#FFA229"/>
<path d="M602.144 286.474V286.645C602.144 292.534 606.916 297.305 612.805 297.305C618.565 297.305 623.294 292.663 623.423 286.86C619.64 286.172 615.642 285.828 611.602 285.828C608.378 285.828 605.196 286.043 602.144 286.474Z" fill="#F35170"/>
<path d="M606.461 274.891V286.663C606.461 290.163 609.298 292.999 612.797 292.999C616.297 292.999 619.134 290.163 619.134 286.663V274.891H606.461Z" fill="#F6A285"/>
<path d="M598.372 270.64C598.717 273.049 600.036 274.884 601.355 274.712C603.075 280.848 607.319 285.837 612.308 285.837C617.298 285.837 621.541 280.848 623.205 274.712H623.262C624.524 274.884 625.9 273.049 626.187 270.64C626.474 268.29 625.613 266.224 624.351 266.052C624.122 266.052 623.951 266.052 623.721 266.11C622.574 259.515 617.929 255.443 612.308 255.443C606.689 255.443 600.413 250.712 600.839 266.11C600.667 266.052 600.438 266.052 600.265 266.052C598.947 266.224 598.086 268.29 598.372 270.64Z" fill="#F6A285"/>
<path d="M601.526 267.18C601.526 267.18 605.457 261.449 604.036 256.003C604.036 256.003 617.202 257.897 625.915 270.4C634.629 282.903 638.731 253.135 623.188 244.921C609.651 237.766 600.592 249.34 602.149 253.729C602.149 253.729 597.995 252.36 597.712 256.56C597.43 260.761 599.261 266.642 599.261 266.642C599.261 266.642 600.619 265.158 601.526 267.18Z" fill="#111D33"/>
<path d="M577.778 189.219H438.423C434.026 189.219 430.45 185.644 430.45 181.25V166.102H585.75V181.25C585.75 185.644 582.174 189.219 577.778 189.219ZM434.356 170.008V181.249C434.356 183.489 436.18 185.312 438.423 185.312H577.778C580.021 185.312 581.844 183.489 581.844 181.249V170.008H434.356Z" fill="#1C4670"/>
<path d="M604.847 139.821V164.283C604.847 168.882 601.118 172.611 596.519 172.611H419.682C415.082 172.611 411.354 168.882 411.354 164.283V139.821C411.354 135.221 415.082 131.492 419.682 131.492H596.519C601.118 131.492 604.847 135.221 604.847 139.821Z" fill="#1C4670"/>
<path d="M215.295 404.015C210.511 403.981 202.19 393.651 199.282 389.817C199.64 391.661 208.218 466.615 206.795 505.288C206.378 516.798 205.083 525.08 202.417 527.337C185.28 541.672 113.176 510.966 64.7564 537.249C39.4171 551.009 68.0192 415.189 68.0192 415.189C67.6183 415.197 48.9248 415.593 50.0957 415.568L49.8509 410.312L32.9004 411.102C33.1802 399.792 34.8753 346.392 41.1302 337.184C49.576 323.482 70.0853 309.399 85.8532 302.715C88.7446 301.542 91.839 300.382 94.8383 299.617C104.44 297.171 140.661 295.895 163.614 299.82C178.079 302.235 193.775 306.681 204.201 313.099C221.909 324.013 242.453 348.289 249.942 368.744C254.141 380.284 227.66 403.583 215.295 404.015Z" fill="#FFA229"/>
<path d="M206.796 505.284C206.378 516.793 205.083 525.076 202.418 527.333C185.281 541.668 113.177 510.962 64.7572 537.245C39.4179 551.004 68.02 415.184 68.02 415.184L53.1377 415.513C55.1042 412.122 56.8472 408.411 59.7747 405.894C63.7465 402.438 69.1007 402.326 72.2621 406.812C74.35 409.711 73.8012 412.553 74.1412 415.943C74.6644 421.324 76.353 426.379 76.5633 431.865C77.651 459.853 61.911 479.941 68.0419 518.059C68.534 520.808 69.4561 524.034 72.0896 525.003C74.8593 525.962 77.6717 523.924 80.0454 522.223C92.7158 513.412 109.459 513.042 124.664 515.74C148.796 520.093 182.644 534.611 194.716 518.018C197.906 513.539 199.387 505.417 206.796 505.284Z" fill="#EE9545"/>
<path d="M121.623 575.724C121.228 575.943 89.8924 593.38 91.8876 592.269C91.8876 592.269 39.5827 507.191 34.8966 485.119C30.2508 463.338 31.4041 416.399 35.2208 393.641L84.7248 399.79C76.4443 516.122 79.3045 475.937 78.685 484.643L121.623 575.724Z" fill="#F6A285"/>
<path d="M90.6406 589.625C91.7883 601.387 95.039 607.834 97.9446 611.296C100.54 614.522 108.313 624.018 112.621 622.692C115.383 621.84 111.221 613.734 112.075 612.647C113.174 617.987 118.21 624.006 120.772 622.97C123.373 621.922 120.483 614.202 121.338 613.116C121.761 615.446 124.6 623.058 128.854 622.187C132.817 621.376 126.984 610.921 127.879 609.837C128.301 612.165 132.954 620.738 135.857 619.517C139.356 618.046 135.066 604.903 133.415 600.436C128.626 587.475 144.773 596.52 147.811 591.759C151.384 586.159 129.194 579.263 120.899 575.773L90.6406 589.625Z" fill="#F6A285"/>
<path d="M91.8885 592.269C91.8885 592.269 39.5836 507.191 34.8976 485.119C30.2518 463.338 31.405 416.399 35.2218 393.641L84.7257 399.79L82.3099 433.853C71.522 436.765 68.6099 432.603 60.7592 432.073C53.2618 431.575 48.0502 431.208 43.7536 438.538C33.712 455.676 55.6316 468.782 59.6071 484.153C63.3862 498.713 57.2337 513.418 58.1562 528.111C58.4934 533.078 63.0939 535.673 66.4578 539.041C69.6802 542.232 73.176 545.01 76.2736 548.364C83.1129 555.784 81.0134 570.459 89.2197 576.492C92.265 578.735 91.8885 592.269 91.8885 592.269Z" fill="url(#paint0_linear_528_3983)"/>
<path d="M250.372 371.019C241.688 352.484 223.516 331.358 207.023 321.213C190.842 311.275 161.058 305.73 142.655 305.651C109.863 305.482 102.16 305.259 88.707 310.848C72.9091 317.508 52.4089 331.596 43.944 345.325C38.1505 354.761 36.4536 399.172 35.9401 410.946L32.8838 411.089C33.2077 398.74 34.8312 347.697 41.1136 337.198C49.5791 323.469 70.0789 309.382 85.8773 302.722C98.261 297.577 104.349 297.342 139.825 297.525C158.26 297.605 188.016 303.151 204.194 313.086C228.938 328.325 249.961 362.198 250.372 371.019Z" fill="#FFA229"/>
<path d="M171.597 327.57C177.209 344.048 190.419 375.042 199.563 389.855C175.892 360.991 171.597 327.57 171.597 327.57Z" fill="white"/>
<path d="M153.844 298.453L153.845 298.483L140.774 334.013C139.848 336.531 136.68 337.33 134.669 335.553L94.2314 299.801C94.2335 299.793 94.2324 299.795 94.2342 299.787C104.874 296.819 128.345 297.472 139.824 297.531C143.851 297.548 148.651 297.849 153.844 298.453Z" fill="white"/>
<path d="M215.284 403.994C214.438 404.003 213.431 403.671 212.352 403.051C218.625 390.808 235.226 388.933 243.75 378.622C245.906 376.042 247.482 372.904 247.94 369.585C248.137 368.176 247.645 365.747 248.031 364.008C248.747 365.608 249.375 367.184 249.943 368.733C254.223 380.218 227.67 403.603 215.284 403.994Z" fill="white"/>
<path d="M32.2894 410.257C33.2243 419.091 78.022 417.99 84.0478 411.554C96.0922 398.622 82.3675 346.638 82.3675 346.638C77.8587 346.544 98.7013 346.975 38.2708 345.727C30.9971 378.791 31.3794 390.72 32.2894 410.257Z" fill="#FFA229"/>
<path d="M32.2901 410.257C32.4562 411.826 33.9487 413.053 36.3559 414.006C36.6831 391.2 40.0738 362.553 43.6506 345.847L38.2715 345.727C31.241 377.685 31.3201 389.432 32.2901 410.257Z" fill="#FFA229"/>
<path d="M145.067 247.633L147.064 297.891L135.518 326.084L104.908 298.146L102.647 249.609L145.067 247.633Z" fill="#F6A285"/>
<path d="M135.517 326.089L104.907 298.15L103.203 261.563C103.283 261.429 103.363 261.297 103.486 261.161C105.591 258.264 109.38 257.313 112.876 256.547C115.798 261.019 119.659 265.318 120.851 270.56C122.269 276.955 123.686 283.35 125.059 289.705C125.921 293.41 126.742 297.164 128.742 300.343C131.302 304.445 135.517 326.089 135.517 326.089Z" fill="url(#paint1_linear_528_3983)"/>
<path d="M172.912 254.014C173.907 274.819 171.481 296.677 156.469 294.458C140.091 292.097 122.528 283.65 108.944 274.427C105.549 272.112 103.611 270.599 103.611 270.599L103.094 259.501C102.932 259.11 84.9178 240.616 100.84 233.681L102.549 209.411C131.116 206.845 157.965 205.778 168.613 218.744C168.665 219.144 172.13 237.231 172.912 254.014Z" fill="url(#paint2_linear_528_3983)"/>
<path d="M140.547 247.803C140.524 249.474 141.866 250.83 143.537 250.854C145.185 250.877 146.563 249.557 146.586 247.887C146.609 246.215 145.267 244.859 143.619 244.836C141.949 244.814 140.57 246.132 140.547 247.803Z" fill="#111D33"/>
<path d="M144.714 248.852C145.75 248.864 145.772 247.296 144.736 247.281C143.688 247.268 143.662 248.836 144.714 248.852Z" fill="#FBFBFB"/>
<path d="M83.4824 222.333C85.8363 233.402 94.3391 248.341 100.49 256.422C96.3754 249.099 93.3617 236.643 100.194 234.167C107.97 231.356 112.138 245.541 112.138 245.541C112.138 245.541 115.454 254.317 117.695 253.421C121.94 251.724 115.334 237.428 119.798 235.262C124.271 233.096 129.258 231.422 129.153 222.738C129.089 217.968 131.234 216.26 134.515 215.691C157.523 211.719 163.37 226.534 173.666 215.975C178.739 210.781 180.613 204.855 179.043 199.237C176.083 188.628 160.786 179.11 131.379 177.707C86.9275 175.586 98.5766 198.903 98.834 199.416C98.8428 199.424 98.8429 199.424 98.8429 199.424C83.6533 201.506 81.1384 211.371 83.4824 222.333Z" fill="black"/>
<path opacity="0.1" d="M179.564 203.653C179.485 202.947 179.339 202.267 179.147 201.588C176.202 190.962 160.895 181.461 131.492 180.037C103.262 178.695 97.6541 187.613 97.3762 194.429C96.5285 187.551 99.779 176.201 131.384 177.706C160.786 179.108 176.093 188.632 179.037 199.235C179.449 200.705 179.609 202.162 179.564 203.653Z" fill="white"/>
<path opacity="0.3" d="M156.467 294.46C153.846 294.076 151.254 293.554 148.689 292.896C150.362 293.258 152.065 293.55 153.767 293.809C180.885 297.818 168.619 218.742 168.619 218.742C168.619 218.742 184.505 298.628 156.467 294.46Z" fill="#FDE0BB"/>
<path d="M130.362 244.715C127.376 246.623 127.716 241.421 131.893 237.731C136.799 233.393 143.702 232.512 147.773 233.888C148.654 234.184 149.498 234.648 150.115 235.343C150.732 236.041 151.099 236.989 150.966 237.91C150.574 240.634 147.836 239.852 145.938 239.736C138.865 239.307 136.275 240.937 130.362 244.715Z" fill="#111D33"/>
<path d="M159.694 233.723C162.131 231.928 166.809 230.541 171.659 231.311C173.077 231.537 174.122 232.761 174.116 234.198C174.11 235.841 172.742 237.128 171.099 237.081C170.754 237.071 170.409 237.072 170.064 237.086C167.697 237.183 165.404 237.865 163.21 238.716C161.443 239.402 159.084 240.974 157.885 238.509C157.25 237.204 157.601 235.268 159.694 233.723Z" fill="#111D33"/>
<path d="M107.441 246.777C105.867 241.307 101.273 238.528 96.8915 241.218C96.4632 241.479 96.859 242.12 97.2843 241.864C101.276 239.43 105.229 242.066 106.663 246.861C105.726 246.192 104.726 245.972 103.191 246.526C101.198 247.255 101.622 248.878 102.252 248.71C102.257 248.708 102.263 248.707 102.272 248.705C102.467 248.64 102.576 248.428 102.514 248.228C102.217 247.317 105.507 246.027 106.875 248.071C106.889 248.094 106.922 248.079 106.94 248.096C107.687 251.66 107.211 252.555 107.907 252.502C107.93 252.499 107.955 252.496 107.974 252.49C108.148 252.444 108.269 252.28 108.253 252.095" fill="#E17659"/>
<path d="M100.49 256.427C96.3754 249.104 93.3616 236.648 100.194 234.172C107.97 231.361 112.138 245.546 112.138 245.546C112.138 245.546 115.454 254.322 117.695 253.426C121.94 251.729 115.334 237.433 119.798 235.267C124.271 233.101 129.258 231.427 129.153 222.743C129.089 217.973 131.234 216.265 134.515 215.695C157.523 211.724 163.37 226.539 173.666 215.98C178.739 210.786 180.613 204.86 179.043 199.242C178.757 199.547 178.462 199.819 178.156 200.066C166.327 209.57 143.053 194.272 126.451 202.309C120.178 205.342 115.463 212.492 117.227 219.233C117.784 221.365 118.941 223.326 119.293 225.511C120.115 230.481 115.778 233.344 111.79 229.325C110.479 228.011 109.503 226.366 108.057 225.192C105.174 222.852 100.574 223 97.8505 225.525C94.97 228.205 94.5193 231.995 91.9072 242.981C96.1158 250.525 100.232 256.088 100.49 256.427Z" fill="#111D33"/>
<path d="M83.4824 222.337C83.5552 222.299 83.594 222.065 83.5901 221.623C83.5059 216.228 87.2252 206.316 93.3315 202.726C99.2915 199.223 109.234 203.6 109.702 203.812C103.243 198.931 98.8431 199.428 98.8431 199.428C83.6533 201.509 81.1384 211.374 83.4824 222.337Z" fill="#111D33"/>
<path d="M161.805 263.783C156.666 262.018 159.527 262.2 155.484 264.078C153.404 265.043 155.841 259.708 157.591 259.626C159.328 259.545 164.273 264.63 161.805 263.783Z" fill="#E17659"/>
<path d="M151.428 274.553C151.077 274.53 150.804 274.889 150.954 275.206C152.466 278.425 155.613 280.562 159.147 280.334C162.605 280.112 165.428 277.727 166.624 274.487C166.747 274.155 166.45 273.82 166.101 273.883C161.469 274.71 156.569 274.913 151.428 274.553Z" fill="#E17659"/>
<path d="M150.026 247.467C149.955 247.545 149.955 247.545 149.881 247.549C147.928 246.974 145.825 246.331 143.943 245.677C140.745 247.297 139.365 249.113 134.496 249.524C134.422 249.527 134.344 249.458 134.341 249.383C134.411 249.307 134.411 249.307 134.411 249.307C135.676 247.838 137.113 246.885 138.63 246.073C140.225 245.333 141.904 244.811 143.502 244.143L143.576 244.139C144.039 243.957 143.847 243.809 149.945 247.325C150.022 247.394 150.026 247.467 150.026 247.467Z" fill="#111D33"/>
<path d="M164.33 246.686C164.307 248.357 165.649 249.713 167.32 249.737C168.968 249.76 170.347 248.44 170.369 246.77C170.392 245.097 169.051 243.742 167.402 243.719C165.732 243.696 164.353 245.015 164.33 246.686Z" fill="#111D33"/>
<path d="M173.8 246.353C173.73 246.432 173.73 246.432 173.655 246.435C171.703 245.861 169.6 245.218 167.718 244.564C164.52 246.183 163.139 248 158.27 248.41C158.196 248.414 158.119 248.345 158.115 248.269C158.185 248.194 158.185 248.194 158.185 248.194C160.978 244.948 164.407 244.228 167.276 243.029L167.35 243.025C167.568 242.94 167.789 242.93 167.941 242.998C169.914 244.017 171.816 245.114 173.719 246.211C173.796 246.281 173.8 246.353 173.8 246.353Z" fill="#111D33"/>
<path d="M168.498 247.735C169.535 247.747 169.553 246.179 168.519 246.164C167.472 246.151 167.445 247.719 168.498 247.735Z" fill="#FBFBFB"/>
<path d="M299.492 308.856C312.084 301.296 307.502 291.336 307.502 291.336C314.779 288.078 324.192 285.234 322.442 279.983C320.312 273.59 300.697 282.841 293.818 289.308C289.665 293.212 287.64 299.808 287.518 311.215" fill="#F6A285"/>
<path d="M306.914 301.532C308.53 298.43 308.821 294.595 307.431 291.372C307.066 290.629 322.689 286.77 322.516 281.177C322.866 272.114 296.056 284.386 291.262 292.819C288.013 298.589 287.815 305.1 287.518 311.236C287.7 305.022 287.742 298.633 290.982 292.657C295.435 284.428 322.532 271.55 322.779 281.172C322.885 285.988 312.891 289.033 307.535 291.408L307.573 291.302C309.418 295.649 308.61 301.043 303.748 305.732C301.709 307.635 299.082 309.122 299.475 308.867C300.051 308.365 304.622 305.911 306.914 301.532Z" fill="#E17659"/>
<path d="M776.742 889.128C782.524 877.952 799.598 881.086 814.435 881.086C822.282 881.086 824.483 875.646 824.831 870.515L853.112 869.5C857.961 877.381 860.401 892.947 860.33 902.679C860.296 907.399 856.443 911.18 851.723 911.18H785.164C781.929 911.18 778.994 909.364 777.501 906.494C775.309 902.283 773.313 895.757 776.742 889.128Z" fill="#4C5C75"/>
<path d="M881.013 889.128C886.794 877.952 903.868 881.086 918.706 881.086C926.553 881.086 928.753 875.646 929.102 870.515L957.383 869.5C962.231 877.381 964.67 892.947 964.6 902.679C964.566 907.399 960.713 911.18 955.994 911.18H889.435C886.2 911.18 883.264 909.364 881.771 906.494C879.58 902.283 877.584 895.757 881.013 889.128Z" fill="#4C5C75"/>
<path d="M775.166 899.562C775.596 902.201 776.511 904.586 777.5 906.485C778.994 909.356 781.929 911.173 785.164 911.173L851.723 911.171C856.443 911.171 860.296 907.392 860.329 902.671C860.337 901.701 860.3 900.638 860.257 899.563L775.166 899.562Z" fill="#111D33"/>
<path d="M879.438 899.562C879.866 902.201 880.783 904.586 881.772 906.485C883.265 909.356 886.201 911.173 889.436 911.173L955.995 911.171C960.714 911.171 964.567 907.392 964.601 902.671C964.609 901.701 964.571 900.638 964.528 899.563L879.438 899.562Z" fill="#111D33"/>
<path d="M819.52 868.807C820.371 871.235 822.712 872.852 825.265 872.852H853.141C855.78 872.852 858.036 871.15 858.93 868.722C870.591 836.592 851.864 782.328 856.759 723.514V723.469C857.696 711.724 859.653 699.807 862.931 687.847C873.144 650.737 877.06 618.689 877.996 593.113C878.889 568.002 876.89 549.063 875.06 537.529C873.655 529.018 872.378 524.506 872.378 524.506L804.88 514.164C804.473 517.894 794.173 591.709 792.282 672.866C790.367 752.708 801.092 816.929 819.52 868.807Z" fill="#497BFD"/>
<path d="M856.759 723.466C857.695 711.721 859.653 699.804 862.93 687.844C873.144 650.734 877.059 618.686 877.996 593.109L868.761 598.555C868.761 598.555 851.056 695.591 856.759 723.466Z" fill="#2C65E4"/>
<path d="M872.761 677.931C881.316 759.857 893.019 830.972 923.788 869.359C924.981 870.806 927.109 872.042 929.832 873.02C940.132 876.679 958.347 876.339 959.751 869.359C969.88 820.333 935.875 761.133 944.77 683.76C955.921 586.513 933.535 518.547 933.535 518.547H869.866C867.247 573.012 866.994 622.838 872.761 677.931Z" fill="#497BFD"/>
<path d="M869.526 523.952C880.86 533.044 896.163 535.261 907.488 544.294C920.172 554.381 925.576 571.446 925.96 587.661C926.386 603.92 922.554 619.921 920.172 636.01C914.469 674.313 912 717.766 926.683 753.6C942.048 791.05 946.431 836.292 929.832 873.02C940.132 876.679 958.347 876.339 959.751 869.359C969.88 820.333 935.876 761.133 944.771 683.76C955.922 586.513 933.535 518.547 933.535 518.547H869.866C869.866 518.547 869.74 520.419 869.526 523.952Z" fill="#2C65E4"/>
<path d="M693.521 298.656C693.521 298.656 683.654 301.062 691.497 307.613C691.497 307.613 682.996 309.624 689.978 315.961C689.978 315.961 684.405 319.89 690.683 324.807C693.474 327.025 695.337 328.823 697.519 330.536L697.546 330.538C699.678 332.163 702.075 333.667 705.905 335.32C708.066 336.264 709.637 338.154 710.067 340.457C713.093 356.84 725.978 421.777 741.932 430.65C760.215 440.823 794.881 409.961 794.881 409.961C792.501 406.701 803.501 421.769 771.608 378.083L758.47 389.798C759.233 382.689 749.245 368.902 742.494 362.186C735.742 355.471 732.258 325.587 732.258 325.587C732.258 325.587 703.686 289.092 690.914 281.166C685.227 279.05 682.667 283.658 693.521 298.656Z" fill="#F6A285"/>
<path d="M697.545 330.544C699.677 332.169 702.074 333.673 705.904 335.326C708.065 336.27 709.636 338.16 710.067 340.463C713.092 356.846 725.977 421.783 741.931 430.656C760.214 440.829 794.88 409.967 794.88 409.967L775.776 383.823C765.633 387.044 761.371 395.515 762.955 401.913C764.151 406.605 768.27 410.917 766.917 415.566C765.565 420.216 759.724 421.597 754.912 422.188C750.275 422.735 744.598 422.828 742.121 418.88C739.343 414.482 742.867 408.937 743.527 403.747C745.298 390.464 730.074 382.874 725.909 371.039C722.584 361.634 726.391 350.67 722.422 341.524C720.307 336.642 715.982 332.766 710.902 331.152C706.429 329.728 701.996 330.888 697.545 330.544Z" fill="url(#paint3_linear_528_3983)"/>
<path d="M966.617 416.261H950.172V421.409L932.771 421.773C932.771 421.773 939.149 489.373 942.201 524.311C943.75 541.986 818.525 551.916 803.174 521.168C801.762 518.299 800.669 514.335 799.94 509.598C794.747 476.528 804.222 405.511 804.54 403.142C804.085 403.87 802.217 407.971 797.116 411.159C796.113 411.796 795.157 412.161 794.291 412.206C782.172 412.355 755.488 390.67 759.17 379.637C765.427 360.314 778.827 341.111 796.387 329.118C806.181 322.468 821.122 317.457 835.06 314.405C859.948 309.413 892.748 309.351 901.614 311.171C901.75 311.171 901.841 311.216 901.978 311.261C902.069 311.261 902.16 311.307 902.206 311.307C920.963 314.848 950.419 335.156 955.684 345.699C957.461 348.706 959.01 354.718 960.376 362.099C963.747 380 965.843 405.83 966.617 416.261Z" fill="#C5ADFF"/>
<path d="M966.6 416.241H950.194V421.41L932.792 421.789C932.792 421.789 939.145 489.36 942.18 524.307C943.745 541.994 818.515 551.903 803.153 521.177C801.777 518.285 800.686 514.349 799.927 509.607C794.76 476.509 804.243 405.525 804.528 403.154C804.099 403.865 802.203 407.991 797.13 411.168C796.132 411.785 795.137 412.164 794.285 412.211C782.452 412.362 755.835 391.22 759.147 379.634C765.889 359.478 779.142 340.879 796.371 329.135C807.505 321.551 824.466 316.542 837.861 313.867C849.429 310.97 887.022 308.854 899.884 310.879C900.451 310.974 901.069 311.069 901.59 311.164C901.734 311.164 901.826 311.211 901.97 311.259C902.065 311.259 902.16 311.306 902.206 311.306C918.497 314.564 947.296 331.844 955.695 345.684C957.449 348.72 959.012 354.74 960.388 362.091C963.754 380.014 965.84 405.809 966.6 416.241Z" fill="#FFA229"/>
<path d="M759.497 380.566C767.068 362.235 778.49 347.704 793.997 337.141C806.6 328.567 827.012 323.094 842.073 320.7C856.433 318.389 882.752 317.662 892.466 318.328C895.008 318.497 897.324 318.779 899.244 319.175C899.442 319.204 899.64 319.26 899.837 319.316C916.094 322.866 942.708 338.14 952.941 353.127C954.862 355.952 956.557 362.25 958.025 370.104C960.313 382.42 962.432 402.842 963.646 416.288H966.613C965.85 405.836 963.732 379.991 960.398 362.11C959.014 354.738 957.433 348.749 955.681 345.698C946.898 331.708 919.788 315.205 902.351 311.35C902.295 311.35 902.266 311.322 902.21 311.322C902.012 311.266 901.815 311.209 901.617 311.182C892.557 309.311 858.496 309.521 835.039 314.458C821.142 317.479 806.171 322.481 796.369 329.147C779.224 340.84 765.35 359.244 759.808 378.335C759.602 379.046 759.497 379.776 759.497 380.566Z" fill="#FFA229"/>
<path d="M828.577 341.68C823.887 357.883 812.497 388.481 804.313 403.231C825.926 374.224 828.577 341.68 828.577 341.68Z" fill="#FFA229"/>
<path d="M794.318 412.206C795.137 412.177 796.097 411.81 797.114 411.161C788.963 396.926 764.355 397.601 761.157 380.37C760.902 379.016 761.269 376.642 760.817 374.977C760.196 376.558 759.658 378.112 759.179 379.637C755.557 390.934 782.297 412.387 794.318 412.206Z" fill="white"/>
<path d="M799.929 509.555C800.663 514.328 801.736 518.31 803.149 521.163C818.515 551.925 943.733 541.982 942.179 524.299C939.128 489.357 932.774 421.792 932.774 421.792L950.173 421.368V416.256H966.613C965.851 405.805 963.732 379.96 960.399 362.079C957.941 360.978 955.343 360.129 952.688 359.536C946.078 358.096 938.847 358.293 932.914 361.514C923.989 366.373 922.576 378.039 919.102 386.71C904.034 424.185 931.364 458.046 913.481 512.944C912.775 515.176 911.956 517.436 910.402 519.186C906.646 523.396 900.12 523.199 894.528 522.69C879.444 521.305 858.823 530.289 849.248 518.537C843.627 511.617 860.292 495.939 852.298 491.871C848.118 489.753 846.395 499.132 843.711 502.974C841.056 506.844 838.006 510.628 833.882 512.86C829.759 515.092 824.278 515.374 820.606 512.463C816.934 509.555 823.515 503.651 820.211 500.346C818.43 498.567 807.131 504.245 799.929 509.555Z" fill="#FFA229"/>
<path d="M840.238 407.747L868.478 521.735C869.964 527.735 866.305 532.599 860.305 532.599H776.984C770.984 532.599 764.915 527.735 763.428 521.735L735.189 407.747C733.702 401.747 737.361 396.883 743.361 396.883H826.682C832.682 396.883 838.752 401.747 840.238 407.747Z" fill="#FFDC98"/>
<path d="M719.328 331.666C708.64 325.251 712.732 311.035 712.732 311.035C705.77 308.509 702.583 308.221 703.849 303.237C705.391 297.17 718.462 302.706 725.273 308.233C729.383 311.568 731.705 317.541 732.59 328.102" fill="#F6A285"/>
<path d="M719.317 331.68C712.257 327.568 710.739 318.887 712.655 311.012L712.704 311.107C708.296 309.463 703.672 308.669 703.478 305.547C703.456 304.291 703.576 302.962 704.353 301.89C706.95 298.554 714.761 301.749 718.509 303.662C727.236 308.344 731.249 311.638 732.608 328.098C732.609 328.109 732.601 328.119 732.59 328.12C732.58 328.12 732.57 328.112 732.569 328.101C730.965 311.799 727.039 308.767 718.347 303.976C714.769 302.128 707.042 298.911 704.566 302.057C703.852 303.004 703.704 304.343 703.721 305.523C703.897 308.534 708.499 309.323 712.758 310.958C712.796 310.973 712.817 311.015 712.807 311.055C710.869 318.847 712.309 327.501 719.337 331.646C719.347 331.652 719.35 331.663 719.344 331.673C719.339 331.682 719.327 331.686 719.317 331.68Z" fill="#E17659"/>
<path d="M833.742 462.89C834.222 462.833 837.273 462.55 838.063 462.464C811.37 467.267 828.685 469.724 840.804 468.425C816.681 471.927 830.747 475.147 842.781 474.526C838.742 475.119 833.799 476.137 833.685 477.943C833.601 479.355 837.922 480.655 843.656 481.729C845.097 481.983 846.622 482.237 848.205 482.492C854.814 483.481 857.159 483.508 859.842 485.683C863.429 487.379 880.123 490.203 886.507 490.683C916.815 492.942 946.107 490.287 957.858 473.566C965.909 462.07 965.569 437.467 962.914 415.094H918.793C918.751 421.463 919.013 427.573 919.104 428.653C919.527 439.104 919.782 444.274 921.985 455.995C895.094 460.571 877.016 459.611 875.632 458.989C872.779 457.72 865.125 449.585 860.407 449.159C854.871 448.652 849.316 443.462 849.316 443.462L851.932 454.015C850.718 454.296 822.19 459.046 823.009 461.757C823.742 464.216 831.934 463.03 833.742 462.89Z" fill="#F6A285"/>
<path d="M843.654 481.729C845.095 481.983 846.62 482.237 848.203 482.492C854.812 483.481 857.157 483.508 859.84 485.683C863.428 487.379 880.121 490.203 886.505 490.683C916.813 492.942 946.105 490.287 957.856 473.566C965.907 462.07 965.568 437.467 962.912 415.094H918.791C918.749 421.463 919.011 427.574 919.102 428.654C919.13 428.681 919.158 428.71 919.187 428.71C928.927 433.578 935.609 429.393 942.038 427.721C945.541 426.845 949.411 426.62 952.517 428.455C957.743 431.535 958.393 438.709 958.477 444.782C958.563 451.617 958.167 459.498 952.772 463.707C948.619 466.928 942.885 466.843 937.688 467.493C914.37 470.434 892.915 491.577 869.331 483.678C865.8 482.491 862.523 480.655 859.021 479.384C855.547 478.085 851.648 477.379 848.118 478.565C846.366 479.131 844.757 480.26 843.654 481.729Z" fill="url(#paint4_linear_528_3983)"/>
<path d="M914.219 355.446L957.631 352.555C963.246 373.726 967.45 392.262 966.471 415.833C966.11 424.52 921.786 425.529 915.561 419.459C903.079 407.287 914.219 355.446 914.219 355.446Z" fill="#FFA229"/>
<path d="M915.91 419.832C925.619 425.871 966.126 423.882 966.471 415.834C967.448 392.267 963.251 373.728 957.618 352.547L952.337 352.912C957.797 373.635 964.631 391.691 963.683 414.828C963.367 422.128 926.229 422.477 915.91 419.832Z" fill="white"/>
<path d="M899.884 310.874L899.409 311.68C884.614 337.475 872.808 348.952 861.049 348.952C848.388 348.952 840.802 337.192 838.382 313.767C859.228 309.898 890.082 309.331 899.884 310.874Z" fill="white"/>
<path d="M815.025 223.658C815.025 223.658 811.203 231.318 820.477 241.16L831.5 220.883L815.025 223.658Z" fill="black"/>
<path d="M890.694 309.896V259.242H847.47V314.298C853.606 344.184 866.086 349.82 890.694 309.896Z" fill="#F6A285"/>
<path d="M820.605 267.411C822.026 282.843 826.528 297.747 838.157 300.517C850.124 303.382 878.221 290.211 885.469 284.794C888.815 282.289 890.693 280.628 890.693 280.628V269.336C890.693 269.336 896.063 263.245 898.085 256.719C899.77 251.398 899.217 245.788 891.753 242.971L888.863 218.365C859.706 217.113 831.801 215.981 821.568 229.658C821.552 230.105 818.976 250.066 820.605 267.411Z" fill="url(#paint5_linear_528_3983)"/>
<path d="M816.886 228.412C827.841 238.644 833.09 223.308 856.685 226.269C860.032 226.678 862.295 228.316 862.464 233.178C862.777 242.015 867.93 243.484 872.576 245.458C877.223 247.456 871.179 262.312 875.562 263.829C877.897 264.647 880.859 255.546 880.859 255.546C880.859 255.546 884.422 240.932 892.464 243.411C899.518 245.627 897.038 258.436 893.21 266.068C893.45 265.707 897.375 259.856 901.3 251.982C901.902 250.803 902.48 249.552 903.058 248.275C904.984 244.134 906.742 239.583 907.897 235.129C908.306 233.612 908.643 232.095 908.884 230.602C910.088 223.428 909.077 215.603 900.818 213.315C900.843 213.267 900.843 213.219 900.843 213.171C900.866 213.195 900.866 213.171 900.866 213.171C904.623 199.76 893.547 194.415 893.547 194.415C870.746 185.241 860.514 205.658 850.665 204.768C840.795 203.877 829.43 186.012 813.322 197.424C797.454 208.63 816.748 228.021 816.886 228.412Z" fill="black"/>
<path d="M838.224 270.895C838.44 270.762 838.683 271.026 838.601 271.323C838.124 273.052 837.25 274.598 836.074 275.568C834.719 276.684 832.848 277.152 831.489 276.161C829.864 274.977 828.712 272.493 829.701 271.891C830.417 271.454 831.618 273.64 832.516 273.723C836.139 274.057 837.363 271.418 838.224 270.895Z" fill="#E17659"/>
<path d="M885.684 256.584C886.168 254.544 887.023 252.884 888.221 251.646C889.639 250.189 891.565 249.405 893.375 249.548C894.282 249.617 895.215 249.916 896.148 250.43C896.334 250.532 896.403 250.765 896.301 250.951C896.195 251.14 895.96 251.203 895.779 251.105C894.939 250.646 894.115 250.38 893.312 250.314C891.729 250.187 890.034 250.887 888.774 252.182C887.7 253.289 886.935 254.797 886.478 256.631C886.932 256.275 887.443 255.999 888.02 255.917C888.61 255.83 889.254 255.897 889.993 256.127C890.347 256.237 890.753 256.39 891.079 256.695C891.458 257.057 891.627 257.58 891.504 258.029C891.45 258.227 891.251 258.346 891.051 258.302C891.046 258.301 891.04 258.3 891.031 258.298C890.829 258.241 890.709 258.03 890.763 257.824C890.81 257.65 890.725 257.42 890.553 257.253C890.343 257.057 890.036 256.947 889.765 256.863C889.15 256.667 888.607 256.61 888.13 256.678C887.395 256.782 886.702 257.239 886.321 257.872C886.307 257.895 886.273 257.882 886.255 257.901C886.036 259.257 885.926 260.638 885.878 262.056C885.871 262.27 885.694 262.434 885.48 262.427C885.457 262.425 885.432 262.423 885.412 262.418C885.233 262.379 885.102 262.218 885.11 262.029" fill="#E17659"/>
<path d="M848.441 258.661C848.441 259.983 847.364 261.041 846.042 261.041C844.739 261.041 843.662 259.983 843.662 258.661C843.662 257.339 844.739 256.281 846.042 256.281C847.364 256.281 848.441 257.339 848.441 258.661Z" fill="#111D33"/>
<path d="M841.204 258.219C841.228 258.244 841.277 258.267 841.301 258.267C842.818 257.811 844.286 257.377 845.779 256.895C846.863 257.522 847.874 258.244 849.005 258.845C850.185 259.375 851.461 259.785 852.882 259.881C852.93 259.881 852.978 259.856 852.978 259.785C852.978 259.76 852.978 259.736 852.954 259.736C852.039 258.653 850.956 257.882 849.8 257.256C848.597 256.679 847.344 256.293 846.14 255.763L846.068 255.739C845.924 255.691 845.779 255.691 845.659 255.739C844.166 256.486 842.697 257.304 841.228 258.099C841.204 258.123 841.18 258.171 841.204 258.219Z" fill="#111D33"/>
<path d="M826.961 258.333C826.961 259.655 825.885 260.712 824.562 260.712C823.259 260.712 822.183 259.655 822.183 258.333C822.183 257.011 823.259 255.953 824.562 255.953C825.885 255.953 826.961 257.011 826.961 258.333Z" fill="#111D33"/>
<path d="M823.322 258.953C822.501 258.953 822.501 257.711 823.322 257.711C824.151 257.711 824.151 258.953 823.322 258.953Z" fill="#FBFBFB"/>
<path d="M845.63 258.332C845.63 258.677 845.349 258.953 845.004 258.953C844.664 258.953 844.383 258.677 844.383 258.332C844.383 257.987 844.664 257.711 845.004 257.711C845.349 257.711 845.63 257.987 845.63 258.332Z" fill="#FBFBFB"/>
<path d="M819.825 257.932C821.424 257.46 823.033 257.008 824.611 256.481L824.137 256.464C825.28 257.115 826.358 257.896 827.518 258.512C828.716 259.054 829.977 259.47 831.401 259.559C831.452 259.562 831.497 259.523 831.5 259.472C831.501 259.446 831.493 259.423 831.478 259.405C830.553 258.318 829.465 257.558 828.314 256.923C827.126 256.363 825.855 255.968 824.648 255.443L824.585 255.415C824.449 255.356 824.299 255.365 824.175 255.425C822.684 256.164 821.225 256.978 819.758 257.773C819.668 257.822 819.724 257.961 819.825 257.932Z" fill="#111D33"/>
<path d="M839.834 245.309C835.814 247.239 837.891 251.783 841.602 250.554C842.471 250.267 843.282 249.771 844.124 249.383C847.405 247.869 851.182 248.067 854.346 249.918C854.97 250.283 855.585 250.714 856.268 250.841C856.951 250.968 857.739 250.705 858.083 249.968C859.511 246.915 847.545 241.612 839.834 245.309Z" fill="#111D33"/>
<path d="M831.203 245.698C831.984 246.073 832.818 246.697 832.96 247.714C833.169 249.209 831.863 250.685 829.757 249.989C829.047 249.754 828.382 249.348 827.694 249.03C825.01 247.792 821.92 247.954 819.331 249.468C818.821 249.767 818.317 250.12 817.759 250.223C817.2 250.327 816.556 250.112 816.274 249.509C815.081 246.955 824.966 242.707 831.203 245.698Z" fill="#111D33"/>
<path d="M807.423 211.961C809.156 220.581 816.885 228.405 816.885 228.405C827.84 238.638 833.089 223.301 856.684 226.263C860.031 226.672 862.295 228.31 862.463 233.172C862.776 242.009 867.929 243.478 872.575 245.452C877.222 247.45 871.178 262.306 875.561 263.823C877.896 264.641 880.858 255.54 880.858 255.54C880.858 255.54 884.421 240.926 892.463 243.405C899.517 245.62 897.037 258.43 893.209 266.062C893.449 265.701 897.374 259.85 901.299 251.976C901.901 250.797 902.479 249.546 903.057 248.269C902.816 247.378 902.527 246.536 902.166 245.692C900.143 240.853 895.713 236.399 890.488 236.761C887.479 236.977 884.854 238.711 882.085 239.89C875.974 242.495 871.327 240.43 871.178 233.774C871.106 231.583 871.492 229.368 871.251 227.178C870.528 220.412 864.076 215.404 857.407 214.079C841.146 210.852 820.422 225.58 807.423 211.961Z" fill="black"/>
<path d="M885.987 218.637C889.743 217.794 893.475 216.952 897.231 216.084C902.622 214.888 905.061 216.121 905.465 222.321C905.634 226.077 907.247 230.796 907.897 235.13C908.306 233.613 908.643 232.096 908.884 230.603C910.088 223.428 909.077 215.604 900.818 213.316C900.843 213.268 900.843 213.22 900.843 213.172C900.65 213.34 900.433 213.461 900.216 213.557C898.843 214.158 892.223 215.676 885.987 218.637Z" fill="black"/>
<path d="M837.848 282.79C834.895 283.268 832.128 283.288 829.558 282.825C829.056 282.734 828.64 283.204 828.829 283.679C829.471 285.298 830.989 288.158 833.7 288.158C836.374 288.158 837.918 285.264 838.571 283.65C838.76 283.182 838.347 282.71 837.848 282.79Z" fill="#E17659"/>
<path d="M500 783.224V896.164C500 901.247 495.875 905.363 490.793 905.363H306.398C301.316 905.363 297.19 901.247 297.19 896.164V783.224C297.19 778.141 301.316 774.016 306.398 774.016H490.793C495.875 774.016 500 778.141 500 783.224Z" fill="#FFA229"/>
<path d="M345.093 767.195V774.017H321.71V767.195C321.71 766.048 322.64 765.117 323.788 765.117H343.014C344.162 765.117 345.093 766.048 345.093 767.195Z" fill="#1C4670"/>
<path d="M475.482 767.195V774.017H452.1V767.195C452.1 766.048 453.03 765.117 454.178 765.117H473.404C474.552 765.117 475.482 766.048 475.482 767.195Z" fill="#1C4670"/>
<path d="M500.001 798.836H297.19V810.898H500.001V798.836Z" fill="#1C4670"/>
<path d="M434.664 855.626C434.664 875.549 418.515 891.689 398.592 891.689C378.678 891.689 362.528 875.549 362.528 855.626C362.528 835.703 378.678 819.562 398.592 819.562C418.515 819.563 434.664 835.703 434.664 855.626Z" fill="white"/>
<path d="M435.23 753.923V774.024H426.308V760.847C426.308 758.763 424.62 757.075 422.536 757.075H374.652C372.568 757.075 370.88 758.763 370.88 760.847V774.024H361.958V753.923C361.958 751.167 364.197 748.945 366.936 748.945H430.252C432.991 748.945 435.23 751.167 435.23 753.923Z" fill="#1C4670"/>
<path d="M418.309 861.858L408.615 856.261L418.089 850.791C418.765 850.4 418.997 849.535 418.607 848.859L415.103 842.791C414.713 842.114 413.848 841.883 413.172 842.273L403.328 847.956V836.336C403.328 835.555 402.695 834.922 401.914 834.922H394.907C394.126 834.922 393.493 835.555 393.493 836.336V847.53L384.018 842.06C383.342 841.669 382.477 841.901 382.087 842.577L378.583 848.646C378.193 849.322 378.424 850.187 379.101 850.577L388.944 856.261L378.881 862.071C378.205 862.461 377.973 863.326 378.364 864.002L381.867 870.071C382.257 870.747 383.122 870.979 383.799 870.588L393.493 864.991V875.931C393.493 876.712 394.126 877.346 394.907 877.346H401.914C402.695 877.346 403.328 876.713 403.328 875.931V864.565L413.391 870.375C414.068 870.766 414.933 870.534 415.323 869.857L418.827 863.789C419.217 863.113 418.985 862.248 418.309 861.858Z" fill="#1C4670"/>
<path d="M752.895 585.276C755.642 585.681 757.692 588.01 757.696 590.787L757.802 671.73C757.826 689.956 749.014 707.056 734.163 717.62L681.39 755.144C679.459 756.518 676.871 756.521 674.936 755.153L622.065 717.767C607.186 707.242 598.328 690.165 598.305 671.94L598.198 590.997C598.195 588.22 600.238 585.884 602.985 585.473C617.027 583.37 628.12 572.253 630.186 558.201C630.59 555.453 632.92 553.404 635.697 553.4L720.099 553.289C722.876 553.285 725.211 555.329 725.622 558.076C727.725 572.122 738.848 583.21 752.895 585.276Z" fill="#1C4670"/>
<path d="M706.179 671.252C721.739 655.692 721.739 630.464 706.179 614.904C690.619 599.344 665.391 599.344 649.831 614.904C634.271 630.464 634.271 655.692 649.831 671.252C665.391 686.812 690.619 686.812 706.179 671.252Z" fill="white"/>
<path d="M669.304 654.101L661.861 645.505C660.08 643.449 660.305 640.339 662.36 638.56C664.417 636.779 667.525 637.004 669.306 639.059L673.661 644.089L687.379 633.208C689.51 631.518 692.607 631.872 694.296 634.005C695.987 636.135 695.629 639.232 693.499 640.922L676.086 654.736C674.026 656.371 671.033 656.099 669.304 654.101Z" fill="#1C4670"/>
<path d="M841.595 103.362V150.222C841.595 152.308 839.904 153.999 837.819 153.999H808.634L797.989 169.352C796.487 171.518 793.285 171.519 791.783 169.353L782.253 155.623C781.548 154.606 780.389 153.999 779.151 153.999H751.943C749.857 153.999 748.166 152.309 748.166 150.222V103.362C748.166 101.277 749.857 99.5859 751.943 99.5859H837.819C839.904 99.5862 841.595 101.277 841.595 103.362Z" fill="#FFA229"/>
<path d="M779.467 125.55C779.467 130.031 775.848 133.649 771.367 133.649C766.921 133.649 763.302 130.031 763.302 125.55C763.302 121.104 766.921 117.484 771.367 117.484C775.848 117.485 779.467 121.104 779.467 125.55Z" fill="#1C4670"/>
<path d="M802.965 125.55C802.965 130.031 799.346 133.649 794.865 133.649C790.419 133.649 786.8 130.031 786.8 125.55C786.8 121.104 790.419 117.484 794.865 117.484C799.346 117.485 802.965 121.104 802.965 125.55Z" fill="#1C4670"/>
<path d="M826.461 125.55C826.461 130.031 822.842 133.649 818.361 133.649C813.915 133.649 810.296 130.031 810.296 125.55C810.296 121.104 813.915 117.484 818.361 117.484C822.842 117.485 826.461 121.104 826.461 125.55Z" fill="#1C4670"/>
</g>
<defs>
<linearGradient id="paint0_linear_528_3983" x1="33.7929" y1="494.34" x2="89.0075" y2="491.77" gradientUnits="userSpaceOnUse">
<stop offset="1e-07" stop-color="#F6A285"/>
<stop offset="1" stop-color="#FC6B58"/>
</linearGradient>
<linearGradient id="paint1_linear_528_3983" x1="104.63" y1="292.229" x2="136.792" y2="290.731" gradientUnits="userSpaceOnUse">
<stop offset="1e-07" stop-color="#F6A285"/>
<stop offset="1" stop-color="#FC6B58"/>
</linearGradient>
<linearGradient id="paint2_linear_528_3983" x1="191.254" y1="249.27" x2="52.6474" y2="254.847" gradientUnits="userSpaceOnUse">
<stop offset="1e-07" stop-color="#FDE0BB"/>
<stop offset="1" stop-color="#FC6B58"/>
</linearGradient>
<linearGradient id="paint3_linear_528_3983" x1="796.774" y1="387.309" x2="693.521" y2="378.678" gradientUnits="userSpaceOnUse">
<stop offset="1e-07" stop-color="#F6A285"/>
<stop offset="1" stop-color="#FC6B58"/>
</linearGradient>
<linearGradient id="paint4_linear_528_3983" x1="964.603" y1="453.235" x2="843.654" y2="453.235" gradientUnits="userSpaceOnUse">
<stop offset="1e-07" stop-color="#F6A285"/>
<stop offset="1" stop-color="#FC6B58"/>
</linearGradient>
<linearGradient id="paint5_linear_528_3983" x1="801.413" y1="259.617" x2="941.374" y2="258.735" gradientUnits="userSpaceOnUse">
<stop offset="1e-07" stop-color="#FDE0BB"/>
<stop offset="1" stop-color="#FC6B58"/>
</linearGradient>
<clipPath id="clip0_528_3983">
<rect width="1000" height="1021" fill="white"/>
</clipPath>
</defs>
</svg>
