<svg width="2372" height="2372" viewBox="0 0 2372 2372" fill="none" xmlns="http://www.w3.org/2000/svg">
<path d="M1186 2372C1841.01 2372 2372 1841.01 2372 1186C2372 530.99 1841.01 0 1186 0C530.99 0 0 530.99 0 1186C0 1841.01 530.99 2372 1186 2372Z" fill="white"/>
<path d="M1186 2264C1781.36 2264 2264 1781.36 2264 1186C2264 590.637 1781.36 108 1186 108C590.637 108 108 590.637 108 1186C108 1781.36 590.637 2264 1186 2264Z" fill="#30486E"/>
<path d="M662.475 1086.93C662.532 1115.57 672.091 1143.38 689.65 1165.99C707.21 1188.6 731.777 1204.74 759.494 1211.87V1637.19H694.905C690.451 1636.85 685.974 1637.43 681.756 1638.91C677.537 1640.38 673.668 1642.71 670.391 1645.74C667.114 1648.78 664.499 1652.46 662.711 1656.56C660.923 1660.66 660 1665.08 660 1669.55C660 1674.02 660.923 1678.44 662.711 1682.54C664.499 1686.63 667.114 1690.32 670.391 1693.35C673.668 1696.39 677.537 1698.72 681.756 1700.19C685.974 1701.66 690.451 1702.25 694.905 1701.91H1665.1C1669.55 1702.25 1674.03 1701.66 1678.24 1700.19C1682.46 1698.72 1686.33 1696.39 1689.61 1693.35C1692.89 1690.32 1695.5 1686.63 1697.29 1682.54C1699.08 1678.44 1700 1674.02 1700 1669.55C1700 1665.08 1699.08 1660.66 1697.29 1656.56C1695.5 1652.46 1692.89 1648.78 1689.61 1645.74C1686.33 1642.71 1682.46 1640.38 1678.24 1638.91C1674.03 1637.43 1669.55 1636.85 1665.1 1637.19H1600.51V1211.87C1628.22 1204.74 1652.79 1188.6 1670.35 1165.99C1687.91 1143.38 1697.47 1115.57 1697.52 1086.93V1054.48H662.475V1086.93ZM1309.39 1216.41C1326.39 1216.41 1343.21 1213.07 1358.91 1206.56C1374.61 1200.06 1388.88 1190.52 1400.89 1178.49C1412.9 1166.47 1422.43 1152.19 1428.93 1136.48C1435.43 1120.77 1438.77 1103.93 1438.76 1086.93C1438.82 1115.57 1448.38 1143.38 1465.95 1165.99C1483.51 1188.61 1508.09 1204.74 1535.81 1211.87V1637.19H1050.61V1216.41C1067.6 1216.41 1084.43 1213.07 1100.13 1206.56C1115.83 1200.06 1130.09 1190.52 1142.11 1178.49C1154.13 1166.47 1163.66 1152.2 1170.16 1136.48C1176.66 1120.77 1180 1103.94 1180 1086.93C1180.01 1121.27 1193.65 1154.19 1217.91 1178.47C1242.18 1202.75 1275.08 1216.4 1309.39 1216.41ZM1018.26 1211.87V1637.19H824.191V1211.87C851.914 1204.74 876.487 1188.61 894.052 1165.99C911.617 1143.38 921.179 1115.57 921.238 1086.93C921.294 1115.57 930.853 1143.38 948.413 1165.99C965.973 1188.6 990.539 1204.74 1018.26 1211.87ZM1568.16 763.258H791.843L662.475 1022.22H1697.52L1568.16 763.258ZM935.777 835.219L871.107 964.671C869.758 967.374 867.683 969.646 865.114 971.232C862.546 972.818 859.586 973.656 856.567 973.65C854.06 973.673 851.584 973.088 849.352 971.946C845.551 970.01 842.666 966.654 841.32 962.605C839.975 958.556 840.278 954.139 842.163 950.312L906.86 820.859C907.683 818.765 908.932 816.865 910.529 815.279C912.125 813.694 914.033 812.459 916.132 811.651C918.231 810.844 920.475 810.482 922.722 810.589C924.968 810.696 927.168 811.269 929.181 812.273C931.194 813.276 932.976 814.687 934.415 816.417C935.853 818.147 936.916 820.157 937.537 822.32C938.157 824.483 938.321 826.752 938.018 828.982C937.715 831.212 936.952 833.354 935.777 835.273V835.219ZM1065.17 835.219L1000.47 964.671C999.128 967.37 997.057 969.639 994.494 971.225C991.93 972.811 988.976 973.65 985.962 973.65C983.455 973.673 980.979 973.088 978.746 971.946C974.946 970.01 972.06 966.654 970.715 962.605C969.37 958.556 969.672 954.139 971.558 950.312L1036.23 820.859C1037.03 818.747 1038.27 816.826 1039.87 815.221C1041.46 813.616 1043.37 812.362 1045.47 811.538C1047.58 810.715 1049.83 810.341 1052.09 810.441C1054.35 810.54 1056.56 811.111 1058.58 812.116C1060.61 813.122 1062.4 814.539 1063.84 816.278C1065.29 818.017 1066.35 820.039 1066.97 822.215C1067.59 824.39 1067.75 826.671 1067.43 828.91C1067.12 831.149 1066.34 833.298 1065.14 835.219H1065.17ZM1196.19 957.478C1196.19 961.781 1194.48 965.908 1191.44 968.951C1188.4 971.994 1184.27 973.704 1179.97 973.704C1175.67 973.704 1171.55 971.994 1168.51 968.951C1165.47 965.908 1163.76 961.781 1163.76 957.478V827.998C1163.76 823.695 1165.47 819.568 1168.51 816.525C1171.55 813.482 1175.67 811.773 1179.97 811.773C1184.27 811.773 1188.4 813.482 1191.44 816.525C1194.48 819.568 1196.19 823.695 1196.19 827.998V957.478ZM1381.93 971.621C1378.17 973.68 1373.74 974.165 1369.63 972.969C1365.51 971.773 1362.03 968.994 1359.96 965.239L1289.18 835.787C1287.34 832.034 1287.01 827.713 1288.27 823.726C1289.53 819.739 1292.29 816.393 1295.95 814.387C1299.62 812.382 1303.92 811.87 1307.96 812.96C1311.99 814.05 1315.45 816.657 1317.61 820.237L1388.39 949.69C1390.42 953.462 1390.88 957.885 1389.66 961.994C1388.45 966.102 1385.66 969.564 1381.9 971.621H1381.93ZM1510.68 971.946C1508.46 973.096 1505.99 973.681 1503.49 973.65C1500.49 973.659 1497.54 972.821 1494.99 971.233C1492.45 969.645 1490.4 967.371 1489.08 964.671L1424.39 835.219C1423.23 833.3 1422.49 831.163 1422.21 828.943C1421.92 826.723 1422.1 824.468 1422.73 822.32C1423.35 820.172 1424.42 818.177 1425.85 816.46C1427.29 814.744 1429.06 813.343 1431.07 812.346C1433.07 811.349 1435.25 810.777 1437.49 810.666C1439.72 810.556 1441.96 810.909 1444.05 811.703C1446.14 812.498 1448.04 813.716 1449.64 815.283C1451.24 816.849 1452.49 818.729 1453.33 820.805L1518.03 950.258C1519.92 954.114 1520.2 958.562 1518.82 962.627C1517.43 966.693 1514.5 970.044 1510.65 971.946H1510.68ZM937.425 1447.89V1373.31C932.562 1370.55 928.506 1366.57 925.661 1361.75C922.816 1356.93 921.281 1351.46 921.21 1345.86C921.79 1337.67 925.45 1330.01 931.453 1324.41C937.456 1318.82 945.355 1315.71 953.559 1315.71C961.763 1315.71 969.663 1318.82 975.665 1324.41C981.668 1330.01 985.328 1337.67 985.908 1345.86C985.851 1351.46 984.322 1356.94 981.476 1361.76C978.629 1366.58 974.566 1370.56 969.693 1373.31V1447.92C974.564 1450.67 978.626 1454.64 981.473 1459.46C984.319 1464.27 985.849 1469.75 985.908 1475.34C986.027 1481.07 984.632 1486.72 981.863 1491.73C979.093 1496.74 975.049 1500.93 970.14 1503.87C965.231 1506.81 959.632 1508.39 953.912 1508.47C948.191 1508.54 942.553 1507.1 937.568 1504.29C932.584 1501.48 928.431 1497.41 925.531 1492.47C922.631 1487.54 921.087 1481.92 921.056 1476.2C921.025 1470.47 922.508 1464.84 925.354 1459.88C928.201 1454.91 932.309 1450.79 937.263 1447.92L937.425 1447.89ZM791.843 698.546C791.843 689.939 795.259 681.685 801.341 675.599C807.423 669.514 815.672 666.095 824.273 666.095H1535.81C1540.26 665.753 1544.74 666.337 1548.96 667.808C1553.18 669.28 1557.05 671.607 1560.32 674.645C1563.6 677.683 1566.21 681.366 1568 685.462C1569.79 689.559 1570.71 693.981 1570.71 698.451C1570.71 702.921 1569.79 707.343 1568 711.44C1566.21 715.536 1563.6 719.219 1560.32 722.257C1557.05 725.295 1553.18 727.622 1548.96 729.094C1544.74 730.565 1540.26 731.149 1535.81 730.807H824.191C815.637 730.786 807.438 727.384 801.379 721.341C795.32 715.299 791.893 707.105 791.843 698.546ZM1229.4 1389.67L1206.54 1366.79L1298.02 1275.31L1320.88 1298.19L1229.4 1389.67ZM1229.4 1481.21L1206.54 1458.33L1389.44 1275.31L1412.31 1298.19L1229.4 1481.21ZM1389.44 1366.79L1412.31 1389.7L1320.83 1481.24L1297.96 1458.33L1389.44 1366.79Z" fill="white"/>
<path d="M689.9 746.595C676.849 740.679 662.751 737.453 648.439 737.109L634.497 736.582L624.381 679.669C624.56 679.822 624.77 679.935 624.996 679.998C625.222 680.062 625.459 680.076 625.691 680.038C625.767 680.023 625.845 680.024 625.921 680.039C625.997 680.055 626.068 680.086 626.132 680.13C626.195 680.175 626.249 680.231 626.291 680.297C626.332 680.362 626.36 680.436 626.373 680.513C632.181 682.023 637.439 685.172 641.525 689.589C645.612 694.005 648.357 699.505 649.435 705.438L694.355 697.376C689.428 674.048 677.478 657.624 658.503 648.104C645.619 641.757 631.443 638.509 617.095 638.618L611.434 607L570.026 614.483L575.268 644.942C558.558 649.285 543.609 658.752 532.497 672.028C526.44 679.561 522.118 688.35 519.844 697.762C517.569 707.175 517.397 716.977 519.34 726.465C523.219 748.316 533.702 763.177 550.79 771.046C560.015 775.403 576.159 778.143 599.221 779.267L610.071 840.29C602.567 839.823 595.374 837.107 589.42 832.491C583.226 827.01 578.792 819.801 576.683 811.781L532.339 819.739C533.782 830.258 537.689 840.283 543.74 848.987C549.791 857.691 557.812 864.825 567.143 869.801C582.657 877.335 599.851 880.694 617.043 879.55L621.236 903L662.644 895.57L658.608 872.699C675.949 867.822 691.548 858.079 703.58 844.612C709.926 836.957 714.49 827.974 716.938 818.319C719.387 808.663 719.658 798.58 717.733 788.805C714.273 768.851 704.996 754.781 689.9 746.595ZM591.307 734.053C586.247 733.657 581.241 732.739 576.368 731.313C572.662 730.317 569.33 728.247 566.785 725.361C564.241 722.475 562.597 718.9 562.059 715.082C561.176 711.005 561.401 706.764 562.711 702.805C564.021 698.846 566.366 695.314 569.502 692.58C573.433 689.228 577.785 686.41 582.448 684.201L591.307 734.053ZM658.451 830.331C656.341 831.596 654.089 832.605 651.742 833.334L642.464 781.164C648.653 781.805 654.753 783.13 660.652 785.116C664.013 786.373 666.987 788.495 669.278 791.269C671.568 794.043 673.094 797.373 673.704 800.926C675.905 813.468 670.821 823.269 658.451 830.331Z" fill="#FAAF20"/>
<path d="M1876.87 1415.56C1863.94 1402.85 1848.6 1392.84 1831.76 1386.13L1815.41 1379.48L1828.17 1307.72C1828.31 1307.97 1828.5 1308.19 1828.73 1308.36C1828.96 1308.53 1829.22 1308.66 1829.5 1308.72C1830.03 1308.72 1830.23 1309.12 1830.16 1309.58C1836.45 1313.94 1841.36 1320.02 1844.3 1327.08C1847.23 1334.15 1848.07 1341.92 1846.71 1349.45L1903.72 1359.62C1908.15 1329.85 1901.08 1305.2 1882.52 1285.67C1870 1272.45 1854.54 1262.37 1837.4 1256.23L1844.51 1216.37L1792.02 1207L1785.37 1245.47C1763.61 1243.29 1741.71 1247.93 1722.71 1258.76C1712.23 1265.03 1703.26 1273.53 1696.44 1283.66C1689.62 1293.78 1685.11 1305.29 1683.24 1317.36C1678.32 1345 1684.3 1367.15 1701.18 1383.8C1710.04 1393.01 1728.03 1403.33 1755.14 1414.76L1741.45 1491.7C1732.74 1487.86 1725.38 1481.5 1720.32 1473.43C1715.36 1464.22 1713.24 1453.75 1714.21 1443.33L1657.99 1433.3C1655.1 1446.37 1655.36 1459.95 1658.76 1472.9C1662.16 1485.85 1668.59 1497.81 1677.53 1507.78C1692.68 1523.46 1711.67 1534.91 1732.61 1541L1727.36 1570.63L1779.86 1580L1785.04 1551.1C1807.77 1553.02 1830.57 1548.41 1850.76 1537.81C1861.65 1531.55 1871.01 1522.93 1878.14 1512.58C1885.27 1502.23 1889.99 1490.42 1891.96 1478.01C1896.21 1452.68 1891.18 1431.86 1876.87 1415.56ZM1765.44 1357.49C1759.6 1354.79 1754.05 1351.5 1748.89 1347.66C1744.87 1344.87 1741.77 1340.95 1739.98 1336.39C1738.19 1331.84 1737.8 1326.85 1738.86 1322.08C1739.58 1316.86 1741.69 1311.93 1744.98 1307.81C1748.26 1303.7 1752.6 1300.54 1757.53 1298.69C1763.68 1296.48 1770.09 1295.07 1776.6 1294.5L1765.44 1357.49ZM1803.25 1500.8C1800.18 1501.36 1797.06 1501.58 1793.95 1501.47L1805.71 1435.62C1812.8 1439.1 1819.49 1443.35 1825.64 1448.31C1829.13 1451.25 1831.77 1455.06 1833.29 1459.36C1834.81 1463.66 1835.15 1468.29 1834.28 1472.76C1831.18 1488.53 1820.72 1497.88 1802.92 1500.8H1803.25Z" fill="#FAAF20"/>
<path d="M2208 1186C2208 1748.23 1752.23 2204 1190 2204C627.774 2204 172 1748.23 172 1186C172 623.774 627.774 168 1190 168C1752.23 168 2208 623.774 2208 1186Z" stroke="#F7A73C" stroke-width="14"/>
</svg>
