<svg width="1000" height="1222" viewBox="0 0 1000 1222" fill="none" xmlns="http://www.w3.org/2000/svg">
<rect width="1000" height="1222" fill="white"/>
<path d="M909.999 274.259C946.45 274.259 975.999 237.489 975.999 192.13C975.999 146.771 946.45 110 909.999 110C873.549 110 844 146.771 844 192.13C844 237.489 873.549 274.259 909.999 274.259Z" fill="#1C4670"/>
<path d="M907.284 109.582H81.8633V273.839H907.284V109.582Z" fill="#1C4670"/>
<path d="M84.9993 273.841C121.45 273.841 150.999 237.07 150.999 191.711C150.999 146.352 121.45 109.582 84.9993 109.582C48.5489 109.582 19 146.352 19 191.711C19 237.07 48.5489 273.841 84.9993 273.841Z" fill="#1C4670"/>
<path d="M155.979 292.55C116.535 257.887 103.141 202.779 122.755 153.544C142.344 104.37 190.028 73.4457 242.529 75.2745L249.19 58.5532C219.097 56.2632 189.06 63.6336 163.46 79.5888C137.86 95.5441 118.038 119.249 106.886 147.245C95.7345 175.24 93.8369 206.061 101.47 235.209C109.104 264.357 125.869 290.307 149.318 309.272L155.979 292.55Z" fill="#1C4670"/>
<path d="M234.176 323.595C286.694 325.438 334.338 294.574 353.952 245.325C373.539 196.154 360.151 140.977 320.726 106.319L327.391 89.5974C350.843 108.562 367.609 134.512 375.243 163.661C382.878 192.81 380.98 223.632 369.828 251.629C358.675 279.625 338.851 303.33 313.25 319.285C287.648 335.24 257.609 342.608 227.516 340.316L234.176 323.595Z" fill="#1C4670"/>
<path d="M326.218 287.15C374.746 238.705 374.746 160.161 326.218 111.717C277.691 63.2721 199.012 63.2721 150.484 111.717C101.957 160.161 101.957 238.705 150.484 287.15C199.012 335.595 277.691 335.595 326.218 287.15Z" fill="white"/>
<path d="M313.351 274.305C354.772 232.954 354.772 165.912 313.351 124.562C271.93 83.2116 204.773 83.2116 163.351 124.562C121.93 165.912 121.93 232.954 163.351 274.305C204.773 315.655 271.93 315.655 313.351 274.305Z" fill="#FFA229"/>
<path d="M223.756 233.793C217.658 233.793 212.941 232.084 209.605 228.666C206.297 225.248 204.642 220.326 204.642 213.9V181.334C204.642 174.552 206.215 169.357 209.359 165.748C212.531 162.111 217.33 160.293 223.756 160.293C230.209 160.293 235.008 162.111 238.152 165.748C241.297 169.357 242.869 174.552 242.869 181.334V213.9C242.869 220.326 241.215 225.248 237.906 228.666C234.597 232.084 229.881 233.793 223.756 233.793ZM223.756 220.504C224.877 220.504 225.752 219.998 226.381 218.986C227.01 217.974 227.324 216.84 227.324 215.582V179.939C227.324 178.244 227.133 176.767 226.75 175.51C226.394 174.224 225.396 173.582 223.756 173.582C222.115 173.582 221.103 174.224 220.721 175.51C220.365 176.767 220.187 178.244 220.187 179.939V215.582C220.187 216.84 220.502 217.974 221.131 218.986C221.787 219.998 222.662 220.504 223.756 220.504ZM256.156 233.136V177.519C255.172 178.695 253.819 179.652 252.096 180.39C250.373 181.101 248.746 181.457 247.215 181.457V169.931C248.664 169.713 250.223 169.248 251.891 168.537C253.559 167.799 255.104 166.801 256.526 165.543C257.975 164.258 259.082 162.713 259.848 160.908H271.455V233.136H256.156Z" fill="white"/>
<path d="M84.9993 549.544C121.45 549.544 150.999 512.773 150.999 467.415C150.999 422.056 121.45 385.285 84.9993 385.285C48.5489 385.285 19 422.056 19 467.415C19 512.773 48.5489 549.544 84.9993 549.544Z" fill="#FFA229"/>
<path d="M918.132 385.136H92.7109V549.394H918.132V385.136Z" fill="#FFA229"/>
<path d="M239.554 453.278V458.136H220.682V453.278H239.554ZM222.415 422.59V458.136H216.287V422.59H222.415ZM237.088 437.433V442.219H220.682V437.433H237.088ZM239.432 422.59V427.472H220.682V422.59H239.432ZM258.792 450.983C258.792 450.397 258.646 449.868 258.353 449.396C258.06 448.908 257.498 448.469 256.668 448.078C255.854 447.687 254.65 447.329 253.055 447.004C251.655 446.694 250.369 446.328 249.197 445.905C248.042 445.466 247.049 444.937 246.219 444.318C245.389 443.7 244.746 442.967 244.29 442.121C243.834 441.274 243.606 440.298 243.606 439.191C243.606 438.117 243.842 437.1 244.314 436.139C244.786 435.179 245.462 434.333 246.341 433.6C247.22 432.868 248.286 432.29 249.539 431.867C250.809 431.444 252.225 431.232 253.787 431.232C256.001 431.232 257.897 431.607 259.476 432.355C261.071 433.088 262.291 434.089 263.138 435.358C263.984 436.611 264.407 438.027 264.407 439.606H258.523C258.523 438.906 258.344 438.255 257.986 437.653C257.645 437.035 257.124 436.538 256.424 436.164C255.724 435.773 254.845 435.578 253.787 435.578C252.778 435.578 251.94 435.741 251.272 436.066C250.621 436.375 250.133 436.782 249.808 437.287C249.498 437.791 249.344 438.345 249.344 438.947C249.344 439.386 249.425 439.785 249.588 440.143C249.767 440.485 250.06 440.802 250.467 441.095C250.874 441.372 251.427 441.633 252.127 441.877C252.843 442.121 253.738 442.357 254.812 442.585C256.831 443.008 258.564 443.553 260.013 444.22C261.478 444.872 262.601 445.718 263.382 446.76C264.163 447.785 264.554 449.087 264.554 450.666C264.554 451.838 264.301 452.912 263.797 453.888C263.309 454.849 262.592 455.687 261.648 456.403C260.704 457.103 259.573 457.648 258.255 458.039C256.953 458.429 255.488 458.625 253.86 458.625C251.468 458.625 249.441 458.202 247.781 457.355C246.121 456.493 244.86 455.394 243.997 454.059C243.151 452.708 242.728 451.309 242.728 449.86H248.416C248.481 450.951 248.782 451.821 249.319 452.472C249.873 453.107 250.556 453.571 251.37 453.864C252.2 454.141 253.055 454.279 253.934 454.279C254.992 454.279 255.879 454.141 256.595 453.864C257.311 453.571 257.856 453.18 258.23 452.692C258.605 452.188 258.792 451.618 258.792 450.983ZM284.524 450.983C284.524 450.397 284.378 449.868 284.085 449.396C283.792 448.908 283.23 448.469 282.4 448.078C281.587 447.687 280.382 447.329 278.787 447.004C277.387 446.694 276.102 446.328 274.93 445.905C273.774 445.466 272.781 444.937 271.951 444.318C271.121 443.7 270.478 442.967 270.022 442.121C269.567 441.274 269.339 440.298 269.339 439.191C269.339 438.117 269.575 437.1 270.047 436.139C270.519 435.179 271.194 434.333 272.073 433.6C272.952 432.868 274.018 432.29 275.271 431.867C276.541 431.444 277.957 431.232 279.52 431.232C281.733 431.232 283.629 431.607 285.208 432.355C286.803 433.088 288.024 434.089 288.87 435.358C289.716 436.611 290.14 438.027 290.14 439.606H284.256C284.256 438.906 284.077 438.255 283.719 437.653C283.377 437.035 282.856 436.538 282.156 436.164C281.456 435.773 280.577 435.578 279.52 435.578C278.51 435.578 277.672 435.741 277.005 436.066C276.354 436.375 275.866 436.782 275.54 437.287C275.231 437.791 275.076 438.345 275.076 438.947C275.076 439.386 275.158 439.785 275.32 440.143C275.499 440.485 275.792 440.802 276.199 441.095C276.606 441.372 277.16 441.633 277.859 441.877C278.576 442.121 279.471 442.357 280.545 442.585C282.563 443.008 284.297 443.553 285.745 444.22C287.21 444.872 288.333 445.718 289.114 446.76C289.896 447.785 290.286 449.087 290.286 450.666C290.286 451.838 290.034 452.912 289.529 453.888C289.041 454.849 288.325 455.687 287.381 456.403C286.437 457.103 285.306 457.648 283.987 458.039C282.685 458.429 281.22 458.625 279.593 458.625C277.2 458.625 275.174 458.202 273.514 457.355C271.854 456.493 270.592 455.394 269.729 454.059C268.883 452.708 268.46 451.309 268.46 449.86H274.148C274.214 450.951 274.515 451.821 275.052 452.472C275.605 453.107 276.289 453.571 277.103 453.864C277.933 454.141 278.787 454.279 279.666 454.279C280.724 454.279 281.611 454.141 282.327 453.864C283.043 453.571 283.589 453.18 283.963 452.692C284.337 452.188 284.524 451.618 284.524 450.983ZM307.083 458.625C305.13 458.625 303.364 458.307 301.785 457.673C300.223 457.022 298.888 456.118 297.781 454.963C296.691 453.807 295.853 452.448 295.267 450.885C294.681 449.323 294.388 447.638 294.388 445.832V444.855C294.388 442.788 294.689 440.916 295.291 439.24C295.893 437.564 296.731 436.131 297.806 434.943C298.88 433.739 300.149 432.819 301.614 432.184C303.079 431.55 304.666 431.232 306.375 431.232C308.263 431.232 309.915 431.55 311.331 432.184C312.747 432.819 313.919 433.714 314.847 434.87C315.791 436.009 316.491 437.368 316.946 438.947C317.418 440.526 317.654 442.267 317.654 444.172V446.686H297.244V442.463H311.844V441.999C311.811 440.941 311.6 439.948 311.209 439.02C310.835 438.093 310.257 437.344 309.476 436.774C308.694 436.205 307.653 435.92 306.351 435.92C305.374 435.92 304.503 436.131 303.738 436.554C302.99 436.961 302.363 437.555 301.858 438.337C301.354 439.118 300.963 440.062 300.687 441.169C300.426 442.259 300.296 443.488 300.296 444.855V445.832C300.296 446.987 300.451 448.062 300.76 449.054C301.085 450.031 301.557 450.885 302.176 451.618C302.794 452.35 303.543 452.928 304.422 453.351C305.301 453.758 306.302 453.962 307.425 453.962C308.841 453.962 310.102 453.677 311.209 453.107C312.316 452.538 313.276 451.732 314.09 450.69L317.19 453.693C316.621 454.523 315.88 455.321 314.969 456.086C314.057 456.834 312.942 457.445 311.624 457.917C310.322 458.389 308.808 458.625 307.083 458.625ZM328.079 437.36V458.136H322.195V431.72H327.737L328.079 437.36ZM327.029 443.952L325.125 443.927C325.141 442.056 325.402 440.339 325.906 438.776C326.427 437.214 327.143 435.871 328.055 434.748C328.982 433.625 330.089 432.762 331.375 432.16C332.661 431.541 334.093 431.232 335.672 431.232C336.941 431.232 338.089 431.411 339.114 431.769C340.156 432.111 341.043 432.673 341.775 433.454C342.524 434.235 343.094 435.252 343.484 436.506C343.875 437.743 344.07 439.264 344.07 441.071V458.136H338.162V441.047C338.162 439.777 337.975 438.776 337.601 438.044C337.243 437.295 336.714 436.766 336.014 436.457C335.33 436.131 334.476 435.969 333.45 435.969C332.441 435.969 331.538 436.18 330.74 436.603C329.943 437.026 329.267 437.604 328.714 438.337C328.177 439.069 327.762 439.915 327.469 440.876C327.176 441.836 327.029 442.861 327.029 443.952ZM362.186 431.72V436.017H347.293V431.72H362.186ZM351.59 425.251H357.474V450.837C357.474 451.65 357.588 452.277 357.815 452.717C358.06 453.14 358.393 453.425 358.816 453.571C359.24 453.718 359.736 453.791 360.306 453.791C360.713 453.791 361.103 453.766 361.478 453.718C361.852 453.669 362.153 453.62 362.381 453.571L362.405 458.063C361.917 458.21 361.347 458.34 360.696 458.454C360.062 458.568 359.329 458.625 358.499 458.625C357.148 458.625 355.952 458.389 354.91 457.917C353.868 457.428 353.055 456.639 352.469 455.549C351.883 454.458 351.59 453.01 351.59 451.203V425.251ZM373.025 431.72V458.136H367.117V431.72H373.025ZM366.727 424.787C366.727 423.892 367.02 423.151 367.605 422.565C368.208 421.963 369.038 421.662 370.096 421.662C371.137 421.662 371.959 421.963 372.562 422.565C373.164 423.151 373.465 423.892 373.465 424.787C373.465 425.666 373.164 426.398 372.562 426.984C371.959 427.57 371.137 427.863 370.096 427.863C369.038 427.863 368.208 427.57 367.605 426.984C367.02 426.398 366.727 425.666 366.727 424.787ZM394.363 452.839V440.241C394.363 439.297 394.192 438.483 393.851 437.8C393.509 437.116 392.988 436.587 392.288 436.213C391.604 435.838 390.742 435.651 389.7 435.651C388.74 435.651 387.91 435.814 387.21 436.139C386.51 436.465 385.965 436.904 385.574 437.458C385.184 438.011 384.988 438.638 384.988 439.338H379.129C379.129 438.296 379.381 437.287 379.886 436.31C380.39 435.334 381.123 434.463 382.083 433.698C383.043 432.933 384.191 432.331 385.525 431.891C386.86 431.452 388.357 431.232 390.018 431.232C392.003 431.232 393.761 431.566 395.291 432.233C396.837 432.9 398.05 433.91 398.929 435.26C399.824 436.595 400.271 438.272 400.271 440.29V452.033C400.271 453.237 400.353 454.32 400.516 455.28C400.695 456.224 400.947 457.046 401.272 457.746V458.136H395.242C394.965 457.502 394.746 456.696 394.583 455.719C394.437 454.727 394.363 453.766 394.363 452.839ZM395.218 442.072L395.267 445.71H391.043C389.952 445.71 388.992 445.816 388.162 446.027C387.332 446.222 386.64 446.515 386.087 446.906C385.534 447.297 385.118 447.769 384.842 448.322C384.565 448.875 384.427 449.502 384.427 450.202C384.427 450.902 384.59 451.545 384.915 452.131C385.241 452.7 385.713 453.148 386.331 453.473C386.966 453.799 387.731 453.962 388.626 453.962C389.83 453.962 390.88 453.718 391.775 453.229C392.687 452.725 393.403 452.114 393.924 451.398C394.445 450.666 394.721 449.974 394.754 449.323L396.658 451.935C396.463 452.603 396.129 453.319 395.657 454.084C395.185 454.849 394.567 455.581 393.802 456.281C393.053 456.965 392.15 457.526 391.092 457.966C390.05 458.405 388.846 458.625 387.479 458.625C385.753 458.625 384.215 458.283 382.864 457.599C381.513 456.899 380.455 455.964 379.69 454.792C378.925 453.604 378.543 452.261 378.543 450.763C378.543 449.364 378.803 448.127 379.324 447.052C379.861 445.962 380.643 445.051 381.668 444.318C382.71 443.586 383.979 443.032 385.477 442.658C386.974 442.267 388.683 442.072 390.604 442.072H395.218ZM412.723 420.636V458.136H406.814V420.636H412.723ZM439.578 458.136H433.694V429.181C433.694 427.212 434.061 425.56 434.793 424.225C435.542 422.874 436.608 421.857 437.991 421.174C439.375 420.474 441.01 420.124 442.898 420.124C443.484 420.124 444.062 420.164 444.632 420.246C445.201 420.311 445.755 420.417 446.292 420.563L446.146 425.104C445.82 425.023 445.462 424.966 445.071 424.933C444.697 424.901 444.29 424.885 443.851 424.885C442.955 424.885 442.182 425.055 441.531 425.397C440.896 425.723 440.408 426.203 440.066 426.838C439.741 427.472 439.578 428.254 439.578 429.181V458.136ZM445.022 431.72V436.017H429.642V431.72H445.022ZM448.172 445.221V444.66C448.172 442.756 448.449 440.99 449.002 439.362C449.555 437.718 450.353 436.294 451.395 435.09C452.452 433.869 453.738 432.925 455.252 432.258C456.782 431.574 458.507 431.232 460.428 431.232C462.365 431.232 464.09 431.574 465.604 432.258C467.133 432.925 468.427 433.869 469.485 435.09C470.543 436.294 471.349 437.718 471.902 439.362C472.456 440.99 472.732 442.756 472.732 444.66V445.221C472.732 447.126 472.456 448.892 471.902 450.519C471.349 452.147 470.543 453.571 469.485 454.792C468.427 455.996 467.142 456.94 465.628 457.624C464.114 458.291 462.397 458.625 460.477 458.625C458.54 458.625 456.806 458.291 455.276 457.624C453.763 456.94 452.477 455.996 451.419 454.792C450.361 453.571 449.555 452.147 449.002 450.519C448.449 448.892 448.172 447.126 448.172 445.221ZM454.056 444.66V445.221C454.056 446.41 454.178 447.533 454.422 448.591C454.666 449.649 455.049 450.576 455.569 451.374C456.09 452.171 456.757 452.798 457.571 453.254C458.385 453.709 459.354 453.937 460.477 453.937C461.567 453.937 462.511 453.709 463.309 453.254C464.122 452.798 464.79 452.171 465.311 451.374C465.831 450.576 466.214 449.649 466.458 448.591C466.718 447.533 466.849 446.41 466.849 445.221V444.66C466.849 443.488 466.718 442.381 466.458 441.34C466.214 440.282 465.823 439.346 465.286 438.532C464.765 437.718 464.098 437.083 463.284 436.628C462.487 436.156 461.535 435.92 460.428 435.92C459.321 435.92 458.361 436.156 457.547 436.628C456.749 437.083 456.09 437.718 455.569 438.532C455.049 439.346 454.666 440.282 454.422 441.34C454.178 442.381 454.056 443.488 454.056 444.66ZM483.572 436.75V458.136H477.688V431.72H483.304L483.572 436.75ZM491.653 431.55L491.604 437.018C491.246 436.953 490.856 436.904 490.433 436.872C490.026 436.839 489.619 436.823 489.212 436.823C488.203 436.823 487.316 436.969 486.551 437.262C485.786 437.539 485.143 437.946 484.622 438.483C484.118 439.004 483.727 439.639 483.45 440.387C483.174 441.136 483.011 441.974 482.962 442.902L481.619 443C481.619 441.34 481.782 439.802 482.107 438.385C482.433 436.969 482.921 435.724 483.572 434.65C484.24 433.576 485.07 432.738 486.062 432.135C487.072 431.533 488.235 431.232 489.554 431.232C489.912 431.232 490.294 431.265 490.701 431.33C491.124 431.395 491.442 431.468 491.653 431.55ZM521.829 422.59V458.136H515.75V422.59H521.829ZM532.986 422.59V427.472H504.69V422.59H532.986ZM548.001 458.136H540.408L540.457 453.278H548.001C550.198 453.278 552.037 452.798 553.519 451.838C555.016 450.877 556.139 449.502 556.888 447.712C557.653 445.921 558.035 443.789 558.035 441.315V439.386C558.035 437.466 557.815 435.765 557.376 434.284C556.953 432.803 556.318 431.558 555.472 430.549C554.642 429.539 553.616 428.774 552.396 428.254C551.191 427.733 549.799 427.472 548.221 427.472H540.262V422.59H548.221C550.581 422.59 552.737 422.988 554.69 423.786C556.644 424.567 558.328 425.698 559.744 427.179C561.176 428.661 562.275 430.435 563.04 432.502C563.805 434.569 564.188 436.88 564.188 439.435V441.315C564.188 443.871 563.805 446.182 563.04 448.249C562.275 450.316 561.176 452.09 559.744 453.571C558.312 455.036 556.603 456.167 554.617 456.965C552.648 457.746 550.442 458.136 548.001 458.136ZM543.802 422.59V458.136H537.674V422.59H543.802ZM589.041 448.981C589.041 448.249 588.927 447.598 588.699 447.028C588.488 446.458 588.105 445.938 587.552 445.466C586.998 444.994 586.217 444.538 585.208 444.098C584.215 443.643 582.946 443.179 581.399 442.707C579.707 442.186 578.144 441.608 576.712 440.973C575.296 440.322 574.059 439.574 573.001 438.727C571.943 437.865 571.121 436.88 570.535 435.773C569.949 434.65 569.656 433.356 569.656 431.891C569.656 430.443 569.957 429.124 570.56 427.936C571.178 426.748 572.049 425.723 573.172 424.86C574.311 423.981 575.654 423.306 577.2 422.834C578.746 422.345 580.455 422.101 582.327 422.101C584.964 422.101 587.234 422.59 589.139 423.566C591.059 424.543 592.532 425.853 593.558 427.497C594.599 429.141 595.12 430.955 595.12 432.941H589.041C589.041 431.769 588.789 430.736 588.284 429.841C587.796 428.929 587.047 428.213 586.038 427.692C585.045 427.171 583.784 426.911 582.254 426.911C580.805 426.911 579.601 427.131 578.641 427.57C577.68 428.01 576.964 428.604 576.492 429.352C576.02 430.101 575.784 430.947 575.784 431.891C575.784 432.559 575.939 433.169 576.248 433.722C576.557 434.26 577.029 434.764 577.664 435.236C578.299 435.692 579.096 436.123 580.057 436.53C581.017 436.937 582.148 437.328 583.45 437.702C585.42 438.288 587.137 438.939 588.602 439.655C590.066 440.355 591.287 441.152 592.264 442.048C593.24 442.943 593.973 443.96 594.461 445.099C594.949 446.222 595.193 447.5 595.193 448.932C595.193 450.43 594.892 451.781 594.29 452.985C593.688 454.173 592.825 455.191 591.702 456.037C590.595 456.867 589.261 457.51 587.698 457.966C586.152 458.405 584.427 458.625 582.522 458.625C580.813 458.625 579.129 458.397 577.469 457.941C575.825 457.485 574.327 456.794 572.977 455.866C571.626 454.922 570.551 453.75 569.754 452.35C568.956 450.934 568.558 449.282 568.558 447.394H574.686C574.686 448.55 574.881 449.535 575.271 450.348C575.678 451.162 576.24 451.83 576.956 452.35C577.672 452.855 578.502 453.229 579.446 453.473C580.407 453.718 581.432 453.84 582.522 453.84C583.955 453.84 585.151 453.636 586.111 453.229C587.088 452.822 587.82 452.253 588.309 451.52C588.797 450.788 589.041 449.941 589.041 448.981ZM319.266 474.59H331.839C334.541 474.59 336.844 474.997 338.748 475.81C340.652 476.624 342.109 477.829 343.118 479.424C344.144 481.002 344.656 482.955 344.656 485.283C344.656 487.057 344.331 488.62 343.68 489.97C343.029 491.321 342.109 492.461 340.921 493.388C339.733 494.3 338.317 495.008 336.673 495.512L334.817 496.416H323.514L323.465 491.557H331.937C333.401 491.557 334.622 491.297 335.599 490.776C336.575 490.255 337.308 489.547 337.796 488.652C338.3 487.741 338.553 486.715 338.553 485.576C338.553 484.339 338.309 483.265 337.82 482.353C337.348 481.426 336.616 480.718 335.623 480.229C334.63 479.725 333.369 479.472 331.839 479.472H325.394V510.136H319.266V474.59ZM339.554 510.136L331.204 494.17L337.625 494.145L346.097 509.819V510.136H339.554ZM361.819 510.625C359.866 510.625 358.1 510.307 356.521 509.673C354.959 509.022 353.624 508.118 352.518 506.963C351.427 505.807 350.589 504.448 350.003 502.885C349.417 501.323 349.124 499.638 349.124 497.832V496.855C349.124 494.788 349.425 492.916 350.027 491.24C350.63 489.564 351.468 488.131 352.542 486.943C353.616 485.739 354.886 484.819 356.351 484.184C357.815 483.55 359.402 483.232 361.111 483.232C362.999 483.232 364.651 483.55 366.067 484.184C367.483 484.819 368.655 485.714 369.583 486.87C370.527 488.009 371.227 489.368 371.683 490.947C372.155 492.526 372.391 494.267 372.391 496.172V498.686H351.98V494.463H366.58V493.999C366.548 492.941 366.336 491.948 365.945 491.02C365.571 490.093 364.993 489.344 364.212 488.774C363.431 488.205 362.389 487.92 361.087 487.92C360.11 487.92 359.24 488.131 358.475 488.554C357.726 488.961 357.099 489.555 356.595 490.337C356.09 491.118 355.7 492.062 355.423 493.169C355.162 494.259 355.032 495.488 355.032 496.855V497.832C355.032 498.987 355.187 500.062 355.496 501.054C355.822 502.031 356.294 502.885 356.912 503.618C357.531 504.35 358.279 504.928 359.158 505.351C360.037 505.758 361.038 505.962 362.161 505.962C363.577 505.962 364.839 505.677 365.945 505.107C367.052 504.538 368.012 503.732 368.826 502.69L371.927 505.693C371.357 506.523 370.617 507.321 369.705 508.086C368.794 508.834 367.679 509.445 366.36 509.917C365.058 510.389 363.545 510.625 361.819 510.625ZM382.864 489.092V510.136H376.98V483.72H382.522L382.864 489.092ZM381.912 495.952L379.91 495.927C379.91 494.105 380.138 492.42 380.594 490.874C381.049 489.328 381.717 487.985 382.596 486.845C383.475 485.69 384.565 484.803 385.867 484.184C387.186 483.55 388.707 483.232 390.433 483.232C391.637 483.232 392.736 483.411 393.729 483.769C394.738 484.111 395.608 484.656 396.341 485.405C397.09 486.154 397.659 487.114 398.05 488.286C398.457 489.458 398.66 490.874 398.66 492.534V510.136H392.776V493.047C392.776 491.761 392.581 490.752 392.19 490.019C391.816 489.287 391.271 488.766 390.555 488.457C389.855 488.131 389.017 487.969 388.04 487.969C386.933 487.969 385.989 488.18 385.208 488.603C384.443 489.026 383.816 489.604 383.328 490.337C382.84 491.069 382.482 491.915 382.254 492.876C382.026 493.836 381.912 494.861 381.912 495.952ZM398.294 494.389L395.535 495C395.535 493.405 395.755 491.899 396.194 490.483C396.65 489.051 397.309 487.798 398.172 486.723C399.051 485.633 400.133 484.778 401.419 484.16C402.705 483.541 404.178 483.232 405.838 483.232C407.189 483.232 408.393 483.419 409.451 483.794C410.525 484.152 411.437 484.721 412.186 485.503C412.934 486.284 413.504 487.301 413.895 488.554C414.285 489.791 414.48 491.289 414.48 493.047V510.136H408.572V493.022C408.572 491.688 408.377 490.654 407.986 489.922C407.612 489.189 407.075 488.685 406.375 488.408C405.675 488.115 404.837 487.969 403.86 487.969C402.949 487.969 402.143 488.139 401.443 488.481C400.76 488.807 400.182 489.271 399.71 489.873C399.238 490.459 398.88 491.134 398.636 491.899C398.408 492.664 398.294 493.494 398.294 494.389ZM426.834 483.72V510.136H420.926V483.72H426.834ZM420.535 476.787C420.535 475.892 420.828 475.151 421.414 474.565C422.016 473.963 422.846 473.662 423.904 473.662C424.946 473.662 425.768 473.963 426.37 474.565C426.972 475.151 427.273 475.892 427.273 476.787C427.273 477.666 426.972 478.398 426.37 478.984C425.768 479.57 424.946 479.863 423.904 479.863C422.846 479.863 422.016 479.57 421.414 478.984C420.828 478.398 420.535 477.666 420.535 476.787ZM445.389 483.72V488.017H430.496V483.72H445.389ZM434.793 477.251H440.677V502.837C440.677 503.65 440.791 504.277 441.019 504.717C441.263 505.14 441.596 505.425 442.02 505.571C442.443 505.718 442.939 505.791 443.509 505.791C443.916 505.791 444.306 505.766 444.681 505.718C445.055 505.669 445.356 505.62 445.584 505.571L445.608 510.063C445.12 510.21 444.55 510.34 443.899 510.454C443.265 510.568 442.532 510.625 441.702 510.625C440.351 510.625 439.155 510.389 438.113 509.917C437.072 509.428 436.258 508.639 435.672 507.549C435.086 506.458 434.793 505.01 434.793 503.203V477.251ZM462.039 483.72V488.017H447.146V483.72H462.039ZM451.443 477.251H457.327V502.837C457.327 503.65 457.441 504.277 457.669 504.717C457.913 505.14 458.247 505.425 458.67 505.571C459.093 505.718 459.59 505.791 460.159 505.791C460.566 505.791 460.957 505.766 461.331 505.718C461.705 505.669 462.007 505.62 462.234 505.571L462.259 510.063C461.771 510.21 461.201 510.34 460.55 510.454C459.915 510.568 459.183 510.625 458.353 510.625C457.002 510.625 455.805 510.389 454.764 509.917C453.722 509.428 452.908 508.639 452.322 507.549C451.736 506.458 451.443 505.01 451.443 503.203V477.251ZM481.473 504.839V492.241C481.473 491.297 481.302 490.483 480.96 489.8C480.618 489.116 480.097 488.587 479.397 488.213C478.714 487.838 477.851 487.651 476.81 487.651C475.849 487.651 475.019 487.814 474.319 488.139C473.619 488.465 473.074 488.904 472.684 489.458C472.293 490.011 472.098 490.638 472.098 491.338H466.238C466.238 490.296 466.491 489.287 466.995 488.31C467.5 487.334 468.232 486.463 469.192 485.698C470.153 484.933 471.3 484.331 472.635 483.891C473.969 483.452 475.467 483.232 477.127 483.232C479.113 483.232 480.87 483.566 482.4 484.233C483.947 484.9 485.159 485.91 486.038 487.26C486.933 488.595 487.381 490.272 487.381 492.29V504.033C487.381 505.237 487.462 506.32 487.625 507.28C487.804 508.224 488.056 509.046 488.382 509.746V510.136H482.352C482.075 509.502 481.855 508.696 481.692 507.719C481.546 506.727 481.473 505.766 481.473 504.839ZM482.327 494.072L482.376 497.71H478.152C477.062 497.71 476.102 497.816 475.271 498.027C474.441 498.222 473.75 498.515 473.196 498.906C472.643 499.297 472.228 499.769 471.951 500.322C471.674 500.875 471.536 501.502 471.536 502.202C471.536 502.902 471.699 503.545 472.024 504.131C472.35 504.7 472.822 505.148 473.44 505.473C474.075 505.799 474.84 505.962 475.735 505.962C476.94 505.962 477.99 505.718 478.885 505.229C479.796 504.725 480.512 504.114 481.033 503.398C481.554 502.666 481.831 501.974 481.863 501.323L483.768 503.935C483.572 504.603 483.239 505.319 482.767 506.084C482.295 506.849 481.676 507.581 480.911 508.281C480.162 508.965 479.259 509.526 478.201 509.966C477.16 510.405 475.955 510.625 474.588 510.625C472.863 510.625 471.325 510.283 469.974 509.599C468.623 508.899 467.565 507.964 466.8 506.792C466.035 505.604 465.652 504.261 465.652 502.763C465.652 501.364 465.913 500.127 466.434 499.052C466.971 497.962 467.752 497.051 468.777 496.318C469.819 495.586 471.089 495.032 472.586 494.658C474.083 494.267 475.792 494.072 477.713 494.072H482.327ZM499.368 489.36V510.136H493.484V483.72H499.026L499.368 489.36ZM498.318 495.952L496.414 495.927C496.43 494.056 496.691 492.339 497.195 490.776C497.716 489.214 498.432 487.871 499.344 486.748C500.271 485.625 501.378 484.762 502.664 484.16C503.95 483.541 505.382 483.232 506.961 483.232C508.23 483.232 509.378 483.411 510.403 483.769C511.445 484.111 512.332 484.673 513.064 485.454C513.813 486.235 514.383 487.252 514.773 488.506C515.164 489.743 515.359 491.264 515.359 493.071V510.136H509.451V493.047C509.451 491.777 509.264 490.776 508.89 490.044C508.532 489.295 508.003 488.766 507.303 488.457C506.619 488.131 505.765 487.969 504.739 487.969C503.73 487.969 502.827 488.18 502.029 488.603C501.232 489.026 500.556 489.604 500.003 490.337C499.466 491.069 499.051 491.915 498.758 492.876C498.465 493.836 498.318 494.861 498.318 495.952ZM532.156 505.937C533.117 505.937 533.979 505.75 534.744 505.376C535.525 504.985 536.152 504.448 536.624 503.764C537.112 503.081 537.381 502.291 537.43 501.396H542.972C542.939 503.105 542.435 504.66 541.458 506.059C540.481 507.459 539.188 508.574 537.576 509.404C535.965 510.218 534.183 510.625 532.229 510.625C530.211 510.625 528.453 510.283 526.956 509.599C525.459 508.899 524.214 507.939 523.221 506.719C522.228 505.498 521.479 504.09 520.975 502.495C520.486 500.9 520.242 499.191 520.242 497.368V496.513C520.242 494.691 520.486 492.982 520.975 491.386C521.479 489.775 522.228 488.359 523.221 487.138C524.214 485.918 525.459 484.966 526.956 484.282C528.453 483.582 530.203 483.232 532.205 483.232C534.321 483.232 536.176 483.655 537.771 484.502C539.367 485.332 540.62 486.496 541.531 487.993C542.459 489.474 542.939 491.199 542.972 493.169H537.43C537.381 492.192 537.137 491.313 536.697 490.532C536.274 489.734 535.672 489.1 534.891 488.628C534.126 488.156 533.206 487.92 532.132 487.92C530.944 487.92 529.959 488.164 529.178 488.652C528.396 489.124 527.786 489.775 527.347 490.605C526.907 491.419 526.59 492.339 526.395 493.364C526.215 494.373 526.126 495.423 526.126 496.513V497.368C526.126 498.458 526.215 499.516 526.395 500.542C526.574 501.567 526.883 502.487 527.322 503.301C527.778 504.098 528.396 504.741 529.178 505.229C529.959 505.701 530.952 505.937 532.156 505.937ZM559.134 510.625C557.181 510.625 555.415 510.307 553.836 509.673C552.273 509.022 550.939 508.118 549.832 506.963C548.742 505.807 547.903 504.448 547.317 502.885C546.731 501.323 546.438 499.638 546.438 497.832V496.855C546.438 494.788 546.74 492.916 547.342 491.24C547.944 489.564 548.782 488.131 549.856 486.943C550.931 485.739 552.2 484.819 553.665 484.184C555.13 483.55 556.717 483.232 558.426 483.232C560.314 483.232 561.966 483.55 563.382 484.184C564.798 484.819 565.97 485.714 566.897 486.87C567.841 488.009 568.541 489.368 568.997 490.947C569.469 492.526 569.705 494.267 569.705 496.172V498.686H549.295V494.463H563.895V493.999C563.862 492.941 563.65 491.948 563.26 491.02C562.885 490.093 562.308 489.344 561.526 488.774C560.745 488.205 559.703 487.92 558.401 487.92C557.425 487.92 556.554 488.131 555.789 488.554C555.04 488.961 554.414 489.555 553.909 490.337C553.405 491.118 553.014 492.062 552.737 493.169C552.477 494.259 552.347 495.488 552.347 496.855V497.832C552.347 498.987 552.501 500.062 552.811 501.054C553.136 502.031 553.608 502.885 554.227 503.618C554.845 504.35 555.594 504.928 556.473 505.351C557.352 505.758 558.353 505.962 559.476 505.962C560.892 505.962 562.153 505.677 563.26 505.107C564.367 504.538 565.327 503.732 566.141 502.69L569.241 505.693C568.672 506.523 567.931 507.321 567.02 508.086C566.108 508.834 564.993 509.445 563.675 509.917C562.373 510.389 560.859 510.625 559.134 510.625ZM589.114 502.983C589.114 502.397 588.968 501.868 588.675 501.396C588.382 500.908 587.82 500.469 586.99 500.078C586.176 499.687 584.972 499.329 583.377 499.004C581.977 498.694 580.691 498.328 579.52 497.905C578.364 497.466 577.371 496.937 576.541 496.318C575.711 495.7 575.068 494.967 574.612 494.121C574.157 493.274 573.929 492.298 573.929 491.191C573.929 490.117 574.165 489.1 574.637 488.139C575.109 487.179 575.784 486.333 576.663 485.6C577.542 484.868 578.608 484.29 579.861 483.867C581.131 483.444 582.547 483.232 584.109 483.232C586.323 483.232 588.219 483.607 589.798 484.355C591.393 485.088 592.614 486.089 593.46 487.358C594.306 488.611 594.729 490.027 594.729 491.606H588.846C588.846 490.906 588.667 490.255 588.309 489.653C587.967 489.035 587.446 488.538 586.746 488.164C586.046 487.773 585.167 487.578 584.109 487.578C583.1 487.578 582.262 487.741 581.595 488.066C580.944 488.375 580.455 488.782 580.13 489.287C579.821 489.791 579.666 490.345 579.666 490.947C579.666 491.386 579.747 491.785 579.91 492.143C580.089 492.485 580.382 492.802 580.789 493.095C581.196 493.372 581.749 493.633 582.449 493.877C583.165 494.121 584.061 494.357 585.135 494.585C587.153 495.008 588.886 495.553 590.335 496.22C591.8 496.872 592.923 497.718 593.704 498.76C594.485 499.785 594.876 501.087 594.876 502.666C594.876 503.838 594.624 504.912 594.119 505.888C593.631 506.849 592.915 507.687 591.971 508.403C591.027 509.103 589.896 509.648 588.577 510.039C587.275 510.429 585.81 510.625 584.183 510.625C581.79 510.625 579.764 510.202 578.104 509.355C576.443 508.493 575.182 507.394 574.319 506.059C573.473 504.708 573.05 503.309 573.05 501.86H578.738C578.803 502.951 579.104 503.821 579.642 504.472C580.195 505.107 580.879 505.571 581.692 505.864C582.522 506.141 583.377 506.279 584.256 506.279C585.314 506.279 586.201 506.141 586.917 505.864C587.633 505.571 588.178 505.18 588.553 504.692C588.927 504.188 589.114 503.618 589.114 502.983Z" fill="white"/>
<path d="M914.999 549.544C951.45 549.544 980.999 512.773 980.999 467.415C980.999 422.056 951.45 385.285 914.999 385.285C878.549 385.285 849 422.056 849 467.415C849 512.773 878.549 549.544 914.999 549.544Z" fill="#FFA229"/>
<path d="M844.019 568.254C883.463 533.591 896.857 478.485 877.243 429.247C857.654 380.071 809.97 349.149 757.469 350.98L750.809 334.257C780.901 331.966 810.939 339.336 836.539 355.291C862.139 371.246 881.962 394.951 893.114 422.947C904.266 450.942 906.164 481.763 898.53 510.912C890.897 540.06 874.132 566.01 850.682 584.975L844.019 568.254Z" fill="#FFA229"/>
<path d="M765.823 599.298C713.306 601.141 665.662 570.266 646.047 521.031C626.461 471.857 639.848 416.683 679.274 382.024L672.609 365.301C649.157 384.265 632.39 410.215 624.756 439.364C617.122 468.514 619.019 499.335 630.172 527.332C641.325 555.328 661.148 579.034 686.75 594.988C712.351 610.943 742.391 618.312 772.484 616.019L765.823 599.298Z" fill="#FFA229"/>
<path d="M836.294 400.618C877.52 441.774 877.52 508.499 836.294 549.655C795.068 590.81 728.228 590.81 687.002 549.655C645.776 508.499 645.776 441.774 687.002 400.618C728.228 359.463 795.068 359.463 836.294 400.618Z" fill="white" stroke="black"/>
<path d="M910.999 826.247C947.45 826.247 976.999 789.477 976.999 744.118C976.999 698.759 947.45 661.988 910.999 661.988C874.549 661.988 845 698.759 845 744.118C845 789.477 874.549 826.247 910.999 826.247Z" fill="#1C4670"/>
<path d="M85.0006 948.166C48.5502 948.166 19.0014 984.937 19.0014 1030.3C19.0014 1075.65 48.5503 1112.43 85.0007 1112.43C121.451 1112.43 151 1075.65 151 1030.3C151 984.937 121.451 948.166 85.0006 948.166Z" fill="#FFA229"/>
<path d="M907.284 662.136H81.8633V826.394H907.284V662.136Z" fill="#1C4670"/>
<path d="M92.7161 1112.14L918.137 1112.14L918.137 947.879L92.7161 947.879L92.7161 1112.14Z" fill="#FFA229"/>
<path d="M231.046 1010.46H237.516V1035.64C237.516 1038.5 236.895 1040.9 235.653 1042.83C234.411 1044.76 232.72 1046.22 230.581 1047.2C228.458 1048.17 226.086 1048.65 223.464 1048.65C220.755 1048.65 218.34 1048.17 216.218 1047.2C214.096 1046.22 212.422 1044.76 211.197 1042.83C209.99 1040.9 209.386 1038.5 209.386 1035.64V1010.46H215.855V1035.64C215.855 1037.45 216.166 1038.94 216.787 1040.11C217.408 1041.27 218.288 1042.12 219.427 1042.68C220.565 1043.23 221.911 1043.5 223.464 1043.5C225.017 1043.5 226.354 1043.23 227.475 1042.68C228.614 1042.12 229.494 1041.27 230.115 1040.11C230.736 1038.94 231.046 1037.45 231.046 1035.64V1010.46ZM250.145 1026.11V1048.14H243.908V1020.14H249.783L250.145 1026.11ZM249.032 1033.1L247.014 1033.07C247.031 1031.09 247.307 1029.27 247.842 1027.61C248.394 1025.96 249.153 1024.53 250.119 1023.34C251.103 1022.15 252.276 1021.24 253.639 1020.6C255.002 1019.95 256.52 1019.62 258.193 1019.62C259.539 1019.62 260.755 1019.81 261.842 1020.19C262.946 1020.55 263.887 1021.14 264.663 1021.97C265.457 1022.8 266.061 1023.88 266.475 1025.21C266.889 1026.52 267.096 1028.13 267.096 1030.05V1048.14H260.833V1030.02C260.833 1028.68 260.635 1027.61 260.238 1026.84C259.858 1026.04 259.298 1025.48 258.556 1025.16C257.831 1024.81 256.925 1024.64 255.838 1024.64C254.769 1024.64 253.811 1024.86 252.966 1025.31C252.12 1025.76 251.404 1026.37 250.818 1027.15C250.249 1027.93 249.809 1028.82 249.498 1029.84C249.188 1030.86 249.032 1031.94 249.032 1033.1ZM280.139 1020.14V1048.14H273.876V1020.14H280.139ZM273.462 1012.79C273.462 1011.84 273.772 1011.05 274.394 1010.43C275.032 1009.79 275.912 1009.47 277.033 1009.47C278.137 1009.47 279.009 1009.79 279.647 1010.43C280.285 1011.05 280.604 1011.84 280.604 1012.79C280.604 1013.72 280.285 1014.49 279.647 1015.11C279.009 1015.74 278.137 1016.05 277.033 1016.05C275.912 1016.05 275.032 1015.74 274.394 1015.11C273.772 1014.49 273.462 1013.72 273.462 1012.79ZM304.025 1058.9V1025.7L304.75 1020.14H310.313V1058.9H304.025ZM285.832 1034.42V1033.88C285.832 1031.76 286.074 1029.82 286.557 1028.08C287.04 1026.32 287.756 1024.81 288.705 1023.55C289.653 1022.29 290.809 1021.33 292.172 1020.65C293.535 1019.96 295.105 1019.62 296.882 1019.62C298.608 1019.62 300.109 1019.95 301.385 1020.6C302.679 1021.26 303.766 1022.2 304.646 1023.42C305.543 1024.63 306.259 1026.07 306.794 1027.74C307.329 1029.42 307.717 1031.28 307.958 1033.33V1035.07C307.734 1037.07 307.355 1038.9 306.82 1040.55C306.285 1042.21 305.569 1043.64 304.672 1044.85C303.775 1046.06 302.679 1047 301.385 1047.67C300.091 1048.33 298.573 1048.65 296.831 1048.65C295.088 1048.65 293.535 1048.3 292.172 1047.59C290.809 1046.89 289.653 1045.89 288.705 1044.62C287.773 1043.32 287.057 1041.81 286.557 1040.09C286.074 1038.35 285.832 1036.46 285.832 1034.42ZM292.069 1033.88V1034.42C292.069 1035.7 292.181 1036.9 292.405 1038.02C292.647 1039.12 293.026 1040.11 293.544 1040.97C294.062 1041.81 294.717 1042.48 295.511 1042.96C296.304 1043.44 297.262 1043.69 298.383 1043.69C299.85 1043.69 301.049 1043.37 301.98 1042.73C302.929 1042.09 303.654 1041.24 304.154 1040.17C304.672 1039.08 305.034 1037.88 305.241 1036.57V1031.88C305.12 1030.87 304.905 1029.92 304.594 1029.04C304.284 1028.14 303.852 1027.36 303.3 1026.71C302.765 1026.04 302.093 1025.52 301.282 1025.16C300.488 1024.78 299.539 1024.59 298.435 1024.59C297.314 1024.59 296.347 1024.83 295.537 1025.31C294.726 1025.79 294.062 1026.47 293.544 1027.33C293.044 1028.18 292.673 1029.16 292.431 1030.28C292.19 1031.4 292.069 1032.6 292.069 1033.88ZM333.837 1041.54V1020.14H340.1V1048.14H334.2L333.837 1041.54ZM334.717 1035.71L336.813 1035.66C336.813 1037.54 336.606 1039.28 336.192 1040.86C335.778 1042.43 335.14 1043.81 334.277 1044.98C333.415 1046.14 332.311 1047.04 330.965 1047.7C329.619 1048.33 328.006 1048.65 326.125 1048.65C324.763 1048.65 323.512 1048.46 322.373 1048.06C321.234 1047.66 320.251 1047.05 319.423 1046.22C318.612 1045.39 317.982 1044.32 317.534 1042.99C317.085 1041.66 316.861 1040.07 316.861 1038.22V1020.14H323.098V1038.28C323.098 1039.29 323.218 1040.15 323.46 1040.84C323.701 1041.51 324.029 1042.05 324.443 1042.47C324.857 1042.88 325.34 1043.18 325.893 1043.35C326.445 1043.52 327.031 1043.61 327.652 1043.61C329.429 1043.61 330.827 1043.26 331.845 1042.57C332.88 1041.87 333.613 1040.92 334.044 1039.73C334.493 1038.54 334.717 1037.2 334.717 1035.71ZM358.836 1048.65C356.766 1048.65 354.894 1048.32 353.221 1047.64C351.564 1046.95 350.15 1046 348.977 1044.77C347.821 1043.55 346.932 1042.11 346.311 1040.45C345.69 1038.79 345.379 1037.01 345.379 1035.09V1034.06C345.379 1031.87 345.699 1029.88 346.337 1028.11C346.975 1026.33 347.864 1024.81 349.002 1023.55C350.141 1022.27 351.487 1021.3 353.04 1020.63C354.592 1019.95 356.274 1019.62 358.086 1019.62C360.087 1019.62 361.838 1019.95 363.339 1020.63C364.84 1021.3 366.083 1022.25 367.066 1023.47C368.067 1024.68 368.808 1026.12 369.292 1027.8C369.792 1029.47 370.042 1031.32 370.042 1033.33V1036H348.407V1031.52H363.883V1031.03C363.848 1029.91 363.624 1028.86 363.21 1027.87C362.813 1026.89 362.201 1026.1 361.373 1025.49C360.544 1024.89 359.44 1024.59 358.06 1024.59C357.025 1024.59 356.102 1024.81 355.291 1025.26C354.497 1025.69 353.833 1026.32 353.298 1027.15C352.764 1027.98 352.349 1028.98 352.056 1030.15C351.78 1031.31 351.642 1032.61 351.642 1034.06V1035.09C351.642 1036.32 351.806 1037.46 352.134 1038.51C352.479 1039.54 352.979 1040.45 353.635 1041.23C354.29 1042 355.084 1042.62 356.016 1043.06C356.947 1043.5 358.008 1043.71 359.199 1043.71C360.7 1043.71 362.037 1043.41 363.21 1042.81C364.383 1042.2 365.401 1041.35 366.264 1040.24L369.55 1043.43C368.946 1044.31 368.161 1045.15 367.195 1045.96C366.229 1046.76 365.047 1047.4 363.65 1047.9C362.27 1048.4 360.665 1048.65 358.836 1048.65ZM395.662 1010.46V1048.14H389.167V1010.46H395.662ZM420.195 1042.34V1008.39H426.458V1048.14H420.791L420.195 1042.34ZM401.977 1034.45V1033.9C401.977 1031.78 402.227 1029.85 402.727 1028.11C403.227 1026.35 403.952 1024.84 404.901 1023.58C405.85 1022.3 407.006 1021.33 408.369 1020.65C409.732 1019.96 411.267 1019.62 412.975 1019.62C414.666 1019.62 416.15 1019.95 417.426 1020.6C418.703 1021.26 419.79 1022.2 420.687 1023.42C421.584 1024.63 422.3 1026.08 422.835 1027.77C423.37 1029.44 423.749 1031.31 423.974 1033.36V1035.09C423.749 1037.09 423.37 1038.92 422.835 1040.58C422.3 1042.24 421.584 1043.67 420.687 1044.88C419.79 1046.08 418.694 1047.02 417.4 1047.67C416.124 1048.33 414.631 1048.65 412.923 1048.65C411.233 1048.65 409.706 1048.3 408.343 1047.59C406.997 1046.89 405.85 1045.89 404.901 1044.62C403.952 1043.34 403.227 1041.84 402.727 1040.11C402.227 1038.37 401.977 1036.48 401.977 1034.45ZM408.213 1033.9V1034.45C408.213 1035.72 408.326 1036.91 408.55 1038.02C408.791 1039.12 409.162 1040.1 409.663 1040.94C410.163 1041.77 410.81 1042.43 411.604 1042.91C412.414 1043.37 413.381 1043.61 414.502 1043.61C415.917 1043.61 417.081 1043.3 417.996 1042.68C418.91 1042.05 419.626 1041.22 420.144 1040.17C420.678 1039.1 421.041 1037.91 421.23 1036.59V1031.91C421.127 1030.89 420.911 1029.94 420.583 1029.06C420.273 1028.18 419.85 1027.42 419.315 1026.76C418.781 1026.09 418.116 1025.57 417.323 1025.21C416.546 1024.83 415.623 1024.64 414.554 1024.64C413.415 1024.64 412.449 1024.88 411.655 1025.36C410.862 1025.85 410.206 1026.51 409.688 1027.36C409.188 1028.2 408.817 1029.18 408.576 1030.31C408.334 1031.43 408.213 1032.63 408.213 1033.9ZM445.324 1048.65C443.253 1048.65 441.382 1048.32 439.708 1047.64C438.052 1046.95 436.637 1046 435.464 1044.77C434.308 1043.55 433.419 1042.11 432.798 1040.45C432.177 1038.79 431.867 1037.01 431.867 1035.09V1034.06C431.867 1031.87 432.186 1029.88 432.824 1028.11C433.463 1026.33 434.351 1024.81 435.49 1023.55C436.628 1022.27 437.974 1021.3 439.527 1020.63C441.08 1019.95 442.762 1019.62 444.573 1019.62C446.575 1019.62 448.326 1019.95 449.827 1020.63C451.328 1021.3 452.57 1022.25 453.553 1023.47C454.554 1024.68 455.296 1026.12 455.779 1027.8C456.279 1029.47 456.529 1031.32 456.529 1033.33V1036H434.895V1031.52H450.37V1031.03C450.336 1029.91 450.111 1028.86 449.697 1027.87C449.3 1026.89 448.688 1026.1 447.86 1025.49C447.032 1024.89 445.928 1024.59 444.547 1024.59C443.512 1024.59 442.589 1024.81 441.778 1025.26C440.985 1025.69 440.32 1026.32 439.786 1027.15C439.251 1027.98 438.837 1028.98 438.543 1030.15C438.267 1031.31 438.129 1032.61 438.129 1034.06V1035.09C438.129 1036.32 438.293 1037.46 438.621 1038.51C438.966 1039.54 439.466 1040.45 440.122 1041.23C440.778 1042 441.571 1042.62 442.503 1043.06C443.435 1043.5 444.496 1043.71 445.686 1043.71C447.187 1043.71 448.524 1043.41 449.697 1042.81C450.87 1042.2 451.888 1041.35 452.751 1040.24L456.038 1043.43C455.434 1044.31 454.649 1045.15 453.683 1045.96C452.716 1046.76 451.535 1047.4 450.137 1047.9C448.757 1048.4 447.153 1048.65 445.324 1048.65ZM467.58 1026.11V1048.14H461.343V1020.14H467.217L467.58 1026.11ZM466.467 1033.1L464.448 1033.07C464.465 1031.09 464.742 1029.27 465.276 1027.61C465.828 1025.96 466.588 1024.53 467.554 1023.34C468.537 1022.15 469.71 1021.24 471.073 1020.6C472.436 1019.95 473.954 1019.62 475.628 1019.62C476.974 1019.62 478.19 1019.81 479.277 1020.19C480.381 1020.55 481.321 1021.14 482.098 1021.97C482.891 1022.8 483.495 1023.88 483.909 1025.21C484.323 1026.52 484.53 1028.13 484.53 1030.05V1048.14H478.268V1030.02C478.268 1028.68 478.069 1027.61 477.672 1026.84C477.293 1026.04 476.732 1025.48 475.99 1025.16C475.266 1024.81 474.36 1024.64 473.273 1024.64C472.203 1024.64 471.246 1024.86 470.4 1025.31C469.555 1025.76 468.839 1026.37 468.252 1027.15C467.683 1027.93 467.243 1028.82 466.933 1029.84C466.622 1030.86 466.467 1031.94 466.467 1033.1ZM503.732 1020.14V1024.69H487.946V1020.14H503.732ZM492.501 1013.28H498.738V1040.4C498.738 1041.26 498.859 1041.93 499.1 1042.39C499.359 1042.84 499.713 1043.14 500.161 1043.3C500.61 1043.45 501.136 1043.53 501.74 1043.53C502.171 1043.53 502.585 1043.5 502.982 1043.45C503.379 1043.4 503.698 1043.35 503.939 1043.3L503.965 1048.06C503.448 1048.21 502.844 1048.35 502.154 1048.47C501.481 1048.59 500.705 1048.65 499.825 1048.65C498.393 1048.65 497.125 1048.4 496.021 1047.9C494.916 1047.39 494.054 1046.55 493.433 1045.39C492.812 1044.24 492.501 1042.7 492.501 1040.79V1013.28ZM515.223 1020.14V1048.14H508.96V1020.14H515.223ZM508.546 1012.79C508.546 1011.84 508.856 1011.05 509.478 1010.43C510.116 1009.79 510.996 1009.47 512.117 1009.47C513.221 1009.47 514.093 1009.79 514.731 1010.43C515.369 1011.05 515.688 1011.84 515.688 1012.79C515.688 1013.72 515.369 1014.49 514.731 1015.11C514.093 1015.74 513.221 1016.05 512.117 1016.05C510.996 1016.05 510.116 1015.74 509.478 1015.11C508.856 1014.49 508.546 1013.72 508.546 1012.79ZM530.077 1048.14H523.814V1018.32C523.814 1016.06 524.263 1014.16 525.16 1012.6C526.075 1011.05 527.377 1009.87 529.068 1009.06C530.776 1008.25 532.803 1007.84 535.149 1007.84C536.53 1007.84 537.858 1007.99 539.135 1008.28C540.429 1008.58 541.766 1008.95 543.146 1009.4L542.188 1014.47C541.309 1014.17 540.334 1013.9 539.264 1013.64C538.194 1013.36 536.961 1013.23 535.563 1013.23C533.683 1013.23 532.294 1013.66 531.397 1014.52C530.517 1015.37 530.077 1016.63 530.077 1018.32V1048.14ZM535.693 1020.14V1024.69H519.519V1020.14H535.693ZM546.096 1020.14V1048.14H539.859V1020.14H546.096ZM565.402 1048.65C563.332 1048.65 561.46 1048.32 559.786 1047.64C558.13 1046.95 556.715 1046 555.542 1044.77C554.386 1043.55 553.498 1042.11 552.876 1040.45C552.255 1038.79 551.945 1037.01 551.945 1035.09V1034.06C551.945 1031.87 552.264 1029.88 552.902 1028.11C553.541 1026.33 554.429 1024.81 555.568 1023.55C556.707 1022.27 558.052 1021.3 559.605 1020.63C561.158 1019.95 562.84 1019.62 564.651 1019.62C566.653 1019.62 568.404 1019.95 569.905 1020.63C571.406 1021.3 572.648 1022.25 573.631 1023.47C574.632 1024.68 575.374 1026.12 575.857 1027.8C576.357 1029.47 576.607 1031.32 576.607 1033.33V1036H554.973V1031.52H570.448V1031.03C570.414 1029.91 570.189 1028.86 569.775 1027.87C569.379 1026.89 568.766 1026.1 567.938 1025.49C567.11 1024.89 566.006 1024.59 564.625 1024.59C563.59 1024.59 562.667 1024.81 561.856 1025.26C561.063 1025.69 560.399 1026.32 559.864 1027.15C559.329 1027.98 558.915 1028.98 558.622 1030.15C558.346 1031.31 558.208 1032.61 558.208 1034.06V1035.09C558.208 1036.32 558.371 1037.46 558.699 1038.51C559.044 1039.54 559.545 1040.45 560.2 1041.23C560.856 1042 561.649 1042.62 562.581 1043.06C563.513 1043.5 564.574 1043.71 565.764 1043.71C567.265 1043.71 568.602 1043.41 569.775 1042.81C570.949 1042.2 571.966 1041.35 572.829 1040.24L576.116 1043.43C575.512 1044.31 574.727 1045.15 573.761 1045.96C572.795 1046.76 571.613 1047.4 570.215 1047.9C568.835 1048.4 567.231 1048.65 565.402 1048.65ZM587.735 1025.47V1048.14H581.499V1020.14H587.451L587.735 1025.47ZM596.301 1019.95L596.25 1025.75C595.87 1025.68 595.456 1025.63 595.007 1025.6C594.576 1025.56 594.145 1025.54 593.713 1025.54C592.644 1025.54 591.703 1025.7 590.893 1026.01C590.082 1026.3 589.4 1026.73 588.848 1027.3C588.313 1027.86 587.899 1028.53 587.606 1029.32C587.313 1030.12 587.14 1031 587.088 1031.99L585.665 1032.09C585.665 1030.33 585.838 1028.7 586.183 1027.2C586.528 1025.7 587.045 1024.38 587.735 1023.24C588.443 1022.1 589.323 1021.21 590.375 1020.58C591.445 1019.94 592.678 1019.62 594.076 1019.62C594.455 1019.62 594.861 1019.65 595.292 1019.72C595.741 1019.79 596.077 1019.87 596.301 1019.95Z" fill="white"/>
<path d="M428.141 722.084H418.333V716.934H428.141C429.849 716.934 431.229 716.658 432.282 716.106C433.334 715.554 434.102 714.795 434.585 713.829C435.085 712.845 435.335 711.724 435.335 710.465C435.335 709.274 435.085 708.161 434.585 707.126C434.102 706.074 433.334 705.228 432.282 704.59C431.229 703.952 429.849 703.633 428.141 703.633H420.326V736.136H413.83V698.457H428.141C431.057 698.457 433.533 698.974 435.568 700.01C437.621 701.027 439.183 702.442 440.252 704.254C441.322 706.048 441.857 708.101 441.857 710.413C441.857 712.845 441.322 714.933 440.252 716.676C439.183 718.418 437.621 719.755 435.568 720.687C433.533 721.618 431.057 722.084 428.141 722.084ZM453.321 713.467V736.136H447.084V708.135H453.037L453.321 713.467ZM461.887 707.954L461.835 713.751C461.456 713.682 461.042 713.63 460.593 713.596C460.162 713.561 459.731 713.544 459.299 713.544C458.23 713.544 457.289 713.699 456.479 714.01C455.668 714.303 454.986 714.735 454.434 715.304C453.899 715.856 453.485 716.529 453.192 717.323C452.899 718.116 452.726 719.005 452.674 719.988L451.251 720.092C451.251 718.332 451.424 716.701 451.769 715.2C452.114 713.699 452.631 712.38 453.321 711.241C454.029 710.102 454.909 709.214 455.961 708.575C457.031 707.937 458.264 707.618 459.662 707.618C460.041 707.618 460.447 707.652 460.878 707.721C461.326 707.79 461.663 707.868 461.887 707.954ZM463.932 722.447V721.851C463.932 719.833 464.225 717.961 464.812 716.236C465.398 714.493 466.243 712.983 467.348 711.707C468.469 710.413 469.832 709.412 471.437 708.705C473.058 707.98 474.887 707.618 476.923 707.618C478.976 707.618 480.805 707.98 482.409 708.705C484.031 709.412 485.403 710.413 486.524 711.707C487.645 712.983 488.499 714.493 489.086 716.236C489.673 717.961 489.966 719.833 489.966 721.851V722.447C489.966 724.465 489.673 726.337 489.086 728.062C488.499 729.788 487.645 731.297 486.524 732.591C485.403 733.868 484.04 734.868 482.435 735.593C480.831 736.3 479.01 736.654 476.975 736.654C474.922 736.654 473.084 736.3 471.462 735.593C469.858 734.868 468.495 733.868 467.374 732.591C466.252 731.297 465.398 729.788 464.812 728.062C464.225 726.337 463.932 724.465 463.932 722.447ZM470.168 721.851V722.447C470.168 723.706 470.298 724.896 470.557 726.018C470.815 727.139 471.221 728.123 471.773 728.968C472.325 729.813 473.032 730.478 473.895 730.961C474.758 731.444 475.784 731.685 476.975 731.685C478.131 731.685 479.131 731.444 479.977 730.961C480.839 730.478 481.547 729.813 482.099 728.968C482.651 728.123 483.056 727.139 483.315 726.018C483.591 724.896 483.729 723.706 483.729 722.447V721.851C483.729 720.609 483.591 719.436 483.315 718.332C483.056 717.21 482.642 716.218 482.073 715.356C481.521 714.493 480.813 713.82 479.951 713.337C479.105 712.837 478.096 712.587 476.923 712.587C475.75 712.587 474.732 712.837 473.869 713.337C473.024 713.82 472.325 714.493 471.773 715.356C471.221 716.218 470.815 717.21 470.557 718.332C470.298 719.436 470.168 720.609 470.168 721.851ZM501.456 713.518V746.902H495.219V708.135H500.964L501.456 713.518ZM519.701 721.877V722.421C519.701 724.456 519.459 726.346 518.976 728.088C518.51 729.813 517.812 731.323 516.88 732.617C515.965 733.894 514.835 734.886 513.49 735.593C512.144 736.3 510.591 736.654 508.832 736.654C507.089 736.654 505.562 736.335 504.251 735.697C502.957 735.041 501.861 734.118 500.964 732.927C500.067 731.737 499.343 730.34 498.791 728.735C498.256 727.113 497.876 725.336 497.652 723.404V721.308C497.876 719.255 498.256 717.392 498.791 715.718C499.343 714.045 500.067 712.604 500.964 711.396C501.861 710.189 502.957 709.257 504.251 708.601C505.545 707.946 507.055 707.618 508.78 707.618C510.54 707.618 512.101 707.963 513.464 708.653C514.827 709.326 515.974 710.292 516.906 711.552C517.837 712.794 518.536 714.295 519.002 716.054C519.468 717.797 519.701 719.738 519.701 721.877ZM513.464 722.421V721.877C513.464 720.583 513.343 719.384 513.102 718.28C512.86 717.159 512.48 716.175 511.963 715.33C511.445 714.484 510.781 713.829 509.97 713.363C509.177 712.88 508.219 712.638 507.098 712.638C505.993 712.638 505.045 712.828 504.251 713.208C503.457 713.57 502.793 714.079 502.258 714.735C501.723 715.39 501.309 716.158 501.016 717.038C500.723 717.9 500.516 718.841 500.395 719.859V724.879C500.602 726.121 500.956 727.26 501.456 728.295C501.956 729.33 502.664 730.158 503.578 730.78C504.51 731.383 505.7 731.685 507.149 731.685C508.271 731.685 509.228 731.444 510.022 730.961C510.816 730.478 511.463 729.813 511.963 728.968C512.48 728.105 512.86 727.113 513.102 725.992C513.343 724.871 513.464 723.68 513.464 722.421ZM531.269 713.467V736.136H525.032V708.135H530.984L531.269 713.467ZM539.834 707.954L539.783 713.751C539.403 713.682 538.989 713.63 538.541 713.596C538.109 713.561 537.678 713.544 537.247 713.544C536.177 713.544 535.237 713.699 534.426 714.01C533.615 714.303 532.933 714.735 532.381 715.304C531.847 715.856 531.432 716.529 531.139 717.323C530.846 718.116 530.673 719.005 530.622 719.988L529.198 720.092C529.198 718.332 529.371 716.701 529.716 715.2C530.061 713.699 530.578 712.38 531.269 711.241C531.976 710.102 532.856 709.214 533.908 708.575C534.978 707.937 536.211 707.618 537.609 707.618C537.988 707.618 538.394 707.652 538.825 707.721C539.274 707.79 539.61 707.868 539.834 707.954ZM550.419 708.135V736.136H544.156V708.135H550.419ZM543.742 700.786C543.742 699.837 544.053 699.052 544.674 698.431C545.312 697.793 546.192 697.473 547.313 697.473C548.418 697.473 549.289 697.793 549.927 698.431C550.566 699.052 550.885 699.837 550.885 700.786C550.885 701.718 550.566 702.494 549.927 703.115C549.289 703.736 548.418 704.047 547.313 704.047C546.192 704.047 545.312 703.736 544.674 703.115C544.053 702.494 543.742 701.718 543.742 700.786ZM569.595 736.654C567.525 736.654 565.653 736.318 563.979 735.645C562.323 734.955 560.909 733.997 559.735 732.772C558.579 731.547 557.691 730.107 557.07 728.45C556.449 726.794 556.138 725.009 556.138 723.094V722.058C556.138 719.867 556.457 717.883 557.096 716.106C557.734 714.329 558.623 712.811 559.761 711.552C560.9 710.275 562.246 709.3 563.798 708.627C565.351 707.954 567.033 707.618 568.845 707.618C570.846 707.618 572.597 707.954 574.098 708.627C575.599 709.3 576.841 710.249 577.825 711.474C578.825 712.682 579.567 714.122 580.05 715.796C580.551 717.469 580.801 719.315 580.801 721.334V723.999H559.166V719.522H574.642V719.031C574.607 717.909 574.383 716.857 573.969 715.873C573.572 714.89 572.959 714.096 572.131 713.492C571.303 712.889 570.199 712.587 568.819 712.587C567.784 712.587 566.861 712.811 566.05 713.26C565.256 713.691 564.592 714.321 564.057 715.149C563.522 715.977 563.108 716.977 562.815 718.151C562.539 719.307 562.401 720.609 562.401 722.058V723.094C562.401 724.318 562.565 725.457 562.893 726.51C563.238 727.545 563.738 728.45 564.394 729.227C565.049 730.003 565.843 730.616 566.774 731.064C567.706 731.496 568.767 731.711 569.958 731.711C571.458 731.711 572.796 731.409 573.969 730.805C575.142 730.202 576.16 729.348 577.022 728.243L580.309 731.427C579.705 732.306 578.92 733.152 577.954 733.963C576.988 734.756 575.806 735.403 574.409 735.904C573.028 736.404 571.424 736.654 569.595 736.654ZM598.502 708.135V712.69H582.716V708.135H598.502ZM587.271 701.278H593.507V728.399C593.507 729.261 593.628 729.926 593.87 730.391C594.128 730.84 594.482 731.142 594.931 731.297C595.379 731.452 595.905 731.53 596.509 731.53C596.941 731.53 597.355 731.504 597.751 731.452C598.148 731.401 598.467 731.349 598.709 731.297L598.735 736.059C598.217 736.214 597.613 736.352 596.923 736.473C596.25 736.594 595.474 736.654 594.594 736.654C593.162 736.654 591.894 736.404 590.79 735.904C589.686 735.386 588.823 734.549 588.202 733.393C587.581 732.237 587.271 730.702 587.271 728.787V701.278ZM601.504 722.447V721.851C601.504 719.833 601.797 717.961 602.384 716.236C602.97 714.493 603.816 712.983 604.92 711.707C606.041 710.413 607.404 709.412 609.009 708.705C610.631 707.98 612.459 707.618 614.495 707.618C616.548 707.618 618.377 707.98 619.981 708.705C621.603 709.412 622.975 710.413 624.096 711.707C625.218 712.983 626.072 714.493 626.658 716.236C627.245 717.961 627.538 719.833 627.538 721.851V722.447C627.538 724.465 627.245 726.337 626.658 728.062C626.072 729.788 625.218 731.297 624.096 732.591C622.975 733.868 621.612 734.868 620.007 735.593C618.403 736.3 616.583 736.654 614.547 736.654C612.494 736.654 610.656 736.3 609.035 735.593C607.43 734.868 606.067 733.868 604.946 732.591C603.824 731.297 602.97 729.788 602.384 728.062C601.797 726.337 601.504 724.465 601.504 722.447ZM607.741 721.851V722.447C607.741 723.706 607.87 724.896 608.129 726.018C608.388 727.139 608.793 728.123 609.345 728.968C609.897 729.813 610.605 730.478 611.467 730.961C612.33 731.444 613.356 731.685 614.547 731.685C615.703 731.685 616.703 731.444 617.549 730.961C618.411 730.478 619.119 729.813 619.671 728.968C620.223 728.123 620.628 727.139 620.887 726.018C621.163 724.896 621.301 723.706 621.301 722.447V721.851C621.301 720.609 621.163 719.436 620.887 718.332C620.628 717.21 620.214 716.218 619.645 715.356C619.093 714.493 618.386 713.82 617.523 713.337C616.678 712.837 615.668 712.587 614.495 712.587C613.322 712.587 612.304 712.837 611.441 713.337C610.596 713.82 609.897 714.493 609.345 715.356C608.793 716.218 608.388 717.21 608.129 718.332C607.87 719.436 607.741 720.609 607.741 721.851ZM639.028 713.467V736.136H632.792V708.135H638.744L639.028 713.467ZM647.594 707.954L647.542 713.751C647.163 713.682 646.749 713.63 646.3 713.596C645.869 713.561 645.438 713.544 645.006 713.544C643.937 713.544 642.996 713.699 642.186 714.01C641.375 714.303 640.693 714.735 640.141 715.304C639.606 715.856 639.192 716.529 638.899 717.323C638.606 718.116 638.433 719.005 638.381 719.988L636.958 720.092C636.958 718.332 637.131 716.701 637.476 715.2C637.821 713.699 638.338 712.38 639.028 711.241C639.736 710.102 640.616 709.214 641.668 708.575C642.738 707.937 643.971 707.618 645.369 707.618C645.748 707.618 646.154 707.652 646.585 707.721C647.034 707.79 647.37 707.868 647.594 707.954ZM413.83 751.457H427.158C430.022 751.457 432.463 751.888 434.481 752.751C436.5 753.613 438.044 754.89 439.114 756.581C440.201 758.254 440.744 760.325 440.744 762.792C440.744 764.672 440.399 766.329 439.709 767.76C439.019 769.192 438.044 770.4 436.785 771.384C435.525 772.35 434.024 773.1 432.282 773.635L430.315 774.593H418.333L418.281 769.443H427.261C428.814 769.443 430.108 769.167 431.143 768.615C432.178 768.062 432.955 767.312 433.472 766.363C434.007 765.397 434.274 764.31 434.274 763.102C434.274 761.791 434.016 760.652 433.498 759.686C432.998 758.703 432.221 757.952 431.169 757.435C430.117 756.9 428.779 756.633 427.158 756.633H420.326V789.136H413.83V751.457ZM435.335 789.136L426.485 772.212L433.291 772.186L442.271 788.8V789.136H435.335ZM458.937 789.654C456.867 789.654 454.995 789.318 453.321 788.645C451.665 787.955 450.25 786.997 449.077 785.772C447.921 784.547 447.033 783.107 446.412 781.45C445.791 779.794 445.48 778.009 445.48 776.094V775.058C445.48 772.867 445.799 770.883 446.438 769.106C447.076 767.329 447.964 765.811 449.103 764.552C450.242 763.275 451.587 762.3 453.14 761.627C454.693 760.954 456.375 760.618 458.187 760.618C460.188 760.618 461.939 760.954 463.44 761.627C464.941 762.3 466.183 763.249 467.167 764.474C468.167 765.682 468.909 767.122 469.392 768.796C469.892 770.469 470.143 772.315 470.143 774.334V776.999H448.508V772.522H463.983V772.031C463.949 770.909 463.725 769.857 463.311 768.873C462.914 767.89 462.301 767.096 461.473 766.492C460.645 765.889 459.541 765.587 458.161 765.587C457.125 765.587 456.202 765.811 455.392 766.26C454.598 766.691 453.934 767.321 453.399 768.149C452.864 768.977 452.45 769.977 452.157 771.151C451.881 772.307 451.743 773.609 451.743 775.058V776.094C451.743 777.318 451.907 778.457 452.234 779.51C452.579 780.545 453.08 781.45 453.735 782.227C454.391 783.003 455.185 783.616 456.116 784.064C457.048 784.496 458.109 784.711 459.299 784.711C460.8 784.711 462.137 784.409 463.311 783.805C464.484 783.202 465.502 782.348 466.364 781.243L469.651 784.427C469.047 785.306 468.262 786.152 467.296 786.963C466.33 787.756 465.148 788.403 463.75 788.904C462.37 789.404 460.766 789.654 458.937 789.654ZM492.062 799.902V766.699L492.787 761.135H498.351V799.902H492.062ZM473.869 775.421V774.877C473.869 772.755 474.111 770.823 474.594 769.08C475.077 767.321 475.793 765.811 476.742 764.552C477.691 763.292 478.847 762.326 480.209 761.653C481.572 760.963 483.142 760.618 484.919 760.618C486.645 760.618 488.146 760.946 489.422 761.601C490.716 762.257 491.803 763.197 492.683 764.422C493.58 765.63 494.296 767.07 494.831 768.744C495.366 770.417 495.754 772.281 495.996 774.334V776.068C495.771 778.069 495.392 779.898 494.857 781.554C494.322 783.21 493.606 784.642 492.709 785.85C491.812 787.058 490.716 787.998 489.422 788.671C488.128 789.326 486.61 789.654 484.868 789.654C483.125 789.654 481.572 789.3 480.209 788.593C478.847 787.886 477.691 786.894 476.742 785.617C475.81 784.323 475.094 782.813 474.594 781.088C474.111 779.346 473.869 777.456 473.869 775.421ZM480.106 774.877V775.421C480.106 776.697 480.218 777.896 480.442 779.018C480.684 780.122 481.063 781.105 481.581 781.968C482.099 782.813 482.754 783.478 483.548 783.961C484.341 784.444 485.299 784.685 486.42 784.685C487.887 784.685 489.086 784.366 490.018 783.728C490.966 783.089 491.691 782.235 492.191 781.166C492.709 780.079 493.071 778.88 493.278 777.569V772.885C493.158 771.867 492.942 770.918 492.631 770.038C492.321 769.141 491.889 768.364 491.337 767.709C490.803 767.036 490.13 766.518 489.319 766.156C488.525 765.776 487.576 765.587 486.472 765.587C485.351 765.587 484.385 765.828 483.574 766.311C482.763 766.794 482.099 767.467 481.581 768.33C481.081 769.175 480.71 770.159 480.468 771.28C480.227 772.401 480.106 773.601 480.106 774.877ZM521.875 782.537V761.135H528.137V789.136H522.237L521.875 782.537ZM522.754 776.715L524.851 776.663C524.851 778.543 524.644 780.277 524.229 781.865C523.815 783.434 523.177 784.806 522.314 785.979C521.452 787.135 520.348 788.041 519.002 788.697C517.656 789.335 516.043 789.654 514.163 789.654C512.8 789.654 511.549 789.456 510.41 789.059C509.271 788.662 508.288 788.05 507.46 787.221C506.649 786.393 506.019 785.315 505.571 783.987C505.122 782.658 504.898 781.071 504.898 779.225V761.135H511.135V779.277C511.135 780.295 511.256 781.149 511.497 781.839C511.739 782.511 512.066 783.055 512.48 783.469C512.895 783.883 513.378 784.176 513.93 784.349C514.482 784.521 515.068 784.608 515.689 784.608C517.466 784.608 518.864 784.263 519.882 783.573C520.917 782.865 521.65 781.916 522.082 780.726C522.53 779.535 522.754 778.198 522.754 776.715ZM541.206 761.135V789.136H534.943V761.135H541.206ZM534.529 753.786C534.529 752.837 534.84 752.052 535.461 751.431C536.099 750.793 536.979 750.473 538.101 750.473C539.205 750.473 540.076 750.793 540.714 751.431C541.353 752.052 541.672 752.837 541.672 753.786C541.672 754.718 541.353 755.494 540.714 756.115C540.076 756.736 539.205 757.047 538.101 757.047C536.979 757.047 536.099 756.736 535.461 756.115C534.84 755.494 534.529 754.718 534.529 753.786ZM554.301 766.467V789.136H548.064V761.135H554.016L554.301 766.467ZM562.867 760.954L562.815 766.751C562.435 766.682 562.021 766.63 561.573 766.596C561.141 766.561 560.71 766.544 560.279 766.544C559.209 766.544 558.269 766.699 557.458 767.01C556.647 767.303 555.966 767.735 555.414 768.304C554.879 768.856 554.465 769.529 554.171 770.323C553.878 771.116 553.706 772.005 553.654 772.988L552.23 773.092C552.23 771.332 552.403 769.701 552.748 768.2C553.093 766.699 553.611 765.38 554.301 764.241C555.008 763.102 555.888 762.214 556.94 761.575C558.01 760.937 559.244 760.618 560.641 760.618C561.021 760.618 561.426 760.652 561.857 760.721C562.306 760.79 562.642 760.868 562.867 760.954ZM578.601 789.654C576.531 789.654 574.659 789.318 572.985 788.645C571.329 787.955 569.914 786.997 568.741 785.772C567.585 784.547 566.697 783.107 566.076 781.45C565.455 779.794 565.144 778.009 565.144 776.094V775.058C565.144 772.867 565.463 770.883 566.102 769.106C566.74 767.329 567.628 765.811 568.767 764.552C569.906 763.275 571.251 762.3 572.804 761.627C574.357 760.954 576.039 760.618 577.851 760.618C579.852 760.618 581.603 760.954 583.104 761.627C584.605 762.3 585.847 763.249 586.831 764.474C587.831 765.682 588.573 767.122 589.056 768.796C589.556 770.469 589.807 772.315 589.807 774.334V776.999H568.172V772.522H583.647V772.031C583.613 770.909 583.389 769.857 582.975 768.873C582.578 767.89 581.965 767.096 581.137 766.492C580.309 765.889 579.205 765.587 577.825 765.587C576.79 765.587 575.867 765.811 575.056 766.26C574.262 766.691 573.598 767.321 573.063 768.149C572.528 768.977 572.114 769.977 571.821 771.151C571.545 772.307 571.407 773.609 571.407 775.058V776.094C571.407 777.318 571.571 778.457 571.898 779.51C572.243 780.545 572.744 781.45 573.399 782.227C574.055 783.003 574.849 783.616 575.78 784.064C576.712 784.496 577.773 784.711 578.963 784.711C580.464 784.711 581.801 784.409 582.975 783.805C584.148 783.202 585.166 782.348 586.028 781.243L589.315 784.427C588.711 785.306 587.926 786.152 586.96 786.963C585.994 787.756 584.812 788.403 583.415 788.904C582.034 789.404 580.43 789.654 578.601 789.654ZM600.909 766.829V789.136H594.672V761.135H600.546L600.909 766.829ZM599.899 774.101L597.777 774.075C597.777 772.143 598.019 770.357 598.502 768.718C598.985 767.079 599.692 765.656 600.624 764.448C601.556 763.223 602.712 762.283 604.092 761.627C605.489 760.954 607.102 760.618 608.931 760.618C610.208 760.618 611.372 760.808 612.425 761.187C613.494 761.55 614.417 762.128 615.194 762.921C615.987 763.715 616.591 764.733 617.005 765.975C617.437 767.217 617.652 768.718 617.652 770.478V789.136H611.416V771.021C611.416 769.658 611.208 768.589 610.794 767.812C610.398 767.036 609.82 766.484 609.061 766.156C608.319 765.811 607.43 765.638 606.395 765.638C605.222 765.638 604.221 765.863 603.393 766.311C602.582 766.76 601.918 767.372 601.4 768.149C600.883 768.925 600.503 769.822 600.262 770.84C600.02 771.858 599.899 772.945 599.899 774.101ZM617.264 772.445L614.34 773.092C614.34 771.401 614.573 769.805 615.039 768.304C615.522 766.786 616.22 765.457 617.135 764.319C618.066 763.163 619.214 762.257 620.577 761.601C621.94 760.946 623.501 760.618 625.261 760.618C626.693 760.618 627.969 760.816 629.091 761.213C630.229 761.593 631.196 762.197 631.989 763.025C632.783 763.853 633.387 764.931 633.801 766.26C634.215 767.571 634.422 769.158 634.422 771.021V789.136H628.159V770.995C628.159 769.581 627.952 768.485 627.538 767.709C627.141 766.932 626.572 766.398 625.83 766.104C625.088 765.794 624.2 765.638 623.165 765.638C622.198 765.638 621.344 765.82 620.603 766.182C619.878 766.527 619.265 767.019 618.765 767.657C618.265 768.278 617.885 768.994 617.626 769.805C617.385 770.616 617.264 771.496 617.264 772.445ZM653.184 789.654C651.114 789.654 649.242 789.318 647.568 788.645C645.912 787.955 644.497 786.997 643.324 785.772C642.168 784.547 641.28 783.107 640.659 781.45C640.038 779.794 639.727 778.009 639.727 776.094V775.058C639.727 772.867 640.046 770.883 640.685 769.106C641.323 767.329 642.211 765.811 643.35 764.552C644.489 763.275 645.834 762.3 647.387 761.627C648.94 760.954 650.622 760.618 652.434 760.618C654.435 760.618 656.186 760.954 657.687 761.627C659.188 762.3 660.43 763.249 661.414 764.474C662.414 765.682 663.156 767.122 663.639 768.796C664.139 770.469 664.39 772.315 664.39 774.334V776.999H642.755V772.522H658.23V772.031C658.196 770.909 657.972 769.857 657.558 768.873C657.161 767.89 656.548 767.096 655.72 766.492C654.892 765.889 653.788 765.587 652.408 765.587C651.373 765.587 650.45 765.811 649.639 766.26C648.845 766.691 648.181 767.321 647.646 768.149C647.111 768.977 646.697 769.977 646.404 771.151C646.128 772.307 645.99 773.609 645.99 775.058V776.094C645.99 777.318 646.154 778.457 646.481 779.51C646.826 780.545 647.327 781.45 647.982 782.227C648.638 783.003 649.432 783.616 650.363 784.064C651.295 784.496 652.356 784.711 653.546 784.711C655.047 784.711 656.384 784.409 657.558 783.805C658.731 783.202 659.749 782.348 660.611 781.243L663.898 784.427C663.294 785.306 662.509 786.152 661.543 786.963C660.577 787.756 659.395 788.403 657.998 788.904C656.617 789.404 655.013 789.654 653.184 789.654ZM675.44 767.114V789.136H669.203V761.135H675.078L675.44 767.114ZM674.327 774.101L672.309 774.075C672.326 772.091 672.602 770.271 673.137 768.615C673.689 766.958 674.448 765.535 675.414 764.344C676.397 763.154 677.571 762.24 678.934 761.601C680.297 760.946 681.815 760.618 683.488 760.618C684.834 760.618 686.05 760.808 687.137 761.187C688.241 761.55 689.182 762.145 689.958 762.973C690.752 763.801 691.355 764.879 691.77 766.208C692.184 767.519 692.391 769.132 692.391 771.047V789.136H686.128V771.021C686.128 769.676 685.93 768.615 685.533 767.838C685.153 767.045 684.592 766.484 683.851 766.156C683.126 765.811 682.22 765.638 681.133 765.638C680.064 765.638 679.106 765.863 678.261 766.311C677.415 766.76 676.699 767.372 676.113 768.149C675.543 768.925 675.104 769.822 674.793 770.84C674.482 771.858 674.327 772.945 674.327 774.101ZM711.593 761.135V765.69H695.807V761.135H711.593ZM700.361 754.278H706.598V781.399C706.598 782.261 706.719 782.926 706.96 783.391C707.219 783.84 707.573 784.142 708.021 784.297C708.47 784.452 708.996 784.53 709.6 784.53C710.031 784.53 710.445 784.504 710.842 784.452C711.239 784.401 711.558 784.349 711.8 784.297L711.826 789.059C711.308 789.214 710.704 789.352 710.014 789.473C709.341 789.594 708.565 789.654 707.685 789.654C706.253 789.654 704.985 789.404 703.881 788.904C702.777 788.386 701.914 787.549 701.293 786.393C700.672 785.237 700.361 783.702 700.361 781.787V754.278Z" fill="white"/>
<path d="M437.432 204.85V210H418.514V204.85H437.432ZM420.326 172.32V210H413.83V172.32H420.326ZM448.508 181.999V210H442.245V181.999H448.508ZM441.831 174.649C441.831 173.701 442.142 172.916 442.763 172.294C443.401 171.656 444.281 171.337 445.402 171.337C446.507 171.337 447.378 171.656 448.016 172.294C448.654 172.916 448.974 173.701 448.974 174.649C448.974 175.581 448.654 176.357 448.016 176.979C447.378 177.6 446.507 177.91 445.402 177.91C444.281 177.91 443.401 177.6 442.763 176.979C442.142 176.357 441.831 175.581 441.831 174.649ZM463.776 210H457.54V179.308C457.54 177.22 457.928 175.469 458.704 174.054C459.498 172.622 460.628 171.544 462.094 170.819C463.561 170.077 465.295 169.707 467.296 169.707C467.917 169.707 468.529 169.75 469.133 169.836C469.737 169.905 470.324 170.017 470.893 170.172L470.738 174.986C470.393 174.9 470.013 174.839 469.599 174.805C469.202 174.77 468.771 174.753 468.305 174.753C467.356 174.753 466.537 174.934 465.847 175.296C465.174 175.641 464.656 176.15 464.294 176.823C463.949 177.496 463.776 178.324 463.776 179.308V210ZM469.547 181.999V186.554H453.244V181.999H469.547ZM485.799 210.518C483.729 210.518 481.857 210.181 480.184 209.508C478.527 208.818 477.113 207.861 475.939 206.636C474.784 205.411 473.895 203.97 473.274 202.314C472.653 200.658 472.342 198.872 472.342 196.957V195.922C472.342 193.731 472.661 191.747 473.3 189.97C473.938 188.193 474.827 186.674 475.965 185.415C477.104 184.138 478.45 183.164 480.002 182.491C481.555 181.818 483.237 181.481 485.049 181.481C487.05 181.481 488.801 181.818 490.302 182.491C491.803 183.164 493.045 184.112 494.029 185.337C495.029 186.545 495.771 187.986 496.254 189.659C496.755 191.333 497.005 193.179 497.005 195.197V197.863H475.37V193.386H490.846V192.894C490.811 191.773 490.587 190.72 490.173 189.737C489.776 188.753 489.164 187.96 488.335 187.356C487.507 186.752 486.403 186.45 485.023 186.45C483.988 186.45 483.065 186.674 482.254 187.123C481.46 187.554 480.796 188.184 480.261 189.012C479.726 189.84 479.312 190.841 479.019 192.014C478.743 193.17 478.605 194.473 478.605 195.922V196.957C478.605 198.182 478.769 199.321 479.097 200.373C479.442 201.408 479.942 202.314 480.598 203.09C481.253 203.867 482.047 204.479 482.979 204.928C483.91 205.359 484.971 205.575 486.162 205.575C487.663 205.575 489 205.273 490.173 204.669C491.346 204.065 492.364 203.211 493.227 202.107L496.513 205.29C495.909 206.17 495.124 207.015 494.158 207.826C493.192 208.62 492.01 209.267 490.613 209.767C489.233 210.267 487.628 210.518 485.799 210.518ZM514.706 181.999V186.554H498.92V181.999H514.706ZM503.475 175.141H509.711V202.262C509.711 203.125 509.832 203.789 510.074 204.255C510.333 204.703 510.686 205.005 511.135 205.161C511.583 205.316 512.11 205.394 512.713 205.394C513.145 205.394 513.559 205.368 513.956 205.316C514.352 205.264 514.672 205.212 514.913 205.161L514.939 209.922C514.421 210.078 513.818 210.216 513.127 210.336C512.455 210.457 511.678 210.518 510.798 210.518C509.366 210.518 508.098 210.267 506.994 209.767C505.89 209.25 505.027 208.413 504.406 207.257C503.785 206.101 503.475 204.565 503.475 202.65V175.141ZM526.196 181.999V210H519.934V181.999H526.196ZM519.52 174.649C519.52 173.701 519.83 172.916 520.451 172.294C521.09 171.656 521.969 171.337 523.091 171.337C524.195 171.337 525.066 171.656 525.705 172.294C526.343 172.916 526.662 173.701 526.662 174.649C526.662 175.581 526.343 176.357 525.705 176.979C525.066 177.6 524.195 177.91 523.091 177.91C521.969 177.91 521.09 177.6 520.451 176.979C519.83 176.357 519.52 175.581 519.52 174.649ZM539.265 187.692V210H533.028V181.999H538.903L539.265 187.692ZM538.256 194.964L536.134 194.938C536.134 193.006 536.375 191.221 536.858 189.582C537.341 187.943 538.049 186.519 538.98 185.312C539.912 184.087 541.068 183.146 542.448 182.491C543.846 181.818 545.459 181.481 547.288 181.481C548.564 181.481 549.729 181.671 550.781 182.051C551.851 182.413 552.774 182.991 553.55 183.785C554.344 184.578 554.948 185.596 555.362 186.838C555.793 188.081 556.009 189.582 556.009 191.341V210H549.772V191.885C549.772 190.522 549.565 189.452 549.151 188.676C548.754 187.899 548.176 187.347 547.417 187.02C546.675 186.674 545.787 186.502 544.751 186.502C543.578 186.502 542.578 186.726 541.75 187.175C540.939 187.623 540.274 188.236 539.757 189.012C539.239 189.789 538.86 190.686 538.618 191.704C538.377 192.722 538.256 193.808 538.256 194.964ZM555.621 193.308L552.696 193.955C552.696 192.264 552.929 190.668 553.395 189.167C553.878 187.649 554.577 186.321 555.491 185.182C556.423 184.026 557.57 183.12 558.933 182.465C560.296 181.809 561.857 181.481 563.617 181.481C565.049 181.481 566.326 181.68 567.447 182.077C568.586 182.456 569.552 183.06 570.346 183.888C571.139 184.716 571.743 185.795 572.157 187.123C572.571 188.434 572.778 190.021 572.778 191.885V210H566.516V191.859C566.516 190.444 566.309 189.349 565.895 188.572C565.498 187.796 564.928 187.261 564.187 186.968C563.445 186.657 562.556 186.502 561.521 186.502C560.555 186.502 559.701 186.683 558.959 187.045C558.234 187.39 557.622 187.882 557.122 188.521C556.621 189.142 556.242 189.858 555.983 190.668C555.741 191.479 555.621 192.359 555.621 193.308ZM591.541 210.518C589.47 210.518 587.598 210.181 585.925 209.508C584.269 208.818 582.854 207.861 581.681 206.636C580.525 205.411 579.636 203.97 579.015 202.314C578.394 200.658 578.083 198.872 578.083 196.957V195.922C578.083 193.731 578.403 191.747 579.041 189.97C579.679 188.193 580.568 186.674 581.707 185.415C582.845 184.138 584.191 183.164 585.744 182.491C587.296 181.818 588.979 181.481 590.79 181.481C592.791 181.481 594.542 181.818 596.043 182.491C597.544 183.164 598.787 184.112 599.77 185.337C600.771 186.545 601.513 187.986 601.996 189.659C602.496 191.333 602.746 193.179 602.746 195.197V197.863H581.111V193.386H596.587V192.894C596.552 191.773 596.328 190.72 595.914 189.737C595.517 188.753 594.905 187.96 594.077 187.356C593.249 186.752 592.144 186.45 590.764 186.45C589.729 186.45 588.806 186.674 587.995 187.123C587.201 187.554 586.537 188.184 586.002 189.012C585.468 189.84 585.054 190.841 584.76 192.014C584.484 193.17 584.346 194.473 584.346 195.922V196.957C584.346 198.182 584.51 199.321 584.838 200.373C585.183 201.408 585.683 202.314 586.339 203.09C586.994 203.867 587.788 204.479 588.72 204.928C589.651 205.359 590.712 205.575 591.903 205.575C593.404 205.575 594.741 205.273 595.914 204.669C597.087 204.065 598.105 203.211 598.968 202.107L602.254 205.29C601.651 206.17 600.866 207.015 599.899 207.826C598.933 208.62 597.751 209.267 596.354 209.767C594.974 210.267 593.369 210.518 591.541 210.518ZM634.344 203.116L644.256 172.32H651.424L637.916 210H633.076L634.344 203.116ZM625.183 172.32L635.017 203.116L636.363 210H631.498L618.041 172.32H625.183ZM669.617 204.384V191.031C669.617 190.03 669.436 189.167 669.074 188.443C668.711 187.718 668.159 187.158 667.417 186.761C666.693 186.364 665.778 186.166 664.674 186.166C663.656 186.166 662.777 186.338 662.035 186.683C661.293 187.028 660.715 187.494 660.301 188.081C659.887 188.667 659.68 189.331 659.68 190.073H653.469C653.469 188.969 653.736 187.899 654.271 186.864C654.806 185.829 655.582 184.906 656.6 184.095C657.618 183.284 658.834 182.646 660.249 182.18C661.664 181.714 663.251 181.481 665.011 181.481C667.116 181.481 668.979 181.835 670.601 182.542C672.24 183.25 673.525 184.319 674.457 185.751C675.405 187.166 675.88 188.943 675.88 191.083V203.53C675.88 204.807 675.966 205.954 676.139 206.972C676.328 207.973 676.596 208.844 676.941 209.586V210H670.549C670.256 209.327 670.023 208.473 669.85 207.438C669.695 206.386 669.617 205.368 669.617 204.384ZM670.523 192.972L670.575 196.828H666.098C664.942 196.828 663.924 196.94 663.044 197.164C662.164 197.371 661.431 197.682 660.844 198.096C660.258 198.51 659.818 199.01 659.524 199.597C659.231 200.183 659.084 200.847 659.084 201.589C659.084 202.331 659.257 203.013 659.602 203.634C659.947 204.238 660.447 204.712 661.103 205.057C661.776 205.402 662.587 205.575 663.536 205.575C664.812 205.575 665.925 205.316 666.874 204.798C667.84 204.264 668.599 203.617 669.151 202.857C669.703 202.081 669.997 201.348 670.031 200.658L672.05 203.427C671.843 204.134 671.489 204.893 670.989 205.704C670.488 206.515 669.833 207.291 669.022 208.033C668.228 208.758 667.271 209.353 666.149 209.819C665.045 210.285 663.769 210.518 662.319 210.518C660.491 210.518 658.86 210.155 657.428 209.431C655.996 208.689 654.875 207.697 654.064 206.455C653.253 205.195 652.848 203.772 652.848 202.185C652.848 200.701 653.124 199.39 653.676 198.251C654.245 197.095 655.073 196.129 656.16 195.353C657.264 194.576 658.61 193.99 660.197 193.593C661.785 193.179 663.596 192.972 665.632 192.972H670.523ZM689.078 170.25V210H682.815V170.25H689.078ZM702.587 181.999V210H696.324V181.999H702.587ZM695.91 174.649C695.91 173.701 696.221 172.916 696.842 172.294C697.48 171.656 698.36 171.337 699.481 171.337C700.586 171.337 701.457 171.656 702.095 172.294C702.734 172.916 703.053 173.701 703.053 174.649C703.053 175.581 702.734 176.357 702.095 176.979C701.457 177.6 700.586 177.91 699.481 177.91C698.36 177.91 697.48 177.6 696.842 176.979C696.221 176.357 695.91 175.581 695.91 174.649ZM726.499 204.203V170.25H732.762V210H727.094L726.499 204.203ZM708.28 196.31V195.767C708.28 193.645 708.53 191.712 709.031 189.97C709.531 188.21 710.256 186.7 711.205 185.441C712.153 184.164 713.309 183.189 714.672 182.517C716.035 181.826 717.571 181.481 719.279 181.481C720.97 181.481 722.453 181.809 723.73 182.465C725.007 183.12 726.094 184.061 726.991 185.286C727.888 186.493 728.604 187.943 729.139 189.633C729.674 191.307 730.053 193.17 730.277 195.223V196.957C730.053 198.958 729.674 200.787 729.139 202.443C728.604 204.1 727.888 205.532 726.991 206.739C726.094 207.947 724.998 208.879 723.704 209.534C722.427 210.19 720.935 210.518 719.227 210.518C717.536 210.518 716.009 210.164 714.646 209.457C713.301 208.749 712.153 207.757 711.205 206.48C710.256 205.204 709.531 203.703 709.031 201.978C708.53 200.235 708.28 198.346 708.28 196.31ZM714.517 195.767V196.31C714.517 197.587 714.629 198.777 714.854 199.881C715.095 200.986 715.466 201.96 715.966 202.806C716.467 203.634 717.114 204.289 717.907 204.772C718.718 205.238 719.684 205.471 720.806 205.471C722.22 205.471 723.385 205.161 724.299 204.54C725.214 203.918 725.93 203.082 726.447 202.029C726.982 200.96 727.344 199.769 727.534 198.458V193.774C727.431 192.756 727.215 191.807 726.887 190.927C726.577 190.047 726.154 189.28 725.619 188.624C725.084 187.951 724.42 187.434 723.626 187.071C722.85 186.692 721.927 186.502 720.857 186.502C719.719 186.502 718.753 186.743 717.959 187.227C717.165 187.71 716.51 188.374 715.992 189.219C715.492 190.065 715.121 191.048 714.879 192.169C714.638 193.291 714.517 194.49 714.517 195.767ZM745.96 181.999V210H739.697V181.999H745.96ZM739.283 174.649C739.283 173.701 739.594 172.916 740.215 172.294C740.853 171.656 741.733 171.337 742.854 171.337C743.959 171.337 744.83 171.656 745.468 172.294C746.107 172.916 746.426 173.701 746.426 174.649C746.426 175.581 746.107 176.357 745.468 176.979C744.83 177.6 743.959 177.91 742.854 177.91C741.733 177.91 740.853 177.6 740.215 176.979C739.594 176.357 739.283 175.581 739.283 174.649ZM765.628 181.999V186.554H749.842V181.999H765.628ZM754.396 175.141H760.633V202.262C760.633 203.125 760.754 203.789 760.996 204.255C761.254 204.703 761.608 205.005 762.057 205.161C762.505 205.316 763.031 205.394 763.635 205.394C764.067 205.394 764.481 205.368 764.877 205.316C765.274 205.264 765.593 205.212 765.835 205.161L765.861 209.922C765.343 210.078 764.739 210.216 764.049 210.336C763.376 210.457 762.6 210.518 761.72 210.518C760.288 210.518 759.02 210.267 757.916 209.767C756.812 209.25 755.949 208.413 755.328 207.257C754.707 206.101 754.396 204.565 754.396 202.65V175.141ZM778.567 206.946L786.176 181.999H792.853L781.621 214.27C781.362 214.96 781.026 215.711 780.612 216.521C780.198 217.332 779.654 218.1 778.981 218.825C778.326 219.567 777.506 220.162 776.523 220.61C775.54 221.076 774.349 221.309 772.952 221.309C772.4 221.309 771.865 221.257 771.347 221.154C770.847 221.068 770.372 220.973 769.924 220.869L769.898 216.107C770.07 216.125 770.278 216.142 770.519 216.159C770.778 216.176 770.985 216.185 771.14 216.185C772.175 216.185 773.038 216.056 773.728 215.797C774.418 215.555 774.979 215.159 775.41 214.606C775.859 214.054 776.238 213.312 776.549 212.381L778.567 206.946ZM774.271 181.999L780.922 202.961L782.035 209.534L777.713 210.647L767.543 181.999H774.271Z" fill="white"/>
<path d="M915.001 948.166C878.55 948.166 849.001 984.937 849.001 1030.3C849.001 1075.65 878.55 1112.43 915.001 1112.43C951.451 1112.43 981 1075.65 981 1030.3C981 984.937 951.451 948.166 915.001 948.166Z" fill="#FFA229"/>
<path d="M844.021 929.455C883.465 964.126 896.859 1019.23 877.245 1068.46C857.656 1117.64 809.971 1148.56 757.469 1146.73L750.808 1163.45C780.9 1165.74 810.938 1158.37 836.539 1142.42C862.139 1126.46 881.961 1102.76 893.113 1074.76C904.265 1046.77 906.163 1015.95 898.53 986.799C890.896 957.651 874.131 931.7 850.681 912.735L844.021 929.455Z" fill="#FFA229"/>
<path d="M765.824 898.403C713.306 896.561 665.662 927.437 646.048 976.672C626.461 1025.85 639.849 1081.02 679.274 1115.68L672.613 1132.4C649.167 1113.44 632.405 1087.49 624.773 1058.34C617.142 1029.19 619.04 998.376 630.192 970.383C641.343 942.39 661.164 918.686 686.761 902.732C712.359 886.777 742.394 879.406 772.484 881.694L765.824 898.403Z" fill="#FFA229"/>
<path d="M84.9993 826.247C121.45 826.247 150.999 789.477 150.999 744.118C150.999 698.759 121.45 661.988 84.9993 661.988C48.5489 661.988 19 698.759 19 744.118C19 789.477 48.5489 826.247 84.9993 826.247Z" fill="#1C4670"/>
<path d="M673.868 934.85C625.34 983.294 625.34 1061.84 673.868 1110.28C722.395 1158.73 801.074 1158.73 849.602 1110.28C898.129 1061.84 898.129 983.294 849.602 934.85C801.074 886.405 722.395 886.405 673.868 934.85Z" fill="white"/>
<path d="M155.979 844.959C116.535 810.287 103.141 755.188 122.755 705.95C142.344 656.777 190.029 625.852 242.531 627.683L249.192 610.96C219.1 608.669 189.062 616.039 163.461 631.994C137.861 647.949 118.039 671.654 106.887 699.65C95.7346 727.646 93.8369 758.466 101.47 787.615C109.104 816.763 125.869 842.713 149.319 861.678L155.979 844.959Z" fill="#1C4670"/>
<path d="M686.649 947.695C645.228 989.045 645.228 1056.09 686.649 1097.44C728.07 1138.79 795.227 1138.79 836.649 1097.44C878.07 1056.09 878.07 989.045 836.649 947.695C795.227 906.344 728.07 906.344 686.649 947.695Z" fill="#1C4670"/>
<path d="M836.294 948.36C877.52 989.516 877.52 1056.24 836.294 1097.4C795.068 1138.55 728.228 1138.55 687.002 1097.4C645.776 1056.24 645.776 989.516 687.002 948.36C728.228 907.205 795.068 907.205 836.294 948.36Z" fill="white" stroke="black"/>
<path d="M740.906 1059.79C734.808 1059.79 730.092 1058.08 726.756 1054.67C723.447 1051.25 721.793 1046.33 721.793 1039.9V1007.33C721.793 1000.55 723.365 995.357 726.51 991.748C729.681 988.111 734.48 986.293 740.906 986.293C747.359 986.293 752.158 988.111 755.303 991.748C758.447 995.357 760.019 1000.55 760.019 1007.33V1039.9C760.019 1046.33 758.365 1051.25 755.056 1054.67C751.748 1058.08 747.031 1059.79 740.906 1059.79ZM740.906 1046.5C742.027 1046.5 742.902 1046 743.531 1044.99C744.16 1043.97 744.474 1042.84 744.474 1041.58V1005.94C744.474 1004.24 744.283 1002.77 743.9 1001.51C743.545 1000.22 742.547 999.582 740.906 999.582C739.265 999.582 738.254 1000.22 737.871 1001.51C737.515 1002.77 737.338 1004.24 737.338 1005.94V1041.58C737.338 1042.84 737.652 1043.97 738.281 1044.99C738.937 1046 739.812 1046.5 740.906 1046.5ZM785.488 1059.18V1047.73H764.078V1036.45L777.736 986.908H800.213V1035.68H804.069V1047.73H800.213V1059.18H785.488ZM776.957 1035.68H785.488V999.295L776.957 1035.68Z" fill="#1C4670"/>
<path d="M234.176 876.011C286.694 877.852 334.338 846.977 353.952 797.741C373.539 748.568 360.151 693.394 320.726 658.735L327.387 642.011C350.833 660.977 367.595 686.926 375.227 716.073C382.858 745.219 380.96 776.037 369.808 804.031C358.657 832.024 338.836 855.727 313.239 871.682C287.641 887.636 257.606 895.007 227.516 892.719L234.176 876.011Z" fill="#1C4670"/>
<path d="M326.218 839.556C374.746 791.112 374.746 712.568 326.218 664.123C277.691 615.678 199.012 615.678 150.484 664.123C101.957 712.568 101.957 791.112 150.484 839.556C199.012 888.001 277.691 888.001 326.218 839.556Z" fill="white"/>
<path d="M313.351 826.711C354.772 785.361 354.772 718.319 313.351 676.968C271.93 635.618 204.773 635.618 163.351 676.968C121.93 718.319 121.93 785.361 163.351 826.711C204.773 868.061 271.93 868.061 313.351 826.711Z" fill="#FFA229"/>
<path d="M219.906 785.793C213.808 785.793 209.092 784.084 205.756 780.666C202.447 777.248 200.793 772.326 200.793 765.9V733.334C200.793 726.552 202.365 721.357 205.51 717.748C208.681 714.111 213.48 712.293 219.906 712.293C226.359 712.293 231.158 714.111 234.303 717.748C237.447 721.357 239.019 726.552 239.019 733.334V765.9C239.019 772.326 237.365 777.248 234.056 780.666C230.748 784.084 226.031 785.793 219.906 785.793ZM219.906 772.504C221.027 772.504 221.902 771.998 222.531 770.986C223.16 769.974 223.474 768.84 223.474 767.582V731.939C223.474 730.244 223.283 728.767 222.9 727.51C222.545 726.224 221.547 725.582 219.906 725.582C218.265 725.582 217.254 726.224 216.871 727.51C216.515 728.767 216.338 730.244 216.338 731.939V767.582C216.338 768.84 216.652 769.974 217.281 770.986C217.937 771.998 218.812 772.504 219.906 772.504ZM262.192 785.957C255.82 785.957 251.186 784.275 248.287 780.912C245.389 777.549 243.94 772.476 243.94 765.695V758.148H258.746V765.736C258.746 767.65 258.979 769.277 259.444 770.617C259.936 771.929 261.016 772.586 262.684 772.586C264.379 772.586 265.459 771.875 265.924 770.453C266.389 769.004 266.621 766.652 266.621 763.398V761.594C266.621 759.105 266.197 756.931 265.35 755.072C264.529 753.213 262.903 752.283 260.469 752.283C260.168 752.283 259.895 752.297 259.649 752.324C259.43 752.324 259.238 752.338 259.074 752.365V739.404C261.563 739.404 263.463 738.857 264.776 737.763C266.088 736.642 266.744 734.783 266.744 732.185C266.744 728.111 265.569 726.074 263.217 726.074C261.686 726.074 260.647 726.676 260.1 727.879C259.58 729.054 259.32 730.558 259.32 732.39V734.564H244.391C244.363 734.236 244.336 733.84 244.309 733.375C244.309 732.91 244.309 732.459 244.309 732.021C244.309 725.404 245.854 720.551 248.944 717.461C252.033 714.371 256.764 712.826 263.135 712.826C275.44 712.826 281.592 719.224 281.592 732.021C281.592 735.576 281.113 738.515 280.156 740.84C279.199 743.136 277.422 744.75 274.824 745.679C276.875 746.664 278.393 747.922 279.377 749.453C280.361 750.984 281.004 752.885 281.305 755.154C281.606 757.424 281.756 760.172 281.756 763.398C281.756 770.617 280.238 776.181 277.203 780.092C274.195 784.002 269.192 785.957 262.192 785.957Z" fill="white"/>
<path d="M836.294 400.618C877.52 441.774 877.52 508.499 836.294 549.655C795.068 590.81 728.228 590.81 687.002 549.655C645.776 508.499 645.776 441.774 687.002 400.618C728.228 359.463 795.068 359.463 836.294 400.618Z" fill="white" stroke="black"/>
<path d="M738.906 513.793C732.808 513.793 728.092 512.084 724.756 508.666C721.447 505.248 719.793 500.326 719.793 493.9V461.334C719.793 454.552 721.365 449.357 724.51 445.748C727.681 442.111 732.48 440.293 738.906 440.293C745.359 440.293 750.158 442.111 753.303 445.748C756.447 449.357 758.019 454.552 758.019 461.334V493.9C758.019 500.326 756.365 505.248 753.056 508.666C749.748 512.084 745.031 513.793 738.906 513.793ZM738.906 500.504C740.027 500.504 740.902 499.998 741.531 498.986C742.16 497.974 742.474 496.84 742.474 495.582V459.939C742.474 458.244 742.283 456.767 741.9 455.51C741.545 454.224 740.547 453.582 738.906 453.582C737.265 453.582 736.254 454.224 735.871 455.51C735.515 456.767 735.338 458.244 735.338 459.939V495.582C735.338 496.84 735.652 497.974 736.281 498.986C736.937 499.998 737.812 500.504 738.906 500.504ZM763.883 513.136V509.691C763.883 506.109 764.43 502.896 765.524 500.052C766.645 497.181 768.08 494.529 769.83 492.095C771.58 489.635 773.426 487.228 775.367 484.877C777.254 482.58 779.045 480.228 780.74 477.822C782.463 475.388 783.858 472.763 784.924 469.947C786.018 467.103 786.565 463.918 786.565 460.39C786.565 458.695 786.305 457.246 785.785 456.043C785.293 454.812 784.254 454.197 782.668 454.197C780.262 454.197 779.059 456.344 779.059 460.636V469.455H763.883C763.856 468.826 763.815 468.115 763.76 467.322C763.733 466.529 763.719 465.763 763.719 465.025C763.719 459.83 764.266 455.427 765.36 451.818C766.453 448.181 768.381 445.42 771.143 443.533C773.932 441.619 777.842 440.662 782.873 440.662C788.861 440.662 793.51 442.344 796.819 445.707C800.154 449.07 801.822 453.869 801.822 460.103C801.822 464.342 801.276 468.06 800.182 471.26C799.088 474.431 797.639 477.33 795.834 479.955C794.029 482.552 792.047 485.15 789.887 487.748C788.356 489.58 786.865 491.453 785.416 493.367C783.994 495.281 782.736 497.332 781.643 499.519H801.33V513.136H763.883Z" fill="#1C4670"/>
</svg>
