<svg width="2350" height="2350" viewBox="0 0 2350 2350" fill="none" xmlns="http://www.w3.org/2000/svg">
<path opacity="0.21" d="M1175 2291.25C1791.49 2291.25 2291.25 1791.49 2291.25 1175C2291.25 558.512 1791.49 58.75 1175 58.75C558.512 58.75 58.75 558.512 58.75 1175C58.75 1791.49 558.512 2291.25 1175 2291.25Z" fill="white"/>
<path d="M1174.65 2112.3C1692.5 2112.3 2112.3 1692.5 2112.3 1174.65C2112.3 656.8 1692.5 237 1174.65 237C656.8 237 237 656.8 237 1174.65C237 1692.5 656.8 2112.3 1174.65 2112.3Z" fill="#FE9C28"/>
<circle cx="1175" cy="1175" r="667" stroke="#1C4670" stroke-width="120"/>
<path d="M1515.47 705C1271.7 865.31 1044.25 1205.57 1001.02 1467.33C958.835 1287.88 911.314 1157.1 808.991 968.771C786.774 1043.9 743.789 1116.07 683 1178.25C820.377 1295.4 916.776 1455.71 968.863 1645C988.02 1628.86 1012.07 1619.67 1037.12 1618.92C1135.52 1329.07 1361.83 999.723 1668 906.343C1575.15 863.737 1512.51 761.201 1515.47 705Z" fill="white"/>
</svg>
