<svg width="2350" height="2350" viewBox="0 0 2350 2350" fill="none" xmlns="http://www.w3.org/2000/svg">
<g clip-path="url(#clip0_620_424)">
<g clip-path="url(#clip1_620_424)">
<path d="M1592.97 979.896L1593.49 1615.06C1593.47 1660.84 1575.29 1704.73 1542.95 1737.11C1510.6 1769.5 1466.72 1787.72 1420.95 1787.8L693.068 1788.36C647.299 1788.36 603.4 1770.2 571.006 1737.87C538.612 1705.53 520.371 1661.67 520.286 1615.9L519.687 888.056C519.708 842.278 537.884 798.376 570.23 765.98C602.575 733.584 646.449 715.337 692.229 715.242L1383.36 714.723C1408.29 685.321 1433.89 657.078 1460.18 629.993C1442.85 626.6 1425.23 624.901 1407.57 624.92L704.654 625.439C631.78 625.587 561.941 654.631 510.453 706.199C458.964 757.767 430.032 827.649 430 900.519L430.559 1603.6C430.771 1676.43 459.843 1746.2 511.407 1797.64C562.97 1849.07 632.82 1877.97 705.652 1878L1408.53 1877.44C1481.39 1877.29 1551.23 1848.26 1602.71 1796.7C1654.2 1745.14 1683.14 1675.26 1683.18 1602.4L1682.66 907.87C1651.53 930.296 1621.59 954.337 1592.97 979.896Z" fill="#FE9C28"/>
<path d="M1723.53 472C1407.93 679.728 1113.46 1120.63 1057.49 1459.83C1002.88 1227.29 941.355 1057.83 808.882 813.793C780.119 911.145 724.469 1004.66 645.768 1085.24C823.624 1237.04 948.426 1444.77 1015.86 1690.05C1040.66 1669.14 1071.81 1657.23 1104.23 1656.25C1231.63 1280.66 1524.62 853.9 1921 732.899C1800.79 677.691 1719.69 544.825 1723.53 472Z" fill="#FE9C28"/>
</g>
</g>
<defs>
<clipPath id="clip0_620_424">
<rect width="2350" height="2350" fill="white"/>
</clipPath>
<clipPath id="clip1_620_424">
<rect width="1491" height="1406" fill="white" transform="translate(430 472)"/>
</clipPath>
</defs>
</svg>
