<svg width="2372" height="2372" viewBox="0 0 2372 2372" fill="none" xmlns="http://www.w3.org/2000/svg">
<g clip-path="url(#clip0_620_362)">
<path d="M1186 2321C1812.84 2321 2321 1812.84 2321 1186C2321 559.157 1812.84 51 1186 51C559.157 51 51 559.157 51 1186C51 1812.84 559.157 2321 1186 2321Z" fill="white"/>
<path d="M1186 2135.69C1710.5 2135.69 2135.69 1710.5 2135.69 1186C2135.69 661.494 1710.5 236.302 1186 236.302C661.494 236.302 236.302 661.494 236.302 1186C236.302 1710.5 661.494 2135.69 1186 2135.69Z" fill="#E9A038"/>
<path d="M1783.5 1133.46C1808.17 1147.7 1808.17 1183.3 1783.5 1197.54L1256.25 1501.95C1231.58 1516.19 1200.75 1498.39 1200.75 1469.91L1200.75 861.092C1200.75 832.609 1231.58 814.808 1256.25 829.049L1783.5 1133.46Z" fill="white"/>
<rect x="678" y="1043" width="650" height="244" rx="35" fill="white"/>
</g>
<defs>
<clipPath id="clip0_620_362">
<rect width="2270" height="2270" fill="white" transform="translate(51 51)"/>
</clipPath>
</defs>
</svg>
