<svg width="1080" height="1080" viewBox="0 0 1080 1080" fill="none" xmlns="http://www.w3.org/2000/svg">
<g clip-path="url(#clip0_390_862)">
<rect width="1080" height="1080" transform="translate(1080 1080) rotate(180)" fill="white"/>
<path d="M779.571 863.511C779.571 863.511 830.874 897.68 861.961 869.772C893.049 841.864 860.141 821.066 889.263 787.406C918.385 753.746 961.873 756.707 968.45 713.68C975.026 670.652 933.334 681.646 969.372 636.993C1005.41 592.339 987.694 463.743 936.561 476.314C885.429 488.885 904.673 607.361 891.763 622.213C878.852 637.065 846.43 626.339 842.28 657.887C838.13 689.436 857.69 728.483 834.077 748.238C810.465 767.992 765.18 813.203 779.571 863.511Z" fill="#1C4670"/>
<path d="M743.195 887.253C743.195 887.253 907.903 791.685 957.968 556.867" stroke="white" stroke-width="2" stroke-miterlimit="10"/>
<path d="M759.719 927.418C759.719 927.418 761.563 964.111 785.977 969.086C810.391 974.061 808.643 950.909 835.095 952.875C861.548 954.841 875.599 976.731 898.508 964.597C921.417 952.463 901.396 936.421 935.565 937.902C969.735 939.382 1024.92 885.094 1000.82 865.098C976.724 845.101 926.707 896.428 915.059 895.481C903.41 894.535 897.003 875.242 880.477 884.439C863.95 893.637 852.132 916.886 834.367 912.59C816.603 908.295 778.696 902.64 759.719 927.418Z" fill="#FFA229"/>
<path d="M749.641 921.38C749.641 921.38 847.028 953.753 977.761 885.172" stroke="white" stroke-width="2" stroke-miterlimit="10"/>
<path d="M771.969 920.87C771.969 920.87 803.032 959.092 833.391 945.138C863.751 931.184 843.535 907.523 873.725 888.691C903.914 869.859 936.434 882.454 951.625 851.172C966.817 819.891 932.405 818.386 970.506 792.929C1008.61 767.472 1025.38 665.036 983.465 662.488C941.554 659.94 928.085 754.973 914.738 763.225C901.39 771.476 879.161 755.604 868.629 778.659C858.096 801.714 863.775 836.199 840.963 845.688C818.151 855.176 772.891 879.008 771.969 920.87Z" fill="#FFBB6A"/>
<path d="M754.086 922.078C754.086 922.078 887.342 880.215 974.44 702.5" stroke="white" stroke-width="2" stroke-miterlimit="10"/>
<path d="M846.936 909.521C859.434 882.365 894.016 864.285 918.842 857.952C943.668 851.618 941.29 838.294 943.304 812.522C945.27 787.404 1001.55 736.466 1004.39 733.82C998.611 758.331 986.453 782.356 970.63 792.865C932.529 818.419 966.966 819.899 951.75 851.108C936.534 882.317 904.039 869.819 873.849 888.651C843.66 907.483 863.875 931.12 833.516 945.074C816.528 952.888 799.249 944.297 787.406 935.245C787.406 935.245 834.341 936.653 846.936 909.521Z" fill="#FFA229"/>
<path d="M430.662 863.517C430.662 863.517 379.383 897.686 348.272 869.778C317.16 841.869 350.092 821.072 320.994 787.412C291.897 753.752 248.384 756.713 241.808 713.71C235.231 670.707 276.899 681.676 240.861 637.023C204.823 592.369 222.66 463.846 273.696 476.344C324.732 488.842 305.56 607.391 318.47 622.243C331.381 637.095 363.827 626.345 367.953 657.893C372.079 689.442 352.543 728.489 376.18 748.243C399.817 767.997 445.077 813.209 430.662 863.517Z" fill="#1C4670"/>
<path d="M467.067 887.253C467.067 887.253 302.359 791.685 252.367 556.867" stroke="white" stroke-width="2" stroke-miterlimit="10"/>
<path d="M450.544 927.418C450.544 927.418 448.675 964.111 424.261 969.086C399.848 974.061 401.595 950.909 375.143 952.875C348.69 954.841 334.664 976.731 311.73 964.597C288.797 952.463 308.867 936.421 274.697 937.902C240.528 939.382 185.342 885.094 209.44 865.098C233.538 845.101 283.531 896.428 295.179 895.481C306.828 894.535 313.259 875.242 329.786 884.439C346.312 893.637 358.106 916.886 375.895 912.59C393.683 908.295 431.542 902.64 450.544 927.418Z" fill="#FFA229"/>
<path d="M460.589 921.38C460.589 921.38 363.201 953.753 232.469 885.172" stroke="white" stroke-width="2" stroke-miterlimit="10"/>
<path d="M438.262 920.87C438.262 920.87 407.199 959.092 376.84 945.138C346.48 931.184 366.72 907.523 336.531 888.691C306.341 869.859 273.822 882.454 258.606 851.172C243.39 819.891 277.826 818.386 239.75 792.929C201.673 767.472 184.855 665.036 226.766 662.488C268.677 659.94 282.146 754.973 295.493 763.225C308.841 771.476 331.095 755.604 341.603 778.659C352.111 801.714 346.456 836.199 369.268 845.688C392.08 855.176 437.34 879.008 438.262 920.87Z" fill="#FFBB6A"/>
<path d="M456.221 922.078C456.221 922.078 322.99 880.215 235.867 702.5" stroke="white" stroke-width="2" stroke-miterlimit="10"/>
<path d="M363.419 909.521C350.945 882.365 316.363 864.285 291.537 857.952C266.711 851.618 269.065 838.294 267.051 812.522C265.085 787.404 208.807 736.466 205.992 733.82C211.768 758.331 223.902 782.356 239.749 792.865C277.826 818.419 243.414 819.899 258.605 851.108C273.797 882.317 306.316 869.819 336.53 888.651C366.744 907.483 346.504 931.12 376.839 945.074C393.827 952.888 411.106 944.297 422.949 935.245C422.949 935.245 375.893 936.653 363.419 909.521Z" fill="#FFA229"/>
<g style="mix-blend-mode:multiply">
<path d="M602.631 1009.71C784.522 1009.71 931.973 1000.7 931.973 989.572C931.973 978.448 784.522 969.43 602.631 969.43C420.741 969.43 273.289 978.448 273.289 989.572C273.289 1000.7 420.741 1009.71 602.631 1009.71Z" fill="#E2E2E2"/>
</g>
<path d="M905.177 58.2578H301.679C292.994 58.2578 285.953 65.2985 285.953 73.9835V971.854C285.953 980.539 292.994 987.58 301.679 987.58H905.177C913.862 987.58 920.903 980.539 920.903 971.854V73.9835C920.903 65.2985 913.862 58.2578 905.177 58.2578Z" fill="#1C4670"/>
<path d="M885.523 90.6406H316V987.419H885.523V90.6406Z" fill="#FCFCFC"/>
<path d="M810.92 442.602H474.055V456.823H810.92V442.602Z" fill="#D9D9D9"/>
<path d="M810.92 498.797H474.055V513.018H810.92V498.797Z" fill="#D9D9D9"/>
<path d="M810.92 555.008H474.055V569.229H810.92V555.008Z" fill="#D9D9D9"/>
<path d="M810.92 611.227H474.055V625.448H810.92V611.227Z" fill="#D9D9D9"/>
<path d="M810.92 667.438H474.055V681.659H810.92V667.438Z" fill="#D9D9D9"/>
<path d="M810.92 723.633H474.055V737.854H810.92V723.633Z" fill="#D9D9D9"/>
<path d="M810.924 787.094H551.328V801.315H810.924V787.094Z" fill="#D9D9D9"/>
<path d="M810.924 843.328H551.328V857.549H810.924V843.328Z" fill="#D9D9D9"/>
<path d="M810.924 897.305H551.328V911.526H810.924V897.305Z" fill="#D9D9D9"/>
<path d="M440.351 441.484H376.672C374.528 441.484 372.789 443.223 372.789 445.367V509.047C372.789 511.191 374.528 512.93 376.672 512.93H440.351C442.496 512.93 444.234 511.191 444.234 509.047V445.367C444.234 443.223 442.496 441.484 440.351 441.484Z" fill="#D9D9D9"/>
<path d="M386.328 475.403L404.189 491.323L430.69 463.852" stroke="#28478F" stroke-width="3" stroke-miterlimit="10"/>
<path d="M440.351 553.93H376.672C374.528 553.93 372.789 555.668 372.789 557.813V621.492C372.789 623.636 374.528 625.375 376.672 625.375H440.351C442.496 625.375 444.234 623.636 444.234 621.492V557.813C444.234 555.668 442.496 553.93 440.351 553.93Z" fill="#D9D9D9"/>
<path d="M386.328 587.856L404.189 603.776L430.69 576.305" stroke="#FCFCFC" stroke-width="3" stroke-miterlimit="10"/>
<path d="M376.673 666.399H440.328C440.838 666.399 441.343 666.499 441.814 666.694C442.285 666.889 442.713 667.175 443.074 667.536C443.434 667.896 443.72 668.324 443.915 668.795C444.11 669.267 444.211 669.772 444.211 670.281V733.937C444.211 734.966 443.802 735.954 443.074 736.682C442.345 737.41 441.358 737.819 440.328 737.819H376.673C375.637 737.819 374.643 737.408 373.91 736.675C373.177 735.942 372.766 734.949 372.766 733.912V670.306C372.762 669.792 372.861 669.282 373.057 668.807C373.252 668.331 373.539 667.899 373.903 667.536C374.266 667.172 374.698 666.885 375.174 666.689C375.649 666.494 376.159 666.395 376.673 666.399Z" fill="#D9D9D9"/>
<path d="M386.328 700.317L404.189 716.237L430.69 688.766" stroke="#FCFCFC" stroke-width="3" stroke-miterlimit="10"/>
<path d="M408.363 966.422L394.094 945.624L369.219 949.677L406.64 862.094L445.809 878.839L408.363 966.422Z" fill="#FFDA78"/>
<path d="M384.336 914.24C384.887 915.268 385.609 916.196 386.472 916.982C390.791 920.768 398.606 919.53 404.066 921.836C409.526 924.141 414.064 930.669 419.792 931.179C421.079 931.267 422.372 931.111 423.602 930.718L445.807 878.784L406.638 862.039L384.336 914.24Z" fill="#E0AB67"/>
<path d="M456.391 966.422L470.661 945.624L495.535 949.677L458.114 862.094L418.945 878.839L456.391 966.422Z" fill="#FFDA78"/>
<path d="M480.489 914.249C479.946 915.283 479.223 916.212 478.354 916.991C474.034 920.777 466.22 919.54 460.759 921.845C455.299 924.151 450.761 930.679 445.058 931.188C443.77 931.277 442.477 931.12 441.248 930.727L418.945 878.745L458.09 862L480.489 914.249Z" fill="#E0AB67"/>
<path d="M506.262 856.367C506.262 863.647 498.981 869.763 496.749 876.363C494.516 882.964 496.749 892.453 492.696 898.205C488.643 903.956 478.984 904.563 473.281 908.761C467.578 912.96 464.084 921.793 457.216 924.026C450.348 926.259 442.655 921.09 435.375 921.09C428.094 921.09 420.013 926.162 413.412 924.026C406.811 921.89 403.074 912.911 397.371 908.761C391.668 904.612 382.082 903.908 377.956 898.205C373.831 892.502 376.161 883.256 373.928 876.363C371.695 869.471 364.391 863.696 364.391 856.367C364.391 849.038 371.792 842.995 373.928 836.394C376.064 829.793 373.807 820.304 377.956 814.553C382.106 808.801 391.692 808.194 397.371 803.996C403.05 799.798 406.569 790.964 413.412 788.731C420.256 786.499 427.973 791.668 435.375 791.668C442.777 791.668 450.736 786.596 457.216 788.731C463.696 790.867 467.578 799.846 473.281 803.996C478.984 808.146 488.57 808.85 492.696 814.553C496.822 820.256 494.516 829.502 496.749 836.394C498.981 843.286 506.262 849.062 506.262 856.367Z" fill="#FFA229"/>
<path d="M474.854 884.544C489.328 860.907 481.9 830.011 458.262 815.537C434.624 801.063 403.728 808.492 389.254 832.13C374.78 855.767 382.209 886.663 405.847 901.137C429.485 915.611 460.38 908.182 474.854 884.544Z" fill="#E0AB67"/>
<path d="M435.233 906.576C462.95 906.576 485.42 884.107 485.42 856.389C485.42 828.672 462.95 806.203 435.233 806.203C407.516 806.203 385.047 828.672 385.047 856.389C385.047 884.107 407.516 906.576 435.233 906.576Z" fill="#FFDA78"/>
<path d="M481.049 863.952C486.752 839.697 471.712 815.412 447.457 809.71C423.203 804.007 398.918 819.047 393.216 843.302C387.513 867.556 402.553 891.841 426.808 897.544C451.062 903.246 475.347 888.206 481.049 863.952Z" fill="#FFE68A"/>
<path d="M454.956 842.982C454.956 844.73 454.438 846.439 453.466 847.892C452.494 849.345 451.113 850.478 449.498 851.146C447.882 851.813 446.105 851.987 444.39 851.644C442.676 851.301 441.102 850.457 439.868 849.22C438.633 847.982 437.794 846.406 437.456 844.69C437.118 842.975 437.296 841.198 437.968 839.585C438.641 837.971 439.777 836.593 441.233 835.625C442.689 834.658 444.399 834.144 446.147 834.148C447.306 834.148 448.453 834.377 449.524 834.821C450.594 835.266 451.566 835.917 452.385 836.737C453.203 837.558 453.851 838.532 454.293 839.603C454.734 840.675 454.959 841.823 454.956 842.982Z" fill="#FFFFA6"/>
<path d="M431.95 791.71C432.508 791.71 433.066 791.71 433.625 791.71C427.509 791.127 421.029 787.778 415.375 788.458C420.617 788.943 426.417 791.71 431.95 791.71Z" fill="#FFDA78"/>
<path d="M431.95 921.039C426.514 921.039 420.714 923.83 415.375 924.388C421.029 925.068 427.509 921.719 433.625 921.136C432.969 921.088 432.411 921.039 431.95 921.039Z" fill="#FFDA78"/>
<path d="M496.748 836.395C494.516 829.552 496.748 820.305 492.696 814.554C488.643 808.802 478.984 808.196 473.281 803.997C467.578 799.799 464.084 790.965 457.216 788.733C455.471 788.204 453.633 788.063 451.828 788.32C452.521 788.383 453.204 788.521 453.867 788.733C460.71 790.965 464.205 799.848 469.908 803.997C475.611 808.147 485.197 808.851 489.322 814.554C493.448 820.257 491.118 829.503 493.351 836.395C495.583 843.287 502.888 849.063 502.888 856.368C502.888 863.673 495.486 869.764 493.351 876.365C491.215 882.966 493.472 892.454 489.322 898.206C485.172 903.958 475.587 904.564 469.908 908.763C464.229 912.961 460.71 921.795 453.867 924.027C453.204 924.239 452.521 924.377 451.828 924.44C453.633 924.697 455.471 924.556 457.216 924.027C464.084 921.795 467.578 912.912 473.281 908.763C478.984 904.613 488.57 903.909 492.696 898.206C496.821 892.503 494.516 883.257 496.748 876.365C498.981 869.473 506.261 863.697 506.261 856.368C506.261 849.039 498.884 842.996 496.748 836.395Z" fill="#FFDA78"/>
<path d="M401.89 189.028V199.549C401.494 200.056 400.869 200.606 400.016 201.2C399.174 201.794 398.074 202.307 396.713 202.74C395.352 203.161 393.682 203.371 391.703 203.371C389.984 203.371 388.413 203.087 386.99 202.518C385.568 201.936 384.343 201.089 383.316 199.976C382.29 198.862 381.498 197.502 380.941 195.894C380.385 194.285 380.106 192.449 380.106 190.383V188.602C380.106 186.536 380.366 184.699 380.886 183.091C381.418 181.483 382.172 180.122 383.149 179.009C384.139 177.896 385.32 177.048 386.693 176.467C388.079 175.885 389.625 175.595 391.332 175.595C393.62 175.595 395.501 175.972 396.973 176.727C398.457 177.481 399.595 178.52 400.387 179.844C401.178 181.155 401.673 182.664 401.871 184.371H396.898C396.762 183.431 396.49 182.608 396.082 181.903C395.674 181.186 395.092 180.629 394.338 180.233C393.596 179.825 392.631 179.621 391.443 179.621C390.441 179.621 389.557 179.819 388.79 180.215C388.023 180.611 387.38 181.186 386.86 181.94C386.341 182.695 385.945 183.629 385.673 184.742C385.413 185.855 385.283 187.13 385.283 188.564V190.383C385.283 191.83 385.432 193.117 385.729 194.242C386.025 195.355 386.452 196.296 387.009 197.062C387.578 197.817 388.277 198.392 389.105 198.788C389.947 199.172 390.899 199.363 391.963 199.363C392.928 199.363 393.726 199.283 394.356 199.122C395 198.949 395.513 198.745 395.896 198.51C396.28 198.275 396.577 198.046 396.787 197.823V192.758H391.425V189.028H401.89ZM415.36 203.371C413.839 203.371 412.472 203.124 411.26 202.629C410.048 202.134 409.015 201.448 408.161 200.569C407.32 199.679 406.671 198.646 406.213 197.471C405.768 196.283 405.545 195.009 405.545 193.648V192.906C405.545 191.36 405.768 189.956 406.213 188.694C406.658 187.42 407.289 186.326 408.105 185.41C408.922 184.495 409.899 183.79 411.037 183.295C412.175 182.8 413.431 182.553 414.804 182.553C416.226 182.553 417.482 182.794 418.57 183.276C419.659 183.746 420.568 184.414 421.298 185.28C422.028 186.146 422.578 187.185 422.949 188.397C423.32 189.597 423.506 190.927 423.506 192.387V194.446H407.771V191.069H418.682V190.698C418.657 189.919 418.508 189.208 418.236 188.564C417.964 187.909 417.544 187.389 416.975 187.006C416.406 186.61 415.67 186.412 414.767 186.412C414.037 186.412 413.4 186.573 412.855 186.895C412.324 187.204 411.878 187.649 411.52 188.23C411.173 188.799 410.913 189.48 410.74 190.271C410.567 191.063 410.48 191.941 410.48 192.906V193.648C410.48 194.49 410.592 195.269 410.814 195.986C411.049 196.704 411.39 197.328 411.835 197.86C412.293 198.38 412.837 198.788 413.468 199.085C414.111 199.369 414.841 199.512 415.657 199.512C416.684 199.512 417.612 199.314 418.44 198.918C419.282 198.51 420.011 197.91 420.63 197.118L423.098 199.679C422.677 200.297 422.108 200.891 421.391 201.46C420.686 202.029 419.832 202.493 418.83 202.852C417.828 203.198 416.672 203.371 415.36 203.371ZM436.29 182.924V186.449H424.786V182.924H436.29ZM427.866 177.988H432.783V197.211C432.783 197.805 432.864 198.262 433.024 198.584C433.185 198.906 433.426 199.122 433.748 199.233C434.07 199.345 434.453 199.4 434.898 199.4C435.22 199.4 435.517 199.382 435.789 199.345C436.061 199.308 436.29 199.271 436.476 199.233L436.494 202.907C436.086 203.043 435.622 203.155 435.103 203.241C434.595 203.328 434.02 203.371 433.377 203.371C432.276 203.371 431.311 203.186 430.482 202.814C429.654 202.431 429.01 201.819 428.553 200.978C428.095 200.124 427.866 198.998 427.866 197.601V177.988ZM471.266 188.806V190.197C471.266 192.238 470.993 194.075 470.449 195.708C469.905 197.328 469.132 198.708 468.13 199.846C467.128 200.984 465.934 201.856 464.549 202.462C463.163 203.068 461.623 203.371 459.929 203.371C458.259 203.371 456.725 203.068 455.327 202.462C453.942 201.856 452.742 200.984 451.728 199.846C450.713 198.708 449.928 197.328 449.371 195.708C448.814 194.075 448.536 192.238 448.536 190.197V188.806C448.536 186.752 448.814 184.915 449.371 183.295C449.928 181.674 450.707 180.295 451.709 179.157C452.711 178.007 453.905 177.129 455.29 176.522C456.688 175.916 458.222 175.613 459.892 175.613C461.586 175.613 463.126 175.916 464.512 176.522C465.897 177.129 467.091 178.007 468.093 179.157C469.107 180.295 469.886 181.674 470.431 183.295C470.987 184.915 471.266 186.752 471.266 188.806ZM466.107 190.197V188.769C466.107 187.297 465.971 186.004 465.699 184.891C465.427 183.765 465.025 182.819 464.493 182.052C463.961 181.285 463.306 180.71 462.526 180.326C461.747 179.93 460.869 179.732 459.892 179.732C458.902 179.732 458.024 179.93 457.257 180.326C456.502 180.71 455.859 181.285 455.327 182.052C454.795 182.819 454.387 183.765 454.103 184.891C453.83 186.004 453.694 187.297 453.694 188.769V190.197C453.694 191.657 453.83 192.95 454.103 194.075C454.387 195.201 454.795 196.153 455.327 196.933C455.871 197.7 456.527 198.281 457.294 198.677C458.061 199.073 458.939 199.271 459.929 199.271C460.918 199.271 461.797 199.073 462.563 198.677C463.33 198.281 463.974 197.7 464.493 196.933C465.025 196.153 465.427 195.201 465.699 194.075C465.971 192.95 466.107 191.657 466.107 190.197ZM480.023 187.21V203H475.125V182.924H479.727L480.023 187.21ZM479.244 192.238H477.797C477.809 190.779 478.007 189.455 478.391 188.268C478.774 187.08 479.312 186.06 480.005 185.206C480.71 184.353 481.545 183.697 482.51 183.239C483.475 182.782 484.551 182.553 485.738 182.553C486.703 182.553 487.575 182.689 488.354 182.961C489.134 183.233 489.802 183.666 490.358 184.26C490.927 184.854 491.36 185.633 491.657 186.598C491.966 187.55 492.121 188.725 492.121 190.123V203H487.186V190.086C487.186 189.171 487.049 188.447 486.777 187.915C486.518 187.383 486.134 187.006 485.627 186.783C485.132 186.561 484.52 186.449 483.79 186.449C483.035 186.449 482.374 186.604 481.805 186.913C481.248 187.21 480.778 187.624 480.395 188.156C480.023 188.688 479.739 189.3 479.541 189.993C479.343 190.686 479.244 191.434 479.244 192.238ZM501.64 174.5V203H496.723V174.5H501.64ZM511.511 182.924V203H506.594V182.924H511.511ZM506.26 177.673C506.26 176.943 506.507 176.337 507.002 175.854C507.509 175.372 508.189 175.131 509.043 175.131C509.896 175.131 510.571 175.372 511.065 175.854C511.573 176.337 511.826 176.943 511.826 177.673C511.826 178.39 511.573 178.99 511.065 179.473C510.571 179.955 509.896 180.196 509.043 180.196C508.189 180.196 507.509 179.955 507.002 179.473C506.507 178.99 506.26 178.39 506.26 177.673ZM520.992 187.21V203H516.094V182.924H520.695L520.992 187.21ZM520.213 192.238H518.766C518.778 190.779 518.976 189.455 519.359 188.268C519.743 187.08 520.281 186.06 520.974 185.206C521.679 184.353 522.514 183.697 523.479 183.239C524.443 182.782 525.52 182.553 526.707 182.553C527.672 182.553 528.544 182.689 529.323 182.961C530.103 183.233 530.771 183.666 531.327 184.26C531.896 184.854 532.329 185.633 532.626 186.598C532.935 187.55 533.09 188.725 533.09 190.123V203H528.154V190.086C528.154 189.171 528.018 188.447 527.746 187.915C527.486 187.383 527.103 187.006 526.596 186.783C526.101 186.561 525.489 186.449 524.759 186.449C524.004 186.449 523.342 186.604 522.773 186.913C522.217 187.21 521.747 187.624 521.363 188.156C520.992 188.688 520.708 189.3 520.51 189.993C520.312 190.686 520.213 191.434 520.213 192.238ZM546.431 203.371C544.909 203.371 543.542 203.124 542.33 202.629C541.118 202.134 540.085 201.448 539.231 200.569C538.39 199.679 537.741 198.646 537.283 197.471C536.838 196.283 536.615 195.009 536.615 193.648V192.906C536.615 191.36 536.838 189.956 537.283 188.694C537.729 187.42 538.359 186.326 539.176 185.41C539.992 184.495 540.969 183.79 542.107 183.295C543.245 182.8 544.501 182.553 545.874 182.553C547.297 182.553 548.552 182.794 549.641 183.276C550.729 183.746 551.638 184.414 552.368 185.28C553.098 186.146 553.648 187.185 554.02 188.397C554.391 189.597 554.576 190.927 554.576 192.387V194.446H538.842V191.069H549.752V190.698C549.727 189.919 549.579 189.208 549.307 188.564C549.035 187.909 548.614 187.389 548.045 187.006C547.476 186.61 546.74 186.412 545.837 186.412C545.107 186.412 544.47 186.573 543.926 186.895C543.394 187.204 542.949 187.649 542.59 188.23C542.243 188.799 541.984 189.48 541.811 190.271C541.637 191.063 541.551 191.941 541.551 192.906V193.648C541.551 194.49 541.662 195.269 541.885 195.986C542.12 196.704 542.46 197.328 542.905 197.86C543.363 198.38 543.907 198.788 544.538 199.085C545.181 199.369 545.911 199.512 546.728 199.512C547.754 199.512 548.682 199.314 549.511 198.918C550.352 198.51 551.082 197.91 551.7 197.118L554.168 199.679C553.747 200.297 553.178 200.891 552.461 201.46C551.756 202.029 550.902 202.493 549.9 202.852C548.898 203.198 547.742 203.371 546.431 203.371ZM499.933 220.984H509.748C511.801 220.984 513.564 221.294 515.036 221.912C516.508 222.531 517.64 223.446 518.432 224.658C519.223 225.87 519.619 227.361 519.619 229.13C519.619 230.528 519.372 231.74 518.877 232.767C518.382 233.793 517.683 234.653 516.78 235.346C515.89 236.038 514.838 236.583 513.626 236.979L512.03 237.795H503.365L503.328 233.769H509.804C510.855 233.769 511.727 233.583 512.42 233.212C513.113 232.841 513.632 232.327 513.979 231.672C514.337 231.016 514.517 230.268 514.517 229.427C514.517 228.524 514.343 227.744 513.997 227.089C513.651 226.421 513.125 225.908 512.42 225.549C511.715 225.19 510.824 225.011 509.748 225.011H505.035V248H499.933V220.984ZM515.185 248L508.932 235.902L514.331 235.884L520.658 247.74V248H515.185ZM532.737 248.371C531.216 248.371 529.849 248.124 528.637 247.629C527.424 247.134 526.392 246.448 525.538 245.569C524.697 244.679 524.048 243.646 523.59 242.471C523.145 241.283 522.922 240.009 522.922 238.648V237.906C522.922 236.36 523.145 234.956 523.59 233.694C524.035 232.42 524.666 231.326 525.482 230.41C526.299 229.495 527.276 228.79 528.414 228.295C529.552 227.8 530.808 227.553 532.181 227.553C533.603 227.553 534.859 227.794 535.947 228.276C537.036 228.746 537.945 229.414 538.675 230.28C539.405 231.146 539.955 232.185 540.326 233.397C540.697 234.597 540.883 235.927 540.883 237.387V239.446H525.148V236.069H536.059V235.698C536.034 234.919 535.885 234.208 535.613 233.564C535.341 232.909 534.921 232.389 534.352 232.006C533.783 231.61 533.047 231.412 532.144 231.412C531.414 231.412 530.777 231.573 530.232 231.895C529.701 232.204 529.255 232.649 528.896 233.23C528.55 233.799 528.29 234.48 528.117 235.271C527.944 236.063 527.857 236.941 527.857 237.906V238.648C527.857 239.49 527.969 240.269 528.191 240.986C528.426 241.704 528.767 242.328 529.212 242.86C529.67 243.38 530.214 243.788 530.845 244.085C531.488 244.369 532.218 244.512 533.034 244.512C534.061 244.512 534.989 244.314 535.817 243.918C536.659 243.51 537.388 242.91 538.007 242.118L540.475 244.679C540.054 245.297 539.485 245.891 538.768 246.46C538.062 247.029 537.209 247.493 536.207 247.852C535.205 248.198 534.049 248.371 532.737 248.371ZM556.933 227.924H561.386V247.388C561.386 249.206 560.99 250.746 560.198 252.008C559.419 253.282 558.324 254.247 556.914 254.902C555.504 255.57 553.865 255.904 551.997 255.904C551.193 255.904 550.321 255.793 549.381 255.57C548.453 255.348 547.556 254.995 546.69 254.513C545.837 254.043 545.126 253.43 544.557 252.676L546.765 249.781C547.433 250.561 548.187 251.148 549.028 251.544C549.869 251.952 550.779 252.156 551.756 252.156C552.745 252.156 553.587 251.971 554.279 251.6C554.984 251.241 555.522 250.709 555.894 250.004C556.277 249.311 556.469 248.458 556.469 247.443V232.507L556.933 227.924ZM543.369 238.203V237.813C543.369 236.28 543.555 234.888 543.926 233.639C544.297 232.377 544.829 231.295 545.521 230.392C546.227 229.489 547.074 228.79 548.063 228.295C549.065 227.8 550.191 227.553 551.44 227.553C552.764 227.553 553.877 227.794 554.78 228.276C555.696 228.759 556.45 229.445 557.044 230.336C557.65 231.227 558.12 232.284 558.454 233.509C558.8 234.721 559.066 236.057 559.252 237.517V238.574C559.079 239.997 558.8 241.302 558.417 242.489C558.046 243.677 557.551 244.716 556.933 245.606C556.314 246.485 555.547 247.165 554.632 247.647C553.716 248.13 552.64 248.371 551.403 248.371C550.166 248.371 549.053 248.118 548.063 247.61C547.074 247.103 546.227 246.392 545.521 245.477C544.829 244.561 544.297 243.485 543.926 242.248C543.555 241.011 543.369 239.663 543.369 238.203ZM548.268 237.813V238.203C548.268 239.069 548.354 239.879 548.527 240.634C548.701 241.388 548.966 242.056 549.325 242.638C549.684 243.207 550.135 243.652 550.68 243.974C551.224 244.295 551.873 244.456 552.628 244.456C553.642 244.456 554.471 244.246 555.114 243.825C555.77 243.392 556.265 242.805 556.599 242.062C556.945 241.308 557.168 240.461 557.267 239.521V236.607C557.205 235.865 557.069 235.179 556.858 234.548C556.66 233.917 556.382 233.373 556.023 232.915C555.665 232.457 555.207 232.099 554.65 231.839C554.094 231.579 553.432 231.449 552.665 231.449C551.923 231.449 551.273 231.616 550.717 231.95C550.16 232.272 549.702 232.723 549.344 233.305C548.985 233.886 548.713 234.56 548.527 235.327C548.354 236.094 548.268 236.923 548.268 237.813ZM570.997 227.924V248H566.08V227.924H570.997ZM565.746 222.673C565.746 221.943 565.993 221.337 566.488 220.854C566.995 220.372 567.676 220.131 568.529 220.131C569.383 220.131 570.057 220.372 570.552 220.854C571.059 221.337 571.312 221.943 571.312 222.673C571.312 223.39 571.059 223.99 570.552 224.473C570.057 224.955 569.383 225.196 568.529 225.196C567.676 225.196 566.995 224.955 566.488 224.473C565.993 223.99 565.746 223.39 565.746 222.673ZM586.713 242.508C586.713 242.087 586.602 241.71 586.379 241.376C586.156 241.042 585.736 240.739 585.117 240.467C584.511 240.182 583.62 239.916 582.445 239.669C581.406 239.446 580.448 239.168 579.569 238.834C578.691 238.5 577.937 238.098 577.306 237.628C576.675 237.146 576.18 236.583 575.821 235.939C575.475 235.284 575.302 234.529 575.302 233.676C575.302 232.847 575.481 232.068 575.84 231.338C576.199 230.596 576.718 229.946 577.398 229.39C578.079 228.821 578.908 228.375 579.885 228.054C580.862 227.72 581.963 227.553 583.188 227.553C584.895 227.553 586.36 227.831 587.585 228.388C588.822 228.944 589.768 229.711 590.424 230.688C591.079 231.653 591.407 232.742 591.407 233.954H586.509C586.509 233.422 586.385 232.94 586.138 232.507C585.903 232.074 585.538 231.728 585.043 231.468C584.548 231.196 583.924 231.06 583.169 231.06C582.489 231.06 581.913 231.171 581.443 231.394C580.986 231.616 580.639 231.907 580.404 232.266C580.169 232.624 580.052 233.02 580.052 233.453C580.052 233.775 580.114 234.065 580.237 234.325C580.373 234.573 580.59 234.801 580.887 235.012C581.184 235.222 581.586 235.414 582.093 235.587C582.612 235.76 583.249 235.927 584.004 236.088C585.501 236.385 586.806 236.781 587.919 237.275C589.045 237.758 589.923 238.401 590.554 239.205C591.185 240.009 591.5 241.036 591.5 242.285C591.5 243.176 591.308 243.992 590.925 244.734C590.541 245.464 589.985 246.101 589.255 246.646C588.525 247.19 587.653 247.617 586.639 247.926C585.624 248.223 584.48 248.371 583.206 248.371C581.363 248.371 579.804 248.043 578.53 247.388C577.256 246.72 576.291 245.879 575.636 244.864C574.98 243.838 574.652 242.774 574.652 241.673H579.347C579.384 242.452 579.594 243.077 579.978 243.547C580.361 244.017 580.843 244.357 581.425 244.567C582.019 244.765 582.643 244.864 583.299 244.864C584.041 244.864 584.666 244.765 585.173 244.567C585.68 244.357 586.063 244.079 586.323 243.732C586.583 243.374 586.713 242.965 586.713 242.508ZM604.729 227.924V231.449H593.226V227.924H604.729ZM596.306 222.988H601.223V242.211C601.223 242.805 601.303 243.262 601.464 243.584C601.625 243.906 601.866 244.122 602.188 244.233C602.509 244.345 602.893 244.4 603.338 244.4C603.66 244.4 603.956 244.382 604.229 244.345C604.501 244.308 604.729 244.271 604.915 244.233L604.934 247.907C604.525 248.043 604.062 248.155 603.542 248.241C603.035 248.328 602.46 248.371 601.816 248.371C600.715 248.371 599.751 248.186 598.922 247.814C598.093 247.431 597.45 246.819 596.992 245.978C596.535 245.124 596.306 243.998 596.306 242.601V222.988ZM612.894 232.024V248H607.995V227.924H612.634L612.894 232.024ZM618.998 227.794L618.924 232.358C618.652 232.309 618.342 232.272 617.996 232.247C617.662 232.222 617.347 232.21 617.05 232.21C616.295 232.21 615.633 232.315 615.064 232.525C614.495 232.723 614.019 233.014 613.636 233.397C613.265 233.781 612.98 234.251 612.782 234.808C612.584 235.352 612.473 235.97 612.448 236.663L611.391 236.533C611.391 235.259 611.521 234.078 611.78 232.989C612.04 231.901 612.417 230.948 612.912 230.132C613.407 229.315 614.025 228.685 614.768 228.239C615.522 227.782 616.388 227.553 617.365 227.553C617.637 227.553 617.928 227.577 618.237 227.627C618.559 227.664 618.812 227.72 618.998 227.794ZM632.116 243.732V234.474C632.116 233.793 631.999 233.206 631.764 232.711C631.529 232.216 631.17 231.833 630.688 231.561C630.205 231.288 629.593 231.152 628.851 231.152C628.195 231.152 627.62 231.264 627.125 231.486C626.643 231.709 626.271 232.024 626.012 232.433C625.752 232.828 625.622 233.286 625.622 233.806H620.705C620.705 232.977 620.903 232.191 621.299 231.449C621.695 230.695 622.257 230.027 622.987 229.445C623.729 228.852 624.614 228.388 625.641 228.054C626.68 227.72 627.842 227.553 629.129 227.553C630.65 227.553 632.005 227.812 633.192 228.332C634.392 228.839 635.332 229.606 636.013 230.633C636.705 231.66 637.052 232.952 637.052 234.511V243.269C637.052 244.271 637.114 245.13 637.237 245.848C637.373 246.553 637.571 247.165 637.831 247.685V248H632.84C632.605 247.493 632.425 246.85 632.302 246.07C632.178 245.279 632.116 244.499 632.116 243.732ZM632.803 235.772L632.84 238.686H629.741C628.974 238.686 628.3 238.766 627.719 238.927C627.137 239.075 626.661 239.298 626.29 239.595C625.919 239.879 625.641 240.226 625.455 240.634C625.27 241.03 625.177 241.481 625.177 241.988C625.177 242.483 625.288 242.928 625.511 243.324C625.746 243.72 626.08 244.035 626.513 244.271C626.958 244.493 627.478 244.604 628.071 244.604C628.937 244.604 629.692 244.431 630.335 244.085C630.978 243.726 631.479 243.293 631.838 242.786C632.197 242.279 632.388 241.797 632.413 241.339L633.823 243.454C633.65 243.961 633.39 244.499 633.044 245.068C632.698 245.637 632.252 246.169 631.708 246.664C631.164 247.159 630.508 247.567 629.741 247.889C628.974 248.21 628.084 248.371 627.069 248.371C625.771 248.371 624.608 248.111 623.581 247.592C622.554 247.072 621.744 246.361 621.15 245.458C620.557 244.555 620.26 243.528 620.26 242.378C620.26 241.314 620.458 240.374 620.854 239.558C621.249 238.741 621.837 238.055 622.616 237.498C623.396 236.929 624.36 236.502 625.511 236.218C626.674 235.921 628.003 235.772 629.5 235.772H632.803ZM650.968 227.924V231.449H639.464V227.924H650.968ZM642.544 222.988H647.461V242.211C647.461 242.805 647.541 243.262 647.702 243.584C647.863 243.906 648.104 244.122 648.426 244.233C648.747 244.345 649.131 244.4 649.576 244.4C649.898 244.4 650.195 244.382 650.467 244.345C650.739 244.308 650.968 244.271 651.153 244.233L651.172 247.907C650.764 248.043 650.3 248.155 649.78 248.241C649.273 248.328 648.698 248.371 648.055 248.371C646.954 248.371 645.989 248.186 645.16 247.814C644.331 247.431 643.688 246.819 643.23 245.978C642.773 245.124 642.544 243.998 642.544 242.601V222.988ZM659.429 227.924V248H654.512V227.924H659.429ZM654.178 222.673C654.178 221.943 654.425 221.337 654.92 220.854C655.427 220.372 656.107 220.131 656.961 220.131C657.814 220.131 658.489 220.372 658.983 220.854C659.491 221.337 659.744 221.943 659.744 222.673C659.744 223.39 659.491 223.99 658.983 224.473C658.489 224.955 657.814 225.196 656.961 225.196C656.107 225.196 655.427 224.955 654.92 224.473C654.425 223.99 654.178 223.39 654.178 222.673ZM663.232 238.166V237.776C663.232 236.304 663.443 234.95 663.863 233.713C664.284 232.464 664.896 231.381 665.7 230.466C666.504 229.55 667.488 228.839 668.65 228.332C669.813 227.812 671.137 227.553 672.621 227.553C674.13 227.553 675.466 227.812 676.629 228.332C677.804 228.839 678.794 229.55 679.598 230.466C680.402 231.381 681.014 232.464 681.435 233.713C681.855 234.95 682.065 236.304 682.065 237.776V238.166C682.065 239.626 681.855 240.98 681.435 242.229C681.014 243.466 680.402 244.549 679.598 245.477C678.794 246.392 677.81 247.103 676.647 247.61C675.485 248.118 674.155 248.371 672.658 248.371C671.174 248.371 669.844 248.118 668.669 247.61C667.494 247.103 666.504 246.392 665.7 245.477C664.896 244.549 664.284 243.466 663.863 242.229C663.443 240.98 663.232 239.626 663.232 238.166ZM668.131 237.776V238.166C668.131 239.044 668.217 239.867 668.391 240.634C668.564 241.401 668.83 242.075 669.188 242.656C669.547 243.238 670.011 243.695 670.58 244.029C671.161 244.351 671.854 244.512 672.658 244.512C673.45 244.512 674.13 244.351 674.699 244.029C675.268 243.695 675.732 243.238 676.091 242.656C676.462 242.075 676.734 241.401 676.907 240.634C677.08 239.867 677.167 239.044 677.167 238.166V237.776C677.167 236.91 677.08 236.1 676.907 235.346C676.734 234.579 676.462 233.905 676.091 233.323C675.732 232.729 675.262 232.266 674.681 231.932C674.112 231.585 673.425 231.412 672.621 231.412C671.829 231.412 671.149 231.585 670.58 231.932C670.011 232.266 669.547 232.729 669.188 233.323C668.83 233.905 668.564 234.579 668.391 235.346C668.217 236.1 668.131 236.91 668.131 237.776ZM690.434 232.21V248H685.535V227.924H690.137L690.434 232.21ZM689.654 237.238H688.207C688.219 235.779 688.417 234.455 688.801 233.268C689.184 232.08 689.722 231.06 690.415 230.206C691.12 229.353 691.955 228.697 692.92 228.239C693.885 227.782 694.961 227.553 696.148 227.553C697.113 227.553 697.985 227.689 698.765 227.961C699.544 228.233 700.212 228.666 700.769 229.26C701.338 229.854 701.771 230.633 702.067 231.598C702.377 232.55 702.531 233.725 702.531 235.123V248H697.596V235.086C697.596 234.171 697.46 233.447 697.188 232.915C696.928 232.383 696.544 232.006 696.037 231.783C695.542 231.561 694.93 231.449 694.2 231.449C693.446 231.449 692.784 231.604 692.215 231.913C691.658 232.21 691.188 232.624 690.805 233.156C690.434 233.688 690.149 234.3 689.951 234.993C689.753 235.686 689.654 236.434 689.654 237.238Z" fill="#1C4670"/>
<path d="M569.921 175.984H574.337L581.722 196.32L589.088 175.984H593.522L583.484 203H579.94L569.921 175.984ZM567.694 175.984H572.018L572.797 194.669V203H567.694V175.984ZM591.407 175.984H595.749V203H590.646V194.669L591.407 175.984ZM609.591 203.371C608.069 203.371 606.702 203.124 605.49 202.629C604.278 202.134 603.245 201.448 602.392 200.569C601.55 199.679 600.901 198.646 600.443 197.471C599.998 196.283 599.775 195.009 599.775 193.648V192.906C599.775 191.36 599.998 189.956 600.443 188.694C600.889 187.42 601.52 186.326 602.336 185.41C603.152 184.495 604.13 183.79 605.268 183.295C606.406 182.8 607.661 182.553 609.034 182.553C610.457 182.553 611.712 182.794 612.801 183.276C613.889 183.746 614.799 184.414 615.528 185.28C616.258 186.146 616.809 187.185 617.18 188.397C617.551 189.597 617.736 190.927 617.736 192.387V194.446H602.002V191.069H612.912V190.698C612.887 189.919 612.739 189.208 612.467 188.564C612.195 187.909 611.774 187.389 611.205 187.006C610.636 186.61 609.9 186.412 608.997 186.412C608.267 186.412 607.63 186.573 607.086 186.895C606.554 187.204 606.109 187.649 605.75 188.23C605.404 188.799 605.144 189.48 604.971 190.271C604.798 191.063 604.711 191.941 604.711 192.906V193.648C604.711 194.49 604.822 195.269 605.045 195.986C605.28 196.704 605.62 197.328 606.065 197.86C606.523 198.38 607.067 198.788 607.698 199.085C608.341 199.369 609.071 199.512 609.888 199.512C610.914 199.512 611.842 199.314 612.671 198.918C613.512 198.51 614.242 197.91 614.86 197.118L617.328 199.679C616.908 200.297 616.339 200.891 615.621 201.46C614.916 202.029 614.062 202.493 613.061 202.852C612.059 203.198 610.902 203.371 609.591 203.371ZM633.062 198.732V174.5H637.998V203H633.545L633.062 198.732ZM620.167 193.203V192.813C620.167 191.28 620.34 189.888 620.687 188.639C621.045 187.377 621.565 186.295 622.245 185.392C622.925 184.489 623.748 183.79 624.713 183.295C625.69 182.8 626.797 182.553 628.034 182.553C629.234 182.553 630.279 182.794 631.17 183.276C632.073 183.759 632.84 184.445 633.471 185.336C634.114 186.227 634.627 187.284 635.011 188.509C635.394 189.721 635.673 191.057 635.846 192.517V193.574C635.673 194.997 635.394 196.302 635.011 197.489C634.627 198.677 634.114 199.716 633.471 200.606C632.84 201.485 632.073 202.165 631.17 202.647C630.267 203.13 629.209 203.371 627.997 203.371C626.772 203.371 625.672 203.118 624.694 202.61C623.729 202.103 622.907 201.392 622.227 200.477C621.559 199.561 621.045 198.485 620.687 197.248C620.34 196.011 620.167 194.663 620.167 193.203ZM625.084 192.813V193.203C625.084 194.069 625.158 194.879 625.307 195.634C625.455 196.388 625.696 197.056 626.03 197.638C626.364 198.207 626.791 198.652 627.311 198.974C627.842 199.295 628.486 199.456 629.24 199.456C630.205 199.456 630.997 199.246 631.615 198.825C632.246 198.392 632.735 197.805 633.081 197.062C633.427 196.308 633.65 195.461 633.749 194.521V191.607C633.7 190.865 633.57 190.179 633.359 189.548C633.161 188.917 632.877 188.373 632.506 187.915C632.147 187.457 631.702 187.099 631.17 186.839C630.638 186.579 630.007 186.449 629.277 186.449C628.523 186.449 627.88 186.616 627.348 186.95C626.816 187.272 626.383 187.723 626.049 188.305C625.715 188.886 625.467 189.56 625.307 190.327C625.158 191.094 625.084 191.923 625.084 192.813ZM647.628 182.924V203H642.711V182.924H647.628ZM642.377 177.673C642.377 176.943 642.624 176.337 643.119 175.854C643.626 175.372 644.307 175.131 645.16 175.131C646.014 175.131 646.688 175.372 647.183 175.854C647.69 176.337 647.943 176.943 647.943 177.673C647.943 178.39 647.69 178.99 647.183 179.473C646.688 179.955 646.014 180.196 645.16 180.196C644.307 180.196 643.626 179.955 643.119 179.473C642.624 178.99 642.377 178.39 642.377 177.673ZM660.542 199.512C661.235 199.512 661.853 199.376 662.397 199.104C662.942 198.831 663.375 198.448 663.696 197.953C664.03 197.458 664.21 196.883 664.234 196.228H668.854C668.83 197.588 668.446 198.807 667.704 199.883C666.962 200.959 665.972 201.812 664.735 202.443C663.511 203.062 662.138 203.371 660.616 203.371C659.07 203.371 657.722 203.111 656.571 202.592C655.421 202.072 654.462 201.349 653.695 200.421C652.941 199.493 652.372 198.417 651.988 197.192C651.617 195.968 651.432 194.657 651.432 193.259V192.665C651.432 191.267 651.617 189.956 651.988 188.731C652.372 187.507 652.941 186.431 653.695 185.503C654.462 184.575 655.421 183.852 656.571 183.332C657.722 182.812 659.064 182.553 660.598 182.553C662.218 182.553 663.641 182.868 664.865 183.499C666.102 184.13 667.067 185.021 667.76 186.171C668.465 187.321 668.83 188.676 668.854 190.234H664.234C664.21 189.517 664.049 188.874 663.752 188.305C663.455 187.736 663.035 187.278 662.49 186.932C661.946 186.585 661.284 186.412 660.505 186.412C659.676 186.412 658.983 186.585 658.427 186.932C657.882 187.278 657.456 187.754 657.146 188.36C656.85 188.954 656.639 189.622 656.516 190.364C656.404 191.094 656.349 191.861 656.349 192.665V193.259C656.349 194.075 656.404 194.854 656.516 195.597C656.639 196.339 656.85 197.007 657.146 197.601C657.456 198.182 657.882 198.646 658.427 198.992C658.983 199.339 659.688 199.512 660.542 199.512ZM683.179 198.732V189.474C683.179 188.793 683.061 188.206 682.826 187.711C682.591 187.216 682.232 186.833 681.75 186.561C681.268 186.288 680.655 186.152 679.913 186.152C679.257 186.152 678.682 186.264 678.188 186.486C677.705 186.709 677.334 187.024 677.074 187.433C676.814 187.828 676.685 188.286 676.685 188.806H671.768C671.768 187.977 671.965 187.191 672.361 186.449C672.757 185.695 673.32 185.027 674.05 184.445C674.792 183.852 675.676 183.388 676.703 183.054C677.742 182.72 678.905 182.553 680.191 182.553C681.713 182.553 683.067 182.812 684.255 183.332C685.455 183.839 686.395 184.606 687.075 185.633C687.768 186.66 688.114 187.952 688.114 189.511V198.269C688.114 199.271 688.176 200.13 688.3 200.848C688.436 201.553 688.634 202.165 688.894 202.685V203H683.902C683.667 202.493 683.488 201.85 683.364 201.07C683.241 200.279 683.179 199.499 683.179 198.732ZM683.865 190.772L683.902 193.686H680.804C680.037 193.686 679.363 193.766 678.781 193.927C678.2 194.075 677.724 194.298 677.353 194.595C676.981 194.879 676.703 195.226 676.518 195.634C676.332 196.03 676.239 196.481 676.239 196.988C676.239 197.483 676.351 197.928 676.573 198.324C676.808 198.72 677.142 199.035 677.575 199.271C678.021 199.493 678.54 199.604 679.134 199.604C680 199.604 680.754 199.431 681.397 199.085C682.041 198.726 682.542 198.293 682.9 197.786C683.259 197.279 683.451 196.797 683.476 196.339L684.886 198.454C684.713 198.961 684.453 199.499 684.106 200.068C683.76 200.637 683.315 201.169 682.771 201.664C682.226 202.159 681.571 202.567 680.804 202.889C680.037 203.21 679.146 203.371 678.132 203.371C676.833 203.371 675.67 203.111 674.644 202.592C673.617 202.072 672.807 201.361 672.213 200.458C671.619 199.555 671.322 198.528 671.322 197.378C671.322 196.314 671.52 195.374 671.916 194.558C672.312 193.741 672.899 193.055 673.679 192.498C674.458 191.929 675.423 191.502 676.573 191.218C677.736 190.921 679.066 190.772 680.562 190.772H683.865ZM697.726 174.5V203H692.809V174.5H697.726ZM720.307 203H714.48L714.518 198.992H720.307C721.878 198.992 723.195 198.646 724.259 197.953C725.323 197.248 726.127 196.24 726.671 194.929C727.215 193.605 727.487 192.022 727.487 190.179V188.787C727.487 187.365 727.333 186.109 727.023 185.021C726.714 183.932 726.257 183.017 725.65 182.274C725.057 181.532 724.321 180.969 723.442 180.586C722.564 180.202 721.556 180.011 720.418 180.011H714.369V175.984H720.418C722.224 175.984 723.869 176.287 725.354 176.894C726.85 177.5 728.143 178.372 729.231 179.51C730.332 180.635 731.174 181.984 731.755 183.555C732.349 185.126 732.646 186.882 732.646 188.824V190.179C732.646 192.108 732.349 193.865 731.755 195.448C731.174 197.019 730.332 198.368 729.231 199.493C728.143 200.619 726.844 201.485 725.335 202.091C723.826 202.697 722.15 203 720.307 203ZM717.338 175.984V203H712.235V175.984H717.338ZM745.634 203.371C744.112 203.371 742.745 203.124 741.533 202.629C740.321 202.134 739.288 201.448 738.435 200.569C737.593 199.679 736.944 198.646 736.486 197.471C736.041 196.283 735.818 195.009 735.818 193.648V192.906C735.818 191.36 736.041 189.956 736.486 188.694C736.932 187.42 737.562 186.326 738.379 185.41C739.195 184.495 740.173 183.79 741.311 183.295C742.449 182.8 743.704 182.553 745.077 182.553C746.5 182.553 747.755 182.794 748.844 183.276C749.932 183.746 750.841 184.414 751.571 185.28C752.301 186.146 752.852 187.185 753.223 188.397C753.594 189.597 753.779 190.927 753.779 192.387V194.446H738.045V191.069H748.955V190.698C748.93 189.919 748.782 189.208 748.51 188.564C748.238 187.909 747.817 187.389 747.248 187.006C746.679 186.61 745.943 186.412 745.04 186.412C744.31 186.412 743.673 186.573 743.129 186.895C742.597 187.204 742.152 187.649 741.793 188.23C741.447 188.799 741.187 189.48 741.014 190.271C740.84 191.063 740.754 191.941 740.754 192.906V193.648C740.754 194.49 740.865 195.269 741.088 195.986C741.323 196.704 741.663 197.328 742.108 197.86C742.566 198.38 743.11 198.788 743.741 199.085C744.384 199.369 745.114 199.512 745.931 199.512C746.957 199.512 747.885 199.314 748.714 198.918C749.555 198.51 750.285 197.91 750.903 197.118L753.371 199.679C752.951 200.297 752.382 200.891 751.664 201.46C750.959 202.029 750.105 202.493 749.104 202.852C748.102 203.198 746.945 203.371 745.634 203.371ZM763.465 199.289L768.141 182.924H773.262L766.378 203H763.261L763.465 199.289ZM760.051 182.924L764.782 199.326L764.949 203H761.813L754.911 182.924H760.051ZM781.036 182.924V203H776.119V182.924H781.036ZM775.785 177.673C775.785 176.943 776.033 176.337 776.527 175.854C777.035 175.372 777.715 175.131 778.568 175.131C779.422 175.131 780.096 175.372 780.591 175.854C781.098 176.337 781.352 176.943 781.352 177.673C781.352 178.39 781.098 178.99 780.591 179.473C780.096 179.955 779.422 180.196 778.568 180.196C777.715 180.196 777.035 179.955 776.527 179.473C776.033 178.99 775.785 178.39 775.785 177.673ZM793.95 199.512C794.643 199.512 795.261 199.376 795.806 199.104C796.35 198.831 796.783 198.448 797.104 197.953C797.438 197.458 797.618 196.883 797.643 196.228H802.263C802.238 197.588 801.854 198.807 801.112 199.883C800.37 200.959 799.381 201.812 798.144 202.443C796.919 203.062 795.546 203.371 794.024 203.371C792.478 203.371 791.13 203.111 789.979 202.592C788.829 202.072 787.87 201.349 787.104 200.421C786.349 199.493 785.78 198.417 785.396 197.192C785.025 195.968 784.84 194.657 784.84 193.259V192.665C784.84 191.267 785.025 189.956 785.396 188.731C785.78 187.507 786.349 186.431 787.104 185.503C787.87 184.575 788.829 183.852 789.979 183.332C791.13 182.812 792.472 182.553 794.006 182.553C795.626 182.553 797.049 182.868 798.273 183.499C799.51 184.13 800.475 185.021 801.168 186.171C801.873 187.321 802.238 188.676 802.263 190.234H797.643C797.618 189.517 797.457 188.874 797.16 188.305C796.863 187.736 796.443 187.278 795.898 186.932C795.354 186.585 794.692 186.412 793.913 186.412C793.084 186.412 792.392 186.585 791.835 186.932C791.291 187.278 790.864 187.754 790.555 188.36C790.258 188.954 790.048 189.622 789.924 190.364C789.812 191.094 789.757 191.861 789.757 192.665V193.259C789.757 194.075 789.812 194.854 789.924 195.597C790.048 196.339 790.258 197.007 790.555 197.601C790.864 198.182 791.291 198.646 791.835 198.992C792.392 199.339 793.097 199.512 793.95 199.512ZM814.546 203.371C813.024 203.371 811.658 203.124 810.445 202.629C809.233 202.134 808.2 201.448 807.347 200.569C806.506 199.679 805.856 198.646 805.398 197.471C804.953 196.283 804.73 195.009 804.73 193.648V192.906C804.73 191.36 804.953 189.956 805.398 188.694C805.844 187.42 806.475 186.326 807.291 185.41C808.107 184.495 809.085 183.79 810.223 183.295C811.361 182.8 812.616 182.553 813.989 182.553C815.412 182.553 816.667 182.794 817.756 183.276C818.844 183.746 819.754 184.414 820.483 185.28C821.213 186.146 821.764 187.185 822.135 188.397C822.506 189.597 822.691 190.927 822.691 192.387V194.446H806.957V191.069H817.867V190.698C817.842 189.919 817.694 189.208 817.422 188.564C817.15 187.909 816.729 187.389 816.16 187.006C815.591 186.61 814.855 186.412 813.952 186.412C813.222 186.412 812.585 186.573 812.041 186.895C811.509 187.204 811.064 187.649 810.705 188.23C810.359 188.799 810.099 189.48 809.926 190.271C809.753 191.063 809.666 191.941 809.666 192.906V193.648C809.666 194.49 809.777 195.269 810 195.986C810.235 196.704 810.575 197.328 811.021 197.86C811.478 198.38 812.022 198.788 812.653 199.085C813.297 199.369 814.026 199.512 814.843 199.512C815.869 199.512 816.797 199.314 817.626 198.918C818.467 198.51 819.197 197.91 819.815 197.118L822.283 199.679C821.863 200.297 821.294 200.891 820.576 201.46C819.871 202.029 819.018 202.493 818.016 202.852C817.014 203.198 815.857 203.371 814.546 203.371Z" fill="#FFA229"/>
<path d="M709.82 53.1618H671.961C668.236 37.9916 659.532 24.5088 647.239 14.8697C634.947 5.23062 619.777 -0.0078125 604.156 -0.0078125C588.536 -0.0078125 573.366 5.23062 561.074 14.8697C548.781 24.5088 540.076 37.9916 536.351 53.1618H498.469C497.774 53.1618 497.087 53.2997 496.446 53.5677C495.805 53.8357 495.224 54.2283 494.736 54.7228C494.249 55.2173 493.864 55.8038 493.605 56.4482C493.346 57.0926 493.217 57.7821 493.227 58.4765V92.8159C493.227 94.2061 493.779 95.5394 494.762 96.5225C495.745 97.5055 497.079 98.0578 498.469 98.0578H709.82C710.51 98.061 711.194 97.9277 711.833 97.6657C712.472 97.4037 713.053 97.0181 713.542 96.5311C714.031 96.044 714.42 95.465 714.685 94.8275C714.949 94.1899 715.086 93.5063 715.086 92.8159V58.4765C715.092 57.7809 714.961 57.0909 714.699 56.4463C714.437 55.8018 714.05 55.2155 713.561 54.7214C713.071 54.2272 712.488 53.835 711.846 53.5673C711.204 53.2996 710.515 53.1618 709.82 53.1618ZM591.149 40.6395C591.14 38.1827 591.85 35.7771 593.192 33.7188C594.533 31.6605 596.447 30.0394 598.698 29.0552C600.949 28.0709 603.439 27.7665 605.86 28.1794C608.282 28.5922 610.53 29.7043 612.328 31.3788C614.126 33.0532 615.395 35.2169 615.978 37.6033C616.562 39.9898 616.435 42.4948 615.613 44.81C614.791 47.1251 613.31 49.1493 611.352 50.6332C609.394 52.1172 607.044 52.9961 604.593 53.1618H602.895C599.712 52.9583 596.726 51.5504 594.544 49.2243C592.363 46.8983 591.148 43.8287 591.149 40.6395Z" fill="#FFA229"/>
<path d="M698.224 79.9219H589.406C587.262 79.9219 585.523 81.6603 585.523 83.8048V86.5471C585.523 88.6915 587.262 90.4299 589.406 90.4299H698.224C700.369 90.4299 702.107 88.6915 702.107 86.5471V83.8048C702.107 81.6603 700.369 79.9219 698.224 79.9219Z" fill="#FAD282"/>
<path d="M606.682 0.242388C605.833 0.242388 605.032 0.242388 604.255 0.242388C588.644 0.205012 573.47 5.39715 561.154 14.9904C548.838 24.5837 540.09 38.0254 536.305 53.1711H541.304C544.974 38.4452 553.34 25.3148 565.135 15.7654C576.931 6.21608 591.515 0.767078 606.682 0.242388Z" fill="#E0AB67"/>
<path d="M616.392 40.65C616.386 43.5449 615.376 46.348 613.535 48.5824C611.695 50.8167 609.137 52.3444 606.297 52.9054C606.848 53.0317 607.408 53.1209 607.971 53.1724H609.646C612.913 52.97 615.971 51.5015 618.172 49.0792C620.373 46.6569 621.543 43.4717 621.432 40.2007C621.322 36.9297 619.94 33.8308 617.58 31.5627C615.22 29.2946 612.069 28.0362 608.796 28.0549C607.981 28.0632 607.168 28.1526 606.37 28.3218C609.202 28.9128 611.745 30.461 613.57 32.7062C615.395 34.9514 616.392 37.7565 616.392 40.65Z" fill="#E0AB67"/>
<path d="M498.234 92.8078V58.4685C498.24 57.076 498.798 55.7428 499.785 54.7604C500.771 53.778 502.107 53.2265 503.5 53.2266H498.476C497.086 53.2266 495.753 53.7788 494.77 54.7619C493.787 55.7449 493.234 57.0782 493.234 58.4685V92.8078C493.234 94.198 493.787 95.5313 494.77 96.5144C495.753 97.4974 497.086 98.0497 498.476 98.0497H503.5C502.809 98.0529 502.125 97.9197 501.486 97.6577C500.848 97.3957 500.267 97.0101 499.777 96.523C499.288 96.0359 498.9 95.457 498.635 94.8194C498.37 94.1818 498.234 93.4982 498.234 92.8078Z" fill="#E0AB67"/>
<path d="M601.388 28.277C599.697 27.9376 597.954 27.9499 596.268 28.3131C594.582 28.6762 592.988 29.3825 591.587 30.388C590.185 31.3935 589.006 32.6767 588.121 34.1577C587.237 35.6386 586.667 37.2857 586.447 38.9965C586.226 40.7072 586.361 42.445 586.841 44.1017C587.321 45.7584 588.137 47.2986 589.238 48.6263C590.339 49.9541 591.701 51.0411 593.241 51.8196C594.78 52.5981 596.463 53.0516 598.185 53.1518H599.883C600.39 53.1065 600.893 53.0254 601.388 52.9091C598.508 52.3797 595.904 50.8577 594.03 48.6075C592.156 46.3574 591.129 43.5215 591.129 40.593C591.129 37.6645 592.156 34.8287 594.03 32.5786C595.904 30.3284 598.508 28.8063 601.388 28.277Z" fill="#FAD282"/>
<path d="M667.352 53.1549H672.084C668.342 37.991 659.629 24.5175 647.335 14.8845C635.04 5.25137 619.874 0.0138993 604.255 0.0078125C603.454 0.0078125 602.678 0.0078125 601.828 0.0078125C617.051 0.510264 631.692 5.97517 643.522 15.5699C655.351 25.1647 663.719 38.3633 667.352 53.1549Z" fill="#FAD282"/>
<path d="M709.817 53.1563H705.109C705.804 53.1562 706.492 53.2941 707.132 53.5621C707.773 53.8301 708.354 54.2227 708.842 54.7172C709.33 55.2117 709.714 55.7982 709.973 56.4426C710.232 57.087 710.361 57.7765 710.351 58.471V92.8103C710.355 93.4996 710.221 94.1826 709.959 94.8201C709.697 95.4575 709.311 96.0366 708.823 96.524C708.336 97.0114 707.757 97.3974 707.119 97.6597C706.482 97.922 705.799 98.0554 705.109 98.0522H709.817C710.508 98.0554 711.192 97.9222 711.831 97.6602C712.47 97.3982 713.05 97.0126 713.54 96.5255C714.029 96.0384 714.417 95.4595 714.682 94.8219C714.947 94.1843 715.084 93.5007 715.084 92.8103V58.471C715.09 57.7753 714.958 57.0853 714.697 56.4408C714.435 55.7962 714.048 55.21 713.558 54.7158C713.069 54.2216 712.486 53.8294 711.844 53.5617C711.202 53.294 710.513 53.1562 709.817 53.1563Z" fill="#FAD282"/>
<path d="M885.136 90.6406V987.419H858.781L885.136 90.6406Z" fill="#D9D9D9"/>
<g style="mix-blend-mode:multiply">
<path d="M855.772 1061.56C855.772 1072.7 811.24 1081.72 756.273 1081.72C701.305 1081.72 656.773 1072.7 656.773 1061.56C656.773 1050.42 701.305 1041.41 756.273 1041.41C811.24 1041.41 855.772 1050.44 855.772 1061.56Z" fill="#E2E2E2"/>
</g>
<path d="M821.743 528.641C834.047 540.314 844.142 550.288 848.68 555.141C849.529 556.034 850.155 557.115 850.505 558.297C850.855 559.478 850.92 560.725 850.695 561.936C847.297 580.38 815.409 628.771 804.318 646.05L786.117 634.838C786.117 634.838 814.414 573.779 812.958 567.057C812.958 567.057 806.43 562.81 796.65 555.36" fill="#FAC0AC"/>
<path d="M793.69 558.398C781.556 549.176 767.626 531.946 751.973 514.886C748.23 510.781 745.411 505.92 743.708 500.633C742.004 495.345 741.454 489.753 742.096 484.235C743.771 473.63 758.938 476.955 758.938 476.955C776.12 490.618 803.81 511.561 821.744 528.524" fill="#FFA229"/>
<path d="M693.518 643.435L693.445 866.629L715.384 1055L741.181 1053.27L739.676 865.003L797.531 631.398L693.518 643.435Z" fill="#1C4670"/>
<path d="M745.398 648.484L777.651 879.104L832.4 1055.24L846.621 1039.3L819.513 874.08L808.811 688.697L805.996 652.828L745.398 648.484Z" fill="#1C4670"/>
<path d="M714.915 1047.06C712.342 1047.06 689.894 1059 677.348 1065.77C676.771 1066.08 676.307 1066.56 676.024 1067.15C675.74 1067.74 675.651 1068.41 675.77 1069.05C675.889 1069.69 676.209 1070.28 676.685 1070.73C677.16 1071.18 677.767 1071.47 678.415 1071.55L709.551 1075.58L720.059 1073.51C721.285 1073.27 722.549 1073.29 723.769 1073.56C724.989 1073.83 726.139 1074.35 727.146 1075.09L730.665 1077.69C731.459 1078.27 732.424 1078.57 733.407 1078.54L737.799 1078.37C738.372 1078.35 738.935 1078.22 739.457 1077.98C739.978 1077.74 740.448 1077.4 740.838 1076.98C741.228 1076.57 741.532 1076.07 741.731 1075.54C741.93 1075 742.021 1074.43 741.998 1073.85L740.784 1043.88L714.915 1047.06Z" fill="#28478F"/>
<path d="M846.596 1038.7C843.417 1038.7 809.199 1046.76 795.367 1050.06C794.978 1050.16 794.629 1050.37 794.371 1050.68C794.112 1050.98 793.957 1051.36 793.927 1051.76C793.897 1052.16 793.995 1052.56 794.206 1052.9C794.416 1053.24 794.729 1053.5 795.1 1053.65L816.941 1062.56L824.974 1062.85C826.431 1062.89 827.846 1063.35 829.05 1064.17C830.255 1064.99 831.198 1066.14 831.769 1067.49C832.034 1068.08 832.509 1068.55 833.103 1068.82L835.53 1069.91C836.37 1070.3 837.305 1070.45 838.224 1070.32L847.713 1069.16C849.012 1069 850.196 1068.33 851.012 1067.31C851.828 1066.28 852.212 1064.98 852.081 1063.67L846.596 1038.7Z" fill="#28478F"/>
<path d="M468.5 443.521L515.507 409.594L529.971 424.422L482.236 458.882L468.5 443.521Z" fill="#28478F"/>
<path d="M466.146 446.258L458.672 465.138L479.009 460.382L466.146 446.258Z" fill="#FAC0AC"/>
<path d="M486.845 449.037C487.407 451.211 487.297 453.503 486.53 455.613C485.763 457.723 484.376 459.551 482.55 460.857C480.724 462.163 478.546 462.885 476.302 462.929C474.057 462.973 471.852 462.337 469.977 461.104C468.101 459.87 466.643 458.098 465.794 456.02C464.945 453.942 464.745 451.655 465.221 449.462C465.697 447.268 466.826 445.269 468.459 443.73C470.092 442.19 472.153 441.18 474.371 440.835C477.112 440.282 479.96 440.833 482.296 442.369C484.632 443.905 486.267 446.302 486.845 449.037Z" fill="#28478F"/>
<path d="M533.632 415.229C534.189 417.403 534.074 419.694 533.304 421.802C532.533 423.909 531.143 425.734 529.315 427.036C527.488 428.339 525.309 429.057 523.065 429.098C520.822 429.139 518.619 428.499 516.745 427.264C514.872 426.028 513.417 424.255 512.57 422.176C511.724 420.098 511.527 417.812 512.005 415.619C512.482 413.427 513.612 411.43 515.246 409.892C516.88 408.354 518.941 407.346 521.159 407.002C523.903 406.443 526.758 406.995 529.096 408.537C531.434 410.079 533.066 412.486 533.632 415.229Z" fill="#FAC0AC"/>
<path d="M527.226 415.683C527.427 416.48 527.382 417.32 527.097 418.091C526.812 418.862 526.3 419.529 525.629 420.004C524.958 420.479 524.16 420.741 523.338 420.754C522.516 420.767 521.709 420.531 521.023 420.078C520.338 419.624 519.805 418.974 519.495 418.213C519.186 417.451 519.114 416.614 519.289 415.81C519.463 415.007 519.877 414.275 520.475 413.711C521.073 413.147 521.828 412.777 522.64 412.65C523.14 412.547 523.656 412.544 524.157 412.641C524.659 412.738 525.136 412.933 525.563 413.215C525.989 413.496 526.355 413.859 526.64 414.283C526.926 414.707 527.125 415.182 527.226 415.683Z" fill="#28478F"/>
<path d="M460.566 460.328L458.648 465.182L464.157 463.896C462.674 463.034 461.437 461.806 460.566 460.328Z" fill="#28478F"/>
<path d="M509.078 436.044C507.906 436.282 506.693 436.215 505.554 435.85C504.415 435.484 503.389 434.833 502.574 433.957C496.604 427.526 492.697 419.906 489.275 421.556C485.344 423.425 487.746 425.512 484.422 427.939C483.354 428.691 479.932 427.939 479.228 430.608C478.525 433.278 478.452 435.899 475.976 437.889C473.501 439.879 474.957 446.116 475.807 448.251C477.056 450.417 478.636 452.374 480.49 454.051C485.523 459.132 491.489 463.195 498.06 466.016C504.564 468.612 511.068 461.526 515.048 454.755C518.106 449.635 515.436 435.025 515.436 435.025C513.171 435.349 511.052 435.689 509.078 436.044Z" fill="#FAC0AC"/>
<path d="M490.125 421.372L500.415 420.547L494.323 424.915L490.125 421.372Z" fill="#FAC0AC"/>
<path d="M654.636 426.312L649.54 438.665C649.364 439.222 649.416 439.825 649.685 440.344C649.953 440.862 650.416 441.253 650.971 441.432L656.48 443.252L654.636 426.312Z" fill="#FAC0AC"/>
<path d="M593.625 533.885L673.71 552.547C682.616 553.882 679.17 487.703 679.17 487.703L636.434 493.115L604.449 491.902" fill="#FFA229"/>
<path d="M680.087 487.602L680.524 487.335C684.576 484.908 681.616 451.952 676.641 443.943L705.107 392.641C706.712 414.182 710.212 435.539 715.567 456.466C716.896 460.562 719.041 464.348 721.873 467.592C724.705 470.837 728.165 473.475 732.045 475.346" fill="#FAC0AC"/>
<path d="M692.691 458.6L696.768 437.633C696.768 437.633 690.046 451.66 689.973 452.461C689.901 453.261 682.353 459.741 681.164 460.809C682.111 467.951 682.492 475.157 682.305 482.359L692.691 458.6Z" fill="#E69E96"/>
<path d="M659.121 462.921C659.253 463.915 659.71 464.838 660.421 465.544C661.133 466.251 662.058 466.703 663.053 466.828C685.938 469.109 717.68 430.159 714.404 406.886C712.778 395.189 699.843 391.427 687.709 390.214C668.926 388.345 654.802 387.787 653.297 421.762C653.273 422.029 659.121 462.921 659.121 462.921Z" fill="#FAC0AC"/>
<path d="M655.874 403.937L653.156 399.544C651.779 397.336 651.069 394.776 651.111 392.174C651.153 389.571 651.946 387.036 653.394 384.873C654.842 382.71 656.884 381.011 659.274 379.98C661.664 378.949 664.301 378.631 666.868 379.062C696.815 384.158 722.32 392.312 722.102 406.582C721.447 445.411 716.302 455.749 716.302 455.749C716.302 455.749 699.775 464.825 695.747 432.209C682.691 442.596 676.721 409.834 676.721 409.834C676.163 404.713 663.252 405.66 655.874 403.937Z" fill="black"/>
<path d="M698.756 434.995C697.033 439.582 692.762 442.276 689.267 441.135C685.773 439.994 684.414 435.262 686.088 430.676C687.763 426.089 692.083 423.395 695.577 424.56C699.072 425.725 700.504 430.433 698.756 434.995Z" fill="#FAC0AC"/>
<path d="M604.399 491.91L578.723 487.251L507.933 448.422L488.664 459.1L573.238 523.119L595.298 529.089L604.399 491.91Z" fill="#FAC0AC"/>
<path d="M657.205 532.701C656.477 513.553 649.148 496.153 653.006 494.454C653.006 494.454 678.003 484.116 682.322 482.053C682.322 482.053 717.05 479.457 723.311 469.312C723.311 469.312 757.917 474.749 759.179 477.515C778.303 518.916 776.652 530.517 776.652 530.517L789.781 588.76L808.371 653.701C795.557 662.001 726.393 680.396 694.02 678.697C694.02 678.697 688.511 616.571 686.593 606.427C686.593 606.476 657.836 549.446 657.205 532.701Z" fill="#FFA229"/>
<g style="mix-blend-mode:multiply" opacity="0.16">
<path d="M193.516 1057.49C193.516 1065.23 153.158 1071.79 103.263 1072.05C53.3676 1072.32 12.8884 1066.35 12.8399 1058.59C12.7914 1050.82 53.1977 1044.29 103.093 1044.02C152.988 1043.76 193.467 1049.73 193.516 1057.49Z" fill="#6C467A"/>
</g>
<path d="M162.235 567.711C162.235 567.711 165.002 608.967 164.177 620.834C164.177 620.834 173.326 747.028 156.12 709.388L153.11 697.739C153.11 697.739 140.127 671.36 148.257 627.726L141.098 575.38L162.235 567.711Z" fill="#FAC0AC"/>
<path d="M133.842 595.729C133.842 595.729 156.581 772.886 160.925 843.094C161.459 851.636 156.533 862.096 152.868 869.789L150.442 881.51C149.471 893.013 142.821 929.464 140.734 940.821L125.591 1013.33L140.516 1039.91L128.382 1045.15L104.114 1018.46C104.114 1018.46 110.278 1007.61 107.414 962.905C104.648 920.096 97.974 881.68 106.055 864.328C119.184 836.226 108.482 804.799 102.536 787.399C87.9756 745.755 26.9899 670.912 79.1178 594.734L133.842 595.729Z" fill="#FAC0AC"/>
<path d="M119.206 493.752C106.272 488.899 109.499 482.322 109.815 477.056C110.616 461.039 105.641 444.731 110.203 433.664L85.5223 422.695C85.5223 422.695 88.8956 434.441 82.7072 474.459C81.2754 483.705 65.04 493.874 63.2927 494.796C53.5855 500.28 69.7481 555.636 119.425 528.286L120.032 527.922C130.127 522.291 128.719 497.368 119.206 493.752Z" fill="#FAC0AC"/>
<path d="M110.232 473.319C109.99 469.922 110.96 468.83 110.621 465.238C98.1711 463.345 88.0999 452.716 83.9258 450.07C83.9258 451.357 84.5568 460.967 84.4354 462.204C88.7309 469.072 96.2054 478.804 109.577 479.726C109.577 479.799 110.281 474.144 110.232 473.319Z" fill="#E69E96"/>
<path d="M158.933 1049.44C147.649 1046.07 141.946 1041.87 140.174 1039.08C140.732 1041.5 129.108 1040.27 119.595 1035.29C119.595 1035.29 106.612 1016.7 104.185 1018.57C98.3846 1041.96 102.316 1027.28 107.801 1059.83H113.188L114.838 1052.96C114.838 1052.96 120.808 1052.96 130.516 1059.97C140.223 1066.98 171.48 1061.21 171.48 1061.21C177.28 1057.76 171.116 1053.08 158.933 1049.44Z" fill="#526080"/>
<path d="M135.275 619.719C135.275 619.719 120.399 795.274 118.894 852.522L110.157 882.008C108.677 893.463 98.266 944.11 95.5965 955.346L76.4733 1023.71L87.8307 1050.84L75.4783 1055.5L57.617 1022.64C57.617 1022.64 60.4321 1022.5 61.0145 984.007C61.6455 941.101 57.9082 906.907 66.7903 889.968C81.1813 862.497 66.7903 814.567 61.597 796.924C49.0746 754.649 40.7992 668.546 65.5041 626.344L135.275 619.719Z" fill="#FAC0AC"/>
<path d="M103.896 1064.6C93.5817 1058.88 88.9222 1053.54 87.8059 1050.43C87.8059 1052.86 76.7397 1049.19 68.537 1042.28C68.537 1042.28 59.8733 1021.33 57.1068 1022.64C46.3803 1044.22 54.9469 1036.21 53.2724 1069.17L60.1403 1068.75V1058.46C60.1403 1058.46 65.9646 1059.7 73.9003 1068.71C81.8359 1077.71 113.651 1078.75 113.651 1078.75C119.985 1076.69 114.986 1070.79 103.896 1064.6Z" fill="#526080"/>
<path d="M159.881 554.518C157.77 551.048 151.921 526.076 149.033 513.796C148.395 510.108 146.588 506.722 143.879 504.14C141.169 501.557 137.701 499.914 133.987 499.454C128.939 498.823 123.26 495.158 119.062 492.95C116.805 499.648 96.5412 503.264 84.2615 496.08L72.2731 488.023C56.1106 498.968 57.7123 496.687 53.9022 499.891C35.2886 515.665 34.4877 517.873 49.8009 557.285L60.6487 578.519C63.8521 602.787 52.8101 682.386 52.8101 682.386C104.04 706.048 145.344 686.342 154.154 640.403L151.217 591.527C160.609 585.314 169.855 570.68 159.881 554.518Z" fill="#FFA229"/>
<path d="M124.159 409.279C124.159 409.279 128.042 414.594 127.022 426.412C127.543 432.585 128.394 438.726 129.571 444.808C130.323 463.688 118.043 475.531 113.578 475.434C108.974 475.214 104.458 474.085 100.293 472.11C96.1276 470.136 92.3947 467.356 89.3098 463.931C80.1122 454.054 76.9331 415.395 87.0771 407.459C102.9 394.985 119.329 402.703 124.159 409.279Z" fill="#FAC0AC"/>
<path d="M55.0406 642.129C55.0406 642.129 33.1993 711.779 58.0984 853.528C58.0984 853.528 85.9581 874.545 168.567 851.539C168.567 851.539 185.19 685.375 154.006 640.406C154.079 640.406 128.597 651.157 55.0406 642.129Z" fill="#1C4670"/>
<path d="M156.471 561.85L77.6092 531.768C76.645 531.4 75.5651 531.883 75.1973 532.847L34.6488 639.145C34.2809 640.109 34.7644 641.189 35.7287 641.557L114.59 671.64C115.554 672.007 116.634 671.524 117.002 670.56L157.551 564.262C157.918 563.298 157.435 562.218 156.471 561.85Z" fill="#EDEDED"/>
<path d="M86.4688 621.858C86.4688 621.858 93.4094 614.699 97.8262 614.577C102.243 614.456 110.421 613.534 111.295 615.232C112.46 617.441 106.441 618.727 99.889 619.407L86.4688 621.858Z" fill="#FAC0AC"/>
<path d="M94.0691 617.82C94.0691 617.82 110.814 621.194 113.338 622.31C113.965 622.549 114.51 622.965 114.905 623.508C115.301 624.05 115.531 624.696 115.566 625.366C115.602 626.037 115.443 626.703 115.108 627.285C114.773 627.867 114.276 628.339 113.678 628.644C112.319 629.348 115.376 631.993 111.761 634.735C109.504 636.458 111.469 637.162 110.013 639.128C108.848 640.681 105.694 640.147 105.16 642.04C104.383 645.534 101.01 644.273 98.4616 644.467C95.9135 644.661 86.6431 642.307 80.4547 634.954C72.4705 625.416 94.0691 617.82 94.0691 617.82Z" fill="#FAC0AC"/>
<path d="M10.2694 573.781C2.2609 593.948 -2.37431 600.088 1.24163 609.48C5.17306 619.624 97.2461 643.455 109.113 639.572L112.681 628.384C109.118 626.088 105.074 624.643 100.862 624.162C81.8116 621.177 56.0147 595.817 36.94 591.157C36.94 591.157 39.7793 589.094 47.9819 577.276" fill="#FAC0AC"/>
<path d="M41.6226 587.934C51.3298 571.189 68.3175 547.042 71.6422 532.263C81.8591 485.401 47.0101 496.88 39.3899 516.367C30.0467 540.247 14.0055 560.972 8.59375 574.61L41.6226 587.934Z" fill="#FFA229"/>
<path d="M140.348 516.562L146.997 537.7L156.365 549.98" stroke="#28478F" stroke-width="0.5" stroke-miterlimit="10" stroke-linecap="round"/>
<path d="M125.156 428.305C127.66 433.996 131.051 439.255 135.203 443.885C137.241 445.996 130.349 452.087 127.461 452.209C121.103 452.451 125.156 428.305 125.156 428.305Z" fill="#FAC0AC"/>
<path d="M107.853 621.195C107.853 621.195 117.56 622.918 118.361 622.918C119.161 622.918 126.903 622.166 127.655 622.166C129.67 622.166 128.675 626.34 123.675 627.02C118.676 627.699 116.395 629.446 112.124 628.597C106.542 627.554 107.853 621.195 107.853 621.195Z" fill="#FAC0AC"/>
<path d="M104.067 627.664C104.067 627.664 118.312 628.465 119.186 628.368C120.059 628.271 129.209 626.548 130.082 626.475C132.509 626.281 131.757 630.48 125.884 631.717C120.011 632.955 114.89 634.629 109.891 634.411C109.04 634.43 108.194 634.261 107.416 633.915C106.637 633.569 105.945 633.056 105.388 632.411C104.832 631.766 104.424 631.006 104.196 630.186C103.968 629.365 103.923 628.504 104.067 627.664Z" fill="#FAC0AC"/>
<path d="M75.4529 409.422C77.3023 405.795 77.9213 401.664 77.2165 397.654C76.5117 393.644 74.5212 389.972 71.5458 387.193C62.6394 379.208 45.8459 382.339 40.9923 393.041C39.2185 397.549 39.2214 402.562 41.0006 407.067C42.7797 411.573 46.2024 415.235 50.5774 417.315C54.9524 419.395 59.9536 419.736 64.5708 418.271C69.1881 416.806 73.0773 413.644 75.4529 409.422Z" fill="#10233C"/>
<path d="M90.5264 438.666C92.5188 431.843 92.4089 424.578 90.2109 417.819C90.2109 417.819 105.354 401.924 122.949 407.772C122.949 407.772 94.1181 385.227 75.8685 403.817C57.6189 422.406 61.9386 448.421 84.7506 461.114L90.5264 438.666Z" fill="#10233C"/>
<path d="M79.6739 449.748C82.6831 454.213 87.6823 455.887 90.8372 453.461C93.992 451.034 94.0648 445.476 91.0313 441.011C87.9978 436.546 83.0229 434.896 79.868 437.298C76.7132 439.701 76.6403 445.282 79.6739 449.748Z" fill="#FAC0AC"/>
<path d="M102.926 917.395L110.206 893.928C114.498 889.768 117.718 884.631 119.591 878.954C121.463 873.278 121.932 867.233 120.957 861.336" stroke="#28478F" stroke-width="0.5" stroke-miterlimit="10" stroke-linecap="round"/>
<path d="M54.3906 566.829L62.5204 546.273" stroke="#28478F" stroke-width="0.5" stroke-miterlimit="10" stroke-linecap="round"/>
</g>
<defs>
<clipPath id="clip0_390_862">
<rect width="1080" height="1080" fill="white" transform="translate(1080 1080) rotate(180)"/>
</clipPath>
</defs>
</svg>
