<?xml version="1.0" encoding="UTF-8"?>
<svg width="203px" height="200px" viewBox="0 0 323 330" version="1.1" xmlns="http://www.w3.org/2000/svg" xmlns:xlink="http://www.w3.org/1999/xlink">
    <title>circle dot grid</title>
    <defs>
        <polygon id="path-1" points="0.5087 0.012 8.4857 0.012 8.4857 5.2455 0.5087 5.2455"></polygon>
        <polygon id="path-3" points="0.9345 0.012 8.9115 0.012 8.9115 5.2455 0.9345 5.2455"></polygon>
        <polygon id="path-5" points="0.3019 0.9811 8.281 0.9811 8.281 8.9611 0.3019 8.9611"></polygon>
        <polygon id="path-7" points="0.3019 0.8558 8.281 0.8558 8.281 8.8328 0.3019 8.8328"></polygon>
    </defs>
    <g id="Mockups---Desktop" stroke="none" stroke-width="1" fill="none" fill-rule="evenodd">
        <g id="circle-dot-grid" transform="translate(161.500000, 165.000000) scale(-1, 1) translate(-161.500000, -165.000000) ">
            <path d="M125,3.7875 C123.297665,4.0935 121.650454,4.4985 120,4.8555 C120.551232,5.1075 121.154345,5.2125 121.757458,5.2125 C123.077173,5.2125 124.231518,4.6515 125,3.7875" id="Fill-1" fill="#1E1E1E"></path>
            <g id="Group-5" transform="translate(143.000000, 0.000000)">
                <mask id="mask-2" fill="white">
                    <use xlink:href="#path-1"></use>
                </mask>
                <g id="Clip-4"></g>
                <path d="M4.5227,5.2455 C6.7097,5.2455 8.4857,3.4665 8.4857,1.2315 C8.4857,0.8235 8.4347,0.3675 8.2817,0.0105 C5.6927,0.1635 3.1487,0.3675 0.6107,0.6225 L0.5597,0.6225 C0.5087,0.8235 0.5087,1.0275 0.5087,1.2315 C0.5087,3.4665 2.2847,5.2455 4.5227,5.2455" id="Fill-3" fill="#1E1E1E" mask="url(#mask-2)"></path>
            </g>
            <g id="Group-8" transform="translate(169.000000, 0.000000)">
                <mask id="mask-4" fill="white">
                    <use xlink:href="#path-3"></use>
                </mask>
                <g id="Clip-7"></g>
                <path d="M4.9485,5.2455 C7.1355,5.2455 8.9115,3.4665 8.9115,1.2315 C8.9115,1.0275 8.9115,0.8235 8.8605,0.6225 L8.8125,0.6225 C6.2685,0.3675 3.7275,0.1635 1.1355,0.0105 C0.9855,0.3675 0.9345,0.8235 0.9345,1.2315 C0.9345,3.4665 2.7105,5.2455 4.9485,5.2455" id="Fill-6" fill="#1E1E1E" mask="url(#mask-4)"></path>
            </g>
            <path d="M202,4.857 C200.37075,4.5 198.686979,4.092 197,3.789 C197.76331,4.653 198.956382,5.211 200.261706,5.211 C200.912765,5.211 201.457986,5.058 202,4.857" id="Fill-9" fill="#0F4068"></path>
            <path d="M86,17 C83.9816794,18.0962005 81.9664122,19.244139 80,20.4502829 C80.5709924,20.7801132 81.2916031,21 82.0183206,21 C84.1374046,21 85.8961832,19.244139 86,17" id="Fill-11" fill="#0F4068"></path>
            <path d="M109,13 C106.792481,13 105,14.7901467 105,16.9984957 C105,19.2068447 106.792481,21 109,21 C111.207519,21 113,19.2068447 113,16.9984957 C113,14.7901467 111.207519,13 109,13" id="Fill-13" fill="#0F4068"></path>
            <path d="M135,13 C132.789474,13 131,14.7901467 131,16.9984957 C131,19.2068447 132.789474,21 135,21 C137.207519,21 139,19.2068447 139,16.9984957 C139,14.7901467 137.207519,13 135,13" id="Fill-15" fill="#0F4068"></path>
            <path d="M161,13 C158.792481,13 157,14.7901467 157,16.9984957 C157,19.2068447 158.792481,21 161,21 C163.207519,21 165,19.2068447 165,16.9984957 C165,14.7901467 163.207519,13 161,13" id="Fill-17" fill="#0F4068"></path>
            <path d="M187,13 C184.792481,13 183,14.7901467 183,16.9984957 C183,19.2068447 184.792481,21 187,21 C189.207519,21 191,19.2068447 191,16.9984957 C191,14.7901467 189.207519,13 187,13" id="Fill-19" fill="#0F4068"></path>
            <path d="M213,13 C210.792481,13 209,14.7901467 209,16.9984957 C209,19.2068447 210.792481,21 213,21 C215.210526,21 217,19.2068447 217,16.9984957 C217,14.7901467 215.210526,13 213,13" id="Fill-21" fill="#0F4068"></path>
            <path d="M239.998991,21 C240.716448,21 241.436932,20.7801132 242,20.3953112 C239.998991,19.244139 237.997982,18.0962005 236,17 C236.099899,19.244139 237.898083,21 239.998991,21" id="Fill-23" fill="#0F4068"></path>
            <path d="M69,32 C66.7924812,32 65,33.7901467 65,35.9984957 C65,38.2068447 66.7924812,40 69,40 C71.2075188,40 73,38.2068447 73,35.9984957 C73,33.7901467 71.2075188,32 69,32" id="Fill-25" fill="#0F4068"></path>
            <path d="M95,32 C92.7924812,32 91,33.7901467 91,35.9984957 C91,38.2068447 92.7924812,40 95,40 C97.2075188,40 99,38.2068447 99,35.9984957 C99,33.7901467 97.2075188,32 95,32" id="Fill-27" fill="#0F4068"></path>
            <path d="M122,32 C119.789474,32 118,33.7901467 118,35.9984957 C118,38.2068447 119.789474,40 122,40 C124.207519,40 126,38.2068447 126,35.9984957 C126,33.7901467 124.207519,32 122,32" id="Fill-29" fill="#0F4068"></path>
            <path d="M148,32 C145.792481,32 144,33.7901467 144,35.9984957 C144,38.2068447 145.792481,40 148,40 C150.207519,40 152,38.2068447 152,35.9984957 C152,33.7901467 150.207519,32 148,32" id="Fill-31" fill="#0F4068"></path>
            <path d="M174,32 C171.792481,32 170,33.7901467 170,35.9984957 C170,38.2068447 171.792481,40 174,40 C176.207519,40 178,38.2068447 178,35.9984957 C178,33.7901467 176.207519,32 174,32" id="Fill-33" fill="#0F4068"></path>
            <path d="M200,32 C197.792481,32 196,33.7901467 196,35.9984957 C196,38.2068447 197.792481,40 200,40 C202.207519,40 204,38.2068447 204,35.9984957 C204,33.7901467 202.207519,32 200,32" id="Fill-35" fill="#0F4068"></path>
            <path d="M227,32 C224.792481,32 223,33.7901467 223,35.9984957 C223,38.2068447 224.792481,40 227,40 C229.207519,40 231,38.2068447 231,35.9984957 C231,33.7901467 229.207519,32 227,32" id="Fill-37" fill="#0F4068"></path>
            <path d="M253,32 C250.792481,32 249,33.7901467 249,35.9984957 C249,38.2068447 250.792481,40 253,40 C255.207519,40 257,38.2068447 257,35.9984957 C257,33.7901467 255.207519,32 253,32" id="Fill-39" fill="#0F4068"></path>
            <path d="M56,48 C53.7924812,48 52,49.7901467 52,51.9984957 C52,54.2068447 53.7924812,56 56,56 C58.2075188,56 60,54.2068447 60,51.9984957 C60,49.7901467 58.2075188,48 56,48" id="Fill-41" fill="#0F4068"></path>
            <path d="M82,48 C79.7924812,48 78,49.7901467 78,51.9984957 C78,54.2068447 79.7924812,56 82,56 C84.2075188,56 86,54.2068447 86,51.9984957 C86,49.7901467 84.2075188,48 82,48" id="Fill-43" fill="#0F4068"></path>
            <path d="M109,48 C106.792481,48 105,49.7901467 105,51.9984957 C105,54.2068447 106.792481,56 109,56 C111.207519,56 113,54.2068447 113,51.9984957 C113,49.7901467 111.207519,48 109,48" id="Fill-45" fill="#0F4068"></path>
            <path d="M135,48 C132.789474,48 131,49.7901467 131,51.9984957 C131,54.2068447 132.789474,56 135,56 C137.207519,56 139,54.2068447 139,51.9984957 C139,49.7901467 137.207519,48 135,48" id="Fill-47" fill="#0F4068"></path>
            <path d="M161,48 C158.792481,48 157,49.7901467 157,51.9984957 C157,54.2068447 158.792481,56 161,56 C163.207519,56 165,54.2068447 165,51.9984957 C165,49.7901467 163.207519,48 161,48" id="Fill-49" fill="#0F4068"></path>
            <path d="M187,48 C184.792481,48 183,49.7901467 183,51.9984957 C183,54.2068447 184.792481,56 187,56 C189.207519,56 191,54.2068447 191,51.9984957 C191,49.7901467 189.207519,48 187,48" id="Fill-51" fill="#0F4068"></path>
            <path d="M213,48 C210.792481,48 209,49.7901467 209,51.9984957 C209,54.2068447 210.792481,56 213,56 C215.210526,56 217,54.2068447 217,51.9984957 C217,49.7901467 215.210526,48 213,48" id="Fill-53" fill="#0F4068"></path>
            <path d="M240,48 C237.792481,48 236,49.7901467 236,51.9984957 C236,54.2068447 237.792481,56 240,56 C242.207519,56 244,54.2068447 244,51.9984957 C244,49.7901467 242.207519,48 240,48" id="Fill-55" fill="#0F4068"></path>
            <path d="M266,48 C263.792481,48 262,49.7901467 262,51.9984957 C262,54.2068447 263.792481,56 266,56 C268.207519,56 270,54.2068447 270,51.9984957 C270,49.7901467 268.207519,48 266,48" id="Fill-57" fill="#0F4068"></path>
            <path d="M43,66 C40.7924812,66 39,67.7924812 39,70 C39,72.2075188 40.7924812,74 43,74 C45.2075188,74 47,72.2075188 47,70 C47,67.7924812 45.2075188,66 43,66" id="Fill-59" fill="#0F4068"></path>
            <path d="M69,66 C66.7924812,66 65,67.7924812 65,70 C65,72.2075188 66.7924812,74 69,74 C71.2075188,74 73,72.2075188 73,70 C73,67.7924812 71.2075188,66 69,66" id="Fill-61" fill="#0F4068"></path>
            <path d="M95,66 C92.7924812,66 91,67.7924812 91,70 C91,72.2075188 92.7924812,74 95,74 C97.2075188,74 99,72.2075188 99,70 C99,67.7924812 97.2075188,66 95,66" id="Fill-63" fill="#0F4068"></path>
            <path d="M122,66 C119.789474,66 118,67.7924812 118,70 C118,72.2075188 119.789474,74 122,74 C124.207519,74 126,72.2075188 126,70 C126,67.7924812 124.207519,66 122,66" id="Fill-65" fill="#0F4068"></path>
            <path d="M148,66 C145.792481,66 144,67.7924812 144,70 C144,72.2075188 145.792481,74 148,74 C150.207519,74 152,72.2075188 152,70 C152,67.7924812 150.207519,66 148,66" id="Fill-67" fill="#0F4068"></path>
            <path d="M174,66 C171.792481,66 170,67.7924812 170,70 C170,72.2075188 171.792481,74 174,74 C176.207519,74 178,72.2075188 178,70 C178,67.7924812 176.207519,66 174,66" id="Fill-69" fill="#0F4068"></path>
            <path d="M200,66 C197.792481,66 196,67.7924812 196,70 C196,72.2075188 197.792481,74 200,74 C202.207519,74 204,72.2075188 204,70 C204,67.7924812 202.207519,66 200,66" id="Fill-71" fill="#0F4068"></path>
            <path d="M227,66 C224.792481,66 223,67.7924812 223,70 C223,72.2075188 224.792481,74 227,74 C229.207519,74 231,72.2075188 231,70 C231,67.7924812 229.207519,66 227,66" id="Fill-73" fill="#0F4068"></path>
            <path d="M253,66 C250.792481,66 249,67.7924812 249,70 C249,72.2075188 250.792481,74 253,74 C255.207519,74 257,72.2075188 257,70 C257,67.7924812 255.207519,66 253,66" id="Fill-75" fill="#0F4068"></path>
            <path d="M279,66 C276.792481,66 275,67.7924812 275,70 C275,72.2075188 276.792481,74 279,74 C281.207519,74 283,72.2075188 283,70 C283,67.7924812 281.207519,66 279,66" id="Fill-77" fill="#0F4068"></path>
            <path d="M30,82 C27.7924812,82 26,83.7901467 26,85.9984957 C26,88.2068447 27.7924812,90 30,90 C32.2075188,90 34,88.2068447 34,85.9984957 C34,83.7901467 32.2075188,82 30,82" id="Fill-79" fill="#0F4068"></path>
            <path d="M56,82 C53.7924812,82 52,83.7901467 52,85.9984957 C52,88.2068447 53.7924812,90 56,90 C58.2075188,90 60,88.2068447 60,85.9984957 C60,83.7901467 58.2075188,82 56,82" id="Fill-81" fill="#0F4068"></path>
            <path d="M82,82 C79.7924812,82 78,83.7901467 78,85.9984957 C78,88.2068447 79.7924812,90 82,90 C84.2075188,90 86,88.2068447 86,85.9984957 C86,83.7901467 84.2075188,82 82,82" id="Fill-83" fill="#0F4068"></path>
            <path d="M109,82 C106.792481,82 105,83.7901467 105,85.9984957 C105,88.2068447 106.792481,90 109,90 C111.207519,90 113,88.2068447 113,85.9984957 C113,83.7901467 111.207519,82 109,82" id="Fill-85" fill="#0F4068"></path>
            <path d="M135,82 C132.789474,82 131,83.7901467 131,85.9984957 C131,88.2068447 132.789474,90 135,90 C137.207519,90 139,88.2068447 139,85.9984957 C139,83.7901467 137.207519,82 135,82" id="Fill-87" fill="#0F4068"></path>
            <path d="M161,82 C158.792481,82 157,83.7901467 157,85.9984957 C157,88.2068447 158.792481,90 161,90 C163.207519,90 165,88.2068447 165,85.9984957 C165,83.7901467 163.207519,82 161,82" id="Fill-89" fill="#0F4068"></path>
            <path d="M187,82 C184.792481,82 183,83.7901467 183,85.9984957 C183,88.2068447 184.792481,90 187,90 C189.207519,90 191,88.2068447 191,85.9984957 C191,83.7901467 189.207519,82 187,82" id="Fill-91" fill="#0F4068"></path>
            <path d="M213,82 C210.792481,82 209,83.7901467 209,85.9984957 C209,88.2068447 210.792481,90 213,90 C215.210526,90 217,88.2068447 217,85.9984957 C217,83.7901467 215.210526,82 213,82" id="Fill-93" fill="#0F4068"></path>
            <path d="M240,82 C237.792481,82 236,83.7901467 236,85.9984957 C236,88.2068447 237.792481,90 240,90 C242.207519,90 244,88.2068447 244,85.9984957 C244,83.7901467 242.207519,82 240,82" id="Fill-95" fill="#0F4068"></path>
            <path d="M266,82 C263.792481,82 262,83.7901467 262,85.9984957 C262,88.2068447 263.792481,90 266,90 C268.207519,90 270,88.2068447 270,85.9984957 C270,83.7901467 268.207519,82 266,82" id="Fill-97" fill="#0F4068"></path>
            <path d="M292,82 C289.792481,82 288,83.7901467 288,85.9984957 C288,88.2068447 289.792481,90 292,90 C294.207519,90 296,88.2068447 296,85.9984957 C296,83.7901467 294.207519,82 292,82" id="Fill-99" fill="#0F4068"></path>
            <path d="M17,101 C14.7924812,101 13,102.793155 13,105.001504 C13,107.209853 14.7924812,109 17,109 C19.2075188,109 21,107.209853 21,105.001504 C21,102.793155 19.2075188,101 17,101" id="Fill-101" fill="#0F4068"></path>
            <path d="M43,101 C40.7924812,101 39,102.793155 39,105.001504 C39,107.209853 40.7924812,109 43,109 C45.2075188,109 47,107.209853 47,105.001504 C47,102.793155 45.2075188,101 43,101" id="Fill-103" fill="#0F4068"></path>
            <path d="M69,101 C66.7924812,101 65,102.793155 65,105.001504 C65,107.209853 66.7924812,109 69,109 C71.2075188,109 73,107.209853 73,105.001504 C73,102.793155 71.2075188,101 69,101" id="Fill-105" fill="#0F4068"></path>
            <path d="M95,101 C92.7924812,101 91,102.793155 91,105.001504 C91,107.209853 92.7924812,109 95,109 C97.2075188,109 99,107.209853 99,105.001504 C99,102.793155 97.2075188,101 95,101" id="Fill-107" fill="#0F4068"></path>
            <path d="M122,101 C119.789474,101 118,102.793155 118,105.001504 C118,107.209853 119.789474,109 122,109 C124.207519,109 126,107.209853 126,105.001504 C126,102.793155 124.207519,101 122,101" id="Fill-109" fill="#0F4068"></path>
            <path d="M148,101 C145.792481,101 144,102.793155 144,105.001504 C144,107.209853 145.792481,109 148,109 C150.207519,109 152,107.209853 152,105.001504 C152,102.793155 150.207519,101 148,101" id="Fill-111" fill="#0F4068"></path>
            <path d="M174,101 C171.792481,101 170,102.793155 170,105.001504 C170,107.209853 171.792481,109 174,109 C176.207519,109 178,107.209853 178,105.001504 C178,102.793155 176.207519,101 174,101" id="Fill-113" fill="#0F4068"></path>
            <path d="M200,101 C197.792481,101 196,102.793155 196,105.001504 C196,107.209853 197.792481,109 200,109 C202.207519,109 204,107.209853 204,105.001504 C204,102.793155 202.207519,101 200,101" id="Fill-115" fill="#0F4068"></path>
            <path d="M227,101 C224.792481,101 223,102.793155 223,105.001504 C223,107.209853 224.792481,109 227,109 C229.207519,109 231,107.209853 231,105.001504 C231,102.793155 229.207519,101 227,101" id="Fill-117" fill="#0F4068"></path>
            <path d="M253,101 C250.792481,101 249,102.793155 249,105.001504 C249,107.209853 250.792481,109 253,109 C255.207519,109 257,107.209853 257,105.001504 C257,102.793155 255.207519,101 253,101" id="Fill-119" fill="#0F4068"></path>
            <path d="M279,101 C276.792481,101 275,102.793155 275,105.001504 C275,107.209853 276.792481,109 279,109 C281.207519,109 283,107.209853 283,105.001504 C283,102.793155 281.207519,101 279,101" id="Fill-121" fill="#0F4068"></path>
            <path d="M305,101 C302.792481,101 301,102.793155 301,105.001504 C301,107.209853 302.792481,109 305,109 C307.210526,109 309,107.209853 309,105.001504 C309,102.793155 307.210526,101 305,101" id="Fill-123" fill="#0F4068"></path>
            <path d="M8,120.974426 C8,118.781121 6.15756769,117 3.89569463,117 C3.52596538,117 3.20905459,117.048138 2.89525078,117.150432 C2.21171771,119.343738 1.57789614,121.585182 1,123.880782 C1.73635153,124.593832 2.73679538,125 3.89569463,125 C6.15756769,125 8,123.215871 8,120.974426" id="Fill-125" fill="#0F4068"></path>
            <path d="M30,117 C27.7924812,117 26,118.790147 26,120.998496 C26,123.206845 27.7924812,125 30,125 C32.2075188,125 34,123.206845 34,120.998496 C34,118.790147 32.2075188,117 30,117" id="Fill-127" fill="#0F4068"></path>
            <path d="M56,117 C53.7924812,117 52,118.790147 52,120.998496 C52,123.206845 53.7924812,125 56,125 C58.2075188,125 60,123.206845 60,120.998496 C60,118.790147 58.2075188,117 56,117" id="Fill-129" fill="#0F4068"></path>
            <path d="M82,117 C79.7924812,117 78,118.790147 78,120.998496 C78,123.206845 79.7924812,125 82,125 C84.2075188,125 86,123.206845 86,120.998496 C86,118.790147 84.2075188,117 82,117" id="Fill-131" fill="#0F4068"></path>
            <path d="M109,117 C106.792481,117 105,118.790147 105,120.998496 C105,123.206845 106.792481,125 109,125 C111.207519,125 113,123.206845 113,120.998496 C113,118.790147 111.207519,117 109,117" id="Fill-133" fill="#0F4068"></path>
            <path d="M135,117 C132.789474,117 131,118.790147 131,120.998496 C131,123.206845 132.789474,125 135,125 C137.207519,125 139,123.206845 139,120.998496 C139,118.790147 137.207519,117 135,117" id="Fill-135" fill="#0F4068"></path>
            <path d="M161,117 C158.792481,117 157,118.790147 157,120.998496 C157,123.206845 158.792481,125 161,125 C163.207519,125 165,123.206845 165,120.998496 C165,118.790147 163.207519,117 161,117" id="Fill-137" fill="#0F4068"></path>
            <path d="M187,117 C184.792481,117 183,118.790147 183,120.998496 C183,123.206845 184.792481,125 187,125 C189.207519,125 191,123.206845 191,120.998496 C191,118.790147 189.207519,117 187,117" id="Fill-139" fill="#0F4068"></path>
            <path d="M213,117 C210.792481,117 209,118.790147 209,120.998496 C209,123.206845 210.792481,125 213,125 C215.210526,125 217,123.206845 217,120.998496 C217,118.790147 215.210526,117 213,117" id="Fill-141" fill="#0F4068"></path>
            <path d="M240,117 C237.792481,117 236,118.790147 236,120.998496 C236,123.206845 237.792481,125 240,125 C242.207519,125 244,123.206845 244,120.998496 C244,118.790147 242.207519,117 240,117" id="Fill-143" fill="#0F4068"></path>
            <path d="M266,117 C263.792481,117 262,118.790147 262,120.998496 C262,123.206845 263.792481,125 266,125 C268.207519,125 270,123.206845 270,120.998496 C270,118.790147 268.207519,117 266,117" id="Fill-145" fill="#0F4068"></path>
            <path d="M292,117 C289.792481,117 288,118.790147 288,120.998496 C288,123.206845 289.792481,125 292,125 C294.207519,125 296,123.206845 296,120.998496 C296,118.790147 294.207519,117 292,117" id="Fill-147" fill="#0F4068"></path>
            <path d="M318.104305,125 C319.210386,125 320.21083,124.593832 321,123.880782 C320.422104,121.585182 319.788282,119.343738 319.104749,117.153441 C318.787838,117.048138 318.474035,117 318.104305,117 C315.839325,117 314,118.784129 314,120.974426 C314,123.215871 315.839325,125 318.104305,125" id="Fill-149" fill="#0F4068"></path>
            <path d="M17,136 C14.7924812,136 13,137.793155 13,140.001504 C13,142.209853 14.7924812,144 17,144 C19.2075188,144 21,142.209853 21,140.001504 C21,137.793155 19.2075188,136 17,136" id="Fill-151" fill="#0F4068"></path>
            <path d="M43,136 C40.7924812,136 39,137.793155 39,140.001504 C39,142.209853 40.7924812,144 43,144 C45.2075188,144 47,142.209853 47,140.001504 C47,137.793155 45.2075188,136 43,136" id="Fill-153" fill="#0F4068"></path>
            <path d="M69,136 C66.7924812,136 65,137.793155 65,140.001504 C65,142.209853 66.7924812,144 69,144 C71.2075188,144 73,142.209853 73,140.001504 C73,137.793155 71.2075188,136 69,136" id="Fill-155" fill="#0F4068"></path>
            <path d="M95,136 C92.7924812,136 91,137.793155 91,140.001504 C91,142.209853 92.7924812,144 95,144 C97.2075188,144 99,142.209853 99,140.001504 C99,137.793155 97.2075188,136 95,136" id="Fill-157" fill="#0F4068"></path>
            <path d="M122,136 C119.789474,136 118,137.793155 118,140.001504 C118,142.209853 119.789474,144 122,144 C124.207519,144 126,142.209853 126,140.001504 C126,137.793155 124.207519,136 122,136" id="Fill-159" fill="#0F4068"></path>
            <path d="M148,136 C145.792481,136 144,137.793155 144,140.001504 C144,142.209853 145.792481,144 148,144 C150.207519,144 152,142.209853 152,140.001504 C152,137.793155 150.207519,136 148,136" id="Fill-161" fill="#0F4068"></path>
            <path d="M174,136 C171.792481,136 170,137.793155 170,140.001504 C170,142.209853 171.792481,144 174,144 C176.207519,144 178,142.209853 178,140.001504 C178,137.793155 176.207519,136 174,136" id="Fill-163" fill="#0F4068"></path>
            <path d="M200,136 C197.792481,136 196,137.793155 196,140.001504 C196,142.209853 197.792481,144 200,144 C202.207519,144 204,142.209853 204,140.001504 C204,137.793155 202.207519,136 200,136" id="Fill-165" fill="#0F4068"></path>
            <path d="M227,136 C224.792481,136 223,137.793155 223,140.001504 C223,142.209853 224.792481,144 227,144 C229.207519,144 231,142.209853 231,140.001504 C231,137.793155 229.207519,136 227,136" id="Fill-167" fill="#0F4068"></path>
            <path d="M253,136 C250.792481,136 249,137.793155 249,140.001504 C249,142.209853 250.792481,144 253,144 C255.207519,144 257,142.209853 257,140.001504 C257,137.793155 255.207519,136 253,136" id="Fill-169" fill="#0F4068"></path>
            <path d="M279,136 C276.792481,136 275,137.793155 275,140.001504 C275,142.209853 276.792481,144 279,144 C281.207519,144 283,142.209853 283,140.001504 C283,137.793155 281.207519,136 279,136" id="Fill-171" fill="#0F4068"></path>
            <path d="M305,136 C302.792481,136 301,137.793155 301,140.001504 C301,142.209853 302.792481,144 305,144 C307.210526,144 309,142.209853 309,140.001504 C309,137.793155 307.210526,136 305,136" id="Fill-173" fill="#0F4068"></path>
            <path d="M4,152 C1.7924812,152 0,153.792481 0,156 C0,158.207519 1.7924812,160 4,160 C6.2075188,160 8,158.207519 8,156 C8,153.792481 6.2075188,152 4,152" id="Fill-175" fill="#0F4068"></path>
            <path d="M30,152 C27.7924812,152 26,153.792481 26,156 C26,158.207519 27.7924812,160 30,160 C32.2075188,160 34,158.207519 34,156 C34,153.792481 32.2075188,152 30,152" id="Fill-177" fill="#0F4068"></path>
            <path d="M56,152 C53.7924812,152 52,153.792481 52,156 C52,158.207519 53.7924812,160 56,160 C58.2075188,160 60,158.207519 60,156 C60,153.792481 58.2075188,152 56,152" id="Fill-179" fill="#0F4068"></path>
            <path d="M82,152 C79.7924812,152 78,153.792481 78,156 C78,158.207519 79.7924812,160 82,160 C84.2075188,160 86,158.207519 86,156 C86,153.792481 84.2075188,152 82,152" id="Fill-181" fill="#0F4068"></path>
            <path d="M109,152 C106.792481,152 105,153.792481 105,156 C105,158.207519 106.792481,160 109,160 C111.207519,160 113,158.207519 113,156 C113,153.792481 111.207519,152 109,152" id="Fill-183" fill="#0F4068"></path>
            <path d="M135,152 C132.789474,152 131,153.792481 131,156 C131,158.207519 132.789474,160 135,160 C137.207519,160 139,158.207519 139,156 C139,153.792481 137.207519,152 135,152" id="Fill-185" fill="#0F4068"></path>
            <path d="M161,152 C158.792481,152 157,153.792481 157,156 C157,158.207519 158.792481,160 161,160 C163.207519,160 165,158.207519 165,156 C165,153.792481 163.207519,152 161,152" id="Fill-187" fill="#0F4068"></path>
            <path d="M187,152 C184.792481,152 183,153.792481 183,156 C183,158.207519 184.792481,160 187,160 C189.207519,160 191,158.207519 191,156 C191,153.792481 189.207519,152 187,152" id="Fill-189" fill="#0F4068"></path>
            <path d="M213,152 C210.792481,152 209,153.792481 209,156 C209,158.207519 210.792481,160 213,160 C215.210526,160 217,158.207519 217,156 C217,153.792481 215.210526,152 213,152" id="Fill-191" fill="#0F4068"></path>
            <path d="M240,152 C237.792481,152 236,153.792481 236,156 C236,158.207519 237.792481,160 240,160 C242.207519,160 244,158.207519 244,156 C244,153.792481 242.207519,152 240,152" id="Fill-193" fill="#0F4068"></path>
            <path d="M266,152 C263.792481,152 262,153.792481 262,156 C262,158.207519 263.792481,160 266,160 C268.207519,160 270,158.207519 270,156 C270,153.792481 268.207519,152 266,152" id="Fill-195" fill="#0F4068"></path>
            <path d="M292,152 C289.792481,152 288,153.792481 288,156 C288,158.207519 289.792481,160 292,160 C294.207519,160 296,158.207519 296,156 C296,153.792481 294.207519,152 292,152" id="Fill-197" fill="#0F4068"></path>
            <g id="Group-201" transform="translate(314.000000, 151.000000)">
                <mask id="mask-6" fill="white">
                    <use xlink:href="#path-5"></use>
                </mask>
                <g id="Clip-200"></g>
                <path d="M4.2919,8.9611 C6.4969,8.9611 8.2819,7.1731 8.2819,4.9711 C8.2819,2.7691 6.4969,0.9811 4.2919,0.9811 C2.0899,0.9811 0.3019,2.7691 0.3019,4.9711 C0.3019,7.1731 2.0899,8.9611 4.2919,8.9611" id="Fill-199" fill="#0F4068" mask="url(#mask-6)"></path>
            </g>
            <path d="M17,170 C14.7924812,170 13,171.793155 13,174.001504 C13,176.209853 14.7924812,178 17,178 C19.2075188,178 21,176.209853 21,174.001504 C21,171.793155 19.2075188,170 17,170" id="Fill-202" fill="#0F4068"></path>
            <path d="M43,170 C40.7924812,170 39,171.793155 39,174.001504 C39,176.209853 40.7924812,178 43,178 C45.2075188,178 47,176.209853 47,174.001504 C47,171.793155 45.2075188,170 43,170" id="Fill-204" fill="#0F4068"></path>
            <path d="M69,170 C66.7924812,170 65,171.793155 65,174.001504 C65,176.209853 66.7924812,178 69,178 C71.2075188,178 73,176.209853 73,174.001504 C73,171.793155 71.2075188,170 69,170" id="Fill-206" fill="#0F4068"></path>
            <path d="M95,170 C92.7924812,170 91,171.793155 91,174.001504 C91,176.209853 92.7924812,178 95,178 C97.2075188,178 99,176.209853 99,174.001504 C99,171.793155 97.2075188,170 95,170" id="Fill-208" fill="#0F4068"></path>
            <path d="M122,170 C119.789474,170 118,171.793155 118,174.001504 C118,176.209853 119.789474,178 122,178 C124.207519,178 126,176.209853 126,174.001504 C126,171.793155 124.207519,170 122,170" id="Fill-210" fill="#0F4068"></path>
            <path d="M148,170 C145.792481,170 144,171.793155 144,174.001504 C144,176.209853 145.792481,178 148,178 C150.207519,178 152,176.209853 152,174.001504 C152,171.793155 150.207519,170 148,170" id="Fill-212" fill="#0F4068"></path>
            <path d="M174,170 C171.792481,170 170,171.793155 170,174.001504 C170,176.209853 171.792481,178 174,178 C176.207519,178 178,176.209853 178,174.001504 C178,171.793155 176.207519,170 174,170" id="Fill-214" fill="#0F4068"></path>
            <path d="M200,170 C197.792481,170 196,171.793155 196,174.001504 C196,176.209853 197.792481,178 200,178 C202.207519,178 204,176.209853 204,174.001504 C204,171.793155 202.207519,170 200,170" id="Fill-216" fill="#0F4068"></path>
            <path d="M227,170 C224.792481,170 223,171.793155 223,174.001504 C223,176.209853 224.792481,178 227,178 C229.207519,178 231,176.209853 231,174.001504 C231,171.793155 229.207519,170 227,170" id="Fill-218" fill="#0F4068"></path>
            <path d="M253,170 C250.792481,170 249,171.793155 249,174.001504 C249,176.209853 250.792481,178 253,178 C255.207519,178 257,176.209853 257,174.001504 C257,171.793155 255.207519,170 253,170" id="Fill-220" fill="#0F4068"></path>
            <path d="M279,170 C276.792481,170 275,171.793155 275,174.001504 C275,176.209853 276.792481,178 279,178 C281.207519,178 283,176.209853 283,174.001504 C283,171.793155 281.207519,170 279,170" id="Fill-222" fill="#0F4068"></path>
            <path d="M305,170 C302.792481,170 301,171.793155 301,174.001504 C301,176.209853 302.792481,178 305,178 C307.210526,178 309,176.209853 309,174.001504 C309,171.793155 307.210526,170 305,170" id="Fill-224" fill="#0F4068"></path>
            <path d="M4,186 C1.7924812,186 0,187.793155 0,190.001504 C0,192.209853 1.7924812,194 4,194 C6.2075188,194 8,192.209853 8,190.001504 C8,187.793155 6.2075188,186 4,186" id="Fill-226" fill="#0F4068"></path>
            <path d="M30,186 C27.7924812,186 26,187.793155 26,190.001504 C26,192.209853 27.7924812,194 30,194 C32.2075188,194 34,192.209853 34,190.001504 C34,187.793155 32.2075188,186 30,186" id="Fill-228" fill="#0F4068"></path>
            <path d="M56,186 C53.7924812,186 52,187.793155 52,190.001504 C52,192.209853 53.7924812,194 56,194 C58.2075188,194 60,192.209853 60,190.001504 C60,187.793155 58.2075188,186 56,186" id="Fill-230" fill="#0F4068"></path>
            <path d="M82,186 C79.7924812,186 78,187.793155 78,190.001504 C78,192.209853 79.7924812,194 82,194 C84.2075188,194 86,192.209853 86,190.001504 C86,187.793155 84.2075188,186 82,186" id="Fill-232" fill="#0F4068"></path>
            <path d="M109,186 C106.792481,186 105,187.793155 105,190.001504 C105,192.209853 106.792481,194 109,194 C111.207519,194 113,192.209853 113,190.001504 C113,187.793155 111.207519,186 109,186" id="Fill-234" fill="#0F4068"></path>
            <path d="M135,186 C132.789474,186 131,187.793155 131,190.001504 C131,192.209853 132.789474,194 135,194 C137.207519,194 139,192.209853 139,190.001504 C139,187.793155 137.207519,186 135,186" id="Fill-236" fill="#0F4068"></path>
            <path d="M161,186 C158.792481,186 157,187.793155 157,190.001504 C157,192.209853 158.792481,194 161,194 C163.207519,194 165,192.209853 165,190.001504 C165,187.793155 163.207519,186 161,186" id="Fill-238" fill="#0F4068"></path>
            <path d="M187,186 C184.792481,186 183,187.793155 183,190.001504 C183,192.209853 184.792481,194 187,194 C189.207519,194 191,192.209853 191,190.001504 C191,187.793155 189.207519,186 187,186" id="Fill-240" fill="#0F4068"></path>
            <path d="M213,186 C210.792481,186 209,187.793155 209,190.001504 C209,192.209853 210.792481,194 213,194 C215.210526,194 217,192.209853 217,190.001504 C217,187.793155 215.210526,186 213,186" id="Fill-242" fill="#0F4068"></path>
            <path d="M240,186 C237.792481,186 236,187.793155 236,190.001504 C236,192.209853 237.792481,194 240,194 C242.207519,194 244,192.209853 244,190.001504 C244,187.793155 242.207519,186 240,186" id="Fill-244" fill="#0F4068"></path>
            <path d="M266,186 C263.792481,186 262,187.793155 262,190.001504 C262,192.209853 263.792481,194 266,194 C268.207519,194 270,192.209853 270,190.001504 C270,187.793155 268.207519,186 266,186" id="Fill-246" fill="#0F4068"></path>
            <path d="M292,186 C289.792481,186 288,187.793155 288,190.001504 C288,192.209853 289.792481,194 292,194 C294.207519,194 296,192.209853 296,190.001504 C296,187.793155 294.207519,186 292,186" id="Fill-248" fill="#0F4068"></path>
            <g id="Group-252" transform="translate(314.000000, 185.000000)">
                <mask id="mask-8" fill="white">
                    <use xlink:href="#path-7"></use>
                </mask>
                <g id="Clip-251"></g>
                <path d="M4.2919,0.8558 C2.0899,0.8558 0.3019,2.6438 0.3019,4.8458 C0.3019,7.0478 2.0899,8.8328 4.2919,8.8328 C6.4969,8.8328 8.2819,7.0478 8.2819,4.8458 C8.2819,2.6438 6.4969,0.8558 4.2919,0.8558" id="Fill-250" fill="#0F4068" mask="url(#mask-8)"></path>
            </g>
            <path d="M17,205 C14.7924812,205 13,206.790147 13,209.001504 C13,211.209853 14.7924812,213 17,213 C19.2075188,213 21,211.209853 21,209.001504 C21,206.790147 19.2075188,205 17,205" id="Fill-253" fill="#0F4068"></path>
            <path d="M43,205 C40.7924812,205 39,206.790147 39,209.001504 C39,211.209853 40.7924812,213 43,213 C45.2075188,213 47,211.209853 47,209.001504 C47,206.790147 45.2075188,205 43,205" id="Fill-255" fill="#0F4068"></path>
            <path d="M69,205 C66.7924812,205 65,206.790147 65,209.001504 C65,211.209853 66.7924812,213 69,213 C71.2075188,213 73,211.209853 73,209.001504 C73,206.790147 71.2075188,205 69,205" id="Fill-257" fill="#0F4068"></path>
            <path d="M95,205 C92.7924812,205 91,206.790147 91,209.001504 C91,211.209853 92.7924812,213 95,213 C97.2075188,213 99,211.209853 99,209.001504 C99,206.790147 97.2075188,205 95,205" id="Fill-259" fill="#0F4068"></path>
            <path d="M122,205 C119.789474,205 118,206.790147 118,209.001504 C118,211.209853 119.789474,213 122,213 C124.207519,213 126,211.209853 126,209.001504 C126,206.790147 124.207519,205 122,205" id="Fill-261" fill="#0F4068"></path>
            <path d="M148,205 C145.792481,205 144,206.790147 144,209.001504 C144,211.209853 145.792481,213 148,213 C150.207519,213 152,211.209853 152,209.001504 C152,206.790147 150.207519,205 148,205" id="Fill-263" fill="#0F4068"></path>
            <path d="M174,205 C171.792481,205 170,206.790147 170,209.001504 C170,211.209853 171.792481,213 174,213 C176.207519,213 178,211.209853 178,209.001504 C178,206.790147 176.207519,205 174,205" id="Fill-265" fill="#0F4068"></path>
            <path d="M200,205 C197.792481,205 196,206.790147 196,209.001504 C196,211.209853 197.792481,213 200,213 C202.207519,213 204,211.209853 204,209.001504 C204,206.790147 202.207519,205 200,205" id="Fill-267" fill="#0F4068"></path>
            <path d="M227,205 C224.792481,205 223,206.790147 223,209.001504 C223,211.209853 224.792481,213 227,213 C229.207519,213 231,211.209853 231,209.001504 C231,206.790147 229.207519,205 227,205" id="Fill-269" fill="#0F4068"></path>
            <path d="M253,205 C250.792481,205 249,206.790147 249,209.001504 C249,211.209853 250.792481,213 253,213 C255.207519,213 257,211.209853 257,209.001504 C257,206.790147 255.207519,205 253,205" id="Fill-271" fill="#0F4068"></path>
            <path d="M279,205 C276.792481,205 275,206.790147 275,209.001504 C275,211.209853 276.792481,213 279,213 C281.207519,213 283,211.209853 283,209.001504 C283,206.790147 281.207519,205 279,205" id="Fill-273" fill="#0F4068"></path>
            <path d="M305,205 C302.792481,205 301,206.790147 301,209.001504 C301,211.209853 302.792481,213 305,213 C307.210526,213 309,211.209853 309,209.001504 C309,206.790147 307.210526,205 305,205" id="Fill-275" fill="#0F4068"></path>
            <path d="M7.262,226 C7.415,225.60958 7.466,225.163386 7.466,224.720472 C7.466,223.165354 6.701,221.774278 5.534,221 C6.092,222.663386 6.701,224.330052 7.262,226" id="Fill-277" fill="#0F4068"></path>
            <path d="M30,221 C27.7924812,221 26,222.793155 26,225.001504 C26,227.209853 27.7924812,229 30,229 C32.2075188,229 34,227.209853 34,225.001504 C34,222.793155 32.2075188,221 30,221" id="Fill-279" fill="#0F4068"></path>
            <path d="M56,221 C53.7924812,221 52,222.793155 52,225.001504 C52,227.209853 53.7924812,229 56,229 C58.2075188,229 60,227.209853 60,225.001504 C60,222.793155 58.2075188,221 56,221" id="Fill-281" fill="#0F4068"></path>
            <path d="M82,221 C79.7924812,221 78,222.793155 78,225.001504 C78,227.209853 79.7924812,229 82,229 C84.2075188,229 86,227.209853 86,225.001504 C86,222.793155 84.2075188,221 82,221" id="Fill-283" fill="#0F4068"></path>
            <path d="M109,221 C106.792481,221 105,222.793155 105,225.001504 C105,227.209853 106.792481,229 109,229 C111.207519,229 113,227.209853 113,225.001504 C113,222.793155 111.207519,221 109,221" id="Fill-285" fill="#0F4068"></path>
            <path d="M135,221 C132.789474,221 131,222.793155 131,225.001504 C131,227.209853 132.789474,229 135,229 C137.207519,229 139,227.209853 139,225.001504 C139,222.793155 137.207519,221 135,221" id="Fill-287" fill="#0F4068"></path>
            <path d="M161,221 C158.792481,221 157,222.793155 157,225.001504 C157,227.209853 158.792481,229 161,229 C163.207519,229 165,227.209853 165,225.001504 C165,222.793155 163.207519,221 161,221" id="Fill-289" fill="#0F4068"></path>
            <path d="M187,221 C184.792481,221 183,222.793155 183,225.001504 C183,227.209853 184.792481,229 187,229 C189.207519,229 191,227.209853 191,225.001504 C191,222.793155 189.207519,221 187,221" id="Fill-291" fill="#0F4068"></path>
            <path d="M213,221 C210.792481,221 209,222.793155 209,225.001504 C209,227.209853 210.792481,229 213,229 C215.210526,229 217,227.209853 217,225.001504 C217,222.793155 215.210526,221 213,221" id="Fill-293" fill="#0F4068"></path>
            <path d="M240,221 C237.792481,221 236,222.793155 236,225.001504 C236,227.209853 237.792481,229 240,229 C242.207519,229 244,227.209853 244,225.001504 C244,222.793155 242.207519,221 240,221" id="Fill-295" fill="#0F4068"></path>
            <path d="M266,221 C263.792481,221 262,222.793155 262,225.001504 C262,227.209853 263.792481,229 266,229 C268.207519,229 270,227.209853 270,225.001504 C270,222.793155 268.207519,221 266,221" id="Fill-297" fill="#0F4068"></path>
            <path d="M292,221 C289.792481,221 288,222.793155 288,225.001504 C288,227.209853 289.792481,229 292,229 C294.207519,229 296,227.209853 296,225.001504 C296,222.793155 294.207519,221 292,221" id="Fill-299" fill="#0F4068"></path>
            <path d="M314.738,226 C315.299,224.330052 315.908,222.663386 316.466,221 C315.299,221.774278 314.534,223.165354 314.534,224.720472 C314.534,225.163386 314.585,225.60958 314.738,226" id="Fill-301" fill="#0F4068"></path>
            <path d="M16.8644902,239 C15.75,239 14.7419499,239.417178 14,240.088957 C15.1677102,242.429448 16.4919499,244.714724 17.8193202,247 C19.6225403,246.638037 21,245.027607 21,243.052147 C21,240.819018 19.1435599,239 16.8644902,239" id="Fill-303" fill="#0F4068"></path>
            <path d="M43,239 C40.7924812,239 39,240.790147 39,242.998496 C39,245.206845 40.7924812,247 43,247 C45.2075188,247 47,245.206845 47,242.998496 C47,240.790147 45.2075188,239 43,239" id="Fill-305" fill="#0F4068"></path>
            <path d="M69,239 C66.7924812,239 65,240.790147 65,242.998496 C65,245.206845 66.7924812,247 69,247 C71.2075188,247 73,245.206845 73,242.998496 C73,240.790147 71.2075188,239 69,239" id="Fill-307" fill="#0F4068"></path>
            <path d="M95,239 C92.7924812,239 91,240.790147 91,242.998496 C91,245.206845 92.7924812,247 95,247 C97.2075188,247 99,245.206845 99,242.998496 C99,240.790147 97.2075188,239 95,239" id="Fill-309" fill="#0F4068"></path>
            <path d="M122,239 C119.789474,239 118,240.790147 118,242.998496 C118,245.206845 119.789474,247 122,247 C124.207519,247 126,245.206845 126,242.998496 C126,240.790147 124.207519,239 122,239" id="Fill-311" fill="#0F4068"></path>
            <path d="M148,239 C145.792481,239 144,240.790147 144,242.998496 C144,245.206845 145.792481,247 148,247 C150.207519,247 152,245.206845 152,242.998496 C152,240.790147 150.207519,239 148,239" id="Fill-313" fill="#0F4068"></path>
            <path d="M174,239 C171.792481,239 170,240.790147 170,242.998496 C170,245.206845 171.792481,247 174,247 C176.207519,247 178,245.206845 178,242.998496 C178,240.790147 176.207519,239 174,239" id="Fill-315" fill="#0F4068"></path>
            <path d="M200,239 C197.792481,239 196,240.790147 196,242.998496 C196,245.206845 197.792481,247 200,247 C202.207519,247 204,245.206845 204,242.998496 C204,240.790147 202.207519,239 200,239" id="Fill-317" fill="#0F4068"></path>
            <path d="M227,239 C224.792481,239 223,240.790147 223,242.998496 C223,245.206845 224.792481,247 227,247 C229.207519,247 231,245.206845 231,242.998496 C231,240.790147 229.207519,239 227,239" id="Fill-319" fill="#0F4068"></path>
            <path d="M253,239 C250.792481,239 249,240.790147 249,242.998496 C249,245.206845 250.792481,247 253,247 C255.207519,247 257,245.206845 257,242.998496 C257,240.790147 255.207519,239 253,239" id="Fill-321" fill="#0F4068"></path>
            <path d="M279,239 C276.792481,239 275,240.790147 275,242.998496 C275,245.206845 276.792481,247 279,247 C281.207519,247 283,245.206845 283,242.998496 C283,240.790147 281.207519,239 279,239" id="Fill-323" fill="#0F4068"></path>
            <path d="M301,243.052147 C301,245.027607 302.37746,246.638037 304.18381,247 C305.50805,244.714724 306.83229,242.429448 308,240.088957 C307.25805,239.41411 306.25,239 305.13551,239 C302.85644,239 301,240.815951 301,243.052147" id="Fill-325" fill="#0F4068"></path>
            <path d="M30.0255735,255 C27.7811207,255 26,256.783459 26,258.972932 C26,259.228571 26,259.484211 26.0992854,259.736842 L26.0992854,259.790977 C26.7641971,260.705263 27.4261,261.574436 28.088003,262.488722 C28.6476119,262.795489 29.3125235,263 30.0255735,263 C32.2188793,263 34,261.213534 34,258.972932 C34,256.783459 32.2188793,255 30.0255735,255" id="Fill-327" fill="#0F4068"></path>
            <path d="M56,255 C53.7924812,255 52,256.793155 52,259.001504 C52,261.209853 53.7924812,263 56,263 C58.2075188,263 60,261.209853 60,259.001504 C60,256.793155 58.2075188,255 56,255" id="Fill-329" fill="#0F4068"></path>
            <path d="M82,255 C79.7924812,255 78,256.793155 78,259.001504 C78,261.209853 79.7924812,263 82,263 C84.2075188,263 86,261.209853 86,259.001504 C86,256.793155 84.2075188,255 82,255" id="Fill-331" fill="#0F4068"></path>
            <path d="M109,255 C106.792481,255 105,256.793155 105,259.001504 C105,261.209853 106.792481,263 109,263 C111.207519,263 113,261.209853 113,259.001504 C113,256.793155 111.207519,255 109,255" id="Fill-333" fill="#0F4068"></path>
            <path d="M135,255 C132.789474,255 131,256.793155 131,259.001504 C131,261.209853 132.789474,263 135,263 C137.207519,263 139,261.209853 139,259.001504 C139,256.793155 137.207519,255 135,255" id="Fill-335" fill="#0F4068"></path>
            <path d="M161,255 C158.792481,255 157,256.793155 157,259.001504 C157,261.209853 158.792481,263 161,263 C163.207519,263 165,261.209853 165,259.001504 C165,256.793155 163.207519,255 161,255" id="Fill-337" fill="#0F4068"></path>
            <path d="M187,255 C184.792481,255 183,256.793155 183,259.001504 C183,261.209853 184.792481,263 187,263 C189.207519,263 191,261.209853 191,259.001504 C191,256.793155 189.207519,255 187,255" id="Fill-339" fill="#0F4068"></path>
            <path d="M213,255 C210.792481,255 209,256.793155 209,259.001504 C209,261.209853 210.792481,263 213,263 C215.210526,263 217,261.209853 217,259.001504 C217,256.793155 215.210526,255 213,255" id="Fill-341" fill="#0F4068"></path>
            <path d="M240,255 C237.792481,255 236,256.793155 236,259.001504 C236,261.209853 237.792481,263 240,263 C242.207519,263 244,261.209853 244,259.001504 C244,256.793155 242.207519,255 240,255" id="Fill-343" fill="#0F4068"></path>
            <path d="M266,255 C263.792481,255 262,256.793155 262,259.001504 C262,261.209853 263.792481,263 266,263 C268.207519,263 270,261.209853 270,259.001504 C270,256.793155 268.207519,255 266,255" id="Fill-345" fill="#0F4068"></path>
            <path d="M292.025574,255 C289.832268,255 288,256.783459 288,258.972932 C288,261.213534 289.832268,263 292.025574,263 C292.738624,263 293.403535,262.795489 293.963144,262.488722 C294.625047,261.574436 295.28695,260.705263 295.900715,259.790977 C295.948853,259.535338 296,259.228571 296,258.972932 C296,256.783459 294.218879,255 292.025574,255" id="Fill-347" fill="#0F4068"></path>
            <path d="M42.8943279,274 C41.1041181,274 39.5780886,275.098765 39,276.719136 C40.6845377,278.496914 42.3690754,280.274691 44.1064491,282 C45.7909868,281.527778 47,279.962963 47,278.132716 C47,275.830247 45.1569542,274 42.8943279,274" id="Fill-349" fill="#0F4068"></path>
            <path d="M69,274 C66.7924812,274 65,275.792481 65,278 C65,280.207519 66.7924812,282 69,282 C71.2075188,282 73,280.207519 73,278 C73,275.792481 71.2075188,274 69,274" id="Fill-351" fill="#0F4068"></path>
            <path d="M95,274 C92.7924812,274 91,275.792481 91,278 C91,280.207519 92.7924812,282 95,282 C97.2075188,282 99,280.207519 99,278 C99,275.792481 97.2075188,274 95,274" id="Fill-353" fill="#0F4068"></path>
            <path d="M122,274 C119.789474,274 118,275.792481 118,278 C118,280.207519 119.789474,282 122,282 C124.207519,282 126,280.207519 126,278 C126,275.792481 124.207519,274 122,274" id="Fill-355" fill="#0F4068"></path>
            <path d="M148,274 C145.792481,274 144,275.792481 144,278 C144,280.207519 145.792481,282 148,282 C150.207519,282 152,280.207519 152,278 C152,275.792481 150.207519,274 148,274" id="Fill-357" fill="#0F4068"></path>
            <path d="M174,274 C171.792481,274 170,275.792481 170,278 C170,280.207519 171.792481,282 174,282 C176.207519,282 178,280.207519 178,278 C178,275.792481 176.207519,274 174,274" id="Fill-359" fill="#0F4068"></path>
            <path d="M200,274 C197.792481,274 196,275.792481 196,278 C196,280.207519 197.792481,282 200,282 C202.207519,282 204,280.207519 204,278 C204,275.792481 202.207519,274 200,274" id="Fill-361" fill="#0F4068"></path>
            <path d="M227,274 C224.792481,274 223,275.792481 223,278 C223,280.207519 224.792481,282 227,282 C229.207519,282 231,280.207519 231,278 C231,275.792481 229.207519,274 227,274" id="Fill-363" fill="#0F4068"></path>
            <path d="M253,274 C250.792481,274 249,275.792481 249,278 C249,280.207519 250.792481,282 253,282 C255.207519,282 257,280.207519 257,278 C257,275.792481 255.207519,274 253,274" id="Fill-365" fill="#0F4068"></path>
            <path d="M279.156893,274 C276.892039,274 275,275.830247 275,278.132716 C275,279.962963 276.261359,281.527778 277.945243,282 C279.681942,280.274691 281.316117,278.549383 283,276.771605 C282.471845,275.151235 280.946408,274 279.156893,274" id="Fill-367" fill="#0F4068"></path>
            <path d="M56.1336585,290 C55.3404878,290 54.5970732,290.234547 54,290.607064 C55.884878,292.102649 57.7697561,293.598234 59.7512195,295 C59.9004878,294.627483 60,294.158389 60,293.692053 C60,291.636313 58.2673171,290 56.1336585,290" id="Fill-369" fill="#0F4068"></path>
            <path d="M82,290 C79.7924812,290 78,291.790147 78,294.001504 C78,296.206845 79.7924812,298 82,298 C84.2075188,298 86,296.206845 86,294.001504 C86,291.790147 84.2075188,290 82,290" id="Fill-371" fill="#0F4068"></path>
            <path d="M109,290 C106.792481,290 105,291.790147 105,294.001504 C105,296.206845 106.792481,298 109,298 C111.207519,298 113,296.206845 113,294.001504 C113,291.790147 111.207519,290 109,290" id="Fill-373" fill="#0F4068"></path>
            <path d="M135,290 C132.789474,290 131,291.790147 131,294.001504 C131,296.206845 132.789474,298 135,298 C137.207519,298 139,296.206845 139,294.001504 C139,291.790147 137.207519,290 135,290" id="Fill-375" fill="#0F4068"></path>
            <path d="M161,290 C158.792481,290 157,291.790147 157,294.001504 C157,296.206845 158.792481,298 161,298 C163.207519,298 165,296.206845 165,294.001504 C165,291.790147 163.207519,290 161,290" id="Fill-377" fill="#0F4068"></path>
            <path d="M187,290 C184.792481,290 183,291.790147 183,294.001504 C183,296.206845 184.792481,298 187,298 C189.207519,298 191,296.206845 191,294.001504 C191,291.790147 189.207519,290 187,290" id="Fill-379" fill="#0F4068"></path>
            <path d="M213,290 C210.792481,290 209,291.790147 209,294.001504 C209,296.206845 210.792481,298 213,298 C215.210526,298 217,296.206845 217,294.001504 C217,291.790147 215.210526,290 213,290" id="Fill-381" fill="#0F4068"></path>
            <path d="M240,290 C237.792481,290 236,291.790147 236,294.001504 C236,296.206845 237.792481,298 240,298 C242.207519,298 244,296.206845 244,294.001504 C244,291.790147 242.207519,290 240,290" id="Fill-383" fill="#0F4068"></path>
            <path d="M262,293.657736 C262,294.119738 262.098694,294.584472 262.296081,295 C264.261248,293.56479 266.130624,292.083106 268,290.601422 C267.361393,290.232367 266.670537,290 265.88389,290 C263.770682,290 262,291.621104 262,293.657736" id="Fill-385" fill="#0F4068"></path>
            <path d="M95.0255735,309 C92.7811207,309 91,310.784129 91,313.025574 C91,314.093644 91.4573148,315.113577 92.1703648,315.829635 C93.036856,316.235803 93.9033471,316.590824 94.7698383,316.951862 L94.8209853,317 L95.0255735,317 C97.2188793,317 99,315.215871 99,313.025574 C99,310.784129 97.2188793,309 95.0255735,309" id="Fill-387" fill="#0F4068"></path>
            <path d="M122,309 C119.789474,309 118,310.790147 118,312.998496 C118,315.206845 119.789474,317 122,317 C124.207519,317 126,315.206845 126,312.998496 C126,310.790147 124.207519,309 122,309" id="Fill-389" fill="#0F4068"></path>
            <path d="M148,309 C145.792481,309 144,310.790147 144,312.998496 C144,315.206845 145.792481,317 148,317 C150.207519,317 152,315.206845 152,312.998496 C152,310.790147 150.207519,309 148,309" id="Fill-391" fill="#0F4068"></path>
            <path d="M174,309 C171.792481,309 170,310.790147 170,312.998496 C170,315.206845 171.792481,317 174,317 C176.207519,317 178,315.206845 178,312.998496 C178,310.790147 176.207519,309 174,309" id="Fill-393" fill="#0F4068"></path>
            <path d="M200,309 C197.792481,309 196,310.790147 196,312.998496 C196,315.206845 197.792481,317 200,317 C202.207519,317 204,315.206845 204,312.998496 C204,310.790147 202.207519,309 200,309" id="Fill-395" fill="#0F4068"></path>
            <path d="M227.025574,309 C224.832268,309 223,310.784129 223,313.025574 C223,315.215871 224.832268,317 227.025574,317 L227.230162,317 L227.2783,316.951862 C228.093644,316.644979 228.911997,316.28695 229.778488,315.877774 L229.829635,315.829635 C230.542685,315.113577 231,314.093644 231,313.025574 C231,310.784129 229.218879,309 227.025574,309" id="Fill-397" fill="#0F4068"></path>
            <path d="M134.894328,325 C133.051282,325 131.525253,326.180924 131,327.770628 C133.629371,328.230886 136.317793,328.642695 139,329 C138.947164,326.795609 137.160062,325 134.894328,325" id="Fill-399" fill="#0F4068"></path>
            <path d="M161.025574,325 C158.784129,325 157,326.666667 157,328.655738 C157,329.120219 157.102294,329.584699 157.255735,329.95082 C158.528394,330 159.752915,330 161.025574,330 C162.250094,330 163.522753,330 164.747273,329.95082 C164.897706,329.584699 165,329.120219 165,328.655738 C165,326.666667 163.218879,325 161.025574,325" id="Fill-401" fill="#0F4068"></path>
            <path d="M187.156893,325 C184.839223,325 183.052816,326.795609 183,329 C185.733981,328.694171 188.368544,328.282362 191,327.770628 C190.471845,326.180924 188.946408,325 187.156893,325" id="Fill-403" fill="#0F4068"></path>
        </g>
    </g>
</svg>