<svg width="1080" height="1080" viewBox="0 0 1080 1080" fill="none" xmlns="http://www.w3.org/2000/svg">
<rect width="1080" height="1080" fill="white"/>
<path d="M297 740.789L265.094 1000H196.365L205.235 757.899L203.138 741.984L183.575 590.521L168 470L271.248 474.918L297 740.789Z" fill="#1C4670"/>
<path d="M230 587.176L203.562 743L184 591.148L209.647 510L230 587.176Z" fill="white"/>
<path d="M148.038 470C119.543 487.383 107.947 521.228 117.765 574.538L50 1000H124.88L230.135 586.56C252.609 553.842 264.342 534.581 249.154 474.952L148.038 470Z" fill="#1C4670"/>
<path d="M368 1074H191L196.559 1020.37L197.657 1009.15L198.618 1000H256.611V1000.69C256.611 1001.65 256.886 1002.61 257.058 1003.58C258.259 1008.81 262.342 1013.42 269.034 1017.58C279.877 1024.46 297.79 1030.03 321.914 1035.26C364.294 1044.48 368 1074 368 1074Z" fill="#FF827C"/>
<path d="M368 1074H191L192.716 1056.97L196.559 1020.76C213.717 1031.35 255.925 1029.38 269.034 1018C279.912 1024.81 297.79 1030.33 321.914 1035.51C342.229 1039.9 353.622 1048.86 360.039 1056.97C364.054 1061.92 366.787 1067.76 368 1074Z" fill="#FFA229"/>
<path d="M368 1074H191L192.716 1057H360.039C364.054 1061.94 366.787 1067.77 368 1074Z" fill="#0D005A"/>
<path d="M298.009 1055.99H297.686C297.556 1055.94 297.436 1055.86 297.334 1055.76C297.232 1055.66 297.15 1055.53 297.093 1055.39C297.035 1055.25 297.004 1055.1 297 1054.95C296.997 1054.8 297.021 1054.65 297.072 1054.5C298.473 1050.07 300.806 1046.08 303.873 1042.87C306.941 1039.65 310.653 1037.31 314.698 1036.04C314.959 1035.96 315.237 1036 315.473 1036.15C315.708 1036.3 315.882 1036.54 315.957 1036.83C315.996 1036.98 316.009 1037.13 315.994 1037.28C315.979 1037.43 315.937 1037.58 315.871 1037.71C315.805 1037.84 315.715 1037.96 315.608 1038.05C315.501 1038.14 315.378 1038.21 315.247 1038.24C311.541 1039.44 308.144 1041.61 305.336 1044.57C302.529 1047.53 300.393 1051.19 299.106 1055.26C299.027 1055.51 298.874 1055.71 298.673 1055.85C298.473 1055.98 298.238 1056.03 298.009 1055.99Z" fill="white"/>
<path d="M300.792 1042.99C283.749 1041.35 267.113 1036.66 251.626 1029.13C251.496 1029.07 251.379 1028.99 251.282 1028.88C251.185 1028.77 251.11 1028.64 251.062 1028.5C251.014 1028.36 250.993 1028.22 251.002 1028.07C251.01 1027.92 251.047 1027.78 251.111 1027.65C251.17 1027.51 251.254 1027.39 251.359 1027.29C251.464 1027.19 251.588 1027.11 251.723 1027.06C251.857 1027.01 252 1026.99 252.143 1027C252.286 1027.01 252.425 1027.05 252.554 1027.11C267.817 1034.52 284.207 1039.13 300.998 1040.76C301.142 1040.77 301.281 1040.81 301.41 1040.87C301.538 1040.94 301.652 1041.03 301.745 1041.15C301.838 1041.26 301.908 1041.39 301.951 1041.53C301.994 1041.67 302.009 1041.82 301.995 1041.97C301.982 1042.12 301.94 1042.26 301.873 1042.39C301.805 1042.53 301.713 1042.64 301.601 1042.74C301.489 1042.83 301.36 1042.91 301.222 1042.95C301.083 1042.99 300.937 1043.01 300.792 1042.99Z" fill="white"/>
<path d="M257 1000V1000.75C237.264 1005.55 217.199 1008.65 197 1010L197.978 1000.04L257 1000Z" fill="#0D005A"/>
<path d="M216 1074H40L47.238 1021.07L48.7061 1010.03L49.9694 1001H107.669V1001.68C107.669 1002.63 107.874 1003.58 108.01 1004.53C109.068 1009.69 112.961 1014.24 119.482 1018.35C130.066 1025.14 147.683 1030.64 171.513 1035.8C213.337 1044.87 216 1074 216 1074Z" fill="#FF827C"/>
<path d="M216 1074H40L42.2529 1056.97L47.2366 1020.76C63.9969 1031.35 106.017 1029.38 119.432 1018C130.014 1024.81 147.628 1030.33 171.454 1035.51C191.525 1039.9 202.551 1048.86 208.695 1056.97C212.52 1061.95 215.032 1067.8 216 1074Z" fill="#FFA229"/>
<path d="M216 1074H40L42.2529 1057H208.695C212.52 1061.97 215.032 1067.81 216 1074Z" fill="#0D005A"/>
<path d="M147.039 1055.97C146.92 1056.01 146.794 1056.01 146.675 1055.97C146.545 1055.92 146.425 1055.84 146.324 1055.74C146.223 1055.64 146.142 1055.51 146.087 1055.37C146.031 1055.23 146.001 1055.08 146 1054.93C145.999 1054.78 146.025 1054.63 146.078 1054.49C147.659 1050.05 150.163 1046.07 153.395 1042.87C156.626 1039.67 160.496 1037.33 164.697 1036.05C164.828 1036 164.965 1035.99 165.101 1036.01C165.236 1036.02 165.367 1036.07 165.485 1036.15C165.603 1036.22 165.706 1036.32 165.787 1036.44C165.868 1036.56 165.926 1036.7 165.956 1036.84C165.996 1036.99 166.009 1037.14 165.994 1037.29C165.979 1037.44 165.936 1037.59 165.868 1037.72C165.799 1037.85 165.708 1037.97 165.598 1038.06C165.488 1038.15 165.362 1038.22 165.227 1038.25C161.344 1039.45 157.768 1041.61 154.784 1044.57C151.799 1047.53 149.488 1051.22 148.033 1055.32C147.947 1055.53 147.806 1055.7 147.628 1055.82C147.451 1055.93 147.246 1055.99 147.039 1055.97Z" fill="white"/>
<path d="M150.832 1043C134.104 1041.38 117.781 1036.68 102.619 1029.13C102.49 1029.06 102.374 1028.98 102.279 1028.87C102.183 1028.76 102.109 1028.63 102.061 1028.49C102.014 1028.35 101.994 1028.21 102.002 1028.06C102.01 1027.91 102.047 1027.77 102.109 1027.63C102.234 1027.37 102.453 1027.17 102.72 1027.07C102.986 1026.97 103.279 1026.98 103.536 1027.1C118.499 1034.54 134.602 1039.17 151.104 1040.76C151.355 1040.81 151.583 1040.95 151.746 1041.15C151.91 1041.36 152 1041.62 152 1041.88C152 1042.15 151.91 1042.41 151.746 1042.61C151.583 1042.82 151.355 1042.95 151.104 1043H150.832Z" fill="white"/>
<path d="M108 1000V1000.75C88.5881 1005.54 68.8592 1008.64 49 1010L50.2641 1000.04L108 1000Z" fill="#0D005A"/>
<path d="M538.831 388.27C548.187 379.791 544.554 369.158 530.263 378.863C519.056 386.449 499.075 390.026 485.983 387.674L472 403.342C509.871 406.986 531.908 394.597 538.831 388.27Z" fill="#E43D4E"/>
<path d="M419 372.159C425.085 372.159 432.802 374.224 442.389 368.198C457.211 358.923 466.39 370.026 488.929 357.84C502.527 350.393 512.08 359.126 500.317 366.438C490.595 372.464 481.892 372.362 477.268 378.015C476.758 378.655 476.424 379.416 476.299 380.223C476.174 381.03 476.262 381.856 476.554 382.619C476.836 383.385 477.319 384.063 477.953 384.581C478.586 385.099 479.348 385.438 480.158 385.564C493.756 387.933 517.281 380.554 528.703 369.654C541.894 357.129 547.333 367.826 539.106 378.32C530.879 388.814 496.17 415.285 424.779 400.729L419 372.159Z" fill="#FF827C"/>
<path d="M420.19 165.095C412.267 165.855 404.901 169.498 399.499 175.33C399.097 175.679 398.72 176.055 398.37 176.456L341.802 240.559C313.415 234.452 260.199 233.326 208.419 234.009V230.904C208.419 227.285 206.977 223.814 204.412 221.255C201.846 218.696 198.367 217.258 194.738 217.258H135.058C131.429 217.258 127.95 218.696 125.384 221.255C122.819 223.814 121.377 227.285 121.377 230.904V242.742C106.161 250.177 93.969 262.604 86.8456 277.94C79.7222 293.275 78.1002 310.587 82.2516 326.974C93.5889 371.979 113.186 414.499 140.051 452.383C140.051 452.383 123.429 467.223 146.891 475.957C186.188 490.285 276.615 484.895 284.858 464.357C285.854 462.603 286.118 460.529 285.593 458.582C285.068 456.635 283.797 454.972 282.053 453.952C283.148 454.123 284.242 454.396 285.473 454.498L420.259 458.353C444.199 409.602 422.516 371.802 422.516 371.802H303.976C295.469 371.791 287.046 370.122 279.18 366.889C279.224 346.228 277.3 325.609 273.434 305.31L324.496 319.605C339.791 323.935 355.984 323.998 371.312 319.787C386.641 315.576 400.518 307.254 411.435 295.724C424.05 282.68 435.708 268.747 446.32 254.035C451.218 247.225 455.336 239.89 458.598 232.167C471.765 198.665 454.357 162.912 420.19 165.095Z" fill="#6893E6"/>
<path d="M196.984 75.7886C217.266 69.6549 218.741 43.45 179.826 34.8968C146.47 27.4681 121.487 28.8653 100.314 36.5666C98.6787 37.1894 97.1979 38.155 95.9725 39.3976C94.7471 40.6402 93.8059 42.1306 93.2131 43.7671C92.6203 45.4036 92.3898 47.1479 92.5374 48.8808C92.685 50.6138 93.2072 52.2949 94.0683 53.8093C94.5737 54.7277 95.184 55.5853 95.8871 56.365C93.5684 56.4999 91.2691 56.8652 89.0237 57.4555C86.8416 58.1068 84.8148 59.1899 83.0655 60.6397C81.3161 62.0895 79.8804 63.8758 78.8447 65.8912C77.8091 67.9066 77.195 70.1093 77.0394 72.3666C76.8838 74.6239 77.19 76.8892 77.9394 79.0259C82.9777 94.6945 90.7229 109.373 100.829 122.405C87.102 138.932 91.2543 164.285 114.761 158.322C94.1713 190.286 120.767 211.345 144.892 190.933C169.016 170.521 152.784 107.548 152.784 107.548C152.784 107.548 185.008 102.13 196.984 75.7886Z" fill="#0D005A"/>
<path d="M214.771 154.904C212.593 160.99 208.936 166.44 204.127 170.763C199.319 175.086 193.51 178.146 187.224 179.669L190.638 201.943L193.676 222.648C195.041 234.587 136.09 235.337 137.456 223.501C139.913 201.977 140.459 154.052 140.459 154.052C140.459 154.052 115.439 154.904 117.077 134.54C118.716 114.177 140.971 124.887 140.971 124.887C140.971 124.887 144.078 109.094 130.97 89.6511C130.725 89.2944 130.605 88.8661 130.631 88.4339C130.657 88.0018 130.826 87.5907 131.112 87.2656C131.398 86.9406 131.785 86.7203 132.21 86.6395C132.636 86.5588 133.076 86.6223 133.462 86.8199C150.905 95.2793 171.898 95.1088 175.448 88.7984C179.578 81.3623 166.641 74.1991 157.22 72.8347C170.874 68.605 181.114 82.1468 197.192 75.8705C197.798 83.0646 199.49 90.1256 202.209 96.8143L202.721 98.3834C204.701 103.909 206.886 109.674 208.934 115.439C214.02 130.14 218.15 144.808 214.771 154.904Z" fill="#FF827C"/>
<path d="M138.809 134.986H138.418C134.266 133.146 129.692 132.841 125.372 134.116C125.117 134.21 124.838 134.191 124.595 134.063C124.352 133.934 124.163 133.706 124.067 133.427C123.971 133.143 123.978 132.828 124.088 132.551C124.198 132.273 124.401 132.054 124.654 131.941C129.513 130.428 134.685 130.747 139.364 132.847C139.489 132.902 139.603 132.985 139.699 133.091C139.795 133.196 139.871 133.322 139.923 133.46C139.975 133.599 140.001 133.747 140 133.897C139.999 134.047 139.971 134.195 139.918 134.333C139.822 134.561 139.662 134.748 139.462 134.865C139.262 134.983 139.033 135.025 138.809 134.986Z" fill="#0D005A"/>
<path d="M188.495 133.979C186.563 134.077 184.63 133.837 182.782 133.271C182.522 133.153 182.319 132.938 182.217 132.673C182.115 132.408 182.123 132.114 182.238 131.854C182.369 131.608 182.589 131.42 182.853 131.326C183.117 131.232 183.407 131.24 183.666 131.348C187.333 131.993 191.085 131.993 194.751 131.348C195.141 131.278 195.509 131.12 195.828 130.886C196.146 130.652 196.406 130.349 196.587 130C196.754 129.646 196.841 129.26 196.841 128.87C196.841 128.48 196.754 128.094 196.587 127.74C194.91 124.86 193 122.12 190.875 119.546C186.522 113.915 182 108.115 182 102.079C182 101.793 182.115 101.518 182.319 101.316C182.523 101.114 182.8 101 183.088 101C183.377 101 183.653 101.114 183.858 101.316C184.062 101.518 184.176 101.793 184.176 102.079C184.176 107.407 188.461 112.903 192.575 118.231C194.793 120.911 196.773 123.777 198.492 126.796C198.826 127.443 199 128.16 199 128.887C199 129.614 198.826 130.33 198.492 130.978C198.159 131.624 197.678 132.183 197.088 132.611C196.497 133.039 195.813 133.322 195.091 133.439C192.909 133.782 190.704 133.963 188.495 133.979Z" fill="#0D005A"/>
<path d="M190.397 150.847C184.153 150.856 178.103 148.446 173.304 144.037C173.109 143.81 173 143.509 173 143.195C173 142.882 173.109 142.581 173.304 142.354C173.512 142.127 173.792 142 174.084 142C174.376 142 174.656 142.127 174.864 142.354C179.609 146.755 185.7 148.986 191.888 148.59C192.165 148.588 192.433 148.702 192.638 148.907C192.843 149.112 192.972 149.395 192.998 149.699C193.007 149.86 192.988 150.021 192.94 150.174C192.893 150.326 192.819 150.467 192.722 150.588C192.626 150.709 192.508 150.807 192.377 150.878C192.246 150.949 192.103 150.99 191.958 151L190.397 150.847Z" fill="#0D005A"/>
<path d="M190 202C180.049 196.951 166.688 184.429 163 174C169.506 180.078 177.961 181.075 186.66 180.311L190 202Z" fill="#0D005A"/>
<path d="M188.388 74H188.184C187.9 73.9509 187.647 73.7928 187.482 73.5603C187.316 73.3278 187.251 73.0399 187.3 72.76C188.142 69.3339 187.946 65.7397 186.738 62.4219C185.53 59.1041 183.361 56.2083 180.501 54.0927C171.969 47.7251 157.997 47.3899 145.759 53.3889C133.521 59.3879 122.677 60.0917 115.402 55.4333C112.575 53.514 110.314 50.8897 108.851 47.8282C107.388 44.7668 106.775 41.3775 107.074 38.006C107.099 37.7362 107.223 37.4847 107.424 37.2994C107.624 37.114 107.887 37.0077 108.162 37.0006C108.304 36.9956 108.446 37.0202 108.579 37.0728C108.711 37.1253 108.831 37.2048 108.93 37.3059C109.03 37.4069 109.106 37.5275 109.155 37.6596C109.205 37.7918 109.225 37.9327 109.215 38.0731C108.959 41.0591 109.509 44.0589 110.811 46.7669C112.113 49.4749 114.119 51.7945 116.626 53.4895C123.425 57.6787 133.623 56.8409 144.875 51.3781C157.793 45.044 172.682 45.4126 181.861 52.283C185.037 54.6371 187.446 57.8544 188.793 61.5398C190.139 65.2252 190.365 69.2181 189.442 73.0281C189.417 73.2891 189.296 73.5321 189.102 73.7111C188.908 73.8902 188.654 73.993 188.388 74Z" fill="#404ADD"/>
<path d="M159.927 90.8973C159.666 90.8937 159.413 90.7997 159.213 90.6312C159.013 90.4626 158.878 90.2301 158.83 89.9731C157.117 77.3421 141.932 73.6453 132.163 74.2957C121.689 74.6442 111.497 70.8703 103.782 63.787C101.263 61.1973 99.363 58.0727 98.2234 54.6467C97.0838 51.2207 96.7341 47.5818 97.2005 44.0019C97.204 43.8576 97.238 43.7157 97.3001 43.5853C97.3623 43.455 97.4512 43.3393 97.5612 43.2456C97.6712 43.1519 97.7997 43.0825 97.9383 43.0417C98.077 43.001 98.2227 42.9899 98.3659 43.0092C98.6505 43.0512 98.9094 43.1968 99.0929 43.418C99.2764 43.6391 99.3715 43.9203 99.36 44.2073C98.9103 47.4955 99.2134 50.8427 100.246 53.997C101.28 57.1512 103.016 60.0304 105.324 62.4178C112.598 69.0496 122.182 72.5757 132.026 72.2418C142.617 71.5915 159.07 75.6648 160.99 89.7677C161.029 90.0534 160.954 90.343 160.781 90.5737C160.607 90.8044 160.35 90.9576 160.064 91L159.927 90.8973Z" fill="#404ADD"/>
<path d="M99.3945 154.862C99.1711 154.862 98.9533 154.792 98.7703 154.663C98.5873 154.533 98.448 154.35 98.3713 154.138C94.9606 144.108 100.554 137.524 106.523 130.527C112.491 123.53 118.699 116.222 118.972 104.055C119.244 93.7142 116.379 85.9243 110.718 81.5122C108.827 79.9724 106.628 78.8666 104.272 78.2714C101.916 77.6762 99.4605 77.6059 97.0752 78.0653C92.6414 79.3752 87.048 80.5471 83.4327 78.0653C82.2759 77.1102 81.3625 75.8888 80.7691 74.5034C80.1757 73.118 79.9195 71.6091 80.022 70.103C80.0219 69.8163 80.1322 69.5409 80.3296 69.335C80.5269 69.1291 80.7958 69.009 81.0793 69C81.2182 69 81.3557 69.0276 81.484 69.0813C81.6122 69.135 81.7288 69.2137 81.827 69.313C81.9252 69.4122 82.003 69.53 82.0562 69.6596C82.1093 69.7893 82.1367 69.9282 82.1367 70.0685C82.0309 71.2241 82.1913 72.3888 82.6056 73.4713C83.0198 74.5537 83.6764 75.5245 84.5241 76.3074C87.3208 78.41 92.2662 77.307 96.2567 76.3074C98.9689 75.7312 101.773 75.7628 104.472 76.4C107.171 77.0372 109.699 78.2646 111.877 79.9956C116.209 83.4425 121.325 90.3363 120.984 104.331C120.643 117.291 113.924 125.012 107.989 132.147C102.055 139.282 97.2117 144.797 100.247 153.621C100.336 153.891 100.318 154.185 100.197 154.442C100.076 154.699 99.8622 154.899 99.5991 155L99.3945 154.862Z" fill="#404ADD"/>
<path d="M97.4704 113.999H97.0269C96.7658 113.883 96.5621 113.671 96.46 113.41C96.3578 113.148 96.3654 112.858 96.481 112.602C97.4226 110.39 97.8626 108.005 97.771 105.611C97.6794 103.217 97.0583 100.871 95.9502 98.7328C94.842 96.5947 93.2731 94.7151 91.3506 93.2229C89.4282 91.7306 87.1977 90.6607 84.8117 90.0865C84.5386 90.0159 84.3041 89.8447 84.1578 89.609C84.0114 89.3733 83.9645 89.0915 84.027 88.8228C84.0921 88.5503 84.2647 88.3138 84.5073 88.1644C84.75 88.015 85.0432 87.9648 85.3236 88.0246C88.0297 88.6495 90.563 89.8436 92.7457 91.5234C94.9285 93.2032 96.708 95.3279 97.9595 97.7487C99.211 100.169 99.9043 102.828 99.9908 105.537C100.077 108.247 99.5547 110.942 98.4599 113.434C98.3682 113.611 98.2261 113.758 98.0506 113.858C97.8751 113.959 97.6737 114.008 97.4704 113.999Z" fill="#404ADD"/>
<path d="M112.079 188C111.831 188.004 111.589 187.922 111.396 187.768C111.204 187.614 111.072 187.397 111.024 187.156C110.994 187.017 110.992 186.873 111.019 186.733C111.046 186.592 111.1 186.459 111.179 186.34C111.258 186.22 111.361 186.118 111.48 186.038C111.599 185.958 111.733 185.903 111.875 185.875C125.762 183.075 124.469 175.215 122.971 166.141C122.148 162.443 121.941 158.637 122.358 154.874C122.378 154.733 122.427 154.598 122.503 154.477C122.579 154.356 122.679 154.253 122.798 154.173C122.917 154.094 123.051 154.04 123.193 154.015C123.334 153.991 123.479 153.996 123.618 154.03C123.893 154.08 124.137 154.235 124.297 154.463C124.457 154.691 124.518 154.972 124.469 155.245C124.103 158.776 124.322 162.342 125.115 165.803C126.579 174.675 128.213 184.761 112.283 187.966L112.079 188Z" fill="#404ADD"/>
<path d="M177.974 115.191C178.156 117.931 177.382 120.65 175.776 122.913C174.169 125.176 171.824 126.852 169.116 127.672C167.316 128.109 165.433 128.109 163.633 127.672C161.822 127.218 160.125 126.409 158.648 125.297C157.17 124.185 155.944 122.793 155.043 121.205C154.807 118.417 155.554 115.634 157.163 113.308C158.771 110.983 161.146 109.253 163.901 108.401C165.789 107.866 167.796 107.866 169.684 108.401C171.48 108.909 173.146 109.775 174.574 110.945C176.002 112.115 177.16 113.561 177.974 115.191Z" fill="white"/>
<path d="M177.973 115.37C178.159 118.071 177.368 120.753 175.726 122.984C174.084 125.216 171.686 126.868 168.917 127.677C167.077 128.108 165.152 128.108 163.312 127.677C161.926 126.3 160.928 124.624 160.407 122.799C159.583 119.915 160.02 116.845 161.622 114.262C163.225 111.679 165.861 109.795 168.951 109.025C169.132 108.992 169.317 108.992 169.498 109.025C171.3 109.486 172.983 110.287 174.44 111.378C175.898 112.469 177.101 113.828 177.973 115.37Z" fill="#0D005A"/>
<path d="M208 115.845C207.026 116.651 205.918 117.253 204.735 117.621C203.004 118.126 201.177 118.126 199.445 117.621C197.661 117.157 195.989 116.297 194.537 115.096C193.085 113.896 191.888 112.382 191.022 110.654C190.859 107.715 191.622 104.802 193.19 102.378C194.758 99.9542 197.04 98.1593 199.674 97.2787C200.325 97.1004 200.994 97.0068 201.666 97L202.155 98.6023C203.951 103.967 206.041 109.853 208 115.845Z" fill="white"/>
<path d="M208 115.908C207.006 116.69 205.875 117.275 204.666 117.632C202.898 118.123 201.033 118.123 199.265 117.632C197.87 116.226 196.879 114.46 196.398 112.526C195.723 109.957 195.91 107.233 196.93 104.784C197.951 102.335 199.746 100.3 202.032 99C203.866 104.377 206 110.091 208 115.908Z" fill="#0D005A"/>
<path d="M458.619 232.163C455.373 239.875 451.275 247.2 446.401 254C408.69 253.796 392.217 212.778 399.807 175.304C405.183 169.48 412.513 165.842 420.398 165.084C454.399 163.04 471.723 198.743 458.619 232.163Z" fill="#0D005A"/>
<path opacity="0.2" d="M86.0785 306C85.8393 306 85.6068 305.92 85.4177 305.773C85.2285 305.626 85.0934 305.42 85.0336 305.187C84.9985 305.052 84.9908 304.91 85.011 304.772C85.0311 304.633 85.0787 304.5 85.151 304.38C85.2232 304.26 85.3187 304.156 85.4317 304.073C85.5447 303.991 85.6729 303.933 85.8089 303.901C116.759 295.947 143.802 277.02 161.951 250.61C162.019 250.47 162.116 250.346 162.237 250.246C162.357 250.147 162.497 250.075 162.648 250.036C162.798 249.996 162.955 249.989 163.109 250.016C163.262 250.044 163.407 250.104 163.535 250.193C163.663 250.282 163.771 250.397 163.85 250.532C163.929 250.666 163.978 250.817 163.994 250.972C164.01 251.127 163.993 251.285 163.942 251.433C163.892 251.581 163.811 251.716 163.704 251.829C145.286 278.685 117.805 297.93 86.3482 306H86.0785Z" fill="white"/>
<path opacity="0.2" d="M117.073 406C116.87 405.998 116.671 405.939 116.498 405.83C116.325 405.722 116.184 405.567 116.092 405.384C115.977 405.121 115.97 404.822 116.071 404.553C116.172 404.284 116.374 404.066 116.633 403.947C149.028 388.817 177.018 365.499 197.902 336.244C218.786 306.99 231.859 272.786 235.859 236.934C235.875 236.794 235.919 236.659 235.988 236.537C236.057 236.414 236.149 236.307 236.259 236.221C236.37 236.135 236.496 236.072 236.63 236.036C236.765 236 236.905 235.991 237.043 236.01C237.184 236.022 237.322 236.064 237.447 236.132C237.571 236.199 237.682 236.292 237.77 236.404C237.859 236.516 237.924 236.645 237.962 236.783C238 236.921 238.01 237.065 237.991 237.207C233.947 273.439 220.724 308.003 199.6 337.555C178.477 367.106 150.168 390.646 117.412 405.897C117.306 405.953 117.191 405.988 117.073 406Z" fill="white"/>
<path d="M199.662 465C181.663 465.004 163.784 461.741 146.722 455.341C146.459 455.229 146.244 455.012 146.118 454.731C145.992 454.45 145.966 454.127 146.044 453.826C146.086 453.675 146.155 453.535 146.247 453.414C146.338 453.293 146.451 453.195 146.578 453.124C146.704 453.053 146.842 453.012 146.984 453.002C147.125 452.993 147.267 453.015 147.4 453.068C169.451 461.347 192.826 464.291 215.974 461.704C216.233 461.72 216.479 461.84 216.667 462.041C216.854 462.242 216.97 462.511 216.995 462.8C217.02 463.089 216.951 463.378 216.801 463.615C216.651 463.852 216.43 464.021 216.177 464.091C210.65 464.697 205.156 465 199.662 465Z" fill="#0D005A"/>
<path opacity="0.2" d="M316.888 314C316.646 314.002 316.41 313.926 316.216 313.783C316.022 313.641 315.88 313.439 315.812 313.209C308.725 286.449 295.52 261.66 277.217 240.754C277.052 240.532 276.976 240.256 277.006 239.982C277.037 239.707 277.17 239.454 277.38 239.272C277.59 239.09 277.861 238.993 278.14 239C278.418 239.007 278.684 239.118 278.885 239.31C297.396 260.486 310.765 285.577 317.965 312.659C318.002 312.797 318.009 312.94 317.989 313.081C317.968 313.222 317.919 313.357 317.844 313.479C317.77 313.601 317.672 313.707 317.555 313.79C317.439 313.874 317.306 313.933 317.166 313.966L316.888 314Z" fill="white"/>
<path opacity="0.2" d="M297.092 451.962C296.901 452.013 296.7 452.013 296.51 451.962C296.265 451.806 296.091 451.559 296.027 451.275C295.963 450.991 296.013 450.692 296.167 450.445C309.634 428.066 318.055 402.988 320.836 376.98C320.843 376.834 320.882 376.691 320.948 376.562C321.014 376.432 321.107 376.318 321.22 376.226C321.333 376.135 321.465 376.069 321.605 376.033C321.746 375.996 321.892 375.99 322.035 376.015C322.32 376.049 322.58 376.195 322.76 376.421C322.939 376.646 323.023 376.933 322.994 377.221C320.179 403.547 311.652 428.932 298.017 451.583C297.904 451.715 297.761 451.818 297.6 451.884C297.439 451.95 297.265 451.977 297.092 451.962Z" fill="white"/>
<path opacity="0.2" d="M354.898 318C354.64 318.002 354.389 317.909 354.194 317.738C353.999 317.568 353.873 317.331 353.84 317.073C349.088 283.092 353.583 248.45 366.848 216.832C366.886 216.678 366.957 216.534 367.057 216.41C367.156 216.285 367.281 216.185 367.423 216.114C367.565 216.043 367.72 216.005 367.879 216C368.037 215.996 368.194 216.027 368.34 216.09C368.485 216.153 368.616 216.247 368.721 216.366C368.827 216.484 368.906 216.624 368.952 216.777C368.998 216.929 369.011 217.09 368.99 217.247C368.968 217.405 368.913 217.557 368.828 217.691C355.733 248.945 351.308 283.183 356.025 316.764C356.064 317.051 355.989 317.341 355.817 317.572C355.644 317.804 355.388 317.957 355.103 318H354.898Z" fill="white"/>
<path opacity="0.2" d="M423.921 438C423.675 437.989 423.438 437.907 423.239 437.764C403.029 421.94 386.335 402.174 374.199 379.698C374.11 379.573 374.049 379.431 374.02 379.281C373.99 379.132 373.994 378.977 374.029 378.829C374.065 378.681 374.132 378.541 374.226 378.42C374.321 378.3 374.44 378.2 374.576 378.128C374.712 378.056 374.862 378.013 375.016 378.003C375.17 377.992 375.325 378.014 375.47 378.067C375.615 378.12 375.747 378.203 375.857 378.31C375.967 378.417 376.053 378.545 376.109 378.688C388.117 400.862 404.626 420.354 424.603 435.945C424.822 436.129 424.961 436.388 424.993 436.67C425.025 436.952 424.946 437.235 424.774 437.461C424.686 437.612 424.563 437.74 424.415 437.834C424.266 437.928 424.097 437.985 423.921 438Z" fill="white"/>
<path d="M424.863 245C440.104 233.59 448.678 219.965 467.594 202.663C486.51 185.36 513.863 196.736 520.055 190.401C526.247 184.065 521.45 150.107 516.857 148.847C506.242 145.849 487.871 146.633 470.043 150.243C440.172 156.272 417.854 178.003 402 200.074C402.012 208.835 404.089 217.469 408.062 225.276C412.034 233.082 417.791 239.84 424.863 245Z" fill="#FF827C"/>
<path d="M454.943 186C452.121 186.003 449.322 185.456 446.677 184.383C446.415 184.269 446.205 184.047 446.091 183.765C445.978 183.484 445.97 183.165 446.07 182.877C446.114 182.734 446.186 182.602 446.279 182.491C446.372 182.379 446.486 182.289 446.613 182.227C446.739 182.165 446.876 182.132 447.015 182.13C447.154 182.128 447.291 182.157 447.419 182.216C452.613 184.304 458.34 184.173 463.449 181.849C468.557 179.524 472.667 175.179 474.952 169.687C475.069 169.406 475.284 169.187 475.549 169.077C475.815 168.967 476.109 168.975 476.369 169.1C476.627 169.228 476.828 169.462 476.929 169.751C477.03 170.039 477.023 170.36 476.909 170.643C474.989 175.23 471.897 179.118 468.002 181.841C464.106 184.565 459.573 186.009 454.943 186Z" fill="#E43D4E"/>
<path d="M586 325H424C428.864 315.921 435.211 307.72 442.779 300.735C446.747 269.66 453.588 250.597 469.255 223.663C484.921 196.729 492.275 156.31 462.413 122.12C460.361 119.759 457.932 117.261 455.572 114.831C455.572 114.831 455.367 114.831 455.299 114.831C446.029 105.385 438.196 96.8974 456.94 98.1979C480.577 99.9433 474.591 104.872 483.69 95.8023C492.788 86.7329 502.127 115.447 519.948 103.674C537.769 91.9007 556.549 103.229 539.582 115.618C537.799 116.925 536.118 118.367 534.554 119.93C513.62 141.217 515.946 183.997 529.355 212.574C543.721 243.376 564.416 244.437 565.1 295.875C574.929 303.168 582.236 313.35 586 325Z" fill="#1C4670"/>
<path d="M528.321 199.768C506.208 201.578 510.154 192.251 515.087 191.055C507.058 191.465 501.989 185.862 510.494 182.582C501.41 184.871 494.674 179.165 502.499 172.981C502.499 172.981 490.013 168.198 502.669 161.535C507.854 158.599 513.452 156.468 519.272 155.214C526.586 153.95 526.382 158.631 526.076 159.964C525.884 160.837 525.622 161.694 525.294 162.526C532.676 164.405 534.751 170.384 530.703 175.304C538.8 178.721 536.452 187.775 531.383 188.698C536.078 191.738 538.732 198.913 528.321 199.768Z" fill="#FF827C"/>
<path d="M473 149.123C498.732 143.36 523.708 143.492 527.315 150.447C530.923 157.403 519.551 157.668 510.138 157.37C499.427 157.409 488.812 159.316 478.806 163L473 149.123Z" fill="#FF827C"/>
<path d="M539.331 115.827C513.813 134.21 499.922 111.231 492.822 113.132C482.739 115.827 467.373 129.199 450.43 110.402C443.57 102.938 440.929 97.1673 456.466 98.2385C480.166 100.001 474.164 104.977 483.288 95.8197C492.411 86.6627 501.774 115.654 519.644 103.767C537.513 91.8805 556.343 103.318 539.331 115.827Z" fill="#FFA229"/>
<path d="M271.859 297.864C271.594 297.865 271.338 297.768 271.142 297.591C270.945 297.415 270.822 297.171 270.796 296.909C268.028 279.668 263.432 262.767 257.086 246.488C257.03 246.359 257.001 246.219 257 246.078C256.999 245.937 257.027 245.798 257.081 245.667C257.135 245.537 257.215 245.419 257.316 245.32C257.417 245.221 257.537 245.143 257.669 245.091C257.797 245.034 257.935 245.003 258.075 245C258.215 244.997 258.355 245.022 258.485 245.072C258.616 245.123 258.735 245.199 258.836 245.296C258.937 245.393 259.018 245.508 259.074 245.636C265.531 262.14 270.196 279.283 272.99 296.773C273.029 297.057 272.954 297.346 272.781 297.575C272.607 297.805 272.35 297.958 272.064 298L271.859 297.864Z" fill="#0D005A"/>
<path d="M273.002 453.897H272.694C265.305 451.721 258.362 448.246 252.189 443.635L109.438 337.935C109.21 337.764 109.058 337.512 109.014 337.231C108.969 336.95 109.035 336.663 109.199 336.43C109.283 336.316 109.389 336.22 109.511 336.148C109.632 336.076 109.767 336.029 109.907 336.01C110.047 335.991 110.19 336 110.327 336.037C110.463 336.074 110.591 336.137 110.702 336.225L253.556 441.925C256.976 444.46 260.64 446.649 264.492 448.458C267.338 449.8 270.272 450.943 273.275 451.879C273.51 451.963 273.709 452.125 273.839 452.338C273.969 452.551 274.023 452.802 273.991 453.05C273.959 453.297 273.844 453.526 273.664 453.699C273.484 453.872 273.25 453.978 273.002 454V453.897Z" fill="#0D005A"/>
<path d="M271.971 365.963C271.781 366.012 271.581 366.012 271.391 365.963L267.98 363.898C151.428 289.974 150.609 289.148 150.302 288.838C150.108 288.628 150 288.351 150 288.064C150 287.776 150.108 287.499 150.302 287.289C150.509 287.103 150.776 287 151.053 287C151.329 287 151.597 287.103 151.803 287.289C152.758 288.046 169.369 298.818 269.106 362.108L272.517 364.139C272.755 364.3 272.92 364.549 272.978 364.833C273.035 365.116 272.98 365.411 272.824 365.653C272.715 365.767 272.581 365.855 272.433 365.908C272.285 365.962 272.127 365.981 271.971 365.963Z" fill="#0D005A"/>
<path d="M215.774 1071C215.543 1071 215.318 1070.93 215.129 1070.81C214.94 1070.68 214.796 1070.5 214.717 1070.29C211.291 1060.64 204.514 1052.41 195.513 1046.96C195.388 1046.89 195.279 1046.79 195.195 1046.67C195.111 1046.55 195.052 1046.42 195.022 1046.28C194.993 1046.15 194.993 1046 195.022 1045.86C195.052 1045.73 195.111 1045.59 195.196 1045.48C195.361 1045.24 195.616 1045.08 195.906 1045.02C196.196 1044.97 196.498 1045.02 196.746 1045.17C206.191 1050.88 213.314 1059.51 216.937 1069.62C216.986 1069.75 217.007 1069.89 216.998 1070.03C216.989 1070.17 216.951 1070.31 216.885 1070.44C216.819 1070.56 216.727 1070.67 216.615 1070.76C216.503 1070.86 216.373 1070.92 216.232 1070.97L215.774 1071Z" fill="white"/>
<path d="M215.097 657H214.855C214.716 656.972 214.584 656.917 214.467 656.838C214.35 656.76 214.25 656.659 214.173 656.542C214.095 656.426 214.043 656.295 214.017 656.158C213.992 656.021 213.995 655.88 214.025 655.744L240.831 532.839C240.897 532.561 241.072 532.32 241.318 532.168C241.564 532.015 241.861 531.964 242.145 532.025C242.284 532.053 242.416 532.108 242.533 532.187C242.65 532.265 242.75 532.366 242.827 532.483C242.905 532.599 242.957 532.73 242.983 532.867C243.008 533.004 243.005 533.145 242.975 533.281L216.031 656.152C215.979 656.368 215.862 656.564 215.696 656.715C215.529 656.866 215.321 656.966 215.097 657Z" fill="white"/>
<path d="M162.069 552C161.877 551.998 161.689 551.947 161.522 551.852C161.356 551.756 161.217 551.619 161.118 551.454C160.987 551.196 160.964 550.897 161.053 550.622C161.143 550.347 161.337 550.119 161.593 549.988L206.422 526.115C206.676 525.99 206.968 525.966 207.239 526.048C207.51 526.13 207.739 526.312 207.882 526.558C208.013 526.816 208.036 527.115 207.947 527.39C207.857 527.665 207.663 527.893 207.407 528.024L162.578 551.898C162.417 551.967 162.244 552.002 162.069 552Z" fill="white"/>
<path d="M161.069 798H160.833C160.557 797.935 160.318 797.762 160.167 797.519C160.015 797.276 159.964 796.982 160.025 796.702L213.912 563.845C213.976 563.565 214.147 563.322 214.386 563.169C214.626 563.015 214.915 562.964 215.192 563.025C215.328 563.057 215.456 563.116 215.569 563.199C215.682 563.282 215.777 563.388 215.849 563.509C215.921 563.63 215.969 563.764 215.989 563.904C216.009 564.044 216.001 564.187 215.966 564.324L162.079 797.18C162.016 797.407 161.885 797.607 161.704 797.755C161.523 797.902 161.301 797.987 161.069 798Z" fill="white"/>
<path d="M274.643 781H274.435C274.152 780.942 273.903 780.778 273.741 780.543C273.579 780.307 273.517 780.019 273.569 779.74L280.989 738.649L264.033 566.353C263.994 566.201 263.99 566.043 264.019 565.888C264.049 565.734 264.111 565.588 264.204 565.46C264.296 565.332 264.415 565.225 264.553 565.147C264.692 565.068 264.845 565.02 265.004 565.005C265.163 564.99 265.324 565.009 265.475 565.061C265.625 565.112 265.763 565.195 265.878 565.304C265.993 565.412 266.083 565.544 266.142 565.69C266.2 565.836 266.226 565.992 266.218 566.149L283 738.751V739.058L275.718 780.285C275.638 780.5 275.491 780.684 275.298 780.813C275.106 780.941 274.876 781.006 274.643 781Z" fill="white"/>
<path d="M142 961H49.9197L44 1000H130.742L142 961Z" fill="#6893E6"/>
<path d="M130.975 1002H44.079C43.9232 1002 43.7693 1001.97 43.6277 1001.9C43.486 1001.84 43.3599 1001.74 43.2576 1001.62C43.154 1001.51 43.0783 1001.37 43.0368 1001.22C42.9952 1001.07 42.9888 1000.92 43.0181 1000.77L48.8362 960.925C48.8773 960.665 49.0106 960.428 49.2118 960.258C49.4129 960.088 49.6683 959.997 49.9314 960H142.03C142.194 960.002 142.355 960.04 142.503 960.111C142.651 960.182 142.781 960.285 142.886 960.411C142.961 960.56 143 960.724 143 960.891C143 961.057 142.961 961.222 142.886 961.37L131.626 1001.21C131.589 1001.39 131.511 1001.55 131.398 1001.69C131.285 1001.82 131.14 1001.93 130.975 1002ZM45.4138 999.773H130.086L140.729 962.09H50.924L45.4138 999.773Z" fill="#404ADD"/>
<path d="M118.055 993H117.854C117.581 992.941 117.34 992.775 117.184 992.536C117.027 992.298 116.967 992.005 117.017 991.722L121.907 966.887C121.931 966.745 121.982 966.61 122.058 966.489C122.134 966.368 122.232 966.264 122.348 966.184C122.464 966.103 122.594 966.047 122.731 966.02C122.868 965.992 123.009 965.993 123.146 966.024C123.419 966.082 123.66 966.248 123.816 966.487C123.973 966.726 124.033 967.018 123.983 967.301L119.093 992.136C119.046 992.383 118.916 992.605 118.726 992.763C118.537 992.921 118.299 993.005 118.055 993Z" fill="#404ADD"/>
<path d="M98.838 992.99C98.7102 992.973 98.5868 992.927 98.4753 992.855C98.3638 992.782 98.2665 992.685 98.1893 992.569C98.1122 992.453 98.0568 992.32 98.0265 992.178C97.9963 992.037 97.9919 991.89 98.0134 991.747L101.067 966.962C101.072 966.813 101.107 966.668 101.168 966.536C101.229 966.404 101.316 966.289 101.421 966.2C101.526 966.111 101.648 966.049 101.777 966.02C101.906 965.99 102.039 965.994 102.167 966.03C102.291 966.047 102.412 966.092 102.521 966.162C102.63 966.232 102.726 966.326 102.803 966.439C102.88 966.551 102.936 966.68 102.968 966.817C103 966.954 103.008 967.097 102.991 967.238L99.9373 992.058C99.8995 992.345 99.7629 992.605 99.5571 992.779C99.3512 992.954 99.0929 993.029 98.838 992.99Z" fill="#404ADD"/>
<path d="M78.0012 992.985C77.6955 992.942 77.4201 992.788 77.2347 992.555C77.0493 992.322 76.9689 992.03 77.0109 991.742L80.6787 966.954C80.691 966.807 80.7364 966.665 80.8117 966.536C80.887 966.407 80.9905 966.295 81.1154 966.207C81.2403 966.119 81.3836 966.057 81.536 966.025C81.6884 965.993 81.8462 965.992 81.9991 966.022C82.1489 966.039 82.2936 966.084 82.4248 966.154C82.556 966.224 82.6711 966.318 82.7633 966.43C82.8554 966.543 82.9229 966.671 82.9617 966.809C83.0006 966.946 83.01 967.089 82.9894 967.23L79.3216 992.053C79.3039 992.197 79.2551 992.337 79.1782 992.463C79.1013 992.589 78.9979 992.699 78.8743 992.786C78.7508 992.873 78.6096 992.936 78.4595 992.97C78.3094 993.004 78.1534 993.009 78.0012 992.985Z" fill="#404ADD"/>
<path d="M277 961H193.774L193 1000H271.378L277 961Z" fill="#6893E6"/>
<path d="M272.059 1001.99H192.099C191.801 1001.98 191.517 1001.86 191.309 1001.65C191.21 1001.55 191.132 1001.43 191.079 1001.3C191.026 1001.17 190.999 1001.03 191 1000.89L191.79 961.062C191.79 960.78 191.902 960.51 192.101 960.311C192.301 960.112 192.572 960 192.854 960H277.93C278.081 960.001 278.231 960.035 278.367 960.1C278.504 960.166 278.624 960.26 278.72 960.377C278.822 960.493 278.899 960.629 278.946 960.776C278.993 960.924 279.01 961.079 278.994 961.233L273.261 1001.07C273.244 1001.21 273.199 1001.34 273.129 1001.46C273.06 1001.59 272.966 1001.69 272.854 1001.78C272.742 1001.87 272.615 1001.93 272.478 1001.96C272.342 1002 272.199 1002.01 272.059 1001.99ZM193.094 999.832H271.064L276.454 962.158H194.056L193.094 999.832Z" fill="#404ADD"/>
<path d="M256.059 991.998C255.912 991.994 255.768 991.962 255.635 991.905C255.502 991.847 255.383 991.766 255.284 991.664C255.185 991.563 255.11 991.444 255.061 991.314C255.013 991.185 254.993 991.048 255.002 990.911L256.763 967.239C256.734 967.087 256.741 966.932 256.784 966.783C256.826 966.634 256.903 966.495 257.009 966.377C257.114 966.259 257.247 966.164 257.396 966.099C257.545 966.034 257.708 966 257.873 966C258.038 966 258.201 966.034 258.35 966.099C258.499 966.164 258.631 966.259 258.737 966.377C258.843 966.495 258.92 966.634 258.962 966.783C259.004 966.932 259.011 967.087 258.982 967.239L257.221 990.911C257.232 991.056 257.209 991.202 257.154 991.338C257.099 991.474 257.014 991.598 256.904 991.701C256.794 991.804 256.662 991.884 256.516 991.935C256.37 991.986 256.214 992.007 256.059 991.998Z" fill="#404ADD"/>
<path d="M232.258 991.999C232.088 992.004 231.919 991.98 231.761 991.928C231.603 991.876 231.461 991.797 231.342 991.697C231.224 991.596 231.133 991.477 231.074 991.346C231.016 991.215 230.991 991.075 231.003 990.935L231.448 967.064C231.448 966.782 231.585 966.511 231.828 966.312C232.071 966.112 232.4 966 232.744 966C232.914 966.004 233.082 966.036 233.237 966.094C233.392 966.151 233.532 966.233 233.649 966.335C233.765 966.437 233.856 966.557 233.916 966.687C233.977 966.818 234.005 966.957 233.999 967.097L233.554 990.969C233.554 991.107 233.52 991.244 233.455 991.371C233.389 991.498 233.293 991.613 233.172 991.709C233.051 991.806 232.908 991.881 232.751 991.931C232.594 991.98 232.426 992.004 232.258 991.999Z" fill="#404ADD"/>
<path d="M208.838 991.999C208.725 992.004 208.612 991.98 208.507 991.928C208.402 991.876 208.307 991.797 208.228 991.697C208.149 991.596 208.088 991.477 208.049 991.346C208.01 991.215 207.994 991.075 208.002 990.935L208.299 967.064C208.299 966.782 208.39 966.511 208.552 966.312C208.714 966.112 208.933 966 209.162 966C209.621 966 210.026 966.499 209.999 967.097L209.702 990.969C209.702 991.107 209.679 991.244 209.636 991.371C209.592 991.498 209.528 991.613 209.447 991.709C209.367 991.806 209.271 991.881 209.167 991.931C209.062 991.98 208.95 992.004 208.838 991.999Z" fill="#404ADD"/>
<path d="M527.787 251.261H510.464C510.464 247.399 506.341 246.579 503.812 246.579C502.253 246.579 497.09 246.579 497.09 249.689C497.09 256.728 529 249.415 529 269.27C529 281.196 519.576 285.639 507.935 286.356L508.697 299H498.13L498.788 286.254C488.013 285.16 478 280.171 478 269.441H495.323V269.817C495.323 274.532 500.728 275.455 503.465 275.455C506.202 275.455 511.226 275.284 511.226 271.867C511.226 264.554 479.282 271.218 479.282 252.013C479.282 240.906 488.013 236.669 498.788 235.746L498.13 223H508.697L507.935 235.644C518.329 236.601 527.787 241.009 527.787 251.261Z" fill="#FF6D00"/>
<path d="M160.68 233C148.411 233 140.118 230.852 136.314 226.682C136.214 226.591 136.135 226.483 136.082 226.363C136.028 226.244 136 226.116 136 225.987C136 225.858 136.028 225.73 136.082 225.611C136.135 225.491 136.214 225.383 136.314 225.292C136.519 225.105 136.796 225 137.085 225C137.374 225 137.651 225.105 137.856 225.292C141.66 229.43 152.695 233.474 183.744 229.146C183.884 229.119 184.029 229.119 184.169 229.146C184.31 229.174 184.442 229.228 184.558 229.305C184.674 229.382 184.772 229.481 184.844 229.595C184.916 229.709 184.962 229.836 184.978 229.967C185.007 230.097 185.007 230.23 184.978 230.359C184.948 230.489 184.889 230.611 184.805 230.718C184.721 230.825 184.614 230.915 184.49 230.981C184.367 231.048 184.229 231.09 184.087 231.105C176.346 232.267 168.522 232.9 160.68 233Z" fill="white"/>
<path d="M517.343 192L517 189.796L528.771 188.011C529.053 187.97 529.34 188.044 529.568 188.218C529.797 188.392 529.948 188.651 529.989 188.939C530.03 189.226 529.957 189.519 529.786 189.752C529.616 189.985 529.362 190.139 529.079 190.181L517.343 192Z" fill="#E43D4E"/>
<path d="M512.125 183C511.889 182.997 511.66 182.926 511.47 182.795C511.279 182.665 511.137 182.482 511.064 182.272C511.014 182.142 510.993 182.003 511.002 181.866C511.011 181.728 511.05 181.593 511.116 181.469C511.182 181.345 511.274 181.236 511.387 181.146C511.499 181.057 511.63 180.989 511.771 180.948L527.521 176.05C527.802 175.966 528.108 175.988 528.373 176.112C528.637 176.235 528.84 176.451 528.936 176.712C528.986 176.843 529.007 176.981 528.998 177.119C528.989 177.257 528.95 177.392 528.884 177.515C528.818 177.639 528.726 177.749 528.613 177.838C528.501 177.928 528.37 177.995 528.229 178.036L512.479 183H512.125Z" fill="#E43D4E"/>
<path d="M503.043 173C502.799 172.989 502.565 172.893 502.38 172.73C502.194 172.566 502.068 172.343 502.021 172.097C501.973 171.851 502.008 171.596 502.119 171.373C502.23 171.149 502.411 170.97 502.633 170.865L522.48 162.079C522.748 161.972 523.046 161.974 523.312 162.084C523.579 162.195 523.795 162.406 523.914 162.674C523.97 162.807 523.999 162.95 524 163.095C524.001 163.24 523.973 163.383 523.919 163.517C523.865 163.651 523.785 163.772 523.685 163.874C523.584 163.975 523.465 164.056 523.334 164.109L503.487 172.93L503.043 173Z" fill="#E43D4E"/>
<path d="M514.093 158C513.815 158.001 513.547 157.887 513.344 157.682C513.141 157.477 513.018 157.197 513.001 156.898C512.99 156.594 513.086 156.297 513.269 156.066C513.453 155.834 513.71 155.685 513.99 155.649L521.838 155.024C521.982 154.99 522.132 154.992 522.276 155.031C522.419 155.069 522.552 155.143 522.665 155.246C522.777 155.349 522.866 155.479 522.924 155.626C522.982 155.772 523.007 155.931 522.998 156.09C523.009 156.394 522.913 156.691 522.73 156.922C522.547 157.153 522.289 157.302 522.009 157.339L514.161 157.963L514.093 158Z" fill="#E43D4E"/>
<path d="M842.694 724.465C835.932 724.504 829.275 726.138 823.269 729.233C819.897 721.383 814.623 714.488 807.918 709.168C801.213 703.847 793.287 700.267 784.852 698.748C776.416 697.229 767.733 697.818 759.583 700.464C751.432 703.109 744.067 707.728 738.15 713.905C736.586 707.084 733.071 700.86 728.03 695.987C722.99 691.113 716.64 687.798 709.748 686.444C702.857 685.089 695.719 685.752 689.197 688.352C682.676 690.953 677.05 695.38 673.002 701.098C668.576 694.831 662.446 689.952 655.333 687.034C648.22 684.116 640.418 683.28 632.845 684.625C625.271 685.97 618.241 689.439 612.578 694.626C606.915 699.812 602.856 706.501 600.878 713.905C596.006 710.806 590.465 708.902 584.711 708.349C578.957 707.797 573.154 708.611 567.777 710.725C562.4 712.839 557.603 716.193 553.78 720.512C549.957 724.831 547.217 729.991 545.784 735.569C545.305 735.569 544.861 735.569 544.416 735.569C536.804 735.603 529.499 738.561 524.023 743.828C518.547 749.095 515.323 756.263 515.023 763.84C514.723 771.416 517.37 778.815 522.413 784.495C527.456 790.174 534.505 793.697 542.091 794.327C535.479 812.202 533.229 831.387 535.527 850.299C537.826 869.211 544.607 887.307 555.31 903.095C566.013 918.882 580.333 931.908 597.086 941.098C613.84 950.287 632.547 955.377 651.664 955.946C670.781 956.516 689.761 952.549 707.036 944.374C724.31 936.198 739.386 924.048 751.017 908.926C762.649 893.804 770.504 876.144 773.933 857.402C777.362 838.661 776.268 819.376 770.74 801.139C772.354 801.305 773.975 801.384 775.597 801.378C786.693 801.363 797.489 797.779 806.375 791.159C810.475 797.422 816.138 802.517 822.81 805.945C829.482 809.372 836.933 811.014 844.434 810.709C851.935 810.405 859.227 808.165 865.597 804.209C871.967 800.253 877.196 794.716 880.771 788.141C884.346 781.566 886.145 774.179 885.991 766.704C885.837 759.228 883.736 751.921 879.894 745.498C876.051 739.074 870.599 733.755 864.072 730.062C857.545 726.369 850.166 724.429 842.659 724.431L842.694 724.465Z" fill="white"/>
<path d="M654.535 957.863C635.07 957.908 615.88 953.26 598.59 944.311C581.299 935.363 566.416 922.377 555.2 906.454C543.983 890.53 536.764 872.136 534.152 852.829C531.54 833.522 533.613 813.869 540.194 795.533C532.797 794.182 526.153 790.161 521.52 784.232C516.888 778.304 514.589 770.881 515.06 763.369C515.532 755.858 518.74 748.78 524.077 743.479C529.413 738.177 536.508 735.019 544.016 734.604H544.562C546.119 729.074 548.923 723.975 552.758 719.699C556.592 715.423 561.356 712.085 566.682 709.941C572.007 707.797 577.753 706.904 583.478 707.331C589.202 707.758 594.753 709.494 599.702 712.405C601.918 705.093 606.11 698.537 611.816 693.461C617.522 688.386 624.519 684.988 632.034 683.645C639.549 682.302 647.288 683.065 654.397 685.85C661.505 688.635 667.705 693.334 672.312 699.426C676.528 693.935 682.185 689.724 688.653 687.263C695.121 684.803 702.144 684.191 708.94 685.495C715.735 686.798 722.035 689.967 727.136 694.646C732.236 699.326 735.937 705.332 737.825 711.995C747.646 702.364 760.859 696.99 774.608 697.036C784.751 697.038 794.679 699.959 803.209 705.451C811.739 710.944 818.511 718.775 822.719 728.013C828.585 725.14 835.024 723.634 841.554 723.607C849.197 723.592 856.714 725.553 863.377 729.302C870.04 733.05 875.622 738.458 879.582 745.002C883.542 751.545 885.746 759.002 885.979 766.648C886.213 774.295 884.469 781.872 880.916 788.646C877.363 795.419 872.121 801.158 865.7 805.308C859.279 809.457 851.895 811.875 844.266 812.327C836.636 812.78 829.019 811.251 822.153 807.89C815.287 804.529 809.405 799.449 805.078 793.143C796.189 799.498 785.532 802.903 774.608 802.876C773.55 802.876 772.458 802.876 771.196 802.876C776.408 820.978 777.342 840.045 773.926 858.571C770.509 877.096 762.835 894.573 751.509 909.619C740.184 924.665 725.518 936.868 708.67 945.265C691.822 953.662 673.254 958.022 654.433 958L654.535 957.863ZM544.016 736.756C536.629 736.675 529.501 739.48 524.147 744.575C518.793 749.67 515.633 756.653 515.34 764.042C515.047 771.431 517.643 778.643 522.577 784.147C527.511 789.65 534.394 793.012 541.764 793.518H543.197L542.719 794.85C536.52 811.274 534.011 828.863 535.371 846.367C536.732 863.871 541.927 880.86 550.589 896.127C559.251 911.394 571.166 924.563 585.488 934.7C599.809 944.836 616.186 951.69 633.454 954.775C650.721 957.859 668.456 957.099 685.396 952.547C702.337 947.996 718.068 939.765 731.472 928.44C744.875 917.115 755.621 902.974 762.947 887.022C770.273 871.069 773.998 853.698 773.857 836.141C773.846 824.482 772.145 812.886 768.807 801.715L768.33 800.212H769.933C771.742 800.383 773.345 800.451 774.676 800.451C785.536 800.464 796.107 796.953 804.805 790.445L805.727 789.762L806.341 790.718C810.331 796.837 815.84 801.813 822.329 805.159C828.818 808.506 836.064 810.108 843.358 809.808C850.652 809.508 857.743 807.317 863.936 803.45C870.129 799.582 875.212 794.17 878.688 787.745C882.163 781.319 883.911 774.101 883.76 766.795C883.61 759.49 881.566 752.35 877.83 746.073C874.093 739.796 868.791 734.599 862.444 730.99C856.097 727.381 848.922 725.484 841.622 725.485C835.05 725.522 828.582 727.126 822.753 730.164L821.729 730.677L821.252 729.618C817.952 721.916 812.795 715.154 806.244 709.937C799.693 704.719 791.951 701.209 783.713 699.72C775.474 698.231 766.995 698.81 759.034 701.405C751.074 704 743.881 708.53 738.098 714.59L736.699 716.025L736.256 714.078C734.741 707.443 731.338 701.39 726.458 696.651C721.578 691.912 715.43 688.69 708.759 687.374C702.088 686.059 695.179 686.707 688.868 689.24C682.557 691.773 677.115 696.082 673.199 701.646L672.312 702.876L671.425 701.646C667.117 695.513 661.145 690.742 654.214 687.897C647.284 685.052 639.684 684.252 632.314 685.592C624.944 686.932 618.111 690.355 612.622 695.457C607.134 700.559 603.219 707.127 601.34 714.385L600.93 715.786L599.702 715C594.978 712.001 589.612 710.162 584.042 709.633C578.472 709.105 572.856 709.902 567.653 711.96C562.45 714.018 557.806 717.278 554.102 721.475C550.397 725.671 547.736 730.685 546.336 736.107L546.132 736.961H545.244H544.528L544.016 736.756Z" fill="#FF6D00"/>
<path d="M580 830C604.301 830 624 810.301 624 786C624 761.699 604.301 742 580 742C555.699 742 536 761.699 536 786C536 810.301 555.699 830 580 830Z" fill="white"/>
<path d="M580.5 832C571.501 832 562.704 829.331 555.222 824.332C547.739 819.332 541.907 812.226 538.464 803.912C535.02 795.598 534.119 786.45 535.874 777.623C537.63 768.797 541.963 760.69 548.327 754.327C554.69 747.963 562.797 743.63 571.623 741.874C580.45 740.119 589.598 741.02 597.912 744.463C606.226 747.907 613.332 753.739 618.332 761.222C623.331 768.704 626 777.501 626 786.5C625.982 798.562 621.182 810.124 612.653 818.653C604.124 827.182 592.562 831.982 580.5 832ZM580.5 743.146C571.925 743.146 563.543 745.688 556.414 750.452C549.284 755.216 543.727 761.987 540.446 769.909C537.164 777.831 536.306 786.548 537.979 794.958C539.652 803.368 543.781 811.093 549.844 817.156C555.907 823.219 563.632 827.349 572.042 829.021C580.452 830.694 589.169 829.836 597.091 826.554C605.013 823.273 611.784 817.716 616.548 810.586C621.312 803.457 623.854 795.075 623.854 786.5C623.845 775.004 619.275 763.982 611.146 755.854C603.018 747.725 591.996 743.155 580.5 743.146Z" fill="#FF6D00"/>
<path d="M638 856C662.301 856 682 836.077 682 811.5C682 786.923 662.301 767 638 767C613.699 767 594 786.923 594 811.5C594 836.077 613.699 856 638 856Z" fill="white"/>
<path d="M638.432 857C629.436 856.987 620.645 854.307 613.172 849.299C605.699 844.291 599.877 837.18 596.444 828.865C593.011 820.55 592.119 811.403 593.883 802.582C595.646 793.76 599.985 785.659 606.351 779.303C612.717 772.946 620.824 768.619 629.648 766.869C638.473 765.119 647.618 766.024 655.928 769.47C664.238 772.916 671.34 778.748 676.337 786.229C681.333 793.71 684 802.504 684 811.5C683.973 823.571 679.161 835.139 670.619 843.668C662.078 852.197 650.503 856.991 638.432 857ZM638.432 768.146C629.856 768.139 621.47 770.676 614.336 775.436C607.202 780.195 601.64 786.964 598.353 794.885C595.067 802.807 594.203 811.525 595.872 819.937C597.541 828.349 601.668 836.078 607.73 842.144C613.791 848.211 621.516 852.343 629.927 854.019C638.338 855.694 647.057 854.838 654.981 851.558C662.905 848.277 669.678 842.72 674.443 835.59C679.209 828.46 681.752 820.076 681.752 811.5C681.743 800.01 677.177 788.993 669.056 780.866C660.935 772.738 649.922 768.164 638.432 768.146Z" fill="#FF6D00"/>
<path d="M688 813C712.301 813 732 792.853 732 768C732 743.147 712.301 723 688 723C663.699 723 644 743.147 644 768C644 792.853 663.699 813 688 813Z" fill="white"/>
<path d="M688.5 814C679.501 814 670.704 811.302 663.222 806.248C655.739 801.193 649.907 794.009 646.463 785.603C643.02 777.198 642.119 767.949 643.874 759.026C645.63 750.103 649.963 741.906 656.327 735.473C662.69 729.04 670.797 724.659 679.623 722.884C688.45 721.109 697.598 722.02 705.912 725.502C714.226 728.983 721.332 734.879 726.332 742.444C731.332 750.008 734 758.902 734 768C733.991 780.197 729.194 791.892 720.663 800.517C712.132 809.142 700.565 813.991 688.5 814ZM688.5 724.169C679.925 724.169 671.543 726.74 664.414 731.556C657.284 736.372 651.727 743.218 648.446 751.227C645.164 759.236 644.306 768.049 645.979 776.551C647.651 785.053 651.781 792.863 657.844 798.993C663.907 805.123 671.632 809.297 680.042 810.989C688.452 812.68 697.169 811.812 705.091 808.494C713.013 805.177 719.784 799.559 724.548 792.351C729.312 785.143 731.854 776.669 731.854 768C731.845 756.378 727.275 745.235 719.146 737.017C711.018 728.799 699.996 724.178 688.5 724.169Z" fill="#FF6D00"/>
<path d="M911 1056.73L890.5 1068H502.118L485 1056.73L502.118 1035.02V835H891.627V1035.02L911 1056.73Z" fill="#FFA229"/>
<path d="M614.904 1064.96C614.728 1065.01 614.541 1065.01 614.365 1064.96L597.523 1054.74C597.385 1054.65 597.267 1054.54 597.18 1054.4C597.092 1054.27 597.037 1054.11 597.018 1053.95C596.987 1053.79 596.996 1053.63 597.043 1053.47C597.09 1053.32 597.174 1053.18 597.287 1053.07L613.86 1034.66V841.899C613.905 841.647 614.035 841.419 614.229 841.254C614.423 841.09 614.668 841 614.921 841C615.174 841 615.419 841.09 615.613 841.254C615.807 841.419 615.938 841.647 615.982 841.899V1035.1C615.98 1035.38 615.885 1035.64 615.713 1035.85L599.746 1053.58L615.477 1062.95C615.598 1063.02 615.703 1063.11 615.787 1063.23C615.872 1063.34 615.933 1063.47 615.967 1063.6C616.002 1063.74 616.009 1063.88 615.989 1064.02C615.968 1064.16 615.92 1064.3 615.847 1064.42C615.749 1064.58 615.611 1064.72 615.446 1064.81C615.281 1064.91 615.094 1064.96 614.904 1064.96Z" fill="white"/>
<path d="M593.088 1034.98H514.302C514.143 1035.01 513.979 1035 513.823 1034.97C513.666 1034.93 513.521 1034.86 513.397 1034.77C513.272 1034.67 513.173 1034.56 513.104 1034.42C513.036 1034.29 513 1034.15 513 1034C513 1033.85 513.036 1033.71 513.104 1033.58C513.173 1033.44 513.272 1033.33 513.397 1033.23C513.521 1033.14 513.666 1033.07 513.823 1033.03C513.979 1033 514.143 1032.99 514.302 1033.02H593.088C593.344 1033.06 593.575 1033.18 593.742 1033.36C593.909 1033.54 594 1033.77 594 1034C594 1034.23 593.909 1034.46 593.742 1034.64C593.575 1034.82 593.344 1034.94 593.088 1034.98Z" fill="white"/>
<path d="M782.1 1035H632.9C632.647 1034.96 632.419 1034.83 632.255 1034.65C632.09 1034.47 632 1034.24 632 1034C632 1033.76 632.09 1033.53 632.255 1033.35C632.419 1033.17 632.647 1033.04 632.9 1033H782.1C782.353 1033.04 782.581 1033.17 782.746 1033.35C782.91 1033.53 783 1033.76 783 1034C783 1034.24 782.91 1034.47 782.746 1034.65C782.581 1034.83 782.353 1034.96 782.1 1035Z" fill="white"/>
<path d="M863.728 1034.98H809.272C809.116 1035.01 808.957 1035 808.804 1034.97C808.651 1034.93 808.509 1034.86 808.387 1034.77C808.266 1034.67 808.169 1034.56 808.102 1034.42C808.035 1034.29 808 1034.15 808 1034C808 1033.85 808.035 1033.71 808.102 1033.58C808.169 1033.44 808.266 1033.33 808.387 1033.23C808.509 1033.14 808.651 1033.07 808.804 1033.03C808.957 1033 809.116 1032.99 809.272 1033.02H863.728C863.884 1032.99 864.043 1033 864.196 1033.03C864.349 1033.07 864.491 1033.14 864.613 1033.23C864.734 1033.33 864.831 1033.44 864.898 1033.58C864.965 1033.71 865 1033.85 865 1034C865 1034.15 864.965 1034.29 864.898 1034.42C864.831 1034.56 864.734 1034.67 864.613 1034.77C864.491 1034.86 864.349 1034.93 864.196 1034.97C864.043 1035 863.884 1035.01 863.728 1034.98Z" fill="white"/>
<path d="M937 758H659.735L615 835H892.265L937 758Z" fill="#FFA229"/>
<path d="M458 758H570.386L615 835H502.648L458 758Z" fill="#FFA229"/>
<path d="M693.103 643.922C690.844 650.57 686.665 656.399 681.094 660.671C675.523 664.944 668.811 667.468 661.805 667.925C654.8 668.382 647.817 666.751 641.738 663.238C635.659 659.726 630.759 654.49 627.656 648.192C624.553 641.893 623.387 634.817 624.305 627.856C625.223 620.895 628.185 614.363 632.815 609.085C637.446 603.808 643.537 600.022 650.318 598.207C657.1 596.392 664.267 596.628 670.914 598.887C675.331 600.383 679.409 602.735 682.915 605.81C686.421 608.884 689.287 612.619 691.348 616.802C693.409 620.985 694.625 625.534 694.926 630.187C695.227 634.841 694.608 639.508 693.103 643.922Z" fill="#FF6D00"/>
<path d="M696.103 644.922C693.844 651.57 689.665 657.399 684.094 661.671C678.523 665.944 671.811 668.468 664.806 668.925C657.8 669.382 650.817 667.751 644.738 664.238C638.659 660.726 633.759 655.49 630.656 649.192C627.553 642.893 626.387 635.817 627.305 628.856C628.223 621.895 631.185 615.363 635.815 610.085C640.446 604.808 646.537 601.022 653.318 599.207C660.1 597.392 667.267 597.628 673.914 599.887C678.331 601.383 682.409 603.735 685.915 606.81C689.421 609.884 692.287 613.619 694.348 617.802C696.409 621.985 697.625 626.534 697.926 631.188C698.227 635.841 697.608 640.508 696.103 644.922Z" fill="#FFAE01"/>
<path d="M678.189 626.953H666.664C666.664 624.375 663.893 623.806 662.203 623.806C661.155 623.806 657.742 623.806 657.742 625.915C657.742 630.603 679 625.714 679 639.042C679 647.012 672.714 649.992 664.974 650.528L665.447 659H658.417L658.857 650.461C651.658 649.724 645 646.376 645 639.209H656.525V639.444C656.525 642.792 660.141 643.228 661.966 643.228C663.791 643.228 667.137 643.228 667.137 640.817C667.137 635.928 645.879 640.381 645.879 627.422C645.879 619.988 651.658 617.142 658.857 616.539L658.417 608H665.447L664.974 616.472C671.903 617.142 678.189 620.089 678.189 626.953Z" fill="#FF6D00"/>
<path d="M557.999 626.775C557.944 633.798 555.808 640.646 551.861 646.454C547.913 652.263 542.332 656.77 535.823 659.405C529.314 662.041 522.169 662.686 515.293 661.261C508.416 659.835 502.117 656.402 497.192 651.395C492.268 646.389 488.938 640.035 487.626 633.136C486.313 626.237 487.076 619.104 489.818 612.639C492.56 606.173 497.158 600.667 503.03 596.815C508.902 592.964 515.785 590.941 522.807 591.001C527.468 591.037 532.075 591.991 536.367 593.809C540.658 595.627 544.549 598.272 547.817 601.595C551.086 604.917 553.667 608.851 555.414 613.172C557.161 617.492 558.039 622.115 557.999 626.775Z" fill="#FF6D00"/>
<path d="M560.999 626.81C560.937 633.831 558.795 640.676 554.844 646.479C550.892 652.283 545.309 656.785 538.799 659.415C532.289 662.045 525.146 662.686 518.271 661.256C511.397 659.827 505.102 656.391 500.18 651.383C495.259 646.375 491.933 640.021 490.623 633.123C489.313 626.225 490.078 619.094 492.821 612.631C495.564 606.168 500.162 600.663 506.034 596.813C511.905 592.963 518.787 590.941 525.807 591.001C530.469 591.042 535.078 592 539.369 593.821C543.661 595.643 547.552 598.292 550.82 601.617C554.087 604.942 556.668 608.878 558.415 613.201C560.161 617.524 561.039 622.148 560.999 626.81Z" fill="#FFAE01"/>
<path d="M538.587 615.127L527.214 618.744C526.304 616.276 523.469 616.581 521.824 617.121C520.775 617.459 517.415 618.507 518.115 620.501C519.655 624.996 539.112 613.742 543.312 626.382C545.937 634.054 540.722 638.853 533.268 641.827L536.558 649.803L529.559 652L527.179 643.686C519.865 645.207 512.201 644.125 509.681 637.231L521.055 633.614V633.851C522.139 636.859 525.849 636.352 527.634 635.777C529.419 635.203 532.673 634.02 531.938 631.823C530.328 627.159 510.941 638.076 506.636 625.773C504.221 618.642 508.981 614.113 515.84 611.274L512.62 603.231L519.62 601L521.894 609.28C529.139 607.692 536.313 608.537 538.587 615.127Z" fill="#FF6D00"/>
<path d="M794.287 633.012C789.118 637.68 782.699 640.69 775.843 641.66C768.987 642.629 762.002 641.516 755.77 638.461C749.538 635.405 744.339 630.545 740.83 624.493C737.321 618.442 735.661 611.472 736.058 604.464C736.455 597.455 738.892 590.724 743.061 585.12C747.23 579.516 752.943 575.291 759.48 572.98C766.016 570.668 773.081 570.374 779.783 572.134C786.484 573.893 792.52 577.628 797.129 582.866C803.305 589.9 806.475 599.133 805.942 608.535C805.41 617.938 801.217 626.742 794.287 633.012Z" fill="#FF6D00"/>
<path d="M796.293 634.124C791.125 638.731 784.708 641.702 777.852 642.662C770.996 643.622 764.009 642.527 757.775 639.515C751.542 636.504 746.341 631.711 742.831 625.744C739.322 619.777 737.66 612.903 738.058 605.991C738.455 599.079 740.893 592.441 745.064 586.915C749.234 581.39 754.95 577.225 761.488 574.948C768.025 572.67 775.092 572.383 781.792 574.122C788.493 575.862 794.528 579.549 799.133 584.718C805.306 591.647 808.475 600.744 807.942 610.009C807.41 619.274 803.219 627.948 796.293 634.124Z" fill="#FFAE01"/>
<path d="M789.718 610.783L779.506 605.015C780.731 602.68 778.655 600.825 777.191 599.967C776.272 599.452 773.242 597.735 772.187 599.624C769.838 603.813 790.944 609.925 784.272 621.978C780.289 629.085 773.276 628.57 766.196 625.205L762.417 633L756.222 629.566L760.886 622.184C754.962 617.926 750.673 611.608 754.384 605.015L764.596 610.818V611.024C763.098 613.874 765.89 616.209 767.489 617.102C769.089 617.994 772.085 619.608 773.242 617.548C775.693 613.187 754.792 606.526 761.226 595.022C764.97 588.43 771.438 588.773 778.076 591.829L781.957 584L788.152 587.434L783.455 594.748C789.208 598.868 793.156 604.671 789.718 610.783Z" fill="#FF6D00"/>
<path d="M867.813 689.663C860.953 690.628 853.966 689.508 847.734 686.445C841.503 683.381 836.307 678.512 832.805 672.452C829.303 666.393 827.652 659.416 828.061 652.405C828.47 645.394 830.92 638.663 835.101 633.064C839.283 627.466 845.007 623.251 851.551 620.953C858.095 618.656 865.164 618.378 871.864 620.157C878.563 621.935 884.592 625.689 889.187 630.943C893.783 636.197 896.738 642.716 897.679 649.674C898.931 658.991 896.49 668.432 890.892 675.927C885.294 683.422 876.995 688.362 867.813 689.663Z" fill="#FF6D00"/>
<path d="M868.345 692.668C861.389 693.626 854.304 692.5 847.988 689.432C841.671 686.363 836.407 681.49 832.86 675.429C829.314 669.369 827.644 662.392 828.063 655.382C828.482 648.372 830.971 641.644 835.214 636.049C839.457 630.454 845.264 626.243 851.901 623.948C858.538 621.654 865.706 621.379 872.499 623.16C879.292 624.94 885.404 628.695 890.063 633.949C894.722 639.204 897.717 645.722 898.671 652.679C899.949 662.003 897.473 671.452 891.786 678.951C886.099 686.45 877.668 691.383 868.345 692.668Z" fill="#FFAE01"/>
<path d="M876.703 669.414L871.543 658.987C873.836 657.722 873.162 655.056 872.386 653.518C871.914 652.56 870.396 649.484 868.508 650.441C864.259 652.595 878.187 669.585 866.181 675.669C858.998 679.327 853.535 674.986 849.555 668.217L842.17 672.559L839 666.166L846.891 662.748C844.362 655.911 844.362 648.356 850.837 645.074L855.997 655.5H855.76C852.961 657.004 853.973 660.525 854.782 662.166C855.592 663.807 857.211 666.781 859.268 665.585C863.685 663.363 850.162 646.134 861.729 640.254C868.474 636.835 873.566 640.835 877.343 647.091L884.83 642.818L888 649.176L880.142 652.595C882.739 659.226 882.874 666.303 876.703 669.414Z" fill="#FF6D00"/>
<path d="M642.102 546.953C639.837 553.597 635.654 559.421 630.08 563.688C624.507 567.955 617.794 570.474 610.789 570.926C603.784 571.379 596.803 569.745 590.726 566.23C584.65 562.716 579.752 557.479 576.651 551.182C573.551 544.885 572.386 537.809 573.306 530.851C574.225 523.892 577.187 517.362 581.816 512.086C586.446 506.81 592.536 503.024 599.316 501.208C606.097 499.393 613.263 499.628 619.91 501.884C624.328 503.383 628.407 505.739 631.914 508.816C635.421 511.894 638.287 515.632 640.349 519.818C642.41 524.004 643.625 528.555 643.926 533.211C644.227 537.867 643.607 542.537 642.102 546.953Z" fill="#FF6D00"/>
<path d="M644.406 547.455C650.652 528.959 640.722 508.903 622.226 502.657C603.731 496.411 583.674 506.341 577.428 524.836C571.182 543.332 581.113 563.388 599.608 569.634C618.103 575.88 638.16 565.95 644.406 547.455Z" fill="#FFAE01"/>
<path d="M627.122 529.359H615.642C615.642 526.696 612.908 526.15 611.219 526.15C610.139 526.15 606.729 526.15 606.729 528.267C606.729 533.081 628 528.267 628 541.651C628 549.777 621.686 552.815 613.954 553.362L614.461 562H607.404L607.843 553.328C600.685 552.542 594 549.162 594 541.821H605.513V542.095C605.513 545.304 609.126 545.919 610.916 545.919C612.705 545.919 616.115 545.919 616.115 543.46C616.115 538.51 594.844 543.016 594.844 529.803C594.844 522.257 600.651 519.355 607.809 518.707L607.37 510H614.427L613.921 518.638C620.808 519.321 627.122 522.36 627.122 529.359Z" fill="#FF6D00"/>
<path d="M791.081 555H790.771C790.634 554.962 790.507 554.898 790.397 554.812C790.286 554.726 790.195 554.619 790.128 554.499C790.06 554.378 790.019 554.246 790.005 554.11C789.991 553.974 790.006 553.836 790.048 553.705C790.909 550.984 791.872 548.296 792.904 545.675C792.95 545.546 793.023 545.427 793.118 545.326C793.213 545.225 793.329 545.144 793.458 545.088C793.587 545.032 793.727 545.002 793.868 545C794.01 544.998 794.15 545.025 794.281 545.077C794.415 545.122 794.539 545.192 794.644 545.283C794.75 545.374 794.836 545.485 794.897 545.609C794.958 545.732 794.992 545.866 794.999 546.003C795.005 546.14 794.984 546.276 794.935 546.405C793.902 548.993 792.973 551.648 792.147 554.303C792.068 554.512 791.922 554.692 791.731 554.817C791.539 554.942 791.312 555.006 791.081 555Z" fill="#FF6D00"/>
<path d="M802.098 530.962C801.918 531.013 801.727 531.013 801.548 530.962C801.3 530.819 801.118 530.586 801.041 530.313C800.963 530.039 800.997 529.747 801.135 529.498C804.247 524.093 807.766 518.927 811.662 514.044C811.75 513.933 811.858 513.841 811.982 513.772C812.106 513.703 812.242 513.66 812.383 513.644C812.524 513.628 812.667 513.64 812.803 513.68C812.939 513.719 813.066 513.785 813.176 513.873C813.4 514.048 813.546 514.302 813.585 514.581C813.623 514.86 813.551 515.144 813.383 515.371C809.568 520.172 806.118 525.247 803.061 530.553C802.952 530.7 802.805 530.816 802.636 530.887C802.467 530.959 802.281 530.985 802.098 530.962ZM825.149 502.061C825 502.065 824.852 502.036 824.715 501.977C824.579 501.918 824.457 501.831 824.358 501.721C824.154 501.517 824.039 501.242 824.039 500.955C824.039 500.668 824.154 500.393 824.358 500.189C828.943 495.939 833.855 492.047 839.048 488.547C839.163 488.439 839.301 488.357 839.451 488.306C839.602 488.256 839.761 488.238 839.919 488.254C840.077 488.27 840.23 488.32 840.367 488.4C840.503 488.48 840.621 488.588 840.711 488.718C840.802 488.847 840.863 488.994 840.89 489.149C840.918 489.303 840.911 489.462 840.871 489.614C840.83 489.766 840.757 489.908 840.657 490.029C840.556 490.151 840.43 490.249 840.287 490.318C835.19 493.77 830.36 497.593 825.837 501.755C825.653 501.937 825.408 502.046 825.149 502.061ZM855.906 481.263C855.698 481.264 855.494 481.208 855.318 481.099C855.141 480.991 854.999 480.835 854.909 480.65C854.845 480.523 854.808 480.385 854.8 480.243C854.791 480.102 854.812 479.96 854.86 479.827C854.908 479.694 854.983 479.571 855.08 479.467C855.177 479.363 855.294 479.279 855.425 479.22C861.084 476.528 866.938 474.252 872.936 472.412C873.214 472.344 873.508 472.379 873.762 472.511C874.015 472.643 874.211 472.862 874.312 473.127C874.39 473.403 874.358 473.697 874.224 473.95C874.089 474.203 873.863 474.395 873.59 474.489C867.686 476.314 861.935 478.59 856.388 481.297C856.227 481.322 856.062 481.311 855.906 481.263ZM891.446 470.438C891.187 470.433 890.939 470.338 890.744 470.17C890.549 470.002 890.42 469.772 890.379 469.519C890.349 469.236 890.427 468.953 890.6 468.725C890.772 468.498 891.025 468.344 891.308 468.294C897.301 467.436 903.349 467.004 909.405 467H910.093C910.347 467.045 910.577 467.177 910.743 467.373C910.909 467.569 911 467.817 911 468.072C911 468.328 910.909 468.575 910.743 468.771C910.577 468.967 910.347 469.1 910.093 469.145H909.405C903.452 469.148 897.507 469.581 891.618 470.438H891.446Z" fill="#FF6D00"/>
<path d="M936.898 470.973H936.65C933.744 470.466 930.803 470.038 927.933 469.691C927.644 469.652 927.387 469.53 927.215 469.35C927.043 469.171 926.97 468.948 927.011 468.729C927.055 468.507 927.214 468.306 927.453 468.171C927.691 468.036 927.991 467.977 928.287 468.008C931.193 468.355 934.169 468.809 937.146 469.317C937.411 469.368 937.643 469.489 937.798 469.659C937.954 469.828 938.023 470.035 937.993 470.24C937.963 470.445 937.835 470.635 937.634 470.774C937.433 470.914 937.171 470.994 936.898 471V470.973Z" fill="#FF6D00"/>
<path d="M664.996 583.993C664.708 583.959 664.445 583.815 664.26 583.592C664.075 583.37 663.983 583.085 664.003 582.796C664.516 577.118 665.201 571.304 666.057 565.694C666.122 565.427 666.285 565.194 666.514 565.042C666.743 564.89 667.022 564.829 667.293 564.872C667.565 564.915 667.811 565.059 667.981 565.275C668.152 565.49 668.235 565.762 668.214 566.036C667.358 571.714 666.673 577.46 666.16 583.138C666.11 583.401 665.962 583.635 665.746 583.794C665.53 583.953 665.262 584.024 664.996 583.993ZM670.097 549.79H669.892C669.61 549.724 669.363 549.553 669.204 549.311C669.045 549.069 668.984 548.775 669.036 548.49C670.234 542.846 671.604 537.169 673.145 531.628C673.158 531.469 673.206 531.315 673.286 531.176C673.365 531.038 673.474 530.919 673.605 530.827C673.735 530.735 673.884 530.672 674.041 530.644C674.198 530.615 674.36 530.622 674.514 530.662C674.669 530.703 674.813 530.776 674.936 530.878C675.058 530.98 675.158 531.107 675.226 531.251C675.295 531.396 675.331 531.553 675.332 531.712C675.333 531.872 675.3 532.03 675.233 532.175C673.727 537.716 672.357 543.325 671.159 548.935C671.104 549.173 670.968 549.384 670.774 549.534C670.581 549.683 670.342 549.762 670.097 549.755V549.79ZM679.239 516.441H678.897C678.76 516.399 678.634 516.329 678.525 516.237C678.416 516.144 678.327 516.031 678.263 515.903C678.199 515.775 678.161 515.636 678.153 515.493C678.144 515.351 678.164 515.208 678.212 515.073C680.061 509.601 682.115 504.128 684.273 498.792C684.399 498.552 684.611 498.367 684.867 498.274C685.122 498.18 685.403 498.186 685.655 498.288C685.907 498.39 686.112 498.583 686.23 498.828C686.348 499.073 686.37 499.353 686.293 499.613C684.136 504.881 682.116 510.319 680.267 515.757C680.183 515.958 680.039 516.127 679.855 516.244C679.672 516.36 679.457 516.417 679.239 516.407V516.441ZM692.285 484.393C692.1 484.401 691.915 484.36 691.751 484.275C691.586 484.19 691.447 484.064 691.346 483.908C691.246 483.752 691.188 483.573 691.178 483.388C691.169 483.203 691.208 483.019 691.292 482.854C693.791 477.621 696.462 472.422 699.236 467.394C699.303 467.268 699.396 467.158 699.507 467.069C699.619 466.98 699.747 466.914 699.884 466.876C700.022 466.838 700.166 466.827 700.307 466.846C700.449 466.864 700.585 466.911 700.708 466.983C700.833 467.051 700.944 467.143 701.033 467.255C701.122 467.366 701.188 467.494 701.226 467.631C701.265 467.769 701.275 467.912 701.256 468.054C701.238 468.195 701.191 468.331 701.119 468.454C698.38 473.448 695.709 478.715 693.244 483.777C693.151 483.951 693.013 484.097 692.844 484.2C692.676 484.302 692.482 484.357 692.285 484.359V484.393ZM708.994 454.123C708.79 454.109 708.591 454.051 708.412 453.952C708.173 453.792 708.007 453.544 707.949 453.262C707.891 452.981 707.947 452.688 708.104 452.447C711.151 447.59 714.438 442.733 717.828 438.047C717.898 437.903 717.998 437.776 718.123 437.675C718.247 437.575 718.392 437.502 718.547 437.463C718.702 437.424 718.864 437.42 719.022 437.45C719.179 437.48 719.328 437.545 719.457 437.639C719.587 437.733 719.694 437.854 719.772 437.994C719.85 438.134 719.896 438.289 719.907 438.449C719.918 438.608 719.894 438.768 719.837 438.918C719.779 439.067 719.689 439.202 719.574 439.313C716.15 443.964 712.966 448.787 709.918 453.61C709.814 453.758 709.676 453.879 709.515 453.962C709.354 454.045 709.175 454.089 708.994 454.089V454.123ZM729.23 426.008C729.029 426.003 728.834 425.943 728.665 425.835C728.496 425.727 728.36 425.575 728.271 425.395C728.183 425.215 728.146 425.015 728.164 424.815C728.182 424.615 728.255 424.425 728.374 424.263L729.024 423.442C729.113 423.323 729.226 423.222 729.355 423.148C729.484 423.073 729.627 423.025 729.775 423.008C729.924 422.99 730.074 423.003 730.217 423.046C730.36 423.088 730.493 423.159 730.607 423.255C730.722 423.351 730.816 423.469 730.883 423.602C730.95 423.735 730.989 423.881 730.998 424.03C731.007 424.178 730.985 424.327 730.934 424.468C730.883 424.608 730.804 424.736 730.702 424.845L730.052 425.631C729.946 425.743 729.819 425.831 729.677 425.89C729.535 425.949 729.383 425.977 729.23 425.973V426.008Z" fill="#FF6D00"/>
<path d="M495.834 591.967C495.675 591.967 495.519 591.93 495.377 591.858C495.235 591.786 495.112 591.682 495.017 591.553C491.466 587.074 487.473 582.974 483.1 579.316C482.988 579.225 482.895 579.113 482.825 578.987C482.756 578.86 482.713 578.72 482.697 578.576C482.681 578.432 482.693 578.286 482.733 578.147C482.773 578.008 482.84 577.878 482.929 577.765C483.137 577.568 483.411 577.459 483.695 577.459C483.98 577.459 484.254 577.568 484.462 577.765C488.946 581.517 493.041 585.721 496.685 590.312C496.887 590.519 497 590.798 497 591.088C497 591.378 496.887 591.657 496.685 591.864C496.422 591.998 496.121 592.034 495.834 591.967ZM364.983 591.967C364.737 591.956 364.501 591.872 364.302 591.726C364.108 591.515 364 591.238 364 590.95C364 590.662 364.108 590.385 364.302 590.175C366.914 586.911 369.747 583.836 372.78 580.971C372.984 580.766 373.259 580.652 373.546 580.652C373.833 580.652 374.108 580.766 374.312 580.971C374.411 581.07 374.489 581.188 374.543 581.318C374.596 581.448 374.624 581.588 374.624 581.729C374.624 581.87 374.596 582.01 374.543 582.14C374.489 582.27 374.411 582.388 374.312 582.487C371.349 585.276 368.595 588.283 366.072 591.484C365.953 591.66 365.788 591.798 365.596 591.884C365.403 591.969 365.191 591.998 364.983 591.967ZM387.149 572.387C386.916 572.379 386.693 572.295 386.51 572.149C386.328 572.002 386.197 571.801 386.136 571.573C386.075 571.346 386.088 571.105 386.172 570.885C386.256 570.666 386.407 570.479 386.604 570.353C391.584 567.318 396.854 564.8 402.335 562.838C402.61 562.749 402.909 562.771 403.169 562.9C403.429 563.028 403.63 563.253 403.731 563.528C403.818 563.802 403.795 564.1 403.668 564.358C403.54 564.615 403.319 564.812 403.05 564.907C397.704 566.82 392.56 569.268 387.694 572.215C387.532 572.323 387.343 572.383 387.149 572.387ZM469.514 569.905C469.345 569.938 469.172 569.938 469.003 569.905C463.987 567.236 458.716 565.088 453.272 563.493C453.117 563.473 452.968 563.42 452.835 563.336C452.702 563.253 452.589 563.141 452.502 563.009C452.416 562.877 452.358 562.728 452.334 562.572C452.309 562.415 452.318 562.255 452.36 562.103C452.402 561.95 452.476 561.809 452.577 561.688C452.678 561.567 452.803 561.469 452.945 561.401C453.086 561.334 453.24 561.298 453.397 561.296C453.553 561.294 453.708 561.326 453.851 561.391C459.453 563.012 464.873 565.219 470.025 567.975C470.148 568.04 470.257 568.129 470.346 568.238C470.435 568.346 470.502 568.471 470.543 568.605C470.584 568.74 470.599 568.881 470.586 569.022C470.573 569.162 470.533 569.298 470.467 569.423C470.357 569.59 470.203 569.723 470.023 569.808C469.843 569.893 469.643 569.927 469.446 569.905H469.514ZM419.427 560.908C419.167 560.918 418.914 560.827 418.717 560.654C418.521 560.481 418.398 560.239 418.372 559.977C418.348 559.834 418.353 559.688 418.386 559.546C418.42 559.405 418.482 559.273 418.568 559.157C418.654 559.041 418.763 558.943 418.887 558.871C419.011 558.799 419.149 558.753 419.291 558.736C425.06 557.978 430.888 557.805 436.69 558.219C436.834 558.228 436.974 558.265 437.103 558.329C437.231 558.393 437.347 558.482 437.442 558.59C437.536 558.699 437.609 558.826 437.656 558.964C437.702 559.101 437.721 559.246 437.712 559.391C437.712 559.977 437.099 560.529 436.554 560.391C430.877 559.973 425.172 560.147 419.53 560.908H419.427Z" fill="#FF6D00"/>
<path d="M589.934 492.997C589.724 493.005 589.517 492.947 589.342 492.833C589.166 492.718 589.03 492.552 588.953 492.357C586.829 487.142 584.225 482.134 581.173 477.397C581.099 477.28 581.049 477.15 581.026 477.014C581.003 476.877 581.007 476.737 581.038 476.603C581.07 476.468 581.128 476.341 581.209 476.228C581.29 476.116 581.393 476.021 581.512 475.949C581.625 475.868 581.755 475.813 581.891 475.784C582.028 475.756 582.169 475.756 582.305 475.785C582.442 475.813 582.571 475.869 582.685 475.95C582.798 476.03 582.894 476.133 582.966 476.252C586.087 481.094 588.748 486.215 590.915 491.548C590.97 491.677 590.999 491.814 591 491.954C591.001 492.093 590.974 492.231 590.92 492.36C590.866 492.489 590.788 492.605 590.688 492.703C590.588 492.801 590.47 492.878 590.34 492.93C590.213 492.985 590.073 493.008 589.934 492.997ZM571.533 464.527C571.239 464.521 570.96 464.4 570.755 464.19C566.859 460.118 562.59 456.418 558.003 453.138C557.775 452.964 557.624 452.71 557.58 452.428C557.535 452.145 557.602 451.857 557.766 451.622C557.934 451.398 558.184 451.248 558.462 451.204C558.74 451.16 559.024 451.225 559.254 451.386C563.95 454.748 568.321 458.538 572.311 462.707C572.504 462.913 572.611 463.184 572.611 463.465C572.611 463.747 572.504 464.018 572.311 464.223C572.21 464.326 572.089 464.406 571.955 464.459C571.821 464.511 571.677 464.534 571.533 464.527ZM543.897 444.715C543.741 444.747 543.58 444.747 543.424 444.715C538.31 442.346 532.988 440.451 527.525 439.055C527.389 439.023 527.26 438.965 527.147 438.883C527.033 438.801 526.938 438.697 526.865 438.578C526.793 438.459 526.745 438.326 526.725 438.188C526.704 438.05 526.712 437.91 526.747 437.774C526.827 437.502 527.007 437.27 527.253 437.126C527.498 436.982 527.789 436.937 528.067 437C533.657 438.431 539.103 440.371 544.337 442.795C544.465 442.853 544.58 442.935 544.676 443.039C544.771 443.142 544.845 443.263 544.892 443.395C544.939 443.527 544.96 443.667 544.951 443.807C544.943 443.947 544.907 444.084 544.844 444.21C544.744 444.369 544.604 444.499 544.438 444.588C544.272 444.677 544.086 444.72 543.897 444.715ZM472.085 442.323C471.866 442.33 471.651 442.269 471.469 442.148C471.287 442.027 471.147 441.853 471.07 441.649C470.97 441.385 470.977 441.093 471.091 440.835C471.205 440.577 471.416 440.373 471.679 440.268C473.404 439.628 475.061 439.021 476.82 438.448C477.094 438.364 477.39 438.391 477.644 438.524C477.897 438.656 478.088 438.884 478.173 439.156C478.258 439.42 478.235 439.706 478.108 439.952C477.981 440.199 477.761 440.385 477.497 440.47C475.806 441.009 474.114 441.615 472.457 442.256C472.341 442.31 472.212 442.333 472.085 442.323ZM493.835 436.831C493.577 436.841 493.324 436.752 493.129 436.583C492.935 436.414 492.812 436.177 492.786 435.921C492.747 435.64 492.822 435.355 492.993 435.128C493.164 434.901 493.418 434.75 493.699 434.708C499.431 433.984 505.22 433.815 510.984 434.203C511.125 434.207 511.264 434.24 511.392 434.298C511.519 434.357 511.634 434.441 511.729 434.544C511.824 434.648 511.896 434.77 511.943 434.902C511.989 435.035 512.008 435.175 511.999 435.315C511.982 435.589 511.86 435.846 511.659 436.034C511.458 436.222 511.193 436.326 510.917 436.326C505.276 435.952 499.612 436.122 494.004 436.831H493.835Z" fill="#FF6D00"/>
<path d="M898 623.99C897.873 623.994 897.747 623.971 897.629 623.924C897.511 623.876 897.404 623.805 897.314 623.714C897.215 623.615 897.136 623.497 897.082 623.367C897.028 623.237 897 623.097 897 622.956C897 622.816 897.028 622.676 897.082 622.546C897.136 622.416 897.215 622.298 897.314 622.199C901.106 617.731 905.235 613.562 909.663 609.729C909.876 609.54 910.15 609.436 910.434 609.436C910.719 609.436 910.993 609.54 911.206 609.729C911.402 609.94 911.51 610.217 911.51 610.504C911.51 610.792 911.402 611.069 911.206 611.279C906.856 615.04 902.797 619.128 899.064 623.508C898.949 623.68 898.789 623.817 898.601 623.902C898.413 623.988 898.205 624.018 898 623.99ZM924.206 601.324C924.021 601.327 923.837 601.281 923.675 601.19C923.512 601.099 923.376 600.967 923.28 600.808C923.205 600.688 923.154 600.555 923.131 600.415C923.107 600.276 923.111 600.133 923.143 599.995C923.175 599.857 923.234 599.727 923.316 599.612C923.399 599.498 923.503 599.4 923.623 599.326C928.578 596.225 933.761 593.507 939.128 591.197C939.392 591.08 939.691 591.073 939.96 591.176C940.23 591.279 940.448 591.485 940.568 591.748C940.625 591.882 940.654 592.025 940.656 592.17C940.657 592.315 940.63 592.459 940.575 592.593C940.521 592.728 940.441 592.85 940.34 592.953C940.239 593.056 940.118 593.139 939.985 593.195C934.715 595.445 929.633 598.118 924.79 601.187C924.61 601.281 924.409 601.329 924.206 601.324ZM1039.97 598.603C1039.79 598.655 1039.6 598.655 1039.42 598.603C1034.43 595.778 1029.22 593.348 1023.85 591.335C1023.59 591.227 1023.37 591.019 1023.26 590.755C1023.14 590.491 1023.13 590.192 1023.23 589.923C1023.28 589.788 1023.35 589.665 1023.45 589.56C1023.54 589.455 1023.66 589.371 1023.79 589.313C1023.91 589.255 1024.05 589.224 1024.2 589.222C1024.34 589.22 1024.48 589.248 1024.61 589.303C1030.08 591.356 1035.39 593.832 1040.49 596.709C1040.68 596.833 1040.84 597.016 1040.92 597.232C1041.01 597.449 1041.02 597.687 1040.97 597.912C1040.91 598.138 1040.78 598.34 1040.6 598.489C1040.43 598.637 1040.2 598.726 1039.97 598.741V598.603ZM956.004 587.649C955.864 587.667 955.722 587.658 955.586 587.621C955.45 587.584 955.323 587.52 955.212 587.434C954.987 587.259 954.84 587.002 954.803 586.719C954.767 586.436 954.844 586.15 955.018 585.924C955.191 585.698 955.447 585.55 955.729 585.514C961.361 584.053 967.094 583.017 972.88 582.413C973.033 582.375 973.193 582.37 973.348 582.399C973.504 582.429 973.651 582.491 973.78 582.583C973.909 582.675 974.016 582.793 974.096 582.93C974.175 583.068 974.223 583.22 974.238 583.378C974.253 583.536 974.234 583.696 974.182 583.845C974.13 583.995 974.047 584.132 973.937 584.246C973.828 584.361 973.695 584.45 973.548 584.508C973.401 584.567 973.244 584.592 973.086 584.583C967.384 585.183 961.732 586.196 956.175 587.615L956.004 587.649ZM1007.46 586.409H1007.22C1001.56 585.227 995.83 584.479 990.065 584.17C989.922 584.166 989.782 584.133 989.652 584.073C989.523 584.013 989.406 583.927 989.31 583.821C989.214 583.715 989.14 583.591 989.093 583.455C989.046 583.32 989.027 583.176 989.036 583.033C989.062 582.75 989.192 582.487 989.402 582.296C989.611 582.104 989.885 581.999 990.168 582C996.003 582.31 1001.81 583.07 1007.52 584.273C1007.8 584.332 1008.05 584.498 1008.21 584.736C1008.37 584.974 1008.43 585.265 1008.38 585.548C1008.34 585.747 1008.25 585.93 1008.11 586.077C1007.97 586.223 1007.79 586.326 1007.59 586.375L1007.46 586.409Z" fill="#FF6D00"/>
<path d="M874.099 835.977H690.286C690.129 836.015 689.967 836.006 689.813 835.95C689.658 835.893 689.514 835.791 689.392 835.65C689.269 835.509 689.17 835.333 689.103 835.135C689.035 834.936 689 834.719 689 834.5C689 834.281 689.035 834.064 689.103 833.865C689.17 833.667 689.269 833.49 689.392 833.35C689.514 833.209 689.658 833.107 689.813 833.05C689.967 832.994 690.129 832.985 690.286 833.023H874.099C874.351 833.085 874.58 833.267 874.745 833.537C874.91 833.807 875 834.148 875 834.5C875 834.852 874.91 835.193 874.745 835.463C874.58 835.733 874.351 835.915 874.099 835.977Z" fill="#0D005A"/>
<path d="M597.72 835.977H553.897C553.646 835.915 553.418 835.733 553.254 835.463C553.09 835.193 553 834.852 553 834.5C553 834.148 553.09 833.807 553.254 833.537C553.418 833.267 553.646 833.085 553.897 833.023H597.72C597.876 832.985 598.037 832.994 598.191 833.05C598.345 833.107 598.488 833.209 598.61 833.35C598.732 833.49 598.83 833.667 598.898 833.865C598.965 834.064 599 834.281 599 834.5C599 834.719 598.965 834.936 598.898 835.135C598.83 835.333 598.732 835.509 598.61 835.65C598.488 835.791 598.345 835.893 598.191 835.95C598.037 836.006 597.876 836.015 597.72 835.977Z" fill="#0D005A"/>
</svg>
