<svg xmlns="http://www.w3.org/2000/svg" xmlns:xlink="http://www.w3.org/1999/xlink" width="1080" zoomAndPan="magnify" viewBox="0 0 810 809.999993" height="1080" preserveAspectRatio="xMidYMid meet" version="1.0"><defs><clipPath id="4d69f85489"><path d="M 230 439 L 291 439 L 291 541.921875 L 230 541.921875 Z M 230 439 " clip-rule="nonzero"/></clipPath><clipPath id="5f78d2f683"><path d="M 309 423 L 370 423 L 370 541.921875 L 309 541.921875 Z M 309 423 " clip-rule="nonzero"/></clipPath><clipPath id="fa04478afe"><path d="M 389 397 L 450 397 L 450 541.921875 L 389 541.921875 Z M 389 397 " clip-rule="nonzero"/></clipPath><clipPath id="1a00445a93"><path d="M 468 355 L 529 355 L 529 541.921875 L 468 541.921875 Z M 468 355 " clip-rule="nonzero"/></clipPath><clipPath id="c88a972ee0"><path d="M 219.234375 292.921875 L 556 292.921875 L 556 437 L 219.234375 437 Z M 219.234375 292.921875 " clip-rule="nonzero"/></clipPath><clipPath id="fa41f06bf6"><path d="M 490 398 L 590.484375 398 L 590.484375 499 L 490 499 Z M 490 398 " clip-rule="nonzero"/></clipPath></defs><g clip-path="url(#4d69f85489)"><path fill="#ffffff" d="M 286.144531 541.863281 L 234.746094 541.863281 C 232.429688 541.863281 230.546875 539.980469 230.546875 537.660156 L 230.546875 447.601562 C 230.546875 445.28125 232.429688 443.398438 234.746094 443.398438 L 235.039062 443.398438 C 245.199219 443.273438 255.371094 442.433594 264.839844 441.542969 C 271.683594 440.902344 278.671875 440.121094 285.609375 439.230469 C 286.808594 439.078125 288.011719 439.449219 288.917969 440.238281 C 289.824219 441.039062 290.34375 442.1875 290.34375 443.390625 L 290.34375 537.652344 C 290.34375 539.980469 288.464844 541.863281 286.144531 541.863281 Z M 238.945312 533.457031 L 281.945312 533.457031 L 281.945312 448.15625 C 276.480469 448.820312 271.003906 449.410156 265.621094 449.914062 C 257.148438 450.714844 248.113281 451.46875 238.9375 451.730469 L 238.9375 533.457031 Z M 238.945312 533.457031 " fill-opacity="1" fill-rule="nonzero"/></g><g clip-path="url(#5f78d2f683)"><path fill="#ffffff" d="M 365.492188 541.863281 L 314.09375 541.863281 C 311.773438 541.863281 309.894531 539.980469 309.894531 537.660156 L 309.894531 439.164062 C 309.894531 437.121094 311.363281 435.371094 313.371094 435.019531 C 321.289062 433.640625 329.324219 432.074219 337.277344 430.386719 C 346.386719 428.445312 355.53125 426.292969 364.441406 423.980469 C 365.703125 423.660156 367.039062 423.929688 368.0625 424.730469 C 369.085938 425.527344 369.691406 426.753906 369.691406 428.050781 L 369.691406 537.652344 C 369.691406 539.980469 367.808594 541.863281 365.492188 541.863281 Z M 318.28125 533.457031 L 361.285156 533.457031 L 361.285156 433.464844 C 353.9375 435.296875 346.464844 437.027344 339.015625 438.617188 C 332.128906 440.085938 325.167969 441.449219 318.28125 442.695312 Z M 318.28125 533.457031 " fill-opacity="1" fill-rule="nonzero"/></g><g clip-path="url(#fa04478afe)"><path fill="#ffffff" d="M 444.832031 541.863281 L 393.429688 541.863281 C 391.113281 541.863281 389.230469 539.980469 389.230469 537.660156 L 389.230469 420.113281 C 389.230469 418.273438 390.433594 416.640625 392.1875 416.09375 C 409.730469 410.65625 426.894531 404.417969 443.210938 397.566406 C 444.503906 397.019531 445.988281 397.164062 447.15625 397.945312 C 448.324219 398.726562 449.027344 400.039062 449.027344 401.441406 L 449.027344 537.652344 C 449.027344 539.980469 447.148438 541.863281 444.832031 541.863281 Z M 397.628906 533.457031 L 440.632812 533.457031 L 440.632812 407.730469 C 426.757812 413.371094 412.332031 418.558594 397.628906 423.207031 Z M 397.628906 533.457031 " fill-opacity="1" fill-rule="nonzero"/></g><g clip-path="url(#1a00445a93)"><path fill="#ffffff" d="M 524.167969 541.863281 L 472.769531 541.863281 C 470.449219 541.863281 468.570312 539.980469 468.570312 537.660156 L 468.570312 388.730469 C 468.570312 387.125 469.476562 385.664062 470.914062 384.957031 C 488.808594 376.148438 505.945312 366.335938 521.851562 355.796875 C 523.144531 354.9375 524.789062 354.863281 526.160156 355.601562 C 527.519531 356.332031 528.367188 357.753906 528.367188 359.300781 L 528.367188 405.292969 C 528.367188 407.613281 526.484375 409.496094 524.167969 409.496094 C 521.851562 409.496094 519.96875 407.613281 519.96875 405.292969 L 519.96875 367.042969 C 506.347656 375.726562 491.921875 383.875 476.96875 391.339844 L 476.96875 533.449219 L 519.96875 533.449219 L 519.96875 491.660156 C 519.96875 489.339844 521.851562 487.457031 524.167969 487.457031 C 526.484375 487.457031 528.367188 489.339844 528.367188 491.660156 L 528.367188 537.652344 C 528.367188 539.980469 526.496094 541.863281 524.167969 541.863281 Z M 524.167969 541.863281 " fill-opacity="1" fill-rule="nonzero"/></g><g clip-path="url(#c88a972ee0)"><path fill="#ffffff" d="M 234.746094 436.144531 C 226.355469 436.144531 219.480469 429.359375 219.378906 420.945312 C 219.277344 412.464844 226.085938 405.46875 234.5625 405.367188 C 243.386719 405.257812 252.625 404.496094 261.296875 403.679688 C 283.617188 401.585938 306.527344 398.054688 329.375 393.1875 C 396.597656 378.871094 455.285156 354.953125 503.90625 322.070312 L 497.179688 315.335938 C 493.351562 311.503906 492.257812 306.011719 494.332031 301.003906 C 496.40625 295.992188 501.058594 292.882812 506.46875 292.882812 L 542.222656 292.882812 C 549.46875 292.882812 555.363281 298.78125 555.363281 306.039062 L 555.363281 341.832031 C 555.363281 347.253906 552.257812 351.910156 547.253906 353.980469 C 542.246094 356.054688 536.765625 354.964844 532.933594 351.128906 L 526.015625 344.203125 C 473.164062 381.058594 409.175781 407.65625 335.765625 423.292969 C 311.75 428.402344 287.664062 432.117188 264.160156 434.320312 C 255.285156 435.152344 244.871094 436.019531 234.929688 436.144531 C 234.871094 436.144531 234.804688 436.144531 234.746094 436.144531 Z M 506.46875 301.289062 C 504.484375 301.289062 502.847656 302.382812 502.082031 304.214844 C 501.328125 306.046875 501.707031 307.980469 503.109375 309.382812 L 513.402344 319.691406 C 514.285156 320.574219 514.730469 321.800781 514.621094 323.035156 C 514.511719 324.28125 513.855469 325.40625 512.832031 326.113281 C 462.488281 361.109375 401.347656 386.4375 331.105469 401.390625 C 307.9375 406.328125 284.710938 409.910156 262.070312 412.027344 C 253.21875 412.859375 243.78125 413.640625 234.652344 413.75 C 230.808594 413.800781 227.71875 416.96875 227.757812 420.820312 C 227.808594 424.644531 230.925781 427.722656 234.738281 427.722656 C 234.761719 427.722656 234.796875 427.722656 234.820312 427.722656 C 244.460938 427.605469 254.664062 426.753906 263.371094 425.929688 C 286.546875 423.753906 310.3125 420.097656 334.011719 415.042969 C 407.636719 399.367188 471.585938 372.53125 524.050781 335.285156 C 525.722656 334.097656 528.007812 334.292969 529.449219 335.738281 L 538.871094 345.160156 C 540.273438 346.566406 542.207031 346.953125 544.035156 346.1875 C 545.867188 345.429688 546.96875 343.792969 546.96875 341.800781 L 546.96875 306.039062 C 546.96875 303.421875 544.84375 301.289062 542.222656 301.289062 Z M 506.46875 301.289062 " fill-opacity="1" fill-rule="nonzero"/></g><g clip-path="url(#fa41f06bf6)"><path fill="#ffffff" d="M 540.292969 498.78125 C 512.589844 498.78125 490.050781 476.21875 490.050781 448.484375 C 490.050781 420.753906 512.589844 398.191406 540.292969 398.191406 C 567.996094 398.191406 590.53125 420.753906 590.53125 448.484375 C 590.53125 476.21875 567.996094 498.78125 540.292969 498.78125 Z M 540.292969 406.585938 C 517.214844 406.585938 498.449219 425.375 498.449219 448.476562 C 498.449219 471.578125 517.222656 490.367188 540.292969 490.367188 C 563.367188 490.367188 582.136719 471.570312 582.136719 448.476562 C 582.136719 425.382812 563.359375 406.585938 540.292969 406.585938 Z M 540.292969 406.585938 " fill-opacity="1" fill-rule="nonzero"/></g><path fill="#ffffff" d="M 534.0625 465.308594 C 532.945312 465.308594 531.878906 464.863281 531.089844 464.078125 L 518.332031 451.308594 C 516.695312 449.671875 516.695312 447.007812 518.332031 445.367188 C 519.96875 443.726562 522.632812 443.726562 524.269531 445.367188 L 534.050781 455.160156 L 556.296875 432.890625 C 557.933594 431.253906 560.597656 431.253906 562.234375 432.890625 C 563.871094 434.53125 563.871094 437.195312 562.234375 438.835938 L 537.015625 464.078125 C 536.234375 464.863281 535.167969 465.308594 534.0625 465.308594 Z M 534.0625 465.308594 " fill-opacity="1" fill-rule="nonzero"/></svg>