<svg xmlns="http://www.w3.org/2000/svg" xmlns:xlink="http://www.w3.org/1999/xlink" width="1080" zoomAndPan="magnify" viewBox="0 0 810 809.999993" height="1080" preserveAspectRatio="xMidYMid meet" version="1.0"><path fill="#ffffff" d="M 547.863281 486.039062 C 544.457031 432.9375 474.675781 421.78125 474.675781 421.78125 C 456.851562 418.597656 449.582031 403.292969 446.707031 393.386719 C 460.410156 378.039062 469.996094 358.207031 475.296875 338.882812 C 477.316406 331.515625 478.40625 323.828125 478.40625 316.179688 C 478.40625 311.832031 477.972656 307.589844 477.230469 303.457031 C 486.128906 288.546875 483.507812 271.921875 481.398438 263.933594 C 480.757812 261.503906 478.332031 260.308594 475.839844 260.308594 C 475.570312 260.308594 475.304688 260.320312 475.042969 260.347656 C 474.09375 260.445312 473.089844 260.492188 472.039062 260.492188 C 456.109375 260.492188 429.765625 249.910156 429.765625 249.910156 C 418.898438 245.234375 409.121094 243.261719 400.410156 243.042969 L 400.410156 243 L 397.523438 243 L 397.523438 243.027344 C 365.953125 243.648438 349.585938 267.527344 349.585938 267.527344 C 333.53125 272.898438 330.8125 293.582031 331.765625 311.691406 C 331.675781 313.175781 331.59375 314.664062 331.59375 316.175781 C 331.59375 343.398438 343.15625 374.617188 361.175781 395.1875 C 361.703125 395.792969 362.25 396.367188 362.796875 396.945312 C 359.289062 406.617188 351.785156 418.960938 335.992188 421.78125 C 335.992188 421.78125 266.207031 432.933594 262.804688 486.039062 C 262.804688 486.039062 258.597656 513.792969 262.125 546.890625 C 263.308594 558.003906 273.660156 566.988281 284.90625 566.988281 L 525.761719 566.988281 C 537.007812 566.988281 547.101562 557.972656 548.128906 546.835938 C 550.863281 517.171875 547.847656 486.027344 547.847656 486.027344 Z M 447.535156 419.003906 L 451.242188 423.101562 L 452.132812 424.082031 L 453.246094 424.804688 L 456.5 426.914062 L 431.507812 462.648438 L 420.816406 445.3125 C 420.042969 444.390625 419.980469 442.566406 420.617188 441.464844 Z M 411.34375 460.6875 L 399.148438 460.6875 L 395.484375 454.210938 L 396.933594 451.828125 C 397.882812 450.699219 398.582031 449.402344 399.082031 448.03125 L 410.917969 448.03125 C 411.417969 449.402344 412.117188 450.699219 413.066406 451.828125 L 414.714844 454.535156 Z M 420.164062 524.828125 C 420.3125 525.394531 419.871094 526.769531 419.296875 527.207031 L 407.195312 536.417969 C 406.84375 536.683594 405.832031 536.6875 405.480469 536.417969 L 393.378906 527.210938 C 392.734375 526.71875 392.222656 525.230469 392.375 524.539062 L 403.5 470.824219 L 406.730469 470.824219 L 420.164062 524.839844 Z M 413.304688 434.378906 C 412.378906 435.425781 411.683594 436.628906 411.15625 437.90625 L 398.84375 437.90625 C 398.316406 436.628906 397.621094 435.425781 396.695312 434.382812 L 367.773438 410.25 C 368.980469 408.175781 370.003906 406.09375 370.878906 404.058594 C 380.699219 411.230469 392.363281 415.125 404.007812 415.125 C 415.292969 415.125 426.554688 411.480469 436.085938 403.640625 C 436.976562 402.910156 437.835938 402.140625 438.695312 401.378906 C 439.730469 404.109375 441.042969 406.996094 442.679688 409.867188 L 413.300781 434.378906 Z M 352.800781 277.125 C 354.851562 276.441406 356.664062 275.066406 357.90625 273.296875 C 358.480469 272.476562 372.390625 253.128906 398.765625 253.125 L 398.765625 253.03125 L 398.769531 253.03125 L 398.769531 253.125 C 407.296875 253.125 416.378906 255.171875 425.765625 259.210938 C 425.839844 259.246094 425.917969 259.277344 425.992188 259.308594 C 428.875 260.464844 454.652344 270.617188 472.039062 270.617188 C 472.203125 270.617188 472.367188 270.617188 472.527344 270.613281 C 475.039062 284.105469 473.578125 304.476562 446.933594 315.144531 C 446.8125 315.191406 434.476562 319.945312 419.316406 319.945312 C 404.28125 319.945312 391.890625 315.371094 382.417969 306.289062 C 380.410156 304.398438 377.734375 303.359375 374.886719 303.359375 C 371.898438 303.359375 368.152344 304.03125 355.332031 312.152344 L 355.167969 312.253906 C 350.21875 315.382812 346.113281 319.191406 343.019531 323.488281 C 340.371094 304.699219 340.609375 281.210938 352.800781 277.128906 Z M 345.65625 343.667969 C 346.042969 340.292969 347.542969 336.476562 348.316406 334.609375 C 350.746094 328.742188 355.257812 324.175781 360.578125 320.816406 C 362.097656 319.851562 372.0625 313.484375 374.886719 313.484375 C 375.148438 313.484375 375.347656 313.539062 375.476562 313.660156 C 388.878906 326.511719 405.265625 330.070312 419.316406 330.070312 C 436.789062 330.070312 450.648438 324.5625 450.648438 324.5625 C 457.945312 321.640625 463.691406 318.089844 468.199219 314.175781 C 468.222656 314.847656 468.28125 315.507812 468.28125 316.179688 C 468.28125 322.820312 467.355469 329.558594 465.53125 336.207031 C 458.753906 360.921875 445.679688 382.652344 429.65625 395.820312 C 422.351562 401.828125 413.484375 405.003906 404.007812 405.003906 C 390.800781 405.003906 377.964844 398.996094 368.792969 388.523438 C 358.375 376.628906 350.1875 360.359375 345.65625 343.671875 Z M 356.753906 424.804688 L 357.867188 424.082031 L 358.757812 423.101562 L 362.464844 419.003906 L 389.382812 441.464844 C 390.015625 442.566406 389.957031 444.390625 389.183594 445.3125 L 378.488281 462.648438 L 353.5 426.914062 Z M 538.042969 545.914062 C 537.511719 551.761719 531.765625 556.875 525.765625 556.875 L 284.90625 556.875 C 278.761719 556.875 272.824219 551.707031 272.195312 545.820312 C 268.863281 514.527344 272.777344 487.8125 272.816406 487.554688 L 272.882812 487.125 L 272.910156 486.6875 C 275.75 442.394531 336.992188 431.882812 337.59375 431.789062 L 337.683594 431.773438 L 337.777344 431.757812 C 339.804688 431.394531 341.695312 430.886719 343.515625 430.3125 L 371.984375 471.019531 C 373.472656 474.230469 375.832031 475.882812 378.332031 475.882812 C 380.335938 475.882812 382.433594 474.824219 384.253906 472.660156 L 389.453125 464.121094 L 393.183594 470.714844 L 382.46875 522.449219 C 381.476562 527.019531 383.484375 532.410156 387.246094 535.28125 L 399.347656 544.488281 C 401.339844 546.003906 403.835938 546.765625 406.335938 546.761719 C 408.835938 546.761719 411.332031 546.003906 413.328125 544.488281 L 425.429688 535.277344 C 429.195312 532.410156 431.144531 526.828125 429.976562 522.347656 L 417.175781 470.808594 L 417.34375 470.808594 L 420.796875 464.511719 L 425.75 472.648438 C 427.570312 474.8125 429.667969 475.871094 431.671875 475.871094 C 434.175781 475.871094 436.53125 474.21875 438.019531 471.007812 L 466.609375 430.132812 C 468.589844 430.789062 470.667969 431.347656 472.902344 431.746094 L 473.082031 431.777344 C 473.703125 431.878906 534.910156 442.171875 537.765625 486.683594 L 537.777344 486.847656 L 537.792969 487.007812 C 537.816406 487.308594 540.679688 517.535156 538.046875 545.910156 Z M 538.042969 545.914062 " fill-opacity="1" fill-rule="nonzero"/></svg>