<svg width="1080" height="1080" viewBox="0 0 1080 1080" fill="none" xmlns="http://www.w3.org/2000/svg">
<g clip-path="url(#clip0_711_9082)">
<rect width="1080" height="1080" fill="white"/>
<path d="M612.664 86.9688C628.39 111.983 635.662 136.291 637.172 159.23C625.862 164.691 612.557 171.457 612.557 171.457L637.325 174.976C633.333 261.926 551.027 325.505 551.027 325.505C515.529 271.127 508.803 227.219 516.081 192.626C524.995 191.488 538.274 189.965 538.274 189.965L518.981 181.642C523.926 166.197 531.745 151.826 542.026 139.285C552.045 143.669 563.521 148.386 563.521 148.386L551.812 128.295C579.707 99.7085 612.664 86.9688 612.664 86.9688Z" fill="#FFBB6A"/>
<path d="M516.08 192.626C524.995 191.488 538.274 189.965 538.274 189.965L518.981 181.642C523.925 166.198 531.744 151.826 542.026 139.285C552.045 143.669 563.52 148.386 563.52 148.386L551.812 128.295C579.753 99.7286 612.69 86.9888 612.69 86.9888C617.154 189.273 551.053 325.525 551.053 325.525C515.528 271.127 508.802 227.22 516.08 192.626Z" fill="#FFA229"/>
<path d="M384.985 -0.639648C440.202 28.0664 479.286 64.5029 506.449 104.572C491.733 126.525 474.736 153.003 474.736 153.003L523.486 133.045C608.813 295.289 526.926 498.454 526.926 498.454C404.517 437.369 345.475 364.802 321.945 294.218C336.933 282.662 359.426 265.718 359.426 265.718L315.459 271.173C307.349 235.914 307.475 201.487 312.252 169.661C335.117 166.96 361.002 163.308 361.002 163.308L318.332 139.272C338.67 57.5775 384.985 -0.639648 384.985 -0.639648Z" fill="#E9FAFF"/>
<path d="M321.945 294.172C336.933 282.616 359.426 265.672 359.426 265.672L315.459 271.127C307.349 235.868 307.475 201.441 312.252 169.614C335.117 166.913 361.002 163.261 361.002 163.261L318.332 139.225C338.67 57.5908 384.985 -0.639648 384.985 -0.639648C501.985 180.478 526.926 498.44 526.926 498.44C404.484 437.356 345.475 364.789 321.945 294.172Z" fill="#1A4169" fill-opacity="0.6"/>
<path d="M253.427 254.688C294.673 253.278 329.174 261.593 357.946 275.897C356.616 293.386 355.405 314.236 355.405 314.236L377.079 286.794C479.31 352.748 498.23 496.89 498.23 496.89C407.535 501.547 349.764 478.808 313.134 445.665C318.031 434.089 325.501 416.966 325.501 416.966L301.871 434.455C285.672 416.706 274.522 396.781 266.912 376.824C279.246 367.809 293.017 357.252 293.017 357.252H260.512C245.643 303.458 253.427 254.688 253.427 254.688Z" fill="#FFBB6A"/>
<path d="M313.128 445.665C318.025 434.09 325.496 416.966 325.496 416.966L301.866 434.456C285.666 416.706 274.517 396.782 266.906 376.824C279.24 367.809 293.011 357.252 293.011 357.252H260.506C245.644 303.432 253.428 254.662 253.428 254.662C380.12 321.188 498.244 496.864 498.244 496.864C407.529 501.514 349.758 478.809 313.128 445.665Z" fill="#FFA229"/>
<path d="M1087.44 1064.59H4.78906V1080H1087.44V1064.59Z" fill="#271651"/>
<path d="M966.854 294.897H389.732C385.492 294.897 382.055 298.334 382.055 302.574V1056.92C382.055 1061.16 385.492 1064.59 389.732 1064.59H966.854C971.094 1064.59 974.531 1061.16 974.531 1056.92V302.574C974.531 298.334 971.094 294.897 966.854 294.897Z" fill="#1C4670"/>
<path d="M923.087 318.121H433.5V986.943H923.087V318.121Z" fill="#E9FAFF"/>
<path d="M704.226 498.441H494.834C491.654 498.428 488.608 497.156 486.364 494.903C484.119 492.65 482.859 489.6 482.859 486.419C482.861 483.24 484.122 480.191 486.366 477.94C488.61 475.688 491.655 474.417 494.834 474.405H704.206C707.393 474.405 710.449 475.67 712.704 477.923C714.958 480.176 716.225 483.232 716.227 486.419C716.227 489.604 714.963 492.659 712.713 494.913C710.463 497.167 707.41 498.435 704.226 498.441Z" fill="#D1E6EF"/>
<path d="M704.226 538.289H494.834C491.654 538.277 488.608 537.005 486.364 534.752C484.119 532.499 482.859 529.448 482.859 526.268C482.861 523.089 484.122 520.04 486.366 517.788C488.61 515.537 491.655 514.266 494.834 514.253H704.206C707.393 514.253 710.449 515.519 712.704 517.772C714.958 520.025 716.225 523.081 716.227 526.268C716.227 529.453 714.963 532.508 712.713 534.761C710.463 537.015 707.41 538.284 704.226 538.289Z" fill="#D1E6EF"/>
<path d="M646.514 578.139H494.834C491.655 578.127 488.61 576.856 486.366 574.604C484.122 572.352 482.861 569.303 482.859 566.124C482.859 562.944 484.119 559.893 486.364 557.64C488.608 555.387 491.654 554.115 494.834 554.103H646.514C648.092 554.103 649.655 554.414 651.113 555.018C652.571 555.622 653.896 556.508 655.012 557.624C656.128 558.741 657.013 560.066 657.616 561.524C658.219 562.983 658.53 564.546 658.529 566.124C658.529 569.311 657.263 572.367 655.01 574.62C652.756 576.873 649.7 578.139 646.514 578.139Z" fill="#D1E6EF"/>
<path d="M704.226 674.709H494.834C491.655 674.696 488.61 673.425 486.366 671.174C484.122 668.922 482.861 665.873 482.859 662.694C482.859 659.514 484.119 656.463 486.364 654.21C488.608 651.957 491.654 650.685 494.834 650.673H704.206C705.784 650.673 707.347 650.984 708.806 651.588C710.264 652.192 711.59 653.077 712.706 654.194C713.822 655.31 714.708 656.635 715.312 658.094C715.916 659.552 716.227 661.116 716.227 662.694C716.225 665.878 714.961 668.931 712.711 671.183C710.461 673.436 707.409 674.703 704.226 674.709Z" fill="#D1E6EF"/>
<path d="M704.226 714.558H494.834C491.655 714.545 488.61 713.274 486.366 711.022C484.122 708.771 482.861 705.722 482.859 702.543C482.859 699.363 484.119 696.312 486.364 694.059C488.608 691.806 491.654 690.534 494.834 690.521H704.206C705.784 690.521 707.347 690.832 708.806 691.437C710.264 692.041 711.59 692.926 712.706 694.043C713.822 695.159 714.708 696.484 715.312 697.943C715.916 699.401 716.227 700.964 716.227 702.543C716.225 705.726 714.961 708.779 712.711 711.032C710.461 713.284 707.409 714.552 704.226 714.558Z" fill="#D1E6EF"/>
<path d="M558.699 754.407H494.834C491.655 754.396 488.609 753.126 486.364 750.874C484.12 748.622 482.859 745.572 482.859 742.392C482.859 739.212 484.119 736.161 486.364 733.908C488.608 731.655 491.654 730.383 494.834 730.371H558.699C560.278 730.371 561.841 730.682 563.299 731.286C564.757 731.891 566.082 732.776 567.197 733.892C568.313 735.009 569.198 736.334 569.801 737.792C570.405 739.251 570.715 740.814 570.714 742.392C570.715 743.97 570.405 745.533 569.801 746.991C569.198 748.449 568.313 749.774 567.197 750.89C566.081 752.006 564.756 752.891 563.298 753.494C561.84 754.098 560.277 754.408 558.699 754.407Z" fill="#D1E6EF"/>
<path d="M704.226 850.976H494.834C491.655 850.964 488.61 849.693 486.366 847.441C484.122 845.19 482.861 842.141 482.859 838.962C482.859 835.782 484.119 832.731 486.364 830.478C488.608 828.225 491.654 826.953 494.834 826.94H704.206C707.394 826.94 710.451 828.207 712.706 830.461C714.96 832.716 716.227 835.774 716.227 838.962C716.225 842.145 714.961 845.198 712.711 847.451C710.461 849.703 707.409 850.971 704.226 850.976Z" fill="#D1E6EF"/>
<path d="M704.226 890.826H494.834C491.655 890.815 488.609 889.545 486.364 887.293C484.12 885.04 482.859 881.99 482.859 878.811C482.859 875.631 484.119 872.58 486.364 870.327C488.608 868.074 491.654 866.802 494.834 866.79H704.206C707.394 866.79 710.451 868.056 712.706 870.311C714.96 872.565 716.227 875.623 716.227 878.811C716.227 881.995 714.963 885.049 712.713 887.302C710.462 889.555 707.41 890.822 704.226 890.826Z" fill="#D1E6EF"/>
<path d="M669.579 930.681H494.834C491.654 930.669 488.608 929.397 486.364 927.144C484.119 924.891 482.859 921.84 482.859 918.66C482.859 915.48 484.119 912.429 486.364 910.176C488.608 907.923 491.654 906.651 494.834 906.639H669.559C672.747 906.639 675.805 907.905 678.059 910.16C680.313 912.414 681.58 915.472 681.58 918.66C681.58 921.845 680.316 924.899 678.066 927.153C675.816 929.407 672.763 930.676 669.579 930.681Z" fill="#D1E6EF"/>
<g filter="url(#filter0_d_711_9082)">
<path d="M809.015 578.139C795.253 578.139 782.055 572.672 772.323 562.94C762.592 553.209 757.125 540.011 757.125 526.248C757.125 512.486 762.592 499.288 772.323 489.556C782.055 479.825 795.253 474.358 809.015 474.358C822.778 474.358 835.976 479.825 845.708 489.556C855.439 499.288 860.906 512.486 860.906 526.248C860.906 540.011 855.439 553.209 845.708 562.94C835.976 572.672 822.778 578.139 809.015 578.139Z" fill="white"/>
</g>
<g filter="url(#filter1_d_711_9082)">
<path d="M809.015 754.407C795.253 754.407 782.055 748.94 772.323 739.209C762.592 729.477 757.125 716.279 757.125 702.516C757.125 688.754 762.592 675.556 772.323 665.824C782.055 656.093 795.253 650.626 809.015 650.626C822.778 650.626 835.976 656.093 845.708 665.824C855.439 675.556 860.906 688.754 860.906 702.516C860.906 716.279 855.439 729.477 845.708 739.209C835.976 748.94 822.778 754.407 809.015 754.407Z" fill="white"/>
</g>
<g filter="url(#filter2_d_711_9082)">
<path d="M809.015 930.681C795.253 930.681 782.055 925.214 772.323 915.483C762.592 905.752 757.125 892.553 757.125 878.791C757.125 865.029 762.592 851.83 772.323 842.099C782.055 832.367 795.253 826.9 809.015 826.9C822.778 826.9 835.976 832.367 845.708 842.099C855.439 851.83 860.906 865.029 860.906 878.791C860.906 892.553 855.439 905.752 845.708 915.483C835.976 925.214 822.778 930.681 809.015 930.681Z" fill="white"/>
</g>
<path d="M770.648 865.872C776.782 866.291 792.908 878.971 803.559 889.961C818.501 866.011 832.292 848.342 858.836 825.67C829.564 859.598 818.301 884.253 805.229 913.544C797.525 897.984 786.129 877.494 770.648 865.872Z" fill="#1C4670"/>
<path d="M770.648 694.959C776.782 695.385 792.908 708.064 803.559 719.055C818.501 695.105 832.292 677.436 858.836 654.757C829.564 688.685 818.301 713.347 805.229 742.638C797.525 727.104 786.129 706.614 770.648 694.959Z" fill="#1C4670"/>
<path d="M770.648 518.445C776.782 518.87 792.908 531.55 803.559 542.54C818.501 518.591 832.292 500.921 858.836 478.243C829.564 512.171 818.301 536.832 805.229 566.124C797.525 550.59 786.129 530.1 770.648 518.445Z" fill="#1C4670"/>
<path d="M494.168 277.061H862.391C865.214 277.061 867.921 278.182 869.917 280.179C871.913 282.175 873.035 284.882 873.035 287.705V327.075C873.035 329.898 871.913 332.606 869.917 334.602C867.921 336.598 865.214 337.72 862.391 337.72H494.168C491.345 337.72 488.637 336.598 486.641 334.602C484.645 332.606 483.523 329.898 483.523 327.075V287.705C483.523 284.882 484.645 282.175 486.641 280.179C488.637 278.182 491.345 277.061 494.168 277.061Z" fill="#271651"/>
<path d="M788.338 252.626H568.236C563.463 252.626 559.594 256.495 559.594 261.268V309.479C559.594 314.252 563.463 318.121 568.236 318.121H788.338C793.11 318.121 796.979 314.252 796.979 309.479V261.268C796.979 256.495 793.11 252.626 788.338 252.626Z" fill="#271651"/>
<path d="M185.934 884.785L164.546 1036.35L134.702 1038.91L135.347 1034.81L127.078 882.77L185.934 884.785Z" fill="#FFC0BB"/>
<path d="M280.119 1034.62C279.747 1031.51 289.872 866.025 289.872 866.025C289.872 866.025 223.213 876.516 224.071 875.026C224.929 873.536 251.213 1041.29 251.213 1041.29L280.119 1034.62Z" fill="#FFC0BB"/>
<path d="M289.876 777.465C289.876 777.465 298.392 863.769 295.252 891.152C295.252 891.152 256.474 904.663 220.45 895.655L208.442 827.36C208.442 827.36 191.883 889.462 190.027 898.749C190.027 898.749 138.888 899.028 117.188 896.028L123.94 784.55L224.069 774.065L289.876 777.465Z" fill="#1C4670"/>
<path d="M283.612 970.211C281.616 1004.03 279.967 1033.32 280.12 1034.62L251.227 1041.27C251.227 1041.27 246.311 1009.85 240.656 974.323C260.295 974.595 275.237 972.101 283.612 970.211Z" fill="#E9FAFF"/>
<path d="M248.355 1039.59L245.694 1059.85C245.374 1062.34 246.785 1064.6 248.661 1064.59L313.856 1064.15C314.784 1064.12 315.68 1063.81 316.44 1063.28C317.199 1062.75 317.79 1062.01 318.141 1061.15C319.072 1059.15 319.278 1056.14 316.398 1052.13C310.63 1044.1 291.464 1042.27 282.143 1035.44L251.761 1035.65C250.104 1035.66 248.681 1037.32 248.355 1039.59Z" fill="#5858C6"/>
<path d="M277.339 1046.39C277.099 1046.2 276.932 1045.93 276.867 1045.63C276.801 1045.33 276.841 1045.02 276.98 1044.75C277.339 1043.98 283.632 1035.39 290.478 1036.52C290.95 1036.59 291.263 1037.18 291.143 1037.85C291.057 1038.46 290.631 1038.87 290.172 1038.79C282.887 1037.62 279.434 1043.6 278.377 1045.93C278.345 1046.03 278.292 1046.13 278.22 1046.21C278.149 1046.29 278.061 1046.35 277.962 1046.4C277.864 1046.44 277.757 1046.46 277.65 1046.46C277.542 1046.46 277.436 1046.44 277.339 1046.39Z" fill="#E9FAFF"/>
<path d="M284.084 1048.95C283.845 1048.76 283.68 1048.49 283.616 1048.19C283.551 1047.89 283.592 1047.58 283.732 1047.31C285.062 1044.52 289.094 1037.74 297.23 1039.07C297.483 1039.18 297.69 1039.37 297.812 1039.61C297.934 1039.86 297.964 1040.14 297.895 1040.4C297.815 1041.02 297.383 1041.42 296.93 1041.35C289.646 1040.18 286.319 1046.99 285.268 1049.33C285.069 1049.82 284.477 1049.19 284.084 1048.95Z" fill="#E9FAFF"/>
<path d="M290.362 1051.34C290.122 1051.15 289.956 1050.88 289.89 1050.58C289.825 1050.28 289.865 1049.97 290.003 1049.7C291.334 1046.91 295.372 1040.13 303.501 1041.46C303.762 1041.56 303.978 1041.75 304.107 1041.99C304.237 1042.24 304.27 1042.52 304.2 1042.79C304.113 1043.4 303.688 1043.81 303.235 1043.74C297.248 1042.77 291.573 1050.57 291.433 1050.87C291.403 1050.98 291.35 1051.08 291.276 1051.17C291.203 1051.25 291.111 1051.32 291.009 1051.36C290.906 1051.41 290.795 1051.43 290.683 1051.42C290.571 1051.42 290.462 1051.39 290.362 1051.34Z" fill="#E9FAFF"/>
<path d="M132.031 973.95C147.379 974.768 162.833 973.538 173.577 972.28L164.536 1036.35L134.692 1038.91L135.358 1034.81L132.031 973.95Z" fill="#E9FAFF"/>
<path d="M132.027 1039.59L129.366 1059.85C129.046 1062.34 130.457 1064.6 132.326 1064.59L197.522 1064.15C198.449 1064.12 199.346 1063.81 200.105 1063.28C200.865 1062.75 201.455 1062.01 201.806 1061.15C202.737 1059.15 202.944 1056.14 200.063 1052.13C194.295 1044.1 175.129 1042.27 165.809 1035.44L135.426 1035.65C133.776 1035.66 132.319 1037.32 132.027 1039.59Z" fill="#5858C6"/>
<path d="M161.011 1046.39C160.771 1046.2 160.604 1045.93 160.539 1045.63C160.473 1045.33 160.513 1045.02 160.651 1044.75C161.011 1043.98 167.304 1035.39 174.15 1036.52C174.622 1036.59 174.935 1037.18 174.848 1037.85C174.762 1038.46 174.336 1038.87 173.877 1038.79C166.592 1037.62 163.14 1043.6 162.082 1045.93C162.051 1046.04 161.997 1046.14 161.923 1046.22C161.849 1046.31 161.758 1046.37 161.655 1046.42C161.553 1046.46 161.442 1046.48 161.33 1046.48C161.219 1046.47 161.11 1046.44 161.011 1046.39Z" fill="#E9FAFF"/>
<path d="M167.756 1048.95C167.517 1048.76 167.352 1048.49 167.287 1048.19C167.223 1047.89 167.264 1047.58 167.403 1047.31C167.763 1046.54 174.056 1037.95 180.902 1039.07C181.161 1039.17 181.375 1039.36 181.504 1039.6C181.633 1039.85 181.667 1040.13 181.6 1040.4C181.52 1041.01 181.088 1041.41 180.635 1041.35C173.351 1040.18 169.891 1046.15 168.84 1048.49C168.81 1048.59 168.755 1048.7 168.681 1048.78C168.606 1048.87 168.513 1048.93 168.409 1048.98C168.305 1049.02 168.193 1049.04 168.08 1049.04C167.967 1049.03 167.856 1049 167.756 1048.95Z" fill="#E9FAFF"/>
<path d="M174.034 1051.34C173.794 1051.15 173.627 1050.88 173.562 1050.58C173.497 1050.28 173.536 1049.97 173.675 1049.7C175.005 1046.91 179.044 1040.13 187.173 1041.46C187.434 1041.56 187.65 1041.75 187.779 1041.99C187.908 1042.24 187.941 1042.52 187.872 1042.79C187.785 1043.4 187.359 1043.81 186.907 1043.74C180.92 1042.77 175.245 1050.57 175.105 1050.87C175.075 1050.98 175.022 1051.08 174.948 1051.17C174.875 1051.25 174.783 1051.32 174.681 1051.36C174.578 1051.41 174.467 1051.43 174.355 1051.42C174.243 1051.42 174.133 1051.39 174.034 1051.34Z" fill="#E9FAFF"/>
<path d="M172.134 982.585L171.469 987.242C160.468 989.624 149.097 989.735 138.053 987.568C136.296 987.216 134.507 986.79 132.731 986.298L132.484 981.701C145.413 985.349 159.056 985.654 172.134 982.585Z" fill="#FF862D"/>
<path d="M170.597 993.436L169.932 998.053C159.405 1000.13 148.574 1000.13 138.046 998.053C136.476 997.74 134.886 997.387 133.276 996.935L133.023 992.358C145.28 995.725 158.168 996.095 170.597 993.436Z" fill="#FF862D"/>
<path d="M282.305 992.591C282.207 994.307 282.109 995.99 282.012 997.64C271.211 1000.44 259.983 1001.21 248.902 999.895C247.485 999.729 246.048 999.503 244.604 999.23C244.345 997.6 244.079 995.937 243.812 994.254C256.604 996.61 269.764 996.042 282.305 992.591Z" fill="#FF862D"/>
<path d="M282.99 980.729C282.89 982.439 282.79 984.136 282.697 985.799C271.423 988.933 259.645 989.837 248.024 988.46C246.301 988.247 244.544 987.968 242.768 987.642C242.511 985.992 242.247 984.326 241.977 982.646C255.603 985.317 269.672 984.659 282.99 980.729Z" fill="#FF862D"/>
<path d="M423.491 671.987C423.521 672.146 423.592 672.293 423.698 672.415C423.804 672.536 423.941 672.626 424.094 672.677C424.247 672.727 424.411 672.735 424.568 672.701C424.726 672.666 424.871 672.589 424.988 672.479C428.98 668.681 441.493 656.806 442.684 657.597C444.108 658.535 433.158 669.413 433.836 670.843C434.515 672.273 444.933 661.389 446.263 662.633C447.594 663.877 437.788 673.49 438.18 674.216C438.573 674.941 448.971 666.745 450.208 666.998C451.446 667.25 441.414 677.356 441.633 678.367C441.853 679.378 451.1 674.715 451.612 675.46C452.124 676.205 452.557 676.624 434.754 693.096L424.543 702.689L418.795 701.119L412.867 692.238C412.867 692.238 418.415 661.522 419.6 661.01C420.784 660.498 421.502 661.263 423.491 671.987Z" fill="#FFC0BB"/>
<path d="M300.078 695.325L331.212 670.497L337.067 679.757C345.363 700.853 362.533 717.398 367.083 719.434C376.736 723.751 416.073 682.179 416.073 682.179L426.631 699.642C426.631 699.642 384.121 763.767 357.657 752.397C331.192 741.028 302.4 700.294 302.4 700.294L300.078 695.325Z" fill="#FFC0BB"/>
<path d="M212.023 588.364L212.203 608.681L242.918 607.636L245.426 578.278L212.023 588.364Z" fill="#FFC0BB"/>
<path d="M212.123 600.139C218.649 602.667 229.008 604.989 243.291 603.206L245.42 578.278L212.023 588.364L212.123 600.139Z" fill="#F99893"/>
<path d="M285.06 522.397C282.478 529.808 285.206 537.492 291.147 539.561C297.088 541.63 303.993 537.285 306.581 529.874C309.169 522.463 306.435 514.773 300.494 512.711C294.553 510.648 287.648 514.979 285.06 522.397Z" fill="#F99893"/>
<path d="M285.207 564.973C286.87 561.719 288.224 558.316 289.252 554.808C292.245 545.288 293.483 535.283 293.868 526.588C293.948 524.725 294.141 522.869 294.367 521.013C295.374 512.651 294.633 504.172 292.191 496.112C289.749 488.052 285.66 480.587 280.182 474.19C274.705 467.792 267.958 462.603 260.37 458.949C252.782 455.295 244.518 453.257 236.101 452.964C227.685 452.671 219.299 454.129 211.475 457.246C203.651 460.363 196.56 465.071 190.651 471.072C184.742 477.073 180.143 484.235 177.147 492.106C174.15 499.977 172.821 508.384 173.243 516.795C169.338 514.879 165.04 514.613 161.375 516.489C154.336 520.075 152.274 530.107 156.771 538.895C161.268 547.683 170.622 551.901 177.66 548.309C178.619 547.815 179.503 547.191 180.288 546.452C184.879 575.99 210.451 597.678 239.65 595.642C253.464 594.673 266.394 588.49 275.82 578.345C276.505 577.704 277.156 577.027 277.769 576.316C280.73 572.874 283.23 569.061 285.207 564.973Z" fill="#FFC0BB"/>
<path d="M237.015 518.677C234.495 517.808 231.91 517.141 229.285 516.682C226.832 516.264 224.332 516.197 221.86 516.482C219.397 516.756 216.99 517.404 214.722 518.405L213.824 518.757C213.525 518.877 213.259 519.057 212.966 519.196L211.203 520.081C210.019 520.693 208.928 521.465 207.617 522.077C208.312 520.849 209.115 519.687 210.019 518.604C211.043 517.646 212.015 516.502 213.245 515.77C215.661 514.05 218.479 512.98 221.428 512.663C224.359 512.327 227.328 512.71 230.076 513.781C232.772 514.789 235.162 516.475 237.015 518.677Z" fill="#271651"/>
<path d="M255.75 519.176C257.518 516.916 259.839 515.15 262.489 514.047C265.212 512.873 268.182 512.385 271.138 512.623C274.097 512.837 276.951 513.809 279.427 515.444C280.711 516.109 281.689 517.24 282.753 518.165C283.699 519.215 284.547 520.348 285.288 521.551C283.957 520.986 282.833 520.221 281.629 519.675L279.833 518.857C279.533 518.731 279.26 518.558 278.961 518.451L278.05 518.132C275.749 517.212 273.322 516.646 270.851 516.455C268.369 516.257 265.872 516.414 263.434 516.921C260.816 517.465 258.246 518.219 255.75 519.176Z" fill="#271651"/>
<path d="M244.73 522.237C244.05 525.114 243.779 528.072 243.925 531.025C243.985 532.537 244.186 534.04 244.524 535.516C244.858 537.124 245.54 538.641 246.52 539.959L246.999 540.465L247.424 540.897C247.632 541.08 247.823 541.281 247.997 541.496C248.317 541.883 248.545 542.338 248.662 542.827C248.771 543.365 248.769 543.919 248.654 544.456C248.54 544.993 248.316 545.5 247.997 545.947C246.626 548.036 244.005 549.366 241.211 550.218C244.098 550.504 247.431 549.825 249.72 547.297C250.339 546.641 250.802 545.853 251.074 544.992C251.346 544.132 251.419 543.221 251.29 542.328C251.22 541.866 251.081 541.418 250.877 540.997C250.697 540.57 250.462 540.167 250.179 539.8C249.905 539.445 249.6 539.116 249.267 538.815C249.152 538.706 249.043 538.591 248.941 538.469L248.675 538.183C247.945 537.161 247.398 536.02 247.059 534.81C246.656 533.483 246.328 532.135 246.074 530.772C245.582 527.998 245.189 525.144 244.73 522.237Z" fill="#F99893"/>
<path d="M301.811 485.182C301.811 485.182 311.597 484.384 314.691 480.399C314.691 480.399 302.636 484.623 297.301 470.919C291.965 457.214 278.673 443.43 259.747 439.538C240.82 435.647 191.836 439.246 179.469 451.6C167.102 463.954 162.645 475.868 163.836 492.347C165.026 508.826 160.064 515.751 155.141 515.924C157.182 516.591 159.338 516.835 161.477 516.641C163.616 516.446 165.693 515.817 167.581 514.793C167.581 514.793 167.149 522.038 160.682 524.206C160.682 524.206 176.223 522.69 179.522 513.276C179.522 513.276 179.522 531.238 175.584 535.356C175.584 535.356 187.965 530.187 190.952 500.59C190.952 500.59 241.512 481.144 250.02 457.813C250.02 457.813 243.095 481.164 235.025 484.889C235.025 484.889 256.38 485.847 267.683 465.085C267.683 465.085 283.403 476.9 287.561 484.909C291.553 492.64 294.773 512.145 294.806 513.549L301.458 491.289C301.458 491.289 306.94 495.54 314.617 492.32C314.624 492.32 303.7 489.433 301.811 485.182Z" fill="#271651"/>
<path d="M255.035 606.479L194.962 603.086C194.962 603.086 191.336 616.518 197.19 617.562C203.044 618.607 213.283 628.04 218 627.109C222.716 626.177 224.805 624.142 229.974 624.082C235.143 624.022 245.728 620.09 247.118 618.414C248.509 616.737 255.101 611.422 254.742 611.096C254.383 610.77 255.035 606.479 255.035 606.479Z" fill="#FFC0BB"/>
<path d="M302.352 702.883C306.217 621.721 289.898 609.4 289.898 609.4C290.801 609.847 291.662 610.372 292.473 610.97C303.17 619 347.444 676.252 347.444 676.252C347.444 676.252 329.408 703.741 302.352 702.863V702.883Z" fill="#5858C6"/>
<path d="M158.793 602.714C165.991 600.718 200.991 602.714 200.991 602.714C200.991 602.714 216.451 628.38 252.528 606.366C252.528 606.366 277.429 602.84 289.89 609.087C289.89 609.087 306.215 621.401 302.35 702.57C302.35 702.57 296.363 785.461 294.62 794.05C294.62 794.05 188.104 809.085 118.531 788.901L140.864 695.272C140.864 695.272 171.679 622.04 158.793 602.714Z" fill="#6B6BC5"/>
<path d="M343.15 670.69C345.851 674.136 347.474 676.239 347.474 676.239C347.474 676.239 329.439 703.727 302.383 702.849C302.503 700.261 302.609 697.74 302.689 695.292C320.032 692.105 334.229 680.184 343.15 670.69Z" fill="#DCEAF4"/>
<g style="mix-blend-mode:multiply" opacity="0.3">
<path d="M278.161 605.947C282.479 606.479 286.617 607.444 289.89 609.087C289.89 609.087 306.215 621.401 302.35 702.57C302.35 702.57 296.363 785.461 294.62 794.05C294.62 794.05 188.104 809.085 118.531 788.901L124.346 764.505C287.268 762.603 280.842 631.253 278.161 605.947Z" fill="#5858C6"/>
</g>
<path d="M261.843 530.226C261.795 531.082 262.002 531.932 262.438 532.669C262.874 533.407 263.519 533.998 264.291 534.369C265.063 534.74 265.927 534.874 266.775 534.754C267.624 534.633 268.417 534.264 269.055 533.693C269.693 533.122 270.148 532.374 270.361 531.544C270.575 530.715 270.537 529.841 270.253 529.032C269.97 528.224 269.453 527.518 268.768 527.004C268.083 526.489 267.262 526.189 266.406 526.142C265.838 526.109 265.269 526.189 264.732 526.377C264.195 526.565 263.701 526.857 263.277 527.237C262.853 527.616 262.508 528.076 262.262 528.589C262.016 529.102 261.873 529.658 261.843 530.226Z" fill="#333333"/>
<path d="M220.28 530.633C220.234 531.488 220.442 532.337 220.879 533.074C221.315 533.81 221.961 534.401 222.733 534.771C223.505 535.141 224.37 535.274 225.217 535.153C226.065 535.032 226.858 534.662 227.495 534.09C228.133 533.519 228.587 532.771 228.799 531.941C229.012 531.112 228.974 530.238 228.69 529.43C228.407 528.622 227.89 527.917 227.205 527.402C226.52 526.888 225.698 526.589 224.843 526.541C224.275 526.51 223.706 526.591 223.169 526.779C222.632 526.968 222.137 527.261 221.713 527.641C221.29 528.021 220.945 528.481 220.699 528.994C220.453 529.507 220.31 530.064 220.28 530.633Z" fill="#333333"/>
<path d="M222.312 557.622C223.696 563.842 230.808 568.732 239.523 568.998C248.238 569.264 255.642 564.82 257.398 558.693L222.312 557.622Z" fill="white"/>
<path d="M102.552 854.256L56.3431 878.326C52.5359 880.308 48.3754 881.521 44.0992 881.896C39.8231 882.27 35.5151 881.799 31.4211 880.508C27.3272 879.218 23.5276 877.134 20.2393 874.375C16.9509 871.615 14.2382 868.236 12.2562 864.428L-3.33761 834.491C-7.33994 826.804 -8.12497 817.841 -5.52005 809.575C-2.91514 801.308 2.86641 794.415 10.5531 790.411L56.7689 766.342L102.552 854.256Z" fill="#7473E8"/>
<g style="mix-blend-mode:multiply">
<path d="M102.557 854.256L79.6657 810.295L36.5101 832.768C24.6152 838.962 12.1482 841.955 0.585938 842.002L12.2679 864.428C15.8176 871.262 21.6667 876.622 28.7833 879.564C35.9 882.506 43.827 882.84 51.1659 880.507C53.9652 879.409 56.7054 878.165 59.3752 876.782L102.557 854.256Z" fill="#5858C6"/>
</g>
<path d="M441.889 565.759L56.8047 766.307L102.594 854.229L487.678 653.681L441.889 565.759Z" fill="#FFBB6A"/>
<g style="mix-blend-mode:multiply">
<path d="M102.558 854.256L487.652 653.726L463.842 608.002L79.6328 810.236L102.558 854.256Z" fill="#FAAF20"/>
</g>
<path d="M571.628 571.367L487.646 653.726C478.591 645.923 448.834 657.884 458.148 621.461C459.545 615.986 456.817 608.648 451.449 606.911C399.292 590.067 444.29 570.987 441.862 565.805L557.491 544.21L571.628 571.367Z" fill="#FCCAA7"/>
<path d="M108.979 855.707L99.7915 860.49C99.47 860.658 99.1186 860.76 98.7574 860.792C98.3961 860.824 98.0321 860.785 97.6862 860.676C97.3402 860.568 97.0191 860.392 96.7411 860.159C96.4631 859.926 96.2337 859.641 96.066 859.319L49.7903 770.453C49.4511 769.803 49.3839 769.045 49.6035 768.345C49.823 767.645 50.3113 767.061 50.9612 766.721L60.1485 761.938C60.7995 761.599 61.5585 761.533 62.2584 761.754C62.9583 761.975 63.5418 762.464 63.8806 763.115L110.156 851.981C110.324 852.303 110.426 852.655 110.458 853.016C110.489 853.378 110.449 853.742 110.34 854.088C110.23 854.434 110.054 854.755 109.82 855.033C109.587 855.31 109.301 855.54 108.979 855.707Z" fill="#B3B3B3"/>
<path d="M609.813 540.039L571.64 571.367C560.286 569.632 555.572 560.58 557.497 544.21L605.056 530.905C606.222 530.583 607.464 530.671 608.572 531.156C609.681 531.64 610.589 532.491 611.143 533.566C611.693 534.635 611.861 535.86 611.619 537.037C611.377 538.215 610.74 539.274 609.813 540.039Z" fill="#FAAF20"/>
<path d="M37.7229 763.461C37.7229 763.461 44.329 758.757 46.97 757.114L50.7421 749.131C63.4819 713.872 92.6869 675.866 118.792 646.587C127.354 653.506 136.448 660.844 144.943 667.696C115.319 699.822 81.6568 744.694 67.4934 763.973L66.9279 765.23L62.9896 779.919C59.477 791.788 56.4567 804.647 55.3457 805C53.7823 805.492 52.8443 804.441 51.6335 789.951C51.6172 789.737 51.5432 789.531 51.4193 789.356C51.2954 789.18 51.1262 789.041 50.9298 788.954C50.7333 788.866 50.5169 788.834 50.3035 788.86C50.0901 788.885 49.8876 788.969 49.7176 789.1C43.9498 793.604 25.7083 807.654 24.2247 806.45C22.4618 805.013 38.4547 792.06 37.7495 790.071C37.0443 788.082 21.7832 801.115 20.1267 799.278C18.4702 797.442 32.8199 786.033 32.4008 785.015C31.9817 783.997 17.0997 793.471 15.4632 792.965C13.8267 792.46 28.5356 780.418 28.3693 779.048C28.203 777.677 15.3102 782.614 14.758 781.556C14.2059 780.498 11.8841 782.9 37.7229 763.461Z" fill="#FFC0BB"/>
<path d="M140.864 695.272C140.864 695.272 106.271 674.868 98.2344 654.252C98.2344 654.252 147.198 605.94 158.773 602.714C171.679 622.04 140.864 695.272 140.864 695.272Z" fill="#5858C6"/>
<path d="M106.131 646.587C114.487 663.295 128.132 676.772 144.942 684.92C142.541 691.273 140.864 695.258 140.864 695.258C140.864 695.258 106.271 674.854 98.2344 654.238C98.2344 654.251 101.321 651.204 106.131 646.587Z" fill="#E9FAFF"/>
</g>
<defs>
<filter id="filter0_d_711_9082" x="753.125" y="474.358" width="111.781" height="111.781" filterUnits="userSpaceOnUse" color-interpolation-filters="sRGB">
<feFlood flood-opacity="0" result="BackgroundImageFix"/>
<feColorMatrix in="SourceAlpha" type="matrix" values="0 0 0 0 0 0 0 0 0 0 0 0 0 0 0 0 0 0 127 0" result="hardAlpha"/>
<feOffset dy="4"/>
<feGaussianBlur stdDeviation="2"/>
<feComposite in2="hardAlpha" operator="out"/>
<feColorMatrix type="matrix" values="0 0 0 0 0 0 0 0 0 0 0 0 0 0 0 0 0 0 0.25 0"/>
<feBlend mode="normal" in2="BackgroundImageFix" result="effect1_dropShadow_711_9082"/>
<feBlend mode="normal" in="SourceGraphic" in2="effect1_dropShadow_711_9082" result="shape"/>
</filter>
<filter id="filter1_d_711_9082" x="753.125" y="650.626" width="111.781" height="111.781" filterUnits="userSpaceOnUse" color-interpolation-filters="sRGB">
<feFlood flood-opacity="0" result="BackgroundImageFix"/>
<feColorMatrix in="SourceAlpha" type="matrix" values="0 0 0 0 0 0 0 0 0 0 0 0 0 0 0 0 0 0 127 0" result="hardAlpha"/>
<feOffset dy="4"/>
<feGaussianBlur stdDeviation="2"/>
<feComposite in2="hardAlpha" operator="out"/>
<feColorMatrix type="matrix" values="0 0 0 0 0 0 0 0 0 0 0 0 0 0 0 0 0 0 0.25 0"/>
<feBlend mode="normal" in2="BackgroundImageFix" result="effect1_dropShadow_711_9082"/>
<feBlend mode="normal" in="SourceGraphic" in2="effect1_dropShadow_711_9082" result="shape"/>
</filter>
<filter id="filter2_d_711_9082" x="753.125" y="826.9" width="111.781" height="111.781" filterUnits="userSpaceOnUse" color-interpolation-filters="sRGB">
<feFlood flood-opacity="0" result="BackgroundImageFix"/>
<feColorMatrix in="SourceAlpha" type="matrix" values="0 0 0 0 0 0 0 0 0 0 0 0 0 0 0 0 0 0 127 0" result="hardAlpha"/>
<feOffset dy="4"/>
<feGaussianBlur stdDeviation="2"/>
<feComposite in2="hardAlpha" operator="out"/>
<feColorMatrix type="matrix" values="0 0 0 0 0 0 0 0 0 0 0 0 0 0 0 0 0 0 0.25 0"/>
<feBlend mode="normal" in2="BackgroundImageFix" result="effect1_dropShadow_711_9082"/>
<feBlend mode="normal" in="SourceGraphic" in2="effect1_dropShadow_711_9082" result="shape"/>
</filter>
<clipPath id="clip0_711_9082">
<rect width="1080" height="1080" fill="white"/>
</clipPath>
</defs>
</svg>
