<svg width="1080" height="983" viewBox="0 0 1080 983" fill="none" xmlns="http://www.w3.org/2000/svg">
<rect width="1080" height="983" fill="white"/>
<g opacity="0.2">
<path d="M434.131 890.723C434.131 903.518 568.761 913.889 734.849 913.889C900.937 913.889 1035.58 903.518 1035.58 890.723C1035.58 877.928 900.986 867.594 734.898 867.594C568.81 867.594 434.131 877.928 434.131 890.723Z" fill="#1B2F35"/>
</g>
<path d="M656.16 659.783C656.529 608.267 664.165 570.539 679.068 546.597C693.971 522.656 723.686 493.584 768.214 459.383C794.346 438.058 815.232 415.056 830.873 390.376C846.514 365.697 854.334 338.097 854.334 307.578C854.334 273.721 845.411 247.224 827.563 228.089C809.716 208.954 784.22 199.395 751.077 199.412C723.83 199.412 700.737 207.507 681.799 223.697C662.861 239.888 653.199 263.624 652.814 294.906H496.051L494.944 291.597C493.837 220.937 517.114 166.842 564.775 129.31C612.436 91.7782 674.537 73.0082 751.077 73C833.505 73 898.181 93.8861 945.104 135.658C992.027 177.431 1015.48 234.196 1015.48 305.954C1015.48 352.705 1001.77 395.945 974.348 435.675C946.947 475.413 911.985 509.364 871.46 535.586C849.011 552.884 834.293 570.272 827.305 587.75C820.317 605.229 816.819 629.24 816.811 659.783H656.16ZM817.869 888.308H655.57V750.308H817.869V888.308Z" fill="#FFA229"/>
<g style="mix-blend-mode:multiply" opacity="0.31">
<path d="M655.494 750.547V781.673C662.876 779.618 684.394 773.061 695.085 769.161C713.084 762.554 721.093 757.018 724.611 750.547H655.494Z" fill="#632824"/>
</g>
<path d="M477.216 869.018L475.555 870.384L488.547 886.119L494.699 881.026C498.205 878.123 461.961 839.738 452.623 836.047L449.375 838.729C449.375 838.729 459.057 850.454 462.699 854.846C466.994 860.097 471.863 864.851 477.216 869.018Z" fill="#1D282E"/>
<path d="M480.464 866.343C485.865 870.206 491.856 877.588 494.71 881.045C499.705 877.034 505.66 871.288 510.581 866.773C515.293 862.271 505.488 852.158 496.113 853.24C483.109 852.01 466.414 834.528 459.106 833.999C456.758 833.835 454.438 834.589 452.635 836.102L465.959 852.219C470.268 857.438 475.132 862.174 480.464 866.343Z" fill="#2B434A"/>
<path d="M606.431 885.66V887.826L626.829 887.58C626.829 887.58 626.829 882.855 626.743 879.595C626.682 875.043 574.05 879.152 565.303 884.098V888.305L586.218 888.059C593.024 888.026 599.806 887.221 606.431 885.66Z" fill="#1D282E"/>
<path d="M606.383 881.455C612.78 879.671 622.278 879.646 626.769 879.597C626.965 873.446 626.842 871.92 626.842 859.789C626.289 853.281 609.84 849.775 604.783 857.723C602.224 872.412 572.796 872.388 567.764 877.739C566.153 879.462 565.271 881.741 565.304 884.1L586.218 883.841C593.007 883.786 599.769 882.985 606.383 881.455Z" fill="#2B434A"/>
<path d="M660.466 698.021C660.466 698.021 591.571 707.445 565.12 711.96C552.152 714.175 518.48 719.539 533.341 754.196C550.565 794.438 601.413 861.845 601.413 861.845H628.688L574.962 753.581L692.466 737.858C692.466 737.858 731.343 690.664 660.466 698.021Z" fill="#152429"/>
<path d="M734.075 702.93C734.075 702.93 665.769 711.037 651.08 711.357C650.403 711.357 645.26 727.006 644.473 727.351C607.774 742.323 581.027 754.663 547.072 785.383C525.681 804.988 506.871 827.234 491.094 851.585L508.933 872.5C508.933 872.5 557.775 818.367 593.822 796.53C641.803 767.52 703.059 761.75 718.487 750.296C738.381 735.532 734.075 702.93 734.075 702.93Z" fill="#1B2F35"/>
<path d="M624.285 544.517C627.103 543.078 627.238 546.978 632.602 550.583C646.627 560.13 631.815 611.506 622.452 646.422C617.531 664.519 608.796 675.038 599.458 676.219C591.449 677.24 579.011 669.588 581.631 653.84C585.888 628.287 593.233 607.631 600.369 582.152C604.785 566.38 612.352 550.607 624.285 544.517Z" fill="#152429"/>
<path d="M644.927 542.324C645.85 548.931 651.596 556.559 662.816 554.996C674.036 553.434 676.091 544.527 675.192 538.068L669.041 494.516L640.572 511.407C640.572 511.407 643.55 532.507 644.927 542.324Z" fill="#E0A47C"/>
<g style="mix-blend-mode:multiply">
<path d="M673.248 525.132C668.847 528.026 663.886 529.959 658.689 530.807C653.491 531.655 648.173 531.398 643.081 530.054L641.002 515.29L669.483 498.398L673.248 525.132Z" fill="#F2E6DC"/>
</g>
<path d="M617.244 555.421C617.244 555.421 636.72 535.601 642.194 533.153L642.797 537.372C644.027 546.157 647.718 555.052 654.719 554.067C661.94 553.046 676.79 541.543 675.56 532.771L674.969 528.539C680.911 529.388 682.966 531.295 682.966 531.295L707.006 716.256C707.006 716.256 692.71 717.83 665.447 715.185C642.625 712.971 635.452 703.128 635.452 703.128L617.244 555.421Z" fill="#D8EAEF"/>
<path d="M652.385 576.83L645.594 560.578L654.021 553.836L663.322 561.562L657.601 576.584C657.601 576.584 658.672 604.462 660.985 629.929C663.211 654.535 665.389 688.786 665.389 688.786L654.107 707.437L645.914 685.292C645.914 685.292 647.464 653.969 647.956 640.436C649.395 600.82 652.385 576.83 652.385 576.83Z" fill="#AA0E0E"/>
<g opacity="0.26">
<path d="M635.293 541.253L643.118 533.675L653.858 554.282L674.539 529.258L684.148 534.376L667.945 576.402L654.461 556.607L642.047 579.146L635.293 541.253Z" fill="#1F363D"/>
</g>
<path d="M635.625 538.018L643.179 530.477L654.104 553.926L642.244 576.231L635.625 538.018Z" fill="white"/>
<path d="M682.945 531.374L673.607 526.219L654.107 553.937L667.813 572.883L682.945 531.374Z" fill="white"/>
<path d="M738.257 615.97C743.584 668.134 740.447 720.802 739.155 731.42C730.801 739.626 687.483 750.908 670.518 751.719C670.518 751.719 670.924 701.278 670.518 652.682C670.419 641.179 669.349 628.863 669.546 621.494C670.554 583.97 679.646 530.453 679.646 530.453C683.023 530.708 686.37 531.264 689.648 532.114C701.681 535.497 730.408 538.991 738.257 615.97Z" fill="#1F363D"/>
<g opacity="0.25">
<g style="mix-blend-mode:multiply">
<path d="M614.931 631.537C629.695 697.64 619.151 698.588 619.151 698.588C619.151 707.852 625.081 727.167 635.944 731.645C635.944 731.645 645.787 721.336 642.945 656.598C642.477 645.956 639.734 618.189 639.648 612.505C639.5 602.601 637.593 562.654 639.438 536.461C637.288 537.338 635.228 538.422 633.287 539.697C623.113 545.417 600.094 565.016 614.931 631.537Z" fill="#0D2528"/>
</g>
</g>
<g opacity="0.76">
<path d="M624.615 545.245L637.841 536.461C637.841 536.461 636.045 554.091 633.56 580.751C631.456 603.376 637.546 655.097 637.546 655.097L617.787 593.226L627.051 582.818L617 576.667L624.615 545.245Z" fill="#0D2528"/>
</g>
<path d="M612.387 636.748C625.218 685.479 620.74 692.824 614.035 699.492C611.439 702.1 619.781 724.725 631.923 730.471C631.923 730.471 641.963 694.669 637.546 655.03C636.316 644.437 636.242 635.825 635.713 630.178C631.776 588.065 639.207 536.086 639.207 536.086C636.063 537.335 633.005 538.79 630.053 540.441C619.842 546.162 595.027 570.841 612.387 636.748Z" fill="#1F363D"/>
<path d="M624.419 543.387L639.638 534.086C639.638 534.086 637.842 551.728 635.356 578.376C633.253 601.001 637.546 655.109 637.546 655.109L619.584 590.753L628.836 580.345L618.797 574.193L624.419 543.387Z" fill="#334F57"/>
<path d="M629.916 666.103C629.994 666.666 630.238 667.194 630.616 667.62C630.994 668.045 631.49 668.349 632.041 668.493C632.591 668.636 633.172 668.614 633.71 668.427C634.248 668.241 634.719 667.899 635.062 667.445C635.406 666.992 635.607 666.446 635.641 665.878C635.675 665.31 635.54 664.744 635.252 664.253C634.965 663.762 634.538 663.367 634.027 663.118C633.515 662.869 632.94 662.778 632.377 662.855C632.002 662.906 631.64 663.031 631.314 663.222C630.987 663.413 630.701 663.667 630.473 663.969C630.244 664.27 630.077 664.614 629.982 664.98C629.886 665.346 629.864 665.728 629.916 666.103Z" fill="#334F57"/>
<path d="M631.15 697.308C631.065 697.658 631.057 698.022 631.129 698.375C631.2 698.728 631.347 699.061 631.561 699.35C631.775 699.64 632.049 699.879 632.365 700.051C632.681 700.223 633.031 700.323 633.391 700.345C633.75 700.367 634.109 700.31 634.444 700.178C634.779 700.046 635.081 699.842 635.328 699.58C635.575 699.319 635.762 699.007 635.876 698.665C635.989 698.323 636.026 697.961 635.985 697.604C636.07 697.254 636.077 696.89 636.006 696.537C635.935 696.184 635.787 695.852 635.573 695.562C635.36 695.272 635.085 695.033 634.769 694.861C634.453 694.689 634.103 694.589 633.744 694.567C633.384 694.545 633.025 694.602 632.69 694.734C632.355 694.867 632.054 695.071 631.806 695.332C631.559 695.593 631.372 695.906 631.258 696.247C631.145 696.589 631.108 696.951 631.15 697.308Z" fill="#334F57"/>
<path d="M604.487 486.318C606.663 485.949 608.608 484.746 609.911 482.965C611.213 481.183 611.77 478.965 611.462 476.78C611.155 474.595 610.007 472.616 608.264 471.263C606.52 469.911 604.318 469.292 602.125 469.537L595.482 470.472C593.306 470.841 591.361 472.044 590.058 473.826C588.756 475.607 588.199 477.826 588.507 480.011C588.814 482.196 589.962 484.175 591.705 485.527C593.449 486.879 595.651 487.499 597.844 487.253L604.487 486.318Z" fill="#EAAE86"/>
<g style="mix-blend-mode:multiply">
<path d="M603.801 481.273C604.641 481.111 605.388 480.633 605.886 479.936C606.383 479.239 606.594 478.378 606.474 477.53C606.354 476.682 605.912 475.913 605.24 475.382C604.568 474.851 603.718 474.599 602.866 474.678L596.222 475.613C595.381 475.774 594.634 476.253 594.137 476.95C593.639 477.646 593.428 478.508 593.549 479.356C593.669 480.204 594.111 480.973 594.782 481.503C595.454 482.034 596.304 482.287 597.157 482.208L603.801 481.273Z" fill="#F2E6DC"/>
</g>
<path d="M693.379 473.796C694.48 473.642 695.54 473.272 696.498 472.708C697.456 472.144 698.294 471.397 698.964 470.509C699.633 469.622 700.121 468.611 700.4 467.535C700.679 466.458 700.743 465.338 700.589 464.237C700.434 463.136 700.065 462.076 699.501 461.118C698.937 460.159 698.19 459.322 697.302 458.652C696.414 457.983 695.404 457.495 694.327 457.216C693.251 456.937 692.13 456.873 691.029 457.027L684.386 457.962C683.285 458.117 682.225 458.488 681.267 459.052C680.309 459.617 679.472 460.365 678.803 461.253C678.134 462.141 677.647 463.153 677.369 464.229C677.091 465.306 677.027 466.427 677.182 467.528C677.337 468.629 677.708 469.688 678.273 470.646C678.837 471.604 679.585 472.442 680.473 473.11C681.361 473.779 682.373 474.267 683.449 474.545C684.526 474.823 685.647 474.886 686.748 474.731L693.379 473.796Z" fill="#EAAE86"/>
<g style="mix-blend-mode:multiply">
<path d="M692.661 468.716C693.499 468.552 694.242 468.074 694.737 467.38C695.233 466.685 695.443 465.827 695.325 464.981C695.207 464.136 694.769 463.369 694.102 462.837C693.435 462.305 692.589 462.049 691.739 462.122L685.095 463.057C684.646 463.098 684.209 463.231 683.812 463.446C683.416 463.661 683.067 463.955 682.787 464.309C682.507 464.663 682.302 465.071 682.184 465.506C682.066 465.942 682.038 466.397 682.101 466.844C682.165 467.291 682.318 467.721 682.553 468.107C682.787 468.493 683.097 468.827 683.464 469.089C683.832 469.352 684.249 469.537 684.69 469.633C685.131 469.73 685.587 469.736 686.03 469.651L692.661 468.716Z" fill="#F2E6DC"/>
</g>
<path d="M634.089 398.484C610.295 401.83 593.169 419.817 596.516 443.61L604.267 498.739C607.613 522.521 630.102 542.796 653.921 539.449C677.739 536.103 693.757 510.402 690.411 486.621L682.648 431.492C679.302 407.698 657.87 395.149 634.089 398.484Z" fill="#FCC49A"/>
<path d="M639.92 485.211C641.955 485.807 644.104 485.9 646.182 485.482C648.303 485.212 650.358 484.562 652.247 483.562C652.334 484.304 652.27 485.055 652.058 485.771C651.846 486.487 651.492 487.152 651.016 487.727C650.54 488.302 649.952 488.774 649.288 489.116C648.625 489.457 647.899 489.661 647.154 489.714C641.999 490.612 640.055 486.946 639.92 485.211Z" fill="#E2A479"/>
<path d="M652.667 445.284L665.905 450.205C666.127 450.288 666.363 450.325 666.6 450.316C666.836 450.307 667.069 450.251 667.284 450.151C667.499 450.052 667.692 449.911 667.852 449.736C668.012 449.562 668.137 449.357 668.217 449.135C668.302 448.915 668.341 448.68 668.333 448.444C668.326 448.208 668.271 447.976 668.172 447.762C668.074 447.548 667.933 447.355 667.759 447.196C667.585 447.037 667.382 446.914 667.159 446.834L653.909 441.913C653.461 441.75 652.966 441.772 652.533 441.974C652.1 442.175 651.766 442.541 651.603 442.99C651.439 443.438 651.461 443.933 651.663 444.366C651.865 444.799 652.23 445.133 652.679 445.296L652.667 445.284Z" fill="#3F2615"/>
<path d="M625.118 457.247C625.442 456.978 625.661 456.606 625.74 456.193C625.818 455.78 625.75 455.353 625.548 454.985C625.346 454.616 625.021 454.33 624.631 454.175C624.241 454.02 623.808 454.005 623.408 454.134L609.715 458.797C609.263 458.95 608.891 459.277 608.68 459.705C608.469 460.133 608.436 460.627 608.59 461.079C608.743 461.531 609.07 461.903 609.498 462.114C609.926 462.326 610.42 462.358 610.872 462.205L624.577 457.542C624.775 457.481 624.96 457.38 625.118 457.247Z" fill="#3F2615"/>
<path d="M590.5 422.865C587.805 402.516 603.442 389.241 603.442 389.241C609.877 383.09 618.673 379.399 627.15 377.111C625.6 380.26 622.954 385.784 624.566 383.791C628.958 378.304 640.338 375.179 645.112 374.097C650.882 373.642 654.733 373.851 654.745 374.097C654.745 379.387 646.982 385.095 650.882 384.591C656.541 383.853 661.475 376.274 662.52 376.976C679.56 388.343 681.86 404.116 682.746 413.06C683.792 423.517 686.437 457.35 686.437 457.35C686.437 457.35 682.808 437.838 681.787 430.505C679.88 416.861 668.352 405.9 657.944 412.961C650.624 417.944 645.161 419.826 633.732 420.146C616.163 420.626 611.882 420.392 607.637 420.564C598.287 420.934 595.593 429.939 596.713 437.948C597.463 443.288 599.985 467.709 599.985 467.709C599.985 467.709 592.357 436.976 590.5 422.865Z" fill="#774A07"/>
<path d="M604.487 486.318C606.663 485.949 608.608 484.746 609.911 482.965C611.213 481.183 611.77 478.965 611.462 476.78C611.155 474.595 610.007 472.616 608.264 471.263C606.52 469.911 604.318 469.292 602.125 469.537L595.482 470.472C593.306 470.841 591.361 472.044 590.058 473.826C588.756 475.607 588.199 477.826 588.507 480.011C588.814 482.196 589.962 484.175 591.705 485.527C593.449 486.879 595.651 487.499 597.844 487.253L604.487 486.318Z" fill="#EAAE86"/>
<g style="mix-blend-mode:multiply">
<path d="M603.801 481.273C604.641 481.111 605.388 480.633 605.886 479.936C606.383 479.239 606.594 478.378 606.474 477.53C606.354 476.682 605.912 475.913 605.24 475.382C604.568 474.851 603.718 474.599 602.866 474.678L596.222 475.613C595.381 475.774 594.634 476.253 594.137 476.95C593.639 477.646 593.428 478.508 593.549 479.356C593.669 480.204 594.111 480.973 594.782 481.503C595.454 482.034 596.304 482.287 597.157 482.208L603.801 481.273Z" fill="#F2E6DC"/>
</g>
<path d="M693.379 473.796C694.48 473.642 695.54 473.272 696.498 472.708C697.456 472.144 698.294 471.397 698.964 470.509C699.633 469.622 700.121 468.611 700.4 467.535C700.679 466.458 700.743 465.338 700.589 464.237C700.434 463.136 700.065 462.076 699.501 461.118C698.937 460.159 698.19 459.322 697.302 458.652C696.414 457.983 695.404 457.495 694.327 457.216C693.251 456.937 692.13 456.873 691.029 457.027L684.386 457.962C683.285 458.117 682.225 458.488 681.267 459.052C680.309 459.617 679.472 460.365 678.803 461.253C678.134 462.141 677.647 463.153 677.369 464.229C677.091 465.306 677.027 466.427 677.182 467.528C677.337 468.629 677.708 469.688 678.273 470.646C678.837 471.604 679.585 472.442 680.473 473.11C681.361 473.779 682.373 474.267 683.449 474.545C684.526 474.823 685.647 474.886 686.748 474.731L693.379 473.796Z" fill="#EAAE86"/>
<g style="mix-blend-mode:multiply">
<path d="M692.661 468.716C693.499 468.552 694.242 468.074 694.737 467.38C695.233 466.685 695.443 465.827 695.325 464.981C695.207 464.136 694.769 463.369 694.102 462.837C693.435 462.305 692.589 462.049 691.739 462.122L685.095 463.057C684.646 463.098 684.209 463.231 683.812 463.446C683.416 463.661 683.067 463.955 682.787 464.309C682.507 464.663 682.302 465.071 682.184 465.506C682.066 465.942 682.038 466.397 682.101 466.844C682.165 467.291 682.318 467.721 682.553 468.107C682.787 468.493 683.097 468.827 683.464 469.089C683.832 469.352 684.249 469.537 684.69 469.633C685.131 469.73 685.587 469.736 686.03 469.651L692.661 468.716Z" fill="#F2E6DC"/>
</g>
<path d="M634.089 398.484C610.295 401.83 593.169 419.817 596.516 443.61L604.267 498.739C607.613 522.521 630.102 542.796 653.921 539.449C677.739 536.103 693.757 510.402 690.411 486.621L682.648 431.492C679.302 407.698 657.87 395.149 634.089 398.484Z" fill="#FCC49A"/>
<path d="M639.92 485.211C641.955 485.807 644.104 485.9 646.182 485.482C648.303 485.212 650.358 484.562 652.247 483.562C652.334 484.304 652.27 485.055 652.058 485.771C651.846 486.487 651.492 487.152 651.016 487.727C650.54 488.302 649.952 488.774 649.288 489.116C648.625 489.457 647.899 489.661 647.154 489.714C641.999 490.612 640.055 486.946 639.92 485.211Z" fill="#E2A479"/>
<path d="M652.667 445.284L665.905 450.205C666.127 450.288 666.363 450.325 666.6 450.316C666.836 450.307 667.069 450.251 667.284 450.151C667.499 450.052 667.692 449.911 667.852 449.736C668.012 449.562 668.137 449.357 668.217 449.135C668.302 448.915 668.341 448.68 668.333 448.444C668.326 448.208 668.271 447.976 668.172 447.762C668.074 447.548 667.933 447.355 667.759 447.196C667.585 447.037 667.382 446.914 667.159 446.834L653.909 441.913C653.461 441.75 652.966 441.772 652.533 441.974C652.1 442.175 651.766 442.541 651.603 442.99C651.439 443.438 651.461 443.933 651.663 444.366C651.865 444.799 652.23 445.133 652.679 445.296L652.667 445.284Z" fill="#3F2615"/>
<path d="M625.118 457.247C625.442 456.978 625.661 456.606 625.74 456.193C625.818 455.78 625.75 455.353 625.548 454.985C625.346 454.616 625.021 454.33 624.631 454.175C624.241 454.02 623.808 454.005 623.408 454.134L609.715 458.797C609.263 458.95 608.891 459.277 608.68 459.705C608.469 460.133 608.436 460.627 608.59 461.079C608.743 461.531 609.07 461.903 609.498 462.114C609.926 462.326 610.42 462.358 610.872 462.205L624.577 457.542C624.775 457.481 624.96 457.38 625.118 457.247Z" fill="#3F2615"/>
<path d="M590.5 422.865C587.805 402.516 603.442 389.241 603.442 389.241C609.877 383.09 618.673 379.399 627.15 377.111C625.6 380.26 622.954 385.784 624.566 383.791C628.958 378.304 640.338 375.179 645.112 374.097C650.882 373.642 654.733 373.851 654.745 374.097C654.745 379.387 646.982 385.095 650.882 384.591C656.541 383.853 661.475 376.274 662.52 376.976C679.56 388.343 681.86 404.116 682.746 413.06C683.792 423.517 686.437 457.35 686.437 457.35C686.437 457.35 682.808 437.838 681.787 430.505C679.88 416.861 668.352 405.9 657.944 412.961C650.624 417.944 645.161 419.826 633.732 420.146C616.163 420.626 611.882 420.392 607.637 420.564C598.287 420.934 595.593 429.939 596.713 437.948C597.463 443.288 599.985 467.709 599.985 467.709C599.985 467.709 592.357 436.976 590.5 422.865Z" fill="#774A07"/>
<path d="M604.487 486.318C606.663 485.949 608.608 484.746 609.911 482.965C611.213 481.183 611.77 478.965 611.462 476.78C611.155 474.595 610.007 472.616 608.264 471.263C606.52 469.911 604.318 469.292 602.125 469.537L595.482 470.472C593.306 470.841 591.361 472.044 590.058 473.826C588.756 475.607 588.199 477.826 588.507 480.011C588.814 482.196 589.962 484.175 591.705 485.527C593.449 486.879 595.651 487.499 597.844 487.253L604.487 486.318Z" fill="#EAAE86"/>
<g style="mix-blend-mode:multiply">
<path d="M603.801 481.273C604.641 481.111 605.388 480.633 605.886 479.936C606.383 479.239 606.594 478.378 606.474 477.53C606.354 476.682 605.912 475.913 605.24 475.382C604.568 474.851 603.718 474.599 602.866 474.678L596.222 475.613C595.381 475.774 594.634 476.253 594.137 476.95C593.639 477.646 593.428 478.508 593.549 479.356C593.669 480.204 594.111 480.973 594.782 481.503C595.454 482.034 596.304 482.287 597.157 482.208L603.801 481.273Z" fill="#F2E6DC"/>
</g>
<path d="M693.379 473.796C694.48 473.642 695.54 473.272 696.498 472.708C697.456 472.144 698.294 471.397 698.964 470.509C699.633 469.622 700.121 468.611 700.4 467.535C700.679 466.458 700.743 465.338 700.589 464.237C700.434 463.136 700.065 462.076 699.501 461.118C698.937 460.159 698.19 459.322 697.302 458.652C696.414 457.983 695.404 457.495 694.327 457.216C693.251 456.937 692.13 456.873 691.029 457.027L684.386 457.962C683.285 458.117 682.225 458.488 681.267 459.052C680.309 459.617 679.472 460.365 678.803 461.253C678.134 462.141 677.647 463.153 677.369 464.229C677.091 465.306 677.027 466.427 677.182 467.528C677.337 468.629 677.708 469.688 678.273 470.646C678.837 471.604 679.585 472.442 680.473 473.11C681.361 473.779 682.373 474.267 683.449 474.545C684.526 474.823 685.647 474.886 686.748 474.731L693.379 473.796Z" fill="#EAAE86"/>
<g style="mix-blend-mode:multiply">
<path d="M692.661 468.716C693.499 468.552 694.242 468.074 694.737 467.38C695.233 466.685 695.443 465.827 695.325 464.981C695.207 464.136 694.769 463.369 694.102 462.837C693.435 462.305 692.589 462.049 691.739 462.122L685.095 463.057C684.646 463.098 684.209 463.231 683.812 463.446C683.416 463.661 683.067 463.955 682.787 464.309C682.507 464.663 682.302 465.071 682.184 465.506C682.066 465.942 682.038 466.397 682.101 466.844C682.165 467.291 682.318 467.721 682.553 468.107C682.787 468.493 683.097 468.827 683.464 469.089C683.832 469.352 684.249 469.537 684.69 469.633C685.131 469.73 685.587 469.736 686.03 469.651L692.661 468.716Z" fill="#F2E6DC"/>
</g>
<path d="M634.089 398.484C610.295 401.83 593.169 419.817 596.516 443.61L604.267 498.739C607.613 522.521 630.102 542.796 653.921 539.449C677.739 536.103 693.757 510.402 690.411 486.621L682.648 431.492C679.302 407.698 657.87 395.149 634.089 398.484Z" fill="#FCC49A"/>
<path d="M639.92 485.211C641.955 485.807 644.104 485.9 646.182 485.482C648.303 485.212 650.358 484.562 652.247 483.562C652.334 484.304 652.27 485.055 652.058 485.771C651.846 486.487 651.492 487.152 651.016 487.727C650.54 488.302 649.952 488.774 649.288 489.116C648.625 489.457 647.899 489.661 647.154 489.714C641.999 490.612 640.055 486.946 639.92 485.211Z" fill="#E2A479"/>
<path d="M652.667 445.284L665.905 450.205C666.127 450.288 666.363 450.325 666.6 450.316C666.836 450.307 667.069 450.251 667.284 450.151C667.499 450.052 667.692 449.911 667.852 449.736C668.012 449.562 668.137 449.357 668.217 449.135C668.302 448.915 668.341 448.68 668.333 448.444C668.326 448.208 668.271 447.976 668.172 447.762C668.074 447.548 667.933 447.355 667.759 447.196C667.585 447.037 667.382 446.914 667.159 446.834L653.909 441.913C653.461 441.75 652.966 441.772 652.533 441.974C652.1 442.175 651.766 442.541 651.603 442.99C651.439 443.438 651.461 443.933 651.663 444.366C651.865 444.799 652.23 445.133 652.679 445.296L652.667 445.284Z" fill="#3F2615"/>
<path d="M625.118 457.247C625.442 456.978 625.661 456.606 625.74 456.193C625.818 455.78 625.75 455.353 625.548 454.985C625.346 454.616 625.021 454.33 624.631 454.175C624.241 454.02 623.808 454.005 623.408 454.134L609.715 458.797C609.263 458.95 608.891 459.277 608.68 459.705C608.469 460.133 608.436 460.627 608.59 461.079C608.743 461.531 609.07 461.903 609.498 462.114C609.926 462.326 610.42 462.358 610.872 462.205L624.577 457.542C624.775 457.481 624.96 457.38 625.118 457.247Z" fill="#3F2615"/>
<path d="M590.5 422.865C587.805 402.516 603.442 389.241 603.442 389.241C609.877 383.09 618.673 379.399 627.15 377.111C625.6 380.26 622.954 385.784 624.566 383.791C628.958 378.304 640.338 375.179 645.112 374.097C650.882 373.642 654.733 373.851 654.745 374.097C654.745 379.387 646.982 385.095 650.882 384.591C656.541 383.853 661.475 376.274 662.52 376.976C679.56 388.343 681.86 404.116 682.746 413.06C683.792 423.517 686.437 457.35 686.437 457.35C686.437 457.35 682.808 437.838 681.787 430.505C679.88 416.861 668.352 405.9 657.944 412.961C650.624 417.944 645.161 419.826 633.732 420.146C616.163 420.626 611.882 420.392 607.637 420.564C598.287 420.934 595.593 429.939 596.713 437.948C597.463 443.288 599.985 467.709 599.985 467.709C599.985 467.709 592.357 436.976 590.5 422.865Z" fill="#774A07"/>
<g opacity="0.76">
<path d="M694.141 533.583L680.608 530.102C675.011 549.017 671.929 568.586 671.443 588.306C670.828 618.411 672.107 650.682 672.107 650.682L692.099 587.076L680.042 575.659L693.797 571.55L694.141 533.583Z" fill="#0D2528"/>
</g>
<path d="M694.375 532.829L678.677 528.609C673.059 547.509 669.96 567.067 669.462 586.777C668.847 616.87 672.107 650.641 672.107 650.641L690.118 585.522L678.062 574.105L691.841 569.996L694.375 532.829Z" fill="#334F57"/>
<g style="mix-blend-mode:multiply" opacity="0.34">
<path d="M637.986 507.19C637.686 507.189 637.395 507.085 637.162 506.895C637.028 506.791 636.917 506.661 636.836 506.512C636.755 506.364 636.705 506.2 636.69 506.031C636.675 505.863 636.695 505.693 636.749 505.532C636.803 505.372 636.889 505.224 637.002 505.098C637.101 504.988 646.266 494.358 660.66 502.638C660.954 502.801 661.171 503.074 661.263 503.397C661.356 503.72 661.316 504.067 661.153 504.36C660.989 504.654 660.716 504.871 660.393 504.963C660.07 505.055 659.724 505.016 659.43 504.852C646.869 497.594 639.327 506.329 639.007 506.698C638.889 506.856 638.735 506.983 638.557 507.069C638.379 507.154 638.184 507.196 637.986 507.19Z" fill="#A3673A"/>
</g>
<path d="M625.64 470.905C625.64 471.81 625.371 472.695 624.868 473.447C624.365 474.2 623.651 474.787 622.814 475.133C621.978 475.479 621.058 475.57 620.17 475.394C619.282 475.217 618.467 474.781 617.827 474.141C617.187 473.501 616.751 472.685 616.574 471.798C616.398 470.91 616.488 469.99 616.835 469.153C617.181 468.317 617.768 467.602 618.52 467.099C619.273 466.597 620.158 466.328 621.063 466.328C622.277 466.328 623.441 466.81 624.299 467.669C625.157 468.527 625.64 469.691 625.64 470.905Z" fill="#3F2919"/>
<path d="M669.386 464.717C669.386 465.623 669.117 466.508 668.614 467.261C668.11 468.014 667.395 468.601 666.558 468.947C665.721 469.293 664.8 469.383 663.912 469.205C663.024 469.028 662.208 468.59 661.569 467.949C660.929 467.308 660.494 466.491 660.319 465.603C660.144 464.714 660.236 463.793 660.584 462.957C660.933 462.121 661.521 461.407 662.275 460.906C663.03 460.405 663.916 460.138 664.821 460.141C666.033 460.144 667.194 460.628 668.05 461.485C668.905 462.343 669.386 463.506 669.386 464.717Z" fill="#3F2919"/>
<g opacity="0.44">
<path d="M653.141 475.337C653.72 473.024 658.284 471.412 661.138 470.809C666.588 469.665 678.005 467.401 684.144 467.352C690.284 467.303 689.964 470.28 690.296 474.463C690.628 478.154 690.665 481.993 683.542 483.899C676.845 485.586 669.985 486.543 663.082 486.754C657.398 486.889 655.319 485.056 654.064 482.595C652.95 480.348 652.625 477.791 653.141 475.337ZM605.529 478.326C611.447 476.678 623.049 475.73 628.585 475.349C631.513 475.152 636.348 475.447 637.541 477.514C638.683 479.743 639.06 482.285 638.612 484.748C638.07 487.467 636.557 489.805 631.07 491.22C624.382 492.907 617.53 493.864 610.635 494.074C603.253 494.197 602.269 490.518 601.556 486.852C600.793 482.731 599.636 479.938 605.529 478.326Z" fill="white"/>
</g>
<path d="M695.036 465.863C694.834 465.721 694.606 465.623 694.364 465.574C694.123 465.525 693.874 465.528 693.633 465.58C691.998 465.747 690.355 465.829 688.712 465.827L685.87 465.888C682.56 465.999 677.639 466.479 672.694 467.118C668.105 467.758 663.922 468.521 660.588 469.321C657.774 469.999 655.034 470.951 652.406 472.162C647.599 474.523 642.162 475.282 636.892 474.328C634.044 473.888 631.16 473.723 628.28 473.836C624.872 473.971 620.64 474.389 616.051 475.066C611.13 475.755 606.209 476.641 603.023 477.44L600.255 478.154C598.691 478.603 597.106 478.972 595.506 479.261C595.256 479.275 595.012 479.341 594.789 479.456C594.566 479.57 594.37 479.73 594.214 479.926C594.052 480.227 593.953 480.557 593.921 480.897C593.889 481.237 593.926 481.581 594.029 481.906L594.386 484.478C594.583 485.819 595.469 486.077 596.551 486.397C597.634 486.717 598.421 487.762 599.258 489.509L599.504 490.112C600.39 492.315 602.026 496.436 612.557 495.759C615.731 495.55 618.795 495.243 621.649 494.837C626.105 494.261 630.502 493.294 634.789 491.945C638.848 490.617 640.103 487.295 641.223 484.367C642.195 481.82 643.031 479.606 645.529 479.261C648.026 478.917 649.429 480.799 651.065 482.952C652.923 485.413 655.039 488.316 659.32 488.488C663.814 488.607 668.309 488.336 672.755 487.676C675.609 487.283 678.636 486.729 681.761 486.065C692.083 483.826 692.513 479.421 692.747 477.047C692.747 476.817 692.772 476.608 692.821 476.419C692.904 474.986 693.539 473.641 694.593 472.667C695.503 472.101 696.303 471.609 696.106 470.206L695.798 467.992V467.623C695.783 466.959 695.509 466.328 695.036 465.863ZM689.585 473.54L689.659 474.537C690.028 478.548 689.782 481.746 683.249 483.493C680.009 484.332 676.723 484.981 673.407 485.437C669.927 485.922 666.424 486.222 662.913 486.335C657.167 486.483 655.371 484.539 654.301 482.423C653.232 480.276 652.908 477.835 653.378 475.484C653.858 473.602 657.684 471.99 661.055 471.277C665.09 470.428 670.996 469.259 676.261 468.533C678.811 468.136 681.383 467.901 683.963 467.832C689.155 467.733 689.302 469.825 689.585 473.54ZM636.929 477.773C638.027 479.905 638.387 482.341 637.95 484.699C637.495 487.024 636.289 489.386 630.729 490.85C627.317 491.7 623.864 492.369 620.382 492.856C617.063 493.328 613.719 493.607 610.367 493.692C603.625 493.791 602.494 490.777 601.755 486.827L601.559 485.868C600.82 482.177 600.414 480.184 605.446 478.806C607.945 478.174 610.48 477.693 613.037 477.367C618.29 476.628 624.294 476.136 628.416 475.853C631.836 475.583 635.97 476.087 636.929 477.773Z" fill="#052C35"/>
<g style="mix-blend-mode:multiply" opacity="0.34">
<path d="M644.6 508.772C644.277 508.774 643.966 508.656 643.726 508.44C643.602 508.331 643.5 508.198 643.428 508.049C643.356 507.9 643.314 507.738 643.306 507.572C643.298 507.407 643.324 507.242 643.381 507.086C643.438 506.931 643.527 506.789 643.64 506.668C643.739 506.558 646.162 503.949 651.453 505.549C651.614 505.597 651.765 505.677 651.895 505.784C652.026 505.89 652.134 506.022 652.214 506.17C652.294 506.319 652.344 506.481 652.361 506.649C652.378 506.817 652.362 506.987 652.314 507.148C652.265 507.31 652.185 507.46 652.079 507.591C651.972 507.722 651.841 507.83 651.692 507.91C651.544 507.99 651.381 508.04 651.213 508.057C651.045 508.074 650.876 508.058 650.714 508.009C647.023 506.902 645.584 508.341 645.523 508.403C645.401 508.522 645.256 508.616 645.098 508.68C644.94 508.743 644.77 508.775 644.6 508.772Z" fill="#A3673A"/>
</g>
<g style="mix-blend-mode:multiply" opacity="0.37">
<path d="M682.164 519.406C682.164 519.406 682.951 515.9 678.473 516.872C673.995 517.844 666.576 525.84 666.576 525.84C662.292 517.61 657.268 509.786 651.567 502.465C648.589 498.774 647.605 497.815 645.71 497.544C644.566 497.409 641.281 498.331 643.57 501.641C647.045 506.554 649.935 511.855 652.182 517.438C652.182 517.438 650.496 515.703 647.703 517.819C645.587 519.431 646.141 522.506 646.141 522.506C645.594 522.316 645.01 522.253 644.435 522.321C643.859 522.389 643.307 522.587 642.819 522.9C642.221 523.29 641.754 523.85 641.478 524.508C641.201 525.165 641.129 525.891 641.269 526.591C641.269 526.591 637.947 527.76 638.341 530.491C639.24 533.493 640.478 536.382 642.032 539.103C646.965 540.009 652.031 539.915 656.927 538.827C661.824 537.738 666.452 535.678 670.538 532.767C674.401 525.557 682.164 519.406 682.164 519.406Z" fill="#E2A479"/>
</g>
<g style="mix-blend-mode:multiply" opacity="0.29">
<path d="M716.64 556.501C720.688 560.34 721.266 573.455 721.032 579.532C720.183 602.096 711.977 627.661 699.564 645.512C681.971 670.795 656.356 656.585 664.169 632.644C668.905 618.102 679.03 613.87 689.881 578.511C692.096 571.277 696.562 564.425 701.372 560.635C704.14 558.433 713.983 553.979 716.64 556.501Z" fill="#243F47"/>
</g>
<path d="M714.621 548.498C716.678 550.332 718.298 552.603 719.363 555.145C720.427 557.687 720.909 560.435 720.772 563.188C719.924 585.751 709.343 615.081 692.476 643.23C678.426 666.605 655.703 653.392 663.515 629.402C668.252 614.872 679.927 601.511 690.766 566.165C692.993 558.931 697.446 552.078 702.269 548.289C705.086 546.075 711.964 545.976 714.621 548.498Z" fill="#243F47"/>
<g style="mix-blend-mode:multiply" opacity="0.22">
<path d="M686.204 579.773C676.866 605.13 667.75 616.78 663.604 629.206C664.305 634.598 665.349 639.94 666.728 645.2C672.388 664.085 683.51 648.251 687.803 643.502C691.346 639.577 692.478 623.818 691.002 612.634C689.526 601.451 687.742 589.603 686.204 579.773Z" fill="#152429"/>
</g>
<g style="mix-blend-mode:multiply" opacity="0.3">
<path d="M703.047 667.654C703.047 667.654 706.861 665.722 705.741 662.732C704.782 660.198 701.128 661.281 701.128 661.281C701.128 661.281 704.044 659.743 703.404 657.122C702.813 654.736 700.464 654.662 699.073 654.896C681.234 658.242 674.652 656.802 674.062 657.11C675.774 654.028 677.672 651.054 679.746 648.203C681.16 646.468 681.419 644.721 679.807 643.442C678.195 642.162 675.255 644.672 675.255 644.672C675.255 644.672 666.114 651.34 661.525 656.249L661.464 655.572L657.49 656.187C657.49 655.646 657.49 655.265 657.49 655.092L619.486 652.386C619.954 664.812 620.151 675.761 620.151 675.761L620.532 685.247C637.338 683.942 659.729 680.325 659.729 680.325L659.63 679.378L663.715 679.046L663.567 677.434C668.466 678.894 673.485 679.915 678.564 680.485C685.417 680.941 693.205 680.596 699.59 677.619C703.933 675.589 702.555 673.214 702.555 673.214C702.555 673.214 705.655 671.775 705.016 669.524C704.928 669.043 704.69 668.603 704.337 668.267C703.983 667.931 703.531 667.716 703.047 667.654Z" fill="#0D2528"/>
</g>
<path d="M656.986 662.493C656.765 659.405 657.207 657.166 660.295 653.254C664.183 648.333 675.256 640.262 675.256 640.262C675.256 640.262 678.024 637.641 679.808 639.032C681.592 640.422 681.161 642.07 679.746 643.805C677.67 646.654 675.772 649.629 674.062 652.712C674.653 652.405 681.235 653.844 699.074 650.486C700.464 650.227 702.765 650.326 703.405 652.725C704.044 655.333 701.129 656.871 701.129 656.871C701.129 656.871 704.819 655.8 705.742 658.322C706.862 661.3 703.048 663.244 703.048 663.244C703.527 663.308 703.974 663.521 704.327 663.852C704.68 664.182 704.921 664.615 705.016 665.089C705.631 667.34 702.556 668.78 702.556 668.78C702.556 668.78 703.934 671.142 699.591 673.172C693.206 676.149 685.418 676.506 678.565 676.051C673.779 675.731 661.809 673.012 659.508 671.376C656.248 669.087 657.195 665.347 656.986 662.493Z" fill="#E8AD85"/>
<path d="M656.359 651.956L661.464 651.156L663.704 674.63L655.879 675.27L656.359 651.956Z" fill="white"/>
<path d="M657.467 650.68L583.379 645.414C583.379 645.414 579.073 657.717 582.149 666.969C585.618 677.561 597.576 681.375 610.888 681.338C626.882 681.338 659.743 675.913 659.743 675.913C659.743 675.913 657.307 652.439 657.467 650.68Z" fill="#243F47"/>
<path d="M674.42 565.481C674.42 565.481 669.819 545.243 670.803 540.15C672.612 530.701 684.447 521.425 684.447 521.425C684.447 521.425 685.234 517.919 680.756 518.891C676.278 519.862 668.859 527.872 668.859 527.872C664.576 519.64 659.552 511.816 653.85 504.496C650.872 500.805 649.888 499.846 647.994 499.575C646.849 499.44 643.565 500.363 645.853 503.672C649.328 508.585 652.218 513.886 654.465 519.469C654.465 519.469 652.779 517.734 649.974 519.863C647.871 521.462 648.424 524.538 648.424 524.538C647.877 524.347 647.293 524.284 646.718 524.352C646.143 524.42 645.59 524.618 645.102 524.931C644.506 525.322 644.039 525.882 643.763 526.54C643.487 527.197 643.414 527.922 643.552 528.622C643.552 528.622 640.231 529.791 640.624 532.522C640.895 534.466 644.315 541.885 647.834 547.15C650.037 550.347 653.274 552.688 656.999 553.781L660.37 567.844L674.42 565.481Z" fill="#FFD2B3"/>
<path d="M675.243 561.054C675.452 560.205 673.545 552.109 673.545 552.109L652.471 557.227L653.959 567.23L675.243 561.054Z" fill="#D8EAEF"/>
<path d="M691.838 635.134L676.09 555.719L651.398 562.535C651.398 562.535 656.32 625.119 661.401 642.158C667.072 661.043 679.498 655.999 686.314 650.241C691.752 645.665 691.838 635.134 691.838 635.134Z" fill="#243F47"/>
<path d="M796.473 795.617H800.705V792.443C800.708 790.764 801.377 789.154 802.564 787.966C803.752 786.779 805.361 786.11 807.041 786.107H835.165C836.844 786.11 838.454 786.779 839.642 787.966C840.829 789.154 841.498 790.764 841.501 792.443V795.383H845.733V792.443C845.73 789.641 844.615 786.955 842.634 784.974C840.653 782.993 837.967 781.878 835.165 781.875H807.041C804.239 781.878 801.553 782.993 799.572 784.974C797.59 786.955 796.476 789.641 796.473 792.443V795.617Z" fill="#0E3C54"/>
<path d="M838.465 800.091C838.468 800.464 838.619 800.821 838.884 801.084C839.149 801.346 839.507 801.494 839.88 801.494H847.163C847.535 801.494 847.892 801.346 848.155 801.083C848.418 800.82 848.565 800.463 848.565 800.091V795.391C848.567 795.206 848.532 795.023 848.462 794.851C848.393 794.679 848.289 794.523 848.159 794.392C848.029 794.26 847.873 794.156 847.703 794.085C847.532 794.013 847.348 793.977 847.163 793.977H839.88C839.504 793.977 839.145 794.126 838.879 794.391C838.614 794.656 838.465 795.016 838.465 795.391V800.091Z" fill="#F99920"/>
<path d="M794.764 793.945H802.047C802.423 793.945 802.782 794.094 803.048 794.36C803.313 794.625 803.462 794.985 803.462 795.36V800.097C803.462 800.469 803.314 800.825 803.051 801.088C802.788 801.351 802.432 801.499 802.06 801.499H794.764C794.394 801.496 794.041 801.347 793.78 801.084C793.52 800.821 793.374 800.467 793.374 800.097V795.397C793.367 795.21 793.398 795.023 793.465 794.848C793.532 794.673 793.633 794.513 793.763 794.378C793.892 794.242 794.048 794.134 794.22 794.06C794.392 793.986 794.577 793.947 794.764 793.945Z" fill="#F99920"/>
<path d="M758.373 879.89C758.373 881.001 758.592 882.101 759.018 883.127C759.443 884.154 760.067 885.086 760.853 885.871C761.639 886.656 762.572 887.278 763.599 887.702C764.626 888.126 765.726 888.344 766.837 888.342H874.672C875.783 888.344 876.883 888.126 877.91 887.702C878.937 887.278 879.87 886.656 880.656 885.871C881.442 885.086 882.066 884.154 882.492 883.127C882.917 882.101 883.136 881.001 883.136 879.89V803.748C883.136 803.192 883.027 802.642 882.814 802.128C882.601 801.615 882.289 801.148 881.896 800.755C881.503 800.362 881.037 800.051 880.523 799.838C880.01 799.625 879.46 799.516 878.904 799.516H762.605C761.483 799.516 760.406 799.962 759.613 800.755C758.819 801.549 758.373 802.625 758.373 803.748V879.89Z" fill="#234354"/>
<path d="M762.812 803.742H879.111C880.23 803.742 881.303 804.187 882.095 804.978C882.886 805.77 883.331 806.843 883.331 807.962V833.343C883.331 837.827 881.55 842.128 878.38 845.3C875.211 848.472 870.911 850.256 866.427 850.259H827.058V854.59C827.095 855.446 826.959 856.301 826.658 857.104C826.356 857.906 825.895 858.639 825.302 859.258C824.709 859.877 823.998 860.37 823.209 860.707C822.421 861.044 821.573 861.217 820.716 861.217C819.858 861.217 819.01 861.044 818.222 860.707C817.433 860.37 816.722 859.877 816.129 859.258C815.536 858.639 815.075 857.906 814.773 857.104C814.472 856.301 814.336 855.446 814.373 854.59V850.259H775.496C771.011 850.256 766.71 848.473 763.538 845.301C760.367 842.129 758.583 837.828 758.58 833.343V807.962C758.583 806.842 759.031 805.768 759.824 804.977C760.617 804.186 761.692 803.742 762.812 803.742Z" fill="#082633"/>
<path d="M758.58 829.116C758.583 833.602 760.367 837.903 763.538 841.074C766.71 844.246 771.011 846.029 775.496 846.033H866.427C870.911 846.029 875.211 844.246 878.38 841.074C881.55 837.901 883.331 833.601 883.331 829.116V803.748C883.332 803.193 883.224 802.643 883.013 802.129C882.802 801.616 882.491 801.149 882.099 800.756C881.707 800.363 881.241 800.051 880.729 799.838C880.216 799.625 879.666 799.516 879.111 799.516H762.812C761.69 799.516 760.613 799.962 759.82 800.755C759.026 801.549 758.58 802.625 758.58 803.748V829.116Z" fill="#366377"/>
<path d="M814.412 850.355C814.484 851.989 815.184 853.532 816.365 854.662C817.547 855.793 819.119 856.424 820.754 856.424C822.39 856.424 823.962 855.793 825.143 854.662C826.325 853.532 827.024 851.989 827.096 850.355V840.242H814.412V850.355Z" fill="#F99920"/>
<path d="M815.812 849.947C815.812 851.253 816.331 852.504 817.254 853.427C818.177 854.35 819.428 854.869 820.734 854.869C822.039 854.869 823.291 854.35 824.213 853.427C825.136 852.504 825.655 851.253 825.655 849.947V842.086H815.812V849.947Z" fill="#FFAF57"/>
<path d="M826.483 846.047H815.619V847.745H826.483V846.047Z" fill="#F99920"/>
<path d="M187.827 495.766H195.927L205.131 524.454L214.335 495.766H222.435L208.416 537H201.846L187.827 495.766ZM182.899 495.766H191.282L192.84 527.371V537H182.899V495.766ZM218.979 495.766H227.391V537H217.422V527.371L218.979 495.766ZM255.003 526.04C255.003 525.398 254.909 524.822 254.72 524.312C254.531 523.784 254.182 523.293 253.672 522.84C253.162 522.387 252.426 521.934 251.463 521.48C250.519 521.008 249.273 520.518 247.725 520.008C245.912 519.404 244.166 518.724 242.485 517.969C240.805 517.195 239.304 516.298 237.982 515.278C236.661 514.24 235.613 513.032 234.839 511.653C234.065 510.256 233.678 508.632 233.678 506.782C233.678 505.007 234.074 503.412 234.867 501.996C235.66 500.561 236.765 499.343 238.181 498.343C239.616 497.323 241.296 496.549 243.222 496.021C245.147 495.473 247.253 495.199 249.537 495.199C252.558 495.199 255.22 495.728 257.523 496.785C259.846 497.824 261.658 499.306 262.961 501.231C264.283 503.138 264.943 505.395 264.943 508H255.06C255.06 506.962 254.842 506.046 254.408 505.253C253.993 504.46 253.36 503.837 252.511 503.384C251.661 502.931 250.594 502.704 249.311 502.704C248.064 502.704 247.017 502.893 246.167 503.271C245.317 503.648 244.675 504.158 244.241 504.8C243.807 505.423 243.59 506.112 243.59 506.867C243.59 507.49 243.76 508.057 244.1 508.566C244.458 509.057 244.959 509.52 245.601 509.954C246.261 510.388 247.054 510.804 247.979 511.2C248.924 511.597 249.981 511.984 251.151 512.361C253.341 513.06 255.286 513.843 256.985 514.712C258.703 515.562 260.148 516.534 261.318 517.629C262.508 518.705 263.405 519.932 264.009 521.311C264.632 522.689 264.943 524.246 264.943 525.983C264.943 527.834 264.585 529.476 263.867 530.911C263.15 532.346 262.121 533.564 260.78 534.564C259.44 535.546 257.835 536.292 255.966 536.802C254.097 537.312 252.01 537.566 249.707 537.566C247.592 537.566 245.506 537.302 243.448 536.773C241.409 536.226 239.559 535.395 237.897 534.281C236.236 533.148 234.905 531.704 233.904 529.948C232.923 528.174 232.432 526.068 232.432 523.633H242.4C242.4 524.841 242.561 525.861 242.882 526.691C243.203 527.522 243.675 528.192 244.298 528.702C244.921 529.193 245.686 529.552 246.592 529.778C247.498 529.986 248.536 530.09 249.707 530.09C250.972 530.09 251.992 529.91 252.766 529.552C253.54 529.174 254.106 528.683 254.465 528.079C254.824 527.456 255.003 526.776 255.003 526.04ZM274.997 495.766H283.097L292.301 524.454L301.505 495.766H309.604L295.586 537H289.016L274.997 495.766ZM270.069 495.766H278.452L280.01 527.371V537H270.069V495.766ZM306.149 495.766H314.561V537H304.592V527.371L306.149 495.766ZM349.31 529.354V537H327.333V529.354H349.31ZM330.873 495.766V537H320.933V495.766H330.873ZM346.478 512.135V519.526H327.333V512.135H346.478ZM349.395 495.766V503.44H327.333V495.766H349.395ZM107.284 559.766H123.512C126.684 559.766 129.44 560.238 131.781 561.182C134.122 562.126 135.925 563.523 137.19 565.373C138.474 567.223 139.116 569.508 139.116 572.227C139.116 574.587 138.748 576.56 138.012 578.146C137.275 579.731 136.246 581.044 134.925 582.082C133.622 583.102 132.102 583.942 130.365 584.603L127.108 586.443H113.486L113.43 578.769H123.512C124.777 578.769 125.825 578.542 126.655 578.089C127.486 577.636 128.109 576.994 128.524 576.163C128.959 575.313 129.176 574.303 129.176 573.133C129.176 571.943 128.959 570.924 128.524 570.074C128.09 569.225 127.448 568.573 126.599 568.12C125.768 567.667 124.739 567.44 123.512 567.44H117.225V601H107.284V559.766ZM129.855 601L120.736 582.762L131.271 582.705L140.504 600.575V601H129.855ZM159.507 601.566C157.015 601.566 154.787 601.179 152.823 600.405C150.86 599.612 149.198 598.527 147.839 597.148C146.498 595.77 145.469 594.184 144.752 592.391C144.053 590.597 143.704 588.7 143.704 586.698V585.622C143.704 583.375 144.016 581.299 144.639 579.392C145.262 577.466 146.187 575.785 147.414 574.351C148.641 572.916 150.18 571.802 152.03 571.009C153.881 570.197 156.033 569.791 158.487 569.791C160.659 569.791 162.603 570.14 164.321 570.839C166.039 571.537 167.493 572.538 168.683 573.841C169.891 575.144 170.807 576.72 171.43 578.57C172.072 580.421 172.393 582.497 172.393 584.801V588.681H147.357V582.705H163.075V581.969C163.094 580.949 162.915 580.081 162.537 579.363C162.178 578.646 161.65 578.098 160.951 577.721C160.253 577.343 159.403 577.154 158.402 577.154C157.364 577.154 156.505 577.381 155.825 577.834C155.164 578.287 154.645 578.91 154.268 579.703C153.909 580.477 153.654 581.374 153.503 582.394C153.352 583.413 153.276 584.489 153.276 585.622V586.698C153.276 587.831 153.427 588.86 153.729 589.785C154.05 590.71 154.504 591.503 155.089 592.164C155.693 592.806 156.41 593.306 157.241 593.665C158.091 594.024 159.054 594.203 160.13 594.203C161.433 594.203 162.716 593.958 163.981 593.467C165.246 592.976 166.332 592.164 167.238 591.031L171.571 596.186C170.948 597.073 170.061 597.932 168.909 598.763C167.776 599.593 166.417 600.273 164.831 600.802C163.245 601.312 161.47 601.566 159.507 601.566ZM195.53 570.357H204.196V599.811C204.196 602.643 203.545 605.04 202.242 607.004C200.939 608.986 199.118 610.487 196.776 611.507C194.454 612.545 191.735 613.064 188.62 613.064C187.242 613.064 185.835 612.885 184.4 612.526C182.965 612.187 181.625 611.677 180.379 610.997C179.133 610.317 178.085 609.477 177.235 608.477L181.229 602.869C182.003 603.738 182.975 604.474 184.146 605.078C185.316 605.701 186.694 606.013 188.28 606.013C189.659 606.013 190.81 605.767 191.735 605.276C192.679 604.785 193.397 604.068 193.888 603.124C194.379 602.199 194.624 601.076 194.624 599.754V577.607L195.53 570.357ZM175.168 586.047V585.452C175.168 583.13 175.451 581.015 176.018 579.108C176.603 577.183 177.434 575.531 178.51 574.152C179.605 572.755 180.926 571.679 182.475 570.924C184.023 570.169 185.769 569.791 187.714 569.791C189.81 569.791 191.528 570.197 192.868 571.009C194.228 571.802 195.313 572.916 196.125 574.351C196.956 575.785 197.598 577.466 198.051 579.392C198.523 581.299 198.919 583.356 199.24 585.565V586.273C198.919 588.35 198.476 590.314 197.909 592.164C197.362 593.995 196.644 595.619 195.757 597.035C194.869 598.451 193.756 599.565 192.415 600.377C191.093 601.17 189.507 601.566 187.657 601.566C185.731 601.566 183.994 601.179 182.446 600.405C180.917 599.631 179.605 598.546 178.51 597.148C177.434 595.751 176.603 594.109 176.018 592.221C175.451 590.333 175.168 588.275 175.168 586.047ZM184.712 585.452V586.047C184.712 587.199 184.816 588.265 185.023 589.247C185.25 590.229 185.59 591.097 186.043 591.853C186.496 592.589 187.053 593.165 187.714 593.58C188.394 593.995 189.187 594.203 190.093 594.203C191.471 594.203 192.585 593.91 193.435 593.325C194.284 592.74 194.898 591.909 195.275 590.833C195.653 589.757 195.813 588.492 195.757 587.038V584.801C195.795 583.555 195.71 582.46 195.502 581.516C195.294 580.553 194.964 579.75 194.511 579.108C194.076 578.466 193.491 577.985 192.755 577.664C192.037 577.324 191.169 577.154 190.149 577.154C189.262 577.154 188.479 577.362 187.799 577.777C187.119 578.193 186.553 578.778 186.1 579.533C185.646 580.27 185.297 581.147 185.052 582.167C184.825 583.168 184.712 584.263 184.712 585.452ZM219.772 570.357V601H210.2V570.357H219.772ZM209.634 562.456C209.634 561.097 210.125 559.983 211.106 559.114C212.088 558.246 213.363 557.812 214.93 557.812C216.497 557.812 217.771 558.246 218.753 559.114C219.735 559.983 220.226 561.097 220.226 562.456C220.226 563.815 219.735 564.929 218.753 565.798C217.771 566.666 216.497 567.101 214.93 567.101C213.363 567.101 212.088 566.666 211.106 565.798C210.125 564.929 209.634 563.815 209.634 562.456ZM241.721 592.391C241.721 591.862 241.541 591.409 241.183 591.031C240.843 590.635 240.239 590.276 239.37 589.955C238.502 589.615 237.284 589.275 235.717 588.936C234.225 588.615 232.819 588.19 231.497 587.661C230.194 587.132 229.052 586.491 228.07 585.735C227.089 584.98 226.314 584.083 225.748 583.045C225.201 582.007 224.927 580.817 224.927 579.477C224.927 578.174 225.201 576.947 225.748 575.795C226.314 574.624 227.136 573.595 228.212 572.708C229.307 571.802 230.638 571.094 232.205 570.584C233.772 570.055 235.556 569.791 237.558 569.791C240.314 569.791 242.693 570.216 244.694 571.065C246.696 571.896 248.234 573.067 249.311 574.577C250.406 576.069 250.953 577.796 250.953 579.76H241.409C241.409 578.986 241.277 578.325 241.013 577.777C240.767 577.23 240.361 576.814 239.795 576.531C239.229 576.229 238.473 576.078 237.529 576.078C236.868 576.078 236.264 576.201 235.717 576.446C235.188 576.692 234.763 577.032 234.442 577.466C234.121 577.9 233.961 578.41 233.961 578.995C233.961 579.41 234.055 579.788 234.244 580.128C234.452 580.449 234.763 580.751 235.179 581.034C235.594 581.299 236.123 581.544 236.765 581.771C237.407 581.978 238.181 582.167 239.087 582.337C241.145 582.715 243.071 583.253 244.864 583.951C246.658 584.65 248.112 585.641 249.226 586.925C250.358 588.209 250.925 589.936 250.925 592.107C250.925 593.467 250.613 594.722 249.99 595.874C249.367 597.007 248.47 598.007 247.3 598.876C246.129 599.726 244.723 600.386 243.08 600.858C241.438 601.33 239.587 601.566 237.529 601.566C234.603 601.566 232.13 601.047 230.109 600.009C228.089 598.951 226.56 597.63 225.521 596.044C224.502 594.439 223.992 592.815 223.992 591.173H232.885C232.923 592.117 233.149 592.891 233.564 593.495C233.999 594.099 234.575 594.543 235.292 594.826C236.009 595.109 236.84 595.251 237.784 595.251C238.653 595.251 239.37 595.128 239.937 594.883C240.522 594.637 240.965 594.307 241.268 593.892C241.57 593.457 241.721 592.957 241.721 592.391ZM271.542 570.357V576.984H253.077V570.357H271.542ZM256.957 562.739H266.501V591.003C266.501 591.815 266.595 592.447 266.784 592.9C266.973 593.335 267.294 593.646 267.747 593.835C268.219 594.005 268.842 594.09 269.616 594.09C270.164 594.09 270.617 594.08 270.976 594.062C271.334 594.024 271.674 593.977 271.995 593.92V600.745C271.183 601.009 270.334 601.208 269.446 601.34C268.559 601.491 267.615 601.566 266.614 601.566C264.575 601.566 262.829 601.245 261.375 600.604C259.94 599.962 258.845 598.951 258.09 597.573C257.335 596.195 256.957 594.401 256.957 592.192V562.739ZM284.966 577.947V601H275.422V570.357H284.343L284.966 577.947ZM294.028 570.131L293.858 578.995C293.481 578.957 292.971 578.91 292.329 578.854C291.687 578.797 291.149 578.769 290.715 578.769C289.601 578.769 288.638 578.901 287.826 579.165C287.033 579.41 286.372 579.788 285.844 580.298C285.334 580.789 284.956 581.412 284.711 582.167C284.484 582.922 284.381 583.8 284.399 584.801L282.672 583.668C282.672 581.61 282.87 579.741 283.267 578.061C283.682 576.361 284.267 574.898 285.022 573.671C285.778 572.425 286.693 571.471 287.77 570.811C288.846 570.131 290.054 569.791 291.395 569.791C291.867 569.791 292.329 569.819 292.782 569.876C293.254 569.933 293.67 570.018 294.028 570.131ZM312.38 593.297V580.666C312.38 579.798 312.257 579.052 312.012 578.429C311.766 577.806 311.379 577.324 310.851 576.984C310.322 576.626 309.614 576.446 308.727 576.446C308.009 576.446 307.396 576.569 306.886 576.814C306.376 577.06 305.989 577.428 305.725 577.919C305.46 578.41 305.328 579.033 305.328 579.788H295.784C295.784 578.372 296.096 577.06 296.719 575.852C297.361 574.624 298.267 573.558 299.438 572.651C300.627 571.745 302.043 571.047 303.686 570.556C305.347 570.046 307.197 569.791 309.236 569.791C311.672 569.791 313.843 570.197 315.75 571.009C317.676 571.821 319.196 573.038 320.31 574.662C321.424 576.267 321.98 578.287 321.98 580.723V593.269C321.98 595.27 322.094 596.79 322.32 597.828C322.547 598.848 322.868 599.744 323.283 600.519V601H313.711C313.258 600.056 312.918 598.904 312.691 597.545C312.484 596.167 312.38 594.751 312.38 593.297ZM313.541 582.28L313.598 587.378H309.378C308.491 587.378 307.735 587.501 307.112 587.746C306.508 587.992 306.017 588.331 305.64 588.766C305.281 589.181 305.017 589.653 304.847 590.182C304.696 590.71 304.62 591.267 304.62 591.853C304.62 592.419 304.752 592.929 305.017 593.382C305.3 593.816 305.677 594.156 306.149 594.401C306.621 594.647 307.15 594.77 307.735 594.77C308.793 594.77 309.689 594.571 310.426 594.175C311.181 593.759 311.757 593.259 312.153 592.674C312.55 592.089 312.748 591.541 312.748 591.031L314.844 594.939C314.466 595.695 314.032 596.459 313.541 597.233C313.069 598.007 312.474 598.725 311.757 599.386C311.058 600.028 310.199 600.556 309.18 600.972C308.16 601.368 306.924 601.566 305.47 601.566C303.582 601.566 301.845 601.179 300.259 600.405C298.692 599.631 297.436 598.555 296.492 597.177C295.548 595.78 295.076 594.175 295.076 592.362C295.076 590.776 295.359 589.36 295.926 588.114C296.511 586.868 297.389 585.811 298.56 584.942C299.73 584.074 301.222 583.413 303.034 582.96C304.847 582.507 306.98 582.28 309.435 582.28H313.541ZM343.419 570.357V576.984H324.954V570.357H343.419ZM328.834 562.739H338.378V591.003C338.378 591.815 338.472 592.447 338.661 592.9C338.85 593.335 339.171 593.646 339.624 593.835C340.096 594.005 340.719 594.09 341.493 594.09C342.041 594.09 342.494 594.08 342.853 594.062C343.211 594.024 343.551 593.977 343.872 593.92V600.745C343.06 601.009 342.211 601.208 341.323 601.34C340.436 601.491 339.492 601.566 338.491 601.566C336.452 601.566 334.706 601.245 333.252 600.604C331.817 599.962 330.722 598.951 329.967 597.573C329.212 596.195 328.834 594.401 328.834 592.192V562.739ZM357.296 570.357V601H347.724V570.357H357.296ZM347.157 562.456C347.157 561.097 347.648 559.983 348.63 559.114C349.612 558.246 350.886 557.812 352.453 557.812C354.02 557.812 355.295 558.246 356.276 559.114C357.258 559.983 357.749 561.097 357.749 562.456C357.749 563.815 357.258 564.929 356.276 565.798C355.295 566.666 354.02 567.101 352.453 567.101C350.886 567.101 349.612 566.666 348.63 565.798C347.648 564.929 347.157 563.815 347.157 562.456ZM361.997 585.99V585.396C361.997 583.149 362.318 581.081 362.96 579.193C363.602 577.286 364.546 575.634 365.792 574.237C367.038 572.84 368.577 571.755 370.408 570.98C372.24 570.188 374.354 569.791 376.752 569.791C379.169 569.791 381.293 570.188 383.124 570.98C384.974 571.755 386.522 572.84 387.769 574.237C389.015 575.634 389.959 577.286 390.601 579.193C391.243 581.081 391.563 583.149 391.563 585.396V585.99C391.563 588.218 391.243 590.285 390.601 592.192C389.959 594.08 389.015 595.732 387.769 597.148C386.522 598.546 384.984 599.631 383.152 600.405C381.321 601.179 379.206 601.566 376.809 601.566C374.411 601.566 372.287 601.179 370.437 600.405C368.586 599.631 367.038 598.546 365.792 597.148C364.546 595.732 363.602 594.08 362.96 592.192C362.318 590.285 361.997 588.218 361.997 585.99ZM371.541 585.396V585.99C371.541 587.142 371.626 588.218 371.796 589.219C371.966 590.219 372.249 591.097 372.646 591.853C373.042 592.589 373.58 593.165 374.26 593.58C374.939 593.995 375.789 594.203 376.809 594.203C377.809 594.203 378.64 593.995 379.301 593.58C379.98 593.165 380.519 592.589 380.915 591.853C381.312 591.097 381.595 590.219 381.765 589.219C381.935 588.218 382.02 587.142 382.02 585.99V585.396C382.02 584.282 381.935 583.234 381.765 582.252C381.595 581.251 381.312 580.373 380.915 579.618C380.519 578.844 379.98 578.24 379.301 577.806C378.621 577.371 377.771 577.154 376.752 577.154C375.751 577.154 374.911 577.371 374.231 577.806C373.571 578.24 373.042 578.844 372.646 579.618C372.249 580.373 371.966 581.251 371.796 582.252C371.626 583.234 371.541 584.282 371.541 585.396ZM405.186 576.899V601H395.642V570.357H404.591L405.186 576.899ZM404.053 584.631L401.815 584.688C401.815 582.346 402.099 580.26 402.665 578.429C403.231 576.578 404.034 575.011 405.072 573.728C406.111 572.444 407.347 571.471 408.782 570.811C410.236 570.131 411.85 569.791 413.625 569.791C415.041 569.791 416.334 569.999 417.505 570.414C418.694 570.829 419.714 571.5 420.563 572.425C421.432 573.35 422.093 574.577 422.546 576.106C423.018 577.617 423.254 579.486 423.254 581.714V601H413.653V581.686C413.653 580.458 413.483 579.524 413.144 578.882C412.804 578.221 412.313 577.768 411.671 577.522C411.029 577.277 410.245 577.154 409.32 577.154C408.339 577.154 407.508 577.343 406.828 577.721C406.148 578.098 405.601 578.627 405.186 579.307C404.789 579.967 404.496 580.751 404.308 581.657C404.138 582.563 404.053 583.555 404.053 584.631Z" fill="#FFA229"/>
<path d="M186.921 643.562V645.232C186.921 648.385 186.477 651.217 185.59 653.729C184.721 656.221 183.485 658.354 181.88 660.129C180.275 661.885 178.378 663.235 176.188 664.179C173.997 665.104 171.581 665.566 168.938 665.566C166.275 665.566 163.84 665.104 161.631 664.179C159.441 663.235 157.534 661.885 155.91 660.129C154.305 658.354 153.059 656.221 152.172 653.729C151.303 651.217 150.869 648.385 150.869 645.232V643.562C150.869 640.409 151.303 637.576 152.172 635.065C153.059 632.554 154.296 630.421 155.882 628.665C157.487 626.89 159.384 625.54 161.574 624.615C163.783 623.671 166.219 623.199 168.881 623.199C171.524 623.199 173.941 623.671 176.131 624.615C178.34 625.54 180.247 626.89 181.852 628.665C183.456 630.421 184.702 632.554 185.59 635.065C186.477 637.576 186.921 640.409 186.921 643.562ZM176.839 645.232V643.505C176.839 641.466 176.66 639.672 176.301 638.124C175.961 636.557 175.451 635.245 174.771 634.188C174.092 633.13 173.252 632.337 172.251 631.809C171.269 631.261 170.146 630.987 168.881 630.987C167.559 630.987 166.408 631.261 165.426 631.809C164.444 632.337 163.623 633.13 162.962 634.188C162.301 635.245 161.801 636.557 161.461 638.124C161.14 639.672 160.979 641.466 160.979 643.505V645.232C160.979 647.253 161.14 649.046 161.461 650.613C161.801 652.161 162.301 653.474 162.962 654.55C163.642 655.626 164.472 656.438 165.454 656.985C166.455 657.533 167.616 657.807 168.938 657.807C170.202 657.807 171.326 657.533 172.308 656.985C173.289 656.438 174.111 655.626 174.771 654.55C175.451 653.474 175.961 652.161 176.301 650.613C176.66 649.046 176.839 647.253 176.839 645.232ZM200.996 640.899V665H191.452V634.357H200.401L200.996 640.899ZM199.863 648.631L197.626 648.688C197.626 646.346 197.909 644.26 198.476 642.429C199.042 640.578 199.844 639.011 200.883 637.728C201.921 636.444 203.158 635.471 204.593 634.811C206.047 634.131 207.661 633.791 209.436 633.791C210.852 633.791 212.145 633.999 213.315 634.414C214.505 634.829 215.524 635.5 216.374 636.425C217.243 637.35 217.903 638.577 218.356 640.106C218.828 641.617 219.064 643.486 219.064 645.714V665H209.464V645.686C209.464 644.458 209.294 643.524 208.954 642.882C208.614 642.221 208.123 641.768 207.481 641.522C206.84 641.277 206.056 641.154 205.131 641.154C204.149 641.154 203.318 641.343 202.639 641.721C201.959 642.098 201.411 642.627 200.996 643.307C200.6 643.967 200.307 644.751 200.118 645.657C199.948 646.563 199.863 647.555 199.863 648.631ZM234.442 621.5V665H224.87V621.5H234.442ZM250.415 634.357V665H240.843V634.357H250.415ZM240.276 626.456C240.276 625.097 240.767 623.983 241.749 623.114C242.731 622.246 244.005 621.812 245.572 621.812C247.139 621.812 248.414 622.246 249.396 623.114C250.377 623.983 250.868 625.097 250.868 626.456C250.868 627.815 250.377 628.929 249.396 629.798C248.414 630.666 247.139 631.101 245.572 631.101C244.005 631.101 242.731 630.666 241.749 629.798C240.767 628.929 240.276 627.815 240.276 626.456ZM265.68 640.899V665H256.136V634.357H265.085L265.68 640.899ZM264.547 648.631L262.31 648.688C262.31 646.346 262.593 644.26 263.159 642.429C263.726 640.578 264.528 639.011 265.566 637.728C266.605 636.444 267.841 635.471 269.276 634.811C270.73 634.131 272.344 633.791 274.119 633.791C275.535 633.791 276.828 633.999 277.999 634.414C279.188 634.829 280.208 635.5 281.058 636.425C281.926 637.35 282.587 638.577 283.04 640.106C283.512 641.617 283.748 643.486 283.748 645.714V665H274.147V645.686C274.147 644.458 273.978 643.524 273.638 642.882C273.298 642.221 272.807 641.768 272.165 641.522C271.523 641.277 270.74 641.154 269.814 641.154C268.833 641.154 268.002 641.343 267.322 641.721C266.643 642.098 266.095 642.627 265.68 643.307C265.283 643.967 264.991 644.751 264.802 645.657C264.632 646.563 264.547 647.555 264.547 648.631ZM303.884 665.566C301.392 665.566 299.164 665.179 297.2 664.405C295.237 663.612 293.575 662.527 292.216 661.148C290.875 659.77 289.846 658.184 289.129 656.391C288.43 654.597 288.081 652.7 288.081 650.698V649.622C288.081 647.375 288.393 645.299 289.016 643.392C289.639 641.466 290.564 639.785 291.791 638.351C293.018 636.916 294.557 635.802 296.407 635.009C298.257 634.197 300.41 633.791 302.864 633.791C305.035 633.791 306.98 634.14 308.698 634.839C310.416 635.537 311.87 636.538 313.06 637.841C314.268 639.144 315.184 640.72 315.807 642.57C316.449 644.421 316.77 646.497 316.77 648.801V652.681H291.734V646.705H307.452V645.969C307.471 644.949 307.292 644.081 306.914 643.363C306.555 642.646 306.027 642.098 305.328 641.721C304.63 641.343 303.78 641.154 302.779 641.154C301.741 641.154 300.882 641.381 300.202 641.834C299.541 642.287 299.022 642.91 298.645 643.703C298.286 644.477 298.031 645.374 297.88 646.394C297.729 647.413 297.653 648.489 297.653 649.622V650.698C297.653 651.831 297.804 652.86 298.106 653.785C298.427 654.71 298.881 655.503 299.466 656.164C300.07 656.806 300.787 657.306 301.618 657.665C302.468 658.024 303.431 658.203 304.507 658.203C305.81 658.203 307.093 657.958 308.358 657.467C309.623 656.976 310.709 656.164 311.615 655.031L315.948 660.186C315.325 661.073 314.438 661.932 313.286 662.763C312.153 663.593 310.794 664.273 309.208 664.802C307.622 665.312 305.847 665.566 303.884 665.566ZM345.175 634.357V665H335.603V634.357H345.175ZM335.036 626.456C335.036 625.097 335.527 623.983 336.509 623.114C337.491 622.246 338.765 621.812 340.332 621.812C341.899 621.812 343.174 622.246 344.155 623.114C345.137 623.983 345.628 625.097 345.628 626.456C345.628 627.815 345.137 628.929 344.155 629.798C343.174 630.666 341.899 631.101 340.332 631.101C338.765 631.101 337.491 630.666 336.509 629.798C335.527 628.929 335.036 627.815 335.036 626.456ZM360.439 640.899V665H350.896V634.357H359.845L360.439 640.899ZM359.307 648.631L357.069 648.688C357.069 646.346 357.353 644.26 357.919 642.429C358.485 640.578 359.288 639.011 360.326 637.728C361.365 636.444 362.601 635.471 364.036 634.811C365.49 634.131 367.104 633.791 368.879 633.791C370.295 633.791 371.588 633.999 372.759 634.414C373.948 634.829 374.968 635.5 375.817 636.425C376.686 637.35 377.347 638.577 377.8 640.106C378.272 641.617 378.508 643.486 378.508 645.714V665H368.907V645.686C368.907 644.458 368.737 643.524 368.397 642.882C368.058 642.221 367.567 641.768 366.925 641.522C366.283 641.277 365.499 641.154 364.574 641.154C363.592 641.154 362.762 641.343 362.082 641.721C361.402 642.098 360.855 642.627 360.439 643.307C360.043 643.967 359.75 644.751 359.562 645.657C359.392 646.563 359.307 647.555 359.307 648.631ZM213.854 687.766V729H203.941V687.766H213.854ZM229.77 704.899V729H220.226V698.357H229.175L229.77 704.899ZM228.637 712.631L226.399 712.688C226.399 710.346 226.683 708.26 227.249 706.429C227.815 704.578 228.618 703.011 229.656 701.728C230.695 700.444 231.931 699.471 233.366 698.811C234.82 698.131 236.434 697.791 238.209 697.791C239.625 697.791 240.918 697.999 242.089 698.414C243.278 698.829 244.298 699.5 245.147 700.425C246.016 701.35 246.677 702.577 247.13 704.106C247.602 705.617 247.838 707.486 247.838 709.714V729H238.237V709.686C238.237 708.458 238.067 707.524 237.728 706.882C237.388 706.221 236.897 705.768 236.255 705.522C235.613 705.277 234.829 705.154 233.904 705.154C232.923 705.154 232.092 705.343 231.412 705.721C230.732 706.098 230.185 706.627 229.77 707.307C229.373 707.967 229.08 708.751 228.892 709.657C228.722 710.563 228.637 711.555 228.637 712.631ZM270.749 721.977V685.5H280.35V729H271.74L270.749 721.977ZM251.944 714.047V713.452C251.944 711.13 252.199 709.015 252.709 707.108C253.219 705.183 253.974 703.531 254.975 702.152C255.975 700.755 257.221 699.679 258.713 698.924C260.204 698.169 261.923 697.791 263.867 697.791C265.604 697.791 267.124 698.197 268.427 699.009C269.729 699.802 270.843 700.916 271.769 702.351C272.694 703.785 273.449 705.466 274.034 707.392C274.619 709.299 275.063 711.356 275.365 713.565V714.273C275.063 716.35 274.619 718.314 274.034 720.164C273.449 721.995 272.694 723.619 271.769 725.035C270.843 726.451 269.72 727.565 268.398 728.377C267.096 729.17 265.566 729.566 263.811 729.566C261.866 729.566 260.148 729.179 258.656 728.405C257.184 727.631 255.947 726.546 254.946 725.148C253.965 723.751 253.219 722.109 252.709 720.221C252.199 718.333 251.944 716.275 251.944 714.047ZM261.488 713.452V714.047C261.488 715.199 261.564 716.265 261.715 717.247C261.866 718.229 262.121 719.097 262.479 719.853C262.857 720.589 263.348 721.165 263.952 721.58C264.575 721.995 265.34 722.203 266.246 722.203C267.473 722.203 268.483 721.91 269.276 721.325C270.088 720.74 270.683 719.909 271.061 718.833C271.457 717.757 271.627 716.492 271.57 715.038V712.801C271.608 711.555 271.523 710.46 271.315 709.516C271.108 708.553 270.777 707.75 270.324 707.108C269.89 706.466 269.333 705.985 268.653 705.664C267.993 705.324 267.209 705.154 266.303 705.154C265.415 705.154 264.66 705.362 264.037 705.777C263.433 706.193 262.942 706.778 262.564 707.533C262.187 708.27 261.913 709.147 261.743 710.167C261.573 711.168 261.488 712.263 261.488 713.452ZM295.841 698.357V729H286.269V698.357H295.841ZM285.702 690.456C285.702 689.097 286.193 687.983 287.175 687.114C288.157 686.246 289.431 685.812 290.998 685.812C292.565 685.812 293.84 686.246 294.821 687.114C295.803 687.983 296.294 689.097 296.294 690.456C296.294 691.815 295.803 692.929 294.821 693.798C293.84 694.666 292.565 695.101 290.998 695.101C289.431 695.101 288.157 694.666 287.175 693.798C286.193 692.929 285.702 691.815 285.702 690.456ZM317.647 721.297V708.666C317.647 707.798 317.525 707.052 317.279 706.429C317.034 705.806 316.647 705.324 316.118 704.984C315.59 704.626 314.882 704.446 313.994 704.446C313.277 704.446 312.663 704.569 312.153 704.814C311.644 705.06 311.257 705.428 310.992 705.919C310.728 706.41 310.596 707.033 310.596 707.788H301.052C301.052 706.372 301.363 705.06 301.986 703.852C302.628 702.624 303.535 701.558 304.705 700.651C305.895 699.745 307.311 699.047 308.953 698.556C310.615 698.046 312.465 697.791 314.504 697.791C316.939 697.791 319.111 698.197 321.018 699.009C322.943 699.821 324.463 701.038 325.577 702.662C326.691 704.267 327.248 706.287 327.248 708.723V721.269C327.248 723.27 327.361 724.79 327.588 725.828C327.814 726.848 328.135 727.744 328.551 728.519V729H318.979C318.525 728.056 318.186 726.904 317.959 725.545C317.751 724.167 317.647 722.751 317.647 721.297ZM318.809 710.28L318.865 715.378H314.646C313.758 715.378 313.003 715.501 312.38 715.746C311.776 715.992 311.285 716.331 310.907 716.766C310.549 717.181 310.284 717.653 310.114 718.182C309.963 718.71 309.888 719.267 309.888 719.853C309.888 720.419 310.02 720.929 310.284 721.382C310.567 721.816 310.945 722.156 311.417 722.401C311.889 722.647 312.418 722.77 313.003 722.77C314.06 722.77 314.957 722.571 315.693 722.175C316.449 721.759 317.024 721.259 317.421 720.674C317.817 720.089 318.016 719.541 318.016 719.031L320.111 722.939C319.734 723.695 319.299 724.459 318.809 725.233C318.337 726.007 317.742 726.725 317.024 727.386C316.326 728.028 315.467 728.556 314.447 728.972C313.428 729.368 312.191 729.566 310.737 729.566C308.849 729.566 307.112 729.179 305.526 728.405C303.959 727.631 302.704 726.555 301.76 725.177C300.816 723.78 300.344 722.175 300.344 720.362C300.344 718.776 300.627 717.36 301.193 716.114C301.779 714.868 302.657 713.811 303.827 712.942C304.998 712.074 306.489 711.413 308.302 710.96C310.114 710.507 312.248 710.28 314.702 710.28H318.809Z" fill="#1C4670"/>
</svg>
