<svg width="1080" height="983" viewBox="0 0 1080 983" fill="none" xmlns="http://www.w3.org/2000/svg">
<rect width="1080" height="983" fill="white"/>
<path d="M271.045 521.236C268.586 521.084 250.797 528.428 248.973 527.882C232.929 523.077 198.253 465.141 198.253 465.141C164.299 466.784 157.74 500.921 157.74 500.921C157.74 500.921 195.402 544.051 219.928 564.189C222.045 565.926 224.591 567.038 227.24 568.2C268.117 586.162 271.045 521.236 271.045 521.236Z" fill="#332C24"/>
<path d="M255.467 528.902C253.006 528.748 250.797 528.431 248.973 527.885C235.46 523.837 208.729 482.105 200.635 469.037L200.731 468.895C199.699 462.138 186.578 451.156 186.578 451.156C190.89 457.817 193.534 470.723 194.564 477.48L194.468 477.619C202.567 490.687 229.293 532.42 242.806 536.47C244.63 537.016 246.841 537.336 249.302 537.488L255.467 528.902Z" fill="#3F372E"/>
<path d="M244.387 466.218C244.387 466.218 239.378 512.285 229.074 525.488C228.983 525.603 228.882 525.716 228.783 525.829L254.029 564.672C279.703 546.941 272.297 471.418 272.297 471.418C256.353 443.656 244.387 466.218 244.387 466.218Z" fill="#332C24"/>
<path d="M244.386 466.218C244.386 466.218 239.377 512.285 229.073 525.488C228.987 525.598 228.871 525.709 228.777 525.82L234.538 534.684C234.634 534.573 234.749 534.463 234.836 534.352C245.139 521.149 250.149 475.083 250.149 475.083C250.149 475.083 259.353 457.741 272.368 472.188C272.322 471.693 272.298 471.418 272.298 471.418C256.352 443.656 244.386 466.218 244.386 466.218Z" fill="#3F372E"/>
<path d="M267.418 468.062C266.908 474.541 265.195 478.969 259.208 479.32C257.32 479.431 251.189 480.143 249.225 477.816C246.978 475.225 246.345 473.384 245.748 469.339C245.448 464.267 250.058 459.866 256.04 459.515C262.026 459.161 267.12 462.987 267.418 468.062Z" fill="#DCE5E3"/>
<path d="M246.28 463.882C246.28 463.882 234.865 449.093 240.313 435.174C240.313 435.174 241.415 431.071 243.653 433.03C247.464 437.929 246.037 448.275 252.137 452.671C257.12 456.261 265.669 450.208 263.148 468.314C262.856 468.699 262.57 469.084 262.255 469.464C251.745 477.198 247.712 467.787 246.28 463.882Z" fill="#FFA587"/>
<path d="M233.614 964.561C221.287 968.649 194.179 969.109 151.83 965.203C116.82 974.385 32 958.654 32 953.394C32 948.134 72.816 943.875 123.165 943.875C173.515 943.875 233.614 959.306 233.614 964.561Z" fill="#DABEC6"/>
<path d="M108.381 934.617C112.885 931.258 114.103 935.315 114.098 936.094C114.072 939.658 113.581 944.567 114.464 946.374C116.389 950.317 124.904 951.205 133.858 954.249C138.716 954.471 147.835 952.688 150.691 954.906C153.805 957.336 154.801 961.689 151.56 963.97C132.135 969.047 83.429 961.213 83.429 961.213C83.429 961.213 86.1625 959.208 83.5349 954.042C82.0214 950.358 81.0517 941.86 84.7885 936.371C89.9017 932.42 100.908 934.733 108.381 934.617Z" fill="#332C24"/>
<path d="M108.961 916.377C107.82 923.062 106.564 933.225 106.477 938.447C103.111 943.608 101.237 943.187 96.191 943.603C96.191 943.603 87.4469 943.302 86.956 937.246C86.9969 934.797 85.8757 925.032 85.6543 915.93L108.961 916.377Z" fill="#282119"/>
<path d="M152.943 962.245C152.609 962.921 152.515 964.037 151.755 965.108C128.323 967.942 83.4289 961.232 83.4289 961.232C83.4289 961.232 83.2821 959.41 83.4915 954.234C98.8213 963.982 145.79 962.514 152.943 962.245Z" fill="#282119"/>
<path d="M190.186 934.625C194.693 931.266 195.91 935.323 195.905 936.102C195.879 939.666 195.388 944.574 196.271 946.382C198.196 950.325 206.711 951.213 215.662 954.257C220.521 954.478 229.645 952.695 232.496 954.914C235.61 957.344 236.606 961.697 233.365 963.978C213.937 969.055 165.236 961.22 165.236 961.22C165.236 961.22 167.967 959.216 165.34 954.05C163.826 950.366 162.856 941.867 166.593 936.379C171.709 932.428 182.712 934.74 190.186 934.625Z" fill="#332C24"/>
<path d="M190.773 916.369C189.632 923.054 188.376 933.218 188.287 938.439C184.923 943.6 183.046 943.179 178.003 943.595C178.003 943.595 169.259 943.295 168.768 937.238C168.809 934.789 167.688 925.024 167.469 915.922L190.773 916.369Z" fill="#282119"/>
<path d="M177.289 931.005C177.313 931.005 177.335 931.005 177.357 931.005C184.099 930.618 194.205 928.888 194.385 917.766C195.061 875.769 199.725 806.368 200.487 798.365C201.642 786.257 198.712 691.032 197.785 662.136C197.429 651.02 188.11 642.28 177.003 642.644C165.882 643.002 151.105 650.907 151.461 662.028C153.312 719.709 160.992 786.687 160.371 794.599C159.212 806.757 164.363 907.381 164.183 918.664C164.602 927.776 171.866 930.305 177.289 931.005Z" fill="#332C24"/>
<path d="M162.486 694.15C162.486 694.15 150.792 687.028 125.938 698.638C93.2598 705.767 121.362 648.385 121.362 648.385L174.461 646.32C174.461 646.32 192.031 679.201 162.486 694.15Z" fill="#332C24"/>
<path d="M181.67 926.923C182.372 883.492 187.081 811.715 187.851 803.438C189.013 790.914 186.143 692.443 185.238 662.563C184.968 653.689 179.357 646.283 171.703 643.545C173.383 643.032 175.161 642.72 177.002 642.659C188.108 642.296 197.428 651.033 197.784 662.152C198.71 691.05 201.643 786.272 200.486 798.38C199.723 806.383 195.06 875.785 194.384 917.782C194.247 926.363 188.835 929.563 181.265 930.504C181.508 929.421 181.65 928.234 181.67 926.923Z" fill="#282119"/>
<path d="M101.139 931.575C106.897 930.988 114.017 929.626 115.314 918.965C120.394 877.239 129.501 813.752 131.056 805.821C131.662 802.739 140.459 783.316 144.78 668.139C145.197 657.018 130.05 648.043 118.914 647.651C107.795 647.235 93.56 654.03 93.1437 665.146C90.9637 723.251 92.8093 789.979 91.4931 798.174C89.0941 810.624 81.3751 905.201 80.0156 916.366C82.7924 923.363 89.816 931.881 101.139 931.575Z" fill="#332C24"/>
<path d="M126.328 664.944C123.852 727.637 117.676 795.383 116.314 804.225C114.694 813.073 106.234 889.048 99.8579 931.539C89.2875 931.19 82.6802 923.083 80.0117 916.358C81.3712 905.193 89.0902 810.616 91.4892 798.167C92.8054 789.971 90.9598 723.243 93.1398 665.138C93.5561 654.022 107.791 647.227 118.91 647.643C122.647 647.778 126.105 648.921 129.035 650.807C123.034 654.397 126.641 657.042 126.328 664.944Z" fill="#3F372E"/>
<path d="M92.6348 678.401C92.808 673.961 92.9788 669.534 93.1425 665.143C93.5587 654.026 107.794 647.231 118.913 647.647C120.453 647.7 122.07 647.926 123.711 648.29L164.823 646.692C168.352 644.279 172.611 642.801 176.998 642.659C188.105 642.296 197.424 651.033 197.78 662.152C197.932 666.88 198.136 673.384 198.37 680.997C186.789 686.303 177.469 687.364 157.238 687.229C127.741 687.034 101.937 680.92 92.6348 678.401Z" fill="#282119"/>
<path d="M71.8164 672.024L77.1413 509.102L78.2626 465.025C83.0436 460.141 92.7165 451.194 100.106 448.302L143.593 432.891L190.419 450.802C200.612 456.466 205.838 484.539 206.149 492.708L216.666 660.267C207.087 669.514 180.092 677.06 159.327 678.114C118.641 680.183 71.8332 672.534 71.8164 672.024Z" fill="#332C24"/>
<path d="M85.1972 475.336H78.0003L77.1413 509.095L71.8164 672.017C71.8332 672.455 87.009 674.556 88.4888 674.65C88.4888 674.65 82.4469 558.77 92.8392 509.547C92.536 501.903 88.3565 486.231 85.1972 475.336Z" fill="#3F372E"/>
<path d="M148.086 560.769L133.067 495.396L115.742 442.831L143.591 432.891L172.482 440.655L165.521 507.102L148.086 560.769Z" fill="#DCE5E3"/>
<path d="M153.609 474.317C153.609 474.317 160.156 491.209 165.796 516.11L148.814 566.13L144.918 509.303C144.918 509.303 147.837 486.971 147.762 475.398C154.035 470.91 152.319 472.465 153.609 474.317Z" fill="#FFA229"/>
<path d="M144.594 473.811C144.741 474.956 148.898 479.249 150.044 479.102L154.351 478.551C155.496 478.404 158.049 473.327 157.902 472.184L155.032 464.828C154.283 463.103 153.838 462.875 152.695 463.021L147.688 463.661C146.543 463.808 146.266 464.72 145.881 466L144.594 473.811Z" fill="#FFA229"/>
<path d="M154.687 576.351C153.164 585.454 156.39 573.765 151.236 574.912C151.236 574.912 168.821 477.688 168.874 472.404C169.109 448.6 155.767 433.422 155.767 433.422C174.442 437.796 177.986 448.636 180.784 458.112C180.784 458.112 186.588 479.977 184.831 482.176C182.505 485.085 172.428 485.715 172.428 485.715C172.428 485.715 178.556 497.448 179.061 502.258C174.716 525.41 154.687 576.351 154.687 576.351Z" fill="#3F372E"/>
<path d="M158.297 598.017C159.245 600.531 159.408 599.559 161.54 598.568C161.54 598.568 161.625 519.048 140.905 491.579C127.154 473.353 126.521 437.522 126.521 437.522C110.789 436.204 109.591 459.719 110.741 464.876C110.741 464.876 118.835 494.443 121.362 495.684C124.704 497.33 132.368 494.657 132.368 494.657C132.368 494.657 125.267 509.801 126.858 514.371C137.649 530.309 158.297 598.017 158.297 598.017Z" fill="#494036"/>
<path d="M127.092 445.894C130.245 458.125 138.503 457.824 143.924 457.875C154.376 457.976 163.344 455.389 162.971 445.586L161.977 419.366C161.607 409.563 152.836 401.938 142.391 402.333C131.946 402.728 123.649 398.651 124.02 408.454L127.092 445.894Z" fill="#E8836A"/>
<path d="M131.815 297.776C131.855 296.922 131.593 295.875 130.436 294.929C128.145 293.057 121.762 293.56 127.664 290.721C133.566 287.884 140.217 294.426 140.217 294.426C143.282 292.612 149.081 290.432 151.343 291.522C152.869 292.256 148.884 294.499 146.114 295.889L163.092 294.691C186.257 293.815 184.375 313.387 185.251 336.552L186.512 369.836C187.39 392.998 169.322 412.491 146.158 413.366C122.993 414.245 103.503 396.179 102.625 373.015L101.364 339.73C100.621 319.999 113.626 302.94 131.815 297.776Z" fill="#681829"/>
<path d="M125.635 293.018C124.848 292.576 125.043 291.974 127.663 290.716C128.118 290.497 128.583 290.35 129.045 290.234C127.856 291.103 126.723 292.037 125.635 293.018Z" fill="#540E21"/>
<path d="M115.611 306.641C112.948 312.435 111.533 318.91 111.793 325.719L113.053 359.004C113.932 382.168 133.419 400.236 156.584 399.358C166.627 398.978 175.708 395.097 182.705 388.937C176.302 402.842 162.503 412.736 146.16 413.355C122.996 414.233 103.506 396.167 102.627 373.003L101.367 339.718C100.869 326.597 106.473 314.687 115.611 306.641Z" fill="#540E21"/>
<path d="M112.61 349.47C113.621 349.431 114.609 349.535 115.574 349.756C125.577 334.265 143.712 309.455 160.495 308.82C183.657 307.942 203.15 326.007 204.028 349.174L202.575 407.837C202.038 421.273 188.744 443.063 165.568 442.688C146.217 442.377 132.824 433.737 122.343 410.426C119.383 403.835 120.156 401.862 116.513 389.812C115.748 390.009 114.966 390.149 114.157 390.178C105.87 390.493 98.8081 381.633 98.3822 370.392C97.9491 359.15 104.321 349.785 112.61 349.47Z" fill="#F2967F"/>
<path d="M204.024 349.157L203.547 406.042C203.066 418.126 191.892 438.581 172.342 442.111C154.94 440.792 143.037 434.483 133.229 412.669C132.476 410.991 132.149 410.756 131.331 408.256C124.237 386.571 127.861 330.505 127.861 330.505C137.594 319.525 152.486 311.128 165.794 308.945C186.56 310.767 203.215 327.786 204.024 349.157Z" fill="#FFA587"/>
<path d="M167.458 378.365C167.458 382.663 164.821 386.144 161.563 386.144C158.309 386.144 155.67 382.663 155.67 378.365C155.67 374.068 158.307 370.586 161.563 370.586C164.821 370.586 167.458 374.068 167.458 378.365Z" fill="#540E21"/>
<path d="M165.895 378.446C165.895 380.747 164.484 382.611 162.742 382.611C160.998 382.611 163.272 381.141 163.272 378.839C163.272 376.541 160.998 374.281 162.742 374.281C164.484 374.281 165.895 376.146 165.895 378.446Z" fill="#681829"/>
<path d="M194.153 378.365C194.153 382.663 191.514 386.144 188.258 386.144C185.002 386.144 182.365 382.663 182.365 378.365C182.365 374.068 185.002 370.586 188.258 370.586C191.514 370.586 194.153 374.068 194.153 378.365Z" fill="#540E21"/>
<path d="M192.589 378.446C192.589 380.747 191.179 382.611 189.437 382.611C187.695 382.611 189.966 381.141 189.966 378.839C189.966 376.541 187.695 374.281 189.437 374.281C191.179 374.281 192.589 376.146 192.589 378.446Z" fill="#681829"/>
<path d="M166.37 362.43C166.422 363.992 165.198 365.298 163.639 365.351L153.27 365.695C151.709 365.746 150.405 364.524 150.349 362.962C150.299 361.403 151.523 360.094 153.083 360.041L163.448 359.697C165.012 359.646 166.319 360.871 166.37 362.43Z" fill="#540E21"/>
<path d="M194.252 362.963C194.194 364.522 192.88 365.742 191.321 365.685L180.955 365.297C179.396 365.237 178.179 363.926 178.236 362.364C178.294 360.802 179.605 359.585 181.167 359.643L191.53 360.03C193.092 360.088 194.31 361.401 194.252 362.963Z" fill="#540E21"/>
<path d="M157.44 410.665C157.44 410.665 172.642 405.636 189.848 409.645C189.848 409.645 190.955 424.787 177.514 426.382C171.184 427.128 157.163 426.144 157.44 410.665Z" fill="#F1544C"/>
<path d="M165.867 411.25C162.816 411.25 159.972 411.871 157.529 412.932C158.622 426.214 171.514 427.085 177.515 426.375C179.211 426.173 180.672 425.754 181.935 425.182C182.089 424.52 182.188 423.846 182.188 423.153C182.19 416.58 174.883 411.25 165.867 411.25Z" fill="#D13B37"/>
<path d="M177.638 396.211C177.956 398.256 176.25 399.981 174.537 399.981H172.6C170.886 399.981 169.498 398.292 169.498 396.211V384.267C169.498 382.183 170.198 380.742 171.697 381.752C174.744 383.817 176.996 392.068 177.638 396.211Z" fill="#F2967F"/>
<path d="M157.44 410.665C157.404 412.59 157.594 414.289 157.957 415.79C161.376 414.782 171.61 412.65 189.192 415.855C190.053 412.498 189.846 409.645 189.846 409.645C172.642 405.636 157.44 410.665 157.44 410.665Z" fill="#DCE5E3"/>
<path d="M183.291 396.221C182.648 392.078 180.394 383.827 177.345 381.765C176.573 381.243 176.017 381.382 175.653 381.919C178.603 384.19 180.779 392.165 181.407 396.221C173.269 394.73 175.442 399.994 173.729 399.994H180.189C181.9 399.994 183.606 398.267 183.291 396.221Z" fill="#F2967F"/>
<path d="M118.34 364.336C120.599 378.333 131.146 379.315 131.817 372.885C132.041 368.434 130.64 363.487 131.379 354.435C169.613 351.942 182.176 329.514 182.176 329.514C187.277 328.45 186.851 340.226 191.43 343.799C199.556 350.14 204.147 348.369 204.147 348.369C208.548 317.365 193.896 293.703 164.486 294.819C141.179 295.7 114.836 305.981 112.572 337.115C115.91 339.211 115.765 343.092 115.532 348.191C115.717 353.809 117.182 357.953 118.34 364.336Z" fill="#681829"/>
<path d="M235.013 961.9C234.855 962.653 234.33 964.032 233.57 965.1C210.138 967.935 165.244 961.224 165.244 961.224C165.244 961.224 165.097 959.402 165.304 954.227C180.634 963.974 227.86 962.162 235.013 961.9Z" fill="#282119"/>
<path d="M76.4363 530.658L71.8164 672.019C71.8164 672.043 71.9536 672.086 72.1581 672.144L76.7852 530.586C76.6745 530.61 76.5494 530.634 76.4363 530.658Z" fill="#3F372E"/>
<path d="M240.72 408.057C242.765 416.943 239.69 425.235 233.852 426.577C228.015 427.92 221.624 421.808 219.581 412.922C217.534 404.039 220.609 395.747 226.449 394.404C232.288 393.059 238.677 399.173 240.72 408.057Z" fill="#DCE5E3"/>
<path d="M223.926 393.483C223.926 393.483 218.565 408.935 230.548 424.388C230.548 424.388 234.646 429.749 240.324 429.749C245.998 429.749 246.316 427.227 246.316 427.227C246.316 427.227 305.289 419.659 313.171 417.766L290.149 355.641L232.126 388.754C232.126 388.754 224.874 387.489 223.926 393.483Z" fill="#DCE5E3"/>
<path d="M233.113 411.506C227.398 398.888 232.126 388.743 232.126 388.743C232.126 388.743 224.872 387.483 223.926 393.474C223.926 393.474 218.565 408.926 230.548 424.379C230.548 424.379 234.646 429.74 240.324 429.74C246 429.74 246.316 427.218 246.316 427.218C246.316 427.218 238.455 423.301 233.113 411.506Z" fill="#FFA229"/>
<path d="M325.711 380.147C329.931 398.485 323.586 415.595 311.538 418.367C299.49 421.139 286.305 408.523 282.084 390.186C277.866 371.851 284.211 354.74 296.261 351.968C308.304 349.194 321.493 361.812 325.711 380.147Z" fill="#DCBDC8"/>
<path d="M321.943 381.023C318.454 365.857 307.547 355.421 297.583 357.714C294.657 358.388 292.152 360.106 290.141 362.551C296.813 365.922 302.696 374.093 305.088 384.493C307.554 395.208 305.641 405.393 300.807 411.271C303.866 412.818 307.09 413.357 310.223 412.635C320.184 410.345 325.435 396.192 321.943 381.023Z" fill="#DD8F29"/>
<path d="M305.084 384.489C302.692 374.089 296.809 365.918 290.137 362.547C285.298 368.425 283.39 378.611 285.854 389.323C288.248 399.722 294.128 407.896 300.801 411.267C305.64 405.389 307.55 395.204 305.084 384.489Z" fill="#FFA229"/>
<path d="M323.474 377.405C324.347 381.21 323.274 384.703 321.072 385.209C318.873 385.714 316.38 383.038 315.507 379.234C314.633 375.428 315.709 371.934 317.908 371.428C320.107 370.923 322.598 373.599 323.474 377.405Z" fill="#F1544C"/>
<path d="M321.023 377.834C320.623 376.09 319.807 374.658 318.855 373.782C318.405 373.373 317.928 373.072 317.447 372.938C316.133 373.874 315.568 376.366 316.186 379.059C316.776 381.624 318.251 383.544 319.764 383.958C320.291 383.582 320.691 382.947 320.95 382.156C321.331 380.977 321.393 379.444 321.023 377.834Z" fill="#D13B37"/>
<path d="M230.546 424.393C228.903 422.275 227.599 420.16 226.55 418.084C224.091 417.463 222.045 416.643 220.445 415.844C222.914 422.653 227.994 427.177 232.883 426.729C231.41 425.514 230.546 424.393 230.546 424.393Z" fill="#E0C7D1"/>
<path d="M287.875 404.625C268.513 410.941 248.32 417.221 240.731 418.55C240.531 418.583 240.337 418.617 240.156 418.646C239.227 418.79 238.32 418.894 237.439 418.963C238.164 419.95 238.888 420.828 239.593 421.62C243.219 425.681 246.316 427.229 246.316 427.229C246.316 427.229 291.177 421.471 307.868 418.744C300.498 418.6 293.092 413.181 287.875 404.625Z" fill="#E0C7D1"/>
<path d="M239.59 421.618C238.888 420.828 238.163 419.948 237.437 418.961C233.224 419.298 229.581 418.846 226.549 418.078C227.598 420.155 228.904 422.27 230.546 424.387C230.546 424.387 231.409 425.508 232.882 426.726C234.631 428.17 237.242 429.748 240.319 429.748C245.996 429.748 246.311 427.226 246.311 427.226C246.311 427.226 243.216 425.682 239.59 421.618Z" fill="#DD8F29"/>
<path d="M240.718 408.057C239.154 401.258 235.042 396.092 230.578 394.641C229.991 398.801 230.068 404.795 233.109 411.513C234.45 414.47 235.946 416.929 237.438 418.96C238.321 418.89 239.226 418.787 240.155 418.642C240.335 418.613 240.533 418.58 240.73 418.546C241.524 415.478 241.586 411.826 240.718 408.057Z" fill="#DCE5E3"/>
<path d="M315.907 383.859L315.782 383.9C315.782 383.9 298.222 391.59 293.479 392.103C288.737 392.615 287.043 388.66 287.043 388.66C289.134 395.498 294.035 400.063 297.989 398.852C298.602 398.665 299.148 398.337 299.639 397.911L321.471 387.488C319.524 387.858 317.423 386.381 315.907 383.859Z" fill="#E0C7D1"/>
<path d="M322.778 381.671C322.499 382.651 322.018 383.418 321.356 383.798C321.18 383.902 321 383.989 320.8 384.034C320.458 384.111 320.109 384.07 319.763 383.977C319.267 383.842 318.779 383.531 318.322 383.103L315.908 383.875C317.424 386.397 319.525 387.875 321.471 387.506C321.512 387.499 321.553 387.499 321.594 387.492C323.76 386.994 325.105 384.316 325.186 380.906L322.778 381.671Z" fill="#DD8F29"/>
<path d="M320.948 382.171C321.331 380.995 321.393 379.462 321.023 377.85C320.623 376.105 319.808 374.674 318.855 373.798C318.405 373.389 317.928 373.088 317.447 372.953C316.133 373.889 315.568 376.382 316.186 379.074C316.583 380.8 317.382 382.219 318.323 383.098L320.912 382.267C320.919 382.236 320.934 382.207 320.948 382.171Z" fill="#D13B37"/>
<path d="M293.482 392.099C298.225 391.586 315.785 383.896 315.785 383.896L315.91 383.855C315.169 382.628 314.567 381.153 314.192 379.519C313.112 374.815 314.271 370.472 316.791 369.344L291.345 373.92C291.03 373.947 290.72 373.995 290.416 374.086C286.461 375.297 284.954 381.82 287.045 388.658C287.045 388.658 288.737 392.612 293.482 392.099Z" fill="#DCE5E3"/>
<path d="M324.786 377.094C323.624 372.031 320.311 368.472 317.382 369.144C317.175 369.192 316.978 369.262 316.788 369.348C314.269 370.479 313.109 374.82 314.189 379.524C314.565 381.16 315.169 382.633 315.907 383.86L318.321 383.088C317.382 382.207 316.581 380.79 316.184 379.064C315.566 376.372 316.133 373.877 317.445 372.943C317.669 372.784 317.907 372.657 318.174 372.594C318.299 372.565 318.424 372.58 318.552 372.575C320.274 372.51 322.115 374.608 322.791 377.549C323.14 379.067 323.102 380.513 322.777 381.661L325.183 380.891C325.214 379.697 325.089 378.41 324.786 377.094Z" fill="#FFA229"/>
<path d="M322.792 377.553C322.116 374.61 320.277 372.515 318.552 372.58C318.427 372.584 318.302 372.57 318.174 372.599C317.91 372.659 317.669 372.787 317.445 372.948C317.929 373.08 318.405 373.381 318.853 373.792C319.806 374.671 320.619 376.102 321.021 377.844C321.391 379.456 321.329 380.989 320.946 382.166C320.934 382.199 320.92 382.228 320.905 382.264C320.648 383.008 320.263 383.61 319.758 383.968C320.107 384.064 320.453 384.105 320.795 384.026C320.994 383.98 321.175 383.893 321.351 383.79C322.012 383.41 322.496 382.642 322.773 381.663C323.102 380.515 323.141 379.071 322.792 377.553Z" fill="#DCE5E3"/>
<path d="M248.879 426.815C248.879 426.815 250.635 422.926 255.402 422.549C260.171 422.173 263.181 423.177 262.678 424.433C262.178 425.686 257.786 439.741 259.418 447.017C260.166 450.362 261.181 452.643 262.06 454.137C262.863 455.504 262.226 457.246 260.727 457.763C257.05 459.031 251.244 460.638 249.004 459.062C245.616 456.68 248.879 426.815 248.879 426.815Z" fill="#DCBDC8"/>
<path d="M257.132 427.258C257.132 427.258 265.919 425.549 267.873 430.674C269.825 435.8 265.186 439.462 265.186 439.462C265.186 439.462 267.628 442.39 266.162 446.052C266.162 446.052 266.896 447.272 265.674 450.203C264.454 453.131 267.873 454.597 263.966 455.571C262.344 455.978 260.301 456.004 258.467 455.896C255.031 455.694 252.24 452.778 252.582 449.356C252.661 448.555 252.924 447.883 253.472 447.518C253.472 447.518 250.542 444.832 253.718 441.659C256.891 438.485 250.58 439.782 254.692 434.825C255.679 433.636 250.298 433.362 251.275 430.431C252.25 427.501 257.132 427.258 257.132 427.258Z" fill="#FFA587"/>
<path d="M246.283 463.877C246.283 463.877 234.676 448.739 236.63 442.149C238.584 435.558 238.829 431.898 244.197 431.41C249.565 430.921 251.519 432.141 255.181 430.19C258.844 428.239 256.89 438.977 253.473 439.22C250.056 439.466 247.859 442.149 249.079 445.322C250.299 448.496 245.417 457.038 250.054 462.409C254.691 467.777 246.283 463.877 246.283 463.877Z" fill="#F2967F"/>
<path d="M373.852 271.375L326.551 307.651L338.645 307.294L309.838 333.257L354.648 302.314L341.133 303.028L373.852 271.375Z" fill="white"/>
<path d="M337.934 405.8L369.587 418.957L364.252 410.778L400.172 421.093L353.583 401.531L359.274 411.132L337.934 405.8Z" fill="white"/>
<path d="M329.045 357.083L358.92 328.986L355.364 341.079L397.686 313.336L350.029 351.036L350.385 342.145L329.045 357.083Z" fill="white"/>
<path d="M340.066 374.511L369.229 368.82L360.695 374.511L409.417 377.714L350.735 380.558L356.782 374.867L340.066 374.511Z" fill="white"/>
<path d="M299.168 332.199L310.55 298.414L302.015 307.661L305.927 277.43L295.256 316.196L302.371 311.929L299.168 332.199Z" fill="white"/>
<path d="M329.045 420.391L350.029 441.016L350.385 433.191L369.945 452.042L353.229 440.663L354.298 453.466L329.045 420.391Z" fill="white"/>
<path d="M111.904 631.406C111.904 631.406 118.023 633.81 119.773 633.81C121.522 633.81 122.395 637.09 119.118 637.309C115.838 637.528 111.904 631.406 111.904 631.406Z" fill="#F2967F"/>
<path d="M91.363 623.758C91.363 623.758 95.7807 626.705 98.3024 627.331C100.826 627.964 110.713 628.594 113.868 631.118C117.023 633.64 127.328 640.582 127.749 643.318C128.17 646.053 123.757 645.531 121.65 643.739C111.551 635.139 110.081 640.161 110.081 640.161C110.081 640.161 118.493 648.154 119.123 650.048C119.756 651.941 118.704 653.414 115.969 652.362C113.233 651.309 104.188 643.739 104.188 643.739C104.188 643.739 112.812 654.675 111.551 656.357C110.29 658.041 107.975 657.199 106.712 655.724C105.451 654.251 99.1422 647.312 99.1422 647.312C99.1422 647.312 105.872 657.408 105.03 658.462C104.188 659.516 101.666 660.356 99.7726 656.778C97.8789 653.202 93.2518 647.521 93.2518 647.521C93.2518 647.521 83.9977 643.948 81.6829 639.951C79.3706 635.955 76.6348 631.537 76.6348 631.537L91.363 623.758Z" fill="#FFA587"/>
<path d="M61.5391 623.509L70.4347 633.343C70.4347 633.343 82.6076 636.151 91.97 623.045L85.4156 613.68L61.5391 623.509Z" fill="#DCE5E3"/>
<path d="M78.2638 465.023C78.2638 465.023 22.7941 527.418 18.6675 552.18C14.5409 576.942 59.9384 627.501 59.9384 627.501C59.9384 627.501 82.6383 625.439 87.7971 613.056C87.7971 613.056 53.7497 558.371 57.8763 556.307C62.0029 554.242 98.1148 525.354 98.1148 508.845C98.1148 492.336 91.4304 466.599 78.2638 465.023Z" fill="#332C24"/>
<path d="M28.7702 553.294C31.5589 534.966 73.6599 484.114 86.1456 469.364C83.8453 466.956 81.2201 465.377 78.2677 465.023C78.2677 465.023 22.798 527.418 18.6714 552.18C14.5448 576.942 59.9423 627.501 59.9423 627.501C59.9423 627.501 63.2435 627.198 67.6132 626.141C56.2536 611.533 26.1065 570.804 28.7702 553.294Z" fill="#3F372E"/>
<path d="M114.943 443.047C114.943 443.047 100.273 451.413 95.1138 457.717C89.9573 464.022 85.7176 469.753 85.7176 469.753L78.0371 465.398C78.0371 465.398 90.761 451.3 97.9795 448.203C105.2 445.111 114.943 443.047 114.943 443.047Z" fill="#3F372E"/>
<path d="M840.031 963.868C856.656 969.448 857.772 968.084 900.823 964.113C926.502 975.779 1030.71 958.293 1030.71 952.949C1030.71 947.605 1001.95 943.938 950.761 943.938C899.582 943.935 840.031 958.521 840.031 963.868Z" fill="#DABEC6"/>
<path d="M936.993 927.149C931.81 926.418 927.412 931.264 925.395 923.677C927.159 915.494 913.778 810.372 912.602 802.624C912.123 799.472 904.608 779.518 903.229 662.368C903.095 651.059 916.964 642.313 927.019 642.19C937.063 642.036 949.76 649.295 949.895 660.607C950.588 719.7 945.742 787.973 948.471 795.827C958.228 823.931 945.422 897.56 947.713 909.351C945.059 916.391 947.202 927.739 936.993 927.149Z" fill="#FFA587"/>
<path d="M949.893 660.607C949.758 649.295 937.061 642.036 927.017 642.19C916.962 642.313 903.095 651.057 903.228 662.368C904.228 747.542 908.475 781.332 910.901 794.648C922.544 793.981 935.001 791.874 947.682 787.55C947.167 766.091 950.475 710.133 949.893 660.607Z" fill="#F2967F"/>
<path d="M925.613 917.957C925.613 917.957 918.676 932.473 912.728 938.922C906.78 945.378 914.155 951.458 920.546 951.458C926.937 951.458 946.107 938.554 948.087 918.207C950.074 897.863 928.481 910.517 925.613 917.957Z" fill="#FFA587"/>
<path d="M900.042 963.628C900.042 963.628 911.733 968.585 927.256 963.628C935.807 958.91 940.367 953.712 944.347 945.512L946.332 956.927C946.332 956.927 949.857 958.166 950.735 955.44C951.616 952.706 951.837 938.813 951.837 938.813C951.837 938.813 958.892 912.268 947.655 909.039C946.77 915.988 945.892 920.704 940.381 928.89C927.162 950.974 917.078 943.279 912.395 937.819C906.154 947.254 891.396 950.974 899.842 963.378C899.897 963.464 899.972 963.541 900.042 963.628Z" fill="#282119"/>
<path d="M876.955 927.149C871.767 926.418 867.373 931.264 865.352 923.677C867.114 915.494 853.735 810.372 852.559 802.624C852.084 799.472 844.565 779.518 843.186 662.368C843.057 651.059 856.921 642.313 866.979 642.19C877.025 642.036 889.717 649.295 889.852 660.607C890.547 719.7 885.701 787.973 888.427 795.827C898.187 823.931 884.821 896.636 887.672 909.163C885.016 916.201 887.162 927.739 876.955 927.149Z" fill="#FFA587"/>
<path d="M843.329 660.225C843.233 660.928 843.175 661.638 843.182 662.362C844.017 732.974 847.073 768.265 849.479 785.857C856.746 788.376 870.586 792.428 888.043 793.987C886.212 780.498 890.502 716.455 889.845 660.603C889.833 659.518 889.677 658.481 889.444 657.477C887.478 657.237 886.303 657.193 886.303 657.193C865.177 655.261 851.813 657.121 843.329 660.225Z" fill="#F2967F"/>
<path d="M865.568 917.968C865.568 917.968 858.63 932.484 852.685 938.933C846.737 945.388 854.114 951.469 860.502 951.469C866.893 951.469 886.061 938.564 888.046 918.218C893 897.686 868.436 910.528 865.568 917.968Z" fill="#FFA587"/>
<path d="M839.998 963.628C839.998 963.628 851.694 968.585 867.212 963.628C875.763 958.91 880.321 953.712 884.301 945.512L886.286 956.927C886.286 956.927 889.811 958.166 890.691 955.44C891.574 952.706 891.793 938.813 891.793 938.813C891.793 938.813 898.846 912.268 887.607 909.039C886.724 915.988 885.845 920.704 880.335 928.89C867.113 950.974 857.029 943.279 852.354 937.819C846.112 947.254 831.35 950.974 839.793 963.378C839.858 963.464 839.928 963.541 839.998 963.628Z" fill="#282119"/>
<path d="M853.553 621.966C853.553 621.966 829.737 642.809 835.69 695.66C835.69 695.66 846.854 764.14 843.875 771.587C843.875 771.587 899.704 796.147 957.019 771.587C957.019 771.587 960.741 712.78 965.207 697.147C969.671 681.519 980.838 636.115 948.087 611.547C915.337 586.983 852.812 616.013 853.553 621.966Z" fill="#332433"/>
<path d="M928.252 734.107C944.005 680.637 919.813 658.678 919.813 658.678C875.4 638.577 849.844 637.465 837.108 655.548C834.851 666.082 833.853 679.333 835.689 695.64C835.689 695.64 846.853 764.119 843.874 771.567C843.874 771.567 882.263 788.429 928.05 780.193C925.242 770.712 921.9 755.657 928.252 734.107Z" fill="#3C2D3C"/>
<path d="M997.704 668.883L961.166 668.888C960.218 668.888 959.453 669.648 959.453 670.601V691.152C959.453 692.095 960.223 692.86 961.171 692.86H966.089C965.861 692.622 965.714 692.292 965.714 691.91L965.709 676.255C965.709 675.536 966.239 674.951 966.886 674.951H991.985C992.634 674.951 993.157 675.531 993.157 676.25L993.161 691.91C993.161 692.288 993.015 692.622 992.786 692.86H997.704C998.655 692.86 999.42 692.095 999.42 691.15L999.415 670.596C999.415 669.648 998.647 668.883 997.704 668.883Z" fill="#5C2917"/>
<path d="M1061 809.093C1061 810.265 1060.05 811.216 1058.88 811.22L902.203 811.23C901.033 811.23 900.083 810.277 900.078 809.113L904.046 689.123C904.046 687.949 904.999 686.996 906.166 686.996L1052.7 686.984C1053.87 686.984 1054.82 687.935 1054.82 689.107L1061 809.093Z" fill="#5C2917"/>
<path d="M1052.8 692.95L979.122 692.945H979.059H978.999L906.169 692.95C905.002 692.95 904.049 693.903 904.049 695.077L904.051 739.322C904.051 740.494 904.874 741.531 905.866 742.159C916.214 748.689 928.941 759.558 966.362 750.22C973.956 748.937 975.505 757.243 978.999 757.818V757.845C979.023 757.845 979.045 757.838 979.059 757.833C979.086 757.838 979.105 757.845 979.122 757.845V757.818C982.62 757.243 984.172 748.937 991.766 750.22C1029.18 759.56 1042.67 748.689 1053.02 742.159C1054.01 741.531 1054.83 740.496 1054.83 739.322L1054.92 695.077C1054.92 693.901 1053.97 692.95 1052.8 692.95Z" fill="#542213"/>
<path d="M1054.82 689.107C1054.82 687.935 1053.88 686.984 1052.7 686.984H1038.83L1044.62 799.668C1044.62 800.833 1043.67 801.783 1042.5 801.783L900.141 806.827L900.078 809.113C900.083 810.277 901.031 811.23 902.203 811.23L1058.88 811.22C1060.05 811.216 1061 810.265 1061 809.093L1054.82 689.107Z" fill="#542213"/>
<path d="M1052.8 686.992L979.122 686.984H979.059H978.999L906.169 686.992C905.002 686.992 904.049 687.944 904.049 689.119L904.051 733.359C904.051 734.535 904.874 735.575 905.866 736.203C916.214 742.733 928.941 753.599 966.362 744.261C973.956 742.979 975.505 751.285 978.999 751.862V751.889C979.023 751.889 979.045 751.879 979.059 751.877C979.086 751.879 979.105 751.889 979.122 751.889V751.862C982.62 751.285 984.172 742.979 991.766 744.261C1029.18 753.602 1042.67 742.733 1053.02 736.203C1054.01 735.575 1054.83 734.538 1054.83 733.359L1054.92 689.119C1054.92 687.944 1053.97 686.992 1052.8 686.992Z" fill="#7B402B"/>
<path d="M976.682 581.106C972.748 603.799 984.144 615.108 974.748 662.25C974.661 662.813 974.577 663.374 974.48 663.934C974.48 663.934 980.046 674.052 987.534 666.158C991.242 653.304 1000.21 599.523 992.433 577.391C987.907 564.511 978.157 572.603 976.682 581.106Z" fill="#FFA587"/>
<path d="M972.099 580.912C972.099 580.912 971.367 590.79 972.715 592.996C974.062 595.203 988.822 597.883 996.074 588.429C996.074 588.429 995.684 578.201 993.208 575.458C990.73 572.719 972.221 568.626 972.099 580.912Z" fill="#DCE5E3"/>
<path d="M976.347 660.242C976.347 660.242 965.04 659.658 962.615 669.692C962.278 671.09 962.175 675.849 965.254 674.81C967.86 678.279 963.703 683.599 969.932 685.192C979.153 687.55 983.156 683.551 985.471 682.355C990.661 679.67 995.462 669.797 987.011 661.905C978.561 654.018 977.774 653.125 976.347 660.242Z" fill="#FFA587"/>
<path d="M922.781 336.825C917.401 335.863 911.304 334.7 908.219 335.095L890.945 334.099C867.389 333.507 869.557 353.377 868.967 376.934L868.115 410.781C867.523 434.338 886.138 453.912 909.694 454.504C933.251 455.096 952.83 436.477 953.422 412.923L963.927 379.872C964.432 359.802 945.423 329.859 922.781 336.825Z" fill="#681829"/>
<path d="M922.781 336.825C917.401 335.863 911.304 334.7 908.219 335.095L890.945 334.099C867.389 333.507 869.557 353.377 868.967 376.934L868.115 410.781C867.523 434.338 886.138 453.912 909.694 454.504C933.251 455.096 952.83 436.477 953.422 412.923L963.927 379.872C964.432 359.802 945.423 329.859 922.781 336.825Z" fill="#332C24"/>
<path d="M939.422 338.117C942.208 343.971 943.669 358.052 943.49 364.977L942.644 398.825C942.054 422.382 922.477 440.998 898.918 440.406C888.704 440.149 879.426 436.323 872.236 430.151C878.921 444.203 886.916 474.199 903.541 474.615C927.097 475.207 963.375 467.522 963.058 413.556L963.905 379.708C962.88 348.517 941.197 338.839 939.422 338.117Z" fill="#282119"/>
<path d="M904.427 325.538C931.401 324.635 936.064 351.647 937.257 375.182L927.868 410.014C929.062 433.546 911.001 477.738 887.666 474.451C822.276 465.236 836.234 392.105 836.234 392.105C832.851 360.511 852.531 327.275 904.427 325.538Z" fill="#332C24"/>
<path d="M954.699 613.467C939.281 562.533 958.535 545.269 968.908 542.701C971.983 535.512 973.059 514.655 968.85 502.997C962.541 485.504 949.211 485.737 941.643 482.946L901.306 471.406C901.306 471.406 874.116 479.647 867.194 485.494C846.354 503.11 846.354 556.455 857.632 562.815C872.095 578.404 843.981 611.855 852.17 624.1C856.886 631.153 873 636.631 894.124 637.274C935.527 638.54 957.421 625.325 954.699 613.467Z" fill="#3C2D3C"/>
<path d="M968.85 502.997C962.541 485.504 949.21 485.737 941.643 482.946L901.306 471.406C901.306 471.406 897.285 472.284 891.934 473.663L928.76 484.197C936.33 486.989 960.555 493.56 959.992 500.629C964.198 512.29 959.109 536.765 956.027 543.953C945.656 546.52 926.397 563.787 941.823 614.718C943.893 623.739 931.708 633.532 907.55 637.151C940.199 635.522 957.112 623.968 954.701 613.465C939.282 562.531 958.537 545.266 968.91 542.699C971.985 535.512 973.058 514.655 968.85 502.997Z" fill="#332433"/>
<path d="M925.795 502.25C913.442 507.322 900.03 509.471 886.572 507.76L891.048 526.415L894.679 528.72C903.199 533.778 897.908 534.411 904.279 534.861L923.182 512.363L925.795 502.25Z" fill="#DCE5E3"/>
<path d="M913.443 465.617L887.38 475.807L884.16 493.671C893.616 484.227 918.864 487.29 935.486 492.424L940.655 476.041L913.443 465.617Z" fill="#FFA587"/>
<path d="M886.158 483.203L883.078 499.659L893.112 522.383C906.461 524.806 909.705 524.927 922.306 520.523L940.752 483.377C924.128 478.239 902.474 476.947 886.158 483.203Z" fill="#FFA587"/>
<path d="M900.554 468.223C900.554 468.223 885.12 490.055 900.679 532.266C903.475 539.357 898.338 535.938 896.836 534.425C896.836 534.425 881.821 517.894 883.696 508.301C885.57 498.705 872.664 506.022 871.047 497.968C869.427 489.91 878.604 466.202 900.554 468.223Z" fill="#4A4052"/>
<path d="M924.455 464.679C924.455 464.679 937.383 481.929 903.276 532.096C898.04 537.935 904.392 536.321 906.43 535.363C906.43 535.363 931.519 522.945 932.884 513.253C934.243 503.558 944.809 514.588 949.185 507.461C953.562 500.334 942.742 463.606 924.455 464.679Z" fill="#4A4052"/>
<path d="M927.045 473.703C925.402 482.769 916.371 486.148 912.233 486.306C904.259 486.612 902.286 484.538 902.536 474.567L898.32 447.524C898.571 437.555 905.238 429.636 913.215 429.836C921.191 430.036 930.705 426.342 927.262 435.702C923.104 447.006 927.298 464.353 927.045 473.703Z" fill="#E8836A"/>
<path d="M906.049 437.215C904.124 437.164 902.279 437.607 900.578 438.435C899.23 441.154 898.407 444.332 898.318 447.761L897.659 474.972C897.411 485.146 904.266 487.653 912.248 487.345C913.99 487.278 916.427 487.444 918.537 486.159C918.956 485.471 936.244 475.141 920.178 464.739C913.643 457.872 920.104 443.201 920.104 443.201C920.344 433.028 914.028 437.422 906.049 437.215Z" fill="#FFA587"/>
<path d="M943.437 386.28C942.412 386.254 941.406 386.371 940.427 386.61C930.059 370.994 910.841 348.833 893.773 348.404C870.219 347.812 850.64 366.429 850.051 389.986L852.089 433.879C852.811 447.529 866.605 469.505 890.157 468.824C909.82 468.256 923.324 459.303 933.675 435.467C936.599 428.735 935.73 430.462 937.378 427.568C938.16 427.758 941.575 427.657 942.4 427.676C950.829 427.888 957.891 418.792 958.182 407.361C958.466 395.931 951.866 386.492 943.437 386.28Z" fill="#F2967F"/>
<path d="M850.051 390.008L851.073 432.106C851.718 444.383 863.343 465.028 883.258 468.363C900.929 466.796 912.946 460.23 922.633 437.929C923.377 436.214 923.704 435.971 924.505 433.415C931.43 411.283 927.219 370.058 927.219 370.058C917.188 359.028 901.938 350.681 888.381 348.641C867.305 350.76 850.599 368.277 850.051 390.008Z" fill="#FFA587"/>
<path d="M889.578 412.417C889.578 416.782 892.256 420.324 895.565 420.324C898.876 420.324 901.556 416.782 901.556 412.417C901.556 408.05 898.876 404.508 895.565 404.508C892.256 404.51 889.578 408.05 889.578 412.417Z" fill="#282119"/>
<path d="M891.162 414.412C891.162 416.751 892.596 418.645 894.367 418.645C896.136 418.645 893.831 417.15 893.831 414.812C893.831 412.475 896.136 410.18 894.367 410.18C892.596 410.18 891.162 412.073 891.162 414.412Z" fill="#332C24"/>
<path d="M862.443 412.417C862.443 416.782 865.124 420.324 868.432 420.324C871.738 420.324 874.419 416.782 874.419 412.417C874.419 408.05 871.738 404.508 868.432 404.508C865.124 404.51 862.443 408.05 862.443 412.417Z" fill="#282119"/>
<path d="M864.027 414.412C864.027 416.751 865.464 418.645 867.232 418.645C869.003 418.645 866.691 417.15 866.691 414.812C866.691 412.475 869.003 410.18 867.232 410.18C865.464 410.18 864.027 412.073 864.027 414.412Z" fill="#332C24"/>
<path d="M879.223 430.564C878.9 432.643 880.635 434.397 882.375 434.397H884.345C886.085 434.397 887.495 432.681 887.495 430.564V418.422C887.495 416.305 886.783 414.837 885.262 415.869C882.168 417.963 879.877 426.351 879.223 430.564Z" fill="#F2967F"/>
<path d="M873.478 430.561C874.131 426.348 876.424 417.96 879.523 415.867C880.307 415.333 880.878 415.475 881.243 416.023C878.24 418.331 876.034 426.437 875.396 430.561C883.669 429.043 881.46 434.394 883.199 434.394H876.633C874.888 434.394 873.156 432.64 873.478 430.561Z" fill="#F2967F"/>
<path d="M874.777 448.639C874.777 448.639 876.144 447.041 876.765 445.554C877.063 444.837 877.34 444.346 878.408 444.313C879.582 444.276 880.29 445.03 880.29 445.03C880.29 445.03 881.866 442.72 884.501 444.994C887.14 447.272 889.636 447.633 889.636 447.633C889.636 447.633 884.761 448.261 880.391 448.396C878.302 448.458 876.146 449.002 874.777 448.639Z" fill="#E8836A"/>
<path d="M874.578 399.882C874.409 399.942 874.226 399.964 874.043 399.937C867.241 398.985 863.483 403.484 863.444 403.53C863.054 404.011 862.354 404.081 861.875 403.689C861.399 403.299 861.324 402.596 861.719 402.12C861.907 401.891 866.324 396.598 874.354 397.729C874.972 397.815 875.396 398.378 875.304 398.989C875.244 399.413 874.953 399.75 874.578 399.882Z" fill="#332C24"/>
<path d="M902.133 404.256C901.969 404.191 901.82 404.085 901.702 403.941C897.289 398.679 891.481 399.509 891.423 399.516C890.807 399.612 890.242 399.191 890.145 398.58C890.054 397.971 890.473 397.403 891.081 397.307C891.373 397.264 898.196 396.287 903.408 402.502C903.805 402.976 903.745 403.679 903.269 404.076C902.946 404.352 902.503 404.408 902.133 404.256Z" fill="#332C24"/>
<path d="M871.305 451.004C871.305 451.004 879.986 445.297 894.009 449.515" stroke="#E8836A" stroke-width="1.5" stroke-miterlimit="10" stroke-linecap="round"/>
<path d="M875.963 453.339C875.963 453.339 880.737 457.696 890.568 451.664" stroke="#E8836A" stroke-miterlimit="10" stroke-linecap="round"/>
<path d="M889.533 334.231C859.619 333.48 842.059 367.275 850.223 409.044C850.223 409.044 850.021 393.043 861.919 392.145C898.101 389.419 898.26 381.63 903.188 369.33C903.188 369.33 907.594 386.902 928.357 392.042C930.919 398.349 940.301 400.711 940.57 386.845C940.267 381.664 939.971 378.625 943.33 376.45C940.63 344.835 913.229 334.828 889.533 334.231Z" fill="#332C24"/>
<path d="M956.439 490.587C956.439 490.587 984.959 489.951 989.406 525.411C993.847 560.869 995.361 572.455 993.941 578.179C991.523 582.751 974.754 590.342 970.44 579.69C969.369 567.248 968.063 546.935 954.959 543.104C949.02 544.155 938.821 508.968 956.439 490.587Z" fill="#3C2D3C"/>
<path d="M989.408 525.411C984.961 489.951 956.441 490.587 956.441 490.587C955.377 491.701 954.412 492.88 953.541 494.107C961.325 495.264 979.484 500.94 982.957 528.638C987.403 564.098 988.914 575.681 987.497 581.408C987.052 582.248 986.121 583.191 984.867 584.105C989.133 582.719 992.894 580.166 993.943 578.181C995.363 572.455 993.849 560.869 989.408 525.411Z" fill="#332433"/>
<path d="M819.253 547.219C819.253 547.219 810.868 551.865 807.771 557.407C804.489 563.278 820.897 573.292 827.802 570.876C834.708 568.458 836.782 561.552 836.782 561.552L819.253 547.219Z" fill="#DCE5E3"/>
<path d="M867.197 485.492C867.197 485.492 844.033 491.44 833.672 512.85C823.31 534.263 816.402 550.149 816.402 550.149C816.402 550.149 816.402 565.344 836.434 565.344C836.434 565.344 850.938 549.458 869.586 549.458L867.197 485.492Z" fill="#3C2D3C"/>
<path d="M830.52 564.248C832.089 561.628 834.247 554.214 833.037 530.891C831.17 494.897 836.783 452.072 836.783 452.072L818.479 450C818.479 450 802.837 525.196 805.796 555.951C807.688 575.61 828.792 567.13 830.52 564.248Z" fill="#FFA587"/>
<path d="M833.489 457.839C833.489 457.839 844.47 449.72 845.575 439.345C846.679 428.967 843.193 405.646 834.882 405.648C826.571 405.656 818.306 419.2 816.335 431.974C814.362 444.749 819.403 456.344 819.403 456.344L833.489 457.839Z" fill="#FFA587"/>
<path d="M835.055 456.294C835.055 456.294 840.495 453.185 843.604 449.819C846.713 446.45 853.541 425.247 849.908 425.126C844.728 424.953 838.512 441.529 838.512 441.529L835.055 456.294Z" fill="#FFA587"/>
<path d="M770.574 455.72C766.479 498.047 728.846 529.044 686.519 524.949C644.189 520.856 613.198 483.223 617.293 440.896C621.386 398.569 659.019 367.575 701.346 371.668C743.67 375.763 774.667 413.396 770.574 455.72Z" fill="white"/>
<path d="M525.183 217.855C520.833 262.827 480.849 295.76 435.878 291.41C390.904 287.06 357.973 247.076 362.323 202.102C366.674 157.131 406.657 124.2 451.631 128.55C496.6 132.9 529.534 172.884 525.183 217.855Z" fill="white"/>
<path d="M470.847 204.5C474.728 190.327 465.553 175.657 450.623 173.284C439.155 171.461 427.692 178.109 423.551 188.961C420.728 196.36 421.64 204.079 425.197 210.287C426.159 211.964 426.84 213.804 427.252 215.696C428.325 220.614 427.942 224.423 427.278 227.019C426.691 229.324 427.981 231.682 430.274 232.313L442.885 235.766C445.146 236.384 447.514 235.106 448.166 232.852C448.739 230.862 449.829 228.314 451.896 225.539C453.734 223.071 456.21 221.175 458.903 219.678C464.557 216.543 469.004 211.235 470.847 204.5Z" fill="#FFF200"/>
<path d="M429.391 193.712C429.319 193.692 429.247 193.668 429.175 193.639C427.986 193.187 427.389 191.852 427.844 190.663C430.257 184.342 435.962 179.513 442.741 178.067C443.989 177.802 445.209 178.594 445.479 179.838C445.743 181.086 444.949 182.311 443.705 182.576C438.438 183.699 434.013 187.429 432.151 192.306C431.725 193.428 430.52 194.02 429.391 193.712Z" fill="white"/>
<path d="M440.757 246.804L426.695 242.954C424.833 242.444 423.735 240.519 424.243 238.654L424.455 237.881C424.965 236.019 426.89 234.919 428.752 235.43L442.812 239.279C444.674 239.79 445.774 241.717 445.266 243.579L445.054 244.352C444.547 246.219 442.619 247.314 440.757 246.804Z" fill="#1C4670"/>
<path d="M438.246 255.975L424.184 252.122C422.321 251.615 421.224 249.69 421.734 247.825L421.946 247.053C422.456 245.188 424.381 244.093 426.246 244.601L440.305 248.451C442.168 248.961 443.267 250.886 442.757 252.75L442.545 253.523C442.038 255.388 440.11 256.487 438.246 255.975Z" fill="#1C4670"/>
<path d="M456.284 165.794C456.915 165.965 457.584 165.599 457.759 164.969L459.634 158.118C459.807 157.488 459.417 156.831 458.787 156.66C458.156 156.487 457.485 156.853 457.312 157.485L455.435 164.336C455.264 164.964 455.654 165.621 456.284 165.794Z" fill="#332C24"/>
<path d="M435.253 165.495C435.448 165.548 435.654 165.552 435.864 165.497C436.497 165.331 436.877 164.686 436.708 164.051L434.728 156.486C434.564 155.853 433.917 155.478 433.282 155.639C432.652 155.805 432.271 156.452 432.437 157.085L434.42 164.648C434.531 165.076 434.858 165.386 435.253 165.495Z" fill="#332C24"/>
<path d="M416.992 175.614C417.389 175.722 417.827 175.624 418.14 175.313C418.606 174.856 418.606 174.105 418.149 173.639L412.651 168.078C412.196 167.616 411.446 167.606 410.976 168.068C410.512 168.528 410.507 169.279 410.967 169.743L416.465 175.304C416.616 175.458 416.799 175.561 416.992 175.614Z" fill="#332C24"/>
<path d="M398.032 192.03L407.166 194.53C407.796 194.703 408.453 194.313 408.627 193.68C408.8 193.05 408.434 192.381 407.804 192.208L398.67 189.705C398.037 189.532 397.382 189.922 397.209 190.552C397.036 191.188 397.399 191.856 398.032 192.03Z" fill="#332C24"/>
<path d="M399.082 216.406C399.277 216.459 399.486 216.464 399.693 216.408L407.258 214.426C407.891 214.26 408.271 213.612 408.103 212.98C407.939 212.347 407.292 211.967 406.659 212.133L399.094 214.115C398.461 214.281 398.084 214.929 398.247 215.561C398.36 215.99 398.687 216.3 399.082 216.406Z" fill="#332C24"/>
<path d="M475.241 176.455C475.636 176.564 476.074 176.465 476.387 176.155L481.947 170.656C482.412 170.197 482.414 169.449 481.957 168.984C481.5 168.52 480.747 168.515 480.28 168.975L474.719 174.473C474.257 174.932 474.25 175.683 474.712 176.147C474.864 176.301 475.047 176.405 475.241 176.455Z" fill="#332C24"/>
<path d="M485.797 194.44C485.992 194.496 486.199 194.498 486.41 194.445L493.973 192.463C494.606 192.297 494.984 191.652 494.818 191.016C494.652 190.384 494.007 190.006 493.371 190.172L485.806 192.155C485.174 192.321 484.793 192.968 484.962 193.601C485.075 194.024 485.402 194.332 485.797 194.44Z" fill="#332C24"/>
<path d="M487.095 216.408L496.231 218.91C496.861 219.084 497.518 218.694 497.691 218.063C497.862 217.433 497.496 216.764 496.866 216.588L487.732 214.088C487.099 213.915 486.445 214.302 486.272 214.935C486.098 215.566 486.462 216.235 487.095 216.408Z" fill="#332C24"/>
<path d="M480.432 238.677C480.826 238.785 481.267 238.684 481.577 238.376C482.044 237.916 482.046 237.168 481.587 236.701L476.089 231.14C475.631 230.676 474.883 230.671 474.412 231.131C473.947 231.59 473.942 232.339 474.404 232.805L479.905 238.366C480.052 238.518 480.237 238.624 480.432 238.677Z" fill="#332C24"/>
<path d="M552.633 457.964C548.282 502.938 508.299 535.867 463.327 531.519C418.353 527.168 385.422 487.185 389.773 442.213C394.123 397.242 434.104 364.311 479.078 368.659C524.05 373.007 556.981 412.993 552.633 457.964Z" fill="white"/>
<path d="M508.098 429.038C498.322 429.707 477.97 430.77 477.97 430.77L477.499 420.864C477.451 419.839 477.251 418.838 476.902 417.878C476.098 415.676 474.551 411.576 473.466 409.63C468.776 401.235 460.497 405.967 461.911 410.561C463.249 414.906 462.369 417.803 460.72 427.327C458.492 440.212 449.156 442.707 449.156 442.707L453.774 480.699C467.422 486.582 489.424 483.656 495.261 480.701L505.304 477.426C508.562 477.181 511.06 475.121 510.812 471.861C510.605 469.142 508.596 467.116 506.094 467.306L506.553 467.272C508.615 467.116 510.588 466.117 511.734 464.397C514.135 460.787 512.162 456.497 508.981 455.275C509.003 455.143 509.022 454.919 509.044 454.791C512.083 454.337 513.683 451.634 513.447 448.523C513.254 445.961 511.026 443.911 508.466 443.287C508.464 443.28 508.461 443.237 508.461 443.237L512.983 440.566C515.035 439.267 515.896 437.404 515.745 435.566C515.418 431.62 512.049 428.771 508.098 429.038Z" fill="#FFA587"/>
<path d="M454.818 436.834L447.057 437.422L450.582 483.983L458.344 483.395L454.818 436.834Z" fill="#DCE5E3"/>
<path d="M448.473 435.216L431.807 436.477L435.654 487.362L452.321 486.101L448.473 435.216Z" fill="#1C4670"/>
<path d="M647.111 313.592C643.957 346.22 614.948 370.111 582.32 366.957C549.692 363.8 525.799 334.791 528.956 302.165C532.113 269.54 561.122 245.647 593.747 248.804C626.373 251.958 650.266 280.967 647.111 313.592Z" fill="white"/>
<path d="M568.45 340.431L572.36 333.972C567.983 331.634 565.462 328.705 564.797 325.18C564.254 322.326 564.954 318.833 566.896 314.699C567.348 313.741 567.865 312.747 568.45 311.722L579.913 315.392C579.191 316.607 578.597 317.704 578.14 318.686C577.432 320.19 577.05 321.412 576.987 322.35C576.898 323.89 577.461 324.944 578.671 325.512C580.132 326.198 581.501 325.541 582.772 323.542C583.022 323.123 583.236 322.716 583.424 322.319C584.09 320.849 584.396 319.413 584.34 318.01C584.256 316.236 583.705 314.052 582.683 311.455L580.95 307.009C580.332 305.495 579.879 304.179 579.579 303.055C579.273 301.932 579.073 300.647 578.967 299.193C578.828 297.752 578.982 296.284 579.429 294.788C579.677 293.936 580.021 293.065 580.466 292.177C580.779 291.51 581.138 290.825 581.547 290.125C583.907 286.239 586.949 283.712 590.669 282.543C594.394 281.376 598.409 281.573 602.719 283.142L606.453 276.984L609.993 278.647L606.319 284.756C607.709 285.538 608.867 286.412 609.788 287.381C610.71 288.349 611.371 289.299 611.79 290.233C612.206 291.169 612.437 292.194 612.483 293.313C612.534 294.432 612.478 295.445 612.317 296.349C612.161 297.254 611.865 298.245 611.441 299.319C611.107 300.129 610.799 300.839 610.515 301.446C610.428 301.633 610.344 301.811 610.265 301.98C609.909 302.678 609.473 303.469 608.96 304.347L597.442 300.307C597.955 299.427 598.349 298.755 598.621 298.284C598.891 297.812 599.189 297.259 599.516 296.621C599.844 295.984 600.046 295.486 600.123 295.127C600.202 294.771 600.248 294.391 600.257 293.986C600.269 293.585 600.173 293.257 599.973 293.012C599.771 292.764 599.47 292.545 599.073 292.36C598.26 291.977 597.408 292.069 596.523 292.632C595.63 293.195 594.949 293.876 594.468 294.67C594.264 295.007 594.073 295.353 593.91 295.704C593.636 296.292 593.438 296.871 593.318 297.454C593.089 298.366 593.046 299.275 593.181 300.18C593.315 301.082 593.486 301.884 593.693 302.581C593.903 303.279 594.179 304.09 594.538 305.024C594.656 305.31 594.738 305.512 594.783 305.637L596.34 309.886C596.971 311.532 597.442 313.046 597.762 314.432C598.077 315.818 598.265 317.314 598.325 318.922C598.402 320.488 598.205 322.103 597.728 323.763C597.464 324.709 597.103 325.664 596.653 326.621C596.321 327.329 595.929 328.051 595.486 328.785C593.491 332.052 590.695 334.345 587.096 335.659C583.496 336.973 579.759 336.951 575.89 335.589L571.961 342.076L568.45 340.431Z" fill="#91CD94"/>
<path d="M820.568 246.436C816.815 285.238 782.317 313.65 743.52 309.894C704.718 306.143 676.306 271.646 680.06 232.846C683.811 194.046 718.306 165.634 757.108 169.388C795.908 173.141 824.322 207.636 820.568 246.436Z" fill="white"/>
<path d="M782.261 212.562L764.717 274.117L776.708 277.535L794.252 215.98L782.261 212.562Z" fill="#29ABE2"/>
<path d="M756.791 229.446L745.609 268.664L757.603 272.084L768.785 232.866L756.791 229.446Z" fill="#29ABE2"/>
<path d="M738.89 219.164L726.354 263.133L738.347 266.552L750.883 222.584L738.89 219.164Z" fill="#29ABE2"/>
<path d="M716.22 226.098L707.189 257.758L719.179 261.178L728.21 229.518L716.22 226.098Z" fill="#29ABE2"/>
<path d="M746.61 438.35C753.419 467.635 735.2 496.892 705.917 503.702C676.629 510.509 647.372 492.287 640.565 463.003C633.758 433.72 651.975 404.461 681.263 397.652C710.546 390.847 739.803 409.066 746.61 438.35Z" fill="#FFA229"/>
<path d="M728.716 442.523C733.228 461.921 721.156 481.308 701.757 485.817C682.356 490.329 662.972 478.255 658.463 458.856C653.951 439.455 666.023 420.071 685.424 415.562C704.823 411.052 724.207 423.124 728.716 442.523Z" fill="white"/>
<path d="M714.136 445.893C716.773 457.24 709.711 468.578 698.364 471.215C687.014 473.855 675.678 466.793 673.039 455.445C670.401 444.098 677.461 432.76 688.811 430.123C700.159 427.485 711.494 434.545 714.136 445.893Z" fill="#FFA229"/>
<path d="M702.204 448.674C703.314 453.431 700.349 458.188 695.59 459.292C690.83 460.399 686.078 457.437 684.971 452.678C683.867 447.921 686.829 443.164 691.586 442.059C696.343 440.955 701.097 443.914 702.204 448.674Z" fill="white"/>
<path d="M761.981 442.285L753.915 437.261L758.937 429.193C759.642 428.065 759.296 426.583 758.17 425.88C757.039 425.177 755.554 425.521 754.854 426.65L749.089 435.914L745.164 436.826L748.391 431.648C749.096 430.519 748.752 429.037 747.621 428.332C746.495 427.632 745.008 427.976 744.308 429.104L738.54 438.368L734.62 439.278L737.847 434.099C738.55 432.971 738.203 431.489 737.077 430.784C735.953 430.081 734.461 430.428 733.764 431.554L727.996 440.818L693.761 448.777C692.466 449.078 691.663 450.372 691.963 451.667C692.204 452.699 693.075 453.421 694.076 453.517C694.326 453.541 694.589 453.525 694.851 453.467L729.081 445.507L738.345 451.277C738.67 451.479 739.024 451.595 739.384 451.628C740.265 451.715 741.158 451.308 741.658 450.505C742.363 449.376 742.017 447.894 740.888 447.189L735.713 443.965L739.632 443.055L748.894 448.823C749.221 449.027 749.575 449.14 749.933 449.177C750.814 449.261 751.709 448.857 752.207 448.055C752.912 446.927 752.566 445.442 751.439 444.74L746.264 441.513L750.181 440.601L759.445 446.371C759.77 446.573 760.123 446.689 760.482 446.722C761.363 446.809 762.258 446.402 762.758 445.599C763.453 444.475 763.109 442.988 761.981 442.285Z" fill="#681829"/>
</svg>
