<svg width="1080" height="1080" viewBox="0 0 1080 1080" fill="none" xmlns="http://www.w3.org/2000/svg">
<rect width="1080" height="1080" fill="white"/>
<path d="M153.314 93.4346H161.103C160.895 96.1911 160.13 98.6361 158.809 100.77C157.487 102.884 155.646 104.546 153.286 105.754C150.926 106.962 148.066 107.566 144.705 107.566C142.118 107.566 139.787 107.113 137.71 106.207C135.652 105.282 133.887 103.97 132.414 102.271C130.96 100.552 129.846 98.4945 129.072 96.0967C128.298 93.68 127.911 90.9707 127.911 87.9688V84.8252C127.911 81.8232 128.308 79.1139 129.101 76.6973C129.894 74.2806 131.026 72.2227 132.499 70.5234C133.991 68.8053 135.775 67.4837 137.852 66.5586C139.947 65.6335 142.288 65.1709 144.875 65.1709C148.236 65.1709 151.077 65.7939 153.399 67.04C155.722 68.2673 157.525 69.957 158.809 72.1094C160.092 74.2617 160.867 76.735 161.131 79.5293H153.343C153.192 77.7923 152.814 76.3197 152.21 75.1113C151.625 73.903 150.737 72.9873 149.548 72.3643C148.377 71.7223 146.82 71.4014 144.875 71.4014C143.365 71.4014 142.034 71.6846 140.882 72.251C139.749 72.8174 138.805 73.667 138.05 74.7998C137.295 75.9137 136.728 77.3109 136.351 78.9912C135.973 80.6527 135.784 82.5785 135.784 84.7686V87.9688C135.784 90.0645 135.954 91.943 136.294 93.6045C136.634 95.266 137.162 96.6725 137.88 97.8242C138.597 98.9759 139.522 99.8538 140.655 100.458C141.788 101.062 143.138 101.364 144.705 101.364C146.612 101.364 148.16 101.062 149.35 100.458C150.558 99.8538 151.474 98.9665 152.097 97.7959C152.739 96.6253 153.145 95.1715 153.314 93.4346ZM165.237 91.9902V91.3955C165.237 89.1488 165.558 87.0814 166.2 85.1934C166.842 83.2865 167.777 81.6344 169.004 80.2373C170.231 78.8402 171.732 77.7546 173.507 76.9805C175.282 76.1875 177.302 75.791 179.567 75.791C181.871 75.791 183.91 76.1875 185.685 76.9805C187.478 77.7546 188.989 78.8402 190.216 80.2373C191.443 81.6344 192.378 83.2865 193.02 85.1934C193.661 87.0814 193.982 89.1488 193.982 91.3955V91.9902C193.982 94.2181 193.661 96.2855 193.02 98.1924C192.378 100.08 191.443 101.732 190.216 103.148C188.989 104.546 187.488 105.631 185.713 106.405C183.938 107.179 181.909 107.566 179.624 107.566C177.358 107.566 175.329 107.179 173.535 106.405C171.742 105.631 170.231 104.546 169.004 103.148C167.777 101.732 166.842 100.08 166.2 98.1924C165.558 96.2855 165.237 94.2181 165.237 91.9902ZM172.714 91.3955V91.9902C172.714 93.3307 172.846 94.5863 173.11 95.7568C173.375 96.9274 173.781 97.9564 174.328 98.8438C174.876 99.7311 175.584 100.43 176.452 100.939C177.34 101.43 178.397 101.676 179.624 101.676C180.832 101.676 181.871 101.43 182.739 100.939C183.608 100.43 184.316 99.7311 184.863 98.8438C185.43 97.9564 185.845 96.9274 186.109 95.7568C186.374 94.5863 186.506 93.3307 186.506 91.9902V91.3955C186.506 90.0739 186.374 88.8372 186.109 87.6855C185.845 86.515 185.43 85.486 184.863 84.5986C184.316 83.6924 183.598 82.9844 182.711 82.4746C181.842 81.946 180.795 81.6816 179.567 81.6816C178.359 81.6816 177.321 81.946 176.452 82.4746C175.584 82.9844 174.876 83.6924 174.328 84.5986C173.781 85.486 173.375 86.515 173.11 87.6855C172.846 88.8372 172.714 90.0739 172.714 91.3955ZM206.868 82.6445V107H199.392V76.3574H206.443L206.868 82.6445ZM205.764 90.5742H203.47C203.47 88.4408 203.725 86.4772 204.234 84.6836C204.763 82.89 205.537 81.3324 206.557 80.0107C207.576 78.6702 208.832 77.6318 210.323 76.8955C211.834 76.1592 213.58 75.791 215.562 75.791C216.941 75.791 218.206 75.9987 219.357 76.4141C220.509 76.8105 221.5 77.443 222.331 78.3115C223.181 79.1611 223.832 80.2751 224.285 81.6533C224.738 83.0127 224.965 84.6458 224.965 86.5527V107H217.488V87.3174C217.488 85.8825 217.281 84.7591 216.865 83.9473C216.469 83.1354 215.893 82.569 215.138 82.248C214.382 81.9082 213.476 81.7383 212.419 81.7383C211.248 81.7383 210.238 81.9743 209.389 82.4463C208.558 82.8994 207.869 83.5319 207.321 84.3438C206.793 85.1556 206.396 86.0902 206.132 87.1475C205.886 88.2048 205.764 89.347 205.764 90.5742ZM224.398 89.1865L221.312 89.7529C221.33 87.8271 221.595 86.0241 222.104 84.3438C222.614 82.6445 223.36 81.1624 224.342 79.8975C225.342 78.6136 226.579 77.613 228.052 76.8955C229.543 76.1592 231.261 75.791 233.206 75.791C234.716 75.791 236.076 76.0081 237.284 76.4424C238.511 76.8577 239.559 77.528 240.428 78.4531C241.296 79.3594 241.957 80.5394 242.41 81.9932C242.882 83.4469 243.118 85.2217 243.118 87.3174V107H235.585V87.2891C235.585 85.7975 235.377 84.6553 234.962 83.8623C234.565 83.0693 233.99 82.5218 233.234 82.2197C232.479 81.8988 231.592 81.7383 230.572 81.7383C229.534 81.7383 228.628 81.9365 227.854 82.333C227.098 82.7106 226.456 83.2393 225.928 83.9189C225.418 84.5986 225.031 85.3916 224.767 86.2979C224.521 87.1852 224.398 88.1481 224.398 89.1865ZM257.307 82.248V118.781H249.802V76.3574H256.74L257.307 82.248ZM276.989 91.3672V91.9619C276.989 94.1898 276.725 96.2572 276.196 98.1641C275.687 100.052 274.931 101.704 273.931 103.12C272.93 104.517 271.684 105.612 270.192 106.405C268.72 107.179 267.021 107.566 265.095 107.566C263.207 107.566 261.564 107.208 260.167 106.49C258.77 105.754 257.59 104.715 256.627 103.375C255.664 102.035 254.89 100.477 254.305 98.7021C253.738 96.9085 253.313 94.9544 253.03 92.8398V90.9424C253.313 88.6956 253.738 86.6566 254.305 84.8252C254.89 82.9749 255.664 81.3796 256.627 80.0391C257.59 78.6797 258.76 77.6318 260.139 76.8955C261.536 76.1592 263.169 75.791 265.038 75.791C266.983 75.791 268.691 76.1592 270.164 76.8955C271.656 77.6318 272.911 78.6891 273.931 80.0674C274.95 81.4456 275.715 83.0882 276.225 84.9951C276.734 86.902 276.989 89.026 276.989 91.3672ZM269.484 91.9619V91.3672C269.484 90.0078 269.362 88.7523 269.116 87.6006C268.871 86.43 268.493 85.4105 267.983 84.542C267.474 83.6546 266.813 82.9655 266.001 82.4746C265.189 81.9837 264.207 81.7383 263.056 81.7383C261.904 81.7383 260.913 81.9271 260.082 82.3047C259.251 82.6823 258.572 83.2204 258.043 83.9189C257.514 84.6175 257.099 85.4482 256.797 86.4111C256.514 87.3551 256.325 88.403 256.23 89.5547V94.2559C256.4 95.653 256.731 96.9085 257.222 98.0225C257.713 99.1364 258.43 100.024 259.374 100.685C260.337 101.345 261.583 101.676 263.112 101.676C264.264 101.676 265.246 101.421 266.058 100.911C266.869 100.401 267.53 99.7028 268.04 98.8154C268.55 97.9092 268.918 96.8708 269.145 95.7002C269.371 94.5296 269.484 93.2835 269.484 91.9619ZM299.334 100.486V86.3545C299.334 85.3161 299.155 84.4193 298.796 83.6641C298.437 82.9089 297.89 82.3236 297.153 81.9082C296.417 81.4928 295.482 81.2852 294.35 81.2852C293.349 81.2852 292.471 81.4551 291.716 81.7949C290.979 82.1348 290.413 82.6162 290.017 83.2393C289.62 83.8434 289.422 84.542 289.422 85.335H281.917C281.917 84.07 282.219 82.8711 282.823 81.7383C283.427 80.5866 284.286 79.5671 285.4 78.6797C286.533 77.7734 287.883 77.0654 289.45 76.5557C291.036 76.0459 292.811 75.791 294.774 75.791C297.097 75.791 299.164 76.1875 300.977 76.9805C302.808 77.7546 304.243 78.9251 305.281 80.4922C306.339 82.0592 306.867 84.0322 306.867 86.4111V99.7783C306.867 101.308 306.962 102.62 307.15 103.715C307.358 104.791 307.66 105.726 308.057 106.519V107H300.438C300.08 106.226 299.806 105.244 299.617 104.055C299.428 102.846 299.334 101.657 299.334 100.486ZM300.382 88.3369L300.438 92.7832H295.709C294.538 92.7832 293.509 92.9059 292.622 93.1514C291.735 93.3779 291.008 93.7178 290.441 94.1709C289.875 94.6051 289.45 95.1338 289.167 95.7568C288.884 96.361 288.742 97.0501 288.742 97.8242C288.742 98.5794 288.912 99.2591 289.252 99.8633C289.611 100.467 290.12 100.949 290.781 101.308C291.461 101.647 292.254 101.817 293.16 101.817C294.482 101.817 295.633 101.553 296.615 101.024C297.597 100.477 298.362 99.8161 298.909 99.042C299.457 98.2679 299.749 97.5316 299.787 96.833L301.939 100.062C301.675 100.836 301.279 101.657 300.75 102.525C300.221 103.394 299.542 104.206 298.711 104.961C297.88 105.716 296.88 106.339 295.709 106.83C294.538 107.321 293.179 107.566 291.631 107.566C289.648 107.566 287.874 107.17 286.307 106.377C284.74 105.584 283.503 104.498 282.597 103.12C281.69 101.742 281.237 100.175 281.237 98.4189C281.237 96.7952 281.539 95.3604 282.144 94.1143C282.748 92.8682 283.645 91.8203 284.834 90.9707C286.023 90.1022 287.496 89.4508 289.252 89.0166C291.027 88.5635 293.056 88.3369 295.341 88.3369H300.382ZM320.942 82.8994V107H313.466V76.3574H320.489L320.942 82.8994ZM319.753 90.5742H317.544C317.563 88.3464 317.865 86.3262 318.45 84.5137C319.035 82.7012 319.857 81.1436 320.914 79.8408C321.99 78.5381 323.265 77.5374 324.737 76.8389C326.21 76.1403 327.853 75.791 329.665 75.791C331.138 75.791 332.469 75.9987 333.658 76.4141C334.848 76.8294 335.867 77.4902 336.717 78.3965C337.585 79.3027 338.246 80.4922 338.699 81.9648C339.171 83.4186 339.407 85.2122 339.407 87.3457V107H331.874V87.2891C331.874 85.8919 331.666 84.7874 331.251 83.9756C330.854 83.1637 330.269 82.5879 329.495 82.248C328.74 81.9082 327.805 81.7383 326.691 81.7383C325.54 81.7383 324.53 81.9743 323.661 82.4463C322.812 82.8994 322.094 83.5319 321.509 84.3438C320.942 85.1556 320.508 86.0902 320.206 87.1475C319.904 88.2048 319.753 89.347 319.753 90.5742ZM354.983 103.602L363.196 76.3574H371.211L358.92 111.645C358.637 112.4 358.269 113.221 357.815 114.108C357.381 114.996 356.796 115.836 356.06 116.629C355.323 117.441 354.398 118.102 353.284 118.611C352.189 119.121 350.858 119.376 349.291 119.376C348.611 119.376 348.007 119.329 347.479 119.234C346.95 119.14 346.393 119.017 345.808 118.866V113.259C345.996 113.278 346.214 113.287 346.459 113.287C346.723 113.306 346.95 113.315 347.139 113.315C348.234 113.315 349.14 113.183 349.857 112.919C350.575 112.674 351.151 112.268 351.585 111.701C352.038 111.154 352.416 110.436 352.718 109.549L354.983 103.602ZM350.934 76.3574L357.872 98.9287L359.09 106.83L353.936 107.765L342.862 76.3574H350.934ZM389.846 65.7656H404.827C407.961 65.7656 410.652 66.2376 412.898 67.1816C415.145 68.1257 416.873 69.5228 418.081 71.373C419.289 73.2233 419.894 75.4984 419.894 78.1982C419.894 80.3317 419.516 82.182 418.761 83.749C418.006 85.3161 416.939 86.6283 415.561 87.6855C414.201 88.7428 412.596 89.5736 410.746 90.1777L408.311 91.4238H395.085L395.028 85.2783H404.912C406.517 85.2783 407.848 84.9951 408.905 84.4287C409.963 83.8623 410.756 83.0788 411.284 82.0781C411.832 81.0775 412.105 79.9352 412.105 78.6514C412.105 77.2731 411.841 76.0837 411.312 75.083C410.784 74.0635 409.981 73.2799 408.905 72.7324C407.829 72.1849 406.47 71.9111 404.827 71.9111H397.634V107H389.846V65.7656ZM413.125 107L403.581 88.5352L411.822 88.5068L421.479 106.604V107H413.125ZM439.916 107.566C437.594 107.566 435.507 107.189 433.657 106.434C431.807 105.678 430.23 104.631 428.928 103.29C427.644 101.931 426.653 100.354 425.954 98.5605C425.274 96.748 424.935 94.8034 424.935 92.7266V91.5938C424.935 89.2337 425.274 87.0908 425.954 85.165C426.634 83.2204 427.597 81.5495 428.843 80.1523C430.089 78.7552 431.58 77.679 433.317 76.9238C435.054 76.1686 436.971 75.791 439.066 75.791C441.238 75.791 443.154 76.1592 444.815 76.8955C446.477 77.613 447.865 78.6325 448.979 79.9541C450.092 81.2757 450.933 82.8617 451.499 84.7119C452.065 86.5433 452.349 88.5729 452.349 90.8008V93.9443H428.333V88.79H444.985V88.2236C444.948 87.0342 444.721 85.9486 444.306 84.9668C443.89 83.9661 443.248 83.1732 442.38 82.5879C441.511 81.9837 440.388 81.6816 439.01 81.6816C437.896 81.6816 436.924 81.9271 436.093 82.418C435.281 82.89 434.601 83.5697 434.054 84.457C433.525 85.3255 433.129 86.3639 432.864 87.5723C432.6 88.7806 432.468 90.1211 432.468 91.5938V92.7266C432.468 94.0104 432.638 95.1999 432.978 96.2949C433.336 97.39 433.855 98.3434 434.535 99.1553C435.234 99.9482 436.064 100.571 437.027 101.024C438.009 101.459 439.123 101.676 440.369 101.676C441.936 101.676 443.352 101.374 444.617 100.77C445.901 100.146 447.015 99.2308 447.959 98.0225L451.726 101.931C451.084 102.875 450.215 103.781 449.12 104.649C448.044 105.518 446.741 106.226 445.212 106.773C443.683 107.302 441.917 107.566 439.916 107.566ZM476.846 76.3574H483.643V106.065C483.643 108.841 483.038 111.191 481.83 113.117C480.641 115.062 478.97 116.535 476.817 117.535C474.665 118.555 472.163 119.064 469.312 119.064C468.085 119.064 466.754 118.895 465.319 118.555C463.903 118.215 462.535 117.677 461.213 116.94C459.91 116.223 458.825 115.288 457.956 114.137L461.326 109.719C462.346 110.908 463.497 111.805 464.781 112.409C466.065 113.032 467.453 113.344 468.944 113.344C470.455 113.344 471.739 113.061 472.796 112.494C473.872 111.947 474.693 111.135 475.26 110.059C475.845 109.001 476.138 107.699 476.138 106.15V83.3525L476.846 76.3574ZM456.144 92.0469V91.4521C456.144 89.111 456.427 86.987 456.993 85.0801C457.56 83.1543 458.371 81.5023 459.429 80.124C460.505 78.7458 461.798 77.679 463.309 76.9238C464.838 76.1686 466.556 75.791 468.463 75.791C470.483 75.791 472.182 76.1592 473.561 76.8955C474.958 77.6318 476.109 78.6797 477.016 80.0391C477.941 81.3984 478.658 83.0127 479.168 84.8818C479.697 86.7321 480.103 88.7712 480.386 90.999V92.6133C480.121 94.7845 479.697 96.7764 479.111 98.5889C478.545 100.401 477.79 101.987 476.846 103.347C475.902 104.687 474.731 105.726 473.334 106.462C471.937 107.198 470.294 107.566 468.406 107.566C466.518 107.566 464.819 107.179 463.309 106.405C461.798 105.631 460.505 104.546 459.429 103.148C458.371 101.751 457.56 100.109 456.993 98.2207C456.427 96.3327 456.144 94.2747 456.144 92.0469ZM463.62 91.4521V92.0469C463.62 93.3685 463.752 94.6051 464.017 95.7568C464.281 96.9085 464.687 97.9281 465.234 98.8154C465.782 99.6839 466.471 100.364 467.302 100.854C468.132 101.345 469.124 101.591 470.275 101.591C471.824 101.591 473.089 101.27 474.07 100.628C475.071 99.9671 475.826 99.0703 476.336 97.9375C476.865 96.7858 477.204 95.4925 477.355 94.0576V89.6113C477.261 88.4785 477.053 87.4307 476.732 86.4678C476.43 85.5049 476.006 84.6742 475.458 83.9756C474.91 83.277 474.212 82.7295 473.362 82.333C472.513 81.9365 471.503 81.7383 470.332 81.7383C469.199 81.7383 468.208 81.9932 467.358 82.5029C466.509 82.9938 465.81 83.6829 465.263 84.5703C464.715 85.4577 464.3 86.4867 464.017 87.6572C463.752 88.8278 463.62 90.0928 463.62 91.4521ZM498.312 76.3574V107H490.808V76.3574H498.312ZM490.298 68.3428C490.298 67.2288 490.675 66.3037 491.431 65.5674C492.205 64.8311 493.243 64.4629 494.546 64.4629C495.849 64.4629 496.878 64.8311 497.633 65.5674C498.407 66.3037 498.794 67.2288 498.794 68.3428C498.794 69.4378 498.407 70.3535 497.633 71.0898C496.878 71.8262 495.849 72.1943 494.546 72.1943C493.243 72.1943 492.205 71.8262 491.431 71.0898C490.675 70.3535 490.298 69.4378 490.298 68.3428ZM522.3 98.6172C522.3 97.9753 522.13 97.3994 521.79 96.8896C521.45 96.3799 520.808 95.9173 519.864 95.502C518.939 95.0677 517.58 94.6618 515.786 94.2842C514.2 93.9443 512.737 93.5195 511.396 93.0098C510.056 92.5 508.904 91.8864 507.941 91.1689C506.979 90.4326 506.223 89.5736 505.676 88.5918C505.147 87.5911 504.883 86.4395 504.883 85.1367C504.883 83.8717 505.157 82.6823 505.704 81.5684C506.252 80.4355 507.045 79.4443 508.083 78.5947C509.121 77.7262 510.386 77.0465 511.878 76.5557C513.369 76.0459 515.05 75.791 516.919 75.791C519.524 75.791 521.762 76.2158 523.631 77.0654C525.519 77.915 526.963 79.0856 527.964 80.5771C528.965 82.0498 529.465 83.7113 529.465 85.5615H521.988C521.988 84.7497 521.799 84.0133 521.422 83.3525C521.063 82.6917 520.506 82.1631 519.751 81.7666C518.996 81.3512 518.042 81.1436 516.891 81.1436C515.852 81.1436 514.974 81.3135 514.257 81.6533C513.558 81.9932 513.03 82.4368 512.671 82.9844C512.312 83.5319 512.133 84.1361 512.133 84.7969C512.133 85.2878 512.227 85.7314 512.416 86.1279C512.624 86.5055 512.954 86.8548 513.407 87.1758C513.86 87.4967 514.474 87.7894 515.248 88.0537C516.041 88.318 517.013 88.5729 518.165 88.8184C520.45 89.2715 522.441 89.8757 524.141 90.6309C525.859 91.3672 527.199 92.349 528.162 93.5762C529.125 94.8034 529.606 96.3704 529.606 98.2773C529.606 99.6367 529.314 100.883 528.729 102.016C528.143 103.13 527.294 104.102 526.18 104.933C525.066 105.763 523.735 106.415 522.187 106.887C520.638 107.34 518.892 107.566 516.947 107.566C514.134 107.566 511.755 107.066 509.811 106.065C507.866 105.046 506.393 103.762 505.393 102.214C504.392 100.647 503.892 99.0231 503.892 97.3428H511.057C511.113 98.5322 511.434 99.4857 512.02 100.203C512.605 100.921 513.341 101.44 514.229 101.761C515.135 102.063 516.088 102.214 517.089 102.214C518.222 102.214 519.175 102.063 519.949 101.761C520.723 101.44 521.309 101.015 521.705 100.486C522.102 99.9388 522.3 99.3158 522.3 98.6172ZM549.799 76.3574V81.7383H532.24V76.3574H549.799ZM536.941 68.8242H544.446V98.1641C544.446 99.0703 544.569 99.7689 544.814 100.26C545.06 100.751 545.428 101.081 545.919 101.251C546.41 101.421 546.995 101.506 547.675 101.506C548.166 101.506 548.619 101.478 549.034 101.421C549.45 101.364 549.799 101.308 550.082 101.251L550.11 106.858C549.487 107.066 548.779 107.236 547.986 107.368C547.212 107.5 546.334 107.566 545.353 107.566C543.672 107.566 542.2 107.283 540.935 106.717C539.67 106.132 538.688 105.197 537.989 103.913C537.291 102.61 536.941 100.892 536.941 98.7588V68.8242ZM562.26 82.6162V107H554.783V76.3574H561.863L562.26 82.6162ZM571.577 76.1592L571.464 83.126C571.049 83.0505 570.576 82.9938 570.048 82.9561C569.538 82.9183 569.057 82.8994 568.604 82.8994C567.452 82.8994 566.442 83.0599 565.573 83.3809C564.705 83.6829 563.978 84.1266 563.393 84.7119C562.826 85.2972 562.392 86.0146 562.09 86.8643C561.788 87.695 561.618 88.639 561.58 89.6963L559.966 89.498C559.966 87.5534 560.164 85.7503 560.561 84.0889C560.957 82.4274 561.533 80.9736 562.288 79.7275C563.043 78.4814 563.987 77.5186 565.12 76.8389C566.272 76.1403 567.593 75.791 569.085 75.791C569.5 75.791 569.944 75.8288 570.416 75.9043C570.907 75.9609 571.294 76.0459 571.577 76.1592ZM591.6 100.486V86.3545C591.6 85.3161 591.42 84.4193 591.062 83.6641C590.703 82.9089 590.155 82.3236 589.419 81.9082C588.683 81.4928 587.748 81.2852 586.615 81.2852C585.615 81.2852 584.737 81.4551 583.981 81.7949C583.245 82.1348 582.679 82.6162 582.282 83.2393C581.886 83.8434 581.688 84.542 581.688 85.335H574.183C574.183 84.07 574.485 82.8711 575.089 81.7383C575.693 80.5866 576.552 79.5671 577.666 78.6797C578.799 77.7734 580.149 77.0654 581.716 76.5557C583.302 76.0459 585.076 75.791 587.04 75.791C589.362 75.791 591.43 76.1875 593.242 76.9805C595.074 77.7546 596.508 78.9251 597.547 80.4922C598.604 82.0592 599.133 84.0322 599.133 86.4111V99.7783C599.133 101.308 599.227 102.62 599.416 103.715C599.624 104.791 599.926 105.726 600.322 106.519V107H592.704C592.345 106.226 592.072 105.244 591.883 104.055C591.694 102.846 591.6 101.657 591.6 100.486ZM592.647 88.3369L592.704 92.7832H587.975C586.804 92.7832 585.775 92.9059 584.888 93.1514C584 93.3779 583.273 93.7178 582.707 94.1709C582.141 94.6051 581.716 95.1338 581.433 95.7568C581.149 96.361 581.008 97.0501 581.008 97.8242C581.008 98.5794 581.178 99.2591 581.518 99.8633C581.876 100.467 582.386 100.949 583.047 101.308C583.727 101.647 584.52 101.817 585.426 101.817C586.747 101.817 587.899 101.553 588.881 101.024C589.863 100.477 590.627 99.8161 591.175 99.042C591.722 98.2679 592.015 97.5316 592.053 96.833L594.205 100.062C593.941 100.836 593.544 101.657 593.016 102.525C592.487 103.394 591.807 104.206 590.977 104.961C590.146 105.716 589.145 106.339 587.975 106.83C586.804 107.321 585.445 107.566 583.896 107.566C581.914 107.566 580.139 107.17 578.572 106.377C577.005 105.584 575.769 104.498 574.862 103.12C573.956 101.742 573.503 100.175 573.503 98.4189C573.503 96.7952 573.805 95.3604 574.409 94.1143C575.013 92.8682 575.91 91.8203 577.1 90.9707C578.289 90.1022 579.762 89.4508 581.518 89.0166C583.292 88.5635 585.322 88.3369 587.606 88.3369H592.647ZM620.373 76.3574V81.7383H602.814V76.3574H620.373ZM607.516 68.8242H615.021V98.1641C615.021 99.0703 615.143 99.7689 615.389 100.26C615.634 100.751 616.002 101.081 616.493 101.251C616.984 101.421 617.569 101.506 618.249 101.506C618.74 101.506 619.193 101.478 619.608 101.421C620.024 101.364 620.373 101.308 620.656 101.251L620.685 106.858C620.062 107.066 619.354 107.236 618.561 107.368C617.786 107.5 616.909 107.566 615.927 107.566C614.246 107.566 612.774 107.283 611.509 106.717C610.244 106.132 609.262 105.197 608.563 103.913C607.865 102.61 607.516 100.892 607.516 98.7588V68.8242ZM633.287 76.3574V107H625.782V76.3574H633.287ZM625.272 68.3428C625.272 67.2288 625.65 66.3037 626.405 65.5674C627.179 64.8311 628.218 64.4629 629.521 64.4629C630.823 64.4629 631.852 64.8311 632.607 65.5674C633.382 66.3037 633.769 67.2288 633.769 68.3428C633.769 69.4378 633.382 70.3535 632.607 71.0898C631.852 71.8262 630.823 72.1943 629.521 72.1943C628.218 72.1943 627.179 71.8262 626.405 71.0898C625.65 70.3535 625.272 69.4378 625.272 68.3428ZM639.093 91.9902V91.3955C639.093 89.1488 639.414 87.0814 640.056 85.1934C640.698 83.2865 641.632 81.6344 642.859 80.2373C644.087 78.8402 645.588 77.7546 647.362 76.9805C649.137 76.1875 651.157 75.791 653.423 75.791C655.726 75.791 657.765 76.1875 659.54 76.9805C661.334 77.7546 662.844 78.8402 664.071 80.2373C665.299 81.6344 666.233 83.2865 666.875 85.1934C667.517 87.0814 667.838 89.1488 667.838 91.3955V91.9902C667.838 94.2181 667.517 96.2855 666.875 98.1924C666.233 100.08 665.299 101.732 664.071 103.148C662.844 104.546 661.343 105.631 659.568 106.405C657.794 107.179 655.764 107.566 653.479 107.566C651.214 107.566 649.184 107.179 647.391 106.405C645.597 105.631 644.087 104.546 642.859 103.148C641.632 101.732 640.698 100.08 640.056 98.1924C639.414 96.2855 639.093 94.2181 639.093 91.9902ZM646.569 91.3955V91.9902C646.569 93.3307 646.701 94.5863 646.966 95.7568C647.23 96.9274 647.636 97.9564 648.184 98.8438C648.731 99.7311 649.439 100.43 650.308 100.939C651.195 101.43 652.252 101.676 653.479 101.676C654.688 101.676 655.726 101.43 656.595 100.939C657.463 100.43 658.171 99.7311 658.719 98.8438C659.285 97.9564 659.701 96.9274 659.965 95.7568C660.229 94.5863 660.361 93.3307 660.361 91.9902V91.3955C660.361 90.0739 660.229 88.8372 659.965 87.6855C659.701 86.515 659.285 85.486 658.719 84.5986C658.171 83.6924 657.454 82.9844 656.566 82.4746C655.698 81.946 654.65 81.6816 653.423 81.6816C652.215 81.6816 651.176 81.946 650.308 82.4746C649.439 82.9844 648.731 83.6924 648.184 84.5986C647.636 85.486 647.23 86.515 646.966 87.6855C646.701 88.8372 646.569 90.0739 646.569 91.3955ZM680.61 82.8994V107H673.134V76.3574H680.157L680.61 82.8994ZM679.421 90.5742H677.212C677.231 88.3464 677.533 86.3262 678.118 84.5137C678.703 82.7012 679.525 81.1436 680.582 79.8408C681.658 78.5381 682.933 77.5374 684.405 76.8389C685.878 76.1403 687.521 75.791 689.333 75.791C690.806 75.791 692.137 75.9987 693.326 76.4141C694.516 76.8294 695.535 77.4902 696.385 78.3965C697.253 79.3027 697.914 80.4922 698.367 81.9648C698.839 83.4186 699.075 85.2122 699.075 87.3457V107H691.542V87.2891C691.542 85.8919 691.334 84.7874 690.919 83.9756C690.522 83.1637 689.937 82.5879 689.163 82.248C688.408 81.9082 687.473 81.7383 686.359 81.7383C685.208 81.7383 684.198 81.9743 683.329 82.4463C682.479 82.8994 681.762 83.5319 681.177 84.3438C680.61 85.1556 680.176 86.0902 679.874 87.1475C679.572 88.2048 679.421 89.347 679.421 90.5742ZM728.047 76.3574V107H720.542V76.3574H728.047ZM720.032 68.3428C720.032 67.2288 720.41 66.3037 721.165 65.5674C721.939 64.8311 722.978 64.4629 724.28 64.4629C725.583 64.4629 726.612 64.8311 727.367 65.5674C728.141 66.3037 728.528 67.2288 728.528 68.3428C728.528 69.4378 728.141 70.3535 727.367 71.0898C726.612 71.8262 725.583 72.1943 724.28 72.1943C722.978 72.1943 721.939 71.8262 721.165 71.0898C720.41 70.3535 720.032 69.4378 720.032 68.3428ZM742.519 82.8994V107H735.042V76.3574H742.065L742.519 82.8994ZM741.329 90.5742H739.12C739.139 88.3464 739.441 86.3262 740.026 84.5137C740.612 82.7012 741.433 81.1436 742.49 79.8408C743.566 78.5381 744.841 77.5374 746.313 76.8389C747.786 76.1403 749.429 75.791 751.241 75.791C752.714 75.791 754.045 75.9987 755.234 76.4141C756.424 76.8294 757.443 77.4902 758.293 78.3965C759.161 79.3027 759.822 80.4922 760.275 81.9648C760.747 83.4186 760.983 85.2122 760.983 87.3457V107H753.45V87.2891C753.45 85.8919 753.243 84.7874 752.827 83.9756C752.431 83.1637 751.845 82.5879 751.071 82.248C750.316 81.9082 749.382 81.7383 748.268 81.7383C747.116 81.7383 746.106 81.9743 745.237 82.4463C744.388 82.8994 743.67 83.5319 743.085 84.3438C742.519 85.1556 742.084 86.0902 741.782 87.1475C741.48 88.2048 741.329 89.347 741.329 90.5742Z" fill="#001B78"/>
<path d="M790.38 65.7656V107H782.592V65.7656H790.38ZM807.004 83.5791V89.7246H788.341V83.5791H807.004ZM809.185 65.7656V71.9111H788.341V65.7656H809.185ZM820.654 82.6162V107H813.178V76.3574H820.258L820.654 82.6162ZM829.972 76.1592L829.858 83.126C829.443 83.0505 828.971 82.9938 828.442 82.9561C827.933 82.9183 827.451 82.8994 826.998 82.8994C825.846 82.8994 824.836 83.0599 823.968 83.3809C823.099 83.6829 822.372 84.1266 821.787 84.7119C821.221 85.2972 820.786 86.0146 820.484 86.8643C820.182 87.695 820.012 88.639 819.975 89.6963L818.36 89.498C818.36 87.5534 818.559 85.7503 818.955 84.0889C819.352 82.4274 819.927 80.9736 820.683 79.7275C821.438 78.4814 822.382 77.5186 823.515 76.8389C824.666 76.1403 825.988 75.791 827.479 75.791C827.895 75.791 828.339 75.8288 828.811 75.9043C829.301 75.9609 829.688 76.0459 829.972 76.1592ZM849.994 100.486V86.3545C849.994 85.3161 849.815 84.4193 849.456 83.6641C849.097 82.9089 848.55 82.3236 847.813 81.9082C847.077 81.4928 846.143 81.2852 845.01 81.2852C844.009 81.2852 843.131 81.4551 842.376 81.7949C841.64 82.1348 841.073 82.6162 840.677 83.2393C840.28 83.8434 840.082 84.542 840.082 85.335H832.577C832.577 84.07 832.879 82.8711 833.483 81.7383C834.088 80.5866 834.947 79.5671 836.061 78.6797C837.193 77.7734 838.543 77.0654 840.11 76.5557C841.696 76.0459 843.471 75.791 845.435 75.791C847.757 75.791 849.824 76.1875 851.637 76.9805C853.468 77.7546 854.903 78.9251 855.941 80.4922C856.999 82.0592 857.527 84.0322 857.527 86.4111V99.7783C857.527 101.308 857.622 102.62 857.811 103.715C858.018 104.791 858.32 105.726 858.717 106.519V107H851.099C850.74 106.226 850.466 105.244 850.277 104.055C850.089 102.846 849.994 101.657 849.994 100.486ZM851.042 88.3369L851.099 92.7832H846.369C845.199 92.7832 844.17 92.9059 843.282 93.1514C842.395 93.3779 841.668 93.7178 841.102 94.1709C840.535 94.6051 840.11 95.1338 839.827 95.7568C839.544 96.361 839.402 97.0501 839.402 97.8242C839.402 98.5794 839.572 99.2591 839.912 99.8633C840.271 100.467 840.781 100.949 841.441 101.308C842.121 101.647 842.914 101.817 843.82 101.817C845.142 101.817 846.294 101.553 847.275 101.024C848.257 100.477 849.022 99.8161 849.569 99.042C850.117 98.2679 850.41 97.5316 850.447 96.833L852.6 100.062C852.335 100.836 851.939 101.657 851.41 102.525C850.882 103.394 850.202 104.206 849.371 104.961C848.54 105.716 847.54 106.339 846.369 106.83C845.199 107.321 843.839 107.566 842.291 107.566C840.309 107.566 838.534 107.17 836.967 106.377C835.4 105.584 834.163 104.498 833.257 103.12C832.351 101.742 831.897 100.175 831.897 98.4189C831.897 96.7952 832.2 95.3604 832.804 94.1143C833.408 92.8682 834.305 91.8203 835.494 90.9707C836.684 90.1022 838.156 89.4508 839.912 89.0166C841.687 88.5635 843.716 88.3369 846.001 88.3369H851.042ZM871.603 82.8994V107H864.126V76.3574H871.149L871.603 82.8994ZM870.413 90.5742H868.204C868.223 88.3464 868.525 86.3262 869.11 84.5137C869.696 82.7012 870.517 81.1436 871.574 79.8408C872.65 78.5381 873.925 77.5374 875.397 76.8389C876.87 76.1403 878.513 75.791 880.325 75.791C881.798 75.791 883.129 75.9987 884.318 76.4141C885.508 76.8294 886.527 77.4902 887.377 78.3965C888.245 79.3027 888.906 80.4922 889.359 81.9648C889.831 83.4186 890.067 85.2122 890.067 87.3457V107H882.534V87.2891C882.534 85.8919 882.326 84.7874 881.911 83.9756C881.515 83.1637 880.929 82.5879 880.155 82.248C879.4 81.9082 878.465 81.7383 877.352 81.7383C876.2 81.7383 875.19 81.9743 874.321 82.4463C873.472 82.8994 872.754 83.5319 872.169 84.3438C871.603 85.1556 871.168 86.0902 870.866 87.1475C870.564 88.2048 870.413 89.347 870.413 90.5742ZM909.24 101.676C910.298 101.676 911.242 101.468 912.072 101.053C912.903 100.637 913.564 100.052 914.055 99.2969C914.564 98.5417 914.838 97.6637 914.876 96.6631H921.928C921.89 98.7399 921.305 100.6 920.172 102.242C919.039 103.885 917.529 105.188 915.641 106.15C913.771 107.094 911.676 107.566 909.354 107.566C906.993 107.566 904.936 107.17 903.18 106.377C901.424 105.584 899.961 104.479 898.79 103.063C897.638 101.647 896.77 100.005 896.185 98.1357C895.618 96.2666 895.335 94.2653 895.335 92.1318V91.2256C895.335 89.0921 895.618 87.0908 896.185 85.2217C896.77 83.3525 897.638 81.71 898.79 80.2939C899.961 78.8779 901.424 77.7734 903.18 76.9805C904.936 76.1875 906.984 75.791 909.325 75.791C911.799 75.791 913.97 76.2725 915.839 77.2354C917.727 78.1982 919.2 79.5576 920.257 81.3135C921.333 83.0693 921.89 85.1367 921.928 87.5156H914.876C914.838 86.4206 914.593 85.4388 914.14 84.5703C913.687 83.7018 913.045 83.0033 912.214 82.4746C911.383 81.946 910.373 81.6816 909.184 81.6816C907.919 81.6816 906.861 81.946 906.012 82.4746C905.181 83.0033 904.53 83.7301 904.058 84.6553C903.604 85.5615 903.284 86.5811 903.095 87.7139C902.925 88.8278 902.84 89.9984 902.84 91.2256V92.1318C902.84 93.3779 902.925 94.5674 903.095 95.7002C903.284 96.833 903.604 97.8525 904.058 98.7588C904.53 99.6462 905.181 100.354 906.012 100.883C906.861 101.411 907.938 101.676 909.24 101.676ZM940.676 107.566C938.354 107.566 936.267 107.189 934.417 106.434C932.567 105.678 930.99 104.631 929.688 103.29C928.404 101.931 927.412 100.354 926.714 98.5605C926.034 96.748 925.694 94.8034 925.694 92.7266V91.5938C925.694 89.2337 926.034 87.0908 926.714 85.165C927.394 83.2204 928.356 81.5495 929.603 80.1523C930.849 78.7552 932.34 77.679 934.077 76.9238C935.814 76.1686 937.73 75.791 939.826 75.791C941.997 75.791 943.914 76.1592 945.575 76.8955C947.237 77.613 948.624 78.6325 949.738 79.9541C950.852 81.2757 951.692 82.8617 952.259 84.7119C952.825 86.5433 953.108 88.5729 953.108 90.8008V93.9443H929.093V88.79H945.745V88.2236C945.707 87.0342 945.481 85.9486 945.065 84.9668C944.65 83.9661 944.008 83.1732 943.14 82.5879C942.271 81.9837 941.148 81.6816 939.77 81.6816C938.656 81.6816 937.683 81.9271 936.853 82.418C936.041 82.89 935.361 83.5697 934.813 84.457C934.285 85.3255 933.888 86.3639 933.624 87.5723C933.36 88.7806 933.228 90.1211 933.228 91.5938V92.7266C933.228 94.0104 933.397 95.1999 933.737 96.2949C934.096 97.39 934.615 98.3434 935.295 99.1553C935.993 99.9482 936.824 100.571 937.787 101.024C938.769 101.459 939.883 101.676 941.129 101.676C942.696 101.676 944.112 101.374 945.377 100.77C946.661 100.146 947.775 99.2308 948.719 98.0225L952.485 101.931C951.843 102.875 950.975 103.781 949.88 104.649C948.804 105.518 947.501 106.226 945.972 106.773C944.442 107.302 942.677 107.566 940.676 107.566Z" fill="#FFA229"/>
<path d="M364.366 421.573C364.366 421.573 375.624 376.671 340.67 369.213C340.67 369.213 316.821 367.192 302.311 375.598C302.311 375.598 341.142 400.855 336.042 407.871C330.941 414.887 294.785 376.58 294.785 376.58C294.785 376.58 251.006 393.418 240.819 406.657C240.819 406.657 290.991 418.255 284.341 423.776C277.69 429.298 224.919 419.679 224.919 419.679C224.919 419.679 189.361 445.82 203.196 468.707C217.032 491.593 234.043 492.273 239.617 488.688C245.19 485.103 273.076 454.597 276.217 459.088C279.358 463.578 266.489 489.867 252.326 497.879C252.326 497.879 294.716 514.647 308.614 496.721C322.512 478.796 317.182 464.069 325.986 453.152C334.791 442.235 344.45 437.394 342.393 445.077C340.336 452.759 322.345 468.229 321.546 483.075C320.747 497.921 318.766 508.649 336.202 496.35C353.637 484.051 377.396 454.794 370.905 438.194L364.366 421.573Z" fill="#1C4670" fill-opacity="0.45"/>
<path d="M222 461C222 461 326.491 401.303 365.139 420.979C365.139 420.979 378.077 434.599 401.127 441.133L407 446.961C407 446.961 378.877 436.171 371.685 438.376C371.692 438.376 363.286 393.468 222 461Z" fill="#8BC0CC"/>
<path d="M401.261 441.183C401.261 441.183 432.452 446.658 449 475.611L445.038 478C445.038 478 422.282 450.828 403.039 445.256C383.796 439.685 401.261 441.183 401.261 441.183Z" fill="#599DAD"/>
<path d="M408.423 351.913C408.423 351.913 462.867 304.098 424.021 263.223C424.021 263.223 394.801 239.266 368.497 237.112C368.497 237.112 396.596 304.421 383.759 308.876C370.923 313.332 357.855 231.618 357.855 231.618C357.855 231.618 286.08 214.138 261.052 222.06C261.052 222.06 316.001 281.924 302.464 283.109C288.926 284.295 228.852 224.636 228.852 224.636C228.852 224.636 159.446 226.481 157.168 268.359C154.889 310.238 176.391 326.356 186.809 326.721C197.227 327.086 260.519 312.722 260.61 321.318C260.701 329.914 220.649 352.249 195.187 349.913C195.187 349.913 235.414 409.467 269.331 398.794C303.249 388.121 309.397 364.41 330.478 358.172C351.559 351.934 368.441 354.397 358.956 362.452C349.47 370.508 312.377 374.382 298.201 392.766C284.026 411.151 271.946 423.242 305.492 422.996C339.038 422.751 395.853 406.331 402.127 379.125L408.423 351.913Z" fill="#BCECF7"/>
<path d="M190 274C190 274 374.233 293.379 407.214 352.344C407.214 352.344 412.331 380.808 436.382 409.526L439 422C439 422 412.031 383.475 400.958 379.782C400.958 379.782 428.004 316.565 190 274Z" fill="#8BC0CC"/>
<path d="M436.84 409.009C436.84 409.009 472.296 443.684 467.566 496L460.273 495.616C460.273 495.616 455.346 440.134 435.488 415.901C415.631 391.668 436.84 409.009 436.84 409.009Z" fill="#6BB7BF"/>
<path d="M395.875 792.365C395.875 792.365 466.634 776.51 452.009 722.339C452.009 722.339 437.763 687.532 415.661 673.135C415.661 673.135 408.183 745.274 394.759 743.063C381.334 740.852 408.921 663.278 408.921 663.278C408.921 663.278 354.156 613.886 328.339 608.87C328.339 608.87 348.04 687.274 335.578 681.847C323.115 676.42 298.78 595.812 298.78 595.812C298.78 595.812 236.853 564.423 214.807 599.907C192.76 635.391 203.987 659.686 212.974 664.96C221.961 670.233 284.492 687.804 280.476 695.365C276.46 702.927 230.541 703.373 209.246 689.22C209.246 689.22 216.155 760.369 251.099 767.156C286.043 773.943 302.796 756.17 324.316 760.767C345.836 765.363 359.52 775.527 347.317 778.052C335.114 780.577 300.654 766.291 279.38 775.631C258.106 784.971 241.705 789.749 271.334 805.486C300.963 821.223 358.796 833.911 377.353 813.159L395.875 792.365Z" fill="#BCECF7"/>
<path d="M241 620C241 620 393.84 725.135 395 792.203C395 792.203 386.062 819.391 393.651 855.904L390.066 868C390.066 868 384.538 821.596 376.551 813.077C376.551 813.028 430.179 771.048 241 620Z" fill="#8BC0CC"/>
<path d="M394.279 856.815C394.279 856.815 409.445 904.18 378.543 948L372 944.203C372 944.203 395.596 893.013 389.542 862.241C383.487 831.468 394.279 856.815 394.279 856.815Z" fill="#6BB7BF"/>
<path d="M864 303H350V1025H864V303Z" fill="#1C4670"/>
<path d="M846 323H368V1012H846V323Z" fill="#DCF6F9"/>
<path d="M808 408H417V429H808V408Z" fill="#FFA229"/>
<path d="M808 544H417V554H808V544Z" fill="#FFA229"/>
<path d="M808 567H417V578H808V567Z" fill="#FFA229"/>
<path d="M808 592H417V602H808V592Z" fill="#FFA229"/>
<path d="M808 616H417V627H808V616Z" fill="#FFA229"/>
<path d="M808 640H417V650H808V640Z" fill="#FFA229"/>
<path d="M808 664H417V674H808V664Z" fill="#FFA229"/>
<path d="M512.884 831.94C528.252 825.574 535.55 807.955 529.184 792.587C522.818 777.218 505.199 769.92 489.831 776.286C474.463 782.652 467.164 800.271 473.53 815.639C479.896 831.008 497.515 838.306 512.884 831.94Z" fill="#FFA229"/>
<path d="M657.516 833H657.262C656.866 832.932 656.514 832.711 656.281 832.386C656.049 832.062 655.955 831.659 656.02 831.266C656.303 829.616 663.2 790.767 684.938 777.54C686.489 776.603 687.463 777.093 687.9 777.463C689.811 779.085 688.359 783.21 681.813 798.765C679.204 804.966 676.114 812.321 674.838 816.788C677.158 813.782 680.621 808.629 683.372 804.533C691.97 791.732 693.648 789.649 695.362 789.649C695.663 789.646 695.96 789.716 696.227 789.854C696.494 789.992 696.723 790.193 696.893 790.439C697.803 791.732 697.111 793.934 694.734 800.282C693.666 802.959 692.762 805.698 692.026 808.482C693.525 806.954 694.909 805.318 696.166 803.589C699.15 799.751 700.659 797.912 702.436 798.192C702.84 798.265 703.214 798.45 703.515 798.726C703.816 799.002 704.032 799.358 704.136 799.751C704.308 800.285 704.426 800.836 704.489 801.394C704.722 802.932 704.99 804.672 706.859 805.721C710.632 807.818 721.508 807.706 751.892 795.151C752.266 794.998 752.687 794.998 753.06 795.152C753.434 795.306 753.73 795.601 753.885 795.972C754.039 796.343 754.038 796.759 753.883 797.13C753.728 797.5 753.43 797.794 753.056 797.947C727.404 808.545 711.803 811.929 705.37 808.357C702.239 806.609 701.773 803.68 701.498 801.904C700.638 802.806 699.439 804.358 698.557 805.49C695.271 809.734 693.112 812.286 690.905 812.111C690.58 812.084 690.265 811.982 689.987 811.815C689.708 811.648 689.471 811.419 689.297 811.146C688.246 809.496 689.297 806.252 691.878 799.261C692.294 798.15 692.774 796.863 693.19 795.668C691.074 798.52 688.253 802.771 685.918 806.217C676.284 820.549 674.542 822.625 672.602 822.101C672.203 821.986 671.853 821.744 671.608 821.411C671.363 821.078 671.236 820.674 671.248 820.262C671.05 816.907 674.203 809.126 679.006 797.632C681.461 791.795 684.649 784.147 685.474 780.784C665.725 793.948 659.06 831.406 658.997 831.818C658.923 832.153 658.736 832.453 658.466 832.668C658.197 832.883 657.861 833 657.516 833Z" fill="#1C4670"/>
<path d="M719.236 290.987H658.887C660.743 286.068 661.378 280.771 660.74 275.552C660.101 270.333 658.207 265.346 655.22 261.021C652.233 256.695 648.243 253.16 643.592 250.718C638.94 248.276 633.766 247 628.514 247C623.262 247 618.088 248.276 613.436 250.718C608.785 253.16 604.794 256.695 601.808 261.021C598.821 265.346 596.927 270.333 596.288 275.552C595.65 280.771 596.285 286.068 598.141 290.987H537.792C535.46 290.987 533.224 291.915 531.575 293.566C529.926 295.216 529 297.455 529 299.79V324.198C529 326.532 529.926 328.771 531.575 330.422C533.224 332.073 535.46 333 537.792 333H719.208C721.54 333 723.776 332.073 725.425 330.422C727.074 328.771 728 326.532 728 324.198V299.79C728 297.46 727.078 295.225 725.435 293.575C723.792 291.926 721.563 290.995 719.236 290.987ZM628.528 291.483C626.157 291.482 623.84 290.777 621.87 289.457C619.899 288.138 618.364 286.263 617.458 284.07C616.552 281.877 616.315 279.464 616.779 277.136C617.242 274.809 618.384 272.671 620.061 270.993C621.738 269.315 623.874 268.173 626.199 267.71C628.524 267.248 630.934 267.486 633.124 268.395C635.314 269.303 637.186 270.841 638.503 272.815C639.819 274.788 640.522 277.109 640.522 279.482C640.522 281.06 640.212 282.622 639.608 284.08C639.004 285.537 638.119 286.861 637.004 287.976C635.888 289.09 634.565 289.974 633.108 290.576C631.651 291.178 630.09 291.486 628.514 291.483H628.528Z" fill="#FFA229"/>
<path d="M50.4881 1022.24C62.6006 1009.81 83.9458 1001.26 108.604 1000.26V963.647H66.0743C65.1307 963.647 64.292 962.82 63.7539 961.543C63.3495 960.524 63.1477 959.435 63.1597 958.338V956.486C63.1597 953.568 64.4737 951.183 66.0743 951.183H108.611V848.91C108.611 847.608 109.126 846.359 110.044 845.438C110.962 844.517 112.206 844 113.504 844C114.801 844 116.045 844.517 116.963 845.438C117.881 846.359 118.396 847.608 118.396 848.91V951.183H160.933C162.533 951.183 163.847 953.568 163.847 956.486V958.338C163.862 959.468 163.645 960.59 163.211 961.634C162.68 962.855 161.855 963.647 160.933 963.647H118.396V1000.26C143.054 1001.26 164.399 1009.81 176.512 1022.24C177.393 1023.13 178.222 1024.06 179 1025H48C48.7735 1024.06 49.6028 1023.13 50.4881 1022.24Z" fill="#1C3A3E"/>
<path d="M108 1000.29C125.358 1001.89 140.282 1010.28 148.908 1022.22C149.566 1023.13 150.185 1024.05 150.763 1025H163C162.417 1024.06 161.796 1023.13 161.138 1022.22C151.503 1008.9 134.047 1000 114.108 1000C112.048 1000.04 110.003 1000.1 108 1000.29Z" fill="#1C4670"/>
<path d="M243 999.933C243 999.933 244.489 1024.6 249.138 1024.95C249.756 1025 272.707 1025 272.707 1025L302 1024.83C302 1024.83 301.81 1017.57 293.242 1016.04C284.674 1014.51 270.347 1008.33 265.15 996.71C259.701 984.479 243 999.933 243 999.933Z" fill="#163560"/>
<path d="M127.297 824.614C131.521 831.576 136.218 838.244 141.354 844.569C156.775 863.944 173.559 879.919 176.497 895.02C177.162 898.302 178.069 901.53 179.21 904.679C180.433 908.177 181.944 911.779 183.687 915.535C190.231 929.684 200.015 945.534 209.785 959.942C226.653 984.849 240.507 1001.57 240.507 1001.57C240.507 1001.57 244.935 1005 257.6 1005C261.115 1005 273 1003.08 273 1003.08C271.833 1000.17 257.818 967.104 240.823 925.075L219.505 872.365C218.563 870.022 217.614 867.7 216.694 865.371C214.529 860.013 212.399 854.739 210.319 849.605L181.649 778.717C181.649 778.717 117.864 754.67 111.236 770.254C105.719 783.11 110.168 795.7 127.297 824.614Z" fill="#1C3A3E"/>
<path d="M332 758H235V1025H332V758Z" fill="#49ADB7"/>
<path d="M328 1025H397L397 758H328V1025Z" fill="#8BC0CC"/>
<path d="M328 753H229V758H328V753Z" fill="#24555E"/>
<path d="M405 753H328V758H405V753Z" fill="#49ADB7"/>
<path d="M227.281 717C227.281 717 241.37 724.949 245.313 724.949C249.256 724.949 264.748 721.975 269.062 724.168C273.377 726.361 281.227 735.155 282.658 738.03C285.291 743.204 272.046 740.918 265.785 736.511C265.336 736.194 264.826 735.974 264.286 735.864C263.746 735.754 263.19 735.757 262.651 735.872C259.41 736.582 252.676 737.788 249.42 736.582C245.041 734.971 222 733.189 222 733.189L227.281 717Z" fill="#F9A6A0"/>
<path d="M123 609.33C123 609.33 137.24 711.956 160.81 721.15C172.442 725.684 223.851 736.003 239.06 737C239.06 737 242.784 733.93 241.85 721.44C241.85 721.44 187.986 701.389 180.336 690.483C168.948 674.216 187.407 624.169 173.119 608.927C158.83 593.686 134.792 587.143 123 609.33Z" fill="white" fill-opacity="0.36"/>
<path d="M175.592 932C175.592 932 155.136 945.143 157.138 949.416C157.408 949.984 168.715 970.231 168.715 970.231L183.294 996C183.294 996 189.433 992.352 186.53 984.063C183.627 975.774 181.874 960.161 189.305 949.998C197.078 939.324 175.592 932 175.592 932Z" fill="#FF4B42"/>
<path d="M187.196 957C187.196 957 173.013 943.802 170.79 935.637C170.79 935.637 222.686 873.363 233.94 859.402C234.457 858.765 234.324 858.064 233.646 857.301C225.146 847.709 130.729 828.195 118.391 808.989C114.713 803.346 112.016 797.119 110.416 790.574C107.62 778.839 109.828 770.731 109.828 770.731L204.127 768C204.127 768 282.634 816.971 291.505 850.355C300.375 883.74 187.196 957 187.196 957Z" fill="#24555E"/>
<path d="M234 858C225.447 848.292 130.44 828.544 118.026 809.108C114.325 803.398 111.611 797.097 110 790.473V778.377L150.325 772C150.325 772 161.762 807.429 195.63 820.743C227.353 833.2 233.367 855.265 234 858Z" fill="#1C3A3E"/>
<path d="M178 604.14C158.811 609.047 127 591.361 127 591.361C127 591.361 139.347 583.083 143.925 564.907C144.164 563.988 144.368 563.056 144.558 562.103L154.402 560L169.056 573.087C168.63 578.051 167.907 582.985 166.89 587.863C166.571 589.494 166.203 591.242 165.786 593.107C170.501 596.008 174.641 599.748 178 604.14Z" fill="#FCBDB6"/>
<path d="M107.514 683.18C110.257 720.229 106.651 776.58 109.759 786.341C112.446 794.756 143.045 789.752 155.253 786.94C159.772 785.904 165.244 784.417 170.9 782.655C186.672 777.722 203.876 770.752 205.701 765.551C205.77 765.355 205.829 765.155 205.876 764.952C206.041 764.235 206.041 763.491 205.876 762.774C205.259 760.124 202.894 757.256 202.614 750.688C202.305 743.365 202.347 734.732 202.073 725.458C202.073 724.408 202.073 723.273 201.933 722.23V721.85C201.933 721.652 201.933 721.455 201.933 721.258C201.673 710.912 201.133 700.031 200.53 689.241C200.13 682.468 199.674 675.752 199.126 669.325C197.723 652.728 195.899 637.971 193.443 628.64C189.437 613.431 180.596 603.509 172.548 596.222L166.732 591.211C160.235 592.62 152.552 591.69 145.613 588.392C138.091 584.805 135.495 582.239 134.19 583.205C116.754 596.666 104.272 637.886 107.514 683.18Z" fill="#FFA229"/>
<path d="M170.51 782C186.514 777.101 203.971 770.179 205.822 765.015C205.892 764.82 205.952 764.621 206 764.42C206 763.72 206 762.978 206 762.257C205.374 759.626 202.974 756.777 202.689 750.255C202.376 742.983 202.419 734.41 202.141 725.2C202.141 724.157 202.141 723.03 201.999 721.995V721.617C201.999 721.421 201.999 721.225 201.999 721.029L137.305 640C137.305 640 93.7563 729.028 170.51 782Z" fill="white" fill-opacity="0.36"/>
<path d="M170 573.155C169.577 578.142 168.858 583.099 167.846 588C153.615 583.366 147.161 570.394 145 564.93C145.238 564.007 145.441 563.07 145.629 562.113L155.42 560L170 573.155Z" fill="#F9A6A0"/>
<path d="M171.793 580.984C171.793 580.984 140.761 575.737 144.278 556.165C147.795 536.594 146.173 522.773 166.137 525.297C186.1 527.822 188.597 535.998 188.988 542.813C189.38 549.627 179.961 581.821 171.793 580.984Z" fill="#FCBDB6"/>
<path d="M240.035 748.256L317.269 748.249L338.255 680L341 680.855L318.809 753H240L240.035 748.256Z" fill="#1C4670"/>
<path d="M219 750.08C219 750.08 244.361 756.641 253.904 755.949C263.446 755.257 271.355 750.826 272.521 748.505C273.687 746.183 276.228 742.081 269.729 742.841C263.23 743.602 254.413 744.951 254.141 743.732C253.869 742.513 259.418 742.622 259.418 742.622C259.418 742.622 261.094 740.232 258.985 740.143C256.877 740.054 250.706 738.417 248.417 739.541C246.127 740.664 244.012 744.807 242.336 744.636C240.661 744.464 221.115 736 221.115 736L219 750.08Z" fill="#FCBDB6"/>
<path d="M129 615.807C129 615.807 132.001 718.157 154.443 729.793C165.517 735.53 215.531 751.303 230.506 754C230.506 754 234.546 751.4 235 739.045C235 739.045 183.612 713.405 177.192 701.846C167.632 684.648 191.435 637.512 178.881 620.964C166.327 604.416 143.138 595.317 129 615.807Z" fill="#FFA229"/>
<path d="M144.556 565C144.556 565 144.203 558.234 148.326 554.358C148.326 554.358 146.912 547.578 149.543 546.455C152.174 545.333 152.754 551.04 153.964 550.146C155.173 549.252 160.598 545.004 162.925 538.746C165.252 532.488 186.5 540.062 188.976 541.192C191.451 542.322 199.416 538.181 201 534.827C201 534.827 196.572 531.251 194.585 528.569C192.597 525.887 178.663 507.772 159.219 512.914C139.775 518.056 137.108 527.453 138.212 535.499C139.315 543.545 136.557 562.297 144.556 565Z" fill="#501506"/>
<path d="M180.1 811.117C150.83 811.119 121.864 805.125 94.9463 793.495L77.4779 785.951C73.8215 784.373 69.8353 783.737 65.8761 784.099C61.917 784.461 58.1084 785.811 54.7914 788.027C51.4744 790.244 48.7524 793.258 46.8691 796.799C44.9859 800.341 44 804.3 44 808.321V842.039C44.0056 843.619 44.6292 845.133 45.7347 846.25C46.8401 847.367 48.3376 847.996 49.9 848H180.1C181.662 847.996 183.16 847.367 184.265 846.25C185.371 845.133 185.994 843.619 186 842.039V817.071C185.993 815.492 185.368 813.98 184.263 812.864C183.158 811.749 181.661 811.121 180.1 811.117Z" fill="#8BC0CC"/>
<path d="M689.956 837.148C662.556 841.866 635.996 842.893 615.744 841.304C595.31 839.693 583.376 833.365 582.108 826.143C580.993 819.603 588.555 812.079 603.992 804.457C589.199 811.784 582.031 820.032 583.047 825.981C584.175 832.584 596.102 837.232 615.758 838.814C635.905 840.396 662.058 838.681 689.381 833.976C716.704 829.272 741.939 822.142 760.404 813.9C778.42 805.863 788.105 797.467 786.977 790.864C785.778 783.832 772.919 777.138 753.41 773.284C731.224 768.911 705.057 770.38 679.269 774.824C630.86 783.157 611.897 792.263 595.829 802.347C611.946 792.214 630.271 780.738 678.848 772.37C704.742 767.912 731.273 767.877 753.557 772.265C773.48 776.189 786.647 783.249 787.895 790.688C789.128 797.91 779.486 806.489 760.768 814.843C742.282 823.14 717.349 832.443 689.956 837.148Z" fill="#1C4670"/>
<path d="M1009 746.278C1009 746.278 1007.28 762.225 1005.4 765.262C1003.52 768.299 995.512 777.94 992.101 779.832C988.689 781.723 994.188 767.118 993.492 764.269C992.796 761.42 990.686 769.459 989.18 769.647C987.675 769.836 988.061 762.609 988.008 759.978C987.955 757.347 995.323 750.852 997.925 745.249C1000.53 739.646 1009 746.278 1009 746.278Z" fill="#FCBDB6"/>
<path d="M819 604.557L815.429 597.649C815.429 597.649 817.204 585.367 802.18 577.571C802.18 577.571 796.686 575.28 793.587 579.876C790.77 584.102 799.032 583.344 798.581 590.576C798.13 597.808 801.49 602.064 806.153 604.419L810.005 609L819 604.557Z" fill="#FCBDB6"/>
<path d="M959 589.261C959 589.261 946.212 651.327 875.856 671.603C853.896 677.934 804 606.417 804 606.417C804 606.417 805.752 599.824 816.739 601.343C816.739 601.343 865.323 633.149 871.438 636.608C876.869 639.673 912.559 597.194 928.831 590.352C945.102 583.51 959 589.261 959 589.261Z" fill="#FFA229" fill-opacity="0.56"/>
<path d="M771.578 576.186L769.574 589.234L835.2 599.312L837.204 586.263L771.578 576.186Z" fill="#FF4B42"/>
<path d="M755 580.843L769.027 589L771 577L755 580.843Z" fill="#1C3A3E"/>
<path d="M843.95 592.268L843.314 596.219C843.222 596.798 843.012 597.353 842.696 597.853C842.381 598.354 841.966 598.79 841.475 599.136C840.984 599.482 840.427 599.732 839.835 599.872C839.244 600.011 838.629 600.037 838.028 599.948L835 599.505L837 587L840.293 587.484C841.438 587.653 842.466 588.252 843.152 589.149C843.838 590.046 844.125 591.168 843.95 592.268Z" fill="#1C3A3E"/>
<path d="M1044.73 984.732C1044.73 984.732 1053.49 992.619 1051.78 998.224C1050.07 1003.83 1042.17 1007.56 1041.1 1014.41C1040.02 1021.26 1035.76 1025 1031.91 1025H1013.57C1013.57 1025 1010.77 1020.16 1017.58 1018.72C1024.39 1017.29 1026.99 1009.23 1026.57 1001.75C1026.14 994.271 1027.21 984.318 1027.21 984.318L1041.74 981L1044.73 984.732Z" fill="#FF4B42"/>
<path d="M935.685 1005C935.685 1005 937.237 1023.13 933.451 1025L885 1024.9C885 1024.9 885 1019.25 892.786 1017.99C900.571 1016.72 914.232 1012.12 916.549 1001.87C918.866 991.61 935.685 1005 935.685 1005Z" fill="#FF4B42"/>
<path d="M894 747.455C894 747.455 896.645 779.592 899.762 818.224C903.994 870.702 909.056 935.167 909.585 947.381C910.457 968.561 913.946 1002.51 913.946 1002.51C913.946 1002.51 922.232 1010.56 938.803 1007.16C938.803 1007.16 953.573 958.74 957.791 907.513C957.855 906.672 957.92 905.825 957.991 904.978C961.916 852.826 968 743 968 743L894 747.455Z" fill="#24555E"/>
<path d="M894 747.441C894 747.441 896.645 779.478 899.762 817.99L957.791 907C957.855 906.162 957.92 905.318 957.991 904.473C961.916 852.483 968 743 968 743L894 747.441Z" fill="#1C3A3E"/>
<path d="M907 751.847C907 751.847 953.733 867.809 984.463 922.298C1015.19 976.786 1024.79 992 1024.79 992C1024.79 992 1042.4 985.03 1044 980.282C1044 980.282 1032.25 875.075 1011.67 849.459C1000.04 834.97 986.38 791.481 985.778 776.31C985.177 761.139 981.58 731 981.58 731L907 751.847Z" fill="#24555E"/>
<path d="M969 574.185C969 574.185 937.288 589.386 919 583.745C922.48 579.735 926.677 576.399 931.379 573.906C930.747 570.259 930.256 567.093 929.976 564.415C929.538 561.196 929.28 557.956 929.204 554.709L941.442 545.149L953.042 536C952.123 561.731 969 574.185 969 574.185Z" fill="#FCBDB6"/>
<path d="M984.999 737.025C985.069 738.967 980.917 741.191 979.084 742.022C965.496 747.996 952.829 752.162 938.469 753.548C921.502 755.286 901.437 751.437 894.538 751.606C893.833 751.592 893.158 751.319 892.641 750.839C892.142 750.494 891.791 730.009 892.142 704.254C892.142 703.212 892.142 702.143 892.212 701.129V700.785C892.36 690.715 892.711 680.159 893.203 669.611C894.186 646.389 896.013 624.06 899.111 611.703C902.849 597.123 911.294 587.468 918.966 580.459L925.289 574.907C931.939 576.346 938.879 575.513 945.003 572.542C952.323 569.024 960.206 565.182 961.47 566.153C971.046 573.19 977.524 588.931 980.973 609.078C983.027 621.7 983.993 634.474 983.861 647.261C983.861 652.265 983.72 657.402 983.439 662.468C981.746 689.962 983.439 713.838 984.423 727.666C984.739 731.677 984.95 734.802 984.999 737.025Z" fill="#FFA229"/>
<path d="M985 736C874.531 735.785 964.624 616.783 964.624 616.783L982.522 611C984.007 624.371 984.706 637.817 984.616 651.269C984.616 656.538 984.518 661.954 984.316 667.293C983.08 696.28 984.295 721.462 985 736Z" fill="#FFA229" fill-opacity="0.56"/>
<path d="M953 545.681C953 545.681 945.002 559.991 929.77 564C929.334 560.826 929.077 557.63 929 554.428L941.214 545L953 545.681Z" fill="#F9A6A0"/>
<path d="M922.88 553.422C922.88 553.422 953.073 558.249 955.91 540.01C958.746 521.771 964.552 510.055 945.404 506.18C926.255 502.305 921.409 508.724 918.936 514.599C916.464 520.474 915.098 551.684 922.88 553.422Z" fill="#FCBDB6"/>
<path d="M967.65 504.334C967.928 504.015 968.569 503.76 970 503.682C969.181 503.234 968.264 502.991 967.33 502.973C967.031 500.99 965.97 497.49 962.545 496.64C963.103 496.962 963.581 497.407 963.943 497.939C964.304 498.472 964.539 499.079 964.631 499.715C960.665 495.663 952.17 492.716 928.644 494.565C897.633 497.001 907.851 516.752 911.867 519.104C915.883 521.456 925.988 515.002 933.464 515.562C940.941 516.122 942.365 526.897 944.9 528.384C947.435 529.872 946.445 527.251 949.884 525.706C953.323 524.162 953.644 529.822 952.647 533.499C951.65 537.176 956.371 542 956.371 542L961.142 536.892C965.906 531.785 970.399 510.15 968.263 505.545L967.65 504.334Z" fill="#501506"/>
<path d="M961.5 566C961.5 566 980.686 575.085 989.886 589.06C1004.16 610.734 1020.69 689.732 1020.99 697.044C1021.3 704.355 1008.95 756 1008.95 756C1008.95 756 996.392 755.177 993.157 748.836C993.157 748.836 995.668 695.777 994.078 692.364C992.489 688.951 941.743 621.184 947.447 606.723C953.151 592.262 961.5 566 961.5 566Z" fill="#FFA229"/>
<path d="M814.806 597.32C814.806 597.32 815.897 593.51 812.905 591.8C809.914 590.09 807.158 585.428 805.891 586.058C803.275 587.359 807.327 591.429 806.583 596.501C806.325 598.276 811.004 602.925 814.806 597.32Z" fill="#FCBDB6"/>
<path d="M0.964696 1028H1079.04C1079.57 1028 1080 1027.32 1080 1026.5C1080 1025.68 1079.57 1025 1079.04 1025H0.964696C0.434123 1025 0 1025.68 0 1026.5C0 1027.32 0.434123 1028 0.964696 1028Z" fill="#1C3A3E"/>
</svg>
