<svg width="1000" height="986" viewBox="0 0 1000 986" fill="none" xmlns="http://www.w3.org/2000/svg">
<rect width="1000" height="986" fill="#FEFAFA"/>
<path d="M120.729 96.4639L130.642 56.2344H136.008L136.35 64.7109L125.754 106H120.08L120.729 96.4639ZM114.475 56.2344L122.609 96.3271V106H116.423L105.144 56.2344H114.475ZM146.638 96.1562L154.636 56.2344H164.001L152.722 106H146.535L146.638 96.1562ZM138.571 56.2344L148.483 96.6006L149.064 106H143.391L132.829 64.6768L133.239 56.2344H138.571ZM178.835 69.0176V106H169.777V69.0176H178.835ZM169.162 59.3447C169.162 58.0003 169.618 56.8838 170.529 55.9951C171.464 55.1064 172.717 54.6621 174.289 54.6621C175.861 54.6621 177.103 55.1064 178.015 55.9951C178.949 56.8838 179.416 58.0003 179.416 59.3447C179.416 60.6663 178.949 61.7715 178.015 62.6602C177.103 63.5488 175.861 63.9932 174.289 63.9932C172.717 63.9932 171.464 63.5488 170.529 62.6602C169.618 61.7715 169.162 60.6663 169.162 59.3447ZM196.301 76.9131V106H187.277V69.0176H195.754L196.301 76.9131ZM194.865 86.1758H192.199C192.222 83.487 192.587 81.0488 193.293 78.8613C193.999 76.6738 194.991 74.7939 196.267 73.2217C197.565 71.6494 199.104 70.4417 200.881 69.5986C202.658 68.7555 204.641 68.334 206.828 68.334C208.605 68.334 210.212 68.5846 211.647 69.0859C213.083 69.5872 214.313 70.3848 215.339 71.4785C216.387 72.5723 217.185 74.0078 217.731 75.7852C218.301 77.5397 218.586 79.7044 218.586 82.2793V106H209.494V82.2109C209.494 80.5247 209.243 79.1917 208.742 78.2119C208.264 77.2321 207.557 76.5371 206.623 76.127C205.712 75.7168 204.584 75.5117 203.239 75.5117C201.849 75.5117 200.63 75.7965 199.582 76.3662C198.557 76.9131 197.691 77.6764 196.984 78.6562C196.301 79.6361 195.777 80.764 195.412 82.04C195.048 83.3161 194.865 84.6947 194.865 86.1758ZM248.732 98.1387V53.5H257.824V106H249.621L248.732 98.1387ZM224.978 87.9531V87.2354C224.978 84.4098 225.297 81.8464 225.935 79.5449C226.595 77.2207 227.552 75.2269 228.806 73.5635C230.059 71.9001 231.574 70.6126 233.352 69.7012C235.152 68.7897 237.191 68.334 239.47 68.334C241.68 68.334 243.605 68.7783 245.246 69.667C246.91 70.5557 248.322 71.8203 249.484 73.4609C250.669 75.1016 251.615 77.0498 252.321 79.3057C253.028 81.5387 253.54 83.9997 253.859 86.6885V88.6367C253.54 91.2572 253.028 93.6611 252.321 95.8486C251.615 98.0361 250.669 99.9502 249.484 101.591C248.322 103.209 246.91 104.462 245.246 105.351C243.583 106.239 241.634 106.684 239.401 106.684C237.146 106.684 235.118 106.216 233.317 105.282C231.54 104.348 230.025 103.038 228.771 101.352C227.541 99.6654 226.595 97.6829 225.935 95.4043C225.297 93.1257 224.978 90.6419 224.978 87.9531ZM234.035 87.2354V87.9531C234.035 89.5482 234.172 91.0407 234.445 92.4307C234.719 93.8206 235.163 95.0511 235.778 96.1221C236.394 97.1702 237.18 97.9906 238.137 98.583C239.117 99.1755 240.301 99.4717 241.691 99.4717C243.469 99.4717 244.927 99.0843 246.066 98.3096C247.229 97.512 248.129 96.4297 248.767 95.0625C249.405 93.6725 249.815 92.1117 249.997 90.3799V85.0137C249.906 83.6465 249.667 82.3818 249.279 81.2197C248.915 80.0576 248.391 79.055 247.707 78.2119C247.046 77.3688 246.226 76.708 245.246 76.2295C244.266 75.751 243.104 75.5117 241.76 75.5117C240.37 75.5117 239.185 75.8193 238.205 76.4346C237.225 77.027 236.428 77.8587 235.812 78.9297C235.197 80.0007 234.742 81.2425 234.445 82.6553C234.172 84.068 234.035 85.5947 234.035 87.2354ZM275.563 69.0176V106H266.506V69.0176H275.563ZM265.891 59.3447C265.891 58.0003 266.346 56.8838 267.258 55.9951C268.192 55.1064 269.445 54.6621 271.018 54.6621C272.59 54.6621 273.832 55.1064 274.743 55.9951C275.677 56.8838 276.145 58.0003 276.145 59.3447C276.145 60.6663 275.677 61.7715 274.743 62.6602C273.832 63.5488 272.59 63.9932 271.018 63.9932C269.445 63.9932 268.192 63.5488 267.258 62.6602C266.346 61.7715 265.891 60.6663 265.891 59.3447ZM293.029 76.9131V106H284.006V69.0176H292.482L293.029 76.9131ZM291.594 86.1758H288.928C288.951 83.487 289.315 81.0488 290.021 78.8613C290.728 76.6738 291.719 74.7939 292.995 73.2217C294.294 71.6494 295.832 70.4417 297.609 69.5986C299.387 68.7555 301.369 68.334 303.557 68.334C305.334 68.334 306.94 68.5846 308.376 69.0859C309.812 69.5872 311.042 70.3848 312.067 71.4785C313.116 72.5723 313.913 74.0078 314.46 75.7852C315.03 77.5397 315.314 79.7044 315.314 82.2793V106H306.223V82.2109C306.223 80.5247 305.972 79.1917 305.471 78.2119C304.992 77.2321 304.286 76.5371 303.352 76.127C302.44 75.7168 301.312 75.5117 299.968 75.5117C298.578 75.5117 297.359 75.7965 296.311 76.3662C295.285 76.9131 294.419 77.6764 293.713 78.6562C293.029 79.6361 292.505 80.764 292.141 82.04C291.776 83.3161 291.594 84.6947 291.594 86.1758ZM346.794 69.0176H354.997V104.872C354.997 108.222 354.268 111.059 352.81 113.383C351.374 115.73 349.357 117.507 346.76 118.715C344.162 119.945 341.143 120.561 337.702 120.561C336.221 120.561 334.615 120.355 332.883 119.945C331.174 119.535 329.522 118.886 327.927 117.997C326.354 117.131 325.044 116.003 323.996 114.613L328.063 109.281C329.294 110.717 330.684 111.799 332.233 112.528C333.783 113.28 335.458 113.656 337.258 113.656C339.081 113.656 340.63 113.314 341.906 112.631C343.205 111.97 344.196 110.99 344.88 109.691C345.586 108.415 345.939 106.843 345.939 104.975V77.46L346.794 69.0176ZM321.809 87.9531V87.2354C321.809 84.4098 322.15 81.8464 322.834 79.5449C323.518 77.2207 324.497 75.2269 325.773 73.5635C327.072 71.9001 328.633 70.6126 330.456 69.7012C332.302 68.7897 334.375 68.334 336.677 68.334C339.115 68.334 341.166 68.7783 342.829 69.667C344.515 70.5557 345.905 71.8203 346.999 73.4609C348.116 75.1016 348.981 77.0498 349.597 79.3057C350.235 81.5387 350.725 83.9997 351.066 86.6885V88.6367C350.747 91.2572 350.235 93.6611 349.528 95.8486C348.845 98.0361 347.933 99.9502 346.794 101.591C345.655 103.209 344.242 104.462 342.556 105.351C340.869 106.239 338.887 106.684 336.608 106.684C334.33 106.684 332.279 106.216 330.456 105.282C328.633 104.348 327.072 103.038 325.773 101.352C324.497 99.6654 323.518 97.6829 322.834 95.4043C322.15 93.1257 321.809 90.6419 321.809 87.9531ZM330.832 87.2354V87.9531C330.832 89.5482 330.992 91.0407 331.311 92.4307C331.63 93.8206 332.119 95.0511 332.78 96.1221C333.441 97.1702 334.273 97.9906 335.275 98.583C336.278 99.1755 337.474 99.4717 338.864 99.4717C340.733 99.4717 342.259 99.0843 343.444 98.3096C344.652 97.512 345.563 96.4297 346.179 95.0625C346.817 93.6725 347.227 92.1117 347.409 90.3799V85.0137C347.295 83.6465 347.045 82.3818 346.657 81.2197C346.293 80.0576 345.78 79.055 345.119 78.2119C344.458 77.3688 343.615 76.708 342.59 76.2295C341.564 75.751 340.345 75.5117 338.933 75.5117C337.565 75.5117 336.369 75.8193 335.344 76.4346C334.318 77.027 333.475 77.8587 332.814 78.9297C332.154 80.0007 331.652 81.2425 331.311 82.6553C330.992 84.068 330.832 85.5947 330.832 87.2354ZM402.575 97.2158V69.0176H411.667V106H403.122L402.575 97.2158ZM403.737 89.5596L406.54 89.4912C406.54 91.9749 406.267 94.265 405.72 96.3613C405.173 98.4577 404.318 100.281 403.156 101.83C402.017 103.357 400.57 104.553 398.815 105.419C397.061 106.262 394.987 106.684 392.595 106.684C390.772 106.684 389.108 106.433 387.604 105.932C386.101 105.408 384.802 104.599 383.708 103.505C382.637 102.388 381.805 100.964 381.213 99.2324C380.62 97.4779 380.324 95.3701 380.324 92.9092V69.0176H389.348V92.9775C389.348 94.208 389.484 95.2334 389.758 96.0537C390.054 96.874 390.453 97.5462 390.954 98.0703C391.478 98.5716 392.082 98.9362 392.766 99.1641C393.472 99.3691 394.224 99.4717 395.021 99.4717C397.209 99.4717 398.929 99.0387 400.183 98.1729C401.459 97.2842 402.37 96.0993 402.917 94.6182C403.464 93.1143 403.737 91.4281 403.737 89.5596ZM428.688 76.127V120.219H419.631V69.0176H428.005L428.688 76.127ZM452.443 87.1328V87.8506C452.443 90.5394 452.124 93.0345 451.486 95.3359C450.871 97.6146 449.96 99.6084 448.752 101.317C447.544 103.004 446.04 104.325 444.24 105.282C442.463 106.216 440.412 106.684 438.088 106.684C435.809 106.684 433.827 106.251 432.141 105.385C430.454 104.496 429.03 103.243 427.868 101.625C426.706 100.007 425.772 98.1273 425.065 95.9854C424.382 93.8206 423.869 91.4622 423.527 88.9102V86.6201C423.869 83.9085 424.382 81.4476 425.065 79.2373C425.772 77.0042 426.706 75.0788 427.868 73.4609C429.03 71.8203 430.443 70.5557 432.106 69.667C433.793 68.7783 435.764 68.334 438.02 68.334C440.367 68.334 442.429 68.7783 444.206 69.667C446.006 70.5557 447.521 71.8317 448.752 73.4951C449.982 75.1585 450.905 77.141 451.521 79.4424C452.136 81.7438 452.443 84.3073 452.443 87.1328ZM443.386 87.8506V87.1328C443.386 85.4922 443.238 83.9769 442.941 82.5869C442.645 81.1742 442.189 79.9437 441.574 78.8955C440.959 77.8245 440.161 76.9928 439.182 76.4004C438.202 75.8079 437.017 75.5117 435.627 75.5117C434.237 75.5117 433.041 75.7396 432.038 76.1953C431.035 76.651 430.215 77.3005 429.577 78.1436C428.939 78.9867 428.438 79.9893 428.073 81.1514C427.731 82.2907 427.504 83.5553 427.39 84.9453V90.6191C427.595 92.3053 427.993 93.8206 428.586 95.165C429.178 96.5094 430.044 97.5804 431.184 98.3779C432.346 99.1755 433.85 99.5742 435.695 99.5742C437.085 99.5742 438.27 99.2666 439.25 98.6514C440.23 98.0361 441.027 97.193 441.643 96.1221C442.258 95.0283 442.702 93.7751 442.976 92.3623C443.249 90.9495 443.386 89.4456 443.386 87.8506ZM474.865 87.8848V87.167C474.865 84.4554 475.253 81.9603 476.027 79.6816C476.802 77.3802 477.93 75.3864 479.411 73.7002C480.892 72.014 482.704 70.7038 484.846 69.7695C486.988 68.8125 489.426 68.334 492.16 68.334C494.94 68.334 497.401 68.8125 499.543 69.7695C501.708 70.7038 503.531 72.014 505.012 73.7002C506.493 75.3864 507.621 77.3802 508.396 79.6816C509.17 81.9603 509.558 84.4554 509.558 87.167V87.8848C509.558 90.5736 509.17 93.0687 508.396 95.3701C507.621 97.6488 506.493 99.6426 505.012 101.352C503.531 103.038 501.719 104.348 499.577 105.282C497.435 106.216 494.986 106.684 492.229 106.684C489.494 106.684 487.045 106.216 484.88 105.282C482.715 104.348 480.892 103.038 479.411 101.352C477.93 99.6426 476.802 97.6488 476.027 95.3701C475.253 93.0687 474.865 90.5736 474.865 87.8848ZM483.889 87.167V87.8848C483.889 89.5026 484.048 91.0179 484.367 92.4307C484.686 93.8434 485.176 95.0853 485.837 96.1562C486.498 97.2272 487.352 98.0703 488.4 98.6855C489.471 99.278 490.747 99.5742 492.229 99.5742C493.687 99.5742 494.94 99.278 495.988 98.6855C497.036 98.0703 497.891 97.2272 498.552 96.1562C499.235 95.0853 499.737 93.8434 500.056 92.4307C500.375 91.0179 500.534 89.5026 500.534 87.8848V87.167C500.534 85.5719 500.375 84.0794 500.056 82.6895C499.737 81.2767 499.235 80.0348 498.552 78.9639C497.891 77.8701 497.025 77.0156 495.954 76.4004C494.906 75.7624 493.641 75.4434 492.16 75.4434C490.702 75.4434 489.449 75.7624 488.4 76.4004C487.352 77.0156 486.498 77.8701 485.837 78.9639C485.176 80.0348 484.686 81.2767 484.367 82.6895C484.048 84.0794 483.889 85.5719 483.889 87.167ZM527.946 106H518.854V65.5996C518.854 62.8197 519.39 60.484 520.461 58.5928C521.532 56.6787 523.059 55.2318 525.041 54.252C527.023 53.2721 529.359 52.7822 532.048 52.7822C532.937 52.7822 533.78 52.8392 534.577 52.9531C535.397 53.0671 536.206 53.2266 537.004 53.4316L536.833 60.3018C536.4 60.1878 535.922 60.1081 535.397 60.0625C534.896 60.0169 534.338 59.9941 533.723 59.9941C532.492 59.9941 531.444 60.2106 530.578 60.6436C529.712 61.0765 529.051 61.7145 528.596 62.5576C528.163 63.3779 527.946 64.3919 527.946 65.5996V106ZM535.432 69.0176V75.5117H513.283V69.0176H535.432ZM578.806 98.1387V81.083C578.806 79.8298 578.589 78.7474 578.156 77.8359C577.723 76.9245 577.062 76.2181 576.174 75.7168C575.285 75.2155 574.157 74.9648 572.79 74.9648C571.582 74.9648 570.523 75.1699 569.611 75.5801C568.723 75.9902 568.039 76.5713 567.561 77.3232C567.082 78.0524 566.843 78.8955 566.843 79.8525H557.785C557.785 78.3258 558.15 76.8789 558.879 75.5117C559.608 74.1217 560.645 72.8913 561.989 71.8203C563.356 70.7266 564.986 69.8721 566.877 69.2568C568.791 68.6416 570.933 68.334 573.303 68.334C576.105 68.334 578.601 68.8125 580.788 69.7695C582.998 70.7038 584.73 72.1165 585.983 74.0078C587.259 75.8991 587.897 78.2803 587.897 81.1514V97.2842C587.897 99.1299 588.011 100.714 588.239 102.035C588.49 103.334 588.854 104.462 589.333 105.419V106H580.139C579.706 105.066 579.375 103.881 579.147 102.445C578.92 100.987 578.806 99.5514 578.806 98.1387ZM580.07 83.4756L580.139 88.8418H574.431C573.018 88.8418 571.776 88.9899 570.705 89.2861C569.634 89.5596 568.757 89.9697 568.073 90.5166C567.39 91.0407 566.877 91.6787 566.535 92.4307C566.193 93.1598 566.022 93.9915 566.022 94.9258C566.022 95.8372 566.228 96.6576 566.638 97.3867C567.071 98.1159 567.686 98.6969 568.483 99.1299C569.304 99.54 570.261 99.7451 571.354 99.7451C572.95 99.7451 574.34 99.4261 575.524 98.7881C576.709 98.1273 577.632 97.3298 578.293 96.3955C578.954 95.4613 579.307 94.5726 579.353 93.7295L581.95 97.626C581.631 98.5602 581.153 99.5514 580.515 100.6C579.877 101.648 579.056 102.628 578.054 103.539C577.051 104.451 575.843 105.202 574.431 105.795C573.018 106.387 571.377 106.684 569.509 106.684C567.116 106.684 564.974 106.205 563.083 105.248C561.192 104.291 559.699 102.981 558.605 101.317C557.512 99.654 556.965 97.7627 556.965 95.6436C556.965 93.6839 557.329 91.9521 558.059 90.4482C558.788 88.9443 559.87 87.6797 561.306 86.6543C562.741 85.6061 564.519 84.82 566.638 84.2959C568.78 83.749 571.229 83.4756 573.986 83.4756H580.07Z" fill="#1C4670"/>
<path d="M628.64 99.5742C629.916 99.5742 631.055 99.3236 632.058 98.8223C633.06 98.321 633.858 97.6146 634.45 96.7031C635.065 95.7917 635.396 94.7321 635.441 93.5244H643.952C643.907 96.0309 643.2 98.2754 641.833 100.258C640.466 102.24 638.643 103.812 636.364 104.975C634.108 106.114 631.579 106.684 628.776 106.684C625.928 106.684 623.444 106.205 621.325 105.248C619.206 104.291 617.44 102.958 616.027 101.249C614.637 99.54 613.589 97.5576 612.883 95.3018C612.199 93.0459 611.857 90.6305 611.857 88.0557V86.9619C611.857 84.387 612.199 81.9717 612.883 79.7158C613.589 77.46 614.637 75.4775 616.027 73.7686C617.44 72.0596 619.206 70.7266 621.325 69.7695C623.444 68.8125 625.917 68.334 628.742 68.334C631.727 68.334 634.348 68.915 636.604 70.0771C638.882 71.2393 640.66 72.8799 641.936 74.999C643.234 77.1182 643.907 79.6133 643.952 82.4844H635.441C635.396 81.1628 635.1 79.9779 634.553 78.9297C634.006 77.8815 633.231 77.0384 632.229 76.4004C631.226 75.7624 630.007 75.4434 628.571 75.4434C627.045 75.4434 625.769 75.7624 624.743 76.4004C623.741 77.0384 622.954 77.9157 622.385 79.0322C621.838 80.126 621.451 81.3564 621.223 82.7236C621.018 84.068 620.915 85.4808 620.915 86.9619V88.0557C620.915 89.5596 621.018 90.9951 621.223 92.3623C621.451 93.7295 621.838 94.96 622.385 96.0537C622.954 97.1247 623.741 97.9792 624.743 98.6172C625.769 99.2552 627.067 99.5742 628.64 99.5742ZM648.361 87.8848V87.167C648.361 84.4554 648.749 81.9603 649.523 79.6816C650.298 77.3802 651.426 75.3864 652.907 73.7002C654.388 72.014 656.2 70.7038 658.342 69.7695C660.484 68.8125 662.922 68.334 665.656 68.334C668.436 68.334 670.897 68.8125 673.039 69.7695C675.204 70.7038 677.027 72.014 678.508 73.7002C679.989 75.3864 681.117 77.3802 681.892 79.6816C682.666 81.9603 683.054 84.4554 683.054 87.167V87.8848C683.054 90.5736 682.666 93.0687 681.892 95.3701C681.117 97.6488 679.989 99.6426 678.508 101.352C677.027 103.038 675.215 104.348 673.073 105.282C670.931 106.216 668.482 106.684 665.725 106.684C662.99 106.684 660.541 106.216 658.376 105.282C656.211 104.348 654.388 103.038 652.907 101.352C651.426 99.6426 650.298 97.6488 649.523 95.3701C648.749 93.0687 648.361 90.5736 648.361 87.8848ZM657.385 87.167V87.8848C657.385 89.5026 657.544 91.0179 657.863 92.4307C658.182 93.8434 658.672 95.0853 659.333 96.1562C659.994 97.2272 660.848 98.0703 661.896 98.6855C662.967 99.278 664.243 99.5742 665.725 99.5742C667.183 99.5742 668.436 99.278 669.484 98.6855C670.533 98.0703 671.387 97.2272 672.048 96.1562C672.731 95.0853 673.233 93.8434 673.552 92.4307C673.871 91.0179 674.03 89.5026 674.03 87.8848V87.167C674.03 85.5719 673.871 84.0794 673.552 82.6895C673.233 81.2767 672.731 80.0348 672.048 78.9639C671.387 77.8701 670.521 77.0156 669.45 76.4004C668.402 75.7624 667.137 75.4434 665.656 75.4434C664.198 75.4434 662.945 75.7624 661.896 76.4004C660.848 77.0156 659.994 77.8701 659.333 78.9639C658.672 80.0348 658.182 81.2767 657.863 82.6895C657.544 84.0794 657.385 85.5719 657.385 87.167ZM698.605 76.6055V106H689.582V69.0176H698.093L698.605 76.6055ZM697.272 86.1758H694.504C694.504 83.6009 694.812 81.2311 695.427 79.0664C696.065 76.9017 696.999 75.0218 698.229 73.4268C699.46 71.8089 700.975 70.5557 702.775 69.667C704.598 68.7783 706.706 68.334 709.099 68.334C710.762 68.334 712.289 68.5846 713.679 69.0859C715.069 69.5645 716.265 70.3278 717.268 71.376C718.293 72.4014 719.079 73.7458 719.626 75.4092C720.173 77.0498 720.446 79.0208 720.446 81.3223V106H711.423V82.2451C711.423 80.5133 711.172 79.1576 710.671 78.1777C710.192 77.1979 709.497 76.5143 708.586 76.127C707.674 75.7168 706.581 75.5117 705.305 75.5117C703.892 75.5117 702.673 75.7965 701.647 76.3662C700.645 76.9131 699.813 77.6764 699.152 78.6562C698.514 79.6361 698.036 80.764 697.717 82.04C697.421 83.3161 697.272 84.6947 697.272 86.1758ZM719.763 84.501L716.037 85.1846C716.06 82.8604 716.379 80.6842 716.994 78.6562C717.609 76.6055 718.509 74.8167 719.694 73.29C720.902 71.7406 722.395 70.5329 724.172 69.667C725.972 68.7783 728.046 68.334 730.393 68.334C732.215 68.334 733.856 68.596 735.314 69.1201C736.796 69.6214 738.06 70.4303 739.108 71.5469C740.157 72.6406 740.954 74.0648 741.501 75.8193C742.071 77.5739 742.355 79.7158 742.355 82.2451V106H733.264V82.2109C733.264 80.4108 733.013 79.0322 732.512 78.0752C732.033 77.1182 731.338 76.4574 730.427 76.0928C729.515 75.7054 728.444 75.5117 727.214 75.5117C725.961 75.5117 724.867 75.751 723.933 76.2295C723.021 76.6852 722.246 77.3232 721.608 78.1436C720.993 78.9639 720.526 79.9209 720.207 81.0146C719.911 82.0856 719.763 83.2477 719.763 84.501ZM759.479 76.127V120.219H750.422V69.0176H758.796L759.479 76.127ZM783.234 87.1328V87.8506C783.234 90.5394 782.915 93.0345 782.277 95.3359C781.662 97.6146 780.751 99.6084 779.543 101.317C778.335 103.004 776.831 104.325 775.031 105.282C773.254 106.216 771.203 106.684 768.879 106.684C766.6 106.684 764.618 106.251 762.932 105.385C761.245 104.496 759.821 103.243 758.659 101.625C757.497 100.007 756.563 98.1273 755.856 95.9854C755.173 93.8206 754.66 91.4622 754.318 88.9102V86.6201C754.66 83.9085 755.173 81.4476 755.856 79.2373C756.563 77.0042 757.497 75.0788 758.659 73.4609C759.821 71.8203 761.234 70.5557 762.897 69.667C764.584 68.7783 766.555 68.334 768.811 68.334C771.158 68.334 773.22 68.7783 774.997 69.667C776.797 70.5557 778.312 71.8317 779.543 73.4951C780.773 75.1585 781.696 77.141 782.312 79.4424C782.927 81.7438 783.234 84.3073 783.234 87.1328ZM774.177 87.8506V87.1328C774.177 85.4922 774.029 83.9769 773.732 82.5869C773.436 81.1742 772.98 79.9437 772.365 78.8955C771.75 77.8245 770.952 76.9928 769.973 76.4004C768.993 75.8079 767.808 75.5117 766.418 75.5117C765.028 75.5117 763.832 75.7396 762.829 76.1953C761.826 76.651 761.006 77.3005 760.368 78.1436C759.73 78.9867 759.229 79.9893 758.864 81.1514C758.522 82.2907 758.295 83.5553 758.181 84.9453V90.6191C758.386 92.3053 758.785 93.8206 759.377 95.165C759.969 96.5094 760.835 97.5804 761.975 98.3779C763.137 99.1755 764.641 99.5742 766.486 99.5742C767.876 99.5742 769.061 99.2666 770.041 98.6514C771.021 98.0361 771.818 97.193 772.434 96.1221C773.049 95.0283 773.493 93.7751 773.767 92.3623C774.04 90.9495 774.177 89.4456 774.177 87.8506ZM810.202 98.1387V81.083C810.202 79.8298 809.986 78.7474 809.553 77.8359C809.12 76.9245 808.459 76.2181 807.57 75.7168C806.682 75.2155 805.554 74.9648 804.187 74.9648C802.979 74.9648 801.919 75.1699 801.008 75.5801C800.119 75.9902 799.436 76.5713 798.957 77.3232C798.479 78.0524 798.239 78.8955 798.239 79.8525H789.182C789.182 78.3258 789.546 76.8789 790.275 75.5117C791.005 74.1217 792.041 72.8913 793.386 71.8203C794.753 70.7266 796.382 69.8721 798.273 69.2568C800.188 68.6416 802.329 68.334 804.699 68.334C807.502 68.334 809.997 68.8125 812.185 69.7695C814.395 70.7038 816.127 72.1165 817.38 74.0078C818.656 75.8991 819.294 78.2803 819.294 81.1514V97.2842C819.294 99.1299 819.408 100.714 819.636 102.035C819.886 103.334 820.251 104.462 820.729 105.419V106H811.535C811.102 105.066 810.772 103.881 810.544 102.445C810.316 100.987 810.202 99.5514 810.202 98.1387ZM811.467 83.4756L811.535 88.8418H805.827C804.414 88.8418 803.173 88.9899 802.102 89.2861C801.031 89.5596 800.153 89.9697 799.47 90.5166C798.786 91.0407 798.273 91.6787 797.932 92.4307C797.59 93.1598 797.419 93.9915 797.419 94.9258C797.419 95.8372 797.624 96.6576 798.034 97.3867C798.467 98.1159 799.082 98.6969 799.88 99.1299C800.7 99.54 801.657 99.7451 802.751 99.7451C804.346 99.7451 805.736 99.4261 806.921 98.7881C808.106 98.1273 809.029 97.3298 809.689 96.3955C810.35 95.4613 810.703 94.5726 810.749 93.7295L813.347 97.626C813.028 98.5602 812.549 99.5514 811.911 100.6C811.273 101.648 810.453 102.628 809.45 103.539C808.448 104.451 807.24 105.202 805.827 105.795C804.414 106.387 802.774 106.684 800.905 106.684C798.513 106.684 796.371 106.205 794.479 105.248C792.588 104.291 791.096 102.981 790.002 101.317C788.908 99.654 788.361 97.7627 788.361 95.6436C788.361 93.6839 788.726 91.9521 789.455 90.4482C790.184 88.9443 791.267 87.6797 792.702 86.6543C794.138 85.6061 795.915 84.82 798.034 84.2959C800.176 83.749 802.626 83.4756 805.383 83.4756H811.467ZM836.281 76.9131V106H827.258V69.0176H835.734L836.281 76.9131ZM834.846 86.1758H832.18C832.202 83.487 832.567 81.0488 833.273 78.8613C833.98 76.6738 834.971 74.7939 836.247 73.2217C837.546 71.6494 839.084 70.4417 840.861 69.5986C842.639 68.7555 844.621 68.334 846.809 68.334C848.586 68.334 850.192 68.5846 851.628 69.0859C853.063 69.5872 854.294 70.3848 855.319 71.4785C856.368 72.5723 857.165 74.0078 857.712 75.7852C858.282 77.5397 858.566 79.7044 858.566 82.2793V106H849.475V82.2109C849.475 80.5247 849.224 79.1917 848.723 78.2119C848.244 77.2321 847.538 76.5371 846.604 76.127C845.692 75.7168 844.564 75.5117 843.22 75.5117C841.83 75.5117 840.611 75.7965 839.562 76.3662C838.537 76.9131 837.671 77.6764 836.965 78.6562C836.281 79.6361 835.757 80.764 835.393 82.04C835.028 83.3161 834.846 84.6947 834.846 86.1758ZM877.365 101.898L887.277 69.0176H896.95L882.116 111.605C881.774 112.517 881.33 113.508 880.783 114.579C880.259 115.65 879.553 116.664 878.664 117.621C877.775 118.601 876.659 119.398 875.314 120.014C873.993 120.629 872.386 120.937 870.495 120.937C869.675 120.937 868.946 120.88 868.308 120.766C867.67 120.652 866.997 120.504 866.291 120.321V113.554C866.519 113.576 866.781 113.588 867.077 113.588C867.396 113.611 867.67 113.622 867.897 113.622C869.219 113.622 870.313 113.463 871.179 113.144C872.045 112.847 872.74 112.357 873.264 111.674C873.811 111.013 874.266 110.147 874.631 109.076L877.365 101.898ZM872.478 69.0176L880.852 96.2588L882.321 105.795L876.101 106.923L862.736 69.0176H872.478ZM324.953 136.234V186H315.588V136.234H324.953ZM340.402 136.234V143.651H300.31V136.234H340.402ZM354.826 133.5V186H345.769V133.5H354.826ZM353.391 166.176H350.725C350.725 163.601 351.066 161.231 351.75 159.066C352.434 156.902 353.402 155.022 354.655 153.427C355.909 151.809 357.401 150.556 359.133 149.667C360.887 148.778 362.824 148.334 364.943 148.334C366.766 148.334 368.418 148.596 369.899 149.12C371.403 149.621 372.691 150.43 373.762 151.547C374.833 152.663 375.653 154.122 376.223 155.922C376.815 157.699 377.111 159.864 377.111 162.416V186H368.02V162.348C368.02 160.639 367.769 159.294 367.268 158.314C366.766 157.312 366.049 156.594 365.114 156.161C364.203 155.728 363.075 155.512 361.73 155.512C360.272 155.512 359.019 155.797 357.971 156.366C356.923 156.913 356.057 157.676 355.373 158.656C354.712 159.636 354.211 160.764 353.869 162.04C353.55 163.316 353.391 164.695 353.391 166.176ZM394.099 156.571V186H385.075V149.018H393.62L394.099 156.571ZM405.344 148.778L405.207 157.187C404.706 157.095 404.136 157.027 403.498 156.981C402.883 156.936 402.302 156.913 401.755 156.913C400.365 156.913 399.146 157.107 398.098 157.494C397.049 157.859 396.172 158.394 395.466 159.101C394.782 159.807 394.258 160.673 393.894 161.698C393.529 162.701 393.324 163.84 393.278 165.116L391.33 164.877C391.33 162.53 391.569 160.354 392.048 158.349C392.526 156.343 393.221 154.589 394.133 153.085C395.044 151.581 396.184 150.419 397.551 149.599C398.941 148.756 400.536 148.334 402.336 148.334C402.837 148.334 403.373 148.38 403.942 148.471C404.535 148.539 405.002 148.642 405.344 148.778ZM407.736 167.885V167.167C407.736 164.455 408.124 161.96 408.898 159.682C409.673 157.38 410.801 155.386 412.282 153.7C413.763 152.014 415.575 150.704 417.717 149.77C419.859 148.812 422.297 148.334 425.031 148.334C427.811 148.334 430.272 148.812 432.414 149.77C434.579 150.704 436.402 152.014 437.883 153.7C439.364 155.386 440.492 157.38 441.267 159.682C442.041 161.96 442.429 164.455 442.429 167.167V167.885C442.429 170.574 442.041 173.069 441.267 175.37C440.492 177.649 439.364 179.643 437.883 181.352C436.402 183.038 434.59 184.348 432.448 185.282C430.306 186.216 427.857 186.684 425.1 186.684C422.365 186.684 419.916 186.216 417.751 185.282C415.586 184.348 413.763 183.038 412.282 181.352C410.801 179.643 409.673 177.649 408.898 175.37C408.124 173.069 407.736 170.574 407.736 167.885ZM416.76 167.167V167.885C416.76 169.503 416.919 171.018 417.238 172.431C417.557 173.843 418.047 175.085 418.708 176.156C419.369 177.227 420.223 178.07 421.271 178.686C422.342 179.278 423.618 179.574 425.1 179.574C426.558 179.574 427.811 179.278 428.859 178.686C429.908 178.07 430.762 177.227 431.423 176.156C432.106 175.085 432.608 173.843 432.927 172.431C433.246 171.018 433.405 169.503 433.405 167.885V167.167C433.405 165.572 433.246 164.079 432.927 162.689C432.608 161.277 432.106 160.035 431.423 158.964C430.762 157.87 429.896 157.016 428.825 156.4C427.777 155.762 426.512 155.443 425.031 155.443C423.573 155.443 422.32 155.762 421.271 156.4C420.223 157.016 419.369 157.87 418.708 158.964C418.047 160.035 417.557 161.277 417.238 162.689C416.919 164.079 416.76 165.572 416.76 167.167ZM471.003 177.216V149.018H480.095V186H471.55L471.003 177.216ZM472.165 169.56L474.968 169.491C474.968 171.975 474.694 174.265 474.147 176.361C473.601 178.458 472.746 180.281 471.584 181.83C470.445 183.357 468.998 184.553 467.243 185.419C465.489 186.262 463.415 186.684 461.022 186.684C459.2 186.684 457.536 186.433 456.032 185.932C454.528 185.408 453.229 184.599 452.136 183.505C451.065 182.388 450.233 180.964 449.641 179.232C449.048 177.478 448.752 175.37 448.752 172.909V149.018H457.775V172.978C457.775 174.208 457.912 175.233 458.186 176.054C458.482 176.874 458.881 177.546 459.382 178.07C459.906 178.572 460.51 178.936 461.193 179.164C461.9 179.369 462.652 179.472 463.449 179.472C465.637 179.472 467.357 179.039 468.61 178.173C469.886 177.284 470.798 176.099 471.345 174.618C471.892 173.114 472.165 171.428 472.165 169.56ZM511.608 149.018H519.812V184.872C519.812 188.222 519.082 191.059 517.624 193.383C516.188 195.73 514.172 197.507 511.574 198.715C508.977 199.945 505.957 200.561 502.517 200.561C501.035 200.561 499.429 200.355 497.697 199.945C495.988 199.535 494.336 198.886 492.741 197.997C491.169 197.131 489.859 196.003 488.811 194.613L492.878 189.281C494.108 190.717 495.498 191.799 497.048 192.528C498.597 193.28 500.272 193.656 502.072 193.656C503.895 193.656 505.445 193.314 506.721 192.631C508.02 191.97 509.011 190.99 509.694 189.691C510.401 188.415 510.754 186.843 510.754 184.975V157.46L511.608 149.018ZM486.623 167.953V167.235C486.623 164.41 486.965 161.846 487.648 159.545C488.332 157.221 489.312 155.227 490.588 153.563C491.887 151.9 493.448 150.613 495.271 149.701C497.116 148.79 499.19 148.334 501.491 148.334C503.929 148.334 505.98 148.778 507.644 149.667C509.33 150.556 510.72 151.82 511.813 153.461C512.93 155.102 513.796 157.05 514.411 159.306C515.049 161.539 515.539 164 515.881 166.688V168.637C515.562 171.257 515.049 173.661 514.343 175.849C513.659 178.036 512.748 179.95 511.608 181.591C510.469 183.209 509.056 184.462 507.37 185.351C505.684 186.239 503.701 186.684 501.423 186.684C499.144 186.684 497.093 186.216 495.271 185.282C493.448 184.348 491.887 183.038 490.588 181.352C489.312 179.665 488.332 177.683 487.648 175.404C486.965 173.126 486.623 170.642 486.623 167.953ZM495.646 167.235V167.953C495.646 169.548 495.806 171.041 496.125 172.431C496.444 173.821 496.934 175.051 497.595 176.122C498.256 177.17 499.087 177.991 500.09 178.583C501.092 179.175 502.289 179.472 503.679 179.472C505.547 179.472 507.074 179.084 508.259 178.31C509.466 177.512 510.378 176.43 510.993 175.062C511.631 173.673 512.041 172.112 512.224 170.38V165.014C512.11 163.646 511.859 162.382 511.472 161.22C511.107 160.058 510.594 159.055 509.934 158.212C509.273 157.369 508.43 156.708 507.404 156.229C506.379 155.751 505.16 155.512 503.747 155.512C502.38 155.512 501.184 155.819 500.158 156.435C499.133 157.027 498.29 157.859 497.629 158.93C496.968 160.001 496.467 161.243 496.125 162.655C495.806 164.068 495.646 165.595 495.646 167.235ZM536.799 133.5V186H527.741V133.5H536.799ZM535.363 166.176H532.697C532.697 163.601 533.039 161.231 533.723 159.066C534.406 156.902 535.375 155.022 536.628 153.427C537.881 151.809 539.374 150.556 541.105 149.667C542.86 148.778 544.797 148.334 546.916 148.334C548.739 148.334 550.391 148.596 551.872 149.12C553.376 149.621 554.663 150.43 555.734 151.547C556.805 152.663 557.626 154.122 558.195 155.922C558.788 157.699 559.084 159.864 559.084 162.416V186H549.992V162.348C549.992 160.639 549.742 159.294 549.24 158.314C548.739 157.312 548.021 156.594 547.087 156.161C546.175 155.728 545.048 155.512 543.703 155.512C542.245 155.512 540.992 155.797 539.943 156.366C538.895 156.913 538.029 157.676 537.346 158.656C536.685 159.636 536.184 160.764 535.842 162.04C535.523 163.316 535.363 164.695 535.363 166.176ZM594.562 136.234V186H585.163V136.234H594.562ZM614.626 157.733V165.15H592.102V157.733H614.626ZM617.258 136.234V143.651H592.102V136.234H617.258ZM645.695 136.234V186H636.33V136.234H645.695ZM661.145 136.234V143.651H621.052V136.234H661.145ZM700.383 178.617V186H673.928V178.617H700.383ZM676.799 136.234V186H667.399V136.234H676.799ZM696.931 156.776V163.988H673.928V156.776H696.931ZM700.28 136.234V143.651H673.928V136.234H700.28Z" fill="#FFA229"/>
<path d="M936 687.216C936 687.216 761.048 639.307 587.861 639.307C429.007 639.307 239.783 684.146 239.783 684.146L239.725 759.325C239.725 764.367 240.31 769.352 241.432 774.264L494.736 763.34L936.001 699.176L936 687.216Z" fill="#41696D"/>
<g filter="url(#filter0_d_513_8574)">
<path d="M416.605 745.978L70.1738 760.914V833.026C81.4562 882.454 148.124 924.853 243.009 948.479L416.605 818.086V745.978Z" fill="#712614"/>
</g>
<g filter="url(#filter1_d_513_8574)">
<path d="M587.863 759.326L414.27 817.612V889.722C465.368 902.447 524.648 909.728 587.863 909.728C780.138 909.728 936.002 842.391 936.002 759.327V699.179L587.863 759.326Z" fill="#41696D"/>
</g>
<path d="M70.1738 760.915C81.4562 810.345 148.124 852.744 243.009 876.372L416.605 745.978L70.1738 760.915Z" fill="#96331A"/>
<path d="M587.861 536.819C395.591 536.819 239.725 604.155 239.725 687.217C239.725 692.258 240.31 697.241 241.432 702.158L587.861 687.217L414.268 817.611C465.367 830.335 524.646 837.616 587.861 837.616C780.136 837.616 936 770.28 936 687.217C936 604.156 780.136 536.819 587.861 536.819Z" fill="#558A8F"/>
<path d="M658.438 666.006C658.431 677.969 701.695 687.702 755.062 687.746C808.435 687.786 851.707 678.122 851.708 666.158C851.717 654.194 808.454 644.458 755.085 644.418C701.715 644.375 658.44 654.04 658.438 666.006Z" fill="#41696D"/>
<path d="M692.344 582.892L699.636 652.722C699.636 652.722 683.433 640.667 675.656 654.531C664.701 674.06 709.645 663.671 709.645 663.671L707.205 596.248C707.205 596.248 757.827 605.276 820.502 597.454L826.558 658.148C826.558 658.148 808.177 641.575 801.851 658.148C793.39 680.316 835.598 665.698 835.598 665.698L837.399 588.747C837.399 588.747 782.938 573.465 692.344 582.892Z" fill="#141414"/>
<path d="M612.27 356.122C607.4 356.365 608.921 370.941 609.869 377.57C609.519 375.995 608.961 374.276 608.17 374.405C603.023 375.246 604.436 378.129 604.623 379.657C604.406 378.413 603.625 375.954 601.391 376.438C599.359 376.879 598.66 379.161 598.441 380.559C598.22 379.6 597.542 378.122 595.701 378.503C588.02 380.094 598.399 396.811 598.399 396.811L617.312 396.386C617.312 396.386 618.573 355.805 612.27 356.122Z" fill="#FFE5C7"/>
<path d="M799.392 454.951L747.557 520.787L698.669 453.944H684.082L692.344 582.892C692.344 582.892 705.844 587.549 734.962 590.163C747.138 591.469 765.771 591.888 765.771 591.888C784.773 591.961 810.52 591.114 837.4 588.746L850.781 455.4L799.392 454.951Z" fill="#1C4670"/>
<path d="M618.475 393.631L618.008 389.001L594.822 391.944L595.688 396.171L618.475 393.631Z" fill="#F5F5F5"/>
<path d="M684.083 453.944C684.083 453.944 663.753 276.478 804.251 333.127C804.251 333.127 873.581 312.455 850.782 455.399L684.083 453.944Z" fill="#FFE5C7"/>
<path d="M658.974 277.876C658.974 277.876 641.595 376.466 790.804 355.565L808.109 388.814C808.109 388.814 822.776 373.478 827.483 389.519C832.19 405.561 812.097 400.422 812.097 400.422C812.097 400.422 830.527 444.985 850.782 455.4C850.782 455.4 893.608 277.735 821.215 307.378C821.215 307.378 817.612 269.952 772.187 269.099C725.108 268.214 702.006 323.371 658.974 277.876Z" fill="#321908"/>
<path d="M711.098 394.669C711.625 399.061 709.989 402.871 707.442 403.176C704.895 403.481 702.406 400.167 701.879 395.775C701.354 391.381 702.99 387.573 705.533 387.266C708.082 386.962 710.569 390.277 711.098 394.669Z" fill="#321908"/>
<path d="M780.466 394.244C780.992 398.637 779.354 402.445 776.81 402.753C774.261 403.056 771.772 399.742 771.249 395.35C770.723 390.956 772.358 387.149 774.902 386.845C777.449 386.537 779.94 389.852 780.466 394.244Z" fill="#321908"/>
<path d="M685.361 459.216C685.361 459.216 633.887 557.208 620.199 392.23L594.439 394.514C594.439 394.514 614.163 574.479 688.75 489.361L685.361 459.216Z" fill="#1A1A1A"/>
<path d="M698.672 453.944L747.559 520.788L799.395 454.952L698.672 453.944Z" fill="#F5F5F5"/>
<path d="M698.671 453.944L697.803 482.391L713.843 485.775L711.443 507.414L747.558 520.788L698.671 453.944Z" fill="#FAAF20"/>
<path d="M747.559 520.787L782.721 503.989L781.586 488.235L798.531 482.225L799.394 454.951L747.559 520.787Z" fill="#FAAF20"/>
<path d="M733.582 468.151L738.941 460.257L752.621 459.873L757.584 469.46L752.039 475.874L759.268 505.978L747.557 520.788L734.561 503.035L739.908 476.094L733.582 468.151Z" fill="#141414"/>
<path d="M776.381 417.301C775.856 427.085 768.622 442.966 741.373 442.951C713.411 442.932 713.43 415.482 713.43 415.482C713.43 415.482 750.059 407.882 776.381 417.301Z" fill="#321908"/>
<path d="M601.158 399.577C601.158 400.685 600.258 401.586 599.15 401.586C598.038 401.586 597.141 400.686 597.141 399.577C597.141 398.467 598.038 397.569 599.15 397.569C600.258 397.569 601.158 398.468 601.158 399.577Z" fill="#484848"/>
<path d="M602.361 406.508C602.361 407.617 601.464 408.515 600.353 408.515C599.242 408.515 598.344 407.616 598.344 406.508C598.344 405.397 599.242 404.499 600.353 404.499C601.464 404.499 602.361 405.397 602.361 406.508Z" fill="#484848"/>
<path d="M603.568 413.236C603.568 414.345 602.669 415.244 601.559 415.244C600.45 415.244 599.551 414.346 599.551 413.236C599.551 412.127 600.449 411.227 601.559 411.227C602.669 411.227 603.568 412.126 603.568 413.236Z" fill="#484848"/>
<path d="M878.795 583.319L862.924 579.302L858.03 591.622C857.745 592.491 856.264 598.015 858.848 598.699C860.088 599.031 861.047 598.268 861.743 597.288C861.795 598.445 862.162 599.58 863.316 599.888C864.439 600.187 865.332 599.588 866.006 598.743C866.115 599.781 866.506 600.736 867.556 601.01C868.794 601.339 869.751 600.583 870.449 599.6C870.501 600.759 870.867 601.891 872.02 602.196C874.435 602.838 875.789 599.368 876.181 598.152L878.795 583.319Z" fill="#FFE5C7"/>
<path d="M861.933 579.302L860.127 583.432L878.795 588.251L879.397 583.778L861.933 579.302Z" fill="#F5F5F5"/>
<path d="M850.149 459.872C850.149 459.872 915.91 468.003 881.234 585.731L859.797 581.019C859.797 581.019 889.407 498.861 848.064 480.758L850.149 459.872Z" fill="#1A1A1A"/>
<path d="M882.743 567.52C882.323 568.547 881.153 569.038 880.129 568.621C879.097 568.2 878.605 567.027 879.025 566.003C879.44 564.973 880.614 564.482 881.64 564.899C882.668 565.32 883.165 566.491 882.743 567.52Z" fill="#484848"/>
<path d="M881.243 574.391C880.823 575.419 879.651 575.912 878.625 575.495C877.598 575.071 877.105 573.9 877.525 572.875C877.94 571.849 879.115 571.355 880.142 571.77C881.167 572.192 881.662 573.365 881.243 574.391Z" fill="#484848"/>
<path d="M879.821 581.076C879.401 582.104 878.23 582.596 877.201 582.177C876.175 581.76 875.681 580.587 876.101 579.561C876.52 578.534 877.692 578.039 878.719 578.458C879.746 578.876 880.24 580.048 879.821 581.076Z" fill="#484848"/>
<path d="M751.687 532.246C751.14 534.735 748.678 536.305 746.19 535.757C743.702 535.211 742.133 532.75 742.679 530.26C743.226 527.773 745.689 526.204 748.173 526.749C750.663 527.3 752.236 529.758 751.687 532.246Z" fill="#FAAF20"/>
<path d="M752.294 553.331C751.745 555.819 749.282 557.391 746.799 556.844C744.311 556.296 742.739 553.835 743.29 551.349C743.833 548.861 746.296 547.288 748.782 547.836C751.269 548.381 752.843 550.843 752.294 553.331Z" fill="#FAAF20"/>
<path d="M309.641 794.084C309.647 805.644 267.835 815.054 216.253 815.093C164.671 815.134 122.853 805.792 122.848 794.227C122.844 782.661 164.652 773.258 216.234 773.217C267.815 773.181 309.635 782.519 309.641 794.084Z" fill="#712614"/>
<path d="M278.743 721.958L271.175 779.864C271.175 779.864 286.834 768.218 294.35 781.613C304.937 800.488 261.5 790.449 261.5 790.449L264.374 734.869C264.374 734.869 215.451 743.593 154.878 736.032L148.506 792.937C148.506 792.937 166.271 776.915 172.388 792.937C180.568 814.359 139.769 800.234 139.769 800.234L138.547 726.195C138.547 726.195 191.184 712.848 278.743 721.958Z" fill="#321908"/>
<path d="M286.725 616.493C286.725 616.493 306.377 444.976 170.586 499.727C170.586 499.727 127.578 530.28 125.613 617.901C256.741 645.957 286.725 616.493 286.725 616.493Z" fill="#FFE5C7"/>
<path d="M313.834 449.167C313.834 449.167 315.034 555.431 178.848 528.041L165.91 560.175C165.91 560.175 151.735 545.351 147.188 560.855C142.637 576.36 162.055 571.394 162.055 571.394C162.055 571.394 145.19 607.832 125.615 617.901C126.264 619.197 81.0464 444.889 154.189 474.839C154.189 474.839 160.023 441.306 203.925 440.483C249.425 439.629 272.037 498.291 313.834 449.167Z" fill="#321908"/>
<path d="M262.853 564.583C263.306 568.177 265.358 570.877 267.441 570.615C269.521 570.352 270.843 567.229 270.392 563.638C269.941 560.043 267.889 557.342 265.806 557.604C263.725 557.864 262.404 560.989 262.853 564.583Z" fill="#321908"/>
<path d="M206.013 565.674C206.464 569.268 208.517 571.967 210.602 571.705C212.681 571.445 214.004 568.321 213.553 564.726C213.104 561.133 211.049 558.432 208.968 558.695C206.887 558.954 205.564 562.081 206.013 565.674Z" fill="#321908"/>
<path d="M286.728 616.493L278.745 721.957C278.745 721.957 223.746 735.729 138.55 726.195L125.617 617.901C125.617 617.901 232.616 634.247 286.728 616.493Z" fill="#1C4670"/>
<path d="M285.153 619.833L284.48 637.993C289.129 639.71 293.042 642.088 296.34 644.961L305.804 629.742C295.332 620.947 285.153 619.833 285.153 619.833Z" fill="#FFE5C7"/>
<path d="M305.804 629.742L296.34 644.961C325.271 670.171 306.027 734.023 306.027 734.023L302.199 746.252C301.983 747.112 300.951 752.539 303.491 753.015C304.714 753.243 305.583 752.438 306.182 751.446C306.317 752.559 306.75 753.625 307.885 753.837C308.99 754.044 309.807 753.408 310.397 752.544C310.575 753.534 311.024 754.423 312.05 754.616C313.269 754.845 314.139 754.043 314.739 753.046C314.875 754.162 315.309 755.227 316.441 755.442C318.814 755.883 319.871 752.441 320.162 751.241L323.031 736.652C336.819 671.441 321.002 642.503 305.804 629.742Z" fill="#FFE5C7"/>
<path d="M243.615 640.148L246.927 646.431L242.195 653.764L250.71 694.923L238.882 712.429L225.635 696.743L232.97 654.471L227.528 646.666L230.442 641.565L243.615 640.148Z" fill="white"/>
<path d="M123.998 485.654C123.869 485.65 123.791 485.646 123.791 485.646C123.791 485.646 123.87 485.647 123.998 485.654Z" fill="#FFE5C7"/>
<path d="M127.989 621.894L130.421 640.098C120.905 638.613 110.561 633.505 101.035 625.601L114.097 613.533C118.641 617.133 123.365 619.972 127.989 621.894Z" fill="#F5F5F5"/>
<path d="M66.9783 551.944C68.8757 509.907 101.664 483.947 101.664 483.947C101.664 483.947 127.934 466.473 136.574 481.504C136.574 481.504 138.587 484.581 135.39 484.343C132.196 484.105 128.289 479.135 123.79 481.621C123.79 481.621 128.244 480.419 128.289 483.987C128.31 485.696 124.881 485.685 123.997 485.655C123.869 485.647 123.79 485.647 123.79 485.647C123.79 485.647 123.868 485.65 123.997 485.655C124.829 485.704 127.932 486.022 128.018 487.996C128.146 490.895 125.58 490.855 124.756 490.768C124.603 490.741 124.503 490.734 124.503 490.734C124.503 490.734 124.603 490.753 124.756 490.768C125.509 490.897 127.64 491.499 126.751 494.167C125.802 497.008 121.424 494.878 121.424 494.878C121.424 494.878 111.364 493.219 106.401 498.934C67.4801 546.115 87.8298 592.725 114.095 613.533L101.033 625.601C82.1982 609.968 66.5754 583.363 66.9783 551.944Z" fill="#FFE5C7"/>
<path d="M124.758 490.767C124.603 490.752 124.504 490.733 124.504 490.733C124.504 490.733 124.604 490.74 124.758 490.767Z" fill="#FFE5C7"/>
<path d="M281.23 561.929C281.257 562.032 281.047 562.06 281.207 562.04C281.266 561.956 281.304 561.889 281.23 561.929Z" fill="#321908"/>
<path d="M263.452 546.316C263.232 546.991 263.948 546.748 263.903 547.265C263.914 547.308 264.134 546.993 264.139 547.111C264.029 547.688 264.584 547.779 265.116 547.73L265.167 547.64C265.266 547.632 265.109 547.939 265.196 547.952L265.315 547.809C265.194 547.972 265.352 547.969 265.277 548.099L265.543 547.9L265.421 548.099C265.147 548.585 265.658 548.259 265.593 548.579L265.683 548.46C265.655 548.881 265.939 549.049 266.071 549.331L266.28 549.088C266.131 549.277 266.157 549.384 266.184 549.471C266.375 549.308 266.133 549.729 266.291 549.685L266.322 549.641C266.2 549.88 266.496 549.596 266.331 549.863L266.492 549.746C266.282 550.028 266.686 549.676 266.608 549.845L266.559 549.897C266.542 549.996 266.679 549.881 266.676 549.958L266.705 549.932C266.73 550.076 266.909 549.973 266.724 550.177C266.898 550.041 266.708 550.029 266.966 549.832C267.059 550.292 267.384 550.506 267.66 550.76L267.884 550.63C267.874 550.695 267.955 550.761 267.888 550.888C267.884 550.876 267.999 550.799 268.025 550.802C268.143 550.772 267.88 551.076 268.017 551.035L268.17 550.821C268.074 551.021 268.162 551.054 268.172 551.155L268.258 551.019C268.158 551.255 268.405 551.08 268.357 551.242L268.442 551.108C268.656 551.042 268.248 551.376 268.398 551.358L268.502 551.215C268.381 551.49 268.558 551.521 268.564 551.656L268.603 551.605C268.657 551.7 268.796 551.706 268.797 551.873C268.874 551.847 269.042 551.576 269.084 551.691C268.872 551.926 269.134 551.911 268.851 552.136C268.953 552.16 269.141 552.168 269.115 552.29C269.165 552.172 269.405 552.03 269.367 551.959L269.537 551.856C269.616 551.751 269.463 551.847 269.585 551.738C269.606 551.773 269.606 551.94 269.666 551.926C269.59 552.118 269.4 552.433 269.46 552.539C269.502 552.412 269.714 552.297 269.724 552.234L269.44 552.793C269.46 552.829 269.613 552.614 269.6 552.71L269.492 552.89C269.527 552.869 269.559 553.053 269.781 552.831C269.873 552.754 269.776 552.74 269.882 552.688C269.933 552.737 269.865 552.819 269.915 552.869L269.942 552.839C270.009 552.835 269.959 553.031 269.806 553.124C269.777 553.11 269.94 552.995 269.843 553.029C269.748 553.185 269.776 553.278 269.828 553.329L269.95 553.142C269.861 553.389 269.884 553.514 269.896 553.66C269.8 553.773 270.046 553.433 269.981 553.481C270.22 553.419 270 553.889 270.283 553.738C270.286 553.705 270.136 553.889 270.165 553.859C270.226 553.889 270.367 553.726 270.346 553.813C270.433 553.723 270.359 553.88 270.367 553.937C270.323 554.021 270.415 553.899 270.396 553.864C270.372 553.986 270.426 554.293 270.655 554.25C270.597 554.312 270.518 554.535 270.548 554.551L270.667 554.399C270.766 554.329 270.74 554.482 270.853 554.361C270.748 554.584 270.785 554.031 270.735 554.232C270.861 554.127 270.627 554.551 270.786 554.34C270.831 554.389 270.735 554.595 270.903 554.499C270.867 554.512 271.042 554.262 271.072 554.308C271.118 554.395 271.029 554.395 271.044 554.495L271.025 554.585C270.902 554.73 271.105 554.623 270.938 554.758C271.05 554.649 270.976 554.92 271.177 554.679L271.332 554.485C271.351 554.527 271.208 554.723 271.159 554.826L271.243 554.753C270.998 555.041 271.337 554.791 271.176 555.045C271.33 555.001 271.349 555.177 271.534 555.029C271.507 555.157 271.458 555.298 271.568 555.288L271.624 555.167C271.733 555.115 271.676 555.195 271.666 555.27C271.697 555.221 271.884 555.167 272.012 555.1C271.984 555.227 271.832 555.366 271.755 555.464C272.047 555.225 271.73 555.765 272.012 555.562C272.03 555.507 272.064 555.362 272.164 555.327C272.458 555.085 272.071 555.611 272.262 555.54L272.038 555.758C272.197 555.642 272.023 555.986 272.226 555.743C272.176 555.847 272.379 555.74 272.17 555.96C272.456 555.874 272.352 556.329 272.785 555.986C272.766 556.04 272.844 556.039 272.731 556.146C272.593 556.247 272.772 556.021 272.686 556.099L272.619 556.218C272.7 556.199 272.743 556.206 272.876 555.987C273.081 555.919 272.618 556.448 272.799 556.45C272.878 556.351 272.917 556.323 272.936 556.365L272.849 556.577C272.948 556.6 273.076 556.397 273.219 556.24C273.229 556.298 273.281 556.329 273.192 556.463L273.413 556.301C273.253 556.418 273.355 556.425 273.341 556.478L273.356 556.426C273.424 556.363 273.427 556.441 273.432 556.479C273.34 556.572 273.262 556.576 273.214 556.584C273.169 556.67 273.213 556.68 273.163 556.781C273.294 556.619 273.319 556.724 273.363 556.732C273.424 556.727 273.276 556.903 273.29 556.909C273.361 556.829 273.354 556.941 273.429 556.806C273.443 556.769 273.334 556.863 273.38 556.774C273.454 556.734 273.576 556.59 273.53 556.732C273.495 556.837 273.249 557.032 273.4 556.992L273.505 556.805L273.637 556.776L273.514 556.92L273.578 556.858C273.465 557.025 273.63 556.985 273.493 557.165C273.511 557.207 273.644 557.123 273.687 557.133L273.694 557.115C273.802 557.061 273.8 557.158 273.744 557.28L273.769 557.249C273.8 557.254 273.824 557.317 273.775 557.421C273.919 557.359 274.265 556.9 274.161 557.126C274.207 557.175 274.008 557.454 273.906 557.529C274.079 557.511 273.974 557.831 274.251 557.683L274.17 557.837C274.349 557.897 274.293 558.249 274.644 558.061C274.661 557.968 274.768 557.917 274.841 557.836C274.76 557.99 274.996 557.739 274.814 557.966C274.695 558.09 274.644 558.156 274.562 558.174C274.577 558.311 274.695 558.417 274.844 558.336C274.771 558.375 274.751 558.429 274.734 558.482C274.912 558.275 274.995 558.293 274.974 558.404L274.869 558.533L275.01 558.429C274.992 558.484 274.797 558.708 274.946 558.625L275.076 558.503C275.032 558.647 274.94 558.876 275.083 558.812L275.282 558.666C275.286 558.701 275.225 558.842 275.141 558.863C275.321 558.828 275.385 558.86 275.552 558.726C275.352 559.234 275.545 559.435 275.735 559.555L275.812 559.458C275.934 559.411 275.692 559.641 275.78 559.603C275.844 559.503 275.986 559.44 276.047 559.301C276.198 559.257 275.986 559.533 275.988 559.614C275.885 559.742 276.025 559.506 275.894 559.669C275.863 559.719 276.066 559.651 275.913 559.846C275.993 559.787 276.1 559.639 276.161 559.556L276.119 559.682C276.358 559.508 276.354 559.2 276.641 558.976L276.653 559.038C276.858 558.874 276.752 558.735 276.901 558.748C276.858 558.874 276.654 559.171 276.544 559.223C276.582 559.347 276.19 559.699 276.291 559.761C276.412 559.672 276.243 559.671 276.397 559.534C276.57 559.421 276.405 559.69 276.487 559.67C276.384 559.704 276.252 559.922 276.248 559.98C276.37 559.93 276.375 559.778 276.455 559.815C276.37 559.93 276.358 560.061 276.241 560.094C276.048 560.354 276.365 560.084 276.232 560.303C276.406 560.149 276.52 559.85 276.663 559.826C276.507 559.981 276.55 560.124 276.297 560.336C276.366 560.313 276.484 560.187 276.554 560.068C276.682 559.999 276.381 560.45 276.683 560.135L276.548 560.316L276.762 560.174C276.799 560.2 276.671 560.499 276.893 560.243C276.88 560.277 276.966 560.336 276.782 560.483C276.639 560.548 276.841 560.307 276.603 560.518C276.809 560.358 276.65 560.607 276.619 560.698L276.711 560.602C276.694 560.657 276.752 560.668 276.668 560.784L276.806 560.645L276.69 560.809C276.692 560.944 276.939 560.561 276.966 560.663L277.019 560.501C277.007 560.537 277.155 560.417 277.145 560.493L276.83 560.939C276.814 561.031 276.983 560.8 276.895 560.972L276.994 560.765C277.026 560.714 277.226 560.568 277.272 560.616C277.261 560.69 277.136 560.931 277.02 560.962C277.043 560.986 277.151 560.934 277.221 560.817C277.235 560.913 277.083 560.958 277.056 561.085C277.157 561.013 277.335 560.936 277.487 560.84L277.639 560.566L277.676 560.592C277.795 560.372 277.822 560.475 277.968 560.258C278.018 560.249 277.988 560.34 277.965 560.409C277.625 560.658 277.666 560.898 277.398 561.162C277.421 561.321 278.063 560.529 277.766 561.055C277.687 561.114 277.541 561.367 277.555 561.235C277.639 561.256 277.344 561.552 277.514 561.494C277.567 561.335 277.821 561.257 277.899 561.026C277.82 561.123 277.795 561.06 277.807 561.025C277.927 560.939 278.053 560.739 278.112 560.789C278.124 560.847 278.169 560.898 278.03 561.037C277.886 561.198 277.991 560.971 277.868 561.155C277.891 561.273 278.121 561.04 277.898 561.352C277.872 561.289 277.713 561.444 277.616 561.558L277.607 561.669L277.694 561.552C277.844 561.55 277.547 561.77 277.652 561.812L277.878 561.634C278.02 561.435 277.688 561.612 277.966 561.327C278.03 561.362 277.912 561.528 278.03 561.498L278.047 561.404C278.074 561.411 278.443 561.034 278.313 561.331C278.271 561.457 278.229 561.446 278.13 561.559C278.188 561.668 278.111 561.803 278.151 561.87C278.332 561.643 278.266 561.933 278.402 561.657C278.261 561.759 278.151 561.638 278.304 561.406C278.563 561.174 278.205 561.382 278.418 561.106C278.493 561.159 278.714 560.904 278.871 560.749C278.9 560.753 278.857 560.841 278.845 560.875C278.715 561.037 278.693 561.014 278.548 561.173C278.661 561.198 278.658 561.35 278.564 561.54C278.658 561.485 278.789 561.322 278.771 561.28C278.82 561.408 278.933 561.473 279.062 561.501C278.782 561.708 279.106 561.645 278.88 561.823C278.783 561.841 278.584 561.987 278.507 562.123C278.551 562.133 278.606 562.012 278.666 561.967C278.579 562.139 278.92 561.797 278.762 562.046C278.752 561.891 279.021 561.723 279.182 561.509C279.142 561.673 279.307 561.365 279.365 561.418C279.325 561.582 279.322 561.733 279.348 561.835C279.6 561.721 279.561 562.02 279.628 562.09C279.757 562.025 279.931 561.776 280.008 561.774C280.054 561.822 279.757 561.983 279.921 561.948L279.953 561.896C279.929 561.966 280.223 561.861 279.956 562.204L280.15 561.94C280.184 561.93 280.147 561.998 280.134 562.035L280.31 561.825C280.506 561.697 280.38 561.937 280.422 561.985L280.265 562.103C280.246 562.289 280.431 562.196 280.466 562.318L280.59 562.174L280.563 562.301C280.673 562.155 280.794 562.106 280.719 562.242L280.901 561.786C280.792 561.838 280.788 561.991 280.642 562.111C280.513 562.214 280.475 562.111 280.581 561.962C280.625 561.973 280.599 562.005 280.576 562.077C280.758 561.887 280.709 561.856 280.804 561.707C280.811 561.729 280.886 561.688 280.835 561.752C280.891 561.63 280.874 561.588 280.83 561.541C280.793 561.645 280.703 561.645 280.666 561.712C280.816 561.536 280.817 561.442 280.713 561.437C280.49 561.598 280.713 561.205 280.594 561.198C280.466 561.397 280.377 561.572 280.356 561.681C280.235 561.73 280.312 561.632 280.19 561.681C280.283 561.531 280.446 561.319 280.459 561.187L280.341 561.313C280.348 561.2 280.518 561.008 280.419 560.986C280.248 560.948 280.131 560.844 280.029 560.783L279.912 560.908C280.109 560.589 279.841 560.663 279.886 560.483C279.663 560.507 279.753 560.146 279.498 560.318C279.39 560.043 279.306 559.795 279.061 559.661L278.928 559.879C279.015 559.707 278.809 559.966 278.798 559.907C278.972 559.793 278.921 559.668 278.999 559.53C278.778 559.597 278.806 559.334 278.842 559.132L278.724 559.259C278.858 558.942 278.571 559.071 278.436 559.02C278.377 559.064 278.251 559.169 278.233 559.129C278.365 558.872 278.322 558.86 278.356 558.658C278.301 558.606 278.16 558.571 278.028 558.601C278.066 558.112 277.675 558.099 277.604 557.719L277.45 557.857C277.519 557.334 276.982 557.386 276.942 557.052L276.728 557.326C276.598 557.354 276.653 557.139 276.832 556.969C276.704 556.995 276.795 556.71 276.568 556.89C276.465 556.883 276.599 556.703 276.581 556.622C276.37 556.613 276.346 556.551 276.274 556.4L276.317 556.41C276.278 556.479 276.18 556.588 276.138 556.581C276.16 556.47 275.918 556.51 276.238 556.237C275.956 556.308 276.081 555.84 275.746 555.973C275.832 555.899 275.814 555.855 275.853 555.785C275.748 555.687 275.482 555.758 275.523 555.538C275.47 555.566 275.423 555.707 275.372 555.677L275.479 555.49C275.445 555.175 274.982 555.338 274.859 555.157C274.721 554.742 274.354 554.563 274.109 554.296L274.056 554.36C274.177 554.042 273.628 554.415 273.872 553.993C273.799 554.033 273.766 553.949 273.675 554.082C273.753 553.85 273.333 554.061 273.418 553.757L273.414 553.812C273.187 553.854 273.262 553.585 273.04 553.612L272.979 553.749C272.83 553.831 273.11 553.398 272.822 553.678C272.8 553.653 272.938 553.512 272.946 553.534C272.599 553.433 272.509 553.009 272.316 552.718C271.977 552.736 271.857 553.213 271.914 552.862C271.849 552.909 272.006 552.739 271.948 552.8C271.968 552.668 271.564 553.059 271.666 552.869C271.845 552.697 271.73 552.741 271.83 552.628C271.611 552.65 271.442 552.797 271.479 552.579L271.4 552.683C271.541 552.317 271.291 552.357 271.486 551.965C270.971 551.404 270.585 550.746 270.065 550.221C269.465 549.795 269.059 549.18 268.355 548.857C268.001 548.995 267.997 548.98 267.946 548.75L267.87 548.842C268.049 548.629 267.788 548.733 267.952 548.523C267.713 548.38 267.576 548.154 267.366 547.967C267.378 548.018 267.246 548.203 267.217 548.153L267.294 547.985L267.236 548.037C267.236 547.981 267.299 547.85 267.387 547.811C267.017 547.16 266.125 547.115 265.652 546.603C265.451 546.581 265.347 546.345 265.252 546.186C264.611 546.111 264.052 546.018 263.823 545.466C263.825 545.458 263.396 546.045 263.452 546.316Z" fill="#321908"/>
<path d="M281.168 561.839C281.062 561.931 280.964 561.948 280.879 562.12L281.168 561.839Z" fill="#321908"/>
<path d="M278.981 561.819C279.009 561.786 278.927 561.847 278.908 561.86C278.916 561.882 278.853 561.982 278.912 561.938L278.981 561.819Z" fill="#321908"/>
<path d="M278.615 561.602C278.536 561.698 278.539 561.832 278.567 561.878L278.615 561.602Z" fill="#321908"/>
<path d="M277.982 561.723C277.886 561.78 277.855 561.828 277.892 561.856L277.982 561.723Z" fill="#321908"/>
<path d="M278.147 561.496C278.126 561.47 278.063 561.514 278.004 561.557C278.075 561.478 278.017 561.658 278.147 561.496Z" fill="#321908"/>
<path d="M277.271 561.199C277.261 561.179 277.297 561.072 277.191 561.162C277.271 561.105 277.159 561.347 277.271 561.199Z" fill="#321908"/>
<path d="M277.102 560.796L277.081 560.771C277.025 560.798 276.984 560.882 276.991 560.905L277.102 560.796Z" fill="#321908"/>
<path d="M272.047 555.636L272.039 555.711L272.115 555.615L272.047 555.636Z" fill="#321908"/>
<path d="M269.693 553.534C269.714 553.448 269.594 553.602 269.576 553.613C269.596 553.647 269.667 553.489 269.693 553.534Z" fill="#321908"/>
<path d="M268.836 551.942L268.843 551.953L269.011 551.757L268.836 551.942Z" fill="#321908"/>
<path d="M197.042 562.682C196.946 562.706 196.911 562.503 196.935 562.658C197.016 562.717 197.083 562.754 197.042 562.682Z" fill="#321908"/>
<path d="M211.822 545.935C211.159 545.701 211.413 546.402 210.909 546.344C210.865 546.351 211.18 546.574 211.066 546.574C210.499 546.451 210.426 546.987 210.485 547.505L210.574 547.554C210.583 547.652 210.283 547.49 210.271 547.573L210.414 547.693C210.253 547.573 210.26 547.725 210.129 547.649L210.332 547.91L210.135 547.789C209.654 547.507 209.983 548.013 209.672 547.941L209.789 548.03C209.379 547.991 209.223 548.259 208.95 548.382L209.191 548.591C209.004 548.437 208.901 548.461 208.817 548.485C208.981 548.673 208.564 548.427 208.609 548.583L208.656 548.614C208.421 548.487 208.706 548.782 208.44 548.614L208.559 548.774C208.278 548.561 208.632 548.963 208.464 548.883L208.41 548.834C208.314 548.814 208.428 548.95 208.355 548.946L208.382 548.975C208.242 548.996 208.344 549.17 208.143 548.986C208.282 549.16 208.287 548.974 208.485 549.233C208.04 549.307 207.84 549.616 207.599 549.876L207.734 550.095C207.667 550.084 207.606 550.16 207.481 550.092C207.493 550.086 207.571 550.203 207.566 550.224C207.601 550.342 207.298 550.079 207.34 550.213L207.556 550.366C207.355 550.268 207.329 550.353 207.229 550.36L207.365 550.446C207.133 550.344 207.309 550.586 207.149 550.536L207.284 550.622C207.353 550.832 207.017 550.428 207.037 550.572L207.18 550.677C206.908 550.551 206.883 550.723 206.752 550.724L206.801 550.763C206.711 550.811 206.71 550.947 206.546 550.942C206.573 551.018 206.841 551.19 206.73 551.227C206.496 551.013 206.517 551.271 206.29 550.986C206.269 551.086 206.267 551.268 206.148 551.241C206.264 551.291 206.408 551.53 206.475 551.493L206.582 551.663C206.683 551.743 206.585 551.591 206.696 551.712C206.662 551.732 206.499 551.727 206.516 551.787C206.327 551.705 206.016 551.511 205.913 551.566C206.04 551.609 206.153 551.82 206.217 551.829L205.663 551.539C205.627 551.558 205.843 551.712 205.747 551.696L205.571 551.587C205.588 551.621 205.411 551.648 205.634 551.868C205.714 551.96 205.721 551.866 205.778 551.97C205.732 552.018 205.651 551.951 205.601 551.996L205.632 552.026C205.637 552.09 205.445 552.035 205.35 551.883C205.363 551.855 205.482 552.017 205.443 551.924C205.289 551.827 205.2 551.851 205.151 551.898L205.336 552.022C205.093 551.928 204.972 551.946 204.829 551.955C204.717 551.857 205.053 552.107 205.007 552.042C205.074 552.275 204.612 552.048 204.765 552.327C204.794 552.331 204.615 552.18 204.645 552.209C204.617 552.268 204.779 552.408 204.692 552.386C204.783 552.473 204.628 552.395 204.57 552.402C204.489 552.357 204.609 552.451 204.644 552.431C204.527 552.405 204.226 552.448 204.274 552.671C204.215 552.614 203.991 552.529 203.977 552.558L204.131 552.679C204.199 552.777 204.05 552.745 204.17 552.859C203.951 552.75 204.49 552.805 204.293 552.749C204.4 552.874 203.981 552.635 204.192 552.798C204.145 552.839 203.942 552.736 204.038 552.903C204.027 552.869 204.273 553.044 204.227 553.073C204.144 553.115 204.143 553.029 204.047 553.038L203.957 553.019C203.813 552.896 203.923 553.096 203.79 552.93C203.898 553.043 203.63 552.961 203.871 553.165L204.065 553.321C204.025 553.338 203.828 553.194 203.727 553.143L203.802 553.229C203.515 552.978 203.763 553.315 203.517 553.153C203.561 553.302 203.389 553.315 203.54 553.499C203.413 553.468 203.274 553.421 203.289 553.527L203.409 553.584C203.463 553.69 203.38 553.633 203.307 553.62C203.357 553.654 203.414 553.836 203.483 553.961C203.357 553.932 203.219 553.779 203.122 553.701C203.362 553.992 202.826 553.669 203.032 553.948C203.086 553.967 203.229 554.004 203.266 554.103C203.508 554.395 202.984 554.005 203.059 554.192L202.843 553.966C202.959 554.125 202.619 553.945 202.86 554.15C202.757 554.098 202.867 554.297 202.649 554.089C202.741 554.37 202.293 554.253 202.639 554.684C202.586 554.665 202.59 554.738 202.481 554.625C202.378 554.489 202.603 554.669 202.528 554.583L202.411 554.513C202.431 554.594 202.423 554.634 202.639 554.771C202.713 554.973 202.185 554.506 202.188 554.683C202.285 554.76 202.312 554.801 202.272 554.815L202.065 554.726C202.045 554.822 202.245 554.95 202.402 555.093C202.345 555.102 202.316 555.151 202.184 555.06L202.347 555.278C202.229 555.12 202.225 555.221 202.173 555.2L202.225 555.221C202.288 555.287 202.212 555.287 202.175 555.291C202.08 555.199 202.075 555.124 202.065 555.076C201.981 555.032 201.975 555.072 201.871 555.022C202.035 555.151 201.933 555.176 201.925 555.217C201.932 555.276 201.756 555.125 201.752 555.138C201.833 555.213 201.721 555.199 201.857 555.277C201.891 555.29 201.798 555.184 201.885 555.232C201.927 555.304 202.069 555.427 201.929 555.377C201.825 555.34 201.63 555.095 201.675 555.243L201.858 555.352L201.89 555.479L201.745 555.354L201.806 555.421C201.642 555.304 201.684 555.466 201.504 555.329C201.466 555.344 201.55 555.476 201.542 555.516L201.558 555.525C201.612 555.629 201.519 555.627 201.398 555.568L201.431 555.595C201.426 555.622 201.366 555.644 201.262 555.592C201.328 555.734 201.783 556.086 201.56 555.976C201.513 556.018 201.236 555.818 201.162 555.717C201.183 555.885 200.867 555.775 201.017 556.047L200.866 555.964C200.814 556.134 200.469 556.069 200.66 556.416C200.751 556.433 200.804 556.539 200.884 556.612C200.732 556.528 200.984 556.765 200.757 556.58C200.632 556.464 200.567 556.412 200.545 556.332C200.413 556.343 200.314 556.451 200.399 556.599C200.358 556.524 200.305 556.507 200.251 556.489C200.46 556.666 200.442 556.746 200.337 556.721L200.206 556.618L200.31 556.758C200.256 556.735 200.033 556.541 200.118 556.688L200.239 556.818C200.099 556.77 199.874 556.676 199.94 556.815L200.086 557.014C200.049 557.015 199.913 556.949 199.89 556.869C199.929 557.046 199.899 557.107 200.033 557.272C199.532 557.064 199.343 557.243 199.233 557.425L199.328 557.502C199.379 557.621 199.146 557.378 199.185 557.465C199.286 557.531 199.349 557.67 199.487 557.732C199.533 557.882 199.258 557.666 199.181 557.666C199.053 557.565 199.287 557.707 199.125 557.575C199.076 557.541 199.146 557.743 198.953 557.587C199.013 557.666 199.16 557.777 199.241 557.834L199.12 557.792C199.295 558.028 199.597 558.034 199.82 558.319L199.761 558.327C199.925 558.534 200.058 558.433 200.051 558.577C199.925 558.534 199.631 558.323 199.576 558.219C199.459 558.249 199.105 557.861 199.047 557.956C199.137 558.075 199.132 557.914 199.27 558.067C199.384 558.237 199.118 558.068 199.139 558.15C199.104 558.05 198.888 557.915 198.832 557.908C198.883 558.028 199.032 558.037 198.997 558.114C198.882 558.028 198.752 558.011 198.72 557.896C198.46 557.702 198.731 558.018 198.517 557.883C198.671 558.056 198.965 558.175 198.99 558.315C198.838 558.158 198.697 558.195 198.484 557.945C198.508 558.014 198.636 558.13 198.752 558.202C198.821 558.328 198.374 558.022 198.688 558.325L198.512 558.187L198.656 558.4C198.63 558.435 198.337 558.3 198.592 558.523C198.556 558.509 198.502 558.592 198.354 558.408C198.287 558.268 198.528 558.469 198.314 558.233C198.478 558.438 198.23 558.277 198.142 558.244L198.235 558.338C198.184 558.318 198.172 558.373 198.057 558.288L198.197 558.427L198.034 558.308C197.903 558.306 198.283 558.558 198.185 558.582L198.342 558.638C198.308 558.626 198.428 558.773 198.356 558.76L197.913 558.442C197.822 558.423 198.052 558.594 197.882 558.505L198.085 558.606C198.136 558.638 198.283 558.838 198.239 558.88C198.165 558.868 197.926 558.738 197.894 558.625C197.871 558.648 197.923 558.754 198.041 558.823C197.946 558.837 197.9 558.686 197.774 558.656C197.848 558.756 197.926 558.928 198.026 559.081L198.296 559.239L198.271 559.272C198.491 559.393 198.391 559.416 198.603 559.566C198.614 559.613 198.524 559.581 198.456 559.556C198.206 559.218 197.973 559.251 197.708 558.984C197.556 559.001 198.344 559.647 197.824 559.346C197.763 559.264 197.512 559.118 197.643 559.137C197.625 559.216 197.328 558.92 197.387 559.088C197.545 559.144 197.626 559.392 197.854 559.475C197.758 559.396 197.818 559.374 197.853 559.385C197.942 559.504 198.141 559.632 198.091 559.688C198.036 559.698 197.986 559.742 197.847 559.603C197.687 559.458 197.911 559.567 197.73 559.443C197.612 559.462 197.847 559.69 197.537 559.462C197.598 559.441 197.441 559.281 197.331 559.184L197.218 559.174L197.335 559.26C197.34 559.407 197.121 559.11 197.079 559.211L197.258 559.437C197.458 559.579 197.279 559.252 197.562 559.53C197.529 559.591 197.364 559.475 197.398 559.588L197.49 559.605C197.483 559.631 197.86 560.001 197.567 559.867C197.444 559.823 197.455 559.781 197.341 559.685C197.236 559.735 197.102 559.658 197.037 559.694C197.263 559.875 196.979 559.805 197.249 559.943C197.146 559.805 197.263 559.701 197.493 559.857C197.724 560.114 197.513 559.76 197.788 559.976C197.736 560.045 197.99 560.269 198.146 560.424C198.143 560.454 198.057 560.408 198.023 560.396C197.861 560.264 197.883 560.243 197.725 560.098C197.704 560.207 197.557 560.2 197.367 560.103C197.424 560.196 197.586 560.326 197.626 560.313C197.503 560.356 197.443 560.467 197.419 560.588C197.212 560.31 197.279 560.625 197.099 560.4C197.08 560.308 196.932 560.108 196.798 560.032C196.79 560.071 196.91 560.131 196.955 560.188C196.786 560.099 197.13 560.442 196.88 560.279C197.031 560.274 197.203 560.542 197.415 560.704C197.253 560.661 197.558 560.827 197.508 560.883C197.347 560.84 197.2 560.83 197.1 560.855C197.219 561.101 196.927 561.054 196.858 561.118C196.927 561.244 197.173 561.42 197.177 561.494C197.131 561.536 196.966 561.244 197.006 561.404L197.057 561.438C196.988 561.412 197.096 561.7 196.757 561.43L197.018 561.63C197.03 561.662 196.964 561.623 196.928 561.609L197.136 561.786C197.265 561.978 197.03 561.852 196.982 561.891L196.865 561.735C196.681 561.711 196.777 561.891 196.658 561.923L196.802 562.047L196.677 562.018C196.824 562.13 196.874 562.249 196.739 562.172L197.188 562.361C197.135 562.254 196.987 562.245 196.866 562.1C196.761 561.975 196.861 561.939 197.008 562.047C196.998 562.089 196.967 562.063 196.897 562.038C197.084 562.223 197.114 562.174 197.263 562.271C197.242 562.278 197.284 562.352 197.219 562.298C197.339 562.357 197.38 562.342 197.426 562.3C197.32 562.263 197.319 562.173 197.253 562.136C197.43 562.287 197.521 562.292 197.523 562.19C197.361 561.969 197.748 562.198 197.752 562.081C197.553 561.952 197.382 561.861 197.275 561.838C197.227 561.719 197.321 561.797 197.271 561.676C197.42 561.773 197.633 561.937 197.76 561.953L197.633 561.835C197.745 561.845 197.935 562.015 197.954 561.922C197.985 561.758 198.086 561.646 198.143 561.548L198.017 561.431C198.332 561.632 198.255 561.369 198.431 561.418C198.401 561.202 198.759 561.301 198.583 561.048C198.848 560.952 199.088 560.876 199.212 560.643L198.995 560.51C199.162 560.598 198.908 560.391 198.967 560.382C199.08 560.553 199.203 560.51 199.338 560.587C199.267 560.372 199.524 560.405 199.723 560.447L199.597 560.328C199.908 560.469 199.776 560.187 199.821 560.056C199.777 560 199.672 559.873 199.71 559.859C199.964 559.993 199.973 559.953 200.173 559.993C200.223 559.936 200.251 559.805 200.219 559.674C200.696 559.729 200.702 559.349 201.069 559.29L200.932 559.141C201.443 559.219 201.38 558.701 201.704 558.67L201.431 558.455C201.401 558.328 201.612 558.389 201.783 558.568C201.753 558.44 202.034 558.538 201.853 558.314C201.857 558.212 202.035 558.349 202.113 558.332C202.117 558.131 202.177 558.107 202.324 558.043L202.315 558.084C202.247 558.045 202.136 557.947 202.143 557.905C202.253 557.93 202.207 557.694 202.48 558.011C202.405 557.736 202.867 557.871 202.726 557.543C202.802 557.629 202.845 557.615 202.91 557.654C203.005 557.556 202.929 557.296 203.147 557.343C203.118 557.288 202.978 557.24 203.006 557.189L203.191 557.3C203.496 557.275 203.325 556.821 203.5 556.709C203.902 556.589 204.065 556.239 204.321 556.009L204.257 555.956C204.569 556.083 204.192 555.538 204.609 555.79C204.569 555.718 204.65 555.688 204.516 555.595C204.745 555.677 204.53 555.264 204.83 555.359L204.776 555.351C204.726 555.131 204.992 555.21 204.961 554.993L204.824 554.934C204.741 554.786 205.171 555.069 204.892 554.78C204.914 554.761 205.059 554.899 205.036 554.905C205.123 554.572 205.532 554.499 205.816 554.322C205.787 553.991 205.322 553.861 205.665 553.925C205.617 553.863 205.786 554.019 205.725 553.962C205.856 553.985 205.465 553.582 205.653 553.686C205.823 553.865 205.778 553.755 205.889 553.852C205.865 553.642 205.717 553.473 205.93 553.516L205.828 553.435C206.187 553.582 206.14 553.338 206.529 553.539C207.061 553.059 207.693 552.703 208.195 552.217C208.593 551.649 209.184 551.273 209.483 550.602C209.339 550.252 209.353 550.25 209.577 550.209L209.483 550.133C209.696 550.312 209.587 550.056 209.797 550.22C209.932 549.993 210.146 549.866 210.324 549.67C210.273 549.681 210.09 549.545 210.137 549.52L210.305 549.599L210.252 549.542C210.306 549.543 210.434 549.607 210.476 549.693C211.102 549.356 211.122 548.493 211.609 548.05C211.626 547.857 211.852 547.763 212.007 547.675C212.064 547.054 212.14 546.517 212.674 546.312C212.669 546.32 212.086 545.89 211.822 545.935Z" fill="#321908"/>
<path d="M197.13 562.627C197.038 562.519 197.021 562.424 196.85 562.335L197.13 562.627Z" fill="#321908"/>
<path d="M197.093 560.508C197.125 560.534 197.066 560.455 197.052 560.434C197.031 560.441 196.932 560.379 196.976 560.436L197.093 560.508Z" fill="#321908"/>
<path d="M197.297 560.157C197.201 560.078 197.069 560.076 197.025 560.103L197.297 560.157Z" fill="#321908"/>
<path d="M197.161 559.54C197.103 559.447 197.054 559.414 197.029 559.449L197.161 559.54Z" fill="#321908"/>
<path d="M197.389 559.709C197.41 559.687 197.365 559.628 197.322 559.568C197.402 559.642 197.225 559.578 197.389 559.709Z" fill="#321908"/>
<path d="M197.655 558.869C197.676 558.861 197.78 558.9 197.69 558.794C197.748 558.872 197.51 558.759 197.655 558.869Z" fill="#321908"/>
<path d="M198.046 558.717L198.069 558.693C198.041 558.64 197.959 558.597 197.938 558.604L198.046 558.717Z" fill="#321908"/>
<path d="M202.948 553.979L202.875 553.968L202.97 554.046L202.948 553.979Z" fill="#321908"/>
<path d="M204.939 551.763C205.024 551.786 204.87 551.664 204.86 551.645C204.826 551.665 204.984 551.738 204.939 551.763Z" fill="#321908"/>
<path d="M206.471 550.978L206.461 550.986L206.655 551.152L206.471 550.978Z" fill="#321908"/>
<path d="M246.408 593.772C246.408 593.772 228.891 587.31 215.765 591.881C215.765 591.881 209.953 607.432 227.772 607.432C246.17 607.431 246.408 593.772 246.408 593.772Z" fill="#321908"/>
<defs>
<filter id="filter0_d_513_8574" x="66.1738" y="745.978" width="354.432" height="210.501" filterUnits="userSpaceOnUse" color-interpolation-filters="sRGB">
<feFlood flood-opacity="0" result="BackgroundImageFix"/>
<feColorMatrix in="SourceAlpha" type="matrix" values="0 0 0 0 0 0 0 0 0 0 0 0 0 0 0 0 0 0 127 0" result="hardAlpha"/>
<feOffset dy="4"/>
<feGaussianBlur stdDeviation="2"/>
<feComposite in2="hardAlpha" operator="out"/>
<feColorMatrix type="matrix" values="0 0 0 0 0 0 0 0 0 0 0 0 0 0 0 0 0 0 0.25 0"/>
<feBlend mode="normal" in2="BackgroundImageFix" result="effect1_dropShadow_513_8574"/>
<feBlend mode="normal" in="SourceGraphic" in2="effect1_dropShadow_513_8574" result="shape"/>
</filter>
<filter id="filter1_d_513_8574" x="410.27" y="699.179" width="529.732" height="218.548" filterUnits="userSpaceOnUse" color-interpolation-filters="sRGB">
<feFlood flood-opacity="0" result="BackgroundImageFix"/>
<feColorMatrix in="SourceAlpha" type="matrix" values="0 0 0 0 0 0 0 0 0 0 0 0 0 0 0 0 0 0 127 0" result="hardAlpha"/>
<feOffset dy="4"/>
<feGaussianBlur stdDeviation="2"/>
<feComposite in2="hardAlpha" operator="out"/>
<feColorMatrix type="matrix" values="0 0 0 0 0 0 0 0 0 0 0 0 0 0 0 0 0 0 0.25 0"/>
<feBlend mode="normal" in2="BackgroundImageFix" result="effect1_dropShadow_513_8574"/>
<feBlend mode="normal" in="SourceGraphic" in2="effect1_dropShadow_513_8574" result="shape"/>
</filter>
</defs>
</svg>
