<svg width="1000" height="1111" viewBox="0 0 1000 1111" fill="none" xmlns="http://www.w3.org/2000/svg">
<rect width="1000" height="1111" fill="white"/>
<path d="M207.136 166.464L217.048 126.234H222.414L222.756 134.711L212.16 176H206.486L207.136 166.464ZM200.881 126.234L209.016 166.327V176H202.829L191.55 126.234H200.881ZM233.044 166.156L241.042 126.234H250.407L239.128 176H232.941L233.044 166.156ZM224.978 126.234L234.89 166.601L235.471 176H229.797L219.235 134.677L219.646 126.234H224.978ZM264.523 123.5V176H255.466V123.5H264.523ZM263.088 156.176H260.422C260.422 153.601 260.764 151.231 261.447 149.066C262.131 146.902 263.099 145.022 264.353 143.427C265.606 141.809 267.098 140.556 268.83 139.667C270.585 138.778 272.521 138.334 274.641 138.334C276.464 138.334 278.116 138.596 279.597 139.12C281.101 139.621 282.388 140.43 283.459 141.547C284.53 142.663 285.35 144.122 285.92 145.922C286.512 147.699 286.809 149.864 286.809 152.416V176H277.717V152.348C277.717 150.639 277.466 149.294 276.965 148.314C276.464 147.312 275.746 146.594 274.812 146.161C273.9 145.728 272.772 145.512 271.428 145.512C269.969 145.512 268.716 145.797 267.668 146.366C266.62 146.913 265.754 147.676 265.07 148.656C264.41 149.636 263.908 150.764 263.566 152.04C263.247 153.316 263.088 154.695 263.088 156.176ZM315.144 168.139V151.083C315.144 149.83 314.927 148.747 314.494 147.836C314.061 146.924 313.4 146.218 312.512 145.717C311.623 145.215 310.495 144.965 309.128 144.965C307.92 144.965 306.861 145.17 305.949 145.58C305.061 145.99 304.377 146.571 303.898 147.323C303.42 148.052 303.181 148.896 303.181 149.853H294.123C294.123 148.326 294.488 146.879 295.217 145.512C295.946 144.122 296.983 142.891 298.327 141.82C299.694 140.727 301.324 139.872 303.215 139.257C305.129 138.642 307.271 138.334 309.641 138.334C312.443 138.334 314.938 138.812 317.126 139.77C319.336 140.704 321.068 142.117 322.321 144.008C323.597 145.899 324.235 148.28 324.235 151.151V167.284C324.235 169.13 324.349 170.714 324.577 172.035C324.828 173.334 325.192 174.462 325.671 175.419V176H316.477C316.044 175.066 315.713 173.881 315.485 172.445C315.257 170.987 315.144 169.551 315.144 168.139ZM316.408 153.476L316.477 158.842H310.769C309.356 158.842 308.114 158.99 307.043 159.286C305.972 159.56 305.095 159.97 304.411 160.517C303.728 161.041 303.215 161.679 302.873 162.431C302.531 163.16 302.36 163.992 302.36 164.926C302.36 165.837 302.565 166.658 302.976 167.387C303.409 168.116 304.024 168.697 304.821 169.13C305.642 169.54 306.599 169.745 307.692 169.745C309.287 169.745 310.677 169.426 311.862 168.788C313.047 168.127 313.97 167.33 314.631 166.396C315.292 165.461 315.645 164.573 315.69 163.729L318.288 167.626C317.969 168.56 317.491 169.551 316.853 170.6C316.215 171.648 315.394 172.628 314.392 173.539C313.389 174.451 312.181 175.202 310.769 175.795C309.356 176.387 307.715 176.684 305.847 176.684C303.454 176.684 301.312 176.205 299.421 175.248C297.53 174.291 296.037 172.981 294.943 171.317C293.85 169.654 293.303 167.763 293.303 165.644C293.303 163.684 293.667 161.952 294.396 160.448C295.126 158.944 296.208 157.68 297.644 156.654C299.079 155.606 300.856 154.82 302.976 154.296C305.118 153.749 307.567 153.476 310.324 153.476H316.408ZM349.87 139.018V145.512H328.679V139.018H349.87ZM334.353 129.926H343.41V165.336C343.41 166.43 343.558 167.273 343.854 167.865C344.151 168.458 344.595 168.856 345.188 169.062C345.78 169.267 346.486 169.369 347.307 169.369C347.899 169.369 348.446 169.335 348.947 169.267C349.449 169.198 349.87 169.13 350.212 169.062L350.246 175.829C349.494 176.08 348.64 176.285 347.683 176.444C346.748 176.604 345.689 176.684 344.504 176.684C342.476 176.684 340.699 176.342 339.172 175.658C337.645 174.952 336.46 173.824 335.617 172.274C334.774 170.702 334.353 168.629 334.353 166.054V129.926ZM382.888 139.018V176H373.83V139.018H382.888ZM373.215 129.345C373.215 128 373.671 126.884 374.582 125.995C375.516 125.106 376.77 124.662 378.342 124.662C379.914 124.662 381.156 125.106 382.067 125.995C383.002 126.884 383.469 128 383.469 129.345C383.469 130.666 383.002 131.771 382.067 132.66C381.156 133.549 379.914 133.993 378.342 133.993C376.77 133.993 375.516 133.549 374.582 132.66C373.671 131.771 373.215 130.666 373.215 129.345ZM411.838 165.883C411.838 165.108 411.633 164.413 411.223 163.798C410.812 163.183 410.038 162.624 408.898 162.123C407.782 161.599 406.141 161.109 403.977 160.653C402.062 160.243 400.297 159.73 398.679 159.115C397.061 158.5 395.671 157.759 394.509 156.894C393.347 156.005 392.435 154.968 391.774 153.783C391.136 152.576 390.817 151.186 390.817 149.613C390.817 148.087 391.148 146.651 391.809 145.307C392.469 143.939 393.426 142.743 394.68 141.718C395.933 140.67 397.46 139.849 399.26 139.257C401.06 138.642 403.088 138.334 405.344 138.334C408.488 138.334 411.188 138.847 413.444 139.872C415.723 140.897 417.466 142.31 418.674 144.11C419.882 145.888 420.485 147.893 420.485 150.126H411.462C411.462 149.146 411.234 148.257 410.778 147.46C410.345 146.662 409.673 146.024 408.762 145.546C407.85 145.045 406.7 144.794 405.31 144.794C404.056 144.794 402.997 144.999 402.131 145.409C401.288 145.819 400.65 146.355 400.217 147.016C399.784 147.676 399.567 148.406 399.567 149.203C399.567 149.796 399.681 150.331 399.909 150.81C400.16 151.265 400.559 151.687 401.105 152.074C401.652 152.462 402.393 152.815 403.327 153.134C404.284 153.453 405.458 153.76 406.848 154.057C409.605 154.604 412.009 155.333 414.06 156.244C416.133 157.133 417.751 158.318 418.913 159.799C420.075 161.28 420.656 163.171 420.656 165.473C420.656 167.113 420.303 168.617 419.597 169.984C418.89 171.329 417.865 172.502 416.521 173.505C415.176 174.507 413.57 175.294 411.701 175.863C409.833 176.41 407.725 176.684 405.378 176.684C401.983 176.684 399.112 176.08 396.765 174.872C394.418 173.642 392.64 172.092 391.433 170.224C390.225 168.332 389.621 166.373 389.621 164.345H398.269C398.337 165.78 398.724 166.931 399.431 167.797C400.137 168.663 401.026 169.289 402.097 169.677C403.19 170.041 404.341 170.224 405.549 170.224C406.916 170.224 408.067 170.041 409.001 169.677C409.935 169.289 410.642 168.777 411.12 168.139C411.599 167.478 411.838 166.726 411.838 165.883ZM388.254 197.234H397.653V230.286C397.653 234.091 396.833 237.293 395.192 239.891C393.552 242.465 391.319 244.414 388.493 245.735C385.668 247.034 382.455 247.684 378.854 247.684C375.209 247.684 371.962 247.034 369.113 245.735C366.265 244.414 364.032 242.465 362.414 239.891C360.796 237.293 359.987 234.091 359.987 230.286V197.234H369.387V230.286C369.387 232.61 369.774 234.513 370.549 235.994C371.324 237.452 372.417 238.535 373.83 239.241C375.243 239.948 376.918 240.301 378.854 240.301C380.814 240.301 382.489 239.948 383.879 239.241C385.292 238.535 386.374 237.452 387.126 235.994C387.878 234.513 388.254 232.61 388.254 230.286V197.234ZM414.914 217.127V261.219H405.856V210.018H414.23L414.914 217.127ZM438.669 228.133V228.851C438.669 231.539 438.35 234.035 437.712 236.336C437.097 238.615 436.185 240.608 434.978 242.317C433.77 244.004 432.266 245.325 430.466 246.282C428.688 247.216 426.638 247.684 424.313 247.684C422.035 247.684 420.052 247.251 418.366 246.385C416.68 245.496 415.256 244.243 414.094 242.625C412.932 241.007 411.997 239.127 411.291 236.985C410.607 234.821 410.095 232.462 409.753 229.91V227.62C410.095 224.909 410.607 222.448 411.291 220.237C411.997 218.004 412.932 216.079 414.094 214.461C415.256 212.82 416.669 211.556 418.332 210.667C420.018 209.778 421.989 209.334 424.245 209.334C426.592 209.334 428.654 209.778 430.432 210.667C432.232 211.556 433.747 212.832 434.978 214.495C436.208 216.159 437.131 218.141 437.746 220.442C438.361 222.744 438.669 225.307 438.669 228.133ZM429.611 228.851V228.133C429.611 226.492 429.463 224.977 429.167 223.587C428.871 222.174 428.415 220.944 427.8 219.896C427.185 218.825 426.387 217.993 425.407 217.4C424.427 216.808 423.243 216.512 421.853 216.512C420.463 216.512 419.266 216.74 418.264 217.195C417.261 217.651 416.441 218.3 415.803 219.144C415.165 219.987 414.663 220.989 414.299 222.151C413.957 223.291 413.729 224.555 413.615 225.945V231.619C413.82 233.305 414.219 234.821 414.812 236.165C415.404 237.509 416.27 238.58 417.409 239.378C418.571 240.175 420.075 240.574 421.921 240.574C423.311 240.574 424.496 240.267 425.476 239.651C426.455 239.036 427.253 238.193 427.868 237.122C428.483 236.028 428.928 234.775 429.201 233.362C429.475 231.95 429.611 230.446 429.611 228.851ZM461.091 228.885V228.167C461.091 225.455 461.478 222.96 462.253 220.682C463.028 218.38 464.156 216.386 465.637 214.7C467.118 213.014 468.929 211.704 471.071 210.77C473.213 209.812 475.651 209.334 478.386 209.334C481.166 209.334 483.627 209.812 485.769 210.77C487.933 211.704 489.756 213.014 491.237 214.7C492.718 216.386 493.846 218.38 494.621 220.682C495.396 222.96 495.783 225.455 495.783 228.167V228.885C495.783 231.574 495.396 234.069 494.621 236.37C493.846 238.649 492.718 240.643 491.237 242.352C489.756 244.038 487.945 245.348 485.803 246.282C483.661 247.216 481.211 247.684 478.454 247.684C475.72 247.684 473.27 247.216 471.105 246.282C468.941 245.348 467.118 244.038 465.637 242.352C464.156 240.643 463.028 238.649 462.253 236.37C461.478 234.069 461.091 231.574 461.091 228.885ZM470.114 228.167V228.885C470.114 230.503 470.274 232.018 470.593 233.431C470.912 234.843 471.402 236.085 472.062 237.156C472.723 238.227 473.578 239.07 474.626 239.686C475.697 240.278 476.973 240.574 478.454 240.574C479.912 240.574 481.166 240.278 482.214 239.686C483.262 239.07 484.117 238.227 484.777 237.156C485.461 236.085 485.962 234.843 486.281 233.431C486.6 232.018 486.76 230.503 486.76 228.885V228.167C486.76 226.572 486.6 225.079 486.281 223.689C485.962 222.277 485.461 221.035 484.777 219.964C484.117 218.87 483.251 218.016 482.18 217.4C481.132 216.762 479.867 216.443 478.386 216.443C476.927 216.443 475.674 216.762 474.626 217.4C473.578 218.016 472.723 218.87 472.062 219.964C471.402 221.035 470.912 222.277 470.593 223.689C470.274 225.079 470.114 226.572 470.114 228.167ZM514.172 247H505.08V206.6C505.08 203.82 505.616 201.484 506.687 199.593C507.757 197.679 509.284 196.232 511.267 195.252C513.249 194.272 515.585 193.782 518.273 193.782C519.162 193.782 520.005 193.839 520.803 193.953C521.623 194.067 522.432 194.227 523.229 194.432L523.059 201.302C522.626 201.188 522.147 201.108 521.623 201.062C521.122 201.017 520.563 200.994 519.948 200.994C518.718 200.994 517.67 201.211 516.804 201.644C515.938 202.076 515.277 202.715 514.821 203.558C514.388 204.378 514.172 205.392 514.172 206.6V247ZM521.657 210.018V216.512H499.509V210.018H521.657ZM565.031 239.139V222.083C565.031 220.83 564.815 219.747 564.382 218.836C563.949 217.924 563.288 217.218 562.399 216.717C561.511 216.215 560.383 215.965 559.016 215.965C557.808 215.965 556.748 216.17 555.837 216.58C554.948 216.99 554.265 217.571 553.786 218.323C553.308 219.052 553.068 219.896 553.068 220.853H544.011C544.011 219.326 544.375 217.879 545.104 216.512C545.834 215.122 546.87 213.891 548.215 212.82C549.582 211.727 551.211 210.872 553.103 210.257C555.017 209.642 557.159 209.334 559.528 209.334C562.331 209.334 564.826 209.812 567.014 210.77C569.224 211.704 570.956 213.117 572.209 215.008C573.485 216.899 574.123 219.28 574.123 222.151V238.284C574.123 240.13 574.237 241.714 574.465 243.035C574.715 244.334 575.08 245.462 575.559 246.419V247H566.364C565.931 246.066 565.601 244.881 565.373 243.445C565.145 241.987 565.031 240.551 565.031 239.139ZM566.296 224.476L566.364 229.842H560.656C559.243 229.842 558.002 229.99 556.931 230.286C555.86 230.56 554.982 230.97 554.299 231.517C553.615 232.041 553.103 232.679 552.761 233.431C552.419 234.16 552.248 234.992 552.248 235.926C552.248 236.837 552.453 237.658 552.863 238.387C553.296 239.116 553.911 239.697 554.709 240.13C555.529 240.54 556.486 240.745 557.58 240.745C559.175 240.745 560.565 240.426 561.75 239.788C562.935 239.127 563.858 238.33 564.519 237.396C565.179 236.461 565.533 235.573 565.578 234.729L568.176 238.626C567.857 239.56 567.378 240.551 566.74 241.6C566.102 242.648 565.282 243.628 564.279 244.539C563.277 245.451 562.069 246.202 560.656 246.795C559.243 247.387 557.603 247.684 555.734 247.684C553.342 247.684 551.2 247.205 549.309 246.248C547.417 245.291 545.925 243.981 544.831 242.317C543.737 240.654 543.19 238.763 543.19 236.644C543.19 234.684 543.555 232.952 544.284 231.448C545.013 229.944 546.096 228.68 547.531 227.654C548.967 226.606 550.744 225.82 552.863 225.296C555.005 224.749 557.455 224.476 560.212 224.476H566.296ZM614.865 240.574C616.141 240.574 617.281 240.324 618.283 239.822C619.286 239.321 620.083 238.615 620.676 237.703C621.291 236.792 621.621 235.732 621.667 234.524H630.178C630.132 237.031 629.426 239.275 628.059 241.258C626.691 243.24 624.868 244.812 622.59 245.975C620.334 247.114 617.805 247.684 615.002 247.684C612.154 247.684 609.67 247.205 607.551 246.248C605.432 245.291 603.666 243.958 602.253 242.249C600.863 240.54 599.815 238.558 599.108 236.302C598.425 234.046 598.083 231.631 598.083 229.056V227.962C598.083 225.387 598.425 222.972 599.108 220.716C599.815 218.46 600.863 216.478 602.253 214.769C603.666 213.06 605.432 211.727 607.551 210.77C609.67 209.812 612.142 209.334 614.968 209.334C617.953 209.334 620.573 209.915 622.829 211.077C625.108 212.239 626.885 213.88 628.161 215.999C629.46 218.118 630.132 220.613 630.178 223.484H621.667C621.621 222.163 621.325 220.978 620.778 219.93C620.231 218.882 619.457 218.038 618.454 217.4C617.451 216.762 616.232 216.443 614.797 216.443C613.27 216.443 611.994 216.762 610.969 217.4C609.966 218.038 609.18 218.916 608.61 220.032C608.063 221.126 607.676 222.356 607.448 223.724C607.243 225.068 607.141 226.481 607.141 227.962V229.056C607.141 230.56 607.243 231.995 607.448 233.362C607.676 234.729 608.063 235.96 608.61 237.054C609.18 238.125 609.966 238.979 610.969 239.617C611.994 240.255 613.293 240.574 614.865 240.574ZM634.587 228.885V228.167C634.587 225.455 634.974 222.96 635.749 220.682C636.524 218.38 637.652 216.386 639.133 214.7C640.614 213.014 642.425 211.704 644.567 210.77C646.709 209.812 649.147 209.334 651.882 209.334C654.662 209.334 657.123 209.812 659.265 210.77C661.429 211.704 663.252 213.014 664.733 214.7C666.215 216.386 667.342 218.38 668.117 220.682C668.892 222.96 669.279 225.455 669.279 228.167V228.885C669.279 231.574 668.892 234.069 668.117 236.37C667.342 238.649 666.215 240.643 664.733 242.352C663.252 244.038 661.441 245.348 659.299 246.282C657.157 247.216 654.707 247.684 651.95 247.684C649.216 247.684 646.766 247.216 644.602 246.282C642.437 245.348 640.614 244.038 639.133 242.352C637.652 240.643 636.524 238.649 635.749 236.37C634.974 234.069 634.587 231.574 634.587 228.885ZM643.61 228.167V228.885C643.61 230.503 643.77 232.018 644.089 233.431C644.408 234.843 644.898 236.085 645.559 237.156C646.219 238.227 647.074 239.07 648.122 239.686C649.193 240.278 650.469 240.574 651.95 240.574C653.409 240.574 654.662 240.278 655.71 239.686C656.758 239.07 657.613 238.227 658.273 237.156C658.957 236.085 659.458 234.843 659.777 233.431C660.096 232.018 660.256 230.503 660.256 228.885V228.167C660.256 226.572 660.096 225.079 659.777 223.689C659.458 222.277 658.957 221.035 658.273 219.964C657.613 218.87 656.747 218.016 655.676 217.4C654.628 216.762 653.363 216.443 651.882 216.443C650.424 216.443 649.17 216.762 648.122 217.4C647.074 218.016 646.219 218.87 645.559 219.964C644.898 221.035 644.408 222.277 644.089 223.689C643.77 225.079 643.61 226.572 643.61 228.167ZM684.831 217.605V247H675.808V210.018H684.318L684.831 217.605ZM683.498 227.176H680.729C680.729 224.601 681.037 222.231 681.652 220.066C682.29 217.902 683.225 216.022 684.455 214.427C685.686 212.809 687.201 211.556 689.001 210.667C690.824 209.778 692.932 209.334 695.324 209.334C696.988 209.334 698.514 209.585 699.904 210.086C701.294 210.564 702.491 211.328 703.493 212.376C704.519 213.401 705.305 214.746 705.852 216.409C706.398 218.05 706.672 220.021 706.672 222.322V247H697.648V223.245C697.648 221.513 697.398 220.158 696.896 219.178C696.418 218.198 695.723 217.514 694.812 217.127C693.9 216.717 692.806 216.512 691.53 216.512C690.118 216.512 688.898 216.797 687.873 217.366C686.87 217.913 686.039 218.676 685.378 219.656C684.74 220.636 684.261 221.764 683.942 223.04C683.646 224.316 683.498 225.695 683.498 227.176ZM705.988 225.501L702.263 226.185C702.285 223.86 702.604 221.684 703.22 219.656C703.835 217.605 704.735 215.817 705.92 214.29C707.128 212.741 708.62 211.533 710.397 210.667C712.198 209.778 714.271 209.334 716.618 209.334C718.441 209.334 720.082 209.596 721.54 210.12C723.021 210.621 724.286 211.43 725.334 212.547C726.382 213.641 727.18 215.065 727.727 216.819C728.296 218.574 728.581 220.716 728.581 223.245V247H719.489V223.211C719.489 221.411 719.239 220.032 718.737 219.075C718.259 218.118 717.564 217.457 716.652 217.093C715.741 216.705 714.67 216.512 713.439 216.512C712.186 216.512 711.092 216.751 710.158 217.229C709.247 217.685 708.472 218.323 707.834 219.144C707.219 219.964 706.752 220.921 706.433 222.015C706.136 223.086 705.988 224.248 705.988 225.501ZM745.705 217.127V261.219H736.647V210.018H745.021L745.705 217.127ZM769.46 228.133V228.851C769.46 231.539 769.141 234.035 768.503 236.336C767.888 238.615 766.976 240.608 765.769 242.317C764.561 244.004 763.057 245.325 761.257 246.282C759.479 247.216 757.429 247.684 755.104 247.684C752.826 247.684 750.843 247.251 749.157 246.385C747.471 245.496 746.047 244.243 744.885 242.625C743.723 241.007 742.788 239.127 742.082 236.985C741.398 234.821 740.886 232.462 740.544 229.91V227.62C740.886 224.909 741.398 222.448 742.082 220.237C742.788 218.004 743.723 216.079 744.885 214.461C746.047 212.82 747.46 211.556 749.123 210.667C750.809 209.778 752.78 209.334 755.036 209.334C757.383 209.334 759.445 209.778 761.223 210.667C763.023 211.556 764.538 212.832 765.769 214.495C766.999 216.159 767.922 218.141 768.537 220.442C769.152 222.744 769.46 225.307 769.46 228.133ZM760.402 228.851V228.133C760.402 226.492 760.254 224.977 759.958 223.587C759.662 222.174 759.206 220.944 758.591 219.896C757.976 218.825 757.178 217.993 756.198 217.4C755.218 216.808 754.034 216.512 752.644 216.512C751.254 216.512 750.057 216.74 749.055 217.195C748.052 217.651 747.232 218.3 746.594 219.144C745.956 219.987 745.454 220.989 745.09 222.151C744.748 223.291 744.52 224.555 744.406 225.945V231.619C744.611 233.305 745.01 234.821 745.603 236.165C746.195 237.509 747.061 238.58 748.2 239.378C749.362 240.175 750.866 240.574 752.712 240.574C754.102 240.574 755.287 240.267 756.267 239.651C757.246 239.036 758.044 238.193 758.659 237.122C759.274 236.028 759.719 234.775 759.992 233.362C760.266 231.95 760.402 230.446 760.402 228.851ZM796.428 239.139V222.083C796.428 220.83 796.211 219.747 795.778 218.836C795.345 217.924 794.685 217.218 793.796 216.717C792.907 216.215 791.779 215.965 790.412 215.965C789.204 215.965 788.145 216.17 787.233 216.58C786.345 216.99 785.661 217.571 785.183 218.323C784.704 219.052 784.465 219.896 784.465 220.853H775.407C775.407 219.326 775.772 217.879 776.501 216.512C777.23 215.122 778.267 213.891 779.611 212.82C780.979 211.727 782.608 210.872 784.499 210.257C786.413 209.642 788.555 209.334 790.925 209.334C793.728 209.334 796.223 209.812 798.41 210.77C800.62 211.704 802.352 213.117 803.605 215.008C804.882 216.899 805.52 219.28 805.52 222.151V238.284C805.52 240.13 805.633 241.714 805.861 243.035C806.112 244.334 806.477 245.462 806.955 246.419V247H797.761C797.328 246.066 796.997 244.881 796.77 243.445C796.542 241.987 796.428 240.551 796.428 239.139ZM797.692 224.476L797.761 229.842H792.053C790.64 229.842 789.398 229.99 788.327 230.286C787.256 230.56 786.379 230.97 785.695 231.517C785.012 232.041 784.499 232.679 784.157 233.431C783.815 234.16 783.645 234.992 783.645 235.926C783.645 236.837 783.85 237.658 784.26 238.387C784.693 239.116 785.308 239.697 786.105 240.13C786.926 240.54 787.883 240.745 788.977 240.745C790.572 240.745 791.962 240.426 793.146 239.788C794.331 239.127 795.254 238.33 795.915 237.396C796.576 236.461 796.929 235.573 796.975 234.729L799.572 238.626C799.253 239.56 798.775 240.551 798.137 241.6C797.499 242.648 796.678 243.628 795.676 244.539C794.673 245.451 793.465 246.202 792.053 246.795C790.64 247.387 788.999 247.684 787.131 247.684C784.738 247.684 782.596 247.205 780.705 246.248C778.814 245.291 777.321 243.981 776.228 242.317C775.134 240.654 774.587 238.763 774.587 236.644C774.587 234.684 774.951 232.952 775.681 231.448C776.41 229.944 777.492 228.68 778.928 227.654C780.363 226.606 782.141 225.82 784.26 225.296C786.402 224.749 788.851 224.476 791.608 224.476H797.692ZM822.507 217.913V247H813.483V210.018H821.96L822.507 217.913ZM821.071 227.176H818.405C818.428 224.487 818.793 222.049 819.499 219.861C820.205 217.674 821.197 215.794 822.473 214.222C823.771 212.649 825.31 211.442 827.087 210.599C828.864 209.756 830.847 209.334 833.034 209.334C834.812 209.334 836.418 209.585 837.854 210.086C839.289 210.587 840.52 211.385 841.545 212.479C842.593 213.572 843.391 215.008 843.938 216.785C844.507 218.54 844.792 220.704 844.792 223.279V247H835.7V223.211C835.7 221.525 835.45 220.192 834.948 219.212C834.47 218.232 833.763 217.537 832.829 217.127C831.918 216.717 830.79 216.512 829.445 216.512C828.055 216.512 826.836 216.797 825.788 217.366C824.763 217.913 823.897 218.676 823.19 219.656C822.507 220.636 821.983 221.764 821.618 223.04C821.254 224.316 821.071 225.695 821.071 227.176ZM863.591 242.898L873.503 210.018H883.176L868.342 252.605C868 253.517 867.556 254.508 867.009 255.579C866.485 256.65 865.778 257.664 864.89 258.621C864.001 259.601 862.884 260.398 861.54 261.014C860.218 261.629 858.612 261.937 856.721 261.937C855.9 261.937 855.171 261.88 854.533 261.766C853.895 261.652 853.223 261.504 852.517 261.321V254.554C852.744 254.576 853.007 254.588 853.303 254.588C853.622 254.611 853.895 254.622 854.123 254.622C855.445 254.622 856.538 254.463 857.404 254.144C858.27 253.847 858.965 253.357 859.489 252.674C860.036 252.013 860.492 251.147 860.856 250.076L863.591 242.898ZM858.703 210.018L867.077 237.259L868.547 246.795L862.326 247.923L848.962 210.018H858.703ZM903.615 232.063H895.446C895.469 229.99 895.64 228.213 895.959 226.731C896.301 225.25 896.859 223.917 897.634 222.732C898.409 221.525 899.457 220.294 900.778 219.041C901.826 218.061 902.761 217.138 903.581 216.272C904.424 215.384 905.085 214.461 905.563 213.504C906.042 212.524 906.281 211.419 906.281 210.188C906.281 208.799 906.053 207.636 905.598 206.702C905.165 205.768 904.515 205.062 903.649 204.583C902.806 204.082 901.747 203.831 900.471 203.831C899.423 203.831 898.431 204.048 897.497 204.48C896.563 204.913 895.811 205.586 895.241 206.497C894.672 207.386 894.364 208.548 894.318 209.983H885.261C885.329 206.998 886.035 204.515 887.38 202.532C888.724 200.527 890.536 199.035 892.814 198.055C895.093 197.052 897.645 196.551 900.471 196.551C903.592 196.551 906.258 197.075 908.469 198.123C910.702 199.148 912.399 200.652 913.562 202.635C914.746 204.617 915.339 207.01 915.339 209.812C915.339 211.818 914.951 213.618 914.177 215.213C913.402 216.785 912.377 218.255 911.101 219.622C909.825 220.989 908.446 222.368 906.965 223.758C905.666 224.92 904.789 226.162 904.333 227.483C903.877 228.805 903.638 230.332 903.615 232.063ZM894.592 242.693C894.592 241.326 895.048 240.187 895.959 239.275C896.893 238.364 898.146 237.908 899.719 237.908C901.291 237.908 902.533 238.364 903.444 239.275C904.379 240.187 904.846 241.326 904.846 242.693C904.846 244.015 904.379 245.132 903.444 246.043C902.533 246.954 901.291 247.41 899.719 247.41C898.146 247.41 896.893 246.954 895.959 246.043C895.048 245.132 894.592 244.015 894.592 242.693Z" fill="#1C4670"/>
<path d="M460.134 169.574C461.41 169.574 462.549 169.324 463.552 168.822C464.554 168.321 465.352 167.615 465.944 166.703C466.56 165.792 466.89 164.732 466.936 163.524H475.446C475.401 166.031 474.694 168.275 473.327 170.258C471.96 172.24 470.137 173.812 467.858 174.975C465.603 176.114 463.073 176.684 460.271 176.684C457.422 176.684 454.938 176.205 452.819 175.248C450.7 174.291 448.934 172.958 447.521 171.249C446.132 169.54 445.083 167.558 444.377 165.302C443.693 163.046 443.352 160.631 443.352 158.056V156.962C443.352 154.387 443.693 151.972 444.377 149.716C445.083 147.46 446.132 145.478 447.521 143.769C448.934 142.06 450.7 140.727 452.819 139.77C454.938 138.812 457.411 138.334 460.236 138.334C463.221 138.334 465.842 138.915 468.098 140.077C470.376 141.239 472.154 142.88 473.43 144.999C474.729 147.118 475.401 149.613 475.446 152.484H466.936C466.89 151.163 466.594 149.978 466.047 148.93C465.5 147.882 464.725 147.038 463.723 146.4C462.72 145.762 461.501 145.443 460.065 145.443C458.539 145.443 457.263 145.762 456.237 146.4C455.235 147.038 454.449 147.916 453.879 149.032C453.332 150.126 452.945 151.356 452.717 152.724C452.512 154.068 452.409 155.481 452.409 156.962V158.056C452.409 159.56 452.512 160.995 452.717 162.362C452.945 163.729 453.332 164.96 453.879 166.054C454.449 167.125 455.235 167.979 456.237 168.617C457.263 169.255 458.562 169.574 460.134 169.574ZM479.855 157.885V157.167C479.855 154.455 480.243 151.96 481.018 149.682C481.792 147.38 482.92 145.386 484.401 143.7C485.882 142.014 487.694 140.704 489.836 139.77C491.978 138.812 494.416 138.334 497.15 138.334C499.93 138.334 502.391 138.812 504.533 139.77C506.698 140.704 508.521 142.014 510.002 143.7C511.483 145.386 512.611 147.38 513.386 149.682C514.16 151.96 514.548 154.455 514.548 157.167V157.885C514.548 160.574 514.16 163.069 513.386 165.37C512.611 167.649 511.483 169.643 510.002 171.352C508.521 173.038 506.709 174.348 504.567 175.282C502.425 176.216 499.976 176.684 497.219 176.684C494.484 176.684 492.035 176.216 489.87 175.282C487.705 174.348 485.882 173.038 484.401 171.352C482.92 169.643 481.792 167.649 481.018 165.37C480.243 163.069 479.855 160.574 479.855 157.885ZM488.879 157.167V157.885C488.879 159.503 489.038 161.018 489.357 162.431C489.676 163.843 490.166 165.085 490.827 166.156C491.488 167.227 492.342 168.07 493.391 168.686C494.462 169.278 495.738 169.574 497.219 169.574C498.677 169.574 499.93 169.278 500.979 168.686C502.027 168.07 502.881 167.227 503.542 166.156C504.226 165.085 504.727 163.843 505.046 162.431C505.365 161.018 505.524 159.503 505.524 157.885V157.167C505.524 155.572 505.365 154.079 505.046 152.689C504.727 151.277 504.226 150.035 503.542 148.964C502.881 147.87 502.015 147.016 500.944 146.4C499.896 145.762 498.632 145.443 497.15 145.443C495.692 145.443 494.439 145.762 493.391 146.4C492.342 147.016 491.488 147.87 490.827 148.964C490.166 150.035 489.676 151.277 489.357 152.689C489.038 154.079 488.879 155.572 488.879 157.167ZM530.1 146.605V176H521.076V139.018H529.587L530.1 146.605ZM528.767 156.176H525.998C525.998 153.601 526.306 151.231 526.921 149.066C527.559 146.902 528.493 145.022 529.724 143.427C530.954 141.809 532.469 140.556 534.27 139.667C536.092 138.778 538.2 138.334 540.593 138.334C542.256 138.334 543.783 138.585 545.173 139.086C546.563 139.564 547.759 140.328 548.762 141.376C549.787 142.401 550.573 143.746 551.12 145.409C551.667 147.05 551.94 149.021 551.94 151.322V176H542.917V152.245C542.917 150.513 542.666 149.158 542.165 148.178C541.687 147.198 540.992 146.514 540.08 146.127C539.169 145.717 538.075 145.512 536.799 145.512C535.386 145.512 534.167 145.797 533.142 146.366C532.139 146.913 531.307 147.676 530.646 148.656C530.008 149.636 529.53 150.764 529.211 152.04C528.915 153.316 528.767 154.695 528.767 156.176ZM551.257 154.501L547.531 155.185C547.554 152.86 547.873 150.684 548.488 148.656C549.104 146.605 550.004 144.817 551.188 143.29C552.396 141.741 553.889 140.533 555.666 139.667C557.466 138.778 559.54 138.334 561.887 138.334C563.71 138.334 565.35 138.596 566.809 139.12C568.29 139.621 569.554 140.43 570.603 141.547C571.651 142.641 572.448 144.065 572.995 145.819C573.565 147.574 573.85 149.716 573.85 152.245V176H564.758V152.211C564.758 150.411 564.507 149.032 564.006 148.075C563.527 147.118 562.832 146.457 561.921 146.093C561.009 145.705 559.938 145.512 558.708 145.512C557.455 145.512 556.361 145.751 555.427 146.229C554.515 146.685 553.741 147.323 553.103 148.144C552.487 148.964 552.02 149.921 551.701 151.015C551.405 152.086 551.257 153.248 551.257 154.501ZM590.974 146.127V190.219H581.916V139.018H590.29L590.974 146.127ZM614.729 157.133V157.851C614.729 160.539 614.41 163.035 613.771 165.336C613.156 167.615 612.245 169.608 611.037 171.317C609.829 173.004 608.326 174.325 606.525 175.282C604.748 176.216 602.697 176.684 600.373 176.684C598.094 176.684 596.112 176.251 594.426 175.385C592.74 174.496 591.315 173.243 590.153 171.625C588.991 170.007 588.057 168.127 587.351 165.985C586.667 163.821 586.154 161.462 585.812 158.91V156.62C586.154 153.909 586.667 151.448 587.351 149.237C588.057 147.004 588.991 145.079 590.153 143.461C591.315 141.82 592.728 140.556 594.392 139.667C596.078 138.778 598.049 138.334 600.305 138.334C602.652 138.334 604.714 138.778 606.491 139.667C608.291 140.556 609.807 141.832 611.037 143.495C612.268 145.159 613.19 147.141 613.806 149.442C614.421 151.744 614.729 154.307 614.729 157.133ZM605.671 157.851V157.133C605.671 155.492 605.523 153.977 605.227 152.587C604.93 151.174 604.475 149.944 603.859 148.896C603.244 147.825 602.447 146.993 601.467 146.4C600.487 145.808 599.302 145.512 597.912 145.512C596.522 145.512 595.326 145.74 594.323 146.195C593.321 146.651 592.5 147.3 591.862 148.144C591.224 148.987 590.723 149.989 590.358 151.151C590.017 152.291 589.789 153.555 589.675 154.945V160.619C589.88 162.305 590.279 163.821 590.871 165.165C591.464 166.509 592.329 167.58 593.469 168.378C594.631 169.175 596.135 169.574 597.98 169.574C599.37 169.574 600.555 169.267 601.535 168.651C602.515 168.036 603.312 167.193 603.928 166.122C604.543 165.028 604.987 163.775 605.261 162.362C605.534 160.95 605.671 159.446 605.671 157.851ZM643.337 167.216V139.018H652.429V176H643.884L643.337 167.216ZM644.499 159.56L647.302 159.491C647.302 161.975 647.028 164.265 646.481 166.361C645.935 168.458 645.08 170.281 643.918 171.83C642.779 173.357 641.332 174.553 639.577 175.419C637.823 176.262 635.749 176.684 633.356 176.684C631.534 176.684 629.87 176.433 628.366 175.932C626.862 175.408 625.563 174.599 624.47 173.505C623.399 172.388 622.567 170.964 621.975 169.232C621.382 167.478 621.086 165.37 621.086 162.909V139.018H630.109V162.978C630.109 164.208 630.246 165.233 630.52 166.054C630.816 166.874 631.215 167.546 631.716 168.07C632.24 168.572 632.844 168.936 633.527 169.164C634.234 169.369 634.986 169.472 635.783 169.472C637.971 169.472 639.691 169.039 640.944 168.173C642.22 167.284 643.132 166.099 643.679 164.618C644.226 163.114 644.499 161.428 644.499 159.56ZM669.997 123.5V176H660.939V123.5H669.997ZM698.947 165.883C698.947 165.108 698.742 164.413 698.332 163.798C697.922 163.183 697.147 162.624 696.008 162.123C694.891 161.599 693.251 161.109 691.086 160.653C689.172 160.243 687.406 159.73 685.788 159.115C684.17 158.5 682.78 157.759 681.618 156.894C680.456 156.005 679.545 154.968 678.884 153.783C678.246 152.576 677.927 151.186 677.927 149.613C677.927 148.087 678.257 146.651 678.918 145.307C679.579 143.939 680.536 142.743 681.789 141.718C683.042 140.67 684.569 139.849 686.369 139.257C688.169 138.642 690.197 138.334 692.453 138.334C695.598 138.334 698.298 138.847 700.554 139.872C702.832 140.897 704.576 142.31 705.783 144.11C706.991 145.888 707.595 147.893 707.595 150.126H698.571C698.571 149.146 698.343 148.257 697.888 147.46C697.455 146.662 696.783 146.024 695.871 145.546C694.96 145.045 693.809 144.794 692.419 144.794C691.166 144.794 690.106 144.999 689.24 145.409C688.397 145.819 687.759 146.355 687.326 147.016C686.893 147.676 686.677 148.406 686.677 149.203C686.677 149.796 686.791 150.331 687.019 150.81C687.269 151.265 687.668 151.687 688.215 152.074C688.762 152.462 689.502 152.815 690.437 153.134C691.394 153.453 692.567 153.76 693.957 154.057C696.714 154.604 699.118 155.333 701.169 156.244C703.243 157.133 704.86 158.318 706.022 159.799C707.185 161.28 707.766 163.171 707.766 165.473C707.766 167.113 707.412 168.617 706.706 169.984C706 171.329 704.974 172.502 703.63 173.505C702.285 174.507 700.679 175.294 698.811 175.863C696.942 176.41 694.834 176.684 692.487 176.684C689.092 176.684 686.221 176.08 683.874 174.872C681.527 173.642 679.75 172.092 678.542 170.224C677.334 168.332 676.73 166.373 676.73 164.345H685.378C685.446 165.78 685.834 166.931 686.54 167.797C687.246 168.663 688.135 169.289 689.206 169.677C690.3 170.041 691.451 170.224 692.658 170.224C694.025 170.224 695.176 170.041 696.11 169.677C697.045 169.289 697.751 168.777 698.229 168.139C698.708 167.478 698.947 166.726 698.947 165.883ZM713.029 157.885V157.167C713.029 154.455 713.417 151.96 714.191 149.682C714.966 147.38 716.094 145.386 717.575 143.7C719.056 142.014 720.868 140.704 723.01 139.77C725.152 138.812 727.59 138.334 730.324 138.334C733.104 138.334 735.565 138.812 737.707 139.77C739.872 140.704 741.695 142.014 743.176 143.7C744.657 145.386 745.785 147.38 746.56 149.682C747.334 151.96 747.722 154.455 747.722 157.167V157.885C747.722 160.574 747.334 163.069 746.56 165.37C745.785 167.649 744.657 169.643 743.176 171.352C741.695 173.038 739.883 174.348 737.741 175.282C735.599 176.216 733.15 176.684 730.393 176.684C727.658 176.684 725.209 176.216 723.044 175.282C720.879 174.348 719.056 173.038 717.575 171.352C716.094 169.643 714.966 167.649 714.191 165.37C713.417 163.069 713.029 160.574 713.029 157.885ZM722.053 157.167V157.885C722.053 159.503 722.212 161.018 722.531 162.431C722.85 163.843 723.34 165.085 724.001 166.156C724.662 167.227 725.516 168.07 726.564 168.686C727.635 169.278 728.911 169.574 730.393 169.574C731.851 169.574 733.104 169.278 734.152 168.686C735.201 168.07 736.055 167.227 736.716 166.156C737.399 165.085 737.901 163.843 738.22 162.431C738.539 161.018 738.698 159.503 738.698 157.885V157.167C738.698 155.572 738.539 154.079 738.22 152.689C737.901 151.277 737.399 150.035 736.716 148.964C736.055 147.87 735.189 147.016 734.118 146.4C733.07 145.762 731.805 145.443 730.324 145.443C728.866 145.443 727.613 145.762 726.564 146.4C725.516 147.016 724.662 147.87 724.001 148.964C723.34 150.035 722.85 151.277 722.531 152.689C722.212 154.079 722.053 155.572 722.053 157.167ZM763.308 146.571V176H754.284V139.018H762.829L763.308 146.571ZM774.553 138.778L774.416 147.187C773.915 147.095 773.345 147.027 772.707 146.981C772.092 146.936 771.511 146.913 770.964 146.913C769.574 146.913 768.355 147.107 767.307 147.494C766.258 147.859 765.381 148.394 764.675 149.101C763.991 149.807 763.467 150.673 763.103 151.698C762.738 152.701 762.533 153.84 762.487 155.116L760.539 154.877C760.539 152.53 760.778 150.354 761.257 148.349C761.735 146.343 762.43 144.589 763.342 143.085C764.253 141.581 765.393 140.419 766.76 139.599C768.15 138.756 769.745 138.334 771.545 138.334C772.046 138.334 772.582 138.38 773.151 138.471C773.744 138.539 774.211 138.642 774.553 138.778ZM790.959 171.898L800.871 139.018H810.544L795.71 181.605C795.368 182.517 794.924 183.508 794.377 184.579C793.853 185.65 793.146 186.664 792.258 187.621C791.369 188.601 790.253 189.398 788.908 190.014C787.587 190.629 785.98 190.937 784.089 190.937C783.269 190.937 782.539 190.88 781.901 190.766C781.263 190.652 780.591 190.504 779.885 190.321V183.554C780.113 183.576 780.375 183.588 780.671 183.588C780.99 183.611 781.263 183.622 781.491 183.622C782.813 183.622 783.907 183.463 784.772 183.144C785.638 182.847 786.333 182.357 786.857 181.674C787.404 181.013 787.86 180.147 788.225 179.076L790.959 171.898ZM786.071 139.018L794.445 166.259L795.915 175.795L789.694 176.923L776.33 139.018H786.071ZM100.051 237.464L109.963 197.234H115.329L115.671 205.711L105.075 247H99.4014L100.051 237.464ZM93.7959 197.234L101.931 237.327V247H95.7441L84.4648 197.234H93.7959ZM125.959 237.156L133.957 197.234H143.322L132.043 247H125.856L125.959 237.156ZM117.893 197.234L127.805 237.601L128.386 247H122.712L112.15 205.677L112.561 197.234H117.893ZM158.156 210.018V247H149.099V210.018H158.156ZM148.483 200.345C148.483 199 148.939 197.884 149.851 196.995C150.785 196.106 152.038 195.662 153.61 195.662C155.183 195.662 156.424 196.106 157.336 196.995C158.27 197.884 158.737 199 158.737 200.345C158.737 201.666 158.27 202.771 157.336 203.66C156.424 204.549 155.183 204.993 153.61 204.993C152.038 204.993 150.785 204.549 149.851 203.66C148.939 202.771 148.483 201.666 148.483 200.345ZM175.622 217.913V247H166.599V210.018H175.075L175.622 217.913ZM174.187 227.176H171.521C171.543 224.487 171.908 222.049 172.614 219.861C173.321 217.674 174.312 215.794 175.588 214.222C176.887 212.649 178.425 211.442 180.202 210.599C181.979 209.756 183.962 209.334 186.149 209.334C187.927 209.334 189.533 209.585 190.969 210.086C192.404 210.587 193.635 211.385 194.66 212.479C195.708 213.572 196.506 215.008 197.053 216.785C197.622 218.54 197.907 220.704 197.907 223.279V247H188.815V223.211C188.815 221.525 188.565 220.192 188.063 219.212C187.585 218.232 186.879 217.537 185.944 217.127C185.033 216.717 183.905 216.512 182.561 216.512C181.171 216.512 179.951 216.797 178.903 217.366C177.878 217.913 177.012 218.676 176.306 219.656C175.622 220.636 175.098 221.764 174.733 223.04C174.369 224.316 174.187 225.695 174.187 227.176ZM228.054 239.139V194.5H237.146V247H228.942L228.054 239.139ZM204.299 228.953V228.235C204.299 225.41 204.618 222.846 205.256 220.545C205.917 218.221 206.874 216.227 208.127 214.563C209.38 212.9 210.896 211.613 212.673 210.701C214.473 209.79 216.512 209.334 218.791 209.334C221.001 209.334 222.927 209.778 224.567 210.667C226.231 211.556 227.644 212.82 228.806 214.461C229.991 216.102 230.936 218.05 231.643 220.306C232.349 222.539 232.862 225 233.181 227.688V229.637C232.862 232.257 232.349 234.661 231.643 236.849C230.936 239.036 229.991 240.95 228.806 242.591C227.644 244.209 226.231 245.462 224.567 246.351C222.904 247.239 220.956 247.684 218.723 247.684C216.467 247.684 214.439 247.216 212.639 246.282C210.861 245.348 209.346 244.038 208.093 242.352C206.862 240.665 205.917 238.683 205.256 236.404C204.618 234.126 204.299 231.642 204.299 228.953ZM213.356 228.235V228.953C213.356 230.548 213.493 232.041 213.767 233.431C214.04 234.821 214.484 236.051 215.1 237.122C215.715 238.17 216.501 238.991 217.458 239.583C218.438 240.175 219.623 240.472 221.013 240.472C222.79 240.472 224.248 240.084 225.388 239.31C226.55 238.512 227.45 237.43 228.088 236.062C228.726 234.673 229.136 233.112 229.318 231.38V226.014C229.227 224.646 228.988 223.382 228.601 222.22C228.236 221.058 227.712 220.055 227.028 219.212C226.368 218.369 225.547 217.708 224.567 217.229C223.588 216.751 222.425 216.512 221.081 216.512C219.691 216.512 218.506 216.819 217.526 217.435C216.547 218.027 215.749 218.859 215.134 219.93C214.519 221.001 214.063 222.243 213.767 223.655C213.493 225.068 213.356 226.595 213.356 228.235ZM254.885 210.018V247H245.827V210.018H254.885ZM245.212 200.345C245.212 199 245.668 197.884 246.579 196.995C247.513 196.106 248.767 195.662 250.339 195.662C251.911 195.662 253.153 196.106 254.064 196.995C254.999 197.884 255.466 199 255.466 200.345C255.466 201.666 254.999 202.771 254.064 203.66C253.153 204.549 251.911 204.993 250.339 204.993C248.767 204.993 247.513 204.549 246.579 203.66C245.668 202.771 245.212 201.666 245.212 200.345ZM272.351 217.913V247H263.327V210.018H271.804L272.351 217.913ZM270.915 227.176H268.249C268.272 224.487 268.636 222.049 269.343 219.861C270.049 217.674 271.04 215.794 272.316 214.222C273.615 212.649 275.153 211.442 276.931 210.599C278.708 209.756 280.69 209.334 282.878 209.334C284.655 209.334 286.262 209.585 287.697 210.086C289.133 210.587 290.363 211.385 291.389 212.479C292.437 213.572 293.234 215.008 293.781 216.785C294.351 218.54 294.636 220.704 294.636 223.279V247H285.544V223.211C285.544 221.525 285.293 220.192 284.792 219.212C284.313 218.232 283.607 217.537 282.673 217.127C281.761 216.717 280.633 216.512 279.289 216.512C277.899 216.512 276.68 216.797 275.632 217.366C274.606 217.913 273.741 218.676 273.034 219.656C272.351 220.636 271.826 221.764 271.462 223.04C271.097 224.316 270.915 225.695 270.915 227.176ZM326.115 210.018H334.318V245.872C334.318 249.222 333.589 252.059 332.131 254.383C330.695 256.73 328.679 258.507 326.081 259.715C323.483 260.945 320.464 261.561 317.023 261.561C315.542 261.561 313.936 261.355 312.204 260.945C310.495 260.535 308.843 259.886 307.248 258.997C305.676 258.131 304.366 257.003 303.317 255.613L307.385 250.281C308.615 251.717 310.005 252.799 311.555 253.528C313.104 254.28 314.779 254.656 316.579 254.656C318.402 254.656 319.951 254.314 321.228 253.631C322.526 252.97 323.518 251.99 324.201 250.691C324.908 249.415 325.261 247.843 325.261 245.975V218.46L326.115 210.018ZM301.13 228.953V228.235C301.13 225.41 301.472 222.846 302.155 220.545C302.839 218.221 303.819 216.227 305.095 214.563C306.394 212.9 307.954 211.613 309.777 210.701C311.623 209.79 313.697 209.334 315.998 209.334C318.436 209.334 320.487 209.778 322.15 210.667C323.837 211.556 325.227 212.82 326.32 214.461C327.437 216.102 328.303 218.05 328.918 220.306C329.556 222.539 330.046 225 330.388 227.688V229.637C330.069 232.257 329.556 234.661 328.85 236.849C328.166 239.036 327.255 240.95 326.115 242.591C324.976 244.209 323.563 245.462 321.877 246.351C320.191 247.239 318.208 247.684 315.93 247.684C313.651 247.684 311.6 247.216 309.777 246.282C307.954 245.348 306.394 244.038 305.095 242.352C303.819 240.665 302.839 238.683 302.155 236.404C301.472 234.126 301.13 231.642 301.13 228.953ZM310.153 228.235V228.953C310.153 230.548 310.313 232.041 310.632 233.431C310.951 234.821 311.441 236.051 312.102 237.122C312.762 238.17 313.594 238.991 314.597 239.583C315.599 240.175 316.796 240.472 318.186 240.472C320.054 240.472 321.581 240.084 322.766 239.31C323.973 238.512 324.885 237.43 325.5 236.062C326.138 234.673 326.548 233.112 326.73 231.38V226.014C326.617 224.646 326.366 223.382 325.979 222.22C325.614 221.058 325.101 220.055 324.44 219.212C323.78 218.369 322.937 217.708 321.911 217.229C320.886 216.751 319.667 216.512 318.254 216.512C316.887 216.512 315.69 216.819 314.665 217.435C313.64 218.027 312.797 218.859 312.136 219.93C311.475 221.001 310.974 222.243 310.632 223.655C310.313 225.068 310.153 226.595 310.153 228.235Z" fill="#FFA229"/>
<g clip-path="url(#clip0_514_8713)">
<path d="M632.419 843.25C632.419 843.25 632.419 852.82 620.109 858.25C607.799 863.68 597.559 868.5 597.559 868.5C597.559 868.5 598.239 873.97 583.199 881.5C568.159 889.03 563.379 889.02 563.379 889.02C563.379 889.02 565.379 903.37 548.379 905.42C531.379 907.47 527.189 905.42 527.189 905.42C527.189 905.42 517.629 916.22 503.959 918.68C499.419 919.5 483.399 909.07 463.959 894.77C424.829 865.94 371.959 821.35 371.959 821.35L354.869 819.35V686.72L395.869 691.51L463.869 650.11L507.129 657.87L612.089 813.15L632.419 843.25Z" fill="white"/>
<path opacity="0.44" d="M435.221 739.61C435.221 739.61 437.821 753.51 461.061 751.46C484.301 749.41 515.741 725.82 515.741 725.82L565.431 755.82L512.121 713.45L435.221 739.61Z" fill="#6989A3"/>
<path d="M417.789 717.49L541.599 650.11L624.219 690.83L642.669 688.78V822.07L620.799 825.48L565.429 755.76L512.119 713.39C512.119 713.39 468.369 743.46 441.719 740.73C415.069 738 417.789 717.49 417.789 717.49Z" fill="#2E4A59"/>
<path opacity="0.23" d="M632.421 843.25C632.421 843.25 632.421 852.82 620.111 858.25C607.801 863.68 597.561 868.5 597.561 868.5C597.561 868.5 598.241 873.97 583.201 881.5C568.161 889.03 563.381 889.02 563.381 889.02C563.381 889.02 565.381 903.37 548.381 905.42C531.381 907.47 527.191 905.42 527.191 905.42C527.191 905.42 517.631 916.22 503.961 918.68C499.421 919.5 483.401 909.07 463.961 894.77L484.641 819.06L495.791 816.56C495.791 816.56 500.981 818.89 498.791 825.45C496.601 832.01 497.561 830.68 497.561 830.68C497.561 830.68 518.471 852.9 520.561 855.63C522.651 858.36 492.771 891.19 491.881 892.19C492.811 891.41 522.961 866.54 544.151 865.19C565.681 863.83 567.391 864.85 567.391 864.85L619.331 829.65L605.271 805.84L612.131 813.11L632.421 843.25Z" fill="#425763"/>
<path d="M359.689 821.38C359.689 821.38 406.169 781.74 429.409 783.79C452.649 785.84 456.749 798.79 456.749 798.79C456.749 798.79 462.219 798.71 475.889 802.51C481.027 803.934 485.787 806.475 489.829 809.95C490.663 810.656 491.328 811.54 491.776 812.536C492.224 813.533 492.443 814.617 492.417 815.71C492.391 816.802 492.121 817.874 491.626 818.849C491.132 819.823 490.426 820.674 489.559 821.34L510.749 853.47L472.469 898.61L486.829 910.23C486.829 910.23 473.829 920.48 461.539 918.43C449.249 916.38 359.689 821.38 359.689 821.38Z" fill="#2E4A59"/>
<path d="M653.621 682.05H640.711V825.48H653.621V682.05Z" fill="white"/>
<path style="mix-blend-mode:multiply" d="M1037.4 784.79L653.619 833.79V656.07L1037.4 607.07V784.79Z" fill="url(#paint0_linear_514_8713)"/>
<path d="M346.789 825.48H359.699V682.05H346.789V825.48Z" fill="#5693A8"/>
<path style="mix-blend-mode:multiply" d="M-37 784.79L346.78 833.79V656.07L-37 607.07V784.79Z" fill="url(#paint1_linear_514_8713)"/>
<path d="M799.161 534.77L797.041 537.16H793.801L792.111 535.47L791.541 532.89L793.801 530.68L797.611 528.54H792.531L789.281 531.89L789.851 535.87L782.411 542.41L782.421 542.42L775.121 548.49H770.661L768.051 552.47V557.26L770.041 553.17L772.161 550.78H775.401L777.091 552.47L777.661 555.05L775.401 557.26L771.591 559.41H776.671L779.911 556.05L779.351 552.07L786.531 545.46L794.081 539.45H798.531L801.151 535.47V530.68L799.161 534.77Z" fill="#2A485E"/>
<path d="M578.01 501.09L589.01 480.7C589.01 480.7 575.46 465.37 569.12 467.2C553.66 471.64 563.82 482.54 563.82 482.54L578.01 501.09Z" fill="#231F20"/>
<path d="M573.81 518.19L582.62 481.88C582.62 481.88 566.54 472.74 562.11 485.76C557.68 498.78 568.48 508.76 568.48 508.76L566.27 518.18L573.81 518.19Z" fill="#FFF1D4"/>
<path d="M593.08 588.51L551.07 586.96L552.11 515.27L597.08 516.85L593.08 588.51Z" fill="#2A485E"/>
<path d="M551.389 515.27L555.449 553.52L536.529 575.81L539.549 578.95L565.479 552.53L565.919 524.41L551.389 515.27Z" fill="#2A485E"/>
<path d="M586.01 631.8L591.01 588.44L554.7 585.74L543.82 626.95L554.74 675.61H558.83L558.01 627.68C558.01 627.68 567.33 602.51 569.28 601.9C570.212 601.387 571.072 600.755 571.84 600.02L572.54 634.18L597.62 674.96H601.18L586.01 631.8Z" fill="#2A485E"/>
<path d="M564.789 515.86L565.009 512.22L579.639 513.17L579.469 516.72L564.789 515.86Z" fill="white"/>
<path d="M555.779 586.5L574.679 584.36L586.019 588.51L573.299 586.43L555.779 586.5Z" fill="#243F4F"/>
<path d="M557.961 627.68L568.011 596.92L574.681 599.4L572.391 633.28L571.791 600.02L568.341 602.87L557.961 627.68Z" fill="#243F4F"/>
<path d="M536.53 575.81C534.728 575.413 532.885 575.235 531.04 575.28C529.147 575.714 527.288 576.289 525.48 577C525.48 577 525.84 578.1 527.6 577.66C529.36 577.22 531.16 576.53 531.37 577.01C531.58 577.49 530.29 580.61 530.03 581.37C529.77 582.13 526.73 581.59 525.28 581.72C525.02 581.42 524.37 580.87 524.11 580.92C523.85 580.97 524.26 581.54 524.48 581.86C523.29 582.08 521.91 582.34 521.7 582.86C521.49 583.38 523.92 583.2 525.24 583.18C525.63 584.18 526.52 586.18 527.13 586.18C528.739 585.818 530.325 585.36 531.88 584.81C532.863 584.773 533.826 584.52 534.7 584.07C535.95 583.07 538.7 578.07 538.7 578.07L536.53 575.81Z" fill="#FFF1D4"/>
<path d="M591.069 570.77L588.669 569.85L586.979 569.22C586.849 569.16 586.289 568.85 586.149 568.9C584.933 572.129 583.248 575.161 581.149 577.9L584.839 580.68C585.165 580.855 585.444 581.105 585.655 581.41C585.865 581.714 586 582.063 586.049 582.43C586.149 583.95 584.989 584.99 584.049 585.99C582.929 587.15 581.809 588.25 580.579 589.3C579.579 590.15 577.869 590.64 576.949 589.4L574.119 585.61L573.869 585.27C573.789 585.18 573.029 585.79 572.869 585.89C571.869 586.54 570.969 587.14 569.959 587.71C568.285 588.675 566.528 589.488 564.709 590.14C565.239 591.57 565.709 593 566.289 594.42C566.467 594.738 566.571 595.092 566.593 595.455C566.616 595.819 566.556 596.183 566.419 596.52C565.709 597.9 564.049 598.2 562.679 598.52C561.155 598.908 559.609 599.202 558.049 599.4C556.799 599.57 555.049 599.05 554.959 597.56C554.869 596.07 554.749 594.44 554.639 592.87C554.639 592.69 554.639 592.5 554.639 592.32C554.639 592.32 552.229 592.38 551.999 592.39C550.662 592.411 549.325 592.335 547.999 592.16C547.209 592.05 546.419 591.91 545.629 591.77C545.309 591.72 544.409 591.33 544.329 591.71L543.799 594.05C543.629 594.86 543.449 595.66 543.269 596.47C543.176 596.921 542.939 597.33 542.592 597.633C542.245 597.936 541.809 598.118 541.349 598.15C539.959 598.33 534.249 596.2 533.089 595.31C532.269 594.68 531.569 593.5 532.149 592.48C532.339 592.08 532.579 591.7 532.789 591.32L534.689 587.87C532.009 586.441 529.541 584.643 527.359 582.53C527.169 582.35 526.559 581.53 526.359 581.73L525.659 582.42L523.579 584.49C523.162 585.022 522.633 585.455 522.029 585.76C520.429 586.28 519.289 584.86 518.389 583.76C517.319 582.46 516.389 581.1 515.389 579.71C515.02 579.263 514.784 578.722 514.706 578.148C514.628 577.573 514.712 576.989 514.949 576.46C515.419 575.65 516.719 575.21 517.499 574.79L520.249 573.31C518.74 570.597 517.619 567.685 516.919 564.66C516.849 564.36 516.919 563.56 516.509 563.66L515.509 563.88L512.649 564.49C511.966 564.751 511.219 564.796 510.509 564.62C508.989 563.99 508.919 562.3 508.739 560.9C508.539 559.26 508.489 557.62 508.449 555.97C508.449 554.73 508.989 553.1 510.449 552.97C511.376 552.942 512.303 552.999 513.219 553.14L516.019 553.35C516.259 549.893 517.018 546.492 518.269 543.26L513.939 541.61C513.109 541.3 512.409 540.98 512.149 540.02C511.809 538.66 512.509 537.56 513.089 536.4C513.819 534.923 514.641 533.494 515.549 532.12C516.269 531.04 517.769 530.12 518.999 531.03L522.799 533.89L523.139 534.14C523.239 534.22 523.669 533.56 523.749 533.45C524.489 532.52 525.249 531.65 526.079 530.79C527.431 529.351 528.914 528.042 530.509 526.88C529.589 525.64 528.679 524.4 527.759 523.17C527.487 522.903 527.286 522.571 527.174 522.206C527.062 521.841 527.043 521.454 527.119 521.08C527.509 519.6 528.999 518.89 530.219 518.21C531.769 517.34 536.659 513.95 537.809 517.05C538.363 518.55 538.916 520.057 539.469 521.57L539.599 521.92C539.599 522 540.509 521.66 540.599 521.62C541.779 521.24 542.939 520.9 544.149 520.62C545.97 520.189 547.823 519.912 549.689 519.79C549.589 518.27 549.489 516.79 549.379 515.24C549.296 514.898 549.287 514.542 549.354 514.197C549.422 513.852 549.563 513.525 549.769 513.24C550.111 512.904 550.518 512.641 550.965 512.469C551.412 512.297 551.89 512.219 552.369 512.24C554.095 512.252 555.818 512.369 557.529 512.59C559.089 512.75 561.609 513.38 561.149 515.46L560.149 520.17C560.079 520.47 559.959 520.54 560.289 520.62C561.219 520.83 562.149 521.08 563.069 521.35C564.249 521.71 565.429 522.18 566.579 522.65C567.329 522.96 568.049 523.36 568.769 523.73C569.109 523.9 569.619 524.43 569.849 524.02C570.249 523.28 570.659 522.54 571.069 521.8C571.479 521.06 571.829 520.41 572.219 519.72C572.559 519.198 573.091 518.832 573.7 518.701C574.309 518.569 574.945 518.684 575.469 519.02C577.203 520.016 578.831 521.185 580.329 522.51C581.439 523.41 583.179 525.33 581.719 526.74C580.549 528.04 579.229 529.22 577.989 530.45C580.21 532.624 582.106 535.106 583.619 537.82C583.769 538.09 583.949 538.82 584.299 538.68L585.219 538.18L587.799 536.79C588.337 536.395 588.967 536.144 589.629 536.06C591.129 536.06 591.809 537.43 592.329 538.61C593.019 540.19 593.569 541.8 594.099 543.44C594.35 543.972 594.456 544.561 594.407 545.148C594.358 545.734 594.155 546.297 593.819 546.78C593.149 547.56 591.699 547.61 590.819 547.78L587.819 548.43C588.505 551.378 588.768 554.408 588.599 557.43C588.599 557.7 588.339 558.7 588.599 558.72L589.599 558.8L592.519 559.02C593.252 558.966 593.985 559.115 594.639 559.45C595.859 560.36 595.639 561.85 595.429 563.14C595.138 564.826 594.758 566.495 594.289 568.14C593.959 569.34 593.239 570.72 591.789 570.74C591.554 570.8 591.309 570.811 591.069 570.77ZM579.689 553.89C579.373 550.332 578.4 546.863 576.819 543.66C575.506 541.076 573.795 538.714 571.749 536.66C569.762 534.665 567.487 532.98 564.999 531.66C562.427 530.337 559.674 529.4 556.829 528.88C553.498 528.274 550.081 528.325 546.769 529.03C545.379 529.34 544.069 529.74 542.709 530.16C540.982 530.758 539.328 531.55 537.779 532.52C531.883 536.065 527.562 541.727 525.699 548.35C525.359 549.609 525.082 550.884 524.869 552.17C524.584 553.955 524.504 555.767 524.629 557.57C524.741 560.538 525.378 563.463 526.509 566.21C527.896 569.536 529.871 572.584 532.339 575.21C534.34 577.325 536.687 579.084 539.279 580.41C541.739 581.717 544.382 582.644 547.119 583.16C550.017 583.655 552.971 583.725 555.889 583.37C562.699 582.476 568.921 579.043 573.309 573.76C574.332 572.454 575.287 571.095 576.169 569.69C576.916 568.394 577.532 567.028 578.009 565.61C579.375 561.873 579.934 557.889 579.649 553.92C579.639 553.46 579.719 554.32 579.689 553.89Z" fill="#B70229"/>
<path d="M577.221 560.61C576.091 566.926 572.62 572.583 567.501 576.45C565.023 578.252 562.267 579.634 559.341 580.54C554.588 581.933 549.532 581.912 544.791 580.48C543.755 580.223 542.75 579.857 541.791 579.39C540.321 578.63 538.921 577.86 537.531 576.97C536.454 576.249 535.449 575.425 534.531 574.51C529.704 569.861 526.886 563.509 526.681 556.81C526.456 550.217 528.838 543.8 533.311 538.95C534.044 538.166 534.818 537.422 535.631 536.72C537.023 535.586 538.516 534.582 540.091 533.72C542.76 532.233 545.696 531.285 548.73 530.93C555.16 530.052 561.685 531.623 567.011 535.33C569.275 536.908 571.245 538.871 572.831 541.13C573.698 542.318 574.461 543.58 575.11 544.9C575.948 546.561 576.57 548.322 576.961 550.14C577.332 551.709 577.56 553.309 577.641 554.92C577.704 556.811 577.577 558.704 577.261 560.57L577.221 560.61ZM572.451 565.33C572.813 564.611 573.111 563.862 573.341 563.09C573.668 562.232 573.9 561.34 574.031 560.43C574.3 558.72 574.431 556.991 574.42 555.26C574.282 552.168 573.528 549.136 572.201 546.34C571.605 545.13 570.902 543.975 570.101 542.89C569.168 541.523 568.043 540.297 566.761 539.25C564.802 537.644 562.615 536.34 560.271 535.38C557.171 534.194 553.853 533.686 550.541 533.89C547.771 534.14 545.065 534.864 542.541 536.03C540.083 537.157 537.879 538.77 536.061 540.77C532.909 544.091 530.856 548.3 530.178 552.828C529.5 557.355 530.23 561.982 532.271 566.08C533.791 569.031 535.925 571.623 538.531 573.68C540.558 575.196 542.799 576.402 545.181 577.26C547.754 578.126 550.469 578.496 553.181 578.35C554.677 578.263 556.162 578.046 557.621 577.7C559.106 577.309 560.555 576.791 561.951 576.15C564.48 574.928 566.752 573.23 568.641 571.15C570.206 569.418 571.501 567.459 572.48 565.34C572.61 565.03 571.891 566.35 572.451 565.29V565.33Z" fill="#B70229"/>
<path d="M589.11 520.79L600.01 554.85L587.2 578.61C586.936 579.097 586.862 579.664 586.993 580.202C587.124 580.74 587.451 581.21 587.91 581.52C588.158 581.688 588.438 581.805 588.733 581.863C589.027 581.921 589.331 581.919 589.624 581.857C589.918 581.796 590.197 581.676 590.443 581.504C590.69 581.333 590.899 581.114 591.06 580.86L609.51 551.76L603.57 527.4L601.86 518.22L594.37 516.4L589.11 520.79Z" fill="#38627C"/>
<path d="M586.83 580.82C586.439 580.561 585.979 580.429 585.51 580.44C583.921 580.448 582.339 580.653 580.8 581.05C579.065 581.867 577.394 582.813 575.8 583.88C575.8 583.88 576.38 584.88 578 584.07C579.62 583.26 581.22 582.24 581.52 582.67C581.82 583.1 581.22 586.38 581.13 587.17C581.06 587.79 578.91 588 577.4 588.31C576.918 588.411 576.415 588.351 575.97 588.14C575.765 588.01 575.522 587.95 575.28 587.97C575.08 588.05 575.56 588.54 575.84 588.81C574.73 589.27 573.45 589.81 573.35 590.36C573.29 590.71 574.35 590.52 575.43 590.28C575.842 590.184 576.274 590.208 576.672 590.35C577.071 590.492 577.421 590.745 577.68 591.08C578.26 591.82 578.93 592.52 579.31 592.43C580.795 591.748 582.238 590.977 583.63 590.12C584.574 589.874 585.454 589.427 586.21 588.81C587.125 587.217 587.831 585.513 588.31 583.74C588.458 583.278 588.452 582.781 588.293 582.323C588.135 581.865 587.832 581.471 587.43 581.2L586.83 580.82Z" fill="#FFF1D4"/>
<path d="M579.469 516.72L569.999 533.45L564.789 515.86L579.469 516.72Z" fill="white"/>
<path d="M554.411 490.61C554.411 490.61 554.021 496.3 558.621 496.73C563.221 497.16 563.321 493.19 563.321 493.19L565.601 493.14C565.845 494.122 566.367 495.012 567.105 495.704C567.843 496.396 568.765 496.86 569.761 497.04C573.291 497.73 575.181 491.04 575.181 491.04L554.411 490.61ZM570.411 496.46C568.031 496.4 566.331 491.97 566.331 491.97L562.601 491.91C562.601 491.91 562.661 495.69 559.761 495.99C555.931 496.4 555.17 491.22 555.17 491.22L574.571 491.45C574.571 491.45 572.791 496.51 570.411 496.44V496.46Z" fill="#231F20"/>
<path d="M424.769 496.74L413.619 476C413.619 476 427.399 460.41 433.859 462.27C449.579 466.78 439.249 477.88 439.249 477.88L424.769 496.74Z" fill="#414042"/>
<path d="M429.01 514.13L420.01 477.2C420.01 477.2 436.36 467.9 440.87 481.2C445.38 494.5 434.39 504.59 434.39 504.59L436.64 514.18L429.01 514.13Z" fill="#FFF1D4"/>
<path d="M409.391 585.65L452.111 584.07L451.051 511.15L405.311 512.76L409.391 585.65Z" fill="#2A485E"/>
<path d="M450.661 512.36L464.481 545.48L491.251 554.53L490.321 558.63L455.681 549.65L441.311 526.57L450.661 512.36Z" fill="#2A485E"/>
<path d="M416.571 629.67L411.461 585.61L448.381 582.87L459.451 624.78L448.381 674.26H444.221L445.111 625.53C445.111 625.53 435.631 599.92 433.651 599.31C432.706 598.782 431.83 598.141 431.041 597.4L430.341 632.14L404.821 673.61H401.211L416.571 629.67Z" fill="#2A485E"/>
<path d="M438.161 511.75L437.931 508.06L423.051 509.03L423.231 512.63L438.161 511.75Z" fill="white"/>
<path d="M447.32 583.61L428.1 581.42L416.57 585.65L429.5 583.53L447.32 583.61Z" fill="#243F4F"/>
<path d="M445.1 625.49L434.88 594.2L428.1 596.72L430.42 631.18L431.04 597.36L434.55 600.25L445.1 625.49Z" fill="#243F4F"/>
<path d="M471.33 553.71L456.4 547.8L447.32 529.64L451.05 552L452.11 543.93L455.68 549.65L471.33 553.71Z" fill="#243F4F"/>
<path d="M491.25 554.53C492.543 553.298 493.984 552.23 495.54 551.35C497.326 550.766 499.155 550.318 501.01 550.01C501.01 550.01 501.26 551.1 499.58 551.6C497.9 552.1 496.07 552.44 496.14 552.95C496.21 553.46 498.83 555.39 499.42 555.89C500.01 556.39 502.27 554.43 503.53 553.82C503.59 553.44 503.86 552.66 504.1 552.57C504.34 552.48 504.29 553.16 504.27 553.57C505.36 553.16 506.63 552.69 507.06 553.02C507.49 553.35 505.4 554.42 504.29 555.02C504.45 556.02 504.72 558.13 504.21 558.42C502.696 558.926 501.153 559.34 499.59 559.66C498.755 560.117 497.829 560.383 496.88 560.44C495.37 560.27 490.6 557.44 490.6 557.44L491.25 554.53Z" fill="#FFF1D4"/>
<path d="M411.951 512.36L426.871 543.8L451.781 552.21C452.293 552.382 452.723 552.739 452.987 553.21C453.251 553.681 453.331 554.233 453.211 554.76C453.147 555.044 453.026 555.313 452.856 555.55C452.686 555.787 452.47 555.988 452.221 556.14C451.972 556.292 451.695 556.392 451.406 556.435C451.118 556.478 450.824 556.463 450.541 556.39L418.071 547.97L406.071 526.7L405.291 512.76L411.951 512.36Z" fill="#38627C"/>
<path d="M453.49 553.52C453.592 553.073 453.834 552.671 454.18 552.37C455.309 551.314 456.569 550.406 457.93 549.67C459.716 549.086 461.545 548.638 463.4 548.33C463.4 548.33 463.65 549.42 461.97 549.92C460.29 550.42 458.45 550.76 458.53 551.27C458.61 551.78 461.21 553.7 461.8 554.21C462.39 554.72 463.93 553.32 465.21 552.54C465.617 552.285 465.932 551.906 466.11 551.46C466.22 551.18 466.36 550.94 466.49 550.89C466.62 550.84 466.67 551.48 466.65 551.89C467.75 551.48 469.01 551.01 469.45 551.34C469.72 551.55 468.85 552.12 467.91 552.67C467.556 552.88 467.268 553.185 467.08 553.552C466.893 553.918 466.813 554.33 466.85 554.74C466.93 555.65 466.92 556.59 466.59 556.74C465.08 557.247 463.54 557.661 461.98 557.98C461.15 558.442 460.227 558.712 459.28 558.77C457.568 558.245 455.932 557.502 454.41 556.56C453.999 556.331 453.674 555.976 453.483 555.547C453.291 555.118 453.245 554.638 453.35 554.18L453.49 553.52Z" fill="#FFF1D4"/>
<path d="M423.23 512.63L432.85 529.64L438.16 511.75L423.23 512.63Z" fill="white"/>
<path d="M427.65 486.91C427.65 486.91 427.95 492.71 432.65 492.57C437.35 492.43 436.95 488.43 436.95 488.43L439.26 488.1C439.624 489.061 440.259 489.895 441.088 490.502C441.917 491.109 442.905 491.463 443.93 491.52C447.58 491.78 448.67 484.81 448.67 484.81L427.65 486.91ZM444.52 490.86C442.11 491.09 439.85 486.86 439.85 486.86L436.08 487.26C436.08 487.26 436.59 491.07 433.71 491.74C429.89 492.62 428.49 487.48 428.49 487.48L448.1 485.33C448.1 485.33 446.92 490.61 444.52 490.86Z" fill="#231F20"/>
<path d="M401.2 673.57L395.1 683.33L398.15 686.16L416.57 685.11L420.08 682.06L405.31 679.86L403.67 677.48L404.82 673.57H401.2Z" fill="#2A485E"/>
<path d="M444.221 674.22L441.311 683.7L463.421 682.44V679.86L453.261 677.48L448.381 674.22H444.221Z" fill="#2A485E"/>
<path d="M599.621 671.71L608.081 679.54L605.871 683.06L587.831 686.88L583.641 684.86L597.311 678.87L598.271 676.13L596.131 672.66L599.621 671.71Z" fill="#2A485E"/>
<path d="M558.67 673.27L563 682.18L540.96 684.34L540.57 681.8L550.23 677.87L554.56 673.91L558.67 673.27Z" fill="#2A485E"/>
<path d="M150.6 495.04L154.54 527.94L182.77 528.84L183.18 534.53L148.7 536.39L137.01 499.56L147.06 491.03L150.6 495.04Z" fill="#2F5166"/>
<path d="M101.239 570.87L147.059 556.59V491.03L95.5293 488.3L101.239 570.87Z" fill="#2A485E"/>
<path d="M123.85 473.05L116.1 450.61C116.1 450.61 132.3 437.34 138.42 440.22C153.31 447.22 141.27 456.59 141.27 456.59L123.85 473.05Z" fill="#603913"/>
<path d="M127.73 593.15L129.21 570.87C137.12 577.64 149.37 587.94 150.02 588.35C151.6 589.35 154.1 638.2 154.1 638.2L178.95 638.06V635.28L169.01 633.37L163.29 629.74L161.74 582.96L137.74 548.28L131.86 543.83L107.81 549.37L109.21 566.05C109.21 566.05 114.75 591.22 114.12 592.05L90.8398 632.71L102.28 638.09L113.52 638.02L113.14 635.82L105.64 633.74L101.01 628.13L127.73 593.15Z" fill="#2A485E"/>
<path d="M125.24 491.01L122.24 452.88C122.24 452.88 139.98 446.26 142.33 460.15C144.68 474.04 132.13 482.35 132.13 482.35L132.83 492.24L125.24 491.01Z" fill="#FFF1D4"/>
<path d="M140.11 490.61L127.71 521.47L117.43 489.24L140.11 490.61Z" fill="white"/>
<path d="M143.69 557.88L127.66 550.19L113.16 564.39L129.44 554.07L143.69 557.88Z" fill="#243F4F"/>
<path opacity="0.16" d="M174.881 537.99C175.231 538.06 175.311 538.52 175.561 538.66C176.901 539.49 177.041 539.32 177.041 539.32L177.181 539.15C177.901 538.21 178.591 537.25 179.231 536.25C179.741 535.46 180.231 534.65 180.691 533.81C181.151 532.97 181.451 532.37 181.791 531.62L181.231 529.73L180.051 525.73C179.681 525.93 179.641 527.1 180.051 528.3C180.461 529.5 175.311 532.95 174.001 533.69C172.941 534.31 170.911 537.12 174.881 537.99Z" fill="#231F20"/>
<path d="M187.01 531.01C187.01 531.01 186.17 525.92 183.54 525.47C180.91 525.02 179.26 524.52 180.37 526.68C183.31 532.37 174.46 531.16 174.04 534.43C173.62 537.7 179.14 539.04 182.84 536.14C186.54 533.24 187.01 531.01 187.01 531.01Z" fill="#FFF1D4"/>
<path d="M109.86 489.1L90.1301 524.28L120.31 543.31L117.89 550.35L75.5801 529.26L95.5301 488.3L101.93 485.11L109.86 489.1Z" fill="#2F5166"/>
<path opacity="0.16" d="M129.29 551.74C129.29 551.74 129.67 552.55 128.93 552.74C128.19 552.93 125.93 551.21 125.93 551.21L126.18 550.27L129.29 551.74Z" fill="#231F20"/>
<path d="M119.561 545.61C121.713 546.01 123.84 546.538 125.931 547.19C127.061 547.73 130.761 550.98 129.501 551.19C128.241 551.4 126.131 550.11 126.131 550.11C126.131 550.11 128.641 554.28 130.021 555.11C130.952 555.684 131.783 556.407 132.481 557.25C132.481 557.25 126.481 558.8 123.981 557.51C121.481 556.22 117.891 550.33 117.891 550.33L119.561 545.61Z" fill="#FFF1D4"/>
<path d="M525.24 583.19C525.24 583.19 525.24 579.51 526.72 578.96C528.2 578.41 527.2 580.91 527.81 581.49C528.42 582.07 529.89 580.97 530.75 582.56C531.269 583.537 531.52 584.634 531.48 585.74C530.334 586.581 528.977 587.09 527.56 587.21C525.6 587.21 525.24 583.19 525.24 583.19Z" fill="#FFF1D4"/>
<path d="M733.91 485.31V448.07C733.91 448.07 751.63 443 752.91 456.65C754.19 470.3 741.33 477.44 741.33 477.44L741.26 487.08L733.91 485.31Z" fill="#FFF1D4"/>
<path d="M733.91 467.77L728.09 445.44C728.09 445.44 744.82 433.79 750.54 437.05C764.47 444.98 752.06 453.16 752.06 453.16L733.91 467.77Z" fill="#231F20"/>
<path d="M755.01 563.5L764.01 483.24H715.68C715.68 483.24 718.86 564.03 720.99 563.5C723.12 562.97 755.01 563.5 755.01 563.5Z" fill="#2A485E"/>
<path d="M751.39 550.88L762.25 595.27L753.99 647.24L750.8 647.53L751.46 595.62L729.93 555.47L751.39 550.88Z" fill="#2A485E"/>
<path d="M736.35 577.85C736.35 578.97 735.92 596.2 735.92 596.2C735.92 596.2 722.28 645.61 722.28 646.47C722.28 647.33 718.91 646.47 718.91 646.47C718.91 646.47 726.01 598.94 725.24 595.84C724.47 592.74 720.41 561.84 720.41 561.84L738.01 558.61L736.35 577.85Z" fill="#2A485E"/>
<path d="M764.01 483.24C764.01 483.24 769.63 514.69 770.9 519.35C772.17 524.01 784.01 542.27 784.01 542.27L780.78 546.35L762.64 526.94L755.01 495.32L764.01 483.24Z" fill="#2A485E"/>
<path d="M715.671 483.23L701.051 517.11L710.051 550.14H714.691L711.101 519.49L718.911 503.32L715.671 483.23Z" fill="#2A485E"/>
<path d="M746.871 458.48C746.871 458.48 745.661 455.02 743.431 456.42C741.201 457.82 744.241 462.26 744.241 462.26L746.871 458.48Z" fill="#FFF1D4"/>
<path d="M784.009 541.19C784.009 541.19 789.069 541.75 789.449 544C789.829 546.25 785.129 550.76 782.689 549.63C782.015 549.355 781.401 548.948 780.886 548.433C780.371 547.918 779.964 547.305 779.689 546.63L784.009 541.19Z" fill="#FFF1D4"/>
<path d="M714.691 550.14C715.143 551.276 715.478 552.456 715.691 553.66C715.541 554.08 716.531 556.89 714.141 557.03C711.751 557.17 710.061 550.14 710.061 550.14H714.691Z" fill="#FFF1D4"/>
<path d="M754.421 642.62L762.251 643.87V645.8L754.301 649.07L750.801 647.53L754.421 642.62Z" fill="#2A485E"/>
<path d="M722.95 643.84L729.45 646.47V647.91L722.91 650.28L718.91 648.43V646.46L722.95 643.84Z" fill="#2A485E"/>
<path opacity="0.18" d="M762.64 526.94L758.58 499.24L754.34 501.21L757.03 545.5L759.83 518.79L762.64 526.94Z" fill="#231F20"/>
<path opacity="0.18" d="M753.32 563.47L731.56 557.03L720.4 561.85L731.99 560.25L753.32 563.47Z" fill="#231F20"/>
<path d="M898.891 454.41L909.891 434.02C909.891 434.02 896.331 418.7 889.991 420.52C874.531 424.96 884.691 435.87 884.691 435.87L898.891 454.41Z" fill="#C49A6C"/>
<path d="M894.74 471.51L903.55 435.21C903.55 435.21 887.48 426.06 883.04 439.09C878.6 452.12 889.42 462.09 889.42 462.09L887.2 471.51H894.74Z" fill="#FFF1D4"/>
<path d="M914.01 541.83L872 540.28L873.04 468.59L918.01 470.17L914.01 541.83Z" fill="#2A485E"/>
<path d="M893.73 469.77L885.04 466.58L840.77 455.57L829.37 430.61L825.35 431.59L834.72 465.51L884.57 484.18L893.73 469.77Z" fill="#2A485E"/>
<path d="M906.95 585.12L911.95 541.76L875.64 539.06L864.76 580.27L875.64 632.92H879.73L878.86 581.01C878.86 581.01 888.19 555.83 890.13 555.23C891.056 554.709 891.916 554.078 892.69 553.35L893.39 587.5L918.47 628.28H922.03L906.95 585.12Z" fill="#2A485E"/>
<path d="M885.721 469.18L885.951 465.54L900.571 466.49L900.401 470.04L885.721 469.18Z" fill="white"/>
<path d="M876.711 539.83L895.621 537.68L906.951 541.83L894.231 539.75L876.711 539.83Z" fill="#243F4F"/>
<path d="M878.891 581L888.941 550.24L895.621 552.72L893.331 586.6L892.721 553.34L889.271 556.19L878.891 581Z" fill="#243F4F"/>
<path d="M829.369 430.61C830.558 429.319 831.586 427.889 832.429 426.35C832.974 424.583 833.385 422.778 833.659 420.95C833.659 420.95 832.579 420.72 832.109 422.38C831.639 424.04 831.339 425.85 830.849 425.78C830.359 425.71 828.409 423.19 827.849 422.62C827.289 422.05 829.239 419.79 829.849 418.54C830.219 418.47 830.989 418.19 831.069 417.96C831.149 417.73 830.489 417.78 830.069 417.81C830.459 416.73 830.899 415.48 830.569 415.05C830.239 414.62 829.229 416.71 828.569 417.81C827.569 417.67 825.499 417.44 825.229 417.94C824.758 419.436 824.377 420.958 824.089 422.5C823.649 423.324 823.4 424.237 823.359 425.17C823.549 426.65 826.429 431.3 826.429 431.3L829.369 430.61Z" fill="#FFF1D4"/>
<path d="M900.401 470.04L890.941 486.77L885.721 469.18L900.401 470.04Z" fill="white"/>
<path d="M917.64 469.47L938.11 495.51L969.92 487.23L974.84 492.82L935.23 510.62L909.85 481.52L910.25 474.38L917.64 469.47Z" fill="#2F5166"/>
<path d="M971.58 489.05C972.994 487.374 974.507 485.785 976.11 484.29C977.11 483.58 981.79 481.97 981.37 483.18C980.95 484.39 978.76 485.57 978.76 485.57C978.76 485.57 983.62 485.46 984.99 484.65C985.951 484.124 986.991 483.759 988.07 483.57C988.07 483.57 986.43 489.57 984.07 491.09C981.71 492.61 974.82 492.82 974.82 492.82L971.58 489.05Z" fill="#FFF1D4"/>
<path d="M875.669 632.92L873.909 636.31H861.689V637.68H881.899L879.759 632.92H875.669Z" fill="#2A485E"/>
<path d="M918.5 628.28L917.07 631.4L907.43 632.24V633.68H924.6L922.05 628.28H918.5Z" fill="#2A485E"/>
<path opacity="0.51" d="M288.4 662.31C306.444 662.31 321.07 660.604 321.07 658.5C321.07 656.396 306.444 654.69 288.4 654.69C270.357 654.69 255.73 656.396 255.73 658.5C255.73 660.604 270.357 662.31 288.4 662.31Z" fill="#2A485E"/>
<path d="M294.349 496.97V459.74C294.349 459.74 276.629 454.66 275.399 468.32C274.169 481.98 287.009 489.1 287.009 489.1L287.069 498.75L294.349 496.97Z" fill="#FFF1D4"/>
<path d="M294.351 479.44L300.171 457.11C300.171 457.11 283.441 445.45 277.721 448.71C263.791 456.65 276.201 464.82 276.201 464.82L294.351 479.44Z" fill="#C49A6C"/>
<path d="M273.25 575.16L264.25 494.9H312.62C312.62 494.9 309.43 575.7 307.3 575.16C305.17 574.62 273.25 575.16 273.25 575.16Z" fill="#2A485E"/>
<path d="M276.86 562.55L266 606.94L274.26 658.91L277.46 659.19L276.8 607.29L298.33 567.13L276.86 562.55Z" fill="#2A485E"/>
<path d="M291.921 589.51C291.921 590.63 292.341 607.86 292.341 607.86C292.341 607.86 306.011 657.29 306.011 658.13C306.011 658.97 309.381 658.13 309.381 658.13C309.381 658.13 302.251 610.61 303.011 607.51C303.771 604.41 307.841 573.51 307.841 573.51L290.221 570.25L291.921 589.51Z" fill="#2A485E"/>
<path d="M264.22 494.9C264.22 494.9 251.14 521.04 249.88 525.69C248.62 530.34 225.1 540.11 225.1 540.11L228.33 544.18L258.18 533.29L273.25 506.98L264.22 494.9Z" fill="#2A485E"/>
<path d="M312.581 494.9L336.781 528.78L313.951 551.17H309.311L326.731 531.15L309.351 514.98L312.581 494.9Z" fill="#2A485E"/>
<path d="M281.391 470.14C281.391 470.14 282.601 466.69 284.831 468.14C287.061 469.59 284.021 473.97 284.021 473.97L281.391 470.14Z" fill="#FFF1D4"/>
<path d="M225.09 539.03C225.09 539.03 220.02 539.59 219.65 541.84C219.28 544.09 223.96 548.59 226.4 547.47C227.075 547.196 227.689 546.79 228.204 546.275C228.719 545.759 229.126 545.146 229.4 544.47L225.09 539.03Z" fill="#FFF1D4"/>
<path d="M309.32 551.17C308.866 552.306 308.531 553.485 308.32 554.69C308.46 555.11 307.48 557.92 309.87 558.06C312.26 558.2 313.95 551.17 313.95 551.17H309.32Z" fill="#FFF1D4"/>
<path d="M273.84 654.28L266 655.53V657.46L273.95 660.73L277.46 659.19L273.84 654.28Z" fill="#2A485E"/>
<path d="M305.301 655.51L298.801 658.13V659.57L305.341 661.94L309.351 660.1V658.13L305.301 655.51Z" fill="#2A485E"/>
<path opacity="0.18" d="M274.93 575.14L296.69 568.7L307.85 573.51L296.26 571.92L274.93 575.14Z" fill="#231F20"/>
<path d="M122.279 546.23L170.409 513.71L197.519 541.64L145.859 575.03L122.279 546.23Z" fill="white"/>
</g>
<defs>
<linearGradient id="paint0_linear_514_8713" x1="1037.4" y1="720.43" x2="653.619" y2="720.43" gradientUnits="userSpaceOnUse">
<stop stop-color="white"/>
<stop offset="0.16" stop-color="#E3ECEF"/>
<stop offset="0.5" stop-color="#9DBDC6"/>
<stop offset="1" stop-color="#2D7286"/>
</linearGradient>
<linearGradient id="paint1_linear_514_8713" x1="-37" y1="720.43" x2="346.78" y2="720.43" gradientUnits="userSpaceOnUse">
<stop stop-color="white"/>
<stop offset="0.16" stop-color="#E3E7EA"/>
<stop offset="0.5" stop-color="#9DA9B4"/>
<stop offset="1" stop-color="#2D485E"/>
</linearGradient>
<clipPath id="clip0_514_8713">
<rect width="1000" height="504" fill="white" transform="translate(0 415)"/>
</clipPath>
</defs>
</svg>
