<svg width="702" height="712" viewBox="0 0 702 712" fill="none" xmlns="http://www.w3.org/2000/svg">
<path d="M499.707 394.213C432.559 428.506 272.137 318.119 275.149 228.918C288.803 104.71 316.792 209.69 383.941 175.397C451.09 141.104 531.439 162.288 563.407 222.712C595.375 283.137 566.856 359.92 499.707 394.213Z" fill="#164760" fill-opacity="0.4"/>
<path d="M547.78 518.971C486.698 628.247 158.384 621.228 77.9888 494.124C-20.7715 308.48 117.804 429.197 178.887 319.922C239.97 210.646 372.066 166.62 473.933 221.586C575.801 276.552 608.863 409.696 547.78 518.971Z" fill="#FFA229"/>
<path d="M338.905 148.152C449.888 140.729 508.287 274.22 400.04 326.297C322.684 290.024 285.728 538.195 205.18 364.586C169.695 270.208 70.8097 252.063 102.518 186.787C134.226 121.511 225.15 161.095 338.905 148.152Z" fill="#FFA229" fill-opacity="0.4"/>
<path d="M471.615 234.092C491.977 281.981 515.214 336.631 549.587 390.461C592.87 466.021 575.76 546.813 529.527 594.128C506.408 617.787 476.05 633.044 442.266 635.221C409.082 637.36 372.186 626.901 335.185 598.689C334.604 581.351 327.935 567.749 317.062 557.054C305.831 546.008 290.305 538.237 272.96 532.282C255.577 526.315 235.946 522.036 216.21 518.22C210.054 517.029 203.901 515.886 197.793 514.751C184.187 512.223 170.807 509.736 158.124 506.865C139.76 502.707 123.383 497.848 110.618 491.188C97.8789 484.542 89.2676 476.385 85.5196 465.861C81.7696 455.332 82.5062 441.359 90.8085 422.258C99.1028 403.176 114.736 379.49 139.922 349.957C192.249 297.037 212.992 236.424 230.142 186.312C232.332 179.91 234.464 173.68 236.596 167.659C246.094 140.836 255.424 118.601 269.409 103.001C283.095 87.7344 301.536 78.5195 330.227 78.5195C358.921 78.5195 380.487 87.9739 398.423 104.485C416.547 121.169 431.126 145.207 445.318 174.652C454.001 192.667 462.521 212.705 471.615 234.092Z" fill="#164760" stroke="white" stroke-width="10"/>
</svg>
