<svg width="1080" height="1080" viewBox="0 0 1080 1080" fill="none" xmlns="http://www.w3.org/2000/svg">
<rect width="1080" height="1080" fill="white"/>
<path d="M246.46 44.7656H253.2L264.472 75.8047L275.715 44.7656H282.483L267.162 86H261.753L246.46 44.7656ZM243.062 44.7656H249.66L250.85 73.2842V86H243.062V44.7656ZM279.255 44.7656H285.882V86H278.094V73.2842L279.255 44.7656ZM301.175 55.3574V86H293.67V55.3574H301.175ZM293.16 47.3428C293.16 46.2288 293.538 45.3037 294.293 44.5674C295.067 43.8311 296.105 43.4629 297.408 43.4629C298.711 43.4629 299.74 43.8311 300.495 44.5674C301.269 45.3037 301.656 46.2288 301.656 47.3428C301.656 48.4378 301.269 49.3535 300.495 50.0898C299.74 50.8262 298.711 51.1943 297.408 51.1943C296.105 51.1943 295.067 50.8262 294.293 50.0898C293.538 49.3535 293.16 48.4378 293.16 47.3428ZM320.886 80.6758C321.943 80.6758 322.887 80.4681 323.718 80.0527C324.549 79.6374 325.209 79.0521 325.7 78.2969C326.21 77.5417 326.484 76.6637 326.521 75.6631H333.573C333.535 77.7399 332.95 79.5996 331.817 81.2422C330.685 82.8848 329.174 84.1875 327.286 85.1504C325.417 86.0944 323.321 86.5664 320.999 86.5664C318.639 86.5664 316.581 86.1699 314.825 85.377C313.069 84.584 311.606 83.4795 310.436 82.0635C309.284 80.6475 308.415 79.0049 307.83 77.1357C307.264 75.2666 306.98 73.2653 306.98 71.1318V70.2256C306.98 68.0921 307.264 66.0908 307.83 64.2217C308.415 62.3525 309.284 60.71 310.436 59.2939C311.606 57.8779 313.069 56.7734 314.825 55.9805C316.581 55.1875 318.63 54.791 320.971 54.791C323.444 54.791 325.615 55.2725 327.484 56.2354C329.372 57.1982 330.845 58.5576 331.902 60.3135C332.979 62.0693 333.535 64.1367 333.573 66.5156H326.521C326.484 65.4206 326.238 64.4388 325.785 63.5703C325.332 62.7018 324.69 62.0033 323.859 61.4746C323.029 60.946 322.019 60.6816 320.829 60.6816C319.564 60.6816 318.507 60.946 317.657 61.4746C316.826 62.0033 316.175 62.7301 315.703 63.6553C315.25 64.5615 314.929 65.5811 314.74 66.7139C314.57 67.8278 314.485 68.9984 314.485 70.2256V71.1318C314.485 72.3779 314.57 73.5674 314.74 74.7002C314.929 75.833 315.25 76.8525 315.703 77.7588C316.175 78.6462 316.826 79.3542 317.657 79.8828C318.507 80.4115 319.583 80.6758 320.886 80.6758ZM346.034 61.6162V86H338.558V55.3574H345.638L346.034 61.6162ZM355.352 55.1592L355.238 62.126C354.823 62.0505 354.351 61.9938 353.822 61.9561C353.312 61.9183 352.831 61.8994 352.378 61.8994C351.226 61.8994 350.216 62.0599 349.348 62.3809C348.479 62.6829 347.752 63.1266 347.167 63.7119C346.601 64.2972 346.166 65.0146 345.864 65.8643C345.562 66.695 345.392 67.639 345.354 68.6963L343.74 68.498C343.74 66.5534 343.938 64.7503 344.335 63.0889C344.731 61.4274 345.307 59.9736 346.062 58.7275C346.818 57.4814 347.762 56.5186 348.895 55.8389C350.046 55.1403 351.368 54.791 352.859 54.791C353.275 54.791 353.718 54.8288 354.19 54.9043C354.681 54.9609 355.068 55.0459 355.352 55.1592ZM357.334 70.9902V70.3955C357.334 68.1488 357.655 66.0814 358.297 64.1934C358.939 62.2865 359.873 60.6344 361.101 59.2373C362.328 57.8402 363.829 56.7546 365.604 55.9805C367.378 55.1875 369.398 54.791 371.664 54.791C373.967 54.791 376.007 55.1875 377.781 55.9805C379.575 56.7546 381.085 57.8402 382.312 59.2373C383.54 60.6344 384.474 62.2865 385.116 64.1934C385.758 66.0814 386.079 68.1488 386.079 70.3955V70.9902C386.079 73.2181 385.758 75.2855 385.116 77.1924C384.474 79.0804 383.54 80.7324 382.312 82.1484C381.085 83.5456 379.584 84.6312 377.81 85.4053C376.035 86.1794 374.005 86.5664 371.721 86.5664C369.455 86.5664 367.425 86.1794 365.632 85.4053C363.838 84.6312 362.328 83.5456 361.101 82.1484C359.873 80.7324 358.939 79.0804 358.297 77.1924C357.655 75.2855 357.334 73.2181 357.334 70.9902ZM364.811 70.3955V70.9902C364.811 72.3307 364.943 73.5863 365.207 74.7568C365.471 75.9274 365.877 76.9564 366.425 77.8438C366.972 78.7311 367.68 79.4297 368.549 79.9395C369.436 80.4303 370.493 80.6758 371.721 80.6758C372.929 80.6758 373.967 80.4303 374.836 79.9395C375.704 79.4297 376.412 78.7311 376.96 77.8438C377.526 76.9564 377.942 75.9274 378.206 74.7568C378.47 73.5863 378.603 72.3307 378.603 70.9902V70.3955C378.603 69.0739 378.47 67.8372 378.206 66.6855C377.942 65.515 377.526 64.486 376.96 63.5986C376.412 62.6924 375.695 61.9844 374.808 61.4746C373.939 60.946 372.891 60.6816 371.664 60.6816C370.456 60.6816 369.417 60.946 368.549 61.4746C367.68 61.9844 366.972 62.6924 366.425 63.5986C365.877 64.486 365.471 65.515 365.207 66.6855C364.943 67.8372 364.811 69.0739 364.811 70.3955ZM400.976 86H393.442V53.6582C393.442 51.1283 393.952 48.9948 394.972 47.2578C396.01 45.502 397.492 44.1709 399.418 43.2646C401.363 42.3584 403.675 41.9053 406.356 41.9053C407.924 41.9053 409.434 42.0658 410.888 42.3867C412.36 42.6888 413.871 43.0853 415.419 43.5762L414.314 49.6367C413.314 49.3158 412.219 49.0137 411.029 48.7305C409.859 48.4473 408.471 48.3057 406.866 48.3057C404.884 48.3057 403.402 48.7588 402.42 49.665C401.457 50.5713 400.976 51.9023 400.976 53.6582V86ZM407.093 55.3574V60.7383H388.826V55.3574H407.093ZM418.931 55.3574V86H411.426V55.3574H418.931ZM433.516 61.8994V86H426.039V55.3574H433.062L433.516 61.8994ZM432.326 69.5742H430.117C430.136 67.3464 430.438 65.3262 431.023 63.5137C431.609 61.7012 432.43 60.1436 433.487 58.8408C434.563 57.5381 435.838 56.5374 437.311 55.8389C438.783 55.1403 440.426 54.791 442.238 54.791C443.711 54.791 445.042 54.9987 446.231 55.4141C447.421 55.8294 448.44 56.4902 449.29 57.3965C450.159 58.3027 450.819 59.4922 451.272 60.9648C451.744 62.4186 451.98 64.2122 451.98 66.3457V86H444.447V66.2891C444.447 64.8919 444.24 63.7874 443.824 62.9756C443.428 62.1637 442.842 61.5879 442.068 61.248C441.313 60.9082 440.379 60.7383 439.265 60.7383C438.113 60.7383 437.103 60.9743 436.234 61.4463C435.385 61.8994 434.667 62.5319 434.082 63.3438C433.516 64.1556 433.081 65.0902 432.779 66.1475C432.477 67.2048 432.326 68.347 432.326 69.5742ZM475.458 79.4863V65.3545C475.458 64.3161 475.279 63.4193 474.92 62.6641C474.561 61.9089 474.014 61.3236 473.277 60.9082C472.541 60.4928 471.606 60.2852 470.474 60.2852C469.473 60.2852 468.595 60.4551 467.84 60.7949C467.104 61.1348 466.537 61.6162 466.141 62.2393C465.744 62.8434 465.546 63.542 465.546 64.335H458.041C458.041 63.07 458.343 61.8711 458.947 60.7383C459.551 59.5866 460.41 58.5671 461.524 57.6797C462.657 56.7734 464.007 56.0654 465.574 55.5557C467.16 55.0459 468.935 54.791 470.898 54.791C473.221 54.791 475.288 55.1875 477.101 55.9805C478.932 56.7546 480.367 57.9251 481.405 59.4922C482.463 61.0592 482.991 63.0322 482.991 65.4111V78.7783C482.991 80.3076 483.086 81.6198 483.274 82.7148C483.482 83.791 483.784 84.7256 484.181 85.5186V86H476.562C476.204 85.2259 475.93 84.2441 475.741 83.0547C475.552 81.8464 475.458 80.6569 475.458 79.4863ZM476.506 67.3369L476.562 71.7832H471.833C470.662 71.7832 469.633 71.9059 468.746 72.1514C467.859 72.3779 467.132 72.7178 466.565 73.1709C465.999 73.6051 465.574 74.1338 465.291 74.7568C465.008 75.361 464.866 76.0501 464.866 76.8242C464.866 77.5794 465.036 78.2591 465.376 78.8633C465.735 79.4674 466.244 79.9489 466.905 80.3076C467.585 80.6475 468.378 80.8174 469.284 80.8174C470.606 80.8174 471.757 80.5531 472.739 80.0244C473.721 79.4769 474.486 78.8161 475.033 78.042C475.581 77.2679 475.873 76.5316 475.911 75.833L478.063 79.0615C477.799 79.8356 477.403 80.6569 476.874 81.5254C476.345 82.3939 475.666 83.2057 474.835 83.9609C474.004 84.7161 473.004 85.3392 471.833 85.8301C470.662 86.321 469.303 86.5664 467.755 86.5664C465.772 86.5664 463.998 86.1699 462.431 85.377C460.864 84.584 459.627 83.4984 458.721 82.1201C457.814 80.7419 457.361 79.1748 457.361 77.4189C457.361 75.7952 457.663 74.3604 458.268 73.1143C458.872 71.8682 459.769 70.8203 460.958 69.9707C462.147 69.1022 463.62 68.4508 465.376 68.0166C467.151 67.5635 469.18 67.3369 471.465 67.3369H476.506ZM497.066 61.8994V86H489.59V55.3574H496.613L497.066 61.8994ZM495.877 69.5742H493.668C493.687 67.3464 493.989 65.3262 494.574 63.5137C495.16 61.7012 495.981 60.1436 497.038 58.8408C498.114 57.5381 499.389 56.5374 500.861 55.8389C502.334 55.1403 503.977 54.791 505.789 54.791C507.262 54.791 508.593 54.9987 509.782 55.4141C510.972 55.8294 511.991 56.4902 512.841 57.3965C513.709 58.3027 514.37 59.4922 514.823 60.9648C515.295 62.4186 515.531 64.2122 515.531 66.3457V86H507.998V66.2891C507.998 64.8919 507.79 63.7874 507.375 62.9756C506.979 62.1637 506.393 61.5879 505.619 61.248C504.864 60.9082 503.929 60.7383 502.815 60.7383C501.664 60.7383 500.654 60.9743 499.785 61.4463C498.936 61.8994 498.218 62.5319 497.633 63.3438C497.066 64.1556 496.632 65.0902 496.33 66.1475C496.028 67.2048 495.877 68.347 495.877 69.5742ZM534.704 80.6758C535.761 80.6758 536.705 80.4681 537.536 80.0527C538.367 79.6374 539.028 79.0521 539.519 78.2969C540.028 77.5417 540.302 76.6637 540.34 75.6631H547.392C547.354 77.7399 546.769 79.5996 545.636 81.2422C544.503 82.8848 542.993 84.1875 541.104 85.1504C539.235 86.0944 537.14 86.5664 534.817 86.5664C532.457 86.5664 530.399 86.1699 528.644 85.377C526.888 84.584 525.424 83.4795 524.254 82.0635C523.102 80.6475 522.234 79.0049 521.648 77.1357C521.082 75.2666 520.799 73.2653 520.799 71.1318V70.2256C520.799 68.0921 521.082 66.0908 521.648 64.2217C522.234 62.3525 523.102 60.71 524.254 59.2939C525.424 57.8779 526.888 56.7734 528.644 55.9805C530.399 55.1875 532.448 54.791 534.789 54.791C537.262 54.791 539.434 55.2725 541.303 56.2354C543.191 57.1982 544.663 58.5576 545.721 60.3135C546.797 62.0693 547.354 64.1367 547.392 66.5156H540.34C540.302 65.4206 540.057 64.4388 539.604 63.5703C539.15 62.7018 538.508 62.0033 537.678 61.4746C536.847 60.946 535.837 60.6816 534.647 60.6816C533.382 60.6816 532.325 60.946 531.476 61.4746C530.645 62.0033 529.993 62.7301 529.521 63.6553C529.068 64.5615 528.747 65.5811 528.559 66.7139C528.389 67.8278 528.304 68.9984 528.304 70.2256V71.1318C528.304 72.3779 528.389 73.5674 528.559 74.7002C528.747 75.833 529.068 76.8525 529.521 77.7588C529.993 78.6462 530.645 79.3542 531.476 79.8828C532.325 80.4115 533.401 80.6758 534.704 80.6758ZM566.14 86.5664C563.817 86.5664 561.731 86.1888 559.881 85.4336C558.031 84.6784 556.454 83.6305 555.151 82.29C553.868 80.9307 552.876 79.3542 552.178 77.5605C551.498 75.748 551.158 73.8034 551.158 71.7266V70.5938C551.158 68.2337 551.498 66.0908 552.178 64.165C552.857 62.2204 553.82 60.5495 555.066 59.1523C556.312 57.7552 557.804 56.679 559.541 55.9238C561.278 55.1686 563.194 54.791 565.29 54.791C567.461 54.791 569.378 55.1592 571.039 55.8955C572.701 56.613 574.088 57.6325 575.202 58.9541C576.316 60.2757 577.156 61.8617 577.723 63.7119C578.289 65.5433 578.572 67.5729 578.572 69.8008V72.9443H554.557V67.79H571.209V67.2236C571.171 66.0342 570.945 64.9486 570.529 63.9668C570.114 62.9661 569.472 62.1732 568.604 61.5879C567.735 60.9837 566.612 60.6816 565.233 60.6816C564.119 60.6816 563.147 60.9271 562.316 61.418C561.505 61.89 560.825 62.5697 560.277 63.457C559.749 64.3255 559.352 65.3639 559.088 66.5723C558.824 67.7806 558.691 69.1211 558.691 70.5938V71.7266C558.691 73.0104 558.861 74.1999 559.201 75.2949C559.56 76.39 560.079 77.3434 560.759 78.1553C561.457 78.9482 562.288 79.5713 563.251 80.0244C564.233 80.4587 565.347 80.6758 566.593 80.6758C568.16 80.6758 569.576 80.3737 570.841 79.7695C572.125 79.1465 573.239 78.2308 574.183 77.0225L577.949 80.9307C577.307 81.8747 576.439 82.7809 575.344 83.6494C574.268 84.5179 572.965 85.2259 571.436 85.7734C569.906 86.3021 568.141 86.5664 566.14 86.5664Z" fill="#FFA229"/>
<path d="M622.724 72.4346H630.512C630.304 75.1911 629.539 77.6361 628.218 79.7695C626.896 81.8841 625.055 83.5456 622.695 84.7539C620.335 85.9622 617.475 86.5664 614.114 86.5664C611.528 86.5664 609.196 86.1133 607.119 85.207C605.061 84.2819 603.296 82.9697 601.823 81.2705C600.369 79.5524 599.256 77.4945 598.481 75.0967C597.707 72.68 597.32 69.9707 597.32 66.9688V63.8252C597.32 60.8232 597.717 58.1139 598.51 55.6973C599.303 53.2806 600.436 51.2227 601.908 49.5234C603.4 47.8053 605.184 46.4837 607.261 45.5586C609.356 44.6335 611.698 44.1709 614.284 44.1709C617.645 44.1709 620.486 44.7939 622.809 46.04C625.131 47.2673 626.934 48.957 628.218 51.1094C629.502 53.2617 630.276 55.735 630.54 58.5293H622.752C622.601 56.7923 622.223 55.3197 621.619 54.1113C621.034 52.903 620.146 51.9873 618.957 51.3643C617.786 50.7223 616.229 50.4014 614.284 50.4014C612.774 50.4014 611.443 50.6846 610.291 51.251C609.158 51.8174 608.214 52.667 607.459 53.7998C606.704 54.9137 606.137 56.3109 605.76 57.9912C605.382 59.6527 605.193 61.5785 605.193 63.7686V66.9688C605.193 69.0645 605.363 70.943 605.703 72.6045C606.043 74.266 606.572 75.6725 607.289 76.8242C608.007 77.9759 608.932 78.8538 610.064 79.458C611.197 80.0622 612.547 80.3643 614.114 80.3643C616.021 80.3643 617.569 80.0622 618.759 79.458C619.967 78.8538 620.883 77.9665 621.506 76.7959C622.148 75.6253 622.554 74.1715 622.724 72.4346ZM634.646 70.9902V70.3955C634.646 68.1488 634.967 66.0814 635.609 64.1934C636.251 62.2865 637.186 60.6344 638.413 59.2373C639.64 57.8402 641.141 56.7546 642.916 55.9805C644.691 55.1875 646.711 54.791 648.977 54.791C651.28 54.791 653.319 55.1875 655.094 55.9805C656.887 56.7546 658.398 57.8402 659.625 59.2373C660.852 60.6344 661.787 62.2865 662.429 64.1934C663.071 66.0814 663.392 68.1488 663.392 70.3955V70.9902C663.392 73.2181 663.071 75.2855 662.429 77.1924C661.787 79.0804 660.852 80.7324 659.625 82.1484C658.398 83.5456 656.897 84.6312 655.122 85.4053C653.347 86.1794 651.318 86.5664 649.033 86.5664C646.768 86.5664 644.738 86.1794 642.944 85.4053C641.151 84.6312 639.64 83.5456 638.413 82.1484C637.186 80.7324 636.251 79.0804 635.609 77.1924C634.967 75.2855 634.646 73.2181 634.646 70.9902ZM642.123 70.3955V70.9902C642.123 72.3307 642.255 73.5863 642.52 74.7568C642.784 75.9274 643.19 76.9564 643.737 77.8438C644.285 78.7311 644.993 79.4297 645.861 79.9395C646.749 80.4303 647.806 80.6758 649.033 80.6758C650.242 80.6758 651.28 80.4303 652.148 79.9395C653.017 79.4297 653.725 78.7311 654.272 77.8438C654.839 76.9564 655.254 75.9274 655.519 74.7568C655.783 73.5863 655.915 72.3307 655.915 70.9902V70.3955C655.915 69.0739 655.783 67.8372 655.519 66.6855C655.254 65.515 654.839 64.486 654.272 63.5986C653.725 62.6924 653.007 61.9844 652.12 61.4746C651.252 60.946 650.204 60.6816 648.977 60.6816C647.768 60.6816 646.73 60.946 645.861 61.4746C644.993 61.9844 644.285 62.6924 643.737 63.5986C643.19 64.486 642.784 65.515 642.52 66.6855C642.255 67.8372 642.123 69.0739 642.123 70.3955ZM676.277 61.6445V86H668.801V55.3574H675.853L676.277 61.6445ZM675.173 69.5742H672.879C672.879 67.4408 673.134 65.4772 673.644 63.6836C674.172 61.89 674.946 60.3324 675.966 59.0107C676.985 57.6702 678.241 56.6318 679.732 55.8955C681.243 55.1592 682.989 54.791 684.972 54.791C686.35 54.791 687.615 54.9987 688.767 55.4141C689.918 55.8105 690.91 56.443 691.74 57.3115C692.59 58.1611 693.241 59.2751 693.694 60.6533C694.147 62.0127 694.374 63.6458 694.374 65.5527V86H686.897V66.3174C686.897 64.8825 686.69 63.7591 686.274 62.9473C685.878 62.1354 685.302 61.569 684.547 61.248C683.792 60.9082 682.885 60.7383 681.828 60.7383C680.658 60.7383 679.647 60.9743 678.798 61.4463C677.967 61.8994 677.278 62.5319 676.73 63.3438C676.202 64.1556 675.805 65.0902 675.541 66.1475C675.296 67.2048 675.173 68.347 675.173 69.5742ZM693.808 68.1865L690.721 68.7529C690.74 66.8271 691.004 65.0241 691.514 63.3438C692.023 61.6445 692.769 60.1624 693.751 58.8975C694.752 57.6136 695.988 56.613 697.461 55.8955C698.952 55.1592 700.671 54.791 702.615 54.791C704.126 54.791 705.485 55.0081 706.693 55.4424C707.921 55.8577 708.968 56.528 709.837 57.4531C710.705 58.3594 711.366 59.5394 711.819 60.9932C712.291 62.4469 712.527 64.2217 712.527 66.3174V86H704.994V66.2891C704.994 64.7975 704.786 63.6553 704.371 62.8623C703.975 62.0693 703.399 61.5218 702.644 61.2197C701.888 60.8988 701.001 60.7383 699.981 60.7383C698.943 60.7383 698.037 60.9365 697.263 61.333C696.507 61.7106 695.866 62.2393 695.337 62.9189C694.827 63.5986 694.44 64.3916 694.176 65.2979C693.93 66.1852 693.808 67.1481 693.808 68.1865ZM726.716 61.248V97.7812H719.211V55.3574H726.149L726.716 61.248ZM746.398 70.3672V70.9619C746.398 73.1898 746.134 75.2572 745.605 77.1641C745.096 79.0521 744.34 80.7041 743.34 82.1201C742.339 83.5173 741.093 84.6123 739.602 85.4053C738.129 86.1794 736.43 86.5664 734.504 86.5664C732.616 86.5664 730.973 86.2077 729.576 85.4902C728.179 84.7539 726.999 83.7155 726.036 82.375C725.073 81.0345 724.299 79.4769 723.714 77.7021C723.147 75.9085 722.723 73.9544 722.439 71.8398V69.9424C722.723 67.6956 723.147 65.6566 723.714 63.8252C724.299 61.9749 725.073 60.3796 726.036 59.0391C726.999 57.6797 728.17 56.6318 729.548 55.8955C730.945 55.1592 732.578 54.791 734.447 54.791C736.392 54.791 738.101 55.1592 739.573 55.8955C741.065 56.6318 742.32 57.6891 743.34 59.0674C744.359 60.4456 745.124 62.0882 745.634 63.9951C746.144 65.902 746.398 68.026 746.398 70.3672ZM738.894 70.9619V70.3672C738.894 69.0078 738.771 67.7523 738.525 66.6006C738.28 65.43 737.902 64.4105 737.393 63.542C736.883 62.6546 736.222 61.9655 735.41 61.4746C734.598 60.9837 733.617 60.7383 732.465 60.7383C731.313 60.7383 730.322 60.9271 729.491 61.3047C728.66 61.6823 727.981 62.2204 727.452 62.9189C726.924 63.6175 726.508 64.4482 726.206 65.4111C725.923 66.3551 725.734 67.403 725.64 68.5547V73.2559C725.81 74.653 726.14 75.9085 726.631 77.0225C727.122 78.1364 727.839 79.0238 728.783 79.6846C729.746 80.3454 730.992 80.6758 732.521 80.6758C733.673 80.6758 734.655 80.4209 735.467 79.9111C736.279 79.4014 736.939 78.7028 737.449 77.8154C737.959 76.9092 738.327 75.8708 738.554 74.7002C738.78 73.5296 738.894 72.2835 738.894 70.9619ZM768.743 79.4863V65.3545C768.743 64.3161 768.564 63.4193 768.205 62.6641C767.846 61.9089 767.299 61.3236 766.562 60.9082C765.826 60.4928 764.892 60.2852 763.759 60.2852C762.758 60.2852 761.88 60.4551 761.125 60.7949C760.389 61.1348 759.822 61.6162 759.426 62.2393C759.029 62.8434 758.831 63.542 758.831 64.335H751.326C751.326 63.07 751.628 61.8711 752.232 60.7383C752.837 59.5866 753.696 58.5671 754.81 57.6797C755.942 56.7734 757.292 56.0654 758.859 55.5557C760.445 55.0459 762.22 54.791 764.184 54.791C766.506 54.791 768.573 55.1875 770.386 55.9805C772.217 56.7546 773.652 57.9251 774.69 59.4922C775.748 61.0592 776.276 63.0322 776.276 65.4111V78.7783C776.276 80.3076 776.371 81.6198 776.56 82.7148C776.767 83.791 777.069 84.7256 777.466 85.5186V86H769.848C769.489 85.2259 769.215 84.2441 769.026 83.0547C768.838 81.8464 768.743 80.6569 768.743 79.4863ZM769.791 67.3369L769.848 71.7832H765.118C763.948 71.7832 762.919 71.9059 762.031 72.1514C761.144 72.3779 760.417 72.7178 759.851 73.1709C759.284 73.6051 758.859 74.1338 758.576 74.7568C758.293 75.361 758.151 76.0501 758.151 76.8242C758.151 77.5794 758.321 78.2591 758.661 78.8633C759.02 79.4674 759.53 79.9489 760.19 80.3076C760.87 80.6475 761.663 80.8174 762.569 80.8174C763.891 80.8174 765.043 80.5531 766.024 80.0244C767.006 79.4769 767.771 78.8161 768.318 78.042C768.866 77.2679 769.159 76.5316 769.196 75.833L771.349 79.0615C771.084 79.8356 770.688 80.6569 770.159 81.5254C769.631 82.3939 768.951 83.2057 768.12 83.9609C767.289 84.7161 766.289 85.3392 765.118 85.8301C763.948 86.321 762.588 86.5664 761.04 86.5664C759.058 86.5664 757.283 86.1699 755.716 85.377C754.149 84.584 752.912 83.4984 752.006 82.1201C751.1 80.7419 750.646 79.1748 750.646 77.4189C750.646 75.7952 750.949 74.3604 751.553 73.1143C752.157 71.8682 753.054 70.8203 754.243 69.9707C755.433 69.1022 756.905 68.4508 758.661 68.0166C760.436 67.5635 762.465 67.3369 764.75 67.3369H769.791ZM790.352 61.8994V86H782.875V55.3574H789.898L790.352 61.8994ZM789.162 69.5742H786.953C786.972 67.3464 787.274 65.3262 787.859 63.5137C788.445 61.7012 789.266 60.1436 790.323 58.8408C791.399 57.5381 792.674 56.5374 794.146 55.8389C795.619 55.1403 797.262 54.791 799.074 54.791C800.547 54.791 801.878 54.9987 803.067 55.4141C804.257 55.8294 805.276 56.4902 806.126 57.3965C806.994 58.3027 807.655 59.4922 808.108 60.9648C808.58 62.4186 808.816 64.2122 808.816 66.3457V86H801.283V66.2891C801.283 64.8919 801.076 63.7874 800.66 62.9756C800.264 62.1637 799.678 61.5879 798.904 61.248C798.149 60.9082 797.215 60.7383 796.101 60.7383C794.949 60.7383 793.939 60.9743 793.07 61.4463C792.221 61.8994 791.503 62.5319 790.918 63.3438C790.352 64.1556 789.917 65.0902 789.615 66.1475C789.313 67.2048 789.162 68.347 789.162 69.5742ZM824.393 82.6016L832.605 55.3574H840.62L828.329 90.6445C828.046 91.3997 827.678 92.221 827.225 93.1084C826.79 93.9958 826.205 94.8359 825.469 95.6289C824.732 96.4408 823.807 97.1016 822.693 97.6113C821.598 98.1211 820.267 98.376 818.7 98.376C818.021 98.376 817.416 98.3288 816.888 98.2344C816.359 98.14 815.802 98.0173 815.217 97.8662V92.2588C815.406 92.2777 815.623 92.2871 815.868 92.2871C816.132 92.306 816.359 92.3154 816.548 92.3154C817.643 92.3154 818.549 92.1833 819.267 91.9189C819.984 91.6735 820.56 91.2676 820.994 90.7012C821.447 90.1536 821.825 89.4362 822.127 88.5488L824.393 82.6016ZM820.343 55.3574L827.281 77.9287L828.499 85.8301L823.345 86.7646L812.271 55.3574H820.343ZM385.739 112.766H400.721C403.855 112.766 406.545 113.238 408.792 114.182C411.039 115.126 412.766 116.523 413.975 118.373C415.183 120.223 415.787 122.498 415.787 125.198C415.787 127.332 415.41 129.182 414.654 130.749C413.899 132.316 412.832 133.628 411.454 134.686C410.095 135.743 408.49 136.574 406.64 137.178L404.204 138.424H390.979L390.922 132.278H400.806C402.41 132.278 403.742 131.995 404.799 131.429C405.856 130.862 406.649 130.079 407.178 129.078C407.725 128.077 407.999 126.935 407.999 125.651C407.999 124.273 407.735 123.084 407.206 122.083C406.677 121.063 405.875 120.28 404.799 119.732C403.723 119.185 402.363 118.911 400.721 118.911H393.527V154H385.739V112.766ZM409.019 154L399.475 135.535L407.716 135.507L417.373 153.604V154H409.019ZM435.81 154.566C433.487 154.566 431.401 154.189 429.551 153.434C427.701 152.678 426.124 151.631 424.821 150.29C423.537 148.931 422.546 147.354 421.848 145.561C421.168 143.748 420.828 141.803 420.828 139.727V138.594C420.828 136.234 421.168 134.091 421.848 132.165C422.527 130.22 423.49 128.549 424.736 127.152C425.982 125.755 427.474 124.679 429.211 123.924C430.948 123.169 432.864 122.791 434.96 122.791C437.131 122.791 439.048 123.159 440.709 123.896C442.37 124.613 443.758 125.632 444.872 126.954C445.986 128.276 446.826 129.862 447.393 131.712C447.959 133.543 448.242 135.573 448.242 137.801V140.944H424.227V135.79H440.879V135.224C440.841 134.034 440.615 132.949 440.199 131.967C439.784 130.966 439.142 130.173 438.273 129.588C437.405 128.984 436.282 128.682 434.903 128.682C433.789 128.682 432.817 128.927 431.986 129.418C431.174 129.89 430.495 130.57 429.947 131.457C429.419 132.326 429.022 133.364 428.758 134.572C428.493 135.781 428.361 137.121 428.361 138.594V139.727C428.361 141.01 428.531 142.2 428.871 143.295C429.23 144.39 429.749 145.343 430.429 146.155C431.127 146.948 431.958 147.571 432.921 148.024C433.903 148.459 435.017 148.676 436.263 148.676C437.83 148.676 439.246 148.374 440.511 147.77C441.795 147.146 442.909 146.231 443.853 145.022L447.619 148.931C446.977 149.875 446.109 150.781 445.014 151.649C443.938 152.518 442.635 153.226 441.105 153.773C439.576 154.302 437.811 154.566 435.81 154.566ZM472.739 123.357H479.536V153.065C479.536 155.841 478.932 158.191 477.724 160.117C476.534 162.062 474.863 163.535 472.711 164.535C470.559 165.555 468.057 166.064 465.206 166.064C463.979 166.064 462.648 165.895 461.213 165.555C459.797 165.215 458.428 164.677 457.106 163.94C455.804 163.223 454.718 162.288 453.85 161.137L457.22 156.719C458.239 157.908 459.391 158.805 460.675 159.409C461.959 160.032 463.346 160.344 464.838 160.344C466.348 160.344 467.632 160.061 468.689 159.494C469.766 158.947 470.587 158.135 471.153 157.059C471.739 156.001 472.031 154.699 472.031 153.15V130.353L472.739 123.357ZM452.037 139.047V138.452C452.037 136.111 452.32 133.987 452.887 132.08C453.453 130.154 454.265 128.502 455.322 127.124C456.398 125.746 457.692 124.679 459.202 123.924C460.731 123.169 462.45 122.791 464.356 122.791C466.377 122.791 468.076 123.159 469.454 123.896C470.851 124.632 472.003 125.68 472.909 127.039C473.834 128.398 474.552 130.013 475.062 131.882C475.59 133.732 475.996 135.771 476.279 137.999V139.613C476.015 141.785 475.59 143.776 475.005 145.589C474.438 147.401 473.683 148.987 472.739 150.347C471.795 151.687 470.625 152.726 469.228 153.462C467.83 154.198 466.188 154.566 464.3 154.566C462.412 154.566 460.713 154.179 459.202 153.405C457.692 152.631 456.398 151.546 455.322 150.148C454.265 148.751 453.453 147.109 452.887 145.221C452.32 143.333 452.037 141.275 452.037 139.047ZM459.514 138.452V139.047C459.514 140.368 459.646 141.605 459.91 142.757C460.174 143.909 460.58 144.928 461.128 145.815C461.675 146.684 462.365 147.364 463.195 147.854C464.026 148.345 465.017 148.591 466.169 148.591C467.717 148.591 468.982 148.27 469.964 147.628C470.965 146.967 471.72 146.07 472.229 144.938C472.758 143.786 473.098 142.493 473.249 141.058V136.611C473.155 135.479 472.947 134.431 472.626 133.468C472.324 132.505 471.899 131.674 471.352 130.976C470.804 130.277 470.105 129.729 469.256 129.333C468.406 128.937 467.396 128.738 466.226 128.738C465.093 128.738 464.102 128.993 463.252 129.503C462.402 129.994 461.704 130.683 461.156 131.57C460.609 132.458 460.193 133.487 459.91 134.657C459.646 135.828 459.514 137.093 459.514 138.452ZM494.206 123.357V154H486.701V123.357H494.206ZM486.191 115.343C486.191 114.229 486.569 113.304 487.324 112.567C488.098 111.831 489.137 111.463 490.439 111.463C491.742 111.463 492.771 111.831 493.526 112.567C494.3 113.304 494.688 114.229 494.688 115.343C494.688 116.438 494.3 117.354 493.526 118.09C492.771 118.826 491.742 119.194 490.439 119.194C489.137 119.194 488.098 118.826 487.324 118.09C486.569 117.354 486.191 116.438 486.191 115.343ZM518.193 145.617C518.193 144.975 518.023 144.399 517.684 143.89C517.344 143.38 516.702 142.917 515.758 142.502C514.833 142.068 513.473 141.662 511.68 141.284C510.094 140.944 508.631 140.52 507.29 140.01C505.95 139.5 504.798 138.886 503.835 138.169C502.872 137.433 502.117 136.574 501.569 135.592C501.041 134.591 500.776 133.439 500.776 132.137C500.776 130.872 501.05 129.682 501.598 128.568C502.145 127.436 502.938 126.444 503.977 125.595C505.015 124.726 506.28 124.047 507.771 123.556C509.263 123.046 510.943 122.791 512.812 122.791C515.418 122.791 517.655 123.216 519.524 124.065C521.412 124.915 522.857 126.086 523.857 127.577C524.858 129.05 525.358 130.711 525.358 132.562H517.882C517.882 131.75 517.693 131.013 517.315 130.353C516.957 129.692 516.4 129.163 515.645 128.767C514.889 128.351 513.936 128.144 512.784 128.144C511.746 128.144 510.868 128.313 510.15 128.653C509.452 128.993 508.923 129.437 508.564 129.984C508.206 130.532 508.026 131.136 508.026 131.797C508.026 132.288 508.121 132.731 508.31 133.128C508.517 133.506 508.848 133.855 509.301 134.176C509.754 134.497 510.368 134.789 511.142 135.054C511.935 135.318 512.907 135.573 514.059 135.818C516.343 136.271 518.335 136.876 520.034 137.631C521.752 138.367 523.093 139.349 524.056 140.576C525.019 141.803 525.5 143.37 525.5 145.277C525.5 146.637 525.207 147.883 524.622 149.016C524.037 150.13 523.187 151.102 522.073 151.933C520.959 152.763 519.628 153.415 518.08 153.887C516.532 154.34 514.785 154.566 512.841 154.566C510.028 154.566 507.649 154.066 505.704 153.065C503.759 152.046 502.287 150.762 501.286 149.214C500.285 147.647 499.785 146.023 499.785 144.343H506.95C507.007 145.532 507.328 146.486 507.913 147.203C508.498 147.921 509.235 148.44 510.122 148.761C511.028 149.063 511.982 149.214 512.982 149.214C514.115 149.214 515.069 149.063 515.843 148.761C516.617 148.44 517.202 148.015 517.599 147.486C517.995 146.939 518.193 146.316 518.193 145.617ZM545.692 123.357V128.738H528.134V123.357H545.692ZM532.835 115.824H540.34V145.164C540.34 146.07 540.463 146.769 540.708 147.26C540.953 147.751 541.322 148.081 541.812 148.251C542.303 148.421 542.889 148.506 543.568 148.506C544.059 148.506 544.512 148.478 544.928 148.421C545.343 148.364 545.692 148.308 545.976 148.251L546.004 153.858C545.381 154.066 544.673 154.236 543.88 154.368C543.106 154.5 542.228 154.566 541.246 154.566C539.566 154.566 538.093 154.283 536.828 153.717C535.563 153.132 534.581 152.197 533.883 150.913C533.184 149.61 532.835 147.892 532.835 145.759V115.824ZM558.153 129.616V154H550.677V123.357H557.757L558.153 129.616ZM567.471 123.159L567.357 130.126C566.942 130.05 566.47 129.994 565.941 129.956C565.432 129.918 564.95 129.899 564.497 129.899C563.345 129.899 562.335 130.06 561.467 130.381C560.598 130.683 559.871 131.127 559.286 131.712C558.72 132.297 558.285 133.015 557.983 133.864C557.681 134.695 557.511 135.639 557.474 136.696L555.859 136.498C555.859 134.553 556.058 132.75 556.454 131.089C556.851 129.427 557.426 127.974 558.182 126.728C558.937 125.481 559.881 124.519 561.014 123.839C562.165 123.14 563.487 122.791 564.979 122.791C565.394 122.791 565.838 122.829 566.31 122.904C566.8 122.961 567.188 123.046 567.471 123.159ZM587.493 147.486V133.354C587.493 132.316 587.314 131.419 586.955 130.664C586.596 129.909 586.049 129.324 585.312 128.908C584.576 128.493 583.642 128.285 582.509 128.285C581.508 128.285 580.63 128.455 579.875 128.795C579.139 129.135 578.572 129.616 578.176 130.239C577.779 130.843 577.581 131.542 577.581 132.335H570.076C570.076 131.07 570.378 129.871 570.982 128.738C571.587 127.587 572.446 126.567 573.56 125.68C574.692 124.773 576.042 124.065 577.609 123.556C579.195 123.046 580.97 122.791 582.934 122.791C585.256 122.791 587.323 123.188 589.136 123.98C590.967 124.755 592.402 125.925 593.44 127.492C594.498 129.059 595.026 131.032 595.026 133.411V146.778C595.026 148.308 595.121 149.62 595.31 150.715C595.517 151.791 595.819 152.726 596.216 153.519V154H588.598C588.239 153.226 587.965 152.244 587.776 151.055C587.588 149.846 587.493 148.657 587.493 147.486ZM588.541 135.337L588.598 139.783H583.868C582.698 139.783 581.669 139.906 580.781 140.151C579.894 140.378 579.167 140.718 578.601 141.171C578.034 141.605 577.609 142.134 577.326 142.757C577.043 143.361 576.901 144.05 576.901 144.824C576.901 145.579 577.071 146.259 577.411 146.863C577.77 147.467 578.28 147.949 578.94 148.308C579.62 148.647 580.413 148.817 581.319 148.817C582.641 148.817 583.793 148.553 584.774 148.024C585.756 147.477 586.521 146.816 587.068 146.042C587.616 145.268 587.909 144.532 587.946 143.833L590.099 147.062C589.834 147.836 589.438 148.657 588.909 149.525C588.381 150.394 587.701 151.206 586.87 151.961C586.039 152.716 585.039 153.339 583.868 153.83C582.698 154.321 581.338 154.566 579.79 154.566C577.808 154.566 576.033 154.17 574.466 153.377C572.899 152.584 571.662 151.498 570.756 150.12C569.85 148.742 569.396 147.175 569.396 145.419C569.396 143.795 569.699 142.36 570.303 141.114C570.907 139.868 571.804 138.82 572.993 137.971C574.183 137.102 575.655 136.451 577.411 136.017C579.186 135.563 581.215 135.337 583.5 135.337H588.541ZM616.267 123.357V128.738H598.708V123.357H616.267ZM603.409 115.824H610.914V145.164C610.914 146.07 611.037 146.769 611.282 147.26C611.528 147.751 611.896 148.081 612.387 148.251C612.878 148.421 613.463 148.506 614.143 148.506C614.633 148.506 615.087 148.478 615.502 148.421C615.917 148.364 616.267 148.308 616.55 148.251L616.578 153.858C615.955 154.066 615.247 154.236 614.454 154.368C613.68 154.5 612.802 154.566 611.82 154.566C610.14 154.566 608.667 154.283 607.402 153.717C606.137 153.132 605.156 152.197 604.457 150.913C603.758 149.61 603.409 147.892 603.409 145.759V115.824ZM629.181 123.357V154H621.676V123.357H629.181ZM621.166 115.343C621.166 114.229 621.544 113.304 622.299 112.567C623.073 111.831 624.111 111.463 625.414 111.463C626.717 111.463 627.746 111.831 628.501 112.567C629.275 113.304 629.662 114.229 629.662 115.343C629.662 116.438 629.275 117.354 628.501 118.09C627.746 118.826 626.717 119.194 625.414 119.194C624.111 119.194 623.073 118.826 622.299 118.09C621.544 117.354 621.166 116.438 621.166 115.343ZM634.986 138.99V138.396C634.986 136.149 635.307 134.081 635.949 132.193C636.591 130.286 637.526 128.634 638.753 127.237C639.98 125.84 641.481 124.755 643.256 123.98C645.031 123.188 647.051 122.791 649.316 122.791C651.62 122.791 653.659 123.188 655.434 123.98C657.227 124.755 658.738 125.84 659.965 127.237C661.192 128.634 662.127 130.286 662.769 132.193C663.41 134.081 663.731 136.149 663.731 138.396V138.99C663.731 141.218 663.41 143.285 662.769 145.192C662.127 147.08 661.192 148.732 659.965 150.148C658.738 151.546 657.237 152.631 655.462 153.405C653.687 154.179 651.658 154.566 649.373 154.566C647.107 154.566 645.078 154.179 643.284 153.405C641.491 152.631 639.98 151.546 638.753 150.148C637.526 148.732 636.591 147.08 635.949 145.192C635.307 143.285 634.986 141.218 634.986 138.99ZM642.463 138.396V138.99C642.463 140.331 642.595 141.586 642.859 142.757C643.124 143.927 643.53 144.956 644.077 145.844C644.625 146.731 645.333 147.43 646.201 147.939C647.089 148.43 648.146 148.676 649.373 148.676C650.581 148.676 651.62 148.43 652.488 147.939C653.357 147.43 654.065 146.731 654.612 145.844C655.179 144.956 655.594 143.927 655.858 142.757C656.123 141.586 656.255 140.331 656.255 138.99V138.396C656.255 137.074 656.123 135.837 655.858 134.686C655.594 133.515 655.179 132.486 654.612 131.599C654.065 130.692 653.347 129.984 652.46 129.475C651.591 128.946 650.544 128.682 649.316 128.682C648.108 128.682 647.07 128.946 646.201 129.475C645.333 129.984 644.625 130.692 644.077 131.599C643.53 132.486 643.124 133.515 642.859 134.686C642.595 135.837 642.463 137.074 642.463 138.396ZM676.504 129.899V154H669.027V123.357H676.051L676.504 129.899ZM675.314 137.574H673.105C673.124 135.346 673.426 133.326 674.012 131.514C674.597 129.701 675.418 128.144 676.476 126.841C677.552 125.538 678.826 124.537 680.299 123.839C681.771 123.14 683.414 122.791 685.227 122.791C686.699 122.791 688.03 122.999 689.22 123.414C690.409 123.829 691.429 124.49 692.278 125.396C693.147 126.303 693.808 127.492 694.261 128.965C694.733 130.419 694.969 132.212 694.969 134.346V154H687.436V134.289C687.436 132.892 687.228 131.787 686.812 130.976C686.416 130.164 685.831 129.588 685.057 129.248C684.301 128.908 683.367 128.738 682.253 128.738C681.101 128.738 680.091 128.974 679.223 129.446C678.373 129.899 677.656 130.532 677.07 131.344C676.504 132.156 676.07 133.09 675.768 134.147C675.465 135.205 675.314 136.347 675.314 137.574Z" fill="#001B78"/>
<path d="M364.366 421.573C364.366 421.573 375.624 376.671 340.67 369.213C340.67 369.213 316.821 367.192 302.311 375.598C302.311 375.598 341.142 400.855 336.042 407.871C330.941 414.887 294.785 376.58 294.785 376.58C294.785 376.58 251.006 393.418 240.819 406.657C240.819 406.657 290.991 418.255 284.341 423.776C277.69 429.298 224.919 419.679 224.919 419.679C224.919 419.679 189.361 445.82 203.196 468.707C217.032 491.593 234.043 492.273 239.617 488.688C245.19 485.103 273.076 454.597 276.217 459.088C279.358 463.578 266.489 489.867 252.326 497.879C252.326 497.879 294.716 514.647 308.614 496.721C322.512 478.796 317.182 464.069 325.986 453.152C334.791 442.235 344.45 437.394 342.393 445.077C340.336 452.759 322.345 468.229 321.546 483.075C320.747 497.921 318.766 508.649 336.202 496.35C353.637 484.051 377.396 454.794 370.905 438.194L364.366 421.573Z" fill="#1C4670" fill-opacity="0.45"/>
<path d="M222 461C222 461 326.491 401.303 365.139 420.979C365.139 420.979 378.077 434.599 401.127 441.133L407 446.961C407 446.961 378.877 436.171 371.685 438.376C371.692 438.376 363.286 393.468 222 461Z" fill="#8BC0CC"/>
<path d="M401.261 441.183C401.261 441.183 432.452 446.658 449 475.611L445.038 478C445.038 478 422.282 450.828 403.039 445.256C383.796 439.685 401.261 441.183 401.261 441.183Z" fill="#599DAD"/>
<path d="M408.423 351.913C408.423 351.913 462.867 304.098 424.021 263.223C424.021 263.223 394.801 239.266 368.497 237.112C368.497 237.112 396.596 304.421 383.759 308.876C370.923 313.332 357.855 231.618 357.855 231.618C357.855 231.618 286.08 214.138 261.052 222.06C261.052 222.06 316.001 281.924 302.464 283.109C288.926 284.295 228.852 224.636 228.852 224.636C228.852 224.636 159.446 226.481 157.168 268.359C154.889 310.238 176.391 326.356 186.809 326.721C197.227 327.086 260.519 312.722 260.61 321.318C260.701 329.914 220.649 352.249 195.187 349.913C195.187 349.913 235.414 409.467 269.331 398.794C303.249 388.121 309.397 364.41 330.478 358.172C351.559 351.934 368.441 354.397 358.956 362.452C349.47 370.508 312.377 374.382 298.201 392.766C284.026 411.151 271.946 423.242 305.492 422.996C339.038 422.751 395.853 406.331 402.127 379.125L408.423 351.913Z" fill="#BCECF7"/>
<path d="M190 274C190 274 374.233 293.379 407.214 352.344C407.214 352.344 412.331 380.808 436.382 409.526L439 422C439 422 412.031 383.475 400.958 379.782C400.958 379.782 428.004 316.565 190 274Z" fill="#8BC0CC"/>
<path d="M436.84 409.009C436.84 409.009 472.296 443.684 467.566 496L460.273 495.616C460.273 495.616 455.346 440.134 435.488 415.901C415.631 391.668 436.84 409.009 436.84 409.009Z" fill="#6BB7BF"/>
<path d="M395.875 792.365C395.875 792.365 466.634 776.51 452.009 722.339C452.009 722.339 437.763 687.532 415.661 673.135C415.661 673.135 408.183 745.274 394.759 743.063C381.334 740.852 408.921 663.278 408.921 663.278C408.921 663.278 354.156 613.886 328.339 608.87C328.339 608.87 348.04 687.274 335.578 681.847C323.115 676.42 298.78 595.812 298.78 595.812C298.78 595.812 236.853 564.423 214.807 599.907C192.76 635.391 203.987 659.686 212.974 664.96C221.961 670.233 284.492 687.804 280.476 695.365C276.46 702.927 230.541 703.373 209.246 689.22C209.246 689.22 216.155 760.369 251.099 767.156C286.043 773.943 302.796 756.17 324.316 760.767C345.836 765.363 359.52 775.527 347.317 778.052C335.114 780.577 300.654 766.291 279.38 775.631C258.106 784.971 241.705 789.749 271.334 805.486C300.963 821.223 358.796 833.911 377.353 813.159L395.875 792.365Z" fill="#BCECF7"/>
<path d="M241 620C241 620 393.84 725.135 395 792.203C395 792.203 386.062 819.391 393.651 855.904L390.066 868C390.066 868 384.538 821.596 376.551 813.077C376.551 813.028 430.179 771.048 241 620Z" fill="#8BC0CC"/>
<path d="M394.279 856.815C394.279 856.815 409.445 904.18 378.543 948L372 944.203C372 944.203 395.596 893.013 389.542 862.241C383.487 831.468 394.279 856.815 394.279 856.815Z" fill="#6BB7BF"/>
<path d="M864 303H350V1025H864V303Z" fill="#1C4670"/>
<path d="M846 323H368V1012H846V323Z" fill="#DCF6F9"/>
<path d="M808 408H417V429H808V408Z" fill="#FFA229"/>
<path d="M808 544H417V554H808V544Z" fill="#FFA229"/>
<path d="M808 567H417V578H808V567Z" fill="#FFA229"/>
<path d="M808 592H417V602H808V592Z" fill="#FFA229"/>
<path d="M808 616H417V627H808V616Z" fill="#FFA229"/>
<path d="M808 640H417V650H808V640Z" fill="#FFA229"/>
<path d="M808 664H417V674H808V664Z" fill="#FFA229"/>
<path d="M512.884 831.94C528.252 825.574 535.55 807.955 529.184 792.587C522.818 777.218 505.199 769.92 489.831 776.286C474.463 782.652 467.164 800.271 473.53 815.639C479.896 831.008 497.515 838.306 512.884 831.94Z" fill="#FFA229"/>
<path d="M657.516 833H657.262C656.866 832.932 656.514 832.711 656.281 832.386C656.049 832.062 655.955 831.659 656.02 831.266C656.303 829.616 663.2 790.767 684.938 777.54C686.49 776.603 687.463 777.093 687.9 777.463C689.811 779.085 688.359 783.21 681.813 798.765C679.204 804.966 676.114 812.321 674.838 816.788C677.158 813.782 680.621 808.629 683.372 804.533C691.97 791.732 693.648 789.649 695.362 789.649C695.663 789.646 695.96 789.716 696.227 789.854C696.494 789.992 696.723 790.193 696.893 790.439C697.803 791.732 697.111 793.934 694.734 800.282C693.666 802.959 692.762 805.698 692.026 808.482C693.525 806.954 694.909 805.318 696.166 803.589C699.15 799.751 700.659 797.912 702.436 798.192C702.84 798.265 703.214 798.45 703.515 798.726C703.816 799.002 704.032 799.358 704.136 799.751C704.308 800.285 704.426 800.836 704.489 801.394C704.722 802.932 704.99 804.672 706.859 805.721C710.632 807.818 721.508 807.706 751.892 795.151C752.266 794.998 752.687 794.998 753.06 795.152C753.434 795.306 753.73 795.601 753.885 795.972C754.039 796.343 754.038 796.759 753.883 797.13C753.728 797.5 753.43 797.794 753.056 797.947C727.404 808.545 711.803 811.929 705.37 808.357C702.239 806.609 701.773 803.68 701.498 801.904C700.638 802.806 699.439 804.358 698.557 805.49C695.271 809.734 693.112 812.286 690.905 812.111C690.58 812.084 690.265 811.982 689.987 811.815C689.708 811.648 689.471 811.419 689.297 811.146C688.246 809.496 689.297 806.252 691.878 799.261C692.294 798.15 692.774 796.863 693.19 795.668C691.074 798.52 688.253 802.771 685.918 806.217C676.284 820.549 674.542 822.625 672.602 822.101C672.203 821.986 671.853 821.744 671.608 821.411C671.363 821.078 671.236 820.674 671.248 820.262C671.05 816.907 674.203 809.126 679.006 797.632C681.461 791.795 684.649 784.147 685.474 780.784C665.725 793.948 659.06 831.406 658.997 831.818C658.923 832.153 658.736 832.453 658.466 832.668C658.197 832.883 657.861 833 657.516 833Z" fill="#1C4670"/>
<path d="M719.236 290.987H658.887C660.743 286.068 661.378 280.771 660.74 275.552C660.101 270.333 658.207 265.346 655.22 261.021C652.233 256.695 648.243 253.16 643.592 250.718C638.94 248.276 633.766 247 628.514 247C623.262 247 618.088 248.276 613.436 250.718C608.785 253.16 604.794 256.695 601.808 261.021C598.821 265.346 596.927 270.333 596.288 275.552C595.65 280.771 596.285 286.068 598.141 290.987H537.792C535.46 290.987 533.224 291.915 531.575 293.566C529.926 295.216 529 297.455 529 299.79V324.198C529 326.532 529.926 328.771 531.575 330.422C533.224 332.073 535.46 333 537.792 333H719.208C721.54 333 723.776 332.073 725.425 330.422C727.074 328.771 728 326.532 728 324.198V299.79C728 297.46 727.078 295.225 725.435 293.575C723.792 291.926 721.563 290.995 719.236 290.987ZM628.528 291.484C626.157 291.482 623.84 290.777 621.87 289.457C619.899 288.138 618.364 286.263 617.458 284.07C616.552 281.877 616.315 279.464 616.779 277.136C617.242 274.809 618.384 272.671 620.061 270.993C621.738 269.315 623.874 268.173 626.199 267.71C628.524 267.248 630.934 267.486 633.124 268.395C635.314 269.303 637.186 270.841 638.503 272.815C639.819 274.788 640.522 277.109 640.522 279.482C640.522 281.06 640.212 282.622 639.608 284.08C639.004 285.537 638.119 286.861 637.004 287.976C635.888 289.09 634.565 289.974 633.108 290.576C631.651 291.178 630.09 291.486 628.514 291.484H628.528Z" fill="#FFA229"/>
<path d="M50.4881 1022.24C62.6006 1009.81 83.9458 1001.26 108.604 1000.26V963.647H66.0743C65.1307 963.647 64.292 962.82 63.7539 961.543C63.3495 960.524 63.1477 959.435 63.1597 958.338V956.486C63.1597 953.568 64.4737 951.183 66.0743 951.183H108.611V848.91C108.611 847.608 109.126 846.359 110.044 845.438C110.962 844.517 112.206 844 113.504 844C114.801 844 116.045 844.517 116.963 845.438C117.881 846.359 118.396 847.608 118.396 848.91V951.183H160.933C162.533 951.183 163.847 953.568 163.847 956.486V958.338C163.862 959.468 163.645 960.59 163.211 961.634C162.68 962.855 161.855 963.647 160.933 963.647H118.396V1000.26C143.054 1001.26 164.399 1009.81 176.512 1022.24C177.393 1023.13 178.222 1024.06 179 1025H48C48.7735 1024.06 49.6028 1023.13 50.4881 1022.24Z" fill="#1C3A3E"/>
<path d="M108 1000.29C125.358 1001.89 140.282 1010.28 148.908 1022.22C149.566 1023.13 150.185 1024.05 150.763 1025H163C162.417 1024.06 161.796 1023.13 161.138 1022.22C151.503 1008.9 134.047 1000 114.108 1000C112.048 1000.04 110.003 1000.1 108 1000.29Z" fill="#1C4670"/>
<path d="M243 999.933C243 999.933 244.489 1024.6 249.138 1024.95C249.756 1025 272.707 1025 272.707 1025L302 1024.83C302 1024.83 301.81 1017.57 293.242 1016.04C284.674 1014.51 270.347 1008.33 265.15 996.71C259.701 984.479 243 999.933 243 999.933Z" fill="#163560"/>
<path d="M127.297 824.614C131.521 831.576 136.218 838.244 141.354 844.569C156.775 863.944 173.559 879.919 176.497 895.02C177.162 898.302 178.069 901.53 179.21 904.679C180.433 908.177 181.944 911.779 183.687 915.535C190.231 929.684 200.015 945.534 209.785 959.942C226.653 984.849 240.507 1001.57 240.507 1001.57C240.507 1001.57 244.935 1005 257.6 1005C261.115 1005 273 1003.08 273 1003.08C271.833 1000.17 257.818 967.104 240.823 925.075L219.505 872.365C218.563 870.022 217.614 867.7 216.694 865.371C214.529 860.013 212.399 854.739 210.319 849.605L181.649 778.717C181.649 778.717 117.864 754.67 111.236 770.254C105.719 783.11 110.168 795.7 127.297 824.614Z" fill="#1C3A3E"/>
<path d="M332 758H235V1025H332V758Z" fill="#49ADB7"/>
<path d="M328 1025H397L397 758H328V1025Z" fill="#8BC0CC"/>
<path d="M328 753H229V758H328V753Z" fill="#24555E"/>
<path d="M405 753H328V758H405V753Z" fill="#49ADB7"/>
<path d="M227.281 717C227.281 717 241.37 724.949 245.313 724.949C249.256 724.949 264.748 721.975 269.062 724.168C273.377 726.361 281.227 735.155 282.658 738.03C285.291 743.204 272.046 740.918 265.785 736.511C265.336 736.194 264.826 735.974 264.286 735.864C263.746 735.754 263.19 735.757 262.651 735.872C259.41 736.582 252.676 737.788 249.42 736.582C245.041 734.971 222 733.189 222 733.189L227.281 717Z" fill="#F9A6A0"/>
<path d="M123 609.33C123 609.33 137.24 711.955 160.81 721.15C172.442 725.684 223.851 736.003 239.06 737C239.06 737 242.784 733.93 241.85 721.44C241.85 721.44 187.986 701.389 180.336 690.483C168.948 674.216 187.407 624.169 173.119 608.927C158.83 593.686 134.792 587.143 123 609.33Z" fill="white" fill-opacity="0.36"/>
<path d="M175.592 932C175.592 932 155.136 945.143 157.138 949.416C157.408 949.984 168.715 970.231 168.715 970.231L183.294 996C183.294 996 189.433 992.352 186.53 984.063C183.627 975.774 181.874 960.161 189.305 949.998C197.078 939.324 175.592 932 175.592 932Z" fill="#FF4B42"/>
<path d="M187.196 957C187.196 957 173.013 943.802 170.79 935.637C170.79 935.637 222.686 873.363 233.94 859.402C234.457 858.765 234.324 858.064 233.646 857.301C225.146 847.709 130.729 828.195 118.391 808.989C114.713 803.346 112.016 797.119 110.416 790.574C107.62 778.839 109.828 770.731 109.828 770.731L204.127 768C204.127 768 282.634 816.971 291.505 850.355C300.375 883.74 187.196 957 187.196 957Z" fill="#24555E"/>
<path d="M234 858C225.447 848.292 130.44 828.544 118.026 809.108C114.325 803.398 111.611 797.097 110 790.473V778.377L150.325 772C150.325 772 161.762 807.429 195.63 820.743C227.353 833.2 233.367 855.265 234 858Z" fill="#1C3A3E"/>
<path d="M178 604.14C158.811 609.047 127 591.361 127 591.361C127 591.361 139.347 583.083 143.925 564.907C144.164 563.988 144.368 563.056 144.558 562.103L154.402 560L169.056 573.087C168.63 578.051 167.907 582.985 166.89 587.863C166.571 589.494 166.203 591.242 165.786 593.107C170.501 596.008 174.641 599.748 178 604.14Z" fill="#FCBDB6"/>
<path d="M107.514 683.18C110.257 720.229 106.651 776.58 109.759 786.341C112.446 794.756 143.045 789.752 155.253 786.94C159.772 785.904 165.244 784.417 170.9 782.655C186.672 777.722 203.876 770.752 205.701 765.551C205.77 765.355 205.829 765.155 205.876 764.952C206.041 764.235 206.041 763.491 205.876 762.774C205.259 760.124 202.894 757.256 202.614 750.688C202.305 743.365 202.347 734.732 202.073 725.458C202.073 724.408 202.073 723.273 201.933 722.23V721.85C201.933 721.652 201.933 721.455 201.933 721.258C201.673 710.912 201.133 700.031 200.53 689.241C200.13 682.468 199.674 675.752 199.126 669.325C197.723 652.728 195.899 637.971 193.443 628.64C189.437 613.431 180.596 603.509 172.548 596.222L166.732 591.211C160.235 592.62 152.552 591.69 145.613 588.392C138.091 584.805 135.495 582.239 134.19 583.205C116.754 596.666 104.272 637.886 107.514 683.18Z" fill="#FFA229"/>
<path d="M170.51 782C186.514 777.101 203.971 770.179 205.822 765.015C205.892 764.82 205.952 764.621 206 764.42C206 763.72 206 762.978 206 762.257C205.373 759.626 202.974 756.777 202.689 750.255C202.376 742.983 202.419 734.41 202.141 725.2C202.141 724.157 202.141 723.03 201.999 721.995V721.617C201.999 721.421 201.999 721.225 201.999 721.029L137.305 640C137.305 640 93.7563 729.028 170.51 782Z" fill="white" fill-opacity="0.36"/>
<path d="M170 573.155C169.577 578.142 168.858 583.099 167.846 588C153.615 583.366 147.161 570.394 145 564.93C145.238 564.007 145.441 563.07 145.629 562.113L155.42 560L170 573.155Z" fill="#F9A6A0"/>
<path d="M171.793 580.984C171.793 580.984 140.761 575.737 144.278 556.165C147.795 536.594 146.173 522.773 166.137 525.297C186.1 527.822 188.597 535.998 188.988 542.813C189.38 549.627 179.961 581.821 171.793 580.984Z" fill="#FCBDB6"/>
<path d="M240.035 748.256L317.269 748.249L338.255 680L341 680.855L318.809 753H240L240.035 748.256Z" fill="#1C4670"/>
<path d="M219 750.08C219 750.08 244.361 756.641 253.904 755.949C263.446 755.257 271.355 750.826 272.521 748.505C273.687 746.183 276.228 742.081 269.729 742.841C263.23 743.602 254.413 744.951 254.141 743.732C253.869 742.513 259.418 742.622 259.418 742.622C259.418 742.622 261.094 740.232 258.985 740.143C256.877 740.054 250.706 738.417 248.417 739.541C246.127 740.664 244.012 744.807 242.336 744.636C240.661 744.464 221.115 736 221.115 736L219 750.08Z" fill="#FCBDB6"/>
<path d="M129 615.807C129 615.807 132.001 718.157 154.443 729.793C165.517 735.53 215.531 751.303 230.506 754C230.506 754 234.546 751.4 235 739.045C235 739.045 183.612 713.405 177.192 701.846C167.632 684.648 191.435 637.512 178.881 620.964C166.327 604.416 143.138 595.317 129 615.807Z" fill="#FFA229"/>
<path d="M144.556 565C144.556 565 144.203 558.234 148.326 554.358C148.326 554.358 146.912 547.578 149.543 546.455C152.174 545.333 152.754 551.04 153.964 550.146C155.173 549.252 160.598 545.004 162.925 538.746C165.252 532.488 186.5 540.062 188.976 541.192C191.451 542.322 199.416 538.181 201 534.827C201 534.827 196.572 531.251 194.585 528.569C192.597 525.887 178.663 507.772 159.219 512.914C139.775 518.056 137.108 527.453 138.212 535.499C139.315 543.545 136.557 562.297 144.556 565Z" fill="#501506"/>
<path d="M180.1 811.117C150.83 811.119 121.864 805.125 94.9463 793.495L77.4779 785.951C73.8215 784.373 69.8353 783.737 65.8761 784.099C61.917 784.461 58.1084 785.811 54.7914 788.027C51.4744 790.244 48.7524 793.258 46.8691 796.799C44.9859 800.341 44 804.3 44 808.321V842.039C44.0056 843.619 44.6292 845.133 45.7347 846.25C46.8401 847.367 48.3376 847.996 49.9 848H180.1C181.662 847.996 183.16 847.367 184.265 846.25C185.371 845.133 185.994 843.619 186 842.039V817.071C185.993 815.492 185.368 813.98 184.263 812.864C183.158 811.749 181.661 811.121 180.1 811.117Z" fill="#8BC0CC"/>
<path d="M689.956 837.148C662.556 841.866 635.996 842.893 615.744 841.304C595.31 839.693 583.376 833.365 582.108 826.143C580.993 819.603 588.555 812.079 603.992 804.457C589.199 811.784 582.031 820.032 583.047 825.981C584.175 832.584 596.102 837.232 615.758 838.814C635.905 840.396 662.058 838.681 689.381 833.976C716.704 829.272 741.939 822.142 760.404 813.9C778.42 805.863 788.105 797.467 786.977 790.864C785.778 783.832 772.919 777.138 753.41 773.284C731.224 768.911 705.057 770.38 679.269 774.824C630.86 783.157 611.897 792.263 595.829 802.347C611.946 792.214 630.271 780.738 678.848 772.37C704.742 767.912 731.273 767.877 753.557 772.265C773.48 776.189 786.647 783.249 787.895 790.688C789.128 797.91 779.486 806.489 760.768 814.843C742.282 823.14 717.349 832.443 689.956 837.148Z" fill="#1C4670"/>
<path d="M1009 746.278C1009 746.278 1007.28 762.225 1005.4 765.262C1003.52 768.299 995.512 777.94 992.101 779.832C988.689 781.723 994.188 767.118 993.492 764.269C992.796 761.42 990.686 769.459 989.18 769.647C987.675 769.836 988.061 762.609 988.008 759.978C987.955 757.347 995.323 750.852 997.925 745.249C1000.53 739.646 1009 746.278 1009 746.278Z" fill="#FCBDB6"/>
<path d="M819 604.557L815.429 597.649C815.429 597.649 817.204 585.367 802.18 577.571C802.18 577.571 796.686 575.28 793.587 579.876C790.77 584.102 799.032 583.344 798.581 590.576C798.13 597.808 801.49 602.064 806.153 604.419L810.005 609L819 604.557Z" fill="#FCBDB6"/>
<path d="M959 589.261C959 589.261 946.212 651.327 875.856 671.603C853.896 677.934 804 606.417 804 606.417C804 606.417 805.752 599.824 816.739 601.343C816.739 601.343 865.323 633.149 871.438 636.608C876.869 639.673 912.559 597.194 928.831 590.352C945.102 583.51 959 589.261 959 589.261Z" fill="#FFA229" fill-opacity="0.56"/>
<path d="M771.578 576.186L769.574 589.234L835.2 599.312L837.204 586.263L771.578 576.186Z" fill="#FF4B42"/>
<path d="M755 580.843L769.027 589L771 577L755 580.843Z" fill="#1C3A3E"/>
<path d="M843.95 592.268L843.314 596.219C843.222 596.798 843.012 597.353 842.696 597.853C842.381 598.354 841.966 598.79 841.475 599.136C840.984 599.482 840.427 599.732 839.835 599.872C839.244 600.011 838.629 600.037 838.028 599.948L835 599.505L837 587L840.293 587.484C841.438 587.653 842.466 588.252 843.152 589.149C843.838 590.046 844.125 591.168 843.95 592.268Z" fill="#1C3A3E"/>
<path d="M1044.73 984.732C1044.73 984.732 1053.49 992.619 1051.78 998.224C1050.07 1003.83 1042.17 1007.56 1041.1 1014.41C1040.02 1021.26 1035.76 1025 1031.91 1025H1013.57C1013.57 1025 1010.77 1020.16 1017.58 1018.72C1024.39 1017.29 1026.99 1009.23 1026.57 1001.75C1026.14 994.271 1027.21 984.318 1027.21 984.318L1041.74 981L1044.73 984.732Z" fill="#FF4B42"/>
<path d="M935.685 1005C935.685 1005 937.237 1023.13 933.451 1025L885 1024.9C885 1024.9 885 1019.25 892.786 1017.99C900.571 1016.72 914.232 1012.12 916.549 1001.87C918.866 991.61 935.685 1005 935.685 1005Z" fill="#FF4B42"/>
<path d="M894 747.455C894 747.455 896.645 779.592 899.762 818.224C903.994 870.702 909.056 935.167 909.585 947.381C910.457 968.561 913.946 1002.51 913.946 1002.51C913.946 1002.51 922.232 1010.56 938.803 1007.16C938.803 1007.16 953.573 958.74 957.791 907.513C957.855 906.672 957.92 905.825 957.991 904.978C961.916 852.826 968 743 968 743L894 747.455Z" fill="#24555E"/>
<path d="M894 747.441C894 747.441 896.645 779.478 899.762 817.99L957.791 907C957.855 906.162 957.92 905.318 957.991 904.473C961.916 852.483 968 743 968 743L894 747.441Z" fill="#1C3A3E"/>
<path d="M907 751.847C907 751.847 953.733 867.809 984.463 922.298C1015.19 976.786 1024.79 992 1024.79 992C1024.79 992 1042.4 985.03 1044 980.282C1044 980.282 1032.25 875.075 1011.67 849.459C1000.04 834.97 986.38 791.481 985.778 776.31C985.177 761.139 981.58 731 981.58 731L907 751.847Z" fill="#24555E"/>
<path d="M969 574.185C969 574.185 937.288 589.386 919 583.745C922.48 579.735 926.677 576.399 931.379 573.906C930.747 570.259 930.256 567.093 929.976 564.415C929.538 561.196 929.28 557.956 929.204 554.709L941.442 545.149L953.042 536C952.123 561.731 969 574.185 969 574.185Z" fill="#FCBDB6"/>
<path d="M984.999 737.025C985.069 738.967 980.917 741.191 979.084 742.022C965.496 747.996 952.829 752.162 938.469 753.548C921.502 755.286 901.437 751.437 894.538 751.606C893.833 751.592 893.158 751.319 892.641 750.839C892.142 750.494 891.791 730.009 892.142 704.254C892.142 703.212 892.142 702.143 892.212 701.129V700.785C892.36 690.715 892.711 680.159 893.203 669.611C894.186 646.389 896.013 624.06 899.111 611.703C902.849 597.123 911.294 587.468 918.966 580.459L925.289 574.907C931.939 576.346 938.879 575.513 945.003 572.542C952.323 569.024 960.206 565.182 961.47 566.153C971.046 573.19 977.524 588.931 980.973 609.078C983.027 621.7 983.993 634.474 983.861 647.261C983.861 652.265 983.72 657.402 983.439 662.468C981.746 689.962 983.439 713.838 984.423 727.666C984.739 731.677 984.95 734.802 984.999 737.025Z" fill="#FFA229"/>
<path d="M985 736C874.531 735.785 964.624 616.783 964.624 616.783L982.522 611C984.007 624.371 984.706 637.817 984.616 651.269C984.616 656.538 984.518 661.954 984.316 667.293C983.08 696.28 984.295 721.462 985 736Z" fill="#FFA229" fill-opacity="0.56"/>
<path d="M953 545.681C953 545.681 945.002 559.991 929.77 564C929.334 560.826 929.077 557.63 929 554.428L941.214 545L953 545.681Z" fill="#F9A6A0"/>
<path d="M922.88 553.422C922.88 553.422 953.073 558.249 955.91 540.01C958.746 521.771 964.552 510.055 945.404 506.18C926.255 502.305 921.409 508.724 918.936 514.599C916.464 520.474 915.098 551.684 922.88 553.422Z" fill="#FCBDB6"/>
<path d="M967.65 504.334C967.928 504.015 968.569 503.76 970 503.682C969.181 503.234 968.264 502.991 967.33 502.973C967.031 500.99 965.97 497.49 962.545 496.64C963.103 496.962 963.581 497.407 963.943 497.939C964.304 498.472 964.539 499.079 964.631 499.715C960.665 495.663 952.17 492.716 928.644 494.565C897.633 497.001 907.851 516.752 911.867 519.104C915.883 521.456 925.988 515.002 933.464 515.562C940.941 516.122 942.365 526.897 944.9 528.384C947.435 529.872 946.445 527.251 949.884 525.706C953.323 524.162 953.644 529.822 952.647 533.499C951.65 537.176 956.371 542 956.371 542L961.142 536.892C965.906 531.785 970.399 510.15 968.263 505.545L967.65 504.334Z" fill="#501506"/>
<path d="M961.5 566C961.5 566 980.686 575.085 989.886 589.06C1004.16 610.734 1020.69 689.732 1020.99 697.044C1021.3 704.355 1008.95 756 1008.95 756C1008.95 756 996.392 755.177 993.157 748.836C993.157 748.836 995.668 695.777 994.078 692.364C992.489 688.951 941.743 621.184 947.447 606.723C953.151 592.262 961.5 566 961.5 566Z" fill="#FFA229"/>
<path d="M814.806 597.32C814.806 597.32 815.897 593.51 812.905 591.8C809.914 590.09 807.158 585.428 805.891 586.058C803.275 587.359 807.327 591.429 806.583 596.501C806.325 598.276 811.004 602.925 814.806 597.32Z" fill="#FCBDB6"/>
<path d="M0.964696 1028H1079.04C1079.57 1028 1080 1027.32 1080 1026.5C1080 1025.68 1079.57 1025 1079.04 1025H0.964696C0.434123 1025 0 1025.68 0 1026.5C0 1027.32 0.434123 1028 0.964696 1028Z" fill="#1C3A3E"/>
</svg>
