<svg width="1080" height="972" viewBox="0 0 1080 972" fill="none" xmlns="http://www.w3.org/2000/svg">
<g clip-path="url(#clip0_277_3903)">
<rect width="1080" height="972" fill="white"/>
<g opacity="0.5">
<path d="M499.028 757.871C467.826 757.96 436.623 758.712 405.476 762.177C393.721 763.483 382.232 766.361 370.455 767.512C346.945 769.825 323.845 774.153 300.247 776.145C281.253 777.75 262.171 778.691 243.221 780.728C224.879 782.699 206.353 782.132 188.166 779.045C175.116 776.71 162 775.393 149.171 771.651C134.782 767.456 119.286 764.457 104.277 764.568C82.9476 764.711 62.2161 764.734 41.7723 772.138C34.6109 774.74 25.8446 779.012 20.3988 784.469C7.90236 796.954 6.21993 828.113 18.65 841.063C39.5918 862.857 84.298 871.413 113.652 871.822C145.817 872.254 177.064 869.874 209.285 868.502C239.17 867.196 269.055 865.336 299.062 865.403C360.305 865.535 421.559 865.403 482.68 861.318C540.115 857.466 597.694 858.795 655.25 858.795C714.279 858.795 772.899 859.248 831.507 867.096C857.031 870.516 883.043 871.712 908.711 874.103C931.689 876.25 953.771 874.103 976.661 872.088C995.997 870.478 1014.89 865.414 1032.44 857.134C1046.26 850.493 1070.9 830.016 1075.14 814.243C1087.03 770.046 907.67 771.076 880.132 771.209C849.328 771.319 818.28 772.316 787.498 771.209C774.548 770.722 761.786 768.187 749.157 765.409C736.527 762.631 723.887 763.35 711.114 762.188C657.885 757.351 604.534 758.059 551.139 758.059C533.761 757.971 516.373 757.816 499.028 757.871Z" fill="#EED5D5"/>
</g>
<path d="M288.59 252.04C288.889 281.029 238.183 358.022 238.183 358.022C238.183 358.022 185.951 282.058 185.663 253.069C185.375 224.081 208.176 200.361 236.579 200.073C264.981 199.785 288.302 223.062 288.59 252.04Z" fill="#1C4670"/>
<path d="M237.334 274.929C250.697 274.796 261.419 263.643 261.283 250.017C261.148 236.392 250.206 225.454 236.843 225.587C223.481 225.72 212.758 236.874 212.894 250.499C213.029 264.124 223.972 275.062 237.334 274.929Z" fill="white"/>
<path d="M194.529 257.595C194.274 232.414 214.087 211.804 238.803 211.55C245.687 211.494 252.489 213.041 258.671 216.069C264.854 219.096 270.246 223.521 274.422 228.994C270.499 222.122 264.816 216.419 257.959 212.471C251.102 208.522 243.318 206.47 235.405 206.525C210.711 206.779 190.898 227.389 191.131 252.57C191.208 262.588 194.559 272.305 200.672 280.242C196.704 273.349 194.588 265.548 194.529 257.595Z" fill="white"/>
<path d="M225.844 338.071C232.972 349.981 238.185 357.995 238.185 357.995C238.185 357.995 288.891 281.001 288.592 252.013C288.592 250.496 288.492 248.991 288.348 247.508C286.376 255.57 283.633 263.425 280.157 270.962C270.616 291.749 256.349 305.153 241.13 322.088C236.281 327.545 231.168 332.946 225.844 338.071Z" fill="#1C4670"/>
<path d="M649.561 246.758C649.875 247.002 650.155 247.289 650.391 247.61C652.394 250.632 651.619 253.399 652.704 256.83C653.191 258.369 657.131 259.465 655.039 262.055C654.254 263.007 651.985 265.077 650.291 267.102C647.812 270.046 646.45 275.282 646.129 279.643C644.901 296.766 648.343 313.745 652.306 330.437C652.457 331.405 652.837 332.323 653.412 333.115C654.519 334.444 656.534 334.554 658.283 334.61C666.402 334.873 674.479 335.885 682.412 337.631C689.485 339.192 696.602 341.428 702.336 345.889C708.069 350.349 712.154 357.411 711.445 364.617C711.153 367.324 710.223 369.923 708.732 372.201C707.241 374.479 705.231 376.371 702.867 377.722C691.134 384.286 675.638 372.188 665.378 366.941C655.661 361.971 646.307 356.324 637.385 350.039C636.141 349.383 635.101 348.396 634.381 347.187C633.66 345.979 633.286 344.595 633.301 343.188C630.921 324.858 630.168 306.418 629.781 287.845C629.681 282.753 632.271 278.248 632.127 273.533C632.039 270.522 629.803 268.231 629.095 265.409C628.373 262.305 628.189 259.1 628.552 255.934C629.283 250.311 634.419 247.489 638.647 244.589C639.495 243.876 640.52 243.405 641.613 243.227C643.55 243.006 645.177 243.98 646.816 244.876C647.788 245.415 648.707 246.045 649.561 246.758Z" fill="#E2B596"/>
<path d="M670.423 365.98C672.186 355.251 673.95 344.518 675.713 333.781C675.603 334.468 724.913 338.817 727.836 339.172C739.004 340.544 750.57 342.05 760.145 347.96C780.589 360.589 775.475 391.803 750.847 395.223C724.128 398.942 693.733 392.766 670.257 379.605C669.72 379.357 669.255 378.976 668.906 378.498C668.584 377.758 668.526 376.93 668.74 376.152C669.305 372.765 669.858 369.367 670.423 365.98Z" fill="#292949"/>
<path d="M679.635 793.5C676.314 793.124 673.326 791.94 670.16 791.165C673.171 759.143 681.063 726.281 687.04 694.547L711.391 699.45C703.198 715.693 696.561 732.674 691.567 750.167C690.737 752.934 680.1 793.545 679.635 793.5Z" fill="#E2B596"/>
<path d="M670.07 784.859C668.111 784.206 666.749 784.925 665.266 785.966C664.488 786.702 663.622 787.337 662.687 787.859C661.69 788.173 660.637 788.271 659.599 788.146C653.622 787.87 640.096 785.634 645.874 796.547C651.131 806.509 669.118 805.458 679.511 804.506C680.2 804.531 680.881 804.354 681.47 803.997C682.048 803.495 682.497 802.861 682.777 802.148C684.548 798.108 686.894 793.083 681.98 790.559C679.877 789.452 677.63 790.648 675.416 789.452C673.59 788.556 672.04 785.512 670.07 784.859Z" fill="#292949"/>
<path d="M669.918 718.707L720.003 725.071C742.882 662.943 777.771 612.282 783.925 537.026C784.345 531.913 786.991 527.065 786.26 521.94C784.877 512.332 775.789 505.636 766.602 502.481C752.335 497.589 724.807 497.445 715.045 511.602C704.729 526.556 701.84 555.555 697.335 573.088C684.919 620.953 675.76 669.604 669.918 718.707Z" fill="#1C4670"/>
<path d="M815.467 797.745C812.235 798.42 808.992 798.232 805.749 798.497C798.588 767.14 795.787 733.458 791.57 701.436L816.176 698.492C813.477 716.485 812.488 734.693 813.221 752.872C813.375 755.75 815.932 797.645 815.467 797.745Z" fill="#E2B596"/>
<path d="M803.688 792.531C801.618 792.531 800.589 793.638 799.471 795.077C798.959 796.02 798.334 796.897 797.611 797.689C796.76 798.296 795.791 798.718 794.767 798.929C789.011 800.534 775.452 802.648 784.362 811.193C792.442 818.941 809.189 812.399 818.797 808.238C819.461 808.044 820.054 807.659 820.501 807.131C820.897 806.457 821.125 805.698 821.165 804.917C821.586 800.49 822.272 795.022 816.738 794.169C814.413 793.804 812.642 795.608 810.174 795.21C808.193 794.933 805.758 792.542 803.688 792.531Z" fill="#292949"/>
<path d="M776.663 723.699L826.229 714.08C828.516 647.912 829.151 581.711 828.132 515.476C828.055 510.34 827.922 505.016 825.642 500.423C821.325 491.723 810.589 488.247 800.881 488.081C785.795 487.893 759.607 496.372 754.758 512.864C749.634 530.297 755.954 558.743 757.127 576.818C760.316 626.163 766.843 675.236 776.663 723.699Z" fill="#1C4670"/>
<path d="M798.088 363.551C811.439 376.52 821.597 392.411 827.763 409.973C838.544 440.223 838.743 472.521 838.832 504.178L838.932 535.779C838.932 546.139 838.046 548.375 826.756 547.013C805.881 544.478 784.186 540.173 765.27 530.897C756.271 526.47 747.859 520.936 738.417 517.427C724.692 512.379 710.624 514.671 697.043 511.372C700.485 500.968 705.632 491.449 708.034 480.535C710.28 469.561 711.712 458.437 712.318 447.252C713.635 427.738 716.059 408.346 717.531 388.909C718.571 374.985 716.745 363.573 731.555 354.441C739.613 349.472 754.279 340.96 765.657 343.262C777.789 345.708 790.551 356.378 798.088 363.551Z" fill="#292949"/>
<path d="M749.421 319.183C751.967 324.717 756.129 329.388 759.527 334.48C762.925 339.571 764.032 343.921 764.906 349.666C765.537 353.817 767.02 357.06 772.023 357.779C781.454 359.118 778.753 351.326 780.878 345.659C783.335 339.184 788.549 334.059 792.201 328.281C802.739 311.568 799.728 278.55 777.812 271.499C753.882 263.796 741.695 302.281 749.421 319.183Z" fill="#E2B596"/>
<path d="M787.608 303.013C790.331 303.124 793.319 303.345 795.356 305.227C797.393 307.108 797.16 311.038 794.493 311.458C792.08 311.857 788.958 309.333 787.486 311.171C786.623 312.277 787.376 313.816 788.029 315.078C790.521 319.838 791.262 325.323 790.121 330.574C791.117 331.493 792.666 330.574 793.541 329.578C797.876 324.832 801.258 319.297 803.503 313.274C804.395 314.746 805.653 315.963 807.155 316.805C806.248 314.591 806.823 312.078 807.377 309.787C809.424 301.331 810.819 291.435 804.919 284.528C801.754 280.831 796.95 278.706 792.124 277.81C787.287 277.1 782.385 276.948 777.513 277.356C775.421 277.444 772.865 277.898 772.355 279.824C776.927 281.651 781.653 285.226 783.933 289.542C784.597 290.871 787.331 303.002 787.608 303.013Z" fill="#15273D"/>
<path d="M777.954 282.716L778.452 283.081C780.521 284.653 782.458 286.568 784.96 287.265C788.579 288.272 792.453 286.535 796.029 287.763C800.002 289.136 802.67 293.895 805.514 296.707C812.82 303.662 822.362 307.793 832.433 308.362C834.114 308.611 835.822 308.611 837.503 308.362C839.506 307.82 839.44 306.912 837.303 306.237C830.662 304.089 828.515 294.692 829.024 288.527C829.423 283.601 831.116 278.466 829.246 273.905C827.818 270.419 824.741 268.626 821.763 266.633C818.443 264.42 814.934 265.028 811.204 263.966C807.474 262.903 804.164 259.804 800.201 259.029C796.017 258.199 791.834 260.058 787.65 260.866C784.18 261.54 780.61 261.499 777.157 260.745C774.068 260.058 771.058 258.819 767.903 258.841C763.254 258.841 758.971 261.796 756.248 265.571C752.407 270.917 749.928 280.071 751.278 287.11C751.068 286.003 754.743 282.063 755.506 281.211C757.1 279.417 759.026 277.724 761.461 277.436C766.985 276.75 773.526 279.495 777.954 282.716Z" fill="#292949"/>
<path d="M265.819 787.72C266.211 786.437 266.95 785.288 267.955 784.4C268.486 783.957 269.062 783.603 269.615 783.138C272.073 780.924 271.829 778.777 275.382 779.319C279.411 779.939 283.429 780.758 287.458 781.478C287.619 781.488 287.773 781.546 287.901 781.644C288.057 781.83 288.143 782.065 288.144 782.308C288.288 783.702 288.421 785.108 288.565 786.503C288.952 790.288 292.317 791.451 295.062 792.989L297.276 794.196C300.386 795.922 309.861 799.785 305.024 804.633C303.043 806.637 299.678 806.57 297.088 806.792C294.57 806.817 292.058 806.542 289.605 805.973C281.828 804.457 274.331 801.751 267.38 797.948C264.834 796.531 265.066 792.657 265.343 789.912C265.423 789.167 265.583 788.432 265.819 787.72Z" fill="#292949"/>
<path d="M281.318 542.367L272.718 573.791L280.123 663.901L267.582 783.397L291.169 785.81L323.766 671.837L350.076 546.994L281.318 542.367Z" fill="#9EA6AD"/>
<path d="M375.37 799.152C375.435 797.806 375.876 796.507 376.642 795.399C377.052 794.835 377.561 794.348 377.948 793.761C379.808 791.027 379.055 789.002 382.631 788.681C386.693 788.315 390.788 788.138 394.861 787.862C395.017 787.817 395.182 787.817 395.337 787.862C395.536 788.003 395.678 788.211 395.736 788.448C396.212 789.765 396.677 791.094 397.153 792.422C398.448 795.997 401.99 796.318 405.022 797.148L407.435 797.801C410.878 798.72 420.994 800.192 417.519 806.047C416.08 808.471 412.792 809.224 410.324 810.054C407.891 810.689 405.39 811.027 402.875 811.061C394.961 811.481 387.031 810.67 379.365 808.659C376.554 807.907 375.845 804.088 375.458 801.365C375.352 800.632 375.322 799.89 375.37 799.152Z" fill="#292949"/>
<path d="M331.361 557.28L320.016 580.093L359.453 675.537L376.045 794.547L399.522 791.204L403.728 672.737L399.212 545.227L331.361 557.28Z" fill="#9EA6AD"/>
<path d="M254.17 542.598C255.099 536.787 256.062 531.961 256.383 530.223C260.047 506.647 270.606 484.111 277.414 461.343C285.531 434.269 294.946 407.642 305.661 381.461C309.634 371.776 314.682 361.25 324.4 357.353C335.579 352.926 346.349 343.794 357.506 350.347C359.786 351.686 362.576 352.328 364.955 353.513C379.134 360.608 386.273 372.152 389.395 387.659C391.904 400.137 394.42 412.612 396.944 425.082C399.013 435.332 401.072 445.581 402.677 455.908C406.883 482.96 407.913 510.399 407.747 537.761C407.669 551.486 407.282 565.2 406.85 578.903C406.573 587.669 402.633 583.463 397.774 580.165C389.395 574.464 381.115 568.52 371.275 565.598C366.465 564.277 361.545 563.388 356.576 562.942C326.448 559.544 295.699 560.175 266.135 566.904C264.357 567.216 262.646 567.83 261.076 568.72C259.051 570.015 256.129 573.147 253.716 571.033C252.21 569.683 252.31 565.775 252.232 564.004C251.867 556.876 253.029 549.648 254.17 542.598Z" fill="#353A85"/>
<path d="M374.219 296.18C376.385 301.517 377.276 307.285 376.82 313.027C376.72 314.543 376.632 316.347 377.739 317.332C378.845 318.317 377.573 320.409 378.69 319.236C379.808 318.063 383.616 313.978 383.948 312.374C384.704 308.619 385.108 304.802 385.155 300.973C385.155 297.652 384.911 294.132 383.063 291.398C381.881 289.834 380.462 288.463 378.856 287.336C376.724 285.475 374.271 284.017 371.618 283.031C366.98 281.614 363.87 283.031 367.71 286.838C370.462 289.503 372.672 292.676 374.219 296.18Z" fill="#292949"/>
<path d="M337.78 357.585L357.15 361.592C358.758 355.951 359.964 350.203 360.759 344.391C366.548 344.026 373.432 342.886 376.022 337.052C376.751 335.152 377.188 333.151 377.317 331.12C378.284 322.744 379.251 314.369 380.217 305.994C380.727 303.12 380.727 300.179 380.217 297.305C379.011 292.402 374.96 289.103 370.886 286.867C360.482 281.156 347.764 279.938 337.016 285.262C334.02 286.618 331.438 288.746 329.534 291.428C326.656 295.766 326.346 301.489 326.136 306.846L325.549 321.634C325.339 327.323 325.461 333.898 329.457 337.351C331.571 339.189 334.493 339.797 336.242 342.066C339.33 346.084 337.05 352.338 337.78 357.585Z" fill="#E2B596"/>
<path d="M379.671 327.995C379.749 326.423 379.572 321.797 376.971 324.409C376.324 325.177 375.936 326.13 375.864 327.132C375.793 328.13 375.585 329.113 375.244 330.054C374.303 332.135 371.857 332.854 369.776 332.589C368.933 332.505 368.124 332.216 367.418 331.747C366.772 331.202 366.219 330.555 365.78 329.833L362.26 324.697C360.246 321.753 355.553 322.417 352.409 322.483C348.706 322.432 345.063 323.422 341.894 325.339L340.942 325.992C340.206 326.559 339.398 327.028 338.54 327.386C335.629 328.493 332.364 326.645 330.704 323.878C329.94 322.605 329.276 321 327.914 320.657C327.357 320.572 326.787 320.657 326.278 320.9C325.769 321.142 325.344 321.532 325.059 322.018C324.464 323.036 324.087 324.167 323.952 325.339C323.124 329.628 323.399 334.057 324.749 338.212C327.848 346.978 335.474 348.848 343.278 349.524L352.52 350.31C358.154 350.785 364.12 351.206 369.211 348.406C373.705 345.926 376.716 341.222 378.299 336.108C379.094 333.472 379.555 330.746 379.671 327.995ZM357.844 337.536C356.356 338.306 354.709 338.715 353.034 338.73C351.359 338.746 349.705 338.367 348.203 337.625C346.853 337.038 347.705 334.714 349.056 335.289C350.272 335.919 351.621 336.248 352.99 336.248C354.36 336.248 355.709 335.919 356.925 335.289C358.265 334.559 359.161 336.828 357.844 337.536Z" fill="#292949"/>
<path d="M385.749 282.697C386.516 280.725 387.141 278.702 387.62 276.642C385.634 277.108 383.562 277.062 381.598 276.509C381.731 275.303 381.853 274.096 381.975 272.89C382.074 271.883 368.825 269.724 367.741 269.514C357.69 267.555 348.503 265.728 338.73 270.267C330.384 274.129 324.606 280.649 322.403 289.703C320.311 298.359 321.894 310.147 326.1 317.983C326.333 315.637 325.602 309.981 326.388 307.811C326.976 305.628 327.927 303.559 329.2 301.69C331.754 297.977 335.228 294.991 339.283 293.024C345.711 290.049 352.7 288.483 359.782 288.43C366.202 288.22 374.005 288.242 380.071 290.644C382.982 291.751 383.392 292.614 385.605 289.725C385.982 289.216 389.214 283.15 388.926 283.084L385.749 282.697Z" fill="#292949"/>
<path d="M1002.51 788.923C1005.83 789.332 1008.89 788.336 1012.13 788.159C1012.63 776.921 1011.98 765.661 1010.19 754.555C1004.89 759.812 1000.87 756.348 1000.45 766.73C1000.32 770.139 1003.45 783.831 1002.51 788.923Z" fill="#E2B596"/>
<path d="M1013.17 782.562C1017.01 781.456 1017.35 790.477 1017.26 792.591C1017.11 793.851 1017.11 795.126 1017.26 796.387C1017.64 797.743 1018.29 799.005 1019.18 800.095L1024.25 807.279C1025.07 808.314 1025.72 809.477 1026.16 810.721C1026.52 812.322 1026.3 813.996 1025.55 815.455C1024.81 816.914 1023.57 818.066 1022.07 818.713C1011.68 823.24 1003.15 810.367 1001.42 802.11C1001.16 800.848 1000.98 799.553 1000.81 798.269C1000.46 795.612 998.788 789.768 999.973 787.2C1001.37 784.267 1004.93 786.647 1007.41 785.662C1009.69 784.754 1011.62 783.027 1013.17 782.562Z" fill="#292949"/>
<path d="M951.558 598.709C959.527 624.886 968.98 650.576 973.695 677.772C979.473 711.376 989.988 744.405 994.448 777.998C998.537 778.361 1002.65 778.421 1006.75 778.175C1011.44 777.887 1018.92 777.068 1020.88 772.054C1021.89 769.497 1021.21 765.214 1021.23 762.502C1021.31 753.813 1021.23 745.124 1021.04 736.447C1020.61 711.885 1020.78 687.047 1017.65 662.674C1014.33 637.039 1011.25 611.316 1008.53 585.714C1007.11 572.487 1005.21 559.304 1002.66 546.243C1002.01 542.867 995.201 508.167 993.463 508.344C973.081 510.334 953.266 516.203 935.087 525.634C933.305 526.563 931.568 527.681 930.87 529.474C930.173 531.268 930.616 532.861 931.081 534.544C935.508 550.615 941.74 565.802 946.499 581.829C948.126 587.408 949.82 592.986 951.558 598.709Z" fill="#292949"/>
<path d="M935.852 779.312C932.686 780.33 929.465 779.943 926.256 780.419C923.647 769.475 922.163 758.293 921.828 747.047C928.027 751.209 931.325 747.047 933.694 757.219C934.469 760.451 934.026 774.497 935.852 779.312Z" fill="#E2B596"/>
<path d="M923.199 776.923C922.845 783.066 917.665 789.409 914.643 794.777C914.087 795.507 913.815 796.414 913.876 797.33C913.937 798.245 914.327 799.108 914.975 799.758C915.663 801.093 916.72 802.203 918.019 802.957C919.41 803.45 920.916 803.519 922.347 803.156C924.767 802.765 927.166 802.267 929.542 801.662C930.143 801.543 930.717 801.315 931.235 800.987C931.793 800.518 932.245 799.937 932.563 799.282C934.401 796.05 935.939 793.748 936.061 790.073C936.183 786.398 935.917 782.247 936.836 778.506C937.29 776.68 937.876 774.355 936.36 773.26C935.187 772.418 932.895 773.359 931.556 773.503C929.199 773.758 927.051 773.503 924.826 774.61C924.363 774.821 923.954 775.135 923.631 775.529C923.359 775.944 923.209 776.427 923.199 776.923Z" fill="#292949"/>
<path d="M950.154 582.922C947.254 610.128 942.793 637.158 943.303 664.73C943.933 698.81 939.816 733.234 941.742 767.07C937.794 768.19 933.769 769.019 929.699 769.55C925.039 770.147 917.524 770.723 914.668 766.229C913.196 763.916 913.052 759.588 912.521 756.92C910.816 748.398 909.311 739.842 907.828 731.286C903.622 707.078 898.796 682.727 897.301 658.233C895.719 632.421 893.981 606.587 891.767 580.929C890.66 567.647 890.074 554.365 890.107 541.082C890.107 537.651 890.295 502.287 892.033 502.132C912.425 500.263 932.986 502.307 952.611 508.153C954.537 508.729 956.452 509.504 957.481 511.131C958.511 512.758 958.356 514.451 958.223 516.156C956.906 532.759 953.63 548.853 951.958 565.489C951.405 571.167 950.796 576.967 950.154 582.922Z" fill="#292949"/>
<path d="M974.014 364.617L974.988 365.027C980.356 367.418 984.806 371.425 989.167 375.376C995.708 381.298 998.94 383.91 1001.12 392.267C1003.01 400.147 1004.41 408.135 1005.32 416.186C1010.85 457.074 1010.01 497.452 1013.27 538.528C1014.16 549.718 1014.6 562.823 1005.96 569.985C992.045 557.809 973.781 556.138 956.149 555.119C943.752 554.411 931.798 549.707 919.346 550.382C907.392 551.035 897.209 547.482 885.033 547.582C882.122 547.582 878.392 547.371 877.418 544.626C882.299 532.351 882.952 518.903 884.679 505.798C889.106 471.928 902.156 439.917 908.62 406.39C910.834 395.001 912.716 375.985 922.102 367.794C932.307 358.939 954.356 359.947 966.675 362.503C969.181 362.984 971.637 363.692 974.014 364.617Z" fill="#FFA229"/>
<path d="M963.235 370.031C963.002 370.42 962.711 370.771 962.371 371.072C960.863 372.318 959 373.057 957.047 373.186C954.513 373.279 951.982 372.954 949.554 372.223C946.233 371.404 946.466 369.444 946.156 366.378C945.99 364.696 945.912 363.058 945.879 361.331C945.879 360.401 946.41 357.136 945.879 356.45C945.514 355.996 943.887 356.051 943.189 355.642C942.1 354.916 941.213 353.926 940.61 352.764C939.697 350.963 939.034 349.045 938.64 347.064L936.15 336.825C935.18 333.369 934.565 329.824 934.312 326.244C934.113 320.842 935.419 313.304 939.692 309.641C943.588 306.32 949.056 305.313 954.081 304.959C960.731 304.41 967.369 306.148 972.898 309.884C975.247 311.375 977.158 313.465 978.432 315.939C980.291 319.923 979.86 324.794 979.384 329.221L978.056 341.673C977.546 346.444 976.639 351.923 972.909 354.314C970.927 355.587 968.481 355.742 966.688 357.413C964.53 359.516 964.474 362.836 964.231 365.648C964.224 367.164 963.884 368.661 963.235 370.031Z" fill="#AA6755"/>
<path d="M934.674 333.934C934.807 334.886 934.929 335.86 934.995 336.856C935.571 345.412 934.243 353.625 935.958 362.203C927.981 358.217 921.114 352.319 915.968 345.036C914.97 343.758 914.202 342.316 913.699 340.775C913.323 339.199 913.174 337.578 913.257 335.96C913.379 325.564 914.633 315.213 916.998 305.089C917.796 301.098 919.14 297.235 920.993 293.611C926.816 283.107 938.504 279.598 949.03 279.488C955.118 279.421 961.505 280.329 966.43 284.435C971.743 288.863 973.182 296.533 972.927 303.086C972.981 304.696 972.643 306.295 971.942 307.746C970.26 310.635 966.408 311.188 963.087 311.354C958.399 311.404 953.723 311.844 949.108 312.671C944.525 313.668 940.032 315.704 936.932 319.224C932.593 324.172 933.9 328.71 934.674 333.934Z" fill="#292949"/>
<path d="M989.125 294.865C990.567 297.8 991.717 300.869 992.557 304.03C995.656 315.375 998.567 326.167 996.896 338.154C996.731 339.825 996.359 341.468 995.789 343.046C994.894 345.029 993.679 346.85 992.191 348.437C986.767 354.778 980.559 360.405 973.718 365.184C976.551 350.684 979.33 335.143 974.825 321.452C971.316 310.804 963.966 303.255 955.931 297.466C951.437 294.223 939.328 287.659 942.438 280.431C946.71 270.47 970.11 276.812 976.607 280.819C982.019 284.228 986.359 289.097 989.125 294.865Z" fill="#292949"/>
<path d="M237.302 346.672C236.977 346.727 236.661 346.824 236.361 346.96C233.749 348.354 233.217 350.645 231.092 352.693C230.14 353.612 226.842 352.837 227.373 355.538C227.561 356.534 228.38 358.914 228.823 361.072C229.454 364.16 228.391 368.466 226.908 371.731C224.966 376.226 222.691 380.57 220.101 384.726C214.397 393.423 207.901 401.574 200.698 409.077C194.374 403.658 186.692 400.067 178.479 398.69C170.266 397.313 161.833 398.202 154.088 401.262C152.438 401.822 150.951 402.78 149.76 404.052C148.877 405.23 148.292 406.605 148.055 408.058C144.901 423.245 159.423 425.58 171.056 427.982C178.352 429.5 185.752 430.473 193.193 430.893C203.553 431.446 210.372 425.657 216.437 417.611C222.901 409.077 229.299 400.222 233.826 390.481C236.04 385.744 237.147 380.918 238.707 375.982C240.268 371.045 242.327 372.052 244.762 368.112C246.123 365.898 247.916 363.939 248.846 361.526C250.517 357.187 247.927 353.147 246.013 349.35C245.681 348.509 245.126 347.774 244.408 347.225C243.062 346.472 241.509 346.173 239.98 346.373C239.08 346.386 238.183 346.486 237.302 346.672Z" fill="#E2B596"/>
<path d="M175.823 436.05C176.618 436.327 177.427 436.56 178.247 436.747C182.675 437.766 187.888 437.4 192.393 437.467C200.462 437.6 209.25 437.467 215.571 432.464C217.927 430.422 219.993 428.068 221.714 425.468C230.377 413.536 238.745 401.387 246.817 389.019C241.518 383.331 235.387 378.479 228.632 374.63C226.739 373.523 224.614 372.538 222.477 372.926C219.301 373.512 217.53 376.844 216.224 379.799C214.084 384.618 211.951 389.414 209.826 394.188C209.14 395.749 208.31 397.454 206.727 398.107C205.655 398.454 204.512 398.522 203.406 398.306C194.421 397.217 185.537 395.407 176.842 392.893C172.824 391.787 168.12 390.835 164.666 388.466C161.213 386.097 158.634 382.533 156.464 378.903C154.096 374.918 152.037 370.712 148.904 367.281C145.772 363.849 141.389 361.226 136.729 361.569C133.331 361.835 130.265 363.639 127.343 365.399C121.609 368.864 115.378 372.97 113.773 379.467C112.4 385.002 114.879 390.846 118.2 395.561C125.162 405.523 135.567 412.573 145.717 419.325C152.778 424.029 159.884 428.756 167.577 432.375C170.255 433.752 173.008 434.979 175.823 436.05Z" fill="#FFA229"/>
<path d="M65.3151 789.718L64.7617 799.115L82.9917 809.608L92.9424 800.764L84.0986 790.824L65.8575 780.32L65.3151 789.718Z" fill="#292949"/>
<path d="M52.4292 504.451L50.7578 532.975L81.5396 658.825L64.505 786.623L82.9121 791.449L135.233 638.116L136.484 591.871L124.442 496.703L52.4292 504.451Z" fill="#292949"/>
<path d="M170.465 519.804L183.548 639.19L176.121 795.501L158.799 797.194L133.939 656.069L96.3164 516.195L170.465 519.804Z" fill="#292949"/>
<path d="M158.703 795.134L159.622 804.498L179.269 812.025L187.714 801.742L177.431 793.297L158.703 795.134Z" fill="#292949"/>
<path d="M35.9382 519.583C34.7095 530.475 33.7244 545.207 37.853 546.148C38.6419 546.241 39.4398 546.082 40.1332 545.694C47.7484 542.374 53.4155 537.293 60.8758 534.117C68.7345 530.796 77.4787 529.446 86.0347 528.726C98.8552 527.525 111.752 527.37 124.598 528.261C134.68 529.182 144.71 530.608 154.649 532.534C162.928 533.984 170.455 537.16 179 537.349C187.812 537.559 196.545 535.642 204.458 531.759C204.76 531.65 205.017 531.444 205.188 531.172C205.31 530.84 205.31 530.475 205.188 530.143C203.86 525.107 202.975 520.181 200.163 515.831C196.964 510.994 194.928 505.039 192.792 499.671C188.174 488.435 184.393 476.874 181.479 465.082C177.152 449.087 171.971 433.414 167.843 417.376C164.987 406.307 162.475 394.984 158.191 384.303C154.87 375.946 148.628 363.604 140.182 359.288C137.235 358.006 134.083 357.256 130.874 357.074L101.863 353.576C98.3319 353.156 94.6682 352.746 91.3144 353.908C86.2893 355.646 83.0905 360.472 80.2458 364.977C67.6055 385.21 58.7063 407.458 52.7293 430.702C49.6079 442.878 46.6415 454.998 44.0736 467.229C41.2068 480.899 38.8492 494.679 37.3439 508.57C37.1668 510.098 36.5248 514.403 35.9382 519.583Z" fill="#FFA229"/>
<path d="M111.305 408.471C111.172 414.005 109.877 419.428 108.604 424.808C100.812 457.586 93.0232 490.345 85.2383 523.086L163.394 529.539C163.593 516.995 163.785 504.45 163.969 491.906C164.272 483.874 164.032 475.831 163.25 467.831C161.689 454.959 157.317 442.584 152.978 430.32C144.965 407.666 136.955 385.005 128.948 362.336C128.661 360.916 127.925 359.626 126.849 358.655C125.773 357.685 124.414 357.086 122.971 356.946C115.644 354.976 107.342 353.116 99.7271 353.526C97.2367 360.167 103.048 372.63 105.029 379.194C107.951 388.824 111.548 398.376 111.305 408.471Z" fill="white"/>
<path d="M120.479 361.547L104.352 359.333C104.46 355.01 104.908 350.702 105.691 346.449C105.603 346.958 97.3785 341.623 96.7034 340.516C94.7774 337.351 94.9766 332.326 94.39 328.706C93.1282 320.958 92.0656 312.347 96.6591 306.026C101.419 299.474 110.55 297.924 118.63 298.444C128.769 299.098 139.793 303.082 144.199 312.236C148.183 320.504 141.199 331.529 138.753 339.664C137.547 343.671 135.853 348.22 131.89 349.626C129.787 350.356 127.352 350.035 125.437 351.153C121.995 353.157 122.272 358.093 120.479 361.547Z" fill="#E2B596"/>
<path d="M161.434 298.736C162.541 293.201 163.648 287.667 164.755 282.133C165.311 280.107 165.424 277.985 165.087 275.912C164.268 272.514 161.113 270.156 157.848 268.95C154.582 267.743 151.052 267.378 147.731 266.316C144.178 265.209 140.802 263.261 137.083 263.084C130.021 262.751 124.033 268.795 116.96 269.271C107.187 269.935 98.7413 264.711 91.8788 275.525C90.628 277.506 90.1078 279.875 88.9677 281.933C87.4956 284.601 85.0826 286.582 83.1235 288.907C74.5121 299.112 75.464 315.892 83.854 325.975C87.9273 330.868 89.3883 335.085 95.4318 337.044C93.1295 331.045 98.9405 308.498 106.921 306.639C109.024 306.14 114.957 309.217 117.193 309.749C122.163 310.764 126.986 312.4 131.549 314.619C138.35 318.272 145.687 320.823 153.287 322.179C154.235 322.465 155.258 322.366 156.132 321.902C156.78 321.253 157.173 320.393 157.239 319.478C158.663 312.564 160.061 305.65 161.434 298.736Z" fill="#292949"/>
<path d="M230.216 458.284L78.5195 402.32L4.2817 603.551L155.978 659.515L230.216 458.284Z" fill="#1C4670"/>
<path opacity="0.26" d="M18.8125 599.097L21.0816 599.938L153.529 653.488L220.206 461.869L213.332 461.359L18.8125 599.097Z" fill="#000909"/>
<path d="M220.213 461.875L83.8125 411.555L15.1258 597.738L151.526 648.059L220.213 461.875Z" fill="white"/>
<path opacity="0.05" d="M83.3371 410.57L181.449 446.754L52.8984 492.611L83.3371 410.57Z" fill="#000004"/>
<path opacity="0.12" d="M181.975 446.649L122.742 424.797L120.704 430.321L179.937 452.174L181.975 446.649Z" fill="#000100"/>
<path d="M176.023 425.461L175.105 425.117L175.326 424.498C177.473 418.698 173.765 411.99 167.058 409.511L158.203 406.257C151.562 403.777 144.334 406.478 142.187 412.289L141.965 412.898L141.047 412.566C134.339 410.086 127.167 412.787 125.03 418.587L120.691 430.331L179.931 452.18L184.27 440.448C186.428 434.637 182.731 427.896 176.023 425.461ZM166.261 422.14L150.654 416.384C150.255 416.261 149.886 416.057 149.569 415.786C149.251 415.514 148.992 415.182 148.807 414.807C148.623 414.433 148.516 414.025 148.494 413.608C148.472 413.191 148.535 412.774 148.68 412.382C148.824 411.99 149.047 411.632 149.334 411.329C149.621 411.026 149.967 410.784 150.351 410.619C150.734 410.454 151.147 410.369 151.565 410.369C151.982 410.368 152.396 410.453 152.779 410.618L168.386 416.373C168.785 416.497 169.154 416.701 169.472 416.972C169.789 417.243 170.048 417.576 170.233 417.951C170.417 418.325 170.524 418.733 170.546 419.15C170.568 419.567 170.505 419.984 170.36 420.376C170.216 420.768 169.993 421.126 169.706 421.429C169.419 421.732 169.073 421.973 168.69 422.138C168.306 422.303 167.893 422.389 167.475 422.389C167.058 422.389 166.645 422.305 166.261 422.14Z" fill="#E4EAE9"/>
<g opacity="0.47">
<path d="M102.765 477.699L82.7423 470.305C82.6058 470.254 82.4604 470.23 82.3145 470.235C82.1687 470.24 82.0253 470.274 81.8926 470.335C81.7599 470.395 81.6405 470.482 81.5413 470.589C81.4421 470.696 81.365 470.821 81.3145 470.958L73.976 490.882C73.8763 491.158 73.8903 491.462 74.0148 491.728C74.1393 491.993 74.3642 492.199 74.6401 492.298L94.6632 499.692C94.7908 499.747 94.9283 499.776 95.0672 499.776C95.2062 499.776 95.3437 499.747 95.4713 499.692C95.598 499.635 95.7116 499.553 95.8049 499.45C95.8983 499.347 95.9693 499.226 96.0136 499.095L103.352 479.171C103.412 479.036 103.445 478.891 103.447 478.743C103.45 478.595 103.424 478.449 103.369 478.311C103.314 478.174 103.233 478.049 103.129 477.944C103.026 477.839 102.902 477.756 102.765 477.699ZM94.3865 497.213L76.4443 490.572L83.0191 472.729L100.961 479.37L94.3865 497.213Z" fill="#8B9498"/>
<path d="M89.1532 514.454L69.1301 507.071C68.9935 507.019 68.8481 506.996 68.7022 507.001C68.5564 507.006 68.413 507.04 68.2803 507.1C68.1476 507.161 68.0282 507.247 67.929 507.354C67.8298 507.461 67.7527 507.587 67.7022 507.724L60.3637 527.647C60.3124 527.784 60.2886 527.929 60.2936 528.075C60.2987 528.221 60.3326 528.364 60.3933 528.497C60.454 528.63 60.5403 528.749 60.6473 528.848C60.7543 528.948 60.8799 529.025 61.0168 529.075L81.051 536.458C81.1785 536.513 81.316 536.541 81.455 536.541C81.5939 536.541 81.7314 536.513 81.859 536.458C81.9868 536.403 82.1014 536.321 82.195 536.218C82.2885 536.115 82.3589 535.993 82.4013 535.86L89.7509 515.937C89.8124 515.801 89.8457 515.653 89.8487 515.504C89.8518 515.355 89.8246 515.206 89.7687 515.068C89.7129 514.929 89.6296 514.803 89.5238 514.698C89.418 514.592 89.2919 514.509 89.1532 514.454ZM80.7632 533.979L62.832 527.337L69.4068 509.506L87.349 516.147L80.7632 533.979Z" fill="#8B9498"/>
<path d="M75.5812 551.273L55.547 543.88C55.2725 543.779 54.9695 543.792 54.704 543.914C54.4386 544.036 54.2323 544.259 54.1302 544.533C51.673 551.174 49.2232 557.815 46.7807 564.456C46.681 564.732 46.695 565.036 46.8195 565.302C46.944 565.568 47.1689 565.773 47.4448 565.873L67.4679 573.256C67.5955 573.311 67.733 573.339 67.8719 573.339C68.0109 573.339 68.1484 573.311 68.2759 573.256C68.4027 573.199 68.5163 573.116 68.6096 573.014C68.7029 572.911 68.774 572.79 68.8183 572.658L76.1568 552.735C76.2154 552.601 76.247 552.457 76.2498 552.311C76.2526 552.165 76.2265 552.02 76.173 551.884C76.1195 551.748 76.0397 551.625 75.9381 551.52C75.8365 551.415 75.7153 551.331 75.5812 551.273ZM67.1912 570.787L49.249 564.146L55.8237 546.326L73.766 552.967L67.1912 570.787Z" fill="#8B9498"/>
</g>
<path d="M86.6797 480.295L91.8377 480.461L92.7121 485.984L120.516 478.336L122.885 479.786L89.6239 491.198L86.6797 480.295Z" fill="#FFA229"/>
<path d="M71.082 517.42L76.2511 517.586L77.1144 523.109L104.919 515.461L107.287 516.911L74.0373 528.323L71.082 517.42Z" fill="#FFA229"/>
<path d="M57.8203 552.1L62.9783 552.277L63.8527 557.789L91.6571 550.141L94.0258 551.602L60.7646 563.013L57.8203 552.1Z" fill="#FFA229"/>
<path opacity="0.32" d="M156.083 590.164L85.4375 564.102L81.7674 574.05L152.413 600.112L156.083 590.164Z" fill="#8B9498"/>
<path opacity="0.32" d="M170.458 551.172L99.8125 525.109L96.1424 535.058L166.788 561.12L170.458 551.172Z" fill="#8B9498"/>
<path opacity="0.32" d="M184.849 512.195L114.203 486.133L110.533 496.081L181.179 522.144L184.849 512.195Z" fill="#8B9498"/>
<path d="M51.2255 460.141C50.7606 461.381 50.7606 463.107 51.9671 463.65C52.7372 463.851 53.5499 463.821 54.3026 463.561C55.7881 463.336 57.3063 463.607 58.6226 464.331C59.9389 465.055 60.9803 466.193 61.5857 467.568C62.925 470.888 61.3754 474.751 58.6636 477.009C55.9518 479.267 52.3434 480.131 48.8236 480.441C46.6099 480.64 44.1637 480.551 42.5477 479.035C41.7611 478.209 41.1609 477.224 40.7878 476.146C38.5741 470.733 36.7367 463.672 41.0092 458.757C44.374 454.883 54.3469 451.773 51.2255 460.141Z" fill="#E2B596"/>
<path d="M25.9547 459.047C26.4094 458.48 26.9213 457.96 27.4822 457.498C32.1753 453.701 38.2409 450.048 44.4836 451.963C42.6167 463.619 44.3787 475.567 49.5309 486.187C49.7916 486.57 49.9671 487.004 50.0453 487.461C50.1236 487.917 50.1029 488.385 49.9847 488.833C49.2763 490.427 44.1515 491.556 42.613 491.622C35.8168 491.932 28.8215 488.545 25.8661 483.531C24.1394 480.598 23.7631 477.321 23.4311 474.123C22.9219 469.208 22.6895 463.109 25.9547 459.047Z" fill="#FFA229"/>
<path d="M574.656 515.555H306.164V774.826H574.656V515.555Z" fill="#FFA229"/>
<path d="M574.656 774.833L641.046 708.443V449.172L574.656 515.561V774.833Z" fill="#D58C2C"/>
<path d="M574.656 515.561L641.045 449.172H372.554L306.164 515.561H574.656Z" fill="#F2C488"/>
<path d="M487.718 449.172L421.328 515.561V567.827H459.46V515.561H459.504L525.893 449.172H487.718Z" fill="white"/>
<path d="M496.18 583.586L459.477 630.971H481.747V706.879H510.614V630.971H532.895L496.18 583.586Z" fill="white"/>
<path d="M347.926 630.971H370.196V706.879H399.063V630.971H421.344L384.629 583.586L347.926 630.971Z" fill="white"/>
<path d="M539.115 721.547H341.695V725.454H539.115V721.547Z" fill="white"/>
<path d="M539.115 733.172H341.695V737.079H539.115V733.172Z" fill="white"/>
<path d="M539.115 744.797H341.695V748.704H539.115V744.797Z" fill="white"/>
<path d="M744.903 629.783C803.038 629.783 850.166 582.655 850.166 524.52C850.166 466.385 803.038 419.258 744.903 419.258C686.768 419.258 639.641 466.385 639.641 524.52C639.641 582.655 686.768 629.783 744.903 629.783Z" fill="#8CABEF"/>
<g opacity="0.16">
<path d="M799.984 434.68C812.811 454.755 818.45 478.587 815.98 502.282C813.51 525.977 803.078 548.134 786.386 565.132C769.695 582.131 747.732 592.966 724.086 595.867C700.44 598.769 676.509 593.565 656.203 581.106C664.73 594.438 676.152 605.676 689.621 613.984C703.09 622.292 718.258 627.457 733.999 629.094C749.739 630.731 765.646 628.798 780.536 623.44C795.426 618.081 808.917 609.435 820.004 598.143C831.092 586.852 839.491 573.206 844.577 558.22C849.663 543.235 851.306 527.295 849.382 511.587C847.458 495.88 842.018 480.808 833.466 467.493C824.913 454.178 813.469 442.962 799.984 434.68Z" fill="black"/>
</g>
<path d="M770.008 422.289C771.889 422.743 773.738 423.252 775.542 423.817L770.008 422.289Z" fill="#95B84C"/>
<path d="M781.898 425.953C778.926 425.562 775.913 425.607 772.954 426.086C773.929 425.453 774.812 424.69 775.578 423.817C773.74 423.252 771.892 422.71 770.043 422.289L769.645 422.422C767.099 423.307 766.723 423.407 767.143 425.012C766.169 424.625 765.229 424.159 764.332 423.617H752.157C759.905 432.151 744.918 431.598 739.45 431.609C738.454 431.609 738.221 429.605 738.786 429.085C740.491 428.946 742.205 428.946 743.91 429.085C749.046 429.085 748.404 428.731 748.404 423.617C743.457 427.27 743.634 423.617 738.022 423.617C732.764 423.617 730.174 423.905 725.559 425.986L730.075 429.827C728.182 429.395 722.006 426.971 720.323 427.691C719.537 428.023 719.338 430.115 718.364 430.115C714.446 430.115 703.776 432.262 703.776 427.768C703.776 427.768 703.709 427.768 703.576 427.713C693.954 431.823 685.001 437.349 677.012 444.105C680.806 443.576 684.641 443.394 688.468 443.563C688.933 443.563 692.154 451.887 692.187 452.517C692.364 456.148 689.885 457.587 688.047 461.04C684.736 467.725 683.211 475.153 683.62 482.602C683.62 482.857 687.826 486.631 687.826 488.136C687.826 494.39 688.479 494.501 692.784 499.105V491.424C695.352 498.153 698.452 500.743 700.765 507.318C703.399 514.79 713.782 509.056 717.368 513.959C718.929 516.173 721.795 515.133 723.212 517.28L726.975 523.025C729.189 526.478 732.001 525.238 736.052 525.238C739.937 525.238 732.51 538.676 732.51 539.805C732.51 544.464 738.874 555.068 738.83 556.939C738.708 562.473 745.615 563.248 749.367 566.657C752.378 569.402 750.231 577.183 750.142 580.637C749.921 588.673 755.057 594.45 756.385 602.054C756.872 604.877 755.787 607.932 756.385 610.644C756.982 613.356 759.418 615.171 759.384 618.248C759.384 623.007 772.667 623.904 775.301 623.904C775.301 623.904 765.539 618.835 765.539 619.477C765.539 614.961 767.863 615.27 767.863 612.525C767.863 609.205 764.897 606.548 766.756 601.922C768.76 596.919 768.538 597.074 773.962 597.074C773.832 594.776 773.461 592.498 772.855 590.278C777.703 582.718 788.982 575.446 791.97 573.409C796.021 570.642 793.752 563.159 795.501 559.175C797.051 555.677 801.722 552.434 801.943 548.106C802.12 544.785 799.209 544.011 796.807 544.099C794.406 544.188 794.173 540.17 792.38 540.17C787.344 540.17 782.119 539.306 777.758 536.086C777.039 535.543 776.231 529.112 774.991 527.53C773.22 525.238 767.575 529.245 765.373 526.146C764.542 524.973 762.583 520.368 761.233 520.368C759.418 520.368 749.356 518.42 747.242 520.368C747.563 520.069 743.811 518.929 743.28 518.929C743.501 518.929 730.351 525.747 730.351 522.25C730.351 517.667 732.565 511.735 727.153 511.735C718.397 511.735 725.846 509.466 725.846 505.459C725.846 500.312 717.379 506.864 712.907 506.864C713.029 506.864 707.893 498.441 710.35 498.441C712.121 498.441 712.398 494.833 713.671 493.294C717.124 489.265 723.024 488.867 727.175 489.597C728.857 489.907 734.923 496.969 734.923 498.452C734.923 498.109 737.402 496.515 737.745 496.006C738.941 494.158 738.265 493.361 738.564 491.523C739.572 485.325 739.826 484.096 744.763 480.333C748.393 477.577 753.474 474.4 756.318 470.814C758.266 468.338 760.794 466.38 763.679 465.114C763.358 465.28 766.679 467.139 767.376 467.139C770.232 467.139 770.929 464.726 772.49 462.557H767.531C773.132 458.284 762.993 456.059 774.172 456.059C779.706 456.059 780.193 456.137 783.558 452.219C778.201 452.219 779.507 452.219 779.507 446.684C779.507 445.766 777.991 442.434 776.541 443.862C772.589 447.747 772.733 443.142 771.006 440.541C768.793 437.221 766.347 440.641 765.417 442.666C764.31 445.179 754.736 449.108 754.758 452.385C754.758 454.311 751.636 454.233 751.692 452.086C751.78 448.876 740.623 445.799 740.479 444.537C740.236 442.888 746.013 438.416 750.972 438.416C753.274 438.416 752.146 435.76 752.854 435.76C757.613 435.76 763.225 434.276 765.837 430.436C765.184 430.436 759.074 430.436 759.074 430.436C759.074 428.222 758.134 426.927 760.635 426.927C766.513 426.927 768.25 431.498 774.692 431.498L767.785 436.523C771.017 436.523 775.866 441.903 778.356 440.231C782.949 437.154 779.85 434.343 783.669 433.701C784.186 434.24 784.829 434.643 785.539 434.874C786.735 435.295 791.074 436.058 791.771 437.154C792.646 438.471 794.881 446.253 793.243 446.928C790.576 448.035 782.761 456.491 788.738 458.605C793.354 460.243 794.538 458.185 798.645 455.606C802.475 453.215 803.515 454.1 807.81 455.606C807.81 455.606 812.237 455.462 813.942 456.048C817.572 457.332 817.262 455.041 817.683 455.174C819.727 455.891 821.95 455.922 824.014 455.262C812.601 442.176 798.134 432.109 781.898 425.953Z" fill="white"/>
<path d="M738.211 499.229L736.074 501.377C742.715 501.377 746.744 503.513 752.677 503.513C748.681 497.326 745.582 499.229 738.211 499.229Z" fill="white"/>
<path d="M760.089 504.596C754.765 504.441 754.555 505.249 751.234 508.891H759.647C762.104 508.902 761.772 504.651 760.089 504.596Z" fill="white"/>
<path d="M767.636 510.136C760.043 510.136 767.636 502.676 767.636 510.136V510.136Z" fill="white"/>
<path d="M653.985 535.628C653.988 515.218 660.381 495.321 672.267 478.729C684.153 462.137 700.935 449.682 720.258 443.112C739.582 436.541 760.478 436.186 780.014 442.094C799.55 448.002 816.746 459.879 829.19 476.056C822.5 464.489 813.509 454.416 802.773 446.46C792.037 438.504 779.783 432.835 766.769 429.801C753.755 426.768 740.257 426.436 727.11 428.825C713.963 431.214 701.445 436.273 690.33 443.691C679.215 451.109 669.739 460.727 662.488 471.951C655.237 483.176 650.365 495.768 648.172 508.949C645.98 522.131 646.513 535.622 649.741 548.589C652.968 561.557 658.82 573.724 666.935 584.341C658.409 569.525 653.942 552.722 653.985 535.628Z" fill="#9DBDF4"/>
<path d="M773.055 431.305L774.405 431.736L774.804 431.438C774.218 431.44 773.633 431.395 773.055 431.305Z" fill="#A2C14B"/>
<path d="M767.895 436.468C771.127 436.468 775.975 441.848 778.465 440.176C781.885 437.885 781.044 435.749 781.963 434.531C779.491 433.506 776.971 432.576 774.403 431.742L767.895 436.468Z" fill="#F4F4F4"/>
<path d="M773.053 431.3C772.035 430.99 771.005 430.691 769.965 430.414C770.949 430.848 771.988 431.146 773.053 431.3Z" fill="#A2C14B"/>
<path d="M813.763 455.911C807.579 449.688 800.588 444.323 792.977 439.961C793.796 442.717 794.46 446.414 793.353 446.868L792.999 447.045C798.062 449.411 802.913 452.207 807.499 455.402L807.919 455.557C809.874 455.481 811.832 455.6 813.763 455.911Z" fill="#F4F4F4"/>
<path d="M752.288 437.918C752.908 437.154 752.443 435.704 752.963 435.704C757.723 435.704 763.334 434.221 765.947 430.38C765.294 430.38 759.184 430.38 759.184 430.38C759.184 429.472 759.018 428.72 759.007 428.166C757.446 427.934 755.863 427.723 754.28 427.568C754.546 431.996 743.842 431.631 739.404 431.642C738.408 431.642 738.175 429.638 738.74 429.118C740.445 428.979 742.159 428.979 743.865 429.118C747.418 429.118 748.204 428.952 748.359 427.159C747.041 427.104 745.724 427.07 744.407 427.07C739.015 427.074 733.633 427.518 728.313 428.399L730.029 429.86C729.287 429.682 727.882 429.218 726.354 428.753C712.928 431.265 700.181 436.575 688.942 444.337C690.204 447.003 691.283 449.75 692.174 452.561C692.351 456.192 689.872 457.631 688.035 461.084C687.913 461.317 687.813 461.571 687.691 461.804C705.43 446.359 728.159 437.855 751.679 437.862L752.288 437.918Z" fill="#F4F4F4"/>
<path d="M756.342 610.657C756.984 613.446 759.374 615.184 759.341 618.261C759.341 623.021 772.623 623.917 775.258 623.917C775.258 623.917 765.495 618.848 765.495 619.49C765.495 614.974 767.82 615.284 767.82 612.539C767.82 609.218 764.853 606.562 766.713 601.935C768.716 596.932 768.495 597.087 773.918 597.087C773.789 594.789 773.418 592.511 772.812 590.291C777.66 582.731 788.939 575.459 791.927 573.422C795.978 570.655 793.709 563.173 795.458 559.188C797.008 555.69 801.679 552.447 801.9 548.119C801.976 547.315 801.782 546.509 801.347 545.828C789.7 565.061 772.22 580.075 751.449 588.686C753.021 593.113 755.423 597.231 756.264 602.079C756.795 604.89 755.711 607.945 756.342 610.657Z" fill="#F2F2F2"/>
<path d="M648.178 238.62L606.117 232.289L635.549 251.604C643.075 256.54 652.827 260.459 663.718 262.794L695.319 267.609L648.178 238.62Z" fill="#474EBB"/>
<path d="M431.32 176.871C427.753 173.236 424.38 169.415 421.214 165.426C420.277 164.267 419.647 162.891 419.382 161.424C419.118 159.957 419.229 158.448 419.703 157.035C420.178 155.622 421.001 154.352 422.098 153.342C423.194 152.332 424.527 151.615 425.974 151.258L440.629 147.594C459.124 142.968 477.631 144.052 493.902 150.361L617.738 203.004C631.346 208.79 643.635 217.287 653.855 227.975L659.699 234.073C660.823 235.263 661.576 236.754 661.865 238.365C662.154 239.976 661.967 241.636 661.327 243.143C660.687 244.649 659.621 245.936 658.26 246.845C656.899 247.755 655.303 248.247 653.667 248.263L629.194 247.477C614.174 243.15 595.755 239.729 580.735 235.379L503.808 213.242C496.393 211.106 488.977 208.992 481.561 206.845C467.005 202.616 453.59 194.924 441.525 185.814C437.91 183.086 434.499 180.097 431.32 176.871Z" fill="#474EBB"/>
<path d="M511.479 220.315L526.522 224.233C527.592 224.509 528.516 225.185 529.103 226.122C529.69 227.059 529.895 228.185 529.676 229.269L528.746 233.829C528.523 234.916 527.894 235.876 526.987 236.514C526.079 237.152 524.963 237.419 523.865 237.261L508.192 234.992C507.414 234.889 506.68 234.571 506.072 234.075C505.464 233.578 505.006 232.922 504.75 232.18C503.311 227.841 505.27 224.1 506.963 221.875C507.476 221.196 508.179 220.685 508.983 220.407C509.788 220.129 510.657 220.097 511.479 220.315Z" fill="#D67086"/>
<g opacity="0.05">
<path d="M517.692 222.218L523.226 237.139L506.988 234.681C506.988 234.681 517.039 235.711 516.319 221.875L517.692 222.218Z" fill="#000100"/>
</g>
<path d="M510.502 224.949C509.467 228.083 509.032 231.383 509.219 234.678C509.219 234.811 509.219 234.922 509.219 235.055L507.735 234.844C507.002 234.745 506.314 234.433 505.755 233.947C505.197 233.461 504.792 232.823 504.592 232.11C503.33 227.827 505.223 224.064 506.806 221.817C507.264 221.157 507.911 220.652 508.661 220.367C509.412 220.083 510.232 220.032 511.012 220.223L512.185 220.522C511.522 221.957 510.96 223.436 510.502 224.949Z" fill="#292949"/>
<path d="M529.533 247.186L544.851 249.798C545.942 249.984 546.919 250.581 547.58 251.467C548.241 252.353 548.537 253.46 548.404 254.558L547.851 259.173C547.715 260.265 547.17 261.264 546.325 261.969C545.481 262.674 544.4 263.032 543.302 262.97L527.496 262.018C526.71 261.984 525.949 261.73 525.3 261.286C524.651 260.842 524.138 260.225 523.821 259.505C522.039 255.31 523.688 251.414 525.205 249.057C525.668 248.36 526.323 247.812 527.092 247.48C527.86 247.148 528.707 247.046 529.533 247.186Z" fill="#D67086"/>
<path d="M528.136 251.762C527.36 254.967 527.198 258.291 527.661 261.557C527.661 261.679 527.661 261.801 527.738 261.923L526.233 261.845C525.5 261.799 524.796 261.541 524.207 261.103C523.617 260.665 523.168 260.065 522.912 259.377C521.307 255.215 522.912 251.308 524.318 248.928C524.723 248.236 525.327 247.681 526.051 247.335C526.775 246.99 527.587 246.87 528.38 246.991L529.575 247.19C528.992 248.68 528.511 250.207 528.136 251.762Z" fill="#292949"/>
<g opacity="0.05">
<path d="M535.962 248.426L542.725 262.816L526.332 261.709C526.332 261.709 536.449 261.897 534.6 248.172L535.962 248.426Z" fill="#000100"/>
</g>
<path d="M492.019 192.9L559.172 288.92C562.743 294.045 567.57 298.166 573.19 300.889C578.811 303.612 585.037 304.846 591.271 304.472L596.053 304.195L562.382 208.053L491.543 190.133L492.019 192.9Z" fill="#474EBB"/>
<path d="M442.065 147.242C442.065 147.242 445.253 153.363 458.502 156.407L454.584 164.387C454.584 164.387 438.213 159.894 432.004 149.744L442.065 147.242Z" fill="#8CABEF"/>
<path d="M614.973 222.247L615.759 220.886L679.182 185.953L705.868 197.21L661.97 249.044L614.973 222.247Z" fill="#474EBB"/>
<g opacity="0.1">
<path d="M506.942 192.817L510.606 194.3C510.734 194.352 510.87 194.378 511.008 194.376C511.146 194.375 511.283 194.346 511.409 194.291C511.536 194.237 511.651 194.158 511.746 194.058C511.842 193.959 511.917 193.842 511.967 193.713L515.177 185.777C515.269 185.518 515.261 185.233 515.154 184.98C515.048 184.726 514.851 184.521 514.602 184.404L510.949 182.921C510.688 182.83 510.403 182.84 510.149 182.948C509.895 183.057 509.691 183.257 509.576 183.508L506.378 191.444C506.285 191.702 506.291 191.985 506.396 192.239C506.5 192.493 506.695 192.698 506.942 192.817Z" fill="white"/>
<path d="M497.258 188.898L500.922 190.381C501.182 190.468 501.466 190.455 501.718 190.345C501.969 190.235 502.171 190.034 502.283 189.784L505.493 181.847C505.585 181.588 505.577 181.304 505.47 181.05C505.364 180.796 505.167 180.591 504.917 180.475L501.265 178.992C501.004 178.901 500.719 178.91 500.465 179.019C500.211 179.127 500.007 179.327 499.892 179.578L496.693 187.514C496.598 187.774 496.603 188.06 496.707 188.316C496.811 188.572 497.008 188.78 497.258 188.898Z" fill="white"/>
<path d="M486.976 184.723L489.599 185.83C489.998 185.987 490.443 185.979 490.837 185.809C491.231 185.639 491.542 185.32 491.702 184.922L494.48 178.038C494.641 177.641 494.638 177.197 494.472 176.803C494.306 176.409 493.991 176.097 493.595 175.935L490.982 174.828C490.785 174.749 490.575 174.709 490.363 174.711C490.15 174.713 489.94 174.757 489.745 174.84C489.55 174.924 489.373 175.045 489.224 175.196C489.076 175.348 488.959 175.527 488.879 175.724L486.101 182.62C485.943 183.015 485.946 183.457 486.109 183.85C486.273 184.243 486.584 184.557 486.976 184.723Z" fill="white"/>
</g>
<g opacity="0.04">
<path d="M590.223 234.63C572.657 229.295 555.08 223.96 537.813 217.728C508.26 207.047 475.375 198.358 448.157 182.596C444.77 180.637 422.877 166.857 420.176 163.204C420.121 163.127 420.021 163.204 420.032 163.271C420.541 165.85 429.629 174.893 431.322 176.874C436.48 182.917 443.985 187.157 448.943 190.787C454.412 194.711 460.26 198.078 466.399 200.838C496.073 213.157 528.682 219.333 559.508 228.454C571.993 232.14 584.268 236.589 596.875 239.843C601.535 241.05 606.239 242.057 610.955 243.042C613.81 243.618 619.489 245.887 622.023 244.337C611.674 240.552 600.794 237.84 590.223 234.63Z" fill="#000100"/>
</g>
<path d="M363.804 547.981C363.789 547.562 363.725 547.146 363.616 546.741C362.509 543.188 360.295 542.225 358.546 539.237C357.75 537.897 358.79 533.702 356.134 534.079C355.159 534.212 352.813 534.986 350.699 535.296C347.655 535.739 343.604 533.846 340.582 531.544C336.338 528.426 332.352 524.973 328.661 521.217C320.565 512.551 313.263 503.175 306.845 493.202C318.544 478.426 323.282 454.462 318.578 433.897C318.215 431.783 317.428 429.765 316.264 427.964C315.3 426.743 314.017 425.812 312.556 425.274C298.167 419.375 294.614 437.87 291.282 452.614C289.154 461.924 287.554 471.348 286.49 480.839C285.029 494.121 289.999 503.662 297.237 512.517C304.908 521.903 312.8 531.223 321.821 538.241C326.248 541.65 330.753 543.709 335.391 546.299C340.029 548.889 338.866 551.445 342.442 555.065C344.434 557.079 346.183 559.647 348.441 561.142C352.47 563.809 356.609 560.953 360.395 558.928C361.298 558.558 362.069 557.926 362.609 557.113C363.616 555.541 363.716 553.526 363.826 551.578C363.91 550.38 363.903 549.178 363.804 547.981Z" fill="#E2B596"/>
<path d="M282.6 457.482C281.493 464.776 280.74 471.993 280.176 478.977C279.323 489.392 278.637 500.771 282.921 509.548C284.612 512.721 286.699 515.666 289.13 518.315C299.874 530.955 310.854 543.234 322.07 555.151C328.252 548.665 333.47 541.326 337.566 533.357C338.773 531.044 339.957 528.42 339.78 525.609C339.503 521.425 336.459 518.746 333.703 516.754L320.344 506.792C318.677 505.79 317.43 504.217 316.835 502.365C316.601 500.939 316.638 499.482 316.945 498.07C321.174 471.173 328.568 450.032 337.766 425.803C341.795 415.122 345.912 404.009 346.244 392.044C346.953 366.509 324.107 352.551 310.935 372.286C295.948 394.789 287.027 426.788 282.6 457.482Z" fill="#353A85"/>
<path d="M750.749 482.134C750.77 481.755 750.848 481.382 750.982 481.027C752.288 477.994 754.778 477.186 756.859 474.641C757.789 473.534 756.627 469.914 759.671 470.213C760.777 470.335 763.511 471.021 765.902 471.32C769.4 471.741 774.082 470.158 777.558 468.21C782.358 465.639 786.964 462.72 791.338 459.477C800.48 452.332 808.943 444.358 816.619 435.657C810.035 429.146 805.347 420.967 803.056 411.996C800.765 403.025 800.958 393.6 803.613 384.73C804.079 382.846 805.007 381.108 806.314 379.672C807.536 378.578 809.006 377.8 810.597 377.403C827.2 372.499 831.096 388.405 834.815 401.078C837.169 409.029 838.934 417.142 840.095 425.352C841.678 436.808 835.878 444.899 827.499 452.426C818.644 460.395 809.468 468.309 799.053 474.231C793.994 477.109 788.748 478.836 783.413 481.005C778.078 483.174 779.384 485.432 775.244 488.454C772.931 490.159 770.905 492.339 768.304 493.601C763.644 495.815 758.918 493.347 754.579 491.576C753.613 491.287 752.744 490.739 752.066 489.993C750.96 488.631 750.849 486.905 750.716 485.189C750.632 484.172 750.643 483.149 750.749 482.134Z" fill="#E2B596"/>
<path d="M831.463 420.683C828.888 421.409 826.384 422.365 823.98 423.539C822.342 424.302 803.813 432.538 803.736 432.217C802.419 427.169 797.582 422.343 795.191 417.54C792.346 411.822 790.223 405.773 788.871 399.531C786.657 389.248 781.82 379.242 778.09 369.391C773.386 356.961 782.019 348.139 794.693 352.246C805.485 355.755 814.052 365.163 821.888 372.922C828.175 379.198 834.407 385.695 838.834 393.476C843.262 401.258 845.476 410.533 843.35 419.178C839.344 419.235 835.357 419.74 831.463 420.683Z" fill="#292949"/>
<path d="M886.848 449.096L1005.38 448.93C1009.23 448.988 1012.9 450.572 1015.59 453.335C1018.27 456.097 1019.75 459.811 1019.69 463.662L1019.82 547.573C1019.88 551.424 1018.41 555.143 1015.74 557.914C1013.06 560.684 1009.4 562.28 1005.55 562.35L887.025 562.549C883.173 562.491 879.501 560.905 876.817 558.14C874.133 555.376 872.657 551.658 872.713 547.806L872.581 463.894C872.545 461.986 872.887 460.089 873.585 458.312C874.283 456.536 875.324 454.914 876.649 453.54C877.974 452.165 879.556 451.065 881.306 450.303C883.056 449.541 884.939 449.13 886.848 449.096Z" fill="#1C4670"/>
<path d="M975.71 509.568H1003.96C1004.47 509.56 1004.98 509.45 1005.45 509.244C1005.92 509.039 1006.35 508.743 1006.7 508.373C1007.06 508.003 1007.34 507.566 1007.53 507.087C1007.72 506.609 1007.81 506.097 1007.8 505.583V476.396C1007.81 475.357 1007.41 474.356 1006.69 473.612C1005.96 472.867 1004.97 472.439 1003.94 472.422H975.688C974.65 472.442 973.662 472.873 972.94 473.619C972.218 474.366 971.822 475.368 971.836 476.407V505.595C971.825 506.635 972.226 507.637 972.952 508.382C973.678 509.127 974.67 509.554 975.71 509.568Z" fill="white"/>
<path d="M976.004 553.717H1004.25C1005.29 553.696 1006.28 553.266 1007 552.519C1007.72 551.772 1008.12 550.77 1008.1 549.732V520.544C1008.11 519.506 1007.72 518.505 1006.99 517.76C1006.27 517.016 1005.28 516.588 1004.24 516.57H975.993C974.955 516.591 973.967 517.021 973.245 517.768C972.523 518.515 972.126 519.517 972.141 520.555V549.743C972.129 550.781 972.529 551.782 973.253 552.527C973.977 553.271 974.966 553.699 976.004 553.717Z" fill="white"/>
<path d="M931.61 509.638H959.857C960.371 509.63 960.878 509.52 961.35 509.315C961.821 509.11 962.247 508.814 962.604 508.443C962.961 508.073 963.241 507.636 963.429 507.158C963.617 506.679 963.708 506.168 963.698 505.654V476.466C963.705 475.951 963.611 475.44 963.421 474.962C963.23 474.484 962.948 474.048 962.589 473.679C962.23 473.31 961.803 473.015 961.33 472.812C960.857 472.608 960.349 472.499 959.835 472.492H931.587C930.549 472.515 929.562 472.949 928.843 473.698C928.123 474.446 927.729 475.45 927.747 476.488V505.665C927.738 506.18 927.831 506.691 928.021 507.17C928.21 507.649 928.493 508.086 928.852 508.455C929.211 508.824 929.639 509.119 930.113 509.322C930.586 509.525 931.095 509.633 931.61 509.638Z" fill="white"/>
<path d="M931.907 553.779H960.154C960.668 553.77 961.175 553.66 961.646 553.455C962.118 553.25 962.544 552.954 962.901 552.584C963.258 552.214 963.538 551.777 963.726 551.298C963.913 550.819 964.005 550.308 963.994 549.794V520.606C964.009 519.569 963.612 518.568 962.89 517.823C962.168 517.078 961.18 516.65 960.143 516.633H931.895C930.855 516.653 929.865 517.085 929.143 517.834C928.421 518.583 928.026 519.588 928.044 520.629V549.805C928.035 550.32 928.128 550.832 928.318 551.311C928.507 551.79 928.79 552.226 929.149 552.596C929.508 552.965 929.936 553.26 930.409 553.463C930.883 553.666 931.392 553.773 931.907 553.779Z" fill="white"/>
<path d="M887.536 509.717H915.783C916.823 509.693 917.811 509.26 918.532 508.512C919.254 507.763 919.65 506.76 919.635 505.721V476.544C919.643 476.029 919.548 475.518 919.358 475.04C919.168 474.562 918.886 474.126 918.527 473.757C918.168 473.388 917.74 473.093 917.268 472.89C916.795 472.686 916.287 472.578 915.772 472.57H887.525C887.011 472.579 886.504 472.689 886.032 472.894C885.561 473.099 885.134 473.395 884.778 473.765C884.421 474.136 884.141 474.573 883.953 475.051C883.765 475.53 883.674 476.041 883.684 476.555V505.743C883.672 506.779 884.071 507.779 884.792 508.523C885.514 509.267 886.5 509.696 887.536 509.717Z" fill="white"/>
<path d="M887.798 553.857H916.045C917.084 553.834 918.072 553.401 918.794 552.653C919.515 551.904 919.912 550.901 919.897 549.861V520.685C919.904 520.17 919.81 519.659 919.62 519.181C919.43 518.703 919.147 518.267 918.789 517.898C918.43 517.529 918.002 517.234 917.529 517.03C917.057 516.827 916.549 516.718 916.034 516.711H887.787C887.273 516.72 886.766 516.83 886.294 517.035C885.823 517.24 885.396 517.536 885.039 517.906C884.683 518.276 884.402 518.713 884.215 519.192C884.027 519.671 883.936 520.182 883.946 520.696V549.884C883.931 550.921 884.329 551.922 885.051 552.667C885.773 553.412 886.761 553.84 887.798 553.857Z" fill="white"/>
<path d="M989.631 436.844H993.793C994.891 436.864 995.937 437.318 996.702 438.106C997.467 438.893 997.889 439.952 997.877 441.05V456.812C997.895 457.911 997.476 458.972 996.713 459.762C995.949 460.553 994.903 461.008 993.804 461.029H989.687C989.142 461.021 988.604 460.907 988.104 460.691C987.604 460.476 987.151 460.164 986.772 459.773C986.392 459.383 986.094 458.921 985.893 458.414C985.692 457.908 985.594 457.367 985.602 456.823V441.061C985.581 439.969 985.993 438.912 986.748 438.122C987.503 437.332 988.539 436.873 989.631 436.844Z" fill="white"/>
<path d="M897.356 437H901.474C902.018 437.007 902.556 437.122 903.056 437.337C903.557 437.553 904.01 437.865 904.389 438.255C904.768 438.646 905.067 439.108 905.268 439.614C905.468 440.121 905.567 440.661 905.558 441.206V456.968C905.568 457.511 905.472 458.052 905.273 458.558C905.074 459.064 904.778 459.526 904.401 459.918C904.023 460.309 903.573 460.623 903.074 460.84C902.576 461.058 902.04 461.175 901.496 461.185H897.39C896.292 461.165 895.246 460.711 894.481 459.923C893.716 459.135 893.293 458.077 893.305 456.979V441.217C893.287 440.122 893.703 439.064 894.462 438.274C895.221 437.484 896.261 437.026 897.356 437Z" fill="white"/>
<path d="M1027.87 511.153C1029.1 508.118 1030.18 505.022 1031.11 501.877C1026.34 500.77 1021.54 499.73 1016.72 498.789C1016.62 499.675 1016.53 500.56 1016.44 501.423C1016.03 505.851 1016.31 510.356 1015.45 514.706C1015.07 517.032 1014.21 519.253 1012.92 521.225C1011.73 522.885 1010.62 523.583 1010.25 525.841C1009.89 528.099 1012.63 528.63 1011.56 530.811C1010.39 533.19 1006.89 531.475 1005.07 533.168C1004.57 533.685 1004.19 534.31 1003.97 534.995C1003.3 536.699 1002.86 538.68 1003.69 540.307C1006.25 545.266 1012.9 542.831 1015.87 540.197C1017.93 538.404 1020.66 536.998 1022.18 534.662C1025.29 529.848 1022.97 523.516 1024.7 518.303C1025.63 515.857 1026.84 513.544 1027.87 511.153Z" fill="#AA6755"/>
<path d="M987.684 429.506C993.218 438.25 1004.15 444.448 1011.32 452.385C1025.31 467.881 1016.34 496.327 1014.53 515.265L1026.7 520.069L1043.6 462.28L1017.96 406.87C1010.52 390.785 997.183 378.17 980.711 371.628L969.133 367.023C973.682 368.861 979.017 401.336 980.445 406.35C982.338 412.991 983.378 421.37 986.522 427.48C986.876 428.178 987.263 428.842 987.684 429.506Z" fill="#F79C27"/>
<path d="M890.336 461.51C889.882 455.61 884.06 450.862 878.161 451.028C876.267 451.024 874.418 451.608 872.87 452.699C872.106 453.252 871.487 453.979 871.063 454.821C870.64 455.663 870.424 456.594 870.435 457.536L871.951 456.152C871.951 456.152 871.951 456.241 871.951 456.296C870.646 459.338 869.67 462.511 869.04 465.76C868.659 467.29 868.659 468.89 869.04 470.42C869.668 471.986 870.658 473.382 871.929 474.493C872.775 475.525 873.878 476.315 875.128 476.784C875.758 476.996 876.446 476.957 877.049 476.677C877.652 476.397 878.125 475.897 878.371 475.279C878.637 474.172 877.972 472.966 878.537 472.036C879.212 470.929 880.85 471.239 882.112 470.929C883.761 470.564 884.879 469.036 886.351 468.184C886.949 467.841 887.613 467.597 888.189 467.221C889.86 466.048 890.502 463.657 890.336 461.51Z" fill="#AA6755"/>
<path d="M873.951 457.891C875.412 455.279 878.379 453.287 881.323 453.851C882.217 454.167 883.168 454.288 884.112 454.206C884.75 453.966 885.279 453.502 885.6 452.902C885.922 452.301 886.015 451.604 885.861 450.94C885.496 449.622 884.767 448.433 883.758 447.509C881.839 445.255 879.31 443.602 876.475 442.75C874.678 442.405 872.826 442.484 871.066 442.982C869.306 443.48 867.686 444.382 866.336 445.616C863.649 448.12 861.694 451.307 860.68 454.837C859.119 459.707 857.459 473.863 865.461 474.173C874.25 474.505 871.239 462.74 873.951 457.891Z" fill="#D67086"/>
</g>
<defs>
<clipPath id="clip0_277_3903">
<rect width="1080" height="972" fill="white"/>
</clipPath>
</defs>
</svg>
