<svg width="1025" height="1366" viewBox="0 0 1025 1366" fill="none" xmlns="http://www.w3.org/2000/svg">
<rect width="1025" height="1366" fill="#FFFAFA"/>
<g filter="url(#filter0_d_12_2357)">
<path fill-rule="evenodd" clip-rule="evenodd" d="M945.956 319C968.065 319 985.98 336.935 985.956 359.044L985.801 500.486C985.777 522.56 967.876 540.442 945.801 540.442H818.055H74C51.9086 540.442 34 522.533 34 500.442V359C34 336.909 51.9086 319 74 319H945.956Z" fill="white"/>
</g>
<path d="M487.147 448.364V454H466.445V448.364H487.147ZM468.428 412.766V454H461.319V412.766H468.428ZM505.471 454.566C503.205 454.566 501.157 454.198 499.325 453.462C497.513 452.707 495.965 451.659 494.681 450.318C493.416 448.978 492.443 447.401 491.764 445.589C491.084 443.776 490.744 441.822 490.744 439.727V438.594C490.744 436.196 491.093 434.025 491.792 432.08C492.491 430.135 493.463 428.474 494.709 427.096C495.955 425.699 497.428 424.632 499.127 423.896C500.826 423.159 502.667 422.791 504.649 422.791C506.84 422.791 508.756 423.159 510.398 423.896C512.041 424.632 513.4 425.67 514.477 427.011C515.572 428.332 516.383 429.909 516.912 431.74C517.46 433.572 517.733 435.592 517.733 437.801V440.718H494.058V435.818H510.993V435.28C510.955 434.053 510.71 432.901 510.257 431.825C509.823 430.749 509.152 429.881 508.246 429.22C507.34 428.559 506.132 428.229 504.621 428.229C503.488 428.229 502.478 428.474 501.591 428.965C500.722 429.437 499.995 430.126 499.41 431.032C498.825 431.938 498.372 433.034 498.051 434.317C497.749 435.582 497.598 437.008 497.598 438.594V439.727C497.598 441.067 497.777 442.313 498.136 443.465C498.513 444.598 499.061 445.589 499.778 446.438C500.496 447.288 501.364 447.958 502.384 448.449C503.403 448.921 504.564 449.157 505.867 449.157C507.51 449.157 508.973 448.827 510.257 448.166C511.541 447.505 512.655 446.571 513.599 445.362L517.195 448.846C516.535 449.809 515.675 450.734 514.618 451.621C513.561 452.49 512.268 453.198 510.738 453.745C509.228 454.293 507.472 454.566 505.471 454.566ZM542.684 423.357H548.886V453.15C548.886 455.907 548.3 458.248 547.13 460.174C545.959 462.1 544.326 463.563 542.23 464.563C540.135 465.583 537.709 466.093 534.952 466.093C533.782 466.093 532.479 465.923 531.044 465.583C529.628 465.243 528.25 464.696 526.909 463.94C525.588 463.204 524.483 462.232 523.596 461.023L526.796 457.002C527.891 458.305 529.099 459.258 530.421 459.862C531.743 460.466 533.13 460.769 534.584 460.769C536.151 460.769 537.482 460.476 538.577 459.891C539.691 459.324 540.55 458.484 541.154 457.37C541.758 456.256 542.061 454.897 542.061 453.292V430.296L542.684 423.357ZM521.868 439.019V438.424C521.868 436.102 522.151 433.987 522.718 432.08C523.284 430.154 524.096 428.502 525.153 427.124C526.211 425.727 527.494 424.66 529.005 423.924C530.515 423.169 532.224 422.791 534.131 422.791C536.113 422.791 537.803 423.15 539.2 423.867C540.616 424.585 541.796 425.614 542.74 426.954C543.684 428.276 544.421 429.862 544.949 431.712C545.497 433.543 545.903 435.582 546.167 437.829V439.727C545.922 441.917 545.506 443.918 544.921 445.73C544.336 447.543 543.562 449.11 542.599 450.432C541.636 451.753 540.446 452.773 539.03 453.49C537.633 454.208 535.981 454.566 534.074 454.566C532.205 454.566 530.515 454.179 529.005 453.405C527.513 452.631 526.229 451.546 525.153 450.148C524.096 448.751 523.284 447.109 522.718 445.221C522.151 443.314 521.868 441.246 521.868 439.019ZM528.693 438.424V439.019C528.693 440.416 528.826 441.718 529.09 442.927C529.373 444.135 529.798 445.202 530.364 446.127C530.95 447.033 531.686 447.751 532.573 448.279C533.479 448.789 534.546 449.044 535.773 449.044C537.378 449.044 538.69 448.704 539.71 448.024C540.748 447.345 541.541 446.429 542.089 445.277C542.655 444.107 543.052 442.804 543.278 441.369V436.243C543.165 435.129 542.929 434.091 542.57 433.128C542.23 432.165 541.768 431.325 541.183 430.607C540.597 429.871 539.861 429.305 538.974 428.908C538.086 428.493 537.038 428.285 535.83 428.285C534.603 428.285 533.536 428.549 532.63 429.078C531.724 429.607 530.978 430.334 530.393 431.259C529.826 432.184 529.401 433.26 529.118 434.487C528.835 435.715 528.693 437.027 528.693 438.424ZM573.241 447.854V433.241C573.241 432.146 573.043 431.202 572.646 430.409C572.25 429.616 571.646 429.003 570.834 428.568C570.041 428.134 569.04 427.917 567.832 427.917C566.718 427.917 565.755 428.106 564.943 428.483C564.132 428.861 563.499 429.371 563.046 430.013C562.593 430.655 562.366 431.382 562.366 432.193H555.569C555.569 430.985 555.862 429.814 556.447 428.682C557.033 427.549 557.882 426.539 558.996 425.651C560.11 424.764 561.441 424.065 562.989 423.556C564.537 423.046 566.274 422.791 568.2 422.791C570.504 422.791 572.543 423.178 574.317 423.952C576.111 424.726 577.518 425.897 578.537 427.464C579.576 429.012 580.095 430.957 580.095 433.298V446.92C580.095 448.317 580.189 449.573 580.378 450.687C580.586 451.782 580.878 452.735 581.256 453.547V454H574.261C573.94 453.264 573.685 452.329 573.496 451.196C573.326 450.045 573.241 448.931 573.241 447.854ZM574.232 435.365L574.289 439.585H569.39C568.125 439.585 567.011 439.708 566.048 439.953C565.085 440.18 564.283 440.52 563.641 440.973C562.999 441.426 562.517 441.973 562.196 442.615C561.875 443.257 561.715 443.984 561.715 444.796C561.715 445.608 561.904 446.354 562.281 447.033C562.659 447.694 563.206 448.213 563.924 448.591C564.66 448.968 565.548 449.157 566.586 449.157C567.983 449.157 569.201 448.874 570.239 448.308C571.297 447.722 572.127 447.014 572.731 446.184C573.336 445.334 573.657 444.532 573.694 443.776L575.903 446.807C575.677 447.581 575.29 448.411 574.742 449.299C574.195 450.186 573.477 451.036 572.59 451.848C571.721 452.641 570.674 453.292 569.446 453.802C568.238 454.312 566.841 454.566 565.255 454.566C563.254 454.566 561.469 454.17 559.902 453.377C558.335 452.565 557.108 451.479 556.221 450.12C555.333 448.742 554.89 447.184 554.89 445.447C554.89 443.824 555.192 442.389 555.796 441.143C556.419 439.878 557.325 438.82 558.515 437.971C559.723 437.121 561.196 436.479 562.933 436.045C564.67 435.592 566.652 435.365 568.88 435.365H574.232ZM594.538 410.5V454H587.685V410.5H594.538ZM644.127 448.364V454H622.235V448.364H644.127ZM624.246 412.766V454H617.138V412.766H624.246ZM641.267 429.984V435.535H622.235V429.984H641.267ZM643.985 412.766V418.43H622.235V412.766H643.985ZM656.021 429.899V454H649.196V423.357H655.625L656.021 429.899ZM654.804 437.546L652.595 437.518C652.614 435.346 652.916 433.354 653.501 431.542C654.105 429.729 654.936 428.172 655.993 426.869C657.069 425.566 658.353 424.566 659.845 423.867C661.336 423.15 662.998 422.791 664.829 422.791C666.302 422.791 667.633 422.999 668.822 423.414C670.031 423.811 671.06 424.462 671.909 425.368C672.778 426.274 673.438 427.454 673.892 428.908C674.345 430.343 674.571 432.108 674.571 434.204V454H667.718V434.176C667.718 432.703 667.501 431.542 667.066 430.692C666.651 429.824 666.037 429.21 665.226 428.852C664.433 428.474 663.441 428.285 662.252 428.285C661.081 428.285 660.034 428.531 659.108 429.021C658.183 429.512 657.4 430.183 656.758 431.032C656.135 431.882 655.653 432.864 655.313 433.978C654.974 435.091 654.804 436.281 654.804 437.546ZM695.585 423.357V428.342H678.31V423.357H695.585ZM683.294 415.853H690.119V445.532C690.119 446.476 690.251 447.203 690.516 447.713C690.799 448.204 691.186 448.534 691.677 448.704C692.168 448.874 692.743 448.959 693.404 448.959C693.876 448.959 694.329 448.931 694.764 448.874C695.198 448.817 695.547 448.761 695.812 448.704L695.84 453.915C695.273 454.085 694.613 454.236 693.857 454.368C693.121 454.5 692.271 454.566 691.309 454.566C689.742 454.566 688.354 454.293 687.146 453.745C685.937 453.179 684.993 452.263 684.313 450.998C683.634 449.733 683.294 448.053 683.294 445.957V415.853ZM708.159 423.357V454H701.306V423.357H708.159ZM700.853 415.314C700.853 414.276 701.192 413.417 701.872 412.737C702.571 412.039 703.534 411.689 704.761 411.689C705.969 411.689 706.923 412.039 707.621 412.737C708.32 413.417 708.669 414.276 708.669 415.314C708.669 416.334 708.32 417.184 707.621 417.863C706.923 418.543 705.969 418.883 704.761 418.883C703.534 418.883 702.571 418.543 701.872 417.863C701.192 417.184 700.853 416.334 700.853 415.314ZM729.683 423.357V428.342H712.407V423.357H729.683ZM717.392 415.853H724.217V445.532C724.217 446.476 724.349 447.203 724.613 447.713C724.896 448.204 725.284 448.534 725.774 448.704C726.265 448.874 726.841 448.959 727.502 448.959C727.974 448.959 728.427 448.931 728.861 448.874C729.296 448.817 729.645 448.761 729.909 448.704L729.938 453.915C729.371 454.085 728.71 454.236 727.955 454.368C727.219 454.5 726.369 454.566 725.406 454.566C723.839 454.566 722.451 454.293 721.243 453.745C720.035 453.179 719.091 452.263 718.411 450.998C717.731 449.733 717.392 448.053 717.392 445.957V415.853ZM743.843 450.658L752.169 423.357H759.476L747.185 458.673C746.901 459.428 746.533 460.249 746.08 461.137C745.627 462.024 745.032 462.864 744.296 463.657C743.578 464.469 742.682 465.12 741.605 465.611C740.529 466.121 739.227 466.376 737.697 466.376C737.093 466.376 736.508 466.319 735.941 466.206C735.394 466.112 734.875 466.008 734.384 465.895L734.355 460.684C734.544 460.702 734.771 460.721 735.035 460.74C735.318 460.759 735.545 460.769 735.715 460.769C736.848 460.769 737.792 460.627 738.547 460.344C739.302 460.079 739.916 459.645 740.388 459.041C740.879 458.437 741.294 457.625 741.634 456.605L743.843 450.658ZM739.142 423.357L746.42 446.297L747.638 453.49L742.908 454.708L731.778 423.357H739.142Z" fill="#1C4670"/>
<path d="M206.503 295.469H86.911L68.0938 314.522V383.005C68.0938 423.436 102.698 456.224 145.445 456.224C187.535 456.224 222.514 424.107 222.514 383.005V314.522L206.503 295.469Z" fill="url(#paint0_linear_12_2357)"/>
<path d="M126.703 408.062C120.896 408.062 116.404 406.435 113.227 403.18C110.076 399.924 108.5 395.237 108.5 389.117V358.102C108.5 351.643 109.997 346.695 112.992 343.258C116.013 339.794 120.583 338.062 126.703 338.062C132.849 338.062 137.419 339.794 140.414 343.258C143.409 346.695 144.906 351.643 144.906 358.102V389.117C144.906 395.237 143.331 399.924 140.18 403.18C137.029 406.435 132.536 408.062 126.703 408.062ZM126.703 395.406C127.771 395.406 128.604 394.924 129.203 393.961C129.802 392.997 130.102 391.917 130.102 390.719V356.773C130.102 355.159 129.919 353.753 129.555 352.555C129.216 351.331 128.266 350.719 126.703 350.719C125.141 350.719 124.177 351.331 123.812 352.555C123.474 353.753 123.305 355.159 123.305 356.773V390.719C123.305 391.917 123.604 392.997 124.203 393.961C124.828 394.924 125.661 395.406 126.703 395.406ZM148.891 407.438V404.156C148.891 400.745 149.411 397.685 150.453 394.977C151.521 392.242 152.888 389.716 154.555 387.398C156.221 385.055 157.979 382.763 159.828 380.523C161.625 378.336 163.331 376.096 164.945 373.805C166.586 371.487 167.914 368.987 168.93 366.305C169.971 363.596 170.492 360.562 170.492 357.203C170.492 355.589 170.245 354.208 169.75 353.062C169.281 351.891 168.292 351.305 166.781 351.305C164.49 351.305 163.344 353.349 163.344 357.438V365.836H148.891C148.865 365.237 148.826 364.56 148.773 363.805C148.747 363.049 148.734 362.32 148.734 361.617C148.734 356.669 149.255 352.477 150.297 349.039C151.339 345.576 153.174 342.945 155.805 341.148C158.461 339.326 162.185 338.414 166.977 338.414C172.68 338.414 177.107 340.016 180.258 343.219C183.435 346.422 185.023 350.992 185.023 356.93C185.023 360.966 184.503 364.508 183.461 367.555C182.419 370.576 181.039 373.336 179.32 375.836C177.602 378.31 175.714 380.784 173.656 383.258C172.198 385.003 170.779 386.786 169.398 388.609C168.044 390.432 166.846 392.385 165.805 394.469H184.555V407.438H148.891Z" fill="white"/>
<path d="M239.586 286.008H51.0938L68.1222 309.039H222.543L239.586 286.008Z" fill="url(#paint1_linear_12_2357)"/>
<path d="M51.0625 286.008C41.5014 286.008 34.0156 293.342 34.0156 302.389V309.039H68.1093V302.389C68.1093 293.342 60.6272 286.008 51.0625 286.008Z" fill="url(#paint2_linear_12_2357)"/>
<path d="M239.562 286.008C249.131 286.008 256.617 293.342 256.617 302.389V309.039H222.516V302.389C222.516 293.342 229.998 286.008 239.562 286.008Z" fill="url(#paint3_linear_12_2357)"/>
<g filter="url(#filter1_d_12_2357)">
<path fill-rule="evenodd" clip-rule="evenodd" d="M945.956 46C968.065 46 985.98 63.9353 985.956 86.0438L985.801 227.482C985.777 249.556 967.876 267.438 945.801 267.438H818.055H74C51.9086 267.438 34 249.53 34 227.438V86C34 63.9086 51.9086 46 74 46H945.956Z" fill="white"/>
</g>
<path d="M377.597 131.766V173H370.545V131.766H377.597ZM390.539 131.766V137.43H357.716V131.766H390.539ZM402.037 169.658L410.363 142.357H417.67L405.379 177.673C405.096 178.428 404.728 179.249 404.274 180.137C403.821 181.024 403.227 181.864 402.49 182.657C401.773 183.469 400.876 184.12 399.8 184.611C398.724 185.121 397.421 185.376 395.892 185.376C395.287 185.376 394.702 185.319 394.136 185.206C393.588 185.112 393.069 185.008 392.578 184.895L392.55 179.684C392.739 179.702 392.965 179.721 393.229 179.74C393.513 179.759 393.739 179.769 393.909 179.769C395.042 179.769 395.986 179.627 396.741 179.344C397.496 179.079 398.11 178.645 398.582 178.041C399.073 177.437 399.488 176.625 399.828 175.605L402.037 169.658ZM397.336 142.357L404.614 165.297L405.832 172.49L401.103 173.708L389.973 142.357H397.336ZM428.432 148.248V184.781H421.606V142.357H427.894L428.432 148.248ZM448.397 157.396V157.99C448.397 160.218 448.133 162.285 447.604 164.192C447.095 166.08 446.33 167.732 445.311 169.148C444.31 170.546 443.073 171.631 441.601 172.405C440.128 173.179 438.429 173.566 436.503 173.566C434.596 173.566 432.925 173.217 431.49 172.519C430.074 171.801 428.875 170.791 427.894 169.488C426.912 168.186 426.119 166.656 425.515 164.9C424.929 163.126 424.514 161.181 424.269 159.066V156.772C424.514 154.526 424.929 152.487 425.515 150.655C426.119 148.824 426.912 147.247 427.894 145.926C428.875 144.604 430.074 143.585 431.49 142.867C432.906 142.15 434.558 141.791 436.446 141.791C438.372 141.791 440.081 142.169 441.572 142.924C443.064 143.66 444.319 144.717 445.339 146.096C446.358 147.455 447.123 149.098 447.633 151.023C448.143 152.93 448.397 155.054 448.397 157.396ZM441.572 157.99V157.396C441.572 155.979 441.44 154.667 441.176 153.459C440.911 152.232 440.496 151.156 439.93 150.23C439.363 149.305 438.636 148.588 437.749 148.078C436.881 147.549 435.833 147.285 434.605 147.285C433.397 147.285 432.359 147.493 431.49 147.908C430.622 148.305 429.895 148.862 429.31 149.579C428.724 150.297 428.271 151.137 427.95 152.1C427.629 153.044 427.403 154.073 427.271 155.187V160.681C427.497 162.04 427.884 163.286 428.432 164.419C428.979 165.552 429.753 166.458 430.754 167.138C431.773 167.799 433.076 168.129 434.662 168.129C435.889 168.129 436.937 167.865 437.806 167.336C438.674 166.807 439.382 166.08 439.93 165.155C440.496 164.211 440.911 163.126 441.176 161.898C441.44 160.671 441.572 159.368 441.572 157.99ZM467.712 173.566C465.446 173.566 463.398 173.198 461.566 172.462C459.754 171.707 458.206 170.659 456.922 169.318C455.657 167.978 454.685 166.401 454.005 164.589C453.325 162.776 452.985 160.822 452.985 158.727V157.594C452.985 155.196 453.335 153.025 454.033 151.08C454.732 149.135 455.704 147.474 456.95 146.096C458.196 144.699 459.669 143.632 461.368 142.896C463.067 142.159 464.908 141.791 466.891 141.791C469.081 141.791 470.997 142.159 472.64 142.896C474.282 143.632 475.642 144.67 476.718 146.011C477.813 147.332 478.625 148.909 479.153 150.74C479.701 152.572 479.975 154.592 479.975 156.801V159.718H456.299V154.818H473.234V154.28C473.197 153.053 472.951 151.901 472.498 150.825C472.064 149.749 471.394 148.881 470.487 148.22C469.581 147.559 468.373 147.229 466.862 147.229C465.729 147.229 464.719 147.474 463.832 147.965C462.964 148.437 462.237 149.126 461.651 150.032C461.066 150.938 460.613 152.034 460.292 153.317C459.99 154.582 459.839 156.008 459.839 157.594V158.727C459.839 160.067 460.018 161.313 460.377 162.465C460.755 163.598 461.302 164.589 462.02 165.438C462.737 166.288 463.605 166.958 464.625 167.449C465.645 167.921 466.806 168.157 468.108 168.157C469.751 168.157 471.214 167.827 472.498 167.166C473.782 166.505 474.896 165.571 475.84 164.362L479.437 167.846C478.776 168.809 477.917 169.734 476.859 170.621C475.802 171.49 474.509 172.198 472.979 172.745C471.469 173.293 469.713 173.566 467.712 173.566ZM502.489 164.702C502.489 164.022 502.319 163.409 501.979 162.861C501.64 162.295 500.988 161.785 500.025 161.332C499.081 160.879 497.684 160.464 495.834 160.086C494.21 159.727 492.719 159.302 491.359 158.812C490.019 158.302 488.867 157.688 487.904 156.971C486.941 156.253 486.196 155.404 485.667 154.422C485.138 153.44 484.874 152.307 484.874 151.023C484.874 149.777 485.148 148.597 485.695 147.483C486.243 146.369 487.026 145.388 488.046 144.538C489.065 143.688 490.302 143.018 491.756 142.527C493.229 142.036 494.871 141.791 496.684 141.791C499.251 141.791 501.451 142.225 503.282 143.094C505.132 143.943 506.549 145.104 507.53 146.577C508.512 148.031 509.003 149.674 509.003 151.505H502.178C502.178 150.693 501.97 149.938 501.555 149.239C501.158 148.522 500.554 147.946 499.742 147.512C498.93 147.059 497.911 146.832 496.684 146.832C495.513 146.832 494.541 147.021 493.767 147.398C493.011 147.757 492.445 148.229 492.067 148.814C491.709 149.4 491.529 150.042 491.529 150.74C491.529 151.25 491.624 151.713 491.812 152.128C492.02 152.524 492.36 152.893 492.832 153.232C493.304 153.553 493.946 153.855 494.758 154.139C495.589 154.422 496.627 154.696 497.873 154.96C500.214 155.451 502.225 156.083 503.905 156.857C505.604 157.613 506.907 158.594 507.813 159.803C508.72 160.992 509.173 162.503 509.173 164.334C509.173 165.693 508.88 166.939 508.295 168.072C507.729 169.186 506.898 170.159 505.803 170.989C504.708 171.801 503.396 172.434 501.866 172.887C500.356 173.34 498.657 173.566 496.769 173.566C493.993 173.566 491.643 173.076 489.717 172.094C487.791 171.093 486.328 169.819 485.327 168.271C484.345 166.703 483.854 165.08 483.854 163.399H490.453C490.529 164.664 490.878 165.674 491.501 166.43C492.143 167.166 492.936 167.704 493.88 168.044C494.843 168.365 495.834 168.525 496.854 168.525C498.081 168.525 499.11 168.365 499.94 168.044C500.771 167.704 501.404 167.251 501.838 166.685C502.272 166.099 502.489 165.438 502.489 164.702ZM528.289 158.019V157.367C528.289 155.158 528.61 153.11 529.252 151.222C529.894 149.315 530.819 147.663 532.027 146.266C533.255 144.85 534.746 143.755 536.502 142.98C538.277 142.188 540.278 141.791 542.506 141.791C544.753 141.791 546.754 142.188 548.51 142.98C550.285 143.755 551.785 144.85 553.013 146.266C554.24 147.663 555.174 149.315 555.816 151.222C556.458 153.11 556.779 155.158 556.779 157.367V158.019C556.779 160.228 556.458 162.276 555.816 164.164C555.174 166.052 554.24 167.704 553.013 169.12C551.785 170.517 550.294 171.612 548.538 172.405C546.782 173.179 544.79 173.566 542.562 173.566C540.316 173.566 538.305 173.179 536.53 172.405C534.774 171.612 533.283 170.517 532.056 169.12C530.828 167.704 529.894 166.052 529.252 164.164C528.61 162.276 528.289 160.228 528.289 158.019ZM535.114 157.367V158.019C535.114 159.397 535.256 160.7 535.539 161.927C535.822 163.154 536.266 164.23 536.87 165.155C537.474 166.08 538.248 166.807 539.192 167.336C540.136 167.865 541.26 168.129 542.562 168.129C543.827 168.129 544.923 167.865 545.848 167.336C546.792 166.807 547.566 166.08 548.17 165.155C548.774 164.23 549.218 163.154 549.501 161.927C549.803 160.7 549.954 159.397 549.954 158.019V157.367C549.954 156.008 549.803 154.724 549.501 153.516C549.218 152.288 548.765 151.203 548.142 150.259C547.537 149.315 546.763 148.578 545.819 148.05C544.894 147.502 543.79 147.229 542.506 147.229C541.222 147.229 540.108 147.502 539.164 148.05C538.239 148.578 537.474 149.315 536.87 150.259C536.266 151.203 535.822 152.288 535.539 153.516C535.256 154.724 535.114 156.008 535.114 157.367ZM571.732 173H564.907V139.412C564.907 137.128 565.332 135.211 566.182 133.663C567.05 132.096 568.287 130.916 569.892 130.123C571.496 129.311 573.394 128.905 575.584 128.905C576.264 128.905 576.934 128.952 577.595 129.047C578.256 129.122 578.897 129.245 579.521 129.415L579.351 134.683C578.973 134.588 578.558 134.522 578.104 134.484C577.67 134.447 577.198 134.428 576.688 134.428C575.65 134.428 574.753 134.626 573.998 135.022C573.262 135.4 572.695 135.957 572.299 136.693C571.921 137.43 571.732 138.336 571.732 139.412V173ZM578.048 142.357V147.342H560.206V142.357H578.048ZM597.476 129.5H604.301V166.458L603.649 173H597.476V129.5ZM624.295 157.396V157.99C624.295 160.256 624.04 162.342 623.53 164.249C623.039 166.137 622.284 167.78 621.265 169.177C620.264 170.574 619.018 171.66 617.526 172.434C616.054 173.189 614.345 173.566 612.4 173.566C610.493 173.566 608.832 173.208 607.416 172.49C606 171.773 604.811 170.753 603.848 169.432C602.904 168.11 602.139 166.534 601.554 164.702C600.968 162.871 600.553 160.851 600.308 158.642V156.744C600.553 154.516 600.968 152.496 601.554 150.684C602.139 148.852 602.904 147.276 603.848 145.954C604.811 144.614 605.991 143.585 607.388 142.867C608.804 142.15 610.456 141.791 612.344 141.791C614.307 141.791 616.035 142.169 617.526 142.924C619.037 143.679 620.292 144.755 621.293 146.152C622.294 147.531 623.039 149.173 623.53 151.08C624.04 152.987 624.295 155.092 624.295 157.396ZM617.47 157.99V157.396C617.47 156.017 617.356 154.724 617.13 153.516C616.903 152.288 616.526 151.212 615.997 150.287C615.487 149.362 614.789 148.635 613.901 148.106C613.033 147.559 611.947 147.285 610.645 147.285C609.436 147.285 608.398 147.493 607.529 147.908C606.661 148.324 605.934 148.89 605.349 149.607C604.763 150.325 604.301 151.156 603.961 152.1C603.64 153.044 603.423 154.063 603.31 155.158V160.284C603.479 161.7 603.838 163.003 604.386 164.192C604.952 165.363 605.745 166.307 606.765 167.024C607.784 167.723 609.096 168.072 610.701 168.072C611.966 168.072 613.033 167.817 613.901 167.308C614.77 166.798 615.459 166.09 615.969 165.184C616.497 164.258 616.875 163.182 617.102 161.955C617.347 160.728 617.47 159.406 617.47 157.99ZM648.509 165.778V142.357H655.362V173H648.905L648.509 165.778ZM649.472 159.406L651.766 159.35C651.766 161.408 651.539 163.305 651.086 165.042C650.633 166.76 649.934 168.261 648.99 169.545C648.046 170.81 646.838 171.801 645.365 172.519C643.893 173.217 642.127 173.566 640.069 173.566C638.578 173.566 637.209 173.349 635.963 172.915C634.717 172.481 633.641 171.811 632.734 170.904C631.847 169.998 631.158 168.818 630.667 167.364C630.176 165.91 629.931 164.174 629.931 162.153V142.357H636.756V162.21C636.756 163.324 636.888 164.258 637.152 165.014C637.417 165.75 637.775 166.345 638.229 166.798C638.682 167.251 639.21 167.572 639.814 167.761C640.419 167.95 641.061 168.044 641.74 168.044C643.685 168.044 645.214 167.666 646.328 166.911C647.461 166.137 648.263 165.099 648.735 163.796C649.226 162.493 649.472 161.03 649.472 159.406ZM679.548 164.702C679.548 164.022 679.378 163.409 679.038 162.861C678.698 162.295 678.047 161.785 677.084 161.332C676.14 160.879 674.743 160.464 672.893 160.086C671.269 159.727 669.777 159.302 668.418 158.812C667.077 158.302 665.926 157.688 664.963 156.971C664 156.253 663.254 155.404 662.726 154.422C662.197 153.44 661.933 152.307 661.933 151.023C661.933 149.777 662.206 148.597 662.754 147.483C663.301 146.369 664.085 145.388 665.104 144.538C666.124 143.688 667.361 143.018 668.814 142.527C670.287 142.036 671.93 141.791 673.742 141.791C676.31 141.791 678.509 142.225 680.341 143.094C682.191 143.943 683.607 145.104 684.589 146.577C685.571 148.031 686.062 149.674 686.062 151.505H679.236C679.236 150.693 679.029 149.938 678.613 149.239C678.217 148.522 677.613 147.946 676.801 147.512C675.989 147.059 674.969 146.832 673.742 146.832C672.572 146.832 671.599 147.021 670.825 147.398C670.07 147.757 669.504 148.229 669.126 148.814C668.767 149.4 668.588 150.042 668.588 150.74C668.588 151.25 668.682 151.713 668.871 152.128C669.079 152.524 669.419 152.893 669.891 153.232C670.363 153.553 671.005 153.855 671.816 154.139C672.647 154.422 673.686 154.696 674.932 154.96C677.273 155.451 679.284 156.083 680.964 156.857C682.663 157.613 683.966 158.594 684.872 159.803C685.778 160.992 686.231 162.503 686.231 164.334C686.231 165.693 685.939 166.939 685.354 168.072C684.787 169.186 683.956 170.159 682.861 170.989C681.766 171.801 680.454 172.434 678.925 172.887C677.414 173.34 675.715 173.566 673.827 173.566C671.052 173.566 668.701 173.076 666.775 172.094C664.85 171.093 663.386 169.819 662.386 168.271C661.404 166.703 660.913 165.08 660.913 163.399H667.512C667.587 164.664 667.937 165.674 668.56 166.43C669.201 167.166 669.994 167.704 670.938 168.044C671.901 168.365 672.893 168.525 673.912 168.525C675.139 168.525 676.168 168.365 676.999 168.044C677.83 167.704 678.462 167.251 678.896 166.685C679.331 166.099 679.548 165.438 679.548 164.702ZM699.514 142.357V173H692.66V142.357H699.514ZM692.207 134.314C692.207 133.276 692.547 132.417 693.227 131.737C693.925 131.039 694.888 130.689 696.115 130.689C697.324 130.689 698.277 131.039 698.976 131.737C699.674 132.417 700.023 133.276 700.023 134.314C700.023 135.334 699.674 136.184 698.976 136.863C698.277 137.543 697.324 137.883 696.115 137.883C694.888 137.883 693.925 137.543 693.227 136.863C692.547 136.184 692.207 135.334 692.207 134.314ZM713.759 148.899V173H706.934V142.357H713.362L713.759 148.899ZM712.541 156.546L710.332 156.518C710.351 154.346 710.653 152.354 711.238 150.542C711.842 148.729 712.673 147.172 713.73 145.869C714.807 144.566 716.09 143.566 717.582 142.867C719.074 142.15 720.735 141.791 722.566 141.791C724.039 141.791 725.37 141.999 726.56 142.414C727.768 142.811 728.797 143.462 729.646 144.368C730.515 145.274 731.176 146.454 731.629 147.908C732.082 149.343 732.309 151.108 732.309 153.204V173H725.455V153.176C725.455 151.703 725.238 150.542 724.804 149.692C724.388 148.824 723.775 148.21 722.963 147.852C722.17 147.474 721.179 147.285 719.989 147.285C718.819 147.285 717.771 147.531 716.846 148.021C715.921 148.512 715.137 149.183 714.495 150.032C713.872 150.882 713.391 151.864 713.051 152.978C712.711 154.091 712.541 155.281 712.541 156.546ZM752.784 173.566C750.519 173.566 748.47 173.198 746.639 172.462C744.826 171.707 743.278 170.659 741.994 169.318C740.729 167.978 739.757 166.401 739.077 164.589C738.397 162.776 738.058 160.822 738.058 158.727V157.594C738.058 155.196 738.407 153.025 739.105 151.08C739.804 149.135 740.776 147.474 742.022 146.096C743.269 144.699 744.741 143.632 746.44 142.896C748.14 142.159 749.98 141.791 751.963 141.791C754.153 141.791 756.069 142.159 757.712 142.896C759.354 143.632 760.714 144.67 761.79 146.011C762.885 147.332 763.697 148.909 764.226 150.74C764.773 152.572 765.047 154.592 765.047 156.801V159.718H741.371V154.818H758.307V154.28C758.269 153.053 758.023 151.901 757.57 150.825C757.136 149.749 756.466 148.881 755.56 148.22C754.653 147.559 753.445 147.229 751.935 147.229C750.802 147.229 749.792 147.474 748.904 147.965C748.036 148.437 747.309 149.126 746.724 150.032C746.138 150.938 745.685 152.034 745.364 153.317C745.062 154.582 744.911 156.008 744.911 157.594V158.727C744.911 160.067 745.09 161.313 745.449 162.465C745.827 163.598 746.374 164.589 747.092 165.438C747.809 166.288 748.678 166.958 749.697 167.449C750.717 167.921 751.878 168.157 753.181 168.157C754.823 168.157 756.286 167.827 757.57 167.166C758.854 166.505 759.968 165.571 760.912 164.362L764.509 167.846C763.848 168.809 762.989 169.734 761.932 170.621C760.874 171.49 759.581 172.198 758.052 172.745C756.541 173.293 754.785 173.566 752.784 173.566ZM787.562 164.702C787.562 164.022 787.392 163.409 787.052 162.861C786.712 162.295 786.061 161.785 785.098 161.332C784.154 160.879 782.757 160.464 780.906 160.086C779.283 159.727 777.791 159.302 776.432 158.812C775.091 158.302 773.939 157.688 772.977 156.971C772.014 156.253 771.268 155.404 770.739 154.422C770.211 153.44 769.946 152.307 769.946 151.023C769.946 149.777 770.22 148.597 770.768 147.483C771.315 146.369 772.099 145.388 773.118 144.538C774.138 143.688 775.374 143.018 776.828 142.527C778.301 142.036 779.943 141.791 781.756 141.791C784.324 141.791 786.523 142.225 788.354 143.094C790.205 143.943 791.621 145.104 792.603 146.577C793.584 148.031 794.075 149.674 794.075 151.505H787.25C787.25 150.693 787.042 149.938 786.627 149.239C786.23 148.522 785.626 147.946 784.814 147.512C784.003 147.059 782.983 146.832 781.756 146.832C780.585 146.832 779.613 147.021 778.839 147.398C778.084 147.757 777.517 148.229 777.14 148.814C776.781 149.4 776.602 150.042 776.602 150.74C776.602 151.25 776.696 151.713 776.885 152.128C777.092 152.524 777.432 152.893 777.904 153.232C778.376 153.553 779.018 153.855 779.83 154.139C780.661 154.422 781.699 154.696 782.945 154.96C785.286 155.451 787.297 156.083 788.978 156.857C790.677 157.613 791.979 158.594 792.886 159.803C793.792 160.992 794.245 162.503 794.245 164.334C794.245 165.693 793.952 166.939 793.367 168.072C792.801 169.186 791.97 170.159 790.875 170.989C789.78 171.801 788.468 172.434 786.938 172.887C785.428 173.34 783.729 173.566 781.841 173.566C779.065 173.566 776.715 173.076 774.789 172.094C772.863 171.093 771.4 169.819 770.399 168.271C769.418 166.703 768.927 165.08 768.927 163.399H775.525C775.601 164.664 775.95 165.674 776.573 166.43C777.215 167.166 778.008 167.704 778.952 168.044C779.915 168.365 780.906 168.525 781.926 168.525C783.153 168.525 784.182 168.365 785.013 168.044C785.843 167.704 786.476 167.251 786.91 166.685C787.344 166.099 787.562 165.438 787.562 164.702ZM817.411 164.702C817.411 164.022 817.241 163.409 816.901 162.861C816.562 162.295 815.91 161.785 814.947 161.332C814.003 160.879 812.606 160.464 810.756 160.086C809.132 159.727 807.641 159.302 806.281 158.812C804.941 158.302 803.789 157.688 802.826 156.971C801.863 156.253 801.118 155.404 800.589 154.422C800.06 153.44 799.796 152.307 799.796 151.023C799.796 149.777 800.07 148.597 800.617 147.483C801.165 146.369 801.948 145.388 802.968 144.538C803.987 143.688 805.224 143.018 806.678 142.527C808.15 142.036 809.793 141.791 811.605 141.791C814.173 141.791 816.373 142.225 818.204 143.094C820.054 143.943 821.47 145.104 822.452 146.577C823.434 148.031 823.925 149.674 823.925 151.505H817.1C817.1 150.693 816.892 149.938 816.477 149.239C816.08 148.522 815.476 147.946 814.664 147.512C813.852 147.059 812.833 146.832 811.605 146.832C810.435 146.832 809.463 147.021 808.688 147.398C807.933 147.757 807.367 148.229 806.989 148.814C806.631 149.4 806.451 150.042 806.451 150.74C806.451 151.25 806.546 151.713 806.734 152.128C806.942 152.524 807.282 152.893 807.754 153.232C808.226 153.553 808.868 153.855 809.68 154.139C810.51 154.422 811.549 154.696 812.795 154.96C815.136 155.451 817.147 156.083 818.827 156.857C820.526 157.613 821.829 158.594 822.735 159.803C823.642 160.992 824.095 162.503 824.095 164.334C824.095 165.693 823.802 166.939 823.217 168.072C822.65 169.186 821.82 170.159 820.725 170.989C819.63 171.801 818.317 172.434 816.788 172.887C815.278 173.34 813.578 173.566 811.69 173.566C808.915 173.566 806.564 173.076 804.639 172.094C802.713 171.093 801.25 169.819 800.249 168.271C799.267 166.703 798.776 165.08 798.776 163.399H805.375C805.451 164.664 805.8 165.674 806.423 166.43C807.065 167.166 807.858 167.704 808.802 168.044C809.765 168.365 810.756 168.525 811.775 168.525C813.003 168.525 814.032 168.365 814.862 168.044C815.693 167.704 816.326 167.251 816.76 166.685C817.194 166.099 817.411 165.438 817.411 164.702Z" fill="#1C4670"/>
<path d="M206.511 23.1875H86.9188L68.1016 42.2409V110.727C68.1016 151.162 102.706 183.946 145.453 183.946C187.543 183.946 222.522 151.826 222.522 110.727V42.2409L206.511 23.1875Z" fill="url(#paint4_linear_12_2357)"/>
<path d="M130.75 132C124.943 132 120.451 130.372 117.273 127.117C114.122 123.862 112.547 119.174 112.547 113.055V82.0391C112.547 75.5807 114.044 70.6328 117.039 67.1953C120.06 63.7318 124.63 62 130.75 62C136.896 62 141.466 63.7318 144.461 67.1953C147.456 70.6328 148.953 75.5807 148.953 82.0391V113.055C148.953 119.174 147.378 123.862 144.227 127.117C141.076 130.372 136.583 132 130.75 132ZM130.75 119.344C131.818 119.344 132.651 118.862 133.25 117.898C133.849 116.935 134.148 115.854 134.148 114.656V80.7109C134.148 79.0964 133.966 77.6901 133.602 76.4922C133.263 75.2682 132.312 74.6562 130.75 74.6562C129.188 74.6562 128.224 75.2682 127.859 76.4922C127.521 77.6901 127.352 79.0964 127.352 80.7109V114.656C127.352 115.854 127.651 116.935 128.25 117.898C128.875 118.862 129.708 119.344 130.75 119.344ZM160.008 131.375V78.4062C159.07 79.526 157.781 80.4375 156.141 81.1406C154.5 81.8177 152.951 82.1562 151.492 82.1562V71.1797C152.872 70.9714 154.357 70.5286 155.945 69.8516C157.534 69.1484 159.005 68.1979 160.359 67C161.74 65.776 162.794 64.3047 163.523 62.5859H174.578V131.375H160.008Z" fill="white"/>
<path d="M239.586 23.1875H51.0938L68.1222 46.219H222.543L239.586 23.1875Z" fill="url(#paint5_linear_12_2357)"/>
<path d="M51.0625 23.1875C41.5014 23.1875 34.0156 30.5219 34.0156 39.5726V46.219H68.1093V39.5726C68.1093 30.5219 60.6272 23.1875 51.0625 23.1875Z" fill="url(#paint6_linear_12_2357)"/>
<path d="M239.562 23.1875C249.131 23.1875 256.617 30.5219 256.617 39.5726V46.219H222.516V39.5726C222.516 30.5219 229.998 23.1875 239.562 23.1875Z" fill="url(#paint7_linear_12_2357)"/>
<g filter="url(#filter2_d_12_2357)">
<path fill-rule="evenodd" clip-rule="evenodd" d="M945.956 848C968.065 848 985.98 865.935 985.956 888.044L985.801 1029.49C985.777 1051.56 967.876 1069.44 945.801 1069.44H818.055H74C51.9086 1069.44 34 1051.53 34 1029.44V888C34 865.909 51.9086 848 74 848H945.956Z" fill="white"/>
</g>
<path d="M364.408 925.766V967H357.3V925.766H364.408ZM381.23 943.806V949.441H362.596V943.806H381.23ZM383.581 925.766V931.43H362.596V925.766H383.581ZM395.872 936.357V967H389.019V936.357H395.872ZM388.565 928.314C388.565 927.276 388.905 926.417 389.585 925.737C390.284 925.039 391.246 924.689 392.474 924.689C393.682 924.689 394.635 925.039 395.334 925.737C396.033 926.417 396.382 927.276 396.382 928.314C396.382 929.334 396.033 930.184 395.334 930.863C394.635 931.543 393.682 931.883 392.474 931.883C391.246 931.883 390.284 931.543 389.585 930.863C388.905 930.184 388.565 929.334 388.565 928.314ZM410.117 942.899V967H403.292V936.357H409.721L410.117 942.899ZM408.899 950.546L406.69 950.518C406.709 948.346 407.011 946.354 407.597 944.542C408.201 942.729 409.032 941.172 410.089 939.869C411.165 938.566 412.449 937.566 413.94 936.867C415.432 936.15 417.093 935.791 418.925 935.791C420.397 935.791 421.729 935.999 422.918 936.414C424.126 936.811 425.155 937.462 426.005 938.368C426.873 939.274 427.534 940.454 427.987 941.908C428.44 943.343 428.667 945.108 428.667 947.204V967H421.813V947.176C421.813 945.703 421.596 944.542 421.162 943.692C420.747 942.824 420.133 942.21 419.321 941.852C418.528 941.474 417.537 941.285 416.348 941.285C415.177 941.285 414.129 941.531 413.204 942.021C412.279 942.512 411.495 943.183 410.854 944.032C410.23 944.882 409.749 945.864 409.409 946.978C409.069 948.091 408.899 949.281 408.899 950.546ZM452.909 960.854V946.241C452.909 945.146 452.711 944.202 452.314 943.409C451.918 942.616 451.314 942.003 450.502 941.568C449.709 941.134 448.708 940.917 447.5 940.917C446.386 940.917 445.423 941.106 444.611 941.483C443.799 941.861 443.167 942.371 442.714 943.013C442.261 943.655 442.034 944.382 442.034 945.193H435.237C435.237 943.985 435.53 942.814 436.115 941.682C436.701 940.549 437.55 939.539 438.664 938.651C439.778 937.764 441.109 937.065 442.657 936.556C444.205 936.046 445.942 935.791 447.868 935.791C450.172 935.791 452.211 936.178 453.985 936.952C455.779 937.726 457.186 938.897 458.205 940.464C459.243 942.012 459.763 943.957 459.763 946.298V959.92C459.763 961.317 459.857 962.573 460.046 963.687C460.254 964.782 460.546 965.735 460.924 966.547V967H453.929C453.608 966.264 453.353 965.329 453.164 964.196C452.994 963.045 452.909 961.931 452.909 960.854ZM453.9 948.365L453.957 952.585H449.058C447.793 952.585 446.679 952.708 445.716 952.953C444.753 953.18 443.951 953.52 443.309 953.973C442.667 954.426 442.185 954.973 441.864 955.615C441.543 956.257 441.383 956.984 441.383 957.796C441.383 958.608 441.572 959.354 441.949 960.033C442.327 960.694 442.874 961.213 443.592 961.591C444.328 961.968 445.215 962.157 446.254 962.157C447.651 962.157 448.869 961.874 449.907 961.308C450.965 960.722 451.795 960.014 452.399 959.184C453.004 958.334 453.325 957.532 453.362 956.776L455.571 959.807C455.345 960.581 454.958 961.411 454.41 962.299C453.863 963.186 453.145 964.036 452.258 964.848C451.389 965.641 450.341 966.292 449.114 966.802C447.906 967.312 446.509 967.566 444.923 967.566C442.922 967.566 441.137 967.17 439.57 966.377C438.003 965.565 436.776 964.479 435.889 963.12C435.001 961.742 434.558 960.184 434.558 958.447C434.558 956.824 434.86 955.389 435.464 954.143C436.087 952.878 436.993 951.82 438.183 950.971C439.391 950.121 440.864 949.479 442.601 949.045C444.338 948.592 446.32 948.365 448.548 948.365H453.9ZM473.668 942.899V967H466.843V936.357H473.271L473.668 942.899ZM472.45 950.546L470.241 950.518C470.26 948.346 470.562 946.354 471.147 944.542C471.752 942.729 472.582 941.172 473.64 939.869C474.716 938.566 476 937.566 477.491 936.867C478.983 936.15 480.644 935.791 482.476 935.791C483.948 935.791 485.279 935.999 486.469 936.414C487.677 936.811 488.706 937.462 489.556 938.368C490.424 939.274 491.085 940.454 491.538 941.908C491.991 943.343 492.218 945.108 492.218 947.204V967H485.364V947.176C485.364 945.703 485.147 944.542 484.713 943.692C484.298 942.824 483.684 942.21 482.872 941.852C482.079 941.474 481.088 941.285 479.898 941.285C478.728 941.285 477.68 941.531 476.755 942.021C475.83 942.512 475.046 943.183 474.404 944.032C473.781 944.882 473.3 945.864 472.96 946.978C472.62 948.091 472.45 949.281 472.45 950.546ZM511.702 962.129C512.816 962.129 513.817 961.912 514.704 961.478C515.61 961.024 516.337 960.401 516.885 959.608C517.451 958.815 517.763 957.9 517.819 956.861H524.248C524.21 958.844 523.625 960.647 522.492 962.271C521.359 963.894 519.858 965.188 517.989 966.15C516.12 967.094 514.053 967.566 511.787 967.566C509.446 967.566 507.407 967.17 505.67 966.377C503.933 965.565 502.489 964.451 501.337 963.035C500.185 961.619 499.317 959.986 498.731 958.136C498.165 956.285 497.882 954.303 497.882 952.188V951.197C497.882 949.083 498.165 947.1 498.731 945.25C499.317 943.381 500.185 941.738 501.337 940.322C502.489 938.906 503.933 937.802 505.67 937.009C507.407 936.197 509.437 935.791 511.759 935.791C514.213 935.791 516.366 936.282 518.216 937.264C520.066 938.227 521.52 939.576 522.577 941.313C523.653 943.032 524.21 945.033 524.248 947.317H517.819C517.763 946.185 517.479 945.165 516.97 944.259C516.479 943.334 515.78 942.597 514.874 942.05C513.987 941.502 512.92 941.229 511.674 941.229C510.296 941.229 509.153 941.512 508.247 942.078C507.341 942.626 506.633 943.381 506.123 944.344C505.613 945.288 505.245 946.354 505.019 947.544C504.811 948.715 504.707 949.932 504.707 951.197V952.188C504.707 953.453 504.811 954.681 505.019 955.87C505.226 957.06 505.585 958.126 506.095 959.07C506.623 959.995 507.341 960.741 508.247 961.308C509.153 961.855 510.305 962.129 511.702 962.129ZM536.794 936.357V967H529.94V936.357H536.794ZM529.487 928.314C529.487 927.276 529.827 926.417 530.507 925.737C531.205 925.039 532.168 924.689 533.396 924.689C534.604 924.689 535.557 925.039 536.256 925.737C536.954 926.417 537.304 927.276 537.304 928.314C537.304 929.334 536.954 930.184 536.256 930.863C535.557 931.543 534.604 931.883 533.396 931.883C532.168 931.883 531.205 931.543 530.507 930.863C529.827 930.184 529.487 929.334 529.487 928.314ZM561.546 960.854V946.241C561.546 945.146 561.348 944.202 560.951 943.409C560.555 942.616 559.951 942.003 559.139 941.568C558.346 941.134 557.345 940.917 556.137 940.917C555.023 940.917 554.06 941.106 553.248 941.483C552.436 941.861 551.804 942.371 551.351 943.013C550.897 943.655 550.671 944.382 550.671 945.193H543.874C543.874 943.985 544.167 942.814 544.752 941.682C545.337 940.549 546.187 939.539 547.301 938.651C548.415 937.764 549.746 937.065 551.294 936.556C552.842 936.046 554.579 935.791 556.505 935.791C558.808 935.791 560.847 936.178 562.622 936.952C564.416 937.726 565.822 938.897 566.842 940.464C567.88 942.012 568.399 943.957 568.399 946.298V959.92C568.399 961.317 568.494 962.573 568.683 963.687C568.89 964.782 569.183 965.735 569.561 966.547V967H562.565C562.244 966.264 561.99 965.329 561.801 964.196C561.631 963.045 561.546 961.931 561.546 960.854ZM562.537 948.365L562.594 952.585H557.694C556.429 952.585 555.315 952.708 554.353 952.953C553.39 953.18 552.587 953.52 551.945 953.973C551.303 954.426 550.822 954.973 550.501 955.615C550.18 956.257 550.02 956.984 550.02 957.796C550.02 958.608 550.208 959.354 550.586 960.033C550.964 960.694 551.511 961.213 552.229 961.591C552.965 961.968 553.852 962.157 554.891 962.157C556.288 962.157 557.506 961.874 558.544 961.308C559.601 960.722 560.432 960.014 561.036 959.184C561.64 958.334 561.961 957.532 561.999 956.776L564.208 959.807C563.981 960.581 563.594 961.411 563.047 962.299C562.499 963.186 561.782 964.036 560.895 964.848C560.026 965.641 558.978 966.292 557.751 966.802C556.543 967.312 555.146 967.566 553.56 967.566C551.558 967.566 549.774 967.17 548.207 966.377C546.64 965.565 545.413 964.479 544.525 963.12C543.638 961.742 543.194 960.184 543.194 958.447C543.194 956.824 543.496 955.389 544.101 954.143C544.724 952.878 545.63 951.82 546.819 950.971C548.028 950.121 549.5 949.479 551.237 949.045C552.974 948.592 554.957 948.365 557.185 948.365H562.537ZM582.843 923.5V967H575.989V923.5H582.843ZM627.136 956.38C627.136 955.53 627.004 954.775 626.739 954.114C626.494 953.453 626.05 952.849 625.408 952.302C624.766 951.754 623.86 951.226 622.689 950.716C621.538 950.187 620.065 949.649 618.271 949.102C616.308 948.497 614.495 947.827 612.834 947.091C611.191 946.336 609.757 945.467 608.529 944.485C607.302 943.485 606.349 942.342 605.669 941.059C604.989 939.756 604.649 938.255 604.649 936.556C604.649 934.875 604.999 933.346 605.697 931.968C606.415 930.59 607.425 929.4 608.728 928.399C610.049 927.38 611.607 926.596 613.4 926.049C615.194 925.482 617.176 925.199 619.348 925.199C622.406 925.199 625.04 925.766 627.249 926.898C629.477 928.031 631.186 929.551 632.375 931.458C633.583 933.365 634.188 935.47 634.188 937.773H627.136C627.136 936.414 626.843 935.215 626.258 934.177C625.691 933.119 624.823 932.289 623.652 931.685C622.501 931.08 621.037 930.778 619.263 930.778C617.582 930.778 616.185 931.033 615.071 931.543C613.957 932.053 613.127 932.742 612.579 933.61C612.032 934.479 611.758 935.461 611.758 936.556C611.758 937.33 611.937 938.038 612.296 938.68C612.655 939.303 613.202 939.888 613.938 940.436C614.675 940.964 615.6 941.465 616.714 941.937C617.828 942.409 619.14 942.862 620.65 943.296C622.935 943.976 624.927 944.731 626.626 945.562C628.325 946.373 629.741 947.299 630.874 948.337C632.007 949.375 632.856 950.555 633.423 951.877C633.989 953.18 634.272 954.662 634.272 956.323C634.272 958.06 633.923 959.627 633.225 961.024C632.526 962.403 631.525 963.583 630.223 964.564C628.939 965.527 627.391 966.273 625.578 966.802C623.785 967.312 621.783 967.566 619.574 967.566C617.592 967.566 615.638 967.302 613.712 966.773C611.805 966.245 610.068 965.442 608.501 964.366C606.934 963.271 605.688 961.912 604.763 960.288C603.838 958.646 603.375 956.729 603.375 954.539H610.483C610.483 955.88 610.71 957.022 611.163 957.966C611.635 958.91 612.286 959.684 613.117 960.288C613.948 960.873 614.911 961.308 616.006 961.591C617.12 961.874 618.309 962.016 619.574 962.016C621.236 962.016 622.623 961.78 623.737 961.308C624.87 960.836 625.72 960.175 626.286 959.325C626.853 958.476 627.136 957.494 627.136 956.38ZM653.927 936.357V941.342H636.651V936.357H653.927ZM641.636 928.853H648.461V958.532C648.461 959.476 648.593 960.203 648.857 960.713C649.141 961.204 649.528 961.534 650.019 961.704C650.509 961.874 651.085 961.959 651.746 961.959C652.218 961.959 652.671 961.931 653.105 961.874C653.54 961.817 653.889 961.761 654.153 961.704L654.182 966.915C653.615 967.085 652.954 967.236 652.199 967.368C651.463 967.5 650.613 967.566 649.65 967.566C648.083 967.566 646.696 967.293 645.487 966.745C644.279 966.179 643.335 965.263 642.655 963.998C641.976 962.733 641.636 961.053 641.636 958.957V928.853ZM676.47 960.854V946.241C676.47 945.146 676.271 944.202 675.875 943.409C675.479 942.616 674.874 942.003 674.062 941.568C673.27 941.134 672.269 940.917 671.061 940.917C669.947 940.917 668.984 941.106 668.172 941.483C667.36 941.861 666.728 942.371 666.274 943.013C665.821 943.655 665.595 944.382 665.595 945.193H658.798C658.798 943.985 659.09 942.814 659.676 941.682C660.261 940.549 661.111 939.539 662.225 938.651C663.339 937.764 664.67 937.065 666.218 936.556C667.766 936.046 669.503 935.791 671.429 935.791C673.732 935.791 675.771 936.178 677.546 936.952C679.34 937.726 680.746 938.897 681.766 940.464C682.804 942.012 683.323 943.957 683.323 946.298V959.92C683.323 961.317 683.418 962.573 683.606 963.687C683.814 964.782 684.107 965.735 684.484 966.547V967H677.489C677.168 966.264 676.913 965.329 676.725 964.196C676.555 963.045 676.47 961.931 676.47 960.854ZM677.461 948.365L677.518 952.585H672.618C671.353 952.585 670.239 952.708 669.276 952.953C668.313 953.18 667.511 953.52 666.869 953.973C666.227 954.426 665.746 954.973 665.425 955.615C665.104 956.257 664.943 956.984 664.943 957.796C664.943 958.608 665.132 959.354 665.51 960.033C665.887 960.694 666.435 961.213 667.152 961.591C667.889 961.968 668.776 962.157 669.814 962.157C671.212 962.157 672.429 961.874 673.468 961.308C674.525 960.722 675.356 960.014 675.96 959.184C676.564 958.334 676.885 957.532 676.923 956.776L679.132 959.807C678.905 960.581 678.518 961.411 677.971 962.299C677.423 963.186 676.706 964.036 675.818 964.848C674.95 965.641 673.902 966.292 672.675 966.802C671.466 967.312 670.069 967.566 668.483 967.566C666.482 967.566 664.698 967.17 663.131 966.377C661.564 965.565 660.337 964.479 659.449 963.12C658.562 961.742 658.118 960.184 658.118 958.447C658.118 956.824 658.42 955.389 659.024 954.143C659.647 952.878 660.554 951.82 661.743 950.971C662.951 950.121 664.424 949.479 666.161 949.045C667.898 948.592 669.881 948.365 672.108 948.365H677.461ZM697.229 942.899V967H690.403V936.357H696.832L697.229 942.899ZM696.011 950.546L693.802 950.518C693.821 948.346 694.123 946.354 694.708 944.542C695.312 942.729 696.143 941.172 697.2 939.869C698.276 938.566 699.56 937.566 701.052 936.867C702.543 936.15 704.205 935.791 706.036 935.791C707.509 935.791 708.84 935.999 710.029 936.414C711.238 936.811 712.267 937.462 713.116 938.368C713.985 939.274 714.646 940.454 715.099 941.908C715.552 943.343 715.778 945.108 715.778 947.204V967H708.925V947.176C708.925 945.703 708.708 944.542 708.273 943.692C707.858 942.824 707.244 942.21 706.433 941.852C705.64 941.474 704.648 941.285 703.459 941.285C702.288 941.285 701.241 941.531 700.315 942.021C699.39 942.512 698.607 943.183 697.965 944.032C697.342 944.882 696.86 945.864 696.521 946.978C696.181 948.091 696.011 949.281 696.011 950.546ZM741.437 960.656V923.5H748.29V967H742.088L741.437 960.656ZM721.499 952.019V951.424C721.499 949.102 721.773 946.987 722.32 945.08C722.868 943.154 723.661 941.502 724.699 940.124C725.738 938.727 727.003 937.66 728.494 936.924C729.986 936.169 731.666 935.791 733.535 935.791C735.385 935.791 737.009 936.15 738.406 936.867C739.803 937.585 740.993 938.614 741.975 939.954C742.956 941.276 743.74 942.862 744.325 944.712C744.91 946.543 745.326 948.582 745.571 950.829V952.727C745.326 954.917 744.91 956.918 744.325 958.73C743.74 960.543 742.956 962.11 741.975 963.432C740.993 964.753 739.794 965.773 738.378 966.49C736.981 967.208 735.348 967.566 733.479 967.566C731.628 967.566 729.957 967.179 728.466 966.405C726.993 965.631 725.738 964.546 724.699 963.148C723.661 961.751 722.868 960.109 722.32 958.221C721.773 956.314 721.499 954.246 721.499 952.019ZM728.324 951.424V952.019C728.324 953.416 728.447 954.718 728.692 955.927C728.957 957.135 729.363 958.202 729.91 959.127C730.458 960.033 731.166 960.751 732.034 961.279C732.922 961.789 733.979 962.044 735.206 962.044C736.754 962.044 738.029 961.704 739.029 961.024C740.03 960.345 740.813 959.429 741.38 958.277C741.965 957.107 742.362 955.804 742.569 954.369V949.243C742.456 948.129 742.22 947.091 741.861 946.128C741.521 945.165 741.059 944.325 740.474 943.607C739.888 942.871 739.161 942.305 738.293 941.908C737.443 941.493 736.433 941.285 735.263 941.285C734.017 941.285 732.959 941.549 732.091 942.078C731.222 942.607 730.505 943.334 729.938 944.259C729.391 945.184 728.985 946.26 728.721 947.487C728.456 948.715 728.324 950.027 728.324 951.424ZM762.733 936.357V967H755.88V936.357H762.733ZM755.427 928.314C755.427 927.276 755.767 926.417 756.446 925.737C757.145 925.039 758.108 924.689 759.335 924.689C760.543 924.689 761.497 925.039 762.195 925.737C762.894 926.417 763.243 927.276 763.243 928.314C763.243 929.334 762.894 930.184 762.195 930.863C761.497 931.543 760.543 931.883 759.335 931.883C758.108 931.883 757.145 931.543 756.446 930.863C755.767 930.184 755.427 929.334 755.427 928.314ZM776.979 942.899V967H770.153V936.357H776.582L776.979 942.899ZM775.761 950.546L773.552 950.518C773.571 948.346 773.873 946.354 774.458 944.542C775.062 942.729 775.893 941.172 776.95 939.869C778.026 938.566 779.31 937.566 780.802 936.867C782.293 936.15 783.955 935.791 785.786 935.791C787.259 935.791 788.59 935.999 789.779 936.414C790.988 936.811 792.017 937.462 792.866 938.368C793.735 939.274 794.396 940.454 794.849 941.908C795.302 943.343 795.528 945.108 795.528 947.204V967H788.675V947.176C788.675 945.703 788.458 944.542 788.023 943.692C787.608 942.824 786.994 942.21 786.183 941.852C785.39 941.474 784.398 941.285 783.209 941.285C782.038 941.285 780.991 941.531 780.065 942.021C779.14 942.512 778.357 943.183 777.715 944.032C777.092 944.882 776.61 945.864 776.271 946.978C775.931 948.091 775.761 949.281 775.761 950.546ZM822.121 936.357H828.323V966.15C828.323 968.907 827.738 971.248 826.567 973.174C825.397 975.1 823.764 976.563 821.668 977.563C819.572 978.583 817.146 979.093 814.39 979.093C813.219 979.093 811.916 978.923 810.481 978.583C809.065 978.243 807.687 977.696 806.347 976.94C805.025 976.204 803.921 975.232 803.033 974.023L806.233 970.002C807.328 971.305 808.537 972.258 809.858 972.862C811.18 973.466 812.568 973.769 814.021 973.769C815.589 973.769 816.92 973.476 818.015 972.891C819.129 972.324 819.988 971.484 820.592 970.37C821.196 969.256 821.498 967.897 821.498 966.292V943.296L822.121 936.357ZM801.306 952.019V951.424C801.306 949.102 801.589 946.987 802.155 945.08C802.722 943.154 803.534 941.502 804.591 940.124C805.648 938.727 806.932 937.66 808.442 936.924C809.953 936.169 811.661 935.791 813.568 935.791C815.551 935.791 817.241 936.15 818.638 936.867C820.054 937.585 821.234 938.614 822.178 939.954C823.122 941.276 823.858 942.862 824.387 944.712C824.934 946.543 825.34 948.582 825.604 950.829V952.727C825.359 954.917 824.944 956.918 824.358 958.73C823.773 960.543 822.999 962.11 822.036 963.432C821.073 964.753 819.884 965.773 818.468 966.49C817.071 967.208 815.419 967.566 813.512 967.566C811.643 967.566 809.953 967.179 808.442 966.405C806.951 965.631 805.667 964.546 804.591 963.148C803.534 961.751 802.722 960.109 802.155 958.221C801.589 956.314 801.306 954.246 801.306 952.019ZM808.131 951.424V952.019C808.131 953.416 808.263 954.718 808.527 955.927C808.811 957.135 809.235 958.202 809.802 959.127C810.387 960.033 811.123 960.751 812.011 961.279C812.917 961.789 813.984 962.044 815.211 962.044C816.816 962.044 818.128 961.704 819.147 961.024C820.186 960.345 820.979 959.429 821.526 958.277C822.093 957.107 822.489 955.804 822.716 954.369V949.243C822.603 948.129 822.367 947.091 822.008 946.128C821.668 945.165 821.205 944.325 820.62 943.607C820.035 942.871 819.299 942.305 818.411 941.908C817.524 941.493 816.476 941.285 815.268 941.285C814.04 941.285 812.974 941.549 812.067 942.078C811.161 942.607 810.415 943.334 809.83 944.259C809.264 945.184 808.839 946.26 808.556 947.487C808.272 948.715 808.131 950.027 808.131 951.424Z" fill="#1C4670"/>
<path d="M206.503 824.008H86.911L68.0938 843.061V911.544C68.0938 951.975 102.698 984.763 145.445 984.763C187.535 984.763 222.514 952.646 222.514 911.544V843.061L206.503 824.008Z" fill="url(#paint8_linear_12_2357)"/>
<path d="M125.703 935.656C119.896 935.656 115.404 934.029 112.227 930.773C109.076 927.518 107.5 922.831 107.5 916.711V885.695C107.5 879.237 108.997 874.289 111.992 870.852C115.013 867.388 119.583 865.656 125.703 865.656C131.849 865.656 136.419 867.388 139.414 870.852C142.409 874.289 143.906 879.237 143.906 885.695V916.711C143.906 922.831 142.331 927.518 139.18 930.773C136.029 934.029 131.536 935.656 125.703 935.656ZM125.703 923C126.771 923 127.604 922.518 128.203 921.555C128.802 920.591 129.102 919.51 129.102 918.312V884.367C129.102 882.753 128.919 881.346 128.555 880.148C128.216 878.924 127.266 878.312 125.703 878.312C124.141 878.312 123.177 878.924 122.812 880.148C122.474 881.346 122.305 882.753 122.305 884.367V918.312C122.305 919.51 122.604 920.591 123.203 921.555C123.828 922.518 124.661 923 125.703 923ZM166.562 935.07V924.172H146.172V913.43L159.18 866.242H180.586V912.688H184.258V924.172H180.586V935.07H166.562ZM158.438 912.688H166.562V878.039L158.438 912.688Z" fill="white"/>
<path d="M239.586 824.008H51.0938L68.1222 847.039H222.543L239.586 824.008Z" fill="url(#paint9_linear_12_2357)"/>
<path d="M51.0625 824.008C41.5014 824.008 34.0156 831.342 34.0156 840.389V847.039H68.1093V840.389C68.1093 831.342 60.6272 824.008 51.0625 824.008Z" fill="url(#paint10_linear_12_2357)"/>
<path d="M239.562 824.008C249.131 824.008 256.617 831.342 256.617 840.389V847.039H222.516V840.389C222.516 831.342 229.998 824.008 239.562 824.008Z" fill="url(#paint11_linear_12_2357)"/>
<g filter="url(#filter3_d_12_2357)">
<path fill-rule="evenodd" clip-rule="evenodd" d="M945.956 587.664C968.065 587.664 985.98 605.599 985.956 627.708L985.801 769.146C985.777 791.22 967.876 809.102 945.801 809.102H818.055H74C51.9086 809.102 34 791.194 34 769.102V627.664C34 605.573 51.9086 587.664 74 587.664H945.956Z" fill="white"/>
</g>
<path d="M206.511 565.914H86.9188L68.1016 584.967V653.454C68.1016 693.889 102.706 726.673 145.453 726.673C187.543 726.673 222.522 694.552 222.522 653.454V584.967L206.511 565.914Z" fill="url(#paint12_linear_12_2357)"/>
<path d="M127.703 677.562C121.896 677.562 117.404 675.935 114.227 672.68C111.076 669.424 109.5 664.737 109.5 658.617V627.602C109.5 621.143 110.997 616.195 113.992 612.758C117.013 609.294 121.583 607.562 127.703 607.562C133.849 607.562 138.419 609.294 141.414 612.758C144.409 616.195 145.906 621.143 145.906 627.602V658.617C145.906 664.737 144.331 669.424 141.18 672.68C138.029 675.935 133.536 677.562 127.703 677.562ZM127.703 664.906C128.771 664.906 129.604 664.424 130.203 663.461C130.802 662.497 131.102 661.417 131.102 660.219V626.273C131.102 624.659 130.919 623.253 130.555 622.055C130.216 620.831 129.266 620.219 127.703 620.219C126.141 620.219 125.177 620.831 124.812 622.055C124.474 623.253 124.305 624.659 124.305 626.273V660.219C124.305 661.417 124.604 662.497 125.203 663.461C125.828 664.424 126.661 664.906 127.703 664.906ZM166.375 677.719C160.307 677.719 155.893 676.117 153.133 672.914C150.372 669.711 148.992 664.88 148.992 658.422V651.234H163.094V658.461C163.094 660.284 163.315 661.833 163.758 663.109C164.227 664.359 165.255 664.984 166.844 664.984C168.458 664.984 169.487 664.307 169.93 662.953C170.372 661.573 170.594 659.333 170.594 656.234V654.516C170.594 652.146 170.19 650.076 169.383 648.305C168.602 646.534 167.052 645.648 164.734 645.648C164.448 645.648 164.188 645.661 163.953 645.688C163.745 645.688 163.562 645.701 163.406 645.727V633.383C165.776 633.383 167.586 632.862 168.836 631.82C170.086 630.753 170.711 628.982 170.711 626.508C170.711 622.628 169.591 620.688 167.352 620.688C165.893 620.688 164.904 621.26 164.383 622.406C163.888 623.526 163.641 624.958 163.641 626.703V628.773H149.422C149.396 628.461 149.37 628.083 149.344 627.641C149.344 627.198 149.344 626.768 149.344 626.352C149.344 620.049 150.815 615.427 153.758 612.484C156.701 609.542 161.206 608.07 167.273 608.07C178.992 608.07 184.852 614.164 184.852 626.352C184.852 629.737 184.396 632.536 183.484 634.75C182.573 636.938 180.88 638.474 178.406 639.359C180.359 640.297 181.805 641.495 182.742 642.953C183.68 644.411 184.292 646.221 184.578 648.383C184.865 650.544 185.008 653.161 185.008 656.234C185.008 663.109 183.562 668.409 180.672 672.133C177.807 675.857 173.042 677.719 166.375 677.719Z" fill="white"/>
<path d="M239.586 556.453H51.0938L68.1222 579.485H222.543L239.586 556.453Z" fill="url(#paint13_linear_12_2357)"/>
<path d="M51.0625 556.453C41.5014 556.453 34.0156 563.788 34.0156 572.838V579.485H68.1093V572.838C68.1093 563.788 60.6272 556.453 51.0625 556.453Z" fill="url(#paint14_linear_12_2357)"/>
<path d="M239.562 556.453C249.131 556.453 256.617 563.788 256.617 572.838V579.485H222.516V572.838C222.516 563.788 229.998 556.453 239.562 556.453Z" fill="url(#paint15_linear_12_2357)"/>
<g filter="url(#filter4_d_12_2357)">
<path fill-rule="evenodd" clip-rule="evenodd" d="M945.956 1114.58C968.065 1114.58 985.98 1132.51 985.956 1154.62L985.801 1296.06C985.777 1318.13 967.876 1336.02 945.801 1336.02H818.055H74C51.9086 1336.02 34 1318.11 34 1296.02V1154.58C34 1132.49 51.9086 1114.58 74 1114.58H945.956Z" fill="white"/>
</g>
<path d="M206.511 1092.83H86.9188L68.1016 1111.88V1180.37C68.1016 1220.8 102.706 1253.59 145.453 1253.59C187.543 1253.59 222.522 1221.47 222.522 1180.37V1111.88L206.511 1092.83Z" fill="url(#paint16_linear_12_2357)"/>
<path d="M127.703 1204.48C121.896 1204.48 117.404 1202.85 114.227 1199.59C111.076 1196.34 109.5 1191.65 109.5 1185.53V1154.52C109.5 1148.06 110.997 1143.11 113.992 1139.67C117.013 1136.21 121.583 1134.48 127.703 1134.48C133.849 1134.48 138.419 1136.21 141.414 1139.67C144.409 1143.11 145.906 1148.06 145.906 1154.52V1185.53C145.906 1191.65 144.331 1196.34 141.18 1199.59C138.029 1202.85 133.536 1204.48 127.703 1204.48ZM127.703 1191.82C128.771 1191.82 129.604 1191.34 130.203 1190.38C130.802 1189.41 131.102 1188.33 131.102 1187.13V1153.19C131.102 1151.57 130.919 1150.17 130.555 1148.97C130.216 1147.74 129.266 1147.13 127.703 1147.13C126.141 1147.13 125.177 1147.74 124.812 1148.97C124.474 1150.17 124.305 1151.57 124.305 1153.19V1187.13C124.305 1188.33 124.604 1189.41 125.203 1190.38C125.828 1191.34 126.661 1191.82 127.703 1191.82ZM167.234 1204.83C161.948 1204.83 157.625 1203.53 154.266 1200.92C150.932 1198.29 149.266 1194.27 149.266 1188.85V1178.62H163.562V1184.52C163.562 1185.74 163.628 1186.92 163.758 1188.07C163.914 1189.22 164.253 1190.15 164.773 1190.88C165.294 1191.61 166.115 1191.98 167.234 1191.98C168.719 1191.98 169.695 1191.48 170.164 1190.49C170.633 1189.48 170.867 1188.19 170.867 1186.62V1173.11C170.867 1171.99 170.789 1170.88 170.633 1169.79C170.503 1168.7 170.19 1167.78 169.695 1167.05C169.201 1166.33 168.406 1165.96 167.312 1165.96C164.708 1165.96 163.406 1167.85 163.406 1171.62H150.789V1135.06H183.562V1147.95H163.836V1157.64C164.513 1156.81 165.424 1156.08 166.57 1155.45C167.742 1154.8 169.109 1154.48 170.672 1154.48C173.797 1154.48 176.336 1155.08 178.289 1156.27C180.268 1157.47 181.779 1159.14 182.82 1161.27C183.888 1163.41 184.617 1165.88 185.008 1168.7C185.424 1171.51 185.633 1174.53 185.633 1177.76C185.633 1181.9 185.411 1185.64 184.969 1188.97C184.552 1192.28 183.706 1195.11 182.43 1197.48C181.18 1199.85 179.331 1201.68 176.883 1202.95C174.461 1204.2 171.245 1204.83 167.234 1204.83Z" fill="white"/>
<path d="M239.586 1083.37H51.0938L68.1222 1106.4H222.543L239.586 1083.37Z" fill="url(#paint17_linear_12_2357)"/>
<path d="M51.0625 1083.37C41.5014 1083.37 34.0156 1090.7 34.0156 1099.75V1106.4H68.1093V1099.75C68.1093 1090.7 60.6272 1083.37 51.0625 1083.37Z" fill="url(#paint18_linear_12_2357)"/>
<path d="M239.562 1083.37C249.131 1083.37 256.617 1090.7 256.617 1099.75V1106.4H222.516V1099.75C222.516 1090.7 229.998 1083.37 239.562 1083.37Z" fill="url(#paint19_linear_12_2357)"/>
<path d="M466.814 701.576H473.895C473.668 704.276 472.913 706.683 471.629 708.798C470.345 710.894 468.542 712.546 466.22 713.754C463.897 714.962 461.075 715.566 457.752 715.566C455.203 715.566 452.909 715.113 450.87 714.207C448.831 713.282 447.085 711.979 445.631 710.299C444.177 708.6 443.063 706.551 442.289 704.153C441.534 701.756 441.156 699.075 441.156 696.11V692.684C441.156 689.719 441.543 687.038 442.317 684.641C443.11 682.243 444.243 680.194 445.716 678.495C447.188 676.777 448.954 675.465 451.012 674.559C453.089 673.652 455.42 673.199 458.007 673.199C461.292 673.199 464.067 673.803 466.333 675.012C468.599 676.22 470.354 677.891 471.601 680.024C472.866 682.158 473.64 684.603 473.923 687.359H466.843C466.654 685.585 466.239 684.065 465.597 682.8C464.974 681.535 464.049 680.572 462.821 679.911C461.594 679.231 459.989 678.892 458.007 678.892C456.383 678.892 454.967 679.194 453.759 679.798C452.55 680.402 451.54 681.289 450.729 682.46C449.917 683.631 449.303 685.075 448.888 686.793C448.491 688.492 448.293 690.437 448.293 692.627V696.11C448.293 698.187 448.472 700.075 448.831 701.774C449.209 703.455 449.775 704.899 450.53 706.107C451.304 707.316 452.286 708.25 453.476 708.911C454.665 709.572 456.09 709.902 457.752 709.902C459.772 709.902 461.405 709.581 462.651 708.939C463.916 708.298 464.87 707.363 465.512 706.136C466.173 704.89 466.607 703.37 466.814 701.576ZM478.369 700.019V699.367C478.369 697.158 478.69 695.11 479.332 693.222C479.974 691.315 480.899 689.663 482.107 688.266C483.335 686.85 484.826 685.755 486.582 684.98C488.357 684.188 490.358 683.791 492.586 683.791C494.833 683.791 496.834 684.188 498.59 684.98C500.365 685.755 501.866 686.85 503.093 688.266C504.32 689.663 505.255 691.315 505.896 693.222C506.538 695.11 506.859 697.158 506.859 699.367V700.019C506.859 702.228 506.538 704.276 505.896 706.164C505.255 708.052 504.32 709.704 503.093 711.12C501.866 712.517 500.374 713.612 498.618 714.405C496.862 715.179 494.87 715.566 492.643 715.566C490.396 715.566 488.385 715.179 486.61 714.405C484.854 713.612 483.363 712.517 482.136 711.12C480.909 709.704 479.974 708.052 479.332 706.164C478.69 704.276 478.369 702.228 478.369 700.019ZM485.194 699.367V700.019C485.194 701.397 485.336 702.7 485.619 703.927C485.902 705.154 486.346 706.23 486.95 707.155C487.554 708.08 488.328 708.807 489.272 709.336C490.216 709.865 491.34 710.129 492.643 710.129C493.908 710.129 495.003 709.865 495.928 709.336C496.872 708.807 497.646 708.08 498.25 707.155C498.854 706.23 499.298 705.154 499.581 703.927C499.883 702.7 500.034 701.397 500.034 700.019V699.367C500.034 698.008 499.883 696.724 499.581 695.516C499.298 694.288 498.845 693.203 498.222 692.259C497.618 691.315 496.843 690.578 495.899 690.05C494.974 689.502 493.87 689.229 492.586 689.229C491.302 689.229 490.188 689.502 489.244 690.05C488.319 690.578 487.554 691.315 486.95 692.259C486.346 693.203 485.902 694.288 485.619 695.516C485.336 696.724 485.194 698.008 485.194 699.367ZM519.405 690.588V715H512.58V684.357H519.009L519.405 690.588ZM518.301 698.546L515.979 698.518C515.979 696.403 516.243 694.449 516.771 692.655C517.3 690.862 518.074 689.304 519.094 687.982C520.113 686.642 521.378 685.613 522.889 684.896C524.418 684.159 526.183 683.791 528.185 683.791C529.582 683.791 530.856 683.999 532.008 684.414C533.178 684.811 534.188 685.443 535.038 686.312C535.907 687.18 536.567 688.294 537.021 689.653C537.493 691.013 537.729 692.655 537.729 694.581V715H530.903V695.176C530.903 693.684 530.677 692.514 530.224 691.664C529.789 690.814 529.157 690.21 528.326 689.852C527.514 689.474 526.542 689.285 525.409 689.285C524.125 689.285 523.03 689.531 522.124 690.021C521.237 690.512 520.51 691.183 519.943 692.032C519.377 692.882 518.962 693.864 518.697 694.978C518.433 696.091 518.301 697.281 518.301 698.546ZM537.304 696.733L534.104 697.441C534.104 695.591 534.358 693.845 534.868 692.202C535.397 690.541 536.161 689.087 537.162 687.841C538.182 686.576 539.437 685.585 540.929 684.867C542.42 684.15 544.129 683.791 546.055 683.791C547.622 683.791 549.019 684.008 550.246 684.442C551.492 684.858 552.549 685.519 553.418 686.425C554.286 687.331 554.947 688.511 555.4 689.965C555.854 691.4 556.08 693.137 556.08 695.176V715H549.227V695.147C549.227 693.599 549 692.4 548.547 691.551C548.113 690.701 547.49 690.116 546.678 689.795C545.866 689.455 544.894 689.285 543.761 689.285C542.703 689.285 541.769 689.483 540.957 689.88C540.164 690.257 539.494 690.796 538.946 691.494C538.399 692.174 537.983 692.957 537.7 693.845C537.436 694.732 537.304 695.695 537.304 696.733ZM569.957 690.248V726.781H563.132V684.357H569.419L569.957 690.248ZM589.923 699.396V699.99C589.923 702.218 589.659 704.285 589.13 706.192C588.62 708.08 587.855 709.732 586.836 711.148C585.835 712.546 584.599 713.631 583.126 714.405C581.653 715.179 579.954 715.566 578.028 715.566C576.121 715.566 574.451 715.217 573.016 714.519C571.6 713.801 570.401 712.791 569.419 711.488C568.437 710.186 567.644 708.656 567.04 706.9C566.455 705.126 566.039 703.181 565.794 701.066V698.772C566.039 696.526 566.455 694.487 567.04 692.655C567.644 690.824 568.437 689.247 569.419 687.926C570.401 686.604 571.6 685.585 573.016 684.867C574.432 684.15 576.084 683.791 577.972 683.791C579.897 683.791 581.606 684.169 583.098 684.924C584.589 685.66 585.845 686.717 586.864 688.096C587.884 689.455 588.648 691.098 589.158 693.023C589.668 694.93 589.923 697.054 589.923 699.396ZM583.098 699.99V699.396C583.098 697.979 582.965 696.667 582.701 695.459C582.437 694.232 582.021 693.156 581.455 692.23C580.889 691.305 580.162 690.588 579.274 690.078C578.406 689.549 577.358 689.285 576.131 689.285C574.923 689.285 573.884 689.493 573.016 689.908C572.147 690.305 571.42 690.862 570.835 691.579C570.25 692.297 569.797 693.137 569.476 694.1C569.155 695.044 568.928 696.073 568.796 697.187V702.681C569.022 704.04 569.41 705.286 569.957 706.419C570.505 707.552 571.279 708.458 572.279 709.138C573.299 709.799 574.602 710.129 576.188 710.129C577.415 710.129 578.463 709.865 579.331 709.336C580.2 708.807 580.908 708.08 581.455 707.155C582.021 706.211 582.437 705.126 582.701 703.898C582.965 702.671 583.098 701.368 583.098 699.99ZM603.035 671.5V715H596.182V671.5H603.035ZM617.818 684.357V715H610.965V684.357H617.818ZM610.512 676.314C610.512 675.276 610.852 674.417 611.531 673.737C612.23 673.039 613.193 672.689 614.42 672.689C615.628 672.689 616.582 673.039 617.28 673.737C617.979 674.417 618.328 675.276 618.328 676.314C618.328 677.334 617.979 678.184 617.28 678.863C616.582 679.543 615.628 679.883 614.42 679.883C613.193 679.883 612.23 679.543 611.531 678.863C610.852 678.184 610.512 677.334 610.512 676.314ZM642.57 708.854V694.241C642.57 693.146 642.372 692.202 641.976 691.409C641.579 690.616 640.975 690.003 640.163 689.568C639.37 689.134 638.369 688.917 637.161 688.917C636.047 688.917 635.084 689.106 634.272 689.483C633.461 689.861 632.828 690.371 632.375 691.013C631.922 691.655 631.695 692.382 631.695 693.193H624.898C624.898 691.985 625.191 690.814 625.776 689.682C626.362 688.549 627.211 687.539 628.325 686.651C629.439 685.764 630.77 685.065 632.318 684.556C633.867 684.046 635.604 683.791 637.529 683.791C639.833 683.791 641.872 684.178 643.646 684.952C645.44 685.726 646.847 686.897 647.866 688.464C648.905 690.012 649.424 691.957 649.424 694.298V707.92C649.424 709.317 649.518 710.573 649.707 711.687C649.915 712.782 650.207 713.735 650.585 714.547V715H643.59C643.269 714.264 643.014 713.329 642.825 712.196C642.655 711.045 642.57 709.931 642.57 708.854ZM643.562 696.365L643.618 700.585H638.719C637.454 700.585 636.34 700.708 635.377 700.953C634.414 701.18 633.612 701.52 632.97 701.973C632.328 702.426 631.846 702.973 631.525 703.615C631.204 704.257 631.044 704.984 631.044 705.796C631.044 706.608 631.233 707.354 631.61 708.033C631.988 708.694 632.535 709.213 633.253 709.591C633.989 709.968 634.877 710.157 635.915 710.157C637.312 710.157 638.53 709.874 639.568 709.308C640.626 708.722 641.456 708.014 642.061 707.184C642.665 706.334 642.986 705.532 643.023 704.776L645.232 707.807C645.006 708.581 644.619 709.411 644.071 710.299C643.524 711.186 642.806 712.036 641.919 712.848C641.05 713.641 640.003 714.292 638.775 714.802C637.567 715.312 636.17 715.566 634.584 715.566C632.583 715.566 630.799 715.17 629.231 714.377C627.664 713.565 626.437 712.479 625.55 711.12C624.662 709.742 624.219 708.184 624.219 706.447C624.219 704.824 624.521 703.389 625.125 702.143C625.748 700.878 626.654 699.82 627.844 698.971C629.052 698.121 630.525 697.479 632.262 697.045C633.999 696.592 635.981 696.365 638.209 696.365H643.562ZM663.329 690.899V715H656.504V684.357H662.933L663.329 690.899ZM662.111 698.546L659.902 698.518C659.921 696.346 660.223 694.354 660.809 692.542C661.413 690.729 662.243 689.172 663.301 687.869C664.377 686.566 665.661 685.566 667.152 684.867C668.644 684.15 670.305 683.791 672.137 683.791C673.609 683.791 674.94 683.999 676.13 684.414C677.338 684.811 678.367 685.462 679.217 686.368C680.085 687.274 680.746 688.454 681.199 689.908C681.652 691.343 681.879 693.108 681.879 695.204V715H675.025V695.176C675.025 693.703 674.808 692.542 674.374 691.692C673.959 690.824 673.345 690.21 672.533 689.852C671.74 689.474 670.749 689.285 669.56 689.285C668.389 689.285 667.341 689.531 666.416 690.021C665.491 690.512 664.707 691.183 664.065 692.032C663.442 692.882 662.961 693.864 662.621 694.978C662.281 696.091 662.111 697.281 662.111 698.546ZM701.363 710.129C702.477 710.129 703.478 709.912 704.365 709.478C705.271 709.024 705.998 708.401 706.546 707.608C707.112 706.815 707.424 705.9 707.48 704.861H713.909C713.871 706.844 713.286 708.647 712.153 710.271C711.021 711.894 709.52 713.188 707.65 714.15C705.781 715.094 703.714 715.566 701.448 715.566C699.107 715.566 697.068 715.17 695.331 714.377C693.594 713.565 692.15 712.451 690.998 711.035C689.846 709.619 688.978 707.986 688.393 706.136C687.826 704.285 687.543 702.303 687.543 700.188V699.197C687.543 697.083 687.826 695.1 688.393 693.25C688.978 691.381 689.846 689.738 690.998 688.322C692.15 686.906 693.594 685.802 695.331 685.009C697.068 684.197 699.098 683.791 701.42 683.791C703.874 683.791 706.027 684.282 707.877 685.264C709.727 686.227 711.181 687.576 712.238 689.313C713.314 691.032 713.871 693.033 713.909 695.317H707.48C707.424 694.185 707.141 693.165 706.631 692.259C706.14 691.334 705.441 690.597 704.535 690.05C703.648 689.502 702.581 689.229 701.335 689.229C699.957 689.229 698.814 689.512 697.908 690.078C697.002 690.626 696.294 691.381 695.784 692.344C695.274 693.288 694.906 694.354 694.68 695.544C694.472 696.715 694.368 697.932 694.368 699.197V700.188C694.368 701.453 694.472 702.681 694.68 703.87C694.887 705.06 695.246 706.126 695.756 707.07C696.285 707.995 697.002 708.741 697.908 709.308C698.814 709.855 699.966 710.129 701.363 710.129ZM732.657 715.566C730.392 715.566 728.343 715.198 726.512 714.462C724.699 713.707 723.151 712.659 721.867 711.318C720.602 709.978 719.63 708.401 718.95 706.589C718.271 704.776 717.931 702.822 717.931 700.727V699.594C717.931 697.196 718.28 695.025 718.979 693.08C719.677 691.135 720.649 689.474 721.896 688.096C723.142 686.699 724.614 685.632 726.313 684.896C728.013 684.159 729.854 683.791 731.836 683.791C734.026 683.791 735.942 684.159 737.585 684.896C739.228 685.632 740.587 686.67 741.663 688.011C742.758 689.332 743.57 690.909 744.099 692.74C744.646 694.572 744.92 696.592 744.92 698.801V701.718H721.244V696.818H738.18V696.28C738.142 695.053 737.896 693.901 737.443 692.825C737.009 691.749 736.339 690.881 735.433 690.22C734.526 689.559 733.318 689.229 731.808 689.229C730.675 689.229 729.665 689.474 728.777 689.965C727.909 690.437 727.182 691.126 726.597 692.032C726.011 692.938 725.558 694.034 725.237 695.317C724.935 696.582 724.784 698.008 724.784 699.594V700.727C724.784 702.067 724.964 703.313 725.322 704.465C725.7 705.598 726.247 706.589 726.965 707.438C727.682 708.288 728.551 708.958 729.57 709.449C730.59 709.921 731.751 710.157 733.054 710.157C734.696 710.157 736.16 709.827 737.443 709.166C738.727 708.505 739.841 707.571 740.785 706.362L744.382 709.846C743.721 710.809 742.862 711.734 741.805 712.621C740.747 713.49 739.454 714.198 737.925 714.745C736.414 715.293 734.659 715.566 732.657 715.566Z" fill="#1C4670"/>
<path d="M467.486 1190.77H482.071C485.205 1190.77 487.877 1191.24 490.086 1192.18C492.295 1193.13 493.985 1194.52 495.155 1196.37C496.345 1198.2 496.939 1200.47 496.939 1203.17C496.939 1205.23 496.562 1207.04 495.807 1208.61C495.051 1210.17 493.985 1211.5 492.606 1212.57C491.228 1213.63 489.586 1214.45 487.679 1215.04L485.526 1216.08H472.414L472.357 1210.45H482.185C483.884 1210.45 485.3 1210.15 486.433 1209.54C487.565 1208.94 488.415 1208.12 488.981 1207.08C489.567 1206.02 489.859 1204.83 489.859 1203.51C489.859 1202.07 489.576 1200.83 489.01 1199.77C488.462 1198.7 487.613 1197.87 486.461 1197.31C485.309 1196.72 483.846 1196.43 482.071 1196.43H474.595V1232H467.486V1190.77ZM491.021 1232L481.335 1213.48L488.783 1213.45L498.61 1231.63V1232H491.021ZM516.849 1232.57C514.583 1232.57 512.535 1232.2 510.703 1231.46C508.891 1230.71 507.342 1229.66 506.059 1228.32C504.794 1226.98 503.821 1225.4 503.142 1223.59C502.462 1221.78 502.122 1219.82 502.122 1217.73V1216.59C502.122 1214.2 502.471 1212.02 503.17 1210.08C503.868 1208.14 504.841 1206.47 506.087 1205.1C507.333 1203.7 508.806 1202.63 510.505 1201.9C512.204 1201.16 514.045 1200.79 516.027 1200.79C518.217 1200.79 520.134 1201.16 521.776 1201.9C523.419 1202.63 524.778 1203.67 525.854 1205.01C526.95 1206.33 527.761 1207.91 528.29 1209.74C528.838 1211.57 529.111 1213.59 529.111 1215.8V1218.72H505.436V1213.82H522.371V1213.28C522.333 1212.05 522.088 1210.9 521.635 1209.83C521.201 1208.75 520.53 1207.88 519.624 1207.22C518.718 1206.56 517.509 1206.23 515.999 1206.23C514.866 1206.23 513.856 1206.47 512.969 1206.96C512.1 1207.44 511.373 1208.13 510.788 1209.03C510.203 1209.94 509.75 1211.03 509.429 1212.32C509.127 1213.58 508.976 1215.01 508.976 1216.59V1217.73C508.976 1219.07 509.155 1220.31 509.514 1221.46C509.891 1222.6 510.439 1223.59 511.156 1224.44C511.874 1225.29 512.742 1225.96 513.762 1226.45C514.781 1226.92 515.942 1227.16 517.245 1227.16C518.888 1227.16 520.351 1226.83 521.635 1226.17C522.919 1225.51 524.033 1224.57 524.977 1223.36L528.573 1226.85C527.912 1227.81 527.053 1228.73 525.996 1229.62C524.939 1230.49 523.646 1231.2 522.116 1231.75C520.606 1232.29 518.85 1232.57 516.849 1232.57ZM541.289 1207.25V1243.78H534.464V1201.36H540.751L541.289 1207.25ZM561.255 1216.4V1216.99C561.255 1219.22 560.991 1221.29 560.462 1223.19C559.952 1225.08 559.188 1226.73 558.168 1228.15C557.167 1229.55 555.931 1230.63 554.458 1231.41C552.985 1232.18 551.286 1232.57 549.36 1232.57C547.453 1232.57 545.783 1232.22 544.348 1231.52C542.932 1230.8 541.733 1229.79 540.751 1228.49C539.769 1227.19 538.976 1225.66 538.372 1223.9C537.787 1222.13 537.371 1220.18 537.126 1218.07V1215.77C537.371 1213.53 537.787 1211.49 538.372 1209.66C538.976 1207.82 539.769 1206.25 540.751 1204.93C541.733 1203.6 542.932 1202.58 544.348 1201.87C545.764 1201.15 547.416 1200.79 549.304 1200.79C551.229 1200.79 552.938 1201.17 554.43 1201.92C555.921 1202.66 557.177 1203.72 558.196 1205.1C559.216 1206.46 559.98 1208.1 560.49 1210.02C561 1211.93 561.255 1214.05 561.255 1216.4ZM554.43 1216.99V1216.4C554.43 1214.98 554.298 1213.67 554.033 1212.46C553.769 1211.23 553.354 1210.16 552.787 1209.23C552.221 1208.31 551.494 1207.59 550.606 1207.08C549.738 1206.55 548.69 1206.29 547.463 1206.29C546.255 1206.29 545.216 1206.49 544.348 1206.91C543.479 1207.3 542.752 1207.86 542.167 1208.58C541.582 1209.3 541.129 1210.14 540.808 1211.1C540.487 1212.04 540.26 1213.07 540.128 1214.19V1219.68C540.354 1221.04 540.742 1222.29 541.289 1223.42C541.837 1224.55 542.611 1225.46 543.611 1226.14C544.631 1226.8 545.934 1227.13 547.52 1227.13C548.747 1227.13 549.795 1226.86 550.663 1226.34C551.532 1225.81 552.24 1225.08 552.787 1224.16C553.354 1223.21 553.769 1222.13 554.033 1220.9C554.298 1219.67 554.43 1218.37 554.43 1216.99ZM585.497 1224.78V1201.36H592.351V1232H585.894L585.497 1224.78ZM586.46 1218.41L588.754 1218.35C588.754 1220.41 588.527 1222.31 588.074 1224.04C587.621 1225.76 586.923 1227.26 585.979 1228.54C585.035 1229.81 583.826 1230.8 582.354 1231.52C580.881 1232.22 579.116 1232.57 577.058 1232.57C575.566 1232.57 574.197 1232.35 572.951 1231.92C571.705 1231.48 570.629 1230.81 569.723 1229.9C568.835 1229 568.146 1227.82 567.655 1226.36C567.164 1224.91 566.919 1223.17 566.919 1221.15V1201.36H573.744V1221.21C573.744 1222.32 573.876 1223.26 574.141 1224.01C574.405 1224.75 574.764 1225.34 575.217 1225.8C575.67 1226.25 576.199 1226.57 576.803 1226.76C577.407 1226.95 578.049 1227.04 578.729 1227.04C580.673 1227.04 582.202 1226.67 583.316 1225.91C584.449 1225.14 585.252 1224.1 585.724 1222.8C586.215 1221.49 586.46 1220.03 586.46 1218.41ZM613.393 1201.36V1206.34H596.117V1201.36H613.393ZM601.102 1193.85H607.927V1223.53C607.927 1224.48 608.059 1225.2 608.323 1225.71C608.606 1226.2 608.993 1226.53 609.484 1226.7C609.975 1226.87 610.551 1226.96 611.212 1226.96C611.684 1226.96 612.137 1226.93 612.571 1226.87C613.006 1226.82 613.355 1226.76 613.619 1226.7L613.647 1231.92C613.081 1232.08 612.42 1232.24 611.665 1232.37C610.929 1232.5 610.079 1232.57 609.116 1232.57C607.549 1232.57 606.161 1232.29 604.953 1231.75C603.745 1231.18 602.801 1230.26 602.121 1229C601.441 1227.73 601.102 1226.05 601.102 1223.96V1193.85ZM635.936 1225.85V1211.24C635.936 1210.15 635.737 1209.2 635.341 1208.41C634.944 1207.62 634.34 1207 633.528 1206.57C632.735 1206.13 631.735 1205.92 630.526 1205.92C629.412 1205.92 628.45 1206.11 627.638 1206.48C626.826 1206.86 626.193 1207.37 625.74 1208.01C625.287 1208.65 625.061 1209.38 625.061 1210.19H618.264C618.264 1208.99 618.556 1207.81 619.142 1206.68C619.727 1205.55 620.576 1204.54 621.69 1203.65C622.804 1202.76 624.135 1202.07 625.684 1201.56C627.232 1201.05 628.969 1200.79 630.895 1200.79C633.198 1200.79 635.237 1201.18 637.012 1201.95C638.805 1202.73 640.212 1203.9 641.231 1205.46C642.27 1207.01 642.789 1208.96 642.789 1211.3V1224.92C642.789 1226.32 642.883 1227.57 643.072 1228.69C643.28 1229.78 643.573 1230.74 643.95 1231.55V1232H636.955C636.634 1231.26 636.379 1230.33 636.19 1229.2C636.021 1228.04 635.936 1226.93 635.936 1225.85ZM636.927 1213.37L636.983 1217.58H632.084C630.819 1217.58 629.705 1217.71 628.742 1217.95C627.779 1218.18 626.977 1218.52 626.335 1218.97C625.693 1219.43 625.212 1219.97 624.891 1220.62C624.57 1221.26 624.409 1221.98 624.409 1222.8C624.409 1223.61 624.598 1224.35 624.976 1225.03C625.353 1225.69 625.901 1226.21 626.618 1226.59C627.354 1226.97 628.242 1227.16 629.28 1227.16C630.677 1227.16 631.895 1226.87 632.934 1226.31C633.991 1225.72 634.822 1225.01 635.426 1224.18C636.03 1223.33 636.351 1222.53 636.389 1221.78L638.598 1224.81C638.371 1225.58 637.984 1226.41 637.437 1227.3C636.889 1228.19 636.172 1229.04 635.284 1229.85C634.416 1230.64 633.368 1231.29 632.141 1231.8C630.932 1232.31 629.535 1232.57 627.949 1232.57C625.948 1232.57 624.164 1232.17 622.597 1231.38C621.03 1230.57 619.802 1229.48 618.915 1228.12C618.028 1226.74 617.584 1225.18 617.584 1223.45C617.584 1221.82 617.886 1220.39 618.49 1219.14C619.113 1217.88 620.02 1216.82 621.209 1215.97C622.417 1215.12 623.89 1214.48 625.627 1214.04C627.364 1213.59 629.346 1213.37 631.574 1213.37H636.927ZM663.973 1201.36V1206.34H646.697V1201.36H663.973ZM651.682 1193.85H658.507V1223.53C658.507 1224.48 658.639 1225.2 658.903 1225.71C659.187 1226.2 659.574 1226.53 660.064 1226.7C660.555 1226.87 661.131 1226.96 661.792 1226.96C662.264 1226.96 662.717 1226.93 663.151 1226.87C663.586 1226.82 663.935 1226.76 664.199 1226.7L664.228 1231.92C663.661 1232.08 663 1232.24 662.245 1232.37C661.509 1232.5 660.659 1232.57 659.696 1232.57C658.129 1232.57 656.742 1232.29 655.533 1231.75C654.325 1231.18 653.381 1230.26 652.701 1229C652.021 1227.73 651.682 1226.05 651.682 1223.96V1193.85ZM676.547 1201.36V1232H669.693V1201.36H676.547ZM669.24 1193.31C669.24 1192.28 669.58 1191.42 670.26 1190.74C670.958 1190.04 671.921 1189.69 673.148 1189.69C674.357 1189.69 675.31 1190.04 676.009 1190.74C676.707 1191.42 677.057 1192.28 677.057 1193.31C677.057 1194.33 676.707 1195.18 676.009 1195.86C675.31 1196.54 674.357 1196.88 673.148 1196.88C671.921 1196.88 670.958 1196.54 670.26 1195.86C669.58 1195.18 669.24 1194.33 669.24 1193.31ZM682.721 1217.02V1216.37C682.721 1214.16 683.042 1212.11 683.684 1210.22C684.326 1208.31 685.251 1206.66 686.459 1205.27C687.686 1203.85 689.178 1202.75 690.934 1201.98C692.708 1201.19 694.71 1200.79 696.938 1200.79C699.184 1200.79 701.186 1201.19 702.941 1201.98C704.716 1202.75 706.217 1203.85 707.444 1205.27C708.672 1206.66 709.606 1208.31 710.248 1210.22C710.89 1212.11 711.211 1214.16 711.211 1216.37V1217.02C711.211 1219.23 710.89 1221.28 710.248 1223.16C709.606 1225.05 708.672 1226.7 707.444 1228.12C706.217 1229.52 704.726 1230.61 702.97 1231.41C701.214 1232.18 699.222 1232.57 696.994 1232.57C694.747 1232.57 692.737 1232.18 690.962 1231.41C689.206 1230.61 687.715 1229.52 686.487 1228.12C685.26 1226.7 684.326 1225.05 683.684 1223.16C683.042 1221.28 682.721 1219.23 682.721 1217.02ZM689.546 1216.37V1217.02C689.546 1218.4 689.688 1219.7 689.971 1220.93C690.254 1222.15 690.698 1223.23 691.302 1224.16C691.906 1225.08 692.68 1225.81 693.624 1226.34C694.568 1226.86 695.691 1227.13 696.994 1227.13C698.259 1227.13 699.354 1226.86 700.279 1226.34C701.223 1225.81 701.997 1225.08 702.602 1224.16C703.206 1223.23 703.649 1222.15 703.933 1220.93C704.235 1219.7 704.386 1218.4 704.386 1217.02V1216.37C704.386 1215.01 704.235 1213.72 703.933 1212.52C703.649 1211.29 703.196 1210.2 702.573 1209.26C701.969 1208.31 701.195 1207.58 700.251 1207.05C699.326 1206.5 698.221 1206.23 696.938 1206.23C695.654 1206.23 694.54 1206.5 693.596 1207.05C692.671 1207.58 691.906 1208.31 691.302 1209.26C690.698 1210.2 690.254 1211.29 689.971 1212.52C689.688 1213.72 689.546 1215.01 689.546 1216.37ZM723.7 1207.9V1232H716.875V1201.36H723.304L723.7 1207.9ZM722.482 1215.55L720.273 1215.52C720.292 1213.35 720.594 1211.35 721.18 1209.54C721.784 1207.73 722.615 1206.17 723.672 1204.87C724.748 1203.57 726.032 1202.57 727.523 1201.87C729.015 1201.15 730.676 1200.79 732.508 1200.79C733.98 1200.79 735.312 1201 736.501 1201.41C737.709 1201.81 738.738 1202.46 739.588 1203.37C740.456 1204.27 741.117 1205.45 741.57 1206.91C742.023 1208.34 742.25 1210.11 742.25 1212.2V1232H735.396V1212.18C735.396 1210.7 735.179 1209.54 734.745 1208.69C734.33 1207.82 733.716 1207.21 732.904 1206.85C732.111 1206.47 731.12 1206.29 729.931 1206.29C728.76 1206.29 727.712 1206.53 726.787 1207.02C725.862 1207.51 725.078 1208.18 724.437 1209.03C723.813 1209.88 723.332 1210.86 722.992 1211.98C722.652 1213.09 722.482 1214.28 722.482 1215.55Z" fill="#1C4670"/>
<defs>
<filter id="filter0_d_12_2357" x="30" y="319" width="959.956" height="229.442" filterUnits="userSpaceOnUse" color-interpolation-filters="sRGB">
<feFlood flood-opacity="0" result="BackgroundImageFix"/>
<feColorMatrix in="SourceAlpha" type="matrix" values="0 0 0 0 0 0 0 0 0 0 0 0 0 0 0 0 0 0 127 0" result="hardAlpha"/>
<feOffset dy="4"/>
<feGaussianBlur stdDeviation="2"/>
<feComposite in2="hardAlpha" operator="out"/>
<feColorMatrix type="matrix" values="0 0 0 0 0 0 0 0 0 0 0 0 0 0 0 0 0 0 0.25 0"/>
<feBlend mode="normal" in2="BackgroundImageFix" result="effect1_dropShadow_12_2357"/>
<feBlend mode="normal" in="SourceGraphic" in2="effect1_dropShadow_12_2357" result="shape"/>
</filter>
<filter id="filter1_d_12_2357" x="30" y="46" width="959.956" height="229.438" filterUnits="userSpaceOnUse" color-interpolation-filters="sRGB">
<feFlood flood-opacity="0" result="BackgroundImageFix"/>
<feColorMatrix in="SourceAlpha" type="matrix" values="0 0 0 0 0 0 0 0 0 0 0 0 0 0 0 0 0 0 127 0" result="hardAlpha"/>
<feOffset dy="4"/>
<feGaussianBlur stdDeviation="2"/>
<feComposite in2="hardAlpha" operator="out"/>
<feColorMatrix type="matrix" values="0 0 0 0 0 0 0 0 0 0 0 0 0 0 0 0 0 0 0.25 0"/>
<feBlend mode="normal" in2="BackgroundImageFix" result="effect1_dropShadow_12_2357"/>
<feBlend mode="normal" in="SourceGraphic" in2="effect1_dropShadow_12_2357" result="shape"/>
</filter>
<filter id="filter2_d_12_2357" x="30" y="848" width="959.956" height="229.442" filterUnits="userSpaceOnUse" color-interpolation-filters="sRGB">
<feFlood flood-opacity="0" result="BackgroundImageFix"/>
<feColorMatrix in="SourceAlpha" type="matrix" values="0 0 0 0 0 0 0 0 0 0 0 0 0 0 0 0 0 0 127 0" result="hardAlpha"/>
<feOffset dy="4"/>
<feGaussianBlur stdDeviation="2"/>
<feComposite in2="hardAlpha" operator="out"/>
<feColorMatrix type="matrix" values="0 0 0 0 0 0 0 0 0 0 0 0 0 0 0 0 0 0 0.25 0"/>
<feBlend mode="normal" in2="BackgroundImageFix" result="effect1_dropShadow_12_2357"/>
<feBlend mode="normal" in="SourceGraphic" in2="effect1_dropShadow_12_2357" result="shape"/>
</filter>
<filter id="filter3_d_12_2357" x="30" y="587.664" width="959.956" height="229.438" filterUnits="userSpaceOnUse" color-interpolation-filters="sRGB">
<feFlood flood-opacity="0" result="BackgroundImageFix"/>
<feColorMatrix in="SourceAlpha" type="matrix" values="0 0 0 0 0 0 0 0 0 0 0 0 0 0 0 0 0 0 127 0" result="hardAlpha"/>
<feOffset dy="4"/>
<feGaussianBlur stdDeviation="2"/>
<feComposite in2="hardAlpha" operator="out"/>
<feColorMatrix type="matrix" values="0 0 0 0 0 0 0 0 0 0 0 0 0 0 0 0 0 0 0.25 0"/>
<feBlend mode="normal" in2="BackgroundImageFix" result="effect1_dropShadow_12_2357"/>
<feBlend mode="normal" in="SourceGraphic" in2="effect1_dropShadow_12_2357" result="shape"/>
</filter>
<filter id="filter4_d_12_2357" x="30" y="1114.58" width="959.956" height="229.438" filterUnits="userSpaceOnUse" color-interpolation-filters="sRGB">
<feFlood flood-opacity="0" result="BackgroundImageFix"/>
<feColorMatrix in="SourceAlpha" type="matrix" values="0 0 0 0 0 0 0 0 0 0 0 0 0 0 0 0 0 0 127 0" result="hardAlpha"/>
<feOffset dy="4"/>
<feGaussianBlur stdDeviation="2"/>
<feComposite in2="hardAlpha" operator="out"/>
<feColorMatrix type="matrix" values="0 0 0 0 0 0 0 0 0 0 0 0 0 0 0 0 0 0 0.25 0"/>
<feBlend mode="normal" in2="BackgroundImageFix" result="effect1_dropShadow_12_2357"/>
<feBlend mode="normal" in="SourceGraphic" in2="effect1_dropShadow_12_2357" result="shape"/>
</filter>
<linearGradient id="paint0_linear_12_2357" x1="68.0952" y1="375.847" x2="222.516" y2="375.847" gradientUnits="userSpaceOnUse">
<stop stop-color="#229CB4"/>
<stop offset="1" stop-color="#5ED8F0"/>
</linearGradient>
<linearGradient id="paint1_linear_12_2357" x1="51.0945" y1="297.523" x2="239.586" y2="297.523" gradientUnits="userSpaceOnUse">
<stop stop-color="#229CB4"/>
<stop offset="1" stop-color="#5ED8F0"/>
</linearGradient>
<linearGradient id="paint2_linear_12_2357" x1="34.0164" y1="297.523" x2="68.1107" y2="297.523" gradientUnits="userSpaceOnUse">
<stop stop-color="#01819A"/>
<stop offset="1" stop-color="#3DBDD6"/>
</linearGradient>
<linearGradient id="paint3_linear_12_2357" x1="222.517" y1="297.523" x2="256.619" y2="297.523" gradientUnits="userSpaceOnUse">
<stop stop-color="#01819A"/>
<stop offset="1" stop-color="#3DBDD6"/>
</linearGradient>
<linearGradient id="paint4_linear_12_2357" x1="68.103" y1="103.568" x2="222.524" y2="103.568" gradientUnits="userSpaceOnUse">
<stop stop-color="#E19000"/>
<stop offset="1" stop-color="#FFCC1E"/>
</linearGradient>
<linearGradient id="paint5_linear_12_2357" x1="51.0945" y1="34.7033" x2="239.586" y2="34.7033" gradientUnits="userSpaceOnUse">
<stop stop-color="#E19000"/>
<stop offset="1" stop-color="#FFCC1E"/>
</linearGradient>
<linearGradient id="paint6_linear_12_2357" x1="34.0164" y1="34.7033" x2="68.1107" y2="34.7033" gradientUnits="userSpaceOnUse">
<stop stop-color="#E15E00"/>
<stop offset="1" stop-color="#FF9A1E"/>
</linearGradient>
<linearGradient id="paint7_linear_12_2357" x1="222.517" y1="34.7033" x2="256.619" y2="34.7033" gradientUnits="userSpaceOnUse">
<stop stop-color="#E15E00"/>
<stop offset="1" stop-color="#FF9A1E"/>
</linearGradient>
<linearGradient id="paint8_linear_12_2357" x1="68.0952" y1="904.386" x2="222.516" y2="904.386" gradientUnits="userSpaceOnUse">
<stop stop-color="#229CB4"/>
<stop offset="1" stop-color="#5ED8F0"/>
</linearGradient>
<linearGradient id="paint9_linear_12_2357" x1="51.0945" y1="835.523" x2="239.586" y2="835.523" gradientUnits="userSpaceOnUse">
<stop stop-color="#229CB4"/>
<stop offset="1" stop-color="#5ED8F0"/>
</linearGradient>
<linearGradient id="paint10_linear_12_2357" x1="34.0164" y1="835.523" x2="68.1107" y2="835.523" gradientUnits="userSpaceOnUse">
<stop stop-color="#01819A"/>
<stop offset="1" stop-color="#3DBDD6"/>
</linearGradient>
<linearGradient id="paint11_linear_12_2357" x1="222.517" y1="835.523" x2="256.619" y2="835.523" gradientUnits="userSpaceOnUse">
<stop stop-color="#01819A"/>
<stop offset="1" stop-color="#3DBDD6"/>
</linearGradient>
<linearGradient id="paint12_linear_12_2357" x1="68.103" y1="646.294" x2="222.524" y2="646.294" gradientUnits="userSpaceOnUse">
<stop stop-color="#E19000"/>
<stop offset="1" stop-color="#FFCC1E"/>
</linearGradient>
<linearGradient id="paint13_linear_12_2357" x1="51.0945" y1="567.969" x2="239.586" y2="567.969" gradientUnits="userSpaceOnUse">
<stop stop-color="#E19000"/>
<stop offset="1" stop-color="#FFCC1E"/>
</linearGradient>
<linearGradient id="paint14_linear_12_2357" x1="34.0164" y1="567.969" x2="68.1107" y2="567.969" gradientUnits="userSpaceOnUse">
<stop stop-color="#E15E00"/>
<stop offset="1" stop-color="#FF9A1E"/>
</linearGradient>
<linearGradient id="paint15_linear_12_2357" x1="222.517" y1="567.969" x2="256.619" y2="567.969" gradientUnits="userSpaceOnUse">
<stop stop-color="#E15E00"/>
<stop offset="1" stop-color="#FF9A1E"/>
</linearGradient>
<linearGradient id="paint16_linear_12_2357" x1="68.103" y1="1173.21" x2="222.524" y2="1173.21" gradientUnits="userSpaceOnUse">
<stop stop-color="#E19000"/>
<stop offset="1" stop-color="#FFCC1E"/>
</linearGradient>
<linearGradient id="paint17_linear_12_2357" x1="51.0945" y1="1094.88" x2="239.586" y2="1094.88" gradientUnits="userSpaceOnUse">
<stop stop-color="#E19000"/>
<stop offset="1" stop-color="#FFCC1E"/>
</linearGradient>
<linearGradient id="paint18_linear_12_2357" x1="34.0164" y1="1094.88" x2="68.1107" y2="1094.88" gradientUnits="userSpaceOnUse">
<stop stop-color="#E15E00"/>
<stop offset="1" stop-color="#FF9A1E"/>
</linearGradient>
<linearGradient id="paint19_linear_12_2357" x1="222.517" y1="1094.88" x2="256.619" y2="1094.88" gradientUnits="userSpaceOnUse">
<stop stop-color="#E15E00"/>
<stop offset="1" stop-color="#FF9A1E"/>
</linearGradient>
</defs>
</svg>
