<svg width="1016" height="641" viewBox="0 0 1016 641" fill="none" xmlns="http://www.w3.org/2000/svg">
<g clip-path="url(#clip0_17_3834)">
<rect width="1016" height="641" fill="#EAEAEA"/>
<path d="M28.069 233C24.8681 233 21.7983 234.281 19.5349 236.56C17.2716 238.84 16 241.932 16 245.156V394.844C16 398.068 17.2716 401.16 19.5349 403.44C21.7983 405.719 24.8681 407 28.069 407H66V233H28.069Z" fill="#FFA229"/>
<g filter="url(#filter0_d_17_3834)">
<path d="M785 233H66V407H785V233Z" fill="white"/>
</g>
<path d="M344.353 329.31C344.353 328.694 344.257 328.147 344.065 327.669C343.888 327.19 343.566 326.753 343.102 326.356C342.637 325.96 341.98 325.577 341.133 325.208C340.299 324.825 339.232 324.436 337.934 324.039C336.512 323.602 335.199 323.116 333.996 322.583C332.807 322.036 331.768 321.407 330.879 320.696C329.99 319.972 329.3 319.145 328.808 318.215C328.315 317.271 328.069 316.185 328.069 314.954C328.069 313.737 328.322 312.63 328.828 311.632C329.348 310.634 330.079 309.772 331.022 309.048C331.979 308.31 333.107 307.742 334.406 307.346C335.705 306.936 337.141 306.73 338.713 306.73C340.928 306.73 342.835 307.141 344.435 307.961C346.048 308.781 347.285 309.882 348.146 311.263C349.021 312.644 349.459 314.168 349.459 315.836H344.353C344.353 314.852 344.141 313.983 343.717 313.231C343.307 312.466 342.678 311.864 341.83 311.427C340.996 310.989 339.937 310.771 338.651 310.771C337.435 310.771 336.423 310.955 335.616 311.324C334.81 311.693 334.208 312.192 333.812 312.821C333.415 313.45 333.217 314.161 333.217 314.954C333.217 315.515 333.347 316.027 333.606 316.492C333.866 316.943 334.263 317.367 334.796 317.764C335.329 318.146 335.999 318.509 336.806 318.851C337.612 319.192 338.562 319.521 339.656 319.835C341.311 320.327 342.753 320.874 343.983 321.476C345.214 322.063 346.239 322.733 347.06 323.485C347.88 324.237 348.495 325.092 348.905 326.049C349.315 326.992 349.521 328.065 349.521 329.269C349.521 330.526 349.268 331.661 348.762 332.673C348.256 333.671 347.531 334.525 346.588 335.236C345.658 335.934 344.537 336.474 343.225 336.856C341.926 337.226 340.477 337.41 338.877 337.41C337.441 337.41 336.026 337.219 334.632 336.836C333.251 336.453 331.993 335.872 330.858 335.093C329.724 334.3 328.821 333.315 328.151 332.14C327.481 330.95 327.146 329.562 327.146 327.977H332.294C332.294 328.947 332.458 329.774 332.786 330.458C333.128 331.142 333.6 331.702 334.201 332.14C334.803 332.563 335.5 332.878 336.293 333.083C337.1 333.288 337.961 333.391 338.877 333.391C340.08 333.391 341.085 333.22 341.892 332.878C342.712 332.536 343.327 332.058 343.737 331.442C344.147 330.827 344.353 330.116 344.353 329.31ZM360.021 334.58L366.05 314.811H371.341L362.44 340.384C362.235 340.931 361.969 341.525 361.641 342.168C361.312 342.811 360.882 343.419 360.349 343.993C359.829 344.581 359.18 345.053 358.4 345.408C357.621 345.777 356.678 345.962 355.57 345.962C355.133 345.962 354.709 345.921 354.299 345.839C353.902 345.771 353.526 345.695 353.171 345.613L353.15 341.84C353.287 341.854 353.451 341.867 353.643 341.881C353.848 341.895 354.012 341.901 354.135 341.901C354.955 341.901 355.639 341.799 356.186 341.594C356.732 341.402 357.177 341.088 357.519 340.65C357.874 340.213 358.175 339.625 358.421 338.887L360.021 334.58ZM356.616 314.811L361.887 331.422L362.769 336.631L359.344 337.513L351.284 314.811H356.616ZM379.072 319.548V337H374.13V314.811H378.785L379.072 319.548ZM378.19 325.085L376.591 325.064C376.604 323.492 376.823 322.05 377.247 320.737C377.685 319.425 378.286 318.297 379.052 317.354C379.831 316.41 380.761 315.686 381.841 315.18C382.921 314.66 384.124 314.4 385.45 314.4C386.517 314.4 387.48 314.551 388.342 314.852C389.217 315.139 389.962 315.61 390.577 316.267C391.206 316.923 391.685 317.777 392.013 318.83C392.341 319.869 392.505 321.147 392.505 322.665V337H387.542V322.645C387.542 321.578 387.385 320.737 387.07 320.122C386.77 319.493 386.325 319.049 385.737 318.789C385.163 318.516 384.445 318.379 383.584 318.379C382.736 318.379 381.978 318.557 381.308 318.912C380.638 319.268 380.07 319.753 379.605 320.368C379.154 320.983 378.806 321.694 378.56 322.501C378.313 323.308 378.19 324.169 378.19 325.085ZM407.722 314.811V318.42H395.212V314.811H407.722ZM398.821 309.376H403.764V330.868C403.764 331.552 403.859 332.078 404.051 332.447C404.256 332.803 404.536 333.042 404.892 333.165C405.247 333.288 405.664 333.35 406.143 333.35C406.484 333.35 406.812 333.329 407.127 333.288C407.441 333.247 407.694 333.206 407.886 333.165L407.906 336.938C407.496 337.062 407.018 337.171 406.471 337.267C405.938 337.362 405.322 337.41 404.625 337.41C403.49 337.41 402.485 337.212 401.61 336.815C400.735 336.405 400.052 335.742 399.56 334.826C399.067 333.91 398.821 332.693 398.821 331.176V309.376ZM416.417 305.5V337H411.495V305.5H416.417ZM415.556 325.085L413.956 325.064C413.97 323.533 414.182 322.118 414.592 320.819C415.016 319.521 415.604 318.393 416.355 317.436C417.121 316.465 418.037 315.72 419.104 315.2C420.17 314.667 421.353 314.4 422.651 314.4C423.745 314.4 424.729 314.551 425.604 314.852C426.493 315.152 427.259 315.638 427.901 316.308C428.544 316.964 429.029 317.825 429.357 318.892C429.699 319.944 429.87 321.229 429.87 322.747V337H424.907V322.706C424.907 321.64 424.75 320.792 424.436 320.163C424.135 319.534 423.69 319.083 423.103 318.81C422.515 318.522 421.797 318.379 420.949 318.379C420.061 318.379 419.274 318.557 418.591 318.912C417.921 319.268 417.36 319.753 416.909 320.368C416.458 320.983 416.116 321.694 415.884 322.501C415.665 323.308 415.556 324.169 415.556 325.085ZM444.656 337.41C443.016 337.41 441.532 337.144 440.206 336.61C438.894 336.063 437.772 335.305 436.843 334.334C435.927 333.363 435.223 332.222 434.73 330.909C434.238 329.597 433.992 328.182 433.992 326.664V325.844C433.992 324.107 434.245 322.535 434.751 321.127C435.257 319.719 435.961 318.516 436.863 317.518C437.766 316.506 438.832 315.733 440.062 315.2C441.293 314.667 442.626 314.4 444.062 314.4C445.647 314.4 447.035 314.667 448.225 315.2C449.414 315.733 450.398 316.485 451.178 317.456C451.971 318.413 452.559 319.555 452.941 320.881C453.338 322.207 453.536 323.67 453.536 325.27V327.382H436.392V323.834H448.655V323.444C448.628 322.556 448.45 321.722 448.122 320.942C447.808 320.163 447.322 319.534 446.666 319.056C446.01 318.577 445.135 318.338 444.041 318.338C443.221 318.338 442.489 318.516 441.847 318.871C441.218 319.213 440.691 319.712 440.268 320.368C439.844 321.024 439.516 321.817 439.283 322.747C439.064 323.663 438.955 324.695 438.955 325.844V326.664C438.955 327.635 439.085 328.537 439.345 329.371C439.618 330.191 440.015 330.909 440.534 331.524C441.054 332.14 441.683 332.625 442.421 332.98C443.159 333.322 444 333.493 444.943 333.493C446.133 333.493 447.192 333.254 448.122 332.775C449.052 332.297 449.858 331.62 450.542 330.745L453.146 333.268C452.668 333.965 452.046 334.635 451.28 335.277C450.515 335.906 449.578 336.419 448.471 336.815C447.377 337.212 446.105 337.41 444.656 337.41ZM467.563 314.811V318.42H455.054V314.811H467.563ZM458.663 309.376H463.605V330.868C463.605 331.552 463.701 332.078 463.893 332.447C464.098 332.803 464.378 333.042 464.733 333.165C465.089 333.288 465.506 333.35 465.984 333.35C466.326 333.35 466.654 333.329 466.969 333.288C467.283 333.247 467.536 333.206 467.728 333.165L467.748 336.938C467.338 337.062 466.859 337.171 466.312 337.267C465.779 337.362 465.164 337.41 464.467 337.41C463.332 337.41 462.327 337.212 461.452 336.815C460.577 336.405 459.894 335.742 459.401 334.826C458.909 333.91 458.663 332.693 458.663 331.176V309.376ZM476.669 314.811V337H471.706V314.811H476.669ZM471.378 308.986C471.378 308.234 471.624 307.612 472.116 307.12C472.622 306.614 473.319 306.361 474.208 306.361C475.083 306.361 475.773 306.614 476.279 307.12C476.785 307.612 477.038 308.234 477.038 308.986C477.038 309.725 476.785 310.34 476.279 310.832C475.773 311.324 475.083 311.57 474.208 311.57C473.319 311.57 472.622 311.324 472.116 310.832C471.624 310.34 471.378 309.725 471.378 308.986ZM491.147 333.473C491.954 333.473 492.679 333.315 493.321 333.001C493.978 332.673 494.504 332.222 494.9 331.647C495.311 331.073 495.536 330.41 495.577 329.658H500.232C500.205 331.094 499.781 332.399 498.961 333.575C498.141 334.751 497.054 335.688 495.7 336.385C494.347 337.068 492.85 337.41 491.209 337.41C489.514 337.41 488.037 337.123 486.779 336.549C485.521 335.961 484.476 335.154 483.642 334.129C482.808 333.104 482.179 331.921 481.755 330.581C481.345 329.241 481.14 327.806 481.14 326.274V325.557C481.14 324.025 481.345 322.59 481.755 321.25C482.179 319.896 482.808 318.707 483.642 317.682C484.476 316.656 485.521 315.856 486.779 315.282C488.037 314.694 489.507 314.4 491.188 314.4C492.966 314.4 494.524 314.756 495.864 315.467C497.204 316.164 498.257 317.142 499.022 318.399C499.802 319.644 500.205 321.093 500.232 322.747H495.577C495.536 321.927 495.331 321.188 494.962 320.532C494.606 319.862 494.101 319.329 493.444 318.933C492.802 318.536 492.029 318.338 491.127 318.338C490.129 318.338 489.302 318.543 488.646 318.953C487.989 319.35 487.477 319.896 487.107 320.594C486.738 321.277 486.472 322.05 486.308 322.911C486.157 323.759 486.082 324.641 486.082 325.557V326.274C486.082 327.19 486.157 328.079 486.308 328.94C486.458 329.802 486.718 330.574 487.087 331.258C487.47 331.928 487.989 332.468 488.646 332.878C489.302 333.274 490.136 333.473 491.147 333.473ZM514.978 307.141H525.539C527.809 307.141 529.743 307.482 531.343 308.166C532.942 308.85 534.166 309.861 535.014 311.201C535.875 312.527 536.306 314.168 536.306 316.123C536.306 317.613 536.032 318.926 535.485 320.061C534.938 321.195 534.166 322.152 533.168 322.932C532.17 323.697 530.98 324.292 529.6 324.716L528.041 325.475H518.546L518.505 321.394H525.621C526.852 321.394 527.877 321.175 528.697 320.737C529.518 320.3 530.133 319.705 530.543 318.953C530.967 318.188 531.179 317.326 531.179 316.369C531.179 315.33 530.974 314.428 530.563 313.662C530.167 312.883 529.552 312.288 528.718 311.878C527.884 311.454 526.824 311.242 525.539 311.242H520.125V337H514.978V307.141ZM532.02 337L525.006 323.588L530.399 323.567L537.516 336.733V337H532.02ZM554.291 331.771V314.811H559.254V337H554.578L554.291 331.771ZM554.988 327.156L556.649 327.115C556.649 328.605 556.485 329.979 556.157 331.237C555.829 332.481 555.323 333.568 554.64 334.498C553.956 335.414 553.081 336.132 552.015 336.651C550.948 337.157 549.67 337.41 548.18 337.41C547.1 337.41 546.108 337.253 545.206 336.938C544.304 336.624 543.524 336.139 542.868 335.482C542.226 334.826 541.727 333.972 541.371 332.919C541.016 331.866 540.838 330.608 540.838 329.146V314.811H545.78V329.187C545.78 329.993 545.876 330.67 546.067 331.217C546.259 331.75 546.519 332.181 546.847 332.509C547.175 332.837 547.558 333.069 547.995 333.206C548.433 333.343 548.897 333.411 549.39 333.411C550.798 333.411 551.905 333.138 552.712 332.591C553.532 332.03 554.113 331.278 554.455 330.335C554.811 329.392 554.988 328.332 554.988 327.156ZM564.34 305.5H569.282V332.263L568.811 337H564.34V305.5ZM583.761 325.7V326.131C583.761 327.771 583.576 329.282 583.207 330.663C582.852 332.03 582.305 333.22 581.566 334.231C580.842 335.243 579.939 336.029 578.859 336.59C577.793 337.137 576.556 337.41 575.147 337.41C573.767 337.41 572.563 337.15 571.538 336.631C570.513 336.111 569.651 335.373 568.954 334.416C568.271 333.459 567.717 332.317 567.293 330.991C566.869 329.665 566.568 328.202 566.391 326.603V325.229C566.568 323.615 566.869 322.152 567.293 320.84C567.717 319.514 568.271 318.372 568.954 317.415C569.651 316.444 570.506 315.699 571.518 315.18C572.543 314.66 573.739 314.4 575.106 314.4C576.528 314.4 577.779 314.674 578.859 315.221C579.953 315.768 580.862 316.547 581.587 317.559C582.312 318.557 582.852 319.746 583.207 321.127C583.576 322.508 583.761 324.032 583.761 325.7ZM578.818 326.131V325.7C578.818 324.702 578.736 323.766 578.572 322.891C578.408 322.002 578.135 321.223 577.752 320.553C577.383 319.883 576.877 319.356 576.234 318.974C575.605 318.577 574.819 318.379 573.876 318.379C573.001 318.379 572.249 318.529 571.62 318.83C570.991 319.131 570.465 319.541 570.041 320.061C569.617 320.58 569.282 321.182 569.036 321.865C568.804 322.549 568.646 323.287 568.564 324.08V327.792C568.688 328.817 568.947 329.761 569.344 330.622C569.754 331.47 570.328 332.153 571.066 332.673C571.805 333.179 572.755 333.432 573.917 333.432C574.833 333.432 575.605 333.247 576.234 332.878C576.863 332.509 577.362 331.996 577.731 331.34C578.114 330.67 578.388 329.891 578.552 329.002C578.729 328.113 578.818 327.156 578.818 326.131ZM587.965 305.5H592.907V332.263L592.436 337H587.965V305.5ZM607.386 325.7V326.131C607.386 327.771 607.201 329.282 606.832 330.663C606.477 332.03 605.93 333.22 605.191 334.231C604.467 335.243 603.564 336.029 602.484 336.59C601.418 337.137 600.181 337.41 598.772 337.41C597.392 337.41 596.188 337.15 595.163 336.631C594.138 336.111 593.276 335.373 592.579 334.416C591.896 333.459 591.342 332.317 590.918 330.991C590.494 329.665 590.193 328.202 590.016 326.603V325.229C590.193 323.615 590.494 322.152 590.918 320.84C591.342 319.514 591.896 318.372 592.579 317.415C593.276 316.444 594.131 315.699 595.143 315.18C596.168 314.66 597.364 314.4 598.731 314.4C600.153 314.4 601.404 314.674 602.484 315.221C603.578 315.768 604.487 316.547 605.212 317.559C605.937 318.557 606.477 319.746 606.832 321.127C607.201 322.508 607.386 324.032 607.386 325.7ZM602.443 326.131V325.7C602.443 324.702 602.361 323.766 602.197 322.891C602.033 322.002 601.76 321.223 601.377 320.553C601.008 319.883 600.502 319.356 599.859 318.974C599.23 318.577 598.444 318.379 597.501 318.379C596.626 318.379 595.874 318.529 595.245 318.83C594.616 319.131 594.09 319.541 593.666 320.061C593.242 320.58 592.907 321.182 592.661 321.865C592.429 322.549 592.271 323.287 592.189 324.08V327.792C592.312 328.817 592.572 329.761 592.969 330.622C593.379 331.47 593.953 332.153 594.691 332.673C595.43 333.179 596.38 333.432 597.542 333.432C598.458 333.432 599.23 333.247 599.859 332.878C600.488 332.509 600.987 331.996 601.356 331.34C601.739 330.67 602.013 329.891 602.177 329.002C602.354 328.113 602.443 327.156 602.443 326.131ZM621.352 337.41C619.711 337.41 618.228 337.144 616.901 336.61C615.589 336.063 614.468 335.305 613.538 334.334C612.622 333.363 611.918 332.222 611.426 330.909C610.934 329.597 610.688 328.182 610.688 326.664V325.844C610.688 324.107 610.94 322.535 611.446 321.127C611.952 319.719 612.656 318.516 613.559 317.518C614.461 316.506 615.527 315.733 616.758 315.2C617.988 314.667 619.321 314.4 620.757 314.4C622.343 314.4 623.73 314.667 624.92 315.2C626.109 315.733 627.094 316.485 627.873 317.456C628.666 318.413 629.254 319.555 629.637 320.881C630.033 322.207 630.231 323.67 630.231 325.27V327.382H613.087V323.834H625.351V323.444C625.323 322.556 625.146 321.722 624.817 320.942C624.503 320.163 624.018 319.534 623.361 319.056C622.705 318.577 621.83 318.338 620.736 318.338C619.916 318.338 619.185 318.516 618.542 318.871C617.913 319.213 617.387 319.712 616.963 320.368C616.539 321.024 616.211 321.817 615.979 322.747C615.76 323.663 615.65 324.695 615.65 325.844V326.664C615.65 327.635 615.78 328.537 616.04 329.371C616.313 330.191 616.71 330.909 617.229 331.524C617.749 332.14 618.378 332.625 619.116 332.98C619.854 333.322 620.695 333.493 621.639 333.493C622.828 333.493 623.888 333.254 624.817 332.775C625.747 332.297 626.554 331.62 627.237 330.745L629.842 333.268C629.363 333.965 628.741 334.635 627.976 335.277C627.21 335.906 626.273 336.419 625.166 336.815C624.072 337.212 622.801 337.41 621.352 337.41ZM639.05 319.035V337H634.107V314.811H638.824L639.05 319.035ZM645.838 314.667L645.797 319.261C645.496 319.206 645.168 319.165 644.812 319.138C644.471 319.11 644.129 319.097 643.787 319.097C642.939 319.097 642.194 319.22 641.552 319.466C640.909 319.698 640.369 320.04 639.932 320.491C639.508 320.929 639.18 321.462 638.947 322.091C638.715 322.72 638.578 323.424 638.537 324.203L637.409 324.285C637.409 322.891 637.546 321.599 637.819 320.409C638.093 319.22 638.503 318.174 639.05 317.271C639.61 316.369 640.308 315.665 641.142 315.159C641.989 314.653 642.967 314.4 644.074 314.4C644.375 314.4 644.696 314.428 645.038 314.482C645.394 314.537 645.66 314.599 645.838 314.667Z" fill="#1C4670"/>
<path d="M987.827 233H785V407H987.827C991.056 407 994.152 405.72 996.435 403.441C998.717 401.162 1000 398.072 1000 394.849V245.22C1000.01 243.619 999.701 242.031 999.093 240.549C998.486 239.067 997.59 237.719 996.459 236.583C995.328 235.448 993.983 234.547 992.502 233.932C991.02 233.317 989.432 233 987.827 233Z" fill="#FFA229"/>
<path opacity="0.2" d="M815 407H987.871C991.088 407 994.173 405.727 996.448 403.462C998.722 401.196 1000 398.123 1000 394.919V249C950.324 270.331 879.889 314.841 815 407Z" fill="white"/>
<path d="M870.264 358.703C863.73 358.703 858.677 356.872 855.103 353.21C851.558 349.548 849.785 344.274 849.785 337.39V302.497C849.785 295.231 851.47 289.665 854.839 285.798C858.237 281.901 863.379 279.953 870.264 279.953C877.178 279.953 882.319 281.901 885.688 285.798C889.058 289.665 890.742 295.231 890.742 302.497V337.39C890.742 344.274 888.97 349.548 885.425 353.21C881.88 356.872 876.826 358.703 870.264 358.703ZM870.264 344.465C871.465 344.465 872.402 343.923 873.076 342.839C873.75 341.755 874.087 340.539 874.087 339.191V301.003C874.087 299.187 873.882 297.604 873.472 296.257C873.091 294.88 872.021 294.191 870.264 294.191C868.506 294.191 867.422 294.88 867.012 296.257C866.631 297.604 866.44 299.187 866.44 301.003V339.191C866.44 340.539 866.777 341.755 867.451 342.839C868.154 343.923 869.092 344.465 870.264 344.465ZM895.225 358V354.309C895.225 350.471 895.811 347.028 896.982 343.981C898.184 340.905 899.722 338.063 901.597 335.456C903.472 332.819 905.449 330.241 907.529 327.722C909.551 325.261 911.47 322.741 913.286 320.163C915.132 317.556 916.626 314.743 917.769 311.726C918.94 308.679 919.526 305.266 919.526 301.486C919.526 299.67 919.248 298.117 918.691 296.828C918.164 295.51 917.051 294.851 915.352 294.851C912.773 294.851 911.484 297.15 911.484 301.75V311.198H895.225C895.195 310.524 895.151 309.763 895.093 308.913C895.063 308.063 895.049 307.243 895.049 306.452C895.049 300.886 895.635 296.169 896.807 292.302C897.979 288.405 900.044 285.446 903.003 283.425C905.991 281.374 910.181 280.349 915.571 280.349C921.987 280.349 926.968 282.15 930.513 285.754C934.087 289.357 935.874 294.499 935.874 301.179C935.874 305.72 935.288 309.704 934.116 313.132C932.944 316.53 931.392 319.636 929.458 322.448C927.524 325.231 925.4 328.015 923.086 330.798C921.445 332.761 919.849 334.768 918.296 336.818C916.772 338.869 915.425 341.066 914.253 343.41H935.347V358H895.225Z" fill="white"/>
<path d="M28.069 439C24.8681 439 21.7983 440.281 19.5349 442.56C17.2716 444.84 16 447.932 16 451.156V600.844C16 604.068 17.2716 607.16 19.5349 609.44C21.7983 611.719 24.8681 613 28.069 613H66V439H28.069Z" fill="#1C4670"/>
<g filter="url(#filter1_d_17_3834)">
<path d="M785 439H66V613H785V439Z" fill="white"/>
</g>
<path d="M318.213 513.141H328.774C331.044 513.141 332.979 513.482 334.578 514.166C336.178 514.85 337.401 515.861 338.249 517.201C339.11 518.527 339.541 520.168 339.541 522.123C339.541 523.613 339.268 524.926 338.721 526.061C338.174 527.195 337.401 528.152 336.403 528.932C335.405 529.697 334.216 530.292 332.835 530.716L331.276 531.475H321.781L321.74 527.394H328.856C330.087 527.394 331.112 527.175 331.933 526.737C332.753 526.3 333.368 525.705 333.778 524.953C334.202 524.188 334.414 523.326 334.414 522.369C334.414 521.33 334.209 520.428 333.799 519.662C333.402 518.883 332.787 518.288 331.953 517.878C331.119 517.454 330.06 517.242 328.774 517.242H323.36V543H318.213V513.141ZM335.255 543L328.241 529.588L333.635 529.567L340.751 542.733V543H335.255ZM353.958 543.41C352.317 543.41 350.834 543.144 349.508 542.61C348.195 542.063 347.074 541.305 346.145 540.334C345.229 539.363 344.524 538.222 344.032 536.909C343.54 535.597 343.294 534.182 343.294 532.664V531.844C343.294 530.107 343.547 528.535 344.053 527.127C344.559 525.719 345.263 524.516 346.165 523.518C347.067 522.506 348.134 521.733 349.364 521.2C350.595 520.667 351.928 520.4 353.363 520.4C354.949 520.4 356.337 520.667 357.526 521.2C358.716 521.733 359.7 522.485 360.479 523.456C361.272 524.413 361.86 525.555 362.243 526.881C362.64 528.207 362.838 529.67 362.838 531.27V533.382H345.693V529.834H357.957V529.444C357.93 528.556 357.752 527.722 357.424 526.942C357.109 526.163 356.624 525.534 355.968 525.056C355.312 524.577 354.437 524.338 353.343 524.338C352.522 524.338 351.791 524.516 351.148 524.871C350.52 525.213 349.993 525.712 349.569 526.368C349.146 527.024 348.817 527.817 348.585 528.747C348.366 529.663 348.257 530.695 348.257 531.844V532.664C348.257 533.635 348.387 534.537 348.646 535.371C348.92 536.191 349.316 536.909 349.836 537.524C350.355 538.14 350.984 538.625 351.723 538.98C352.461 539.322 353.302 539.493 354.245 539.493C355.435 539.493 356.494 539.254 357.424 538.775C358.354 538.297 359.16 537.62 359.844 536.745L362.448 539.268C361.97 539.965 361.348 540.635 360.582 541.277C359.816 541.906 358.88 542.419 357.772 542.815C356.679 543.212 355.407 543.41 353.958 543.41ZM375.758 539.473C376.564 539.473 377.289 539.315 377.932 539.001C378.588 538.673 379.114 538.222 379.511 537.647C379.921 537.073 380.146 536.41 380.188 535.658H384.843C384.815 537.094 384.392 538.399 383.571 539.575C382.751 540.751 381.664 541.688 380.311 542.385C378.957 543.068 377.46 543.41 375.819 543.41C374.124 543.41 372.647 543.123 371.39 542.549C370.132 541.961 369.086 541.154 368.252 540.129C367.418 539.104 366.789 537.921 366.365 536.581C365.955 535.241 365.75 533.806 365.75 532.274V531.557C365.75 530.025 365.955 528.59 366.365 527.25C366.789 525.896 367.418 524.707 368.252 523.682C369.086 522.656 370.132 521.856 371.39 521.282C372.647 520.694 374.117 520.4 375.799 520.4C377.576 520.4 379.135 520.756 380.475 521.467C381.814 522.164 382.867 523.142 383.633 524.399C384.412 525.644 384.815 527.093 384.843 528.747H380.188C380.146 527.927 379.941 527.188 379.572 526.532C379.217 525.862 378.711 525.329 378.055 524.933C377.412 524.536 376.64 524.338 375.737 524.338C374.739 524.338 373.912 524.543 373.256 524.953C372.6 525.35 372.087 525.896 371.718 526.594C371.349 527.277 371.082 528.05 370.918 528.911C370.768 529.759 370.692 530.641 370.692 531.557V532.274C370.692 533.19 370.768 534.079 370.918 534.94C371.068 535.802 371.328 536.574 371.697 537.258C372.08 537.928 372.6 538.468 373.256 538.878C373.912 539.274 374.746 539.473 375.758 539.473ZM393.928 511.5V543H388.965V511.5H393.928ZM411.852 538.55V527.968C411.852 527.175 411.708 526.491 411.421 525.917C411.134 525.343 410.696 524.898 410.108 524.584C409.534 524.27 408.81 524.112 407.935 524.112C407.128 524.112 406.431 524.249 405.843 524.522C405.255 524.796 404.797 525.165 404.469 525.63C404.141 526.095 403.977 526.621 403.977 527.209H399.055C399.055 526.334 399.267 525.486 399.69 524.666C400.114 523.846 400.729 523.114 401.536 522.472C402.343 521.829 403.307 521.323 404.428 520.954C405.549 520.585 406.807 520.4 408.201 520.4C409.869 520.4 411.346 520.681 412.631 521.241C413.93 521.802 414.948 522.649 415.687 523.784C416.438 524.905 416.814 526.313 416.814 528.009V537.873C416.814 538.885 416.883 539.794 417.02 540.601C417.17 541.394 417.382 542.084 417.655 542.672V543H412.59C412.357 542.467 412.173 541.79 412.036 540.97C411.913 540.136 411.852 539.329 411.852 538.55ZM412.569 529.506L412.61 532.562H409.062C408.146 532.562 407.34 532.65 406.643 532.828C405.945 532.992 405.364 533.238 404.899 533.566C404.435 533.895 404.086 534.291 403.854 534.756C403.621 535.221 403.505 535.747 403.505 536.335C403.505 536.923 403.642 537.463 403.915 537.955C404.188 538.434 404.585 538.81 405.104 539.083C405.638 539.356 406.28 539.493 407.032 539.493C408.044 539.493 408.926 539.288 409.678 538.878C410.443 538.454 411.045 537.941 411.482 537.34C411.92 536.725 412.152 536.144 412.18 535.597L413.779 537.791C413.615 538.352 413.335 538.953 412.938 539.596C412.542 540.238 412.022 540.854 411.38 541.441C410.751 542.016 409.992 542.487 409.104 542.856C408.229 543.226 407.217 543.41 406.068 543.41C404.619 543.41 403.327 543.123 402.192 542.549C401.058 541.961 400.169 541.175 399.526 540.19C398.884 539.192 398.562 538.064 398.562 536.807C398.562 535.631 398.781 534.592 399.219 533.689C399.67 532.773 400.326 532.008 401.188 531.393C402.062 530.777 403.129 530.312 404.387 529.998C405.645 529.67 407.08 529.506 408.693 529.506H412.569ZM427.273 520.811V543H422.311V520.811H427.273ZM421.982 514.986C421.982 514.234 422.229 513.612 422.721 513.12C423.227 512.614 423.924 512.361 424.812 512.361C425.688 512.361 426.378 512.614 426.884 513.12C427.39 513.612 427.643 514.234 427.643 514.986C427.643 515.725 427.39 516.34 426.884 516.832C426.378 517.324 425.688 517.57 424.812 517.57C423.924 517.57 423.227 517.324 422.721 516.832C422.229 516.34 421.982 515.725 421.982 514.986ZM437.63 525.322V543H432.688V520.811H437.343L437.63 525.322ZM436.83 531.085L435.148 531.064C435.148 529.533 435.34 528.118 435.723 526.819C436.105 525.521 436.666 524.393 437.404 523.436C438.143 522.465 439.059 521.72 440.152 521.2C441.26 520.667 442.538 520.4 443.987 520.4C444.999 520.4 445.922 520.551 446.756 520.852C447.604 521.139 448.335 521.597 448.95 522.226C449.579 522.854 450.058 523.661 450.386 524.646C450.728 525.63 450.898 526.819 450.898 528.214V543H445.956V528.645C445.956 527.564 445.792 526.717 445.464 526.102C445.149 525.486 444.691 525.049 444.09 524.789C443.502 524.516 442.798 524.379 441.978 524.379C441.048 524.379 440.255 524.557 439.599 524.912C438.956 525.268 438.43 525.753 438.02 526.368C437.609 526.983 437.309 527.694 437.117 528.501C436.926 529.308 436.83 530.169 436.83 531.085ZM450.591 529.772L448.273 530.285C448.273 528.945 448.458 527.681 448.827 526.491C449.21 525.288 449.764 524.235 450.488 523.333C451.227 522.417 452.136 521.699 453.216 521.18C454.296 520.66 455.533 520.4 456.928 520.4C458.062 520.4 459.074 520.558 459.963 520.872C460.865 521.173 461.631 521.651 462.26 522.308C462.889 522.964 463.367 523.818 463.695 524.871C464.023 525.91 464.188 527.168 464.188 528.645V543H459.225V528.624C459.225 527.503 459.061 526.635 458.732 526.02C458.418 525.404 457.967 524.98 457.379 524.748C456.791 524.502 456.087 524.379 455.267 524.379C454.501 524.379 453.824 524.522 453.236 524.81C452.662 525.083 452.177 525.473 451.78 525.979C451.384 526.471 451.083 527.038 450.878 527.681C450.687 528.323 450.591 529.021 450.591 529.772ZM479.056 543.41C477.415 543.41 475.932 543.144 474.605 542.61C473.293 542.063 472.172 541.305 471.242 540.334C470.326 539.363 469.622 538.222 469.13 536.909C468.638 535.597 468.392 534.182 468.392 532.664V531.844C468.392 530.107 468.645 528.535 469.15 527.127C469.656 525.719 470.36 524.516 471.263 523.518C472.165 522.506 473.231 521.733 474.462 521.2C475.692 520.667 477.025 520.4 478.461 520.4C480.047 520.4 481.435 520.667 482.624 521.2C483.813 521.733 484.798 522.485 485.577 523.456C486.37 524.413 486.958 525.555 487.341 526.881C487.737 528.207 487.936 529.67 487.936 531.27V533.382H470.791V529.834H483.055V529.444C483.027 528.556 482.85 527.722 482.521 526.942C482.207 526.163 481.722 525.534 481.065 525.056C480.409 524.577 479.534 524.338 478.44 524.338C477.62 524.338 476.889 524.516 476.246 524.871C475.617 525.213 475.091 525.712 474.667 526.368C474.243 527.024 473.915 527.817 473.683 528.747C473.464 529.663 473.354 530.695 473.354 531.844V532.664C473.354 533.635 473.484 534.537 473.744 535.371C474.018 536.191 474.414 536.909 474.934 537.524C475.453 538.14 476.082 538.625 476.82 538.98C477.559 539.322 478.399 539.493 479.343 539.493C480.532 539.493 481.592 539.254 482.521 538.775C483.451 538.297 484.258 537.62 484.941 536.745L487.546 539.268C487.067 539.965 486.445 540.635 485.68 541.277C484.914 541.906 483.978 542.419 482.87 542.815C481.776 543.212 480.505 543.41 479.056 543.41ZM505.326 538.406V511.5H510.289V543H505.798L505.326 538.406ZM490.889 532.151V531.721C490.889 530.039 491.087 528.508 491.483 527.127C491.88 525.732 492.454 524.536 493.206 523.538C493.958 522.526 494.874 521.754 495.954 521.221C497.034 520.674 498.251 520.4 499.604 520.4C500.944 520.4 502.12 520.66 503.132 521.18C504.144 521.699 505.005 522.444 505.716 523.415C506.427 524.372 506.994 525.521 507.418 526.86C507.842 528.187 508.143 529.663 508.32 531.29V532.664C508.143 534.25 507.842 535.699 507.418 537.012C506.994 538.324 506.427 539.459 505.716 540.416C505.005 541.373 504.137 542.111 503.111 542.631C502.1 543.15 500.917 543.41 499.563 543.41C498.224 543.41 497.014 543.13 495.934 542.569C494.867 542.009 493.958 541.223 493.206 540.211C492.454 539.199 491.88 538.01 491.483 536.643C491.087 535.262 490.889 533.765 490.889 532.151ZM495.831 531.721V532.151C495.831 533.163 495.92 534.106 496.098 534.981C496.289 535.856 496.583 536.629 496.979 537.299C497.376 537.955 497.889 538.475 498.518 538.857C499.16 539.227 499.926 539.411 500.814 539.411C501.936 539.411 502.858 539.165 503.583 538.673C504.308 538.181 504.875 537.518 505.285 536.684C505.709 535.836 505.996 534.893 506.146 533.854V530.142C506.064 529.335 505.894 528.583 505.634 527.886C505.388 527.188 505.053 526.58 504.629 526.061C504.205 525.527 503.679 525.117 503.05 524.83C502.435 524.529 501.703 524.379 500.855 524.379C499.953 524.379 499.188 524.57 498.559 524.953C497.93 525.336 497.41 525.862 497 526.532C496.604 527.202 496.31 527.981 496.118 528.87C495.927 529.759 495.831 530.709 495.831 531.721ZM526.408 513.141H536.97C539.239 513.141 541.174 513.482 542.773 514.166C544.373 514.85 545.597 515.861 546.444 517.201C547.306 518.527 547.736 520.168 547.736 522.123C547.736 523.613 547.463 524.926 546.916 526.061C546.369 527.195 545.597 528.152 544.599 528.932C543.601 529.697 542.411 530.292 541.03 530.716L539.472 531.475H529.977L529.936 527.394H537.052C538.282 527.394 539.308 527.175 540.128 526.737C540.948 526.3 541.563 525.705 541.974 524.953C542.397 524.188 542.609 523.326 542.609 522.369C542.609 521.33 542.404 520.428 541.994 519.662C541.598 518.883 540.982 518.288 540.148 517.878C539.314 517.454 538.255 517.242 536.97 517.242H531.556V543H526.408V513.141ZM543.45 543L536.437 529.588L541.83 529.567L548.946 542.733V543H543.45ZM565.722 537.771V520.811H570.685V543H566.009L565.722 537.771ZM566.419 533.156L568.08 533.115C568.08 534.605 567.916 535.979 567.588 537.237C567.26 538.481 566.754 539.568 566.07 540.498C565.387 541.414 564.512 542.132 563.445 542.651C562.379 543.157 561.101 543.41 559.61 543.41C558.53 543.41 557.539 543.253 556.637 542.938C555.734 542.624 554.955 542.139 554.299 541.482C553.656 540.826 553.157 539.972 552.802 538.919C552.446 537.866 552.269 536.608 552.269 535.146V520.811H557.211V535.187C557.211 535.993 557.307 536.67 557.498 537.217C557.689 537.75 557.949 538.181 558.277 538.509C558.605 538.837 558.988 539.069 559.426 539.206C559.863 539.343 560.328 539.411 560.82 539.411C562.229 539.411 563.336 539.138 564.143 538.591C564.963 538.03 565.544 537.278 565.886 536.335C566.241 535.392 566.419 534.332 566.419 533.156ZM575.771 511.5H580.713V538.263L580.241 543H575.771V511.5ZM595.191 531.7V532.131C595.191 533.771 595.007 535.282 594.638 536.663C594.282 538.03 593.735 539.22 592.997 540.231C592.272 541.243 591.37 542.029 590.29 542.59C589.224 543.137 587.986 543.41 586.578 543.41C585.197 543.41 583.994 543.15 582.969 542.631C581.943 542.111 581.082 541.373 580.385 540.416C579.701 539.459 579.147 538.317 578.724 536.991C578.3 535.665 577.999 534.202 577.821 532.603V531.229C577.999 529.615 578.3 528.152 578.724 526.84C579.147 525.514 579.701 524.372 580.385 523.415C581.082 522.444 581.937 521.699 582.948 521.18C583.974 520.66 585.17 520.4 586.537 520.4C587.959 520.4 589.21 520.674 590.29 521.221C591.384 521.768 592.293 522.547 593.018 523.559C593.742 524.557 594.282 525.746 594.638 527.127C595.007 528.508 595.191 530.032 595.191 531.7ZM590.249 532.131V531.7C590.249 530.702 590.167 529.766 590.003 528.891C589.839 528.002 589.565 527.223 589.183 526.553C588.813 525.883 588.308 525.356 587.665 524.974C587.036 524.577 586.25 524.379 585.307 524.379C584.432 524.379 583.68 524.529 583.051 524.83C582.422 525.131 581.896 525.541 581.472 526.061C581.048 526.58 580.713 527.182 580.467 527.865C580.234 528.549 580.077 529.287 579.995 530.08V533.792C580.118 534.817 580.378 535.761 580.774 536.622C581.185 537.47 581.759 538.153 582.497 538.673C583.235 539.179 584.186 539.432 585.348 539.432C586.264 539.432 587.036 539.247 587.665 538.878C588.294 538.509 588.793 537.996 589.162 537.34C589.545 536.67 589.818 535.891 589.982 535.002C590.16 534.113 590.249 533.156 590.249 532.131ZM599.396 511.5H604.338V538.263L603.866 543H599.396V511.5ZM618.816 531.7V532.131C618.816 533.771 618.632 535.282 618.263 536.663C617.907 538.03 617.36 539.22 616.622 540.231C615.897 541.243 614.995 542.029 613.915 542.59C612.849 543.137 611.611 543.41 610.203 543.41C608.822 543.41 607.619 543.15 606.594 542.631C605.568 542.111 604.707 541.373 604.01 540.416C603.326 539.459 602.772 538.317 602.349 536.991C601.925 535.665 601.624 534.202 601.446 532.603V531.229C601.624 529.615 601.925 528.152 602.349 526.84C602.772 525.514 603.326 524.372 604.01 523.415C604.707 522.444 605.562 521.699 606.573 521.18C607.599 520.66 608.795 520.4 610.162 520.4C611.584 520.4 612.835 520.674 613.915 521.221C615.009 521.768 615.918 522.547 616.643 523.559C617.367 524.557 617.907 525.746 618.263 527.127C618.632 528.508 618.816 530.032 618.816 531.7ZM613.874 532.131V531.7C613.874 530.702 613.792 529.766 613.628 528.891C613.464 528.002 613.19 527.223 612.808 526.553C612.438 525.883 611.933 525.356 611.29 524.974C610.661 524.577 609.875 524.379 608.932 524.379C608.057 524.379 607.305 524.529 606.676 524.83C606.047 525.131 605.521 525.541 605.097 526.061C604.673 526.58 604.338 527.182 604.092 527.865C603.859 528.549 603.702 529.287 603.62 530.08V533.792C603.743 534.817 604.003 535.761 604.399 536.622C604.81 537.47 605.384 538.153 606.122 538.673C606.86 539.179 607.811 539.432 608.973 539.432C609.889 539.432 610.661 539.247 611.29 538.878C611.919 538.509 612.418 537.996 612.787 537.34C613.17 536.67 613.443 535.891 613.607 535.002C613.785 534.113 613.874 533.156 613.874 532.131ZM632.782 543.41C631.142 543.41 629.658 543.144 628.332 542.61C627.02 542.063 625.898 541.305 624.969 540.334C624.053 539.363 623.349 538.222 622.856 536.909C622.364 535.597 622.118 534.182 622.118 532.664V531.844C622.118 530.107 622.371 528.535 622.877 527.127C623.383 525.719 624.087 524.516 624.989 523.518C625.892 522.506 626.958 521.733 628.188 521.2C629.419 520.667 630.752 520.4 632.188 520.4C633.773 520.4 635.161 520.667 636.351 521.2C637.54 521.733 638.524 522.485 639.304 523.456C640.097 524.413 640.685 525.555 641.067 526.881C641.464 528.207 641.662 529.67 641.662 531.27V533.382H624.518V529.834H636.781V529.444C636.754 528.556 636.576 527.722 636.248 526.942C635.934 526.163 635.448 525.534 634.792 525.056C634.136 524.577 633.261 524.338 632.167 524.338C631.347 524.338 630.615 524.516 629.973 524.871C629.344 525.213 628.817 525.712 628.394 526.368C627.97 527.024 627.642 527.817 627.409 528.747C627.19 529.663 627.081 530.695 627.081 531.844V532.664C627.081 533.635 627.211 534.537 627.471 535.371C627.744 536.191 628.141 536.909 628.66 537.524C629.18 538.14 629.809 538.625 630.547 538.98C631.285 539.322 632.126 539.493 633.069 539.493C634.259 539.493 635.318 539.254 636.248 538.775C637.178 538.297 637.984 537.62 638.668 536.745L641.272 539.268C640.794 539.965 640.172 540.635 639.406 541.277C638.641 541.906 637.704 542.419 636.597 542.815C635.503 543.212 634.231 543.41 632.782 543.41ZM650.48 525.035V543H645.538V520.811H650.255L650.48 525.035ZM657.269 520.667L657.228 525.261C656.927 525.206 656.599 525.165 656.243 525.138C655.901 525.11 655.56 525.097 655.218 525.097C654.37 525.097 653.625 525.22 652.982 525.466C652.34 525.698 651.8 526.04 651.362 526.491C650.938 526.929 650.61 527.462 650.378 528.091C650.146 528.72 650.009 529.424 649.968 530.203L648.84 530.285C648.84 528.891 648.977 527.599 649.25 526.409C649.523 525.22 649.934 524.174 650.48 523.271C651.041 522.369 651.738 521.665 652.572 521.159C653.42 520.653 654.397 520.4 655.505 520.4C655.806 520.4 656.127 520.428 656.469 520.482C656.824 520.537 657.091 520.599 657.269 520.667Z" fill="#1C4670"/>
<path d="M987.827 439H785V613H987.827C991.056 613 994.152 611.72 996.435 609.441C998.717 607.162 1000 604.072 1000 600.849V451.22C1000.01 449.619 999.701 448.031 999.093 446.549C998.486 445.067 997.59 443.719 996.459 442.583C995.328 441.448 993.983 440.547 992.502 439.932C991.02 439.317 989.432 439 987.827 439Z" fill="#1C4670"/>
<path d="M870.264 564.703C863.73 564.703 858.677 562.872 855.103 559.21C851.558 555.548 849.785 550.274 849.785 543.39V508.497C849.785 501.231 851.47 495.665 854.839 491.798C858.237 487.901 863.379 485.953 870.264 485.953C877.178 485.953 882.319 487.901 885.688 491.798C889.058 495.665 890.742 501.231 890.742 508.497V543.39C890.742 550.274 888.97 555.548 885.425 559.21C881.88 562.872 876.826 564.703 870.264 564.703ZM870.264 550.465C871.465 550.465 872.402 549.923 873.076 548.839C873.75 547.755 874.087 546.539 874.087 545.191V507.003C874.087 505.187 873.882 503.604 873.472 502.257C873.091 500.88 872.021 500.191 870.264 500.191C868.506 500.191 867.422 500.88 867.012 502.257C866.631 503.604 866.44 505.187 866.44 507.003V545.191C866.44 546.539 866.777 547.755 867.451 548.839C868.154 549.923 869.092 550.465 870.264 550.465ZM913.77 564.879C906.943 564.879 901.978 563.077 898.872 559.474C895.767 555.87 894.214 550.436 894.214 543.17V535.084H910.078V543.214C910.078 545.265 910.327 547.008 910.825 548.443C911.353 549.85 912.51 550.553 914.297 550.553C916.113 550.553 917.271 549.791 917.769 548.268C918.267 546.715 918.516 544.195 918.516 540.709V538.775C918.516 536.109 918.062 533.78 917.153 531.788C916.274 529.796 914.531 528.8 911.924 528.8C911.602 528.8 911.309 528.814 911.045 528.844C910.811 528.844 910.605 528.858 910.43 528.888V515.001C913.096 515.001 915.132 514.415 916.538 513.243C917.944 512.042 918.647 510.05 918.647 507.267C918.647 502.901 917.388 500.719 914.868 500.719C913.228 500.719 912.114 501.363 911.528 502.652C910.972 503.912 910.693 505.523 910.693 507.486V509.815H894.697C894.668 509.464 894.639 509.039 894.609 508.541C894.609 508.043 894.609 507.56 894.609 507.091C894.609 500.001 896.265 494.801 899.575 491.49C902.886 488.18 907.954 486.524 914.78 486.524C927.964 486.524 934.556 493.38 934.556 507.091C934.556 510.899 934.043 514.049 933.018 516.539C931.992 519 930.088 520.729 927.305 521.725C929.502 522.779 931.128 524.127 932.183 525.768C933.237 527.408 933.926 529.444 934.248 531.876C934.57 534.308 934.731 537.252 934.731 540.709C934.731 548.443 933.105 554.405 929.854 558.595C926.631 562.784 921.27 564.879 913.77 564.879Z" fill="white"/>
<path opacity="0.2" d="M815 613H987.871C991.088 613 994.173 611.719 996.448 609.439C998.722 607.159 1000 604.067 1000 600.843V454C950.324 475.484 879.889 520.257 815 613Z" fill="white"/>
<path d="M28.069 28C24.8681 28 21.7983 29.2808 19.5349 31.5607C17.2716 33.8405 16 36.9327 16 40.1569V189.843C16 193.067 17.2716 196.159 19.5349 198.439C21.7983 200.719 24.8681 202 28.069 202H66V28H28.069Z" fill="#1C4670"/>
<g filter="url(#filter2_d_17_3834)">
<path d="M785 28H66V202H785V28Z" fill="white"/>
</g>
<path d="M371.628 102.141V132H366.48L353.089 110.61V132H347.941V102.141H353.089L366.521 123.571V102.141H371.628ZM389.777 127.55V116.968C389.777 116.175 389.634 115.491 389.347 114.917C389.06 114.343 388.622 113.898 388.034 113.584C387.46 113.27 386.735 113.112 385.86 113.112C385.054 113.112 384.356 113.249 383.769 113.522C383.181 113.796 382.723 114.165 382.395 114.63C382.066 115.095 381.902 115.621 381.902 116.209H376.98C376.98 115.334 377.192 114.486 377.616 113.666C378.04 112.846 378.655 112.114 379.462 111.472C380.269 110.829 381.232 110.323 382.354 109.954C383.475 109.585 384.732 109.4 386.127 109.4C387.795 109.4 389.271 109.681 390.557 110.241C391.855 110.802 392.874 111.649 393.612 112.784C394.364 113.905 394.74 115.313 394.74 117.009V126.873C394.74 127.885 394.809 128.794 394.945 129.601C395.096 130.394 395.308 131.084 395.581 131.672V132H390.516C390.283 131.467 390.099 130.79 389.962 129.97C389.839 129.136 389.777 128.329 389.777 127.55ZM390.495 118.506L390.536 121.562H386.988C386.072 121.562 385.266 121.65 384.568 121.828C383.871 121.992 383.29 122.238 382.825 122.566C382.36 122.895 382.012 123.291 381.779 123.756C381.547 124.221 381.431 124.747 381.431 125.335C381.431 125.923 381.567 126.463 381.841 126.955C382.114 127.434 382.511 127.81 383.03 128.083C383.563 128.356 384.206 128.493 384.958 128.493C385.97 128.493 386.852 128.288 387.604 127.878C388.369 127.454 388.971 126.941 389.408 126.34C389.846 125.725 390.078 125.144 390.105 124.597L391.705 126.791C391.541 127.352 391.261 127.953 390.864 128.596C390.468 129.238 389.948 129.854 389.306 130.441C388.677 131.016 387.918 131.487 387.029 131.856C386.154 132.226 385.143 132.41 383.994 132.41C382.545 132.41 381.253 132.123 380.118 131.549C378.983 130.961 378.095 130.175 377.452 129.19C376.81 128.192 376.488 127.064 376.488 125.807C376.488 124.631 376.707 123.592 377.145 122.689C377.596 121.773 378.252 121.008 379.113 120.393C379.988 119.777 381.055 119.312 382.312 118.998C383.57 118.67 385.006 118.506 386.619 118.506H390.495ZM410.08 109.811V113.42H397.57V109.811H410.08ZM401.18 104.376H406.122V125.868C406.122 126.552 406.218 127.078 406.409 127.447C406.614 127.803 406.895 128.042 407.25 128.165C407.605 128.288 408.022 128.35 408.501 128.35C408.843 128.35 409.171 128.329 409.485 128.288C409.8 128.247 410.053 128.206 410.244 128.165L410.265 131.938C409.854 132.062 409.376 132.171 408.829 132.267C408.296 132.362 407.681 132.41 406.983 132.41C405.849 132.41 404.844 132.212 403.969 131.815C403.094 131.405 402.41 130.742 401.918 129.826C401.426 128.91 401.18 127.693 401.18 126.176V104.376ZM427.245 126.771V109.811H432.208V132H427.532L427.245 126.771ZM427.942 122.156L429.604 122.115C429.604 123.605 429.439 124.979 429.111 126.237C428.783 127.481 428.277 128.568 427.594 129.498C426.91 130.414 426.035 131.132 424.969 131.651C423.902 132.157 422.624 132.41 421.134 132.41C420.054 132.41 419.062 132.253 418.16 131.938C417.258 131.624 416.479 131.139 415.822 130.482C415.18 129.826 414.681 128.972 414.325 127.919C413.97 126.866 413.792 125.608 413.792 124.146V109.811H418.734V124.187C418.734 124.993 418.83 125.67 419.021 126.217C419.213 126.75 419.473 127.181 419.801 127.509C420.129 127.837 420.512 128.069 420.949 128.206C421.387 128.343 421.852 128.411 422.344 128.411C423.752 128.411 424.859 128.138 425.666 127.591C426.486 127.03 427.067 126.278 427.409 125.335C427.765 124.392 427.942 123.332 427.942 122.156ZM442.236 114.035V132H437.294V109.811H442.011L442.236 114.035ZM449.024 109.667L448.983 114.261C448.683 114.206 448.354 114.165 447.999 114.138C447.657 114.11 447.315 114.097 446.974 114.097C446.126 114.097 445.381 114.22 444.738 114.466C444.096 114.698 443.556 115.04 443.118 115.491C442.694 115.929 442.366 116.462 442.134 117.091C441.901 117.72 441.765 118.424 441.724 119.203L440.596 119.285C440.596 117.891 440.732 116.599 441.006 115.409C441.279 114.22 441.689 113.174 442.236 112.271C442.797 111.369 443.494 110.665 444.328 110.159C445.176 109.653 446.153 109.4 447.261 109.4C447.562 109.4 447.883 109.428 448.225 109.482C448.58 109.537 448.847 109.599 449.024 109.667ZM463.893 127.55V116.968C463.893 116.175 463.749 115.491 463.462 114.917C463.175 114.343 462.737 113.898 462.149 113.584C461.575 113.27 460.851 113.112 459.976 113.112C459.169 113.112 458.472 113.249 457.884 113.522C457.296 113.796 456.838 114.165 456.51 114.63C456.182 115.095 456.018 115.621 456.018 116.209H451.096C451.096 115.334 451.308 114.486 451.731 113.666C452.155 112.846 452.771 112.114 453.577 111.472C454.384 110.829 455.348 110.323 456.469 109.954C457.59 109.585 458.848 109.4 460.242 109.4C461.91 109.4 463.387 109.681 464.672 110.241C465.971 110.802 466.989 111.649 467.728 112.784C468.479 113.905 468.855 115.313 468.855 117.009V126.873C468.855 127.885 468.924 128.794 469.061 129.601C469.211 130.394 469.423 131.084 469.696 131.672V132H464.631C464.398 131.467 464.214 130.79 464.077 129.97C463.954 129.136 463.893 128.329 463.893 127.55ZM464.61 118.506L464.651 121.562H461.104C460.188 121.562 459.381 121.65 458.684 121.828C457.986 121.992 457.405 122.238 456.94 122.566C456.476 122.895 456.127 123.291 455.895 123.756C455.662 124.221 455.546 124.747 455.546 125.335C455.546 125.923 455.683 126.463 455.956 126.955C456.229 127.434 456.626 127.81 457.146 128.083C457.679 128.356 458.321 128.493 459.073 128.493C460.085 128.493 460.967 128.288 461.719 127.878C462.484 127.454 463.086 126.941 463.523 126.34C463.961 125.725 464.193 125.144 464.221 124.597L465.82 126.791C465.656 127.352 465.376 127.953 464.979 128.596C464.583 129.238 464.063 129.854 463.421 130.441C462.792 131.016 462.033 131.487 461.145 131.856C460.27 132.226 459.258 132.41 458.109 132.41C456.66 132.41 455.368 132.123 454.233 131.549C453.099 130.961 452.21 130.175 451.567 129.19C450.925 128.192 450.604 127.064 450.604 125.807C450.604 124.631 450.822 123.592 451.26 122.689C451.711 121.773 452.367 121.008 453.229 120.393C454.104 119.777 455.17 119.312 456.428 118.998C457.686 118.67 459.121 118.506 460.734 118.506H464.61ZM479.314 100.5V132H474.352V100.5H479.314ZM495.68 102.141H506.241C508.511 102.141 510.445 102.482 512.045 103.166C513.645 103.85 514.868 104.861 515.716 106.201C516.577 107.527 517.008 109.168 517.008 111.123C517.008 112.613 516.734 113.926 516.188 115.061C515.641 116.195 514.868 117.152 513.87 117.932C512.872 118.697 511.683 119.292 510.302 119.716L508.743 120.475H499.248L499.207 116.394H506.323C507.554 116.394 508.579 116.175 509.399 115.737C510.22 115.3 510.835 114.705 511.245 113.953C511.669 113.188 511.881 112.326 511.881 111.369C511.881 110.33 511.676 109.428 511.266 108.662C510.869 107.883 510.254 107.288 509.42 106.878C508.586 106.454 507.526 106.242 506.241 106.242H500.827V132H495.68V102.141ZM512.722 132L505.708 118.588L511.102 118.567L518.218 131.733V132H512.722ZM534.993 126.771V109.811H539.956V132H535.28L534.993 126.771ZM535.69 122.156L537.352 122.115C537.352 123.605 537.188 124.979 536.859 126.237C536.531 127.481 536.025 128.568 535.342 129.498C534.658 130.414 533.783 131.132 532.717 131.651C531.65 132.157 530.372 132.41 528.882 132.41C527.802 132.41 526.811 132.253 525.908 131.938C525.006 131.624 524.227 131.139 523.57 130.482C522.928 129.826 522.429 128.972 522.073 127.919C521.718 126.866 521.54 125.608 521.54 124.146V109.811H526.482V124.187C526.482 124.993 526.578 125.67 526.77 126.217C526.961 126.75 527.221 127.181 527.549 127.509C527.877 127.837 528.26 128.069 528.697 128.206C529.135 128.343 529.6 128.411 530.092 128.411C531.5 128.411 532.607 128.138 533.414 127.591C534.234 127.03 534.815 126.278 535.157 125.335C535.513 124.392 535.69 123.332 535.69 122.156ZM545.042 100.5H549.984V127.263L549.513 132H545.042V100.5ZM564.463 120.7V121.131C564.463 122.771 564.278 124.282 563.909 125.663C563.554 127.03 563.007 128.22 562.269 129.231C561.544 130.243 560.642 131.029 559.562 131.59C558.495 132.137 557.258 132.41 555.85 132.41C554.469 132.41 553.266 132.15 552.24 131.631C551.215 131.111 550.354 130.373 549.656 129.416C548.973 128.459 548.419 127.317 547.995 125.991C547.571 124.665 547.271 123.202 547.093 121.603V120.229C547.271 118.615 547.571 117.152 547.995 115.84C548.419 114.514 548.973 113.372 549.656 112.415C550.354 111.444 551.208 110.699 552.22 110.18C553.245 109.66 554.441 109.4 555.809 109.4C557.23 109.4 558.481 109.674 559.562 110.221C560.655 110.768 561.564 111.547 562.289 112.559C563.014 113.557 563.554 114.746 563.909 116.127C564.278 117.508 564.463 119.032 564.463 120.7ZM559.521 121.131V120.7C559.521 119.702 559.438 118.766 559.274 117.891C559.11 117.002 558.837 116.223 558.454 115.553C558.085 114.883 557.579 114.356 556.937 113.974C556.308 113.577 555.521 113.379 554.578 113.379C553.703 113.379 552.951 113.529 552.322 113.83C551.693 114.131 551.167 114.541 550.743 115.061C550.319 115.58 549.984 116.182 549.738 116.865C549.506 117.549 549.349 118.287 549.267 119.08V122.792C549.39 123.817 549.649 124.761 550.046 125.622C550.456 126.47 551.03 127.153 551.769 127.673C552.507 128.179 553.457 128.432 554.619 128.432C555.535 128.432 556.308 128.247 556.937 127.878C557.565 127.509 558.064 126.996 558.434 126.34C558.816 125.67 559.09 124.891 559.254 124.002C559.432 123.113 559.521 122.156 559.521 121.131ZM568.667 100.5H573.609V127.263L573.138 132H568.667V100.5ZM588.088 120.7V121.131C588.088 122.771 587.903 124.282 587.534 125.663C587.179 127.03 586.632 128.22 585.894 129.231C585.169 130.243 584.267 131.029 583.187 131.59C582.12 132.137 580.883 132.41 579.475 132.41C578.094 132.41 576.891 132.15 575.865 131.631C574.84 131.111 573.979 130.373 573.281 129.416C572.598 128.459 572.044 127.317 571.62 125.991C571.196 124.665 570.896 123.202 570.718 121.603V120.229C570.896 118.615 571.196 117.152 571.62 115.84C572.044 114.514 572.598 113.372 573.281 112.415C573.979 111.444 574.833 110.699 575.845 110.18C576.87 109.66 578.066 109.4 579.434 109.4C580.855 109.4 582.106 109.674 583.187 110.221C584.28 110.768 585.189 111.547 585.914 112.559C586.639 113.557 587.179 114.746 587.534 116.127C587.903 117.508 588.088 119.032 588.088 120.7ZM583.146 121.131V120.7C583.146 119.702 583.063 118.766 582.899 117.891C582.735 117.002 582.462 116.223 582.079 115.553C581.71 114.883 581.204 114.356 580.562 113.974C579.933 113.577 579.146 113.379 578.203 113.379C577.328 113.379 576.576 113.529 575.947 113.83C575.318 114.131 574.792 114.541 574.368 115.061C573.944 115.58 573.609 116.182 573.363 116.865C573.131 117.549 572.974 118.287 572.892 119.08V122.792C573.015 123.817 573.274 124.761 573.671 125.622C574.081 126.47 574.655 127.153 575.394 127.673C576.132 128.179 577.082 128.432 578.244 128.432C579.16 128.432 579.933 128.247 580.562 127.878C581.19 127.509 581.689 126.996 582.059 126.34C582.441 125.67 582.715 124.891 582.879 124.002C583.057 123.113 583.146 122.156 583.146 121.131ZM602.054 132.41C600.413 132.41 598.93 132.144 597.604 131.61C596.291 131.063 595.17 130.305 594.24 129.334C593.324 128.363 592.62 127.222 592.128 125.909C591.636 124.597 591.39 123.182 591.39 121.664V120.844C591.39 119.107 591.643 117.535 592.148 116.127C592.654 114.719 593.358 113.516 594.261 112.518C595.163 111.506 596.229 110.733 597.46 110.2C598.69 109.667 600.023 109.4 601.459 109.4C603.045 109.4 604.433 109.667 605.622 110.2C606.812 110.733 607.796 111.485 608.575 112.456C609.368 113.413 609.956 114.555 610.339 115.881C610.735 117.207 610.934 118.67 610.934 120.27V122.382H593.789V118.834H606.053V118.444C606.025 117.556 605.848 116.722 605.52 115.942C605.205 115.163 604.72 114.534 604.063 114.056C603.407 113.577 602.532 113.338 601.438 113.338C600.618 113.338 599.887 113.516 599.244 113.871C598.615 114.213 598.089 114.712 597.665 115.368C597.241 116.024 596.913 116.817 596.681 117.747C596.462 118.663 596.353 119.695 596.353 120.844V121.664C596.353 122.635 596.482 123.537 596.742 124.371C597.016 125.191 597.412 125.909 597.932 126.524C598.451 127.14 599.08 127.625 599.818 127.98C600.557 128.322 601.397 128.493 602.341 128.493C603.53 128.493 604.59 128.254 605.52 127.775C606.449 127.297 607.256 126.62 607.939 125.745L610.544 128.268C610.065 128.965 609.443 129.635 608.678 130.277C607.912 130.906 606.976 131.419 605.868 131.815C604.774 132.212 603.503 132.41 602.054 132.41ZM619.752 114.035V132H614.81V109.811H619.526L619.752 114.035ZM626.54 109.667L626.499 114.261C626.198 114.206 625.87 114.165 625.515 114.138C625.173 114.11 624.831 114.097 624.489 114.097C623.642 114.097 622.896 114.22 622.254 114.466C621.611 114.698 621.071 115.04 620.634 115.491C620.21 115.929 619.882 116.462 619.649 117.091C619.417 117.72 619.28 118.424 619.239 119.203L618.111 119.285C618.111 117.891 618.248 116.599 618.521 115.409C618.795 114.22 619.205 113.174 619.752 112.271C620.312 111.369 621.01 110.665 621.844 110.159C622.691 109.653 623.669 109.4 624.776 109.4C625.077 109.4 625.398 109.428 625.74 109.482C626.096 109.537 626.362 109.599 626.54 109.667Z" fill="#1C4670"/>
<path d="M987.827 28H785V202H987.827C991.056 202 994.152 200.72 996.435 198.441C998.717 196.162 1000 193.072 1000 189.849V40.2029C1000.01 38.6029 999.697 37.0172 999.088 35.537C998.48 34.0568 997.584 32.7111 996.453 31.5773C995.322 30.4435 993.978 29.5438 992.498 28.9299C991.018 28.316 989.43 28 987.827 28Z" fill="#1C4670"/>
<path opacity="0.2" d="M815 202H987.871C991.088 202 994.173 200.719 996.448 198.439C998.722 196.159 1000 193.067 1000 189.843V43C950.324 64.4837 879.889 109.257 815 202Z" fill="white"/>
<path d="M877.603 153.703C871.069 153.703 866.016 151.872 862.441 148.21C858.896 144.548 857.124 139.274 857.124 132.39V97.4971C857.124 90.2314 858.809 84.665 862.178 80.7979C865.576 76.9014 870.718 74.9531 877.603 74.9531C884.517 74.9531 889.658 76.9014 893.027 80.7979C896.396 84.665 898.081 90.2314 898.081 97.4971V132.39C898.081 139.274 896.309 144.548 892.764 148.21C889.219 151.872 884.165 153.703 877.603 153.703ZM877.603 139.465C878.804 139.465 879.741 138.923 880.415 137.839C881.089 136.755 881.426 135.539 881.426 134.191V96.0029C881.426 94.1865 881.221 92.6045 880.811 91.2568C880.43 89.8799 879.36 89.1914 877.603 89.1914C875.845 89.1914 874.761 89.8799 874.351 91.2568C873.97 92.6045 873.779 94.1865 873.779 96.0029V134.191C873.779 135.539 874.116 136.755 874.79 137.839C875.493 138.923 876.431 139.465 877.603 139.465ZM910.518 153V93.4102C909.463 94.6699 908.013 95.6953 906.167 96.4863C904.321 97.248 902.578 97.6289 900.938 97.6289V85.2803C902.49 85.0459 904.16 84.5479 905.947 83.7861C907.734 82.9951 909.39 81.9258 910.913 80.5781C912.466 79.2012 913.652 77.5459 914.473 75.6123H926.909V153H910.518Z" fill="white"/>
</g>
<defs>
<filter id="filter0_d_17_3834" x="62" y="233" width="727" height="182" filterUnits="userSpaceOnUse" color-interpolation-filters="sRGB">
<feFlood flood-opacity="0" result="BackgroundImageFix"/>
<feColorMatrix in="SourceAlpha" type="matrix" values="0 0 0 0 0 0 0 0 0 0 0 0 0 0 0 0 0 0 127 0" result="hardAlpha"/>
<feOffset dy="4"/>
<feGaussianBlur stdDeviation="2"/>
<feComposite in2="hardAlpha" operator="out"/>
<feColorMatrix type="matrix" values="0 0 0 0 0 0 0 0 0 0 0 0 0 0 0 0 0 0 0.25 0"/>
<feBlend mode="normal" in2="BackgroundImageFix" result="effect1_dropShadow_17_3834"/>
<feBlend mode="normal" in="SourceGraphic" in2="effect1_dropShadow_17_3834" result="shape"/>
</filter>
<filter id="filter1_d_17_3834" x="62" y="439" width="727" height="182" filterUnits="userSpaceOnUse" color-interpolation-filters="sRGB">
<feFlood flood-opacity="0" result="BackgroundImageFix"/>
<feColorMatrix in="SourceAlpha" type="matrix" values="0 0 0 0 0 0 0 0 0 0 0 0 0 0 0 0 0 0 127 0" result="hardAlpha"/>
<feOffset dy="4"/>
<feGaussianBlur stdDeviation="2"/>
<feComposite in2="hardAlpha" operator="out"/>
<feColorMatrix type="matrix" values="0 0 0 0 0 0 0 0 0 0 0 0 0 0 0 0 0 0 0.25 0"/>
<feBlend mode="normal" in2="BackgroundImageFix" result="effect1_dropShadow_17_3834"/>
<feBlend mode="normal" in="SourceGraphic" in2="effect1_dropShadow_17_3834" result="shape"/>
</filter>
<filter id="filter2_d_17_3834" x="62" y="28" width="727" height="182" filterUnits="userSpaceOnUse" color-interpolation-filters="sRGB">
<feFlood flood-opacity="0" result="BackgroundImageFix"/>
<feColorMatrix in="SourceAlpha" type="matrix" values="0 0 0 0 0 0 0 0 0 0 0 0 0 0 0 0 0 0 127 0" result="hardAlpha"/>
<feOffset dy="4"/>
<feGaussianBlur stdDeviation="2"/>
<feComposite in2="hardAlpha" operator="out"/>
<feColorMatrix type="matrix" values="0 0 0 0 0 0 0 0 0 0 0 0 0 0 0 0 0 0 0.25 0"/>
<feBlend mode="normal" in2="BackgroundImageFix" result="effect1_dropShadow_17_3834"/>
<feBlend mode="normal" in="SourceGraphic" in2="effect1_dropShadow_17_3834" result="shape"/>
</filter>
<clipPath id="clip0_17_3834">
<rect width="1016" height="641" fill="white"/>
</clipPath>
</defs>
</svg>
