<svg width="1080" height="1080" viewBox="0 0 1080 1080" fill="none" xmlns="http://www.w3.org/2000/svg">
<rect width="1080" height="1080" fill="white"/>
<path d="M172.102 124.336L178.898 97.875H182.461L182.062 104.695L174.797 132H171.094L172.102 124.336ZM167.016 97.875L172.523 124.125L173.016 132H169.078L161.18 97.875H167.016ZM190.172 124.055L195.609 97.875H201.469L193.57 132H189.633L190.172 124.055ZM183.844 97.875L190.57 124.406L191.555 132H187.852L180.703 104.695L180.328 97.875H183.844ZM210.844 96V132H205.219V96H210.844ZM209.859 118.383L208.031 118.359C208.047 116.609 208.289 114.992 208.758 113.508C209.242 112.023 209.914 110.734 210.773 109.641C211.648 108.531 212.695 107.68 213.914 107.086C215.133 106.477 216.484 106.172 217.969 106.172C219.219 106.172 220.344 106.344 221.344 106.688C222.359 107.031 223.234 107.586 223.969 108.352C224.703 109.102 225.258 110.086 225.633 111.305C226.023 112.508 226.219 113.977 226.219 115.711V132H220.547V115.664C220.547 114.445 220.367 113.477 220.008 112.758C219.664 112.039 219.156 111.523 218.484 111.211C217.812 110.883 216.992 110.719 216.023 110.719C215.008 110.719 214.109 110.922 213.328 111.328C212.562 111.734 211.922 112.289 211.406 112.992C210.891 113.695 210.5 114.508 210.234 115.43C209.984 116.352 209.859 117.336 209.859 118.383ZM246.234 126.914V114.82C246.234 113.914 246.07 113.133 245.742 112.477C245.414 111.82 244.914 111.312 244.242 110.953C243.586 110.594 242.758 110.414 241.758 110.414C240.836 110.414 240.039 110.57 239.367 110.883C238.695 111.195 238.172 111.617 237.797 112.148C237.422 112.68 237.234 113.281 237.234 113.953H231.609C231.609 112.953 231.852 111.984 232.336 111.047C232.82 110.109 233.523 109.273 234.445 108.539C235.367 107.805 236.469 107.227 237.75 106.805C239.031 106.383 240.469 106.172 242.062 106.172C243.969 106.172 245.656 106.492 247.125 107.133C248.609 107.773 249.773 108.742 250.617 110.039C251.477 111.32 251.906 112.93 251.906 114.867V126.141C251.906 127.297 251.984 128.336 252.141 129.258C252.312 130.164 252.555 130.953 252.867 131.625V132H247.078C246.812 131.391 246.602 130.617 246.445 129.68C246.305 128.727 246.234 127.805 246.234 126.914ZM247.055 116.578L247.102 120.07H243.047C242 120.07 241.078 120.172 240.281 120.375C239.484 120.562 238.82 120.844 238.289 121.219C237.758 121.594 237.359 122.047 237.094 122.578C236.828 123.109 236.695 123.711 236.695 124.383C236.695 125.055 236.852 125.672 237.164 126.234C237.477 126.781 237.93 127.211 238.523 127.523C239.133 127.836 239.867 127.992 240.727 127.992C241.883 127.992 242.891 127.758 243.75 127.289C244.625 126.805 245.312 126.219 245.812 125.531C246.312 124.828 246.578 124.164 246.609 123.539L248.438 126.047C248.25 126.688 247.93 127.375 247.477 128.109C247.023 128.844 246.43 129.547 245.695 130.219C244.977 130.875 244.109 131.414 243.094 131.836C242.094 132.258 240.938 132.469 239.625 132.469C237.969 132.469 236.492 132.141 235.195 131.484C233.898 130.812 232.883 129.914 232.148 128.789C231.414 127.648 231.047 126.359 231.047 124.922C231.047 123.578 231.297 122.391 231.797 121.359C232.312 120.312 233.062 119.438 234.047 118.734C235.047 118.031 236.266 117.5 237.703 117.141C239.141 116.766 240.781 116.578 242.625 116.578H247.055ZM269.438 106.641V110.766H255.141V106.641H269.438ZM259.266 100.43H264.914V124.992C264.914 125.773 265.023 126.375 265.242 126.797C265.477 127.203 265.797 127.477 266.203 127.617C266.609 127.758 267.086 127.828 267.633 127.828C268.023 127.828 268.398 127.805 268.758 127.758C269.117 127.711 269.406 127.664 269.625 127.617L269.648 131.93C269.18 132.07 268.633 132.195 268.008 132.305C267.398 132.414 266.695 132.469 265.898 132.469C264.602 132.469 263.453 132.242 262.453 131.789C261.453 131.32 260.672 130.562 260.109 129.516C259.547 128.469 259.266 127.078 259.266 125.344V100.43ZM291.797 106.641V132H286.125V106.641H291.797ZM285.75 99.9844C285.75 99.125 286.031 98.4141 286.594 97.8516C287.172 97.2734 287.969 96.9844 288.984 96.9844C289.984 96.9844 290.773 97.2734 291.352 97.8516C291.93 98.4141 292.219 99.125 292.219 99.9844C292.219 100.828 291.93 101.531 291.352 102.094C290.773 102.656 289.984 102.938 288.984 102.938C287.969 102.938 287.172 102.656 286.594 102.094C286.031 101.531 285.75 100.828 285.75 99.9844ZM312.211 125.133C312.211 124.57 312.07 124.062 311.789 123.609C311.508 123.141 310.969 122.719 310.172 122.344C309.391 121.969 308.234 121.625 306.703 121.312C305.359 121.016 304.125 120.664 303 120.258C301.891 119.836 300.938 119.328 300.141 118.734C299.344 118.141 298.727 117.438 298.289 116.625C297.852 115.812 297.633 114.875 297.633 113.812C297.633 112.781 297.859 111.805 298.312 110.883C298.766 109.961 299.414 109.148 300.258 108.445C301.102 107.742 302.125 107.188 303.328 106.781C304.547 106.375 305.906 106.172 307.406 106.172C309.531 106.172 311.352 106.531 312.867 107.25C314.398 107.953 315.57 108.914 316.383 110.133C317.195 111.336 317.602 112.695 317.602 114.211H311.953C311.953 113.539 311.781 112.914 311.438 112.336C311.109 111.742 310.609 111.266 309.938 110.906C309.266 110.531 308.422 110.344 307.406 110.344C306.438 110.344 305.633 110.5 304.992 110.812C304.367 111.109 303.898 111.5 303.586 111.984C303.289 112.469 303.141 113 303.141 113.578C303.141 114 303.219 114.383 303.375 114.727C303.547 115.055 303.828 115.359 304.219 115.641C304.609 115.906 305.141 116.156 305.812 116.391C306.5 116.625 307.359 116.852 308.391 117.07C310.328 117.477 311.992 118 313.383 118.641C314.789 119.266 315.867 120.078 316.617 121.078C317.367 122.062 317.742 123.312 317.742 124.828C317.742 125.953 317.5 126.984 317.016 127.922C316.547 128.844 315.859 129.648 314.953 130.336C314.047 131.008 312.961 131.531 311.695 131.906C310.445 132.281 309.039 132.469 307.477 132.469C305.18 132.469 303.234 132.062 301.641 131.25C300.047 130.422 298.836 129.367 298.008 128.086C297.195 126.789 296.789 125.445 296.789 124.055H302.25C302.312 125.102 302.602 125.938 303.117 126.562C303.648 127.172 304.305 127.617 305.086 127.898C305.883 128.164 306.703 128.297 307.547 128.297C308.562 128.297 309.414 128.164 310.102 127.898C310.789 127.617 311.312 127.242 311.672 126.773C312.031 126.289 312.211 125.742 312.211 125.133Z" fill="#1C4670"/>
<path d="M335.203 97.875H347.273C349.867 97.875 352.078 98.2656 353.906 99.0469C355.734 99.8281 357.133 100.984 358.102 102.516C359.086 104.031 359.578 105.906 359.578 108.141C359.578 109.844 359.266 111.344 358.641 112.641C358.016 113.938 357.133 115.031 355.992 115.922C354.852 116.797 353.492 117.477 351.914 117.961L350.133 118.828H339.281L339.234 114.164H347.367C348.773 114.164 349.945 113.914 350.883 113.414C351.82 112.914 352.523 112.234 352.992 111.375C353.477 110.5 353.719 109.516 353.719 108.422C353.719 107.234 353.484 106.203 353.016 105.328C352.562 104.438 351.859 103.758 350.906 103.289C349.953 102.805 348.742 102.562 347.273 102.562H341.086V132H335.203V97.875ZM354.68 132L346.664 116.672L352.828 116.648L360.961 131.695V132H354.68ZM380.133 126.023V106.641H385.805V132H380.461L380.133 126.023ZM380.93 120.75L382.828 120.703C382.828 122.406 382.641 123.977 382.266 125.414C381.891 126.836 381.312 128.078 380.531 129.141C379.75 130.188 378.75 131.008 377.531 131.602C376.312 132.18 374.852 132.469 373.148 132.469C371.914 132.469 370.781 132.289 369.75 131.93C368.719 131.57 367.828 131.016 367.078 130.266C366.344 129.516 365.773 128.539 365.367 127.336C364.961 126.133 364.758 124.695 364.758 123.023V106.641H370.406V123.07C370.406 123.992 370.516 124.766 370.734 125.391C370.953 126 371.25 126.492 371.625 126.867C372 127.242 372.438 127.508 372.938 127.664C373.438 127.82 373.969 127.898 374.531 127.898C376.141 127.898 377.406 127.586 378.328 126.961C379.266 126.32 379.93 125.461 380.32 124.383C380.727 123.305 380.93 122.094 380.93 120.75ZM391.617 96H397.266V126.586L396.727 132H391.617V96ZM413.812 119.086V119.578C413.812 121.453 413.602 123.18 413.18 124.758C412.773 126.32 412.148 127.68 411.305 128.836C410.477 129.992 409.445 130.891 408.211 131.531C406.992 132.156 405.578 132.469 403.969 132.469C402.391 132.469 401.016 132.172 399.844 131.578C398.672 130.984 397.688 130.141 396.891 129.047C396.109 127.953 395.477 126.648 394.992 125.133C394.508 123.617 394.164 121.945 393.961 120.117V118.547C394.164 116.703 394.508 115.031 394.992 113.531C395.477 112.016 396.109 110.711 396.891 109.617C397.688 108.508 398.664 107.656 399.82 107.062C400.992 106.469 402.359 106.172 403.922 106.172C405.547 106.172 406.977 106.484 408.211 107.109C409.461 107.734 410.5 108.625 411.328 109.781C412.156 110.922 412.773 112.281 413.18 113.859C413.602 115.438 413.812 117.18 413.812 119.086ZM408.164 119.578V119.086C408.164 117.945 408.07 116.875 407.883 115.875C407.695 114.859 407.383 113.969 406.945 113.203C406.523 112.438 405.945 111.836 405.211 111.398C404.492 110.945 403.594 110.719 402.516 110.719C401.516 110.719 400.656 110.891 399.938 111.234C399.219 111.578 398.617 112.047 398.133 112.641C397.648 113.234 397.266 113.922 396.984 114.703C396.719 115.484 396.539 116.328 396.445 117.234V121.477C396.586 122.648 396.883 123.727 397.336 124.711C397.805 125.68 398.461 126.461 399.305 127.055C400.148 127.633 401.234 127.922 402.562 127.922C403.609 127.922 404.492 127.711 405.211 127.289C405.93 126.867 406.5 126.281 406.922 125.531C407.359 124.766 407.672 123.875 407.859 122.859C408.062 121.844 408.164 120.75 408.164 119.578ZM418.617 96H424.266V126.586L423.727 132H418.617V96ZM440.812 119.086V119.578C440.812 121.453 440.602 123.18 440.18 124.758C439.773 126.32 439.148 127.68 438.305 128.836C437.477 129.992 436.445 130.891 435.211 131.531C433.992 132.156 432.578 132.469 430.969 132.469C429.391 132.469 428.016 132.172 426.844 131.578C425.672 130.984 424.688 130.141 423.891 129.047C423.109 127.953 422.477 126.648 421.992 125.133C421.508 123.617 421.164 121.945 420.961 120.117V118.547C421.164 116.703 421.508 115.031 421.992 113.531C422.477 112.016 423.109 110.711 423.891 109.617C424.688 108.508 425.664 107.656 426.82 107.062C427.992 106.469 429.359 106.172 430.922 106.172C432.547 106.172 433.977 106.484 435.211 107.109C436.461 107.734 437.5 108.625 438.328 109.781C439.156 110.922 439.773 112.281 440.18 113.859C440.602 115.438 440.812 117.18 440.812 119.086ZM435.164 119.578V119.086C435.164 117.945 435.07 116.875 434.883 115.875C434.695 114.859 434.383 113.969 433.945 113.203C433.523 112.438 432.945 111.836 432.211 111.398C431.492 110.945 430.594 110.719 429.516 110.719C428.516 110.719 427.656 110.891 426.938 111.234C426.219 111.578 425.617 112.047 425.133 112.641C424.648 113.234 424.266 113.922 423.984 114.703C423.719 115.484 423.539 116.328 423.445 117.234V121.477C423.586 122.648 423.883 123.727 424.336 124.711C424.805 125.68 425.461 126.461 426.305 127.055C427.148 127.633 428.234 127.922 429.562 127.922C430.609 127.922 431.492 127.711 432.211 127.289C432.93 126.867 433.5 126.281 433.922 125.531C434.359 124.766 434.672 123.875 434.859 122.859C435.062 121.844 435.164 120.75 435.164 119.578ZM456.773 132.469C454.898 132.469 453.203 132.164 451.688 131.555C450.188 130.93 448.906 130.062 447.844 128.953C446.797 127.844 445.992 126.539 445.43 125.039C444.867 123.539 444.586 121.922 444.586 120.188V119.25C444.586 117.266 444.875 115.469 445.453 113.859C446.031 112.25 446.836 110.875 447.867 109.734C448.898 108.578 450.117 107.695 451.523 107.086C452.93 106.477 454.453 106.172 456.094 106.172C457.906 106.172 459.492 106.477 460.852 107.086C462.211 107.695 463.336 108.555 464.227 109.664C465.133 110.758 465.805 112.062 466.242 113.578C466.695 115.094 466.922 116.766 466.922 118.594V121.008H447.328V116.953H461.344V116.508C461.312 115.492 461.109 114.539 460.734 113.648C460.375 112.758 459.82 112.039 459.07 111.492C458.32 110.945 457.32 110.672 456.07 110.672C455.133 110.672 454.297 110.875 453.562 111.281C452.844 111.672 452.242 112.242 451.758 112.992C451.273 113.742 450.898 114.648 450.633 115.711C450.383 116.758 450.258 117.938 450.258 119.25V120.188C450.258 121.297 450.406 122.328 450.703 123.281C451.016 124.219 451.469 125.039 452.062 125.742C452.656 126.445 453.375 127 454.219 127.406C455.062 127.797 456.023 127.992 457.102 127.992C458.461 127.992 459.672 127.719 460.734 127.172C461.797 126.625 462.719 125.852 463.5 124.852L466.477 127.734C465.93 128.531 465.219 129.297 464.344 130.031C463.469 130.75 462.398 131.336 461.133 131.789C459.883 132.242 458.43 132.469 456.773 132.469ZM477 111.469V132H471.352V106.641H476.742L477 111.469ZM484.758 106.477L484.711 111.727C484.367 111.664 483.992 111.617 483.586 111.586C483.195 111.555 482.805 111.539 482.414 111.539C481.445 111.539 480.594 111.68 479.859 111.961C479.125 112.227 478.508 112.617 478.008 113.133C477.523 113.633 477.148 114.242 476.883 114.961C476.617 115.68 476.461 116.484 476.414 117.375L475.125 117.469C475.125 115.875 475.281 114.398 475.594 113.039C475.906 111.68 476.375 110.484 477 109.453C477.641 108.422 478.438 107.617 479.391 107.039C480.359 106.461 481.477 106.172 482.742 106.172C483.086 106.172 483.453 106.203 483.844 106.266C484.25 106.328 484.555 106.398 484.758 106.477ZM513.609 116.578H504.914L504.867 112.289H512.461C513.742 112.289 514.828 112.102 515.719 111.727C516.625 111.336 517.312 110.781 517.781 110.062C518.25 109.328 518.484 108.445 518.484 107.414C518.484 106.273 518.266 105.344 517.828 104.625C517.391 103.906 516.719 103.383 515.812 103.055C514.922 102.727 513.781 102.562 512.391 102.562H506.695V132H500.812V97.875H512.391C514.266 97.875 515.938 98.0547 517.406 98.4141C518.891 98.7734 520.148 99.3359 521.18 100.102C522.227 100.852 523.016 101.805 523.547 102.961C524.094 104.117 524.367 105.492 524.367 107.086C524.367 108.492 524.031 109.781 523.359 110.953C522.688 112.109 521.695 113.055 520.383 113.789C519.07 114.523 517.438 114.961 515.484 115.102L513.609 116.578ZM513.352 132H503.062L505.711 127.336H513.352C514.68 127.336 515.789 127.117 516.68 126.68C517.57 126.227 518.234 125.609 518.672 124.828C519.125 124.031 519.352 123.102 519.352 122.039C519.352 120.93 519.156 119.969 518.766 119.156C518.375 118.328 517.758 117.695 516.914 117.258C516.07 116.805 514.969 116.578 513.609 116.578H507L507.047 112.289H515.648L516.984 113.906C518.859 113.969 520.398 114.383 521.602 115.148C522.82 115.914 523.727 116.906 524.32 118.125C524.914 119.344 525.211 120.656 525.211 122.062C525.211 124.234 524.734 126.055 523.781 127.523C522.844 128.992 521.492 130.109 519.727 130.875C517.961 131.625 515.836 132 513.352 132ZM529.5 119.602V119.062C529.5 117.234 529.766 115.539 530.297 113.977C530.828 112.398 531.594 111.031 532.594 109.875C533.609 108.703 534.844 107.797 536.297 107.156C537.766 106.5 539.422 106.172 541.266 106.172C543.125 106.172 544.781 106.5 546.234 107.156C547.703 107.797 548.945 108.703 549.961 109.875C550.977 111.031 551.75 112.398 552.281 113.977C552.812 115.539 553.078 117.234 553.078 119.062V119.602C553.078 121.43 552.812 123.125 552.281 124.688C551.75 126.25 550.977 127.617 549.961 128.789C548.945 129.945 547.711 130.852 546.258 131.508C544.805 132.148 543.156 132.469 541.312 132.469C539.453 132.469 537.789 132.148 536.32 131.508C534.867 130.852 533.633 129.945 532.617 128.789C531.602 127.617 530.828 126.25 530.297 124.688C529.766 123.125 529.5 121.43 529.5 119.602ZM535.148 119.062V119.602C535.148 120.742 535.266 121.82 535.5 122.836C535.734 123.852 536.102 124.742 536.602 125.508C537.102 126.273 537.742 126.875 538.523 127.312C539.305 127.75 540.234 127.969 541.312 127.969C542.359 127.969 543.266 127.75 544.031 127.312C544.812 126.875 545.453 126.273 545.953 125.508C546.453 124.742 546.82 123.852 547.055 122.836C547.305 121.82 547.43 120.742 547.43 119.602V119.062C547.43 117.938 547.305 116.875 547.055 115.875C546.82 114.859 546.445 113.961 545.93 113.18C545.43 112.398 544.789 111.789 544.008 111.352C543.242 110.898 542.328 110.672 541.266 110.672C540.203 110.672 539.281 110.898 538.5 111.352C537.734 111.789 537.102 112.398 536.602 113.18C536.102 113.961 535.734 114.859 535.5 115.875C535.266 116.875 535.148 117.938 535.148 119.062ZM572.109 126.914V114.82C572.109 113.914 571.945 113.133 571.617 112.477C571.289 111.82 570.789 111.312 570.117 110.953C569.461 110.594 568.633 110.414 567.633 110.414C566.711 110.414 565.914 110.57 565.242 110.883C564.57 111.195 564.047 111.617 563.672 112.148C563.297 112.68 563.109 113.281 563.109 113.953H557.484C557.484 112.953 557.727 111.984 558.211 111.047C558.695 110.109 559.398 109.273 560.32 108.539C561.242 107.805 562.344 107.227 563.625 106.805C564.906 106.383 566.344 106.172 567.938 106.172C569.844 106.172 571.531 106.492 573 107.133C574.484 107.773 575.648 108.742 576.492 110.039C577.352 111.32 577.781 112.93 577.781 114.867V126.141C577.781 127.297 577.859 128.336 578.016 129.258C578.188 130.164 578.43 130.953 578.742 131.625V132H572.953C572.688 131.391 572.477 130.617 572.32 129.68C572.18 128.727 572.109 127.805 572.109 126.914ZM572.93 116.578L572.977 120.07H568.922C567.875 120.07 566.953 120.172 566.156 120.375C565.359 120.562 564.695 120.844 564.164 121.219C563.633 121.594 563.234 122.047 562.969 122.578C562.703 123.109 562.57 123.711 562.57 124.383C562.57 125.055 562.727 125.672 563.039 126.234C563.352 126.781 563.805 127.211 564.398 127.523C565.008 127.836 565.742 127.992 566.602 127.992C567.758 127.992 568.766 127.758 569.625 127.289C570.5 126.805 571.188 126.219 571.688 125.531C572.188 124.828 572.453 124.164 572.484 123.539L574.312 126.047C574.125 126.688 573.805 127.375 573.352 128.109C572.898 128.844 572.305 129.547 571.57 130.219C570.852 130.875 569.984 131.414 568.969 131.836C567.969 132.258 566.812 132.469 565.5 132.469C563.844 132.469 562.367 132.141 561.07 131.484C559.773 130.812 558.758 129.914 558.023 128.789C557.289 127.648 556.922 126.359 556.922 124.922C556.922 123.578 557.172 122.391 557.672 121.359C558.188 120.312 558.938 119.438 559.922 118.734C560.922 118.031 562.141 117.5 563.578 117.141C565.016 116.766 566.656 116.578 568.5 116.578H572.93ZM589.359 111.469V132H583.711V106.641H589.102L589.359 111.469ZM597.117 106.477L597.07 111.727C596.727 111.664 596.352 111.617 595.945 111.586C595.555 111.555 595.164 111.539 594.773 111.539C593.805 111.539 592.953 111.68 592.219 111.961C591.484 112.227 590.867 112.617 590.367 113.133C589.883 113.633 589.508 114.242 589.242 114.961C588.977 115.68 588.82 116.484 588.773 117.375L587.484 117.469C587.484 115.875 587.641 114.398 587.953 113.039C588.266 111.68 588.734 110.484 589.359 109.453C590 108.422 590.797 107.617 591.75 107.039C592.719 106.461 593.836 106.172 595.102 106.172C595.445 106.172 595.812 106.203 596.203 106.266C596.609 106.328 596.914 106.398 597.117 106.477ZM615.656 126.75V96H621.328V132H616.195L615.656 126.75ZM599.156 119.602V119.109C599.156 117.188 599.383 115.438 599.836 113.859C600.289 112.266 600.945 110.898 601.805 109.758C602.664 108.602 603.711 107.719 604.945 107.109C606.18 106.484 607.57 106.172 609.117 106.172C610.648 106.172 611.992 106.469 613.148 107.062C614.305 107.656 615.289 108.508 616.102 109.617C616.914 110.711 617.562 112.023 618.047 113.555C618.531 115.07 618.875 116.758 619.078 118.617V120.188C618.875 122 618.531 123.656 618.047 125.156C617.562 126.656 616.914 127.953 616.102 129.047C615.289 130.141 614.297 130.984 613.125 131.578C611.969 132.172 610.617 132.469 609.07 132.469C607.539 132.469 606.156 132.148 604.922 131.508C603.703 130.867 602.664 129.969 601.805 128.812C600.945 127.656 600.289 126.297 599.836 124.734C599.383 123.156 599.156 121.445 599.156 119.602ZM604.805 119.109V119.602C604.805 120.758 604.906 121.836 605.109 122.836C605.328 123.836 605.664 124.719 606.117 125.484C606.57 126.234 607.156 126.828 607.875 127.266C608.609 127.688 609.484 127.898 610.5 127.898C611.781 127.898 612.836 127.617 613.664 127.055C614.492 126.492 615.141 125.734 615.609 124.781C616.094 123.812 616.422 122.734 616.594 121.547V117.305C616.5 116.383 616.305 115.523 616.008 114.727C615.727 113.93 615.344 113.234 614.859 112.641C614.375 112.031 613.773 111.562 613.055 111.234C612.352 110.891 611.516 110.719 610.547 110.719C609.516 110.719 608.641 110.938 607.922 111.375C607.203 111.812 606.609 112.414 606.141 113.18C605.688 113.945 605.352 114.836 605.133 115.852C604.914 116.867 604.805 117.953 604.805 119.109ZM639.75 97.875H651.82C654.414 97.875 656.625 98.2656 658.453 99.0469C660.281 99.8281 661.68 100.984 662.648 102.516C663.633 104.031 664.125 105.906 664.125 108.141C664.125 109.844 663.812 111.344 663.188 112.641C662.562 113.938 661.68 115.031 660.539 115.922C659.398 116.797 658.039 117.477 656.461 117.961L654.68 118.828H643.828L643.781 114.164H651.914C653.32 114.164 654.492 113.914 655.43 113.414C656.367 112.914 657.07 112.234 657.539 111.375C658.023 110.5 658.266 109.516 658.266 108.422C658.266 107.234 658.031 106.203 657.562 105.328C657.109 104.438 656.406 103.758 655.453 103.289C654.5 102.805 653.289 102.562 651.82 102.562H645.633V132H639.75V97.875ZM659.227 132L651.211 116.672L657.375 116.648L665.508 131.695V132H659.227ZM680.602 132.469C678.727 132.469 677.031 132.164 675.516 131.555C674.016 130.93 672.734 130.062 671.672 128.953C670.625 127.844 669.82 126.539 669.258 125.039C668.695 123.539 668.414 121.922 668.414 120.188V119.25C668.414 117.266 668.703 115.469 669.281 113.859C669.859 112.25 670.664 110.875 671.695 109.734C672.727 108.578 673.945 107.695 675.352 107.086C676.758 106.477 678.281 106.172 679.922 106.172C681.734 106.172 683.32 106.477 684.68 107.086C686.039 107.695 687.164 108.555 688.055 109.664C688.961 110.758 689.633 112.062 690.07 113.578C690.523 115.094 690.75 116.766 690.75 118.594V121.008H671.156V116.953H685.172V116.508C685.141 115.492 684.938 114.539 684.562 113.648C684.203 112.758 683.648 112.039 682.898 111.492C682.148 110.945 681.148 110.672 679.898 110.672C678.961 110.672 678.125 110.875 677.391 111.281C676.672 111.672 676.07 112.242 675.586 112.992C675.102 113.742 674.727 114.648 674.461 115.711C674.211 116.758 674.086 117.938 674.086 119.25V120.188C674.086 121.297 674.234 122.328 674.531 123.281C674.844 124.219 675.297 125.039 675.891 125.742C676.484 126.445 677.203 127 678.047 127.406C678.891 127.797 679.852 127.992 680.93 127.992C682.289 127.992 683.5 127.719 684.562 127.172C685.625 126.625 686.547 125.852 687.328 124.852L690.305 127.734C689.758 128.531 689.047 129.297 688.172 130.031C687.297 130.75 686.227 131.336 684.961 131.789C683.711 132.242 682.258 132.469 680.602 132.469ZM711.398 106.641H716.531V131.297C716.531 133.578 716.047 135.516 715.078 137.109C714.109 138.703 712.758 139.914 711.023 140.742C709.289 141.586 707.281 142.008 705 142.008C704.031 142.008 702.953 141.867 701.766 141.586C700.594 141.305 699.453 140.852 698.344 140.227C697.25 139.617 696.336 138.812 695.602 137.812L698.25 134.484C699.156 135.562 700.156 136.352 701.25 136.852C702.344 137.352 703.492 137.602 704.695 137.602C705.992 137.602 707.094 137.359 708 136.875C708.922 136.406 709.633 135.711 710.133 134.789C710.633 133.867 710.883 132.742 710.883 131.414V112.383L711.398 106.641ZM694.172 119.602V119.109C694.172 117.188 694.406 115.438 694.875 113.859C695.344 112.266 696.016 110.898 696.891 109.758C697.766 108.602 698.828 107.719 700.078 107.109C701.328 106.484 702.742 106.172 704.32 106.172C705.961 106.172 707.359 106.469 708.516 107.062C709.688 107.656 710.664 108.508 711.445 109.617C712.227 110.711 712.836 112.023 713.273 113.555C713.727 115.07 714.062 116.758 714.281 118.617V120.188C714.078 122 713.734 123.656 713.25 125.156C712.766 126.656 712.125 127.953 711.328 129.047C710.531 130.141 709.547 130.984 708.375 131.578C707.219 132.172 705.852 132.469 704.273 132.469C702.727 132.469 701.328 132.148 700.078 131.508C698.844 130.867 697.781 129.969 696.891 128.812C696.016 127.656 695.344 126.297 694.875 124.734C694.406 123.156 694.172 121.445 694.172 119.602ZM699.82 119.109V119.602C699.82 120.758 699.93 121.836 700.148 122.836C700.383 123.836 700.734 124.719 701.203 125.484C701.688 126.234 702.297 126.828 703.031 127.266C703.781 127.688 704.664 127.898 705.68 127.898C707.008 127.898 708.094 127.617 708.938 127.055C709.797 126.492 710.453 125.734 710.906 124.781C711.375 123.812 711.703 122.734 711.891 121.547V117.305C711.797 116.383 711.602 115.523 711.305 114.727C711.023 113.93 710.641 113.234 710.156 112.641C709.672 112.031 709.062 111.562 708.328 111.234C707.594 110.891 706.727 110.719 705.727 110.719C704.711 110.719 703.828 110.938 703.078 111.375C702.328 111.812 701.711 112.414 701.227 113.18C700.758 113.945 700.406 114.836 700.172 115.852C699.938 116.867 699.82 117.953 699.82 119.109ZM728.438 106.641V132H722.766V106.641H728.438ZM722.391 99.9844C722.391 99.125 722.672 98.4141 723.234 97.8516C723.812 97.2734 724.609 96.9844 725.625 96.9844C726.625 96.9844 727.414 97.2734 727.992 97.8516C728.57 98.4141 728.859 99.125 728.859 99.9844C728.859 100.828 728.57 101.531 727.992 102.094C727.414 102.656 726.625 102.938 725.625 102.938C724.609 102.938 723.812 102.656 723.234 102.094C722.672 101.531 722.391 100.828 722.391 99.9844ZM748.852 125.133C748.852 124.57 748.711 124.062 748.43 123.609C748.148 123.141 747.609 122.719 746.812 122.344C746.031 121.969 744.875 121.625 743.344 121.312C742 121.016 740.766 120.664 739.641 120.258C738.531 119.836 737.578 119.328 736.781 118.734C735.984 118.141 735.367 117.438 734.93 116.625C734.492 115.812 734.273 114.875 734.273 113.812C734.273 112.781 734.5 111.805 734.953 110.883C735.406 109.961 736.055 109.148 736.898 108.445C737.742 107.742 738.766 107.188 739.969 106.781C741.188 106.375 742.547 106.172 744.047 106.172C746.172 106.172 747.992 106.531 749.508 107.25C751.039 107.953 752.211 108.914 753.023 110.133C753.836 111.336 754.242 112.695 754.242 114.211H748.594C748.594 113.539 748.422 112.914 748.078 112.336C747.75 111.742 747.25 111.266 746.578 110.906C745.906 110.531 745.062 110.344 744.047 110.344C743.078 110.344 742.273 110.5 741.633 110.812C741.008 111.109 740.539 111.5 740.227 111.984C739.93 112.469 739.781 113 739.781 113.578C739.781 114 739.859 114.383 740.016 114.727C740.188 115.055 740.469 115.359 740.859 115.641C741.25 115.906 741.781 116.156 742.453 116.391C743.141 116.625 744 116.852 745.031 117.07C746.969 117.477 748.633 118 750.023 118.641C751.43 119.266 752.508 120.078 753.258 121.078C754.008 122.062 754.383 123.312 754.383 124.828C754.383 125.953 754.141 126.984 753.656 127.922C753.188 128.844 752.5 129.648 751.594 130.336C750.688 131.008 749.602 131.531 748.336 131.906C747.086 132.281 745.68 132.469 744.117 132.469C741.82 132.469 739.875 132.062 738.281 131.25C736.688 130.422 735.477 129.367 734.648 128.086C733.836 126.789 733.43 125.445 733.43 124.055H738.891C738.953 125.102 739.242 125.938 739.758 126.562C740.289 127.172 740.945 127.617 741.727 127.898C742.523 128.164 743.344 128.297 744.188 128.297C745.203 128.297 746.055 128.164 746.742 127.898C747.43 127.617 747.953 127.242 748.312 126.773C748.672 126.289 748.852 125.742 748.852 125.133ZM770.953 106.641V110.766H756.656V106.641H770.953ZM760.781 100.43H766.43V124.992C766.43 125.773 766.539 126.375 766.758 126.797C766.992 127.203 767.312 127.477 767.719 127.617C768.125 127.758 768.602 127.828 769.148 127.828C769.539 127.828 769.914 127.805 770.273 127.758C770.633 127.711 770.922 127.664 771.141 127.617L771.164 131.93C770.695 132.07 770.148 132.195 769.523 132.305C768.914 132.414 768.211 132.469 767.414 132.469C766.117 132.469 764.969 132.242 763.969 131.789C762.969 131.32 762.188 130.562 761.625 129.516C761.062 128.469 760.781 127.078 760.781 125.344V100.43ZM780.984 111.469V132H775.336V106.641H780.727L780.984 111.469ZM788.742 106.477L788.695 111.727C788.352 111.664 787.977 111.617 787.57 111.586C787.18 111.555 786.789 111.539 786.398 111.539C785.43 111.539 784.578 111.68 783.844 111.961C783.109 112.227 782.492 112.617 781.992 113.133C781.508 113.633 781.133 114.242 780.867 114.961C780.602 115.68 780.445 116.484 780.398 117.375L779.109 117.469C779.109 115.875 779.266 114.398 779.578 113.039C779.891 111.68 780.359 110.484 780.984 109.453C781.625 108.422 782.422 107.617 783.375 107.039C784.344 106.461 785.461 106.172 786.727 106.172C787.07 106.172 787.438 106.203 787.828 106.266C788.234 106.328 788.539 106.398 788.742 106.477ZM805.734 126.914V114.82C805.734 113.914 805.57 113.133 805.242 112.477C804.914 111.82 804.414 111.312 803.742 110.953C803.086 110.594 802.258 110.414 801.258 110.414C800.336 110.414 799.539 110.57 798.867 110.883C798.195 111.195 797.672 111.617 797.297 112.148C796.922 112.68 796.734 113.281 796.734 113.953H791.109C791.109 112.953 791.352 111.984 791.836 111.047C792.32 110.109 793.023 109.273 793.945 108.539C794.867 107.805 795.969 107.227 797.25 106.805C798.531 106.383 799.969 106.172 801.562 106.172C803.469 106.172 805.156 106.492 806.625 107.133C808.109 107.773 809.273 108.742 810.117 110.039C810.977 111.32 811.406 112.93 811.406 114.867V126.141C811.406 127.297 811.484 128.336 811.641 129.258C811.812 130.164 812.055 130.953 812.367 131.625V132H806.578C806.312 131.391 806.102 130.617 805.945 129.68C805.805 128.727 805.734 127.805 805.734 126.914ZM806.555 116.578L806.602 120.07H802.547C801.5 120.07 800.578 120.172 799.781 120.375C798.984 120.562 798.32 120.844 797.789 121.219C797.258 121.594 796.859 122.047 796.594 122.578C796.328 123.109 796.195 123.711 796.195 124.383C796.195 125.055 796.352 125.672 796.664 126.234C796.977 126.781 797.43 127.211 798.023 127.523C798.633 127.836 799.367 127.992 800.227 127.992C801.383 127.992 802.391 127.758 803.25 127.289C804.125 126.805 804.812 126.219 805.312 125.531C805.812 124.828 806.078 124.164 806.109 123.539L807.938 126.047C807.75 126.688 807.43 127.375 806.977 128.109C806.523 128.844 805.93 129.547 805.195 130.219C804.477 130.875 803.609 131.414 802.594 131.836C801.594 132.258 800.438 132.469 799.125 132.469C797.469 132.469 795.992 132.141 794.695 131.484C793.398 130.812 792.383 129.914 791.648 128.789C790.914 127.648 790.547 126.359 790.547 124.922C790.547 123.578 790.797 122.391 791.297 121.359C791.812 120.312 792.562 119.438 793.547 118.734C794.547 118.031 795.766 117.5 797.203 117.141C798.641 116.766 800.281 116.578 802.125 116.578H806.555ZM828.938 106.641V110.766H814.641V106.641H828.938ZM818.766 100.43H824.414V124.992C824.414 125.773 824.523 126.375 824.742 126.797C824.977 127.203 825.297 127.477 825.703 127.617C826.109 127.758 826.586 127.828 827.133 127.828C827.523 127.828 827.898 127.805 828.258 127.758C828.617 127.711 828.906 127.664 829.125 127.617L829.148 131.93C828.68 132.07 828.133 132.195 827.508 132.305C826.898 132.414 826.195 132.469 825.398 132.469C824.102 132.469 822.953 132.242 821.953 131.789C820.953 131.32 820.172 130.562 819.609 129.516C819.047 128.469 818.766 127.078 818.766 125.344V100.43ZM839.344 106.641V132H833.672V106.641H839.344ZM833.297 99.9844C833.297 99.125 833.578 98.4141 834.141 97.8516C834.719 97.2734 835.516 96.9844 836.531 96.9844C837.531 96.9844 838.32 97.2734 838.898 97.8516C839.477 98.4141 839.766 99.125 839.766 99.9844C839.766 100.828 839.477 101.531 838.898 102.094C838.32 102.656 837.531 102.938 836.531 102.938C835.516 102.938 834.719 102.656 834.141 102.094C833.578 101.531 833.297 100.828 833.297 99.9844ZM844.453 119.602V119.062C844.453 117.234 844.719 115.539 845.25 113.977C845.781 112.398 846.547 111.031 847.547 109.875C848.562 108.703 849.797 107.797 851.25 107.156C852.719 106.5 854.375 106.172 856.219 106.172C858.078 106.172 859.734 106.5 861.188 107.156C862.656 107.797 863.898 108.703 864.914 109.875C865.93 111.031 866.703 112.398 867.234 113.977C867.766 115.539 868.031 117.234 868.031 119.062V119.602C868.031 121.43 867.766 123.125 867.234 124.688C866.703 126.25 865.93 127.617 864.914 128.789C863.898 129.945 862.664 130.852 861.211 131.508C859.758 132.148 858.109 132.469 856.266 132.469C854.406 132.469 852.742 132.148 851.273 131.508C849.82 130.852 848.586 129.945 847.57 128.789C846.555 127.617 845.781 126.25 845.25 124.688C844.719 123.125 844.453 121.43 844.453 119.602ZM850.102 119.062V119.602C850.102 120.742 850.219 121.82 850.453 122.836C850.688 123.852 851.055 124.742 851.555 125.508C852.055 126.273 852.695 126.875 853.477 127.312C854.258 127.75 855.188 127.969 856.266 127.969C857.312 127.969 858.219 127.75 858.984 127.312C859.766 126.875 860.406 126.273 860.906 125.508C861.406 124.742 861.773 123.852 862.008 122.836C862.258 121.82 862.383 120.742 862.383 119.602V119.062C862.383 117.938 862.258 116.875 862.008 115.875C861.773 114.859 861.398 113.961 860.883 113.18C860.383 112.398 859.742 111.789 858.961 111.352C858.195 110.898 857.281 110.672 856.219 110.672C855.156 110.672 854.234 110.898 853.453 111.352C852.688 111.789 852.055 112.398 851.555 113.18C851.055 113.961 850.688 114.859 850.453 115.875C850.219 116.875 850.102 117.938 850.102 119.062ZM878.367 112.055V132H872.719V106.641H878.039L878.367 112.055ZM877.359 118.383L875.531 118.359C875.547 116.562 875.797 114.914 876.281 113.414C876.781 111.914 877.469 110.625 878.344 109.547C879.234 108.469 880.297 107.641 881.531 107.062C882.766 106.469 884.141 106.172 885.656 106.172C886.875 106.172 887.977 106.344 888.961 106.688C889.961 107.016 890.812 107.555 891.516 108.305C892.234 109.055 892.781 110.031 893.156 111.234C893.531 112.422 893.719 113.883 893.719 115.617V132H888.047V115.594C888.047 114.375 887.867 113.414 887.508 112.711C887.164 111.992 886.656 111.484 885.984 111.188C885.328 110.875 884.508 110.719 883.523 110.719C882.555 110.719 881.688 110.922 880.922 111.328C880.156 111.734 879.508 112.289 878.977 112.992C878.461 113.695 878.062 114.508 877.781 115.43C877.5 116.352 877.359 117.336 877.359 118.383ZM910.055 121.945H904.828C904.844 120.492 904.969 119.273 905.203 118.289C905.438 117.289 905.828 116.383 906.375 115.57C906.938 114.758 907.68 113.898 908.602 112.992C909.32 112.305 909.969 111.656 910.547 111.047C911.125 110.422 911.586 109.766 911.93 109.078C912.273 108.375 912.445 107.57 912.445 106.664C912.445 105.68 912.281 104.844 911.953 104.156C911.625 103.469 911.141 102.945 910.5 102.586C909.875 102.227 909.094 102.047 908.156 102.047C907.375 102.047 906.641 102.203 905.953 102.516C905.266 102.812 904.711 103.281 904.289 103.922C903.867 104.547 903.641 105.375 903.609 106.406H897.961C897.992 104.438 898.461 102.781 899.367 101.438C900.273 100.094 901.492 99.0859 903.023 98.4141C904.555 97.7422 906.266 97.4062 908.156 97.4062C910.25 97.4062 912.039 97.7656 913.523 98.4844C915.008 99.1875 916.141 100.219 916.922 101.578C917.719 102.922 918.117 104.547 918.117 106.453C918.117 107.828 917.844 109.078 917.297 110.203C916.75 111.312 916.039 112.352 915.164 113.32C914.289 114.273 913.344 115.227 912.328 116.18C911.453 116.977 910.859 117.844 910.547 118.781C910.234 119.703 910.07 120.758 910.055 121.945ZM904.359 129.258C904.359 128.414 904.648 127.703 905.227 127.125C905.805 126.531 906.594 126.234 907.594 126.234C908.594 126.234 909.383 126.531 909.961 127.125C910.539 127.703 910.828 128.414 910.828 129.258C910.828 130.102 910.539 130.82 909.961 131.414C909.383 131.992 908.594 132.281 907.594 132.281C906.594 132.281 905.805 131.992 905.227 131.414C904.648 130.82 904.359 130.102 904.359 129.258Z" fill="#FFA229"/>
<path d="M364.366 421.573C364.366 421.573 375.624 376.671 340.67 369.213C340.67 369.213 316.821 367.192 302.311 375.598C302.311 375.598 341.142 400.855 336.042 407.871C330.941 414.887 294.785 376.58 294.785 376.58C294.785 376.58 251.006 393.418 240.819 406.657C240.819 406.657 290.991 418.255 284.341 423.776C277.69 429.298 224.919 419.679 224.919 419.679C224.919 419.679 189.361 445.82 203.196 468.707C217.032 491.593 234.043 492.273 239.617 488.688C245.19 485.103 273.076 454.597 276.217 459.088C279.358 463.578 266.489 489.867 252.326 497.879C252.326 497.879 294.716 514.647 308.614 496.721C322.512 478.796 317.182 464.069 325.986 453.152C334.791 442.235 344.45 437.394 342.393 445.077C340.336 452.759 322.345 468.229 321.546 483.075C320.747 497.921 318.766 508.649 336.202 496.35C353.637 484.051 377.396 454.794 370.905 438.194L364.366 421.573Z" fill="#1C4670" fill-opacity="0.45"/>
<path d="M222 461C222 461 326.491 401.303 365.139 420.979C365.139 420.979 378.077 434.599 401.127 441.133L407 446.961C407 446.961 378.877 436.171 371.685 438.376C371.692 438.376 363.286 393.468 222 461Z" fill="#8BC0CC"/>
<path d="M401.261 441.183C401.261 441.183 432.452 446.658 449 475.611L445.038 478C445.038 478 422.282 450.828 403.039 445.256C383.796 439.685 401.261 441.183 401.261 441.183Z" fill="#599DAD"/>
<path d="M408.423 351.913C408.423 351.913 462.867 304.098 424.021 263.223C424.021 263.223 394.801 239.266 368.497 237.112C368.497 237.112 396.596 304.421 383.759 308.876C370.923 313.332 357.855 231.618 357.855 231.618C357.855 231.618 286.08 214.138 261.052 222.06C261.052 222.06 316.001 281.924 302.464 283.109C288.926 284.295 228.852 224.636 228.852 224.636C228.852 224.636 159.446 226.481 157.168 268.359C154.889 310.238 176.391 326.356 186.809 326.721C197.227 327.086 260.519 312.722 260.61 321.318C260.701 329.914 220.649 352.249 195.187 349.913C195.187 349.913 235.414 409.467 269.331 398.794C303.249 388.121 309.397 364.41 330.478 358.172C351.559 351.934 368.441 354.397 358.956 362.452C349.47 370.508 312.377 374.382 298.201 392.766C284.026 411.151 271.946 423.242 305.492 422.996C339.038 422.751 395.853 406.331 402.127 379.125L408.423 351.913Z" fill="#BCECF7"/>
<path d="M190 274C190 274 374.233 293.379 407.214 352.344C407.214 352.344 412.331 380.808 436.382 409.526L439 422C439 422 412.031 383.475 400.958 379.782C400.958 379.782 428.004 316.565 190 274Z" fill="#8BC0CC"/>
<path d="M436.84 409.009C436.84 409.009 472.296 443.684 467.566 496L460.273 495.616C460.273 495.616 455.346 440.134 435.488 415.901C415.631 391.668 436.84 409.009 436.84 409.009Z" fill="#6BB7BF"/>
<path d="M395.875 792.365C395.875 792.365 466.634 776.51 452.009 722.339C452.009 722.339 437.763 687.532 415.661 673.135C415.661 673.135 408.183 745.274 394.759 743.063C381.334 740.852 408.921 663.278 408.921 663.278C408.921 663.278 354.156 613.886 328.339 608.87C328.339 608.87 348.04 687.274 335.578 681.847C323.115 676.42 298.78 595.812 298.78 595.812C298.78 595.812 236.853 564.423 214.807 599.907C192.76 635.391 203.987 659.686 212.974 664.96C221.961 670.233 284.492 687.804 280.476 695.365C276.46 702.927 230.541 703.373 209.246 689.22C209.246 689.22 216.155 760.369 251.099 767.156C286.043 773.943 302.796 756.17 324.316 760.767C345.836 765.363 359.52 775.527 347.317 778.052C335.114 780.577 300.654 766.291 279.38 775.631C258.106 784.971 241.705 789.749 271.334 805.486C300.963 821.223 358.796 833.911 377.353 813.159L395.875 792.365Z" fill="#BCECF7"/>
<path d="M241 620C241 620 393.84 725.135 395 792.203C395 792.203 386.062 819.391 393.651 855.904L390.066 868C390.066 868 384.538 821.596 376.551 813.077C376.551 813.028 430.179 771.048 241 620Z" fill="#8BC0CC"/>
<path d="M394.279 856.815C394.279 856.815 409.445 904.18 378.543 948L372 944.203C372 944.203 395.596 893.013 389.542 862.241C383.487 831.468 394.279 856.815 394.279 856.815Z" fill="#6BB7BF"/>
<path d="M864 303H350V1025H864V303Z" fill="#1C4670"/>
<path d="M846 323H368V1012H846V323Z" fill="#DCF6F9"/>
<path d="M808 408H417V429H808V408Z" fill="#FFA229"/>
<path d="M808 544H417V554H808V544Z" fill="#FFA229"/>
<path d="M808 567H417V578H808V567Z" fill="#FFA229"/>
<path d="M808 592H417V602H808V592Z" fill="#FFA229"/>
<path d="M808 616H417V627H808V616Z" fill="#FFA229"/>
<path d="M808 640H417V650H808V640Z" fill="#FFA229"/>
<path d="M808 664H417V674H808V664Z" fill="#FFA229"/>
<path d="M512.884 831.94C528.252 825.574 535.55 807.955 529.184 792.587C522.818 777.218 505.199 769.92 489.831 776.286C474.463 782.652 467.164 800.271 473.53 815.639C479.896 831.008 497.515 838.306 512.884 831.94Z" fill="#FFA229"/>
<path d="M657.516 833H657.262C656.866 832.932 656.514 832.711 656.281 832.386C656.049 832.062 655.955 831.659 656.02 831.266C656.303 829.616 663.2 790.767 684.938 777.54C686.489 776.603 687.463 777.093 687.9 777.463C689.811 779.085 688.359 783.21 681.813 798.765C679.204 804.966 676.114 812.321 674.838 816.788C677.158 813.782 680.621 808.629 683.372 804.533C691.97 791.732 693.648 789.649 695.362 789.649C695.663 789.646 695.96 789.716 696.227 789.854C696.494 789.992 696.723 790.193 696.893 790.439C697.803 791.732 697.111 793.934 694.734 800.282C693.666 802.959 692.762 805.698 692.026 808.482C693.525 806.954 694.909 805.318 696.166 803.589C699.15 799.751 700.659 797.912 702.436 798.192C702.84 798.265 703.214 798.45 703.515 798.726C703.816 799.002 704.032 799.358 704.136 799.751C704.308 800.285 704.426 800.836 704.489 801.394C704.722 802.932 704.99 804.672 706.859 805.721C710.632 807.818 721.508 807.706 751.892 795.151C752.266 794.998 752.687 794.998 753.06 795.152C753.434 795.306 753.73 795.601 753.885 795.972C754.039 796.343 754.038 796.759 753.883 797.13C753.728 797.5 753.43 797.794 753.056 797.947C727.404 808.545 711.803 811.929 705.37 808.357C702.239 806.609 701.773 803.68 701.498 801.904C700.638 802.806 699.439 804.358 698.557 805.49C695.271 809.734 693.112 812.286 690.905 812.111C690.58 812.084 690.265 811.982 689.987 811.815C689.708 811.648 689.471 811.419 689.297 811.146C688.246 809.496 689.297 806.252 691.878 799.261C692.294 798.15 692.774 796.863 693.19 795.668C691.074 798.52 688.253 802.771 685.918 806.217C676.284 820.549 674.542 822.625 672.602 822.101C672.203 821.986 671.853 821.744 671.608 821.411C671.363 821.078 671.236 820.674 671.248 820.262C671.05 816.907 674.203 809.126 679.006 797.632C681.461 791.795 684.649 784.147 685.474 780.784C665.725 793.948 659.06 831.406 658.997 831.818C658.923 832.153 658.736 832.453 658.466 832.668C658.197 832.883 657.861 833 657.516 833Z" fill="#1C4670"/>
<path d="M719.236 290.987H658.887C660.743 286.068 661.378 280.771 660.74 275.552C660.101 270.333 658.207 265.346 655.22 261.021C652.233 256.695 648.243 253.16 643.592 250.718C638.94 248.276 633.766 247 628.514 247C623.262 247 618.088 248.276 613.436 250.718C608.785 253.16 604.794 256.695 601.808 261.021C598.821 265.346 596.927 270.333 596.288 275.552C595.65 280.771 596.285 286.068 598.141 290.987H537.792C535.46 290.987 533.224 291.915 531.575 293.566C529.926 295.216 529 297.455 529 299.79V324.198C529 326.532 529.926 328.771 531.575 330.422C533.224 332.073 535.46 333 537.792 333H719.208C721.54 333 723.776 332.073 725.425 330.422C727.074 328.771 728 326.532 728 324.198V299.79C728 297.46 727.078 295.225 725.435 293.575C723.792 291.926 721.563 290.995 719.236 290.987ZM628.528 291.483C626.157 291.482 623.84 290.777 621.87 289.457C619.899 288.138 618.364 286.263 617.458 284.07C616.552 281.877 616.315 279.464 616.779 277.136C617.242 274.809 618.384 272.671 620.061 270.993C621.738 269.315 623.874 268.173 626.199 267.71C628.524 267.248 630.934 267.486 633.124 268.395C635.314 269.303 637.186 270.841 638.503 272.815C639.819 274.788 640.522 277.109 640.522 279.482C640.522 281.06 640.212 282.622 639.608 284.08C639.004 285.537 638.119 286.861 637.004 287.976C635.888 289.09 634.565 289.974 633.108 290.576C631.651 291.178 630.09 291.486 628.514 291.483H628.528Z" fill="#FFA229"/>
<path d="M50.4881 1022.24C62.6006 1009.81 83.9458 1001.26 108.604 1000.26V963.647H66.0743C65.1307 963.647 64.292 962.82 63.7539 961.543C63.3495 960.524 63.1477 959.435 63.1597 958.338V956.486C63.1597 953.568 64.4737 951.183 66.0743 951.183H108.611V848.91C108.611 847.608 109.126 846.359 110.044 845.438C110.962 844.517 112.206 844 113.504 844C114.801 844 116.045 844.517 116.963 845.438C117.881 846.359 118.396 847.608 118.396 848.91V951.183H160.933C162.533 951.183 163.847 953.568 163.847 956.486V958.338C163.862 959.468 163.645 960.59 163.211 961.634C162.68 962.855 161.855 963.647 160.933 963.647H118.396V1000.26C143.054 1001.26 164.399 1009.81 176.512 1022.24C177.393 1023.13 178.222 1024.06 179 1025H48C48.7735 1024.06 49.6028 1023.13 50.4881 1022.24Z" fill="#1C3A3E"/>
<path d="M108 1000.29C125.358 1001.89 140.282 1010.28 148.908 1022.22C149.566 1023.13 150.185 1024.05 150.763 1025H163C162.417 1024.06 161.796 1023.13 161.138 1022.22C151.503 1008.9 134.047 1000 114.108 1000C112.048 1000.04 110.003 1000.1 108 1000.29Z" fill="#1C4670"/>
<path d="M243 999.933C243 999.933 244.489 1024.6 249.138 1024.95C249.756 1025 272.707 1025 272.707 1025L302 1024.83C302 1024.83 301.81 1017.57 293.242 1016.04C284.674 1014.51 270.347 1008.33 265.15 996.71C259.701 984.479 243 999.933 243 999.933Z" fill="#163560"/>
<path d="M127.297 824.614C131.521 831.576 136.218 838.244 141.354 844.569C156.775 863.944 173.559 879.919 176.497 895.02C177.162 898.302 178.069 901.53 179.21 904.679C180.433 908.177 181.944 911.779 183.687 915.535C190.231 929.684 200.015 945.534 209.785 959.942C226.653 984.849 240.507 1001.57 240.507 1001.57C240.507 1001.57 244.935 1005 257.6 1005C261.115 1005 273 1003.08 273 1003.08C271.833 1000.17 257.818 967.104 240.823 925.075L219.505 872.365C218.563 870.022 217.614 867.7 216.694 865.371C214.529 860.013 212.399 854.739 210.319 849.605L181.649 778.717C181.649 778.717 117.864 754.67 111.236 770.254C105.719 783.11 110.168 795.7 127.297 824.614Z" fill="#1C3A3E"/>
<path d="M332 758H235V1025H332V758Z" fill="#49ADB7"/>
<path d="M328 1025H397L397 758H328V1025Z" fill="#8BC0CC"/>
<path d="M328 753H229V758H328V753Z" fill="#24555E"/>
<path d="M405 753H328V758H405V753Z" fill="#49ADB7"/>
<path d="M227.281 717C227.281 717 241.37 724.949 245.313 724.949C249.256 724.949 264.748 721.975 269.062 724.168C273.377 726.361 281.227 735.155 282.658 738.03C285.291 743.204 272.046 740.918 265.785 736.511C265.336 736.194 264.826 735.974 264.286 735.864C263.746 735.754 263.19 735.757 262.651 735.872C259.41 736.582 252.676 737.788 249.42 736.582C245.041 734.971 222 733.189 222 733.189L227.281 717Z" fill="#F9A6A0"/>
<path d="M123 609.33C123 609.33 137.24 711.956 160.81 721.15C172.442 725.684 223.851 736.003 239.06 737C239.06 737 242.784 733.93 241.85 721.44C241.85 721.44 187.986 701.389 180.336 690.483C168.948 674.216 187.407 624.169 173.119 608.927C158.83 593.686 134.792 587.143 123 609.33Z" fill="white" fill-opacity="0.36"/>
<path d="M175.592 932C175.592 932 155.136 945.143 157.138 949.416C157.408 949.984 168.715 970.231 168.715 970.231L183.294 996C183.294 996 189.433 992.352 186.53 984.063C183.627 975.774 181.874 960.161 189.305 949.998C197.078 939.324 175.592 932 175.592 932Z" fill="#FF4B42"/>
<path d="M187.196 957C187.196 957 173.013 943.802 170.79 935.637C170.79 935.637 222.686 873.363 233.94 859.402C234.457 858.765 234.324 858.064 233.646 857.301C225.146 847.709 130.729 828.195 118.391 808.989C114.713 803.346 112.016 797.119 110.416 790.574C107.62 778.839 109.828 770.731 109.828 770.731L204.127 768C204.127 768 282.634 816.971 291.505 850.355C300.375 883.74 187.196 957 187.196 957Z" fill="#24555E"/>
<path d="M234 858C225.447 848.292 130.44 828.544 118.026 809.108C114.325 803.398 111.611 797.097 110 790.473V778.377L150.325 772C150.325 772 161.762 807.429 195.63 820.743C227.353 833.2 233.367 855.265 234 858Z" fill="#1C3A3E"/>
<path d="M178 604.14C158.811 609.047 127 591.361 127 591.361C127 591.361 139.347 583.083 143.925 564.907C144.164 563.988 144.368 563.056 144.558 562.103L154.402 560L169.056 573.087C168.63 578.051 167.907 582.985 166.89 587.863C166.571 589.494 166.203 591.242 165.786 593.107C170.501 596.008 174.641 599.748 178 604.14Z" fill="#FCBDB6"/>
<path d="M107.514 683.18C110.257 720.229 106.651 776.58 109.759 786.341C112.446 794.756 143.045 789.752 155.253 786.94C159.772 785.904 165.244 784.417 170.9 782.655C186.672 777.722 203.876 770.752 205.701 765.551C205.77 765.355 205.829 765.155 205.876 764.952C206.041 764.235 206.041 763.491 205.876 762.774C205.259 760.124 202.894 757.256 202.614 750.688C202.305 743.365 202.347 734.732 202.073 725.458C202.073 724.408 202.073 723.273 201.933 722.23V721.85C201.933 721.652 201.933 721.455 201.933 721.258C201.673 710.912 201.133 700.031 200.53 689.241C200.13 682.468 199.674 675.752 199.126 669.325C197.723 652.728 195.899 637.971 193.443 628.64C189.437 613.431 180.596 603.509 172.548 596.222L166.732 591.211C160.235 592.62 152.552 591.69 145.613 588.392C138.091 584.805 135.495 582.239 134.19 583.205C116.754 596.666 104.272 637.886 107.514 683.18Z" fill="#FFA229"/>
<path d="M170.51 782C186.514 777.101 203.971 770.179 205.822 765.015C205.892 764.82 205.952 764.621 206 764.42C206 763.72 206 762.978 206 762.257C205.374 759.626 202.974 756.777 202.689 750.255C202.376 742.983 202.419 734.41 202.141 725.2C202.141 724.157 202.141 723.03 201.999 721.995V721.617C201.999 721.421 201.999 721.225 201.999 721.029L137.305 640C137.305 640 93.7563 729.028 170.51 782Z" fill="white" fill-opacity="0.36"/>
<path d="M170 573.155C169.577 578.142 168.858 583.099 167.846 588C153.615 583.366 147.161 570.394 145 564.93C145.238 564.007 145.441 563.07 145.629 562.113L155.42 560L170 573.155Z" fill="#F9A6A0"/>
<path d="M171.793 580.984C171.793 580.984 140.761 575.737 144.278 556.165C147.795 536.594 146.173 522.773 166.137 525.297C186.1 527.822 188.597 535.998 188.988 542.813C189.38 549.627 179.961 581.821 171.793 580.984Z" fill="#FCBDB6"/>
<path d="M240.035 748.256L317.269 748.249L338.255 680L341 680.855L318.809 753H240L240.035 748.256Z" fill="#1C4670"/>
<path d="M219 750.08C219 750.08 244.361 756.641 253.904 755.949C263.446 755.257 271.355 750.826 272.521 748.505C273.687 746.183 276.228 742.081 269.729 742.841C263.23 743.602 254.413 744.951 254.141 743.732C253.869 742.513 259.418 742.622 259.418 742.622C259.418 742.622 261.094 740.232 258.985 740.143C256.877 740.054 250.706 738.417 248.417 739.541C246.127 740.664 244.012 744.807 242.336 744.636C240.661 744.464 221.115 736 221.115 736L219 750.08Z" fill="#FCBDB6"/>
<path d="M129 615.807C129 615.807 132.001 718.157 154.443 729.793C165.517 735.53 215.531 751.303 230.506 754C230.506 754 234.546 751.4 235 739.045C235 739.045 183.612 713.405 177.192 701.846C167.632 684.648 191.435 637.512 178.881 620.964C166.327 604.416 143.138 595.317 129 615.807Z" fill="#FFA229"/>
<path d="M144.556 565C144.556 565 144.203 558.234 148.326 554.358C148.326 554.358 146.912 547.578 149.543 546.455C152.174 545.333 152.754 551.04 153.964 550.146C155.173 549.252 160.598 545.004 162.925 538.746C165.252 532.488 186.5 540.062 188.976 541.192C191.451 542.322 199.416 538.181 201 534.827C201 534.827 196.572 531.251 194.585 528.569C192.597 525.887 178.663 507.772 159.219 512.914C139.775 518.056 137.108 527.453 138.212 535.499C139.315 543.545 136.557 562.297 144.556 565Z" fill="#501506"/>
<path d="M180.1 811.117C150.83 811.119 121.864 805.125 94.9463 793.495L77.4779 785.951C73.8215 784.373 69.8353 783.737 65.8761 784.099C61.917 784.461 58.1084 785.811 54.7914 788.027C51.4744 790.244 48.7524 793.258 46.8691 796.799C44.9859 800.341 44 804.3 44 808.321V842.039C44.0056 843.619 44.6292 845.133 45.7347 846.25C46.8401 847.367 48.3376 847.996 49.9 848H180.1C181.662 847.996 183.16 847.367 184.265 846.25C185.371 845.133 185.994 843.619 186 842.039V817.071C185.993 815.492 185.368 813.98 184.263 812.864C183.158 811.749 181.661 811.121 180.1 811.117Z" fill="#8BC0CC"/>
<path d="M689.956 837.148C662.556 841.866 635.996 842.893 615.744 841.304C595.31 839.693 583.376 833.365 582.108 826.143C580.993 819.603 588.555 812.079 603.992 804.457C589.199 811.784 582.031 820.032 583.047 825.981C584.175 832.584 596.102 837.232 615.758 838.814C635.905 840.396 662.058 838.681 689.381 833.976C716.704 829.272 741.939 822.142 760.404 813.9C778.42 805.863 788.105 797.467 786.977 790.864C785.778 783.832 772.919 777.138 753.41 773.284C731.224 768.911 705.057 770.38 679.269 774.824C630.86 783.157 611.897 792.263 595.829 802.347C611.946 792.214 630.271 780.738 678.848 772.37C704.742 767.912 731.273 767.877 753.557 772.265C773.48 776.189 786.647 783.249 787.895 790.688C789.128 797.91 779.486 806.489 760.768 814.843C742.282 823.14 717.349 832.443 689.956 837.148Z" fill="#1C4670"/>
<path d="M1009 746.278C1009 746.278 1007.28 762.225 1005.4 765.262C1003.52 768.299 995.512 777.94 992.101 779.832C988.689 781.723 994.188 767.118 993.492 764.269C992.796 761.42 990.686 769.459 989.18 769.647C987.675 769.836 988.061 762.609 988.008 759.978C987.955 757.347 995.323 750.852 997.925 745.249C1000.53 739.646 1009 746.278 1009 746.278Z" fill="#FCBDB6"/>
<path d="M819 604.557L815.429 597.649C815.429 597.649 817.204 585.367 802.18 577.571C802.18 577.571 796.686 575.28 793.587 579.876C790.77 584.102 799.032 583.344 798.581 590.576C798.13 597.808 801.49 602.064 806.153 604.419L810.005 609L819 604.557Z" fill="#FCBDB6"/>
<path d="M959 589.261C959 589.261 946.212 651.327 875.856 671.603C853.896 677.934 804 606.417 804 606.417C804 606.417 805.752 599.824 816.739 601.343C816.739 601.343 865.323 633.149 871.438 636.608C876.869 639.673 912.559 597.194 928.831 590.352C945.102 583.51 959 589.261 959 589.261Z" fill="#FFA229" fill-opacity="0.56"/>
<path d="M771.578 576.186L769.574 589.234L835.2 599.312L837.204 586.263L771.578 576.186Z" fill="#FF4B42"/>
<path d="M755 580.843L769.027 589L771 577L755 580.843Z" fill="#1C3A3E"/>
<path d="M843.95 592.268L843.314 596.219C843.222 596.798 843.012 597.353 842.696 597.853C842.381 598.354 841.966 598.79 841.475 599.136C840.984 599.482 840.427 599.732 839.835 599.872C839.244 600.011 838.629 600.037 838.028 599.948L835 599.505L837 587L840.293 587.484C841.438 587.653 842.466 588.252 843.152 589.149C843.838 590.046 844.125 591.168 843.95 592.268Z" fill="#1C3A3E"/>
<path d="M1044.73 984.732C1044.73 984.732 1053.49 992.619 1051.78 998.224C1050.07 1003.83 1042.17 1007.56 1041.1 1014.41C1040.02 1021.26 1035.76 1025 1031.91 1025H1013.57C1013.57 1025 1010.77 1020.16 1017.58 1018.72C1024.39 1017.29 1026.99 1009.23 1026.57 1001.75C1026.14 994.271 1027.21 984.318 1027.21 984.318L1041.74 981L1044.73 984.732Z" fill="#FF4B42"/>
<path d="M935.685 1005C935.685 1005 937.237 1023.13 933.451 1025L885 1024.9C885 1024.9 885 1019.25 892.786 1017.99C900.571 1016.72 914.232 1012.12 916.549 1001.87C918.866 991.61 935.685 1005 935.685 1005Z" fill="#FF4B42"/>
<path d="M894 747.455C894 747.455 896.645 779.592 899.762 818.224C903.994 870.702 909.056 935.167 909.585 947.381C910.457 968.561 913.946 1002.51 913.946 1002.51C913.946 1002.51 922.232 1010.56 938.803 1007.16C938.803 1007.16 953.573 958.74 957.791 907.513C957.855 906.672 957.92 905.825 957.991 904.978C961.916 852.826 968 743 968 743L894 747.455Z" fill="#24555E"/>
<path d="M894 747.441C894 747.441 896.645 779.478 899.762 817.99L957.791 907C957.855 906.162 957.92 905.318 957.991 904.473C961.916 852.483 968 743 968 743L894 747.441Z" fill="#1C3A3E"/>
<path d="M907 751.847C907 751.847 953.733 867.809 984.463 922.298C1015.19 976.786 1024.79 992 1024.79 992C1024.79 992 1042.4 985.03 1044 980.282C1044 980.282 1032.25 875.075 1011.67 849.459C1000.04 834.97 986.38 791.481 985.778 776.31C985.177 761.139 981.58 731 981.58 731L907 751.847Z" fill="#24555E"/>
<path d="M969 574.185C969 574.185 937.288 589.386 919 583.745C922.48 579.735 926.677 576.399 931.379 573.906C930.747 570.259 930.256 567.093 929.976 564.415C929.538 561.196 929.28 557.956 929.204 554.709L941.442 545.149L953.042 536C952.123 561.731 969 574.185 969 574.185Z" fill="#FCBDB6"/>
<path d="M984.999 737.025C985.069 738.967 980.917 741.191 979.084 742.022C965.496 747.996 952.829 752.162 938.469 753.548C921.502 755.286 901.437 751.437 894.538 751.606C893.833 751.592 893.158 751.319 892.641 750.839C892.142 750.494 891.791 730.009 892.142 704.254C892.142 703.212 892.142 702.143 892.212 701.129V700.785C892.36 690.715 892.711 680.159 893.203 669.611C894.186 646.389 896.013 624.06 899.111 611.703C902.849 597.123 911.294 587.468 918.966 580.459L925.289 574.907C931.939 576.346 938.879 575.513 945.003 572.542C952.323 569.024 960.206 565.182 961.47 566.153C971.046 573.19 977.524 588.931 980.973 609.078C983.027 621.7 983.993 634.474 983.861 647.261C983.861 652.265 983.72 657.402 983.439 662.468C981.746 689.962 983.439 713.838 984.423 727.666C984.739 731.677 984.95 734.802 984.999 737.025Z" fill="#FFA229"/>
<path d="M985 736C874.531 735.785 964.624 616.783 964.624 616.783L982.522 611C984.007 624.371 984.706 637.817 984.616 651.269C984.616 656.538 984.518 661.954 984.316 667.293C983.08 696.28 984.295 721.462 985 736Z" fill="#FFA229" fill-opacity="0.56"/>
<path d="M953 545.681C953 545.681 945.002 559.991 929.77 564C929.334 560.826 929.077 557.63 929 554.428L941.214 545L953 545.681Z" fill="#F9A6A0"/>
<path d="M922.88 553.422C922.88 553.422 953.073 558.249 955.91 540.01C958.746 521.771 964.552 510.055 945.404 506.18C926.255 502.305 921.409 508.724 918.936 514.599C916.464 520.474 915.098 551.684 922.88 553.422Z" fill="#FCBDB6"/>
<path d="M967.65 504.334C967.928 504.015 968.569 503.76 970 503.682C969.181 503.234 968.264 502.991 967.33 502.973C967.031 500.99 965.97 497.49 962.545 496.64C963.103 496.962 963.581 497.407 963.943 497.939C964.304 498.472 964.539 499.079 964.631 499.715C960.665 495.663 952.17 492.716 928.644 494.565C897.633 497.001 907.851 516.752 911.867 519.104C915.883 521.456 925.988 515.002 933.464 515.562C940.941 516.122 942.365 526.897 944.9 528.384C947.435 529.872 946.445 527.251 949.884 525.706C953.323 524.162 953.644 529.822 952.647 533.499C951.65 537.176 956.371 542 956.371 542L961.142 536.892C965.906 531.785 970.399 510.15 968.263 505.545L967.65 504.334Z" fill="#501506"/>
<path d="M961.5 566C961.5 566 980.686 575.085 989.886 589.06C1004.16 610.734 1020.69 689.732 1020.99 697.044C1021.3 704.355 1008.95 756 1008.95 756C1008.95 756 996.392 755.177 993.157 748.836C993.157 748.836 995.668 695.777 994.078 692.364C992.489 688.951 941.743 621.184 947.447 606.723C953.151 592.262 961.5 566 961.5 566Z" fill="#FFA229"/>
<path d="M814.806 597.32C814.806 597.32 815.897 593.51 812.905 591.8C809.914 590.09 807.158 585.428 805.891 586.058C803.275 587.359 807.327 591.429 806.583 596.501C806.325 598.276 811.004 602.925 814.806 597.32Z" fill="#FCBDB6"/>
<path d="M0.964696 1028H1079.04C1079.57 1028 1080 1027.32 1080 1026.5C1080 1025.68 1079.57 1025 1079.04 1025H0.964696C0.434123 1025 0 1025.68 0 1026.5C0 1027.32 0.434123 1028 0.964696 1028Z" fill="#1C3A3E"/>
</svg>
