<svg width="1025" height="1872" viewBox="0 0 1025 1872" fill="none" xmlns="http://www.w3.org/2000/svg">
<rect width="1025" height="1872" fill="#FFFAFA"/>
<g filter="url(#filter0_d_750_711)">
<path fill-rule="evenodd" clip-rule="evenodd" d="M945.959 386C968.066 386 985.981 403.934 985.959 426.041L985.799 580.15C985.776 602.225 967.874 620.108 945.799 620.108H818.055H74C51.9086 620.108 34 602.2 34 580.108V426C34 403.909 51.9086 386 74 386H945.959Z" fill="white"/>
</g>
<path d="M508.447 480.922V525H500.849V480.922H508.447ZM526.43 500.206V506.23H506.51V500.206H526.43ZM528.942 480.922V486.977H506.51V480.922H528.942ZM532.212 508.985V508.289C532.212 505.928 532.555 503.738 533.241 501.72C533.927 499.681 534.916 497.915 536.208 496.422C537.52 494.908 539.114 493.738 540.991 492.91C542.888 492.062 545.028 491.639 547.409 491.639C549.811 491.639 551.95 492.062 553.827 492.91C555.724 493.738 557.329 494.908 558.641 496.422C559.952 497.915 560.951 499.681 561.638 501.72C562.324 503.738 562.667 505.928 562.667 508.289V508.985C562.667 511.347 562.324 513.536 561.638 515.555C560.951 517.573 559.952 519.339 558.641 520.853C557.329 522.346 555.734 523.517 553.857 524.364C551.98 525.192 549.851 525.605 547.47 525.605C545.068 525.605 542.919 525.192 541.021 524.364C539.145 523.517 537.55 522.346 536.238 520.853C534.926 519.339 533.927 517.573 533.241 515.555C532.555 513.536 532.212 511.347 532.212 508.985ZM539.508 508.289V508.985C539.508 510.459 539.659 511.851 539.962 513.163C540.265 514.475 540.739 515.625 541.385 516.614C542.031 517.603 542.858 518.38 543.867 518.945C544.876 519.51 546.077 519.793 547.47 519.793C548.822 519.793 549.993 519.51 550.981 518.945C551.991 518.38 552.818 517.603 553.464 516.614C554.11 515.625 554.584 514.475 554.887 513.163C555.21 511.851 555.371 510.459 555.371 508.985V508.289C555.371 506.836 555.21 505.464 554.887 504.172C554.584 502.86 554.1 501.7 553.434 500.69C552.788 499.681 551.96 498.894 550.951 498.329C549.962 497.744 548.782 497.451 547.409 497.451C546.037 497.451 544.846 497.744 543.837 498.329C542.848 498.894 542.031 499.681 541.385 500.69C540.739 501.7 540.265 502.86 539.962 504.172C539.659 505.464 539.508 506.836 539.508 508.289ZM576.108 498.48V525H568.812V492.244H575.775L576.108 498.48ZM586.129 492.032L586.068 498.813C585.624 498.733 585.14 498.672 584.615 498.632C584.111 498.591 583.606 498.571 583.102 498.571C581.85 498.571 580.75 498.753 579.802 499.116C578.853 499.459 578.056 499.964 577.41 500.63C576.785 501.276 576.3 502.063 575.957 502.991C575.614 503.92 575.412 504.959 575.352 506.109L573.687 506.23C573.687 504.172 573.888 502.265 574.292 500.509C574.696 498.753 575.301 497.209 576.108 495.877C576.936 494.545 577.965 493.506 579.196 492.759C580.448 492.012 581.891 491.639 583.525 491.639C583.969 491.639 584.444 491.679 584.948 491.76C585.473 491.84 585.867 491.931 586.129 492.032ZM597.996 498.904V525H590.7V492.244H597.572L597.996 498.904ZM596.815 507.411L594.333 507.381C594.333 505.12 594.616 503.032 595.181 501.114C595.746 499.197 596.573 497.532 597.663 496.119C598.753 494.686 600.105 493.586 601.72 492.819C603.354 492.032 605.242 491.639 607.381 491.639C608.874 491.639 610.237 491.861 611.468 492.305C612.719 492.729 613.799 493.405 614.707 494.333C615.635 495.261 616.342 496.452 616.826 497.905C617.331 499.358 617.583 501.114 617.583 503.173V525H610.287V503.809C610.287 502.214 610.045 500.963 609.561 500.055C609.096 499.146 608.42 498.501 607.532 498.117C606.664 497.714 605.625 497.512 604.414 497.512C603.042 497.512 601.871 497.774 600.902 498.299C599.954 498.824 599.177 499.54 598.571 500.448C597.966 501.356 597.522 502.406 597.239 503.597C596.957 504.787 596.815 506.059 596.815 507.411ZM617.129 505.474L613.708 506.23C613.708 504.253 613.98 502.386 614.525 500.63C615.09 498.854 615.908 497.3 616.978 495.968C618.067 494.616 619.41 493.556 621.004 492.789C622.598 492.022 624.425 491.639 626.483 491.639C628.159 491.639 629.652 491.871 630.964 492.335C632.296 492.779 633.426 493.485 634.354 494.454C635.283 495.423 635.989 496.684 636.474 498.238C636.958 499.772 637.2 501.629 637.2 503.809V525H629.874V503.778C629.874 502.123 629.632 500.842 629.147 499.934C628.683 499.025 628.017 498.4 627.149 498.057C626.282 497.693 625.242 497.512 624.031 497.512C622.901 497.512 621.902 497.724 621.034 498.147C620.187 498.551 619.47 499.126 618.885 499.873C618.299 500.6 617.855 501.437 617.553 502.386C617.27 503.334 617.129 504.364 617.129 505.474ZM667.383 504.505L661.57 503.082L663.962 480.922H687.727V487.098H670.017L668.806 497.905C669.492 497.502 670.44 497.108 671.651 496.725C672.862 496.321 674.245 496.119 675.799 496.119C677.878 496.119 679.734 496.462 681.369 497.148C683.024 497.814 684.427 498.793 685.577 500.085C686.728 501.356 687.605 502.91 688.211 504.747C688.816 506.563 689.119 508.612 689.119 510.893C689.119 512.931 688.816 514.838 688.211 516.614C687.626 518.39 686.738 519.954 685.547 521.307C684.356 522.659 682.853 523.718 681.036 524.485C679.24 525.232 677.111 525.605 674.648 525.605C672.812 525.605 671.046 525.343 669.351 524.818C667.675 524.273 666.172 523.476 664.84 522.427C663.508 521.357 662.438 520.045 661.631 518.491C660.824 516.917 660.359 515.111 660.238 513.072H667.383C667.564 514.505 667.958 515.726 668.563 516.735C669.189 517.724 670.017 518.481 671.046 519.006C672.075 519.531 673.266 519.793 674.618 519.793C675.849 519.793 676.909 519.581 677.797 519.157C678.685 518.713 679.422 518.088 680.007 517.28C680.612 516.453 681.056 515.484 681.339 514.374C681.642 513.264 681.793 512.033 681.793 510.681C681.793 509.389 681.621 508.208 681.278 507.139C680.955 506.069 680.461 505.141 679.795 504.354C679.149 503.566 678.332 502.961 677.343 502.537C676.354 502.093 675.214 501.871 673.922 501.871C672.186 501.871 670.854 502.123 669.926 502.628C669.018 503.132 668.17 503.758 667.383 504.505Z" fill="#1C4670"/>
<path d="M206.503 361H86.911L68.0938 381.143V453.544C68.0938 496.287 102.698 530.95 145.445 530.95C187.535 530.95 222.514 496.996 222.514 453.544V381.143L206.503 361Z" fill="url(#paint0_linear_750_711)"/>
<path d="M126.703 474.625C120.896 474.625 116.404 472.997 113.227 469.742C110.076 466.487 108.5 461.799 108.5 455.68V424.664C108.5 418.206 109.997 413.258 112.992 409.82C116.013 406.357 120.583 404.625 126.703 404.625C132.849 404.625 137.419 406.357 140.414 409.82C143.409 413.258 144.906 418.206 144.906 424.664V455.68C144.906 461.799 143.331 466.487 140.18 469.742C137.029 472.997 132.536 474.625 126.703 474.625ZM126.703 461.969C127.771 461.969 128.604 461.487 129.203 460.523C129.802 459.56 130.102 458.479 130.102 457.281V423.336C130.102 421.721 129.919 420.315 129.555 419.117C129.216 417.893 128.266 417.281 126.703 417.281C125.141 417.281 124.177 417.893 123.812 419.117C123.474 420.315 123.305 421.721 123.305 423.336V457.281C123.305 458.479 123.604 459.56 124.203 460.523C124.828 461.487 125.661 461.969 126.703 461.969ZM148.891 474V470.719C148.891 467.307 149.411 464.247 150.453 461.539C151.521 458.805 152.888 456.279 154.555 453.961C156.221 451.617 157.979 449.326 159.828 447.086C161.625 444.898 163.331 442.659 164.945 440.367C166.586 438.049 167.914 435.549 168.93 432.867C169.971 430.159 170.492 427.125 170.492 423.766C170.492 422.151 170.245 420.771 169.75 419.625C169.281 418.453 168.292 417.867 166.781 417.867C164.49 417.867 163.344 419.911 163.344 424V432.398H148.891C148.865 431.799 148.826 431.122 148.773 430.367C148.747 429.612 148.734 428.883 148.734 428.18C148.734 423.232 149.255 419.039 150.297 415.602C151.339 412.138 153.174 409.508 155.805 407.711C158.461 405.888 162.185 404.977 166.977 404.977C172.68 404.977 177.107 406.578 180.258 409.781C183.435 412.984 185.023 417.555 185.023 423.492C185.023 427.529 184.503 431.07 183.461 434.117C182.419 437.138 181.039 439.898 179.32 442.398C177.602 444.872 175.714 447.346 173.656 449.82C172.198 451.565 170.779 453.349 169.398 455.172C168.044 456.995 166.846 458.948 165.805 461.031H184.555V474H148.891Z" fill="white"/>
<path d="M239.586 351H51.0938L68.1222 375.349H222.543L239.586 351Z" fill="url(#paint1_linear_750_711)"/>
<path d="M51.0625 351C41.5014 351 34.0156 358.754 34.0156 368.319V375.349H68.1093V368.319C68.1093 358.754 60.6272 351 51.0625 351Z" fill="url(#paint2_linear_750_711)"/>
<path d="M239.562 351C249.131 351 256.617 358.754 256.617 368.319V375.349H222.516V368.319C222.516 358.754 229.998 351 239.562 351Z" fill="url(#paint3_linear_750_711)"/>
<g filter="url(#filter1_d_750_711)">
<path fill-rule="evenodd" clip-rule="evenodd" d="M945.959 76C968.066 76 985.981 93.9339 985.959 116.041L985.799 270.146C985.776 292.221 967.874 310.105 945.799 310.105H818.055H74C51.9086 310.105 34 292.196 34 270.105V116C34 93.9086 51.9086 76 74 76H945.959Z" fill="white"/>
</g>
<path d="M508.447 170.922V215H500.849V170.922H508.447ZM526.43 190.206V196.23H506.51V190.206H526.43ZM528.942 170.922V176.977H506.51V170.922H528.942ZM532.212 198.985V198.289C532.212 195.928 532.555 193.738 533.241 191.72C533.927 189.681 534.916 187.915 536.208 186.422C537.52 184.908 539.114 183.738 540.991 182.91C542.888 182.062 545.028 181.639 547.409 181.639C549.811 181.639 551.95 182.062 553.827 182.91C555.724 183.738 557.329 184.908 558.641 186.422C559.952 187.915 560.951 189.681 561.638 191.72C562.324 193.738 562.667 195.928 562.667 198.289V198.985C562.667 201.347 562.324 203.536 561.638 205.555C560.951 207.573 559.952 209.339 558.641 210.853C557.329 212.346 555.734 213.517 553.857 214.364C551.98 215.192 549.851 215.605 547.47 215.605C545.068 215.605 542.919 215.192 541.021 214.364C539.145 213.517 537.55 212.346 536.238 210.853C534.926 209.339 533.927 207.573 533.241 205.555C532.555 203.536 532.212 201.347 532.212 198.985ZM539.508 198.289V198.985C539.508 200.459 539.659 201.851 539.962 203.163C540.265 204.475 540.739 205.625 541.385 206.614C542.031 207.603 542.858 208.38 543.867 208.945C544.876 209.51 546.077 209.793 547.47 209.793C548.822 209.793 549.993 209.51 550.981 208.945C551.991 208.38 552.818 207.603 553.464 206.614C554.11 205.625 554.584 204.475 554.887 203.163C555.21 201.851 555.371 200.459 555.371 198.985V198.289C555.371 196.836 555.21 195.464 554.887 194.172C554.584 192.86 554.1 191.7 553.434 190.69C552.788 189.681 551.96 188.894 550.951 188.329C549.962 187.744 548.782 187.451 547.409 187.451C546.037 187.451 544.846 187.744 543.837 188.329C542.848 188.894 542.031 189.681 541.385 190.69C540.739 191.7 540.265 192.86 539.962 194.172C539.659 195.464 539.508 196.836 539.508 198.289ZM576.108 188.48V215H568.812V182.244H575.775L576.108 188.48ZM586.129 182.032L586.068 188.813C585.624 188.733 585.14 188.672 584.615 188.632C584.111 188.591 583.606 188.571 583.102 188.571C581.85 188.571 580.75 188.753 579.802 189.116C578.853 189.459 578.056 189.964 577.41 190.63C576.785 191.276 576.3 192.063 575.957 192.991C575.614 193.92 575.412 194.959 575.352 196.109L573.687 196.23C573.687 194.172 573.888 192.265 574.292 190.509C574.696 188.753 575.301 187.209 576.108 185.877C576.936 184.545 577.965 183.506 579.196 182.759C580.448 182.012 581.891 181.639 583.525 181.639C583.969 181.639 584.444 181.679 584.948 181.76C585.473 181.84 585.867 181.931 586.129 182.032ZM597.996 188.904V215H590.7V182.244H597.572L597.996 188.904ZM596.815 197.411L594.333 197.381C594.333 195.12 594.616 193.032 595.181 191.114C595.746 189.197 596.573 187.532 597.663 186.119C598.753 184.686 600.105 183.586 601.72 182.819C603.354 182.032 605.242 181.639 607.381 181.639C608.874 181.639 610.237 181.861 611.468 182.305C612.719 182.729 613.799 183.405 614.707 184.333C615.635 185.261 616.342 186.452 616.826 187.905C617.331 189.358 617.583 191.114 617.583 193.173V215H610.287V193.809C610.287 192.214 610.045 190.963 609.561 190.055C609.096 189.146 608.42 188.501 607.532 188.117C606.664 187.714 605.625 187.512 604.414 187.512C603.042 187.512 601.871 187.774 600.902 188.299C599.954 188.824 599.177 189.54 598.571 190.448C597.966 191.356 597.522 192.406 597.239 193.597C596.957 194.787 596.815 196.059 596.815 197.411ZM617.129 195.474L613.708 196.23C613.708 194.253 613.98 192.386 614.525 190.63C615.09 188.854 615.908 187.3 616.978 185.968C618.067 184.616 619.41 183.556 621.004 182.789C622.598 182.022 624.425 181.639 626.483 181.639C628.159 181.639 629.652 181.871 630.964 182.335C632.296 182.779 633.426 183.485 634.354 184.454C635.283 185.423 635.989 186.684 636.474 188.238C636.958 189.772 637.2 191.629 637.2 193.809V215H629.874V193.778C629.874 192.123 629.632 190.842 629.147 189.934C628.683 189.025 628.017 188.4 627.149 188.057C626.282 187.693 625.242 187.512 624.031 187.512C622.901 187.512 621.902 187.724 621.034 188.147C620.187 188.551 619.47 189.126 618.885 189.873C618.299 190.6 617.855 191.437 617.553 192.386C617.27 193.334 617.129 194.364 617.129 195.474ZM689.271 209.188V215H659.724V210.005L674.073 194.354C675.647 192.577 676.889 191.044 677.797 189.752C678.705 188.46 679.341 187.3 679.704 186.271C680.088 185.221 680.279 184.202 680.279 183.213C680.279 181.82 680.017 180.599 679.492 179.55C678.988 178.48 678.241 177.643 677.252 177.037C676.263 176.411 675.062 176.099 673.649 176.099C672.015 176.099 670.642 176.452 669.532 177.158C668.422 177.865 667.585 178.843 667.02 180.095C666.454 181.326 666.172 182.739 666.172 184.333H658.876C658.876 181.77 659.461 179.429 660.632 177.31C661.802 175.17 663.498 173.475 665.718 172.224C667.938 170.952 670.612 170.316 673.74 170.316C676.687 170.316 679.189 170.811 681.248 171.8C683.307 172.789 684.871 174.191 685.94 176.008C687.03 177.824 687.575 179.974 687.575 182.456C687.575 183.828 687.353 185.191 686.909 186.543C686.465 187.895 685.829 189.247 685.002 190.6C684.195 191.932 683.236 193.274 682.126 194.626C681.016 195.958 679.795 197.31 678.463 198.683L668.927 209.188H689.271Z" fill="#1C4670"/>
<path d="M206.511 52H86.9188L68.1016 72.1433V144.547C68.1016 187.295 102.706 221.954 145.453 221.954C187.543 221.954 222.522 187.996 222.522 144.547V72.1433L206.511 52Z" fill="url(#paint4_linear_750_711)"/>
<path d="M130.75 161.625C124.943 161.625 120.451 159.997 117.273 156.742C114.122 153.487 112.547 148.799 112.547 142.68V111.664C112.547 105.206 114.044 100.258 117.039 96.8203C120.06 93.3568 124.63 91.625 130.75 91.625C136.896 91.625 141.466 93.3568 144.461 96.8203C147.456 100.258 148.953 105.206 148.953 111.664V142.68C148.953 148.799 147.378 153.487 144.227 156.742C141.076 159.997 136.583 161.625 130.75 161.625ZM130.75 148.969C131.818 148.969 132.651 148.487 133.25 147.523C133.849 146.56 134.148 145.479 134.148 144.281V110.336C134.148 108.721 133.966 107.315 133.602 106.117C133.263 104.893 132.312 104.281 130.75 104.281C129.188 104.281 128.224 104.893 127.859 106.117C127.521 107.315 127.352 108.721 127.352 110.336V144.281C127.352 145.479 127.651 146.56 128.25 147.523C128.875 148.487 129.708 148.969 130.75 148.969ZM160.008 161V108.031C159.07 109.151 157.781 110.062 156.141 110.766C154.5 111.443 152.951 111.781 151.492 111.781V100.805C152.872 100.596 154.357 100.154 155.945 99.4766C157.534 98.7734 159.005 97.8229 160.359 96.625C161.74 95.401 162.794 93.9297 163.523 92.2109H174.578V161H160.008Z" fill="white"/>
<path d="M239.586 52H51.0938L68.1222 76.3489H222.543L239.586 52Z" fill="url(#paint5_linear_750_711)"/>
<path d="M51.0625 52C41.5014 52 34.0156 59.7539 34.0156 69.3223V76.3489H68.1093V69.3223C68.1093 59.7539 60.6272 52 51.0625 52Z" fill="url(#paint6_linear_750_711)"/>
<path d="M239.562 52C249.131 52 256.617 59.7539 256.617 69.3223V76.3489H222.516V69.3223C222.516 59.7539 229.998 52 239.562 52Z" fill="url(#paint7_linear_750_711)"/>
<g filter="url(#filter2_d_750_711)">
<path fill-rule="evenodd" clip-rule="evenodd" d="M945.959 986C968.066 986 985.981 1003.93 985.959 1026.04L985.799 1180.15C985.776 1202.22 967.874 1220.11 945.799 1220.11H818.055H74C51.9086 1220.11 34 1202.2 34 1180.11V1026C34 1003.91 51.9086 986 74 986H945.959Z" fill="white"/>
</g>
<path d="M486.053 1087.92V1132H478.454V1087.92H486.053ZM504.035 1107.21V1113.23H484.115V1107.21H504.035ZM506.548 1087.92V1093.98H484.115V1087.92H506.548ZM509.817 1115.99V1115.29C509.817 1112.93 510.16 1110.74 510.847 1108.72C511.533 1106.68 512.522 1104.92 513.813 1103.42C515.125 1101.91 516.72 1100.74 518.597 1099.91C520.494 1099.06 522.633 1098.64 525.015 1098.64C527.416 1098.64 529.556 1099.06 531.433 1099.91C533.33 1100.74 534.934 1101.91 536.246 1103.42C537.558 1104.92 538.557 1106.68 539.243 1108.72C539.929 1110.74 540.272 1112.93 540.272 1115.29V1115.99C540.272 1118.35 539.929 1120.54 539.243 1122.55C538.557 1124.57 537.558 1126.34 536.246 1127.85C534.934 1129.35 533.34 1130.52 531.463 1131.36C529.586 1132.19 527.457 1132.61 525.075 1132.61C522.674 1132.61 520.524 1132.19 518.627 1131.36C516.75 1130.52 515.156 1129.35 513.844 1127.85C512.532 1126.34 511.533 1124.57 510.847 1122.55C510.16 1120.54 509.817 1118.35 509.817 1115.99ZM517.113 1115.29V1115.99C517.113 1117.46 517.265 1118.85 517.567 1120.16C517.87 1121.47 518.344 1122.63 518.99 1123.61C519.636 1124.6 520.464 1125.38 521.473 1125.95C522.482 1126.51 523.683 1126.79 525.075 1126.79C526.427 1126.79 527.598 1126.51 528.587 1125.95C529.596 1125.38 530.424 1124.6 531.069 1123.61C531.715 1122.63 532.189 1121.47 532.492 1120.16C532.815 1118.85 532.977 1117.46 532.977 1115.99V1115.29C532.977 1113.84 532.815 1112.46 532.492 1111.17C532.189 1109.86 531.705 1108.7 531.039 1107.69C530.393 1106.68 529.566 1105.89 528.557 1105.33C527.568 1104.74 526.387 1104.45 525.015 1104.45C523.642 1104.45 522.451 1104.74 521.442 1105.33C520.453 1105.89 519.636 1106.68 518.99 1107.69C518.344 1108.7 517.87 1109.86 517.567 1111.17C517.265 1112.46 517.113 1113.84 517.113 1115.29ZM553.714 1105.48V1132H546.418V1099.24H553.381L553.714 1105.48ZM563.734 1099.03L563.674 1105.81C563.23 1105.73 562.745 1105.67 562.221 1105.63C561.716 1105.59 561.212 1105.57 560.707 1105.57C559.456 1105.57 558.356 1105.75 557.407 1106.12C556.459 1106.46 555.661 1106.96 555.016 1107.63C554.39 1108.28 553.906 1109.06 553.562 1109.99C553.219 1110.92 553.018 1111.96 552.957 1113.11L551.292 1113.23C551.292 1111.17 551.494 1109.26 551.897 1107.51C552.301 1105.75 552.907 1104.21 553.714 1102.88C554.541 1101.54 555.571 1100.51 556.802 1099.76C558.053 1099.01 559.496 1098.64 561.131 1098.64C561.575 1098.64 562.049 1098.68 562.554 1098.76C563.078 1098.84 563.472 1098.93 563.734 1099.03ZM575.602 1105.9V1132H568.306V1099.24H575.178L575.602 1105.9ZM574.421 1114.41L571.938 1114.38C571.938 1112.12 572.221 1110.03 572.786 1108.11C573.351 1106.2 574.179 1104.53 575.269 1103.12C576.358 1101.69 577.711 1100.59 579.325 1099.82C580.96 1099.03 582.847 1098.64 584.986 1098.64C586.48 1098.64 587.842 1098.86 589.073 1099.3C590.325 1099.73 591.404 1100.4 592.312 1101.33C593.241 1102.26 593.947 1103.45 594.432 1104.91C594.936 1106.36 595.188 1108.11 595.188 1110.17V1132H587.893V1110.81C587.893 1109.21 587.65 1107.96 587.166 1107.05C586.702 1106.15 586.026 1105.5 585.138 1105.12C584.27 1104.71 583.23 1104.51 582.02 1104.51C580.647 1104.51 579.477 1104.77 578.508 1105.3C577.559 1105.82 576.782 1106.54 576.177 1107.45C575.571 1108.36 575.127 1109.41 574.845 1110.6C574.562 1111.79 574.421 1113.06 574.421 1114.41ZM594.734 1112.47L591.313 1113.23C591.313 1111.25 591.586 1109.39 592.131 1107.63C592.696 1105.85 593.513 1104.3 594.583 1102.97C595.673 1101.62 597.015 1100.56 598.609 1099.79C600.204 1099.02 602.03 1098.64 604.089 1098.64C605.764 1098.64 607.257 1098.87 608.569 1099.33C609.901 1099.78 611.032 1100.49 611.96 1101.45C612.888 1102.42 613.595 1103.68 614.079 1105.24C614.563 1106.77 614.806 1108.63 614.806 1110.81V1132H607.479V1110.78C607.479 1109.12 607.237 1107.84 606.753 1106.93C606.289 1106.03 605.623 1105.4 604.755 1105.06C603.887 1104.69 602.848 1104.51 601.637 1104.51C600.507 1104.51 599.507 1104.72 598.64 1105.15C597.792 1105.55 597.076 1106.13 596.49 1106.87C595.905 1107.6 595.461 1108.44 595.158 1109.39C594.876 1110.33 594.734 1111.36 594.734 1112.47ZM657.249 1087.77V1132H649.953V1096.43L639.146 1100.09V1094.07L656.371 1087.77H657.249ZM702.114 1126.19V1132H672.567V1127L686.917 1111.35C688.491 1109.58 689.732 1108.04 690.641 1106.75C691.549 1105.46 692.185 1104.3 692.548 1103.27C692.931 1102.22 693.123 1101.2 693.123 1100.21C693.123 1098.82 692.861 1097.6 692.336 1096.55C691.831 1095.48 691.085 1094.64 690.096 1094.04C689.107 1093.41 687.906 1093.1 686.493 1093.1C684.858 1093.1 683.486 1093.45 682.376 1094.16C681.266 1094.86 680.428 1095.84 679.863 1097.09C679.298 1098.33 679.016 1099.74 679.016 1101.33H671.72C671.72 1098.77 672.305 1096.43 673.476 1094.31C674.646 1092.17 676.341 1090.47 678.562 1089.22C680.782 1087.95 683.456 1087.32 686.584 1087.32C689.531 1087.32 692.033 1087.81 694.092 1088.8C696.15 1089.79 697.715 1091.19 698.784 1093.01C699.874 1094.82 700.419 1096.97 700.419 1099.46C700.419 1100.83 700.197 1102.19 699.753 1103.54C699.309 1104.9 698.673 1106.25 697.846 1107.6C697.038 1108.93 696.08 1110.27 694.97 1111.63C693.86 1112.96 692.639 1114.31 691.307 1115.68L681.771 1126.19H702.114ZM741.561 1093.79L728.392 1132H720.43L737.02 1087.92H742.105L741.561 1093.79ZM752.58 1132L739.381 1093.79L738.806 1087.92H743.922L760.572 1132H752.58ZM751.944 1115.65V1121.68H727.968V1115.65H751.944Z" fill="#1C4670"/>
<path d="M206.503 961H86.911L68.0938 981.143V1053.54C68.0938 1096.29 102.698 1130.95 145.445 1130.95C187.535 1130.95 222.514 1097 222.514 1053.54V981.143L206.503 961Z" fill="url(#paint8_linear_750_711)"/>
<path d="M125.703 1073.62C119.896 1073.62 115.404 1072 112.227 1068.74C109.076 1065.49 107.5 1060.8 107.5 1054.68V1023.66C107.5 1017.21 108.997 1012.26 111.992 1008.82C115.013 1005.36 119.583 1003.62 125.703 1003.62C131.849 1003.62 136.419 1005.36 139.414 1008.82C142.409 1012.26 143.906 1017.21 143.906 1023.66V1054.68C143.906 1060.8 142.331 1065.49 139.18 1068.74C136.029 1072 131.536 1073.62 125.703 1073.62ZM125.703 1060.97C126.771 1060.97 127.604 1060.49 128.203 1059.52C128.802 1058.56 129.102 1057.48 129.102 1056.28V1022.34C129.102 1020.72 128.919 1019.32 128.555 1018.12C128.216 1016.89 127.266 1016.28 125.703 1016.28C124.141 1016.28 123.177 1016.89 122.812 1018.12C122.474 1019.32 122.305 1020.72 122.305 1022.34V1056.28C122.305 1057.48 122.604 1058.56 123.203 1059.52C123.828 1060.49 124.661 1060.97 125.703 1060.97ZM166.562 1073.04V1062.14H146.172V1051.4L159.18 1004.21H180.586V1050.66H184.258V1062.14H180.586V1073.04H166.562ZM158.438 1050.66H166.562V1016.01L158.438 1050.66Z" fill="white"/>
<path d="M239.586 961H51.0938L68.1222 985.349H222.543L239.586 961Z" fill="url(#paint9_linear_750_711)"/>
<path d="M51.0625 961C41.5014 961 34.0156 968.754 34.0156 978.319V985.349H68.1093V978.319C68.1093 968.754 60.6272 961 51.0625 961Z" fill="url(#paint10_linear_750_711)"/>
<path d="M239.562 961C249.131 961 256.617 968.754 256.617 978.319V985.349H222.516V978.319C222.516 968.754 229.998 961 239.562 961Z" fill="url(#paint11_linear_750_711)"/>
<g filter="url(#filter3_d_750_711)">
<path fill-rule="evenodd" clip-rule="evenodd" d="M945.959 682C968.066 682 985.981 699.934 985.959 722.041L985.799 876.146C985.776 898.221 967.874 916.105 945.799 916.105H818.055H74C51.9086 916.105 34 898.196 34 876.105V722C34 699.909 51.9086 682 74 682H945.959Z" fill="white"/>
</g>
<path d="M206.511 667H86.9188L68.1016 687.143V759.547C68.1016 802.295 102.706 836.954 145.453 836.954C187.543 836.954 222.522 802.996 222.522 759.547V687.143L206.511 667Z" fill="url(#paint12_linear_750_711)"/>
<path d="M127.703 779.625C121.896 779.625 117.404 777.997 114.227 774.742C111.076 771.487 109.5 766.799 109.5 760.68V729.664C109.5 723.206 110.997 718.258 113.992 714.82C117.013 711.357 121.583 709.625 127.703 709.625C133.849 709.625 138.419 711.357 141.414 714.82C144.409 718.258 145.906 723.206 145.906 729.664V760.68C145.906 766.799 144.331 771.487 141.18 774.742C138.029 777.997 133.536 779.625 127.703 779.625ZM127.703 766.969C128.771 766.969 129.604 766.487 130.203 765.523C130.802 764.56 131.102 763.479 131.102 762.281V728.336C131.102 726.721 130.919 725.315 130.555 724.117C130.216 722.893 129.266 722.281 127.703 722.281C126.141 722.281 125.177 722.893 124.812 724.117C124.474 725.315 124.305 726.721 124.305 728.336V762.281C124.305 763.479 124.604 764.56 125.203 765.523C125.828 766.487 126.661 766.969 127.703 766.969ZM166.375 779.781C160.307 779.781 155.893 778.18 153.133 774.977C150.372 771.773 148.992 766.943 148.992 760.484V753.297H163.094V760.523C163.094 762.346 163.315 763.896 163.758 765.172C164.227 766.422 165.255 767.047 166.844 767.047C168.458 767.047 169.487 766.37 169.93 765.016C170.372 763.635 170.594 761.396 170.594 758.297V756.578C170.594 754.208 170.19 752.138 169.383 750.367C168.602 748.596 167.052 747.711 164.734 747.711C164.448 747.711 164.188 747.724 163.953 747.75C163.745 747.75 163.562 747.763 163.406 747.789V735.445C165.776 735.445 167.586 734.924 168.836 733.883C170.086 732.815 170.711 731.044 170.711 728.57C170.711 724.69 169.591 722.75 167.352 722.75C165.893 722.75 164.904 723.323 164.383 724.469C163.888 725.589 163.641 727.021 163.641 728.766V730.836H149.422C149.396 730.523 149.37 730.146 149.344 729.703C149.344 729.26 149.344 728.831 149.344 728.414C149.344 722.112 150.815 717.49 153.758 714.547C156.701 711.604 161.206 710.133 167.273 710.133C178.992 710.133 184.852 716.227 184.852 728.414C184.852 731.799 184.396 734.599 183.484 736.812C182.573 739 180.88 740.536 178.406 741.422C180.359 742.359 181.805 743.557 182.742 745.016C183.68 746.474 184.292 748.284 184.578 750.445C184.865 752.607 185.008 755.224 185.008 758.297C185.008 765.172 183.562 770.471 180.672 774.195C177.807 777.919 173.042 779.781 166.375 779.781Z" fill="white"/>
<path d="M239.586 657H51.0938L68.1222 681.349H222.543L239.586 657Z" fill="url(#paint13_linear_750_711)"/>
<path d="M51.0625 657C41.5014 657 34.0156 664.754 34.0156 674.322V681.349H68.1093V674.322C68.1093 664.754 60.6272 657 51.0625 657Z" fill="url(#paint14_linear_750_711)"/>
<path d="M239.562 657C249.131 657 256.617 664.754 256.617 674.322V681.349H222.516V674.322C222.516 664.754 229.998 657 239.562 657Z" fill="url(#paint15_linear_750_711)"/>
<g filter="url(#filter4_d_750_711)">
<path fill-rule="evenodd" clip-rule="evenodd" d="M945.959 1586C968.066 1586 985.981 1603.93 985.959 1626.04L985.799 1780.15C985.776 1802.22 967.874 1820.11 945.799 1820.11H818.055H74C51.9086 1820.11 34 1802.2 34 1780.11V1626C34 1603.91 51.9086 1586 74 1586H945.959Z" fill="white"/>
</g>
<path d="M487.892 1682.92V1727H480.293V1682.92H487.892ZM505.874 1702.21V1708.23H485.954V1702.21H505.874ZM508.387 1682.92V1688.98H485.954V1682.92H508.387ZM511.656 1710.99V1710.29C511.656 1707.93 511.999 1705.74 512.686 1703.72C513.372 1701.68 514.361 1699.92 515.652 1698.42C516.964 1696.91 518.559 1695.74 520.436 1694.91C522.333 1694.06 524.472 1693.64 526.854 1693.64C529.255 1693.64 531.395 1694.06 533.271 1694.91C535.169 1695.74 536.773 1696.91 538.085 1698.42C539.397 1699.92 540.396 1701.68 541.082 1703.72C541.768 1705.74 542.111 1707.93 542.111 1710.29V1710.99C542.111 1713.35 541.768 1715.54 541.082 1717.55C540.396 1719.57 539.397 1721.34 538.085 1722.85C536.773 1724.35 535.179 1725.52 533.302 1726.36C531.425 1727.19 529.296 1727.61 526.914 1727.61C524.512 1727.61 522.363 1727.19 520.466 1726.36C518.589 1725.52 516.994 1724.35 515.683 1722.85C514.371 1721.34 513.372 1719.57 512.686 1717.55C511.999 1715.54 511.656 1713.35 511.656 1710.99ZM518.952 1710.29V1710.99C518.952 1712.46 519.104 1713.85 519.406 1715.16C519.709 1716.47 520.183 1717.63 520.829 1718.61C521.475 1719.6 522.302 1720.38 523.312 1720.95C524.321 1721.51 525.521 1721.79 526.914 1721.79C528.266 1721.79 529.437 1721.51 530.426 1720.95C531.435 1720.38 532.262 1719.6 532.908 1718.61C533.554 1717.63 534.028 1716.47 534.331 1715.16C534.654 1713.85 534.815 1712.46 534.815 1710.99V1710.29C534.815 1708.84 534.654 1707.46 534.331 1706.17C534.028 1704.86 533.544 1703.7 532.878 1702.69C532.232 1701.68 531.405 1700.89 530.396 1700.33C529.407 1699.74 528.226 1699.45 526.854 1699.45C525.481 1699.45 524.29 1699.74 523.281 1700.33C522.292 1700.89 521.475 1701.68 520.829 1702.69C520.183 1703.7 519.709 1704.86 519.406 1706.17C519.104 1707.46 518.952 1708.84 518.952 1710.29ZM555.553 1700.48V1727H548.257V1694.24H555.22L555.553 1700.48ZM565.573 1694.03L565.513 1700.81C565.069 1700.73 564.584 1700.67 564.06 1700.63C563.555 1700.59 563.05 1700.57 562.546 1700.57C561.295 1700.57 560.195 1700.75 559.246 1701.12C558.298 1701.46 557.5 1701.96 556.854 1702.63C556.229 1703.28 555.744 1704.06 555.401 1704.99C555.058 1705.92 554.856 1706.96 554.796 1708.11L553.131 1708.23C553.131 1706.17 553.333 1704.26 553.736 1702.51C554.14 1700.75 554.745 1699.21 555.553 1697.88C556.38 1696.54 557.41 1695.51 558.641 1694.76C559.892 1694.01 561.335 1693.64 562.97 1693.64C563.414 1693.64 563.888 1693.68 564.393 1693.76C564.917 1693.84 565.311 1693.93 565.573 1694.03ZM577.44 1700.9V1727H570.145V1694.24H577.017L577.44 1700.9ZM576.26 1709.41L573.777 1709.38C573.777 1707.12 574.06 1705.03 574.625 1703.11C575.19 1701.2 576.018 1699.53 577.107 1698.12C578.197 1696.69 579.549 1695.59 581.164 1694.82C582.799 1694.03 584.686 1693.64 586.825 1693.64C588.319 1693.64 589.681 1693.86 590.912 1694.3C592.163 1694.73 593.243 1695.4 594.151 1696.33C595.08 1697.26 595.786 1698.45 596.271 1699.91C596.775 1701.36 597.027 1703.11 597.027 1705.17V1727H589.731V1705.81C589.731 1704.21 589.489 1702.96 589.005 1702.05C588.541 1701.15 587.865 1700.5 586.977 1700.12C586.109 1699.71 585.069 1699.51 583.858 1699.51C582.486 1699.51 581.315 1699.77 580.347 1700.3C579.398 1700.82 578.621 1701.54 578.016 1702.45C577.41 1703.36 576.966 1704.41 576.684 1705.6C576.401 1706.79 576.26 1708.06 576.26 1709.41ZM596.573 1707.47L593.152 1708.23C593.152 1706.25 593.425 1704.39 593.97 1702.63C594.535 1700.85 595.352 1699.3 596.422 1697.97C597.512 1696.62 598.854 1695.56 600.448 1694.79C602.043 1694.02 603.869 1693.64 605.928 1693.64C607.603 1693.64 609.096 1693.87 610.408 1694.33C611.74 1694.78 612.87 1695.49 613.799 1696.45C614.727 1697.42 615.434 1698.68 615.918 1700.24C616.402 1701.77 616.645 1703.63 616.645 1705.81V1727H609.318V1705.78C609.318 1704.12 609.076 1702.84 608.592 1701.93C608.128 1701.03 607.462 1700.4 606.594 1700.06C605.726 1699.69 604.687 1699.51 603.476 1699.51C602.345 1699.51 601.346 1699.72 600.479 1700.15C599.631 1700.55 598.914 1701.13 598.329 1701.87C597.744 1702.6 597.3 1703.44 596.997 1704.39C596.715 1705.33 596.573 1706.36 596.573 1707.47ZM661.207 1682.65H662.115V1688.61H661.601C658.997 1688.61 656.747 1689.02 654.85 1689.82C652.973 1690.63 651.429 1691.74 650.218 1693.15C649.007 1694.57 648.099 1696.22 647.493 1698.12C646.908 1700 646.615 1701.99 646.615 1704.11V1711.05C646.615 1712.8 646.807 1714.36 647.19 1715.71C647.574 1717.04 648.109 1718.16 648.795 1719.07C649.501 1719.96 650.309 1720.63 651.217 1721.1C652.125 1721.56 653.104 1721.79 654.153 1721.79C655.243 1721.79 656.232 1721.57 657.12 1721.13C658.008 1720.66 658.765 1720.03 659.391 1719.22C660.016 1718.41 660.491 1717.45 660.813 1716.34C661.136 1715.23 661.298 1714.02 661.298 1712.71C661.298 1711.46 661.136 1710.29 660.813 1709.2C660.511 1708.09 660.057 1707.12 659.451 1706.29C658.846 1705.45 658.089 1704.79 657.181 1704.33C656.293 1703.84 655.263 1703.6 654.093 1703.6C652.64 1703.6 651.318 1703.94 650.127 1704.63C648.956 1705.31 648.008 1706.21 647.281 1707.32C646.575 1708.41 646.191 1709.57 646.131 1710.8L643.346 1709.9C643.507 1708.02 643.921 1706.33 644.587 1704.84C645.273 1703.35 646.171 1702.07 647.281 1701.03C648.391 1699.98 649.673 1699.18 651.126 1698.63C652.599 1698.07 654.214 1697.79 655.97 1697.79C658.109 1697.79 659.966 1698.19 661.54 1699C663.114 1699.8 664.416 1700.9 665.445 1702.3C666.495 1703.67 667.272 1705.24 667.776 1707.02C668.301 1708.78 668.563 1710.61 668.563 1712.53C668.563 1714.65 668.241 1716.63 667.595 1718.46C666.949 1720.28 666 1721.87 664.749 1723.25C663.518 1724.62 662.014 1725.69 660.238 1726.46C658.482 1727.22 656.484 1727.61 654.244 1727.61C651.883 1727.61 649.774 1727.15 647.917 1726.24C646.08 1725.33 644.516 1724.08 643.225 1722.49C641.953 1720.89 640.984 1719.06 640.318 1716.98C639.652 1714.9 639.319 1712.7 639.319 1710.38V1707.35C639.319 1704 639.743 1700.84 640.591 1697.88C641.438 1694.89 642.74 1692.26 644.496 1689.98C646.272 1687.69 648.543 1685.91 651.308 1684.62C654.073 1683.31 657.372 1682.65 661.207 1682.65ZM692.722 1688.79L679.553 1727H671.591L688.181 1682.92H693.267L692.722 1688.79ZM703.741 1727L690.542 1688.79L689.967 1682.92H695.083L711.733 1727H703.741ZM703.105 1710.65V1716.68H679.129V1710.65H703.105Z" fill="#1C4670"/>
<path d="M206.503 1561H86.911L68.0938 1581.14V1653.54C68.0938 1696.29 102.698 1730.95 145.445 1730.95C187.535 1730.95 222.514 1697 222.514 1653.54V1581.14L206.503 1561Z" fill="url(#paint16_linear_750_711)"/>
<path d="M125.703 1673.62C119.896 1673.62 115.404 1672 112.227 1668.74C109.076 1665.49 107.5 1660.8 107.5 1654.68V1623.66C107.5 1617.21 108.997 1612.26 111.992 1608.82C115.013 1605.36 119.583 1603.62 125.703 1603.62C131.849 1603.62 136.419 1605.36 139.414 1608.82C142.409 1612.26 143.906 1617.21 143.906 1623.66V1654.68C143.906 1660.8 142.331 1665.49 139.18 1668.74C136.029 1672 131.536 1673.62 125.703 1673.62ZM125.703 1660.97C126.771 1660.97 127.604 1660.49 128.203 1659.52C128.802 1658.56 129.102 1657.48 129.102 1656.28V1622.34C129.102 1620.72 128.919 1619.32 128.555 1618.12C128.216 1616.89 127.266 1616.28 125.703 1616.28C124.141 1616.28 123.177 1616.89 122.812 1618.12C122.474 1619.32 122.305 1620.72 122.305 1622.34V1656.28C122.305 1657.48 122.604 1658.56 123.203 1659.52C123.828 1660.49 124.661 1660.97 125.703 1660.97ZM166.133 1673.62C161.367 1673.62 157.63 1672.82 154.922 1671.2C152.24 1669.56 150.339 1667.1 149.219 1663.82C148.125 1660.54 147.578 1656.45 147.578 1651.55V1632.96C147.578 1628.2 147.773 1623.99 148.164 1620.34C148.581 1616.7 149.427 1613.64 150.703 1611.16C151.979 1608.69 153.88 1606.82 156.406 1605.54C158.932 1604.26 162.305 1603.62 166.523 1603.62C169.414 1603.62 172.109 1604.13 174.609 1605.15C177.109 1606.14 179.128 1607.64 180.664 1609.64C182.201 1611.62 182.969 1614.11 182.969 1617.1V1624.52H169.727V1623.12C169.727 1621.97 169.661 1620.83 169.531 1619.68C169.427 1618.53 169.141 1617.58 168.672 1616.83C168.203 1616.07 167.409 1615.7 166.289 1615.7C164.753 1615.7 163.685 1616.12 163.086 1616.98C162.487 1617.82 162.188 1619.03 162.188 1620.62V1634.41C162.839 1633.18 163.815 1632.21 165.117 1631.48C166.419 1630.72 168.008 1630.34 169.883 1630.34C173.685 1630.34 176.602 1631.11 178.633 1632.65C180.69 1634.16 182.109 1636.42 182.891 1639.45C183.672 1642.47 184.062 1646.24 184.062 1650.77C184.062 1655.36 183.503 1659.37 182.383 1662.8C181.263 1666.22 179.388 1668.87 176.758 1670.77C174.154 1672.67 170.612 1673.62 166.133 1673.62ZM165.625 1660.97C167.24 1660.97 168.203 1660.29 168.516 1658.94C168.828 1657.56 168.984 1655.8 168.984 1653.66V1648.12C168.984 1644.37 167.93 1642.49 165.82 1642.49C163.398 1642.49 162.188 1644.12 162.188 1647.38V1655.89C162.188 1659.28 163.333 1660.97 165.625 1660.97Z" fill="white"/>
<path d="M239.586 1561H51.0938L68.1222 1585.35H222.543L239.586 1561Z" fill="url(#paint17_linear_750_711)"/>
<path d="M51.0625 1561C41.5014 1561 34.0156 1568.75 34.0156 1578.32V1585.35H68.1093V1578.32C68.1093 1568.75 60.6272 1561 51.0625 1561Z" fill="url(#paint18_linear_750_711)"/>
<path d="M239.562 1561C249.131 1561 256.617 1568.75 256.617 1578.32V1585.35H222.516V1578.32C222.516 1568.75 229.998 1561 239.562 1561Z" fill="url(#paint19_linear_750_711)"/>
<g filter="url(#filter5_d_750_711)">
<path fill-rule="evenodd" clip-rule="evenodd" d="M945.959 1290C968.066 1290 985.981 1307.93 985.959 1330.04L985.799 1484.15C985.776 1506.22 967.874 1524.1 945.799 1524.1H818.055H74C51.9086 1524.1 34 1506.2 34 1484.1V1330C34 1307.91 51.9086 1290 74 1290H945.959Z" fill="white"/>
</g>
<path d="M206.511 1267H86.9188L68.1016 1287.14V1359.55C68.1016 1402.29 102.706 1436.95 145.453 1436.95C187.543 1436.95 222.522 1403 222.522 1359.55V1287.14L206.511 1267Z" fill="url(#paint20_linear_750_711)"/>
<path d="M127.703 1379.62C121.896 1379.62 117.404 1378 114.227 1374.74C111.076 1371.49 109.5 1366.8 109.5 1360.68V1329.66C109.5 1323.21 110.997 1318.26 113.992 1314.82C117.013 1311.36 121.583 1309.62 127.703 1309.62C133.849 1309.62 138.419 1311.36 141.414 1314.82C144.409 1318.26 145.906 1323.21 145.906 1329.66V1360.68C145.906 1366.8 144.331 1371.49 141.18 1374.74C138.029 1378 133.536 1379.62 127.703 1379.62ZM127.703 1366.97C128.771 1366.97 129.604 1366.49 130.203 1365.52C130.802 1364.56 131.102 1363.48 131.102 1362.28V1328.34C131.102 1326.72 130.919 1325.32 130.555 1324.12C130.216 1322.89 129.266 1322.28 127.703 1322.28C126.141 1322.28 125.177 1322.89 124.812 1324.12C124.474 1325.32 124.305 1326.72 124.305 1328.34V1362.28C124.305 1363.48 124.604 1364.56 125.203 1365.52C125.828 1366.49 126.661 1366.97 127.703 1366.97ZM167.234 1379.98C161.948 1379.98 157.625 1378.67 154.266 1376.07C150.932 1373.44 149.266 1369.42 149.266 1364V1353.77H163.562V1359.66C163.562 1360.89 163.628 1362.07 163.758 1363.22C163.914 1364.36 164.253 1365.3 164.773 1366.03C165.294 1366.76 166.115 1367.12 167.234 1367.12C168.719 1367.12 169.695 1366.63 170.164 1365.64C170.633 1364.62 170.867 1363.34 170.867 1361.77V1348.26C170.867 1347.14 170.789 1346.03 170.633 1344.94C170.503 1343.84 170.19 1342.93 169.695 1342.2C169.201 1341.47 168.406 1341.11 167.312 1341.11C164.708 1341.11 163.406 1343 163.406 1346.77H150.789V1310.21H183.562V1323.1H163.836V1332.79C164.513 1331.96 165.424 1331.23 166.57 1330.6C167.742 1329.95 169.109 1329.62 170.672 1329.62C173.797 1329.62 176.336 1330.22 178.289 1331.42C180.268 1332.62 181.779 1334.29 182.82 1336.42C183.888 1338.56 184.617 1341.03 185.008 1343.84C185.424 1346.66 185.633 1349.68 185.633 1352.91C185.633 1357.05 185.411 1360.78 184.969 1364.12C184.552 1367.42 183.706 1370.26 182.43 1372.63C181.18 1375 179.331 1376.83 176.883 1378.1C174.461 1379.35 171.245 1379.98 167.234 1379.98Z" fill="white"/>
<path d="M239.586 1257H51.0938L68.1222 1281.35H222.543L239.586 1257Z" fill="url(#paint21_linear_750_711)"/>
<path d="M51.0625 1257C41.5014 1257 34.0156 1264.75 34.0156 1274.32V1281.35H68.1093V1274.32C68.1093 1264.75 60.6272 1257 51.0625 1257Z" fill="url(#paint22_linear_750_711)"/>
<path d="M239.562 1257C249.131 1257 256.617 1264.75 256.617 1274.32V1281.35H222.516V1274.32C222.516 1264.75 229.998 1257 239.562 1257Z" fill="url(#paint23_linear_750_711)"/>
<path d="M514.828 771.922V816H507.229V771.922H514.828ZM532.811 791.206V797.23H512.891V791.206H532.811ZM535.323 771.922V777.977H512.891V771.922H535.323ZM538.593 799.985V799.289C538.593 796.928 538.936 794.738 539.622 792.72C540.308 790.681 541.297 788.915 542.589 787.422C543.901 785.908 545.495 784.738 547.372 783.91C549.269 783.062 551.409 782.639 553.79 782.639C556.192 782.639 558.331 783.062 560.208 783.91C562.105 784.738 563.71 785.908 565.021 787.422C566.333 788.915 567.332 790.681 568.019 792.72C568.705 794.738 569.048 796.928 569.048 799.289V799.985C569.048 802.347 568.705 804.536 568.019 806.555C567.332 808.573 566.333 810.339 565.021 811.853C563.71 813.346 562.115 814.517 560.238 815.364C558.361 816.192 556.232 816.605 553.851 816.605C551.449 816.605 549.299 816.192 547.402 815.364C545.525 814.517 543.931 813.346 542.619 811.853C541.307 810.339 540.308 808.573 539.622 806.555C538.936 804.536 538.593 802.347 538.593 799.985ZM545.889 799.289V799.985C545.889 801.459 546.04 802.851 546.343 804.163C546.646 805.475 547.12 806.625 547.766 807.614C548.411 808.603 549.239 809.38 550.248 809.945C551.257 810.51 552.458 810.793 553.851 810.793C555.203 810.793 556.373 810.51 557.362 809.945C558.371 809.38 559.199 808.603 559.845 807.614C560.491 806.625 560.965 805.475 561.268 804.163C561.59 802.851 561.752 801.459 561.752 799.985V799.289C561.752 797.836 561.59 796.464 561.268 795.172C560.965 793.86 560.48 792.7 559.814 791.69C559.169 790.681 558.341 789.894 557.332 789.329C556.343 788.744 555.162 788.451 553.79 788.451C552.418 788.451 551.227 788.744 550.218 789.329C549.229 789.894 548.411 790.681 547.766 791.69C547.12 792.7 546.646 793.86 546.343 795.172C546.04 796.464 545.889 797.836 545.889 799.289ZM582.489 789.48V816H575.193V783.244H582.156L582.489 789.48ZM592.51 783.032L592.449 789.813C592.005 789.733 591.521 789.672 590.996 789.632C590.492 789.591 589.987 789.571 589.482 789.571C588.231 789.571 587.131 789.753 586.183 790.116C585.234 790.459 584.437 790.964 583.791 791.63C583.165 792.276 582.681 793.063 582.338 793.991C581.995 794.92 581.793 795.959 581.732 797.109L580.067 797.23C580.067 795.172 580.269 793.265 580.673 791.509C581.076 789.753 581.682 788.209 582.489 786.877C583.317 785.545 584.346 784.506 585.577 783.759C586.828 783.012 588.271 782.639 589.906 782.639C590.35 782.639 590.825 782.679 591.329 782.76C591.854 782.84 592.247 782.931 592.51 783.032ZM604.377 789.904V816H597.081V783.244H603.953L604.377 789.904ZM603.196 798.411L600.714 798.381C600.714 796.12 600.996 794.032 601.562 792.114C602.127 790.197 602.954 788.532 604.044 787.119C605.134 785.686 606.486 784.586 608.101 783.819C609.735 783.032 611.622 782.639 613.762 782.639C615.255 782.639 616.618 782.861 617.849 783.305C619.1 783.729 620.18 784.405 621.088 785.333C622.016 786.261 622.723 787.452 623.207 788.905C623.712 790.358 623.964 792.114 623.964 794.173V816H616.668V794.809C616.668 793.214 616.426 791.963 615.941 791.055C615.477 790.146 614.801 789.501 613.913 789.117C613.045 788.714 612.006 788.512 610.795 788.512C609.423 788.512 608.252 788.774 607.283 789.299C606.335 789.824 605.558 790.54 604.952 791.448C604.347 792.356 603.903 793.406 603.62 794.597C603.338 795.787 603.196 797.059 603.196 798.411ZM623.51 796.474L620.089 797.23C620.089 795.253 620.361 793.386 620.906 791.63C621.471 789.854 622.289 788.3 623.358 786.968C624.448 785.616 625.79 784.556 627.385 783.789C628.979 783.022 630.806 782.639 632.864 782.639C634.539 782.639 636.033 782.871 637.345 783.335C638.677 783.779 639.807 784.485 640.735 785.454C641.664 786.423 642.37 787.684 642.854 789.238C643.339 790.772 643.581 792.629 643.581 794.809V816H636.255V794.778C636.255 793.123 636.013 791.842 635.528 790.934C635.064 790.025 634.398 789.4 633.53 789.057C632.662 788.693 631.623 788.512 630.412 788.512C629.282 788.512 628.283 788.724 627.415 789.147C626.567 789.551 625.851 790.126 625.266 790.873C624.68 791.6 624.236 792.437 623.934 793.386C623.651 794.334 623.51 795.364 623.51 796.474ZM686.024 771.771V816H678.729V780.429L667.921 784.092V778.067L685.146 771.771H686.024ZM730.072 790.268V797.473C730.072 800.924 729.729 803.87 729.043 806.312C728.377 808.734 727.408 810.702 726.137 812.216C724.865 813.729 723.341 814.84 721.565 815.546C719.81 816.252 717.842 816.605 715.662 816.605C713.926 816.605 712.312 816.383 710.818 815.939C709.345 815.495 708.013 814.799 706.822 813.851C705.632 812.902 704.612 811.681 703.765 810.188C702.937 808.674 702.291 806.868 701.827 804.769C701.383 802.67 701.161 800.238 701.161 797.473V790.268C701.161 786.796 701.504 783.87 702.19 781.488C702.877 779.087 703.855 777.139 705.127 775.646C706.398 774.132 707.912 773.032 709.668 772.346C711.444 771.66 713.422 771.316 715.602 771.316C717.357 771.316 718.972 771.538 720.445 771.982C721.939 772.406 723.271 773.082 724.441 774.011C725.632 774.939 726.641 776.15 727.469 777.644C728.316 779.117 728.962 780.903 729.406 783.002C729.85 785.081 730.072 787.503 730.072 790.268ZM722.776 798.502V789.178C722.776 787.422 722.675 785.878 722.474 784.546C722.272 783.194 721.969 782.053 721.565 781.125C721.182 780.176 720.698 779.41 720.112 778.824C719.527 778.219 718.861 777.785 718.114 777.522C717.368 777.24 716.53 777.099 715.602 777.099C714.471 777.099 713.462 777.321 712.574 777.765C711.686 778.188 710.939 778.875 710.334 779.823C709.729 780.772 709.264 782.023 708.941 783.577C708.639 785.111 708.487 786.978 708.487 789.178V798.502C708.487 800.278 708.588 801.842 708.79 803.194C708.992 804.547 709.295 805.707 709.698 806.676C710.102 807.624 710.586 808.411 711.151 809.037C711.737 809.643 712.403 810.087 713.149 810.369C713.916 810.652 714.754 810.793 715.662 810.793C716.812 810.793 717.832 810.571 718.72 810.127C719.608 809.683 720.354 808.977 720.96 808.008C721.565 807.019 722.02 805.737 722.322 804.163C722.625 802.589 722.776 800.702 722.776 798.502Z" fill="#1C4670"/>
<path d="M487.892 1387.92V1432H480.293V1387.92H487.892ZM505.874 1407.21V1413.23H485.954V1407.21H505.874ZM508.387 1387.92V1393.98H485.954V1387.92H508.387ZM511.656 1415.99V1415.29C511.656 1412.93 511.999 1410.74 512.686 1408.72C513.372 1406.68 514.361 1404.92 515.652 1403.42C516.964 1401.91 518.559 1400.74 520.436 1399.91C522.333 1399.06 524.472 1398.64 526.854 1398.64C529.255 1398.64 531.395 1399.06 533.271 1399.91C535.169 1400.74 536.773 1401.91 538.085 1403.42C539.397 1404.92 540.396 1406.68 541.082 1408.72C541.768 1410.74 542.111 1412.93 542.111 1415.29V1415.99C542.111 1418.35 541.768 1420.54 541.082 1422.55C540.396 1424.57 539.397 1426.34 538.085 1427.85C536.773 1429.35 535.179 1430.52 533.302 1431.36C531.425 1432.19 529.296 1432.61 526.914 1432.61C524.512 1432.61 522.363 1432.19 520.466 1431.36C518.589 1430.52 516.994 1429.35 515.683 1427.85C514.371 1426.34 513.372 1424.57 512.686 1422.55C511.999 1420.54 511.656 1418.35 511.656 1415.99ZM518.952 1415.29V1415.99C518.952 1417.46 519.104 1418.85 519.406 1420.16C519.709 1421.47 520.183 1422.63 520.829 1423.61C521.475 1424.6 522.302 1425.38 523.312 1425.95C524.321 1426.51 525.521 1426.79 526.914 1426.79C528.266 1426.79 529.437 1426.51 530.426 1425.95C531.435 1425.38 532.262 1424.6 532.908 1423.61C533.554 1422.63 534.028 1421.47 534.331 1420.16C534.654 1418.85 534.815 1417.46 534.815 1415.99V1415.29C534.815 1413.84 534.654 1412.46 534.331 1411.17C534.028 1409.86 533.544 1408.7 532.878 1407.69C532.232 1406.68 531.405 1405.89 530.396 1405.33C529.407 1404.74 528.226 1404.45 526.854 1404.45C525.481 1404.45 524.29 1404.74 523.281 1405.33C522.292 1405.89 521.475 1406.68 520.829 1407.69C520.183 1408.7 519.709 1409.86 519.406 1411.17C519.104 1412.46 518.952 1413.84 518.952 1415.29ZM555.553 1405.48V1432H548.257V1399.24H555.22L555.553 1405.48ZM565.573 1399.03L565.513 1405.81C565.069 1405.73 564.584 1405.67 564.06 1405.63C563.555 1405.59 563.05 1405.57 562.546 1405.57C561.295 1405.57 560.195 1405.75 559.246 1406.12C558.298 1406.46 557.5 1406.96 556.854 1407.63C556.229 1408.28 555.744 1409.06 555.401 1409.99C555.058 1410.92 554.856 1411.96 554.796 1413.11L553.131 1413.23C553.131 1411.17 553.333 1409.26 553.736 1407.51C554.14 1405.75 554.745 1404.21 555.553 1402.88C556.38 1401.54 557.41 1400.51 558.641 1399.76C559.892 1399.01 561.335 1398.64 562.97 1398.64C563.414 1398.64 563.888 1398.68 564.393 1398.76C564.917 1398.84 565.311 1398.93 565.573 1399.03ZM577.44 1405.9V1432H570.145V1399.24H577.017L577.44 1405.9ZM576.26 1414.41L573.777 1414.38C573.777 1412.12 574.06 1410.03 574.625 1408.11C575.19 1406.2 576.018 1404.53 577.107 1403.12C578.197 1401.69 579.549 1400.59 581.164 1399.82C582.799 1399.03 584.686 1398.64 586.825 1398.64C588.319 1398.64 589.681 1398.86 590.912 1399.3C592.163 1399.73 593.243 1400.4 594.151 1401.33C595.08 1402.26 595.786 1403.45 596.271 1404.91C596.775 1406.36 597.027 1408.11 597.027 1410.17V1432H589.731V1410.81C589.731 1409.21 589.489 1407.96 589.005 1407.05C588.541 1406.15 587.865 1405.5 586.977 1405.12C586.109 1404.71 585.069 1404.51 583.858 1404.51C582.486 1404.51 581.315 1404.77 580.347 1405.3C579.398 1405.82 578.621 1406.54 578.016 1407.45C577.41 1408.36 576.966 1409.41 576.684 1410.6C576.401 1411.79 576.26 1413.06 576.26 1414.41ZM596.573 1412.47L593.152 1413.23C593.152 1411.25 593.425 1409.39 593.97 1407.63C594.535 1405.85 595.352 1404.3 596.422 1402.97C597.512 1401.62 598.854 1400.56 600.448 1399.79C602.043 1399.02 603.869 1398.64 605.928 1398.64C607.603 1398.64 609.096 1398.87 610.408 1399.33C611.74 1399.78 612.87 1400.49 613.799 1401.45C614.727 1402.42 615.434 1403.68 615.918 1405.24C616.402 1406.77 616.645 1408.63 616.645 1410.81V1432H609.318V1410.78C609.318 1409.12 609.076 1407.84 608.592 1406.93C608.128 1406.03 607.462 1405.4 606.594 1405.06C605.726 1404.69 604.687 1404.51 603.476 1404.51C602.345 1404.51 601.346 1404.72 600.479 1405.15C599.631 1405.55 598.914 1406.13 598.329 1406.87C597.744 1407.6 597.3 1408.44 596.997 1409.39C596.715 1410.33 596.573 1411.36 596.573 1412.47ZM647.735 1406.66H652.095C653.79 1406.66 655.193 1406.37 656.303 1405.78C657.433 1405.2 658.271 1404.39 658.815 1403.36C659.36 1402.33 659.633 1401.15 659.633 1399.82C659.633 1398.43 659.381 1397.24 658.876 1396.25C658.392 1395.24 657.645 1394.46 656.636 1393.92C655.647 1393.37 654.385 1393.1 652.852 1393.1C651.56 1393.1 650.389 1393.36 649.34 1393.89C648.311 1394.39 647.493 1395.12 646.888 1396.07C646.282 1396.99 645.979 1398.1 645.979 1399.4H638.653C638.653 1397.05 639.269 1394.98 640.5 1393.16C641.731 1391.34 643.406 1389.92 645.525 1388.89C647.665 1387.84 650.066 1387.32 652.73 1387.32C655.576 1387.32 658.059 1387.79 660.178 1388.74C662.317 1389.67 663.982 1391.06 665.173 1392.92C666.364 1394.77 666.959 1397.07 666.959 1399.82C666.959 1401.07 666.666 1402.34 666.081 1403.63C665.496 1404.93 664.628 1406.11 663.478 1407.18C662.327 1408.23 660.894 1409.08 659.179 1409.75C657.463 1410.39 655.475 1410.72 653.215 1410.72H647.735V1406.66ZM647.735 1412.35V1408.36H653.215C655.798 1408.36 657.998 1408.66 659.814 1409.26C661.651 1409.87 663.145 1410.71 664.295 1411.78C665.445 1412.83 666.283 1414.03 666.808 1415.38C667.353 1416.73 667.625 1418.17 667.625 1419.68C667.625 1421.74 667.252 1423.57 666.505 1425.19C665.778 1426.78 664.739 1428.14 663.387 1429.25C662.035 1430.36 660.45 1431.19 658.634 1431.76C656.838 1432.32 654.88 1432.61 652.761 1432.61C650.864 1432.61 649.047 1432.34 647.312 1431.82C645.576 1431.29 644.022 1430.52 642.649 1429.49C641.277 1428.44 640.187 1427.14 639.38 1425.58C638.593 1424.01 638.199 1422.19 638.199 1420.13H645.495C645.495 1421.44 645.798 1422.61 646.403 1423.61C647.029 1424.6 647.897 1425.38 649.007 1425.95C650.137 1426.51 651.429 1426.79 652.882 1426.79C654.416 1426.79 655.738 1426.52 656.848 1425.98C657.958 1425.43 658.805 1424.62 659.391 1423.55C659.996 1422.48 660.299 1421.19 660.299 1419.68C660.299 1417.96 659.966 1416.57 659.3 1415.5C658.634 1414.43 657.685 1413.64 656.454 1413.14C655.223 1412.61 653.77 1412.35 652.095 1412.35H647.735ZM692.722 1393.79L679.553 1432H671.591L688.181 1387.92H693.267L692.722 1393.79ZM703.741 1432L690.542 1393.79L689.967 1387.92H695.083L711.733 1432H703.741ZM703.105 1415.65V1421.68H679.129V1415.65H703.105Z" fill="#1C4670"/>
<defs>
<filter id="filter0_d_750_711" x="30" y="386" width="959.961" height="242.109" filterUnits="userSpaceOnUse" color-interpolation-filters="sRGB">
<feFlood flood-opacity="0" result="BackgroundImageFix"/>
<feColorMatrix in="SourceAlpha" type="matrix" values="0 0 0 0 0 0 0 0 0 0 0 0 0 0 0 0 0 0 127 0" result="hardAlpha"/>
<feOffset dy="4"/>
<feGaussianBlur stdDeviation="2"/>
<feComposite in2="hardAlpha" operator="out"/>
<feColorMatrix type="matrix" values="0 0 0 0 0 0 0 0 0 0 0 0 0 0 0 0 0 0 0.25 0"/>
<feBlend mode="normal" in2="BackgroundImageFix" result="effect1_dropShadow_750_711"/>
<feBlend mode="normal" in="SourceGraphic" in2="effect1_dropShadow_750_711" result="shape"/>
</filter>
<filter id="filter1_d_750_711" x="30" y="76" width="959.961" height="242.102" filterUnits="userSpaceOnUse" color-interpolation-filters="sRGB">
<feFlood flood-opacity="0" result="BackgroundImageFix"/>
<feColorMatrix in="SourceAlpha" type="matrix" values="0 0 0 0 0 0 0 0 0 0 0 0 0 0 0 0 0 0 127 0" result="hardAlpha"/>
<feOffset dy="4"/>
<feGaussianBlur stdDeviation="2"/>
<feComposite in2="hardAlpha" operator="out"/>
<feColorMatrix type="matrix" values="0 0 0 0 0 0 0 0 0 0 0 0 0 0 0 0 0 0 0.25 0"/>
<feBlend mode="normal" in2="BackgroundImageFix" result="effect1_dropShadow_750_711"/>
<feBlend mode="normal" in="SourceGraphic" in2="effect1_dropShadow_750_711" result="shape"/>
</filter>
<filter id="filter2_d_750_711" x="30" y="986" width="959.961" height="242.109" filterUnits="userSpaceOnUse" color-interpolation-filters="sRGB">
<feFlood flood-opacity="0" result="BackgroundImageFix"/>
<feColorMatrix in="SourceAlpha" type="matrix" values="0 0 0 0 0 0 0 0 0 0 0 0 0 0 0 0 0 0 127 0" result="hardAlpha"/>
<feOffset dy="4"/>
<feGaussianBlur stdDeviation="2"/>
<feComposite in2="hardAlpha" operator="out"/>
<feColorMatrix type="matrix" values="0 0 0 0 0 0 0 0 0 0 0 0 0 0 0 0 0 0 0.25 0"/>
<feBlend mode="normal" in2="BackgroundImageFix" result="effect1_dropShadow_750_711"/>
<feBlend mode="normal" in="SourceGraphic" in2="effect1_dropShadow_750_711" result="shape"/>
</filter>
<filter id="filter3_d_750_711" x="30" y="682" width="959.961" height="242.102" filterUnits="userSpaceOnUse" color-interpolation-filters="sRGB">
<feFlood flood-opacity="0" result="BackgroundImageFix"/>
<feColorMatrix in="SourceAlpha" type="matrix" values="0 0 0 0 0 0 0 0 0 0 0 0 0 0 0 0 0 0 127 0" result="hardAlpha"/>
<feOffset dy="4"/>
<feGaussianBlur stdDeviation="2"/>
<feComposite in2="hardAlpha" operator="out"/>
<feColorMatrix type="matrix" values="0 0 0 0 0 0 0 0 0 0 0 0 0 0 0 0 0 0 0.25 0"/>
<feBlend mode="normal" in2="BackgroundImageFix" result="effect1_dropShadow_750_711"/>
<feBlend mode="normal" in="SourceGraphic" in2="effect1_dropShadow_750_711" result="shape"/>
</filter>
<filter id="filter4_d_750_711" x="30" y="1586" width="959.961" height="242.109" filterUnits="userSpaceOnUse" color-interpolation-filters="sRGB">
<feFlood flood-opacity="0" result="BackgroundImageFix"/>
<feColorMatrix in="SourceAlpha" type="matrix" values="0 0 0 0 0 0 0 0 0 0 0 0 0 0 0 0 0 0 127 0" result="hardAlpha"/>
<feOffset dy="4"/>
<feGaussianBlur stdDeviation="2"/>
<feComposite in2="hardAlpha" operator="out"/>
<feColorMatrix type="matrix" values="0 0 0 0 0 0 0 0 0 0 0 0 0 0 0 0 0 0 0.25 0"/>
<feBlend mode="normal" in2="BackgroundImageFix" result="effect1_dropShadow_750_711"/>
<feBlend mode="normal" in="SourceGraphic" in2="effect1_dropShadow_750_711" result="shape"/>
</filter>
<filter id="filter5_d_750_711" x="30" y="1290" width="959.961" height="242.102" filterUnits="userSpaceOnUse" color-interpolation-filters="sRGB">
<feFlood flood-opacity="0" result="BackgroundImageFix"/>
<feColorMatrix in="SourceAlpha" type="matrix" values="0 0 0 0 0 0 0 0 0 0 0 0 0 0 0 0 0 0 127 0" result="hardAlpha"/>
<feOffset dy="4"/>
<feGaussianBlur stdDeviation="2"/>
<feComposite in2="hardAlpha" operator="out"/>
<feColorMatrix type="matrix" values="0 0 0 0 0 0 0 0 0 0 0 0 0 0 0 0 0 0 0.25 0"/>
<feBlend mode="normal" in2="BackgroundImageFix" result="effect1_dropShadow_750_711"/>
<feBlend mode="normal" in="SourceGraphic" in2="effect1_dropShadow_750_711" result="shape"/>
</filter>
<linearGradient id="paint0_linear_750_711" x1="68.0952" y1="445.976" x2="222.516" y2="445.976" gradientUnits="userSpaceOnUse">
<stop stop-color="#229CB4"/>
<stop offset="1" stop-color="#5ED8F0"/>
</linearGradient>
<linearGradient id="paint1_linear_750_711" x1="51.0945" y1="363.174" x2="239.586" y2="363.174" gradientUnits="userSpaceOnUse">
<stop stop-color="#229CB4"/>
<stop offset="1" stop-color="#5ED8F0"/>
</linearGradient>
<linearGradient id="paint2_linear_750_711" x1="34.0164" y1="363.174" x2="68.1107" y2="363.174" gradientUnits="userSpaceOnUse">
<stop stop-color="#01819A"/>
<stop offset="1" stop-color="#3DBDD6"/>
</linearGradient>
<linearGradient id="paint3_linear_750_711" x1="222.517" y1="363.174" x2="256.619" y2="363.174" gradientUnits="userSpaceOnUse">
<stop stop-color="#01819A"/>
<stop offset="1" stop-color="#3DBDD6"/>
</linearGradient>
<linearGradient id="paint4_linear_750_711" x1="68.103" y1="136.978" x2="222.524" y2="136.978" gradientUnits="userSpaceOnUse">
<stop stop-color="#E19000"/>
<stop offset="1" stop-color="#FFCC1E"/>
</linearGradient>
<linearGradient id="paint5_linear_750_711" x1="51.0945" y1="64.1745" x2="239.586" y2="64.1745" gradientUnits="userSpaceOnUse">
<stop stop-color="#E19000"/>
<stop offset="1" stop-color="#FFCC1E"/>
</linearGradient>
<linearGradient id="paint6_linear_750_711" x1="34.0164" y1="64.1745" x2="68.1107" y2="64.1745" gradientUnits="userSpaceOnUse">
<stop stop-color="#E15E00"/>
<stop offset="1" stop-color="#FF9A1E"/>
</linearGradient>
<linearGradient id="paint7_linear_750_711" x1="222.517" y1="64.1745" x2="256.619" y2="64.1745" gradientUnits="userSpaceOnUse">
<stop stop-color="#E15E00"/>
<stop offset="1" stop-color="#FF9A1E"/>
</linearGradient>
<linearGradient id="paint8_linear_750_711" x1="68.0952" y1="1045.98" x2="222.516" y2="1045.98" gradientUnits="userSpaceOnUse">
<stop stop-color="#229CB4"/>
<stop offset="1" stop-color="#5ED8F0"/>
</linearGradient>
<linearGradient id="paint9_linear_750_711" x1="51.0945" y1="973.174" x2="239.586" y2="973.174" gradientUnits="userSpaceOnUse">
<stop stop-color="#229CB4"/>
<stop offset="1" stop-color="#5ED8F0"/>
</linearGradient>
<linearGradient id="paint10_linear_750_711" x1="34.0164" y1="973.174" x2="68.1107" y2="973.174" gradientUnits="userSpaceOnUse">
<stop stop-color="#01819A"/>
<stop offset="1" stop-color="#3DBDD6"/>
</linearGradient>
<linearGradient id="paint11_linear_750_711" x1="222.517" y1="973.174" x2="256.619" y2="973.174" gradientUnits="userSpaceOnUse">
<stop stop-color="#01819A"/>
<stop offset="1" stop-color="#3DBDD6"/>
</linearGradient>
<linearGradient id="paint12_linear_750_711" x1="68.103" y1="751.978" x2="222.524" y2="751.978" gradientUnits="userSpaceOnUse">
<stop stop-color="#E19000"/>
<stop offset="1" stop-color="#FFCC1E"/>
</linearGradient>
<linearGradient id="paint13_linear_750_711" x1="51.0945" y1="669.174" x2="239.586" y2="669.174" gradientUnits="userSpaceOnUse">
<stop stop-color="#E19000"/>
<stop offset="1" stop-color="#FFCC1E"/>
</linearGradient>
<linearGradient id="paint14_linear_750_711" x1="34.0164" y1="669.174" x2="68.1107" y2="669.174" gradientUnits="userSpaceOnUse">
<stop stop-color="#E15E00"/>
<stop offset="1" stop-color="#FF9A1E"/>
</linearGradient>
<linearGradient id="paint15_linear_750_711" x1="222.517" y1="669.174" x2="256.619" y2="669.174" gradientUnits="userSpaceOnUse">
<stop stop-color="#E15E00"/>
<stop offset="1" stop-color="#FF9A1E"/>
</linearGradient>
<linearGradient id="paint16_linear_750_711" x1="68.0952" y1="1645.98" x2="222.516" y2="1645.98" gradientUnits="userSpaceOnUse">
<stop stop-color="#229CB4"/>
<stop offset="1" stop-color="#5ED8F0"/>
</linearGradient>
<linearGradient id="paint17_linear_750_711" x1="51.0945" y1="1573.17" x2="239.586" y2="1573.17" gradientUnits="userSpaceOnUse">
<stop stop-color="#229CB4"/>
<stop offset="1" stop-color="#5ED8F0"/>
</linearGradient>
<linearGradient id="paint18_linear_750_711" x1="34.0164" y1="1573.17" x2="68.1107" y2="1573.17" gradientUnits="userSpaceOnUse">
<stop stop-color="#01819A"/>
<stop offset="1" stop-color="#3DBDD6"/>
</linearGradient>
<linearGradient id="paint19_linear_750_711" x1="222.517" y1="1573.17" x2="256.619" y2="1573.17" gradientUnits="userSpaceOnUse">
<stop stop-color="#01819A"/>
<stop offset="1" stop-color="#3DBDD6"/>
</linearGradient>
<linearGradient id="paint20_linear_750_711" x1="68.103" y1="1351.98" x2="222.524" y2="1351.98" gradientUnits="userSpaceOnUse">
<stop stop-color="#E19000"/>
<stop offset="1" stop-color="#FFCC1E"/>
</linearGradient>
<linearGradient id="paint21_linear_750_711" x1="51.0945" y1="1269.17" x2="239.586" y2="1269.17" gradientUnits="userSpaceOnUse">
<stop stop-color="#E19000"/>
<stop offset="1" stop-color="#FFCC1E"/>
</linearGradient>
<linearGradient id="paint22_linear_750_711" x1="34.0164" y1="1269.17" x2="68.1107" y2="1269.17" gradientUnits="userSpaceOnUse">
<stop stop-color="#E15E00"/>
<stop offset="1" stop-color="#FF9A1E"/>
</linearGradient>
<linearGradient id="paint23_linear_750_711" x1="222.517" y1="1269.17" x2="256.619" y2="1269.17" gradientUnits="userSpaceOnUse">
<stop stop-color="#E15E00"/>
<stop offset="1" stop-color="#FF9A1E"/>
</linearGradient>
</defs>
</svg>
