<svg width="1000" height="823" viewBox="0 0 1000 823" fill="none" xmlns="http://www.w3.org/2000/svg">
<g clip-path="url(#clip0_744_640)">
<rect width="1000" height="823" fill="#EDE3E3"/>
<g filter="url(#filter0_d_744_640)">
<path fill-rule="evenodd" clip-rule="evenodd" d="M50.6068 612C36.2332 612 24.5867 623.663 24.6068 638.036L24.7779 760.036C24.798 774.382 36.4327 786 50.7779 786H192.697H951.597C965.957 786 977.597 774.359 977.597 760V638C977.597 623.641 965.957 612 951.597 612H50.6068Z" fill="white"/>
</g>
<path d="M944.227 619.603C949.649 614.508 946.04 605.406 938.6 605.406C931.868 605.406 926.141 605.406 926.314 605.406H814.271C804.468 605.406 796.328 610.488 796.328 617.034C796.328 647.008 796.328 693.264 796.328 722.417C796.328 731.033 806.985 738.036 819.891 738.036H918.225C931.123 738.036 941.638 731.033 941.638 722.417C941.638 697.283 941.638 645.115 941.638 625.582C941.638 623.315 942.575 621.155 944.227 619.603V619.603Z" fill="url(#paint0_linear_744_640)"/>
<path d="M845.773 707.367C839.966 707.367 835.474 705.74 832.297 702.484C829.146 699.229 827.57 694.542 827.57 688.422V657.406C827.57 650.948 829.068 646 832.062 642.562C835.083 639.099 839.654 637.367 845.773 637.367C851.919 637.367 856.49 639.099 859.484 642.562C862.479 646 863.977 650.948 863.977 657.406V688.422C863.977 694.542 862.401 699.229 859.25 702.484C856.099 705.74 851.607 707.367 845.773 707.367ZM845.773 694.711C846.841 694.711 847.674 694.229 848.273 693.266C848.872 692.302 849.172 691.221 849.172 690.023V656.078C849.172 654.464 848.99 653.057 848.625 651.859C848.286 650.635 847.336 650.023 845.773 650.023C844.211 650.023 843.247 650.635 842.883 651.859C842.544 653.057 842.375 654.464 842.375 656.078V690.023C842.375 691.221 842.674 692.302 843.273 693.266C843.898 694.229 844.732 694.711 845.773 694.711ZM886.633 706.781V695.883H866.242V685.141L879.25 637.953H900.656V684.398H904.328V695.883H900.656V706.781H886.633ZM878.508 684.398H886.633V649.75L878.508 684.398Z" fill="white"/>
<path d="M962.622 605.406C972.431 605.406 980.484 610.711 980.484 617.257V617.257C980.484 620.077 978.198 622.363 975.379 622.363H949.879C947.059 622.363 944.773 620.077 944.773 617.257V617.257C944.773 610.709 952.826 605.406 962.622 605.406Z" fill="url(#paint1_linear_744_640)"/>
<g filter="url(#filter1_d_744_640)">
<path fill-rule="evenodd" clip-rule="evenodd" d="M50.6068 424C36.2332 424 24.5867 435.663 24.6068 450.036L24.7779 572.036C24.798 586.382 36.4327 598 50.7779 598H192.697H951.597C965.957 598 977.597 586.359 977.597 572V450C977.597 435.641 965.957 424 951.597 424H50.6068Z" fill="white"/>
</g>
<path d="M307.426 495.719V527H302.076V495.719H307.426ZM317.244 495.719V500.016H292.344V495.719H317.244ZM331.08 522.338V511.252C331.08 510.421 330.93 509.705 330.629 509.104C330.328 508.502 329.87 508.036 329.254 507.707C328.652 507.378 327.893 507.213 326.977 507.213C326.132 507.213 325.401 507.356 324.785 507.643C324.169 507.929 323.689 508.316 323.346 508.803C323.002 509.29 322.83 509.841 322.83 510.457H317.674C317.674 509.54 317.896 508.652 318.34 507.793C318.784 506.934 319.428 506.167 320.273 505.494C321.118 504.821 322.128 504.291 323.303 503.904C324.477 503.518 325.795 503.324 327.256 503.324C329.003 503.324 330.55 503.618 331.896 504.205C333.257 504.792 334.324 505.68 335.098 506.869C335.885 508.044 336.279 509.519 336.279 511.295V521.629C336.279 522.689 336.351 523.641 336.494 524.486C336.652 525.317 336.874 526.04 337.16 526.656V527H331.854C331.61 526.441 331.417 525.732 331.273 524.873C331.145 523.999 331.08 523.154 331.08 522.338ZM331.832 512.863L331.875 516.064H328.158C327.199 516.064 326.354 516.158 325.623 516.344C324.893 516.516 324.284 516.773 323.797 517.117C323.31 517.461 322.945 517.876 322.701 518.363C322.458 518.85 322.336 519.402 322.336 520.018C322.336 520.633 322.479 521.199 322.766 521.715C323.052 522.216 323.467 522.61 324.012 522.896C324.57 523.183 325.243 523.326 326.031 523.326C327.091 523.326 328.015 523.111 328.803 522.682C329.605 522.238 330.235 521.701 330.693 521.07C331.152 520.426 331.395 519.817 331.424 519.244L333.1 521.543C332.928 522.13 332.634 522.76 332.219 523.434C331.803 524.107 331.259 524.751 330.586 525.367C329.927 525.969 329.132 526.463 328.201 526.85C327.285 527.236 326.225 527.43 325.021 527.43C323.503 527.43 322.15 527.129 320.961 526.527C319.772 525.911 318.841 525.088 318.168 524.057C317.495 523.011 317.158 521.829 317.158 520.512C317.158 519.28 317.387 518.191 317.846 517.246C318.318 516.286 319.006 515.484 319.908 514.84C320.825 514.195 321.942 513.708 323.26 513.379C324.577 513.035 326.081 512.863 327.771 512.863H331.832ZM345.646 503.754L350.072 511.467L354.584 503.754H360.277L353.23 515.162L360.557 527H354.863L350.137 518.965L345.41 527H339.695L347 515.162L339.975 503.754H345.646ZM387.025 512.863H379.055L379.012 508.932H385.973C387.147 508.932 388.143 508.76 388.959 508.416C389.79 508.058 390.42 507.549 390.85 506.891C391.279 506.217 391.494 505.408 391.494 504.463C391.494 503.417 391.294 502.565 390.893 501.906C390.492 501.247 389.876 500.768 389.045 500.467C388.229 500.166 387.183 500.016 385.908 500.016H380.688V527H375.295V495.719H385.908C387.627 495.719 389.16 495.883 390.506 496.213C391.867 496.542 393.02 497.058 393.965 497.76C394.924 498.447 395.648 499.321 396.135 500.381C396.636 501.441 396.887 502.701 396.887 504.162C396.887 505.451 396.579 506.633 395.963 507.707C395.347 508.767 394.438 509.633 393.234 510.307C392.031 510.98 390.535 511.381 388.744 511.51L387.025 512.863ZM386.789 527H377.357L379.785 522.725H386.789C388.007 522.725 389.023 522.524 389.84 522.123C390.656 521.708 391.265 521.142 391.666 520.426C392.081 519.695 392.289 518.843 392.289 517.869C392.289 516.852 392.11 515.971 391.752 515.227C391.394 514.467 390.828 513.887 390.055 513.486C389.281 513.071 388.271 512.863 387.025 512.863H380.967L381.01 508.932H388.895L390.119 510.414C391.838 510.471 393.249 510.851 394.352 511.553C395.469 512.255 396.299 513.164 396.844 514.281C397.388 515.398 397.66 516.602 397.66 517.891C397.66 519.882 397.223 521.55 396.35 522.896C395.49 524.243 394.251 525.267 392.633 525.969C391.014 526.656 389.066 527 386.789 527ZM412.828 527.43C411.109 527.43 409.555 527.15 408.166 526.592C406.791 526.019 405.617 525.224 404.643 524.207C403.683 523.19 402.945 521.994 402.43 520.619C401.914 519.244 401.656 517.762 401.656 516.172V515.312C401.656 513.493 401.921 511.846 402.451 510.371C402.981 508.896 403.719 507.635 404.664 506.59C405.609 505.53 406.727 504.721 408.016 504.162C409.305 503.604 410.701 503.324 412.205 503.324C413.867 503.324 415.32 503.604 416.566 504.162C417.812 504.721 418.844 505.508 419.66 506.525C420.491 507.528 421.107 508.724 421.508 510.113C421.923 511.503 422.131 513.035 422.131 514.711V516.924H404.17V513.207H417.018V512.799C416.989 511.868 416.803 510.994 416.459 510.178C416.13 509.361 415.621 508.702 414.934 508.201C414.246 507.7 413.329 507.449 412.184 507.449C411.324 507.449 410.558 507.635 409.885 508.008C409.226 508.366 408.674 508.889 408.23 509.576C407.786 510.264 407.443 511.094 407.199 512.068C406.97 513.028 406.855 514.109 406.855 515.312V516.172C406.855 517.189 406.992 518.134 407.264 519.008C407.55 519.867 407.965 520.619 408.51 521.264C409.054 521.908 409.713 522.417 410.486 522.789C411.26 523.147 412.141 523.326 413.129 523.326C414.375 523.326 415.485 523.076 416.459 522.574C417.433 522.073 418.278 521.364 418.994 520.447L421.723 523.09C421.221 523.82 420.57 524.522 419.768 525.195C418.965 525.854 417.984 526.391 416.824 526.807C415.678 527.222 414.346 527.43 412.828 527.43ZM431.305 508.717V527H426.127V503.754H431.004L431.305 508.717ZM430.381 514.518L428.705 514.496C428.719 512.849 428.949 511.338 429.393 509.963C429.851 508.588 430.481 507.406 431.283 506.418C432.1 505.43 433.074 504.671 434.205 504.141C435.337 503.596 436.597 503.324 437.986 503.324C439.104 503.324 440.113 503.482 441.016 503.797C441.932 504.098 442.713 504.592 443.357 505.279C444.016 505.967 444.518 506.862 444.861 507.965C445.205 509.053 445.377 510.393 445.377 511.982V527H440.178V511.961C440.178 510.844 440.013 509.963 439.684 509.318C439.368 508.66 438.903 508.194 438.287 507.922C437.686 507.635 436.934 507.492 436.031 507.492C435.143 507.492 434.348 507.678 433.646 508.051C432.945 508.423 432.35 508.932 431.863 509.576C431.391 510.221 431.025 510.965 430.768 511.811C430.51 512.656 430.381 513.558 430.381 514.518ZM460.91 527.43C459.191 527.43 457.637 527.15 456.248 526.592C454.873 526.019 453.699 525.224 452.725 524.207C451.765 523.19 451.027 521.994 450.512 520.619C449.996 519.244 449.738 517.762 449.738 516.172V515.312C449.738 513.493 450.003 511.846 450.533 510.371C451.063 508.896 451.801 507.635 452.746 506.59C453.691 505.53 454.809 504.721 456.098 504.162C457.387 503.604 458.783 503.324 460.287 503.324C461.949 503.324 463.402 503.604 464.648 504.162C465.895 504.721 466.926 505.508 467.742 506.525C468.573 507.528 469.189 508.724 469.59 510.113C470.005 511.503 470.213 513.035 470.213 514.711V516.924H452.252V513.207H465.1V512.799C465.071 511.868 464.885 510.994 464.541 510.178C464.212 509.361 463.703 508.702 463.016 508.201C462.328 507.7 461.411 507.449 460.266 507.449C459.406 507.449 458.64 507.635 457.967 508.008C457.308 508.366 456.757 508.889 456.312 509.576C455.868 510.264 455.525 511.094 455.281 512.068C455.052 513.028 454.938 514.109 454.938 515.312V516.172C454.938 517.189 455.074 518.134 455.346 519.008C455.632 519.867 456.048 520.619 456.592 521.264C457.136 521.908 457.795 522.417 458.568 522.789C459.342 523.147 460.223 523.326 461.211 523.326C462.457 523.326 463.567 523.076 464.541 522.574C465.515 522.073 466.36 521.364 467.076 520.447L469.805 523.09C469.303 523.82 468.652 524.522 467.85 525.195C467.048 525.854 466.066 526.391 464.906 526.807C463.76 527.222 462.428 527.43 460.91 527.43ZM480.912 527H475.713V502.25C475.713 500.374 476.085 498.791 476.83 497.502C477.589 496.213 478.671 495.232 480.074 494.559C481.492 493.885 483.175 493.549 485.123 493.549C486.269 493.549 487.372 493.671 488.432 493.914C489.506 494.158 490.616 494.465 491.762 494.838L490.967 499.049C490.236 498.805 489.427 498.576 488.539 498.361C487.651 498.132 486.627 498.018 485.467 498.018C483.906 498.018 482.753 498.376 482.008 499.092C481.277 499.794 480.912 500.846 480.912 502.25V527ZM485.574 503.754V507.535H472.146V503.754H485.574ZM494.211 503.754V527H489.033V503.754H494.211ZM510.646 503.754V507.535H497.541V503.754H510.646ZM501.322 498.061H506.5V520.576C506.5 521.292 506.6 521.844 506.801 522.23C507.016 522.603 507.309 522.854 507.682 522.982C508.054 523.111 508.491 523.176 508.992 523.176C509.35 523.176 509.694 523.154 510.023 523.111C510.353 523.068 510.618 523.025 510.818 522.982L510.84 526.936C510.41 527.064 509.909 527.179 509.336 527.279C508.777 527.38 508.133 527.43 507.402 527.43C506.214 527.43 505.161 527.222 504.244 526.807C503.327 526.377 502.611 525.682 502.096 524.723C501.58 523.763 501.322 522.488 501.322 520.898V498.061ZM527.684 520.705C527.684 520.189 527.555 519.724 527.297 519.309C527.039 518.879 526.545 518.492 525.814 518.148C525.098 517.805 524.038 517.49 522.635 517.203C521.403 516.931 520.271 516.609 519.24 516.236C518.223 515.85 517.35 515.384 516.619 514.84C515.889 514.296 515.323 513.651 514.922 512.906C514.521 512.161 514.32 511.302 514.32 510.328C514.32 509.383 514.528 508.488 514.943 507.643C515.359 506.798 515.953 506.053 516.727 505.408C517.5 504.764 518.438 504.255 519.541 503.883C520.658 503.51 521.904 503.324 523.279 503.324C525.227 503.324 526.896 503.654 528.285 504.312C529.689 504.957 530.763 505.838 531.508 506.955C532.253 508.058 532.625 509.304 532.625 510.693H527.447C527.447 510.077 527.29 509.505 526.975 508.975C526.674 508.43 526.215 507.993 525.6 507.664C524.984 507.32 524.21 507.148 523.279 507.148C522.391 507.148 521.654 507.292 521.066 507.578C520.493 507.85 520.064 508.208 519.777 508.652C519.505 509.096 519.369 509.583 519.369 510.113C519.369 510.5 519.441 510.851 519.584 511.166C519.742 511.467 519.999 511.746 520.357 512.004C520.715 512.247 521.202 512.477 521.818 512.691C522.449 512.906 523.236 513.114 524.182 513.314C525.958 513.687 527.483 514.167 528.758 514.754C530.047 515.327 531.035 516.072 531.723 516.988C532.41 517.891 532.754 519.036 532.754 520.426C532.754 521.457 532.532 522.402 532.088 523.262C531.658 524.107 531.028 524.844 530.197 525.475C529.367 526.09 528.371 526.57 527.211 526.914C526.065 527.258 524.776 527.43 523.344 527.43C521.238 527.43 519.455 527.057 517.994 526.312C516.533 525.553 515.423 524.587 514.664 523.412C513.919 522.223 513.547 520.992 513.547 519.717H518.553C518.61 520.676 518.875 521.443 519.348 522.016C519.835 522.574 520.436 522.982 521.152 523.24C521.883 523.484 522.635 523.605 523.408 523.605C524.339 523.605 525.12 523.484 525.75 523.24C526.38 522.982 526.86 522.639 527.189 522.209C527.519 521.765 527.684 521.264 527.684 520.705Z" fill="#30486E"/>
<path d="M944.227 431.58C949.649 426.485 946.04 417.383 938.6 417.383C931.868 417.383 926.141 417.383 926.314 417.383H814.271C804.468 417.383 796.328 422.467 796.328 429.011C796.328 458.987 796.328 505.246 796.328 534.399C796.328 543.015 806.985 550.013 819.891 550.013H918.225C931.123 550.013 941.638 543.015 941.638 534.399C941.638 509.259 941.638 457.093 941.638 437.558C941.638 435.292 942.575 433.132 944.227 431.58V431.58Z" fill="url(#paint2_linear_744_640)"/>
<path d="M845.773 519.344C839.966 519.344 835.474 517.716 832.297 514.461C829.146 511.206 827.57 506.518 827.57 500.398V469.383C827.57 462.924 829.068 457.977 832.062 454.539C835.083 451.076 839.654 449.344 845.773 449.344C851.919 449.344 856.49 451.076 859.484 454.539C862.479 457.977 863.977 462.924 863.977 469.383V500.398C863.977 506.518 862.401 511.206 859.25 514.461C856.099 517.716 851.607 519.344 845.773 519.344ZM845.773 506.688C846.841 506.688 847.674 506.206 848.273 505.242C848.872 504.279 849.172 503.198 849.172 502V468.055C849.172 466.44 848.99 465.034 848.625 463.836C848.286 462.612 847.336 462 845.773 462C844.211 462 843.247 462.612 842.883 463.836C842.544 465.034 842.375 466.44 842.375 468.055V502C842.375 503.198 842.674 504.279 843.273 505.242C843.898 506.206 844.732 506.688 845.773 506.688ZM884.445 519.5C878.378 519.5 873.964 517.898 871.203 514.695C868.443 511.492 867.062 506.661 867.062 500.203V493.016H881.164V500.242C881.164 502.065 881.385 503.615 881.828 504.891C882.297 506.141 883.326 506.766 884.914 506.766C886.529 506.766 887.557 506.089 888 504.734C888.443 503.354 888.664 501.115 888.664 498.016V496.297C888.664 493.927 888.26 491.857 887.453 490.086C886.672 488.315 885.122 487.43 882.805 487.43C882.518 487.43 882.258 487.443 882.023 487.469C881.815 487.469 881.633 487.482 881.477 487.508V475.164C883.846 475.164 885.656 474.643 886.906 473.602C888.156 472.534 888.781 470.763 888.781 468.289C888.781 464.409 887.661 462.469 885.422 462.469C883.964 462.469 882.974 463.042 882.453 464.188C881.958 465.307 881.711 466.74 881.711 468.484V470.555H867.492C867.466 470.242 867.44 469.865 867.414 469.422C867.414 468.979 867.414 468.549 867.414 468.133C867.414 461.831 868.885 457.208 871.828 454.266C874.771 451.323 879.276 449.852 885.344 449.852C897.062 449.852 902.922 455.945 902.922 468.133C902.922 471.518 902.466 474.318 901.555 476.531C900.643 478.719 898.951 480.255 896.477 481.141C898.43 482.078 899.875 483.276 900.812 484.734C901.75 486.193 902.362 488.003 902.648 490.164C902.935 492.326 903.078 494.943 903.078 498.016C903.078 504.891 901.633 510.19 898.742 513.914C895.878 517.638 891.112 519.5 884.445 519.5Z" fill="white"/>
<path d="M962.622 417.383C972.431 417.383 980.484 422.693 980.484 429.241V429.241C980.484 432.06 978.2 434.345 975.381 434.345H949.877C947.058 434.345 944.773 432.06 944.773 429.241V429.241C944.773 422.693 952.826 417.383 962.622 417.383Z" fill="url(#paint3_linear_744_640)"/>
<g filter="url(#filter2_d_744_640)">
<path fill-rule="evenodd" clip-rule="evenodd" d="M50.6068 236C36.2332 236 24.5867 247.663 24.6068 262.036L24.7779 384.036C24.798 398.382 36.4327 410 50.7779 410H192.697H951.597C965.957 410 977.597 398.359 977.597 384V262C977.597 247.641 965.957 236 951.597 236H50.6068Z" fill="white"/>
</g>
<path d="M944.227 243.556C949.649 238.462 946.04 229.359 938.6 229.359C931.868 229.359 926.141 229.359 926.314 229.359H814.271C804.468 229.359 796.328 234.443 796.328 240.987C796.328 270.964 796.328 317.222 796.328 346.373C796.328 354.991 806.985 361.989 819.891 361.989H918.225C931.123 361.989 941.638 354.991 941.638 346.373C941.638 321.236 941.638 269.071 941.638 249.535C941.638 247.268 942.575 245.108 944.227 243.556V243.556Z" fill="url(#paint4_linear_744_640)"/>
<path d="M845.773 334.328C839.966 334.328 835.474 332.701 832.297 329.445C829.146 326.19 827.57 321.503 827.57 315.383V284.367C827.57 277.909 829.068 272.961 832.062 269.523C835.083 266.06 839.654 264.328 845.773 264.328C851.919 264.328 856.49 266.06 859.484 269.523C862.479 272.961 863.977 277.909 863.977 284.367V315.383C863.977 321.503 862.401 326.19 859.25 329.445C856.099 332.701 851.607 334.328 845.773 334.328ZM845.773 321.672C846.841 321.672 847.674 321.19 848.273 320.227C848.872 319.263 849.172 318.182 849.172 316.984V283.039C849.172 281.424 848.99 280.018 848.625 278.82C848.286 277.596 847.336 276.984 845.773 276.984C844.211 276.984 843.247 277.596 842.883 278.82C842.544 280.018 842.375 281.424 842.375 283.039V316.984C842.375 318.182 842.674 319.263 843.273 320.227C843.898 321.19 844.732 321.672 845.773 321.672ZM867.961 333.703V330.422C867.961 327.01 868.482 323.951 869.523 321.242C870.591 318.508 871.958 315.982 873.625 313.664C875.292 311.32 877.049 309.029 878.898 306.789C880.695 304.602 882.401 302.362 884.016 300.07C885.656 297.753 886.984 295.253 888 292.57C889.042 289.862 889.562 286.828 889.562 283.469C889.562 281.854 889.315 280.474 888.82 279.328C888.352 278.156 887.362 277.57 885.852 277.57C883.56 277.57 882.414 279.615 882.414 283.703V292.102H867.961C867.935 291.503 867.896 290.826 867.844 290.07C867.818 289.315 867.805 288.586 867.805 287.883C867.805 282.935 868.326 278.742 869.367 275.305C870.409 271.841 872.245 269.211 874.875 267.414C877.531 265.591 881.255 264.68 886.047 264.68C891.75 264.68 896.177 266.281 899.328 269.484C902.505 272.688 904.094 277.258 904.094 283.195C904.094 287.232 903.573 290.773 902.531 293.82C901.49 296.841 900.109 299.602 898.391 302.102C896.672 304.576 894.784 307.049 892.727 309.523C891.268 311.268 889.849 313.052 888.469 314.875C887.115 316.698 885.917 318.651 884.875 320.734H903.625V333.703H867.961Z" fill="white"/>
<path d="M962.622 229.359C972.431 229.359 980.484 234.669 980.484 241.218V241.218C980.484 244.036 978.2 246.321 975.381 246.321H949.877C947.058 246.321 944.773 244.036 944.773 241.218V241.218C944.773 234.669 952.826 229.359 962.622 229.359Z" fill="url(#paint5_linear_744_640)"/>
<g filter="url(#filter3_d_744_640)">
<path fill-rule="evenodd" clip-rule="evenodd" d="M50.6068 48C36.2332 48 24.5867 59.6628 24.6068 74.0365L24.7779 196.036C24.798 210.382 36.4327 222 50.7779 222H192.697H951.598C965.957 222 977.597 210.359 977.597 196V74C977.597 59.6406 965.957 48 951.597 48H50.6068Z" fill="white"/>
</g>
<path d="M209.006 140.816H214.377C214.205 142.865 213.632 144.691 212.658 146.295C211.684 147.885 210.316 149.138 208.555 150.055C206.793 150.971 204.652 151.43 202.131 151.43C200.197 151.43 198.457 151.086 196.91 150.398C195.363 149.697 194.038 148.708 192.936 147.434C191.833 146.145 190.988 144.59 190.4 142.771C189.827 140.952 189.541 138.919 189.541 136.67V134.07C189.541 131.822 189.835 129.788 190.422 127.969C191.023 126.15 191.883 124.596 193 123.307C194.117 122.003 195.456 121.008 197.018 120.32C198.593 119.633 200.362 119.289 202.324 119.289C204.816 119.289 206.922 119.747 208.641 120.664C210.359 121.581 211.691 122.848 212.637 124.467C213.596 126.085 214.184 127.94 214.398 130.031H209.027C208.884 128.685 208.569 127.532 208.082 126.572C207.609 125.613 206.908 124.882 205.977 124.381C205.046 123.865 203.828 123.607 202.324 123.607C201.092 123.607 200.018 123.837 199.102 124.295C198.185 124.753 197.419 125.426 196.803 126.314C196.187 127.202 195.721 128.298 195.406 129.602C195.105 130.891 194.955 132.366 194.955 134.027V136.67C194.955 138.245 195.091 139.678 195.363 140.967C195.65 142.242 196.079 143.337 196.652 144.254C197.24 145.171 197.984 145.88 198.887 146.381C199.789 146.882 200.87 147.133 202.131 147.133C203.663 147.133 204.902 146.889 205.848 146.402C206.807 145.915 207.531 145.206 208.018 144.275C208.519 143.33 208.848 142.177 209.006 140.816ZM217.771 139.635V139.141C217.771 137.465 218.015 135.911 218.502 134.479C218.989 133.032 219.691 131.779 220.607 130.719C221.538 129.645 222.67 128.814 224.002 128.227C225.348 127.625 226.867 127.324 228.557 127.324C230.261 127.324 231.779 127.625 233.111 128.227C234.458 128.814 235.596 129.645 236.527 130.719C237.458 131.779 238.167 133.032 238.654 134.479C239.141 135.911 239.385 137.465 239.385 139.141V139.635C239.385 141.311 239.141 142.865 238.654 144.297C238.167 145.729 237.458 146.982 236.527 148.057C235.596 149.117 234.465 149.947 233.133 150.549C231.801 151.136 230.29 151.43 228.6 151.43C226.895 151.43 225.37 151.136 224.023 150.549C222.691 149.947 221.56 149.117 220.629 148.057C219.698 146.982 218.989 145.729 218.502 144.297C218.015 142.865 217.771 141.311 217.771 139.635ZM222.949 139.141V139.635C222.949 140.68 223.057 141.669 223.271 142.6C223.486 143.531 223.823 144.347 224.281 145.049C224.74 145.751 225.327 146.302 226.043 146.703C226.759 147.104 227.611 147.305 228.6 147.305C229.559 147.305 230.39 147.104 231.092 146.703C231.808 146.302 232.395 145.751 232.854 145.049C233.312 144.347 233.648 143.531 233.863 142.6C234.092 141.669 234.207 140.68 234.207 139.635V139.141C234.207 138.109 234.092 137.135 233.863 136.219C233.648 135.288 233.305 134.464 232.832 133.748C232.374 133.032 231.786 132.473 231.07 132.072C230.368 131.657 229.531 131.449 228.557 131.449C227.583 131.449 226.738 131.657 226.021 132.072C225.32 132.473 224.74 133.032 224.281 133.748C223.823 134.464 223.486 135.288 223.271 136.219C223.057 137.135 222.949 138.109 222.949 139.141ZM248.902 132.48V151H243.725V127.754H248.602L248.902 132.48ZM248.064 138.518L246.303 138.496C246.303 136.892 246.503 135.41 246.904 134.049C247.305 132.688 247.893 131.507 248.666 130.504C249.439 129.487 250.399 128.706 251.545 128.162C252.705 127.604 254.044 127.324 255.562 127.324C256.622 127.324 257.589 127.482 258.463 127.797C259.351 128.098 260.117 128.577 260.762 129.236C261.421 129.895 261.922 130.74 262.266 131.771C262.624 132.803 262.803 134.049 262.803 135.51V151H257.625V135.961C257.625 134.829 257.453 133.941 257.109 133.297C256.78 132.652 256.3 132.194 255.67 131.922C255.054 131.635 254.316 131.492 253.457 131.492C252.483 131.492 251.652 131.678 250.965 132.051C250.292 132.423 249.74 132.932 249.311 133.576C248.881 134.221 248.566 134.965 248.365 135.811C248.165 136.656 248.064 137.558 248.064 138.518ZM262.48 137.143L260.053 137.68C260.053 136.276 260.246 134.951 260.633 133.705C261.034 132.445 261.614 131.342 262.373 130.396C263.146 129.437 264.099 128.685 265.23 128.141C266.362 127.596 267.658 127.324 269.119 127.324C270.308 127.324 271.368 127.489 272.299 127.818C273.244 128.133 274.046 128.635 274.705 129.322C275.364 130.01 275.865 130.905 276.209 132.008C276.553 133.096 276.725 134.414 276.725 135.961V151H271.525V135.939C271.525 134.765 271.354 133.855 271.01 133.211C270.68 132.566 270.208 132.122 269.592 131.879C268.976 131.621 268.238 131.492 267.379 131.492C266.577 131.492 265.868 131.643 265.252 131.943C264.65 132.23 264.142 132.638 263.727 133.168C263.311 133.684 262.996 134.278 262.781 134.951C262.581 135.624 262.48 136.355 262.48 137.143ZM287.252 132.223V159.938H282.074V127.754H286.844L287.252 132.223ZM302.398 139.162V139.613C302.398 141.303 302.198 142.872 301.797 144.318C301.41 145.751 300.83 147.004 300.057 148.078C299.298 149.138 298.359 149.962 297.242 150.549C296.125 151.136 294.836 151.43 293.375 151.43C291.928 151.43 290.661 151.165 289.572 150.635C288.498 150.09 287.589 149.324 286.844 148.336C286.099 147.348 285.497 146.188 285.039 144.855C284.595 143.509 284.28 142.034 284.094 140.43V138.689C284.28 136.985 284.595 135.438 285.039 134.049C285.497 132.66 286.099 131.464 286.844 130.461C287.589 129.458 288.498 128.685 289.572 128.141C290.646 127.596 291.9 127.324 293.332 127.324C294.793 127.324 296.089 127.611 297.221 128.184C298.352 128.742 299.305 129.544 300.078 130.59C300.852 131.621 301.432 132.867 301.818 134.328C302.205 135.775 302.398 137.386 302.398 139.162ZM297.221 139.613V139.162C297.221 138.088 297.12 137.092 296.92 136.176C296.719 135.245 296.404 134.428 295.975 133.727C295.545 133.025 294.993 132.48 294.32 132.094C293.661 131.693 292.867 131.492 291.936 131.492C291.019 131.492 290.231 131.65 289.572 131.965C288.913 132.266 288.362 132.688 287.918 133.232C287.474 133.777 287.13 134.414 286.887 135.145C286.643 135.861 286.471 136.641 286.371 137.486V141.654C286.543 142.686 286.837 143.631 287.252 144.49C287.667 145.35 288.255 146.037 289.014 146.553C289.787 147.054 290.775 147.305 291.979 147.305C292.91 147.305 293.704 147.104 294.363 146.703C295.022 146.302 295.559 145.751 295.975 145.049C296.404 144.333 296.719 143.509 296.92 142.578C297.12 141.647 297.221 140.659 297.221 139.613ZM312.346 118V151H307.146V118H312.346ZM323.561 127.754V151H318.361V127.754H323.561ZM318.018 121.652C318.018 120.865 318.275 120.213 318.791 119.697C319.321 119.167 320.051 118.902 320.982 118.902C321.899 118.902 322.622 119.167 323.152 119.697C323.682 120.213 323.947 120.865 323.947 121.652C323.947 122.426 323.682 123.07 323.152 123.586C322.622 124.102 321.899 124.359 320.982 124.359C320.051 124.359 319.321 124.102 318.791 123.586C318.275 123.07 318.018 122.426 318.018 121.652ZM342.338 146.338V135.252C342.338 134.421 342.188 133.705 341.887 133.104C341.586 132.502 341.128 132.036 340.512 131.707C339.91 131.378 339.151 131.213 338.234 131.213C337.389 131.213 336.659 131.356 336.043 131.643C335.427 131.929 334.947 132.316 334.604 132.803C334.26 133.29 334.088 133.841 334.088 134.457H328.932C328.932 133.54 329.154 132.652 329.598 131.793C330.042 130.934 330.686 130.167 331.531 129.494C332.376 128.821 333.386 128.291 334.561 127.904C335.735 127.518 337.053 127.324 338.514 127.324C340.261 127.324 341.808 127.618 343.154 128.205C344.515 128.792 345.582 129.68 346.355 130.869C347.143 132.044 347.537 133.519 347.537 135.295V145.629C347.537 146.689 347.609 147.641 347.752 148.486C347.91 149.317 348.132 150.04 348.418 150.656V151H343.111C342.868 150.441 342.674 149.732 342.531 148.873C342.402 147.999 342.338 147.154 342.338 146.338ZM343.09 136.863L343.133 140.064H339.416C338.456 140.064 337.611 140.158 336.881 140.344C336.15 140.516 335.542 140.773 335.055 141.117C334.568 141.461 334.202 141.876 333.959 142.363C333.715 142.85 333.594 143.402 333.594 144.018C333.594 144.633 333.737 145.199 334.023 145.715C334.31 146.216 334.725 146.61 335.27 146.896C335.828 147.183 336.501 147.326 337.289 147.326C338.349 147.326 339.273 147.111 340.061 146.682C340.863 146.238 341.493 145.701 341.951 145.07C342.41 144.426 342.653 143.817 342.682 143.244L344.357 145.543C344.186 146.13 343.892 146.76 343.477 147.434C343.061 148.107 342.517 148.751 341.844 149.367C341.185 149.969 340.39 150.463 339.459 150.85C338.542 151.236 337.482 151.43 336.279 151.43C334.761 151.43 333.408 151.129 332.219 150.527C331.03 149.911 330.099 149.088 329.426 148.057C328.753 147.011 328.416 145.829 328.416 144.512C328.416 143.28 328.645 142.191 329.104 141.246C329.576 140.286 330.264 139.484 331.166 138.84C332.083 138.195 333.2 137.708 334.518 137.379C335.835 137.035 337.339 136.863 339.029 136.863H343.09ZM358.086 132.717V151H352.908V127.754H357.785L358.086 132.717ZM357.162 138.518L355.486 138.496C355.501 136.849 355.73 135.338 356.174 133.963C356.632 132.588 357.262 131.406 358.064 130.418C358.881 129.43 359.855 128.671 360.986 128.141C362.118 127.596 363.378 127.324 364.768 127.324C365.885 127.324 366.895 127.482 367.797 127.797C368.714 128.098 369.494 128.592 370.139 129.279C370.798 129.967 371.299 130.862 371.643 131.965C371.986 133.053 372.158 134.393 372.158 135.982V151H366.959V135.961C366.959 134.844 366.794 133.963 366.465 133.318C366.15 132.66 365.684 132.194 365.068 131.922C364.467 131.635 363.715 131.492 362.812 131.492C361.924 131.492 361.13 131.678 360.428 132.051C359.726 132.423 359.132 132.932 358.645 133.576C358.172 134.221 357.807 134.965 357.549 135.811C357.291 136.656 357.162 137.558 357.162 138.518ZM386.939 147.305C387.785 147.305 388.544 147.14 389.217 146.811C389.904 146.467 390.456 145.994 390.871 145.393C391.301 144.791 391.537 144.096 391.58 143.309H396.457C396.428 144.812 395.984 146.18 395.125 147.412C394.266 148.644 393.127 149.625 391.709 150.355C390.291 151.072 388.723 151.43 387.004 151.43C385.228 151.43 383.681 151.129 382.363 150.527C381.046 149.911 379.95 149.066 379.076 147.992C378.202 146.918 377.544 145.679 377.1 144.275C376.67 142.872 376.455 141.368 376.455 139.764V139.012C376.455 137.408 376.67 135.904 377.1 134.5C377.544 133.082 378.202 131.836 379.076 130.762C379.95 129.688 381.046 128.85 382.363 128.248C383.681 127.632 385.221 127.324 386.982 127.324C388.844 127.324 390.477 127.697 391.881 128.441C393.285 129.172 394.387 130.196 395.189 131.514C396.006 132.817 396.428 134.335 396.457 136.068H391.58C391.537 135.209 391.322 134.436 390.936 133.748C390.563 133.046 390.033 132.488 389.346 132.072C388.673 131.657 387.863 131.449 386.918 131.449C385.872 131.449 385.006 131.664 384.318 132.094C383.631 132.509 383.094 133.082 382.707 133.812C382.32 134.529 382.041 135.338 381.869 136.24C381.712 137.128 381.633 138.052 381.633 139.012V139.764C381.633 140.723 381.712 141.654 381.869 142.557C382.027 143.459 382.299 144.268 382.686 144.984C383.087 145.686 383.631 146.252 384.318 146.682C385.006 147.097 385.88 147.305 386.939 147.305ZM410.68 151.43C408.961 151.43 407.407 151.15 406.018 150.592C404.643 150.019 403.468 149.224 402.494 148.207C401.535 147.19 400.797 145.994 400.281 144.619C399.766 143.244 399.508 141.762 399.508 140.172V139.312C399.508 137.493 399.773 135.846 400.303 134.371C400.833 132.896 401.57 131.635 402.516 130.59C403.461 129.53 404.578 128.721 405.867 128.162C407.156 127.604 408.553 127.324 410.057 127.324C411.718 127.324 413.172 127.604 414.418 128.162C415.664 128.721 416.695 129.508 417.512 130.525C418.342 131.528 418.958 132.724 419.359 134.113C419.775 135.503 419.982 137.035 419.982 138.711V140.924H402.021V137.207H414.869V136.799C414.84 135.868 414.654 134.994 414.311 134.178C413.981 133.361 413.473 132.702 412.785 132.201C412.098 131.7 411.181 131.449 410.035 131.449C409.176 131.449 408.41 131.635 407.736 132.008C407.077 132.366 406.526 132.889 406.082 133.576C405.638 134.264 405.294 135.094 405.051 136.068C404.822 137.028 404.707 138.109 404.707 139.312V140.172C404.707 141.189 404.843 142.134 405.115 143.008C405.402 143.867 405.817 144.619 406.361 145.264C406.906 145.908 407.564 146.417 408.338 146.789C409.111 147.147 409.992 147.326 410.98 147.326C412.227 147.326 413.337 147.076 414.311 146.574C415.285 146.073 416.13 145.364 416.846 144.447L419.574 147.09C419.073 147.82 418.421 148.522 417.619 149.195C416.817 149.854 415.836 150.391 414.676 150.807C413.53 151.222 412.198 151.43 410.68 151.43ZM448.084 146.338V135.252C448.084 134.421 447.934 133.705 447.633 133.104C447.332 132.502 446.874 132.036 446.258 131.707C445.656 131.378 444.897 131.213 443.98 131.213C443.135 131.213 442.405 131.356 441.789 131.643C441.173 131.929 440.693 132.316 440.35 132.803C440.006 133.29 439.834 133.841 439.834 134.457H434.678C434.678 133.54 434.9 132.652 435.344 131.793C435.788 130.934 436.432 130.167 437.277 129.494C438.122 128.821 439.132 128.291 440.307 127.904C441.481 127.518 442.799 127.324 444.26 127.324C446.007 127.324 447.554 127.618 448.9 128.205C450.261 128.792 451.328 129.68 452.102 130.869C452.889 132.044 453.283 133.519 453.283 135.295V145.629C453.283 146.689 453.355 147.641 453.498 148.486C453.656 149.317 453.878 150.04 454.164 150.656V151H448.857C448.614 150.441 448.421 149.732 448.277 148.873C448.148 147.999 448.084 147.154 448.084 146.338ZM448.836 136.863L448.879 140.064H445.162C444.202 140.064 443.357 140.158 442.627 140.344C441.896 140.516 441.288 140.773 440.801 141.117C440.314 141.461 439.949 141.876 439.705 142.363C439.462 142.85 439.34 143.402 439.34 144.018C439.34 144.633 439.483 145.199 439.77 145.715C440.056 146.216 440.471 146.61 441.016 146.896C441.574 147.183 442.247 147.326 443.035 147.326C444.095 147.326 445.019 147.111 445.807 146.682C446.609 146.238 447.239 145.701 447.697 145.07C448.156 144.426 448.399 143.817 448.428 143.244L450.104 145.543C449.932 146.13 449.638 146.76 449.223 147.434C448.807 148.107 448.263 148.751 447.59 149.367C446.931 149.969 446.136 150.463 445.205 150.85C444.288 151.236 443.229 151.43 442.025 151.43C440.507 151.43 439.154 151.129 437.965 150.527C436.776 149.911 435.845 149.088 435.172 148.057C434.499 147.011 434.162 145.829 434.162 144.512C434.162 143.28 434.391 142.191 434.85 141.246C435.322 140.286 436.01 139.484 436.912 138.84C437.829 138.195 438.946 137.708 440.264 137.379C441.581 137.035 443.085 136.863 444.775 136.863H448.836ZM472.877 146.188V118H478.076V151H473.371L472.877 146.188ZM457.752 139.635V139.184C457.752 137.422 457.96 135.818 458.375 134.371C458.79 132.91 459.392 131.657 460.18 130.611C460.967 129.551 461.927 128.742 463.059 128.184C464.19 127.611 465.465 127.324 466.883 127.324C468.286 127.324 469.518 127.596 470.578 128.141C471.638 128.685 472.54 129.465 473.285 130.482C474.03 131.485 474.624 132.688 475.068 134.092C475.512 135.481 475.827 137.028 476.014 138.732V140.172C475.827 141.833 475.512 143.352 475.068 144.727C474.624 146.102 474.03 147.29 473.285 148.293C472.54 149.296 471.631 150.069 470.557 150.613C469.497 151.158 468.258 151.43 466.84 151.43C465.436 151.43 464.169 151.136 463.037 150.549C461.92 149.962 460.967 149.138 460.18 148.078C459.392 147.018 458.79 145.772 458.375 144.34C457.96 142.893 457.752 141.325 457.752 139.635ZM462.93 139.184V139.635C462.93 140.695 463.023 141.683 463.209 142.6C463.41 143.516 463.717 144.326 464.133 145.027C464.548 145.715 465.085 146.259 465.744 146.66C466.417 147.047 467.219 147.24 468.15 147.24C469.325 147.24 470.292 146.982 471.051 146.467C471.81 145.951 472.404 145.257 472.834 144.383C473.278 143.495 473.579 142.507 473.736 141.418V137.529C473.65 136.684 473.471 135.896 473.199 135.166C472.941 134.436 472.59 133.798 472.146 133.254C471.702 132.695 471.151 132.266 470.492 131.965C469.848 131.65 469.081 131.492 468.193 131.492C467.248 131.492 466.446 131.693 465.787 132.094C465.128 132.495 464.584 133.046 464.154 133.748C463.739 134.45 463.431 135.266 463.23 136.197C463.03 137.128 462.93 138.124 462.93 139.184ZM488.604 118V151H483.447V118H488.604ZM487.701 138.518L486.025 138.496C486.04 136.892 486.262 135.41 486.691 134.049C487.135 132.688 487.751 131.507 488.539 130.504C489.341 129.487 490.301 128.706 491.418 128.162C492.535 127.604 493.774 127.324 495.135 127.324C496.281 127.324 497.312 127.482 498.229 127.797C499.16 128.112 499.962 128.62 500.635 129.322C501.308 130.01 501.816 130.912 502.16 132.029C502.518 133.132 502.697 134.479 502.697 136.068V151H497.498V136.025C497.498 134.908 497.333 134.02 497.004 133.361C496.689 132.702 496.223 132.23 495.607 131.943C494.992 131.643 494.24 131.492 493.352 131.492C492.421 131.492 491.597 131.678 490.881 132.051C490.179 132.423 489.592 132.932 489.119 133.576C488.646 134.221 488.288 134.965 488.045 135.811C487.816 136.656 487.701 137.558 487.701 138.518ZM518.188 151.43C516.469 151.43 514.915 151.15 513.525 150.592C512.15 150.019 510.976 149.224 510.002 148.207C509.042 147.19 508.305 145.994 507.789 144.619C507.273 143.244 507.016 141.762 507.016 140.172V139.312C507.016 137.493 507.281 135.846 507.811 134.371C508.34 132.896 509.078 131.635 510.023 130.59C510.969 129.53 512.086 128.721 513.375 128.162C514.664 127.604 516.061 127.324 517.564 127.324C519.226 127.324 520.68 127.604 521.926 128.162C523.172 128.721 524.203 129.508 525.02 130.525C525.85 131.528 526.466 132.724 526.867 134.113C527.283 135.503 527.49 137.035 527.49 138.711V140.924H509.529V137.207H522.377V136.799C522.348 135.868 522.162 134.994 521.818 134.178C521.489 133.361 520.98 132.702 520.293 132.201C519.605 131.7 518.689 131.449 517.543 131.449C516.684 131.449 515.917 131.635 515.244 132.008C514.585 132.366 514.034 132.889 513.59 133.576C513.146 134.264 512.802 135.094 512.559 136.068C512.329 137.028 512.215 138.109 512.215 139.312V140.172C512.215 141.189 512.351 142.134 512.623 143.008C512.91 143.867 513.325 144.619 513.869 145.264C514.413 145.908 515.072 146.417 515.846 146.789C516.619 147.147 517.5 147.326 518.488 147.326C519.734 147.326 520.844 147.076 521.818 146.574C522.792 146.073 523.637 145.364 524.354 144.447L527.082 147.09C526.581 147.82 525.929 148.522 525.127 149.195C524.325 149.854 523.344 150.391 522.184 150.807C521.038 151.222 519.706 151.43 518.188 151.43ZM536.729 132.18V151H531.551V127.754H536.492L536.729 132.18ZM543.84 127.604L543.797 132.416C543.482 132.359 543.138 132.316 542.766 132.287C542.408 132.258 542.049 132.244 541.691 132.244C540.803 132.244 540.023 132.373 539.35 132.631C538.676 132.874 538.111 133.232 537.652 133.705C537.208 134.163 536.865 134.722 536.621 135.381C536.378 136.04 536.234 136.777 536.191 137.594L535.01 137.68C535.01 136.219 535.153 134.865 535.439 133.619C535.726 132.373 536.156 131.277 536.729 130.332C537.316 129.387 538.046 128.649 538.92 128.119C539.808 127.589 540.832 127.324 541.992 127.324C542.307 127.324 542.644 127.353 543.002 127.41C543.374 127.467 543.654 127.532 543.84 127.604ZM556.902 151.43C555.184 151.43 553.63 151.15 552.24 150.592C550.865 150.019 549.691 149.224 548.717 148.207C547.757 147.19 547.02 145.994 546.504 144.619C545.988 143.244 545.73 141.762 545.73 140.172V139.312C545.73 137.493 545.995 135.846 546.525 134.371C547.055 132.896 547.793 131.635 548.738 130.59C549.684 129.53 550.801 128.721 552.09 128.162C553.379 127.604 554.775 127.324 556.279 127.324C557.941 127.324 559.395 127.604 560.641 128.162C561.887 128.721 562.918 129.508 563.734 130.525C564.565 131.528 565.181 132.724 565.582 134.113C565.997 135.503 566.205 137.035 566.205 138.711V140.924H548.244V137.207H561.092V136.799C561.063 135.868 560.877 134.994 560.533 134.178C560.204 133.361 559.695 132.702 559.008 132.201C558.32 131.7 557.404 131.449 556.258 131.449C555.398 131.449 554.632 131.635 553.959 132.008C553.3 132.366 552.749 132.889 552.305 133.576C551.861 134.264 551.517 135.094 551.273 136.068C551.044 137.028 550.93 138.109 550.93 139.312V140.172C550.93 141.189 551.066 142.134 551.338 143.008C551.624 143.867 552.04 144.619 552.584 145.264C553.128 145.908 553.787 146.417 554.561 146.789C555.334 147.147 556.215 147.326 557.203 147.326C558.449 147.326 559.559 147.076 560.533 146.574C561.507 146.073 562.352 145.364 563.068 144.447L565.797 147.09C565.296 147.82 564.644 148.522 563.842 149.195C563.04 149.854 562.059 150.391 560.898 150.807C559.753 151.222 558.421 151.43 556.902 151.43ZM575.379 132.717V151H570.201V127.754H575.078L575.379 132.717ZM574.455 138.518L572.779 138.496C572.794 136.849 573.023 135.338 573.467 133.963C573.925 132.588 574.555 131.406 575.357 130.418C576.174 129.43 577.148 128.671 578.279 128.141C579.411 127.596 580.671 127.324 582.061 127.324C583.178 127.324 584.188 127.482 585.09 127.797C586.007 128.098 586.787 128.592 587.432 129.279C588.09 129.967 588.592 130.862 588.936 131.965C589.279 133.053 589.451 134.393 589.451 135.982V151H584.252V135.961C584.252 134.844 584.087 133.963 583.758 133.318C583.443 132.66 582.977 132.194 582.361 131.922C581.76 131.635 581.008 131.492 580.105 131.492C579.217 131.492 578.423 131.678 577.721 132.051C577.019 132.423 576.424 132.932 575.938 133.576C575.465 134.221 575.1 134.965 574.842 135.811C574.584 136.656 574.455 137.558 574.455 138.518ZM604.232 147.305C605.077 147.305 605.837 147.14 606.51 146.811C607.197 146.467 607.749 145.994 608.164 145.393C608.594 144.791 608.83 144.096 608.873 143.309H613.75C613.721 144.812 613.277 146.18 612.418 147.412C611.559 148.644 610.42 149.625 609.002 150.355C607.584 151.072 606.016 151.43 604.297 151.43C602.521 151.43 600.974 151.129 599.656 150.527C598.339 149.911 597.243 149.066 596.369 147.992C595.495 146.918 594.837 145.679 594.393 144.275C593.963 142.872 593.748 141.368 593.748 139.764V139.012C593.748 137.408 593.963 135.904 594.393 134.5C594.837 133.082 595.495 131.836 596.369 130.762C597.243 129.688 598.339 128.85 599.656 128.248C600.974 127.632 602.514 127.324 604.275 127.324C606.137 127.324 607.77 127.697 609.174 128.441C610.577 129.172 611.68 130.196 612.482 131.514C613.299 132.817 613.721 134.335 613.75 136.068H608.873C608.83 135.209 608.615 134.436 608.229 133.748C607.856 133.046 607.326 132.488 606.639 132.072C605.965 131.657 605.156 131.449 604.211 131.449C603.165 131.449 602.299 131.664 601.611 132.094C600.924 132.509 600.387 133.082 600 133.812C599.613 134.529 599.334 135.338 599.162 136.24C599.005 137.128 598.926 138.052 598.926 139.012V139.764C598.926 140.723 599.005 141.654 599.162 142.557C599.32 143.459 599.592 144.268 599.979 144.984C600.38 145.686 600.924 146.252 601.611 146.682C602.299 147.097 603.173 147.305 604.232 147.305ZM627.973 151.43C626.254 151.43 624.7 151.15 623.311 150.592C621.936 150.019 620.761 149.224 619.787 148.207C618.827 147.19 618.09 145.994 617.574 144.619C617.059 143.244 616.801 141.762 616.801 140.172V139.312C616.801 137.493 617.066 135.846 617.596 134.371C618.126 132.896 618.863 131.635 619.809 130.59C620.754 129.53 621.871 128.721 623.16 128.162C624.449 127.604 625.846 127.324 627.35 127.324C629.011 127.324 630.465 127.604 631.711 128.162C632.957 128.721 633.988 129.508 634.805 130.525C635.635 131.528 636.251 132.724 636.652 134.113C637.068 135.503 637.275 137.035 637.275 138.711V140.924H619.314V137.207H632.162V136.799C632.133 135.868 631.947 134.994 631.604 134.178C631.274 133.361 630.766 132.702 630.078 132.201C629.391 131.7 628.474 131.449 627.328 131.449C626.469 131.449 625.702 131.635 625.029 132.008C624.37 132.366 623.819 132.889 623.375 133.576C622.931 134.264 622.587 135.094 622.344 136.068C622.115 137.028 622 138.109 622 139.312V140.172C622 141.189 622.136 142.134 622.408 143.008C622.695 143.867 623.11 144.619 623.654 145.264C624.199 145.908 624.857 146.417 625.631 146.789C626.404 147.147 627.285 147.326 628.273 147.326C629.52 147.326 630.63 147.076 631.604 146.574C632.577 146.073 633.423 145.364 634.139 144.447L636.867 147.09C636.366 147.82 635.714 148.522 634.912 149.195C634.11 149.854 633.129 150.391 631.969 150.807C630.823 151.222 629.491 151.43 627.973 151.43Z" fill="#30486E"/>
<path d="M944.227 55.5326C949.649 50.4382 946.04 41.3359 938.6 41.3359C931.868 41.3359 926.141 41.3359 926.314 41.3359H814.271C804.468 41.3359 796.328 46.4223 796.328 52.9661C796.328 82.9403 796.328 129.199 796.328 158.352C796.328 166.968 806.985 173.966 819.891 173.966H918.225C931.123 173.966 941.638 166.968 941.638 158.352C941.638 133.212 941.638 81.0475 941.638 61.5116C941.638 59.2448 942.575 57.0848 944.227 55.5326V55.5326Z" fill="url(#paint6_linear_744_640)"/>
<path d="M851.336 147.047C845.529 147.047 841.036 145.419 837.859 142.164C834.708 138.909 833.133 134.221 833.133 128.102V97.0859C833.133 90.6276 834.63 85.6797 837.625 82.2422C840.646 78.7786 845.216 77.0469 851.336 77.0469C857.482 77.0469 862.052 78.7786 865.047 82.2422C868.042 85.6797 869.539 90.6276 869.539 97.0859V128.102C869.539 134.221 867.964 138.909 864.812 142.164C861.661 145.419 857.169 147.047 851.336 147.047ZM851.336 134.391C852.404 134.391 853.237 133.909 853.836 132.945C854.435 131.982 854.734 130.901 854.734 129.703V95.7578C854.734 94.1432 854.552 92.737 854.188 91.5391C853.849 90.3151 852.898 89.7031 851.336 89.7031C849.773 89.7031 848.81 90.3151 848.445 91.5391C848.107 92.737 847.938 94.1432 847.938 95.7578V129.703C847.938 130.901 848.237 131.982 848.836 132.945C849.461 133.909 850.294 134.391 851.336 134.391ZM880.594 146.422V93.4531C879.656 94.5729 878.367 95.4844 876.727 96.1875C875.086 96.8646 873.536 97.2031 872.078 97.2031V86.2266C873.458 86.0182 874.943 85.5755 876.531 84.8984C878.12 84.1953 879.591 83.2448 880.945 82.0469C882.326 80.8229 883.38 79.3516 884.109 77.6328H895.164V146.422H880.594Z" fill="white"/>
<path d="M962.622 41.3359C972.431 41.3359 980.484 46.6482 980.484 53.1945V53.1945C980.484 56.013 978.2 58.2978 975.381 58.2978H949.877C947.058 58.2978 944.773 56.013 944.773 53.1945V53.1945C944.773 46.6482 952.826 41.3359 962.622 41.3359Z" fill="url(#paint7_linear_744_640)"/>
<path d="M266.203 335.725V340H249.596V335.725H266.203ZM251.121 308.719V340H245.729V308.719H251.121ZM264.033 321.781V325.992H249.596V321.781H264.033ZM266.096 308.719V313.016H249.596V308.719H266.096ZM275.27 321.48V340H270.092V316.754H274.969L275.27 321.48ZM274.432 327.518L272.67 327.496C272.67 325.892 272.87 324.41 273.271 323.049C273.673 321.688 274.26 320.507 275.033 319.504C275.807 318.487 276.766 317.706 277.912 317.162C279.072 316.604 280.411 316.324 281.93 316.324C282.99 316.324 283.956 316.482 284.83 316.797C285.718 317.098 286.484 317.577 287.129 318.236C287.788 318.895 288.289 319.74 288.633 320.771C288.991 321.803 289.17 323.049 289.17 324.51V340H283.992V324.961C283.992 323.829 283.82 322.941 283.477 322.297C283.147 321.652 282.667 321.194 282.037 320.922C281.421 320.635 280.684 320.492 279.824 320.492C278.85 320.492 278.02 320.678 277.332 321.051C276.659 321.423 276.107 321.932 275.678 322.576C275.248 323.221 274.933 323.965 274.732 324.811C274.532 325.656 274.432 326.558 274.432 327.518ZM288.848 326.143L286.42 326.68C286.42 325.276 286.613 323.951 287 322.705C287.401 321.445 287.981 320.342 288.74 319.396C289.514 318.437 290.466 317.685 291.598 317.141C292.729 316.596 294.025 316.324 295.486 316.324C296.675 316.324 297.735 316.489 298.666 316.818C299.611 317.133 300.413 317.635 301.072 318.322C301.731 319.01 302.232 319.905 302.576 321.008C302.92 322.096 303.092 323.414 303.092 324.961V340H297.893V324.939C297.893 323.765 297.721 322.855 297.377 322.211C297.048 321.566 296.575 321.122 295.959 320.879C295.343 320.621 294.605 320.492 293.746 320.492C292.944 320.492 292.235 320.643 291.619 320.943C291.018 321.23 290.509 321.638 290.094 322.168C289.678 322.684 289.363 323.278 289.148 323.951C288.948 324.624 288.848 325.355 288.848 326.143ZM313.619 321.223V348.938H308.441V316.754H313.211L313.619 321.223ZM328.766 328.162V328.613C328.766 330.303 328.565 331.872 328.164 333.318C327.777 334.751 327.197 336.004 326.424 337.078C325.665 338.138 324.727 338.962 323.609 339.549C322.492 340.136 321.203 340.43 319.742 340.43C318.296 340.43 317.028 340.165 315.939 339.635C314.865 339.09 313.956 338.324 313.211 337.336C312.466 336.348 311.865 335.188 311.406 333.855C310.962 332.509 310.647 331.034 310.461 329.43V327.689C310.647 325.985 310.962 324.438 311.406 323.049C311.865 321.66 312.466 320.464 313.211 319.461C313.956 318.458 314.865 317.685 315.939 317.141C317.014 316.596 318.267 316.324 319.699 316.324C321.16 316.324 322.456 316.611 323.588 317.184C324.719 317.742 325.672 318.544 326.445 319.59C327.219 320.621 327.799 321.867 328.186 323.328C328.572 324.775 328.766 326.386 328.766 328.162ZM323.588 328.613V328.162C323.588 327.088 323.488 326.092 323.287 325.176C323.087 324.245 322.771 323.428 322.342 322.727C321.912 322.025 321.361 321.48 320.688 321.094C320.029 320.693 319.234 320.492 318.303 320.492C317.386 320.492 316.598 320.65 315.939 320.965C315.281 321.266 314.729 321.688 314.285 322.232C313.841 322.777 313.497 323.414 313.254 324.145C313.01 324.861 312.839 325.641 312.738 326.486V330.654C312.91 331.686 313.204 332.631 313.619 333.49C314.035 334.35 314.622 335.037 315.381 335.553C316.154 336.054 317.143 336.305 318.346 336.305C319.277 336.305 320.072 336.104 320.73 335.703C321.389 335.302 321.926 334.751 322.342 334.049C322.771 333.333 323.087 332.509 323.287 331.578C323.488 330.647 323.588 329.659 323.588 328.613ZM338.713 307V340H333.514V307H338.713ZM343.396 328.635V328.141C343.396 326.465 343.64 324.911 344.127 323.479C344.614 322.032 345.316 320.779 346.232 319.719C347.163 318.645 348.295 317.814 349.627 317.227C350.973 316.625 352.492 316.324 354.182 316.324C355.886 316.324 357.404 316.625 358.736 317.227C360.083 317.814 361.221 318.645 362.152 319.719C363.083 320.779 363.792 322.032 364.279 323.479C364.766 324.911 365.01 326.465 365.01 328.141V328.635C365.01 330.311 364.766 331.865 364.279 333.297C363.792 334.729 363.083 335.982 362.152 337.057C361.221 338.117 360.09 338.947 358.758 339.549C357.426 340.136 355.915 340.43 354.225 340.43C352.52 340.43 350.995 340.136 349.648 339.549C348.316 338.947 347.185 338.117 346.254 337.057C345.323 335.982 344.614 334.729 344.127 333.297C343.64 331.865 343.396 330.311 343.396 328.635ZM348.574 328.141V328.635C348.574 329.68 348.682 330.669 348.896 331.6C349.111 332.531 349.448 333.347 349.906 334.049C350.365 334.751 350.952 335.302 351.668 335.703C352.384 336.104 353.236 336.305 354.225 336.305C355.184 336.305 356.015 336.104 356.717 335.703C357.433 335.302 358.02 334.751 358.479 334.049C358.937 333.347 359.273 332.531 359.488 331.6C359.717 330.669 359.832 329.68 359.832 328.635V328.141C359.832 327.109 359.717 326.135 359.488 325.219C359.273 324.288 358.93 323.464 358.457 322.748C357.999 322.032 357.411 321.473 356.695 321.072C355.993 320.657 355.156 320.449 354.182 320.449C353.208 320.449 352.363 320.657 351.646 321.072C350.945 321.473 350.365 322.032 349.906 322.748C349.448 323.464 349.111 324.288 348.896 325.219C348.682 326.135 348.574 327.109 348.574 328.141ZM375.752 337.465L382.068 316.754H387.611L378.287 343.545C378.072 344.118 377.793 344.741 377.449 345.414C377.105 346.087 376.654 346.725 376.096 347.326C375.551 347.942 374.871 348.436 374.055 348.809C373.238 349.195 372.25 349.389 371.09 349.389C370.632 349.389 370.188 349.346 369.758 349.26C369.342 349.188 368.949 349.109 368.576 349.023L368.555 345.07C368.698 345.085 368.87 345.099 369.07 345.113C369.285 345.128 369.457 345.135 369.586 345.135C370.445 345.135 371.161 345.027 371.734 344.812C372.307 344.612 372.773 344.283 373.131 343.824C373.503 343.366 373.818 342.75 374.076 341.977L375.752 337.465ZM372.186 316.754L377.707 334.156L378.631 339.613L375.043 340.537L366.6 316.754H372.186ZM400.523 340.43C398.805 340.43 397.251 340.15 395.861 339.592C394.486 339.019 393.312 338.224 392.338 337.207C391.378 336.19 390.641 334.994 390.125 333.619C389.609 332.244 389.352 330.762 389.352 329.172V328.312C389.352 326.493 389.617 324.846 390.146 323.371C390.676 321.896 391.414 320.635 392.359 319.59C393.305 318.53 394.422 317.721 395.711 317.162C397 316.604 398.396 316.324 399.9 316.324C401.562 316.324 403.016 316.604 404.262 317.162C405.508 317.721 406.539 318.508 407.355 319.525C408.186 320.528 408.802 321.724 409.203 323.113C409.618 324.503 409.826 326.035 409.826 327.711V329.924H391.865V326.207H404.713V325.799C404.684 324.868 404.498 323.994 404.154 323.178C403.825 322.361 403.316 321.702 402.629 321.201C401.941 320.7 401.025 320.449 399.879 320.449C399.02 320.449 398.253 320.635 397.58 321.008C396.921 321.366 396.37 321.889 395.926 322.576C395.482 323.264 395.138 324.094 394.895 325.068C394.665 326.028 394.551 327.109 394.551 328.312V329.172C394.551 330.189 394.687 331.134 394.959 332.008C395.245 332.867 395.661 333.619 396.205 334.264C396.749 334.908 397.408 335.417 398.182 335.789C398.955 336.147 399.836 336.326 400.824 336.326C402.07 336.326 403.18 336.076 404.154 335.574C405.128 335.073 405.973 334.364 406.689 333.447L409.418 336.09C408.917 336.82 408.265 337.522 407.463 338.195C406.661 338.854 405.68 339.391 404.52 339.807C403.374 340.222 402.042 340.43 400.523 340.43ZM424.113 340.43C422.395 340.43 420.84 340.15 419.451 339.592C418.076 339.019 416.902 338.224 415.928 337.207C414.968 336.19 414.23 334.994 413.715 333.619C413.199 332.244 412.941 330.762 412.941 329.172V328.312C412.941 326.493 413.206 324.846 413.736 323.371C414.266 321.896 415.004 320.635 415.949 319.59C416.895 318.53 418.012 317.721 419.301 317.162C420.59 316.604 421.986 316.324 423.49 316.324C425.152 316.324 426.605 316.604 427.852 317.162C429.098 317.721 430.129 318.508 430.945 319.525C431.776 320.528 432.392 321.724 432.793 323.113C433.208 324.503 433.416 326.035 433.416 327.711V329.924H415.455V326.207H428.303V325.799C428.274 324.868 428.088 323.994 427.744 323.178C427.415 322.361 426.906 321.702 426.219 321.201C425.531 320.7 424.615 320.449 423.469 320.449C422.609 320.449 421.843 320.635 421.17 321.008C420.511 321.366 419.96 321.889 419.516 322.576C419.072 323.264 418.728 324.094 418.484 325.068C418.255 326.028 418.141 327.109 418.141 328.312V329.172C418.141 330.189 418.277 331.134 418.549 332.008C418.835 332.867 419.251 333.619 419.795 334.264C420.339 334.908 420.998 335.417 421.771 335.789C422.545 336.147 423.426 336.326 424.414 336.326C425.66 336.326 426.77 336.076 427.744 335.574C428.718 335.073 429.563 334.364 430.279 333.447L433.008 336.09C432.507 336.82 431.855 337.522 431.053 338.195C430.251 338.854 429.27 339.391 428.109 339.807C426.964 340.222 425.632 340.43 424.113 340.43ZM465.385 331.943C465.385 331.299 465.285 330.726 465.084 330.225C464.898 329.723 464.561 329.265 464.074 328.85C463.587 328.434 462.9 328.033 462.012 327.646C461.138 327.245 460.021 326.837 458.66 326.422C457.171 325.964 455.796 325.455 454.535 324.896C453.289 324.324 452.201 323.665 451.27 322.92C450.339 322.161 449.615 321.294 449.1 320.32C448.584 319.332 448.326 318.193 448.326 316.904C448.326 315.63 448.591 314.469 449.121 313.424C449.665 312.378 450.432 311.476 451.42 310.717C452.423 309.943 453.604 309.349 454.965 308.934C456.326 308.504 457.829 308.289 459.477 308.289C461.797 308.289 463.795 308.719 465.471 309.578C467.161 310.438 468.457 311.59 469.359 313.037C470.276 314.484 470.734 316.081 470.734 317.828H465.385C465.385 316.797 465.163 315.887 464.719 315.1C464.289 314.298 463.63 313.667 462.742 313.209C461.868 312.751 460.758 312.521 459.412 312.521C458.137 312.521 457.077 312.715 456.232 313.102C455.387 313.488 454.757 314.011 454.342 314.67C453.926 315.329 453.719 316.074 453.719 316.904C453.719 317.492 453.855 318.029 454.127 318.516C454.399 318.988 454.814 319.432 455.373 319.848C455.932 320.249 456.633 320.628 457.479 320.986C458.324 321.344 459.319 321.688 460.465 322.018C462.198 322.533 463.709 323.106 464.998 323.736C466.287 324.352 467.361 325.054 468.221 325.842C469.08 326.63 469.725 327.525 470.154 328.527C470.584 329.516 470.799 330.64 470.799 331.9C470.799 333.218 470.534 334.407 470.004 335.467C469.474 336.512 468.715 337.408 467.727 338.152C466.753 338.883 465.578 339.449 464.203 339.85C462.842 340.236 461.324 340.43 459.648 340.43C458.145 340.43 456.662 340.229 455.201 339.828C453.755 339.427 452.437 338.818 451.248 338.002C450.059 337.171 449.114 336.14 448.412 334.908C447.71 333.662 447.359 332.208 447.359 330.547H452.752C452.752 331.564 452.924 332.43 453.268 333.146C453.626 333.863 454.12 334.45 454.75 334.908C455.38 335.352 456.111 335.682 456.941 335.896C457.786 336.111 458.689 336.219 459.648 336.219C460.909 336.219 461.962 336.04 462.807 335.682C463.666 335.324 464.311 334.822 464.74 334.178C465.17 333.533 465.385 332.788 465.385 331.943ZM485.301 340.43C483.582 340.43 482.028 340.15 480.639 339.592C479.264 339.019 478.089 338.224 477.115 337.207C476.156 336.19 475.418 334.994 474.902 333.619C474.387 332.244 474.129 330.762 474.129 329.172V328.312C474.129 326.493 474.394 324.846 474.924 323.371C475.454 321.896 476.191 320.635 477.137 319.59C478.082 318.53 479.199 317.721 480.488 317.162C481.777 316.604 483.174 316.324 484.678 316.324C486.339 316.324 487.793 316.604 489.039 317.162C490.285 317.721 491.316 318.508 492.133 319.525C492.964 320.528 493.579 321.724 493.98 323.113C494.396 324.503 494.604 326.035 494.604 327.711V329.924H476.643V326.207H489.49V325.799C489.462 324.868 489.275 323.994 488.932 323.178C488.602 322.361 488.094 321.702 487.406 321.201C486.719 320.7 485.802 320.449 484.656 320.449C483.797 320.449 483.031 320.635 482.357 321.008C481.699 321.366 481.147 321.889 480.703 322.576C480.259 323.264 479.915 324.094 479.672 325.068C479.443 326.028 479.328 327.109 479.328 328.312V329.172C479.328 330.189 479.464 331.134 479.736 332.008C480.023 332.867 480.438 333.619 480.982 334.264C481.527 334.908 482.186 335.417 482.959 335.789C483.732 336.147 484.613 336.326 485.602 336.326C486.848 336.326 487.958 336.076 488.932 335.574C489.906 335.073 490.751 334.364 491.467 333.447L494.195 336.09C493.694 336.82 493.042 337.522 492.24 338.195C491.438 338.854 490.457 339.391 489.297 339.807C488.151 340.222 486.819 340.43 485.301 340.43ZM508.139 336.305C508.984 336.305 509.743 336.14 510.416 335.811C511.104 335.467 511.655 334.994 512.07 334.393C512.5 333.791 512.736 333.096 512.779 332.309H517.656C517.628 333.812 517.184 335.18 516.324 336.412C515.465 337.644 514.326 338.625 512.908 339.355C511.49 340.072 509.922 340.43 508.203 340.43C506.427 340.43 504.88 340.129 503.562 339.527C502.245 338.911 501.149 338.066 500.275 336.992C499.402 335.918 498.743 334.679 498.299 333.275C497.869 331.872 497.654 330.368 497.654 328.764V328.012C497.654 326.408 497.869 324.904 498.299 323.5C498.743 322.082 499.402 320.836 500.275 319.762C501.149 318.688 502.245 317.85 503.562 317.248C504.88 316.632 506.42 316.324 508.182 316.324C510.044 316.324 511.676 316.697 513.08 317.441C514.484 318.172 515.587 319.196 516.389 320.514C517.205 321.817 517.628 323.335 517.656 325.068H512.779C512.736 324.209 512.521 323.436 512.135 322.748C511.762 322.046 511.232 321.488 510.545 321.072C509.872 320.657 509.062 320.449 508.117 320.449C507.072 320.449 506.205 320.664 505.518 321.094C504.83 321.509 504.293 322.082 503.906 322.812C503.52 323.529 503.24 324.338 503.068 325.24C502.911 326.128 502.832 327.052 502.832 328.012V328.764C502.832 329.723 502.911 330.654 503.068 331.557C503.226 332.459 503.498 333.268 503.885 333.984C504.286 334.686 504.83 335.252 505.518 335.682C506.205 336.097 507.079 336.305 508.139 336.305ZM535.617 334.521V316.754H540.816V340H535.918L535.617 334.521ZM536.348 329.688L538.088 329.645C538.088 331.206 537.916 332.645 537.572 333.963C537.229 335.266 536.699 336.405 535.982 337.379C535.266 338.339 534.35 339.09 533.232 339.635C532.115 340.165 530.776 340.43 529.215 340.43C528.083 340.43 527.045 340.265 526.1 339.936C525.154 339.606 524.338 339.098 523.65 338.41C522.977 337.723 522.454 336.827 522.082 335.725C521.71 334.622 521.523 333.304 521.523 331.771V316.754H526.701V331.814C526.701 332.66 526.801 333.368 527.002 333.941C527.202 334.5 527.475 334.951 527.818 335.295C528.162 335.639 528.563 335.882 529.021 336.025C529.48 336.169 529.967 336.24 530.482 336.24C531.958 336.24 533.118 335.954 533.963 335.381C534.822 334.794 535.431 334.006 535.789 333.018C536.161 332.029 536.348 330.919 536.348 329.688ZM551.322 321.18V340H546.145V316.754H551.086L551.322 321.18ZM558.434 316.604L558.391 321.416C558.076 321.359 557.732 321.316 557.359 321.287C557.001 321.258 556.643 321.244 556.285 321.244C555.397 321.244 554.617 321.373 553.943 321.631C553.27 321.874 552.704 322.232 552.246 322.705C551.802 323.163 551.458 323.722 551.215 324.381C550.971 325.04 550.828 325.777 550.785 326.594L549.604 326.68C549.604 325.219 549.747 323.865 550.033 322.619C550.32 321.373 550.749 320.277 551.322 319.332C551.91 318.387 552.64 317.649 553.514 317.119C554.402 316.589 555.426 316.324 556.586 316.324C556.901 316.324 557.238 316.353 557.596 316.41C557.968 316.467 558.247 316.532 558.434 316.604ZM567.221 316.754V340H562.021V316.754H567.221ZM561.678 310.652C561.678 309.865 561.936 309.213 562.451 308.697C562.981 308.167 563.712 307.902 564.643 307.902C565.559 307.902 566.283 308.167 566.812 308.697C567.342 309.213 567.607 309.865 567.607 310.652C567.607 311.426 567.342 312.07 566.812 312.586C566.283 313.102 565.559 313.359 564.643 313.359C563.712 313.359 562.981 313.102 562.451 312.586C561.936 312.07 561.678 311.426 561.678 310.652ZM583.549 316.754V320.535H570.443V316.754H583.549ZM574.225 311.061H579.402V333.576C579.402 334.292 579.503 334.844 579.703 335.23C579.918 335.603 580.212 335.854 580.584 335.982C580.956 336.111 581.393 336.176 581.895 336.176C582.253 336.176 582.596 336.154 582.926 336.111C583.255 336.068 583.52 336.025 583.721 335.982L583.742 339.936C583.312 340.064 582.811 340.179 582.238 340.279C581.68 340.38 581.035 340.43 580.305 340.43C579.116 340.43 578.063 340.222 577.146 339.807C576.23 339.377 575.514 338.682 574.998 337.723C574.482 336.763 574.225 335.488 574.225 333.898V311.061ZM594.291 337.465L600.607 316.754H606.15L596.826 343.545C596.611 344.118 596.332 344.741 595.988 345.414C595.645 346.087 595.193 346.725 594.635 347.326C594.09 347.942 593.41 348.436 592.594 348.809C591.777 349.195 590.789 349.389 589.629 349.389C589.171 349.389 588.727 349.346 588.297 349.26C587.882 349.188 587.488 349.109 587.115 349.023L587.094 345.07C587.237 345.085 587.409 345.099 587.609 345.113C587.824 345.128 587.996 345.135 588.125 345.135C588.984 345.135 589.701 345.027 590.273 344.812C590.846 344.612 591.312 344.283 591.67 343.824C592.042 343.366 592.357 342.75 592.615 341.977L594.291 337.465ZM590.725 316.754L596.246 334.156L597.17 339.613L593.582 340.537L585.139 316.754H590.725Z" fill="#30486E"/>
<path d="M160.672 706.943C160.672 706.299 160.572 705.726 160.371 705.225C160.185 704.723 159.848 704.265 159.361 703.85C158.874 703.434 158.187 703.033 157.299 702.646C156.425 702.245 155.308 701.837 153.947 701.422C152.458 700.964 151.083 700.455 149.822 699.896C148.576 699.324 147.488 698.665 146.557 697.92C145.626 697.161 144.902 696.294 144.387 695.32C143.871 694.332 143.613 693.193 143.613 691.904C143.613 690.63 143.878 689.469 144.408 688.424C144.952 687.378 145.719 686.476 146.707 685.717C147.71 684.943 148.891 684.349 150.252 683.934C151.613 683.504 153.117 683.289 154.764 683.289C157.084 683.289 159.082 683.719 160.758 684.578C162.448 685.438 163.744 686.59 164.646 688.037C165.563 689.484 166.021 691.081 166.021 692.828H160.672C160.672 691.797 160.45 690.887 160.006 690.1C159.576 689.298 158.917 688.667 158.029 688.209C157.156 687.751 156.046 687.521 154.699 687.521C153.424 687.521 152.365 687.715 151.52 688.102C150.674 688.488 150.044 689.011 149.629 689.67C149.214 690.329 149.006 691.074 149.006 691.904C149.006 692.492 149.142 693.029 149.414 693.516C149.686 693.988 150.102 694.432 150.66 694.848C151.219 695.249 151.921 695.628 152.766 695.986C153.611 696.344 154.606 696.688 155.752 697.018C157.485 697.533 158.996 698.106 160.285 698.736C161.574 699.352 162.648 700.054 163.508 700.842C164.367 701.63 165.012 702.525 165.441 703.527C165.871 704.516 166.086 705.64 166.086 706.9C166.086 708.218 165.821 709.407 165.291 710.467C164.761 711.512 164.002 712.408 163.014 713.152C162.04 713.883 160.865 714.449 159.49 714.85C158.13 715.236 156.611 715.43 154.936 715.43C153.432 715.43 151.949 715.229 150.488 714.828C149.042 714.427 147.724 713.818 146.535 713.002C145.346 712.171 144.401 711.14 143.699 709.908C142.997 708.662 142.646 707.208 142.646 705.547H148.039C148.039 706.564 148.211 707.43 148.555 708.146C148.913 708.863 149.407 709.45 150.037 709.908C150.667 710.352 151.398 710.682 152.229 710.896C153.074 711.111 153.976 711.219 154.936 711.219C156.196 711.219 157.249 711.04 158.094 710.682C158.953 710.324 159.598 709.822 160.027 709.178C160.457 708.533 160.672 707.788 160.672 706.943ZM177.086 712.465L183.402 691.754H188.945L179.621 718.545C179.406 719.118 179.127 719.741 178.783 720.414C178.439 721.087 177.988 721.725 177.43 722.326C176.885 722.942 176.205 723.436 175.389 723.809C174.572 724.195 173.584 724.389 172.424 724.389C171.965 724.389 171.521 724.346 171.092 724.26C170.676 724.188 170.283 724.109 169.91 724.023L169.889 720.07C170.032 720.085 170.204 720.099 170.404 720.113C170.619 720.128 170.791 720.135 170.92 720.135C171.779 720.135 172.495 720.027 173.068 719.812C173.641 719.612 174.107 719.283 174.465 718.824C174.837 718.366 175.152 717.75 175.41 716.977L177.086 712.465ZM173.52 691.754L179.041 709.156L179.965 714.613L176.377 715.537L167.934 691.754H173.52ZM204.951 708.705C204.951 708.189 204.822 707.724 204.564 707.309C204.307 706.879 203.812 706.492 203.082 706.148C202.366 705.805 201.306 705.49 199.902 705.203C198.671 704.931 197.539 704.609 196.508 704.236C195.491 703.85 194.617 703.384 193.887 702.84C193.156 702.296 192.59 701.651 192.189 700.906C191.788 700.161 191.588 699.302 191.588 698.328C191.588 697.383 191.796 696.488 192.211 695.643C192.626 694.798 193.221 694.053 193.994 693.408C194.768 692.764 195.706 692.255 196.809 691.883C197.926 691.51 199.172 691.324 200.547 691.324C202.495 691.324 204.163 691.654 205.553 692.312C206.956 692.957 208.031 693.838 208.775 694.955C209.52 696.058 209.893 697.304 209.893 698.693H204.715C204.715 698.077 204.557 697.505 204.242 696.975C203.941 696.43 203.483 695.993 202.867 695.664C202.251 695.32 201.478 695.148 200.547 695.148C199.659 695.148 198.921 695.292 198.334 695.578C197.761 695.85 197.331 696.208 197.045 696.652C196.773 697.096 196.637 697.583 196.637 698.113C196.637 698.5 196.708 698.851 196.852 699.166C197.009 699.467 197.267 699.746 197.625 700.004C197.983 700.247 198.47 700.477 199.086 700.691C199.716 700.906 200.504 701.114 201.449 701.314C203.225 701.687 204.751 702.167 206.025 702.754C207.314 703.327 208.303 704.072 208.99 704.988C209.678 705.891 210.021 707.036 210.021 708.426C210.021 709.457 209.799 710.402 209.355 711.262C208.926 712.107 208.296 712.844 207.465 713.475C206.634 714.09 205.639 714.57 204.479 714.914C203.333 715.258 202.044 715.43 200.611 715.43C198.506 715.43 196.723 715.057 195.262 714.312C193.801 713.553 192.691 712.587 191.932 711.412C191.187 710.223 190.814 708.992 190.814 707.717H195.82C195.878 708.676 196.143 709.443 196.615 710.016C197.102 710.574 197.704 710.982 198.42 711.24C199.15 711.484 199.902 711.605 200.676 711.605C201.607 711.605 202.387 711.484 203.018 711.24C203.648 710.982 204.128 710.639 204.457 710.209C204.786 709.765 204.951 709.264 204.951 708.705ZM225.211 691.754V695.535H212.105V691.754H225.211ZM215.887 686.061H221.064V708.576C221.064 709.292 221.165 709.844 221.365 710.23C221.58 710.603 221.874 710.854 222.246 710.982C222.618 711.111 223.055 711.176 223.557 711.176C223.915 711.176 224.258 711.154 224.588 711.111C224.917 711.068 225.182 711.025 225.383 710.982L225.404 714.936C224.975 715.064 224.473 715.179 223.9 715.279C223.342 715.38 222.697 715.43 221.967 715.43C220.778 715.43 219.725 715.222 218.809 714.807C217.892 714.377 217.176 713.682 216.66 712.723C216.145 711.763 215.887 710.488 215.887 708.898V686.061ZM239.455 715.43C237.736 715.43 236.182 715.15 234.793 714.592C233.418 714.019 232.243 713.224 231.27 712.207C230.31 711.19 229.572 709.994 229.057 708.619C228.541 707.244 228.283 705.762 228.283 704.172V703.312C228.283 701.493 228.548 699.846 229.078 698.371C229.608 696.896 230.346 695.635 231.291 694.59C232.236 693.53 233.354 692.721 234.643 692.162C235.932 691.604 237.328 691.324 238.832 691.324C240.493 691.324 241.947 691.604 243.193 692.162C244.439 692.721 245.471 693.508 246.287 694.525C247.118 695.528 247.734 696.724 248.135 698.113C248.55 699.503 248.758 701.035 248.758 702.711V704.924H230.797V701.207H243.645V700.799C243.616 699.868 243.43 698.994 243.086 698.178C242.757 697.361 242.248 696.702 241.561 696.201C240.873 695.7 239.956 695.449 238.811 695.449C237.951 695.449 237.185 695.635 236.512 696.008C235.853 696.366 235.301 696.889 234.857 697.576C234.413 698.264 234.07 699.094 233.826 700.068C233.597 701.028 233.482 702.109 233.482 703.312V704.172C233.482 705.189 233.618 706.134 233.891 707.008C234.177 707.867 234.592 708.619 235.137 709.264C235.681 709.908 236.34 710.417 237.113 710.789C237.887 711.147 238.768 711.326 239.756 711.326C241.002 711.326 242.112 711.076 243.086 710.574C244.06 710.073 244.905 709.364 245.621 708.447L248.35 711.09C247.848 711.82 247.197 712.522 246.395 713.195C245.592 713.854 244.611 714.391 243.451 714.807C242.305 715.222 240.973 715.43 239.455 715.43ZM257.975 696.48V715H252.797V691.754H257.674L257.975 696.48ZM257.137 702.518L255.375 702.496C255.375 700.892 255.576 699.41 255.977 698.049C256.378 696.688 256.965 695.507 257.738 694.504C258.512 693.487 259.471 692.706 260.617 692.162C261.777 691.604 263.117 691.324 264.635 691.324C265.695 691.324 266.661 691.482 267.535 691.797C268.423 692.098 269.189 692.577 269.834 693.236C270.493 693.895 270.994 694.74 271.338 695.771C271.696 696.803 271.875 698.049 271.875 699.51V715H266.697V699.961C266.697 698.829 266.525 697.941 266.182 697.297C265.852 696.652 265.372 696.194 264.742 695.922C264.126 695.635 263.389 695.492 262.529 695.492C261.555 695.492 260.725 695.678 260.037 696.051C259.364 696.423 258.812 696.932 258.383 697.576C257.953 698.221 257.638 698.965 257.438 699.811C257.237 700.656 257.137 701.558 257.137 702.518ZM271.553 701.143L269.125 701.68C269.125 700.276 269.318 698.951 269.705 697.705C270.106 696.445 270.686 695.342 271.445 694.396C272.219 693.437 273.171 692.685 274.303 692.141C275.434 691.596 276.73 691.324 278.191 691.324C279.38 691.324 280.44 691.489 281.371 691.818C282.316 692.133 283.118 692.635 283.777 693.322C284.436 694.01 284.938 694.905 285.281 696.008C285.625 697.096 285.797 698.414 285.797 699.961V715H280.598V699.939C280.598 698.765 280.426 697.855 280.082 697.211C279.753 696.566 279.28 696.122 278.664 695.879C278.048 695.621 277.311 695.492 276.451 695.492C275.649 695.492 274.94 695.643 274.324 695.943C273.723 696.23 273.214 696.638 272.799 697.168C272.383 697.684 272.068 698.278 271.854 698.951C271.653 699.624 271.553 700.355 271.553 701.143ZM304.23 710.338V699.252C304.23 698.421 304.08 697.705 303.779 697.104C303.479 696.502 303.02 696.036 302.404 695.707C301.803 695.378 301.044 695.213 300.127 695.213C299.282 695.213 298.551 695.356 297.936 695.643C297.32 695.929 296.84 696.316 296.496 696.803C296.152 697.29 295.98 697.841 295.98 698.457H290.824C290.824 697.54 291.046 696.652 291.49 695.793C291.934 694.934 292.579 694.167 293.424 693.494C294.269 692.821 295.279 692.291 296.453 691.904C297.628 691.518 298.945 691.324 300.406 691.324C302.154 691.324 303.701 691.618 305.047 692.205C306.408 692.792 307.475 693.68 308.248 694.869C309.036 696.044 309.43 697.519 309.43 699.295V709.629C309.43 710.689 309.501 711.641 309.645 712.486C309.802 713.317 310.024 714.04 310.311 714.656V715H305.004C304.76 714.441 304.567 713.732 304.424 712.873C304.295 711.999 304.23 711.154 304.23 710.338ZM304.982 700.863L305.025 704.064H301.309C300.349 704.064 299.504 704.158 298.773 704.344C298.043 704.516 297.434 704.773 296.947 705.117C296.46 705.461 296.095 705.876 295.852 706.363C295.608 706.85 295.486 707.402 295.486 708.018C295.486 708.633 295.63 709.199 295.916 709.715C296.202 710.216 296.618 710.61 297.162 710.896C297.721 711.183 298.394 711.326 299.182 711.326C300.242 711.326 301.165 711.111 301.953 710.682C302.755 710.238 303.385 709.701 303.844 709.07C304.302 708.426 304.546 707.817 304.574 707.244L306.25 709.543C306.078 710.13 305.785 710.76 305.369 711.434C304.954 712.107 304.41 712.751 303.736 713.367C303.077 713.969 302.283 714.463 301.352 714.85C300.435 715.236 299.375 715.43 298.172 715.43C296.654 715.43 295.3 715.129 294.111 714.527C292.923 713.911 291.992 713.088 291.318 712.057C290.645 711.011 290.309 709.829 290.309 708.512C290.309 707.28 290.538 706.191 290.996 705.246C291.469 704.286 292.156 703.484 293.059 702.84C293.975 702.195 295.092 701.708 296.41 701.379C297.728 701.035 299.232 700.863 300.922 700.863H304.982ZM325.5 691.754V695.535H312.395V691.754H325.5ZM316.176 686.061H321.354V708.576C321.354 709.292 321.454 709.844 321.654 710.23C321.869 710.603 322.163 710.854 322.535 710.982C322.908 711.111 323.344 711.176 323.846 711.176C324.204 711.176 324.548 711.154 324.877 711.111C325.206 711.068 325.471 711.025 325.672 710.982L325.693 714.936C325.264 715.064 324.762 715.179 324.189 715.279C323.631 715.38 322.986 715.43 322.256 715.43C321.067 715.43 320.014 715.222 319.098 714.807C318.181 714.377 317.465 713.682 316.949 712.723C316.434 711.763 316.176 710.488 316.176 708.898V686.061ZM335.039 691.754V715H329.84V691.754H335.039ZM329.496 685.652C329.496 684.865 329.754 684.213 330.27 683.697C330.799 683.167 331.53 682.902 332.461 682.902C333.378 682.902 334.101 683.167 334.631 683.697C335.161 684.213 335.426 684.865 335.426 685.652C335.426 686.426 335.161 687.07 334.631 687.586C334.101 688.102 333.378 688.359 332.461 688.359C331.53 688.359 330.799 688.102 330.27 687.586C329.754 687.07 329.496 686.426 329.496 685.652ZM350.207 711.305C351.052 711.305 351.811 711.14 352.484 710.811C353.172 710.467 353.723 709.994 354.139 709.393C354.568 708.791 354.805 708.096 354.848 707.309H359.725C359.696 708.812 359.252 710.18 358.393 711.412C357.533 712.644 356.395 713.625 354.977 714.355C353.559 715.072 351.99 715.43 350.271 715.43C348.495 715.43 346.949 715.129 345.631 714.527C344.313 713.911 343.217 713.066 342.344 711.992C341.47 710.918 340.811 709.679 340.367 708.275C339.938 706.872 339.723 705.368 339.723 703.764V703.012C339.723 701.408 339.938 699.904 340.367 698.5C340.811 697.082 341.47 695.836 342.344 694.762C343.217 693.688 344.313 692.85 345.631 692.248C346.949 691.632 348.488 691.324 350.25 691.324C352.112 691.324 353.745 691.697 355.148 692.441C356.552 693.172 357.655 694.196 358.457 695.514C359.273 696.817 359.696 698.335 359.725 700.068H354.848C354.805 699.209 354.59 698.436 354.203 697.748C353.831 697.046 353.301 696.488 352.613 696.072C351.94 695.657 351.131 695.449 350.186 695.449C349.14 695.449 348.273 695.664 347.586 696.094C346.898 696.509 346.361 697.082 345.975 697.812C345.588 698.529 345.309 699.338 345.137 700.24C344.979 701.128 344.9 702.052 344.9 703.012V703.764C344.9 704.723 344.979 705.654 345.137 706.557C345.294 707.459 345.566 708.268 345.953 708.984C346.354 709.686 346.898 710.252 347.586 710.682C348.273 711.097 349.147 711.305 350.207 711.305ZM375.172 683.719H386.236C388.614 683.719 390.641 684.077 392.316 684.793C393.992 685.509 395.274 686.569 396.162 687.973C397.064 689.362 397.516 691.081 397.516 693.129C397.516 694.69 397.229 696.065 396.656 697.254C396.083 698.443 395.274 699.445 394.229 700.262C393.183 701.064 391.937 701.687 390.49 702.131L388.857 702.926H378.91L378.867 698.65H386.322C387.611 698.65 388.686 698.421 389.545 697.963C390.404 697.505 391.049 696.882 391.479 696.094C391.923 695.292 392.145 694.389 392.145 693.387C392.145 692.298 391.93 691.353 391.5 690.551C391.085 689.734 390.44 689.111 389.566 688.682C388.693 688.238 387.583 688.016 386.236 688.016H380.564V715H375.172V683.719ZM393.025 715L385.678 700.949L391.328 700.928L398.783 714.721V715H393.025ZM412.619 715.43C410.9 715.43 409.346 715.15 407.957 714.592C406.582 714.019 405.408 713.224 404.434 712.207C403.474 711.19 402.736 709.994 402.221 708.619C401.705 707.244 401.447 705.762 401.447 704.172V703.312C401.447 701.493 401.712 699.846 402.242 698.371C402.772 696.896 403.51 695.635 404.455 694.59C405.4 693.53 406.518 692.721 407.807 692.162C409.096 691.604 410.492 691.324 411.996 691.324C413.658 691.324 415.111 691.604 416.357 692.162C417.604 692.721 418.635 693.508 419.451 694.525C420.282 695.528 420.898 696.724 421.299 698.113C421.714 699.503 421.922 701.035 421.922 702.711V704.924H403.961V701.207H416.809V700.799C416.78 699.868 416.594 698.994 416.25 698.178C415.921 697.361 415.412 696.702 414.725 696.201C414.037 695.7 413.12 695.449 411.975 695.449C411.115 695.449 410.349 695.635 409.676 696.008C409.017 696.366 408.465 696.889 408.021 697.576C407.577 698.264 407.234 699.094 406.99 700.068C406.761 701.028 406.646 702.109 406.646 703.312V704.172C406.646 705.189 406.783 706.134 407.055 707.008C407.341 707.867 407.757 708.619 408.301 709.264C408.845 709.908 409.504 710.417 410.277 710.789C411.051 711.147 411.932 711.326 412.92 711.326C414.166 711.326 415.276 711.076 416.25 710.574C417.224 710.073 418.069 709.364 418.785 708.447L421.514 711.09C421.012 711.82 420.361 712.522 419.559 713.195C418.757 713.854 417.775 714.391 416.615 714.807C415.469 715.222 414.137 715.43 412.619 715.43ZM435.457 711.305C436.302 711.305 437.061 711.14 437.734 710.811C438.422 710.467 438.973 709.994 439.389 709.393C439.818 708.791 440.055 708.096 440.098 707.309H444.975C444.946 708.812 444.502 710.18 443.643 711.412C442.783 712.644 441.645 713.625 440.227 714.355C438.809 715.072 437.24 715.43 435.521 715.43C433.745 715.43 432.199 715.129 430.881 714.527C429.563 713.911 428.467 713.066 427.594 711.992C426.72 710.918 426.061 709.679 425.617 708.275C425.188 706.872 424.973 705.368 424.973 703.764V703.012C424.973 701.408 425.188 699.904 425.617 698.5C426.061 697.082 426.72 695.836 427.594 694.762C428.467 693.688 429.563 692.85 430.881 692.248C432.199 691.632 433.738 691.324 435.5 691.324C437.362 691.324 438.995 691.697 440.398 692.441C441.802 693.172 442.905 694.196 443.707 695.514C444.523 696.817 444.946 698.335 444.975 700.068H440.098C440.055 699.209 439.84 698.436 439.453 697.748C439.081 697.046 438.551 696.488 437.863 696.072C437.19 695.657 436.381 695.449 435.436 695.449C434.39 695.449 433.523 695.664 432.836 696.094C432.148 696.509 431.611 697.082 431.225 697.812C430.838 698.529 430.559 699.338 430.387 700.24C430.229 701.128 430.15 702.052 430.15 703.012V703.764C430.15 704.723 430.229 705.654 430.387 706.557C430.544 707.459 430.816 708.268 431.203 708.984C431.604 709.686 432.148 710.252 432.836 710.682C433.523 711.097 434.397 711.305 435.457 711.305ZM447.961 703.635V703.141C447.961 701.465 448.204 699.911 448.691 698.479C449.178 697.032 449.88 695.779 450.797 694.719C451.728 693.645 452.859 692.814 454.191 692.227C455.538 691.625 457.056 691.324 458.746 691.324C460.451 691.324 461.969 691.625 463.301 692.227C464.647 692.814 465.786 693.645 466.717 694.719C467.648 695.779 468.357 697.032 468.844 698.479C469.331 699.911 469.574 701.465 469.574 703.141V703.635C469.574 705.311 469.331 706.865 468.844 708.297C468.357 709.729 467.648 710.982 466.717 712.057C465.786 713.117 464.654 713.947 463.322 714.549C461.99 715.136 460.479 715.43 458.789 715.43C457.085 715.43 455.559 715.136 454.213 714.549C452.881 713.947 451.749 713.117 450.818 712.057C449.887 710.982 449.178 709.729 448.691 708.297C448.204 706.865 447.961 705.311 447.961 703.635ZM453.139 703.141V703.635C453.139 704.68 453.246 705.669 453.461 706.6C453.676 707.531 454.012 708.347 454.471 709.049C454.929 709.751 455.516 710.302 456.232 710.703C456.949 711.104 457.801 711.305 458.789 711.305C459.749 711.305 460.579 711.104 461.281 710.703C461.997 710.302 462.585 709.751 463.043 709.049C463.501 708.347 463.838 707.531 464.053 706.6C464.282 705.669 464.396 704.68 464.396 703.635V703.141C464.396 702.109 464.282 701.135 464.053 700.219C463.838 699.288 463.494 698.464 463.021 697.748C462.563 697.032 461.976 696.473 461.26 696.072C460.558 695.657 459.72 695.449 458.746 695.449C457.772 695.449 456.927 695.657 456.211 696.072C455.509 696.473 454.929 697.032 454.471 697.748C454.012 698.464 453.676 699.288 453.461 700.219C453.246 701.135 453.139 702.109 453.139 703.141ZM479.113 696.18V715H473.936V691.754H478.877L479.113 696.18ZM486.225 691.604L486.182 696.416C485.867 696.359 485.523 696.316 485.15 696.287C484.792 696.258 484.434 696.244 484.076 696.244C483.188 696.244 482.408 696.373 481.734 696.631C481.061 696.874 480.495 697.232 480.037 697.705C479.593 698.163 479.249 698.722 479.006 699.381C478.762 700.04 478.619 700.777 478.576 701.594L477.395 701.68C477.395 700.219 477.538 698.865 477.824 697.619C478.111 696.373 478.54 695.277 479.113 694.332C479.701 693.387 480.431 692.649 481.305 692.119C482.193 691.589 483.217 691.324 484.377 691.324C484.692 691.324 485.029 691.353 485.387 691.41C485.759 691.467 486.038 691.532 486.225 691.604ZM503.219 710.188V682H508.418V715H503.713L503.219 710.188ZM488.094 703.635V703.184C488.094 701.422 488.301 699.818 488.717 698.371C489.132 696.91 489.734 695.657 490.521 694.611C491.309 693.551 492.269 692.742 493.4 692.184C494.532 691.611 495.807 691.324 497.225 691.324C498.628 691.324 499.86 691.596 500.92 692.141C501.98 692.685 502.882 693.465 503.627 694.482C504.372 695.485 504.966 696.688 505.41 698.092C505.854 699.481 506.169 701.028 506.355 702.732V704.172C506.169 705.833 505.854 707.352 505.41 708.727C504.966 710.102 504.372 711.29 503.627 712.293C502.882 713.296 501.973 714.069 500.898 714.613C499.839 715.158 498.6 715.43 497.182 715.43C495.778 715.43 494.51 715.136 493.379 714.549C492.262 713.962 491.309 713.138 490.521 712.078C489.734 711.018 489.132 709.772 488.717 708.34C488.301 706.893 488.094 705.325 488.094 703.635ZM493.271 703.184V703.635C493.271 704.695 493.365 705.683 493.551 706.6C493.751 707.516 494.059 708.326 494.475 709.027C494.89 709.715 495.427 710.259 496.086 710.66C496.759 711.047 497.561 711.24 498.492 711.24C499.667 711.24 500.633 710.982 501.393 710.467C502.152 709.951 502.746 709.257 503.176 708.383C503.62 707.495 503.921 706.507 504.078 705.418V701.529C503.992 700.684 503.813 699.896 503.541 699.166C503.283 698.436 502.932 697.798 502.488 697.254C502.044 696.695 501.493 696.266 500.834 695.965C500.189 695.65 499.423 695.492 498.535 695.492C497.59 695.492 496.788 695.693 496.129 696.094C495.47 696.495 494.926 697.046 494.496 697.748C494.081 698.45 493.773 699.266 493.572 700.197C493.372 701.128 493.271 702.124 493.271 703.184ZM524.252 699.574V703.699H512.887V699.574H524.252ZM534.693 683.719V715H529.301V683.719H534.693ZM553.492 683.719L540.816 698.779L533.598 706.428L532.652 701.078L537.809 694.719L546.918 683.719H553.492ZM547.691 715L537.4 700.176L541.117 696.502L554.094 715H547.691ZM566.275 715.43C564.557 715.43 563.003 715.15 561.613 714.592C560.238 714.019 559.064 713.224 558.09 712.207C557.13 711.19 556.393 709.994 555.877 708.619C555.361 707.244 555.104 705.762 555.104 704.172V703.312C555.104 701.493 555.368 699.846 555.898 698.371C556.428 696.896 557.166 695.635 558.111 694.59C559.057 693.53 560.174 692.721 561.463 692.162C562.752 691.604 564.148 691.324 565.652 691.324C567.314 691.324 568.768 691.604 570.014 692.162C571.26 692.721 572.291 693.508 573.107 694.525C573.938 695.528 574.554 696.724 574.955 698.113C575.37 699.503 575.578 701.035 575.578 702.711V704.924H557.617V701.207H570.465V700.799C570.436 699.868 570.25 698.994 569.906 698.178C569.577 697.361 569.068 696.702 568.381 696.201C567.693 695.7 566.777 695.449 565.631 695.449C564.771 695.449 564.005 695.635 563.332 696.008C562.673 696.366 562.122 696.889 561.678 697.576C561.234 698.264 560.89 699.094 560.646 700.068C560.417 701.028 560.303 702.109 560.303 703.312V704.172C560.303 705.189 560.439 706.134 560.711 707.008C560.997 707.867 561.413 708.619 561.957 709.264C562.501 709.908 563.16 710.417 563.934 710.789C564.707 711.147 565.588 711.326 566.576 711.326C567.822 711.326 568.932 711.076 569.906 710.574C570.88 710.073 571.725 709.364 572.441 708.447L575.17 711.09C574.669 711.82 574.017 712.522 573.215 713.195C572.413 713.854 571.432 714.391 570.271 714.807C569.126 715.222 567.794 715.43 566.275 715.43ZM589.865 715.43C588.146 715.43 586.592 715.15 585.203 714.592C583.828 714.019 582.654 713.224 581.68 712.207C580.72 711.19 579.982 709.994 579.467 708.619C578.951 707.244 578.693 705.762 578.693 704.172V703.312C578.693 701.493 578.958 699.846 579.488 698.371C580.018 696.896 580.756 695.635 581.701 694.59C582.646 693.53 583.764 692.721 585.053 692.162C586.342 691.604 587.738 691.324 589.242 691.324C590.904 691.324 592.357 691.604 593.604 692.162C594.85 692.721 595.881 693.508 596.697 694.525C597.528 695.528 598.144 696.724 598.545 698.113C598.96 699.503 599.168 701.035 599.168 702.711V704.924H581.207V701.207H594.055V700.799C594.026 699.868 593.84 698.994 593.496 698.178C593.167 697.361 592.658 696.702 591.971 696.201C591.283 695.7 590.367 695.449 589.221 695.449C588.361 695.449 587.595 695.635 586.922 696.008C586.263 696.366 585.712 696.889 585.268 697.576C584.824 698.264 584.48 699.094 584.236 700.068C584.007 701.028 583.893 702.109 583.893 703.312V704.172C583.893 705.189 584.029 706.134 584.301 707.008C584.587 707.867 585.003 708.619 585.547 709.264C586.091 709.908 586.75 710.417 587.523 710.789C588.297 711.147 589.178 711.326 590.166 711.326C591.412 711.326 592.522 711.076 593.496 710.574C594.47 710.073 595.315 709.364 596.031 708.447L598.76 711.09C598.258 711.82 597.607 712.522 596.805 713.195C596.003 713.854 595.021 714.391 593.861 714.807C592.715 715.222 591.383 715.43 589.865 715.43ZM608.406 696.223V723.938H603.229V691.754H607.998L608.406 696.223ZM623.553 703.162V703.613C623.553 705.303 623.352 706.872 622.951 708.318C622.564 709.751 621.984 711.004 621.211 712.078C620.452 713.138 619.514 713.962 618.396 714.549C617.279 715.136 615.99 715.43 614.529 715.43C613.083 715.43 611.815 715.165 610.727 714.635C609.652 714.09 608.743 713.324 607.998 712.336C607.253 711.348 606.652 710.188 606.193 708.855C605.749 707.509 605.434 706.034 605.248 704.43V702.689C605.434 700.985 605.749 699.438 606.193 698.049C606.652 696.66 607.253 695.464 607.998 694.461C608.743 693.458 609.652 692.685 610.727 692.141C611.801 691.596 613.054 691.324 614.486 691.324C615.947 691.324 617.243 691.611 618.375 692.184C619.507 692.742 620.459 693.544 621.232 694.59C622.006 695.621 622.586 696.867 622.973 698.328C623.359 699.775 623.553 701.386 623.553 703.162ZM618.375 703.613V703.162C618.375 702.088 618.275 701.092 618.074 700.176C617.874 699.245 617.559 698.428 617.129 697.727C616.699 697.025 616.148 696.48 615.475 696.094C614.816 695.693 614.021 695.492 613.09 695.492C612.173 695.492 611.385 695.65 610.727 695.965C610.068 696.266 609.516 696.688 609.072 697.232C608.628 697.777 608.285 698.414 608.041 699.145C607.798 699.861 607.626 700.641 607.525 701.486V705.654C607.697 706.686 607.991 707.631 608.406 708.49C608.822 709.35 609.409 710.037 610.168 710.553C610.941 711.054 611.93 711.305 613.133 711.305C614.064 711.305 614.859 711.104 615.518 710.703C616.176 710.302 616.714 709.751 617.129 709.049C617.559 708.333 617.874 707.509 618.074 706.578C618.275 705.647 618.375 704.659 618.375 703.613ZM633.5 691.754V715H628.301V691.754H633.5ZM627.957 685.652C627.957 684.865 628.215 684.213 628.73 683.697C629.26 683.167 629.991 682.902 630.922 682.902C631.839 682.902 632.562 683.167 633.092 683.697C633.622 684.213 633.887 684.865 633.887 685.652C633.887 686.426 633.622 687.07 633.092 687.586C632.562 688.102 631.839 688.359 630.922 688.359C629.991 688.359 629.26 688.102 628.73 687.586C628.215 687.07 627.957 686.426 627.957 685.652ZM644.307 696.717V715H639.129V691.754H644.006L644.307 696.717ZM643.383 702.518L641.707 702.496C641.721 700.849 641.951 699.338 642.395 697.963C642.853 696.588 643.483 695.406 644.285 694.418C645.102 693.43 646.076 692.671 647.207 692.141C648.339 691.596 649.599 691.324 650.988 691.324C652.105 691.324 653.115 691.482 654.018 691.797C654.934 692.098 655.715 692.592 656.359 693.279C657.018 693.967 657.52 694.862 657.863 695.965C658.207 697.053 658.379 698.393 658.379 699.982V715H653.18V699.961C653.18 698.844 653.015 697.963 652.686 697.318C652.37 696.66 651.905 696.194 651.289 695.922C650.688 695.635 649.936 695.492 649.033 695.492C648.145 695.492 647.35 695.678 646.648 696.051C645.947 696.423 645.352 696.932 644.865 697.576C644.393 698.221 644.027 698.965 643.77 699.811C643.512 700.656 643.383 701.558 643.383 702.518ZM678.553 691.754H683.258V714.355C683.258 716.447 682.814 718.223 681.926 719.684C681.038 721.145 679.799 722.255 678.209 723.014C676.619 723.787 674.779 724.174 672.688 724.174C671.799 724.174 670.811 724.045 669.723 723.787C668.648 723.529 667.603 723.114 666.586 722.541C665.583 721.982 664.745 721.245 664.072 720.328L666.5 717.277C667.331 718.266 668.247 718.989 669.25 719.447C670.253 719.906 671.305 720.135 672.408 720.135C673.597 720.135 674.607 719.913 675.438 719.469C676.283 719.039 676.934 718.402 677.393 717.557C677.851 716.712 678.08 715.68 678.08 714.463V697.018L678.553 691.754ZM662.762 703.635V703.184C662.762 701.422 662.977 699.818 663.406 698.371C663.836 696.91 664.452 695.657 665.254 694.611C666.056 693.551 667.03 692.742 668.176 692.184C669.322 691.611 670.618 691.324 672.064 691.324C673.568 691.324 674.85 691.596 675.91 692.141C676.984 692.685 677.88 693.465 678.596 694.482C679.312 695.485 679.87 696.688 680.271 698.092C680.687 699.481 680.995 701.028 681.195 702.732V704.172C681.009 705.833 680.694 707.352 680.25 708.727C679.806 710.102 679.219 711.29 678.488 712.293C677.758 713.296 676.855 714.069 675.781 714.613C674.721 715.158 673.468 715.43 672.021 715.43C670.604 715.43 669.322 715.136 668.176 714.549C667.044 713.962 666.07 713.138 665.254 712.078C664.452 711.018 663.836 709.772 663.406 708.34C662.977 706.893 662.762 705.325 662.762 703.635ZM667.939 703.184V703.635C667.939 704.695 668.04 705.683 668.24 706.6C668.455 707.516 668.777 708.326 669.207 709.027C669.651 709.715 670.21 710.259 670.883 710.66C671.57 711.047 672.38 711.24 673.311 711.24C674.528 711.24 675.523 710.982 676.297 710.467C677.085 709.951 677.686 709.257 678.102 708.383C678.531 707.495 678.832 706.507 679.004 705.418V701.529C678.918 700.684 678.739 699.896 678.467 699.166C678.209 698.436 677.858 697.798 677.414 697.254C676.97 696.695 676.411 696.266 675.738 695.965C675.065 695.65 674.27 695.492 673.354 695.492C672.423 695.492 671.613 695.693 670.926 696.094C670.238 696.495 669.673 697.046 669.229 697.748C668.799 698.45 668.477 699.266 668.262 700.197C668.047 701.128 667.939 702.124 667.939 703.184Z" fill="#30486E"/>
</g>
<defs>
<filter id="filter0_d_744_640" x="20.6094" y="612" width="960.984" height="182" filterUnits="userSpaceOnUse" color-interpolation-filters="sRGB">
<feFlood flood-opacity="0" result="BackgroundImageFix"/>
<feColorMatrix in="SourceAlpha" type="matrix" values="0 0 0 0 0 0 0 0 0 0 0 0 0 0 0 0 0 0 127 0" result="hardAlpha"/>
<feOffset dy="4"/>
<feGaussianBlur stdDeviation="2"/>
<feComposite in2="hardAlpha" operator="out"/>
<feColorMatrix type="matrix" values="0 0 0 0 0 0 0 0 0 0 0 0 0 0 0 0 0 0 0.25 0"/>
<feBlend mode="normal" in2="BackgroundImageFix" result="effect1_dropShadow_744_640"/>
<feBlend mode="normal" in="SourceGraphic" in2="effect1_dropShadow_744_640" result="shape"/>
</filter>
<filter id="filter1_d_744_640" x="20.6094" y="424" width="960.984" height="182" filterUnits="userSpaceOnUse" color-interpolation-filters="sRGB">
<feFlood flood-opacity="0" result="BackgroundImageFix"/>
<feColorMatrix in="SourceAlpha" type="matrix" values="0 0 0 0 0 0 0 0 0 0 0 0 0 0 0 0 0 0 127 0" result="hardAlpha"/>
<feOffset dy="4"/>
<feGaussianBlur stdDeviation="2"/>
<feComposite in2="hardAlpha" operator="out"/>
<feColorMatrix type="matrix" values="0 0 0 0 0 0 0 0 0 0 0 0 0 0 0 0 0 0 0.25 0"/>
<feBlend mode="normal" in2="BackgroundImageFix" result="effect1_dropShadow_744_640"/>
<feBlend mode="normal" in="SourceGraphic" in2="effect1_dropShadow_744_640" result="shape"/>
</filter>
<filter id="filter2_d_744_640" x="20.6094" y="236" width="960.984" height="182" filterUnits="userSpaceOnUse" color-interpolation-filters="sRGB">
<feFlood flood-opacity="0" result="BackgroundImageFix"/>
<feColorMatrix in="SourceAlpha" type="matrix" values="0 0 0 0 0 0 0 0 0 0 0 0 0 0 0 0 0 0 127 0" result="hardAlpha"/>
<feOffset dy="4"/>
<feGaussianBlur stdDeviation="2"/>
<feComposite in2="hardAlpha" operator="out"/>
<feColorMatrix type="matrix" values="0 0 0 0 0 0 0 0 0 0 0 0 0 0 0 0 0 0 0.25 0"/>
<feBlend mode="normal" in2="BackgroundImageFix" result="effect1_dropShadow_744_640"/>
<feBlend mode="normal" in="SourceGraphic" in2="effect1_dropShadow_744_640" result="shape"/>
</filter>
<filter id="filter3_d_744_640" x="20.6094" y="48" width="960.984" height="182" filterUnits="userSpaceOnUse" color-interpolation-filters="sRGB">
<feFlood flood-opacity="0" result="BackgroundImageFix"/>
<feColorMatrix in="SourceAlpha" type="matrix" values="0 0 0 0 0 0 0 0 0 0 0 0 0 0 0 0 0 0 127 0" result="hardAlpha"/>
<feOffset dy="4"/>
<feGaussianBlur stdDeviation="2"/>
<feComposite in2="hardAlpha" operator="out"/>
<feColorMatrix type="matrix" values="0 0 0 0 0 0 0 0 0 0 0 0 0 0 0 0 0 0 0.25 0"/>
<feBlend mode="normal" in2="BackgroundImageFix" result="effect1_dropShadow_744_640"/>
<feBlend mode="normal" in="SourceGraphic" in2="effect1_dropShadow_744_640" result="shape"/>
</filter>
<linearGradient id="paint0_linear_744_640" x1="796.331" y1="671.72" x2="959.338" y2="671.72" gradientUnits="userSpaceOnUse">
<stop stop-color="#673D89"/>
<stop offset="1" stop-color="#A379C5"/>
</linearGradient>
<linearGradient id="paint1_linear_744_640" x1="944.773" y1="613.883" x2="980.486" y2="613.883" gradientUnits="userSpaceOnUse">
<stop stop-color="#4A1C6F"/>
<stop offset="1" stop-color="#8658AB"/>
</linearGradient>
<linearGradient id="paint2_linear_744_640" x1="796.331" y1="483.698" x2="959.338" y2="483.698" gradientUnits="userSpaceOnUse">
<stop stop-color="#B32079"/>
<stop offset="1" stop-color="#EF5CB5"/>
</linearGradient>
<linearGradient id="paint3_linear_744_640" x1="944.773" y1="425.864" x2="980.486" y2="425.864" gradientUnits="userSpaceOnUse">
<stop stop-color="#99005C"/>
<stop offset="1" stop-color="#D53B98"/>
</linearGradient>
<linearGradient id="paint4_linear_744_640" x1="796.331" y1="295.674" x2="959.338" y2="295.674" gradientUnits="userSpaceOnUse">
<stop stop-color="#738494"/>
<stop offset="1" stop-color="#AFC0D0"/>
</linearGradient>
<linearGradient id="paint5_linear_744_640" x1="944.773" y1="237.84" x2="980.486" y2="237.84" gradientUnits="userSpaceOnUse">
<stop stop-color="#5E6E7E"/>
<stop offset="1" stop-color="#9AAABA"/>
</linearGradient>
<linearGradient id="paint6_linear_744_640" x1="796.331" y1="107.65" x2="959.338" y2="107.65" gradientUnits="userSpaceOnUse">
<stop stop-color="#E19000"/>
<stop offset="1" stop-color="#FFCC1E"/>
</linearGradient>
<linearGradient id="paint7_linear_744_640" x1="944.773" y1="49.8162" x2="980.486" y2="49.8162" gradientUnits="userSpaceOnUse">
<stop stop-color="#E15E00"/>
<stop offset="1" stop-color="#FF9A1E"/>
</linearGradient>
<clipPath id="clip0_744_640">
<rect width="1000" height="823" fill="white"/>
</clipPath>
</defs>
</svg>
