<svg width="1080" height="983" viewBox="0 0 1080 983" fill="none" xmlns="http://www.w3.org/2000/svg">
<rect width="1080" height="983" fill="white"/>
<path d="M200.977 73V74.875C200.977 77.4531 200.641 79.7656 199.969 81.8125C199.297 83.8594 198.336 85.6016 197.086 87.0391C195.852 88.4766 194.367 89.5781 192.633 90.3438C190.898 91.0938 188.977 91.4688 186.867 91.4688C184.773 91.4688 182.859 91.0938 181.125 90.3438C179.406 89.5781 177.914 88.4766 176.648 87.0391C175.383 85.6016 174.398 83.8594 173.695 81.8125C173.008 79.7656 172.664 77.4531 172.664 74.875V73C172.664 70.4219 173.008 68.1172 173.695 66.0859C174.383 64.0391 175.352 62.2969 176.602 60.8594C177.867 59.4062 179.359 58.3047 181.078 57.5547C182.812 56.7891 184.727 56.4062 186.82 56.4062C188.93 56.4062 190.852 56.7891 192.586 57.5547C194.32 58.3047 195.812 59.4062 197.062 60.8594C198.312 62.2969 199.273 64.0391 199.945 66.0859C200.633 68.1172 200.977 70.4219 200.977 73ZM195.094 74.875V72.9531C195.094 71.0469 194.906 69.3672 194.531 67.9141C194.172 66.4453 193.633 65.2188 192.914 64.2344C192.211 63.2344 191.344 62.4844 190.312 61.9844C189.281 61.4688 188.117 61.2109 186.82 61.2109C185.523 61.2109 184.367 61.4688 183.352 61.9844C182.336 62.4844 181.469 63.2344 180.75 64.2344C180.047 65.2188 179.508 66.4453 179.133 67.9141C178.758 69.3672 178.57 71.0469 178.57 72.9531V74.875C178.57 76.7812 178.758 78.4688 179.133 79.9375C179.508 81.4062 180.055 82.6484 180.773 83.6641C181.508 84.6641 182.383 85.4219 183.398 85.9375C184.414 86.4375 185.57 86.6875 186.867 86.6875C188.18 86.6875 189.344 86.4375 190.359 85.9375C191.375 85.4219 192.234 84.6641 192.938 83.6641C193.641 82.6484 194.172 81.4062 194.531 79.9375C194.906 78.4688 195.094 76.7812 195.094 74.875ZM214.547 86.5234L220.758 65.6406H226.617L217.805 91H214.148L214.547 86.5234ZM209.789 65.6406L216.117 86.6172L216.422 91H212.766L203.906 65.6406H209.789ZM240.961 91.4688C239.086 91.4688 237.391 91.1641 235.875 90.5547C234.375 89.9297 233.094 89.0625 232.031 87.9531C230.984 86.8438 230.18 85.5391 229.617 84.0391C229.055 82.5391 228.773 80.9219 228.773 79.1875V78.25C228.773 76.2656 229.062 74.4688 229.641 72.8594C230.219 71.25 231.023 69.875 232.055 68.7344C233.086 67.5781 234.305 66.6953 235.711 66.0859C237.117 65.4766 238.641 65.1719 240.281 65.1719C242.094 65.1719 243.68 65.4766 245.039 66.0859C246.398 66.6953 247.523 67.5547 248.414 68.6641C249.32 69.7578 249.992 71.0625 250.43 72.5781C250.883 74.0938 251.109 75.7656 251.109 77.5938V80.0078H231.516V75.9531H245.531V75.5078C245.5 74.4922 245.297 73.5391 244.922 72.6484C244.562 71.7578 244.008 71.0391 243.258 70.4922C242.508 69.9453 241.508 69.6719 240.258 69.6719C239.32 69.6719 238.484 69.875 237.75 70.2812C237.031 70.6719 236.43 71.2422 235.945 71.9922C235.461 72.7422 235.086 73.6484 234.82 74.7109C234.57 75.7578 234.445 76.9375 234.445 78.25V79.1875C234.445 80.2969 234.594 81.3281 234.891 82.2812C235.203 83.2188 235.656 84.0391 236.25 84.7422C236.844 85.4453 237.562 86 238.406 86.4062C239.25 86.7969 240.211 86.9922 241.289 86.9922C242.648 86.9922 243.859 86.7188 244.922 86.1719C245.984 85.625 246.906 84.8516 247.688 83.8516L250.664 86.7344C250.117 87.5312 249.406 88.2969 248.531 89.0312C247.656 89.75 246.586 90.3359 245.32 90.7891C244.07 91.2422 242.617 91.4688 240.961 91.4688ZM261.188 70.4688V91H255.539V65.6406H260.93L261.188 70.4688ZM268.945 65.4766L268.898 70.7266C268.555 70.6641 268.18 70.6172 267.773 70.5859C267.383 70.5547 266.992 70.5391 266.602 70.5391C265.633 70.5391 264.781 70.6797 264.047 70.9609C263.312 71.2266 262.695 71.6172 262.195 72.1328C261.711 72.6328 261.336 73.2422 261.07 73.9609C260.805 74.6797 260.648 75.4844 260.602 76.375L259.312 76.4688C259.312 74.875 259.469 73.3984 259.781 72.0391C260.094 70.6797 260.562 69.4844 261.188 68.4531C261.828 67.4219 262.625 66.6172 263.578 66.0391C264.547 65.4609 265.664 65.1719 266.93 65.1719C267.273 65.1719 267.641 65.2031 268.031 65.2656C268.438 65.3281 268.742 65.3984 268.945 65.4766ZM281.156 86.5234L287.367 65.6406H293.227L284.414 91H280.758L281.156 86.5234ZM276.398 65.6406L282.727 86.6172L283.031 91H279.375L270.516 65.6406H276.398ZM302.766 65.6406V91H297.094V65.6406H302.766ZM296.719 58.9844C296.719 58.125 297 57.4141 297.562 56.8516C298.141 56.2734 298.938 55.9844 299.953 55.9844C300.953 55.9844 301.742 56.2734 302.32 56.8516C302.898 57.4141 303.188 58.125 303.188 58.9844C303.188 59.8281 302.898 60.5312 302.32 61.0938C301.742 61.6562 300.953 61.9375 299.953 61.9375C298.938 61.9375 298.141 61.6562 297.562 61.0938C297 60.5312 296.719 59.8281 296.719 58.9844ZM320.133 91.4688C318.258 91.4688 316.562 91.1641 315.047 90.5547C313.547 89.9297 312.266 89.0625 311.203 87.9531C310.156 86.8438 309.352 85.5391 308.789 84.0391C308.227 82.5391 307.945 80.9219 307.945 79.1875V78.25C307.945 76.2656 308.234 74.4688 308.812 72.8594C309.391 71.25 310.195 69.875 311.227 68.7344C312.258 67.5781 313.477 66.6953 314.883 66.0859C316.289 65.4766 317.812 65.1719 319.453 65.1719C321.266 65.1719 322.852 65.4766 324.211 66.0859C325.57 66.6953 326.695 67.5547 327.586 68.6641C328.492 69.7578 329.164 71.0625 329.602 72.5781C330.055 74.0938 330.281 75.7656 330.281 77.5938V80.0078H310.688V75.9531H324.703V75.5078C324.672 74.4922 324.469 73.5391 324.094 72.6484C323.734 71.7578 323.18 71.0391 322.43 70.4922C321.68 69.9453 320.68 69.6719 319.43 69.6719C318.492 69.6719 317.656 69.875 316.922 70.2812C316.203 70.6719 315.602 71.2422 315.117 71.9922C314.633 72.7422 314.258 73.6484 313.992 74.7109C313.742 75.7578 313.617 76.9375 313.617 78.25V79.1875C313.617 80.2969 313.766 81.3281 314.062 82.2812C314.375 83.2188 314.828 84.0391 315.422 84.7422C316.016 85.4453 316.734 86 317.578 86.4062C318.422 86.7969 319.383 86.9922 320.461 86.9922C321.82 86.9922 323.031 86.7188 324.094 86.1719C325.156 85.625 326.078 84.8516 326.859 83.8516L329.836 86.7344C329.289 87.5312 328.578 88.2969 327.703 89.0312C326.828 89.75 325.758 90.3359 324.492 90.7891C323.242 91.2422 321.789 91.4688 320.133 91.4688ZM341.578 85.375L347.438 65.6406H351.047L350.062 71.5469L344.156 91H340.922L341.578 85.375ZM338.133 65.6406L342.703 85.4688L343.078 91H339.469L332.602 65.6406H338.133ZM356.531 85.2344L360.961 65.6406H366.469L359.625 91H356.016L356.531 85.2344ZM351.656 65.6406L357.445 85.1406L358.172 91H354.938L348.961 71.5234L347.977 65.6406H351.656ZM381.188 78.6016V78.0625C381.188 76.2344 381.453 74.5391 381.984 72.9766C382.516 71.3984 383.281 70.0312 384.281 68.875C385.297 67.7031 386.531 66.7969 387.984 66.1562C389.453 65.5 391.109 65.1719 392.953 65.1719C394.812 65.1719 396.469 65.5 397.922 66.1562C399.391 66.7969 400.633 67.7031 401.648 68.875C402.664 70.0312 403.438 71.3984 403.969 72.9766C404.5 74.5391 404.766 76.2344 404.766 78.0625V78.6016C404.766 80.4297 404.5 82.125 403.969 83.6875C403.438 85.25 402.664 86.6172 401.648 87.7891C400.633 88.9453 399.398 89.8516 397.945 90.5078C396.492 91.1484 394.844 91.4688 393 91.4688C391.141 91.4688 389.477 91.1484 388.008 90.5078C386.555 89.8516 385.32 88.9453 384.305 87.7891C383.289 86.6172 382.516 85.25 381.984 83.6875C381.453 82.125 381.188 80.4297 381.188 78.6016ZM386.836 78.0625V78.6016C386.836 79.7422 386.953 80.8203 387.188 81.8359C387.422 82.8516 387.789 83.7422 388.289 84.5078C388.789 85.2734 389.43 85.875 390.211 86.3125C390.992 86.75 391.922 86.9688 393 86.9688C394.047 86.9688 394.953 86.75 395.719 86.3125C396.5 85.875 397.141 85.2734 397.641 84.5078C398.141 83.7422 398.508 82.8516 398.742 81.8359C398.992 80.8203 399.117 79.7422 399.117 78.6016V78.0625C399.117 76.9375 398.992 75.875 398.742 74.875C398.508 73.8594 398.133 72.9609 397.617 72.1797C397.117 71.3984 396.477 70.7891 395.695 70.3516C394.93 69.8984 394.016 69.6719 392.953 69.6719C391.891 69.6719 390.969 69.8984 390.188 70.3516C389.422 70.7891 388.789 71.3984 388.289 72.1797C387.789 72.9609 387.422 73.8594 387.188 74.875C386.953 75.875 386.836 76.9375 386.836 78.0625ZM417.141 91H411.492V63.2031C411.492 61.3125 411.844 59.7266 412.547 58.4453C413.266 57.1484 414.289 56.1719 415.617 55.5156C416.945 54.8438 418.516 54.5078 420.328 54.5078C420.891 54.5078 421.445 54.5469 421.992 54.625C422.539 54.6875 423.07 54.7891 423.586 54.9297L423.445 59.2891C423.133 59.2109 422.789 59.1562 422.414 59.125C422.055 59.0938 421.664 59.0781 421.242 59.0781C420.383 59.0781 419.641 59.2422 419.016 59.5703C418.406 59.8828 417.938 60.3438 417.609 60.9531C417.297 61.5625 417.141 62.3125 417.141 63.2031V91ZM422.367 65.6406V69.7656H407.602V65.6406H422.367ZM450.047 65.6406V69.7656H435.75V65.6406H450.047ZM439.875 59.4297H445.523V83.9922C445.523 84.7734 445.633 85.375 445.852 85.7969C446.086 86.2031 446.406 86.4766 446.812 86.6172C447.219 86.7578 447.695 86.8281 448.242 86.8281C448.633 86.8281 449.008 86.8047 449.367 86.7578C449.727 86.7109 450.016 86.6641 450.234 86.6172L450.258 90.9297C449.789 91.0703 449.242 91.1953 448.617 91.3047C448.008 91.4141 447.305 91.4688 446.508 91.4688C445.211 91.4688 444.062 91.2422 443.062 90.7891C442.062 90.3203 441.281 89.5625 440.719 88.5156C440.156 87.4688 439.875 86.0781 439.875 84.3438V59.4297ZM459.984 55V91H454.359V55H459.984ZM459 77.3828L457.172 77.3594C457.188 75.6094 457.43 73.9922 457.898 72.5078C458.383 71.0234 459.055 69.7344 459.914 68.6406C460.789 67.5312 461.836 66.6797 463.055 66.0859C464.273 65.4766 465.625 65.1719 467.109 65.1719C468.359 65.1719 469.484 65.3438 470.484 65.6875C471.5 66.0312 472.375 66.5859 473.109 67.3516C473.844 68.1016 474.398 69.0859 474.773 70.3047C475.164 71.5078 475.359 72.9766 475.359 74.7109V91H469.688V74.6641C469.688 73.4453 469.508 72.4766 469.148 71.7578C468.805 71.0391 468.297 70.5234 467.625 70.2109C466.953 69.8828 466.133 69.7188 465.164 69.7188C464.148 69.7188 463.25 69.9219 462.469 70.3281C461.703 70.7344 461.062 71.2891 460.547 71.9922C460.031 72.6953 459.641 73.5078 459.375 74.4297C459.125 75.3516 459 76.3359 459 77.3828ZM492.258 91.4688C490.383 91.4688 488.688 91.1641 487.172 90.5547C485.672 89.9297 484.391 89.0625 483.328 87.9531C482.281 86.8438 481.477 85.5391 480.914 84.0391C480.352 82.5391 480.07 80.9219 480.07 79.1875V78.25C480.07 76.2656 480.359 74.4688 480.938 72.8594C481.516 71.25 482.32 69.875 483.352 68.7344C484.383 67.5781 485.602 66.6953 487.008 66.0859C488.414 65.4766 489.938 65.1719 491.578 65.1719C493.391 65.1719 494.977 65.4766 496.336 66.0859C497.695 66.6953 498.82 67.5547 499.711 68.6641C500.617 69.7578 501.289 71.0625 501.727 72.5781C502.18 74.0938 502.406 75.7656 502.406 77.5938V80.0078H482.812V75.9531H496.828V75.5078C496.797 74.4922 496.594 73.5391 496.219 72.6484C495.859 71.7578 495.305 71.0391 494.555 70.4922C493.805 69.9453 492.805 69.6719 491.555 69.6719C490.617 69.6719 489.781 69.875 489.047 70.2812C488.328 70.6719 487.727 71.2422 487.242 71.9922C486.758 72.7422 486.383 73.6484 486.117 74.7109C485.867 75.7578 485.742 76.9375 485.742 78.25V79.1875C485.742 80.2969 485.891 81.3281 486.188 82.2812C486.5 83.2188 486.953 84.0391 487.547 84.7422C488.141 85.4453 488.859 86 489.703 86.4062C490.547 86.7969 491.508 86.9922 492.586 86.9922C493.945 86.9922 495.156 86.7188 496.219 86.1719C497.281 85.625 498.203 84.8516 498.984 83.8516L501.961 86.7344C501.414 87.5312 500.703 88.2969 499.828 89.0312C498.953 89.75 497.883 90.3359 496.617 90.7891C495.367 91.2422 493.914 91.4688 492.258 91.4688Z" fill="#1C4670"/>
<path d="M525.609 56.875V91H519.727V56.875H525.609ZM546.961 80.7578V56.875H552.82V80.7578C552.82 83.0234 552.336 84.9531 551.367 86.5469C550.398 88.1406 549.078 89.3594 547.406 90.2031C545.734 91.0469 543.836 91.4688 541.711 91.4688C539.539 91.4688 537.609 91.1016 535.922 90.3672C534.25 89.6328 532.938 88.5078 531.984 86.9922C531.031 85.4766 530.555 83.5547 530.555 81.2266H536.461C536.461 82.5703 536.672 83.6562 537.094 84.4844C537.531 85.2969 538.141 85.8906 538.922 86.2656C539.719 86.625 540.648 86.8047 541.711 86.8047C542.727 86.8047 543.625 86.5781 544.406 86.125C545.203 85.6562 545.828 84.9766 546.281 84.0859C546.734 83.1797 546.961 82.0703 546.961 80.7578ZM579.75 79.8906H585.609C585.422 82.125 584.797 84.1172 583.734 85.8672C582.672 87.6016 581.18 88.9688 579.258 89.9688C577.336 90.9688 575 91.4688 572.25 91.4688C570.141 91.4688 568.242 91.0938 566.555 90.3438C564.867 89.5781 563.422 88.5 562.219 87.1094C561.016 85.7031 560.094 84.0078 559.453 82.0234C558.828 80.0391 558.516 77.8203 558.516 75.3672V72.5312C558.516 70.0781 558.836 67.8594 559.477 65.875C560.133 63.8906 561.07 62.1953 562.289 60.7891C563.508 59.3672 564.969 58.2812 566.672 57.5312C568.391 56.7812 570.32 56.4062 572.461 56.4062C575.18 56.4062 577.477 56.9062 579.352 57.9062C581.227 58.9062 582.68 60.2891 583.711 62.0547C584.758 63.8203 585.398 65.8438 585.633 68.125H579.773C579.617 66.6562 579.273 65.3984 578.742 64.3516C578.227 63.3047 577.461 62.5078 576.445 61.9609C575.43 61.3984 574.102 61.1172 572.461 61.1172C571.117 61.1172 569.945 61.3672 568.945 61.8672C567.945 62.3672 567.109 63.1016 566.438 64.0703C565.766 65.0391 565.258 66.2344 564.914 67.6562C564.586 69.0625 564.422 70.6719 564.422 72.4844V75.3672C564.422 77.0859 564.57 78.6484 564.867 80.0547C565.18 81.4453 565.648 82.6406 566.273 83.6406C566.914 84.6406 567.727 85.4141 568.711 85.9609C569.695 86.5078 570.875 86.7812 572.25 86.7812C573.922 86.7812 575.273 86.5156 576.305 85.9844C577.352 85.4531 578.141 84.6797 578.672 83.6641C579.219 82.6328 579.578 81.375 579.75 79.8906ZM613.289 86.3359V91H595.172V86.3359H613.289ZM596.836 56.875V91H590.953V56.875H596.836ZM610.922 71.125V75.7188H595.172V71.125H610.922ZM613.172 56.875V61.5625H595.172V56.875H613.172ZM631.055 78.2734H622.172V73.6094H631.055C632.602 73.6094 633.852 73.3594 634.805 72.8594C635.758 72.3594 636.453 71.6719 636.891 70.7969C637.344 69.9062 637.57 68.8906 637.57 67.75C637.57 66.6719 637.344 65.6641 636.891 64.7266C636.453 63.7734 635.758 63.0078 634.805 62.4297C633.852 61.8516 632.602 61.5625 631.055 61.5625H623.977V91H618.094V56.875H631.055C633.695 56.875 635.938 57.3438 637.781 58.2812C639.641 59.2031 641.055 60.4844 642.023 62.125C642.992 63.75 643.477 65.6094 643.477 67.7031C643.477 69.9062 642.992 71.7969 642.023 73.375C641.055 74.9531 639.641 76.1641 637.781 77.0078C635.938 77.8516 633.695 78.2734 631.055 78.2734ZM658.477 61.4219L648.281 91H642.117L654.961 56.875H658.898L658.477 61.4219ZM667.008 91L656.789 61.4219L656.344 56.875H660.305L673.195 91H667.008ZM666.516 78.3438V83.0078H647.953V78.3438H666.516ZM709.125 79.8906H714.984C714.797 82.125 714.172 84.1172 713.109 85.8672C712.047 87.6016 710.555 88.9688 708.633 89.9688C706.711 90.9688 704.375 91.4688 701.625 91.4688C699.516 91.4688 697.617 91.0938 695.93 90.3438C694.242 89.5781 692.797 88.5 691.594 87.1094C690.391 85.7031 689.469 84.0078 688.828 82.0234C688.203 80.0391 687.891 77.8203 687.891 75.3672V72.5312C687.891 70.0781 688.211 67.8594 688.852 65.875C689.508 63.8906 690.445 62.1953 691.664 60.7891C692.883 59.3672 694.344 58.2812 696.047 57.5312C697.766 56.7812 699.695 56.4062 701.836 56.4062C704.555 56.4062 706.852 56.9062 708.727 57.9062C710.602 58.9062 712.055 60.2891 713.086 62.0547C714.133 63.8203 714.773 65.8438 715.008 68.125H709.148C708.992 66.6562 708.648 65.3984 708.117 64.3516C707.602 63.3047 706.836 62.5078 705.82 61.9609C704.805 61.3984 703.477 61.1172 701.836 61.1172C700.492 61.1172 699.32 61.3672 698.32 61.8672C697.32 62.3672 696.484 63.1016 695.812 64.0703C695.141 65.0391 694.633 66.2344 694.289 67.6562C693.961 69.0625 693.797 70.6719 693.797 72.4844V75.3672C693.797 77.0859 693.945 78.6484 694.242 80.0547C694.555 81.4453 695.023 82.6406 695.648 83.6406C696.289 84.6406 697.102 85.4141 698.086 85.9609C699.07 86.5078 700.25 86.7812 701.625 86.7812C703.297 86.7812 704.648 86.5156 705.68 85.9844C706.727 85.4531 707.516 84.6797 708.047 83.6641C708.594 82.6328 708.953 81.375 709.125 79.8906ZM730.945 91.4688C729.07 91.4688 727.375 91.1641 725.859 90.5547C724.359 89.9297 723.078 89.0625 722.016 87.9531C720.969 86.8438 720.164 85.5391 719.602 84.0391C719.039 82.5391 718.758 80.9219 718.758 79.1875V78.25C718.758 76.2656 719.047 74.4688 719.625 72.8594C720.203 71.25 721.008 69.875 722.039 68.7344C723.07 67.5781 724.289 66.6953 725.695 66.0859C727.102 65.4766 728.625 65.1719 730.266 65.1719C732.078 65.1719 733.664 65.4766 735.023 66.0859C736.383 66.6953 737.508 67.5547 738.398 68.6641C739.305 69.7578 739.977 71.0625 740.414 72.5781C740.867 74.0938 741.094 75.7656 741.094 77.5938V80.0078H721.5V75.9531H735.516V75.5078C735.484 74.4922 735.281 73.5391 734.906 72.6484C734.547 71.7578 733.992 71.0391 733.242 70.4922C732.492 69.9453 731.492 69.6719 730.242 69.6719C729.305 69.6719 728.469 69.875 727.734 70.2812C727.016 70.6719 726.414 71.2422 725.93 71.9922C725.445 72.7422 725.07 73.6484 724.805 74.7109C724.555 75.7578 724.43 76.9375 724.43 78.25V79.1875C724.43 80.2969 724.578 81.3281 724.875 82.2812C725.188 83.2188 725.641 84.0391 726.234 84.7422C726.828 85.4453 727.547 86 728.391 86.4062C729.234 86.7969 730.195 86.9922 731.273 86.9922C732.633 86.9922 733.844 86.7188 734.906 86.1719C735.969 85.625 736.891 84.8516 737.672 83.8516L740.648 86.7344C740.102 87.5312 739.391 88.2969 738.516 89.0312C737.641 89.75 736.57 90.3359 735.305 90.7891C734.055 91.2422 732.602 91.4688 730.945 91.4688ZM751.172 70.4688V91H745.523V65.6406H750.914L751.172 70.4688ZM758.93 65.4766L758.883 70.7266C758.539 70.6641 758.164 70.6172 757.758 70.5859C757.367 70.5547 756.977 70.5391 756.586 70.5391C755.617 70.5391 754.766 70.6797 754.031 70.9609C753.297 71.2266 752.68 71.6172 752.18 72.1328C751.695 72.6328 751.32 73.2422 751.055 73.9609C750.789 74.6797 750.633 75.4844 750.586 76.375L749.297 76.4688C749.297 74.875 749.453 73.3984 749.766 72.0391C750.078 70.6797 750.547 69.4844 751.172 68.4531C751.812 67.4219 752.609 66.6172 753.562 66.0391C754.531 65.4609 755.648 65.1719 756.914 65.1719C757.258 65.1719 757.625 65.2031 758.016 65.2656C758.422 65.3281 758.727 65.3984 758.93 65.4766ZM775.266 65.6406V69.7656H760.969V65.6406H775.266ZM765.094 59.4297H770.742V83.9922C770.742 84.7734 770.852 85.375 771.07 85.7969C771.305 86.2031 771.625 86.4766 772.031 86.6172C772.438 86.7578 772.914 86.8281 773.461 86.8281C773.852 86.8281 774.227 86.8047 774.586 86.7578C774.945 86.7109 775.234 86.6641 775.453 86.6172L775.477 90.9297C775.008 91.0703 774.461 91.1953 773.836 91.3047C773.227 91.4141 772.523 91.4688 771.727 91.4688C770.43 91.4688 769.281 91.2422 768.281 90.7891C767.281 90.3203 766.5 89.5625 765.938 88.5156C765.375 87.4688 765.094 86.0781 765.094 84.3438V59.4297ZM785.672 65.6406V91H780V65.6406H785.672ZM779.625 58.9844C779.625 58.125 779.906 57.4141 780.469 56.8516C781.047 56.2734 781.844 55.9844 782.859 55.9844C783.859 55.9844 784.648 56.2734 785.227 56.8516C785.805 57.4141 786.094 58.125 786.094 58.9844C786.094 59.8281 785.805 60.5312 785.227 61.0938C784.648 61.6562 783.859 61.9375 782.859 61.9375C781.844 61.9375 781.047 61.6562 780.469 61.0938C779.906 60.5312 779.625 59.8281 779.625 58.9844ZM799.125 91H793.453V64C793.453 61.9531 793.859 60.2266 794.672 58.8203C795.5 57.4141 796.68 56.3438 798.211 55.6094C799.758 54.875 801.594 54.5078 803.719 54.5078C804.969 54.5078 806.172 54.6406 807.328 54.9062C808.5 55.1719 809.711 55.5078 810.961 55.9141L810.094 60.5078C809.297 60.2422 808.414 59.9922 807.445 59.7578C806.477 59.5078 805.359 59.3828 804.094 59.3828C802.391 59.3828 801.133 59.7734 800.32 60.5547C799.523 61.3203 799.125 62.4688 799.125 64V91ZM804.211 65.6406V69.7656H789.562V65.6406H804.211ZM813.633 65.6406V91H807.984V65.6406H813.633ZM830.297 86.9688C831.219 86.9688 832.047 86.7891 832.781 86.4297C833.531 86.0547 834.133 85.5391 834.586 84.8828C835.055 84.2266 835.312 83.4688 835.359 82.6094H840.68C840.648 84.25 840.164 85.7422 839.227 87.0859C838.289 88.4297 837.047 89.5 835.5 90.2969C833.953 91.0781 832.242 91.4688 830.367 91.4688C828.43 91.4688 826.742 91.1406 825.305 90.4844C823.867 89.8125 822.672 88.8906 821.719 87.7188C820.766 86.5469 820.047 85.1953 819.562 83.6641C819.094 82.1328 818.859 80.4922 818.859 78.7422V77.9219C818.859 76.1719 819.094 74.5312 819.562 73C820.047 71.4531 820.766 70.0938 821.719 68.9219C822.672 67.75 823.867 66.8359 825.305 66.1797C826.742 65.5078 828.422 65.1719 830.344 65.1719C832.375 65.1719 834.156 65.5781 835.688 66.3906C837.219 67.1875 838.422 68.3047 839.297 69.7422C840.188 71.1641 840.648 72.8203 840.68 74.7109H835.359C835.312 73.7734 835.078 72.9297 834.656 72.1797C834.25 71.4141 833.672 70.8047 832.922 70.3516C832.188 69.8984 831.305 69.6719 830.273 69.6719C829.133 69.6719 828.188 69.9062 827.438 70.375C826.688 70.8281 826.102 71.4531 825.68 72.25C825.258 73.0312 824.953 73.9141 824.766 74.8984C824.594 75.8672 824.508 76.875 824.508 77.9219V78.7422C824.508 79.7891 824.594 80.8047 824.766 81.7891C824.938 82.7734 825.234 83.6562 825.656 84.4375C826.094 85.2031 826.688 85.8203 827.438 86.2891C828.188 86.7422 829.141 86.9688 830.297 86.9688ZM859.312 85.9141V73.8203C859.312 72.9141 859.148 72.1328 858.82 71.4766C858.492 70.8203 857.992 70.3125 857.32 69.9531C856.664 69.5938 855.836 69.4141 854.836 69.4141C853.914 69.4141 853.117 69.5703 852.445 69.8828C851.773 70.1953 851.25 70.6172 850.875 71.1484C850.5 71.6797 850.312 72.2812 850.312 72.9531H844.688C844.688 71.9531 844.93 70.9844 845.414 70.0469C845.898 69.1094 846.602 68.2734 847.523 67.5391C848.445 66.8047 849.547 66.2266 850.828 65.8047C852.109 65.3828 853.547 65.1719 855.141 65.1719C857.047 65.1719 858.734 65.4922 860.203 66.1328C861.688 66.7734 862.852 67.7422 863.695 69.0391C864.555 70.3203 864.984 71.9297 864.984 73.8672V85.1406C864.984 86.2969 865.062 87.3359 865.219 88.2578C865.391 89.1641 865.633 89.9531 865.945 90.625V91H860.156C859.891 90.3906 859.68 89.6172 859.523 88.6797C859.383 87.7266 859.312 86.8047 859.312 85.9141ZM860.133 75.5781L860.18 79.0703H856.125C855.078 79.0703 854.156 79.1719 853.359 79.375C852.562 79.5625 851.898 79.8438 851.367 80.2188C850.836 80.5938 850.438 81.0469 850.172 81.5781C849.906 82.1094 849.773 82.7109 849.773 83.3828C849.773 84.0547 849.93 84.6719 850.242 85.2344C850.555 85.7812 851.008 86.2109 851.602 86.5234C852.211 86.8359 852.945 86.9922 853.805 86.9922C854.961 86.9922 855.969 86.7578 856.828 86.2891C857.703 85.8047 858.391 85.2188 858.891 84.5312C859.391 83.8281 859.656 83.1641 859.688 82.5391L861.516 85.0469C861.328 85.6875 861.008 86.375 860.555 87.1094C860.102 87.8438 859.508 88.5469 858.773 89.2188C858.055 89.875 857.188 90.4141 856.172 90.8359C855.172 91.2578 854.016 91.4688 852.703 91.4688C851.047 91.4688 849.57 91.1406 848.273 90.4844C846.977 89.8125 845.961 88.9141 845.227 87.7891C844.492 86.6484 844.125 85.3594 844.125 83.9219C844.125 82.5781 844.375 81.3906 844.875 80.3594C845.391 79.3125 846.141 78.4375 847.125 77.7344C848.125 77.0312 849.344 76.5 850.781 76.1406C852.219 75.7656 853.859 75.5781 855.703 75.5781H860.133ZM882.516 65.6406V69.7656H868.219V65.6406H882.516ZM872.344 59.4297H877.992V83.9922C877.992 84.7734 878.102 85.375 878.32 85.7969C878.555 86.2031 878.875 86.4766 879.281 86.6172C879.688 86.7578 880.164 86.8281 880.711 86.8281C881.102 86.8281 881.477 86.8047 881.836 86.7578C882.195 86.7109 882.484 86.6641 882.703 86.6172L882.727 90.9297C882.258 91.0703 881.711 91.1953 881.086 91.3047C880.477 91.4141 879.773 91.4688 878.977 91.4688C877.68 91.4688 876.531 91.2422 875.531 90.7891C874.531 90.3203 873.75 89.5625 873.188 88.5156C872.625 87.4688 872.344 86.0781 872.344 84.3438V59.4297ZM898.055 91.4688C896.18 91.4688 894.484 91.1641 892.969 90.5547C891.469 89.9297 890.188 89.0625 889.125 87.9531C888.078 86.8438 887.273 85.5391 886.711 84.0391C886.148 82.5391 885.867 80.9219 885.867 79.1875V78.25C885.867 76.2656 886.156 74.4688 886.734 72.8594C887.312 71.25 888.117 69.875 889.148 68.7344C890.18 67.5781 891.398 66.6953 892.805 66.0859C894.211 65.4766 895.734 65.1719 897.375 65.1719C899.188 65.1719 900.773 65.4766 902.133 66.0859C903.492 66.6953 904.617 67.5547 905.508 68.6641C906.414 69.7578 907.086 71.0625 907.523 72.5781C907.977 74.0938 908.203 75.7656 908.203 77.5938V80.0078H888.609V75.9531H902.625V75.5078C902.594 74.4922 902.391 73.5391 902.016 72.6484C901.656 71.7578 901.102 71.0391 900.352 70.4922C899.602 69.9453 898.602 69.6719 897.352 69.6719C896.414 69.6719 895.578 69.875 894.844 70.2812C894.125 70.6719 893.523 71.2422 893.039 71.9922C892.555 72.7422 892.18 73.6484 891.914 74.7109C891.664 75.7578 891.539 76.9375 891.539 78.25V79.1875C891.539 80.2969 891.688 81.3281 891.984 82.2812C892.297 83.2188 892.75 84.0391 893.344 84.7422C893.938 85.4453 894.656 86 895.5 86.4062C896.344 86.7969 897.305 86.9922 898.383 86.9922C899.742 86.9922 900.953 86.7188 902.016 86.1719C903.078 85.625 904 84.8516 904.781 83.8516L907.758 86.7344C907.211 87.5312 906.5 88.2969 905.625 89.0312C904.75 89.75 903.68 90.3359 902.414 90.7891C901.164 91.2422 899.711 91.4688 898.055 91.4688Z" fill="#FFA229"/>
<g opacity="0.45">
<path d="M882.029 220.957C901.928 220.957 918.059 204.401 918.059 183.978C918.059 163.556 901.928 147 882.029 147C862.13 147 845.998 163.556 845.998 183.978C845.998 204.401 862.13 220.957 882.029 220.957Z" fill="#ABE9FF"/>
</g>
<path opacity="0.15" d="M536.203 918.586C824.567 918.586 1058.33 907.508 1058.33 893.844C1058.33 880.179 824.567 869.102 536.203 869.102C247.839 869.102 14.0742 880.179 14.0742 893.844C14.0742 907.508 247.839 918.586 536.203 918.586Z" fill="#231F20"/>
<path d="M282.551 643.034H223.352V892.794H282.551V643.034Z" fill="#92BFF7"/>
<path d="M253.007 808.918H250.611C242.002 808.918 235.023 801.939 235.023 793.331V717.946C235.023 709.337 242.002 702.359 250.611 702.359H253.007C261.616 702.359 268.594 709.338 268.594 717.946V793.33C268.594 801.939 261.616 808.918 253.007 808.918Z" fill="#E1E3E2"/>
<path d="M282.551 876.344H223.352V884.57H282.551V876.344Z" fill="#E7E4F9"/>
<path d="M282.551 862.383H223.352V870.609H282.551V862.383Z" fill="#E7E4F9"/>
<path d="M282.552 892.792H297.473L297.473 643.033H282.552L282.552 892.792Z" fill="#5F9BDD"/>
<path d="M235.023 719.743V727.782H268.594V719.743C268.594 715.723 267.264 712.032 265.052 709.087H238.565C236.353 712.032 235.023 715.723 235.023 719.743Z" fill="#E05F25"/>
<path d="M235.023 787.233V791.533C235.023 793.289 235.28 794.982 235.748 796.58H267.87C268.338 794.982 268.594 793.289 268.594 791.533V787.233H235.023Z" fill="#E05F25"/>
<path d="M260.622 759.686C260.622 764.728 256.676 768.815 251.808 768.815C246.941 768.815 242.994 764.728 242.994 759.686C242.994 754.644 246.94 750.557 251.808 750.557C256.676 750.557 260.622 754.645 260.622 759.686Z" fill="#F1F6FA"/>
<path d="M251.81 765.92C255.132 765.92 257.826 763.13 257.826 759.689C257.826 756.247 255.132 753.457 251.81 753.457C248.487 753.457 245.793 756.247 245.793 759.689C245.793 763.13 248.487 765.92 251.81 765.92Z" fill="#809292"/>
<path d="M208.428 643.034H149.229V892.794H208.428V643.034Z" fill="#1C4670"/>
<path d="M178.884 808.918H176.487C167.879 808.918 160.9 801.939 160.9 793.33V717.946C160.9 709.337 167.879 702.359 176.487 702.359H178.884C187.492 702.359 194.471 709.338 194.471 717.946V793.331C194.471 801.939 187.492 808.918 178.884 808.918Z" fill="#E1E3E2"/>
<path d="M208.428 876.344H149.229V884.57H208.428V876.344Z" fill="#E7E4F9"/>
<path d="M208.428 862.383H149.229V870.609H208.428V862.383Z" fill="#E7E4F9"/>
<path d="M208.43 892.792H223.35L223.35 643.033H208.43L208.43 892.792Z" fill="#1568BA"/>
<path d="M160.9 719.743V727.782H194.471V719.743C194.471 715.723 193.141 712.032 190.929 709.087H164.442C162.23 712.032 160.9 715.723 160.9 719.743Z" fill="#E05F25"/>
<path d="M160.9 787.233V791.533C160.9 793.289 161.157 794.982 161.625 796.58H193.747C194.215 794.982 194.471 793.289 194.471 791.533V787.233H160.9Z" fill="#E05F25"/>
<path d="M186.499 759.686C186.499 764.728 182.553 768.815 177.685 768.815C172.818 768.815 168.871 764.728 168.871 759.686C168.871 754.644 172.817 750.557 177.685 750.557C182.552 750.557 186.499 754.645 186.499 759.686Z" fill="#F1F6FA"/>
<path d="M183.702 759.689C183.702 763.13 181.009 765.92 177.686 765.92C174.363 765.92 171.67 763.13 171.67 759.689C171.67 756.247 174.363 753.457 177.686 753.457C181.009 753.457 183.702 756.247 183.702 759.689Z" fill="#809292"/>
<path d="M229.106 304.396C229.265 297.075 228.144 289.675 225.662 282.542L241.643 268.374L231.171 251.492L211.477 259.483C206.182 254.001 200.023 249.634 193.354 246.469L194.631 225.241L175.296 220.709L166.974 240.398C159.663 240.329 152.285 241.539 145.185 244.108L130.904 227.992L114.029 238.464L122.218 258.654C116.987 263.856 112.812 269.86 109.764 276.339L87.7914 275.014L83.2617 294.356L103.775 303.032C103.763 310.031 104.922 317.083 107.323 323.889L90.5473 338.764L101.018 355.645L121.885 347.178C126.905 352.265 132.68 356.362 138.912 359.404L137.559 381.895L156.895 386.427L165.621 365.779C172.625 365.88 179.695 364.806 186.528 362.488L201.286 379.144L218.161 368.672L209.893 348.285C215.223 343.168 219.505 337.236 222.662 330.811L244.399 332.123L248.928 312.779L229.106 304.396ZM182.988 329.757C168.266 338.894 148.926 334.361 139.791 319.632C130.655 304.904 135.184 285.557 149.907 276.421C164.629 267.284 183.969 271.817 193.104 286.546C202.241 301.274 197.711 320.62 182.988 329.757Z" fill="#A9CEEA"/>
<path d="M221.565 308.313C221.724 300.992 220.603 293.593 218.123 286.46L234.103 272.291L223.632 255.41L203.937 263.401C198.642 257.919 192.484 253.551 185.815 250.387L187.092 229.159L167.756 224.627L159.435 244.317C152.124 244.247 144.746 245.457 137.645 248.026L123.365 231.91L106.49 242.382L114.679 262.572C109.447 267.774 105.272 273.778 102.224 280.257L80.2517 278.932L75.7227 298.274L96.2356 306.95C96.2234 313.948 97.3823 321.001 99.7835 327.806L83.0077 342.68L93.4778 359.561L114.345 351.095C119.365 356.181 125.139 360.279 131.373 363.321L130.018 385.812L149.356 390.343L158.081 369.696C165.085 369.797 172.155 368.723 178.988 366.405L193.746 383.061L210.621 372.589L202.352 352.202C207.682 347.085 211.964 341.153 215.121 334.728L236.858 336.04L241.387 316.697L221.565 308.313ZM175.449 333.675C160.726 342.811 141.386 338.279 132.25 323.55C123.116 308.822 127.644 289.475 142.366 280.34C157.089 271.203 176.429 275.736 185.564 290.464C194.7 305.192 190.17 324.538 175.449 333.675Z" fill="#C9E2F4"/>
<path d="M80.25 278.928L86.7827 279.322L87.7912 275.013L80.25 278.928Z" fill="#A9CEEA"/>
<path d="M167.754 224.625L175.295 220.709L173.109 225.88L167.754 224.625Z" fill="#A9CEEA"/>
<path d="M123.365 231.909L130.907 227.994L123.802 232.403L123.365 231.909Z" fill="#A9CEEA"/>
<path d="M149.355 390.337L156.896 386.421L151.541 385.167L149.355 390.337Z" fill="#A9CEEA"/>
<path d="M236.859 336.034L244.401 332.119L237.868 331.724L236.859 336.034Z" fill="#A9CEEA"/>
<path d="M193.746 383.056L201.287 379.14L200.85 378.648L193.746 383.056Z" fill="#A9CEEA"/>
<path d="M987.277 378.073H853.975C848.78 378.073 844.568 382.285 844.568 387.481V502.56C844.568 507.755 848.78 511.967 853.975 511.967H987.277C990.849 511.967 993.956 509.977 995.549 507.044C995.838 506.511 996.078 505.947 996.261 505.358C996.537 504.474 996.684 503.534 996.684 502.56V460.146V387.48C996.684 382.285 992.473 378.073 987.277 378.073Z" fill="#578AAD"/>
<path d="M979.421 511.969H853.458C848.548 511.969 844.568 507.989 844.568 503.079V394.335C844.568 389.425 848.548 385.446 853.457 385.446H979.421C984.33 385.446 988.31 389.426 988.31 394.335V503.079C988.311 507.989 984.331 511.969 979.421 511.969Z" fill="#FFA229"/>
<path d="M923.115 410.682L910.84 443.221L903.474 445.223L900.008 441.704L883.68 477.623L920.678 511.969H979.421C984.331 511.969 988.311 507.989 988.311 503.079V463L923.115 410.682Z" fill="#EDC94A"/>
<path d="M945.523 444.802C947.945 444.452 949.814 442.241 949.814 439.56C949.814 436.636 947.593 434.264 944.852 434.264H925.848C925.135 434.264 924.615 433.547 924.793 432.809C925.547 429.67 927.03 421.982 925.503 415.01C924.232 409.207 920.846 407.947 918.591 407.787C917.43 407.705 916.452 408.695 916.482 409.936L916.742 420.396C916.762 421.24 916.569 422.071 916.178 422.805C913.378 428.072 908.331 438.843 906.985 441.729C906.761 442.209 906.445 442.631 906.056 442.97L903.477 445.22V471.5C904.568 473.392 909.819 475.261 909.819 475.261H938.27C940.837 475.261 943.038 473.139 943.129 470.402C943.195 468.38 942.145 466.615 940.586 465.748H942.723C945.303 465.748 947.514 463.604 947.585 460.851C947.649 458.361 946.022 456.265 943.841 455.776H945.4C948.189 455.776 950.451 453.362 950.451 450.383V450.188C950.45 447.254 948.254 444.873 945.523 444.802Z" fill="white"/>
<path d="M898.517 441.035H884.564C883.408 441.035 882.471 442.035 882.471 443.27V475.598C882.471 476.833 883.408 477.833 884.564 477.833H898.517C899.674 477.833 900.61 476.832 900.61 475.598V443.27C900.61 442.035 899.674 441.035 898.517 441.035Z" fill="white"/>
<path d="M886.149 507.996L879.262 533.795L911.048 507.498L886.149 507.996Z" fill="#82C1EE"/>
<path d="M798.38 892.795H315.909C304.002 892.795 294.35 883.142 294.35 871.236V251.286C294.35 239.379 304.002 229.726 315.909 229.726H798.38C810.287 229.726 819.94 239.379 819.94 251.286V871.235C819.94 883.142 810.287 892.795 798.38 892.795Z" fill="#1C4670"/>
<path d="M779.242 269.669L790.508 269.842L779.264 641.922L779.242 269.669Z" fill="#1378D1"/>
<path d="M304.901 856.845V265.092C304.901 248.392 315.991 234.295 331.202 229.726H315.91C304.003 229.726 294.35 239.379 294.35 251.286V871.236C294.35 883.143 304.002 892.795 315.909 892.795H333.473C317.11 888.999 304.901 874.363 304.901 856.845Z" fill="#3BA9DD"/>
<path d="M819.051 694.162L819.941 675.749V251.285C819.941 244.507 816.807 238.467 811.916 234.515L819.051 694.162Z" fill="#1C4670"/>
<path d="M779.03 842.442H335.257C335.099 842.442 334.971 842.314 334.971 842.156V269.952C334.971 269.794 335.099 269.666 335.257 269.666H779.03C779.188 269.666 779.316 269.794 779.316 269.952V842.156C779.316 842.314 779.188 842.442 779.03 842.442Z" fill="url(#paint0_linear_84_228)"/>
<path d="M779.242 309.545H335.048C335.006 309.545 334.973 309.512 334.973 309.47V269.741C334.973 269.7 335.006 269.666 335.048 269.666H779.242C779.284 269.666 779.318 269.699 779.318 269.741V309.47C779.317 309.512 779.284 309.545 779.242 309.545Z" fill="#ABE9FF"/>
<path d="M635.122 219.505H596.311C596.702 218.795 596.944 217.991 596.944 217.124V196.878C596.944 192.465 593.367 188.888 588.953 188.888H533.828C529.415 188.888 525.838 192.465 525.838 196.878V217.124C525.838 217.991 526.081 218.795 526.471 219.505H487.66C482.211 219.505 477.793 223.923 477.793 229.372V259.19C477.793 267.939 484.886 275.032 493.634 275.032H629.146C637.896 275.032 644.989 267.939 644.989 259.19V229.372C644.989 223.923 640.571 219.505 635.122 219.505Z" fill="#F5D420"/>
<path d="M635.123 219.505H596.312C596.703 218.795 596.945 217.991 596.945 217.124V196.878C596.945 192.465 593.367 188.888 588.954 188.888H577.422C582.374 192.162 587.917 197.302 588.295 204.11C588.987 216.565 584.143 231.095 589.678 233.171C595.214 235.246 632.578 226.252 631.886 244.242C631.47 255.056 630.304 267.114 629.441 275.017C638.053 274.86 644.989 267.84 644.989 259.19V229.372C644.989 223.923 640.572 219.505 635.123 219.505Z" fill="#EAC00F"/>
<path d="M603.088 382.928H387.293C384.628 382.928 382.467 380.768 382.467 378.102V370.601C382.467 367.935 384.628 365.775 387.293 365.775H603.088C605.754 365.775 607.915 367.935 607.915 370.601V378.102C607.915 380.767 605.753 382.928 603.088 382.928Z" fill="#80D3FB"/>
<path d="M508.066 765.64H712.001C716.643 765.64 720.405 761.457 720.405 756.297C720.405 751.138 716.642 746.955 712.001 746.955H508.066C503.425 746.955 499.662 751.138 499.662 756.297C499.662 761.456 503.425 765.64 508.066 765.64Z" fill="#80D3FB"/>
<path d="M619.101 728.27H712.001C716.642 728.27 720.405 724.087 720.405 718.927C720.405 713.767 716.642 709.584 712.001 709.584H619.101C614.46 709.584 610.697 713.767 610.697 718.927C610.697 724.088 614.461 728.27 619.101 728.27Z" fill="#80D3FB"/>
<path d="M716.561 548.184H465.674C463.551 548.184 461.83 546.462 461.83 544.34V538.366C461.83 536.243 463.551 534.522 465.674 534.522H716.56C718.683 534.522 720.404 536.244 720.404 538.367V544.34C720.405 546.462 718.684 548.184 716.561 548.184Z" fill="#80D3FB"/>
<path d="M716.561 491.098H465.674C463.551 491.098 461.83 489.377 461.83 487.254V481.281C461.83 479.158 463.551 477.437 465.674 477.437H716.56C718.683 477.437 720.404 479.158 720.404 481.281V487.255C720.404 489.378 718.684 491.098 716.561 491.098Z" fill="#80D3FB"/>
<path d="M428.562 503.051H389.445C388.984 503.051 388.611 502.678 388.611 502.218V466.316C388.611 465.856 388.984 465.483 389.445 465.483H428.562C429.022 465.483 429.396 465.856 429.396 466.316V502.218C429.395 502.678 429.022 503.051 428.562 503.051Z" fill="#80D3FB"/>
<path d="M716.562 602.825H465.676C463.553 602.825 461.832 601.104 461.832 598.981V593.008C461.832 590.885 463.553 589.164 465.676 589.164H716.563C718.686 589.164 720.407 590.885 720.407 593.008V598.981C720.406 601.104 718.685 602.825 716.562 602.825Z" fill="#80D3FB"/>
<path d="M716.562 657.47H465.676C463.553 657.47 461.832 655.75 461.832 653.627V647.653C461.832 645.53 463.553 643.81 465.676 643.81H716.562C718.685 643.81 720.406 645.531 720.406 647.653V653.627C720.406 655.749 718.685 657.47 716.562 657.47Z" fill="#80D3FB"/>
<path d="M715.411 428.965H384.389C383.327 428.965 382.467 428.105 382.467 427.043V424.056C382.467 422.995 383.327 422.135 384.388 422.135H715.41C716.471 422.135 717.332 422.996 717.332 424.057V427.044C717.332 428.105 716.472 428.965 715.411 428.965Z" fill="#80D3FB"/>
<path d="M401.556 493.463C399.835 493.463 398.133 492.709 396.987 491.276L385.781 477.268C384.349 475.478 384.639 472.867 386.428 471.435C388.218 470.004 390.829 470.293 392.262 472.083L401.975 484.225L431.686 461.834C433.515 460.453 436.117 460.819 437.497 462.65C438.877 464.481 438.511 467.082 436.681 468.461L404.892 492.415C403.88 493.121 402.713 493.463 401.556 493.463Z" fill="#027BB7"/>
<path d="M401.556 658.724C399.835 658.724 398.133 657.968 396.987 656.536L385.781 642.529C384.349 640.739 384.639 638.128 386.428 636.695C388.218 635.264 390.829 635.553 392.262 637.343L401.975 649.485L431.686 627.094C433.515 625.714 436.117 626.078 437.497 627.91C438.877 629.741 438.511 632.343 436.681 633.722L404.892 657.676C403.88 658.382 402.713 658.724 401.556 658.724Z" fill="#027BB7"/>
<path d="M913.169 711.492C868.304 710.409 818.84 682.886 818.84 682.886C818.84 682.886 769.664 710.92 724.813 712.468C724.813 712.468 707.732 853.357 819.974 901.902C931.709 852.196 913.169 711.492 913.169 711.492Z" fill="#0A8CC9"/>
<path d="M913.161 710.158C868.297 709.135 818.84 682.886 818.84 682.886C818.84 682.886 769.657 709.646 724.806 711.134C724.806 711.134 707.692 845.564 819.923 891.856C931.668 844.404 913.161 710.158 913.161 710.158Z" fill="#6BA3D8"/>
<path d="M904.465 717.435C863.76 716.509 818.89 692.734 818.89 692.734C818.89 692.734 774.268 716.973 733.575 718.32C733.575 718.32 718.046 840.08 819.87 882.006C921.254 839.027 904.465 717.435 904.465 717.435Z" fill="url(#paint1_linear_84_228)"/>
<path opacity="0.54" d="M898.999 721.93C860.91 721.063 818.922 698.816 818.922 698.816C818.922 698.816 777.167 721.497 739.089 722.758C739.089 722.758 724.558 836.694 819.839 875.927C914.709 835.708 898.999 721.93 898.999 721.93Z" fill="#939292"/>
<path d="M894.807 724.084C858.72 723.242 818.937 701.721 818.937 701.721C818.937 701.721 779.379 723.652 743.303 724.869C743.303 724.869 729.548 835.062 819.825 873.017C909.704 834.128 894.807 724.084 894.807 724.084Z" fill="white"/>
<path d="M888.681 727.852C855.522 727.056 818.963 706.809 818.963 706.809C818.963 706.809 782.617 727.434 749.467 728.574C749.467 728.574 736.84 832.219 819.798 867.93C902.382 831.362 888.681 727.852 888.681 727.852Z" fill="#FFA229"/>
<path d="M818.965 706.809L819.799 867.93C902.384 831.362 888.683 727.852 888.683 727.852C855.524 727.056 818.967 706.811 818.965 706.809Z" fill="#E4D659"/>
<path d="M813.767 808.401C813.664 808.402 813.561 808.4 813.458 808.398C810.726 808.325 808.183 807.107 806.301 804.97L788.956 785.28C787.089 783.159 787.167 779.81 789.133 777.798C791.096 775.785 794.205 775.874 796.073 777.995L813.418 797.685C813.446 797.717 813.53 797.813 813.693 797.817C813.88 797.822 813.946 797.73 813.975 797.699L849.55 761.044C851.508 759.025 854.615 759.102 856.491 761.215C858.364 763.329 858.295 766.679 856.335 768.698L820.761 805.354C818.86 807.312 816.386 808.388 813.767 808.401Z" fill="white"/>
<defs>
<linearGradient id="paint0_linear_84_228" x1="557.143" y1="269.666" x2="557.143" y2="842.442" gradientUnits="userSpaceOnUse">
<stop stop-color="#FDFDFD"/>
<stop offset="0.4791" stop-color="#FBFDFD"/>
<stop offset="0.6517" stop-color="#F4FBFD"/>
<stop offset="0.7747" stop-color="#E9F8FE"/>
<stop offset="0.8741" stop-color="#D8F4FE"/>
<stop offset="0.9583" stop-color="#C2EFFF"/>
<stop offset="1" stop-color="#B4ECFF"/>
</linearGradient>
<linearGradient id="paint1_linear_84_228" x1="818.889" y1="692.734" x2="819.851" y2="882.007" gradientUnits="userSpaceOnUse">
<stop stop-color="#E5E5E5"/>
<stop offset="0.1562" stop-color="#E1E1E1"/>
<stop offset="0.2978" stop-color="#D6D6D6"/>
<stop offset="0.434" stop-color="#C4C4C4"/>
<stop offset="0.5666" stop-color="#AAAAAA"/>
<stop offset="0.6968" stop-color="#888888"/>
<stop offset="0.825" stop-color="#5F5F5F"/>
<stop offset="0.9495" stop-color="#303030"/>
<stop offset="1" stop-color="#1A1A1A"/>
</linearGradient>
</defs>
</svg>
