<svg width="1000" height="1120" viewBox="0 0 1000 1120" fill="none" xmlns="http://www.w3.org/2000/svg">
<rect width="1000" height="1120" transform="translate(1000 1120) rotate(180)" fill="white"/>
<g filter="url(#filter0_d_84_1126)">
<path d="M991 185H243.871L191 30H938.123L991 185Z" fill="#F7F8F8"/>
</g>
<path d="M568.258 117.113V121H553.16V117.113H568.258ZM554.547 92.5625V121H549.645V92.5625H554.547ZM566.285 104.438V108.266H553.16V104.438H566.285ZM568.16 92.5625V96.4688H553.16V92.5625H568.16ZM575.387 99.8672L579.41 106.879L583.512 99.8672H588.688L582.281 110.238L588.941 121H583.766L579.469 113.695L575.172 121H569.977L576.617 110.238L570.23 99.8672H575.387ZM596.637 103.93V129.125H591.93V99.8672H596.266L596.637 103.93ZM610.406 110.238V110.648C610.406 112.185 610.224 113.611 609.859 114.926C609.508 116.228 608.98 117.367 608.277 118.344C607.587 119.307 606.734 120.056 605.719 120.59C604.703 121.124 603.531 121.391 602.203 121.391C600.888 121.391 599.736 121.15 598.746 120.668C597.77 120.173 596.943 119.477 596.266 118.578C595.589 117.68 595.042 116.625 594.625 115.414C594.221 114.19 593.935 112.849 593.766 111.391V109.809C593.935 108.259 594.221 106.853 594.625 105.59C595.042 104.327 595.589 103.24 596.266 102.328C596.943 101.417 597.77 100.714 598.746 100.219C599.723 99.724 600.862 99.4766 602.164 99.4766C603.492 99.4766 604.671 99.737 605.699 100.258C606.728 100.766 607.594 101.495 608.297 102.445C609 103.383 609.527 104.516 609.879 105.844C610.23 107.159 610.406 108.624 610.406 110.238ZM605.699 110.648V110.238C605.699 109.262 605.608 108.357 605.426 107.523C605.243 106.677 604.957 105.935 604.566 105.297C604.176 104.659 603.674 104.164 603.062 103.812C602.464 103.448 601.741 103.266 600.895 103.266C600.061 103.266 599.345 103.409 598.746 103.695C598.147 103.969 597.646 104.353 597.242 104.848C596.839 105.342 596.526 105.922 596.305 106.586C596.083 107.237 595.927 107.947 595.836 108.715V112.504C595.992 113.441 596.259 114.301 596.637 115.082C597.014 115.863 597.548 116.488 598.238 116.957C598.941 117.413 599.84 117.641 600.934 117.641C601.78 117.641 602.503 117.458 603.102 117.094C603.701 116.729 604.189 116.228 604.566 115.59C604.957 114.939 605.243 114.19 605.426 113.344C605.608 112.497 605.699 111.599 605.699 110.648ZM623.727 121.391C622.164 121.391 620.751 121.137 619.488 120.629C618.238 120.108 617.171 119.385 616.285 118.461C615.413 117.536 614.742 116.449 614.273 115.199C613.805 113.949 613.57 112.602 613.57 111.156V110.375C613.57 108.721 613.811 107.224 614.293 105.883C614.775 104.542 615.445 103.396 616.305 102.445C617.164 101.482 618.18 100.746 619.352 100.238C620.523 99.7305 621.793 99.4766 623.16 99.4766C624.671 99.4766 625.992 99.7305 627.125 100.238C628.258 100.746 629.195 101.462 629.938 102.387C630.693 103.298 631.253 104.385 631.617 105.648C631.995 106.911 632.184 108.305 632.184 109.828V111.84H615.855V108.461H627.535V108.09C627.509 107.243 627.34 106.449 627.027 105.707C626.728 104.965 626.266 104.366 625.641 103.91C625.016 103.454 624.182 103.227 623.141 103.227C622.359 103.227 621.663 103.396 621.051 103.734C620.452 104.06 619.951 104.535 619.547 105.16C619.143 105.785 618.831 106.54 618.609 107.426C618.401 108.298 618.297 109.281 618.297 110.375V111.156C618.297 112.081 618.421 112.94 618.668 113.734C618.928 114.516 619.306 115.199 619.801 115.785C620.296 116.371 620.895 116.833 621.598 117.172C622.301 117.497 623.102 117.66 624 117.66C625.133 117.66 626.142 117.432 627.027 116.977C627.913 116.521 628.681 115.876 629.332 115.043L631.812 117.445C631.357 118.109 630.764 118.747 630.035 119.359C629.306 119.958 628.414 120.447 627.359 120.824C626.318 121.202 625.107 121.391 623.727 121.391ZM640.582 103.891V121H635.875V99.8672H640.367L640.582 103.891ZM647.047 99.7305L647.008 104.105C646.721 104.053 646.409 104.014 646.07 103.988C645.745 103.962 645.419 103.949 645.094 103.949C644.286 103.949 643.577 104.066 642.965 104.301C642.353 104.522 641.839 104.848 641.422 105.277C641.018 105.694 640.706 106.202 640.484 106.801C640.263 107.4 640.133 108.07 640.094 108.812L639.02 108.891C639.02 107.562 639.15 106.332 639.41 105.199C639.671 104.066 640.061 103.07 640.582 102.211C641.116 101.352 641.78 100.681 642.574 100.199C643.382 99.7174 644.312 99.4766 645.367 99.4766C645.654 99.4766 645.96 99.5026 646.285 99.5547C646.624 99.6068 646.878 99.6654 647.047 99.7305ZM660.66 99.8672V103.305H648.746V99.8672H660.66ZM652.184 94.6914H656.891V115.16C656.891 115.811 656.982 116.312 657.164 116.664C657.359 117.003 657.626 117.23 657.965 117.348C658.303 117.465 658.701 117.523 659.156 117.523C659.482 117.523 659.794 117.504 660.094 117.465C660.393 117.426 660.634 117.387 660.816 117.348L660.836 120.941C660.445 121.059 659.99 121.163 659.469 121.254C658.961 121.345 658.375 121.391 657.711 121.391C656.63 121.391 655.673 121.202 654.84 120.824C654.007 120.434 653.355 119.802 652.887 118.93C652.418 118.057 652.184 116.898 652.184 115.453V94.6914ZM685.484 92.5625V121H680.621V92.5625H685.484ZM694.41 92.5625V96.4688H671.773V92.5625H694.41ZM705.133 121.391C703.57 121.391 702.158 121.137 700.895 120.629C699.645 120.108 698.577 119.385 697.691 118.461C696.819 117.536 696.148 116.449 695.68 115.199C695.211 113.949 694.977 112.602 694.977 111.156V110.375C694.977 108.721 695.217 107.224 695.699 105.883C696.181 104.542 696.852 103.396 697.711 102.445C698.57 101.482 699.586 100.746 700.758 100.238C701.93 99.7305 703.199 99.4766 704.566 99.4766C706.077 99.4766 707.398 99.7305 708.531 100.238C709.664 100.746 710.602 101.462 711.344 102.387C712.099 103.298 712.659 104.385 713.023 105.648C713.401 106.911 713.59 108.305 713.59 109.828V111.84H697.262V108.461H708.941V108.09C708.915 107.243 708.746 106.449 708.434 105.707C708.134 104.965 707.672 104.366 707.047 103.91C706.422 103.454 705.589 103.227 704.547 103.227C703.766 103.227 703.069 103.396 702.457 103.734C701.858 104.06 701.357 104.535 700.953 105.16C700.549 105.785 700.237 106.54 700.016 107.426C699.807 108.298 699.703 109.281 699.703 110.375V111.156C699.703 112.081 699.827 112.94 700.074 113.734C700.335 114.516 700.712 115.199 701.207 115.785C701.702 116.371 702.301 116.833 703.004 117.172C703.707 117.497 704.508 117.66 705.406 117.66C706.539 117.66 707.548 117.432 708.434 116.977C709.319 116.521 710.087 115.876 710.738 115.043L713.219 117.445C712.763 118.109 712.171 118.747 711.441 119.359C710.712 119.958 709.82 120.447 708.766 120.824C707.724 121.202 706.513 121.391 705.133 121.391ZM729.176 116.762V106.684C729.176 105.928 729.039 105.277 728.766 104.73C728.492 104.184 728.076 103.76 727.516 103.461C726.969 103.161 726.279 103.012 725.445 103.012C724.677 103.012 724.013 103.142 723.453 103.402C722.893 103.663 722.457 104.014 722.145 104.457C721.832 104.9 721.676 105.401 721.676 105.961H716.988C716.988 105.128 717.19 104.32 717.594 103.539C717.997 102.758 718.583 102.061 719.352 101.449C720.12 100.837 721.038 100.355 722.105 100.004C723.173 99.6523 724.371 99.4766 725.699 99.4766C727.288 99.4766 728.694 99.7435 729.918 100.277C731.155 100.811 732.125 101.618 732.828 102.699C733.544 103.767 733.902 105.108 733.902 106.723V116.117C733.902 117.081 733.967 117.947 734.098 118.715C734.241 119.47 734.443 120.128 734.703 120.688V121H729.879C729.658 120.492 729.482 119.848 729.352 119.066C729.234 118.272 729.176 117.504 729.176 116.762ZM729.859 108.148L729.898 111.059H726.52C725.647 111.059 724.879 111.143 724.215 111.312C723.551 111.469 722.997 111.703 722.555 112.016C722.112 112.328 721.78 112.706 721.559 113.148C721.337 113.591 721.227 114.092 721.227 114.652C721.227 115.212 721.357 115.727 721.617 116.195C721.878 116.651 722.255 117.009 722.75 117.27C723.258 117.53 723.87 117.66 724.586 117.66C725.549 117.66 726.389 117.465 727.105 117.074C727.835 116.671 728.408 116.182 728.824 115.609C729.241 115.023 729.462 114.47 729.488 113.949L731.012 116.039C730.855 116.573 730.589 117.146 730.211 117.758C729.833 118.37 729.339 118.956 728.727 119.516C728.128 120.062 727.405 120.512 726.559 120.863C725.725 121.215 724.762 121.391 723.668 121.391C722.288 121.391 721.057 121.117 719.977 120.57C718.896 120.01 718.049 119.262 717.438 118.324C716.826 117.374 716.52 116.299 716.52 115.102C716.52 113.982 716.728 112.992 717.145 112.133C717.574 111.26 718.199 110.531 719.02 109.945C719.853 109.359 720.868 108.917 722.066 108.617C723.264 108.305 724.632 108.148 726.168 108.148H729.859ZM743.531 104.164V121H738.824V99.8672H743.258L743.531 104.164ZM742.77 109.652L741.168 109.633C741.168 108.174 741.35 106.827 741.715 105.59C742.079 104.353 742.613 103.279 743.316 102.367C744.02 101.443 744.892 100.733 745.934 100.238C746.988 99.7305 748.206 99.4766 749.586 99.4766C750.549 99.4766 751.428 99.6198 752.223 99.9062C753.03 100.18 753.727 100.616 754.312 101.215C754.911 101.814 755.367 102.582 755.68 103.52C756.005 104.457 756.168 105.59 756.168 106.918V121H751.461V107.328C751.461 106.299 751.305 105.492 750.992 104.906C750.693 104.32 750.257 103.904 749.684 103.656C749.124 103.396 748.453 103.266 747.672 103.266C746.786 103.266 746.031 103.435 745.406 103.773C744.794 104.112 744.293 104.574 743.902 105.16C743.512 105.746 743.225 106.423 743.043 107.191C742.861 107.96 742.77 108.78 742.77 109.652ZM755.875 108.402L753.668 108.891C753.668 107.615 753.844 106.41 754.195 105.277C754.56 104.132 755.087 103.129 755.777 102.27C756.48 101.397 757.346 100.714 758.375 100.219C759.404 99.724 760.582 99.4766 761.91 99.4766C762.991 99.4766 763.954 99.6263 764.801 99.9258C765.66 100.212 766.389 100.668 766.988 101.293C767.587 101.918 768.043 102.732 768.355 103.734C768.668 104.724 768.824 105.922 768.824 107.328V121H764.098V107.309C764.098 106.241 763.941 105.414 763.629 104.828C763.329 104.242 762.9 103.839 762.34 103.617C761.78 103.383 761.109 103.266 760.328 103.266C759.599 103.266 758.954 103.402 758.395 103.676C757.848 103.936 757.385 104.307 757.008 104.789C756.63 105.258 756.344 105.798 756.148 106.41C755.966 107.022 755.875 107.686 755.875 108.402Z" fill="#1C4670"/>
<g filter="url(#filter1_d_84_1126)">
<path d="M991 854H243.871L191 699H938.123L991 854Z" fill="#F7F8F8"/>
</g>
<path d="M548.59 777.148H541.344L541.305 773.574H547.633C548.701 773.574 549.605 773.418 550.348 773.105C551.103 772.78 551.676 772.318 552.066 771.719C552.457 771.107 552.652 770.371 552.652 769.512C552.652 768.561 552.47 767.786 552.105 767.188C551.741 766.589 551.181 766.152 550.426 765.879C549.684 765.605 548.733 765.469 547.574 765.469H542.828V790H537.926V761.562H547.574C549.137 761.562 550.53 761.712 551.754 762.012C552.991 762.311 554.039 762.78 554.898 763.418C555.771 764.043 556.428 764.837 556.871 765.801C557.327 766.764 557.555 767.91 557.555 769.238C557.555 770.41 557.275 771.484 556.715 772.461C556.155 773.424 555.328 774.212 554.234 774.824C553.141 775.436 551.78 775.801 550.152 775.918L548.59 777.148ZM548.375 790H539.801L542.008 786.113H548.375C549.482 786.113 550.406 785.931 551.148 785.566C551.891 785.189 552.444 784.674 552.809 784.023C553.186 783.359 553.375 782.585 553.375 781.699C553.375 780.775 553.212 779.974 552.887 779.297C552.561 778.607 552.047 778.079 551.344 777.715C550.641 777.337 549.723 777.148 548.59 777.148H543.082L543.121 773.574H550.289L551.402 774.922C552.965 774.974 554.247 775.319 555.25 775.957C556.266 776.595 557.021 777.422 557.516 778.438C558.01 779.453 558.258 780.547 558.258 781.719C558.258 783.529 557.861 785.046 557.066 786.27C556.285 787.493 555.159 788.424 553.688 789.062C552.216 789.688 550.445 790 548.375 790ZM575.445 785.02V768.867H580.172V790H575.719L575.445 785.02ZM576.109 780.625L577.691 780.586C577.691 782.005 577.535 783.314 577.223 784.512C576.91 785.697 576.428 786.732 575.777 787.617C575.126 788.49 574.293 789.173 573.277 789.668C572.262 790.15 571.044 790.391 569.625 790.391C568.596 790.391 567.652 790.241 566.793 789.941C565.934 789.642 565.191 789.18 564.566 788.555C563.954 787.93 563.479 787.116 563.141 786.113C562.802 785.111 562.633 783.913 562.633 782.52V768.867H567.34V782.559C567.34 783.327 567.431 783.971 567.613 784.492C567.796 785 568.043 785.41 568.355 785.723C568.668 786.035 569.033 786.257 569.449 786.387C569.866 786.517 570.309 786.582 570.777 786.582C572.118 786.582 573.173 786.322 573.941 785.801C574.723 785.267 575.276 784.551 575.602 783.652C575.94 782.754 576.109 781.745 576.109 780.625ZM590.035 768.867V790H585.309V768.867H590.035ZM584.996 763.32C584.996 762.604 585.23 762.012 585.699 761.543C586.181 761.061 586.845 760.82 587.691 760.82C588.525 760.82 589.182 761.061 589.664 761.543C590.146 762.012 590.387 762.604 590.387 763.32C590.387 764.023 590.146 764.609 589.664 765.078C589.182 765.547 588.525 765.781 587.691 765.781C586.845 765.781 586.181 765.547 585.699 765.078C585.23 764.609 584.996 764.023 584.996 763.32ZM600.23 760V790H595.504V760H600.23ZM618.277 785.625V760H623.004V790H618.727L618.277 785.625ZM604.527 779.668V779.258C604.527 777.656 604.716 776.198 605.094 774.883C605.471 773.555 606.018 772.415 606.734 771.465C607.451 770.501 608.323 769.766 609.352 769.258C610.38 768.737 611.539 768.477 612.828 768.477C614.104 768.477 615.224 768.724 616.188 769.219C617.151 769.714 617.971 770.423 618.648 771.348C619.326 772.259 619.866 773.353 620.27 774.629C620.673 775.892 620.96 777.298 621.129 778.848V780.156C620.96 781.667 620.673 783.047 620.27 784.297C619.866 785.547 619.326 786.628 618.648 787.539C617.971 788.451 617.145 789.154 616.168 789.648C615.204 790.143 614.078 790.391 612.789 790.391C611.513 790.391 610.361 790.124 609.332 789.59C608.316 789.056 607.451 788.307 606.734 787.344C606.018 786.38 605.471 785.247 605.094 783.945C604.716 782.63 604.527 781.204 604.527 779.668ZM609.234 779.258V779.668C609.234 780.632 609.319 781.53 609.488 782.363C609.671 783.197 609.951 783.932 610.328 784.57C610.706 785.195 611.194 785.69 611.793 786.055C612.405 786.406 613.134 786.582 613.98 786.582C615.048 786.582 615.927 786.348 616.617 785.879C617.307 785.41 617.848 784.779 618.238 783.984C618.642 783.177 618.915 782.279 619.059 781.289V777.754C618.98 776.986 618.818 776.27 618.57 775.605C618.336 774.941 618.017 774.362 617.613 773.867C617.21 773.359 616.708 772.969 616.109 772.695C615.523 772.409 614.827 772.266 614.02 772.266C613.16 772.266 612.431 772.448 611.832 772.812C611.233 773.177 610.738 773.678 610.348 774.316C609.97 774.954 609.69 775.697 609.508 776.543C609.326 777.389 609.234 778.294 609.234 779.258ZM632.965 768.867V790H628.238V768.867H632.965ZM627.926 763.32C627.926 762.604 628.16 762.012 628.629 761.543C629.111 761.061 629.775 760.82 630.621 760.82C631.454 760.82 632.112 761.061 632.594 761.543C633.076 762.012 633.316 762.604 633.316 763.32C633.316 764.023 633.076 764.609 632.594 765.078C632.112 765.547 631.454 765.781 630.621 765.781C629.775 765.781 629.111 765.547 628.629 765.078C628.16 764.609 627.926 764.023 627.926 763.32ZM642.789 773.379V790H638.082V768.867H642.516L642.789 773.379ZM641.949 778.652L640.426 778.633C640.439 777.135 640.647 775.762 641.051 774.512C641.467 773.262 642.04 772.188 642.77 771.289C643.512 770.391 644.397 769.701 645.426 769.219C646.454 768.724 647.6 768.477 648.863 768.477C649.879 768.477 650.797 768.62 651.617 768.906C652.451 769.18 653.16 769.629 653.746 770.254C654.345 770.879 654.801 771.693 655.113 772.695C655.426 773.685 655.582 774.902 655.582 776.348V790H650.855V776.328C650.855 775.312 650.706 774.512 650.406 773.926C650.12 773.327 649.697 772.904 649.137 772.656C648.59 772.396 647.906 772.266 647.086 772.266C646.279 772.266 645.556 772.435 644.918 772.773C644.28 773.112 643.74 773.574 643.297 774.16C642.867 774.746 642.535 775.423 642.301 776.191C642.066 776.96 641.949 777.78 641.949 778.652ZM673.922 768.867H678.199V789.414C678.199 791.315 677.796 792.93 676.988 794.258C676.181 795.586 675.055 796.595 673.609 797.285C672.164 797.988 670.491 798.34 668.59 798.34C667.783 798.34 666.884 798.223 665.895 797.988C664.918 797.754 663.967 797.376 663.043 796.855C662.132 796.348 661.37 795.677 660.758 794.844L662.965 792.07C663.72 792.969 664.553 793.626 665.465 794.043C666.376 794.46 667.333 794.668 668.336 794.668C669.417 794.668 670.335 794.466 671.09 794.062C671.858 793.672 672.451 793.092 672.867 792.324C673.284 791.556 673.492 790.618 673.492 789.512V773.652L673.922 768.867ZM659.566 779.668V779.258C659.566 777.656 659.762 776.198 660.152 774.883C660.543 773.555 661.103 772.415 661.832 771.465C662.561 770.501 663.447 769.766 664.488 769.258C665.53 768.737 666.708 768.477 668.023 768.477C669.391 768.477 670.556 768.724 671.52 769.219C672.496 769.714 673.31 770.423 673.961 771.348C674.612 772.259 675.12 773.353 675.484 774.629C675.862 775.892 676.142 777.298 676.324 778.848V780.156C676.155 781.667 675.868 783.047 675.465 784.297C675.061 785.547 674.527 786.628 673.863 787.539C673.199 788.451 672.379 789.154 671.402 789.648C670.439 790.143 669.299 790.391 667.984 790.391C666.695 790.391 665.53 790.124 664.488 789.59C663.46 789.056 662.574 788.307 661.832 787.344C661.103 786.38 660.543 785.247 660.152 783.945C659.762 782.63 659.566 781.204 659.566 779.668ZM664.273 779.258V779.668C664.273 780.632 664.365 781.53 664.547 782.363C664.742 783.197 665.035 783.932 665.426 784.57C665.829 785.195 666.337 785.69 666.949 786.055C667.574 786.406 668.31 786.582 669.156 786.582C670.263 786.582 671.168 786.348 671.871 785.879C672.587 785.41 673.134 784.779 673.512 783.984C673.902 783.177 674.176 782.279 674.332 781.289V777.754C674.254 776.986 674.091 776.27 673.844 775.605C673.609 774.941 673.29 774.362 672.887 773.867C672.483 773.359 671.975 772.969 671.363 772.695C670.751 772.409 670.029 772.266 669.195 772.266C668.349 772.266 667.613 772.448 666.988 772.812C666.363 773.177 665.849 773.678 665.445 774.316C665.055 774.954 664.762 775.697 664.566 776.543C664.371 777.389 664.273 778.294 664.273 779.258ZM704.273 761.562V790H699.41V761.562H704.273ZM713.199 761.562V765.469H690.562V761.562H713.199ZM719.801 772.891V790H715.094V768.867H719.586L719.801 772.891ZM726.266 768.73L726.227 773.105C725.94 773.053 725.628 773.014 725.289 772.988C724.964 772.962 724.638 772.949 724.312 772.949C723.505 772.949 722.796 773.066 722.184 773.301C721.572 773.522 721.057 773.848 720.641 774.277C720.237 774.694 719.924 775.202 719.703 775.801C719.482 776.4 719.352 777.07 719.312 777.812L718.238 777.891C718.238 776.562 718.368 775.332 718.629 774.199C718.889 773.066 719.28 772.07 719.801 771.211C720.335 770.352 720.999 769.681 721.793 769.199C722.6 768.717 723.531 768.477 724.586 768.477C724.872 768.477 725.178 768.503 725.504 768.555C725.842 768.607 726.096 768.665 726.266 768.73ZM741.93 785.02V768.867H746.656V790H742.203L741.93 785.02ZM742.594 780.625L744.176 780.586C744.176 782.005 744.02 783.314 743.707 784.512C743.395 785.697 742.913 786.732 742.262 787.617C741.611 788.49 740.777 789.173 739.762 789.668C738.746 790.15 737.529 790.391 736.109 790.391C735.081 790.391 734.137 790.241 733.277 789.941C732.418 789.642 731.676 789.18 731.051 788.555C730.439 787.93 729.964 787.116 729.625 786.113C729.286 785.111 729.117 783.913 729.117 782.52V768.867H733.824V782.559C733.824 783.327 733.915 783.971 734.098 784.492C734.28 785 734.527 785.41 734.84 785.723C735.152 786.035 735.517 786.257 735.934 786.387C736.35 786.517 736.793 786.582 737.262 786.582C738.603 786.582 739.658 786.322 740.426 785.801C741.207 785.267 741.76 784.551 742.086 783.652C742.424 782.754 742.594 781.745 742.594 780.625ZM763.336 784.277C763.336 783.809 763.219 783.385 762.984 783.008C762.75 782.617 762.301 782.266 761.637 781.953C760.986 781.641 760.022 781.354 758.746 781.094C757.626 780.846 756.598 780.553 755.66 780.215C754.736 779.863 753.941 779.44 753.277 778.945C752.613 778.451 752.099 777.865 751.734 777.188C751.37 776.51 751.188 775.729 751.188 774.844C751.188 773.984 751.376 773.171 751.754 772.402C752.132 771.634 752.672 770.957 753.375 770.371C754.078 769.785 754.931 769.323 755.934 768.984C756.949 768.646 758.082 768.477 759.332 768.477C761.103 768.477 762.62 768.776 763.883 769.375C765.159 769.961 766.135 770.762 766.812 771.777C767.49 772.78 767.828 773.913 767.828 775.176H763.121C763.121 774.616 762.978 774.095 762.691 773.613C762.418 773.118 762.001 772.721 761.441 772.422C760.882 772.109 760.178 771.953 759.332 771.953C758.525 771.953 757.854 772.083 757.32 772.344C756.799 772.591 756.409 772.917 756.148 773.32C755.901 773.724 755.777 774.167 755.777 774.648C755.777 775 755.842 775.319 755.973 775.605C756.116 775.879 756.35 776.133 756.676 776.367C757.001 776.589 757.444 776.797 758.004 776.992C758.577 777.188 759.293 777.376 760.152 777.559C761.767 777.897 763.154 778.333 764.312 778.867C765.484 779.388 766.383 780.065 767.008 780.898C767.633 781.719 767.945 782.76 767.945 784.023C767.945 784.961 767.743 785.82 767.34 786.602C766.949 787.37 766.376 788.04 765.621 788.613C764.866 789.173 763.961 789.609 762.906 789.922C761.865 790.234 760.693 790.391 759.391 790.391C757.477 790.391 755.855 790.052 754.527 789.375C753.199 788.685 752.19 787.806 751.5 786.738C750.823 785.658 750.484 784.538 750.484 783.379H755.035C755.087 784.251 755.328 784.948 755.758 785.469C756.201 785.977 756.747 786.348 757.398 786.582C758.062 786.803 758.746 786.914 759.449 786.914C760.296 786.914 761.005 786.803 761.578 786.582C762.151 786.348 762.587 786.035 762.887 785.645C763.186 785.241 763.336 784.785 763.336 784.277ZM781.754 768.867V772.305H769.84V768.867H781.754ZM773.277 763.691H777.984V784.16C777.984 784.811 778.076 785.312 778.258 785.664C778.453 786.003 778.72 786.23 779.059 786.348C779.397 786.465 779.794 786.523 780.25 786.523C780.576 786.523 780.888 786.504 781.188 786.465C781.487 786.426 781.728 786.387 781.91 786.348L781.93 789.941C781.539 790.059 781.083 790.163 780.562 790.254C780.055 790.345 779.469 790.391 778.805 790.391C777.724 790.391 776.767 790.202 775.934 789.824C775.1 789.434 774.449 788.802 773.98 787.93C773.512 787.057 773.277 785.898 773.277 784.453V763.691Z" fill="#1C4670"/>
<path d="M320.814 201L333 185H315L320.814 201Z" fill="#005337"/>
<path d="M320.814 870L333 854H315L320.814 870Z" fill="#005337"/>
<path d="M259 15L280 30H264.298L259 15Z" fill="#005337"/>
<path d="M259 684L280 699H264.298L259 684Z" fill="#005337"/>
<path d="M31 15H8L15.4325 37L31 15Z" fill="#FFA229"/>
<path d="M31 684H8L15.4325 706L31 684Z" fill="#1C4670"/>
<path d="M323.457 139.943L374 98.0797L298.621 61.1377L307.209 84.4396H282.452L258.663 15H42.6464L19 47.9693L71.4193 201H322.382L293.346 116.232L315.642 116.193L323.457 139.943Z" fill="#FFA229"/>
<path d="M151.766 140.625C145.958 140.625 141.466 138.997 138.289 135.742C135.138 132.487 133.562 127.799 133.562 121.68V90.6641C133.562 84.2057 135.06 79.2578 138.055 75.8203C141.076 72.3568 145.646 70.625 151.766 70.625C157.911 70.625 162.482 72.3568 165.477 75.8203C168.471 79.2578 169.969 84.2057 169.969 90.6641V121.68C169.969 127.799 168.393 132.487 165.242 135.742C162.091 138.997 157.599 140.625 151.766 140.625ZM151.766 127.969C152.833 127.969 153.667 127.487 154.266 126.523C154.865 125.56 155.164 124.479 155.164 123.281V89.3359C155.164 87.7214 154.982 86.3151 154.617 85.1172C154.279 83.8932 153.328 83.2812 151.766 83.2812C150.203 83.2812 149.24 83.8932 148.875 85.1172C148.536 86.3151 148.367 87.7214 148.367 89.3359V123.281C148.367 124.479 148.667 125.56 149.266 126.523C149.891 127.487 150.724 127.969 151.766 127.969ZM181.023 140V87.0312C180.086 88.151 178.797 89.0625 177.156 89.7656C175.516 90.4427 173.966 90.7812 172.508 90.7812V79.8047C173.888 79.5964 175.372 79.1536 176.961 78.4766C178.549 77.7734 180.021 76.8229 181.375 75.625C182.755 74.401 183.81 72.9297 184.539 71.2109H195.594V140H181.023Z" fill="white"/>
<path d="M323.457 808.943L374 767.08L298.621 730.138L307.209 753.44H282.452L258.663 684H42.6464L19 716.969L71.4193 870H322.382L293.346 785.232L315.642 785.193L323.457 808.943Z" fill="#1C4670"/>
<path d="M151.766 810.625C145.958 810.625 141.466 808.997 138.289 805.742C135.138 802.487 133.562 797.799 133.562 791.68V760.664C133.562 754.206 135.06 749.258 138.055 745.82C141.076 742.357 145.646 740.625 151.766 740.625C157.911 740.625 162.482 742.357 165.477 745.82C168.471 749.258 169.969 754.206 169.969 760.664V791.68C169.969 797.799 168.393 802.487 165.242 805.742C162.091 808.997 157.599 810.625 151.766 810.625ZM151.766 797.969C152.833 797.969 153.667 797.487 154.266 796.523C154.865 795.56 155.164 794.479 155.164 793.281V759.336C155.164 757.721 154.982 756.315 154.617 755.117C154.279 753.893 153.328 753.281 151.766 753.281C150.203 753.281 149.24 753.893 148.875 755.117C148.536 756.315 148.367 757.721 148.367 759.336V793.281C148.367 794.479 148.667 795.56 149.266 796.523C149.891 797.487 150.724 797.969 151.766 797.969ZM192.625 810.039V799.141H172.234V788.398L185.242 741.211H206.648V787.656H210.32V799.141H206.648V810.039H192.625ZM184.5 787.656H192.625V753.008L184.5 787.656Z" fill="white"/>
<path d="M530.002 155.996C529.997 155.867 530.007 155.738 530.031 155.616C530.055 155.494 530.092 155.383 530.139 155.29C530.187 155.196 530.245 155.122 530.309 155.072C530.372 155.023 530.441 154.998 530.51 155C530.644 155.021 530.768 155.136 530.859 155.321C530.95 155.506 531 155.749 531 156C531 156.251 530.95 156.494 530.859 156.679C530.768 156.864 530.644 156.978 530.51 157C530.44 157.003 530.371 156.979 530.307 156.929C530.243 156.879 530.185 156.805 530.137 156.71C530.089 156.615 530.052 156.503 530.029 156.38C530.005 156.257 529.996 156.126 530.002 155.996Z" fill="#737277"/>
<path d="M530.002 824.996C529.997 824.867 530.007 824.738 530.031 824.616C530.055 824.494 530.092 824.383 530.139 824.29C530.187 824.196 530.245 824.122 530.309 824.072C530.372 824.023 530.441 823.998 530.51 824C530.644 824.021 530.768 824.136 530.859 824.321C530.95 824.506 531 824.749 531 825C531 825.251 530.95 825.494 530.859 825.679C530.768 825.864 530.644 825.978 530.51 826C530.44 826.003 530.371 825.979 530.307 825.929C530.243 825.879 530.185 825.805 530.137 825.71C530.089 825.615 530.052 825.503 530.029 825.38C530.005 825.257 529.996 825.126 530.002 824.996Z" fill="#737277"/>
<path d="M727.001 155.994C726.997 155.865 727.006 155.736 727.028 155.615C727.051 155.494 727.085 155.383 727.13 155.29C727.174 155.197 727.228 155.123 727.287 155.073C727.347 155.024 727.411 154.999 727.475 155.001C727.575 154.991 727.674 155.041 727.76 155.145C727.845 155.249 727.913 155.402 727.955 155.584C727.996 155.766 728.01 155.969 727.993 156.166C727.976 156.364 727.931 156.547 727.861 156.691C727.792 156.836 727.703 156.936 727.605 156.978C727.508 157.02 727.406 157.002 727.313 156.927C727.22 156.852 727.141 156.723 727.085 156.557C727.03 156.39 727 156.194 727.001 155.994Z" fill="#737277"/>
<path d="M727.001 824.994C726.997 824.865 727.006 824.736 727.028 824.615C727.051 824.494 727.085 824.383 727.13 824.29C727.174 824.197 727.228 824.123 727.287 824.073C727.347 824.024 727.411 823.999 727.475 824.001C727.575 823.991 727.674 824.041 727.76 824.145C727.845 824.249 727.913 824.402 727.955 824.584C727.996 824.766 728.01 824.969 727.993 825.166C727.976 825.364 727.931 825.547 727.861 825.691C727.792 825.836 727.703 825.936 727.605 825.978C727.508 826.02 727.406 826.002 727.313 825.927C727.22 825.852 727.141 825.723 727.085 825.557C727.03 825.39 727 825.194 727.001 824.994Z" fill="#737277"/>
<g filter="url(#filter2_d_84_1126)">
<path d="M991 410H243.871L191 255H938.123L991 410Z" fill="#F7F8F8"/>
</g>
<path d="M562.281 321.352L553.785 346H548.648L559.352 317.562H562.633L562.281 321.352ZM569.391 346L560.875 321.352L560.504 317.562H563.805L574.547 346H569.391ZM568.98 335.453V339.34H553.512V335.453H568.98ZM583.629 346H578.922V322.836C578.922 321.26 579.215 319.939 579.801 318.871C580.4 317.79 581.253 316.977 582.359 316.43C583.466 315.87 584.775 315.59 586.285 315.59C586.754 315.59 587.216 315.622 587.672 315.688C588.128 315.74 588.57 315.824 589 315.941L588.883 319.574C588.622 319.509 588.336 319.464 588.023 319.438C587.724 319.411 587.398 319.398 587.047 319.398C586.331 319.398 585.712 319.535 585.191 319.809C584.684 320.069 584.293 320.453 584.02 320.961C583.759 321.469 583.629 322.094 583.629 322.836V346ZM587.984 324.867V328.305H575.68V324.867H587.984ZM597.77 346H593.062V322.836C593.062 321.26 593.355 319.939 593.941 318.871C594.54 317.79 595.393 316.977 596.5 316.43C597.607 315.87 598.915 315.59 600.426 315.59C600.895 315.59 601.357 315.622 601.812 315.688C602.268 315.74 602.711 315.824 603.141 315.941L603.023 319.574C602.763 319.509 602.477 319.464 602.164 319.438C601.865 319.411 601.539 319.398 601.188 319.398C600.471 319.398 599.853 319.535 599.332 319.809C598.824 320.069 598.434 320.453 598.16 320.961C597.9 321.469 597.77 322.094 597.77 322.836V346ZM602.125 324.867V328.305H589.82V324.867H602.125ZM604.645 335.668V335.219C604.645 333.695 604.866 332.283 605.309 330.98C605.751 329.665 606.389 328.526 607.223 327.562C608.069 326.586 609.098 325.831 610.309 325.297C611.533 324.75 612.913 324.477 614.449 324.477C615.999 324.477 617.379 324.75 618.59 325.297C619.814 325.831 620.849 326.586 621.695 327.562C622.542 328.526 623.186 329.665 623.629 330.98C624.072 332.283 624.293 333.695 624.293 335.219V335.668C624.293 337.191 624.072 338.604 623.629 339.906C623.186 341.208 622.542 342.348 621.695 343.324C620.849 344.288 619.82 345.043 618.609 345.59C617.398 346.124 616.025 346.391 614.488 346.391C612.939 346.391 611.552 346.124 610.328 345.59C609.117 345.043 608.089 344.288 607.242 343.324C606.396 342.348 605.751 341.208 605.309 339.906C604.866 338.604 604.645 337.191 604.645 335.668ZM609.352 335.219V335.668C609.352 336.618 609.449 337.517 609.645 338.363C609.84 339.21 610.146 339.952 610.562 340.59C610.979 341.228 611.513 341.729 612.164 342.094C612.815 342.458 613.59 342.641 614.488 342.641C615.361 342.641 616.116 342.458 616.754 342.094C617.405 341.729 617.939 341.228 618.355 340.59C618.772 339.952 619.078 339.21 619.273 338.363C619.482 337.517 619.586 336.618 619.586 335.668V335.219C619.586 334.281 619.482 333.396 619.273 332.562C619.078 331.716 618.766 330.967 618.336 330.316C617.919 329.665 617.385 329.158 616.734 328.793C616.096 328.415 615.335 328.227 614.449 328.227C613.564 328.227 612.796 328.415 612.145 328.793C611.507 329.158 610.979 329.665 610.562 330.316C610.146 330.967 609.84 331.716 609.645 332.562C609.449 333.396 609.352 334.281 609.352 335.219ZM632.965 328.891V346H628.258V324.867H632.75L632.965 328.891ZM639.43 324.73L639.391 329.105C639.104 329.053 638.792 329.014 638.453 328.988C638.128 328.962 637.802 328.949 637.477 328.949C636.669 328.949 635.96 329.066 635.348 329.301C634.736 329.522 634.221 329.848 633.805 330.277C633.401 330.694 633.089 331.202 632.867 331.801C632.646 332.4 632.516 333.07 632.477 333.812L631.402 333.891C631.402 332.562 631.533 331.332 631.793 330.199C632.053 329.066 632.444 328.07 632.965 327.211C633.499 326.352 634.163 325.681 634.957 325.199C635.764 324.717 636.695 324.477 637.75 324.477C638.036 324.477 638.342 324.503 638.668 324.555C639.007 324.607 639.26 324.665 639.43 324.73ZM654.879 341.625V316H659.605V346H655.328L654.879 341.625ZM641.129 335.668V335.258C641.129 333.656 641.318 332.198 641.695 330.883C642.073 329.555 642.62 328.415 643.336 327.465C644.052 326.501 644.924 325.766 645.953 325.258C646.982 324.737 648.141 324.477 649.43 324.477C650.706 324.477 651.826 324.724 652.789 325.219C653.753 325.714 654.573 326.423 655.25 327.348C655.927 328.259 656.467 329.353 656.871 330.629C657.275 331.892 657.561 333.298 657.73 334.848V336.156C657.561 337.667 657.275 339.047 656.871 340.297C656.467 341.547 655.927 342.628 655.25 343.539C654.573 344.451 653.746 345.154 652.77 345.648C651.806 346.143 650.68 346.391 649.391 346.391C648.115 346.391 646.962 346.124 645.934 345.59C644.918 345.056 644.052 344.307 643.336 343.344C642.62 342.38 642.073 341.247 641.695 339.945C641.318 338.63 641.129 337.204 641.129 335.668ZM645.836 335.258V335.668C645.836 336.632 645.921 337.53 646.09 338.363C646.272 339.197 646.552 339.932 646.93 340.57C647.307 341.195 647.796 341.69 648.395 342.055C649.007 342.406 649.736 342.582 650.582 342.582C651.65 342.582 652.529 342.348 653.219 341.879C653.909 341.41 654.449 340.779 654.84 339.984C655.243 339.177 655.517 338.279 655.66 337.289V333.754C655.582 332.986 655.419 332.27 655.172 331.605C654.938 330.941 654.618 330.362 654.215 329.867C653.811 329.359 653.31 328.969 652.711 328.695C652.125 328.409 651.428 328.266 650.621 328.266C649.762 328.266 649.033 328.448 648.434 328.812C647.835 329.177 647.34 329.678 646.949 330.316C646.572 330.954 646.292 331.697 646.109 332.543C645.927 333.389 645.836 334.294 645.836 335.258ZM676.441 341.762V331.684C676.441 330.928 676.305 330.277 676.031 329.73C675.758 329.184 675.341 328.76 674.781 328.461C674.234 328.161 673.544 328.012 672.711 328.012C671.943 328.012 671.279 328.142 670.719 328.402C670.159 328.663 669.723 329.014 669.41 329.457C669.098 329.9 668.941 330.401 668.941 330.961H664.254C664.254 330.128 664.456 329.32 664.859 328.539C665.263 327.758 665.849 327.061 666.617 326.449C667.385 325.837 668.303 325.355 669.371 325.004C670.439 324.652 671.637 324.477 672.965 324.477C674.553 324.477 675.96 324.743 677.184 325.277C678.421 325.811 679.391 326.618 680.094 327.699C680.81 328.767 681.168 330.108 681.168 331.723V341.117C681.168 342.081 681.233 342.947 681.363 343.715C681.507 344.47 681.708 345.128 681.969 345.688V346H677.145C676.923 345.492 676.747 344.848 676.617 344.066C676.5 343.272 676.441 342.504 676.441 341.762ZM677.125 333.148L677.164 336.059H673.785C672.913 336.059 672.145 336.143 671.48 336.312C670.816 336.469 670.263 336.703 669.82 337.016C669.378 337.328 669.046 337.706 668.824 338.148C668.603 338.591 668.492 339.092 668.492 339.652C668.492 340.212 668.622 340.727 668.883 341.195C669.143 341.651 669.521 342.009 670.016 342.27C670.523 342.53 671.135 342.66 671.852 342.66C672.815 342.66 673.655 342.465 674.371 342.074C675.1 341.671 675.673 341.182 676.09 340.609C676.507 340.023 676.728 339.47 676.754 338.949L678.277 341.039C678.121 341.573 677.854 342.146 677.477 342.758C677.099 343.37 676.604 343.956 675.992 344.516C675.393 345.062 674.671 345.512 673.824 345.863C672.991 346.215 672.027 346.391 670.934 346.391C669.553 346.391 668.323 346.117 667.242 345.57C666.161 345.01 665.315 344.262 664.703 343.324C664.091 342.374 663.785 341.299 663.785 340.102C663.785 338.982 663.993 337.992 664.41 337.133C664.84 336.26 665.465 335.531 666.285 334.945C667.118 334.359 668.134 333.917 669.332 333.617C670.53 333.305 671.897 333.148 673.434 333.148H677.125ZM686.109 316H690.816V341.488L690.367 346H686.109V316ZM704.605 335.238V335.648C704.605 337.211 704.43 338.65 704.078 339.965C703.74 341.267 703.219 342.4 702.516 343.363C701.826 344.327 700.966 345.076 699.938 345.609C698.922 346.13 697.743 346.391 696.402 346.391C695.087 346.391 693.941 346.143 692.965 345.648C691.988 345.154 691.168 344.451 690.504 343.539C689.853 342.628 689.326 341.54 688.922 340.277C688.518 339.014 688.232 337.621 688.062 336.098V334.789C688.232 333.253 688.518 331.859 688.922 330.609C689.326 329.346 689.853 328.259 690.504 327.348C691.168 326.423 691.982 325.714 692.945 325.219C693.922 324.724 695.061 324.477 696.363 324.477C697.717 324.477 698.909 324.737 699.938 325.258C700.979 325.779 701.845 326.521 702.535 327.484C703.225 328.435 703.74 329.568 704.078 330.883C704.43 332.198 704.605 333.65 704.605 335.238ZM699.898 335.648V335.238C699.898 334.288 699.82 333.396 699.664 332.562C699.508 331.716 699.247 330.974 698.883 330.336C698.531 329.698 698.049 329.197 697.438 328.832C696.839 328.454 696.09 328.266 695.191 328.266C694.358 328.266 693.642 328.409 693.043 328.695C692.444 328.982 691.943 329.372 691.539 329.867C691.135 330.362 690.816 330.935 690.582 331.586C690.361 332.237 690.211 332.94 690.133 333.695V337.23C690.25 338.207 690.497 339.105 690.875 339.926C691.266 340.733 691.812 341.384 692.516 341.879C693.219 342.361 694.124 342.602 695.23 342.602C696.103 342.602 696.839 342.426 697.438 342.074C698.036 341.723 698.512 341.234 698.863 340.609C699.228 339.971 699.488 339.229 699.645 338.383C699.814 337.536 699.898 336.625 699.898 335.648ZM713.629 324.867V346H708.902V324.867H713.629ZM708.59 319.32C708.59 318.604 708.824 318.012 709.293 317.543C709.775 317.061 710.439 316.82 711.285 316.82C712.118 316.82 712.776 317.061 713.258 317.543C713.74 318.012 713.98 318.604 713.98 319.32C713.98 320.023 713.74 320.609 713.258 321.078C712.776 321.547 712.118 321.781 711.285 321.781C710.439 321.781 709.775 321.547 709.293 321.078C708.824 320.609 708.59 320.023 708.59 319.32ZM723.824 316V346H719.098V316H723.824ZM734.02 324.867V346H729.293V324.867H734.02ZM728.98 319.32C728.98 318.604 729.215 318.012 729.684 317.543C730.165 317.061 730.829 316.82 731.676 316.82C732.509 316.82 733.167 317.061 733.648 317.543C734.13 318.012 734.371 318.604 734.371 319.32C734.371 320.023 734.13 320.609 733.648 321.078C733.167 321.547 732.509 321.781 731.676 321.781C730.829 321.781 730.165 321.547 729.684 321.078C729.215 320.609 728.98 320.023 728.98 319.32ZM748.863 324.867V328.305H736.949V324.867H748.863ZM740.387 319.691H745.094V340.16C745.094 340.811 745.185 341.312 745.367 341.664C745.562 342.003 745.829 342.23 746.168 342.348C746.507 342.465 746.904 342.523 747.359 342.523C747.685 342.523 747.997 342.504 748.297 342.465C748.596 342.426 748.837 342.387 749.02 342.348L749.039 345.941C748.648 346.059 748.193 346.163 747.672 346.254C747.164 346.345 746.578 346.391 745.914 346.391C744.833 346.391 743.876 346.202 743.043 345.824C742.21 345.434 741.559 344.802 741.09 343.93C740.621 343.057 740.387 341.898 740.387 340.453V319.691ZM758.629 343.695L764.371 324.867H769.41L760.934 349.223C760.738 349.743 760.484 350.31 760.172 350.922C759.859 351.534 759.449 352.113 758.941 352.66C758.447 353.22 757.828 353.669 757.086 354.008C756.344 354.359 755.445 354.535 754.391 354.535C753.974 354.535 753.57 354.496 753.18 354.418C752.802 354.353 752.444 354.281 752.105 354.203L752.086 350.609C752.216 350.622 752.372 350.635 752.555 350.648C752.75 350.661 752.906 350.668 753.023 350.668C753.805 350.668 754.456 350.57 754.977 350.375C755.497 350.193 755.921 349.893 756.246 349.477C756.585 349.06 756.871 348.5 757.105 347.797L758.629 343.695ZM755.387 324.867L760.406 340.688L761.246 345.648L757.984 346.488L750.309 324.867H755.387Z" fill="#1C4670"/>
<g filter="url(#filter3_d_84_1126)">
<path d="M991 1079H243.871L191 924H938.123L991 1079Z" fill="#F7F8F8"/>
</g>
<path d="M479.637 963.562V992H474.773V963.562H479.637ZM488.562 963.562V967.469H465.926V963.562H488.562ZM495.164 974.891V992H490.457V970.867H494.949L495.164 974.891ZM501.629 970.73L501.59 975.105C501.303 975.053 500.991 975.014 500.652 974.988C500.327 974.962 500.001 974.949 499.676 974.949C498.868 974.949 498.159 975.066 497.547 975.301C496.935 975.522 496.421 975.848 496.004 976.277C495.6 976.694 495.288 977.202 495.066 977.801C494.845 978.4 494.715 979.07 494.676 979.812L493.602 979.891C493.602 978.562 493.732 977.332 493.992 976.199C494.253 975.066 494.643 974.07 495.164 973.211C495.698 972.352 496.362 971.681 497.156 971.199C497.964 970.717 498.895 970.477 499.949 970.477C500.236 970.477 500.542 970.503 500.867 970.555C501.206 970.607 501.46 970.665 501.629 970.73ZM517.293 987.02V970.867H522.02V992H517.566L517.293 987.02ZM517.957 982.625L519.539 982.586C519.539 984.005 519.383 985.314 519.07 986.512C518.758 987.697 518.276 988.732 517.625 989.617C516.974 990.49 516.141 991.173 515.125 991.668C514.109 992.15 512.892 992.391 511.473 992.391C510.444 992.391 509.5 992.241 508.641 991.941C507.781 991.642 507.039 991.18 506.414 990.555C505.802 989.93 505.327 989.116 504.988 988.113C504.65 987.111 504.48 985.913 504.48 984.52V970.867H509.188V984.559C509.188 985.327 509.279 985.971 509.461 986.492C509.643 987 509.891 987.41 510.203 987.723C510.516 988.035 510.88 988.257 511.297 988.387C511.714 988.517 512.156 988.582 512.625 988.582C513.966 988.582 515.021 988.322 515.789 987.801C516.57 987.267 517.124 986.551 517.449 985.652C517.788 984.754 517.957 983.745 517.957 982.625ZM538.699 986.277C538.699 985.809 538.582 985.385 538.348 985.008C538.113 984.617 537.664 984.266 537 983.953C536.349 983.641 535.385 983.354 534.109 983.094C532.99 982.846 531.961 982.553 531.023 982.215C530.099 981.863 529.305 981.44 528.641 980.945C527.977 980.451 527.462 979.865 527.098 979.188C526.733 978.51 526.551 977.729 526.551 976.844C526.551 975.984 526.74 975.171 527.117 974.402C527.495 973.634 528.035 972.957 528.738 972.371C529.441 971.785 530.294 971.323 531.297 970.984C532.312 970.646 533.445 970.477 534.695 970.477C536.466 970.477 537.983 970.776 539.246 971.375C540.522 971.961 541.499 972.762 542.176 973.777C542.853 974.78 543.191 975.913 543.191 977.176H538.484C538.484 976.616 538.341 976.095 538.055 975.613C537.781 975.118 537.365 974.721 536.805 974.422C536.245 974.109 535.542 973.953 534.695 973.953C533.888 973.953 533.217 974.083 532.684 974.344C532.163 974.591 531.772 974.917 531.512 975.32C531.264 975.724 531.141 976.167 531.141 976.648C531.141 977 531.206 977.319 531.336 977.605C531.479 977.879 531.714 978.133 532.039 978.367C532.365 978.589 532.807 978.797 533.367 978.992C533.94 979.188 534.656 979.376 535.516 979.559C537.13 979.897 538.517 980.333 539.676 980.867C540.848 981.388 541.746 982.065 542.371 982.898C542.996 983.719 543.309 984.76 543.309 986.023C543.309 986.961 543.107 987.82 542.703 988.602C542.312 989.37 541.74 990.04 540.984 990.613C540.229 991.173 539.324 991.609 538.27 991.922C537.228 992.234 536.056 992.391 534.754 992.391C532.84 992.391 531.219 992.052 529.891 991.375C528.562 990.685 527.553 989.806 526.863 988.738C526.186 987.658 525.848 986.538 525.848 985.379H530.398C530.451 986.251 530.691 986.948 531.121 987.469C531.564 987.977 532.111 988.348 532.762 988.582C533.426 988.803 534.109 988.914 534.812 988.914C535.659 988.914 536.368 988.803 536.941 988.582C537.514 988.348 537.951 988.035 538.25 987.645C538.549 987.241 538.699 986.785 538.699 986.277ZM557.117 970.867V974.305H545.203V970.867H557.117ZM548.641 965.691H553.348V986.16C553.348 986.811 553.439 987.312 553.621 987.664C553.816 988.003 554.083 988.23 554.422 988.348C554.76 988.465 555.158 988.523 555.613 988.523C555.939 988.523 556.251 988.504 556.551 988.465C556.85 988.426 557.091 988.387 557.273 988.348L557.293 991.941C556.902 992.059 556.447 992.163 555.926 992.254C555.418 992.345 554.832 992.391 554.168 992.391C553.087 992.391 552.13 992.202 551.297 991.824C550.464 991.434 549.812 990.802 549.344 989.93C548.875 989.057 548.641 987.898 548.641 986.453V965.691ZM570.066 992.391C568.504 992.391 567.091 992.137 565.828 991.629C564.578 991.108 563.51 990.385 562.625 989.461C561.753 988.536 561.082 987.449 560.613 986.199C560.145 984.949 559.91 983.602 559.91 982.156V981.375C559.91 979.721 560.151 978.224 560.633 976.883C561.115 975.542 561.785 974.396 562.645 973.445C563.504 972.482 564.52 971.746 565.691 971.238C566.863 970.73 568.133 970.477 569.5 970.477C571.01 970.477 572.332 970.73 573.465 971.238C574.598 971.746 575.535 972.462 576.277 973.387C577.033 974.298 577.592 975.385 577.957 976.648C578.335 977.911 578.523 979.305 578.523 980.828V982.84H562.195V979.461H573.875V979.09C573.849 978.243 573.68 977.449 573.367 976.707C573.068 975.965 572.605 975.366 571.98 974.91C571.355 974.454 570.522 974.227 569.48 974.227C568.699 974.227 568.003 974.396 567.391 974.734C566.792 975.06 566.29 975.535 565.887 976.16C565.483 976.785 565.171 977.54 564.949 978.426C564.741 979.298 564.637 980.281 564.637 981.375V982.156C564.637 983.081 564.76 983.94 565.008 984.734C565.268 985.516 565.646 986.199 566.141 986.785C566.635 987.371 567.234 987.833 567.938 988.172C568.641 988.497 569.441 988.66 570.34 988.66C571.473 988.66 572.482 988.432 573.367 987.977C574.253 987.521 575.021 986.876 575.672 986.043L578.152 988.445C577.697 989.109 577.104 989.747 576.375 990.359C575.646 990.958 574.754 991.447 573.699 991.824C572.658 992.202 571.447 992.391 570.066 992.391ZM595.086 987.625V962H599.812V992H595.535L595.086 987.625ZM581.336 981.668V981.258C581.336 979.656 581.525 978.198 581.902 976.883C582.28 975.555 582.827 974.415 583.543 973.465C584.259 972.501 585.132 971.766 586.16 971.258C587.189 970.737 588.348 970.477 589.637 970.477C590.913 970.477 592.033 970.724 592.996 971.219C593.96 971.714 594.78 972.423 595.457 973.348C596.134 974.259 596.674 975.353 597.078 976.629C597.482 977.892 597.768 979.298 597.938 980.848V982.156C597.768 983.667 597.482 985.047 597.078 986.297C596.674 987.547 596.134 988.628 595.457 989.539C594.78 990.451 593.953 991.154 592.977 991.648C592.013 992.143 590.887 992.391 589.598 992.391C588.322 992.391 587.169 992.124 586.141 991.59C585.125 991.056 584.259 990.307 583.543 989.344C582.827 988.38 582.28 987.247 581.902 985.945C581.525 984.63 581.336 983.204 581.336 981.668ZM586.043 981.258V981.668C586.043 982.632 586.128 983.53 586.297 984.363C586.479 985.197 586.759 985.932 587.137 986.57C587.514 987.195 588.003 987.69 588.602 988.055C589.214 988.406 589.943 988.582 590.789 988.582C591.857 988.582 592.736 988.348 593.426 987.879C594.116 987.41 594.656 986.779 595.047 985.984C595.451 985.177 595.724 984.279 595.867 983.289V979.754C595.789 978.986 595.626 978.27 595.379 977.605C595.145 976.941 594.826 976.362 594.422 975.867C594.018 975.359 593.517 974.969 592.918 974.695C592.332 974.409 591.635 974.266 590.828 974.266C589.969 974.266 589.24 974.448 588.641 974.812C588.042 975.177 587.547 975.678 587.156 976.316C586.779 976.954 586.499 977.697 586.316 978.543C586.134 979.389 586.043 980.294 586.043 981.258ZM614.715 962H619.422V987.488L618.973 992H614.715V962ZM633.211 981.238V981.648C633.211 983.211 633.035 984.65 632.684 985.965C632.345 987.267 631.824 988.4 631.121 989.363C630.431 990.327 629.572 991.076 628.543 991.609C627.527 992.13 626.349 992.391 625.008 992.391C623.693 992.391 622.547 992.143 621.57 991.648C620.594 991.154 619.773 990.451 619.109 989.539C618.458 988.628 617.931 987.54 617.527 986.277C617.124 985.014 616.837 983.621 616.668 982.098V980.789C616.837 979.253 617.124 977.859 617.527 976.609C617.931 975.346 618.458 974.259 619.109 973.348C619.773 972.423 620.587 971.714 621.551 971.219C622.527 970.724 623.667 970.477 624.969 970.477C626.323 970.477 627.514 970.737 628.543 971.258C629.585 971.779 630.451 972.521 631.141 973.484C631.831 974.435 632.345 975.568 632.684 976.883C633.035 978.198 633.211 979.65 633.211 981.238ZM628.504 981.648V981.238C628.504 980.288 628.426 979.396 628.27 978.562C628.113 977.716 627.853 976.974 627.488 976.336C627.137 975.698 626.655 975.197 626.043 974.832C625.444 974.454 624.695 974.266 623.797 974.266C622.964 974.266 622.247 974.409 621.648 974.695C621.049 974.982 620.548 975.372 620.145 975.867C619.741 976.362 619.422 976.935 619.188 977.586C618.966 978.237 618.816 978.94 618.738 979.695V983.23C618.855 984.207 619.103 985.105 619.48 985.926C619.871 986.733 620.418 987.384 621.121 987.879C621.824 988.361 622.729 988.602 623.836 988.602C624.708 988.602 625.444 988.426 626.043 988.074C626.642 987.723 627.117 987.234 627.469 986.609C627.833 985.971 628.094 985.229 628.25 984.383C628.419 983.536 628.504 982.625 628.504 981.648ZM643.094 989.695L648.836 970.867H653.875L645.398 995.223C645.203 995.743 644.949 996.31 644.637 996.922C644.324 997.534 643.914 998.113 643.406 998.66C642.911 999.22 642.293 999.669 641.551 1000.01C640.809 1000.36 639.91 1000.54 638.855 1000.54C638.439 1000.54 638.035 1000.5 637.645 1000.42C637.267 1000.35 636.909 1000.28 636.57 1000.2L636.551 996.609C636.681 996.622 636.837 996.635 637.02 996.648C637.215 996.661 637.371 996.668 637.488 996.668C638.27 996.668 638.921 996.57 639.441 996.375C639.962 996.193 640.385 995.893 640.711 995.477C641.049 995.06 641.336 994.5 641.57 993.797L643.094 989.695ZM639.852 970.867L644.871 986.688L645.711 991.648L642.449 992.488L634.773 970.867H639.852ZM679.109 963.465V992H674.402V969.051L667.43 971.414V967.527L678.543 963.465H679.109ZM707.527 975.398V980.047C707.527 982.273 707.306 984.174 706.863 985.75C706.434 987.312 705.809 988.582 704.988 989.559C704.168 990.535 703.185 991.251 702.039 991.707C700.906 992.163 699.637 992.391 698.23 992.391C697.111 992.391 696.069 992.247 695.105 991.961C694.155 991.674 693.296 991.225 692.527 990.613C691.759 990.001 691.102 989.214 690.555 988.25C690.021 987.273 689.604 986.108 689.305 984.754C689.018 983.4 688.875 981.831 688.875 980.047V975.398C688.875 973.159 689.096 971.271 689.539 969.734C689.982 968.185 690.613 966.928 691.434 965.965C692.254 964.988 693.23 964.279 694.363 963.836C695.509 963.393 696.785 963.172 698.191 963.172C699.324 963.172 700.366 963.315 701.316 963.602C702.28 963.875 703.139 964.311 703.895 964.91C704.663 965.509 705.314 966.29 705.848 967.254C706.395 968.204 706.811 969.357 707.098 970.711C707.384 972.052 707.527 973.615 707.527 975.398ZM702.82 980.711V974.695C702.82 973.562 702.755 972.566 702.625 971.707C702.495 970.835 702.299 970.099 702.039 969.5C701.792 968.888 701.479 968.393 701.102 968.016C700.724 967.625 700.294 967.345 699.812 967.176C699.331 966.993 698.79 966.902 698.191 966.902C697.462 966.902 696.811 967.046 696.238 967.332C695.665 967.605 695.184 968.048 694.793 968.66C694.402 969.272 694.103 970.079 693.895 971.082C693.699 972.072 693.602 973.276 693.602 974.695V980.711C693.602 981.857 693.667 982.866 693.797 983.738C693.927 984.611 694.122 985.359 694.383 985.984C694.643 986.596 694.956 987.104 695.32 987.508C695.698 987.898 696.128 988.185 696.609 988.367C697.104 988.549 697.645 988.641 698.23 988.641C698.973 988.641 699.63 988.497 700.203 988.211C700.776 987.924 701.258 987.469 701.648 986.844C702.039 986.206 702.332 985.379 702.527 984.363C702.723 983.348 702.82 982.13 702.82 980.711ZM716.414 987.469L716.395 990.828C716.395 992.156 716.062 993.523 715.398 994.93C714.734 996.336 713.855 997.495 712.762 998.406L710.242 996.941C710.607 996.355 710.939 995.763 711.238 995.164C711.538 994.565 711.779 993.927 711.961 993.25C712.143 992.573 712.234 991.824 712.234 991.004V987.469H716.414ZM739.207 975.398V980.047C739.207 982.273 738.986 984.174 738.543 985.75C738.113 987.312 737.488 988.582 736.668 989.559C735.848 990.535 734.865 991.251 733.719 991.707C732.586 992.163 731.316 992.391 729.91 992.391C728.79 992.391 727.749 992.247 726.785 991.961C725.835 991.674 724.975 991.225 724.207 990.613C723.439 990.001 722.781 989.214 722.234 988.25C721.701 987.273 721.284 986.108 720.984 984.754C720.698 983.4 720.555 981.831 720.555 980.047V975.398C720.555 973.159 720.776 971.271 721.219 969.734C721.661 968.185 722.293 966.928 723.113 965.965C723.934 964.988 724.91 964.279 726.043 963.836C727.189 963.393 728.465 963.172 729.871 963.172C731.004 963.172 732.046 963.315 732.996 963.602C733.96 963.875 734.819 964.311 735.574 964.91C736.342 965.509 736.993 966.29 737.527 967.254C738.074 968.204 738.491 969.357 738.777 970.711C739.064 972.052 739.207 973.615 739.207 975.398ZM734.5 980.711V974.695C734.5 973.562 734.435 972.566 734.305 971.707C734.174 970.835 733.979 970.099 733.719 969.5C733.471 968.888 733.159 968.393 732.781 968.016C732.404 967.625 731.974 967.345 731.492 967.176C731.01 966.993 730.47 966.902 729.871 966.902C729.142 966.902 728.491 967.046 727.918 967.332C727.345 967.605 726.863 968.048 726.473 968.66C726.082 969.272 725.783 970.079 725.574 971.082C725.379 972.072 725.281 973.276 725.281 974.695V980.711C725.281 981.857 725.346 982.866 725.477 983.738C725.607 984.611 725.802 985.359 726.062 985.984C726.323 986.596 726.635 987.104 727 987.508C727.378 987.898 727.807 988.185 728.289 988.367C728.784 988.549 729.324 988.641 729.91 988.641C730.652 988.641 731.31 988.497 731.883 988.211C732.456 987.924 732.938 987.469 733.328 986.844C733.719 986.206 734.012 985.379 734.207 984.363C734.402 983.348 734.5 982.13 734.5 980.711ZM761.941 975.398V980.047C761.941 982.273 761.72 984.174 761.277 985.75C760.848 987.312 760.223 988.582 759.402 989.559C758.582 990.535 757.599 991.251 756.453 991.707C755.32 992.163 754.051 992.391 752.645 992.391C751.525 992.391 750.483 992.247 749.52 991.961C748.569 991.674 747.71 991.225 746.941 990.613C746.173 990.001 745.516 989.214 744.969 988.25C744.435 987.273 744.018 986.108 743.719 984.754C743.432 983.4 743.289 981.831 743.289 980.047V975.398C743.289 973.159 743.51 971.271 743.953 969.734C744.396 968.185 745.027 966.928 745.848 965.965C746.668 964.988 747.645 964.279 748.777 963.836C749.923 963.393 751.199 963.172 752.605 963.172C753.738 963.172 754.78 963.315 755.73 963.602C756.694 963.875 757.553 964.311 758.309 964.91C759.077 965.509 759.728 966.29 760.262 967.254C760.809 968.204 761.225 969.357 761.512 970.711C761.798 972.052 761.941 973.615 761.941 975.398ZM757.234 980.711V974.695C757.234 973.562 757.169 972.566 757.039 971.707C756.909 970.835 756.714 970.099 756.453 969.5C756.206 968.888 755.893 968.393 755.516 968.016C755.138 967.625 754.708 967.345 754.227 967.176C753.745 966.993 753.204 966.902 752.605 966.902C751.876 966.902 751.225 967.046 750.652 967.332C750.079 967.605 749.598 968.048 749.207 968.66C748.816 969.272 748.517 970.079 748.309 971.082C748.113 972.072 748.016 973.276 748.016 974.695V980.711C748.016 981.857 748.081 982.866 748.211 983.738C748.341 984.611 748.536 985.359 748.797 985.984C749.057 986.596 749.37 987.104 749.734 987.508C750.112 987.898 750.542 988.185 751.023 988.367C751.518 988.549 752.059 988.641 752.645 988.641C753.387 988.641 754.044 988.497 754.617 988.211C755.19 987.924 755.672 987.469 756.062 986.844C756.453 986.206 756.746 985.379 756.941 984.363C757.137 983.348 757.234 982.13 757.234 980.711ZM784.676 975.398V980.047C784.676 982.273 784.454 984.174 784.012 985.75C783.582 987.312 782.957 988.582 782.137 989.559C781.316 990.535 780.333 991.251 779.188 991.707C778.055 992.163 776.785 992.391 775.379 992.391C774.259 992.391 773.217 992.247 772.254 991.961C771.303 991.674 770.444 991.225 769.676 990.613C768.908 990.001 768.25 989.214 767.703 988.25C767.169 987.273 766.753 986.108 766.453 984.754C766.167 983.4 766.023 981.831 766.023 980.047V975.398C766.023 973.159 766.245 971.271 766.688 969.734C767.13 968.185 767.762 966.928 768.582 965.965C769.402 964.988 770.379 964.279 771.512 963.836C772.658 963.393 773.934 963.172 775.34 963.172C776.473 963.172 777.514 963.315 778.465 963.602C779.428 963.875 780.288 964.311 781.043 964.91C781.811 965.509 782.462 966.29 782.996 967.254C783.543 968.204 783.96 969.357 784.246 970.711C784.533 972.052 784.676 973.615 784.676 975.398ZM779.969 980.711V974.695C779.969 973.562 779.904 972.566 779.773 971.707C779.643 970.835 779.448 970.099 779.188 969.5C778.94 968.888 778.628 968.393 778.25 968.016C777.872 967.625 777.443 967.345 776.961 967.176C776.479 966.993 775.939 966.902 775.34 966.902C774.611 966.902 773.96 967.046 773.387 967.332C772.814 967.605 772.332 968.048 771.941 968.66C771.551 969.272 771.251 970.079 771.043 971.082C770.848 972.072 770.75 973.276 770.75 974.695V980.711C770.75 981.857 770.815 982.866 770.945 983.738C771.076 984.611 771.271 985.359 771.531 985.984C771.792 986.596 772.104 987.104 772.469 987.508C772.846 987.898 773.276 988.185 773.758 988.367C774.253 988.549 774.793 988.641 775.379 988.641C776.121 988.641 776.779 988.497 777.352 988.211C777.924 987.924 778.406 987.469 778.797 986.844C779.188 986.206 779.48 985.379 779.676 984.363C779.871 983.348 779.969 982.13 779.969 980.711ZM807.508 976.414V980.652H788.016V976.414H807.508ZM800.047 968.445V989.148H795.496V968.445H800.047ZM594.617 1029.74H599.5C599.344 1031.6 598.823 1033.26 597.938 1034.72C597.052 1036.17 595.809 1037.31 594.207 1038.14C592.605 1038.97 590.659 1039.39 588.367 1039.39C586.609 1039.39 585.027 1039.08 583.621 1038.45C582.215 1037.82 581.01 1036.92 580.008 1035.76C579.005 1034.59 578.237 1033.17 577.703 1031.52C577.182 1029.87 576.922 1028.02 576.922 1025.97V1023.61C576.922 1021.57 577.189 1019.72 577.723 1018.06C578.27 1016.41 579.051 1015 580.066 1013.82C581.082 1012.64 582.299 1011.73 583.719 1011.11C585.151 1010.48 586.759 1010.17 588.543 1010.17C590.809 1010.17 592.723 1010.59 594.285 1011.42C595.848 1012.26 597.059 1013.41 597.918 1014.88C598.79 1016.35 599.324 1018.04 599.52 1019.94H594.637C594.507 1018.71 594.22 1017.67 593.777 1016.79C593.348 1015.92 592.71 1015.26 591.863 1014.8C591.017 1014.33 589.91 1014.1 588.543 1014.1C587.423 1014.1 586.447 1014.31 585.613 1014.72C584.78 1015.14 584.083 1015.75 583.523 1016.56C582.964 1017.37 582.54 1018.36 582.254 1019.55C581.98 1020.72 581.844 1022.06 581.844 1023.57V1025.97C581.844 1027.4 581.967 1028.71 582.215 1029.88C582.475 1031.04 582.866 1032.03 583.387 1032.87C583.921 1033.7 584.598 1034.35 585.418 1034.8C586.238 1035.26 587.221 1035.48 588.367 1035.48C589.76 1035.48 590.887 1035.26 591.746 1034.82C592.618 1034.38 593.276 1033.73 593.719 1032.89C594.174 1032.03 594.474 1030.98 594.617 1029.74ZM608.523 1009V1039H603.797V1009H608.523ZM618.719 1017.87V1039H613.992V1017.87H618.719ZM613.68 1012.32C613.68 1011.6 613.914 1011.01 614.383 1010.54C614.865 1010.06 615.529 1009.82 616.375 1009.82C617.208 1009.82 617.866 1010.06 618.348 1010.54C618.829 1011.01 619.07 1011.6 619.07 1012.32C619.07 1013.02 618.829 1013.61 618.348 1014.08C617.866 1014.55 617.208 1014.78 616.375 1014.78C615.529 1014.78 614.865 1014.55 614.383 1014.08C613.914 1013.61 613.68 1013.02 613.68 1012.32ZM633.191 1039.39C631.629 1039.39 630.216 1039.14 628.953 1038.63C627.703 1038.11 626.635 1037.39 625.75 1036.46C624.878 1035.54 624.207 1034.45 623.738 1033.2C623.27 1031.95 623.035 1030.6 623.035 1029.16V1028.38C623.035 1026.72 623.276 1025.22 623.758 1023.88C624.24 1022.54 624.91 1021.4 625.77 1020.45C626.629 1019.48 627.645 1018.75 628.816 1018.24C629.988 1017.73 631.258 1017.48 632.625 1017.48C634.135 1017.48 635.457 1017.73 636.59 1018.24C637.723 1018.75 638.66 1019.46 639.402 1020.39C640.158 1021.3 640.717 1022.39 641.082 1023.65C641.46 1024.91 641.648 1026.3 641.648 1027.83V1029.84H625.32V1026.46H637V1026.09C636.974 1025.24 636.805 1024.45 636.492 1023.71C636.193 1022.96 635.73 1022.37 635.105 1021.91C634.48 1021.45 633.647 1021.23 632.605 1021.23C631.824 1021.23 631.128 1021.4 630.516 1021.73C629.917 1022.06 629.415 1022.54 629.012 1023.16C628.608 1023.79 628.296 1024.54 628.074 1025.43C627.866 1026.3 627.762 1027.28 627.762 1028.38V1029.16C627.762 1030.08 627.885 1030.94 628.133 1031.73C628.393 1032.52 628.771 1033.2 629.266 1033.79C629.76 1034.37 630.359 1034.83 631.062 1035.17C631.766 1035.5 632.566 1035.66 633.465 1035.66C634.598 1035.66 635.607 1035.43 636.492 1034.98C637.378 1034.52 638.146 1033.88 638.797 1033.04L641.277 1035.45C640.822 1036.11 640.229 1036.75 639.5 1037.36C638.771 1037.96 637.879 1038.45 636.824 1038.82C635.783 1039.2 634.572 1039.39 633.191 1039.39ZM649.988 1022.38V1039H645.281V1017.87H649.715L649.988 1022.38ZM649.148 1027.65L647.625 1027.63C647.638 1026.14 647.846 1024.76 648.25 1023.51C648.667 1022.26 649.24 1021.19 649.969 1020.29C650.711 1019.39 651.596 1018.7 652.625 1018.22C653.654 1017.72 654.799 1017.48 656.062 1017.48C657.078 1017.48 657.996 1017.62 658.816 1017.91C659.65 1018.18 660.359 1018.63 660.945 1019.25C661.544 1019.88 662 1020.69 662.312 1021.7C662.625 1022.68 662.781 1023.9 662.781 1025.35V1039H658.055V1025.33C658.055 1024.31 657.905 1023.51 657.605 1022.93C657.319 1022.33 656.896 1021.9 656.336 1021.66C655.789 1021.4 655.105 1021.27 654.285 1021.27C653.478 1021.27 652.755 1021.43 652.117 1021.77C651.479 1022.11 650.939 1022.57 650.496 1023.16C650.066 1023.75 649.734 1024.42 649.5 1025.19C649.266 1025.96 649.148 1026.78 649.148 1027.65ZM677.273 1017.87V1021.3H665.359V1017.87H677.273ZM668.797 1012.69H673.504V1033.16C673.504 1033.81 673.595 1034.31 673.777 1034.66C673.973 1035 674.24 1035.23 674.578 1035.35C674.917 1035.46 675.314 1035.52 675.77 1035.52C676.095 1035.52 676.408 1035.5 676.707 1035.46C677.007 1035.43 677.247 1035.39 677.43 1035.35L677.449 1038.94C677.059 1039.06 676.603 1039.16 676.082 1039.25C675.574 1039.35 674.988 1039.39 674.324 1039.39C673.243 1039.39 672.286 1039.2 671.453 1038.82C670.62 1038.43 669.969 1037.8 669.5 1036.93C669.031 1036.06 668.797 1034.9 668.797 1033.45V1012.69ZM692.762 1033.28C692.762 1032.81 692.645 1032.39 692.41 1032.01C692.176 1031.62 691.727 1031.27 691.062 1030.95C690.411 1030.64 689.448 1030.35 688.172 1030.09C687.052 1029.85 686.023 1029.55 685.086 1029.21C684.161 1028.86 683.367 1028.44 682.703 1027.95C682.039 1027.45 681.525 1026.86 681.16 1026.19C680.796 1025.51 680.613 1024.73 680.613 1023.84C680.613 1022.98 680.802 1022.17 681.18 1021.4C681.557 1020.63 682.098 1019.96 682.801 1019.37C683.504 1018.79 684.357 1018.32 685.359 1017.98C686.375 1017.65 687.508 1017.48 688.758 1017.48C690.529 1017.48 692.046 1017.78 693.309 1018.38C694.585 1018.96 695.561 1019.76 696.238 1020.78C696.915 1021.78 697.254 1022.91 697.254 1024.18H692.547C692.547 1023.62 692.404 1023.1 692.117 1022.61C691.844 1022.12 691.427 1021.72 690.867 1021.42C690.307 1021.11 689.604 1020.95 688.758 1020.95C687.951 1020.95 687.28 1021.08 686.746 1021.34C686.225 1021.59 685.835 1021.92 685.574 1022.32C685.327 1022.72 685.203 1023.17 685.203 1023.65C685.203 1024 685.268 1024.32 685.398 1024.61C685.542 1024.88 685.776 1025.13 686.102 1025.37C686.427 1025.59 686.87 1025.8 687.43 1025.99C688.003 1026.19 688.719 1026.38 689.578 1026.56C691.193 1026.9 692.579 1027.33 693.738 1027.87C694.91 1028.39 695.809 1029.07 696.434 1029.9C697.059 1030.72 697.371 1031.76 697.371 1033.02C697.371 1033.96 697.169 1034.82 696.766 1035.6C696.375 1036.37 695.802 1037.04 695.047 1037.61C694.292 1038.17 693.387 1038.61 692.332 1038.92C691.29 1039.23 690.118 1039.39 688.816 1039.39C686.902 1039.39 685.281 1039.05 683.953 1038.38C682.625 1037.68 681.616 1036.81 680.926 1035.74C680.249 1034.66 679.91 1033.54 679.91 1032.38H684.461C684.513 1033.25 684.754 1033.95 685.184 1034.47C685.626 1034.98 686.173 1035.35 686.824 1035.58C687.488 1035.8 688.172 1035.91 688.875 1035.91C689.721 1035.91 690.431 1035.8 691.004 1035.58C691.577 1035.35 692.013 1035.04 692.312 1034.64C692.612 1034.24 692.762 1033.79 692.762 1033.28Z" fill="#1C4670"/>
<path d="M320.814 425L333 410H315L320.814 425Z" fill="#001947"/>
<path d="M320.814 1094L333 1079H315L320.814 1094Z" fill="#001947"/>
<path d="M259 229L280 245H264.298L259 229Z" fill="#001947"/>
<path d="M259 898L280 914H264.298L259 898Z" fill="#001947"/>
<path d="M19 273.465L27.1036 296L70 239H44.9372L19 273.465Z" fill="#1C4670"/>
<path d="M19 942.465L27.1036 965L70 908H44.9372L19 942.465Z" fill="#FFA229"/>
<path d="M32 239H8L15.7599 262L32 239Z" fill="#1C4670"/>
<path d="M32 898H8L15.7599 921L32 898Z" fill="#FFA229"/>
<path d="M323.472 363.943L374 322.08L298.643 285.138L307.228 308.44H282.479L258.696 239H82.6425L32 309.639L71.5062 425H322.397L293.369 340.232L315.659 340.193L323.472 363.943Z" fill="#1C4670"/>
<path d="M151.766 361.625C145.958 361.625 141.466 359.997 138.289 356.742C135.138 353.487 133.562 348.799 133.562 342.68V311.664C133.562 305.206 135.06 300.258 138.055 296.82C141.076 293.357 145.646 291.625 151.766 291.625C157.911 291.625 162.482 293.357 165.477 296.82C168.471 300.258 169.969 305.206 169.969 311.664V342.68C169.969 348.799 168.393 353.487 165.242 356.742C162.091 359.997 157.599 361.625 151.766 361.625ZM151.766 348.969C152.833 348.969 153.667 348.487 154.266 347.523C154.865 346.56 155.164 345.479 155.164 344.281V310.336C155.164 308.721 154.982 307.315 154.617 306.117C154.279 304.893 153.328 304.281 151.766 304.281C150.203 304.281 149.24 304.893 148.875 306.117C148.536 307.315 148.367 308.721 148.367 310.336V344.281C148.367 345.479 148.667 346.56 149.266 347.523C149.891 348.487 150.724 348.969 151.766 348.969ZM173.953 361V357.719C173.953 354.307 174.474 351.247 175.516 348.539C176.583 345.805 177.951 343.279 179.617 340.961C181.284 338.617 183.042 336.326 184.891 334.086C186.688 331.898 188.393 329.659 190.008 327.367C191.648 325.049 192.977 322.549 193.992 319.867C195.034 317.159 195.555 314.125 195.555 310.766C195.555 309.151 195.307 307.771 194.812 306.625C194.344 305.453 193.354 304.867 191.844 304.867C189.552 304.867 188.406 306.911 188.406 311V319.398H173.953C173.927 318.799 173.888 318.122 173.836 317.367C173.81 316.612 173.797 315.883 173.797 315.18C173.797 310.232 174.318 306.039 175.359 302.602C176.401 299.138 178.237 296.508 180.867 294.711C183.523 292.888 187.247 291.977 192.039 291.977C197.742 291.977 202.169 293.578 205.32 296.781C208.497 299.984 210.086 304.555 210.086 310.492C210.086 314.529 209.565 318.07 208.523 321.117C207.482 324.138 206.102 326.898 204.383 329.398C202.664 331.872 200.776 334.346 198.719 336.82C197.26 338.565 195.841 340.349 194.461 342.172C193.107 343.995 191.909 345.948 190.867 348.031H209.617V361H173.953Z" fill="white"/>
<path d="M323.472 1032.94L374 991.08L298.643 954.138L307.228 977.44H282.479L258.696 908H82.6425L32 978.639L71.5062 1094H322.397L293.369 1009.23L315.659 1009.19L323.472 1032.94Z" fill="#FFA229"/>
<path d="M151.766 1036.62C145.958 1036.62 141.466 1035 138.289 1031.74C135.138 1028.49 133.562 1023.8 133.562 1017.68V986.664C133.562 980.206 135.06 975.258 138.055 971.82C141.076 968.357 145.646 966.625 151.766 966.625C157.911 966.625 162.482 968.357 165.477 971.82C168.471 975.258 169.969 980.206 169.969 986.664V1017.68C169.969 1023.8 168.393 1028.49 165.242 1031.74C162.091 1035 157.599 1036.62 151.766 1036.62ZM151.766 1023.97C152.833 1023.97 153.667 1023.49 154.266 1022.52C154.865 1021.56 155.164 1020.48 155.164 1019.28V985.336C155.164 983.721 154.982 982.315 154.617 981.117C154.279 979.893 153.328 979.281 151.766 979.281C150.203 979.281 149.24 979.893 148.875 981.117C148.536 982.315 148.367 983.721 148.367 985.336V1019.28C148.367 1020.48 148.667 1021.56 149.266 1022.52C149.891 1023.49 150.724 1023.97 151.766 1023.97ZM191.297 1036.98C186.01 1036.98 181.688 1035.67 178.328 1033.07C174.995 1030.44 173.328 1026.42 173.328 1021V1010.77H187.625V1016.66C187.625 1017.89 187.69 1019.07 187.82 1020.22C187.977 1021.36 188.315 1022.3 188.836 1023.03C189.357 1023.76 190.177 1024.12 191.297 1024.12C192.781 1024.12 193.758 1023.63 194.227 1022.64C194.695 1021.62 194.93 1020.34 194.93 1018.77V1005.26C194.93 1004.14 194.852 1003.03 194.695 1001.94C194.565 1000.84 194.253 999.932 193.758 999.203C193.263 998.474 192.469 998.109 191.375 998.109C188.771 998.109 187.469 999.997 187.469 1003.77H174.852V967.211H207.625V980.102H187.898V989.789C188.576 988.956 189.487 988.227 190.633 987.602C191.805 986.951 193.172 986.625 194.734 986.625C197.859 986.625 200.398 987.224 202.352 988.422C204.331 989.62 205.841 991.286 206.883 993.422C207.951 995.557 208.68 998.031 209.07 1000.84C209.487 1003.66 209.695 1006.68 209.695 1009.91C209.695 1014.05 209.474 1017.78 209.031 1021.12C208.615 1024.42 207.768 1027.26 206.492 1029.63C205.242 1032 203.393 1033.83 200.945 1035.1C198.523 1036.35 195.307 1036.98 191.297 1036.98Z" fill="white"/>
<g filter="url(#filter4_d_84_1126)">
<path d="M991 636H243.871L191 481H938.123L991 636Z" fill="#F7F8F8"/>
</g>
<path d="M464.84 562.742H469.723C469.566 564.604 469.046 566.264 468.16 567.723C467.275 569.168 466.031 570.307 464.43 571.141C462.828 571.974 460.882 572.391 458.59 572.391C456.832 572.391 455.25 572.078 453.844 571.453C452.438 570.815 451.233 569.917 450.23 568.758C449.228 567.586 448.46 566.173 447.926 564.52C447.405 562.866 447.145 561.017 447.145 558.973V556.609C447.145 554.565 447.411 552.716 447.945 551.062C448.492 549.409 449.273 547.996 450.289 546.824C451.305 545.639 452.522 544.734 453.941 544.109C455.374 543.484 456.982 543.172 458.766 543.172C461.031 543.172 462.945 543.589 464.508 544.422C466.07 545.255 467.281 546.408 468.141 547.879C469.013 549.35 469.547 551.036 469.742 552.938H464.859C464.729 551.714 464.443 550.665 464 549.793C463.57 548.921 462.932 548.257 462.086 547.801C461.24 547.332 460.133 547.098 458.766 547.098C457.646 547.098 456.669 547.306 455.836 547.723C455.003 548.139 454.306 548.751 453.746 549.559C453.186 550.366 452.763 551.362 452.477 552.547C452.203 553.719 452.066 555.06 452.066 556.57V558.973C452.066 560.405 452.19 561.707 452.438 562.879C452.698 564.038 453.089 565.034 453.609 565.867C454.143 566.701 454.82 567.345 455.641 567.801C456.461 568.257 457.444 568.484 458.59 568.484C459.983 568.484 461.109 568.263 461.969 567.82C462.841 567.378 463.499 566.733 463.941 565.887C464.397 565.027 464.697 563.979 464.84 562.742ZM478.746 542V572H474.02V542H478.746ZM488.941 550.867V572H484.215V550.867H488.941ZM483.902 545.32C483.902 544.604 484.137 544.012 484.605 543.543C485.087 543.061 485.751 542.82 486.598 542.82C487.431 542.82 488.089 543.061 488.57 543.543C489.052 544.012 489.293 544.604 489.293 545.32C489.293 546.023 489.052 546.609 488.57 547.078C488.089 547.547 487.431 547.781 486.598 547.781C485.751 547.781 485.087 547.547 484.605 547.078C484.137 546.609 483.902 546.023 483.902 545.32ZM503.414 572.391C501.852 572.391 500.439 572.137 499.176 571.629C497.926 571.108 496.858 570.385 495.973 569.461C495.1 568.536 494.43 567.449 493.961 566.199C493.492 564.949 493.258 563.602 493.258 562.156V561.375C493.258 559.721 493.499 558.224 493.98 556.883C494.462 555.542 495.133 554.396 495.992 553.445C496.852 552.482 497.867 551.746 499.039 551.238C500.211 550.73 501.48 550.477 502.848 550.477C504.358 550.477 505.68 550.73 506.812 551.238C507.945 551.746 508.883 552.462 509.625 553.387C510.38 554.298 510.94 555.385 511.305 556.648C511.682 557.911 511.871 559.305 511.871 560.828V562.84H495.543V559.461H507.223V559.09C507.197 558.243 507.027 557.449 506.715 556.707C506.415 555.965 505.953 555.366 505.328 554.91C504.703 554.454 503.87 554.227 502.828 554.227C502.047 554.227 501.35 554.396 500.738 554.734C500.139 555.06 499.638 555.535 499.234 556.16C498.831 556.785 498.518 557.54 498.297 558.426C498.089 559.298 497.984 560.281 497.984 561.375V562.156C497.984 563.081 498.108 563.94 498.355 564.734C498.616 565.516 498.993 566.199 499.488 566.785C499.983 567.371 500.582 567.833 501.285 568.172C501.988 568.497 502.789 568.66 503.688 568.66C504.82 568.66 505.829 568.432 506.715 567.977C507.6 567.521 508.368 566.876 509.02 566.043L511.5 568.445C511.044 569.109 510.452 569.747 509.723 570.359C508.993 570.958 508.102 571.447 507.047 571.824C506.005 572.202 504.794 572.391 503.414 572.391ZM520.211 555.379V572H515.504V550.867H519.938L520.211 555.379ZM519.371 560.652L517.848 560.633C517.861 559.135 518.069 557.762 518.473 556.512C518.889 555.262 519.462 554.188 520.191 553.289C520.934 552.391 521.819 551.701 522.848 551.219C523.876 550.724 525.022 550.477 526.285 550.477C527.301 550.477 528.219 550.62 529.039 550.906C529.872 551.18 530.582 551.629 531.168 552.254C531.767 552.879 532.223 553.693 532.535 554.695C532.848 555.685 533.004 556.902 533.004 558.348V572H528.277V558.328C528.277 557.312 528.128 556.512 527.828 555.926C527.542 555.327 527.118 554.904 526.559 554.656C526.012 554.396 525.328 554.266 524.508 554.266C523.701 554.266 522.978 554.435 522.34 554.773C521.702 555.112 521.161 555.574 520.719 556.16C520.289 556.746 519.957 557.423 519.723 558.191C519.488 558.96 519.371 559.78 519.371 560.652ZM547.496 550.867V554.305H535.582V550.867H547.496ZM539.02 545.691H543.727V566.16C543.727 566.811 543.818 567.312 544 567.664C544.195 568.003 544.462 568.23 544.801 568.348C545.139 568.465 545.536 568.523 545.992 568.523C546.318 568.523 546.63 568.504 546.93 568.465C547.229 568.426 547.47 568.387 547.652 568.348L547.672 571.941C547.281 572.059 546.826 572.163 546.305 572.254C545.797 572.345 545.211 572.391 544.547 572.391C543.466 572.391 542.509 572.202 541.676 571.824C540.842 571.434 540.191 570.802 539.723 569.93C539.254 569.057 539.02 567.898 539.02 566.453V545.691ZM560.602 557.977V561.727H550.27V557.977H560.602ZM581.988 562.742H586.871C586.715 564.604 586.194 566.264 585.309 567.723C584.423 569.168 583.18 570.307 581.578 571.141C579.977 571.974 578.03 572.391 575.738 572.391C573.98 572.391 572.398 572.078 570.992 571.453C569.586 570.815 568.382 569.917 567.379 568.758C566.376 567.586 565.608 566.173 565.074 564.52C564.553 562.866 564.293 561.017 564.293 558.973V556.609C564.293 554.565 564.56 552.716 565.094 551.062C565.641 549.409 566.422 547.996 567.438 546.824C568.453 545.639 569.671 544.734 571.09 544.109C572.522 543.484 574.13 543.172 575.914 543.172C578.18 543.172 580.094 543.589 581.656 544.422C583.219 545.255 584.43 546.408 585.289 547.879C586.161 549.35 586.695 551.036 586.891 552.938H582.008C581.878 551.714 581.591 550.665 581.148 549.793C580.719 548.921 580.081 548.257 579.234 547.801C578.388 547.332 577.281 547.098 575.914 547.098C574.794 547.098 573.818 547.306 572.984 547.723C572.151 548.139 571.454 548.751 570.895 549.559C570.335 550.366 569.911 551.362 569.625 552.547C569.352 553.719 569.215 555.06 569.215 556.57V558.973C569.215 560.405 569.339 561.707 569.586 562.879C569.846 564.038 570.237 565.034 570.758 565.867C571.292 566.701 571.969 567.345 572.789 567.801C573.609 568.257 574.592 568.484 575.738 568.484C577.132 568.484 578.258 568.263 579.117 567.82C579.99 567.378 580.647 566.733 581.09 565.887C581.546 565.027 581.845 563.979 581.988 562.742ZM600.172 572.391C598.609 572.391 597.197 572.137 595.934 571.629C594.684 571.108 593.616 570.385 592.73 569.461C591.858 568.536 591.188 567.449 590.719 566.199C590.25 564.949 590.016 563.602 590.016 562.156V561.375C590.016 559.721 590.257 558.224 590.738 556.883C591.22 555.542 591.891 554.396 592.75 553.445C593.609 552.482 594.625 551.746 595.797 551.238C596.969 550.73 598.238 550.477 599.605 550.477C601.116 550.477 602.438 550.73 603.57 551.238C604.703 551.746 605.641 552.462 606.383 553.387C607.138 554.298 607.698 555.385 608.062 556.648C608.44 557.911 608.629 559.305 608.629 560.828V562.84H592.301V559.461H603.98V559.09C603.954 558.243 603.785 557.449 603.473 556.707C603.173 555.965 602.711 555.366 602.086 554.91C601.461 554.454 600.628 554.227 599.586 554.227C598.805 554.227 598.108 554.396 597.496 554.734C596.897 555.06 596.396 555.535 595.992 556.16C595.589 556.785 595.276 557.54 595.055 558.426C594.846 559.298 594.742 560.281 594.742 561.375V562.156C594.742 563.081 594.866 563.94 595.113 564.734C595.374 565.516 595.751 566.199 596.246 566.785C596.741 567.371 597.34 567.833 598.043 568.172C598.746 568.497 599.547 568.66 600.445 568.66C601.578 568.66 602.587 568.432 603.473 567.977C604.358 567.521 605.126 566.876 605.777 566.043L608.258 568.445C607.802 569.109 607.21 569.747 606.48 570.359C605.751 570.958 604.859 571.447 603.805 571.824C602.763 572.202 601.552 572.391 600.172 572.391ZM616.969 555.379V572H612.262V550.867H616.695L616.969 555.379ZM616.129 560.652L614.605 560.633C614.618 559.135 614.827 557.762 615.23 556.512C615.647 555.262 616.22 554.188 616.949 553.289C617.691 552.391 618.577 551.701 619.605 551.219C620.634 550.724 621.78 550.477 623.043 550.477C624.059 550.477 624.977 550.62 625.797 550.906C626.63 551.18 627.34 551.629 627.926 552.254C628.525 552.879 628.98 553.693 629.293 554.695C629.605 555.685 629.762 556.902 629.762 558.348V572H625.035V558.328C625.035 557.312 624.885 556.512 624.586 555.926C624.299 555.327 623.876 554.904 623.316 554.656C622.77 554.396 622.086 554.266 621.266 554.266C620.458 554.266 619.736 554.435 619.098 554.773C618.46 555.112 617.919 555.574 617.477 556.16C617.047 556.746 616.715 557.423 616.48 558.191C616.246 558.96 616.129 559.78 616.129 560.652ZM644.254 550.867V554.305H632.34V550.867H644.254ZM635.777 545.691H640.484V566.16C640.484 566.811 640.576 567.312 640.758 567.664C640.953 568.003 641.22 568.23 641.559 568.348C641.897 568.465 642.294 568.523 642.75 568.523C643.076 568.523 643.388 568.504 643.688 568.465C643.987 568.426 644.228 568.387 644.41 568.348L644.43 571.941C644.039 572.059 643.583 572.163 643.062 572.254C642.555 572.345 641.969 572.391 641.305 572.391C640.224 572.391 639.267 572.202 638.434 571.824C637.6 571.434 636.949 570.802 636.48 569.93C636.012 569.057 635.777 567.898 635.777 566.453V545.691ZM652.613 554.891V572H647.906V550.867H652.398L652.613 554.891ZM659.078 550.73L659.039 555.105C658.753 555.053 658.44 555.014 658.102 554.988C657.776 554.962 657.451 554.949 657.125 554.949C656.318 554.949 655.608 555.066 654.996 555.301C654.384 555.522 653.87 555.848 653.453 556.277C653.049 556.694 652.737 557.202 652.516 557.801C652.294 558.4 652.164 559.07 652.125 559.812L651.051 559.891C651.051 558.562 651.181 557.332 651.441 556.199C651.702 555.066 652.092 554.07 652.613 553.211C653.147 552.352 653.811 551.681 654.605 551.199C655.413 550.717 656.344 550.477 657.398 550.477C657.685 550.477 657.991 550.503 658.316 550.555C658.655 550.607 658.909 550.665 659.078 550.73ZM667.066 550.867V572H662.34V550.867H667.066ZM662.027 545.32C662.027 544.604 662.262 544.012 662.73 543.543C663.212 543.061 663.876 542.82 664.723 542.82C665.556 542.82 666.214 543.061 666.695 543.543C667.177 544.012 667.418 544.604 667.418 545.32C667.418 546.023 667.177 546.609 666.695 547.078C666.214 547.547 665.556 547.781 664.723 547.781C663.876 547.781 663.212 547.547 662.73 547.078C662.262 546.609 662.027 546.023 662.027 545.32ZM680.855 568.641C681.624 568.641 682.314 568.491 682.926 568.191C683.551 567.879 684.052 567.449 684.43 566.902C684.82 566.355 685.035 565.724 685.074 565.008H689.508C689.482 566.375 689.078 567.618 688.297 568.738C687.516 569.858 686.48 570.75 685.191 571.414C683.902 572.065 682.477 572.391 680.914 572.391C679.299 572.391 677.893 572.117 676.695 571.57C675.497 571.01 674.501 570.242 673.707 569.266C672.913 568.289 672.314 567.163 671.91 565.887C671.52 564.611 671.324 563.243 671.324 561.785V561.102C671.324 559.643 671.52 558.276 671.91 557C672.314 555.711 672.913 554.578 673.707 553.602C674.501 552.625 675.497 551.863 676.695 551.316C677.893 550.757 679.293 550.477 680.895 550.477C682.587 550.477 684.072 550.815 685.348 551.492C686.624 552.156 687.626 553.087 688.355 554.285C689.098 555.47 689.482 556.85 689.508 558.426H685.074C685.035 557.645 684.84 556.941 684.488 556.316C684.15 555.678 683.668 555.171 683.043 554.793C682.431 554.415 681.695 554.227 680.836 554.227C679.885 554.227 679.098 554.422 678.473 554.812C677.848 555.19 677.359 555.711 677.008 556.375C676.656 557.026 676.402 557.762 676.246 558.582C676.103 559.389 676.031 560.229 676.031 561.102V561.785C676.031 562.658 676.103 563.504 676.246 564.324C676.389 565.145 676.637 565.88 676.988 566.531C677.353 567.169 677.848 567.684 678.473 568.074C679.098 568.452 679.892 568.641 680.855 568.641ZM714.625 547.352L706.129 572H700.992L711.695 543.562H714.977L714.625 547.352ZM721.734 572L713.219 547.352L712.848 543.562H716.148L726.891 572H721.734ZM721.324 561.453V565.34H705.855V561.453H721.324ZM733.98 554.93V580.125H729.273V550.867H733.609L733.98 554.93ZM747.75 561.238V561.648C747.75 563.185 747.568 564.611 747.203 565.926C746.852 567.228 746.324 568.367 745.621 569.344C744.931 570.307 744.078 571.056 743.062 571.59C742.047 572.124 740.875 572.391 739.547 572.391C738.232 572.391 737.079 572.15 736.09 571.668C735.113 571.173 734.286 570.477 733.609 569.578C732.932 568.68 732.385 567.625 731.969 566.414C731.565 565.19 731.279 563.849 731.109 562.391V560.809C731.279 559.259 731.565 557.853 731.969 556.59C732.385 555.327 732.932 554.24 733.609 553.328C734.286 552.417 735.113 551.714 736.09 551.219C737.066 550.724 738.206 550.477 739.508 550.477C740.836 550.477 742.014 550.737 743.043 551.258C744.072 551.766 744.938 552.495 745.641 553.445C746.344 554.383 746.871 555.516 747.223 556.844C747.574 558.159 747.75 559.624 747.75 561.238ZM743.043 561.648V561.238C743.043 560.262 742.952 559.357 742.77 558.523C742.587 557.677 742.301 556.935 741.91 556.297C741.52 555.659 741.018 555.164 740.406 554.812C739.807 554.448 739.085 554.266 738.238 554.266C737.405 554.266 736.689 554.409 736.09 554.695C735.491 554.969 734.99 555.353 734.586 555.848C734.182 556.342 733.87 556.922 733.648 557.586C733.427 558.237 733.271 558.947 733.18 559.715V563.504C733.336 564.441 733.603 565.301 733.98 566.082C734.358 566.863 734.892 567.488 735.582 567.957C736.285 568.413 737.184 568.641 738.277 568.641C739.124 568.641 739.846 568.458 740.445 568.094C741.044 567.729 741.533 567.228 741.91 566.59C742.301 565.939 742.587 565.19 742.77 564.344C742.952 563.497 743.043 562.599 743.043 561.648ZM756.48 554.93V580.125H751.773V550.867H756.109L756.48 554.93ZM770.25 561.238V561.648C770.25 563.185 770.068 564.611 769.703 565.926C769.352 567.228 768.824 568.367 768.121 569.344C767.431 570.307 766.578 571.056 765.562 571.59C764.547 572.124 763.375 572.391 762.047 572.391C760.732 572.391 759.579 572.15 758.59 571.668C757.613 571.173 756.786 570.477 756.109 569.578C755.432 568.68 754.885 567.625 754.469 566.414C754.065 565.19 753.779 563.849 753.609 562.391V560.809C753.779 559.259 754.065 557.853 754.469 556.59C754.885 555.327 755.432 554.24 756.109 553.328C756.786 552.417 757.613 551.714 758.59 551.219C759.566 550.724 760.706 550.477 762.008 550.477C763.336 550.477 764.514 550.737 765.543 551.258C766.572 551.766 767.438 552.495 768.141 553.445C768.844 554.383 769.371 555.516 769.723 556.844C770.074 558.159 770.25 559.624 770.25 561.238ZM765.543 561.648V561.238C765.543 560.262 765.452 559.357 765.27 558.523C765.087 557.677 764.801 556.935 764.41 556.297C764.02 555.659 763.518 555.164 762.906 554.812C762.307 554.448 761.585 554.266 760.738 554.266C759.905 554.266 759.189 554.409 758.59 554.695C757.991 554.969 757.49 555.353 757.086 555.848C756.682 556.342 756.37 556.922 756.148 557.586C755.927 558.237 755.771 558.947 755.68 559.715V563.504C755.836 564.441 756.103 565.301 756.48 566.082C756.858 566.863 757.392 567.488 758.082 567.957C758.785 568.413 759.684 568.641 760.777 568.641C761.624 568.641 762.346 568.458 762.945 568.094C763.544 567.729 764.033 567.228 764.41 566.59C764.801 565.939 765.087 565.19 765.27 564.344C765.452 563.497 765.543 562.599 765.543 561.648ZM778.98 554.891V572H774.273V550.867H778.766L778.98 554.891ZM785.445 550.73L785.406 555.105C785.12 555.053 784.807 555.014 784.469 554.988C784.143 554.962 783.818 554.949 783.492 554.949C782.685 554.949 781.975 555.066 781.363 555.301C780.751 555.522 780.237 555.848 779.82 556.277C779.417 556.694 779.104 557.202 778.883 557.801C778.661 558.4 778.531 559.07 778.492 559.812L777.418 559.891C777.418 558.562 777.548 557.332 777.809 556.199C778.069 555.066 778.46 554.07 778.98 553.211C779.514 552.352 780.178 551.681 780.973 551.199C781.78 550.717 782.711 550.477 783.766 550.477C784.052 550.477 784.358 550.503 784.684 550.555C785.022 550.607 785.276 550.665 785.445 550.73ZM786.988 561.668V561.219C786.988 559.695 787.21 558.283 787.652 556.98C788.095 555.665 788.733 554.526 789.566 553.562C790.413 552.586 791.441 551.831 792.652 551.297C793.876 550.75 795.257 550.477 796.793 550.477C798.342 550.477 799.723 550.75 800.934 551.297C802.158 551.831 803.193 552.586 804.039 553.562C804.885 554.526 805.53 555.665 805.973 556.98C806.415 558.283 806.637 559.695 806.637 561.219V561.668C806.637 563.191 806.415 564.604 805.973 565.906C805.53 567.208 804.885 568.348 804.039 569.324C803.193 570.288 802.164 571.043 800.953 571.59C799.742 572.124 798.368 572.391 796.832 572.391C795.283 572.391 793.896 572.124 792.672 571.59C791.461 571.043 790.432 570.288 789.586 569.324C788.74 568.348 788.095 567.208 787.652 565.906C787.21 564.604 786.988 563.191 786.988 561.668ZM791.695 561.219V561.668C791.695 562.618 791.793 563.517 791.988 564.363C792.184 565.21 792.49 565.952 792.906 566.59C793.323 567.228 793.857 567.729 794.508 568.094C795.159 568.458 795.934 568.641 796.832 568.641C797.704 568.641 798.46 568.458 799.098 568.094C799.749 567.729 800.283 567.228 800.699 566.59C801.116 565.952 801.422 565.21 801.617 564.363C801.826 563.517 801.93 562.618 801.93 561.668V561.219C801.93 560.281 801.826 559.396 801.617 558.562C801.422 557.716 801.109 556.967 800.68 556.316C800.263 555.665 799.729 555.158 799.078 554.793C798.44 554.415 797.678 554.227 796.793 554.227C795.908 554.227 795.139 554.415 794.488 554.793C793.85 555.158 793.323 555.665 792.906 556.316C792.49 556.967 792.184 557.716 791.988 558.562C791.793 559.396 791.695 560.281 791.695 561.219ZM822.496 567.762V557.684C822.496 556.928 822.359 556.277 822.086 555.73C821.812 555.184 821.396 554.76 820.836 554.461C820.289 554.161 819.599 554.012 818.766 554.012C817.997 554.012 817.333 554.142 816.773 554.402C816.214 554.663 815.777 555.014 815.465 555.457C815.152 555.9 814.996 556.401 814.996 556.961H810.309C810.309 556.128 810.51 555.32 810.914 554.539C811.318 553.758 811.904 553.061 812.672 552.449C813.44 551.837 814.358 551.355 815.426 551.004C816.493 550.652 817.691 550.477 819.02 550.477C820.608 550.477 822.014 550.743 823.238 551.277C824.475 551.811 825.445 552.618 826.148 553.699C826.865 554.767 827.223 556.108 827.223 557.723V567.117C827.223 568.081 827.288 568.947 827.418 569.715C827.561 570.47 827.763 571.128 828.023 571.688V572H823.199C822.978 571.492 822.802 570.848 822.672 570.066C822.555 569.272 822.496 568.504 822.496 567.762ZM823.18 559.148L823.219 562.059H819.84C818.967 562.059 818.199 562.143 817.535 562.312C816.871 562.469 816.318 562.703 815.875 563.016C815.432 563.328 815.1 563.706 814.879 564.148C814.658 564.591 814.547 565.092 814.547 565.652C814.547 566.212 814.677 566.727 814.938 567.195C815.198 567.651 815.576 568.009 816.07 568.27C816.578 568.53 817.19 568.66 817.906 568.66C818.87 568.66 819.71 568.465 820.426 568.074C821.155 567.671 821.728 567.182 822.145 566.609C822.561 566.023 822.783 565.47 822.809 564.949L824.332 567.039C824.176 567.573 823.909 568.146 823.531 568.758C823.154 569.37 822.659 569.956 822.047 570.516C821.448 571.062 820.725 571.512 819.879 571.863C819.046 572.215 818.082 572.391 816.988 572.391C815.608 572.391 814.378 572.117 813.297 571.57C812.216 571.01 811.37 570.262 810.758 569.324C810.146 568.374 809.84 567.299 809.84 566.102C809.84 564.982 810.048 563.992 810.465 563.133C810.895 562.26 811.52 561.531 812.34 560.945C813.173 560.359 814.189 559.917 815.387 559.617C816.585 559.305 817.952 559.148 819.488 559.148H823.18ZM840.777 568.641C841.546 568.641 842.236 568.491 842.848 568.191C843.473 567.879 843.974 567.449 844.352 566.902C844.742 566.355 844.957 565.724 844.996 565.008H849.43C849.404 566.375 849 567.618 848.219 568.738C847.438 569.858 846.402 570.75 845.113 571.414C843.824 572.065 842.398 572.391 840.836 572.391C839.221 572.391 837.815 572.117 836.617 571.57C835.419 571.01 834.423 570.242 833.629 569.266C832.835 568.289 832.236 567.163 831.832 565.887C831.441 564.611 831.246 563.243 831.246 561.785V561.102C831.246 559.643 831.441 558.276 831.832 557C832.236 555.711 832.835 554.578 833.629 553.602C834.423 552.625 835.419 551.863 836.617 551.316C837.815 550.757 839.215 550.477 840.816 550.477C842.509 550.477 843.993 550.815 845.27 551.492C846.546 552.156 847.548 553.087 848.277 554.285C849.02 555.47 849.404 556.85 849.43 558.426H844.996C844.957 557.645 844.762 556.941 844.41 556.316C844.072 555.678 843.59 555.171 842.965 554.793C842.353 554.415 841.617 554.227 840.758 554.227C839.807 554.227 839.02 554.422 838.395 554.812C837.77 555.19 837.281 555.711 836.93 556.375C836.578 557.026 836.324 557.762 836.168 558.582C836.025 559.389 835.953 560.229 835.953 561.102V561.785C835.953 562.658 836.025 563.504 836.168 564.324C836.311 565.145 836.559 565.88 836.91 566.531C837.275 567.169 837.77 567.684 838.395 568.074C839.02 568.452 839.814 568.641 840.777 568.641ZM857.691 542V572H853.004V542H857.691ZM856.871 560.652L855.348 560.633C855.361 559.174 855.562 557.827 855.953 556.59C856.357 555.353 856.917 554.279 857.633 553.367C858.362 552.443 859.234 551.733 860.25 551.238C861.266 550.73 862.392 550.477 863.629 550.477C864.671 550.477 865.608 550.62 866.441 550.906C867.288 551.193 868.017 551.655 868.629 552.293C869.241 552.918 869.703 553.738 870.016 554.754C870.341 555.757 870.504 556.98 870.504 558.426V572H865.777V558.387C865.777 557.371 865.628 556.564 865.328 555.965C865.042 555.366 864.618 554.936 864.059 554.676C863.499 554.402 862.815 554.266 862.008 554.266C861.161 554.266 860.413 554.435 859.762 554.773C859.124 555.112 858.59 555.574 858.16 556.16C857.73 556.746 857.405 557.423 857.184 558.191C856.975 558.96 856.871 559.78 856.871 560.652Z" fill="#1C4670"/>
<path d="M19 500.034L27.1147 523L70 465H44.9028L19 500.034Z" fill="#FFA229"/>
<path d="M103 465H82.4324L32 535.528L38.6505 555L103 465Z" fill="#FFA229"/>
<path d="M32 465H8L15.7571 489L32 465Z" fill="#FFA229"/>
<path d="M323.361 590.615L374 548.526L298.478 511.386L307.082 534.813H282.278L258.444 465H115.252L42 567.508L70.8446 652H322.284L293.193 566.777L315.531 566.737L323.361 590.615Z" fill="#FFA229"/>
<path d="M151.766 592.625C145.958 592.625 141.466 590.997 138.289 587.742C135.138 584.487 133.562 579.799 133.562 573.68V542.664C133.562 536.206 135.06 531.258 138.055 527.82C141.076 524.357 145.646 522.625 151.766 522.625C157.911 522.625 162.482 524.357 165.477 527.82C168.471 531.258 169.969 536.206 169.969 542.664V573.68C169.969 579.799 168.393 584.487 165.242 587.742C162.091 590.997 157.599 592.625 151.766 592.625ZM151.766 579.969C152.833 579.969 153.667 579.487 154.266 578.523C154.865 577.56 155.164 576.479 155.164 575.281V541.336C155.164 539.721 154.982 538.315 154.617 537.117C154.279 535.893 153.328 535.281 151.766 535.281C150.203 535.281 149.24 535.893 148.875 537.117C148.536 538.315 148.367 539.721 148.367 541.336V575.281C148.367 576.479 148.667 577.56 149.266 578.523C149.891 579.487 150.724 579.969 151.766 579.969ZM190.438 592.781C184.37 592.781 179.956 591.18 177.195 587.977C174.435 584.773 173.055 579.943 173.055 573.484V566.297H187.156V573.523C187.156 575.346 187.378 576.896 187.82 578.172C188.289 579.422 189.318 580.047 190.906 580.047C192.521 580.047 193.549 579.37 193.992 578.016C194.435 576.635 194.656 574.396 194.656 571.297V569.578C194.656 567.208 194.253 565.138 193.445 563.367C192.664 561.596 191.115 560.711 188.797 560.711C188.51 560.711 188.25 560.724 188.016 560.75C187.807 560.75 187.625 560.763 187.469 560.789V548.445C189.839 548.445 191.648 547.924 192.898 546.883C194.148 545.815 194.773 544.044 194.773 541.57C194.773 537.69 193.654 535.75 191.414 535.75C189.956 535.75 188.966 536.323 188.445 537.469C187.951 538.589 187.703 540.021 187.703 541.766V543.836H173.484C173.458 543.523 173.432 543.146 173.406 542.703C173.406 542.26 173.406 541.831 173.406 541.414C173.406 535.112 174.878 530.49 177.82 527.547C180.763 524.604 185.268 523.133 191.336 523.133C203.055 523.133 208.914 529.227 208.914 541.414C208.914 544.799 208.458 547.599 207.547 549.812C206.635 552 204.943 553.536 202.469 554.422C204.422 555.359 205.867 556.557 206.805 558.016C207.742 559.474 208.354 561.284 208.641 563.445C208.927 565.607 209.07 568.224 209.07 571.297C209.07 578.172 207.625 583.471 204.734 587.195C201.87 590.919 197.104 592.781 190.438 592.781Z" fill="white"/>
<path d="M320.814 652L333 636H315L320.814 652Z" fill="#470107"/>
<path d="M259 465L280 481H264.298L259 465Z" fill="#470107"/>
<defs>
<filter id="filter0_d_84_1126" x="187" y="30" width="808" height="163" filterUnits="userSpaceOnUse" color-interpolation-filters="sRGB">
<feFlood flood-opacity="0" result="BackgroundImageFix"/>
<feColorMatrix in="SourceAlpha" type="matrix" values="0 0 0 0 0 0 0 0 0 0 0 0 0 0 0 0 0 0 127 0" result="hardAlpha"/>
<feOffset dy="4"/>
<feGaussianBlur stdDeviation="2"/>
<feComposite in2="hardAlpha" operator="out"/>
<feColorMatrix type="matrix" values="0 0 0 0 0 0 0 0 0 0 0 0 0 0 0 0 0 0 0.25 0"/>
<feBlend mode="normal" in2="BackgroundImageFix" result="effect1_dropShadow_84_1126"/>
<feBlend mode="normal" in="SourceGraphic" in2="effect1_dropShadow_84_1126" result="shape"/>
</filter>
<filter id="filter1_d_84_1126" x="187" y="699" width="808" height="163" filterUnits="userSpaceOnUse" color-interpolation-filters="sRGB">
<feFlood flood-opacity="0" result="BackgroundImageFix"/>
<feColorMatrix in="SourceAlpha" type="matrix" values="0 0 0 0 0 0 0 0 0 0 0 0 0 0 0 0 0 0 127 0" result="hardAlpha"/>
<feOffset dy="4"/>
<feGaussianBlur stdDeviation="2"/>
<feComposite in2="hardAlpha" operator="out"/>
<feColorMatrix type="matrix" values="0 0 0 0 0 0 0 0 0 0 0 0 0 0 0 0 0 0 0.25 0"/>
<feBlend mode="normal" in2="BackgroundImageFix" result="effect1_dropShadow_84_1126"/>
<feBlend mode="normal" in="SourceGraphic" in2="effect1_dropShadow_84_1126" result="shape"/>
</filter>
<filter id="filter2_d_84_1126" x="187" y="255" width="808" height="163" filterUnits="userSpaceOnUse" color-interpolation-filters="sRGB">
<feFlood flood-opacity="0" result="BackgroundImageFix"/>
<feColorMatrix in="SourceAlpha" type="matrix" values="0 0 0 0 0 0 0 0 0 0 0 0 0 0 0 0 0 0 127 0" result="hardAlpha"/>
<feOffset dy="4"/>
<feGaussianBlur stdDeviation="2"/>
<feComposite in2="hardAlpha" operator="out"/>
<feColorMatrix type="matrix" values="0 0 0 0 0 0 0 0 0 0 0 0 0 0 0 0 0 0 0.25 0"/>
<feBlend mode="normal" in2="BackgroundImageFix" result="effect1_dropShadow_84_1126"/>
<feBlend mode="normal" in="SourceGraphic" in2="effect1_dropShadow_84_1126" result="shape"/>
</filter>
<filter id="filter3_d_84_1126" x="187" y="924" width="808" height="163" filterUnits="userSpaceOnUse" color-interpolation-filters="sRGB">
<feFlood flood-opacity="0" result="BackgroundImageFix"/>
<feColorMatrix in="SourceAlpha" type="matrix" values="0 0 0 0 0 0 0 0 0 0 0 0 0 0 0 0 0 0 127 0" result="hardAlpha"/>
<feOffset dy="4"/>
<feGaussianBlur stdDeviation="2"/>
<feComposite in2="hardAlpha" operator="out"/>
<feColorMatrix type="matrix" values="0 0 0 0 0 0 0 0 0 0 0 0 0 0 0 0 0 0 0.25 0"/>
<feBlend mode="normal" in2="BackgroundImageFix" result="effect1_dropShadow_84_1126"/>
<feBlend mode="normal" in="SourceGraphic" in2="effect1_dropShadow_84_1126" result="shape"/>
</filter>
<filter id="filter4_d_84_1126" x="187" y="481" width="808" height="163" filterUnits="userSpaceOnUse" color-interpolation-filters="sRGB">
<feFlood flood-opacity="0" result="BackgroundImageFix"/>
<feColorMatrix in="SourceAlpha" type="matrix" values="0 0 0 0 0 0 0 0 0 0 0 0 0 0 0 0 0 0 127 0" result="hardAlpha"/>
<feOffset dy="4"/>
<feGaussianBlur stdDeviation="2"/>
<feComposite in2="hardAlpha" operator="out"/>
<feColorMatrix type="matrix" values="0 0 0 0 0 0 0 0 0 0 0 0 0 0 0 0 0 0 0.25 0"/>
<feBlend mode="normal" in2="BackgroundImageFix" result="effect1_dropShadow_84_1126"/>
<feBlend mode="normal" in="SourceGraphic" in2="effect1_dropShadow_84_1126" result="shape"/>
</filter>
</defs>
</svg>
