<svg width="1146" height="1221" viewBox="0 0 1146 1221" fill="none" xmlns="http://www.w3.org/2000/svg">
<rect width="1146" height="1221" fill="white"/>
<g filter="url(#filter0_d_84_982)">
<path d="M989.963 891C1006.55 891 1019.98 904.454 1019.96 921.036L1019.72 1125.04C1019.7 1141.59 1006.27 1155 989.716 1155H905.619H54C37.4315 1155 24 1141.57 24 1125V921C24 904.431 37.4315 891 54 891H989.963Z" fill="white"/>
</g>
<path d="M194.603 997.234V1047H186.023V997.234H194.603ZM225.193 1036.99C225.193 1036.17 224.988 1035.42 224.578 1034.76C224.168 1034.08 223.382 1033.46 222.22 1032.92C221.08 1032.37 219.394 1031.87 217.161 1031.41C215.201 1030.98 213.401 1030.47 211.761 1029.88C210.143 1029.26 208.753 1028.52 207.591 1027.65C206.429 1026.79 205.529 1025.76 204.891 1024.58C204.253 1023.39 203.934 1022.03 203.934 1020.48C203.934 1018.97 204.264 1017.55 204.925 1016.2C205.586 1014.86 206.531 1013.67 207.762 1012.65C208.992 1011.62 210.485 1010.82 212.239 1010.22C214.017 1009.63 215.999 1009.33 218.187 1009.33C221.285 1009.33 223.94 1009.86 226.15 1010.91C228.383 1011.93 230.092 1013.33 231.277 1015.11C232.462 1016.86 233.055 1018.85 233.055 1021.06H224.817C224.817 1020.08 224.567 1019.17 224.065 1018.32C223.587 1017.46 222.858 1016.76 221.878 1016.24C220.898 1015.69 219.668 1015.42 218.187 1015.42C216.774 1015.42 215.6 1015.65 214.666 1016.1C213.755 1016.53 213.071 1017.1 212.615 1017.81C212.182 1018.52 211.966 1019.29 211.966 1020.13C211.966 1020.75 212.08 1021.31 212.308 1021.81C212.558 1022.29 212.968 1022.73 213.538 1023.14C214.108 1023.53 214.882 1023.89 215.862 1024.24C216.865 1024.58 218.118 1024.91 219.622 1025.23C222.448 1025.82 224.874 1026.58 226.902 1027.52C228.953 1028.43 230.525 1029.61 231.619 1031.07C232.713 1032.51 233.26 1034.33 233.26 1036.54C233.26 1038.18 232.907 1039.69 232.2 1041.05C231.517 1042.4 230.514 1043.57 229.192 1044.57C227.871 1045.55 226.287 1046.32 224.441 1046.86C222.618 1047.41 220.568 1047.68 218.289 1047.68C214.939 1047.68 212.103 1047.09 209.778 1045.91C207.454 1044.7 205.688 1043.16 204.48 1041.29C203.296 1039.4 202.703 1037.44 202.703 1035.41H210.667C210.758 1036.94 211.18 1038.16 211.932 1039.07C212.706 1039.96 213.663 1040.61 214.803 1041.02C215.965 1041.41 217.161 1041.6 218.392 1041.6C219.873 1041.6 221.115 1041.41 222.117 1041.02C223.12 1040.61 223.883 1040.06 224.407 1039.38C224.931 1038.67 225.193 1037.87 225.193 1036.99ZM261.219 1036.99C261.219 1036.17 261.014 1035.42 260.604 1034.76C260.193 1034.08 259.407 1033.46 258.245 1032.92C257.106 1032.37 255.42 1031.87 253.187 1031.41C251.227 1030.98 249.427 1030.47 247.786 1029.88C246.168 1029.26 244.778 1028.52 243.616 1027.65C242.454 1026.79 241.554 1025.76 240.916 1024.58C240.278 1023.39 239.959 1022.03 239.959 1020.48C239.959 1018.97 240.289 1017.55 240.95 1016.2C241.611 1014.86 242.557 1013.67 243.787 1012.65C245.018 1011.62 246.51 1010.82 248.265 1010.22C250.042 1009.63 252.024 1009.33 254.212 1009.33C257.311 1009.33 259.965 1009.86 262.176 1010.91C264.409 1011.93 266.118 1013.33 267.303 1015.11C268.488 1016.86 269.08 1018.85 269.08 1021.06H260.843C260.843 1020.08 260.592 1019.17 260.091 1018.32C259.612 1017.46 258.883 1016.76 257.903 1016.24C256.924 1015.69 255.693 1015.42 254.212 1015.42C252.799 1015.42 251.626 1015.65 250.691 1016.1C249.78 1016.53 249.096 1017.1 248.641 1017.81C248.208 1018.52 247.991 1019.29 247.991 1020.13C247.991 1020.75 248.105 1021.31 248.333 1021.81C248.584 1022.29 248.994 1022.73 249.563 1023.14C250.133 1023.53 250.908 1023.89 251.888 1024.24C252.89 1024.58 254.144 1024.91 255.647 1025.23C258.473 1025.82 260.9 1026.58 262.928 1027.52C264.979 1028.43 266.551 1029.61 267.645 1031.07C268.738 1032.51 269.285 1034.33 269.285 1036.54C269.285 1038.18 268.932 1039.69 268.226 1041.05C267.542 1042.4 266.539 1043.57 265.218 1044.57C263.896 1045.55 262.312 1046.32 260.467 1046.86C258.644 1047.41 256.593 1047.68 254.314 1047.68C250.965 1047.68 248.128 1047.09 245.804 1045.91C243.479 1044.7 241.714 1043.16 240.506 1041.29C239.321 1039.4 238.729 1037.44 238.729 1035.41H246.692C246.784 1036.94 247.205 1038.16 247.957 1039.07C248.732 1039.96 249.689 1040.61 250.828 1041.02C251.99 1041.41 253.187 1041.6 254.417 1041.6C255.898 1041.6 257.14 1041.41 258.143 1041.02C259.145 1040.61 259.909 1040.06 260.433 1039.38C260.957 1038.67 261.219 1037.87 261.219 1036.99ZM298.748 1038.28V1010.02H307.02V1047H299.227L298.748 1038.28ZM299.91 1030.59L302.679 1030.53C302.679 1033.01 302.405 1035.3 301.858 1037.4C301.312 1039.47 300.468 1041.28 299.329 1042.83C298.19 1044.36 296.731 1045.55 294.954 1046.42C293.177 1047.26 291.046 1047.68 288.562 1047.68C286.762 1047.68 285.11 1047.42 283.606 1046.9C282.103 1046.37 280.804 1045.56 279.71 1044.47C278.639 1043.38 277.807 1041.95 277.215 1040.2C276.622 1038.44 276.326 1036.35 276.326 1033.91V1010.02H284.563V1033.98C284.563 1035.32 284.723 1036.45 285.042 1037.36C285.361 1038.25 285.794 1038.97 286.341 1039.51C286.888 1040.06 287.526 1040.45 288.255 1040.68C288.984 1040.9 289.759 1041.02 290.579 1041.02C292.926 1041.02 294.772 1040.56 296.116 1039.65C297.483 1038.72 298.452 1037.46 299.021 1035.89C299.614 1034.32 299.91 1032.55 299.91 1030.59ZM336.312 1039.58V1021.95C336.312 1020.62 336.072 1019.49 335.594 1018.53C335.115 1017.57 334.386 1016.83 333.406 1016.31C332.449 1015.78 331.242 1015.52 329.783 1015.52C328.439 1015.52 327.277 1015.75 326.297 1016.2C325.317 1016.66 324.554 1017.28 324.007 1018.05C323.46 1018.82 323.187 1019.7 323.187 1020.68H314.983C314.983 1019.22 315.337 1017.81 316.043 1016.44C316.749 1015.08 317.775 1013.86 319.119 1012.79C320.464 1011.72 322.07 1010.87 323.938 1010.26C325.807 1009.64 327.903 1009.33 330.228 1009.33C333.007 1009.33 335.468 1009.8 337.61 1010.74C339.775 1011.67 341.473 1013.08 342.703 1014.97C343.956 1016.84 344.583 1019.19 344.583 1022.01V1038.46C344.583 1040.14 344.697 1041.66 344.925 1043C345.175 1044.32 345.529 1045.47 345.984 1046.45V1047H337.542C337.155 1046.11 336.847 1044.98 336.619 1043.62C336.414 1042.23 336.312 1040.88 336.312 1039.58ZM337.508 1024.51L337.576 1029.6H331.663C330.136 1029.6 328.792 1029.75 327.63 1030.05C326.468 1030.32 325.499 1030.73 324.725 1031.28C323.95 1031.82 323.369 1032.49 322.981 1033.26C322.594 1034.03 322.4 1034.91 322.4 1035.89C322.4 1036.87 322.628 1037.77 323.084 1038.59C323.54 1039.39 324.201 1040.02 325.066 1040.47C325.955 1040.93 327.026 1041.16 328.279 1041.16C329.965 1041.16 331.435 1040.81 332.688 1040.13C333.965 1039.42 334.967 1038.57 335.696 1037.57C336.425 1036.54 336.813 1035.57 336.858 1034.66L339.524 1038.32C339.251 1039.25 338.784 1040.26 338.123 1041.33C337.462 1042.4 336.596 1043.42 335.525 1044.4C334.477 1045.36 333.213 1046.15 331.731 1046.76C330.273 1047.38 328.587 1047.68 326.673 1047.68C324.257 1047.68 322.104 1047.21 320.213 1046.25C318.322 1045.27 316.84 1043.96 315.77 1042.32C314.699 1040.65 314.163 1038.77 314.163 1036.68C314.163 1034.72 314.528 1032.99 315.257 1031.48C316.009 1029.96 317.103 1028.68 318.538 1027.65C319.996 1026.63 321.774 1025.85 323.87 1025.33C325.966 1024.78 328.359 1024.51 331.048 1024.51H337.508ZM361.365 1017.91V1047H353.128V1010.02H360.887L361.365 1017.91ZM359.896 1027.14L357.229 1027.11C357.252 1024.49 357.617 1022.08 358.323 1019.9C359.052 1017.71 360.055 1015.83 361.331 1014.26C362.63 1012.68 364.179 1011.48 365.979 1010.63C367.78 1009.77 369.785 1009.33 371.995 1009.33C373.772 1009.33 375.379 1009.58 376.814 1010.09C378.273 1010.56 379.515 1011.35 380.54 1012.44C381.588 1013.54 382.386 1014.96 382.933 1016.72C383.479 1018.45 383.753 1020.58 383.753 1023.11V1047H375.481V1023.07C375.481 1021.3 375.219 1019.9 374.695 1018.87C374.194 1017.82 373.453 1017.08 372.474 1016.65C371.517 1016.19 370.32 1015.96 368.885 1015.96C367.472 1015.96 366.207 1016.26 365.091 1016.85C363.974 1017.45 363.029 1018.25 362.254 1019.28C361.502 1020.31 360.921 1021.49 360.511 1022.83C360.101 1024.18 359.896 1025.61 359.896 1027.14ZM407.269 1041.12C408.613 1041.12 409.821 1040.86 410.892 1040.33C411.985 1039.79 412.863 1039.04 413.523 1038.08C414.207 1037.12 414.583 1036.02 414.651 1034.76H422.41C422.365 1037.16 421.658 1039.33 420.291 1041.29C418.924 1043.25 417.112 1044.81 414.856 1045.97C412.601 1047.11 410.105 1047.68 407.371 1047.68C404.546 1047.68 402.085 1047.21 399.988 1046.25C397.892 1045.27 396.149 1043.92 394.759 1042.21C393.369 1040.51 392.321 1038.53 391.614 1036.3C390.931 1034.07 390.589 1031.68 390.589 1029.12V1027.93C390.589 1025.38 390.931 1022.98 391.614 1020.75C392.321 1018.49 393.369 1016.51 394.759 1014.8C396.149 1013.09 397.892 1011.76 399.988 1010.8C402.085 1009.82 404.534 1009.33 407.337 1009.33C410.299 1009.33 412.897 1009.93 415.13 1011.11C417.363 1012.27 419.118 1013.9 420.394 1016C421.692 1018.07 422.365 1020.49 422.41 1023.25H414.651C414.583 1021.88 414.241 1020.65 413.626 1019.55C413.034 1018.44 412.19 1017.55 411.097 1016.89C410.026 1016.23 408.738 1015.9 407.234 1015.9C405.571 1015.9 404.192 1016.24 403.099 1016.92C402.005 1017.58 401.15 1018.49 400.535 1019.66C399.92 1020.8 399.476 1022.08 399.202 1023.52C398.951 1024.93 398.826 1026.4 398.826 1027.93V1029.12C398.826 1030.65 398.951 1032.13 399.202 1033.57C399.453 1035 399.886 1036.29 400.501 1037.43C401.139 1038.55 402.005 1039.45 403.099 1040.13C404.192 1040.79 405.582 1041.12 407.269 1041.12ZM445.037 1047.68C442.303 1047.68 439.83 1047.24 437.62 1046.35C435.433 1045.44 433.564 1044.17 432.015 1042.56C430.488 1040.94 429.314 1039.04 428.494 1036.85C427.674 1034.66 427.264 1032.3 427.264 1029.77V1028.41C427.264 1025.51 427.685 1022.89 428.528 1020.54C429.371 1018.2 430.545 1016.19 432.049 1014.53C433.553 1012.84 435.33 1011.56 437.381 1010.67C439.432 1009.78 441.653 1009.33 444.046 1009.33C446.689 1009.33 449.002 1009.78 450.984 1010.67C452.967 1011.56 454.607 1012.81 455.906 1014.43C457.228 1016.02 458.208 1017.92 458.846 1020.13C459.507 1022.35 459.837 1024.78 459.837 1027.45V1030.97H431.263V1025.06H451.702V1024.41C451.657 1022.93 451.36 1021.54 450.813 1020.24C450.289 1018.94 449.48 1017.89 448.387 1017.09C447.293 1016.3 445.835 1015.9 444.012 1015.9C442.645 1015.9 441.425 1016.19 440.354 1016.79C439.306 1017.35 438.429 1018.19 437.723 1019.28C437.016 1020.37 436.469 1021.7 436.082 1023.25C435.717 1024.77 435.535 1026.49 435.535 1028.41V1029.77C435.535 1031.39 435.752 1032.9 436.185 1034.29C436.64 1035.65 437.301 1036.85 438.167 1037.87C439.033 1038.9 440.081 1039.71 441.312 1040.3C442.542 1040.87 443.943 1041.16 445.516 1041.16C447.498 1041.16 449.264 1040.76 450.813 1039.96C452.363 1039.16 453.707 1038.03 454.847 1036.58L459.188 1040.78C458.39 1041.94 457.353 1043.06 456.077 1044.13C454.801 1045.18 453.24 1046.03 451.395 1046.69C449.572 1047.35 447.452 1047.68 445.037 1047.68ZM482.122 1028.92V1028.13C482.122 1025.47 482.509 1022.99 483.284 1020.72C484.059 1018.41 485.175 1016.42 486.634 1014.73C488.115 1013.03 489.915 1011.7 492.034 1010.77C494.176 1009.81 496.591 1009.33 499.28 1009.33C501.992 1009.33 504.407 1009.81 506.526 1010.77C508.668 1011.7 510.48 1013.03 511.961 1014.73C513.442 1016.42 514.57 1018.41 515.345 1020.72C516.119 1022.99 516.507 1025.47 516.507 1028.13V1028.92C516.507 1031.58 516.119 1034.06 515.345 1036.34C514.57 1038.61 513.442 1040.61 511.961 1042.32C510.48 1044 508.68 1045.33 506.561 1046.28C504.441 1047.22 502.037 1047.68 499.349 1047.68C496.637 1047.68 494.21 1047.22 492.068 1046.28C489.949 1045.33 488.149 1044 486.668 1042.32C485.187 1040.61 484.059 1038.61 483.284 1036.34C482.509 1034.06 482.122 1031.58 482.122 1028.92ZM490.359 1028.13V1028.92C490.359 1030.58 490.53 1032.15 490.872 1033.64C491.214 1035.12 491.749 1036.42 492.479 1037.53C493.208 1038.65 494.142 1039.53 495.281 1040.16C496.421 1040.8 497.776 1041.12 499.349 1041.12C500.875 1041.12 502.197 1040.8 503.313 1040.16C504.453 1039.53 505.387 1038.65 506.116 1037.53C506.845 1036.42 507.381 1035.12 507.723 1033.64C508.087 1032.15 508.27 1030.58 508.27 1028.92V1028.13C508.27 1026.49 508.087 1024.94 507.723 1023.48C507.381 1022 506.834 1020.69 506.082 1019.55C505.353 1018.41 504.419 1017.53 503.279 1016.89C502.163 1016.23 500.83 1015.9 499.28 1015.9C497.731 1015.9 496.386 1016.23 495.247 1016.89C494.131 1017.53 493.208 1018.41 492.479 1019.55C491.749 1020.69 491.214 1022 490.872 1023.48C490.53 1024.94 490.359 1026.49 490.359 1028.13ZM534.554 1047H526.316V1006.46C526.316 1003.71 526.829 1001.39 527.854 999.524C528.903 997.633 530.395 996.209 532.332 995.252C534.269 994.272 536.559 993.782 539.202 993.782C540.022 993.782 540.831 993.839 541.629 993.953C542.426 994.044 543.201 994.192 543.953 994.397L543.748 1000.75C543.292 1000.64 542.791 1000.56 542.244 1000.52C541.72 1000.47 541.15 1000.45 540.535 1000.45C539.282 1000.45 538.2 1000.69 537.288 1001.17C536.399 1001.62 535.716 1002.29 535.237 1003.18C534.782 1004.07 534.554 1005.16 534.554 1006.46V1047ZM542.176 1010.02V1016.03H520.643V1010.02H542.176ZM597.581 1040.2V1047H572.596V1040.2H597.581ZM574.988 997.234V1047H566.409V997.234H574.988ZM612.21 1010.02V1047H603.938V1010.02H612.21ZM603.392 1000.31C603.392 999.057 603.802 998.021 604.622 997.2C605.465 996.357 606.627 995.936 608.108 995.936C609.567 995.936 610.717 996.357 611.561 997.2C612.404 998.021 612.825 999.057 612.825 1000.31C612.825 1001.54 612.404 1002.57 611.561 1003.39C610.717 1004.21 609.567 1004.62 608.108 1004.62C606.627 1004.62 605.465 1004.21 604.622 1003.39C603.802 1002.57 603.392 1001.54 603.392 1000.31ZM636.341 1041.12C637.685 1041.12 638.893 1040.86 639.964 1040.33C641.058 1039.79 641.935 1039.04 642.596 1038.08C643.279 1037.12 643.655 1036.02 643.724 1034.76H651.482C651.437 1037.16 650.73 1039.33 649.363 1041.29C647.996 1043.25 646.185 1044.81 643.929 1045.97C641.673 1047.11 639.178 1047.68 636.443 1047.68C633.618 1047.68 631.157 1047.21 629.061 1046.25C626.964 1045.27 625.221 1043.92 623.831 1042.21C622.441 1040.51 621.393 1038.53 620.687 1036.3C620.003 1034.07 619.661 1031.68 619.661 1029.12V1027.93C619.661 1025.38 620.003 1022.98 620.687 1020.75C621.393 1018.49 622.441 1016.51 623.831 1014.8C625.221 1013.09 626.964 1011.76 629.061 1010.8C631.157 1009.82 633.606 1009.33 636.409 1009.33C639.371 1009.33 641.969 1009.93 644.202 1011.11C646.435 1012.27 648.19 1013.9 649.466 1016C650.765 1018.07 651.437 1020.49 651.482 1023.25H643.724C643.655 1021.88 643.313 1020.65 642.698 1019.55C642.106 1018.44 641.263 1017.55 640.169 1016.89C639.098 1016.23 637.811 1015.9 636.307 1015.9C634.643 1015.9 633.265 1016.24 632.171 1016.92C631.077 1017.58 630.223 1018.49 629.607 1019.66C628.992 1020.8 628.548 1022.08 628.274 1023.52C628.024 1024.93 627.898 1026.4 627.898 1027.93V1029.12C627.898 1030.65 628.024 1032.13 628.274 1033.57C628.525 1035 628.958 1036.29 629.573 1037.43C630.211 1038.55 631.077 1039.45 632.171 1040.13C633.265 1040.79 634.655 1041.12 636.341 1041.12ZM674.109 1047.68C671.375 1047.68 668.903 1047.24 666.692 1046.35C664.505 1045.44 662.636 1044.17 661.087 1042.56C659.56 1040.94 658.387 1039.04 657.566 1036.85C656.746 1034.66 656.336 1032.3 656.336 1029.77V1028.41C656.336 1025.51 656.757 1022.89 657.601 1020.54C658.444 1018.2 659.617 1016.19 661.121 1014.53C662.625 1012.84 664.402 1011.56 666.453 1010.67C668.504 1009.78 670.726 1009.33 673.118 1009.33C675.761 1009.33 678.074 1009.78 680.057 1010.67C682.039 1011.56 683.68 1012.81 684.979 1014.43C686.3 1016.02 687.28 1017.92 687.918 1020.13C688.579 1022.35 688.909 1024.78 688.909 1027.45V1030.97H660.335V1025.06H680.774V1024.41C680.729 1022.93 680.433 1021.54 679.886 1020.24C679.362 1018.94 678.553 1017.89 677.459 1017.09C676.365 1016.3 674.907 1015.9 673.084 1015.9C671.717 1015.9 670.498 1016.19 669.427 1016.79C668.379 1017.35 667.501 1018.19 666.795 1019.28C666.089 1020.37 665.542 1021.7 665.154 1023.25C664.79 1024.77 664.607 1026.49 664.607 1028.41V1029.77C664.607 1031.39 664.824 1032.9 665.257 1034.29C665.713 1035.65 666.373 1036.85 667.239 1037.87C668.105 1038.9 669.153 1039.71 670.384 1040.3C671.614 1040.87 673.016 1041.16 674.588 1041.16C676.57 1041.16 678.336 1040.76 679.886 1039.96C681.435 1039.16 682.78 1038.03 683.919 1036.58L688.26 1040.78C687.462 1041.94 686.425 1043.06 685.149 1044.13C683.873 1045.18 682.312 1046.03 680.467 1046.69C678.644 1047.35 676.525 1047.68 674.109 1047.68ZM703.504 1017.91V1047H695.267V1010.02H703.025L703.504 1017.91ZM702.034 1027.14L699.368 1027.11C699.391 1024.49 699.756 1022.08 700.462 1019.9C701.191 1017.71 702.194 1015.83 703.47 1014.26C704.769 1012.68 706.318 1011.48 708.118 1010.63C709.918 1009.77 711.924 1009.33 714.134 1009.33C715.911 1009.33 717.518 1009.58 718.953 1010.09C720.411 1010.56 721.653 1011.35 722.679 1012.44C723.727 1013.54 724.524 1014.96 725.071 1016.72C725.618 1018.45 725.892 1020.58 725.892 1023.11V1047H717.62V1023.07C717.62 1021.3 717.358 1019.9 716.834 1018.87C716.333 1017.82 715.592 1017.08 714.612 1016.65C713.655 1016.19 712.459 1015.96 711.023 1015.96C709.611 1015.96 708.346 1016.26 707.229 1016.85C706.113 1017.45 705.167 1018.25 704.393 1019.28C703.641 1020.31 703.06 1021.49 702.649 1022.83C702.239 1024.18 702.034 1025.61 702.034 1027.14ZM755.047 1036.99C755.047 1036.17 754.842 1035.42 754.432 1034.76C754.021 1034.08 753.235 1033.46 752.073 1032.92C750.934 1032.37 749.248 1031.87 747.015 1031.41C745.055 1030.98 743.255 1030.47 741.614 1029.88C739.996 1029.26 738.606 1028.52 737.444 1027.65C736.282 1026.79 735.382 1025.76 734.744 1024.58C734.106 1023.39 733.787 1022.03 733.787 1020.48C733.787 1018.97 734.118 1017.55 734.778 1016.2C735.439 1014.86 736.385 1013.67 737.615 1012.65C738.846 1011.62 740.338 1010.82 742.093 1010.22C743.87 1009.63 745.853 1009.33 748.04 1009.33C751.139 1009.33 753.794 1009.86 756.004 1010.91C758.237 1011.93 759.946 1013.33 761.131 1015.11C762.316 1016.86 762.908 1018.85 762.908 1021.06H754.671C754.671 1020.08 754.42 1019.17 753.919 1018.32C753.44 1017.46 752.711 1016.76 751.731 1016.24C750.752 1015.69 749.521 1015.42 748.04 1015.42C746.627 1015.42 745.454 1015.65 744.52 1016.1C743.608 1016.53 742.924 1017.1 742.469 1017.81C742.036 1018.52 741.819 1019.29 741.819 1020.13C741.819 1020.75 741.933 1021.31 742.161 1021.81C742.412 1022.29 742.822 1022.73 743.392 1023.14C743.961 1023.53 744.736 1023.89 745.716 1024.24C746.718 1024.58 747.972 1024.91 749.476 1025.23C752.301 1025.82 754.728 1026.58 756.756 1027.52C758.807 1028.43 760.379 1029.61 761.473 1031.07C762.566 1032.51 763.113 1034.33 763.113 1036.54C763.113 1038.18 762.76 1039.69 762.054 1041.05C761.37 1042.4 760.368 1043.57 759.046 1044.57C757.724 1045.55 756.141 1046.32 754.295 1046.86C752.472 1047.41 750.421 1047.68 748.143 1047.68C744.793 1047.68 741.956 1047.09 739.632 1045.91C737.308 1044.7 735.542 1043.16 734.334 1041.29C733.149 1039.4 732.557 1037.44 732.557 1035.41H740.521C740.612 1036.94 741.033 1038.16 741.785 1039.07C742.56 1039.96 743.517 1040.61 744.656 1041.02C745.818 1041.41 747.015 1041.6 748.245 1041.6C749.726 1041.6 750.968 1041.41 751.971 1041.02C752.973 1040.61 753.737 1040.06 754.261 1039.38C754.785 1038.67 755.047 1037.87 755.047 1036.99ZM786.629 1047.68C783.895 1047.68 781.422 1047.24 779.212 1046.35C777.024 1045.44 775.156 1044.17 773.606 1042.56C772.08 1040.94 770.906 1039.04 770.086 1036.85C769.266 1034.66 768.855 1032.3 768.855 1029.77V1028.41C768.855 1025.51 769.277 1022.89 770.12 1020.54C770.963 1018.2 772.137 1016.19 773.641 1014.53C775.145 1012.84 776.922 1011.56 778.973 1010.67C781.023 1009.78 783.245 1009.33 785.638 1009.33C788.281 1009.33 790.594 1009.78 792.576 1010.67C794.559 1011.56 796.199 1012.81 797.498 1014.43C798.82 1016.02 799.799 1017.92 800.438 1020.13C801.098 1022.35 801.429 1024.78 801.429 1027.45V1030.97H772.854V1025.06H793.294V1024.41C793.248 1022.93 792.952 1021.54 792.405 1020.24C791.881 1018.94 791.072 1017.89 789.979 1017.09C788.885 1016.3 787.426 1015.9 785.604 1015.9C784.236 1015.9 783.017 1016.19 781.946 1016.79C780.898 1017.35 780.021 1018.19 779.314 1019.28C778.608 1020.37 778.061 1021.7 777.674 1023.25C777.309 1024.77 777.127 1026.49 777.127 1028.41V1029.77C777.127 1031.39 777.343 1032.9 777.776 1034.29C778.232 1035.65 778.893 1036.85 779.759 1037.87C780.625 1038.9 781.673 1039.71 782.903 1040.3C784.134 1040.87 785.535 1041.16 787.107 1041.16C789.09 1041.16 790.856 1040.76 792.405 1039.96C793.955 1039.16 795.299 1038.03 796.438 1036.58L800.779 1040.78C799.982 1041.94 798.945 1043.06 797.669 1044.13C796.393 1045.18 794.832 1046.03 792.986 1046.69C791.163 1047.35 789.044 1047.68 786.629 1047.68Z" fill="#30486E"/>
<path d="M1121 921V1023.04C1120.98 1050.09 1110.21 1076.02 1091.06 1095.14C1071.91 1114.26 1045.95 1125 1018.88 1125H917V1023.04C917 995.991 927.748 970.049 946.882 950.915C966.016 931.781 991.97 921.021 1019.04 921H1121Z" fill="url(#paint0_linear_84_982)"/>
<path d="M1018 1018.64C1018 1041.93 1008.58 1058 989.259 1058C969.937 1058 961.081 1040.49 961.001 1019.12C960.92 997.753 970.259 980 989.822 980C1009.39 980 1018 997.994 1018 1018.64ZM978.793 1019.12C978.793 1036.39 982.818 1044.67 989.742 1044.67C996.666 1044.67 1000.29 1036.07 1000.29 1018.88C1000.29 1001.69 996.665 993.335 989.581 993.335C982.496 993.335 978.632 1001.61 978.793 1019.12Z" fill="white"/>
<path d="M1055.19 1057V1038.87H1021V1027.3L1049.9 981H1071.8V1025.52H1081V1038.87H1071.8V1057H1055.19ZM1055.19 1025.52V1008.68C1055.19 1004.15 1055.19 999.454 1055.76 994.516H1055.27C1052.83 999.454 1050.8 1003.91 1048.19 1008.68L1038.01 1025.27L1055.19 1025.52Z" fill="white"/>
<path d="M1018 1018.64C1018 1041.93 1008.58 1058 989.259 1058C969.937 1058 961.081 1040.49 961.001 1019.12C960.92 997.753 970.259 980 989.822 980C1009.39 980 1018 997.994 1018 1018.64ZM978.793 1019.12C978.793 1036.39 982.818 1044.67 989.742 1044.67C996.666 1044.67 1000.29 1036.07 1000.29 1018.88C1000.29 1001.69 996.665 993.335 989.581 993.335C982.496 993.335 978.632 1001.61 978.793 1019.12Z" fill="white"/>
<path d="M1055.19 1057V1038.87H1021V1027.3L1049.9 981H1071.8V1025.52H1081V1038.87H1071.8V1057H1055.19ZM1055.19 1025.52V1008.68C1055.19 1004.15 1055.19 999.454 1055.76 994.516H1055.27C1052.83 999.454 1050.8 1003.91 1048.19 1008.68L1038.01 1025.27L1055.19 1025.52Z" fill="white"/>
<g filter="url(#filter1_d_84_982)">
<path d="M989.963 601C1006.55 601 1019.98 614.454 1019.96 631.036L1019.72 835.036C1019.7 851.591 1006.27 865 989.716 865H905.619H54C37.4315 865 24 851.569 24 835V631C24 614.431 37.4315 601 54 601H989.963Z" fill="white"/>
</g>
<path d="M379.169 738.44H366.215V731.639H379.169C381.425 731.639 383.248 731.274 384.638 730.545C386.028 729.816 387.042 728.813 387.68 727.537C388.34 726.238 388.671 724.757 388.671 723.094C388.671 721.521 388.34 720.052 387.68 718.685C387.042 717.295 386.028 716.178 384.638 715.335C383.248 714.492 381.425 714.07 379.169 714.07H368.847V757H360.268V707.234H379.169C383.02 707.234 386.29 707.918 388.979 709.285C391.69 710.63 393.752 712.498 395.165 714.891C396.578 717.26 397.284 719.972 397.284 723.025C397.284 726.238 396.578 728.995 395.165 731.297C393.752 733.598 391.69 735.364 388.979 736.595C386.29 737.825 383.02 738.44 379.169 738.44ZM424.594 749.583V731.946C424.594 730.625 424.354 729.485 423.876 728.528C423.397 727.571 422.668 726.831 421.688 726.307C420.731 725.783 419.524 725.521 418.065 725.521C416.721 725.521 415.559 725.748 414.579 726.204C413.599 726.66 412.836 727.275 412.289 728.05C411.742 728.825 411.469 729.702 411.469 730.682H403.266C403.266 729.223 403.619 727.811 404.325 726.443C405.032 725.076 406.057 723.857 407.401 722.786C408.746 721.715 410.352 720.872 412.221 720.257C414.089 719.642 416.186 719.334 418.51 719.334C421.29 719.334 423.751 719.801 425.893 720.735C428.057 721.67 429.755 723.082 430.985 724.974C432.239 726.842 432.865 729.189 432.865 732.015V748.455C432.865 750.141 432.979 751.657 433.207 753.001C433.458 754.323 433.811 755.473 434.267 756.453V757H425.824C425.437 756.111 425.129 754.983 424.901 753.616C424.696 752.226 424.594 750.882 424.594 749.583ZM425.79 734.51L425.858 739.603H419.945C418.419 739.603 417.074 739.751 415.912 740.047C414.75 740.32 413.782 740.73 413.007 741.277C412.232 741.824 411.651 742.485 411.264 743.26C410.876 744.035 410.683 744.912 410.683 745.892C410.683 746.871 410.91 747.771 411.366 748.592C411.822 749.389 412.483 750.016 413.349 750.472C414.237 750.927 415.308 751.155 416.562 751.155C418.248 751.155 419.717 750.813 420.971 750.13C422.247 749.424 423.249 748.569 423.979 747.566C424.708 746.541 425.095 745.573 425.141 744.661L427.807 748.318C427.533 749.253 427.066 750.255 426.405 751.326C425.744 752.397 424.879 753.423 423.808 754.402C422.759 755.359 421.495 756.146 420.014 756.761C418.555 757.376 416.869 757.684 414.955 757.684C412.54 757.684 410.386 757.205 408.495 756.248C406.604 755.268 405.123 753.958 404.052 752.317C402.981 750.654 402.445 748.774 402.445 746.678C402.445 744.718 402.81 742.986 403.539 741.482C404.291 739.956 405.385 738.68 406.82 737.654C408.279 736.629 410.056 735.854 412.152 735.33C414.249 734.783 416.641 734.51 419.33 734.51H425.79ZM451.664 752.967L461.713 720.018H470.531L455.697 762.64C455.355 763.551 454.911 764.542 454.364 765.613C453.817 766.684 453.1 767.698 452.211 768.655C451.345 769.635 450.263 770.421 448.964 771.014C447.665 771.629 446.093 771.937 444.247 771.937C443.518 771.937 442.812 771.868 442.128 771.731C441.467 771.618 440.84 771.492 440.248 771.355L440.214 765.066C440.442 765.089 440.715 765.112 441.034 765.135C441.376 765.158 441.649 765.169 441.854 765.169C443.222 765.169 444.361 764.998 445.272 764.656C446.184 764.337 446.924 763.813 447.494 763.084C448.087 762.355 448.588 761.375 448.998 760.145L451.664 752.967ZM445.99 720.018L454.774 747.703L456.244 756.385L450.536 757.854L437.104 720.018H445.99ZM483.485 727.537V757H475.248V720.018H483.007L483.485 727.537ZM482.152 737.142L479.35 737.107C479.35 734.555 479.669 732.197 480.307 730.032C480.945 727.868 481.879 725.988 483.109 724.393C484.34 722.775 485.867 721.533 487.689 720.667C489.535 719.778 491.666 719.334 494.081 719.334C495.767 719.334 497.305 719.585 498.695 720.086C500.108 720.564 501.327 721.328 502.353 722.376C503.401 723.424 504.198 724.769 504.745 726.409C505.315 728.05 505.6 730.032 505.6 732.356V757H497.362V733.074C497.362 731.274 497.089 729.861 496.542 728.836C496.018 727.811 495.255 727.081 494.252 726.648C493.272 726.193 492.099 725.965 490.731 725.965C489.182 725.965 487.86 726.261 486.767 726.854C485.696 727.446 484.818 728.255 484.135 729.28C483.451 730.306 482.95 731.491 482.631 732.835C482.312 734.179 482.152 735.615 482.152 737.142ZM505.087 734.954L501.225 735.809C501.225 733.576 501.532 731.468 502.147 729.485C502.785 727.48 503.708 725.726 504.916 724.222C506.146 722.695 507.662 721.499 509.462 720.633C511.262 719.767 513.324 719.334 515.648 719.334C517.54 719.334 519.226 719.596 520.707 720.12C522.211 720.621 523.487 721.419 524.535 722.513C525.583 723.606 526.381 725.031 526.928 726.785C527.475 728.517 527.748 730.613 527.748 733.074V757H519.477V733.04C519.477 731.172 519.203 729.725 518.656 728.699C518.132 727.674 517.38 726.967 516.4 726.58C515.421 726.17 514.247 725.965 512.88 725.965C511.604 725.965 510.476 726.204 509.496 726.683C508.539 727.138 507.73 727.788 507.069 728.631C506.409 729.451 505.907 730.397 505.565 731.468C505.246 732.539 505.087 733.701 505.087 734.954ZM552.528 757.684C549.794 757.684 547.322 757.239 545.111 756.351C542.924 755.439 541.055 754.174 539.506 752.557C537.979 750.939 536.806 749.036 535.985 746.849C535.165 744.661 534.755 742.303 534.755 739.773V738.406C534.755 735.512 535.176 732.892 536.02 730.545C536.863 728.198 538.036 726.193 539.54 724.529C541.044 722.843 542.821 721.556 544.872 720.667C546.923 719.778 549.145 719.334 551.537 719.334C554.18 719.334 556.493 719.778 558.476 720.667C560.458 721.556 562.099 722.809 563.397 724.427C564.719 726.022 565.699 727.924 566.337 730.135C566.998 732.345 567.328 734.783 567.328 737.449V740.97H538.754V735.057H559.193V734.407C559.148 732.926 558.852 731.536 558.305 730.237C557.781 728.938 556.972 727.89 555.878 727.093C554.784 726.295 553.326 725.896 551.503 725.896C550.136 725.896 548.917 726.193 547.846 726.785C546.798 727.355 545.92 728.187 545.214 729.28C544.507 730.374 543.961 731.696 543.573 733.245C543.209 734.772 543.026 736.492 543.026 738.406V739.773C543.026 741.391 543.243 742.895 543.676 744.285C544.132 745.652 544.792 746.849 545.658 747.874C546.524 748.899 547.572 749.708 548.803 750.301C550.033 750.87 551.435 751.155 553.007 751.155C554.989 751.155 556.755 750.757 558.305 749.959C559.854 749.161 561.199 748.034 562.338 746.575L566.679 750.779C565.881 751.941 564.844 753.058 563.568 754.129C562.292 755.177 560.731 756.032 558.886 756.692C557.063 757.353 554.944 757.684 552.528 757.684ZM581.923 727.913V757H573.686V720.018H581.444L581.923 727.913ZM580.453 737.142L577.787 737.107C577.81 734.487 578.174 732.083 578.881 729.896C579.61 727.708 580.613 725.828 581.889 724.256C583.188 722.684 584.737 721.476 586.537 720.633C588.337 719.767 590.342 719.334 592.553 719.334C594.33 719.334 595.937 719.585 597.372 720.086C598.83 720.564 600.072 721.351 601.098 722.444C602.146 723.538 602.943 724.962 603.49 726.717C604.037 728.449 604.311 730.579 604.311 733.108V757H596.039V733.074C596.039 731.297 595.777 729.896 595.253 728.87C594.752 727.822 594.011 727.081 593.031 726.648C592.074 726.193 590.878 725.965 589.442 725.965C588.03 725.965 586.765 726.261 585.648 726.854C584.532 727.446 583.586 728.255 582.812 729.28C582.06 730.306 581.479 731.491 581.068 732.835C580.658 734.179 580.453 735.615 580.453 737.142ZM629.672 720.018V726.033H608.822V720.018H629.672ZM614.838 710.96H623.075V746.78C623.075 747.92 623.235 748.797 623.554 749.412C623.896 750.005 624.363 750.403 624.955 750.608C625.548 750.813 626.243 750.916 627.04 750.916C627.61 750.916 628.157 750.882 628.681 750.813C629.205 750.745 629.626 750.677 629.945 750.608L629.979 756.897C629.296 757.103 628.498 757.285 627.587 757.444C626.698 757.604 625.673 757.684 624.511 757.684C622.619 757.684 620.945 757.353 619.486 756.692C618.028 756.009 616.889 754.904 616.068 753.377C615.248 751.85 614.838 749.822 614.838 747.293V710.96Z" fill="#30486E"/>
<path d="M1121 632V734.04C1120.98 761.089 1110.21 787.023 1091.06 806.142C1071.91 825.26 1045.95 836 1018.88 836H917V733.639C917.085 706.681 927.851 680.854 946.943 661.806C966.036 642.759 991.9 632.042 1018.88 632H1121Z" fill="url(#paint1_linear_84_982)"/>
<path d="M1018 729.143C1018 752.14 1008.58 768 989.259 768C969.937 768 961.081 750.633 961.001 729.619C960.92 708.604 970.259 691 989.822 691C1009.39 691 1018 708.763 1018 729.143ZM978.793 729.619C978.793 746.668 982.818 754.757 989.742 754.757C996.666 754.757 1000.29 746.351 1000.29 729.381C1000.29 712.411 996.665 704.005 989.661 704.005C982.657 704.005 978.632 711.935 978.793 729.619Z" fill="white"/>
<path d="M1027.08 749.699C1032.47 752.553 1038.42 754.149 1044.5 754.371C1053.62 754.371 1058.25 749.941 1058.25 744.221C1058.25 736.811 1050.9 733.427 1043.14 733.427H1035.95V720.781H1042.83C1048.66 720.781 1056.17 718.445 1056.17 712.001C1056.17 707.49 1052.5 703.946 1045.14 703.946C1039.53 704.114 1034.04 705.662 1029.16 708.457L1025.56 695.729C1032.68 691.811 1040.7 689.839 1048.82 690.01C1064.81 690.01 1073.76 698.065 1073.76 708.859C1073.74 712.911 1072.37 716.838 1069.88 720.018C1067.39 723.199 1063.92 725.452 1060.01 726.42C1064.41 727.054 1068.45 729.254 1071.38 732.622C1074.31 735.991 1075.95 740.305 1076 744.785C1076 758.157 1064.41 767.984 1045.3 767.984C1037.53 768.194 1029.83 766.332 1023 762.587L1027.08 749.699Z" fill="white"/>
<path d="M1018 729.143C1018 752.14 1008.58 768 989.259 768C969.937 768 961.081 750.633 961.001 729.619C960.92 708.604 970.259 691 989.822 691C1009.39 691 1018 708.763 1018 729.143ZM978.793 729.619C978.793 746.668 982.818 754.757 989.742 754.757C996.666 754.757 1000.29 746.351 1000.29 729.381C1000.29 712.411 996.665 704.005 989.661 704.005C982.657 704.005 978.632 711.935 978.793 729.619Z" fill="white"/>
<path d="M1027.08 749.699C1032.47 752.553 1038.42 754.149 1044.5 754.371C1053.62 754.371 1058.25 749.941 1058.25 744.221C1058.25 736.811 1050.9 733.427 1043.14 733.427H1035.95V720.781H1042.83C1048.66 720.781 1056.17 718.445 1056.17 712.001C1056.17 707.49 1052.5 703.946 1045.14 703.946C1039.53 704.114 1034.04 705.662 1029.16 708.457L1025.56 695.729C1032.68 691.811 1040.7 689.839 1048.82 690.01C1064.81 690.01 1073.76 698.065 1073.76 708.859C1073.74 712.911 1072.37 716.838 1069.88 720.018C1067.39 723.199 1063.92 725.452 1060.01 726.42C1064.41 727.054 1068.45 729.254 1071.38 732.622C1074.31 735.991 1075.95 740.305 1076 744.785C1076 758.157 1064.41 767.984 1045.3 767.984C1037.53 768.194 1029.83 766.332 1023 762.587L1027.08 749.699Z" fill="white"/>
<g filter="url(#filter2_d_84_982)">
<path d="M989.963 312C1006.55 312 1019.98 325.454 1019.96 342.037L1019.72 545.037C1019.7 561.591 1006.27 575 989.716 575H905.619H54C37.4315 575 24 561.569 24 545V342C24 325.431 37.4315 312 54 312H989.963Z" fill="white"/>
</g>
<path d="M185.028 417.234V467H176.449L154.13 431.351V467H145.551V417.234H154.13L176.518 452.952V417.234H185.028ZM210.731 467.684C207.997 467.684 205.525 467.239 203.314 466.351C201.127 465.439 199.258 464.174 197.709 462.557C196.182 460.939 195.009 459.036 194.188 456.849C193.368 454.661 192.958 452.303 192.958 449.773V448.406C192.958 445.512 193.38 442.892 194.223 440.545C195.066 438.198 196.239 436.193 197.743 434.529C199.247 432.843 201.024 431.556 203.075 430.667C205.126 429.778 207.348 429.334 209.74 429.334C212.383 429.334 214.696 429.778 216.679 430.667C218.661 431.556 220.302 432.809 221.601 434.427C222.922 436.022 223.902 437.924 224.54 440.135C225.201 442.345 225.531 444.783 225.531 447.449V450.97H196.957V445.057H217.396V444.407C217.351 442.926 217.055 441.536 216.508 440.237C215.984 438.938 215.175 437.89 214.081 437.093C212.987 436.295 211.529 435.896 209.706 435.896C208.339 435.896 207.12 436.193 206.049 436.785C205.001 437.355 204.123 438.187 203.417 439.28C202.711 440.374 202.164 441.696 201.776 443.245C201.412 444.772 201.229 446.492 201.229 448.406V449.773C201.229 451.391 201.446 452.895 201.879 454.285C202.335 455.652 202.995 456.849 203.861 457.874C204.727 458.899 205.775 459.708 207.006 460.301C208.236 460.87 209.638 461.155 211.21 461.155C213.192 461.155 214.958 460.757 216.508 459.959C218.057 459.161 219.402 458.034 220.541 456.575L224.882 460.779C224.084 461.941 223.048 463.058 221.771 464.129C220.495 465.177 218.935 466.032 217.089 466.692C215.266 467.353 213.147 467.684 210.731 467.684ZM247.064 461.121C248.409 461.121 249.617 460.859 250.688 460.335C251.781 459.788 252.659 459.036 253.319 458.079C254.003 457.122 254.379 456.017 254.447 454.764H262.206C262.16 457.156 261.454 459.332 260.087 461.292C258.72 463.252 256.908 464.812 254.652 465.975C252.396 467.114 249.901 467.684 247.167 467.684C244.341 467.684 241.881 467.205 239.784 466.248C237.688 465.268 235.945 463.924 234.555 462.215C233.165 460.506 232.117 458.535 231.41 456.302C230.727 454.069 230.385 451.676 230.385 449.124V447.928C230.385 445.376 230.727 442.983 231.41 440.75C232.117 438.494 233.165 436.512 234.555 434.803C235.945 433.094 237.688 431.761 239.784 430.804C241.881 429.824 244.33 429.334 247.133 429.334C250.095 429.334 252.693 429.926 254.926 431.111C257.159 432.273 258.913 433.903 260.189 435.999C261.488 438.073 262.16 440.488 262.206 443.245H254.447C254.379 441.878 254.037 440.647 253.422 439.554C252.829 438.437 251.986 437.549 250.893 436.888C249.822 436.227 248.534 435.896 247.03 435.896C245.367 435.896 243.988 436.238 242.895 436.922C241.801 437.583 240.946 438.494 240.331 439.656C239.716 440.796 239.271 442.083 238.998 443.519C238.747 444.931 238.622 446.401 238.622 447.928V449.124C238.622 450.651 238.747 452.132 238.998 453.567C239.249 455.003 239.682 456.29 240.297 457.43C240.935 458.546 241.801 459.446 242.895 460.13C243.988 460.791 245.378 461.121 247.064 461.121ZM284.833 467.684C282.099 467.684 279.626 467.239 277.416 466.351C275.229 465.439 273.36 464.174 271.811 462.557C270.284 460.939 269.11 459.036 268.29 456.849C267.47 454.661 267.06 452.303 267.06 449.773V448.406C267.06 445.512 267.481 442.892 268.324 440.545C269.167 438.198 270.341 436.193 271.845 434.529C273.349 432.843 275.126 431.556 277.177 430.667C279.228 429.778 281.449 429.334 283.842 429.334C286.485 429.334 288.798 429.778 290.78 430.667C292.763 431.556 294.403 432.809 295.702 434.427C297.024 436.022 298.004 437.924 298.642 440.135C299.302 442.345 299.633 444.783 299.633 447.449V450.97H271.059V445.057H291.498V444.407C291.452 442.926 291.156 441.536 290.609 440.237C290.085 438.938 289.276 437.89 288.183 437.093C287.089 436.295 285.631 435.896 283.808 435.896C282.44 435.896 281.221 436.193 280.15 436.785C279.102 437.355 278.225 438.187 277.519 439.28C276.812 440.374 276.265 441.696 275.878 443.245C275.513 444.772 275.331 446.492 275.331 448.406V449.773C275.331 451.391 275.548 452.895 275.98 454.285C276.436 455.652 277.097 456.849 277.963 457.874C278.829 458.899 279.877 459.708 281.107 460.301C282.338 460.87 283.739 461.155 285.312 461.155C287.294 461.155 289.06 460.757 290.609 459.959C292.159 459.161 293.503 458.034 294.643 456.575L298.983 460.779C298.186 461.941 297.149 463.058 295.873 464.129C294.597 465.177 293.036 466.032 291.19 466.692C289.368 467.353 287.248 467.684 284.833 467.684ZM326.806 456.985C326.806 456.165 326.601 455.424 326.19 454.764C325.78 454.08 324.994 453.465 323.832 452.918C322.693 452.371 321.007 451.87 318.773 451.414C316.814 450.981 315.014 450.468 313.373 449.876C311.755 449.261 310.365 448.52 309.203 447.654C308.041 446.788 307.141 445.763 306.503 444.578C305.865 443.393 305.546 442.026 305.546 440.477C305.546 438.973 305.876 437.549 306.537 436.204C307.198 434.86 308.144 433.675 309.374 432.649C310.604 431.624 312.097 430.815 313.852 430.223C315.629 429.63 317.611 429.334 319.799 429.334C322.898 429.334 325.552 429.858 327.763 430.906C329.996 431.932 331.705 433.333 332.89 435.11C334.075 436.865 334.667 438.847 334.667 441.058H326.43C326.43 440.078 326.179 439.166 325.678 438.323C325.199 437.457 324.47 436.762 323.49 436.238C322.51 435.691 321.28 435.418 319.799 435.418C318.386 435.418 317.213 435.646 316.278 436.102C315.367 436.535 314.683 437.104 314.228 437.811C313.795 438.517 313.578 439.292 313.578 440.135C313.578 440.75 313.692 441.308 313.92 441.81C314.171 442.288 314.581 442.732 315.15 443.143C315.72 443.53 316.495 443.895 317.475 444.236C318.477 444.578 319.73 444.909 321.234 445.228C324.06 445.82 326.487 446.583 328.515 447.518C330.565 448.429 332.138 449.614 333.231 451.072C334.325 452.508 334.872 454.331 334.872 456.541C334.872 458.182 334.519 459.686 333.812 461.053C333.129 462.397 332.126 463.571 330.805 464.573C329.483 465.553 327.899 466.316 326.054 466.863C324.231 467.41 322.18 467.684 319.901 467.684C316.552 467.684 313.715 467.091 311.391 465.906C309.066 464.699 307.3 463.16 306.093 461.292C304.908 459.401 304.315 457.441 304.315 455.413H312.279C312.37 456.94 312.792 458.159 313.544 459.07C314.319 459.959 315.276 460.608 316.415 461.019C317.577 461.406 318.773 461.6 320.004 461.6C321.485 461.6 322.727 461.406 323.729 461.019C324.732 460.608 325.495 460.062 326.02 459.378C326.544 458.672 326.806 457.874 326.806 456.985ZM362.831 456.985C362.831 456.165 362.626 455.424 362.216 454.764C361.806 454.08 361.02 453.465 359.857 452.918C358.718 452.371 357.032 451.87 354.799 451.414C352.839 450.981 351.039 450.468 349.398 449.876C347.781 449.261 346.391 448.52 345.229 447.654C344.066 446.788 343.166 445.763 342.528 444.578C341.89 443.393 341.571 442.026 341.571 440.477C341.571 438.973 341.902 437.549 342.562 436.204C343.223 434.86 344.169 433.675 345.399 432.649C346.63 431.624 348.122 430.815 349.877 430.223C351.654 429.63 353.637 429.334 355.824 429.334C358.923 429.334 361.578 429.858 363.788 430.906C366.021 431.932 367.73 433.333 368.915 435.11C370.1 436.865 370.692 438.847 370.692 441.058H362.455C362.455 440.078 362.204 439.166 361.703 438.323C361.225 437.457 360.495 436.762 359.516 436.238C358.536 435.691 357.305 435.418 355.824 435.418C354.411 435.418 353.238 435.646 352.304 436.102C351.392 436.535 350.709 437.104 350.253 437.811C349.82 438.517 349.604 439.292 349.604 440.135C349.604 440.75 349.717 441.308 349.945 441.81C350.196 442.288 350.606 442.732 351.176 443.143C351.745 443.53 352.52 443.895 353.5 444.236C354.503 444.578 355.756 444.909 357.26 445.228C360.085 445.82 362.512 446.583 364.54 447.518C366.591 448.429 368.163 449.614 369.257 451.072C370.351 452.508 370.897 454.331 370.897 456.541C370.897 458.182 370.544 459.686 369.838 461.053C369.154 462.397 368.152 463.571 366.83 464.573C365.508 465.553 363.925 466.316 362.079 466.863C360.256 467.41 358.205 467.684 355.927 467.684C352.577 467.684 349.74 467.091 347.416 465.906C345.092 464.699 343.326 463.16 342.118 461.292C340.933 459.401 340.341 457.441 340.341 455.413H348.305C348.396 456.94 348.817 458.159 349.569 459.07C350.344 459.959 351.301 460.608 352.44 461.019C353.603 461.406 354.799 461.6 356.029 461.6C357.51 461.6 358.752 461.406 359.755 461.019C360.757 460.608 361.521 460.062 362.045 459.378C362.569 458.672 362.831 457.874 362.831 456.985ZM398.959 459.583V441.946C398.959 440.625 398.72 439.485 398.241 438.528C397.763 437.571 397.034 436.831 396.054 436.307C395.097 435.783 393.889 435.521 392.431 435.521C391.086 435.521 389.924 435.748 388.944 436.204C387.965 436.66 387.201 437.275 386.654 438.05C386.107 438.825 385.834 439.702 385.834 440.682H377.631C377.631 439.223 377.984 437.811 378.69 436.443C379.397 435.076 380.422 433.857 381.767 432.786C383.111 431.715 384.717 430.872 386.586 430.257C388.454 429.642 390.551 429.334 392.875 429.334C395.655 429.334 398.116 429.801 400.258 430.735C402.423 431.67 404.12 433.082 405.351 434.974C406.604 436.842 407.23 439.189 407.23 442.015V458.455C407.23 460.141 407.344 461.657 407.572 463.001C407.823 464.323 408.176 465.473 408.632 466.453V467H400.189C399.802 466.111 399.494 464.983 399.267 463.616C399.062 462.226 398.959 460.882 398.959 459.583ZM400.155 444.51L400.224 449.603H394.311C392.784 449.603 391.439 449.751 390.277 450.047C389.115 450.32 388.147 450.73 387.372 451.277C386.597 451.824 386.016 452.485 385.629 453.26C385.242 454.035 385.048 454.912 385.048 455.892C385.048 456.871 385.276 457.771 385.731 458.592C386.187 459.389 386.848 460.016 387.714 460.472C388.603 460.927 389.674 461.155 390.927 461.155C392.613 461.155 394.083 460.813 395.336 460.13C396.612 459.424 397.615 458.569 398.344 457.566C399.073 456.541 399.46 455.573 399.506 454.661L402.172 458.318C401.898 459.253 401.431 460.255 400.771 461.326C400.11 462.397 399.244 463.423 398.173 464.402C397.125 465.359 395.86 466.146 394.379 466.761C392.921 467.376 391.234 467.684 389.32 467.684C386.905 467.684 384.752 467.205 382.86 466.248C380.969 465.268 379.488 463.958 378.417 462.317C377.346 460.654 376.811 458.774 376.811 456.678C376.811 454.718 377.175 452.986 377.904 451.482C378.656 449.956 379.75 448.68 381.186 447.654C382.644 446.629 384.421 445.854 386.518 445.33C388.614 444.783 391.007 444.51 393.695 444.51H400.155ZM424.115 437.059V467H415.878V430.018H423.739L424.115 437.059ZM435.429 429.778L435.36 437.435C434.859 437.343 434.312 437.275 433.72 437.229C433.15 437.184 432.58 437.161 432.011 437.161C430.598 437.161 429.356 437.366 428.285 437.776C427.214 438.164 426.314 438.733 425.585 439.485C424.879 440.215 424.332 441.103 423.944 442.151C423.557 443.2 423.329 444.373 423.261 445.672L421.381 445.809C421.381 443.484 421.609 441.331 422.064 439.349C422.52 437.366 423.204 435.623 424.115 434.119C425.049 432.615 426.212 431.442 427.602 430.599C429.014 429.756 430.644 429.334 432.489 429.334C432.991 429.334 433.526 429.38 434.096 429.471C434.688 429.562 435.132 429.664 435.429 429.778ZM451.938 462.967L461.986 430.018H470.805L455.971 472.64C455.629 473.551 455.185 474.542 454.638 475.613C454.091 476.684 453.373 477.698 452.484 478.655C451.618 479.635 450.536 480.421 449.237 481.014C447.938 481.629 446.366 481.937 444.521 481.937C443.791 481.937 443.085 481.868 442.401 481.731C441.741 481.618 441.114 481.492 440.521 481.355L440.487 475.066C440.715 475.089 440.989 475.112 441.308 475.135C441.649 475.158 441.923 475.169 442.128 475.169C443.495 475.169 444.634 474.998 445.546 474.656C446.457 474.337 447.198 473.813 447.768 473.084C448.36 472.355 448.861 471.375 449.271 470.145L451.938 462.967ZM446.264 430.018L455.048 457.703L456.518 466.385L450.81 467.854L437.377 430.018H446.264ZM508.231 467H497.602L497.67 460.198H508.231C511.308 460.198 513.882 459.526 515.956 458.182C518.052 456.837 519.625 454.912 520.673 452.405C521.744 449.899 522.279 446.914 522.279 443.45V440.75C522.279 438.061 521.972 435.68 521.356 433.606C520.764 431.533 519.875 429.79 518.69 428.377C517.528 426.964 516.093 425.893 514.384 425.164C512.698 424.435 510.749 424.07 508.539 424.07H497.396V417.234H508.539C511.843 417.234 514.862 417.793 517.597 418.909C520.331 420.003 522.689 421.587 524.672 423.66C526.677 425.734 528.215 428.217 529.286 431.111C530.357 434.005 530.893 437.241 530.893 440.818V443.45C530.893 447.028 530.357 450.263 529.286 453.157C528.215 456.051 526.677 458.535 524.672 460.608C522.667 462.659 520.274 464.243 517.494 465.359C514.737 466.453 511.649 467 508.231 467ZM502.353 417.234V467H493.773V417.234H502.353ZM537.113 448.919V448.133C537.113 445.467 537.501 442.994 538.275 440.716C539.05 438.414 540.167 436.421 541.625 434.734C543.106 433.025 544.906 431.704 547.025 430.77C549.167 429.812 551.583 429.334 554.271 429.334C556.983 429.334 559.398 429.812 561.518 430.77C563.66 431.704 565.471 433.025 566.952 434.734C568.433 436.421 569.561 438.414 570.336 440.716C571.111 442.994 571.498 445.467 571.498 448.133V448.919C571.498 451.585 571.111 454.057 570.336 456.336C569.561 458.615 568.433 460.608 566.952 462.317C565.471 464.004 563.671 465.325 561.552 466.282C559.433 467.216 557.029 467.684 554.34 467.684C551.628 467.684 549.201 467.216 547.06 466.282C544.94 465.325 543.14 464.004 541.659 462.317C540.178 460.608 539.05 458.615 538.275 456.336C537.501 454.057 537.113 451.585 537.113 448.919ZM545.351 448.133V448.919C545.351 450.582 545.521 452.155 545.863 453.636C546.205 455.117 546.741 456.416 547.47 457.532C548.199 458.649 549.133 459.526 550.272 460.164C551.412 460.802 552.768 461.121 554.34 461.121C555.867 461.121 557.188 460.802 558.305 460.164C559.444 459.526 560.378 458.649 561.107 457.532C561.837 456.416 562.372 455.117 562.714 453.636C563.078 452.155 563.261 450.582 563.261 448.919V448.133C563.261 446.492 563.078 444.943 562.714 443.484C562.372 442.003 561.825 440.693 561.073 439.554C560.344 438.414 559.41 437.526 558.271 436.888C557.154 436.227 555.821 435.896 554.271 435.896C552.722 435.896 551.378 436.227 550.238 436.888C549.122 437.526 548.199 438.414 547.47 439.554C546.741 440.693 546.205 442.003 545.863 443.484C545.521 444.943 545.351 446.492 545.351 448.133ZM593.51 461.121C594.854 461.121 596.062 460.859 597.133 460.335C598.227 459.788 599.104 459.036 599.765 458.079C600.448 457.122 600.824 456.017 600.893 454.764H608.651C608.606 457.156 607.899 459.332 606.532 461.292C605.165 463.252 603.354 464.812 601.098 465.975C598.842 467.114 596.347 467.684 593.612 467.684C590.787 467.684 588.326 467.205 586.229 466.248C584.133 465.268 582.39 463.924 581 462.215C579.61 460.506 578.562 458.535 577.855 456.302C577.172 454.069 576.83 451.676 576.83 449.124V447.928C576.83 445.376 577.172 442.983 577.855 440.75C578.562 438.494 579.61 436.512 581 434.803C582.39 433.094 584.133 431.761 586.229 430.804C588.326 429.824 590.775 429.334 593.578 429.334C596.54 429.334 599.138 429.926 601.371 431.111C603.604 432.273 605.359 433.903 606.635 435.999C607.934 438.073 608.606 440.488 608.651 443.245H600.893C600.824 441.878 600.482 440.647 599.867 439.554C599.275 438.437 598.432 437.549 597.338 436.888C596.267 436.227 594.979 435.896 593.476 435.896C591.812 435.896 590.434 436.238 589.34 436.922C588.246 437.583 587.392 438.494 586.776 439.656C586.161 440.796 585.717 442.083 585.443 443.519C585.193 444.931 585.067 446.401 585.067 447.928V449.124C585.067 450.651 585.193 452.132 585.443 453.567C585.694 455.003 586.127 456.29 586.742 457.43C587.38 458.546 588.246 459.446 589.34 460.13C590.434 460.791 591.824 461.121 593.51 461.121ZM637.226 458.284V430.018H645.497V467H637.704L637.226 458.284ZM638.388 450.594L641.156 450.525C641.156 453.009 640.883 455.299 640.336 457.396C639.789 459.469 638.946 461.281 637.807 462.83C636.667 464.357 635.209 465.553 633.432 466.419C631.654 467.262 629.524 467.684 627.04 467.684C625.24 467.684 623.588 467.422 622.084 466.897C620.58 466.373 619.281 465.564 618.188 464.471C617.117 463.377 616.285 461.953 615.692 460.198C615.1 458.444 614.804 456.347 614.804 453.909V430.018H623.041V453.978C623.041 455.322 623.201 456.45 623.52 457.361C623.839 458.25 624.271 458.968 624.818 459.515C625.365 460.062 626.003 460.449 626.732 460.677C627.462 460.905 628.236 461.019 629.057 461.019C631.404 461.019 633.249 460.563 634.594 459.651C635.961 458.717 636.929 457.464 637.499 455.892C638.091 454.319 638.388 452.553 638.388 450.594ZM662.177 437.537V467H653.939V430.018H661.698L662.177 437.537ZM660.844 447.142L658.041 447.107C658.041 444.555 658.36 442.197 658.998 440.032C659.636 437.868 660.57 435.988 661.801 434.393C663.031 432.775 664.558 431.533 666.381 430.667C668.227 429.778 670.357 429.334 672.772 429.334C674.459 429.334 675.997 429.585 677.387 430.086C678.799 430.564 680.019 431.328 681.044 432.376C682.092 433.424 682.89 434.769 683.437 436.409C684.006 438.05 684.291 440.032 684.291 442.356V467H676.054V443.074C676.054 441.274 675.78 439.861 675.233 438.836C674.709 437.811 673.946 437.081 672.943 436.648C671.964 436.193 670.79 435.965 669.423 435.965C667.873 435.965 666.552 436.261 665.458 436.854C664.387 437.446 663.51 438.255 662.826 439.28C662.143 440.306 661.641 441.491 661.322 442.835C661.003 444.179 660.844 445.615 660.844 447.142ZM683.778 444.954L679.916 445.809C679.916 443.576 680.224 441.468 680.839 439.485C681.477 437.48 682.4 435.726 683.607 434.222C684.838 432.695 686.353 431.499 688.153 430.633C689.953 429.767 692.016 429.334 694.34 429.334C696.231 429.334 697.917 429.596 699.398 430.12C700.902 430.621 702.178 431.419 703.227 432.513C704.275 433.606 705.072 435.031 705.619 436.785C706.166 438.517 706.439 440.613 706.439 443.074V467H698.168V443.04C698.168 441.172 697.895 439.725 697.348 438.699C696.824 437.674 696.072 436.967 695.092 436.58C694.112 436.17 692.938 435.965 691.571 435.965C690.295 435.965 689.167 436.204 688.188 436.683C687.23 437.138 686.422 437.788 685.761 438.631C685.1 439.451 684.599 440.397 684.257 441.468C683.938 442.539 683.778 443.701 683.778 444.954ZM731.22 467.684C728.485 467.684 726.013 467.239 723.803 466.351C721.615 465.439 719.747 464.174 718.197 462.557C716.671 460.939 715.497 459.036 714.677 456.849C713.856 454.661 713.446 452.303 713.446 449.773V448.406C713.446 445.512 713.868 442.892 714.711 440.545C715.554 438.198 716.728 436.193 718.231 434.529C719.735 432.843 721.513 431.556 723.563 430.667C725.614 429.778 727.836 429.334 730.229 429.334C732.872 429.334 735.185 429.778 737.167 430.667C739.149 431.556 740.79 432.809 742.089 434.427C743.41 436.022 744.39 437.924 745.028 440.135C745.689 442.345 746.02 444.783 746.02 447.449V450.97H717.445V445.057H737.885V444.407C737.839 442.926 737.543 441.536 736.996 440.237C736.472 438.938 735.663 437.89 734.569 437.093C733.476 436.295 732.017 435.896 730.194 435.896C728.827 435.896 727.608 436.193 726.537 436.785C725.489 437.355 724.612 438.187 723.905 439.28C723.199 440.374 722.652 441.696 722.265 443.245C721.9 444.772 721.718 446.492 721.718 448.406V449.773C721.718 451.391 721.934 452.895 722.367 454.285C722.823 455.652 723.484 456.849 724.35 457.874C725.215 458.899 726.264 459.708 727.494 460.301C728.725 460.87 730.126 461.155 731.698 461.155C733.681 461.155 735.447 460.757 736.996 459.959C738.546 459.161 739.89 458.034 741.029 456.575L745.37 460.779C744.573 461.941 743.536 463.058 742.26 464.129C740.984 465.177 739.423 466.032 737.577 466.692C735.754 467.353 733.635 467.684 731.22 467.684ZM760.614 437.913V467H752.377V430.018H760.136L760.614 437.913ZM759.145 447.142L756.479 447.107C756.501 444.487 756.866 442.083 757.572 439.896C758.301 437.708 759.304 435.828 760.58 434.256C761.879 432.684 763.428 431.476 765.229 430.633C767.029 429.767 769.034 429.334 771.244 429.334C773.021 429.334 774.628 429.585 776.063 430.086C777.522 430.564 778.764 431.351 779.789 432.444C780.837 433.538 781.635 434.962 782.182 436.717C782.729 438.449 783.002 440.579 783.002 443.108V467H774.73V443.074C774.73 441.297 774.468 439.896 773.944 438.87C773.443 437.822 772.702 437.081 771.723 436.648C770.766 436.193 769.569 435.965 768.134 435.965C766.721 435.965 765.456 436.261 764.34 436.854C763.223 437.446 762.278 438.255 761.503 439.28C760.751 440.306 760.17 441.491 759.76 442.835C759.35 444.179 759.145 445.615 759.145 447.142ZM808.363 430.018V436.033H787.514V430.018H808.363ZM793.529 420.96H801.767V456.78C801.767 457.92 801.926 458.797 802.245 459.412C802.587 460.005 803.054 460.403 803.646 460.608C804.239 460.813 804.934 460.916 805.731 460.916C806.301 460.916 806.848 460.882 807.372 460.813C807.896 460.745 808.318 460.677 808.637 460.608L808.671 466.897C807.987 467.103 807.19 467.285 806.278 467.444C805.39 467.604 804.364 467.684 803.202 467.684C801.311 467.684 799.636 467.353 798.178 466.692C796.719 466.009 795.58 464.904 794.76 463.377C793.939 461.85 793.529 459.822 793.529 457.293V420.96ZM835.468 456.985C835.468 456.165 835.263 455.424 834.853 454.764C834.442 454.08 833.656 453.465 832.494 452.918C831.355 452.371 829.669 451.87 827.436 451.414C825.476 450.981 823.676 450.468 822.035 449.876C820.417 449.261 819.027 448.52 817.865 447.654C816.703 446.788 815.803 445.763 815.165 444.578C814.527 443.393 814.208 442.026 814.208 440.477C814.208 438.973 814.538 437.549 815.199 436.204C815.86 434.86 816.806 433.675 818.036 432.649C819.267 431.624 820.759 430.815 822.514 430.223C824.291 429.63 826.273 429.334 828.461 429.334C831.56 429.334 834.215 429.858 836.425 430.906C838.658 431.932 840.367 433.333 841.552 435.11C842.737 436.865 843.329 438.847 843.329 441.058H835.092C835.092 440.078 834.841 439.166 834.34 438.323C833.861 437.457 833.132 436.762 832.152 436.238C831.173 435.691 829.942 435.418 828.461 435.418C827.048 435.418 825.875 435.646 824.94 436.102C824.029 436.535 823.345 437.104 822.89 437.811C822.457 438.517 822.24 439.292 822.24 440.135C822.24 440.75 822.354 441.308 822.582 441.81C822.833 442.288 823.243 442.732 823.812 443.143C824.382 443.53 825.157 443.895 826.137 444.236C827.139 444.578 828.393 444.909 829.896 445.228C832.722 445.82 835.149 446.583 837.177 447.518C839.228 448.429 840.8 449.614 841.894 451.072C842.987 452.508 843.534 454.331 843.534 456.541C843.534 458.182 843.181 459.686 842.475 461.053C841.791 462.397 840.788 463.571 839.467 464.573C838.145 465.553 836.562 466.316 834.716 466.863C832.893 467.41 830.842 467.684 828.563 467.684C825.214 467.684 822.377 467.091 820.053 465.906C817.729 464.699 815.963 463.16 814.755 461.292C813.57 459.401 812.978 457.441 812.978 455.413H820.941C821.033 456.94 821.454 458.159 822.206 459.07C822.981 459.959 823.938 460.608 825.077 461.019C826.239 461.406 827.436 461.6 828.666 461.6C830.147 461.6 831.389 461.406 832.392 461.019C833.394 460.608 834.158 460.062 834.682 459.378C835.206 458.672 835.468 457.874 835.468 456.985Z" fill="#30486E"/>
<path d="M1121 341V442.96C1121 456.36 1118.36 469.629 1113.23 482.009C1108.09 494.389 1100.57 505.638 1091.09 515.113C1081.61 524.588 1070.35 532.105 1057.96 537.233C1045.57 542.361 1032.29 545 1018.88 545H917V442.96C917 415.918 927.751 389.985 946.887 370.863C966.023 351.742 991.977 341 1019.04 341H1121Z" fill="url(#paint2_linear_84_982)"/>
<path d="M1018 438.638C1018 462.014 1008.58 478 989.259 478C969.937 478 961.081 460.488 961.001 439.12C960.92 417.753 970.259 400 989.822 400C1009.39 400 1018 418.315 1018 438.638ZM978.793 439.12C978.793 456.391 982.818 464.665 989.742 464.665C996.666 464.665 1000.29 456.07 1000.29 438.879C1000.29 421.689 996.665 413.335 989.581 413.335C982.496 413.335 978.632 421.93 978.793 439.442V439.12Z" fill="white"/>
<path d="M1024 477V466.321L1033.85 457.569C1050.39 442.796 1058.06 434.365 1058.63 425.453C1058.63 419.27 1054.91 414.453 1046.2 414.453C1040.27 414.734 1034.6 416.933 1030.05 420.715L1025.05 408.029C1032.24 402.8 1040.92 399.988 1049.83 400C1067.02 400 1076.47 410.037 1076.47 424.088C1076.47 438.139 1067.26 446.81 1056.29 456.204L1049.26 461.985H1078V476.438L1024 477Z" fill="white"/>
<path d="M1018 438.638C1018 462.014 1008.58 478 989.259 478C969.937 478 961.081 460.488 961.001 439.12C960.92 417.753 970.259 400 989.822 400C1009.39 400 1018 418.315 1018 438.638ZM978.793 439.12C978.793 456.391 982.818 464.665 989.742 464.665C996.666 464.665 1000.29 456.07 1000.29 438.879C1000.29 421.689 996.665 413.335 989.581 413.335C982.496 413.335 978.632 421.93 978.793 439.442V439.12Z" fill="white"/>
<path d="M1024 477V466.321L1033.85 457.569C1050.39 442.796 1058.06 434.365 1058.63 425.453C1058.63 419.27 1054.91 414.453 1046.2 414.453C1040.27 414.734 1034.6 416.933 1030.05 420.715L1025.05 408.029C1032.24 402.8 1040.92 399.988 1049.83 400C1067.02 400 1076.47 410.037 1076.47 424.088C1076.47 438.139 1067.26 446.81 1056.29 456.204L1049.26 461.985H1078V476.438L1024 477Z" fill="white"/>
<g filter="url(#filter3_d_84_982)">
<path d="M989.963 22C1006.55 22 1019.98 35.4538 1019.96 52.0366L1019.72 255.037C1019.7 271.591 1006.27 285 989.716 285H905.619H54C37.4315 285 24 271.569 24 255V52C24 35.4315 37.4315 22 54 22H989.963Z" fill="white"/>
</g>
<path d="M340.251 134.865L325.383 178H316.394L335.124 128.234H340.866L340.251 134.865ZM352.692 178L337.79 134.865L337.141 128.234H342.917L361.716 178H352.692ZM351.975 159.543V166.345H324.904V159.543H351.975ZM374.123 148.127V192.219H365.886V141.018H373.474L374.123 148.127ZM398.22 159.167V159.885C398.22 162.574 397.901 165.069 397.263 167.37C396.647 169.649 395.725 171.643 394.494 173.352C393.286 175.038 391.794 176.348 390.017 177.282C388.239 178.216 386.188 178.684 383.864 178.684C381.563 178.684 379.546 178.262 377.814 177.419C376.105 176.553 374.659 175.334 373.474 173.762C372.289 172.189 371.332 170.344 370.603 168.225C369.896 166.083 369.395 163.736 369.099 161.184V158.415C369.395 155.703 369.896 153.243 370.603 151.032C371.332 148.822 372.289 146.919 373.474 145.324C374.659 143.729 376.105 142.499 377.814 141.633C379.523 140.767 381.517 140.334 383.796 140.334C386.12 140.334 388.182 140.79 389.982 141.701C391.783 142.59 393.298 143.866 394.528 145.529C395.759 147.17 396.682 149.152 397.297 151.477C397.912 153.778 398.22 156.341 398.22 159.167ZM389.982 159.885V159.167C389.982 157.458 389.823 155.874 389.504 154.416C389.185 152.935 388.684 151.636 388 150.52C387.316 149.403 386.439 148.537 385.368 147.922C384.32 147.284 383.055 146.965 381.574 146.965C380.116 146.965 378.863 147.215 377.814 147.717C376.766 148.195 375.889 148.868 375.183 149.733C374.476 150.599 373.929 151.613 373.542 152.775C373.155 153.915 372.881 155.157 372.722 156.501V163.132C372.995 164.772 373.462 166.276 374.123 167.644C374.784 169.011 375.718 170.104 376.926 170.925C378.156 171.722 379.729 172.121 381.643 172.121C383.124 172.121 384.388 171.802 385.437 171.164C386.485 170.526 387.339 169.649 388 168.532C388.684 167.393 389.185 166.083 389.504 164.602C389.823 163.12 389.982 161.548 389.982 159.885ZM413.498 148.127V192.219H405.261V141.018H412.849L413.498 148.127ZM437.595 159.167V159.885C437.595 162.574 437.276 165.069 436.638 167.37C436.022 169.649 435.1 171.643 433.869 173.352C432.661 175.038 431.169 176.348 429.392 177.282C427.614 178.216 425.563 178.684 423.239 178.684C420.938 178.684 418.921 178.262 417.189 177.419C415.48 176.553 414.034 175.334 412.849 173.762C411.664 172.189 410.707 170.344 409.978 168.225C409.271 166.083 408.77 163.736 408.474 161.184V158.415C408.77 155.703 409.271 153.243 409.978 151.032C410.707 148.822 411.664 146.919 412.849 145.324C414.034 143.729 415.48 142.499 417.189 141.633C418.898 140.767 420.892 140.334 423.171 140.334C425.495 140.334 427.557 140.79 429.357 141.701C431.158 142.59 432.673 143.866 433.903 145.529C435.134 147.17 436.057 149.152 436.672 151.477C437.287 153.778 437.595 156.341 437.595 159.167ZM429.357 159.885V159.167C429.357 157.458 429.198 155.874 428.879 154.416C428.56 152.935 428.059 151.636 427.375 150.52C426.691 149.403 425.814 148.537 424.743 147.922C423.695 147.284 422.43 146.965 420.949 146.965C419.491 146.965 418.238 147.215 417.189 147.717C416.141 148.195 415.264 148.868 414.558 149.733C413.851 150.599 413.304 151.613 412.917 152.775C412.53 153.915 412.256 155.157 412.097 156.501V163.132C412.37 164.772 412.837 166.276 413.498 167.644C414.159 169.011 415.093 170.104 416.301 170.925C417.531 171.722 419.104 172.121 421.018 172.121C422.499 172.121 423.763 171.802 424.812 171.164C425.86 170.526 426.714 169.649 427.375 168.532C428.059 167.393 428.56 166.083 428.879 164.602C429.198 163.12 429.357 161.548 429.357 159.885ZM453.42 125.5V178H445.148V125.5H453.42ZM471.262 141.018V178H462.99V141.018H471.262ZM462.443 131.311C462.443 130.057 462.854 129.021 463.674 128.2C464.517 127.357 465.679 126.936 467.16 126.936C468.618 126.936 469.769 127.357 470.612 128.2C471.455 129.021 471.877 130.057 471.877 131.311C471.877 132.541 471.455 133.566 470.612 134.387C469.769 135.207 468.618 135.617 467.16 135.617C465.679 135.617 464.517 135.207 463.674 134.387C462.854 133.566 462.443 132.541 462.443 131.311ZM495.393 172.121C496.737 172.121 497.945 171.859 499.016 171.335C500.109 170.788 500.987 170.036 501.647 169.079C502.331 168.122 502.707 167.017 502.775 165.764H510.534C510.489 168.156 509.782 170.332 508.415 172.292C507.048 174.252 505.236 175.812 502.98 176.975C500.725 178.114 498.229 178.684 495.495 178.684C492.67 178.684 490.209 178.205 488.112 177.248C486.016 176.268 484.273 174.924 482.883 173.215C481.493 171.506 480.445 169.535 479.738 167.302C479.055 165.069 478.713 162.676 478.713 160.124V158.928C478.713 156.376 479.055 153.983 479.738 151.75C480.445 149.494 481.493 147.512 482.883 145.803C484.273 144.094 486.016 142.761 488.112 141.804C490.209 140.824 492.658 140.334 495.461 140.334C498.423 140.334 501.021 140.926 503.254 142.111C505.487 143.273 507.242 144.903 508.518 146.999C509.816 149.073 510.489 151.488 510.534 154.245H502.775C502.707 152.878 502.365 151.647 501.75 150.554C501.158 149.437 500.314 148.549 499.221 147.888C498.15 147.227 496.862 146.896 495.358 146.896C493.695 146.896 492.316 147.238 491.223 147.922C490.129 148.583 489.274 149.494 488.659 150.656C488.044 151.796 487.6 153.083 487.326 154.519C487.076 155.931 486.95 157.401 486.95 158.928V160.124C486.95 161.651 487.076 163.132 487.326 164.567C487.577 166.003 488.01 167.29 488.625 168.43C489.263 169.546 490.129 170.446 491.223 171.13C492.316 171.791 493.706 172.121 495.393 172.121ZM537.707 170.583V152.946C537.707 151.625 537.468 150.485 536.989 149.528C536.511 148.571 535.782 147.831 534.802 147.307C533.845 146.783 532.637 146.521 531.179 146.521C529.834 146.521 528.672 146.748 527.692 147.204C526.713 147.66 525.949 148.275 525.402 149.05C524.855 149.825 524.582 150.702 524.582 151.682H516.379C516.379 150.223 516.732 148.811 517.438 147.443C518.145 146.076 519.17 144.857 520.515 143.786C521.859 142.715 523.465 141.872 525.334 141.257C527.202 140.642 529.299 140.334 531.623 140.334C534.403 140.334 536.864 140.801 539.006 141.735C541.171 142.67 542.868 144.082 544.099 145.974C545.352 147.842 545.979 150.189 545.979 153.015V169.455C545.979 171.141 546.092 172.657 546.32 174.001C546.571 175.323 546.924 176.473 547.38 177.453V178H538.938C538.55 177.111 538.243 175.983 538.015 174.616C537.81 173.226 537.707 171.882 537.707 170.583ZM538.903 155.51L538.972 160.603H533.059C531.532 160.603 530.188 160.751 529.025 161.047C527.863 161.32 526.895 161.73 526.12 162.277C525.345 162.824 524.764 163.485 524.377 164.26C523.99 165.035 523.796 165.912 523.796 166.892C523.796 167.871 524.024 168.771 524.479 169.592C524.935 170.389 525.596 171.016 526.462 171.472C527.351 171.927 528.422 172.155 529.675 172.155C531.361 172.155 532.831 171.813 534.084 171.13C535.36 170.424 536.363 169.569 537.092 168.566C537.821 167.541 538.208 166.573 538.254 165.661L540.92 169.318C540.646 170.253 540.179 171.255 539.519 172.326C538.858 173.397 537.992 174.423 536.921 175.402C535.873 176.359 534.608 177.146 533.127 177.761C531.669 178.376 529.982 178.684 528.068 178.684C525.653 178.684 523.5 178.205 521.608 177.248C519.717 176.268 518.236 174.958 517.165 173.317C516.094 171.654 515.559 169.774 515.559 167.678C515.559 165.718 515.923 163.986 516.652 162.482C517.404 160.956 518.498 159.68 519.934 158.654C521.392 157.629 523.169 156.854 525.266 156.33C527.362 155.783 529.755 155.51 532.443 155.51H538.903ZM571.545 141.018V147.033H550.695V141.018H571.545ZM556.711 131.96H564.948V167.78C564.948 168.92 565.108 169.797 565.427 170.412C565.769 171.005 566.236 171.403 566.828 171.608C567.421 171.813 568.116 171.916 568.913 171.916C569.483 171.916 570.03 171.882 570.554 171.813C571.078 171.745 571.499 171.677 571.818 171.608L571.853 177.897C571.169 178.103 570.371 178.285 569.46 178.444C568.571 178.604 567.546 178.684 566.384 178.684C564.493 178.684 562.818 178.353 561.359 177.692C559.901 177.009 558.762 175.904 557.941 174.377C557.121 172.85 556.711 170.822 556.711 168.293V131.96ZM586.721 141.018V178H578.449V141.018H586.721ZM577.902 131.311C577.902 130.057 578.312 129.021 579.133 128.2C579.976 127.357 581.138 126.936 582.619 126.936C584.077 126.936 585.228 127.357 586.071 128.2C586.914 129.021 587.336 130.057 587.336 131.311C587.336 132.541 586.914 133.566 586.071 134.387C585.228 135.207 584.077 135.617 582.619 135.617C581.138 135.617 579.976 135.207 579.133 134.387C578.312 133.566 577.902 132.541 577.902 131.311ZM594.172 159.919V159.133C594.172 156.467 594.559 153.994 595.334 151.716C596.109 149.414 597.225 147.421 598.684 145.734C600.165 144.025 601.965 142.704 604.084 141.77C606.226 140.812 608.641 140.334 611.33 140.334C614.042 140.334 616.457 140.812 618.576 141.77C620.718 142.704 622.53 144.025 624.011 145.734C625.492 147.421 626.62 149.414 627.395 151.716C628.169 153.994 628.557 156.467 628.557 159.133V159.919C628.557 162.585 628.169 165.057 627.395 167.336C626.62 169.615 625.492 171.608 624.011 173.317C622.53 175.004 620.729 176.325 618.61 177.282C616.491 178.216 614.087 178.684 611.398 178.684C608.687 178.684 606.26 178.216 604.118 177.282C601.999 176.325 600.199 175.004 598.718 173.317C597.237 171.608 596.109 169.615 595.334 167.336C594.559 165.057 594.172 162.585 594.172 159.919ZM602.409 159.133V159.919C602.409 161.582 602.58 163.155 602.922 164.636C603.264 166.117 603.799 167.416 604.528 168.532C605.257 169.649 606.192 170.526 607.331 171.164C608.47 171.802 609.826 172.121 611.398 172.121C612.925 172.121 614.247 171.802 615.363 171.164C616.503 170.526 617.437 169.649 618.166 168.532C618.895 167.416 619.431 166.117 619.772 164.636C620.137 163.155 620.319 161.582 620.319 159.919V159.133C620.319 157.492 620.137 155.943 619.772 154.484C619.431 153.003 618.884 151.693 618.132 150.554C617.403 149.414 616.468 148.526 615.329 147.888C614.213 147.227 612.88 146.896 611.33 146.896C609.781 146.896 608.436 147.227 607.297 147.888C606.18 148.526 605.257 149.414 604.528 150.554C603.799 151.693 603.264 153.003 602.922 154.484C602.58 155.943 602.409 157.492 602.409 159.133ZM643.63 148.913V178H635.393V141.018H643.151L643.63 148.913ZM642.16 158.142L639.494 158.107C639.517 155.487 639.882 153.083 640.588 150.896C641.317 148.708 642.32 146.828 643.596 145.256C644.895 143.684 646.444 142.476 648.244 141.633C650.044 140.767 652.049 140.334 654.26 140.334C656.037 140.334 657.644 140.585 659.079 141.086C660.537 141.564 661.779 142.351 662.805 143.444C663.853 144.538 664.65 145.962 665.197 147.717C665.744 149.449 666.018 151.579 666.018 154.108V178H657.746V154.074C657.746 152.297 657.484 150.896 656.96 149.87C656.459 148.822 655.718 148.081 654.738 147.648C653.781 147.193 652.585 146.965 651.149 146.965C649.737 146.965 648.472 147.261 647.355 147.854C646.239 148.446 645.293 149.255 644.519 150.28C643.767 151.306 643.186 152.491 642.775 153.835C642.365 155.179 642.16 156.615 642.16 158.142Z" fill="#30486E"/>
<path d="M1121 52V154.04C1120.98 181.089 1110.21 207.023 1091.06 226.142C1071.91 245.26 1045.95 256 1018.88 256H917V154.04C917 127.019 927.726 101.101 946.825 81.9718C965.924 62.8425 991.837 52.0637 1018.88 52H1121Z" fill="url(#paint3_linear_84_982)"/>
<path d="M1018 149.638C1018 173.014 1008.58 189 989.259 189C969.937 189 961.081 171.488 961.001 150.12C960.92 128.753 970.259 111 989.822 111C1009.39 111 1018 128.994 1018 149.638ZM978.793 150.12C978.793 167.391 982.818 175.665 989.742 175.665C996.666 175.665 1000.29 167.07 1000.29 149.88C1000.29 132.689 996.665 124.335 989.581 124.335C982.496 124.335 978.632 132.609 978.793 150.281V150.12Z" fill="white"/>
<path d="M1046.46 127.783L1031.92 134.662L1029 121.308L1049.22 112H1064V188H1046.7V127.783H1046.46Z" fill="white"/>
<path d="M1018 149.638C1018 173.014 1008.58 189 989.259 189C969.937 189 961.081 171.488 961.001 150.12C960.92 128.753 970.259 111 989.822 111C1009.39 111 1018 128.994 1018 149.638ZM978.793 150.12C978.793 167.391 982.818 175.665 989.742 175.665C996.666 175.665 1000.29 167.07 1000.29 149.88C1000.29 132.689 996.665 124.335 989.581 124.335C982.496 124.335 978.632 132.609 978.793 150.281V150.12Z" fill="white"/>
<path d="M1046.46 127.783L1031.92 134.662L1029 121.308L1049.22 112H1064V188H1046.7V127.783H1046.46Z" fill="white"/>
<defs>
<filter id="filter0_d_84_982" x="14" y="886" width="1015.96" height="284" filterUnits="userSpaceOnUse" color-interpolation-filters="sRGB">
<feFlood flood-opacity="0" result="BackgroundImageFix"/>
<feColorMatrix in="SourceAlpha" type="matrix" values="0 0 0 0 0 0 0 0 0 0 0 0 0 0 0 0 0 0 127 0" result="hardAlpha"/>
<feOffset dy="5"/>
<feGaussianBlur stdDeviation="5"/>
<feComposite in2="hardAlpha" operator="out"/>
<feColorMatrix type="matrix" values="0 0 0 0 0 0 0 0 0 0 0 0 0 0 0 0 0 0 0.25 0"/>
<feBlend mode="normal" in2="BackgroundImageFix" result="effect1_dropShadow_84_982"/>
<feBlend mode="normal" in="SourceGraphic" in2="effect1_dropShadow_84_982" result="shape"/>
</filter>
<filter id="filter1_d_84_982" x="14" y="596" width="1015.96" height="284" filterUnits="userSpaceOnUse" color-interpolation-filters="sRGB">
<feFlood flood-opacity="0" result="BackgroundImageFix"/>
<feColorMatrix in="SourceAlpha" type="matrix" values="0 0 0 0 0 0 0 0 0 0 0 0 0 0 0 0 0 0 127 0" result="hardAlpha"/>
<feOffset dy="5"/>
<feGaussianBlur stdDeviation="5"/>
<feComposite in2="hardAlpha" operator="out"/>
<feColorMatrix type="matrix" values="0 0 0 0 0 0 0 0 0 0 0 0 0 0 0 0 0 0 0.25 0"/>
<feBlend mode="normal" in2="BackgroundImageFix" result="effect1_dropShadow_84_982"/>
<feBlend mode="normal" in="SourceGraphic" in2="effect1_dropShadow_84_982" result="shape"/>
</filter>
<filter id="filter2_d_84_982" x="14" y="307" width="1015.96" height="283" filterUnits="userSpaceOnUse" color-interpolation-filters="sRGB">
<feFlood flood-opacity="0" result="BackgroundImageFix"/>
<feColorMatrix in="SourceAlpha" type="matrix" values="0 0 0 0 0 0 0 0 0 0 0 0 0 0 0 0 0 0 127 0" result="hardAlpha"/>
<feOffset dy="5"/>
<feGaussianBlur stdDeviation="5"/>
<feComposite in2="hardAlpha" operator="out"/>
<feColorMatrix type="matrix" values="0 0 0 0 0 0 0 0 0 0 0 0 0 0 0 0 0 0 0.25 0"/>
<feBlend mode="normal" in2="BackgroundImageFix" result="effect1_dropShadow_84_982"/>
<feBlend mode="normal" in="SourceGraphic" in2="effect1_dropShadow_84_982" result="shape"/>
</filter>
<filter id="filter3_d_84_982" x="14" y="17" width="1015.96" height="283" filterUnits="userSpaceOnUse" color-interpolation-filters="sRGB">
<feFlood flood-opacity="0" result="BackgroundImageFix"/>
<feColorMatrix in="SourceAlpha" type="matrix" values="0 0 0 0 0 0 0 0 0 0 0 0 0 0 0 0 0 0 127 0" result="hardAlpha"/>
<feOffset dy="5"/>
<feGaussianBlur stdDeviation="5"/>
<feComposite in2="hardAlpha" operator="out"/>
<feColorMatrix type="matrix" values="0 0 0 0 0 0 0 0 0 0 0 0 0 0 0 0 0 0 0.25 0"/>
<feBlend mode="normal" in2="BackgroundImageFix" result="effect1_dropShadow_84_982"/>
<feBlend mode="normal" in="SourceGraphic" in2="effect1_dropShadow_84_982" result="shape"/>
</filter>
<linearGradient id="paint0_linear_84_982" x1="916.839" y1="1023.04" x2="1121" y2="1023.04" gradientUnits="userSpaceOnUse">
<stop stop-color="#673D89"/>
<stop offset="1" stop-color="#A379C5"/>
</linearGradient>
<linearGradient id="paint1_linear_84_982" x1="916.839" y1="733.639" x2="1121" y2="733.639" gradientUnits="userSpaceOnUse">
<stop stop-color="#B32079"/>
<stop offset="1" stop-color="#EF5CB5"/>
</linearGradient>
<linearGradient id="paint2_linear_84_982" x1="916.839" y1="442.96" x2="1121" y2="442.96" gradientUnits="userSpaceOnUse">
<stop stop-color="#738494"/>
<stop offset="1" stop-color="#AFC0D0"/>
</linearGradient>
<linearGradient id="paint3_linear_84_982" x1="916.839" y1="154.04" x2="1121" y2="154.04" gradientUnits="userSpaceOnUse">
<stop stop-color="#E19000"/>
<stop offset="1" stop-color="#FFCC1E"/>
</linearGradient>
</defs>
</svg>
