<svg width="312" height="158" viewBox="0 0 312 158" fill="none" xmlns="http://www.w3.org/2000/svg">
<path d="M21.9404 141.245L31.5627 147.574L35.6029 144.76C35.6029 144.76 53.0114 138.755 42.4626 129.046C38.3548 125.264 30.5199 127.638 30.6447 132.652C30.6458 132.722 30.6479 132.792 30.6521 132.864C30.6595 133.037 30.3602 133.088 30.2819 132.925L28.4279 129.036C28.1127 128.374 27.199 128.032 26.3624 128.264C25.5966 128.475 25.1387 129.106 25.2889 129.746L26.301 134.059C26.5274 135.024 26.2735 136.021 25.5956 136.839L21.9404 141.245Z" fill="#F4C999"/>
<path d="M20.0747 101.691C20.0747 101.691 30.2089 99.6254 46.7481 90.794C58.8441 84.3347 68.4696 76.4593 72.7689 72.6932C74.8334 70.8847 78.24 70.722 80.4208 72.4118C83.7862 75.0186 88.2599 81.4118 92.5941 97.3889C100.235 125.558 93.2445 130.591 90.4693 130.063C87.6952 129.535 69.5748 123.744 57.4777 122.847C45.3806 121.949 26.724 124.252 26.724 124.252L20.0747 101.691Z" fill="#E8EAE7"/>
<path d="M90.3255 98.7983C94.2736 113.813 94.2588 126.601 90.2916 127.362C86.3245 128.123 79.9079 116.568 75.9597 101.553C72.0116 86.539 72.0275 73.7508 75.9936 72.9898C79.9597 72.2296 86.3763 83.7839 90.3255 98.7983Z" fill="#F0F2F0"/>
<path d="M74.0076 92.7474C74.0076 92.7474 83.6161 89.75 85.871 100.272C88.1258 110.794 78.7796 110.852 78.7796 110.852C76.3026 105.418 74.6866 99.4008 74.0076 92.7474Z" fill="#69A8DB"/>
<path d="M10.1616 112.492L12.3308 122.946C12.61 124.289 14.0368 125.286 15.7364 125.325C16.8998 125.352 17.9722 125.832 18.6089 126.613L36.4997 148.515C37.7477 150.042 40.4415 150.248 42.0258 148.936L49.3626 142.866C50.7428 141.724 50.6899 139.902 49.2452 138.812C44.9576 135.578 36.9186 129.043 36.0217 124.892C35.4516 122.248 35.7488 121.007 36.2322 120.435C36.8667 119.683 37.1333 118.771 36.8086 117.901L34.4638 111.607C34.0249 110.429 32.6923 109.609 31.1587 109.575L13.7671 109.179C11.5334 109.128 9.79465 110.725 10.1616 112.492Z" fill="#69A8DB"/>
<path opacity="0.3" d="M18.665 126.68L21.987 130.747L36.632 126.472C36.632 126.472 35.8124 124.63 35.9773 124.114L18.665 126.68Z" fill="#3B81C3"/>
<path d="M2.53615 114.214L4.41238 119.99L5.85604 123.003C7.8338 127.135 13.1357 129.275 17.9204 127.872L42.763 122.88C36.6605 115.108 34.0788 106.409 33.6991 97.0406L8.34887 103.004C3.51128 104.703 0.545696 108.888 2.53615 114.214Z" fill="#69A8DB"/>
<path d="M30.2163 105.558C30.2692 105.699 25.6453 106.957 19.8907 108.366C14.134 109.776 9.42654 110.805 9.37472 110.664C9.32184 110.523 13.9447 109.265 19.7014 107.855C25.4559 106.445 30.1634 105.416 30.2163 105.558Z" fill="#353434"/>
<path d="M31.2942 108.565C31.3471 108.706 26.7231 109.964 20.9686 111.374C15.2119 112.784 10.5055 113.812 10.4526 113.671C10.3997 113.531 15.0226 112.273 20.7793 110.863C26.5338 109.453 31.2424 108.424 31.2942 108.565Z" fill="#353434"/>
<path d="M32.3728 111.573C32.4257 111.714 27.8017 112.971 22.0472 114.381C16.2905 115.791 11.5841 116.82 11.5312 116.679C11.4783 116.537 16.1012 115.28 21.8579 113.87C27.6114 112.46 32.3199 111.431 32.3728 111.573Z" fill="#353434"/>
<path d="M33.4507 114.58C33.5036 114.721 28.8796 115.979 23.1251 117.388C17.3695 118.798 12.662 119.827 12.6091 119.686C12.5573 119.544 17.1791 118.287 22.9357 116.877C28.6903 115.468 33.3978 114.439 33.4507 114.58Z" fill="#353434"/>
<path d="M49.165 138.897C49.165 138.897 46.633 140.902 43.4549 141.83C40.2756 142.757 39.4888 139.766 39.4888 139.766C42.3179 140.234 47.2951 135.841 47.2951 135.841C47.2951 135.841 50.2882 136.287 49.165 138.897Z" fill="#F4C999"/>
<path d="M46.3601 132.348C46.3601 132.348 48.7228 133.825 47.2961 135.84C47.2961 135.84 42.3189 140.233 39.4898 139.765C36.6638 139.298 38.4628 135.986 38.4628 135.986C41.1481 136.386 46.3601 132.348 46.3601 132.348Z" fill="#F4C999"/>
<path d="M46.3601 132.348C46.3601 132.348 41.1481 136.386 38.4628 135.986C35.7764 135.588 38.1244 131.886 38.1244 131.886C42.8995 130.986 44.7229 127.686 44.7229 127.686C44.7229 127.686 49.2294 129.497 46.3601 132.348Z" fill="#F4C999"/>
<path d="M44.7219 127.686C44.7219 127.686 42.8985 130.986 38.1233 131.886C33.3481 132.785 37.1091 126.908 37.1091 126.908C38.0503 126.058 38.8764 125.476 39.7944 125.193C41.6272 124.627 44.2523 125.21 44.7219 127.686Z" fill="#F4C999"/>
<path d="M33.8557 147.451L24.3297 137.237L0 154.027C7.90788 159.17 19.3683 158.755 26.6649 153.061L33.8557 147.451Z" fill="#353434"/>
<path d="M32.2281 147.216C32.3392 147.526 32.115 147.849 31.7279 147.938C31.3408 148.027 30.9368 147.847 30.8268 147.537C30.7157 147.227 30.9399 146.904 31.327 146.815C31.7141 146.727 32.1171 146.906 32.2281 147.216Z" fill="white"/>
<path d="M312 48.7076C312 75.4889 265.493 97.0398 208.816 97.0398C186.29 97.0398 165.214 93.5423 148.502 87.7143C125.249 92.9601 93.2773 97.0398 93.2773 97.0398C109.265 91.794 117.985 81.8999 121.618 74.3237C111.443 66.761 105.629 58.0186 105.629 48.7076C105.629 21.9262 151.41 0.375366 208.817 0.375366C265.493 0.375366 312 21.9271 312 48.7076Z" fill="#FFA229"/>
<path d="M164.325 56V40.6H170.661C172.025 40.6 173.191 40.82 174.159 41.26C175.142 41.7 175.897 42.3307 176.425 43.152C176.953 43.9733 177.217 44.9487 177.217 46.078C177.217 47.2073 176.953 48.1827 176.425 49.004C175.897 49.8107 175.142 50.434 174.159 50.874C173.191 51.2993 172.025 51.512 170.661 51.512H165.909L167.185 50.214V56H164.325ZM174.401 56L170.507 50.412H173.565L177.481 56H174.401ZM167.185 50.522L165.909 49.158H170.529C171.791 49.158 172.737 48.8867 173.367 48.344C174.013 47.8013 174.335 47.046 174.335 46.078C174.335 45.0953 174.013 44.34 173.367 43.812C172.737 43.284 171.791 43.02 170.529 43.02H165.909L167.185 41.612V50.522ZM185.675 56.154C184.37 56.154 183.226 55.8973 182.243 55.384C181.275 54.856 180.52 54.1373 179.977 53.228C179.449 52.3187 179.185 51.2847 179.185 50.126C179.185 48.9527 179.442 47.9187 179.955 47.024C180.483 46.1147 181.202 45.4033 182.111 44.89C183.035 44.3767 184.084 44.12 185.257 44.12C186.401 44.12 187.42 44.3693 188.315 44.868C189.21 45.3667 189.914 46.0707 190.427 46.98C190.94 47.8893 191.197 48.96 191.197 50.192C191.197 50.3093 191.19 50.4413 191.175 50.588C191.175 50.7347 191.168 50.874 191.153 51.006H181.363V49.18H189.701L188.623 49.752C188.638 49.0773 188.498 48.4833 188.205 47.97C187.912 47.4567 187.508 47.0533 186.995 46.76C186.496 46.4667 185.917 46.32 185.257 46.32C184.582 46.32 183.988 46.4667 183.475 46.76C182.976 47.0533 182.58 47.464 182.287 47.992C182.008 48.5053 181.869 49.114 181.869 49.818V50.258C181.869 50.962 182.03 51.5853 182.353 52.128C182.676 52.6707 183.13 53.0887 183.717 53.382C184.304 53.6753 184.978 53.822 185.741 53.822C186.401 53.822 186.995 53.7193 187.523 53.514C188.051 53.3087 188.52 52.986 188.931 52.546L190.405 54.24C189.877 54.856 189.21 55.3327 188.403 55.67C187.611 55.9927 186.702 56.154 185.675 56.154ZM196.748 56L191.71 44.252H194.57L198.904 54.614H197.496L201.984 44.252H204.624L199.586 56H196.748ZM206.343 56V44.252H209.093V56H206.343ZM207.729 42.316C207.215 42.316 206.79 42.1547 206.453 41.832C206.13 41.5093 205.969 41.1207 205.969 40.666C205.969 40.1967 206.13 39.808 206.453 39.5C206.79 39.1773 207.215 39.016 207.729 39.016C208.242 39.016 208.66 39.17 208.983 39.478C209.32 39.7713 209.489 40.1453 209.489 40.6C209.489 41.084 209.327 41.4947 209.005 41.832C208.682 42.1547 208.257 42.316 207.729 42.316ZM218.224 56.154C216.919 56.154 215.775 55.8973 214.792 55.384C213.824 54.856 213.069 54.1373 212.526 53.228C211.998 52.3187 211.734 51.2847 211.734 50.126C211.734 48.9527 211.991 47.9187 212.504 47.024C213.032 46.1147 213.751 45.4033 214.66 44.89C215.584 44.3767 216.633 44.12 217.806 44.12C218.95 44.12 219.969 44.3693 220.864 44.868C221.759 45.3667 222.463 46.0707 222.976 46.98C223.489 47.8893 223.746 48.96 223.746 50.192C223.746 50.3093 223.739 50.4413 223.724 50.588C223.724 50.7347 223.717 50.874 223.702 51.006H213.912V49.18H222.25L221.172 49.752C221.187 49.0773 221.047 48.4833 220.754 47.97C220.461 47.4567 220.057 47.0533 219.544 46.76C219.045 46.4667 218.466 46.32 217.806 46.32C217.131 46.32 216.537 46.4667 216.024 46.76C215.525 47.0533 215.129 47.464 214.836 47.992C214.557 48.5053 214.418 49.114 214.418 49.818V50.258C214.418 50.962 214.579 51.5853 214.902 52.128C215.225 52.6707 215.679 53.0887 216.266 53.382C216.853 53.6753 217.527 53.822 218.29 53.822C218.95 53.822 219.544 53.7193 220.072 53.514C220.6 53.3087 221.069 52.986 221.48 52.546L222.954 54.24C222.426 54.856 221.759 55.3327 220.952 55.67C220.16 55.9927 219.251 56.154 218.224 56.154ZM228.769 56L224.457 44.252H227.053L230.749 54.614H229.517L233.389 44.252H235.699L239.461 54.614H238.251L242.057 44.252H244.499L240.165 56H237.525L234.093 46.826H234.907L231.409 56H228.769ZM249.869 56.154C248.886 56.154 247.94 56.0293 247.031 55.78C246.136 55.516 245.425 55.2007 244.897 54.834L245.953 52.744C246.481 53.0813 247.112 53.36 247.845 53.58C248.578 53.8 249.312 53.91 250.045 53.91C250.91 53.91 251.534 53.7927 251.915 53.558C252.311 53.3233 252.509 53.008 252.509 52.612C252.509 52.2893 252.377 52.0473 252.113 51.886C251.849 51.71 251.504 51.578 251.079 51.49C250.654 51.402 250.177 51.3213 249.649 51.248C249.136 51.1747 248.615 51.0793 248.087 50.962C247.574 50.83 247.104 50.6467 246.679 50.412C246.254 50.1627 245.909 49.8327 245.645 49.422C245.381 49.0113 245.249 48.4687 245.249 47.794C245.249 47.046 245.462 46.4007 245.887 45.858C246.312 45.3007 246.906 44.8753 247.669 44.582C248.446 44.274 249.363 44.12 250.419 44.12C251.211 44.12 252.01 44.208 252.817 44.384C253.624 44.56 254.291 44.8093 254.819 45.132L253.763 47.222C253.206 46.8847 252.641 46.6573 252.069 46.54C251.512 46.408 250.954 46.342 250.397 46.342C249.561 46.342 248.938 46.4667 248.527 46.716C248.131 46.9653 247.933 47.2807 247.933 47.662C247.933 48.014 248.065 48.278 248.329 48.454C248.593 48.63 248.938 48.7693 249.363 48.872C249.788 48.9747 250.258 49.0627 250.771 49.136C251.299 49.1947 251.82 49.29 252.333 49.422C252.846 49.554 253.316 49.7373 253.741 49.972C254.181 50.192 254.533 50.5073 254.797 50.918C255.061 51.3287 255.193 51.864 255.193 52.524C255.193 53.2573 254.973 53.8953 254.533 54.438C254.108 54.9807 253.499 55.406 252.707 55.714C251.915 56.0073 250.969 56.154 249.869 56.154Z" fill="white"/>
</svg>
