<svg width="1080" height="1080" viewBox="0 0 1080 1080" fill="none" xmlns="http://www.w3.org/2000/svg">
<g clip-path="url(#clip0_365_5106)">
<rect width="1080" height="1080" transform="translate(1080 1080) rotate(180)" fill="white"/>
<path d="M779.571 863.511C779.571 863.511 830.874 897.68 861.961 869.772C893.049 841.864 860.141 821.066 889.263 787.406C918.385 753.746 961.873 756.707 968.45 713.68C975.026 670.652 933.334 681.646 969.372 636.993C1005.41 592.339 987.694 463.743 936.561 476.314C885.429 488.885 904.673 607.361 891.763 622.213C878.852 637.065 846.43 626.339 842.28 657.887C838.13 689.436 857.69 728.483 834.077 748.238C810.465 767.992 765.18 813.203 779.571 863.511Z" fill="#1C4670"/>
<path d="M743.195 887.253C743.195 887.253 907.903 791.685 957.968 556.867" stroke="white" stroke-width="2" stroke-miterlimit="10"/>
<path d="M759.719 927.418C759.719 927.418 761.563 964.111 785.977 969.086C810.391 974.061 808.643 950.909 835.095 952.875C861.548 954.841 875.599 976.731 898.508 964.597C921.417 952.463 901.396 936.421 935.565 937.902C969.735 939.382 1024.92 885.094 1000.82 865.098C976.724 845.101 926.707 896.428 915.059 895.481C903.41 894.535 897.003 875.242 880.477 884.439C863.95 893.637 852.132 916.886 834.367 912.59C816.603 908.295 778.696 902.64 759.719 927.418Z" fill="#FFA229"/>
<path d="M749.648 921.38C749.648 921.38 847.036 953.753 977.768 885.172" stroke="white" stroke-width="2" stroke-miterlimit="10"/>
<path d="M771.977 920.87C771.977 920.87 803.04 959.092 833.399 945.138C863.758 931.184 843.543 907.523 873.733 888.691C903.922 869.859 936.441 882.454 951.633 851.172C966.825 819.891 932.413 818.386 970.514 792.929C1008.61 767.472 1025.38 665.036 983.473 662.488C941.562 659.94 928.093 754.973 914.746 763.225C901.398 771.476 879.169 755.604 868.636 778.659C858.104 801.714 863.783 836.199 840.971 845.688C818.159 855.176 772.899 879.008 771.977 920.87Z" fill="#FFBB6A"/>
<path d="M754.086 922.078C754.086 922.078 887.342 880.215 974.44 702.5" stroke="white" stroke-width="2" stroke-miterlimit="10"/>
<path d="M846.936 909.521C859.434 882.365 894.016 864.285 918.842 857.952C943.668 851.618 941.29 838.294 943.304 812.522C945.27 787.404 1001.55 736.466 1004.39 733.82C998.611 758.331 986.453 782.356 970.63 792.865C932.529 818.419 966.966 819.899 951.75 851.108C936.534 882.317 904.039 869.819 873.849 888.651C843.66 907.483 863.875 931.12 833.516 945.074C816.528 952.888 799.249 944.297 787.406 935.245C787.406 935.245 834.341 936.653 846.936 909.521Z" fill="#FFA229"/>
<path d="M430.67 863.517C430.67 863.517 379.391 897.686 348.279 869.778C317.168 841.869 350.1 821.072 321.002 787.412C291.905 753.752 248.392 756.713 241.815 713.71C235.239 670.707 276.907 681.676 240.869 637.023C204.831 592.369 222.668 463.846 273.704 476.344C324.739 488.842 305.568 607.391 318.478 622.243C331.389 637.095 363.835 626.345 367.961 657.893C372.086 689.442 352.551 728.489 376.188 748.243C399.825 767.997 445.085 813.209 430.67 863.517Z" fill="#1C4670"/>
<path d="M467.075 887.253C467.075 887.253 302.367 791.685 252.375 556.867" stroke="white" stroke-width="2" stroke-miterlimit="10"/>
<path d="M450.544 927.418C450.544 927.418 448.675 964.111 424.261 969.086C399.848 974.061 401.595 950.909 375.143 952.875C348.69 954.841 334.664 976.731 311.73 964.597C288.797 952.463 308.867 936.421 274.697 937.902C240.528 939.382 185.342 885.094 209.44 865.098C233.538 845.101 283.531 896.428 295.179 895.481C306.828 894.535 313.259 875.242 329.786 884.439C346.312 893.637 358.106 916.886 375.895 912.59C393.683 908.295 431.542 902.64 450.544 927.418Z" fill="#FFA229"/>
<path d="M460.589 921.38C460.589 921.38 363.201 953.753 232.469 885.172" stroke="white" stroke-width="2" stroke-miterlimit="10"/>
<path d="M438.27 920.87C438.27 920.87 407.207 959.092 376.848 945.138C346.488 931.184 366.728 907.523 336.538 888.691C306.349 869.859 273.83 882.454 258.614 851.172C243.398 819.891 277.834 818.386 239.757 792.929C201.681 767.472 184.863 665.036 226.774 662.488C268.685 659.94 282.154 754.973 295.501 763.225C308.849 771.476 331.102 755.604 341.61 778.659C352.119 801.714 346.464 836.199 369.276 845.688C392.088 855.176 437.348 879.008 438.27 920.87Z" fill="#FFBB6A"/>
<path d="M456.221 922.078C456.221 922.078 322.99 880.215 235.867 702.5" stroke="white" stroke-width="2" stroke-miterlimit="10"/>
<path d="M363.419 909.521C350.945 882.365 316.363 864.285 291.537 857.952C266.711 851.618 269.065 838.294 267.051 812.522C265.085 787.404 208.807 736.466 205.992 733.82C211.768 758.331 223.902 782.356 239.749 792.865C277.826 818.419 243.414 819.899 258.605 851.108C273.797 882.317 306.316 869.819 336.53 888.651C366.744 907.483 346.504 931.12 376.839 945.074C393.827 952.888 411.106 944.297 422.949 935.245C422.949 935.245 375.893 936.653 363.419 909.521Z" fill="#FFA229"/>
<g style="mix-blend-mode:multiply">
<path d="M602.631 1009.71C784.522 1009.71 931.973 1000.7 931.973 989.572C931.973 978.448 784.522 969.43 602.631 969.43C420.741 969.43 273.289 978.448 273.289 989.572C273.289 1000.7 420.741 1009.71 602.631 1009.71Z" fill="#E2E2E2"/>
</g>
<path d="M905.185 58.2578H301.687C293.002 58.2578 285.961 65.2985 285.961 73.9835V971.854C285.961 980.539 293.002 987.58 301.687 987.58H905.185C913.87 987.58 920.911 980.539 920.911 971.854V73.9835C920.911 65.2985 913.87 58.2578 905.185 58.2578Z" fill="#1C4670"/>
<path d="M885.523 90.6406H316V987.419H885.523V90.6406Z" fill="#FCFCFC"/>
<path d="M810.928 442.602H474.062V456.823H810.928V442.602Z" fill="#D9D9D9"/>
<path d="M810.928 498.797H474.062V513.018H810.928V498.797Z" fill="#D9D9D9"/>
<path d="M810.928 555.008H474.062V569.229H810.928V555.008Z" fill="#D9D9D9"/>
<path d="M810.928 611.227H474.062V625.448H810.928V611.227Z" fill="#D9D9D9"/>
<path d="M810.928 667.438H474.062V681.659H810.928V667.438Z" fill="#D9D9D9"/>
<path d="M810.928 723.633H474.062V737.854H810.928V723.633Z" fill="#D9D9D9"/>
<path d="M810.924 787.094H551.328V801.315H810.924V787.094Z" fill="#D9D9D9"/>
<path d="M810.924 843.328H551.328V857.549H810.924V843.328Z" fill="#D9D9D9"/>
<path d="M810.924 897.305H551.328V911.526H810.924V897.305Z" fill="#D9D9D9"/>
<path d="M440.351 441.484H376.672C374.528 441.484 372.789 443.223 372.789 445.367V509.047C372.789 511.191 374.528 512.93 376.672 512.93H440.351C442.496 512.93 444.234 511.191 444.234 509.047V445.367C444.234 443.223 442.496 441.484 440.351 441.484Z" fill="#D9D9D9"/>
<path d="M386.328 475.403L404.189 491.323L430.69 463.852" stroke="#28478F" stroke-width="3" stroke-miterlimit="10"/>
<path d="M440.351 553.93H376.672C374.528 553.93 372.789 555.668 372.789 557.813V621.492C372.789 623.636 374.528 625.375 376.672 625.375H440.351C442.496 625.375 444.234 623.636 444.234 621.492V557.813C444.234 555.668 442.496 553.93 440.351 553.93Z" fill="#D9D9D9"/>
<path d="M386.328 587.856L404.189 603.776L430.69 576.305" stroke="#FCFCFC" stroke-width="3" stroke-miterlimit="10"/>
<path d="M376.673 666.399H440.328C440.838 666.399 441.343 666.499 441.814 666.694C442.285 666.889 442.713 667.175 443.074 667.536C443.434 667.896 443.72 668.324 443.915 668.795C444.11 669.267 444.211 669.772 444.211 670.281V733.937C444.211 734.966 443.802 735.954 443.074 736.682C442.345 737.41 441.358 737.819 440.328 737.819H376.673C375.637 737.819 374.643 737.408 373.91 736.675C373.177 735.942 372.766 734.949 372.766 733.912V670.306C372.762 669.792 372.861 669.282 373.057 668.807C373.252 668.331 373.539 667.899 373.903 667.536C374.266 667.172 374.698 666.885 375.174 666.689C375.649 666.494 376.159 666.395 376.673 666.399Z" fill="#D9D9D9"/>
<path d="M386.328 700.317L404.189 716.237L430.69 688.766" stroke="#FCFCFC" stroke-width="3" stroke-miterlimit="10"/>
<path d="M408.363 966.422L394.094 945.624L369.219 949.677L406.64 862.094L445.809 878.839L408.363 966.422Z" fill="#FFDA78"/>
<path d="M384.344 914.24C384.895 915.268 385.617 916.196 386.479 916.982C390.799 920.768 398.613 919.53 404.074 921.836C409.534 924.141 414.072 930.669 419.799 931.179C421.087 931.267 422.38 931.111 423.609 930.718L445.815 878.784L406.646 862.039L384.344 914.24Z" fill="#E0AB67"/>
<path d="M456.391 966.422L470.661 945.624L495.535 949.677L458.114 862.094L418.945 878.839L456.391 966.422Z" fill="#FFDA78"/>
<path d="M480.489 914.249C479.946 915.283 479.223 916.212 478.354 916.991C474.034 920.777 466.22 919.54 460.759 921.845C455.299 924.151 450.761 930.679 445.058 931.188C443.77 931.277 442.477 931.12 441.248 930.727L418.945 878.745L458.09 862L480.489 914.249Z" fill="#E0AB67"/>
<path d="M506.262 856.367C506.262 863.647 498.981 869.763 496.749 876.363C494.516 882.964 496.749 892.453 492.696 898.205C488.643 903.956 478.984 904.563 473.281 908.761C467.578 912.96 464.084 921.793 457.216 924.026C450.348 926.259 442.655 921.09 435.375 921.09C428.094 921.09 420.013 926.162 413.412 924.026C406.811 921.89 403.074 912.911 397.371 908.761C391.668 904.612 382.082 903.908 377.956 898.205C373.831 892.502 376.161 883.256 373.928 876.363C371.695 869.471 364.391 863.696 364.391 856.367C364.391 849.038 371.792 842.995 373.928 836.394C376.064 829.793 373.807 820.304 377.956 814.553C382.106 808.801 391.692 808.194 397.371 803.996C403.05 799.798 406.569 790.964 413.412 788.731C420.256 786.499 427.973 791.668 435.375 791.668C442.777 791.668 450.736 786.596 457.216 788.731C463.696 790.867 467.578 799.846 473.281 803.996C478.984 808.146 488.57 808.85 492.696 814.553C496.822 820.256 494.516 829.502 496.749 836.394C498.981 843.286 506.262 849.062 506.262 856.367Z" fill="#FFA229"/>
<path d="M474.862 884.544C489.336 860.907 481.907 830.011 458.269 815.537C434.632 801.063 403.736 808.492 389.262 832.13C374.788 855.767 382.217 886.663 405.855 901.137C429.493 915.611 460.388 908.182 474.862 884.544Z" fill="#E0AB67"/>
<path d="M435.233 906.576C462.95 906.576 485.42 884.107 485.42 856.389C485.42 828.672 462.95 806.203 435.233 806.203C407.516 806.203 385.047 828.672 385.047 856.389C385.047 884.107 407.516 906.576 435.233 906.576Z" fill="#FFDA78"/>
<path d="M481.057 863.952C486.76 839.697 471.72 815.412 447.465 809.71C423.211 804.007 398.926 819.047 393.223 843.302C387.521 867.556 402.561 891.841 426.815 897.544C451.07 903.246 475.355 888.206 481.057 863.952Z" fill="#FFE68A"/>
<path d="M454.964 842.982C454.964 844.73 454.445 846.439 453.474 847.892C452.502 849.345 451.121 850.478 449.505 851.146C447.89 851.813 446.112 851.987 444.398 851.644C442.684 851.301 441.11 850.457 439.876 849.22C438.641 847.982 437.802 846.406 437.464 844.69C437.126 842.975 437.304 841.198 437.976 839.585C438.649 837.971 439.785 836.593 441.24 835.625C442.696 834.658 444.407 834.144 446.155 834.148C447.314 834.148 448.461 834.377 449.532 834.821C450.602 835.266 451.574 835.917 452.392 836.737C453.211 837.558 453.859 838.532 454.3 839.603C454.742 840.675 454.967 841.823 454.964 842.982Z" fill="#FFFFA6"/>
<path d="M431.958 791.71C432.516 791.71 433.074 791.71 433.632 791.71C427.517 791.127 421.037 787.778 415.383 788.458C420.625 788.943 426.425 791.71 431.958 791.71Z" fill="#FFDA78"/>
<path d="M431.958 921.039C426.522 921.039 420.722 923.83 415.383 924.388C421.037 925.068 427.517 921.719 433.632 921.136C432.977 921.088 432.419 921.039 431.958 921.039Z" fill="#FFDA78"/>
<path d="M496.748 836.395C494.516 829.552 496.748 820.305 492.696 814.554C488.643 808.802 478.984 808.196 473.281 803.997C467.578 799.799 464.084 790.965 457.216 788.733C455.471 788.204 453.633 788.063 451.828 788.32C452.521 788.383 453.204 788.521 453.867 788.733C460.71 790.965 464.205 799.848 469.908 803.997C475.611 808.147 485.197 808.851 489.322 814.554C493.448 820.257 491.118 829.503 493.351 836.395C495.583 843.287 502.888 849.063 502.888 856.368C502.888 863.673 495.486 869.764 493.351 876.365C491.215 882.966 493.472 892.454 489.322 898.206C485.172 903.958 475.587 904.564 469.908 908.763C464.229 912.961 460.71 921.795 453.867 924.027C453.204 924.239 452.521 924.377 451.828 924.44C453.633 924.697 455.471 924.556 457.216 924.027C464.084 921.795 467.578 912.912 473.281 908.763C478.984 904.613 488.57 903.909 492.696 898.206C496.821 892.503 494.516 883.257 496.748 876.365C498.981 869.473 506.261 863.697 506.261 856.368C506.261 849.039 498.884 842.996 496.748 836.395Z" fill="#FFDA78"/>
<path d="M417.534 194.112H422.637C422.501 195.918 422 197.52 421.134 198.918C420.268 200.303 419.062 201.392 417.516 202.184C415.969 202.975 414.095 203.371 411.894 203.371C410.199 203.371 408.671 203.074 407.311 202.48C405.962 201.874 404.806 201.015 403.841 199.901C402.888 198.776 402.159 197.427 401.651 195.856C401.144 194.273 400.891 192.498 400.891 190.531V188.472C400.891 186.505 401.15 184.73 401.67 183.146C402.189 181.563 402.932 180.215 403.896 179.102C404.874 177.976 406.043 177.11 407.403 176.504C408.776 175.898 410.31 175.595 412.005 175.595C414.207 175.595 416.068 176.003 417.59 176.819C419.111 177.623 420.293 178.73 421.134 180.141C421.975 181.551 422.482 183.171 422.655 185.002H417.553C417.454 183.864 417.206 182.899 416.811 182.107C416.427 181.316 415.846 180.716 415.066 180.308C414.299 179.887 413.279 179.677 412.005 179.677C411.015 179.677 410.143 179.862 409.389 180.233C408.646 180.604 408.028 181.161 407.533 181.903C407.038 182.633 406.667 183.549 406.42 184.649C406.173 185.738 406.049 187 406.049 188.435V190.531C406.049 191.904 406.16 193.135 406.383 194.224C406.605 195.312 406.952 196.234 407.422 196.988C407.892 197.743 408.498 198.318 409.24 198.714C409.982 199.11 410.867 199.308 411.894 199.308C413.143 199.308 414.157 199.11 414.937 198.714C415.728 198.318 416.328 197.737 416.736 196.97C417.157 196.203 417.423 195.25 417.534 194.112ZM425.346 193.166V192.776C425.346 191.304 425.556 189.95 425.977 188.713C426.397 187.464 427.009 186.381 427.813 185.466C428.618 184.55 429.601 183.839 430.764 183.332C431.926 182.812 433.25 182.553 434.734 182.553C436.243 182.553 437.579 182.812 438.742 183.332C439.917 183.839 440.907 184.55 441.711 185.466C442.515 186.381 443.127 187.464 443.548 188.713C443.968 189.95 444.179 191.304 444.179 192.776V193.166C444.179 194.626 443.968 195.98 443.548 197.229C443.127 198.466 442.515 199.549 441.711 200.477C440.907 201.392 439.924 202.103 438.761 202.61C437.598 203.118 436.268 203.371 434.771 203.371C433.287 203.371 431.957 203.118 430.782 202.61C429.607 202.103 428.618 201.392 427.813 200.477C427.009 199.549 426.397 198.466 425.977 197.229C425.556 195.98 425.346 194.626 425.346 193.166ZM430.244 192.776V193.166C430.244 194.044 430.331 194.867 430.504 195.634C430.677 196.401 430.943 197.075 431.302 197.656C431.66 198.238 432.124 198.695 432.693 199.029C433.275 199.351 433.967 199.512 434.771 199.512C435.563 199.512 436.243 199.351 436.812 199.029C437.382 198.695 437.845 198.238 438.204 197.656C438.575 197.075 438.847 196.401 439.021 195.634C439.194 194.867 439.28 194.044 439.28 193.166V192.776C439.28 191.91 439.194 191.1 439.021 190.346C438.847 189.579 438.575 188.905 438.204 188.323C437.845 187.729 437.375 187.266 436.794 186.932C436.225 186.585 435.538 186.412 434.734 186.412C433.943 186.412 433.262 186.585 432.693 186.932C432.124 187.266 431.66 187.729 431.302 188.323C430.943 188.905 430.677 189.579 430.504 190.346C430.331 191.1 430.244 191.91 430.244 192.776ZM452.621 187.043V203H447.723V182.924H452.343L452.621 187.043ZM451.897 192.238H450.395C450.395 190.84 450.562 189.554 450.896 188.379C451.242 187.204 451.749 186.183 452.417 185.317C453.085 184.439 453.908 183.759 454.885 183.276C455.874 182.794 457.019 182.553 458.317 182.553C459.22 182.553 460.049 182.689 460.804 182.961C461.558 183.221 462.208 183.635 462.752 184.204C463.309 184.761 463.735 185.491 464.032 186.394C464.329 187.284 464.478 188.354 464.478 189.604V203H459.579V190.104C459.579 189.164 459.443 188.428 459.171 187.896C458.911 187.365 458.534 186.993 458.039 186.783C457.544 186.561 456.951 186.449 456.258 186.449C455.491 186.449 454.829 186.604 454.272 186.913C453.728 187.21 453.277 187.624 452.918 188.156C452.572 188.688 452.312 189.3 452.139 189.993C451.978 190.686 451.897 191.434 451.897 192.238ZM464.106 191.329L462.084 191.7C462.096 190.438 462.27 189.257 462.604 188.156C462.938 187.043 463.426 186.072 464.069 185.243C464.725 184.402 465.535 183.746 466.5 183.276C467.477 182.794 468.603 182.553 469.877 182.553C470.867 182.553 471.757 182.695 472.549 182.979C473.353 183.252 474.039 183.691 474.608 184.297C475.177 184.891 475.61 185.664 475.907 186.616C476.216 187.569 476.371 188.731 476.371 190.104V203H471.436V190.086C471.436 189.109 471.299 188.36 471.027 187.841C470.768 187.321 470.39 186.963 469.896 186.765C469.401 186.554 468.819 186.449 468.151 186.449C467.471 186.449 466.877 186.579 466.37 186.839C465.875 187.086 465.455 187.433 465.108 187.878C464.774 188.323 464.521 188.843 464.348 189.437C464.187 190.018 464.106 190.649 464.106 191.329ZM485.667 186.783V210.719H480.75V182.924H485.296L485.667 186.783ZM498.562 192.758V193.147C498.562 194.607 498.389 195.962 498.043 197.211C497.709 198.448 497.214 199.53 496.559 200.458C495.903 201.373 495.087 202.091 494.109 202.61C493.145 203.118 492.031 203.371 490.77 203.371C489.533 203.371 488.456 203.136 487.541 202.666C486.626 202.184 485.853 201.503 485.222 200.625C484.591 199.747 484.084 198.726 483.7 197.563C483.329 196.388 483.051 195.108 482.865 193.723V192.479C483.051 191.007 483.329 189.672 483.7 188.472C484.084 187.259 484.591 186.214 485.222 185.336C485.853 184.445 486.619 183.759 487.522 183.276C488.438 182.794 489.508 182.553 490.732 182.553C492.007 182.553 493.126 182.794 494.091 183.276C495.068 183.759 495.891 184.451 496.559 185.354C497.227 186.257 497.728 187.334 498.062 188.583C498.396 189.832 498.562 191.224 498.562 192.758ZM493.646 193.147V192.758C493.646 191.867 493.565 191.045 493.404 190.29C493.243 189.523 492.996 188.855 492.662 188.286C492.328 187.705 491.895 187.253 491.363 186.932C490.831 186.61 490.188 186.449 489.434 186.449C488.679 186.449 488.03 186.573 487.485 186.82C486.941 187.068 486.496 187.42 486.149 187.878C485.803 188.336 485.531 188.88 485.333 189.511C485.147 190.129 485.024 190.816 484.962 191.57V194.65C485.073 195.566 485.29 196.388 485.611 197.118C485.933 197.848 486.403 198.429 487.021 198.862C487.652 199.295 488.469 199.512 489.471 199.512C490.225 199.512 490.868 199.345 491.4 199.011C491.932 198.677 492.365 198.219 492.699 197.638C493.033 197.044 493.274 196.364 493.423 195.597C493.571 194.83 493.646 194.013 493.646 193.147ZM513.202 198.732V189.474C513.202 188.793 513.085 188.206 512.85 187.711C512.615 187.216 512.256 186.833 511.773 186.561C511.291 186.288 510.679 186.152 509.937 186.152C509.281 186.152 508.706 186.264 508.211 186.486C507.729 186.709 507.357 187.024 507.098 187.433C506.838 187.828 506.708 188.286 506.708 188.806H501.791C501.791 187.977 501.989 187.191 502.385 186.449C502.781 185.695 503.343 185.027 504.073 184.445C504.815 183.852 505.7 183.388 506.727 183.054C507.766 182.72 508.928 182.553 510.215 182.553C511.736 182.553 513.091 182.812 514.278 183.332C515.478 183.839 516.418 184.606 517.099 185.633C517.791 186.66 518.138 187.952 518.138 189.511V198.269C518.138 199.271 518.2 200.13 518.323 200.848C518.459 201.553 518.657 202.165 518.917 202.685V203H513.926C513.691 202.493 513.511 201.85 513.388 201.07C513.264 200.279 513.202 199.499 513.202 198.732ZM513.889 190.772L513.926 193.686H510.827C510.06 193.686 509.386 193.766 508.805 193.927C508.223 194.075 507.747 194.298 507.376 194.595C507.005 194.879 506.727 195.226 506.541 195.634C506.355 196.03 506.263 196.481 506.263 196.988C506.263 197.483 506.374 197.928 506.597 198.324C506.832 198.72 507.166 199.035 507.599 199.271C508.044 199.493 508.563 199.604 509.157 199.604C510.023 199.604 510.778 199.431 511.421 199.085C512.064 198.726 512.565 198.293 512.924 197.786C513.283 197.279 513.474 196.797 513.499 196.339L514.909 198.454C514.736 198.961 514.476 199.499 514.13 200.068C513.784 200.637 513.338 201.169 512.794 201.664C512.25 202.159 511.594 202.567 510.827 202.889C510.06 203.21 509.17 203.371 508.155 203.371C506.856 203.371 505.694 203.111 504.667 202.592C503.64 202.072 502.83 201.361 502.236 200.458C501.643 199.555 501.346 198.528 501.346 197.378C501.346 196.314 501.544 195.374 501.939 194.558C502.335 193.741 502.923 193.055 503.702 192.498C504.481 191.929 505.446 191.502 506.597 191.218C507.759 190.921 509.089 190.772 510.586 190.772H513.889ZM527.359 187.21V203H522.461V182.924H527.062L527.359 187.21ZM526.58 192.238H525.133C525.145 190.779 525.343 189.455 525.727 188.268C526.11 187.08 526.648 186.06 527.341 185.206C528.046 184.353 528.881 183.697 529.846 183.239C530.811 182.782 531.887 182.553 533.074 182.553C534.039 182.553 534.911 182.689 535.69 182.961C536.47 183.233 537.138 183.666 537.694 184.26C538.263 184.854 538.696 185.633 538.993 186.598C539.302 187.55 539.457 188.725 539.457 190.123V203H534.521V190.086C534.521 189.171 534.385 188.447 534.113 187.915C533.854 187.383 533.47 187.006 532.963 186.783C532.468 186.561 531.856 186.449 531.126 186.449C530.371 186.449 529.71 186.604 529.141 186.913C528.584 187.21 528.114 187.624 527.73 188.156C527.359 188.688 527.075 189.3 526.877 189.993C526.679 190.686 526.58 191.434 526.58 192.238ZM549.662 200.773L555.043 182.924H560.294L552.241 206.043C552.056 206.538 551.814 207.076 551.518 207.657C551.233 208.239 550.85 208.789 550.367 209.309C549.885 209.84 549.279 210.273 548.549 210.607C547.831 210.941 546.959 211.108 545.933 211.108C545.487 211.108 545.091 211.077 544.745 211.016C544.399 210.954 544.034 210.873 543.65 210.774V207.101C543.774 207.113 543.916 207.119 544.077 207.119C544.25 207.132 544.399 207.138 544.522 207.138C545.24 207.138 545.834 207.051 546.304 206.878C546.774 206.717 547.151 206.451 547.436 206.08C547.732 205.721 547.98 205.251 548.178 204.67L549.662 200.773ZM547.009 182.924L551.555 197.712L552.353 202.889L548.976 203.501L541.721 182.924H547.009ZM572.503 175.984H582.318C584.372 175.984 586.134 176.294 587.606 176.912C589.078 177.531 590.21 178.446 591.002 179.658C591.794 180.87 592.189 182.361 592.189 184.13C592.189 185.528 591.942 186.74 591.447 187.767C590.952 188.793 590.254 189.653 589.351 190.346C588.46 191.038 587.409 191.583 586.196 191.979L584.601 192.795H575.936L575.898 188.769H582.374C583.425 188.769 584.298 188.583 584.99 188.212C585.683 187.841 586.202 187.327 586.549 186.672C586.908 186.016 587.087 185.268 587.087 184.427C587.087 183.524 586.914 182.744 586.567 182.089C586.221 181.421 585.695 180.908 584.99 180.549C584.285 180.19 583.395 180.011 582.318 180.011H577.605V203H572.503V175.984ZM587.755 203L581.502 190.902L586.901 190.884L593.229 202.74V203H587.755ZM605.308 203.371C603.786 203.371 602.419 203.124 601.207 202.629C599.995 202.134 598.962 201.448 598.108 200.569C597.267 199.679 596.618 198.646 596.16 197.471C595.715 196.283 595.492 195.009 595.492 193.648V192.906C595.492 191.36 595.715 189.956 596.16 188.694C596.605 187.42 597.236 186.326 598.053 185.41C598.869 184.495 599.846 183.79 600.984 183.295C602.122 182.8 603.378 182.553 604.751 182.553C606.174 182.553 607.429 182.794 608.518 183.276C609.606 183.746 610.515 184.414 611.245 185.28C611.975 186.146 612.525 187.185 612.896 188.397C613.268 189.597 613.453 190.927 613.453 192.387V194.446H597.719V191.069H608.629V190.698C608.604 189.919 608.456 189.208 608.184 188.564C607.911 187.909 607.491 187.389 606.922 187.006C606.353 186.61 605.617 186.412 604.714 186.412C603.984 186.412 603.347 186.573 602.803 186.895C602.271 187.204 601.826 187.649 601.467 188.23C601.12 188.799 600.861 189.48 600.688 190.271C600.514 191.063 600.428 191.941 600.428 192.906V193.648C600.428 194.49 600.539 195.269 600.762 195.986C600.997 196.704 601.337 197.328 601.782 197.86C602.24 198.38 602.784 198.788 603.415 199.085C604.058 199.369 604.788 199.512 605.604 199.512C606.631 199.512 607.559 199.314 608.388 198.918C609.229 198.51 609.959 197.91 610.577 197.118L613.045 199.679C612.624 200.297 612.055 200.891 611.338 201.46C610.633 202.029 609.779 202.493 608.777 202.852C607.775 203.198 606.619 203.371 605.308 203.371ZM629.503 182.924H633.956V202.388C633.956 204.206 633.56 205.746 632.769 207.008C631.989 208.282 630.895 209.247 629.484 209.902C628.074 210.57 626.435 210.904 624.567 210.904C623.763 210.904 622.891 210.793 621.951 210.57C621.023 210.348 620.127 209.995 619.261 209.513C618.407 209.043 617.696 208.43 617.127 207.676L619.335 204.781C620.003 205.561 620.757 206.148 621.599 206.544C622.44 206.952 623.349 207.156 624.326 207.156C625.316 207.156 626.157 206.971 626.85 206.6C627.555 206.241 628.093 205.709 628.464 205.004C628.847 204.311 629.039 203.458 629.039 202.443V187.507L629.503 182.924ZM615.939 193.203V192.813C615.939 191.28 616.125 189.888 616.496 188.639C616.867 187.377 617.399 186.295 618.092 185.392C618.797 184.489 619.644 183.79 620.634 183.295C621.636 182.8 622.761 182.553 624.011 182.553C625.334 182.553 626.448 182.794 627.351 183.276C628.266 183.759 629.021 184.445 629.614 185.336C630.22 186.227 630.69 187.284 631.024 188.509C631.371 189.721 631.637 191.057 631.822 192.517V193.574C631.649 194.997 631.371 196.302 630.987 197.489C630.616 198.677 630.121 199.716 629.503 200.606C628.884 201.485 628.118 202.165 627.202 202.647C626.287 203.13 625.211 203.371 623.974 203.371C622.737 203.371 621.623 203.118 620.634 202.61C619.644 202.103 618.797 201.392 618.092 200.477C617.399 199.561 616.867 198.485 616.496 197.248C616.125 196.011 615.939 194.663 615.939 193.203ZM620.838 192.813V193.203C620.838 194.069 620.924 194.879 621.098 195.634C621.271 196.388 621.537 197.056 621.896 197.638C622.254 198.207 622.706 198.652 623.25 198.974C623.794 199.295 624.444 199.456 625.198 199.456C626.213 199.456 627.041 199.246 627.685 198.825C628.34 198.392 628.835 197.805 629.169 197.062C629.515 196.308 629.738 195.461 629.837 194.521V191.607C629.775 190.865 629.639 190.179 629.429 189.548C629.231 188.917 628.952 188.373 628.594 187.915C628.235 187.457 627.777 187.099 627.221 186.839C626.664 186.579 626.002 186.449 625.235 186.449C624.493 186.449 623.844 186.616 623.287 186.95C622.73 187.272 622.273 187.723 621.914 188.305C621.555 188.886 621.283 189.56 621.098 190.327C620.924 191.094 620.838 191.923 620.838 192.813ZM643.567 182.924V203H638.65V182.924H643.567ZM638.316 177.673C638.316 176.943 638.564 176.337 639.059 175.854C639.566 175.372 640.246 175.131 641.1 175.131C641.953 175.131 642.627 175.372 643.122 175.854C643.629 176.337 643.883 176.943 643.883 177.673C643.883 178.39 643.629 178.99 643.122 179.473C642.627 179.955 641.953 180.196 641.1 180.196C640.246 180.196 639.566 179.955 639.059 179.473C638.564 178.99 638.316 178.39 638.316 177.673ZM659.283 197.508C659.283 197.087 659.172 196.71 658.949 196.376C658.727 196.042 658.306 195.739 657.688 195.467C657.081 195.182 656.191 194.916 655.016 194.669C653.977 194.446 653.018 194.168 652.14 193.834C651.261 193.5 650.507 193.098 649.876 192.628C649.245 192.146 648.75 191.583 648.392 190.939C648.045 190.284 647.872 189.529 647.872 188.676C647.872 187.847 648.051 187.068 648.41 186.338C648.769 185.596 649.288 184.946 649.969 184.39C650.649 183.821 651.478 183.375 652.455 183.054C653.432 182.72 654.533 182.553 655.758 182.553C657.465 182.553 658.931 182.831 660.155 183.388C661.392 183.944 662.339 184.711 662.994 185.688C663.65 186.653 663.978 187.742 663.978 188.954H659.079C659.079 188.422 658.955 187.94 658.708 187.507C658.473 187.074 658.108 186.728 657.613 186.468C657.118 186.196 656.494 186.06 655.739 186.06C655.059 186.06 654.484 186.171 654.014 186.394C653.556 186.616 653.21 186.907 652.975 187.266C652.74 187.624 652.622 188.02 652.622 188.453C652.622 188.775 652.684 189.065 652.808 189.325C652.944 189.573 653.16 189.801 653.457 190.012C653.754 190.222 654.156 190.414 654.663 190.587C655.183 190.76 655.82 190.927 656.574 191.088C658.071 191.385 659.376 191.781 660.489 192.275C661.615 192.758 662.493 193.401 663.124 194.205C663.755 195.009 664.07 196.036 664.07 197.285C664.07 198.176 663.879 198.992 663.495 199.734C663.112 200.464 662.555 201.101 661.825 201.646C661.095 202.19 660.223 202.617 659.209 202.926C658.195 203.223 657.05 203.371 655.776 203.371C653.933 203.371 652.375 203.043 651.101 202.388C649.826 201.72 648.862 200.879 648.206 199.864C647.55 198.838 647.223 197.774 647.223 196.673H651.917C651.954 197.452 652.164 198.077 652.548 198.547C652.931 199.017 653.414 199.357 653.995 199.567C654.589 199.765 655.214 199.864 655.869 199.864C656.611 199.864 657.236 199.765 657.743 199.567C658.25 199.357 658.634 199.079 658.894 198.732C659.153 198.374 659.283 197.965 659.283 197.508ZM677.3 182.924V186.449H665.796V182.924H677.3ZM668.876 177.988H673.793V197.211C673.793 197.805 673.873 198.262 674.034 198.584C674.195 198.906 674.436 199.122 674.758 199.233C675.079 199.345 675.463 199.4 675.908 199.4C676.23 199.4 676.527 199.382 676.799 199.345C677.071 199.308 677.3 199.271 677.485 199.233L677.504 202.907C677.096 203.043 676.632 203.155 676.112 203.241C675.605 203.328 675.03 203.371 674.387 203.371C673.286 203.371 672.321 203.186 671.492 202.814C670.663 202.431 670.02 201.819 669.562 200.978C669.105 200.124 668.876 198.998 668.876 197.601V177.988ZM685.464 187.024V203H680.565V182.924H685.204L685.464 187.024ZM691.568 182.794L691.494 187.358C691.222 187.309 690.913 187.272 690.566 187.247C690.232 187.222 689.917 187.21 689.62 187.21C688.866 187.21 688.204 187.315 687.635 187.525C687.066 187.723 686.59 188.014 686.206 188.397C685.835 188.781 685.55 189.251 685.353 189.808C685.155 190.352 685.043 190.97 685.019 191.663L683.961 191.533C683.961 190.259 684.091 189.078 684.351 187.989C684.61 186.901 684.988 185.948 685.482 185.132C685.977 184.315 686.596 183.685 687.338 183.239C688.092 182.782 688.958 182.553 689.936 182.553C690.208 182.553 690.498 182.577 690.808 182.627C691.129 182.664 691.383 182.72 691.568 182.794ZM704.687 198.732V189.474C704.687 188.793 704.569 188.206 704.334 187.711C704.099 187.216 703.74 186.833 703.258 186.561C702.775 186.288 702.163 186.152 701.421 186.152C700.765 186.152 700.19 186.264 699.695 186.486C699.213 186.709 698.842 187.024 698.582 187.433C698.322 187.828 698.192 188.286 698.192 188.806H693.275C693.275 187.977 693.473 187.191 693.869 186.449C694.265 185.695 694.828 185.027 695.558 184.445C696.3 183.852 697.184 183.388 698.211 183.054C699.25 182.72 700.413 182.553 701.699 182.553C703.221 182.553 704.575 182.812 705.763 183.332C706.963 183.839 707.903 184.606 708.583 185.633C709.276 186.66 709.622 187.952 709.622 189.511V198.269C709.622 199.271 709.684 200.13 709.808 200.848C709.944 201.553 710.142 202.165 710.401 202.685V203H705.41C705.175 202.493 704.996 201.85 704.872 201.07C704.748 200.279 704.687 199.499 704.687 198.732ZM705.373 190.772L705.41 193.686H702.312C701.545 193.686 700.87 193.766 700.289 193.927C699.708 194.075 699.231 194.298 698.86 194.595C698.489 194.879 698.211 195.226 698.025 195.634C697.84 196.03 697.747 196.481 697.747 196.988C697.747 197.483 697.858 197.928 698.081 198.324C698.316 198.72 698.65 199.035 699.083 199.271C699.528 199.493 700.048 199.604 700.642 199.604C701.507 199.604 702.262 199.431 702.905 199.085C703.549 198.726 704.049 198.293 704.408 197.786C704.767 197.279 704.959 196.797 704.983 196.339L706.394 198.454C706.22 198.961 705.961 199.499 705.614 200.068C705.268 200.637 704.823 201.169 704.278 201.664C703.734 202.159 703.078 202.567 702.312 202.889C701.545 203.21 700.654 203.371 699.64 203.371C698.341 203.371 697.178 203.111 696.151 202.592C695.125 202.072 694.314 201.361 693.721 200.458C693.127 199.555 692.83 198.528 692.83 197.378C692.83 196.314 693.028 195.374 693.424 194.558C693.82 193.741 694.407 193.055 695.187 192.498C695.966 191.929 696.931 191.502 698.081 191.218C699.244 190.921 700.574 190.772 702.07 190.772H705.373ZM723.538 182.924V186.449H712.034V182.924H723.538ZM715.114 177.988H720.031V197.211C720.031 197.805 720.112 198.262 720.272 198.584C720.433 198.906 720.674 199.122 720.996 199.233C721.318 199.345 721.701 199.4 722.146 199.4C722.468 199.4 722.765 199.382 723.037 199.345C723.309 199.308 723.538 199.271 723.724 199.233L723.742 202.907C723.334 203.043 722.87 203.155 722.351 203.241C721.843 203.328 721.268 203.371 720.625 203.371C719.524 203.371 718.559 203.186 717.73 202.814C716.902 202.431 716.258 201.819 715.801 200.978C715.343 200.124 715.114 198.998 715.114 197.601V177.988ZM731.999 182.924V203H727.082V182.924H731.999ZM726.748 177.673C726.748 176.943 726.995 176.337 727.49 175.854C727.997 175.372 728.678 175.131 729.531 175.131C730.385 175.131 731.059 175.372 731.554 175.854C732.061 176.337 732.314 176.943 732.314 177.673C732.314 178.39 732.061 178.99 731.554 179.473C731.059 179.955 730.385 180.196 729.531 180.196C728.678 180.196 727.997 179.955 727.49 179.473C726.995 178.99 726.748 178.39 726.748 177.673ZM735.803 193.166V192.776C735.803 191.304 736.013 189.95 736.434 188.713C736.854 187.464 737.466 186.381 738.271 185.466C739.075 184.55 740.058 183.839 741.221 183.332C742.383 182.812 743.707 182.553 745.191 182.553C746.701 182.553 748.036 182.812 749.199 183.332C750.374 183.839 751.364 184.55 752.168 185.466C752.972 186.381 753.584 187.464 754.005 188.713C754.425 189.95 754.636 191.304 754.636 192.776V193.166C754.636 194.626 754.425 195.98 754.005 197.229C753.584 198.466 752.972 199.549 752.168 200.477C751.364 201.392 750.381 202.103 749.218 202.61C748.055 203.118 746.725 203.371 745.229 203.371C743.744 203.371 742.414 203.118 741.239 202.61C740.064 202.103 739.075 201.392 738.271 200.477C737.466 199.549 736.854 198.466 736.434 197.229C736.013 195.98 735.803 194.626 735.803 193.166ZM740.701 192.776V193.166C740.701 194.044 740.788 194.867 740.961 195.634C741.134 196.401 741.4 197.075 741.759 197.656C742.118 198.238 742.581 198.695 743.15 199.029C743.732 199.351 744.424 199.512 745.229 199.512C746.02 199.512 746.701 199.351 747.27 199.029C747.839 198.695 748.302 198.238 748.661 197.656C749.032 197.075 749.304 196.401 749.478 195.634C749.651 194.867 749.737 194.044 749.737 193.166V192.776C749.737 191.91 749.651 191.1 749.478 190.346C749.304 189.579 749.032 188.905 748.661 188.323C748.302 187.729 747.832 187.266 747.251 186.932C746.682 186.585 745.995 186.412 745.191 186.412C744.4 186.412 743.719 186.585 743.15 186.932C742.581 187.266 742.118 187.729 741.759 188.323C741.4 188.905 741.134 189.579 740.961 190.346C740.788 191.1 740.701 191.91 740.701 192.776ZM763.004 187.21V203H758.105V182.924H762.707L763.004 187.21ZM762.225 192.238H760.777C760.79 190.779 760.988 189.455 761.371 188.268C761.755 187.08 762.293 186.06 762.985 185.206C763.69 184.353 764.525 183.697 765.49 183.239C766.455 182.782 767.531 182.553 768.719 182.553C769.684 182.553 770.556 182.689 771.335 182.961C772.114 183.233 772.782 183.666 773.339 184.26C773.908 184.854 774.341 185.633 774.638 186.598C774.947 187.55 775.102 188.725 775.102 190.123V203H770.166V190.086C770.166 189.171 770.03 188.447 769.758 187.915C769.498 187.383 769.115 187.006 768.607 186.783C768.113 186.561 767.5 186.449 766.771 186.449C766.016 186.449 765.354 186.604 764.785 186.913C764.229 187.21 763.758 187.624 763.375 188.156C763.004 188.688 762.719 189.3 762.521 189.993C762.324 190.686 762.225 191.434 762.225 192.238Z" fill="#1C4670"/>
<path d="M794.695 175.984V203H789.593V175.984H794.695ZM804.641 187.21V203H799.742V182.924H804.344L804.641 187.21ZM803.861 192.238H802.414C802.426 190.779 802.624 189.455 803.008 188.268C803.391 187.08 803.929 186.06 804.622 185.206C805.327 184.353 806.162 183.697 807.127 183.239C808.092 182.782 809.168 182.553 810.355 182.553C811.32 182.553 812.192 182.689 812.972 182.961C813.751 183.233 814.419 183.666 814.976 184.26C815.545 184.854 815.978 185.633 816.274 186.598C816.584 187.55 816.738 188.725 816.738 190.123V203H811.803V190.086C811.803 189.171 811.667 188.447 811.395 187.915C811.135 187.383 810.751 187.006 810.244 186.783C809.749 186.561 809.137 186.449 808.407 186.449C807.653 186.449 806.991 186.604 806.422 186.913C805.865 187.21 805.395 187.624 805.012 188.156C804.641 188.688 804.356 189.3 804.158 189.993C803.96 190.686 803.861 191.434 803.861 192.238ZM563.021 239.112H568.124C567.988 240.918 567.487 242.52 566.621 243.918C565.755 245.303 564.549 246.392 563.003 247.184C561.457 247.975 559.583 248.371 557.381 248.371C555.686 248.371 554.159 248.074 552.798 247.48C551.45 246.874 550.293 246.015 549.328 244.901C548.376 243.776 547.646 242.427 547.139 240.856C546.632 239.273 546.378 237.498 546.378 235.531V233.472C546.378 231.505 546.638 229.73 547.157 228.146C547.677 226.563 548.419 225.215 549.384 224.102C550.361 222.976 551.53 222.11 552.891 221.504C554.264 220.898 555.798 220.595 557.492 220.595C559.694 220.595 561.556 221.003 563.077 221.819C564.599 222.623 565.78 223.73 566.621 225.141C567.462 226.551 567.969 228.171 568.143 230.002H563.04C562.941 228.864 562.694 227.899 562.298 227.107C561.914 226.316 561.333 225.716 560.554 225.308C559.787 224.887 558.766 224.677 557.492 224.677C556.503 224.677 555.631 224.862 554.876 225.233C554.134 225.604 553.515 226.161 553.021 226.903C552.526 227.633 552.155 228.549 551.907 229.649C551.66 230.738 551.536 232 551.536 233.435V235.531C551.536 236.904 551.647 238.135 551.87 239.224C552.093 240.312 552.439 241.234 552.909 241.988C553.379 242.743 553.985 243.318 554.728 243.714C555.47 244.11 556.354 244.308 557.381 244.308C558.63 244.308 559.645 244.11 560.424 243.714C561.215 243.318 561.815 242.737 562.224 241.97C562.644 241.203 562.91 240.25 563.021 239.112ZM582.764 243.732V234.474C582.764 233.793 582.646 233.206 582.411 232.711C582.176 232.216 581.817 231.833 581.335 231.561C580.853 231.288 580.24 231.152 579.498 231.152C578.842 231.152 578.267 231.264 577.772 231.486C577.29 231.709 576.919 232.024 576.659 232.433C576.399 232.828 576.27 233.286 576.27 233.806H571.353C571.353 232.977 571.55 232.191 571.946 231.449C572.342 230.695 572.905 230.027 573.635 229.445C574.377 228.852 575.261 228.388 576.288 228.054C577.327 227.72 578.49 227.553 579.776 227.553C581.298 227.553 582.652 227.812 583.84 228.332C585.04 228.839 585.98 229.606 586.66 230.633C587.353 231.66 587.699 232.952 587.699 234.511V243.269C587.699 244.271 587.761 245.13 587.885 245.848C588.021 246.553 588.219 247.165 588.479 247.685V248H583.487C583.252 247.493 583.073 246.85 582.949 246.07C582.826 245.279 582.764 244.499 582.764 243.732ZM583.45 235.772L583.487 238.686H580.389C579.622 238.686 578.948 238.766 578.366 238.927C577.785 239.075 577.309 239.298 576.938 239.595C576.566 239.879 576.288 240.226 576.103 240.634C575.917 241.03 575.824 241.481 575.824 241.988C575.824 242.483 575.936 242.928 576.158 243.324C576.393 243.72 576.727 244.035 577.16 244.271C577.605 244.493 578.125 244.604 578.719 244.604C579.585 244.604 580.339 244.431 580.982 244.085C581.626 243.726 582.127 243.293 582.485 242.786C582.844 242.279 583.036 241.797 583.061 241.339L584.471 243.454C584.298 243.961 584.038 244.499 583.691 245.068C583.345 245.637 582.9 246.169 582.355 246.664C581.811 247.159 581.156 247.567 580.389 247.889C579.622 248.21 578.731 248.371 577.717 248.371C576.418 248.371 575.255 248.111 574.229 247.592C573.202 247.072 572.392 246.361 571.798 245.458C571.204 244.555 570.907 243.528 570.907 242.378C570.907 241.314 571.105 240.374 571.501 239.558C571.897 238.741 572.484 238.055 573.264 237.498C574.043 236.929 575.008 236.502 576.158 236.218C577.321 235.921 578.651 235.772 580.147 235.772H583.45ZM596.921 232.21V248H592.022V227.924H596.624L596.921 232.21ZM596.142 237.238H594.694C594.707 235.779 594.905 234.455 595.288 233.268C595.672 232.08 596.21 231.06 596.902 230.206C597.607 229.353 598.442 228.697 599.407 228.239C600.372 227.782 601.448 227.553 602.636 227.553C603.601 227.553 604.473 227.689 605.252 227.961C606.031 228.233 606.699 228.666 607.256 229.26C607.825 229.854 608.258 230.633 608.555 231.598C608.864 232.55 609.019 233.725 609.019 235.123V248H604.083V235.086C604.083 234.171 603.947 233.447 603.675 232.915C603.415 232.383 603.032 232.006 602.524 231.783C602.03 231.561 601.417 231.449 600.688 231.449C599.933 231.449 599.271 231.604 598.702 231.913C598.146 232.21 597.675 232.624 597.292 233.156C596.921 233.688 596.636 234.3 596.438 234.993C596.241 235.686 596.142 236.434 596.142 237.238ZM624.4 243.732V234.474C624.4 233.793 624.283 233.206 624.048 232.711C623.813 232.216 623.454 231.833 622.972 231.561C622.489 231.288 621.877 231.152 621.135 231.152C620.479 231.152 619.904 231.264 619.409 231.486C618.927 231.709 618.556 232.024 618.296 232.433C618.036 232.828 617.906 233.286 617.906 233.806H612.989C612.989 232.977 613.187 232.191 613.583 231.449C613.979 230.695 614.542 230.027 615.271 229.445C616.014 228.852 616.898 228.388 617.925 228.054C618.964 227.72 620.127 227.553 621.413 227.553C622.935 227.553 624.289 227.812 625.477 228.332C626.676 228.839 627.617 229.606 628.297 230.633C628.99 231.66 629.336 232.952 629.336 234.511V243.269C629.336 244.271 629.398 245.13 629.521 245.848C629.658 246.553 629.855 247.165 630.115 247.685V248H625.124C624.889 247.493 624.71 246.85 624.586 246.07C624.462 245.279 624.4 244.499 624.4 243.732ZM625.087 235.772L625.124 238.686H622.025C621.258 238.686 620.584 238.766 620.003 238.927C619.422 239.075 618.945 239.298 618.574 239.595C618.203 239.879 617.925 240.226 617.739 240.634C617.554 241.03 617.461 241.481 617.461 241.988C617.461 242.483 617.572 242.928 617.795 243.324C618.03 243.72 618.364 244.035 618.797 244.271C619.242 244.493 619.762 244.604 620.355 244.604C621.221 244.604 621.976 244.431 622.619 244.085C623.262 243.726 623.763 243.293 624.122 242.786C624.481 242.279 624.673 241.797 624.697 241.339L626.107 243.454C625.934 243.961 625.674 244.499 625.328 245.068C624.982 245.637 624.536 246.169 623.992 246.664C623.448 247.159 622.792 247.567 622.025 247.889C621.258 248.21 620.368 248.371 619.354 248.371C618.055 248.371 616.892 248.111 615.865 247.592C614.839 247.072 614.028 246.361 613.435 245.458C612.841 244.555 612.544 243.528 612.544 242.378C612.544 241.314 612.742 240.374 613.138 239.558C613.534 238.741 614.121 238.055 614.9 237.498C615.68 236.929 616.645 236.502 617.795 236.218C618.958 235.921 620.287 235.772 621.784 235.772H625.087ZM645.794 243.732V219.5H650.729V248H646.276L645.794 243.732ZM632.898 238.203V237.813C632.898 236.28 633.072 234.888 633.418 233.639C633.777 232.377 634.296 231.295 634.977 230.392C635.657 229.489 636.479 228.79 637.444 228.295C638.422 227.8 639.529 227.553 640.766 227.553C641.965 227.553 643.011 227.794 643.901 228.276C644.804 228.759 645.571 229.445 646.202 230.336C646.845 231.227 647.359 232.284 647.742 233.509C648.126 234.721 648.404 236.057 648.577 237.517V238.574C648.404 239.997 648.126 241.302 647.742 242.489C647.359 243.677 646.845 244.716 646.202 245.606C645.571 246.485 644.804 247.165 643.901 247.647C642.998 248.13 641.941 248.371 640.729 248.371C639.504 248.371 638.403 248.118 637.426 247.61C636.461 247.103 635.638 246.392 634.958 245.477C634.29 244.561 633.777 243.485 633.418 242.248C633.072 241.011 632.898 239.663 632.898 238.203ZM637.815 237.813V238.203C637.815 239.069 637.89 239.879 638.038 240.634C638.187 241.388 638.428 242.056 638.762 242.638C639.096 243.207 639.522 243.652 640.042 243.974C640.574 244.295 641.217 244.456 641.972 244.456C642.937 244.456 643.728 244.246 644.347 243.825C644.978 243.392 645.466 242.805 645.812 242.062C646.159 241.308 646.382 240.461 646.48 239.521V236.607C646.431 235.865 646.301 235.179 646.091 234.548C645.893 233.917 645.608 233.373 645.237 232.915C644.879 232.457 644.433 232.099 643.901 231.839C643.369 231.579 642.739 231.449 642.009 231.449C641.254 231.449 640.611 231.616 640.079 231.95C639.547 232.272 639.114 232.723 638.78 233.305C638.446 233.886 638.199 234.56 638.038 235.327C637.89 236.094 637.815 236.923 637.815 237.813ZM666.223 243.732V234.474C666.223 233.793 666.105 233.206 665.87 232.711C665.635 232.216 665.276 231.833 664.794 231.561C664.312 231.288 663.699 231.152 662.957 231.152C662.301 231.152 661.726 231.264 661.231 231.486C660.749 231.709 660.378 232.024 660.118 232.433C659.858 232.828 659.729 233.286 659.729 233.806H654.812C654.812 232.977 655.009 232.191 655.405 231.449C655.801 230.695 656.364 230.027 657.094 229.445C657.836 228.852 658.72 228.388 659.747 228.054C660.786 227.72 661.949 227.553 663.235 227.553C664.757 227.553 666.111 227.812 667.299 228.332C668.499 228.839 669.439 229.606 670.119 230.633C670.812 231.66 671.158 232.952 671.158 234.511V243.269C671.158 244.271 671.22 245.13 671.344 245.848C671.48 246.553 671.678 247.165 671.938 247.685V248H666.946C666.711 247.493 666.532 246.85 666.408 246.07C666.285 245.279 666.223 244.499 666.223 243.732ZM666.909 235.772L666.946 238.686H663.848C663.081 238.686 662.407 238.766 661.825 238.927C661.244 239.075 660.768 239.298 660.396 239.595C660.025 239.879 659.747 240.226 659.562 240.634C659.376 241.03 659.283 241.481 659.283 241.988C659.283 242.483 659.395 242.928 659.617 243.324C659.852 243.72 660.186 244.035 660.619 244.271C661.064 244.493 661.584 244.604 662.178 244.604C663.044 244.604 663.798 244.431 664.441 244.085C665.085 243.726 665.586 243.293 665.944 242.786C666.303 242.279 666.495 241.797 666.52 241.339L667.93 243.454C667.757 243.961 667.497 244.499 667.15 245.068C666.804 245.637 666.359 246.169 665.814 246.664C665.27 247.159 664.615 247.567 663.848 247.889C663.081 248.21 662.19 248.371 661.176 248.371C659.877 248.371 658.714 248.111 657.688 247.592C656.661 247.072 655.851 246.361 655.257 245.458C654.663 244.555 654.366 243.528 654.366 242.378C654.366 241.314 654.564 240.374 654.96 239.558C655.356 238.741 655.943 238.055 656.723 237.498C657.502 236.929 658.467 236.502 659.617 236.218C660.78 235.921 662.11 235.772 663.606 235.772H666.909Z" fill="#FFA229"/>
<path d="M709.82 53.1618H671.961C668.236 37.9916 659.532 24.5088 647.239 14.8697C634.947 5.23062 619.777 -0.0078125 604.156 -0.0078125C588.536 -0.0078125 573.366 5.23062 561.074 14.8697C548.781 24.5088 540.076 37.9916 536.351 53.1618H498.469C497.774 53.1618 497.087 53.2997 496.446 53.5677C495.805 53.8357 495.224 54.2283 494.736 54.7228C494.249 55.2173 493.864 55.8038 493.605 56.4482C493.346 57.0926 493.217 57.7821 493.227 58.4765V92.8159C493.227 94.2061 493.779 95.5394 494.762 96.5225C495.745 97.5055 497.079 98.0578 498.469 98.0578H709.82C710.51 98.061 711.194 97.9277 711.833 97.6657C712.472 97.4037 713.053 97.0181 713.542 96.5311C714.031 96.044 714.42 95.465 714.685 94.8275C714.949 94.1899 715.086 93.5063 715.086 92.8159V58.4765C715.092 57.7809 714.961 57.0909 714.699 56.4463C714.437 55.8018 714.05 55.2155 713.561 54.7214C713.071 54.2272 712.488 53.835 711.846 53.5673C711.204 53.2996 710.515 53.1618 709.82 53.1618ZM591.149 40.6395C591.14 38.1827 591.85 35.7771 593.192 33.7188C594.533 31.6605 596.447 30.0394 598.698 29.0552C600.949 28.0709 603.439 27.7665 605.86 28.1794C608.282 28.5922 610.53 29.7043 612.328 31.3788C614.126 33.0532 615.395 35.2169 615.978 37.6033C616.562 39.9898 616.435 42.4948 615.613 44.81C614.791 47.1251 613.31 49.1493 611.352 50.6332C609.394 52.1172 607.044 52.9961 604.593 53.1618H602.895C599.712 52.9583 596.726 51.5504 594.544 49.2243C592.363 46.8983 591.148 43.8287 591.149 40.6395Z" fill="#FFA229"/>
<path d="M698.224 79.9219H589.406C587.262 79.9219 585.523 81.6603 585.523 83.8048V86.5471C585.523 88.6915 587.262 90.4299 589.406 90.4299H698.224C700.369 90.4299 702.107 88.6915 702.107 86.5471V83.8048C702.107 81.6603 700.369 79.9219 698.224 79.9219Z" fill="#FAD282"/>
<path d="M606.69 0.242388C605.841 0.242388 605.04 0.242388 604.263 0.242388C588.652 0.205012 573.478 5.39715 561.162 14.9904C548.846 24.5837 540.097 38.0254 536.312 53.1711H541.312C544.982 38.4452 553.348 25.3148 565.143 15.7654C576.938 6.21608 591.523 0.767078 606.69 0.242388Z" fill="#E0AB67"/>
<path d="M616.392 40.65C616.386 43.5449 615.376 46.348 613.535 48.5824C611.695 50.8167 609.137 52.3444 606.297 52.9054C606.848 53.0317 607.408 53.1209 607.971 53.1724H609.646C612.913 52.97 615.971 51.5015 618.172 49.0792C620.373 46.6569 621.543 43.4717 621.432 40.2007C621.322 36.9297 619.94 33.8308 617.58 31.5627C615.22 29.2946 612.069 28.0362 608.796 28.0549C607.981 28.0632 607.168 28.1526 606.37 28.3218C609.202 28.9128 611.745 30.461 613.57 32.7062C615.395 34.9514 616.392 37.7565 616.392 40.65Z" fill="#E0AB67"/>
<path d="M498.234 92.8078V58.4685C498.24 57.076 498.798 55.7428 499.785 54.7604C500.771 53.778 502.107 53.2265 503.5 53.2266H498.476C497.086 53.2266 495.753 53.7788 494.77 54.7619C493.787 55.7449 493.234 57.0782 493.234 58.4685V92.8078C493.234 94.198 493.787 95.5313 494.77 96.5144C495.753 97.4974 497.086 98.0497 498.476 98.0497H503.5C502.809 98.0529 502.125 97.9197 501.486 97.6577C500.848 97.3957 500.267 97.0101 499.777 96.523C499.288 96.0359 498.9 95.457 498.635 94.8194C498.37 94.1818 498.234 93.4982 498.234 92.8078Z" fill="#E0AB67"/>
<path d="M601.396 28.277C599.705 27.9376 597.962 27.9499 596.276 28.3131C594.589 28.6762 592.996 29.3825 591.594 30.388C590.193 31.3935 589.013 32.6767 588.129 34.1577C587.245 35.6386 586.675 37.2857 586.455 38.9965C586.234 40.7072 586.368 42.445 586.849 44.1017C587.329 45.7584 588.145 47.2986 589.246 48.6263C590.347 49.9541 591.709 51.0411 593.248 51.8196C594.788 52.5981 596.471 53.0516 598.192 53.1518H599.891C600.398 53.1065 600.901 53.0254 601.396 52.9091C598.516 52.3797 595.912 50.8577 594.038 48.6075C592.163 46.3574 591.137 43.5215 591.137 40.593C591.137 37.6645 592.163 34.8287 594.038 32.5786C595.912 30.3284 598.516 28.8063 601.396 28.277Z" fill="#FAD282"/>
<path d="M667.36 53.1549H672.092C668.35 37.991 659.637 24.5175 647.342 14.8845C635.048 5.25137 619.881 0.0138993 604.263 0.0078125C603.462 0.0078125 602.685 0.0078125 601.836 0.0078125C617.059 0.510264 631.7 5.97517 643.529 15.5699C655.359 25.1647 663.727 38.3633 667.36 53.1549Z" fill="#FAD282"/>
<path d="M709.825 53.1563H705.117C705.812 53.1562 706.499 53.2941 707.14 53.5621C707.781 53.8301 708.362 54.2227 708.85 54.7172C709.337 55.2117 709.722 55.7982 709.981 56.4426C710.24 57.087 710.369 57.7765 710.359 58.471V92.8103C710.362 93.4996 710.229 94.1826 709.967 94.8201C709.704 95.4575 709.318 96.0366 708.831 96.524C708.344 97.0114 707.764 97.3974 707.127 97.6597C706.49 97.922 705.806 98.0554 705.117 98.0522H709.825C710.516 98.0554 711.2 97.9222 711.839 97.6602C712.477 97.3982 713.058 97.0126 713.547 96.5255C714.037 96.0384 714.425 95.4595 714.69 94.8219C714.955 94.1843 715.091 93.5007 715.091 92.8103V58.471C715.098 57.7753 714.966 57.0853 714.705 56.4408C714.443 55.7962 714.056 55.21 713.566 54.7158C713.077 54.2216 712.494 53.8294 711.852 53.5617C711.21 53.294 710.521 53.1562 709.825 53.1563Z" fill="#FAD282"/>
<path d="M885.136 90.6406V987.419H858.781L885.136 90.6406Z" fill="#D9D9D9"/>
<g style="mix-blend-mode:multiply">
<path d="M855.772 1061.56C855.772 1072.7 811.24 1081.72 756.273 1081.72C701.305 1081.72 656.773 1072.7 656.773 1061.56C656.773 1050.42 701.305 1041.41 756.273 1041.41C811.24 1041.41 855.772 1050.44 855.772 1061.56Z" fill="#E2E2E2"/>
</g>
<path d="M821.751 528.641C834.054 540.314 844.15 550.288 848.688 555.141C849.537 556.034 850.163 557.115 850.513 558.297C850.863 559.478 850.928 560.725 850.702 561.936C847.305 580.38 815.417 628.771 804.326 646.05L786.125 634.838C786.125 634.838 814.422 573.779 812.965 567.057C812.965 567.057 806.437 562.81 796.657 555.36" fill="#FAC0AC"/>
<path d="M793.698 558.398C781.564 549.176 767.634 531.946 751.981 514.886C748.238 510.781 745.419 505.92 743.715 500.633C742.011 495.345 741.462 489.753 742.104 484.235C743.778 473.63 758.946 476.955 758.946 476.955C776.128 490.618 803.818 511.561 821.752 528.524" fill="#FFA229"/>
<path d="M693.518 643.435L693.445 866.629L715.384 1055L741.181 1053.27L739.676 865.003L797.531 631.398L693.518 643.435Z" fill="#1C4670"/>
<path d="M745.398 648.484L777.651 879.104L832.4 1055.24L846.621 1039.3L819.513 874.08L808.811 688.697L805.996 652.828L745.398 648.484Z" fill="#1C4670"/>
<path d="M714.922 1047.06C712.35 1047.06 689.902 1059 677.355 1065.77C676.779 1066.08 676.315 1066.56 676.031 1067.15C675.748 1067.74 675.659 1068.41 675.778 1069.05C675.897 1069.69 676.217 1070.28 676.693 1070.73C677.168 1071.18 677.774 1071.47 678.423 1071.55L709.559 1075.58L720.067 1073.51C721.293 1073.27 722.556 1073.29 723.776 1073.56C724.996 1073.83 726.147 1074.35 727.154 1075.09L730.672 1077.69C731.467 1078.27 732.432 1078.57 733.415 1078.54L737.807 1078.37C738.38 1078.35 738.943 1078.22 739.465 1077.98C739.986 1077.74 740.456 1077.4 740.846 1076.98C741.236 1076.57 741.539 1076.07 741.738 1075.54C741.938 1075 742.028 1074.43 742.006 1073.85L740.792 1043.88L714.922 1047.06Z" fill="#28478F"/>
<path d="M846.604 1038.7C843.425 1038.7 809.207 1046.76 795.374 1050.06C794.986 1050.16 794.637 1050.37 794.378 1050.68C794.12 1050.98 793.965 1051.36 793.935 1051.76C793.905 1052.16 794.003 1052.56 794.213 1052.9C794.424 1053.24 794.737 1053.5 795.107 1053.65L816.949 1062.56L824.981 1062.85C826.439 1062.89 827.854 1063.35 829.058 1064.17C830.262 1064.99 831.206 1066.14 831.776 1067.49C832.042 1068.08 832.517 1068.55 833.111 1068.82L835.538 1069.91C836.378 1070.3 837.313 1070.45 838.232 1070.32L847.721 1069.16C849.02 1069 850.204 1068.33 851.02 1067.31C851.836 1066.28 852.219 1064.98 852.089 1063.67L846.604 1038.7Z" fill="#28478F"/>
<path d="M468.5 443.521L515.507 409.594L529.971 424.422L482.236 458.882L468.5 443.521Z" fill="#28478F"/>
<path d="M466.154 446.258L458.68 465.138L479.016 460.382L466.154 446.258Z" fill="#FAC0AC"/>
<path d="M486.853 449.037C487.414 451.211 487.304 453.503 486.538 455.613C485.771 457.723 484.384 459.551 482.558 460.857C480.732 462.163 478.554 462.885 476.309 462.929C474.065 462.973 471.86 462.337 469.984 461.104C468.109 459.87 466.651 458.098 465.802 456.02C464.953 453.942 464.753 451.655 465.229 449.462C465.705 447.268 466.833 445.269 468.467 443.73C470.1 442.19 472.161 441.18 474.379 440.835C477.12 440.282 479.968 440.833 482.304 442.369C484.64 443.905 486.275 446.302 486.853 449.037Z" fill="#28478F"/>
<path d="M533.64 415.229C534.197 417.403 534.082 419.694 533.312 421.802C532.541 423.909 531.151 425.734 529.323 427.036C527.496 428.339 525.317 429.057 523.073 429.098C520.83 429.139 518.626 428.499 516.753 427.264C514.88 426.028 513.424 424.255 512.578 422.176C511.732 420.098 511.535 417.812 512.012 415.619C512.49 413.427 513.62 411.43 515.254 409.892C516.888 408.354 518.949 407.346 521.166 407.002C523.911 406.443 526.766 406.995 529.104 408.537C531.442 410.079 533.073 412.486 533.64 415.229Z" fill="#FAC0AC"/>
<path d="M527.234 415.683C527.435 416.48 527.389 417.32 527.104 418.091C526.819 418.862 526.308 419.529 525.637 420.004C524.966 420.479 524.168 420.741 523.346 420.754C522.524 420.767 521.717 420.531 521.031 420.078C520.345 419.624 519.813 418.974 519.503 418.213C519.194 417.451 519.122 416.614 519.296 415.81C519.471 415.007 519.885 414.275 520.483 413.711C521.081 413.147 521.835 412.777 522.647 412.65C523.148 412.547 523.664 412.544 524.165 412.641C524.667 412.738 525.144 412.933 525.57 413.215C525.996 413.496 526.363 413.859 526.648 414.283C526.934 414.707 527.133 415.182 527.234 415.683Z" fill="#28478F"/>
<path d="M460.573 460.328L458.656 465.182L464.165 463.896C462.682 463.034 461.445 461.806 460.573 460.328Z" fill="#28478F"/>
<path d="M509.078 436.044C507.906 436.282 506.693 436.215 505.554 435.85C504.415 435.484 503.389 434.833 502.574 433.957C496.604 427.526 492.697 419.906 489.275 421.556C485.344 423.425 487.746 425.512 484.422 427.939C483.354 428.691 479.932 427.939 479.228 430.608C478.525 433.278 478.452 435.899 475.976 437.889C473.501 439.879 474.957 446.116 475.807 448.251C477.056 450.417 478.636 452.374 480.49 454.051C485.523 459.132 491.489 463.195 498.06 466.016C504.564 468.612 511.068 461.526 515.048 454.755C518.106 449.635 515.436 435.025 515.436 435.025C513.171 435.349 511.052 435.689 509.078 436.044Z" fill="#FAC0AC"/>
<path d="M490.125 421.372L500.415 420.547L494.323 424.915L490.125 421.372Z" fill="#FAC0AC"/>
<path d="M654.636 426.312L649.54 438.665C649.364 439.222 649.416 439.825 649.685 440.344C649.953 440.862 650.416 441.253 650.971 441.432L656.48 443.252L654.636 426.312Z" fill="#FAC0AC"/>
<path d="M593.633 533.885L673.717 552.547C682.624 553.882 679.178 487.703 679.178 487.703L636.442 493.115L604.456 491.902" fill="#FFA229"/>
<path d="M680.095 487.602L680.531 487.335C684.584 484.908 681.623 451.952 676.648 443.943L705.115 392.641C706.719 414.182 710.219 435.539 715.574 456.466C716.904 460.562 719.049 464.348 721.881 467.592C724.713 470.837 728.173 473.475 732.052 475.346" fill="#FAC0AC"/>
<path d="M692.691 458.6L696.768 437.633C696.768 437.633 690.046 451.66 689.973 452.461C689.901 453.261 682.353 459.741 681.164 460.809C682.111 467.951 682.492 475.157 682.305 482.359L692.691 458.6Z" fill="#E69E96"/>
<path d="M659.129 462.921C659.261 463.915 659.718 464.838 660.429 465.544C661.14 466.251 662.066 466.703 663.061 466.828C685.945 469.109 717.688 430.159 714.412 406.886C712.786 395.189 699.851 391.427 687.717 390.214C668.933 388.345 654.809 387.787 653.305 421.762C653.28 422.029 659.129 462.921 659.129 462.921Z" fill="#FAC0AC"/>
<path d="M655.874 403.937L653.156 399.544C651.779 397.336 651.069 394.776 651.111 392.174C651.153 389.571 651.946 387.036 653.394 384.873C654.842 382.71 656.884 381.011 659.274 379.98C661.664 378.949 664.301 378.631 666.868 379.062C696.815 384.158 722.32 392.312 722.102 406.582C721.447 445.411 716.302 455.749 716.302 455.749C716.302 455.749 699.775 464.825 695.747 432.209C682.691 442.596 676.721 409.834 676.721 409.834C676.163 404.713 663.252 405.66 655.874 403.937Z" fill="black"/>
<path d="M698.756 434.995C697.033 439.582 692.762 442.276 689.267 441.135C685.773 439.994 684.414 435.262 686.088 430.676C687.763 426.089 692.083 423.395 695.577 424.56C699.072 425.725 700.504 430.433 698.756 434.995Z" fill="#FAC0AC"/>
<path d="M604.406 491.91L578.731 487.251L507.941 448.422L488.672 459.1L573.246 523.119L595.306 529.089L604.406 491.91Z" fill="#FAC0AC"/>
<path d="M657.213 532.701C656.485 513.553 649.156 496.153 653.014 494.454C653.014 494.454 678.01 484.116 682.33 482.053C682.33 482.053 717.058 479.457 723.319 469.312C723.319 469.312 757.925 474.749 759.187 477.515C778.31 518.916 776.66 530.517 776.66 530.517L789.789 588.76L808.379 653.701C795.565 662.001 726.401 680.396 694.027 678.697C694.027 678.697 688.518 616.571 686.601 606.427C686.601 606.476 657.844 549.446 657.213 532.701Z" fill="#FFA229"/>
<g style="mix-blend-mode:multiply" opacity="0.16">
<path d="M193.52 1057.49C193.52 1065.23 153.162 1071.79 103.267 1072.05C53.3715 1072.32 12.8923 1066.35 12.8438 1058.59C12.7953 1050.82 53.2016 1044.29 103.097 1044.02C152.992 1043.76 193.471 1049.73 193.52 1057.49Z" fill="#6C467A"/>
</g>
<path d="M162.239 567.711C162.239 567.711 165.006 608.967 164.181 620.834C164.181 620.834 173.33 747.028 156.123 709.388L153.114 697.739C153.114 697.739 140.131 671.36 148.261 627.726L141.102 575.38L162.239 567.711Z" fill="#FAC0AC"/>
<path d="M133.85 595.729C133.85 595.729 156.589 772.886 160.933 843.094C161.467 851.636 156.541 862.096 152.876 869.789L150.449 881.51C149.479 893.013 142.829 929.464 140.742 940.821L125.599 1013.33L140.524 1039.91L128.39 1045.15L104.122 1018.46C104.122 1018.46 110.286 1007.61 107.422 962.905C104.656 920.096 97.9819 881.68 106.063 864.328C119.192 836.226 108.49 804.799 102.544 787.399C87.9834 745.755 26.9977 670.912 79.1256 594.734L133.85 595.729Z" fill="#FAC0AC"/>
<path d="M119.214 493.752C106.279 488.899 109.507 482.322 109.822 477.056C110.623 461.039 105.648 444.731 110.211 433.664L85.5301 422.695C85.5301 422.695 88.9034 434.441 82.715 474.459C81.2832 483.705 65.0479 493.874 63.3006 494.796C53.5933 500.28 69.7559 555.636 119.433 528.286L120.039 527.922C130.135 522.291 128.727 497.368 119.214 493.752Z" fill="#FAC0AC"/>
<path d="M110.236 473.319C109.994 469.922 110.964 468.83 110.625 465.238C98.175 463.345 88.1038 452.716 83.9297 450.07C83.9297 451.357 84.5607 460.967 84.4393 462.204C88.7348 469.072 96.2094 478.804 109.581 479.726C109.581 479.799 110.285 474.144 110.236 473.319Z" fill="#E69E96"/>
<path d="M158.933 1049.44C147.649 1046.07 141.946 1041.87 140.174 1039.08C140.732 1041.5 129.108 1040.27 119.595 1035.29C119.595 1035.29 106.612 1016.7 104.185 1018.57C98.3846 1041.96 102.316 1027.28 107.801 1059.83H113.188L114.838 1052.96C114.838 1052.96 120.808 1052.96 130.516 1059.97C140.223 1066.98 171.48 1061.21 171.48 1061.21C177.28 1057.76 171.116 1053.08 158.933 1049.44Z" fill="#526080"/>
<path d="M135.279 619.719C135.279 619.719 120.402 795.274 118.898 852.522L110.161 882.008C108.681 893.463 98.2699 944.11 95.6004 955.346L76.4772 1023.71L87.8346 1050.84L75.4822 1055.5L57.6209 1022.64C57.6209 1022.64 60.436 1022.5 61.0184 984.007C61.6494 941.101 57.9121 906.907 66.7942 889.968C81.1852 862.497 66.7942 814.567 61.6009 796.924C49.0785 754.649 40.8031 668.546 65.508 626.344L135.279 619.719Z" fill="#FAC0AC"/>
<path d="M103.9 1064.6C93.5856 1058.88 88.9261 1053.54 87.8098 1050.43C87.8098 1052.86 76.7436 1049.19 68.541 1042.28C68.541 1042.28 59.8772 1021.33 57.1107 1022.64C46.3842 1044.22 54.9508 1036.21 53.2763 1069.17L60.1442 1068.75V1058.46C60.1442 1058.46 65.9685 1059.7 73.9042 1068.71C81.8399 1077.71 113.655 1078.75 113.655 1078.75C119.989 1076.69 114.99 1070.79 103.9 1064.6Z" fill="#526080"/>
<path d="M159.881 554.518C157.77 551.048 151.921 526.076 149.033 513.796C148.395 510.108 146.588 506.722 143.879 504.14C141.169 501.557 137.701 499.914 133.987 499.454C128.939 498.823 123.26 495.158 119.062 492.95C116.805 499.648 96.5412 503.264 84.2615 496.08L72.2731 488.023C56.1106 498.968 57.7123 496.687 53.9022 499.891C35.2886 515.665 34.4877 517.873 49.8009 557.285L60.6487 578.519C63.8521 602.787 52.8101 682.386 52.8101 682.386C104.04 706.048 145.344 686.342 154.154 640.403L151.217 591.527C160.609 585.314 169.855 570.68 159.881 554.518Z" fill="#FFA229"/>
<path d="M124.163 409.279C124.163 409.279 128.046 414.594 127.026 426.412C127.547 432.585 128.397 438.726 129.574 444.808C130.327 463.688 118.047 475.531 113.582 475.434C108.977 475.214 104.462 474.085 100.297 472.11C96.1315 470.136 92.3986 467.356 89.3137 463.931C80.1161 454.054 76.937 415.395 87.081 407.459C102.904 394.985 119.333 402.703 124.163 409.279Z" fill="#FAC0AC"/>
<path d="M55.0484 642.129C55.0484 642.129 33.2071 711.779 58.1062 853.528C58.1062 853.528 85.9659 874.545 168.574 851.539C168.574 851.539 185.198 685.375 154.014 640.406C154.086 640.406 128.605 651.157 55.0484 642.129Z" fill="#1C4670"/>
<path d="M156.475 561.85L77.6131 531.768C76.6489 531.4 75.569 531.883 75.2012 532.847L34.6527 639.145C34.2848 640.109 34.7683 641.189 35.7326 641.557L114.594 671.64C115.558 672.007 116.638 671.524 117.006 670.56L157.554 564.262C157.922 563.298 157.439 562.218 156.475 561.85Z" fill="#EDEDED"/>
<path d="M86.4766 621.858C86.4766 621.858 93.4172 614.699 97.834 614.577C102.251 614.456 110.429 613.534 111.303 615.232C112.468 617.441 106.449 618.727 99.8968 619.407L86.4766 621.858Z" fill="#FAC0AC"/>
<path d="M94.073 617.82C94.073 617.82 110.818 621.194 113.342 622.31C113.969 622.549 114.514 622.965 114.909 623.508C115.305 624.05 115.534 624.696 115.57 625.366C115.606 626.037 115.447 626.703 115.112 627.285C114.777 627.867 114.28 628.339 113.682 628.644C112.323 629.348 115.38 631.993 111.764 634.735C109.508 636.458 111.473 637.162 110.017 639.128C108.852 640.681 105.697 640.147 105.164 642.04C104.387 645.534 101.014 644.273 98.4655 644.467C95.9174 644.661 86.647 642.307 80.4586 634.954C72.4744 625.416 94.073 617.82 94.073 617.82Z" fill="#FAC0AC"/>
<path d="M10.2733 573.781C2.2648 593.948 -2.3704 600.088 1.24554 609.48C5.17697 619.624 97.25 643.455 109.117 639.572L112.685 628.384C109.122 626.088 105.078 624.643 100.866 624.162C81.8155 621.177 56.0186 595.817 36.9439 591.157C36.9439 591.157 39.7832 589.094 47.9859 577.276" fill="#FAC0AC"/>
<path d="M41.6304 587.934C51.3377 571.189 68.3253 547.042 71.65 532.263C81.8669 485.401 47.0179 496.88 39.3978 516.367C30.0546 540.247 14.0133 560.972 8.60156 574.61L41.6304 587.934Z" fill="#FFA229"/>
<path d="M140.352 516.562L147.001 537.7L156.368 549.98" stroke="#28478F" stroke-width="0.5" stroke-miterlimit="10" stroke-linecap="round"/>
<path d="M125.156 428.305C127.66 433.996 131.051 439.255 135.203 443.885C137.241 445.996 130.349 452.087 127.461 452.209C121.103 452.451 125.156 428.305 125.156 428.305Z" fill="#FAC0AC"/>
<path d="M107.86 621.195C107.86 621.195 117.568 622.918 118.368 622.918C119.169 622.918 126.911 622.166 127.663 622.166C129.677 622.166 128.682 626.34 123.683 627.02C118.684 627.699 116.403 629.446 112.132 628.597C106.55 627.554 107.86 621.195 107.86 621.195Z" fill="#FAC0AC"/>
<path d="M104.067 627.664C104.067 627.664 118.312 628.465 119.186 628.368C120.059 628.271 129.209 626.548 130.082 626.475C132.509 626.281 131.757 630.48 125.884 631.717C120.011 632.955 114.89 634.629 109.891 634.411C109.04 634.43 108.194 634.261 107.416 633.915C106.637 633.569 105.945 633.056 105.388 632.411C104.832 631.766 104.424 631.006 104.196 630.186C103.968 629.365 103.923 628.504 104.067 627.664Z" fill="#FAC0AC"/>
<path d="M75.4529 409.422C77.3023 405.795 77.9213 401.664 77.2165 397.654C76.5117 393.644 74.5212 389.972 71.5458 387.193C62.6394 379.208 45.8459 382.339 40.9923 393.041C39.2185 397.549 39.2214 402.562 41.0006 407.067C42.7797 411.573 46.2024 415.235 50.5774 417.315C54.9524 419.395 59.9536 419.736 64.5708 418.271C69.1881 416.806 73.0773 413.644 75.4529 409.422Z" fill="#10233C"/>
<path d="M90.5264 438.666C92.5188 431.843 92.4089 424.578 90.2109 417.819C90.2109 417.819 105.354 401.924 122.949 407.772C122.949 407.772 94.1181 385.227 75.8685 403.817C57.6189 422.406 61.9386 448.421 84.7506 461.114L90.5264 438.666Z" fill="#10233C"/>
<path d="M79.6778 449.748C82.687 454.213 87.6862 455.887 90.8411 453.461C93.9959 451.034 94.0687 445.476 91.0352 441.011C88.0017 436.546 83.0268 434.896 79.8719 437.298C76.7171 439.701 76.6443 445.282 79.6778 449.748Z" fill="#FAC0AC"/>
<path d="M102.93 917.395L110.21 893.928C114.502 889.768 117.722 884.631 119.595 878.954C121.467 873.278 121.936 867.233 120.961 861.336" stroke="#28478F" stroke-width="0.5" stroke-miterlimit="10" stroke-linecap="round"/>
<path d="M54.3984 566.829L62.5282 546.273" stroke="#28478F" stroke-width="0.5" stroke-miterlimit="10" stroke-linecap="round"/>
</g>
<defs>
<clipPath id="clip0_365_5106">
<rect width="1080" height="1080" fill="white" transform="translate(1080 1080) rotate(180)"/>
</clipPath>
</defs>
</svg>
