<svg width="2270" height="2270" viewBox="0 0 2270 2270" fill="none" xmlns="http://www.w3.org/2000/svg">
<g clip-path="url(#clip0_620_412)">
<path opacity="0.21" d="M1135 2252.25C1751.49 2252.25 2251.25 1752.49 2251.25 1136C2251.25 519.512 1751.49 19.75 1135 19.75C518.512 19.75 18.75 519.512 18.75 1136C18.75 1752.49 518.512 2252.25 1135 2252.25Z" fill="white"/>
<path d="M1135 2073.65C1652.85 2073.65 2072.65 1653.85 2072.65 1136C2072.65 618.15 1652.85 198.35 1135 198.35C617.15 198.35 197.35 618.15 197.35 1136C197.35 1653.85 617.15 2073.65 1135 2073.65Z" fill="#FE9C28"/>
<path d="M1117.6 1074.59V1204.47C1117.6 1255.58 1111.58 1300.01 1099.53 1337.77C1087.81 1375.53 1070.89 1406.78 1048.75 1431.52C1026.94 1456.26 1000.9 1474.65 970.625 1486.7C940.352 1498.74 906.986 1504.77 870.527 1504.77C841.23 1504.77 813.887 1501.02 788.496 1493.54C763.105 1485.72 740.156 1474 719.648 1458.38C699.466 1442.43 682.051 1422.57 667.402 1398.81C652.754 1375.05 641.523 1347.05 633.711 1314.82C625.898 1282.27 621.992 1245.49 621.992 1204.47V1074.59C621.992 1023.16 627.852 978.724 639.57 941.289C651.615 903.529 668.704 872.279 690.84 847.539C712.975 822.799 739.18 804.408 769.453 792.363C799.727 780.319 833.092 774.297 869.551 774.297C898.848 774.297 926.029 778.203 951.094 786.016C976.484 793.503 999.434 805.221 1019.94 821.172C1040.45 836.797 1057.86 856.491 1072.19 880.254C1086.84 904.017 1098.07 932.174 1105.88 964.727C1113.69 996.953 1117.6 1033.57 1117.6 1074.59ZM953.047 1224.49V1053.59C953.047 1030.81 951.745 1010.95 949.141 994.023C946.862 977.096 943.281 962.773 938.398 951.055C933.841 939.336 928.145 929.896 921.309 922.734C914.473 915.247 906.66 909.876 897.871 906.621C889.408 903.04 879.967 901.25 869.551 901.25C856.53 901.25 844.811 904.017 834.395 909.551C824.303 914.759 815.677 923.223 808.516 934.941C801.354 946.66 795.82 962.285 791.914 981.816C788.333 1001.35 786.543 1025.27 786.543 1053.59V1224.49C786.543 1247.6 787.682 1267.79 789.961 1285.04C792.565 1301.97 796.146 1316.45 800.703 1328.5C805.586 1340.21 811.445 1349.82 818.281 1357.3C825.117 1364.47 832.93 1369.67 841.719 1372.93C850.508 1376.18 860.111 1377.81 870.527 1377.81C883.223 1377.81 894.616 1375.21 904.707 1370C914.798 1364.79 923.424 1356.33 930.586 1344.61C938.073 1332.57 943.607 1316.78 947.188 1297.25C951.094 1277.39 953.047 1253.14 953.047 1224.49ZM1354.65 1178.11L1223.79 1147.34L1266.76 784.062H1682.29V911.992H1401.04L1384.92 1053.11C1392.73 1048.55 1405.92 1043.18 1424.47 1036.99C1443.35 1030.48 1464.19 1027.23 1486.97 1027.23C1522.13 1027.23 1553.22 1032.6 1580.23 1043.34C1607.58 1053.76 1630.69 1069.22 1649.57 1089.73C1668.45 1109.91 1682.61 1134.81 1692.05 1164.43C1701.82 1194.06 1706.7 1227.91 1706.7 1266C1706.7 1296.6 1701.65 1326.22 1691.56 1354.86C1681.8 1383.18 1666.66 1408.74 1646.15 1431.52C1625.97 1453.98 1600.42 1471.89 1569.49 1485.23C1538.57 1498.26 1501.95 1504.77 1459.63 1504.77C1428.05 1504.77 1397.29 1499.88 1367.34 1490.12C1337.4 1480.35 1310.38 1466.35 1286.29 1448.12C1262.53 1429.57 1243.65 1407.27 1229.65 1381.23C1215.98 1354.86 1209.3 1325.4 1209.63 1292.85H1375.16C1376.13 1310.1 1380.2 1325.08 1387.36 1337.77C1394.52 1350.47 1404.13 1360.4 1416.17 1367.56C1428.54 1374.39 1442.7 1377.81 1458.65 1377.81C1474.93 1377.81 1488.44 1374.56 1499.18 1368.05C1509.92 1361.54 1518.39 1352.58 1524.57 1341.19C1530.76 1329.8 1535.15 1316.78 1537.75 1302.13C1540.36 1287.15 1541.66 1271.37 1541.66 1254.77C1541.66 1237.19 1539.71 1221.4 1535.8 1207.4C1532.22 1193.4 1526.36 1181.52 1518.22 1171.76C1510.08 1161.67 1499.51 1154.02 1486.48 1148.81C1473.79 1143.6 1458.49 1141 1440.59 1141C1416.82 1141 1398.11 1145.07 1384.43 1153.2C1370.76 1161.34 1360.83 1169.64 1354.65 1178.11Z" fill="white"/>
</g>
<defs>
<clipPath id="clip0_620_412">
<rect width="2270" height="2270" fill="white"/>
</clipPath>
</defs>
</svg>
