<svg width="2350" height="2350" viewBox="0 0 2350 2350" fill="none" xmlns="http://www.w3.org/2000/svg">
<path opacity="0.21" d="M1175 2291.25C1791.49 2291.25 2291.25 1791.49 2291.25 1175C2291.25 558.512 1791.49 58.75 1175 58.75C558.512 58.75 58.75 558.512 58.75 1175C58.75 1791.49 558.512 2291.25 1175 2291.25Z" fill="white"/>
<path d="M1175 2112.65C1692.85 2112.65 2112.65 1692.85 2112.65 1175C2112.65 657.15 1692.85 237.35 1175 237.35C657.15 237.35 237.35 657.15 237.35 1175C237.35 1692.85 657.15 2112.65 1175 2112.65Z" fill="#FE9C28"/>
<path d="M1157.6 1100.59V1230.47C1157.6 1281.58 1151.58 1326.01 1139.53 1363.77C1127.81 1401.53 1110.89 1432.78 1088.75 1457.52C1066.94 1482.26 1040.9 1500.65 1010.62 1512.7C980.352 1524.74 946.986 1530.77 910.527 1530.77C881.23 1530.77 853.887 1527.02 828.496 1519.54C803.105 1511.72 780.156 1500 759.648 1484.38C739.466 1468.43 722.051 1448.57 707.402 1424.81C692.754 1401.05 681.523 1373.05 673.711 1340.82C665.898 1308.27 661.992 1271.49 661.992 1230.47V1100.59C661.992 1049.16 667.852 1004.72 679.57 967.289C691.615 929.529 708.704 898.279 730.84 873.539C752.975 848.799 779.18 830.408 809.453 818.363C839.727 806.319 873.092 800.297 909.551 800.297C938.848 800.297 966.029 804.203 991.094 812.016C1016.48 819.503 1039.43 831.221 1059.94 847.172C1080.45 862.797 1097.86 882.491 1112.19 906.254C1126.84 930.017 1138.07 958.174 1145.88 990.727C1153.69 1022.95 1157.6 1059.57 1157.6 1100.59ZM993.047 1250.49V1079.59C993.047 1056.81 991.745 1036.95 989.141 1020.02C986.862 1003.1 983.281 988.773 978.398 977.055C973.841 965.336 968.145 955.896 961.309 948.734C954.473 941.247 946.66 935.876 937.871 932.621C929.408 929.04 919.967 927.25 909.551 927.25C896.53 927.25 884.811 930.017 874.395 935.551C864.303 940.759 855.677 949.223 848.516 960.941C841.354 972.66 835.82 988.285 831.914 1007.82C828.333 1027.35 826.543 1051.27 826.543 1079.59V1250.49C826.543 1273.6 827.682 1293.79 829.961 1311.04C832.565 1327.97 836.146 1342.45 840.703 1354.5C845.586 1366.21 851.445 1375.82 858.281 1383.3C865.117 1390.47 872.93 1395.67 881.719 1398.93C890.508 1402.18 900.111 1403.81 910.527 1403.81C923.223 1403.81 934.616 1401.21 944.707 1396C954.798 1390.79 963.424 1382.33 970.586 1370.61C978.073 1358.57 983.607 1342.78 987.188 1323.25C991.094 1303.39 993.047 1279.14 993.047 1250.49ZM1358.03 1398.93H1367.79C1400.35 1398.93 1429.64 1395.35 1455.68 1388.19C1481.73 1381.03 1504.02 1369.96 1522.58 1354.98C1541.13 1339.68 1555.29 1319.99 1565.06 1295.9C1575.15 1271.49 1580.2 1242.03 1580.2 1207.52V1060.55C1580.2 1037.76 1578.24 1018.07 1574.34 1001.47C1570.43 984.542 1564.73 970.544 1557.25 959.477C1549.76 948.409 1540.81 940.271 1530.39 935.062C1519.97 929.529 1508.26 926.762 1495.23 926.762C1482.21 926.762 1470.66 930.505 1460.57 937.992C1450.8 945.154 1442.34 954.919 1435.18 967.289C1428.34 979.333 1423.13 993.005 1419.55 1008.3C1415.97 1023.28 1414.18 1038.42 1414.18 1053.71C1414.18 1070.97 1415.97 1087.08 1419.55 1102.05C1423.46 1116.7 1428.99 1129.56 1436.15 1140.63C1443.64 1151.37 1452.92 1159.83 1463.98 1166.02C1475.38 1172.2 1488.56 1175.3 1503.54 1175.3C1518.51 1175.3 1531.37 1172.69 1542.11 1167.48C1553.18 1161.95 1562.29 1154.79 1569.45 1146C1576.61 1136.89 1581.82 1127.12 1585.08 1116.7C1588.66 1106.29 1590.29 1096.03 1589.96 1085.94L1637.81 1123.54C1637.81 1144.37 1633.09 1164.88 1623.65 1185.06C1614.21 1205.24 1601.19 1223.64 1584.59 1240.24C1567.99 1256.51 1548.78 1269.54 1526.97 1279.3C1505.49 1289.07 1482.7 1293.95 1458.61 1293.95C1426.39 1293.95 1397.25 1288.25 1371.21 1276.86C1345.49 1265.47 1323.52 1249.19 1305.29 1228.03C1287.06 1206.87 1273.07 1181.64 1263.3 1152.35C1253.86 1122.73 1249.14 1089.85 1249.14 1053.71C1249.14 1018.88 1255.16 986.169 1267.21 955.57C1279.25 924.971 1296.34 898.116 1318.48 875.004C1340.61 851.566 1366.82 833.174 1397.09 819.828C1427.36 806.482 1460.57 799.809 1496.7 799.809C1530.88 799.809 1562.94 806.319 1592.89 819.34C1622.84 832.035 1649.21 850.753 1671.99 875.492C1694.78 900.232 1712.68 930.668 1725.7 966.801C1738.72 1002.93 1745.23 1044.27 1745.23 1090.82V1147.46C1745.23 1197.92 1739.05 1243.49 1726.68 1284.18C1714.31 1324.87 1696.73 1360.68 1673.95 1391.61C1651.16 1422.2 1624.14 1447.92 1592.89 1468.75C1561.97 1489.26 1527.62 1504.72 1489.86 1515.14C1452.43 1525.56 1412.71 1530.77 1370.72 1530.77H1358.03V1398.93Z" fill="white"/>
</svg>
