<svg width="2270" height="2270" viewBox="0 0 2270 2270" fill="none" xmlns="http://www.w3.org/2000/svg">
<g clip-path="url(#clip0_620_394)">
<path opacity="0.21" d="M1135 2252.25C1751.49 2252.25 2251.25 1752.49 2251.25 1136C2251.25 519.512 1751.49 19.75 1135 19.75C518.512 19.75 18.75 519.512 18.75 1136C18.75 1752.49 518.512 2252.25 1135 2252.25Z" fill="white"/>
<path d="M1135 2073.65C1652.85 2073.65 2072.65 1653.85 2072.65 1136C2072.65 618.15 1652.85 198.35 1135 198.35C617.15 198.35 197.35 618.15 197.35 1136C197.35 1653.85 617.15 2073.65 1135 2073.65Z" fill="#FE9C28"/>
<path d="M1131.6 1040.59V1170.47C1131.6 1221.58 1125.58 1266.01 1113.53 1303.77C1101.81 1341.53 1084.89 1372.78 1062.75 1397.52C1040.94 1422.26 1014.9 1440.65 984.625 1452.7C954.352 1464.74 920.986 1470.77 884.527 1470.77C855.23 1470.77 827.887 1467.02 802.496 1459.54C777.105 1451.72 754.156 1440 733.648 1424.38C713.466 1408.43 696.051 1388.57 681.402 1364.81C666.754 1341.05 655.523 1313.05 647.711 1280.82C639.898 1248.27 635.992 1211.49 635.992 1170.47V1040.59C635.992 989.158 641.852 944.724 653.57 907.289C665.615 869.529 682.704 838.279 704.84 813.539C726.975 788.799 753.18 770.408 783.453 758.363C813.727 746.319 847.092 740.297 883.551 740.297C912.848 740.297 940.029 744.203 965.094 752.016C990.484 759.503 1013.43 771.221 1033.94 787.172C1054.45 802.797 1071.86 822.491 1086.19 846.254C1100.84 870.017 1112.07 898.174 1119.88 930.727C1127.69 962.953 1131.6 999.574 1131.6 1040.59ZM967.047 1190.49V1019.59C967.047 996.807 965.745 976.951 963.141 960.023C960.862 943.096 957.281 928.773 952.398 917.055C947.841 905.336 942.145 895.896 935.309 888.734C928.473 881.247 920.66 875.876 911.871 872.621C903.408 869.04 893.967 867.25 883.551 867.25C870.53 867.25 858.811 870.017 848.395 875.551C838.303 880.759 829.677 889.223 822.516 900.941C815.354 912.66 809.82 928.285 805.914 947.816C802.333 967.348 800.543 991.273 800.543 1019.59V1190.49C800.543 1213.6 801.682 1233.79 803.961 1251.04C806.565 1267.97 810.146 1282.45 814.703 1294.5C819.586 1306.21 825.445 1315.82 832.281 1323.3C839.117 1330.47 846.93 1335.67 855.719 1338.93C864.508 1342.18 874.111 1343.81 884.527 1343.81C897.223 1343.81 908.616 1341.21 918.707 1336C928.798 1330.79 937.424 1322.33 944.586 1310.61C952.073 1298.57 957.607 1282.78 961.188 1263.25C965.094 1243.39 967.047 1219.14 967.047 1190.49ZM1724.12 1334.05V1461H1228.02V1353.58L1456.54 1113.34C1476.72 1090.23 1493 1069.56 1505.37 1051.33C1517.74 1032.78 1526.69 1016.01 1532.22 1001.04C1538.08 986.065 1541.01 972.556 1541.01 960.512C1541.01 940.004 1537.92 922.914 1531.73 909.242C1525.88 895.245 1517.09 884.665 1505.37 877.504C1493.97 870.342 1479.81 866.762 1462.89 866.762C1445.96 866.762 1431.15 871.645 1418.45 881.41C1405.76 891.176 1395.83 904.522 1388.67 921.449C1381.83 938.376 1378.41 957.419 1378.41 978.578H1213.38C1213.38 934.958 1223.95 895.082 1245.11 858.949C1266.6 822.816 1296.38 794.008 1334.47 772.523C1372.55 750.714 1416.66 739.809 1466.79 739.809C1519.2 739.809 1563.15 747.947 1598.63 764.223C1634.11 780.499 1660.8 804.099 1678.71 835.023C1696.94 865.622 1706.05 902.569 1706.05 945.863C1706.05 970.603 1702.14 994.366 1694.33 1017.15C1686.52 1039.94 1675.29 1062.56 1660.64 1085.02C1645.99 1107.16 1628.09 1129.95 1606.93 1153.38C1586.1 1176.82 1562.33 1201.72 1535.64 1228.09L1443.84 1334.05H1724.12Z" fill="white"/>
</g>
<defs>
<clipPath id="clip0_620_394">
<rect width="2270" height="2270" fill="white"/>
</clipPath>
</defs>
</svg>
