<svg width="1080" height="1049" viewBox="0 0 1080 1049" fill="none" xmlns="http://www.w3.org/2000/svg">
<g clip-path="url(#clip0_20_68)">
<rect width="1080" height="1049" fill="white"/>
<path d="M1174.1 782.638C1239.93 900.494 1144.67 1131.73 540.57 971.027C237.683 890.452 11.4205 1071.97 -35.1835 945.266C-143.783 650.151 299.715 308.771 546.335 547.106C771.762 764.958 1054.29 568.136 1174.1 782.638Z" stroke="#E4E4E4" stroke-width="4" stroke-miterlimit="10" stroke-dasharray="32.09 32.09"/>
<path d="M1074 1045H8C41.3614 798.595 267.251 608 540.982 608C814.713 608 1040.62 798.595 1074 1045Z" fill="#F6F5F5"/>
<path d="M966.029 262H479.971C457.343 262 439 280.387 439 303.068V1001.93C439 1024.61 457.343 1043 479.971 1043H966.029C988.657 1043 1007 1024.61 1007 1001.93V303.068C1007 280.387 988.657 262 966.029 262Z" fill="#A9BAE6"/>
<path d="M958 293H489V974H958V293Z" fill="#F6F5F5"/>
<path d="M957.75 293C957.894 558.379 966.467 878.446 936.641 949.321C805.277 962.116 651.456 966.221 489 967L550.752 295.05L957.75 293Z" fill="#E4E4E4"/>
<path d="M915.451 927.604C711.214 960.347 574.725 962.076 464 953.842C478.335 800.866 484.102 546.729 489.913 293L736.024 293.552L958.764 308.281C961.978 571.619 962.336 814.872 915.451 927.604Z" fill="white"/>
<path d="M843.485 362.302L597.273 356.5L596.39 394.002L842.601 399.804L843.485 362.302Z" fill="#708CD5"/>
<path d="M890.95 454.077L668.867 448.844L668.463 466.009L890.546 471.242L890.95 454.077Z" fill="#708CD5"/>
<path d="M818.929 489.839L667.977 486.281L667.572 503.446L818.524 507.003L818.929 489.839Z" fill="#D3DFFF"/>
<path d="M598.881 448.216L546.305 446.977L545.066 499.552L597.642 500.792L598.881 448.216Z" fill="white" stroke="#708CD5" stroke-width="6" stroke-miterlimit="10"/>
<path d="M554.083 460.464C555.725 466.748 558.758 493.074 571.959 485.712C575.003 484.038 577.578 479.529 579.857 476.945L592.147 463.026L616.693 435.176C618.793 432.799 609.531 426.833 606.9 429.819L585.081 454.57L574.171 466.949C571.646 469.812 565.791 479.043 562.065 479.863L568.171 481.833C569.612 483.011 566.937 474.651 566.875 474.422C565.866 470.541 564.851 466.659 563.831 462.774C562.993 459.571 552.865 455.714 554.105 460.464H554.083Z" fill="#FFA229"/>
<path d="M849.499 548.747L666.617 544.438L666.213 561.602L849.094 565.912L849.499 548.747Z" fill="#708CD5"/>
<path d="M890.067 582.802L667.922 578.359L667.578 595.529L889.724 599.972L890.067 582.802Z" fill="#D3DFFF"/>
<path d="M596.631 543.794L544.055 542.555L542.816 595.131L595.392 596.37L596.631 543.794Z" fill="white" stroke="#708CD5" stroke-width="6" stroke-miterlimit="10"/>
<path d="M552.083 557.926C553.725 564.101 556.758 589.968 569.959 582.735C573.003 581.09 575.578 576.659 577.857 574.12L590.147 560.438L614.693 533.079C616.793 530.743 607.531 524.853 604.9 527.815L583.081 552.135L572.171 564.293C569.646 567.106 563.791 576.182 560.065 576.988L566.171 578.923C567.612 580.081 564.937 571.866 564.881 571.641C563.864 567.828 562.849 564.013 561.836 560.196C560.993 557.049 550.865 553.259 552.105 557.926H552.083Z" fill="#FFA229"/>
<path d="M886.443 645.249L664.359 640.016L663.955 657.181L886.038 662.414L886.443 645.249Z" fill="#708CD5"/>
<path d="M762.804 679.786L663.484 677.445L663.08 694.61L762.4 696.951L762.804 679.786Z" fill="#D3DFFF"/>
<path d="M594.388 639.372L541.812 638.133L540.573 690.709L593.149 691.948L594.388 639.372Z" fill="white" stroke="#708CD5" stroke-width="6" stroke-miterlimit="10"/>
<path d="M551.104 653.921C552.72 660.097 555.704 685.969 568.691 678.734C571.687 677.089 574.22 672.657 576.457 670.118L588.548 656.439L612.698 629.07C614.764 626.733 605.652 620.87 603.063 623.804L581.59 648.129L570.84 660.295C568.356 663.108 562.596 672.18 558.931 672.986L564.943 674.923C566.356 676.08 563.728 667.864 563.668 667.639C562.675 663.829 561.677 660.013 560.673 656.192C559.848 653.044 549.879 649.254 551.104 653.921Z" fill="#FFA229"/>
<path d="M886.981 736.607L664.836 732.164L664.493 749.334L886.638 753.777L886.981 736.607Z" fill="#708CD5"/>
<path d="M836.673 777.158L661.234 773.023L660.83 790.188L836.269 794.323L836.673 777.158Z" fill="#D3DFFF"/>
<path d="M592.123 734.958L539.547 733.719L538.308 786.295L590.884 787.534L592.123 734.958Z" fill="white" stroke="#708CD5" stroke-width="6" stroke-miterlimit="10"/>
<path d="M548.056 749.399C549.699 755.463 552.734 780.861 565.941 773.757C568.987 772.142 571.563 767.79 573.838 765.302L586.134 751.838L610.693 724.97C612.794 722.676 603.527 716.892 600.895 719.8L579.058 743.685L568.176 755.651C565.65 758.414 559.793 767.327 556.065 768.113L562.179 770.014C563.621 771.156 560.944 763.089 560.883 762.868C559.869 759.119 558.854 755.373 557.837 751.628C556.998 748.532 546.86 744.81 548.106 749.399H548.056Z" fill="#FFA229"/>
<path d="M747.898 832.536L659.867 830.461L659.463 847.626L747.494 849.7L747.898 832.536Z" fill="#708CD5"/>
<path d="M880.952 873.447L659.402 868L659 885.887C744.718 887.986 853.853 892.179 876.123 888.613C879.504 884.57 881.326 879.641 880.952 873.447Z" fill="#D3DFFF"/>
<path d="M590.631 829.841L538.055 828.602L536.816 881.177L589.392 882.416L590.631 829.841Z" fill="white" stroke="#708CD5" stroke-width="6" stroke-miterlimit="10"/>
<path d="M547.059 842.943C548.709 849.115 551.666 874.965 564.65 867.735C567.641 866.091 570.18 861.662 572.418 859.129L584.512 845.426L608.699 818.08C610.76 815.739 601.652 809.858 599.057 812.812L577.585 837.122L566.849 849.279C564.364 852.091 558.603 861.157 554.937 861.963L560.951 863.898C562.363 865.06 559.736 856.844 559.675 856.624C558.675 852.809 557.676 848.996 556.679 845.185C555.855 842.033 545.883 838.246 547.103 842.916L547.059 842.943Z" fill="#FFA229"/>
<path d="M828 267.33V320H617V267.33C616.995 263.333 617.777 259.373 619.301 255.679C620.825 251.985 623.062 248.628 625.882 245.802C626.559 245.119 627.274 244.475 628.025 243.875C633.454 239.349 640.297 236.88 647.357 236.898C652.728 236.9 658.029 235.689 662.868 233.354C664.915 232.362 666.868 231.183 668.701 229.832C674.864 225.262 679.395 218.824 681.626 211.471C683.864 204.102 688.405 197.65 694.579 193.064C700.752 188.478 708.232 186.002 715.916 186H729.084C736.768 186.002 744.248 188.478 750.422 193.064C756.595 197.65 761.136 204.102 763.374 211.471C765.602 218.843 770.143 225.298 776.322 229.877C778.154 231.227 780.107 232.406 782.154 233.398C786.993 235.733 792.295 236.944 797.665 236.942C805.703 236.954 813.409 240.158 819.094 245.854C824.78 251.55 827.982 259.272 828 267.33Z" fill="#FFA229"/>
<path d="M845 293V333H600V293H617.106V319.418H827.894V293H845Z" fill="#E4E4E4"/>
<path d="M722.5 235C732.717 235 741 226.941 741 217C741 207.059 732.717 199 722.5 199C712.283 199 704 207.059 704 217C704 226.941 712.283 235 722.5 235Z" fill="white"/>
<path d="M393.455 488.113C386.442 486.761 379.889 474.805 377.612 470.221C377.051 469.1 376.869 467.821 377.094 466.583L379.889 451.49C379.889 451.49 386.328 452.604 385.831 461.355C385.795 462.266 385.946 463.174 386.276 464.022L388.745 470.602L396.033 464.845L392.037 453.328C392.037 453.328 386.685 454.828 383.921 453.93C378.228 452.081 385.686 447.593 388.062 447.065C390.438 446.536 395.588 444.667 397.938 448.744C400.287 452.821 401.7 455.224 401.7 455.224C401.7 455.224 404.288 446.103 402.523 425.714C402.446 424.795 404.697 424.816 405.329 425.476C407.223 427.441 410.241 433.424 410.401 451.622C410.401 451.622 410.717 430.414 414.278 428.233C417.218 426.432 418.703 436.814 416.633 454.416C416.633 454.416 420.468 439.175 423.217 439.148C427.849 439.101 423.273 479.854 411.628 492L393.455 488.113Z" fill="#F9B384"/>
<path d="M416 482C415.791 484.028 415.561 485.994 415.31 487.895C414.594 493.933 413.56 499.929 412.213 505.856C412.15 506.11 412.108 506.342 412.046 506.574C408.468 521.366 407.819 528.634 395.6 526.69L383.046 512.237L382.921 512.089L382 511.033L384.553 503.426L384.887 502.433L386.77 496.897L387.001 496.178L390.223 486.67L391.52 482.803L416 482Z" fill="#F9B384"/>
<path d="M181.022 1005L177.8 1015.26C155.688 1022.65 142.827 1031.12 142 1041H205.877L211 1006.68C198.064 1009.87 187.693 1007.64 181.022 1005Z" fill="#1F3C88"/>
<path d="M188.941 980L181 1005.72C187.615 1008.39 197.899 1010.64 210.727 1007.39L214 985.048L188.941 980Z" fill="#F9B384"/>
<path d="M299.046 1004.87L301 979L269.707 980.603L268 1004.45C281.236 1008.56 292.216 1006.95 299.046 1004.87Z" fill="#F9B384"/>
<path d="M335 1041C334.167 1031.26 322.792 1017.93 297.846 1014.76L298.61 1004.41C291.992 1006.47 281.403 1008.06 268.595 1004L266 1040.98L335 1041Z" fill="#1F3C88"/>
<path d="M274 494.742L239 495V439H272.941L272.962 442.425L273.125 460.172L273.369 488.668L274 494.742Z" fill="#F9B384"/>
<path d="M273 463.355C266.629 470.192 250.01 462.472 243 454.941L272.835 446L273 463.355Z" fill="#E28B6D"/>
<path d="M281.999 427.59C282.008 431.615 281.692 435.634 281.056 439.61C279.296 450.398 274.644 459.686 263.916 459.974C238.562 460.693 231.333 446.474 226.555 434.843C221.778 423.213 229.531 395.185 229.531 395.185L262.344 392L280.364 406.487C281.485 413.467 282.031 420.524 281.999 427.59Z" fill="#F9B384"/>
<path d="M226.726 428C226.726 428 234.036 427.673 235.285 409.164C248.352 413.454 257.906 409.543 265.453 401.001C271.91 409.367 289.985 411.989 296.087 394.857C300.512 382.482 288.339 364.046 270.608 375.211C253.232 366.596 226.875 367.188 219.269 388.319C219.269 388.319 192.906 400.263 220.825 426.51C221.402 427.034 226.726 428 226.726 428Z" fill="#102048"/>
<path d="M326 691L306.3 992H260L271.574 699.919L278.659 696.604L326 691Z" fill="#102048"/>
<path d="M204.797 649.377L172 992H222.936L271.433 707.41L326.556 690.628L329 629.795L206.189 627L204.797 649.377Z" fill="#1F3C88"/>
<path opacity="0.6" d="M212.347 651.153C240.168 661.307 305.445 649.706 319 635.563L309.37 616L202 630.5L212.347 651.153Z" fill="#102048"/>
<path d="M317 630.402C316.097 630.779 315.174 631.176 314.229 631.532C302.935 636.109 291.225 639.587 279.261 641.919C271.527 643.449 263.691 644.408 255.816 644.788C243.465 645.479 231.078 644.478 219 641.815L234.637 496.355L236.547 478.618C236.547 478.618 257.012 503.747 279.576 476L317 630.402Z" fill="white"/>
<path opacity="0.3" d="M255.338 644.788C243.148 645.48 230.922 644.477 219 641.808L234.434 496.068L239.945 488C253.556 521.529 267.499 595.795 255.338 644.788Z" fill="#1F3C88"/>
<path d="M237.96 472C253.54 538.235 259.95 606.391 236.998 682.076C219.977 688.557 201.441 688.484 181.612 682.776L186.518 545.184L71.0093 624.687L64 581.34C108.401 538.829 185.172 474.633 237.96 472Z" fill="#708CD5"/>
<path opacity="0.3" d="M314 631.498C302.769 636.125 291.123 639.642 279.226 642C272.338 601.812 270.814 535.792 276.429 506L314 631.498Z" fill="#1F3C88"/>
<path opacity="0.6" d="M412 506.42C411.938 506.666 411.896 506.893 411.834 507.119C408.292 521.516 407.65 528.591 395.553 526.699L383.124 512.631L383 512.487L384.616 504.054L384.947 503.088L386.811 497.699L387.039 497L412 506.42Z" fill="#E28B6D"/>
<path d="M410 519.478C410 519.478 379.001 585.055 360.612 586.629C342.785 588.156 334.341 570.891 334.341 570.891L346.951 666.728C332.135 673.653 315.952 677.031 297.205 673.716C280.54 619.68 274.24 549.811 273 472C286.492 472.839 313.215 473.988 322.782 480.132C339.947 491.149 361.137 530.495 361.137 530.495L385.831 496.919L410 519.478Z" fill="#708CD5"/>
<path d="M32 427.06C32 427.06 33.9159 395.581 37.1843 397.05C40.4526 398.519 47 425.912 47 425.912L39.9964 437L32 427.06Z" fill="#6F3428"/>
<path d="M125.935 993L126.867 1003.62C127.655 1012.62 124.921 1021.58 119.264 1028.52C113.608 1035.46 105.494 1039.81 96.7057 1040.62L94.0404 1040.86C89.6894 1041.26 85.304 1040.78 81.1346 1039.45C76.9652 1038.11 73.0934 1035.95 69.7404 1033.08C66.3874 1030.21 63.6188 1026.69 61.5928 1022.73C59.5668 1018.76 58.3229 1014.42 57.9323 1009.97L57 999.347L125.935 993Z" fill="#EE6F57"/>
<path d="M81.402 493.203L12.6562 499.375L57.5958 999.953L126.342 993.781L81.402 493.203Z" fill="#FBC343"/>
<path opacity="0.3" d="M58.3308 485.144L33.9141 487.336L73.3052 926.11L97.722 923.918L58.3308 485.144Z" stroke="#6F3428" stroke-width="8" stroke-miterlimit="10"/>
<path d="M126 992.929L56.9839 999L55.1693 979.176L53.9034 965.403L50 923.071L119.037 917L122.919 959.332L124.185 973.105L126 992.929Z" fill="#102048"/>
<path d="M123.377 959.529L54.6484 965.711L55.9092 979.727L124.638 973.544L123.377 959.529Z" fill="#FBC343"/>
<path d="M12 499L31.4453 422.023C31.4453 422.023 38.1517 424.966 46.2914 420L82 492.787L12 499Z" fill="#EE6F57"/>
<path d="M231.017 424.497C230.703 423.348 225.428 421.773 224.267 421.458C222.469 420.966 220.487 420.72 218.759 421.506C212.381 424.358 213.235 433.39 216.539 438.139C218.4 440.86 221.155 442.861 224.337 443.801C225.498 444.127 236.465 444.26 235.985 442.513L231.017 424.497Z" fill="#F9B384"/>
<path d="M35.8829 603.624C35.5215 602.429 34.9211 601.319 34.1174 600.359C33.3138 599.399 32.3233 598.609 31.2052 598.037C30.087 597.464 28.8639 597.121 27.6088 597.027C26.3538 596.932 25.0924 597.089 23.8999 597.488C16.0466 600.175 9.20598 604.732 8.14587 612.488C7.18069 619.548 10.7461 642.099 26.6636 645L25.3661 633.413C25.3661 633.413 35.1129 631.161 37.0591 626.975C38.4251 624.043 38.52 611.808 35.8829 603.624Z" fill="#F9B384"/>
<path d="M329.712 526C330.462 530.961 331.099 535.937 331.708 540.919C332.316 545.9 332.844 550.903 333.42 555.879L334.882 570.866C335.307 575.874 335.726 580.85 336 585.905L335.269 586C334.495 581.039 333.854 576.063 333.245 571.081L331.561 556.121C331.09 551.118 330.542 546.137 330.146 541.123C329.75 536.11 329.297 531.113 329 526.095L329.712 526Z" fill="#1F3C88"/>
<path d="M188 525.021C188 530.61 187.889 536.198 187.765 541.782C187.642 547.365 187.443 552.964 187.292 558.547L186.603 575.282C186.321 580.86 186.03 586.432 185.621 592L185 591.958C185 586.364 185.099 580.781 185.215 575.197L185.7 558.453C185.943 552.874 186.122 547.291 186.416 541.718C186.711 536.146 186.981 530.568 187.371 525L188 525.021Z" fill="#1F3C88"/>
<path d="M256.869 423.924C257.351 425.82 256.462 427.61 254.878 427.947C253.294 428.284 251.613 426.972 251.131 425.076C250.649 423.18 251.538 421.39 253.122 421.053C254.706 420.716 256.381 422.028 256.869 423.924Z" fill="#102048"/>
<path d="M277.995 422.61C277.896 424.542 276.48 426.058 274.825 425.998C273.17 425.938 271.901 424.327 272.006 422.39C272.111 420.453 273.521 418.942 275.17 419.002C276.82 419.062 278.089 420.673 277.995 422.61Z" fill="#102048"/>
<path d="M264.92 424C265.733 425.569 265.602 427.256 266.106 428.54C266.31 429.137 266.704 429.681 267.251 430.118C267.929 430.506 268.682 430.801 269.481 430.991C270.603 431.327 271.579 431.914 272.293 432.682C272.698 433.127 272.94 433.654 272.99 434.202C273.04 434.751 272.898 435.3 272.578 435.787C271.999 436.554 271.205 437.203 270.259 437.682C269.446 438.123 268.663 438.588 267.815 439L267.221 438.441C267.844 437.829 268.526 437.27 269.179 436.687C269.807 436.233 270.327 435.692 270.715 435.09C271.214 434.213 270.122 433.251 268.58 432.758C267.779 432.464 266.622 432.209 265.691 431.446C264.871 430.755 264.339 429.88 264.167 428.938C263.775 427.185 264.226 425.682 264.012 424.199L264.92 424Z" fill="#E28B6D"/>
<path d="M246 418.714C246.35 417.692 247.13 416.786 248.22 416.135C249.341 415.449 250.72 415.055 252.155 415.009C253.545 414.948 254.928 415.192 256.141 415.712C257.354 416.233 258.346 417.007 259 417.944L258.338 418.358C256.639 417.262 254.484 416.663 252.258 416.669C251.17 416.71 250.109 416.942 249.158 417.346C248.206 417.75 247.389 418.316 246.771 419L246 418.714Z" fill="#102048"/>
<path d="M268 416.636C268.343 415.763 268.955 414.973 269.779 414.339C270.661 413.656 271.785 413.209 272.996 413.06C275.426 412.737 278.043 413.734 279 415.467L278.292 415.895C276.853 415.066 275.084 414.695 273.324 414.853C272.487 414.954 271.684 415.189 270.962 415.544C270.176 415.975 269.44 416.462 268.765 417L268 416.636Z" fill="#102048"/>
<path d="M257 444C260.279 450.256 264.632 450.938 268 444.355L257 444Z" fill="white"/>
<path opacity="0.4" d="M282 426C281.971 430.351 281.584 434.696 280.842 439C279.432 438.614 278.203 437.85 277.332 436.821C276.461 435.791 275.994 434.549 276 433.275C276.006 430.264 278.716 426.459 282 426Z" fill="#FC8879"/>
<path opacity="0.4" d="M247.5 444C251.09 444 254 441.09 254 437.5C254 433.91 251.09 431 247.5 431C243.91 431 241 433.91 241 437.5C241 441.09 243.91 444 247.5 444Z" fill="#FC8879"/>
<path d="M226.386 432C225.257 431.064 224.073 430.21 222.843 429.443C222.366 429.149 221.827 428.997 221.28 429.001C220.679 429.113 220.115 429.395 219.644 429.82L219 429.367C219.133 428.866 219.371 428.406 219.695 428.023C220.019 427.641 220.421 427.347 220.867 427.165C221.338 427.012 221.833 426.964 222.321 427.026C222.809 427.088 223.281 427.258 223.708 427.526C225.186 428.399 226.347 429.799 227 431.494L226.386 432Z" fill="#E28B6D"/>
<path opacity="0.6" d="M37 627L27.0571 656L25 633.339C31.1822 632.048 34.5571 629.673 37 627Z" fill="#6F3428"/>
<path d="M0 1044L1080 1044" stroke="#1C4670" stroke-width="8" stroke-miterlimit="10"/>
<path d="M189.201 75.0938H196.174L207.834 107.203L219.465 75.0938H226.467L210.617 117.75H205.021L189.201 75.0938ZM185.686 75.0938H192.512L193.742 104.596V117.75H185.686V75.0938ZM223.127 75.0938H229.982V117.75H221.926V104.596L223.127 75.0938ZM255.061 111.012V96.3926C255.061 95.3184 254.875 94.3906 254.504 93.6094C254.133 92.8281 253.566 92.2227 252.805 91.793C252.043 91.3633 251.076 91.1484 249.904 91.1484C248.869 91.1484 247.961 91.3242 247.18 91.6758C246.418 92.0273 245.832 92.5254 245.422 93.1699C245.012 93.7949 244.807 94.5176 244.807 95.3379H237.043C237.043 94.0293 237.355 92.7891 237.98 91.6172C238.605 90.4258 239.494 89.3711 240.646 88.4531C241.818 87.5156 243.215 86.7832 244.836 86.2559C246.477 85.7285 248.312 85.4648 250.344 85.4648C252.746 85.4648 254.885 85.875 256.76 86.6953C258.654 87.4961 260.139 88.707 261.213 90.3281C262.307 91.9492 262.854 93.9902 262.854 96.4512V110.279C262.854 111.861 262.951 113.219 263.146 114.352C263.361 115.465 263.674 116.432 264.084 117.252V117.75H256.203C255.832 116.949 255.549 115.934 255.354 114.703C255.158 113.453 255.061 112.223 255.061 111.012ZM256.145 98.4434L256.203 103.043H251.311C250.1 103.043 249.035 103.17 248.117 103.424C247.199 103.658 246.447 104.01 245.861 104.479C245.275 104.928 244.836 105.475 244.543 106.119C244.25 106.744 244.104 107.457 244.104 108.258C244.104 109.039 244.279 109.742 244.631 110.367C245.002 110.992 245.529 111.49 246.213 111.861C246.916 112.213 247.736 112.389 248.674 112.389C250.041 112.389 251.232 112.115 252.248 111.568C253.264 111.002 254.055 110.318 254.621 109.518C255.188 108.717 255.49 107.955 255.529 107.232L257.756 110.572C257.482 111.373 257.072 112.223 256.525 113.121C255.979 114.02 255.275 114.859 254.416 115.641C253.557 116.422 252.521 117.066 251.311 117.574C250.1 118.082 248.693 118.336 247.092 118.336C245.041 118.336 243.205 117.926 241.584 117.105C239.963 116.285 238.684 115.162 237.746 113.736C236.809 112.311 236.34 110.689 236.34 108.873C236.34 107.193 236.652 105.709 237.277 104.42C237.902 103.131 238.83 102.047 240.061 101.168C241.291 100.27 242.814 99.5957 244.631 99.1465C246.467 98.6777 248.566 98.4434 250.93 98.4434H256.145ZM287.258 109.078C287.258 108.414 287.082 107.818 286.73 107.291C286.379 106.764 285.715 106.285 284.738 105.855C283.781 105.406 282.375 104.986 280.52 104.596C278.879 104.244 277.365 103.805 275.979 103.277C274.592 102.75 273.4 102.115 272.404 101.373C271.408 100.611 270.627 99.7227 270.061 98.707C269.514 97.6719 269.24 96.4805 269.24 95.1328C269.24 93.8242 269.523 92.5938 270.09 91.4414C270.656 90.2695 271.477 89.2441 272.551 88.3652C273.625 87.4668 274.934 86.7637 276.477 86.2559C278.02 85.7285 279.758 85.4648 281.691 85.4648C284.387 85.4648 286.701 85.9043 288.635 86.7832C290.588 87.6621 292.082 88.873 293.117 90.416C294.152 91.9395 294.67 93.6582 294.67 95.5723H286.936C286.936 94.7324 286.74 93.9707 286.35 93.2871C285.979 92.6035 285.402 92.0566 284.621 91.6465C283.84 91.2168 282.854 91.002 281.662 91.002C280.588 91.002 279.68 91.1777 278.938 91.5293C278.215 91.8809 277.668 92.3398 277.297 92.9062C276.926 93.4727 276.74 94.0977 276.74 94.7812C276.74 95.2891 276.838 95.748 277.033 96.1582C277.248 96.5488 277.59 96.9102 278.059 97.2422C278.527 97.5742 279.162 97.877 279.963 98.1504C280.783 98.4238 281.789 98.6875 282.98 98.9414C285.344 99.4102 287.404 100.035 289.162 100.816C290.939 101.578 292.326 102.594 293.322 103.863C294.318 105.133 294.816 106.754 294.816 108.727C294.816 110.133 294.514 111.422 293.908 112.594C293.303 113.746 292.424 114.752 291.271 115.611C290.119 116.471 288.742 117.145 287.141 117.633C285.539 118.102 283.732 118.336 281.721 118.336C278.811 118.336 276.35 117.818 274.338 116.783C272.326 115.729 270.803 114.4 269.768 112.799C268.732 111.178 268.215 109.498 268.215 107.76H275.627C275.686 108.99 276.018 109.977 276.623 110.719C277.229 111.461 277.99 111.998 278.908 112.33C279.846 112.643 280.832 112.799 281.867 112.799C283.039 112.799 284.025 112.643 284.826 112.33C285.627 111.998 286.232 111.559 286.643 111.012C287.053 110.445 287.258 109.801 287.258 109.078ZM315.705 86.0508V91.6172H297.541V86.0508H315.705ZM302.404 78.2578H310.168V108.609C310.168 109.547 310.295 110.27 310.549 110.777C310.803 111.285 311.184 111.627 311.691 111.803C312.199 111.979 312.805 112.066 313.508 112.066C314.016 112.066 314.484 112.037 314.914 111.979C315.344 111.92 315.705 111.861 315.998 111.803L316.027 117.604C315.383 117.818 314.65 117.994 313.83 118.131C313.029 118.268 312.121 118.336 311.105 118.336C309.367 118.336 307.844 118.043 306.535 117.457C305.227 116.852 304.211 115.885 303.488 114.557C302.766 113.209 302.404 111.432 302.404 109.225V78.2578ZM335.1 118.336C332.697 118.336 330.539 117.945 328.625 117.164C326.711 116.383 325.08 115.299 323.732 113.912C322.404 112.506 321.379 110.875 320.656 109.02C319.953 107.145 319.602 105.133 319.602 102.984V101.812C319.602 99.3711 319.953 97.1543 320.656 95.1621C321.359 93.1504 322.355 91.4219 323.645 89.9766C324.934 88.5312 326.477 87.418 328.273 86.6367C330.07 85.8555 332.053 85.4648 334.221 85.4648C336.467 85.4648 338.449 85.8457 340.168 86.6074C341.887 87.3496 343.322 88.4043 344.475 89.7715C345.627 91.1387 346.496 92.7793 347.082 94.6934C347.668 96.5879 347.961 98.6875 347.961 100.992V104.244H323.117V98.9121H340.344V98.3262C340.305 97.0957 340.07 95.9727 339.641 94.957C339.211 93.9219 338.547 93.1016 337.648 92.4961C336.75 91.8711 335.588 91.5586 334.162 91.5586C333.01 91.5586 332.004 91.8125 331.145 92.3203C330.305 92.8086 329.602 93.5117 329.035 94.4297C328.488 95.3281 328.078 96.4023 327.805 97.6523C327.531 98.9023 327.395 100.289 327.395 101.812V102.984C327.395 104.312 327.57 105.543 327.922 106.676C328.293 107.809 328.83 108.795 329.533 109.635C330.256 110.455 331.115 111.1 332.111 111.568C333.127 112.018 334.279 112.242 335.568 112.242C337.189 112.242 338.654 111.93 339.963 111.305C341.291 110.66 342.443 109.713 343.42 108.463L347.316 112.506C346.652 113.482 345.754 114.42 344.621 115.318C343.508 116.217 342.16 116.949 340.578 117.516C338.996 118.062 337.17 118.336 335.1 118.336ZM360.881 92.5254V117.75H353.146V86.0508H360.471L360.881 92.5254ZM370.52 85.8457L370.402 93.0527C369.973 92.9746 369.484 92.916 368.938 92.877C368.41 92.8379 367.912 92.8184 367.443 92.8184C366.252 92.8184 365.207 92.9844 364.309 93.3164C363.41 93.6289 362.658 94.0879 362.053 94.6934C361.467 95.2988 361.018 96.041 360.705 96.9199C360.393 97.7793 360.217 98.7559 360.178 99.8496L358.508 99.6445C358.508 97.6328 358.713 95.7676 359.123 94.0488C359.533 92.3301 360.129 90.8262 360.91 89.5371C361.691 88.248 362.668 87.252 363.84 86.5488C365.031 85.8262 366.398 85.4648 367.941 85.4648C368.371 85.4648 368.83 85.5039 369.318 85.582C369.826 85.6406 370.227 85.7285 370.52 85.8457ZM412.619 106.676C412.619 105.855 412.492 105.123 412.238 104.479C412.004 103.814 411.564 103.219 410.92 102.691C410.295 102.145 409.406 101.617 408.254 101.109C407.121 100.582 405.656 100.035 403.859 99.4688C401.867 98.8438 400.012 98.1406 398.293 97.3594C396.574 96.5781 395.061 95.6699 393.752 94.6348C392.463 93.5996 391.457 92.4082 390.734 91.0605C390.012 89.6934 389.65 88.1113 389.65 86.3145C389.65 84.5566 390.021 82.9551 390.764 81.5098C391.525 80.0645 392.6 78.8242 393.986 77.7891C395.373 76.7344 397.004 75.9238 398.879 75.3574C400.773 74.791 402.863 74.5078 405.148 74.5078C408.312 74.5078 411.047 75.084 413.352 76.2363C415.676 77.3887 417.473 78.9512 418.742 80.9238C420.012 82.8965 420.646 85.1133 420.646 87.5742H412.619C412.619 86.2461 412.336 85.0742 411.77 84.0586C411.223 83.043 410.383 82.2422 409.25 81.6562C408.137 81.0703 406.73 80.7773 405.031 80.7773C403.391 80.7773 402.023 81.0215 400.93 81.5098C399.855 81.998 399.045 82.6621 398.498 83.502C397.971 84.3418 397.707 85.2793 397.707 86.3145C397.707 87.0957 397.893 87.7988 398.264 88.4238C398.635 89.0293 399.191 89.6055 399.934 90.1523C400.676 90.6797 401.594 91.1777 402.688 91.6465C403.801 92.0957 405.09 92.5449 406.555 92.9941C408.898 93.6973 410.949 94.4785 412.707 95.3379C414.484 96.1973 415.959 97.1738 417.131 98.2676C418.322 99.3613 419.211 100.592 419.797 101.959C420.402 103.326 420.705 104.879 420.705 106.617C420.705 108.453 420.344 110.094 419.621 111.539C418.898 112.984 417.863 114.215 416.516 115.23C415.168 116.246 413.547 117.018 411.652 117.545C409.777 118.072 407.678 118.336 405.354 118.336C403.283 118.336 401.232 118.062 399.201 117.516C397.189 116.949 395.363 116.109 393.723 114.996C392.082 113.863 390.773 112.438 389.797 110.719C388.82 108.98 388.332 106.949 388.332 104.625H396.418C396.418 105.973 396.633 107.125 397.062 108.082C397.512 109.02 398.137 109.791 398.938 110.396C399.758 110.982 400.715 111.412 401.809 111.686C402.902 111.959 404.084 112.096 405.354 112.096C406.994 112.096 408.342 111.871 409.396 111.422C410.471 110.953 411.271 110.309 411.799 109.488C412.346 108.668 412.619 107.73 412.619 106.676ZM440.568 118.336C438.166 118.336 436.008 117.945 434.094 117.164C432.18 116.383 430.549 115.299 429.201 113.912C427.873 112.506 426.848 110.875 426.125 109.02C425.422 107.145 425.07 105.133 425.07 102.984V101.812C425.07 99.3711 425.422 97.1543 426.125 95.1621C426.828 93.1504 427.824 91.4219 429.113 89.9766C430.402 88.5312 431.945 87.418 433.742 86.6367C435.539 85.8555 437.521 85.4648 439.689 85.4648C441.936 85.4648 443.918 85.8457 445.637 86.6074C447.355 87.3496 448.791 88.4043 449.943 89.7715C451.096 91.1387 451.965 92.7793 452.551 94.6934C453.137 96.5879 453.43 98.6875 453.43 100.992V104.244H428.586V98.9121H445.812V98.3262C445.773 97.0957 445.539 95.9727 445.109 94.957C444.68 93.9219 444.016 93.1016 443.117 92.4961C442.219 91.8711 441.057 91.5586 439.631 91.5586C438.479 91.5586 437.473 91.8125 436.613 92.3203C435.773 92.8086 435.07 93.5117 434.504 94.4297C433.957 95.3281 433.547 96.4023 433.273 97.6523C433 98.9023 432.863 100.289 432.863 101.812V102.984C432.863 104.312 433.039 105.543 433.391 106.676C433.762 107.809 434.299 108.795 435.002 109.635C435.725 110.455 436.584 111.1 437.58 111.568C438.596 112.018 439.748 112.242 441.037 112.242C442.658 112.242 444.123 111.93 445.432 111.305C446.76 110.66 447.912 109.713 448.889 108.463L452.785 112.506C452.121 113.482 451.223 114.42 450.09 115.318C448.977 116.217 447.629 116.949 446.047 117.516C444.465 118.062 442.639 118.336 440.568 118.336ZM466.35 92.5254V117.75H458.615V86.0508H465.939L466.35 92.5254ZM475.988 85.8457L475.871 93.0527C475.441 92.9746 474.953 92.916 474.406 92.877C473.879 92.8379 473.381 92.8184 472.912 92.8184C471.721 92.8184 470.676 92.9844 469.777 93.3164C468.879 93.6289 468.127 94.0879 467.521 94.6934C466.936 95.2988 466.486 96.041 466.174 96.9199C465.861 97.7793 465.686 98.7559 465.646 99.8496L463.977 99.6445C463.977 97.6328 464.182 95.7676 464.592 94.0488C465.002 92.3301 465.598 90.8262 466.379 89.5371C467.16 88.248 468.137 87.252 469.309 86.5488C470.5 85.8262 471.867 85.4648 473.41 85.4648C473.84 85.4648 474.299 85.5039 474.787 85.582C475.295 85.6406 475.695 85.7285 475.988 85.8457ZM491.281 111.891L498.664 86.0508H506.75L495.881 117.75H490.959L491.281 111.891ZM485.891 86.0508L493.361 111.949L493.625 117.75H488.674L477.775 86.0508H485.891ZM519.025 86.0508V117.75H511.262V86.0508H519.025ZM510.734 77.7598C510.734 76.6074 511.125 75.6504 511.906 74.8887C512.707 74.127 513.781 73.7461 515.129 73.7461C516.477 73.7461 517.541 74.127 518.322 74.8887C519.123 75.6504 519.523 76.6074 519.523 77.7598C519.523 78.8926 519.123 79.8398 518.322 80.6016C517.541 81.3633 516.477 81.7441 515.129 81.7441C513.781 81.7441 512.707 81.3633 511.906 80.6016C511.125 79.8398 510.734 78.8926 510.734 77.7598ZM539.416 112.242C540.51 112.242 541.486 112.027 542.346 111.598C543.205 111.168 543.889 110.562 544.396 109.781C544.924 109 545.207 108.092 545.246 107.057H552.541C552.502 109.205 551.896 111.129 550.725 112.828C549.553 114.527 547.99 115.875 546.037 116.871C544.104 117.848 541.936 118.336 539.533 118.336C537.092 118.336 534.963 117.926 533.146 117.105C531.33 116.285 529.816 115.143 528.605 113.678C527.414 112.213 526.516 110.514 525.91 108.58C525.324 106.646 525.031 104.576 525.031 102.369V101.432C525.031 99.2246 525.324 97.1543 525.91 95.2207C526.516 93.2871 527.414 91.5879 528.605 90.123C529.816 88.6582 531.33 87.5156 533.146 86.6953C534.963 85.875 537.082 85.4648 539.504 85.4648C542.062 85.4648 544.309 85.9629 546.242 86.959C548.195 87.9551 549.719 89.3613 550.812 91.1777C551.926 92.9941 552.502 95.1328 552.541 97.5938H545.246C545.207 96.4609 544.953 95.4453 544.484 94.5469C544.016 93.6484 543.352 92.9258 542.492 92.3789C541.633 91.832 540.588 91.5586 539.357 91.5586C538.049 91.5586 536.955 91.832 536.076 92.3789C535.217 92.9258 534.543 93.6777 534.055 94.6348C533.586 95.5723 533.254 96.627 533.059 97.7988C532.883 98.9512 532.795 100.162 532.795 101.432V102.369C532.795 103.658 532.883 104.889 533.059 106.061C533.254 107.232 533.586 108.287 534.055 109.225C534.543 110.143 535.217 110.875 536.076 111.422C536.955 111.969 538.068 112.242 539.416 112.242ZM571.936 118.336C569.533 118.336 567.375 117.945 565.461 117.164C563.547 116.383 561.916 115.299 560.568 113.912C559.24 112.506 558.215 110.875 557.492 109.02C556.789 107.145 556.438 105.133 556.438 102.984V101.812C556.438 99.3711 556.789 97.1543 557.492 95.1621C558.195 93.1504 559.191 91.4219 560.48 89.9766C561.77 88.5312 563.312 87.418 565.109 86.6367C566.906 85.8555 568.889 85.4648 571.057 85.4648C573.303 85.4648 575.285 85.8457 577.004 86.6074C578.723 87.3496 580.158 88.4043 581.311 89.7715C582.463 91.1387 583.332 92.7793 583.918 94.6934C584.504 96.5879 584.797 98.6875 584.797 100.992V104.244H559.953V98.9121H577.18V98.3262C577.141 97.0957 576.906 95.9727 576.477 94.957C576.047 93.9219 575.383 93.1016 574.484 92.4961C573.586 91.8711 572.424 91.5586 570.998 91.5586C569.846 91.5586 568.84 91.8125 567.98 92.3203C567.141 92.8086 566.438 93.5117 565.871 94.4297C565.324 95.3281 564.914 96.4023 564.641 97.6523C564.367 98.9023 564.23 100.289 564.23 101.812V102.984C564.23 104.312 564.406 105.543 564.758 106.676C565.129 107.809 565.666 108.795 566.369 109.635C567.092 110.455 567.951 111.1 568.947 111.568C569.963 112.018 571.115 112.242 572.404 112.242C574.025 112.242 575.49 111.93 576.799 111.305C578.127 110.66 579.279 109.713 580.256 108.463L584.152 112.506C583.488 113.482 582.59 114.42 581.457 115.318C580.344 116.217 578.996 116.949 577.414 117.516C575.832 118.062 574.006 118.336 571.936 118.336ZM622.473 81.5684L610.314 117.75H601.789L617.727 75.0938H623.176L622.473 81.5684ZM632.639 117.75L620.422 81.5684L619.689 75.0938H625.168L641.193 117.75H632.639ZM632.082 101.9V108.258H609.201V101.9H632.082ZM665.158 86.0508H672.189V116.783C672.189 119.654 671.564 122.086 670.314 124.078C669.084 126.09 667.355 127.613 665.129 128.648C662.902 129.703 660.314 130.23 657.365 130.23C656.096 130.23 654.719 130.055 653.234 129.703C651.77 129.352 650.354 128.795 648.986 128.033C647.639 127.291 646.516 126.324 645.617 125.133L649.104 120.562C650.158 121.793 651.35 122.721 652.678 123.346C654.006 123.99 655.441 124.312 656.984 124.312C658.547 124.312 659.875 124.02 660.969 123.434C662.082 122.867 662.932 122.027 663.518 120.914C664.123 119.82 664.426 118.473 664.426 116.871V93.2871L665.158 86.0508ZM643.742 102.281V101.666C643.742 99.2441 644.035 97.0469 644.621 95.0742C645.207 93.082 646.047 91.373 647.141 89.9473C648.254 88.5215 649.592 87.418 651.154 86.6367C652.736 85.8555 654.514 85.4648 656.486 85.4648C658.576 85.4648 660.334 85.8457 661.76 86.6074C663.205 87.3691 664.396 88.4531 665.334 89.8594C666.291 91.2656 667.033 92.9355 667.561 94.8691C668.107 96.7832 668.527 98.8926 668.82 101.197V102.867C668.547 105.113 668.107 107.174 667.502 109.049C666.916 110.924 666.135 112.564 665.158 113.971C664.182 115.357 662.971 116.432 661.525 117.193C660.08 117.955 658.381 118.336 656.428 118.336C654.475 118.336 652.717 117.936 651.154 117.135C649.592 116.334 648.254 115.211 647.141 113.766C646.047 112.32 645.207 110.621 644.621 108.668C644.035 106.715 643.742 104.586 643.742 102.281ZM651.477 101.666V102.281C651.477 103.648 651.613 104.928 651.887 106.119C652.16 107.311 652.58 108.365 653.146 109.283C653.713 110.182 654.426 110.885 655.285 111.393C656.145 111.9 657.17 112.154 658.361 112.154C659.963 112.154 661.271 111.822 662.287 111.158C663.322 110.475 664.104 109.547 664.631 108.375C665.178 107.184 665.529 105.846 665.686 104.361V99.7617C665.588 98.5898 665.373 97.5059 665.041 96.5098C664.729 95.5137 664.289 94.6543 663.723 93.9316C663.156 93.209 662.434 92.6426 661.555 92.2324C660.676 91.8223 659.631 91.6172 658.42 91.6172C657.248 91.6172 656.223 91.8809 655.344 92.4082C654.465 92.916 653.742 93.6289 653.176 94.5469C652.609 95.4648 652.18 96.5293 651.887 97.7402C651.613 98.9512 651.477 100.26 651.477 101.666ZM686.896 92.5254V117.75H679.162V86.0508H686.486L686.896 92.5254ZM696.535 85.8457L696.418 93.0527C695.988 92.9746 695.5 92.916 694.953 92.877C694.426 92.8379 693.928 92.8184 693.459 92.8184C692.268 92.8184 691.223 92.9844 690.324 93.3164C689.426 93.6289 688.674 94.0879 688.068 94.6934C687.482 95.2988 687.033 96.041 686.721 96.9199C686.408 97.7793 686.232 98.7559 686.193 99.8496L684.523 99.6445C684.523 97.6328 684.729 95.7676 685.139 94.0488C685.549 92.3301 686.145 90.8262 686.926 89.5371C687.707 88.248 688.684 87.252 689.855 86.5488C691.047 85.8262 692.414 85.4648 693.957 85.4648C694.387 85.4648 694.846 85.5039 695.334 85.582C695.842 85.6406 696.242 85.7285 696.535 85.8457ZM714.436 118.336C712.033 118.336 709.875 117.945 707.961 117.164C706.047 116.383 704.416 115.299 703.068 113.912C701.74 112.506 700.715 110.875 699.992 109.02C699.289 107.145 698.938 105.133 698.938 102.984V101.812C698.938 99.3711 699.289 97.1543 699.992 95.1621C700.695 93.1504 701.691 91.4219 702.98 89.9766C704.27 88.5312 705.812 87.418 707.609 86.6367C709.406 85.8555 711.389 85.4648 713.557 85.4648C715.803 85.4648 717.785 85.8457 719.504 86.6074C721.223 87.3496 722.658 88.4043 723.811 89.7715C724.963 91.1387 725.832 92.7793 726.418 94.6934C727.004 96.5879 727.297 98.6875 727.297 100.992V104.244H702.453V98.9121H719.68V98.3262C719.641 97.0957 719.406 95.9727 718.977 94.957C718.547 93.9219 717.883 93.1016 716.984 92.4961C716.086 91.8711 714.924 91.5586 713.498 91.5586C712.346 91.5586 711.34 91.8125 710.48 92.3203C709.641 92.8086 708.938 93.5117 708.371 94.4297C707.824 95.3281 707.414 96.4023 707.141 97.6523C706.867 98.9023 706.73 100.289 706.73 101.812V102.984C706.73 104.312 706.906 105.543 707.258 106.676C707.629 107.809 708.166 108.795 708.869 109.635C709.592 110.455 710.451 111.1 711.447 111.568C712.463 112.018 713.615 112.242 714.904 112.242C716.525 112.242 717.99 111.93 719.299 111.305C720.627 110.66 721.779 109.713 722.756 108.463L726.652 112.506C725.988 113.482 725.09 114.42 723.957 115.318C722.844 116.217 721.496 116.949 719.914 117.516C718.332 118.062 716.506 118.336 714.436 118.336ZM746.721 118.336C744.318 118.336 742.16 117.945 740.246 117.164C738.332 116.383 736.701 115.299 735.354 113.912C734.025 112.506 733 110.875 732.277 109.02C731.574 107.145 731.223 105.133 731.223 102.984V101.812C731.223 99.3711 731.574 97.1543 732.277 95.1621C732.98 93.1504 733.977 91.4219 735.266 89.9766C736.555 88.5312 738.098 87.418 739.895 86.6367C741.691 85.8555 743.674 85.4648 745.842 85.4648C748.088 85.4648 750.07 85.8457 751.789 86.6074C753.508 87.3496 754.943 88.4043 756.096 89.7715C757.248 91.1387 758.117 92.7793 758.703 94.6934C759.289 96.5879 759.582 98.6875 759.582 100.992V104.244H734.738V98.9121H751.965V98.3262C751.926 97.0957 751.691 95.9727 751.262 94.957C750.832 93.9219 750.168 93.1016 749.27 92.4961C748.371 91.8711 747.209 91.5586 745.783 91.5586C744.631 91.5586 743.625 91.8125 742.766 92.3203C741.926 92.8086 741.223 93.5117 740.656 94.4297C740.109 95.3281 739.699 96.4023 739.426 97.6523C739.152 98.9023 739.016 100.289 739.016 101.812V102.984C739.016 104.312 739.191 105.543 739.543 106.676C739.914 107.809 740.451 108.795 741.154 109.635C741.877 110.455 742.736 111.1 743.732 111.568C744.748 112.018 745.9 112.242 747.189 112.242C748.811 112.242 750.275 111.93 751.584 111.305C752.912 110.66 754.064 109.713 755.041 108.463L758.938 112.506C758.273 113.482 757.375 114.42 756.242 115.318C755.129 116.217 753.781 116.949 752.199 117.516C750.617 118.062 748.791 118.336 746.721 118.336ZM772.473 92.5547V117.75H764.738V86.0508H772.033L772.473 92.5547ZM771.33 100.758H768.957C768.957 98.5508 769.221 96.5195 769.748 94.6641C770.295 92.8086 771.096 91.1973 772.15 89.8301C773.205 88.4434 774.504 87.3691 776.047 86.6074C777.609 85.8457 779.416 85.4648 781.467 85.4648C782.893 85.4648 784.201 85.6797 785.393 86.1094C786.584 86.5195 787.609 87.1738 788.469 88.0723C789.348 88.9512 790.021 90.1035 790.49 91.5293C790.959 92.9355 791.193 94.625 791.193 96.5977V117.75H783.459V97.3887C783.459 95.9043 783.244 94.7422 782.814 93.9023C782.404 93.0625 781.809 92.4766 781.027 92.1445C780.246 91.793 779.309 91.6172 778.215 91.6172C777.004 91.6172 775.959 91.8613 775.08 92.3496C774.221 92.8184 773.508 93.4727 772.941 94.3125C772.395 95.1523 771.984 96.1191 771.711 97.2129C771.457 98.3066 771.33 99.4883 771.33 100.758ZM790.607 99.3223L787.414 99.9082C787.434 97.916 787.707 96.0508 788.234 94.3125C788.762 92.5547 789.533 91.0215 790.549 89.7129C791.584 88.3848 792.863 87.3496 794.387 86.6074C795.93 85.8457 797.707 85.4648 799.719 85.4648C801.281 85.4648 802.688 85.6895 803.938 86.1387C805.207 86.5684 806.291 87.2617 807.189 88.2188C808.088 89.1562 808.771 90.377 809.24 91.8809C809.729 93.3848 809.973 95.2207 809.973 97.3887V117.75H802.18V97.3594C802.18 95.8164 801.965 94.6348 801.535 93.8145C801.125 92.9941 800.529 92.4277 799.748 92.1152C798.967 91.7832 798.049 91.6172 796.994 91.6172C795.92 91.6172 794.982 91.8223 794.182 92.2324C793.4 92.623 792.736 93.1699 792.189 93.873C791.662 94.5762 791.262 95.3965 790.988 96.334C790.734 97.252 790.607 98.248 790.607 99.3223ZM831.154 118.336C828.752 118.336 826.594 117.945 824.68 117.164C822.766 116.383 821.135 115.299 819.787 113.912C818.459 112.506 817.434 110.875 816.711 109.02C816.008 107.145 815.656 105.133 815.656 102.984V101.812C815.656 99.3711 816.008 97.1543 816.711 95.1621C817.414 93.1504 818.41 91.4219 819.699 89.9766C820.988 88.5312 822.531 87.418 824.328 86.6367C826.125 85.8555 828.107 85.4648 830.275 85.4648C832.521 85.4648 834.504 85.8457 836.223 86.6074C837.941 87.3496 839.377 88.4043 840.529 89.7715C841.682 91.1387 842.551 92.7793 843.137 94.6934C843.723 96.5879 844.016 98.6875 844.016 100.992V104.244H819.172V98.9121H836.398V98.3262C836.359 97.0957 836.125 95.9727 835.695 94.957C835.266 93.9219 834.602 93.1016 833.703 92.4961C832.805 91.8711 831.643 91.5586 830.217 91.5586C829.064 91.5586 828.059 91.8125 827.199 92.3203C826.359 92.8086 825.656 93.5117 825.09 94.4297C824.543 95.3281 824.133 96.4023 823.859 97.6523C823.586 98.9023 823.449 100.289 823.449 101.812V102.984C823.449 104.312 823.625 105.543 823.977 106.676C824.348 107.809 824.885 108.795 825.588 109.635C826.311 110.455 827.17 111.1 828.166 111.568C829.182 112.018 830.334 112.242 831.623 112.242C833.244 112.242 834.709 111.93 836.018 111.305C837.346 110.66 838.498 109.713 839.475 108.463L843.371 112.506C842.707 113.482 841.809 114.42 840.676 115.318C839.562 116.217 838.215 116.949 836.633 117.516C835.051 118.062 833.225 118.336 831.154 118.336ZM856.789 92.8184V117.75H849.055V86.0508H856.32L856.789 92.8184ZM855.559 100.758H853.273C853.293 98.4531 853.605 96.3633 854.211 94.4883C854.816 92.6133 855.666 91.002 856.76 89.6543C857.873 88.3066 859.191 87.2715 860.715 86.5488C862.238 85.8262 863.938 85.4648 865.812 85.4648C867.336 85.4648 868.713 85.6797 869.943 86.1094C871.174 86.5391 872.229 87.2227 873.107 88.1602C874.006 89.0977 874.689 90.3281 875.158 91.8516C875.646 93.3555 875.891 95.2109 875.891 97.418V117.75H868.098V97.3594C868.098 95.9141 867.883 94.7715 867.453 93.9316C867.043 93.0918 866.438 92.4961 865.637 92.1445C864.855 91.793 863.889 91.6172 862.736 91.6172C861.545 91.6172 860.5 91.8613 859.602 92.3496C858.723 92.8184 857.98 93.4727 857.375 94.3125C856.789 95.1523 856.34 96.1191 856.027 97.2129C855.715 98.3066 855.559 99.4883 855.559 100.758ZM897.717 86.0508V91.6172H879.553V86.0508H897.717ZM884.416 78.2578H892.18V108.609C892.18 109.547 892.307 110.27 892.561 110.777C892.814 111.285 893.195 111.627 893.703 111.803C894.211 111.979 894.816 112.066 895.52 112.066C896.027 112.066 896.496 112.037 896.926 111.979C897.355 111.92 897.717 111.861 898.01 111.803L898.039 117.604C897.395 117.818 896.662 117.994 895.842 118.131C895.041 118.268 894.133 118.336 893.117 118.336C891.379 118.336 889.855 118.043 888.547 117.457C887.238 116.852 886.223 115.885 885.5 114.557C884.777 113.209 884.416 111.432 884.416 109.225V78.2578Z" fill="#1C4670"/>
</g>
<defs>
<clipPath id="clip0_20_68">
<rect width="1080" height="1049" fill="white"/>
</clipPath>
</defs>
</svg>
