<svg width="1000" height="974" viewBox="0 0 1000 974" fill="none" xmlns="http://www.w3.org/2000/svg">
<rect width="1000" height="974" fill="white"/>
<path d="M281.855 54.8984V94H273.798V54.8984H281.855ZM297.431 71.6025V77.8867H279.653V71.6025H297.431ZM299.311 54.8984V61.2095H279.653V54.8984H299.311ZM312.551 54.8984V94H304.521V54.8984H312.551ZM346.335 87.7158V94H325.522V87.7158H346.335ZM328.154 54.8984V94H320.097V54.8984H328.154ZM343.623 70.8237V76.9468H325.522V70.8237H343.623ZM346.308 54.8984V61.2095H325.522V54.8984H346.308ZM383.154 73.5361V75.3892C383.154 78.3612 382.751 81.0288 381.945 83.3921C381.14 85.7554 380.003 87.7695 378.535 89.4346C377.067 91.0817 375.312 92.3439 373.271 93.2212C371.248 94.0985 369.001 94.5371 366.53 94.5371C364.077 94.5371 361.831 94.0985 359.79 93.2212C357.766 92.3439 356.012 91.0817 354.526 89.4346C353.04 87.7695 351.885 85.7554 351.062 83.3921C350.256 81.0288 349.853 78.3612 349.853 75.3892V73.5361C349.853 70.5462 350.256 67.8786 351.062 65.5332C351.867 63.1699 353.004 61.1558 354.472 59.4907C355.958 57.8257 357.713 56.5545 359.736 55.6772C361.777 54.8 364.024 54.3613 366.477 54.3613C368.947 54.3613 371.194 54.8 373.217 55.6772C375.258 56.5545 377.013 57.8257 378.481 59.4907C379.967 61.1558 381.113 63.1699 381.918 65.5332C382.742 67.8786 383.154 70.5462 383.154 73.5361ZM375.017 75.3892V73.4824C375.017 71.4056 374.829 69.5794 374.453 68.0039C374.077 66.4284 373.522 65.1035 372.788 64.0293C372.054 62.9551 371.158 62.1494 370.102 61.6123C369.046 61.0573 367.837 60.7798 366.477 60.7798C365.116 60.7798 363.907 61.0573 362.851 61.6123C361.813 62.1494 360.926 62.9551 360.192 64.0293C359.476 65.1035 358.93 66.4284 358.554 68.0039C358.178 69.5794 357.99 71.4056 357.99 73.4824V75.3892C357.99 77.4481 358.178 79.2743 358.554 80.8677C358.93 82.4432 359.485 83.777 360.219 84.8691C360.953 85.9434 361.848 86.758 362.905 87.313C363.961 87.868 365.17 88.1455 366.53 88.1455C367.891 88.1455 369.099 87.868 370.156 87.313C371.212 86.758 372.098 85.9434 372.814 84.8691C373.531 83.777 374.077 82.4432 374.453 80.8677C374.829 79.2743 375.017 77.4481 375.017 75.3892Z" fill="#001B78"/>
<path d="M402.651 54.8984H417.233C420.223 54.8984 422.792 55.346 424.941 56.2412C427.107 57.1364 428.772 58.4613 429.936 60.2158C431.1 61.9704 431.682 64.1278 431.682 66.688C431.682 68.7827 431.324 70.582 430.607 72.0859C429.909 73.5719 428.916 74.8162 427.626 75.8188C426.355 76.8035 424.86 77.5913 423.142 78.1821L420.59 79.5249H407.915L407.861 73.2407H417.287C418.701 73.2407 419.874 72.9901 420.805 72.4888C421.736 71.9875 422.434 71.2892 422.9 70.394C423.383 69.4989 423.625 68.4604 423.625 67.2788C423.625 66.0256 423.392 64.9424 422.927 64.0293C422.461 63.1162 421.754 62.418 420.805 61.9346C419.856 61.4512 418.666 61.2095 417.233 61.2095H410.708V94H402.651V54.8984ZM424.511 94L415.595 76.5708L424.108 76.5171L433.132 93.624V94H424.511ZM450.776 94.5371C448.52 94.5371 446.497 94.179 444.707 93.4629C442.916 92.7288 441.394 91.7173 440.141 90.4282C438.906 89.1392 437.957 87.6442 437.294 85.9434C436.632 84.2246 436.301 82.3984 436.301 80.4648V79.3906C436.301 77.1885 436.614 75.1743 437.241 73.3481C437.867 71.522 438.763 69.9375 439.926 68.5947C441.108 67.252 442.54 66.2225 444.223 65.5063C445.906 64.7723 447.804 64.4053 449.917 64.4053C451.975 64.4053 453.802 64.7454 455.395 65.4258C456.988 66.1061 458.322 67.0729 459.396 68.3262C460.489 69.5794 461.312 71.0833 461.867 72.8379C462.422 74.5745 462.7 76.5081 462.7 78.6387V81.8613H439.604V76.7051H455.1V76.1143C455.1 75.04 454.903 74.0822 454.509 73.2407C454.133 72.3813 453.56 71.701 452.79 71.1997C452.02 70.6984 451.035 70.4478 449.836 70.4478C448.815 70.4478 447.938 70.6715 447.204 71.1191C446.47 71.5667 445.87 72.1934 445.405 72.999C444.957 73.8047 444.617 74.7536 444.384 75.8457C444.169 76.9199 444.062 78.1016 444.062 79.3906V80.4648C444.062 81.6286 444.223 82.7028 444.545 83.6875C444.886 84.6722 445.36 85.5226 445.969 86.2388C446.595 86.9549 447.347 87.5099 448.225 87.9038C449.12 88.2977 450.131 88.4946 451.259 88.4946C452.656 88.4946 453.954 88.2261 455.153 87.689C456.371 87.134 457.418 86.3014 458.295 85.1914L462.055 89.2734C461.446 90.1507 460.614 90.9922 459.558 91.7979C458.519 92.6035 457.266 93.266 455.798 93.7852C454.33 94.2865 452.656 94.5371 450.776 94.5371ZM485.5 64.9424H492.509V93.0332C492.509 95.6829 491.918 97.9299 490.737 99.7739C489.573 101.636 487.944 103.041 485.849 103.99C483.754 104.957 481.319 105.44 478.544 105.44C477.327 105.44 476.038 105.279 474.677 104.957C473.334 104.635 472.045 104.133 470.81 103.453C469.593 102.773 468.572 101.913 467.749 100.875L471.159 96.3096C472.054 97.348 473.093 98.1536 474.274 98.7266C475.456 99.3174 476.763 99.6128 478.195 99.6128C479.592 99.6128 480.773 99.3532 481.74 98.834C482.707 98.3327 483.45 97.5897 483.969 96.605C484.488 95.6382 484.748 94.4655 484.748 93.0869V71.6562L485.5 64.9424ZM465.949 79.8203V79.2563C465.949 77.0363 466.218 75.0221 466.755 73.2139C467.31 71.3877 468.089 69.8211 469.091 68.5142C470.112 67.2072 471.347 66.1956 472.797 65.4795C474.248 64.7633 475.886 64.4053 477.712 64.4053C479.646 64.4053 481.266 64.7633 482.573 65.4795C483.88 66.1956 484.954 67.2161 485.795 68.541C486.637 69.848 487.29 71.3966 487.756 73.187C488.239 74.9595 488.615 76.902 488.884 79.0146V80.25C488.615 82.2731 488.212 84.153 487.675 85.8896C487.138 87.6263 486.431 89.1481 485.554 90.4551C484.676 91.7441 483.584 92.7467 482.277 93.4629C480.988 94.179 479.449 94.5371 477.658 94.5371C475.868 94.5371 474.248 94.1701 472.797 93.436C471.365 92.702 470.139 91.6725 469.118 90.3477C468.098 89.0228 467.31 87.4652 466.755 85.6748C466.218 83.8844 465.949 81.9329 465.949 79.8203ZM473.684 79.2563V79.8203C473.684 81.0199 473.8 82.1388 474.033 83.1772C474.265 84.2157 474.624 85.1377 475.107 85.9434C475.608 86.7311 476.226 87.3488 476.96 87.7964C477.712 88.2261 478.598 88.4409 479.619 88.4409C481.033 88.4409 482.188 88.1455 483.083 87.5547C483.978 86.946 484.65 86.1134 485.097 85.0571C485.545 84.0008 485.804 82.7834 485.876 81.4048V77.8867C485.84 76.7588 485.688 75.7472 485.419 74.8521C485.151 73.939 484.775 73.1602 484.292 72.5156C483.808 71.8711 483.181 71.3698 482.412 71.0117C481.642 70.6536 480.729 70.4746 479.672 70.4746C478.652 70.4746 477.766 70.7074 477.014 71.1729C476.28 71.6204 475.662 72.2381 475.161 73.0259C474.677 73.8136 474.31 74.7446 474.06 75.8188C473.809 76.8752 473.684 78.021 473.684 79.2563ZM506.689 64.9424V94H498.928V64.9424H506.689ZM498.444 57.3691C498.444 56.2412 498.838 55.3102 499.626 54.5762C500.414 53.8421 501.47 53.4751 502.795 53.4751C504.102 53.4751 505.149 53.8421 505.937 54.5762C506.743 55.3102 507.146 56.2412 507.146 57.3691C507.146 58.4971 506.743 59.4281 505.937 60.1621C505.149 60.8962 504.102 61.2632 502.795 61.2632C501.47 61.2632 500.414 60.8962 499.626 60.1621C498.838 59.4281 498.444 58.4971 498.444 57.3691ZM528.791 85.9702C528.791 85.4152 528.63 84.9139 528.308 84.4663C527.985 84.0187 527.386 83.6069 526.508 83.231C525.649 82.8371 524.405 82.479 522.775 82.1567C521.307 81.8345 519.938 81.4316 518.667 80.9482C517.413 80.4469 516.321 79.8472 515.39 79.1489C514.477 78.4507 513.761 77.6271 513.242 76.6782C512.722 75.7114 512.463 74.6104 512.463 73.375C512.463 72.1576 512.722 71.0117 513.242 69.9375C513.779 68.8633 514.54 67.9144 515.524 67.0908C516.527 66.2493 517.744 65.5959 519.177 65.1304C520.627 64.647 522.256 64.4053 524.064 64.4053C526.589 64.4053 528.755 64.8081 530.563 65.6138C532.39 66.4194 533.786 67.5295 534.753 68.9438C535.738 70.3403 536.23 71.9338 536.23 73.7241H528.496C528.496 72.9722 528.334 72.3008 528.012 71.71C527.708 71.1012 527.224 70.6268 526.562 70.2866C525.917 69.9285 525.076 69.7495 524.038 69.7495C523.178 69.7495 522.435 69.9017 521.809 70.2061C521.182 70.4925 520.699 70.8864 520.358 71.3877C520.036 71.8711 519.875 72.4082 519.875 72.999C519.875 73.4466 519.965 73.8494 520.144 74.2075C520.34 74.5477 520.654 74.861 521.083 75.1475C521.513 75.4339 522.068 75.7025 522.749 75.9531C523.447 76.1859 524.306 76.4007 525.327 76.5977C527.421 77.0273 529.292 77.5913 530.939 78.2896C532.587 78.9699 533.894 79.9009 534.86 81.0825C535.827 82.2463 536.311 83.777 536.311 85.6748C536.311 86.9639 536.024 88.1455 535.451 89.2197C534.878 90.2939 534.055 91.2339 532.98 92.0396C531.906 92.8273 530.617 93.445 529.113 93.8926C527.627 94.3223 525.953 94.5371 524.091 94.5371C521.388 94.5371 519.096 94.0537 517.216 93.0869C515.354 92.1201 513.94 90.8937 512.973 89.4077C512.024 87.9038 511.55 86.3641 511.55 84.7886H518.881C518.917 85.8449 519.186 86.6953 519.687 87.3398C520.206 87.9844 520.86 88.4499 521.647 88.7363C522.453 89.0228 523.321 89.166 524.252 89.166C525.255 89.166 526.088 89.0317 526.75 88.7632C527.412 88.4767 527.914 88.1007 528.254 87.6353C528.612 87.1519 528.791 86.5968 528.791 85.9702ZM555.566 64.9424V70.4209H538.647V64.9424H555.566ZM542.836 57.772H550.571V85.2451C550.571 86.0866 550.678 86.7311 550.893 87.1787C551.126 87.6263 551.466 87.9396 551.914 88.1187C552.361 88.2798 552.925 88.3604 553.605 88.3604C554.089 88.3604 554.519 88.3424 554.895 88.3066C555.288 88.2529 555.62 88.1992 555.888 88.1455L555.915 93.8389C555.253 94.0537 554.536 94.2238 553.767 94.3491C552.997 94.4744 552.146 94.5371 551.215 94.5371C549.514 94.5371 548.028 94.2596 546.757 93.7046C545.504 93.1317 544.537 92.2186 543.857 90.9653C543.177 89.7121 542.836 88.0649 542.836 86.0239V57.772ZM567.705 71.2803V94H559.97V64.9424H567.248L567.705 71.2803ZM576.459 64.7544L576.325 71.9248C575.949 71.8711 575.493 71.8263 574.956 71.7905C574.436 71.7368 573.962 71.71 573.532 71.71C572.44 71.71 571.491 71.8532 570.686 72.1396C569.898 72.4082 569.235 72.811 568.698 73.3481C568.179 73.8853 567.785 74.5387 567.517 75.3086C567.266 76.0785 567.123 76.9557 567.087 77.9404L565.529 77.457C565.529 75.5771 565.717 73.8494 566.093 72.2739C566.469 70.6805 567.015 69.293 567.731 68.1113C568.465 66.9297 569.361 66.0166 570.417 65.3721C571.473 64.7275 572.682 64.4053 574.042 64.4053C574.472 64.4053 574.911 64.4411 575.358 64.5127C575.806 64.5664 576.173 64.647 576.459 64.7544ZM594.882 87.4473V74.5029C594.882 73.5719 594.73 72.7752 594.426 72.1128C594.121 71.4325 593.647 70.9043 593.002 70.5283C592.376 70.1523 591.561 69.9644 590.559 69.9644C589.699 69.9644 588.956 70.1165 588.33 70.4209C587.703 70.7074 587.22 71.1281 586.879 71.6831C586.539 72.2202 586.369 72.8558 586.369 73.5898H578.635C578.635 72.3545 578.921 71.1818 579.494 70.0718C580.067 68.9618 580.9 67.986 581.992 67.1445C583.084 66.2852 584.382 65.6138 585.886 65.1304C587.408 64.647 589.108 64.4053 590.988 64.4053C593.244 64.4053 595.249 64.7812 597.004 65.5332C598.758 66.2852 600.137 67.4131 601.14 68.917C602.16 70.4209 602.67 72.3008 602.67 74.5566V86.9907C602.67 88.5841 602.769 89.8911 602.966 90.9116C603.163 91.9142 603.449 92.7915 603.825 93.5435V94H596.01C595.634 93.2122 595.348 92.2275 595.151 91.0459C594.972 89.8464 594.882 88.6468 594.882 87.4473ZM595.903 76.3022L595.957 80.6797H591.633C590.612 80.6797 589.726 80.7961 588.974 81.0288C588.222 81.2616 587.604 81.5928 587.121 82.0225C586.638 82.4342 586.28 82.9176 586.047 83.4727C585.832 84.0277 585.725 84.6364 585.725 85.2988C585.725 85.9613 585.877 86.561 586.181 87.0981C586.486 87.6174 586.924 88.0291 587.497 88.3335C588.07 88.62 588.741 88.7632 589.511 88.7632C590.675 88.7632 591.687 88.5304 592.546 88.0649C593.405 87.5994 594.068 87.0265 594.533 86.3462C595.017 85.6659 595.267 85.0213 595.285 84.4126L597.326 87.689C597.04 88.423 596.646 89.1839 596.145 89.9717C595.661 90.7594 595.043 91.5024 594.292 92.2007C593.54 92.881 592.635 93.445 591.579 93.8926C590.523 94.3223 589.27 94.5371 587.819 94.5371C585.975 94.5371 584.301 94.1701 582.797 93.436C581.311 92.6841 580.13 91.6546 579.252 90.3477C578.393 89.0228 577.963 87.5189 577.963 85.8359C577.963 84.3141 578.25 82.9624 578.823 81.7808C579.396 80.5991 580.237 79.6055 581.347 78.7998C582.475 77.9762 583.881 77.3586 585.563 76.9468C587.246 76.5171 589.198 76.3022 591.418 76.3022H595.903ZM622.866 64.9424V70.4209H605.947V64.9424H622.866ZM610.136 57.772H617.871V85.2451C617.871 86.0866 617.978 86.7311 618.193 87.1787C618.426 87.6263 618.766 87.9396 619.213 88.1187C619.661 88.2798 620.225 88.3604 620.905 88.3604C621.389 88.3604 621.818 88.3424 622.194 88.3066C622.588 88.2529 622.919 88.1992 623.188 88.1455L623.215 93.8389C622.552 94.0537 621.836 94.2238 621.066 94.3491C620.297 94.4744 619.446 94.5371 618.515 94.5371C616.814 94.5371 615.328 94.2596 614.057 93.7046C612.804 93.1317 611.837 92.2186 611.157 90.9653C610.476 89.7121 610.136 88.0649 610.136 86.0239V57.772ZM635.434 64.9424V94H627.673V64.9424H635.434ZM627.189 57.3691C627.189 56.2412 627.583 55.3102 628.371 54.5762C629.159 53.8421 630.215 53.4751 631.54 53.4751C632.847 53.4751 633.894 53.8421 634.682 54.5762C635.488 55.3102 635.891 56.2412 635.891 57.3691C635.891 58.4971 635.488 59.4281 634.682 60.1621C633.894 60.8962 632.847 61.2632 631.54 61.2632C630.215 61.2632 629.159 60.8962 628.371 60.1621C627.583 59.4281 627.189 58.4971 627.189 57.3691ZM640.59 79.7666V79.2026C640.59 77.0721 640.895 75.1117 641.503 73.3213C642.112 71.513 642.998 69.9465 644.162 68.6216C645.326 67.2967 646.758 66.2673 648.459 65.5332C650.16 64.7812 652.111 64.4053 654.313 64.4053C656.516 64.4053 658.476 64.7812 660.195 65.5332C661.914 66.2673 663.355 67.2967 664.519 68.6216C665.7 69.9465 666.595 71.513 667.204 73.3213C667.813 75.1117 668.117 77.0721 668.117 79.2026V79.7666C668.117 81.8792 667.813 83.8397 667.204 85.6479C666.595 87.4383 665.7 89.0049 664.519 90.3477C663.355 91.6725 661.923 92.702 660.222 93.436C658.521 94.1701 656.569 94.5371 654.367 94.5371C652.165 94.5371 650.205 94.1701 648.486 93.436C646.785 92.702 645.344 91.6725 644.162 90.3477C642.998 89.0049 642.112 87.4383 641.503 85.6479C640.895 83.8397 640.59 81.8792 640.59 79.7666ZM648.325 79.2026V79.7666C648.325 80.984 648.432 82.1209 648.647 83.1772C648.862 84.2336 649.202 85.1646 649.667 85.9702C650.151 86.758 650.778 87.3757 651.547 87.8232C652.317 88.2708 653.257 88.4946 654.367 88.4946C655.441 88.4946 656.363 88.2708 657.133 87.8232C657.903 87.3757 658.521 86.758 658.986 85.9702C659.452 85.1646 659.792 84.2336 660.007 83.1772C660.24 82.1209 660.356 80.984 660.356 79.7666V79.2026C660.356 78.021 660.24 76.911 660.007 75.8726C659.792 74.8162 659.443 73.8853 658.959 73.0796C658.494 72.256 657.876 71.6115 657.106 71.146C656.337 70.6805 655.406 70.4478 654.313 70.4478C653.221 70.4478 652.29 70.6805 651.521 71.146C650.769 71.6115 650.151 72.256 649.667 73.0796C649.202 73.8853 648.862 74.8162 648.647 75.8726C648.432 76.911 648.325 78.021 648.325 79.2026ZM680.444 71.146V94H672.709V64.9424H679.96L680.444 71.146ZM679.316 78.4507H677.221C677.221 76.3022 677.499 74.3687 678.054 72.6499C678.609 70.9132 679.388 69.4362 680.39 68.2188C681.393 66.9834 682.583 66.0435 683.962 65.3989C685.358 64.7365 686.916 64.4053 688.635 64.4053C689.995 64.4053 691.24 64.6022 692.368 64.9961C693.496 65.39 694.462 66.0166 695.268 66.876C696.092 67.7354 696.718 68.8722 697.148 70.2866C697.596 71.701 697.819 73.4287 697.819 75.4697V94H690.031V75.4429C690.031 74.1538 689.852 73.1512 689.494 72.4351C689.136 71.7189 688.608 71.2176 687.91 70.9312C687.229 70.6268 686.388 70.4746 685.385 70.4746C684.347 70.4746 683.443 70.6805 682.673 71.0923C681.921 71.5041 681.294 72.077 680.793 72.811C680.31 73.5272 679.943 74.3687 679.692 75.3354C679.441 76.3022 679.316 77.3407 679.316 78.4507Z" fill="#FFA229"/>
<path d="M337.595 864.959C198.86 883.03 56.9836 902.665 40.5527 906.054C-25.607 919.477 69.0939 927.557 208.33 931.531C395.987 936.896 578.057 939.85 643.147 936.723C918.914 923.43 962.25 884.334 966.854 868.543C975.779 837.918 931.679 840.676 865.978 837.462C674.94 828.057 471.835 847.409 337.595 864.959Z" fill="#FFE9C8"/>
<path d="M860 283H848V834H860V283Z" fill="#44435E"/>
<path d="M955 359H739L778.709 200H915.291L955 359Z" fill="url(#paint0_linear_20_1918)"/>
<path style="mix-blend-mode:overlay" opacity="0.7" d="M906.309 359H941L898.801 200H863L906.309 359Z" fill="url(#paint1_linear_20_1918)"/>
<path d="M791.559 833H915.441C917.18 833 918.849 833.681 920.079 834.894C921.309 836.107 922 837.752 922 839.468V842.852C922 843.687 921.664 844.488 921.065 845.078C920.466 845.668 919.654 846 918.808 846H788.192C787.346 846 786.534 845.668 785.935 845.078C785.336 844.488 785 843.687 785 842.852V839.468C785 837.752 785.691 836.107 786.921 834.894C788.151 833.681 789.82 833 791.559 833Z" fill="#44435E"/>
<path style="mix-blend-mode:multiply" d="M791.559 833H915.441C917.18 833 918.849 833.681 920.079 834.894C921.309 836.107 922 837.752 922 839.468V842.852C922 843.687 921.664 844.488 921.065 845.078C920.466 845.668 919.654 846 918.808 846H788.192C787.346 846 786.534 845.668 785.935 845.078C785.336 844.488 785 843.687 785 842.852V839.468C785 837.752 785.691 836.107 786.921 834.894C788.151 833.681 789.82 833 791.559 833Z" fill="url(#paint2_linear_20_1918)"/>
<path d="M737 801.325C737 801.325 778.771 723.421 925 743.224C925 743.311 776.199 849.874 737 801.325Z" fill="url(#paint3_linear_20_1918)"/>
<path style="mix-blend-mode:multiply" d="M737 801.325C737 801.325 778.771 723.421 925 743.224C925 743.311 776.199 849.874 737 801.325Z" fill="url(#paint4_linear_20_1918)"/>
<path style="mix-blend-mode:multiply" d="M886 753C803.476 762.678 729.229 804.774 659 847" stroke="url(#paint5_linear_20_1918)" stroke-miterlimit="10"/>
<path d="M670.743 812C670.743 812 737.272 753.499 684.903 615C684.903 615 614.605 784.685 670.743 812Z" fill="url(#paint6_linear_20_1918)"/>
<path style="mix-blend-mode:multiply" d="M670.743 812C670.743 812 737.272 753.499 684.903 615C684.903 615 614.605 784.685 670.743 812Z" fill="url(#paint7_linear_20_1918)"/>
<path style="mix-blend-mode:multiply" d="M684.837 655C690.784 703.66 683.756 752.757 672.445 800.106C669.245 813.484 665.72 826.753 662 840" stroke="url(#paint8_linear_20_1918)" stroke-miterlimit="10"/>
<path d="M732.94 783.892C732.94 783.892 827.397 822.706 879 626C879 626 705.513 682.009 732.94 783.892Z" fill="url(#paint9_linear_20_1918)"/>
<path style="mix-blend-mode:multiply" d="M732.94 783.892C732.94 783.892 827.397 822.706 879 626C879 626 705.513 682.009 732.94 783.892Z" fill="url(#paint10_linear_20_1918)"/>
<path style="mix-blend-mode:multiply" d="M852 661C828.788 702.61 791.558 740.016 751.554 769.165C736.972 779.934 721.381 789.256 705 797" stroke="url(#paint11_linear_20_1918)" stroke-miterlimit="10"/>
<path d="M692.205 781C692.205 781 796.862 747.7 778.934 603C778.934 602.978 654.198 695.597 692.205 781Z" fill="url(#paint12_linear_20_1918)"/>
<path style="mix-blend-mode:multiply" d="M692.205 781C692.205 781 796.862 747.7 778.934 603C778.934 602.978 654.198 695.597 692.205 781Z" fill="url(#paint13_linear_20_1918)"/>
<path style="mix-blend-mode:multiply" d="M764 640C749.916 688.589 725.892 734.813 694.143 776.965C684.727 789.181 674.665 800.877 664 812" stroke="url(#paint14_linear_20_1918)" stroke-miterlimit="10"/>
<path d="M655.124 842.033C653.123 832.375 675.846 808.598 691.872 800.499C748.582 771.849 858 847.209 858 847.209C856.63 853.272 662.517 877.677 655.124 842.033Z" fill="url(#paint15_linear_20_1918)"/>
<path style="mix-blend-mode:multiply" d="M655.124 842.033C653.123 832.375 675.846 808.598 691.872 800.499C748.582 771.849 858 847.209 858 847.209C856.63 853.272 662.517 877.677 655.124 842.033Z" fill="url(#paint16_linear_20_1918)"/>
<path style="mix-blend-mode:multiply" d="M817 833.173C768.767 817.204 719.923 816.202 674.158 834.611C661.543 839.972 649.441 846.461 638 854" stroke="url(#paint17_linear_20_1918)" stroke-miterlimit="10"/>
<path d="M611.156 853.69C611.156 853.69 598.882 753.035 792 745C792 745.044 697.752 902.249 611.156 853.69Z" fill="url(#paint18_linear_20_1918)"/>
<path style="mix-blend-mode:multiply" d="M611.156 853.69C611.156 853.69 598.882 753.035 792 745C792 745.044 697.752 902.249 611.156 853.69Z" fill="url(#paint19_linear_20_1918)"/>
<path style="mix-blend-mode:multiply" d="M753 764C706.777 781.265 664.28 807.146 627.779 840.259C617.583 849.575 607.972 859.508 599 870" stroke="url(#paint20_linear_20_1918)" stroke-miterlimit="10"/>
<path d="M182 848.013C182 848.013 148.573 764.194 21 778.683C20.9127 778.683 146.149 897.297 182 848.013Z" fill="url(#paint21_linear_20_1918)"/>
<path style="mix-blend-mode:multiply" d="M182 848.013C182 848.013 148.573 764.194 21 778.683C20.9127 778.683 146.149 897.297 182 848.013Z" fill="url(#paint22_linear_20_1918)"/>
<path style="mix-blend-mode:multiply" d="M54 790C125.025 803.628 187.736 851.521 247 899" stroke="url(#paint23_linear_20_1918)" stroke-miterlimit="10"/>
<path d="M276.763 838C276.763 838 188.073 802.692 181 627C181.044 627 319.66 783.231 276.763 838Z" fill="url(#paint24_linear_20_1918)"/>
<path style="mix-blend-mode:multiply" d="M276.763 838C276.763 838 188.073 802.692 181 627C181.044 627 319.66 783.231 276.763 838Z" fill="url(#paint25_linear_20_1918)"/>
<path style="mix-blend-mode:multiply" d="M198 671C223.575 766.174 281.648 845.95 339 921" stroke="url(#paint26_linear_20_1918)" stroke-miterlimit="10"/>
<path d="M234.589 832.005C234.589 832.005 124.843 869.391 65 680C65 680 266.419 734.021 234.589 832.005Z" fill="url(#paint27_linear_20_1918)"/>
<path style="mix-blend-mode:multiply" d="M234.589 832.005C234.589 832.005 124.843 869.391 65 680C65 680 266.419 734.021 234.589 832.005Z" fill="url(#paint28_linear_20_1918)"/>
<path style="mix-blend-mode:multiply" d="M97 714C123.849 754.143 166.859 790.105 213.172 818.187C230.304 828.69 248.315 837.662 267 845" stroke="url(#paint29_linear_20_1918)" stroke-miterlimit="10"/>
<path d="M271.408 865C271.408 865 288.189 733.378 143 677C143.044 676.934 173.065 861.59 271.408 865Z" fill="url(#paint30_linear_20_1918)"/>
<path style="mix-blend-mode:multiply" d="M271.408 865C271.408 865 288.189 733.378 143 677C143.044 676.934 173.065 861.59 271.408 865Z" fill="url(#paint31_linear_20_1918)"/>
<path style="mix-blend-mode:multiply" d="M171 712C210.233 752.765 242.928 803.153 267.885 859.826C275.143 876.237 281.224 893.476 287 911" stroke="url(#paint32_linear_20_1918)" stroke-miterlimit="10"/>
<path d="M250.861 892.916C253.04 882.702 229.074 857.475 212.124 848.899C152.34 818.499 37 898.415 37 898.415C38.3726 904.831 243.171 930.647 250.861 892.916Z" fill="url(#paint33_linear_20_1918)"/>
<path style="mix-blend-mode:multiply" d="M250.861 892.916C253.04 882.702 229.074 857.475 212.124 848.899C152.34 818.499 37 898.415 37 898.415C38.3726 904.831 243.171 930.647 250.861 892.916Z" fill="url(#paint34_linear_20_1918)"/>
<path style="mix-blend-mode:multiply" d="M80 883.91C130.656 866.979 181.967 865.903 230.029 885.447C243.284 891.112 255.994 897.992 268 906" stroke="url(#paint35_linear_20_1918)" stroke-miterlimit="10"/>
<path d="M326 895.864C326 895.864 316.471 789.389 116 823.874C116 823.874 247.634 965.184 326 895.864Z" fill="url(#paint36_linear_20_1918)"/>
<path style="mix-blend-mode:multiply" d="M326 895.864C326 895.864 316.471 789.389 116 823.874C116 823.874 247.634 965.184 326 895.864Z" fill="url(#paint37_linear_20_1918)"/>
<path style="mix-blend-mode:multiply" d="M161 835C212.394 842.594 261.866 859.83 306.784 885.79C319.342 893.117 331.437 901.202 343 910" stroke="url(#paint38_linear_20_1918)" stroke-miterlimit="10"/>
<path d="M681.341 864.491L283.108 924.56C271.264 926.349 259.988 917.232 257.981 904.21L159.197 269.497C157.125 256.061 165.392 244.719 177.628 244.13L587.945 224.827C598.632 224.325 608.709 234.031 610.476 246.529L696.871 839.67C698.682 851.775 691.702 862.921 681.341 864.491Z" fill="#44435E"/>
<path d="M688.91 868.37L291.745 928.613C279.924 930.402 268.691 921.328 266.684 908.307L168.14 274.553C166.09 261.161 174.334 249.819 186.549 249.23L595.754 229.6C606.398 229.076 616.453 238.782 618.219 251.259L704.484 843.549C706.207 855.698 699.249 866.8 688.91 868.37Z" fill="#5D5E8A"/>
<path style="mix-blend-mode:multiply" d="M688.91 868.37L291.767 928.614C279.923 930.402 268.668 921.329 266.683 908.329L168.139 274.554C166.089 261.161 174.356 249.819 186.548 249.231L258.94 245.763L506.74 233.875L595.753 229.513C606.397 229.011 616.452 238.696 618.241 251.172L704.483 843.462C706.206 855.698 699.27 866.8 688.91 868.37Z" fill="url(#paint39_linear_20_1918)"/>
<g style="mix-blend-mode:multiply">
<path d="M613.333 282.37L228.165 290.789L234.097 338.273L244.872 424.384L303.196 888.489L679.574 844.299L628.078 407.895L618.568 326.996L613.333 282.37Z" fill="#CFCFCF"/>
</g>
<path d="M594.14 268.107L209.386 295.895L217.304 343.422L231.634 429.49L308.497 891.915L681.735 829.033L613.792 393.741L601.142 312.777L594.14 268.107Z" fill="#EDE9F1"/>
<g style="mix-blend-mode:multiply">
<path d="M595.143 271.379L208.317 284.902L214.86 332.538L226.704 418.846L290.633 883.692L667.819 834.376L595.143 271.379Z" fill="#CFCFCF"/>
</g>
<path d="M664.875 823.079L288.366 879.156L204.108 328.155L590.454 304.795L664.875 823.079Z" fill="white"/>
<path d="M602.1 386.006L217.324 414.535L196.8 280.46L584.019 259.979L602.1 386.006Z" fill="white"/>
<path d="M297.874 492.373L571.127 466.2" stroke="#1C4670" stroke-miterlimit="10"/>
<path d="M308.692 563.801L581.073 534.77" stroke="#1C4670" stroke-miterlimit="10"/>
<path d="M319.468 635.018L591.02 603.152" stroke="#1C4670" stroke-miterlimit="10"/>
<path d="M330.22 705.993L600.922 671.312" stroke="#1C4670" stroke-miterlimit="10"/>
<path d="M339.948 770.174L609.865 732.964" stroke="#1C4670" stroke-miterlimit="10"/>
<g style="mix-blend-mode:multiply">
<path d="M513.525 275.075L508.421 239.785C508.124 237.749 507.56 235.761 506.742 233.874L258.942 245.761C258.659 247.765 258.659 249.799 258.942 251.803L264.373 288.228C264.619 290.312 265.607 292.237 267.158 293.651C268.708 295.065 270.716 295.873 272.814 295.927L507.81 283.298C511.649 283.058 514.158 279.394 513.525 275.075Z" fill="#CFCFCF"/>
</g>
<path d="M422.397 182.163L420.804 178.607C412.909 160.962 397.226 148.071 380.453 146.893C360.496 145.367 344.355 159.566 341.193 180.745L340.495 185.5C337.267 207.028 321.737 222.121 301.801 223.037L277.809 224.128C268.059 224.564 261.472 233.812 263.108 244.783L268.582 281.23C268.828 283.311 269.813 285.233 271.359 286.647C272.905 288.06 274.908 288.871 277.002 288.93L511.998 276.279C515.728 276.083 518.258 272.397 517.626 268.078L512.5 232.787C510.973 222.187 502.27 213.92 493.088 214.334L470.186 215.381C450.904 216.188 431.71 202.84 422.397 182.163ZM384.968 205.893C376.244 206.264 367.868 198.456 366.385 188.444C364.902 178.433 370.747 170.014 379.624 169.686C388.502 169.359 396.681 177.146 398.164 187.136C399.647 197.125 393.693 205.501 384.968 205.893Z" fill="url(#paint40_linear_20_1918)"/>
<path d="M289.617 371.172L293.403 393.605L291.488 393.77L287.702 371.338L289.617 371.172ZM301.913 380.583L302.189 382.216L290.996 383.183L290.721 381.55L301.913 380.583ZM301.743 370.124L302.019 371.758L289.254 372.86L288.978 371.227L301.743 370.124ZM307.97 369.586L311.756 392.019L309.842 392.185L306.055 369.752L307.97 369.586ZM331.736 388.652L332.009 390.269L319.26 391.371L318.987 389.753L331.736 388.652ZM316.049 368.888L319.836 391.321L317.921 391.486L314.135 369.054L316.049 368.888ZM328.333 378.035L328.606 379.652L317.445 380.617L317.171 378.999L328.333 378.035ZM328.145 367.843L328.421 369.476L315.749 370.571L315.473 368.938L328.145 367.843ZM350.711 376.054L351.116 378.458C351.382 380.029 351.414 381.47 351.214 382.779C351.022 384.078 350.614 385.212 349.988 386.184C349.373 387.154 348.566 387.927 347.568 388.503C346.57 389.079 345.397 389.425 344.048 389.542C342.73 389.656 341.485 389.518 340.314 389.13C339.153 388.74 338.107 388.127 337.176 387.29C336.245 386.454 335.461 385.422 334.822 384.196C334.181 382.959 333.729 381.555 333.463 379.983L333.058 377.579C332.792 376.008 332.761 374.573 332.963 373.273C333.173 371.963 333.591 370.822 334.217 369.851C334.843 368.88 335.655 368.106 336.652 367.53C337.65 366.954 338.808 366.609 340.126 366.495C341.475 366.379 342.73 366.515 343.891 366.905C345.052 367.294 346.098 367.907 347.029 368.744C347.96 369.581 348.74 370.618 349.37 371.856C349.999 373.083 350.445 374.483 350.711 376.054ZM349.217 378.622L348.806 376.188C348.583 374.863 348.226 373.685 347.736 372.653C347.256 371.622 346.652 370.757 345.924 370.059C345.206 369.36 344.382 368.848 343.453 368.522C342.524 368.195 341.51 368.08 340.41 368.175C339.341 368.267 338.415 368.55 337.631 369.025C336.848 369.499 336.218 370.137 335.743 370.938C335.278 371.739 334.974 372.683 334.831 373.768C334.698 374.853 334.744 376.058 334.967 377.383L335.378 379.818C335.603 381.153 335.962 382.341 336.454 383.382C336.954 384.413 337.569 385.282 338.299 385.99C339.028 386.688 339.851 387.2 340.77 387.527C341.699 387.853 342.698 387.97 343.767 387.878C344.877 387.782 345.824 387.497 346.608 387.023C347.391 386.549 348.015 385.911 348.48 385.11C348.943 384.299 349.236 383.351 349.359 382.267C349.49 381.172 349.442 379.957 349.217 378.622ZM361.598 364.953L368.962 364.317C370.529 364.181 371.931 364.316 373.168 364.719C374.404 365.123 375.417 365.791 376.207 366.723C377.004 367.644 377.524 368.819 377.765 370.247C377.943 371.305 377.877 372.285 377.566 373.187C377.265 374.088 376.77 374.866 376.08 375.519C375.389 376.163 374.542 376.637 373.541 376.942L372.913 377.247L365.052 377.926L364.747 376.311L371.332 375.742C372.515 375.64 373.463 375.329 374.176 374.809C374.888 374.288 375.379 373.642 375.649 372.868C375.927 372.083 375.994 371.265 375.85 370.412C375.678 369.395 375.307 368.536 374.736 367.835C374.173 367.123 373.428 366.604 372.499 366.278C371.57 365.952 370.483 365.842 369.237 365.95L363.789 366.421L367.3 387.22L365.385 387.386L361.598 364.953ZM379.38 386.177L371.818 376.654L373.87 376.461L381.385 385.8L381.419 386L379.38 386.177ZM391.823 385.414C390.723 385.509 389.677 385.396 388.686 385.075C387.705 384.754 386.811 384.258 386.003 383.588C385.205 382.917 384.535 382.099 383.993 381.135C383.46 380.16 383.093 379.077 382.892 377.885L382.78 377.223C382.563 375.939 382.56 374.762 382.768 373.691C382.977 372.62 383.357 371.686 383.906 370.888C384.456 370.091 385.129 369.459 385.924 368.994C386.728 368.519 387.608 368.239 388.563 368.157C389.632 368.065 390.613 368.173 391.508 368.481C392.4 368.779 393.185 369.248 393.861 369.888C394.547 370.516 395.113 371.285 395.562 372.195C396.008 373.094 396.326 374.104 396.515 375.223L396.705 376.348L383.956 377.449L383.69 375.878L394.587 374.936L394.551 374.721C394.372 373.788 394.033 372.931 393.533 372.151C393.041 371.36 392.399 370.738 391.607 370.286C390.814 369.833 389.889 369.652 388.83 369.744C388.042 369.812 387.343 370.039 386.734 370.425C386.136 370.81 385.65 371.332 385.277 371.989C384.912 372.636 384.671 373.391 384.554 374.256C384.445 375.109 384.477 376.044 384.648 377.061L384.76 377.724C384.916 378.648 385.197 379.499 385.602 380.277C386.015 381.044 386.528 381.708 387.138 382.27C387.76 382.832 388.452 383.251 389.215 383.529C389.977 383.807 390.784 383.909 391.635 383.836C392.632 383.75 393.484 383.494 394.191 383.068C394.896 382.632 395.489 381.992 395.967 381.148L397.286 381.941C397.013 382.506 396.639 383.039 396.165 383.538C395.702 384.037 395.114 384.452 394.402 384.785C393.689 385.117 392.83 385.327 391.823 385.414ZM410.035 366.614L411.763 366.465L414.527 382.843C414.772 384.291 414.701 385.558 414.316 386.644C413.941 387.729 413.292 388.593 412.368 389.235C411.455 389.877 410.314 390.257 408.944 390.375C408.249 390.435 407.514 390.389 406.741 390.237C405.98 390.094 405.236 389.836 404.509 389.461C403.795 389.095 403.156 388.619 402.594 388.032L403.447 386.817C404.271 387.58 405.104 388.117 405.946 388.43C406.791 388.753 407.664 388.876 408.567 388.798C409.636 388.705 410.503 388.417 411.169 387.932C411.845 387.446 412.309 386.791 412.559 385.967C412.82 385.142 412.857 384.175 412.669 383.066L410.514 370.293L410.035 366.614ZM399.639 376.141L399.585 375.818C399.366 374.523 399.315 373.345 399.43 372.283C399.554 371.209 399.834 370.278 400.27 369.49C400.704 368.692 401.287 368.063 402.02 367.604C402.762 367.133 403.642 366.854 404.659 366.766C405.634 366.682 406.528 366.766 407.339 367.019C408.15 367.272 408.881 367.673 409.532 368.221C410.183 368.769 410.743 369.44 411.214 370.233C411.695 371.025 412.099 371.918 412.424 372.911L413.119 377.024C413.154 377.98 413.072 378.868 412.873 379.687C412.673 380.497 412.347 381.218 411.896 381.851C411.443 382.474 410.854 382.978 410.129 383.363C409.414 383.738 408.552 383.969 407.546 384.056C406.539 384.143 405.601 384.015 404.733 383.673C403.864 383.332 403.087 382.81 402.4 382.109C401.711 381.397 401.129 380.535 400.653 379.524C400.187 378.512 399.849 377.384 399.639 376.141ZM401.453 375.656L401.507 375.98C401.672 376.956 401.923 377.851 402.261 378.666C402.598 379.481 403.022 380.179 403.53 380.76C404.039 381.342 404.634 381.78 405.316 382.075C405.998 382.371 406.759 382.482 407.599 382.41C408.668 382.317 409.532 382.039 410.191 381.576C410.848 381.102 411.333 380.513 411.646 379.809C411.957 379.094 412.144 378.328 412.205 377.51L411.397 372.718C411.191 372.184 410.921 371.644 410.587 371.1C410.263 370.555 409.854 370.064 409.359 369.627C408.873 369.179 408.289 368.839 407.607 368.606C406.934 368.362 406.151 368.279 405.259 368.356C404.408 368.429 403.695 368.668 403.121 369.072C402.557 369.475 402.126 370.007 401.827 370.669C401.526 371.32 401.348 372.07 401.291 372.919C401.234 373.768 401.288 374.681 401.453 375.656ZM418.706 365.865L421.519 382.536L419.667 382.696L416.853 366.025L418.706 365.865ZM415.712 361.231C415.653 360.882 415.713 360.58 415.891 360.325C416.078 360.058 416.368 359.908 416.763 359.874C417.157 359.84 417.489 359.936 417.759 360.163C418.038 360.379 418.206 360.661 418.265 361.011C418.322 361.349 418.253 361.653 418.055 361.92C417.867 362.176 417.576 362.321 417.181 362.355C416.787 362.389 416.456 362.298 416.187 362.081C415.928 361.853 415.769 361.57 415.712 361.231ZM435.979 376.972C435.903 376.52 435.714 376.083 435.411 375.661C435.108 375.239 434.598 374.872 433.882 374.558C433.176 374.244 432.174 374.013 430.875 373.865C429.906 373.74 429.032 373.581 428.251 373.388C427.482 373.194 426.817 372.939 426.258 372.622C425.7 372.306 425.248 371.907 424.904 371.426C424.559 370.945 424.329 370.361 424.213 369.672C424.109 369.056 424.146 368.464 424.324 367.897C424.51 367.318 424.823 366.801 425.262 366.346C425.71 365.88 426.277 365.498 426.964 365.199C427.661 364.899 428.466 364.709 429.379 364.63C430.677 364.518 431.824 364.643 432.822 365.005C433.829 365.356 434.64 365.885 435.254 366.593C435.879 367.299 436.271 368.125 436.43 369.07L434.578 369.23C434.481 368.655 434.218 368.125 433.789 367.641C433.37 367.157 432.806 366.778 432.097 366.506C431.398 366.233 430.581 366.137 429.647 366.217C428.682 366.301 427.923 366.512 427.369 366.852C426.816 367.191 426.436 367.594 426.231 368.06C426.035 368.525 425.978 368.994 426.057 369.466C426.12 369.836 426.234 370.17 426.4 370.468C426.575 370.755 426.84 371.014 427.195 371.244C427.56 371.473 428.057 371.675 428.687 371.85C429.316 372.024 430.122 372.179 431.102 372.313C432.512 372.493 433.684 372.762 434.618 373.119C435.561 373.465 436.293 373.933 436.814 374.524C437.333 375.104 437.667 375.836 437.816 376.719C437.933 377.408 437.894 378.052 437.7 378.652C437.505 379.242 437.167 379.766 436.686 380.225C436.216 380.682 435.616 381.057 434.886 381.35C434.167 381.641 433.335 381.827 432.39 381.909C430.969 382.032 429.726 381.905 428.662 381.528C427.607 381.14 426.761 380.587 426.124 379.871C425.496 379.144 425.109 378.349 424.963 377.486L426.816 377.326C427.023 378.183 427.414 378.843 427.986 379.304C428.557 379.755 429.213 380.052 429.954 380.197C430.704 380.34 431.427 380.382 432.123 380.322C433.077 380.24 433.853 380.032 434.45 379.699C435.046 379.366 435.473 378.959 435.728 378.479C435.984 377.998 436.068 377.496 435.979 376.972ZM446.321 363.479L446.576 364.989L438.139 365.718L437.884 364.208L446.321 363.479ZM440.259 359.657L442.112 359.497L444.964 376.399C445.094 377.169 445.296 377.741 445.57 378.113C445.843 378.485 446.157 378.724 446.512 378.829C446.866 378.934 447.236 378.969 447.62 378.936C447.9 378.912 448.167 378.873 448.421 378.82C448.674 378.757 448.9 378.695 449.101 378.636L449.441 380.186C449.225 380.277 448.939 380.359 448.583 380.432C448.228 380.515 447.869 380.572 447.506 380.603C446.79 380.665 446.135 380.591 445.542 380.382C444.947 380.162 444.44 379.748 444.021 379.138C443.6 378.518 443.296 377.653 443.109 376.544L440.259 359.657ZM452.547 365.739L454.895 379.652L453.043 379.812L450.229 363.142L452.035 362.986L452.547 365.739ZM458.023 362.343L458.262 364.042C458.049 364.029 457.843 364.021 457.642 364.017C457.441 364.014 457.227 364.022 456.998 364.042C456.189 364.112 455.503 364.322 454.941 364.673C454.388 365.012 453.948 365.462 453.621 366.022C453.293 366.571 453.078 367.205 452.978 367.922C452.877 368.629 452.877 369.379 452.979 370.173L452.338 370.494C452.155 369.405 452.098 368.383 452.169 367.429C452.239 366.475 452.449 365.628 452.798 364.889C453.156 364.139 453.66 363.538 454.31 363.086C454.969 362.623 455.786 362.349 456.762 362.265C457 362.244 457.237 362.244 457.473 362.266C457.716 362.276 457.9 362.302 458.023 362.343ZM472.9 375.064L471.449 366.467C471.315 365.676 471.034 365.007 470.605 364.461C470.175 363.914 469.613 363.515 468.918 363.262C468.222 363.009 467.402 362.924 466.458 363.006C465.586 363.081 464.834 363.302 464.201 363.67C463.577 364.026 463.111 364.478 462.803 365.025C462.504 365.562 462.406 366.138 462.51 366.754L460.64 366.9C460.534 366.274 460.587 365.654 460.8 365.042C461.012 364.43 461.365 363.868 461.858 363.356C462.351 362.845 462.969 362.421 463.712 362.086C464.465 361.74 465.318 361.525 466.273 361.443C467.477 361.339 468.569 361.448 469.55 361.769C470.541 362.09 471.364 362.629 472.018 363.385C472.672 364.141 473.102 365.125 473.306 366.337L474.666 374.395C474.763 374.971 474.906 375.563 475.093 376.172C475.29 376.78 475.506 377.277 475.739 377.664L475.77 377.848L473.793 378.019C473.606 377.66 473.43 377.207 473.264 376.658C473.106 376.099 472.985 375.567 472.9 375.064ZM472.202 368.309L472.472 369.723L468.814 370.04C467.859 370.122 467.018 370.283 466.29 370.523C465.57 370.752 464.979 371.054 464.515 371.427C464.05 371.79 463.716 372.21 463.512 372.686C463.318 373.161 463.27 373.687 463.367 374.262C463.467 374.858 463.71 375.389 464.094 375.856C464.489 376.322 464.991 376.68 465.602 376.929C466.221 377.168 466.92 377.253 467.698 377.186C468.736 377.096 469.617 376.827 470.342 376.379C471.077 375.93 471.652 375.375 472.067 374.714C472.482 374.053 472.716 373.35 472.769 372.605L473.758 373.598C473.71 374.124 473.55 374.674 473.279 375.25C473.016 375.815 472.639 376.358 472.148 376.88C471.655 377.391 471.045 377.829 470.317 378.195C469.597 378.548 468.75 378.768 467.774 378.852C466.674 378.947 465.68 378.824 464.79 378.484C463.912 378.144 463.184 377.638 462.608 376.969C462.04 376.289 461.68 375.497 461.527 374.593C461.389 373.771 461.441 373.021 461.685 372.344C461.927 371.656 462.342 371.057 462.93 370.548C463.526 370.027 464.277 369.608 465.181 369.29C466.094 368.961 467.142 368.746 468.326 368.644L472.202 368.309ZM483.807 360.241L484.062 361.75L475.624 362.479L475.37 360.969L483.807 360.241ZM477.744 356.419L479.597 356.259L482.45 373.16C482.58 373.931 482.781 374.502 483.055 374.874C483.328 375.247 483.642 375.485 483.997 375.59C484.352 375.695 484.721 375.731 485.105 375.698C485.385 375.673 485.652 375.635 485.907 375.581C486.159 375.518 486.386 375.457 486.586 375.398L486.927 376.947C486.711 377.039 486.424 377.121 486.068 377.193C485.714 377.276 485.355 377.333 484.991 377.364C484.275 377.426 483.621 377.353 483.027 377.143C482.432 376.924 481.925 376.509 481.506 375.899C481.086 375.279 480.782 374.414 480.595 373.305L477.744 356.419ZM489.785 359.724L492.598 376.394L490.746 376.555L487.932 359.884L489.785 359.724ZM486.791 355.09C486.732 354.741 486.792 354.439 486.97 354.183C487.157 353.917 487.447 353.767 487.841 353.733C488.236 353.699 488.568 353.795 488.838 354.022C489.116 354.238 489.285 354.52 489.344 354.869C489.401 355.208 489.331 355.511 489.134 355.778C488.946 356.034 488.655 356.179 488.26 356.214C487.866 356.248 487.535 356.156 487.266 355.94C487.007 355.712 486.848 355.429 486.791 355.09ZM495.299 367.97L495.213 367.462C495.008 366.25 494.996 365.115 495.175 364.057C495.355 363 495.708 362.068 496.235 361.261C496.773 360.454 497.469 359.805 498.323 359.315C499.176 358.814 500.168 358.514 501.299 358.417C502.44 358.318 503.509 358.439 504.503 358.781C505.496 359.112 506.388 359.623 507.179 360.316C507.97 361.008 508.628 361.853 509.154 362.849C509.681 363.846 510.046 364.95 510.251 366.162L510.336 366.671C510.541 367.883 510.554 369.018 510.374 370.075C510.193 371.123 509.833 372.05 509.296 372.857C508.768 373.663 508.079 374.317 507.226 374.818C506.372 375.309 505.379 375.603 504.248 375.701C503.106 375.799 502.039 375.683 501.046 375.352C500.051 375.011 499.158 374.494 498.368 373.801C497.577 373.109 496.919 372.27 496.395 371.283C495.869 370.287 495.503 369.182 495.299 367.97ZM497.065 367.302L497.151 367.81C497.305 368.724 497.576 369.581 497.964 370.382C498.35 371.172 498.836 371.864 499.421 372.46C500.004 373.045 500.679 373.487 501.445 373.786C502.211 374.084 503.056 374.193 503.98 374.114C504.893 374.035 505.667 373.786 506.302 373.366C506.947 372.946 507.455 372.401 507.827 371.734C508.197 371.055 508.432 370.3 508.534 369.468C508.645 368.625 508.623 367.746 508.468 366.832L508.383 366.324C508.23 365.42 507.961 364.573 507.575 363.783C507.199 362.992 506.714 362.3 506.118 361.705C505.533 361.109 504.857 360.657 504.089 360.348C503.321 360.04 502.48 359.925 501.567 360.004C500.653 360.082 499.875 360.337 499.232 360.768C498.599 361.198 498.092 361.752 497.712 362.431C497.342 363.109 497.101 363.865 496.989 364.698C496.887 365.53 496.913 366.398 497.065 367.302ZM515.199 361.139L517.412 374.251L515.56 374.411L512.746 357.74L514.521 357.587L515.199 361.139ZM515.411 364.919L514.508 364.528C514.403 363.537 514.45 362.595 514.647 361.703C514.843 360.81 515.177 360.01 515.647 359.303C516.128 358.594 516.731 358.021 517.458 357.583C518.194 357.144 519.045 356.883 520.01 356.8C520.851 356.727 521.622 356.775 522.325 356.944C523.027 357.112 523.653 357.423 524.204 357.876C524.754 358.328 525.213 358.93 525.582 359.679C525.961 360.428 526.244 361.357 526.432 362.467L528.262 373.313L526.394 373.475L524.561 362.613C524.367 361.462 524.054 360.577 523.623 359.958C523.191 359.328 522.655 358.901 522.017 358.674C521.378 358.448 520.654 358.37 519.845 358.44C518.952 358.517 518.202 358.78 517.593 359.228C516.993 359.666 516.517 360.212 516.164 360.868C515.82 361.513 515.588 362.195 515.467 362.914C515.344 363.622 515.326 364.291 515.411 364.919Z" fill="#1C4670"/>
<path d="M783.18 502.792C793.824 491.603 820.085 515.203 792.755 547.527C780.214 562.359 769.657 565.238 755.261 573.876C741.869 581.902 692.466 570.56 692.466 570.56C691.573 566.67 691.573 562.628 692.466 558.738C692.466 558.738 734.475 562.708 745.664 553.569C762.045 540.155 776.746 509.488 783.18 502.792Z" fill="url(#paint41_linear_20_1918)"/>
<path d="M811.207 897.709V914.7H787.106C787.106 914.7 783.638 908.549 795.089 905.714L796.768 897.709H811.207Z" fill="#133A50"/>
<path d="M739.556 897.709V914.7H715.563C716.092 912.679 717.091 910.812 718.478 909.25C719.865 907.689 721.602 906.477 723.546 905.714L725.836 897.709H739.556Z" fill="#133A50"/>
<path d="M805.731 618.266C805.731 618.266 810.29 672.926 810.464 717.53C810.639 762.135 813.278 901.619 813.278 901.619H795.262C795.262 901.619 776.7 781.525 769.961 752.865C763.221 724.205 745.663 618.812 745.663 618.812L805.731 618.266Z" fill="#133A50"/>
<path style="mix-blend-mode:multiply" d="M805.731 618.266C805.731 618.266 810.29 672.926 810.464 717.53C810.639 762.135 813.278 901.619 813.278 901.619H795.262C795.262 901.619 776.7 781.525 769.961 752.865C763.221 724.205 745.663 618.812 745.663 618.812L805.731 618.266Z" fill="url(#paint42_linear_20_1918)"/>
<path d="M776.046 671.725C775.588 696.481 754.235 756.79 753.646 770.226C753.057 783.661 740.559 901.552 740.559 901.552C740.559 901.552 723.699 901.989 723.699 901.552C723.699 901.116 717.81 779.932 715.738 746.975C713.666 714.018 720.405 662.739 720.1 657.417C719.511 646.293 725.618 627.71 725.618 627.71L776.068 622.867C776.068 622.867 776.701 635.671 776.046 671.725Z" fill="#133A50"/>
<path style="mix-blend-mode:multiply" d="M776.046 671.725C775.588 696.481 754.235 756.79 753.646 770.226C753.057 783.661 740.559 901.552 740.559 901.552C740.559 901.552 723.699 901.989 723.699 901.552C723.699 901.116 717.81 779.932 715.738 746.975C713.666 714.018 720.405 662.739 720.1 657.417C719.511 646.293 725.618 627.71 725.618 627.71L776.068 622.867C776.068 622.867 776.701 635.671 776.046 671.725Z" fill="url(#paint43_linear_20_1918)"/>
<path d="M561.879 477.365L813.278 649.567L827.936 628.671L576.559 456.47L561.879 477.365Z" fill="url(#paint44_linear_20_1918)"/>
<path d="M561.881 477.363L540.549 453.872L546.809 444.951L576.56 456.467L561.881 477.363Z" fill="url(#paint45_linear_20_1918)"/>
<path d="M838 635.631L828.02 628.627L813.348 649.534L823.328 656.538L838 635.631Z" fill="url(#paint46_linear_20_1918)"/>
<path d="M841.613 669.45L823.378 656.56L838.036 635.665L856.401 648.555C857.776 649.515 858.947 650.738 859.848 652.152C860.749 653.566 861.362 655.144 861.652 656.796C861.942 658.447 861.903 660.14 861.537 661.776C861.171 663.412 860.486 664.961 859.52 666.331C858.557 667.722 857.327 668.907 855.902 669.818C854.477 670.729 852.885 671.348 851.219 671.638C849.553 671.928 847.845 671.884 846.196 671.509C844.547 671.133 842.989 670.434 841.613 669.45Z" fill="url(#paint47_linear_20_1918)"/>
<path d="M529.402 442.178L540.592 453.804L546.808 444.948L532.085 438.405C531.563 438.124 530.96 438.034 530.379 438.149C529.798 438.265 529.275 438.579 528.901 439.037C528.616 439.54 528.511 440.125 528.602 440.695C528.693 441.266 528.975 441.789 529.402 442.178Z" fill="#1B2D35"/>
<path d="M742.261 421.725C738.488 423.906 736.917 430.319 736.917 430.319C736.917 430.319 735.456 437.516 734.54 442.969C733.624 448.422 728.956 452.719 729.501 454.18C730.046 455.642 733.231 455.642 733.231 457.67C733.231 459.699 733.994 465.522 733.951 469.536C733.907 473.549 737.942 474.16 741.694 474.487C745.445 474.814 750.418 475.73 751.182 477.475C751.945 479.22 753.014 496.931 753.014 496.931L780.496 486.156C778.793 480.801 777.911 475.22 777.879 469.601C778.163 461.902 778.555 452.675 778.555 452.675C778.555 452.675 777.007 435.924 766.69 429.184C756.373 422.445 742.261 421.725 742.261 421.725Z" fill="#FEC4AD"/>
<path d="M749.655 430.447C747.059 430.12 740.93 430.447 736.917 430.317C736 430.242 735.116 429.941 734.344 429.442C733.572 428.942 732.935 428.258 732.492 427.452C732.049 426.646 731.813 425.742 731.805 424.822C731.797 423.902 732.017 422.995 732.446 422.181C734.154 419.601 735.706 416.921 737.091 414.154C737.091 414.154 741.454 417.949 749.829 414.307C758.205 410.664 774.084 410.817 779.449 422.683C779.449 422.683 790.071 427.045 790.551 435.508C791.031 443.97 789.243 447.111 785.186 452.739C781.129 458.366 777.879 469.599 777.879 469.599C774.588 469.782 771.289 469.782 767.998 469.599C763.091 469.25 758.554 461.987 756.569 458.519C756.569 458.519 763.745 453.109 761.978 447.613C760.212 442.117 752.97 444.625 752.076 447.22C751.133 449.445 749.948 451.559 748.542 453.524L745.38 453.786C744.953 449.488 744.808 445.168 744.944 440.851C745.271 435.878 749.655 430.447 749.655 430.447Z" fill="#1B2D35"/>
<path d="M777.705 482.763C777.705 482.763 765.948 484.944 760.255 485.664C754.563 486.383 738.575 496.918 738.575 496.918C738.575 496.918 721.235 505.643 720.602 524.074C719.97 542.504 722.194 628.943 721.562 635.094C721.562 635.094 727.32 648.486 768.238 647.352C782.193 647.032 796.006 644.485 809.157 639.805C809.157 639.805 810.422 587.959 810.553 571.797C811.076 507.519 802.155 497.398 794.085 489.306C787.76 483.155 777.705 482.763 777.705 482.763Z" fill="url(#paint48_linear_20_1918)"/>
<path d="M611.043 511.142C607.401 508.655 606.856 503.399 604.718 500.978C602.58 498.557 602.144 498.404 601.839 499.451C601.74 501.301 601.82 503.157 602.079 504.991L588.425 495.612C586.418 494.216 585.895 496.114 586.811 498.251C587.727 500.389 585.895 501.589 586.811 505.209C587.727 508.83 588.643 509.157 588.992 512.342C589.341 515.526 593.354 518.034 596.582 519.823C599.81 521.611 604.02 521.35 607.357 522.68C610.694 524.011 614.468 525.996 614.468 525.996L611.043 511.142Z" fill="#FEC4AD"/>
<path d="M750.964 488.197C767.868 480.716 777.247 502.048 752.818 521.438C733.187 536.99 665.572 547.481 665.572 547.481L609.146 526.476C609.146 526.476 606.834 515.854 610.956 511.208L662.955 522.725C662.955 522.725 731.246 496.944 750.964 488.197Z" fill="url(#paint49_linear_20_1918)"/>
<path d="M692.508 570.512C695.78 570.12 697.568 568.135 697.154 566.281C696.739 564.427 694.842 564.602 694.864 563.162C694.885 561.722 693.184 559.694 692.508 558.691C691.832 557.687 692.181 554.677 689.891 554.656C687.921 554.874 686.064 555.689 684.569 556.989C682.496 557.902 680.149 557.972 678.025 557.186C676.673 556.357 676.738 558.145 677.218 559.018C678.505 561.199 680.97 561.373 681.82 564.841C682.671 568.31 688.255 571.014 692.508 570.512Z" fill="#FEC4AD"/>
<defs>
<linearGradient id="paint0_linear_20_1918" x1="800.64" y1="394.743" x2="914.024" y2="199.271" gradientUnits="userSpaceOnUse">
<stop stop-color="#FFA229"/>
<stop offset="1" stop-color="#FFC63B"/>
</linearGradient>
<linearGradient id="paint1_linear_20_1918" x1="862.695" y1="419.897" x2="936.987" y2="156.195" gradientUnits="userSpaceOnUse">
<stop stop-color="white"/>
<stop offset="1" stop-color="white" stop-opacity="0"/>
</linearGradient>
<linearGradient id="paint2_linear_20_1918" x1="784.913" y1="839.554" x2="922.109" y2="839.554" gradientUnits="userSpaceOnUse">
<stop stop-color="#75769A"/>
<stop offset="0.97" stop-color="white" stop-opacity="0"/>
</linearGradient>
<linearGradient id="paint3_linear_20_1918" x1="923.683" y1="758.761" x2="753.196" y2="787.956" gradientUnits="userSpaceOnUse">
<stop stop-color="#6AC578"/>
<stop offset="0.88" stop-color="#4A974D"/>
</linearGradient>
<linearGradient id="paint4_linear_20_1918" x1="782.774" y1="800.059" x2="880.039" y2="733.808" gradientUnits="userSpaceOnUse">
<stop stop-color="#7C8A99"/>
<stop offset="1" stop-color="white" stop-opacity="0"/>
</linearGradient>
<linearGradient id="paint5_linear_20_1918" x1="769.256" y1="862.996" x2="779.5" y2="747.468" gradientUnits="userSpaceOnUse">
<stop stop-color="#007378"/>
<stop offset="1" stop-color="#CCFFCE"/>
</linearGradient>
<linearGradient id="paint6_linear_20_1918" x1="670.338" y1="623.412" x2="680.449" y2="797.531" gradientUnits="userSpaceOnUse">
<stop stop-color="#6AC578"/>
<stop offset="0.88" stop-color="#4A974D"/>
</linearGradient>
<linearGradient id="paint7_linear_20_1918" x1="686.166" y1="803.121" x2="664.236" y2="639.954" gradientUnits="userSpaceOnUse">
<stop stop-color="#7C9B8F"/>
<stop offset="1" stop-color="white" stop-opacity="0"/>
</linearGradient>
<linearGradient id="paint8_linear_20_1918" x1="628.805" y1="768.212" x2="718.706" y2="727.78" gradientUnits="userSpaceOnUse">
<stop stop-color="#007378"/>
<stop offset="1" stop-color="#CCFFCE"/>
</linearGradient>
<linearGradient id="paint9_linear_20_1918" x1="869.378" y1="633.54" x2="735.894" y2="786.427" gradientUnits="userSpaceOnUse">
<stop offset="0.12" stop-color="#4A974D"/>
<stop offset="1" stop-color="#327B67"/>
</linearGradient>
<linearGradient id="paint10_linear_20_1918" x1="781.903" y1="800.542" x2="824.919" y2="589.934" gradientUnits="userSpaceOnUse">
<stop stop-color="#8687AB"/>
<stop offset="1" stop-color="white" stop-opacity="0"/>
</linearGradient>
<linearGradient id="paint11_linear_20_1918" x1="763.265" y1="720.594" x2="792.532" y2="743.581" gradientUnits="userSpaceOnUse">
<stop stop-color="#007378"/>
<stop offset="1" stop-color="#CCFFCE"/>
</linearGradient>
<linearGradient id="paint12_linear_20_1918" x1="710.9" y1="666.53" x2="766.306" y2="723.058" gradientUnits="userSpaceOnUse">
<stop offset="0.12" stop-color="#6AC578"/>
<stop offset="1" stop-color="#328F7B"/>
</linearGradient>
<linearGradient id="paint13_linear_20_1918" x1="730.409" y1="753.21" x2="737.272" y2="594.17" gradientUnits="userSpaceOnUse">
<stop stop-color="#7C87AB"/>
<stop offset="1" stop-color="white" stop-opacity="0"/>
</linearGradient>
<linearGradient id="paint14_linear_20_1918" x1="673.883" y1="721.197" x2="754.085" y2="730.797" gradientUnits="userSpaceOnUse">
<stop stop-color="#007378"/>
<stop offset="1" stop-color="#CCFFCE"/>
</linearGradient>
<linearGradient id="paint15_linear_20_1918" x1="853.22" y1="823.834" x2="673.546" y2="829.254" gradientUnits="userSpaceOnUse">
<stop stop-color="#6AC578"/>
<stop offset="0.88" stop-color="#327B67"/>
</linearGradient>
<linearGradient id="paint16_linear_20_1918" x1="694.155" y1="901.144" x2="800.497" y2="805.418" gradientUnits="userSpaceOnUse">
<stop stop-color="#7C87AB"/>
<stop offset="1" stop-color="white" stop-opacity="0"/>
</linearGradient>
<linearGradient id="paint17_linear_20_1918" x1="655.881" y1="811.682" x2="798.641" y2="875.014" gradientUnits="userSpaceOnUse">
<stop stop-color="#007378"/>
<stop offset="1" stop-color="#CCFFCE"/>
</linearGradient>
<linearGradient id="paint18_linear_20_1918" x1="786.845" y1="737.823" x2="630.532" y2="839.23" gradientUnits="userSpaceOnUse">
<stop stop-color="#6AC578"/>
<stop offset="0.88" stop-color="#327B67"/>
</linearGradient>
<linearGradient id="paint19_linear_20_1918" x1="674.577" y1="881.136" x2="718.955" y2="735.976" gradientUnits="userSpaceOnUse">
<stop stop-color="#7C87AB"/>
<stop offset="1" stop-color="white" stop-opacity="0"/>
</linearGradient>
<linearGradient id="paint20_linear_20_1918" x1="592.894" y1="827.37" x2="758.732" y2="806.176" gradientUnits="userSpaceOnUse">
<stop stop-color="#007378"/>
<stop offset="1" stop-color="#CCFFCE"/>
</linearGradient>
<linearGradient id="paint21_linear_20_1918" x1="19.1839" y1="799.017" x2="167.945" y2="831.092" gradientUnits="userSpaceOnUse">
<stop stop-color="#6AC578"/>
<stop offset="0.88" stop-color="#4A974D"/>
</linearGradient>
<linearGradient id="paint22_linear_20_1918" x1="141.136" y1="845.247" x2="55.1491" y2="781.304" gradientUnits="userSpaceOnUse">
<stop stop-color="#7C8A99"/>
<stop offset="1" stop-color="white" stop-opacity="0"/>
</linearGradient>
<linearGradient id="paint23_linear_20_1918" x1="153.819" y1="904.636" x2="147.666" y2="784.202" gradientUnits="userSpaceOnUse">
<stop stop-color="#007378"/>
<stop offset="1" stop-color="#CCFFCE"/>
</linearGradient>
<linearGradient id="paint24_linear_20_1918" x1="194.557" y1="624.309" x2="261.158" y2="817.046" gradientUnits="userSpaceOnUse">
<stop stop-color="#6AC578"/>
<stop offset="0.88" stop-color="#4A974D"/>
</linearGradient>
<linearGradient id="paint25_linear_20_1918" x1="262.749" y1="828.081" x2="213.22" y2="640.877" gradientUnits="userSpaceOnUse">
<stop stop-color="#7C9B8F"/>
<stop offset="1" stop-color="white" stop-opacity="0"/>
</linearGradient>
<linearGradient id="paint26_linear_20_1918" x1="331.223" y1="795.951" x2="206.455" y2="805.056" gradientUnits="userSpaceOnUse">
<stop stop-color="#007378"/>
<stop offset="1" stop-color="#CCFFCE"/>
</linearGradient>
<linearGradient id="paint27_linear_20_1918" x1="85.1004" y1="679.194" x2="225.455" y2="839.949" gradientUnits="userSpaceOnUse">
<stop offset="0.12" stop-color="#4A974D"/>
<stop offset="1" stop-color="#327B67"/>
</linearGradient>
<linearGradient id="paint28_linear_20_1918" x1="173.699" y1="850.817" x2="130.983" y2="641.657" gradientUnits="userSpaceOnUse">
<stop stop-color="#8687AB"/>
<stop offset="1" stop-color="white" stop-opacity="0"/>
</linearGradient>
<linearGradient id="paint29_linear_20_1918" x1="205.058" y1="765.042" x2="160.692" y2="799.701" gradientUnits="userSpaceOnUse">
<stop stop-color="#007378"/>
<stop offset="1" stop-color="#CCFFCE"/>
</linearGradient>
<linearGradient id="paint30_linear_20_1918" x1="173.169" y1="782.339" x2="249.865" y2="756.838" gradientUnits="userSpaceOnUse">
<stop offset="0.12" stop-color="#6AC578"/>
<stop offset="1" stop-color="#328F7B"/>
</linearGradient>
<linearGradient id="paint31_linear_20_1918" x1="266.001" y1="806.002" x2="109.891" y2="721.96" gradientUnits="userSpaceOnUse">
<stop stop-color="#7C87AB"/>
<stop offset="1" stop-color="white" stop-opacity="0"/>
</linearGradient>
<linearGradient id="paint32_linear_20_1918" x1="198.671" y1="858.707" x2="256.352" y2="769.403" gradientUnits="userSpaceOnUse">
<stop stop-color="#007378"/>
<stop offset="1" stop-color="#CCFFCE"/>
</linearGradient>
<linearGradient id="paint33_linear_20_1918" x1="39.9861" y1="875.3" x2="229.716" y2="881.238" gradientUnits="userSpaceOnUse">
<stop stop-color="#6AC578"/>
<stop offset="0.88" stop-color="#327B67"/>
</linearGradient>
<linearGradient id="paint34_linear_20_1918" x1="207.546" y1="955.784" x2="94.8606" y2="854.938" gradientUnits="userSpaceOnUse">
<stop stop-color="#7C87AB"/>
<stop offset="1" stop-color="white" stop-opacity="0"/>
</linearGradient>
<linearGradient id="paint35_linear_20_1918" x1="256.346" y1="862.045" x2="106.51" y2="928.916" gradientUnits="userSpaceOnUse">
<stop stop-color="#007378"/>
<stop offset="1" stop-color="#CCFFCE"/>
</linearGradient>
<linearGradient id="paint36_linear_20_1918" x1="125.245" y1="816.878" x2="308.882" y2="885.96" gradientUnits="userSpaceOnUse">
<stop stop-color="#6AC578"/>
<stop offset="0.88" stop-color="#327B67"/>
</linearGradient>
<linearGradient id="paint37_linear_20_1918" x1="264.571" y1="940.823" x2="186.497" y2="800.846" gradientUnits="userSpaceOnUse">
<stop stop-color="#7C87AB"/>
<stop offset="1" stop-color="white" stop-opacity="0"/>
</linearGradient>
<linearGradient id="paint38_linear_20_1918" x1="342.761" y1="863.847" x2="167.763" y2="879.076" gradientUnits="userSpaceOnUse">
<stop stop-color="#007378"/>
<stop offset="1" stop-color="#CCFFCE"/>
</linearGradient>
<linearGradient id="paint39_linear_20_1918" x1="35.2858" y1="1089.39" x2="705.377" y2="203.099" gradientUnits="userSpaceOnUse">
<stop stop-color="#75769A"/>
<stop offset="0.97" stop-color="white" stop-opacity="0"/>
</linearGradient>
<linearGradient id="paint40_linear_20_1918" x1="366.328" y1="326.155" x2="436.13" y2="166.15" gradientUnits="userSpaceOnUse">
<stop stop-color="#FFA229"/>
<stop offset="1" stop-color="#FFC63B"/>
</linearGradient>
<linearGradient id="paint41_linear_20_1918" x1="691.79" y1="538.323" x2="804.795" y2="538.323" gradientUnits="userSpaceOnUse">
<stop stop-color="#7D22BE"/>
<stop offset="1" stop-color="#CF74F1"/>
</linearGradient>
<linearGradient id="paint42_linear_20_1918" x1="772.207" y1="668.106" x2="845.952" y2="907.486" gradientUnits="userSpaceOnUse">
<stop stop-color="#75769A"/>
<stop offset="0.97" stop-color="white" stop-opacity="0"/>
</linearGradient>
<linearGradient id="paint43_linear_20_1918" x1="772.317" y1="610.348" x2="701.538" y2="887.506" gradientUnits="userSpaceOnUse">
<stop stop-color="#75769A"/>
<stop offset="0.97" stop-color="white" stop-opacity="0"/>
</linearGradient>
<linearGradient id="paint44_linear_20_1918" x1="735.215" y1="666.929" x2="657.457" y2="447.156" gradientUnits="userSpaceOnUse">
<stop stop-color="#D12C80"/>
<stop offset="1" stop-color="#FF6672"/>
</linearGradient>
<linearGradient id="paint45_linear_20_1918" x1="544.912" y1="473.218" x2="566.767" y2="445.278" gradientUnits="userSpaceOnUse">
<stop stop-color="#DE9F78"/>
<stop offset="1" stop-color="#ECCD84"/>
</linearGradient>
<linearGradient id="paint46_linear_20_1918" x1="813.314" y1="642.646" x2="837.961" y2="642.646" gradientUnits="userSpaceOnUse">
<stop stop-color="#FF980C"/>
<stop offset="1" stop-color="#FFC63B"/>
</linearGradient>
<linearGradient id="paint47_linear_20_1918" x1="823.269" y1="653.724" x2="861.723" y2="653.724" gradientUnits="userSpaceOnUse">
<stop stop-color="#7D22BE"/>
<stop offset="1" stop-color="#CF74F1"/>
</linearGradient>
<linearGradient id="paint48_linear_20_1918" x1="697.068" y1="666.241" x2="867.939" y2="442.433" gradientUnits="userSpaceOnUse">
<stop stop-color="#7D22BE"/>
<stop offset="1" stop-color="#CF74F1"/>
</linearGradient>
<linearGradient id="paint49_linear_20_1918" x1="615.035" y1="605.281" x2="791.838" y2="373.709" gradientUnits="userSpaceOnUse">
<stop stop-color="#7D22BE"/>
<stop offset="1" stop-color="#CF74F1"/>
</linearGradient>
</defs>
</svg>
