<svg width="1080" height="983" viewBox="0 0 1080 983" fill="none" xmlns="http://www.w3.org/2000/svg">
<rect width="1080" height="983" fill="white"/>
<path d="M158.41 71.5879V73.7852C158.41 77.0078 157.98 79.9082 157.121 82.4863C156.262 85.0449 155.041 87.2227 153.459 89.0195C151.877 90.8164 149.992 92.1934 147.805 93.1504C145.617 94.1074 143.186 94.5859 140.51 94.5859C137.873 94.5859 135.451 94.1074 133.244 93.1504C131.057 92.1934 129.162 90.8164 127.561 89.0195C125.959 87.2227 124.719 85.0449 123.84 82.4863C122.961 79.9082 122.521 77.0078 122.521 73.7852V71.5879C122.521 68.3457 122.961 65.4453 123.84 62.8867C124.719 60.3281 125.949 58.1504 127.531 56.3535C129.113 54.5371 130.998 53.1504 133.186 52.1934C135.393 51.2363 137.814 50.7578 140.451 50.7578C143.127 50.7578 145.559 51.2363 147.746 52.1934C149.934 53.1504 151.818 54.5371 153.4 56.3535C155.002 58.1504 156.232 60.3281 157.092 62.8867C157.971 65.4453 158.41 68.3457 158.41 71.5879ZM150.266 73.7852V71.5293C150.266 69.2051 150.051 67.1641 149.621 65.4062C149.191 63.6289 148.557 62.1348 147.717 60.9238C146.877 59.7129 145.842 58.8047 144.611 58.1992C143.381 57.5742 141.994 57.2617 140.451 57.2617C138.889 57.2617 137.502 57.5742 136.291 58.1992C135.1 58.8047 134.084 59.7129 133.244 60.9238C132.404 62.1348 131.76 63.6289 131.311 65.4062C130.881 67.1641 130.666 69.2051 130.666 71.5293V73.7852C130.666 76.0898 130.881 78.1309 131.311 79.9082C131.76 81.6855 132.404 83.1895 133.244 84.4199C134.104 85.6309 135.139 86.5488 136.35 87.1738C137.561 87.7988 138.947 88.1113 140.51 88.1113C142.072 88.1113 143.459 87.7988 144.67 87.1738C145.881 86.5488 146.896 85.6309 147.717 84.4199C148.557 83.1895 149.191 81.6855 149.621 79.9082C150.051 78.1309 150.266 76.0898 150.266 73.7852ZM172.238 69.0684V94H164.504V62.3008H171.77L172.238 69.0684ZM171.008 77.0078H168.723C168.742 74.7031 169.055 72.6133 169.66 70.7383C170.266 68.8633 171.115 67.252 172.209 65.9043C173.322 64.5566 174.641 63.5215 176.164 62.7988C177.688 62.0762 179.387 61.7148 181.262 61.7148C182.785 61.7148 184.162 61.9297 185.393 62.3594C186.623 62.7891 187.678 63.4727 188.557 64.4102C189.455 65.3477 190.139 66.5781 190.607 68.1016C191.096 69.6055 191.34 71.4609 191.34 73.668V94H183.547V73.6094C183.547 72.1641 183.332 71.0215 182.902 70.1816C182.492 69.3418 181.887 68.7461 181.086 68.3945C180.305 68.043 179.338 67.8672 178.186 67.8672C176.994 67.8672 175.949 68.1113 175.051 68.5996C174.172 69.0684 173.43 69.7227 172.824 70.5625C172.238 71.4023 171.789 72.3691 171.477 73.4629C171.164 74.5566 171.008 75.7383 171.008 77.0078ZM206.369 49V94H198.605V49H206.369ZM221.955 62.3008V94H214.191V62.3008H221.955ZM213.664 54.0098C213.664 52.8574 214.055 51.9004 214.836 51.1387C215.637 50.377 216.711 49.9961 218.059 49.9961C219.406 49.9961 220.471 50.377 221.252 51.1387C222.053 51.9004 222.453 52.8574 222.453 54.0098C222.453 55.1426 222.053 56.0898 221.252 56.8516C220.471 57.6133 219.406 57.9941 218.059 57.9941C216.711 57.9941 215.637 57.6133 214.836 56.8516C214.055 56.0898 213.664 55.1426 213.664 54.0098ZM236.926 69.0684V94H229.191V62.3008H236.457L236.926 69.0684ZM235.695 77.0078H233.41C233.43 74.7031 233.742 72.6133 234.348 70.7383C234.953 68.8633 235.803 67.252 236.896 65.9043C238.01 64.5566 239.328 63.5215 240.852 62.7988C242.375 62.0762 244.074 61.7148 245.949 61.7148C247.473 61.7148 248.85 61.9297 250.08 62.3594C251.311 62.7891 252.365 63.4727 253.244 64.4102C254.143 65.3477 254.826 66.5781 255.295 68.1016C255.783 69.6055 256.027 71.4609 256.027 73.668V94H248.234V73.6094C248.234 72.1641 248.02 71.0215 247.59 70.1816C247.18 69.3418 246.574 68.7461 245.773 68.3945C244.992 68.043 244.025 67.8672 242.873 67.8672C241.682 67.8672 240.637 68.1113 239.738 68.5996C238.859 69.0684 238.117 69.7227 237.512 70.5625C236.926 71.4023 236.477 72.3691 236.164 73.4629C235.852 74.5566 235.695 75.7383 235.695 77.0078ZM277.092 94.5859C274.689 94.5859 272.531 94.1953 270.617 93.4141C268.703 92.6328 267.072 91.5488 265.725 90.1621C264.396 88.7559 263.371 87.125 262.648 85.2695C261.945 83.3945 261.594 81.3828 261.594 79.2344V78.0625C261.594 75.6211 261.945 73.4043 262.648 71.4121C263.352 69.4004 264.348 67.6719 265.637 66.2266C266.926 64.7812 268.469 63.668 270.266 62.8867C272.062 62.1055 274.045 61.7148 276.213 61.7148C278.459 61.7148 280.441 62.0957 282.16 62.8574C283.879 63.5996 285.314 64.6543 286.467 66.0215C287.619 67.3887 288.488 69.0293 289.074 70.9434C289.66 72.8379 289.953 74.9375 289.953 77.2422V80.4941H265.109V75.1621H282.336V74.5762C282.297 73.3457 282.062 72.2227 281.633 71.207C281.203 70.1719 280.539 69.3516 279.641 68.7461C278.742 68.1211 277.58 67.8086 276.154 67.8086C275.002 67.8086 273.996 68.0625 273.137 68.5703C272.297 69.0586 271.594 69.7617 271.027 70.6797C270.48 71.5781 270.07 72.6523 269.797 73.9023C269.523 75.1523 269.387 76.5391 269.387 78.0625V79.2344C269.387 80.5625 269.562 81.793 269.914 82.9258C270.285 84.0586 270.822 85.0449 271.525 85.8848C272.248 86.7051 273.107 87.3496 274.104 87.8184C275.119 88.2676 276.271 88.4922 277.561 88.4922C279.182 88.4922 280.646 88.1797 281.955 87.5547C283.283 86.9102 284.436 85.9629 285.412 84.7129L289.309 88.7559C288.645 89.7324 287.746 90.6699 286.613 91.5684C285.5 92.4668 284.152 93.1992 282.57 93.7656C280.988 94.3125 279.162 94.5859 277.092 94.5859ZM776.428 62.3008V94H768.664V62.3008H776.428ZM768.137 54.0098C768.137 52.8574 768.527 51.9004 769.309 51.1387C770.109 50.377 771.184 49.9961 772.531 49.9961C773.879 49.9961 774.943 50.377 775.725 51.1387C776.525 51.9004 776.926 52.8574 776.926 54.0098C776.926 55.1426 776.525 56.0898 775.725 56.8516C774.943 57.6133 773.879 57.9941 772.531 57.9941C771.184 57.9941 770.109 57.6133 769.309 56.8516C768.527 56.0898 768.137 55.1426 768.137 54.0098ZM791.398 69.0684V94H783.664V62.3008H790.93L791.398 69.0684ZM790.168 77.0078H787.883C787.902 74.7031 788.215 72.6133 788.82 70.7383C789.426 68.8633 790.275 67.252 791.369 65.9043C792.482 64.5566 793.801 63.5215 795.324 62.7988C796.848 62.0762 798.547 61.7148 800.422 61.7148C801.945 61.7148 803.322 61.9297 804.553 62.3594C805.783 62.7891 806.838 63.4727 807.717 64.4102C808.615 65.3477 809.299 66.5781 809.768 68.1016C810.256 69.6055 810.5 71.4609 810.5 73.668V94H802.707V73.6094C802.707 72.1641 802.492 71.0215 802.062 70.1816C801.652 69.3418 801.047 68.7461 800.246 68.3945C799.465 68.043 798.498 67.8672 797.346 67.8672C796.154 67.8672 795.109 68.1113 794.211 68.5996C793.332 69.0684 792.59 69.7227 791.984 70.5625C791.398 71.4023 790.949 72.3691 790.637 73.4629C790.324 74.5566 790.168 75.7383 790.168 77.0078ZM841.438 51.3438V94H833.381V51.3438H841.438ZM857.141 69.0684V94H849.406V62.3008H856.672L857.141 69.0684ZM855.91 77.0078H853.625C853.645 74.7031 853.957 72.6133 854.562 70.7383C855.168 68.8633 856.018 67.252 857.111 65.9043C858.225 64.5566 859.543 63.5215 861.066 62.7988C862.59 62.0762 864.289 61.7148 866.164 61.7148C867.688 61.7148 869.064 61.9297 870.295 62.3594C871.525 62.7891 872.58 63.4727 873.459 64.4102C874.357 65.3477 875.041 66.5781 875.51 68.1016C875.998 69.6055 876.242 71.4609 876.242 73.668V94H868.449V73.6094C868.449 72.1641 868.234 71.0215 867.805 70.1816C867.395 69.3418 866.789 68.7461 865.988 68.3945C865.207 68.043 864.24 67.8672 863.088 67.8672C861.896 67.8672 860.852 68.1113 859.953 68.5996C859.074 69.0684 858.332 69.7227 857.727 70.5625C857.141 71.4023 856.691 72.3691 856.379 73.4629C856.066 74.5566 855.91 75.7383 855.91 77.0078ZM902.082 87.2617V49H909.875V94H902.844L902.082 87.2617ZM881.721 78.5312V77.916C881.721 75.4941 881.994 73.2969 882.541 71.3242C883.107 69.332 883.928 67.623 885.002 66.1973C886.076 64.7715 887.375 63.668 888.898 62.8867C890.441 62.1055 892.189 61.7148 894.143 61.7148C896.037 61.7148 897.688 62.0957 899.094 62.8574C900.52 63.6191 901.73 64.7031 902.727 66.1094C903.742 67.5156 904.553 69.1855 905.158 71.1191C905.764 73.0332 906.203 75.1426 906.477 77.4473V79.1172C906.203 81.3633 905.764 83.4238 905.158 85.2988C904.553 87.1738 903.742 88.8145 902.727 90.2207C901.73 91.6074 900.52 92.6816 899.094 93.4434C897.668 94.2051 895.998 94.5859 894.084 94.5859C892.15 94.5859 890.412 94.1855 888.869 93.3848C887.346 92.584 886.047 91.4609 884.973 90.0156C883.918 88.5703 883.107 86.8711 882.541 84.918C881.994 82.9648 881.721 80.8359 881.721 78.5312ZM889.484 77.916V78.5312C889.484 79.8984 889.602 81.1777 889.836 82.3691C890.07 83.5605 890.451 84.6152 890.979 85.5332C891.506 86.4316 892.18 87.1348 893 87.6426C893.84 88.1504 894.855 88.4043 896.047 88.4043C897.57 88.4043 898.82 88.0723 899.797 87.4082C900.793 86.7246 901.564 85.7969 902.111 84.625C902.658 83.4336 903.01 82.0957 903.166 80.6113V76.0117C903.088 74.8398 902.883 73.7559 902.551 72.7598C902.238 71.7637 901.789 70.9043 901.203 70.1816C900.637 69.459 899.934 68.8926 899.094 68.4824C898.254 68.0723 897.258 67.8672 896.105 67.8672C894.914 67.8672 893.898 68.1309 893.059 68.6582C892.219 69.166 891.535 69.8789 891.008 70.7969C890.48 71.7148 890.09 72.7793 889.836 73.9902C889.602 75.2012 889.484 76.5098 889.484 77.916ZM925.08 62.3008V94H917.316V62.3008H925.08ZM916.789 54.0098C916.789 52.8574 917.18 51.9004 917.961 51.1387C918.762 50.377 919.836 49.9961 921.184 49.9961C922.531 49.9961 923.596 50.377 924.377 51.1387C925.178 51.9004 925.578 52.8574 925.578 54.0098C925.578 55.1426 925.178 56.0898 924.377 56.8516C923.596 57.6133 922.531 57.9941 921.184 57.9941C919.836 57.9941 918.762 57.6133 917.961 56.8516C917.18 56.0898 916.789 55.1426 916.789 54.0098ZM949.924 87.2617V72.6426C949.924 71.5684 949.738 70.6406 949.367 69.8594C948.996 69.0781 948.43 68.4727 947.668 68.043C946.906 67.6133 945.939 67.3984 944.768 67.3984C943.732 67.3984 942.824 67.5742 942.043 67.9258C941.281 68.2773 940.695 68.7754 940.285 69.4199C939.875 70.0449 939.67 70.7676 939.67 71.5879H931.906C931.906 70.2793 932.219 69.0391 932.844 67.8672C933.469 66.6758 934.357 65.6211 935.51 64.7031C936.682 63.7656 938.078 63.0332 939.699 62.5059C941.34 61.9785 943.176 61.7148 945.207 61.7148C947.609 61.7148 949.748 62.125 951.623 62.9453C953.518 63.7461 955.002 64.957 956.076 66.5781C957.17 68.1992 957.717 70.2402 957.717 72.7012V86.5293C957.717 88.1113 957.814 89.4688 958.01 90.6016C958.225 91.7148 958.537 92.6816 958.947 93.502V94H951.066C950.695 93.1992 950.412 92.1836 950.217 90.9531C950.021 89.7031 949.924 88.4727 949.924 87.2617ZM951.008 74.6934L951.066 79.293H946.174C944.963 79.293 943.898 79.4199 942.98 79.6738C942.062 79.9082 941.311 80.2598 940.725 80.7285C940.139 81.1777 939.699 81.7246 939.406 82.3691C939.113 82.9941 938.967 83.707 938.967 84.5078C938.967 85.2891 939.143 85.9922 939.494 86.6172C939.865 87.2422 940.393 87.7402 941.076 88.1113C941.779 88.4629 942.6 88.6387 943.537 88.6387C944.904 88.6387 946.096 88.3652 947.111 87.8184C948.127 87.252 948.918 86.5684 949.484 85.7676C950.051 84.9668 950.354 84.2051 950.393 83.4824L952.619 86.8223C952.346 87.623 951.936 88.4727 951.389 89.3711C950.842 90.2695 950.139 91.1094 949.279 91.8906C948.42 92.6719 947.385 93.3164 946.174 93.8242C944.963 94.332 943.557 94.5859 941.955 94.5859C939.904 94.5859 938.068 94.1758 936.447 93.3555C934.826 92.5352 933.547 91.4121 932.609 89.9863C931.672 88.5605 931.203 86.9395 931.203 85.123C931.203 83.4434 931.516 81.959 932.141 80.6699C932.766 79.3809 933.693 78.2969 934.924 77.418C936.154 76.5195 937.678 75.8457 939.494 75.3965C941.33 74.9277 943.43 74.6934 945.793 74.6934H951.008Z" fill="#1C4670"/>
<path d="M319.25 51.3438V94H311.193V51.3438H319.25ZM350.275 82.9258C350.275 82.1055 350.148 81.373 349.895 80.7285C349.66 80.0645 349.221 79.4688 348.576 78.9414C347.951 78.3945 347.062 77.8672 345.91 77.3594C344.777 76.832 343.312 76.2852 341.516 75.7188C339.523 75.0938 337.668 74.3906 335.949 73.6094C334.23 72.8281 332.717 71.9199 331.408 70.8848C330.119 69.8496 329.113 68.6582 328.391 67.3105C327.668 65.9434 327.307 64.3613 327.307 62.5645C327.307 60.8066 327.678 59.2051 328.42 57.7598C329.182 56.3145 330.256 55.0742 331.643 54.0391C333.029 52.9844 334.66 52.1738 336.535 51.6074C338.43 51.041 340.52 50.7578 342.805 50.7578C345.969 50.7578 348.703 51.334 351.008 52.4863C353.332 53.6387 355.129 55.2012 356.398 57.1738C357.668 59.1465 358.303 61.3633 358.303 63.8242H350.275C350.275 62.4961 349.992 61.3242 349.426 60.3086C348.879 59.293 348.039 58.4922 346.906 57.9062C345.793 57.3203 344.387 57.0273 342.688 57.0273C341.047 57.0273 339.68 57.2715 338.586 57.7598C337.512 58.248 336.701 58.9121 336.154 59.752C335.627 60.5918 335.363 61.5293 335.363 62.5645C335.363 63.3457 335.549 64.0488 335.92 64.6738C336.291 65.2793 336.848 65.8555 337.59 66.4023C338.332 66.9297 339.25 67.4277 340.344 67.8965C341.457 68.3457 342.746 68.7949 344.211 69.2441C346.555 69.9473 348.605 70.7285 350.363 71.5879C352.141 72.4473 353.615 73.4238 354.787 74.5176C355.979 75.6113 356.867 76.8418 357.453 78.209C358.059 79.5762 358.361 81.1289 358.361 82.8672C358.361 84.7031 358 86.3438 357.277 87.7891C356.555 89.2344 355.52 90.4648 354.172 91.4805C352.824 92.4961 351.203 93.2676 349.309 93.7949C347.434 94.3223 345.334 94.5859 343.01 94.5859C340.939 94.5859 338.889 94.3125 336.857 93.7656C334.846 93.1992 333.02 92.3594 331.379 91.2461C329.738 90.1133 328.43 88.6875 327.453 86.9688C326.477 85.2305 325.988 83.1992 325.988 80.875H334.074C334.074 82.2227 334.289 83.375 334.719 84.332C335.168 85.2695 335.793 86.041 336.594 86.6465C337.414 87.2324 338.371 87.6621 339.465 87.9355C340.559 88.209 341.74 88.3457 343.01 88.3457C344.65 88.3457 345.998 88.1211 347.053 87.6719C348.127 87.2031 348.928 86.5586 349.455 85.7383C350.002 84.918 350.275 83.9805 350.275 82.9258ZM399.113 71.5879V73.7852C399.113 77.0078 398.684 79.9082 397.824 82.4863C396.965 85.0449 395.744 87.2227 394.162 89.0195C392.58 90.8164 390.695 92.1934 388.508 93.1504C386.32 94.1074 383.889 94.5859 381.213 94.5859C378.576 94.5859 376.154 94.1074 373.947 93.1504C371.76 92.1934 369.865 90.8164 368.264 89.0195C366.662 87.2227 365.422 85.0449 364.543 82.4863C363.664 79.9082 363.225 77.0078 363.225 73.7852V71.5879C363.225 68.3457 363.664 65.4453 364.543 62.8867C365.422 60.3281 366.652 58.1504 368.234 56.3535C369.816 54.5371 371.701 53.1504 373.889 52.1934C376.096 51.2363 378.518 50.7578 381.154 50.7578C383.83 50.7578 386.262 51.2363 388.449 52.1934C390.637 53.1504 392.521 54.5371 394.104 56.3535C395.705 58.1504 396.936 60.3281 397.795 62.8867C398.674 65.4453 399.113 68.3457 399.113 71.5879ZM390.969 73.7852V71.5293C390.969 69.2051 390.754 67.1641 390.324 65.4062C389.895 63.6289 389.26 62.1348 388.42 60.9238C387.58 59.7129 386.545 58.8047 385.314 58.1992C384.084 57.5742 382.697 57.2617 381.154 57.2617C379.592 57.2617 378.205 57.5742 376.994 58.1992C375.803 58.8047 374.787 59.7129 373.947 60.9238C373.107 62.1348 372.463 63.6289 372.014 65.4062C371.584 67.1641 371.369 69.2051 371.369 71.5293V73.7852C371.369 76.0898 371.584 78.1309 372.014 79.9082C372.463 81.6855 373.107 83.1895 373.947 84.4199C374.807 85.6309 375.842 86.5488 377.053 87.1738C378.264 87.7988 379.65 88.1113 381.213 88.1113C382.775 88.1113 384.162 87.7988 385.373 87.1738C386.584 86.5488 387.6 85.6309 388.42 84.4199C389.26 83.1895 389.895 81.6855 390.324 79.9082C390.754 78.1309 390.969 76.0898 390.969 73.7852ZM445.842 79.9668H453.898C453.684 82.8184 452.893 85.3477 451.525 87.5547C450.158 89.7422 448.254 91.4609 445.812 92.7109C443.371 93.9609 440.412 94.5859 436.936 94.5859C434.26 94.5859 431.848 94.1172 429.699 93.1797C427.57 92.2227 425.744 90.8652 424.221 89.1074C422.717 87.3301 421.564 85.2012 420.764 82.7207C419.963 80.2207 419.562 77.418 419.562 74.3125V71.0605C419.562 67.9551 419.973 65.1523 420.793 62.6523C421.613 60.1523 422.785 58.0234 424.309 56.2656C425.852 54.4883 427.697 53.1211 429.846 52.1641C432.014 51.207 434.436 50.7285 437.111 50.7285C440.588 50.7285 443.527 51.373 445.93 52.6621C448.332 53.9316 450.197 55.6797 451.525 57.9062C452.854 60.1328 453.654 62.6914 453.928 65.582H445.871C445.715 63.7852 445.324 62.2617 444.699 61.0117C444.094 59.7617 443.176 58.8145 441.945 58.1699C440.734 57.5059 439.123 57.1738 437.111 57.1738C435.549 57.1738 434.172 57.4668 432.98 58.0527C431.809 58.6387 430.832 59.5176 430.051 60.6895C429.27 61.8418 428.684 63.2871 428.293 65.0254C427.902 66.7441 427.707 68.7363 427.707 71.002V74.3125C427.707 76.4805 427.883 78.4238 428.234 80.1426C428.586 81.8613 429.133 83.3164 429.875 84.5078C430.617 85.6992 431.574 86.6074 432.746 87.2324C433.918 87.8574 435.314 88.1699 436.936 88.1699C438.908 88.1699 440.51 87.8574 441.74 87.2324C442.99 86.6074 443.938 85.6895 444.582 84.4785C445.246 83.2676 445.666 81.7637 445.842 79.9668ZM473.791 94.5859C471.389 94.5859 469.23 94.1953 467.316 93.4141C465.402 92.6328 463.771 91.5488 462.424 90.1621C461.096 88.7559 460.07 87.125 459.348 85.2695C458.645 83.3945 458.293 81.3828 458.293 79.2344V78.0625C458.293 75.6211 458.645 73.4043 459.348 71.4121C460.051 69.4004 461.047 67.6719 462.336 66.2266C463.625 64.7812 465.168 63.668 466.965 62.8867C468.762 62.1055 470.744 61.7148 472.912 61.7148C475.158 61.7148 477.141 62.0957 478.859 62.8574C480.578 63.5996 482.014 64.6543 483.166 66.0215C484.318 67.3887 485.188 69.0293 485.773 70.9434C486.359 72.8379 486.652 74.9375 486.652 77.2422V80.4941H461.809V75.1621H479.035V74.5762C478.996 73.3457 478.762 72.2227 478.332 71.207C477.902 70.1719 477.238 69.3516 476.34 68.7461C475.441 68.1211 474.279 67.8086 472.854 67.8086C471.701 67.8086 470.695 68.0625 469.836 68.5703C468.996 69.0586 468.293 69.7617 467.727 70.6797C467.18 71.5781 466.77 72.6523 466.496 73.9023C466.223 75.1523 466.086 76.5391 466.086 78.0625V79.2344C466.086 80.5625 466.262 81.793 466.613 82.9258C466.984 84.0586 467.521 85.0449 468.225 85.8848C468.947 86.7051 469.807 87.3496 470.803 87.8184C471.818 88.2676 472.971 88.4922 474.26 88.4922C475.881 88.4922 477.346 88.1797 478.654 87.5547C479.982 86.9102 481.135 85.9629 482.111 84.7129L486.008 88.7559C485.344 89.7324 484.445 90.6699 483.312 91.5684C482.199 92.4668 480.852 93.1992 479.27 93.7656C477.688 94.3125 475.861 94.5859 473.791 94.5859ZM499.572 68.7754V94H491.838V62.3008H499.162L499.572 68.7754ZM509.211 62.0957L509.094 69.3027C508.664 69.2246 508.176 69.166 507.629 69.127C507.102 69.0879 506.604 69.0684 506.135 69.0684C504.943 69.0684 503.898 69.2344 503 69.5664C502.102 69.8789 501.35 70.3379 500.744 70.9434C500.158 71.5488 499.709 72.291 499.396 73.1699C499.084 74.0293 498.908 75.0059 498.869 76.0996L497.199 75.8945C497.199 73.8828 497.404 72.0176 497.814 70.2988C498.225 68.5801 498.82 67.0762 499.602 65.7871C500.383 64.498 501.359 63.502 502.531 62.7988C503.723 62.0762 505.09 61.7148 506.633 61.7148C507.062 61.7148 507.521 61.7539 508.01 61.832C508.518 61.8906 508.918 61.9785 509.211 62.0957ZM529.924 62.3008V67.8672H511.76V62.3008H529.924ZM516.623 54.5078H524.387V84.8594C524.387 85.7969 524.514 86.5195 524.768 87.0273C525.021 87.5352 525.402 87.877 525.91 88.0527C526.418 88.2285 527.023 88.3164 527.727 88.3164C528.234 88.3164 528.703 88.2871 529.133 88.2285C529.562 88.1699 529.924 88.1113 530.217 88.0527L530.246 93.8535C529.602 94.0684 528.869 94.2441 528.049 94.3809C527.248 94.5176 526.34 94.5859 525.324 94.5859C523.586 94.5859 522.062 94.293 520.754 93.707C519.445 93.1016 518.43 92.1348 517.707 90.8066C516.984 89.459 516.623 87.6816 516.623 85.4746V54.5078ZM543.283 62.3008V94H535.52V62.3008H543.283ZM534.992 54.0098C534.992 52.8574 535.383 51.9004 536.164 51.1387C536.965 50.377 538.039 49.9961 539.387 49.9961C540.734 49.9961 541.799 50.377 542.58 51.1387C543.381 51.9004 543.781 52.8574 543.781 54.0098C543.781 55.1426 543.381 56.0898 542.58 56.8516C541.799 57.6133 540.734 57.9941 539.387 57.9941C538.039 57.9941 536.965 57.6133 536.164 56.8516C535.383 56.0898 534.992 55.1426 534.992 54.0098ZM560.451 94H552.658V60.543C552.658 57.9258 553.186 55.7188 554.24 53.9219C555.314 52.1055 556.848 50.7285 558.84 49.791C560.852 48.8535 563.244 48.3848 566.018 48.3848C567.639 48.3848 569.201 48.5508 570.705 48.8828C572.229 49.1953 573.791 49.6055 575.393 50.1133L574.25 56.3828C573.215 56.0508 572.082 55.7383 570.852 55.4453C569.641 55.1523 568.205 55.0059 566.545 55.0059C564.494 55.0059 562.961 55.4746 561.945 56.4121C560.949 57.3496 560.451 58.7266 560.451 60.543V94ZM566.779 62.3008V67.8672H547.883V62.3008H566.779ZM579.025 62.3008V94H571.262V62.3008H579.025ZM599.533 88.4922C600.627 88.4922 601.604 88.2773 602.463 87.8477C603.322 87.418 604.006 86.8125 604.514 86.0312C605.041 85.25 605.324 84.3418 605.363 83.3066H612.658C612.619 85.4551 612.014 87.3789 610.842 89.0781C609.67 90.7773 608.107 92.125 606.154 93.1211C604.221 94.0977 602.053 94.5859 599.65 94.5859C597.209 94.5859 595.08 94.1758 593.264 93.3555C591.447 92.5352 589.934 91.3926 588.723 89.9277C587.531 88.4629 586.633 86.7637 586.027 84.8301C585.441 82.8965 585.148 80.8262 585.148 78.6191V77.6816C585.148 75.4746 585.441 73.4043 586.027 71.4707C586.633 69.5371 587.531 67.8379 588.723 66.373C589.934 64.9082 591.447 63.7656 593.264 62.9453C595.08 62.125 597.199 61.7148 599.621 61.7148C602.18 61.7148 604.426 62.2129 606.359 63.209C608.312 64.2051 609.836 65.6113 610.93 67.4277C612.043 69.2441 612.619 71.3828 612.658 73.8438H605.363C605.324 72.7109 605.07 71.6953 604.602 70.7969C604.133 69.8984 603.469 69.1758 602.609 68.6289C601.75 68.082 600.705 67.8086 599.475 67.8086C598.166 67.8086 597.072 68.082 596.193 68.6289C595.334 69.1758 594.66 69.9277 594.172 70.8848C593.703 71.8223 593.371 72.877 593.176 74.0488C593 75.2012 592.912 76.4121 592.912 77.6816V78.6191C592.912 79.9082 593 81.1387 593.176 82.3105C593.371 83.4824 593.703 84.5371 594.172 85.4746C594.66 86.3926 595.334 87.125 596.193 87.6719C597.072 88.2188 598.186 88.4922 599.533 88.4922ZM635.275 87.2617V72.6426C635.275 71.5684 635.09 70.6406 634.719 69.8594C634.348 69.0781 633.781 68.4727 633.02 68.043C632.258 67.6133 631.291 67.3984 630.119 67.3984C629.084 67.3984 628.176 67.5742 627.395 67.9258C626.633 68.2773 626.047 68.7754 625.637 69.4199C625.227 70.0449 625.021 70.7676 625.021 71.5879H617.258C617.258 70.2793 617.57 69.0391 618.195 67.8672C618.82 66.6758 619.709 65.6211 620.861 64.7031C622.033 63.7656 623.43 63.0332 625.051 62.5059C626.691 61.9785 628.527 61.7148 630.559 61.7148C632.961 61.7148 635.1 62.125 636.975 62.9453C638.869 63.7461 640.354 64.957 641.428 66.5781C642.521 68.1992 643.068 70.2402 643.068 72.7012V86.5293C643.068 88.1113 643.166 89.4688 643.361 90.6016C643.576 91.7148 643.889 92.6816 644.299 93.502V94H636.418C636.047 93.1992 635.764 92.1836 635.568 90.9531C635.373 89.7031 635.275 88.4727 635.275 87.2617ZM636.359 74.6934L636.418 79.293H631.525C630.314 79.293 629.25 79.4199 628.332 79.6738C627.414 79.9082 626.662 80.2598 626.076 80.7285C625.49 81.1777 625.051 81.7246 624.758 82.3691C624.465 82.9941 624.318 83.707 624.318 84.5078C624.318 85.2891 624.494 85.9922 624.846 86.6172C625.217 87.2422 625.744 87.7402 626.428 88.1113C627.131 88.4629 627.951 88.6387 628.889 88.6387C630.256 88.6387 631.447 88.3652 632.463 87.8184C633.479 87.252 634.27 86.5684 634.836 85.7676C635.402 84.9668 635.705 84.2051 635.744 83.4824L637.971 86.8223C637.697 87.623 637.287 88.4727 636.74 89.3711C636.193 90.2695 635.49 91.1094 634.631 91.8906C633.771 92.6719 632.736 93.3164 631.525 93.8242C630.314 94.332 628.908 94.5859 627.307 94.5859C625.256 94.5859 623.42 94.1758 621.799 93.3555C620.178 92.5352 618.898 91.4121 617.961 89.9863C617.023 88.5605 616.555 86.9395 616.555 85.123C616.555 83.4434 616.867 81.959 617.492 80.6699C618.117 79.3809 619.045 78.2969 620.275 77.418C621.506 76.5195 623.029 75.8457 624.846 75.3965C626.682 74.9277 628.781 74.6934 631.145 74.6934H636.359ZM665.041 62.3008V67.8672H646.877V62.3008H665.041ZM651.74 54.5078H659.504V84.8594C659.504 85.7969 659.631 86.5195 659.885 87.0273C660.139 87.5352 660.52 87.877 661.027 88.0527C661.535 88.2285 662.141 88.3164 662.844 88.3164C663.352 88.3164 663.82 88.2871 664.25 88.2285C664.68 88.1699 665.041 88.1113 665.334 88.0527L665.363 93.8535C664.719 94.0684 663.986 94.2441 663.166 94.3809C662.365 94.5176 661.457 94.5859 660.441 94.5859C658.703 94.5859 657.18 94.293 655.871 93.707C654.562 93.1016 653.547 92.1348 652.824 90.8066C652.102 89.459 651.74 87.6816 651.74 85.4746V54.5078ZM678.4 62.3008V94H670.637V62.3008H678.4ZM670.109 54.0098C670.109 52.8574 670.5 51.9004 671.281 51.1387C672.082 50.377 673.156 49.9961 674.504 49.9961C675.852 49.9961 676.916 50.377 677.697 51.1387C678.498 51.9004 678.898 52.8574 678.898 54.0098C678.898 55.1426 678.498 56.0898 677.697 56.8516C676.916 57.6133 675.852 57.9941 674.504 57.9941C673.156 57.9941 672.082 57.6133 671.281 56.8516C670.5 56.0898 670.109 55.1426 670.109 54.0098ZM684.406 78.4727V77.8574C684.406 75.5332 684.738 73.3945 685.402 71.4414C686.066 69.4688 687.033 67.7598 688.303 66.3145C689.572 64.8691 691.125 63.7461 692.961 62.9453C694.797 62.125 696.887 61.7148 699.23 61.7148C701.613 61.7148 703.723 62.125 705.559 62.9453C707.414 63.7461 708.977 64.8691 710.246 66.3145C711.516 67.7598 712.482 69.4688 713.146 71.4414C713.811 73.3945 714.143 75.5332 714.143 77.8574V78.4727C714.143 80.7773 713.811 82.916 713.146 84.8887C712.482 86.8418 711.516 88.5508 710.246 90.0156C708.977 91.4609 707.424 92.584 705.588 93.3848C703.752 94.1855 701.652 94.5859 699.289 94.5859C696.945 94.5859 694.846 94.1855 692.99 93.3848C691.135 92.584 689.572 91.4609 688.303 90.0156C687.033 88.5508 686.066 86.8418 685.402 84.8887C684.738 82.916 684.406 80.7773 684.406 78.4727ZM692.141 77.8574V78.4727C692.141 79.8594 692.277 81.1582 692.551 82.3691C692.824 83.5801 693.244 84.6445 693.811 85.5625C694.377 86.4805 695.109 87.2031 696.008 87.7305C696.926 88.2383 698.02 88.4922 699.289 88.4922C700.539 88.4922 701.613 88.2383 702.512 87.7305C703.41 87.2031 704.143 86.4805 704.709 85.5625C705.295 84.6445 705.725 83.5801 705.998 82.3691C706.271 81.1582 706.408 79.8594 706.408 78.4727V77.8574C706.408 76.4902 706.271 75.2109 705.998 74.0195C705.725 72.8086 705.295 71.7441 704.709 70.8262C704.143 69.8887 703.4 69.1562 702.482 68.6289C701.584 68.082 700.5 67.8086 699.23 67.8086C697.98 67.8086 696.906 68.082 696.008 68.6289C695.109 69.1562 694.377 69.8887 693.811 70.8262C693.244 71.7441 692.824 72.8086 692.551 74.0195C692.277 75.2109 692.141 76.4902 692.141 77.8574ZM727.355 69.0684V94H719.621V62.3008H726.887L727.355 69.0684ZM726.125 77.0078H723.84C723.859 74.7031 724.172 72.6133 724.777 70.7383C725.383 68.8633 726.232 67.252 727.326 65.9043C728.439 64.5566 729.758 63.5215 731.281 62.7988C732.805 62.0762 734.504 61.7148 736.379 61.7148C737.902 61.7148 739.279 61.9297 740.51 62.3594C741.74 62.7891 742.795 63.4727 743.674 64.4102C744.572 65.3477 745.256 66.5781 745.725 68.1016C746.213 69.6055 746.457 71.4609 746.457 73.668V94H738.664V73.6094C738.664 72.1641 738.449 71.0215 738.02 70.1816C737.609 69.3418 737.004 68.7461 736.203 68.3945C735.422 68.043 734.455 67.8672 733.303 67.8672C732.111 67.8672 731.066 68.1113 730.168 68.5996C729.289 69.0684 728.547 69.7227 727.941 70.5625C727.355 71.4023 726.906 72.3691 726.594 73.4629C726.281 74.5566 726.125 75.7383 726.125 77.0078Z" fill="#FFA229"/>
<g opacity="0.45">
<path d="M624.599 194.957C644.498 194.957 660.63 178.401 660.63 157.978C660.63 137.556 644.498 121 624.599 121C604.7 121 588.568 137.556 588.568 157.978C588.568 178.401 604.7 194.957 624.599 194.957Z" fill="#ABE9FF"/>
</g>
<path opacity="0.15" d="M536.203 918.585C824.567 918.585 1058.33 907.508 1058.33 893.843C1058.33 880.179 824.567 869.102 536.203 869.102C247.839 869.102 14.0742 880.179 14.0742 893.843C14.0742 907.508 247.839 918.585 536.203 918.585Z" fill="#231F20"/>
<path d="M282.551 643.031H223.352V892.791H282.551V643.031Z" fill="#92BFF7"/>
<path d="M253.007 808.919H250.611C242.002 808.919 235.023 801.94 235.023 793.332V717.946C235.023 709.338 242.002 702.359 250.611 702.359H253.007C261.616 702.359 268.594 709.338 268.594 717.946V793.331C268.594 801.94 261.616 808.919 253.007 808.919Z" fill="#E1E3E2"/>
<path d="M282.551 876.344H223.352V884.569H282.551V876.344Z" fill="#E7E4F9"/>
<path d="M282.551 862.383H223.352V870.609H282.551V862.383Z" fill="#E7E4F9"/>
<path d="M282.552 892.789H297.473L297.473 643.029H282.552L282.552 892.789Z" fill="#5F9BDD"/>
<path d="M235.023 719.742V727.78H268.594V719.742C268.594 715.721 267.264 712.031 265.052 709.086H238.565C236.353 712.031 235.023 715.721 235.023 719.742Z" fill="#E05F25"/>
<path d="M235.023 787.234V791.534C235.023 793.29 235.28 794.983 235.748 796.581H267.87C268.338 794.983 268.594 793.29 268.594 791.534V787.234H235.023Z" fill="#E05F25"/>
<path d="M260.622 759.684C260.622 764.726 256.676 768.813 251.808 768.813C246.941 768.813 242.994 764.725 242.994 759.684C242.994 754.642 246.94 750.555 251.808 750.555C256.676 750.555 260.622 754.642 260.622 759.684Z" fill="#F1F6FA"/>
<path d="M251.81 765.916C255.132 765.916 257.826 763.126 257.826 759.685C257.826 756.243 255.132 753.453 251.81 753.453C248.487 753.453 245.793 756.243 245.793 759.685C245.793 763.126 248.487 765.916 251.81 765.916Z" fill="#809292"/>
<path d="M208.428 643.031H149.229V892.791H208.428V643.031Z" fill="#1C4670"/>
<path d="M178.884 808.918H176.487C167.879 808.918 160.9 801.939 160.9 793.331V717.946C160.9 709.338 167.879 702.359 176.487 702.359H178.884C187.492 702.359 194.471 709.338 194.471 717.946V793.332C194.471 801.939 187.492 808.918 178.884 808.918Z" fill="#E1E3E2"/>
<path d="M208.428 876.344H149.229V884.569H208.428V876.344Z" fill="#E7E4F9"/>
<path d="M208.428 862.383H149.229V870.609H208.428V862.383Z" fill="#E7E4F9"/>
<path d="M208.43 892.789H223.35L223.35 643.029H208.43L208.43 892.789Z" fill="#1568BA"/>
<path d="M160.9 719.742V727.78H194.471V719.742C194.471 715.721 193.141 712.031 190.929 709.086H164.442C162.23 712.031 160.9 715.721 160.9 719.742Z" fill="#E05F25"/>
<path d="M160.9 787.234V791.534C160.9 793.29 161.157 794.983 161.625 796.581H193.747C194.215 794.983 194.471 793.29 194.471 791.534V787.234H160.9Z" fill="#E05F25"/>
<path d="M186.499 759.684C186.499 764.726 182.553 768.813 177.685 768.813C172.818 768.813 168.871 764.725 168.871 759.684C168.871 754.642 172.817 750.555 177.685 750.555C182.552 750.555 186.499 754.642 186.499 759.684Z" fill="#F1F6FA"/>
<path d="M183.702 759.685C183.702 763.126 181.009 765.916 177.686 765.916C174.363 765.916 171.67 763.126 171.67 759.685C171.67 756.243 174.363 753.453 177.686 753.453C181.009 753.453 183.702 756.243 183.702 759.685Z" fill="#809292"/>
<path d="M229.106 304.398C229.265 297.077 228.144 289.677 225.662 282.544L241.643 268.375L231.171 251.494L211.477 259.485C206.182 254.003 200.023 249.636 193.354 246.471L194.631 225.242L175.296 220.711L166.974 240.4C159.663 240.33 152.285 241.541 145.185 244.11L130.904 227.994L114.029 238.466L122.218 258.656C116.987 263.858 112.812 269.862 109.764 276.341L87.7914 275.016L83.2617 294.358L103.775 303.034C103.763 310.033 104.922 317.085 107.323 323.891L90.5473 338.765L101.018 355.647L121.885 347.18C126.905 352.267 132.68 356.364 138.912 359.406L137.559 381.897L156.895 386.429L165.621 365.781C172.625 365.882 179.695 364.808 186.528 362.49L201.286 379.146L218.161 368.674L209.893 348.287C215.223 343.17 219.505 337.238 222.662 330.813L244.399 332.124L248.928 312.781L229.106 304.398ZM182.988 329.759C168.266 338.896 148.926 334.363 139.791 319.634C130.655 304.906 135.184 285.559 149.907 276.423C164.629 267.286 183.969 271.819 193.104 286.548C202.241 301.276 197.711 320.622 182.988 329.759Z" fill="#A9CEEA"/>
<path d="M221.565 308.319C221.724 300.997 220.603 293.598 218.123 286.466L234.103 272.297L223.632 255.415L203.937 263.407C198.642 257.925 192.484 253.557 185.815 250.392L187.092 229.164L167.756 224.633L159.435 244.322C152.124 244.252 144.746 245.463 137.645 248.031L123.365 231.915L106.49 242.388L114.679 262.578C109.447 267.78 105.272 273.783 102.224 280.262L80.2517 278.937L75.7227 298.279L96.2356 306.955C96.2234 313.954 97.3823 321.006 99.7835 327.812L83.0077 342.685L93.4778 359.567L114.345 351.1C119.365 356.187 125.139 360.284 131.373 363.327L130.018 385.817L149.356 390.349L158.081 369.702C165.085 369.802 172.155 368.728 178.988 366.41L193.746 383.067L210.621 372.594L202.352 352.208C207.682 347.09 211.964 341.158 215.121 334.733L236.858 336.045L241.387 316.702L221.565 308.319ZM175.449 333.681C160.726 342.817 141.386 338.284 132.25 323.556C123.116 308.827 127.644 289.481 142.366 280.345C157.089 271.208 176.429 275.741 185.564 290.469C194.7 305.197 190.17 324.544 175.449 333.681Z" fill="#C9E2F4"/>
<path d="M80.25 278.931L86.7827 279.325L87.7912 275.016L80.25 278.931Z" fill="#A9CEEA"/>
<path d="M167.754 224.626L175.295 220.711L173.109 225.881L167.754 224.626Z" fill="#A9CEEA"/>
<path d="M123.365 231.908L130.907 227.992L123.802 232.401L123.365 231.908Z" fill="#A9CEEA"/>
<path d="M149.355 390.342L156.896 386.426L151.541 385.172L149.355 390.342Z" fill="#A9CEEA"/>
<path d="M236.859 336.037L244.401 332.122L237.868 331.727L236.859 336.037Z" fill="#A9CEEA"/>
<path d="M193.746 383.057L201.287 379.141L200.85 378.648L193.746 383.057Z" fill="#A9CEEA"/>
<path d="M987.277 378.07H853.975C848.78 378.07 844.568 382.282 844.568 387.478V502.557C844.568 507.753 848.78 511.964 853.975 511.964H987.277C990.849 511.964 993.956 509.974 995.549 507.042C995.838 506.508 996.078 505.944 996.261 505.355C996.537 504.471 996.684 503.532 996.684 502.558V460.143V387.477C996.684 382.282 992.473 378.07 987.277 378.07Z" fill="#578AAD"/>
<path d="M979.421 511.968H853.458C848.548 511.968 844.568 507.988 844.568 503.079V394.334C844.568 389.425 848.548 385.445 853.457 385.445H979.421C984.33 385.445 988.31 389.425 988.31 394.335V503.079C988.311 507.988 984.331 511.968 979.421 511.968Z" fill="#FFA229"/>
<path d="M923.115 410.68L910.84 443.219L903.474 445.221L900.008 441.702L883.68 477.622L920.678 511.967H979.421C984.331 511.967 988.311 507.987 988.311 503.077V462.998L923.115 410.68Z" fill="#EDC94A"/>
<path d="M945.523 444.801C947.945 444.45 949.814 442.24 949.814 439.559C949.814 436.635 947.593 434.263 944.852 434.263H925.848C925.135 434.263 924.615 433.546 924.793 432.808C925.547 429.668 927.03 421.981 925.503 415.009C924.232 409.206 920.846 407.946 918.591 407.786C917.43 407.704 916.452 408.694 916.482 409.935L916.742 420.395C916.762 421.239 916.569 422.07 916.178 422.804C913.378 428.071 908.331 438.842 906.985 441.728C906.761 442.208 906.445 442.63 906.056 442.969L903.477 445.219V471.498C904.568 473.391 909.819 475.259 909.819 475.259H938.27C940.837 475.259 943.038 473.137 943.129 470.4C943.195 468.378 942.145 466.614 940.586 465.747H942.723C945.303 465.747 947.514 463.603 947.585 460.849C947.649 458.36 946.022 456.264 943.841 455.774H945.4C948.189 455.774 950.451 453.36 950.451 450.382V450.186C950.45 447.253 948.254 444.872 945.523 444.801Z" fill="white"/>
<path d="M898.517 441.031H884.564C883.408 441.031 882.471 442.031 882.471 443.266V475.594C882.471 476.829 883.408 477.829 884.564 477.829H898.517C899.674 477.829 900.61 476.828 900.61 475.594V443.266C900.61 442.031 899.674 441.031 898.517 441.031Z" fill="white"/>
<path d="M886.149 507.99L879.262 533.789L911.048 507.492L886.149 507.99Z" fill="#82C1EE"/>
<path d="M798.38 892.795H315.909C304.002 892.795 294.35 883.143 294.35 871.236V251.286C294.35 239.379 304.002 229.727 315.909 229.727H798.38C810.287 229.727 819.94 239.379 819.94 251.286V871.236C819.94 883.143 810.287 892.795 798.38 892.795Z" fill="#1C4670"/>
<path d="M779.242 269.672L790.508 269.845L779.264 641.925L779.242 269.672Z" fill="#1378D1"/>
<path d="M304.901 856.846V265.093C304.901 248.392 315.991 234.296 331.202 229.727H315.91C304.003 229.727 294.35 239.379 294.35 251.286V871.236C294.35 883.143 304.002 892.795 315.909 892.795H333.473C317.11 889 304.901 874.363 304.901 856.846Z" fill="#3BA9DD"/>
<path d="M819.051 694.163L819.941 675.75V251.286C819.941 244.508 816.807 238.468 811.916 234.516L819.051 694.163Z" fill="#1C4670"/>
<path d="M779.03 842.448H335.257C335.099 842.448 334.971 842.32 334.971 842.162V269.958C334.971 269.8 335.099 269.672 335.257 269.672H779.03C779.188 269.672 779.316 269.8 779.316 269.958V842.162C779.316 842.32 779.188 842.448 779.03 842.448Z" fill="url(#paint0_linear_117_2300)"/>
<path d="M779.242 309.551H335.048C335.006 309.551 334.973 309.518 334.973 309.476V269.747C334.973 269.706 335.006 269.672 335.048 269.672H779.242C779.284 269.672 779.318 269.705 779.318 269.747V309.476C779.317 309.518 779.284 309.551 779.242 309.551Z" fill="#ABE9FF"/>
<path d="M635.122 219.508H596.311C596.702 218.798 596.944 217.994 596.944 217.126V196.88C596.944 192.468 593.367 188.891 588.953 188.891H533.828C529.415 188.891 525.838 192.468 525.838 196.88V217.126C525.838 217.994 526.081 218.798 526.471 219.508H487.66C482.211 219.508 477.793 223.926 477.793 229.375V259.193C477.793 267.942 484.886 275.034 493.634 275.034H629.146C637.896 275.034 644.989 267.942 644.989 259.192V229.375C644.989 223.926 640.571 219.508 635.122 219.508Z" fill="#F5D420"/>
<path d="M635.123 219.508H596.312C596.703 218.798 596.945 217.994 596.945 217.126V196.88C596.945 192.468 593.367 188.891 588.954 188.891H577.422C582.374 192.165 587.917 197.305 588.295 204.113C588.987 216.567 584.143 231.098 589.678 233.173C595.214 235.249 632.578 226.254 631.886 244.244C631.47 255.058 630.304 267.116 629.441 275.02C638.053 274.862 644.989 267.843 644.989 259.192V229.375C644.989 223.926 640.572 219.508 635.123 219.508Z" fill="#EAC00F"/>
<path d="M603.088 382.927H387.293C384.628 382.927 382.467 380.766 382.467 378.101V370.6C382.467 367.934 384.628 365.773 387.293 365.773H603.088C605.754 365.773 607.915 367.934 607.915 370.6V378.101C607.915 380.766 605.753 382.927 603.088 382.927Z" fill="#80D3FB"/>
<path d="M508.066 765.645H712.001C716.643 765.645 720.405 761.463 720.405 756.303C720.405 751.144 716.642 746.961 712.001 746.961H508.066C503.425 746.961 499.662 751.144 499.662 756.303C499.662 761.462 503.425 765.645 508.066 765.645Z" fill="#80D3FB"/>
<path d="M619.101 728.279H712.001C716.642 728.279 720.405 724.096 720.405 718.937C720.405 713.776 716.642 709.594 712.001 709.594H619.101C614.46 709.594 610.697 713.776 610.697 718.937C610.697 724.097 614.461 728.279 619.101 728.279Z" fill="#80D3FB"/>
<path d="M716.561 548.193H465.674C463.551 548.193 461.83 546.471 461.83 544.348V538.375C461.83 536.252 463.551 534.531 465.674 534.531H716.56C718.683 534.531 720.404 536.253 720.404 538.376V544.349C720.405 546.471 718.684 548.193 716.561 548.193Z" fill="#80D3FB"/>
<path d="M716.561 491.107H465.674C463.551 491.107 461.83 489.385 461.83 487.262V481.289C461.83 479.166 463.551 477.445 465.674 477.445H716.56C718.683 477.445 720.404 479.167 720.404 481.29V487.263C720.404 489.386 718.684 491.107 716.561 491.107Z" fill="#80D3FB"/>
<path d="M428.562 503.06H389.445C388.984 503.06 388.611 502.687 388.611 502.227V466.325C388.611 465.865 388.984 465.492 389.445 465.492H428.562C429.022 465.492 429.396 465.865 429.396 466.325V502.227C429.395 502.687 429.022 503.06 428.562 503.06Z" fill="#80D3FB"/>
<path d="M716.562 602.833H465.676C463.553 602.833 461.832 601.112 461.832 598.99V593.016C461.832 590.893 463.553 589.172 465.676 589.172H716.563C718.686 589.172 720.407 590.893 720.407 593.016V598.99C720.406 601.113 718.685 602.833 716.562 602.833Z" fill="#80D3FB"/>
<path d="M716.562 657.473H465.676C463.553 657.473 461.832 655.753 461.832 653.63V647.656C461.832 645.533 463.553 643.812 465.676 643.812H716.562C718.685 643.812 720.406 645.534 720.406 647.656V653.63C720.406 655.752 718.685 657.473 716.562 657.473Z" fill="#80D3FB"/>
<path d="M715.411 428.971H384.389C383.327 428.971 382.467 428.11 382.467 427.049V424.062C382.467 423.001 383.327 422.141 384.388 422.141H715.41C716.471 422.141 717.332 423.001 717.332 424.063V427.049C717.332 428.111 716.472 428.971 715.411 428.971Z" fill="#80D3FB"/>
<path d="M401.556 493.466C399.835 493.466 398.133 492.712 396.987 491.279L385.781 477.271C384.349 475.481 384.639 472.87 386.428 471.438C388.218 470.007 390.829 470.296 392.262 472.086L401.975 484.228L431.686 461.837C433.515 460.456 436.117 460.822 437.497 462.653C438.877 464.484 438.511 467.085 436.681 468.465L404.892 492.418C403.88 493.124 402.713 493.466 401.556 493.466Z" fill="#027BB7"/>
<path d="M401.556 658.724C399.835 658.724 398.133 657.969 396.987 656.537L385.781 642.53C384.349 640.74 384.639 638.129 386.428 636.696C388.218 635.265 390.829 635.554 392.262 637.344L401.975 649.486L431.686 627.094C433.515 625.715 436.117 626.079 437.497 627.911C438.877 629.742 438.511 632.343 436.681 633.723L404.892 657.676C403.88 658.383 402.713 658.724 401.556 658.724Z" fill="#027BB7"/>
<path d="M272.111 676.359L255.327 646.385C255.174 646.11 254.89 645.955 254.577 645.97L219.021 647.838C218.337 647.874 217.932 647.121 218.283 646.468L271.036 548.453C271.292 547.978 271.845 547.78 272.272 548.01L326.095 576.978C326.522 577.207 326.661 577.779 326.406 578.254L273.67 676.236C273.314 676.896 272.45 676.965 272.111 676.359Z" fill="#FFA229"/>
<path d="M326.096 576.978L272.272 548.01C271.846 547.78 271.292 547.978 271.037 548.453L247.246 592.656C258.174 595.342 282.761 602.926 287.043 617.581C291.741 633.661 276.893 666.849 272.289 676.532C272.688 676.905 273.361 676.809 273.67 676.236L326.406 578.254C326.661 577.779 326.522 577.208 326.096 576.978Z" fill="#F8992A"/>
<path d="M405.081 676.359L421.865 646.385C422.018 646.11 422.302 645.955 422.615 645.97L458.171 647.838C458.855 647.874 459.26 647.121 458.909 646.468L406.156 548.453C405.9 547.978 405.347 547.78 404.92 548.01L351.097 576.978C350.67 577.207 350.531 577.779 350.786 578.254L403.522 676.236C403.878 676.896 404.742 676.965 405.081 676.359Z" fill="#FFA229"/>
<path d="M351.099 576.978L404.922 548.01C405.349 547.78 405.902 547.978 406.158 548.453L429.948 592.656C419.02 595.342 394.434 602.926 390.152 617.581C385.453 633.661 400.301 666.849 404.906 676.532C404.506 676.905 403.833 676.809 403.525 676.236L350.789 578.254C350.532 577.779 350.671 577.208 351.099 576.978Z" fill="#F8992A"/>
<path d="M433.754 488.486L448.47 462.964C449.568 461.06 448.917 458.626 447.013 457.525L422.164 443.156C420.933 442.445 420.175 441.13 420.175 439.708V412.239C420.175 410.038 418.391 408.255 416.19 408.255H387.509C386.084 408.255 384.768 407.494 384.057 406.26L370.343 382.471C369.243 380.564 366.804 379.91 364.897 381.012L341.778 394.377C340.543 395.09 339.023 395.09 337.789 394.377L314.675 381.013C312.768 379.91 310.328 380.564 309.229 382.472L295.518 406.26C294.806 407.494 293.491 408.255 292.066 408.255H263.388C261.187 408.255 259.403 410.038 259.403 412.239V439.713C259.403 441.135 258.644 442.45 257.413 443.161L232.563 457.526C230.66 458.626 230.007 461.06 231.106 462.964L245.819 488.486C246.529 489.719 246.529 491.234 245.819 492.466L231.106 517.986C230.007 519.891 230.66 522.324 232.563 523.425L257.413 537.791C258.645 538.502 259.403 539.817 259.403 541.24V568.719C259.403 570.92 261.187 572.703 263.388 572.703H292.068C293.491 572.703 294.807 573.463 295.519 574.697L309.229 598.481C310.329 600.389 312.769 601.042 314.675 599.94L337.79 586.575C339.024 585.862 340.544 585.862 341.778 586.574L364.898 599.941C366.804 601.042 369.243 600.389 370.344 598.482L384.057 574.697C384.769 573.462 386.084 572.702 387.509 572.702H416.191C418.392 572.702 420.175 570.919 420.175 568.718V541.239C420.175 539.817 420.934 538.502 422.165 537.79L447.013 523.424C448.917 522.325 449.569 519.89 448.471 517.985L433.755 492.466C433.045 491.235 433.044 489.718 433.754 488.486Z" fill="#FEC625"/>
<path d="M375.927 406.26C376.639 407.494 377.954 408.255 379.379 408.255H387.51C386.086 408.255 384.769 407.494 384.058 406.26L370.344 382.471C369.244 380.564 366.805 379.91 364.898 381.012L362.254 382.541L375.927 406.26Z" fill="#E2A305"/>
<path d="M375.927 574.698L362.254 598.412L364.899 599.942C366.805 601.043 369.244 600.39 370.343 598.483L384.057 574.698C384.769 573.463 386.085 572.703 387.509 572.703H379.378C377.954 572.703 376.639 573.463 375.927 574.698Z" fill="#E2A305"/>
<path d="M433.755 492.469C433.045 491.237 433.045 489.72 433.755 488.489L448.471 462.967C449.569 461.063 448.917 458.629 447.014 457.528L422.165 443.159C420.933 442.447 420.175 441.133 420.175 439.711V412.241C420.175 410.041 418.391 408.258 416.191 408.258H408.061C410.261 408.258 412.045 410.041 412.045 412.241V439.711C412.045 441.133 412.803 442.447 414.034 443.159L438.884 457.528C440.786 458.628 441.439 461.062 440.341 462.967L425.625 488.489C424.914 489.721 424.914 491.238 425.625 492.469L440.341 517.989C441.438 519.893 440.786 522.327 438.883 523.428L414.034 537.793C412.803 538.505 412.045 539.82 412.045 541.243V568.722C412.045 570.921 410.261 572.705 408.061 572.705H416.191C418.392 572.705 420.175 570.921 420.175 568.722V541.243C420.175 539.82 420.934 538.506 422.165 537.793L447.013 523.428C448.917 522.328 449.569 519.893 448.471 517.989L433.755 492.469Z" fill="#E2A305"/>
<path d="M408.933 490.475C408.933 528.719 377.978 559.722 339.794 559.722C301.604 559.722 270.646 528.718 270.646 490.475C270.646 452.23 301.604 421.227 339.794 421.227C377.978 421.227 408.933 452.23 408.933 490.475Z" fill="#FDEEC3"/>
<path d="M313.17 474.036C313.926 474.036 314.502 474.162 314.898 474.414C315.33 474.63 315.546 474.954 315.546 475.386C315.546 475.566 315.492 475.8 315.384 476.088C315.276 476.34 315.114 476.574 314.898 476.79C314.718 476.97 314.538 477.114 314.358 477.222C314.214 477.294 314.106 477.366 314.034 477.438C313.458 477.762 312.99 478.122 312.63 478.518C312.27 478.914 311.964 479.526 311.712 480.354L305.178 503.628C305.034 504.096 304.962 504.546 304.962 504.978C304.962 505.41 305.016 505.77 305.124 506.058C305.268 506.346 305.466 506.652 305.718 506.976C306.042 507.444 306.204 507.822 306.204 508.11C306.204 508.182 306.168 508.362 306.096 508.65C305.952 509.154 305.628 509.514 305.124 509.73C304.62 509.91 303.864 510 302.856 510H290.166C289.41 510 288.834 509.874 288.438 509.622C288.006 509.37 287.79 509.028 287.79 508.596C287.79 508.38 287.844 508.146 287.952 507.894C288.096 507.498 288.33 507.192 288.654 506.976C288.978 506.76 289.176 506.634 289.248 506.598C289.824 506.238 290.292 505.878 290.652 505.518C291.012 505.122 291.318 504.492 291.57 503.628L298.158 480.354C298.302 479.886 298.374 479.436 298.374 479.004C298.374 478.608 298.302 478.284 298.158 478.032C298.05 477.744 297.888 477.42 297.672 477.06C297.348 476.592 297.186 476.214 297.186 475.926C297.186 475.818 297.222 475.62 297.294 475.332C297.438 474.864 297.744 474.54 298.212 474.36C298.716 474.144 299.472 474.036 300.48 474.036H313.17ZM337.324 473.226C341.86 473.226 345.406 474.306 347.962 476.466C350.518 478.59 351.796 481.668 351.796 485.7C351.796 487.608 351.508 489.66 350.932 491.856C349.852 495.888 348.178 499.308 345.91 502.116C343.642 504.924 340.942 507.048 337.81 508.488C334.678 509.928 331.276 510.648 327.604 510.648C323.104 510.648 319.576 509.586 317.02 507.462C314.464 505.302 313.186 502.206 313.186 498.174C313.186 496.338 313.492 494.232 314.104 491.856C315.148 487.86 316.786 484.476 319.018 481.704C321.286 478.896 323.968 476.79 327.064 475.386C330.196 473.946 333.616 473.226 337.324 473.226ZM336.352 478.518C335.272 478.518 334.3 478.95 333.436 479.814C332.572 480.678 331.708 482.1 330.844 484.08C330.016 486.024 329.116 488.742 328.144 492.234C326.704 497.274 325.984 500.748 325.984 502.656C325.984 503.772 326.182 504.582 326.578 505.086C326.974 505.59 327.604 505.842 328.468 505.842C329.548 505.842 330.52 505.41 331.384 504.546C332.248 503.646 333.094 502.224 333.922 500.28C334.75 498.336 335.668 495.654 336.676 492.234C338.08 487.266 338.782 483.774 338.782 481.758C338.782 480.606 338.584 479.778 338.188 479.274C337.792 478.77 337.18 478.518 336.352 478.518ZM369.771 473.712C371.787 473.712 373.641 473.964 375.333 474.468C377.061 474.936 378.807 475.692 380.571 476.736L381.813 475.71C382.677 475.026 383.379 474.558 383.919 474.306C384.495 474.054 385.143 473.928 385.863 473.928C386.727 473.928 387.411 474.126 387.915 474.522C388.419 474.882 388.671 475.422 388.671 476.142C388.671 476.43 388.617 476.736 388.509 477.06L386.241 484.512C385.989 485.376 385.665 485.988 385.269 486.348C384.909 486.708 384.351 486.888 383.595 486.888C382.803 486.888 382.101 486.654 381.489 486.186C380.913 485.682 379.995 484.674 378.735 483.162C377.475 481.722 376.323 480.714 375.279 480.138C374.271 479.526 373.227 479.22 372.147 479.22C371.355 479.22 370.689 479.49 370.149 480.03C369.609 480.534 369.339 481.164 369.339 481.92C369.339 482.784 369.771 483.594 370.635 484.35C371.499 485.07 372.849 485.988 374.685 487.104C376.557 488.22 378.105 489.228 379.329 490.128C380.553 491.028 381.597 492.144 382.461 493.476C383.325 494.808 383.757 496.338 383.757 498.066C383.757 499.182 383.577 500.298 383.217 501.414C382.353 504.294 380.679 506.49 378.195 508.002C375.711 509.478 372.813 510.216 369.501 510.216C367.017 510.216 364.929 509.928 363.237 509.352C361.545 508.776 359.817 507.804 358.053 506.436L356.109 508.056C355.209 508.812 354.471 509.334 353.895 509.622C353.319 509.874 352.671 510 351.951 510C351.123 510 350.457 509.802 349.953 509.406C349.485 509.01 349.251 508.47 349.251 507.786C349.251 507.426 349.323 507.048 349.467 506.652L352.113 498.606C352.401 497.67 352.797 497.004 353.301 496.608C353.805 496.212 354.453 496.014 355.245 496.014C356.073 496.014 356.811 496.302 357.459 496.878C358.143 497.454 359.025 498.498 360.105 500.01C361.257 501.666 362.319 502.818 363.291 503.466C364.299 504.114 365.487 504.438 366.855 504.438C367.827 504.438 368.565 504.294 369.069 504.006C369.609 503.682 369.987 503.178 370.203 502.494C370.275 502.314 370.311 502.044 370.311 501.684C370.311 500.82 369.897 500.028 369.069 499.308C368.241 498.588 366.963 497.724 365.235 496.716C363.399 495.6 361.905 494.61 360.753 493.746C359.601 492.846 358.593 491.73 357.729 490.398C356.901 489.066 356.487 487.5 356.487 485.7C356.487 484.44 356.685 483.198 357.081 481.974C357.837 479.49 359.385 477.492 361.725 475.98C364.065 474.468 366.747 473.712 369.771 473.712Z" fill="#1C4670"/>
<path d="M343.092 557.526C304.904 557.526 273.945 526.523 273.945 488.279C273.945 464.991 285.462 444.436 303.061 431.883C283.611 444.138 270.645 465.766 270.645 490.479C270.645 528.723 301.602 559.726 339.792 559.726C354.723 559.726 368.513 554.937 379.815 546.876C369.167 553.586 356.603 557.526 343.092 557.526Z" fill="#F9F6ED"/>
<path d="M339.794 421.227C324.703 421.227 310.783 426.123 299.416 434.338C309.495 428.589 321.129 425.26 333.56 425.26C371.744 425.26 402.7 456.263 402.7 494.508C402.7 517.641 391.332 538.069 373.931 550.645C394.819 538.73 408.933 516.272 408.933 490.475C408.933 452.229 377.977 421.227 339.794 421.227Z" fill="#EFD89E"/>
<path d="M913.169 711.488C868.304 710.406 818.84 682.883 818.84 682.883C818.84 682.883 769.664 710.917 724.813 712.465C724.813 712.465 707.732 853.354 819.974 901.899C931.709 852.193 913.169 711.488 913.169 711.488Z" fill="#0A8CC9"/>
<path d="M913.161 710.154C868.297 709.131 818.84 682.883 818.84 682.883C818.84 682.883 769.657 709.642 724.806 711.131C724.806 711.131 707.692 845.561 819.923 891.853C931.668 844.4 913.161 710.154 913.161 710.154Z" fill="#6BA3D8"/>
<path d="M904.465 717.435C863.76 716.509 818.89 692.734 818.89 692.734C818.89 692.734 774.268 716.973 733.575 718.32C733.575 718.32 718.046 840.08 819.87 882.006C921.254 839.027 904.465 717.435 904.465 717.435Z" fill="url(#paint1_linear_117_2300)"/>
<path opacity="0.54" d="M898.999 721.926C860.91 721.059 818.922 698.812 818.922 698.812C818.922 698.812 777.167 721.493 739.089 722.755C739.089 722.755 724.558 836.69 819.839 875.924C914.709 835.705 898.999 721.926 898.999 721.926Z" fill="#939292"/>
<path d="M894.807 724.081C858.72 723.239 818.937 701.719 818.937 701.719C818.937 701.719 779.379 723.65 743.303 724.867C743.303 724.867 729.548 835.059 819.825 873.014C909.704 834.125 894.807 724.081 894.807 724.081Z" fill="white"/>
<path d="M888.681 727.848C855.522 727.051 818.963 706.805 818.963 706.805C818.963 706.805 782.617 727.429 749.467 728.569C749.467 728.569 736.84 832.215 819.798 867.925C902.382 831.357 888.681 727.848 888.681 727.848Z" fill="#FFA229"/>
<path d="M818.965 706.805L819.799 867.925C902.384 831.357 888.683 727.848 888.683 727.848C855.524 727.051 818.967 706.806 818.965 706.805Z" fill="#E4D659"/>
<path d="M813.767 808.401C813.664 808.402 813.561 808.4 813.458 808.397C810.726 808.325 808.183 807.107 806.301 804.97L788.956 785.279C787.089 783.159 787.167 779.809 789.133 777.798C791.096 775.785 794.205 775.873 796.073 777.994L813.418 797.685C813.446 797.717 813.53 797.812 813.693 797.816C813.88 797.821 813.946 797.729 813.975 797.699L849.55 761.043C851.508 759.024 854.615 759.102 856.491 761.215C858.364 763.329 858.295 766.679 856.335 768.697L820.761 805.354C818.86 807.312 816.386 808.388 813.767 808.401Z" fill="white"/>
<defs>
<linearGradient id="paint0_linear_117_2300" x1="557.143" y1="269.672" x2="557.143" y2="842.448" gradientUnits="userSpaceOnUse">
<stop stop-color="#FDFDFD"/>
<stop offset="0.4791" stop-color="#FBFDFD"/>
<stop offset="0.6517" stop-color="#F4FBFD"/>
<stop offset="0.7747" stop-color="#E9F8FE"/>
<stop offset="0.8741" stop-color="#D8F4FE"/>
<stop offset="0.9583" stop-color="#C2EFFF"/>
<stop offset="1" stop-color="#B4ECFF"/>
</linearGradient>
<linearGradient id="paint1_linear_117_2300" x1="818.889" y1="692.735" x2="819.851" y2="882.007" gradientUnits="userSpaceOnUse">
<stop stop-color="#E5E5E5"/>
<stop offset="0.1562" stop-color="#E1E1E1"/>
<stop offset="0.2978" stop-color="#D6D6D6"/>
<stop offset="0.434" stop-color="#C4C4C4"/>
<stop offset="0.5666" stop-color="#AAAAAA"/>
<stop offset="0.6968" stop-color="#888888"/>
<stop offset="0.825" stop-color="#5F5F5F"/>
<stop offset="0.9495" stop-color="#303030"/>
<stop offset="1" stop-color="#1A1A1A"/>
</linearGradient>
</defs>
</svg>
