<svg width="1080" height="1080" viewBox="0 0 1080 1080" fill="none" xmlns="http://www.w3.org/2000/svg">
<rect width="1080" height="1080" fill="white"/>
<path d="M80.252 66.9219V111H71.9268V66.9219H80.252ZM96.4785 85.2373V111H88.4863V78.2441H95.9941L96.4785 85.2373ZM95.207 93.4414H92.8457C92.8659 91.0599 93.1888 88.9004 93.8145 86.9629C94.4401 85.0254 95.318 83.3604 96.4482 81.9678C97.5986 80.5752 98.9609 79.5055 100.535 78.7588C102.109 78.012 103.865 77.6387 105.803 77.6387C107.377 77.6387 108.8 77.8607 110.071 78.3047C111.343 78.7487 112.433 79.4551 113.341 80.4238C114.269 81.3926 114.976 82.6641 115.46 84.2383C115.965 85.7923 116.217 87.7096 116.217 89.9902V111H108.164V89.9297C108.164 88.4362 107.942 87.2555 107.498 86.3877C107.074 85.5199 106.449 84.9043 105.621 84.541C104.814 84.1777 103.815 83.9961 102.624 83.9961C101.393 83.9961 100.313 84.2484 99.3848 84.7529C98.4766 85.2373 97.7096 85.9134 97.084 86.7812C96.4785 87.6491 96.0143 88.6481 95.6914 89.7783C95.3685 90.9085 95.207 92.1296 95.207 93.4414ZM136.712 105.309C137.842 105.309 138.851 105.087 139.739 104.643C140.627 104.199 141.334 103.573 141.858 102.766C142.403 101.958 142.696 101.02 142.736 99.9502H150.274C150.234 102.17 149.608 104.158 148.397 105.914C147.187 107.67 145.572 109.062 143.554 110.092C141.556 111.101 139.315 111.605 136.833 111.605C134.31 111.605 132.11 111.182 130.233 110.334C128.356 109.486 126.792 108.306 125.541 106.792C124.31 105.278 123.382 103.522 122.756 101.524C122.15 99.5264 121.848 97.387 121.848 95.1064V94.1377C121.848 91.8571 122.15 89.7178 122.756 87.7197C123.382 85.7217 124.31 83.9658 125.541 82.4521C126.792 80.9385 128.356 79.7578 130.233 78.9102C132.11 78.0625 134.3 77.6387 136.803 77.6387C139.447 77.6387 141.768 78.1533 143.766 79.1826C145.784 80.2119 147.358 81.665 148.488 83.542C149.639 85.4189 150.234 87.6289 150.274 90.1719H142.736C142.696 89.0013 142.434 87.9518 141.949 87.0234C141.465 86.0951 140.779 85.3483 139.891 84.7832C139.003 84.2181 137.923 83.9355 136.651 83.9355C135.299 83.9355 134.169 84.2181 133.261 84.7832C132.373 85.3483 131.676 86.1253 131.172 87.1143C130.688 88.083 130.344 89.1729 130.143 90.3838C129.961 91.5745 129.87 92.8258 129.87 94.1377V95.1064C129.87 96.4385 129.961 97.71 130.143 98.9209C130.344 100.132 130.688 101.222 131.172 102.19C131.676 103.139 132.373 103.896 133.261 104.461C134.169 105.026 135.319 105.309 136.712 105.309ZM163.595 84.9346V111H155.603V78.2441H163.171L163.595 84.9346ZM173.555 78.0322L173.434 85.4795C172.99 85.3988 172.485 85.3382 171.92 85.2979C171.375 85.2575 170.86 85.2373 170.376 85.2373C169.145 85.2373 168.065 85.4089 167.137 85.752C166.208 86.0749 165.431 86.5492 164.806 87.1748C164.2 87.8005 163.736 88.5674 163.413 89.4756C163.09 90.3636 162.909 91.3727 162.868 92.5029L161.143 92.291C161.143 90.2122 161.354 88.2848 161.778 86.5088C162.202 84.7327 162.818 83.1787 163.625 81.8467C164.432 80.5146 165.441 79.4854 166.652 78.7588C167.883 78.012 169.296 77.6387 170.891 77.6387C171.335 77.6387 171.809 77.679 172.313 77.7598C172.838 77.8203 173.252 77.9111 173.555 78.0322ZM192.052 111.605C189.569 111.605 187.339 111.202 185.361 110.395C183.383 109.587 181.698 108.467 180.306 107.034C178.933 105.581 177.874 103.896 177.127 101.979C176.4 100.041 176.037 97.9622 176.037 95.7422V94.5312C176.037 92.0085 176.4 89.7178 177.127 87.6592C177.854 85.5804 178.883 83.7943 180.215 82.3008C181.547 80.8073 183.141 79.6569 184.998 78.8496C186.855 78.0423 188.903 77.6387 191.144 77.6387C193.465 77.6387 195.513 78.0322 197.289 78.8193C199.065 79.5863 200.549 80.6761 201.739 82.0889C202.93 83.5016 203.828 85.1969 204.434 87.1748C205.039 89.1325 205.342 91.3021 205.342 93.6836V97.0439H179.67V91.5342H197.471V90.9287C197.43 89.6572 197.188 88.4967 196.744 87.4473C196.3 86.3776 195.614 85.5299 194.686 84.9043C193.757 84.2585 192.556 83.9355 191.083 83.9355C189.892 83.9355 188.853 84.1979 187.965 84.7227C187.097 85.2272 186.37 85.9538 185.785 86.9023C185.22 87.8307 184.796 88.9408 184.514 90.2324C184.231 91.5241 184.09 92.957 184.09 94.5312V95.7422C184.09 97.1146 184.271 98.3861 184.635 99.5566C185.018 100.727 185.573 101.746 186.3 102.614C187.047 103.462 187.935 104.128 188.964 104.612C190.013 105.076 191.204 105.309 192.536 105.309C194.211 105.309 195.725 104.986 197.077 104.34C198.45 103.674 199.64 102.695 200.649 101.403L204.676 105.581C203.99 106.59 203.061 107.559 201.891 108.487C200.74 109.416 199.348 110.173 197.713 110.758C196.078 111.323 194.191 111.605 192.052 111.605ZM228.743 104.037V88.9307C228.743 87.8206 228.551 86.862 228.168 86.0547C227.785 85.2474 227.199 84.6217 226.412 84.1777C225.625 83.7337 224.626 83.5117 223.415 83.5117C222.345 83.5117 221.407 83.6934 220.6 84.0566C219.812 84.4199 219.207 84.9346 218.783 85.6006C218.359 86.2464 218.147 86.9932 218.147 87.8408H210.125C210.125 86.4886 210.448 85.207 211.094 83.9961C211.74 82.765 212.658 81.6751 213.849 80.7266C215.06 79.7578 216.503 79.001 218.178 78.4561C219.873 77.9111 221.77 77.6387 223.869 77.6387C226.352 77.6387 228.562 78.0625 230.499 78.9102C232.457 79.7376 233.991 80.9889 235.101 82.6641C236.231 84.3392 236.796 86.4482 236.796 88.9912V103.28C236.796 104.915 236.897 106.318 237.099 107.488C237.321 108.639 237.644 109.638 238.067 110.485V111H229.924C229.54 110.173 229.248 109.123 229.046 107.852C228.844 106.56 228.743 105.288 228.743 104.037ZM229.863 91.0498L229.924 95.8027H224.868C223.617 95.8027 222.517 95.9339 221.568 96.1963C220.62 96.4385 219.843 96.8018 219.237 97.2861C218.632 97.7503 218.178 98.3154 217.875 98.9814C217.572 99.6273 217.421 100.364 217.421 101.191C217.421 101.999 217.603 102.725 217.966 103.371C218.349 104.017 218.894 104.532 219.601 104.915C220.327 105.278 221.175 105.46 222.144 105.46C223.556 105.46 224.787 105.177 225.837 104.612C226.886 104.027 227.704 103.321 228.289 102.493C228.874 101.666 229.187 100.879 229.228 100.132L231.528 103.583C231.246 104.41 230.822 105.288 230.257 106.217C229.692 107.145 228.965 108.013 228.077 108.82C227.189 109.628 226.119 110.294 224.868 110.818C223.617 111.343 222.164 111.605 220.509 111.605C218.39 111.605 216.493 111.182 214.817 110.334C213.142 109.486 211.82 108.326 210.852 106.853C209.883 105.379 209.398 103.704 209.398 101.827C209.398 100.091 209.721 98.5576 210.367 97.2256C211.013 95.8936 211.972 94.7734 213.243 93.8652C214.515 92.9368 216.089 92.2406 217.966 91.7764C219.863 91.292 222.033 91.0498 224.475 91.0498H229.863ZM262.014 102.039C262.014 101.353 261.832 100.737 261.469 100.192C261.105 99.6475 260.419 99.153 259.41 98.709C258.421 98.2448 256.968 97.8109 255.051 97.4072C253.355 97.0439 251.791 96.5898 250.358 96.0449C248.925 95.5 247.694 94.8441 246.665 94.0771C245.636 93.29 244.828 92.3717 244.243 91.3223C243.678 90.2526 243.396 89.0215 243.396 87.6289C243.396 86.2767 243.688 85.0052 244.273 83.8145C244.859 82.6035 245.706 81.5439 246.816 80.6357C247.926 79.7074 249.279 78.9808 250.873 78.4561C252.467 77.9111 254.264 77.6387 256.262 77.6387C259.047 77.6387 261.438 78.0928 263.437 79.001C265.455 79.9092 266.999 81.1605 268.068 82.7549C269.138 84.3291 269.673 86.1051 269.673 88.083H261.681C261.681 87.2152 261.479 86.4281 261.075 85.7217C260.692 85.0153 260.096 84.4502 259.289 84.0264C258.482 83.5824 257.463 83.3604 256.231 83.3604C255.121 83.3604 254.183 83.542 253.416 83.9053C252.669 84.2686 252.104 84.7428 251.721 85.3281C251.337 85.9134 251.146 86.5592 251.146 87.2656C251.146 87.7904 251.246 88.2646 251.448 88.6885C251.67 89.0921 252.023 89.4655 252.508 89.8086C252.992 90.1517 253.648 90.4645 254.476 90.7471C255.323 91.0296 256.363 91.3021 257.594 91.5645C260.036 92.0488 262.165 92.6947 263.981 93.502C265.818 94.2891 267.251 95.3385 268.28 96.6504C269.31 97.9622 269.824 99.6374 269.824 101.676C269.824 103.129 269.511 104.461 268.886 105.672C268.26 106.863 267.352 107.902 266.161 108.79C264.97 109.678 263.548 110.374 261.893 110.879C260.238 111.363 258.371 111.605 256.292 111.605C253.285 111.605 250.742 111.071 248.663 110.001C246.584 108.911 245.01 107.539 243.94 105.884C242.871 104.209 242.336 102.473 242.336 100.677H249.995C250.056 101.948 250.399 102.967 251.024 103.734C251.65 104.501 252.437 105.056 253.386 105.399C254.354 105.722 255.374 105.884 256.443 105.884C257.654 105.884 258.674 105.722 259.501 105.399C260.328 105.056 260.954 104.602 261.378 104.037C261.802 103.452 262.014 102.786 262.014 102.039ZM290.622 111.605C288.14 111.605 285.91 111.202 283.932 110.395C281.954 109.587 280.269 108.467 278.876 107.034C277.504 105.581 276.444 103.896 275.697 101.979C274.971 100.041 274.607 97.9622 274.607 95.7422V94.5312C274.607 92.0085 274.971 89.7178 275.697 87.6592C276.424 85.5804 277.453 83.7943 278.785 82.3008C280.117 80.8073 281.712 79.6569 283.568 78.8496C285.425 78.0423 287.474 77.6387 289.714 77.6387C292.035 77.6387 294.083 78.0322 295.859 78.8193C297.635 79.5863 299.119 80.6761 300.31 82.0889C301.5 83.5016 302.398 85.1969 303.004 87.1748C303.609 89.1325 303.912 91.3021 303.912 93.6836V97.0439H278.24V91.5342H296.041V90.9287C296.001 89.6572 295.758 88.4967 295.314 87.4473C294.87 86.3776 294.184 85.5299 293.256 84.9043C292.327 84.2585 291.127 83.9355 289.653 83.9355C288.463 83.9355 287.423 84.1979 286.535 84.7227C285.667 85.2272 284.941 85.9538 284.355 86.9023C283.79 87.8307 283.367 88.9408 283.084 90.2324C282.801 91.5241 282.66 92.957 282.66 94.5312V95.7422C282.66 97.1146 282.842 98.3861 283.205 99.5566C283.589 100.727 284.144 101.746 284.87 102.614C285.617 103.462 286.505 104.128 287.534 104.612C288.584 105.076 289.774 105.309 291.106 105.309C292.782 105.309 294.295 104.986 295.647 104.34C297.02 103.674 298.211 102.695 299.22 101.403L303.246 105.581C302.56 106.59 301.632 107.559 300.461 108.487C299.311 109.416 297.918 110.173 296.283 110.758C294.648 111.323 292.761 111.605 290.622 111.605ZM342.844 73.6123L330.28 111H321.471L337.939 66.9219H343.57L342.844 73.6123ZM353.349 111L340.725 73.6123L339.968 66.9219H345.629L362.188 111H353.349ZM352.773 94.6221V101.191H329.13V94.6221H352.773ZM385.257 103.22V78.2441H393.31V111H385.741L385.257 103.22ZM386.286 96.4385L388.769 96.3779C388.769 98.5778 388.526 100.606 388.042 102.463C387.558 104.32 386.801 105.934 385.771 107.307C384.762 108.659 383.481 109.718 381.927 110.485C380.373 111.232 378.536 111.605 376.417 111.605C374.802 111.605 373.329 111.383 371.997 110.939C370.665 110.475 369.515 109.759 368.546 108.79C367.597 107.801 366.861 106.54 366.336 105.006C365.811 103.452 365.549 101.585 365.549 99.4053V78.2441H373.541V99.4658C373.541 100.556 373.662 101.464 373.904 102.19C374.167 102.917 374.52 103.512 374.964 103.977C375.428 104.421 375.963 104.743 376.568 104.945C377.194 105.127 377.86 105.218 378.566 105.218C380.504 105.218 382.028 104.834 383.138 104.067C384.268 103.28 385.075 102.231 385.56 100.919C386.044 99.5869 386.286 98.0934 386.286 96.4385ZM415.894 78.2441V83.9961H397.124V78.2441H415.894ZM402.149 70.1914H410.172V101.555C410.172 102.523 410.303 103.27 410.565 103.795C410.828 104.32 411.221 104.673 411.746 104.854C412.271 105.036 412.896 105.127 413.623 105.127C414.148 105.127 414.632 105.097 415.076 105.036C415.52 104.976 415.894 104.915 416.196 104.854L416.227 110.849C415.561 111.071 414.804 111.252 413.956 111.394C413.129 111.535 412.19 111.605 411.141 111.605C409.344 111.605 407.77 111.303 406.418 110.697C405.066 110.072 404.016 109.073 403.27 107.7C402.523 106.308 402.149 104.471 402.149 102.19V70.1914ZM429.062 64.5V111H421.04V64.5H429.062ZM427.791 93.4414H425.43C425.43 91.1608 425.732 89.0618 426.338 87.1445C426.943 85.2272 427.801 83.5622 428.911 82.1494C430.021 80.7165 431.343 79.6064 432.877 78.8193C434.431 78.0322 436.146 77.6387 438.023 77.6387C439.638 77.6387 441.101 77.8708 442.413 78.335C443.745 78.779 444.885 79.4954 445.834 80.4844C446.783 81.4733 447.509 82.765 448.014 84.3594C448.538 85.9336 448.801 87.8509 448.801 90.1113V111H440.748V90.0508C440.748 88.5371 440.526 87.3464 440.082 86.4785C439.638 85.5905 439.002 84.9548 438.175 84.5713C437.368 84.1878 436.368 83.9961 435.178 83.9961C433.886 83.9961 432.776 84.2484 431.848 84.7529C430.919 85.2373 430.152 85.9134 429.547 86.7812C428.962 87.6491 428.518 88.6481 428.215 89.7783C427.932 90.9085 427.791 92.1296 427.791 93.4414ZM454.432 94.9551V94.3193C454.432 91.9176 454.775 89.7077 455.461 87.6895C456.147 85.651 457.146 83.8851 458.458 82.3916C459.77 80.8981 461.374 79.7376 463.271 78.9102C465.169 78.0625 467.328 77.6387 469.75 77.6387C472.212 77.6387 474.392 78.0625 476.289 78.9102C478.206 79.7376 479.821 80.8981 481.133 82.3916C482.445 83.8851 483.444 85.651 484.13 87.6895C484.816 89.7077 485.159 91.9176 485.159 94.3193V94.9551C485.159 97.3366 484.816 99.5465 484.13 101.585C483.444 103.603 482.445 105.369 481.133 106.883C479.821 108.376 478.216 109.537 476.319 110.364C474.422 111.192 472.253 111.605 469.811 111.605C467.389 111.605 465.219 111.192 463.302 110.364C461.384 109.537 459.77 108.376 458.458 106.883C457.146 105.369 456.147 103.603 455.461 101.585C454.775 99.5465 454.432 97.3366 454.432 94.9551ZM462.424 94.3193V94.9551C462.424 96.388 462.565 97.7301 462.848 98.9814C463.13 100.233 463.564 101.333 464.149 102.281C464.735 103.23 465.492 103.977 466.42 104.521C467.368 105.046 468.499 105.309 469.811 105.309C471.102 105.309 472.212 105.046 473.141 104.521C474.069 103.977 474.826 103.23 475.411 102.281C476.017 101.333 476.461 100.233 476.743 98.9814C477.026 97.7301 477.167 96.388 477.167 94.9551V94.3193C477.167 92.9066 477.026 91.5846 476.743 90.3535C476.461 89.1022 476.017 88.0023 475.411 87.0537C474.826 86.085 474.059 85.3281 473.11 84.7832C472.182 84.2181 471.062 83.9355 469.75 83.9355C468.458 83.9355 467.348 84.2181 466.42 84.7832C465.492 85.3281 464.735 86.085 464.149 87.0537C463.564 88.0023 463.13 89.1022 462.848 90.3535C462.565 91.5846 462.424 92.9066 462.424 94.3193ZM498.964 84.9346V111H490.972V78.2441H498.54L498.964 84.9346ZM508.924 78.0322L508.803 85.4795C508.359 85.3988 507.854 85.3382 507.289 85.2979C506.744 85.2575 506.229 85.2373 505.745 85.2373C504.514 85.2373 503.434 85.4089 502.506 85.752C501.577 86.0749 500.8 86.5492 500.175 87.1748C499.569 87.8005 499.105 88.5674 498.782 89.4756C498.459 90.3636 498.278 91.3727 498.237 92.5029L496.512 92.291C496.512 90.2122 496.724 88.2848 497.147 86.5088C497.571 84.7327 498.187 83.1787 498.994 81.8467C499.801 80.5146 500.811 79.4854 502.021 78.7588C503.253 78.012 504.665 77.6387 506.26 77.6387C506.704 77.6387 507.178 77.679 507.683 77.7598C508.207 77.8203 508.621 77.9111 508.924 78.0322ZM521.79 78.2441V111H513.768V78.2441H521.79ZM513.223 69.6768C513.223 68.486 513.626 67.4971 514.434 66.71C515.261 65.9229 516.371 65.5293 517.764 65.5293C519.156 65.5293 520.256 65.9229 521.063 66.71C521.891 67.4971 522.305 68.486 522.305 69.6768C522.305 70.8473 521.891 71.8262 521.063 72.6133C520.256 73.4004 519.156 73.7939 517.764 73.7939C516.371 73.7939 515.261 73.4004 514.434 72.6133C513.626 71.8262 513.223 70.8473 513.223 69.6768ZM555.091 104.703V111H530.448V104.703H555.091ZM554.516 83.0273L533.445 111H528.178V106.065L549.127 78.2441H554.516V83.0273ZM551.579 78.2441V84.5713H528.602V78.2441H551.579ZM575.011 111.605C572.528 111.605 570.298 111.202 568.32 110.395C566.342 109.587 564.657 108.467 563.265 107.034C561.892 105.581 560.833 103.896 560.086 101.979C559.359 100.041 558.996 97.9622 558.996 95.7422V94.5312C558.996 92.0085 559.359 89.7178 560.086 87.6592C560.812 85.5804 561.842 83.7943 563.174 82.3008C564.506 80.8073 566.1 79.6569 567.957 78.8496C569.814 78.0423 571.862 77.6387 574.103 77.6387C576.424 77.6387 578.472 78.0322 580.248 78.8193C582.024 79.5863 583.507 80.6761 584.698 82.0889C585.889 83.5016 586.787 85.1969 587.393 87.1748C587.998 89.1325 588.301 91.3021 588.301 93.6836V97.0439H562.629V91.5342H580.43V90.9287C580.389 89.6572 580.147 88.4967 579.703 87.4473C579.259 86.3776 578.573 85.5299 577.645 84.9043C576.716 84.2585 575.515 83.9355 574.042 83.9355C572.851 83.9355 571.812 84.1979 570.924 84.7227C570.056 85.2272 569.329 85.9538 568.744 86.9023C568.179 87.8307 567.755 88.9408 567.473 90.2324C567.19 91.5241 567.049 92.957 567.049 94.5312V95.7422C567.049 97.1146 567.23 98.3861 567.594 99.5566C567.977 100.727 568.532 101.746 569.259 102.614C570.006 103.462 570.894 104.128 571.923 104.612C572.972 105.076 574.163 105.309 575.495 105.309C577.17 105.309 578.684 104.986 580.036 104.34C581.409 103.674 582.599 102.695 583.608 101.403L587.635 105.581C586.949 106.59 586.02 107.559 584.85 108.487C583.699 109.416 582.307 110.173 580.672 110.758C579.037 111.323 577.15 111.605 575.011 111.605ZM613.307 104.037V64.5H621.359V111H614.094L613.307 104.037ZM592.267 95.0156V94.3799C592.267 91.8773 592.549 89.6068 593.114 87.5684C593.7 85.5098 594.547 83.7438 595.657 82.2705C596.767 80.7972 598.109 79.6569 599.684 78.8496C601.278 78.0423 603.084 77.6387 605.103 77.6387C607.06 77.6387 608.766 78.0322 610.219 78.8193C611.692 79.6064 612.943 80.7266 613.973 82.1797C615.022 83.6328 615.86 85.3584 616.485 87.3564C617.111 89.3343 617.565 91.514 617.848 93.8955V95.6211C617.565 97.9421 617.111 100.071 616.485 102.009C615.86 103.946 615.022 105.642 613.973 107.095C612.943 108.528 611.692 109.638 610.219 110.425C608.745 111.212 607.02 111.605 605.042 111.605C603.044 111.605 601.248 111.192 599.653 110.364C598.079 109.537 596.737 108.376 595.627 106.883C594.537 105.389 593.7 103.633 593.114 101.615C592.549 99.597 592.267 97.3971 592.267 95.0156ZM600.289 94.3799V95.0156C600.289 96.4284 600.41 97.7503 600.652 98.9814C600.895 100.213 601.288 101.302 601.833 102.251C602.378 103.179 603.074 103.906 603.922 104.431C604.79 104.955 605.839 105.218 607.07 105.218C608.645 105.218 609.936 104.875 610.945 104.188C611.975 103.482 612.772 102.523 613.337 101.312C613.902 100.081 614.265 98.6989 614.427 97.165V92.4121C614.346 91.2012 614.134 90.0811 613.791 89.0518C613.468 88.0225 613.004 87.1344 612.398 86.3877C611.813 85.641 611.087 85.0557 610.219 84.6318C609.351 84.208 608.322 83.9961 607.131 83.9961C605.9 83.9961 604.85 84.2686 603.982 84.8135C603.115 85.3382 602.408 86.0749 601.863 87.0234C601.318 87.972 600.915 89.0719 600.652 90.3232C600.41 91.5745 600.289 92.9268 600.289 94.3799Z" fill="#001B78"/>
<path d="M667.708 99.5566C667.708 98.709 667.577 97.9521 667.314 97.2861C667.072 96.5999 666.618 95.9844 665.952 95.4395C665.306 94.8743 664.388 94.3294 663.197 93.8047C662.027 93.2598 660.513 92.6947 658.656 92.1094C656.598 91.4635 654.68 90.737 652.904 89.9297C651.128 89.1224 649.564 88.1839 648.212 87.1143C646.88 86.0446 645.84 84.8135 645.094 83.4209C644.347 82.0081 643.974 80.3734 643.974 78.5166C643.974 76.7002 644.357 75.0452 645.124 73.5518C645.911 72.0583 647.021 70.7767 648.454 69.707C649.887 68.6172 651.572 67.7796 653.51 67.1943C655.467 66.609 657.627 66.3164 659.988 66.3164C663.258 66.3164 666.083 66.9118 668.465 68.1025C670.867 69.2933 672.723 70.9079 674.035 72.9463C675.347 74.9847 676.003 77.2754 676.003 79.8184H667.708C667.708 78.446 667.415 77.235 666.83 76.1855C666.265 75.1361 665.397 74.3086 664.227 73.7031C663.076 73.0977 661.623 72.7949 659.867 72.7949C658.172 72.7949 656.759 73.0472 655.629 73.5518C654.519 74.0563 653.681 74.7425 653.116 75.6104C652.571 76.4782 652.299 77.4469 652.299 78.5166C652.299 79.3239 652.491 80.0505 652.874 80.6963C653.257 81.3219 653.833 81.9173 654.6 82.4824C655.367 83.0273 656.315 83.542 657.445 84.0264C658.596 84.4906 659.928 84.9548 661.441 85.4189C663.863 86.1455 665.982 86.9528 667.799 87.8408C669.635 88.7288 671.159 89.738 672.37 90.8682C673.601 91.9984 674.52 93.2699 675.125 94.6826C675.751 96.0954 676.063 97.6999 676.063 99.4961C676.063 101.393 675.69 103.089 674.943 104.582C674.197 106.076 673.127 107.347 671.734 108.396C670.342 109.446 668.667 110.243 666.709 110.788C664.771 111.333 662.602 111.605 660.2 111.605C658.061 111.605 655.942 111.323 653.843 110.758C651.764 110.173 649.877 109.305 648.182 108.154C646.486 106.984 645.134 105.51 644.125 103.734C643.116 101.938 642.611 99.8392 642.611 97.4375H650.967C650.967 98.8301 651.189 100.021 651.633 101.01C652.097 101.979 652.743 102.776 653.57 103.401C654.418 104.007 655.407 104.451 656.537 104.733C657.667 105.016 658.888 105.157 660.2 105.157C661.896 105.157 663.288 104.925 664.378 104.461C665.488 103.977 666.315 103.311 666.86 102.463C667.425 101.615 667.708 100.646 667.708 99.5566ZM689.717 64.5V111H681.694V64.5H689.717ZM688.445 93.4414H686.084C686.084 91.1608 686.387 89.0618 686.992 87.1445C687.598 85.2272 688.455 83.5622 689.565 82.1494C690.675 80.7165 691.997 79.6064 693.531 78.8193C695.085 78.0322 696.801 77.6387 698.678 77.6387C700.292 77.6387 701.756 77.8708 703.067 78.335C704.399 78.779 705.54 79.4954 706.488 80.4844C707.437 81.4733 708.163 82.765 708.668 84.3594C709.193 85.9336 709.455 87.8509 709.455 90.1113V111H701.402V90.0508C701.402 88.5371 701.18 87.3464 700.736 86.4785C700.292 85.5905 699.657 84.9548 698.829 84.5713C698.022 84.1878 697.023 83.9961 695.832 83.9961C694.54 83.9961 693.43 84.2484 692.502 84.7529C691.574 85.2373 690.807 85.9134 690.201 86.7812C689.616 87.6491 689.172 88.6481 688.869 89.7783C688.587 90.9085 688.445 92.1296 688.445 93.4414ZM734.552 104.037V88.9307C734.552 87.8206 734.36 86.862 733.977 86.0547C733.593 85.2474 733.008 84.6217 732.221 84.1777C731.434 83.7337 730.435 83.5117 729.224 83.5117C728.154 83.5117 727.215 83.6934 726.408 84.0566C725.621 84.4199 725.016 84.9346 724.592 85.6006C724.168 86.2464 723.956 86.9932 723.956 87.8408H715.934C715.934 86.4886 716.257 85.207 716.902 83.9961C717.548 82.765 718.466 81.6751 719.657 80.7266C720.868 79.7578 722.311 79.001 723.986 78.4561C725.682 77.9111 727.579 77.6387 729.678 77.6387C732.16 77.6387 734.37 78.0625 736.308 78.9102C738.265 79.7376 739.799 80.9889 740.909 82.6641C742.039 84.3392 742.604 86.4482 742.604 88.9912V103.28C742.604 104.915 742.705 106.318 742.907 107.488C743.129 108.639 743.452 109.638 743.876 110.485V111H735.732C735.349 110.173 735.056 109.123 734.854 107.852C734.653 106.56 734.552 105.288 734.552 104.037ZM735.672 91.0498L735.732 95.8027H730.677C729.425 95.8027 728.326 95.9339 727.377 96.1963C726.428 96.4385 725.651 96.8018 725.046 97.2861C724.44 97.7503 723.986 98.3154 723.684 98.9814C723.381 99.6273 723.229 100.364 723.229 101.191C723.229 101.999 723.411 102.725 723.774 103.371C724.158 104.017 724.703 104.532 725.409 104.915C726.136 105.278 726.983 105.46 727.952 105.46C729.365 105.46 730.596 105.177 731.646 104.612C732.695 104.027 733.512 103.321 734.098 102.493C734.683 101.666 734.996 100.879 735.036 100.132L737.337 103.583C737.054 104.41 736.631 105.288 736.065 106.217C735.5 107.145 734.774 108.013 733.886 108.82C732.998 109.628 731.928 110.294 730.677 110.818C729.425 111.343 727.972 111.605 726.317 111.605C724.198 111.605 722.301 111.182 720.626 110.334C718.951 109.486 717.629 108.326 716.66 106.853C715.691 105.379 715.207 103.704 715.207 101.827C715.207 100.091 715.53 98.5576 716.176 97.2256C716.822 95.8936 717.78 94.7734 719.052 93.8652C720.323 92.9368 721.897 92.2406 723.774 91.7764C725.672 91.292 727.841 91.0498 730.283 91.0498H735.672ZM757.802 84.9346V111H749.81V78.2441H757.378L757.802 84.9346ZM767.762 78.0322L767.641 85.4795C767.197 85.3988 766.692 85.3382 766.127 85.2979C765.582 85.2575 765.067 85.2373 764.583 85.2373C763.352 85.2373 762.272 85.4089 761.344 85.752C760.415 86.0749 759.638 86.5492 759.013 87.1748C758.407 87.8005 757.943 88.5674 757.62 89.4756C757.297 90.3636 757.116 91.3727 757.075 92.5029L755.35 92.291C755.35 90.2122 755.562 88.2848 755.985 86.5088C756.409 84.7327 757.025 83.1787 757.832 81.8467C758.639 80.5146 759.648 79.4854 760.859 78.7588C762.09 78.012 763.503 77.6387 765.098 77.6387C765.542 77.6387 766.016 77.679 766.521 77.7598C767.045 77.8203 767.459 77.9111 767.762 78.0322ZM786.259 111.605C783.776 111.605 781.546 111.202 779.568 110.395C777.59 109.587 775.905 108.467 774.513 107.034C773.14 105.581 772.081 103.896 771.334 101.979C770.607 100.041 770.244 97.9622 770.244 95.7422V94.5312C770.244 92.0085 770.607 89.7178 771.334 87.6592C772.061 85.5804 773.09 83.7943 774.422 82.3008C775.754 80.8073 777.348 79.6569 779.205 78.8496C781.062 78.0423 783.11 77.6387 785.351 77.6387C787.672 77.6387 789.72 78.0322 791.496 78.8193C793.272 79.5863 794.756 80.6761 795.946 82.0889C797.137 83.5016 798.035 85.1969 798.641 87.1748C799.246 89.1325 799.549 91.3021 799.549 93.6836V97.0439H773.877V91.5342H791.678V90.9287C791.637 89.6572 791.395 88.4967 790.951 87.4473C790.507 86.3776 789.821 85.5299 788.893 84.9043C787.964 84.2585 786.763 83.9355 785.29 83.9355C784.099 83.9355 783.06 84.1979 782.172 84.7227C781.304 85.2272 780.577 85.9538 779.992 86.9023C779.427 87.8307 779.003 88.9408 778.721 90.2324C778.438 91.5241 778.297 92.957 778.297 94.5312V95.7422C778.297 97.1146 778.479 98.3861 778.842 99.5566C779.225 100.727 779.78 101.746 780.507 102.614C781.254 103.462 782.142 104.128 783.171 104.612C784.22 105.076 785.411 105.309 786.743 105.309C788.418 105.309 789.932 104.986 791.284 104.34C792.657 103.674 793.847 102.695 794.856 101.403L798.883 105.581C798.197 106.59 797.268 107.559 796.098 108.487C794.947 109.416 793.555 110.173 791.92 110.758C790.285 111.323 788.398 111.605 786.259 111.605ZM846.745 96.499H855.07C854.848 99.4456 854.031 102.059 852.618 104.34C851.205 106.6 849.238 108.376 846.715 109.668C844.192 110.96 841.134 111.605 837.542 111.605C834.777 111.605 832.285 111.121 830.064 110.152C827.865 109.163 825.978 107.761 824.403 105.944C822.849 104.108 821.659 101.908 820.831 99.3447C820.004 96.7614 819.59 93.8652 819.59 90.6562V87.2959C819.59 84.0869 820.014 81.1908 820.861 78.6074C821.709 76.0241 822.92 73.8242 824.494 72.0078C826.089 70.1712 827.996 68.7585 830.216 67.7695C832.456 66.7806 834.959 66.2861 837.724 66.2861C841.316 66.2861 844.354 66.9521 846.836 68.2842C849.318 69.596 851.246 71.4023 852.618 73.7031C853.991 76.0039 854.818 78.6478 855.101 81.6348H846.775C846.614 79.778 846.21 78.2038 845.564 76.9121C844.939 75.6204 843.99 74.6416 842.719 73.9756C841.467 73.2894 839.802 72.9463 837.724 72.9463C836.109 72.9463 834.686 73.249 833.455 73.8545C832.244 74.46 831.235 75.3682 830.428 76.5791C829.62 77.7699 829.015 79.2633 828.611 81.0596C828.208 82.8356 828.006 84.8942 828.006 87.2354V90.6562C828.006 92.8965 828.188 94.9046 828.551 96.6807C828.914 98.4567 829.479 99.9603 830.246 101.191C831.013 102.423 832.002 103.361 833.213 104.007C834.424 104.653 835.867 104.976 837.542 104.976C839.58 104.976 841.235 104.653 842.507 104.007C843.799 103.361 844.777 102.412 845.443 101.161C846.13 99.9098 846.563 98.3558 846.745 96.499ZM878.956 104.037V88.9307C878.956 87.8206 878.764 86.862 878.381 86.0547C877.997 85.2474 877.412 84.6217 876.625 84.1777C875.838 83.7337 874.839 83.5117 873.628 83.5117C872.558 83.5117 871.62 83.6934 870.812 84.0566C870.025 84.4199 869.42 84.9346 868.996 85.6006C868.572 86.2464 868.36 86.9932 868.36 87.8408H860.338C860.338 86.4886 860.661 85.207 861.307 83.9961C861.952 82.765 862.871 81.6751 864.062 80.7266C865.272 79.7578 866.715 79.001 868.391 78.4561C870.086 77.9111 871.983 77.6387 874.082 77.6387C876.564 77.6387 878.774 78.0625 880.712 78.9102C882.67 79.7376 884.203 80.9889 885.313 82.6641C886.444 84.3392 887.009 86.4482 887.009 88.9912V103.28C887.009 104.915 887.11 106.318 887.312 107.488C887.534 108.639 887.856 109.638 888.28 110.485V111H880.137C879.753 110.173 879.461 109.123 879.259 107.852C879.057 106.56 878.956 105.288 878.956 104.037ZM880.076 91.0498L880.137 95.8027H875.081C873.83 95.8027 872.73 95.9339 871.781 96.1963C870.833 96.4385 870.056 96.8018 869.45 97.2861C868.845 97.7503 868.391 98.3154 868.088 98.9814C867.785 99.6273 867.634 100.364 867.634 101.191C867.634 101.999 867.815 102.725 868.179 103.371C868.562 104.017 869.107 104.532 869.813 104.915C870.54 105.278 871.388 105.46 872.356 105.46C873.769 105.46 875 105.177 876.05 104.612C877.099 104.027 877.917 103.321 878.502 102.493C879.087 101.666 879.4 100.879 879.44 100.132L881.741 103.583C881.459 104.41 881.035 105.288 880.47 106.217C879.905 107.145 879.178 108.013 878.29 108.82C877.402 109.628 876.332 110.294 875.081 110.818C873.83 111.343 872.377 111.605 870.722 111.605C868.603 111.605 866.705 111.182 865.03 110.334C863.355 109.486 862.033 108.326 861.064 106.853C860.096 105.379 859.611 103.704 859.611 101.827C859.611 100.091 859.934 98.5576 860.58 97.2256C861.226 95.8936 862.185 94.7734 863.456 93.8652C864.728 92.9368 866.302 92.2406 868.179 91.7764C870.076 91.292 872.245 91.0498 874.688 91.0498H880.076ZM902.206 84.541V123.594H894.184V78.2441H901.601L902.206 84.541ZM923.246 94.2891V94.9248C923.246 97.3063 922.964 99.5163 922.398 101.555C921.854 103.573 921.046 105.339 919.977 106.853C918.907 108.346 917.575 109.517 915.98 110.364C914.406 111.192 912.59 111.605 910.531 111.605C908.513 111.605 906.757 111.222 905.264 110.455C903.77 109.668 902.509 108.558 901.479 107.125C900.45 105.692 899.623 104.027 898.997 102.13C898.392 100.213 897.938 98.1237 897.635 95.8633V93.835C897.938 91.4333 898.392 89.2536 898.997 87.2959C899.623 85.318 900.45 83.6126 901.479 82.1797C902.509 80.7266 903.76 79.6064 905.233 78.8193C906.727 78.0322 908.473 77.6387 910.471 77.6387C912.549 77.6387 914.376 78.0322 915.95 78.8193C917.545 79.6064 918.887 80.7367 919.977 82.21C921.066 83.6833 921.884 85.4391 922.429 87.4775C922.974 89.516 923.246 91.7865 923.246 94.2891ZM915.224 94.9248V94.2891C915.224 92.8359 915.092 91.4938 914.83 90.2627C914.568 89.0114 914.164 87.9215 913.619 86.9932C913.074 86.0446 912.368 85.3079 911.5 84.7832C910.632 84.2585 909.583 83.9961 908.352 83.9961C907.12 83.9961 906.061 84.1979 905.173 84.6016C904.285 85.0052 903.558 85.5804 902.993 86.3271C902.428 87.0739 901.984 87.9619 901.661 88.9912C901.358 90.0003 901.157 91.1204 901.056 92.3516V97.377C901.237 98.8704 901.59 100.213 902.115 101.403C902.64 102.594 903.407 103.543 904.416 104.249C905.445 104.955 906.777 105.309 908.412 105.309C909.643 105.309 910.693 105.036 911.561 104.491C912.428 103.946 913.135 103.2 913.68 102.251C914.225 101.282 914.618 100.172 914.86 98.9209C915.103 97.6696 915.224 96.3376 915.224 94.9248ZM937.565 78.2441V111H929.543V78.2441H937.565ZM928.998 69.6768C928.998 68.486 929.402 67.4971 930.209 66.71C931.036 65.9229 932.146 65.5293 933.539 65.5293C934.932 65.5293 936.032 65.9229 936.839 66.71C937.666 67.4971 938.08 68.486 938.08 69.6768C938.08 70.8473 937.666 71.8262 936.839 72.6133C936.032 73.4004 934.932 73.7939 933.539 73.7939C932.146 73.7939 931.036 73.4004 930.209 72.6133C929.402 71.8262 928.998 70.8473 928.998 69.6768ZM960.694 78.2441V83.9961H941.925V78.2441H960.694ZM946.95 70.1914H954.973V101.555C954.973 102.523 955.104 103.27 955.366 103.795C955.629 104.32 956.022 104.673 956.547 104.854C957.072 105.036 957.697 105.127 958.424 105.127C958.949 105.127 959.433 105.097 959.877 105.036C960.321 104.976 960.694 104.915 960.997 104.854L961.027 110.849C960.361 111.071 959.604 111.252 958.757 111.394C957.929 111.535 956.991 111.605 955.941 111.605C954.145 111.605 952.571 111.303 951.219 110.697C949.867 110.072 948.817 109.073 948.07 107.7C947.324 106.308 946.95 104.471 946.95 102.19V70.1914ZM984.065 104.037V88.9307C984.065 87.8206 983.874 86.862 983.49 86.0547C983.107 85.2474 982.521 84.6217 981.734 84.1777C980.947 83.7337 979.948 83.5117 978.737 83.5117C977.668 83.5117 976.729 83.6934 975.922 84.0566C975.135 84.4199 974.529 84.9346 974.105 85.6006C973.682 86.2464 973.47 86.9932 973.47 87.8408H965.447C965.447 86.4886 965.77 85.207 966.416 83.9961C967.062 82.765 967.98 81.6751 969.171 80.7266C970.382 79.7578 971.825 79.001 973.5 78.4561C975.195 77.9111 977.092 77.6387 979.191 77.6387C981.674 77.6387 983.884 78.0625 985.821 78.9102C987.779 79.7376 989.313 80.9889 990.423 82.6641C991.553 84.3392 992.118 86.4482 992.118 88.9912V103.28C992.118 104.915 992.219 106.318 992.421 107.488C992.643 108.639 992.966 109.638 993.39 110.485V111H985.246C984.863 110.173 984.57 109.123 984.368 107.852C984.166 106.56 984.065 105.288 984.065 104.037ZM985.186 91.0498L985.246 95.8027H980.19C978.939 95.8027 977.839 95.9339 976.891 96.1963C975.942 96.4385 975.165 96.8018 974.56 97.2861C973.954 97.7503 973.5 98.3154 973.197 98.9814C972.895 99.6273 972.743 100.364 972.743 101.191C972.743 101.999 972.925 102.725 973.288 103.371C973.672 104.017 974.216 104.532 974.923 104.915C975.649 105.278 976.497 105.46 977.466 105.46C978.879 105.46 980.11 105.177 981.159 104.612C982.209 104.027 983.026 103.321 983.611 102.493C984.197 101.666 984.509 100.879 984.55 100.132L986.851 103.583C986.568 104.41 986.144 105.288 985.579 106.217C985.014 107.145 984.287 108.013 983.399 108.82C982.511 109.628 981.442 110.294 980.19 110.818C978.939 111.343 977.486 111.605 975.831 111.605C973.712 111.605 971.815 111.182 970.14 110.334C968.465 109.486 967.143 108.326 966.174 106.853C965.205 105.379 964.721 103.704 964.721 101.827C964.721 100.091 965.044 98.5576 965.689 97.2256C966.335 95.8936 967.294 94.7734 968.565 93.8652C969.837 92.9368 971.411 92.2406 973.288 91.7764C975.185 91.292 977.355 91.0498 979.797 91.0498H985.186ZM1007.8 64.5V111H999.777V64.5H1007.8Z" fill="#FFA229"/>
<path d="M364.366 421.573C364.366 421.573 375.624 376.671 340.67 369.213C340.67 369.213 316.821 367.192 302.311 375.598C302.311 375.598 341.142 400.855 336.042 407.871C330.941 414.887 294.785 376.58 294.785 376.58C294.785 376.58 251.006 393.418 240.819 406.657C240.819 406.657 290.991 418.255 284.341 423.776C277.69 429.298 224.919 419.679 224.919 419.679C224.919 419.679 189.361 445.82 203.196 468.707C217.032 491.593 234.043 492.273 239.617 488.688C245.19 485.103 273.076 454.597 276.217 459.088C279.358 463.578 266.489 489.867 252.326 497.879C252.326 497.879 294.716 514.647 308.614 496.721C322.512 478.796 317.182 464.069 325.986 453.152C334.791 442.235 344.45 437.394 342.393 445.077C340.336 452.759 322.345 468.229 321.546 483.075C320.747 497.921 318.766 508.649 336.202 496.35C353.637 484.051 377.396 454.794 370.905 438.194L364.366 421.573Z" fill="#1C4670" fill-opacity="0.45"/>
<path d="M222 461C222 461 326.491 401.303 365.139 420.979C365.139 420.979 378.077 434.599 401.127 441.133L407 446.961C407 446.961 378.877 436.171 371.685 438.376C371.692 438.376 363.286 393.468 222 461Z" fill="#8BC0CC"/>
<path d="M401.261 441.183C401.261 441.183 432.452 446.658 449 475.611L445.038 478C445.038 478 422.282 450.828 403.039 445.256C383.796 439.685 401.261 441.183 401.261 441.183Z" fill="#599DAD"/>
<path d="M408.423 351.913C408.423 351.913 462.867 304.098 424.021 263.223C424.021 263.223 394.801 239.266 368.497 237.112C368.497 237.112 396.596 304.421 383.759 308.876C370.923 313.332 357.855 231.618 357.855 231.618C357.855 231.618 286.08 214.138 261.052 222.06C261.052 222.06 316.001 281.924 302.464 283.109C288.926 284.295 228.852 224.636 228.852 224.636C228.852 224.636 159.446 226.481 157.168 268.359C154.889 310.238 176.391 326.356 186.809 326.721C197.227 327.086 260.519 312.722 260.61 321.318C260.701 329.914 220.649 352.249 195.187 349.913C195.187 349.913 235.414 409.467 269.331 398.794C303.249 388.121 309.397 364.41 330.478 358.172C351.559 351.934 368.441 354.397 358.956 362.452C349.47 370.508 312.377 374.382 298.201 392.766C284.026 411.151 271.946 423.242 305.492 422.996C339.038 422.751 395.853 406.331 402.127 379.125L408.423 351.913Z" fill="#BCECF7"/>
<path d="M190 274C190 274 374.233 293.379 407.214 352.344C407.214 352.344 412.331 380.808 436.382 409.526L439 422C439 422 412.031 383.475 400.958 379.782C400.958 379.782 428.004 316.565 190 274Z" fill="#8BC0CC"/>
<path d="M436.84 409.009C436.84 409.009 472.296 443.684 467.566 496L460.273 495.616C460.273 495.616 455.346 440.134 435.488 415.901C415.631 391.668 436.84 409.009 436.84 409.009Z" fill="#6BB7BF"/>
<path d="M395.875 792.365C395.875 792.365 466.634 776.51 452.009 722.339C452.009 722.339 437.763 687.532 415.661 673.135C415.661 673.135 408.183 745.274 394.759 743.063C381.334 740.852 408.921 663.278 408.921 663.278C408.921 663.278 354.156 613.886 328.339 608.87C328.339 608.87 348.04 687.274 335.578 681.847C323.115 676.42 298.78 595.812 298.78 595.812C298.78 595.812 236.853 564.423 214.807 599.907C192.76 635.391 203.987 659.686 212.974 664.96C221.961 670.233 284.492 687.804 280.476 695.365C276.46 702.927 230.541 703.373 209.246 689.22C209.246 689.22 216.155 760.369 251.099 767.156C286.043 773.943 302.796 756.17 324.316 760.767C345.836 765.363 359.52 775.527 347.317 778.052C335.114 780.577 300.654 766.291 279.38 775.631C258.106 784.971 241.705 789.749 271.334 805.486C300.963 821.223 358.796 833.911 377.353 813.159L395.875 792.365Z" fill="#BCECF7"/>
<path d="M241 620C241 620 393.84 725.135 395 792.203C395 792.203 386.062 819.391 393.651 855.904L390.066 868C390.066 868 384.538 821.596 376.551 813.077C376.551 813.028 430.179 771.048 241 620Z" fill="#8BC0CC"/>
<path d="M394.279 856.815C394.279 856.815 409.445 904.18 378.543 948L372 944.203C372 944.203 395.596 893.013 389.542 862.241C383.487 831.468 394.279 856.815 394.279 856.815Z" fill="#6BB7BF"/>
<path d="M864 303H350V1025H864V303Z" fill="#1C4670"/>
<path d="M846 323H368V1012H846V323Z" fill="#DCF6F9"/>
<path d="M808 408H417V429H808V408Z" fill="#FFA229"/>
<path d="M808 544H417V554H808V544Z" fill="#FFA229"/>
<path d="M808 567H417V578H808V567Z" fill="#FFA229"/>
<path d="M808 592H417V602H808V592Z" fill="#FFA229"/>
<path d="M808 616H417V627H808V616Z" fill="#FFA229"/>
<path d="M808 640H417V650H808V640Z" fill="#FFA229"/>
<path d="M808 664H417V674H808V664Z" fill="#FFA229"/>
<path d="M512.884 831.94C528.252 825.574 535.55 807.955 529.184 792.587C522.818 777.218 505.199 769.92 489.831 776.286C474.463 782.652 467.164 800.271 473.53 815.639C479.896 831.008 497.515 838.306 512.884 831.94Z" fill="#FFA229"/>
<path d="M657.516 833H657.262C656.866 832.932 656.514 832.711 656.281 832.386C656.049 832.062 655.955 831.659 656.02 831.266C656.303 829.616 663.2 790.767 684.938 777.54C686.489 776.603 687.463 777.093 687.9 777.463C689.811 779.085 688.359 783.21 681.813 798.765C679.204 804.966 676.114 812.321 674.838 816.788C677.158 813.782 680.621 808.629 683.372 804.533C691.97 791.732 693.648 789.649 695.362 789.649C695.663 789.646 695.96 789.716 696.227 789.854C696.494 789.992 696.723 790.193 696.893 790.439C697.803 791.732 697.111 793.934 694.734 800.282C693.666 802.959 692.762 805.698 692.026 808.482C693.525 806.954 694.909 805.318 696.166 803.589C699.15 799.751 700.659 797.912 702.436 798.192C702.84 798.265 703.214 798.45 703.515 798.726C703.816 799.002 704.032 799.358 704.136 799.751C704.308 800.285 704.426 800.836 704.489 801.394C704.722 802.932 704.99 804.672 706.859 805.721C710.632 807.818 721.508 807.706 751.892 795.151C752.266 794.998 752.687 794.998 753.06 795.152C753.434 795.306 753.73 795.601 753.885 795.972C754.039 796.343 754.038 796.759 753.883 797.13C753.728 797.5 753.43 797.794 753.056 797.947C727.404 808.545 711.803 811.929 705.37 808.357C702.239 806.609 701.773 803.68 701.498 801.904C700.638 802.806 699.439 804.358 698.557 805.49C695.271 809.734 693.112 812.286 690.905 812.111C690.58 812.084 690.265 811.982 689.987 811.815C689.708 811.648 689.471 811.419 689.297 811.146C688.246 809.496 689.297 806.252 691.878 799.261C692.294 798.15 692.774 796.863 693.19 795.668C691.074 798.52 688.253 802.771 685.918 806.217C676.284 820.549 674.542 822.625 672.602 822.101C672.203 821.986 671.853 821.744 671.608 821.411C671.363 821.078 671.236 820.674 671.248 820.262C671.05 816.907 674.203 809.126 679.006 797.632C681.461 791.795 684.649 784.147 685.474 780.784C665.725 793.948 659.06 831.406 658.997 831.818C658.923 832.153 658.736 832.453 658.466 832.668C658.197 832.883 657.861 833 657.516 833Z" fill="#1C4670"/>
<path d="M719.236 290.987H658.887C660.743 286.068 661.378 280.771 660.74 275.552C660.101 270.333 658.207 265.346 655.22 261.021C652.233 256.695 648.243 253.16 643.592 250.718C638.94 248.276 633.766 247 628.514 247C623.262 247 618.088 248.276 613.436 250.718C608.785 253.16 604.794 256.695 601.808 261.021C598.821 265.346 596.927 270.333 596.288 275.552C595.65 280.771 596.285 286.068 598.141 290.987H537.792C535.46 290.987 533.224 291.915 531.575 293.566C529.926 295.216 529 297.455 529 299.79V324.198C529 326.532 529.926 328.771 531.575 330.422C533.224 332.073 535.46 333 537.792 333H719.208C721.54 333 723.776 332.073 725.425 330.422C727.074 328.771 728 326.532 728 324.198V299.79C728 297.46 727.078 295.225 725.435 293.575C723.792 291.926 721.563 290.995 719.236 290.987ZM628.528 291.483C626.157 291.482 623.84 290.777 621.87 289.457C619.899 288.138 618.364 286.263 617.458 284.07C616.552 281.877 616.315 279.464 616.779 277.136C617.242 274.809 618.384 272.671 620.061 270.993C621.738 269.315 623.874 268.173 626.199 267.71C628.524 267.248 630.934 267.486 633.124 268.395C635.314 269.303 637.186 270.841 638.503 272.815C639.819 274.788 640.522 277.109 640.522 279.482C640.522 281.06 640.212 282.622 639.608 284.08C639.004 285.537 638.119 286.861 637.004 287.976C635.888 289.09 634.565 289.974 633.108 290.576C631.651 291.178 630.09 291.486 628.514 291.483H628.528Z" fill="#FFA229"/>
<path d="M50.4881 1022.24C62.6006 1009.81 83.9458 1001.26 108.604 1000.26V963.647H66.0743C65.1307 963.647 64.292 962.82 63.7539 961.543C63.3495 960.524 63.1477 959.435 63.1597 958.338V956.486C63.1597 953.568 64.4737 951.183 66.0743 951.183H108.611V848.91C108.611 847.608 109.126 846.359 110.044 845.438C110.962 844.517 112.206 844 113.504 844C114.801 844 116.045 844.517 116.963 845.438C117.881 846.359 118.396 847.608 118.396 848.91V951.183H160.933C162.533 951.183 163.847 953.568 163.847 956.486V958.338C163.862 959.468 163.645 960.59 163.211 961.634C162.68 962.855 161.855 963.647 160.933 963.647H118.396V1000.26C143.054 1001.26 164.399 1009.81 176.512 1022.24C177.393 1023.13 178.222 1024.06 179 1025H48C48.7735 1024.06 49.6028 1023.13 50.4881 1022.24Z" fill="#1C3A3E"/>
<path d="M108 1000.29C125.358 1001.89 140.282 1010.28 148.908 1022.22C149.566 1023.13 150.185 1024.05 150.763 1025H163C162.417 1024.06 161.796 1023.13 161.138 1022.22C151.503 1008.9 134.047 1000 114.108 1000C112.048 1000.04 110.003 1000.1 108 1000.29Z" fill="#1C4670"/>
<path d="M243 999.933C243 999.933 244.489 1024.6 249.138 1024.95C249.756 1025 272.707 1025 272.707 1025L302 1024.83C302 1024.83 301.81 1017.57 293.242 1016.04C284.674 1014.51 270.347 1008.33 265.15 996.71C259.701 984.479 243 999.933 243 999.933Z" fill="#163560"/>
<path d="M127.297 824.614C131.521 831.576 136.218 838.244 141.354 844.569C156.775 863.944 173.559 879.919 176.497 895.02C177.162 898.302 178.069 901.53 179.21 904.679C180.433 908.177 181.944 911.779 183.687 915.535C190.231 929.684 200.015 945.534 209.785 959.942C226.653 984.849 240.507 1001.57 240.507 1001.57C240.507 1001.57 244.935 1005 257.6 1005C261.115 1005 273 1003.08 273 1003.08C271.833 1000.17 257.818 967.104 240.823 925.075L219.505 872.365C218.563 870.022 217.614 867.7 216.694 865.371C214.529 860.013 212.399 854.739 210.319 849.605L181.649 778.717C181.649 778.717 117.864 754.67 111.236 770.254C105.719 783.11 110.168 795.7 127.297 824.614Z" fill="#1C3A3E"/>
<path d="M332 758H235V1025H332V758Z" fill="#49ADB7"/>
<path d="M328 1025H397L397 758H328V1025Z" fill="#8BC0CC"/>
<path d="M328 753H229V758H328V753Z" fill="#24555E"/>
<path d="M405 753H328V758H405V753Z" fill="#49ADB7"/>
<path d="M227.281 717C227.281 717 241.37 724.949 245.313 724.949C249.256 724.949 264.748 721.975 269.062 724.168C273.377 726.361 281.227 735.155 282.658 738.03C285.291 743.204 272.046 740.918 265.785 736.511C265.336 736.194 264.826 735.974 264.286 735.864C263.746 735.754 263.19 735.757 262.651 735.872C259.41 736.582 252.676 737.788 249.42 736.582C245.041 734.971 222 733.189 222 733.189L227.281 717Z" fill="#F9A6A0"/>
<path d="M123 609.33C123 609.33 137.24 711.956 160.81 721.15C172.442 725.684 223.851 736.003 239.06 737C239.06 737 242.784 733.93 241.85 721.44C241.85 721.44 187.986 701.389 180.336 690.483C168.948 674.216 187.407 624.169 173.119 608.927C158.83 593.686 134.792 587.143 123 609.33Z" fill="white" fill-opacity="0.36"/>
<path d="M175.592 932C175.592 932 155.136 945.143 157.138 949.416C157.408 949.984 168.715 970.231 168.715 970.231L183.294 996C183.294 996 189.433 992.352 186.53 984.063C183.627 975.774 181.874 960.161 189.305 949.998C197.078 939.324 175.592 932 175.592 932Z" fill="#FF4B42"/>
<path d="M187.196 957C187.196 957 173.013 943.802 170.79 935.637C170.79 935.637 222.686 873.363 233.94 859.402C234.457 858.765 234.324 858.064 233.646 857.301C225.146 847.709 130.729 828.195 118.391 808.989C114.713 803.346 112.016 797.119 110.416 790.574C107.62 778.839 109.828 770.731 109.828 770.731L204.127 768C204.127 768 282.634 816.971 291.505 850.355C300.375 883.74 187.196 957 187.196 957Z" fill="#24555E"/>
<path d="M234 858C225.447 848.292 130.44 828.544 118.026 809.108C114.325 803.398 111.611 797.097 110 790.473V778.377L150.325 772C150.325 772 161.762 807.429 195.63 820.743C227.353 833.2 233.367 855.265 234 858Z" fill="#1C3A3E"/>
<path d="M178 604.14C158.811 609.047 127 591.361 127 591.361C127 591.361 139.347 583.083 143.925 564.907C144.164 563.988 144.368 563.056 144.558 562.103L154.402 560L169.056 573.087C168.63 578.051 167.907 582.985 166.89 587.863C166.571 589.494 166.203 591.242 165.786 593.107C170.501 596.008 174.641 599.748 178 604.14Z" fill="#FCBDB6"/>
<path d="M107.514 683.18C110.257 720.229 106.651 776.58 109.759 786.341C112.446 794.756 143.045 789.752 155.253 786.94C159.772 785.904 165.244 784.417 170.9 782.655C186.672 777.722 203.876 770.752 205.701 765.551C205.77 765.355 205.829 765.155 205.876 764.952C206.041 764.235 206.041 763.491 205.876 762.774C205.259 760.124 202.894 757.256 202.614 750.688C202.305 743.365 202.347 734.732 202.073 725.458C202.073 724.408 202.073 723.273 201.933 722.23V721.85C201.933 721.652 201.933 721.455 201.933 721.258C201.673 710.912 201.133 700.031 200.53 689.241C200.13 682.468 199.674 675.752 199.126 669.325C197.723 652.728 195.899 637.971 193.443 628.64C189.437 613.431 180.596 603.509 172.548 596.222L166.732 591.211C160.235 592.62 152.552 591.69 145.613 588.392C138.091 584.805 135.495 582.239 134.19 583.205C116.754 596.666 104.272 637.886 107.514 683.18Z" fill="#FFA229"/>
<path d="M170.51 782C186.514 777.101 203.971 770.179 205.822 765.015C205.892 764.82 205.952 764.621 206 764.42C206 763.72 206 762.978 206 762.257C205.374 759.626 202.974 756.777 202.689 750.255C202.376 742.983 202.419 734.41 202.141 725.2C202.141 724.157 202.141 723.03 201.999 721.995V721.617C201.999 721.421 201.999 721.225 201.999 721.029L137.305 640C137.305 640 93.7563 729.028 170.51 782Z" fill="white" fill-opacity="0.36"/>
<path d="M170 573.155C169.577 578.142 168.858 583.099 167.846 588C153.615 583.366 147.161 570.394 145 564.93C145.238 564.007 145.441 563.07 145.629 562.113L155.42 560L170 573.155Z" fill="#F9A6A0"/>
<path d="M171.793 580.984C171.793 580.984 140.761 575.737 144.278 556.165C147.795 536.594 146.173 522.773 166.137 525.297C186.1 527.822 188.597 535.998 188.988 542.813C189.38 549.627 179.961 581.821 171.793 580.984Z" fill="#FCBDB6"/>
<path d="M240.035 748.256L317.269 748.249L338.255 680L341 680.855L318.809 753H240L240.035 748.256Z" fill="#1C4670"/>
<path d="M219 750.08C219 750.08 244.361 756.641 253.904 755.949C263.446 755.257 271.355 750.826 272.521 748.505C273.687 746.183 276.228 742.081 269.729 742.841C263.23 743.602 254.413 744.951 254.141 743.732C253.869 742.513 259.418 742.622 259.418 742.622C259.418 742.622 261.094 740.232 258.985 740.143C256.877 740.054 250.706 738.417 248.417 739.541C246.127 740.664 244.012 744.807 242.336 744.636C240.661 744.464 221.115 736 221.115 736L219 750.08Z" fill="#FCBDB6"/>
<path d="M129 615.807C129 615.807 132.001 718.157 154.443 729.793C165.517 735.53 215.531 751.303 230.506 754C230.506 754 234.546 751.4 235 739.045C235 739.045 183.612 713.405 177.192 701.846C167.632 684.648 191.435 637.512 178.881 620.964C166.327 604.416 143.138 595.317 129 615.807Z" fill="#FFA229"/>
<path d="M144.556 565C144.556 565 144.203 558.234 148.326 554.358C148.326 554.358 146.912 547.578 149.543 546.455C152.174 545.333 152.754 551.04 153.964 550.146C155.173 549.252 160.598 545.004 162.925 538.746C165.252 532.488 186.5 540.062 188.976 541.192C191.451 542.322 199.416 538.181 201 534.827C201 534.827 196.572 531.251 194.585 528.569C192.597 525.887 178.663 507.772 159.219 512.914C139.775 518.056 137.108 527.453 138.212 535.499C139.315 543.545 136.557 562.297 144.556 565Z" fill="#501506"/>
<path d="M180.1 811.117C150.83 811.119 121.864 805.125 94.9463 793.495L77.4779 785.951C73.8215 784.373 69.8353 783.737 65.8761 784.099C61.917 784.461 58.1084 785.811 54.7914 788.027C51.4744 790.244 48.7524 793.258 46.8691 796.799C44.9859 800.341 44 804.3 44 808.321V842.039C44.0056 843.619 44.6292 845.133 45.7347 846.25C46.8401 847.367 48.3376 847.996 49.9 848H180.1C181.662 847.996 183.16 847.367 184.265 846.25C185.371 845.133 185.994 843.619 186 842.039V817.071C185.993 815.492 185.368 813.98 184.263 812.864C183.158 811.749 181.661 811.121 180.1 811.117Z" fill="#8BC0CC"/>
<path d="M689.956 837.148C662.556 841.866 635.996 842.893 615.744 841.304C595.31 839.693 583.376 833.365 582.108 826.143C580.993 819.603 588.555 812.079 603.992 804.457C589.199 811.784 582.031 820.032 583.047 825.981C584.175 832.584 596.102 837.232 615.758 838.814C635.905 840.396 662.058 838.681 689.381 833.976C716.704 829.272 741.939 822.142 760.404 813.9C778.42 805.863 788.105 797.467 786.977 790.864C785.778 783.832 772.919 777.138 753.41 773.284C731.224 768.911 705.057 770.38 679.269 774.824C630.86 783.157 611.897 792.263 595.829 802.347C611.946 792.214 630.271 780.738 678.848 772.37C704.742 767.912 731.273 767.877 753.557 772.265C773.48 776.189 786.647 783.249 787.895 790.688C789.128 797.91 779.486 806.489 760.768 814.843C742.282 823.14 717.349 832.443 689.956 837.148Z" fill="#1C4670"/>
<path d="M1009 746.278C1009 746.278 1007.28 762.225 1005.4 765.262C1003.52 768.299 995.512 777.94 992.101 779.832C988.689 781.723 994.188 767.118 993.492 764.269C992.796 761.42 990.686 769.459 989.18 769.647C987.675 769.836 988.061 762.609 988.008 759.978C987.955 757.347 995.323 750.852 997.925 745.249C1000.53 739.646 1009 746.278 1009 746.278Z" fill="#FCBDB6"/>
<path d="M819 604.557L815.429 597.649C815.429 597.649 817.204 585.367 802.18 577.571C802.18 577.571 796.686 575.28 793.587 579.876C790.77 584.102 799.032 583.344 798.581 590.576C798.13 597.808 801.49 602.064 806.153 604.419L810.005 609L819 604.557Z" fill="#FCBDB6"/>
<path d="M959 589.261C959 589.261 946.212 651.327 875.856 671.603C853.896 677.934 804 606.417 804 606.417C804 606.417 805.752 599.824 816.739 601.343C816.739 601.343 865.323 633.149 871.438 636.608C876.869 639.673 912.559 597.194 928.831 590.352C945.102 583.51 959 589.261 959 589.261Z" fill="#FFA229" fill-opacity="0.56"/>
<path d="M771.578 576.186L769.574 589.234L835.2 599.312L837.204 586.263L771.578 576.186Z" fill="#FF4B42"/>
<path d="M755 580.843L769.027 589L771 577L755 580.843Z" fill="#1C3A3E"/>
<path d="M843.95 592.268L843.314 596.219C843.222 596.798 843.012 597.353 842.696 597.853C842.381 598.354 841.966 598.79 841.475 599.136C840.984 599.482 840.427 599.732 839.835 599.872C839.244 600.011 838.629 600.037 838.028 599.948L835 599.505L837 587L840.293 587.484C841.438 587.653 842.466 588.252 843.152 589.149C843.838 590.046 844.125 591.168 843.95 592.268Z" fill="#1C3A3E"/>
<path d="M1044.73 984.732C1044.73 984.732 1053.49 992.619 1051.78 998.224C1050.07 1003.83 1042.17 1007.56 1041.1 1014.41C1040.02 1021.26 1035.76 1025 1031.91 1025H1013.57C1013.57 1025 1010.77 1020.16 1017.58 1018.72C1024.39 1017.29 1026.99 1009.23 1026.57 1001.75C1026.14 994.271 1027.21 984.318 1027.21 984.318L1041.74 981L1044.73 984.732Z" fill="#FF4B42"/>
<path d="M935.685 1005C935.685 1005 937.237 1023.13 933.451 1025L885 1024.9C885 1024.9 885 1019.25 892.786 1017.99C900.571 1016.72 914.232 1012.12 916.549 1001.87C918.866 991.61 935.685 1005 935.685 1005Z" fill="#FF4B42"/>
<path d="M894 747.455C894 747.455 896.645 779.592 899.762 818.224C903.994 870.702 909.056 935.167 909.585 947.381C910.457 968.561 913.946 1002.51 913.946 1002.51C913.946 1002.51 922.232 1010.56 938.803 1007.16C938.803 1007.16 953.573 958.74 957.791 907.513C957.855 906.672 957.92 905.825 957.991 904.978C961.916 852.826 968 743 968 743L894 747.455Z" fill="#24555E"/>
<path d="M894 747.441C894 747.441 896.645 779.478 899.762 817.99L957.791 907C957.855 906.162 957.92 905.318 957.991 904.473C961.916 852.483 968 743 968 743L894 747.441Z" fill="#1C3A3E"/>
<path d="M907 751.847C907 751.847 953.733 867.809 984.463 922.298C1015.19 976.786 1024.79 992 1024.79 992C1024.79 992 1042.4 985.03 1044 980.282C1044 980.282 1032.25 875.075 1011.67 849.459C1000.04 834.97 986.38 791.481 985.778 776.31C985.177 761.139 981.58 731 981.58 731L907 751.847Z" fill="#24555E"/>
<path d="M969 574.185C969 574.185 937.288 589.386 919 583.745C922.48 579.735 926.677 576.399 931.379 573.906C930.747 570.259 930.256 567.093 929.976 564.415C929.538 561.196 929.28 557.956 929.204 554.709L941.442 545.149L953.042 536C952.123 561.731 969 574.185 969 574.185Z" fill="#FCBDB6"/>
<path d="M984.999 737.025C985.069 738.967 980.917 741.191 979.084 742.022C965.496 747.996 952.829 752.162 938.469 753.548C921.502 755.286 901.437 751.437 894.538 751.606C893.833 751.592 893.158 751.319 892.641 750.839C892.142 750.494 891.791 730.009 892.142 704.254C892.142 703.212 892.142 702.143 892.212 701.129V700.785C892.36 690.715 892.711 680.159 893.203 669.611C894.186 646.389 896.013 624.06 899.111 611.703C902.849 597.123 911.294 587.468 918.966 580.459L925.289 574.907C931.939 576.346 938.879 575.513 945.003 572.542C952.323 569.024 960.206 565.182 961.47 566.153C971.046 573.19 977.524 588.931 980.973 609.078C983.027 621.7 983.993 634.474 983.861 647.261C983.861 652.265 983.72 657.402 983.439 662.468C981.746 689.962 983.439 713.838 984.423 727.666C984.739 731.677 984.95 734.802 984.999 737.025Z" fill="#FFA229"/>
<path d="M985 736C874.531 735.785 964.624 616.783 964.624 616.783L982.522 611C984.007 624.371 984.706 637.817 984.616 651.269C984.616 656.538 984.518 661.954 984.316 667.293C983.08 696.28 984.295 721.462 985 736Z" fill="#FFA229" fill-opacity="0.56"/>
<path d="M953 545.681C953 545.681 945.002 559.991 929.77 564C929.334 560.826 929.077 557.63 929 554.428L941.214 545L953 545.681Z" fill="#F9A6A0"/>
<path d="M922.88 553.422C922.88 553.422 953.073 558.249 955.91 540.01C958.746 521.771 964.552 510.055 945.404 506.18C926.255 502.305 921.409 508.724 918.936 514.599C916.464 520.474 915.098 551.684 922.88 553.422Z" fill="#FCBDB6"/>
<path d="M967.65 504.334C967.928 504.015 968.569 503.76 970 503.682C969.181 503.234 968.264 502.991 967.33 502.973C967.031 500.99 965.97 497.49 962.545 496.64C963.103 496.962 963.581 497.407 963.943 497.939C964.304 498.472 964.539 499.079 964.631 499.715C960.665 495.663 952.17 492.716 928.644 494.565C897.633 497.001 907.851 516.752 911.867 519.104C915.883 521.456 925.988 515.002 933.464 515.562C940.941 516.122 942.365 526.897 944.9 528.384C947.435 529.872 946.445 527.251 949.884 525.706C953.323 524.162 953.644 529.822 952.647 533.499C951.65 537.176 956.371 542 956.371 542L961.142 536.892C965.906 531.785 970.399 510.15 968.263 505.545L967.65 504.334Z" fill="#501506"/>
<path d="M961.5 566C961.5 566 980.686 575.085 989.886 589.06C1004.16 610.734 1020.69 689.732 1020.99 697.044C1021.3 704.355 1008.95 756 1008.95 756C1008.95 756 996.392 755.177 993.157 748.836C993.157 748.836 995.668 695.777 994.078 692.364C992.489 688.951 941.743 621.184 947.447 606.723C953.151 592.262 961.5 566 961.5 566Z" fill="#FFA229"/>
<path d="M814.806 597.32C814.806 597.32 815.897 593.51 812.905 591.8C809.914 590.09 807.158 585.428 805.891 586.058C803.275 587.359 807.327 591.429 806.583 596.501C806.325 598.276 811.004 602.925 814.806 597.32Z" fill="#FCBDB6"/>
<path d="M0.964696 1028H1079.04C1079.57 1028 1080 1027.32 1080 1026.5C1080 1025.68 1079.57 1025 1079.04 1025H0.964696C0.434123 1025 0 1025.68 0 1026.5C0 1027.32 0.434123 1028 0.964696 1028Z" fill="#1C3A3E"/>
</svg>
