<svg width="1080" height="1080" viewBox="0 0 1080 1080" fill="none" xmlns="http://www.w3.org/2000/svg">
<rect width="1080" height="1080" fill="#F7FBFC"/>
<path d="M858.839 232.367H323.133C318.141 232.367 314.094 236.414 314.094 241.406V950.081C314.094 955.073 318.141 959.12 323.133 959.12H858.839C863.831 959.12 867.878 955.073 867.878 950.081V241.406C867.878 236.414 863.831 232.367 858.839 232.367Z" fill="#FFA229"/>
<path d="M831.041 383.762V993.961H277.257V267.211H730.856L831.041 383.762Z" fill="#E3E6FF"/>
<path d="M831.04 383.762H730.855V267.211L831.04 383.762Z" fill="#BFBFBF"/>
<path d="M768.547 629.945H610.964C606.38 629.945 602.663 633.662 602.663 638.246V781.487C602.663 786.071 606.38 789.787 610.964 789.787H768.547C773.132 789.787 776.848 786.071 776.848 781.487V638.246C776.848 633.662 773.132 629.945 768.547 629.945Z" fill="#1C4670"/>
<path d="M695.649 757.804L632.63 697.065L651.117 677.888L692.263 717.546L737.703 656L759.134 671.825L695.649 757.804Z" fill="white"/>
<path d="M450.031 323.708C446.995 323.713 444.003 322.978 441.314 321.566C438.626 320.154 436.323 318.107 434.604 315.604L379.264 234.752C376.948 231.368 375.326 227.559 374.489 223.544C373.652 219.53 373.618 215.39 374.389 211.362C375.16 207.334 376.72 203.499 378.98 200.077C381.24 196.656 384.155 193.715 387.556 191.425C390.492 189.447 393.79 188.068 397.259 187.365C400.729 186.662 404.303 186.649 407.777 187.328C411.252 188.007 414.558 189.363 417.508 191.32C420.458 193.277 422.994 195.797 424.97 198.734L496.843 305.501C497.566 306.575 497.832 307.892 497.584 309.162C497.336 310.433 496.593 311.553 495.519 312.275C494.445 312.998 493.128 313.265 491.858 313.016C490.587 312.768 489.468 312.025 488.745 310.952L416.875 204.193C415.614 202.319 413.997 200.712 412.115 199.464C410.233 198.216 408.123 197.35 405.907 196.917C403.691 196.484 401.41 196.492 399.197 196.94C396.983 197.388 394.88 198.267 393.006 199.529C390.675 201.1 388.677 203.118 387.129 205.465C385.58 207.812 384.511 210.442 383.984 213.204C383.456 215.966 383.48 218.805 384.054 221.557C384.628 224.31 385.741 226.922 387.329 229.242L442.657 310.091C443.989 312.019 446.029 313.342 448.332 313.775C450.635 314.208 453.016 313.715 454.957 312.404C456.899 311.092 458.245 309.067 458.703 306.769C459.161 304.471 458.694 302.085 457.403 300.129L418.815 242.309C418.114 241.232 417.866 239.923 418.125 238.664C418.383 237.406 419.128 236.3 420.197 235.587C421.266 234.875 422.572 234.612 423.834 234.857C425.095 235.102 426.209 235.834 426.933 236.895L465.51 294.726C467.382 297.531 468.458 300.791 468.624 304.16C468.789 307.528 468.038 310.878 466.449 313.853C464.86 316.828 462.494 319.316 459.603 321.052C456.712 322.788 453.404 323.707 450.031 323.711V323.708Z" fill="#1C4670"/>
<path d="M487.024 267.211H451.28L495.223 331.192L510.932 315.711L487.024 267.211Z" fill="#E3E6FF"/>
<path d="M176.721 1043.33V1046.18H163.179L161.619 1040.67L176.721 1043.33Z" fill="#0A0A0C"/>
<path d="M182.277 1011.77C182.277 1011.77 187.327 1026.89 195.006 1031.38C201.198 1035.01 213.03 1035.55 216.186 1042.74C216.888 1044.34 215.732 1046.16 214.049 1046.16H182.277C182.277 1046.16 170.713 1042.81 165.26 1043.62C159.806 1044.44 160.063 1030.66 161.62 1025.57C163.177 1020.47 161.88 1011.76 161.88 1011.76L182.277 1011.77Z" fill="#0A0A0C"/>
<path d="M59.8047 1043.33V1046.18H73.3467L74.9035 1040.67L59.8047 1043.33Z" fill="#0A0A0C"/>
<path d="M54.2481 1011.77C54.2481 1011.77 49.1953 1026.89 41.5188 1031.38C35.3275 1035.01 23.4947 1035.55 20.3392 1042.74C19.637 1044.34 20.7904 1046.16 22.4727 1046.16H54.2481C54.2481 1046.16 65.8091 1042.81 71.2653 1043.62C76.7216 1044.44 76.4616 1030.66 74.9019 1025.57C73.3421 1020.47 74.6449 1011.76 74.6449 1011.76L54.2481 1011.77Z" fill="#0A0A0C"/>
<path d="M175.778 750.25C175.778 750.25 186.048 787.556 187.103 814.055C188 836.749 185.863 885.676 186.177 923.574C186.631 978.095 189.589 1015.91 188.188 1017.64C185.723 1020.67 183.323 1017.83 173.182 1020.22C162.179 1022.82 157.267 1017.45 157.267 1017.45C157.267 1017.45 154.222 996.75 149.023 961.765C147.158 949.215 145.138 935.625 143.077 921.877C136.24 876.213 133.117 834.428 130.804 829.578C130.804 829.578 120.971 866.236 107.133 919.666C91.1016 981.567 79.1791 1018.3 77.8255 1023.12C77.8255 1023.12 72.8593 1025.57 63.5843 1021.57C59.9985 1020.02 51.2942 1020.39 48.5033 1017.56C44.8369 1013.82 62.1111 941.147 68.4728 863.487C74.2308 793.219 84.9641 764.216 90.1873 751.627L175.778 750.25Z" fill="#2F1113"/>
<path d="M68.6577 636.258C69.0581 639.972 71.1796 651.85 73.7374 665.864C74.1587 668.183 74.595 670.558 75.0402 672.961C79.3461 696.36 84.2585 722.68 84.5185 726.839C85.2954 739.299 78.868 770.764 78.5991 778.874C78.5333 780.906 84.4258 779.704 90.9937 779.116C98.2249 778.467 112.227 778.859 131.479 783.389C153.445 788.555 169.049 786.006 179.982 782.791C184.112 781.575 190.339 776.958 188.818 772.93C188.199 771.296 187.348 769.094 186.371 766.509C185.674 764.674 184.918 762.651 184.133 760.503C180.248 749.835 175.724 736.186 175.315 728.112C175.016 722.184 187.324 636.117 187.324 636.117L177.953 610.42C134.497 599.591 86.7924 610.369 86.7924 610.369C86.7924 610.369 66.2074 613.749 68.6577 636.258Z" fill="#317BC5"/>
<path d="M234.35 606.68L226.683 638.135L247.686 641.494C247.686 641.494 246.425 629.102 250.312 625.956C254.2 622.809 234.35 606.68 234.35 606.68Z" fill="#FCC0A9"/>
<path d="M232.266 619.627C232.266 619.627 236.213 608.433 242.784 606.243C249.355 604.053 252.943 605.141 255.564 607.77C258.184 610.4 259.033 618.826 256.403 624.091C253.774 629.356 248.485 633.596 242.359 632.281C236.793 631.092 232.266 619.627 232.266 619.627Z" fill="#FABBA5"/>
<path d="M160.125 629.945L199.915 631.825C199.915 631.825 203.7 653.202 211.114 667.592C226.159 696.786 229.556 716.298 210.086 721.515C197.56 724.88 189.187 718.874 172.783 689.16C150.459 648.722 160.125 629.945 160.125 629.945Z" fill="#317BC5"/>
<path d="M128.757 591.375C128.757 591.375 129.441 592.726 130.672 595.038C131.336 596.29 132.166 597.82 133.125 599.574C135.429 603.758 138.504 609.208 142.06 615.029C152.446 632.061 166.804 652.323 177.209 654.062C179.229 654.397 206.098 658.488 199.918 631.822C195.651 613.43 183.296 599.35 167.348 596.619C162.815 595.845 157.924 595.104 153.196 594.438C144.367 593.198 136.108 592.212 131.826 591.722C129.877 591.498 128.757 591.375 128.757 591.375Z" fill="#317BC5"/>
<path d="M17.1807 691.201C17.1807 691.201 66.1466 702.192 60.1286 696.051C55.8526 691.694 88.3511 654.397 94.913 653.369C105.371 651.738 116.215 630.958 123.548 613.58C125.72 608.431 127.582 603.587 129.037 599.619C129.659 597.916 130.208 596.377 130.672 595.044C131.135 593.712 131.517 592.597 131.816 591.728C132.255 590.413 132.488 589.672 132.488 589.672C132.488 589.672 123.853 591.79 112.815 594.049C108.542 594.922 103.904 595.821 99.2667 596.625C83.3162 599.392 65.4504 606.486 57.768 623.745C47.9013 645.893 21.7136 667.335 17.1807 691.201Z" fill="#317BC5"/>
<path d="M116.25 593.325C117.557 593.029 118.745 592.349 119.662 591.371C120.578 590.393 121.18 589.162 121.389 587.839C122.348 582.278 123.532 574.838 124.318 567.875C124.524 566.02 122.671 558.935 122.596 558.812C122.809 558.872 151.787 567.305 148.252 576.206C148.094 576.604 147.953 577.022 147.819 577.458C146.964 580.3 146.669 583.88 146.672 587.489C146.679 589.529 146.798 591.567 147.027 593.594C149.017 593.857 151.085 594.138 153.189 594.434C153.649 596.454 153.817 598.53 153.688 600.598C153.341 605.726 150.819 611.714 142.061 615.025C140.639 615.559 139.181 615.991 137.698 616.318C131.761 617.663 127.138 616.318 123.55 613.569C119.342 610.351 116.552 605.227 114.729 600.317C113.97 598.264 113.332 596.169 112.816 594.042L116.25 593.325Z" fill="#FCC0A9"/>
<path d="M123.809 566.998C123.988 568.319 123.435 573.243 123.444 574.767C129.979 588.076 146.432 587.416 146.671 587.506C146.671 583.896 146.97 580.316 147.818 577.475C141.304 574.212 127.505 566.43 123.809 566.998Z" fill="#FC9A73"/>
<path d="M119.68 717.079C113.797 716.356 105.263 728.153 100.129 730.053L91.3888 727.391L85.1885 743.694L97.0811 746.825C98.8441 747.489 100.598 748.068 101.626 748.191C111.675 749.386 114.445 742.588 117.857 742.259C118.849 742.164 124.987 742.926 125.441 741.336C125.698 740.44 119.764 738.536 116.895 737.314C116.818 737.283 116.751 737.228 116.706 737.158C116.66 737.088 116.637 737.006 116.639 736.922C116.642 736.838 116.67 736.757 116.72 736.69C116.77 736.623 116.84 736.573 116.919 736.546C121.013 735.39 129.347 736.693 129.914 734.323C130.037 733.824 125.39 732.279 122.501 731.23C120.95 730.669 118.019 730.812 115.652 731.066C115.612 731.071 115.571 731.062 115.537 731.04C115.503 731.018 115.478 730.985 115.466 730.946C115.455 730.907 115.457 730.865 115.474 730.828C115.49 730.791 115.52 730.761 115.556 730.743C117.491 729.854 119.551 729.265 121.664 728.998C124.353 728.738 131.387 728.885 132.84 726.255C133.437 725.159 124.545 724.657 120.992 724.029C120.287 723.943 119.573 723.975 118.879 724.125C118.847 724.131 118.813 724.125 118.784 724.109C118.756 724.093 118.734 724.066 118.723 724.035C118.712 724.004 118.713 723.97 118.725 723.939C118.737 723.908 118.76 723.883 118.79 723.868C120.03 723.27 121.096 722.807 121.577 722.729C126.06 722.033 131.892 721.878 132.893 718.869C133.153 718.086 120.968 717.237 119.68 717.079Z" fill="#FCC0A9"/>
<path d="M88.0652 750.248C88.0652 750.248 60.4492 740.008 39.9091 726.442C21.0124 713.958 17.6567 696.606 17.1816 691.197C17.1028 690.301 17.3242 689.403 17.811 688.646C18.2978 687.889 19.0224 687.315 19.8709 687.014C26.2804 684.755 42.9838 680.216 53.5826 689.617C66.9215 701.444 70.6566 708.654 81.2583 717.107C87.6439 722.187 98.0365 724.957 98.6401 727.739C99.2437 730.521 94.4926 734.083 94.6779 737.558C94.8631 741.033 90.4079 750.998 88.0652 750.248Z" fill="#317BC5"/>
<path d="M249.437 638.563C249.437 638.563 245.669 668.005 235.609 690.473C222.273 720.261 212.301 721.564 206.325 722.356C204.482 722.601 201.873 719.496 200.92 717.897C197.436 712.059 189.691 696.583 196.811 684.335C205.775 668.922 212.104 663.84 218.296 651.765C222.025 644.498 222.679 633.765 225.288 632.641C227.896 631.517 232.322 635.453 235.692 634.583C239.063 633.714 249.709 636.116 249.437 638.563Z" fill="#317BC5"/>
<path d="M286.74 691.638C286.673 692.072 286.7 692.516 286.821 692.938C286.83 692.959 286.846 692.975 286.866 692.984C286.887 692.994 286.91 692.996 286.931 692.989C286.952 692.983 286.971 692.97 286.983 692.951C286.995 692.932 287 692.909 286.997 692.887C286.886 692.499 286.859 692.092 286.916 691.692C286.934 691.579 286.758 691.528 286.74 691.644V691.638Z" fill="#DC826F"/>
<path d="M249.64 603.619C254.98 602.125 257.128 602.633 257.86 605.265C258.592 607.898 257.499 608.69 252.162 610.169C246.825 611.648 240.9 612.804 240.171 610.169C239.442 607.533 244.288 605.098 249.64 603.619Z" fill="#FFCCBC"/>
<path d="M250.657 609.97C257.189 608.16 259.759 608.539 260.488 611.166C261.217 613.792 259.857 614.665 253.316 616.475C246.775 618.286 239.571 619.801 238.827 617.169C238.083 614.536 244.125 611.781 250.657 609.97Z" fill="#FFCCBC"/>
<path d="M251.432 615.566C257.63 613.847 260.098 614.257 260.812 616.892C261.526 619.528 260.259 620.367 254.059 622.086C247.859 623.804 240.998 625.22 240.266 622.588C239.534 619.955 245.238 617.284 251.432 615.566Z" fill="#FFCCBC"/>
<path d="M253.058 620.86C257.514 619.623 259.315 620.056 259.931 622.303C260.546 624.55 259.632 625.213 255.192 626.45C250.751 627.688 245.788 628.641 245.167 626.394C244.545 624.147 248.603 622.097 253.058 620.86Z" fill="#FFCCBC"/>
<path d="M245.111 611.891L256.002 609.387C256.346 609.306 256.2 608.789 255.856 608.858L244.964 611.365C244.621 611.443 244.767 611.962 245.111 611.891Z" fill="#EEA490"/>
<path d="M243.5 618.791C248.682 617.891 253.79 616.605 258.781 614.942C259.116 614.832 258.972 614.303 258.635 614.414C253.644 616.076 248.536 617.362 243.353 618.262C243.007 618.322 243.156 618.86 243.5 618.791Z" fill="#EEA490"/>
<path d="M246.219 624.143C250.417 623.394 254.545 622.295 258.559 620.856C258.888 620.739 258.748 620.21 258.413 620.33C254.399 621.767 250.272 622.867 246.075 623.617C245.729 623.68 245.875 624.214 246.219 624.146V624.143Z" fill="#EEA490"/>
<path d="M273.446 511.429L250.991 513.497L228.972 515.523L236.944 463.826L237.667 459.135L242.905 425.211L255.96 462.078L273.446 511.429Z" fill="#F9E181"/>
<path d="M323.342 1042.09L278.87 1046.18L228.972 515.528L273.441 511.438L323.342 1042.09Z" fill="#FFA229"/>
<path d="M255.961 462.079L236.944 463.827L241.636 433.435L245.682 433.047L255.961 462.079Z" fill="#51497A"/>
<path d="M229.384 628.555C229.384 628.555 226.18 616.603 227.833 613.217C229.485 609.832 234.353 603.383 238.025 602.801C243.156 601.985 251.062 600.255 250.483 602.523C249.966 604.549 245.743 609.357 241.751 609.138C240.168 609.052 240.407 613.459 239.516 614.651C235.118 620.535 234.314 627.56 234.314 627.56L229.384 628.555Z" fill="#FCC0A9"/>
<path d="M679.729 404.674H434.146C432.777 404.67 431.465 404.124 430.497 403.156C429.529 402.188 428.983 400.876 428.979 399.507C428.984 398.139 429.53 396.828 430.498 395.86C431.466 394.893 432.777 394.348 434.146 394.344H679.729C681.097 394.348 682.408 394.893 683.376 395.86C684.344 396.828 684.89 398.139 684.895 399.507C684.891 400.876 684.345 402.188 683.377 403.156C682.409 404.124 681.098 404.67 679.729 404.674Z" fill="#75ACF2"/>
<path d="M698.676 430.041H415.199C413.83 430.037 412.518 429.491 411.551 428.523C410.583 427.555 410.038 426.243 410.035 424.874C410.039 423.506 410.584 422.195 411.552 421.228C412.519 420.26 413.83 419.715 415.199 419.711H698.676C700.044 419.718 701.354 420.266 702.319 421.235C703.285 422.204 703.828 423.515 703.831 424.883C703.824 426.249 703.279 427.556 702.314 428.522C701.349 429.488 700.042 430.034 698.676 430.041Z" fill="#75ACF2"/>
<path d="M579.428 517.276H343.07C341.698 517.272 340.383 516.725 339.413 515.755C338.442 514.784 337.896 513.469 337.892 512.097C337.896 510.726 338.444 509.412 339.414 508.442C340.384 507.472 341.698 506.926 343.07 506.922H579.428C580.8 506.926 582.114 507.472 583.085 508.442C584.055 509.412 584.602 510.726 584.607 512.097C584.603 513.469 584.056 514.784 583.086 515.755C582.115 516.725 580.8 517.272 579.428 517.276Z" fill="white"/>
<path d="M771.661 517.276H607.689C606.317 517.272 605.002 516.725 604.032 515.755C603.062 514.784 602.515 513.469 602.511 512.097C602.515 510.726 603.063 509.412 604.033 508.442C605.003 507.472 606.317 506.926 607.689 506.922H771.661C773.032 506.926 774.346 507.472 775.316 508.442C776.286 509.412 776.832 510.726 776.836 512.097C776.833 513.469 776.287 514.784 775.317 515.754C774.347 516.725 773.033 517.272 771.661 517.276Z" fill="white"/>
<path d="M509.366 480.721H343.07C341.698 480.717 340.384 480.171 339.414 479.201C338.444 478.231 337.896 476.917 337.892 475.546C337.896 474.173 338.442 472.859 339.413 471.888C340.383 470.918 341.698 470.371 343.07 470.367H509.366C510.739 470.371 512.054 470.918 513.024 471.888C513.994 472.859 514.541 474.173 514.545 475.546C514.54 476.917 513.993 478.231 513.023 479.201C512.053 480.171 510.738 480.717 509.366 480.721Z" fill="white"/>
<path d="M667.478 480.721H538.888C537.517 480.716 536.203 480.169 535.234 479.2C534.264 478.23 533.718 476.917 533.713 475.546C533.717 474.174 534.263 472.86 535.233 471.889C536.203 470.919 537.517 470.372 538.888 470.367H667.466C668.838 470.371 670.153 470.918 671.123 471.888C672.094 472.859 672.64 474.173 672.644 475.546C672.64 476.915 672.094 478.227 671.127 479.197C670.159 480.166 668.848 480.714 667.478 480.721Z" fill="white"/>
<path d="M771.66 480.721H692.601C691.23 480.717 689.915 480.171 688.945 479.201C687.975 478.231 687.428 476.917 687.423 475.546C687.427 474.173 687.974 472.859 688.944 471.888C689.914 470.918 691.229 470.371 692.601 470.367H771.66C773.032 470.371 774.347 470.918 775.316 471.888C776.286 472.859 776.832 474.174 776.836 475.546C776.832 476.917 776.285 478.231 775.315 479.201C774.346 480.17 773.032 480.717 771.66 480.721Z" fill="white"/>
<path d="M509.366 553.838H343.07C341.698 553.834 340.383 553.287 339.413 552.317C338.442 551.347 337.896 550.032 337.892 548.66C337.896 547.288 338.442 545.973 339.413 545.004C340.383 544.034 341.698 543.488 343.07 543.484H509.366C510.738 543.488 512.053 544.034 513.024 545.004C513.994 545.973 514.541 547.288 514.545 548.66C514.541 550.032 513.994 551.347 513.024 552.317C512.054 553.287 510.739 553.834 509.366 553.838Z" fill="white"/>
<path d="M667.478 553.838H538.888C537.517 553.833 536.203 553.286 535.233 552.316C534.263 551.346 533.717 550.031 533.713 548.66C533.717 547.288 534.263 545.974 535.233 545.005C536.203 544.035 537.517 543.488 538.888 543.484H667.466C668.838 543.488 670.153 544.034 671.123 545.004C672.094 545.973 672.64 547.288 672.644 548.66C672.64 550.03 672.095 551.343 671.128 552.313C670.16 553.283 668.848 553.831 667.478 553.838Z" fill="white"/>
<path d="M771.66 553.838H692.601C691.229 553.834 689.914 553.287 688.944 552.317C687.974 551.347 687.427 550.032 687.423 548.66C687.427 547.288 687.974 545.973 688.944 545.004C689.914 544.034 691.229 543.488 692.601 543.484H771.66C773.032 543.488 774.346 544.035 775.315 545.005C776.285 545.974 776.832 547.288 776.836 548.66C776.832 550.032 776.286 551.347 775.316 552.317C774.347 553.287 773.032 553.834 771.66 553.838Z" fill="white"/>
<path d="M535.632 617.688H338.429C338.132 617.688 337.892 617.928 337.892 618.225V627.503C337.892 627.8 338.132 628.041 338.429 628.041H535.632C535.929 628.041 536.17 627.8 536.17 627.503V618.225C536.17 617.928 535.929 617.688 535.632 617.688Z" fill="white"/>
<path d="M509.366 591.479H343.07C341.698 591.476 340.383 590.929 339.413 589.96C338.442 588.99 337.896 587.675 337.892 586.303C337.896 584.931 338.442 583.616 339.413 582.646C340.383 581.676 341.698 581.129 343.07 581.125H509.366C510.739 581.129 512.054 581.676 513.024 582.646C513.994 583.616 514.541 584.931 514.545 586.303C514.541 587.675 513.994 588.99 513.024 589.96C512.053 590.929 510.738 591.476 509.366 591.479Z" fill="white"/>
<path d="M667.478 591.479H538.888C537.517 591.475 536.203 590.928 535.233 589.959C534.263 588.989 533.717 587.675 533.713 586.303C533.717 584.932 534.263 583.617 535.233 582.647C536.203 581.677 537.517 581.13 538.888 581.125H667.466C668.838 581.129 670.153 581.676 671.123 582.646C672.094 583.616 672.64 584.931 672.644 586.303C672.64 587.673 672.095 588.986 671.127 589.955C670.16 590.925 668.848 591.472 667.478 591.479Z" fill="white"/>
<path d="M771.66 591.479H692.601C691.229 591.476 689.914 590.929 688.944 589.96C687.974 588.99 687.427 587.675 687.423 586.303C687.427 584.931 687.974 583.616 688.944 582.646C689.914 581.676 691.229 581.129 692.601 581.125H771.66C773.032 581.129 774.347 581.676 775.316 582.646C776.286 583.617 776.832 584.931 776.836 586.303C776.832 587.675 776.285 588.989 775.315 589.959C774.346 590.928 773.032 591.475 771.66 591.479Z" fill="white"/>
<path d="M343.625 703.507H477.095C478.158 703.504 479.177 703.08 479.929 702.329C480.681 701.577 481.104 700.558 481.108 699.494C481.104 698.432 480.679 697.413 479.928 696.662C479.176 695.911 478.157 695.488 477.095 695.484H343.625C342.563 695.488 341.545 695.911 340.793 696.662C340.042 697.414 339.618 698.432 339.615 699.494C339.618 700.557 340.041 701.576 340.792 702.328C341.544 703.08 342.562 703.504 343.625 703.507Z" fill="white"/>
<path d="M343.625 760.32H477.095C478.157 760.317 479.176 759.893 479.928 759.142C480.679 758.391 481.104 757.373 481.108 756.31C481.104 755.247 480.681 754.228 479.929 753.476C479.177 752.724 478.158 752.3 477.095 752.297H343.625C342.562 752.3 341.544 752.724 340.792 753.476C340.041 754.228 339.618 755.247 339.615 756.31C339.618 757.372 340.042 758.391 340.793 759.142C341.545 759.893 342.563 760.317 343.625 760.32Z" fill="white"/>
<path d="M343.625 675.179H408.168C409.231 675.176 410.25 674.752 411.001 674C411.753 673.248 412.176 672.229 412.178 671.166C412.175 670.104 411.751 669.086 411 668.334C410.249 667.583 409.231 667.159 408.168 667.156H343.625C342.563 667.159 341.545 667.583 340.793 668.334C340.042 669.086 339.618 670.104 339.615 671.166C339.618 672.229 340.041 673.248 340.792 674C341.544 674.752 342.562 675.176 343.625 675.179Z" fill="white"/>
<path d="M343.625 731.843H408.168C409.231 731.84 410.25 731.416 411.001 730.664C411.753 729.912 412.176 728.893 412.178 727.83C412.175 726.768 411.751 725.75 411 724.998C410.249 724.247 409.231 723.823 408.168 723.82H343.625C342.563 723.823 341.545 724.247 340.793 724.998C340.042 725.75 339.618 726.768 339.615 727.83C339.618 728.893 340.041 729.912 340.792 730.664C341.544 731.416 342.562 731.84 343.625 731.843Z" fill="white"/>
<path d="M343.626 788.21H408.169C409.234 788.21 410.256 787.788 411.011 787.036C411.765 786.284 412.191 785.263 412.194 784.198C412.191 783.135 411.767 782.117 411.016 781.365C410.264 780.614 409.246 780.191 408.184 780.188H343.641C342.578 780.191 341.56 780.614 340.809 781.365C340.058 782.117 339.634 783.135 339.631 784.198C339.634 785.258 340.055 786.274 340.803 787.025C341.551 787.777 342.566 788.203 343.626 788.21Z" fill="white"/>
<path d="M123.306 531.007C123.306 531.007 108.975 570.103 138.184 583.284C172.493 598.753 169.144 568.803 167.061 538.761C167.061 538.761 160.215 525.073 148.607 525.667C136.998 526.262 123.306 531.007 123.306 531.007Z" fill="#FCC0A9"/>
<path d="M114.841 559.296C116.539 563.303 118.308 567.402 119.727 571.651C120.423 573.743 122.025 577.628 123.286 577.628C122.661 572.706 124.128 565.045 124.278 560.333C124.577 551.984 124.95 543.253 128.957 538.753C136.407 530.422 161.405 545.305 167.058 538.753C191.331 510.664 158.692 512.61 145.027 510.485C135.743 509.033 120.334 510.784 111.701 527.147C106.086 537.778 110.165 548.171 114.841 559.296Z" fill="#0A0A0C"/>
<path d="M114.826 559.315C115.723 563.797 117.844 566.295 119.727 567.681C120.763 568.473 121.961 569.028 123.235 569.307C125.135 567.514 126.42 561.26 124.266 556.353C122.174 553.613 116.171 551.435 114.829 555.337C114.522 556.261 114.477 557.572 114.826 559.315Z" fill="#FCC0A9"/>
<path d="M142.703 558.295C142.828 559.938 143.898 561.187 145.075 561.101C146.252 561.014 147.101 559.606 146.973 557.948C146.844 556.29 145.777 555.056 144.6 555.145C143.423 555.235 142.562 556.648 142.703 558.295Z" fill="#FC9A73"/>
<path d="M159.997 557.974C160.125 559.621 161.192 560.87 162.369 560.78C163.547 560.69 164.398 559.286 164.27 557.63C164.141 555.975 163.074 554.738 161.897 554.825C160.72 554.911 159.865 556.331 159.997 557.974Z" fill="#FC9A73"/>
<path d="M157.386 550.186C159.044 550.745 165.508 550.249 165.681 549.992C166.049 549.448 165.349 548.973 165.015 548.829C163.583 548.232 161.486 548.145 158.991 548.232C156.496 548.318 156.768 549.977 157.386 550.186Z" fill="#FC9A73"/>
<path d="M146.79 550.875C145.266 552.159 138.767 552.21 138.525 551.598C138.44 551.363 138.448 551.105 138.548 550.877C138.647 550.649 138.831 550.467 139.06 550.37C140.431 549.751 142.535 549.703 144.982 549.118C147.43 548.532 147.298 550.462 146.79 550.875Z" fill="#FC9A73"/>
<path d="M153.074 569.695C153.123 569.7 153.172 569.7 153.221 569.695C155.611 569.241 156.49 568.129 156.807 567.275C157.219 566.16 156.902 564.798 155.964 563.632C154.548 561.881 153.977 557.955 153.872 556.601C153.852 556.391 153.751 556.197 153.592 556.059C153.432 555.921 153.225 555.85 153.015 555.86C152.802 555.876 152.605 555.976 152.466 556.137C152.327 556.299 152.258 556.509 152.274 556.721C152.289 556.939 152.695 562.144 154.709 564.642C155.307 565.362 155.51 566.136 155.307 566.734C155.062 567.4 154.24 567.881 152.934 568.129C152.735 568.164 152.557 568.272 152.435 568.432C152.313 568.592 152.255 568.793 152.274 568.993C152.293 569.194 152.387 569.38 152.537 569.515C152.687 569.649 152.882 569.722 153.083 569.719L153.074 569.695Z" fill="#FC9A73"/>
<path d="M159.466 574.023C159.466 574.023 158.366 579.701 152.202 579.196C146.037 578.691 145.481 574.023 145.481 574.023C150.087 575.042 154.86 575.042 159.466 574.023Z" fill="#FC9A73"/>
<path d="M956.499 556.811C957.422 558.807 958.382 560.818 959.329 562.85C964.226 573.248 969.225 584.277 971.463 598.091C992.679 611.759 1012.03 607.519 1027.5 597.748C1031.15 595.422 1034.61 592.825 1037.87 589.979C1033.69 578.905 1030.61 568.79 1028.07 559.667C1018.91 526.84 1016.7 506.823 996.259 501.101C974.795 495.08 962.792 496.858 958.011 503.261C956.496 505.278 955.71 507.764 955.573 510.609C955.564 510.627 947.302 536.883 956.499 556.811Z" fill="#0A0A0C"/>
<path d="M959.328 562.839C964.226 573.238 969.225 584.267 971.463 598.081C992.678 611.749 1012.03 607.509 1027.5 597.737C1031.15 595.412 1034.61 592.815 1037.87 589.968L1038.03 589.828C1041.86 586.48 1044.41 581.907 1045.25 576.888C1046.08 571.87 1045.15 566.716 1042.61 562.308C1042.01 561.265 1041.42 560.192 1040.87 559.062L1028.07 559.66L996.829 561.097L959.328 562.839Z" fill="#0A0A0C"/>
<path d="M944.451 642.016C944.451 642.016 965.592 616.618 978.799 598.038C992.975 578.173 973.394 558.595 960.273 572.779C946.229 588.018 935.61 613.369 914.17 637.821C906.849 646.146 928.34 668.578 944.451 642.016Z" fill="#1C4670"/>
<path d="M870.076 581.429C870.076 581.429 858.297 573.362 856.928 567.63C855.434 561.445 852.222 550.658 847.838 549.905C843.374 549.098 832.157 555.487 831.027 562.252C830.086 568.975 838.557 578.552 844.474 581.134C850.256 583.742 857.167 591.891 857.167 591.891L870.076 581.429Z" fill="#FCC0A9"/>
<path d="M849.823 586.674L866.383 576.344C866.383 576.344 889.463 595.348 913.051 614.11C936.75 633.058 950.701 634.429 940.784 647.475C937.557 651.766 926.366 659.756 918.591 651.805C910.816 643.854 849.823 586.674 849.823 586.674Z" fill="#1C4670"/>
<path d="M943.321 1027.54C948.969 1007.55 962.146 1002.23 962.176 993.931C962.203 985.794 956.717 897.768 956.2 873.511L988.77 855.086C990.545 868.532 994.31 906.744 991.325 916.387C987.506 928.692 980.35 985.367 980.188 985.271C978.694 993.961 977.58 1000.17 977.687 1002.32C978.091 1012.57 984.951 1018.77 970.776 1023.94C959.639 1027.99 958.823 1042.03 950.546 1043.84C942.269 1045.65 931.288 1046.21 931.745 1041.41C932.104 1037.14 941.331 1034.56 943.321 1027.54Z" fill="#FCC0A9"/>
<path d="M986.708 1015.59C986.708 1015.59 981.948 1027.95 980.52 1032.14C979.848 1034.08 978.129 1039.92 978.129 1039.92L974.284 1040.55C974.284 1040.55 978.882 1019.91 967.71 1028C956.6 1036.14 969.7 1022.37 969.7 1022.37L986.708 1015.59Z" fill="#0A0A0C"/>
<path d="M979.035 991.938C979.035 991.938 987.052 1013.17 986.702 1015.59C986.352 1018.02 976.48 1018.56 968.735 1026.65C960.933 1034.77 956.011 1042.84 954.828 1043.9C946.434 1051.01 929.839 1044.77 929.543 1042.17C928.924 1036.13 945.036 1023.19 943.906 1025.98C941.89 1030.95 946.434 1035.86 955.608 1019.66C962.573 1007.35 962.385 1007.24 974.355 999.375C978.395 996.751 979.035 991.938 979.035 991.938Z" fill="#0A0A0C"/>
<path d="M985.443 726.175C1009.89 725.057 1015.46 721.71 1015.46 721.71C1015.46 721.71 1012.93 762.743 1003.46 795.182C993.941 827.593 988.778 834.681 988.778 848.492C988.778 863.597 994.614 892.163 993.376 909.324C992.112 926.538 983.023 963.833 983.023 963.833C983.023 963.833 976.646 966.453 970.772 967.341C964.933 968.15 959.258 965.847 959.258 965.847C959.258 965.847 954.477 861.416 952.401 809.584C950.408 757.738 949.735 740.508 952.024 717.297C952.009 717.285 960.991 727.28 985.443 726.175Z" fill="#2F1113"/>
<path d="M1019.58 1027.53C1025.22 1007.54 1038.43 1002.22 1038.46 993.922C1038.49 985.785 1011.59 900.947 1011.08 876.699L1039.02 860.883C1040.8 874.329 1052.9 898.258 1049.92 907.889C1046.1 920.194 1055.89 995.843 1055.97 997.995C1056.4 1008.26 1061.22 1018.76 1047.07 1023.93C1035.93 1027.97 1030.79 1041.57 1022.51 1043.35C1014.2 1045.19 1007.57 1046.19 1008.01 1041.38C1008.39 1037.14 1017.61 1034.55 1019.58 1027.53Z" fill="#FCC0A9"/>
<path d="M1063 1015.59C1063 1015.59 1058.22 1027.95 1056.81 1032.14C1056.11 1034.08 1054.42 1039.92 1054.42 1039.92L1050.57 1040.55C1050.57 1040.55 1055.15 1019.91 1044 1028C1032.86 1036.1 1045.99 1022.37 1045.99 1022.37L1063 1015.59Z" fill="#0A0A0C"/>
<path d="M1055.32 991.938C1055.32 991.938 1063.31 1013.17 1062.99 1015.59C1062.59 1017.98 1052.74 1018.56 1045 1026.65C1037.19 1034.77 1032.3 1042.84 1031.12 1043.9C1022.72 1051.01 1006.1 1044.77 1005.83 1042.17C1005.19 1036.13 1021.49 1023.26 1020.19 1025.98C1017.69 1031.13 1022.72 1035.86 1031.87 1019.66C1038.86 1007.35 1038.67 1007.24 1050.64 999.375C1054.68 996.751 1055.32 991.938 1055.32 991.938Z" fill="#0A0A0C"/>
<path d="M1003.38 716.216C1026.99 709.854 1031.74 705.375 1031.74 705.375C1031.74 705.375 1038.49 733.108 1037.97 766.879C1037.44 804.589 1030.07 821.442 1033.03 834.93C1036.31 849.682 1048.17 876.312 1050.66 893.338C1053.1 910.418 1052.43 956.145 1052.43 956.145C1052.43 956.145 1046.78 960.059 1041.24 962.199C1035.7 964.255 1029.65 963.206 1029.65 963.206C1029.65 963.206 1002.29 854.956 989.113 804.789C975.933 754.622 971.603 737.909 968.794 714.749C968.821 714.722 979.766 722.563 1003.38 716.216Z" fill="#2F1113"/>
<path d="M964.515 571.296C964.515 571.296 952.36 593.082 938.534 618.508C932.964 628.718 952.279 638.845 952.36 652.59C952.521 666.336 953.086 705.928 950.582 726.88C969.574 750.161 1032.52 728.252 1032.19 706.008C1025.22 676.973 1022.63 681.506 1023.69 649.832C1024.63 618.953 1033.55 586.26 1012.69 577.667C982.486 565.182 973.955 570.779 964.515 571.296Z" fill="url(#paint0_linear_80_1560)"/>
<path d="M1035.29 710.329C1035.29 710.329 1033.54 728.473 996.255 736.839C967.57 743.252 948.485 733.286 948.216 730.935C947.947 728.583 956.26 668.639 950.448 655.175C944.636 641.71 939.18 641.525 936.06 627.269C931.916 608.48 952.575 597.478 959.299 575.276C963.709 560.616 995.099 567.597 1006.21 571.562C1017.32 575.527 1027.43 578.676 1025.85 616.682C1024.27 654.688 1026.6 691.609 1035.29 710.329Z" fill="#317BC5"/>
<path d="M976.812 556.543C977.093 560.466 976.313 563.813 975.515 566.448C974.867 568.606 974.189 570.291 974.069 571.42C973.418 578.559 1002.36 573.638 1002.36 573.638C1002.36 573.638 1000.55 569.302 1000.25 558.452C999.952 547.602 1003.51 536.457 1003.51 536.457C1003.46 536.295 1003.35 536.206 1003.3 536.065C1007.41 520.79 1002.62 503.576 990.749 496.407C976.651 487.87 957.339 495.759 955.594 500.062C955.594 500.062 954.924 540.87 965.227 551.962C967.238 554.116 971.643 556.014 976.812 556.543Z" fill="#FCC0A9"/>
<path style="mix-blend-mode:multiply" d="M968.576 649.027C968.576 649.027 948.854 647.198 944.42 646.445Z" fill="url(#paint1_linear_80_1560)"/>
<path d="M1034.64 651.41C1034.64 651.41 1031.31 618.541 1027.3 596.106C1023.02 572.073 995.341 572.342 996.282 591.642C997.334 612.352 1007.98 637.677 1010.43 670.089C1011.26 681.156 1042.33 681.506 1034.64 651.41Z" fill="#1C4670"/>
<path d="M939.293 662.088C939.293 662.088 925.306 664.858 920.25 661.834C914.761 658.565 904.811 653.321 901.204 655.888C897.52 658.523 894.212 671.004 898.273 676.532C902.414 681.938 915.164 682.586 921.164 680.178C927.054 677.865 937.76 678.63 937.76 678.63L939.293 662.088Z" fill="#FCC0A9"/>
<path d="M928.877 680.229L933.099 661.159C933.099 661.159 962.849 657.983 992.706 654.287C1022.86 650.614 1033.59 641.617 1035.99 657.825C1036.77 663.164 1034.64 676.721 1023.53 676.721C1012.42 676.721 928.877 680.229 928.877 680.229Z" fill="#1C4670"/>
<path d="M950.448 497.819C950.448 508.388 955.564 510.62 955.564 510.62C955.564 510.62 954.509 507.163 957.981 502.702C957.97 502.892 957.977 503.083 958.002 503.272C958.202 505.014 959.846 510.166 972.288 510.832C987.273 511.645 990.516 515.446 990.516 515.446C990.516 515.446 999.659 510.339 1002.19 516.796C1004.72 523.254 993.256 525.462 993.635 528.991C993.985 532.125 992.072 549.71 996.814 561.107C997.393 562.548 998.131 563.92 999.014 565.198C1006.31 575.629 1022.11 575.058 1027.48 597.741C1031.13 595.415 1034.6 592.818 1037.86 589.972L1038.01 589.832C1041.85 586.484 1044.4 581.91 1045.23 576.892C1046.07 571.873 1045.14 566.72 1042.6 562.311C1042 561.268 1041.4 560.196 1040.86 559.066C1038.61 554.494 1036.81 549.014 1035.38 540.916C1030.3 512.051 1030.38 495.766 1022.25 487.627C1014.13 479.487 1009.61 482.344 1009.61 482.344C1009.61 482.344 1005.43 470.128 988.6 470.55C971.774 470.971 950.448 487.235 950.448 497.819Z" fill="#0A0A0C"/>
<path d="M980.72 529.197C980.603 530.691 979.632 531.842 978.55 531.761C977.469 531.68 976.698 530.383 976.814 528.88C976.931 527.377 977.905 526.236 978.984 526.317C980.062 526.397 980.845 527.694 980.72 529.197Z" fill="#FC9A73"/>
<path d="M964.9 528.9C964.784 530.394 963.81 531.545 962.731 531.464C961.652 531.383 960.878 530.086 960.995 528.586C961.112 527.086 962.083 525.939 963.164 526.02C964.246 526.1 965.026 527.397 964.9 528.9Z" fill="#FC9A73"/>
<path d="M967.295 521.781C965.78 522.289 959.87 521.838 959.711 521.605C959.377 521.106 960.01 520.673 960.309 520.541C961.618 519.979 963.536 519.914 965.819 520C968.102 520.087 967.863 521.59 967.295 521.781Z" fill="#FC9A73"/>
<path d="M976.982 522.407C978.374 523.582 984.318 523.63 984.539 523.071C984.615 522.856 984.607 522.621 984.516 522.412C984.425 522.203 984.258 522.037 984.049 521.947C982.797 521.382 980.872 521.35 978.634 520.8C976.396 520.25 976.519 522.031 976.982 522.407Z" fill="#FC9A73"/>
<path d="M971.238 539.608C971.193 539.612 971.147 539.612 971.101 539.608C968.917 539.195 968.113 538.176 967.814 537.396C967.438 536.377 967.727 535.131 968.588 534.068C969.879 532.466 970.402 528.883 970.494 527.637C970.513 527.445 970.606 527.268 970.752 527.142C970.898 527.016 971.088 526.952 971.28 526.962C971.376 526.968 971.47 526.994 971.556 527.037C971.642 527.08 971.719 527.139 971.782 527.212C971.844 527.285 971.892 527.37 971.922 527.461C971.952 527.553 971.963 527.649 971.956 527.745C971.956 527.948 971.57 532.708 969.73 534.988C969.198 535.648 968.997 536.36 969.192 536.891C969.416 537.489 970.166 537.94 971.361 538.167C971.541 538.2 971.702 538.299 971.813 538.445C971.923 538.591 971.975 538.773 971.958 538.955C971.941 539.137 971.857 539.306 971.721 539.429C971.586 539.552 971.41 539.62 971.227 539.62L971.238 539.608Z" fill="#FC9A73"/>
<path d="M965.393 543.57C965.393 543.57 966.397 548.758 972.032 548.3C977.668 547.843 978.176 543.57 978.176 543.57C973.966 544.503 969.603 544.503 965.393 543.57Z" fill="#FC9A73"/>
<path d="M975.514 566.446C986.217 566.405 991.7 561.023 994.584 553C989.531 555.895 984.09 558.02 976.811 556.553C977.091 560.464 976.311 563.811 975.514 566.446Z" fill="#FC9A73"/>
<path d="M142.881 74H133.682L133.74 67.6719H142.881C145.361 67.6719 147.441 67.125 149.121 66.0312C150.801 64.918 152.07 63.3262 152.93 61.2559C153.789 59.166 154.219 56.666 154.219 53.7559V51.5586C154.219 49.3125 153.975 47.3301 153.486 45.6113C152.998 43.8926 152.275 42.4473 151.318 41.2754C150.381 40.1035 149.219 39.2148 147.832 38.6094C146.445 38.0039 144.854 37.7012 143.057 37.7012H133.506V31.3438H143.057C145.908 31.3438 148.506 31.8223 150.85 32.7793C153.213 33.7363 155.254 35.1133 156.973 36.9102C158.711 38.6875 160.039 40.8164 160.957 43.2969C161.895 45.7773 162.363 48.5508 162.363 51.6172V53.7559C162.363 56.8027 161.895 59.5762 160.957 62.0762C160.039 64.5566 158.711 66.6855 156.973 68.4629C155.254 70.2402 153.203 71.6074 150.82 72.5645C148.438 73.5215 145.791 74 142.881 74ZM138.193 31.3438V74H130.137V31.3438H138.193ZM167.256 58.4727V57.8574C167.256 55.5332 167.588 53.3945 168.252 51.4414C168.916 49.4688 169.883 47.7598 171.152 46.3145C172.422 44.8691 173.975 43.7461 175.811 42.9453C177.646 42.125 179.736 41.7148 182.08 41.7148C184.463 41.7148 186.572 42.125 188.408 42.9453C190.264 43.7461 191.826 44.8691 193.096 46.3145C194.365 47.7598 195.332 49.4688 195.996 51.4414C196.66 53.3945 196.992 55.5332 196.992 57.8574V58.4727C196.992 60.7773 196.66 62.916 195.996 64.8887C195.332 66.8418 194.365 68.5508 193.096 70.0156C191.826 71.4609 190.273 72.584 188.438 73.3848C186.602 74.1855 184.502 74.5859 182.139 74.5859C179.795 74.5859 177.695 74.1855 175.84 73.3848C173.984 72.584 172.422 71.4609 171.152 70.0156C169.883 68.5508 168.916 66.8418 168.252 64.8887C167.588 62.916 167.256 60.7773 167.256 58.4727ZM174.99 57.8574V58.4727C174.99 59.8594 175.127 61.1582 175.4 62.3691C175.674 63.5801 176.094 64.6445 176.66 65.5625C177.227 66.4805 177.959 67.2031 178.857 67.7305C179.775 68.2383 180.869 68.4922 182.139 68.4922C183.389 68.4922 184.463 68.2383 185.361 67.7305C186.26 67.2031 186.992 66.4805 187.559 65.5625C188.145 64.6445 188.574 63.5801 188.848 62.3691C189.121 61.1582 189.258 59.8594 189.258 58.4727V57.8574C189.258 56.4902 189.121 55.2109 188.848 54.0195C188.574 52.8086 188.145 51.7441 187.559 50.8262C186.992 49.8887 186.25 49.1562 185.332 48.6289C184.434 48.082 183.35 47.8086 182.08 47.8086C180.83 47.8086 179.756 48.082 178.857 48.6289C177.959 49.1562 177.227 49.8887 176.66 50.8262C176.094 51.7441 175.674 52.8086 175.4 54.0195C175.127 55.2109 174.99 56.4902 174.99 57.8574ZM215.625 68.4922C216.719 68.4922 217.695 68.2773 218.555 67.8477C219.414 67.418 220.098 66.8125 220.605 66.0312C221.133 65.25 221.416 64.3418 221.455 63.3066H228.75C228.711 65.4551 228.105 67.3789 226.934 69.0781C225.762 70.7773 224.199 72.125 222.246 73.1211C220.312 74.0977 218.145 74.5859 215.742 74.5859C213.301 74.5859 211.172 74.1758 209.355 73.3555C207.539 72.5352 206.025 71.3926 204.814 69.9277C203.623 68.4629 202.725 66.7637 202.119 64.8301C201.533 62.8965 201.24 60.8262 201.24 58.6191V57.6816C201.24 55.4746 201.533 53.4043 202.119 51.4707C202.725 49.5371 203.623 47.8379 204.814 46.373C206.025 44.9082 207.539 43.7656 209.355 42.9453C211.172 42.125 213.291 41.7148 215.713 41.7148C218.271 41.7148 220.518 42.2129 222.451 43.209C224.404 44.2051 225.928 45.6113 227.021 47.4277C228.135 49.2441 228.711 51.3828 228.75 53.8438H221.455C221.416 52.7109 221.162 51.6953 220.693 50.7969C220.225 49.8984 219.561 49.1758 218.701 48.6289C217.842 48.082 216.797 47.8086 215.566 47.8086C214.258 47.8086 213.164 48.082 212.285 48.6289C211.426 49.1758 210.752 49.9277 210.264 50.8848C209.795 51.8223 209.463 52.877 209.268 54.0488C209.092 55.2012 209.004 56.4121 209.004 57.6816V58.6191C209.004 59.9082 209.092 61.1387 209.268 62.3105C209.463 63.4824 209.795 64.5371 210.264 65.4746C210.752 66.3926 211.426 67.125 212.285 67.6719C213.164 68.2188 214.277 68.4922 215.625 68.4922ZM252.773 66.4707V42.3008H260.566V74H253.242L252.773 66.4707ZM253.77 59.9082L256.172 59.8496C256.172 61.9785 255.938 63.9414 255.469 65.7383C255 67.5352 254.268 69.0977 253.271 70.4258C252.295 71.7344 251.055 72.7598 249.551 73.502C248.047 74.2246 246.27 74.5859 244.219 74.5859C242.656 74.5859 241.23 74.3711 239.941 73.9414C238.652 73.4922 237.539 72.7988 236.602 71.8613C235.684 70.9043 234.971 69.6836 234.463 68.1992C233.955 66.6953 233.701 64.8887 233.701 62.7793V42.3008H241.436V62.8379C241.436 63.8926 241.553 64.7715 241.787 65.4746C242.041 66.1777 242.383 66.7539 242.812 67.2031C243.262 67.6328 243.779 67.9453 244.365 68.1406C244.971 68.3164 245.615 68.4043 246.299 68.4043C248.174 68.4043 249.648 68.0332 250.723 67.291C251.816 66.5293 252.598 65.5137 253.066 64.2441C253.535 62.9551 253.77 61.5098 253.77 59.9082ZM275.127 48.8047V74H267.393V42.3008H274.688L275.127 48.8047ZM273.984 57.0078H271.611C271.611 54.8008 271.875 52.7695 272.402 50.9141C272.949 49.0586 273.75 47.4473 274.805 46.0801C275.859 44.6934 277.158 43.6191 278.701 42.8574C280.264 42.0957 282.07 41.7148 284.121 41.7148C285.547 41.7148 286.855 41.9297 288.047 42.3594C289.238 42.7695 290.264 43.4238 291.123 44.3223C292.002 45.2012 292.676 46.3535 293.145 47.7793C293.613 49.1855 293.848 50.875 293.848 52.8477V74H286.113V53.6387C286.113 52.1543 285.898 50.9922 285.469 50.1523C285.059 49.3125 284.463 48.7266 283.682 48.3945C282.9 48.043 281.963 47.8672 280.869 47.8672C279.658 47.8672 278.613 48.1113 277.734 48.5996C276.875 49.0684 276.162 49.7227 275.596 50.5625C275.049 51.4023 274.639 52.3691 274.365 53.4629C274.111 54.5566 273.984 55.7383 273.984 57.0078ZM293.262 55.5723L290.068 56.1582C290.088 54.166 290.361 52.3008 290.889 50.5625C291.416 48.8047 292.188 47.2715 293.203 45.9629C294.238 44.6348 295.518 43.5996 297.041 42.8574C298.584 42.0957 300.361 41.7148 302.373 41.7148C303.936 41.7148 305.342 41.9395 306.592 42.3887C307.861 42.8184 308.945 43.5117 309.844 44.4688C310.742 45.4062 311.426 46.627 311.895 48.1309C312.383 49.6348 312.627 51.4707 312.627 53.6387V74H304.834V53.6094C304.834 52.0664 304.619 50.8848 304.189 50.0645C303.779 49.2441 303.184 48.6777 302.402 48.3652C301.621 48.0332 300.703 47.8672 299.648 47.8672C298.574 47.8672 297.637 48.0723 296.836 48.4824C296.055 48.873 295.391 49.4199 294.844 50.123C294.316 50.8262 293.916 51.6465 293.643 52.584C293.389 53.502 293.262 54.498 293.262 55.5723ZM333.809 74.5859C331.406 74.5859 329.248 74.1953 327.334 73.4141C325.42 72.6328 323.789 71.5488 322.441 70.1621C321.113 68.7559 320.088 67.125 319.365 65.2695C318.662 63.3945 318.311 61.3828 318.311 59.2344V58.0625C318.311 55.6211 318.662 53.4043 319.365 51.4121C320.068 49.4004 321.064 47.6719 322.354 46.2266C323.643 44.7812 325.186 43.668 326.982 42.8867C328.779 42.1055 330.762 41.7148 332.93 41.7148C335.176 41.7148 337.158 42.0957 338.877 42.8574C340.596 43.5996 342.031 44.6543 343.184 46.0215C344.336 47.3887 345.205 49.0293 345.791 50.9434C346.377 52.8379 346.67 54.9375 346.67 57.2422V60.4941H321.826V55.1621H339.053V54.5762C339.014 53.3457 338.779 52.2227 338.35 51.207C337.92 50.1719 337.256 49.3516 336.357 48.7461C335.459 48.1211 334.297 47.8086 332.871 47.8086C331.719 47.8086 330.713 48.0625 329.854 48.5703C329.014 49.0586 328.311 49.7617 327.744 50.6797C327.197 51.5781 326.787 52.6523 326.514 53.9023C326.24 55.1523 326.104 56.5391 326.104 58.0625V59.2344C326.104 60.5625 326.279 61.793 326.631 62.9258C327.002 64.0586 327.539 65.0449 328.242 65.8848C328.965 66.7051 329.824 67.3496 330.82 67.8184C331.836 68.2676 332.988 68.4922 334.277 68.4922C335.898 68.4922 337.363 68.1797 338.672 67.5547C340 66.9102 341.152 65.9629 342.129 64.7129L346.025 68.7559C345.361 69.7324 344.463 70.6699 343.33 71.5684C342.217 72.4668 340.869 73.1992 339.287 73.7656C337.705 74.3125 335.879 74.5859 333.809 74.5859ZM359.443 49.0684V74H351.709V42.3008H358.975L359.443 49.0684ZM358.213 57.0078H355.928C355.947 54.7031 356.26 52.6133 356.865 50.7383C357.471 48.8633 358.32 47.252 359.414 45.9043C360.527 44.5566 361.846 43.5215 363.369 42.7988C364.893 42.0762 366.592 41.7148 368.467 41.7148C369.99 41.7148 371.367 41.9297 372.598 42.3594C373.828 42.7891 374.883 43.4727 375.762 44.4102C376.66 45.3477 377.344 46.5781 377.812 48.1016C378.301 49.6055 378.545 51.4609 378.545 53.668V74H370.752V53.6094C370.752 52.1641 370.537 51.0215 370.107 50.1816C369.697 49.3418 369.092 48.7461 368.291 48.3945C367.51 48.043 366.543 47.8672 365.391 47.8672C364.199 47.8672 363.154 48.1113 362.256 48.5996C361.377 49.0684 360.635 49.7227 360.029 50.5625C359.443 51.4023 358.994 52.3691 358.682 53.4629C358.369 54.5566 358.213 55.7383 358.213 57.0078ZM400.371 42.3008V47.8672H382.207V42.3008H400.371ZM387.07 34.5078H394.834V64.8594C394.834 65.7969 394.961 66.5195 395.215 67.0273C395.469 67.5352 395.85 67.877 396.357 68.0527C396.865 68.2285 397.471 68.3164 398.174 68.3164C398.682 68.3164 399.15 68.2871 399.58 68.2285C400.01 68.1699 400.371 68.1113 400.664 68.0527L400.693 73.8535C400.049 74.0684 399.316 74.2441 398.496 74.3809C397.695 74.5176 396.787 74.5859 395.771 74.5859C394.033 74.5859 392.51 74.293 391.201 73.707C389.893 73.1016 388.877 72.1348 388.154 70.8066C387.432 69.459 387.07 67.6816 387.07 65.4746V34.5078ZM422.959 65.3281C422.959 64.6641 422.783 64.0684 422.432 63.541C422.08 63.0137 421.416 62.5352 420.439 62.1055C419.482 61.6562 418.076 61.2363 416.221 60.8457C414.58 60.4941 413.066 60.0547 411.68 59.5273C410.293 59 409.102 58.3652 408.105 57.623C407.109 56.8613 406.328 55.9727 405.762 54.957C405.215 53.9219 404.941 52.7305 404.941 51.3828C404.941 50.0742 405.225 48.8438 405.791 47.6914C406.357 46.5195 407.178 45.4941 408.252 44.6152C409.326 43.7168 410.635 43.0137 412.178 42.5059C413.721 41.9785 415.459 41.7148 417.393 41.7148C420.088 41.7148 422.402 42.1543 424.336 43.0332C426.289 43.9121 427.783 45.123 428.818 46.666C429.854 48.1895 430.371 49.9082 430.371 51.8223H422.637C422.637 50.9824 422.441 50.2207 422.051 49.5371C421.68 48.8535 421.104 48.3066 420.322 47.8965C419.541 47.4668 418.555 47.252 417.363 47.252C416.289 47.252 415.381 47.4277 414.639 47.7793C413.916 48.1309 413.369 48.5898 412.998 49.1562C412.627 49.7227 412.441 50.3477 412.441 51.0312C412.441 51.5391 412.539 51.998 412.734 52.4082C412.949 52.7988 413.291 53.1602 413.76 53.4922C414.229 53.8242 414.863 54.127 415.664 54.4004C416.484 54.6738 417.49 54.9375 418.682 55.1914C421.045 55.6602 423.105 56.2852 424.863 57.0664C426.641 57.8281 428.027 58.8438 429.023 60.1133C430.02 61.3828 430.518 63.0039 430.518 64.9766C430.518 66.3828 430.215 67.6719 429.609 68.8438C429.004 69.9961 428.125 71.002 426.973 71.8613C425.82 72.7207 424.443 73.3945 422.842 73.8828C421.24 74.3516 419.434 74.5859 417.422 74.5859C414.512 74.5859 412.051 74.0684 410.039 73.0332C408.027 71.9785 406.504 70.6504 405.469 69.0488C404.434 67.4277 403.916 65.748 403.916 64.0098H411.328C411.387 65.2402 411.719 66.2266 412.324 66.9688C412.93 67.7109 413.691 68.248 414.609 68.5801C415.547 68.8926 416.533 69.0488 417.568 69.0488C418.74 69.0488 419.727 68.8926 420.527 68.5801C421.328 68.248 421.934 67.8086 422.344 67.2617C422.754 66.6953 422.959 66.0508 422.959 65.3281ZM460.635 70.4844L469.131 42.3008H477.422L464.707 78.8047C464.414 79.5859 464.033 80.4355 463.564 81.3535C463.115 82.2715 462.51 83.1406 461.748 83.9609C460.986 84.8008 460.029 85.4844 458.877 86.0117C457.744 86.5391 456.367 86.8027 454.746 86.8027C454.043 86.8027 453.418 86.7539 452.871 86.6562C452.324 86.5586 451.748 86.4316 451.143 86.2754V80.4746C451.338 80.4941 451.562 80.5039 451.816 80.5039C452.09 80.5234 452.324 80.5332 452.52 80.5332C453.652 80.5332 454.59 80.3965 455.332 80.123C456.074 79.8691 456.67 79.4492 457.119 78.8633C457.588 78.2969 457.979 77.5547 458.291 76.6367L460.635 70.4844ZM456.445 42.3008L463.623 65.6504L464.883 73.8242L459.551 74.791L448.096 42.3008H456.445ZM479.326 58.4727V57.8574C479.326 55.5332 479.658 53.3945 480.322 51.4414C480.986 49.4688 481.953 47.7598 483.223 46.3145C484.492 44.8691 486.045 43.7461 487.881 42.9453C489.717 42.125 491.807 41.7148 494.15 41.7148C496.533 41.7148 498.643 42.125 500.479 42.9453C502.334 43.7461 503.896 44.8691 505.166 46.3145C506.436 47.7598 507.402 49.4688 508.066 51.4414C508.73 53.3945 509.062 55.5332 509.062 57.8574V58.4727C509.062 60.7773 508.73 62.916 508.066 64.8887C507.402 66.8418 506.436 68.5508 505.166 70.0156C503.896 71.4609 502.344 72.584 500.508 73.3848C498.672 74.1855 496.572 74.5859 494.209 74.5859C491.865 74.5859 489.766 74.1855 487.91 73.3848C486.055 72.584 484.492 71.4609 483.223 70.0156C481.953 68.5508 480.986 66.8418 480.322 64.8887C479.658 62.916 479.326 60.7773 479.326 58.4727ZM487.061 57.8574V58.4727C487.061 59.8594 487.197 61.1582 487.471 62.3691C487.744 63.5801 488.164 64.6445 488.73 65.5625C489.297 66.4805 490.029 67.2031 490.928 67.7305C491.846 68.2383 492.939 68.4922 494.209 68.4922C495.459 68.4922 496.533 68.2383 497.432 67.7305C498.33 67.2031 499.062 66.4805 499.629 65.5625C500.215 64.6445 500.645 63.5801 500.918 62.3691C501.191 61.1582 501.328 59.8594 501.328 58.4727V57.8574C501.328 56.4902 501.191 55.2109 500.918 54.0195C500.645 52.8086 500.215 51.7441 499.629 50.8262C499.062 49.8887 498.32 49.1562 497.402 48.6289C496.504 48.082 495.42 47.8086 494.15 47.8086C492.9 47.8086 491.826 48.082 490.928 48.6289C490.029 49.1562 489.297 49.8887 488.73 50.8262C488.164 51.7441 487.744 52.8086 487.471 54.0195C487.197 55.2109 487.061 56.4902 487.061 57.8574ZM533.555 66.4707V42.3008H541.348V74H534.023L533.555 66.4707ZM534.551 59.9082L536.953 59.8496C536.953 61.9785 536.719 63.9414 536.25 65.7383C535.781 67.5352 535.049 69.0977 534.053 70.4258C533.076 71.7344 531.836 72.7598 530.332 73.502C528.828 74.2246 527.051 74.5859 525 74.5859C523.438 74.5859 522.012 74.3711 520.723 73.9414C519.434 73.4922 518.32 72.7988 517.383 71.8613C516.465 70.9043 515.752 69.6836 515.244 68.1992C514.736 66.6953 514.482 64.8887 514.482 62.7793V42.3008H522.217V62.8379C522.217 63.8926 522.334 64.7715 522.568 65.4746C522.822 66.1777 523.164 66.7539 523.594 67.2031C524.043 67.6328 524.561 67.9453 525.146 68.1406C525.752 68.3164 526.396 68.4043 527.08 68.4043C528.955 68.4043 530.43 68.0332 531.504 67.291C532.598 66.5293 533.379 65.5137 533.848 64.2441C534.316 62.9551 534.551 61.5098 534.551 59.9082ZM570.85 48.8047V74H563.115V42.3008H570.41L570.85 48.8047ZM569.707 57.0078H567.334C567.334 54.8008 567.598 52.7695 568.125 50.9141C568.672 49.0586 569.473 47.4473 570.527 46.0801C571.582 44.6934 572.881 43.6191 574.424 42.8574C575.986 42.0957 577.793 41.7148 579.844 41.7148C581.27 41.7148 582.578 41.9297 583.77 42.3594C584.961 42.7695 585.986 43.4238 586.846 44.3223C587.725 45.2012 588.398 46.3535 588.867 47.7793C589.336 49.1855 589.57 50.875 589.57 52.8477V74H581.836V53.6387C581.836 52.1543 581.621 50.9922 581.191 50.1523C580.781 49.3125 580.186 48.7266 579.404 48.3945C578.623 48.043 577.686 47.8672 576.592 47.8672C575.381 47.8672 574.336 48.1113 573.457 48.5996C572.598 49.0684 571.885 49.7227 571.318 50.5625C570.771 51.4023 570.361 52.3691 570.088 53.4629C569.834 54.5566 569.707 55.7383 569.707 57.0078ZM588.984 55.5723L585.791 56.1582C585.811 54.166 586.084 52.3008 586.611 50.5625C587.139 48.8047 587.91 47.2715 588.926 45.9629C589.961 44.6348 591.24 43.5996 592.764 42.8574C594.307 42.0957 596.084 41.7148 598.096 41.7148C599.658 41.7148 601.064 41.9395 602.314 42.3887C603.584 42.8184 604.668 43.5117 605.566 44.4688C606.465 45.4062 607.148 46.627 607.617 48.1309C608.105 49.6348 608.35 51.4707 608.35 53.6387V74H600.557V53.6094C600.557 52.0664 600.342 50.8848 599.912 50.0645C599.502 49.2441 598.906 48.6777 598.125 48.3652C597.344 48.0332 596.426 47.8672 595.371 47.8672C594.297 47.8672 593.359 48.0723 592.559 48.4824C591.777 48.873 591.113 49.4199 590.566 50.123C590.039 50.8262 589.639 51.6465 589.365 52.584C589.111 53.502 588.984 54.498 588.984 55.5723ZM623.496 42.3008V74H615.732V42.3008H623.496ZM615.205 34.0098C615.205 32.8574 615.596 31.9004 616.377 31.1387C617.178 30.377 618.252 29.9961 619.6 29.9961C620.947 29.9961 622.012 30.377 622.793 31.1387C623.594 31.9004 623.994 32.8574 623.994 34.0098C623.994 35.1426 623.594 36.0898 622.793 36.8516C622.012 37.6133 620.947 37.9941 619.6 37.9941C618.252 37.9941 617.178 37.6133 616.377 36.8516C615.596 36.0898 615.205 35.1426 615.205 34.0098ZM651.035 42.3008H658.066V73.0332C658.066 75.9043 657.441 78.3359 656.191 80.3281C654.961 82.3398 653.232 83.8633 651.006 84.8984C648.779 85.9531 646.191 86.4805 643.242 86.4805C641.973 86.4805 640.596 86.3047 639.111 85.9531C637.646 85.6016 636.23 85.0449 634.863 84.2832C633.516 83.541 632.393 82.5742 631.494 81.3828L634.98 76.8125C636.035 78.043 637.227 78.9707 638.555 79.5957C639.883 80.2402 641.318 80.5625 642.861 80.5625C644.424 80.5625 645.752 80.2695 646.846 79.6836C647.959 79.1172 648.809 78.2773 649.395 77.1641C650 76.0703 650.303 74.7227 650.303 73.1211V49.5371L651.035 42.3008ZM629.619 58.5312V57.916C629.619 55.4941 629.912 53.2969 630.498 51.3242C631.084 49.332 631.924 47.623 633.018 46.1973C634.131 44.7715 635.469 43.668 637.031 42.8867C638.613 42.1055 640.391 41.7148 642.363 41.7148C644.453 41.7148 646.211 42.0957 647.637 42.8574C649.082 43.6191 650.273 44.7031 651.211 46.1094C652.168 47.5156 652.91 49.1855 653.438 51.1191C653.984 53.0332 654.404 55.1426 654.697 57.4473V59.1172C654.424 61.3633 653.984 63.4238 653.379 65.2988C652.793 67.1738 652.012 68.8145 651.035 70.2207C650.059 71.6074 648.848 72.6816 647.402 73.4434C645.957 74.2051 644.258 74.5859 642.305 74.5859C640.352 74.5859 638.594 74.1855 637.031 73.3848C635.469 72.584 634.131 71.4609 633.018 70.0156C631.924 68.5703 631.084 66.8711 630.498 64.918C629.912 62.9648 629.619 60.8359 629.619 58.5312ZM637.354 57.916V58.5312C637.354 59.8984 637.49 61.1777 637.764 62.3691C638.037 63.5605 638.457 64.6152 639.023 65.5332C639.59 66.4316 640.303 67.1348 641.162 67.6426C642.021 68.1504 643.047 68.4043 644.238 68.4043C645.84 68.4043 647.148 68.0723 648.164 67.4082C649.199 66.7246 649.98 65.7969 650.508 64.625C651.055 63.4336 651.406 62.0957 651.562 60.6113V56.0117C651.465 54.8398 651.25 53.7559 650.918 52.7598C650.605 51.7637 650.166 50.9043 649.6 50.1816C649.033 49.459 648.311 48.8926 647.432 48.4824C646.553 48.0723 645.508 47.8672 644.297 47.8672C643.125 47.8672 642.1 48.1309 641.221 48.6582C640.342 49.166 639.619 49.8789 639.053 50.7969C638.486 51.7148 638.057 52.7793 637.764 53.9902C637.49 55.2012 637.354 56.5098 637.354 57.916ZM672.627 29V74H664.863V29H672.627ZM671.396 57.0078H669.111C669.111 54.8008 669.404 52.7695 669.99 50.9141C670.576 49.0586 671.406 47.4473 672.48 46.0801C673.555 44.6934 674.834 43.6191 676.318 42.8574C677.822 42.0957 679.482 41.7148 681.299 41.7148C682.861 41.7148 684.277 41.9395 685.547 42.3887C686.836 42.8184 687.939 43.5117 688.857 44.4688C689.775 45.4258 690.479 46.6758 690.967 48.2188C691.475 49.7422 691.729 51.5977 691.729 53.7852V74H683.936V53.7266C683.936 52.2617 683.721 51.1094 683.291 50.2695C682.861 49.4102 682.246 48.7949 681.445 48.4238C680.664 48.0527 679.697 47.8672 678.545 47.8672C677.295 47.8672 676.221 48.1113 675.322 48.5996C674.424 49.0684 673.682 49.7227 673.096 50.5625C672.529 51.4023 672.1 52.3691 671.807 53.4629C671.533 54.5566 671.396 55.7383 671.396 57.0078ZM713.555 42.3008V47.8672H695.391V42.3008H713.555ZM700.254 34.5078H708.018V64.8594C708.018 65.7969 708.145 66.5195 708.398 67.0273C708.652 67.5352 709.033 67.877 709.541 68.0527C710.049 68.2285 710.654 68.3164 711.357 68.3164C711.865 68.3164 712.334 68.2871 712.764 68.2285C713.193 68.1699 713.555 68.1113 713.848 68.0527L713.877 73.8535C713.232 74.0684 712.5 74.2441 711.68 74.3809C710.879 74.5176 709.971 74.5859 708.955 74.5859C707.217 74.5859 705.693 74.293 704.385 73.707C703.076 73.1016 702.061 72.1348 701.338 70.8066C700.615 69.459 700.254 67.6816 700.254 65.4746V34.5078ZM741.24 49.0684V74H733.506V42.3008H740.771L741.24 49.0684ZM740.01 57.0078H737.725C737.744 54.7031 738.057 52.6133 738.662 50.7383C739.268 48.8633 740.117 47.252 741.211 45.9043C742.324 44.5566 743.643 43.5215 745.166 42.7988C746.689 42.0762 748.389 41.7148 750.264 41.7148C751.787 41.7148 753.164 41.9297 754.395 42.3594C755.625 42.7891 756.68 43.4727 757.559 44.4102C758.457 45.3477 759.141 46.5781 759.609 48.1016C760.098 49.6055 760.342 51.4609 760.342 53.668V74H752.549V53.6094C752.549 52.1641 752.334 51.0215 751.904 50.1816C751.494 49.3418 750.889 48.7461 750.088 48.3945C749.307 48.043 748.34 47.8672 747.188 47.8672C745.996 47.8672 744.951 48.1113 744.053 48.5996C743.174 49.0684 742.432 49.7227 741.826 50.5625C741.24 51.4023 740.791 52.3691 740.479 53.4629C740.166 54.5566 740.01 55.7383 740.01 57.0078ZM781.406 74.5859C779.004 74.5859 776.846 74.1953 774.932 73.4141C773.018 72.6328 771.387 71.5488 770.039 70.1621C768.711 68.7559 767.686 67.125 766.963 65.2695C766.26 63.3945 765.908 61.3828 765.908 59.2344V58.0625C765.908 55.6211 766.26 53.4043 766.963 51.4121C767.666 49.4004 768.662 47.6719 769.951 46.2266C771.24 44.7812 772.783 43.668 774.58 42.8867C776.377 42.1055 778.359 41.7148 780.527 41.7148C782.773 41.7148 784.756 42.0957 786.475 42.8574C788.193 43.5996 789.629 44.6543 790.781 46.0215C791.934 47.3887 792.803 49.0293 793.389 50.9434C793.975 52.8379 794.268 54.9375 794.268 57.2422V60.4941H769.424V55.1621H786.65V54.5762C786.611 53.3457 786.377 52.2227 785.947 51.207C785.518 50.1719 784.854 49.3516 783.955 48.7461C783.057 48.1211 781.895 47.8086 780.469 47.8086C779.316 47.8086 778.311 48.0625 777.451 48.5703C776.611 49.0586 775.908 49.7617 775.342 50.6797C774.795 51.5781 774.385 52.6523 774.111 53.9023C773.838 55.1523 773.701 56.5391 773.701 58.0625V59.2344C773.701 60.5625 773.877 61.793 774.229 62.9258C774.6 64.0586 775.137 65.0449 775.84 65.8848C776.562 66.7051 777.422 67.3496 778.418 67.8184C779.434 68.2676 780.586 68.4922 781.875 68.4922C783.496 68.4922 784.961 68.1797 786.27 67.5547C787.598 66.9102 788.75 65.9629 789.727 64.7129L793.623 68.7559C792.959 69.7324 792.061 70.6699 790.928 71.5684C789.814 72.4668 788.467 73.1992 786.885 73.7656C785.303 74.3125 783.477 74.5859 781.406 74.5859ZM813.691 74.5859C811.289 74.5859 809.131 74.1953 807.217 73.4141C805.303 72.6328 803.672 71.5488 802.324 70.1621C800.996 68.7559 799.971 67.125 799.248 65.2695C798.545 63.3945 798.193 61.3828 798.193 59.2344V58.0625C798.193 55.6211 798.545 53.4043 799.248 51.4121C799.951 49.4004 800.947 47.6719 802.236 46.2266C803.525 44.7812 805.068 43.668 806.865 42.8867C808.662 42.1055 810.645 41.7148 812.812 41.7148C815.059 41.7148 817.041 42.0957 818.76 42.8574C820.479 43.5996 821.914 44.6543 823.066 46.0215C824.219 47.3887 825.088 49.0293 825.674 50.9434C826.26 52.8379 826.553 54.9375 826.553 57.2422V60.4941H801.709V55.1621H818.936V54.5762C818.896 53.3457 818.662 52.2227 818.232 51.207C817.803 50.1719 817.139 49.3516 816.24 48.7461C815.342 48.1211 814.18 47.8086 812.754 47.8086C811.602 47.8086 810.596 48.0625 809.736 48.5703C808.896 49.0586 808.193 49.7617 807.627 50.6797C807.08 51.5781 806.67 52.6523 806.396 53.9023C806.123 55.1523 805.986 56.5391 805.986 58.0625V59.2344C805.986 60.5625 806.162 61.793 806.514 62.9258C806.885 64.0586 807.422 65.0449 808.125 65.8848C808.848 66.7051 809.707 67.3496 810.703 67.8184C811.719 68.2676 812.871 68.4922 814.16 68.4922C815.781 68.4922 817.246 68.1797 818.555 67.5547C819.883 66.9102 821.035 65.9629 822.012 64.7129L825.908 68.7559C825.244 69.7324 824.346 70.6699 823.213 71.5684C822.1 72.4668 820.752 73.1992 819.17 73.7656C817.588 74.3125 815.762 74.5859 813.691 74.5859ZM850.752 67.2617V29H858.545V74H851.514L850.752 67.2617ZM830.391 58.5312V57.916C830.391 55.4941 830.664 53.2969 831.211 51.3242C831.777 49.332 832.598 47.623 833.672 46.1973C834.746 44.7715 836.045 43.668 837.568 42.8867C839.111 42.1055 840.859 41.7148 842.812 41.7148C844.707 41.7148 846.357 42.0957 847.764 42.8574C849.189 43.6191 850.4 44.7031 851.396 46.1094C852.412 47.5156 853.223 49.1855 853.828 51.1191C854.434 53.0332 854.873 55.1426 855.146 57.4473V59.1172C854.873 61.3633 854.434 63.4238 853.828 65.2988C853.223 67.1738 852.412 68.8145 851.396 70.2207C850.4 71.6074 849.189 72.6816 847.764 73.4434C846.338 74.2051 844.668 74.5859 842.754 74.5859C840.82 74.5859 839.082 74.1855 837.539 73.3848C836.016 72.584 834.717 71.4609 833.643 70.0156C832.588 68.5703 831.777 66.8711 831.211 64.918C830.664 62.9648 830.391 60.8359 830.391 58.5312ZM838.154 57.916V58.5312C838.154 59.8984 838.271 61.1777 838.506 62.3691C838.74 63.5605 839.121 64.6152 839.648 65.5332C840.176 66.4316 840.85 67.1348 841.67 67.6426C842.51 68.1504 843.525 68.4043 844.717 68.4043C846.24 68.4043 847.49 68.0723 848.467 67.4082C849.463 66.7246 850.234 65.7969 850.781 64.625C851.328 63.4336 851.68 62.0957 851.836 60.6113V56.0117C851.758 54.8398 851.553 53.7559 851.221 52.7598C850.908 51.7637 850.459 50.9043 849.873 50.1816C849.307 49.459 848.604 48.8926 847.764 48.4824C846.924 48.0723 845.928 47.8672 844.775 47.8672C843.584 47.8672 842.568 48.1309 841.729 48.6582C840.889 49.166 840.205 49.8789 839.678 50.7969C839.15 51.7148 838.76 52.7793 838.506 53.9902C838.271 55.2012 838.154 56.5098 838.154 57.916ZM890.625 74H882.832V39.3711C882.832 36.9883 883.291 34.9863 884.209 33.3652C885.127 31.7246 886.436 30.4844 888.135 29.6445C889.834 28.8047 891.836 28.3848 894.141 28.3848C894.902 28.3848 895.625 28.4336 896.309 28.5312C897.012 28.6289 897.705 28.7656 898.389 28.9414L898.242 34.8301C897.871 34.7324 897.461 34.6641 897.012 34.625C896.582 34.5859 896.104 34.5664 895.576 34.5664C894.521 34.5664 893.623 34.752 892.881 35.123C892.139 35.4941 891.572 36.041 891.182 36.7637C890.811 37.4668 890.625 38.3359 890.625 39.3711V74ZM897.041 42.3008V47.8672H878.057V42.3008H897.041ZM900.439 58.4727V57.8574C900.439 55.5332 900.771 53.3945 901.436 51.4414C902.1 49.4688 903.066 47.7598 904.336 46.3145C905.605 44.8691 907.158 43.7461 908.994 42.9453C910.83 42.125 912.92 41.7148 915.264 41.7148C917.646 41.7148 919.756 42.125 921.592 42.9453C923.447 43.7461 925.01 44.8691 926.279 46.3145C927.549 47.7598 928.516 49.4688 929.18 51.4414C929.844 53.3945 930.176 55.5332 930.176 57.8574V58.4727C930.176 60.7773 929.844 62.916 929.18 64.8887C928.516 66.8418 927.549 68.5508 926.279 70.0156C925.01 71.4609 923.457 72.584 921.621 73.3848C919.785 74.1855 917.686 74.5859 915.322 74.5859C912.979 74.5859 910.879 74.1855 909.023 73.3848C907.168 72.584 905.605 71.4609 904.336 70.0156C903.066 68.5508 902.1 66.8418 901.436 64.8887C900.771 62.916 900.439 60.7773 900.439 58.4727ZM908.174 57.8574V58.4727C908.174 59.8594 908.311 61.1582 908.584 62.3691C908.857 63.5801 909.277 64.6445 909.844 65.5625C910.41 66.4805 911.143 67.2031 912.041 67.7305C912.959 68.2383 914.053 68.4922 915.322 68.4922C916.572 68.4922 917.646 68.2383 918.545 67.7305C919.443 67.2031 920.176 66.4805 920.742 65.5625C921.328 64.6445 921.758 63.5801 922.031 62.3691C922.305 61.1582 922.441 59.8594 922.441 58.4727V57.8574C922.441 56.4902 922.305 55.2109 922.031 54.0195C921.758 52.8086 921.328 51.7441 920.742 50.8262C920.176 49.8887 919.434 49.1562 918.516 48.6289C917.617 48.082 916.533 47.8086 915.264 47.8086C914.014 47.8086 912.939 48.082 912.041 48.6289C911.143 49.1562 910.41 49.8887 909.844 50.8262C909.277 51.7441 908.857 52.8086 908.584 54.0195C908.311 55.2109 908.174 56.4902 908.174 57.8574ZM943.535 48.7754V74H935.801V42.3008H943.125L943.535 48.7754ZM953.174 42.0957L953.057 49.3027C952.627 49.2246 952.139 49.166 951.592 49.127C951.064 49.0879 950.566 49.0684 950.098 49.0684C948.906 49.0684 947.861 49.2344 946.963 49.5664C946.064 49.8789 945.312 50.3379 944.707 50.9434C944.121 51.5488 943.672 52.291 943.359 53.1699C943.047 54.0293 942.871 55.0059 942.832 56.0996L941.162 55.8945C941.162 53.8828 941.367 52.0176 941.777 50.2988C942.188 48.5801 942.783 47.0762 943.564 45.7871C944.346 44.498 945.322 43.502 946.494 42.7988C947.686 42.0762 949.053 41.7148 950.596 41.7148C951.025 41.7148 951.484 41.7539 951.973 41.832C952.48 41.8906 952.881 41.9785 953.174 42.0957Z" fill="#1C4670"/>
<path d="M323.994 97.3438H339.492C342.734 97.3438 345.518 97.832 347.842 98.8086C350.166 99.7852 351.953 101.23 353.203 103.145C354.453 105.059 355.078 107.412 355.078 110.205C355.078 112.412 354.688 114.326 353.906 115.947C353.125 117.568 352.021 118.926 350.596 120.02C349.189 121.113 347.529 121.973 345.615 122.598L343.096 123.887H329.414L329.355 117.529H339.58C341.24 117.529 342.617 117.236 343.711 116.65C344.805 116.064 345.625 115.254 346.172 114.219C346.738 113.184 347.021 112.002 347.021 110.674C347.021 109.248 346.748 108.018 346.201 106.982C345.654 105.928 344.824 105.117 343.711 104.551C342.598 103.984 341.191 103.701 339.492 103.701H332.051V140H323.994V97.3438ZM348.076 140L338.203 120.898L346.729 120.869L356.719 139.59V140H348.076ZM396.416 97.3438V140H388.33L370.195 110.41V140H362.139V97.3438H370.195L388.389 126.963V97.3438H396.416ZM413.203 97.3438V140H405.146V97.3438H413.203ZM436.846 97.3438H452.344C455.586 97.3438 458.369 97.832 460.693 98.8086C463.018 99.7852 464.805 101.23 466.055 103.145C467.305 105.059 467.93 107.412 467.93 110.205C467.93 112.412 467.539 114.326 466.758 115.947C465.977 117.568 464.873 118.926 463.447 120.02C462.041 121.113 460.381 121.973 458.467 122.598L455.947 123.887H442.266L442.207 117.529H452.432C454.092 117.529 455.469 117.236 456.562 116.65C457.656 116.064 458.477 115.254 459.023 114.219C459.59 113.184 459.873 112.002 459.873 110.674C459.873 109.248 459.6 108.018 459.053 106.982C458.506 105.928 457.676 105.117 456.562 104.551C455.449 103.984 454.043 103.701 452.344 103.701H444.902V140H436.846V97.3438ZM460.928 140L451.055 120.898L459.58 120.869L469.57 139.59V140H460.928ZM488.643 140.586C486.24 140.586 484.082 140.195 482.168 139.414C480.254 138.633 478.623 137.549 477.275 136.162C475.947 134.756 474.922 133.125 474.199 131.27C473.496 129.395 473.145 127.383 473.145 125.234V124.062C473.145 121.621 473.496 119.404 474.199 117.412C474.902 115.4 475.898 113.672 477.188 112.227C478.477 110.781 480.02 109.668 481.816 108.887C483.613 108.105 485.596 107.715 487.764 107.715C490.01 107.715 491.992 108.096 493.711 108.857C495.43 109.6 496.865 110.654 498.018 112.021C499.17 113.389 500.039 115.029 500.625 116.943C501.211 118.838 501.504 120.938 501.504 123.242V126.494H476.66V121.162H493.887V120.576C493.848 119.346 493.613 118.223 493.184 117.207C492.754 116.172 492.09 115.352 491.191 114.746C490.293 114.121 489.131 113.809 487.705 113.809C486.553 113.809 485.547 114.062 484.688 114.57C483.848 115.059 483.145 115.762 482.578 116.68C482.031 117.578 481.621 118.652 481.348 119.902C481.074 121.152 480.938 122.539 480.938 124.062V125.234C480.938 126.562 481.113 127.793 481.465 128.926C481.836 130.059 482.373 131.045 483.076 131.885C483.799 132.705 484.658 133.35 485.654 133.818C486.67 134.268 487.822 134.492 489.111 134.492C490.732 134.492 492.197 134.18 493.506 133.555C494.834 132.91 495.986 131.963 496.963 130.713L500.859 134.756C500.195 135.732 499.297 136.67 498.164 137.568C497.051 138.467 495.703 139.199 494.121 139.766C492.539 140.312 490.713 140.586 488.643 140.586ZM526.846 108.301H533.877V139.033C533.877 141.904 533.252 144.336 532.002 146.328C530.771 148.34 529.043 149.863 526.816 150.898C524.59 151.953 522.002 152.48 519.053 152.48C517.783 152.48 516.406 152.305 514.922 151.953C513.457 151.602 512.041 151.045 510.674 150.283C509.326 149.541 508.203 148.574 507.305 147.383L510.791 142.812C511.846 144.043 513.037 144.971 514.365 145.596C515.693 146.24 517.129 146.562 518.672 146.562C520.234 146.562 521.562 146.27 522.656 145.684C523.77 145.117 524.619 144.277 525.205 143.164C525.811 142.07 526.113 140.723 526.113 139.121V115.537L526.846 108.301ZM505.43 124.531V123.916C505.43 121.494 505.723 119.297 506.309 117.324C506.895 115.332 507.734 113.623 508.828 112.197C509.941 110.771 511.279 109.668 512.842 108.887C514.424 108.105 516.201 107.715 518.174 107.715C520.264 107.715 522.021 108.096 523.447 108.857C524.893 109.619 526.084 110.703 527.021 112.109C527.979 113.516 528.721 115.186 529.248 117.119C529.795 119.033 530.215 121.143 530.508 123.447V125.117C530.234 127.363 529.795 129.424 529.189 131.299C528.604 133.174 527.822 134.814 526.846 136.221C525.869 137.607 524.658 138.682 523.213 139.443C521.768 140.205 520.068 140.586 518.115 140.586C516.162 140.586 514.404 140.186 512.842 139.385C511.279 138.584 509.941 137.461 508.828 136.016C507.734 134.57 506.895 132.871 506.309 130.918C505.723 128.965 505.43 126.836 505.43 124.531ZM513.164 123.916V124.531C513.164 125.898 513.301 127.178 513.574 128.369C513.848 129.561 514.268 130.615 514.834 131.533C515.4 132.432 516.113 133.135 516.973 133.643C517.832 134.15 518.857 134.404 520.049 134.404C521.65 134.404 522.959 134.072 523.975 133.408C525.01 132.725 525.791 131.797 526.318 130.625C526.865 129.434 527.217 128.096 527.373 126.611V122.012C527.275 120.84 527.061 119.756 526.729 118.76C526.416 117.764 525.977 116.904 525.41 116.182C524.844 115.459 524.121 114.893 523.242 114.482C522.363 114.072 521.318 113.867 520.107 113.867C518.936 113.867 517.91 114.131 517.031 114.658C516.152 115.166 515.43 115.879 514.863 116.797C514.297 117.715 513.867 118.779 513.574 119.99C513.301 121.201 513.164 122.51 513.164 123.916ZM549.053 108.301V140H541.289V108.301H549.053ZM540.762 100.01C540.762 98.8574 541.152 97.9004 541.934 97.1387C542.734 96.377 543.809 95.9961 545.156 95.9961C546.504 95.9961 547.568 96.377 548.35 97.1387C549.15 97.9004 549.551 98.8574 549.551 100.01C549.551 101.143 549.15 102.09 548.35 102.852C547.568 103.613 546.504 103.994 545.156 103.994C543.809 103.994 542.734 103.613 541.934 102.852C541.152 102.09 540.762 101.143 540.762 100.01ZM573.867 131.328C573.867 130.664 573.691 130.068 573.34 129.541C572.988 129.014 572.324 128.535 571.348 128.105C570.391 127.656 568.984 127.236 567.129 126.846C565.488 126.494 563.975 126.055 562.588 125.527C561.201 125 560.01 124.365 559.014 123.623C558.018 122.861 557.236 121.973 556.67 120.957C556.123 119.922 555.85 118.73 555.85 117.383C555.85 116.074 556.133 114.844 556.699 113.691C557.266 112.52 558.086 111.494 559.16 110.615C560.234 109.717 561.543 109.014 563.086 108.506C564.629 107.979 566.367 107.715 568.301 107.715C570.996 107.715 573.311 108.154 575.244 109.033C577.197 109.912 578.691 111.123 579.727 112.666C580.762 114.189 581.279 115.908 581.279 117.822H573.545C573.545 116.982 573.35 116.221 572.959 115.537C572.588 114.854 572.012 114.307 571.23 113.896C570.449 113.467 569.463 113.252 568.271 113.252C567.197 113.252 566.289 113.428 565.547 113.779C564.824 114.131 564.277 114.59 563.906 115.156C563.535 115.723 563.35 116.348 563.35 117.031C563.35 117.539 563.447 117.998 563.643 118.408C563.857 118.799 564.199 119.16 564.668 119.492C565.137 119.824 565.771 120.127 566.572 120.4C567.393 120.674 568.398 120.938 569.59 121.191C571.953 121.66 574.014 122.285 575.771 123.066C577.549 123.828 578.936 124.844 579.932 126.113C580.928 127.383 581.426 129.004 581.426 130.977C581.426 132.383 581.123 133.672 580.518 134.844C579.912 135.996 579.033 137.002 577.881 137.861C576.729 138.721 575.352 139.395 573.75 139.883C572.148 140.352 570.342 140.586 568.33 140.586C565.42 140.586 562.959 140.068 560.947 139.033C558.936 137.979 557.412 136.65 556.377 135.049C555.342 133.428 554.824 131.748 554.824 130.01H562.236C562.295 131.24 562.627 132.227 563.232 132.969C563.838 133.711 564.6 134.248 565.518 134.58C566.455 134.893 567.441 135.049 568.477 135.049C569.648 135.049 570.635 134.893 571.436 134.58C572.236 134.248 572.842 133.809 573.252 133.262C573.662 132.695 573.867 132.051 573.867 131.328ZM602.314 108.301V113.867H584.15V108.301H602.314ZM589.014 100.508H596.777V130.859C596.777 131.797 596.904 132.52 597.158 133.027C597.412 133.535 597.793 133.877 598.301 134.053C598.809 134.229 599.414 134.316 600.117 134.316C600.625 134.316 601.094 134.287 601.523 134.229C601.953 134.17 602.314 134.111 602.607 134.053L602.637 139.854C601.992 140.068 601.26 140.244 600.439 140.381C599.639 140.518 598.73 140.586 597.715 140.586C595.977 140.586 594.453 140.293 593.145 139.707C591.836 139.102 590.82 138.135 590.098 136.807C589.375 135.459 589.014 133.682 589.014 131.475V100.508ZM615.205 114.775V140H607.471V108.301H614.795L615.205 114.775ZM624.844 108.096L624.727 115.303C624.297 115.225 623.809 115.166 623.262 115.127C622.734 115.088 622.236 115.068 621.768 115.068C620.576 115.068 619.531 115.234 618.633 115.566C617.734 115.879 616.982 116.338 616.377 116.943C615.791 117.549 615.342 118.291 615.029 119.17C614.717 120.029 614.541 121.006 614.502 122.1L612.832 121.895C612.832 119.883 613.037 118.018 613.447 116.299C613.857 114.58 614.453 113.076 615.234 111.787C616.016 110.498 616.992 109.502 618.164 108.799C619.355 108.076 620.723 107.715 622.266 107.715C622.695 107.715 623.154 107.754 623.643 107.832C624.15 107.891 624.551 107.979 624.844 108.096ZM645.557 133.262V118.643C645.557 117.568 645.371 116.641 645 115.859C644.629 115.078 644.062 114.473 643.301 114.043C642.539 113.613 641.572 113.398 640.4 113.398C639.365 113.398 638.457 113.574 637.676 113.926C636.914 114.277 636.328 114.775 635.918 115.42C635.508 116.045 635.303 116.768 635.303 117.588H627.539C627.539 116.279 627.852 115.039 628.477 113.867C629.102 112.676 629.99 111.621 631.143 110.703C632.314 109.766 633.711 109.033 635.332 108.506C636.973 107.979 638.809 107.715 640.84 107.715C643.242 107.715 645.381 108.125 647.256 108.945C649.15 109.746 650.635 110.957 651.709 112.578C652.803 114.199 653.35 116.24 653.35 118.701V132.529C653.35 134.111 653.447 135.469 653.643 136.602C653.857 137.715 654.17 138.682 654.58 139.502V140H646.699C646.328 139.199 646.045 138.184 645.85 136.953C645.654 135.703 645.557 134.473 645.557 133.262ZM646.641 120.693L646.699 125.293H641.807C640.596 125.293 639.531 125.42 638.613 125.674C637.695 125.908 636.943 126.26 636.357 126.729C635.771 127.178 635.332 127.725 635.039 128.369C634.746 128.994 634.6 129.707 634.6 130.508C634.6 131.289 634.775 131.992 635.127 132.617C635.498 133.242 636.025 133.74 636.709 134.111C637.412 134.463 638.232 134.639 639.17 134.639C640.537 134.639 641.729 134.365 642.744 133.818C643.76 133.252 644.551 132.568 645.117 131.768C645.684 130.967 645.986 130.205 646.025 129.482L648.252 132.822C647.979 133.623 647.568 134.473 647.021 135.371C646.475 136.27 645.771 137.109 644.912 137.891C644.053 138.672 643.018 139.316 641.807 139.824C640.596 140.332 639.189 140.586 637.588 140.586C635.537 140.586 633.701 140.176 632.08 139.355C630.459 138.535 629.18 137.412 628.242 135.986C627.305 134.561 626.836 132.939 626.836 131.123C626.836 129.443 627.148 127.959 627.773 126.67C628.398 125.381 629.326 124.297 630.557 123.418C631.787 122.52 633.311 121.846 635.127 121.396C636.963 120.928 639.062 120.693 641.426 120.693H646.641ZM675.322 108.301V113.867H657.158V108.301H675.322ZM662.021 100.508H669.785V130.859C669.785 131.797 669.912 132.52 670.166 133.027C670.42 133.535 670.801 133.877 671.309 134.053C671.816 134.229 672.422 134.316 673.125 134.316C673.633 134.316 674.102 134.287 674.531 134.229C674.961 134.17 675.322 134.111 675.615 134.053L675.645 139.854C675 140.068 674.268 140.244 673.447 140.381C672.646 140.518 671.738 140.586 670.723 140.586C668.984 140.586 667.461 140.293 666.152 139.707C664.844 139.102 663.828 138.135 663.105 136.807C662.383 135.459 662.021 133.682 662.021 131.475V100.508ZM688.682 108.301V140H680.918V108.301H688.682ZM680.391 100.01C680.391 98.8574 680.781 97.9004 681.562 97.1387C682.363 96.377 683.438 95.9961 684.785 95.9961C686.133 95.9961 687.197 96.377 687.979 97.1387C688.779 97.9004 689.18 98.8574 689.18 100.01C689.18 101.143 688.779 102.09 687.979 102.852C687.197 103.613 686.133 103.994 684.785 103.994C683.438 103.994 682.363 103.613 681.562 102.852C680.781 102.09 680.391 101.143 680.391 100.01ZM694.688 124.473V123.857C694.688 121.533 695.02 119.395 695.684 117.441C696.348 115.469 697.314 113.76 698.584 112.314C699.854 110.869 701.406 109.746 703.242 108.945C705.078 108.125 707.168 107.715 709.512 107.715C711.895 107.715 714.004 108.125 715.84 108.945C717.695 109.746 719.258 110.869 720.527 112.314C721.797 113.76 722.764 115.469 723.428 117.441C724.092 119.395 724.424 121.533 724.424 123.857V124.473C724.424 126.777 724.092 128.916 723.428 130.889C722.764 132.842 721.797 134.551 720.527 136.016C719.258 137.461 717.705 138.584 715.869 139.385C714.033 140.186 711.934 140.586 709.57 140.586C707.227 140.586 705.127 140.186 703.271 139.385C701.416 138.584 699.854 137.461 698.584 136.016C697.314 134.551 696.348 132.842 695.684 130.889C695.02 128.916 694.688 126.777 694.688 124.473ZM702.422 123.857V124.473C702.422 125.859 702.559 127.158 702.832 128.369C703.105 129.58 703.525 130.645 704.092 131.562C704.658 132.48 705.391 133.203 706.289 133.73C707.207 134.238 708.301 134.492 709.57 134.492C710.82 134.492 711.895 134.238 712.793 133.73C713.691 133.203 714.424 132.48 714.99 131.562C715.576 130.645 716.006 129.58 716.279 128.369C716.553 127.158 716.689 125.859 716.689 124.473V123.857C716.689 122.49 716.553 121.211 716.279 120.02C716.006 118.809 715.576 117.744 714.99 116.826C714.424 115.889 713.682 115.156 712.764 114.629C711.865 114.082 710.781 113.809 709.512 113.809C708.262 113.809 707.188 114.082 706.289 114.629C705.391 115.156 704.658 115.889 704.092 116.826C703.525 117.744 703.105 118.809 702.832 120.02C702.559 121.211 702.422 122.49 702.422 123.857ZM737.637 115.068V140H729.902V108.301H737.168L737.637 115.068ZM736.406 123.008H734.121C734.141 120.703 734.453 118.613 735.059 116.738C735.664 114.863 736.514 113.252 737.607 111.904C738.721 110.557 740.039 109.521 741.562 108.799C743.086 108.076 744.785 107.715 746.66 107.715C748.184 107.715 749.561 107.93 750.791 108.359C752.021 108.789 753.076 109.473 753.955 110.41C754.854 111.348 755.537 112.578 756.006 114.102C756.494 115.605 756.738 117.461 756.738 119.668V140H748.945V119.609C748.945 118.164 748.73 117.021 748.301 116.182C747.891 115.342 747.285 114.746 746.484 114.395C745.703 114.043 744.736 113.867 743.584 113.867C742.393 113.867 741.348 114.111 740.449 114.6C739.57 115.068 738.828 115.723 738.223 116.562C737.637 117.402 737.188 118.369 736.875 119.463C736.562 120.557 736.406 121.738 736.406 123.008Z" fill="#FFA229"/>
<defs>
<linearGradient id="paint0_linear_80_1560" x1="983.211" y1="711.795" x2="985.03" y2="604.181" gradientUnits="userSpaceOnUse">
<stop stop-color="#FFD1AE"/>
<stop offset="1" stop-color="#F9AC78"/>
</linearGradient>
<linearGradient id="paint1_linear_80_1560" x1="968.591" y1="651.597" x2="943.864" y2="643.699" gradientUnits="userSpaceOnUse">
<stop stop-color="#B7B7B7"/>
<stop offset="0.59" stop-color="#E4E4E4"/>
<stop offset="1" stop-color="white"/>
</linearGradient>
</defs>
</svg>
