<svg width="1080" height="1080" viewBox="0 0 1080 1080" fill="none" xmlns="http://www.w3.org/2000/svg">
<rect width="1080" height="1080" fill="white"/>
<path d="M801.869 582.419C801.869 578.031 802.726 573.685 804.391 569.63C806.056 565.576 808.497 561.892 811.573 558.788C814.649 555.685 818.302 553.223 822.321 551.544C826.341 549.864 830.649 549 835 549H231.131C222.344 549 213.917 552.521 207.704 558.788C201.491 565.056 198 573.556 198 582.419C197.979 586.822 198.821 591.185 200.476 595.258C202.132 599.331 204.569 603.034 207.647 606.155C210.726 609.275 214.385 611.751 218.415 613.441C222.445 615.13 226.767 616 231.131 616H835C830.636 616 826.314 615.13 822.284 613.441C818.254 611.751 814.595 609.275 811.516 606.155C808.438 603.034 806.001 599.331 804.345 595.258C802.69 591.185 801.848 586.822 801.869 582.419Z" fill="#E7F2FE"/>
<path d="M935.234 656.56H900.663C895.279 656.56 890.115 654.426 886.305 650.627C882.495 646.828 880.35 641.673 880.342 636.296C880.346 633.632 879.824 630.994 878.807 628.531C877.789 626.069 876.295 623.832 874.411 621.946C872.526 620.061 870.288 618.566 867.825 617.546C865.361 616.525 862.72 616 860.053 616H315.031C320.415 616.008 325.575 618.151 329.379 621.956C333.183 625.761 335.32 630.919 335.32 636.296C335.311 641.668 333.171 646.817 329.368 650.616C325.565 654.414 320.409 656.552 315.031 656.56H278.798C268.779 656.56 259.17 660.533 252.082 667.606C244.995 674.679 241.008 684.273 241 694.28C241.008 704.287 244.995 713.881 252.082 720.954C259.17 728.027 268.779 732 278.798 732H935.234C945.25 732 954.856 728.026 961.939 720.952C969.021 713.878 973 704.284 973 694.28C973 684.276 969.021 674.682 961.939 667.608C954.856 660.534 945.25 656.56 935.234 656.56Z" fill="#E7F2FE"/>
<path d="M943.64 782H152C163.494 782.008 174.515 786.544 182.639 794.61C190.764 802.676 195.328 813.613 195.328 825.016C195.328 836.416 190.763 847.349 182.637 855.41C174.512 863.471 163.491 868 152 868H943.64C955.134 868 966.158 863.472 974.289 855.412C982.42 847.352 986.992 836.419 987 825.016C987 813.607 982.432 802.666 974.3 794.599C966.169 786.532 955.14 782 943.64 782Z" fill="#E7F2FE"/>
<path d="M890.212 519.894H871.934C867.907 519.885 864.048 518.305 861.204 515.5C858.359 512.695 856.762 508.894 856.762 504.931C856.762 500.971 855.163 497.173 852.318 494.373C849.472 491.573 845.613 490 841.589 490H405.204C401.178 490 397.315 491.572 394.465 494.371C391.614 497.171 390.008 500.968 390 504.931C390 508.899 391.602 512.705 394.453 515.511C397.305 518.317 401.172 519.894 405.204 519.894H468.903C472.825 519.894 476.587 521.427 479.36 524.156C482.134 526.885 483.692 530.587 483.692 534.447C483.692 536.358 483.309 538.25 482.566 540.016C481.823 541.782 480.733 543.386 479.36 544.737C477.987 546.089 476.357 547.161 474.563 547.892C472.768 548.624 470.845 549 468.903 549H890.212C892.154 549 894.077 548.624 895.871 547.892C897.665 547.161 899.295 546.089 900.668 544.737C902.042 543.386 903.131 541.782 903.874 540.016C904.617 538.25 905 536.358 905 534.447C905 530.587 903.442 526.885 900.668 524.156C897.895 521.427 894.134 519.894 890.212 519.894Z" fill="#E7F2FE"/>
<path d="M151.783 907.983H176.169C178.834 907.983 181.473 908.514 183.936 909.544C186.398 910.575 188.635 912.086 190.52 913.99C192.404 915.894 193.899 918.155 194.919 920.643C195.939 923.132 196.464 925.798 196.464 928.492C196.464 931.188 196.99 933.857 198.012 936.347C199.034 938.838 200.531 941.1 202.419 943.005C204.307 944.909 206.548 946.419 209.014 947.448C211.48 948.477 214.123 949.004 216.79 949H876.705C882.088 949 887.25 946.839 891.056 942.993C894.862 939.147 897 933.931 897 928.492C897 925.798 896.475 923.132 895.455 920.643C894.435 918.155 892.94 915.894 891.056 913.99C889.171 912.086 886.934 910.575 884.472 909.544C882.009 908.514 879.37 907.983 876.705 907.983H791.499C786.258 907.975 781.234 905.865 777.531 902.116C773.828 898.368 771.748 893.288 771.748 887.992C771.748 882.695 773.828 877.615 777.531 873.867C781.234 870.119 786.258 868.009 791.499 868H151.783C146.537 868 141.505 870.106 137.794 873.855C134.084 877.605 132 882.69 132 887.992C132 893.294 134.084 898.379 137.794 902.128C141.505 905.877 146.537 907.983 151.783 907.983Z" fill="#E7F2FE"/>
<path d="M861.198 757C861.207 750.372 863.823 744.018 868.472 739.332C873.121 734.645 879.425 732.009 886 732H67.8017C61.2239 732 54.9155 734.634 50.2643 739.322C45.613 744.011 43 750.37 43 757C43 763.63 45.613 769.989 50.2643 774.678C54.9155 779.366 61.2239 782 67.8017 782H886C879.422 782 873.114 779.366 868.463 774.678C863.811 769.989 861.198 763.63 861.198 757Z" fill="#E7F2FE"/>
<path d="M1073 989C1073 998.961 843.967 1007 561.5 1007C279.033 1007 50 998.961 50 989C50 979.039 279.001 971 561.5 971C843.999 971 1073 978.944 1073 989Z" fill="#E7F2FE"/>
<path d="M757 1013.96V1045H746.916L744.403 1039.18L738.041 1045H702C702 1045 703.368 1039.34 705.181 1038.64C706.994 1037.94 731.043 1025.92 732.061 1024.61C733.079 1023.31 738.423 1011 738.423 1011L757 1013.96Z" fill="#133A50"/>
<path d="M694 1013.96V1045H683.648L681.092 1039.18L677.857 1045H638C638 1045 639.359 1039.34 641.235 1038.64C643.111 1037.94 667.569 1025.92 668.572 1024.61C669.575 1023.31 675.042 1011 675.042 1011L694 1013.96Z" fill="#133A50"/>
<path d="M719.971 423.92C719.773 431.223 721.169 438.481 724.062 445.186C725.962 450.486 744 456.626 744 456.626C744 456.626 689.5 517.386 668.467 516.998C647.433 516.61 677.518 459.697 677.518 459.697C677.518 459.697 686.343 454.332 688.276 448.547C689.847 442.362 690.924 436.061 691.497 429.705L716.17 398L719.971 423.92Z" fill="#FEC4AD"/>
<path d="M679.906 365C676.373 367.276 670.357 372.115 670.039 375.673C669.251 382.341 668.91 389.055 669.02 395.769C669.529 401.89 669.784 417.659 670.803 424.775C671.821 431.89 672.712 441.569 674.399 442.851C676.086 444.133 693.019 444.614 696.679 442.851C700.34 441.088 717.623 423.621 716.891 408.236C716.891 408.236 723.575 411.441 728.891 397.692C730.259 394.102 718.355 380.384 716.891 376.186C713.326 365.994 692.892 368.814 687.322 368.045C684.563 367.979 681.924 366.895 679.906 365Z" fill="#FEC4AD"/>
<path d="M670.011 375.131C670.011 375.131 672.033 370.225 676.047 372.304C682.087 374.669 688.561 375.634 695.007 375.131C699.35 374.677 703.607 373.583 707.647 371.882C707.647 371.882 707.647 381.433 709.385 384C711.123 386.567 715.168 389.685 715.421 392.772C715.567 394.827 715.567 396.89 715.421 398.945C715.421 398.945 719.434 393.551 722.689 394.559C725.944 395.566 725.849 401.284 722.689 403.85C720.629 405.478 718.453 406.945 716.179 408.236C716.192 410.831 716.435 413.419 716.906 415.968C717.664 419.217 719.181 425 719.181 425C719.181 425 726.197 405.507 731.979 397.418C737.762 389.328 740.512 372.922 729.199 366.716C729.093 362.239 727.448 357.945 724.556 354.597C721.663 351.248 717.71 349.062 713.398 348.426C697.598 345.567 683.82 349.693 677.026 347.386C673.899 346.598 670.984 345.099 668.494 343C668.494 343 662.743 354.858 665.998 362.493C667.895 366.495 669.246 370.748 670.011 375.131Z" fill="#7B2B1A"/>
<path d="M752.439 656C758.222 696.443 761.413 737.222 761.992 778.08C762.246 837.932 756.515 1026 756.515 1026H731.041C731.041 1026 707.733 843.907 698.148 805.42C688.564 766.932 670 648 670 648L752.439 656Z" fill="#133A50"/>
<path d="M699.084 717.471C699.084 717.471 700.647 814.91 699.69 832.936C698.733 850.961 693.31 1025.73 693.31 1025.73C693.31 1025.73 669.291 1026.34 669.291 1025.73C669.291 1025.12 646.675 841.884 643.773 797.719C640.87 753.554 642.561 694.795 638.669 688.669C634.778 682.543 649.132 648 649.132 648L683.103 656.532L699.084 717.471Z" fill="#133A50"/>
<path d="M733.98 450L767.874 468.43C767.874 468.43 776.459 503.109 775.981 517.212C775.502 531.314 756.097 671.379 756.097 671.379C756.097 671.379 707.586 677.276 683.203 671.379C658.819 665.481 642 660.033 642 660.033C642 660.033 650.426 523.366 652.341 509.391C654.256 495.417 659.043 467.051 659.043 467.051L678.192 457.147L688.756 465.353L733.98 450Z" fill="#396283"/>
<path d="M682 467.705L686.249 481.485L693.736 482L705 465.644L688.576 465L682 467.705Z" fill="#133A50"/>
<path d="M728.718 442L689 464.772L705.073 479L733 449.196L728.718 442Z" fill="#AEBFDE"/>
<path d="M689 465.372L675 476L677.887 457.33L682.453 452L689 465.372Z" fill="#AEBFDE"/>
<path d="M739 536L706 532.914V526L739 529.086V536Z" fill="#AEBFDE"/>
<path d="M701.134 391.882C701.134 390.616 696.826 390.116 693.795 390.083C689.524 389.84 685.239 390.131 681.034 390.949C679.247 391.948 679.215 392.815 678.354 392.781C677.492 392.748 677.524 391.915 675.737 390.916C673.51 390.137 671.143 389.897 668.814 390.216C667.437 390.124 666.054 390.214 664.698 390.482C663.805 390.749 663.965 392.015 664.124 394.047C664.363 396.527 664.855 398.973 665.592 401.343C666.517 404.308 667.57 405.208 671.047 405.141C676.088 405.141 675.801 399.977 676.471 397.879C677.141 395.78 677.556 395.48 678.322 395.48C679.087 395.48 679.566 395.78 680.204 397.912C680.842 400.044 680.906 404.742 685.883 405.641C692.264 406.807 695.454 405.075 696.986 401.277C698.996 396.146 698.709 396.079 699.251 395.646C699.793 395.213 701.038 395.047 701.134 394.347C701.242 393.529 701.242 392.7 701.134 391.882ZM674.493 399.678C673.951 402.376 673.472 404.308 670.186 404.275C666.9 404.242 666.453 401.976 665.975 400.177C665.176 397.977 665.176 395.548 665.975 393.348C666.613 392.548 666.964 392.315 670.728 392.548C674.493 392.781 674.589 392.548 674.972 394.214C675.092 396.05 674.93 397.894 674.493 399.678ZM696.316 399.444C696.019 401.132 695.111 402.634 693.779 403.64C692.448 404.645 690.797 405.076 689.169 404.841C683.235 404.841 682.406 402.443 681.927 399.744C681.537 397.953 681.419 396.11 681.576 394.28C681.991 392.681 683.267 392.615 687.032 392.415C690.796 392.215 695.837 392.082 696.443 392.881C696.855 393.926 697.055 395.047 697.034 396.177C697.012 397.306 696.767 398.418 696.316 399.444ZM718.968 395.613C718.968 395.613 716.416 391.315 713.895 391.182C708.535 390.849 697.592 390.316 697.592 390.316L700.782 394.747L713.544 395.48C713.868 395.333 714.213 395.242 714.565 395.213C715.331 395.213 716.831 397.079 716.831 397.079C717.469 396.465 718.203 395.97 719 395.613H718.968Z" fill="#21295B"/>
<path d="M381.037 922.126C383.546 894.642 384.213 870.319 382.18 858.891C373.163 810.116 355 699 355 699L415.33 702.192C415.33 702.192 417.489 856.178 417.997 861.796C419.299 875.298 410.758 925.446 406.503 959.665C403.328 985.201 403.899 1004.13 405.169 1008.63C408.154 1019.1 430 1034.9 430 1034.9C429.415 1036.69 428.355 1038.29 426.934 1039.52C425.513 1040.76 423.784 1041.57 421.935 1041.89C417.204 1042.98 406.058 1035.51 402.216 1033.72C395.366 1030.1 389.206 1025.29 384.022 1019.52C390.722 1001.19 378.052 955.004 381.037 922.126Z" fill="#FEC1B2"/>
<path d="M384 1019.31C385.365 1018.9 386.82 1018.9 388.187 1019.3C389.553 1019.71 390.773 1020.5 391.696 1021.59C397.819 1027.48 404.752 1032.47 412.284 1036.39C423.796 1041.37 430.434 1034.79 430.434 1034.79C434.948 1036.62 439.294 1038.85 443.422 1041.44C452.465 1046.96 436.495 1049.82 414.561 1046.74C409.751 1046.06 395.897 1038.93 394.198 1038.84C392.498 1038.74 391.472 1044.29 390.029 1044.29C387.495 1044.29 387.078 1044.81 387.078 1044.81L384.257 1030.55L384 1019.31Z" fill="#133A50"/>
<path d="M336.151 916.129C341.828 889.07 347.822 862.074 347.029 850.464C343.858 800.855 335.992 741.043 337.515 692.393C337.927 678.799 394 701.093 394 701.093C394 701.093 378.999 854.622 378.903 860.219C378.618 873.813 365.424 922.782 357.242 956.335C351.089 981.443 349.471 1000.28 350.233 1004.89C351.977 1015.67 371.831 1033.96 371.831 1033.96C371.037 1035.68 369.794 1037.15 368.235 1038.21C366.676 1039.27 364.86 1039.88 362.982 1039.98C358.193 1040.52 348.012 1031.69 344.397 1029.52C338.019 1025.11 332.468 1019.6 328 1013.24C336.595 995.964 329.364 948.434 336.151 916.129Z" fill="#FEC1B2"/>
<path d="M327.952 1013.11C329.345 1012.86 330.777 1013.04 332.074 1013.62C333.37 1014.19 334.474 1015.15 335.25 1016.35C340.585 1022.99 346.813 1028.82 353.748 1033.67C364.504 1040 371.802 1034.19 371.802 1034.19C376.025 1036.56 380.038 1039.31 383.795 1042.4C392.045 1048.9 375.99 1050 354.826 1044.32C350.194 1043.09 337.407 1034.28 335.789 1033.99C334.171 1033.7 332.616 1039.12 331.093 1038.96C328.586 1038.67 328.111 1039.12 328.111 1039.12L327 1024.47L327.952 1013.11Z" fill="#133A50"/>
<path d="M408.362 738.335C407.265 738.848 422.067 819.806 420.939 820.095C383.724 830.25 330.418 817.371 327 817.532C332.127 797.092 336.513 725.936 331.579 705.817C323.001 670.864 335.159 640.461 352.218 623C369.277 605.54 398.558 609.352 398.558 609.352L406.33 660.612C412.447 672.278 416.019 685.094 416.811 698.224C417.037 705.433 416.488 719.689 415.489 735.323C413.102 736.22 410.748 737.31 408.362 738.335Z" fill="#133A50"/>
<path d="M418 500.03C394.859 505.031 366.068 489.835 347 474.126L354.829 447.165L388.04 401C394.046 401.067 399.818 403.369 404.264 407.47C408.709 411.571 411.518 417.185 412.16 423.249C415.916 445.947 409.003 463.771 417.242 496.023C417.558 497.497 417.811 498.716 418 500.03Z" fill="#382728"/>
<path d="M526 508.676C529.954 506.001 533.185 502.393 535.403 498.172C536.24 496.566 539.139 494.189 539.396 491.748C539.876 488.429 540.797 485.188 542.133 482.111C543.357 479.927 544.838 476.811 546.481 477.004C548.123 477.197 548.22 478.61 547.576 480.216C547.157 482.775 547.222 485.39 547.769 487.925C548.091 488.632 552.181 485.645 554.789 482.368C557.397 479.092 559.201 473.535 560.65 471.672C562.099 469.809 564.45 472.411 564.45 472.411C564.45 472.411 567.155 472.732 567.96 474.081C568.834 475.431 569.526 476.888 570.021 478.417C570.407 479.831 569.441 481.212 570.246 482.529C570.738 483.284 571 484.166 571 485.067C571 485.967 570.738 486.849 570.246 487.604C569.022 489.531 559.78 501.32 557.88 503.279C555.98 505.239 540.33 513.59 534.695 518.954C534.695 518.954 533.696 519.597 530.702 516.063C528.811 513.821 527.23 511.336 526 508.676Z" fill="#FEC1B2"/>
<path d="M392.544 500.004C382.026 499.687 374.939 519.03 384.505 533.998C394.07 548.966 439.639 571.036 468.938 574.81C471.703 575.159 473.451 575.349 479.266 572.368C499.922 561.84 528.204 535.266 546 517.318C539.709 514.482 534.393 509.861 530.715 504.031C530.715 504.031 478.218 544.526 469.288 545.255C469.288 545.255 454.924 541.292 427.786 520.775C408.179 505.902 403.762 500.321 392.544 500.004Z" fill="#FFB200"/>
<path d="M390.223 499.973C386.654 499.973 380.575 495.031 385.882 483.413L363.529 476C360.703 484.367 356.812 492.338 351.951 499.716C345.519 508.478 373.242 562.169 389.291 564.768C405.34 567.368 411 547.246 411 547.246L399.583 507.708L390.223 499.973Z" fill="#FEC1B2"/>
<path d="M394 478.621C388.814 482.844 383.844 497.985 384.029 506.118L351 513C355.19 500.58 358.734 487.945 361.619 475.149C364.891 458.882 361.619 452 361.619 452L394 478.621Z" fill="#FEC1B2"/>
<path d="M405.72 417.153C408.828 421.764 410.694 427.119 411.133 432.687C411.451 435.917 409.955 439.437 412.024 442.376C414.094 445.315 421.194 450.418 421.926 452.065C422.658 453.712 417.723 457.523 417.246 458.782C416.768 460.042 414.858 470.215 414.062 475.383C413.266 480.55 401.74 480.808 394.194 478.935C386.133 476.232 378.416 472.568 371.206 468.019C366.908 465.468 360.667 451.451 360.667 451.451L355 424.225C356.538 419.718 359.441 415.819 363.296 413.087C367.15 410.355 371.758 408.929 376.46 409.014C393.43 408.788 401.262 411.307 405.72 417.153Z" fill="#FEC1B2"/>
<path d="M377.944 453.957C374.133 454.759 371.314 476.416 377.304 490.758C359.43 496.244 350.782 490.758 337.585 484.02C333.004 477.411 326.758 428.097 347.547 410.578C382.237 381.317 402 412.279 402 412.279C402 412.279 394.921 446.834 377.944 453.957Z" fill="#382728"/>
<path d="M360.823 812.262C352.279 796.362 338.083 700.195 339.047 684.485C340.588 658.726 355.106 643.716 375.404 637.419C391.463 632.459 415.745 642.094 415.745 642.094L422.907 681.051C422.907 681.051 439.287 770.38 446 810.768C444.394 811.69 389.633 830.071 360.823 812.262Z" fill="#133A50"/>
<path d="M354.036 499C362.128 502.593 369.371 507.814 375.301 514.329C385.286 525.242 399.16 538.683 402.758 537.115C406.357 535.547 397.118 505.336 390.667 500.6L401.721 504.152C401.721 504.152 411.284 529.754 416.438 538.491C421.593 547.227 429.405 559.004 428.984 570.493C428.562 581.982 421.366 598.335 422.5 608.16C423.635 617.985 422.241 668.548 422.241 668.548C406.689 673.208 390.479 675.369 374.231 674.949C349.4 673.861 334.975 668.9 327 673.861C327 673.861 338.443 632.482 341.393 608.32C343.533 590.591 337.665 573.853 333.321 554.236C328.977 534.619 323.92 523.706 330.631 513.625C337.341 503.544 354.036 499 354.036 499Z" fill="#FFB200"/>
<path d="M381.996 588.169C359.978 566.043 345.79 538.129 334.797 509C333.192 510.4 331.775 512.001 330.579 513.764C323.964 523.836 328.949 534.772 333.231 554.34C337.514 573.909 343.298 590.663 341.188 608.377C338.28 632.518 327 673.862 327 673.862C334.861 668.906 349.082 673.862 373.56 674.949C389.576 675.368 405.555 673.209 420.886 668.554C420.886 668.554 421.142 620.592 420.886 603.677C405.995 597.442 393.532 599.776 381.996 588.169Z" fill="#DE9B00"/>
<path d="M399.359 409C401.636 412.213 402.903 416.055 402.995 420.02C403.086 423.984 401.997 427.883 399.871 431.201C395.425 437.784 388.668 442.367 381 444" stroke="#382728" stroke-width="0.22" stroke-miterlimit="10"/>
<path d="M484.736 595.227C489.792 595.392 494.809 594.315 499.317 592.096C501.034 591.282 504.955 591.095 506.705 589.248C509.179 586.797 511.992 584.69 515.065 582.986C517.462 581.922 520.67 580.231 521.934 581.39C523.198 582.548 522.452 583.738 520.832 584.771C518.871 586.611 517.298 588.801 516.199 591.22C516.004 592.002 521.383 592.002 525.628 590.875C529.873 589.748 534.863 586.242 537.293 585.585C539.723 584.927 540.047 588.434 540.047 588.434C540.047 588.434 542.153 590.343 541.991 591.94C541.882 593.578 541.566 595.197 541.051 596.761C540.468 598.17 538.816 598.702 538.654 600.298C538.595 601.223 538.257 602.11 537.681 602.85C537.105 603.591 536.316 604.151 535.413 604.462C533.21 605.307 517.981 609.471 515.13 609.941C512.278 610.41 493.809 607.906 485.676 608.939C485.676 608.939 484.412 608.939 484.056 604.149C483.883 601.159 484.112 598.16 484.736 595.227Z" fill="#FEC1B2"/>
<path d="M349.692 502.469C338.837 499.83 327.211 508.358 326.023 527.215C324.834 546.073 370.729 580.216 393.467 601.776C395.619 603.804 396.968 604.994 403.808 606.185C432.431 611.081 461.307 614.358 490.298 616C490.298 616 490.908 606.636 492 595.051C492 595.051 429.213 586.62 411.292 575.453C411.292 575.453 398.445 567.28 387.429 546.491C375.129 523.515 364.883 506.17 349.692 502.469Z" fill="#FFB200"/>
<path d="M762.309 695C762.309 695 759.218 703.744 758.094 706.149C756.97 708.555 766.277 712 766.277 712L770 701.338L762.309 695Z" fill="#FEC4AD"/>
<path d="M840 717H706V820H840V717Z" fill="#1D567A"/>
<g style="mix-blend-mode:multiply">
<path d="M840 749.157L771.302 761L706 749.157V721H840V749.157Z" fill="#CFCFCF"/>
</g>
<path d="M840 745.158L771.302 757L706 745.158V717H840V745.158Z" fill="#1D567A"/>
<path d="M746 721.49C746 721.49 754.641 707.805 758.207 705.796C762.801 703.276 785.48 703.531 787.761 705.796C790.042 708.06 800 722 800 722" stroke="#364469" stroke-width="1.42" stroke-miterlimit="10"/>
<path d="M780 746H762V775H780V746Z" fill="#133A50"/>
<path d="M772.073 679L768.371 689.117L763 694.926L764.305 703.989L764.821 715L781.177 712.957C782.47 710.101 783.094 706.96 782.997 703.798C782.818 699.615 782.91 695.425 783.27 691.255C783.695 688.638 785 681.043 785 681.043L772.073 679Z" fill="#FEC4AD"/>
<path d="M767.63 684.883L788.757 687C788.757 687 796.124 607.874 795.998 603.832C795.873 599.791 797.033 507.803 786.281 486.506C777.535 469.25 764.025 465.434 752.615 469.475C741.204 473.516 746 500.298 746 500.298L763.367 604.538L767.63 684.883Z" fill="#396283"/>
<path d="M778.744 669.033C775.057 669.821 771.236 669.097 768 667L768.878 684.8L789.275 687L791 667C786.914 667.567 782.829 668.233 778.744 669.033Z" fill="#AEBFDE"/>
<path d="M518.721 580C517.881 582.256 517.304 584.584 517 586.946L522.401 589L526.519 586.524L533 586.946L518.721 580Z" fill="#FEC4AD"/>
<path d="M544.971 585.417L532.717 586.669L523.965 584L520.272 586.669L507 602.586L522.914 610H530.999C533.184 607.338 535.815 605.106 538.765 603.409C541.597 602.487 550 600.114 550 600.114L544.971 585.417Z" fill="#FEC4AD"/>
<path d="M535 585.928L543.089 605C543.089 605 636.69 584.307 640.221 581.542C643.752 578.776 698 513.963 698 513.963C698 513.963 693.891 482.399 682.111 475.216C675.575 471.008 668.061 468.524 660.283 468L613.996 551.026L535 585.928Z" fill="#396283"/>
<path d="M554.048 578L535 586.293L543 605C543 605 550.365 603.41 561 601.009C558.608 593.381 556.291 585.711 554.048 578Z" fill="#AEBFDE"/>
<path d="M686.524 482C686.524 482 677.715 579.753 676.142 590.84C674.57 601.928 686.524 614 686.524 614C686.524 614 696.349 599.386 696.939 594.939C697.528 590.491 693.664 482.604 693.664 482.604L686.524 482Z" fill="#133A50"/>
<path d="M960.835 990.645C963.38 970.458 988.131 940.194 988.969 920.008C989.806 899.821 973.629 896.451 973.629 896.451C973.629 896.451 975.047 864.661 963.38 850.896C954.615 840.437 944.624 845.969 944.624 845.969C944.624 845.969 931.25 798.284 907.112 809.792C885.778 819.901 913.074 851.85 914.782 856.078C916.49 860.306 901.601 861.927 911.946 884.403C917.618 896.737 934.505 906.656 934.505 906.656C934.505 906.656 922.839 918.736 929.381 931.07C939.049 949.222 951.553 977.325 951.553 995L960.835 990.645Z" fill="#53AAC4"/>
<path d="M932 854C932 854 948.337 873.747 958.258 951.645C966.394 1015.46 967.022 1029 967.022 1029L974 1013.19C974 1013.19 958.258 883.348 932 854Z" fill="#4894AB"/>
<path d="M991.417 821.533C1007.49 781.838 1015.24 737.93 999.069 744.695C975.086 754.714 975.246 818.981 975.246 818.981C975.246 818.981 959.943 832.51 954.832 875.557C953.964 882.928 953.288 891.511 952.774 901.084C944.769 901.818 938.307 911.583 940.397 940.653C941.844 960.756 957.404 1030 957.404 1030C957.404 1030 959.107 1008.91 979.522 962.479C999.937 916.05 984.602 905.903 984.602 905.903C1002.96 839.339 991.417 821.533 991.417 821.533Z" fill="#84F9FF"/>
<path d="M954 989.838C960.156 913.447 990 785 990 785C990 785 964.41 918.525 955.289 1009L954 989.838Z" fill="#72E2E8"/>
<path d="M954.041 966.109C957.973 951.604 956.183 932.856 958.453 921.961C960.722 911.067 969.289 914.677 969.289 914.677C969.289 914.677 968.938 898.335 976.45 888.169C978.115 885.385 980.824 883.366 983.987 882.553C987.149 881.74 990.507 882.199 993.329 883.83C993.329 883.83 1001.45 866.38 1015.45 862.643C1029.45 858.906 1035.46 872.144 1023.89 884.496L1012.32 897.005C1012.32 897.005 1021.91 898.905 1021.17 912.207C1020.44 925.508 998.795 926.585 998.795 926.585C998.795 926.585 1009.54 934.819 996.589 944.922C983.643 955.025 973.157 958.35 966.061 972C966.125 972 953.178 969.34 954.041 966.109Z" fill="#61C3E2"/>
<path d="M956 985.213C964.63 953.577 979.235 923.955 999 898C999 898 963.353 949.671 959.964 999L956 985.213Z" fill="#53AAC4"/>
<path d="M1011 960H919V966.901H924.576L935.567 1043H994.465L1005.46 966.901H1011V960Z" fill="#43899E"/>
<path d="M344.247 289.623L346.994 361.582C347.059 363.204 346.568 364.798 345.603 366.1C344.638 367.401 343.257 368.331 341.692 368.733L297.385 380.31C296.352 380.58 295.392 381.08 294.576 381.773C293.761 382.466 293.112 383.335 292.676 384.314C292.241 385.293 292.03 386.358 292.06 387.43C292.09 388.502 292.36 389.554 292.849 390.507C294.019 393.133 295.719 395.486 297.841 397.418C299.964 399.35 302.463 400.818 305.18 401.731C305.18 401.731 283.202 405.931 272.118 394.868C271.206 394.087 270.122 393.534 268.956 393.255C267.79 392.977 266.574 392.98 265.41 393.265L202.257 410.741C200.586 411.207 198.804 411.04 197.248 410.271C195.693 409.502 194.474 408.186 193.823 406.573L159.484 323.198C159.104 322.218 158.945 321.166 159.017 320.117C159.089 319.068 159.39 318.048 159.899 317.13C160.409 316.211 161.114 315.416 161.964 314.802C162.814 314.188 163.789 313.77 164.818 313.578L335.91 283.114C336.89 282.936 337.897 282.967 338.865 283.206C339.833 283.444 340.74 283.885 341.527 284.5C342.313 285.114 342.962 285.888 343.431 286.77C343.9 287.653 344.178 288.625 344.247 289.623Z" stroke="#FF4D52" stroke-miterlimit="10"/>
<path d="M235.484 370C234.14 369.967 232.853 369.463 231.855 368.58C230.857 367.696 230.215 366.491 230.045 365.184C229.875 363.876 230.188 362.552 230.928 361.452C231.668 360.351 232.785 359.546 234.078 359.184C234.547 359.061 235.03 358.999 235.516 359C236.86 359.033 238.147 359.537 239.145 360.42C240.143 361.304 240.785 362.509 240.955 363.816C241.125 365.124 240.812 366.448 240.072 367.548C239.332 368.649 238.215 369.454 236.922 369.816C236.453 369.937 235.97 369.999 235.484 370Z" fill="#FF4D52"/>
<path d="M269.992 360C268.666 359.993 267.38 359.586 266.331 358.842C265.283 358.098 264.531 357.058 264.193 355.883C263.994 355.187 263.949 354.462 264.058 353.75C264.167 353.038 264.43 352.353 264.83 351.735C265.358 350.908 266.112 350.221 267.017 349.742C267.922 349.263 268.947 349.007 269.992 349C271.321 348.996 272.613 349.4 273.664 350.145C274.714 350.891 275.463 351.937 275.792 353.117C275.998 353.813 276.052 354.54 275.949 355.256C275.847 355.971 275.59 356.66 275.193 357.284C274.797 357.907 274.27 358.452 273.641 358.887C273.013 359.321 272.297 359.637 271.534 359.816C271.031 359.937 270.513 359.999 269.992 360Z" fill="#FF4D52"/>
<path d="M304.515 351C303.295 350.998 302.11 350.593 301.146 349.848C300.181 349.103 299.492 348.06 299.185 346.883C298.997 346.183 298.952 345.452 299.052 344.734C299.153 344.016 299.397 343.326 299.77 342.704C300.514 341.45 301.719 340.535 303.128 340.154C303.584 340.057 304.049 340.006 304.515 340C305.851 340.007 307.139 340.498 308.14 341.381C309.141 342.265 309.786 343.48 309.955 344.802C310.125 346.125 309.807 347.463 309.061 348.569C308.316 349.675 307.193 350.474 305.901 350.816C305.449 350.937 304.983 350.999 304.515 351Z" fill="#FF4D52"/>
<path d="M828.207 310.672L825.004 402.438C824.956 403.905 825.377 405.348 826.207 406.559C827.037 407.769 828.231 408.683 829.616 409.167L880.384 426.757C882.031 427.316 883.402 428.483 884.218 430.02C885.033 431.556 885.231 433.346 884.772 435.024C883.234 440.375 879.807 447.456 872.344 449.603C872.344 449.603 894.221 454.697 905.912 441.208C906.819 440.205 908 439.489 909.309 439.148C910.617 438.806 911.997 438.854 913.278 439.285L981.631 460.689C983.322 461.215 985.151 461.07 986.738 460.282C988.325 459.494 989.547 458.125 990.151 456.459L1028.59 350.98C1028.92 350.052 1029.06 349.061 1028.98 348.077C1028.9 347.093 1028.61 346.137 1028.12 345.276C1027.64 344.415 1026.97 343.669 1026.18 343.088C1025.38 342.507 1024.46 342.106 1023.49 341.912L836.599 304.167C835.609 303.945 834.583 303.944 833.593 304.165C832.603 304.385 831.674 304.822 830.872 305.443C830.07 306.065 829.416 306.856 828.955 307.759C828.494 308.663 828.239 309.658 828.207 310.672Z" stroke="#11CFE7" stroke-miterlimit="10"/>
<path d="M877.613 397.095C876.597 396.403 875.813 395.37 875.378 394.149C874.943 392.929 874.882 391.587 875.202 390.324C875.408 389.564 875.748 388.856 876.205 388.24C876.661 387.624 877.223 387.113 877.86 386.736C878.496 386.352 879.195 386.113 879.917 386.031C880.64 385.95 881.369 386.028 882.063 386.262C882.52 386.395 882.958 386.6 883.361 386.872C884.382 387.558 885.173 388.589 885.613 389.81C886.053 391.031 886.12 392.376 885.802 393.642C885.6 394.41 885.261 395.126 884.804 395.749C884.347 396.372 883.781 396.889 883.14 397.271C882.498 397.652 881.794 397.889 881.068 397.97C880.342 398.05 879.609 397.971 878.911 397.738C878.457 397.579 878.021 397.363 877.613 397.095Z" fill="#11CFE7"/>
<path d="M911.88 407.192C910.765 406.562 909.903 405.616 909.422 404.495C908.942 403.375 908.869 402.141 909.216 400.979C909.435 400.275 909.804 399.619 910.302 399.048C910.8 398.477 911.417 398.004 912.116 397.656C913.539 396.972 915.193 396.816 916.737 397.221C917.219 397.373 917.682 397.571 918.12 397.811C919.235 398.441 920.097 399.387 920.578 400.508C921.058 401.628 921.131 402.862 920.784 404.024C920.565 404.723 920.195 405.375 919.697 405.941C919.199 406.507 918.582 406.974 917.884 407.316C916.481 408.022 914.833 408.189 913.297 407.782C912.802 407.636 912.326 407.438 911.88 407.192Z" fill="#11CFE7"/>
<path d="M946.652 418.061C945.826 417.472 945.145 416.634 944.679 415.631C944.213 414.628 943.98 413.497 944.001 412.352C944.023 411.207 944.299 410.089 944.803 409.112C945.306 408.135 946.018 407.334 946.866 406.79C947.499 406.378 948.195 406.12 948.913 406.033C949.631 405.946 950.356 406.031 951.046 406.282C951.494 406.438 951.924 406.657 952.327 406.935C953.476 407.745 954.335 409.028 954.742 410.54C955.148 412.053 955.073 413.689 954.532 415.14C953.99 416.592 953.02 417.757 951.804 418.415C950.588 419.074 949.211 419.18 947.934 418.714C947.487 418.555 947.057 418.336 946.652 418.061Z" fill="#11CFE7"/>
<path style="mix-blend-mode:multiply" d="M909 702C948.764 702 981 669.764 981 630C981 590.235 948.764 558 909 558C869.236 558 837 590.235 837 630C837 669.764 869.236 702 909 702Z" fill="url(#paint0_radial_1057_11282)"/>
<path d="M926.68 647.25C962.974 635.422 982.807 596.412 970.98 560.119C959.152 523.825 920.142 503.991 883.849 515.819C847.555 527.646 827.721 566.656 839.549 602.95C851.376 639.244 890.386 659.077 926.68 647.25Z" fill="white"/>
<path d="M905 641C938.137 641 965 614.585 965 582C965 549.415 938.137 523 905 523C871.863 523 845 549.415 845 582C845 614.585 871.863 641 905 641Z" fill="#FFB200"/>
<path d="M897.859 609C897.086 608.999 896.321 608.841 895.611 608.536C894.902 608.231 894.261 607.785 893.728 607.225L874.368 586.922C873.42 585.816 872.933 584.388 873.007 582.932C873.082 581.477 873.713 580.107 874.77 579.104C875.826 578.1 877.228 577.542 878.684 577.543C880.141 577.545 881.541 578.106 882.596 579.111L897.697 595.024L933.191 556.807C933.698 556.262 934.306 555.823 934.983 555.513C935.659 555.204 936.389 555.031 937.132 555.004C937.876 554.977 938.617 555.096 939.313 555.356C940.01 555.616 940.649 556.01 941.194 556.516C941.738 557.023 942.178 557.632 942.487 558.308C942.796 558.985 942.969 559.715 942.996 560.459C943.023 561.202 942.904 561.943 942.644 562.64C942.385 563.337 941.991 563.977 941.484 564.521L901.924 607.192C901.391 607.754 900.751 608.203 900.042 608.513C899.332 608.824 898.568 608.989 897.794 609H897.859Z" fill="white"/>
<path d="M264.082 821H38.9176C22.3946 821 9 834.376 9 850.875V912.125C9 928.624 22.3946 942 38.9176 942H264.082C280.605 942 294 928.624 294 912.125V850.875C294 834.376 280.605 821 264.082 821Z" fill="#FF4D52"/>
<path d="M104.975 856L110.656 872.437L128 872.791L114.175 883.361L119.202 900L104.975 890.037L90.7978 900L95.7748 883.361L82 872.791L99.294 872.437L104.975 856Z" fill="#FFB200"/>
<path d="M173.5 856L179.298 872.437L197 872.791L182.89 883.361L188.021 900L173.5 890.037L158.979 900L164.11 883.361L150 872.791L167.702 872.437L173.5 856Z" fill="#133A50"/>
<path style="mix-blend-mode:multiply" d="M207 885C237.928 885 263 859.928 263 829C263 798.072 237.928 773 207 773C176.072 773 151 798.072 151 829C151 859.928 176.072 885 207 885Z" fill="url(#paint1_radial_1057_11282)"/>
<path d="M253.572 811.474C265.107 783.791 252.016 751.999 224.333 740.464C196.65 728.93 164.858 742.02 153.323 769.703C141.788 797.387 154.879 829.179 182.562 840.714C210.245 852.248 242.038 839.157 253.572 811.474Z" fill="white"/>
<path d="M249.286 801.569C255.293 776.295 239.674 750.936 214.4 744.929C189.126 738.922 163.767 754.541 157.76 779.815C151.753 805.089 167.372 830.448 192.646 836.455C217.92 842.462 243.279 826.843 249.286 801.569Z" fill="#11CFE7"/>
<path d="M182 791.819L197.055 808L228 774" stroke="white" stroke-width="2.76" stroke-linecap="round" stroke-linejoin="round"/>
<path d="M162.127 81.8262L170.623 47.3438H175.223L175.516 54.6094L166.434 90H161.57L162.127 81.8262ZM156.766 47.3438L163.738 81.709V90H158.436L148.768 47.3438H156.766ZM184.334 81.5625L191.189 47.3438H199.217L189.549 90H184.246L184.334 81.5625ZM177.42 47.3438L185.916 81.9434L186.414 90H181.551L172.498 54.5801L172.85 47.3438H177.42ZM211.316 45V90H203.553V45H211.316ZM210.086 73.0078H207.801C207.801 70.8008 208.094 68.7695 208.68 66.9141C209.266 65.0586 210.096 63.4473 211.17 62.0801C212.244 60.6934 213.523 59.6191 215.008 58.8574C216.512 58.0957 218.172 57.7148 219.988 57.7148C221.551 57.7148 222.967 57.9395 224.236 58.3887C225.525 58.8184 226.629 59.5117 227.547 60.4688C228.465 61.4258 229.168 62.6758 229.656 64.2188C230.164 65.7422 230.418 67.5977 230.418 69.7852V90H222.625V69.7266C222.625 68.2617 222.41 67.1094 221.98 66.2695C221.551 65.4102 220.936 64.7949 220.135 64.4238C219.354 64.0527 218.387 63.8672 217.234 63.8672C215.984 63.8672 214.91 64.1113 214.012 64.5996C213.113 65.0684 212.371 65.7227 211.785 66.5625C211.219 67.4023 210.789 68.3691 210.496 69.4629C210.223 70.5566 210.086 71.7383 210.086 73.0078ZM246.531 86.4844L255.027 58.3008H263.318L250.604 94.8047C250.311 95.5859 249.93 96.4355 249.461 97.3535C249.012 98.2715 248.406 99.1406 247.645 99.9609C246.883 100.801 245.926 101.484 244.773 102.012C243.641 102.539 242.264 102.803 240.643 102.803C239.939 102.803 239.314 102.754 238.768 102.656C238.221 102.559 237.645 102.432 237.039 102.275V96.4746C237.234 96.4941 237.459 96.5039 237.713 96.5039C237.986 96.5234 238.221 96.5332 238.416 96.5332C239.549 96.5332 240.486 96.3965 241.229 96.123C241.971 95.8691 242.566 95.4492 243.016 94.8633C243.484 94.2969 243.875 93.5547 244.188 92.6367L246.531 86.4844ZM242.342 58.3008L249.52 81.6504L250.779 89.8242L245.447 90.791L233.992 58.3008H242.342ZM295.018 84.4922C296.111 84.4922 297.088 84.2773 297.947 83.8477C298.807 83.418 299.49 82.8125 299.998 82.0312C300.525 81.25 300.809 80.3418 300.848 79.3066H308.143C308.104 81.4551 307.498 83.3789 306.326 85.0781C305.154 86.7773 303.592 88.125 301.639 89.1211C299.705 90.0977 297.537 90.5859 295.135 90.5859C292.693 90.5859 290.564 90.1758 288.748 89.3555C286.932 88.5352 285.418 87.3926 284.207 85.9277C283.016 84.4629 282.117 82.7637 281.512 80.8301C280.926 78.8965 280.633 76.8262 280.633 74.6191V73.6816C280.633 71.4746 280.926 69.4043 281.512 67.4707C282.117 65.5371 283.016 63.8379 284.207 62.373C285.418 60.9082 286.932 59.7656 288.748 58.9453C290.564 58.125 292.684 57.7148 295.105 57.7148C297.664 57.7148 299.91 58.2129 301.844 59.209C303.797 60.2051 305.32 61.6113 306.414 63.4277C307.527 65.2441 308.104 67.3828 308.143 69.8438H300.848C300.809 68.7109 300.555 67.6953 300.086 66.7969C299.617 65.8984 298.953 65.1758 298.094 64.6289C297.234 64.082 296.189 63.8086 294.959 63.8086C293.65 63.8086 292.557 64.082 291.678 64.6289C290.818 65.1758 290.145 65.9277 289.656 66.8848C289.188 67.8223 288.855 68.877 288.66 70.0488C288.484 71.2012 288.396 72.4121 288.396 73.6816V74.6191C288.396 75.9082 288.484 77.1387 288.66 78.3105C288.855 79.4824 289.188 80.5371 289.656 81.4746C290.145 82.3926 290.818 83.125 291.678 83.6719C292.557 84.2188 293.67 84.4922 295.018 84.4922ZM320.887 45V90H313.123V45H320.887ZM319.656 73.0078H317.371C317.371 70.8008 317.664 68.7695 318.25 66.9141C318.836 65.0586 319.666 63.4473 320.74 62.0801C321.814 60.6934 323.094 59.6191 324.578 58.8574C326.082 58.0957 327.742 57.7148 329.559 57.7148C331.121 57.7148 332.537 57.9395 333.807 58.3887C335.096 58.8184 336.199 59.5117 337.117 60.4688C338.035 61.4258 338.738 62.6758 339.227 64.2188C339.734 65.7422 339.988 67.5977 339.988 69.7852V90H332.195V69.7266C332.195 68.2617 331.98 67.1094 331.551 66.2695C331.121 65.4102 330.506 64.7949 329.705 64.4238C328.924 64.0527 327.957 63.8672 326.805 63.8672C325.555 63.8672 324.48 64.1113 323.582 64.5996C322.684 65.0684 321.941 65.7227 321.355 66.5625C320.789 67.4023 320.359 68.3691 320.066 69.4629C319.793 70.5566 319.656 71.7383 319.656 73.0078ZM345.438 74.4727V73.8574C345.438 71.5332 345.77 69.3945 346.434 67.4414C347.098 65.4688 348.064 63.7598 349.334 62.3145C350.604 60.8691 352.156 59.7461 353.992 58.9453C355.828 58.125 357.918 57.7148 360.262 57.7148C362.645 57.7148 364.754 58.125 366.59 58.9453C368.445 59.7461 370.008 60.8691 371.277 62.3145C372.547 63.7598 373.514 65.4688 374.178 67.4414C374.842 69.3945 375.174 71.5332 375.174 73.8574V74.4727C375.174 76.7773 374.842 78.916 374.178 80.8887C373.514 82.8418 372.547 84.5508 371.277 86.0156C370.008 87.4609 368.455 88.584 366.619 89.3848C364.783 90.1855 362.684 90.5859 360.32 90.5859C357.977 90.5859 355.877 90.1855 354.021 89.3848C352.166 88.584 350.604 87.4609 349.334 86.0156C348.064 84.5508 347.098 82.8418 346.434 80.8887C345.77 78.916 345.438 76.7773 345.438 74.4727ZM353.172 73.8574V74.4727C353.172 75.8594 353.309 77.1582 353.582 78.3691C353.855 79.5801 354.275 80.6445 354.842 81.5625C355.408 82.4805 356.141 83.2031 357.039 83.7305C357.957 84.2383 359.051 84.4922 360.32 84.4922C361.57 84.4922 362.645 84.2383 363.543 83.7305C364.441 83.2031 365.174 82.4805 365.74 81.5625C366.326 80.6445 366.756 79.5801 367.029 78.3691C367.303 77.1582 367.439 75.8594 367.439 74.4727V73.8574C367.439 72.4902 367.303 71.2109 367.029 70.0195C366.756 68.8086 366.326 67.7441 365.74 66.8262C365.174 65.8887 364.432 65.1562 363.514 64.6289C362.615 64.082 361.531 63.8086 360.262 63.8086C359.012 63.8086 357.938 64.082 357.039 64.6289C356.141 65.1562 355.408 65.8887 354.842 66.8262C354.275 67.7441 353.855 68.8086 353.582 70.0195C353.309 71.2109 353.172 72.4902 353.172 73.8574ZM379.422 74.4727V73.8574C379.422 71.5332 379.754 69.3945 380.418 67.4414C381.082 65.4688 382.049 63.7598 383.318 62.3145C384.588 60.8691 386.141 59.7461 387.977 58.9453C389.812 58.125 391.902 57.7148 394.246 57.7148C396.629 57.7148 398.738 58.125 400.574 58.9453C402.43 59.7461 403.992 60.8691 405.262 62.3145C406.531 63.7598 407.498 65.4688 408.162 67.4414C408.826 69.3945 409.158 71.5332 409.158 73.8574V74.4727C409.158 76.7773 408.826 78.916 408.162 80.8887C407.498 82.8418 406.531 84.5508 405.262 86.0156C403.992 87.4609 402.439 88.584 400.604 89.3848C398.768 90.1855 396.668 90.5859 394.305 90.5859C391.961 90.5859 389.861 90.1855 388.006 89.3848C386.15 88.584 384.588 87.4609 383.318 86.0156C382.049 84.5508 381.082 82.8418 380.418 80.8887C379.754 78.916 379.422 76.7773 379.422 74.4727ZM387.156 73.8574V74.4727C387.156 75.8594 387.293 77.1582 387.566 78.3691C387.84 79.5801 388.26 80.6445 388.826 81.5625C389.393 82.4805 390.125 83.2031 391.023 83.7305C391.941 84.2383 393.035 84.4922 394.305 84.4922C395.555 84.4922 396.629 84.2383 397.527 83.7305C398.426 83.2031 399.158 82.4805 399.725 81.5625C400.311 80.6445 400.74 79.5801 401.014 78.3691C401.287 77.1582 401.424 75.8594 401.424 74.4727V73.8574C401.424 72.4902 401.287 71.2109 401.014 70.0195C400.74 68.8086 400.311 67.7441 399.725 66.8262C399.158 65.8887 398.416 65.1562 397.498 64.6289C396.6 64.082 395.516 63.8086 394.246 63.8086C392.996 63.8086 391.922 64.082 391.023 64.6289C390.125 65.1562 389.393 65.8887 388.826 66.8262C388.26 67.7441 387.84 68.8086 387.566 70.0195C387.293 71.2109 387.156 72.4902 387.156 73.8574ZM432.215 81.3281C432.215 80.6641 432.039 80.0684 431.688 79.541C431.336 79.0137 430.672 78.5352 429.695 78.1055C428.738 77.6562 427.332 77.2363 425.477 76.8457C423.836 76.4941 422.322 76.0547 420.936 75.5273C419.549 75 418.357 74.3652 417.361 73.623C416.365 72.8613 415.584 71.9727 415.018 70.957C414.471 69.9219 414.197 68.7305 414.197 67.3828C414.197 66.0742 414.48 64.8438 415.047 63.6914C415.613 62.5195 416.434 61.4941 417.508 60.6152C418.582 59.7168 419.891 59.0137 421.434 58.5059C422.977 57.9785 424.715 57.7148 426.648 57.7148C429.344 57.7148 431.658 58.1543 433.592 59.0332C435.545 59.9121 437.039 61.123 438.074 62.666C439.109 64.1895 439.627 65.9082 439.627 67.8223H431.893C431.893 66.9824 431.697 66.2207 431.307 65.5371C430.936 64.8535 430.359 64.3066 429.578 63.8965C428.797 63.4668 427.811 63.252 426.619 63.252C425.545 63.252 424.637 63.4277 423.895 63.7793C423.172 64.1309 422.625 64.5898 422.254 65.1562C421.883 65.7227 421.697 66.3477 421.697 67.0312C421.697 67.5391 421.795 67.998 421.99 68.4082C422.205 68.7988 422.547 69.1602 423.016 69.4922C423.484 69.8242 424.119 70.127 424.92 70.4004C425.74 70.6738 426.746 70.9375 427.938 71.1914C430.301 71.6602 432.361 72.2852 434.119 73.0664C435.896 73.8281 437.283 74.8438 438.279 76.1133C439.275 77.3828 439.773 79.0039 439.773 80.9766C439.773 82.3828 439.471 83.6719 438.865 84.8438C438.26 85.9961 437.381 87.002 436.229 87.8613C435.076 88.7207 433.699 89.3945 432.098 89.8828C430.496 90.3516 428.689 90.5859 426.678 90.5859C423.768 90.5859 421.307 90.0684 419.295 89.0332C417.283 87.9785 415.76 86.6504 414.725 85.0488C413.689 83.4277 413.172 81.748 413.172 80.0098H420.584C420.643 81.2402 420.975 82.2266 421.58 82.9688C422.186 83.7109 422.947 84.248 423.865 84.5801C424.803 84.8926 425.789 85.0488 426.824 85.0488C427.996 85.0488 428.982 84.8926 429.783 84.5801C430.584 84.248 431.189 83.8086 431.6 83.2617C432.01 82.6953 432.215 82.0508 432.215 81.3281ZM459.9 90.5859C457.498 90.5859 455.34 90.1953 453.426 89.4141C451.512 88.6328 449.881 87.5488 448.533 86.1621C447.205 84.7559 446.18 83.125 445.457 81.2695C444.754 79.3945 444.402 77.3828 444.402 75.2344V74.0625C444.402 71.6211 444.754 69.4043 445.457 67.4121C446.16 65.4004 447.156 63.6719 448.445 62.2266C449.734 60.7812 451.277 59.668 453.074 58.8867C454.871 58.1055 456.854 57.7148 459.021 57.7148C461.268 57.7148 463.25 58.0957 464.969 58.8574C466.688 59.5996 468.123 60.6543 469.275 62.0215C470.428 63.3887 471.297 65.0293 471.883 66.9434C472.469 68.8379 472.762 70.9375 472.762 73.2422V76.4941H447.918V71.1621H465.145V70.5762C465.105 69.3457 464.871 68.2227 464.441 67.207C464.012 66.1719 463.348 65.3516 462.449 64.7461C461.551 64.1211 460.389 63.8086 458.963 63.8086C457.811 63.8086 456.805 64.0625 455.945 64.5703C455.105 65.0586 454.402 65.7617 453.836 66.6797C453.289 67.5781 452.879 68.6523 452.605 69.9023C452.332 71.1523 452.195 72.5391 452.195 74.0625V75.2344C452.195 76.5625 452.371 77.793 452.723 78.9258C453.094 80.0586 453.631 81.0449 454.334 81.8848C455.057 82.7051 455.916 83.3496 456.912 83.8184C457.928 84.2676 459.08 84.4922 460.369 84.4922C461.99 84.4922 463.455 84.1797 464.764 83.5547C466.092 82.9102 467.244 81.9629 468.221 80.7129L472.117 84.7559C471.453 85.7324 470.555 86.6699 469.422 87.5684C468.309 88.4668 466.961 89.1992 465.379 89.7656C463.797 90.3125 461.971 90.5859 459.9 90.5859ZM493.475 47.3438H508.973C512.215 47.3438 514.998 47.832 517.322 48.8086C519.646 49.7852 521.434 51.2305 522.684 53.1445C523.934 55.0586 524.559 57.4121 524.559 60.2051C524.559 62.4121 524.168 64.3262 523.387 65.9473C522.605 67.5684 521.502 68.9258 520.076 70.0195C518.67 71.1133 517.01 71.9727 515.096 72.5977L512.576 73.8867H498.895L498.836 67.5293H509.061C510.721 67.5293 512.098 67.2363 513.191 66.6504C514.285 66.0645 515.105 65.2539 515.652 64.2188C516.219 63.1836 516.502 62.002 516.502 60.6738C516.502 59.248 516.229 58.0176 515.682 56.9824C515.135 55.9277 514.305 55.1172 513.191 54.5508C512.078 53.9844 510.672 53.7012 508.973 53.7012H501.531V90H493.475V47.3438ZM517.557 90L507.684 70.8984L516.209 70.8691L526.199 89.5898V90H517.557ZM545.271 90.5859C542.869 90.5859 540.711 90.1953 538.797 89.4141C536.883 88.6328 535.252 87.5488 533.904 86.1621C532.576 84.7559 531.551 83.125 530.828 81.2695C530.125 79.3945 529.773 77.3828 529.773 75.2344V74.0625C529.773 71.6211 530.125 69.4043 530.828 67.4121C531.531 65.4004 532.527 63.6719 533.816 62.2266C535.105 60.7812 536.648 59.668 538.445 58.8867C540.242 58.1055 542.225 57.7148 544.393 57.7148C546.639 57.7148 548.621 58.0957 550.34 58.8574C552.059 59.5996 553.494 60.6543 554.646 62.0215C555.799 63.3887 556.668 65.0293 557.254 66.9434C557.84 68.8379 558.133 70.9375 558.133 73.2422V76.4941H533.289V71.1621H550.516V70.5762C550.477 69.3457 550.242 68.2227 549.812 67.207C549.383 66.1719 548.719 65.3516 547.82 64.7461C546.922 64.1211 545.76 63.8086 544.334 63.8086C543.182 63.8086 542.176 64.0625 541.316 64.5703C540.477 65.0586 539.773 65.7617 539.207 66.6797C538.66 67.5781 538.25 68.6523 537.977 69.9023C537.703 71.1523 537.566 72.5391 537.566 74.0625V75.2344C537.566 76.5625 537.742 77.793 538.094 78.9258C538.465 80.0586 539.002 81.0449 539.705 81.8848C540.428 82.7051 541.287 83.3496 542.283 83.8184C543.299 84.2676 544.451 84.4922 545.74 84.4922C547.361 84.4922 548.826 84.1797 550.135 83.5547C551.463 82.9102 552.615 81.9629 553.592 80.7129L557.488 84.7559C556.824 85.7324 555.926 86.6699 554.793 87.5684C553.68 88.4668 552.332 89.1992 550.75 89.7656C549.168 90.3125 547.342 90.5859 545.271 90.5859ZM583.475 58.3008H590.506V89.0332C590.506 91.9043 589.881 94.3359 588.631 96.3281C587.4 98.3398 585.672 99.8633 583.445 100.898C581.219 101.953 578.631 102.48 575.682 102.48C574.412 102.48 573.035 102.305 571.551 101.953C570.086 101.602 568.67 101.045 567.303 100.283C565.955 99.541 564.832 98.5742 563.934 97.3828L567.42 92.8125C568.475 94.043 569.666 94.9707 570.994 95.5957C572.322 96.2402 573.758 96.5625 575.301 96.5625C576.863 96.5625 578.191 96.2695 579.285 95.6836C580.398 95.1172 581.248 94.2773 581.834 93.1641C582.439 92.0703 582.742 90.7227 582.742 89.1211V65.5371L583.475 58.3008ZM562.059 74.5312V73.916C562.059 71.4941 562.352 69.2969 562.938 67.3242C563.523 65.332 564.363 63.623 565.457 62.1973C566.57 60.7715 567.908 59.668 569.471 58.8867C571.053 58.1055 572.83 57.7148 574.803 57.7148C576.893 57.7148 578.65 58.0957 580.076 58.8574C581.521 59.6191 582.713 60.7031 583.65 62.1094C584.607 63.5156 585.35 65.1855 585.877 67.1191C586.424 69.0332 586.844 71.1426 587.137 73.4473V75.1172C586.863 77.3633 586.424 79.4238 585.818 81.2988C585.232 83.1738 584.451 84.8145 583.475 86.2207C582.498 87.6074 581.287 88.6816 579.842 89.4434C578.396 90.2051 576.697 90.5859 574.744 90.5859C572.791 90.5859 571.033 90.1855 569.471 89.3848C567.908 88.584 566.57 87.4609 565.457 86.0156C564.363 84.5703 563.523 82.8711 562.938 80.918C562.352 78.9648 562.059 76.8359 562.059 74.5312ZM569.793 73.916V74.5312C569.793 75.8984 569.93 77.1777 570.203 78.3691C570.477 79.5605 570.896 80.6152 571.463 81.5332C572.029 82.4316 572.742 83.1348 573.602 83.6426C574.461 84.1504 575.486 84.4043 576.678 84.4043C578.279 84.4043 579.588 84.0723 580.604 83.4082C581.639 82.7246 582.42 81.7969 582.947 80.625C583.494 79.4336 583.846 78.0957 584.002 76.6113V72.0117C583.904 70.8398 583.689 69.7559 583.357 68.7598C583.045 67.7637 582.605 66.9043 582.039 66.1816C581.473 65.459 580.75 64.8926 579.871 64.4824C578.992 64.0723 577.947 63.8672 576.736 63.8672C575.564 63.8672 574.539 64.1309 573.66 64.6582C572.781 65.166 572.059 65.8789 571.492 66.7969C570.926 67.7148 570.496 68.7793 570.203 69.9902C569.93 71.2012 569.793 72.5098 569.793 73.916ZM605.682 58.3008V90H597.918V58.3008H605.682ZM597.391 50.0098C597.391 48.8574 597.781 47.9004 598.562 47.1387C599.363 46.377 600.438 45.9961 601.785 45.9961C603.133 45.9961 604.197 46.377 604.979 47.1387C605.779 47.9004 606.18 48.8574 606.18 50.0098C606.18 51.1426 605.779 52.0898 604.979 52.8516C604.197 53.6133 603.133 53.9941 601.785 53.9941C600.438 53.9941 599.363 53.6133 598.562 52.8516C597.781 52.0898 597.391 51.1426 597.391 50.0098ZM630.496 81.3281C630.496 80.6641 630.32 80.0684 629.969 79.541C629.617 79.0137 628.953 78.5352 627.977 78.1055C627.02 77.6562 625.613 77.2363 623.758 76.8457C622.117 76.4941 620.604 76.0547 619.217 75.5273C617.83 75 616.639 74.3652 615.643 73.623C614.646 72.8613 613.865 71.9727 613.299 70.957C612.752 69.9219 612.479 68.7305 612.479 67.3828C612.479 66.0742 612.762 64.8438 613.328 63.6914C613.895 62.5195 614.715 61.4941 615.789 60.6152C616.863 59.7168 618.172 59.0137 619.715 58.5059C621.258 57.9785 622.996 57.7148 624.93 57.7148C627.625 57.7148 629.939 58.1543 631.873 59.0332C633.826 59.9121 635.32 61.123 636.355 62.666C637.391 64.1895 637.908 65.9082 637.908 67.8223H630.174C630.174 66.9824 629.979 66.2207 629.588 65.5371C629.217 64.8535 628.641 64.3066 627.859 63.8965C627.078 63.4668 626.092 63.252 624.9 63.252C623.826 63.252 622.918 63.4277 622.176 63.7793C621.453 64.1309 620.906 64.5898 620.535 65.1562C620.164 65.7227 619.979 66.3477 619.979 67.0312C619.979 67.5391 620.076 67.998 620.271 68.4082C620.486 68.7988 620.828 69.1602 621.297 69.4922C621.766 69.8242 622.4 70.127 623.201 70.4004C624.021 70.6738 625.027 70.9375 626.219 71.1914C628.582 71.6602 630.643 72.2852 632.4 73.0664C634.178 73.8281 635.564 74.8438 636.561 76.1133C637.557 77.3828 638.055 79.0039 638.055 80.9766C638.055 82.3828 637.752 83.6719 637.146 84.8438C636.541 85.9961 635.662 87.002 634.51 87.8613C633.357 88.7207 631.98 89.3945 630.379 89.8828C628.777 90.3516 626.971 90.5859 624.959 90.5859C622.049 90.5859 619.588 90.0684 617.576 89.0332C615.564 87.9785 614.041 86.6504 613.006 85.0488C611.971 83.4277 611.453 81.748 611.453 80.0098H618.865C618.924 81.2402 619.256 82.2266 619.861 82.9688C620.467 83.7109 621.229 84.248 622.146 84.5801C623.084 84.8926 624.07 85.0488 625.105 85.0488C626.277 85.0488 627.264 84.8926 628.064 84.5801C628.865 84.248 629.471 83.8086 629.881 83.2617C630.291 82.6953 630.496 82.0508 630.496 81.3281ZM658.943 58.3008V63.8672H640.779V58.3008H658.943ZM645.643 50.5078H653.406V80.8594C653.406 81.7969 653.533 82.5195 653.787 83.0273C654.041 83.5352 654.422 83.877 654.93 84.0527C655.438 84.2285 656.043 84.3164 656.746 84.3164C657.254 84.3164 657.723 84.2871 658.152 84.2285C658.582 84.1699 658.943 84.1113 659.236 84.0527L659.266 89.8535C658.621 90.0684 657.889 90.2441 657.068 90.3809C656.268 90.5176 655.359 90.5859 654.344 90.5859C652.605 90.5859 651.082 90.293 649.773 89.707C648.465 89.1016 647.449 88.1348 646.727 86.8066C646.004 85.459 645.643 83.6816 645.643 81.4746V50.5078ZM678.338 90.5859C675.936 90.5859 673.777 90.1953 671.863 89.4141C669.949 88.6328 668.318 87.5488 666.971 86.1621C665.643 84.7559 664.617 83.125 663.895 81.2695C663.191 79.3945 662.84 77.3828 662.84 75.2344V74.0625C662.84 71.6211 663.191 69.4043 663.895 67.4121C664.598 65.4004 665.594 63.6719 666.883 62.2266C668.172 60.7812 669.715 59.668 671.512 58.8867C673.309 58.1055 675.291 57.7148 677.459 57.7148C679.705 57.7148 681.688 58.0957 683.406 58.8574C685.125 59.5996 686.561 60.6543 687.713 62.0215C688.865 63.3887 689.734 65.0293 690.32 66.9434C690.906 68.8379 691.199 70.9375 691.199 73.2422V76.4941H666.355V71.1621H683.582V70.5762C683.543 69.3457 683.309 68.2227 682.879 67.207C682.449 66.1719 681.785 65.3516 680.887 64.7461C679.988 64.1211 678.826 63.8086 677.4 63.8086C676.248 63.8086 675.242 64.0625 674.383 64.5703C673.543 65.0586 672.84 65.7617 672.273 66.6797C671.727 67.5781 671.316 68.6523 671.043 69.9023C670.77 71.1523 670.633 72.5391 670.633 74.0625V75.2344C670.633 76.5625 670.809 77.793 671.16 78.9258C671.531 80.0586 672.068 81.0449 672.771 81.8848C673.494 82.7051 674.354 83.3496 675.35 83.8184C676.365 84.2676 677.518 84.4922 678.807 84.4922C680.428 84.4922 681.893 84.1797 683.201 83.5547C684.529 82.9102 685.682 81.9629 686.658 80.7129L690.555 84.7559C689.891 85.7324 688.992 86.6699 687.859 87.5684C686.746 88.4668 685.398 89.1992 683.816 89.7656C682.234 90.3125 680.408 90.5859 678.338 90.5859ZM704.119 64.7754V90H696.385V58.3008H703.709L704.119 64.7754ZM713.758 58.0957L713.641 65.3027C713.211 65.2246 712.723 65.166 712.176 65.127C711.648 65.0879 711.15 65.0684 710.682 65.0684C709.49 65.0684 708.445 65.2344 707.547 65.5664C706.648 65.8789 705.896 66.3379 705.291 66.9434C704.705 67.5488 704.256 68.291 703.943 69.1699C703.631 70.0293 703.455 71.0059 703.416 72.0996L701.746 71.8945C701.746 69.8828 701.951 68.0176 702.361 66.2988C702.771 64.5801 703.367 63.0762 704.148 61.7871C704.93 60.498 705.906 59.502 707.078 58.7988C708.27 58.0762 709.637 57.7148 711.18 57.7148C711.609 57.7148 712.068 57.7539 712.557 57.832C713.064 57.8906 713.465 57.9785 713.758 58.0957ZM726.648 47.3438V90H718.592V47.3438H726.648ZM752.254 47.3438L735.145 68.1445L725.359 78.6035L723.924 70.7812L730.721 61.9629L742.381 47.3438H752.254ZM743.289 90L730.018 70.0195L735.789 64.8047L752.869 90H743.289ZM773.494 83.2617V68.6426C773.494 67.5684 773.309 66.6406 772.938 65.8594C772.566 65.0781 772 64.4727 771.238 64.043C770.477 63.6133 769.51 63.3984 768.338 63.3984C767.303 63.3984 766.395 63.5742 765.613 63.9258C764.852 64.2773 764.266 64.7754 763.855 65.4199C763.445 66.0449 763.24 66.7676 763.24 67.5879H755.477C755.477 66.2793 755.789 65.0391 756.414 63.8672C757.039 62.6758 757.928 61.6211 759.08 60.7031C760.252 59.7656 761.648 59.0332 763.27 58.5059C764.91 57.9785 766.746 57.7148 768.777 57.7148C771.18 57.7148 773.318 58.125 775.193 58.9453C777.088 59.7461 778.572 60.957 779.646 62.5781C780.74 64.1992 781.287 66.2402 781.287 68.7012V82.5293C781.287 84.1113 781.385 85.4688 781.58 86.6016C781.795 87.7148 782.107 88.6816 782.518 89.502V90H774.637C774.266 89.1992 773.982 88.1836 773.787 86.9531C773.592 85.7031 773.494 84.4727 773.494 83.2617ZM774.578 70.6934L774.637 75.293H769.744C768.533 75.293 767.469 75.4199 766.551 75.6738C765.633 75.9082 764.881 76.2598 764.295 76.7285C763.709 77.1777 763.27 77.7246 762.977 78.3691C762.684 78.9941 762.537 79.707 762.537 80.5078C762.537 81.2891 762.713 81.9922 763.064 82.6172C763.436 83.2422 763.963 83.7402 764.646 84.1113C765.35 84.4629 766.17 84.6387 767.107 84.6387C768.475 84.6387 769.666 84.3652 770.682 83.8184C771.697 83.252 772.488 82.5684 773.055 81.7676C773.621 80.9668 773.924 80.2051 773.963 79.4824L776.189 82.8223C775.916 83.623 775.506 84.4727 774.959 85.3711C774.412 86.2695 773.709 87.1094 772.85 87.8906C771.99 88.6719 770.955 89.3164 769.744 89.8242C768.533 90.332 767.127 90.5859 765.525 90.5859C763.475 90.5859 761.639 90.1758 760.018 89.3555C758.396 88.5352 757.117 87.4121 756.18 85.9863C755.242 84.5605 754.773 82.9395 754.773 81.123C754.773 79.4434 755.086 77.959 755.711 76.6699C756.336 75.3809 757.264 74.2969 758.494 73.418C759.725 72.5195 761.248 71.8457 763.064 71.3965C764.9 70.9277 767 70.6934 769.363 70.6934H774.578ZM795.994 64.7754V90H788.26V58.3008H795.584L795.994 64.7754ZM805.633 58.0957L805.516 65.3027C805.086 65.2246 804.598 65.166 804.051 65.127C803.523 65.0879 803.025 65.0684 802.557 65.0684C801.365 65.0684 800.32 65.2344 799.422 65.5664C798.523 65.8789 797.771 66.3379 797.166 66.9434C796.58 67.5488 796.131 68.291 795.818 69.1699C795.506 70.0293 795.33 71.0059 795.291 72.0996L793.621 71.8945C793.621 69.8828 793.826 68.0176 794.236 66.2988C794.646 64.5801 795.242 63.0762 796.023 61.7871C796.805 60.498 797.781 59.502 798.953 58.7988C800.145 58.0762 801.512 57.7148 803.055 57.7148C803.484 57.7148 803.943 57.7539 804.432 57.832C804.939 57.8906 805.34 57.9785 805.633 58.0957ZM807.684 74.4727V73.8574C807.684 71.5332 808.016 69.3945 808.68 67.4414C809.344 65.4688 810.311 63.7598 811.58 62.3145C812.85 60.8691 814.402 59.7461 816.238 58.9453C818.074 58.125 820.164 57.7148 822.508 57.7148C824.891 57.7148 827 58.125 828.836 58.9453C830.691 59.7461 832.254 60.8691 833.523 62.3145C834.793 63.7598 835.76 65.4688 836.424 67.4414C837.088 69.3945 837.42 71.5332 837.42 73.8574V74.4727C837.42 76.7773 837.088 78.916 836.424 80.8887C835.76 82.8418 834.793 84.5508 833.523 86.0156C832.254 87.4609 830.701 88.584 828.865 89.3848C827.029 90.1855 824.93 90.5859 822.566 90.5859C820.223 90.5859 818.123 90.1855 816.268 89.3848C814.412 88.584 812.85 87.4609 811.58 86.0156C810.311 84.5508 809.344 82.8418 808.68 80.8887C808.016 78.916 807.684 76.7773 807.684 74.4727ZM815.418 73.8574V74.4727C815.418 75.8594 815.555 77.1582 815.828 78.3691C816.102 79.5801 816.521 80.6445 817.088 81.5625C817.654 82.4805 818.387 83.2031 819.285 83.7305C820.203 84.2383 821.297 84.4922 822.566 84.4922C823.816 84.4922 824.891 84.2383 825.789 83.7305C826.688 83.2031 827.42 82.4805 827.986 81.5625C828.572 80.6445 829.002 79.5801 829.275 78.3691C829.549 77.1582 829.686 75.8594 829.686 74.4727V73.8574C829.686 72.4902 829.549 71.2109 829.275 70.0195C829.002 68.8086 828.572 67.7441 827.986 66.8262C827.42 65.8887 826.678 65.1562 825.76 64.6289C824.861 64.082 823.777 63.8086 822.508 63.8086C821.258 63.8086 820.184 64.082 819.285 64.6289C818.387 65.1562 817.654 65.8887 817.088 66.8262C816.521 67.7441 816.102 68.8086 815.828 70.0195C815.555 71.2109 815.418 72.4902 815.418 73.8574ZM868.123 90H860.33V55.3711C860.33 52.9883 860.789 50.9863 861.707 49.3652C862.625 47.7246 863.934 46.4844 865.633 45.6445C867.332 44.8047 869.334 44.3848 871.639 44.3848C872.4 44.3848 873.123 44.4336 873.807 44.5312C874.51 44.6289 875.203 44.7656 875.887 44.9414L875.74 50.8301C875.369 50.7324 874.959 50.6641 874.51 50.625C874.08 50.5859 873.602 50.5664 873.074 50.5664C872.02 50.5664 871.121 50.752 870.379 51.123C869.637 51.4941 869.07 52.041 868.68 52.7637C868.309 53.4668 868.123 54.3359 868.123 55.3711V90ZM874.539 58.3008V63.8672H855.555V58.3008H874.539ZM877.938 74.4727V73.8574C877.938 71.5332 878.27 69.3945 878.934 67.4414C879.598 65.4688 880.564 63.7598 881.834 62.3145C883.104 60.8691 884.656 59.7461 886.492 58.9453C888.328 58.125 890.418 57.7148 892.762 57.7148C895.145 57.7148 897.254 58.125 899.09 58.9453C900.945 59.7461 902.508 60.8691 903.777 62.3145C905.047 63.7598 906.014 65.4688 906.678 67.4414C907.342 69.3945 907.674 71.5332 907.674 73.8574V74.4727C907.674 76.7773 907.342 78.916 906.678 80.8887C906.014 82.8418 905.047 84.5508 903.777 86.0156C902.508 87.4609 900.955 88.584 899.119 89.3848C897.283 90.1855 895.184 90.5859 892.82 90.5859C890.477 90.5859 888.377 90.1855 886.521 89.3848C884.666 88.584 883.104 87.4609 881.834 86.0156C880.564 84.5508 879.598 82.8418 878.934 80.8887C878.27 78.916 877.938 76.7773 877.938 74.4727ZM885.672 73.8574V74.4727C885.672 75.8594 885.809 77.1582 886.082 78.3691C886.355 79.5801 886.775 80.6445 887.342 81.5625C887.908 82.4805 888.641 83.2031 889.539 83.7305C890.457 84.2383 891.551 84.4922 892.82 84.4922C894.07 84.4922 895.145 84.2383 896.043 83.7305C896.941 83.2031 897.674 82.4805 898.24 81.5625C898.826 80.6445 899.256 79.5801 899.529 78.3691C899.803 77.1582 899.939 75.8594 899.939 74.4727V73.8574C899.939 72.4902 899.803 71.2109 899.529 70.0195C899.256 68.8086 898.826 67.7441 898.24 66.8262C897.674 65.8887 896.932 65.1562 896.014 64.6289C895.115 64.082 894.031 63.8086 892.762 63.8086C891.512 63.8086 890.438 64.082 889.539 64.6289C888.641 65.1562 887.908 65.8887 887.342 66.8262C886.775 67.7441 886.355 68.8086 886.082 70.0195C885.809 71.2109 885.672 72.4902 885.672 73.8574ZM921.033 64.7754V90H913.299V58.3008H920.623L921.033 64.7754ZM930.672 58.0957L930.555 65.3027C930.125 65.2246 929.637 65.166 929.09 65.127C928.562 65.0879 928.064 65.0684 927.596 65.0684C926.404 65.0684 925.359 65.2344 924.461 65.5664C923.562 65.8789 922.811 66.3379 922.205 66.9434C921.619 67.5488 921.17 68.291 920.857 69.1699C920.545 70.0293 920.369 71.0059 920.33 72.0996L918.66 71.8945C918.66 69.8828 918.865 68.0176 919.275 66.2988C919.686 64.5801 920.281 63.0762 921.062 61.7871C921.844 60.498 922.82 59.502 923.992 58.7988C925.184 58.0762 926.551 57.7148 928.094 57.7148C928.523 57.7148 928.982 57.7539 929.471 57.832C929.979 57.8906 930.379 57.9785 930.672 58.0957Z" fill="#30486E"/>
<path d="M283.211 117.344L292.586 137.236L302.02 117.344H310.867L296.688 144.385V160H288.514V144.385L274.305 117.344H283.211ZM311.248 144.473V143.857C311.248 141.533 311.58 139.395 312.244 137.441C312.908 135.469 313.875 133.76 315.145 132.314C316.414 130.869 317.967 129.746 319.803 128.945C321.639 128.125 323.729 127.715 326.072 127.715C328.455 127.715 330.564 128.125 332.4 128.945C334.256 129.746 335.818 130.869 337.088 132.314C338.357 133.76 339.324 135.469 339.988 137.441C340.652 139.395 340.984 141.533 340.984 143.857V144.473C340.984 146.777 340.652 148.916 339.988 150.889C339.324 152.842 338.357 154.551 337.088 156.016C335.818 157.461 334.266 158.584 332.43 159.385C330.594 160.186 328.494 160.586 326.131 160.586C323.787 160.586 321.688 160.186 319.832 159.385C317.977 158.584 316.414 157.461 315.145 156.016C313.875 154.551 312.908 152.842 312.244 150.889C311.58 148.916 311.248 146.777 311.248 144.473ZM318.982 143.857V144.473C318.982 145.859 319.119 147.158 319.393 148.369C319.666 149.58 320.086 150.645 320.652 151.562C321.219 152.48 321.951 153.203 322.85 153.73C323.768 154.238 324.861 154.492 326.131 154.492C327.381 154.492 328.455 154.238 329.354 153.73C330.252 153.203 330.984 152.48 331.551 151.562C332.137 150.645 332.566 149.58 332.84 148.369C333.113 147.158 333.25 145.859 333.25 144.473V143.857C333.25 142.49 333.113 141.211 332.84 140.02C332.566 138.809 332.137 137.744 331.551 136.826C330.984 135.889 330.242 135.156 329.324 134.629C328.426 134.082 327.342 133.809 326.072 133.809C324.822 133.809 323.748 134.082 322.85 134.629C321.951 135.156 321.219 135.889 320.652 136.826C320.086 137.744 319.666 138.809 319.393 140.02C319.119 141.211 318.982 142.49 318.982 143.857ZM365.477 152.471V128.301H373.27V160H365.945L365.477 152.471ZM366.473 145.908L368.875 145.85C368.875 147.979 368.641 149.941 368.172 151.738C367.703 153.535 366.971 155.098 365.975 156.426C364.998 157.734 363.758 158.76 362.254 159.502C360.75 160.225 358.973 160.586 356.922 160.586C355.359 160.586 353.934 160.371 352.645 159.941C351.355 159.492 350.242 158.799 349.305 157.861C348.387 156.904 347.674 155.684 347.166 154.199C346.658 152.695 346.404 150.889 346.404 148.779V128.301H354.139V148.838C354.139 149.893 354.256 150.771 354.49 151.475C354.744 152.178 355.086 152.754 355.516 153.203C355.965 153.633 356.482 153.945 357.068 154.141C357.674 154.316 358.318 154.404 359.002 154.404C360.877 154.404 362.352 154.033 363.426 153.291C364.52 152.529 365.301 151.514 365.77 150.244C366.238 148.955 366.473 147.51 366.473 145.908ZM387.859 134.775V160H380.125V128.301H387.449L387.859 134.775ZM397.498 128.096L397.381 135.303C396.951 135.225 396.463 135.166 395.916 135.127C395.389 135.088 394.891 135.068 394.422 135.068C393.23 135.068 392.186 135.234 391.287 135.566C390.389 135.879 389.637 136.338 389.031 136.943C388.445 137.549 387.996 138.291 387.684 139.17C387.371 140.029 387.195 141.006 387.156 142.1L385.486 141.895C385.486 139.883 385.691 138.018 386.102 136.299C386.512 134.58 387.107 133.076 387.889 131.787C388.67 130.498 389.646 129.502 390.818 128.799C392.01 128.076 393.377 127.715 394.92 127.715C395.35 127.715 395.809 127.754 396.297 127.832C396.805 127.891 397.205 127.979 397.498 128.096ZM434.676 147.051V117.344H442.732V147.051C442.732 149.883 442.117 152.314 440.887 154.346C439.656 156.357 437.977 157.9 435.848 158.975C433.719 160.049 431.316 160.586 428.641 160.586C425.887 160.586 423.445 160.127 421.316 159.209C419.188 158.271 417.518 156.846 416.307 154.932C415.115 153.018 414.52 150.586 414.52 147.637H422.605C422.605 149.238 422.85 150.527 423.338 151.504C423.826 152.48 424.52 153.184 425.418 153.613C426.336 154.043 427.41 154.258 428.641 154.258C429.832 154.258 430.877 153.984 431.775 153.438C432.693 152.871 433.406 152.051 433.914 150.977C434.422 149.902 434.676 148.594 434.676 147.051ZM448.768 144.473V143.857C448.768 141.533 449.1 139.395 449.764 137.441C450.428 135.469 451.395 133.76 452.664 132.314C453.934 130.869 455.486 129.746 457.322 128.945C459.158 128.125 461.248 127.715 463.592 127.715C465.975 127.715 468.084 128.125 469.92 128.945C471.775 129.746 473.338 130.869 474.607 132.314C475.877 133.76 476.844 135.469 477.508 137.441C478.172 139.395 478.504 141.533 478.504 143.857V144.473C478.504 146.777 478.172 148.916 477.508 150.889C476.844 152.842 475.877 154.551 474.607 156.016C473.338 157.461 471.785 158.584 469.949 159.385C468.113 160.186 466.014 160.586 463.65 160.586C461.307 160.586 459.207 160.186 457.352 159.385C455.496 158.584 453.934 157.461 452.664 156.016C451.395 154.551 450.428 152.842 449.764 150.889C449.1 148.916 448.768 146.777 448.768 144.473ZM456.502 143.857V144.473C456.502 145.859 456.639 147.158 456.912 148.369C457.186 149.58 457.605 150.645 458.172 151.562C458.738 152.48 459.471 153.203 460.369 153.73C461.287 154.238 462.381 154.492 463.65 154.492C464.9 154.492 465.975 154.238 466.873 153.73C467.771 153.203 468.504 152.48 469.07 151.562C469.656 150.645 470.086 149.58 470.359 148.369C470.633 147.158 470.77 145.859 470.77 144.473V143.857C470.77 142.49 470.633 141.211 470.359 140.02C470.086 138.809 469.656 137.744 469.07 136.826C468.504 135.889 467.762 135.156 466.844 134.629C465.945 134.082 464.861 133.809 463.592 133.809C462.342 133.809 461.268 134.082 460.369 134.629C459.471 135.156 458.738 135.889 458.172 136.826C457.605 137.744 457.186 138.809 456.912 140.02C456.639 141.211 456.502 142.49 456.502 143.857ZM492.332 128.301V160H484.568V128.301H492.332ZM484.041 120.01C484.041 118.857 484.432 117.9 485.213 117.139C486.014 116.377 487.088 115.996 488.436 115.996C489.783 115.996 490.848 116.377 491.629 117.139C492.43 117.9 492.83 118.857 492.83 120.01C492.83 121.143 492.43 122.09 491.629 122.852C490.848 123.613 489.783 123.994 488.436 123.994C487.088 123.994 486.014 123.613 485.213 122.852C484.432 122.09 484.041 121.143 484.041 120.01ZM507.303 135.068V160H499.568V128.301H506.834L507.303 135.068ZM506.072 143.008H503.787C503.807 140.703 504.119 138.613 504.725 136.738C505.33 134.863 506.18 133.252 507.273 131.904C508.387 130.557 509.705 129.521 511.229 128.799C512.752 128.076 514.451 127.715 516.326 127.715C517.85 127.715 519.227 127.93 520.457 128.359C521.688 128.789 522.742 129.473 523.621 130.41C524.52 131.348 525.203 132.578 525.672 134.102C526.16 135.605 526.404 137.461 526.404 139.668V160H518.611V139.609C518.611 138.164 518.396 137.021 517.967 136.182C517.557 135.342 516.951 134.746 516.15 134.395C515.369 134.043 514.402 133.867 513.25 133.867C512.059 133.867 511.014 134.111 510.115 134.6C509.236 135.068 508.494 135.723 507.889 136.562C507.303 137.402 506.854 138.369 506.541 139.463C506.229 140.557 506.072 141.738 506.072 143.008ZM548.23 128.301V133.867H530.066V128.301H548.23ZM534.93 120.508H542.693V150.859C542.693 151.797 542.82 152.52 543.074 153.027C543.328 153.535 543.709 153.877 544.217 154.053C544.725 154.229 545.33 154.316 546.033 154.316C546.541 154.316 547.01 154.287 547.439 154.229C547.869 154.17 548.23 154.111 548.523 154.053L548.553 159.854C547.908 160.068 547.176 160.244 546.355 160.381C545.555 160.518 544.646 160.586 543.631 160.586C541.893 160.586 540.369 160.293 539.061 159.707C537.752 159.102 536.736 158.135 536.014 156.807C535.291 155.459 534.93 153.682 534.93 151.475V120.508ZM583.914 151.65L594.549 117.344H603.484L588.426 160H582.479L583.914 151.65ZM574.1 117.344L584.676 151.65L586.199 160H580.193L565.193 117.344H574.1ZM620.242 160.586C617.84 160.586 615.682 160.195 613.768 159.414C611.854 158.633 610.223 157.549 608.875 156.162C607.547 154.756 606.521 153.125 605.799 151.27C605.096 149.395 604.744 147.383 604.744 145.234V144.062C604.744 141.621 605.096 139.404 605.799 137.412C606.502 135.4 607.498 133.672 608.787 132.227C610.076 130.781 611.619 129.668 613.416 128.887C615.213 128.105 617.195 127.715 619.363 127.715C621.609 127.715 623.592 128.096 625.311 128.857C627.029 129.6 628.465 130.654 629.617 132.021C630.77 133.389 631.639 135.029 632.225 136.943C632.811 138.838 633.104 140.938 633.104 143.242V146.494H608.26V141.162H625.486V140.576C625.447 139.346 625.213 138.223 624.783 137.207C624.354 136.172 623.689 135.352 622.791 134.746C621.893 134.121 620.73 133.809 619.305 133.809C618.152 133.809 617.146 134.062 616.287 134.57C615.447 135.059 614.744 135.762 614.178 136.68C613.631 137.578 613.221 138.652 612.947 139.902C612.674 141.152 612.537 142.539 612.537 144.062V145.234C612.537 146.562 612.713 147.793 613.064 148.926C613.436 150.059 613.973 151.045 614.676 151.885C615.398 152.705 616.258 153.35 617.254 153.818C618.27 154.268 619.422 154.492 620.711 154.492C622.332 154.492 623.797 154.18 625.105 153.555C626.434 152.91 627.586 151.963 628.562 150.713L632.459 154.756C631.795 155.732 630.896 156.67 629.764 157.568C628.65 158.467 627.303 159.199 625.721 159.766C624.139 160.312 622.312 160.586 620.242 160.586ZM645.877 135.068V160H638.143V128.301H645.408L645.877 135.068ZM644.646 143.008H642.361C642.381 140.703 642.693 138.613 643.299 136.738C643.904 134.863 644.754 133.252 645.848 131.904C646.961 130.557 648.279 129.521 649.803 128.799C651.326 128.076 653.025 127.715 654.9 127.715C656.424 127.715 657.801 127.93 659.031 128.359C660.262 128.789 661.316 129.473 662.195 130.41C663.094 131.348 663.777 132.578 664.246 134.102C664.734 135.605 664.979 137.461 664.979 139.668V160H657.186V139.609C657.186 138.164 656.971 137.021 656.541 136.182C656.131 135.342 655.525 134.746 654.725 134.395C653.943 134.043 652.977 133.867 651.824 133.867C650.633 133.867 649.588 134.111 648.689 134.6C647.811 135.068 647.068 135.723 646.463 136.562C645.877 137.402 645.428 138.369 645.115 139.463C644.803 140.557 644.646 141.738 644.646 143.008ZM686.805 128.301V133.867H668.641V128.301H686.805ZM673.504 120.508H681.268V150.859C681.268 151.797 681.395 152.52 681.648 153.027C681.902 153.535 682.283 153.877 682.791 154.053C683.299 154.229 683.904 154.316 684.607 154.316C685.115 154.316 685.584 154.287 686.014 154.229C686.443 154.17 686.805 154.111 687.098 154.053L687.127 159.854C686.482 160.068 685.75 160.244 684.93 160.381C684.129 160.518 683.221 160.586 682.205 160.586C680.467 160.586 678.943 160.293 677.635 159.707C676.326 159.102 675.311 158.135 674.588 156.807C673.865 155.459 673.504 153.682 673.504 151.475V120.508ZM710.828 152.471V128.301H718.621V160H711.297L710.828 152.471ZM711.824 145.908L714.227 145.85C714.227 147.979 713.992 149.941 713.523 151.738C713.055 153.535 712.322 155.098 711.326 156.426C710.35 157.734 709.109 158.76 707.605 159.502C706.102 160.225 704.324 160.586 702.273 160.586C700.711 160.586 699.285 160.371 697.996 159.941C696.707 159.492 695.594 158.799 694.656 157.861C693.738 156.904 693.025 155.684 692.518 154.199C692.01 152.695 691.756 150.889 691.756 148.779V128.301H699.49V148.838C699.49 149.893 699.607 150.771 699.842 151.475C700.096 152.178 700.438 152.754 700.867 153.203C701.316 153.633 701.834 153.945 702.42 154.141C703.025 154.316 703.67 154.404 704.354 154.404C706.229 154.404 707.703 154.033 708.777 153.291C709.871 152.529 710.652 151.514 711.121 150.244C711.59 148.955 711.824 147.51 711.824 145.908ZM733.211 134.775V160H725.477V128.301H732.801L733.211 134.775ZM742.85 128.096L742.732 135.303C742.303 135.225 741.814 135.166 741.268 135.127C740.74 135.088 740.242 135.068 739.773 135.068C738.582 135.068 737.537 135.234 736.639 135.566C735.74 135.879 734.988 136.338 734.383 136.943C733.797 137.549 733.348 138.291 733.035 139.17C732.723 140.029 732.547 141.006 732.508 142.1L730.838 141.895C730.838 139.883 731.043 138.018 731.453 136.299C731.863 134.58 732.459 133.076 733.24 131.787C734.021 130.498 734.998 129.502 736.17 128.799C737.361 128.076 738.729 127.715 740.271 127.715C740.701 127.715 741.16 127.754 741.648 127.832C742.156 127.891 742.557 127.979 742.85 128.096ZM760.75 160.586C758.348 160.586 756.189 160.195 754.275 159.414C752.361 158.633 750.73 157.549 749.383 156.162C748.055 154.756 747.029 153.125 746.307 151.27C745.604 149.395 745.252 147.383 745.252 145.234V144.062C745.252 141.621 745.604 139.404 746.307 137.412C747.01 135.4 748.006 133.672 749.295 132.227C750.584 130.781 752.127 129.668 753.924 128.887C755.721 128.105 757.703 127.715 759.871 127.715C762.117 127.715 764.1 128.096 765.818 128.857C767.537 129.6 768.973 130.654 770.125 132.021C771.277 133.389 772.146 135.029 772.732 136.943C773.318 138.838 773.611 140.938 773.611 143.242V146.494H748.768V141.162H765.994V140.576C765.955 139.346 765.721 138.223 765.291 137.207C764.861 136.172 764.197 135.352 763.299 134.746C762.4 134.121 761.238 133.809 759.812 133.809C758.66 133.809 757.654 134.062 756.795 134.57C755.955 135.059 755.252 135.762 754.686 136.68C754.139 137.578 753.729 138.652 753.455 139.902C753.182 141.152 753.045 142.539 753.045 144.062V145.234C753.045 146.562 753.221 147.793 753.572 148.926C753.943 150.059 754.48 151.045 755.184 151.885C755.906 152.705 756.766 153.35 757.762 153.818C758.777 154.268 759.93 154.492 761.219 154.492C762.84 154.492 764.305 154.18 765.613 153.555C766.941 152.91 768.094 151.963 769.07 150.713L772.967 154.756C772.303 155.732 771.404 156.67 770.271 157.568C769.158 158.467 767.811 159.199 766.229 159.766C764.646 160.312 762.82 160.586 760.75 160.586ZM792.566 147.197H785.564C785.584 145.42 785.73 143.896 786.004 142.627C786.297 141.357 786.775 140.215 787.439 139.199C788.104 138.164 789.002 137.109 790.135 136.035C791.033 135.195 791.834 134.404 792.537 133.662C793.26 132.9 793.826 132.109 794.236 131.289C794.646 130.449 794.852 129.502 794.852 128.447C794.852 127.256 794.656 126.26 794.266 125.459C793.895 124.658 793.338 124.053 792.596 123.643C791.873 123.213 790.965 122.998 789.871 122.998C788.973 122.998 788.123 123.184 787.322 123.555C786.521 123.926 785.877 124.502 785.389 125.283C784.9 126.045 784.637 127.041 784.598 128.271H776.834C776.893 125.713 777.498 123.584 778.65 121.885C779.803 120.166 781.355 118.887 783.309 118.047C785.262 117.188 787.449 116.758 789.871 116.758C792.547 116.758 794.832 117.207 796.727 118.105C798.641 118.984 800.096 120.273 801.092 121.973C802.107 123.672 802.615 125.723 802.615 128.125C802.615 129.844 802.283 131.387 801.619 132.754C800.955 134.102 800.076 135.361 798.982 136.533C797.889 137.705 796.707 138.887 795.438 140.078C794.324 141.074 793.572 142.139 793.182 143.271C792.791 144.404 792.586 145.713 792.566 147.197ZM784.832 156.309C784.832 155.137 785.223 154.16 786.004 153.379C786.805 152.598 787.879 152.207 789.227 152.207C790.574 152.207 791.639 152.598 792.42 153.379C793.221 154.16 793.621 155.137 793.621 156.309C793.621 157.441 793.221 158.398 792.42 159.18C791.639 159.961 790.574 160.352 789.227 160.352C787.879 160.352 786.805 159.961 786.004 159.18C785.223 158.398 784.832 157.441 784.832 156.309Z" fill="#FFA229"/>
<defs>
<radialGradient id="paint0_radial_1057_11282" cx="0" cy="0" r="1" gradientUnits="userSpaceOnUse" gradientTransform="translate(909 630) scale(72)">
<stop offset="0.23" stop-color="#687686"/>
<stop offset="0.41" stop-color="#8F99A5" stop-opacity="0.74"/>
<stop offset="0.81" stop-color="#DFE2E6" stop-opacity="0.21"/>
<stop offset="1" stop-color="white" stop-opacity="0"/>
</radialGradient>
<radialGradient id="paint1_radial_1057_11282" cx="0" cy="0" r="1" gradientUnits="userSpaceOnUse" gradientTransform="translate(207 829) scale(56)">
<stop offset="0.23" stop-color="#687686"/>
<stop offset="0.41" stop-color="#8F99A5" stop-opacity="0.74"/>
<stop offset="0.81" stop-color="#DFE2E6" stop-opacity="0.21"/>
<stop offset="1" stop-color="white" stop-opacity="0"/>
</radialGradient>
</defs>
</svg>
