<svg width="1025" height="1366" viewBox="0 0 1025 1366" fill="none" xmlns="http://www.w3.org/2000/svg">
<rect width="1025" height="1366" fill="#FFFAFA"/>
<g filter="url(#filter0_d_645_121)">
<path fill-rule="evenodd" clip-rule="evenodd" d="M945.956 319C968.065 319 985.98 336.935 985.956 359.044L985.801 500.486C985.777 522.56 967.876 540.442 945.801 540.442H818.055H74C51.9086 540.442 34 522.533 34 500.442V359C34 336.909 51.9086 319 74 319H945.956Z" fill="white"/>
</g>
<path d="M468.428 440.576H475.508C475.281 443.276 474.526 445.683 473.242 447.798C471.958 449.894 470.155 451.546 467.833 452.754C465.511 453.962 462.688 454.566 459.365 454.566C456.816 454.566 454.522 454.113 452.483 453.207C450.444 452.282 448.698 450.979 447.244 449.299C445.79 447.6 444.676 445.551 443.902 443.153C443.147 440.756 442.77 438.075 442.77 435.11V431.684C442.77 428.719 443.157 426.038 443.931 423.641C444.724 421.243 445.856 419.194 447.329 417.495C448.802 415.777 450.567 414.465 452.625 413.559C454.702 412.652 457.034 412.199 459.62 412.199C462.905 412.199 465.681 412.803 467.946 414.012C470.212 415.22 471.968 416.891 473.214 419.024C474.479 421.158 475.253 423.603 475.536 426.359H468.456C468.267 424.585 467.852 423.065 467.21 421.8C466.587 420.535 465.662 419.572 464.435 418.911C463.207 418.231 461.603 417.892 459.62 417.892C457.996 417.892 456.58 418.194 455.372 418.798C454.164 419.402 453.154 420.289 452.342 421.46C451.53 422.631 450.916 424.075 450.501 425.793C450.104 427.492 449.906 429.437 449.906 431.627V435.11C449.906 437.187 450.086 439.075 450.444 440.774C450.822 442.455 451.388 443.899 452.144 445.107C452.918 446.316 453.899 447.25 455.089 447.911C456.278 448.572 457.704 448.902 459.365 448.902C461.385 448.902 463.019 448.581 464.265 447.939C465.53 447.298 466.483 446.363 467.125 445.136C467.786 443.89 468.22 442.37 468.428 440.576ZM479.982 439.019V438.367C479.982 436.158 480.303 434.11 480.945 432.222C481.587 430.315 482.512 428.663 483.721 427.266C484.948 425.85 486.439 424.755 488.195 423.98C489.97 423.188 491.971 422.791 494.199 422.791C496.446 422.791 498.447 423.188 500.203 423.98C501.978 424.755 503.479 425.85 504.706 427.266C505.933 428.663 506.868 430.315 507.51 432.222C508.152 434.11 508.473 436.158 508.473 438.367V439.019C508.473 441.228 508.152 443.276 507.51 445.164C506.868 447.052 505.933 448.704 504.706 450.12C503.479 451.517 501.987 452.612 500.231 453.405C498.476 454.179 496.484 454.566 494.256 454.566C492.009 454.566 489.998 454.179 488.224 453.405C486.468 452.612 484.976 451.517 483.749 450.12C482.522 448.704 481.587 447.052 480.945 445.164C480.303 443.276 479.982 441.228 479.982 439.019ZM486.808 438.367V439.019C486.808 440.397 486.949 441.7 487.232 442.927C487.516 444.154 487.959 445.23 488.563 446.155C489.168 447.08 489.942 447.807 490.886 448.336C491.83 448.865 492.953 449.129 494.256 449.129C495.521 449.129 496.616 448.865 497.541 448.336C498.485 447.807 499.259 447.08 499.863 446.155C500.467 445.23 500.911 444.154 501.194 442.927C501.496 441.7 501.647 440.397 501.647 439.019V438.367C501.647 437.008 501.496 435.724 501.194 434.516C500.911 433.288 500.458 432.203 499.835 431.259C499.231 430.315 498.457 429.578 497.513 429.05C496.588 428.502 495.483 428.229 494.199 428.229C492.915 428.229 491.801 428.502 490.857 429.05C489.932 429.578 489.168 430.315 488.563 431.259C487.959 432.203 487.516 433.288 487.232 434.516C486.949 435.724 486.808 437.008 486.808 438.367ZM520.962 429.899V454H514.137V423.357H520.565L520.962 429.899ZM519.744 437.546L517.535 437.518C517.554 435.346 517.856 433.354 518.441 431.542C519.046 429.729 519.876 428.172 520.934 426.869C522.01 425.566 523.294 424.566 524.785 423.867C526.277 423.15 527.938 422.791 529.77 422.791C531.242 422.791 532.573 422.999 533.763 423.414C534.971 423.811 536 424.462 536.85 425.368C537.718 426.274 538.379 427.454 538.832 428.908C539.285 430.343 539.512 432.108 539.512 434.204V454H532.658V434.176C532.658 432.703 532.441 431.542 532.007 430.692C531.591 429.824 530.978 429.21 530.166 428.852C529.373 428.474 528.382 428.285 527.192 428.285C526.022 428.285 524.974 428.531 524.049 429.021C523.124 429.512 522.34 430.183 521.698 431.032C521.075 431.882 520.594 432.864 520.254 433.978C519.914 435.091 519.744 436.281 519.744 437.546ZM563.669 445.702C563.669 445.022 563.499 444.409 563.159 443.861C562.819 443.295 562.168 442.785 561.205 442.332C560.261 441.879 558.864 441.464 557.014 441.086C555.39 440.727 553.898 440.302 552.539 439.812C551.199 439.302 550.047 438.688 549.084 437.971C548.121 437.253 547.375 436.404 546.847 435.422C546.318 434.44 546.054 433.307 546.054 432.023C546.054 430.777 546.327 429.597 546.875 428.483C547.423 427.369 548.206 426.388 549.226 425.538C550.245 424.688 551.482 424.018 552.936 423.527C554.408 423.036 556.051 422.791 557.863 422.791C560.431 422.791 562.631 423.225 564.462 424.094C566.312 424.943 567.728 426.104 568.71 427.577C569.692 429.031 570.183 430.674 570.183 432.505H563.357C563.357 431.693 563.15 430.938 562.734 430.239C562.338 429.522 561.734 428.946 560.922 428.512C560.11 428.059 559.09 427.832 557.863 427.832C556.693 427.832 555.72 428.021 554.946 428.398C554.191 428.757 553.625 429.229 553.247 429.814C552.888 430.4 552.709 431.042 552.709 431.74C552.709 432.25 552.803 432.713 552.992 433.128C553.2 433.524 553.54 433.893 554.012 434.232C554.484 434.553 555.126 434.855 555.938 435.139C556.768 435.422 557.807 435.696 559.053 435.96C561.394 436.451 563.405 437.083 565.085 437.857C566.784 438.613 568.087 439.594 568.993 440.803C569.899 441.992 570.353 443.503 570.353 445.334C570.353 446.693 570.06 447.939 569.475 449.072C568.908 450.186 568.077 451.159 566.982 451.989C565.887 452.801 564.575 453.434 563.046 453.887C561.535 454.34 559.836 454.566 557.948 454.566C555.173 454.566 552.822 454.076 550.896 453.094C548.971 452.093 547.507 450.819 546.507 449.271C545.525 447.703 545.034 446.08 545.034 444.399H551.633C551.708 445.664 552.058 446.674 552.681 447.43C553.323 448.166 554.116 448.704 555.06 449.044C556.022 449.365 557.014 449.525 558.033 449.525C559.26 449.525 560.289 449.365 561.12 449.044C561.951 448.704 562.583 448.251 563.018 447.685C563.452 447.099 563.669 446.438 563.669 445.702ZM590.375 423.357V428.342H573.1V423.357H590.375ZM578.084 415.853H584.909V445.532C584.909 446.476 585.041 447.203 585.306 447.713C585.589 448.204 585.976 448.534 586.467 448.704C586.958 448.874 587.534 448.959 588.194 448.959C588.666 448.959 589.119 448.931 589.554 448.874C589.988 448.817 590.337 448.761 590.602 448.704L590.63 453.915C590.063 454.085 589.403 454.236 588.647 454.368C587.911 454.5 587.062 454.566 586.099 454.566C584.532 454.566 583.144 454.293 581.936 453.745C580.727 453.179 579.783 452.263 579.104 450.998C578.424 449.733 578.084 448.053 578.084 445.957V415.853ZM602.496 429.191V454H595.671V423.357H602.185L602.496 429.191ZM611.87 423.159L611.813 429.503C611.398 429.427 610.945 429.371 610.454 429.333C609.982 429.295 609.51 429.276 609.038 429.276C607.868 429.276 606.839 429.446 605.951 429.786C605.064 430.107 604.318 430.579 603.714 431.202C603.129 431.806 602.675 432.543 602.354 433.411C602.034 434.28 601.845 435.252 601.788 436.328L600.23 436.441C600.23 434.516 600.419 432.731 600.797 431.089C601.174 429.446 601.741 428.002 602.496 426.756C603.27 425.51 604.233 424.537 605.385 423.839C606.555 423.14 607.905 422.791 609.435 422.791C609.85 422.791 610.294 422.829 610.766 422.904C611.257 422.98 611.625 423.065 611.87 423.159ZM634.583 446.778V423.357H641.437V454H634.979L634.583 446.778ZM635.546 440.406L637.84 440.35C637.84 442.408 637.613 444.305 637.16 446.042C636.707 447.76 636.008 449.261 635.064 450.545C634.12 451.81 632.912 452.801 631.439 453.519C629.967 454.217 628.201 454.566 626.144 454.566C624.652 454.566 623.283 454.349 622.037 453.915C620.791 453.481 619.715 452.811 618.809 451.904C617.921 450.998 617.232 449.818 616.741 448.364C616.25 446.91 616.005 445.174 616.005 443.153V423.357H622.83V443.21C622.83 444.324 622.962 445.258 623.227 446.014C623.491 446.75 623.85 447.345 624.303 447.798C624.756 448.251 625.285 448.572 625.889 448.761C626.493 448.95 627.135 449.044 627.814 449.044C629.759 449.044 631.288 448.666 632.402 447.911C633.535 447.137 634.338 446.099 634.81 444.796C635.3 443.493 635.546 442.03 635.546 440.406ZM660.949 449.129C662.063 449.129 663.064 448.912 663.951 448.478C664.857 448.024 665.584 447.401 666.132 446.608C666.698 445.815 667.01 444.9 667.066 443.861H673.495C673.457 445.844 672.872 447.647 671.739 449.271C670.606 450.894 669.105 452.188 667.236 453.15C665.367 454.094 663.3 454.566 661.034 454.566C658.693 454.566 656.654 454.17 654.917 453.377C653.18 452.565 651.736 451.451 650.584 450.035C649.432 448.619 648.564 446.986 647.979 445.136C647.412 443.285 647.129 441.303 647.129 439.188V438.197C647.129 436.083 647.412 434.1 647.979 432.25C648.564 430.381 649.432 428.738 650.584 427.322C651.736 425.906 653.18 424.802 654.917 424.009C656.654 423.197 658.684 422.791 661.006 422.791C663.46 422.791 665.613 423.282 667.463 424.264C669.313 425.227 670.767 426.576 671.824 428.313C672.9 430.032 673.457 432.033 673.495 434.317H667.066C667.01 433.185 666.727 432.165 666.217 431.259C665.726 430.334 665.027 429.597 664.121 429.05C663.234 428.502 662.167 428.229 660.921 428.229C659.543 428.229 658.4 428.512 657.494 429.078C656.588 429.626 655.88 430.381 655.37 431.344C654.86 432.288 654.492 433.354 654.266 434.544C654.058 435.715 653.954 436.932 653.954 438.197V439.188C653.954 440.453 654.058 441.681 654.266 442.87C654.473 444.06 654.832 445.126 655.342 446.07C655.87 446.995 656.588 447.741 657.494 448.308C658.4 448.855 659.552 449.129 660.949 449.129ZM692.781 423.357V428.342H675.506V423.357H692.781ZM680.49 415.853H687.315V445.532C687.315 446.476 687.448 447.203 687.712 447.713C687.995 448.204 688.382 448.534 688.873 448.704C689.364 448.874 689.94 448.959 690.601 448.959C691.073 448.959 691.526 448.931 691.96 448.874C692.394 448.817 692.743 448.761 693.008 448.704L693.036 453.915C692.47 454.085 691.809 454.236 691.054 454.368C690.317 454.5 689.468 454.566 688.505 454.566C686.938 454.566 685.55 454.293 684.342 453.745C683.133 453.179 682.189 452.263 681.51 450.998C680.83 449.733 680.49 448.053 680.49 445.957V415.853ZM696.066 439.019V438.367C696.066 436.158 696.387 434.11 697.029 432.222C697.671 430.315 698.596 428.663 699.805 427.266C701.032 425.85 702.523 424.755 704.279 423.98C706.054 423.188 708.055 422.791 710.283 422.791C712.53 422.791 714.531 423.188 716.287 423.98C718.062 424.755 719.563 425.85 720.79 427.266C722.017 428.663 722.952 430.315 723.594 432.222C724.236 434.11 724.557 436.158 724.557 438.367V439.019C724.557 441.228 724.236 443.276 723.594 445.164C722.952 447.052 722.017 448.704 720.79 450.12C719.563 451.517 718.071 452.612 716.315 453.405C714.56 454.179 712.568 454.566 710.34 454.566C708.093 454.566 706.082 454.179 704.308 453.405C702.552 452.612 701.06 451.517 699.833 450.12C698.606 448.704 697.671 447.052 697.029 445.164C696.387 443.276 696.066 441.228 696.066 439.019ZM702.892 438.367V439.019C702.892 440.397 703.033 441.7 703.316 442.927C703.6 444.154 704.043 445.23 704.647 446.155C705.252 447.08 706.026 447.807 706.97 448.336C707.914 448.865 709.037 449.129 710.34 449.129C711.605 449.129 712.7 448.865 713.625 448.336C714.569 447.807 715.343 447.08 715.947 446.155C716.551 445.23 716.995 444.154 717.278 442.927C717.58 441.7 717.731 440.397 717.731 439.019V438.367C717.731 437.008 717.58 435.724 717.278 434.516C716.995 433.288 716.542 432.203 715.919 431.259C715.315 430.315 714.541 429.578 713.597 429.05C712.672 428.502 711.567 428.229 710.283 428.229C708.999 428.229 707.885 428.502 706.941 429.05C706.016 429.578 705.252 430.315 704.647 431.259C704.043 432.203 703.6 433.288 703.316 434.516C703.033 435.724 702.892 437.008 702.892 438.367ZM737.131 429.191V454H730.306V423.357H736.819L737.131 429.191ZM746.505 423.159L746.448 429.503C746.033 429.427 745.58 429.371 745.089 429.333C744.617 429.295 744.145 429.276 743.673 429.276C742.502 429.276 741.473 429.446 740.586 429.786C739.699 430.107 738.953 430.579 738.349 431.202C737.763 431.806 737.31 432.543 736.989 433.411C736.668 434.28 736.479 435.252 736.423 436.328L734.865 436.441C734.865 434.516 735.054 432.731 735.432 431.089C735.809 429.446 736.376 428.002 737.131 426.756C737.905 425.51 738.868 424.537 740.02 423.839C741.19 423.14 742.54 422.791 744.069 422.791C744.485 422.791 744.928 422.829 745.4 422.904C745.891 422.98 746.259 423.065 746.505 423.159ZM767.972 445.702C767.972 445.022 767.802 444.409 767.462 443.861C767.122 443.295 766.471 442.785 765.508 442.332C764.564 441.879 763.167 441.464 761.316 441.086C759.693 440.727 758.201 440.302 756.842 439.812C755.501 439.302 754.35 438.688 753.387 437.971C752.424 437.253 751.678 436.404 751.149 435.422C750.621 434.44 750.356 433.307 750.356 432.023C750.356 430.777 750.63 429.597 751.178 428.483C751.725 427.369 752.509 426.388 753.528 425.538C754.548 424.688 755.785 424.018 757.238 423.527C758.711 423.036 760.354 422.791 762.166 422.791C764.734 422.791 766.933 423.225 768.765 424.094C770.615 424.943 772.031 426.104 773.013 427.577C773.994 429.031 774.485 430.674 774.485 432.505H767.66C767.66 431.693 767.452 430.938 767.037 430.239C766.641 429.522 766.036 428.946 765.225 428.512C764.413 428.059 763.393 427.832 762.166 427.832C760.995 427.832 760.023 428.021 759.249 428.398C758.494 428.757 757.927 429.229 757.55 429.814C757.191 430.4 757.012 431.042 757.012 431.74C757.012 432.25 757.106 432.713 757.295 433.128C757.503 433.524 757.842 433.893 758.314 434.232C758.786 434.553 759.428 434.855 760.24 435.139C761.071 435.422 762.109 435.696 763.355 435.96C765.697 436.451 767.707 437.083 769.388 437.857C771.087 438.613 772.39 439.594 773.296 440.803C774.202 441.992 774.655 443.503 774.655 445.334C774.655 446.693 774.363 447.939 773.777 449.072C773.211 450.186 772.38 451.159 771.285 451.989C770.19 452.801 768.878 453.434 767.349 453.887C765.838 454.34 764.139 454.566 762.251 454.566C759.476 454.566 757.125 454.076 755.199 453.094C753.273 452.093 751.81 450.819 750.81 449.271C749.828 447.703 749.337 446.08 749.337 444.399H755.936C756.011 445.664 756.36 446.674 756.983 447.43C757.625 448.166 758.418 448.704 759.362 449.044C760.325 449.365 761.316 449.525 762.336 449.525C763.563 449.525 764.592 449.365 765.423 449.044C766.254 448.704 766.886 448.251 767.32 447.685C767.755 447.099 767.972 446.438 767.972 445.702Z" fill="#1C4670"/>
<path d="M206.503 295.469H86.911L68.0938 314.522V383.005C68.0938 423.436 102.698 456.224 145.445 456.224C187.535 456.224 222.514 424.107 222.514 383.005V314.522L206.503 295.469Z" fill="url(#paint0_linear_645_121)"/>
<path d="M126.703 408.062C120.896 408.062 116.404 406.435 113.227 403.18C110.076 399.924 108.5 395.237 108.5 389.117V358.102C108.5 351.643 109.997 346.695 112.992 343.258C116.013 339.794 120.583 338.062 126.703 338.062C132.849 338.062 137.419 339.794 140.414 343.258C143.409 346.695 144.906 351.643 144.906 358.102V389.117C144.906 395.237 143.331 399.924 140.18 403.18C137.029 406.435 132.536 408.062 126.703 408.062ZM126.703 395.406C127.771 395.406 128.604 394.924 129.203 393.961C129.802 392.997 130.102 391.917 130.102 390.719V356.773C130.102 355.159 129.919 353.753 129.555 352.555C129.216 351.331 128.266 350.719 126.703 350.719C125.141 350.719 124.177 351.331 123.812 352.555C123.474 353.753 123.305 355.159 123.305 356.773V390.719C123.305 391.917 123.604 392.997 124.203 393.961C124.828 394.924 125.661 395.406 126.703 395.406ZM148.891 407.438V404.156C148.891 400.745 149.411 397.685 150.453 394.977C151.521 392.242 152.888 389.716 154.555 387.398C156.221 385.055 157.979 382.763 159.828 380.523C161.625 378.336 163.331 376.096 164.945 373.805C166.586 371.487 167.914 368.987 168.93 366.305C169.971 363.596 170.492 360.562 170.492 357.203C170.492 355.589 170.245 354.208 169.75 353.062C169.281 351.891 168.292 351.305 166.781 351.305C164.49 351.305 163.344 353.349 163.344 357.438V365.836H148.891C148.865 365.237 148.826 364.56 148.773 363.805C148.747 363.049 148.734 362.32 148.734 361.617C148.734 356.669 149.255 352.477 150.297 349.039C151.339 345.576 153.174 342.945 155.805 341.148C158.461 339.326 162.185 338.414 166.977 338.414C172.68 338.414 177.107 340.016 180.258 343.219C183.435 346.422 185.023 350.992 185.023 356.93C185.023 360.966 184.503 364.508 183.461 367.555C182.419 370.576 181.039 373.336 179.32 375.836C177.602 378.31 175.714 380.784 173.656 383.258C172.198 385.003 170.779 386.786 169.398 388.609C168.044 390.432 166.846 392.385 165.805 394.469H184.555V407.438H148.891Z" fill="white"/>
<path d="M239.586 286.008H51.0938L68.1222 309.039H222.543L239.586 286.008Z" fill="url(#paint1_linear_645_121)"/>
<path d="M51.0625 286.008C41.5014 286.008 34.0156 293.342 34.0156 302.389V309.039H68.1093V302.389C68.1093 293.342 60.6272 286.008 51.0625 286.008Z" fill="url(#paint2_linear_645_121)"/>
<path d="M239.562 286.008C249.131 286.008 256.617 293.342 256.617 302.389V309.039H222.516V302.389C222.516 293.342 229.998 286.008 239.562 286.008Z" fill="url(#paint3_linear_645_121)"/>
<g filter="url(#filter1_d_645_121)">
<path fill-rule="evenodd" clip-rule="evenodd" d="M945.956 46C968.065 46 985.98 63.9353 985.956 86.0438L985.801 227.482C985.777 249.556 967.876 267.438 945.801 267.438H818.055H74C51.9086 267.438 34 249.53 34 227.438V86C34 63.9086 51.9086 46 74 46H945.956Z" fill="white"/>
</g>
<path d="M504.84 162.365H494.333L494.276 157.183H503.452C505 157.183 506.312 156.956 507.389 156.503C508.484 156.031 509.314 155.361 509.881 154.492C510.447 153.605 510.73 152.538 510.73 151.292C510.73 149.914 510.466 148.79 509.938 147.922C509.409 147.053 508.597 146.421 507.502 146.024C506.426 145.628 505.048 145.43 503.367 145.43H496.485V181H489.377V139.766H503.367C505.633 139.766 507.653 139.983 509.428 140.417C511.221 140.851 512.741 141.531 513.987 142.456C515.252 143.362 516.206 144.514 516.848 145.911C517.508 147.308 517.839 148.97 517.839 150.896C517.839 152.595 517.433 154.152 516.621 155.568C515.809 156.965 514.61 158.108 513.024 158.995C511.438 159.882 509.465 160.411 507.105 160.581L504.84 162.365ZM504.528 181H492.096L495.296 175.364H504.528C506.133 175.364 507.474 175.1 508.55 174.571C509.626 174.024 510.428 173.278 510.957 172.334C511.505 171.371 511.778 170.248 511.778 168.964C511.778 167.623 511.542 166.462 511.07 165.48C510.598 164.48 509.853 163.715 508.833 163.187C507.813 162.639 506.482 162.365 504.84 162.365H496.854L496.91 157.183H507.304L508.918 159.137C511.184 159.212 513.043 159.713 514.497 160.638C515.97 161.563 517.065 162.762 517.782 164.234C518.5 165.707 518.858 167.293 518.858 168.992C518.858 171.617 518.283 173.816 517.131 175.591C515.998 177.366 514.365 178.715 512.231 179.641C510.098 180.547 507.53 181 504.528 181ZM543.78 173.778V150.357H550.634V181H544.177L543.78 173.778ZM544.743 167.406L547.037 167.35C547.037 169.408 546.811 171.305 546.357 173.042C545.904 174.76 545.206 176.261 544.262 177.545C543.318 178.81 542.109 179.801 540.637 180.519C539.164 181.217 537.399 181.566 535.341 181.566C533.849 181.566 532.48 181.349 531.234 180.915C529.988 180.481 528.912 179.811 528.006 178.904C527.118 177.998 526.429 176.818 525.938 175.364C525.448 173.91 525.202 172.174 525.202 170.153V150.357H532.027V170.21C532.027 171.324 532.16 172.258 532.424 173.014C532.688 173.75 533.047 174.345 533.5 174.798C533.953 175.251 534.482 175.572 535.086 175.761C535.69 175.95 536.332 176.044 537.012 176.044C538.956 176.044 540.486 175.666 541.6 174.911C542.732 174.137 543.535 173.099 544.007 171.796C544.498 170.493 544.743 169.03 544.743 167.406ZM564.936 150.357V181H558.082V150.357H564.936ZM557.629 142.314C557.629 141.276 557.969 140.417 558.648 139.737C559.347 139.039 560.31 138.689 561.537 138.689C562.745 138.689 563.699 139.039 564.397 139.737C565.096 140.417 565.445 141.276 565.445 142.314C565.445 143.334 565.096 144.184 564.397 144.863C563.699 145.543 562.745 145.883 561.537 145.883C560.31 145.883 559.347 145.543 558.648 144.863C557.969 144.184 557.629 143.334 557.629 142.314ZM579.719 137.5V181H572.865V137.5H579.719ZM605.887 174.656V137.5H612.74V181H606.538L605.887 174.656ZM585.949 166.019V165.424C585.949 163.102 586.223 160.987 586.771 159.08C587.318 157.154 588.111 155.502 589.149 154.124C590.188 152.727 591.453 151.66 592.944 150.924C594.436 150.169 596.116 149.791 597.985 149.791C599.836 149.791 601.459 150.15 602.856 150.867C604.254 151.585 605.443 152.614 606.425 153.954C607.407 155.276 608.19 156.862 608.775 158.712C609.361 160.543 609.776 162.582 610.021 164.829V166.727C609.776 168.917 609.361 170.918 608.775 172.73C608.19 174.543 607.407 176.11 606.425 177.432C605.443 178.753 604.244 179.773 602.828 180.49C601.431 181.208 599.798 181.566 597.929 181.566C596.078 181.566 594.408 181.179 592.916 180.405C591.443 179.631 590.188 178.546 589.149 177.148C588.111 175.751 587.318 174.109 586.771 172.221C586.223 170.314 585.949 168.246 585.949 166.019ZM592.774 165.424V166.019C592.774 167.416 592.897 168.718 593.143 169.927C593.407 171.135 593.813 172.202 594.36 173.127C594.908 174.033 595.616 174.751 596.484 175.279C597.372 175.789 598.429 176.044 599.656 176.044C601.204 176.044 602.479 175.704 603.479 175.024C604.48 174.345 605.264 173.429 605.83 172.277C606.415 171.107 606.812 169.804 607.02 168.369V163.243C606.906 162.129 606.67 161.091 606.312 160.128C605.972 159.165 605.509 158.325 604.924 157.607C604.339 156.871 603.612 156.305 602.743 155.908C601.894 155.493 600.883 155.285 599.713 155.285C598.467 155.285 597.41 155.549 596.541 156.078C595.673 156.607 594.955 157.334 594.389 158.259C593.841 159.184 593.435 160.26 593.171 161.487C592.907 162.715 592.774 164.027 592.774 165.424ZM633.386 181.566C631.12 181.566 629.072 181.198 627.24 180.462C625.428 179.707 623.88 178.659 622.596 177.318C621.331 175.978 620.358 174.401 619.679 172.589C618.999 170.776 618.659 168.822 618.659 166.727V165.594C618.659 163.196 619.008 161.025 619.707 159.08C620.406 157.135 621.378 155.474 622.624 154.096C623.87 152.699 625.343 151.632 627.042 150.896C628.741 150.159 630.582 149.791 632.564 149.791C634.755 149.791 636.671 150.159 638.313 150.896C639.956 151.632 641.315 152.67 642.392 154.011C643.487 155.332 644.299 156.909 644.827 158.74C645.375 160.572 645.648 162.592 645.648 164.801V167.718H621.973V162.818H638.908V162.28C638.87 161.053 638.625 159.901 638.172 158.825C637.738 157.749 637.067 156.881 636.161 156.22C635.255 155.559 634.047 155.229 632.536 155.229C631.403 155.229 630.393 155.474 629.506 155.965C628.637 156.437 627.91 157.126 627.325 158.032C626.74 158.938 626.287 160.034 625.966 161.317C625.664 162.582 625.513 164.008 625.513 165.594V166.727C625.513 168.067 625.692 169.313 626.051 170.465C626.428 171.598 626.976 172.589 627.693 173.438C628.411 174.288 629.279 174.958 630.299 175.449C631.318 175.921 632.479 176.157 633.782 176.157C635.425 176.157 636.888 175.827 638.172 175.166C639.456 174.505 640.57 173.571 641.514 172.362L645.11 175.846C644.45 176.809 643.59 177.734 642.533 178.621C641.476 179.49 640.183 180.198 638.653 180.745C637.143 181.293 635.387 181.566 633.386 181.566ZM657.826 156.191V181H651.001V150.357H657.515L657.826 156.191ZM667.2 150.159L667.144 156.503C666.728 156.427 666.275 156.371 665.784 156.333C665.312 156.295 664.84 156.276 664.368 156.276C663.198 156.276 662.169 156.446 661.281 156.786C660.394 157.107 659.648 157.579 659.044 158.202C658.459 158.806 658.006 159.543 657.685 160.411C657.364 161.28 657.175 162.252 657.118 163.328L655.561 163.441C655.561 161.516 655.749 159.731 656.127 158.089C656.505 156.446 657.071 155.002 657.826 153.756C658.6 152.51 659.563 151.537 660.715 150.839C661.885 150.14 663.235 149.791 664.765 149.791C665.18 149.791 665.624 149.829 666.096 149.904C666.587 149.98 666.955 150.065 667.2 150.159ZM688.667 172.702C688.667 172.022 688.497 171.409 688.157 170.861C687.817 170.295 687.166 169.785 686.203 169.332C685.259 168.879 683.862 168.464 682.012 168.086C680.388 167.727 678.896 167.302 677.537 166.812C676.197 166.302 675.045 165.688 674.082 164.971C673.119 164.253 672.373 163.404 671.845 162.422C671.316 161.44 671.052 160.307 671.052 159.023C671.052 157.777 671.326 156.597 671.873 155.483C672.421 154.369 673.204 153.388 674.224 152.538C675.243 151.688 676.48 151.018 677.934 150.527C679.406 150.036 681.049 149.791 682.861 149.791C685.429 149.791 687.629 150.225 689.46 151.094C691.31 151.943 692.726 153.104 693.708 154.577C694.69 156.031 695.181 157.674 695.181 159.505H688.355C688.355 158.693 688.148 157.938 687.732 157.239C687.336 156.522 686.732 155.946 685.92 155.512C685.108 155.059 684.089 154.832 682.861 154.832C681.691 154.832 680.718 155.021 679.944 155.398C679.189 155.757 678.623 156.229 678.245 156.814C677.886 157.4 677.707 158.042 677.707 158.74C677.707 159.25 677.801 159.713 677.99 160.128C678.198 160.524 678.538 160.893 679.01 161.232C679.482 161.553 680.124 161.855 680.936 162.139C681.766 162.422 682.805 162.696 684.051 162.96C686.392 163.451 688.403 164.083 690.083 164.857C691.782 165.613 693.085 166.594 693.991 167.803C694.897 168.992 695.351 170.503 695.351 172.334C695.351 173.693 695.058 174.939 694.473 176.072C693.906 177.186 693.076 178.159 691.98 178.989C690.885 179.801 689.573 180.434 688.044 180.887C686.534 181.34 684.834 181.566 682.946 181.566C680.171 181.566 677.82 181.076 675.895 180.094C673.969 179.093 672.506 177.819 671.505 176.271C670.523 174.703 670.032 173.08 670.032 171.399H676.631C676.706 172.664 677.056 173.674 677.679 174.43C678.321 175.166 679.114 175.704 680.058 176.044C681.021 176.365 682.012 176.525 683.031 176.525C684.258 176.525 685.287 176.365 686.118 176.044C686.949 175.704 687.581 175.251 688.016 174.685C688.45 174.099 688.667 173.438 688.667 172.702Z" fill="#1C4670"/>
<path d="M206.511 23.1875H86.9188L68.1016 42.2409V110.727C68.1016 151.162 102.706 183.946 145.453 183.946C187.543 183.946 222.522 151.826 222.522 110.727V42.2409L206.511 23.1875Z" fill="url(#paint4_linear_645_121)"/>
<path d="M130.75 132C124.943 132 120.451 130.372 117.273 127.117C114.122 123.862 112.547 119.174 112.547 113.055V82.0391C112.547 75.5807 114.044 70.6328 117.039 67.1953C120.06 63.7318 124.63 62 130.75 62C136.896 62 141.466 63.7318 144.461 67.1953C147.456 70.6328 148.953 75.5807 148.953 82.0391V113.055C148.953 119.174 147.378 123.862 144.227 127.117C141.076 130.372 136.583 132 130.75 132ZM130.75 119.344C131.818 119.344 132.651 118.862 133.25 117.898C133.849 116.935 134.148 115.854 134.148 114.656V80.7109C134.148 79.0964 133.966 77.6901 133.602 76.4922C133.263 75.2682 132.312 74.6562 130.75 74.6562C129.188 74.6562 128.224 75.2682 127.859 76.4922C127.521 77.6901 127.352 79.0964 127.352 80.7109V114.656C127.352 115.854 127.651 116.935 128.25 117.898C128.875 118.862 129.708 119.344 130.75 119.344ZM160.008 131.375V78.4062C159.07 79.526 157.781 80.4375 156.141 81.1406C154.5 81.8177 152.951 82.1562 151.492 82.1562V71.1797C152.872 70.9714 154.357 70.5286 155.945 69.8516C157.534 69.1484 159.005 68.1979 160.359 67C161.74 65.776 162.794 64.3047 163.523 62.5859H174.578V131.375H160.008Z" fill="white"/>
<path d="M239.586 23.1875H51.0938L68.1222 46.219H222.543L239.586 23.1875Z" fill="url(#paint5_linear_645_121)"/>
<path d="M51.0625 23.1875C41.5014 23.1875 34.0156 30.5219 34.0156 39.5726V46.219H68.1093V39.5726C68.1093 30.5219 60.6272 23.1875 51.0625 23.1875Z" fill="url(#paint6_linear_645_121)"/>
<path d="M239.562 23.1875C249.131 23.1875 256.617 30.5219 256.617 39.5726V46.219H222.516V39.5726C222.516 30.5219 229.998 23.1875 239.562 23.1875Z" fill="url(#paint7_linear_645_121)"/>
<g filter="url(#filter2_d_645_121)">
<path fill-rule="evenodd" clip-rule="evenodd" d="M945.956 848C968.065 848 985.98 865.935 985.956 888.044L985.801 1029.49C985.777 1051.56 967.876 1069.44 945.801 1069.44H818.055H74C51.9086 1069.44 34 1051.53 34 1029.44V888C34 865.909 51.9086 848 74 848H945.956Z" fill="white"/>
</g>
<path d="M498.345 947.26L486.025 983H478.577L494.097 941.766H498.854L498.345 947.26ZM508.653 983L496.306 947.26L495.768 941.766H500.554L516.13 983H508.653ZM508.059 967.707V973.343H485.629V967.707H508.059ZM538.758 976.656V939.5H545.611V983H539.409L538.758 976.656ZM518.82 968.019V967.424C518.82 965.102 519.094 962.987 519.642 961.08C520.189 959.154 520.982 957.502 522.021 956.124C523.059 954.727 524.324 953.66 525.815 952.924C527.307 952.169 528.987 951.791 530.856 951.791C532.707 951.791 534.33 952.15 535.728 952.867C537.125 953.585 538.314 954.614 539.296 955.954C540.278 957.276 541.061 958.862 541.646 960.712C542.232 962.543 542.647 964.582 542.893 966.829V968.727C542.647 970.917 542.232 972.918 541.646 974.73C541.061 976.543 540.278 978.11 539.296 979.432C538.314 980.753 537.115 981.773 535.699 982.49C534.302 983.208 532.669 983.566 530.8 983.566C528.95 983.566 527.279 983.179 525.787 982.405C524.314 981.631 523.059 980.546 522.021 979.148C520.982 977.751 520.189 976.109 519.642 974.221C519.094 972.314 518.82 970.246 518.82 968.019ZM525.646 967.424V968.019C525.646 969.416 525.768 970.718 526.014 971.927C526.278 973.135 526.684 974.202 527.231 975.127C527.779 976.033 528.487 976.751 529.355 977.279C530.243 977.789 531.3 978.044 532.527 978.044C534.076 978.044 535.35 977.704 536.351 977.024C537.351 976.345 538.135 975.429 538.701 974.277C539.286 973.107 539.683 971.804 539.891 970.369V965.243C539.777 964.129 539.541 963.091 539.183 962.128C538.843 961.165 538.38 960.325 537.795 959.607C537.21 958.871 536.483 958.305 535.614 957.908C534.765 957.493 533.755 957.285 532.584 957.285C531.338 957.285 530.281 957.549 529.412 958.078C528.544 958.607 527.826 959.334 527.26 960.259C526.712 961.184 526.306 962.26 526.042 963.487C525.778 964.715 525.646 966.027 525.646 967.424ZM562.717 977.591L570.222 952.357H577.302L566.653 983H562.235L562.717 977.591ZM556.968 952.357L564.614 977.704L564.982 983H560.564L549.859 952.357H556.968ZM588.828 952.357V983H581.975V952.357H588.828ZM581.521 944.314C581.521 943.276 581.861 942.417 582.541 941.737C583.24 941.039 584.202 940.689 585.43 940.689C586.638 940.689 587.591 941.039 588.29 941.737C588.989 942.417 589.338 943.276 589.338 944.314C589.338 945.334 588.989 946.184 588.29 946.863C587.591 947.543 586.638 947.883 585.43 947.883C584.202 947.883 583.24 947.543 582.541 946.863C581.861 946.184 581.521 945.334 581.521 944.314ZM613.495 974.702C613.495 974.022 613.325 973.409 612.985 972.861C612.646 972.295 611.994 971.785 611.031 971.332C610.087 970.879 608.69 970.464 606.84 970.086C605.216 969.727 603.725 969.302 602.365 968.812C601.025 968.302 599.873 967.688 598.91 966.971C597.947 966.253 597.201 965.404 596.673 964.422C596.144 963.44 595.88 962.307 595.88 961.023C595.88 959.777 596.154 958.597 596.701 957.483C597.249 956.369 598.032 955.388 599.052 954.538C600.071 953.688 601.308 953.018 602.762 952.527C604.234 952.036 605.877 951.791 607.689 951.791C610.257 951.791 612.457 952.225 614.288 953.094C616.138 953.943 617.554 955.104 618.536 956.577C619.518 958.031 620.009 959.674 620.009 961.505H613.184C613.184 960.693 612.976 959.938 612.561 959.239C612.164 958.522 611.56 957.946 610.748 957.512C609.936 957.059 608.917 956.832 607.689 956.832C606.519 956.832 605.547 957.021 604.772 957.398C604.017 957.757 603.451 958.229 603.073 958.814C602.715 959.4 602.535 960.042 602.535 960.74C602.535 961.25 602.63 961.713 602.818 962.128C603.026 962.524 603.366 962.893 603.838 963.232C604.31 963.553 604.952 963.855 605.764 964.139C606.594 964.422 607.633 964.696 608.879 964.96C611.22 965.451 613.231 966.083 614.911 966.857C616.61 967.613 617.913 968.594 618.819 969.803C619.726 970.992 620.179 972.503 620.179 974.334C620.179 975.693 619.886 976.939 619.301 978.072C618.734 979.186 617.904 980.159 616.809 980.989C615.714 981.801 614.401 982.434 612.872 982.887C611.362 983.34 609.662 983.566 607.774 983.566C604.999 983.566 602.648 983.076 600.723 982.094C598.797 981.093 597.334 979.819 596.333 978.271C595.351 976.703 594.86 975.08 594.86 973.399H601.459C601.535 974.664 601.884 975.674 602.507 976.43C603.149 977.166 603.942 977.704 604.886 978.044C605.849 978.365 606.84 978.525 607.859 978.525C609.087 978.525 610.116 978.365 610.946 978.044C611.777 977.704 612.41 977.251 612.844 976.685C613.278 976.099 613.495 975.438 613.495 974.702ZM624.852 968.019V967.367C624.852 965.158 625.173 963.11 625.814 961.222C626.456 959.315 627.382 957.663 628.59 956.266C629.817 954.85 631.309 953.755 633.064 952.98C634.839 952.188 636.84 951.791 639.068 951.791C641.315 951.791 643.316 952.188 645.072 952.98C646.847 953.755 648.348 954.85 649.575 956.266C650.802 957.663 651.737 959.315 652.379 961.222C653.021 963.11 653.342 965.158 653.342 967.367V968.019C653.342 970.228 653.021 972.276 652.379 974.164C651.737 976.052 650.802 977.704 649.575 979.12C648.348 980.517 646.856 981.612 645.101 982.405C643.345 983.179 641.353 983.566 639.125 983.566C636.878 983.566 634.868 983.179 633.093 982.405C631.337 981.612 629.845 980.517 628.618 979.12C627.391 977.704 626.456 976.052 625.814 974.164C625.173 972.276 624.852 970.228 624.852 968.019ZM631.677 967.367V968.019C631.677 969.397 631.818 970.7 632.102 971.927C632.385 973.154 632.828 974.23 633.433 975.155C634.037 976.08 634.811 976.807 635.755 977.336C636.699 977.865 637.822 978.129 639.125 978.129C640.39 978.129 641.485 977.865 642.41 977.336C643.354 976.807 644.128 976.08 644.732 975.155C645.337 974.23 645.78 973.154 646.063 971.927C646.366 970.7 646.517 969.397 646.517 968.019V967.367C646.517 966.008 646.366 964.724 646.063 963.516C645.78 962.288 645.327 961.203 644.704 960.259C644.1 959.315 643.326 958.578 642.382 958.05C641.457 957.502 640.352 957.229 639.068 957.229C637.785 957.229 636.671 957.502 635.727 958.05C634.801 958.578 634.037 959.315 633.433 960.259C632.828 961.203 632.385 962.288 632.102 963.516C631.818 964.724 631.677 966.008 631.677 967.367ZM665.916 958.191V983H659.091V952.357H665.604L665.916 958.191ZM675.29 952.159L675.233 958.503C674.818 958.427 674.365 958.371 673.874 958.333C673.402 958.295 672.93 958.276 672.458 958.276C671.287 958.276 670.258 958.446 669.371 958.786C668.484 959.107 667.738 959.579 667.134 960.202C666.549 960.806 666.095 961.543 665.774 962.411C665.453 963.28 665.265 964.252 665.208 965.328L663.65 965.441C663.65 963.516 663.839 961.731 664.217 960.089C664.594 958.446 665.161 957.002 665.916 955.756C666.69 954.51 667.653 953.537 668.805 952.839C669.975 952.14 671.325 951.791 672.854 951.791C673.27 951.791 673.714 951.829 674.186 951.904C674.676 951.98 675.045 952.065 675.29 952.159ZM696.757 974.702C696.757 974.022 696.587 973.409 696.247 972.861C695.907 972.295 695.256 971.785 694.293 971.332C693.349 970.879 691.952 970.464 690.102 970.086C688.478 969.727 686.986 969.302 685.627 968.812C684.286 968.302 683.135 967.688 682.172 966.971C681.209 966.253 680.463 965.404 679.935 964.422C679.406 963.44 679.142 962.307 679.142 961.023C679.142 959.777 679.415 958.597 679.963 957.483C680.51 956.369 681.294 955.388 682.313 954.538C683.333 953.688 684.57 953.018 686.023 952.527C687.496 952.036 689.139 951.791 690.951 951.791C693.519 951.791 695.718 952.225 697.55 953.094C699.4 953.943 700.816 955.104 701.798 956.577C702.78 958.031 703.271 959.674 703.271 961.505H696.445C696.445 960.693 696.238 959.938 695.822 959.239C695.426 958.522 694.822 957.946 694.01 957.512C693.198 957.059 692.178 956.832 690.951 956.832C689.781 956.832 688.808 957.021 688.034 957.398C687.279 957.757 686.713 958.229 686.335 958.814C685.976 959.4 685.797 960.042 685.797 960.74C685.797 961.25 685.891 961.713 686.08 962.128C686.288 962.524 686.628 962.893 687.1 963.232C687.572 963.553 688.214 963.855 689.025 964.139C689.856 964.422 690.895 964.696 692.141 964.96C694.482 965.451 696.493 966.083 698.173 966.857C699.872 967.613 701.175 968.594 702.081 969.803C702.987 970.992 703.44 972.503 703.44 974.334C703.44 975.693 703.148 976.939 702.562 978.072C701.996 979.186 701.165 980.159 700.07 980.989C698.975 981.801 697.663 982.434 696.134 982.887C694.623 983.34 692.924 983.566 691.036 983.566C688.261 983.566 685.91 983.076 683.984 982.094C682.059 981.093 680.595 979.819 679.595 978.271C678.613 976.703 678.122 975.08 678.122 973.399H684.721C684.796 974.664 685.146 975.674 685.769 976.43C686.41 977.166 687.203 977.704 688.147 978.044C689.11 978.365 690.102 978.525 691.121 978.525C692.348 978.525 693.377 978.365 694.208 978.044C695.039 977.704 695.671 977.251 696.105 976.685C696.54 976.099 696.757 975.438 696.757 974.702Z" fill="#1C4670"/>
<path d="M206.503 824.008H86.911L68.0938 843.061V911.544C68.0938 951.975 102.698 984.763 145.445 984.763C187.535 984.763 222.514 952.646 222.514 911.544V843.061L206.503 824.008Z" fill="url(#paint8_linear_645_121)"/>
<path d="M125.703 935.656C119.896 935.656 115.404 934.029 112.227 930.773C109.076 927.518 107.5 922.831 107.5 916.711V885.695C107.5 879.237 108.997 874.289 111.992 870.852C115.013 867.388 119.583 865.656 125.703 865.656C131.849 865.656 136.419 867.388 139.414 870.852C142.409 874.289 143.906 879.237 143.906 885.695V916.711C143.906 922.831 142.331 927.518 139.18 930.773C136.029 934.029 131.536 935.656 125.703 935.656ZM125.703 923C126.771 923 127.604 922.518 128.203 921.555C128.802 920.591 129.102 919.51 129.102 918.312V884.367C129.102 882.753 128.919 881.346 128.555 880.148C128.216 878.924 127.266 878.312 125.703 878.312C124.141 878.312 123.177 878.924 122.812 880.148C122.474 881.346 122.305 882.753 122.305 884.367V918.312C122.305 919.51 122.604 920.591 123.203 921.555C123.828 922.518 124.661 923 125.703 923ZM166.562 935.07V924.172H146.172V913.43L159.18 866.242H180.586V912.688H184.258V924.172H180.586V935.07H166.562ZM158.438 912.688H166.562V878.039L158.438 912.688Z" fill="white"/>
<path d="M239.586 824.008H51.0938L68.1222 847.039H222.543L239.586 824.008Z" fill="url(#paint9_linear_645_121)"/>
<path d="M51.0625 824.008C41.5014 824.008 34.0156 831.342 34.0156 840.389V847.039H68.1093V840.389C68.1093 831.342 60.6272 824.008 51.0625 824.008Z" fill="url(#paint10_linear_645_121)"/>
<path d="M239.562 824.008C249.131 824.008 256.617 831.342 256.617 840.389V847.039H222.516V840.389C222.516 831.342 229.998 824.008 239.562 824.008Z" fill="url(#paint11_linear_645_121)"/>
<g filter="url(#filter3_d_645_121)">
<path fill-rule="evenodd" clip-rule="evenodd" d="M945.956 587.664C968.065 587.664 985.98 605.599 985.956 627.708L985.801 769.146C985.777 791.22 967.876 809.102 945.801 809.102H818.055H74C51.9086 809.102 34 791.194 34 769.102V627.664C34 605.573 51.9086 587.664 74 587.664H945.956Z" fill="white"/>
</g>
<path d="M206.511 565.914H86.9188L68.1016 584.967V653.454C68.1016 693.889 102.706 726.673 145.453 726.673C187.543 726.673 222.522 694.552 222.522 653.454V584.967L206.511 565.914Z" fill="url(#paint12_linear_645_121)"/>
<path d="M127.703 677.562C121.896 677.562 117.404 675.935 114.227 672.68C111.076 669.424 109.5 664.737 109.5 658.617V627.602C109.5 621.143 110.997 616.195 113.992 612.758C117.013 609.294 121.583 607.562 127.703 607.562C133.849 607.562 138.419 609.294 141.414 612.758C144.409 616.195 145.906 621.143 145.906 627.602V658.617C145.906 664.737 144.331 669.424 141.18 672.68C138.029 675.935 133.536 677.562 127.703 677.562ZM127.703 664.906C128.771 664.906 129.604 664.424 130.203 663.461C130.802 662.497 131.102 661.417 131.102 660.219V626.273C131.102 624.659 130.919 623.253 130.555 622.055C130.216 620.831 129.266 620.219 127.703 620.219C126.141 620.219 125.177 620.831 124.812 622.055C124.474 623.253 124.305 624.659 124.305 626.273V660.219C124.305 661.417 124.604 662.497 125.203 663.461C125.828 664.424 126.661 664.906 127.703 664.906ZM166.375 677.719C160.307 677.719 155.893 676.117 153.133 672.914C150.372 669.711 148.992 664.88 148.992 658.422V651.234H163.094V658.461C163.094 660.284 163.315 661.833 163.758 663.109C164.227 664.359 165.255 664.984 166.844 664.984C168.458 664.984 169.487 664.307 169.93 662.953C170.372 661.573 170.594 659.333 170.594 656.234V654.516C170.594 652.146 170.19 650.076 169.383 648.305C168.602 646.534 167.052 645.648 164.734 645.648C164.448 645.648 164.188 645.661 163.953 645.688C163.745 645.688 163.562 645.701 163.406 645.727V633.383C165.776 633.383 167.586 632.862 168.836 631.82C170.086 630.753 170.711 628.982 170.711 626.508C170.711 622.628 169.591 620.688 167.352 620.688C165.893 620.688 164.904 621.26 164.383 622.406C163.888 623.526 163.641 624.958 163.641 626.703V628.773H149.422C149.396 628.461 149.37 628.083 149.344 627.641C149.344 627.198 149.344 626.768 149.344 626.352C149.344 620.049 150.815 615.427 153.758 612.484C156.701 609.542 161.206 608.07 167.273 608.07C178.992 608.07 184.852 614.164 184.852 626.352C184.852 629.737 184.396 632.536 183.484 634.75C182.573 636.938 180.88 638.474 178.406 639.359C180.359 640.297 181.805 641.495 182.742 642.953C183.68 644.411 184.292 646.221 184.578 648.383C184.865 650.544 185.008 653.161 185.008 656.234C185.008 663.109 183.562 668.409 180.672 672.133C177.807 675.857 173.042 677.719 166.375 677.719Z" fill="white"/>
<path d="M239.586 556.453H51.0938L68.1222 579.485H222.543L239.586 556.453Z" fill="url(#paint13_linear_645_121)"/>
<path d="M51.0625 556.453C41.5014 556.453 34.0156 563.788 34.0156 572.838V579.485H68.1093V572.838C68.1093 563.788 60.6272 556.453 51.0625 556.453Z" fill="url(#paint14_linear_645_121)"/>
<path d="M239.562 556.453C249.131 556.453 256.617 563.788 256.617 572.838V579.485H222.516V572.838C222.516 563.788 229.998 556.453 239.562 556.453Z" fill="url(#paint15_linear_645_121)"/>
<g filter="url(#filter4_d_645_121)">
<path fill-rule="evenodd" clip-rule="evenodd" d="M945.956 1114.58C968.065 1114.58 985.98 1132.51 985.956 1154.62L985.801 1296.06C985.777 1318.13 967.876 1336.02 945.801 1336.02H818.055H74C51.9086 1336.02 34 1318.11 34 1296.02V1154.58C34 1132.49 51.9086 1114.58 74 1114.58H945.956Z" fill="white"/>
</g>
<path d="M206.511 1092.83H86.9188L68.1016 1111.88V1180.37C68.1016 1220.8 102.706 1253.59 145.453 1253.59C187.543 1253.59 222.522 1221.47 222.522 1180.37V1111.88L206.511 1092.83Z" fill="url(#paint16_linear_645_121)"/>
<path d="M127.703 1204.48C121.896 1204.48 117.404 1202.85 114.227 1199.59C111.076 1196.34 109.5 1191.65 109.5 1185.53V1154.52C109.5 1148.06 110.997 1143.11 113.992 1139.67C117.013 1136.21 121.583 1134.48 127.703 1134.48C133.849 1134.48 138.419 1136.21 141.414 1139.67C144.409 1143.11 145.906 1148.06 145.906 1154.52V1185.53C145.906 1191.65 144.331 1196.34 141.18 1199.59C138.029 1202.85 133.536 1204.48 127.703 1204.48ZM127.703 1191.82C128.771 1191.82 129.604 1191.34 130.203 1190.38C130.802 1189.41 131.102 1188.33 131.102 1187.13V1153.19C131.102 1151.57 130.919 1150.17 130.555 1148.97C130.216 1147.74 129.266 1147.13 127.703 1147.13C126.141 1147.13 125.177 1147.74 124.812 1148.97C124.474 1150.17 124.305 1151.57 124.305 1153.19V1187.13C124.305 1188.33 124.604 1189.41 125.203 1190.38C125.828 1191.34 126.661 1191.82 127.703 1191.82ZM167.234 1204.83C161.948 1204.83 157.625 1203.53 154.266 1200.92C150.932 1198.29 149.266 1194.27 149.266 1188.85V1178.62H163.562V1184.52C163.562 1185.74 163.628 1186.92 163.758 1188.07C163.914 1189.22 164.253 1190.15 164.773 1190.88C165.294 1191.61 166.115 1191.98 167.234 1191.98C168.719 1191.98 169.695 1191.48 170.164 1190.49C170.633 1189.48 170.867 1188.19 170.867 1186.62V1173.11C170.867 1171.99 170.789 1170.88 170.633 1169.79C170.503 1168.7 170.19 1167.78 169.695 1167.05C169.201 1166.33 168.406 1165.96 167.312 1165.96C164.708 1165.96 163.406 1167.85 163.406 1171.62H150.789V1135.06H183.562V1147.95H163.836V1157.64C164.513 1156.81 165.424 1156.08 166.57 1155.45C167.742 1154.8 169.109 1154.48 170.672 1154.48C173.797 1154.48 176.336 1155.08 178.289 1156.27C180.268 1157.47 181.779 1159.14 182.82 1161.27C183.888 1163.41 184.617 1165.88 185.008 1168.7C185.424 1171.51 185.633 1174.53 185.633 1177.76C185.633 1181.9 185.411 1185.64 184.969 1188.97C184.552 1192.28 183.706 1195.11 182.43 1197.48C181.18 1199.85 179.331 1201.68 176.883 1202.95C174.461 1204.2 171.245 1204.83 167.234 1204.83Z" fill="white"/>
<path d="M239.586 1083.37H51.0938L68.1222 1106.4H222.543L239.586 1083.37Z" fill="url(#paint17_linear_645_121)"/>
<path d="M51.0625 1083.37C41.5014 1083.37 34.0156 1090.7 34.0156 1099.75V1106.4H68.1093V1099.75C68.1093 1090.7 60.6272 1083.37 51.0625 1083.37Z" fill="url(#paint18_linear_645_121)"/>
<path d="M239.562 1083.37C249.131 1083.37 256.617 1090.7 256.617 1099.75V1106.4H222.516V1099.75C222.516 1090.7 229.998 1083.37 239.562 1083.37Z" fill="url(#paint19_linear_645_121)"/>
<path d="M520.293 687.26L507.974 723H500.525L516.045 681.766H520.803L520.293 687.26ZM530.602 723L518.254 687.26L517.716 681.766H522.502L538.078 723H530.602ZM530.007 707.707V713.343H507.577V707.707H530.007ZM561.641 692.357H567.843V722.15C567.843 724.907 567.257 727.248 566.087 729.174C564.916 731.1 563.283 732.563 561.188 733.563C559.092 734.583 556.666 735.093 553.909 735.093C552.739 735.093 551.436 734.923 550.001 734.583C548.585 734.243 547.207 733.696 545.866 732.94C544.545 732.204 543.44 731.232 542.553 730.023L545.753 726.002C546.848 727.305 548.056 728.258 549.378 728.862C550.7 729.466 552.087 729.769 553.541 729.769C555.108 729.769 556.439 729.476 557.534 728.891C558.648 728.324 559.507 727.484 560.111 726.37C560.715 725.256 561.018 723.897 561.018 722.292V699.296L561.641 692.357ZM540.825 708.019V707.424C540.825 705.102 541.108 702.987 541.675 701.08C542.241 699.154 543.053 697.502 544.11 696.124C545.168 694.727 546.451 693.66 547.962 692.924C549.472 692.169 551.181 691.791 553.088 691.791C555.07 691.791 556.76 692.15 558.157 692.867C559.573 693.585 560.753 694.614 561.697 695.954C562.641 697.276 563.378 698.862 563.906 700.712C564.454 702.543 564.86 704.582 565.124 706.829V708.727C564.879 710.917 564.463 712.918 563.878 714.73C563.293 716.543 562.519 718.11 561.556 719.432C560.593 720.753 559.403 721.773 557.987 722.49C556.59 723.208 554.938 723.566 553.031 723.566C551.162 723.566 549.472 723.179 547.962 722.405C546.47 721.631 545.187 720.546 544.11 719.148C543.053 717.751 542.241 716.109 541.675 714.221C541.108 712.314 540.825 710.246 540.825 708.019ZM547.65 707.424V708.019C547.65 709.416 547.783 710.718 548.047 711.927C548.33 713.135 548.755 714.202 549.321 715.127C549.907 716.033 550.643 716.751 551.53 717.279C552.437 717.789 553.503 718.044 554.73 718.044C556.335 718.044 557.647 717.704 558.667 717.024C559.705 716.345 560.498 715.429 561.046 714.277C561.612 713.107 562.009 711.804 562.235 710.369V705.243C562.122 704.129 561.886 703.091 561.527 702.128C561.188 701.165 560.725 700.325 560.14 699.607C559.554 698.871 558.818 698.305 557.931 697.908C557.043 697.493 555.995 697.285 554.787 697.285C553.56 697.285 552.493 697.549 551.587 698.078C550.681 698.607 549.935 699.334 549.35 700.259C548.783 701.184 548.358 702.26 548.075 703.487C547.792 704.715 547.65 706.027 547.65 707.424ZM588.432 723.566C586.166 723.566 584.118 723.198 582.286 722.462C580.474 721.707 578.925 720.659 577.642 719.318C576.377 717.978 575.404 716.401 574.725 714.589C574.045 712.776 573.705 710.822 573.705 708.727V707.594C573.705 705.196 574.054 703.025 574.753 701.08C575.451 699.135 576.424 697.474 577.67 696.096C578.916 694.699 580.389 693.632 582.088 692.896C583.787 692.159 585.628 691.791 587.61 691.791C589.8 691.791 591.717 692.159 593.359 692.896C595.002 693.632 596.361 694.67 597.438 696.011C598.533 697.332 599.344 698.909 599.873 700.74C600.421 702.572 600.694 704.592 600.694 706.801V709.718H577.019V704.818H593.954V704.28C593.916 703.053 593.671 701.901 593.218 700.825C592.784 699.749 592.113 698.881 591.207 698.22C590.301 697.559 589.092 697.229 587.582 697.229C586.449 697.229 585.439 697.474 584.552 697.965C583.683 698.437 582.956 699.126 582.371 700.032C581.786 700.938 581.333 702.034 581.012 703.317C580.71 704.582 580.559 706.008 580.559 707.594V708.727C580.559 710.067 580.738 711.313 581.097 712.465C581.474 713.598 582.022 714.589 582.739 715.438C583.457 716.288 584.325 716.958 585.345 717.449C586.364 717.921 587.525 718.157 588.828 718.157C590.471 718.157 591.934 717.827 593.218 717.166C594.502 716.505 595.616 715.571 596.56 714.362L600.156 717.846C599.495 718.809 598.636 719.734 597.579 720.621C596.522 721.49 595.229 722.198 593.699 722.745C592.189 723.293 590.433 723.566 588.432 723.566ZM612.787 698.899V723H605.962V692.357H612.391L612.787 698.899ZM611.569 706.546L609.36 706.518C609.379 704.346 609.681 702.354 610.267 700.542C610.871 698.729 611.701 697.172 612.759 695.869C613.835 694.566 615.119 693.566 616.61 692.867C618.102 692.15 619.763 691.791 621.595 691.791C623.067 691.791 624.398 691.999 625.588 692.414C626.796 692.811 627.825 693.462 628.675 694.368C629.543 695.274 630.204 696.454 630.657 697.908C631.11 699.343 631.337 701.108 631.337 703.204V723H624.483V703.176C624.483 701.703 624.266 700.542 623.832 699.692C623.417 698.824 622.803 698.21 621.991 697.852C621.198 697.474 620.207 697.285 619.018 697.285C617.847 697.285 616.799 697.531 615.874 698.021C614.949 698.512 614.165 699.183 613.523 700.032C612.9 700.882 612.419 701.864 612.079 702.978C611.739 704.091 611.569 705.281 611.569 706.546ZM652.351 692.357V697.342H635.075V692.357H652.351ZM640.06 684.853H646.885V714.532C646.885 715.476 647.017 716.203 647.281 716.713C647.564 717.204 647.951 717.534 648.442 717.704C648.933 717.874 649.509 717.959 650.17 717.959C650.642 717.959 651.095 717.931 651.529 717.874C651.964 717.817 652.313 717.761 652.577 717.704L652.605 722.915C652.039 723.085 651.378 723.236 650.623 723.368C649.887 723.5 649.037 723.566 648.074 723.566C646.507 723.566 645.119 723.293 643.911 722.745C642.703 722.179 641.759 721.263 641.079 719.998C640.399 718.733 640.06 717.053 640.06 714.957V684.853ZM674.809 714.702C674.809 714.022 674.639 713.409 674.299 712.861C673.959 712.295 673.308 711.785 672.345 711.332C671.401 710.879 670.004 710.464 668.153 710.086C666.53 709.727 665.038 709.302 663.679 708.812C662.338 708.302 661.187 707.688 660.224 706.971C659.261 706.253 658.515 705.404 657.986 704.422C657.458 703.44 657.193 702.307 657.193 701.023C657.193 699.777 657.467 698.597 658.015 697.483C658.562 696.369 659.346 695.388 660.365 694.538C661.385 693.688 662.621 693.018 664.075 692.527C665.548 692.036 667.19 691.791 669.003 691.791C671.571 691.791 673.77 692.225 675.602 693.094C677.452 693.943 678.868 695.104 679.85 696.577C680.831 698.031 681.322 699.674 681.322 701.505H674.497C674.497 700.693 674.289 699.938 673.874 699.239C673.478 698.522 672.873 697.946 672.062 697.512C671.25 697.059 670.23 696.832 669.003 696.832C667.832 696.832 666.86 697.021 666.086 697.398C665.331 697.757 664.764 698.229 664.387 698.814C664.028 699.4 663.849 700.042 663.849 700.74C663.849 701.25 663.943 701.713 664.132 702.128C664.34 702.524 664.679 702.893 665.151 703.232C665.623 703.553 666.265 703.855 667.077 704.139C667.908 704.422 668.946 704.696 670.192 704.96C672.534 705.451 674.544 706.083 676.225 706.857C677.924 707.613 679.227 708.594 680.133 709.803C681.039 710.992 681.492 712.503 681.492 714.334C681.492 715.693 681.2 716.939 680.614 718.072C680.048 719.186 679.217 720.159 678.122 720.989C677.027 721.801 675.715 722.434 674.186 722.887C672.675 723.34 670.976 723.566 669.088 723.566C666.312 723.566 663.962 723.076 662.036 722.094C660.11 721.093 658.647 719.819 657.646 718.271C656.665 716.703 656.174 715.08 656.174 713.399H662.772C662.848 714.664 663.197 715.674 663.82 716.43C664.462 717.166 665.255 717.704 666.199 718.044C667.162 718.365 668.153 718.525 669.173 718.525C670.4 718.525 671.429 718.365 672.26 718.044C673.09 717.704 673.723 717.251 674.157 716.685C674.591 716.099 674.809 715.438 674.809 714.702Z" fill="#1C4670"/>
<path d="M371.802 1202.25V1204.52C371.802 1207.63 371.396 1210.43 370.584 1212.9C369.772 1215.37 368.611 1217.48 367.101 1219.21C365.609 1220.95 363.815 1222.28 361.72 1223.21C359.624 1224.11 357.302 1224.57 354.753 1224.57C352.223 1224.57 349.91 1224.11 347.814 1223.21C345.738 1222.28 343.935 1220.95 342.405 1219.21C340.876 1217.48 339.687 1215.37 338.837 1212.9C338.006 1210.43 337.591 1207.63 337.591 1204.52V1202.25C337.591 1199.13 338.006 1196.35 338.837 1193.9C339.668 1191.42 340.838 1189.32 342.349 1187.58C343.878 1185.82 345.681 1184.49 347.758 1183.59C349.854 1182.66 352.166 1182.2 354.696 1182.2C357.245 1182.2 359.567 1182.66 361.663 1183.59C363.759 1184.49 365.562 1185.82 367.072 1187.58C368.583 1189.32 369.744 1191.42 370.556 1193.9C371.386 1196.35 371.802 1199.13 371.802 1202.25ZM364.693 1204.52V1202.19C364.693 1199.89 364.467 1197.86 364.014 1196.1C363.579 1194.33 362.928 1192.85 362.06 1191.66C361.21 1190.45 360.162 1189.54 358.916 1188.94C357.67 1188.32 356.263 1188 354.696 1188C353.129 1188 351.732 1188.32 350.505 1188.94C349.278 1189.54 348.23 1190.45 347.361 1191.66C346.512 1192.85 345.86 1194.33 345.407 1196.1C344.954 1197.86 344.728 1199.89 344.728 1202.19V1204.52C344.728 1206.82 344.954 1208.86 345.407 1210.63C345.86 1212.41 346.521 1213.91 347.39 1215.14C348.277 1216.34 349.334 1217.26 350.562 1217.88C351.789 1218.49 353.186 1218.79 354.753 1218.79C356.339 1218.79 357.745 1218.49 358.973 1217.88C360.2 1217.26 361.238 1216.34 362.088 1215.14C362.938 1213.91 363.579 1212.41 364.014 1210.63C364.467 1208.86 364.693 1206.82 364.693 1204.52ZM392.277 1193.36V1198.34H375.002V1193.36H392.277ZM379.986 1185.85H386.812V1215.53C386.812 1216.48 386.944 1217.2 387.208 1217.71C387.491 1218.2 387.878 1218.53 388.369 1218.7C388.86 1218.87 389.436 1218.96 390.097 1218.96C390.569 1218.96 391.022 1218.93 391.456 1218.87C391.89 1218.82 392.24 1218.76 392.504 1218.7L392.532 1223.92C391.966 1224.08 391.305 1224.24 390.55 1224.37C389.813 1224.5 388.964 1224.57 388.001 1224.57C386.434 1224.57 385.046 1224.29 383.838 1223.75C382.63 1223.18 381.686 1222.26 381.006 1221C380.326 1219.73 379.986 1218.05 379.986 1215.96V1185.85ZM404.285 1180.5V1224H397.488V1180.5H404.285ZM403.096 1207.55L400.887 1207.52C400.906 1205.4 401.198 1203.45 401.765 1201.66C402.35 1199.86 403.162 1198.3 404.2 1196.98C405.257 1195.64 406.522 1194.61 407.995 1193.9C409.468 1193.16 411.101 1192.79 412.895 1192.79C414.405 1192.79 415.764 1193 416.973 1193.41C418.2 1193.83 419.257 1194.5 420.145 1195.42C421.032 1196.33 421.702 1197.52 422.155 1198.99C422.627 1200.45 422.863 1202.22 422.863 1204.32V1224H416.01V1204.26C416.01 1202.79 415.793 1201.62 415.358 1200.75C414.943 1199.88 414.329 1199.26 413.518 1198.88C412.706 1198.48 411.715 1198.29 410.544 1198.29C409.317 1198.29 408.231 1198.53 407.287 1199.02C406.362 1199.51 405.588 1200.18 404.965 1201.03C404.342 1201.88 403.87 1202.86 403.549 1203.98C403.247 1205.09 403.096 1206.28 403.096 1207.55ZM443.282 1224.57C441.017 1224.57 438.968 1224.2 437.137 1223.46C435.324 1222.71 433.776 1221.66 432.492 1220.32C431.227 1218.98 430.255 1217.4 429.575 1215.59C428.896 1213.78 428.556 1211.82 428.556 1209.73V1208.59C428.556 1206.2 428.905 1204.02 429.604 1202.08C430.302 1200.14 431.274 1198.47 432.521 1197.1C433.767 1195.7 435.239 1194.63 436.938 1193.9C438.638 1193.16 440.479 1192.79 442.461 1192.79C444.651 1192.79 446.567 1193.16 448.21 1193.9C449.853 1194.63 451.212 1195.67 452.288 1197.01C453.383 1198.33 454.195 1199.91 454.724 1201.74C455.271 1203.57 455.545 1205.59 455.545 1207.8V1210.72H431.869V1205.82H448.805V1205.28C448.767 1204.05 448.521 1202.9 448.068 1201.83C447.634 1200.75 446.964 1199.88 446.058 1199.22C445.151 1198.56 443.943 1198.23 442.433 1198.23C441.3 1198.23 440.29 1198.47 439.402 1198.96C438.534 1199.44 437.807 1200.13 437.222 1201.03C436.636 1201.94 436.183 1203.03 435.862 1204.32C435.56 1205.58 435.409 1207.01 435.409 1208.59V1209.73C435.409 1211.07 435.589 1212.31 435.947 1213.46C436.325 1214.6 436.872 1215.59 437.59 1216.44C438.307 1217.29 439.176 1217.96 440.195 1218.45C441.215 1218.92 442.376 1219.16 443.679 1219.16C445.321 1219.16 446.785 1218.83 448.068 1218.17C449.352 1217.51 450.466 1216.57 451.41 1215.36L455.007 1218.85C454.346 1219.81 453.487 1220.73 452.43 1221.62C451.372 1222.49 450.079 1223.2 448.55 1223.75C447.039 1224.29 445.284 1224.57 443.282 1224.57ZM467.723 1199.19V1224H460.897V1193.36H467.411L467.723 1199.19ZM477.097 1193.16L477.04 1199.5C476.625 1199.43 476.172 1199.37 475.681 1199.33C475.209 1199.3 474.737 1199.28 474.265 1199.28C473.094 1199.28 472.065 1199.45 471.178 1199.79C470.29 1200.11 469.545 1200.58 468.94 1201.2C468.355 1201.81 467.902 1202.54 467.581 1203.41C467.26 1204.28 467.071 1205.25 467.015 1206.33L465.457 1206.44C465.457 1204.52 465.646 1202.73 466.023 1201.09C466.401 1199.45 466.967 1198 467.723 1196.76C468.497 1195.51 469.46 1194.54 470.611 1193.84C471.782 1193.14 473.132 1192.79 474.661 1192.79C475.076 1192.79 475.52 1192.83 475.992 1192.9C476.483 1192.98 476.851 1193.06 477.097 1193.16ZM504.086 1182.77V1224H496.978V1182.77H504.086ZM519.011 1199.9V1224H512.186V1193.36H518.614L519.011 1199.9ZM517.793 1207.55L515.584 1207.52C515.603 1205.35 515.905 1203.35 516.49 1201.54C517.094 1199.73 517.925 1198.17 518.982 1196.87C520.059 1195.57 521.342 1194.57 522.834 1193.87C524.326 1193.15 525.987 1192.79 527.818 1192.79C529.291 1192.79 530.622 1193 531.812 1193.41C533.02 1193.81 534.049 1194.46 534.898 1195.37C535.767 1196.27 536.428 1197.45 536.881 1198.91C537.334 1200.34 537.561 1202.11 537.561 1204.2V1224H530.707V1204.18C530.707 1202.7 530.49 1201.54 530.056 1200.69C529.64 1199.82 529.027 1199.21 528.215 1198.85C527.422 1198.47 526.431 1198.29 525.241 1198.29C524.071 1198.29 523.023 1198.53 522.098 1199.02C521.173 1199.51 520.389 1200.18 519.747 1201.03C519.124 1201.88 518.643 1202.86 518.303 1203.98C517.963 1205.09 517.793 1206.28 517.793 1207.55ZM558.574 1193.36V1198.34H541.299V1193.36H558.574ZM546.283 1185.85H553.108V1215.53C553.108 1216.48 553.241 1217.2 553.505 1217.71C553.788 1218.2 554.175 1218.53 554.666 1218.7C555.157 1218.87 555.733 1218.96 556.394 1218.96C556.866 1218.96 557.319 1218.93 557.753 1218.87C558.187 1218.82 558.536 1218.76 558.801 1218.7L558.829 1223.92C558.263 1224.08 557.602 1224.24 556.847 1224.37C556.11 1224.5 555.261 1224.57 554.298 1224.57C552.731 1224.57 551.343 1224.29 550.135 1223.75C548.926 1223.18 547.982 1222.26 547.303 1221C546.623 1219.73 546.283 1218.05 546.283 1215.96V1185.85ZM577.351 1224.57C575.085 1224.57 573.036 1224.2 571.205 1223.46C569.393 1222.71 567.844 1221.66 566.561 1220.32C565.296 1218.98 564.323 1217.4 563.644 1215.59C562.964 1213.78 562.624 1211.82 562.624 1209.73V1208.59C562.624 1206.2 562.973 1204.02 563.672 1202.08C564.37 1200.14 565.343 1198.47 566.589 1197.1C567.835 1195.7 569.308 1194.63 571.007 1193.9C572.706 1193.16 574.547 1192.79 576.529 1192.79C578.719 1192.79 580.636 1193.16 582.278 1193.9C583.921 1194.63 585.28 1195.67 586.356 1197.01C587.451 1198.33 588.263 1199.91 588.792 1201.74C589.34 1203.57 589.613 1205.59 589.613 1207.8V1210.72H565.938V1205.82H582.873V1205.28C582.835 1204.05 582.59 1202.9 582.137 1201.83C581.702 1200.75 581.032 1199.88 580.126 1199.22C579.22 1198.56 578.011 1198.23 576.501 1198.23C575.368 1198.23 574.358 1198.47 573.471 1198.96C572.602 1199.44 571.875 1200.13 571.29 1201.03C570.705 1201.94 570.252 1203.03 569.931 1204.32C569.629 1205.58 569.478 1207.01 569.478 1208.59V1209.73C569.478 1211.07 569.657 1212.31 570.016 1213.46C570.393 1214.6 570.941 1215.59 571.658 1216.44C572.376 1217.29 573.244 1217.96 574.264 1218.45C575.283 1218.92 576.444 1219.16 577.747 1219.16C579.39 1219.16 580.853 1218.83 582.137 1218.17C583.421 1217.51 584.535 1216.57 585.479 1215.36L589.075 1218.85C588.414 1219.81 587.555 1220.73 586.498 1221.62C585.441 1222.49 584.147 1223.2 582.618 1223.75C581.108 1224.29 579.352 1224.57 577.351 1224.57ZM601.791 1199.19V1224H594.966V1193.36H601.479L601.791 1199.19ZM611.165 1193.16L611.108 1199.5C610.693 1199.43 610.24 1199.37 609.749 1199.33C609.277 1199.3 608.805 1199.28 608.333 1199.28C607.162 1199.28 606.133 1199.45 605.246 1199.79C604.359 1200.11 603.613 1200.58 603.009 1201.2C602.424 1201.81 601.97 1202.54 601.649 1203.41C601.328 1204.28 601.14 1205.25 601.083 1206.33L599.525 1206.44C599.525 1204.52 599.714 1202.73 600.092 1201.09C600.469 1199.45 601.036 1198 601.791 1196.76C602.565 1195.51 603.528 1194.54 604.68 1193.84C605.85 1193.14 607.2 1192.79 608.729 1192.79C609.145 1192.79 609.589 1192.83 610.061 1192.9C610.551 1192.98 610.92 1193.06 611.165 1193.16ZM622.267 1199.59V1224H615.441V1193.36H621.87L622.267 1199.59ZM621.162 1207.55L618.84 1207.52C618.84 1205.4 619.104 1203.45 619.633 1201.66C620.161 1199.86 620.936 1198.3 621.955 1196.98C622.975 1195.64 624.24 1194.61 625.75 1193.9C627.279 1193.16 629.045 1192.79 631.046 1192.79C632.443 1192.79 633.717 1193 634.869 1193.41C636.04 1193.81 637.05 1194.44 637.899 1195.31C638.768 1196.18 639.429 1197.29 639.882 1198.65C640.354 1200.01 640.59 1201.66 640.59 1203.58V1224H633.765V1204.18C633.765 1202.68 633.538 1201.51 633.085 1200.66C632.651 1199.81 632.018 1199.21 631.188 1198.85C630.376 1198.47 629.403 1198.29 628.271 1198.29C626.987 1198.29 625.892 1198.53 624.985 1199.02C624.098 1199.51 623.371 1200.18 622.805 1201.03C622.238 1201.88 621.823 1202.86 621.559 1203.98C621.294 1205.09 621.162 1206.28 621.162 1207.55ZM640.165 1205.73L636.965 1206.44C636.965 1204.59 637.22 1202.84 637.729 1201.2C638.258 1199.54 639.023 1198.09 640.023 1196.84C641.043 1195.58 642.299 1194.58 643.79 1193.87C645.282 1193.15 646.99 1192.79 648.916 1192.79C650.483 1192.79 651.88 1193.01 653.107 1193.44C654.354 1193.86 655.411 1194.52 656.279 1195.42C657.148 1196.33 657.809 1197.51 658.262 1198.96C658.715 1200.4 658.941 1202.14 658.941 1204.18V1224H652.088V1204.15C652.088 1202.6 651.861 1201.4 651.408 1200.55C650.974 1199.7 650.351 1199.12 649.539 1198.79C648.727 1198.46 647.755 1198.29 646.622 1198.29C645.565 1198.29 644.63 1198.48 643.818 1198.88C643.025 1199.26 642.355 1199.8 641.808 1200.49C641.26 1201.17 640.845 1201.96 640.562 1202.84C640.297 1203.73 640.165 1204.69 640.165 1205.73ZM679.474 1224.57C677.208 1224.57 675.16 1224.2 673.328 1223.46C671.516 1222.71 669.967 1221.66 668.684 1220.32C667.419 1218.98 666.446 1217.4 665.767 1215.59C665.087 1213.78 664.747 1211.82 664.747 1209.73V1208.59C664.747 1206.2 665.096 1204.02 665.795 1202.08C666.493 1200.14 667.466 1198.47 668.712 1197.1C669.958 1195.7 671.431 1194.63 673.13 1193.9C674.829 1193.16 676.67 1192.79 678.652 1192.79C680.842 1192.79 682.759 1193.16 684.401 1193.9C686.044 1194.63 687.403 1195.67 688.479 1197.01C689.575 1198.33 690.386 1199.91 690.915 1201.74C691.463 1203.57 691.736 1205.59 691.736 1207.8V1210.72H668.061V1205.82H684.996V1205.28C684.958 1204.05 684.713 1202.9 684.26 1201.83C683.826 1200.75 683.155 1199.88 682.249 1199.22C681.343 1198.56 680.134 1198.23 678.624 1198.23C677.491 1198.23 676.481 1198.47 675.594 1198.96C674.725 1199.44 673.998 1200.13 673.413 1201.03C672.828 1201.94 672.375 1203.03 672.054 1204.32C671.752 1205.58 671.601 1207.01 671.601 1208.59V1209.73C671.601 1211.07 671.78 1212.31 672.139 1213.46C672.516 1214.6 673.064 1215.59 673.781 1216.44C674.499 1217.29 675.367 1217.96 676.387 1218.45C677.406 1218.92 678.567 1219.16 679.87 1219.16C681.513 1219.16 682.976 1218.83 684.26 1218.17C685.544 1217.51 686.658 1216.57 687.602 1215.36L691.198 1218.85C690.537 1219.81 689.678 1220.73 688.621 1221.62C687.564 1222.49 686.271 1223.2 684.741 1223.75C683.231 1224.29 681.475 1224.57 679.474 1224.57ZM715.752 1217.66V1180.5H722.605V1224H716.403L715.752 1217.66ZM695.814 1209.02V1208.42C695.814 1206.1 696.088 1203.99 696.636 1202.08C697.183 1200.15 697.976 1198.5 699.015 1197.12C700.053 1195.73 701.318 1194.66 702.81 1193.92C704.301 1193.17 705.981 1192.79 707.851 1192.79C709.701 1192.79 711.325 1193.15 712.722 1193.87C714.119 1194.58 715.308 1195.61 716.29 1196.95C717.272 1198.28 718.055 1199.86 718.641 1201.71C719.226 1203.54 719.641 1205.58 719.887 1207.83V1209.73C719.641 1211.92 719.226 1213.92 718.641 1215.73C718.055 1217.54 717.272 1219.11 716.29 1220.43C715.308 1221.75 714.109 1222.77 712.693 1223.49C711.296 1224.21 709.663 1224.57 707.794 1224.57C705.944 1224.57 704.273 1224.18 702.781 1223.41C701.309 1222.63 700.053 1221.55 699.015 1220.15C697.976 1218.75 697.183 1217.11 696.636 1215.22C696.088 1213.31 695.814 1211.25 695.814 1209.02ZM702.64 1208.42V1209.02C702.64 1210.42 702.762 1211.72 703.008 1212.93C703.272 1214.14 703.678 1215.2 704.226 1216.13C704.773 1217.03 705.481 1217.75 706.35 1218.28C707.237 1218.79 708.294 1219.04 709.521 1219.04C711.07 1219.04 712.344 1218.7 713.345 1218.02C714.345 1217.34 715.129 1216.43 715.695 1215.28C716.281 1214.11 716.677 1212.8 716.885 1211.37V1206.24C716.771 1205.13 716.535 1204.09 716.177 1203.13C715.837 1202.17 715.374 1201.32 714.789 1200.61C714.204 1199.87 713.477 1199.3 712.608 1198.91C711.759 1198.49 710.749 1198.29 709.578 1198.29C708.332 1198.29 707.275 1198.55 706.406 1199.08C705.538 1199.61 704.82 1200.33 704.254 1201.26C703.706 1202.18 703.3 1203.26 703.036 1204.49C702.772 1205.71 702.64 1207.03 702.64 1208.42ZM737.049 1193.36V1224H730.195V1193.36H737.049ZM729.742 1185.31C729.742 1184.28 730.082 1183.42 730.762 1182.74C731.46 1182.04 732.423 1181.69 733.65 1181.69C734.859 1181.69 735.812 1182.04 736.511 1182.74C737.209 1183.42 737.559 1184.28 737.559 1185.31C737.559 1186.33 737.209 1187.18 736.511 1187.86C735.812 1188.54 734.859 1188.88 733.65 1188.88C732.423 1188.88 731.46 1188.54 730.762 1187.86C730.082 1187.18 729.742 1186.33 729.742 1185.31ZM761.801 1217.85V1203.24C761.801 1202.15 761.603 1201.2 761.206 1200.41C760.81 1199.62 760.205 1199 759.394 1198.57C758.601 1198.13 757.6 1197.92 756.392 1197.92C755.278 1197.92 754.315 1198.11 753.503 1198.48C752.691 1198.86 752.059 1199.37 751.605 1200.01C751.152 1200.65 750.926 1201.38 750.926 1202.19H744.129C744.129 1200.99 744.422 1199.81 745.007 1198.68C745.592 1197.55 746.442 1196.54 747.556 1195.65C748.67 1194.76 750.001 1194.07 751.549 1193.56C753.097 1193.05 754.834 1192.79 756.76 1192.79C759.063 1192.79 761.102 1193.18 762.877 1193.95C764.671 1194.73 766.077 1195.9 767.097 1197.46C768.135 1199.01 768.654 1200.96 768.654 1203.3V1216.92C768.654 1218.32 768.749 1219.57 768.938 1220.69C769.145 1221.78 769.438 1222.74 769.815 1223.55V1224H762.82C762.499 1223.26 762.244 1222.33 762.056 1221.2C761.886 1220.04 761.801 1218.93 761.801 1217.85ZM762.792 1205.37L762.849 1209.58H757.949C756.684 1209.58 755.57 1209.71 754.607 1209.95C753.645 1210.18 752.842 1210.52 752.2 1210.97C751.558 1211.43 751.077 1211.97 750.756 1212.62C750.435 1213.26 750.274 1213.98 750.274 1214.8C750.274 1215.61 750.463 1216.35 750.841 1217.03C751.218 1217.69 751.766 1218.21 752.483 1218.59C753.22 1218.97 754.107 1219.16 755.146 1219.16C756.543 1219.16 757.76 1218.87 758.799 1218.31C759.856 1217.72 760.687 1217.01 761.291 1216.18C761.895 1215.33 762.216 1214.53 762.254 1213.78L764.463 1216.81C764.236 1217.58 763.849 1218.41 763.302 1219.3C762.754 1220.19 762.037 1221.04 761.149 1221.85C760.281 1222.64 759.233 1223.29 758.006 1223.8C756.798 1224.31 755.4 1224.57 753.814 1224.57C751.813 1224.57 750.029 1224.17 748.462 1223.38C746.895 1222.57 745.668 1221.48 744.78 1220.12C743.893 1218.74 743.449 1217.18 743.449 1215.45C743.449 1213.82 743.751 1212.39 744.355 1211.14C744.979 1209.88 745.885 1208.82 747.074 1207.97C748.283 1207.12 749.755 1206.48 751.492 1206.04C753.229 1205.59 755.212 1205.37 757.439 1205.37H762.792ZM789.838 1193.36V1198.34H772.562V1193.36H789.838ZM777.547 1185.85H784.372V1215.53C784.372 1216.48 784.504 1217.2 784.769 1217.71C785.052 1218.2 785.439 1218.53 785.93 1218.7C786.421 1218.87 786.996 1218.96 787.657 1218.96C788.129 1218.96 788.582 1218.93 789.017 1218.87C789.451 1218.82 789.8 1218.76 790.064 1218.7L790.093 1223.92C789.526 1224.08 788.866 1224.24 788.11 1224.37C787.374 1224.5 786.524 1224.57 785.562 1224.57C783.994 1224.57 782.607 1224.29 781.398 1223.75C780.19 1223.18 779.246 1222.26 778.566 1221C777.887 1219.73 777.547 1218.05 777.547 1215.96V1185.85ZM793.123 1209.02V1208.37C793.123 1206.16 793.444 1204.11 794.086 1202.22C794.728 1200.31 795.653 1198.66 796.861 1197.27C798.089 1195.85 799.58 1194.75 801.336 1193.98C803.111 1193.19 805.112 1192.79 807.34 1192.79C809.587 1192.79 811.588 1193.19 813.344 1193.98C815.118 1194.75 816.619 1195.85 817.847 1197.27C819.074 1198.66 820.008 1200.31 820.65 1202.22C821.292 1204.11 821.613 1206.16 821.613 1208.37V1209.02C821.613 1211.23 821.292 1213.28 820.65 1215.16C820.008 1217.05 819.074 1218.7 817.847 1220.12C816.619 1221.52 815.128 1222.61 813.372 1223.41C811.616 1224.18 809.624 1224.57 807.396 1224.57C805.15 1224.57 803.139 1224.18 801.364 1223.41C799.608 1222.61 798.117 1221.52 796.89 1220.12C795.662 1218.7 794.728 1217.05 794.086 1215.16C793.444 1213.28 793.123 1211.23 793.123 1209.02ZM799.948 1208.37V1209.02C799.948 1210.4 800.09 1211.7 800.373 1212.93C800.656 1214.15 801.1 1215.23 801.704 1216.16C802.308 1217.08 803.082 1217.81 804.026 1218.34C804.97 1218.86 806.094 1219.13 807.396 1219.13C808.661 1219.13 809.757 1218.86 810.682 1218.34C811.626 1217.81 812.4 1217.08 813.004 1216.16C813.608 1215.23 814.052 1214.15 814.335 1212.93C814.637 1211.7 814.788 1210.4 814.788 1209.02V1208.37C814.788 1207.01 814.637 1205.72 814.335 1204.52C814.052 1203.29 813.599 1202.2 812.976 1201.26C812.371 1200.31 811.597 1199.58 810.653 1199.05C809.728 1198.5 808.624 1198.23 807.34 1198.23C806.056 1198.23 804.942 1198.5 803.998 1199.05C803.073 1199.58 802.308 1200.31 801.704 1201.26C801.1 1202.2 800.656 1203.29 800.373 1204.52C800.09 1205.72 799.948 1207.01 799.948 1208.37ZM834.188 1199.19V1224H827.362V1193.36H833.876L834.188 1199.19ZM843.562 1193.16L843.505 1199.5C843.09 1199.43 842.636 1199.37 842.146 1199.33C841.674 1199.3 841.201 1199.28 840.729 1199.28C839.559 1199.28 838.53 1199.45 837.643 1199.79C836.755 1200.11 836.009 1200.58 835.405 1201.2C834.82 1201.81 834.367 1202.54 834.046 1203.41C833.725 1204.28 833.536 1205.25 833.479 1206.33L831.922 1206.44C831.922 1204.52 832.111 1202.73 832.488 1201.09C832.866 1199.45 833.432 1198 834.188 1196.76C834.962 1195.51 835.924 1194.54 837.076 1193.84C838.247 1193.14 839.597 1192.79 841.126 1192.79C841.541 1192.79 841.985 1192.83 842.457 1192.9C842.948 1192.98 843.316 1193.06 843.562 1193.16ZM857.24 1220.66L865.566 1193.36H872.873L860.582 1228.67C860.299 1229.43 859.931 1230.25 859.478 1231.14C859.024 1232.02 858.43 1232.86 857.693 1233.66C856.976 1234.47 856.079 1235.12 855.003 1235.61C853.927 1236.12 852.624 1236.38 851.095 1236.38C850.491 1236.38 849.905 1236.32 849.339 1236.21C848.791 1236.11 848.272 1236.01 847.781 1235.89L847.753 1230.68C847.942 1230.7 848.168 1230.72 848.433 1230.74C848.716 1230.76 848.942 1230.77 849.112 1230.77C850.245 1230.77 851.189 1230.63 851.944 1230.34C852.7 1230.08 853.313 1229.65 853.785 1229.04C854.276 1228.44 854.691 1227.62 855.031 1226.61L857.24 1220.66ZM852.539 1193.36L859.817 1216.3L861.035 1223.49L856.306 1224.71L845.176 1193.36H852.539ZM475.482 1250.77V1292H468.374V1250.77H475.482ZM490.407 1267.9V1292H483.582V1261.36H490.011L490.407 1267.9ZM489.189 1275.55L486.98 1275.52C486.999 1273.35 487.301 1271.35 487.887 1269.54C488.491 1267.73 489.322 1266.17 490.379 1264.87C491.455 1263.57 492.739 1262.57 494.23 1261.87C495.722 1261.15 497.383 1260.79 499.215 1260.79C500.688 1260.79 502.019 1261 503.208 1261.41C504.416 1261.81 505.445 1262.46 506.295 1263.37C507.163 1264.27 507.824 1265.45 508.277 1266.91C508.73 1268.34 508.957 1270.11 508.957 1272.2V1292H502.104V1272.18C502.104 1270.7 501.886 1269.54 501.452 1268.69C501.037 1267.82 500.423 1267.21 499.611 1266.85C498.818 1266.47 497.827 1266.29 496.638 1266.29C495.467 1266.29 494.419 1266.53 493.494 1267.02C492.569 1267.51 491.785 1268.18 491.144 1269.03C490.521 1269.88 490.039 1270.86 489.699 1271.98C489.359 1273.09 489.189 1274.28 489.189 1275.55ZM534.615 1285.66V1248.5H541.469V1292H535.267L534.615 1285.66ZM514.678 1277.02V1276.42C514.678 1274.1 514.951 1271.99 515.499 1270.08C516.047 1268.15 516.84 1266.5 517.878 1265.12C518.916 1263.73 520.181 1262.66 521.673 1261.92C523.164 1261.17 524.845 1260.79 526.714 1260.79C528.564 1260.79 530.188 1261.15 531.585 1261.87C532.982 1262.58 534.172 1263.61 535.153 1264.95C536.135 1266.28 536.919 1267.86 537.504 1269.71C538.089 1271.54 538.505 1273.58 538.75 1275.83V1277.73C538.505 1279.92 538.089 1281.92 537.504 1283.73C536.919 1285.54 536.135 1287.11 535.153 1288.43C534.172 1289.75 532.973 1290.77 531.557 1291.49C530.16 1292.21 528.526 1292.57 526.657 1292.57C524.807 1292.57 523.136 1292.18 521.645 1291.41C520.172 1290.63 518.916 1289.55 517.878 1288.15C516.84 1286.75 516.047 1285.11 515.499 1283.22C514.951 1281.31 514.678 1279.25 514.678 1277.02ZM521.503 1276.42V1277.02C521.503 1278.42 521.626 1279.72 521.871 1280.93C522.135 1282.14 522.541 1283.2 523.089 1284.13C523.636 1285.03 524.344 1285.75 525.213 1286.28C526.1 1286.79 527.158 1287.04 528.385 1287.04C529.933 1287.04 531.207 1286.7 532.208 1286.02C533.209 1285.34 533.992 1284.43 534.559 1283.28C535.144 1282.11 535.54 1280.8 535.748 1279.37V1274.24C535.635 1273.13 535.399 1272.09 535.04 1271.13C534.7 1270.17 534.238 1269.32 533.652 1268.61C533.067 1267.87 532.34 1267.3 531.472 1266.91C530.622 1266.49 529.612 1266.29 528.441 1266.29C527.195 1266.29 526.138 1266.55 525.27 1267.08C524.401 1267.61 523.684 1268.33 523.117 1269.26C522.57 1270.18 522.164 1271.26 521.899 1272.49C521.635 1273.71 521.503 1275.03 521.503 1276.42ZM555.912 1261.36V1292H549.059V1261.36H555.912ZM548.605 1253.31C548.605 1252.28 548.945 1251.42 549.625 1250.74C550.324 1250.04 551.286 1249.69 552.514 1249.69C553.722 1249.69 554.675 1250.04 555.374 1250.74C556.073 1251.42 556.422 1252.28 556.422 1253.31C556.422 1254.33 556.073 1255.18 555.374 1255.86C554.675 1256.54 553.722 1256.88 552.514 1256.88C551.286 1256.88 550.324 1256.54 549.625 1255.86C548.945 1255.18 548.605 1254.33 548.605 1253.31ZM573.357 1286.59L580.862 1261.36H587.942L577.294 1292H572.876L573.357 1286.59ZM567.608 1261.36L575.255 1286.7L575.623 1292H571.205L560.5 1261.36H567.608ZM599.469 1261.36V1292H592.615V1261.36H599.469ZM592.162 1253.31C592.162 1252.28 592.502 1251.42 593.182 1250.74C593.88 1250.04 594.843 1249.69 596.07 1249.69C597.279 1249.69 598.232 1250.04 598.931 1250.74C599.629 1251.42 599.979 1252.28 599.979 1253.31C599.979 1254.33 599.629 1255.18 598.931 1255.86C598.232 1256.54 597.279 1256.88 596.07 1256.88C594.843 1256.88 593.88 1256.54 593.182 1255.86C592.502 1255.18 592.162 1254.33 592.162 1253.31ZM625.637 1285.66V1248.5H632.49V1292H626.288L625.637 1285.66ZM605.699 1277.02V1276.42C605.699 1274.1 605.973 1271.99 606.521 1270.08C607.068 1268.15 607.861 1266.5 608.899 1265.12C609.938 1263.73 611.203 1262.66 612.694 1261.92C614.186 1261.17 615.866 1260.79 617.735 1260.79C619.586 1260.79 621.209 1261.15 622.606 1261.87C624.004 1262.58 625.193 1263.61 626.175 1264.95C627.157 1266.28 627.94 1267.86 628.525 1269.71C629.111 1271.54 629.526 1273.58 629.771 1275.83V1277.73C629.526 1279.92 629.111 1281.92 628.525 1283.73C627.94 1285.54 627.157 1287.11 626.175 1288.43C625.193 1289.75 623.994 1290.77 622.578 1291.49C621.181 1292.21 619.548 1292.57 617.679 1292.57C615.828 1292.57 614.158 1292.18 612.666 1291.41C611.193 1290.63 609.938 1289.55 608.899 1288.15C607.861 1286.75 607.068 1285.11 606.521 1283.22C605.973 1281.31 605.699 1279.25 605.699 1277.02ZM612.524 1276.42V1277.02C612.524 1278.42 612.647 1279.72 612.893 1280.93C613.157 1282.14 613.563 1283.2 614.11 1284.13C614.658 1285.03 615.366 1285.75 616.234 1286.28C617.122 1286.79 618.179 1287.04 619.406 1287.04C620.954 1287.04 622.229 1286.7 623.229 1286.02C624.23 1285.34 625.014 1284.43 625.58 1283.28C626.165 1282.11 626.562 1280.8 626.77 1279.37V1274.24C626.656 1273.13 626.42 1272.09 626.062 1271.13C625.722 1270.17 625.259 1269.32 624.674 1268.61C624.089 1267.87 623.362 1267.3 622.493 1266.91C621.644 1266.49 620.633 1266.29 619.463 1266.29C618.217 1266.29 617.16 1266.55 616.291 1267.08C615.423 1267.61 614.705 1268.33 614.139 1269.26C613.591 1270.18 613.185 1271.26 612.921 1272.49C612.657 1273.71 612.524 1275.03 612.524 1276.42ZM658.063 1284.78V1261.36H664.917V1292H658.46L658.063 1284.78ZM659.026 1278.41L661.32 1278.35C661.32 1280.41 661.094 1282.31 660.641 1284.04C660.188 1285.76 659.489 1287.26 658.545 1288.54C657.601 1289.81 656.393 1290.8 654.92 1291.52C653.447 1292.22 651.682 1292.57 649.624 1292.57C648.132 1292.57 646.764 1292.35 645.518 1291.92C644.271 1291.48 643.195 1290.81 642.289 1289.9C641.402 1289 640.713 1287.82 640.222 1286.36C639.731 1284.91 639.485 1283.17 639.485 1281.15V1261.36H646.311V1281.21C646.311 1282.32 646.443 1283.26 646.707 1284.01C646.971 1284.75 647.33 1285.34 647.783 1285.8C648.236 1286.25 648.765 1286.57 649.369 1286.76C649.973 1286.95 650.615 1287.04 651.295 1287.04C653.24 1287.04 654.769 1286.67 655.883 1285.91C657.016 1285.14 657.818 1284.1 658.29 1282.8C658.781 1281.49 659.026 1280.03 659.026 1278.41ZM689.188 1285.85V1271.24C689.188 1270.15 688.989 1269.2 688.593 1268.41C688.196 1267.62 687.592 1267 686.78 1266.57C685.987 1266.13 684.987 1265.92 683.778 1265.92C682.664 1265.92 681.701 1266.11 680.89 1266.48C680.078 1266.86 679.445 1267.37 678.992 1268.01C678.539 1268.65 678.312 1269.38 678.312 1270.19H671.516C671.516 1268.99 671.808 1267.81 672.394 1266.68C672.979 1265.55 673.828 1264.54 674.942 1263.65C676.056 1262.76 677.387 1262.07 678.936 1261.56C680.484 1261.05 682.221 1260.79 684.146 1260.79C686.45 1260.79 688.489 1261.18 690.264 1261.95C692.057 1262.73 693.464 1263.9 694.483 1265.46C695.522 1267.01 696.041 1268.96 696.041 1271.3V1284.92C696.041 1286.32 696.135 1287.57 696.324 1288.69C696.532 1289.78 696.825 1290.74 697.202 1291.55V1292H690.207C689.886 1291.26 689.631 1290.33 689.442 1289.2C689.272 1288.04 689.188 1286.93 689.188 1285.85ZM690.179 1273.37L690.235 1277.58H685.336C684.071 1277.58 682.957 1277.71 681.994 1277.95C681.031 1278.18 680.229 1278.52 679.587 1278.97C678.945 1279.43 678.464 1279.97 678.143 1280.62C677.822 1281.26 677.661 1281.98 677.661 1282.8C677.661 1283.61 677.85 1284.35 678.228 1285.03C678.605 1285.69 679.153 1286.21 679.87 1286.59C680.606 1286.97 681.494 1287.16 682.532 1287.16C683.929 1287.16 685.147 1286.87 686.186 1286.31C687.243 1285.72 688.074 1285.01 688.678 1284.18C689.282 1283.33 689.603 1282.53 689.641 1281.78L691.85 1284.81C691.623 1285.58 691.236 1286.41 690.688 1287.3C690.141 1288.19 689.424 1289.04 688.536 1289.85C687.668 1290.64 686.62 1291.29 685.393 1291.8C684.184 1292.31 682.787 1292.57 681.201 1292.57C679.2 1292.57 677.416 1292.17 675.849 1291.38C674.282 1290.57 673.054 1289.48 672.167 1288.12C671.28 1286.74 670.836 1285.18 670.836 1283.45C670.836 1281.82 671.138 1280.39 671.742 1279.14C672.365 1277.88 673.271 1276.82 674.461 1275.97C675.669 1275.12 677.142 1274.48 678.879 1274.04C680.616 1273.59 682.598 1273.37 684.826 1273.37H690.179ZM710.484 1248.5V1292H703.631V1248.5H710.484ZM735.151 1283.7C735.151 1283.02 734.981 1282.41 734.642 1281.86C734.302 1281.29 733.65 1280.79 732.688 1280.33C731.743 1279.88 730.346 1279.46 728.496 1279.09C726.872 1278.73 725.381 1278.3 724.021 1277.81C722.681 1277.3 721.529 1276.69 720.566 1275.97C719.604 1275.25 718.858 1274.4 718.329 1273.42C717.8 1272.44 717.536 1271.31 717.536 1270.02C717.536 1268.78 717.81 1267.6 718.357 1266.48C718.905 1265.37 719.688 1264.39 720.708 1263.54C721.728 1262.69 722.964 1262.02 724.418 1261.53C725.891 1261.04 727.533 1260.79 729.346 1260.79C731.913 1260.79 734.113 1261.23 735.944 1262.09C737.795 1262.94 739.211 1264.1 740.192 1265.58C741.174 1267.03 741.665 1268.67 741.665 1270.5H734.84C734.84 1269.69 734.632 1268.94 734.217 1268.24C733.82 1267.52 733.216 1266.95 732.404 1266.51C731.592 1266.06 730.573 1265.83 729.346 1265.83C728.175 1265.83 727.203 1266.02 726.429 1266.4C725.674 1266.76 725.107 1267.23 724.729 1267.81C724.371 1268.4 724.191 1269.04 724.191 1269.74C724.191 1270.25 724.286 1270.71 724.475 1271.13C724.682 1271.52 725.022 1271.89 725.494 1272.23C725.966 1272.55 726.608 1272.86 727.42 1273.14C728.251 1273.42 729.289 1273.7 730.535 1273.96C732.876 1274.45 734.887 1275.08 736.567 1275.86C738.267 1276.61 739.569 1277.59 740.476 1278.8C741.382 1279.99 741.835 1281.5 741.835 1283.33C741.835 1284.69 741.542 1285.94 740.957 1287.07C740.391 1288.19 739.56 1289.16 738.465 1289.99C737.37 1290.8 736.058 1291.43 734.528 1291.89C733.018 1292.34 731.319 1292.57 729.431 1292.57C726.655 1292.57 724.305 1292.08 722.379 1291.09C720.453 1290.09 718.99 1288.82 717.989 1287.27C717.007 1285.7 716.517 1284.08 716.517 1282.4H723.115C723.191 1283.66 723.54 1284.67 724.163 1285.43C724.805 1286.17 725.598 1286.7 726.542 1287.04C727.505 1287.36 728.496 1287.53 729.516 1287.53C730.743 1287.53 731.772 1287.36 732.603 1287.04C733.433 1286.7 734.066 1286.25 734.5 1285.68C734.934 1285.1 735.151 1284.44 735.151 1283.7Z" fill="#1C4670"/>
<defs>
<filter id="filter0_d_645_121" x="30" y="319" width="959.957" height="229.445" filterUnits="userSpaceOnUse" color-interpolation-filters="sRGB">
<feFlood flood-opacity="0" result="BackgroundImageFix"/>
<feColorMatrix in="SourceAlpha" type="matrix" values="0 0 0 0 0 0 0 0 0 0 0 0 0 0 0 0 0 0 127 0" result="hardAlpha"/>
<feOffset dy="4"/>
<feGaussianBlur stdDeviation="2"/>
<feComposite in2="hardAlpha" operator="out"/>
<feColorMatrix type="matrix" values="0 0 0 0 0 0 0 0 0 0 0 0 0 0 0 0 0 0 0.25 0"/>
<feBlend mode="normal" in2="BackgroundImageFix" result="effect1_dropShadow_645_121"/>
<feBlend mode="normal" in="SourceGraphic" in2="effect1_dropShadow_645_121" result="shape"/>
</filter>
<filter id="filter1_d_645_121" x="30" y="46" width="959.957" height="229.438" filterUnits="userSpaceOnUse" color-interpolation-filters="sRGB">
<feFlood flood-opacity="0" result="BackgroundImageFix"/>
<feColorMatrix in="SourceAlpha" type="matrix" values="0 0 0 0 0 0 0 0 0 0 0 0 0 0 0 0 0 0 127 0" result="hardAlpha"/>
<feOffset dy="4"/>
<feGaussianBlur stdDeviation="2"/>
<feComposite in2="hardAlpha" operator="out"/>
<feColorMatrix type="matrix" values="0 0 0 0 0 0 0 0 0 0 0 0 0 0 0 0 0 0 0.25 0"/>
<feBlend mode="normal" in2="BackgroundImageFix" result="effect1_dropShadow_645_121"/>
<feBlend mode="normal" in="SourceGraphic" in2="effect1_dropShadow_645_121" result="shape"/>
</filter>
<filter id="filter2_d_645_121" x="30" y="848" width="959.957" height="229.445" filterUnits="userSpaceOnUse" color-interpolation-filters="sRGB">
<feFlood flood-opacity="0" result="BackgroundImageFix"/>
<feColorMatrix in="SourceAlpha" type="matrix" values="0 0 0 0 0 0 0 0 0 0 0 0 0 0 0 0 0 0 127 0" result="hardAlpha"/>
<feOffset dy="4"/>
<feGaussianBlur stdDeviation="2"/>
<feComposite in2="hardAlpha" operator="out"/>
<feColorMatrix type="matrix" values="0 0 0 0 0 0 0 0 0 0 0 0 0 0 0 0 0 0 0.25 0"/>
<feBlend mode="normal" in2="BackgroundImageFix" result="effect1_dropShadow_645_121"/>
<feBlend mode="normal" in="SourceGraphic" in2="effect1_dropShadow_645_121" result="shape"/>
</filter>
<filter id="filter3_d_645_121" x="30" y="587.664" width="959.957" height="229.438" filterUnits="userSpaceOnUse" color-interpolation-filters="sRGB">
<feFlood flood-opacity="0" result="BackgroundImageFix"/>
<feColorMatrix in="SourceAlpha" type="matrix" values="0 0 0 0 0 0 0 0 0 0 0 0 0 0 0 0 0 0 127 0" result="hardAlpha"/>
<feOffset dy="4"/>
<feGaussianBlur stdDeviation="2"/>
<feComposite in2="hardAlpha" operator="out"/>
<feColorMatrix type="matrix" values="0 0 0 0 0 0 0 0 0 0 0 0 0 0 0 0 0 0 0.25 0"/>
<feBlend mode="normal" in2="BackgroundImageFix" result="effect1_dropShadow_645_121"/>
<feBlend mode="normal" in="SourceGraphic" in2="effect1_dropShadow_645_121" result="shape"/>
</filter>
<filter id="filter4_d_645_121" x="30" y="1114.58" width="959.957" height="229.438" filterUnits="userSpaceOnUse" color-interpolation-filters="sRGB">
<feFlood flood-opacity="0" result="BackgroundImageFix"/>
<feColorMatrix in="SourceAlpha" type="matrix" values="0 0 0 0 0 0 0 0 0 0 0 0 0 0 0 0 0 0 127 0" result="hardAlpha"/>
<feOffset dy="4"/>
<feGaussianBlur stdDeviation="2"/>
<feComposite in2="hardAlpha" operator="out"/>
<feColorMatrix type="matrix" values="0 0 0 0 0 0 0 0 0 0 0 0 0 0 0 0 0 0 0.25 0"/>
<feBlend mode="normal" in2="BackgroundImageFix" result="effect1_dropShadow_645_121"/>
<feBlend mode="normal" in="SourceGraphic" in2="effect1_dropShadow_645_121" result="shape"/>
</filter>
<linearGradient id="paint0_linear_645_121" x1="68.0952" y1="375.847" x2="222.516" y2="375.847" gradientUnits="userSpaceOnUse">
<stop stop-color="#229CB4"/>
<stop offset="1" stop-color="#5ED8F0"/>
</linearGradient>
<linearGradient id="paint1_linear_645_121" x1="51.0945" y1="297.523" x2="239.586" y2="297.523" gradientUnits="userSpaceOnUse">
<stop stop-color="#229CB4"/>
<stop offset="1" stop-color="#5ED8F0"/>
</linearGradient>
<linearGradient id="paint2_linear_645_121" x1="34.0164" y1="297.523" x2="68.1107" y2="297.523" gradientUnits="userSpaceOnUse">
<stop stop-color="#01819A"/>
<stop offset="1" stop-color="#3DBDD6"/>
</linearGradient>
<linearGradient id="paint3_linear_645_121" x1="222.517" y1="297.523" x2="256.619" y2="297.523" gradientUnits="userSpaceOnUse">
<stop stop-color="#01819A"/>
<stop offset="1" stop-color="#3DBDD6"/>
</linearGradient>
<linearGradient id="paint4_linear_645_121" x1="68.103" y1="103.568" x2="222.524" y2="103.568" gradientUnits="userSpaceOnUse">
<stop stop-color="#E19000"/>
<stop offset="1" stop-color="#FFCC1E"/>
</linearGradient>
<linearGradient id="paint5_linear_645_121" x1="51.0945" y1="34.7033" x2="239.586" y2="34.7033" gradientUnits="userSpaceOnUse">
<stop stop-color="#E19000"/>
<stop offset="1" stop-color="#FFCC1E"/>
</linearGradient>
<linearGradient id="paint6_linear_645_121" x1="34.0164" y1="34.7033" x2="68.1107" y2="34.7033" gradientUnits="userSpaceOnUse">
<stop stop-color="#E15E00"/>
<stop offset="1" stop-color="#FF9A1E"/>
</linearGradient>
<linearGradient id="paint7_linear_645_121" x1="222.517" y1="34.7033" x2="256.619" y2="34.7033" gradientUnits="userSpaceOnUse">
<stop stop-color="#E15E00"/>
<stop offset="1" stop-color="#FF9A1E"/>
</linearGradient>
<linearGradient id="paint8_linear_645_121" x1="68.0952" y1="904.386" x2="222.516" y2="904.386" gradientUnits="userSpaceOnUse">
<stop stop-color="#229CB4"/>
<stop offset="1" stop-color="#5ED8F0"/>
</linearGradient>
<linearGradient id="paint9_linear_645_121" x1="51.0945" y1="835.523" x2="239.586" y2="835.523" gradientUnits="userSpaceOnUse">
<stop stop-color="#229CB4"/>
<stop offset="1" stop-color="#5ED8F0"/>
</linearGradient>
<linearGradient id="paint10_linear_645_121" x1="34.0164" y1="835.523" x2="68.1107" y2="835.523" gradientUnits="userSpaceOnUse">
<stop stop-color="#01819A"/>
<stop offset="1" stop-color="#3DBDD6"/>
</linearGradient>
<linearGradient id="paint11_linear_645_121" x1="222.517" y1="835.523" x2="256.619" y2="835.523" gradientUnits="userSpaceOnUse">
<stop stop-color="#01819A"/>
<stop offset="1" stop-color="#3DBDD6"/>
</linearGradient>
<linearGradient id="paint12_linear_645_121" x1="68.103" y1="646.294" x2="222.524" y2="646.294" gradientUnits="userSpaceOnUse">
<stop stop-color="#E19000"/>
<stop offset="1" stop-color="#FFCC1E"/>
</linearGradient>
<linearGradient id="paint13_linear_645_121" x1="51.0945" y1="567.969" x2="239.586" y2="567.969" gradientUnits="userSpaceOnUse">
<stop stop-color="#E19000"/>
<stop offset="1" stop-color="#FFCC1E"/>
</linearGradient>
<linearGradient id="paint14_linear_645_121" x1="34.0164" y1="567.969" x2="68.1107" y2="567.969" gradientUnits="userSpaceOnUse">
<stop stop-color="#E15E00"/>
<stop offset="1" stop-color="#FF9A1E"/>
</linearGradient>
<linearGradient id="paint15_linear_645_121" x1="222.517" y1="567.969" x2="256.619" y2="567.969" gradientUnits="userSpaceOnUse">
<stop stop-color="#E15E00"/>
<stop offset="1" stop-color="#FF9A1E"/>
</linearGradient>
<linearGradient id="paint16_linear_645_121" x1="68.103" y1="1173.21" x2="222.524" y2="1173.21" gradientUnits="userSpaceOnUse">
<stop stop-color="#E19000"/>
<stop offset="1" stop-color="#FFCC1E"/>
</linearGradient>
<linearGradient id="paint17_linear_645_121" x1="51.0945" y1="1094.88" x2="239.586" y2="1094.88" gradientUnits="userSpaceOnUse">
<stop stop-color="#E19000"/>
<stop offset="1" stop-color="#FFCC1E"/>
</linearGradient>
<linearGradient id="paint18_linear_645_121" x1="34.0164" y1="1094.88" x2="68.1107" y2="1094.88" gradientUnits="userSpaceOnUse">
<stop stop-color="#E15E00"/>
<stop offset="1" stop-color="#FF9A1E"/>
</linearGradient>
<linearGradient id="paint19_linear_645_121" x1="222.517" y1="1094.88" x2="256.619" y2="1094.88" gradientUnits="userSpaceOnUse">
<stop stop-color="#E15E00"/>
<stop offset="1" stop-color="#FF9A1E"/>
</linearGradient>
</defs>
</svg>
