<svg width="1080" height="1080" viewBox="0 0 1080 1080" fill="none" xmlns="http://www.w3.org/2000/svg">
<rect width="1080" height="1080" fill="white"/>
<path d="M223.738 63.7422V100H216.89V63.7422H223.738ZM237.086 78.8081V100H230.512V73.0557H236.688L237.086 78.8081ZM236.04 85.5566H234.098C234.114 83.5977 234.38 81.8213 234.895 80.2275C235.409 78.6338 236.131 77.2642 237.061 76.1187C238.007 74.9731 239.128 74.0933 240.423 73.479C241.718 72.8647 243.162 72.5576 244.756 72.5576C246.051 72.5576 247.221 72.7402 248.267 73.1055C249.313 73.4707 250.209 74.0518 250.957 74.8486C251.72 75.6455 252.301 76.6914 252.7 77.9863C253.115 79.2646 253.322 80.8418 253.322 82.7178V100H246.698V82.668C246.698 81.4395 246.516 80.4683 246.15 79.7544C245.802 79.0405 245.287 78.5342 244.606 78.2354C243.942 77.9365 243.121 77.7871 242.141 77.7871C241.128 77.7871 240.24 77.9946 239.477 78.4097C238.729 78.8081 238.099 79.3643 237.584 80.0781C237.086 80.792 236.704 81.6138 236.438 82.5435C236.173 83.4731 236.04 84.4775 236.04 85.5566ZM271.875 73.0557V77.7871H256.435V73.0557H271.875ZM260.569 66.4316H267.168V92.2305C267.168 93.0273 267.276 93.6416 267.492 94.0732C267.708 94.5049 268.031 94.7954 268.463 94.9448C268.895 95.0942 269.409 95.1689 270.007 95.1689C270.438 95.1689 270.837 95.144 271.202 95.0942C271.567 95.0444 271.875 94.9946 272.124 94.9448L272.148 99.8755C271.601 100.058 270.978 100.208 270.281 100.324C269.6 100.44 268.828 100.498 267.965 100.498C266.487 100.498 265.192 100.249 264.08 99.751C262.968 99.2363 262.104 98.4146 261.49 97.2856C260.876 96.1401 260.569 94.6294 260.569 92.7534V66.4316ZM282.832 78.5591V100H276.257V73.0557H282.483L282.832 78.5591ZM291.024 72.8813L290.925 79.0073C290.56 78.9409 290.145 78.8911 289.68 78.8579C289.231 78.8247 288.808 78.8081 288.41 78.8081C287.397 78.8081 286.509 78.9492 285.745 79.2314C284.981 79.4971 284.342 79.8872 283.828 80.4019C283.33 80.9165 282.948 81.5474 282.682 82.2944C282.417 83.0249 282.267 83.855 282.234 84.7847L280.814 84.6104C280.814 82.9004 280.989 81.3149 281.337 79.854C281.686 78.3931 282.192 77.1147 282.856 76.019C283.521 74.9233 284.351 74.0767 285.347 73.479C286.359 72.8647 287.521 72.5576 288.833 72.5576C289.198 72.5576 289.588 72.5908 290.003 72.6572C290.435 72.707 290.775 72.7817 291.024 72.8813ZM292.768 86.8018V86.2788C292.768 84.3032 293.05 82.4854 293.614 80.8252C294.179 79.1484 295 77.6958 296.08 76.4673C297.159 75.2388 298.479 74.2842 300.039 73.6035C301.6 72.9062 303.376 72.5576 305.368 72.5576C307.394 72.5576 309.187 72.9062 310.747 73.6035C312.324 74.2842 313.652 75.2388 314.731 76.4673C315.811 77.6958 316.632 79.1484 317.197 80.8252C317.761 82.4854 318.043 84.3032 318.043 86.2788V86.8018C318.043 88.7607 317.761 90.5786 317.197 92.2554C316.632 93.9155 315.811 95.3682 314.731 96.6133C313.652 97.8418 312.333 98.7964 310.772 99.4771C309.211 100.158 307.427 100.498 305.418 100.498C303.426 100.498 301.641 100.158 300.064 99.4771C298.487 98.7964 297.159 97.8418 296.08 96.6133C295 95.3682 294.179 93.9155 293.614 92.2554C293.05 90.5786 292.768 88.7607 292.768 86.8018ZM299.342 86.2788V86.8018C299.342 87.9805 299.458 89.0845 299.69 90.1138C299.923 91.1431 300.28 92.0479 300.761 92.8281C301.243 93.6084 301.865 94.2227 302.629 94.6709C303.409 95.1025 304.339 95.3184 305.418 95.3184C306.48 95.3184 307.394 95.1025 308.157 94.6709C308.921 94.2227 309.543 93.6084 310.025 92.8281C310.523 92.0479 310.888 91.1431 311.121 90.1138C311.353 89.0845 311.469 87.9805 311.469 86.8018V86.2788C311.469 85.1167 311.353 84.0293 311.121 83.0166C310.888 81.9873 310.523 81.0825 310.025 80.3022C309.543 79.5054 308.913 78.8828 308.132 78.4346C307.369 77.9697 306.447 77.7373 305.368 77.7373C304.306 77.7373 303.393 77.9697 302.629 78.4346C301.865 78.8828 301.243 79.5054 300.761 80.3022C300.28 81.0825 299.923 81.9873 299.69 83.0166C299.458 84.0293 299.342 85.1167 299.342 86.2788ZM338.986 94.2725V61.75H345.61V100H339.634L338.986 94.2725ZM321.679 86.8516V86.3286C321.679 84.27 321.912 82.4023 322.376 80.7256C322.858 79.0322 323.555 77.5796 324.468 76.3677C325.381 75.1558 326.485 74.2178 327.78 73.5537C329.092 72.8896 330.578 72.5576 332.238 72.5576C333.848 72.5576 335.251 72.8813 336.446 73.5288C337.658 74.1763 338.688 75.0977 339.534 76.293C340.397 77.4883 341.086 78.9077 341.601 80.5513C342.116 82.1782 342.489 83.9712 342.722 85.9302V87.3496C342.489 89.2588 342.116 91.0103 341.601 92.604C341.086 94.1978 340.397 95.5923 339.534 96.7876C338.688 97.9663 337.658 98.8794 336.446 99.5269C335.234 100.174 333.815 100.498 332.188 100.498C330.544 100.498 329.067 100.158 327.755 99.4771C326.46 98.7964 325.356 97.8418 324.443 96.6133C323.547 95.3848 322.858 93.9404 322.376 92.2803C321.912 90.6201 321.679 88.8105 321.679 86.8516ZM328.278 86.3286V86.8516C328.278 88.0137 328.378 89.1011 328.577 90.1138C328.776 91.1265 329.1 92.0229 329.548 92.8032C329.997 93.5669 330.569 94.1646 331.267 94.5962C331.98 95.0278 332.844 95.2437 333.856 95.2437C335.151 95.2437 336.214 94.9614 337.044 94.397C337.891 93.8159 338.546 93.0273 339.011 92.0312C339.476 91.0186 339.775 89.8813 339.908 88.6196V84.71C339.841 83.7139 339.667 82.7925 339.385 81.9458C339.119 81.0991 338.737 80.3687 338.239 79.7544C337.758 79.1401 337.16 78.6587 336.446 78.3101C335.732 77.9614 334.886 77.7871 333.906 77.7871C332.894 77.7871 332.03 78.0112 331.316 78.4595C330.603 78.8911 330.021 79.4971 329.573 80.2773C329.125 81.0576 328.793 81.9624 328.577 82.9917C328.378 84.021 328.278 85.1333 328.278 86.3286ZM367.599 93.6001V73.0557H374.223V100H367.998L367.599 93.6001ZM368.446 88.022L370.488 87.9722C370.488 89.7817 370.289 91.4502 369.89 92.9775C369.492 94.5049 368.869 95.833 368.022 96.9619C367.192 98.0742 366.138 98.9458 364.86 99.5767C363.582 100.191 362.071 100.498 360.328 100.498C359 100.498 357.788 100.315 356.692 99.9502C355.596 99.5684 354.65 98.979 353.853 98.1821C353.073 97.3687 352.467 96.3311 352.035 95.0693C351.604 93.791 351.388 92.2554 351.388 90.4624V73.0557H357.962V90.5122C357.962 91.4087 358.062 92.1558 358.261 92.7534C358.477 93.3511 358.767 93.8408 359.132 94.2227C359.514 94.5879 359.954 94.8535 360.452 95.0195C360.967 95.1689 361.515 95.2437 362.096 95.2437C363.689 95.2437 364.943 94.9282 365.856 94.2974C366.786 93.6499 367.45 92.7866 367.848 91.7075C368.247 90.6118 368.446 89.3833 368.446 88.022ZM391.107 95.3184C392.037 95.3184 392.867 95.1357 393.597 94.7705C394.328 94.4053 394.909 93.8906 395.34 93.2266C395.789 92.5625 396.029 91.7905 396.062 90.9106H402.263C402.23 92.7368 401.715 94.3721 400.719 95.8164C399.723 97.2607 398.395 98.4062 396.735 99.2529C395.091 100.083 393.249 100.498 391.207 100.498C389.131 100.498 387.322 100.149 385.778 99.4521C384.234 98.7549 382.947 97.7837 381.918 96.5386C380.905 95.2935 380.142 93.8491 379.627 92.2056C379.129 90.562 378.88 88.8022 378.88 86.9263V86.1294C378.88 84.2534 379.129 82.4937 379.627 80.8501C380.142 79.2065 380.905 77.7622 381.918 76.5171C382.947 75.272 384.234 74.3008 385.778 73.6035C387.322 72.9062 389.123 72.5576 391.182 72.5576C393.356 72.5576 395.266 72.981 396.909 73.8276C398.569 74.6743 399.864 75.8696 400.794 77.4136C401.74 78.9575 402.23 80.7754 402.263 82.8672H396.062C396.029 81.9043 395.813 81.041 395.415 80.2773C395.017 79.5137 394.452 78.8994 393.722 78.4346C392.991 77.9697 392.103 77.7373 391.057 77.7373C389.945 77.7373 389.015 77.9697 388.268 78.4346C387.538 78.8994 386.965 79.5386 386.55 80.3521C386.151 81.1489 385.869 82.0454 385.703 83.0415C385.554 84.021 385.479 85.0503 385.479 86.1294V86.9263C385.479 88.022 385.554 89.0679 385.703 90.064C385.869 91.0601 386.151 91.9565 386.55 92.7534C386.965 93.5337 387.538 94.1562 388.268 94.6211C389.015 95.0859 389.961 95.3184 391.107 95.3184ZM419.396 73.0557V77.7871H403.957V73.0557H419.396ZM408.09 66.4316H414.689V92.2305C414.689 93.0273 414.797 93.6416 415.013 94.0732C415.229 94.5049 415.553 94.7954 415.984 94.9448C416.416 95.0942 416.931 95.1689 417.528 95.1689C417.96 95.1689 418.358 95.144 418.724 95.0942C419.089 95.0444 419.396 94.9946 419.645 94.9448L419.67 99.8755C419.122 100.058 418.5 100.208 417.802 100.324C417.122 100.44 416.35 100.498 415.486 100.498C414.009 100.498 412.714 100.249 411.602 99.751C410.489 99.2363 409.626 98.4146 409.012 97.2856C408.397 96.1401 408.09 94.6294 408.09 92.7534V66.4316ZM430.751 73.0557V100H424.152V73.0557H430.751ZM423.704 66.0083C423.704 65.0288 424.036 64.2153 424.7 63.5679C425.381 62.9204 426.294 62.5967 427.439 62.5967C428.585 62.5967 429.49 62.9204 430.154 63.5679C430.834 64.2153 431.175 65.0288 431.175 66.0083C431.175 66.9712 430.834 67.7764 430.154 68.4238C429.49 69.0713 428.585 69.395 427.439 69.395C426.294 69.395 425.381 69.0713 424.7 68.4238C424.036 67.7764 423.704 66.9712 423.704 66.0083ZM435.856 86.8018V86.2788C435.856 84.3032 436.139 82.4854 436.703 80.8252C437.268 79.1484 438.089 77.6958 439.168 76.4673C440.248 75.2388 441.567 74.2842 443.128 73.6035C444.688 72.9062 446.465 72.5576 448.457 72.5576C450.482 72.5576 452.275 72.9062 453.836 73.6035C455.413 74.2842 456.741 75.2388 457.82 76.4673C458.899 77.6958 459.721 79.1484 460.286 80.8252C460.85 82.4854 461.132 84.3032 461.132 86.2788V86.8018C461.132 88.7607 460.85 90.5786 460.286 92.2554C459.721 93.9155 458.899 95.3682 457.82 96.6133C456.741 97.8418 455.421 98.7964 453.861 99.4771C452.3 100.158 450.516 100.498 448.507 100.498C446.515 100.498 444.73 100.158 443.153 99.4771C441.576 98.7964 440.248 97.8418 439.168 96.6133C438.089 95.3682 437.268 93.9155 436.703 92.2554C436.139 90.5786 435.856 88.7607 435.856 86.8018ZM442.431 86.2788V86.8018C442.431 87.9805 442.547 89.0845 442.779 90.1138C443.012 91.1431 443.369 92.0479 443.85 92.8281C444.332 93.6084 444.954 94.2227 445.718 94.6709C446.498 95.1025 447.428 95.3184 448.507 95.3184C449.569 95.3184 450.482 95.1025 451.246 94.6709C452.01 94.2227 452.632 93.6084 453.114 92.8281C453.612 92.0479 453.977 91.1431 454.209 90.1138C454.442 89.0845 454.558 87.9805 454.558 86.8018V86.2788C454.558 85.1167 454.442 84.0293 454.209 83.0166C453.977 81.9873 453.612 81.0825 453.114 80.3022C452.632 79.5054 452.001 78.8828 451.221 78.4346C450.458 77.9697 449.536 77.7373 448.457 77.7373C447.395 77.7373 446.481 77.9697 445.718 78.4346C444.954 78.8828 444.332 79.5054 443.85 80.3022C443.369 81.0825 443.012 81.9873 442.779 83.0166C442.547 84.0293 442.431 85.1167 442.431 86.2788ZM472.363 78.8081V100H465.789V73.0557H471.965L472.363 78.8081ZM471.317 85.5566H469.375C469.392 83.5977 469.657 81.8213 470.172 80.2275C470.687 78.6338 471.409 77.2642 472.338 76.1187C473.285 74.9731 474.405 74.0933 475.7 73.479C476.995 72.8647 478.439 72.5576 480.033 72.5576C481.328 72.5576 482.499 72.7402 483.544 73.1055C484.59 73.4707 485.487 74.0518 486.234 74.8486C486.998 75.6455 487.579 76.6914 487.977 77.9863C488.392 79.2646 488.6 80.8418 488.6 82.7178V100H481.976V82.668C481.976 81.4395 481.793 80.4683 481.428 79.7544C481.079 79.0405 480.564 78.5342 479.884 78.2354C479.22 77.9365 478.398 77.7871 477.418 77.7871C476.406 77.7871 475.518 77.9946 474.754 78.4097C474.007 78.8081 473.376 79.3643 472.861 80.0781C472.363 80.792 471.981 81.6138 471.716 82.5435C471.45 83.4731 471.317 84.4775 471.317 85.5566ZM519.852 73.0557V77.7871H504.413V73.0557H519.852ZM508.546 66.4316H515.146V92.2305C515.146 93.0273 515.253 93.6416 515.469 94.0732C515.685 94.5049 516.009 94.7954 516.44 94.9448C516.872 95.0942 517.387 95.1689 517.984 95.1689C518.416 95.1689 518.814 95.144 519.18 95.0942C519.545 95.0444 519.852 94.9946 520.101 94.9448L520.126 99.8755C519.578 100.058 518.956 100.208 518.258 100.324C517.578 100.44 516.806 100.498 515.942 100.498C514.465 100.498 513.17 100.249 512.058 99.751C510.945 99.2363 510.082 98.4146 509.468 97.2856C508.854 96.1401 508.546 94.6294 508.546 92.7534V66.4316ZM522.417 86.8018V86.2788C522.417 84.3032 522.699 82.4854 523.264 80.8252C523.828 79.1484 524.65 77.6958 525.729 76.4673C526.808 75.2388 528.128 74.2842 529.688 73.6035C531.249 72.9062 533.025 72.5576 535.018 72.5576C537.043 72.5576 538.836 72.9062 540.396 73.6035C541.974 74.2842 543.302 75.2388 544.381 76.4673C545.46 77.6958 546.282 79.1484 546.846 80.8252C547.411 82.4854 547.693 84.3032 547.693 86.2788V86.8018C547.693 88.7607 547.411 90.5786 546.846 92.2554C546.282 93.9155 545.46 95.3682 544.381 96.6133C543.302 97.8418 541.982 98.7964 540.421 99.4771C538.861 100.158 537.076 100.498 535.067 100.498C533.075 100.498 531.291 100.158 529.713 99.4771C528.136 98.7964 526.808 97.8418 525.729 96.6133C524.65 95.3682 523.828 93.9155 523.264 92.2554C522.699 90.5786 522.417 88.7607 522.417 86.8018ZM528.991 86.2788V86.8018C528.991 87.9805 529.107 89.0845 529.34 90.1138C529.572 91.1431 529.929 92.0479 530.411 92.8281C530.892 93.6084 531.515 94.2227 532.278 94.6709C533.059 95.1025 533.988 95.3184 535.067 95.3184C536.13 95.3184 537.043 95.1025 537.807 94.6709C538.57 94.2227 539.193 93.6084 539.674 92.8281C540.172 92.0479 540.538 91.1431 540.77 90.1138C541.002 89.0845 541.119 87.9805 541.119 86.8018V86.2788C541.119 85.1167 541.002 84.0293 540.77 83.0166C540.538 81.9873 540.172 81.0825 539.674 80.3022C539.193 79.5054 538.562 78.8828 537.782 78.4346C537.018 77.9697 536.097 77.7373 535.018 77.7373C533.955 77.7373 533.042 77.9697 532.278 78.4346C531.515 78.8828 530.892 79.5054 530.411 80.3022C529.929 81.0825 529.572 81.9873 529.34 83.0166C529.107 84.0293 528.991 85.1167 528.991 86.2788Z" fill="#FFA229"/>
<path d="M579.991 63.7422V100H573.168V63.7422H579.991ZM591.247 63.7422V69.146H562.037V63.7422H591.247ZM605.068 100.498C603.026 100.498 601.191 100.166 599.564 99.502C597.938 98.8379 596.551 97.9165 595.406 96.7378C594.277 95.5425 593.405 94.1562 592.791 92.5791C592.193 90.9854 591.895 89.2754 591.895 87.4492V86.4531C591.895 84.3779 592.193 82.4937 592.791 80.8003C593.389 79.0903 594.235 77.6211 595.331 76.3926C596.427 75.1641 597.738 74.2178 599.266 73.5537C600.793 72.8896 602.478 72.5576 604.321 72.5576C606.23 72.5576 607.915 72.8813 609.376 73.5288C610.837 74.1597 612.057 75.0562 613.037 76.2183C614.016 77.3804 614.755 78.7749 615.253 80.4019C615.751 82.0122 616 83.7969 616 85.7559V88.52H594.883V83.9878H609.525V83.4897C609.492 82.4438 609.293 81.4893 608.928 80.626C608.562 79.7461 607.998 79.0488 607.234 78.5342C606.471 78.0029 605.483 77.7373 604.271 77.7373C603.292 77.7373 602.437 77.9531 601.706 78.3848C600.992 78.7998 600.395 79.3975 599.913 80.1777C599.448 80.9414 599.1 81.8545 598.867 82.917C598.635 83.9795 598.519 85.1582 598.519 86.4531V87.4492C598.519 88.5781 598.668 89.624 598.967 90.5869C599.282 91.5498 599.739 92.3882 600.336 93.1021C600.951 93.7993 601.681 94.3472 602.528 94.7456C603.391 95.1274 604.371 95.3184 605.466 95.3184C606.844 95.3184 608.089 95.0527 609.202 94.5215C610.331 93.9736 611.31 93.1685 612.14 92.106L615.452 95.5425C614.888 96.3726 614.124 97.1694 613.161 97.9331C612.215 98.6968 611.069 99.3193 609.725 99.8008C608.38 100.266 606.828 100.498 605.068 100.498ZM626.982 78.5591V100H620.408V73.0557H626.633L626.982 78.5591ZM635.175 72.8813L635.075 79.0073C634.71 78.9409 634.295 78.8911 633.83 78.8579C633.382 78.8247 632.958 78.8081 632.56 78.8081C631.547 78.8081 630.659 78.9492 629.896 79.2314C629.132 79.4971 628.493 79.8872 627.978 80.4019C627.48 80.9165 627.098 81.5474 626.833 82.2944C626.567 83.0249 626.417 83.855 626.384 84.7847L624.965 84.6104C624.965 82.9004 625.139 81.3149 625.488 79.854C625.836 78.3931 626.343 77.1147 627.007 76.019C627.671 74.9233 628.501 74.0767 629.497 73.479C630.51 72.8647 631.672 72.5576 632.983 72.5576C633.349 72.5576 633.739 72.5908 634.154 72.6572C634.585 72.707 634.926 72.7817 635.175 72.8813ZM645.335 78.584V100H638.761V73.0557H644.961L645.335 78.584ZM644.364 85.5566H642.347C642.347 83.6807 642.571 81.9541 643.019 80.377C643.484 78.7998 644.165 77.4302 645.061 76.2681C645.958 75.0894 647.062 74.1763 648.373 73.5288C649.701 72.8813 651.237 72.5576 652.98 72.5576C654.192 72.5576 655.304 72.7402 656.317 73.1055C657.33 73.4541 658.201 74.0103 658.932 74.7739C659.679 75.521 660.251 76.5005 660.65 77.7124C661.048 78.9077 661.248 80.3438 661.248 82.0205V100H654.673V82.6929C654.673 81.4312 654.491 80.4434 654.125 79.7295C653.777 79.0156 653.271 78.5176 652.606 78.2354C651.942 77.9365 651.146 77.7871 650.216 77.7871C649.187 77.7871 648.298 77.9946 647.551 78.4097C646.821 78.8081 646.215 79.3643 645.733 80.0781C645.269 80.792 644.92 81.6138 644.688 82.5435C644.472 83.4731 644.364 84.4775 644.364 85.5566ZM660.75 84.3364L658.035 84.8345C658.052 83.1411 658.284 81.5557 658.732 80.0781C659.181 78.584 659.836 77.2808 660.7 76.1685C661.58 75.0396 662.667 74.1597 663.962 73.5288C665.273 72.8813 666.784 72.5576 668.494 72.5576C669.822 72.5576 671.018 72.7485 672.08 73.1304C673.159 73.4956 674.081 74.085 674.844 74.8984C675.608 75.6953 676.189 76.7329 676.587 78.0112C677.002 79.2896 677.21 80.8501 677.21 82.6929V100H670.586V82.668C670.586 81.3564 670.403 80.3521 670.038 79.6548C669.689 78.9575 669.183 78.4761 668.519 78.2104C667.855 77.9282 667.075 77.7871 666.178 77.7871C665.265 77.7871 664.468 77.9614 663.788 78.3101C663.124 78.6421 662.559 79.1069 662.094 79.7046C661.646 80.3022 661.306 80.9995 661.073 81.7964C660.857 82.5767 660.75 83.4233 660.75 84.3364ZM697.929 92.6289C697.929 92.0645 697.779 91.5581 697.48 91.1099C697.182 90.6616 696.617 90.2549 695.787 89.8896C694.974 89.5078 693.778 89.1509 692.201 88.8188C690.807 88.52 689.52 88.1465 688.341 87.6982C687.163 87.25 686.15 86.7104 685.303 86.0796C684.457 85.4321 683.792 84.6768 683.311 83.8135C682.846 82.9336 682.614 81.9209 682.614 80.7754C682.614 79.6631 682.854 78.6172 683.336 77.6377C683.817 76.6416 684.515 75.77 685.428 75.0229C686.341 74.2593 687.453 73.6616 688.765 73.23C690.076 72.7817 691.554 72.5576 693.197 72.5576C695.488 72.5576 697.456 72.9312 699.099 73.6782C700.759 74.4253 702.029 75.4546 702.909 76.7661C703.789 78.061 704.229 79.522 704.229 81.1489H697.655C697.655 80.4351 697.489 79.7876 697.157 79.2065C696.841 78.6255 696.352 78.1606 695.688 77.812C695.023 77.4468 694.185 77.2642 693.172 77.2642C692.259 77.2642 691.487 77.4136 690.856 77.7124C690.242 78.0112 689.777 78.4014 689.462 78.8828C689.146 79.3643 688.989 79.8955 688.989 80.4766C688.989 80.9082 689.072 81.2983 689.238 81.647C689.42 81.979 689.711 82.2861 690.109 82.5684C690.508 82.8506 691.047 83.1079 691.728 83.3403C692.425 83.5728 693.28 83.7969 694.293 84.0127C696.302 84.4111 698.053 84.9424 699.547 85.6064C701.058 86.2539 702.237 87.1172 703.083 88.1963C703.93 89.2754 704.354 90.6533 704.354 92.3301C704.354 93.5254 704.096 94.6211 703.582 95.6172C703.067 96.5967 702.32 97.4517 701.34 98.1821C700.361 98.9126 699.19 99.4854 697.829 99.9004C696.468 100.299 694.932 100.498 693.222 100.498C690.749 100.498 688.657 100.058 686.947 99.1782C685.237 98.2817 683.942 97.1528 683.062 95.7915C682.182 94.4136 681.742 92.9858 681.742 91.5083H688.042C688.092 92.5542 688.375 93.3926 688.889 94.0234C689.404 94.6543 690.051 95.1108 690.832 95.3931C691.628 95.6587 692.467 95.7915 693.347 95.7915C694.343 95.7915 695.181 95.6587 695.862 95.3931C696.542 95.1108 697.057 94.7373 697.406 94.2725C697.754 93.791 697.929 93.2432 697.929 92.6289ZM720.889 86.8018V86.2788C720.889 84.3032 721.171 82.4854 721.735 80.8252C722.3 79.1484 723.122 77.6958 724.201 76.4673C725.28 75.2388 726.6 74.2842 728.16 73.6035C729.721 72.9062 731.497 72.5576 733.489 72.5576C735.515 72.5576 737.308 72.9062 738.868 73.6035C740.445 74.2842 741.773 75.2388 742.853 76.4673C743.932 77.6958 744.753 79.1484 745.318 80.8252C745.882 82.4854 746.165 84.3032 746.165 86.2788V86.8018C746.165 88.7607 745.882 90.5786 745.318 92.2554C744.753 93.9155 743.932 95.3682 742.853 96.6133C741.773 97.8418 740.454 98.7964 738.893 99.4771C737.333 100.158 735.548 100.498 733.539 100.498C731.547 100.498 729.762 100.158 728.185 99.4771C726.608 98.7964 725.28 97.8418 724.201 96.6133C723.122 95.3682 722.3 93.9155 721.735 92.2554C721.171 90.5786 720.889 88.7607 720.889 86.8018ZM727.463 86.2788V86.8018C727.463 87.9805 727.579 89.0845 727.812 90.1138C728.044 91.1431 728.401 92.0479 728.882 92.8281C729.364 93.6084 729.986 94.2227 730.75 94.6709C731.53 95.1025 732.46 95.3184 733.539 95.3184C734.602 95.3184 735.515 95.1025 736.278 94.6709C737.042 94.2227 737.665 93.6084 738.146 92.8281C738.644 92.0479 739.009 91.1431 739.242 90.1138C739.474 89.0845 739.59 87.9805 739.59 86.8018V86.2788C739.59 85.1167 739.474 84.0293 739.242 83.0166C739.009 81.9873 738.644 81.0825 738.146 80.3022C737.665 79.5054 737.034 78.8828 736.253 78.4346C735.49 77.9697 734.568 77.7373 733.489 77.7373C732.427 77.7373 731.514 77.9697 730.75 78.4346C729.986 78.8828 729.364 79.5054 728.882 80.3022C728.401 81.0825 728.044 81.9873 727.812 83.0166C727.579 84.0293 727.463 85.1167 727.463 86.2788ZM759.562 100H752.938V70.5654C752.938 68.54 753.328 66.8384 754.108 65.4604C754.889 64.0659 756.001 63.0117 757.445 62.2979C758.89 61.584 760.591 61.2271 762.55 61.2271C763.198 61.2271 763.812 61.2686 764.393 61.3516C764.991 61.4346 765.58 61.5508 766.161 61.7002L766.037 66.7056C765.721 66.6226 765.373 66.5645 764.991 66.5312C764.625 66.498 764.219 66.4814 763.771 66.4814C762.874 66.4814 762.11 66.6392 761.479 66.9546C760.849 67.27 760.367 67.7349 760.035 68.3491C759.72 68.9468 759.562 69.6855 759.562 70.5654V100ZM765.016 73.0557V77.7871H748.879V73.0557H765.016ZM802.444 63.7422H809.292V87.8228C809.292 90.5952 808.694 92.9277 807.499 94.8203C806.304 96.6963 804.677 98.1157 802.618 99.0786C800.56 100.025 798.219 100.498 795.596 100.498C792.939 100.498 790.574 100.025 788.499 99.0786C786.423 98.1157 784.796 96.6963 783.618 94.8203C782.439 92.9277 781.85 90.5952 781.85 87.8228V63.7422H788.698V87.8228C788.698 89.5161 788.98 90.9023 789.544 91.9814C790.109 93.0439 790.906 93.8325 791.935 94.3472C792.964 94.8618 794.185 95.1191 795.596 95.1191C797.023 95.1191 798.244 94.8618 799.256 94.3472C800.286 93.8325 801.074 93.0439 801.622 91.9814C802.17 90.9023 802.444 89.5161 802.444 87.8228V63.7422ZM830.11 92.6289C830.11 92.0645 829.961 91.5581 829.662 91.1099C829.363 90.6616 828.799 90.2549 827.969 89.8896C827.155 89.5078 825.96 89.1509 824.383 88.8188C822.988 88.52 821.702 88.1465 820.523 87.6982C819.344 87.25 818.332 86.7104 817.485 86.0796C816.638 85.4321 815.974 84.6768 815.493 83.8135C815.028 82.9336 814.795 81.9209 814.795 80.7754C814.795 79.6631 815.036 78.6172 815.518 77.6377C815.999 76.6416 816.696 75.77 817.609 75.0229C818.522 74.2593 819.635 73.6616 820.946 73.23C822.258 72.7817 823.735 72.5576 825.379 72.5576C827.67 72.5576 829.637 72.9312 831.281 73.6782C832.941 74.4253 834.211 75.4546 835.091 76.7661C835.971 78.061 836.411 79.522 836.411 81.1489H829.836C829.836 80.4351 829.67 79.7876 829.338 79.2065C829.023 78.6255 828.533 78.1606 827.869 77.812C827.205 77.4468 826.367 77.2642 825.354 77.2642C824.441 77.2642 823.669 77.4136 823.038 77.7124C822.424 78.0112 821.959 78.4014 821.644 78.8828C821.328 79.3643 821.17 79.8955 821.17 80.4766C821.17 80.9082 821.253 81.2983 821.419 81.647C821.602 81.979 821.893 82.2861 822.291 82.5684C822.689 82.8506 823.229 83.1079 823.91 83.3403C824.607 83.5728 825.462 83.7969 826.475 84.0127C828.483 84.4111 830.235 84.9424 831.729 85.6064C833.24 86.2539 834.418 87.1172 835.265 88.1963C836.112 89.2754 836.535 90.6533 836.535 92.3301C836.535 93.5254 836.278 94.6211 835.763 95.6172C835.249 96.5967 834.501 97.4517 833.522 98.1821C832.542 98.9126 831.372 99.4854 830.011 99.9004C828.649 100.299 827.114 100.498 825.404 100.498C822.93 100.498 820.838 100.058 819.128 99.1782C817.418 98.2817 816.124 97.1528 815.244 95.7915C814.364 94.4136 813.924 92.9858 813.924 91.5083H820.224C820.274 92.5542 820.556 93.3926 821.071 94.0234C821.585 94.6543 822.233 95.1108 823.013 95.3931C823.81 95.6587 824.648 95.7915 825.528 95.7915C826.524 95.7915 827.363 95.6587 828.043 95.3931C828.724 95.1108 829.239 94.7373 829.587 94.2725C829.936 93.791 830.11 93.2432 830.11 92.6289ZM853.643 100.498C851.601 100.498 849.767 100.166 848.14 99.502C846.513 98.8379 845.126 97.9165 843.981 96.7378C842.852 95.5425 841.98 94.1562 841.366 92.5791C840.769 90.9854 840.47 89.2754 840.47 87.4492V86.4531C840.47 84.3779 840.769 82.4937 841.366 80.8003C841.964 79.0903 842.811 77.6211 843.906 76.3926C845.002 75.1641 846.313 74.2178 847.841 73.5537C849.368 72.8896 851.053 72.5576 852.896 72.5576C854.805 72.5576 856.49 72.8813 857.951 73.5288C859.412 74.1597 860.632 75.0562 861.612 76.2183C862.591 77.3804 863.33 78.7749 863.828 80.4019C864.326 82.0122 864.575 83.7969 864.575 85.7559V88.52H843.458V83.9878H858.101V83.4897C858.067 82.4438 857.868 81.4893 857.503 80.626C857.138 79.7461 856.573 79.0488 855.81 78.5342C855.046 78.0029 854.058 77.7373 852.846 77.7373C851.867 77.7373 851.012 77.9531 850.281 78.3848C849.567 78.7998 848.97 79.3975 848.488 80.1777C848.023 80.9414 847.675 81.8545 847.442 82.917C847.21 83.9795 847.094 85.1582 847.094 86.4531V87.4492C847.094 88.5781 847.243 89.624 847.542 90.5869C847.857 91.5498 848.314 92.3882 848.912 93.1021C849.526 93.7993 850.256 94.3472 851.103 94.7456C851.966 95.1274 852.946 95.3184 854.042 95.3184C855.419 95.3184 856.665 95.0527 857.777 94.5215C858.906 93.9736 859.885 93.1685 860.715 92.106L864.027 95.5425C863.463 96.3726 862.699 97.1694 861.736 97.9331C860.79 98.6968 859.645 99.3193 858.3 99.8008C856.955 100.266 855.403 100.498 853.643 100.498ZM430.751 129.246L420.417 160H413.17L426.717 123.742H431.349L430.751 129.246ZM439.393 160L429.008 129.246L428.386 123.742H433.042L446.664 160H439.393ZM438.919 146.528V151.932H419.471V146.528H438.919ZM467.034 133.056H473.011V159.178C473.011 161.619 472.479 163.686 471.417 165.379C470.371 167.089 468.902 168.384 467.009 169.264C465.117 170.16 462.917 170.608 460.41 170.608C459.331 170.608 458.161 170.459 456.899 170.16C455.654 169.861 454.45 169.388 453.288 168.741C452.143 168.11 451.188 167.288 450.424 166.275L453.388 162.391C454.284 163.437 455.297 164.225 456.426 164.756C457.555 165.304 458.775 165.578 460.086 165.578C461.415 165.578 462.543 165.329 463.473 164.831C464.419 164.35 465.142 163.636 465.64 162.689C466.154 161.76 466.412 160.614 466.412 159.253V139.207L467.034 133.056ZM448.831 146.852V146.329C448.831 144.27 449.08 142.402 449.578 140.726C450.076 139.032 450.79 137.58 451.719 136.368C452.666 135.156 453.803 134.218 455.131 133.554C456.476 132.89 457.986 132.558 459.663 132.558C461.439 132.558 462.934 132.881 464.146 133.529C465.374 134.176 466.387 135.098 467.184 136.293C467.997 137.488 468.628 138.908 469.076 140.551C469.541 142.178 469.898 143.971 470.147 145.93V147.35C469.915 149.259 469.541 151.01 469.026 152.604C468.528 154.198 467.864 155.592 467.034 156.788C466.204 157.966 465.175 158.879 463.946 159.527C462.718 160.174 461.273 160.498 459.613 160.498C457.953 160.498 456.459 160.158 455.131 159.477C453.803 158.796 452.666 157.842 451.719 156.613C450.79 155.385 450.076 153.94 449.578 152.28C449.08 150.62 448.831 148.811 448.831 146.852ZM455.405 146.329V146.852C455.405 148.014 455.521 149.101 455.753 150.114C455.986 151.126 456.343 152.023 456.824 152.803C457.306 153.567 457.912 154.165 458.642 154.596C459.373 155.028 460.244 155.244 461.257 155.244C462.618 155.244 463.73 154.961 464.594 154.397C465.474 153.816 466.138 153.027 466.586 152.031C467.051 151.019 467.35 149.881 467.482 148.62V144.71C467.399 143.714 467.217 142.792 466.935 141.946C466.669 141.099 466.295 140.369 465.814 139.754C465.333 139.14 464.718 138.659 463.971 138.31C463.224 137.961 462.336 137.787 461.307 137.787C460.311 137.787 459.439 138.011 458.692 138.459C457.945 138.891 457.331 139.497 456.849 140.277C456.368 141.058 456.002 141.962 455.753 142.992C455.521 144.021 455.405 145.133 455.405 146.329ZM485.512 138.559V160H478.938V133.056H485.163L485.512 138.559ZM493.705 132.881L493.605 139.007C493.24 138.941 492.825 138.891 492.36 138.858C491.912 138.825 491.488 138.808 491.09 138.808C490.077 138.808 489.189 138.949 488.425 139.231C487.662 139.497 487.022 139.887 486.508 140.402C486.01 140.917 485.628 141.547 485.362 142.294C485.097 143.025 484.947 143.855 484.914 144.785L483.495 144.61C483.495 142.9 483.669 141.315 484.018 139.854C484.366 138.393 484.873 137.115 485.537 136.019C486.201 134.923 487.031 134.077 488.027 133.479C489.04 132.865 490.202 132.558 491.513 132.558C491.878 132.558 492.269 132.591 492.684 132.657C493.115 132.707 493.456 132.782 493.705 132.881ZM508.92 160.498C506.878 160.498 505.043 160.166 503.417 159.502C501.79 158.838 500.403 157.917 499.258 156.738C498.129 155.542 497.257 154.156 496.643 152.579C496.045 150.985 495.747 149.275 495.747 147.449V146.453C495.747 144.378 496.045 142.494 496.643 140.8C497.241 139.09 498.087 137.621 499.183 136.393C500.279 135.164 501.59 134.218 503.118 133.554C504.645 132.89 506.33 132.558 508.173 132.558C510.082 132.558 511.767 132.881 513.228 133.529C514.689 134.16 515.909 135.056 516.889 136.218C517.868 137.38 518.607 138.775 519.105 140.402C519.603 142.012 519.852 143.797 519.852 145.756V148.52H498.735V143.988H513.377V143.49C513.344 142.444 513.145 141.489 512.78 140.626C512.415 139.746 511.85 139.049 511.086 138.534C510.323 138.003 509.335 137.737 508.123 137.737C507.144 137.737 506.289 137.953 505.558 138.385C504.844 138.8 504.247 139.397 503.765 140.178C503.3 140.941 502.952 141.854 502.719 142.917C502.487 143.979 502.371 145.158 502.371 146.453V147.449C502.371 148.578 502.52 149.624 502.819 150.587C503.134 151.55 503.591 152.388 504.188 153.102C504.803 153.799 505.533 154.347 506.38 154.746C507.243 155.127 508.223 155.318 509.318 155.318C510.696 155.318 511.941 155.053 513.054 154.521C514.183 153.974 515.162 153.168 515.992 152.106L519.304 155.542C518.74 156.373 517.976 157.169 517.013 157.933C516.067 158.697 514.921 159.319 513.577 159.801C512.232 160.266 510.68 160.498 508.92 160.498ZM536.362 160.498C534.32 160.498 532.486 160.166 530.859 159.502C529.232 158.838 527.846 157.917 526.7 156.738C525.571 155.542 524.7 154.156 524.085 152.579C523.488 150.985 523.189 149.275 523.189 147.449V146.453C523.189 144.378 523.488 142.494 524.085 140.8C524.683 139.09 525.53 137.621 526.625 136.393C527.721 135.164 529.033 134.218 530.56 133.554C532.087 132.89 533.772 132.558 535.615 132.558C537.524 132.558 539.209 132.881 540.67 133.529C542.131 134.16 543.352 135.056 544.331 136.218C545.311 137.38 546.049 138.775 546.547 140.402C547.045 142.012 547.294 143.797 547.294 145.756V148.52H526.177V143.988H540.82V143.49C540.787 142.444 540.587 141.489 540.222 140.626C539.857 139.746 539.292 139.049 538.529 138.534C537.765 138.003 536.777 137.737 535.565 137.737C534.586 137.737 533.731 137.953 533 138.385C532.287 138.8 531.689 139.397 531.208 140.178C530.743 140.941 530.394 141.854 530.162 142.917C529.929 143.979 529.813 145.158 529.813 146.453V147.449C529.813 148.578 529.962 149.624 530.261 150.587C530.577 151.55 531.033 152.388 531.631 153.102C532.245 153.799 532.976 154.347 533.822 154.746C534.686 155.127 535.665 155.318 536.761 155.318C538.139 155.318 539.384 155.053 540.496 154.521C541.625 153.974 542.604 153.168 543.435 152.106L546.747 155.542C546.182 156.373 545.418 157.169 544.456 157.933C543.509 158.697 542.364 159.319 541.019 159.801C539.674 160.266 538.122 160.498 536.362 160.498ZM558.251 138.584V160H551.677V133.056H557.878L558.251 138.584ZM557.28 145.557H555.263C555.263 143.681 555.487 141.954 555.936 140.377C556.4 138.8 557.081 137.43 557.978 136.268C558.874 135.089 559.978 134.176 561.29 133.529C562.618 132.881 564.153 132.558 565.896 132.558C567.108 132.558 568.221 132.74 569.233 133.105C570.246 133.454 571.118 134.01 571.848 134.774C572.595 135.521 573.168 136.5 573.566 137.712C573.965 138.908 574.164 140.344 574.164 142.021V160H567.59V142.693C567.59 141.431 567.407 140.443 567.042 139.729C566.693 139.016 566.187 138.518 565.523 138.235C564.859 137.937 564.062 137.787 563.132 137.787C562.103 137.787 561.215 137.995 560.468 138.41C559.737 138.808 559.131 139.364 558.65 140.078C558.185 140.792 557.836 141.614 557.604 142.543C557.388 143.473 557.28 144.478 557.28 145.557ZM573.666 144.336L570.952 144.834C570.968 143.141 571.201 141.556 571.649 140.078C572.097 138.584 572.753 137.281 573.616 136.168C574.496 135.04 575.583 134.16 576.878 133.529C578.19 132.881 579.701 132.558 581.411 132.558C582.739 132.558 583.934 132.749 584.997 133.13C586.076 133.496 586.997 134.085 587.761 134.898C588.524 135.695 589.105 136.733 589.504 138.011C589.919 139.29 590.126 140.85 590.126 142.693V160H583.502V142.668C583.502 141.356 583.32 140.352 582.955 139.655C582.606 138.958 582.1 138.476 581.436 138.21C580.771 137.928 579.991 137.787 579.095 137.787C578.182 137.787 577.385 137.961 576.704 138.31C576.04 138.642 575.476 139.107 575.011 139.705C574.562 140.302 574.222 141 573.99 141.796C573.774 142.577 573.666 143.423 573.666 144.336ZM608.131 160.498C606.089 160.498 604.254 160.166 602.627 159.502C601 158.838 599.614 157.917 598.469 156.738C597.34 155.542 596.468 154.156 595.854 152.579C595.256 150.985 594.958 149.275 594.958 147.449V146.453C594.958 144.378 595.256 142.494 595.854 140.8C596.452 139.09 597.298 137.621 598.394 136.393C599.49 135.164 600.801 134.218 602.329 133.554C603.856 132.89 605.541 132.558 607.384 132.558C609.293 132.558 610.978 132.881 612.439 133.529C613.9 134.16 615.12 135.056 616.1 136.218C617.079 137.38 617.818 138.775 618.316 140.402C618.814 142.012 619.063 143.797 619.063 145.756V148.52H597.946V143.988H612.588V143.49C612.555 142.444 612.356 141.489 611.991 140.626C611.625 139.746 611.061 139.049 610.297 138.534C609.534 138.003 608.546 137.737 607.334 137.737C606.354 137.737 605.5 137.953 604.769 138.385C604.055 138.8 603.458 139.397 602.976 140.178C602.511 140.941 602.163 141.854 601.93 142.917C601.698 143.979 601.582 145.158 601.582 146.453V147.449C601.582 148.578 601.731 149.624 602.03 150.587C602.345 151.55 602.802 152.388 603.399 153.102C604.014 153.799 604.744 154.347 605.591 154.746C606.454 155.127 607.434 155.318 608.529 155.318C609.907 155.318 611.152 155.053 612.265 154.521C613.394 153.974 614.373 153.168 615.203 152.106L618.515 155.542C617.951 156.373 617.187 157.169 616.224 157.933C615.278 158.697 614.132 159.319 612.788 159.801C611.443 160.266 609.891 160.498 608.131 160.498ZM629.92 138.808V160H623.346V133.056H629.522L629.92 138.808ZM628.875 145.557H626.932C626.949 143.598 627.214 141.821 627.729 140.228C628.244 138.634 628.966 137.264 629.896 136.119C630.842 134.973 631.962 134.093 633.257 133.479C634.552 132.865 635.997 132.558 637.59 132.558C638.885 132.558 640.056 132.74 641.102 133.105C642.147 133.471 643.044 134.052 643.791 134.849C644.555 135.646 645.136 136.691 645.534 137.986C645.949 139.265 646.157 140.842 646.157 142.718V160H639.533V142.668C639.533 141.439 639.35 140.468 638.985 139.754C638.636 139.041 638.122 138.534 637.441 138.235C636.777 137.937 635.955 137.787 634.976 137.787C633.963 137.787 633.075 137.995 632.311 138.41C631.564 138.808 630.933 139.364 630.418 140.078C629.92 140.792 629.539 141.614 629.273 142.543C629.007 143.473 628.875 144.478 628.875 145.557ZM664.709 133.056V137.787H649.27V133.056H664.709ZM653.403 126.432H660.002V152.23C660.002 153.027 660.11 153.642 660.326 154.073C660.542 154.505 660.866 154.795 661.297 154.945C661.729 155.094 662.244 155.169 662.841 155.169C663.273 155.169 663.671 155.144 664.037 155.094C664.402 155.044 664.709 154.995 664.958 154.945L664.983 159.875C664.435 160.058 663.812 160.208 663.115 160.324C662.435 160.44 661.663 160.498 660.799 160.498C659.322 160.498 658.027 160.249 656.915 159.751C655.802 159.236 654.939 158.415 654.325 157.286C653.71 156.14 653.403 154.629 653.403 152.753V126.432Z" fill="#1C4670"/>
<path d="M364.366 421.573C364.366 421.573 375.624 376.671 340.67 369.213C340.67 369.213 316.821 367.192 302.311 375.598C302.311 375.598 341.142 400.855 336.042 407.871C330.941 414.887 294.785 376.58 294.785 376.58C294.785 376.58 251.006 393.418 240.819 406.657C240.819 406.657 290.991 418.255 284.341 423.776C277.69 429.298 224.919 419.679 224.919 419.679C224.919 419.679 189.361 445.82 203.196 468.707C217.032 491.593 234.043 492.273 239.617 488.688C245.19 485.103 273.076 454.597 276.217 459.088C279.358 463.578 266.489 489.867 252.326 497.879C252.326 497.879 294.716 514.647 308.614 496.721C322.512 478.796 317.182 464.069 325.986 453.152C334.791 442.235 344.45 437.394 342.393 445.077C340.336 452.759 322.345 468.229 321.546 483.075C320.747 497.921 318.766 508.649 336.202 496.35C353.637 484.051 377.396 454.794 370.905 438.194L364.366 421.573Z" fill="#1C4670" fill-opacity="0.45"/>
<path d="M222 461C222 461 326.491 401.303 365.139 420.979C365.139 420.979 378.077 434.599 401.127 441.133L407 446.961C407 446.961 378.877 436.171 371.685 438.376C371.692 438.376 363.286 393.468 222 461Z" fill="#8BC0CC"/>
<path d="M401.261 441.183C401.261 441.183 432.452 446.658 449 475.611L445.038 478C445.038 478 422.282 450.828 403.039 445.256C383.796 439.685 401.261 441.183 401.261 441.183Z" fill="#599DAD"/>
<path d="M408.423 351.913C408.423 351.913 462.867 304.098 424.021 263.223C424.021 263.223 394.801 239.266 368.497 237.112C368.497 237.112 396.596 304.421 383.759 308.876C370.923 313.332 357.855 231.618 357.855 231.618C357.855 231.618 286.08 214.138 261.052 222.06C261.052 222.06 316.001 281.924 302.464 283.109C288.926 284.295 228.852 224.636 228.852 224.636C228.852 224.636 159.446 226.481 157.168 268.359C154.889 310.238 176.391 326.356 186.809 326.721C197.227 327.086 260.519 312.722 260.61 321.318C260.701 329.914 220.649 352.249 195.187 349.913C195.187 349.913 235.414 409.467 269.331 398.794C303.249 388.121 309.397 364.41 330.478 358.172C351.559 351.934 368.441 354.397 358.956 362.452C349.47 370.508 312.377 374.382 298.201 392.766C284.026 411.151 271.946 423.242 305.492 422.996C339.038 422.751 395.853 406.331 402.127 379.125L408.423 351.913Z" fill="#BCECF7"/>
<path d="M190 274C190 274 374.233 293.379 407.214 352.344C407.214 352.344 412.331 380.808 436.382 409.526L439 422C439 422 412.031 383.475 400.958 379.782C400.958 379.782 428.004 316.565 190 274Z" fill="#8BC0CC"/>
<path d="M436.84 409.009C436.84 409.009 472.296 443.684 467.566 496L460.273 495.616C460.273 495.616 455.346 440.134 435.488 415.901C415.631 391.668 436.84 409.009 436.84 409.009Z" fill="#6BB7BF"/>
<path d="M395.875 792.365C395.875 792.365 466.634 776.51 452.009 722.339C452.009 722.339 437.763 687.532 415.661 673.135C415.661 673.135 408.183 745.274 394.759 743.063C381.334 740.852 408.921 663.278 408.921 663.278C408.921 663.278 354.156 613.886 328.339 608.87C328.339 608.87 348.04 687.274 335.578 681.847C323.115 676.42 298.78 595.812 298.78 595.812C298.78 595.812 236.853 564.423 214.807 599.907C192.76 635.391 203.987 659.686 212.974 664.96C221.961 670.233 284.492 687.804 280.476 695.365C276.46 702.927 230.541 703.373 209.246 689.22C209.246 689.22 216.155 760.369 251.099 767.156C286.043 773.943 302.796 756.17 324.316 760.767C345.836 765.363 359.52 775.527 347.317 778.052C335.114 780.577 300.654 766.291 279.38 775.631C258.106 784.971 241.705 789.749 271.334 805.486C300.963 821.223 358.796 833.911 377.353 813.159L395.875 792.365Z" fill="#BCECF7"/>
<path d="M241 620C241 620 393.84 725.135 395 792.203C395 792.203 386.062 819.391 393.651 855.904L390.066 868C390.066 868 384.538 821.596 376.551 813.077C376.551 813.028 430.179 771.048 241 620Z" fill="#8BC0CC"/>
<path d="M394.279 856.815C394.279 856.815 409.445 904.18 378.543 948L372 944.203C372 944.203 395.596 893.013 389.542 862.241C383.487 831.468 394.279 856.815 394.279 856.815Z" fill="#6BB7BF"/>
<path d="M864 303H350V1025H864V303Z" fill="#1C4670"/>
<path d="M846 323H368V1012H846V323Z" fill="#DCF6F9"/>
<path d="M808 408H417V429H808V408Z" fill="#FFA229"/>
<path d="M808 544H417V554H808V544Z" fill="#FFA229"/>
<path d="M808 567H417V578H808V567Z" fill="#FFA229"/>
<path d="M808 592H417V602H808V592Z" fill="#FFA229"/>
<path d="M808 616H417V627H808V616Z" fill="#FFA229"/>
<path d="M808 640H417V650H808V640Z" fill="#FFA229"/>
<path d="M808 664H417V674H808V664Z" fill="#FFA229"/>
<path d="M512.884 831.94C528.252 825.574 535.55 807.955 529.184 792.587C522.818 777.218 505.199 769.92 489.831 776.286C474.463 782.652 467.164 800.271 473.53 815.639C479.896 831.008 497.515 838.306 512.884 831.94Z" fill="#FFA229"/>
<path d="M657.516 833H657.262C656.866 832.932 656.514 832.711 656.281 832.386C656.049 832.062 655.955 831.659 656.02 831.266C656.303 829.616 663.2 790.767 684.938 777.54C686.489 776.603 687.463 777.093 687.9 777.463C689.811 779.085 688.359 783.21 681.813 798.765C679.204 804.966 676.114 812.321 674.838 816.788C677.158 813.782 680.621 808.629 683.372 804.533C691.97 791.732 693.648 789.649 695.362 789.649C695.663 789.646 695.96 789.716 696.227 789.854C696.494 789.992 696.723 790.193 696.893 790.439C697.803 791.732 697.111 793.934 694.734 800.282C693.666 802.959 692.762 805.698 692.026 808.482C693.525 806.954 694.909 805.318 696.166 803.589C699.15 799.751 700.659 797.912 702.436 798.192C702.84 798.265 703.214 798.45 703.515 798.726C703.816 799.002 704.032 799.358 704.136 799.751C704.308 800.285 704.426 800.836 704.489 801.394C704.722 802.932 704.99 804.672 706.859 805.721C710.632 807.818 721.508 807.706 751.892 795.151C752.266 794.998 752.687 794.998 753.06 795.152C753.434 795.306 753.73 795.601 753.885 795.972C754.039 796.343 754.038 796.759 753.883 797.13C753.728 797.5 753.43 797.794 753.056 797.947C727.404 808.545 711.803 811.929 705.37 808.357C702.239 806.609 701.773 803.68 701.498 801.904C700.638 802.806 699.439 804.358 698.557 805.49C695.271 809.734 693.112 812.286 690.905 812.111C690.58 812.084 690.265 811.982 689.987 811.815C689.708 811.648 689.471 811.419 689.297 811.146C688.246 809.496 689.297 806.252 691.878 799.261C692.294 798.15 692.774 796.863 693.19 795.668C691.074 798.52 688.253 802.771 685.918 806.217C676.284 820.549 674.542 822.625 672.602 822.101C672.203 821.986 671.853 821.744 671.608 821.411C671.363 821.078 671.236 820.674 671.248 820.262C671.05 816.907 674.203 809.126 679.006 797.632C681.461 791.795 684.649 784.147 685.474 780.784C665.725 793.948 659.06 831.406 658.997 831.818C658.923 832.153 658.736 832.453 658.466 832.668C658.197 832.883 657.861 833 657.516 833Z" fill="#1C4670"/>
<path d="M719.236 290.987H658.887C660.743 286.068 661.378 280.771 660.74 275.552C660.101 270.333 658.207 265.346 655.22 261.021C652.233 256.695 648.243 253.16 643.592 250.718C638.94 248.276 633.766 247 628.514 247C623.262 247 618.088 248.276 613.436 250.718C608.785 253.16 604.794 256.695 601.808 261.021C598.821 265.346 596.927 270.333 596.288 275.552C595.65 280.771 596.285 286.068 598.141 290.987H537.792C535.46 290.987 533.224 291.915 531.575 293.566C529.926 295.216 529 297.455 529 299.79V324.198C529 326.532 529.926 328.771 531.575 330.422C533.224 332.073 535.46 333 537.792 333H719.208C721.54 333 723.776 332.073 725.425 330.422C727.074 328.771 728 326.532 728 324.198V299.79C728 297.46 727.078 295.225 725.435 293.575C723.792 291.926 721.563 290.995 719.236 290.987ZM628.528 291.483C626.157 291.482 623.84 290.777 621.87 289.457C619.899 288.138 618.364 286.263 617.458 284.07C616.552 281.877 616.315 279.464 616.779 277.136C617.242 274.809 618.384 272.671 620.061 270.993C621.738 269.315 623.874 268.173 626.199 267.71C628.524 267.248 630.934 267.486 633.124 268.395C635.314 269.303 637.186 270.841 638.503 272.815C639.819 274.788 640.522 277.109 640.522 279.482C640.522 281.06 640.212 282.622 639.608 284.08C639.004 285.537 638.119 286.861 637.004 287.976C635.888 289.09 634.565 289.974 633.108 290.576C631.651 291.178 630.09 291.486 628.514 291.483H628.528Z" fill="#FFA229"/>
<path d="M50.4881 1022.24C62.6006 1009.81 83.9458 1001.26 108.604 1000.26V963.647H66.0743C65.1307 963.647 64.292 962.82 63.7539 961.543C63.3495 960.524 63.1477 959.435 63.1597 958.338V956.486C63.1597 953.568 64.4737 951.183 66.0743 951.183H108.611V848.91C108.611 847.608 109.126 846.359 110.044 845.438C110.962 844.517 112.206 844 113.504 844C114.801 844 116.045 844.517 116.963 845.438C117.881 846.359 118.396 847.608 118.396 848.91V951.183H160.933C162.533 951.183 163.847 953.568 163.847 956.486V958.338C163.862 959.468 163.645 960.59 163.211 961.634C162.68 962.855 161.855 963.647 160.933 963.647H118.396V1000.26C143.054 1001.26 164.399 1009.81 176.512 1022.24C177.393 1023.13 178.222 1024.06 179 1025H48C48.7735 1024.06 49.6028 1023.13 50.4881 1022.24Z" fill="#1C3A3E"/>
<path d="M108 1000.29C125.358 1001.89 140.282 1010.28 148.908 1022.22C149.566 1023.13 150.185 1024.05 150.763 1025H163C162.417 1024.06 161.796 1023.13 161.138 1022.22C151.503 1008.9 134.047 1000 114.108 1000C112.048 1000.04 110.003 1000.1 108 1000.29Z" fill="#1C4670"/>
<path d="M243 999.933C243 999.933 244.489 1024.6 249.138 1024.95C249.756 1025 272.707 1025 272.707 1025L302 1024.83C302 1024.83 301.81 1017.57 293.242 1016.04C284.674 1014.51 270.347 1008.33 265.15 996.71C259.701 984.479 243 999.933 243 999.933Z" fill="#163560"/>
<path d="M127.297 824.614C131.521 831.576 136.218 838.244 141.354 844.569C156.775 863.944 173.559 879.919 176.497 895.02C177.162 898.302 178.069 901.53 179.21 904.679C180.433 908.177 181.944 911.779 183.687 915.535C190.231 929.684 200.015 945.534 209.785 959.942C226.653 984.849 240.507 1001.57 240.507 1001.57C240.507 1001.57 244.935 1005 257.6 1005C261.115 1005 273 1003.08 273 1003.08C271.833 1000.17 257.818 967.104 240.823 925.075L219.505 872.365C218.563 870.022 217.614 867.7 216.694 865.371C214.529 860.013 212.399 854.739 210.319 849.605L181.649 778.717C181.649 778.717 117.864 754.67 111.236 770.254C105.719 783.11 110.168 795.7 127.297 824.614Z" fill="#1C3A3E"/>
<path d="M332 758H235V1025H332V758Z" fill="#49ADB7"/>
<path d="M328 1025H397L397 758H328V1025Z" fill="#8BC0CC"/>
<path d="M328 753H229V758H328V753Z" fill="#24555E"/>
<path d="M405 753H328V758H405V753Z" fill="#49ADB7"/>
<path d="M227.281 717C227.281 717 241.37 724.949 245.313 724.949C249.256 724.949 264.748 721.975 269.062 724.168C273.377 726.361 281.227 735.155 282.658 738.03C285.291 743.204 272.046 740.918 265.785 736.511C265.336 736.194 264.826 735.974 264.286 735.864C263.746 735.754 263.19 735.757 262.651 735.872C259.41 736.582 252.676 737.788 249.42 736.582C245.041 734.971 222 733.189 222 733.189L227.281 717Z" fill="#F9A6A0"/>
<path d="M123 609.33C123 609.33 137.24 711.956 160.81 721.15C172.442 725.684 223.851 736.003 239.06 737C239.06 737 242.784 733.93 241.85 721.44C241.85 721.44 187.986 701.389 180.336 690.483C168.948 674.216 187.407 624.169 173.119 608.927C158.83 593.686 134.792 587.143 123 609.33Z" fill="white" fill-opacity="0.36"/>
<path d="M175.592 932C175.592 932 155.136 945.143 157.138 949.416C157.408 949.984 168.715 970.231 168.715 970.231L183.294 996C183.294 996 189.433 992.352 186.53 984.063C183.627 975.774 181.874 960.161 189.305 949.998C197.078 939.324 175.592 932 175.592 932Z" fill="#FF4B42"/>
<path d="M187.196 957C187.196 957 173.013 943.802 170.79 935.637C170.79 935.637 222.686 873.363 233.94 859.402C234.457 858.765 234.324 858.064 233.646 857.301C225.146 847.709 130.729 828.195 118.391 808.989C114.713 803.346 112.016 797.119 110.416 790.574C107.62 778.839 109.828 770.731 109.828 770.731L204.127 768C204.127 768 282.634 816.971 291.505 850.355C300.375 883.74 187.196 957 187.196 957Z" fill="#24555E"/>
<path d="M234 858C225.447 848.292 130.44 828.544 118.026 809.108C114.325 803.398 111.611 797.097 110 790.473V778.377L150.325 772C150.325 772 161.762 807.429 195.63 820.743C227.353 833.2 233.367 855.265 234 858Z" fill="#1C3A3E"/>
<path d="M178 604.14C158.811 609.047 127 591.361 127 591.361C127 591.361 139.347 583.083 143.925 564.907C144.164 563.988 144.368 563.056 144.558 562.103L154.402 560L169.056 573.087C168.63 578.051 167.907 582.985 166.89 587.863C166.571 589.494 166.203 591.242 165.786 593.107C170.501 596.008 174.641 599.748 178 604.14Z" fill="#FCBDB6"/>
<path d="M107.514 683.18C110.257 720.229 106.651 776.58 109.759 786.341C112.446 794.756 143.045 789.752 155.253 786.94C159.772 785.904 165.244 784.417 170.9 782.655C186.672 777.722 203.876 770.752 205.701 765.551C205.77 765.355 205.829 765.155 205.876 764.952C206.041 764.235 206.041 763.491 205.876 762.774C205.259 760.124 202.894 757.256 202.614 750.688C202.305 743.365 202.347 734.732 202.073 725.458C202.073 724.408 202.073 723.273 201.933 722.23V721.85C201.933 721.652 201.933 721.455 201.933 721.258C201.673 710.912 201.133 700.031 200.53 689.241C200.13 682.468 199.674 675.752 199.126 669.325C197.723 652.728 195.899 637.971 193.443 628.64C189.437 613.431 180.596 603.509 172.548 596.222L166.732 591.211C160.235 592.62 152.552 591.69 145.613 588.392C138.091 584.805 135.495 582.239 134.19 583.205C116.754 596.666 104.272 637.886 107.514 683.18Z" fill="#FFA229"/>
<path d="M170.51 782C186.514 777.101 203.971 770.179 205.822 765.015C205.892 764.82 205.952 764.621 206 764.42C206 763.72 206 762.978 206 762.257C205.374 759.626 202.974 756.777 202.689 750.255C202.376 742.983 202.419 734.41 202.141 725.2C202.141 724.157 202.141 723.03 201.999 721.995V721.617C201.999 721.421 201.999 721.225 201.999 721.029L137.305 640C137.305 640 93.7563 729.028 170.51 782Z" fill="white" fill-opacity="0.36"/>
<path d="M170 573.155C169.577 578.142 168.858 583.099 167.846 588C153.615 583.366 147.161 570.394 145 564.93C145.238 564.007 145.441 563.07 145.629 562.113L155.42 560L170 573.155Z" fill="#F9A6A0"/>
<path d="M171.793 580.984C171.793 580.984 140.761 575.737 144.278 556.165C147.795 536.594 146.173 522.773 166.137 525.297C186.1 527.822 188.597 535.998 188.988 542.813C189.38 549.627 179.961 581.821 171.793 580.984Z" fill="#FCBDB6"/>
<path d="M240.035 748.256L317.269 748.249L338.255 680L341 680.855L318.809 753H240L240.035 748.256Z" fill="#1C4670"/>
<path d="M219 750.08C219 750.08 244.361 756.641 253.904 755.949C263.446 755.257 271.355 750.826 272.521 748.505C273.687 746.183 276.228 742.081 269.729 742.841C263.23 743.602 254.413 744.951 254.141 743.732C253.869 742.513 259.418 742.622 259.418 742.622C259.418 742.622 261.094 740.232 258.985 740.143C256.877 740.054 250.706 738.417 248.417 739.541C246.127 740.664 244.012 744.807 242.336 744.636C240.661 744.464 221.115 736 221.115 736L219 750.08Z" fill="#FCBDB6"/>
<path d="M129 615.807C129 615.807 132.001 718.157 154.443 729.793C165.517 735.53 215.531 751.303 230.506 754C230.506 754 234.546 751.4 235 739.045C235 739.045 183.612 713.405 177.192 701.846C167.632 684.648 191.435 637.512 178.881 620.964C166.327 604.416 143.138 595.317 129 615.807Z" fill="#FFA229"/>
<path d="M144.556 565C144.556 565 144.203 558.234 148.326 554.358C148.326 554.358 146.912 547.578 149.543 546.455C152.174 545.333 152.754 551.04 153.964 550.146C155.173 549.252 160.598 545.004 162.925 538.746C165.252 532.488 186.5 540.062 188.976 541.192C191.451 542.322 199.416 538.181 201 534.827C201 534.827 196.572 531.251 194.585 528.569C192.597 525.887 178.663 507.772 159.219 512.914C139.775 518.056 137.108 527.453 138.212 535.499C139.315 543.545 136.557 562.297 144.556 565Z" fill="#501506"/>
<path d="M180.1 811.117C150.83 811.119 121.864 805.125 94.9463 793.495L77.4779 785.951C73.8215 784.373 69.8353 783.737 65.8761 784.099C61.917 784.461 58.1084 785.811 54.7914 788.027C51.4744 790.244 48.7524 793.258 46.8691 796.799C44.9859 800.341 44 804.3 44 808.321V842.039C44.0056 843.619 44.6292 845.133 45.7347 846.25C46.8401 847.367 48.3376 847.996 49.9 848H180.1C181.662 847.996 183.16 847.367 184.265 846.25C185.371 845.133 185.994 843.619 186 842.039V817.071C185.993 815.492 185.368 813.98 184.263 812.864C183.158 811.749 181.661 811.121 180.1 811.117Z" fill="#8BC0CC"/>
<path d="M689.956 837.148C662.556 841.866 635.996 842.893 615.744 841.304C595.31 839.693 583.376 833.365 582.108 826.143C580.993 819.603 588.555 812.079 603.992 804.457C589.199 811.784 582.031 820.032 583.047 825.981C584.175 832.584 596.102 837.232 615.758 838.814C635.905 840.396 662.058 838.681 689.381 833.976C716.704 829.272 741.939 822.142 760.404 813.9C778.42 805.863 788.105 797.467 786.977 790.864C785.778 783.832 772.919 777.138 753.41 773.284C731.224 768.911 705.057 770.38 679.269 774.824C630.86 783.157 611.897 792.263 595.829 802.347C611.946 792.214 630.271 780.738 678.848 772.37C704.742 767.912 731.273 767.877 753.557 772.265C773.48 776.189 786.647 783.249 787.895 790.688C789.128 797.91 779.486 806.489 760.768 814.843C742.282 823.14 717.349 832.443 689.956 837.148Z" fill="#1C4670"/>
<path d="M1009 746.278C1009 746.278 1007.28 762.225 1005.4 765.262C1003.52 768.299 995.512 777.94 992.101 779.832C988.689 781.723 994.188 767.118 993.492 764.269C992.796 761.42 990.686 769.459 989.18 769.647C987.675 769.836 988.061 762.609 988.008 759.978C987.955 757.347 995.323 750.852 997.925 745.249C1000.53 739.646 1009 746.278 1009 746.278Z" fill="#FCBDB6"/>
<path d="M819 604.557L815.429 597.649C815.429 597.649 817.204 585.367 802.18 577.571C802.18 577.571 796.686 575.28 793.587 579.876C790.77 584.102 799.032 583.344 798.581 590.576C798.13 597.808 801.49 602.064 806.153 604.419L810.005 609L819 604.557Z" fill="#FCBDB6"/>
<path d="M959 589.261C959 589.261 946.212 651.327 875.856 671.603C853.896 677.934 804 606.417 804 606.417C804 606.417 805.752 599.824 816.739 601.343C816.739 601.343 865.323 633.149 871.438 636.608C876.869 639.673 912.559 597.194 928.831 590.352C945.102 583.51 959 589.261 959 589.261Z" fill="#FFA229" fill-opacity="0.56"/>
<path d="M771.578 576.186L769.574 589.234L835.2 599.312L837.204 586.263L771.578 576.186Z" fill="#FF4B42"/>
<path d="M755 580.843L769.027 589L771 577L755 580.843Z" fill="#1C3A3E"/>
<path d="M843.95 592.268L843.314 596.219C843.222 596.798 843.012 597.353 842.696 597.853C842.381 598.354 841.966 598.79 841.475 599.136C840.984 599.482 840.427 599.732 839.835 599.872C839.244 600.011 838.629 600.037 838.028 599.948L835 599.505L837 587L840.293 587.484C841.438 587.653 842.466 588.252 843.152 589.149C843.838 590.046 844.125 591.168 843.95 592.268Z" fill="#1C3A3E"/>
<path d="M1044.73 984.732C1044.73 984.732 1053.49 992.619 1051.78 998.224C1050.07 1003.83 1042.17 1007.56 1041.1 1014.41C1040.02 1021.26 1035.76 1025 1031.91 1025H1013.57C1013.57 1025 1010.77 1020.16 1017.58 1018.72C1024.39 1017.29 1026.99 1009.23 1026.57 1001.75C1026.14 994.271 1027.21 984.318 1027.21 984.318L1041.74 981L1044.73 984.732Z" fill="#FF4B42"/>
<path d="M935.685 1005C935.685 1005 937.237 1023.13 933.451 1025L885 1024.9C885 1024.9 885 1019.25 892.786 1017.99C900.571 1016.72 914.232 1012.12 916.549 1001.87C918.866 991.61 935.685 1005 935.685 1005Z" fill="#FF4B42"/>
<path d="M894 747.455C894 747.455 896.645 779.592 899.762 818.224C903.994 870.702 909.056 935.167 909.585 947.381C910.457 968.561 913.946 1002.51 913.946 1002.51C913.946 1002.51 922.232 1010.56 938.803 1007.16C938.803 1007.16 953.573 958.74 957.791 907.513C957.855 906.672 957.92 905.825 957.991 904.978C961.916 852.826 968 743 968 743L894 747.455Z" fill="#24555E"/>
<path d="M894 747.441C894 747.441 896.645 779.478 899.762 817.99L957.791 907C957.855 906.162 957.92 905.318 957.991 904.473C961.916 852.483 968 743 968 743L894 747.441Z" fill="#1C3A3E"/>
<path d="M907 751.847C907 751.847 953.733 867.809 984.463 922.298C1015.19 976.786 1024.79 992 1024.79 992C1024.79 992 1042.4 985.03 1044 980.282C1044 980.282 1032.25 875.075 1011.67 849.459C1000.04 834.97 986.38 791.481 985.778 776.31C985.177 761.139 981.58 731 981.58 731L907 751.847Z" fill="#24555E"/>
<path d="M969 574.185C969 574.185 937.288 589.386 919 583.745C922.48 579.735 926.677 576.399 931.379 573.906C930.747 570.259 930.256 567.093 929.976 564.415C929.538 561.196 929.28 557.956 929.204 554.709L941.442 545.149L953.042 536C952.123 561.731 969 574.185 969 574.185Z" fill="#FCBDB6"/>
<path d="M984.999 737.025C985.069 738.967 980.917 741.191 979.084 742.022C965.496 747.996 952.829 752.162 938.469 753.548C921.502 755.286 901.437 751.437 894.538 751.606C893.833 751.592 893.158 751.319 892.641 750.839C892.142 750.494 891.791 730.009 892.142 704.254C892.142 703.212 892.142 702.143 892.212 701.129V700.785C892.36 690.715 892.711 680.159 893.203 669.611C894.186 646.389 896.013 624.06 899.111 611.703C902.849 597.123 911.294 587.468 918.966 580.459L925.289 574.907C931.939 576.346 938.879 575.513 945.003 572.542C952.323 569.024 960.206 565.182 961.47 566.153C971.046 573.19 977.524 588.931 980.973 609.078C983.027 621.7 983.993 634.474 983.861 647.261C983.861 652.265 983.72 657.402 983.439 662.468C981.746 689.962 983.439 713.838 984.423 727.666C984.739 731.677 984.95 734.802 984.999 737.025Z" fill="#FFA229"/>
<path d="M985 736C874.531 735.785 964.624 616.783 964.624 616.783L982.522 611C984.007 624.371 984.706 637.817 984.616 651.269C984.616 656.538 984.518 661.954 984.316 667.293C983.08 696.28 984.295 721.462 985 736Z" fill="#FFA229" fill-opacity="0.56"/>
<path d="M953 545.681C953 545.681 945.002 559.991 929.77 564C929.334 560.826 929.077 557.63 929 554.428L941.214 545L953 545.681Z" fill="#F9A6A0"/>
<path d="M922.88 553.422C922.88 553.422 953.073 558.249 955.91 540.01C958.746 521.771 964.552 510.055 945.404 506.18C926.255 502.305 921.409 508.724 918.936 514.599C916.464 520.474 915.098 551.684 922.88 553.422Z" fill="#FCBDB6"/>
<path d="M967.65 504.334C967.928 504.015 968.569 503.76 970 503.682C969.181 503.234 968.264 502.991 967.33 502.973C967.031 500.99 965.97 497.49 962.545 496.64C963.103 496.962 963.581 497.407 963.943 497.939C964.304 498.472 964.539 499.079 964.631 499.715C960.665 495.663 952.17 492.716 928.644 494.565C897.633 497.001 907.851 516.752 911.867 519.104C915.883 521.456 925.988 515.002 933.464 515.562C940.941 516.122 942.365 526.897 944.9 528.384C947.435 529.872 946.445 527.251 949.884 525.706C953.323 524.162 953.644 529.822 952.647 533.499C951.65 537.176 956.371 542 956.371 542L961.142 536.892C965.906 531.785 970.399 510.15 968.263 505.545L967.65 504.334Z" fill="#501506"/>
<path d="M961.5 566C961.5 566 980.686 575.085 989.886 589.06C1004.16 610.734 1020.69 689.732 1020.99 697.044C1021.3 704.355 1008.95 756 1008.95 756C1008.95 756 996.392 755.177 993.157 748.836C993.157 748.836 995.668 695.777 994.078 692.364C992.489 688.951 941.743 621.184 947.447 606.723C953.151 592.262 961.5 566 961.5 566Z" fill="#FFA229"/>
<path d="M814.806 597.32C814.806 597.32 815.897 593.51 812.905 591.8C809.914 590.09 807.158 585.428 805.891 586.058C803.275 587.359 807.327 591.429 806.583 596.501C806.325 598.276 811.004 602.925 814.806 597.32Z" fill="#FCBDB6"/>
<path d="M0.964696 1028H1079.04C1079.57 1028 1080 1027.32 1080 1026.5C1080 1025.68 1079.57 1025 1079.04 1025H0.964696C0.434123 1025 0 1025.68 0 1026.5C0 1027.32 0.434123 1028 0.964696 1028Z" fill="#1C3A3E"/>
</svg>
