<svg width="1000" height="974" viewBox="0 0 1000 974" fill="none" xmlns="http://www.w3.org/2000/svg">
<rect width="1000" height="974" fill="white"/>
<path d="M238.511 94.8486C238.511 94.0967 238.395 93.4253 238.162 92.8345C237.947 92.2257 237.544 91.6797 236.954 91.1963C236.381 90.695 235.566 90.2116 234.51 89.7461C233.471 89.2627 232.129 88.7614 230.481 88.2422C228.655 87.6693 226.954 87.0247 225.379 86.3086C223.803 85.5924 222.416 84.7599 221.216 83.811C220.035 82.8621 219.113 81.77 218.45 80.5347C217.788 79.2814 217.457 77.8312 217.457 76.1841C217.457 74.5728 217.797 73.1047 218.477 71.7798C219.175 70.4549 220.16 69.318 221.431 68.3691C222.702 67.4023 224.197 66.6593 225.916 66.1401C227.653 65.6209 229.568 65.3613 231.663 65.3613C234.563 65.3613 237.07 65.8895 239.183 66.9458C241.313 68.0021 242.96 69.4344 244.124 71.2427C245.288 73.0509 245.87 75.083 245.87 77.3389H238.511C238.511 76.1214 238.252 75.0472 237.732 74.1162C237.231 73.1852 236.461 72.4512 235.423 71.9141C234.402 71.377 233.113 71.1084 231.556 71.1084C230.052 71.1084 228.799 71.3322 227.796 71.7798C226.811 72.2274 226.068 72.8361 225.567 73.606C225.083 74.3758 224.842 75.2352 224.842 76.1841C224.842 76.9002 225.012 77.5448 225.352 78.1177C225.692 78.6727 226.202 79.2008 226.883 79.7021C227.563 80.1855 228.405 80.6421 229.407 81.0718C230.428 81.4836 231.609 81.8953 232.952 82.3071C235.101 82.9517 236.98 83.6678 238.592 84.4556C240.221 85.2433 241.573 86.1385 242.647 87.1411C243.739 88.1437 244.554 89.2716 245.091 90.5249C245.646 91.7782 245.923 93.2015 245.923 94.7949C245.923 96.4779 245.592 97.9818 244.93 99.3066C244.267 100.632 243.318 101.759 242.083 102.69C240.848 103.621 239.362 104.329 237.625 104.812C235.906 105.295 233.982 105.537 231.851 105.537C229.953 105.537 228.073 105.286 226.211 104.785C224.367 104.266 222.693 103.496 221.189 102.476C219.686 101.437 218.486 100.13 217.591 98.5547C216.696 96.9613 216.248 95.0993 216.248 92.9688H223.66C223.66 94.2041 223.857 95.2604 224.251 96.1377C224.663 96.9971 225.236 97.7043 225.97 98.2593C226.722 98.7964 227.599 99.1903 228.602 99.4409C229.604 99.6916 230.687 99.8169 231.851 99.8169C233.355 99.8169 234.59 99.611 235.557 99.1992C236.542 98.7695 237.276 98.1787 237.759 97.4268C238.261 96.6748 238.511 95.8154 238.511 94.8486ZM258.169 81.5283V116.172H251.053V75.9424H257.632L258.169 81.5283ZM276.834 90.1758V90.7397C276.834 92.8524 276.583 94.8128 276.082 96.6211C275.599 98.4115 274.882 99.978 273.934 101.321C272.985 102.646 271.803 103.684 270.389 104.436C268.992 105.17 267.381 105.537 265.555 105.537C263.764 105.537 262.207 105.197 260.882 104.517C259.557 103.818 258.438 102.834 257.525 101.562C256.612 100.291 255.878 98.8143 255.323 97.1313C254.786 95.4305 254.383 93.5775 254.114 91.5723V89.7729C254.383 87.6424 254.786 85.7088 255.323 83.9722C255.878 82.2176 256.612 80.7048 257.525 79.4336C258.438 78.1445 259.548 77.1509 260.855 76.4526C262.18 75.7544 263.729 75.4053 265.501 75.4053C267.345 75.4053 268.965 75.7544 270.362 76.4526C271.776 77.1509 272.967 78.1535 273.934 79.4604C274.9 80.7674 275.625 82.325 276.109 84.1333C276.592 85.9416 276.834 87.9557 276.834 90.1758ZM269.717 90.7397V90.1758C269.717 88.8867 269.601 87.6961 269.368 86.604C269.135 85.494 268.777 84.5272 268.294 83.7036C267.811 82.8621 267.184 82.2087 266.414 81.7432C265.644 81.2777 264.713 81.0449 263.621 81.0449C262.529 81.0449 261.589 81.224 260.801 81.582C260.014 81.9401 259.369 82.4504 258.868 83.1128C258.366 83.7752 257.972 84.563 257.686 85.4761C257.417 86.3713 257.238 87.3649 257.149 88.457V92.915C257.31 94.2399 257.623 95.4305 258.089 96.4868C258.554 97.5431 259.235 98.3846 260.13 99.0112C261.043 99.6379 262.225 99.9512 263.675 99.9512C264.767 99.9512 265.698 99.7095 266.468 99.2261C267.238 98.7427 267.864 98.0802 268.348 97.2388C268.831 96.3794 269.18 95.3947 269.395 94.2847C269.61 93.1746 269.717 91.993 269.717 90.7397ZM289.537 75.9424V105H282.42V75.9424H289.537ZM281.937 68.3423C281.937 67.286 282.295 66.4087 283.011 65.7104C283.745 65.0122 284.729 64.6631 285.965 64.6631C287.2 64.6631 288.176 65.0122 288.892 65.7104C289.626 66.4087 289.993 67.286 289.993 68.3423C289.993 69.3807 289.626 70.249 288.892 70.9473C288.176 71.6455 287.2 71.9946 285.965 71.9946C284.729 71.9946 283.745 71.6455 283.011 70.9473C282.295 70.249 281.937 69.3807 281.937 68.3423ZM308.228 99.9512C309.231 99.9512 310.126 99.7542 310.914 99.3604C311.701 98.9665 312.328 98.4115 312.793 97.6953C313.277 96.9792 313.536 96.1466 313.572 95.1978H320.259C320.223 97.1672 319.668 98.9307 318.594 100.488C317.52 102.046 316.088 103.281 314.297 104.194C312.525 105.09 310.538 105.537 308.335 105.537C306.097 105.537 304.146 105.161 302.481 104.409C300.816 103.657 299.428 102.61 298.318 101.267C297.226 99.9243 296.403 98.3667 295.848 96.5942C295.311 94.8218 295.042 92.924 295.042 90.9009V90.0415C295.042 88.0184 295.311 86.1206 295.848 84.3481C296.403 82.5757 297.226 81.0181 298.318 79.6753C299.428 78.3325 300.816 77.2852 302.481 76.5332C304.146 75.7812 306.089 75.4053 308.309 75.4053C310.654 75.4053 312.713 75.8618 314.485 76.7749C316.276 77.688 317.672 78.9771 318.675 80.6421C319.695 82.3071 320.223 84.2676 320.259 86.5234H313.572C313.536 85.485 313.304 84.554 312.874 83.7305C312.444 82.9069 311.836 82.2445 311.048 81.7432C310.26 81.2419 309.302 80.9912 308.174 80.9912C306.975 80.9912 305.972 81.2419 305.167 81.7432C304.379 82.2445 303.761 82.9338 303.313 83.811C302.884 84.6704 302.579 85.6372 302.4 86.7114C302.239 87.7677 302.159 88.8778 302.159 90.0415V90.9009C302.159 92.0825 302.239 93.2104 302.4 94.2847C302.579 95.3589 302.884 96.3257 303.313 97.1851C303.761 98.0265 304.379 98.6979 305.167 99.1992C305.972 99.7005 306.993 99.9512 308.228 99.9512ZM338.038 105.537C335.835 105.537 333.857 105.179 332.103 104.463C330.348 103.747 328.853 102.753 327.618 101.482C326.4 100.193 325.46 98.6979 324.798 96.9971C324.153 95.2783 323.831 93.4342 323.831 91.4648V90.3906C323.831 88.1527 324.153 86.1206 324.798 84.2944C325.442 82.4504 326.355 80.8659 327.537 79.541C328.719 78.2161 330.133 77.1956 331.78 76.4795C333.427 75.7633 335.245 75.4053 337.232 75.4053C339.291 75.4053 341.108 75.7544 342.684 76.4526C344.259 77.133 345.575 78.0998 346.631 79.353C347.688 80.6063 348.484 82.1102 349.021 83.8647C349.559 85.6014 349.827 87.526 349.827 89.6387V92.6196H327.054V87.7319H342.845V87.1948C342.809 86.0669 342.594 85.0374 342.2 84.1064C341.806 83.1576 341.198 82.4056 340.374 81.8506C339.55 81.2777 338.485 80.9912 337.178 80.9912C336.122 80.9912 335.2 81.224 334.412 81.6895C333.642 82.137 332.998 82.7816 332.479 83.623C331.977 84.4466 331.601 85.4313 331.351 86.5771C331.1 87.723 330.975 88.9941 330.975 90.3906V91.4648C330.975 92.6823 331.136 93.8102 331.458 94.8486C331.798 95.887 332.291 96.7912 332.935 97.561C333.597 98.313 334.385 98.9038 335.298 99.3335C336.229 99.7453 337.286 99.9512 338.467 99.9512C339.953 99.9512 341.296 99.6647 342.496 99.0918C343.713 98.501 344.769 97.6326 345.665 96.4868L349.236 100.193C348.628 101.088 347.804 101.947 346.766 102.771C345.745 103.595 344.51 104.266 343.06 104.785C341.609 105.286 339.935 105.537 338.038 105.537ZM383.799 87.5708H373.809L373.755 82.3608H382.322C383.79 82.3608 385.017 82.1549 386.001 81.7432C386.986 81.3314 387.729 80.7316 388.23 79.9438C388.75 79.1561 389.009 78.1982 389.009 77.0703C389.009 75.8171 388.768 74.7965 388.284 74.0088C387.819 73.221 387.085 72.6481 386.082 72.29C385.079 71.9141 383.808 71.7261 382.269 71.7261H376.199V105H368.814V65.8984H382.269C384.489 65.8984 386.467 66.1133 388.204 66.543C389.958 66.9548 391.444 67.5993 392.662 68.4766C393.879 69.3538 394.801 70.4549 395.428 71.7798C396.072 73.1047 396.395 74.6802 396.395 76.5063C396.395 78.1177 396.019 79.6037 395.267 80.9644C394.533 82.3071 393.396 83.3993 391.856 84.2407C390.334 85.0822 388.401 85.5656 386.055 85.6909L383.799 87.5708ZM383.477 105H371.634L374.722 99.1992H383.477C384.945 99.1992 386.154 98.9575 387.103 98.4741C388.069 97.9907 388.785 97.3283 389.251 96.4868C389.734 95.6274 389.976 94.6427 389.976 93.5327C389.976 92.3153 389.761 91.259 389.332 90.3638C388.92 89.4686 388.257 88.7793 387.344 88.2959C386.449 87.8125 385.267 87.5708 383.799 87.5708H376.119L376.172 82.3608H385.948L387.64 84.375C389.896 84.3929 391.731 84.8405 393.145 85.7178C394.577 86.5951 395.634 87.723 396.314 89.1016C396.994 90.4801 397.334 91.9661 397.334 93.5596C397.334 96.0661 396.788 98.1698 395.696 99.8706C394.622 101.571 393.047 102.852 390.97 103.711C388.911 104.57 386.413 105 383.477 105ZM401.927 90.7666V90.2026C401.927 88.0721 402.231 86.1117 402.84 84.3213C403.449 82.513 404.335 80.9465 405.499 79.6216C406.662 78.2967 408.086 77.2673 409.769 76.5332C411.451 75.7812 413.367 75.4053 415.516 75.4053C417.7 75.4053 419.633 75.7812 421.316 76.5332C423.017 77.2673 424.45 78.2967 425.613 79.6216C426.777 80.9465 427.663 82.513 428.272 84.3213C428.881 86.1117 429.185 88.0721 429.185 90.2026V90.7666C429.185 92.8792 428.881 94.8397 428.272 96.6479C427.663 98.4383 426.777 100.005 425.613 101.348C424.45 102.673 423.026 103.702 421.343 104.436C419.66 105.17 417.736 105.537 415.569 105.537C413.421 105.537 411.496 105.17 409.795 104.436C408.095 103.702 406.662 102.673 405.499 101.348C404.335 100.005 403.449 98.4383 402.84 96.6479C402.231 94.8397 401.927 92.8792 401.927 90.7666ZM409.017 90.2026V90.7666C409.017 92.0378 409.142 93.2284 409.393 94.3384C409.643 95.4484 410.028 96.4242 410.547 97.2656C411.067 98.1071 411.738 98.7695 412.562 99.2529C413.403 99.7184 414.406 99.9512 415.569 99.9512C416.715 99.9512 417.7 99.7184 418.523 99.2529C419.347 98.7695 420.018 98.1071 420.538 97.2656C421.075 96.4242 421.469 95.4484 421.719 94.3384C421.97 93.2284 422.095 92.0378 422.095 90.7666V90.2026C422.095 88.9494 421.97 87.7767 421.719 86.6846C421.469 85.5745 421.075 84.5988 420.538 83.7573C420.018 82.8979 419.338 82.2266 418.497 81.7432C417.673 81.2419 416.679 80.9912 415.516 80.9912C414.37 80.9912 413.385 81.2419 412.562 81.7432C411.738 82.2266 411.067 82.8979 410.547 83.7573C410.028 84.5988 409.643 85.5745 409.393 86.6846C409.142 87.7767 409.017 88.9494 409.017 90.2026ZM450.347 98.8232V85.4224C450.347 84.4377 450.177 83.5872 449.837 82.8711C449.497 82.1549 448.978 81.5999 448.279 81.2061C447.581 80.8122 446.695 80.6152 445.621 80.6152C444.672 80.6152 443.839 80.7764 443.123 81.0986C442.425 81.4209 441.888 81.8774 441.512 82.4683C441.136 83.0412 440.948 83.7036 440.948 84.4556H433.831C433.831 83.256 434.118 82.1191 434.69 81.0449C435.263 79.9528 436.078 78.986 437.134 78.1445C438.208 77.2852 439.489 76.6138 440.975 76.1304C442.479 75.647 444.161 75.4053 446.023 75.4053C448.226 75.4053 450.186 75.7812 451.905 76.5332C453.641 77.2673 455.002 78.3773 455.987 79.8633C456.989 81.3493 457.491 83.2202 457.491 85.4761V98.1519C457.491 99.6021 457.58 100.846 457.759 101.885C457.956 102.905 458.243 103.792 458.619 104.543V105H451.395C451.054 104.266 450.795 103.335 450.616 102.207C450.437 101.061 450.347 99.9333 450.347 98.8232ZM451.341 87.3022L451.395 91.5186H446.91C445.8 91.5186 444.824 91.6349 443.982 91.8677C443.141 92.0825 442.452 92.4048 441.915 92.8345C441.377 93.2463 440.975 93.7476 440.706 94.3384C440.438 94.9113 440.303 95.5648 440.303 96.2988C440.303 97.015 440.464 97.6595 440.787 98.2324C441.127 98.8053 441.61 99.2619 442.237 99.6021C442.881 99.9243 443.633 100.085 444.493 100.085C445.746 100.085 446.838 99.8348 447.769 99.3335C448.7 98.8143 449.425 98.1877 449.944 97.4536C450.464 96.7196 450.741 96.0213 450.777 95.3589L452.818 98.4204C452.567 99.1545 452.191 99.9333 451.69 100.757C451.189 101.58 450.544 102.35 449.756 103.066C448.969 103.783 448.02 104.373 446.91 104.839C445.8 105.304 444.511 105.537 443.042 105.537C441.163 105.537 439.48 105.161 437.994 104.409C436.508 103.657 435.335 102.628 434.476 101.321C433.616 100.014 433.187 98.5278 433.187 96.8628C433.187 95.3231 433.473 93.9624 434.046 92.7808C434.619 91.5991 435.469 90.6055 436.597 89.7998C437.725 88.9762 439.122 88.3586 440.787 87.9468C442.47 87.5171 444.394 87.3022 446.561 87.3022H451.341ZM470.972 81.8774V105H463.882V75.9424H470.596L470.972 81.8774ZM479.808 75.7544L479.7 82.3608C479.306 82.2892 478.859 82.2355 478.357 82.1997C477.874 82.1639 477.417 82.146 476.988 82.146C475.896 82.146 474.938 82.2982 474.114 82.6025C473.291 82.889 472.601 83.3097 472.046 83.8647C471.509 84.4198 471.097 85.1001 470.811 85.9058C470.525 86.6935 470.363 87.5887 470.328 88.5913L468.797 88.4033C468.797 86.5592 468.985 84.8494 469.361 83.2739C469.737 81.6984 470.283 80.3198 470.999 79.1382C471.715 77.9565 472.61 77.0435 473.685 76.3989C474.777 75.7365 476.03 75.4053 477.444 75.4053C477.838 75.4053 478.259 75.4411 478.707 75.5127C479.172 75.5664 479.539 75.647 479.808 75.7544ZM500.594 98.8232V63.75H507.737V105H501.292L500.594 98.8232ZM481.929 90.8203V90.2563C481.929 88.0363 482.18 86.0221 482.681 84.2139C483.2 82.3877 483.952 80.8211 484.937 79.5142C485.922 78.2072 487.112 77.1956 488.509 76.4795C489.923 75.7633 491.526 75.4053 493.316 75.4053C495.053 75.4053 496.565 75.7544 497.854 76.4526C499.161 77.1509 500.271 78.1445 501.185 79.4336C502.116 80.7227 502.859 82.2534 503.414 84.0259C503.969 85.7804 504.371 87.714 504.622 89.8267V91.3574C504.371 93.4163 503.969 95.3052 503.414 97.0239C502.859 98.7427 502.116 100.247 501.185 101.536C500.271 102.807 499.161 103.792 497.854 104.49C496.548 105.188 495.017 105.537 493.262 105.537C491.49 105.537 489.896 105.17 488.482 104.436C487.085 103.702 485.895 102.673 484.91 101.348C483.943 100.023 483.2 98.4652 482.681 96.6748C482.18 94.8844 481.929 92.9329 481.929 90.8203ZM489.046 90.2563V90.8203C489.046 92.0736 489.153 93.2463 489.368 94.3384C489.583 95.4305 489.932 96.3973 490.416 97.2388C490.899 98.0623 491.517 98.7069 492.269 99.1724C493.038 99.6379 493.969 99.8706 495.062 99.8706C496.458 99.8706 497.604 99.5662 498.499 98.9575C499.412 98.3309 500.119 97.4805 500.621 96.4062C501.122 95.3141 501.444 94.0877 501.587 92.7271V88.5107C501.516 87.4365 501.328 86.4429 501.023 85.5298C500.737 84.6167 500.325 83.8289 499.788 83.1665C499.269 82.5041 498.624 81.9849 497.854 81.6089C497.085 81.2329 496.172 81.0449 495.115 81.0449C494.023 81.0449 493.092 81.2866 492.322 81.77C491.552 82.2355 490.926 82.889 490.442 83.7305C489.959 84.5719 489.601 85.5477 489.368 86.6577C489.153 87.7677 489.046 88.9673 489.046 90.2563Z" fill="#1C4670"/>
<path d="M528.389 65.8984H542.596C545.568 65.8984 548.119 66.346 550.25 67.2412C552.38 68.1364 554.018 69.4613 555.164 71.2158C556.31 72.9704 556.883 75.1278 556.883 77.688C556.883 79.7111 556.525 81.4657 555.809 82.9517C555.092 84.4377 554.081 85.682 552.774 86.6846C551.485 87.6872 549.963 88.4749 548.208 89.0479L545.899 90.2295H533.357L533.304 84.4019H542.676C544.198 84.4019 545.46 84.1333 546.463 83.5962C547.465 83.0591 548.217 82.3161 548.719 81.3672C549.238 80.4183 549.498 79.3351 549.498 78.1177C549.498 76.8107 549.247 75.6828 548.746 74.7339C548.244 73.7671 547.483 73.0241 546.463 72.5049C545.442 71.9857 544.153 71.7261 542.596 71.7261H535.774V105H528.389V65.8984ZM550.464 105L541.414 87.4902L549.229 87.4634L558.387 104.624V105H550.464ZM575.87 105.537C573.667 105.537 571.689 105.179 569.935 104.463C568.18 103.747 566.685 102.753 565.45 101.482C564.232 100.193 563.292 98.6979 562.63 96.9971C561.985 95.2783 561.663 93.4342 561.663 91.4648V90.3906C561.663 88.1527 561.985 86.1206 562.63 84.2944C563.274 82.4504 564.188 80.8659 565.369 79.541C566.551 78.2161 567.965 77.1956 569.612 76.4795C571.259 75.7633 573.077 75.4053 575.064 75.4053C577.123 75.4053 578.94 75.7544 580.516 76.4526C582.091 77.133 583.407 78.0998 584.463 79.353C585.52 80.6063 586.316 82.1102 586.854 83.8647C587.391 85.6014 587.659 87.526 587.659 89.6387V92.6196H564.886V87.7319H580.677V87.1948C580.641 86.0669 580.426 85.0374 580.032 84.1064C579.638 83.1576 579.03 82.4056 578.206 81.8506C577.382 81.2777 576.317 80.9912 575.01 80.9912C573.954 80.9912 573.032 81.224 572.244 81.6895C571.474 82.137 570.83 82.7816 570.311 83.623C569.809 84.4466 569.433 85.4313 569.183 86.5771C568.932 87.723 568.807 88.9941 568.807 90.3906V91.4648C568.807 92.6823 568.968 93.8102 569.29 94.8486C569.63 95.887 570.123 96.7912 570.767 97.561C571.43 98.313 572.217 98.9038 573.13 99.3335C574.061 99.7453 575.118 99.9512 576.299 99.9512C577.785 99.9512 579.128 99.6647 580.328 99.0918C581.545 98.501 582.601 97.6326 583.497 96.4868L587.068 100.193C586.46 101.088 585.636 101.947 584.598 102.771C583.577 103.595 582.342 104.266 580.892 104.785C579.441 105.286 577.767 105.537 575.87 105.537ZM610.889 75.9424H617.334V104.114C617.334 106.746 616.762 108.975 615.616 110.801C614.488 112.645 612.903 114.041 610.862 114.99C608.821 115.957 606.449 116.44 603.746 116.44C602.582 116.44 601.32 116.279 599.959 115.957C598.616 115.635 597.318 115.125 596.065 114.426C594.83 113.746 593.8 112.86 592.977 111.768L596.172 107.578C597.139 108.706 598.231 109.556 599.449 110.129C600.666 110.72 601.982 111.016 603.396 111.016C604.829 111.016 606.046 110.747 607.049 110.21C608.069 109.691 608.848 108.921 609.385 107.9C609.94 106.898 610.218 105.662 610.218 104.194V82.5757L610.889 75.9424ZM591.258 90.8203V90.2563C591.258 88.0363 591.526 86.0221 592.063 84.2139C592.601 82.3877 593.37 80.8211 594.373 79.5142C595.394 78.2072 596.62 77.1956 598.052 76.4795C599.502 75.7633 601.132 75.4053 602.94 75.4053C604.856 75.4053 606.467 75.7544 607.774 76.4526C609.099 77.1509 610.191 78.1445 611.05 79.4336C611.928 80.7227 612.608 82.2534 613.091 84.0259C613.593 85.7804 613.978 87.714 614.246 89.8267V91.3574C613.995 93.4163 613.593 95.3052 613.038 97.0239C612.5 98.7427 611.784 100.247 610.889 101.536C609.994 102.807 608.884 103.792 607.559 104.49C606.234 105.188 604.677 105.537 602.886 105.537C601.096 105.537 599.485 105.17 598.052 104.436C596.62 103.702 595.394 102.673 594.373 101.348C593.37 100.023 592.601 98.4652 592.063 96.6748C591.526 94.8844 591.258 92.9329 591.258 90.8203ZM598.348 90.2563V90.8203C598.348 92.0736 598.473 93.2463 598.724 94.3384C598.974 95.4305 599.359 96.3973 599.878 97.2388C600.398 98.0623 601.051 98.7069 601.839 99.1724C602.627 99.6379 603.567 99.8706 604.659 99.8706C606.127 99.8706 607.326 99.5662 608.257 98.9575C609.206 98.3309 609.922 97.4805 610.406 96.4062C610.907 95.3141 611.229 94.0877 611.373 92.7271V88.5107C611.283 87.4365 611.086 86.4429 610.782 85.5298C610.495 84.6167 610.092 83.8289 609.573 83.1665C609.054 82.5041 608.392 81.9849 607.586 81.6089C606.78 81.2329 605.822 81.0449 604.712 81.0449C603.638 81.0449 602.698 81.2866 601.893 81.77C601.087 82.2355 600.424 82.889 599.905 83.7305C599.386 84.5719 598.992 85.5477 598.724 86.6577C598.473 87.7677 598.348 88.9673 598.348 90.2563ZM631.246 75.9424V105H624.129V75.9424H631.246ZM623.646 68.3423C623.646 67.286 624.004 66.4087 624.72 65.7104C625.454 65.0122 626.438 64.6631 627.674 64.6631C628.909 64.6631 629.885 65.0122 630.601 65.7104C631.335 66.4087 631.702 67.286 631.702 68.3423C631.702 69.3807 631.335 70.249 630.601 70.9473C629.885 71.6455 628.909 71.9946 627.674 71.9946C626.438 71.9946 625.454 71.6455 624.72 70.9473C624.004 70.249 623.646 69.3807 623.646 68.3423ZM653.992 97.0508C653.992 96.4421 653.831 95.896 653.509 95.4126C653.187 94.9292 652.578 94.4906 651.683 94.0967C650.805 93.6849 649.516 93.3 647.815 92.9419C646.312 92.6196 644.924 92.2168 643.653 91.7334C642.382 91.25 641.29 90.6681 640.376 89.9878C639.463 89.2896 638.747 88.4749 638.228 87.5439C637.727 86.5951 637.476 85.5029 637.476 84.2676C637.476 83.068 637.736 81.9401 638.255 80.8838C638.774 79.8096 639.526 78.8696 640.511 78.064C641.495 77.2404 642.695 76.5959 644.109 76.1304C645.524 75.647 647.117 75.4053 648.89 75.4053C651.36 75.4053 653.482 75.8081 655.254 76.6138C657.045 77.4194 658.414 78.5295 659.363 79.9438C660.312 81.3403 660.787 82.9159 660.787 84.6704H653.697C653.697 83.9006 653.518 83.2023 653.16 82.5757C652.819 81.9491 652.291 81.4478 651.575 81.0718C650.859 80.6779 649.955 80.481 648.863 80.481C647.878 80.481 647.046 80.6421 646.365 80.9644C645.703 81.2866 645.201 81.7074 644.861 82.2266C644.521 82.7458 644.351 83.3187 644.351 83.9453C644.351 84.4108 644.441 84.8315 644.62 85.2075C644.817 85.5656 645.13 85.8968 645.56 86.2012C645.989 86.5055 646.571 86.783 647.305 87.0337C648.057 87.2843 648.979 87.526 650.071 87.7588C652.238 88.1885 654.126 88.7614 655.738 89.4775C657.367 90.1758 658.638 91.1068 659.551 92.2705C660.464 93.4342 660.921 94.9202 660.921 96.7285C660.921 98.0176 660.643 99.1992 660.088 100.273C659.533 101.33 658.728 102.252 657.671 103.04C656.615 103.827 655.353 104.445 653.885 104.893C652.417 105.322 650.761 105.537 648.917 105.537C646.249 105.537 643.993 105.063 642.149 104.114C640.305 103.147 638.908 101.93 637.959 100.461C637.011 98.9754 636.536 97.4357 636.536 95.8423H643.331C643.384 96.9702 643.689 97.8743 644.244 98.5547C644.799 99.235 645.497 99.7274 646.338 100.032C647.198 100.318 648.102 100.461 649.051 100.461C650.125 100.461 651.029 100.318 651.763 100.032C652.497 99.7274 653.052 99.3245 653.428 98.8232C653.804 98.304 653.992 97.7132 653.992 97.0508ZM680.069 75.9424V81.0449H663.418V75.9424H680.069ZM667.876 68.7988H674.993V96.6211C674.993 97.4805 675.11 98.1429 675.342 98.6084C675.575 99.0739 675.924 99.3872 676.39 99.5483C676.855 99.7095 677.41 99.79 678.055 99.79C678.52 99.79 678.95 99.7632 679.344 99.7095C679.738 99.6558 680.069 99.6021 680.337 99.5483L680.364 104.866C679.773 105.063 679.102 105.224 678.35 105.349C677.616 105.474 676.784 105.537 675.853 105.537C674.259 105.537 672.863 105.269 671.663 104.731C670.464 104.176 669.533 103.29 668.87 102.073C668.208 100.837 667.876 99.2082 667.876 97.1851V68.7988ZM691.885 81.8774V105H684.795V75.9424H691.509L691.885 81.8774ZM700.721 75.7544L700.613 82.3608C700.219 82.2892 699.772 82.2355 699.271 82.1997C698.787 82.1639 698.331 82.146 697.901 82.146C696.809 82.146 695.851 82.2982 695.027 82.6025C694.204 82.889 693.514 83.3097 692.959 83.8647C692.422 84.4198 692.011 85.1001 691.724 85.9058C691.438 86.6935 691.277 87.5887 691.241 88.5913L689.71 88.4033C689.71 86.5592 689.898 84.8494 690.274 83.2739C690.65 81.6984 691.196 80.3198 691.912 79.1382C692.628 77.9565 693.523 77.0435 694.598 76.3989C695.69 75.7365 696.943 75.4053 698.357 75.4053C698.751 75.4053 699.172 75.4411 699.62 75.5127C700.085 75.5664 700.452 75.647 700.721 75.7544ZM719.708 98.8232V85.4224C719.708 84.4377 719.537 83.5872 719.197 82.8711C718.857 82.1549 718.338 81.5999 717.64 81.2061C716.941 80.8122 716.055 80.6152 714.981 80.6152C714.032 80.6152 713.2 80.7764 712.483 81.0986C711.785 81.4209 711.248 81.8774 710.872 82.4683C710.496 83.0412 710.308 83.7036 710.308 84.4556H703.191C703.191 83.256 703.478 82.1191 704.051 81.0449C704.624 79.9528 705.438 78.986 706.495 78.1445C707.569 77.2852 708.849 76.6138 710.335 76.1304C711.839 75.647 713.522 75.4053 715.384 75.4053C717.586 75.4053 719.546 75.7812 721.265 76.5332C723.002 77.2673 724.362 78.3773 725.347 79.8633C726.35 81.3493 726.851 83.2202 726.851 85.4761V98.1519C726.851 99.6021 726.941 100.846 727.12 101.885C727.317 102.905 727.603 103.792 727.979 104.543V105H720.755C720.415 104.266 720.155 103.335 719.976 102.207C719.797 101.061 719.708 99.9333 719.708 98.8232ZM720.701 87.3022L720.755 91.5186H716.27C715.16 91.5186 714.184 91.6349 713.343 91.8677C712.501 92.0825 711.812 92.4048 711.275 92.8345C710.738 93.2463 710.335 93.7476 710.066 94.3384C709.798 94.9113 709.664 95.5648 709.664 96.2988C709.664 97.015 709.825 97.6595 710.147 98.2324C710.487 98.8053 710.971 99.2619 711.597 99.6021C712.242 99.9243 712.994 100.085 713.853 100.085C715.106 100.085 716.198 99.8348 717.129 99.3335C718.06 98.8143 718.785 98.1877 719.305 97.4536C719.824 96.7196 720.101 96.0213 720.137 95.3589L722.178 98.4204C721.928 99.1545 721.552 99.9333 721.05 100.757C720.549 101.58 719.904 102.35 719.117 103.066C718.329 103.783 717.38 104.373 716.27 104.839C715.16 105.304 713.871 105.537 712.403 105.537C710.523 105.537 708.84 105.161 707.354 104.409C705.868 103.657 704.695 102.628 703.836 101.321C702.977 100.014 702.547 98.5278 702.547 96.8628C702.547 95.3231 702.833 93.9624 703.406 92.7808C703.979 91.5991 704.83 90.6055 705.958 89.7998C707.085 88.9762 708.482 88.3586 710.147 87.9468C711.83 87.5171 713.755 87.3022 715.921 87.3022H720.701ZM746.993 75.9424V81.0449H730.342V75.9424H746.993ZM734.8 68.7988H741.917V96.6211C741.917 97.4805 742.033 98.1429 742.266 98.6084C742.499 99.0739 742.848 99.3872 743.313 99.5483C743.779 99.7095 744.334 99.79 744.979 99.79C745.444 99.79 745.874 99.7632 746.268 99.7095C746.661 99.6558 746.993 99.6021 747.261 99.5483L747.288 104.866C746.697 105.063 746.026 105.224 745.274 105.349C744.54 105.474 743.707 105.537 742.776 105.537C741.183 105.537 739.786 105.269 738.587 104.731C737.387 104.176 736.456 103.29 735.794 102.073C735.132 100.837 734.8 99.2082 734.8 97.1851V68.7988ZM759.239 75.9424V105H752.122V75.9424H759.239ZM751.639 68.3423C751.639 67.286 751.997 66.4087 752.713 65.7104C753.447 65.0122 754.432 64.6631 755.667 64.6631C756.902 64.6631 757.878 65.0122 758.594 65.7104C759.328 66.4087 759.695 67.286 759.695 68.3423C759.695 69.3807 759.328 70.249 758.594 70.9473C757.878 71.6455 756.902 71.9946 755.667 71.9946C754.432 71.9946 753.447 71.6455 752.713 70.9473C751.997 70.249 751.639 69.3807 751.639 68.3423ZM764.744 90.7666V90.2026C764.744 88.0721 765.049 86.1117 765.657 84.3213C766.266 82.513 767.152 80.9465 768.316 79.6216C769.48 78.2967 770.903 77.2673 772.586 76.5332C774.269 75.7812 776.185 75.4053 778.333 75.4053C780.517 75.4053 782.451 75.7812 784.134 76.5332C785.835 77.2673 787.267 78.2967 788.431 79.6216C789.594 80.9465 790.481 82.513 791.089 84.3213C791.698 86.1117 792.002 88.0721 792.002 90.2026V90.7666C792.002 92.8792 791.698 94.8397 791.089 96.6479C790.481 98.4383 789.594 100.005 788.431 101.348C787.267 102.673 785.844 103.702 784.161 104.436C782.478 105.17 780.553 105.537 778.387 105.537C776.238 105.537 774.314 105.17 772.613 104.436C770.912 103.702 769.48 102.673 768.316 101.348C767.152 100.005 766.266 98.4383 765.657 96.6479C765.049 94.8397 764.744 92.8792 764.744 90.7666ZM771.834 90.2026V90.7666C771.834 92.0378 771.959 93.2284 772.21 94.3384C772.461 95.4484 772.846 96.4242 773.365 97.2656C773.884 98.1071 774.555 98.7695 775.379 99.2529C776.22 99.7184 777.223 99.9512 778.387 99.9512C779.533 99.9512 780.517 99.7184 781.341 99.2529C782.164 98.7695 782.836 98.1071 783.355 97.2656C783.892 96.4242 784.286 95.4484 784.537 94.3384C784.787 93.2284 784.913 92.0378 784.913 90.7666V90.2026C784.913 88.9494 784.787 87.7767 784.537 86.6846C784.286 85.5745 783.892 84.5988 783.355 83.7573C782.836 82.8979 782.155 82.2266 781.314 81.7432C780.49 81.2419 779.497 80.9912 778.333 80.9912C777.187 80.9912 776.202 81.2419 775.379 81.7432C774.555 82.2266 773.884 82.8979 773.365 83.7573C772.846 84.5988 772.461 85.5745 772.21 86.6846C771.959 87.7767 771.834 88.9494 771.834 90.2026ZM804.114 82.146V105H797.024V75.9424H803.685L804.114 82.146ZM802.986 89.4238H800.892C800.91 87.3112 801.196 85.3955 801.751 83.6768C802.306 81.958 803.085 80.481 804.087 79.2456C805.108 78.0103 806.316 77.0614 807.713 76.3989C809.109 75.7365 810.667 75.4053 812.386 75.4053C813.782 75.4053 815.044 75.6022 816.172 75.9961C817.3 76.39 818.267 77.0166 819.073 77.876C819.896 78.7354 820.523 79.8633 820.953 81.2598C821.4 82.6383 821.624 84.3392 821.624 86.3623V105H814.48V86.3086C814.48 84.9837 814.284 83.9364 813.89 83.1665C813.514 82.3966 812.959 81.8506 812.225 81.5283C811.508 81.2061 810.622 81.0449 809.566 81.0449C808.474 81.0449 807.516 81.2687 806.692 81.7163C805.887 82.146 805.206 82.7458 804.651 83.5156C804.114 84.2855 803.702 85.1717 803.416 86.1743C803.13 87.1769 802.986 88.2601 802.986 89.4238Z" fill="#FFA229"/>
<path d="M337.595 864.959C198.86 883.03 56.9836 902.665 40.5527 906.054C-25.607 919.477 69.0939 927.557 208.33 931.531C395.987 936.896 578.057 939.85 643.147 936.723C918.914 923.43 962.25 884.334 966.854 868.543C975.779 837.918 931.679 840.676 865.978 837.462C674.94 828.057 471.835 847.409 337.595 864.959Z" fill="#FFE9C8"/>
<path d="M860 283H848V834H860V283Z" fill="#44435E"/>
<path d="M955 359H739L778.709 200H915.291L955 359Z" fill="url(#paint0_linear_21_3463)"/>
<path style="mix-blend-mode:overlay" opacity="0.7" d="M906.309 359H941L898.801 200H863L906.309 359Z" fill="url(#paint1_linear_21_3463)"/>
<path d="M791.559 833H915.441C917.18 833 918.849 833.681 920.079 834.894C921.309 836.107 922 837.752 922 839.468V842.852C922 843.687 921.664 844.488 921.065 845.078C920.466 845.668 919.654 846 918.808 846H788.192C787.346 846 786.534 845.668 785.935 845.078C785.336 844.488 785 843.687 785 842.852V839.468C785 837.752 785.691 836.107 786.921 834.894C788.151 833.681 789.82 833 791.559 833Z" fill="#44435E"/>
<path style="mix-blend-mode:multiply" d="M791.559 833H915.441C917.18 833 918.849 833.681 920.079 834.894C921.309 836.107 922 837.752 922 839.468V842.852C922 843.687 921.664 844.488 921.065 845.078C920.466 845.668 919.654 846 918.808 846H788.192C787.346 846 786.534 845.668 785.935 845.078C785.336 844.488 785 843.687 785 842.852V839.468C785 837.752 785.691 836.107 786.921 834.894C788.151 833.681 789.82 833 791.559 833Z" fill="url(#paint2_linear_21_3463)"/>
<path d="M737 801.325C737 801.325 778.771 723.421 925 743.224C925 743.311 776.199 849.874 737 801.325Z" fill="url(#paint3_linear_21_3463)"/>
<path style="mix-blend-mode:multiply" d="M737 801.325C737 801.325 778.771 723.421 925 743.224C925 743.311 776.199 849.874 737 801.325Z" fill="url(#paint4_linear_21_3463)"/>
<path style="mix-blend-mode:multiply" d="M886 753C803.476 762.678 729.229 804.774 659 847" stroke="url(#paint5_linear_21_3463)" stroke-miterlimit="10"/>
<path d="M670.743 812C670.743 812 737.272 753.499 684.903 615C684.903 615 614.605 784.685 670.743 812Z" fill="url(#paint6_linear_21_3463)"/>
<path style="mix-blend-mode:multiply" d="M670.743 812C670.743 812 737.272 753.499 684.903 615C684.903 615 614.605 784.685 670.743 812Z" fill="url(#paint7_linear_21_3463)"/>
<path style="mix-blend-mode:multiply" d="M684.837 655C690.784 703.66 683.756 752.757 672.445 800.106C669.245 813.484 665.72 826.753 662 840" stroke="url(#paint8_linear_21_3463)" stroke-miterlimit="10"/>
<path d="M732.94 783.892C732.94 783.892 827.397 822.706 879 626C879 626 705.513 682.009 732.94 783.892Z" fill="url(#paint9_linear_21_3463)"/>
<path style="mix-blend-mode:multiply" d="M732.94 783.892C732.94 783.892 827.397 822.706 879 626C879 626 705.513 682.009 732.94 783.892Z" fill="url(#paint10_linear_21_3463)"/>
<path style="mix-blend-mode:multiply" d="M852 661C828.788 702.61 791.558 740.016 751.554 769.165C736.972 779.934 721.381 789.256 705 797" stroke="url(#paint11_linear_21_3463)" stroke-miterlimit="10"/>
<path d="M692.205 781C692.205 781 796.862 747.7 778.934 603C778.934 602.978 654.198 695.597 692.205 781Z" fill="url(#paint12_linear_21_3463)"/>
<path style="mix-blend-mode:multiply" d="M692.205 781C692.205 781 796.862 747.7 778.934 603C778.934 602.978 654.198 695.597 692.205 781Z" fill="url(#paint13_linear_21_3463)"/>
<path style="mix-blend-mode:multiply" d="M764 640C749.916 688.589 725.892 734.813 694.143 776.965C684.727 789.181 674.665 800.877 664 812" stroke="url(#paint14_linear_21_3463)" stroke-miterlimit="10"/>
<path d="M655.124 842.033C653.123 832.375 675.846 808.598 691.872 800.499C748.582 771.849 858 847.209 858 847.209C856.63 853.272 662.517 877.677 655.124 842.033Z" fill="url(#paint15_linear_21_3463)"/>
<path style="mix-blend-mode:multiply" d="M655.124 842.033C653.123 832.375 675.846 808.598 691.872 800.499C748.582 771.849 858 847.209 858 847.209C856.63 853.272 662.517 877.677 655.124 842.033Z" fill="url(#paint16_linear_21_3463)"/>
<path style="mix-blend-mode:multiply" d="M817 833.173C768.767 817.204 719.923 816.202 674.158 834.611C661.543 839.972 649.441 846.461 638 854" stroke="url(#paint17_linear_21_3463)" stroke-miterlimit="10"/>
<path d="M611.156 853.69C611.156 853.69 598.882 753.035 792 745C792 745.044 697.752 902.249 611.156 853.69Z" fill="url(#paint18_linear_21_3463)"/>
<path style="mix-blend-mode:multiply" d="M611.156 853.69C611.156 853.69 598.882 753.035 792 745C792 745.044 697.752 902.249 611.156 853.69Z" fill="url(#paint19_linear_21_3463)"/>
<path style="mix-blend-mode:multiply" d="M753 764C706.777 781.265 664.28 807.146 627.779 840.259C617.583 849.575 607.972 859.508 599 870" stroke="url(#paint20_linear_21_3463)" stroke-miterlimit="10"/>
<path d="M182 848.013C182 848.013 148.573 764.194 21 778.683C20.9127 778.683 146.149 897.297 182 848.013Z" fill="url(#paint21_linear_21_3463)"/>
<path style="mix-blend-mode:multiply" d="M182 848.013C182 848.013 148.573 764.194 21 778.683C20.9127 778.683 146.149 897.297 182 848.013Z" fill="url(#paint22_linear_21_3463)"/>
<path style="mix-blend-mode:multiply" d="M54 790C125.025 803.628 187.736 851.521 247 899" stroke="url(#paint23_linear_21_3463)" stroke-miterlimit="10"/>
<path d="M276.763 838C276.763 838 188.073 802.692 181 627C181.044 627 319.66 783.231 276.763 838Z" fill="url(#paint24_linear_21_3463)"/>
<path style="mix-blend-mode:multiply" d="M276.763 838C276.763 838 188.073 802.692 181 627C181.044 627 319.66 783.231 276.763 838Z" fill="url(#paint25_linear_21_3463)"/>
<path style="mix-blend-mode:multiply" d="M198 671C223.575 766.174 281.648 845.95 339 921" stroke="url(#paint26_linear_21_3463)" stroke-miterlimit="10"/>
<path d="M234.589 832.005C234.589 832.005 124.843 869.391 65 680C65 680 266.419 734.021 234.589 832.005Z" fill="url(#paint27_linear_21_3463)"/>
<path style="mix-blend-mode:multiply" d="M234.589 832.005C234.589 832.005 124.843 869.391 65 680C65 680 266.419 734.021 234.589 832.005Z" fill="url(#paint28_linear_21_3463)"/>
<path style="mix-blend-mode:multiply" d="M97 714C123.849 754.143 166.859 790.105 213.172 818.187C230.304 828.69 248.315 837.662 267 845" stroke="url(#paint29_linear_21_3463)" stroke-miterlimit="10"/>
<path d="M271.408 865C271.408 865 288.189 733.378 143 677C143.044 676.934 173.065 861.59 271.408 865Z" fill="url(#paint30_linear_21_3463)"/>
<path style="mix-blend-mode:multiply" d="M271.408 865C271.408 865 288.189 733.378 143 677C143.044 676.934 173.065 861.59 271.408 865Z" fill="url(#paint31_linear_21_3463)"/>
<path style="mix-blend-mode:multiply" d="M171 712C210.233 752.765 242.928 803.153 267.885 859.826C275.143 876.237 281.224 893.476 287 911" stroke="url(#paint32_linear_21_3463)" stroke-miterlimit="10"/>
<path d="M250.861 892.916C253.04 882.702 229.074 857.475 212.124 848.899C152.34 818.499 37 898.415 37 898.415C38.3726 904.831 243.171 930.647 250.861 892.916Z" fill="url(#paint33_linear_21_3463)"/>
<path style="mix-blend-mode:multiply" d="M250.861 892.916C253.04 882.702 229.074 857.475 212.124 848.899C152.34 818.499 37 898.415 37 898.415C38.3726 904.831 243.171 930.647 250.861 892.916Z" fill="url(#paint34_linear_21_3463)"/>
<path style="mix-blend-mode:multiply" d="M80 883.91C130.656 866.979 181.967 865.903 230.029 885.447C243.284 891.112 255.994 897.992 268 906" stroke="url(#paint35_linear_21_3463)" stroke-miterlimit="10"/>
<path d="M326 895.864C326 895.864 316.471 789.389 116 823.874C116 823.874 247.634 965.184 326 895.864Z" fill="url(#paint36_linear_21_3463)"/>
<path style="mix-blend-mode:multiply" d="M326 895.864C326 895.864 316.471 789.389 116 823.874C116 823.874 247.634 965.184 326 895.864Z" fill="url(#paint37_linear_21_3463)"/>
<path style="mix-blend-mode:multiply" d="M161 835C212.394 842.594 261.866 859.83 306.784 885.79C319.342 893.117 331.437 901.202 343 910" stroke="url(#paint38_linear_21_3463)" stroke-miterlimit="10"/>
<path d="M681.341 864.491L283.108 924.56C271.264 926.349 259.988 917.232 257.981 904.21L159.197 269.497C157.125 256.061 165.392 244.719 177.628 244.13L587.945 224.827C598.632 224.325 608.709 234.031 610.476 246.529L696.871 839.67C698.682 851.775 691.702 862.921 681.341 864.491Z" fill="#44435E"/>
<path d="M688.91 868.37L291.745 928.613C279.924 930.402 268.691 921.328 266.684 908.307L168.14 274.553C166.09 261.161 174.334 249.819 186.549 249.23L595.754 229.6C606.398 229.076 616.453 238.782 618.219 251.259L704.484 843.549C706.207 855.698 699.249 866.8 688.91 868.37Z" fill="#5D5E8A"/>
<path style="mix-blend-mode:multiply" d="M688.91 868.37L291.767 928.614C279.923 930.402 268.668 921.329 266.683 908.329L168.139 274.554C166.089 261.161 174.356 249.819 186.548 249.231L258.94 245.763L506.74 233.875L595.753 229.513C606.397 229.011 616.452 238.696 618.241 251.172L704.483 843.462C706.206 855.698 699.27 866.8 688.91 868.37Z" fill="url(#paint39_linear_21_3463)"/>
<g style="mix-blend-mode:multiply">
<path d="M613.333 282.37L228.164 290.789L234.097 338.273L244.872 424.384L303.195 888.489L679.574 844.299L628.077 407.895L618.567 326.996L613.333 282.37Z" fill="#CFCFCF"/>
</g>
<path d="M594.14 268.107L209.386 295.895L217.303 343.422L231.633 429.49L308.497 891.915L681.735 829.033L613.792 393.741L601.141 312.777L594.14 268.107Z" fill="#EDE9F1"/>
<g style="mix-blend-mode:multiply">
<path d="M595.142 271.379L208.316 284.902L214.86 332.538L226.703 418.846L290.633 883.692L667.818 834.376L595.142 271.379Z" fill="#CFCFCF"/>
</g>
<path d="M664.874 823.079L288.365 879.156L204.107 328.155L590.454 304.795L664.874 823.079Z" fill="white"/>
<path d="M602.1 386.006L217.324 414.535L196.8 280.46L584.019 259.979L602.1 386.006Z" fill="white"/>
<path d="M297.874 492.373L571.128 466.2" stroke="#1C4670" stroke-miterlimit="10"/>
<path d="M308.692 563.801L581.074 534.77" stroke="#1C4670" stroke-miterlimit="10"/>
<path d="M319.468 635.018L591.02 603.152" stroke="#1C4670" stroke-miterlimit="10"/>
<path d="M330.221 705.993L600.923 671.312" stroke="#1C4670" stroke-miterlimit="10"/>
<path d="M339.948 770.174L609.865 732.964" stroke="#1C4670" stroke-miterlimit="10"/>
<g style="mix-blend-mode:multiply">
<path d="M513.525 275.075L508.422 239.785C508.125 237.749 507.56 235.761 506.742 233.874L258.942 245.761C258.66 247.765 258.66 249.799 258.942 251.803L264.373 288.228C264.619 290.312 265.608 292.237 267.158 293.651C268.708 295.065 270.717 295.873 272.814 295.927L507.811 283.298C511.65 283.058 514.158 279.394 513.525 275.075Z" fill="#CFCFCF"/>
</g>
<path d="M422.397 182.163L420.804 178.607C412.909 160.962 397.226 148.071 380.453 146.893C360.496 145.367 344.355 159.566 341.193 180.745L340.495 185.5C337.267 207.028 321.737 222.121 301.801 223.037L277.809 224.128C268.059 224.564 261.472 233.812 263.108 244.783L268.582 281.23C268.828 283.311 269.813 285.233 271.359 286.647C272.905 288.06 274.908 288.871 277.002 288.93L511.998 276.279C515.728 276.083 518.258 272.397 517.626 268.078L512.5 232.787C510.973 222.187 502.27 213.92 493.088 214.334L470.186 215.381C450.904 216.188 431.71 202.84 422.397 182.163ZM384.968 205.893C376.244 206.264 367.868 198.456 366.385 188.444C364.902 178.433 370.747 170.014 379.624 169.686C388.502 169.359 396.681 177.146 398.164 187.136C399.647 197.125 393.693 205.501 384.968 205.893Z" fill="url(#paint40_linear_21_3463)"/>
<path d="M326.826 376.715C326.758 376.315 326.635 375.961 326.457 375.653C326.287 375.334 326.019 375.055 325.652 374.816C325.284 374.566 324.786 374.333 324.16 374.116C323.534 373.899 322.735 373.687 321.762 373.479C320.68 373.239 319.642 372.954 318.649 372.623C317.666 372.291 316.776 371.883 315.978 371.4C315.189 370.905 314.531 370.311 314.003 369.617C313.486 368.921 313.145 368.091 312.983 367.126C312.825 366.191 312.889 365.325 313.176 364.53C313.461 363.723 313.931 363.016 314.587 362.407C315.24 361.788 316.051 361.285 317.017 360.899C317.994 360.513 319.095 360.267 320.32 360.161C321.991 360.016 323.499 360.188 324.845 360.676C326.191 361.165 327.294 361.898 328.154 362.876C329.024 363.853 329.572 365.01 329.798 366.345L325.159 366.746C325.048 366.088 324.811 365.525 324.447 365.056C324.092 364.576 323.611 364.217 323.002 363.978C322.403 363.738 321.683 363.654 320.843 363.726C320.033 363.796 319.38 363.978 318.882 364.271C318.382 364.554 318.032 364.912 317.831 365.347C317.629 365.771 317.57 366.234 317.655 366.737C317.719 367.117 317.871 367.453 318.11 367.745C318.359 368.037 318.698 368.299 319.127 368.533C319.556 368.767 320.071 368.978 320.671 369.166C321.271 369.353 321.959 369.528 322.734 369.691C324.031 369.954 325.186 370.276 326.198 370.658C327.221 371.038 328.097 371.489 328.827 372.009C329.557 372.53 330.145 373.141 330.589 373.842C331.034 374.544 331.335 375.357 331.491 376.281C331.655 377.257 331.611 378.147 331.357 378.95C331.103 379.754 330.658 380.454 330.021 381.051C329.385 381.648 328.587 382.128 327.627 382.492C326.667 382.857 325.565 383.093 324.319 383.2C323.198 383.297 322.069 383.249 320.931 383.055C319.791 382.852 318.724 382.49 317.731 381.972C316.748 381.452 315.914 380.753 315.229 379.874C314.544 378.996 314.095 377.925 313.881 376.661L318.567 376.257C318.685 376.955 318.894 377.536 319.193 378C319.492 378.464 319.864 378.828 320.309 379.092C320.764 379.355 321.278 379.529 321.85 379.615C322.433 379.7 323.057 379.714 323.721 379.657C324.531 379.587 325.176 379.416 325.657 379.146C326.148 378.874 326.484 378.527 326.665 378.105C326.857 377.682 326.911 377.219 326.826 376.715ZM337.593 368.079L340.947 387.954L336.464 388.341L332.568 365.261L336.725 364.902L337.593 368.079ZM349.091 372.103L349.145 372.427C349.35 373.639 349.394 374.776 349.279 375.838C349.174 376.9 348.911 377.84 348.491 378.658C348.07 379.465 347.485 380.12 346.738 380.622C346 381.113 345.101 381.405 344.043 381.496C343.015 381.585 342.088 381.457 341.261 381.111C340.434 380.766 339.699 380.246 339.055 379.551C338.42 378.845 337.864 378.013 337.386 377.054C336.908 376.094 336.491 375.057 336.134 373.942L335.991 373.094C335.953 371.868 336.004 370.738 336.145 369.704C336.285 368.661 336.547 367.747 336.931 366.964C337.323 366.169 337.858 365.534 338.536 365.058C339.224 364.582 340.077 364.3 341.094 364.212C342.163 364.12 343.136 364.239 344.013 364.57C344.9 364.899 345.682 365.415 346.359 366.118C347.046 366.819 347.617 367.676 348.072 368.69C348.538 369.702 348.877 370.84 349.091 372.103ZM344.646 372.815L344.592 372.492C344.472 371.783 344.3 371.136 344.075 370.551C343.858 369.955 343.582 369.442 343.247 369.013C342.921 368.582 342.53 368.262 342.073 368.051C341.625 367.829 341.111 367.743 340.53 367.794C339.917 367.847 339.41 367.989 339.007 368.222C338.614 368.454 338.314 368.767 338.107 369.16C337.899 369.553 337.771 370.012 337.723 370.537C337.675 371.062 337.69 371.65 337.768 372.3L338.13 374.441C338.31 375.197 338.57 375.867 338.911 376.453C339.251 377.028 339.699 377.469 340.256 377.775C340.813 378.081 341.496 378.199 342.306 378.129C342.897 378.078 343.374 377.907 343.735 377.615C344.095 377.313 344.36 376.92 344.531 376.436C344.713 375.952 344.804 375.402 344.806 374.787C344.817 374.171 344.764 373.514 344.646 372.815ZM355.234 363.303L358.048 379.974L353.549 380.362L350.735 363.692L355.234 363.303ZM349.721 359.371C349.612 358.724 349.75 358.17 350.136 357.71C350.522 357.249 351.098 356.986 351.866 356.919C352.624 356.854 353.266 357.012 353.794 357.394C354.332 357.774 354.656 358.288 354.765 358.935C354.874 359.583 354.731 360.137 354.335 360.598C353.95 361.059 353.378 361.322 352.62 361.387C351.852 361.454 351.205 361.296 350.677 360.914C350.149 360.533 349.831 360.018 349.721 359.371ZM368.178 375.894C368.728 375.846 369.198 375.701 369.589 375.459C369.978 375.207 370.26 374.88 370.435 374.48C370.618 374.068 370.67 373.599 370.592 373.075L374.811 372.71C374.998 373.882 374.858 374.952 374.389 375.92C373.919 376.878 373.204 377.664 372.245 378.278C371.283 378.882 370.154 379.24 368.857 379.352C367.549 379.465 366.371 379.348 365.323 379.001C364.285 378.653 363.38 378.127 362.608 377.422C361.835 376.708 361.201 375.856 360.708 374.867C360.213 373.867 359.866 372.782 359.669 371.611L359.593 371.164C359.394 369.983 359.369 368.87 359.519 367.826C359.668 366.771 359.999 365.835 360.515 365.02C361.028 364.194 361.731 363.523 362.623 363.009C363.516 362.494 364.61 362.18 365.908 362.068C367.288 361.949 368.541 362.106 369.667 362.541C370.804 362.974 371.75 363.653 372.507 364.578C373.271 365.491 373.771 366.61 374.005 367.934L369.786 368.298C369.682 367.745 369.478 367.252 369.173 366.82C368.879 366.386 368.497 366.055 368.026 365.824C367.564 365.583 367.027 365.489 366.415 365.542C365.761 365.598 365.25 365.783 364.882 366.096C364.512 366.399 364.252 366.797 364.104 367.289C363.953 367.771 363.882 368.314 363.889 368.917C363.905 369.51 363.967 370.13 364.077 370.777L364.152 371.224C364.261 371.871 364.408 372.489 364.591 373.077C364.775 373.666 365.02 374.181 365.326 374.624C365.643 375.065 366.031 375.402 366.491 375.633C366.952 375.864 367.514 375.951 368.178 375.894ZM386.183 377.855C384.875 377.968 383.668 377.864 382.56 377.543C381.452 377.212 380.471 376.707 379.62 376.031C378.779 375.353 378.084 374.543 377.536 373.6C376.985 372.647 376.617 371.616 376.429 370.507L376.325 369.891C376.112 368.627 376.099 367.456 376.285 366.377C376.471 365.298 376.837 364.344 377.381 363.515C377.936 362.686 378.667 362.024 379.573 361.528C380.477 361.023 381.542 360.717 382.767 360.612C383.96 360.509 385.052 360.612 386.041 360.923C387.031 361.233 387.897 361.721 388.641 362.386C389.396 363.051 390.019 363.872 390.511 364.851C391 365.819 391.349 366.915 391.555 368.137L391.867 369.986L378.479 371.143L377.98 368.185L386.962 367.408L386.905 367.07C386.801 366.453 386.594 365.914 386.284 365.451C385.983 364.976 385.585 364.615 385.09 364.366C384.595 364.117 384 364.022 383.305 364.082C382.714 364.133 382.227 364.306 381.844 364.599C381.462 364.893 381.175 365.282 380.984 365.768C380.802 366.252 380.697 366.814 380.668 367.452C380.647 368.079 380.699 368.762 380.824 369.502L380.928 370.118C381.041 370.786 381.238 371.394 381.52 371.943C381.813 372.491 382.17 372.955 382.593 373.335C383.025 373.715 383.515 373.996 384.061 374.178C384.618 374.359 385.224 374.421 385.878 374.365C386.687 374.295 387.414 374.076 388.057 373.707C388.709 373.328 389.235 372.798 389.636 372.117L392.211 374.271C391.943 374.804 391.542 375.329 391.008 375.844C390.484 376.358 389.822 376.801 389.021 377.172C388.218 377.534 387.272 377.761 386.183 377.855ZM411.026 365.408L405.204 365.911L404.637 362.739L409.525 362.317C410.387 362.243 411.074 362.074 411.588 361.811C412.1 361.537 412.455 361.178 412.654 360.734C412.861 360.278 412.913 359.742 412.809 359.126C412.691 358.427 412.461 357.874 412.118 357.466C411.786 357.057 411.323 356.779 410.73 356.632C410.147 356.485 409.419 356.449 408.547 356.524L405.31 356.804L408.485 375.616L403.815 376.019L400.028 353.587L407.936 352.903C409.254 352.789 410.453 352.811 411.532 352.968C412.622 353.124 413.573 353.422 414.384 353.863C415.196 354.303 415.858 354.892 416.372 355.629C416.885 356.356 417.229 357.243 417.406 358.291C417.562 359.215 417.493 360.086 417.2 360.904C416.916 361.72 416.365 362.414 415.545 362.985C414.736 363.555 413.614 363.928 412.18 364.104L411.026 365.408ZM412.486 375.27L405.589 375.866L406.802 372.103L411.877 371.665C412.697 371.594 413.345 371.408 413.82 371.106C414.294 370.794 414.617 370.402 414.79 369.928C414.963 369.455 415 368.925 414.901 368.34C414.79 367.682 414.58 367.122 414.27 366.659C413.97 366.195 413.555 365.856 413.024 365.641C412.491 365.416 411.825 365.338 411.026 365.408L406.527 365.796L406.023 362.62L411.627 362.135L412.912 363.291C414.288 363.151 415.44 363.296 416.365 363.727C417.299 364.146 418.025 364.735 418.543 365.493C419.071 366.25 419.411 367.08 419.563 367.984C419.806 369.422 419.694 370.661 419.227 371.702C418.759 372.732 417.954 373.547 416.813 374.146C415.682 374.744 414.239 375.119 412.486 375.27ZM421.802 366.18L421.747 365.857C421.541 364.635 421.527 363.495 421.707 362.437C421.885 361.369 422.247 360.426 422.793 359.608C423.339 358.789 424.07 358.127 424.985 357.621C425.898 357.104 426.992 356.791 428.269 356.68C429.545 356.57 430.718 356.687 431.787 357.033C432.855 357.368 433.79 357.886 434.593 358.588C435.406 359.289 436.077 360.143 436.605 361.15C437.131 362.146 437.497 363.256 437.703 364.478L437.758 364.802C437.963 366.014 437.976 367.154 437.798 368.222C437.619 369.279 437.252 370.223 436.697 371.052C436.15 371.871 435.42 372.533 434.505 373.039C433.59 373.546 432.494 373.854 431.218 373.964C429.941 374.075 428.77 373.962 427.702 373.627C426.645 373.291 425.71 372.773 424.897 372.072C424.092 371.36 423.427 370.505 422.901 369.509C422.373 368.502 422.006 367.392 421.802 366.18ZM426.23 365.469L426.285 365.793C426.403 366.491 426.575 367.138 426.802 367.734C427.029 368.329 427.316 368.846 427.664 369.285C428.021 369.713 428.444 370.036 428.933 370.254C429.423 370.472 429.989 370.553 430.633 370.498C431.255 370.444 431.768 370.269 432.171 369.974C432.574 369.679 432.872 369.293 433.066 368.818C433.258 368.333 433.365 367.781 433.387 367.165C433.42 366.547 433.377 365.889 433.259 365.19L433.204 364.867C433.09 364.189 432.915 363.558 432.68 362.974C432.453 362.379 432.16 361.862 431.802 361.424C431.452 360.975 431.032 360.636 430.541 360.408C430.049 360.179 429.487 360.092 428.854 360.147C428.221 360.202 427.704 360.382 427.303 360.687C426.912 360.992 426.616 361.393 426.416 361.889C426.224 362.375 426.117 362.926 426.095 363.543C426.071 364.149 426.116 364.792 426.23 365.469ZM450.348 368.185L449.095 360.758C449.005 360.224 448.839 359.775 448.599 359.41C448.356 359.035 448.03 358.756 447.62 358.572C447.221 358.388 446.73 358.321 446.149 358.371C445.651 358.414 445.235 358.539 444.901 358.745C444.566 358.941 444.326 359.206 444.183 359.542C444.038 359.867 444 360.24 444.072 360.661L439.588 361.048C439.469 360.34 439.521 359.653 439.746 358.987C439.97 358.321 440.358 357.72 440.91 357.183C441.46 356.635 442.147 356.185 442.972 355.832C443.807 355.478 444.77 355.255 445.86 355.16C447.167 355.047 448.366 355.163 449.456 355.506C450.546 355.85 451.454 356.428 452.181 357.24C452.918 358.052 453.396 359.105 453.614 360.399L454.818 367.533C454.973 368.447 455.156 369.192 455.369 369.767C455.581 370.333 455.832 370.822 456.122 371.234L456.167 371.496L451.637 371.888C451.342 371.454 451.081 370.904 450.852 370.236C450.632 369.557 450.464 368.873 450.348 368.185ZM449.861 361.74L450.316 364.248L447.809 364.465C447.218 364.516 446.715 364.627 446.302 364.798C445.889 364.969 445.563 365.19 445.324 365.461C445.084 365.722 444.923 366.017 444.842 366.347C444.771 366.676 444.768 367.031 444.832 367.411C444.896 367.791 445.042 368.127 445.271 368.42C445.497 368.703 445.792 368.917 446.153 369.063C446.513 369.199 446.916 369.247 447.362 369.209C448.037 369.15 448.601 368.966 449.054 368.656C449.507 368.346 449.835 367.984 450.039 367.57C450.254 367.156 450.336 366.774 450.288 366.424L451.788 368.201C451.693 368.636 451.539 369.093 451.324 369.57C451.12 370.046 450.834 370.503 450.466 370.941C450.096 371.369 449.627 371.738 449.058 372.048C448.487 372.347 447.781 372.533 446.941 372.606C445.872 372.698 444.866 372.572 443.923 372.226C442.989 371.869 442.204 371.337 441.569 370.631C440.943 369.914 440.548 369.073 440.385 368.108C440.238 367.235 440.273 366.445 440.49 365.738C440.708 365.031 441.1 364.419 441.665 363.901C442.239 363.373 442.994 362.948 443.93 362.627C444.864 362.296 445.974 362.075 447.261 361.964L449.861 361.74ZM461.236 357.834L463.436 370.868L458.953 371.255L456.139 354.585L460.358 354.22L461.236 357.834ZM465.679 353.651L466.296 357.772C466.073 357.76 465.804 357.757 465.489 357.763C465.183 357.758 464.905 357.767 464.656 357.788C464.023 357.843 463.487 357.973 463.047 358.177C462.617 358.371 462.272 358.635 462.012 358.97C461.764 359.304 461.598 359.699 461.517 360.154C461.447 360.608 461.449 361.119 461.523 361.686L460.573 361.486C460.391 360.408 460.333 359.407 460.398 358.484C460.462 357.551 460.644 356.728 460.945 356.014C461.256 355.3 461.687 354.731 462.236 354.308C462.786 353.886 463.456 353.64 464.244 353.572C464.493 353.551 464.751 353.549 465.018 353.568C465.282 353.576 465.503 353.604 465.679 353.651ZM479.651 365.778L476.27 345.749L480.784 345.359L484.779 369.024L480.716 369.375L479.651 365.778ZM468.243 362.199L468.189 361.876C467.974 360.602 467.924 359.434 468.039 358.371C468.153 357.299 468.427 356.363 468.861 355.565C469.295 354.767 469.887 354.127 470.637 353.645C471.388 353.163 472.287 352.877 473.335 352.787C474.321 352.701 475.217 352.832 476.024 353.18C476.84 353.526 477.572 354.057 478.219 354.772C478.875 355.476 479.451 356.328 479.946 357.327C480.439 358.316 480.861 359.41 481.21 360.61L481.33 361.319C481.381 362.492 481.329 363.59 481.176 364.615C481.022 365.639 480.744 366.549 480.341 367.344C479.947 368.128 479.411 368.758 478.733 369.234C478.056 369.709 477.218 369.99 476.222 370.076C475.174 370.167 474.204 370.037 473.313 369.686C472.433 369.335 471.648 368.804 470.96 368.092C470.281 367.38 469.71 366.522 469.246 365.52C468.782 364.518 468.448 363.411 468.243 362.199ZM472.672 361.488L472.727 361.812C472.843 362.5 473.003 363.137 473.207 363.724C473.422 364.31 473.693 364.823 474.02 365.264C474.356 365.694 474.748 366.019 475.196 366.241C475.653 366.452 476.177 366.531 476.768 366.48C477.536 366.414 478.141 366.19 478.582 365.808C479.021 365.416 479.319 364.905 479.476 364.277C479.644 363.648 479.681 362.936 479.589 362.141L479.249 360.123C479.108 359.478 478.917 358.906 478.675 358.406C478.441 357.895 478.148 357.467 477.795 357.122C477.452 356.777 477.051 356.519 476.59 356.351C476.141 356.181 475.63 356.121 475.06 356.17C474.478 356.221 474.003 356.397 473.633 356.7C473.261 356.993 472.984 357.376 472.8 357.851C472.628 358.324 472.531 358.874 472.51 359.501C472.499 360.117 472.552 360.78 472.672 361.488ZM319.364 398.572L326.728 397.936C328.295 397.801 329.697 397.935 330.934 398.339C332.171 398.742 333.184 399.41 333.973 400.343C334.77 401.264 335.29 402.438 335.531 403.866C335.709 404.924 335.643 405.904 335.332 406.806C335.031 407.708 334.536 408.485 333.846 409.139C333.155 409.782 332.308 410.256 331.307 410.562L330.679 410.866L322.818 411.545L322.513 409.93L329.098 409.361C330.281 409.259 331.229 408.948 331.942 408.428C332.654 407.908 333.145 407.261 333.415 406.487C333.693 405.703 333.76 404.884 333.616 404.031C333.444 403.015 333.073 402.156 332.502 401.455C331.94 400.742 331.194 400.223 330.265 399.897C329.336 399.571 328.249 399.462 327.003 399.569L321.555 400.04L325.066 420.84L323.151 421.005L319.364 398.572ZM337.146 419.796L329.584 410.273L331.636 410.08L339.151 419.419L339.185 419.62L337.146 419.796ZM349.589 419.033C348.489 419.128 347.443 419.016 346.452 418.695C345.471 418.373 344.577 417.877 343.769 417.207C342.971 416.536 342.301 415.719 341.759 414.755C341.226 413.779 340.859 412.696 340.658 411.505L340.546 410.842C340.329 409.558 340.326 408.381 340.534 407.31C340.743 406.24 341.123 405.306 341.672 404.508C342.222 403.71 342.895 403.079 343.69 402.614C344.494 402.138 345.374 401.859 346.329 401.776C347.398 401.684 348.379 401.792 349.274 402.1C350.166 402.398 350.951 402.867 351.627 403.507C352.313 404.136 352.879 404.905 353.328 405.814C353.774 406.714 354.092 407.723 354.281 408.843L354.471 409.967L341.722 411.069L341.456 409.497L352.353 408.556L352.317 408.34C352.138 407.407 351.799 406.551 351.299 405.771C350.807 404.979 350.165 404.358 349.373 403.905C348.581 403.452 347.655 403.272 346.596 403.363C345.808 403.431 345.109 403.658 344.5 404.045C343.902 404.43 343.416 404.951 343.043 405.609C342.678 406.255 342.437 407.01 342.32 407.875C342.211 408.729 342.243 409.664 342.414 410.681L342.526 411.343C342.682 412.268 342.963 413.119 343.368 413.897C343.781 414.663 344.294 415.328 344.904 415.89C345.526 416.451 346.218 416.871 346.981 417.148C347.744 417.426 348.551 417.529 349.402 417.455C350.398 417.369 351.25 417.113 351.957 416.687C352.662 416.251 353.255 415.611 353.733 414.767L355.052 415.56C354.779 416.126 354.405 416.658 353.932 417.158C353.468 417.656 352.88 418.072 352.168 418.404C351.455 418.737 350.596 418.946 349.589 419.033ZM367.801 400.234L369.529 400.084L372.293 416.462C372.538 417.91 372.467 419.177 372.082 420.263C371.707 421.348 371.058 422.212 370.134 422.854C369.221 423.496 368.08 423.876 366.71 423.994C366.015 424.055 365.28 424.009 364.507 423.857C363.746 423.714 363.002 423.455 362.275 423.08C361.561 422.715 360.922 422.238 360.36 421.651L361.213 420.436C362.037 421.199 362.87 421.737 363.712 422.049C364.557 422.372 365.43 422.495 366.333 422.417C367.402 422.325 368.269 422.036 368.935 421.551C369.611 421.066 370.075 420.411 370.325 419.587C370.586 418.762 370.623 417.794 370.436 416.685L368.28 403.913L367.801 400.234ZM357.405 409.761L357.351 409.437C357.132 408.143 357.081 406.965 357.196 405.902C357.32 404.828 357.6 403.897 358.036 403.11C358.47 402.311 359.053 401.683 359.787 401.223C360.528 400.753 361.408 400.473 362.425 400.386C363.4 400.301 364.294 400.386 365.105 400.639C365.917 400.892 366.648 401.292 367.298 401.84C367.949 402.389 368.509 403.059 368.98 403.852C369.461 404.644 369.865 405.537 370.19 406.53L370.885 410.644C370.92 411.6 370.838 412.487 370.639 413.307C370.439 414.116 370.113 414.837 369.662 415.47C369.209 416.093 368.62 416.597 367.896 416.983C367.18 417.357 366.318 417.588 365.312 417.675C364.305 417.762 363.367 417.635 362.499 417.293C361.63 416.951 360.853 416.429 360.166 415.728C359.477 415.016 358.895 414.155 358.419 413.143C357.953 412.131 357.615 411.003 357.405 409.761ZM359.219 409.276L359.273 409.599C359.438 410.575 359.689 411.47 360.027 412.285C360.365 413.1 360.788 413.798 361.297 414.38C361.805 414.961 362.4 415.399 363.082 415.695C363.764 415.99 364.525 416.102 365.365 416.029C366.434 415.937 367.298 415.659 367.957 415.195C368.614 414.722 369.099 414.133 369.412 413.428C369.723 412.714 369.91 411.947 369.972 411.129L369.163 406.337C368.957 405.803 368.687 405.264 368.353 404.719C368.029 404.174 367.62 403.683 367.125 403.247C366.639 402.799 366.055 402.458 365.373 402.226C364.7 401.981 363.917 401.898 363.025 401.975C362.174 402.049 361.461 402.287 360.887 402.691C360.323 403.094 359.892 403.627 359.593 404.288C359.292 404.939 359.114 405.689 359.057 406.538C359 407.387 359.054 408.3 359.219 409.276ZM376.472 399.485L379.285 416.155L377.433 416.315L374.619 399.645L376.472 399.485ZM373.478 394.85C373.419 394.501 373.479 394.199 373.657 393.944C373.844 393.678 374.134 393.528 374.529 393.494C374.923 393.459 375.255 393.556 375.525 393.783C375.804 393.998 375.972 394.281 376.031 394.63C376.089 394.969 376.019 395.272 375.821 395.539C375.633 395.795 375.342 395.94 374.947 395.974C374.553 396.008 374.222 395.917 373.953 395.7C373.694 395.473 373.536 395.189 373.478 394.85ZM393.746 410.591C393.669 410.139 393.48 409.702 393.177 409.28C392.874 408.859 392.364 408.491 391.648 408.178C390.942 407.863 389.94 407.632 388.641 407.484C387.672 407.359 386.798 407.2 386.017 407.007C385.248 406.813 384.583 406.558 384.025 406.241C383.466 405.925 383.014 405.526 382.67 405.045C382.325 404.565 382.095 403.98 381.979 403.292C381.875 402.676 381.912 402.084 382.09 401.516C382.276 400.937 382.589 400.42 383.028 399.965C383.476 399.499 384.043 399.117 384.73 398.818C385.427 398.518 386.232 398.329 387.145 398.25C388.443 398.138 389.59 398.263 390.588 398.624C391.595 398.975 392.406 399.504 393.02 400.212C393.645 400.919 394.037 401.745 394.197 402.69L392.344 402.85C392.247 402.274 391.984 401.745 391.555 401.261C391.136 400.776 390.572 400.397 389.863 400.125C389.164 399.852 388.347 399.756 387.413 399.837C386.448 399.92 385.689 400.132 385.135 400.471C384.582 400.811 384.202 401.214 383.997 401.679C383.802 402.144 383.744 402.613 383.824 403.086C383.886 403.455 384 403.789 384.166 404.088C384.341 404.375 384.606 404.633 384.961 404.863C385.326 405.092 385.823 405.294 386.453 405.469C387.082 405.644 387.888 405.798 388.869 405.932C390.278 406.113 391.45 406.381 392.384 406.738C393.327 407.084 394.059 407.553 394.58 408.143C395.099 408.724 395.433 409.455 395.582 410.339C395.699 411.027 395.66 411.671 395.466 412.272C395.271 412.862 394.933 413.386 394.453 413.844C393.982 414.302 393.382 414.677 392.652 414.969C391.933 415.26 391.101 415.447 390.157 415.528C388.735 415.651 387.492 415.524 386.428 415.147C385.373 414.759 384.527 414.207 383.89 413.491C383.262 412.763 382.875 411.968 382.729 411.105L384.582 410.945C384.789 411.803 385.18 412.462 385.753 412.923C386.324 413.374 386.979 413.672 387.72 413.816C388.47 413.96 389.193 414.002 389.889 413.941C390.843 413.859 391.619 413.651 392.216 413.318C392.812 412.985 393.239 412.579 393.494 412.098C393.75 411.617 393.834 411.115 393.746 410.591ZM404.088 397.099L404.342 398.608L395.905 399.337L395.65 397.828L404.088 397.099ZM398.025 393.277L399.878 393.117L402.73 410.018C402.86 410.789 403.062 411.36 403.336 411.732C403.609 412.105 403.923 412.343 404.278 412.448C404.632 412.553 405.002 412.589 405.386 412.556C405.666 412.531 405.933 412.493 406.187 412.439C406.44 412.376 406.666 412.315 406.867 412.256L407.208 413.805C406.991 413.897 406.705 413.979 406.349 414.051C405.994 414.134 405.635 414.191 405.272 414.222C404.556 414.284 403.901 414.211 403.308 414.001C402.713 413.782 402.206 413.367 401.787 412.757C401.366 412.137 401.063 411.272 400.875 410.163L398.025 393.277ZM410.313 399.359L412.661 413.271L410.809 413.431L407.995 396.761L409.801 396.605L410.313 399.359ZM415.789 395.963L416.028 397.661C415.815 397.648 415.609 397.64 415.408 397.637C415.207 397.633 414.993 397.641 414.764 397.661C413.955 397.731 413.269 397.941 412.707 398.292C412.154 398.632 411.714 399.081 411.387 399.641C411.059 400.191 410.844 400.824 410.744 401.541C410.643 402.248 410.643 402.999 410.745 403.792L410.105 404.113C409.921 403.024 409.864 402.003 409.935 401.048C410.005 400.094 410.215 399.247 410.564 398.509C410.922 397.759 411.426 397.158 412.076 396.705C412.735 396.242 413.552 395.968 414.528 395.884C414.766 395.863 415.003 395.864 415.239 395.885C415.482 395.895 415.666 395.921 415.789 395.963ZM430.666 408.683L429.215 400.086C429.081 399.295 428.8 398.627 428.371 398.08C427.941 397.533 427.379 397.134 426.684 396.881C425.988 396.629 425.168 396.543 424.224 396.625C423.352 396.7 422.6 396.922 421.967 397.289C421.343 397.645 420.877 398.097 420.569 398.645C420.27 399.181 420.172 399.757 420.276 400.374L418.406 400.52C418.3 399.893 418.353 399.274 418.566 398.661C418.778 398.049 419.131 397.487 419.624 396.976C420.117 396.464 420.735 396.041 421.479 395.705C422.231 395.359 423.084 395.145 424.039 395.062C425.243 394.958 426.335 395.067 427.316 395.389C428.307 395.709 429.13 396.248 429.784 397.004C430.438 397.761 430.868 398.745 431.072 399.957L432.432 408.015C432.53 408.59 432.672 409.182 432.859 409.791C433.056 410.399 433.272 410.897 433.505 411.283L433.536 411.468L431.559 411.639C431.373 411.28 431.196 410.826 431.03 410.278C430.872 409.718 430.751 409.187 430.666 408.683ZM429.968 401.928L430.238 403.343L426.58 403.659C425.625 403.741 424.784 403.903 424.056 404.143C423.336 404.372 422.745 404.673 422.281 405.046C421.816 405.41 421.482 405.829 421.278 406.305C421.084 406.781 421.036 407.306 421.133 407.881C421.234 408.477 421.476 409.008 421.86 409.475C422.255 409.941 422.757 410.299 423.368 410.549C423.987 410.787 424.686 410.872 425.464 410.805C426.502 410.716 427.383 410.447 428.108 409.998C428.843 409.549 429.418 408.994 429.833 408.333C430.248 407.672 430.482 406.969 430.535 406.225L431.524 407.218C431.476 407.743 431.316 408.294 431.045 408.869C430.782 409.434 430.405 409.977 429.914 410.499C429.421 411.01 428.811 411.449 428.083 411.814C427.363 412.168 426.516 412.387 425.54 412.471C424.44 412.566 423.446 412.444 422.556 412.104C421.678 411.763 420.95 411.258 420.374 410.589C419.806 409.908 419.446 409.116 419.294 408.212C419.155 407.39 419.207 406.641 419.451 405.963C419.693 405.275 420.108 404.677 420.696 404.167C421.292 403.647 422.043 403.228 422.947 402.91C423.86 402.581 424.909 402.365 426.092 402.263L429.968 401.928ZM441.573 393.86L441.828 395.37L433.39 396.099L433.136 394.589L441.573 393.86ZM435.51 390.038L437.363 389.878L440.216 406.78C440.346 407.55 440.547 408.121 440.821 408.494C441.094 408.866 441.408 409.105 441.763 409.209C442.118 409.314 442.487 409.35 442.871 409.317C443.151 409.293 443.418 409.254 443.673 409.201C443.925 409.137 444.152 409.076 444.352 409.017L444.693 410.566C444.477 410.658 444.19 410.74 443.834 410.813C443.48 410.895 443.121 410.952 442.757 410.984C442.041 411.046 441.387 410.972 440.793 410.763C440.198 410.543 439.691 410.128 439.272 409.518C438.852 408.898 438.548 408.033 438.361 406.924L435.51 390.038ZM447.551 393.343L450.364 410.014L448.512 410.174L445.698 393.503L447.551 393.343ZM444.557 388.709C444.498 388.36 444.558 388.058 444.736 387.803C444.923 387.537 445.213 387.386 445.608 387.352C446.002 387.318 446.334 387.415 446.604 387.641C446.883 387.857 447.051 388.139 447.11 388.489C447.167 388.828 447.098 389.131 446.9 389.398C446.712 389.654 446.421 389.799 446.026 389.833C445.632 389.867 445.301 389.776 445.032 389.559C444.773 389.332 444.614 389.048 444.557 388.709ZM453.065 401.59L452.979 401.081C452.774 399.869 452.762 398.734 452.941 397.677C453.121 396.619 453.474 395.687 454.001 394.881C454.539 394.074 455.235 393.425 456.089 392.934C456.942 392.433 457.934 392.134 459.065 392.036C460.206 391.937 461.275 392.059 462.269 392.4C463.262 392.731 464.154 393.243 464.945 393.935C465.736 394.628 466.394 395.472 466.92 396.469C467.447 397.465 467.812 398.57 468.017 399.782L468.102 400.29C468.307 401.502 468.32 402.637 468.14 403.695C467.959 404.742 467.599 405.669 467.062 406.477C466.535 407.283 465.845 407.936 464.992 408.437C464.138 408.928 463.145 409.222 462.014 409.32C460.872 409.419 459.805 409.302 458.812 408.971C457.817 408.63 456.925 408.113 456.134 407.421C455.343 406.728 454.685 405.889 454.161 404.903C453.635 403.906 453.269 402.802 453.065 401.59ZM454.831 400.921L454.917 401.429C455.071 402.344 455.343 403.201 455.73 404.001C456.116 404.791 456.602 405.484 457.187 406.079C457.77 406.665 458.445 407.106 459.211 407.405C459.977 407.704 460.822 407.813 461.746 407.733C462.659 407.654 463.433 407.405 464.068 406.985C464.713 406.565 465.221 406.021 465.593 405.353C465.963 404.675 466.199 403.92 466.3 403.088C466.411 402.245 466.389 401.366 466.234 400.452L466.149 399.943C465.996 399.039 465.727 398.192 465.341 397.403C464.965 396.612 464.48 395.919 463.884 395.324C463.299 394.729 462.623 394.277 461.855 393.968C461.087 393.659 460.246 393.544 459.333 393.623C458.419 393.702 457.641 393.957 456.998 394.387C456.365 394.817 455.858 395.372 455.478 396.051C455.108 396.729 454.867 397.484 454.755 398.317C454.653 399.149 454.679 400.017 454.831 400.921ZM472.965 394.759L475.178 407.87L473.326 408.03L470.512 391.36L472.287 391.206L472.965 394.759ZM473.177 398.539L472.274 398.148C472.17 397.156 472.216 396.215 472.413 395.322C472.61 394.43 472.943 393.63 473.413 392.922C473.894 392.214 474.497 391.641 475.224 391.203C475.96 390.764 476.811 390.503 477.776 390.419C478.617 390.347 479.389 390.395 480.091 390.563C480.793 390.732 481.419 391.042 481.97 391.495C482.52 391.948 482.979 392.549 483.348 393.299C483.727 394.048 484.01 394.977 484.198 396.086L486.028 406.933L484.16 407.094L482.327 396.232C482.133 395.082 481.82 394.197 481.389 393.577C480.957 392.948 480.421 392.52 479.783 392.294C479.144 392.067 478.42 391.989 477.611 392.059C476.718 392.136 475.968 392.399 475.359 392.848C474.759 393.285 474.283 393.832 473.93 394.488C473.586 395.132 473.354 395.814 473.233 396.533C473.111 397.242 473.092 397.91 473.177 398.539Z" fill="#1C4670"/>
<path d="M783.18 502.792C793.824 491.603 820.085 515.203 792.755 547.527C780.213 562.359 769.656 565.238 755.261 573.876C741.869 581.902 692.466 570.56 692.466 570.56C691.573 566.67 691.573 562.628 692.466 558.738C692.466 558.738 734.475 562.708 745.664 553.569C762.044 540.155 776.745 509.488 783.18 502.792Z" fill="url(#paint41_linear_21_3463)"/>
<path d="M811.207 897.709V914.7H787.106C787.106 914.7 783.638 908.549 795.089 905.714L796.768 897.709H811.207Z" fill="#133A50"/>
<path d="M739.555 897.709V914.7H715.562C716.091 912.679 717.09 910.812 718.477 909.25C719.865 907.689 721.601 906.477 723.546 905.714L725.836 897.709H739.555Z" fill="#133A50"/>
<path d="M805.731 618.267C805.731 618.267 810.289 672.926 810.464 717.531C810.638 762.135 813.278 901.619 813.278 901.619H795.261C795.261 901.619 776.7 781.525 769.96 752.865C763.22 724.205 745.662 618.812 745.662 618.812L805.731 618.267Z" fill="#133A50"/>
<path style="mix-blend-mode:multiply" d="M805.731 618.267C805.731 618.267 810.289 672.926 810.464 717.531C810.638 762.135 813.278 901.619 813.278 901.619H795.261C795.261 901.619 776.7 781.525 769.96 752.865C763.22 724.205 745.662 618.812 745.662 618.812L805.731 618.267Z" fill="url(#paint42_linear_21_3463)"/>
<path d="M776.047 671.725C775.589 696.481 754.235 756.79 753.647 770.226C753.058 783.661 740.56 901.552 740.56 901.552C740.56 901.552 723.699 901.989 723.699 901.552C723.699 901.116 717.81 779.932 715.738 746.975C713.666 714.018 720.406 662.739 720.101 657.417C719.512 646.293 725.619 627.71 725.619 627.71L776.069 622.867C776.069 622.867 776.701 635.671 776.047 671.725Z" fill="#133A50"/>
<path style="mix-blend-mode:multiply" d="M776.047 671.725C775.589 696.481 754.235 756.79 753.647 770.226C753.058 783.661 740.56 901.552 740.56 901.552C740.56 901.552 723.699 901.989 723.699 901.552C723.699 901.116 717.81 779.932 715.738 746.975C713.666 714.018 720.406 662.739 720.101 657.417C719.512 646.293 725.619 627.71 725.619 627.71L776.069 622.867C776.069 622.867 776.701 635.671 776.047 671.725Z" fill="url(#paint43_linear_21_3463)"/>
<path d="M561.88 477.365L813.279 649.567L827.936 628.671L576.559 456.47L561.88 477.365Z" fill="url(#paint44_linear_21_3463)"/>
<path d="M561.881 477.363L540.55 453.872L546.81 444.951L576.561 456.467L561.881 477.363Z" fill="url(#paint45_linear_21_3463)"/>
<path d="M838 635.631L828.02 628.627L813.348 649.534L823.328 656.538L838 635.631Z" fill="url(#paint46_linear_21_3463)"/>
<path d="M841.613 669.45L823.379 656.56L838.036 635.665L856.401 648.555C857.776 649.515 858.947 650.738 859.848 652.152C860.75 653.566 861.363 655.144 861.652 656.796C861.942 658.447 861.903 660.14 861.537 661.776C861.171 663.412 860.486 664.961 859.521 666.331C858.558 667.722 857.328 668.907 855.903 669.818C854.478 670.729 852.886 671.348 851.22 671.638C849.553 671.928 847.846 671.884 846.197 671.509C844.548 671.133 842.99 670.434 841.613 669.45Z" fill="url(#paint47_linear_21_3463)"/>
<path d="M529.402 442.178L540.592 453.804L546.808 444.948L532.085 438.405C531.563 438.124 530.96 438.034 530.379 438.149C529.798 438.265 529.275 438.579 528.901 439.037C528.616 439.54 528.511 440.125 528.602 440.695C528.693 441.266 528.975 441.789 529.402 442.178Z" fill="#1B2D35"/>
<path d="M742.261 421.725C738.488 423.906 736.917 430.319 736.917 430.319C736.917 430.319 735.456 437.516 734.54 442.969C733.624 448.422 728.956 452.719 729.501 454.18C730.046 455.642 733.231 455.642 733.231 457.67C733.231 459.699 733.994 465.522 733.951 469.536C733.907 473.549 737.942 474.16 741.694 474.487C745.445 474.814 750.418 475.73 751.182 477.475C751.945 479.22 753.014 496.931 753.014 496.931L780.496 486.156C778.793 480.801 777.911 475.22 777.879 469.601C778.163 461.902 778.555 452.675 778.555 452.675C778.555 452.675 777.007 435.924 766.69 429.184C756.373 422.445 742.261 421.725 742.261 421.725Z" fill="#FEC4AD"/>
<path d="M749.655 430.447C747.059 430.12 740.93 430.447 736.917 430.317C736 430.242 735.116 429.941 734.344 429.442C733.572 428.942 732.935 428.258 732.492 427.452C732.049 426.646 731.813 425.742 731.805 424.822C731.797 423.902 732.017 422.995 732.446 422.181C734.154 419.601 735.706 416.921 737.091 414.154C737.091 414.154 741.454 417.949 749.829 414.307C758.205 410.664 774.084 410.817 779.449 422.683C779.449 422.683 790.071 427.045 790.551 435.508C791.031 443.97 789.243 447.111 785.186 452.739C781.129 458.366 777.879 469.599 777.879 469.599C774.588 469.782 771.289 469.782 767.998 469.599C763.091 469.25 758.554 461.987 756.569 458.519C756.569 458.519 763.745 453.109 761.978 447.613C760.212 442.117 752.97 444.625 752.076 447.22C751.133 449.445 749.948 451.559 748.542 453.524L745.38 453.786C744.953 449.488 744.808 445.168 744.944 440.851C745.271 435.878 749.655 430.447 749.655 430.447Z" fill="#1B2D35"/>
<path d="M777.704 482.763C777.704 482.763 765.948 484.944 760.255 485.664C754.562 486.383 738.574 496.918 738.574 496.918C738.574 496.918 721.234 505.643 720.602 524.074C719.969 542.504 722.194 628.943 721.561 635.094C721.561 635.094 727.32 648.486 768.238 647.352C782.192 647.032 796.006 644.485 809.156 639.805C809.156 639.805 810.421 587.959 810.552 571.797C811.076 507.519 802.155 497.398 794.085 489.306C787.759 483.155 777.704 482.763 777.704 482.763Z" fill="url(#paint48_linear_21_3463)"/>
<path d="M611.043 511.142C607.401 508.655 606.856 503.399 604.718 500.978C602.58 498.557 602.144 498.404 601.839 499.451C601.74 501.301 601.82 503.157 602.079 504.991L588.425 495.612C586.418 494.216 585.895 496.114 586.811 498.251C587.727 500.389 585.895 501.589 586.811 505.209C587.727 508.83 588.643 509.157 588.992 512.342C589.341 515.526 593.354 518.034 596.582 519.823C599.81 521.611 604.02 521.35 607.357 522.68C610.694 524.011 614.468 525.996 614.468 525.996L611.043 511.142Z" fill="#FEC4AD"/>
<path d="M750.963 488.197C767.867 480.716 777.246 502.048 752.817 521.438C733.187 536.99 665.571 547.481 665.571 547.481L609.145 526.476C609.145 526.476 606.833 515.854 610.956 511.208L662.954 522.725C662.954 522.725 731.246 496.944 750.963 488.197Z" fill="url(#paint49_linear_21_3463)"/>
<path d="M692.508 570.512C695.78 570.12 697.568 568.135 697.154 566.281C696.739 564.427 694.842 564.602 694.864 563.162C694.885 561.722 693.184 559.694 692.508 558.691C691.832 557.687 692.181 554.677 689.891 554.656C687.921 554.874 686.064 555.689 684.569 556.989C682.496 557.902 680.149 557.972 678.025 557.186C676.673 556.357 676.738 558.145 677.218 559.018C678.505 561.199 680.97 561.373 681.82 564.841C682.671 568.31 688.255 571.014 692.508 570.512Z" fill="#FEC4AD"/>
<defs>
<linearGradient id="paint0_linear_21_3463" x1="800.64" y1="394.743" x2="914.024" y2="199.271" gradientUnits="userSpaceOnUse">
<stop stop-color="#FFA229"/>
<stop offset="1" stop-color="#FFC63B"/>
</linearGradient>
<linearGradient id="paint1_linear_21_3463" x1="862.695" y1="419.897" x2="936.987" y2="156.195" gradientUnits="userSpaceOnUse">
<stop stop-color="white"/>
<stop offset="1" stop-color="white" stop-opacity="0"/>
</linearGradient>
<linearGradient id="paint2_linear_21_3463" x1="784.913" y1="839.554" x2="922.109" y2="839.554" gradientUnits="userSpaceOnUse">
<stop stop-color="#75769A"/>
<stop offset="0.97" stop-color="white" stop-opacity="0"/>
</linearGradient>
<linearGradient id="paint3_linear_21_3463" x1="923.683" y1="758.761" x2="753.196" y2="787.956" gradientUnits="userSpaceOnUse">
<stop stop-color="#6AC578"/>
<stop offset="0.88" stop-color="#4A974D"/>
</linearGradient>
<linearGradient id="paint4_linear_21_3463" x1="782.774" y1="800.059" x2="880.039" y2="733.808" gradientUnits="userSpaceOnUse">
<stop stop-color="#7C8A99"/>
<stop offset="1" stop-color="white" stop-opacity="0"/>
</linearGradient>
<linearGradient id="paint5_linear_21_3463" x1="769.256" y1="862.996" x2="779.5" y2="747.468" gradientUnits="userSpaceOnUse">
<stop stop-color="#007378"/>
<stop offset="1" stop-color="#CCFFCE"/>
</linearGradient>
<linearGradient id="paint6_linear_21_3463" x1="670.338" y1="623.412" x2="680.449" y2="797.531" gradientUnits="userSpaceOnUse">
<stop stop-color="#6AC578"/>
<stop offset="0.88" stop-color="#4A974D"/>
</linearGradient>
<linearGradient id="paint7_linear_21_3463" x1="686.166" y1="803.121" x2="664.236" y2="639.954" gradientUnits="userSpaceOnUse">
<stop stop-color="#7C9B8F"/>
<stop offset="1" stop-color="white" stop-opacity="0"/>
</linearGradient>
<linearGradient id="paint8_linear_21_3463" x1="628.805" y1="768.212" x2="718.706" y2="727.78" gradientUnits="userSpaceOnUse">
<stop stop-color="#007378"/>
<stop offset="1" stop-color="#CCFFCE"/>
</linearGradient>
<linearGradient id="paint9_linear_21_3463" x1="869.378" y1="633.54" x2="735.894" y2="786.427" gradientUnits="userSpaceOnUse">
<stop offset="0.12" stop-color="#4A974D"/>
<stop offset="1" stop-color="#327B67"/>
</linearGradient>
<linearGradient id="paint10_linear_21_3463" x1="781.903" y1="800.542" x2="824.919" y2="589.934" gradientUnits="userSpaceOnUse">
<stop stop-color="#8687AB"/>
<stop offset="1" stop-color="white" stop-opacity="0"/>
</linearGradient>
<linearGradient id="paint11_linear_21_3463" x1="763.265" y1="720.594" x2="792.532" y2="743.581" gradientUnits="userSpaceOnUse">
<stop stop-color="#007378"/>
<stop offset="1" stop-color="#CCFFCE"/>
</linearGradient>
<linearGradient id="paint12_linear_21_3463" x1="710.9" y1="666.53" x2="766.306" y2="723.058" gradientUnits="userSpaceOnUse">
<stop offset="0.12" stop-color="#6AC578"/>
<stop offset="1" stop-color="#328F7B"/>
</linearGradient>
<linearGradient id="paint13_linear_21_3463" x1="730.409" y1="753.21" x2="737.272" y2="594.17" gradientUnits="userSpaceOnUse">
<stop stop-color="#7C87AB"/>
<stop offset="1" stop-color="white" stop-opacity="0"/>
</linearGradient>
<linearGradient id="paint14_linear_21_3463" x1="673.883" y1="721.197" x2="754.085" y2="730.797" gradientUnits="userSpaceOnUse">
<stop stop-color="#007378"/>
<stop offset="1" stop-color="#CCFFCE"/>
</linearGradient>
<linearGradient id="paint15_linear_21_3463" x1="853.22" y1="823.834" x2="673.546" y2="829.254" gradientUnits="userSpaceOnUse">
<stop stop-color="#6AC578"/>
<stop offset="0.88" stop-color="#327B67"/>
</linearGradient>
<linearGradient id="paint16_linear_21_3463" x1="694.155" y1="901.144" x2="800.497" y2="805.418" gradientUnits="userSpaceOnUse">
<stop stop-color="#7C87AB"/>
<stop offset="1" stop-color="white" stop-opacity="0"/>
</linearGradient>
<linearGradient id="paint17_linear_21_3463" x1="655.881" y1="811.682" x2="798.641" y2="875.014" gradientUnits="userSpaceOnUse">
<stop stop-color="#007378"/>
<stop offset="1" stop-color="#CCFFCE"/>
</linearGradient>
<linearGradient id="paint18_linear_21_3463" x1="786.845" y1="737.823" x2="630.532" y2="839.23" gradientUnits="userSpaceOnUse">
<stop stop-color="#6AC578"/>
<stop offset="0.88" stop-color="#327B67"/>
</linearGradient>
<linearGradient id="paint19_linear_21_3463" x1="674.577" y1="881.136" x2="718.955" y2="735.976" gradientUnits="userSpaceOnUse">
<stop stop-color="#7C87AB"/>
<stop offset="1" stop-color="white" stop-opacity="0"/>
</linearGradient>
<linearGradient id="paint20_linear_21_3463" x1="592.894" y1="827.37" x2="758.732" y2="806.176" gradientUnits="userSpaceOnUse">
<stop stop-color="#007378"/>
<stop offset="1" stop-color="#CCFFCE"/>
</linearGradient>
<linearGradient id="paint21_linear_21_3463" x1="19.1839" y1="799.017" x2="167.945" y2="831.092" gradientUnits="userSpaceOnUse">
<stop stop-color="#6AC578"/>
<stop offset="0.88" stop-color="#4A974D"/>
</linearGradient>
<linearGradient id="paint22_linear_21_3463" x1="141.136" y1="845.247" x2="55.1491" y2="781.304" gradientUnits="userSpaceOnUse">
<stop stop-color="#7C8A99"/>
<stop offset="1" stop-color="white" stop-opacity="0"/>
</linearGradient>
<linearGradient id="paint23_linear_21_3463" x1="153.819" y1="904.636" x2="147.666" y2="784.202" gradientUnits="userSpaceOnUse">
<stop stop-color="#007378"/>
<stop offset="1" stop-color="#CCFFCE"/>
</linearGradient>
<linearGradient id="paint24_linear_21_3463" x1="194.557" y1="624.309" x2="261.158" y2="817.046" gradientUnits="userSpaceOnUse">
<stop stop-color="#6AC578"/>
<stop offset="0.88" stop-color="#4A974D"/>
</linearGradient>
<linearGradient id="paint25_linear_21_3463" x1="262.749" y1="828.081" x2="213.22" y2="640.877" gradientUnits="userSpaceOnUse">
<stop stop-color="#7C9B8F"/>
<stop offset="1" stop-color="white" stop-opacity="0"/>
</linearGradient>
<linearGradient id="paint26_linear_21_3463" x1="331.223" y1="795.951" x2="206.455" y2="805.056" gradientUnits="userSpaceOnUse">
<stop stop-color="#007378"/>
<stop offset="1" stop-color="#CCFFCE"/>
</linearGradient>
<linearGradient id="paint27_linear_21_3463" x1="85.1004" y1="679.194" x2="225.455" y2="839.949" gradientUnits="userSpaceOnUse">
<stop offset="0.12" stop-color="#4A974D"/>
<stop offset="1" stop-color="#327B67"/>
</linearGradient>
<linearGradient id="paint28_linear_21_3463" x1="173.699" y1="850.817" x2="130.983" y2="641.657" gradientUnits="userSpaceOnUse">
<stop stop-color="#8687AB"/>
<stop offset="1" stop-color="white" stop-opacity="0"/>
</linearGradient>
<linearGradient id="paint29_linear_21_3463" x1="205.058" y1="765.042" x2="160.692" y2="799.701" gradientUnits="userSpaceOnUse">
<stop stop-color="#007378"/>
<stop offset="1" stop-color="#CCFFCE"/>
</linearGradient>
<linearGradient id="paint30_linear_21_3463" x1="173.169" y1="782.339" x2="249.865" y2="756.838" gradientUnits="userSpaceOnUse">
<stop offset="0.12" stop-color="#6AC578"/>
<stop offset="1" stop-color="#328F7B"/>
</linearGradient>
<linearGradient id="paint31_linear_21_3463" x1="266.001" y1="806.002" x2="109.891" y2="721.96" gradientUnits="userSpaceOnUse">
<stop stop-color="#7C87AB"/>
<stop offset="1" stop-color="white" stop-opacity="0"/>
</linearGradient>
<linearGradient id="paint32_linear_21_3463" x1="198.671" y1="858.707" x2="256.352" y2="769.403" gradientUnits="userSpaceOnUse">
<stop stop-color="#007378"/>
<stop offset="1" stop-color="#CCFFCE"/>
</linearGradient>
<linearGradient id="paint33_linear_21_3463" x1="39.9861" y1="875.3" x2="229.716" y2="881.238" gradientUnits="userSpaceOnUse">
<stop stop-color="#6AC578"/>
<stop offset="0.88" stop-color="#327B67"/>
</linearGradient>
<linearGradient id="paint34_linear_21_3463" x1="207.546" y1="955.784" x2="94.8606" y2="854.938" gradientUnits="userSpaceOnUse">
<stop stop-color="#7C87AB"/>
<stop offset="1" stop-color="white" stop-opacity="0"/>
</linearGradient>
<linearGradient id="paint35_linear_21_3463" x1="256.346" y1="862.045" x2="106.51" y2="928.916" gradientUnits="userSpaceOnUse">
<stop stop-color="#007378"/>
<stop offset="1" stop-color="#CCFFCE"/>
</linearGradient>
<linearGradient id="paint36_linear_21_3463" x1="125.245" y1="816.878" x2="308.882" y2="885.96" gradientUnits="userSpaceOnUse">
<stop stop-color="#6AC578"/>
<stop offset="0.88" stop-color="#327B67"/>
</linearGradient>
<linearGradient id="paint37_linear_21_3463" x1="264.571" y1="940.823" x2="186.497" y2="800.846" gradientUnits="userSpaceOnUse">
<stop stop-color="#7C87AB"/>
<stop offset="1" stop-color="white" stop-opacity="0"/>
</linearGradient>
<linearGradient id="paint38_linear_21_3463" x1="342.761" y1="863.847" x2="167.763" y2="879.076" gradientUnits="userSpaceOnUse">
<stop stop-color="#007378"/>
<stop offset="1" stop-color="#CCFFCE"/>
</linearGradient>
<linearGradient id="paint39_linear_21_3463" x1="35.2858" y1="1089.39" x2="705.377" y2="203.099" gradientUnits="userSpaceOnUse">
<stop stop-color="#75769A"/>
<stop offset="0.97" stop-color="white" stop-opacity="0"/>
</linearGradient>
<linearGradient id="paint40_linear_21_3463" x1="366.328" y1="326.155" x2="436.13" y2="166.15" gradientUnits="userSpaceOnUse">
<stop stop-color="#FFA229"/>
<stop offset="1" stop-color="#FFC63B"/>
</linearGradient>
<linearGradient id="paint41_linear_21_3463" x1="691.79" y1="538.323" x2="804.795" y2="538.323" gradientUnits="userSpaceOnUse">
<stop stop-color="#7D22BE"/>
<stop offset="1" stop-color="#CF74F1"/>
</linearGradient>
<linearGradient id="paint42_linear_21_3463" x1="772.207" y1="668.106" x2="845.951" y2="907.486" gradientUnits="userSpaceOnUse">
<stop stop-color="#75769A"/>
<stop offset="0.97" stop-color="white" stop-opacity="0"/>
</linearGradient>
<linearGradient id="paint43_linear_21_3463" x1="772.317" y1="610.348" x2="701.539" y2="887.506" gradientUnits="userSpaceOnUse">
<stop stop-color="#75769A"/>
<stop offset="0.97" stop-color="white" stop-opacity="0"/>
</linearGradient>
<linearGradient id="paint44_linear_21_3463" x1="735.216" y1="666.929" x2="657.458" y2="447.156" gradientUnits="userSpaceOnUse">
<stop stop-color="#D12C80"/>
<stop offset="1" stop-color="#FF6672"/>
</linearGradient>
<linearGradient id="paint45_linear_21_3463" x1="544.912" y1="473.218" x2="566.767" y2="445.278" gradientUnits="userSpaceOnUse">
<stop stop-color="#DE9F78"/>
<stop offset="1" stop-color="#ECCD84"/>
</linearGradient>
<linearGradient id="paint46_linear_21_3463" x1="813.314" y1="642.646" x2="837.961" y2="642.646" gradientUnits="userSpaceOnUse">
<stop stop-color="#FF980C"/>
<stop offset="1" stop-color="#FFC63B"/>
</linearGradient>
<linearGradient id="paint47_linear_21_3463" x1="823.27" y1="653.724" x2="861.723" y2="653.724" gradientUnits="userSpaceOnUse">
<stop stop-color="#7D22BE"/>
<stop offset="1" stop-color="#CF74F1"/>
</linearGradient>
<linearGradient id="paint48_linear_21_3463" x1="697.067" y1="666.241" x2="867.938" y2="442.433" gradientUnits="userSpaceOnUse">
<stop stop-color="#7D22BE"/>
<stop offset="1" stop-color="#CF74F1"/>
</linearGradient>
<linearGradient id="paint49_linear_21_3463" x1="615.034" y1="605.281" x2="791.838" y2="373.709" gradientUnits="userSpaceOnUse">
<stop stop-color="#7D22BE"/>
<stop offset="1" stop-color="#CF74F1"/>
</linearGradient>
</defs>
</svg>
