<svg width="1000" height="1021" viewBox="0 0 1000 1021" fill="none" xmlns="http://www.w3.org/2000/svg">
<g clip-path="url(#clip0_531_5316)">
<rect width="1000" height="1021" fill="white"/>
<path d="M1000 425.637V997H0V529.819H7.79442V440.599H49.0011V486.038H89.0107L104.826 507.26H120.893V397.317H157.83V425.637H189.181V480.332H231.305V411.709H264.545V440.581H281.836L296.786 420.518H313.812V354H361.403V452.726H410.058V476.533H428.919V440.599H500.811V480.332H528.305V425.637H570.243V507.26H572.69V397.317H609.654V425.637H640.991V480.332H683.102V411.709H716.342V440.581H733.646L748.61 420.518H765.622V354H813.2V452.726H861.882V476.533H880.743V440.599H918.584V480.332H980.102V425.637H1000Z" fill="url(#paint0_linear_531_5316)"/>
<path d="M344.195 427.192L351.481 411.884L341.141 401.542L345.874 395.897L336.176 383.93L315.621 316L163 382.286L188.359 445.858L208.308 462.809L206.915 488.566L216.112 499.408L249.686 572.5C253.151 578.645 288.44 565.355 328.479 542.76C368.519 520.164 398.128 496.926 394.735 490.781L344.195 427.192Z" fill="url(#paint1_linear_531_5316)"/>
<path d="M315.828 316.01C318.632 322.442 286.744 342.448 244.591 360.659C202.438 378.87 166.034 388.447 163.178 381.979C160.321 375.512 192.262 355.542 234.415 337.313C276.568 319.084 313.079 309.579 315.828 316.01Z" fill="url(#paint2_linear_531_5316)"/>
<path d="M251.922 343.875C253.2 346.733 238.629 355.581 219.355 363.659C200.082 371.738 183.435 375.965 182.086 373.107C180.737 370.249 195.432 361.4 214.706 353.408C233.979 345.415 250.626 341.016 251.922 343.875Z" fill="#6B6B6B"/>
<path d="M377.013 262.13C377.013 262.13 350.635 249.286 320 268.9C320 268.9 382.101 445.75 383.338 628.387C383.236 628.978 383.236 629.583 383.338 630.174C383.338 630.174 383.338 630.299 383.338 630.352C384.663 636.944 397.719 639.82 412.506 636.801C427.294 633.782 443.248 624.654 441.923 618.062C441.923 617.848 441.817 617.651 441.746 617.437C438.071 604.682 378.497 397.036 377.013 262.13Z" fill="url(#paint3_linear_531_5316)"/>
<path d="M376.983 262.35C377.345 266.629 371.893 270.89 364.104 273.874C358.586 275.939 352.831 277.245 346.985 277.759C342.914 278.129 338.818 278.073 334.758 277.59C325.248 276.351 318.455 272.579 318.02 267.512C317.44 260.474 329.45 253.642 344.848 252.254C360.245 250.865 376.403 255.313 376.983 262.35Z" fill="#A0A4B0"/>
<path d="M366.99 268.218C367.132 270.088 365.784 271.957 363.444 273.627C358.044 275.816 352.411 277.2 346.689 277.744C342.705 278.137 338.695 278.077 334.722 277.565C331.371 276.253 329.208 274.244 329.013 271.798C328.641 266.906 336.371 262.152 346.264 261.178C356.157 260.203 366.617 263.326 366.99 268.218Z" fill="#8B8E99"/>
<path d="M329.956 276.248C329.956 276.248 301.981 266.151 273 288.756C273 288.756 353.802 458.335 373.661 640.012C373.63 640.614 373.697 641.218 373.858 641.799V641.978C375.852 648.393 389.354 649.93 403.988 645.391C418.623 640.852 433.831 630.166 431.82 623.733C431.758 623.531 431.68 623.334 431.587 623.144C426.505 610.867 345.129 410.338 329.956 276.248Z" fill="url(#paint4_linear_531_5316)"/>
<path d="M329.922 275.491C330.683 279.472 325.781 284.021 318.507 287.611C313.335 290.095 307.861 291.887 302.225 292.942C298.309 293.711 294.322 294.062 290.333 293.991C280.97 293.796 273.998 290.899 273.095 286.171C271.856 279.596 282.882 271.954 297.712 269.129C312.543 266.303 328.577 268.915 329.922 275.491Z" fill="#B5B9C7"/>
<path d="M321.951 282.799C322.264 284.403 321.066 286.145 318.872 287.8C313.483 290.21 307.78 291.95 301.909 292.974C297.828 293.719 293.675 294.06 289.518 293.991C285.831 293.215 283.508 291.68 283.065 289.594C282.217 285.403 289.758 280.54 299.917 278.729C310.077 276.918 321.084 278.557 321.951 282.799Z" fill="#9295A1"/>
<path d="M426.731 298.539C417.963 292.914 407.985 289.424 397.607 288.352C387.228 287.281 376.742 288.659 367 292.375C367 292.375 404.88 481.178 379.093 662.084C378.914 662.662 378.829 663.265 378.842 663.87V664.049C379.237 670.856 392.265 676.645 407.935 676.985C423.604 677.324 441.376 671.911 440.98 665.085C441.007 664.872 441.007 664.656 440.98 664.442C439.022 650.97 408.33 432.222 426.731 298.539Z" fill="url(#paint5_linear_531_5316)"/>
<path d="M426.993 298.371C426.759 302.529 420.683 305.368 412.433 306.471C406.533 307.211 400.563 307.174 394.673 306.363C390.508 305.809 386.407 304.84 382.432 303.47C373.049 300.179 366.722 295.062 367.009 290.162C367.423 283.309 380.455 279.476 396.129 281.574C411.804 283.671 427.388 291.536 426.993 298.371Z" fill="#B5B9C7"/>
<path d="M415.995 302.693C415.889 304.387 414.216 305.59 411.76 306.504C405.92 307.198 400.009 307.163 394.178 306.403C390.054 305.884 385.995 304.976 382.06 303.692C378.803 301.88 376.881 299.728 377.006 297.628C377.255 293.41 385.743 291.055 395.94 292.36C406.137 293.664 416.245 298.492 415.995 302.693Z" fill="#9295A1"/>
<path d="M475 294.723C466.875 288.184 457.313 283.641 447.09 281.465C436.867 279.289 426.272 279.54 416.164 282.198C416.164 282.198 433.52 474.2 388.439 651.583C388.205 652.123 388.059 652.697 388.007 653.283C388.007 653.283 388.007 653.39 388.007 653.462C387.665 660.279 400.015 667.436 415.588 669.44C431.161 671.444 449.453 667.937 449.795 661.102C449.813 660.887 449.813 660.672 449.795 660.458C449.273 646.913 442.288 425.908 475 294.723Z" fill="url(#paint6_linear_531_5316)"/>
<path d="M474.935 294.579C474.251 298.625 467.915 300.791 459.581 300.988C453.627 301.099 447.684 300.43 441.905 299.001C437.812 298.015 433.827 296.63 430.008 294.865C421.008 290.64 415.266 284.929 416.076 280.113C417.21 273.435 430.584 271.036 445.973 274.742C461.363 278.448 476.105 287.883 474.935 294.579Z" fill="#B5B9C7"/>
<path d="M463.961 297.364C463.696 299.068 461.966 300.265 459.37 300.991C453.528 301.09 447.698 300.401 442.031 298.941C438.015 297.943 434.106 296.54 430.359 294.753C427.358 292.468 425.68 289.965 426.051 287.753C426.775 283.292 435.392 281.714 445.315 284.126C455.238 286.538 464.685 292.921 463.961 297.364Z" fill="#9295A1"/>
<path d="M722 504.418L568.799 280C568.799 280 386.205 348.003 398.604 383.582C399.136 385.173 400.098 386.586 401.383 387.664L551.769 608L722 504.418Z" fill="url(#paint7_linear_531_5316)"/>
<path d="M722.162 504C722.162 504 539.164 572.477 551.607 608.304C564.05 644.131 726 524.516 726 524.516L722.162 504Z" fill="url(#paint8_linear_531_5316)"/>
<path d="M564.687 300C564.687 300 482.996 331.704 467 343.895L600.954 537C600.954 537 678.085 498.01 698 494.77L564.687 300Z" fill="url(#paint9_linear_531_5316)"/>
<path d="M459.868 349L591 542.206C591 542.206 562.307 557.15 556.664 567L425 374.186C425 374.186 427.981 364.603 459.868 349Z" fill="url(#paint10_linear_531_5316)"/>
<path d="M774.508 356.669C757.81 342.48 770.007 323.74 770.007 323.74L732.897 313.87L695.787 304C695.787 304 697.037 326.328 675.5 330.344C653.963 334.359 636.104 326.595 609.12 427.954C582.136 529.312 604.923 531.793 670.285 549.159C735.647 566.525 756.631 575.663 783.598 474.323C810.564 372.982 791.223 370.84 774.508 356.669Z" fill="url(#paint11_linear_531_5316)"/>
<path d="M777.949 307.302L697.187 285.828L692.61 303.04L773.373 324.514L777.949 307.302Z" fill="url(#paint12_linear_531_5316)"/>
<path d="M734.467 808.202C715.308 816.766 697.179 821.496 689.242 814.902C688.786 814.511 688.358 814.085 687.964 813.63C683.667 808.578 683.684 798.742 690.396 782.241C708.241 738.292 738.09 736.59 767.352 728.025C796.224 719.605 791.749 688.77 791.643 688C815.472 759.971 766.961 793.671 734.467 808.202Z" fill="url(#paint13_linear_531_5316)"/>
<path d="M689.276 814C688.821 813.61 688.394 813.188 688 812.736C693.035 804.544 703.724 788.891 715.584 781.608C721.576 778.127 727.768 775.006 734.127 772.259C746.696 766.508 759.69 760.56 769.741 750L771 751.211C760.718 762.002 747.564 768.021 734.836 773.844C728.547 776.539 722.426 779.614 716.506 783.051C704.93 790.174 694.187 806.022 689.276 814Z" fill="url(#paint14_linear_531_5316)"/>
<path d="M775.087 864.177C750.935 863.484 739.412 842.158 705.895 870.859C676.962 895.651 650.366 856.944 643.641 845.89C642.571 844.113 642 843.082 642 843.082L643.356 843.686C648.939 846.086 670.38 853.941 678.853 838.177C688.61 819.979 710.96 796.983 732.366 808.321C753.771 819.659 761.976 803.558 781.241 793.961C800.506 784.365 822 813.101 822 813.101C822 813.101 799.221 864.888 775.087 864.177Z" fill="url(#paint15_linear_531_5316)"/>
<path d="M703.014 843.088C697.058 849.93 690.925 857.022 679.657 859.374C664.269 862.582 651.129 852.781 643.64 845.351C642.571 843.569 642 842.536 642 842.536L643.355 843.142C650.326 850.465 663.699 861.334 679.371 858.056C690.212 855.811 696.203 848.897 701.997 842.197C708.683 834.464 715.619 826.481 729.847 826C735.501 826.004 741.117 826.912 746.483 828.691C753.811 830.758 760.746 832.7 769.465 828.851L770 830.08C760.835 834.125 753.686 832.112 746.126 829.991C740.896 828.241 735.416 827.35 729.901 827.354C716.243 827.835 709.842 835.212 703.014 843.088Z" fill="url(#paint16_linear_531_5316)"/>
<path d="M266.287 710.745C256.581 741.435 301.471 808.151 308.161 817.805L309 819C309 819 307.216 818.697 304.308 818.054C284.682 813.754 209.925 794.02 205.893 741.703C201.29 681.464 173.778 703.679 132.742 660.338C91.7058 616.997 130.851 567 130.851 567C205.946 590.303 276.76 677.592 266.287 710.745Z" fill="#609A3E"/>
<path d="M309 819C309 819 307.219 818.695 304.315 818.05L301.394 815.721C282.156 800.797 257.717 779.888 250.557 764.551C246.165 754.471 242.423 744.118 239.352 733.555C232.227 711.07 224.924 687.814 209.48 679.088C185.896 665.794 173.517 633.311 173 631.914L175.405 631C175.529 631.34 187.98 664.003 210.745 676.831C227.079 686.04 234.561 709.798 241.81 732.767C244.844 743.226 248.545 753.478 252.89 763.458C260.015 778.454 285.558 800.564 308.109 817.728L309 819Z" fill="url(#paint17_linear_531_5316)"/>
<path d="M292.494 768.874C295.354 797.365 315.111 808.049 321.223 810.649C322.343 811.129 323 811.343 323 811.343C321.641 811.876 320.238 812.288 318.807 812.572C298.09 817.006 238.854 812.322 220.714 781.196C201.17 747.595 179.085 778.24 143.923 757.157C96.1827 728.488 126.476 680 126.476 680C123.669 700.478 166.559 732.566 204.403 728.256C242.248 723.947 289.047 735.201 292.494 768.874Z" fill="#609A3E"/>
<path d="M256.801 779.502C265.509 790.686 273.699 801.262 286.145 802.727C298.075 804.378 309.818 807.172 321.212 811.071C322.338 811.553 323 811.767 323 811.767C321.633 812.302 320.22 812.715 318.78 813C308.058 809.411 297.025 806.827 285.823 805.282C272.305 803.781 263.775 792.776 254.744 781.164C244.516 767.979 233.912 754.365 215.011 753.401C178.871 751.614 156.25 739.394 156 739.269L157.252 737C157.448 737.125 179.622 749.077 215.118 750.828C235.182 751.739 246.215 765.853 256.801 779.502Z" fill="url(#paint18_linear_531_5316)"/>
<path d="M843 462C843 462 760.983 637.855 694.318 926H294.7C227.963 637.855 146 462 146 462H843Z" fill="url(#paint19_linear_531_5316)"/>
<path d="M606.324 719L583.624 743.537C592.038 751.116 598.393 763.747 597.212 770.566C597.015 771.696 596.603 774.099 591.107 776.378C577.304 782.19 536.863 779.911 508.38 776.289L510.313 760.39L443 784.115L502.311 826L504.352 809.288C522.535 811.729 540.855 813.045 559.205 813.228C576.284 813.228 593.041 811.691 604.301 806.957C618.748 800.88 628.022 789.945 630.403 776.148C634.037 755.055 620.467 731.737 606.324 719Z" fill="url(#paint20_linear_531_5316)"/>
<path d="M431.187 681.771L445.797 692.205L457 622L391.496 653.444L403.894 662.346C390.425 680.703 360.902 723.613 358.262 750.481C356.728 766.043 361.972 779.414 373.05 788.156C382.897 795.937 396.241 799 409.12 799C417.972 799.021 426.768 797.608 435.165 794.816L424.301 763.158C413.598 766.826 399.327 766.238 393.868 761.912C392.958 761.2 391.05 759.686 391.638 753.775C393.101 738.908 414.294 704.829 431.187 681.771Z" fill="url(#paint21_linear_531_5316)"/>
<path d="M582.92 651.754C574.85 631.469 553.416 581.534 531.593 564.65C519.204 555.125 505.186 552.547 492.018 557.381C471.876 564.775 458.195 588.248 454 606.922L486.46 614.37C488.938 603.252 496.85 591.417 503.363 589.018C504.46 588.624 506.708 587.8 511.416 591.417C523.416 600.673 541.664 637.968 552.283 664.824L536.903 671.342L590.46 718L598 645.434L582.92 651.754Z" fill="url(#paint22_linear_531_5316)"/>
<path d="M701.041 609.892C701.041 609.892 697.685 603.877 703.023 587.745C703.871 584.738 705.553 582.045 707.865 579.99C710.177 577.935 713.022 576.606 716.056 576.163C719.09 575.721 722.186 576.182 724.969 577.493C727.752 578.804 730.105 580.909 731.745 583.553C737.44 593.56 735.512 599.757 727.14 611.04C718.767 622.322 704.522 615.05 701.041 609.892Z" fill="#EEA886"/>
<path d="M742 881.78C742 881.78 742.922 887.81 743.032 888.705C743.143 889.6 753.189 888.175 753.189 888.175L754 881.001C754 881.001 743.253 880.935 742 881.78Z" fill="#EEA886"/>
<path d="M743.847 888.448C742.128 890.629 740.086 892.532 737.794 894.09C734.82 895.791 730.156 896.472 728.394 898.245C727.112 899.517 723.765 905.016 736.12 904.908C748.475 904.801 754.439 905.678 755.704 903.565C756.968 901.451 753.781 888 753.781 888C750.509 888.638 747.162 888.789 743.847 888.448Z" fill="#152B3D"/>
<path d="M675 881.78C675 881.78 675.903 887.81 676.032 888.705C676.161 889.6 686.189 888.175 686.189 888.175L687 881.001C687 881.001 676.253 880.935 675 881.78Z" fill="#EEA886"/>
<path d="M675.74 888.449C674.007 890.638 671.949 892.548 669.638 894.111C666.641 895.819 655.602 897.221 653.826 899C652.551 900.295 650.415 905.453 667.951 904.968C680.389 904.626 686.401 905.741 687.694 903.62C688.986 901.499 685.773 888 685.773 888C682.452 888.481 679.091 888.631 675.74 888.449Z" fill="#152B3D"/>
<path d="M738.973 720C738.973 720 743.966 735.538 743.304 748.93C742.642 762.322 745.899 776.966 747.224 790.948C748.709 806.54 754.758 843.444 754.973 851.74C755.188 860.037 754.043 886.714 754.043 886.714L741.926 887C741.926 887 731.743 822.471 729.112 815.891C726.481 809.311 713.398 762.376 713.004 757.101C712.611 751.827 738.973 720 738.973 720Z" fill="#323657"/>
<path d="M688.723 718.329C688.723 718.329 681.218 759.477 680.323 767.617C679.428 775.758 678.825 807.28 678.387 812.343C677.949 817.406 675.392 879.379 673 887H686.787C686.787 887 700.94 841.988 700.94 820.68C700.94 799.373 710.344 774.398 716.37 760.408C722.396 746.417 736.275 746.095 740 719.94C740 719.94 693.763 709.993 688.723 718.329Z" fill="#323657"/>
<path d="M706.077 614.093C706.077 614.093 707.558 618.755 706.077 622.082C704.596 625.409 725.033 623.398 725.033 623.398C724.553 619.131 725.155 614.805 726.775 610.879C729.528 605.24 706.077 614.093 706.077 614.093Z" fill="#EEA886"/>
<path d="M702.019 622.331C702.019 622.331 694.228 623.108 692.002 623.532C689.776 623.956 674.824 620.9 671.754 620.582C668.685 620.265 655.599 611.451 655.186 610.408C654.773 609.366 647.216 590.537 646.785 586.457C646.355 582.377 639.444 584.496 640.036 587.287C641.149 592.586 642.585 605.233 643.357 608.907C644.2 612.899 646.462 621.907 647.737 623.038C649.011 624.168 660.787 632.964 672.329 636.727C679.403 639.05 686.184 642.161 692.541 646H749.408C749.408 646 771.505 614.895 771.989 610.196C772.474 605.498 756.534 574.358 753.375 570.454C750.215 566.55 745.602 571.743 745.602 571.743C745.602 571.743 755.116 599.21 756.372 603.113C757.629 607.017 745.297 624.168 741.904 624.309C738.512 624.451 729.824 623.267 725.964 623.108C723.243 622.924 720.567 622.328 718.03 621.342L702.019 622.331Z" fill="#EEA886"/>
<path d="M678.082 643.141C678.082 643.141 685.001 647.791 685.644 655.756C686.488 664.147 687.964 672.461 690.06 680.626C691.329 684.933 688.951 716.164 688.647 718.471C688.344 720.778 732.464 726.004 739.239 720.706C739.239 720.706 741.134 691.529 741.921 683.257C742.707 674.985 746.515 654.873 747.767 652.17C749.018 649.467 764.374 627.769 765 624.921C765 624.921 757.063 612.162 751.378 612C751.378 612 742.332 622.687 739.4 623.155C736.468 623.624 718.377 620.218 718.377 620.218C718.377 620.218 716.41 622.921 705.863 619.749C705.863 619.749 693.349 621.155 691.365 621.425C688.898 621.732 671.807 619.263 671.807 619.263C671.807 619.263 664.943 630.941 666.14 636.834L678.082 643.141Z" fill="#FF8447"/>
<path d="M648.449 589.358C648.449 589.358 646.799 582.031 648.772 579.922C650.22 578.382 651.581 576.771 652.851 575.097C653.097 574.632 656 573.06 656 572.309C656 571.559 653.173 570.611 650.688 572.774C648.203 574.936 646.666 575.383 645.679 575.151C644.693 574.918 643.27 567.18 643.156 565.268C643.042 563.356 642.246 558.28 640.975 558.62C639.703 558.959 639.76 561.175 639.76 561.175C639.76 561.175 638.281 557.333 637.275 558.102C636.27 558.87 636.421 560.711 636.421 560.711C636.421 560.711 634.524 558.566 634.069 560.139C633.773 561.108 633.773 562.136 634.069 563.106C634.069 563.106 632.172 562.123 632.02 564.553C631.868 566.984 632.589 574.168 633.917 576.723C635.245 579.279 640.367 585.999 640.975 588.608C641.582 591.217 648.449 589.358 648.449 589.358Z" fill="#EEA886"/>
<path d="M747.545 576C747.545 576 742.218 567.307 740.442 566.629C738.182 565.956 736.008 565.035 733.961 563.882C731.759 562.352 728.846 561.065 729.006 560.544C729.166 560.022 731.759 560.248 734.529 561.413C737.299 562.578 738.524 562.022 738.79 561.413C738.428 559.288 737.637 557.255 736.464 555.432C735.63 554.406 729.663 548.478 730.658 547.661C731.652 546.843 735.523 550.008 736.162 550.686C736.162 550.686 733.073 544.322 734.262 544.027C735.452 543.731 737.725 545.974 737.725 545.974C737.725 545.974 737.459 540.532 743.425 549.347C743.425 549.347 742.182 546.426 744.011 547.4C745.84 548.373 747.562 553.867 748.202 556.632C748.841 559.396 751.38 568.211 753.618 570.332C755.855 572.453 747.545 576 747.545 576Z" fill="#EEA886"/>
<path d="M726.904 611C723.861 610.951 720.856 610.34 718.042 609.197C712.013 607.141 711.556 596.735 710.259 597.961C709.853 598.41 709.344 598.757 708.774 598.971C708.205 599.185 707.591 599.261 706.986 599.192C706.38 599.123 705.8 598.911 705.295 598.575C704.79 598.238 704.374 597.786 704.083 597.258C704.083 597.258 707.025 593.417 705.654 591.577C704.624 590.32 703.389 589.241 702 588.385C702 588.385 706.239 568.205 725.551 577.402C748.244 588.187 726.904 611 726.904 611Z" fill="#353A3D"/>
<path d="M706 621.63L706.661 619.037C712.884 618.907 719.11 619.121 725.303 619.677L726 622.766C726 622.766 717.546 626.191 706 621.63Z" fill="#FF8447"/>
<path d="M708.642 595.601C709.68 593.762 713.528 592.475 713.987 597.77C714.345 601.887 707.093 606.373 707.025 602.549C706.87 600.107 707.436 597.674 708.642 595.601Z" fill="#EEA886"/>
<path d="M648.449 588C648.449 588 644.116 588.077 642.02 589.449C641.948 589.979 642.071 590.514 642.375 591C644.482 590.291 646.71 589.787 649 589.5C649 589.5 648.947 588.359 648.449 588Z" fill="#E55353"/>
<path d="M643.141 588.935C643.055 589.113 643.007 589.307 643.001 589.505C642.994 589.702 643.029 589.899 643.102 590.083C643.176 590.266 643.287 590.432 643.428 590.57C643.569 590.708 643.738 590.815 643.923 590.885C644.289 591.037 644.7 591.038 645.068 590.889C645.435 590.74 645.729 590.452 645.886 590.088C646.037 589.724 646.038 589.314 645.889 588.949C645.74 588.584 645.452 588.292 645.089 588.139C644.91 588.053 644.715 588.006 644.517 588.001C644.319 587.995 644.122 588.031 643.939 588.106C643.755 588.181 643.59 588.293 643.452 588.436C643.315 588.579 643.209 588.749 643.141 588.935Z" fill="#353A3D"/>
<path d="M765.982 906.659H648.031L685.195 1020.86L681.734 1022L643 903H768.641L807 1020.86L803.521 1022L765.982 906.659Z" fill="#3F74A0"/>
<path d="M726.543 1020.86L763.937 906.659H645.272L607.501 1022L604 1020.86L642.598 903H769L730.043 1022L726.543 1020.86Z" fill="#3F74A0"/>
<path d="M777 939H632V943H777V939Z" fill="#3F74A0"/>
<path d="M792 979H619V982H792V979Z" fill="#3F74A0"/>
<path d="M420.14 678.942C420.14 678.942 419.57 674.247 420.729 672.596C421.888 670.945 425.794 669.553 430.877 668.332C435.603 667.179 446.625 663.534 446.928 664.05C447.231 664.566 446.928 667.386 438.849 671.805C430.77 676.225 428.148 677.067 427.631 679.939C427.114 682.811 420.14 678.942 420.14 678.942Z" fill="#EEA886"/>
<path d="M318 685.869C318 685.869 317.674 677.574 316.542 675.789C315.41 674.004 311.688 672.497 306.799 671.158C302.254 669.931 292.545 664.482 292.168 665.04C291.79 665.598 291.379 670.154 299.029 674.934C306.679 679.713 309.321 680.624 309.818 683.711C310.316 686.798 318 685.869 318 685.869Z" fill="#EEA886"/>
<path d="M377 743.092C377 743.092 360.125 754.867 360.979 747.671C361.409 742.761 361.079 737.812 360 733.007C360 733.007 376.733 725.593 376.021 730.935C375.854 732.212 375.794 733.5 375.843 734.787C375.9 736.212 376.036 737.631 376.252 739.04C376.555 741.42 377 743.092 377 743.092Z" fill="#EEA886"/>
<path d="M431.76 983.619C434.323 985.037 436.762 986.669 439.051 988.497C441.175 990.495 450.696 989.47 452.714 994.737C454.731 1000 445.759 1002.69 436.042 999.846C426.326 997 424.68 995.02 421.406 993.447C418.132 991.874 421.601 983 421.601 983L431.76 983.619Z" fill="#3F74A0"/>
<path d="M333.383 969.408C333.44 972.232 333.652 975.05 334.019 977.847C334.602 982.038 339.341 990.978 338.98 994.335C338.62 997.692 332.851 1002.76 326.481 994.614C321.76 988.567 323.339 978.663 321.846 975.881C320.352 973.099 320.678 966.867 324.112 962.898C327.546 958.929 333.383 969.408 333.383 969.408Z" fill="#3F74A0"/>
<path d="M403.765 831.714C403.765 831.714 429.736 880.891 430.65 887.788C431.564 894.685 432.55 968.603 433.643 973.422C434.046 974.651 434.109 975.966 433.825 977.227C433.541 978.489 432.921 979.65 432.03 980.588C432.03 980.588 423.355 984.045 420.756 980.14C418.158 976.235 418.964 973.923 418.964 973.923C418.964 973.923 410.379 914.481 409.268 904.718C408.156 894.954 380.501 853.212 378.009 857.01C375.518 860.808 370.84 896.674 368.815 901.797C366.789 906.921 335.531 967.528 333.148 967.528C330.764 967.528 321.748 966.148 323.146 959.018C324.544 951.888 344.834 899.361 344.834 893.377C344.834 887.394 351.178 831.57 352.791 824.082C354.405 816.593 403.765 831.714 403.765 831.714Z" fill="#3C4585"/>
<path d="M431.76 984.423L432 980.969L421 980L421.277 983.595C421.277 983.595 421.518 985.615 426.824 985.958C432.129 986.301 431.76 984.423 431.76 984.423Z" fill="#DB9C7C"/>
<path d="M334 967.107C334 967.107 333.101 970.581 332.876 971.345C332.652 972.11 326.116 972.839 324.188 969.608C323.581 968.823 323.192 967.912 323.055 966.955C322.918 965.998 323.037 965.024 323.401 964.119C323.525 963.382 323.772 962.667 324.131 962L334 967.107Z" fill="#DB9C7C"/>
<path d="M434.829 980.187C430.057 982.225 424.73 982.556 419.743 981.124C418.887 978.664 418.768 976.006 419.401 973.479C419.401 973.479 425.324 976.508 434.001 972C434.937 974.621 435.221 977.431 434.829 980.187Z" fill="#4E5AAD"/>
<path d="M359.778 839L360 836.181L359.241 836C359.241 836 359.148 836.805 359 838.92L359.778 839Z" fill="#C24646"/>
<path d="M329 952.591C329.727 950.991 330.541 949.196 331.406 947.259L332.064 947.668L329.658 953L329 952.591ZM333.812 941.926C334.574 940.149 335.388 938.371 336.201 936.594L336.842 937.003C336.046 938.78 335.232 940.558 334.47 942.335L333.812 941.926ZM338.573 931.261L340.927 925.929L341.585 926.32C340.806 928.097 340.01 929.875 339.231 931.652L338.573 931.261ZM343.264 920.596L345.567 915.264L346.224 915.655C345.515 917.326 344.753 919.21 343.922 920.987L343.264 920.596ZM347.834 909.789C348.7 907.656 349.444 905.826 349.998 904.332L350.673 904.688C350.096 906.205 349.369 908.036 348.492 910.18L347.834 909.789ZM351.747 898.733C352.11 897.151 352.491 895.178 352.872 892.868L353.599 893.045C353.218 895.374 352.837 897.365 352.456 898.964L351.747 898.733ZM353.789 886.931C354.049 885.153 354.309 883.091 354.568 880.976L355.313 881.101C355.036 883.234 354.776 885.242 354.516 887.091L353.789 886.931ZM355.295 875.004C355.52 873.102 355.746 871.093 355.953 869.014L356.698 869.12C356.473 871.2 356.248 873.209 356.023 875.111L355.295 875.004ZM356.576 863.024C356.784 861.086 356.975 859.06 357.165 857.016L357.909 857.122C357.702 859.167 357.511 861.193 357.321 863.13L356.576 863.024ZM357.736 851.008C357.909 849.035 358.083 847.009 358.256 845L359 845.089C358.827 847.097 358.654 849.124 358.463 851.115L357.736 851.008Z" fill="#5360B8"/>
<path d="M325.717 961L327 958.408L326.302 958L325 960.592L325.717 961Z" fill="#C24646"/>
<path d="M335.924 967C335.924 967 323.855 967.121 322 959.339C322.628 957.422 323.59 955.618 324.847 954C324.847 954 326.886 960.344 338 960.933C337.608 963.036 336.909 965.078 335.924 967Z" fill="#4E5AAD"/>
<path d="M362.972 700.721C362.972 700.721 378.175 695.313 378.863 714.117C379.587 733.119 377.488 735.246 371.334 736.634C365.18 738.022 358.356 735.949 352.962 721.797C347.804 708.329 353.397 701.839 362.972 700.721Z" fill="#EEA886"/>
<path d="M429.402 722.639C428.172 725.657 415.138 745.386 413.497 748.975C411.857 752.564 405.545 761.759 404.992 763.099C404.44 764.438 402.621 779.454 400.945 783.81C399.269 788.167 400.856 818.021 401.533 822.841C402.032 826.053 402.912 829.194 404.154 832.197C386.685 835.851 369.014 838.457 351.234 840C351.234 840 353.017 827.359 352.625 822.538C352.233 817.717 346.456 787.542 343.995 782.828C341.534 778.115 318.908 744.94 318.016 743.547C317.125 742.155 307.496 726.728 307.051 723.139C306.605 719.55 309.244 691.214 309.262 687.429C309.169 686.08 309.169 684.726 309.262 683.376L319.407 684.144C319.407 684.144 320.12 700.213 320.798 704.749C321.475 709.284 325.166 723.746 325.826 726.264C326.486 728.781 342.462 750.814 345.314 750.814C347.097 750.814 352.072 749.029 356.013 747.368C358.455 746.386 360.541 745.476 361.362 745.101C363.537 744.083 375.43 740.869 379.566 741.298C379.566 741.298 380.565 741.441 382.045 741.583C385.468 741.923 391.566 742.315 394.686 741.298C399.162 739.851 401.515 736.263 404.208 733.334C406.9 730.406 415.726 720.193 416.404 718.05C417.081 715.908 417.545 697.017 417.794 691.679C418 687.694 418 683.701 417.794 679.716C417.67 679.037 429.438 678.323 429.224 680.216C429.01 682.108 428.796 697.571 429.224 704.427C429.652 711.283 430.632 719.604 429.402 722.639Z" fill="#F5F5F5"/>
<path d="M355.259 726C355.259 726 354.065 723.118 355.136 722.464C355.308 722.337 355.503 722.246 355.71 722.196C355.918 722.147 356.133 722.14 356.343 722.176C356.553 722.213 356.754 722.291 356.933 722.408C357.112 722.524 357.265 722.676 357.385 722.853L358.843 722.606C358.843 722.606 355.962 717.161 360.6 716.153C365.237 715.145 374.741 714.385 377.218 712.494C377.218 712.494 378.219 716.701 378.307 717.514C378.395 718.328 378.974 717.32 378.974 717.32C378.974 717.32 379.853 704.026 371.35 699.641C362.848 695.257 353.59 700.49 352.027 705.564C350.464 710.637 350.095 715.534 355.259 726Z" fill="#665249"/>
<path d="M354.94 717.667C354.94 717.667 353.269 716.167 353.015 717.667C352.761 719.167 355.866 726 356.647 726C357.428 726 356.937 719.521 354.94 717.667Z" fill="#EEA886"/>
<path d="M377 739.601C366.813 741.64 363 735.194 363 735.194C369.624 740.067 376.517 735.058 376.588 735C376.643 736.541 376.781 738.078 377 739.601Z" fill="#A77860"/>
<path d="M376.286 767.979C363.883 768.76 356 747.381 356 747.381C358.477 746.359 360.592 745.411 361.424 745.02C363.63 743.961 375.545 740.503 379.884 741.06C379.884 741.06 380.897 741.209 382.397 741.358C382.397 741.358 388.707 767.198 376.286 767.979Z" fill="#EEA886"/>
<path d="M292.976 599.255C306.113 590.526 448 602.116 448 602.116L446.715 673.884C446.715 673.884 439.825 674.191 428.954 674.572C390.399 675.912 301.686 678.194 291.69 670.95C278.892 661.732 267.433 642.989 233.268 641.16C199.104 639.331 192 640.399 192 640.399L192.268 626.039C192.268 626.039 199.408 627.379 233.518 626.799C267.629 626.22 279.82 607.984 292.976 599.255Z" fill="url(#paint23_linear_531_5316)"/>
<path d="M176 778.025C176 778.025 158.749 829.308 157.66 835.09C156.448 841.427 142.956 887 142.956 887C142.956 887 114.638 858.754 105.802 851.576C96.9656 844.398 163.808 776.521 176 778.025Z" fill="#FF8447"/>
<path d="M185 976.777C185 976.777 190.787 974.362 193.173 973.318C195.559 972.275 195.915 970.006 196.912 971.488C197.909 972.971 202.877 977.656 205.566 978.26C208.255 978.864 225.651 981.554 225.99 985.581C226.328 989.607 218.226 991.071 206.759 991.675C195.292 992.279 195.025 995.336 187.386 993.322C185.018 992.847 185 976.777 185 976.777Z" fill="#152B3D"/>
<path d="M16.4949 912C16.4949 912 19.3338 917.398 20.5328 919.611C21.7318 921.824 23.9007 921.95 22.5959 923.084C21.291 924.217 17.4647 929.543 17.2002 932.224C16.9357 934.905 16.1775 952.214 12.4393 952.952C8.70117 953.689 6.53233 945.916 4.76905 934.779C3.00576 923.641 0.149243 923.695 1.24248 916.03C1.5775 913.565 16.4949 912 16.4949 912Z" fill="#152B3D"/>
<path d="M209.007 789.921C209.007 789.921 211.686 784.69 212.133 783.901C213.627 782.533 215.387 781.536 217.286 780.983C219.485 780.142 221.832 779.835 224.156 780.083C224.469 780.241 224.748 780.468 224.973 780.75C225.198 781.031 225.365 781.361 225.461 781.717C225.694 782.526 225.73 783.385 225.564 784.213C225.892 784.58 226.127 785.031 226.248 785.522C226.368 786.013 226.369 786.529 226.251 787.021C226.557 787.42 226.744 787.908 226.787 788.422C226.83 788.936 226.727 789.452 226.492 789.902C226.756 790.228 226.926 790.628 226.981 791.055C227.036 791.482 226.973 791.917 226.801 792.306C225.806 792.825 224.857 793.439 223.967 794.142C220.799 795.882 217.425 797.154 213.936 797.922C213.936 797.922 208.784 799.354 209.007 789.921Z" fill="#EEA886"/>
<path d="M216.873 789C216.771 790.253 216.488 791.487 216.031 792.669C215.496 793.453 222 796 222 796C222 796 220.642 789.445 216.873 789Z" fill="#CF8C6C"/>
<path d="M115.658 825.153C110.902 828.717 104.543 842.721 100.09 853.661C100.09 853.857 89.4024 875.274 85.3947 881.296C79.3384 890.312 71.8216 889.51 58.8542 894.445C48.3092 898.436 15 910.481 15 910.481L22.8018 926C22.8018 926 73.2288 914.436 89.3668 907.737C97.5605 904.352 124.6 881.545 124.6 881.545C127.966 878.784 131.012 876.093 133.613 873.706C135.679 871.799 137.443 870.142 138.957 868.681C141.539 866.133 143 864.548 143 864.548C143 864.548 119.63 822.142 115.658 825.153Z" fill="#323657"/>
<path d="M157.008 758L171.24 794.328C171.24 794.328 171.951 799.361 182.359 795.958C192.766 792.554 210.058 787.915 210.058 787.915C210.058 787.915 216.089 800.669 214.826 801.403C211.268 803.535 181.843 814.552 169.621 817.901C159.907 820.57 140 768.157 140 768.157L157.008 758Z" fill="#FF8447"/>
<path d="M181.934 900.51C182.149 894.429 175.311 877.301 170.16 866.898C162.065 850.272 153.845 833 153.845 833C153.845 833 106.928 833 107 837.986C107.162 847.51 129.256 870.736 132.899 874.933L135.304 874.808C135.304 874.808 143.991 883.148 147.527 889.569C152.483 898.37 156.226 907.8 158.655 917.602C161.688 928.525 182.544 980 182.544 980L202 973.31C202 973.31 181.665 909.944 181.934 900.51Z" fill="#323657"/>
<path d="M105 834.716C105 834.716 136.678 800.814 133.945 778.796C133.727 777.056 133.615 775.304 133.607 773.551C133.609 771.335 133.775 769.122 134.104 766.931C134.967 760.998 137.152 755.338 140.495 750.373C143.839 745.408 148.254 741.266 153.413 738.257C153.413 738.257 153.413 735.456 166.652 748.339C171.751 756.882 174.88 766.467 175.809 776.388C177.051 793.874 172.064 797.389 165.924 810.682C161.434 820.406 154.992 828.863 153.608 832.753C153.626 832.825 150.076 838.463 105 834.716Z" fill="#443C7D"/>
<path d="M168 737.549C168 737.549 167.837 738.256 167.603 739.317C167.44 740.113 167.223 741.086 167.006 742.235C166.401 744.967 166.068 747.75 166.013 750.545C166.32 753.728 154 739.158 154 739.158C155.495 732.02 156.473 724.788 156.926 717.516C157.595 706.04 168 737.549 168 737.549Z" fill="#EEA886"/>
<path d="M168 739.043L167.333 742C163.538 739.699 160.07 737.013 157 734C158.961 736.308 168 739.043 168 739.043Z" fill="#A77860"/>
<path d="M162.936 790.767C162.839 791.073 162.721 791.372 162.581 791.661C162.137 792.68 160.984 793.985 159.883 795.897C150.459 812.217 140.36 834.543 136.366 850.147C131.805 868.022 129.391 882 129.391 882L94 849.468C94 849.468 106.282 822.96 119.168 807.158C133.367 789.659 129.391 749.852 129.391 749.852L149.749 740.343L152.784 737L163.912 745.401L170 749.369C170 749.369 167.036 777.468 162.936 790.767Z" fill="#FF8447"/>
<path d="M303.173 758.888L302.785 752.547L-70.444 775.375L-70.0562 781.716L303.173 758.888Z" fill="#DEDEDE"/>
<path d="M306.889 819.81L306.501 813.469L-66.7282 836.296L-66.3403 842.637L306.889 819.81Z" fill="#DEDEDE"/>
<path d="M273.107 755.367L266.231 755.789L270.168 819.964L277.043 819.543L273.107 755.367Z" fill="#DEDEDE"/>
<path d="M222.863 758.408L215.987 758.828L219.912 823.004L226.788 822.584L222.863 758.408Z" fill="#DEDEDE"/>
<path d="M172.522 761.504L165.646 761.922L169.548 826.081L176.424 825.663L172.522 761.504Z" fill="#DEDEDE"/>
<path d="M122.244 764.579L115.368 765L119.293 829.176L126.169 828.756L122.244 764.579Z" fill="#DEDEDE"/>
<path d="M71.9535 767.642L65.0781 768.062L69.0033 832.239L75.8787 831.818L71.9535 767.642Z" fill="#DEDEDE"/>
<path d="M21.6429 770.712L14.7676 771.133L18.6917 835.291L25.567 834.87L21.6429 770.712Z" fill="#DEDEDE"/>
<path d="M117.424 835.864C116.896 835.388 116.442 834.825 116.082 834.196C116.082 834.196 115.663 832.918 115.332 832.028C115.21 831.75 115.123 831.509 115.036 831.343C114.293 830.214 113.733 828.962 113.38 827.637C113.079 824.405 112.956 821.156 113.014 817.909L117.076 816.705L120.736 815C120.736 815 128.075 822.764 128.633 824.265C128.687 824.41 128.734 824.558 128.773 824.709C128.938 825.805 128.996 826.917 128.947 828.026C128.947 828.304 129.191 831.065 128.633 831.639C128.34 831.98 127.971 832.237 127.559 832.386C127.148 832.535 126.708 832.572 126.28 832.491C125.439 833.302 124.4 833.842 123.281 834.048C122.852 834.459 122.34 834.76 121.783 834.927C121.227 835.094 120.642 835.123 120.074 835.011C120.074 835.011 118.47 836.438 117.424 835.864Z" fill="#EEA886"/>
<path d="M151.81 761.907C151.81 761.907 159.898 761.384 155.881 748.966C150.46 732.203 134.338 749.182 100.301 763.295C100.301 763.295 90.7562 767.206 93.4934 777.552C96.2306 787.898 108.299 820.702 109.099 824L122.732 816.394C122.732 816.394 116.529 800.172 114.858 791.575C113.187 782.977 112.032 775.119 112.032 775.119L151.81 761.907Z" fill="#FF8447"/>
<path d="M223.683 780.146C223.683 780.146 217.786 782.924 218.052 784.094C218.098 784.403 218.212 784.694 218.382 784.937C218.553 785.18 218.774 785.368 219.025 785.483L217.049 787.914C217.049 787.914 216.515 790.381 218.978 790.345C218.978 790.345 218.272 792.593 220.64 792.172C220.64 792.172 220.75 793.89 221.863 794C223.541 793.621 225.173 793.007 226.725 792.172C226.725 792.172 227.446 791.295 226.552 789.741C226.772 789.294 226.868 788.78 226.829 788.267C226.79 787.754 226.616 787.267 226.333 786.872C226.472 786.394 226.493 785.88 226.393 785.388C226.294 784.897 226.077 784.448 225.768 784.094C225.768 784.094 226.427 781.042 224.31 780L223.683 780.146Z" fill="#DB9C7C"/>
<path d="M212.836 784C215.608 784.219 218.33 784.9 220.9 786.02C221.531 786.384 222.085 786.869 221.989 787.616C221.894 788.364 220.766 789.192 218.454 789.111C216.653 789.144 214.864 789.443 213.142 790C213.142 790 210.791 789.232 212.836 784Z" fill="#EEA886"/>
<path d="M179.883 711.594C179.883 711.594 183.605 718.561 181.744 719.642C180.217 720.547 183.5 727.39 183.956 728.507C184.412 729.624 181.182 730.439 180.445 731.148C179.708 731.858 177.742 740.722 175.179 740.988C172.616 741.254 160.678 737.052 157.466 733.648C154.253 730.244 151.638 714.927 153.779 708.438C155.921 701.949 173.353 699.378 179.883 711.594Z" fill="#EEA886"/>
<path d="M180.88 713.02C180.88 713.02 182.311 707.87 175.284 702.216C168.258 696.562 157.566 703.387 156.225 704.431C154.884 705.475 147.894 711.327 150.629 720.042C155.17 734.591 155.117 733.997 155.117 733.997C155.117 733.997 157.101 725.21 159.729 724.598C162.358 723.985 166.506 723.463 166.506 723.463C166.506 723.463 164.038 716.819 167.918 715.901C171.798 714.982 176.965 711.543 180.88 713.02Z" fill="#202338"/>
<path d="M165.728 724.026C165.522 723.205 164.6 719.503 161.761 720.056C158.922 720.61 159.881 725.133 162.062 727.785C164.243 730.438 166.857 728.549 165.728 724.026Z" fill="#EEA886"/>
<path d="M156 705C156 705 146.633 706.859 148.17 713.686C149.708 720.513 153.855 728.314 154.445 729.929C155.035 731.545 156 705 156 705Z" fill="#202338"/>
<path d="M856.531 806.287C856.531 806.287 852.782 807.166 851.448 805.313C850.191 803.964 848.671 802.921 846.996 802.257C845.95 801.779 843.264 799.048 842.687 800.347C842.111 801.646 846.906 805.065 847.789 805.962C848.672 806.86 843.192 807.452 842.273 808.388C841.354 809.324 842.76 818.855 846.455 817.938C850.15 817.021 853.665 813.583 854.278 813.564C855.195 813.462 856.104 813.296 857 813.067L856.531 806.287Z" fill="#EEA886"/>
<path d="M844.015 808C844.015 808 833.38 811.031 832.848 811.81C832.316 812.589 832.505 813.165 833.517 812.928L843.809 810.303C843.809 810.303 831.801 815.959 831.235 816.501C830.669 817.043 831.235 817.941 831.767 817.856C832.299 817.771 844.53 812.776 844.53 812.776C844.53 812.776 833.345 818.093 832.985 818.703C832.918 818.857 832.898 819.028 832.93 819.194C832.961 819.36 833.042 819.512 833.162 819.632C833.281 819.752 833.435 819.834 833.602 819.868C833.769 819.901 833.942 819.885 834.1 819.82C834.958 819.499 845.611 815.147 845.611 815.147C845.611 815.147 837.72 819.516 837.737 820.227C837.737 820.65 837.977 821.616 839.967 820.43C841.957 819.245 847 816.925 847 816.925L844.015 808Z" fill="#EEA886"/>
<path d="M876.671 976C876.671 976 872.734 983.312 870.412 984.782C867.49 986.667 861.847 992.547 859.87 992.811C857.892 993.075 850.797 994.394 852.176 998.465C853.301 1001.88 870.212 1001.39 872.135 999.671C874.059 997.956 879.756 991.831 882.06 991.982C884.365 992.133 883.494 1000.82 883.494 1000.82H885.998C885.998 1000.82 886.869 992.34 886.977 990.889C887.286 986.573 884.328 983.35 884.201 980.957C884.074 978.563 883.929 976.66 883.929 976.66L876.671 976Z" fill="#16202E"/>
<path d="M860 992.295C860 992.295 865.52 994.195 869.749 991.757C873.978 989.319 882.115 985.626 885 985.59C885 985.59 883.423 980.804 883.387 980.213C883.351 979.621 883.19 977.147 883.19 977.147L876.021 976C874.057 978.977 871.838 981.777 869.391 984.372C866.123 986.845 862.988 989.49 860 992.295Z" fill="#EEA886"/>
<path d="M943.57 982.779C943.31 984.908 942.842 987.004 942.175 989.032C941.442 990.371 939.436 997.211 938.529 998.476C937.621 999.741 935.598 1009.35 938.529 1010.49C941.459 1011.62 948.298 1013.57 950.618 1009.74C952.54 1006.59 953.338 1002.83 952.869 999.118C952.503 996.184 949.729 982.706 949.764 981.367C949.799 980.029 943.57 982.779 943.57 982.779Z" fill="#EEA886"/>
<path d="M939.547 996C939.547 996 939.234 1003.56 944.561 1003.56C949.887 1003.56 952.229 996.67 952.229 996.67C952.229 996.67 953.964 1000.06 952.229 1007.25C950.494 1014.43 942.86 1012.96 941.178 1012.7C939.495 1012.44 931.462 1010.17 939.547 996Z" fill="#16202E"/>
<path d="M934.019 818.132C934.019 818.132 941.018 827.047 943.398 833.092C945.777 839.137 949.924 852.1 949.382 862.21C948.839 872.32 945.567 891.31 946.53 895.607C947.492 899.904 948.419 908.766 949.452 911.815C950.484 914.864 954.543 923.726 954.963 932.856C955.383 941.985 952.059 982.105 952.321 985.849C952.584 989.594 940.441 987.311 940.441 987.311C940.441 987.311 940.143 951.15 938.691 944.909C937.238 938.669 935.699 917.485 934.474 915.97C933.249 914.454 929.82 898.371 929.592 895.75C929.365 893.128 914.842 849.282 914.02 841.793C913.197 834.304 895 818.132 895 818.132C907.684 813.956 921.335 813.956 934.019 818.132Z" fill="#323657"/>
<path d="M888.456 978.889C891.087 978.479 898.175 937.86 897.405 930.725C896.636 923.59 895.741 908.141 898.104 901.898C899.661 897.795 909.343 876.924 915.876 862.296C916.789 860.245 917.666 858.3 918.4 856.534C919.784 853.684 920.944 850.732 921.872 847.704C922.015 844.939 931.089 797.185 895.276 818.431C895.115 820.163 894.852 821.885 894.488 823.586C894.076 824.978 884.483 860.316 883.499 873.891C882.699 883.288 881.403 892.637 879.615 901.898C879.382 906.961 879.803 912.033 880.868 916.989C881.691 919.487 875.498 975.857 875.015 977.195C874.532 978.533 885.808 979.3 888.456 978.889Z" fill="#323657"/>
<path d="M897.85 747C896.143 747.508 894.56 748.373 893.202 749.54C891.844 750.706 890.74 752.148 889.963 753.772C887.769 759.077 888.222 766.15 888.1 768.626C887.978 771.102 882.877 794.903 882.389 795.592C881.902 796.282 872.726 798.086 867.312 799.536C859.703 801.569 853 803.868 853 803.868L856.047 814C856.047 814 890.868 806.626 892.609 803.125C896.684 795.415 904.083 770.111 904.083 770.111C904.083 770.111 911.256 750.148 897.85 747Z" fill="#BA3838"/>
<path d="M908.223 742.32C905.217 743.771 902.113 745.008 898.932 746.025C896.55 746.495 887.277 758.475 885.641 762.848C884.004 767.221 885.641 773.69 888.986 781.46C892.332 789.23 889.168 791.742 890.695 799.53C892.308 808.868 893.171 818.318 893.277 827.792C892.986 832.075 931.951 832.888 940.842 825.099C940.842 825.099 931.915 811.8 930.769 809.884C929.624 807.969 930.588 797.633 931.624 794.977C932.66 792.32 943.697 770.907 943.697 770.907C943.697 770.907 945.515 752.313 940.242 748.32C935.751 744.85 923.515 743.603 921.315 742.899C917.019 741.944 912.587 741.748 908.223 742.32Z" fill="#EDDAD3"/>
<path d="M905.841 758L903 753.329L905.471 741C906.016 746.633 906.141 752.331 905.841 758Z" fill="#D6C5BE"/>
<path d="M905 735.14C905.667 740.538 906.039 745.965 906.113 751.398C906.113 751.398 913.547 758.353 922 743.278C919.786 738.65 919.47 733.422 921.113 728.591C923.792 720.118 905 735.14 905 735.14Z" fill="#EEA886"/>
<path d="M906 751V758L915 751.428L906 751Z" fill="#EEA886"/>
<path d="M906 758L909.478 753.685L921.207 742L925 745.667L906 758Z" fill="#D6C5BE"/>
<path d="M919.55 833.596C922.676 848.99 945.331 831.794 945.331 831.794C945.331 831.794 930.649 806.468 936.55 786.225C936.605 786.066 936.652 785.903 936.69 785.739C937.077 784.459 937.445 783.233 937.814 782.133C943.188 765.388 948 761.476 948 761.476C948 761.476 941.186 746.118 934.881 745.109C928.577 744.1 922.816 743 922.816 743C922.816 743 913.474 757.529 913.035 763.928C912.596 770.327 916.424 818.221 919.55 833.596Z" fill="#BA3838"/>
<path d="M885.027 765.78C885.027 765.78 884.282 774.469 890.618 785.852C890.618 785.852 890.488 801.118 890.301 806.437C890.115 811.756 888.773 831.845 888.773 831.845L895.65 835.675C895.953 835.879 896.313 835.992 896.684 836C897.054 836.007 897.419 835.91 897.731 835.72C898.044 835.529 898.289 835.255 898.436 834.931C898.583 834.607 898.626 834.249 898.558 833.902C896.694 818.6 890.283 760.585 904 745L898.409 746.525C898.409 746.525 885.027 759.717 885.027 765.78Z" fill="#BA3838"/>
<path d="M902.319 753.582L897 755L906 741L902.319 753.582Z" fill="#FAE6DE"/>
<path d="M910 752.957L914.597 759L924 743.337L920.999 742L910 752.957Z" fill="#FAE6DE"/>
<path d="M910.169 695.086C905.782 694.647 901.393 695.899 897.936 698.576C894.478 701.252 892.223 705.143 891.652 709.421C891.805 711.542 892.129 713.647 892.623 715.718C893.36 718.497 890.447 726.464 891.095 726.904C892.161 727.358 893.268 727.711 894.402 727.959C894.402 727.959 896.883 736.93 900.065 737C904.424 736.818 908.668 735.578 912.415 733.392C916.162 731.206 919.295 728.142 921.53 724.477C927.714 713.748 930.285 696.986 910.169 695.086Z" fill="#EEA886"/>
<path d="M892.029 709.913C892.029 709.913 899.747 715.884 907.589 717.391C915.43 718.897 919.704 733 919.704 733C919.704 733 932.88 712.563 923.819 699.585C914.759 686.607 891.058 694.267 892.029 709.913Z" fill="#344052"/>
<path d="M911.275 716.328C911.271 715.847 911.414 715.377 911.682 714.984C911.95 714.59 912.331 714.292 912.772 714.132C913.213 713.972 913.691 713.957 914.141 714.09C914.59 714.222 914.988 714.496 915.279 714.872C917.493 716.964 914.075 723.709 912.203 722.939C910.331 722.169 911.177 717.818 911.275 716.328Z" fill="#EEA886"/>
<path d="M905 736.571C905.184 737.578 905.368 738.77 905.534 740C909.571 737.721 913.127 734.663 916 731C912.637 733.415 908.927 735.294 905 736.571Z" fill="#A77860"/>
<path d="M932 766C932.593 772.87 934.218 779.612 936.818 786C937.225 784.692 937.612 783.44 938 782.317C935.489 775.245 932 766 932 766Z" fill="#912B2B"/>
<path opacity="0.16" d="M791.166 798.194C775.35 776.619 783.204 744.078 808.717 725.498C834.23 706.918 867.759 709.343 883.557 730.847C887.616 736.413 890.251 742.883 891.232 749.694C891.232 749.694 897.28 787.46 914.384 814.955C923.329 827.134 918.874 845.517 904.472 855.966C890.069 866.415 871.14 865.078 862.212 852.917C841.118 828.311 806.874 811.104 806.874 811.104C800.659 808.143 795.266 803.711 791.166 798.194Z" fill="#285173"/>
<path d="M900.123 827.255L901.977 826.219L866.077 762.037L864.224 763.073L900.123 827.255Z" fill="#D88A51"/>
<path d="M827.708 789.886L826.156 791.336L876.367 845.067L877.918 843.617L827.708 789.886Z" fill="#D88A51"/>
<path d="M839.905 795L841.665 783.651L852.754 785.384L854.442 774.437L865.167 776.097L867 764.219L865.548 764L863.933 774.4L853.208 772.74L851.52 783.687L840.431 781.954L838.671 793.285L828.218 791.661L828 793.121L839.905 795Z" fill="#D88A51"/>
<path d="M893.938 885.493L935.288 855.273L922.474 837.739L881.124 867.959L893.938 885.493Z" fill="url(#paint24_linear_531_5316)"/>
<path d="M879.225 881.396L934.051 841.461L913.425 813.144L858.599 853.08L879.225 881.396Z" fill="url(#paint25_linear_531_5316)"/>
<path d="M925.513 821.621C924.875 822.033 924.135 822.249 923.38 822.244C921.591 822.069 919.725 820.024 917.669 821.582C915.613 823.14 918.83 830.736 920.182 831.69C921.534 832.645 924.941 831.418 928.844 827.659C932.747 823.9 925.513 821.621 925.513 821.621Z" fill="#EEA886"/>
<path d="M918.397 821C915.947 821.64 913.53 822.419 911.155 823.333C907.841 824.604 904.247 826.728 904.229 827.506C904.211 828.284 907.736 826.728 911.067 825.609C914.153 824.642 913.697 825.363 913.697 825.363C913.697 825.363 913.82 825.154 910.646 826.861C907.473 828.568 903.931 830.958 904.001 831.868C904.001 832.324 904.282 832.475 905.614 832.001C904.895 832.438 904.913 832.703 905.071 833.025C905.825 834.695 911.243 832.779 913.399 832.001C911.751 832.608 910.594 833.215 911.646 833.898C912.698 834.581 920.413 831.641 923.271 830.806C926.41 829.991 918.397 821 918.397 821Z" fill="#EEA886"/>
<path d="M931.948 745.038C934.782 744.827 937.612 745.498 940.071 746.964C942.53 748.431 944.505 750.625 945.739 753.262C948.796 758.788 950.626 764.944 951.095 771.286C951.704 775.622 954.4 787.411 954.678 788.701C954.956 789.991 961.078 804.503 958.261 809.609C955.443 814.716 926.748 829.819 926.956 830.93C927.165 832.041 922 819.535 922 819.535C922 819.535 933.6 812.87 935.513 810.81C938.591 807.477 945.113 803.894 943.774 799.755C942.208 794.9 937.478 778.506 936.382 776.105C935.287 773.705 924.956 748.102 931.948 745.038Z" fill="#BA3838"/>
<path d="M918.256 714.147C915.654 719.639 917.223 725.608 921.775 727.451C926.328 729.293 932.143 726.352 934.744 720.861C937.346 715.37 935.777 709.418 931.225 707.558C926.672 705.698 920.876 708.638 918.256 714.147Z" fill="#344052"/>
<path d="M885.18 567C884.091 564.932 882.985 562.881 881.879 560.867L883.663 559.904C884.787 561.937 885.894 563.987 887 566.055L885.18 567ZM877.935 553.896C876.579 551.518 875.217 549.219 873.849 546.996L875.633 545.962C877.025 548.244 878.381 550.544 879.737 552.897L877.935 553.896ZM869.619 540.203C868.168 537.921 866.711 535.686 865.247 533.499L866.925 532.376C868.4 534.587 869.863 536.833 871.315 539.115L869.619 540.203ZM860.697 526.903C859.151 524.692 857.586 522.529 856.004 520.413L857.628 519.218C859.198 521.34 860.786 523.515 862.339 525.744L860.697 526.903ZM209.568 517.186V515.189C212.173 515.189 214.921 515.1 217.58 515.011V517.008C214.885 517.115 212.209 517.168 209.585 517.186H209.568ZM201.484 517.186C198.772 517.186 196.131 516.99 193.436 516.829L193.561 514.815C196.149 514.993 198.914 515.1 201.538 515.171L201.484 517.186ZM225.681 516.651L225.556 514.654C228.162 514.494 230.91 514.28 233.551 514.048L233.729 516.045C230.999 516.241 228.322 516.437 225.699 516.597L225.681 516.651ZM185.388 516.17C182.676 515.884 180.035 515.546 177.376 515.153L177.679 513.156C180.249 513.549 182.908 513.887 185.602 514.173L185.388 516.17ZM241.741 515.242L241.527 513.246C244.132 512.96 246.773 512.639 249.486 512.283L249.736 514.28C247.041 514.583 244.382 514.904 241.759 515.189L241.741 515.242ZM851.15 514.101C849.497 511.986 847.819 509.912 846.118 507.879L847.671 506.595C849.372 508.652 851.061 510.744 852.738 512.871L851.15 514.101ZM169.489 513.745C166.812 513.192 164.135 512.568 161.619 511.962L162.155 510.019C164.653 510.696 167.258 511.302 169.899 511.801L169.489 513.745ZM257.801 513.156L257.498 511.16C260.085 510.767 262.726 510.357 265.421 509.894L265.742 511.873C262.994 512.283 260.353 512.711 257.748 513.103L257.801 513.156ZM273.683 510.482L273.308 508.503C275.896 508.022 278.519 507.522 281.196 506.988L281.588 508.949C278.804 509.43 276.217 509.947 273.63 510.429L273.683 510.482ZM153.893 509.484C151.287 508.574 148.753 507.594 146.327 506.56L147.13 504.777C149.503 505.811 151.983 506.774 154.535 507.647L153.893 509.484ZM289.511 507.255L289.083 505.294C291.652 504.741 294.276 504.171 296.917 503.511L297.363 505.472C294.615 506.132 291.992 506.631 289.511 507.255ZM305.196 503.689L304.733 501.746L312.531 499.838L313.012 501.782C310.318 502.423 307.713 503.065 305.107 503.671L305.196 503.689ZM139.064 503.03C136.682 501.745 134.371 500.335 132.14 498.804L133.264 497.146C135.406 498.608 137.672 499.981 140.027 501.265L139.064 503.03ZM840.907 501.728C839.123 499.713 837.339 497.734 835.554 495.809L837.035 494.436C838.855 496.385 840.64 498.376 842.389 500.409L840.907 501.728ZM320.686 499.785L320.186 497.841L327.966 495.809L328.484 497.752C325.914 498.448 323.416 499.125 320.721 499.785H320.686ZM336.246 495.666L335.711 493.723L343.473 491.601L344.008 493.527C341.457 494.258 338.869 494.953 336.282 495.666H336.246ZM125.538 493.883C123.479 492.108 121.524 490.215 119.685 488.214L121.166 486.859C122.952 488.801 124.853 490.634 126.858 492.35L125.538 493.883ZM351.753 491.369L351.2 489.444L358.926 487.233L359.48 489.159L351.753 491.369ZM829.987 490.05C828.077 488.142 826.186 486.288 824.259 484.47L825.633 483.008C827.572 484.85 829.499 486.728 831.414 488.642L829.987 490.05ZM367.188 486.912L366.617 484.987L374.308 482.722L374.879 484.648L367.188 486.912ZM382.57 482.348L381.982 480.422L389.673 478.122L390.244 480.048L382.57 482.348ZM114.635 481.849C113.058 479.636 111.633 477.318 110.37 474.913L112.154 473.968C113.393 476.298 114.776 478.549 116.294 480.708L114.635 481.849ZM818.423 479.05C816.425 477.267 814.373 475.484 812.356 473.861L813.623 472.31C815.675 474.004 817.745 475.751 819.762 477.552L818.423 479.05ZM398.006 477.695L397.417 475.787L405.09 473.451L405.679 475.359L398.006 477.695ZM413.37 473.023L412.781 471.098L420.454 468.762L421.043 470.688L413.37 473.023ZM806.093 468.869C803.987 467.247 801.828 465.642 799.669 464.109L800.846 462.469C803.024 464.02 805.201 465.642 807.324 467.282L806.093 468.869ZM428.699 468.334L428.11 466.427L435.801 464.091L436.39 465.999L428.699 468.334ZM107.015 467.407C106.06 464.858 105.273 462.25 104.66 459.598L106.605 459.135C107.211 461.704 107.974 464.235 108.889 466.712L107.015 467.407ZM444.098 463.628L443.51 461.702L451.218 459.384L451.789 461.31L444.098 463.628ZM793.066 459.527C790.854 458.065 788.587 456.621 786.321 455.248L787.374 453.465C789.658 454.856 791.942 456.318 794.173 457.797L793.066 459.527ZM459.498 459.028L458.927 457.102L466.654 454.82L467.225 456.746L459.498 459.028ZM474.952 454.499L474.398 452.574L482.143 450.345L482.696 452.288L474.952 454.499ZM103.286 451.539C103.089 449.596 103 447.688 103 445.906C103 444.123 103.089 443.302 103.089 443.302L105.088 443.499C105.088 443.499 104.999 444.39 104.999 445.906C104.999 447.421 105.106 449.471 105.284 451.343L103.286 451.539ZM779.415 451.219C777.095 449.917 774.722 448.651 772.367 447.439L773.277 445.656C775.668 446.868 778.059 448.152 780.414 449.453L779.415 451.219ZM490.441 450.095L489.905 448.17L497.668 446.012L498.203 447.956L490.441 450.095ZM505.983 445.852L505.466 443.926L513.264 441.858L513.764 443.802L505.983 445.852ZM765.193 443.926C762.784 442.821 760.321 441.716 757.877 440.699L758.662 438.917C761.125 439.951 763.605 441.056 766.032 442.179L765.193 443.926ZM521.579 441.805L521.08 439.861C523.685 439.196 526.29 438.554 528.896 437.936L529.377 439.879C526.844 440.557 524.185 441.216 521.579 441.858V441.805ZM537.176 438.007L536.729 436.046L544.563 434.263L545.009 436.224L537.176 438.007ZM750.454 437.722C747.973 436.795 745.457 435.939 742.923 435.03L743.583 433.14C746.117 433.996 748.669 434.923 751.167 435.85L750.454 437.722ZM552.843 434.477L552.433 432.516L560.302 430.876L560.712 432.837L552.843 434.477ZM735.321 432.605C732.787 431.856 730.2 431.125 727.613 430.448L728.13 428.504C730.735 429.2 733.341 429.931 735.892 430.68L735.321 432.605ZM568.582 431.286L568.207 429.307C570.848 428.808 573.561 428.308 576.13 427.845L576.469 429.824C573.846 430.341 571.223 430.84 568.582 431.339V431.286ZM719.85 428.558C717.245 427.97 714.639 427.417 712.016 426.918L712.391 424.939C715.032 425.456 717.744 426.008 720.296 426.597L719.85 428.558ZM584.392 428.451L584.053 426.472C586.712 426.044 589.406 425.616 592.012 425.224L592.315 427.203C589.674 427.649 587.033 428.077 584.392 428.504V428.451ZM600.256 426.062L599.988 424.065L607.965 423.049L608.215 425.046C605.556 425.402 602.915 425.741 600.256 426.115V426.062ZM704.111 425.527C701.488 425.099 698.758 424.725 696.188 424.368L696.438 422.389C699.115 422.728 701.791 423.12 704.432 423.548L704.111 425.527ZM616.173 424.154L615.977 422.157C618.654 421.872 621.33 421.622 623.989 421.391L624.168 423.387C621.509 423.673 618.85 423.922 616.173 424.208V424.154ZM688.212 423.459C685.553 423.191 682.858 422.96 680.217 422.763L680.36 420.767C683.055 420.963 685.713 421.195 688.408 421.462L688.212 423.459ZM632.126 422.835L632.001 420.838C634.678 420.66 637.355 420.517 640.049 420.392L640.139 422.389C637.48 422.514 634.839 422.657 632.126 422.835ZM672.187 422.353C669.529 422.229 666.834 422.139 664.175 422.068V420.071C666.87 420.071 669.528 420.214 672.241 420.339L672.187 422.353ZM648.186 422.104V420.107C650.881 420.107 653.54 420 656.252 420V421.997L648.186 422.104Z" fill="white"/>
<path d="M926 655L868 589L893.177 595.928L926 655Z" fill="#F5F5F5"/>
<path d="M926 655L916.132 610.955L898 604L926 655Z" fill="white"/>
<path d="M881.478 604L877 612.766L926 655L881.478 604Z" fill="#E8E8E8"/>
<path d="M91.5503 102.11H78.916V94.8325H91.5503C93.6167 94.8325 95.29 94.4956 96.5703 93.8218C97.873 93.1255 98.8276 92.1821 99.4341 90.9917C100.041 89.7788 100.344 88.3975 100.344 86.8477C100.344 85.3428 100.041 83.939 99.4341 82.6362C98.8276 81.3335 97.873 80.2778 96.5703 79.4692C95.29 78.6606 93.6167 78.2563 91.5503 78.2563H81.9482V120H72.6831V70.9453H91.5503C95.3687 70.9453 98.6255 71.6304 101.321 73.0005C104.039 74.3481 106.105 76.2236 107.52 78.627C108.958 81.0078 109.676 83.7256 109.676 86.7803C109.676 89.9473 108.958 92.6763 107.52 94.9673C106.105 97.2583 104.039 99.0215 101.321 100.257C98.6255 101.492 95.3687 102.11 91.5503 102.11ZM125.713 68.25V120H116.785V68.25H125.713ZM154.284 112.251V95.439C154.284 94.2036 154.07 93.1367 153.644 92.2383C153.217 91.3398 152.565 90.6436 151.689 90.1494C150.813 89.6553 149.702 89.4082 148.354 89.4082C147.164 89.4082 146.119 89.6104 145.221 90.0146C144.345 90.4189 143.671 90.9917 143.199 91.7329C142.728 92.4517 142.492 93.2827 142.492 94.2261H133.563C133.563 92.7212 133.923 91.2949 134.642 89.9473C135.36 88.5771 136.382 87.3643 137.708 86.3086C139.055 85.2305 140.661 84.3882 142.525 83.7817C144.412 83.1753 146.523 82.8721 148.859 82.8721C151.622 82.8721 154.082 83.3438 156.238 84.2871C158.417 85.208 160.124 86.6006 161.359 88.4648C162.617 90.3291 163.246 92.6763 163.246 95.5063V111.409C163.246 113.228 163.358 114.789 163.583 116.092C163.83 117.372 164.189 118.484 164.661 119.427V120H155.598C155.171 119.079 154.845 117.911 154.621 116.496C154.396 115.059 154.284 113.644 154.284 112.251ZM155.53 97.7974L155.598 103.087H149.971C148.579 103.087 147.354 103.233 146.299 103.525C145.243 103.794 144.378 104.199 143.705 104.738C143.031 105.254 142.525 105.883 142.188 106.625C141.852 107.343 141.683 108.163 141.683 109.084C141.683 109.982 141.885 110.791 142.29 111.51C142.716 112.229 143.323 112.801 144.109 113.228C144.917 113.632 145.861 113.834 146.939 113.834C148.511 113.834 149.881 113.52 151.049 112.891C152.217 112.24 153.127 111.454 153.778 110.533C154.43 109.612 154.778 108.736 154.823 107.905L157.383 111.746C157.069 112.667 156.597 113.644 155.968 114.677C155.339 115.71 154.531 116.676 153.542 117.574C152.554 118.473 151.364 119.214 149.971 119.798C148.579 120.382 146.961 120.674 145.12 120.674C142.761 120.674 140.65 120.202 138.786 119.259C136.921 118.315 135.45 117.024 134.372 115.384C133.294 113.745 132.755 111.88 132.755 109.792C132.755 107.86 133.114 106.153 133.833 104.67C134.552 103.188 135.619 101.941 137.034 100.931C138.449 99.8975 140.201 99.1226 142.29 98.606C144.401 98.0669 146.815 97.7974 149.533 97.7974H155.53ZM191.311 110.027C191.311 109.264 191.108 108.579 190.704 107.972C190.3 107.366 189.536 106.815 188.413 106.321C187.312 105.805 185.695 105.322 183.562 104.873C181.675 104.468 179.934 103.963 178.339 103.356C176.745 102.75 175.375 102.02 174.229 101.167C173.083 100.291 172.185 99.2686 171.534 98.1006C170.905 96.9102 170.59 95.54 170.59 93.9902C170.59 92.4854 170.916 91.0703 171.567 89.7451C172.219 88.3975 173.162 87.2183 174.397 86.2075C175.633 85.1743 177.138 84.3657 178.912 83.7817C180.687 83.1753 182.686 82.8721 184.909 82.8721C188.009 82.8721 190.67 83.3774 192.894 84.3882C195.14 85.3989 196.858 86.7915 198.049 88.5659C199.239 90.3179 199.834 92.2944 199.834 94.4956H190.94C190.94 93.5298 190.715 92.6538 190.266 91.8677C189.839 91.0815 189.177 90.4526 188.278 89.981C187.38 89.4868 186.246 89.2397 184.875 89.2397C183.64 89.2397 182.596 89.4419 181.742 89.8462C180.911 90.2505 180.282 90.7783 179.855 91.4297C179.429 92.0811 179.215 92.7998 179.215 93.5859C179.215 94.1699 179.328 94.6978 179.552 95.1694C179.799 95.6187 180.192 96.0342 180.731 96.416C181.271 96.7979 182 97.146 182.921 97.4604C183.865 97.7749 185.021 98.0781 186.392 98.3701C189.109 98.9092 191.479 99.6279 193.5 100.526C195.544 101.402 197.139 102.57 198.285 104.03C199.43 105.49 200.003 107.354 200.003 109.623C200.003 111.24 199.655 112.723 198.958 114.07C198.262 115.396 197.251 116.552 195.926 117.541C194.601 118.529 193.018 119.304 191.176 119.865C189.334 120.404 187.256 120.674 184.943 120.674C181.596 120.674 178.766 120.079 176.453 118.888C174.139 117.675 172.387 116.148 171.197 114.306C170.006 112.442 169.411 110.51 169.411 108.511H177.935C178.002 109.926 178.384 111.061 179.081 111.914C179.777 112.768 180.653 113.385 181.708 113.767C182.787 114.126 183.921 114.306 185.111 114.306C186.459 114.306 187.593 114.126 188.514 113.767C189.435 113.385 190.131 112.88 190.603 112.251C191.075 111.6 191.311 110.858 191.311 110.027ZM224.025 83.5459V89.9473H203.136V83.5459H224.025ZM208.729 74.584H217.657V109.488C217.657 110.566 217.803 111.397 218.095 111.981C218.387 112.565 218.825 112.958 219.409 113.161C219.993 113.363 220.689 113.464 221.498 113.464C222.082 113.464 222.621 113.43 223.115 113.363C223.609 113.295 224.025 113.228 224.362 113.161L224.396 119.832C223.654 120.079 222.812 120.281 221.869 120.438C220.948 120.595 219.903 120.674 218.735 120.674C216.736 120.674 214.984 120.337 213.479 119.663C211.975 118.967 210.807 117.855 209.976 116.328C209.145 114.778 208.729 112.734 208.729 110.196V74.584ZM239.388 83.5459V120H230.46V83.5459H239.388ZM229.854 74.0112C229.854 72.686 230.303 71.5854 231.201 70.7095C232.122 69.8335 233.357 69.3955 234.907 69.3955C236.457 69.3955 237.681 69.8335 238.58 70.7095C239.5 71.5854 239.961 72.686 239.961 74.0112C239.961 75.314 239.5 76.4033 238.58 77.2793C237.681 78.1553 236.457 78.5933 234.907 78.5933C233.357 78.5933 232.122 78.1553 231.201 77.2793C230.303 76.4033 229.854 75.314 229.854 74.0112ZM262.837 113.666C264.095 113.666 265.218 113.419 266.207 112.925C267.195 112.431 267.981 111.734 268.565 110.836C269.171 109.938 269.497 108.893 269.542 107.703H277.931C277.886 110.173 277.19 112.386 275.842 114.34C274.495 116.294 272.698 117.844 270.452 118.989C268.228 120.112 265.735 120.674 262.972 120.674C260.165 120.674 257.716 120.202 255.627 119.259C253.539 118.315 251.798 117.001 250.405 115.317C249.035 113.632 248.002 111.678 247.306 109.455C246.632 107.231 246.295 104.85 246.295 102.312V101.234C246.295 98.6958 246.632 96.3149 247.306 94.0913C248.002 91.8677 249.035 89.9136 250.405 88.229C251.798 86.5444 253.539 85.2305 255.627 84.2871C257.716 83.3438 260.153 82.8721 262.938 82.8721C265.881 82.8721 268.464 83.4448 270.688 84.5903C272.934 85.7358 274.686 87.353 275.943 89.4419C277.224 91.5308 277.886 93.9902 277.931 96.8203H269.542C269.497 95.5176 269.205 94.3496 268.666 93.3164C268.127 92.2832 267.363 91.4521 266.375 90.8232C265.387 90.1943 264.185 89.8799 262.77 89.8799C261.265 89.8799 260.007 90.1943 258.997 90.8232C258.008 91.4521 257.233 92.3169 256.672 93.4175C256.133 94.4956 255.751 95.7085 255.526 97.0562C255.324 98.3813 255.223 99.7739 255.223 101.234V102.312C255.223 103.794 255.324 105.209 255.526 106.557C255.751 107.905 256.133 109.118 256.672 110.196C257.233 111.251 258.008 112.094 258.997 112.723C260.007 113.352 261.288 113.666 262.837 113.666ZM313.779 110.6L323.549 70.9453H328.839L329.176 79.3008L318.731 120H313.139L313.779 110.6ZM307.613 70.9453L315.632 110.465V120H309.534L298.416 70.9453H307.613ZM339.317 110.297L347.201 70.9453H356.432L345.314 120H339.216L339.317 110.297ZM331.366 70.9453L341.136 110.735L341.709 120H336.116L325.706 79.2671L326.11 70.9453H331.366ZM380.555 112.251V95.439C380.555 94.2036 380.342 93.1367 379.915 92.2383C379.488 91.3398 378.837 90.6436 377.961 90.1494C377.085 89.6553 375.973 89.4082 374.625 89.4082C373.435 89.4082 372.391 89.6104 371.492 90.0146C370.616 90.4189 369.942 90.9917 369.471 91.7329C368.999 92.4517 368.763 93.2827 368.763 94.2261H359.835C359.835 92.7212 360.194 91.2949 360.913 89.9473C361.632 88.5771 362.654 87.3643 363.979 86.3086C365.327 85.2305 366.933 84.3882 368.797 83.7817C370.684 83.1753 372.795 82.8721 375.131 82.8721C377.894 82.8721 380.353 83.3438 382.509 84.2871C384.688 85.208 386.395 86.6006 387.63 88.4648C388.888 90.3291 389.517 92.6763 389.517 95.5063V111.409C389.517 113.228 389.629 114.789 389.854 116.092C390.101 117.372 390.46 118.484 390.932 119.427V120H381.869C381.442 119.079 381.117 117.911 380.892 116.496C380.667 115.059 380.555 113.644 380.555 112.251ZM381.802 97.7974L381.869 103.087H376.243C374.85 103.087 373.626 103.233 372.57 103.525C371.515 103.794 370.65 104.199 369.976 104.738C369.302 105.254 368.797 105.883 368.46 106.625C368.123 107.343 367.955 108.163 367.955 109.084C367.955 109.982 368.157 110.791 368.561 111.51C368.988 112.229 369.594 112.801 370.38 113.228C371.189 113.632 372.132 113.834 373.21 113.834C374.783 113.834 376.153 113.52 377.321 112.891C378.489 112.24 379.398 111.454 380.05 110.533C380.701 109.612 381.049 108.736 381.094 107.905L383.655 111.746C383.34 112.667 382.869 113.644 382.24 114.677C381.611 115.71 380.802 116.676 379.814 117.574C378.826 118.473 377.635 119.214 376.243 119.798C374.85 120.382 373.233 120.674 371.391 120.674C369.033 120.674 366.921 120.202 365.057 119.259C363.193 118.315 361.722 117.024 360.644 115.384C359.565 113.745 359.026 111.88 359.026 109.792C359.026 107.86 359.386 106.153 360.104 104.67C360.823 103.188 361.89 101.941 363.305 100.931C364.72 99.8975 366.472 99.1226 368.561 98.606C370.672 98.0669 373.087 97.7974 375.805 97.7974H381.802ZM417.582 110.027C417.582 109.264 417.38 108.579 416.976 107.972C416.571 107.366 415.808 106.815 414.685 106.321C413.584 105.805 411.967 105.322 409.833 104.873C407.946 104.468 406.206 103.963 404.611 103.356C403.016 102.75 401.646 102.02 400.5 101.167C399.355 100.291 398.457 99.2686 397.805 98.1006C397.176 96.9102 396.862 95.54 396.862 93.9902C396.862 92.4854 397.188 91.0703 397.839 89.7451C398.49 88.3975 399.434 87.2183 400.669 86.2075C401.904 85.1743 403.409 84.3657 405.184 83.7817C406.958 83.1753 408.957 82.8721 411.181 82.8721C414.28 82.8721 416.942 83.3774 419.166 84.3882C421.412 85.3989 423.13 86.7915 424.32 88.5659C425.511 90.3179 426.106 92.2944 426.106 94.4956H417.211C417.211 93.5298 416.987 92.6538 416.538 91.8677C416.111 91.0815 415.448 90.4526 414.55 89.981C413.651 89.4868 412.517 89.2397 411.147 89.2397C409.912 89.2397 408.867 89.4419 408.014 89.8462C407.183 90.2505 406.554 90.7783 406.127 91.4297C405.7 92.0811 405.487 92.7998 405.487 93.5859C405.487 94.1699 405.599 94.6978 405.824 95.1694C406.071 95.6187 406.464 96.0342 407.003 96.416C407.542 96.7979 408.272 97.146 409.193 97.4604C410.136 97.7749 411.293 98.0781 412.663 98.3701C415.381 98.9092 417.75 99.6279 419.772 100.526C421.816 101.402 423.411 102.57 424.556 104.03C425.702 105.49 426.274 107.354 426.274 109.623C426.274 111.24 425.926 112.723 425.23 114.07C424.534 115.396 423.523 116.552 422.198 117.541C420.873 118.529 419.289 119.304 417.447 119.865C415.605 120.404 413.528 120.674 411.214 120.674C407.868 120.674 405.038 120.079 402.724 118.888C400.411 117.675 398.659 116.148 397.468 114.306C396.278 112.442 395.683 110.51 395.683 108.511H404.207C404.274 109.926 404.656 111.061 405.352 111.914C406.048 112.768 406.924 113.385 407.98 113.767C409.058 114.126 410.192 114.306 411.383 114.306C412.73 114.306 413.865 114.126 414.786 113.767C415.707 113.385 416.403 112.88 416.875 112.251C417.346 111.6 417.582 110.858 417.582 110.027ZM450.296 83.5459V89.9473H429.408V83.5459H450.296ZM435 74.584H443.929V109.488C443.929 110.566 444.075 111.397 444.367 111.981C444.659 112.565 445.097 112.958 445.681 113.161C446.265 113.363 446.961 113.464 447.77 113.464C448.354 113.464 448.893 113.43 449.387 113.363C449.881 113.295 450.296 113.228 450.633 113.161L450.667 119.832C449.926 120.079 449.083 120.281 448.14 120.438C447.219 120.595 446.175 120.674 445.007 120.674C443.008 120.674 441.256 120.337 439.751 119.663C438.246 118.967 437.078 117.855 436.247 116.328C435.416 114.778 435 112.734 435 110.196V74.584ZM472.6 120.674C469.837 120.674 467.355 120.225 465.154 119.326C462.953 118.428 461.078 117.181 459.528 115.586C458 113.969 456.821 112.094 455.99 109.96C455.182 107.804 454.777 105.49 454.777 103.02V101.672C454.777 98.8643 455.182 96.3149 455.99 94.0239C456.799 91.7104 457.944 89.7227 459.427 88.0605C460.909 86.3984 462.684 85.1182 464.75 84.2197C466.816 83.3213 469.096 82.8721 471.589 82.8721C474.172 82.8721 476.452 83.3101 478.429 84.186C480.405 85.0396 482.056 86.2524 483.381 87.8247C484.707 89.397 485.706 91.2837 486.38 93.4849C487.054 95.6636 487.391 98.0781 487.391 100.729V104.468H458.82V98.3364H478.631V97.6626C478.586 96.2476 478.316 94.9561 477.822 93.7881C477.328 92.5977 476.564 91.6543 475.531 90.958C474.498 90.2393 473.162 89.8799 471.522 89.8799C470.197 89.8799 469.04 90.1719 468.052 90.7559C467.086 91.3174 466.277 92.126 465.626 93.1816C464.997 94.2148 464.525 95.4502 464.211 96.8877C463.896 98.3252 463.739 99.9199 463.739 101.672V103.02C463.739 104.547 463.941 105.962 464.346 107.265C464.772 108.567 465.39 109.702 466.199 110.667C467.03 111.611 468.018 112.352 469.164 112.891C470.332 113.408 471.657 113.666 473.139 113.666C475.003 113.666 476.688 113.307 478.193 112.588C479.72 111.847 481.045 110.757 482.168 109.32L486.649 113.969C485.886 115.092 484.853 116.17 483.55 117.204C482.27 118.237 480.72 119.079 478.9 119.73C477.081 120.359 474.981 120.674 472.6 120.674Z" fill="#1C4670"/>
<path d="M530.718 78.3911L516.736 120H506.932L525.26 70.9453H531.526L530.718 78.3911ZM542.409 120L528.359 78.3911L527.517 70.9453H533.817L552.247 120H542.409ZM541.769 101.773V109.084H515.456V101.773H541.769ZM577.919 111.341V83.5459H586.881V120H578.458L577.919 111.341ZM579.065 103.794L581.828 103.727C581.828 106.175 581.558 108.433 581.019 110.499C580.48 112.565 579.638 114.362 578.492 115.89C577.369 117.395 575.943 118.574 574.213 119.427C572.484 120.258 570.44 120.674 568.082 120.674C566.285 120.674 564.645 120.427 563.163 119.933C561.68 119.416 560.4 118.619 559.322 117.541C558.266 116.44 557.446 115.036 556.862 113.329C556.278 111.6 555.986 109.522 555.986 107.096V83.5459H564.881V107.164C564.881 108.376 565.016 109.387 565.285 110.196C565.577 111.004 565.97 111.667 566.464 112.184C566.981 112.678 567.576 113.037 568.25 113.262C568.946 113.464 569.688 113.565 570.474 113.565C572.63 113.565 574.326 113.138 575.561 112.285C576.819 111.409 577.717 110.241 578.256 108.781C578.795 107.298 579.065 105.636 579.065 103.794ZM612.015 83.5459V89.9473H591.126V83.5459H612.015ZM596.719 74.584H605.647V109.488C605.647 110.566 605.793 111.397 606.085 111.981C606.377 112.565 606.815 112.958 607.399 113.161C607.983 113.363 608.68 113.464 609.488 113.464C610.072 113.464 610.611 113.43 611.105 113.363C611.6 113.295 612.015 113.228 612.352 113.161L612.386 119.832C611.645 120.079 610.802 120.281 609.859 120.438C608.938 120.595 607.894 120.674 606.726 120.674C604.727 120.674 602.975 120.337 601.47 119.663C599.965 118.967 598.797 117.855 597.966 116.328C597.135 114.778 596.719 112.734 596.719 110.196V74.584ZM626.671 68.25V120H617.743V68.25H626.671ZM625.256 100.459H622.628C622.628 97.9209 622.965 95.585 623.639 93.4512C624.312 91.3174 625.267 89.4644 626.502 87.8921C627.738 86.2974 629.209 85.062 630.916 84.186C632.646 83.3101 634.555 82.8721 636.644 82.8721C638.44 82.8721 640.069 83.1304 641.529 83.647C643.011 84.1411 644.28 84.9385 645.336 86.0391C646.392 87.1396 647.2 88.5771 647.762 90.3516C648.346 92.1035 648.638 94.2373 648.638 96.7529V120H639.676V96.6855C639.676 95.001 639.429 93.6758 638.935 92.71C638.44 91.7217 637.733 91.0142 636.812 90.5874C635.914 90.1606 634.802 89.9473 633.477 89.9473C632.039 89.9473 630.804 90.228 629.771 90.7896C628.737 91.3286 627.884 92.0811 627.21 93.0469C626.559 94.0127 626.064 95.1245 625.728 96.3823C625.413 97.6401 625.256 98.999 625.256 100.459ZM654.904 102.144V101.436C654.904 98.7632 655.286 96.3037 656.05 94.0576C656.813 91.7891 657.925 89.8237 659.385 88.1616C660.845 86.4995 662.631 85.208 664.742 84.2871C666.854 83.3438 669.257 82.8721 671.952 82.8721C674.692 82.8721 677.118 83.3438 679.229 84.2871C681.363 85.208 683.16 86.4995 684.62 88.1616C686.08 89.8237 687.192 91.7891 687.956 94.0576C688.719 96.3037 689.101 98.7632 689.101 101.436V102.144C689.101 104.794 688.719 107.253 687.956 109.522C687.192 111.768 686.08 113.733 684.62 115.418C683.16 117.08 681.375 118.372 679.263 119.292C677.152 120.213 674.737 120.674 672.02 120.674C669.324 120.674 666.91 120.213 664.776 119.292C662.642 118.372 660.845 117.08 659.385 115.418C657.925 113.733 656.813 111.768 656.05 109.522C655.286 107.253 654.904 104.794 654.904 102.144ZM663.799 101.436V102.144C663.799 103.738 663.956 105.232 664.271 106.625C664.585 108.017 665.068 109.241 665.719 110.297C666.371 111.353 667.213 112.184 668.246 112.79C669.302 113.374 670.56 113.666 672.02 113.666C673.457 113.666 674.692 113.374 675.726 112.79C676.759 112.184 677.601 111.353 678.252 110.297C678.926 109.241 679.42 108.017 679.735 106.625C680.049 105.232 680.207 103.738 680.207 102.144V101.436C680.207 99.8638 680.049 98.3926 679.735 97.0225C679.42 95.6299 678.926 94.4058 678.252 93.3501C677.601 92.272 676.748 91.4297 675.692 90.8232C674.659 90.1943 673.412 89.8799 671.952 89.8799C670.515 89.8799 669.279 90.1943 668.246 90.8232C667.213 91.4297 666.371 92.272 665.719 93.3501C665.068 94.4058 664.585 95.6299 664.271 97.0225C663.956 98.3926 663.799 99.8638 663.799 101.436ZM704.464 90.9917V120H695.57V83.5459H703.993L704.464 90.9917ZM715.549 83.3101L715.414 91.5981C714.92 91.5083 714.358 91.4409 713.729 91.396C713.123 91.3511 712.55 91.3286 712.011 91.3286C710.641 91.3286 709.439 91.5195 708.406 91.9014C707.373 92.2607 706.508 92.7886 705.812 93.4849C705.138 94.1812 704.622 95.0347 704.262 96.0454C703.903 97.0337 703.701 98.1567 703.656 99.4146L701.735 99.1787C701.735 96.8652 701.971 94.7202 702.443 92.7437C702.915 90.7671 703.6 89.0376 704.498 87.5552C705.396 86.0728 706.52 84.9272 707.867 84.1187C709.237 83.2876 710.81 82.8721 712.584 82.8721C713.078 82.8721 713.606 82.917 714.167 83.0068C714.751 83.0742 715.212 83.1753 715.549 83.3101ZM729.868 83.5459V120H720.939V83.5459H729.868ZM720.333 74.0112C720.333 72.686 720.782 71.5854 721.681 70.7095C722.602 69.8335 723.837 69.3955 725.387 69.3955C726.937 69.3955 728.161 69.8335 729.059 70.7095C729.98 71.5854 730.44 72.686 730.44 74.0112C730.44 75.314 729.98 76.4033 729.059 77.2793C728.161 78.1553 726.937 78.5933 725.387 78.5933C723.837 78.5933 722.602 78.1553 721.681 77.2793C720.782 76.4033 720.333 75.314 720.333 74.0112ZM766.928 112.992V120H739.503V112.992H766.928ZM766.288 88.8691L742.839 120H736.977V114.508L760.291 83.5459H766.288V88.8691ZM763.02 83.5459V90.5874H737.448V83.5459H763.02ZM793.342 112.251V95.439C793.342 94.2036 793.129 93.1367 792.702 92.2383C792.275 91.3398 791.624 90.6436 790.748 90.1494C789.872 89.6553 788.76 89.4082 787.413 89.4082C786.222 89.4082 785.178 89.6104 784.279 90.0146C783.403 90.4189 782.729 90.9917 782.258 91.7329C781.786 92.4517 781.55 93.2827 781.55 94.2261H772.622C772.622 92.7212 772.981 91.2949 773.7 89.9473C774.419 88.5771 775.441 87.3643 776.766 86.3086C778.114 85.2305 779.72 84.3882 781.584 83.7817C783.471 83.1753 785.582 82.8721 787.918 82.8721C790.681 82.8721 793.14 83.3438 795.296 84.2871C797.475 85.208 799.182 86.6006 800.417 88.4648C801.675 90.3291 802.304 92.6763 802.304 95.5063V111.409C802.304 113.228 802.417 114.789 802.641 116.092C802.888 117.372 803.248 118.484 803.719 119.427V120H794.656C794.229 119.079 793.904 117.911 793.679 116.496C793.455 115.059 793.342 113.644 793.342 112.251ZM794.589 97.7974L794.656 103.087H789.03C787.637 103.087 786.413 103.233 785.357 103.525C784.302 103.794 783.437 104.199 782.763 104.738C782.089 105.254 781.584 105.883 781.247 106.625C780.91 107.343 780.742 108.163 780.742 109.084C780.742 109.982 780.944 110.791 781.348 111.51C781.775 112.229 782.381 112.801 783.167 113.228C783.976 113.632 784.919 113.834 785.998 113.834C787.57 113.834 788.94 113.52 790.108 112.891C791.276 112.24 792.186 111.454 792.837 110.533C793.488 109.612 793.836 108.736 793.881 107.905L796.442 111.746C796.127 112.667 795.656 113.644 795.027 114.677C794.398 115.71 793.589 116.676 792.601 117.574C791.613 118.473 790.422 119.214 789.03 119.798C787.637 120.382 786.02 120.674 784.178 120.674C781.82 120.674 779.708 120.202 777.844 119.259C775.98 118.315 774.509 117.024 773.431 115.384C772.353 113.745 771.813 111.88 771.813 109.792C771.813 107.86 772.173 106.153 772.892 104.67C773.61 103.188 774.677 101.941 776.092 100.931C777.507 99.8975 779.259 99.1226 781.348 98.606C783.459 98.0669 785.874 97.7974 788.592 97.7974H794.589ZM827.573 83.5459V89.9473H806.684V83.5459H827.573ZM812.277 74.584H821.205V109.488C821.205 110.566 821.351 111.397 821.643 111.981C821.935 112.565 822.373 112.958 822.957 113.161C823.541 113.363 824.237 113.464 825.046 113.464C825.63 113.464 826.169 113.43 826.663 113.363C827.157 113.295 827.573 113.228 827.91 113.161L827.943 119.832C827.202 120.079 826.36 120.281 825.417 120.438C824.496 120.595 823.451 120.674 822.283 120.674C820.284 120.674 818.532 120.337 817.027 119.663C815.522 118.967 814.354 117.855 813.523 116.328C812.692 114.778 812.277 112.734 812.277 110.196V74.584ZM842.936 83.5459V120H834.008V83.5459H842.936ZM833.401 74.0112C833.401 72.686 833.851 71.5854 834.749 70.7095C835.67 69.8335 836.905 69.3955 838.455 69.3955C840.005 69.3955 841.229 69.8335 842.127 70.7095C843.048 71.5854 843.509 72.686 843.509 74.0112C843.509 75.314 843.048 76.4033 842.127 77.2793C841.229 78.1553 840.005 78.5933 838.455 78.5933C836.905 78.5933 835.67 78.1553 834.749 77.2793C833.851 76.4033 833.401 75.314 833.401 74.0112ZM849.843 102.144V101.436C849.843 98.7632 850.225 96.3037 850.988 94.0576C851.752 91.7891 852.864 89.8237 854.324 88.1616C855.784 86.4995 857.569 85.208 859.681 84.2871C861.792 83.3438 864.195 82.8721 866.891 82.8721C869.631 82.8721 872.057 83.3438 874.168 84.2871C876.302 85.208 878.099 86.4995 879.559 88.1616C881.019 89.8237 882.13 91.7891 882.894 94.0576C883.658 96.3037 884.04 98.7632 884.04 101.436V102.144C884.04 104.794 883.658 107.253 882.894 109.522C882.13 111.768 881.019 113.733 879.559 115.418C878.099 117.08 876.313 118.372 874.202 119.292C872.09 120.213 869.676 120.674 866.958 120.674C864.263 120.674 861.848 120.213 859.714 119.292C857.581 118.372 855.784 117.08 854.324 115.418C852.864 113.733 851.752 111.768 850.988 109.522C850.225 107.253 849.843 104.794 849.843 102.144ZM858.737 101.436V102.144C858.737 103.738 858.895 105.232 859.209 106.625C859.523 108.017 860.006 109.241 860.658 110.297C861.309 111.353 862.151 112.184 863.185 112.79C864.24 113.374 865.498 113.666 866.958 113.666C868.396 113.666 869.631 113.374 870.664 112.79C871.697 112.184 872.54 111.353 873.191 110.297C873.865 109.241 874.359 108.017 874.673 106.625C874.988 105.232 875.145 103.738 875.145 102.144V101.436C875.145 99.8638 874.988 98.3926 874.673 97.0225C874.359 95.6299 873.865 94.4058 873.191 93.3501C872.54 92.272 871.686 91.4297 870.63 90.8232C869.597 90.1943 868.351 89.8799 866.891 89.8799C865.453 89.8799 864.218 90.1943 863.185 90.8232C862.151 91.4297 861.309 92.272 860.658 93.3501C860.006 94.4058 859.523 95.6299 859.209 97.0225C858.895 98.3926 858.737 99.8638 858.737 101.436ZM899.234 91.3286V120H890.34V83.5459H898.695L899.234 91.3286ZM897.819 100.459H895.191C895.214 97.8086 895.573 95.4053 896.27 93.249C896.966 91.0928 897.943 89.2397 899.201 87.6899C900.481 86.1401 901.997 84.9497 903.749 84.1187C905.501 83.2876 907.455 82.8721 909.611 82.8721C911.363 82.8721 912.947 83.1191 914.362 83.6133C915.777 84.1074 916.99 84.8936 918 85.9717C919.034 87.0498 919.82 88.4648 920.359 90.2168C920.92 91.9463 921.201 94.0801 921.201 96.6182V120H912.239V96.5508C912.239 94.8887 911.992 93.5747 911.498 92.6089C911.026 91.6431 910.33 90.958 909.409 90.5537C908.511 90.1494 907.399 89.9473 906.074 89.9473C904.704 89.9473 903.502 90.228 902.469 90.7896C901.458 91.3286 900.604 92.0811 899.908 93.0469C899.234 94.0127 898.718 95.1245 898.358 96.3823C897.999 97.6401 897.819 98.999 897.819 100.459Z" fill="#FFA229"/>
</g>
<defs>
<linearGradient id="paint0_linear_531_5316" x1="500" y1="358.013" x2="500" y2="1093.09" gradientUnits="userSpaceOnUse">
<stop stop-color="#B1D9F9"/>
<stop offset="1" stop-color="white"/>
</linearGradient>
<linearGradient id="paint1_linear_531_5316" x1="113.442" y1="374.874" x2="401.734" y2="493.511" gradientUnits="userSpaceOnUse">
<stop stop-color="#FFEBE3"/>
<stop offset="1" stop-color="#C4B4B0"/>
</linearGradient>
<linearGradient id="paint2_linear_531_5316" x1="155.001" y1="333.298" x2="276.938" y2="356.183" gradientUnits="userSpaceOnUse">
<stop stop-color="#FFEBE3"/>
<stop offset="1" stop-color="#C4B4B0"/>
</linearGradient>
<linearGradient id="paint3_linear_531_5316" x1="301.508" y1="283.495" x2="542.282" y2="515.009" gradientUnits="userSpaceOnUse">
<stop stop-color="#FFEBE3"/>
<stop offset="1" stop-color="#E3D1CB"/>
</linearGradient>
<linearGradient id="paint4_linear_531_5316" x1="323.565" y1="180.371" x2="382.98" y2="380.731" gradientUnits="userSpaceOnUse">
<stop stop-color="#FFEBE3"/>
<stop offset="1" stop-color="#E3D1CB"/>
</linearGradient>
<linearGradient id="paint5_linear_531_5316" x1="255.739" y1="254.141" x2="482.236" y2="475.608" gradientUnits="userSpaceOnUse">
<stop stop-color="#FFEBE3"/>
<stop offset="1" stop-color="#E3D1CB"/>
</linearGradient>
<linearGradient id="paint6_linear_531_5316" x1="367.597" y1="327.505" x2="576.286" y2="531.659" gradientUnits="userSpaceOnUse">
<stop stop-color="#FFEBE3"/>
<stop offset="1" stop-color="#E3D1CB"/>
</linearGradient>
<linearGradient id="paint7_linear_531_5316" x1="421.679" y1="361.993" x2="595.671" y2="604.831" gradientUnits="userSpaceOnUse">
<stop stop-color="#FFEBE3"/>
<stop offset="1" stop-color="#EDDAD4"/>
</linearGradient>
<linearGradient id="paint8_linear_531_5316" x1="581.06" y1="693.963" x2="588.286" y2="624.427" gradientUnits="userSpaceOnUse">
<stop stop-color="#FFEBE3"/>
<stop offset="1" stop-color="#C4B4B0"/>
</linearGradient>
<linearGradient id="paint9_linear_531_5316" x1="422.006" y1="286.482" x2="646.905" y2="638.599" gradientUnits="userSpaceOnUse">
<stop stop-color="#FFEBE3"/>
<stop offset="1" stop-color="#C4B4B0"/>
</linearGradient>
<linearGradient id="paint10_linear_531_5316" x1="339.384" y1="319.956" x2="562.176" y2="653.913" gradientUnits="userSpaceOnUse">
<stop stop-color="#FFEBE3"/>
<stop offset="1" stop-color="#C4B4B0"/>
</linearGradient>
<linearGradient id="paint11_linear_531_5316" x1="643.085" y1="257.651" x2="728.956" y2="553.424" gradientUnits="userSpaceOnUse">
<stop stop-color="#FFEBE3"/>
<stop offset="1" stop-color="#E3D1CB"/>
</linearGradient>
<linearGradient id="paint12_linear_531_5316" x1="692.61" y1="305.209" x2="777.945" y2="305.209" gradientUnits="userSpaceOnUse">
<stop stop-color="#FFEBE3"/>
<stop offset="1" stop-color="#E3D1CB"/>
</linearGradient>
<linearGradient id="paint13_linear_531_5316" x1="684.998" y1="753.001" x2="798" y2="753.001" gradientUnits="userSpaceOnUse">
<stop offset="0.01" stop-color="#3C6127"/>
<stop offset="1" stop-color="#639C38"/>
</linearGradient>
<linearGradient id="paint14_linear_531_5316" x1="677.476" y1="823.455" x2="749.431" y2="761.799" gradientUnits="userSpaceOnUse">
<stop offset="0.01" stop-color="#3C6127"/>
<stop offset="1" stop-color="#639C38"/>
</linearGradient>
<linearGradient id="paint15_linear_531_5316" x1="642" y1="835.494" x2="821.946" y2="835.494" gradientUnits="userSpaceOnUse">
<stop offset="0.01" stop-color="#3C6127"/>
<stop offset="1" stop-color="#639C38"/>
</linearGradient>
<linearGradient id="paint16_linear_531_5316" x1="647.521" y1="859.761" x2="755.403" y2="813.961" gradientUnits="userSpaceOnUse">
<stop offset="0.01" stop-color="#3C6127"/>
<stop offset="1" stop-color="#639C38"/>
</linearGradient>
<linearGradient id="paint17_linear_531_5316" x1="324.392" y1="836.764" x2="244.445" y2="702.734" gradientUnits="userSpaceOnUse">
<stop offset="0.01" stop-color="#3C6127"/>
<stop offset="1" stop-color="#639C38"/>
</linearGradient>
<linearGradient id="paint18_linear_531_5316" x1="325.194" y1="812.251" x2="213.11" y2="760.627" gradientUnits="userSpaceOnUse">
<stop offset="0.01" stop-color="#3C6127"/>
<stop offset="1" stop-color="#639C38"/>
</linearGradient>
<linearGradient id="paint19_linear_531_5316" x1="954.258" y1="694.009" x2="421.362" y2="694.009" gradientUnits="userSpaceOnUse">
<stop stop-color="#FFAE70"/>
<stop offset="1" stop-color="#FFD970"/>
</linearGradient>
<linearGradient id="paint20_linear_531_5316" x1="654.625" y1="890.285" x2="320.779" y2="523.761" gradientUnits="userSpaceOnUse">
<stop stop-color="#602F80"/>
<stop offset="1" stop-color="#5770FF"/>
</linearGradient>
<linearGradient id="paint21_linear_531_5316" x1="618.103" y1="924.988" x2="281.284" y2="559.418" gradientUnits="userSpaceOnUse">
<stop stop-color="#602F80"/>
<stop offset="1" stop-color="#5770FF"/>
</linearGradient>
<linearGradient id="paint22_linear_531_5316" x1="718.089" y1="832.14" x2="379.051" y2="469.069" gradientUnits="userSpaceOnUse">
<stop stop-color="#602F80"/>
<stop offset="1" stop-color="#5770FF"/>
</linearGradient>
<linearGradient id="paint23_linear_531_5316" x1="273.198" y1="741.631" x2="378.073" y2="539.945" gradientUnits="userSpaceOnUse">
<stop stop-color="#4D8FFF"/>
<stop offset="1" stop-color="#54EDFF"/>
</linearGradient>
<linearGradient id="paint24_linear_531_5316" x1="881.133" y1="861.637" x2="935.293" y2="861.637" gradientUnits="userSpaceOnUse">
<stop stop-color="#FFEBE3"/>
<stop offset="1" stop-color="#E3D1CB"/>
</linearGradient>
<linearGradient id="paint25_linear_531_5316" x1="858.619" y1="847.188" x2="934.047" y2="847.307" gradientUnits="userSpaceOnUse">
<stop stop-color="#FFEBE3"/>
<stop offset="1" stop-color="#E3D1CB"/>
</linearGradient>
<clipPath id="clip0_531_5316">
<rect width="1000" height="1021" fill="white"/>
</clipPath>
</defs>
</svg>
