<svg width="2372" height="2372" viewBox="0 0 2372 2372" fill="none" xmlns="http://www.w3.org/2000/svg">
<g clip-path="url(#clip0_620_362)">
<path d="M1186 2281C1812.84 2281 2321 1772.84 2321 1146C2321 519.157 1812.84 11 1186 11C559.157 11 51 519.157 51 1146C51 1772.84 559.157 2281 1186 2281Z" fill="white"/>
<path d="M1186 2095.69C1710.5 2095.69 2135.69 1670.5 2135.69 1146C2135.69 621.494 1710.5 196.302 1186 196.302C661.494 196.302 236.302 621.494 236.302 1146C236.302 1670.5 661.494 2095.69 1186 2095.69Z" fill="#E9A038"/>
<g clip-path="url(#clip1_620_362)">
<path d="M1207 564L1294.59 739.643L1488.77 768.643L1348.73 906.195L1381.14 1099.76L1207 1009.13L1032.85 1099.76L1065.26 906.195L925.221 768.643L1119.4 739.643L1207 564Z" fill="#1C4670"/>
<path d="M1348.73 906.201L1381.14 1099.75L1207 1009.13L1032.85 1099.75L1051.03 991.176C1053.13 991.365 1330.65 1015.71 1294.59 739.63L1488.77 768.636L1348.73 906.201Z" fill="#1C4670"/>
<path d="M776.064 776.584L838.413 901.599L976.633 922.248L876.948 1020.16L900.024 1157.94L776.064 1093.43L652.104 1157.94L675.173 1020.16L575.495 922.248L713.708 901.599L776.064 776.584Z" fill="#1C4670"/>
<path d="M876.948 1020.16L900.005 1157.94L776.064 1093.43L652.104 1157.94L665.082 1080.65C666.572 1080.78 864.11 1098.12 838.445 901.6L976.665 922.248L876.948 1020.16Z" fill="#1C4670"/>
<path d="M442.466 967.257L490.796 1064.17L597.933 1080.16L520.667 1156.06L538.551 1262.86L442.466 1212.86L346.381 1262.86L364.266 1156.06L287 1080.16L394.136 1064.17L442.466 967.257Z" fill="#1C4670"/>
<path d="M520.667 1156.07L538.551 1262.86L442.466 1212.86L346.381 1262.86L356.416 1202.95C357.572 1203.06 510.689 1216.49 490.796 1064.17L597.933 1080.17L520.667 1156.07Z" fill="#1C4670"/>
<path d="M1637.94 776.584L1700.29 901.599L1838.51 922.248L1738.83 1020.16L1761.9 1157.94L1637.94 1093.43L1513.98 1157.94L1537.05 1020.16L1437.37 922.248L1575.58 901.599L1637.94 776.584Z" fill="#1C4670"/>
<path d="M1738.82 1020.16L1761.9 1157.94L1637.94 1093.43L1513.98 1157.94L1526.92 1080.65C1528.41 1080.78 1725.95 1098.12 1700.29 901.6L1838.51 922.248L1738.82 1020.16Z" fill="#1C4670"/>
<path d="M1971.53 967.257L2019.86 1064.17L2127 1080.16L2049.73 1156.06L2067.61 1262.86L1971.53 1212.86L1875.45 1262.86L1893.33 1156.06L1816.06 1080.16L1923.2 1064.17L1971.53 967.257Z" fill="#1C4670"/>
<path d="M2049.73 1156.07L2067.61 1262.86L1971.53 1212.86L1875.45 1262.86L1885.48 1202.95C1886.63 1203.06 2039.76 1216.49 2019.86 1064.17L2127 1080.17L2049.73 1156.07Z" fill="#1C4670"/>
<path d="M1185.61 1817C1115.42 1816.92 1047.77 1790.79 995.774 1743.67C943.777 1696.55 911.141 1631.8 904.198 1561.99C897.254 1492.18 916.499 1422.28 958.198 1365.85C999.897 1309.42 1061.08 1270.48 1129.87 1256.59C1198.67 1242.7 1270.17 1254.84 1330.51 1290.67C1390.85 1326.5 1435.73 1383.45 1456.44 1450.48C1477.15 1517.51 1472.22 1589.84 1442.59 1653.44C1412.97 1717.04 1360.77 1767.38 1296.12 1794.68C1261.16 1809.48 1223.57 1817.07 1185.61 1817ZM1185.61 1321.86C1136.68 1321.86 1089.27 1338.81 1051.45 1369.84C1013.63 1400.86 987.744 1444.03 978.197 1492C968.651 1539.96 976.038 1589.75 999.099 1632.88C1022.16 1676.01 1059.47 1709.81 1104.67 1728.53C1149.87 1747.24 1200.16 1749.71 1246.98 1735.52C1293.8 1721.32 1334.24 1691.34 1361.42 1650.68C1388.6 1610.01 1400.84 1561.19 1396.04 1512.52C1391.24 1463.85 1369.71 1418.35 1335.12 1383.77C1315.53 1364.08 1292.23 1348.47 1266.57 1337.85C1240.9 1327.22 1213.39 1321.79 1185.61 1321.86Z" fill="#1C4670"/>
<path d="M1513.98 1285.13L1242.36 1624.86L1213.34 1661.15L1176.39 1630.16L1050.65 1524.65L1132.29 1443.05L1202.59 1526.76L1408.77 1209.24L1513.98 1285.13Z" fill="white"/>
<path d="M1513.98 1285.13L1242.36 1624.87L1213.34 1661.16L1176.39 1630.17L1050.65 1524.66L1069.89 1505.43L1186.14 1598.76C1188.82 1600.91 1191.89 1602.49 1195.19 1603.42C1198.49 1604.35 1201.95 1604.6 1205.35 1604.16C1208.75 1603.72 1212.02 1602.6 1214.98 1600.86C1217.93 1599.13 1220.51 1596.81 1222.54 1594.06L1473.06 1255.62L1513.98 1285.13Z" fill="white"/>
</g>
</g>
<defs>
<clipPath id="clip0_620_362">
<rect width="2270" height="2270" fill="white" transform="translate(51 11)"/>
</clipPath>
<clipPath id="clip1_620_362">
<rect width="1840" height="1253" fill="white" transform="translate(287 564)"/>
</clipPath>
</defs>
</svg>
