<svg width="2372" height="2372" viewBox="0 0 2372 2372" fill="none" xmlns="http://www.w3.org/2000/svg">
<g clip-path="url(#clip0_620_362)">
<path d="M1186 2321C1812.84 2321 2321 1812.84 2321 1186C2321 559.157 1812.84 51 1186 51C559.157 51 51 559.157 51 1186C51 1812.84 559.157 2321 1186 2321Z" fill="white"/>
<path d="M1186 2135.69C1710.5 2135.69 2135.69 1710.5 2135.69 1186C2135.69 661.494 1710.5 236.302 1186 236.302C661.494 236.302 236.302 661.494 236.302 1186C236.302 1710.5 661.494 2135.69 1186 2135.69Z" fill="#164760"/>
<path d="M1221.67 709.3C1254.63 712.839 1287.23 718.797 1319.26 727.367C1333.41 731.092 1347.2 735.561 1361.16 739.659C1366.75 741.334 1367.5 743.756 1363.21 748.04C1340.49 770.576 1317.96 793.11 1295.42 815.833C1291.7 819.558 1287.97 819.372 1283.5 818.069C1244.2 807.266 1204.16 804.658 1163.56 806.522C1104.89 809.314 1050.13 826.264 999.102 855.318C925.347 897.41 871.335 957.94 836.878 1035.61C815.275 1084.4 805.216 1135.81 805.775 1189.45C806.708 1278.66 835.575 1357.81 891.821 1425.98C957.195 1505.32 1041.56 1552.26 1144.37 1563.62C1249.98 1575.16 1344.59 1546.67 1426.35 1479.43C1505.69 1414.25 1551.7 1329.5 1563.8 1226.88C1565.11 1215.71 1565.11 1204.53 1565.66 1193.54C1565.85 1188.51 1567.34 1185.35 1573.3 1185.35C1603.1 1185.72 1632.9 1185.91 1662.7 1186.09C1662.7 1199.13 1662.7 1212.17 1662.7 1225.2C1660.09 1242.9 1658.04 1260.78 1654.51 1278.28C1634.02 1379.23 1585.97 1464.91 1510.72 1535.12C1449.26 1592.67 1377.37 1631.22 1295.42 1650.97C1272.14 1656.55 1248.49 1659.35 1225.02 1662.7C1198.94 1662.7 1172.87 1662.7 1146.79 1662.7C1129.1 1660.09 1111.22 1658.04 1093.72 1654.51C992.768 1634.02 907.094 1585.97 836.878 1510.72C779.329 1449.26 740.776 1377.37 721.033 1295.42C715.447 1272.14 712.653 1248.49 709.3 1225.02C709.3 1198.94 709.3 1172.87 709.3 1146.79C711.908 1129.1 713.956 1111.22 717.495 1093.72C737.981 992.768 786.033 907.094 861.279 836.878C922.739 779.329 994.63 740.776 1076.58 721.033C1099.86 715.447 1123.51 712.653 1146.98 709.3C1171.94 709.3 1196.9 709.3 1221.67 709.3Z" fill="white"/>
<path d="M1615.22 900.574C1614.48 901.505 1613.73 902.81 1612.8 903.927C1611.12 905.789 1609.26 907.466 1607.58 909.327C1454.49 1062.42 1301.4 1215.7 1148.11 1368.8C1138.61 1378.3 1138.61 1378.3 1128.93 1368.61C1062.81 1302.5 996.879 1236.38 930.575 1170.63C923.871 1164.11 923.499 1160.2 930.389 1153.68C948.456 1136.55 965.962 1119.04 983.098 1101.16C988.871 1095.2 992.223 1095.39 997.998 1101.16C1042.14 1145.68 1086.65 1189.82 1130.79 1234.33C1136.75 1240.29 1140.1 1240.48 1146.06 1234.33C1276.81 1103.21 1407.93 972.279 1538.86 841.162C1548.36 831.664 1548.36 831.664 1558.04 841.348C1575.36 858.67 1592.68 875.99 1610.01 893.31C1612.24 895.36 1614.66 897.035 1615.22 900.574Z" fill="white"/>
</g>
<defs>
<clipPath id="clip0_620_362">
<rect width="2270" height="2270" fill="white" transform="translate(51 51)"/>
</clipPath>
</defs>
</svg>
