<svg width="1025" height="1567" viewBox="0 0 1025 1567" fill="none" xmlns="http://www.w3.org/2000/svg">
<rect width="1025" height="1567" fill="#FFFAFA"/>
<g filter="url(#filter0_d_763_1782)">
<path fill-rule="evenodd" clip-rule="evenodd" d="M945.959 386C968.066 386 985.981 403.934 985.959 426.041L985.799 580.15C985.776 602.225 967.874 620.108 945.799 620.108H818.055H74C51.9086 620.108 34 602.2 34 580.108V426C34 403.909 51.9086 386 74 386H945.959Z" fill="white"/>
</g>
<path d="M350.688 475.281C350.688 474.344 350.542 473.51 350.25 472.781C349.979 472.052 349.49 471.385 348.781 470.781C348.073 470.177 347.073 469.594 345.781 469.031C344.51 468.448 342.885 467.854 340.906 467.25C338.74 466.583 336.74 465.844 334.906 465.031C333.094 464.198 331.51 463.24 330.156 462.156C328.802 461.052 327.75 459.792 327 458.375C326.25 456.938 325.875 455.281 325.875 453.406C325.875 451.552 326.26 449.865 327.031 448.344C327.823 446.823 328.938 445.51 330.375 444.406C331.833 443.281 333.552 442.417 335.531 441.812C337.51 441.188 339.698 440.875 342.094 440.875C345.469 440.875 348.375 441.5 350.812 442.75C353.271 444 355.156 445.677 356.469 447.781C357.802 449.885 358.469 452.208 358.469 454.75H350.688C350.688 453.25 350.365 451.927 349.719 450.781C349.094 449.615 348.135 448.698 346.844 448.031C345.573 447.365 343.958 447.031 342 447.031C340.146 447.031 338.604 447.312 337.375 447.875C336.146 448.438 335.229 449.198 334.625 450.156C334.021 451.115 333.719 452.198 333.719 453.406C333.719 454.26 333.917 455.042 334.312 455.75C334.708 456.438 335.312 457.083 336.125 457.688C336.938 458.271 337.958 458.823 339.188 459.344C340.417 459.865 341.865 460.365 343.531 460.844C346.052 461.594 348.25 462.427 350.125 463.344C352 464.24 353.562 465.26 354.812 466.406C356.062 467.552 357 468.854 357.625 470.312C358.25 471.75 358.562 473.385 358.562 475.219C358.562 477.135 358.177 478.865 357.406 480.406C356.635 481.927 355.531 483.229 354.094 484.312C352.677 485.375 350.969 486.198 348.969 486.781C346.99 487.344 344.781 487.625 342.344 487.625C340.156 487.625 338 487.333 335.875 486.75C333.771 486.167 331.854 485.281 330.125 484.094C328.396 482.885 327.021 481.385 326 479.594C324.979 477.781 324.469 475.667 324.469 473.25H332.312C332.312 474.729 332.562 475.99 333.062 477.031C333.583 478.073 334.302 478.927 335.219 479.594C336.135 480.24 337.198 480.719 338.406 481.031C339.635 481.344 340.948 481.5 342.344 481.5C344.177 481.5 345.708 481.24 346.938 480.719C348.188 480.198 349.125 479.469 349.75 478.531C350.375 477.594 350.688 476.51 350.688 475.281ZM383.812 480.219V464.094C383.812 462.885 383.594 461.844 383.156 460.969C382.719 460.094 382.052 459.417 381.156 458.938C380.281 458.458 379.177 458.219 377.844 458.219C376.615 458.219 375.552 458.427 374.656 458.844C373.76 459.26 373.062 459.823 372.562 460.531C372.062 461.24 371.812 462.042 371.812 462.938H364.312C364.312 461.604 364.635 460.312 365.281 459.062C365.927 457.812 366.865 456.698 368.094 455.719C369.323 454.74 370.792 453.969 372.5 453.406C374.208 452.844 376.125 452.562 378.25 452.562C380.792 452.562 383.042 452.99 385 453.844C386.979 454.698 388.531 455.99 389.656 457.719C390.802 459.427 391.375 461.573 391.375 464.156V479.188C391.375 480.729 391.479 482.115 391.688 483.344C391.917 484.552 392.24 485.604 392.656 486.5V487H384.938C384.583 486.188 384.302 485.156 384.094 483.906C383.906 482.635 383.812 481.406 383.812 480.219ZM384.906 466.438L384.969 471.094H379.562C378.167 471.094 376.938 471.229 375.875 471.5C374.812 471.75 373.927 472.125 373.219 472.625C372.51 473.125 371.979 473.729 371.625 474.438C371.271 475.146 371.094 475.948 371.094 476.844C371.094 477.74 371.302 478.562 371.719 479.312C372.135 480.042 372.74 480.615 373.531 481.031C374.344 481.448 375.323 481.656 376.469 481.656C378.01 481.656 379.354 481.344 380.5 480.719C381.667 480.073 382.583 479.292 383.25 478.375C383.917 477.438 384.271 476.552 384.312 475.719L386.75 479.062C386.5 479.917 386.073 480.833 385.469 481.812C384.865 482.792 384.073 483.729 383.094 484.625C382.135 485.5 380.979 486.219 379.625 486.781C378.292 487.344 376.75 487.625 375 487.625C372.792 487.625 370.823 487.188 369.094 486.312C367.365 485.417 366.01 484.219 365.031 482.719C364.052 481.198 363.562 479.479 363.562 477.562C363.562 475.771 363.896 474.188 364.562 472.812C365.25 471.417 366.25 470.25 367.562 469.312C368.896 468.375 370.521 467.667 372.438 467.188C374.354 466.688 376.542 466.438 379 466.438H384.906ZM407.312 439V487H399.75V439H407.312ZM430.469 487.625C427.969 487.625 425.708 487.219 423.688 486.406C421.688 485.573 419.979 484.417 418.562 482.938C417.167 481.458 416.094 479.719 415.344 477.719C414.594 475.719 414.219 473.562 414.219 471.25V470C414.219 467.354 414.604 464.958 415.375 462.812C416.146 460.667 417.219 458.833 418.594 457.312C419.969 455.771 421.594 454.594 423.469 453.781C425.344 452.969 427.375 452.562 429.562 452.562C431.979 452.562 434.094 452.969 435.906 453.781C437.719 454.594 439.219 455.74 440.406 457.219C441.615 458.677 442.51 460.417 443.094 462.438C443.698 464.458 444 466.688 444 469.125V472.344H417.875V466.938H436.562V466.344C436.521 464.99 436.25 463.719 435.75 462.531C435.271 461.344 434.531 460.385 433.531 459.656C432.531 458.927 431.198 458.562 429.531 458.562C428.281 458.562 427.167 458.833 426.188 459.375C425.229 459.896 424.427 460.656 423.781 461.656C423.135 462.656 422.635 463.865 422.281 465.281C421.948 466.677 421.781 468.25 421.781 470V471.25C421.781 472.729 421.979 474.104 422.375 475.375C422.792 476.625 423.396 477.719 424.188 478.656C424.979 479.594 425.938 480.333 427.062 480.875C428.188 481.396 429.469 481.656 430.906 481.656C432.719 481.656 434.333 481.292 435.75 480.562C437.167 479.833 438.396 478.802 439.438 477.469L443.406 481.312C442.677 482.375 441.729 483.396 440.562 484.375C439.396 485.333 437.969 486.115 436.281 486.719C434.615 487.323 432.677 487.625 430.469 487.625ZM468.844 477.844C468.844 477.094 468.656 476.417 468.281 475.812C467.906 475.188 467.188 474.625 466.125 474.125C465.083 473.625 463.542 473.167 461.5 472.75C459.708 472.354 458.062 471.885 456.562 471.344C455.083 470.781 453.812 470.104 452.75 469.312C451.688 468.521 450.865 467.583 450.281 466.5C449.698 465.417 449.406 464.167 449.406 462.75C449.406 461.375 449.708 460.073 450.312 458.844C450.917 457.615 451.781 456.531 452.906 455.594C454.031 454.656 455.396 453.917 457 453.375C458.625 452.833 460.438 452.562 462.438 452.562C465.271 452.562 467.698 453.042 469.719 454C471.76 454.938 473.323 456.219 474.406 457.844C475.49 459.448 476.031 461.26 476.031 463.281H468.5C468.5 462.385 468.271 461.552 467.812 460.781C467.375 459.99 466.708 459.354 465.812 458.875C464.917 458.375 463.792 458.125 462.438 458.125C461.146 458.125 460.073 458.333 459.219 458.75C458.385 459.146 457.76 459.667 457.344 460.312C456.948 460.958 456.75 461.667 456.75 462.438C456.75 463 456.854 463.51 457.062 463.969C457.292 464.406 457.667 464.812 458.188 465.188C458.708 465.542 459.417 465.875 460.312 466.188C461.229 466.5 462.375 466.802 463.75 467.094C466.333 467.635 468.552 468.333 470.406 469.188C472.281 470.021 473.719 471.104 474.719 472.438C475.719 473.75 476.219 475.417 476.219 477.438C476.219 478.938 475.896 480.312 475.25 481.562C474.625 482.792 473.708 483.865 472.5 484.781C471.292 485.677 469.844 486.375 468.156 486.875C466.49 487.375 464.615 487.625 462.531 487.625C459.469 487.625 456.875 487.083 454.75 486C452.625 484.896 451.01 483.49 449.906 481.781C448.823 480.052 448.281 478.26 448.281 476.406H455.562C455.646 477.802 456.031 478.917 456.719 479.75C457.427 480.562 458.302 481.156 459.344 481.531C460.406 481.885 461.5 482.062 462.625 482.062C463.979 482.062 465.115 481.885 466.031 481.531C466.948 481.156 467.646 480.656 468.125 480.031C468.604 479.385 468.844 478.656 468.844 477.844ZM506.531 462.25L514.375 456.969C515.688 456.094 516.625 455.24 517.188 454.406C517.75 453.552 518.031 452.49 518.031 451.219C518.031 450.135 517.615 449.135 516.781 448.219C515.948 447.302 514.771 446.844 513.25 446.844C512.188 446.844 511.292 447.094 510.562 447.594C509.833 448.073 509.281 448.719 508.906 449.531C508.552 450.323 508.375 451.208 508.375 452.188C508.375 453.125 508.615 454.094 509.094 455.094C509.573 456.073 510.229 457.104 511.062 458.188C511.896 459.25 512.833 460.396 513.875 461.625L535.375 487H526.656L509.094 466.344C507.573 464.51 506.229 462.833 505.062 461.312C503.896 459.771 502.99 458.281 502.344 456.844C501.698 455.385 501.375 453.885 501.375 452.344C501.375 449.969 501.865 447.927 502.844 446.219C503.823 444.51 505.208 443.198 507 442.281C508.792 441.344 510.885 440.875 513.281 440.875C515.594 440.875 517.583 441.344 519.25 442.281C520.938 443.198 522.229 444.417 523.125 445.938C524.042 447.458 524.5 449.125 524.5 450.938C524.5 452.375 524.24 453.688 523.719 454.875C523.198 456.062 522.479 457.146 521.562 458.125C520.646 459.104 519.583 460.031 518.375 460.906L508.844 467.844C507.74 468.74 506.917 469.604 506.375 470.438C505.854 471.25 505.51 472 505.344 472.688C505.177 473.375 505.094 473.979 505.094 474.5C505.094 475.833 505.375 477.042 505.938 478.125C506.521 479.208 507.365 480.073 508.469 480.719C509.594 481.344 510.958 481.656 512.562 481.656C514.292 481.656 515.969 481.271 517.594 480.5C519.219 479.708 520.677 478.594 521.969 477.156C523.26 475.719 524.281 474 525.031 472C525.802 470 526.188 467.781 526.188 465.344H532.688C532.688 467.552 532.469 469.646 532.031 471.625C531.615 473.604 530.938 475.438 530 477.125C529.083 478.812 527.875 480.323 526.375 481.656C526.229 481.802 526.062 481.99 525.875 482.219C525.708 482.427 525.542 482.604 525.375 482.75C523.583 484.396 521.573 485.625 519.344 486.438C517.135 487.229 514.781 487.625 512.281 487.625C509.26 487.625 506.646 487.073 504.438 485.969C502.229 484.865 500.521 483.344 499.312 481.406C498.125 479.469 497.531 477.25 497.531 474.75C497.531 472.896 497.917 471.271 498.688 469.875C499.458 468.458 500.51 467.146 501.844 465.938C503.198 464.708 504.76 463.479 506.531 462.25ZM580.438 475.281C580.438 474.344 580.292 473.51 580 472.781C579.729 472.052 579.24 471.385 578.531 470.781C577.823 470.177 576.823 469.594 575.531 469.031C574.26 468.448 572.635 467.854 570.656 467.25C568.49 466.583 566.49 465.844 564.656 465.031C562.844 464.198 561.26 463.24 559.906 462.156C558.552 461.052 557.5 459.792 556.75 458.375C556 456.938 555.625 455.281 555.625 453.406C555.625 451.552 556.01 449.865 556.781 448.344C557.573 446.823 558.688 445.51 560.125 444.406C561.583 443.281 563.302 442.417 565.281 441.812C567.26 441.188 569.448 440.875 571.844 440.875C575.219 440.875 578.125 441.5 580.562 442.75C583.021 444 584.906 445.677 586.219 447.781C587.552 449.885 588.219 452.208 588.219 454.75H580.438C580.438 453.25 580.115 451.927 579.469 450.781C578.844 449.615 577.885 448.698 576.594 448.031C575.323 447.365 573.708 447.031 571.75 447.031C569.896 447.031 568.354 447.312 567.125 447.875C565.896 448.438 564.979 449.198 564.375 450.156C563.771 451.115 563.469 452.198 563.469 453.406C563.469 454.26 563.667 455.042 564.062 455.75C564.458 456.438 565.062 457.083 565.875 457.688C566.688 458.271 567.708 458.823 568.938 459.344C570.167 459.865 571.615 460.365 573.281 460.844C575.802 461.594 578 462.427 579.875 463.344C581.75 464.24 583.312 465.26 584.562 466.406C585.812 467.552 586.75 468.854 587.375 470.312C588 471.75 588.312 473.385 588.312 475.219C588.312 477.135 587.927 478.865 587.156 480.406C586.385 481.927 585.281 483.229 583.844 484.312C582.427 485.375 580.719 486.198 578.719 486.781C576.74 487.344 574.531 487.625 572.094 487.625C569.906 487.625 567.75 487.333 565.625 486.75C563.521 486.167 561.604 485.281 559.875 484.094C558.146 482.885 556.771 481.385 555.75 479.594C554.729 477.781 554.219 475.667 554.219 473.25H562.062C562.062 474.729 562.312 475.99 562.812 477.031C563.333 478.073 564.052 478.927 564.969 479.594C565.885 480.24 566.948 480.719 568.156 481.031C569.385 481.344 570.698 481.5 572.094 481.5C573.927 481.5 575.458 481.24 576.688 480.719C577.938 480.198 578.875 479.469 579.5 478.531C580.125 477.594 580.438 476.51 580.438 475.281ZM609.406 487.625C606.906 487.625 604.646 487.219 602.625 486.406C600.625 485.573 598.917 484.417 597.5 482.938C596.104 481.458 595.031 479.719 594.281 477.719C593.531 475.719 593.156 473.562 593.156 471.25V470C593.156 467.354 593.542 464.958 594.312 462.812C595.083 460.667 596.156 458.833 597.531 457.312C598.906 455.771 600.531 454.594 602.406 453.781C604.281 452.969 606.312 452.562 608.5 452.562C610.917 452.562 613.031 452.969 614.844 453.781C616.656 454.594 618.156 455.74 619.344 457.219C620.552 458.677 621.448 460.417 622.031 462.438C622.635 464.458 622.938 466.688 622.938 469.125V472.344H596.812V466.938H615.5V466.344C615.458 464.99 615.188 463.719 614.688 462.531C614.208 461.344 613.469 460.385 612.469 459.656C611.469 458.927 610.135 458.562 608.469 458.562C607.219 458.562 606.104 458.833 605.125 459.375C604.167 459.896 603.365 460.656 602.719 461.656C602.073 462.656 601.573 463.865 601.219 465.281C600.885 466.677 600.719 468.25 600.719 470V471.25C600.719 472.729 600.917 474.104 601.312 475.375C601.729 476.625 602.333 477.719 603.125 478.656C603.917 479.594 604.875 480.333 606 480.875C607.125 481.396 608.406 481.656 609.844 481.656C611.656 481.656 613.271 481.292 614.688 480.562C616.104 479.833 617.333 478.802 618.375 477.469L622.344 481.312C621.615 482.375 620.667 483.396 619.5 484.375C618.333 485.333 616.906 486.115 615.219 486.719C613.552 487.323 611.615 487.625 609.406 487.625ZM636.375 459.625V487H628.844V453.188H636.031L636.375 459.625ZM646.719 452.969L646.656 459.969C646.198 459.885 645.698 459.823 645.156 459.781C644.635 459.74 644.115 459.719 643.594 459.719C642.302 459.719 641.167 459.906 640.188 460.281C639.208 460.635 638.385 461.156 637.719 461.844C637.073 462.51 636.573 463.323 636.219 464.281C635.865 465.24 635.656 466.312 635.594 467.5L633.875 467.625C633.875 465.5 634.083 463.531 634.5 461.719C634.917 459.906 635.542 458.312 636.375 456.938C637.229 455.562 638.292 454.49 639.562 453.719C640.854 452.948 642.344 452.562 644.031 452.562C644.49 452.562 644.979 452.604 645.5 452.688C646.042 452.771 646.448 452.865 646.719 452.969ZM663 481.031L671.281 453.188H679.094L667.344 487H662.469L663 481.031ZM656.656 453.188L665.094 481.156L665.5 487H660.625L648.812 453.188H656.656ZM691.812 453.188V487H684.25V453.188H691.812ZM683.75 444.312C683.75 443.167 684.125 442.219 684.875 441.469C685.646 440.698 686.708 440.312 688.062 440.312C689.396 440.312 690.448 440.698 691.219 441.469C691.99 442.219 692.375 443.167 692.375 444.312C692.375 445.438 691.99 446.375 691.219 447.125C690.448 447.875 689.396 448.25 688.062 448.25C686.708 448.25 685.646 447.875 684.875 447.125C684.125 446.375 683.75 445.438 683.75 444.312ZM713.875 481.625C715.104 481.625 716.208 481.385 717.188 480.906C718.188 480.406 718.99 479.719 719.594 478.844C720.219 477.969 720.562 476.958 720.625 475.812H727.719C727.677 478 727.031 479.99 725.781 481.781C724.531 483.573 722.875 485 720.812 486.062C718.75 487.104 716.469 487.625 713.969 487.625C711.385 487.625 709.135 487.188 707.219 486.312C705.302 485.417 703.708 484.188 702.438 482.625C701.167 481.062 700.208 479.26 699.562 477.219C698.938 475.177 698.625 472.99 698.625 470.656V469.562C698.625 467.229 698.938 465.042 699.562 463C700.208 460.938 701.167 459.125 702.438 457.562C703.708 456 705.302 454.781 707.219 453.906C709.135 453.01 711.375 452.562 713.938 452.562C716.646 452.562 719.021 453.104 721.062 454.188C723.104 455.25 724.708 456.74 725.875 458.656C727.062 460.552 727.677 462.76 727.719 465.281H720.625C720.562 464.031 720.25 462.906 719.688 461.906C719.146 460.885 718.375 460.073 717.375 459.469C716.396 458.865 715.219 458.562 713.844 458.562C712.323 458.562 711.062 458.875 710.062 459.5C709.062 460.104 708.281 460.938 707.719 462C707.156 463.042 706.75 464.219 706.5 465.531C706.271 466.823 706.156 468.167 706.156 469.562V470.656C706.156 472.052 706.271 473.406 706.5 474.719C706.729 476.031 707.125 477.208 707.688 478.25C708.271 479.271 709.062 480.094 710.062 480.719C711.062 481.323 712.333 481.625 713.875 481.625ZM748.406 487.625C745.906 487.625 743.646 487.219 741.625 486.406C739.625 485.573 737.917 484.417 736.5 482.938C735.104 481.458 734.031 479.719 733.281 477.719C732.531 475.719 732.156 473.562 732.156 471.25V470C732.156 467.354 732.542 464.958 733.312 462.812C734.083 460.667 735.156 458.833 736.531 457.312C737.906 455.771 739.531 454.594 741.406 453.781C743.281 452.969 745.312 452.562 747.5 452.562C749.917 452.562 752.031 452.969 753.844 453.781C755.656 454.594 757.156 455.74 758.344 457.219C759.552 458.677 760.448 460.417 761.031 462.438C761.635 464.458 761.938 466.688 761.938 469.125V472.344H735.812V466.938H754.5V466.344C754.458 464.99 754.188 463.719 753.688 462.531C753.208 461.344 752.469 460.385 751.469 459.656C750.469 458.927 749.135 458.562 747.469 458.562C746.219 458.562 745.104 458.833 744.125 459.375C743.167 459.896 742.365 460.656 741.719 461.656C741.073 462.656 740.573 463.865 740.219 465.281C739.885 466.677 739.719 468.25 739.719 470V471.25C739.719 472.729 739.917 474.104 740.312 475.375C740.729 476.625 741.333 477.719 742.125 478.656C742.917 479.594 743.875 480.333 745 480.875C746.125 481.396 747.406 481.656 748.844 481.656C750.656 481.656 752.271 481.292 753.688 480.562C755.104 479.833 756.333 478.802 757.375 477.469L761.344 481.312C760.615 482.375 759.667 483.396 758.5 484.375C757.333 485.333 755.906 486.115 754.219 486.719C752.552 487.323 750.615 487.625 748.406 487.625ZM801.719 441.5V487H793.938V441.5H801.719ZM816 441.5V447.75H779.781V441.5H816ZM836.125 480.219V464.094C836.125 462.885 835.906 461.844 835.469 460.969C835.031 460.094 834.365 459.417 833.469 458.938C832.594 458.458 831.49 458.219 830.156 458.219C828.927 458.219 827.865 458.427 826.969 458.844C826.073 459.26 825.375 459.823 824.875 460.531C824.375 461.24 824.125 462.042 824.125 462.938H816.625C816.625 461.604 816.948 460.312 817.594 459.062C818.24 457.812 819.177 456.698 820.406 455.719C821.635 454.74 823.104 453.969 824.812 453.406C826.521 452.844 828.438 452.562 830.562 452.562C833.104 452.562 835.354 452.99 837.312 453.844C839.292 454.698 840.844 455.99 841.969 457.719C843.115 459.427 843.688 461.573 843.688 464.156V479.188C843.688 480.729 843.792 482.115 844 483.344C844.229 484.552 844.552 485.604 844.969 486.5V487H837.25C836.896 486.188 836.615 485.156 836.406 483.906C836.219 482.635 836.125 481.406 836.125 480.219ZM837.219 466.438L837.281 471.094H831.875C830.479 471.094 829.25 471.229 828.188 471.5C827.125 471.75 826.24 472.125 825.531 472.625C824.823 473.125 824.292 473.729 823.938 474.438C823.583 475.146 823.406 475.948 823.406 476.844C823.406 477.74 823.615 478.562 824.031 479.312C824.448 480.042 825.052 480.615 825.844 481.031C826.656 481.448 827.635 481.656 828.781 481.656C830.323 481.656 831.667 481.344 832.812 480.719C833.979 480.073 834.896 479.292 835.562 478.375C836.229 477.438 836.583 476.552 836.625 475.719L839.062 479.062C838.812 479.917 838.385 480.833 837.781 481.812C837.177 482.792 836.385 483.729 835.406 484.625C834.448 485.5 833.292 486.219 831.938 486.781C830.604 487.344 829.062 487.625 827.312 487.625C825.104 487.625 823.135 487.188 821.406 486.312C819.677 485.417 818.323 484.219 817.344 482.719C816.365 481.198 815.875 479.479 815.875 477.562C815.875 475.771 816.208 474.188 816.875 472.812C817.562 471.417 818.562 470.25 819.875 469.312C821.208 468.375 822.833 467.667 824.75 467.188C826.667 466.688 828.854 466.438 831.312 466.438H837.219ZM857.312 453.188L863.75 464.406L870.312 453.188H878.594L868.344 469.781L879 487H870.719L863.844 475.312L856.969 487H848.656L859.281 469.781L849.062 453.188H857.312ZM542.188 509.531V515.344H537.062V566.344H542.188V572.188H529.531V509.531H542.188ZM571.312 550.281C571.312 549.344 571.167 548.51 570.875 547.781C570.604 547.052 570.115 546.385 569.406 545.781C568.698 545.177 567.698 544.594 566.406 544.031C565.135 543.448 563.51 542.854 561.531 542.25C559.365 541.583 557.365 540.844 555.531 540.031C553.719 539.198 552.135 538.24 550.781 537.156C549.427 536.052 548.375 534.792 547.625 533.375C546.875 531.938 546.5 530.281 546.5 528.406C546.5 526.552 546.885 524.865 547.656 523.344C548.448 521.823 549.562 520.51 551 519.406C552.458 518.281 554.177 517.417 556.156 516.812C558.135 516.188 560.323 515.875 562.719 515.875C566.094 515.875 569 516.5 571.438 517.75C573.896 519 575.781 520.677 577.094 522.781C578.427 524.885 579.094 527.208 579.094 529.75H571.312C571.312 528.25 570.99 526.927 570.344 525.781C569.719 524.615 568.76 523.698 567.469 523.031C566.198 522.365 564.583 522.031 562.625 522.031C560.771 522.031 559.229 522.312 558 522.875C556.771 523.438 555.854 524.198 555.25 525.156C554.646 526.115 554.344 527.198 554.344 528.406C554.344 529.26 554.542 530.042 554.938 530.75C555.333 531.438 555.938 532.083 556.75 532.688C557.562 533.271 558.583 533.823 559.812 534.344C561.042 534.865 562.49 535.365 564.156 535.844C566.677 536.594 568.875 537.427 570.75 538.344C572.625 539.24 574.188 540.26 575.438 541.406C576.688 542.552 577.625 543.854 578.25 545.312C578.875 546.75 579.188 548.385 579.188 550.219C579.188 552.135 578.802 553.865 578.031 555.406C577.26 556.927 576.156 558.229 574.719 559.312C573.302 560.375 571.594 561.198 569.594 561.781C567.615 562.344 565.406 562.625 562.969 562.625C560.781 562.625 558.625 562.333 556.5 561.75C554.396 561.167 552.479 560.281 550.75 559.094C549.021 557.885 547.646 556.385 546.625 554.594C545.604 552.781 545.094 550.667 545.094 548.25H552.938C552.938 549.729 553.188 550.99 553.688 552.031C554.208 553.073 554.927 553.927 555.844 554.594C556.76 555.24 557.823 555.719 559.031 556.031C560.26 556.344 561.573 556.5 562.969 556.5C564.802 556.5 566.333 556.24 567.562 555.719C568.812 555.198 569.75 554.469 570.375 553.531C571 552.594 571.312 551.51 571.312 550.281ZM610.062 550.281C610.062 549.344 609.917 548.51 609.625 547.781C609.354 547.052 608.865 546.385 608.156 545.781C607.448 545.177 606.448 544.594 605.156 544.031C603.885 543.448 602.26 542.854 600.281 542.25C598.115 541.583 596.115 540.844 594.281 540.031C592.469 539.198 590.885 538.24 589.531 537.156C588.177 536.052 587.125 534.792 586.375 533.375C585.625 531.938 585.25 530.281 585.25 528.406C585.25 526.552 585.635 524.865 586.406 523.344C587.198 521.823 588.312 520.51 589.75 519.406C591.208 518.281 592.927 517.417 594.906 516.812C596.885 516.188 599.073 515.875 601.469 515.875C604.844 515.875 607.75 516.5 610.188 517.75C612.646 519 614.531 520.677 615.844 522.781C617.177 524.885 617.844 527.208 617.844 529.75H610.062C610.062 528.25 609.74 526.927 609.094 525.781C608.469 524.615 607.51 523.698 606.219 523.031C604.948 522.365 603.333 522.031 601.375 522.031C599.521 522.031 597.979 522.312 596.75 522.875C595.521 523.438 594.604 524.198 594 525.156C593.396 526.115 593.094 527.198 593.094 528.406C593.094 529.26 593.292 530.042 593.688 530.75C594.083 531.438 594.688 532.083 595.5 532.688C596.312 533.271 597.333 533.823 598.562 534.344C599.792 534.865 601.24 535.365 602.906 535.844C605.427 536.594 607.625 537.427 609.5 538.344C611.375 539.24 612.938 540.26 614.188 541.406C615.438 542.552 616.375 543.854 617 545.312C617.625 546.75 617.938 548.385 617.938 550.219C617.938 552.135 617.552 553.865 616.781 555.406C616.01 556.927 614.906 558.229 613.469 559.312C612.052 560.375 610.344 561.198 608.344 561.781C606.365 562.344 604.156 562.625 601.719 562.625C599.531 562.625 597.375 562.333 595.25 561.75C593.146 561.167 591.229 560.281 589.5 559.094C587.771 557.885 586.396 556.385 585.375 554.594C584.354 552.781 583.844 550.667 583.844 548.25H591.688C591.688 549.729 591.938 550.99 592.438 552.031C592.958 553.073 593.677 553.927 594.594 554.594C595.51 555.24 596.573 555.719 597.781 556.031C599.01 556.344 600.323 556.5 601.719 556.5C603.552 556.5 605.083 556.24 606.312 555.719C607.562 555.198 608.5 554.469 609.125 553.531C609.75 552.594 610.062 551.51 610.062 550.281ZM643.594 516.5V562H635.812V516.5H643.594ZM657.875 516.5V522.75H621.656V516.5H657.875ZM659.594 515.344V509.531H672.312V572.188H659.594V566.344H664.781V515.344H659.594Z" fill="#1C4670"/>
<path d="M206.503 361H86.911L68.0938 381.143V453.544C68.0938 496.287 102.698 530.95 145.445 530.95C187.535 530.95 222.514 496.996 222.514 453.544V381.143L206.503 361Z" fill="url(#paint0_linear_763_1782)"/>
<path d="M126.703 474.625C120.896 474.625 116.404 472.997 113.227 469.742C110.076 466.487 108.5 461.799 108.5 455.68V424.664C108.5 418.206 109.997 413.258 112.992 409.82C116.013 406.357 120.583 404.625 126.703 404.625C132.849 404.625 137.419 406.357 140.414 409.82C143.409 413.258 144.906 418.206 144.906 424.664V455.68C144.906 461.799 143.331 466.487 140.18 469.742C137.029 472.997 132.536 474.625 126.703 474.625ZM126.703 461.969C127.771 461.969 128.604 461.487 129.203 460.523C129.802 459.56 130.102 458.479 130.102 457.281V423.336C130.102 421.721 129.919 420.315 129.555 419.117C129.216 417.893 128.266 417.281 126.703 417.281C125.141 417.281 124.177 417.893 123.812 419.117C123.474 420.315 123.305 421.721 123.305 423.336V457.281C123.305 458.479 123.604 459.56 124.203 460.523C124.828 461.487 125.661 461.969 126.703 461.969ZM148.891 474V470.719C148.891 467.307 149.411 464.247 150.453 461.539C151.521 458.805 152.888 456.279 154.555 453.961C156.221 451.617 157.979 449.326 159.828 447.086C161.625 444.898 163.331 442.659 164.945 440.367C166.586 438.049 167.914 435.549 168.93 432.867C169.971 430.159 170.492 427.125 170.492 423.766C170.492 422.151 170.245 420.771 169.75 419.625C169.281 418.453 168.292 417.867 166.781 417.867C164.49 417.867 163.344 419.911 163.344 424V432.398H148.891C148.865 431.799 148.826 431.122 148.773 430.367C148.747 429.612 148.734 428.883 148.734 428.18C148.734 423.232 149.255 419.039 150.297 415.602C151.339 412.138 153.174 409.508 155.805 407.711C158.461 405.888 162.185 404.977 166.977 404.977C172.68 404.977 177.107 406.578 180.258 409.781C183.435 412.984 185.023 417.555 185.023 423.492C185.023 427.529 184.503 431.07 183.461 434.117C182.419 437.138 181.039 439.898 179.32 442.398C177.602 444.872 175.714 447.346 173.656 449.82C172.198 451.565 170.779 453.349 169.398 455.172C168.044 456.995 166.846 458.948 165.805 461.031H184.555V474H148.891Z" fill="white"/>
<path d="M239.586 351H51.0938L68.1222 375.349H222.543L239.586 351Z" fill="url(#paint1_linear_763_1782)"/>
<path d="M51.0625 351C41.5014 351 34.0156 358.754 34.0156 368.319V375.349H68.1093V368.319C68.1093 358.754 60.6272 351 51.0625 351Z" fill="url(#paint2_linear_763_1782)"/>
<path d="M239.562 351C249.131 351 256.617 358.754 256.617 368.319V375.349H222.516V368.319C222.516 358.754 229.998 351 239.562 351Z" fill="url(#paint3_linear_763_1782)"/>
<g filter="url(#filter1_d_763_1782)">
<path fill-rule="evenodd" clip-rule="evenodd" d="M945.959 76C968.066 76 985.981 93.9339 985.959 116.041L985.799 270.146C985.776 292.221 967.874 310.105 945.799 310.105H818.055H74C51.9086 310.105 34 292.196 34 270.105V116C34 93.9086 51.9086 76 74 76H945.959Z" fill="white"/>
</g>
<path d="M431.688 200.188H439.5C439.25 203.167 438.417 205.823 437 208.156C435.583 210.469 433.594 212.292 431.031 213.625C428.469 214.958 425.354 215.625 421.688 215.625C418.875 215.625 416.344 215.125 414.094 214.125C411.844 213.104 409.917 211.667 408.312 209.812C406.708 207.938 405.479 205.677 404.625 203.031C403.792 200.385 403.375 197.427 403.375 194.156V190.375C403.375 187.104 403.802 184.146 404.656 181.5C405.531 178.854 406.781 176.594 408.406 174.719C410.031 172.823 411.979 171.375 414.25 170.375C416.542 169.375 419.115 168.875 421.969 168.875C425.594 168.875 428.656 169.542 431.156 170.875C433.656 172.208 435.594 174.052 436.969 176.406C438.365 178.76 439.219 181.458 439.531 184.5H431.719C431.51 182.542 431.052 180.865 430.344 179.469C429.656 178.073 428.635 177.01 427.281 176.281C425.927 175.531 424.156 175.156 421.969 175.156C420.177 175.156 418.615 175.49 417.281 176.156C415.948 176.823 414.833 177.802 413.938 179.094C413.042 180.385 412.365 181.979 411.906 183.875C411.469 185.75 411.25 187.896 411.25 190.312V194.156C411.25 196.448 411.448 198.531 411.844 200.406C412.26 202.26 412.885 203.854 413.719 205.188C414.573 206.521 415.656 207.552 416.969 208.281C418.281 209.01 419.854 209.375 421.688 209.375C423.917 209.375 425.719 209.021 427.094 208.312C428.49 207.604 429.542 206.573 430.25 205.219C430.979 203.844 431.458 202.167 431.688 200.188ZM444.438 198.469V197.75C444.438 195.312 444.792 193.052 445.5 190.969C446.208 188.865 447.229 187.042 448.562 185.5C449.917 183.938 451.562 182.729 453.5 181.875C455.458 181 457.667 180.562 460.125 180.562C462.604 180.562 464.812 181 466.75 181.875C468.708 182.729 470.365 183.938 471.719 185.5C473.073 187.042 474.104 188.865 474.812 190.969C475.521 193.052 475.875 195.312 475.875 197.75V198.469C475.875 200.906 475.521 203.167 474.812 205.25C474.104 207.333 473.073 209.156 471.719 210.719C470.365 212.26 468.719 213.469 466.781 214.344C464.844 215.198 462.646 215.625 460.188 215.625C457.708 215.625 455.49 215.198 453.531 214.344C451.594 213.469 449.948 212.26 448.594 210.719C447.24 209.156 446.208 207.333 445.5 205.25C444.792 203.167 444.438 200.906 444.438 198.469ZM451.969 197.75V198.469C451.969 199.99 452.125 201.427 452.438 202.781C452.75 204.135 453.24 205.323 453.906 206.344C454.573 207.365 455.427 208.167 456.469 208.75C457.51 209.333 458.75 209.625 460.188 209.625C461.583 209.625 462.792 209.333 463.812 208.75C464.854 208.167 465.708 207.365 466.375 206.344C467.042 205.323 467.531 204.135 467.844 202.781C468.177 201.427 468.344 199.99 468.344 198.469V197.75C468.344 196.25 468.177 194.833 467.844 193.5C467.531 192.146 467.031 190.948 466.344 189.906C465.677 188.865 464.823 188.052 463.781 187.469C462.76 186.865 461.542 186.562 460.125 186.562C458.708 186.562 457.479 186.865 456.438 187.469C455.417 188.052 454.573 188.865 453.906 189.906C453.24 190.948 452.75 192.146 452.438 193.5C452.125 194.833 451.969 196.25 451.969 197.75ZM489.75 187.625V215H482.219V181.188H489.406L489.75 187.625ZM500.094 180.969L500.031 187.969C499.573 187.885 499.073 187.823 498.531 187.781C498.01 187.74 497.49 187.719 496.969 187.719C495.677 187.719 494.542 187.906 493.562 188.281C492.583 188.635 491.76 189.156 491.094 189.844C490.448 190.51 489.948 191.323 489.594 192.281C489.24 193.24 489.031 194.312 488.969 195.5L487.25 195.625C487.25 193.5 487.458 191.531 487.875 189.719C488.292 187.906 488.917 186.312 489.75 184.938C490.604 183.562 491.667 182.49 492.938 181.719C494.229 180.948 495.719 180.562 497.406 180.562C497.865 180.562 498.354 180.604 498.875 180.688C499.417 180.771 499.823 180.865 500.094 180.969ZM512.375 187.688V228H504.844V181.188H511.781L512.375 187.688ZM534.406 197.781V198.438C534.406 200.896 534.115 203.177 533.531 205.281C532.969 207.365 532.125 209.188 531 210.75C529.896 212.292 528.531 213.49 526.906 214.344C525.281 215.198 523.406 215.625 521.281 215.625C519.177 215.625 517.333 215.24 515.75 214.469C514.188 213.677 512.865 212.562 511.781 211.125C510.698 209.688 509.823 208 509.156 206.062C508.51 204.104 508.052 201.958 507.781 199.625V197.094C508.052 194.615 508.51 192.365 509.156 190.344C509.823 188.323 510.698 186.583 511.781 185.125C512.865 183.667 514.188 182.542 515.75 181.75C517.312 180.958 519.135 180.562 521.219 180.562C523.344 180.562 525.229 180.979 526.875 181.812C528.521 182.625 529.906 183.792 531.031 185.312C532.156 186.812 533 188.625 533.562 190.75C534.125 192.854 534.406 195.198 534.406 197.781ZM526.875 198.438V197.781C526.875 196.219 526.729 194.771 526.438 193.438C526.146 192.083 525.688 190.896 525.062 189.875C524.438 188.854 523.635 188.062 522.656 187.5C521.698 186.917 520.542 186.625 519.188 186.625C517.854 186.625 516.708 186.854 515.75 187.312C514.792 187.75 513.99 188.365 513.344 189.156C512.698 189.948 512.198 190.875 511.844 191.938C511.49 192.979 511.24 194.115 511.094 195.344V201.406C511.344 202.906 511.771 204.281 512.375 205.531C512.979 206.781 513.833 207.781 514.938 208.531C516.062 209.26 517.5 209.625 519.25 209.625C520.604 209.625 521.76 209.333 522.719 208.75C523.677 208.167 524.458 207.365 525.062 206.344C525.688 205.302 526.146 204.104 526.438 202.75C526.729 201.396 526.875 199.958 526.875 198.438ZM539.375 198.469V197.75C539.375 195.312 539.729 193.052 540.438 190.969C541.146 188.865 542.167 187.042 543.5 185.5C544.854 183.938 546.5 182.729 548.438 181.875C550.396 181 552.604 180.562 555.062 180.562C557.542 180.562 559.75 181 561.688 181.875C563.646 182.729 565.302 183.938 566.656 185.5C568.01 187.042 569.042 188.865 569.75 190.969C570.458 193.052 570.812 195.312 570.812 197.75V198.469C570.812 200.906 570.458 203.167 569.75 205.25C569.042 207.333 568.01 209.156 566.656 210.719C565.302 212.26 563.656 213.469 561.719 214.344C559.781 215.198 557.583 215.625 555.125 215.625C552.646 215.625 550.427 215.198 548.469 214.344C546.531 213.469 544.885 212.26 543.531 210.719C542.177 209.156 541.146 207.333 540.438 205.25C539.729 203.167 539.375 200.906 539.375 198.469ZM546.906 197.75V198.469C546.906 199.99 547.062 201.427 547.375 202.781C547.688 204.135 548.177 205.323 548.844 206.344C549.51 207.365 550.365 208.167 551.406 208.75C552.448 209.333 553.688 209.625 555.125 209.625C556.521 209.625 557.729 209.333 558.75 208.75C559.792 208.167 560.646 207.365 561.312 206.344C561.979 205.323 562.469 204.135 562.781 202.781C563.115 201.427 563.281 199.99 563.281 198.469V197.75C563.281 196.25 563.115 194.833 562.781 193.5C562.469 192.146 561.969 190.948 561.281 189.906C560.615 188.865 559.76 188.052 558.719 187.469C557.698 186.865 556.479 186.562 555.062 186.562C553.646 186.562 552.417 186.865 551.375 187.469C550.354 188.052 549.51 188.865 548.844 189.906C548.177 190.948 547.688 192.146 547.375 193.5C547.062 194.833 546.906 196.25 546.906 197.75ZM584.688 187.625V215H577.156V181.188H584.344L584.688 187.625ZM595.031 180.969L594.969 187.969C594.51 187.885 594.01 187.823 593.469 187.781C592.948 187.74 592.427 187.719 591.906 187.719C590.615 187.719 589.479 187.906 588.5 188.281C587.521 188.635 586.698 189.156 586.031 189.844C585.385 190.51 584.885 191.323 584.531 192.281C584.177 193.24 583.969 194.312 583.906 195.5L582.188 195.625C582.188 193.5 582.396 191.531 582.812 189.719C583.229 187.906 583.854 186.312 584.688 184.938C585.542 183.562 586.604 182.49 587.875 181.719C589.167 180.948 590.656 180.562 592.344 180.562C592.802 180.562 593.292 180.604 593.812 180.688C594.354 180.771 594.76 180.865 595.031 180.969ZM617.688 208.219V192.094C617.688 190.885 617.469 189.844 617.031 188.969C616.594 188.094 615.927 187.417 615.031 186.938C614.156 186.458 613.052 186.219 611.719 186.219C610.49 186.219 609.427 186.427 608.531 186.844C607.635 187.26 606.938 187.823 606.438 188.531C605.938 189.24 605.688 190.042 605.688 190.938H598.188C598.188 189.604 598.51 188.312 599.156 187.062C599.802 185.812 600.74 184.698 601.969 183.719C603.198 182.74 604.667 181.969 606.375 181.406C608.083 180.844 610 180.562 612.125 180.562C614.667 180.562 616.917 180.99 618.875 181.844C620.854 182.698 622.406 183.99 623.531 185.719C624.677 187.427 625.25 189.573 625.25 192.156V207.188C625.25 208.729 625.354 210.115 625.562 211.344C625.792 212.552 626.115 213.604 626.531 214.5V215H618.812C618.458 214.188 618.177 213.156 617.969 211.906C617.781 210.635 617.688 209.406 617.688 208.219ZM618.781 194.438L618.844 199.094H613.438C612.042 199.094 610.812 199.229 609.75 199.5C608.688 199.75 607.802 200.125 607.094 200.625C606.385 201.125 605.854 201.729 605.5 202.438C605.146 203.146 604.969 203.948 604.969 204.844C604.969 205.74 605.177 206.562 605.594 207.312C606.01 208.042 606.615 208.615 607.406 209.031C608.219 209.448 609.198 209.656 610.344 209.656C611.885 209.656 613.229 209.344 614.375 208.719C615.542 208.073 616.458 207.292 617.125 206.375C617.792 205.438 618.146 204.552 618.188 203.719L620.625 207.062C620.375 207.917 619.948 208.833 619.344 209.812C618.74 210.792 617.948 211.729 616.969 212.625C616.01 213.5 614.854 214.219 613.5 214.781C612.167 215.344 610.625 215.625 608.875 215.625C606.667 215.625 604.698 215.188 602.969 214.312C601.24 213.417 599.885 212.219 598.906 210.719C597.927 209.198 597.438 207.479 597.438 205.562C597.438 203.771 597.771 202.188 598.438 200.812C599.125 199.417 600.125 198.25 601.438 197.312C602.771 196.375 604.396 195.667 606.312 195.188C608.229 194.688 610.417 194.438 612.875 194.438H618.781ZM648.625 181.188V186.688H629.562V181.188H648.625ZM635.062 172.906H642.594V205.656C642.594 206.698 642.74 207.5 643.031 208.062C643.344 208.604 643.771 208.969 644.312 209.156C644.854 209.344 645.49 209.438 646.219 209.438C646.74 209.438 647.24 209.406 647.719 209.344C648.198 209.281 648.583 209.219 648.875 209.156L648.906 214.906C648.281 215.094 647.552 215.26 646.719 215.406C645.906 215.552 644.969 215.625 643.906 215.625C642.177 215.625 640.646 215.323 639.312 214.719C637.979 214.094 636.938 213.083 636.188 211.688C635.438 210.292 635.062 208.438 635.062 206.125V172.906ZM669.344 215.625C666.844 215.625 664.583 215.219 662.562 214.406C660.562 213.573 658.854 212.417 657.438 210.938C656.042 209.458 654.969 207.719 654.219 205.719C653.469 203.719 653.094 201.562 653.094 199.25V198C653.094 195.354 653.479 192.958 654.25 190.812C655.021 188.667 656.094 186.833 657.469 185.312C658.844 183.771 660.469 182.594 662.344 181.781C664.219 180.969 666.25 180.562 668.438 180.562C670.854 180.562 672.969 180.969 674.781 181.781C676.594 182.594 678.094 183.74 679.281 185.219C680.49 186.677 681.385 188.417 681.969 190.438C682.573 192.458 682.875 194.688 682.875 197.125V200.344H656.75V194.938H675.438V194.344C675.396 192.99 675.125 191.719 674.625 190.531C674.146 189.344 673.406 188.385 672.406 187.656C671.406 186.927 670.073 186.562 668.406 186.562C667.156 186.562 666.042 186.833 665.062 187.375C664.104 187.896 663.302 188.656 662.656 189.656C662.01 190.656 661.51 191.865 661.156 193.281C660.823 194.677 660.656 196.25 660.656 198V199.25C660.656 200.729 660.854 202.104 661.25 203.375C661.667 204.625 662.271 205.719 663.062 206.656C663.854 207.594 664.812 208.333 665.938 208.875C667.062 209.396 668.344 209.656 669.781 209.656C671.594 209.656 673.208 209.292 674.625 208.562C676.042 207.833 677.271 206.802 678.312 205.469L682.281 209.312C681.552 210.375 680.604 211.396 679.438 212.375C678.271 213.333 676.844 214.115 675.156 214.719C673.49 215.323 671.552 215.625 669.344 215.625ZM722.656 169.5V215H714.875V169.5H722.656ZM736.938 169.5V175.75H700.719V169.5H736.938ZM757.062 208.219V192.094C757.062 190.885 756.844 189.844 756.406 188.969C755.969 188.094 755.302 187.417 754.406 186.938C753.531 186.458 752.427 186.219 751.094 186.219C749.865 186.219 748.802 186.427 747.906 186.844C747.01 187.26 746.312 187.823 745.812 188.531C745.312 189.24 745.062 190.042 745.062 190.938H737.562C737.562 189.604 737.885 188.312 738.531 187.062C739.177 185.812 740.115 184.698 741.344 183.719C742.573 182.74 744.042 181.969 745.75 181.406C747.458 180.844 749.375 180.562 751.5 180.562C754.042 180.562 756.292 180.99 758.25 181.844C760.229 182.698 761.781 183.99 762.906 185.719C764.052 187.427 764.625 189.573 764.625 192.156V207.188C764.625 208.729 764.729 210.115 764.938 211.344C765.167 212.552 765.49 213.604 765.906 214.5V215H758.188C757.833 214.188 757.552 213.156 757.344 211.906C757.156 210.635 757.062 209.406 757.062 208.219ZM758.156 194.438L758.219 199.094H752.812C751.417 199.094 750.188 199.229 749.125 199.5C748.062 199.75 747.177 200.125 746.469 200.625C745.76 201.125 745.229 201.729 744.875 202.438C744.521 203.146 744.344 203.948 744.344 204.844C744.344 205.74 744.552 206.562 744.969 207.312C745.385 208.042 745.99 208.615 746.781 209.031C747.594 209.448 748.573 209.656 749.719 209.656C751.26 209.656 752.604 209.344 753.75 208.719C754.917 208.073 755.833 207.292 756.5 206.375C757.167 205.438 757.521 204.552 757.562 203.719L760 207.062C759.75 207.917 759.323 208.833 758.719 209.812C758.115 210.792 757.323 211.729 756.344 212.625C755.385 213.5 754.229 214.219 752.875 214.781C751.542 215.344 750 215.625 748.25 215.625C746.042 215.625 744.073 215.188 742.344 214.312C740.615 213.417 739.26 212.219 738.281 210.719C737.302 209.198 736.812 207.479 736.812 205.562C736.812 203.771 737.146 202.188 737.812 200.812C738.5 199.417 739.5 198.25 740.812 197.312C742.146 196.375 743.771 195.667 745.688 195.188C747.604 194.688 749.792 194.438 752.25 194.438H758.156ZM778.25 181.188L784.688 192.406L791.25 181.188H799.531L789.281 197.781L799.938 215H791.656L784.781 203.312L777.906 215H769.594L780.219 197.781L770 181.188H778.25Z" fill="#1C4670"/>
<path d="M206.511 52H86.9188L68.1016 72.1433V144.547C68.1016 187.295 102.706 221.954 145.453 221.954C187.543 221.954 222.522 187.996 222.522 144.547V72.1433L206.511 52Z" fill="url(#paint4_linear_763_1782)"/>
<path d="M130.75 161.625C124.943 161.625 120.451 159.997 117.273 156.742C114.122 153.487 112.547 148.799 112.547 142.68V111.664C112.547 105.206 114.044 100.258 117.039 96.8203C120.06 93.3568 124.63 91.625 130.75 91.625C136.896 91.625 141.466 93.3568 144.461 96.8203C147.456 100.258 148.953 105.206 148.953 111.664V142.68C148.953 148.799 147.378 153.487 144.227 156.742C141.076 159.997 136.583 161.625 130.75 161.625ZM130.75 148.969C131.818 148.969 132.651 148.487 133.25 147.523C133.849 146.56 134.148 145.479 134.148 144.281V110.336C134.148 108.721 133.966 107.315 133.602 106.117C133.263 104.893 132.312 104.281 130.75 104.281C129.188 104.281 128.224 104.893 127.859 106.117C127.521 107.315 127.352 108.721 127.352 110.336V144.281C127.352 145.479 127.651 146.56 128.25 147.523C128.875 148.487 129.708 148.969 130.75 148.969ZM160.008 161V108.031C159.07 109.151 157.781 110.062 156.141 110.766C154.5 111.443 152.951 111.781 151.492 111.781V100.805C152.872 100.596 154.357 100.154 155.945 99.4766C157.534 98.7734 159.005 97.8229 160.359 96.625C161.74 95.401 162.794 93.9297 163.523 92.2109H174.578V161H160.008Z" fill="white"/>
<path d="M239.586 52H51.0938L68.1222 76.3489H222.543L239.586 52Z" fill="url(#paint5_linear_763_1782)"/>
<path d="M51.0625 52C41.5014 52 34.0156 59.7539 34.0156 69.3223V76.3489H68.1093V69.3223C68.1093 59.7539 60.6272 52 51.0625 52Z" fill="url(#paint6_linear_763_1782)"/>
<path d="M239.562 52C249.131 52 256.617 59.7539 256.617 69.3223V76.3489H222.516V69.3223C222.516 59.7539 229.998 52 239.562 52Z" fill="url(#paint7_linear_763_1782)"/>
<g filter="url(#filter2_d_763_1782)">
<path fill-rule="evenodd" clip-rule="evenodd" d="M945.959 986C968.066 986 985.981 1003.93 985.959 1026.04L985.799 1180.15C985.776 1202.22 967.874 1220.11 945.799 1220.11H818.055H74C51.9086 1220.11 34 1202.2 34 1180.11V1026C34 1003.91 51.9086 986 74 986H945.959Z" fill="white"/>
</g>
<path d="M462.875 1112.28C462.875 1111.34 462.729 1110.51 462.438 1109.78C462.167 1109.05 461.677 1108.39 460.969 1107.78C460.26 1107.18 459.26 1106.59 457.969 1106.03C456.698 1105.45 455.073 1104.85 453.094 1104.25C450.927 1103.58 448.927 1102.84 447.094 1102.03C445.281 1101.2 443.698 1100.24 442.344 1099.16C440.99 1098.05 439.938 1096.79 439.188 1095.38C438.438 1093.94 438.062 1092.28 438.062 1090.41C438.062 1088.55 438.448 1086.86 439.219 1085.34C440.01 1083.82 441.125 1082.51 442.562 1081.41C444.021 1080.28 445.74 1079.42 447.719 1078.81C449.698 1078.19 451.885 1077.88 454.281 1077.88C457.656 1077.88 460.562 1078.5 463 1079.75C465.458 1081 467.344 1082.68 468.656 1084.78C469.99 1086.89 470.656 1089.21 470.656 1091.75H462.875C462.875 1090.25 462.552 1088.93 461.906 1087.78C461.281 1086.61 460.323 1085.7 459.031 1085.03C457.76 1084.36 456.146 1084.03 454.188 1084.03C452.333 1084.03 450.792 1084.31 449.562 1084.88C448.333 1085.44 447.417 1086.2 446.812 1087.16C446.208 1088.11 445.906 1089.2 445.906 1090.41C445.906 1091.26 446.104 1092.04 446.5 1092.75C446.896 1093.44 447.5 1094.08 448.312 1094.69C449.125 1095.27 450.146 1095.82 451.375 1096.34C452.604 1096.86 454.052 1097.36 455.719 1097.84C458.24 1098.59 460.438 1099.43 462.312 1100.34C464.188 1101.24 465.75 1102.26 467 1103.41C468.25 1104.55 469.188 1105.85 469.812 1107.31C470.438 1108.75 470.75 1110.39 470.75 1112.22C470.75 1114.14 470.365 1115.86 469.594 1117.41C468.823 1118.93 467.719 1120.23 466.281 1121.31C464.865 1122.38 463.156 1123.2 461.156 1123.78C459.177 1124.34 456.969 1124.62 454.531 1124.62C452.344 1124.62 450.188 1124.33 448.062 1123.75C445.958 1123.17 444.042 1122.28 442.312 1121.09C440.583 1119.89 439.208 1118.39 438.188 1116.59C437.167 1114.78 436.656 1112.67 436.656 1110.25H444.5C444.5 1111.73 444.75 1112.99 445.25 1114.03C445.771 1115.07 446.49 1115.93 447.406 1116.59C448.323 1117.24 449.385 1117.72 450.594 1118.03C451.823 1118.34 453.135 1118.5 454.531 1118.5C456.365 1118.5 457.896 1118.24 459.125 1117.72C460.375 1117.2 461.312 1116.47 461.938 1115.53C462.562 1114.59 462.875 1113.51 462.875 1112.28ZM492.438 1090.19V1095.69H473.375V1090.19H492.438ZM478.875 1081.91H486.406V1114.66C486.406 1115.7 486.552 1116.5 486.844 1117.06C487.156 1117.6 487.583 1117.97 488.125 1118.16C488.667 1118.34 489.302 1118.44 490.031 1118.44C490.552 1118.44 491.052 1118.41 491.531 1118.34C492.01 1118.28 492.396 1118.22 492.688 1118.16L492.719 1123.91C492.094 1124.09 491.365 1124.26 490.531 1124.41C489.719 1124.55 488.781 1124.62 487.719 1124.62C485.99 1124.62 484.458 1124.32 483.125 1123.72C481.792 1123.09 480.75 1122.08 480 1120.69C479.25 1119.29 478.875 1117.44 478.875 1115.12V1081.91ZM517.312 1117.22V1101.09C517.312 1099.89 517.094 1098.84 516.656 1097.97C516.219 1097.09 515.552 1096.42 514.656 1095.94C513.781 1095.46 512.677 1095.22 511.344 1095.22C510.115 1095.22 509.052 1095.43 508.156 1095.84C507.26 1096.26 506.562 1096.82 506.062 1097.53C505.562 1098.24 505.312 1099.04 505.312 1099.94H497.812C497.812 1098.6 498.135 1097.31 498.781 1096.06C499.427 1094.81 500.365 1093.7 501.594 1092.72C502.823 1091.74 504.292 1090.97 506 1090.41C507.708 1089.84 509.625 1089.56 511.75 1089.56C514.292 1089.56 516.542 1089.99 518.5 1090.84C520.479 1091.7 522.031 1092.99 523.156 1094.72C524.302 1096.43 524.875 1098.57 524.875 1101.16V1116.19C524.875 1117.73 524.979 1119.11 525.188 1120.34C525.417 1121.55 525.74 1122.6 526.156 1123.5V1124H518.438C518.083 1123.19 517.802 1122.16 517.594 1120.91C517.406 1119.64 517.312 1118.41 517.312 1117.22ZM518.406 1103.44L518.469 1108.09H513.062C511.667 1108.09 510.438 1108.23 509.375 1108.5C508.312 1108.75 507.427 1109.12 506.719 1109.62C506.01 1110.12 505.479 1110.73 505.125 1111.44C504.771 1112.15 504.594 1112.95 504.594 1113.84C504.594 1114.74 504.802 1115.56 505.219 1116.31C505.635 1117.04 506.24 1117.61 507.031 1118.03C507.844 1118.45 508.823 1118.66 509.969 1118.66C511.51 1118.66 512.854 1118.34 514 1117.72C515.167 1117.07 516.083 1116.29 516.75 1115.38C517.417 1114.44 517.771 1113.55 517.812 1112.72L520.25 1116.06C520 1116.92 519.573 1117.83 518.969 1118.81C518.365 1119.79 517.573 1120.73 516.594 1121.62C515.635 1122.5 514.479 1123.22 513.125 1123.78C511.792 1124.34 510.25 1124.62 508.5 1124.62C506.292 1124.62 504.323 1124.19 502.594 1123.31C500.865 1122.42 499.51 1121.22 498.531 1119.72C497.552 1118.2 497.062 1116.48 497.062 1114.56C497.062 1112.77 497.396 1111.19 498.062 1109.81C498.75 1108.42 499.75 1107.25 501.062 1106.31C502.396 1105.38 504.021 1104.67 505.938 1104.19C507.854 1103.69 510.042 1103.44 512.5 1103.44H518.406ZM540.281 1097.06V1124H532.75V1090.19H539.844L540.281 1097.06ZM539.062 1105.84L536.5 1105.81C536.5 1103.48 536.792 1101.32 537.375 1099.34C537.958 1097.36 538.812 1095.65 539.938 1094.19C541.062 1092.71 542.458 1091.57 544.125 1090.78C545.812 1089.97 547.76 1089.56 549.969 1089.56C551.51 1089.56 552.917 1089.79 554.188 1090.25C555.479 1090.69 556.594 1091.39 557.531 1092.34C558.49 1093.3 559.219 1094.53 559.719 1096.03C560.24 1097.53 560.5 1099.34 560.5 1101.47V1124H552.969V1102.12C552.969 1100.48 552.719 1099.19 552.219 1098.25C551.74 1097.31 551.042 1096.65 550.125 1096.25C549.229 1095.83 548.156 1095.62 546.906 1095.62C545.49 1095.62 544.281 1095.9 543.281 1096.44C542.302 1096.98 541.5 1097.72 540.875 1098.66C540.25 1099.59 539.792 1100.68 539.5 1101.91C539.208 1103.14 539.062 1104.45 539.062 1105.84ZM560.031 1103.84L556.5 1104.62C556.5 1102.58 556.781 1100.66 557.344 1098.84C557.927 1097.01 558.771 1095.41 559.875 1094.03C561 1092.64 562.385 1091.54 564.031 1090.75C565.677 1089.96 567.562 1089.56 569.688 1089.56C571.417 1089.56 572.958 1089.8 574.312 1090.28C575.688 1090.74 576.854 1091.47 577.812 1092.47C578.771 1093.47 579.5 1094.77 580 1096.38C580.5 1097.96 580.75 1099.88 580.75 1102.12V1124H573.188V1102.09C573.188 1100.39 572.938 1099.06 572.438 1098.12C571.958 1097.19 571.271 1096.54 570.375 1096.19C569.479 1095.81 568.406 1095.62 567.156 1095.62C565.99 1095.62 564.958 1095.84 564.062 1096.28C563.188 1096.7 562.448 1097.29 561.844 1098.06C561.24 1098.81 560.781 1099.68 560.469 1100.66C560.177 1101.64 560.031 1102.7 560.031 1103.84ZM596.062 1096.69V1137H588.531V1090.19H595.469L596.062 1096.69ZM618.094 1106.78V1107.44C618.094 1109.9 617.802 1112.18 617.219 1114.28C616.656 1116.36 615.812 1118.19 614.688 1119.75C613.583 1121.29 612.219 1122.49 610.594 1123.34C608.969 1124.2 607.094 1124.62 604.969 1124.62C602.865 1124.62 601.021 1124.24 599.438 1123.47C597.875 1122.68 596.552 1121.56 595.469 1120.12C594.385 1118.69 593.51 1117 592.844 1115.06C592.198 1113.1 591.74 1110.96 591.469 1108.62V1106.09C591.74 1103.61 592.198 1101.36 592.844 1099.34C593.51 1097.32 594.385 1095.58 595.469 1094.12C596.552 1092.67 597.875 1091.54 599.438 1090.75C601 1089.96 602.823 1089.56 604.906 1089.56C607.031 1089.56 608.917 1089.98 610.562 1090.81C612.208 1091.62 613.594 1092.79 614.719 1094.31C615.844 1095.81 616.688 1097.62 617.25 1099.75C617.812 1101.85 618.094 1104.2 618.094 1106.78ZM610.562 1107.44V1106.78C610.562 1105.22 610.417 1103.77 610.125 1102.44C609.833 1101.08 609.375 1099.9 608.75 1098.88C608.125 1097.85 607.323 1097.06 606.344 1096.5C605.385 1095.92 604.229 1095.62 602.875 1095.62C601.542 1095.62 600.396 1095.85 599.438 1096.31C598.479 1096.75 597.677 1097.36 597.031 1098.16C596.385 1098.95 595.885 1099.88 595.531 1100.94C595.177 1101.98 594.927 1103.11 594.781 1104.34V1110.41C595.031 1111.91 595.458 1113.28 596.062 1114.53C596.667 1115.78 597.521 1116.78 598.625 1117.53C599.75 1118.26 601.188 1118.62 602.938 1118.62C604.292 1118.62 605.448 1118.33 606.406 1117.75C607.365 1117.17 608.146 1116.36 608.75 1115.34C609.375 1114.3 609.833 1113.1 610.125 1111.75C610.417 1110.4 610.562 1108.96 610.562 1107.44ZM654.406 1124H644.688L644.75 1117.78H654.406C657.219 1117.78 659.573 1117.17 661.469 1115.94C663.385 1114.71 664.823 1112.95 665.781 1110.66C666.76 1108.36 667.25 1105.64 667.25 1102.47V1100C667.25 1097.54 666.969 1095.36 666.406 1093.47C665.865 1091.57 665.052 1089.98 663.969 1088.69C662.906 1087.4 661.594 1086.42 660.031 1085.75C658.49 1085.08 656.708 1084.75 654.688 1084.75H644.5V1078.5H654.688C657.708 1078.5 660.469 1079.01 662.969 1080.03C665.469 1081.03 667.625 1082.48 669.438 1084.38C671.271 1086.27 672.677 1088.54 673.656 1091.19C674.635 1093.83 675.125 1096.79 675.125 1100.06V1102.47C675.125 1105.74 674.635 1108.7 673.656 1111.34C672.677 1113.99 671.271 1116.26 669.438 1118.16C667.604 1120.03 665.417 1121.48 662.875 1122.5C660.354 1123.5 657.531 1124 654.406 1124ZM649.031 1078.5V1124H641.188V1078.5H649.031ZM702.594 1116.03V1090.19H710.156V1124H703.031L702.594 1116.03ZM703.656 1109L706.188 1108.94C706.188 1111.21 705.938 1113.3 705.438 1115.22C704.938 1117.11 704.167 1118.77 703.125 1120.19C702.083 1121.58 700.75 1122.68 699.125 1123.47C697.5 1124.24 695.552 1124.62 693.281 1124.62C691.635 1124.62 690.125 1124.39 688.75 1123.91C687.375 1123.43 686.188 1122.69 685.188 1121.69C684.208 1120.69 683.448 1119.39 682.906 1117.78C682.365 1116.18 682.094 1114.26 682.094 1112.03V1090.19H689.625V1112.09C689.625 1113.32 689.771 1114.35 690.062 1115.19C690.354 1116 690.75 1116.66 691.25 1117.16C691.75 1117.66 692.333 1118.01 693 1118.22C693.667 1118.43 694.375 1118.53 695.125 1118.53C697.271 1118.53 698.958 1118.11 700.188 1117.28C701.438 1116.43 702.323 1115.28 702.844 1113.84C703.385 1112.41 703.656 1110.79 703.656 1109ZM733.375 1090.19V1095.69H714.312V1090.19H733.375ZM719.812 1081.91H727.344V1114.66C727.344 1115.7 727.49 1116.5 727.781 1117.06C728.094 1117.6 728.521 1117.97 729.062 1118.16C729.604 1118.34 730.24 1118.44 730.969 1118.44C731.49 1118.44 731.99 1118.41 732.469 1118.34C732.948 1118.28 733.333 1118.22 733.625 1118.16L733.656 1123.91C733.031 1124.09 732.302 1124.26 731.469 1124.41C730.656 1124.55 729.719 1124.62 728.656 1124.62C726.927 1124.62 725.396 1124.32 724.062 1123.72C722.729 1123.09 721.688 1122.08 720.938 1120.69C720.188 1119.29 719.812 1117.44 719.812 1115.12V1081.91ZM749 1120.31L758.188 1090.19H766.25L752.688 1129.16C752.375 1129.99 751.969 1130.9 751.469 1131.88C750.969 1132.85 750.312 1133.78 749.5 1134.66C748.708 1135.55 747.719 1136.27 746.531 1136.81C745.344 1137.38 743.906 1137.66 742.219 1137.66C741.552 1137.66 740.906 1137.59 740.281 1137.47C739.677 1137.36 739.104 1137.25 738.562 1137.12L738.531 1131.38C738.74 1131.4 738.99 1131.42 739.281 1131.44C739.594 1131.46 739.844 1131.47 740.031 1131.47C741.281 1131.47 742.323 1131.31 743.156 1131C743.99 1130.71 744.667 1130.23 745.188 1129.56C745.729 1128.9 746.188 1128 746.562 1126.88L749 1120.31ZM743.812 1090.19L751.844 1115.5L753.188 1123.44L747.969 1124.78L735.688 1090.19H743.812Z" fill="#1C4670"/>
<path d="M206.503 961H86.911L68.0938 981.143V1053.54C68.0938 1096.29 102.698 1130.95 145.445 1130.95C187.535 1130.95 222.514 1097 222.514 1053.54V981.143L206.503 961Z" fill="url(#paint8_linear_763_1782)"/>
<path d="M125.703 1073.62C119.896 1073.62 115.404 1072 112.227 1068.74C109.076 1065.49 107.5 1060.8 107.5 1054.68V1023.66C107.5 1017.21 108.997 1012.26 111.992 1008.82C115.013 1005.36 119.583 1003.62 125.703 1003.62C131.849 1003.62 136.419 1005.36 139.414 1008.82C142.409 1012.26 143.906 1017.21 143.906 1023.66V1054.68C143.906 1060.8 142.331 1065.49 139.18 1068.74C136.029 1072 131.536 1073.62 125.703 1073.62ZM125.703 1060.97C126.771 1060.97 127.604 1060.49 128.203 1059.52C128.802 1058.56 129.102 1057.48 129.102 1056.28V1022.34C129.102 1020.72 128.919 1019.32 128.555 1018.12C128.216 1016.89 127.266 1016.28 125.703 1016.28C124.141 1016.28 123.177 1016.89 122.812 1018.12C122.474 1019.32 122.305 1020.72 122.305 1022.34V1056.28C122.305 1057.48 122.604 1058.56 123.203 1059.52C123.828 1060.49 124.661 1060.97 125.703 1060.97ZM166.562 1073.04V1062.14H146.172V1051.4L159.18 1004.21H180.586V1050.66H184.258V1062.14H180.586V1073.04H166.562ZM158.438 1050.66H166.562V1016.01L158.438 1050.66Z" fill="white"/>
<path d="M239.586 961H51.0938L68.1222 985.349H222.543L239.586 961Z" fill="url(#paint9_linear_763_1782)"/>
<path d="M51.0625 961C41.5014 961 34.0156 968.754 34.0156 978.319V985.349H68.1093V978.319C68.1093 968.754 60.6272 961 51.0625 961Z" fill="url(#paint10_linear_763_1782)"/>
<path d="M239.562 961C249.131 961 256.617 968.754 256.617 978.319V985.349H222.516V978.319C222.516 968.754 229.998 961 239.562 961Z" fill="url(#paint11_linear_763_1782)"/>
<g filter="url(#filter3_d_763_1782)">
<path fill-rule="evenodd" clip-rule="evenodd" d="M945.959 690C968.066 690 985.981 707.934 985.959 730.041L985.799 884.146C985.776 906.221 967.874 924.105 945.799 924.105H818.055H74C51.9086 924.105 34 906.196 34 884.105V730C34 707.909 51.9086 690 74 690H945.959Z" fill="white"/>
</g>
<path d="M206.511 667H86.9188L68.1016 687.143V759.547C68.1016 802.295 102.706 836.954 145.453 836.954C187.543 836.954 222.522 802.996 222.522 759.547V687.143L206.511 667Z" fill="url(#paint12_linear_763_1782)"/>
<path d="M127.703 779.625C121.896 779.625 117.404 777.997 114.227 774.742C111.076 771.487 109.5 766.799 109.5 760.68V729.664C109.5 723.206 110.997 718.258 113.992 714.82C117.013 711.357 121.583 709.625 127.703 709.625C133.849 709.625 138.419 711.357 141.414 714.82C144.409 718.258 145.906 723.206 145.906 729.664V760.68C145.906 766.799 144.331 771.487 141.18 774.742C138.029 777.997 133.536 779.625 127.703 779.625ZM127.703 766.969C128.771 766.969 129.604 766.487 130.203 765.523C130.802 764.56 131.102 763.479 131.102 762.281V728.336C131.102 726.721 130.919 725.315 130.555 724.117C130.216 722.893 129.266 722.281 127.703 722.281C126.141 722.281 125.177 722.893 124.812 724.117C124.474 725.315 124.305 726.721 124.305 728.336V762.281C124.305 763.479 124.604 764.56 125.203 765.523C125.828 766.487 126.661 766.969 127.703 766.969ZM166.375 779.781C160.307 779.781 155.893 778.18 153.133 774.977C150.372 771.773 148.992 766.943 148.992 760.484V753.297H163.094V760.523C163.094 762.346 163.315 763.896 163.758 765.172C164.227 766.422 165.255 767.047 166.844 767.047C168.458 767.047 169.487 766.37 169.93 765.016C170.372 763.635 170.594 761.396 170.594 758.297V756.578C170.594 754.208 170.19 752.138 169.383 750.367C168.602 748.596 167.052 747.711 164.734 747.711C164.448 747.711 164.188 747.724 163.953 747.75C163.745 747.75 163.562 747.763 163.406 747.789V735.445C165.776 735.445 167.586 734.924 168.836 733.883C170.086 732.815 170.711 731.044 170.711 728.57C170.711 724.69 169.591 722.75 167.352 722.75C165.893 722.75 164.904 723.323 164.383 724.469C163.888 725.589 163.641 727.021 163.641 728.766V730.836H149.422C149.396 730.523 149.37 730.146 149.344 729.703C149.344 729.26 149.344 728.831 149.344 728.414C149.344 722.112 150.815 717.49 153.758 714.547C156.701 711.604 161.206 710.133 167.273 710.133C178.992 710.133 184.852 716.227 184.852 728.414C184.852 731.799 184.396 734.599 183.484 736.812C182.573 739 180.88 740.536 178.406 741.422C180.359 742.359 181.805 743.557 182.742 745.016C183.68 746.474 184.292 748.284 184.578 750.445C184.865 752.607 185.008 755.224 185.008 758.297C185.008 765.172 183.562 770.471 180.672 774.195C177.807 777.919 173.042 779.781 166.375 779.781Z" fill="white"/>
<path d="M239.586 657H51.0938L68.1222 681.349H222.543L239.586 657Z" fill="url(#paint13_linear_763_1782)"/>
<path d="M51.0625 657C41.5014 657 34.0156 664.754 34.0156 674.322V681.349H68.1093V674.322C68.1093 664.754 60.6272 657 51.0625 657Z" fill="url(#paint14_linear_763_1782)"/>
<path d="M239.562 657C249.131 657 256.617 664.754 256.617 674.322V681.349H222.516V674.322C222.516 664.754 229.998 657 239.562 657Z" fill="url(#paint15_linear_763_1782)"/>
<g filter="url(#filter4_d_763_1782)">
<path fill-rule="evenodd" clip-rule="evenodd" d="M945.959 1272C968.066 1272 985.981 1289.93 985.959 1312.04L985.799 1466.15C985.776 1488.22 967.874 1506.1 945.799 1506.1H818.055H74C51.9086 1506.1 34 1488.2 34 1466.1V1312C34 1289.91 51.9086 1272 74 1272H945.959Z" fill="white"/>
</g>
<path d="M206.511 1267H86.9188L68.1016 1287.14V1359.55C68.1016 1402.29 102.706 1436.95 145.453 1436.95C187.543 1436.95 222.522 1403 222.522 1359.55V1287.14L206.511 1267Z" fill="url(#paint16_linear_763_1782)"/>
<path d="M127.703 1379.62C121.896 1379.62 117.404 1378 114.227 1374.74C111.076 1371.49 109.5 1366.8 109.5 1360.68V1329.66C109.5 1323.21 110.997 1318.26 113.992 1314.82C117.013 1311.36 121.583 1309.62 127.703 1309.62C133.849 1309.62 138.419 1311.36 141.414 1314.82C144.409 1318.26 145.906 1323.21 145.906 1329.66V1360.68C145.906 1366.8 144.331 1371.49 141.18 1374.74C138.029 1378 133.536 1379.62 127.703 1379.62ZM127.703 1366.97C128.771 1366.97 129.604 1366.49 130.203 1365.52C130.802 1364.56 131.102 1363.48 131.102 1362.28V1328.34C131.102 1326.72 130.919 1325.32 130.555 1324.12C130.216 1322.89 129.266 1322.28 127.703 1322.28C126.141 1322.28 125.177 1322.89 124.812 1324.12C124.474 1325.32 124.305 1326.72 124.305 1328.34V1362.28C124.305 1363.48 124.604 1364.56 125.203 1365.52C125.828 1366.49 126.661 1366.97 127.703 1366.97ZM167.234 1379.98C161.948 1379.98 157.625 1378.67 154.266 1376.07C150.932 1373.44 149.266 1369.42 149.266 1364V1353.77H163.562V1359.66C163.562 1360.89 163.628 1362.07 163.758 1363.22C163.914 1364.36 164.253 1365.3 164.773 1366.03C165.294 1366.76 166.115 1367.12 167.234 1367.12C168.719 1367.12 169.695 1366.63 170.164 1365.64C170.633 1364.62 170.867 1363.34 170.867 1361.77V1348.26C170.867 1347.14 170.789 1346.03 170.633 1344.94C170.503 1343.84 170.19 1342.93 169.695 1342.2C169.201 1341.47 168.406 1341.11 167.312 1341.11C164.708 1341.11 163.406 1343 163.406 1346.77H150.789V1310.21H183.562V1323.1H163.836V1332.79C164.513 1331.96 165.424 1331.23 166.57 1330.6C167.742 1329.95 169.109 1329.62 170.672 1329.62C173.797 1329.62 176.336 1330.22 178.289 1331.42C180.268 1332.62 181.779 1334.29 182.82 1336.42C183.888 1338.56 184.617 1341.03 185.008 1343.84C185.424 1346.66 185.633 1349.68 185.633 1352.91C185.633 1357.05 185.411 1360.78 184.969 1364.12C184.552 1367.42 183.706 1370.26 182.43 1372.63C181.18 1375 179.331 1376.83 176.883 1378.1C174.461 1379.35 171.245 1379.98 167.234 1379.98Z" fill="white"/>
<path d="M239.586 1257H51.0938L68.1222 1281.35H222.543L239.586 1257Z" fill="url(#paint17_linear_763_1782)"/>
<path d="M51.0625 1257C41.5014 1257 34.0156 1264.75 34.0156 1274.32V1281.35H68.1093V1274.32C68.1093 1264.75 60.6272 1257 51.0625 1257Z" fill="url(#paint18_linear_763_1782)"/>
<path d="M239.562 1257C249.131 1257 256.617 1264.75 256.617 1274.32V1281.35H222.516V1274.32C222.516 1264.75 229.998 1257 239.562 1257Z" fill="url(#paint19_linear_763_1782)"/>
<path d="M388.031 825.781L397.094 790.5H401.844L401.312 799.594L391.625 836H386.688L388.031 825.781ZM381.25 790.5L388.594 825.5L389.25 836H384L373.469 790.5H381.25ZM412.125 825.406L419.375 790.5H427.188L416.656 836H411.406L412.125 825.406ZM403.688 790.5L412.656 825.875L413.969 836H409.031L399.5 799.594L399 790.5H403.688ZM440.312 802.188V836H432.75V802.188H440.312ZM432.25 793.312C432.25 792.167 432.625 791.219 433.375 790.469C434.146 789.698 435.208 789.312 436.562 789.312C437.896 789.312 438.948 789.698 439.719 790.469C440.49 791.219 440.875 792.167 440.875 793.312C440.875 794.438 440.49 795.375 439.719 796.125C438.948 796.875 437.896 797.25 436.562 797.25C435.208 797.25 434.146 796.875 433.375 796.125C432.625 795.375 432.25 794.438 432.25 793.312ZM464.062 802.188V807.688H445V802.188H464.062ZM450.5 793.906H458.031V826.656C458.031 827.698 458.177 828.5 458.469 829.062C458.781 829.604 459.208 829.969 459.75 830.156C460.292 830.344 460.927 830.438 461.656 830.438C462.177 830.438 462.677 830.406 463.156 830.344C463.635 830.281 464.021 830.219 464.312 830.156L464.344 835.906C463.719 836.094 462.99 836.26 462.156 836.406C461.344 836.552 460.406 836.625 459.344 836.625C457.615 836.625 456.083 836.323 454.75 835.719C453.417 835.094 452.375 834.083 451.625 832.688C450.875 831.292 450.5 829.438 450.5 827.125V793.906ZM477.312 788V836H469.812V788H477.312ZM476 817.844L473.562 817.812C473.583 815.479 473.906 813.323 474.531 811.344C475.177 809.365 476.073 807.646 477.219 806.188C478.385 804.708 479.781 803.573 481.406 802.781C483.031 801.969 484.833 801.562 486.812 801.562C488.479 801.562 489.979 801.792 491.312 802.25C492.667 802.708 493.833 803.448 494.812 804.469C495.792 805.469 496.531 806.781 497.031 808.406C497.552 810.01 497.812 811.969 497.812 814.281V836H490.25V814.219C490.25 812.594 490.01 811.302 489.531 810.344C489.073 809.385 488.396 808.698 487.5 808.281C486.604 807.844 485.51 807.625 484.219 807.625C482.865 807.625 481.667 807.896 480.625 808.438C479.604 808.979 478.75 809.719 478.062 810.656C477.375 811.594 476.854 812.677 476.5 813.906C476.167 815.135 476 816.448 476 817.844ZM512.875 788V836H505.375V788H512.875ZM511.562 817.844L509.125 817.812C509.146 815.479 509.469 813.323 510.094 811.344C510.74 809.365 511.635 807.646 512.781 806.188C513.948 804.708 515.344 803.573 516.969 802.781C518.594 801.969 520.396 801.562 522.375 801.562C524.042 801.562 525.542 801.792 526.875 802.25C528.229 802.708 529.396 803.448 530.375 804.469C531.354 805.469 532.094 806.781 532.594 808.406C533.115 810.01 533.375 811.969 533.375 814.281V836H525.812V814.219C525.812 812.594 525.573 811.302 525.094 810.344C524.635 809.385 523.958 808.698 523.062 808.281C522.167 807.844 521.073 807.625 519.781 807.625C518.427 807.625 517.229 807.896 516.188 808.438C515.167 808.979 514.312 809.719 513.625 810.656C512.938 811.594 512.417 812.677 512.062 813.906C511.729 815.135 511.562 816.448 511.562 817.844ZM539.562 819.469V818.75C539.562 816.312 539.917 814.052 540.625 811.969C541.333 809.865 542.354 808.042 543.688 806.5C545.042 804.938 546.688 803.729 548.625 802.875C550.583 802 552.792 801.562 555.25 801.562C557.729 801.562 559.938 802 561.875 802.875C563.833 803.729 565.49 804.938 566.844 806.5C568.198 808.042 569.229 809.865 569.938 811.969C570.646 814.052 571 816.312 571 818.75V819.469C571 821.906 570.646 824.167 569.938 826.25C569.229 828.333 568.198 830.156 566.844 831.719C565.49 833.26 563.844 834.469 561.906 835.344C559.969 836.198 557.771 836.625 555.312 836.625C552.833 836.625 550.615 836.198 548.656 835.344C546.719 834.469 545.073 833.26 543.719 831.719C542.365 830.156 541.333 828.333 540.625 826.25C539.917 824.167 539.562 821.906 539.562 819.469ZM547.094 818.75V819.469C547.094 820.99 547.25 822.427 547.562 823.781C547.875 825.135 548.365 826.323 549.031 827.344C549.698 828.365 550.552 829.167 551.594 829.75C552.635 830.333 553.875 830.625 555.312 830.625C556.708 830.625 557.917 830.333 558.938 829.75C559.979 829.167 560.833 828.365 561.5 827.344C562.167 826.323 562.656 825.135 562.969 823.781C563.302 822.427 563.469 820.99 563.469 819.469V818.75C563.469 817.25 563.302 815.833 562.969 814.5C562.656 813.146 562.156 811.948 561.469 810.906C560.802 809.865 559.948 809.052 558.906 808.469C557.885 807.865 556.667 807.562 555.25 807.562C553.833 807.562 552.604 807.865 551.562 808.469C550.542 809.052 549.698 809.865 549.031 810.906C548.365 811.948 547.875 813.146 547.562 814.5C547.25 815.833 547.094 817.25 547.094 818.75ZM585.375 788V836H577.812V788H585.375ZM614.25 829V788H621.812V836H614.969L614.25 829ZM592.25 819.469V818.812C592.25 816.25 592.552 813.917 593.156 811.812C593.76 809.688 594.635 807.865 595.781 806.344C596.927 804.802 598.323 803.625 599.969 802.812C601.615 801.979 603.469 801.562 605.531 801.562C607.573 801.562 609.365 801.958 610.906 802.75C612.448 803.542 613.76 804.677 614.844 806.156C615.927 807.615 616.792 809.365 617.438 811.406C618.083 813.427 618.542 815.677 618.812 818.156V820.25C618.542 822.667 618.083 824.875 617.438 826.875C616.792 828.875 615.927 830.604 614.844 832.062C613.76 833.521 612.438 834.646 610.875 835.438C609.333 836.229 607.531 836.625 605.469 836.625C603.427 836.625 601.583 836.198 599.938 835.344C598.312 834.49 596.927 833.292 595.781 831.75C594.635 830.208 593.76 828.396 593.156 826.312C592.552 824.208 592.25 821.927 592.25 819.469ZM599.781 818.812V819.469C599.781 821.01 599.917 822.448 600.188 823.781C600.479 825.115 600.927 826.292 601.531 827.312C602.135 828.312 602.917 829.104 603.875 829.688C604.854 830.25 606.021 830.531 607.375 830.531C609.083 830.531 610.49 830.156 611.594 829.406C612.698 828.656 613.562 827.646 614.188 826.375C614.833 825.083 615.271 823.646 615.5 822.062V816.406C615.375 815.177 615.115 814.031 614.719 812.969C614.344 811.906 613.833 810.979 613.188 810.188C612.542 809.375 611.74 808.75 610.781 808.312C609.844 807.854 608.729 807.625 607.438 807.625C606.062 807.625 604.896 807.917 603.938 808.5C602.979 809.083 602.188 809.885 601.562 810.906C600.958 811.927 600.51 813.115 600.219 814.469C599.927 815.823 599.781 817.271 599.781 818.812ZM637.75 802.188V836H630.188V802.188H637.75ZM629.688 793.312C629.688 792.167 630.062 791.219 630.812 790.469C631.583 789.698 632.646 789.312 634 789.312C635.333 789.312 636.385 789.698 637.156 790.469C637.927 791.219 638.312 792.167 638.312 793.312C638.312 794.438 637.927 795.375 637.156 796.125C636.385 796.875 635.333 797.25 634 797.25C632.646 797.25 631.583 796.875 630.812 796.125C630.062 795.375 629.688 794.438 629.688 793.312ZM653.469 809.406V836H645.938V802.188H653.031L653.469 809.406ZM652.125 817.844L649.688 817.812C649.708 815.417 650.042 813.219 650.688 811.219C651.354 809.219 652.271 807.5 653.438 806.062C654.625 804.625 656.042 803.521 657.688 802.75C659.333 801.958 661.167 801.562 663.188 801.562C664.812 801.562 666.281 801.792 667.594 802.25C668.927 802.688 670.062 803.406 671 804.406C671.958 805.406 672.688 806.708 673.188 808.312C673.688 809.896 673.938 811.844 673.938 814.156V836H666.375V814.125C666.375 812.5 666.135 811.219 665.656 810.281C665.198 809.323 664.521 808.646 663.625 808.25C662.75 807.833 661.656 807.625 660.344 807.625C659.052 807.625 657.896 807.896 656.875 808.438C655.854 808.979 654.99 809.719 654.281 810.656C653.594 811.594 653.062 812.677 652.688 813.906C652.312 815.135 652.125 816.448 652.125 817.844ZM703.281 802.188H710.125V835.062C710.125 838.104 709.479 840.688 708.188 842.812C706.896 844.938 705.094 846.552 702.781 847.656C700.469 848.781 697.792 849.344 694.75 849.344C693.458 849.344 692.021 849.156 690.438 848.781C688.875 848.406 687.354 847.802 685.875 846.969C684.417 846.156 683.198 845.083 682.219 843.75L685.75 839.312C686.958 840.75 688.292 841.802 689.75 842.469C691.208 843.135 692.74 843.469 694.344 843.469C696.073 843.469 697.542 843.146 698.75 842.5C699.979 841.875 700.927 840.948 701.594 839.719C702.26 838.49 702.594 836.99 702.594 835.219V809.844L703.281 802.188ZM680.312 819.469V818.812C680.312 816.25 680.625 813.917 681.25 811.812C681.875 809.688 682.771 807.865 683.938 806.344C685.104 804.802 686.521 803.625 688.188 802.812C689.854 801.979 691.74 801.562 693.844 801.562C696.031 801.562 697.896 801.958 699.438 802.75C701 803.542 702.302 804.677 703.344 806.156C704.385 807.615 705.198 809.365 705.781 811.406C706.385 813.427 706.833 815.677 707.125 818.156V820.25C706.854 822.667 706.396 824.875 705.75 826.875C705.104 828.875 704.25 830.604 703.188 832.062C702.125 833.521 700.812 834.646 699.25 835.438C697.708 836.229 695.885 836.625 693.781 836.625C691.719 836.625 689.854 836.198 688.188 835.344C686.542 834.49 685.125 833.292 683.938 831.75C682.771 830.208 681.875 828.396 681.25 826.312C680.625 824.208 680.312 821.927 680.312 819.469ZM687.844 818.812V819.469C687.844 821.01 687.99 822.448 688.281 823.781C688.594 825.115 689.062 826.292 689.688 827.312C690.333 828.312 691.146 829.104 692.125 829.688C693.125 830.25 694.302 830.531 695.656 830.531C697.427 830.531 698.875 830.156 700 829.406C701.146 828.656 702.021 827.646 702.625 826.375C703.25 825.083 703.688 823.646 703.938 822.062V816.406C703.812 815.177 703.552 814.031 703.156 812.969C702.781 811.906 702.271 810.979 701.625 810.188C700.979 809.375 700.167 808.75 699.188 808.312C698.208 807.854 697.052 807.625 695.719 807.625C694.365 807.625 693.188 807.917 692.188 808.5C691.188 809.083 690.365 809.885 689.719 810.906C689.094 811.927 688.625 813.115 688.312 814.469C688 815.823 687.844 817.271 687.844 818.812ZM751.844 790.5V836H744.062V790.5H751.844ZM766.125 790.5V796.75H729.906V790.5H766.125ZM786.25 829.219V813.094C786.25 811.885 786.031 810.844 785.594 809.969C785.156 809.094 784.49 808.417 783.594 807.938C782.719 807.458 781.615 807.219 780.281 807.219C779.052 807.219 777.99 807.427 777.094 807.844C776.198 808.26 775.5 808.823 775 809.531C774.5 810.24 774.25 811.042 774.25 811.938H766.75C766.75 810.604 767.073 809.312 767.719 808.062C768.365 806.812 769.302 805.698 770.531 804.719C771.76 803.74 773.229 802.969 774.938 802.406C776.646 801.844 778.562 801.562 780.688 801.562C783.229 801.562 785.479 801.99 787.438 802.844C789.417 803.698 790.969 804.99 792.094 806.719C793.24 808.427 793.812 810.573 793.812 813.156V828.188C793.812 829.729 793.917 831.115 794.125 832.344C794.354 833.552 794.677 834.604 795.094 835.5V836H787.375C787.021 835.188 786.74 834.156 786.531 832.906C786.344 831.635 786.25 830.406 786.25 829.219ZM787.344 815.438L787.406 820.094H782C780.604 820.094 779.375 820.229 778.312 820.5C777.25 820.75 776.365 821.125 775.656 821.625C774.948 822.125 774.417 822.729 774.062 823.438C773.708 824.146 773.531 824.948 773.531 825.844C773.531 826.74 773.74 827.562 774.156 828.312C774.573 829.042 775.177 829.615 775.969 830.031C776.781 830.448 777.76 830.656 778.906 830.656C780.448 830.656 781.792 830.344 782.938 829.719C784.104 829.073 785.021 828.292 785.688 827.375C786.354 826.438 786.708 825.552 786.75 824.719L789.188 828.062C788.938 828.917 788.51 829.833 787.906 830.812C787.302 831.792 786.51 832.729 785.531 833.625C784.573 834.5 783.417 835.219 782.062 835.781C780.729 836.344 779.188 836.625 777.438 836.625C775.229 836.625 773.26 836.188 771.531 835.312C769.802 834.417 768.448 833.219 767.469 831.719C766.49 830.198 766 828.479 766 826.562C766 824.771 766.333 823.188 767 821.812C767.688 820.417 768.688 819.25 770 818.312C771.333 817.375 772.958 816.667 774.875 816.188C776.792 815.688 778.979 815.438 781.438 815.438H787.344ZM807.438 802.188L813.875 813.406L820.438 802.188H828.719L818.469 818.781L829.125 836H820.844L813.969 824.312L807.094 836H798.781L809.406 818.781L799.188 802.188H807.438Z" fill="#1C4670"/>
<path d="M338.844 1333.5H354.938C358.396 1333.5 361.344 1334.02 363.781 1335.06C366.219 1336.1 368.083 1337.65 369.375 1339.69C370.688 1341.71 371.344 1344.21 371.344 1347.19C371.344 1349.46 370.927 1351.46 370.094 1353.19C369.26 1354.92 368.083 1356.38 366.562 1357.56C365.042 1358.73 363.229 1359.64 361.125 1360.28L358.75 1361.44H344.281L344.219 1355.22H355.062C356.938 1355.22 358.5 1354.89 359.75 1354.22C361 1353.55 361.938 1352.65 362.562 1351.5C363.208 1350.33 363.531 1349.02 363.531 1347.56C363.531 1345.98 363.219 1344.6 362.594 1343.44C361.99 1342.25 361.052 1341.34 359.781 1340.72C358.51 1340.07 356.896 1339.75 354.938 1339.75H346.688V1379H338.844V1333.5ZM364.812 1379L354.125 1358.56L362.344 1358.53L373.188 1378.59V1379H364.812ZM393.312 1379.62C390.812 1379.62 388.552 1379.22 386.531 1378.41C384.531 1377.57 382.823 1376.42 381.406 1374.94C380.01 1373.46 378.938 1371.72 378.188 1369.72C377.438 1367.72 377.062 1365.56 377.062 1363.25V1362C377.062 1359.35 377.448 1356.96 378.219 1354.81C378.99 1352.67 380.062 1350.83 381.438 1349.31C382.812 1347.77 384.438 1346.59 386.312 1345.78C388.188 1344.97 390.219 1344.56 392.406 1344.56C394.823 1344.56 396.938 1344.97 398.75 1345.78C400.562 1346.59 402.062 1347.74 403.25 1349.22C404.458 1350.68 405.354 1352.42 405.938 1354.44C406.542 1356.46 406.844 1358.69 406.844 1361.12V1364.34H380.719V1358.94H399.406V1358.34C399.365 1356.99 399.094 1355.72 398.594 1354.53C398.115 1353.34 397.375 1352.39 396.375 1351.66C395.375 1350.93 394.042 1350.56 392.375 1350.56C391.125 1350.56 390.01 1350.83 389.031 1351.38C388.073 1351.9 387.271 1352.66 386.625 1353.66C385.979 1354.66 385.479 1355.86 385.125 1357.28C384.792 1358.68 384.625 1360.25 384.625 1362V1363.25C384.625 1364.73 384.823 1366.1 385.219 1367.38C385.635 1368.62 386.24 1369.72 387.031 1370.66C387.823 1371.59 388.781 1372.33 389.906 1372.88C391.031 1373.4 392.312 1373.66 393.75 1373.66C395.562 1373.66 397.177 1373.29 398.594 1372.56C400.01 1371.83 401.24 1370.8 402.281 1369.47L406.25 1373.31C405.521 1374.38 404.573 1375.4 403.406 1376.38C402.24 1377.33 400.812 1378.11 399.125 1378.72C397.458 1379.32 395.521 1379.62 393.312 1379.62ZM431.781 1372.22V1356.09C431.781 1354.89 431.562 1353.84 431.125 1352.97C430.688 1352.09 430.021 1351.42 429.125 1350.94C428.25 1350.46 427.146 1350.22 425.812 1350.22C424.583 1350.22 423.521 1350.43 422.625 1350.84C421.729 1351.26 421.031 1351.82 420.531 1352.53C420.031 1353.24 419.781 1354.04 419.781 1354.94H412.281C412.281 1353.6 412.604 1352.31 413.25 1351.06C413.896 1349.81 414.833 1348.7 416.062 1347.72C417.292 1346.74 418.76 1345.97 420.469 1345.41C422.177 1344.84 424.094 1344.56 426.219 1344.56C428.76 1344.56 431.01 1344.99 432.969 1345.84C434.948 1346.7 436.5 1347.99 437.625 1349.72C438.771 1351.43 439.344 1353.57 439.344 1356.16V1371.19C439.344 1372.73 439.448 1374.11 439.656 1375.34C439.885 1376.55 440.208 1377.6 440.625 1378.5V1379H432.906C432.552 1378.19 432.271 1377.16 432.062 1375.91C431.875 1374.64 431.781 1373.41 431.781 1372.22ZM432.875 1358.44L432.938 1363.09H427.531C426.135 1363.09 424.906 1363.23 423.844 1363.5C422.781 1363.75 421.896 1364.12 421.188 1364.62C420.479 1365.12 419.948 1365.73 419.594 1366.44C419.24 1367.15 419.062 1367.95 419.062 1368.84C419.062 1369.74 419.271 1370.56 419.688 1371.31C420.104 1372.04 420.708 1372.61 421.5 1373.03C422.312 1373.45 423.292 1373.66 424.438 1373.66C425.979 1373.66 427.323 1373.34 428.469 1372.72C429.635 1372.07 430.552 1371.29 431.219 1370.38C431.885 1369.44 432.24 1368.55 432.281 1367.72L434.719 1371.06C434.469 1371.92 434.042 1372.83 433.438 1373.81C432.833 1374.79 432.042 1375.73 431.062 1376.62C430.104 1377.5 428.948 1378.22 427.594 1378.78C426.26 1379.34 424.719 1379.62 422.969 1379.62C420.76 1379.62 418.792 1379.19 417.062 1378.31C415.333 1377.42 413.979 1376.22 413 1374.72C412.021 1373.2 411.531 1371.48 411.531 1369.56C411.531 1367.77 411.865 1366.19 412.531 1364.81C413.219 1363.42 414.219 1362.25 415.531 1361.31C416.865 1360.38 418.49 1359.67 420.406 1359.19C422.323 1358.69 424.51 1358.44 426.969 1358.44H432.875ZM455.281 1331V1379H447.719V1331H455.281ZM497.5 1362.03H485.656V1355.81H497.5C499.562 1355.81 501.229 1355.48 502.5 1354.81C503.771 1354.15 504.698 1353.23 505.281 1352.06C505.885 1350.88 506.188 1349.52 506.188 1348C506.188 1346.56 505.885 1345.22 505.281 1343.97C504.698 1342.7 503.771 1341.68 502.5 1340.91C501.229 1340.14 499.562 1339.75 497.5 1339.75H488.062V1379H480.219V1333.5H497.5C501.021 1333.5 504.01 1334.12 506.469 1335.38C508.948 1336.6 510.833 1338.31 512.125 1340.5C513.417 1342.67 514.062 1345.15 514.062 1347.94C514.062 1350.88 513.417 1353.4 512.125 1355.5C510.833 1357.6 508.948 1359.22 506.469 1360.34C504.01 1361.47 501.021 1362.03 497.5 1362.03ZM527.906 1351.62V1379H520.375V1345.19H527.562L527.906 1351.62ZM538.25 1344.97L538.188 1351.97C537.729 1351.89 537.229 1351.82 536.688 1351.78C536.167 1351.74 535.646 1351.72 535.125 1351.72C533.833 1351.72 532.698 1351.91 531.719 1352.28C530.74 1352.64 529.917 1353.16 529.25 1353.84C528.604 1354.51 528.104 1355.32 527.75 1356.28C527.396 1357.24 527.188 1358.31 527.125 1359.5L525.406 1359.62C525.406 1357.5 525.615 1355.53 526.031 1353.72C526.448 1351.91 527.073 1350.31 527.906 1348.94C528.76 1347.56 529.823 1346.49 531.094 1345.72C532.385 1344.95 533.875 1344.56 535.562 1344.56C536.021 1344.56 536.51 1344.6 537.031 1344.69C537.573 1344.77 537.979 1344.86 538.25 1344.97ZM540.719 1362.47V1361.75C540.719 1359.31 541.073 1357.05 541.781 1354.97C542.49 1352.86 543.51 1351.04 544.844 1349.5C546.198 1347.94 547.844 1346.73 549.781 1345.88C551.74 1345 553.948 1344.56 556.406 1344.56C558.885 1344.56 561.094 1345 563.031 1345.88C564.99 1346.73 566.646 1347.94 568 1349.5C569.354 1351.04 570.385 1352.86 571.094 1354.97C571.802 1357.05 572.156 1359.31 572.156 1361.75V1362.47C572.156 1364.91 571.802 1367.17 571.094 1369.25C570.385 1371.33 569.354 1373.16 568 1374.72C566.646 1376.26 565 1377.47 563.062 1378.34C561.125 1379.2 558.927 1379.62 556.469 1379.62C553.99 1379.62 551.771 1379.2 549.812 1378.34C547.875 1377.47 546.229 1376.26 544.875 1374.72C543.521 1373.16 542.49 1371.33 541.781 1369.25C541.073 1367.17 540.719 1364.91 540.719 1362.47ZM548.25 1361.75V1362.47C548.25 1363.99 548.406 1365.43 548.719 1366.78C549.031 1368.14 549.521 1369.32 550.188 1370.34C550.854 1371.36 551.708 1372.17 552.75 1372.75C553.792 1373.33 555.031 1373.62 556.469 1373.62C557.865 1373.62 559.073 1373.33 560.094 1372.75C561.135 1372.17 561.99 1371.36 562.656 1370.34C563.323 1369.32 563.812 1368.14 564.125 1366.78C564.458 1365.43 564.625 1363.99 564.625 1362.47V1361.75C564.625 1360.25 564.458 1358.83 564.125 1357.5C563.812 1356.15 563.312 1354.95 562.625 1353.91C561.958 1352.86 561.104 1352.05 560.062 1351.47C559.042 1350.86 557.823 1350.56 556.406 1350.56C554.99 1350.56 553.76 1350.86 552.719 1351.47C551.698 1352.05 550.854 1352.86 550.188 1353.91C549.521 1354.95 549.031 1356.15 548.719 1357.5C548.406 1358.83 548.25 1360.25 548.25 1361.75ZM586.031 1351.69V1392H578.5V1345.19H585.438L586.031 1351.69ZM608.062 1361.78V1362.44C608.062 1364.9 607.771 1367.18 607.188 1369.28C606.625 1371.36 605.781 1373.19 604.656 1374.75C603.552 1376.29 602.188 1377.49 600.562 1378.34C598.938 1379.2 597.062 1379.62 594.938 1379.62C592.833 1379.62 590.99 1379.24 589.406 1378.47C587.844 1377.68 586.521 1376.56 585.438 1375.12C584.354 1373.69 583.479 1372 582.812 1370.06C582.167 1368.1 581.708 1365.96 581.438 1363.62V1361.09C581.708 1358.61 582.167 1356.36 582.812 1354.34C583.479 1352.32 584.354 1350.58 585.438 1349.12C586.521 1347.67 587.844 1346.54 589.406 1345.75C590.969 1344.96 592.792 1344.56 594.875 1344.56C597 1344.56 598.885 1344.98 600.531 1345.81C602.177 1346.62 603.562 1347.79 604.688 1349.31C605.812 1350.81 606.656 1352.62 607.219 1354.75C607.781 1356.85 608.062 1359.2 608.062 1361.78ZM600.531 1362.44V1361.78C600.531 1360.22 600.385 1358.77 600.094 1357.44C599.802 1356.08 599.344 1354.9 598.719 1353.88C598.094 1352.85 597.292 1352.06 596.312 1351.5C595.354 1350.92 594.198 1350.62 592.844 1350.62C591.51 1350.62 590.365 1350.85 589.406 1351.31C588.448 1351.75 587.646 1352.36 587 1353.16C586.354 1353.95 585.854 1354.88 585.5 1355.94C585.146 1356.98 584.896 1358.11 584.75 1359.34V1365.41C585 1366.91 585.427 1368.28 586.031 1369.53C586.635 1370.78 587.49 1371.78 588.594 1372.53C589.719 1373.26 591.156 1373.62 592.906 1373.62C594.26 1373.62 595.417 1373.33 596.375 1372.75C597.333 1372.17 598.115 1371.36 598.719 1370.34C599.344 1369.3 599.802 1368.1 600.094 1366.75C600.385 1365.4 600.531 1363.96 600.531 1362.44ZM629.375 1379.62C626.875 1379.62 624.615 1379.22 622.594 1378.41C620.594 1377.57 618.885 1376.42 617.469 1374.94C616.073 1373.46 615 1371.72 614.25 1369.72C613.5 1367.72 613.125 1365.56 613.125 1363.25V1362C613.125 1359.35 613.51 1356.96 614.281 1354.81C615.052 1352.67 616.125 1350.83 617.5 1349.31C618.875 1347.77 620.5 1346.59 622.375 1345.78C624.25 1344.97 626.281 1344.56 628.469 1344.56C630.885 1344.56 633 1344.97 634.812 1345.78C636.625 1346.59 638.125 1347.74 639.312 1349.22C640.521 1350.68 641.417 1352.42 642 1354.44C642.604 1356.46 642.906 1358.69 642.906 1361.12V1364.34H616.781V1358.94H635.469V1358.34C635.427 1356.99 635.156 1355.72 634.656 1354.53C634.177 1353.34 633.438 1352.39 632.438 1351.66C631.438 1350.93 630.104 1350.56 628.438 1350.56C627.188 1350.56 626.073 1350.83 625.094 1351.38C624.135 1351.9 623.333 1352.66 622.688 1353.66C622.042 1354.66 621.542 1355.86 621.188 1357.28C620.854 1358.68 620.688 1360.25 620.688 1362V1363.25C620.688 1364.73 620.885 1366.1 621.281 1367.38C621.698 1368.62 622.302 1369.72 623.094 1370.66C623.885 1371.59 624.844 1372.33 625.969 1372.88C627.094 1373.4 628.375 1373.66 629.812 1373.66C631.625 1373.66 633.24 1373.29 634.656 1372.56C636.073 1371.83 637.302 1370.8 638.344 1369.47L642.312 1373.31C641.583 1374.38 640.635 1375.4 639.469 1376.38C638.302 1377.33 636.875 1378.11 635.188 1378.72C633.521 1379.32 631.583 1379.62 629.375 1379.62ZM656.344 1351.62V1379H648.812V1345.19H656L656.344 1351.62ZM666.688 1344.97L666.625 1351.97C666.167 1351.89 665.667 1351.82 665.125 1351.78C664.604 1351.74 664.083 1351.72 663.562 1351.72C662.271 1351.72 661.135 1351.91 660.156 1352.28C659.177 1352.64 658.354 1353.16 657.688 1353.84C657.042 1354.51 656.542 1355.32 656.188 1356.28C655.833 1357.24 655.625 1358.31 655.562 1359.5L653.844 1359.62C653.844 1357.5 654.052 1355.53 654.469 1353.72C654.885 1351.91 655.51 1350.31 656.344 1348.94C657.198 1347.56 658.26 1346.49 659.531 1345.72C660.823 1344.95 662.312 1344.56 664 1344.56C664.458 1344.56 664.948 1344.6 665.469 1344.69C666.01 1344.77 666.417 1344.86 666.688 1344.97ZM688.469 1345.19V1350.69H669.406V1345.19H688.469ZM674.906 1336.91H682.438V1369.66C682.438 1370.7 682.583 1371.5 682.875 1372.06C683.188 1372.6 683.615 1372.97 684.156 1373.16C684.698 1373.34 685.333 1373.44 686.062 1373.44C686.583 1373.44 687.083 1373.41 687.562 1373.34C688.042 1373.28 688.427 1373.22 688.719 1373.16L688.75 1378.91C688.125 1379.09 687.396 1379.26 686.562 1379.41C685.75 1379.55 684.812 1379.62 683.75 1379.62C682.021 1379.62 680.49 1379.32 679.156 1378.72C677.823 1378.09 676.781 1377.08 676.031 1375.69C675.281 1374.29 674.906 1372.44 674.906 1370.12V1336.91ZM704.094 1375.31L713.281 1345.19H721.344L707.781 1384.16C707.469 1384.99 707.062 1385.9 706.562 1386.88C706.062 1387.85 705.406 1388.78 704.594 1389.66C703.802 1390.55 702.812 1391.27 701.625 1391.81C700.438 1392.38 699 1392.66 697.312 1392.66C696.646 1392.66 696 1392.59 695.375 1392.47C694.771 1392.36 694.198 1392.25 693.656 1392.12L693.625 1386.38C693.833 1386.4 694.083 1386.42 694.375 1386.44C694.688 1386.46 694.938 1386.47 695.125 1386.47C696.375 1386.47 697.417 1386.31 698.25 1386C699.083 1385.71 699.76 1385.23 700.281 1384.56C700.823 1383.9 701.281 1383 701.656 1381.88L704.094 1375.31ZM698.906 1345.19L706.938 1370.5L708.281 1378.44L703.062 1379.78L690.781 1345.19H698.906ZM777.281 1355.75V1373.12C776.635 1373.98 775.625 1374.92 774.25 1375.94C772.896 1376.94 771.094 1377.8 768.844 1378.53C766.594 1379.26 763.792 1379.62 760.438 1379.62C757.583 1379.62 754.969 1379.15 752.594 1378.19C750.219 1377.21 748.167 1375.78 746.438 1373.91C744.729 1372.03 743.406 1369.75 742.469 1367.06C741.531 1364.35 741.062 1361.27 741.062 1357.81V1354.66C741.062 1351.22 741.49 1348.16 742.344 1345.47C743.219 1342.76 744.469 1340.47 746.094 1338.59C747.719 1336.72 749.677 1335.3 751.969 1334.34C754.281 1333.36 756.896 1332.88 759.812 1332.88C763.542 1332.88 766.625 1333.5 769.062 1334.75C771.521 1335.98 773.417 1337.69 774.75 1339.88C776.083 1342.06 776.927 1344.56 777.281 1347.38H769.594C769.344 1345.79 768.854 1344.38 768.125 1343.12C767.417 1341.88 766.396 1340.9 765.062 1340.19C763.75 1339.46 762.042 1339.09 759.938 1339.09C758.125 1339.09 756.531 1339.44 755.156 1340.12C753.781 1340.81 752.635 1341.82 751.719 1343.16C750.823 1344.49 750.146 1346.11 749.688 1348.03C749.229 1349.95 749 1352.14 749 1354.59V1357.81C749 1360.31 749.26 1362.53 749.781 1364.47C750.323 1366.41 751.094 1368.04 752.094 1369.38C753.115 1370.71 754.354 1371.72 755.812 1372.41C757.271 1373.07 758.917 1373.41 760.75 1373.41C762.542 1373.41 764.01 1373.26 765.156 1372.97C766.302 1372.66 767.208 1372.29 767.875 1371.88C768.562 1371.44 769.094 1371.02 769.469 1370.62V1361.59H760V1355.75H777.281ZM804.281 1372.22V1356.09C804.281 1354.89 804.062 1353.84 803.625 1352.97C803.188 1352.09 802.521 1351.42 801.625 1350.94C800.75 1350.46 799.646 1350.22 798.312 1350.22C797.083 1350.22 796.021 1350.43 795.125 1350.84C794.229 1351.26 793.531 1351.82 793.031 1352.53C792.531 1353.24 792.281 1354.04 792.281 1354.94H784.781C784.781 1353.6 785.104 1352.31 785.75 1351.06C786.396 1349.81 787.333 1348.7 788.562 1347.72C789.792 1346.74 791.26 1345.97 792.969 1345.41C794.677 1344.84 796.594 1344.56 798.719 1344.56C801.26 1344.56 803.51 1344.99 805.469 1345.84C807.448 1346.7 809 1347.99 810.125 1349.72C811.271 1351.43 811.844 1353.57 811.844 1356.16V1371.19C811.844 1372.73 811.948 1374.11 812.156 1375.34C812.385 1376.55 812.708 1377.6 813.125 1378.5V1379H805.406C805.052 1378.19 804.771 1377.16 804.562 1375.91C804.375 1374.64 804.281 1373.41 804.281 1372.22ZM805.375 1358.44L805.438 1363.09H800.031C798.635 1363.09 797.406 1363.23 796.344 1363.5C795.281 1363.75 794.396 1364.12 793.688 1364.62C792.979 1365.12 792.448 1365.73 792.094 1366.44C791.74 1367.15 791.562 1367.95 791.562 1368.84C791.562 1369.74 791.771 1370.56 792.188 1371.31C792.604 1372.04 793.208 1372.61 794 1373.03C794.812 1373.45 795.792 1373.66 796.938 1373.66C798.479 1373.66 799.823 1373.34 800.969 1372.72C802.135 1372.07 803.052 1371.29 803.719 1370.38C804.385 1369.44 804.74 1368.55 804.781 1367.72L807.219 1371.06C806.969 1371.92 806.542 1372.83 805.938 1373.81C805.333 1374.79 804.542 1375.73 803.562 1376.62C802.604 1377.5 801.448 1378.22 800.094 1378.78C798.76 1379.34 797.219 1379.62 795.469 1379.62C793.26 1379.62 791.292 1379.19 789.562 1378.31C787.833 1377.42 786.479 1376.22 785.5 1374.72C784.521 1373.2 784.031 1371.48 784.031 1369.56C784.031 1367.77 784.365 1366.19 785.031 1364.81C785.719 1363.42 786.719 1362.25 788.031 1361.31C789.365 1360.38 790.99 1359.67 792.906 1359.19C794.823 1358.69 797.01 1358.44 799.469 1358.44H805.375ZM827.781 1345.19V1379H820.219V1345.19H827.781ZM819.719 1336.31C819.719 1335.17 820.094 1334.22 820.844 1333.47C821.615 1332.7 822.677 1332.31 824.031 1332.31C825.365 1332.31 826.417 1332.7 827.188 1333.47C827.958 1334.22 828.344 1335.17 828.344 1336.31C828.344 1337.44 827.958 1338.38 827.188 1339.12C826.417 1339.88 825.365 1340.25 824.031 1340.25C822.677 1340.25 821.615 1339.88 820.844 1339.12C820.094 1338.38 819.719 1337.44 819.719 1336.31ZM843.5 1352.41V1379H835.969V1345.19H843.062L843.5 1352.41ZM842.156 1360.84L839.719 1360.81C839.74 1358.42 840.073 1356.22 840.719 1354.22C841.385 1352.22 842.302 1350.5 843.469 1349.06C844.656 1347.62 846.073 1346.52 847.719 1345.75C849.365 1344.96 851.198 1344.56 853.219 1344.56C854.844 1344.56 856.312 1344.79 857.625 1345.25C858.958 1345.69 860.094 1346.41 861.031 1347.41C861.99 1348.41 862.719 1349.71 863.219 1351.31C863.719 1352.9 863.969 1354.84 863.969 1357.16V1379H856.406V1357.12C856.406 1355.5 856.167 1354.22 855.688 1353.28C855.229 1352.32 854.552 1351.65 853.656 1351.25C852.781 1350.83 851.688 1350.62 850.375 1350.62C849.083 1350.62 847.927 1350.9 846.906 1351.44C845.885 1351.98 845.021 1352.72 844.312 1353.66C843.625 1354.59 843.094 1355.68 842.719 1356.91C842.344 1358.14 842.156 1359.45 842.156 1360.84ZM573.594 1408.5V1454H565.812V1408.5H573.594ZM587.875 1408.5V1414.75H551.656V1408.5H587.875ZM608 1447.22V1431.09C608 1429.89 607.781 1428.84 607.344 1427.97C606.906 1427.09 606.24 1426.42 605.344 1425.94C604.469 1425.46 603.365 1425.22 602.031 1425.22C600.802 1425.22 599.74 1425.43 598.844 1425.84C597.948 1426.26 597.25 1426.82 596.75 1427.53C596.25 1428.24 596 1429.04 596 1429.94H588.5C588.5 1428.6 588.823 1427.31 589.469 1426.06C590.115 1424.81 591.052 1423.7 592.281 1422.72C593.51 1421.74 594.979 1420.97 596.688 1420.41C598.396 1419.84 600.312 1419.56 602.438 1419.56C604.979 1419.56 607.229 1419.99 609.188 1420.84C611.167 1421.7 612.719 1422.99 613.844 1424.72C614.99 1426.43 615.562 1428.57 615.562 1431.16V1446.19C615.562 1447.73 615.667 1449.11 615.875 1450.34C616.104 1451.55 616.427 1452.6 616.844 1453.5V1454H609.125C608.771 1453.19 608.49 1452.16 608.281 1450.91C608.094 1449.64 608 1448.41 608 1447.22ZM609.094 1433.44L609.156 1438.09H603.75C602.354 1438.09 601.125 1438.23 600.062 1438.5C599 1438.75 598.115 1439.12 597.406 1439.62C596.698 1440.12 596.167 1440.73 595.812 1441.44C595.458 1442.15 595.281 1442.95 595.281 1443.84C595.281 1444.74 595.49 1445.56 595.906 1446.31C596.323 1447.04 596.927 1447.61 597.719 1448.03C598.531 1448.45 599.51 1448.66 600.656 1448.66C602.198 1448.66 603.542 1448.34 604.688 1447.72C605.854 1447.07 606.771 1446.29 607.438 1445.38C608.104 1444.44 608.458 1443.55 608.5 1442.72L610.938 1446.06C610.688 1446.92 610.26 1447.83 609.656 1448.81C609.052 1449.79 608.26 1450.73 607.281 1451.62C606.323 1452.5 605.167 1453.22 603.812 1453.78C602.479 1454.34 600.938 1454.62 599.188 1454.62C596.979 1454.62 595.01 1454.19 593.281 1453.31C591.552 1452.42 590.198 1451.22 589.219 1449.72C588.24 1448.2 587.75 1446.48 587.75 1444.56C587.75 1442.77 588.083 1441.19 588.75 1439.81C589.438 1438.42 590.438 1437.25 591.75 1436.31C593.083 1435.38 594.708 1434.67 596.625 1434.19C598.542 1433.69 600.729 1433.44 603.188 1433.44H609.094ZM629.188 1420.19L635.625 1431.41L642.188 1420.19H650.469L640.219 1436.78L650.875 1454H642.594L635.719 1442.31L628.844 1454H620.531L631.156 1436.78L620.938 1420.19H629.188Z" fill="#1C4670"/>
<defs>
<filter id="filter0_d_763_1782" x="30" y="386" width="959.961" height="242.109" filterUnits="userSpaceOnUse" color-interpolation-filters="sRGB">
<feFlood flood-opacity="0" result="BackgroundImageFix"/>
<feColorMatrix in="SourceAlpha" type="matrix" values="0 0 0 0 0 0 0 0 0 0 0 0 0 0 0 0 0 0 127 0" result="hardAlpha"/>
<feOffset dy="4"/>
<feGaussianBlur stdDeviation="2"/>
<feComposite in2="hardAlpha" operator="out"/>
<feColorMatrix type="matrix" values="0 0 0 0 0 0 0 0 0 0 0 0 0 0 0 0 0 0 0.25 0"/>
<feBlend mode="normal" in2="BackgroundImageFix" result="effect1_dropShadow_763_1782"/>
<feBlend mode="normal" in="SourceGraphic" in2="effect1_dropShadow_763_1782" result="shape"/>
</filter>
<filter id="filter1_d_763_1782" x="30" y="76" width="959.961" height="242.102" filterUnits="userSpaceOnUse" color-interpolation-filters="sRGB">
<feFlood flood-opacity="0" result="BackgroundImageFix"/>
<feColorMatrix in="SourceAlpha" type="matrix" values="0 0 0 0 0 0 0 0 0 0 0 0 0 0 0 0 0 0 127 0" result="hardAlpha"/>
<feOffset dy="4"/>
<feGaussianBlur stdDeviation="2"/>
<feComposite in2="hardAlpha" operator="out"/>
<feColorMatrix type="matrix" values="0 0 0 0 0 0 0 0 0 0 0 0 0 0 0 0 0 0 0.25 0"/>
<feBlend mode="normal" in2="BackgroundImageFix" result="effect1_dropShadow_763_1782"/>
<feBlend mode="normal" in="SourceGraphic" in2="effect1_dropShadow_763_1782" result="shape"/>
</filter>
<filter id="filter2_d_763_1782" x="30" y="986" width="959.961" height="242.109" filterUnits="userSpaceOnUse" color-interpolation-filters="sRGB">
<feFlood flood-opacity="0" result="BackgroundImageFix"/>
<feColorMatrix in="SourceAlpha" type="matrix" values="0 0 0 0 0 0 0 0 0 0 0 0 0 0 0 0 0 0 127 0" result="hardAlpha"/>
<feOffset dy="4"/>
<feGaussianBlur stdDeviation="2"/>
<feComposite in2="hardAlpha" operator="out"/>
<feColorMatrix type="matrix" values="0 0 0 0 0 0 0 0 0 0 0 0 0 0 0 0 0 0 0.25 0"/>
<feBlend mode="normal" in2="BackgroundImageFix" result="effect1_dropShadow_763_1782"/>
<feBlend mode="normal" in="SourceGraphic" in2="effect1_dropShadow_763_1782" result="shape"/>
</filter>
<filter id="filter3_d_763_1782" x="30" y="690" width="959.961" height="242.102" filterUnits="userSpaceOnUse" color-interpolation-filters="sRGB">
<feFlood flood-opacity="0" result="BackgroundImageFix"/>
<feColorMatrix in="SourceAlpha" type="matrix" values="0 0 0 0 0 0 0 0 0 0 0 0 0 0 0 0 0 0 127 0" result="hardAlpha"/>
<feOffset dy="4"/>
<feGaussianBlur stdDeviation="2"/>
<feComposite in2="hardAlpha" operator="out"/>
<feColorMatrix type="matrix" values="0 0 0 0 0 0 0 0 0 0 0 0 0 0 0 0 0 0 0.25 0"/>
<feBlend mode="normal" in2="BackgroundImageFix" result="effect1_dropShadow_763_1782"/>
<feBlend mode="normal" in="SourceGraphic" in2="effect1_dropShadow_763_1782" result="shape"/>
</filter>
<filter id="filter4_d_763_1782" x="30" y="1272" width="959.961" height="242.102" filterUnits="userSpaceOnUse" color-interpolation-filters="sRGB">
<feFlood flood-opacity="0" result="BackgroundImageFix"/>
<feColorMatrix in="SourceAlpha" type="matrix" values="0 0 0 0 0 0 0 0 0 0 0 0 0 0 0 0 0 0 127 0" result="hardAlpha"/>
<feOffset dy="4"/>
<feGaussianBlur stdDeviation="2"/>
<feComposite in2="hardAlpha" operator="out"/>
<feColorMatrix type="matrix" values="0 0 0 0 0 0 0 0 0 0 0 0 0 0 0 0 0 0 0.25 0"/>
<feBlend mode="normal" in2="BackgroundImageFix" result="effect1_dropShadow_763_1782"/>
<feBlend mode="normal" in="SourceGraphic" in2="effect1_dropShadow_763_1782" result="shape"/>
</filter>
<linearGradient id="paint0_linear_763_1782" x1="68.0952" y1="445.976" x2="222.516" y2="445.976" gradientUnits="userSpaceOnUse">
<stop stop-color="#229CB4"/>
<stop offset="1" stop-color="#5ED8F0"/>
</linearGradient>
<linearGradient id="paint1_linear_763_1782" x1="51.0945" y1="363.174" x2="239.586" y2="363.174" gradientUnits="userSpaceOnUse">
<stop stop-color="#229CB4"/>
<stop offset="1" stop-color="#5ED8F0"/>
</linearGradient>
<linearGradient id="paint2_linear_763_1782" x1="34.0164" y1="363.174" x2="68.1107" y2="363.174" gradientUnits="userSpaceOnUse">
<stop stop-color="#01819A"/>
<stop offset="1" stop-color="#3DBDD6"/>
</linearGradient>
<linearGradient id="paint3_linear_763_1782" x1="222.517" y1="363.174" x2="256.619" y2="363.174" gradientUnits="userSpaceOnUse">
<stop stop-color="#01819A"/>
<stop offset="1" stop-color="#3DBDD6"/>
</linearGradient>
<linearGradient id="paint4_linear_763_1782" x1="68.103" y1="136.978" x2="222.524" y2="136.978" gradientUnits="userSpaceOnUse">
<stop stop-color="#E19000"/>
<stop offset="1" stop-color="#FFCC1E"/>
</linearGradient>
<linearGradient id="paint5_linear_763_1782" x1="51.0945" y1="64.1745" x2="239.586" y2="64.1745" gradientUnits="userSpaceOnUse">
<stop stop-color="#E19000"/>
<stop offset="1" stop-color="#FFCC1E"/>
</linearGradient>
<linearGradient id="paint6_linear_763_1782" x1="34.0164" y1="64.1745" x2="68.1107" y2="64.1745" gradientUnits="userSpaceOnUse">
<stop stop-color="#E15E00"/>
<stop offset="1" stop-color="#FF9A1E"/>
</linearGradient>
<linearGradient id="paint7_linear_763_1782" x1="222.517" y1="64.1745" x2="256.619" y2="64.1745" gradientUnits="userSpaceOnUse">
<stop stop-color="#E15E00"/>
<stop offset="1" stop-color="#FF9A1E"/>
</linearGradient>
<linearGradient id="paint8_linear_763_1782" x1="68.0952" y1="1045.98" x2="222.516" y2="1045.98" gradientUnits="userSpaceOnUse">
<stop stop-color="#229CB4"/>
<stop offset="1" stop-color="#5ED8F0"/>
</linearGradient>
<linearGradient id="paint9_linear_763_1782" x1="51.0945" y1="973.174" x2="239.586" y2="973.174" gradientUnits="userSpaceOnUse">
<stop stop-color="#229CB4"/>
<stop offset="1" stop-color="#5ED8F0"/>
</linearGradient>
<linearGradient id="paint10_linear_763_1782" x1="34.0164" y1="973.174" x2="68.1107" y2="973.174" gradientUnits="userSpaceOnUse">
<stop stop-color="#01819A"/>
<stop offset="1" stop-color="#3DBDD6"/>
</linearGradient>
<linearGradient id="paint11_linear_763_1782" x1="222.517" y1="973.174" x2="256.619" y2="973.174" gradientUnits="userSpaceOnUse">
<stop stop-color="#01819A"/>
<stop offset="1" stop-color="#3DBDD6"/>
</linearGradient>
<linearGradient id="paint12_linear_763_1782" x1="68.103" y1="751.978" x2="222.524" y2="751.978" gradientUnits="userSpaceOnUse">
<stop stop-color="#E19000"/>
<stop offset="1" stop-color="#FFCC1E"/>
</linearGradient>
<linearGradient id="paint13_linear_763_1782" x1="51.0945" y1="669.174" x2="239.586" y2="669.174" gradientUnits="userSpaceOnUse">
<stop stop-color="#E19000"/>
<stop offset="1" stop-color="#FFCC1E"/>
</linearGradient>
<linearGradient id="paint14_linear_763_1782" x1="34.0164" y1="669.174" x2="68.1107" y2="669.174" gradientUnits="userSpaceOnUse">
<stop stop-color="#E15E00"/>
<stop offset="1" stop-color="#FF9A1E"/>
</linearGradient>
<linearGradient id="paint15_linear_763_1782" x1="222.517" y1="669.174" x2="256.619" y2="669.174" gradientUnits="userSpaceOnUse">
<stop stop-color="#E15E00"/>
<stop offset="1" stop-color="#FF9A1E"/>
</linearGradient>
<linearGradient id="paint16_linear_763_1782" x1="68.103" y1="1351.98" x2="222.524" y2="1351.98" gradientUnits="userSpaceOnUse">
<stop stop-color="#E19000"/>
<stop offset="1" stop-color="#FFCC1E"/>
</linearGradient>
<linearGradient id="paint17_linear_763_1782" x1="51.0945" y1="1269.17" x2="239.586" y2="1269.17" gradientUnits="userSpaceOnUse">
<stop stop-color="#E19000"/>
<stop offset="1" stop-color="#FFCC1E"/>
</linearGradient>
<linearGradient id="paint18_linear_763_1782" x1="34.0164" y1="1269.17" x2="68.1107" y2="1269.17" gradientUnits="userSpaceOnUse">
<stop stop-color="#E15E00"/>
<stop offset="1" stop-color="#FF9A1E"/>
</linearGradient>
<linearGradient id="paint19_linear_763_1782" x1="222.517" y1="1269.17" x2="256.619" y2="1269.17" gradientUnits="userSpaceOnUse">
<stop stop-color="#E15E00"/>
<stop offset="1" stop-color="#FF9A1E"/>
</linearGradient>
</defs>
</svg>
