<svg width="964" height="2225" viewBox="0 0 964 2225" fill="none" xmlns="http://www.w3.org/2000/svg">
<g clip-path="url(#clip0_554_927)">
<rect width="964" height="2225" fill="white"/>
<path d="M118.268 924L847.308 924C896.966 924 937.223 892.945 937.223 854.637L937.223 112.65C937.223 74.342 896.966 43.2871 847.308 43.2871L118.268 43.2872C68.6096 43.2872 28.3534 74.3421 28.3534 112.65L28.3535 854.637C28.3535 892.945 68.6097 924 118.268 924Z" fill="#FFA229"/>
<path d="M118.268 2023.52L847.308 2023.52C896.966 2023.52 937.223 1992.46 937.223 1954.15L937.223 1212.17C937.223 1173.86 896.966 1142.8 847.308 1142.8L118.268 1142.8C68.6096 1142.8 28.3534 1173.86 28.3534 1212.17L28.3535 1954.15C28.3535 1992.46 68.6097 2023.52 118.268 2023.52Z" fill="#1C4670"/>
<g filter="url(#filter0_d_554_927)">
<path d="M186.464 983L781.474 983C808.373 982.988 834.166 974.747 853.181 960.089C872.197 945.431 882.879 925.556 882.879 904.832L882.879 371.971C882.879 361.712 880.256 351.553 875.16 342.075C870.064 332.596 862.594 323.984 853.178 316.73C843.761 309.475 832.583 303.721 820.28 299.795C807.977 295.869 794.79 293.848 781.474 293.848L581.242 293.848L500.118 192.785C491.677 182.309 476.261 182.309 467.82 192.785L386.696 293.713L186.464 293.713C159.57 293.713 133.777 301.944 114.76 316.594C95.7424 331.245 85.0588 351.116 85.0588 371.836L85.0589 904.697C85.0358 914.969 87.6411 925.145 92.7261 934.641C97.8111 944.138 105.276 952.769 114.694 960.041C124.112 967.314 135.298 973.085 147.613 977.024C159.928 980.963 173.13 982.994 186.464 983Z" fill="white"/>
</g>
<path d="M366.473 562.391V583.023C365.706 584.038 364.506 585.151 362.873 586.363C361.265 587.551 359.125 588.577 356.453 589.443C353.781 590.309 350.454 590.742 346.471 590.742C343.081 590.742 339.977 590.173 337.156 589.035C334.336 587.872 331.899 586.178 329.846 583.951C327.817 581.725 326.246 579.016 325.133 575.824C324.02 572.608 323.463 568.947 323.463 564.84V561.092C323.463 557.01 323.97 553.373 324.984 550.182C326.023 546.965 327.508 544.244 329.438 542.018C331.367 539.791 333.693 538.109 336.414 536.971C339.16 535.808 342.265 535.227 345.729 535.227C350.157 535.227 353.818 535.969 356.713 537.453C359.632 538.913 361.883 540.941 363.467 543.539C365.05 546.137 366.052 549.105 366.473 552.445H357.344C357.047 550.565 356.465 548.883 355.6 547.398C354.758 545.914 353.546 544.751 351.963 543.91C350.404 543.044 348.376 542.611 345.877 542.611C343.725 542.611 341.832 543.02 340.199 543.836C338.566 544.652 337.206 545.852 336.117 547.436C335.053 549.019 334.249 550.949 333.705 553.225C333.161 555.501 332.889 558.098 332.889 561.018V564.84C332.889 567.809 333.198 570.443 333.816 572.744C334.46 575.045 335.375 576.987 336.562 578.57C337.775 580.154 339.247 581.354 340.979 582.17C342.71 582.962 344.665 583.357 346.842 583.357C348.969 583.357 350.714 583.184 352.074 582.838C353.435 582.467 354.511 582.034 355.303 581.539C356.119 581.02 356.75 580.525 357.195 580.055V569.33H345.951V562.391H366.473ZM412.154 582.615V590H383.469V582.615H412.154ZM386.104 535.969V590H376.789V535.969H386.104ZM408.406 558.531V565.805H383.469V558.531H408.406ZM411.969 535.969V543.391H383.469V535.969H411.969ZM462.623 535.969V590H453.309L429.076 551.295V590H419.762V535.969H429.076L453.383 574.748V535.969H462.623ZM509.084 582.615V590H480.398V582.615H509.084ZM483.033 535.969V590H473.719V535.969H483.033ZM505.336 558.531V565.805H480.398V558.531H505.336ZM508.898 535.969V543.391H480.398V535.969H508.898ZM516.691 535.969H535.803C539.91 535.969 543.41 536.587 546.305 537.824C549.199 539.061 551.413 540.892 552.947 543.316C554.506 545.716 555.285 548.685 555.285 552.223C555.285 554.919 554.79 557.294 553.801 559.348C552.811 561.401 551.413 563.133 549.607 564.543C547.801 565.928 545.649 567.005 543.15 567.771L540.33 569.145H523.148L523.074 561.76H535.951C538.178 561.76 540.033 561.364 541.518 560.572C543.002 559.781 544.115 558.704 544.857 557.344C545.624 555.958 546.008 554.4 546.008 552.668C546.008 550.788 545.637 549.155 544.895 547.77C544.177 546.359 543.064 545.283 541.555 544.541C540.046 543.774 538.128 543.391 535.803 543.391H526.006V590H516.691V535.969ZM547.529 590L534.838 565.73L544.598 565.693L557.475 589.518V590H547.529ZM585.604 543.168L569.461 590H559.701L580.037 535.969H586.271L585.604 543.168ZM599.111 590L582.932 543.168L582.227 535.969H588.498L608.908 590H599.111ZM598.332 569.961V577.346H568.941V569.961H598.332ZM648.801 582.615V590H621.674V582.615H648.801ZM624.271 535.969V590H614.957V535.969H624.271ZM283.756 658.41H293.033C292.736 661.948 291.747 665.102 290.064 667.873C288.382 670.619 286.02 672.784 282.977 674.367C279.934 675.951 276.235 676.742 271.881 676.742C268.541 676.742 265.535 676.148 262.863 674.961C260.191 673.749 257.903 672.042 255.998 669.84C254.093 667.613 252.633 664.929 251.619 661.787C250.63 658.645 250.135 655.132 250.135 651.248V646.758C250.135 642.874 250.642 639.361 251.656 636.219C252.695 633.077 254.18 630.393 256.109 628.166C258.039 625.915 260.352 624.195 263.049 623.008C265.77 621.82 268.826 621.227 272.215 621.227C276.52 621.227 280.156 622.018 283.125 623.602C286.094 625.185 288.395 627.374 290.027 630.17C291.685 632.965 292.699 636.169 293.07 639.781H283.793C283.546 637.456 283.001 635.464 282.16 633.807C281.344 632.149 280.132 630.887 278.523 630.021C276.915 629.131 274.812 628.686 272.215 628.686C270.087 628.686 268.232 629.081 266.648 629.873C265.065 630.665 263.742 631.827 262.678 633.361C261.614 634.895 260.81 636.788 260.266 639.039C259.746 641.266 259.486 643.814 259.486 646.684V651.248C259.486 653.969 259.721 656.443 260.191 658.67C260.686 660.872 261.428 662.764 262.418 664.348C263.432 665.931 264.719 667.156 266.277 668.021C267.836 668.887 269.704 669.32 271.881 669.32C274.528 669.32 276.668 668.9 278.301 668.059C279.958 667.217 281.208 665.993 282.049 664.385C282.915 662.752 283.484 660.76 283.756 658.41ZM344.578 647.5V650.469C344.578 654.551 344.046 658.212 342.982 661.453C341.919 664.694 340.397 667.452 338.418 669.729C336.464 672.005 334.113 673.749 331.367 674.961C328.621 676.148 325.578 676.742 322.238 676.742C318.923 676.742 315.893 676.148 313.146 674.961C310.425 673.749 308.062 672.005 306.059 669.729C304.055 667.452 302.496 664.694 301.383 661.453C300.294 658.212 299.75 654.551 299.75 650.469V647.5C299.75 643.418 300.294 639.769 301.383 636.553C302.471 633.312 304.005 630.553 305.984 628.277C307.988 625.977 310.351 624.232 313.072 623.045C315.818 621.833 318.849 621.227 322.164 621.227C325.504 621.227 328.547 621.833 331.293 623.045C334.039 624.232 336.402 625.977 338.381 628.277C340.36 630.553 341.882 633.312 342.945 636.553C344.034 639.769 344.578 643.418 344.578 647.5ZM335.264 650.469V647.426C335.264 644.408 334.967 641.748 334.373 639.447C333.804 637.122 332.951 635.18 331.812 633.621C330.699 632.038 329.326 630.85 327.693 630.059C326.061 629.242 324.217 628.834 322.164 628.834C320.111 628.834 318.28 629.242 316.672 630.059C315.064 630.85 313.691 632.038 312.553 633.621C311.439 635.18 310.586 637.122 309.992 639.447C309.398 641.748 309.102 644.408 309.102 647.426V650.469C309.102 653.487 309.398 656.159 309.992 658.484C310.586 660.81 311.452 662.777 312.59 664.385C313.753 665.968 315.138 667.168 316.746 667.984C318.354 668.776 320.185 669.172 322.238 669.172C324.316 669.172 326.16 668.776 327.768 667.984C329.376 667.168 330.736 665.968 331.85 664.385C332.963 662.777 333.804 660.81 334.373 658.484C334.967 656.159 335.264 653.487 335.264 650.469ZM357.678 621.969H365.99L381.613 663.643L397.199 621.969H405.512L384.879 676H378.273L357.678 621.969ZM353.893 621.969H361.797L363.17 658.039V676H353.893V621.969ZM401.393 621.969H409.334V676H400.02V658.039L401.393 621.969ZM440.914 655.85H426.85V648.465H440.914C443.363 648.465 445.342 648.069 446.852 647.277C448.361 646.486 449.462 645.397 450.154 644.012C450.872 642.602 451.23 640.993 451.23 639.188C451.23 637.48 450.872 635.885 450.154 634.4C449.462 632.891 448.361 631.679 446.852 630.764C445.342 629.848 443.363 629.391 440.914 629.391H429.707V676H420.393V621.969H440.914C445.095 621.969 448.645 622.711 451.564 624.195C454.508 625.655 456.747 627.684 458.281 630.281C459.815 632.854 460.582 635.798 460.582 639.113C460.582 642.602 459.815 645.595 458.281 648.094C456.747 650.592 454.508 652.51 451.564 653.846C448.645 655.182 445.095 655.85 440.914 655.85ZM502.775 668.615V676H475.648V668.615H502.775ZM478.246 621.969V676H468.932V621.969H478.246ZM519.92 621.969V676H510.605V621.969H519.92ZM553.207 629.168L537.064 676H527.305L547.641 621.969H553.875L553.207 629.168ZM566.715 676L550.535 629.168L549.83 621.969H556.102L576.512 676H566.715ZM565.936 655.961V663.346H536.545V655.961H565.936ZM625.422 621.969V676H616.107L591.875 637.295V676H582.561V621.969H591.875L616.182 660.748V621.969H625.422ZM668.432 658.41H677.709C677.412 661.948 676.423 665.102 674.74 667.873C673.058 670.619 670.695 672.784 667.652 674.367C664.609 675.951 660.911 676.742 656.557 676.742C653.217 676.742 650.211 676.148 647.539 674.961C644.867 673.749 642.579 672.042 640.674 669.84C638.769 667.613 637.309 664.929 636.295 661.787C635.305 658.645 634.811 655.132 634.811 651.248V646.758C634.811 642.874 635.318 639.361 636.332 636.219C637.371 633.077 638.855 630.393 640.785 628.166C642.715 625.915 645.028 624.195 647.725 623.008C650.446 621.82 653.501 621.227 656.891 621.227C661.195 621.227 664.832 622.018 667.801 623.602C670.77 625.185 673.07 627.374 674.703 630.17C676.361 632.965 677.375 636.169 677.746 639.781H668.469C668.221 637.456 667.677 635.464 666.836 633.807C666.02 632.149 664.807 630.887 663.199 630.021C661.591 629.131 659.488 628.686 656.891 628.686C654.763 628.686 652.908 629.081 651.324 629.873C649.741 630.665 648.417 631.827 647.354 633.361C646.29 634.895 645.486 636.788 644.941 639.039C644.422 641.266 644.162 643.814 644.162 646.684V651.248C644.162 653.969 644.397 656.443 644.867 658.67C645.362 660.872 646.104 662.764 647.094 664.348C648.108 665.931 649.395 667.156 650.953 668.021C652.512 668.887 654.38 669.32 656.557 669.32C659.204 669.32 661.344 668.9 662.977 668.059C664.634 667.217 665.883 665.993 666.725 664.385C667.59 662.752 668.16 660.76 668.432 658.41ZM721.535 668.615V676H692.85V668.615H721.535ZM695.484 621.969V676H686.17V621.969H695.484ZM717.787 644.531V651.805H692.85V644.531H717.787ZM721.35 621.969V629.391H692.85V621.969H721.35Z" fill="#1C4670"/>
<g filter="url(#filter1_d_554_927)">
<path d="M186.464 2087L781.474 2087C808.373 2086.99 834.166 2078.75 853.181 2064.09C872.197 2049.43 882.879 2029.56 882.879 2008.83L882.879 1475.97C882.879 1465.71 880.256 1455.55 875.16 1446.07C870.064 1436.6 862.594 1427.98 853.178 1420.73C843.761 1413.48 832.583 1407.72 820.28 1403.79C807.977 1399.87 794.79 1397.85 781.474 1397.85L581.242 1397.85L500.118 1296.79C491.677 1286.31 476.261 1286.31 467.82 1296.79L386.696 1397.71L186.464 1397.71C159.57 1397.71 133.777 1405.94 114.76 1420.59C95.7424 1435.25 85.0588 1455.12 85.0588 1475.84L85.0589 2008.7C85.0358 2018.97 87.6411 2029.14 92.7261 2038.64C97.8111 2048.14 105.276 2056.77 114.694 2064.04C124.112 2071.31 135.298 2077.08 147.613 2081.02C159.928 2084.96 173.13 2086.99 186.464 2087Z" fill="white"/>
</g>
<path d="M362.762 1642.97L375.305 1668.76L387.848 1642.97H398.164L379.98 1677.11V1697H370.592V1677.11L352.408 1642.97H362.762ZM439.43 1689.62V1697H410.744V1689.62H439.43ZM413.379 1642.97V1697H404.064V1642.97H413.379ZM435.682 1665.53V1672.8H410.744V1665.53H435.682ZM439.244 1642.97V1650.39H410.744V1642.97H439.244ZM468.078 1650.17L451.936 1697H442.176L462.512 1642.97H468.746L468.078 1650.17ZM481.586 1697L465.406 1650.17L464.701 1642.97H470.973L491.383 1697H481.586ZM480.807 1676.96V1684.35H451.416V1676.96H480.807ZM497.432 1642.97H516.543C520.65 1642.97 524.15 1643.59 527.045 1644.82C529.939 1646.06 532.154 1647.89 533.688 1650.32C535.246 1652.72 536.025 1655.68 536.025 1659.22C536.025 1661.92 535.531 1664.29 534.541 1666.35C533.551 1668.4 532.154 1670.13 530.348 1671.54C528.542 1672.93 526.389 1674 523.891 1674.77L521.07 1676.14H503.889L503.814 1668.76H516.691C518.918 1668.76 520.773 1668.36 522.258 1667.57C523.742 1666.78 524.855 1665.7 525.598 1664.34C526.365 1662.96 526.748 1661.4 526.748 1659.67C526.748 1657.79 526.377 1656.15 525.635 1654.77C524.917 1653.36 523.804 1652.28 522.295 1651.54C520.786 1650.77 518.868 1650.39 516.543 1650.39H506.746V1697H497.432V1642.97ZM528.27 1697L515.578 1672.73L525.338 1672.69L538.215 1696.52V1697H528.27ZM579.146 1689.62V1697H552.02V1689.62H579.146ZM554.617 1642.97V1697H545.303V1642.97H554.617ZM582.078 1642.97L594.621 1668.76L607.164 1642.97H617.48L599.297 1677.11V1697H589.908V1677.11L571.725 1642.97H582.078ZM283.756 1765.41H293.033C292.736 1768.95 291.747 1772.1 290.064 1774.87C288.382 1777.62 286.02 1779.78 282.977 1781.37C279.934 1782.95 276.235 1783.74 271.881 1783.74C268.541 1783.74 265.535 1783.15 262.863 1781.96C260.191 1780.75 257.903 1779.04 255.998 1776.84C254.093 1774.61 252.633 1771.93 251.619 1768.79C250.63 1765.65 250.135 1762.13 250.135 1758.25V1753.76C250.135 1749.87 250.642 1746.36 251.656 1743.22C252.695 1740.08 254.18 1737.39 256.109 1735.17C258.039 1732.91 260.352 1731.2 263.049 1730.01C265.77 1728.82 268.826 1728.23 272.215 1728.23C276.52 1728.23 280.156 1729.02 283.125 1730.6C286.094 1732.18 288.395 1734.37 290.027 1737.17C291.685 1739.97 292.699 1743.17 293.07 1746.78H283.793C283.546 1744.46 283.001 1742.46 282.16 1740.81C281.344 1739.15 280.132 1737.89 278.523 1737.02C276.915 1736.13 274.812 1735.69 272.215 1735.69C270.087 1735.69 268.232 1736.08 266.648 1736.87C265.065 1737.66 263.742 1738.83 262.678 1740.36C261.614 1741.9 260.81 1743.79 260.266 1746.04C259.746 1748.27 259.486 1750.81 259.486 1753.68V1758.25C259.486 1760.97 259.721 1763.44 260.191 1765.67C260.686 1767.87 261.428 1769.76 262.418 1771.35C263.432 1772.93 264.719 1774.16 266.277 1775.02C267.836 1775.89 269.704 1776.32 271.881 1776.32C274.528 1776.32 276.668 1775.9 278.301 1775.06C279.958 1774.22 281.208 1772.99 282.049 1771.38C282.915 1769.75 283.484 1767.76 283.756 1765.41ZM344.578 1754.5V1757.47C344.578 1761.55 344.046 1765.21 342.982 1768.45C341.919 1771.69 340.397 1774.45 338.418 1776.73C336.464 1779 334.113 1780.75 331.367 1781.96C328.621 1783.15 325.578 1783.74 322.238 1783.74C318.923 1783.74 315.893 1783.15 313.146 1781.96C310.425 1780.75 308.062 1779 306.059 1776.73C304.055 1774.45 302.496 1771.69 301.383 1768.45C300.294 1765.21 299.75 1761.55 299.75 1757.47V1754.5C299.75 1750.42 300.294 1746.77 301.383 1743.55C302.471 1740.31 304.005 1737.55 305.984 1735.28C307.988 1732.98 310.351 1731.23 313.072 1730.04C315.818 1728.83 318.849 1728.23 322.164 1728.23C325.504 1728.23 328.547 1728.83 331.293 1730.04C334.039 1731.23 336.402 1732.98 338.381 1735.28C340.36 1737.55 341.882 1740.31 342.945 1743.55C344.034 1746.77 344.578 1750.42 344.578 1754.5ZM335.264 1757.47V1754.43C335.264 1751.41 334.967 1748.75 334.373 1746.45C333.804 1744.12 332.951 1742.18 331.812 1740.62C330.699 1739.04 329.326 1737.85 327.693 1737.06C326.061 1736.24 324.217 1735.83 322.164 1735.83C320.111 1735.83 318.28 1736.24 316.672 1737.06C315.064 1737.85 313.691 1739.04 312.553 1740.62C311.439 1742.18 310.586 1744.12 309.992 1746.45C309.398 1748.75 309.102 1751.41 309.102 1754.43V1757.47C309.102 1760.49 309.398 1763.16 309.992 1765.48C310.586 1767.81 311.452 1769.78 312.59 1771.38C313.753 1772.97 315.138 1774.17 316.746 1774.98C318.354 1775.78 320.185 1776.17 322.238 1776.17C324.316 1776.17 326.16 1775.78 327.768 1774.98C329.376 1774.17 330.736 1772.97 331.85 1771.38C332.963 1769.78 333.804 1767.81 334.373 1765.48C334.967 1763.16 335.264 1760.49 335.264 1757.47ZM357.678 1728.97H365.99L381.613 1770.64L397.199 1728.97H405.512L384.879 1783H378.273L357.678 1728.97ZM353.893 1728.97H361.797L363.17 1765.04V1783H353.893V1728.97ZM401.393 1728.97H409.334V1783H400.02V1765.04L401.393 1728.97ZM440.914 1762.85H426.85V1755.46H440.914C443.363 1755.46 445.342 1755.07 446.852 1754.28C448.361 1753.49 449.462 1752.4 450.154 1751.01C450.872 1749.6 451.23 1747.99 451.23 1746.19C451.23 1744.48 450.872 1742.88 450.154 1741.4C449.462 1739.89 448.361 1738.68 446.852 1737.76C445.342 1736.85 443.363 1736.39 440.914 1736.39H429.707V1783H420.393V1728.97H440.914C445.095 1728.97 448.645 1729.71 451.564 1731.2C454.508 1732.65 456.747 1734.68 458.281 1737.28C459.815 1739.85 460.582 1742.8 460.582 1746.11C460.582 1749.6 459.815 1752.6 458.281 1755.09C456.747 1757.59 454.508 1759.51 451.564 1760.85C448.645 1762.18 445.095 1762.85 440.914 1762.85ZM502.775 1775.62V1783H475.648V1775.62H502.775ZM478.246 1728.97V1783H468.932V1728.97H478.246ZM519.92 1728.97V1783H510.605V1728.97H519.92ZM553.207 1736.17L537.064 1783H527.305L547.641 1728.97H553.875L553.207 1736.17ZM566.715 1783L550.535 1736.17L549.83 1728.97H556.102L576.512 1783H566.715ZM565.936 1762.96V1770.35H536.545V1762.96H565.936ZM625.422 1728.97V1783H616.107L591.875 1744.29V1783H582.561V1728.97H591.875L616.182 1767.75V1728.97H625.422ZM668.432 1765.41H677.709C677.412 1768.95 676.423 1772.1 674.74 1774.87C673.058 1777.62 670.695 1779.78 667.652 1781.37C664.609 1782.95 660.911 1783.74 656.557 1783.74C653.217 1783.74 650.211 1783.15 647.539 1781.96C644.867 1780.75 642.579 1779.04 640.674 1776.84C638.769 1774.61 637.309 1771.93 636.295 1768.79C635.305 1765.65 634.811 1762.13 634.811 1758.25V1753.76C634.811 1749.87 635.318 1746.36 636.332 1743.22C637.371 1740.08 638.855 1737.39 640.785 1735.17C642.715 1732.91 645.028 1731.2 647.725 1730.01C650.446 1728.82 653.501 1728.23 656.891 1728.23C661.195 1728.23 664.832 1729.02 667.801 1730.6C670.77 1732.18 673.07 1734.37 674.703 1737.17C676.361 1739.97 677.375 1743.17 677.746 1746.78H668.469C668.221 1744.46 667.677 1742.46 666.836 1740.81C666.02 1739.15 664.807 1737.89 663.199 1737.02C661.591 1736.13 659.488 1735.69 656.891 1735.69C654.763 1735.69 652.908 1736.08 651.324 1736.87C649.741 1737.66 648.417 1738.83 647.354 1740.36C646.29 1741.9 645.486 1743.79 644.941 1746.04C644.422 1748.27 644.162 1750.81 644.162 1753.68V1758.25C644.162 1760.97 644.397 1763.44 644.867 1765.67C645.362 1767.87 646.104 1769.76 647.094 1771.35C648.108 1772.93 649.395 1774.16 650.953 1775.02C652.512 1775.89 654.38 1776.32 656.557 1776.32C659.204 1776.32 661.344 1775.9 662.977 1775.06C664.634 1774.22 665.883 1772.99 666.725 1771.38C667.59 1769.75 668.16 1767.76 668.432 1765.41ZM721.535 1775.62V1783H692.85V1775.62H721.535ZM695.484 1728.97V1783H686.17V1728.97H695.484ZM717.787 1751.53V1758.8H692.85V1751.53H717.787ZM721.35 1728.97V1736.39H692.85V1728.97H721.35Z" fill="#1C4670"/>
<g filter="url(#filter2_d_554_927)">
<path d="M464.683 904.351C416.265 925.232 393.53 982.387 413.903 1032.01C434.276 1081.64 490.041 1104.94 538.459 1084.06C586.877 1063.18 609.612 1006.02 589.239 956.396C568.866 906.772 513.1 883.47 464.683 904.351Z" fill="white"/>
</g>
<path d="M559.38 1055.49L585.867 963.883L523.766 945.95L497.279 1037.55L559.38 1055.49Z" fill="white"/>
<path d="M573.75 973.558L528.855 960.594L528.439 962.035L573.333 974.999L573.75 973.558Z" fill="#414042"/>
<path d="M571.846 980.144L526.951 967.18L526.534 968.621L571.429 981.585L571.846 980.144Z" fill="#414042"/>
<path d="M569.941 986.722L525.047 973.758L524.63 975.199L569.525 988.163L569.941 986.722Z" fill="#414042"/>
<path d="M568.039 993.3L523.145 980.336L522.728 981.777L567.623 994.741L568.039 993.3Z" fill="#414042"/>
<path d="M566.135 999.886L521.24 986.922L520.824 988.363L565.718 1001.33L566.135 999.886Z" fill="#414042"/>
<path d="M564.233 1006.47L519.338 993.508L518.921 994.949L563.816 1007.91L564.233 1006.47Z" fill="#414042"/>
<path d="M562.328 1013.05L517.434 1000.09L517.017 1001.53L561.911 1014.49L562.328 1013.05Z" fill="#414042"/>
<path d="M560.424 1019.64L515.529 1006.67L515.113 1008.11L560.007 1021.08L560.424 1019.64Z" fill="#414042"/>
<path d="M558.519 1026.22L513.625 1013.26L513.208 1014.7L558.103 1027.66L558.519 1026.22Z" fill="#414042"/>
<path d="M556.617 1032.81L511.723 1019.84L511.306 1021.28L556.201 1034.25L556.617 1032.81Z" fill="#414042"/>
<path d="M554.713 1039.39L509.818 1026.43L509.402 1027.87L554.296 1040.83L554.713 1039.39Z" fill="#414042"/>
<path d="M529.551 943.477H468.51C462.911 943.477 458.373 948.012 458.373 953.606V1045.36C458.373 1050.95 462.911 1055.49 468.51 1055.49H529.551C535.15 1055.49 539.688 1050.95 539.688 1045.36V953.606C539.688 948.012 535.15 943.477 529.551 943.477Z" fill="#1C4670"/>
<path d="M531.352 1047.16V951.805H466.709V1047.16H531.352Z" fill="white"/>
<path d="M509.615 939.422H488.445C484.494 939.422 481.291 942.623 481.291 946.571C481.291 950.519 484.494 953.719 488.445 953.719H509.615C513.566 953.719 516.769 950.519 516.769 946.571C516.769 942.623 513.566 939.422 509.615 939.422Z" fill="#FFA229"/>
<path d="M497.884 931.99C495.268 932.513 493.48 934.964 493.48 937.631V943.937C493.48 946.603 495.268 949.054 497.884 949.577C501.452 950.291 504.581 947.583 504.581 944.145V937.422C504.581 933.984 501.451 931.276 497.884 931.99ZM499.535 939.293C498.026 939.656 496.7 938.332 497.064 936.823C497.235 936.114 497.816 935.532 498.526 935.361C500.036 934.997 501.362 936.323 500.998 937.832C500.827 938.541 500.245 939.122 499.535 939.293Z" fill="#414042"/>
<path d="M520.621 962.625H477.439V1003.76H520.621V962.625Z" fill="#FFA229"/>
<path d="M497.961 973.737L499.034 974.83L500.107 973.737L501.179 974.83L502.252 973.737L503.278 974.783V962.625H494.785V974.785L495.815 973.737L496.889 974.83L497.961 973.737Z" fill="#A97C50"/>
<path d="M494.149 997.625H490.334V1001.23H494.149V997.625Z" fill="#A97C50"/>
<path d="M488.955 997.625H485.141V1001.23H488.955V997.625Z" fill="#A97C50"/>
<path d="M483.764 997.625H479.949V1001.23H483.764V997.625Z" fill="#A97C50"/>
<path d="M509.991 1017.37H474.617V1018.87H509.991V1017.37Z" fill="#414042"/>
<path d="M526.223 1008.32L518.53 1022.22L511.846 1014.34L518.081 1017.48L526.223 1008.32Z" fill="#414042"/>
<path d="M509.991 1032.72H474.617V1034.22H509.991V1032.72Z" fill="#414042"/>
<path d="M526.223 1023.67L518.53 1037.57L511.846 1029.69L518.081 1032.84L526.223 1023.67Z" fill="#414042"/>
<g filter="url(#filter3_d_554_927)">
<path d="M464.683 2007.8C416.265 2028.68 393.53 2085.84 413.903 2135.47C434.276 2185.09 490.041 2208.39 538.459 2187.51C586.877 2166.63 609.612 2109.47 589.239 2059.85C568.866 2010.22 513.1 1986.92 464.683 2007.8Z" fill="white"/>
</g>
<path d="M458.494 2114C459.158 2114 459.796 2114.26 460.266 2114.73C460.736 2115.2 461 2115.84 461 2116.5C461 2117.16 460.736 2117.8 460.266 2118.27C459.796 2118.74 459.158 2119 458.494 2119C458.156 2119.01 457.821 2118.94 457.511 2118.81C457.201 2118.68 456.922 2118.48 456.695 2118.23L456.669 2118.2C456.235 2117.75 455.995 2117.14 456 2116.51C455.994 2116.18 456.054 2115.86 456.176 2115.55C456.299 2115.24 456.482 2114.96 456.715 2114.73C456.947 2114.5 457.224 2114.31 457.53 2114.19C457.836 2114.06 458.163 2114 458.494 2114Z" fill="#03AADF"/>
<path d="M484 2114.98H480.147C479.749 2114.98 479.368 2115.14 479.086 2115.42C478.805 2115.71 478.647 2116.09 478.647 2116.49C478.647 2116.88 478.805 2117.27 479.086 2117.55C479.368 2117.83 479.749 2117.99 480.147 2117.99H484C483.796 2121.45 482.885 2124.84 481.324 2127.93L478 2126.02C477.654 2125.83 477.247 2125.79 476.867 2125.89C476.487 2126 476.165 2126.25 475.969 2126.6C475.773 2126.94 475.718 2127.34 475.818 2127.73C475.917 2128.11 476.162 2128.44 476.5 2128.64L479.824 2130.55C477.912 2133.44 475.442 2135.91 472.559 2137.82L470.647 2134.5C470.551 2134.32 470.421 2134.16 470.264 2134.04C470.107 2133.91 469.926 2133.82 469.733 2133.77C469.54 2133.71 469.337 2133.7 469.138 2133.72C468.939 2133.74 468.746 2133.81 468.572 2133.91C468.398 2134.01 468.245 2134.14 468.123 2134.3C468.001 2134.46 467.913 2134.64 467.862 2134.84C467.811 2135.03 467.8 2135.24 467.829 2135.43C467.858 2135.63 467.926 2135.82 468.029 2136L469.941 2139.32C466.845 2140.88 463.462 2141.8 460 2142V2138.14C460 2137.75 459.842 2137.37 459.561 2137.08C459.279 2136.8 458.898 2136.64 458.5 2136.64C458.102 2136.64 457.721 2136.8 457.439 2137.08C457.158 2137.37 457 2137.75 457 2138.14V2142C453.538 2141.8 450.155 2140.88 447.059 2139.32L448.971 2136C449.159 2135.65 449.205 2135.24 449.098 2134.86C448.99 2134.48 448.738 2134.16 448.396 2133.96C448.054 2133.77 447.648 2133.71 447.266 2133.81C446.884 2133.91 446.556 2134.16 446.353 2134.5L444.441 2137.82C441.552 2135.92 439.08 2133.44 437.176 2130.55L440.5 2128.64C440.676 2128.54 440.832 2128.41 440.957 2128.26C441.082 2128.1 441.175 2127.92 441.23 2127.72C441.284 2127.53 441.3 2127.33 441.275 2127.13C441.251 2126.93 441.187 2126.74 441.087 2126.56C440.987 2126.39 440.853 2126.24 440.694 2126.11C440.534 2125.99 440.352 2125.9 440.158 2125.85C439.963 2125.8 439.761 2125.79 439.562 2125.82C439.363 2125.85 439.172 2125.92 439 2126.02L435.676 2127.93C434.115 2124.84 433.204 2121.45 433 2117.99H436.853C437.05 2117.99 437.245 2117.95 437.427 2117.87C437.609 2117.8 437.774 2117.69 437.914 2117.55C438.053 2117.41 438.163 2117.24 438.239 2117.06C438.314 2116.88 438.353 2116.68 438.353 2116.49C438.353 2116.29 438.314 2116.09 438.239 2115.91C438.163 2115.73 438.053 2115.56 437.914 2115.42C437.774 2115.28 437.609 2115.17 437.427 2115.1C437.245 2115.02 437.05 2114.98 436.853 2114.98H433.088C433.292 2111.52 434.203 2108.14 435.765 2105.04L439.088 2106.98C439.309 2107.12 439.564 2107.19 439.824 2107.19C440.085 2107.19 440.343 2107.12 440.57 2106.99C440.798 2106.86 440.987 2106.68 441.118 2106.45C441.217 2106.28 441.281 2106.09 441.307 2105.89C441.332 2105.7 441.319 2105.5 441.267 2105.3C441.215 2105.11 441.126 2104.93 441.004 2104.78C440.883 2104.62 440.731 2104.49 440.559 2104.39L437.235 2102.48C439.147 2099.59 441.617 2097.12 444.5 2095.21L446.412 2098.53C446.616 2098.88 446.947 2099.12 447.332 2099.22C447.718 2099.32 448.127 2099.26 448.471 2099.06C448.815 2098.86 449.066 2098.53 449.17 2098.15C449.275 2097.76 449.224 2097.35 449.029 2097L447.118 2093.68C450.214 2092.12 453.597 2091.2 457.059 2091V2094.86C457.059 2095.25 457.217 2095.63 457.498 2095.92C457.779 2096.2 458.161 2096.36 458.559 2096.36C458.957 2096.36 459.338 2096.2 459.619 2095.92C459.901 2095.63 460.059 2095.25 460.059 2094.86V2091C463.521 2091.2 466.904 2092.12 470 2093.68L468.088 2097C467.989 2097.18 467.925 2097.36 467.899 2097.56C467.874 2097.76 467.887 2097.96 467.939 2098.15C467.991 2098.34 468.08 2098.52 468.202 2098.68C468.323 2098.83 468.475 2098.97 468.647 2099.06C468.877 2099.2 469.143 2099.27 469.412 2099.27C469.673 2099.27 469.931 2099.21 470.159 2099.08C470.386 2098.95 470.575 2098.76 470.706 2098.53L472.618 2095.21C475.505 2097.12 477.976 2099.59 479.882 2102.48L476.559 2104.39C476.215 2104.59 475.963 2104.92 475.859 2105.31C475.754 2105.69 475.805 2106.1 476 2106.45C476.131 2106.68 476.32 2106.86 476.547 2106.99C476.775 2107.12 477.033 2107.19 477.294 2107.19C477.563 2107.19 477.827 2107.12 478.059 2106.98L481.382 2105.07C482.908 2108.16 483.798 2111.54 484 2114.98ZM464.412 2116.49C464.408 2115.19 463.979 2113.94 463.193 2112.91C462.407 2111.88 461.306 2111.15 460.059 2110.81V2102.98C460.059 2102.58 459.901 2102.2 459.619 2101.92C459.338 2101.63 458.957 2101.48 458.559 2101.48C458.161 2101.48 457.779 2101.63 457.498 2101.92C457.217 2102.2 457.059 2102.58 457.059 2102.98V2110.81C455.81 2111.14 454.707 2111.88 453.92 2112.91C453.133 2113.93 452.707 2115.19 452.706 2116.49C452.702 2117.46 452.945 2118.42 453.412 2119.28L446 2126.2C445.854 2126.33 445.736 2126.49 445.654 2126.67C445.571 2126.85 445.526 2127.05 445.52 2127.24C445.515 2127.44 445.549 2127.64 445.622 2127.82C445.694 2128.01 445.803 2128.17 445.941 2128.32C446.078 2128.47 446.246 2128.59 446.434 2128.67C446.622 2128.75 446.825 2128.79 447.029 2128.79C447.412 2128.78 447.78 2128.64 448.059 2128.37L455.471 2121.43C456.355 2121.98 457.369 2122.28 458.41 2122.31C459.451 2122.34 460.48 2122.09 461.391 2121.58C462.303 2121.08 463.063 2120.34 463.594 2119.44C464.125 2118.55 464.407 2117.53 464.412 2116.49Z" fill="#FFA229"/>
<path d="M526.5 2131C527.328 2131 528 2130.1 528 2129C528 2127.9 527.328 2127 526.5 2127C525.672 2127 525 2127.9 525 2129C525 2130.1 525.672 2131 526.5 2131Z" fill="#193E80"/>
<path d="M527.5 2121C528.983 2121 530.433 2121.44 531.667 2122.26C532.9 2123.09 533.861 2124.26 534.429 2125.63C534.997 2127 535.145 2128.51 534.856 2129.96C534.566 2131.42 533.852 2132.75 532.803 2133.8C531.754 2134.85 530.418 2135.57 528.963 2135.86C527.508 2136.15 526 2136 524.63 2135.43C523.259 2134.86 522.088 2133.9 521.264 2132.67C520.44 2131.43 520 2129.98 520 2128.5C520.003 2126.51 520.794 2124.61 522.2 2123.2C523.606 2121.79 525.512 2121 527.5 2121ZM532.265 2128.47C532.265 2127.53 531.985 2126.61 531.462 2125.82C530.938 2125.04 530.194 2124.43 529.323 2124.07C528.453 2123.71 527.495 2123.61 526.57 2123.8C525.646 2123.98 524.797 2124.44 524.131 2125.1C523.464 2125.77 523.011 2126.62 522.827 2127.54C522.643 2128.47 522.737 2129.42 523.098 2130.29C523.459 2131.16 524.069 2131.91 524.853 2132.43C525.636 2132.96 526.558 2133.24 527.5 2133.24C528.762 2133.23 529.971 2132.73 530.864 2131.83C531.757 2130.94 532.26 2129.73 532.265 2128.47Z" fill="#193E80"/>
<path d="M547 2128.5C545.411 2132.48 542.655 2135.9 539.089 2138.31C535.523 2140.71 531.311 2142 527 2142C522.689 2142 518.477 2140.71 514.911 2138.31C511.345 2135.9 508.589 2132.48 507 2128.5C508.589 2124.52 511.345 2121.1 514.911 2118.69C518.477 2116.29 522.689 2115 527 2115C531.311 2115 535.523 2116.29 539.089 2118.69C542.655 2121.1 545.411 2124.52 547 2128.5ZM537.705 2128.5C537.705 2126.4 537.077 2124.34 535.901 2122.59C534.724 2120.84 533.053 2119.48 531.096 2118.67C529.14 2117.87 526.988 2117.66 524.912 2118.07C522.835 2118.48 520.928 2119.49 519.431 2120.98C517.934 2122.47 516.914 2124.36 516.501 2126.42C516.088 2128.49 516.3 2130.63 517.11 2132.57C517.92 2134.51 519.292 2136.18 521.053 2137.34C522.813 2138.51 524.883 2139.14 527 2139.14C529.839 2139.14 532.56 2138.01 534.568 2136.02C536.575 2134.03 537.703 2131.32 537.705 2128.5Z" fill="#193E80"/>
<path d="M560 2059.97V2143.83C559.998 2146.26 559.036 2148.59 557.324 2150.31C555.612 2152.03 553.29 2153 550.869 2153H469.131C467.043 2153 465.018 2152.28 463.394 2150.96C461.77 2149.65 460.645 2147.81 460.207 2145.76C464.571 2145.49 468.816 2144.22 472.618 2142.05C472.677 2142.02 472.766 2141.99 472.825 2141.96C472.901 2141.92 472.97 2141.87 473.032 2141.81C477.223 2139.32 480.72 2135.81 483.197 2131.6C483.247 2131.55 483.287 2131.49 483.316 2131.42L483.404 2131.24C485.864 2126.92 487.157 2122.02 487.157 2117.04C487.157 2112.06 485.864 2107.16 483.404 2102.84L483.316 2102.66C483.287 2102.59 483.247 2102.53 483.197 2102.48C480.716 2098.24 477.196 2094.72 472.973 2092.24C472.914 2092.21 472.884 2092.18 472.825 2092.15C472.766 2092.12 472.736 2092.09 472.677 2092.09C468.801 2089.86 464.459 2088.58 460 2088.35V2043.14C460.001 2041.94 460.238 2040.75 460.698 2039.64C461.158 2038.53 461.831 2037.52 462.679 2036.67C463.527 2035.82 464.533 2035.15 465.64 2034.69C466.748 2034.23 467.934 2034 469.131 2034H534.143V2051.22C534.148 2053.55 535.071 2055.78 536.71 2057.42C538.35 2059.07 540.572 2060 542.89 2060H560V2059.97ZM549.923 2129.37C550.041 2129.04 550.041 2128.67 549.923 2128.33C548.223 2123.65 545.13 2119.61 541.065 2116.75C537 2113.9 532.159 2112.36 527.199 2112.36C522.238 2112.36 517.397 2113.9 513.332 2116.75C509.267 2119.61 506.175 2123.65 504.474 2128.33C504.356 2128.67 504.356 2129.04 504.474 2129.37C506.175 2134.05 509.267 2138.1 513.332 2140.95C517.397 2143.81 522.238 2145.34 527.199 2145.34C532.159 2145.34 537 2143.81 541.065 2140.95C545.13 2138.1 548.223 2134.05 549.923 2129.37ZM550.041 2067.51C550.04 2067.11 549.881 2066.73 549.598 2066.44C549.316 2066.16 548.934 2066 548.534 2066H470.934C470.534 2066 470.151 2066.16 469.868 2066.44C469.585 2066.73 469.427 2067.11 469.427 2067.51C469.427 2067.91 469.585 2068.3 469.868 2068.58C470.151 2068.87 470.534 2069.03 470.934 2069.03H548.534C548.934 2069.02 549.316 2068.86 549.598 2068.58C549.881 2068.3 550.04 2067.91 550.041 2067.51ZM550.041 2076.54C550.04 2076.14 549.881 2075.75 549.598 2075.47C549.316 2075.18 548.934 2075.02 548.534 2075.02H470.934C470.534 2075.02 470.151 2075.18 469.868 2075.47C469.585 2075.75 469.427 2076.13 469.427 2076.54C469.427 2076.94 469.585 2077.32 469.868 2077.61C470.151 2077.89 470.534 2078.05 470.934 2078.05H548.534C548.733 2078.05 548.929 2078.01 549.113 2077.94C549.296 2077.86 549.463 2077.75 549.603 2077.61C549.744 2077.47 549.855 2077.3 549.93 2077.12C550.005 2076.93 550.043 2076.74 550.041 2076.54ZM550.041 2085.59C550.04 2085.19 549.881 2084.8 549.598 2084.52C549.316 2084.24 548.934 2084.08 548.534 2084.08H478.322C477.922 2084.08 477.538 2084.24 477.256 2084.52C476.973 2084.8 476.814 2085.19 476.814 2085.59C476.814 2085.99 476.973 2086.38 477.256 2086.66C477.538 2086.94 477.922 2087.1 478.322 2087.1H548.534C548.934 2087.1 549.316 2086.94 549.598 2086.66C549.881 2086.37 550.04 2085.99 550.041 2085.59ZM550.041 2094.64C550.04 2094.24 549.881 2093.86 549.598 2093.57C549.316 2093.29 548.934 2093.13 548.534 2093.13H493.333C492.934 2093.13 492.55 2093.29 492.268 2093.57C491.985 2093.86 491.826 2094.24 491.826 2094.64C491.826 2095.04 491.985 2095.43 492.268 2095.71C492.55 2096 492.934 2096.16 493.333 2096.16H548.534C548.934 2096.16 549.316 2096 549.598 2095.71C549.881 2095.43 550.04 2095.04 550.041 2094.64ZM550.041 2103.7C550.04 2103.3 549.881 2102.91 549.598 2102.63C549.316 2102.34 548.934 2102.18 548.534 2102.18H493.333C492.934 2102.18 492.55 2102.34 492.268 2102.63C491.985 2102.91 491.826 2103.29 491.826 2103.7C491.826 2104.1 491.985 2104.48 492.268 2104.77C492.55 2105.05 492.934 2105.21 493.333 2105.21H548.534C548.934 2105.21 549.316 2105.05 549.598 2104.76C549.881 2104.48 550.04 2104.1 550.041 2103.7ZM529.238 2040.35C529.236 2039.95 529.077 2039.57 528.794 2039.28C528.512 2039 528.13 2038.84 527.73 2038.84H466.531C466.131 2038.84 465.748 2039 465.465 2039.28C465.182 2039.57 465.024 2039.95 465.024 2040.35C465.024 2040.75 465.182 2041.14 465.465 2041.42C465.748 2041.71 466.131 2041.87 466.531 2041.87H527.73C528.13 2041.86 528.512 2041.7 528.794 2041.42C529.077 2041.14 529.236 2040.75 529.238 2040.35ZM529.238 2049.41C529.236 2049 529.077 2048.62 528.794 2048.34C528.512 2048.05 528.13 2047.89 527.73 2047.89H466.531C466.131 2047.89 465.748 2048.05 465.465 2048.34C465.182 2048.62 465.024 2049 465.024 2049.41C465.024 2049.81 465.182 2050.19 465.465 2050.48C465.748 2050.76 466.131 2050.92 466.531 2050.92H527.73C528.13 2050.92 528.512 2050.76 528.794 2050.47C529.077 2050.19 529.236 2049.81 529.238 2049.41ZM529.238 2058.46C529.236 2058.06 529.077 2057.67 528.794 2057.39C528.512 2057.11 528.13 2056.95 527.73 2056.95H466.531C466.131 2056.95 465.748 2057.1 465.465 2057.39C465.182 2057.67 465.024 2058.06 465.024 2058.46C465.024 2058.86 465.182 2059.25 465.465 2059.53C465.748 2059.81 466.131 2059.97 466.531 2059.97H527.73C528.13 2059.97 528.512 2059.81 528.794 2059.53C529.077 2059.24 529.236 2058.86 529.238 2058.46Z" fill="#1C4670"/>
<path d="M557 2057H542.527C541.062 2057 539.657 2056.39 538.621 2055.3C537.584 2054.21 537.002 2052.73 537 2051.19V2036L557 2057Z" fill="#193E80"/>
</g>
<defs>
<filter id="filter0_d_554_927" x="79.0586" y="171.93" width="825.82" height="826.07" filterUnits="userSpaceOnUse" color-interpolation-filters="sRGB">
<feFlood flood-opacity="0" result="BackgroundImageFix"/>
<feColorMatrix in="SourceAlpha" type="matrix" values="0 0 0 0 0 0 0 0 0 0 0 0 0 0 0 0 0 0 127 0" result="hardAlpha"/>
<feOffset dx="8" dy="1"/>
<feGaussianBlur stdDeviation="7"/>
<feComposite in2="hardAlpha" operator="out"/>
<feColorMatrix type="matrix" values="0 0 0 0 0 0 0 0 0 0 0 0 0 0 0 0 0 0 0.15 0"/>
<feBlend mode="normal" in2="BackgroundImageFix" result="effect1_dropShadow_554_927"/>
<feBlend mode="normal" in="SourceGraphic" in2="effect1_dropShadow_554_927" result="shape"/>
</filter>
<filter id="filter1_d_554_927" x="79.0586" y="1275.93" width="825.82" height="826.07" filterUnits="userSpaceOnUse" color-interpolation-filters="sRGB">
<feFlood flood-opacity="0" result="BackgroundImageFix"/>
<feColorMatrix in="SourceAlpha" type="matrix" values="0 0 0 0 0 0 0 0 0 0 0 0 0 0 0 0 0 0 127 0" result="hardAlpha"/>
<feOffset dx="8" dy="1"/>
<feGaussianBlur stdDeviation="7"/>
<feComposite in2="hardAlpha" operator="out"/>
<feColorMatrix type="matrix" values="0 0 0 0 0 0 0 0 0 0 0 0 0 0 0 0 0 0 0.15 0"/>
<feBlend mode="normal" in2="BackgroundImageFix" result="effect1_dropShadow_554_927"/>
<feBlend mode="normal" in="SourceGraphic" in2="effect1_dropShadow_554_927" result="shape"/>
</filter>
<filter id="filter2_d_554_927" x="394.434" y="888.695" width="214.275" height="219.016" filterUnits="userSpaceOnUse" color-interpolation-filters="sRGB">
<feFlood flood-opacity="0" result="BackgroundImageFix"/>
<feColorMatrix in="SourceAlpha" type="matrix" values="0 0 0 0 0 0 0 0 0 0 0 0 0 0 0 0 0 0 127 0" result="hardAlpha"/>
<feOffset dy="4"/>
<feGaussianBlur stdDeviation="6"/>
<feComposite in2="hardAlpha" operator="out"/>
<feColorMatrix type="matrix" values="0 0 0 0 0 0 0 0 0 0 0 0 0 0 0 0 0 0 0.14 0"/>
<feBlend mode="normal" in2="BackgroundImageFix" result="effect1_dropShadow_554_927"/>
<feBlend mode="normal" in="SourceGraphic" in2="effect1_dropShadow_554_927" result="shape"/>
</filter>
<filter id="filter3_d_554_927" x="394.434" y="1992.15" width="214.275" height="219.016" filterUnits="userSpaceOnUse" color-interpolation-filters="sRGB">
<feFlood flood-opacity="0" result="BackgroundImageFix"/>
<feColorMatrix in="SourceAlpha" type="matrix" values="0 0 0 0 0 0 0 0 0 0 0 0 0 0 0 0 0 0 127 0" result="hardAlpha"/>
<feOffset dy="4"/>
<feGaussianBlur stdDeviation="6"/>
<feComposite in2="hardAlpha" operator="out"/>
<feColorMatrix type="matrix" values="0 0 0 0 0 0 0 0 0 0 0 0 0 0 0 0 0 0 0.14 0"/>
<feBlend mode="normal" in2="BackgroundImageFix" result="effect1_dropShadow_554_927"/>
<feBlend mode="normal" in="SourceGraphic" in2="effect1_dropShadow_554_927" result="shape"/>
</filter>
<clipPath id="clip0_554_927">
<rect width="964" height="2225" fill="white"/>
</clipPath>
</defs>
</svg>
