<svg width="1080" height="1049" viewBox="0 0 1080 1049" fill="none" xmlns="http://www.w3.org/2000/svg">
<g clip-path="url(#clip0_63_3278)">
<rect width="1080" height="1049" fill="white"/>
<path d="M1174.1 782.638C1239.93 900.494 1144.67 1131.73 540.57 971.027C237.683 890.452 11.4205 1071.97 -35.1835 945.266C-143.783 650.151 299.715 308.771 546.335 547.106C771.762 764.958 1054.29 568.136 1174.1 782.638Z" stroke="#E4E4E4" stroke-width="4" stroke-miterlimit="10" stroke-dasharray="32.09 32.09"/>
<path d="M1074 1045H8C41.3614 798.595 267.251 608 540.982 608C814.713 608 1040.62 798.595 1074 1045Z" fill="#F6F5F5"/>
<path d="M966.029 262H479.971C457.343 262 439 280.387 439 303.068V1001.93C439 1024.61 457.343 1043 479.971 1043H966.029C988.657 1043 1007 1024.61 1007 1001.93V303.068C1007 280.387 988.657 262 966.029 262Z" fill="#A9BAE6"/>
<path d="M958 293H489V974H958V293Z" fill="#F6F5F5"/>
<path d="M957.75 293C957.894 558.379 966.467 878.446 936.641 949.321C805.277 962.116 651.456 966.221 489 967L550.752 295.05L957.75 293Z" fill="#E4E4E4"/>
<path d="M915.451 927.604C711.214 960.347 574.725 962.076 464 953.842C478.335 800.866 484.102 546.729 489.913 293L736.024 293.552L958.764 308.281C961.978 571.619 962.336 814.872 915.451 927.604Z" fill="white"/>
<path d="M843.485 362.302L597.273 356.5L596.39 394.002L842.601 399.804L843.485 362.302Z" fill="#708CD5"/>
<path d="M890.95 454.077L668.867 448.844L668.463 466.009L890.546 471.242L890.95 454.077Z" fill="#708CD5"/>
<path d="M818.929 489.839L667.977 486.281L667.572 503.446L818.524 507.003L818.929 489.839Z" fill="#D3DFFF"/>
<path d="M598.881 448.216L546.305 446.977L545.066 499.552L597.642 500.792L598.881 448.216Z" fill="white" stroke="#708CD5" stroke-width="6" stroke-miterlimit="10"/>
<path d="M554.083 460.464C555.725 466.748 558.758 493.074 571.959 485.712C575.003 484.038 577.578 479.529 579.857 476.945L592.147 463.026L616.693 435.176C618.793 432.799 609.531 426.833 606.9 429.819L585.081 454.57L574.171 466.949C571.646 469.812 565.791 479.043 562.065 479.863L568.171 481.833C569.612 483.011 566.937 474.651 566.875 474.422C565.866 470.541 564.851 466.659 563.831 462.774C562.993 459.571 552.865 455.714 554.105 460.464H554.083Z" fill="#FFA229"/>
<path d="M849.499 548.747L666.617 544.438L666.213 561.602L849.094 565.912L849.499 548.747Z" fill="#708CD5"/>
<path d="M890.067 582.802L667.922 578.359L667.578 595.529L889.724 599.972L890.067 582.802Z" fill="#D3DFFF"/>
<path d="M596.631 543.794L544.055 542.555L542.816 595.131L595.392 596.37L596.631 543.794Z" fill="white" stroke="#708CD5" stroke-width="6" stroke-miterlimit="10"/>
<path d="M552.083 557.926C553.725 564.101 556.758 589.968 569.959 582.735C573.003 581.09 575.578 576.659 577.857 574.12L590.147 560.438L614.693 533.079C616.793 530.743 607.531 524.853 604.9 527.815L583.081 552.135L572.171 564.293C569.646 567.106 563.791 576.182 560.065 576.988L566.171 578.923C567.612 580.081 564.937 571.866 564.881 571.641C563.864 567.828 562.849 564.013 561.836 560.196C560.993 557.049 550.865 553.259 552.105 557.926H552.083Z" fill="#FFA229"/>
<path d="M886.443 645.249L664.359 640.016L663.955 657.181L886.038 662.414L886.443 645.249Z" fill="#708CD5"/>
<path d="M762.804 679.786L663.484 677.445L663.08 694.61L762.4 696.951L762.804 679.786Z" fill="#D3DFFF"/>
<path d="M594.388 639.372L541.812 638.133L540.573 690.709L593.149 691.948L594.388 639.372Z" fill="white" stroke="#708CD5" stroke-width="6" stroke-miterlimit="10"/>
<path d="M551.104 653.921C552.72 660.097 555.704 685.969 568.691 678.734C571.687 677.089 574.22 672.657 576.457 670.118L588.548 656.439L612.698 629.07C614.764 626.733 605.652 620.87 603.063 623.804L581.59 648.129L570.84 660.295C568.356 663.108 562.596 672.18 558.931 672.986L564.943 674.923C566.356 676.08 563.728 667.864 563.668 667.639C562.675 663.829 561.677 660.013 560.673 656.192C559.848 653.044 549.879 649.254 551.104 653.921Z" fill="#FFA229"/>
<path d="M886.981 736.607L664.836 732.164L664.493 749.334L886.638 753.777L886.981 736.607Z" fill="#708CD5"/>
<path d="M836.673 777.158L661.234 773.023L660.83 790.188L836.269 794.323L836.673 777.158Z" fill="#D3DFFF"/>
<path d="M592.123 734.958L539.547 733.719L538.308 786.295L590.884 787.534L592.123 734.958Z" fill="white" stroke="#708CD5" stroke-width="6" stroke-miterlimit="10"/>
<path d="M548.056 749.399C549.699 755.463 552.734 780.861 565.941 773.757C568.987 772.142 571.563 767.79 573.838 765.302L586.134 751.838L610.693 724.97C612.794 722.676 603.527 716.892 600.895 719.8L579.058 743.685L568.176 755.651C565.65 758.414 559.793 767.327 556.065 768.113L562.179 770.014C563.621 771.156 560.944 763.089 560.883 762.868C559.869 759.119 558.854 755.373 557.837 751.628C556.998 748.532 546.86 744.81 548.106 749.399H548.056Z" fill="#FFA229"/>
<path d="M747.898 832.536L659.867 830.461L659.463 847.626L747.494 849.7L747.898 832.536Z" fill="#708CD5"/>
<path d="M880.952 873.447L659.402 868L659 885.887C744.718 887.986 853.853 892.179 876.123 888.613C879.504 884.57 881.326 879.641 880.952 873.447Z" fill="#D3DFFF"/>
<path d="M590.631 829.841L538.055 828.602L536.816 881.177L589.392 882.416L590.631 829.841Z" fill="white" stroke="#708CD5" stroke-width="6" stroke-miterlimit="10"/>
<path d="M547.059 842.943C548.709 849.115 551.666 874.965 564.65 867.735C567.641 866.091 570.18 861.662 572.418 859.129L584.512 845.426L608.699 818.08C610.76 815.739 601.652 809.858 599.057 812.812L577.585 837.122L566.849 849.279C564.364 852.091 558.603 861.157 554.937 861.963L560.951 863.898C562.363 865.06 559.736 856.844 559.675 856.624C558.675 852.809 557.676 848.996 556.679 845.185C555.855 842.033 545.883 838.246 547.103 842.916L547.059 842.943Z" fill="#FFA229"/>
<path d="M828 267.33V320H617V267.33C616.995 263.333 617.777 259.373 619.301 255.679C620.825 251.985 623.062 248.628 625.882 245.802C626.559 245.119 627.274 244.475 628.025 243.875C633.454 239.349 640.297 236.88 647.357 236.898C652.728 236.9 658.029 235.689 662.868 233.354C664.915 232.362 666.868 231.183 668.701 229.832C674.864 225.262 679.395 218.824 681.626 211.471C683.864 204.102 688.405 197.65 694.579 193.064C700.752 188.478 708.232 186.002 715.916 186H729.084C736.768 186.002 744.248 188.478 750.422 193.064C756.595 197.65 761.136 204.102 763.374 211.471C765.602 218.843 770.143 225.298 776.322 229.877C778.154 231.227 780.107 232.406 782.154 233.398C786.993 235.733 792.295 236.944 797.665 236.942C805.703 236.954 813.409 240.158 819.094 245.854C824.78 251.55 827.982 259.272 828 267.33Z" fill="#FFA229"/>
<path d="M845 293V333H600V293H617.106V319.418H827.894V293H845Z" fill="#E4E4E4"/>
<path d="M722.5 235C732.717 235 741 226.941 741 217C741 207.059 732.717 199 722.5 199C712.283 199 704 207.059 704 217C704 226.941 712.283 235 722.5 235Z" fill="white"/>
<path d="M393.455 488.113C386.442 486.761 379.889 474.805 377.612 470.221C377.051 469.1 376.869 467.821 377.094 466.583L379.889 451.49C379.889 451.49 386.328 452.604 385.831 461.355C385.795 462.266 385.946 463.174 386.276 464.022L388.745 470.602L396.033 464.845L392.037 453.328C392.037 453.328 386.685 454.828 383.921 453.93C378.228 452.081 385.686 447.593 388.062 447.065C390.438 446.536 395.588 444.667 397.938 448.744C400.287 452.821 401.7 455.224 401.7 455.224C401.7 455.224 404.288 446.103 402.523 425.714C402.446 424.795 404.697 424.816 405.329 425.476C407.223 427.441 410.241 433.424 410.401 451.622C410.401 451.622 410.717 430.414 414.278 428.233C417.218 426.432 418.703 436.814 416.633 454.416C416.633 454.416 420.468 439.175 423.217 439.148C427.849 439.101 423.273 479.854 411.628 492L393.455 488.113Z" fill="#F9B384"/>
<path d="M416 482C415.791 484.028 415.561 485.994 415.31 487.895C414.594 493.933 413.56 499.929 412.213 505.856C412.15 506.11 412.108 506.342 412.046 506.574C408.468 521.366 407.819 528.634 395.6 526.69L383.046 512.237L382.921 512.089L382 511.033L384.553 503.426L384.887 502.433L386.77 496.897L387.001 496.178L390.223 486.67L391.52 482.803L416 482Z" fill="#F9B384"/>
<path d="M181.022 1005L177.8 1015.26C155.688 1022.65 142.827 1031.12 142 1041H205.877L211 1006.68C198.064 1009.87 187.693 1007.64 181.022 1005Z" fill="#1F3C88"/>
<path d="M188.941 980L181 1005.72C187.615 1008.39 197.899 1010.64 210.727 1007.39L214 985.048L188.941 980Z" fill="#F9B384"/>
<path d="M299.046 1004.87L301 979L269.707 980.603L268 1004.45C281.236 1008.56 292.216 1006.95 299.046 1004.87Z" fill="#F9B384"/>
<path d="M335 1041C334.167 1031.26 322.792 1017.93 297.846 1014.76L298.61 1004.41C291.992 1006.47 281.403 1008.06 268.595 1004L266 1040.98L335 1041Z" fill="#1F3C88"/>
<path d="M274 494.742L239 495V439H272.941L272.962 442.425L273.125 460.172L273.369 488.668L274 494.742Z" fill="#F9B384"/>
<path d="M273 463.355C266.629 470.192 250.01 462.472 243 454.941L272.835 446L273 463.355Z" fill="#E28B6D"/>
<path d="M281.999 427.59C282.008 431.615 281.692 435.634 281.056 439.61C279.296 450.398 274.644 459.686 263.916 459.974C238.562 460.693 231.333 446.474 226.555 434.843C221.778 423.213 229.531 395.185 229.531 395.185L262.344 392L280.364 406.487C281.485 413.467 282.031 420.524 281.999 427.59Z" fill="#F9B384"/>
<path d="M226.726 428C226.726 428 234.036 427.673 235.285 409.164C248.352 413.454 257.906 409.543 265.453 401.001C271.91 409.367 289.985 411.989 296.087 394.857C300.512 382.482 288.339 364.046 270.608 375.211C253.232 366.596 226.875 367.188 219.269 388.319C219.269 388.319 192.906 400.263 220.825 426.51C221.402 427.034 226.726 428 226.726 428Z" fill="#102048"/>
<path d="M326 691L306.3 992H260L271.574 699.919L278.659 696.604L326 691Z" fill="#102048"/>
<path d="M204.797 649.377L172 992H222.936L271.433 707.41L326.556 690.628L329 629.795L206.189 627L204.797 649.377Z" fill="#1F3C88"/>
<path opacity="0.6" d="M212.347 651.153C240.168 661.307 305.445 649.706 319 635.563L309.37 616L202 630.5L212.347 651.153Z" fill="#102048"/>
<path d="M317 630.402C316.097 630.778 315.174 631.176 314.229 631.532C302.935 636.109 291.225 639.587 279.261 641.919C271.527 643.449 263.691 644.408 255.816 644.788C243.465 645.479 231.078 644.478 219 641.815L234.637 496.355L236.547 478.618C236.547 478.618 257.012 503.747 279.576 476L317 630.402Z" fill="white"/>
<path opacity="0.3" d="M255.338 644.788C243.148 645.48 230.922 644.477 219 641.808L234.434 496.068L239.945 488C253.556 521.529 267.499 595.795 255.338 644.788Z" fill="#1F3C88"/>
<path d="M237.96 472C253.54 538.235 259.95 606.391 236.998 682.076C219.977 688.557 201.441 688.484 181.612 682.776L186.518 545.184L71.0093 624.687L64 581.34C108.401 538.829 185.172 474.633 237.96 472Z" fill="#708CD5"/>
<path opacity="0.3" d="M314 631.498C302.769 636.125 291.123 639.642 279.226 642C272.338 601.812 270.814 535.792 276.429 506L314 631.498Z" fill="#1F3C88"/>
<path opacity="0.6" d="M412 506.42C411.938 506.666 411.896 506.893 411.834 507.119C408.292 521.516 407.65 528.591 395.553 526.699L383.124 512.631L383 512.487L384.616 504.054L384.947 503.088L386.811 497.699L387.039 497L412 506.42Z" fill="#E28B6D"/>
<path d="M410 519.478C410 519.478 379.001 585.055 360.612 586.629C342.785 588.156 334.341 570.891 334.341 570.891L346.951 666.728C332.135 673.653 315.952 677.031 297.205 673.716C280.54 619.68 274.24 549.811 273 472C286.492 472.839 313.215 473.988 322.782 480.132C339.947 491.149 361.137 530.495 361.137 530.495L385.831 496.919L410 519.478Z" fill="#708CD5"/>
<path d="M32 427.06C32 427.06 33.9159 395.581 37.1843 397.05C40.4526 398.519 47 425.912 47 425.912L39.9964 437L32 427.06Z" fill="#6F3428"/>
<path d="M125.935 993L126.867 1003.62C127.655 1012.62 124.921 1021.58 119.264 1028.52C113.608 1035.46 105.494 1039.81 96.7057 1040.62L94.0404 1040.86C89.6894 1041.26 85.304 1040.78 81.1346 1039.45C76.9652 1038.11 73.0934 1035.95 69.7404 1033.08C66.3874 1030.21 63.6188 1026.69 61.5928 1022.73C59.5668 1018.76 58.3229 1014.42 57.9323 1009.97L57 999.347L125.935 993Z" fill="#EE6F57"/>
<path d="M81.402 493.203L12.6562 499.375L57.5958 999.953L126.342 993.781L81.402 493.203Z" fill="#FBC343"/>
<path opacity="0.3" d="M58.3308 485.144L33.9141 487.336L73.3052 926.11L97.722 923.918L58.3308 485.144Z" stroke="#6F3428" stroke-width="8" stroke-miterlimit="10"/>
<path d="M126 992.929L56.9839 999L55.1693 979.176L53.9034 965.403L50 923.071L119.037 917L122.919 959.332L124.185 973.105L126 992.929Z" fill="#102048"/>
<path d="M123.377 959.529L54.6484 965.711L55.9092 979.727L124.638 973.544L123.377 959.529Z" fill="#FBC343"/>
<path d="M12 499L31.4453 422.023C31.4453 422.023 38.1517 424.966 46.2914 420L82 492.787L12 499Z" fill="#EE6F57"/>
<path d="M231.017 424.497C230.703 423.348 225.428 421.773 224.267 421.458C222.469 420.966 220.487 420.72 218.759 421.506C212.381 424.358 213.235 433.39 216.539 438.139C218.4 440.86 221.155 442.861 224.337 443.801C225.498 444.127 236.465 444.26 235.985 442.513L231.017 424.497Z" fill="#F9B384"/>
<path d="M35.8829 603.624C35.5215 602.429 34.9211 601.319 34.1174 600.359C33.3138 599.399 32.3233 598.609 31.2052 598.037C30.087 597.464 28.8639 597.121 27.6088 597.027C26.3538 596.932 25.0924 597.089 23.8999 597.488C16.0466 600.175 9.20598 604.732 8.14587 612.488C7.18069 619.548 10.7461 642.099 26.6636 645L25.3661 633.413C25.3661 633.413 35.1129 631.161 37.0591 626.975C38.4251 624.043 38.52 611.808 35.8829 603.624Z" fill="#F9B384"/>
<path d="M329.712 526C330.462 530.961 331.099 535.937 331.708 540.919C332.316 545.9 332.844 550.903 333.42 555.879L334.882 570.866C335.307 575.874 335.726 580.85 336 585.905L335.269 586C334.495 581.039 333.854 576.063 333.245 571.081L331.561 556.121C331.09 551.118 330.542 546.137 330.146 541.123C329.75 536.11 329.297 531.113 329 526.095L329.712 526Z" fill="#1F3C88"/>
<path d="M188 525.021C188 530.61 187.889 536.198 187.765 541.782C187.642 547.365 187.443 552.964 187.292 558.547L186.603 575.282C186.321 580.86 186.03 586.432 185.621 592L185 591.958C185 586.364 185.099 580.781 185.215 575.197L185.7 558.453C185.943 552.874 186.122 547.291 186.416 541.718C186.711 536.146 186.981 530.568 187.371 525L188 525.021Z" fill="#1F3C88"/>
<path d="M256.869 423.924C257.351 425.82 256.462 427.61 254.878 427.947C253.294 428.284 251.613 426.972 251.131 425.076C250.649 423.18 251.538 421.39 253.122 421.053C254.706 420.716 256.381 422.028 256.869 423.924Z" fill="#102048"/>
<path d="M277.995 422.61C277.896 424.542 276.48 426.058 274.825 425.998C273.17 425.938 271.901 424.327 272.006 422.39C272.111 420.453 273.521 418.942 275.17 419.002C276.82 419.062 278.089 420.673 277.995 422.61Z" fill="#102048"/>
<path d="M264.92 424C265.733 425.569 265.602 427.256 266.106 428.54C266.31 429.137 266.704 429.681 267.251 430.118C267.929 430.506 268.682 430.801 269.481 430.991C270.603 431.327 271.579 431.914 272.293 432.682C272.698 433.127 272.94 433.654 272.99 434.202C273.04 434.751 272.898 435.3 272.578 435.787C271.999 436.554 271.205 437.203 270.259 437.682C269.446 438.123 268.663 438.588 267.815 439L267.221 438.441C267.844 437.829 268.526 437.27 269.179 436.687C269.807 436.233 270.327 435.692 270.715 435.09C271.214 434.213 270.122 433.251 268.58 432.758C267.779 432.464 266.622 432.209 265.691 431.446C264.871 430.755 264.339 429.88 264.167 428.938C263.775 427.185 264.226 425.682 264.012 424.199L264.92 424Z" fill="#E28B6D"/>
<path d="M246 418.714C246.35 417.692 247.13 416.786 248.22 416.135C249.341 415.449 250.72 415.055 252.155 415.009C253.545 414.948 254.928 415.192 256.141 415.712C257.354 416.233 258.346 417.007 259 417.944L258.338 418.358C256.639 417.262 254.484 416.663 252.258 416.669C251.17 416.71 250.109 416.942 249.158 417.346C248.206 417.75 247.389 418.316 246.771 419L246 418.714Z" fill="#102048"/>
<path d="M268 416.636C268.343 415.763 268.955 414.973 269.779 414.339C270.661 413.656 271.785 413.209 272.996 413.06C275.426 412.737 278.043 413.734 279 415.467L278.292 415.895C276.853 415.066 275.084 414.695 273.324 414.853C272.487 414.954 271.684 415.189 270.962 415.544C270.176 415.975 269.44 416.462 268.765 417L268 416.636Z" fill="#102048"/>
<path d="M257 444C260.279 450.256 264.632 450.938 268 444.355L257 444Z" fill="white"/>
<path opacity="0.4" d="M247.5 444C251.09 444 254 441.09 254 437.5C254 433.91 251.09 431 247.5 431C243.91 431 241 433.91 241 437.5C241 441.09 243.91 444 247.5 444Z" fill="#FC8879"/>
<path d="M226.386 432C225.257 431.064 224.073 430.21 222.843 429.443C222.366 429.149 221.827 428.997 221.28 429.001C220.679 429.113 220.115 429.395 219.644 429.82L219 429.367C219.133 428.866 219.371 428.406 219.695 428.023C220.019 427.641 220.421 427.347 220.867 427.165C221.338 427.012 221.833 426.964 222.321 427.026C222.809 427.088 223.281 427.258 223.708 427.526C225.186 428.399 226.347 429.799 227 431.494L226.386 432Z" fill="#E28B6D"/>
<path opacity="0.6" d="M37 627L27.0571 656L25 633.339C31.1822 632.048 34.5571 629.673 37 627Z" fill="#6F3428"/>
<path d="M0 1044L1080 1044" stroke="#1C4670" stroke-width="8" stroke-miterlimit="10"/>
<path d="M283.772 84.4102V90H263.742V84.4102H283.772ZM265.916 52.3203V90H258.799V52.3203H265.916ZM281.159 67.8735V73.334H263.742V67.8735H281.159ZM283.695 52.3203V57.936H263.742V52.3203H283.695ZM295.444 50.25V90H288.586V50.25H295.444ZM309.211 61.999V90H302.354V61.999H309.211ZM301.888 54.6753C301.888 53.6574 302.233 52.812 302.923 52.1392C303.63 51.4663 304.579 51.1299 305.77 51.1299C306.96 51.1299 307.9 51.4663 308.59 52.1392C309.298 52.812 309.651 53.6574 309.651 54.6753C309.651 55.6759 309.298 56.5127 308.59 57.1855C307.9 57.8584 306.96 58.1948 305.77 58.1948C304.579 58.1948 303.63 57.8584 302.923 57.1855C302.233 56.5127 301.888 55.6759 301.888 54.6753ZM333.538 61.999H339.749V89.146C339.749 91.6821 339.196 93.8301 338.092 95.5898C337.005 97.3669 335.479 98.7126 333.512 99.627C331.545 100.559 329.259 101.024 326.654 101.024C325.532 101.024 324.316 100.869 323.005 100.559C321.711 100.248 320.46 99.7563 319.252 99.0835C318.062 98.4279 317.07 97.5739 316.276 96.5215L319.356 92.4844C320.288 93.5713 321.34 94.3908 322.513 94.9429C323.686 95.5122 324.954 95.7969 326.317 95.7969C327.698 95.7969 328.871 95.5381 329.837 95.0205C330.82 94.5202 331.571 93.7783 332.088 92.7949C332.623 91.8288 332.891 90.6383 332.891 89.2236V68.3911L333.538 61.999ZM314.62 76.3359V75.7925C314.62 73.6532 314.879 71.7122 315.396 69.9697C315.914 68.21 316.656 66.7004 317.622 65.4409C318.605 64.1815 319.787 63.2067 321.167 62.5166C322.565 61.8265 324.135 61.4814 325.877 61.4814C327.723 61.4814 329.276 61.8179 330.536 62.4907C331.812 63.1636 332.865 64.1211 333.693 65.3633C334.538 66.6055 335.194 68.0806 335.66 69.7886C336.143 71.4793 336.514 73.3426 336.772 75.3784V76.8535C336.531 78.8376 336.143 80.6577 335.608 82.314C335.09 83.9702 334.4 85.4194 333.538 86.6616C332.675 87.8866 331.605 88.8354 330.329 89.5083C329.052 90.1812 327.551 90.5176 325.826 90.5176C324.1 90.5176 322.548 90.1639 321.167 89.4565C319.787 88.7492 318.605 87.7572 317.622 86.4805C316.656 85.2038 315.914 83.7028 315.396 81.9775C314.879 80.2523 314.62 78.3717 314.62 76.3359ZM321.452 75.7925V76.3359C321.452 77.5436 321.573 78.6737 321.814 79.7261C322.056 80.7785 322.427 81.7101 322.927 82.521C323.428 83.3146 324.057 83.9357 324.816 84.3843C325.576 84.8328 326.481 85.0571 327.534 85.0571C328.948 85.0571 330.104 84.7638 331.001 84.1772C331.916 83.5734 332.606 82.7539 333.072 81.7188C333.555 80.6663 333.865 79.4845 334.003 78.1733V74.1104C333.917 73.0752 333.727 72.1177 333.434 71.2378C333.158 70.3579 332.77 69.5988 332.27 68.9604C331.769 68.3221 331.131 67.8218 330.354 67.4595C329.578 67.0972 328.655 66.916 327.585 66.916C326.55 66.916 325.645 67.1489 324.868 67.6147C324.092 68.0633 323.453 68.693 322.953 69.5039C322.453 70.3148 322.073 71.255 321.814 72.3247C321.573 73.3944 321.452 74.5503 321.452 75.7925ZM353.154 61.999V90H346.296V61.999H353.154ZM345.83 54.6753C345.83 53.6574 346.175 52.812 346.865 52.1392C347.573 51.4663 348.521 51.1299 349.712 51.1299C350.902 51.1299 351.843 51.4663 352.533 52.1392C353.24 52.812 353.594 53.6574 353.594 54.6753C353.594 55.6759 353.24 56.5127 352.533 57.1855C351.843 57.8584 350.902 58.1948 349.712 58.1948C348.521 58.1948 347.573 57.8584 346.865 57.1855C346.175 56.5127 345.83 55.6759 345.83 54.6753ZM359.649 50.25H366.507V83.8149L365.834 90H359.649V50.25ZM384.519 75.7148V76.2583C384.519 78.3459 384.286 80.2609 383.82 82.0034C383.372 83.7459 382.69 85.2555 381.776 86.5322C380.861 87.7917 379.723 88.7751 378.36 89.4824C377.014 90.1725 375.436 90.5176 373.624 90.5176C371.899 90.5176 370.398 90.1812 369.121 89.5083C367.862 88.8354 366.801 87.8866 365.938 86.6616C365.075 85.4194 364.385 83.9616 363.868 82.2881C363.35 80.5973 362.962 78.7513 362.703 76.75V75.2749C362.962 73.2563 363.35 71.4103 363.868 69.7368C364.385 68.0633 365.075 66.6055 365.938 65.3633C366.801 64.1211 367.862 63.1636 369.121 62.4907C370.381 61.8179 371.864 61.4814 373.572 61.4814C375.401 61.4814 376.997 61.8351 378.36 62.5425C379.74 63.2326 380.879 64.216 381.776 65.4927C382.69 66.7521 383.372 68.2531 383.82 69.9956C384.286 71.7209 384.519 73.6273 384.519 75.7148ZM377.661 76.2583V75.7148C377.661 74.5244 377.566 73.403 377.376 72.3506C377.187 71.2809 376.876 70.3407 376.445 69.5298C376.014 68.7189 375.427 68.0806 374.685 67.6147C373.943 67.1489 373.012 66.916 371.89 66.916C370.82 66.916 369.906 67.0972 369.147 67.4595C368.405 67.8218 367.784 68.3221 367.284 68.9604C366.801 69.5988 366.421 70.3493 366.145 71.2119C365.886 72.0745 365.714 73.0062 365.627 74.0068V78.0439C365.748 79.3724 366.033 80.5715 366.481 81.6411C366.93 82.6935 367.594 83.5303 368.474 84.1514C369.371 84.7725 370.527 85.083 371.942 85.083C373.046 85.083 373.969 84.8674 374.711 84.436C375.453 83.9875 376.039 83.3664 376.471 82.5728C376.902 81.7619 377.204 80.8216 377.376 79.752C377.566 78.6823 377.661 77.5177 377.661 76.2583ZM396.734 61.999V90H389.876V61.999H396.734ZM389.41 54.6753C389.41 53.6574 389.755 52.812 390.445 52.1392C391.153 51.4663 392.102 51.1299 393.292 51.1299C394.482 51.1299 395.423 51.4663 396.113 52.1392C396.82 52.812 397.174 53.6574 397.174 54.6753C397.174 55.6759 396.82 56.5127 396.113 57.1855C395.423 57.8584 394.482 58.1948 393.292 58.1948C392.102 58.1948 391.153 57.8584 390.445 57.1855C389.755 56.5127 389.41 55.6759 389.41 54.6753ZM410.501 50.25V90H403.644V50.25H410.501ZM424.269 61.999V90H417.411V61.999H424.269ZM416.945 54.6753C416.945 53.6574 417.29 52.812 417.98 52.1392C418.688 51.4663 419.637 51.1299 420.827 51.1299C422.018 51.1299 422.958 51.4663 423.648 52.1392C424.355 52.812 424.709 53.6574 424.709 54.6753C424.709 55.6759 424.355 56.5127 423.648 57.1855C422.958 57.8584 422.018 58.1948 420.827 58.1948C419.637 58.1948 418.688 57.8584 417.98 57.1855C417.29 56.5127 416.945 55.6759 416.945 54.6753ZM444.041 61.999V66.916H427.996V61.999H444.041ZM432.292 55.1152H439.149V81.9258C439.149 82.7539 439.262 83.3923 439.486 83.8408C439.71 84.2894 440.047 84.5913 440.495 84.7466C440.944 84.9019 441.479 84.9795 442.1 84.9795C442.548 84.9795 442.962 84.9536 443.342 84.9019C443.721 84.8501 444.041 84.7983 444.299 84.7466L444.325 89.8706C443.756 90.0604 443.109 90.2157 442.384 90.3364C441.677 90.4572 440.875 90.5176 439.978 90.5176C438.442 90.5176 437.096 90.2588 435.94 89.7412C434.785 89.2064 433.887 88.3524 433.249 87.1792C432.611 85.9888 432.292 84.4188 432.292 82.4692V55.1152ZM456.799 86.8945L464.304 61.999H471.627L460.396 94.2441C460.137 94.9342 459.801 95.6847 459.387 96.4956C458.99 97.3065 458.455 98.0742 457.782 98.7988C457.109 99.5407 456.264 100.145 455.246 100.61C454.245 101.076 453.029 101.309 451.597 101.309C450.976 101.309 450.424 101.266 449.941 101.18C449.458 101.093 448.949 100.981 448.414 100.843V95.7192C448.587 95.7365 448.785 95.7451 449.009 95.7451C449.251 95.7624 449.458 95.771 449.63 95.771C450.631 95.771 451.459 95.6502 452.115 95.4087C452.77 95.1844 453.297 94.8135 453.693 94.2959C454.107 93.7956 454.452 93.14 454.729 92.3291L456.799 86.8945ZM453.098 61.999L459.438 82.6245L460.551 89.8447L455.841 90.6987L445.723 61.999H453.098ZM510.705 77.604H517.821C517.632 80.1229 516.933 82.3571 515.725 84.3066C514.517 86.2389 512.835 87.7572 510.679 88.8613C508.522 89.9655 505.908 90.5176 502.837 90.5176C500.474 90.5176 498.343 90.1035 496.445 89.2754C494.565 88.43 492.952 87.231 491.606 85.6782C490.278 84.1082 489.26 82.2277 488.552 80.0366C487.845 77.8283 487.491 75.3525 487.491 72.6094V69.7368C487.491 66.9937 487.854 64.5179 488.578 62.3096C489.303 60.1012 490.338 58.2207 491.684 56.668C493.047 55.098 494.677 53.8903 496.575 53.0449C498.49 52.1995 500.629 51.7769 502.993 51.7769C506.064 51.7769 508.66 52.3462 510.782 53.4849C512.904 54.6063 514.552 56.1504 515.725 58.1172C516.898 60.084 517.606 62.3441 517.847 64.8975H510.73C510.592 63.3102 510.247 61.9645 509.695 60.8604C509.16 59.7562 508.35 58.9194 507.263 58.3501C506.193 57.7635 504.77 57.4702 502.993 57.4702C501.612 57.4702 500.396 57.729 499.344 58.2466C498.309 58.7642 497.446 59.5405 496.756 60.5757C496.066 61.5936 495.548 62.8703 495.203 64.4058C494.858 65.924 494.686 67.6838 494.686 69.6851V72.6094C494.686 74.5244 494.841 76.241 495.151 77.7593C495.462 79.2775 495.945 80.5628 496.601 81.6152C497.256 82.6676 498.102 83.4699 499.137 84.022C500.172 84.5741 501.405 84.8501 502.837 84.8501C504.58 84.8501 505.995 84.5741 507.082 84.022C508.186 83.4699 509.022 82.659 509.592 81.5894C510.178 80.5197 510.549 79.1912 510.705 77.604ZM529.648 67.7183V90H522.816V61.999H529.286L529.648 67.7183ZM538.162 61.8179L538.059 68.1841C537.679 68.1151 537.248 68.0633 536.765 68.0288C536.299 67.9943 535.859 67.9771 535.445 67.9771C534.392 67.9771 533.469 68.1237 532.676 68.417C531.882 68.693 531.218 69.0985 530.683 69.6333C530.166 70.1681 529.769 70.8237 529.493 71.6001C529.217 72.3592 529.061 73.2218 529.027 74.188L527.552 74.0068C527.552 72.2298 527.733 70.5822 528.095 69.064C528.458 67.5457 528.984 66.2173 529.674 65.0786C530.364 63.9399 531.227 63.0601 532.262 62.439C533.314 61.8006 534.522 61.4814 535.885 61.4814C536.264 61.4814 536.67 61.516 537.101 61.585C537.55 61.6367 537.903 61.7144 538.162 61.8179ZM549.161 61.999V90H542.303V61.999H549.161ZM541.837 54.6753C541.837 53.6574 542.182 52.812 542.872 52.1392C543.579 51.4663 544.528 51.1299 545.719 51.1299C546.909 51.1299 547.849 51.4663 548.54 52.1392C549.247 52.812 549.601 53.6574 549.601 54.6753C549.601 55.6759 549.247 56.5127 548.54 57.1855C547.849 57.8584 546.909 58.1948 545.719 58.1948C544.528 58.1948 543.579 57.8584 542.872 57.1855C542.182 56.5127 541.837 55.6759 541.837 54.6753ZM568.932 61.999V66.916H552.887V61.999H568.932ZM557.183 55.1152H564.041V81.9258C564.041 82.7539 564.153 83.3923 564.377 83.8408C564.602 84.2894 564.938 84.5913 565.387 84.7466C565.835 84.9019 566.37 84.9795 566.991 84.9795C567.44 84.9795 567.854 84.9536 568.233 84.9019C568.613 84.8501 568.932 84.7983 569.191 84.7466L569.217 89.8706C568.647 90.0604 568 90.2157 567.276 90.3364C566.569 90.4572 565.766 90.5176 564.869 90.5176C563.334 90.5176 561.988 90.2588 560.832 89.7412C559.676 89.2064 558.779 88.3524 558.141 87.1792C557.502 85.9888 557.183 84.4188 557.183 82.4692V55.1152ZM586.064 90.5176C583.942 90.5176 582.035 90.1725 580.345 89.4824C578.654 88.7923 577.213 87.8348 576.023 86.6099C574.85 85.3677 573.944 83.9271 573.306 82.2881C572.685 80.6318 572.374 78.8548 572.374 76.957V75.9219C572.374 73.7653 572.685 71.8071 573.306 70.0474C573.927 68.2703 574.807 66.7435 575.945 65.4668C577.084 64.1901 578.447 63.2067 580.034 62.5166C581.621 61.8265 583.373 61.4814 585.288 61.4814C587.272 61.4814 589.023 61.8179 590.541 62.4907C592.059 63.1463 593.327 64.078 594.345 65.2856C595.363 66.4933 596.131 67.9425 596.648 69.6333C597.166 71.3068 597.425 73.1615 597.425 75.1973V78.0698H575.479V73.3599H590.696V72.8423C590.662 71.7554 590.455 70.7633 590.075 69.8662C589.696 68.9518 589.109 68.2272 588.315 67.6924C587.522 67.1403 586.495 66.8643 585.236 66.8643C584.218 66.8643 583.329 67.0885 582.57 67.5371C581.828 67.9684 581.207 68.5895 580.707 69.4004C580.224 70.194 579.862 71.1429 579.62 72.2471C579.379 73.3512 579.258 74.5762 579.258 75.9219V76.957C579.258 78.1302 579.413 79.2171 579.724 80.2178C580.051 81.2184 580.526 82.0897 581.147 82.8315C581.785 83.5562 582.544 84.1255 583.424 84.5396C584.321 84.9364 585.339 85.1348 586.478 85.1348C587.91 85.1348 589.204 84.8587 590.36 84.3066C591.533 83.7373 592.551 82.9006 593.414 81.7964L596.855 85.3677C596.269 86.2303 595.475 87.0584 594.475 87.8521C593.491 88.6457 592.301 89.2926 590.903 89.793C589.506 90.276 587.893 90.5176 586.064 90.5176ZM608.837 67.7183V90H602.005V61.999H608.475L608.837 67.7183ZM617.352 61.8179L617.248 68.1841C616.868 68.1151 616.437 68.0633 615.954 68.0288C615.488 67.9943 615.048 67.9771 614.634 67.9771C613.582 67.9771 612.659 68.1237 611.865 68.417C611.072 68.693 610.407 69.0985 609.873 69.6333C609.355 70.1681 608.958 70.8237 608.682 71.6001C608.406 72.3592 608.251 73.2218 608.216 74.188L606.741 74.0068C606.741 72.2298 606.922 70.5822 607.285 69.064C607.647 67.5457 608.173 66.2173 608.863 65.0786C609.553 63.9399 610.416 63.0601 611.451 62.439C612.504 61.8006 613.711 61.4814 615.074 61.4814C615.454 61.4814 615.859 61.516 616.291 61.585C616.739 61.6367 617.093 61.7144 617.352 61.8179ZM628.35 61.999V90H621.492V61.999H628.35ZM621.026 54.6753C621.026 53.6574 621.371 52.812 622.062 52.1392C622.769 51.4663 623.718 51.1299 624.908 51.1299C626.099 51.1299 627.039 51.4663 627.729 52.1392C628.436 52.812 628.79 53.6574 628.79 54.6753C628.79 55.6759 628.436 56.5127 627.729 57.1855C627.039 57.8584 626.099 58.1948 624.908 58.1948C623.718 58.1948 622.769 57.8584 622.062 57.1855C621.371 56.5127 621.026 55.6759 621.026 54.6753ZM650.295 84.0479V71.1343C650.295 70.1854 650.132 69.3659 649.804 68.6758C649.476 67.9857 648.976 67.4508 648.303 67.0713C647.63 66.6917 646.776 66.502 645.741 66.502C644.826 66.502 644.024 66.6572 643.334 66.9678C642.661 67.2783 642.144 67.7183 641.781 68.2876C641.419 68.8397 641.238 69.478 641.238 70.2026H634.38C634.38 69.0467 634.656 67.9512 635.208 66.916C635.76 65.8636 636.545 64.932 637.563 64.1211C638.598 63.293 639.832 62.646 641.264 62.1802C642.713 61.7144 644.335 61.4814 646.129 61.4814C648.251 61.4814 650.14 61.8438 651.796 62.5684C653.47 63.2757 654.781 64.3454 655.73 65.7773C656.696 67.2093 657.179 69.0122 657.179 71.186V83.4009C657.179 84.7983 657.265 85.9974 657.438 86.998C657.628 87.9814 657.904 88.8354 658.266 89.5601V90H651.305C650.977 89.2926 650.727 88.3955 650.554 87.3086C650.382 86.2044 650.295 85.1175 650.295 84.0479ZM651.253 72.9458L651.305 77.0088H646.983C645.913 77.0088 644.973 77.1209 644.162 77.3452C643.351 77.5522 642.687 77.8628 642.169 78.2769C641.652 78.6737 641.264 79.1567 641.005 79.7261C640.746 80.2782 640.617 80.9079 640.617 81.6152C640.617 82.3053 640.772 82.9264 641.083 83.4785C641.41 84.0306 641.876 84.4705 642.48 84.7983C643.101 85.1089 643.826 85.2642 644.654 85.2642C645.861 85.2642 646.914 85.0226 647.811 84.5396C648.708 84.0392 649.407 83.4354 649.907 82.728C650.408 82.0207 650.675 81.3478 650.709 80.7095L652.676 83.6597C652.435 84.367 652.072 85.1175 651.589 85.9111C651.106 86.7048 650.485 87.4466 649.726 88.1367C648.967 88.8268 648.053 89.3962 646.983 89.8447C645.913 90.2933 644.671 90.5176 643.256 90.5176C641.445 90.5176 639.823 90.1553 638.391 89.4307C636.959 88.7061 635.829 87.714 635.001 86.4546C634.173 85.1951 633.759 83.7632 633.759 82.1587C633.759 80.675 634.035 79.3638 634.587 78.2251C635.139 77.0864 635.958 76.1289 637.045 75.3525C638.132 74.5589 639.478 73.9637 641.083 73.5669C642.704 73.1528 644.559 72.9458 646.646 72.9458H651.253ZM685.491 90H678.607V59.4111C678.607 57.3063 679.012 55.5379 679.823 54.106C680.634 52.6567 681.79 51.5612 683.291 50.8193C684.792 50.0775 686.56 49.7065 688.596 49.7065C689.269 49.7065 689.907 49.7497 690.511 49.8359C691.132 49.9222 691.745 50.043 692.349 50.1982L692.219 55.3999C691.891 55.3136 691.529 55.2533 691.132 55.2188C690.753 55.1842 690.33 55.167 689.864 55.167C688.933 55.167 688.139 55.3309 687.483 55.6587C686.828 55.9865 686.327 56.4696 685.982 57.1079C685.655 57.729 685.491 58.4967 685.491 59.4111V90ZM691.158 61.999V66.916H674.389V61.999H691.158ZM694.16 76.2842V75.7407C694.16 73.6877 694.453 71.7985 695.04 70.0732C695.627 68.3307 696.481 66.8211 697.602 65.5444C698.723 64.2677 700.095 63.2757 701.717 62.5684C703.339 61.8438 705.185 61.4814 707.255 61.4814C709.36 61.4814 711.223 61.8438 712.845 62.5684C714.484 63.2757 715.864 64.2677 716.985 65.5444C718.107 66.8211 718.961 68.3307 719.547 70.0732C720.134 71.7985 720.427 73.6877 720.427 75.7407V76.2842C720.427 78.32 720.134 80.2091 719.547 81.9517C718.961 83.6769 718.107 85.1865 716.985 86.4805C715.864 87.7572 714.492 88.7492 712.871 89.4565C711.249 90.1639 709.394 90.5176 707.307 90.5176C705.236 90.5176 703.382 90.1639 701.743 89.4565C700.104 88.7492 698.723 87.7572 697.602 86.4805C696.481 85.1865 695.627 83.6769 695.04 81.9517C694.453 80.2091 694.16 78.32 694.16 76.2842ZM700.992 75.7407V76.2842C700.992 77.5091 701.113 78.6564 701.354 79.7261C701.596 80.7957 701.967 81.736 702.467 82.5469C702.968 83.3577 703.615 83.9961 704.408 84.4619C705.219 84.9105 706.185 85.1348 707.307 85.1348C708.411 85.1348 709.36 84.9105 710.153 84.4619C710.947 83.9961 711.594 83.3577 712.094 82.5469C712.612 81.736 712.991 80.7957 713.233 79.7261C713.474 78.6564 713.595 77.5091 713.595 76.2842V75.7407C713.595 74.533 713.474 73.403 713.233 72.3506C712.991 71.2809 712.612 70.3407 712.094 69.5298C711.594 68.7017 710.938 68.0547 710.127 67.5889C709.334 67.1058 708.376 66.8643 707.255 66.8643C706.151 66.8643 705.202 67.1058 704.408 67.5889C703.615 68.0547 702.968 68.7017 702.467 69.5298C701.967 70.3407 701.596 71.2809 701.354 72.3506C701.113 73.403 700.992 74.533 700.992 75.7407ZM732.228 67.7183V90H725.396V61.999H731.866L732.228 67.7183ZM740.742 61.8179L740.639 68.1841C740.259 68.1151 739.828 68.0633 739.345 68.0288C738.879 67.9943 738.439 67.9771 738.025 67.9771C736.972 67.9771 736.049 68.1237 735.256 68.417C734.462 68.693 733.798 69.0985 733.263 69.6333C732.746 70.1681 732.349 70.8237 732.073 71.6001C731.797 72.3592 731.641 73.2218 731.607 74.188L730.132 74.0068C730.132 72.2298 730.313 70.5822 730.675 69.064C731.038 67.5457 731.564 66.2173 732.254 65.0786C732.944 63.9399 733.807 63.0601 734.842 62.439C735.894 61.8006 737.102 61.4814 738.465 61.4814C738.844 61.4814 739.25 61.516 739.681 61.585C740.13 61.6367 740.483 61.7144 740.742 61.8179Z" fill="#1C4670"/>
<path d="M773.091 52.3203V90H766V52.3203H773.091ZM784.788 52.3203V57.936H754.432V52.3203H784.788ZM800.781 90H792.655L792.707 84.4102H800.781C802.972 84.4102 804.81 83.9271 806.293 82.9609C807.777 81.9775 808.899 80.5715 809.658 78.7427C810.417 76.8966 810.796 74.6883 810.796 72.1177V70.1768C810.796 68.1927 810.581 66.4416 810.149 64.9233C809.718 63.4051 809.08 62.1284 808.234 61.0933C807.406 60.0581 806.38 59.2731 805.155 58.7383C803.93 58.2035 802.524 57.936 800.937 57.936H792.5V52.3203H800.937C803.455 52.3203 805.75 52.743 807.82 53.5884C809.908 54.4338 811.711 55.6501 813.229 57.2373C814.764 58.8073 815.938 60.6878 816.749 62.8789C817.577 65.07 817.991 67.5199 817.991 70.2285V72.1177C817.991 74.8091 817.577 77.259 816.749 79.4673C815.938 81.6584 814.764 83.5389 813.229 85.1089C811.711 86.6789 809.899 87.8866 807.794 88.7319C805.69 89.5773 803.352 90 800.781 90ZM796.641 52.3203V90H789.524V52.3203H796.641ZM843.766 80.2178C843.766 79.4932 843.654 78.8462 843.43 78.2769C843.223 77.6903 842.834 77.1641 842.265 76.6982C841.713 76.2152 840.928 75.7493 839.91 75.3008C838.91 74.835 837.616 74.3519 836.028 73.8516C834.269 73.2995 832.63 72.6784 831.111 71.9883C829.593 71.2982 828.256 70.4959 827.1 69.5815C825.961 68.6672 825.073 67.6147 824.435 66.4243C823.796 65.2166 823.477 63.8192 823.477 62.2319C823.477 60.6792 823.805 59.2645 824.46 57.9878C825.133 56.7111 826.082 55.6156 827.307 54.7012C828.532 53.7695 829.973 53.0535 831.629 52.5532C833.302 52.0529 835.148 51.8027 837.167 51.8027C839.962 51.8027 842.377 52.3117 844.413 53.3296C846.466 54.3475 848.053 55.7277 849.175 57.4702C850.296 59.2127 850.857 61.1709 850.857 63.3447H843.766C843.766 62.1715 843.516 61.1364 843.016 60.2393C842.533 59.3421 841.791 58.6348 840.79 58.1172C839.807 57.5996 838.564 57.3408 837.063 57.3408C835.614 57.3408 834.407 57.5565 833.44 57.9878C832.492 58.4191 831.776 59.0057 831.292 59.7476C830.827 60.4894 830.594 61.3175 830.594 62.2319C830.594 62.922 830.758 63.5431 831.085 64.0952C831.413 64.63 831.905 65.139 832.561 65.6221C833.216 66.0879 834.027 66.5278 834.993 66.9419C835.977 67.3387 837.115 67.7355 838.409 68.1323C840.479 68.7534 842.291 69.4435 843.844 70.2026C845.414 70.9618 846.716 71.8244 847.751 72.7905C848.804 73.7567 849.589 74.8436 850.106 76.0513C850.641 77.259 850.909 78.6305 850.909 80.166C850.909 81.7878 850.59 83.237 849.951 84.5137C849.313 85.7904 848.398 86.8773 847.208 87.7744C846.018 88.6715 844.586 89.353 842.912 89.8188C841.256 90.2847 839.401 90.5176 837.348 90.5176C835.519 90.5176 833.708 90.276 831.914 89.793C830.137 89.2926 828.523 88.5508 827.074 87.5674C825.625 86.5667 824.469 85.3073 823.606 83.7891C822.744 82.2536 822.312 80.4593 822.312 78.4062H829.455C829.455 79.5967 829.645 80.6146 830.024 81.46C830.421 82.2881 830.973 82.9696 831.681 83.5044C832.405 84.022 833.251 84.4015 834.217 84.6431C835.183 84.8846 836.227 85.0054 837.348 85.0054C838.797 85.0054 839.988 84.807 840.919 84.4102C841.868 83.9961 842.576 83.4268 843.042 82.7021C843.525 81.9775 843.766 81.1494 843.766 80.2178ZM354.81 152H346.684L346.736 146.41H354.81C357.001 146.41 358.839 145.927 360.322 144.961C361.806 143.978 362.927 142.571 363.687 140.743C364.446 138.897 364.825 136.688 364.825 134.118V132.177C364.825 130.193 364.61 128.442 364.178 126.923C363.747 125.405 363.109 124.128 362.263 123.093C361.435 122.058 360.409 121.273 359.184 120.738C357.959 120.203 356.553 119.936 354.965 119.936H346.529V114.32H354.965C357.484 114.32 359.779 114.743 361.849 115.588C363.937 116.434 365.74 117.65 367.258 119.237C368.793 120.807 369.966 122.688 370.777 124.879C371.605 127.07 372.02 129.52 372.02 132.229V134.118C372.02 136.809 371.605 139.259 370.777 141.467C369.966 143.658 368.793 145.539 367.258 147.109C365.74 148.679 363.928 149.887 361.823 150.732C359.718 151.577 357.381 152 354.81 152ZM350.669 114.32V152H343.553V114.32H350.669ZM390.135 152.518C388.013 152.518 386.106 152.173 384.416 151.482C382.725 150.792 381.284 149.835 380.094 148.61C378.921 147.368 378.015 145.927 377.376 144.288C376.755 142.632 376.445 140.855 376.445 138.957V137.922C376.445 135.765 376.755 133.807 377.376 132.047C377.998 130.27 378.877 128.743 380.016 127.467C381.155 126.19 382.518 125.207 384.105 124.517C385.692 123.826 387.443 123.481 389.358 123.481C391.342 123.481 393.094 123.818 394.612 124.491C396.13 125.146 397.398 126.078 398.416 127.286C399.434 128.493 400.202 129.943 400.719 131.633C401.237 133.307 401.496 135.161 401.496 137.197V140.07H379.55V135.36H394.767V134.842C394.733 133.755 394.526 132.763 394.146 131.866C393.766 130.952 393.18 130.227 392.386 129.692C391.593 129.14 390.566 128.864 389.307 128.864C388.289 128.864 387.4 129.089 386.641 129.537C385.899 129.968 385.278 130.59 384.778 131.4C384.295 132.194 383.932 133.143 383.691 134.247C383.449 135.351 383.329 136.576 383.329 137.922V138.957C383.329 140.13 383.484 141.217 383.794 142.218C384.122 143.218 384.597 144.09 385.218 144.832C385.856 145.556 386.615 146.125 387.495 146.54C388.392 146.936 389.41 147.135 390.549 147.135C391.981 147.135 393.275 146.859 394.431 146.307C395.604 145.737 396.622 144.901 397.484 143.796L400.926 147.368C400.34 148.23 399.546 149.058 398.545 149.852C397.562 150.646 396.372 151.293 394.974 151.793C393.577 152.276 391.964 152.518 390.135 152.518ZM422.872 146.048V112.25H429.755V152H423.544L422.872 146.048ZM404.886 138.336V137.792C404.886 135.653 405.127 133.712 405.61 131.97C406.111 130.21 406.835 128.7 407.784 127.441C408.733 126.181 409.88 125.207 411.226 124.517C412.589 123.826 414.133 123.481 415.858 123.481C417.532 123.481 418.99 123.818 420.232 124.491C421.491 125.164 422.561 126.121 423.441 127.363C424.338 128.605 425.054 130.081 425.589 131.789C426.124 133.479 426.512 135.343 426.753 137.378V138.854C426.512 140.838 426.124 142.658 425.589 144.314C425.054 145.97 424.338 147.419 423.441 148.662C422.561 149.887 421.491 150.835 420.232 151.508C418.972 152.181 417.497 152.518 415.807 152.518C414.099 152.518 412.563 152.164 411.2 151.457C409.854 150.749 408.707 149.757 407.758 148.48C406.827 147.204 406.111 145.703 405.61 143.978C405.127 142.252 404.886 140.372 404.886 138.336ZM411.744 137.792V138.336C411.744 139.544 411.847 140.674 412.054 141.726C412.261 142.778 412.598 143.71 413.063 144.521C413.529 145.315 414.125 145.936 414.849 146.384C415.591 146.833 416.488 147.057 417.541 147.057C418.886 147.057 419.99 146.764 420.853 146.177C421.733 145.573 422.414 144.754 422.897 143.719C423.381 142.666 423.691 141.485 423.829 140.173V136.11C423.76 135.075 423.579 134.118 423.286 133.238C423.01 132.358 422.613 131.599 422.095 130.96C421.595 130.322 420.974 129.822 420.232 129.459C419.49 129.097 418.61 128.916 417.592 128.916C416.54 128.916 415.643 129.149 414.901 129.615C414.159 130.063 413.555 130.693 413.089 131.504C412.624 132.315 412.278 133.255 412.054 134.325C411.847 135.394 411.744 136.55 411.744 137.792ZM452.606 145.349V123.999H459.49V152H453.021L452.606 145.349ZM453.486 139.552L455.608 139.5C455.608 141.381 455.401 143.115 454.987 144.702C454.573 146.289 453.926 147.67 453.046 148.843C452.184 149.999 451.088 150.904 449.76 151.56C448.431 152.198 446.861 152.518 445.05 152.518C443.67 152.518 442.41 152.328 441.271 151.948C440.133 151.551 439.149 150.939 438.321 150.111C437.51 149.265 436.881 148.187 436.432 146.876C435.984 145.548 435.759 143.952 435.759 142.088V123.999H442.591V142.14C442.591 143.072 442.695 143.848 442.902 144.469C443.126 145.09 443.428 145.599 443.808 145.996C444.204 146.376 444.662 146.652 445.179 146.824C445.714 146.979 446.283 147.057 446.887 147.057C448.543 147.057 449.846 146.729 450.795 146.074C451.761 145.401 452.451 144.504 452.865 143.382C453.279 142.244 453.486 140.967 453.486 139.552ZM477.036 147.135C478.002 147.135 478.865 146.945 479.624 146.565C480.383 146.186 480.987 145.651 481.436 144.961C481.901 144.271 482.152 143.469 482.186 142.554H488.63C488.595 144.452 488.061 146.151 487.025 147.652C485.99 149.153 484.61 150.344 482.885 151.224C481.177 152.086 479.262 152.518 477.14 152.518C474.983 152.518 473.103 152.155 471.498 151.431C469.894 150.706 468.556 149.697 467.487 148.403C466.434 147.109 465.641 145.608 465.106 143.9C464.588 142.192 464.33 140.363 464.33 138.414V137.585C464.33 135.636 464.588 133.807 465.106 132.099C465.641 130.391 466.434 128.89 467.487 127.596C468.556 126.302 469.894 125.293 471.498 124.568C473.103 123.844 474.974 123.481 477.114 123.481C479.374 123.481 481.358 123.921 483.066 124.801C484.791 125.681 486.137 126.923 487.103 128.528C488.086 130.132 488.595 132.021 488.63 134.195H482.186C482.152 133.195 481.927 132.298 481.513 131.504C481.099 130.71 480.513 130.072 479.753 129.589C478.994 129.106 478.071 128.864 476.984 128.864C475.828 128.864 474.862 129.106 474.086 129.589C473.327 130.072 472.732 130.736 472.3 131.582C471.886 132.41 471.593 133.341 471.42 134.376C471.265 135.394 471.188 136.464 471.188 137.585V138.414C471.188 139.552 471.265 140.639 471.42 141.674C471.593 142.709 471.886 143.641 472.3 144.469C472.732 145.28 473.327 145.927 474.086 146.41C474.862 146.893 475.846 147.135 477.036 147.135ZM506.435 123.999V128.916H490.39V123.999H506.435ZM494.686 117.115H501.543V143.926C501.543 144.754 501.656 145.392 501.88 145.841C502.104 146.289 502.441 146.591 502.889 146.747C503.338 146.902 503.873 146.979 504.494 146.979C504.942 146.979 505.356 146.954 505.736 146.902C506.115 146.85 506.435 146.798 506.693 146.747L506.719 151.871C506.15 152.06 505.503 152.216 504.778 152.336C504.071 152.457 503.269 152.518 502.372 152.518C500.836 152.518 499.49 152.259 498.334 151.741C497.179 151.206 496.281 150.352 495.643 149.179C495.005 147.989 494.686 146.419 494.686 144.469V117.115ZM518.235 123.999V152H511.377V123.999H518.235ZM510.912 116.675C510.912 115.657 511.257 114.812 511.947 114.139C512.654 113.466 513.603 113.13 514.793 113.13C515.984 113.13 516.924 113.466 517.614 114.139C518.322 114.812 518.675 115.657 518.675 116.675C518.675 117.676 518.322 118.513 517.614 119.186C516.924 119.858 515.984 120.195 514.793 120.195C513.603 120.195 512.654 119.858 511.947 119.186C511.257 118.513 510.912 117.676 510.912 116.675ZM523.541 138.284V137.741C523.541 135.688 523.834 133.799 524.42 132.073C525.007 130.331 525.861 128.821 526.982 127.544C528.104 126.268 529.475 125.276 531.097 124.568C532.719 123.844 534.565 123.481 536.635 123.481C538.74 123.481 540.603 123.844 542.225 124.568C543.864 125.276 545.244 126.268 546.366 127.544C547.487 128.821 548.341 130.331 548.928 132.073C549.514 133.799 549.808 135.688 549.808 137.741V138.284C549.808 140.32 549.514 142.209 548.928 143.952C548.341 145.677 547.487 147.187 546.366 148.48C545.244 149.757 543.873 150.749 542.251 151.457C540.629 152.164 538.775 152.518 536.687 152.518C534.617 152.518 532.762 152.164 531.123 151.457C529.484 150.749 528.104 149.757 526.982 148.48C525.861 147.187 525.007 145.677 524.42 143.952C523.834 142.209 523.541 140.32 523.541 138.284ZM530.373 137.741V138.284C530.373 139.509 530.493 140.656 530.735 141.726C530.976 142.796 531.347 143.736 531.848 144.547C532.348 145.358 532.995 145.996 533.789 146.462C534.599 146.91 535.566 147.135 536.687 147.135C537.791 147.135 538.74 146.91 539.534 146.462C540.327 145.996 540.974 145.358 541.475 144.547C541.992 143.736 542.372 142.796 542.613 141.726C542.855 140.656 542.976 139.509 542.976 138.284V137.741C542.976 136.533 542.855 135.403 542.613 134.351C542.372 133.281 541.992 132.341 541.475 131.53C540.974 130.702 540.319 130.055 539.508 129.589C538.714 129.106 537.757 128.864 536.635 128.864C535.531 128.864 534.582 129.106 533.789 129.589C532.995 130.055 532.348 130.702 531.848 131.53C531.347 132.341 530.976 133.281 530.735 134.351C530.493 135.403 530.373 136.533 530.373 137.741ZM561.479 129.977V152H554.647V123.999H561.065L561.479 129.977ZM560.392 136.99H558.374C558.391 134.954 558.667 133.108 559.202 131.452C559.736 129.796 560.487 128.373 561.453 127.182C562.437 125.992 563.601 125.077 564.947 124.439C566.292 123.801 567.793 123.481 569.45 123.481C570.795 123.481 572.012 123.671 573.099 124.051C574.186 124.43 575.117 125.034 575.894 125.862C576.687 126.69 577.291 127.777 577.705 129.123C578.136 130.451 578.352 132.09 578.352 134.04V152H571.468V133.988C571.468 132.712 571.278 131.702 570.899 130.96C570.537 130.219 570.002 129.692 569.294 129.382C568.604 129.071 567.75 128.916 566.732 128.916C565.68 128.916 564.757 129.132 563.963 129.563C563.187 129.977 562.531 130.555 561.997 131.297C561.479 132.039 561.082 132.893 560.806 133.859C560.53 134.825 560.392 135.869 560.392 136.99ZM604.826 123.999V152H597.968V123.999H604.826ZM597.502 116.675C597.502 115.657 597.847 114.812 598.538 114.139C599.245 113.466 600.194 113.13 601.384 113.13C602.575 113.13 603.515 113.466 604.205 114.139C604.912 114.812 605.266 115.657 605.266 116.675C605.266 117.676 604.912 118.513 604.205 119.186C603.515 119.858 602.575 120.195 601.384 120.195C600.194 120.195 599.245 119.858 598.538 119.186C597.847 118.513 597.502 117.676 597.502 116.675ZM618.05 129.977V152H611.218V123.999H617.636L618.05 129.977ZM616.963 136.99H614.945C614.962 134.954 615.238 133.108 615.773 131.452C616.308 129.796 617.058 128.373 618.024 127.182C619.008 125.992 620.172 125.077 621.518 124.439C622.864 123.801 624.365 123.481 626.021 123.481C627.367 123.481 628.583 123.671 629.67 124.051C630.757 124.43 631.688 125.034 632.465 125.862C633.258 126.69 633.862 127.777 634.276 129.123C634.708 130.451 634.923 132.09 634.923 134.04V152H628.04V133.988C628.04 132.712 627.85 131.702 627.47 130.96C627.108 130.219 626.573 129.692 625.866 129.382C625.176 129.071 624.322 128.916 623.304 128.916C622.251 128.916 621.328 129.132 620.535 129.563C619.758 129.977 619.103 130.555 618.568 131.297C618.05 132.039 617.653 132.893 617.377 133.859C617.101 134.825 616.963 135.869 616.963 136.99ZM662.251 114.32V152H655.135V114.32H662.251ZM676.123 129.977V152H669.291V123.999H675.708L676.123 129.977ZM675.036 136.99H673.017C673.034 134.954 673.31 133.108 673.845 131.452C674.38 129.796 675.131 128.373 676.097 127.182C677.08 125.992 678.245 125.077 679.59 124.439C680.936 123.801 682.437 123.481 684.093 123.481C685.439 123.481 686.655 123.671 687.742 124.051C688.829 124.43 689.761 125.034 690.537 125.862C691.331 126.69 691.935 127.777 692.349 129.123C692.78 130.451 692.996 132.09 692.996 134.04V152H686.112V133.988C686.112 132.712 685.922 131.702 685.542 130.96C685.18 130.219 684.645 129.692 683.938 129.382C683.248 129.071 682.394 128.916 681.376 128.916C680.324 128.916 679.401 129.132 678.607 129.563C677.831 129.977 677.175 130.555 676.64 131.297C676.123 132.039 675.726 132.893 675.45 133.859C675.174 134.825 675.036 135.869 675.036 136.99ZM715.821 146.048V112.25H722.705V152H716.494L715.821 146.048ZM697.835 138.336V137.792C697.835 135.653 698.076 133.712 698.56 131.97C699.06 130.21 699.785 128.7 700.733 127.441C701.682 126.181 702.83 125.207 704.175 124.517C705.538 123.826 707.082 123.481 708.808 123.481C710.481 123.481 711.939 123.818 713.181 124.491C714.441 125.164 715.51 126.121 716.39 127.363C717.287 128.605 718.003 130.081 718.538 131.789C719.073 133.479 719.461 135.343 719.703 137.378V138.854C719.461 140.838 719.073 142.658 718.538 144.314C718.003 145.97 717.287 147.419 716.39 148.662C715.51 149.887 714.441 150.835 713.181 151.508C711.922 152.181 710.447 152.518 708.756 152.518C707.048 152.518 705.512 152.164 704.149 151.457C702.804 150.749 701.656 149.757 700.708 148.48C699.776 147.204 699.06 145.703 698.56 143.978C698.076 142.252 697.835 140.372 697.835 138.336ZM704.693 137.792V138.336C704.693 139.544 704.796 140.674 705.003 141.726C705.21 142.778 705.547 143.71 706.013 144.521C706.479 145.315 707.074 145.936 707.798 146.384C708.54 146.833 709.437 147.057 710.49 147.057C711.835 147.057 712.94 146.764 713.802 146.177C714.682 145.573 715.364 144.754 715.847 143.719C716.33 142.666 716.64 141.485 716.778 140.173V136.11C716.709 135.075 716.528 134.118 716.235 133.238C715.959 132.358 715.562 131.599 715.044 130.96C714.544 130.322 713.923 129.822 713.181 129.459C712.439 129.097 711.559 128.916 710.542 128.916C709.489 128.916 708.592 129.149 707.85 129.615C707.108 130.063 706.504 130.693 706.039 131.504C705.573 132.315 705.228 133.255 705.003 134.325C704.796 135.394 704.693 136.55 704.693 137.792ZM736.136 123.999V152H729.278V123.999H736.136ZM728.812 116.675C728.812 115.657 729.157 114.812 729.847 114.139C730.555 113.466 731.503 113.13 732.694 113.13C733.884 113.13 734.825 113.466 735.515 114.139C736.222 114.812 736.576 115.657 736.576 116.675C736.576 117.676 736.222 118.513 735.515 119.186C734.825 119.858 733.884 120.195 732.694 120.195C731.503 120.195 730.555 119.858 729.847 119.186C729.157 118.513 728.812 117.676 728.812 116.675ZM758.081 146.048V133.134C758.081 132.185 757.917 131.366 757.589 130.676C757.262 129.986 756.761 129.451 756.088 129.071C755.416 128.692 754.562 128.502 753.526 128.502C752.612 128.502 751.81 128.657 751.12 128.968C750.447 129.278 749.929 129.718 749.567 130.288C749.205 130.84 749.023 131.478 749.023 132.203H742.166C742.166 131.047 742.442 129.951 742.994 128.916C743.546 127.864 744.331 126.932 745.349 126.121C746.384 125.293 747.617 124.646 749.049 124.18C750.499 123.714 752.12 123.481 753.915 123.481C756.037 123.481 757.926 123.844 759.582 124.568C761.256 125.276 762.567 126.345 763.516 127.777C764.482 129.209 764.965 131.012 764.965 133.186V145.401C764.965 146.798 765.051 147.997 765.224 148.998C765.413 149.981 765.689 150.835 766.052 151.56V152H759.09C758.763 151.293 758.512 150.396 758.34 149.309C758.167 148.204 758.081 147.118 758.081 146.048ZM759.039 134.946L759.09 139.009H754.769C753.699 139.009 752.759 139.121 751.948 139.345C751.137 139.552 750.473 139.863 749.955 140.277C749.438 140.674 749.049 141.157 748.791 141.726C748.532 142.278 748.402 142.908 748.402 143.615C748.402 144.305 748.558 144.926 748.868 145.479C749.196 146.031 749.662 146.471 750.266 146.798C750.887 147.109 751.611 147.264 752.439 147.264C753.647 147.264 754.7 147.023 755.597 146.54C756.494 146.039 757.193 145.435 757.693 144.728C758.193 144.021 758.461 143.348 758.495 142.709L760.462 145.66C760.22 146.367 759.858 147.118 759.375 147.911C758.892 148.705 758.271 149.447 757.512 150.137C756.753 150.827 755.838 151.396 754.769 151.845C753.699 152.293 752.457 152.518 751.042 152.518C749.23 152.518 747.609 152.155 746.177 151.431C744.745 150.706 743.615 149.714 742.787 148.455C741.958 147.195 741.544 145.763 741.544 144.159C741.544 142.675 741.82 141.364 742.373 140.225C742.925 139.086 743.744 138.129 744.831 137.353C745.918 136.559 747.264 135.964 748.868 135.567C750.49 135.153 752.345 134.946 754.432 134.946H759.039Z" fill="#FFA229"/>
</g>
<defs>
<clipPath id="clip0_63_3278">
<rect width="1080" height="1049" fill="white"/>
</clipPath>
</defs>
</svg>
