<svg width="1080" height="983" viewBox="0 0 1080 983" fill="none" xmlns="http://www.w3.org/2000/svg">
<rect width="1080" height="983" fill="white"/>
<path d="M253.507 52.125V54.1953C253.507 57.042 253.136 59.5954 252.394 61.8555C251.652 64.1156 250.591 66.0392 249.211 67.6265C247.848 69.2137 246.209 70.43 244.294 71.2754C242.379 72.1035 240.257 72.5176 237.928 72.5176C235.616 72.5176 233.502 72.1035 231.587 71.2754C229.69 70.43 228.042 69.2137 226.645 67.6265C225.247 66.0392 224.16 64.1156 223.384 61.8555C222.625 59.5954 222.245 57.042 222.245 54.1953V52.125C222.245 49.2783 222.625 46.7336 223.384 44.4907C224.143 42.2306 225.213 40.307 226.593 38.7197C227.99 37.1152 229.638 35.8989 231.536 35.0708C233.451 34.2254 235.564 33.8027 237.876 33.8027C240.205 33.8027 242.327 34.2254 244.242 35.0708C246.157 35.8989 247.805 37.1152 249.185 38.7197C250.565 40.307 251.626 42.2306 252.368 44.4907C253.127 46.7336 253.507 49.2783 253.507 52.125ZM247.011 54.1953V52.0732C247.011 49.9684 246.804 48.1138 246.39 46.5093C245.993 44.8875 245.398 43.5332 244.604 42.4463C243.828 41.3421 242.871 40.514 241.732 39.9619C240.593 39.3926 239.308 39.1079 237.876 39.1079C236.444 39.1079 235.167 39.3926 234.046 39.9619C232.924 40.514 231.967 41.3421 231.173 42.4463C230.397 43.5332 229.802 44.8875 229.388 46.5093C228.974 48.1138 228.767 49.9684 228.767 52.0732V54.1953C228.767 56.3001 228.974 58.1634 229.388 59.7852C229.802 61.4069 230.406 62.7785 231.199 63.8999C232.01 65.0041 232.976 65.8408 234.098 66.4102C235.219 66.9622 236.496 67.2383 237.928 67.2383C239.377 67.2383 240.662 66.9622 241.784 66.4102C242.905 65.8408 243.854 65.0041 244.63 63.8999C245.407 62.7785 245.993 61.4069 246.39 59.7852C246.804 58.1634 247.011 56.3001 247.011 54.1953ZM268.491 67.0571L275.349 43.999H281.818L272.088 72H268.051L268.491 67.0571ZM263.237 43.999L270.225 67.1606L270.561 72H266.524L256.742 43.999H263.237ZM297.656 72.5176C295.586 72.5176 293.714 72.1812 292.041 71.5083C290.384 70.8182 288.97 69.8607 287.796 68.6357C286.64 67.4108 285.752 65.9702 285.131 64.314C284.51 62.6577 284.199 60.8721 284.199 58.957V57.9219C284.199 55.7308 284.518 53.7467 285.157 51.9697C285.795 50.1927 286.684 48.6745 287.822 47.415C288.961 46.1383 290.307 45.1636 291.859 44.4907C293.412 43.8179 295.094 43.4814 296.906 43.4814C298.907 43.4814 300.658 43.8179 302.159 44.4907C303.66 45.1636 304.902 46.1125 305.886 47.3374C306.886 48.5451 307.628 49.9857 308.111 51.6592C308.612 53.3327 308.862 55.1787 308.862 57.1973V59.8628H287.227V55.3857H302.703V54.894C302.668 53.7726 302.444 52.7202 302.03 51.7368C301.633 50.7534 301.021 49.9598 300.192 49.356C299.364 48.7521 298.26 48.4502 296.88 48.4502C295.845 48.4502 294.922 48.6745 294.111 49.123C293.317 49.5544 292.653 50.1841 292.118 51.0122C291.583 51.8403 291.169 52.841 290.876 54.0142C290.6 55.1701 290.462 56.4727 290.462 57.9219V58.957C290.462 60.182 290.626 61.3206 290.954 62.373C291.299 63.4082 291.799 64.314 292.455 65.0903C293.11 65.8667 293.904 66.4792 294.835 66.9277C295.767 67.359 296.828 67.5747 298.019 67.5747C299.52 67.5747 300.857 67.2728 302.03 66.6689C303.203 66.0651 304.221 65.2111 305.083 64.1069L308.37 67.29C307.766 68.1699 306.981 69.0153 306.015 69.8262C305.049 70.6198 303.867 71.2668 302.47 71.7671C301.09 72.2674 299.485 72.5176 297.656 72.5176ZM319.99 49.3301V72H313.753V43.999H319.705L319.99 49.3301ZM328.556 43.8179L328.504 49.6147C328.124 49.5457 327.71 49.494 327.262 49.4595C326.83 49.425 326.399 49.4077 325.968 49.4077C324.898 49.4077 323.958 49.563 323.147 49.8735C322.336 50.1668 321.655 50.5981 321.103 51.1675C320.568 51.7196 320.154 52.3924 319.86 53.186C319.567 53.9797 319.395 54.8682 319.343 55.8516L317.919 55.9551C317.919 54.1953 318.092 52.5649 318.437 51.064C318.782 49.563 319.3 48.2432 319.99 47.1045C320.697 45.9658 321.577 45.0773 322.629 44.439C323.699 43.8006 324.933 43.4814 326.33 43.4814C326.71 43.4814 327.115 43.516 327.546 43.585C327.995 43.654 328.331 43.7316 328.556 43.8179ZM342.039 67.0571L348.896 43.999H355.366L345.636 72H341.599L342.039 67.0571ZM336.785 43.999L343.772 67.1606L344.109 72H340.072L330.29 43.999H336.785ZM365.899 43.999V72H359.636V43.999H365.899ZM359.222 36.6494C359.222 35.7005 359.533 34.9155 360.154 34.2944C360.792 33.6561 361.672 33.3369 362.793 33.3369C363.898 33.3369 364.769 33.6561 365.407 34.2944C366.046 34.9155 366.365 35.7005 366.365 36.6494C366.365 37.5811 366.046 38.3574 365.407 38.9785C364.769 39.5996 363.898 39.9102 362.793 39.9102C361.672 39.9102 360.792 39.5996 360.154 38.9785C359.533 38.3574 359.222 37.5811 359.222 36.6494ZM385.075 72.5176C383.005 72.5176 381.133 72.1812 379.459 71.5083C377.803 70.8182 376.389 69.8607 375.215 68.6357C374.059 67.4108 373.171 65.9702 372.55 64.314C371.929 62.6577 371.618 60.8721 371.618 58.957V57.9219C371.618 55.7308 371.937 53.7467 372.576 51.9697C373.214 50.1927 374.103 48.6745 375.241 47.415C376.38 46.1383 377.726 45.1636 379.278 44.4907C380.831 43.8179 382.513 43.4814 384.325 43.4814C386.326 43.4814 388.077 43.8179 389.578 44.4907C391.079 45.1636 392.321 46.1125 393.305 47.3374C394.305 48.5451 395.047 49.9857 395.53 51.6592C396.031 53.3327 396.281 55.1787 396.281 57.1973V59.8628H374.646V55.3857H390.122V54.894C390.087 53.7726 389.863 52.7202 389.449 51.7368C389.052 50.7534 388.439 49.9598 387.611 49.356C386.783 48.7521 385.679 48.4502 384.299 48.4502C383.264 48.4502 382.341 48.6745 381.53 49.123C380.736 49.5544 380.072 50.1841 379.537 51.0122C379.002 51.8403 378.588 52.841 378.295 54.0142C378.019 55.1701 377.881 56.4727 377.881 57.9219V58.957C377.881 60.182 378.045 61.3206 378.373 62.373C378.718 63.4082 379.218 64.314 379.874 65.0903C380.529 65.8667 381.323 66.4792 382.254 66.9277C383.186 67.359 384.247 67.5747 385.438 67.5747C386.938 67.5747 388.276 67.2728 389.449 66.6689C390.622 66.0651 391.64 65.2111 392.502 64.1069L395.789 67.29C395.185 68.1699 394.4 69.0153 393.434 69.8262C392.468 70.6198 391.286 71.2668 389.889 71.7671C388.508 72.2674 386.904 72.5176 385.075 72.5176ZM408.754 65.7891L415.224 43.999H419.209L418.123 50.5205L411.601 72H408.03L408.754 65.7891ZM404.95 43.999L409.997 65.8926L410.411 72H406.425L398.843 43.999H404.95ZM425.265 65.6338L430.156 43.999H436.238L428.681 72H424.696L425.265 65.6338ZM419.882 43.999L426.274 65.5303L427.077 72H423.505L416.906 50.4946L415.819 43.999H419.882ZM452.49 58.3101V57.7148C452.49 55.6963 452.783 53.8244 453.37 52.0991C453.956 50.3566 454.802 48.847 455.906 47.5703C457.027 46.2764 458.39 45.2757 459.995 44.5684C461.616 43.8438 463.445 43.4814 465.481 43.4814C467.534 43.4814 469.363 43.8438 470.967 44.5684C472.589 45.2757 473.961 46.2764 475.082 47.5703C476.203 48.847 477.057 50.3566 477.644 52.0991C478.231 53.8244 478.524 55.6963 478.524 57.7148V58.3101C478.524 60.3286 478.231 62.2005 477.644 63.9258C477.057 65.651 476.203 67.1606 475.082 68.4546C473.961 69.7313 472.598 70.7319 470.993 71.4565C469.389 72.1639 467.569 72.5176 465.533 72.5176C463.48 72.5176 461.642 72.1639 460.021 71.4565C458.416 70.7319 457.053 69.7313 455.932 68.4546C454.81 67.1606 453.956 65.651 453.37 63.9258C452.783 62.2005 452.49 60.3286 452.49 58.3101ZM458.727 57.7148V58.3101C458.727 59.5695 458.856 60.7599 459.115 61.8813C459.374 63.0028 459.779 63.9862 460.331 64.8315C460.883 65.6769 461.59 66.3411 462.453 66.8242C463.316 67.3073 464.342 67.5488 465.533 67.5488C466.689 67.5488 467.689 67.3073 468.535 66.8242C469.397 66.3411 470.105 65.6769 470.657 64.8315C471.209 63.9862 471.614 63.0028 471.873 61.8813C472.149 60.7599 472.287 59.5695 472.287 58.3101V57.7148C472.287 56.4727 472.149 55.2995 471.873 54.1953C471.614 53.0739 471.2 52.0819 470.631 51.2192C470.079 50.3566 469.371 49.6838 468.509 49.2007C467.663 48.7004 466.654 48.4502 465.481 48.4502C464.308 48.4502 463.29 48.7004 462.427 49.2007C461.582 49.6838 460.883 50.3566 460.331 51.2192C459.779 52.0819 459.374 53.0739 459.115 54.1953C458.856 55.2995 458.727 56.4727 458.727 57.7148ZM492.188 72H485.951V41.3076C485.951 39.2201 486.339 37.4689 487.116 36.0542C487.909 34.6222 489.039 33.5439 490.506 32.8193C491.972 32.0775 493.706 31.7065 495.708 31.7065C496.329 31.7065 496.941 31.7497 497.545 31.8359C498.149 31.9049 498.735 32.0171 499.305 32.1724L499.149 36.9858C498.804 36.8996 498.425 36.8392 498.011 36.8047C497.614 36.7702 497.183 36.7529 496.717 36.7529C495.768 36.7529 494.948 36.9341 494.258 37.2964C493.585 37.6414 493.068 38.1504 492.706 38.8232C492.361 39.4961 492.188 40.3242 492.188 41.3076V72ZM497.959 43.999V48.5537H481.655V43.999H497.959Z" fill="#1C4670"/>
<path d="M530.566 34.3203V72H524.123V34.3203H530.566ZM542.393 34.3203V39.4961H512.399V34.3203H542.393ZM559.059 66.3843V53.0308C559.059 52.0301 558.878 51.1675 558.516 50.4429C558.153 49.7183 557.601 49.1576 556.859 48.7607C556.135 48.3639 555.22 48.1655 554.116 48.1655C553.098 48.1655 552.218 48.3381 551.477 48.6831C550.735 49.0282 550.157 49.494 549.743 50.0806C549.329 50.6672 549.122 51.3314 549.122 52.0732H542.911C542.911 50.9691 543.178 49.8994 543.713 48.8643C544.248 47.8291 545.024 46.9061 546.042 46.0952C547.06 45.2843 548.276 44.646 549.691 44.1802C551.106 43.7144 552.693 43.4814 554.453 43.4814C556.557 43.4814 558.421 43.8351 560.042 44.5425C561.681 45.2498 562.967 46.3195 563.898 47.7515C564.847 49.1662 565.322 50.9432 565.322 53.0825V65.5303C565.322 66.807 565.408 67.9543 565.581 68.9722C565.77 69.9728 566.038 70.8441 566.383 71.5859V72H559.991C559.697 71.3271 559.465 70.4731 559.292 69.438C559.137 68.3856 559.059 67.3677 559.059 66.3843ZM559.965 54.9717L560.017 58.8276H555.54C554.384 58.8276 553.366 58.9398 552.486 59.1641C551.606 59.3711 550.873 59.6816 550.286 60.0957C549.7 60.5098 549.26 61.0101 548.966 61.5967C548.673 62.1833 548.526 62.8475 548.526 63.5894C548.526 64.3312 548.699 65.0127 549.044 65.6338C549.389 66.2376 549.889 66.7121 550.545 67.0571C551.218 67.4022 552.029 67.5747 552.978 67.5747C554.254 67.5747 555.367 67.3159 556.316 66.7983C557.282 66.2635 558.041 65.6165 558.593 64.8574C559.145 64.0811 559.439 63.3478 559.473 62.6577L561.492 65.4268C561.285 66.1341 560.931 66.8932 560.431 67.7041C559.93 68.515 559.275 69.2913 558.464 70.0332C557.67 70.7578 556.713 71.353 555.591 71.8188C554.487 72.2847 553.21 72.5176 551.761 72.5176C549.932 72.5176 548.302 72.1553 546.87 71.4307C545.438 70.6888 544.317 69.6968 543.506 68.4546C542.695 67.1951 542.29 65.7718 542.29 64.1846C542.29 62.7008 542.566 61.3896 543.118 60.251C543.687 59.0951 544.515 58.1289 545.602 57.3525C546.706 56.5762 548.052 55.9896 549.639 55.5928C551.226 55.1787 553.038 54.9717 555.074 54.9717H559.965ZM576.605 43.999L581.936 53.2896L587.371 43.999H594.229L585.74 57.7407L594.565 72H587.707L582.014 62.3213L576.32 72H569.437L578.235 57.7407L569.773 43.999H576.605ZM634.574 59.7334H641.043C640.836 62.2005 640.146 64.4002 638.973 66.3325C637.8 68.2476 636.152 69.7572 634.03 70.8613C631.908 71.9655 629.329 72.5176 626.292 72.5176C623.963 72.5176 621.867 72.1035 620.004 71.2754C618.141 70.43 616.545 69.2396 615.216 67.7041C613.888 66.1514 612.87 64.2795 612.163 62.0884C611.472 59.8973 611.127 57.4474 611.127 54.7388V51.6074C611.127 48.8988 611.481 46.4489 612.188 44.2578C612.913 42.0667 613.948 40.1948 615.294 38.6421C616.64 37.0721 618.253 35.873 620.133 35.0449C622.031 34.2168 624.162 33.8027 626.525 33.8027C629.527 33.8027 632.063 34.3548 634.134 35.459C636.204 36.5632 637.809 38.09 638.947 40.0396C640.103 41.9891 640.811 44.2233 641.069 46.7422H634.6C634.427 45.1204 634.048 43.7316 633.461 42.5757C632.892 41.4198 632.046 40.5399 630.925 39.936C629.803 39.3149 628.337 39.0044 626.525 39.0044C625.042 39.0044 623.748 39.2804 622.644 39.8325C621.539 40.3846 620.616 41.1955 619.875 42.2651C619.133 43.3348 618.572 44.6546 618.192 46.2246C617.83 47.7773 617.649 49.5544 617.649 51.5557V54.7388C617.649 56.6366 617.813 58.3618 618.141 59.9146C618.486 61.45 619.003 62.7699 619.693 63.874C620.401 64.9782 621.298 65.8322 622.385 66.436C623.472 67.0399 624.774 67.3418 626.292 67.3418C628.139 67.3418 629.631 67.0485 630.77 66.4619C631.925 65.8753 632.797 65.0213 633.383 63.8999C633.987 62.7612 634.384 61.3724 634.574 59.7334ZM645.132 58.3101V57.7148C645.132 55.6963 645.426 53.8244 646.012 52.0991C646.599 50.3566 647.444 48.847 648.548 47.5703C649.67 46.2764 651.033 45.2757 652.637 44.5684C654.259 43.8438 656.088 43.4814 658.124 43.4814C660.177 43.4814 662.005 43.8438 663.61 44.5684C665.232 45.2757 666.603 46.2764 667.725 47.5703C668.846 48.847 669.7 50.3566 670.287 52.0991C670.873 53.8244 671.167 55.6963 671.167 57.7148V58.3101C671.167 60.3286 670.873 62.2005 670.287 63.9258C669.7 65.651 668.846 67.1606 667.725 68.4546C666.603 69.7313 665.24 70.7319 663.636 71.4565C662.031 72.1639 660.211 72.5176 658.175 72.5176C656.122 72.5176 654.285 72.1639 652.663 71.4565C651.059 70.7319 649.696 69.7313 648.574 68.4546C647.453 67.1606 646.599 65.651 646.012 63.9258C645.426 62.2005 645.132 60.3286 645.132 58.3101ZM651.369 57.7148V58.3101C651.369 59.5695 651.499 60.7599 651.757 61.8813C652.016 63.0028 652.422 63.9862 652.974 64.8315C653.526 65.6769 654.233 66.3411 655.096 66.8242C655.958 67.3073 656.985 67.5488 658.175 67.5488C659.331 67.5488 660.332 67.3073 661.177 66.8242C662.04 66.3411 662.747 65.6769 663.299 64.8315C663.851 63.9862 664.257 63.0028 664.516 61.8813C664.792 60.7599 664.93 59.5695 664.93 58.3101V57.7148C664.93 56.4727 664.792 55.2995 664.516 54.1953C664.257 53.0739 663.843 52.0819 663.273 51.2192C662.721 50.3566 662.014 49.6838 661.151 49.2007C660.306 48.7004 659.297 48.4502 658.124 48.4502C656.95 48.4502 655.932 48.7004 655.07 49.2007C654.224 49.6838 653.526 50.3566 652.974 51.2192C652.422 52.0819 652.016 53.0739 651.757 54.1953C651.499 55.2995 651.369 56.4727 651.369 57.7148ZM682.579 49.9771V72H676.342V43.999H682.217L682.579 49.9771ZM681.466 56.9644L679.448 56.9385C679.465 54.9544 679.741 53.1343 680.276 51.478C680.828 49.8218 681.587 48.3984 682.553 47.208C683.537 46.0176 684.71 45.1032 686.073 44.4648C687.436 43.8092 688.954 43.4814 690.627 43.4814C691.973 43.4814 693.189 43.6712 694.276 44.0508C695.381 44.4131 696.321 45.0083 697.097 45.8364C697.891 46.6646 698.495 47.7428 698.909 49.0713C699.323 50.3825 699.53 51.9956 699.53 53.9106V72H693.267V53.8848C693.267 52.5391 693.069 51.478 692.672 50.7017C692.292 49.908 691.732 49.3473 690.99 49.0195C690.265 48.6745 689.359 48.502 688.272 48.502C687.203 48.502 686.245 48.7262 685.4 49.1748C684.555 49.6234 683.839 50.2358 683.252 51.0122C682.683 51.7886 682.243 52.6857 681.932 53.7036C681.622 54.7215 681.466 55.8084 681.466 56.9644ZM721.604 64.4175C721.604 63.7964 721.449 63.2357 721.139 62.7354C720.828 62.2178 720.233 61.752 719.353 61.3379C718.49 60.9238 717.214 60.5443 715.523 60.1992C714.039 59.8714 712.676 59.4832 711.434 59.0347C710.209 58.5688 709.157 58.0081 708.277 57.3525C707.397 56.6969 706.715 55.9206 706.232 55.0234C705.749 54.1263 705.508 53.0911 705.508 51.918C705.508 50.7793 705.758 49.701 706.258 48.6831C706.759 47.6652 707.475 46.7681 708.406 45.9917C709.338 45.2153 710.468 44.6029 711.796 44.1543C713.142 43.7057 714.643 43.4814 716.299 43.4814C718.646 43.4814 720.656 43.8783 722.329 44.6719C724.02 45.4482 725.314 46.5093 726.211 47.855C727.108 49.1834 727.557 50.6844 727.557 52.3579H721.32C721.32 51.616 721.13 50.9259 720.75 50.2876C720.388 49.632 719.836 49.1058 719.094 48.709C718.352 48.2949 717.421 48.0879 716.299 48.0879C715.23 48.0879 714.341 48.2604 713.634 48.6055C712.944 48.9333 712.426 49.3646 712.081 49.8994C711.753 50.4342 711.589 51.0208 711.589 51.6592C711.589 52.125 711.676 52.5477 711.848 52.9272C712.038 53.2896 712.348 53.626 712.78 53.9365C713.211 54.2298 713.798 54.5059 714.54 54.7646C715.299 55.0234 716.248 55.2736 717.386 55.5151C719.526 55.9637 721.363 56.5417 722.898 57.249C724.451 57.9391 725.642 58.8363 726.47 59.9404C727.298 61.0273 727.712 62.4076 727.712 64.0811C727.712 65.3232 727.444 66.4619 726.91 67.4971C726.392 68.515 725.633 69.4035 724.632 70.1626C723.632 70.9045 722.433 71.4824 721.035 71.8965C719.655 72.3105 718.102 72.5176 716.377 72.5176C713.841 72.5176 711.693 72.069 709.933 71.1719C708.173 70.2575 706.836 69.0929 705.922 67.6782C705.025 66.2463 704.576 64.7625 704.576 63.2271H710.606C710.675 64.383 710.994 65.306 711.563 65.9961C712.15 66.6689 712.875 67.1606 713.737 67.4712C714.617 67.7645 715.523 67.9111 716.455 67.9111C717.576 67.9111 718.516 67.7645 719.275 67.4712C720.035 67.1606 720.612 66.7466 721.009 66.229C721.406 65.6942 721.604 65.0903 721.604 64.4175ZM750.02 65.4009V43.999H756.282V72H750.382L750.02 65.4009ZM750.899 59.5781L752.996 59.5264C752.996 61.4069 752.789 63.1408 752.375 64.728C751.96 66.298 751.322 67.6696 750.459 68.8428C749.597 69.9987 748.493 70.9045 747.147 71.5601C745.801 72.1984 744.188 72.5176 742.308 72.5176C740.945 72.5176 739.694 72.3192 738.555 71.9224C737.417 71.5256 736.433 70.9131 735.605 70.085C734.794 69.2568 734.164 68.1785 733.716 66.8501C733.267 65.5216 733.043 63.9344 733.043 62.0884V43.999H739.28V62.1401C739.28 63.158 739.401 64.012 739.642 64.7021C739.884 65.375 740.211 65.9185 740.625 66.3325C741.04 66.7466 741.523 67.0399 742.075 67.2124C742.627 67.3849 743.213 67.4712 743.834 67.4712C745.611 67.4712 747.009 67.1261 748.027 66.436C749.062 65.7287 749.795 64.7798 750.227 63.5894C750.675 62.3989 750.899 61.0618 750.899 59.5781ZM769.351 32.25V72H763.088V32.25H769.351ZM789.019 43.999V48.5537H773.233V43.999H789.019ZM777.788 37.1411H784.024V64.2622C784.024 65.1248 784.145 65.7891 784.387 66.2549C784.646 66.7035 784.999 67.0054 785.448 67.1606C785.896 67.3159 786.423 67.3936 787.026 67.3936C787.458 67.3936 787.872 67.3677 788.269 67.3159C788.665 67.2642 788.985 67.2124 789.226 67.1606L789.252 71.9224C788.734 72.0776 788.131 72.2157 787.44 72.3364C786.768 72.4572 785.991 72.5176 785.111 72.5176C783.679 72.5176 782.411 72.2674 781.307 71.7671C780.203 71.2495 779.34 70.4128 778.719 69.2568C778.098 68.1009 777.788 66.5654 777.788 64.6504V37.1411ZM809.619 66.3843V53.0308C809.619 52.0301 809.438 51.1675 809.075 50.4429C808.713 49.7183 808.161 49.1576 807.419 48.7607C806.694 48.3639 805.78 48.1655 804.676 48.1655C803.658 48.1655 802.778 48.3381 802.036 48.6831C801.294 49.0282 800.716 49.494 800.302 50.0806C799.888 50.6672 799.681 51.3314 799.681 52.0732H793.47C793.47 50.9691 793.738 49.8994 794.272 48.8643C794.807 47.8291 795.584 46.9061 796.602 46.0952C797.619 45.2843 798.836 44.646 800.25 44.1802C801.665 43.7144 803.252 43.4814 805.012 43.4814C807.117 43.4814 808.98 43.8351 810.602 44.5425C812.241 45.2498 813.526 46.3195 814.458 47.7515C815.407 49.1662 815.881 50.9432 815.881 53.0825V65.5303C815.881 66.807 815.968 67.9543 816.14 68.9722C816.33 69.9728 816.597 70.8441 816.942 71.5859V72H810.55C810.257 71.3271 810.024 70.4731 809.852 69.438C809.696 68.3856 809.619 67.3677 809.619 66.3843ZM810.524 54.9717L810.576 58.8276H806.099C804.943 58.8276 803.925 58.9398 803.045 59.1641C802.166 59.3711 801.432 59.6816 800.846 60.0957C800.259 60.5098 799.819 61.0101 799.526 61.5967C799.233 62.1833 799.086 62.8475 799.086 63.5894C799.086 64.3312 799.258 65.0127 799.604 65.6338C799.949 66.2376 800.449 66.7121 801.104 67.0571C801.777 67.4022 802.588 67.5747 803.537 67.5747C804.814 67.5747 805.927 67.3159 806.875 66.7983C807.842 66.2635 808.601 65.6165 809.153 64.8574C809.705 64.0811 809.998 63.3478 810.033 62.6577L812.051 65.4268C811.844 66.1341 811.491 66.8932 810.99 67.7041C810.49 68.515 809.834 69.2913 809.023 70.0332C808.23 70.7578 807.272 71.353 806.151 71.8188C805.047 72.2847 803.77 72.5176 802.321 72.5176C800.492 72.5176 798.862 72.1553 797.43 71.4307C795.998 70.6888 794.876 69.6968 794.065 68.4546C793.255 67.1951 792.849 65.7718 792.849 64.1846C792.849 62.7008 793.125 61.3896 793.677 60.251C794.247 59.0951 795.075 58.1289 796.162 57.3525C797.266 56.5762 798.611 55.9896 800.199 55.5928C801.786 55.1787 803.597 54.9717 805.633 54.9717H810.524ZM828.588 49.9771V72H822.351V43.999H828.226L828.588 49.9771ZM827.475 56.9644L825.457 56.9385C825.474 54.9544 825.75 53.1343 826.285 51.478C826.837 49.8218 827.596 48.3984 828.562 47.208C829.545 46.0176 830.719 45.1032 832.082 44.4648C833.444 43.8092 834.963 43.4814 836.636 43.4814C837.982 43.4814 839.198 43.6712 840.285 44.0508C841.389 44.4131 842.33 45.0083 843.106 45.8364C843.9 46.6646 844.503 47.7428 844.917 49.0713C845.332 50.3825 845.539 51.9956 845.539 53.9106V72H839.276V53.8848C839.276 52.5391 839.077 51.478 838.681 50.7017C838.301 49.908 837.74 49.3473 836.999 49.0195C836.274 48.6745 835.368 48.502 834.281 48.502C833.212 48.502 832.254 48.7262 831.409 49.1748C830.563 49.6234 829.847 50.2358 829.261 51.0122C828.691 51.7886 828.251 52.6857 827.941 53.7036C827.63 54.7215 827.475 55.8084 827.475 56.9644ZM863.343 67.5488C864.361 67.5488 865.276 67.3504 866.086 66.9536C866.915 66.5396 867.579 65.9702 868.079 65.2456C868.597 64.521 868.881 63.6842 868.933 62.7354H874.808C874.773 64.5469 874.238 66.1945 873.203 67.6782C872.168 69.1619 870.796 70.3438 869.088 71.2236C867.38 72.0863 865.491 72.5176 863.421 72.5176C861.282 72.5176 859.418 72.1553 857.831 71.4307C856.244 70.6888 854.924 69.6709 853.872 68.377C852.819 67.083 852.026 65.5907 851.491 63.8999C850.973 62.2091 850.714 60.3976 850.714 58.4653V57.5596C850.714 55.6273 850.973 53.8158 851.491 52.125C852.026 50.417 852.819 48.916 853.872 47.6221C854.924 46.3281 856.244 45.3188 857.831 44.5942C859.418 43.8524 861.273 43.4814 863.395 43.4814C865.638 43.4814 867.605 43.93 869.295 44.8271C870.986 45.707 872.315 46.9406 873.281 48.5278C874.264 50.0978 874.773 51.9266 874.808 54.0142H868.933C868.881 52.979 868.623 52.0474 868.157 51.2192C867.708 50.3739 867.07 49.701 866.242 49.2007C865.431 48.7004 864.456 48.4502 863.317 48.4502C862.058 48.4502 861.014 48.709 860.186 49.2266C859.358 49.7269 858.711 50.417 858.245 51.2969C857.779 52.1595 857.443 53.1343 857.236 54.2212C857.046 55.2909 856.951 56.4036 856.951 57.5596V58.4653C856.951 59.6213 857.046 60.7427 857.236 61.8296C857.426 62.9165 857.753 63.8913 858.219 64.7539C858.702 65.5993 859.358 66.2808 860.186 66.7983C861.014 67.2987 862.067 67.5488 863.343 67.5488ZM887.721 68.9463L895.33 43.999H902.006L890.775 76.27C890.516 76.9601 890.18 77.7106 889.766 78.5215C889.352 79.3324 888.808 80.1001 888.135 80.8247C887.48 81.5666 886.66 82.1618 885.677 82.6104C884.693 83.0762 883.503 83.3091 882.105 83.3091C881.553 83.3091 881.019 83.2573 880.501 83.1538C880.001 83.0675 879.526 82.9727 879.078 82.8691L879.052 78.1074C879.224 78.1247 879.431 78.1419 879.673 78.1592C879.932 78.1764 880.139 78.1851 880.294 78.1851C881.329 78.1851 882.192 78.0557 882.882 77.7969C883.572 77.5553 884.133 77.1585 884.564 76.6064C885.013 76.0544 885.392 75.3125 885.703 74.3809L887.721 68.9463ZM883.425 43.999L890.076 64.9609L891.189 71.5342L886.867 72.647L876.697 43.999H883.425ZM334.948 124.295C334.948 123.519 334.827 122.829 334.585 122.225C334.361 121.621 333.956 121.069 333.369 120.569C332.783 120.069 331.954 119.585 330.885 119.12C329.832 118.637 328.487 118.145 326.848 117.645C325.053 117.092 323.397 116.48 321.879 115.807C320.378 115.117 319.067 114.323 317.945 113.426C316.824 112.512 315.953 111.468 315.332 110.295C314.71 109.104 314.4 107.733 314.4 106.18C314.4 104.645 314.719 103.247 315.357 101.988C316.013 100.728 316.936 99.6414 318.126 98.7271C319.334 97.7954 320.757 97.0794 322.396 96.5791C324.035 96.0615 325.847 95.8027 327.831 95.8027C330.626 95.8027 333.033 96.3203 335.051 97.3555C337.087 98.3906 338.648 99.7795 339.735 101.522C340.84 103.264 341.392 105.188 341.392 107.293H334.948C334.948 106.051 334.68 104.955 334.146 104.006C333.628 103.04 332.834 102.281 331.765 101.729C330.712 101.177 329.375 100.901 327.753 100.901C326.218 100.901 324.941 101.134 323.923 101.6C322.905 102.065 322.146 102.695 321.646 103.489C321.146 104.282 320.896 105.18 320.896 106.18C320.896 106.888 321.059 107.535 321.387 108.121C321.715 108.69 322.215 109.225 322.888 109.726C323.561 110.209 324.406 110.666 325.424 111.097C326.442 111.528 327.641 111.943 329.021 112.339C331.109 112.96 332.929 113.651 334.482 114.41C336.035 115.152 337.329 115.997 338.364 116.946C339.399 117.895 340.175 118.973 340.693 120.181C341.21 121.371 341.469 122.725 341.469 124.244C341.469 125.831 341.15 127.263 340.512 128.54C339.873 129.799 338.959 130.877 337.769 131.774C336.595 132.654 335.181 133.336 333.524 133.819C331.885 134.285 330.057 134.518 328.038 134.518C326.227 134.518 324.441 134.276 322.681 133.793C320.939 133.31 319.351 132.577 317.919 131.593C316.487 130.593 315.349 129.35 314.503 127.867C313.658 126.366 313.235 124.615 313.235 122.613H319.731C319.731 123.838 319.938 124.882 320.352 125.745C320.783 126.607 321.379 127.315 322.138 127.867C322.897 128.402 323.777 128.798 324.777 129.057C325.795 129.316 326.882 129.445 328.038 129.445C329.556 129.445 330.824 129.23 331.842 128.798C332.877 128.367 333.654 127.763 334.171 126.987C334.689 126.21 334.948 125.313 334.948 124.295ZM358.938 134.518C356.867 134.518 354.995 134.181 353.322 133.508C351.666 132.818 350.251 131.861 349.078 130.636C347.922 129.411 347.033 127.97 346.412 126.314C345.791 124.658 345.48 122.872 345.48 120.957V119.922C345.48 117.731 345.8 115.747 346.438 113.97C347.076 112.193 347.965 110.674 349.104 109.415C350.242 108.138 351.588 107.164 353.141 106.491C354.693 105.818 356.375 105.481 358.187 105.481C360.188 105.481 361.939 105.818 363.44 106.491C364.941 107.164 366.184 108.112 367.167 109.337C368.168 110.545 368.91 111.986 369.393 113.659C369.893 115.333 370.143 117.179 370.143 119.197V121.863H348.508V117.386H363.984V116.894C363.949 115.773 363.725 114.72 363.311 113.737C362.914 112.753 362.302 111.96 361.474 111.356C360.646 110.752 359.541 110.45 358.161 110.45C357.126 110.45 356.203 110.674 355.392 111.123C354.598 111.554 353.934 112.184 353.399 113.012C352.865 113.84 352.451 114.841 352.157 116.014C351.881 117.17 351.743 118.473 351.743 119.922V120.957C351.743 122.182 351.907 123.321 352.235 124.373C352.58 125.408 353.08 126.314 353.736 127.09C354.391 127.867 355.185 128.479 356.117 128.928C357.048 129.359 358.109 129.575 359.3 129.575C360.801 129.575 362.138 129.273 363.311 128.669C364.484 128.065 365.502 127.211 366.365 126.107L369.651 129.29C369.048 130.17 368.263 131.015 367.296 131.826C366.33 132.62 365.148 133.267 363.751 133.767C362.371 134.267 360.766 134.518 358.938 134.518ZM381.271 111.33V134H375.034V105.999H380.986L381.271 111.33ZM389.837 105.818L389.785 111.615C389.406 111.546 388.992 111.494 388.543 111.459C388.112 111.425 387.68 111.408 387.249 111.408C386.179 111.408 385.239 111.563 384.428 111.874C383.617 112.167 382.936 112.598 382.384 113.167C381.849 113.72 381.435 114.392 381.142 115.186C380.848 115.98 380.676 116.868 380.624 117.852L379.201 117.955C379.201 116.195 379.373 114.565 379.718 113.064C380.063 111.563 380.581 110.243 381.271 109.104C381.978 107.966 382.858 107.077 383.911 106.439C384.98 105.801 386.214 105.481 387.611 105.481C387.991 105.481 388.396 105.516 388.828 105.585C389.276 105.654 389.613 105.732 389.837 105.818ZM403.32 129.057L410.178 105.999H416.647L406.917 134H402.88L403.32 129.057ZM398.066 105.999L405.054 129.161L405.39 134H401.353L391.571 105.999H398.066ZM427.18 105.999V134H420.917V105.999H427.18ZM420.503 98.6494C420.503 97.7005 420.814 96.9155 421.435 96.2944C422.073 95.6561 422.953 95.3369 424.075 95.3369C425.179 95.3369 426.05 95.6561 426.688 96.2944C427.327 96.9155 427.646 97.7005 427.646 98.6494C427.646 99.5811 427.327 100.357 426.688 100.979C426.05 101.6 425.179 101.91 424.075 101.91C422.953 101.91 422.073 101.6 421.435 100.979C420.814 100.357 420.503 99.5811 420.503 98.6494ZM445.451 129.549C446.469 129.549 447.383 129.35 448.194 128.954C449.022 128.54 449.686 127.97 450.187 127.246C450.704 126.521 450.989 125.684 451.041 124.735H456.915C456.881 126.547 456.346 128.194 455.311 129.678C454.275 131.162 452.904 132.344 451.196 133.224C449.488 134.086 447.599 134.518 445.528 134.518C443.389 134.518 441.526 134.155 439.938 133.431C438.351 132.689 437.031 131.671 435.979 130.377C434.927 129.083 434.133 127.591 433.598 125.9C433.081 124.209 432.822 122.398 432.822 120.465V119.56C432.822 117.627 433.081 115.816 433.598 114.125C434.133 112.417 434.927 110.916 435.979 109.622C437.031 108.328 438.351 107.319 439.938 106.594C441.526 105.852 443.38 105.481 445.502 105.481C447.745 105.481 449.712 105.93 451.403 106.827C453.094 107.707 454.422 108.941 455.388 110.528C456.372 112.098 456.881 113.927 456.915 116.014H451.041C450.989 114.979 450.73 114.047 450.264 113.219C449.816 112.374 449.177 111.701 448.349 111.201C447.538 110.7 446.563 110.45 445.425 110.45C444.165 110.45 443.122 110.709 442.293 111.227C441.465 111.727 440.818 112.417 440.353 113.297C439.887 114.16 439.55 115.134 439.343 116.221C439.153 117.291 439.059 118.404 439.059 119.56V120.465C439.059 121.621 439.153 122.743 439.343 123.83C439.533 124.917 439.861 125.891 440.327 126.754C440.81 127.599 441.465 128.281 442.293 128.798C443.122 129.299 444.174 129.549 445.451 129.549ZM474.047 134.518C471.977 134.518 470.105 134.181 468.431 133.508C466.775 132.818 465.36 131.861 464.187 130.636C463.031 129.411 462.143 127.97 461.521 126.314C460.9 124.658 460.59 122.872 460.59 120.957V119.922C460.59 117.731 460.909 115.747 461.547 113.97C462.186 112.193 463.074 110.674 464.213 109.415C465.352 108.138 466.697 107.164 468.25 106.491C469.803 105.818 471.485 105.481 473.296 105.481C475.298 105.481 477.049 105.818 478.55 106.491C480.051 107.164 481.293 108.112 482.276 109.337C483.277 110.545 484.019 111.986 484.502 113.659C485.002 115.333 485.252 117.179 485.252 119.197V121.863H463.618V117.386H479.093V116.894C479.059 115.773 478.834 114.72 478.42 113.737C478.024 112.753 477.411 111.96 476.583 111.356C475.755 110.752 474.651 110.45 473.271 110.45C472.235 110.45 471.312 110.674 470.501 111.123C469.708 111.554 469.044 112.184 468.509 113.012C467.974 113.84 467.56 114.841 467.267 116.014C466.991 117.17 466.853 118.473 466.853 119.922V120.957C466.853 122.182 467.016 123.321 467.344 124.373C467.689 125.408 468.19 126.314 468.845 127.09C469.501 127.867 470.294 128.479 471.226 128.928C472.158 129.359 473.219 129.575 474.409 129.575C475.91 129.575 477.247 129.273 478.42 128.669C479.594 128.065 480.611 127.211 481.474 126.107L484.761 129.29C484.157 130.17 483.372 131.015 482.406 131.826C481.44 132.62 480.258 133.267 478.86 133.767C477.48 134.267 475.876 134.518 474.047 134.518ZM505.826 126.417C505.826 125.796 505.671 125.236 505.36 124.735C505.05 124.218 504.455 123.752 503.575 123.338C502.712 122.924 501.435 122.544 499.745 122.199C498.261 121.871 496.898 121.483 495.656 121.035C494.431 120.569 493.378 120.008 492.499 119.353C491.619 118.697 490.937 117.921 490.454 117.023C489.971 116.126 489.729 115.091 489.729 113.918C489.729 112.779 489.98 111.701 490.48 110.683C490.98 109.665 491.696 108.768 492.628 107.992C493.56 107.215 494.69 106.603 496.018 106.154C497.364 105.706 498.865 105.481 500.521 105.481C502.867 105.481 504.877 105.878 506.551 106.672C508.242 107.448 509.535 108.509 510.433 109.855C511.33 111.183 511.778 112.684 511.778 114.358H505.542C505.542 113.616 505.352 112.926 504.972 112.288C504.61 111.632 504.058 111.106 503.316 110.709C502.574 110.295 501.642 110.088 500.521 110.088C499.451 110.088 498.563 110.26 497.855 110.605C497.165 110.933 496.648 111.365 496.303 111.899C495.975 112.434 495.811 113.021 495.811 113.659C495.811 114.125 495.897 114.548 496.07 114.927C496.26 115.29 496.57 115.626 497.001 115.937C497.433 116.23 498.019 116.506 498.761 116.765C499.52 117.023 500.469 117.274 501.608 117.515C503.747 117.964 505.585 118.542 507.12 119.249C508.673 119.939 509.863 120.836 510.691 121.94C511.52 123.027 511.934 124.408 511.934 126.081C511.934 127.323 511.666 128.462 511.131 129.497C510.614 130.515 509.855 131.403 508.854 132.163C507.853 132.904 506.654 133.482 505.257 133.896C503.877 134.311 502.324 134.518 500.599 134.518C498.062 134.518 495.915 134.069 494.155 133.172C492.395 132.257 491.058 131.093 490.144 129.678C489.246 128.246 488.798 126.763 488.798 125.227H494.828C494.897 126.383 495.216 127.306 495.785 127.996C496.372 128.669 497.096 129.161 497.959 129.471C498.839 129.764 499.745 129.911 500.676 129.911C501.798 129.911 502.738 129.764 503.497 129.471C504.256 129.161 504.834 128.747 505.231 128.229C505.628 127.694 505.826 127.09 505.826 126.417ZM539.029 134H532.792V103.308C532.792 101.22 533.18 99.4689 533.957 98.0542C534.75 96.6222 535.88 95.5439 537.347 94.8193C538.813 94.0775 540.547 93.7065 542.548 93.7065C543.169 93.7065 543.782 93.7497 544.386 93.8359C544.99 93.9049 545.576 94.0171 546.146 94.1724L545.99 98.9858C545.645 98.8996 545.266 98.8392 544.852 98.8047C544.455 98.7702 544.023 98.7529 543.558 98.7529C542.609 98.7529 541.789 98.9341 541.099 99.2964C540.426 99.6414 539.909 100.15 539.546 100.823C539.201 101.496 539.029 102.324 539.029 103.308V134ZM544.8 105.999V110.554H528.496V105.999H544.8ZM548.138 120.31V119.715C548.138 117.696 548.431 115.824 549.018 114.099C549.605 112.357 550.45 110.847 551.554 109.57C552.676 108.276 554.039 107.276 555.643 106.568C557.265 105.844 559.094 105.481 561.129 105.481C563.182 105.481 565.011 105.844 566.616 106.568C568.237 107.276 569.609 108.276 570.73 109.57C571.852 110.847 572.706 112.357 573.292 114.099C573.879 115.824 574.172 117.696 574.172 119.715V120.31C574.172 122.329 573.879 124.201 573.292 125.926C572.706 127.651 571.852 129.161 570.73 130.455C569.609 131.731 568.246 132.732 566.642 133.457C565.037 134.164 563.217 134.518 561.181 134.518C559.128 134.518 557.291 134.164 555.669 133.457C554.064 132.732 552.701 131.731 551.58 130.455C550.459 129.161 549.605 127.651 549.018 125.926C548.431 124.201 548.138 122.329 548.138 120.31ZM554.375 119.715V120.31C554.375 121.569 554.504 122.76 554.763 123.881C555.022 125.003 555.427 125.986 555.979 126.832C556.532 127.677 557.239 128.341 558.102 128.824C558.964 129.307 559.991 129.549 561.181 129.549C562.337 129.549 563.338 129.307 564.183 128.824C565.046 128.341 565.753 127.677 566.305 126.832C566.857 125.986 567.263 125.003 567.521 123.881C567.798 122.76 567.936 121.569 567.936 120.31V119.715C567.936 118.473 567.798 117.299 567.521 116.195C567.263 115.074 566.849 114.082 566.279 113.219C565.727 112.357 565.02 111.684 564.157 111.201C563.312 110.7 562.303 110.45 561.129 110.45C559.956 110.45 558.938 110.7 558.076 111.201C557.23 111.684 556.532 112.357 555.979 113.219C555.427 114.082 555.022 115.074 554.763 116.195C554.504 117.299 554.375 118.473 554.375 119.715ZM585.663 111.33V134H579.426V105.999H585.378L585.663 111.33ZM594.229 105.818L594.177 111.615C593.797 111.546 593.383 111.494 592.935 111.459C592.503 111.425 592.072 111.408 591.641 111.408C590.571 111.408 589.631 111.563 588.82 111.874C588.009 112.167 587.327 112.598 586.775 113.167C586.241 113.72 585.826 114.392 585.533 115.186C585.24 115.98 585.067 116.868 585.016 117.852L583.592 117.955C583.592 116.195 583.765 114.565 584.11 113.064C584.455 111.563 584.972 110.243 585.663 109.104C586.37 107.966 587.25 107.077 588.302 106.439C589.372 105.801 590.605 105.481 592.003 105.481C592.382 105.481 592.788 105.516 593.219 105.585C593.668 105.654 594.004 105.732 594.229 105.818ZM631.779 124.295C631.779 123.519 631.658 122.829 631.417 122.225C631.192 121.621 630.787 121.069 630.2 120.569C629.614 120.069 628.785 119.585 627.716 119.12C626.663 118.637 625.318 118.145 623.679 117.645C621.884 117.092 620.228 116.48 618.71 115.807C617.209 115.117 615.898 114.323 614.776 113.426C613.655 112.512 612.784 111.468 612.163 110.295C611.542 109.104 611.231 107.733 611.231 106.18C611.231 104.645 611.55 103.247 612.188 101.988C612.844 100.728 613.767 99.6414 614.958 98.7271C616.165 97.7954 617.589 97.0794 619.228 96.5791C620.867 96.0615 622.678 95.8027 624.662 95.8027C627.457 95.8027 629.864 96.3203 631.882 97.3555C633.918 98.3906 635.479 99.7795 636.566 101.522C637.671 103.264 638.223 105.188 638.223 107.293H631.779C631.779 106.051 631.511 104.955 630.977 104.006C630.459 103.04 629.665 102.281 628.596 101.729C627.543 101.177 626.206 100.901 624.584 100.901C623.049 100.901 621.772 101.134 620.754 101.6C619.736 102.065 618.977 102.695 618.477 103.489C617.977 104.282 617.727 105.18 617.727 106.18C617.727 106.888 617.89 107.535 618.218 108.121C618.546 108.69 619.046 109.225 619.719 109.726C620.392 110.209 621.237 110.666 622.255 111.097C623.273 111.528 624.472 111.943 625.853 112.339C627.94 112.96 629.76 113.651 631.313 114.41C632.866 115.152 634.16 115.997 635.195 116.946C636.23 117.895 637.006 118.973 637.524 120.181C638.042 121.371 638.3 122.725 638.3 124.244C638.3 125.831 637.981 127.263 637.343 128.54C636.704 129.799 635.79 130.877 634.6 131.774C633.426 132.654 632.012 133.336 630.355 133.819C628.716 134.285 626.888 134.518 624.869 134.518C623.058 134.518 621.272 134.276 619.512 133.793C617.77 133.31 616.182 132.577 614.75 131.593C613.319 130.593 612.18 129.35 611.334 127.867C610.489 126.366 610.066 124.615 610.066 122.613H616.562C616.562 123.838 616.769 124.882 617.183 125.745C617.614 126.607 618.21 127.315 618.969 127.867C619.728 128.402 620.608 128.798 621.608 129.057C622.626 129.316 623.713 129.445 624.869 129.445C626.387 129.445 627.655 129.23 628.673 128.798C629.708 128.367 630.485 127.763 631.002 126.987C631.52 126.21 631.779 125.313 631.779 124.295ZM656.26 105.999V110.554H640.474V105.999H656.26ZM645.029 99.1411H651.266V126.262C651.266 127.125 651.386 127.789 651.628 128.255C651.887 128.703 652.24 129.005 652.689 129.161C653.138 129.316 653.664 129.394 654.268 129.394C654.699 129.394 655.113 129.368 655.51 129.316C655.907 129.264 656.226 129.212 656.467 129.161L656.493 133.922C655.976 134.078 655.372 134.216 654.682 134.336C654.009 134.457 653.232 134.518 652.353 134.518C650.921 134.518 649.653 134.267 648.548 133.767C647.444 133.25 646.582 132.413 645.96 131.257C645.339 130.101 645.029 128.565 645.029 126.65V99.1411ZM676.86 128.384V115.031C676.86 114.03 676.679 113.167 676.316 112.443C675.954 111.718 675.402 111.158 674.66 110.761C673.936 110.364 673.021 110.166 671.917 110.166C670.899 110.166 670.019 110.338 669.277 110.683C668.535 111.028 667.958 111.494 667.543 112.081C667.129 112.667 666.922 113.331 666.922 114.073H660.711C660.711 112.969 660.979 111.899 661.514 110.864C662.049 109.829 662.825 108.906 663.843 108.095C664.861 107.284 666.077 106.646 667.492 106.18C668.906 105.714 670.494 105.481 672.253 105.481C674.358 105.481 676.222 105.835 677.843 106.542C679.482 107.25 680.768 108.319 681.699 109.751C682.648 111.166 683.123 112.943 683.123 115.083V127.53C683.123 128.807 683.209 129.954 683.381 130.972C683.571 131.973 683.839 132.844 684.184 133.586V134H677.792C677.498 133.327 677.265 132.473 677.093 131.438C676.938 130.386 676.86 129.368 676.86 128.384ZM677.766 116.972L677.817 120.828H673.34C672.184 120.828 671.167 120.94 670.287 121.164C669.407 121.371 668.674 121.682 668.087 122.096C667.5 122.51 667.06 123.01 666.767 123.597C666.474 124.183 666.327 124.847 666.327 125.589C666.327 126.331 666.5 127.013 666.845 127.634C667.19 128.238 667.69 128.712 668.346 129.057C669.019 129.402 669.829 129.575 670.778 129.575C672.055 129.575 673.168 129.316 674.117 128.798C675.083 128.264 675.842 127.617 676.394 126.857C676.946 126.081 677.239 125.348 677.274 124.658L679.292 127.427C679.085 128.134 678.732 128.893 678.231 129.704C677.731 130.515 677.076 131.291 676.265 132.033C675.471 132.758 674.514 133.353 673.392 133.819C672.288 134.285 671.011 134.518 669.562 134.518C667.733 134.518 666.103 134.155 664.671 133.431C663.239 132.689 662.118 131.697 661.307 130.455C660.496 129.195 660.09 127.772 660.09 126.185C660.09 124.701 660.366 123.39 660.918 122.251C661.488 121.095 662.316 120.129 663.403 119.353C664.507 118.576 665.853 117.99 667.44 117.593C669.027 117.179 670.839 116.972 672.875 116.972H677.766ZM695.907 111.33V134H689.67V105.999H695.622L695.907 111.33ZM704.473 105.818L704.421 111.615C704.041 111.546 703.627 111.494 703.179 111.459C702.747 111.425 702.316 111.408 701.885 111.408C700.815 111.408 699.875 111.563 699.064 111.874C698.253 112.167 697.572 112.598 697.02 113.167C696.485 113.72 696.071 114.392 695.777 115.186C695.484 115.98 695.312 116.868 695.26 117.852L693.836 117.955C693.836 116.195 694.009 114.565 694.354 113.064C694.699 111.563 695.217 110.243 695.907 109.104C696.614 107.966 697.494 107.077 698.546 106.439C699.616 105.801 700.85 105.481 702.247 105.481C702.627 105.481 703.032 105.516 703.463 105.585C703.912 105.654 704.248 105.732 704.473 105.818ZM722.51 105.999V110.554H706.724V105.999H722.51ZM711.279 99.1411H717.516V126.262C717.516 127.125 717.636 127.789 717.878 128.255C718.137 128.703 718.49 129.005 718.939 129.161C719.388 129.316 719.914 129.394 720.518 129.394C720.949 129.394 721.363 129.368 721.76 129.316C722.157 129.264 722.476 129.212 722.717 129.161L722.743 133.922C722.226 134.078 721.622 134.216 720.932 134.336C720.259 134.457 719.482 134.518 718.603 134.518C717.171 134.518 715.903 134.267 714.798 133.767C713.694 133.25 712.832 132.413 712.21 131.257C711.589 130.101 711.279 128.565 711.279 126.65V99.1411ZM744.171 127.401V105.999H750.434V134H744.533L744.171 127.401ZM745.051 121.578L747.147 121.526C747.147 123.407 746.94 125.141 746.526 126.728C746.112 128.298 745.473 129.67 744.611 130.843C743.748 131.999 742.644 132.904 741.298 133.56C739.953 134.198 738.34 134.518 736.459 134.518C735.096 134.518 733.845 134.319 732.707 133.922C731.568 133.526 730.584 132.913 729.756 132.085C728.945 131.257 728.316 130.179 727.867 128.85C727.419 127.522 727.194 125.934 727.194 124.088V105.999H733.431V124.14C733.431 125.158 733.552 126.012 733.793 126.702C734.035 127.375 734.363 127.918 734.777 128.333C735.191 128.747 735.674 129.04 736.226 129.212C736.778 129.385 737.365 129.471 737.986 129.471C739.763 129.471 741.16 129.126 742.178 128.436C743.213 127.729 743.947 126.78 744.378 125.589C744.826 124.399 745.051 123.062 745.051 121.578ZM763.088 111.382V144.766H756.852V105.999H762.597L763.088 111.382ZM781.333 119.741V120.284C781.333 122.32 781.091 124.209 780.608 125.952C780.143 127.677 779.444 129.187 778.512 130.48C777.598 131.757 776.468 132.749 775.122 133.457C773.776 134.164 772.224 134.518 770.464 134.518C768.721 134.518 767.194 134.198 765.883 133.56C764.589 132.904 763.494 131.981 762.597 130.791C761.7 129.601 760.975 128.203 760.423 126.599C759.888 124.977 759.508 123.2 759.284 121.268V119.171C759.508 117.118 759.888 115.255 760.423 113.582C760.975 111.908 761.7 110.467 762.597 109.26C763.494 108.052 764.589 107.12 765.883 106.465C767.177 105.809 768.687 105.481 770.412 105.481C772.172 105.481 773.733 105.826 775.096 106.517C776.459 107.189 777.606 108.156 778.538 109.415C779.47 110.657 780.168 112.158 780.634 113.918C781.1 115.66 781.333 117.601 781.333 119.741ZM775.096 120.284V119.741C775.096 118.447 774.975 117.248 774.734 116.144C774.492 115.022 774.113 114.039 773.595 113.193C773.078 112.348 772.413 111.692 771.603 111.227C770.809 110.743 769.851 110.502 768.73 110.502C767.626 110.502 766.677 110.692 765.883 111.071C765.09 111.434 764.425 111.943 763.891 112.598C763.356 113.254 762.942 114.021 762.648 114.901C762.355 115.764 762.148 116.704 762.027 117.722V122.743C762.234 123.985 762.588 125.124 763.088 126.159C763.589 127.194 764.296 128.022 765.21 128.643C766.142 129.247 767.333 129.549 768.782 129.549C769.903 129.549 770.861 129.307 771.654 128.824C772.448 128.341 773.095 127.677 773.595 126.832C774.113 125.969 774.492 124.977 774.734 123.855C774.975 122.734 775.096 121.544 775.096 120.284ZM802.347 126.417C802.347 125.796 802.191 125.236 801.881 124.735C801.57 124.218 800.975 123.752 800.095 123.338C799.233 122.924 797.956 122.544 796.265 122.199C794.781 121.871 793.418 121.483 792.176 121.035C790.951 120.569 789.899 120.008 789.019 119.353C788.139 118.697 787.458 117.921 786.975 117.023C786.492 116.126 786.25 115.091 786.25 113.918C786.25 112.779 786.5 111.701 787 110.683C787.501 109.665 788.217 108.768 789.148 107.992C790.08 107.215 791.21 106.603 792.539 106.154C793.884 105.706 795.385 105.481 797.042 105.481C799.388 105.481 801.398 105.878 803.071 106.672C804.762 107.448 806.056 108.509 806.953 109.855C807.85 111.183 808.299 112.684 808.299 114.358H802.062C802.062 113.616 801.872 112.926 801.493 112.288C801.13 111.632 800.578 111.106 799.836 110.709C799.095 110.295 798.163 110.088 797.042 110.088C795.972 110.088 795.083 110.26 794.376 110.605C793.686 110.933 793.168 111.365 792.823 111.899C792.495 112.434 792.332 113.021 792.332 113.659C792.332 114.125 792.418 114.548 792.59 114.927C792.78 115.29 793.091 115.626 793.522 115.937C793.953 116.23 794.54 116.506 795.282 116.765C796.041 117.023 796.99 117.274 798.128 117.515C800.268 117.964 802.105 118.542 803.641 119.249C805.193 119.939 806.384 120.836 807.212 121.94C808.04 123.027 808.454 124.408 808.454 126.081C808.454 127.323 808.187 128.462 807.652 129.497C807.134 130.515 806.375 131.403 805.375 132.163C804.374 132.904 803.175 133.482 801.777 133.896C800.397 134.311 798.844 134.518 797.119 134.518C794.583 134.518 792.435 134.069 790.675 133.172C788.916 132.257 787.578 131.093 786.664 129.678C785.767 128.246 785.318 126.763 785.318 125.227H791.348C791.417 126.383 791.736 127.306 792.306 127.996C792.892 128.669 793.617 129.161 794.479 129.471C795.359 129.764 796.265 129.911 797.197 129.911C798.318 129.911 799.258 129.764 800.018 129.471C800.777 129.161 801.355 128.747 801.751 128.229C802.148 127.694 802.347 127.09 802.347 126.417Z" fill="#FFA229"/>
<g opacity="0.45">
<path d="M882.029 220.957C901.928 220.957 918.059 204.401 918.059 183.978C918.059 163.556 901.928 147 882.029 147C862.13 147 845.998 163.556 845.998 183.978C845.998 204.401 862.13 220.957 882.029 220.957Z" fill="#ABE9FF"/>
</g>
<path opacity="0.15" d="M536.203 918.586C824.567 918.586 1058.33 907.508 1058.33 893.844C1058.33 880.179 824.567 869.102 536.203 869.102C247.839 869.102 14.0742 880.179 14.0742 893.844C14.0742 907.508 247.839 918.586 536.203 918.586Z" fill="#231F20"/>
<path d="M282.551 643.034H223.352V892.794H282.551V643.034Z" fill="#92BFF7"/>
<path d="M253.007 808.918H250.611C242.002 808.918 235.023 801.939 235.023 793.331V717.946C235.023 709.337 242.002 702.359 250.611 702.359H253.007C261.616 702.359 268.594 709.338 268.594 717.946V793.33C268.594 801.939 261.616 808.918 253.007 808.918Z" fill="#E1E3E2"/>
<path d="M282.551 876.344H223.352V884.57H282.551V876.344Z" fill="#E7E4F9"/>
<path d="M282.551 862.383H223.352V870.609H282.551V862.383Z" fill="#E7E4F9"/>
<path d="M282.552 892.792H297.473L297.473 643.032H282.552L282.552 892.792Z" fill="#5F9BDD"/>
<path d="M235.023 719.743V727.782H268.594V719.743C268.594 715.723 267.264 712.032 265.052 709.087H238.565C236.353 712.032 235.023 715.723 235.023 719.743Z" fill="#E05F25"/>
<path d="M235.023 787.233V791.533C235.023 793.289 235.28 794.982 235.748 796.58H267.87C268.338 794.982 268.594 793.289 268.594 791.533V787.233H235.023Z" fill="#E05F25"/>
<path d="M260.622 759.686C260.622 764.728 256.676 768.815 251.808 768.815C246.941 768.815 242.994 764.728 242.994 759.686C242.994 754.644 246.94 750.557 251.808 750.557C256.676 750.557 260.622 754.645 260.622 759.686Z" fill="#F1F6FA"/>
<path d="M251.81 765.92C255.132 765.92 257.826 763.13 257.826 759.689C257.826 756.247 255.132 753.458 251.81 753.458C248.487 753.458 245.793 756.247 245.793 759.689C245.793 763.13 248.487 765.92 251.81 765.92Z" fill="#809292"/>
<path d="M208.428 643.034H149.229V892.794H208.428V643.034Z" fill="#1C4670"/>
<path d="M178.884 808.918H176.487C167.879 808.918 160.9 801.939 160.9 793.33V717.946C160.9 709.337 167.879 702.359 176.487 702.359H178.884C187.492 702.359 194.471 709.338 194.471 717.946V793.331C194.471 801.939 187.492 808.918 178.884 808.918Z" fill="#E1E3E2"/>
<path d="M208.428 876.344H149.229V884.57H208.428V876.344Z" fill="#E7E4F9"/>
<path d="M208.428 862.383H149.229V870.609H208.428V862.383Z" fill="#E7E4F9"/>
<path d="M208.43 892.792H223.35L223.35 643.032H208.43L208.43 892.792Z" fill="#1568BA"/>
<path d="M160.9 719.743V727.782H194.471V719.743C194.471 715.723 193.141 712.032 190.929 709.087H164.442C162.23 712.032 160.9 715.723 160.9 719.743Z" fill="#E05F25"/>
<path d="M160.9 787.233V791.533C160.9 793.289 161.157 794.982 161.625 796.58H193.747C194.215 794.982 194.471 793.289 194.471 791.533V787.233H160.9Z" fill="#E05F25"/>
<path d="M186.499 759.686C186.499 764.728 182.553 768.815 177.685 768.815C172.818 768.815 168.871 764.728 168.871 759.686C168.871 754.644 172.817 750.557 177.685 750.557C182.552 750.557 186.499 754.645 186.499 759.686Z" fill="#F1F6FA"/>
<path d="M183.702 759.689C183.702 763.13 181.009 765.92 177.686 765.92C174.363 765.92 171.67 763.13 171.67 759.689C171.67 756.248 174.363 753.458 177.686 753.458C181.009 753.458 183.702 756.248 183.702 759.689Z" fill="#809292"/>
<path d="M229.106 304.396C229.265 297.075 228.144 289.675 225.662 282.542L241.643 268.374L231.171 251.492L211.477 259.483C206.182 254.001 200.023 249.634 193.354 246.469L194.631 225.241L175.296 220.709L166.974 240.398C159.663 240.329 152.285 241.539 145.185 244.108L130.904 227.992L114.029 238.464L122.218 258.654C116.987 263.856 112.812 269.86 109.764 276.339L87.7914 275.014L83.2617 294.356L103.775 303.032C103.763 310.031 104.922 317.083 107.323 323.889L90.5473 338.764L101.018 355.645L121.885 347.178C126.905 352.265 132.68 356.362 138.912 359.404L137.559 381.895L156.895 386.427L165.621 365.779C172.625 365.88 179.695 364.806 186.528 362.488L201.286 379.144L218.161 368.672L209.893 348.285C215.223 343.168 219.505 337.236 222.662 330.811L244.399 332.123L248.928 312.779L229.106 304.396ZM182.988 329.757C168.266 338.894 148.926 334.361 139.791 319.632C130.655 304.904 135.184 285.557 149.907 276.421C164.629 267.284 183.969 271.817 193.104 286.546C202.241 301.274 197.711 320.62 182.988 329.757Z" fill="#A9CEEA"/>
<path d="M221.565 308.313C221.724 300.992 220.603 293.593 218.123 286.46L234.103 272.291L223.632 255.41L203.937 263.401C198.642 257.919 192.484 253.551 185.815 250.387L187.092 229.159L167.756 224.627L159.435 244.317C152.124 244.247 144.746 245.457 137.645 248.026L123.365 231.91L106.49 242.382L114.679 262.572C109.447 267.774 105.272 273.778 102.224 280.257L80.2517 278.932L75.7227 298.274L96.2356 306.95C96.2234 313.948 97.3823 321.001 99.7835 327.806L83.0077 342.68L93.4778 359.561L114.345 351.095C119.365 356.181 125.139 360.279 131.373 363.321L130.018 385.812L149.356 390.343L158.081 369.696C165.085 369.797 172.155 368.723 178.988 366.405L193.746 383.061L210.621 372.589L202.352 352.202C207.682 347.085 211.964 341.153 215.121 334.728L236.858 336.04L241.387 316.697L221.565 308.313ZM175.449 333.675C160.726 342.811 141.386 338.279 132.25 323.55C123.116 308.822 127.644 289.475 142.366 280.34C157.089 271.203 176.429 275.736 185.564 290.464C194.7 305.192 190.17 324.538 175.449 333.675Z" fill="#C9E2F4"/>
<path d="M80.25 278.928L86.7827 279.322L87.7912 275.013L80.25 278.928Z" fill="#A9CEEA"/>
<path d="M167.754 224.625L175.295 220.709L173.109 225.88L167.754 224.625Z" fill="#A9CEEA"/>
<path d="M123.365 231.909L130.907 227.994L123.802 232.403L123.365 231.909Z" fill="#A9CEEA"/>
<path d="M149.355 390.337L156.896 386.421L151.541 385.167L149.355 390.337Z" fill="#A9CEEA"/>
<path d="M236.859 336.034L244.401 332.119L237.868 331.724L236.859 336.034Z" fill="#A9CEEA"/>
<path d="M193.746 383.056L201.287 379.14L200.85 378.648L193.746 383.056Z" fill="#A9CEEA"/>
<path d="M987.277 378.073H853.975C848.78 378.073 844.568 382.285 844.568 387.481V502.56C844.568 507.755 848.78 511.967 853.975 511.967H987.277C990.849 511.967 993.956 509.977 995.549 507.044C995.838 506.511 996.078 505.947 996.261 505.358C996.537 504.474 996.684 503.534 996.684 502.56V460.146V387.48C996.684 382.285 992.473 378.073 987.277 378.073Z" fill="#578AAD"/>
<path d="M979.421 511.969H853.458C848.548 511.969 844.568 507.989 844.568 503.079V394.335C844.568 389.425 848.548 385.446 853.457 385.446H979.421C984.33 385.446 988.31 389.426 988.31 394.335V503.079C988.311 507.989 984.331 511.969 979.421 511.969Z" fill="#FFA229"/>
<path d="M923.115 410.682L910.84 443.221L903.474 445.223L900.008 441.704L883.68 477.623L920.678 511.969H979.421C984.331 511.969 988.311 507.989 988.311 503.079V463L923.115 410.682Z" fill="#EDC94A"/>
<path d="M945.523 444.802C947.945 444.452 949.814 442.241 949.814 439.56C949.814 436.636 947.593 434.264 944.852 434.264H925.848C925.135 434.264 924.615 433.547 924.793 432.809C925.547 429.67 927.03 421.982 925.503 415.01C924.232 409.207 920.846 407.947 918.591 407.787C917.43 407.705 916.452 408.695 916.482 409.936L916.742 420.396C916.762 421.24 916.569 422.071 916.178 422.805C913.378 428.072 908.331 438.843 906.985 441.729C906.761 442.209 906.445 442.631 906.056 442.97L903.477 445.22V471.5C904.568 473.392 909.819 475.261 909.819 475.261H938.27C940.837 475.261 943.038 473.139 943.129 470.402C943.195 468.38 942.145 466.615 940.586 465.748H942.723C945.303 465.748 947.514 463.604 947.585 460.851C947.649 458.361 946.022 456.265 943.841 455.776H945.4C948.189 455.776 950.451 453.362 950.451 450.383V450.188C950.45 447.254 948.254 444.873 945.523 444.802Z" fill="white"/>
<path d="M898.517 441.035H884.564C883.408 441.035 882.471 442.035 882.471 443.27V475.598C882.471 476.833 883.408 477.833 884.564 477.833H898.517C899.674 477.833 900.61 476.832 900.61 475.598V443.27C900.61 442.035 899.674 441.035 898.517 441.035Z" fill="white"/>
<path d="M886.149 507.996L879.262 533.795L911.048 507.498L886.149 507.996Z" fill="#82C1EE"/>
<path d="M798.38 892.795H315.909C304.002 892.795 294.35 883.142 294.35 871.236V251.286C294.35 239.379 304.002 229.726 315.909 229.726H798.38C810.287 229.726 819.94 239.379 819.94 251.286V871.235C819.94 883.142 810.287 892.795 798.38 892.795Z" fill="#1C4670"/>
<path d="M779.242 269.669L790.508 269.842L779.264 641.922L779.242 269.669Z" fill="#1378D1"/>
<path d="M304.901 856.845V265.092C304.901 248.392 315.991 234.295 331.202 229.726H315.91C304.003 229.726 294.35 239.379 294.35 251.286V871.236C294.35 883.143 304.002 892.795 315.909 892.795H333.473C317.11 888.999 304.901 874.363 304.901 856.845Z" fill="#3BA9DD"/>
<path d="M819.051 694.162L819.941 675.749V251.285C819.941 244.507 816.807 238.467 811.916 234.515L819.051 694.162Z" fill="#1C4670"/>
<path d="M779.03 842.442H335.257C335.099 842.442 334.971 842.314 334.971 842.156V269.952C334.971 269.794 335.099 269.666 335.257 269.666H779.03C779.188 269.666 779.316 269.794 779.316 269.952V842.156C779.316 842.314 779.188 842.442 779.03 842.442Z" fill="url(#paint0_linear_59_593)"/>
<path d="M779.242 309.545H335.048C335.006 309.545 334.973 309.512 334.973 309.47V269.741C334.973 269.7 335.006 269.666 335.048 269.666H779.242C779.284 269.666 779.318 269.699 779.318 269.741V309.47C779.317 309.512 779.284 309.545 779.242 309.545Z" fill="#ABE9FF"/>
<path d="M635.122 219.505H596.311C596.702 218.795 596.944 217.991 596.944 217.124V196.878C596.944 192.465 593.367 188.888 588.953 188.888H533.828C529.415 188.888 525.838 192.465 525.838 196.878V217.124C525.838 217.991 526.081 218.795 526.471 219.505H487.66C482.211 219.505 477.793 223.923 477.793 229.372V259.19C477.793 267.939 484.886 275.032 493.634 275.032H629.146C637.896 275.032 644.989 267.939 644.989 259.19V229.372C644.989 223.923 640.571 219.505 635.122 219.505Z" fill="#F5D420"/>
<path d="M635.123 219.505H596.312C596.703 218.795 596.945 217.991 596.945 217.124V196.878C596.945 192.465 593.367 188.888 588.954 188.888H577.422C582.374 192.162 587.917 197.302 588.295 204.11C588.987 216.565 584.143 231.095 589.678 233.171C595.214 235.246 632.578 226.252 631.886 244.242C631.47 255.056 630.304 267.114 629.441 275.017C638.053 274.86 644.989 267.84 644.989 259.19V229.372C644.989 223.923 640.572 219.505 635.123 219.505Z" fill="#EAC00F"/>
<path d="M603.088 382.928H387.293C384.628 382.928 382.467 380.768 382.467 378.102V370.601C382.467 367.935 384.628 365.775 387.293 365.775H603.088C605.754 365.775 607.915 367.935 607.915 370.601V378.102C607.915 380.767 605.753 382.928 603.088 382.928Z" fill="#80D3FB"/>
<path d="M508.066 765.64H712.001C716.643 765.64 720.405 761.457 720.405 756.297C720.405 751.138 716.642 746.955 712.001 746.955H508.066C503.425 746.955 499.662 751.138 499.662 756.297C499.662 761.456 503.425 765.64 508.066 765.64Z" fill="#80D3FB"/>
<path d="M619.101 728.27H712.001C716.642 728.27 720.405 724.087 720.405 718.927C720.405 713.767 716.642 709.584 712.001 709.584H619.101C614.46 709.584 610.697 713.767 610.697 718.927C610.697 724.088 614.461 728.27 619.101 728.27Z" fill="#80D3FB"/>
<path d="M716.561 548.184H465.674C463.551 548.184 461.83 546.462 461.83 544.34V538.366C461.83 536.243 463.551 534.522 465.674 534.522H716.56C718.683 534.522 720.404 536.244 720.404 538.367V544.34C720.405 546.462 718.684 548.184 716.561 548.184Z" fill="#80D3FB"/>
<path d="M716.561 491.098H465.674C463.551 491.098 461.83 489.377 461.83 487.254V481.281C461.83 479.158 463.551 477.437 465.674 477.437H716.56C718.683 477.437 720.404 479.158 720.404 481.281V487.255C720.404 489.378 718.684 491.098 716.561 491.098Z" fill="#80D3FB"/>
<path d="M428.562 503.051H389.445C388.984 503.051 388.611 502.678 388.611 502.218V466.316C388.611 465.856 388.984 465.483 389.445 465.483H428.562C429.022 465.483 429.396 465.856 429.396 466.316V502.218C429.395 502.678 429.022 503.051 428.562 503.051Z" fill="#80D3FB"/>
<path d="M716.562 602.825H465.676C463.553 602.825 461.832 601.104 461.832 598.981V593.008C461.832 590.885 463.553 589.164 465.676 589.164H716.563C718.686 589.164 720.407 590.885 720.407 593.008V598.981C720.406 601.104 718.685 602.825 716.562 602.825Z" fill="#80D3FB"/>
<path d="M716.562 657.47H465.676C463.553 657.47 461.832 655.75 461.832 653.627V647.653C461.832 645.53 463.553 643.81 465.676 643.81H716.562C718.685 643.81 720.406 645.531 720.406 647.653V653.627C720.406 655.749 718.685 657.47 716.562 657.47Z" fill="#80D3FB"/>
<path d="M715.411 428.965H384.389C383.327 428.965 382.467 428.105 382.467 427.043V424.056C382.467 422.995 383.327 422.135 384.388 422.135H715.41C716.471 422.135 717.332 422.996 717.332 424.057V427.044C717.332 428.105 716.472 428.965 715.411 428.965Z" fill="#80D3FB"/>
<path d="M401.556 493.463C399.835 493.463 398.133 492.709 396.987 491.276L385.781 477.268C384.349 475.478 384.639 472.867 386.428 471.435C388.218 470.004 390.829 470.293 392.262 472.083L401.975 484.225L431.686 461.834C433.515 460.453 436.117 460.819 437.497 462.65C438.877 464.481 438.511 467.082 436.681 468.461L404.892 492.415C403.88 493.121 402.713 493.463 401.556 493.463Z" fill="#027BB7"/>
<path d="M401.556 658.724C399.835 658.724 398.133 657.968 396.987 656.536L385.781 642.529C384.349 640.739 384.639 638.128 386.428 636.695C388.218 635.264 390.829 635.553 392.262 637.343L401.975 649.485L431.686 627.094C433.515 625.714 436.117 626.078 437.497 627.91C438.877 629.741 438.511 632.343 436.681 633.722L404.892 657.676C403.88 658.382 402.713 658.724 401.556 658.724Z" fill="#027BB7"/>
<path d="M913.169 711.492C868.304 710.409 818.84 682.886 818.84 682.886C818.84 682.886 769.664 710.92 724.813 712.468C724.813 712.468 707.732 853.357 819.974 901.902C931.709 852.196 913.169 711.492 913.169 711.492Z" fill="#0A8CC9"/>
<path d="M913.161 710.158C868.297 709.135 818.84 682.886 818.84 682.886C818.84 682.886 769.657 709.646 724.806 711.134C724.806 711.134 707.692 845.564 819.923 891.856C931.668 844.404 913.161 710.158 913.161 710.158Z" fill="#6BA3D8"/>
<path d="M904.465 717.435C863.76 716.509 818.89 692.734 818.89 692.734C818.89 692.734 774.268 716.973 733.575 718.32C733.575 718.32 718.046 840.08 819.87 882.006C921.254 839.027 904.465 717.435 904.465 717.435Z" fill="url(#paint1_linear_59_593)"/>
<path opacity="0.54" d="M898.999 721.93C860.91 721.063 818.922 698.816 818.922 698.816C818.922 698.816 777.167 721.497 739.089 722.758C739.089 722.758 724.558 836.694 819.839 875.927C914.709 835.708 898.999 721.93 898.999 721.93Z" fill="#939292"/>
<path d="M894.807 724.084C858.72 723.242 818.937 701.721 818.937 701.721C818.937 701.721 779.379 723.652 743.303 724.869C743.303 724.869 729.548 835.062 819.825 873.017C909.704 834.128 894.807 724.084 894.807 724.084Z" fill="white"/>
<path d="M888.681 727.852C855.522 727.056 818.963 706.809 818.963 706.809C818.963 706.809 782.617 727.434 749.467 728.574C749.467 728.574 736.84 832.219 819.798 867.93C902.382 831.362 888.681 727.852 888.681 727.852Z" fill="#FFA229"/>
<path d="M818.965 706.809L819.799 867.93C902.384 831.362 888.683 727.852 888.683 727.852C855.524 727.056 818.967 706.811 818.965 706.809Z" fill="#E4D659"/>
<path d="M813.767 808.402C813.664 808.402 813.561 808.4 813.458 808.398C810.726 808.325 808.183 807.108 806.301 804.971L788.956 785.28C787.089 783.159 787.167 779.81 789.133 777.798C791.096 775.785 794.205 775.874 796.073 777.995L813.418 797.686C813.446 797.717 813.53 797.813 813.693 797.817C813.88 797.822 813.946 797.73 813.975 797.7L849.55 761.044C851.508 759.025 854.615 759.102 856.491 761.215C858.364 763.329 858.295 766.679 856.335 768.698L820.761 805.354C818.86 807.312 816.386 808.388 813.767 808.402Z" fill="white"/>
<defs>
<linearGradient id="paint0_linear_59_593" x1="557.143" y1="269.666" x2="557.143" y2="842.442" gradientUnits="userSpaceOnUse">
<stop stop-color="#FDFDFD"/>
<stop offset="0.4791" stop-color="#FBFDFD"/>
<stop offset="0.6517" stop-color="#F4FBFD"/>
<stop offset="0.7747" stop-color="#E9F8FE"/>
<stop offset="0.8741" stop-color="#D8F4FE"/>
<stop offset="0.9583" stop-color="#C2EFFF"/>
<stop offset="1" stop-color="#B4ECFF"/>
</linearGradient>
<linearGradient id="paint1_linear_59_593" x1="818.889" y1="692.734" x2="819.851" y2="882.007" gradientUnits="userSpaceOnUse">
<stop stop-color="#E5E5E5"/>
<stop offset="0.1562" stop-color="#E1E1E1"/>
<stop offset="0.2978" stop-color="#D6D6D6"/>
<stop offset="0.434" stop-color="#C4C4C4"/>
<stop offset="0.5666" stop-color="#AAAAAA"/>
<stop offset="0.6968" stop-color="#888888"/>
<stop offset="0.825" stop-color="#5F5F5F"/>
<stop offset="0.9495" stop-color="#303030"/>
<stop offset="1" stop-color="#1A1A1A"/>
</linearGradient>
</defs>
</svg>
