<svg width="1080" height="1080" viewBox="0 0 1080 1080" fill="none" xmlns="http://www.w3.org/2000/svg">
<g clip-path="url(#clip0_63_3017)">
<rect width="1080" height="1080" fill="white"/>
<path d="M976.213 688.985C973.142 681.912 969.508 675.077 965.917 668.285C950.776 639.928 933.277 612.306 926.464 580.164C913.377 518.431 959.861 452.978 939.853 393.365C931.417 368.231 910.976 347.942 886.815 340.955C859.864 333.06 831.139 340.955 803.28 338.338C749.593 333.385 706.571 291.53 662.359 258.717C635.278 238.623 601.837 220.67 570.409 231.485C537.726 242.754 520.01 280.737 490.377 299.231C428.536 337.797 346.947 296.548 280.348 300.745C254.175 302.389 225.558 311.69 212.602 335.98C198.845 361.764 203.733 390.618 202.501 418.824C201.224 447.809 191.058 471.061 172.348 492.561C157.877 509.217 139.903 522.022 124.48 537.552C109.058 553.083 95.3661 572.658 93.3329 595.262C88.7689 647.542 146.132 687.471 144.791 739.968C144.164 764.215 130.84 786.018 126.557 809.855C119.83 847.513 136.81 886.426 162.052 913.68C226.532 983.416 333.277 986.184 419.452 985.968C502.447 985.773 585.29 979.479 668.069 972.99C696.816 970.827 725.692 968.556 753.898 962.175C776.401 956.853 798.486 949.898 819.978 941.367C850.26 929.794 882.057 914.978 906.261 892.115C932.412 867.391 953.177 829.56 968.037 796.336C980.691 767.979 989.818 735.771 982.075 705.381C980.574 699.764 978.613 694.281 976.213 688.985Z" fill="#D8EFF2"/>
<path d="M728.335 815.269C732.163 785.181 752.798 759.225 778.084 742.483C803.37 725.742 833.003 716.981 862.442 709.757C864.887 708.897 867.378 708.175 869.904 707.594L854.763 763.054C848.274 786.695 841.569 810.856 827.401 830.864C815.266 847.974 798.59 859.503 779.814 868.198C762.792 876.071 743.519 877.997 726.215 886.476C729.265 862.726 725.306 839.041 728.335 815.269Z" fill="#6CC7B5"/>
<mask id="mask0_63_3017" style="mask-type:luminance" maskUnits="userSpaceOnUse" x="726" y="707" width="144" height="180">
<path d="M728.337 815.275C732.165 785.187 752.8 759.231 778.086 742.489C803.372 725.747 833.005 716.987 862.444 709.763C864.889 708.903 867.38 708.181 869.906 707.6L854.765 763.059C848.276 786.701 841.571 810.862 827.403 830.87C815.268 847.98 798.591 859.509 779.816 868.204C762.793 876.077 743.521 878.002 726.217 886.481C729.267 862.731 725.308 839.046 728.337 815.275Z" fill="white"/>
</mask>
<g mask="url(#mask0_63_3017)">
<path d="M720.037 896.594L758.971 837.046C764.271 828.978 769.57 820.91 775.194 813.058C795.462 784.788 819.882 759.783 844.194 734.908L897.448 680.4" stroke="#00986E" stroke-miterlimit="10"/>
<path d="M833.317 692.666C832.73 696.355 831.593 699.935 829.942 703.286C821.723 722.97 819.538 743.54 816.748 764.478" stroke="#00986E" stroke-miterlimit="10"/>
<path d="M787.707 797.373C788.118 768.821 788.615 739.837 796.878 712.518" stroke="#00986E" stroke-miterlimit="10"/>
<path d="M765.923 825.301C754.654 797.506 759.261 766.121 764.474 736.617" stroke="#00986E" stroke-miterlimit="10"/>
<path d="M745.628 858.769C744.076 853.33 741.899 848.089 739.139 843.152C728.341 823.969 725.373 801.355 730.854 780.035" stroke="#00986E" stroke-miterlimit="10"/>
<path d="M765.379 826.196C793.506 834.809 823.826 832.705 850.494 820.291" stroke="#00986E" stroke-miterlimit="10"/>
<path d="M787.4 797.17C800.325 796.055 813.137 793.884 825.708 790.681C838.342 787.492 850.012 781.279 859.71 772.576" stroke="#00986E" stroke-miterlimit="10"/>
<path d="M815.426 764.788C835.883 761.3 855.024 752.372 870.842 738.939" stroke="#00986E" stroke-miterlimit="10"/>
<path d="M744.924 857.341C767.006 862.063 789.955 860.71 811.329 853.426" stroke="#00986E" stroke-miterlimit="10"/>
</g>
<path d="M349.57 378.007C319.548 373.681 293.851 352.808 277.434 327.327C261.016 301.847 252.645 272.084 245.81 242.558C245.005 240.098 244.348 237.592 243.842 235.053L299.085 250.951C322.641 257.743 346.672 264.773 366.528 279.2C383.486 291.551 394.799 308.358 403.3 327.306C410.935 344.415 412.622 363.731 420.863 381.122C397.027 377.682 373.277 381.338 349.57 378.007Z" fill="#6CC7B5"/>
<mask id="mask1_63_3017" style="mask-type:luminance" maskUnits="userSpaceOnUse" x="243" y="235" width="178" height="147">
<path d="M349.584 378.02C319.561 373.694 293.865 352.821 277.447 327.341C261.03 301.86 252.659 272.097 245.824 242.572C245.019 240.112 244.361 237.605 243.855 235.066L299.099 250.965C322.654 257.756 346.685 264.786 366.542 279.214C383.5 291.565 394.813 308.371 403.313 327.319C410.949 344.429 412.636 363.744 420.877 381.135C397.041 377.696 373.291 381.352 349.584 378.02Z" fill="white"/>
</mask>
<g mask="url(#mask1_63_3017)">
<path d="M430.79 387.384L371.739 347.585C363.736 342.177 355.733 336.77 347.946 331.059C319.957 310.424 295.277 285.636 270.705 261.042L216.889 206.967" stroke="#00986E" stroke-miterlimit="10"/>
<path d="M228.34 271.465C232.017 272.087 235.576 273.269 238.895 274.969C258.492 283.426 279.019 285.892 299.914 288.964" stroke="#00986E" stroke-miterlimit="10"/>
<path d="M332.456 318.448C303.904 317.648 274.941 316.761 247.709 308.152" stroke="#00986E" stroke-miterlimit="10"/>
<path d="M360.086 340.602C332.162 351.525 300.819 346.485 271.402 340.883" stroke="#00986E" stroke-miterlimit="10"/>
<path d="M393.184 361.285C387.728 362.759 382.464 364.872 377.502 367.58C358.183 378.14 335.529 380.821 314.277 375.064" stroke="#00986E" stroke-miterlimit="10"/>
<path d="M360.987 341.117C369.942 313.103 368.232 282.768 356.186 255.938" stroke="#00986E" stroke-miterlimit="10"/>
<path d="M332.259 318.734C331.325 305.798 329.35 292.959 326.354 280.34C323.314 267.674 317.25 255.932 308.682 246.121" stroke="#00986E" stroke-miterlimit="10"/>
<path d="M300.224 290.288C296.993 269.785 288.312 250.526 275.09 234.525" stroke="#00986E" stroke-miterlimit="10"/>
<path d="M391.845 361.965C396.838 339.968 395.785 317.029 388.795 295.582" stroke="#00986E" stroke-miterlimit="10"/>
</g>
<path d="M300.519 899.539C275.039 883.122 260.503 853.315 256.264 823.293C252.024 793.27 256.934 762.728 263.099 733.073C263.411 730.505 263.866 727.955 264.462 725.438L307.96 763.052C326.476 779.08 345.402 795.498 357.342 816.977C367.551 835.297 370.774 855.305 370.515 876.027C370.277 894.78 363.701 913.015 363.896 932.266C343.736 919.158 320.657 912.517 300.519 899.539Z" fill="#00986E"/>
<mask id="mask2_63_3017" style="mask-type:luminance" maskUnits="userSpaceOnUse" x="254" y="725" width="117" height="208">
<path d="M300.529 899.545C275.049 883.128 260.513 853.321 256.274 823.298C252.034 793.276 256.944 762.734 263.109 733.079C263.421 730.51 263.876 727.961 264.472 725.443L307.97 763.058C326.485 779.086 345.412 795.504 357.352 816.982C367.561 835.303 370.784 855.311 370.524 876.033C370.286 894.786 363.711 913.021 363.906 932.271C343.746 919.164 320.667 912.523 300.529 899.545Z" fill="white"/>
</mask>
<g mask="url(#mask2_63_3017)">
<path d="M370.325 942.115L333.424 881.225C328.427 872.963 323.409 864.7 318.758 856.243C301.995 825.766 289.968 792.953 277.985 760.291L251.77 688.738" stroke="#6CC7B5" stroke-miterlimit="10"/>
<path d="M235.164 751.99C238.235 754.106 240.97 756.673 243.275 759.604C257.508 775.502 275.115 786.339 292.809 797.89" stroke="#6CC7B5" stroke-miterlimit="10"/>
<path d="M309.954 838.287C284.388 825.59 258.453 812.655 237.342 793.426" stroke="#6CC7B5" stroke-miterlimit="10"/>
<path d="M325.78 869.997C295.844 868.18 269.542 850.53 245.1 833.053" stroke="#6CC7B5" stroke-miterlimit="10"/>
<path d="M347.147 902.666C341.569 901.72 335.9 901.429 330.254 901.801C308.277 903.285 286.577 896.217 269.689 882.074" stroke="#6CC7B5" stroke-miterlimit="10"/>
<path d="M326.348 870.84C346.237 849.171 357.409 820.911 357.711 791.5" stroke="#6CC7B5" stroke-miterlimit="10"/>
<path d="M309.682 838.464C314.292 826.333 317.909 813.847 320.497 801.13C323.061 788.364 322.482 775.165 318.81 762.672" stroke="#6CC7B5" stroke-miterlimit="10"/>
<path d="M292.535 799.195C298.192 779.23 298.386 758.113 293.098 738.047" stroke="#6CC7B5" stroke-miterlimit="10"/>
<path d="M345.641 902.704C359.399 884.832 368.055 863.566 370.688 841.166" stroke="#6CC7B5" stroke-miterlimit="10"/>
</g>
<path d="M382.432 343.512C356.951 327.094 342.416 297.288 338.198 267.265C333.98 237.242 338.869 206.701 345.033 177.046C345.335 174.476 345.79 171.926 346.396 169.41L389.873 207.025C408.41 223.053 427.314 239.47 439.254 260.949C449.485 279.27 452.687 299.278 452.427 320C452.189 338.775 445.635 356.987 445.808 376.238C425.671 363.13 402.526 356.49 382.432 343.512Z" fill="#00986E"/>
<mask id="mask3_63_3017" style="mask-type:luminance" maskUnits="userSpaceOnUse" x="336" y="169" width="117" height="208">
<path d="M382.42 343.5C356.94 327.083 342.404 297.276 338.186 267.254C333.968 237.231 338.857 206.689 345.021 177.034C345.323 174.464 345.778 171.914 346.384 169.398L389.861 207.013C408.398 223.041 427.303 239.459 439.243 260.937C449.474 279.258 452.675 299.266 452.415 319.988C452.178 338.763 445.624 356.976 445.797 376.226C425.659 363.119 402.515 356.478 382.42 343.5Z" fill="white"/>
</mask>
<g mask="url(#mask3_63_3017)">
<path d="M452.258 386.07L415.336 325.181C410.339 316.918 405.343 308.655 400.692 300.198C383.929 269.721 371.881 236.929 359.919 204.268C351.18 180.402 342.435 156.544 333.682 132.693" stroke="#6CC7B5" stroke-miterlimit="10"/>
<path d="M317.059 195.945C320.132 198.066 322.873 200.632 325.192 203.559C339.424 219.457 357.01 230.294 374.703 241.845" stroke="#6CC7B5" stroke-miterlimit="10"/>
<path d="M391.892 282.242C366.325 269.545 340.39 256.61 319.279 237.381" stroke="#6CC7B5" stroke-miterlimit="10"/>
<path d="M407.669 313.952C377.733 312.135 351.43 294.485 327.01 277.008" stroke="#6CC7B5" stroke-miterlimit="10"/>
<path d="M429.042 346.621C423.464 345.674 417.794 345.384 412.149 345.756C390.171 347.244 368.469 340.176 351.584 326.029" stroke="#6CC7B5" stroke-miterlimit="10"/>
<path d="M408.275 314.797C428.154 293.123 439.317 264.865 439.618 235.457" stroke="#6CC7B5" stroke-miterlimit="10"/>
<path d="M391.576 282.419C396.186 270.288 399.803 257.802 402.391 245.085C404.554 232.324 404.706 218.956 400.682 206.627" stroke="#6CC7B5" stroke-miterlimit="10"/>
<path d="M374.395 243.151C380.062 223.187 380.256 202.067 374.957 182.002" stroke="#6CC7B5" stroke-miterlimit="10"/>
<path d="M427.535 346.659C441.299 328.789 449.963 307.522 452.605 285.121" stroke="#6CC7B5" stroke-miterlimit="10"/>
</g>
<path d="M734.312 853.482C746.62 825.774 773.852 806.847 802.858 798.065C831.864 789.283 862.774 789.413 893.056 790.971C895.638 790.869 898.224 790.92 900.8 791.122C890.706 807.388 880.547 823.639 870.323 839.876C857.345 860.641 843.934 881.882 824.618 896.959C808.093 909.937 788.82 916.101 768.38 919.043C749.799 921.682 730.786 918.005 711.795 921.206C721.572 899.208 724.578 875.393 734.312 853.482Z" fill="#00986E"/>
<mask id="mask4_63_3017" style="mask-type:luminance" maskUnits="userSpaceOnUse" x="711" y="790" width="190" height="132">
<path d="M734.316 853.492C746.623 825.783 773.856 806.857 802.862 798.075C831.868 789.293 862.778 789.423 893.06 790.98C895.642 790.879 898.228 790.93 900.804 791.132C890.709 807.398 880.55 823.649 870.327 839.886C857.348 860.651 843.938 881.892 824.622 896.968C808.097 909.946 788.824 916.111 768.383 919.053C749.803 921.692 730.79 918.014 711.799 921.216C721.576 899.218 724.582 875.403 734.316 853.492Z" fill="white"/>
</mask>
<g mask="url(#mask4_63_3017)">
<path d="M702.988 929.013L757.496 883.179C764.872 876.971 772.27 870.763 779.905 864.858C807.462 843.617 838.026 826.681 868.459 809.852L935.145 772.951" stroke="#6CC7B5" stroke-miterlimit="10"/>
<path d="M870.08 766.229C868.472 769.597 866.365 772.704 863.829 775.443C850.289 791.947 842.307 811.003 833.547 830.254" stroke="#6CC7B5" stroke-miterlimit="10"/>
<path d="M796.215 853.421C804.867 826.21 813.649 798.588 829.396 774.773" stroke="#6CC7B5" stroke-miterlimit="10"/>
<path d="M767.413 873.902C764.601 844.031 778.055 815.284 791.531 788.506" stroke="#6CC7B5" stroke-miterlimit="10"/>
<path d="M738.4 900.033C738.486 894.375 737.905 888.727 736.669 883.205C731.842 861.729 735.492 839.219 746.857 820.369" stroke="#6CC7B5" stroke-miterlimit="10"/>
<path d="M766.664 874.619C791.139 890.918 820.775 897.597 849.875 893.373" stroke="#6CC7B5" stroke-miterlimit="10"/>
<path d="M796.088 853.147C808.785 855.801 821.675 857.428 834.633 858.014C847.642 858.582 860.594 855.985 872.378 850.443" stroke="#6CC7B5" stroke-miterlimit="10"/>
<path d="M832.25 830.161C852.864 832.703 873.783 829.655 892.815 821.336" stroke="#6CC7B5" stroke-miterlimit="10"/>
<path d="M738.141 898.559C757.887 909.395 780.197 914.687 802.707 913.873" stroke="#6CC7B5" stroke-miterlimit="10"/>
</g>
<path d="M781.047 956.101H361.421V428.065L311.672 363.434H731.298C744.492 363.434 757.146 368.675 766.476 378.005C775.806 387.335 781.047 399.989 781.047 413.183V956.101Z" fill="white"/>
<path d="M311.73 363.348C324.924 363.348 337.578 368.589 346.908 377.919C356.238 387.249 361.479 399.903 361.479 413.097V525.033H261.98V413.054C261.992 399.867 267.238 387.224 276.567 377.904C285.896 368.583 298.543 363.348 311.73 363.348Z" fill="#A1C9D9"/>
<path d="M749.665 505.484H406.48C402.502 505.484 399.277 508.709 399.277 512.687V512.709C399.277 516.687 402.502 519.912 406.48 519.912H749.665C753.643 519.912 756.868 516.687 756.868 512.709V512.687C756.868 508.709 753.643 505.484 749.665 505.484Z" fill="#DDEDF2"/>
<path d="M665.129 461.686H490.984C487.006 461.686 483.781 464.91 483.781 468.888V468.91C483.781 472.888 487.006 476.113 490.984 476.113H665.129C669.107 476.113 672.332 472.888 672.332 468.91V468.888C672.332 464.91 669.107 461.686 665.129 461.686Z" fill="#A1C9D9"/>
<path d="M601.887 538.908H406.48C402.502 538.908 399.277 542.133 399.277 546.111V546.133C399.277 550.111 402.502 553.336 406.48 553.336H601.887C605.866 553.336 609.09 550.111 609.09 546.133V546.111C609.09 542.133 605.866 538.908 601.887 538.908Z" fill="#DDEDF2"/>
<path d="M749.023 538.908H632.588C628.61 538.908 625.385 542.133 625.385 546.111V546.133C625.385 550.111 628.61 553.336 632.588 553.336H749.023C753.001 553.336 756.226 550.111 756.226 546.133V546.111C756.226 542.133 753.001 538.908 749.023 538.908Z" fill="#DDEDF2"/>
<path d="M553.612 588.963H749.02C752.998 588.963 756.223 585.738 756.223 581.76V581.738C756.223 577.76 752.998 574.536 749.02 574.536H553.612C549.634 574.536 546.41 577.76 546.41 581.738V581.76C546.41 585.738 549.634 588.963 553.612 588.963Z" fill="#DDEDF2"/>
<path d="M406.502 588.963H522.938C526.916 588.963 530.141 585.738 530.141 581.76V581.738C530.141 577.76 526.916 574.536 522.938 574.536H406.502C402.524 574.536 399.299 577.76 399.299 581.738V581.76C399.299 585.738 402.524 588.963 406.502 588.963Z" fill="#DDEDF2"/>
<path d="M749.665 609.426H406.48C402.502 609.426 399.277 612.651 399.277 616.629V616.65C399.277 620.628 402.502 623.853 406.48 623.853H749.665C753.643 623.853 756.868 620.628 756.868 616.65V616.629C756.868 612.651 753.643 609.426 749.665 609.426Z" fill="#DDEDF2"/>
<path d="M601.887 642.875H406.48C402.502 642.875 399.277 646.1 399.277 650.078V650.099C399.277 654.078 402.502 657.302 406.48 657.302H601.887C605.866 657.302 609.09 654.078 609.09 650.099V650.078C609.09 646.1 605.866 642.875 601.887 642.875Z" fill="#DDEDF2"/>
<path d="M749.023 642.875H632.588C628.61 642.875 625.385 646.1 625.385 650.078V650.099C625.385 654.078 628.61 657.302 632.588 657.302H749.023C753.001 657.302 756.226 654.078 756.226 650.099V650.078C756.226 646.1 753.001 642.875 749.023 642.875Z" fill="#DDEDF2"/>
<path d="M553.612 692.922H749.02C752.998 692.922 756.223 689.697 756.223 685.719V685.697C756.223 681.719 752.998 678.495 749.02 678.495H553.612C549.634 678.495 546.41 681.719 546.41 685.697V685.719C546.41 689.697 549.634 692.922 553.612 692.922Z" fill="#DDEDF2"/>
<path d="M406.502 692.922H522.938C526.916 692.922 530.141 689.697 530.141 685.719V685.697C530.141 681.719 526.916 678.495 522.938 678.495H406.502C402.524 678.495 399.299 681.719 399.299 685.697V685.719C399.299 689.697 402.524 692.922 406.502 692.922Z" fill="#DDEDF2"/>
<path d="M749.665 714.639H406.48C402.502 714.639 399.277 717.863 399.277 721.842V721.863C399.277 725.841 402.502 729.066 406.48 729.066H749.665C753.643 729.066 756.868 725.841 756.868 721.863V721.842C756.868 717.863 753.643 714.639 749.665 714.639Z" fill="#DDEDF2"/>
<path d="M601.887 748.078H406.48C402.502 748.078 399.277 751.303 399.277 755.281V755.303C399.277 759.281 402.502 762.506 406.48 762.506H601.887C605.866 762.506 609.09 759.281 609.09 755.303V755.281C609.09 751.303 605.866 748.078 601.887 748.078Z" fill="#DDEDF2"/>
<path d="M749.023 748.078H632.588C628.61 748.078 625.385 751.303 625.385 755.281V755.303C625.385 759.281 628.61 762.506 632.588 762.506H749.023C753.001 762.506 756.226 759.281 756.226 755.303V755.281C756.226 751.303 753.001 748.078 749.023 748.078Z" fill="#DDEDF2"/>
<path d="M553.612 798.133H749.02C752.998 798.133 756.223 794.908 756.223 790.93V790.908C756.223 786.93 752.998 783.705 749.02 783.705H553.612C549.634 783.705 546.41 786.93 546.41 790.908V790.93C546.41 794.908 549.634 798.133 553.612 798.133Z" fill="#DDEDF2"/>
<path d="M406.502 798.133H522.938C526.916 798.133 530.141 794.908 530.141 790.93V790.908C530.141 786.93 526.916 783.705 522.938 783.705H406.502C402.524 783.705 399.299 786.93 399.299 790.908V790.93C399.299 794.908 402.524 798.133 406.502 798.133Z" fill="#DDEDF2"/>
<path opacity="0.1" d="M782.66 899.545C772.648 902.359 762.166 903.095 751.858 901.708C728.065 898.052 707.452 880.64 683.356 879.904C660.838 879.19 640.895 893.12 619.957 901.534C589.365 913.595 555.414 914.026 524.525 902.746C502.787 894.721 482.8 880.921 459.786 878.239C426.735 874.389 395.263 894.159 362.947 900.95V956.108H782.573L782.66 899.545Z" fill="#231F20"/>
<path d="M1002.38 920.111C976.036 917.948 947.03 931.445 924.513 917.645C912.984 910.594 906.171 897.745 895.442 889.526C872.752 872.222 840.026 879.792 813.94 891.473C787.854 903.153 760.881 918.554 732.632 914.228C708.838 910.572 688.203 893.16 664.129 892.424C641.612 891.711 621.647 905.64 600.731 914.055C570.138 926.115 536.187 926.546 505.298 915.266C483.56 907.241 463.573 893.441 440.559 890.759C397.623 885.762 357.369 920.608 314.498 915.114C276.775 910.269 242.772 874.752 206.477 886.065C193.672 890.045 183.116 899.519 170.289 903.369C157.095 907.328 142.949 904.97 129.192 905.229C82.3194 906.116 38.3452 941.784 27.7031 987.424C82.1896 1017.99 147.556 1020.43 210.003 1020.99C278.57 1021.66 347.16 1020.99 415.749 1020.43C520.958 1019.5 626.168 1018.55 731.334 1015.72C784.573 1014.27 837.79 1012.27 890.986 1009.7C917.375 1008.38 943.735 1006.87 970.066 1005.18C994.4 1003.63 1023.82 1005.79 1047.35 999.472C1068.46 993.805 1062.49 971.721 1054.51 956.58C1044.32 937.047 1024.81 921.95 1002.38 920.111Z" fill="#7BCED2"/>
<path d="M603.165 621.939C599.575 608.074 573.618 580.842 562.068 576.018C550.517 571.195 506.348 553.653 486.6 554.064C466.852 554.475 396.272 599.206 396.272 599.206L338.001 581.729L317.062 682.526L433.628 716.269L537.453 749.19L597.693 732.318L649.281 700.306C649.281 700.306 584.953 632.041 596.849 642.185C608.746 652.33 614.673 666.26 603.165 621.939Z" fill="#EE9C84"/>
<path d="M472.309 621.939C475.9 608.074 501.878 580.842 513.407 576.018C524.936 571.195 569.234 553.653 588.94 554.064C608.645 554.475 679.202 599.206 679.202 599.206L737.496 581.729L758.434 682.526L661.098 712.418L561.166 611.103C561.166 611.103 524.114 620.339 512.217 630.57C500.321 640.801 460.932 666.26 472.309 621.939Z" fill="#F7B690"/>
<path d="M663.406 733.321L661.026 735.592C658.551 737.973 655.233 739.276 651.799 739.215C648.365 739.154 645.095 737.735 642.706 735.267L620.383 712.361C619.207 711.151 618.281 709.721 617.661 708.152C617.04 706.583 616.736 704.907 616.766 703.219C616.796 701.532 617.16 699.868 617.836 698.322C618.513 696.776 619.489 695.38 620.708 694.213L623.087 691.942C625.578 689.592 628.89 688.311 632.314 688.371C635.737 688.432 639.002 689.83 641.408 692.266L663.73 715.194C664.903 716.404 665.826 717.833 666.445 719.4C667.064 720.967 667.367 722.64 667.337 724.325C667.307 726.009 666.944 727.671 666.269 729.215C665.595 730.759 664.621 732.154 663.406 733.321Z" fill="#EE9C84"/>
<path d="M633.073 743.851L630.694 746.122C628.218 748.503 624.9 749.806 621.466 749.745C618.032 749.685 614.762 748.265 612.373 745.798L593.36 726.33C592.183 725.121 591.258 723.69 590.637 722.121C590.016 720.552 589.712 718.876 589.742 717.189C589.772 715.502 590.136 713.838 590.813 712.292C591.489 710.746 592.465 709.349 593.684 708.183L596.064 705.912C598.552 703.557 601.865 702.271 605.29 702.332C608.716 702.393 611.981 703.794 614.384 706.236L633.397 725.703C634.576 726.911 635.504 728.341 636.127 729.911C636.749 731.48 637.054 733.157 637.024 734.845C636.994 736.533 636.629 738.198 635.951 739.744C635.273 741.29 634.294 742.686 633.073 743.851Z" fill="#EE9C84"/>
<path d="M601.792 753.436L599.412 755.707C596.937 758.089 593.619 759.392 590.185 759.331C586.751 759.27 583.481 757.85 581.092 755.383L566.405 740.242C565.228 739.032 564.303 737.602 563.682 736.033C563.061 734.464 562.757 732.787 562.787 731.1C562.817 729.413 563.181 727.749 563.858 726.203C564.534 724.657 565.51 723.261 566.729 722.094L569.109 719.931C571.597 717.576 574.91 716.291 578.335 716.352C581.761 716.412 585.026 717.814 587.429 720.256L602.116 735.397C604.464 737.832 605.749 741.101 605.689 744.484C605.628 747.866 604.226 751.087 601.792 753.436Z" fill="#EE9C84"/>
<path d="M569.623 761.803L567.244 764.074C564.77 766.449 561.456 767.748 558.028 767.687C554.599 767.626 551.333 766.211 548.945 763.75L540.098 754.665C538.922 753.457 537.998 752.029 537.377 750.462C536.756 748.894 536.452 747.22 536.483 745.535C536.513 743.849 536.876 742.187 537.553 740.643C538.229 739.099 539.204 737.704 540.423 736.539L542.802 734.268C545.277 731.887 548.595 730.584 552.029 730.645C555.464 730.705 558.733 732.125 561.123 734.592L569.97 743.655C571.142 744.868 572.063 746.3 572.681 747.869C573.298 749.439 573.6 751.115 573.567 752.801C573.535 754.487 573.17 756.151 572.493 757.696C571.817 759.24 570.841 760.636 569.623 761.803Z" fill="#EE9C84"/>
<path d="M411.183 733.321L413.562 735.592C416.036 737.966 419.35 739.265 422.779 739.204C426.207 739.144 429.473 737.728 431.861 735.267L454.205 712.361C455.378 711.148 456.299 709.716 456.916 708.147C457.534 706.577 457.835 704.901 457.803 703.215C457.771 701.529 457.406 699.866 456.729 698.321C456.052 696.776 455.077 695.38 453.859 694.213L451.48 691.942C448.989 689.592 445.677 688.311 442.253 688.371C438.829 688.432 435.565 689.83 433.159 692.266L410.837 715.194C409.665 716.405 408.744 717.835 408.127 719.403C407.51 720.971 407.208 722.645 407.241 724.329C407.273 726.014 407.638 727.675 408.314 729.218C408.991 730.762 409.966 732.156 411.183 733.321Z" fill="#F7B690"/>
<path d="M441.453 743.851L443.832 746.122C446.308 748.503 449.626 749.806 453.06 749.745C456.494 749.685 459.764 748.265 462.153 745.798L481.166 726.33C482.343 725.121 483.268 723.69 483.889 722.121C484.51 720.552 484.814 718.876 484.784 717.189C484.754 715.502 484.39 713.838 483.713 712.292C483.037 710.746 482.061 709.349 480.842 708.183L478.462 705.912C475.974 703.557 472.661 702.271 469.236 702.332C465.81 702.393 462.545 703.794 460.142 706.236L441.129 725.703C439.95 726.911 439.022 728.341 438.399 729.911C437.777 731.48 437.472 733.157 437.502 734.845C437.532 736.533 437.897 738.198 438.575 739.744C439.253 741.29 440.232 742.686 441.453 743.851Z" fill="#F7B690"/>
<path d="M472.77 753.436L475.149 755.707C477.624 758.089 480.943 759.392 484.377 759.331C487.811 759.27 491.081 757.85 493.47 755.383L508.179 740.242C509.351 739.029 510.272 737.597 510.89 736.028C511.507 734.458 511.809 732.782 511.776 731.096C511.744 729.41 511.379 727.746 510.702 726.202C510.026 724.657 509.05 723.261 507.832 722.094L505.453 719.931C502.965 717.576 499.652 716.291 496.227 716.352C492.801 716.412 489.536 717.814 487.132 720.256L472.445 735.397C470.097 737.832 468.812 741.101 468.873 744.484C468.934 747.866 470.336 751.087 472.77 753.436Z" fill="#F7B690"/>
<path d="M504.95 761.803L507.329 764.074C509.818 766.429 513.13 767.714 516.556 767.654C519.981 767.593 523.247 766.191 525.65 763.75L534.475 754.665C535.651 753.457 536.576 752.029 537.196 750.462C537.817 748.894 538.121 747.22 538.091 745.535C538.061 743.849 537.697 742.187 537.021 740.643C536.344 739.099 535.369 737.704 534.151 736.539L531.771 734.268C529.296 731.887 525.978 730.584 522.544 730.645C519.11 730.705 515.84 732.125 513.451 734.592L504.625 743.655C503.449 744.865 502.524 746.296 501.903 747.864C501.282 749.433 500.978 751.11 501.008 752.797C501.038 754.484 501.402 756.148 502.078 757.694C502.755 759.24 503.731 760.636 504.95 761.803Z" fill="#F7B690"/>
<path d="M358.218 581.805L332.608 699.279L297.762 689.264L321.966 570.73L358.218 581.805Z" fill="#A1C9D9"/>
<path d="M719.756 581.805L745.388 699.279L780.212 689.264L756.008 570.73L719.756 581.805Z" fill="#A1C9D9"/>
<path d="M747.592 568.491L1079.79 467.586V607.144L779.28 693.189L747.592 568.491Z" fill="#376489"/>
<path opacity="0.2" d="M779.27 693.185L771.938 664.287L1079.78 571.645V606.275L779.27 693.185Z" fill="#231F20"/>
<path d="M330.689 568.492L-1.03195 467.738L-1.50781 607.145L299.001 693.19L330.689 568.492Z" fill="#376489"/>
<path opacity="0.2" d="M299.001 693.185L306.333 664.287L-1.50781 571.645V606.275L299.001 693.185Z" fill="#231F20"/>
<path opacity="0.2" d="M742.774 687.313L665.987 693.196L561.08 611.088L661.012 712.404L742.774 687.313Z" fill="#231F20"/>
<path d="M633.514 726.028C629.318 722.199 625.295 718.219 621.293 714.196C617.292 710.173 613.377 706.106 609.505 701.996C605.633 697.887 601.783 693.69 598.063 689.429L592.482 682.94C590.665 680.777 588.805 678.614 587.053 676.451C589.216 678.355 591.184 680.345 593.239 682.291L599.274 688.261C603.297 692.263 607.19 696.373 611.062 700.482C614.934 704.592 618.784 708.788 622.505 713.05C626.225 717.311 629.967 721.593 633.514 726.028Z" fill="#D8816C"/>
<path d="M602.891 736.238C599.084 732.821 595.45 729.252 591.838 725.661C588.226 722.07 584.7 718.372 581.196 714.673C577.692 710.974 574.275 707.21 570.922 703.36L565.925 697.585C564.303 695.617 562.637 693.67 561.08 691.658C563.005 693.345 564.822 695.119 566.682 696.871L572.133 702.235C575.767 705.804 579.271 709.503 582.775 713.202C586.279 716.901 589.697 720.664 593.028 724.514C596.359 728.365 599.733 732.215 602.891 736.238Z" fill="#D8816C"/>
<path d="M570.8 745.158C564.203 739.361 558.082 733.132 552.069 726.773C546.055 720.413 540.28 713.794 534.938 706.916C541.535 712.713 547.656 718.942 553.648 725.302C559.639 731.661 565.436 738.193 570.8 745.158Z" fill="#D8816C"/>
<path d="M1080 955H-2V1080H1080V955Z" fill="#FFFFFA"/>
<path opacity="0.1" d="M251.107 982.38C251.107 985.646 225.453 988.328 193.83 988.328C162.207 988.328 136.467 985.646 136.467 982.38C136.467 979.114 162.12 976.432 193.765 976.432C225.41 976.432 251.107 979.092 251.107 982.38Z" fill="#231F20"/>
<path opacity="0.1" d="M941.802 982.38C941.802 985.646 916.17 988.328 884.525 988.328C852.88 988.328 827.248 985.646 827.248 982.38C827.248 979.114 852.88 976.432 884.525 976.432C916.17 976.432 941.802 979.092 941.802 982.38Z" fill="#231F20"/>
<path d="M868.136 979.372C867.702 979.387 867.271 979.467 866.86 979.61C866.658 979.695 866.483 979.836 866.357 980.016C866.231 980.195 866.158 980.407 866.146 980.627C866.165 980.875 866.264 981.11 866.428 981.297C866.901 981.743 867.473 982.071 868.097 982.255C868.72 982.439 869.379 982.474 870.018 982.357L884.402 981.989C884.633 982.017 884.866 981.976 885.074 981.872C885.281 981.768 885.454 981.606 885.57 981.405C885.984 980.652 886.237 979.82 886.311 978.964C886.385 978.107 886.281 977.244 886.003 976.43C885.435 974.8 885.114 973.094 885.051 971.369C885.051 970.763 885.181 970.05 884.727 969.639C884.508 969.468 884.246 969.363 883.97 969.336C882.442 969.008 880.881 968.862 879.319 968.903C879.48 970.695 879.48 972.497 879.319 974.289C877.87 978.55 871.9 979.091 868.136 979.372Z" fill="#8B0137"/>
<path d="M892.097 863.089C895.019 863.363 897.88 864.093 900.576 865.252C907.671 868.28 902.523 883.745 901.009 889.283C899.062 896.291 897.122 903.299 895.19 910.307C892.176 921.753 890.299 933.469 889.588 945.283C889.415 947.446 888.03 971.802 887.836 971.802L878.146 971.932C877.28 971.932 876.199 958.954 876.112 957.764C875.745 952.962 875.68 948.16 875.442 943.337C874.014 921.36 875.442 898.757 876.329 876.737C876.224 873.038 877.283 869.398 879.357 866.333C880.309 865.122 882.904 864.841 884.267 864.3C886.182 863.452 888.25 863.003 890.345 862.98L892.097 863.089Z" fill="#376489"/>
<path d="M888.701 979.372C888.266 979.384 887.835 979.464 887.425 979.61C887.222 979.695 887.048 979.836 886.921 980.015C886.795 980.195 886.722 980.407 886.711 980.626C886.722 980.872 886.813 981.108 886.97 981.297C887.445 981.741 888.017 982.068 888.64 982.252C889.264 982.436 889.921 982.472 890.561 982.357L904.967 981.989C905.182 982.008 905.398 981.97 905.594 981.881C905.81 981.777 905.991 981.612 906.113 981.405C906.536 980.655 906.795 979.824 906.873 978.966C906.951 978.109 906.847 977.244 906.567 976.43C906 974.8 905.679 973.094 905.616 971.369C905.616 970.763 905.746 970.049 905.291 969.638C905.068 969.475 904.808 969.371 904.534 969.335C903.007 969.008 901.446 968.863 899.884 968.903C900.055 970.694 900.055 972.498 899.884 974.289C898.413 978.55 892.465 979.091 888.701 979.372Z" fill="#8B0137"/>
<path d="M887.755 808.105C887.75 808.364 887.817 808.618 887.95 808.84C888.085 808.958 888.244 809.044 888.416 809.093C888.588 809.141 888.768 809.151 888.945 809.122C891.823 809.012 894.558 807.841 896.623 805.834C896.834 805.652 896.985 805.411 897.056 805.142C897.099 804.957 897.099 804.764 897.056 804.579L894.331 794.391C894.287 794.131 894.167 793.89 893.985 793.699C893.743 793.557 893.464 793.489 893.184 793.505C891.989 793.428 890.792 793.62 889.68 794.067C887.258 795.213 887.842 797.528 887.885 799.713C887.907 802.524 887.625 805.315 887.755 808.105Z" fill="#D99D81"/>
<path d="M912.605 863.82C912.979 865.966 913.21 868.133 913.297 870.309C914.639 890.123 912.627 909.979 911.264 929.749C910.291 943.809 909.101 957.868 908.387 971.928L898.697 972.058C897.853 972.058 896.772 959.08 896.685 957.89C896.318 953.088 896.253 948.286 895.993 943.463C895.993 935.806 895.193 928.062 894.825 920.405C894.371 911.342 893.83 902.192 892.662 893.194C892.013 887.786 891.213 882.379 890.607 877.036C890.045 872.083 888.682 866.221 890.91 861.549C892.111 859.025 894.243 857.063 896.858 856.077C899.288 855.341 901.832 855.055 904.364 855.233C905.728 855.179 907.09 855.37 908.387 855.795C911.653 856.92 912.043 860.922 912.605 863.82Z" fill="#376489"/>
<path d="M866.381 842.37C863.354 834.444 861.009 826.274 859.373 817.949C859.318 817.252 859.037 816.591 858.573 816.068C858.178 815.789 857.702 815.651 857.22 815.674C856.738 815.698 856.277 815.882 855.912 816.197C855.217 816.868 854.729 817.724 854.506 818.663C853.435 823.245 853.435 828.012 854.506 832.593C855.564 838.998 856.95 845.344 858.659 851.606C859.101 853.762 860.001 855.798 861.298 857.576C868.501 866.228 875.834 851.476 877.759 846.199C880.506 838.606 886.194 829.262 884.14 820.891C883.599 818.728 881.263 816.565 879.208 817.582C878.428 818.047 877.786 818.712 877.348 819.507C872.329 827.315 869.907 836.443 867.528 845.463L866.381 842.37Z" fill="#FAB594"/>
<path d="M882.129 795.367C870.146 785.007 879.252 756 896.427 767.724C908.475 775.965 897.011 807.113 882.41 795.605L882.129 795.367Z" fill="#FAB594"/>
<path d="M878.969 812.502C877.412 817.586 877.693 823.599 877.563 828.509L876.59 867.703C876.49 868.479 876.618 869.268 876.957 869.974C877.544 870.716 878.383 871.217 879.315 871.38C886.604 873.543 894.456 873.305 901.962 873.089C905.348 873.184 908.724 872.679 911.933 871.596C912.542 871.409 913.079 871.039 913.469 870.536C913.78 869.915 913.901 869.215 913.815 868.525C913.484 857.73 912.611 846.959 911.198 836.252C910.073 827.817 910.506 818.667 906.699 810.859C902.892 803.05 894.283 800.995 886.734 803.829C884.451 804.62 882.466 806.092 881.045 808.047C880.121 809.412 879.421 810.916 878.969 812.502Z" fill="#DE422B"/>
<path d="M930.524 832.678C932.178 835.271 933.666 837.966 934.98 840.746C935.383 841.512 935.584 842.369 935.564 843.234C935.484 843.807 935.308 844.363 935.045 844.878C932.709 850.177 931 853.811 926.501 857.726C922.002 861.641 917.005 865.686 911.987 869.32C911.634 869.635 911.199 869.845 910.732 869.926C909.716 869.926 908.894 868.887 908.959 867.763C908.959 866.313 910.192 865.297 910.884 864.107C911.576 862.917 912.636 861.079 913.523 859.586C915.361 856.515 917.265 853.508 919.233 850.523C920.812 848.122 922.672 845.83 924.143 843.364C925.268 841.482 923.083 839.232 921.98 837.805L914.258 828.504C913.136 827.459 912.232 826.201 911.598 824.805C911.284 824.086 911.13 823.307 911.149 822.522C911.168 821.737 911.358 820.966 911.706 820.263C915.967 812.368 924.987 823.788 930.524 832.678Z" fill="#FAB594"/>
<path d="M897.408 813.339C898.374 817.243 900.465 820.778 903.421 823.505C904.308 824.327 910.278 832.157 910.235 832.157C914.86 829.166 919.172 825.717 923.105 821.861C923.347 821.668 923.521 821.403 923.602 821.104C923.607 820.836 923.532 820.572 923.386 820.347C921.339 817.097 918.857 814.143 916.01 811.565C912.246 807.412 902.664 802.675 898.403 808.602C897.934 809.287 897.604 810.058 897.434 810.871C897.263 811.684 897.254 812.522 897.408 813.339Z" fill="#DE422B"/>
<path d="M876.37 810.193C873.619 813.119 871.791 816.79 871.114 820.748C870.897 821.938 867.653 831.174 867.588 831.131C872.6 833.402 877.833 835.149 883.205 836.344C883.337 836.411 883.482 836.448 883.629 836.455C883.777 836.461 883.925 836.436 884.062 836.38C884.199 836.325 884.323 836.241 884.425 836.134C884.527 836.027 884.605 835.899 884.654 835.76C886.254 832.277 887.382 828.596 888.007 824.815C889.456 819.386 888.223 808.787 880.934 808.419C880.093 808.392 879.255 808.536 878.471 808.841C877.687 809.145 876.972 809.605 876.37 810.193Z" fill="#DE422B"/>
<path d="M857.914 796.136C857.812 796.05 857.694 795.984 857.568 795.941C855.903 795.292 855.903 797.823 855.751 798.818C855.579 799.942 855.492 801.077 855.492 802.214C855.492 803.079 855.665 804.247 854.367 803.749C854.021 803.62 853.675 803.749 853.329 803.533C852.762 803.361 852.154 803.381 851.599 803.588C851.044 803.795 850.573 804.178 850.257 804.68C849.647 805.752 849.34 806.971 849.37 808.205C849.327 809.583 849.48 810.959 849.825 812.293C849.983 813.529 850.494 814.693 851.295 815.646C852.314 816.488 853.065 817.608 853.458 818.869C853.783 820.21 853.826 821.616 854.172 822.957C854.172 822.957 854.172 823.152 854.302 823.195C854.34 823.211 854.38 823.219 854.421 823.219C854.462 823.219 854.502 823.211 854.54 823.195C856.487 823.195 859.363 823.065 859.385 820.556C859.334 818.2 859.457 815.843 859.753 813.505C860.09 811.686 860.257 809.839 860.25 807.989C860.247 806.945 859.835 805.944 859.104 805.199C858.907 804.96 858.753 804.689 858.65 804.398C858.617 804.176 858.617 803.95 858.65 803.728L858.909 798.926C859.006 798.346 859.006 797.754 858.909 797.174C858.715 796.718 858.361 796.349 857.914 796.136Z" fill="#FAB594"/>
<path d="M902.804 765.613C902.02 764.751 901.019 764.116 899.905 763.774C897.742 763.104 895.341 763.342 893.135 762.693C890.929 762.044 888.398 760.53 886.04 761.244C884.787 761.953 883.327 762.206 881.909 761.957C880.852 761.556 879.758 761.259 878.643 761.071C872.413 760.638 870.812 770.869 876.004 773.292C876.933 773.664 877.928 773.842 878.929 773.816C879.929 773.79 880.914 773.56 881.822 773.14C882.347 772.876 882.908 772.694 883.488 772.6C884.579 772.653 885.647 772.933 886.624 773.421C889.35 774.33 892.702 773.421 894.93 775.282C895.759 776.213 896.38 777.31 896.753 778.499C897.126 779.689 897.242 780.944 897.093 782.182C897.093 784.345 896.985 786.681 897.093 788.909C897.093 790.142 896.812 791.807 898.261 791.072C899.908 789.723 901.281 788.071 902.306 786.205C903.483 784.471 904.422 782.587 905.096 780.603C906.546 776.507 906.312 772.003 904.447 768.079C904.024 767.18 903.47 766.349 902.804 765.613Z" fill="#151B35"/>
<path d="M895.57 785.503C895.18 787.666 895.851 789.656 897.084 789.829C898.317 790.002 899.614 788.467 900.025 786.26C900.436 784.054 899.744 782.129 898.511 781.934C897.278 781.74 895.981 783.319 895.57 785.503Z" fill="#FAB594"/>
<path d="M902.659 910.5L921.865 886.697L887.777 859.192L868.571 882.994L902.659 910.5Z" fill="#FFFFFA"/>
<path d="M907.722 882.143C908.678 881.075 909.459 879.864 910.037 878.552C910.612 877.295 911.061 875.983 911.378 874.637C912.161 872.168 913.175 869.779 914.406 867.499C914.495 867.358 914.533 867.19 914.514 867.023C914.487 866.895 914.428 866.776 914.341 866.677C913.51 865.734 912.474 864.994 911.313 864.514C911.213 864.493 911.11 864.493 911.01 864.514C910.815 864.514 910.642 864.666 910.491 864.817C909.691 865.833 908.809 866.781 907.852 867.651C907.721 867.757 907.575 867.845 907.419 867.91C907.052 868.105 906.684 868.213 906.338 868.429C905.992 868.646 905.364 868.97 904.889 869.23C903.894 869.749 902.899 870.203 901.882 870.636C902.686 871.127 903.414 871.731 904.045 872.431C904.564 873.275 903.72 874.81 903.331 875.567C902.682 876.865 901.774 878.012 901.168 879.331C900.952 879.711 900.868 880.153 900.93 880.586C900.93 881.04 900.93 881.494 900.93 881.948C900.952 882.187 901.028 882.419 901.151 882.624C901.275 882.83 901.443 883.006 901.644 883.138C901.878 883.276 902.134 883.371 902.401 883.419C903.269 883.599 904.155 883.672 905.04 883.635C905.386 883.632 905.729 883.574 906.057 883.462C906.365 883.348 906.65 883.179 906.9 882.965C907.196 882.714 907.471 882.439 907.722 882.143Z" fill="#FAB594"/>
<path d="M166.097 828.599C167.717 828.133 169.313 827.584 170.877 826.956C172.129 826.752 173.394 826.636 174.663 826.609C183.576 825.531 191.839 821.396 198.045 814.907C199.324 813.692 200.327 812.217 200.987 810.581C202.544 806.255 199.905 801.194 201.441 796.825C202.133 794.899 203.604 793.342 204.426 791.504C205.598 788.764 205.752 785.695 204.858 782.851C203.991 780.047 202.661 777.408 200.922 775.043C199.599 773.385 198.514 771.55 197.699 769.592C197.223 768.186 197.05 766.672 196.466 765.266C195.616 763.512 194.199 762.097 192.444 761.249C190.689 760.401 188.699 760.17 186.797 760.594C184.448 761.412 181.993 761.886 179.508 762C176.679 761.625 173.801 761.898 171.094 762.8C167.951 763.972 165.37 766.291 163.869 769.289C162.515 772.844 162.033 776.671 162.463 780.451C162.838 782.277 162.733 784.17 162.16 785.945C161 787.375 159.671 788.661 158.202 789.773C157.169 790.858 156.361 792.138 155.826 793.538C155.292 794.938 155.04 796.43 155.087 797.928C155.389 799.848 155.389 801.804 155.087 803.725C154.465 805.285 153.612 806.743 152.556 808.051C151.154 810.233 150.415 812.774 150.428 815.368C150.441 817.961 151.206 820.495 152.629 822.663C154.053 824.831 156.075 826.539 158.45 827.581C160.825 828.623 163.451 828.955 166.01 828.534L166.097 828.599Z" fill="#151B35"/>
<path d="M191.436 979.373C191.871 979.386 192.301 979.466 192.712 979.611C192.914 979.696 193.089 979.837 193.215 980.017C193.341 980.197 193.414 980.408 193.426 980.628C193.415 980.874 193.324 981.109 193.166 981.298C192.691 981.742 192.12 982.069 191.496 982.253C190.873 982.437 190.215 982.473 189.575 982.358L175.17 982.056C174.955 982.074 174.739 982.037 174.542 981.947C174.326 981.844 174.145 981.678 174.023 981.472C173.601 980.721 173.342 979.89 173.264 979.033C173.185 978.175 173.289 977.311 173.569 976.497C174.137 974.866 174.458 973.16 174.521 971.435C174.521 970.829 174.391 970.116 174.845 969.705C175.068 969.542 175.329 969.438 175.602 969.402C177.13 969.075 178.691 968.93 180.253 968.969C180.082 970.761 180.082 972.564 180.253 974.355C181.724 978.551 187.672 979.092 191.436 979.373Z" fill="#8B0137"/>
<path d="M192.238 808.257C192.315 808.496 192.315 808.753 192.238 808.993C192.135 809.138 191.999 809.257 191.841 809.34C191.684 809.423 191.508 809.467 191.33 809.468C188.483 809.942 185.561 809.341 183.132 807.781C182.889 807.649 182.692 807.445 182.57 807.197C182.526 807.012 182.526 806.82 182.57 806.635C182.786 803.131 182.981 799.627 183.197 796.123C183.194 795.858 183.262 795.596 183.392 795.366C183.602 795.174 183.866 795.053 184.149 795.019C185.299 794.711 186.502 794.659 187.674 794.868C190.292 795.495 190.183 797.875 190.573 800.038C190.984 802.785 191.806 805.488 192.238 808.257Z" fill="#FAB594"/>
<path d="M216.006 790.856C217.347 793.019 218.688 795.399 220.008 797.67C220.256 798.179 220.618 798.623 221.067 798.968C222.041 799.617 224.355 798.232 225.394 797.865C225.576 797.831 225.743 797.74 225.869 797.605C226.302 797.129 225.329 795.074 225.134 794.512C224.745 793.322 224.29 792.154 223.858 790.986C222.944 788.714 222.221 786.37 221.695 783.978C221.478 782.853 221.284 781.815 220.029 781.512C218.877 781.405 217.714 781.542 216.619 781.914C215.523 782.287 214.518 782.887 213.67 783.675C212.091 785.449 214.124 787.72 215.054 789.277L216.006 790.856Z" fill="#E5B45E"/>
<path d="M220.627 817.071C220.692 815.044 220.648 813.015 220.498 810.993C220.26 808.202 219.935 805.434 219.914 802.643C219.868 801.901 220.001 801.16 220.303 800.48C220.543 800.066 220.903 799.734 221.335 799.529C221.768 799.325 222.253 799.256 222.725 799.334C223.192 799.437 223.629 799.644 224.003 799.94C224.378 800.236 224.681 800.613 224.889 801.043C225.278 801.892 225.533 802.797 225.646 803.725L228.241 818.585C228.833 821.29 229.073 824.06 228.955 826.826C228.544 831.368 221.947 829.162 219.286 828.318C210.767 825.78 202.572 822.26 194.866 817.828C193.718 817.316 192.721 816.519 191.967 815.513C191.236 814.001 191.12 812.264 191.643 810.668C191.814 809.984 192.174 809.362 192.681 808.873C193.147 808.56 193.683 808.367 194.241 808.31C194.8 808.254 195.363 808.335 195.882 808.548C201.796 810.132 207.535 812.306 213.014 815.037C215.501 816.227 218.01 817.676 220.584 818.628C220.606 818.001 220.606 817.546 220.627 817.071Z" fill="#FAB594"/>
<path d="M221.694 784.39C226.156 783.298 230.857 783.763 235.018 785.71C236.056 786.251 237.441 786.878 238.284 786.056C238.55 785.759 238.743 785.403 238.847 785.018C240.047 781.189 240.159 777.102 239.169 773.213C238.18 769.324 236.129 765.788 233.244 762.998C231.817 761.679 229.719 760.511 228.053 761.506C227.433 761.928 226.921 762.492 226.561 763.15C224.736 766.064 222.689 768.833 220.439 771.434C218.049 774.066 215.261 776.306 212.176 778.074C209.819 779.437 205.428 780.346 204.541 783.33C204.344 784.209 204.467 785.13 204.887 785.926C205.159 786.555 205.557 787.122 206.055 787.592C208.218 789.582 211.398 787.592 213.691 786.878C216.373 786.142 218.947 784.974 221.694 784.39Z" fill="#FDDC80"/>
<path d="M227.661 769.787V769.96C228.413 773.316 229.652 776.544 231.338 779.542C232.701 781.987 234.842 786.031 237.827 786.421C239.882 786.767 240.682 784.755 240.92 783.046C241.898 776.119 240.196 769.079 236.161 763.363C235.468 762.178 234.43 761.232 233.186 760.653C231.941 760.073 230.55 759.887 229.197 760.118C225.671 761.113 227.055 767.127 227.661 769.787Z" fill="#E5B45E"/>
<path d="M223.947 788.675H224.077C224.509 788.994 224.852 789.418 225.072 789.908C225.656 790.99 226.218 792.071 226.737 793.261C226.983 793.742 227.144 794.261 227.213 794.797C227.343 796.765 224.488 798.928 225.18 801.761C223.748 801.549 222.3 801.47 220.854 801.524C220.603 801.562 220.348 801.562 220.097 801.524C219.948 801.335 219.817 801.132 219.708 800.918C219.11 798.921 218.388 796.963 217.545 795.056C217.345 794.693 217.219 794.294 217.174 793.882C217.13 793.47 217.167 793.053 217.285 792.655C217.674 791.725 218.626 791.379 219.448 790.773C220.162 790.101 220.929 789.486 221.741 788.935C222.066 788.729 222.433 788.6 222.815 788.555C223.196 788.51 223.583 788.551 223.947 788.675Z" fill="#FAB594"/>
<path d="M212.001 979.374C212.436 979.386 212.866 979.466 213.277 979.612C213.479 979.697 213.654 979.837 213.78 980.017C213.906 980.197 213.979 980.409 213.991 980.628C213.972 980.876 213.873 981.112 213.709 981.299C213.236 981.744 212.664 982.072 212.04 982.256C211.417 982.44 210.758 982.475 210.119 982.359L195.735 982.056C195.504 982.083 195.271 982.042 195.063 981.938C194.856 981.835 194.683 981.672 194.567 981.472C194.153 980.718 193.9 979.886 193.826 979.03C193.752 978.173 193.856 977.311 194.134 976.497C194.702 974.867 195.023 973.161 195.086 971.435C195.086 970.83 194.956 970.116 195.41 969.705C195.629 969.535 195.891 969.43 196.167 969.402C197.695 969.074 199.256 968.929 200.818 968.97C200.657 970.761 200.657 972.564 200.818 974.355C202.267 978.552 208.237 979.093 212.001 979.374Z" fill="#8B0137"/>
<path d="M188.044 863.089C185.122 863.363 182.261 864.093 179.565 865.252C172.47 868.28 177.618 883.745 179.132 889.283C181.079 896.291 183.018 903.299 184.951 910.307C187.965 921.753 189.841 933.469 190.553 945.283C190.726 947.446 192.11 971.802 192.326 971.802L201.995 971.932C202.86 971.932 203.942 958.954 204.028 957.764C204.396 952.962 204.461 948.16 204.699 943.337C206.127 921.36 204.699 898.757 203.812 876.737C203.917 873.038 202.858 869.398 200.784 866.333C199.832 865.122 197.237 864.841 195.874 864.3C193.959 863.45 191.891 863.001 189.796 862.98L188.044 863.089Z" fill="#DE422B"/>
<path d="M167.53 863.82C167.167 865.967 166.936 868.134 166.838 870.309C165.497 890.123 167.53 909.979 168.871 929.749C169.844 943.809 171.034 957.868 171.748 971.928L181.438 972.058C182.282 972.058 183.363 959.08 183.45 957.89C183.817 953.088 183.882 948.286 184.142 943.463C184.142 935.806 184.942 928.062 185.31 920.405C185.764 911.342 186.305 902.192 187.473 893.194C188.122 887.786 188.922 882.379 189.528 877.036C190.09 872.083 191.453 866.221 189.225 861.549C188.024 859.025 185.892 857.063 183.277 856.077C180.847 855.341 178.303 855.055 175.771 855.233C174.407 855.179 173.045 855.37 171.748 855.795C168.482 856.92 168.092 860.922 167.53 863.82Z" fill="#DE422B"/>
<path d="M195.195 794.639C204.842 782.071 190.069 755.488 175.62 770.434C165.475 780.903 182.974 809.131 194.871 794.92L195.195 794.639Z" fill="#FAB594"/>
<path d="M168.198 871.745C162.661 869.582 167.636 861.06 168.847 857.621C171.594 849.855 171.01 841.831 169.842 833.827C169.369 831.875 169.173 829.865 169.258 827.857C169.475 826.408 170.037 825.067 170.253 823.531C170.679 819.499 171.752 815.562 173.433 811.873C177.11 804.454 185.849 802.182 193.398 804.951C194.649 805.326 195.793 805.995 196.734 806.902C197.674 807.809 198.385 808.927 198.805 810.164C199.259 811.397 199.714 812.63 200.19 813.863C200.925 815.874 201.682 817.886 202.353 819.919C203.65 823.402 204.948 827.317 203.434 830.734C202.382 832.34 201.456 834.025 200.665 835.774C200.493 836.519 200.405 837.281 200.406 838.045C200.347 845.86 201.233 853.653 203.045 861.254C203.373 863.445 203.518 865.659 203.477 867.873C203.549 868.616 203.414 869.365 203.088 870.036C202.499 870.772 201.66 871.265 200.73 871.421C193.441 873.584 185.589 873.324 178.083 873.108C174.735 873.214 171.393 872.753 168.198 871.745Z" fill="#376489"/>
<path d="M159.041 833.049C158.099 835.984 157.341 838.975 156.77 842.004C156.564 842.835 156.564 843.704 156.77 844.535C156.997 845.068 157.303 845.564 157.678 846.006C160.624 850.315 164.583 853.836 169.207 856.258C174.788 859.027 180.462 861.536 186.23 863.786C186.651 864 187.123 864.09 187.593 864.045C187.835 863.967 188.058 863.842 188.25 863.675C188.442 863.509 188.598 863.305 188.71 863.077C188.821 862.849 188.884 862.6 188.897 862.346C188.91 862.093 188.871 861.839 188.783 861.601C188.328 860.195 186.944 859.438 185.992 858.551L182.272 854.831C179.719 852.336 177.117 849.899 174.463 847.52C172.3 845.594 169.943 843.843 167.974 841.831C166.395 840.317 167.974 837.505 168.731 835.904C170.385 831.701 172.503 827.696 175.047 823.964C177.787 820.301 179.011 815.723 178.465 811.181C178.358 809.983 177.802 808.87 176.908 808.066C176.298 807.675 175.588 807.467 174.864 807.467C174.139 807.467 173.429 807.675 172.819 808.066C171.601 808.871 170.574 809.935 169.813 811.181C165.09 817.856 161.454 825.236 159.041 833.049Z" fill="#FAB594"/>
<path d="M178.497 793.616C178.497 794.849 178.086 799.953 176.183 799.283C174.28 798.612 174.344 794.957 174.02 793.637C173.688 792.566 173.269 791.525 172.765 790.523C170.018 784.639 165.952 779.167 167.855 772.31C168.074 771.375 168.431 770.479 168.915 769.65C171.597 765.323 178.043 762.576 182.888 762.014C183.939 761.814 185.019 761.824 186.066 762.043C187.112 762.262 188.106 762.686 188.988 763.29C189.507 763.719 189.934 764.249 190.243 764.847C190.552 765.446 190.735 766.101 190.783 766.773C190.765 767.994 190.448 769.193 189.86 770.264C189.272 771.334 188.43 772.245 187.409 772.916C185.484 774.408 183.213 775.36 181.223 776.788C179.877 777.577 178.815 778.773 178.19 780.202C177.564 781.632 177.407 783.223 177.74 784.747C178.371 787.659 178.626 790.639 178.497 793.616Z" fill="#151B35"/>
<path d="M180.037 787.681C180.859 789.736 180.6 791.791 179.453 792.245C178.307 792.699 176.685 791.402 175.863 789.347C175.041 787.292 175.3 785.237 176.447 784.761C177.593 784.285 179.215 785.605 180.037 787.681Z" fill="#FAB594"/>
<path d="M189.839 861.054L190.315 861.205C191.656 861.508 193.083 861.01 194.489 861.205C195.895 861.4 198.815 862.308 199.356 863.995C199.442 864.263 199.442 864.55 199.356 864.817C199.311 864.954 199.224 865.074 199.108 865.159C198.992 865.245 198.852 865.291 198.707 865.293C198.525 865.255 198.354 865.173 198.21 865.055C197.561 865.055 195.182 863.282 194.792 864.623C194.403 865.964 197.842 869.338 198.924 869.663C199.374 869.765 199.828 869.844 200.286 869.9C200.515 869.937 200.732 870.024 200.923 870.155C201.114 870.285 201.273 870.457 201.389 870.658C201.472 870.877 201.495 871.115 201.457 871.346C201.419 871.578 201.321 871.795 201.173 871.977C200.872 872.347 200.496 872.649 200.07 872.864C198.919 873.574 197.663 874.099 196.35 874.421C192.024 875.286 189.861 871.955 188.173 868.711C186.795 866.516 185.209 864.459 183.436 862.568C183.317 862.45 183.234 862.299 183.198 862.135C183.176 862.014 183.176 861.889 183.198 861.768C183.768 860.656 184.582 859.688 185.578 858.934C185.648 858.855 185.737 858.795 185.837 858.761C185.943 858.743 186.052 858.747 186.156 858.773C186.26 858.799 186.358 858.847 186.443 858.912C187.511 859.723 188.647 860.439 189.839 861.054Z" fill="#FAB594"/>
<path d="M181.286 810.942C181.335 814.291 180.394 817.579 178.582 820.395C178.063 821.26 174.883 828.744 174.926 828.766C170.569 827.338 166.366 825.476 162.381 823.207C162.141 823.1 161.943 822.918 161.818 822.688C161.753 822.476 161.753 822.25 161.818 822.039C162.798 818.989 164.173 816.08 165.906 813.387C168.069 809.255 174.775 803.415 179.469 807.265C180.001 807.726 180.437 808.289 180.749 808.92C181.061 809.552 181.243 810.239 181.286 810.942Z" fill="#376489"/>
<path d="M189.558 813.332C191.279 816.203 193.806 818.505 196.826 819.951C197.734 820.405 204.375 825.12 204.331 825.142C207.328 821.641 209.959 817.843 212.183 813.808C212.323 813.588 212.391 813.332 212.378 813.072C212.319 812.862 212.198 812.673 212.032 812.531C209.61 810.442 206.918 808.689 204.028 807.318C200.027 804.939 191.223 803.49 189.277 809.244C189.046 809.909 188.952 810.614 189.001 811.316C189.049 812.019 189.238 812.704 189.558 813.332Z" fill="#376489"/>
<path opacity="0.1" d="M649.757 374.62C651.776 387.064 653.939 399.473 656.246 411.845C657.425 412.06 658.617 412.19 659.815 412.234C658.645 415.422 656.74 418.29 654.256 420.605C653.045 421.795 651.595 422.768 650.341 423.915C649.627 424.542 646.318 426.424 648.437 427.181C648.935 427.354 650.298 426.64 650.773 426.489C653.153 425.732 655.51 424.996 657.847 424.174C662.54 422.509 667.148 420.67 671.841 419.048C672.041 419.032 672.235 418.969 672.406 418.865C672.577 418.76 672.721 418.617 672.826 418.446C672.932 418.276 672.995 418.082 673.012 417.883C673.029 417.683 672.998 417.482 672.923 417.296C672.504 414.764 671.694 412.312 670.522 410.028L670.998 409.812C671.649 409.548 672.206 409.096 672.598 408.514C672.855 407.952 672.974 407.336 672.944 406.719C672.713 397.527 671.788 388.366 670.176 379.313C669.613 375.182 667.559 370.012 668.316 365.881L673.42 365.556C673.766 368.585 674.242 371.613 674.74 374.62C676.744 387.064 678.907 399.473 681.229 411.845C682.408 412.06 683.6 412.19 684.798 412.234C683.628 415.422 681.723 418.29 679.239 420.605C678.028 421.795 676.6 422.768 675.324 423.915C674.61 424.542 671.301 426.424 673.42 427.181C673.918 427.354 675.281 426.64 675.756 426.489C678.136 425.732 680.493 424.996 682.851 424.174C687.523 422.509 692.13 420.67 696.824 419.048C697.219 418.961 697.571 418.74 697.819 418.421C697.95 418.057 697.95 417.66 697.819 417.296C697.398 414.767 696.596 412.317 695.44 410.028L695.916 409.812C696.559 409.536 697.113 409.086 697.516 408.514C697.756 407.947 697.867 407.334 697.841 406.719C698.014 394.216 695.137 381.995 693.255 369.709C693.255 368.952 692.433 366.032 693.255 365.383C693.54 365.231 693.863 365.163 694.185 365.189C697.145 365.075 700.067 364.483 702.837 363.437C702.967 363.437 703.075 363.307 703.183 363.264H648.199C648.567 367.114 649.108 370.878 649.757 374.62Z" fill="#231F20"/>
<path d="M675.34 411.47C675.422 411.002 675.623 410.562 675.924 410.194C676.256 409.919 676.649 409.726 677.071 409.632L684.252 407.469C686.236 410.443 687.563 413.805 688.145 417.332C688.276 417.696 688.276 418.093 688.145 418.457C687.897 418.776 687.545 418.998 687.15 419.084C682.456 420.706 677.849 422.545 673.177 424.211C670.819 425.032 668.462 425.768 666.082 426.525C665.607 426.676 664.244 427.39 663.746 427.217C661.583 426.46 664.936 424.578 665.65 423.951C666.926 422.805 668.354 421.788 669.587 420.642C672.261 418.13 674.243 414.971 675.34 411.47Z" fill="black"/>
<path d="M650.284 411.47C650.365 411.002 650.566 410.562 650.868 410.194C651.2 409.919 651.593 409.726 652.014 409.632L659.195 407.469C661.179 410.443 662.506 413.805 663.089 417.332C663.219 417.696 663.219 418.093 663.089 418.457C662.84 418.776 662.488 418.998 662.094 419.084C657.4 420.706 652.793 422.545 648.12 424.211C645.763 425.032 643.405 425.768 641.026 426.525C640.55 426.676 639.187 427.39 638.69 427.217C636.527 426.46 639.879 424.578 640.593 423.951C641.869 422.805 643.297 421.788 644.508 420.642C647.196 418.137 649.187 414.977 650.284 411.47Z" fill="black"/>
<path d="M686.968 362.149C688.408 361.611 689.804 360.96 691.143 360.202C694.021 358.64 696.469 356.392 698.269 353.656C700.069 350.92 701.165 347.782 701.46 344.52C699.337 343.933 697.094 343.933 694.971 344.52C690.861 345.256 686.752 346.186 682.599 346.683C678.897 347.044 675.173 347.124 671.459 346.921C663.426 346.604 655.381 346.741 647.363 347.332C641.09 347.959 637.824 350.642 637.932 357.109C638.148 362.917 638.791 368.7 639.857 374.413C641.876 386.858 644.039 399.266 646.346 411.639C651.353 412.615 656.542 411.899 661.098 409.606C661.751 409.336 662.314 408.886 662.72 408.308C662.96 407.741 663.071 407.128 663.045 406.512C662.814 397.321 661.888 388.159 660.276 379.107C659.714 374.976 657.659 369.806 658.416 365.675L667.522 365.091C671.437 364.745 675.417 364.312 679.333 363.793C681.931 363.529 684.491 362.977 686.968 362.149Z" fill="#376489"/>
<path d="M698.852 357.392C700.62 353.605 701.479 349.457 701.361 345.279C699.349 344.738 696.342 346.295 694.331 346.685C692.043 346.978 689.732 347.043 687.431 346.88C682.435 346.778 677.438 346.959 672.463 347.42C666.19 348.048 662.924 350.73 663.032 357.197C663.258 363.004 663.901 368.787 664.957 374.501C666.976 386.946 669.139 399.354 671.446 411.727C676.46 412.701 681.655 411.986 686.219 409.694C686.863 409.417 687.417 408.968 687.82 408.396C688.06 407.829 688.171 407.216 688.145 406.601C688.318 394.098 685.441 381.877 683.559 369.591C683.451 368.834 682.737 365.914 683.559 365.265C683.845 365.115 684.167 365.047 684.489 365.07C687.412 364.945 690.296 364.354 693.033 363.318C695.585 362.055 697.635 359.967 698.852 357.392Z" fill="#376489"/>
<path d="M702.918 300.807C702.918 301.109 684.013 299.682 682.283 299.53C679.018 299.099 675.733 298.839 672.441 298.752C669.91 298.752 668.634 298.968 667.401 295.875C663.075 284.887 662.556 272.774 663.075 260.964C663.27 255.816 663.702 250.473 666.384 246.104C672.354 236.284 692.341 237.928 698.181 247.099C701.706 252.528 702.507 259.233 702.874 265.679C703.646 277.375 703.661 289.109 702.918 300.807Z" fill="#DE422B"/>
<path d="M678.075 286.488C678.021 286.738 678.059 287 678.183 287.224C678.295 287.362 678.437 287.473 678.598 287.548C678.759 287.623 678.935 287.66 679.113 287.656C681.97 287.955 684.837 287.185 687.159 285.493C687.404 285.35 687.594 285.129 687.7 284.866C687.732 284.68 687.732 284.49 687.7 284.304C687.267 280.821 686.813 277.339 686.381 273.856C686.381 273.592 686.297 273.335 686.143 273.121C685.92 272.942 685.649 272.836 685.364 272.818C684.203 272.558 682.999 272.558 681.838 272.818C679.264 273.64 679.524 275.998 679.286 278.182C678.983 280.973 678.334 283.698 678.075 286.488Z" fill="#FAB594"/>
<path d="M677.561 276.611C663.112 270.122 663.588 239.667 683.38 246.026C697.288 250.504 695.168 283.619 677.886 276.741L677.561 276.611Z" fill="#FAB594"/>
<path d="M701.033 349.1C706.57 346.937 701.595 338.414 700.362 334.975C697.637 327.21 698.199 319.185 699.389 311.182C699.851 309.227 700.048 307.219 699.973 305.212C699.735 303.784 699.173 302.422 698.978 300.886C698.552 296.861 697.479 292.931 695.798 289.249C692.121 281.808 683.382 279.537 675.834 282.327C674.583 282.697 673.439 283.361 672.498 284.265C671.557 285.168 670.846 286.284 670.426 287.518L669.042 291.217C668.285 293.25 667.528 295.262 666.879 297.274C665.581 300.756 664.283 304.671 665.797 308.089C666.837 309.694 667.762 311.371 668.566 313.107C668.739 313.859 668.826 314.628 668.825 315.4C668.881 323.214 667.995 331.007 666.186 338.609C665.846 340.798 665.701 343.013 665.754 345.228C665.674 345.971 665.81 346.722 666.143 347.391C666.729 348.119 667.559 348.611 668.479 348.775C675.79 350.938 683.62 350.679 691.148 350.441C694.495 350.564 697.839 350.111 701.033 349.1Z" fill="#00986E"/>
<path d="M692.367 266.931C693.059 267.948 696.13 272.036 697.385 270.435C698.64 268.835 696.585 265.806 696.195 264.509C695.896 263.425 695.693 262.318 695.59 261.199C694.724 254.71 695.222 247.961 689.923 243.203C689.211 242.557 688.409 242.018 687.543 241.602C682.979 239.439 676.036 240.542 671.645 242.662C669.653 243.468 668.054 245.02 667.189 246.988C666.987 247.628 666.914 248.301 666.973 248.969C667.032 249.638 667.224 250.287 667.535 250.881C668.21 251.899 669.122 252.737 670.191 253.325C671.261 253.912 672.458 254.232 673.678 254.256C676.122 254.472 678.567 254.061 680.989 254.256C682.52 254.229 684.021 254.678 685.285 255.543C686.548 256.407 687.511 257.643 688.041 259.079C689.15 261.867 690.603 264.505 692.367 266.931Z" fill="#DE422B"/>
<path d="M687.768 262.662C688.201 264.825 689.542 266.534 690.796 266.296C692.051 266.058 692.743 264.133 692.311 261.797C691.878 259.461 690.515 257.947 689.261 258.185C688.006 258.423 687.336 260.434 687.768 262.662Z" fill="#FAB594"/>
<path d="M663.1 295.148C665.034 292.303 667.151 289.587 669.437 287.015C670.257 286.043 671.31 285.294 672.498 284.84C673.686 284.386 674.97 284.242 676.229 284.42C677.924 284.771 679.42 285.758 680.41 287.178C681.399 288.598 681.807 290.344 681.55 292.055C681.377 294.157 680.781 296.202 679.798 298.068C677.84 302.241 675.21 306.063 672.011 309.381C671.823 309.624 671.555 309.793 671.254 309.857C670.983 309.853 670.723 309.753 670.519 309.576C668.356 308.17 666.193 306.721 664.138 305.25C663.078 304.514 661.975 303.714 660.98 303.087C660.352 302.676 659.055 302.351 659.055 301.464C659.114 300.919 659.341 300.405 659.704 299.994L662.213 296.381L663.1 295.148Z" fill="#00986E"/>
<path d="M659.205 337.385L685.442 334.724L678.845 293.627L650.271 296.936L659.205 337.385Z" fill="#FFFFFA"/>
<path d="M654.555 328.825C654.53 329.916 654.581 331.007 654.707 332.091C654.775 332.653 654.988 333.188 655.326 333.644C655.663 334.099 656.114 334.458 656.632 334.687C657.156 334.871 657.701 334.987 658.254 335.033C658.979 335.17 659.728 335.102 660.417 334.838C661.239 334.391 661.894 333.691 662.284 332.84C662.674 331.99 662.778 331.037 662.58 330.123C662.559 329.404 662.318 328.709 661.888 328.133C661.2 327.521 660.387 327.067 659.505 326.802C658.624 326.537 657.695 326.467 656.783 326.597H656.632L656.264 324.975C655.661 325.306 655.143 325.772 654.75 326.337C654.467 327.022 654.342 327.761 654.382 328.5L654.555 328.825Z" fill="#FAAA94"/>
<path d="M698.859 306.634C699.963 310.961 701.26 315.027 702.45 319.223C702.558 319.613 703.337 323.549 703.467 323.549L702.255 323.355C700.478 323.071 698.716 322.695 696.978 322.23C694.598 321.559 692.241 320.824 689.818 320.326C689.159 320.154 688.466 320.154 687.806 320.326C687.412 320.473 687.07 320.731 686.82 321.069C686.57 321.407 686.424 321.81 686.4 322.23C686.413 322.654 686.523 323.07 686.722 323.445C686.92 323.82 687.203 324.144 687.547 324.393C688.204 324.875 688.934 325.247 689.71 325.496L702.169 330.255C704.425 331.216 706.795 331.884 709.22 332.245C713.244 332.656 712.422 326.556 712.14 324.09C711.372 316.297 709.71 308.618 707.187 301.205C706.562 299.427 705.584 297.793 704.31 296.403C703.699 295.658 702.863 295.13 701.927 294.9C700.991 294.67 700.006 294.75 699.119 295.127C696.956 296.533 697.194 299.778 697.67 301.984C698.016 303.412 698.405 305.034 698.859 306.634Z" fill="#FAAA94"/>
<path d="M678.596 318.006C678.12 317.914 677.656 317.768 677.212 317.573C676.645 317.263 676.042 317.023 675.417 316.859C675.097 316.781 674.76 316.81 674.459 316.943C674.157 317.077 673.909 317.305 673.751 317.595C673.684 317.812 673.647 318.038 673.643 318.265C673.545 319.312 673.588 320.367 673.773 321.401C673.867 321.916 674.066 322.405 674.356 322.841C674.646 323.276 675.022 323.647 675.46 323.932C675.781 324.11 676.122 324.248 676.476 324.343C677.823 324.739 679.228 324.9 680.629 324.819C682.035 324.819 683.268 324.192 684.631 323.997C685.786 324.025 686.934 324.192 688.049 324.495C688.2 323.341 688.431 322.199 688.741 321.077C688.849 320.882 689.217 320.06 689.217 320.06C688.6 319.814 688.018 319.486 687.486 319.087C686.819 318.315 686.096 317.592 685.323 316.924C684.491 316.415 683.597 316.015 682.663 315.734C682.706 316.332 682.706 316.932 682.663 317.53C681.394 318.123 679.968 318.29 678.596 318.006Z" fill="#FAAA94"/>
<path d="M693.073 302.264C691.504 299.431 690.124 296.497 688.941 293.482C688.478 292.381 688.303 291.179 688.432 289.991C688.56 288.803 688.989 287.668 689.677 286.69C690.703 285.441 692.159 284.62 693.76 284.387C695.36 284.155 696.99 284.529 698.329 285.436C700.025 286.474 701.496 287.842 702.655 289.459C705.31 292.891 707.385 296.734 708.798 300.837C708.906 301.1 708.906 301.395 708.798 301.659C708.68 301.881 708.489 302.057 708.257 302.156C706.094 303.346 704.039 304.514 701.919 305.639C700.86 306.223 699.756 306.742 698.718 307.326C698.113 307.693 697.269 308.624 696.555 308.256C696.122 307.971 695.783 307.565 695.582 307.088C694.954 305.876 694.306 304.665 693.657 303.454L693.073 302.264Z" fill="#00986E"/>
<path d="M298.066 189.85C304.901 189.374 315.867 188.076 319.393 181.198C324.455 171.161 311.952 162.077 303.106 161.146C297.092 160.519 290.322 162.358 285.412 158.832C283.151 156.776 281.166 154.434 279.507 151.867C276.695 148.631 272.95 146.345 268.787 145.323C264.623 144.301 260.246 144.592 256.255 146.157C253.27 147.39 250.393 149.38 247.17 149.207C243.449 148.99 240.551 145.962 238.301 142.999C233.153 136.185 231.942 124.44 222.1 123.64C216.022 123.142 212.194 126.754 208.625 131.189C201.963 139.473 198.459 156.15 186 157.772C180.873 158.421 175.942 155.955 170.858 154.614C165.775 153.273 159.546 153.489 156.756 157.837C154.463 161.406 155.479 166.489 152.862 169.82C150.245 173.151 145.638 173.086 141.636 174.254C136.899 175.552 129.718 176.417 125.586 178.883C122.515 180.679 120.374 184.55 121.758 187.817C123.445 191.84 128.831 192.38 133.2 192.294C188.228 191.277 242.887 193.765 298.066 189.85Z" fill="#D8EFF2"/>
<path d="M940.751 264.299C948.473 263.758 960.845 262.309 964.825 254.436C970.557 243.123 956.433 232.805 946.44 231.789C939.648 231.097 932.012 233.151 926.453 229.193C923.663 227.181 921.998 223.98 919.791 221.32C916.619 217.661 912.392 215.073 907.691 213.912C902.989 212.75 898.044 213.071 893.532 214.831C890.179 216.215 886.913 218.465 883.279 218.27C879.083 218.032 875.817 214.614 873.286 211.262C867.468 203.561 866.105 190.324 854.987 189.415C848.109 188.853 843.804 192.941 839.846 197.916C832.297 207.282 828.36 226.035 814.279 227.939C808.504 228.696 802.945 225.905 797.299 224.37C791.654 222.834 784.559 223.115 781.401 228.025C778.827 232.048 779.952 237.78 777.075 241.544C774.198 245.308 768.791 245.416 764.27 246.649C758.906 248.12 750.816 249.179 746.144 251.883C742.683 253.895 740.26 258.372 741.818 261.963C743.743 266.505 749.821 267.111 754.796 267.024C816.723 265.921 878.391 268.711 940.751 264.299Z" fill="#D8EFF2"/>
<path d="M291.395 954.885H433.787V927.652H291.395V954.885Z" fill="#FDDC80"/>
<path d="M378.449 954.885H414.637V927.652H378.449V954.885Z" fill="#E5B45E"/>
<path d="M301.062 954.885H320.768V927.652H301.062V954.885Z" fill="#E5B45E"/>
<path d="M291.395 954.91H433.787V951.687H291.395V954.91Z" fill="#DAAC52"/>
<path d="M283.977 927.666H426.369V900.434H283.977V927.666Z" fill="#FDDC80"/>
<path d="M371.051 927.666H407.238V900.434H371.051V927.666Z" fill="#E5B45E"/>
<path d="M293.662 927.666H313.367V900.434H293.662V927.666Z" fill="#E5B45E"/>
<path d="M283.977 927.666H426.369V924.443H283.977V927.666Z" fill="#DAAC52"/>
<path d="M293.862 873.203H436.254V845.971H293.862V873.203Z" fill="#FDDC80"/>
<path d="M380.934 873.203H417.121V845.971H380.934V873.203Z" fill="#E5B45E"/>
<path d="M303.545 873.203H323.25V845.971H303.545V873.203Z" fill="#E5B45E"/>
<path d="M293.862 873.203H436.254V869.98H293.862V873.203Z" fill="#DAAC52"/>
<path d="M291.395 818.74H433.787V791.508H291.395V818.74Z" fill="#FDDC80"/>
<path d="M378.449 818.74H414.637V791.508H378.449V818.74Z" fill="#E5B45E"/>
<path d="M301.062 818.74H320.768V791.508H301.062V818.74Z" fill="#E5B45E"/>
<path d="M291.395 818.74H433.787V815.517H291.395V818.74Z" fill="#DAAC52"/>
<path d="M285.665 845.959H428.057V818.727H285.665V845.959Z" fill="#FDDC80"/>
<path d="M372.719 845.959H408.906V818.727H372.719V845.959Z" fill="#E5B45E"/>
<path d="M295.348 845.959H315.053V818.727H295.348V845.959Z" fill="#E5B45E"/>
<path d="M285.665 845.959H428.057V842.736H285.665V845.959Z" fill="#DAAC52"/>
<path d="M277.331 900.43H419.723V873.197H277.331V900.43Z" fill="#FDDC80"/>
<path d="M364.387 900.43H400.574V873.197H364.387V900.43Z" fill="#E5B45E"/>
<path d="M287.016 900.43H306.721V873.197H287.016V900.43Z" fill="#E5B45E"/>
<path d="M277.331 900.43H419.723V897.207H277.331V900.43Z" fill="#DAAC52"/>
<path d="M462.883 362.868C504.838 362.868 538.849 328.857 538.849 286.903C538.849 244.948 504.838 210.938 462.883 210.938C420.929 210.938 386.918 244.948 386.918 286.903C386.918 328.857 420.929 362.868 462.883 362.868Z" fill="#E5B45E"/>
<path d="M462.904 355.279C500.666 355.279 531.277 324.668 531.277 286.906C531.277 249.145 500.666 218.533 462.904 218.533C425.143 218.533 394.531 249.145 394.531 286.906C394.531 324.668 425.143 355.279 462.904 355.279Z" fill="#FDDC80"/>
<path d="M439.147 286.9C439.154 272.674 443.595 258.804 451.853 247.22C460.111 235.636 471.774 226.914 485.219 222.268C474.916 218.707 463.911 217.66 453.122 219.215C442.332 220.769 432.07 224.88 423.191 231.205C414.313 237.531 407.075 245.886 402.08 255.576C397.086 265.266 394.48 276.009 394.48 286.91C394.48 297.812 397.086 308.555 402.08 318.245C407.075 327.934 414.313 336.29 423.191 342.615C432.07 348.94 442.332 353.051 453.122 354.606C463.911 356.161 474.916 355.114 485.219 351.552C471.77 346.905 460.105 338.18 451.847 326.592C443.589 315.004 439.15 301.129 439.147 286.9Z" fill="#F4C34B"/>
<path d="M458.989 331.845V321.03C453.192 321.013 447.515 319.38 442.594 316.315L445.168 309.134C449.766 312.122 455.128 313.721 460.612 313.741C468.226 313.741 473.352 309.415 473.352 303.229C473.352 297.042 469.177 293.69 461.239 290.489C450.424 286.162 443.567 281.252 443.567 271.93C443.567 263.04 449.883 256.291 459.746 254.626V243.811H466.387V254.215C471.309 254.238 476.139 255.542 480.403 258L477.721 265.073C473.641 262.643 468.973 261.378 464.224 261.418C455.961 261.418 452.868 266.349 452.868 270.654C452.868 276.213 456.826 279.003 466.149 282.875C477.202 287.374 482.761 292.933 482.761 302.472C482.761 310.951 476.878 318.889 465.825 320.706V331.845H458.989Z" fill="#E5B45E"/>
<path d="M352.257 68.3203V106H344.519V68.3203H352.257ZM363.851 68.3203V74.4019H333.106V68.3203H363.851ZM379.844 106H371.64L371.692 99.9443H379.844C381.88 99.9443 383.596 99.4871 384.994 98.5728C386.391 97.6411 387.444 96.2868 388.151 94.5098C388.875 92.7327 389.238 90.5848 389.238 88.0659V86.2285C389.238 84.2962 389.031 82.5968 388.617 81.1304C388.22 79.6639 387.625 78.4303 386.831 77.4297C386.037 76.429 385.063 75.6785 383.907 75.1782C382.751 74.6606 381.422 74.4019 379.921 74.4019H371.485V68.3203H379.921C382.44 68.3203 384.743 68.7516 386.831 69.6143C388.936 70.4596 390.756 71.6759 392.292 73.2632C393.827 74.8504 395.009 76.7482 395.837 78.9565C396.682 81.1476 397.105 83.5889 397.105 86.2803V88.0659C397.105 90.7401 396.682 93.1813 395.837 95.3896C395.009 97.598 393.827 99.4958 392.292 101.083C390.773 102.653 388.953 103.869 386.831 104.732C384.726 105.577 382.397 106 379.844 106ZM376.04 68.3203V106H368.276V68.3203H376.04ZM422.363 96.1401C422.363 95.4673 422.259 94.8634 422.052 94.3286C421.862 93.7765 421.5 93.2762 420.965 92.8276C420.431 92.3618 419.68 91.9046 418.714 91.4561C417.748 91.0075 416.497 90.5417 414.961 90.0586C413.253 89.5065 411.632 88.8854 410.096 88.1953C408.578 87.5052 407.232 86.703 406.059 85.7886C404.903 84.8569 403.989 83.7786 403.316 82.5537C402.66 81.3288 402.333 79.9054 402.333 78.2837C402.333 76.7137 402.678 75.2904 403.368 74.0137C404.058 72.7197 405.024 71.6156 406.266 70.7012C407.508 69.7695 408.975 69.0535 410.666 68.5532C412.374 68.0529 414.245 67.8027 416.281 67.8027C419.059 67.8027 421.483 68.3031 423.553 69.3037C425.624 70.3044 427.228 71.6759 428.367 73.4185C429.523 75.161 430.101 77.1536 430.101 79.3965H422.389C422.389 78.2923 422.156 77.3262 421.69 76.498C421.241 75.6527 420.551 74.9884 419.62 74.5054C418.705 74.0223 417.549 73.7808 416.152 73.7808C414.806 73.7808 413.685 73.9878 412.788 74.4019C411.89 74.7987 411.218 75.3421 410.769 76.0322C410.32 76.7051 410.096 77.4642 410.096 78.3096C410.096 78.9479 410.251 79.5259 410.562 80.0435C410.89 80.561 411.373 81.0441 412.011 81.4927C412.65 81.9412 413.435 82.3639 414.366 82.7607C415.298 83.1576 416.376 83.5457 417.601 83.9253C419.654 84.5464 421.457 85.2451 423.01 86.0215C424.58 86.7979 425.891 87.6691 426.943 88.6353C427.996 89.6014 428.789 90.6969 429.324 91.9219C429.859 93.1468 430.126 94.5356 430.126 96.0884C430.126 97.7274 429.807 99.1938 429.169 100.488C428.531 101.782 427.608 102.877 426.4 103.774C425.192 104.672 423.752 105.353 422.078 105.819C420.405 106.285 418.533 106.518 416.462 106.518C414.599 106.518 412.762 106.276 410.95 105.793C409.139 105.293 407.491 104.542 406.007 103.542C404.541 102.541 403.368 101.264 402.488 99.7114C401.608 98.1587 401.168 96.3213 401.168 94.1992H408.958C408.958 95.3724 409.139 96.3644 409.501 97.1753C409.863 97.9862 410.372 98.6418 411.028 99.1421C411.701 99.6424 412.494 100.005 413.409 100.229C414.34 100.453 415.358 100.565 416.462 100.565C417.808 100.565 418.912 100.376 419.775 99.9961C420.655 99.6165 421.302 99.0903 421.716 98.4175C422.147 97.7446 422.363 96.9855 422.363 96.1401ZM448.604 68.3203H462.656C465.537 68.3203 468.013 68.7516 470.083 69.6143C472.171 70.4769 473.776 71.7536 474.897 73.4443C476.018 75.1351 476.579 77.214 476.579 79.6812C476.579 81.6997 476.234 83.4336 475.544 84.8828C474.871 86.3148 473.914 87.5138 472.671 88.48C471.446 89.4289 470.006 90.188 468.35 90.7573L465.891 92.0513H453.676L453.625 85.9956H462.708C464.071 85.9956 465.201 85.7541 466.098 85.271C466.995 84.7879 467.668 84.1151 468.117 83.2524C468.583 82.3898 468.815 81.3892 468.815 80.2505C468.815 79.0428 468.591 77.999 468.143 77.1191C467.694 76.2393 467.013 75.5664 466.098 75.1006C465.184 74.6348 464.036 74.4019 462.656 74.4019H456.368V106H448.604V68.3203ZM469.669 106L461.078 89.2046L469.281 89.1528L477.977 105.638V106H469.669ZM494.979 106.518C492.805 106.518 490.856 106.173 489.13 105.482C487.405 104.775 485.939 103.8 484.731 102.558C483.541 101.316 482.626 99.8753 481.988 98.2363C481.349 96.5801 481.03 94.8203 481.03 92.957V91.9219C481.03 89.7998 481.332 87.8589 481.936 86.0991C482.54 84.3394 483.403 82.8125 484.524 81.5186C485.663 80.2246 487.043 79.2326 488.665 78.5425C490.286 77.8351 492.115 77.4814 494.151 77.4814C496.135 77.4814 497.895 77.8092 499.43 78.4648C500.966 79.1204 502.251 80.0521 503.286 81.2598C504.339 82.4674 505.132 83.9167 505.667 85.6074C506.202 87.2809 506.469 89.1442 506.469 91.1973V94.3027H484.213V89.334H499.146V88.7646C499.146 87.7295 498.956 86.8065 498.576 85.9956C498.214 85.1675 497.662 84.5119 496.92 84.0288C496.178 83.5457 495.229 83.3042 494.073 83.3042C493.09 83.3042 492.244 83.5199 491.537 83.9512C490.83 84.3825 490.252 84.9863 489.803 85.7627C489.372 86.5391 489.044 87.4535 488.82 88.5059C488.613 89.541 488.509 90.6797 488.509 91.9219V92.957C488.509 94.0785 488.665 95.1136 488.975 96.0625C489.303 97.0114 489.76 97.8309 490.347 98.521C490.951 99.2111 491.675 99.7459 492.521 100.125C493.383 100.505 494.358 100.695 495.445 100.695C496.791 100.695 498.041 100.436 499.197 99.9185C500.37 99.3836 501.38 98.5814 502.225 97.5117L505.848 101.445C505.262 102.291 504.459 103.102 503.441 103.878C502.441 104.654 501.233 105.293 499.818 105.793C498.404 106.276 496.791 106.518 494.979 106.518ZM524.429 77.999V83.2783H508.125V77.999H524.429ZM512.163 71.0894H519.616V97.5635C519.616 98.3743 519.719 98.9954 519.926 99.4268C520.151 99.8581 520.478 100.16 520.91 100.333C521.341 100.488 521.884 100.565 522.54 100.565C523.006 100.565 523.42 100.548 523.782 100.514C524.162 100.462 524.481 100.41 524.74 100.358L524.766 105.845C524.127 106.052 523.437 106.216 522.695 106.336C521.953 106.457 521.134 106.518 520.237 106.518C518.598 106.518 517.166 106.25 515.941 105.715C514.733 105.163 513.802 104.283 513.146 103.076C512.49 101.868 512.163 100.281 512.163 98.314V71.0894ZM545.236 99.2974V77.999H552.689V106H545.676L545.236 99.2974ZM546.064 93.5522L548.264 93.5005C548.264 95.3638 548.048 97.0977 547.617 98.7021C547.185 100.289 546.538 101.67 545.676 102.843C544.813 103.999 543.726 104.904 542.415 105.56C541.104 106.198 539.56 106.518 537.783 106.518C536.42 106.518 535.16 106.328 534.004 105.948C532.866 105.551 531.882 104.939 531.054 104.111C530.243 103.265 529.605 102.187 529.139 100.876C528.691 99.5475 528.466 97.9517 528.466 96.0884V77.999H535.919V96.1401C535.919 96.9683 536.014 97.667 536.204 98.2363C536.411 98.8057 536.696 99.2715 537.058 99.6338C537.42 99.9961 537.843 100.255 538.326 100.41C538.826 100.565 539.379 100.643 539.982 100.643C541.518 100.643 542.726 100.333 543.605 99.7114C544.503 99.0903 545.132 98.245 545.495 97.1753C545.874 96.0884 546.064 94.8807 546.064 93.5522ZM565.835 84.1064V106H558.382V77.999H565.396L565.835 84.1064ZM574.272 77.8179L574.143 84.7275C573.78 84.6758 573.34 84.6326 572.823 84.5981C572.322 84.5464 571.865 84.5205 571.451 84.5205C570.399 84.5205 569.484 84.6585 568.708 84.9346C567.949 85.1934 567.311 85.5815 566.793 86.0991C566.293 86.6167 565.913 87.2464 565.654 87.9883C565.413 88.7301 565.275 89.5755 565.24 90.5244L563.739 90.0586C563.739 88.2471 563.92 86.5822 564.283 85.064C564.645 83.5285 565.171 82.1914 565.861 81.0527C566.569 79.9141 567.431 79.0342 568.449 78.4131C569.467 77.792 570.632 77.4814 571.943 77.4814C572.357 77.4814 572.78 77.516 573.211 77.585C573.642 77.6367 573.996 77.7144 574.272 77.8179ZM585.089 83.9771V106H577.636V77.999H584.624L585.089 83.9771ZM584.002 91.0161H581.984C581.984 88.9458 582.251 87.0825 582.786 85.4263C583.321 83.7528 584.071 82.3294 585.038 81.1562C586.004 79.9658 587.151 79.0601 588.479 78.439C589.825 77.8006 591.326 77.4814 592.982 77.4814C594.294 77.4814 595.493 77.6712 596.58 78.0508C597.667 78.4303 598.598 79.0342 599.375 79.8623C600.168 80.6904 600.772 81.786 601.186 83.1489C601.617 84.5119 601.833 86.1768 601.833 88.1436V106H594.328V88.1177C594.328 86.8755 594.156 85.9093 593.811 85.2192C593.465 84.5291 592.957 84.0461 592.284 83.77C591.628 83.4767 590.817 83.3301 589.851 83.3301C588.85 83.3301 587.979 83.5285 587.237 83.9253C586.513 84.3221 585.909 84.8742 585.426 85.5815C584.96 86.2716 584.606 87.0825 584.365 88.0142C584.123 88.9458 584.002 89.9465 584.002 91.0161ZM628.928 68.3203V106H621.165V68.3203H628.928ZM643.938 84.417V90.4727H626.806V84.417H643.938ZM645.75 68.3203V74.4019H626.806V68.3203H645.75ZM657.654 77.999V106H650.175V77.999H657.654ZM649.709 70.7012C649.709 69.6143 650.089 68.7171 650.848 68.0098C651.607 67.3024 652.625 66.9487 653.901 66.9487C655.161 66.9487 656.17 67.3024 656.929 68.0098C657.706 68.7171 658.094 69.6143 658.094 70.7012C658.094 71.7881 657.706 72.6852 656.929 73.3926C656.17 74.0999 655.161 74.4536 653.901 74.4536C652.625 74.4536 651.607 74.0999 650.848 73.3926C650.089 72.6852 649.709 71.7881 649.709 70.7012ZM671.68 66.25V106H664.201V66.25H671.68ZM685.707 77.999V106H678.228V77.999H685.707ZM677.762 70.7012C677.762 69.6143 678.141 68.7171 678.9 68.0098C679.66 67.3024 680.677 66.9487 681.954 66.9487C683.214 66.9487 684.223 67.3024 684.982 68.0098C685.758 68.7171 686.146 69.6143 686.146 70.7012C686.146 71.7881 685.758 72.6852 684.982 73.3926C684.223 74.0999 683.214 74.4536 681.954 74.4536C680.677 74.4536 679.66 74.0999 678.9 73.3926C678.141 72.6852 677.762 71.7881 677.762 70.7012ZM699.164 83.9771V106H691.71V77.999H698.698L699.164 83.9771ZM698.077 91.0161H696.058C696.058 88.9458 696.326 87.0825 696.86 85.4263C697.395 83.7528 698.146 82.3294 699.112 81.1562C700.078 79.9658 701.225 79.0601 702.554 78.439C703.899 77.8006 705.4 77.4814 707.057 77.4814C708.368 77.4814 709.567 77.6712 710.654 78.0508C711.741 78.4303 712.672 79.0342 713.449 79.8623C714.242 80.6904 714.846 81.786 715.26 83.1489C715.692 84.5119 715.907 86.1768 715.907 88.1436V106H708.402V88.1177C708.402 86.8755 708.23 85.9093 707.885 85.2192C707.54 84.5291 707.031 84.0461 706.358 83.77C705.702 83.4767 704.891 83.3301 703.925 83.3301C702.925 83.3301 702.053 83.5285 701.312 83.9253C700.587 84.3221 699.983 84.8742 699.5 85.5815C699.034 86.2716 698.681 87.0825 698.439 88.0142C698.197 88.9458 698.077 89.9465 698.077 91.0161ZM739.302 77.999H746.056V105.068C746.056 107.622 745.487 109.787 744.348 111.564C743.227 113.358 741.657 114.713 739.638 115.627C737.62 116.559 735.273 117.024 732.599 117.024C731.426 117.024 730.184 116.869 728.873 116.559C727.579 116.248 726.336 115.765 725.146 115.109C723.973 114.454 722.989 113.626 722.196 112.625L725.482 108.226C726.345 109.226 727.346 110.003 728.484 110.555C729.623 111.124 730.882 111.409 732.263 111.409C733.608 111.409 734.747 111.159 735.679 110.658C736.61 110.175 737.326 109.459 737.827 108.51C738.327 107.579 738.577 106.449 738.577 105.12V84.4688L739.302 77.999ZM720.462 92.3359V91.7925C720.462 89.6532 720.721 87.7122 721.238 85.9697C721.773 84.21 722.524 82.7004 723.49 81.4409C724.473 80.1815 725.664 79.2067 727.061 78.5166C728.458 77.8265 730.037 77.4814 731.797 77.4814C733.66 77.4814 735.222 77.8265 736.481 78.5166C737.74 79.2067 738.776 80.1901 739.586 81.4668C740.397 82.7262 741.027 84.2186 741.476 85.9438C741.941 87.6519 742.304 89.5238 742.562 91.5596V92.75C742.304 94.6995 741.916 96.5111 741.398 98.1846C740.88 99.8581 740.199 101.325 739.354 102.584C738.508 103.826 737.456 104.792 736.196 105.482C734.954 106.173 733.47 106.518 731.745 106.518C730.02 106.518 728.458 106.164 727.061 105.457C725.681 104.749 724.499 103.757 723.516 102.48C722.532 101.204 721.773 99.7028 721.238 97.9775C720.721 96.2523 720.462 94.3717 720.462 92.3359ZM727.915 91.7925V92.3359C727.915 93.4919 728.027 94.5701 728.251 95.5708C728.476 96.5715 728.821 97.46 729.287 98.2363C729.77 98.9954 730.365 99.5907 731.072 100.022C731.797 100.436 732.651 100.643 733.634 100.643C734.997 100.643 736.11 100.358 736.973 99.7891C737.835 99.2025 738.482 98.4002 738.914 97.3823C739.345 96.3644 739.595 95.1912 739.664 93.8628V90.4727C739.63 89.3857 739.483 88.411 739.224 87.5483C738.965 86.6685 738.603 85.918 738.137 85.2969C737.671 84.6758 737.068 84.1927 736.326 83.8477C735.584 83.5026 734.704 83.3301 733.686 83.3301C732.703 83.3301 731.849 83.5544 731.124 84.0029C730.417 84.4342 729.821 85.0295 729.338 85.7886C728.873 86.5477 728.519 87.4448 728.277 88.48C728.036 89.4979 727.915 90.6021 727.915 91.7925Z" fill="#1C4670"/>
</g>
<defs>
<clipPath id="clip0_63_3017">
<rect width="1080" height="1080" fill="white"/>
</clipPath>
</defs>
</svg>
