<svg width="2372" height="2372" viewBox="0 0 2372 2372" fill="none" xmlns="http://www.w3.org/2000/svg">
<path d="M1186 2372C1841.01 2372 2372 1841.01 2372 1186C2372 530.99 1841.01 0 1186 0C530.99 0 0 530.99 0 1186C0 1841.01 530.99 2372 1186 2372Z" fill="white"/>
<path d="M1186 2264C1781.36 2264 2264 1781.36 2264 1186C2264 590.637 1781.36 108 1186 108C590.637 108 108 590.637 108 1186C108 1781.36 590.637 2264 1186 2264Z" fill="#30486E"/>
<path fill-rule="evenodd" clip-rule="evenodd" d="M844 709.928C854.536 698.585 854.8 693.696 908.514 674.825C962.228 655.955 1052.29 632.156 1077 580.495C1101.71 528.834 1101.71 508.632 1132.04 507.504C1140.01 507.208 1146.51 506.99 1151.78 506.834L1182.44 507.348V467.162C1182.44 466.543 1182.69 465.949 1183.13 465.511C1183.56 465.073 1184.16 464.827 1184.78 464.827H1189.49C1196.35 464.825 1202.99 462.393 1208.22 457.962C1213.46 453.531 1216.96 447.387 1218.09 440.623C1218.21 439.845 1218.32 439.066 1218.38 438.288C1218.44 437.509 1218.48 436.731 1218.48 435.882C1218.48 435.034 1218.48 434.24 1218.38 433.469C1218.28 432.698 1218.22 431.857 1218.09 431.133C1216.95 424.37 1213.46 418.229 1208.22 413.8C1202.98 409.37 1196.34 406.94 1189.48 406.94C1182.62 406.94 1175.99 409.37 1170.75 413.8C1165.51 418.229 1162.02 424.37 1160.88 431.133C1160.75 431.912 1160.66 432.69 1160.59 433.469C1160.52 434.247 1160.49 435.026 1160.49 435.882C1160.49 436.739 1160.49 437.517 1160.59 438.288C1160.69 439.059 1160.74 439.782 1160.86 440.499C1160.9 440.676 1160.92 440.855 1160.92 441.036C1160.92 441.655 1160.67 442.249 1160.23 442.687C1159.8 443.125 1159.2 443.371 1158.58 443.371H1148.22C1147.65 443.366 1147.11 443.157 1146.69 442.782C1146.26 442.407 1145.99 441.892 1145.92 441.332C1145.82 440.499 1145.73 439.588 1145.68 438.622C1145.62 437.657 1145.59 436.762 1145.59 435.906C1145.59 435.049 1145.59 434.131 1145.68 433.181C1145.77 432.231 1145.82 431.312 1145.92 430.472C1147.25 419.85 1152.41 410.079 1160.44 402.994C1168.46 395.91 1178.8 392 1189.51 392C1200.21 392 1210.55 395.91 1218.58 402.994C1226.61 410.079 1231.77 419.85 1233.09 430.472C1233.2 431.312 1233.28 432.215 1233.34 433.181C1233.41 434.146 1233.43 435.049 1233.43 435.906C1233.43 436.762 1233.43 437.673 1233.34 438.622C1233.26 439.572 1233.2 440.499 1233.09 441.332C1231.94 450.603 1227.85 459.264 1221.43 466.055C1215.01 472.847 1206.59 477.415 1197.4 479.096V507.34L1229.77 506.803C1235.03 506.959 1241.54 507.177 1249.51 507.473C1279.83 508.601 1279.83 528.803 1304.55 580.464C1329.26 632.125 1419.32 655.924 1473.03 674.794C1526.75 693.665 1524.46 698.554 1535 709.896C1418.47 667.336 1318.64 692.98 1195.85 791C1098.13 710.449 968.131 664.565 844.023 709.896" fill="white"/>
<path fill-rule="evenodd" clip-rule="evenodd" d="M840 813.945C841.45 872.189 926.473 889.95 974 902L960.369 862.231C951.265 848.933 925.507 796.494 913.707 792.744C902.616 789.202 886.888 788.939 872.493 792.837C858.846 796.548 846.407 804.065 840 813.945Z" fill="#053835"/>
<path fill-rule="evenodd" clip-rule="evenodd" d="M1178.6 804.788C1174.18 799.6 1176.33 802.217 1171.59 797.441C1074.01 698.947 914.096 684.822 843.803 710.501C843.803 710.501 841.348 724.603 839.509 757.084C838.075 782.436 839.065 796.592 839.564 817.028C883.605 744.455 1044.87 841.539 1114.43 890.038C1114.78 890.038 1179.75 806.129 1178.6 804.788ZM1539.47 817.059C1539.97 796.623 1540.96 782.467 1539.52 757.115C1537.69 724.634 1535.24 710.532 1535.24 710.532C1368.38 649.552 1198.66 805.856 1061.81 955.74C1061.42 955.257 1105.06 902.691 1110.12 895.85C1055.57 865.185 1002.92 827.289 947.626 811.847C954.117 832.969 956.906 844.297 957.662 859.926L971.291 899.909C971.291 899.909 976.816 906.041 982.979 937.306C989.143 968.572 985.652 961.755 992.914 978.342C1000.97 996.752 1000.81 999.798 1001.58 1021.14C1008.43 1015.76 1029.19 1005.15 1044.23 997.64C1019.35 1012.71 1001.91 1032.4 1001.98 1035.38C1002.59 1058.67 1009.95 1068.78 1009.95 1068.78C1007.16 1057.79 1329.82 852.711 1360.93 833.88C1424.9 795.112 1505.98 761.86 1539.47 817.059ZM1102.71 1874.13C1102.82 1878.5 1103.49 1884.9 1106.14 1887.96C1110.38 1892.8 1148.96 1908.8 1186.92 1909C1227.83 1909.19 1268.31 1893.2 1272.86 1887.96M1101.35 1871.05C1101.6 1870.82 1101.8 1870.63 1101.98 1870.46C1101.8 1870.6 1101.59 1870.8 1101.35 1871.02V1871.05ZM1100.1 1872.09C1100.43 1871.84 1100.72 1871.6 1100.98 1871.37C1100.73 1871.58 1100.43 1871.81 1100.1 1872.06V1872.09ZM1098.81 1873.03L1099.65 1872.43C1099.39 1872.58 1099.12 1872.79 1098.81 1873V1873.03ZM1272.89 1887.93C1274.45 1886.19 1275.28 1883.37 1275.77 1880.44C1274.28 1808.14 1269.92 1593.3 1268.91 1518.32C1267.68 1427.61 1264.01 1293.99 1265.24 1235.15C1266.46 1176.31 1270.63 1118.82 1270.63 1118.82L1270.53 1120.33C1270.53 1120.33 1269.99 1116.2 1275.5 1125.4C1281.01 1134.59 1279.21 1267.12 1292.21 1347.01C1299.83 1393.84 1330.14 1483.41 1333.03 1572.03C1336.86 1689.67 1311.71 1772.83 1347.05 1880.93C1347.44 1882.11 1347.96 1883.45 1348.56 1884.93L1350.41 1884.87C1411.71 1882.42 1512.24 1889.15 1570.49 1862.18C1628.74 1835.21 1650.79 1811.93 1650.79 1811.93L1629.34 1754.93L1639.01 1753.82C1635.81 1754.38 1632.58 1754.75 1629.34 1754.93C1629.34 1754.93 1549.94 1529.68 1527.87 1464.71C1505.81 1399.75 1408.94 1144.77 1408.94 1144.77C1454.62 1224.13 1473.01 1253.56 1514.69 1345.5C1556.37 1437.43 1558.22 1481.57 1558.83 1514.05C1559.45 1546.54 1639.02 1753.82 1639.02 1753.82C1653.14 1751.54 1680.95 1744.6 1710.87 1723.67C1753.77 1693.63 1755 1678.92 1755 1678.92C1755 1678.92 1550.29 1297.68 1480.37 1208.17C1410.45 1118.66 1386.58 1104.55 1386.58 1104.55C1386.33 1098.81 1384.65 1093.22 1381.68 1088.3C1376.77 1080.34 1374.94 1077.89 1378.31 1072.99C1381.68 1068.09 1379.87 1064.42 1375.55 1065.98C1373.34 1066.72 1371.18 1067.65 1369.11 1068.73C1369.11 1068.73 1373.24 1062.71 1376.45 1039.63C1377.87 1029.3 1347.09 997.048 1345.21 993.589C1354.5 1002.03 1377.26 1022.14 1377.51 1020.12C1379.45 1005.13 1379.67 993.433 1385.05 980.78C1389.41 970.512 1391.85 959.223 1373.42 942.963C1373.84 940.805 1392.68 955.982 1393.27 952.655C1393.97 948.759 1394.83 943.765 1396.08 937.26C1396.91 932.85 1397.74 928.939 1398.58 925.448C1400.37 918.694 1404.04 904.342 1407.72 899.87L1421.35 859.887C1424.66 831.06 1427.59 825.731 1434.23 812.112C1434.41 811.816 1434.61 811.52 1434.82 811.239C1374.51 839.287 1011.59 1070.53 1009.89 1068.76C1007.82 1067.68 1005.67 1066.76 1003.46 1066.01C999.164 1064.45 997.325 1068.15 1000.7 1073.02C1004.07 1077.89 1002.26 1080.37 997.325 1088.34C994.353 1093.25 992.665 1098.84 992.416 1104.58C992.416 1104.58 968.517 1118.68 898.629 1208.2C828.74 1297.72 624 1678.92 624 1678.92C624 1678.92 625.223 1693.63 668.127 1723.67C695.4 1742.76 720.958 1750.21 735.919 1753.11C745.808 1728.54 819.561 1544.35 820.138 1514.05C820.745 1481.57 822.592 1437.44 864.273 1345.5C905.953 1253.55 924.359 1224.13 970.021 1144.77C970.021 1144.77 873.164 1399.74 851.096 1464.71C829.029 1529.68 749.626 1754.93 749.626 1754.93L728.213 1811.93C728.213 1811.93 750.281 1835.22 808.473 1862.18C866.665 1889.15 967.247 1882.44 1028.55 1884.87C1072.27 1886.61 1091.35 1878.08 1098.68 1873.03C1091.71 1877.8 1074.23 1885.7 1035.3 1885.06C1066.23 1739.78 1017.3 1733.4 1041.94 1586.99C1052.97 1521.42 1070.81 1419.34 1073.26 1338.46C1075.71 1257.58 1093.57 1151.33 1099.09 1142.13C1104.41 1133.24 1102.26 1128.1 1108.15 1116.41C1108.15 1116.41 1112.49 1176.3 1113.72 1235.13C1114.96 1293.97 1111.27 1427.57 1110.05 1518.31C1108.82 1609.04 1102.68 1873.81 1102.68 1873.81L1102.63 1874.07" fill="white"/>
<path fill-rule="evenodd" clip-rule="evenodd" d="M1010.68 1067.43L1010.1 1067.35C1010.4 1067.85 1010.58 1068.14 1010.58 1068.14C1010.55 1067.91 1010.58 1067.68 1010.68 1067.47M1011.77 1067.64C1011.03 1068.02 1010.63 1068.2 1010.58 1068.14C1008.51 1067.05 1006.36 1066.12 1004.15 1065.36C999.86 1063.8 998.022 1067.52 1001.39 1072.42C1004.77 1077.31 1002.95 1079.81 998.022 1087.82C995.052 1092.77 993.366 1098.39 993.117 1104.16L993 1104.24M1387 1104.18C1386.75 1098.41 1385.07 1092.79 1382.1 1087.85C1377.2 1079.84 1375.36 1077.37 1378.73 1072.44C1382.1 1067.51 1380.29 1063.82 1375.97 1065.39C1373.76 1066.14 1371.62 1067.06 1369.55 1068.15M1271.49 1113C1271.77 1108.6 1271.95 1106.15 1271.95 1106.15L1271.84 1107.66C1271.62 1109.42 1271.62 1111.21 1271.84 1112.98" fill="#094440"/>
<path fill-rule="evenodd" clip-rule="evenodd" d="M1007.92 1067.2C1007.92 1067.2 1008.05 1064.58 1001.87 1061.92C996.215 1059.5 990.699 1068.01 994.081 1072.93C997.462 1077.85 989.757 1081.54 985.892 1087.86C982.838 1092.85 988.354 1098.97 991.447 1104.17C991.447 1104.17 1110.02 1114.4 1159.05 1116.69C1208.08 1118.98 1339.98 1108.02 1377.05 1104.95L1389.21 1103.97C1389.14 1102.17 1400.49 1093.95 1395.91 1086.49C1391.34 1079.03 1386.23 1076.18 1389.6 1071.26C1392.98 1066.34 1385.86 1059.69 1381.58 1061.23C1377.29 1062.77 1369.04 1068.15 1369.04 1068.15C1369.04 1068.15 1334.54 1073.83 1305.74 1073.83C1276.93 1073.83 1329.03 1078.15 1347.42 1077.52C1365.8 1076.9 1371.93 1079.99 1367.67 1083.06C1363.42 1086.14 1372.88 1086.45 1375.95 1091.07C1377.71 1093.72 1377.82 1097.91 1377.6 1100.99C1359.24 1101.67 1314.19 1103.29 1267.83 1104.51C1256.26 1100.85 1223.76 1096.8 1216.41 1096.98C1204.15 1097.29 1198.94 1096.37 1195.87 1091.44C1192.8 1086.51 1173.5 1089.6 1146.83 1088.98C1120.17 1088.35 1152.82 1087.29 1201.85 1081.43C1250.87 1075.58 1161.55 1076.98 1118.34 1077.29C1075.14 1077.59 1007.92 1067.2 1007.92 1067.2Z" fill="#E6E6E6"/>
<path fill-rule="evenodd" clip-rule="evenodd" d="M1540 810.725C1538.55 869.114 1453.52 886.912 1406 899L1421.32 860.755C1430.43 847.432 1454.49 793.222 1466.29 789.462C1487.92 782.548 1526.85 790.371 1540 810.725Z" fill="#053835"/>
<path d="M2208 1186C2208 1748.23 1752.23 2204 1190 2204C627.774 2204 172 1748.23 172 1186C172 623.774 627.774 168 1190 168C1752.23 168 2208 623.774 2208 1186Z" stroke="#F7A73C" stroke-width="14"/>
</svg>
