<svg width="2372" height="2372" viewBox="0 0 2372 2372" fill="none" xmlns="http://www.w3.org/2000/svg">
<path d="M1186 2372C1841.01 2372 2372 1841.01 2372 1186C2372 530.99 1841.01 0 1186 0C530.99 0 0 530.99 0 1186C0 1841.01 530.99 2372 1186 2372Z" fill="white"/>
<path d="M1182 2264C1777.36 2264 2260 1781.36 2260 1186C2260 590.637 1777.36 108 1182 108C586.637 108 104 590.637 104 1186C104 1781.36 586.637 2264 1182 2264Z" fill="#30486E"/>
<path d="M1759.4 1007.7L1867.05 973.541C1911.02 1113 1912.98 1259.5 1868.85 1398.47L1762.63 1364.68C1752.31 1397 1739.26 1428.39 1723.61 1458.48L1822.97 1510.19C1756.37 1639.28 1651.35 1744.44 1522.43 1811.13L1470.96 1711.47C1440.68 1727.15 1409.12 1740.2 1376.62 1750.5L1409.88 1855.6H1409.59C1271.61 1899.87 1123.31 1900.14 985.178 1856.37L1018.92 1750.01C986.652 1739.71 955.312 1726.68 925.242 1711.06L873.436 1810.84C744.493 1744.14 639.451 1638.95 572.859 1509.83L672.629 1458.16C657.021 1427.63 644.05 1395.82 633.857 1363.08L529.674 1395.81C488.818 1256.51 484.079 1110.26 527.999 971.495L633.203 1005.53C643.478 973.205 656.476 941.809 672.057 911.685L572.614 860.057C639.114 730.983 744.018 625.783 872.824 559.002L924.425 658.617C954.683 642.907 986.23 629.823 1018.72 619.508L985.504 514.411L986.321 514.124L985.995 513.224C1123.83 469.079 1271.95 468.922 1409.88 512.774L1376.05 619.14C1408.43 629.392 1439.87 642.422 1470.02 658.086L1521.25 558.552C1650.11 625.193 1755.09 730.319 1821.62 859.362L1721.65 911.44C1738.06 941.836 1750.73 974.119 1759.36 1007.58L1759.4 1007.7ZM1711.6 1022.51C1679.52 920.781 1618.03 830.863 1534.92 764.126C1451.8 697.389 1350.79 656.832 1244.65 647.583C1138.51 638.334 1032.02 660.809 938.637 712.165C845.256 763.522 769.183 841.453 720.037 936.103C670.891 1030.75 650.88 1137.87 662.535 1243.91C674.191 1349.95 716.988 1450.14 785.515 1531.83C854.043 1613.51 945.222 1673.01 1047.52 1702.8C1149.82 1732.59 1258.65 1731.34 1360.24 1699.2C1496.43 1656.1 1609.95 1560.6 1675.84 1433.7C1741.73 1306.8 1754.59 1158.9 1711.6 1022.51ZM717.571 1324.01H803.368V1000.83H827.882V1324.01H852.396V1291.29H896.193L902.648 1058.1H893.252V1009.01H903.874L906.611 910.826H893.252V874.007H907.674L908.327 845.37H956.374L956.987 874.007H966.792V910.826H958.049L960.786 1009.01H970.878V1058.1H962.012L968.467 1291.29H995.392L1001.85 1058.1H995.392V1009.01H1003.2L1005.93 910.826H995.392V874.007H1006.99L1007.65 845.37H1055.69L1056.31 874.007H1068.93V910.826H1057.37L1060.11 1009.01H1073.02V1058.1H1061.33L1063.62 1131.74H1117.96V1121.47C1117.81 1116.28 1118.69 1111.11 1120.56 1106.27C1122.43 1101.43 1125.25 1097.01 1128.85 1093.28C1132.45 1089.54 1136.77 1086.56 1141.53 1084.52C1146.3 1082.48 1151.42 1081.41 1156.61 1081.38C1165.64 1081.38 1175.16 1084.41 1179.24 1089.56V1052.74C1179.39 1039.04 1184.94 1025.95 1194.67 1016.32C1204.4 1006.68 1217.53 1001.28 1231.21 1001.28C1243.68 1001.37 1255.71 1005.91 1265.15 1014.07C1274.59 1022.23 1280.82 1033.49 1282.73 1045.83H1340.99C1344.26 1009.01 1346.3 972.191 1346.3 927.19H1450.69C1450.69 972.191 1452.69 1009.01 1456 1045.83H1595.97V1324.01H1678.05C1618.2 1536.74 1425.85 1686.19 1197.79 1686.19C969.734 1686.19 777.302 1536.74 717.571 1324.01ZM1563.29 1160.38H1471.53C1481.66 1217.65 1493.22 1258.56 1500.41 1291.29H1542.86V1324.01H1563.29V1160.38ZM1458.58 1070.37C1461.07 1094.92 1464.01 1115.37 1467.2 1131.74H1563.29V1070.37H1458.58ZM1285.47 1131.74H1329.8C1332.98 1115.37 1335.93 1094.92 1338.42 1070.37H1285.47V1131.74ZM1285.47 1291.29H1296.54C1303.73 1258.56 1315.29 1217.65 1325.47 1160.38H1285.47V1291.29ZM1064.36 1160.38L1067.79 1291.29H1117.96V1160.38H1064.36Z" fill="white"/>
<path d="M2208 1186C2208 1748.23 1752.23 2204 1190 2204C627.774 2204 172 1748.23 172 1186C172 623.774 627.774 168 1190 168C1752.23 168 2208 623.774 2208 1186Z" stroke="#F7A73C" stroke-width="14"/>
</svg>
