<svg width="2372" height="2372" viewBox="0 0 2372 2372" fill="none" xmlns="http://www.w3.org/2000/svg">
<path d="M1186 2372C1841.01 2372 2372 1841.01 2372 1186C2372 530.991 1841.01 0.000244141 1186 0.000244141C530.99 0.000244141 0 530.991 0 1186C0 1841.01 530.99 2372 1186 2372Z" fill="white"/>
<path d="M1186 2264C1781.36 2264 2264 1781.36 2264 1186C2264 590.637 1781.36 108 1186 108C590.637 108 108 590.637 108 1186C108 1781.36 590.637 2264 1186 2264Z" fill="#30486E"/>
<path d="M1914.17 1357.99C2009.07 955.918 1760.06 553.046 1357.99 458.149C955.915 363.252 553.044 612.265 458.147 1014.33C363.25 1416.4 612.262 1819.28 1014.33 1914.17C1416.4 2009.07 1819.27 1760.06 1914.17 1357.99Z" stroke="white" stroke-width="40" stroke-miterlimit="10" stroke-dasharray="6 6"/>
<g style="mix-blend-mode:multiply">
<path opacity="0.02" d="M1550.22 1562.44C1550.22 1609.2 1303.67 1647.02 999.6 1647.02C695.53 1647.02 448.984 1608.99 448.984 1562.44C448.984 1515.88 695.682 1477.65 999.6 1477.65C1303.52 1477.65 1550.22 1515.52 1550.22 1562.44Z" fill="#58595B"/>
<path opacity="0.05" d="M1540.57 1562.44C1540.57 1608.13 1298.34 1645.55 999.598 1645.55C700.859 1645.55 458.578 1608.13 458.578 1562.44C458.578 1516.74 700.758 1479.12 999.598 1479.12C1298.44 1479.12 1540.57 1516.34 1540.57 1562.44Z" fill="#58595B"/>
<path opacity="0.07" d="M1530.97 1562.44C1530.97 1607.52 1293.05 1644.08 999.596 1644.08C706.137 1644.08 468.223 1607.32 468.223 1562.44C468.223 1517.55 706.137 1480.8 999.596 1480.8C1293.05 1480.8 1530.97 1517.15 1530.97 1562.44Z" fill="#58595B"/>
<path opacity="0.1" d="M1521.32 1562.44C1521.32 1606.71 1287.78 1642.6 999.598 1642.6C711.419 1642.6 477.77 1606.51 477.77 1562.44C477.77 1518.37 711.318 1482.27 999.598 1482.27C1287.88 1482.27 1521.32 1517.96 1521.32 1562.44Z" fill="#58595B"/>
<path opacity="0.12" d="M1511.73 1562.44C1511.73 1605.9 1282.44 1641.13 999.596 1641.13C716.748 1641.13 487.516 1605.69 487.516 1562.44C487.516 1519.18 716.799 1483.74 999.697 1483.74C1282.6 1483.74 1511.73 1518.77 1511.73 1562.44Z" fill="#58595B"/>
<path opacity="0.15" d="M1502.13 1562.44C1502.13 1605.08 1277.16 1639.66 999.496 1639.66C721.827 1639.66 496.859 1605.08 496.859 1562.44C496.859 1519.79 721.827 1485.21 999.496 1485.21C1277.16 1485.21 1502.13 1519.59 1502.13 1562.44Z" fill="#58595B"/>
<path opacity="0.17" d="M1492.79 1562.44C1492.79 1604.27 1272.09 1638.19 999.853 1638.19C727.617 1638.19 506.609 1604.07 506.609 1562.44C506.609 1520.8 727.363 1486.74 999.599 1486.74C1271.84 1486.74 1492.79 1520.4 1492.79 1562.44Z" fill="#58595B"/>
<path opacity="0.2" d="M1482.89 1562.44C1482.89 1603.46 1266.5 1636.71 999.597 1636.71C732.692 1636.71 516.254 1603.05 516.254 1562.44C516.254 1521.82 732.641 1488.16 999.597 1488.16C1266.55 1488.16 1482.89 1521.21 1482.89 1562.44Z" fill="#58595B"/>
<path opacity="0.22" d="M1473.3 1562.44C1473.3 1602.65 1261.22 1635.19 999.599 1635.19C737.974 1635.19 525.852 1602.44 525.852 1562.44C525.852 1522.43 737.974 1489.63 999.599 1489.63C1261.22 1489.63 1473.3 1521.82 1473.3 1562.44Z" fill="#58595B"/>
<path opacity="0.24" d="M1463.7 1562.44C1463.7 1601.78 1255.89 1633.52 999.597 1633.52C743.303 1633.52 535.445 1601.58 535.445 1562.44C535.445 1523.29 743.253 1491.36 999.597 1491.36C1255.94 1491.36 1463.7 1522.83 1463.7 1562.44Z" fill="#58595B"/>
<path opacity="0.27" d="M1454.1 1562.44C1454.1 1600.97 1250.61 1632.3 999.599 1632.3C748.585 1632.3 545.094 1600.77 545.094 1562.44C545.094 1524.1 748.535 1492.57 999.599 1492.57C1250.66 1492.57 1454.1 1523.65 1454.1 1562.44Z" fill="#58595B"/>
<path opacity="0.29" d="M1444.46 1562.44C1444.46 1600.21 1245.28 1630.77 999.597 1630.77C753.914 1630.77 554.637 1600.31 554.637 1562.44C554.637 1524.56 753.864 1494.1 999.597 1494.1C1245.33 1494.1 1444.46 1524.46 1444.46 1562.44Z" fill="#58595B"/>
<path opacity="0.32" d="M1434.91 1562.44C1434.91 1599.35 1240 1629.3 999.599 1629.3C759.196 1629.3 564.234 1599.14 564.234 1562.44C564.234 1525.73 759.196 1495.57 999.599 1495.57C1240 1495.57 1434.91 1525.27 1434.91 1562.44Z" fill="#58595B"/>
<path opacity="0.34" d="M1425.26 1562.44C1425.26 1598.53 1234.67 1627.83 999.597 1627.83C764.525 1627.83 573.828 1598.33 573.828 1562.44C573.828 1526.54 764.424 1497.04 999.546 1497.04C1234.67 1497.04 1425.26 1526.08 1425.26 1562.44Z" fill="#58595B"/>
<path opacity="0.37" d="M1415.67 1562.44C1415.67 1597.98 1229.39 1626.36 999.599 1626.36C769.807 1626.36 583.273 1597.72 583.273 1562.44C583.273 1527.15 769.503 1498.52 999.599 1498.52C1229.69 1498.52 1415.67 1526.9 1415.67 1562.44Z" fill="#58595B"/>
<path opacity="0.39" d="M1406.07 1562.44C1406.07 1596.91 1224.06 1624.88 999.597 1624.88C775.136 1624.88 593.07 1596.71 593.07 1562.44C593.07 1528.17 775.086 1499.99 999.597 1499.99C1224.11 1499.99 1406.07 1527.76 1406.07 1562.44Z" fill="#58595B"/>
<path opacity="0.41" d="M1396.33 1562.44C1396.33 1596.1 1218.63 1623.36 999.446 1623.36C780.266 1623.36 602.566 1596.05 602.566 1562.44C602.566 1528.83 780.266 1501.51 999.446 1501.51C1218.63 1501.51 1396.33 1528.57 1396.33 1562.44Z" fill="#58595B"/>
<path opacity="0.44" d="M1386.88 1562.44C1386.88 1595.34 1213.45 1621.94 999.597 1621.94C785.748 1621.94 612.312 1595.13 612.312 1562.44C612.312 1529.74 785.748 1502.93 999.597 1502.93C1213.45 1502.93 1386.88 1529.38 1386.88 1562.44Z" fill="#58595B"/>
<path opacity="0.46" d="M1377.24 1562.44C1377.24 1594.47 1208.17 1620.47 999.598 1620.47C791.03 1620.47 621.91 1594.27 621.91 1562.44C621.91 1530.6 791.03 1504.4 999.598 1504.4C1208.17 1504.4 1377.24 1530.2 1377.24 1562.44Z" fill="#58595B"/>
<path opacity="0.49" d="M1367.64 1562.44C1367.64 1593.66 1202.89 1619 999.6 1619C796.312 1619 631.559 1593.61 631.559 1562.44C631.559 1531.26 796.312 1505.88 999.6 1505.88C1202.89 1505.88 1367.64 1531.01 1367.64 1562.44Z" fill="#58595B"/>
<path opacity="0.51" d="M1358.04 1562.44C1358.04 1592.9 1197.56 1617.47 999.598 1617.47C801.641 1617.47 641.152 1592.9 641.152 1562.44C641.152 1531.97 801.59 1507.35 999.598 1507.35C1197.61 1507.35 1358.04 1531.97 1358.04 1562.44Z" fill="#58595B"/>
<path opacity="0.54" d="M1348.4 1562.44C1348.4 1592.04 1192.22 1616.05 999.596 1616.05C806.97 1616.05 650.746 1591.83 650.746 1562.44C650.746 1533.04 806.919 1508.82 999.596 1508.82C1192.27 1508.82 1348.4 1532.63 1348.4 1562.44Z" fill="#58595B"/>
<path opacity="0.56" d="M1338.8 1562.44C1338.8 1591.22 1186.94 1614.53 999.598 1614.53C812.252 1614.53 660.141 1591.02 660.141 1562.44C660.141 1533.85 812.049 1510.29 999.395 1510.29C1186.74 1510.29 1338.8 1533.45 1338.8 1562.44Z" fill="#58595B"/>
<path opacity="0.59" d="M1329.2 1562.44C1329.2 1590.41 1181.61 1613.21 999.596 1613.21C817.581 1613.21 669.938 1590.51 669.938 1562.44C669.938 1534.36 817.53 1511.66 999.596 1511.66C1181.66 1511.66 1329.2 1534.26 1329.2 1562.44Z" fill="#58595B"/>
<path opacity="0.61" d="M1319.61 1562.44C1319.61 1589.6 1176.33 1611.63 999.75 1611.63C823.167 1611.63 679.891 1589.6 679.891 1562.44C679.891 1535.27 823.167 1513.29 999.75 1513.29C1176.33 1513.29 1319.61 1535.07 1319.61 1562.44Z" fill="#58595B"/>
<path opacity="0.63" d="M1310.01 1562.44C1310.01 1588.79 1171.05 1610.11 999.647 1610.11C828.242 1610.11 689.23 1588.79 689.23 1562.44C689.23 1536.09 828.192 1514.76 999.647 1514.76C1171.1 1514.76 1310.01 1535.88 1310.01 1562.44Z" fill="#58595B"/>
<path opacity="0.66" d="M1300.37 1562.44C1300.37 1587.82 1165.72 1608.64 999.598 1608.64C833.474 1608.64 698.777 1587.82 698.777 1562.44C698.777 1537.05 833.474 1516.23 999.598 1516.23C1165.72 1516.23 1300.37 1536.7 1300.37 1562.44Z" fill="#58595B"/>
<path opacity="0.68" d="M1290.77 1562.44C1290.77 1587.11 1160.39 1607.17 999.6 1607.17C838.807 1607.17 708.426 1586.91 708.426 1562.44C708.426 1537.96 838.807 1517.71 999.6 1517.71C1160.39 1517.71 1290.77 1537.51 1290.77 1562.44Z" fill="#58595B"/>
<path opacity="0.71" d="M1281.18 1562.44C1281.18 1586.35 1155.11 1605.69 999.598 1605.69C844.085 1605.69 718.02 1586.15 718.02 1562.44C718.02 1538.73 844.085 1519.18 999.598 1519.18C1155.11 1519.18 1281.18 1538.32 1281.18 1562.44Z" fill="#58595B"/>
<path opacity="0.73" d="M1271.53 1562.44C1271.53 1585.49 1149.68 1604.22 999.599 1604.22C849.519 1604.22 727.617 1585.28 727.617 1562.44C727.617 1539.59 849.468 1520.65 999.599 1520.65C1149.73 1520.65 1271.53 1539.18 1271.53 1562.44Z" fill="#58595B"/>
<path opacity="0.76" d="M1261.93 1562.44C1261.93 1584.72 1144.45 1602.75 999.597 1602.75C854.747 1602.75 737.211 1584.52 737.211 1562.44C737.211 1540.35 854.696 1521.82 999.597 1521.82C1144.5 1521.82 1261.93 1540 1261.93 1562.44Z" fill="#58595B"/>
<path opacity="0.78" d="M1252.34 1562.44C1252.34 1583.86 1139.17 1601.28 999.599 1601.28C860.029 1601.28 746.809 1583.66 746.809 1562.44C746.809 1541.21 859.978 1523.6 999.599 1523.6C1139.22 1523.6 1252.34 1540.76 1252.34 1562.44Z" fill="#58595B"/>
<path opacity="0.8" d="M1242.74 1562.44C1242.74 1583.05 1133.84 1599.8 999.597 1599.8C865.358 1599.8 756.605 1582.74 756.605 1562.44C756.605 1542.13 865.51 1525.07 999.8 1525.07C1134.09 1525.07 1242.74 1541.62 1242.74 1562.44Z" fill="#58595B"/>
<path opacity="0.83" d="M1233.1 1562.44C1233.1 1582.24 1128.56 1598.28 999.548 1598.28C870.538 1598.28 766 1582.24 766 1562.44C766 1542.64 870.589 1526.54 999.548 1526.54C1128.51 1526.54 1233.1 1542.43 1233.1 1562.44Z" fill="#58595B"/>
<path opacity="0.85" d="M1223.7 1562.44C1223.7 1581.42 1123.43 1596.86 999.8 1596.86C876.172 1596.86 775.848 1581.63 775.848 1562.44C775.848 1543.24 876.121 1528.06 999.8 1528.06C1123.48 1528.06 1223.7 1543.24 1223.7 1562.44Z" fill="#58595B"/>
<path opacity="0.88" d="M1213.9 1562.44C1213.9 1580.61 1117.95 1595.34 999.599 1595.34C881.251 1595.34 785.242 1580.61 785.242 1562.44C785.242 1544.26 881.2 1529.49 999.599 1529.49C1118 1529.49 1213.9 1544.06 1213.9 1562.44Z" fill="#58595B"/>
<path opacity="0.9" d="M1204.26 1562.44C1204.26 1579.8 1112.87 1593.86 999.597 1593.86C886.326 1593.86 794.836 1579.8 794.836 1562.44C794.836 1545.07 886.529 1531.01 999.597 1531.01C1112.66 1531.01 1204.26 1544.87 1204.26 1562.44Z" fill="#58595B"/>
<path opacity="0.93" d="M1194.66 1562.44C1194.66 1578.99 1107.39 1592.39 999.599 1592.39C891.811 1592.39 804.484 1578.99 804.484 1562.44C804.484 1545.88 891.862 1532.43 999.599 1532.43C1107.34 1532.43 1194.66 1545.68 1194.66 1562.44Z" fill="#58595B"/>
<path opacity="0.95" d="M1185.12 1562.44C1185.12 1578.18 1102 1590.92 999.597 1590.92C897.191 1590.92 814.078 1578.18 814.078 1562.44C814.078 1546.7 897.089 1533.9 999.597 1533.9C1102.1 1533.9 1185.12 1546.49 1185.12 1562.44Z" fill="#58595B"/>
<path opacity="0.98" d="M1175.47 1562.44C1175.47 1577.36 1096.72 1589.45 999.599 1589.45C902.473 1589.45 823.676 1577.36 823.676 1562.44C823.676 1547.51 902.473 1535.43 999.599 1535.43C1096.72 1535.43 1175.47 1547.2 1175.47 1562.44Z" fill="#58595B"/>
<path d="M1165.87 1562.44C1165.87 1576.55 1091.44 1587.82 999.597 1587.82C907.751 1587.82 833.32 1576.4 833.32 1562.44C833.32 1548.47 907.751 1537.05 999.597 1537.05C1091.44 1537.05 1165.87 1548.12 1165.87 1562.44Z" fill="#58595B"/>
</g>
<path d="M1292.95 1542.79C1292.95 1553.13 1288.85 1563.05 1281.53 1570.36C1274.22 1577.67 1264.3 1581.78 1253.96 1581.78H730.406C725.286 1581.78 720.215 1580.77 715.485 1578.81C710.754 1576.85 706.455 1573.98 702.835 1570.36C699.214 1566.74 696.342 1562.44 694.382 1557.71C692.423 1552.98 691.414 1547.91 691.414 1542.79V612.555C691.414 607.434 692.423 602.364 694.382 597.633C696.342 592.902 699.214 588.604 702.835 584.983C706.455 581.362 710.754 578.49 715.485 576.53C720.215 574.571 725.286 573.562 730.406 573.562H1254.16C1259.28 573.562 1264.35 574.571 1269.09 576.53C1273.82 578.49 1278.11 581.362 1281.74 584.983C1285.36 588.604 1288.23 592.902 1290.19 597.633C1292.15 602.364 1293.16 607.434 1293.16 612.555L1292.95 1542.79Z" fill="#FAAF20"/>
<path d="M1244.62 591.586H739.696C718.946 591.586 702.125 608.407 702.125 629.157V1526.24C702.125 1546.99 718.946 1563.81 739.696 1563.81H1244.62C1265.37 1563.81 1282.19 1546.99 1282.19 1526.24V629.157C1282.19 608.407 1265.37 591.586 1244.62 591.586Z" fill="white"/>
<path d="M1249.39 1441.5C1249.39 1450.34 1245.88 1458.81 1239.64 1465.07C1233.4 1471.32 1224.92 1474.84 1216.09 1474.86H768.232C759.394 1474.84 750.922 1471.32 744.678 1465.07C738.433 1458.81 734.926 1450.34 734.926 1441.5V679.928C734.926 671.095 738.435 662.623 744.681 656.377C750.927 650.131 759.398 646.622 768.232 646.622H1216.09C1224.92 646.622 1233.39 650.131 1239.64 656.377C1245.88 662.623 1249.39 671.095 1249.39 679.928V1441.5Z" fill="#67C5CC"/>
<g style="mix-blend-mode:multiply">
<path d="M999.14 646.521H768.232C759.398 646.521 750.927 650.03 744.681 656.276C738.435 662.522 734.926 670.993 734.926 679.827V1441.4C734.926 1450.24 738.433 1458.71 744.678 1464.97C750.922 1471.22 759.394 1474.74 768.232 1474.75H999.14V646.521Z" fill="#D1D3D4"/>
</g>
<path d="M1063.72 1512.17C1063.72 1513.8 1063.41 1515.41 1062.79 1516.91C1062.18 1518.41 1061.27 1519.78 1060.12 1520.93C1058.98 1522.08 1057.61 1522.99 1056.11 1523.62C1054.61 1524.24 1053.01 1524.56 1051.38 1524.56H932.982C929.696 1524.56 926.545 1523.26 924.222 1520.93C921.899 1518.61 920.594 1515.46 920.594 1512.17C920.594 1510.55 920.915 1508.94 921.538 1507.44C922.161 1505.94 923.074 1504.58 924.225 1503.43C925.376 1502.28 926.742 1501.38 928.245 1500.76C929.748 1500.14 931.358 1499.83 932.982 1499.84H1051.38C1053 1499.84 1054.61 1500.15 1056.1 1500.77C1057.6 1501.39 1058.96 1502.3 1060.1 1503.45C1061.25 1504.59 1062.16 1505.95 1062.78 1507.45C1063.4 1508.95 1063.72 1510.55 1063.72 1512.17Z" fill="#37414D"/>
<path d="M1171.15 814.624H813.165C794.238 814.624 778.895 829.968 778.895 848.895V1331.78C778.895 1350.71 794.238 1366.05 813.165 1366.05H1171.15C1190.08 1366.05 1205.42 1350.71 1205.42 1331.78V848.895C1205.42 829.968 1190.08 814.624 1171.15 814.624Z" fill="white"/>
<path d="M1205.42 876.109V848.844C1205.41 839.764 1201.79 831.06 1195.37 824.644C1188.94 818.228 1180.23 814.624 1171.15 814.624H813.165C804.085 814.624 795.376 818.228 788.95 824.644C782.525 831.06 778.908 839.764 778.895 848.844V876.109H1205.42Z" fill="#1C4670"/>
<path d="M1176.84 933.226H807.477V948.458H1176.84V933.226Z" fill="#D1D3D4"/>
<path d="M1176.84 968.766H807.477V983.998H1176.84V968.766Z" fill="#D1D3D4"/>
<path d="M1176.84 1006.84H807.477V1022.08H1176.84V1006.84Z" fill="#D1D3D4"/>
<path d="M1176.84 1042.38H807.477V1057.62H1176.84V1042.38Z" fill="#D1D3D4"/>
<path d="M1176.84 1080.46H807.477V1095.69H1176.84V1080.46Z" fill="#D1D3D4"/>
<path d="M1176.84 1116H807.477V1131.23H1176.84V1116Z" fill="#D1D3D4"/>
<path d="M1176.84 1154.08H807.477V1169.31H1176.84V1154.08Z" fill="#D1D3D4"/>
<path d="M1176.84 1189.62H807.477V1204.85H1176.84V1189.62Z" fill="#D1D3D4"/>
<path d="M1176.84 1227.7H807.477V1242.93H1176.84V1227.7Z" fill="#D1D3D4"/>
<path d="M1176.84 1263.24H807.477V1278.47H1176.84V1263.24Z" fill="#D1D3D4"/>
<path d="M1094.99 829.5H1072.81C1070.17 829.5 1068.04 831.637 1068.04 834.273V856.46C1068.04 859.096 1070.17 861.233 1072.81 861.233H1094.99C1097.63 861.233 1099.77 859.096 1099.77 856.46V834.273C1099.77 831.637 1097.63 829.5 1094.99 829.5Z" fill="#D1D3D4"/>
<path d="M1134.34 829.5H1112.16C1109.52 829.5 1107.38 831.637 1107.38 834.273V856.46C1107.38 859.096 1109.52 861.233 1112.16 861.233H1134.34C1136.98 861.233 1139.11 859.096 1139.11 856.46V834.273C1139.11 831.637 1136.98 829.5 1134.34 829.5Z" fill="#D1D3D4"/>
<path d="M1172.07 829.5H1149.88C1147.25 829.5 1145.11 831.637 1145.11 834.273V856.46C1145.11 859.096 1147.25 861.233 1149.88 861.233H1172.07C1174.7 861.233 1176.84 859.096 1176.84 856.46V834.273C1176.84 831.637 1174.7 829.5 1172.07 829.5Z" fill="#D1D3D4"/>
<path d="M1797.98 1142.3H1150.59V1588.18H1797.98V1142.3Z" fill="white"/>
<path d="M1349.11 1254.91H1172.73V1500.55H1349.11V1254.91Z" fill="#7AD0E2"/>
<g style="mix-blend-mode:multiply">
<path d="M1250.2 1433.93C1220.3 1399.51 1201.72 1356.66 1188.31 1313.45C1182.76 1295.73 1178.75 1277.55 1176.33 1259.13L1175.87 1254.91H1172.93V1500.55H1349.26V1484.15C1311.79 1477.8 1275.44 1462.92 1250.2 1433.93Z" fill="#E6E7E8"/>
</g>
<path d="M1349.11 1366.66H1172.73V1388.8H1349.11V1366.66Z" fill="white"/>
<g style="mix-blend-mode:multiply">
<path d="M1349.11 1377.73H1172.73V1388.8H1349.11V1377.73Z" fill="#D1D3D4"/>
</g>
<path d="M1349.11 1232.83H1172.73V1254.96H1349.11V1232.83Z" fill="white"/>
<g style="mix-blend-mode:multiply">
<path d="M1349.11 1232.83H1172.73V1243.9H1349.11V1232.83Z" fill="#D1D3D4"/>
</g>
<path d="M1349.11 1500.55H1172.73V1522.68H1349.11V1500.55Z" fill="white"/>
<g style="mix-blend-mode:multiply">
<path d="M1349.11 1511.61H1172.73V1522.68H1349.11V1511.61Z" fill="#D1D3D4"/>
</g>
<path d="M1371.19 1232.83H1349.05V1522.78H1371.19V1232.83Z" fill="white"/>
<g style="mix-blend-mode:multiply">
<path d="M1371.19 1232.83H1360.12V1522.78H1371.19V1232.83Z" fill="#D1D3D4"/>
</g>
<path d="M1172.73 1232.83H1150.59V1522.78H1172.73V1232.83Z" fill="white"/>
<g style="mix-blend-mode:multiply">
<path d="M1161.66 1232.83H1150.59V1522.78H1161.66V1232.83Z" fill="#D1D3D4"/>
</g>
<path opacity="0.2" d="M1247.21 1302.33C1283.41 1317.57 1308.13 1348.03 1327.93 1380.52C1335.83 1393.35 1342.88 1406.68 1349.06 1420.43V1254.91H1172.93V1295.53C1197.75 1289.32 1223.93 1291.72 1247.21 1302.33Z" fill="white"/>
<path d="M1775.89 1254.91H1599.51V1500.55H1775.89V1254.91Z" fill="#7AD0E2"/>
<g style="mix-blend-mode:multiply">
<path d="M1677.04 1433.93C1647.14 1399.51 1628.5 1356.66 1615.1 1313.45C1609.56 1295.72 1605.57 1277.55 1603.17 1259.13C1603.17 1257.76 1602.81 1256.34 1602.66 1254.91H1599.41V1500.55H1775.79V1484.15C1738.63 1477.8 1702.22 1462.92 1677.04 1433.93Z" fill="#E6E7E8"/>
</g>
<path d="M1775.89 1366.66H1599.51V1388.8H1775.89V1366.66Z" fill="white"/>
<g style="mix-blend-mode:multiply">
<path d="M1775.89 1377.73H1599.51V1388.8H1775.89V1377.73Z" fill="#D1D3D4"/>
</g>
<path d="M1775.89 1232.83H1599.51V1254.96H1775.89V1232.83Z" fill="white"/>
<g style="mix-blend-mode:multiply">
<path d="M1775.89 1232.83H1599.51V1243.9H1775.89V1232.83Z" fill="#D1D3D4"/>
</g>
<path d="M1775.89 1500.55H1599.51V1522.68H1775.89V1500.55Z" fill="white"/>
<g style="mix-blend-mode:multiply">
<path d="M1775.89 1511.61H1599.51V1522.68H1775.89V1511.61Z" fill="#D1D3D4"/>
</g>
<path d="M1798.03 1232.83H1775.89V1522.78H1798.03V1232.83Z" fill="white"/>
<g style="mix-blend-mode:multiply">
<path d="M1798.03 1232.83H1786.96V1522.78H1798.03V1232.83Z" fill="#D1D3D4"/>
</g>
<path d="M1599.51 1232.83H1577.43V1522.78H1599.51V1232.83Z" fill="white"/>
<g style="mix-blend-mode:multiply">
<path d="M1588.49 1232.83H1577.43V1522.78H1588.49V1232.83Z" fill="#D1D3D4"/>
</g>
<path opacity="0.2" d="M1673.99 1302.33C1710.19 1317.57 1734.92 1348.03 1754.72 1380.52C1762.61 1393.37 1769.68 1406.69 1775.89 1420.43V1254.91H1599.41V1295.53C1624.32 1289.25 1650.63 1291.65 1673.99 1302.33Z" fill="white"/>
<path d="M1540.82 1262.22H1407.75V1561.12H1540.82V1262.22Z" fill="#7AD0E2"/>
<g style="mix-blend-mode:multiply">
<path d="M1466.23 1480.08C1443.64 1438.2 1429.63 1386.01 1419.53 1333.46C1415.31 1311.64 1412.31 1289.61 1410.54 1267.45C1410.54 1265.78 1410.28 1264.05 1410.13 1262.38H1407.75V1561.32H1540.82V1541.37C1524.79 1536.95 1509.86 1529.21 1497.02 1518.65C1484.17 1508.09 1473.68 1494.95 1466.23 1480.08Z" fill="#E6E7E8"/>
</g>
<path d="M1540.82 1398.24H1407.75V1425.15H1540.82V1398.24Z" fill="white"/>
<g style="mix-blend-mode:multiply">
<path d="M1540.82 1411.7H1407.75V1425.15H1540.82V1411.7Z" fill="#D1D3D4"/>
</g>
<path d="M1540.82 1235.32H1407.75V1262.23H1540.82V1235.32Z" fill="white"/>
<g style="mix-blend-mode:multiply">
<path d="M1540.82 1235.32H1407.75V1248.77H1540.82V1235.32Z" fill="#D1D3D4"/>
</g>
<path d="M1540.82 1561.17H1407.75V1588.08H1540.82V1561.17Z" fill="white"/>
<g style="mix-blend-mode:multiply">
<path d="M1540.82 1574.62H1407.75V1588.08H1540.82V1574.62Z" fill="#D1D3D4"/>
</g>
<path d="M1557.52 1235.32H1540.82V1588.18H1557.52V1235.32Z" fill="white"/>
<g style="mix-blend-mode:multiply">
<path d="M1557.52 1235.32H1549.2V1588.18H1557.52V1235.32Z" fill="#D1D3D4"/>
</g>
<path d="M1407.8 1235.32H1391.09V1588.18H1407.8V1235.32Z" fill="white"/>
<g style="mix-blend-mode:multiply">
<path d="M1399.42 1235.32H1391.09V1588.18H1399.42V1235.32Z" fill="#D1D3D4"/>
</g>
<path opacity="0.2" d="M1463.95 1319.95C1491.27 1338.43 1509.64 1375.29 1524.88 1415.1C1530.82 1430.84 1536.2 1447.03 1540.82 1463.69V1262.22H1407.75V1311.98C1425.92 1303.5 1445.67 1307.56 1463.95 1319.95Z" fill="white"/>
<path d="M1198.72 1067.82H1751.32L1860.58 1181.19H1086.72L1198.72 1067.82Z" fill="white"/>
<path d="M1646.12 1067.82H1714.35L1817.88 1181.19H1740.76L1646.12 1067.82Z" fill="#FAAF20"/>
<path d="M1306.66 1067.82H1238.37L1134.85 1181.19H1212.38L1306.66 1067.82Z" fill="#FAAF20"/>
<path d="M1418.82 1067.82H1350.53L1274.62 1181.19H1353.17L1418.82 1067.82Z" fill="#FAAF20"/>
<path d="M1537.88 1067.82H1606.11L1692.88 1181.19H1615.4L1537.88 1067.82Z" fill="#FAAF20"/>
<path d="M1450.04 1067.82H1509.39L1520.81 1181.19H1432.98L1450.04 1067.82Z" fill="#FAAF20"/>
<path d="M1212.38 1181.14H1274.47C1274.47 1181.14 1274.47 1197.34 1243.35 1199.07C1243.45 1199.07 1213.24 1200.39 1212.38 1181.14Z" fill="#BCBEC0"/>
<path d="M1353.02 1181.14H1432.12C1432.12 1181.14 1432.12 1199.83 1392.57 1202.47C1392.57 1202.47 1354.49 1202.47 1353.02 1181.14Z" fill="#BCBEC0"/>
<path d="M1086.62 1181.14H1134.65C1134.65 1181.14 1134.65 1197.64 1110.63 1198.86C1110.68 1198.86 1086.62 1200.23 1086.62 1181.14Z" fill="#BCBEC0"/>
<path d="M1134.85 1181.14H1212.18C1212.18 1181.14 1212.18 1199.83 1173.54 1202.47C1173.54 1202.47 1136.32 1202.47 1134.85 1181.14Z" fill="#BE1E2D"/>
<path d="M1274.47 1181.14H1353.68C1353.68 1181.14 1353.68 1199.83 1314.13 1202.47C1314.13 1202.47 1276.05 1202.47 1274.47 1181.14Z" fill="#BE1E2D"/>
<path d="M1434.1 1181.14H1524.47C1524.47 1181.14 1524.47 1199.83 1479.28 1202.47C1479.28 1202.47 1435.77 1202.47 1434.1 1181.14Z" fill="#BE1E2D"/>
<path d="M1615.35 1181.14H1692.93C1692.93 1181.14 1692.93 1199.83 1654.14 1202.47C1654.14 1202.47 1616.82 1202.47 1615.35 1181.14Z" fill="#BE1E2D"/>
<path d="M1740.66 1181.14H1817.73C1817.73 1181.14 1817.73 1199.83 1779.19 1202.47C1779.24 1202.47 1742.08 1202.47 1740.66 1181.14Z" fill="#BE1E2D"/>
<path d="M1520.82 1181.14H1615.2C1615.2 1181.14 1615.2 1199.83 1568.03 1202.47C1568.03 1202.47 1522.54 1202.47 1520.82 1181.14Z" fill="#BCBEC0"/>
<path d="M1692.83 1181.14H1740.6C1740.6 1181.14 1751.52 1201.05 1719.13 1202.21C1719.13 1202.21 1693.69 1202.47 1692.83 1181.14Z" fill="#BCBEC0"/>
<path d="M1817.73 1181.14H1860.42C1860.42 1181.14 1869.82 1202.21 1838.44 1202.47C1838.59 1202.47 1814.98 1205.06 1817.73 1181.14Z" fill="#BCBEC0"/>
<path d="M1751.32 1021.97H1192.38V1067.82H1751.32V1021.97Z" fill="#DD9C38"/>
<path d="M1391.09 1558.93H1148.3V1590.31H1391.09V1558.93Z" fill="#37414D"/>
<path d="M1798.03 1558.93H1557.52V1590.31H1798.03V1558.93Z" fill="#37414D"/>
<path d="M719.369 1396.89L652.809 1463.45L688.53 1499.17L755.09 1432.61L719.369 1396.89Z" fill="#00162B"/>
<path d="M981.775 1170.23C956.166 1144.61 923.535 1127.16 888.009 1120.09C852.483 1113.01 815.657 1116.64 782.189 1130.49C748.722 1144.35 720.116 1167.83 699.99 1197.94C679.864 1228.06 669.121 1263.47 669.121 1299.69C669.121 1335.92 679.864 1371.33 699.99 1401.45C720.116 1431.56 748.722 1455.04 782.189 1468.89C815.657 1482.75 852.483 1486.37 888.009 1479.3C923.535 1472.23 956.166 1454.78 981.775 1429.16C998.778 1412.16 1012.27 1391.98 1021.47 1369.76C1030.67 1347.55 1035.41 1323.74 1035.41 1299.69C1035.41 1275.65 1030.67 1251.84 1021.47 1229.63C1012.27 1207.41 998.778 1187.23 981.775 1170.23ZM751.019 1400.98C730.992 1380.95 717.355 1355.43 711.831 1327.65C706.308 1299.87 709.146 1271.07 719.988 1244.9C730.829 1218.73 749.187 1196.37 772.739 1180.63C796.292 1164.89 823.982 1156.49 852.308 1156.49C880.634 1156.49 908.323 1164.89 931.876 1180.63C955.429 1196.37 973.786 1218.73 984.628 1244.9C995.469 1271.07 998.308 1299.87 992.784 1327.65C987.261 1355.43 973.623 1380.95 953.597 1400.98C940.296 1414.29 924.506 1424.84 907.126 1432.04C889.747 1439.24 871.119 1442.95 852.308 1442.95C833.496 1442.95 814.868 1439.24 797.489 1432.04C780.11 1424.84 764.319 1414.29 751.019 1400.98Z" fill="#002A41"/>
<path d="M954.005 1401.44C933.973 1421.47 908.453 1435.1 880.67 1440.63C852.888 1446.15 824.092 1443.31 797.923 1432.47C771.754 1421.63 749.387 1403.27 733.651 1379.72C717.915 1356.17 709.516 1328.48 709.516 1300.15C709.516 1271.83 717.915 1244.14 733.651 1220.58C749.387 1197.03 771.754 1178.67 797.923 1167.83C824.092 1156.99 852.888 1154.15 880.67 1159.67C908.453 1165.2 933.973 1178.84 954.005 1198.86C980.86 1225.73 995.947 1262.16 995.947 1300.15C995.947 1338.14 980.86 1374.57 954.005 1401.44Z" fill="#7AD0E2"/>
<path d="M941.31 1378.14C924.666 1394.78 903.461 1406.11 880.376 1410.7C857.29 1415.3 833.362 1412.94 811.617 1403.93C789.871 1394.92 771.285 1379.67 758.208 1360.1C745.132 1340.53 738.152 1317.52 738.152 1293.98C738.152 1270.45 745.132 1247.44 758.208 1227.87C771.285 1208.3 789.871 1193.04 811.617 1184.03C833.362 1175.03 857.29 1172.67 880.376 1177.26C903.461 1181.85 924.666 1193.19 941.31 1209.83C963.617 1232.15 976.148 1262.42 976.148 1293.98C976.148 1325.54 963.617 1355.81 941.31 1378.14Z" fill="#A9DDE4"/>
<path d="M915.265 1318.28C904.297 1329.25 890.32 1336.73 875.102 1339.76C859.884 1342.8 844.109 1341.25 829.771 1335.31C815.434 1329.38 803.179 1319.32 794.557 1306.42C785.934 1293.52 781.332 1278.35 781.332 1262.83C781.332 1247.32 785.934 1232.15 794.557 1219.25C803.179 1206.35 815.434 1196.29 829.771 1190.36C844.109 1184.42 859.884 1182.87 875.102 1185.9C890.32 1188.94 904.297 1196.41 915.265 1207.39C922.548 1214.67 928.325 1223.31 932.266 1232.83C936.208 1242.34 938.237 1252.54 938.237 1262.83C938.237 1273.13 936.208 1283.33 932.266 1292.84C928.325 1302.35 922.548 1311 915.265 1318.28Z" fill="#E6F3E7"/>
<path d="M664.768 1427.6L486.09 1606.28L546.547 1666.73L725.225 1488.06L664.768 1427.6Z" fill="#FAAF20"/>
<g style="mix-blend-mode:multiply">
<path d="M664.768 1427.67L486.09 1606.35L516.318 1636.58L694.997 1457.9L664.768 1427.67Z" fill="#BCBEC0"/>
</g>
<g style="mix-blend-mode:multiply">
<path d="M750.611 1400.53C724.451 1373.53 709.954 1337.32 710.251 1299.73C710.547 1262.14 725.613 1226.17 752.196 1199.58C778.78 1173 814.749 1157.94 852.343 1157.64C889.936 1157.34 926.139 1171.84 953.138 1198L981.367 1169.77C946.796 1136.59 900.594 1118.27 852.676 1118.76C804.758 1119.25 758.941 1138.51 725.056 1172.39C691.171 1206.28 671.918 1252.1 671.428 1300.01C670.937 1347.93 689.249 1394.13 722.433 1428.7L750.611 1400.53Z" fill="#BCBEC0"/>
</g>
<path d="M1641.75 764.056H1344.28C1337.27 764.056 1331.59 769.739 1331.59 776.749V972.066C1331.59 979.077 1337.27 984.759 1344.28 984.759H1641.75C1648.76 984.759 1654.45 979.077 1654.45 972.066V776.749C1654.45 769.739 1648.76 764.056 1641.75 764.056Z" fill="#FBB040"/>
<path d="M1654.44 776.749C1654.44 773.383 1653.11 770.154 1650.73 767.774C1648.35 765.393 1645.12 764.056 1641.75 764.056H1344.28C1340.92 764.056 1337.69 765.393 1335.31 767.774C1332.93 770.154 1331.59 773.383 1331.59 776.749L1492.79 874.433L1654.44 776.749Z" fill="#DD9C38"/>
<path d="M1331.59 972.066C1331.58 973.735 1331.91 975.389 1332.54 976.932C1333.18 978.475 1334.11 979.877 1335.29 981.057C1336.47 982.237 1337.87 983.171 1339.42 983.807C1340.96 984.442 1342.61 984.766 1344.28 984.759H1641.75C1643.42 984.766 1645.07 984.442 1646.62 983.807C1648.16 983.171 1649.56 982.237 1650.74 981.057C1651.92 979.877 1652.86 978.475 1653.49 976.932C1654.13 975.389 1654.45 973.735 1654.45 972.066L1492.79 874.433L1331.59 972.066Z" fill="#CB8F33"/>
<path d="M2208 1186C2208 1748.23 1752.23 2204 1190 2204C627.774 2204 172 1748.23 172 1186C172 623.774 627.774 168 1190 168C1752.23 168 2208 623.774 2208 1186Z" stroke="#F7A73C" stroke-width="14"/>
</svg>
