<svg width="2372" height="2372" viewBox="0 0 2372 2372" fill="none" xmlns="http://www.w3.org/2000/svg">
<path d="M1186 2372C1841.01 2372 2372 1841.01 2372 1186C2372 530.991 1841.01 0.000244141 1186 0.000244141C530.99 0.000244141 0 530.991 0 1186C0 1841.01 530.99 2372 1186 2372Z" fill="white"/>
<path d="M1186 2264C1781.36 2264 2264 1781.36 2264 1186C2264 590.637 1781.36 108 1186 108C590.637 108 108 590.637 108 1186C108 1781.36 590.637 2264 1186 2264Z" fill="#30486E"/>
<rect x="733" y="1075" width="69" height="393" fill="white"/>
<rect x="1636" y="1075" width="70" height="393" fill="white"/>
<rect x="1341" y="1075" width="78" height="393" fill="white"/>
<rect x="1034" y="1075" width="71" height="393" fill="white"/>
<path d="M1199.34 438.058C1209.12 430.39 1222.88 430.39 1232.66 438.058L1857.66 928.001C1877.85 943.829 1866.66 976.25 1841.01 976.25H590.995C565.338 976.25 554.146 943.829 574.337 928.001L1199.34 438.058Z" fill="white"/>
<rect x="573" y="1594" width="1286" height="154" rx="77" fill="white"/>
<rect x="657" y="1468" width="1118" height="97" rx="48.5" fill="white"/>
<rect x="657" y="1006" width="1118" height="69" rx="34.5" fill="white"/>
<path d="M2208 1186C2208 1748.23 1752.23 2204 1190 2204C627.774 2204 172 1748.23 172 1186C172 623.774 627.774 168 1190 168C1752.23 168 2208 623.774 2208 1186Z" stroke="#F7A73C" stroke-width="14"/>
</svg>
