<svg width="1016" height="1557" viewBox="0 0 1016 1557" fill="none" xmlns="http://www.w3.org/2000/svg">
<rect width="1016" height="1557" fill="white"/>
<g filter="url(#filter0_d_460_6596)">
<rect x="216" y="99" width="585" height="102" rx="18" fill="white"/>
</g>
<path d="M395.168 130.992V135H381.586V130.992H395.168ZM383.126 107.984V135H378.023V107.984H383.126ZM403.406 114.924V135H398.489V114.924H403.406ZM398.155 109.673C398.155 108.943 398.403 108.337 398.897 107.854C399.405 107.372 400.085 107.131 400.938 107.131C401.792 107.131 402.466 107.372 402.961 107.854C403.468 108.337 403.722 108.943 403.722 109.673C403.722 110.39 403.468 110.99 402.961 111.473C402.466 111.955 401.792 112.196 400.938 112.196C400.085 112.196 399.405 111.955 398.897 111.473C398.403 110.99 398.155 110.39 398.155 109.673ZM419.122 129.508C419.122 129.087 419.011 128.71 418.788 128.376C418.565 128.042 418.145 127.739 417.526 127.467C416.92 127.182 416.03 126.916 414.854 126.669C413.815 126.446 412.857 126.168 411.979 125.834C411.1 125.5 410.346 125.098 409.715 124.628C409.084 124.146 408.589 123.583 408.23 122.939C407.884 122.284 407.711 121.529 407.711 120.676C407.711 119.847 407.89 119.068 408.249 118.338C408.608 117.596 409.127 116.946 409.808 116.39C410.488 115.821 411.317 115.375 412.294 115.054C413.271 114.72 414.372 114.553 415.597 114.553C417.304 114.553 418.77 114.831 419.994 115.388C421.231 115.944 422.177 116.711 422.833 117.688C423.489 118.653 423.816 119.742 423.816 120.954H418.918C418.918 120.422 418.794 119.94 418.547 119.507C418.312 119.074 417.947 118.728 417.452 118.468C416.957 118.196 416.333 118.06 415.578 118.06C414.898 118.06 414.323 118.171 413.853 118.394C413.395 118.616 413.049 118.907 412.813 119.266C412.578 119.624 412.461 120.02 412.461 120.453C412.461 120.775 412.523 121.065 412.646 121.325C412.783 121.573 412.999 121.801 413.296 122.012C413.593 122.222 413.995 122.414 414.502 122.587C415.021 122.76 415.659 122.927 416.413 123.088C417.91 123.385 419.215 123.781 420.328 124.275C421.454 124.758 422.332 125.401 422.963 126.205C423.594 127.009 423.909 128.036 423.909 129.285C423.909 130.176 423.717 130.992 423.334 131.734C422.951 132.464 422.394 133.101 421.664 133.646C420.934 134.19 420.062 134.617 419.048 134.926C418.034 135.223 416.889 135.371 415.615 135.371C413.772 135.371 412.214 135.043 410.939 134.388C409.665 133.72 408.701 132.879 408.045 131.864C407.389 130.838 407.062 129.774 407.062 128.673H411.756C411.793 129.452 412.003 130.077 412.387 130.547C412.77 131.017 413.253 131.357 413.834 131.567C414.428 131.765 415.052 131.864 415.708 131.864C416.45 131.864 417.075 131.765 417.582 131.567C418.089 131.357 418.473 131.079 418.732 130.732C418.992 130.374 419.122 129.965 419.122 129.508ZM437.139 114.924V118.449H425.635V114.924H437.139ZM428.715 109.988H433.632V129.211C433.632 129.805 433.712 130.262 433.873 130.584C434.034 130.906 434.275 131.122 434.597 131.233C434.918 131.345 435.302 131.4 435.747 131.4C436.069 131.4 436.366 131.382 436.638 131.345C436.91 131.308 437.139 131.271 437.324 131.233L437.343 134.907C436.935 135.043 436.471 135.155 435.951 135.241C435.444 135.328 434.869 135.371 434.226 135.371C433.125 135.371 432.16 135.186 431.331 134.814C430.502 134.431 429.859 133.819 429.401 132.978C428.944 132.124 428.715 130.998 428.715 129.601V109.988ZM448.995 125.166V124.776C448.995 123.304 449.205 121.95 449.626 120.713C450.047 119.464 450.659 118.381 451.463 117.466C452.267 116.55 453.25 115.839 454.413 115.332C455.576 114.812 456.899 114.553 458.384 114.553C459.893 114.553 461.229 114.812 462.392 115.332C463.567 115.839 464.556 116.55 465.36 117.466C466.164 118.381 466.777 119.464 467.197 120.713C467.618 121.95 467.828 123.304 467.828 124.776V125.166C467.828 126.626 467.618 127.98 467.197 129.229C466.777 130.466 466.164 131.549 465.36 132.477C464.556 133.392 463.573 134.103 462.41 134.61C461.247 135.118 459.918 135.371 458.421 135.371C456.937 135.371 455.607 135.118 454.432 134.61C453.257 134.103 452.267 133.392 451.463 132.477C450.659 131.549 450.047 130.466 449.626 129.229C449.205 127.98 448.995 126.626 448.995 125.166ZM453.894 124.776V125.166C453.894 126.044 453.98 126.867 454.153 127.634C454.326 128.401 454.592 129.075 454.951 129.656C455.31 130.238 455.774 130.695 456.343 131.029C456.924 131.351 457.617 131.512 458.421 131.512C459.213 131.512 459.893 131.351 460.462 131.029C461.031 130.695 461.495 130.238 461.854 129.656C462.225 129.075 462.497 128.401 462.67 127.634C462.843 126.867 462.93 126.044 462.93 125.166V124.776C462.93 123.91 462.843 123.1 462.67 122.346C462.497 121.579 462.225 120.905 461.854 120.323C461.495 119.729 461.025 119.266 460.443 118.932C459.874 118.585 459.188 118.412 458.384 118.412C457.592 118.412 456.912 118.585 456.343 118.932C455.774 119.266 455.31 119.729 454.951 120.323C454.592 120.905 454.326 121.579 454.153 122.346C453.98 123.1 453.894 123.91 453.894 124.776ZM477.811 135H472.875V113.068C472.875 111.559 473.166 110.291 473.747 109.265C474.328 108.226 475.157 107.44 476.233 106.908C477.31 106.376 478.577 106.11 480.037 106.11C480.52 106.11 480.977 106.141 481.41 106.203C481.855 106.265 482.295 106.352 482.728 106.463L482.635 110.192C482.4 110.131 482.14 110.087 481.855 110.062C481.583 110.038 481.28 110.025 480.946 110.025C480.278 110.025 479.709 110.143 479.239 110.378C478.769 110.613 478.41 110.959 478.163 111.417C477.928 111.862 477.811 112.413 477.811 113.068V135ZM481.874 114.924V118.449H469.851V114.924H481.874ZM502.804 135H496.978L497.015 130.992H502.804C504.375 130.992 505.692 130.646 506.756 129.953C507.82 129.248 508.624 128.24 509.168 126.929C509.712 125.605 509.984 124.022 509.984 122.179V120.787C509.984 119.365 509.83 118.109 509.521 117.021C509.211 115.932 508.754 115.017 508.147 114.274C507.554 113.532 506.818 112.969 505.939 112.586C505.061 112.202 504.053 112.011 502.915 112.011H496.866V107.984H502.915C504.721 107.984 506.366 108.287 507.851 108.894C509.347 109.5 510.64 110.372 511.729 111.51C512.829 112.635 513.671 113.984 514.252 115.555C514.846 117.126 515.143 118.882 515.143 120.824V122.179C515.143 124.108 514.846 125.865 514.252 127.448C513.671 129.019 512.829 130.368 511.729 131.493C510.64 132.619 509.341 133.485 507.832 134.091C506.323 134.697 504.647 135 502.804 135ZM499.835 107.984V135H494.732V107.984H499.835ZM524.309 114.924V135H519.392V114.924H524.309ZM519.058 109.673C519.058 108.943 519.305 108.337 519.8 107.854C520.307 107.372 520.987 107.131 521.841 107.131C522.694 107.131 523.368 107.372 523.863 107.854C524.37 108.337 524.624 108.943 524.624 109.673C524.624 110.39 524.37 110.99 523.863 111.473C523.368 111.955 522.694 112.196 521.841 112.196C520.987 112.196 520.307 111.955 519.8 111.473C519.305 110.99 519.058 110.39 519.058 109.673ZM535.404 135H530.469V113.068C530.469 111.559 530.759 110.291 531.341 109.265C531.922 108.226 532.751 107.44 533.827 106.908C534.903 106.376 536.171 106.11 537.631 106.11C538.113 106.11 538.571 106.141 539.004 106.203C539.449 106.265 539.888 106.352 540.321 106.463L540.229 110.192C539.993 110.131 539.734 110.087 539.449 110.062C539.177 110.038 538.874 110.025 538.54 110.025C537.872 110.025 537.303 110.143 536.833 110.378C536.363 110.613 536.004 110.959 535.757 111.417C535.522 111.862 535.404 112.413 535.404 113.068V135ZM539.468 114.924V118.449H527.444V114.924H539.468ZM548.912 135H543.977V113.068C543.977 111.559 544.267 110.291 544.849 109.265C545.43 108.226 546.259 107.44 547.335 106.908C548.411 106.376 549.679 106.11 551.139 106.11C551.621 106.11 552.079 106.141 552.512 106.203C552.957 106.265 553.396 106.352 553.829 106.463L553.736 110.192C553.501 110.131 553.242 110.087 552.957 110.062C552.685 110.038 552.382 110.025 552.048 110.025C551.38 110.025 550.811 110.143 550.341 110.378C549.871 110.613 549.512 110.959 549.265 111.417C549.03 111.862 548.912 112.413 548.912 113.068V135ZM552.976 114.924V118.449H540.952V114.924H552.976ZM564.572 135.371C563.051 135.371 561.684 135.124 560.472 134.629C559.259 134.134 558.227 133.448 557.373 132.569C556.532 131.679 555.882 130.646 555.425 129.471C554.979 128.283 554.757 127.009 554.757 125.648V124.906C554.757 123.36 554.979 121.956 555.425 120.694C555.87 119.42 556.501 118.326 557.317 117.41C558.134 116.495 559.111 115.79 560.249 115.295C561.387 114.8 562.643 114.553 564.016 114.553C565.438 114.553 566.694 114.794 567.782 115.276C568.871 115.746 569.78 116.414 570.51 117.28C571.24 118.146 571.79 119.185 572.161 120.397C572.532 121.597 572.718 122.927 572.718 124.387V126.446H556.983V123.069H567.894V122.698C567.869 121.919 567.72 121.208 567.448 120.564C567.176 119.909 566.756 119.389 566.187 119.006C565.618 118.61 564.882 118.412 563.979 118.412C563.249 118.412 562.612 118.573 562.067 118.895C561.535 119.204 561.09 119.649 560.731 120.23C560.385 120.799 560.125 121.48 559.952 122.271C559.779 123.063 559.692 123.941 559.692 124.906V125.648C559.692 126.49 559.804 127.269 560.026 127.986C560.261 128.704 560.602 129.328 561.047 129.86C561.505 130.38 562.049 130.788 562.68 131.085C563.323 131.369 564.053 131.512 564.869 131.512C565.896 131.512 566.824 131.314 567.652 130.918C568.493 130.51 569.223 129.91 569.842 129.118L572.31 131.679C571.889 132.297 571.32 132.891 570.603 133.46C569.897 134.029 569.044 134.493 568.042 134.852C567.04 135.198 565.883 135.371 564.572 135.371ZM580.9 119.024V135H576.002V114.924H580.641L580.9 119.024ZM587.005 114.794L586.931 119.358C586.659 119.309 586.349 119.272 586.003 119.247C585.669 119.222 585.354 119.21 585.057 119.21C584.302 119.21 583.64 119.315 583.071 119.525C582.502 119.723 582.026 120.014 581.643 120.397C581.271 120.781 580.987 121.251 580.789 121.808C580.591 122.352 580.48 122.97 580.455 123.663L579.397 123.533C579.397 122.259 579.527 121.078 579.787 119.989C580.047 118.901 580.424 117.948 580.919 117.132C581.414 116.315 582.032 115.685 582.774 115.239C583.529 114.782 584.395 114.553 585.372 114.553C585.644 114.553 585.935 114.577 586.244 114.627C586.566 114.664 586.819 114.72 587.005 114.794ZM598.342 135.371C596.82 135.371 595.453 135.124 594.241 134.629C593.029 134.134 591.996 133.448 591.143 132.569C590.301 131.679 589.652 130.646 589.194 129.471C588.749 128.283 588.526 127.009 588.526 125.648V124.906C588.526 123.36 588.749 121.956 589.194 120.694C589.64 119.42 590.271 118.326 591.087 117.41C591.903 116.495 592.881 115.79 594.019 115.295C595.157 114.8 596.412 114.553 597.785 114.553C599.208 114.553 600.463 114.794 601.552 115.276C602.64 115.746 603.549 116.414 604.279 117.28C605.009 118.146 605.56 119.185 605.931 120.397C606.302 121.597 606.487 122.927 606.487 124.387V126.446H590.753V123.069H601.663V122.698C601.638 121.919 601.49 121.208 601.218 120.564C600.946 119.909 600.525 119.389 599.956 119.006C599.387 118.61 598.651 118.412 597.748 118.412C597.018 118.412 596.381 118.573 595.837 118.895C595.305 119.204 594.86 119.649 594.501 120.23C594.155 120.799 593.895 121.48 593.722 122.271C593.549 123.063 593.462 123.941 593.462 124.906V125.648C593.462 126.49 593.573 127.269 593.796 127.986C594.031 128.704 594.371 129.328 594.816 129.86C595.274 130.38 595.818 130.788 596.449 131.085C597.092 131.369 597.822 131.512 598.639 131.512C599.665 131.512 600.593 131.314 601.422 130.918C602.263 130.51 602.993 129.91 603.611 129.118L606.079 131.679C605.659 132.297 605.09 132.891 604.372 133.46C603.667 134.029 602.813 134.493 601.812 134.852C600.81 135.198 599.653 135.371 598.342 135.371ZM614.577 119.21V135H609.679V114.924H614.28L614.577 119.21ZM613.798 124.238H612.351C612.363 122.779 612.561 121.455 612.944 120.268C613.328 119.08 613.866 118.06 614.559 117.206C615.264 116.353 616.099 115.697 617.063 115.239C618.028 114.782 619.104 114.553 620.292 114.553C621.257 114.553 622.129 114.689 622.908 114.961C623.688 115.233 624.355 115.666 624.912 116.26C625.481 116.854 625.914 117.633 626.211 118.598C626.52 119.55 626.675 120.725 626.675 122.123V135H621.739V122.086C621.739 121.171 621.603 120.447 621.331 119.915C621.071 119.383 620.688 119.006 620.181 118.783C619.686 118.561 619.074 118.449 618.344 118.449C617.589 118.449 616.927 118.604 616.358 118.913C615.802 119.21 615.332 119.624 614.948 120.156C614.577 120.688 614.293 121.3 614.095 121.993C613.897 122.686 613.798 123.434 613.798 124.238ZM640.498 114.924V118.449H628.994V114.924H640.498ZM632.074 109.988H636.991V129.211C636.991 129.805 637.072 130.262 637.232 130.584C637.393 130.906 637.634 131.122 637.956 131.233C638.278 131.345 638.661 131.4 639.106 131.4C639.428 131.4 639.725 131.382 639.997 131.345C640.269 131.308 640.498 131.271 640.684 131.233L640.702 134.907C640.294 135.043 639.83 135.155 639.311 135.241C638.803 135.328 638.228 135.371 637.585 135.371C636.484 135.371 635.519 135.186 634.69 134.814C633.862 134.431 633.218 133.819 632.761 132.978C632.303 132.124 632.074 130.998 632.074 129.601V109.988ZM622.593 152.924V173H617.676V152.924H622.593ZM617.342 147.673C617.342 146.943 617.589 146.337 618.084 145.854C618.591 145.372 619.271 145.131 620.125 145.131C620.979 145.131 621.653 145.372 622.147 145.854C622.655 146.337 622.908 146.943 622.908 147.673C622.908 148.39 622.655 148.99 622.147 149.473C621.653 149.955 620.979 150.196 620.125 150.196C619.271 150.196 618.591 149.955 618.084 149.473C617.589 148.99 617.342 148.39 617.342 147.673ZM632.074 157.21V173H627.176V152.924H631.777L632.074 157.21ZM631.295 162.238H629.848C629.86 160.779 630.058 159.455 630.441 158.268C630.825 157.08 631.363 156.06 632.056 155.206C632.761 154.353 633.596 153.697 634.561 153.239C635.525 152.782 636.602 152.553 637.789 152.553C638.754 152.553 639.626 152.689 640.405 152.961C641.185 153.233 641.853 153.666 642.409 154.26C642.978 154.854 643.411 155.633 643.708 156.598C644.017 157.55 644.172 158.725 644.172 160.123V173H639.236V160.086C639.236 159.171 639.1 158.447 638.828 157.915C638.568 157.383 638.185 157.006 637.678 156.783C637.183 156.561 636.571 156.449 635.841 156.449C635.086 156.449 634.424 156.604 633.855 156.913C633.299 157.21 632.829 157.624 632.445 158.156C632.074 158.688 631.79 159.3 631.592 159.993C631.394 160.686 631.295 161.434 631.295 162.238ZM663.766 145.984V173H658.663V145.984H663.766ZM673.711 157.21V173H668.812V152.924H673.414L673.711 157.21ZM672.932 162.238H671.484C671.497 160.779 671.695 159.455 672.078 158.268C672.462 157.08 673 156.06 673.692 155.206C674.397 154.353 675.232 153.697 676.197 153.239C677.162 152.782 678.238 152.553 679.426 152.553C680.391 152.553 681.263 152.689 682.042 152.961C682.821 153.233 683.489 153.666 684.046 154.26C684.615 154.854 685.048 155.633 685.345 156.598C685.654 157.55 685.809 158.725 685.809 160.123V173H680.873V160.086C680.873 159.171 680.737 158.447 680.465 157.915C680.205 157.383 679.822 157.006 679.314 156.783C678.82 156.561 678.207 156.449 677.478 156.449C676.723 156.449 676.061 156.604 675.492 156.913C674.936 157.21 674.465 157.624 674.082 158.156C673.711 158.688 673.426 159.3 673.229 159.993C673.031 160.686 672.932 161.434 672.932 162.238ZM702.174 168.732V144.5H707.109V173H702.656L702.174 168.732ZM689.278 163.203V162.813C689.278 161.28 689.451 159.888 689.798 158.639C690.157 157.377 690.676 156.295 691.356 155.392C692.037 154.489 692.859 153.79 693.824 153.295C694.801 152.8 695.909 152.553 697.146 152.553C698.345 152.553 699.391 152.794 700.281 153.276C701.184 153.759 701.951 154.445 702.582 155.336C703.225 156.227 703.739 157.284 704.122 158.509C704.506 159.721 704.784 161.057 704.957 162.517V163.574C704.784 164.997 704.506 166.302 704.122 167.489C703.739 168.677 703.225 169.716 702.582 170.606C701.951 171.485 701.184 172.165 700.281 172.647C699.378 173.13 698.321 173.371 697.108 173.371C695.884 173.371 694.783 173.118 693.806 172.61C692.841 172.103 692.018 171.392 691.338 170.477C690.67 169.561 690.157 168.485 689.798 167.248C689.451 166.011 689.278 164.663 689.278 163.203ZM694.195 162.813V163.203C694.195 164.069 694.27 164.879 694.418 165.634C694.566 166.388 694.808 167.056 695.142 167.638C695.476 168.207 695.902 168.652 696.422 168.974C696.954 169.295 697.597 169.456 698.352 169.456C699.316 169.456 700.108 169.246 700.727 168.825C701.357 168.392 701.846 167.805 702.192 167.062C702.539 166.308 702.761 165.461 702.86 164.521V161.607C702.811 160.865 702.681 160.179 702.471 159.548C702.273 158.917 701.988 158.373 701.617 157.915C701.258 157.457 700.813 157.099 700.281 156.839C699.749 156.579 699.118 156.449 698.389 156.449C697.634 156.449 696.991 156.616 696.459 156.95C695.927 157.272 695.494 157.723 695.16 158.305C694.826 158.886 694.579 159.56 694.418 160.327C694.27 161.094 694.195 161.923 694.195 162.813ZM716.739 152.924V173H711.822V152.924H716.739ZM711.488 147.673C711.488 146.943 711.736 146.337 712.23 145.854C712.738 145.372 713.418 145.131 714.271 145.131C715.125 145.131 715.799 145.372 716.294 145.854C716.801 146.337 717.055 146.943 717.055 147.673C717.055 148.39 716.801 148.99 716.294 149.473C715.799 149.955 715.125 150.196 714.271 150.196C713.418 150.196 712.738 149.955 712.23 149.473C711.736 148.99 711.488 148.39 711.488 147.673ZM732.474 168.732V159.474C732.474 158.793 732.356 158.206 732.121 157.711C731.886 157.216 731.527 156.833 731.045 156.561C730.562 156.288 729.95 156.152 729.208 156.152C728.552 156.152 727.977 156.264 727.482 156.486C727 156.709 726.629 157.024 726.369 157.433C726.109 157.828 725.979 158.286 725.979 158.806H721.062C721.062 157.977 721.26 157.191 721.656 156.449C722.052 155.695 722.615 155.027 723.345 154.445C724.087 153.852 724.971 153.388 725.998 153.054C727.037 152.72 728.2 152.553 729.486 152.553C731.008 152.553 732.362 152.812 733.55 153.332C734.75 153.839 735.69 154.606 736.37 155.633C737.063 156.66 737.409 157.952 737.409 159.511V168.269C737.409 169.271 737.471 170.13 737.595 170.848C737.731 171.553 737.929 172.165 738.188 172.685V173H733.197C732.962 172.493 732.783 171.85 732.659 171.07C732.535 170.279 732.474 169.499 732.474 168.732ZM733.16 160.772L733.197 163.686H730.099C729.332 163.686 728.658 163.766 728.076 163.927C727.495 164.075 727.019 164.298 726.647 164.595C726.276 164.879 725.998 165.226 725.812 165.634C725.627 166.03 725.534 166.481 725.534 166.988C725.534 167.483 725.646 167.928 725.868 168.324C726.103 168.72 726.437 169.035 726.87 169.271C727.315 169.493 727.835 169.604 728.429 169.604C729.295 169.604 730.049 169.431 730.692 169.085C731.336 168.726 731.837 168.293 732.195 167.786C732.554 167.279 732.746 166.797 732.771 166.339L734.181 168.454C734.007 168.961 733.748 169.499 733.401 170.068C733.055 170.637 732.61 171.169 732.065 171.664C731.521 172.159 730.866 172.567 730.099 172.889C729.332 173.21 728.441 173.371 727.427 173.371C726.128 173.371 724.965 173.111 723.938 172.592C722.912 172.072 722.102 171.361 721.508 170.458C720.914 169.555 720.617 168.528 720.617 167.378C720.617 166.314 720.815 165.374 721.211 164.558C721.607 163.741 722.194 163.055 722.974 162.498C723.753 161.929 724.718 161.502 725.868 161.218C727.031 160.921 728.361 160.772 729.857 160.772H733.16Z" fill="#001B78"/>
<path d="M291.559 145.984V173H286.475V145.984H291.559ZM299.945 145.984V150.011H278.181V145.984H299.945ZM306.569 157.024V173H301.671V152.924H306.31L306.569 157.024ZM312.674 152.794L312.6 157.358C312.327 157.309 312.018 157.272 311.672 157.247C311.338 157.222 311.022 157.21 310.726 157.21C309.971 157.21 309.309 157.315 308.74 157.525C308.171 157.723 307.695 158.014 307.312 158.397C306.94 158.781 306.656 159.251 306.458 159.808C306.26 160.352 306.149 160.97 306.124 161.663L305.066 161.533C305.066 160.259 305.196 159.078 305.456 157.989C305.716 156.901 306.093 155.948 306.588 155.132C307.083 154.315 307.701 153.685 308.443 153.239C309.198 152.782 310.064 152.553 311.041 152.553C311.313 152.553 311.604 152.577 311.913 152.627C312.235 152.664 312.488 152.72 312.674 152.794ZM325.792 168.732V159.474C325.792 158.793 325.674 158.206 325.439 157.711C325.204 157.216 324.846 156.833 324.363 156.561C323.881 156.288 323.269 156.152 322.526 156.152C321.871 156.152 321.296 156.264 320.801 156.486C320.318 156.709 319.947 157.024 319.688 157.433C319.428 157.828 319.298 158.286 319.298 158.806H314.381C314.381 157.977 314.579 157.191 314.975 156.449C315.37 155.695 315.933 155.027 316.663 154.445C317.405 153.852 318.29 153.388 319.316 153.054C320.355 152.72 321.518 152.553 322.805 152.553C324.326 152.553 325.681 152.812 326.868 153.332C328.068 153.839 329.008 154.606 329.688 155.633C330.381 156.66 330.728 157.952 330.728 159.511V168.269C330.728 169.271 330.789 170.13 330.913 170.848C331.049 171.553 331.247 172.165 331.507 172.685V173H326.516C326.281 172.493 326.101 171.85 325.978 171.07C325.854 170.279 325.792 169.499 325.792 168.732ZM326.479 160.772L326.516 163.686H323.417C322.65 163.686 321.976 163.766 321.395 163.927C320.813 164.075 320.337 164.298 319.966 164.595C319.595 164.879 319.316 165.226 319.131 165.634C318.945 166.03 318.853 166.481 318.853 166.988C318.853 167.483 318.964 167.928 319.187 168.324C319.422 168.72 319.756 169.035 320.188 169.271C320.634 169.493 321.153 169.604 321.747 169.604C322.613 169.604 323.368 169.431 324.011 169.085C324.654 168.726 325.155 168.293 325.514 167.786C325.872 167.279 326.064 166.797 326.089 166.339L327.499 168.454C327.326 168.961 327.066 169.499 326.72 170.068C326.373 170.637 325.928 171.169 325.384 171.664C324.84 172.159 324.184 172.567 323.417 172.889C322.65 173.21 321.759 173.371 320.745 173.371C319.446 173.371 318.284 173.111 317.257 172.592C316.23 172.072 315.42 171.361 314.826 170.458C314.232 169.555 313.936 168.528 313.936 167.378C313.936 166.314 314.133 165.374 314.529 164.558C314.925 163.741 315.513 163.055 316.292 162.498C317.071 161.929 318.036 161.502 319.187 161.218C320.349 160.921 321.679 160.772 323.176 160.772H326.479ZM347.186 168.732V144.5H352.121V173H347.668L347.186 168.732ZM334.29 163.203V162.813C334.29 161.28 334.463 159.888 334.81 158.639C335.168 157.377 335.688 156.295 336.368 155.392C337.049 154.489 337.871 153.79 338.836 153.295C339.813 152.8 340.92 152.553 342.157 152.553C343.357 152.553 344.402 152.794 345.293 153.276C346.196 153.759 346.963 154.445 347.594 155.336C348.237 156.227 348.75 157.284 349.134 158.509C349.517 159.721 349.796 161.057 349.969 162.517V163.574C349.796 164.997 349.517 166.302 349.134 167.489C348.75 168.677 348.237 169.716 347.594 170.606C346.963 171.485 346.196 172.165 345.293 172.647C344.39 173.13 343.332 173.371 342.12 173.371C340.896 173.371 339.795 173.118 338.817 172.61C337.853 172.103 337.03 171.392 336.35 170.477C335.682 169.561 335.168 168.485 334.81 167.248C334.463 166.011 334.29 164.663 334.29 163.203ZM339.207 162.813V163.203C339.207 164.069 339.281 164.879 339.43 165.634C339.578 166.388 339.819 167.056 340.153 167.638C340.487 168.207 340.914 168.652 341.434 168.974C341.965 169.295 342.609 169.456 343.363 169.456C344.328 169.456 345.12 169.246 345.738 168.825C346.369 168.392 346.858 167.805 347.204 167.062C347.55 166.308 347.773 165.461 347.872 164.521V161.607C347.823 160.865 347.693 160.179 347.482 159.548C347.285 158.917 347 158.373 346.629 157.915C346.27 157.457 345.825 157.099 345.293 156.839C344.761 156.579 344.13 156.449 343.4 156.449C342.646 156.449 342.003 156.616 341.471 156.95C340.939 157.272 340.506 157.723 340.172 158.305C339.838 158.886 339.59 159.56 339.43 160.327C339.281 161.094 339.207 161.923 339.207 162.813ZM365.573 173.371C364.052 173.371 362.685 173.124 361.473 172.629C360.26 172.134 359.228 171.448 358.374 170.569C357.533 169.679 356.883 168.646 356.426 167.471C355.98 166.283 355.758 165.009 355.758 163.648V162.906C355.758 161.36 355.98 159.956 356.426 158.694C356.871 157.42 357.502 156.326 358.318 155.41C359.135 154.495 360.112 153.79 361.25 153.295C362.388 152.8 363.644 152.553 365.017 152.553C366.439 152.553 367.695 152.794 368.783 153.276C369.872 153.746 370.781 154.414 371.511 155.28C372.241 156.146 372.791 157.185 373.162 158.397C373.533 159.597 373.719 160.927 373.719 162.387V164.446H357.984V161.069H368.895V160.698C368.87 159.919 368.721 159.208 368.449 158.564C368.177 157.909 367.757 157.389 367.188 157.006C366.618 156.61 365.882 156.412 364.979 156.412C364.25 156.412 363.613 156.573 363.068 156.895C362.536 157.204 362.091 157.649 361.732 158.23C361.386 158.799 361.126 159.48 360.953 160.271C360.78 161.063 360.693 161.941 360.693 162.906V163.648C360.693 164.49 360.805 165.269 361.027 165.986C361.262 166.704 361.603 167.328 362.048 167.86C362.506 168.38 363.05 168.788 363.681 169.085C364.324 169.369 365.054 169.512 365.87 169.512C366.897 169.512 367.825 169.314 368.653 168.918C369.494 168.51 370.224 167.91 370.843 167.118L373.311 169.679C372.89 170.297 372.321 170.891 371.604 171.46C370.898 172.029 370.045 172.493 369.043 172.852C368.041 173.198 366.884 173.371 365.573 173.371ZM381.883 157.043V173H376.984V152.924H381.604L381.883 157.043ZM381.159 162.238H379.656C379.656 160.84 379.823 159.554 380.157 158.379C380.504 157.204 381.011 156.183 381.679 155.317C382.347 154.439 383.169 153.759 384.146 153.276C385.136 152.794 386.28 152.553 387.579 152.553C388.482 152.553 389.311 152.689 390.065 152.961C390.82 153.221 391.469 153.635 392.014 154.204C392.57 154.761 392.997 155.491 393.294 156.394C393.591 157.284 393.739 158.354 393.739 159.604V173H388.841V160.104C388.841 159.164 388.705 158.428 388.433 157.896C388.173 157.365 387.796 156.993 387.301 156.783C386.806 156.561 386.212 156.449 385.52 156.449C384.753 156.449 384.091 156.604 383.534 156.913C382.99 157.21 382.538 157.624 382.18 158.156C381.833 158.688 381.574 159.3 381.4 159.993C381.24 160.686 381.159 161.434 381.159 162.238ZM393.368 161.329L391.346 161.7C391.358 160.438 391.531 159.257 391.865 158.156C392.199 157.043 392.688 156.072 393.331 155.243C393.987 154.402 394.797 153.746 395.762 153.276C396.739 152.794 397.865 152.553 399.139 152.553C400.128 152.553 401.019 152.695 401.811 152.979C402.615 153.252 403.301 153.691 403.87 154.297C404.439 154.891 404.872 155.664 405.169 156.616C405.478 157.569 405.633 158.731 405.633 160.104V173H400.697V160.086C400.697 159.109 400.561 158.36 400.289 157.841C400.029 157.321 399.652 156.963 399.157 156.765C398.662 156.554 398.081 156.449 397.413 156.449C396.733 156.449 396.139 156.579 395.632 156.839C395.137 157.086 394.716 157.433 394.37 157.878C394.036 158.323 393.783 158.843 393.609 159.437C393.449 160.018 393.368 160.649 393.368 161.329ZM421.089 168.732V159.474C421.089 158.793 420.971 158.206 420.736 157.711C420.501 157.216 420.143 156.833 419.66 156.561C419.178 156.288 418.565 156.152 417.823 156.152C417.168 156.152 416.592 156.264 416.098 156.486C415.615 156.709 415.244 157.024 414.984 157.433C414.725 157.828 414.595 158.286 414.595 158.806H409.678C409.678 157.977 409.876 157.191 410.271 156.449C410.667 155.695 411.23 155.027 411.96 154.445C412.702 153.852 413.587 153.388 414.613 153.054C415.652 152.72 416.815 152.553 418.102 152.553C419.623 152.553 420.978 152.812 422.165 153.332C423.365 153.839 424.305 154.606 424.985 155.633C425.678 156.66 426.024 157.952 426.024 159.511V168.269C426.024 169.271 426.086 170.13 426.21 170.848C426.346 171.553 426.544 172.165 426.804 172.685V173H421.812C421.577 172.493 421.398 171.85 421.274 171.07C421.151 170.279 421.089 169.499 421.089 168.732ZM421.775 160.772L421.812 163.686H418.714C417.947 163.686 417.273 163.766 416.691 163.927C416.11 164.075 415.634 164.298 415.263 164.595C414.892 164.879 414.613 165.226 414.428 165.634C414.242 166.03 414.149 166.481 414.149 166.988C414.149 167.483 414.261 167.928 414.483 168.324C414.718 168.72 415.052 169.035 415.485 169.271C415.931 169.493 416.45 169.604 417.044 169.604C417.91 169.604 418.664 169.431 419.308 169.085C419.951 168.726 420.452 168.293 420.811 167.786C421.169 167.279 421.361 166.797 421.386 166.339L422.796 168.454C422.623 168.961 422.363 169.499 422.017 170.068C421.67 170.637 421.225 171.169 420.681 171.664C420.136 172.159 419.481 172.567 418.714 172.889C417.947 173.21 417.056 173.371 416.042 173.371C414.743 173.371 413.58 173.111 412.554 172.592C411.527 172.072 410.717 171.361 410.123 170.458C409.529 169.555 409.232 168.528 409.232 167.378C409.232 166.314 409.43 165.374 409.826 164.558C410.222 163.741 410.81 163.055 411.589 162.498C412.368 161.929 413.333 161.502 414.483 161.218C415.646 160.921 416.976 160.772 418.473 160.772H421.775ZM435.339 157.024V173H430.44V152.924H435.079L435.339 157.024ZM441.443 152.794L441.369 157.358C441.097 157.309 440.788 157.272 440.441 157.247C440.107 157.222 439.792 157.21 439.495 157.21C438.741 157.21 438.079 157.315 437.51 157.525C436.941 157.723 436.465 158.014 436.081 158.397C435.71 158.781 435.425 159.251 435.228 159.808C435.03 160.352 434.918 160.97 434.894 161.663L433.836 161.533C433.836 160.259 433.966 159.078 434.226 157.989C434.485 156.901 434.863 155.948 435.357 155.132C435.852 154.315 436.471 153.685 437.213 153.239C437.967 152.782 438.833 152.553 439.811 152.553C440.083 152.553 440.373 152.577 440.683 152.627C441.004 152.664 441.258 152.72 441.443 152.794ZM449.032 144.481V173H444.134V144.481H449.032ZM461.612 152.924L452.873 162.739L448.142 167.545L446.583 163.741L450.238 159.14L455.693 152.924H461.612ZM456.603 173L450.387 163.648L453.652 160.476L462.28 173H456.603ZM489.853 164.112H494.955C494.819 165.918 494.318 167.52 493.452 168.918C492.586 170.303 491.38 171.392 489.834 172.184C488.288 172.975 486.414 173.371 484.212 173.371C482.517 173.371 480.99 173.074 479.629 172.48C478.281 171.874 477.124 171.015 476.159 169.901C475.207 168.776 474.477 167.427 473.97 165.856C473.463 164.273 473.209 162.498 473.209 160.531V158.472C473.209 156.505 473.469 154.73 473.988 153.146C474.508 151.563 475.25 150.215 476.215 149.102C477.192 147.976 478.361 147.11 479.722 146.504C481.095 145.898 482.629 145.595 484.323 145.595C486.525 145.595 488.387 146.003 489.908 146.819C491.43 147.623 492.611 148.73 493.452 150.141C494.293 151.551 494.8 153.171 494.974 155.002H489.871C489.772 153.864 489.525 152.899 489.129 152.107C488.745 151.316 488.164 150.716 487.385 150.308C486.618 149.887 485.597 149.677 484.323 149.677C483.334 149.677 482.462 149.862 481.707 150.233C480.965 150.604 480.346 151.161 479.852 151.903C479.357 152.633 478.986 153.549 478.738 154.649C478.491 155.738 478.367 157 478.367 158.435V160.531C478.367 161.904 478.479 163.135 478.701 164.224C478.924 165.312 479.27 166.234 479.74 166.988C480.21 167.743 480.816 168.318 481.559 168.714C482.301 169.11 483.185 169.308 484.212 169.308C485.461 169.308 486.476 169.11 487.255 168.714C488.047 168.318 488.646 167.737 489.055 166.97C489.475 166.203 489.741 165.25 489.853 164.112ZM503.731 144.5V173H498.814V144.5H503.731ZM519.466 168.732V159.474C519.466 158.793 519.348 158.206 519.113 157.711C518.878 157.216 518.52 156.833 518.037 156.561C517.555 156.288 516.942 156.152 516.2 156.152C515.545 156.152 514.969 156.264 514.475 156.486C513.992 156.709 513.621 157.024 513.361 157.433C513.102 157.828 512.972 158.286 512.972 158.806H508.055C508.055 157.977 508.253 157.191 508.648 156.449C509.044 155.695 509.607 155.027 510.337 154.445C511.079 153.852 511.964 153.388 512.99 153.054C514.029 152.72 515.192 152.553 516.479 152.553C518 152.553 519.354 152.812 520.542 153.332C521.742 153.839 522.682 154.606 523.362 155.633C524.055 156.66 524.401 157.952 524.401 159.511V168.269C524.401 169.271 524.463 170.13 524.587 170.848C524.723 171.553 524.921 172.165 525.181 172.685V173H520.189C519.954 172.493 519.775 171.85 519.651 171.07C519.528 170.279 519.466 169.499 519.466 168.732ZM520.152 160.772L520.189 163.686H517.091C516.324 163.686 515.65 163.766 515.068 163.927C514.487 164.075 514.011 164.298 513.64 164.595C513.269 164.879 512.99 165.226 512.805 165.634C512.619 166.03 512.526 166.481 512.526 166.988C512.526 167.483 512.638 167.928 512.86 168.324C513.095 168.72 513.429 169.035 513.862 169.271C514.308 169.493 514.827 169.604 515.421 169.604C516.287 169.604 517.041 169.431 517.685 169.085C518.328 168.726 518.829 168.293 519.188 167.786C519.546 167.279 519.738 166.797 519.763 166.339L521.173 168.454C521 168.961 520.74 169.499 520.394 170.068C520.047 170.637 519.602 171.169 519.058 171.664C518.513 172.159 517.858 172.567 517.091 172.889C516.324 173.21 515.433 173.371 514.419 173.371C513.12 173.371 511.957 173.111 510.931 172.592C509.904 172.072 509.094 171.361 508.5 170.458C507.906 169.555 507.609 168.528 507.609 167.378C507.609 166.314 507.807 165.374 508.203 164.558C508.599 163.741 509.187 163.055 509.966 162.498C510.745 161.929 511.71 161.502 512.86 161.218C514.023 160.921 515.353 160.772 516.85 160.772H520.152ZM539.857 167.508C539.857 167.087 539.746 166.71 539.523 166.376C539.301 166.042 538.88 165.739 538.262 165.467C537.656 165.182 536.765 164.916 535.59 164.669C534.551 164.446 533.592 164.168 532.714 163.834C531.836 163.5 531.081 163.098 530.45 162.628C529.819 162.146 529.325 161.583 528.966 160.939C528.619 160.284 528.446 159.529 528.446 158.676C528.446 157.847 528.626 157.068 528.984 156.338C529.343 155.596 529.863 154.946 530.543 154.39C531.223 153.821 532.052 153.375 533.029 153.054C534.007 152.72 535.107 152.553 536.332 152.553C538.039 152.553 539.505 152.831 540.729 153.388C541.966 153.944 542.913 154.711 543.568 155.688C544.224 156.653 544.552 157.742 544.552 158.954H539.653C539.653 158.422 539.53 157.94 539.282 157.507C539.047 157.074 538.682 156.728 538.188 156.468C537.693 156.196 537.068 156.06 536.313 156.06C535.633 156.06 535.058 156.171 534.588 156.394C534.13 156.616 533.784 156.907 533.549 157.266C533.314 157.624 533.196 158.02 533.196 158.453C533.196 158.775 533.258 159.065 533.382 159.325C533.518 159.573 533.734 159.801 534.031 160.012C534.328 160.222 534.73 160.414 535.237 160.587C535.757 160.76 536.394 160.927 537.148 161.088C538.645 161.385 539.95 161.781 541.063 162.275C542.189 162.758 543.067 163.401 543.698 164.205C544.329 165.009 544.645 166.036 544.645 167.285C544.645 168.176 544.453 168.992 544.069 169.734C543.686 170.464 543.129 171.101 542.399 171.646C541.67 172.19 540.798 172.617 539.783 172.926C538.769 173.223 537.625 173.371 536.351 173.371C534.507 173.371 532.949 173.043 531.675 172.388C530.401 171.72 529.436 170.879 528.78 169.864C528.125 168.838 527.797 167.774 527.797 166.673H532.491C532.528 167.452 532.739 168.077 533.122 168.547C533.506 169.017 533.988 169.357 534.569 169.567C535.163 169.765 535.788 169.864 536.443 169.864C537.186 169.864 537.81 169.765 538.317 169.567C538.825 169.357 539.208 169.079 539.468 168.732C539.728 168.374 539.857 167.965 539.857 167.508ZM559.414 167.508C559.414 167.087 559.303 166.71 559.08 166.376C558.857 166.042 558.437 165.739 557.818 165.467C557.212 165.182 556.322 164.916 555.146 164.669C554.107 164.446 553.149 164.168 552.271 163.834C551.392 163.5 550.638 163.098 550.007 162.628C549.376 162.146 548.881 161.583 548.522 160.939C548.176 160.284 548.003 159.529 548.003 158.676C548.003 157.847 548.182 157.068 548.541 156.338C548.9 155.596 549.419 154.946 550.1 154.39C550.78 153.821 551.609 153.375 552.586 153.054C553.563 152.72 554.664 152.553 555.889 152.553C557.596 152.553 559.062 152.831 560.286 153.388C561.523 153.944 562.469 154.711 563.125 155.688C563.781 156.653 564.108 157.742 564.108 158.954H559.21C559.21 158.422 559.086 157.94 558.839 157.507C558.604 157.074 558.239 156.728 557.744 156.468C557.249 156.196 556.625 156.06 555.87 156.06C555.19 156.06 554.615 156.171 554.145 156.394C553.687 156.616 553.34 156.907 553.105 157.266C552.87 157.624 552.753 158.02 552.753 158.453C552.753 158.775 552.815 159.065 552.938 159.325C553.075 159.573 553.291 159.801 553.588 160.012C553.885 160.222 554.287 160.414 554.794 160.587C555.313 160.76 555.951 160.927 556.705 161.088C558.202 161.385 559.507 161.781 560.62 162.275C561.746 162.758 562.624 163.401 563.255 164.205C563.886 165.009 564.201 166.036 564.201 167.285C564.201 168.176 564.009 168.992 563.626 169.734C563.243 170.464 562.686 171.101 561.956 171.646C561.226 172.19 560.354 172.617 559.34 172.926C558.326 173.223 557.181 173.371 555.907 173.371C554.064 173.371 552.506 173.043 551.231 172.388C549.957 171.72 548.993 170.879 548.337 169.864C547.681 168.838 547.354 167.774 547.354 166.673H552.048C552.085 167.452 552.295 168.077 552.679 168.547C553.062 169.017 553.545 169.357 554.126 169.567C554.72 169.765 555.344 169.864 556 169.864C556.742 169.864 557.367 169.765 557.874 169.567C558.381 169.357 558.765 169.079 559.024 168.732C559.284 168.374 559.414 167.965 559.414 167.508ZM576.948 173.371C575.427 173.371 574.06 173.124 572.848 172.629C571.635 172.134 570.603 171.448 569.749 170.569C568.908 169.679 568.258 168.646 567.801 167.471C567.355 166.283 567.133 165.009 567.133 163.648V162.906C567.133 161.36 567.355 159.956 567.801 158.694C568.246 157.42 568.877 156.326 569.693 155.41C570.51 154.495 571.487 153.79 572.625 153.295C573.763 152.8 575.019 152.553 576.392 152.553C577.814 152.553 579.07 152.794 580.158 153.276C581.247 153.746 582.156 154.414 582.886 155.28C583.616 156.146 584.166 157.185 584.537 158.397C584.908 159.597 585.094 160.927 585.094 162.387V164.446H569.359V161.069H580.27V160.698C580.245 159.919 580.096 159.208 579.824 158.564C579.552 157.909 579.132 157.389 578.562 157.006C577.993 156.61 577.257 156.412 576.354 156.412C575.625 156.412 574.988 156.573 574.443 156.895C573.911 157.204 573.466 157.649 573.107 158.23C572.761 158.799 572.501 159.48 572.328 160.271C572.155 161.063 572.068 161.941 572.068 162.906V163.648C572.068 164.49 572.18 165.269 572.402 165.986C572.637 166.704 572.978 167.328 573.423 167.86C573.881 168.38 574.425 168.788 575.056 169.085C575.699 169.369 576.429 169.512 577.245 169.512C578.272 169.512 579.2 169.314 580.028 168.918C580.869 168.51 581.599 167.91 582.218 167.118L584.686 169.679C584.265 170.297 583.696 170.891 582.979 171.46C582.273 172.029 581.42 172.493 580.418 172.852C579.416 173.198 578.259 173.371 576.948 173.371ZM599.418 167.508C599.418 167.087 599.307 166.71 599.084 166.376C598.861 166.042 598.441 165.739 597.822 165.467C597.216 165.182 596.326 164.916 595.15 164.669C594.111 164.446 593.153 164.168 592.274 163.834C591.396 163.5 590.642 163.098 590.011 162.628C589.38 162.146 588.885 161.583 588.526 160.939C588.18 160.284 588.007 159.529 588.007 158.676C588.007 157.847 588.186 157.068 588.545 156.338C588.904 155.596 589.423 154.946 590.104 154.39C590.784 153.821 591.613 153.375 592.59 153.054C593.567 152.72 594.668 152.553 595.893 152.553C597.6 152.553 599.065 152.831 600.29 153.388C601.527 153.944 602.473 154.711 603.129 155.688C603.785 156.653 604.112 157.742 604.112 158.954H599.214C599.214 158.422 599.09 157.94 598.843 157.507C598.608 157.074 598.243 156.728 597.748 156.468C597.253 156.196 596.629 156.06 595.874 156.06C595.194 156.06 594.618 156.171 594.148 156.394C593.691 156.616 593.344 156.907 593.109 157.266C592.874 157.624 592.757 158.02 592.757 158.453C592.757 158.775 592.819 159.065 592.942 159.325C593.078 159.573 593.295 159.801 593.592 160.012C593.889 160.222 594.291 160.414 594.798 160.587C595.317 160.76 595.954 160.927 596.709 161.088C598.206 161.385 599.511 161.781 600.624 162.275C601.75 162.758 602.628 163.401 603.259 164.205C603.89 165.009 604.205 166.036 604.205 167.285C604.205 168.176 604.013 168.992 603.63 169.734C603.246 170.464 602.69 171.101 601.96 171.646C601.23 172.19 600.358 172.617 599.344 172.926C598.329 173.223 597.185 173.371 595.911 173.371C594.068 173.371 592.509 173.043 591.235 172.388C589.961 171.72 588.996 170.879 588.341 169.864C587.685 168.838 587.357 167.774 587.357 166.673H592.052C592.089 167.452 592.299 168.077 592.683 168.547C593.066 169.017 593.549 169.357 594.13 169.567C594.724 169.765 595.348 169.864 596.004 169.864C596.746 169.864 597.371 169.765 597.878 169.567C598.385 169.357 598.769 169.079 599.028 168.732C599.288 168.374 599.418 167.965 599.418 167.508Z" fill="#FFA229"/>
<g filter="url(#filter1_d_460_6596)">
<rect x="52" y="357" width="411" height="102" rx="18" fill="#FAAF20"/>
</g>
<path d="M110.066 407.285V416.787C109.713 417.254 109.16 417.767 108.408 418.325C107.668 418.872 106.682 419.345 105.452 419.744C104.221 420.142 102.689 420.342 100.854 420.342C99.2936 420.342 97.8638 420.08 96.5649 419.556C95.2661 419.02 94.1439 418.24 93.1982 417.214C92.264 416.189 91.5405 414.941 91.0278 413.472C90.5151 411.991 90.2588 410.304 90.2588 408.413V406.687C90.2588 404.807 90.4924 403.132 90.9595 401.663C91.438 400.181 92.1216 398.928 93.0103 397.903C93.8989 396.877 94.9699 396.103 96.2231 395.579C97.4878 395.043 98.9176 394.775 100.513 394.775C102.552 394.775 104.238 395.117 105.571 395.801C106.916 396.473 107.952 397.407 108.682 398.604C109.411 399.8 109.872 401.167 110.066 402.705H105.862C105.725 401.839 105.457 401.064 105.059 400.381C104.671 399.697 104.113 399.162 103.384 398.774C102.666 398.376 101.732 398.176 100.581 398.176C99.5898 398.176 98.7183 398.364 97.9663 398.74C97.2144 399.116 96.5877 399.669 96.0864 400.398C95.5965 401.127 95.2262 402.016 94.9756 403.064C94.7249 404.112 94.5996 405.308 94.5996 406.653V408.413C94.5996 409.78 94.742 410.994 95.0269 412.053C95.3231 413.113 95.7446 414.007 96.2915 414.736C96.8498 415.465 97.5277 416.018 98.3252 416.394C99.1227 416.759 100.023 416.941 101.025 416.941C102.005 416.941 102.808 416.861 103.435 416.702C104.062 416.531 104.557 416.331 104.922 416.104C105.298 415.864 105.588 415.636 105.793 415.42V410.481H100.615V407.285H110.066ZM113.621 410.959V410.566C113.621 409.233 113.814 407.997 114.202 406.858C114.589 405.707 115.147 404.71 115.876 403.867C116.617 403.013 117.517 402.352 118.577 401.885C119.648 401.406 120.855 401.167 122.2 401.167C123.556 401.167 124.763 401.406 125.823 401.885C126.894 402.352 127.799 403.013 128.54 403.867C129.281 404.71 129.845 405.707 130.232 406.858C130.619 407.997 130.813 409.233 130.813 410.566V410.959C130.813 412.292 130.619 413.529 130.232 414.668C129.845 415.807 129.281 416.804 128.54 417.659C127.799 418.502 126.899 419.163 125.84 419.641C124.78 420.108 123.578 420.342 122.234 420.342C120.878 420.342 119.665 420.108 118.594 419.641C117.534 419.163 116.634 418.502 115.894 417.659C115.153 416.804 114.589 415.807 114.202 414.668C113.814 413.529 113.621 412.292 113.621 410.959ZM117.739 410.566V410.959C117.739 411.791 117.825 412.577 117.996 413.318C118.167 414.058 118.434 414.708 118.799 415.266C119.163 415.824 119.631 416.263 120.2 416.582C120.77 416.901 121.448 417.061 122.234 417.061C122.997 417.061 123.658 416.901 124.216 416.582C124.786 416.263 125.253 415.824 125.618 415.266C125.982 414.708 126.25 414.058 126.421 413.318C126.603 412.577 126.694 411.791 126.694 410.959V410.566C126.694 409.746 126.603 408.971 126.421 408.242C126.25 407.502 125.977 406.847 125.601 406.277C125.236 405.707 124.769 405.263 124.199 404.944C123.641 404.613 122.974 404.448 122.2 404.448C121.425 404.448 120.753 404.613 120.183 404.944C119.625 405.263 119.163 405.707 118.799 406.277C118.434 406.847 118.167 407.502 117.996 408.242C117.825 408.971 117.739 409.746 117.739 410.566ZM133.479 410.959V410.566C133.479 409.233 133.673 407.997 134.06 406.858C134.447 405.707 135.006 404.71 135.735 403.867C136.475 403.013 137.375 402.352 138.435 401.885C139.506 401.406 140.714 401.167 142.058 401.167C143.414 401.167 144.622 401.406 145.681 401.885C146.752 402.352 147.658 403.013 148.398 403.867C149.139 404.71 149.703 405.707 150.09 406.858C150.478 407.997 150.671 409.233 150.671 410.566V410.959C150.671 412.292 150.478 413.529 150.09 414.668C149.703 415.807 149.139 416.804 148.398 417.659C147.658 418.502 146.758 419.163 145.698 419.641C144.639 420.108 143.437 420.342 142.092 420.342C140.736 420.342 139.523 420.108 138.452 419.641C137.393 419.163 136.493 418.502 135.752 417.659C135.011 416.804 134.447 415.807 134.06 414.668C133.673 413.529 133.479 412.292 133.479 410.959ZM137.598 410.566V410.959C137.598 411.791 137.683 412.577 137.854 413.318C138.025 414.058 138.293 414.708 138.657 415.266C139.022 415.824 139.489 416.263 140.059 416.582C140.628 416.901 141.306 417.061 142.092 417.061C142.856 417.061 143.516 416.901 144.075 416.582C144.644 416.263 145.111 415.824 145.476 415.266C145.841 414.708 146.108 414.058 146.279 413.318C146.462 412.577 146.553 411.791 146.553 410.959V410.566C146.553 409.746 146.462 408.971 146.279 408.242C146.108 407.502 145.835 406.847 145.459 406.277C145.094 405.707 144.627 405.263 144.058 404.944C143.499 404.613 142.833 404.448 142.058 404.448C141.283 404.448 140.611 404.613 140.042 404.944C139.483 405.263 139.022 405.707 138.657 406.277C138.293 406.847 138.025 407.502 137.854 408.242C137.683 408.971 137.598 409.746 137.598 410.566ZM165.403 416.172V393.75H169.539V420H165.796L165.403 416.172ZM153.372 410.959V410.601C153.372 409.199 153.537 407.923 153.867 406.772C154.198 405.61 154.676 404.613 155.303 403.782C155.929 402.939 156.693 402.295 157.593 401.851C158.493 401.395 159.507 401.167 160.635 401.167C161.751 401.167 162.731 401.383 163.574 401.816C164.417 402.249 165.135 402.87 165.728 403.679C166.32 404.477 166.793 405.434 167.146 406.55C167.499 407.655 167.75 408.886 167.898 410.242V411.387C167.75 412.708 167.499 413.916 167.146 415.01C166.793 416.104 166.32 417.049 165.728 417.847C165.135 418.644 164.412 419.259 163.557 419.692C162.714 420.125 161.729 420.342 160.601 420.342C159.484 420.342 158.476 420.108 157.576 419.641C156.687 419.174 155.929 418.519 155.303 417.676C154.676 416.833 154.198 415.841 153.867 414.702C153.537 413.551 153.372 412.304 153.372 410.959ZM157.49 410.601V410.959C157.49 411.803 157.564 412.589 157.712 413.318C157.872 414.047 158.117 414.691 158.447 415.249C158.778 415.796 159.205 416.229 159.729 416.548C160.264 416.855 160.903 417.009 161.643 417.009C162.577 417.009 163.346 416.804 163.95 416.394C164.554 415.984 165.027 415.431 165.369 414.736C165.722 414.03 165.961 413.244 166.086 412.378V409.285C166.018 408.612 165.876 407.986 165.659 407.405C165.454 406.824 165.175 406.317 164.822 405.884C164.469 405.439 164.03 405.098 163.506 404.858C162.993 404.608 162.384 404.482 161.677 404.482C160.925 404.482 160.287 404.642 159.763 404.961C159.239 405.28 158.806 405.719 158.464 406.277C158.134 406.835 157.889 407.485 157.729 408.225C157.57 408.966 157.49 409.757 157.49 410.601ZM184.219 414.993C184.219 414.583 184.116 414.212 183.911 413.882C183.706 413.54 183.313 413.232 182.732 412.959C182.162 412.686 181.319 412.435 180.203 412.207C179.223 411.991 178.323 411.734 177.502 411.438C176.694 411.13 175.999 410.76 175.417 410.327C174.836 409.894 174.386 409.382 174.067 408.789C173.748 408.197 173.589 407.513 173.589 406.738C173.589 405.986 173.754 405.274 174.084 404.602C174.415 403.93 174.888 403.337 175.503 402.825C176.118 402.312 176.864 401.908 177.742 401.611C178.63 401.315 179.622 401.167 180.715 401.167C182.265 401.167 183.592 401.429 184.697 401.953C185.814 402.466 186.668 403.167 187.261 404.055C187.853 404.932 188.149 405.924 188.149 407.029H184.031C184.031 406.539 183.905 406.083 183.655 405.662C183.416 405.229 183.051 404.881 182.561 404.619C182.071 404.346 181.456 404.209 180.715 404.209C180.009 404.209 179.422 404.323 178.955 404.551C178.499 404.767 178.158 405.052 177.93 405.405C177.713 405.758 177.605 406.146 177.605 406.567C177.605 406.875 177.662 407.154 177.776 407.405C177.901 407.644 178.106 407.866 178.391 408.071C178.676 408.265 179.063 408.447 179.553 408.618C180.055 408.789 180.681 408.954 181.433 409.114C182.846 409.41 184.059 409.792 185.073 410.259C186.099 410.715 186.885 411.307 187.432 412.036C187.979 412.754 188.252 413.665 188.252 414.771C188.252 415.591 188.075 416.343 187.722 417.026C187.38 417.699 186.879 418.285 186.218 418.787C185.557 419.277 184.766 419.658 183.843 419.932C182.931 420.205 181.906 420.342 180.767 420.342C179.092 420.342 177.673 420.046 176.511 419.453C175.349 418.849 174.466 418.08 173.862 417.146C173.27 416.2 172.974 415.221 172.974 414.207H176.956C177.001 414.97 177.212 415.579 177.588 416.035C177.975 416.479 178.454 416.804 179.023 417.009C179.604 417.203 180.203 417.3 180.818 417.3C181.558 417.3 182.179 417.203 182.681 417.009C183.182 416.804 183.564 416.531 183.826 416.189C184.088 415.836 184.219 415.437 184.219 414.993ZM215.681 411.899H219.954C219.817 413.529 219.361 414.981 218.586 416.257C217.812 417.522 216.724 418.519 215.322 419.248C213.921 419.977 212.218 420.342 210.212 420.342C208.674 420.342 207.29 420.068 206.06 419.521C204.829 418.963 203.775 418.177 202.898 417.163C202.021 416.138 201.348 414.902 200.881 413.455C200.426 412.008 200.198 410.39 200.198 408.601V406.533C200.198 404.744 200.431 403.127 200.898 401.68C201.377 400.233 202.061 398.997 202.949 397.971C203.838 396.934 204.903 396.143 206.145 395.596C207.398 395.049 208.805 394.775 210.366 394.775C212.349 394.775 214.023 395.14 215.391 395.869C216.758 396.598 217.817 397.607 218.569 398.894C219.333 400.181 219.8 401.657 219.971 403.32H215.698C215.584 402.249 215.334 401.332 214.946 400.569C214.57 399.806 214.012 399.224 213.271 398.826C212.531 398.416 211.562 398.21 210.366 398.21C209.386 398.21 208.532 398.393 207.803 398.757C207.074 399.122 206.464 399.657 205.974 400.364C205.484 401.07 205.114 401.942 204.863 402.979C204.624 404.004 204.504 405.177 204.504 406.499V408.601C204.504 409.854 204.613 410.994 204.829 412.019C205.057 413.033 205.399 413.905 205.854 414.634C206.322 415.363 206.914 415.927 207.632 416.326C208.35 416.724 209.21 416.924 210.212 416.924C211.431 416.924 212.417 416.73 213.169 416.343C213.932 415.955 214.508 415.391 214.895 414.651C215.294 413.899 215.556 412.982 215.681 411.899ZM227.849 393.75V420H223.713V393.75H227.849ZM242.786 416.292V407.473C242.786 406.812 242.666 406.243 242.427 405.764C242.188 405.286 241.823 404.915 241.333 404.653C240.854 404.391 240.251 404.26 239.521 404.26C238.849 404.26 238.268 404.374 237.778 404.602C237.288 404.83 236.907 405.138 236.633 405.525C236.36 405.912 236.223 406.351 236.223 406.841H232.122C232.122 406.112 232.298 405.405 232.651 404.722C233.005 404.038 233.517 403.429 234.189 402.893C234.862 402.358 235.665 401.936 236.599 401.628C237.533 401.321 238.582 401.167 239.744 401.167C241.134 401.167 242.364 401.401 243.435 401.868C244.517 402.335 245.366 403.041 245.981 403.987C246.608 404.921 246.921 406.095 246.921 407.507V415.728C246.921 416.571 246.978 417.328 247.092 418C247.218 418.661 247.394 419.237 247.622 419.727V420H243.401C243.207 419.556 243.053 418.992 242.939 418.308C242.837 417.613 242.786 416.941 242.786 416.292ZM243.384 408.755L243.418 411.301H240.461C239.698 411.301 239.026 411.375 238.445 411.523C237.864 411.66 237.38 411.865 236.992 412.139C236.605 412.412 236.314 412.743 236.121 413.13C235.927 413.517 235.83 413.956 235.83 414.446C235.83 414.936 235.944 415.386 236.172 415.796C236.4 416.195 236.73 416.508 237.163 416.736C237.607 416.964 238.143 417.078 238.77 417.078C239.613 417.078 240.347 416.907 240.974 416.565C241.612 416.212 242.113 415.785 242.478 415.283C242.843 414.771 243.036 414.286 243.059 413.831L244.392 415.659C244.255 416.126 244.022 416.628 243.691 417.163C243.361 417.699 242.928 418.211 242.393 418.701C241.868 419.18 241.236 419.573 240.496 419.88C239.766 420.188 238.923 420.342 237.966 420.342C236.759 420.342 235.682 420.103 234.736 419.624C233.791 419.134 233.05 418.479 232.515 417.659C231.979 416.827 231.711 415.887 231.711 414.839C231.711 413.859 231.894 412.993 232.258 412.241C232.634 411.478 233.181 410.84 233.899 410.327C234.628 409.814 235.517 409.427 236.565 409.165C237.613 408.892 238.809 408.755 240.154 408.755H243.384ZM261.602 414.993C261.602 414.583 261.499 414.212 261.294 413.882C261.089 413.54 260.696 413.232 260.115 412.959C259.545 412.686 258.702 412.435 257.585 412.207C256.606 411.991 255.706 411.734 254.885 411.438C254.076 411.13 253.381 410.76 252.8 410.327C252.219 409.894 251.769 409.382 251.45 408.789C251.131 408.197 250.972 407.513 250.972 406.738C250.972 405.986 251.137 405.274 251.467 404.602C251.798 403.93 252.271 403.337 252.886 402.825C253.501 402.312 254.247 401.908 255.125 401.611C256.013 401.315 257.004 401.167 258.098 401.167C259.648 401.167 260.975 401.429 262.08 401.953C263.197 402.466 264.051 403.167 264.644 404.055C265.236 404.932 265.532 405.924 265.532 407.029H261.414C261.414 406.539 261.288 406.083 261.038 405.662C260.798 405.229 260.434 404.881 259.944 404.619C259.454 404.346 258.839 404.209 258.098 404.209C257.392 404.209 256.805 404.323 256.338 404.551C255.882 404.767 255.54 405.052 255.312 405.405C255.096 405.758 254.988 406.146 254.988 406.567C254.988 406.875 255.045 407.154 255.159 407.405C255.284 407.644 255.489 407.866 255.774 408.071C256.059 408.265 256.446 408.447 256.936 408.618C257.437 408.789 258.064 408.954 258.816 409.114C260.229 409.41 261.442 409.792 262.456 410.259C263.481 410.715 264.268 411.307 264.814 412.036C265.361 412.754 265.635 413.665 265.635 414.771C265.635 415.591 265.458 416.343 265.105 417.026C264.763 417.699 264.262 418.285 263.601 418.787C262.94 419.277 262.148 419.658 261.226 419.932C260.314 420.205 259.289 420.342 258.149 420.342C256.475 420.342 255.056 420.046 253.894 419.453C252.732 418.849 251.849 418.08 251.245 417.146C250.653 416.2 250.356 415.221 250.356 414.207H254.338C254.384 414.97 254.595 415.579 254.971 416.035C255.358 416.479 255.837 416.804 256.406 417.009C256.987 417.203 257.585 417.3 258.201 417.3C258.941 417.3 259.562 417.203 260.063 417.009C260.565 416.804 260.946 416.531 261.208 416.189C261.471 415.836 261.602 415.437 261.602 414.993ZM279.614 414.993C279.614 414.583 279.512 414.212 279.307 413.882C279.102 413.54 278.708 413.232 278.127 412.959C277.558 412.686 276.715 412.435 275.598 412.207C274.618 411.991 273.718 411.734 272.898 411.438C272.089 411.13 271.394 410.76 270.813 410.327C270.232 409.894 269.782 409.382 269.463 408.789C269.144 408.197 268.984 407.513 268.984 406.738C268.984 405.986 269.15 405.274 269.48 404.602C269.81 403.93 270.283 403.337 270.898 402.825C271.514 402.312 272.26 401.908 273.137 401.611C274.026 401.315 275.017 401.167 276.111 401.167C277.66 401.167 278.988 401.429 280.093 401.953C281.209 402.466 282.064 403.167 282.656 404.055C283.249 404.932 283.545 405.924 283.545 407.029H279.426C279.426 406.539 279.301 406.083 279.05 405.662C278.811 405.229 278.446 404.881 277.957 404.619C277.467 404.346 276.851 404.209 276.111 404.209C275.404 404.209 274.818 404.323 274.351 404.551C273.895 404.767 273.553 405.052 273.325 405.405C273.109 405.758 273 406.146 273 406.567C273 406.875 273.057 407.154 273.171 407.405C273.297 407.644 273.502 407.866 273.787 408.071C274.071 408.265 274.459 408.447 274.949 408.618C275.45 408.789 276.077 408.954 276.829 409.114C278.241 409.41 279.455 409.792 280.469 410.259C281.494 410.715 282.28 411.307 282.827 412.036C283.374 412.754 283.647 413.665 283.647 414.771C283.647 415.591 283.471 416.343 283.118 417.026C282.776 417.699 282.275 418.285 281.614 418.787C280.953 419.277 280.161 419.658 279.238 419.932C278.327 420.205 277.301 420.342 276.162 420.342C274.487 420.342 273.069 420.046 271.907 419.453C270.745 418.849 269.862 418.08 269.258 417.146C268.665 416.2 268.369 415.221 268.369 414.207H272.351C272.397 414.97 272.607 415.579 272.983 416.035C273.371 416.479 273.849 416.804 274.419 417.009C275 417.203 275.598 417.3 276.213 417.3C276.954 417.3 277.575 417.203 278.076 417.009C278.577 416.804 278.959 416.531 279.221 416.189C279.483 415.836 279.614 415.437 279.614 414.993ZM295.405 420.342C294.038 420.342 292.802 420.12 291.697 419.675C290.603 419.22 289.669 418.587 288.894 417.778C288.131 416.969 287.544 416.018 287.134 414.924C286.724 413.831 286.519 412.651 286.519 411.387V410.703C286.519 409.256 286.729 407.946 287.151 406.772C287.572 405.599 288.159 404.596 288.911 403.765C289.663 402.922 290.552 402.278 291.577 401.833C292.603 401.389 293.713 401.167 294.91 401.167C296.231 401.167 297.388 401.389 298.379 401.833C299.37 402.278 300.19 402.904 300.84 403.713C301.501 404.511 301.991 405.462 302.31 406.567C302.64 407.673 302.805 408.892 302.805 410.225V411.985H288.518V409.028H298.738V408.704C298.715 407.963 298.567 407.268 298.293 406.619C298.031 405.969 297.627 405.445 297.08 405.046C296.533 404.648 295.804 404.448 294.893 404.448C294.209 404.448 293.599 404.596 293.064 404.893C292.54 405.177 292.101 405.593 291.748 406.14C291.395 406.687 291.121 407.348 290.928 408.123C290.745 408.886 290.654 409.746 290.654 410.703V411.387C290.654 412.196 290.763 412.948 290.979 413.643C291.207 414.326 291.537 414.924 291.97 415.437C292.403 415.95 292.927 416.354 293.542 416.65C294.158 416.935 294.858 417.078 295.645 417.078C296.636 417.078 297.519 416.878 298.293 416.479C299.068 416.081 299.74 415.517 300.31 414.788L302.48 416.89C302.082 417.471 301.563 418.029 300.925 418.564C300.287 419.089 299.507 419.516 298.584 419.846C297.673 420.177 296.613 420.342 295.405 420.342ZM316.392 414.993C316.392 414.583 316.289 414.212 316.084 413.882C315.879 413.54 315.486 413.232 314.905 412.959C314.335 412.686 313.492 412.435 312.375 412.207C311.396 411.991 310.496 411.734 309.675 411.438C308.866 411.13 308.171 410.76 307.59 410.327C307.009 409.894 306.559 409.382 306.24 408.789C305.921 408.197 305.762 407.513 305.762 406.738C305.762 405.986 305.927 405.274 306.257 404.602C306.588 403.93 307.061 403.337 307.676 402.825C308.291 402.312 309.037 401.908 309.915 401.611C310.803 401.315 311.794 401.167 312.888 401.167C314.438 401.167 315.765 401.429 316.87 401.953C317.987 402.466 318.841 403.167 319.434 404.055C320.026 404.932 320.322 405.924 320.322 407.029H316.204C316.204 406.539 316.078 406.083 315.828 405.662C315.588 405.229 315.224 404.881 314.734 404.619C314.244 404.346 313.629 404.209 312.888 404.209C312.182 404.209 311.595 404.323 311.128 404.551C310.672 404.767 310.33 405.052 310.103 405.405C309.886 405.758 309.778 406.146 309.778 406.567C309.778 406.875 309.835 407.154 309.949 407.405C310.074 407.644 310.279 407.866 310.564 408.071C310.849 408.265 311.236 408.447 311.726 408.618C312.227 408.789 312.854 408.954 313.606 409.114C315.019 409.41 316.232 409.792 317.246 410.259C318.271 410.715 319.058 411.307 319.604 412.036C320.151 412.754 320.425 413.665 320.425 414.771C320.425 415.591 320.248 416.343 319.895 417.026C319.553 417.699 319.052 418.285 318.391 418.787C317.73 419.277 316.938 419.658 316.016 419.932C315.104 420.205 314.079 420.342 312.939 420.342C311.265 420.342 309.846 420.046 308.684 419.453C307.522 418.849 306.639 418.08 306.035 417.146C305.443 416.2 305.146 415.221 305.146 414.207H309.128C309.174 414.97 309.385 415.579 309.761 416.035C310.148 416.479 310.627 416.804 311.196 417.009C311.777 417.203 312.375 417.3 312.991 417.3C313.731 417.3 314.352 417.203 314.854 417.009C315.355 416.804 315.736 416.531 315.999 416.189C316.261 415.836 316.392 415.437 316.392 414.993ZM332.832 410.173V409.883C332.832 407.445 333.094 405.234 333.618 403.252C334.154 401.258 334.849 399.515 335.703 398.022C336.558 396.519 337.469 395.277 338.438 394.297C339.417 393.306 340.357 392.594 341.257 392.161L342.078 394.519C341.417 395.009 340.756 395.687 340.095 396.553C339.446 397.419 338.848 398.484 338.301 399.749C337.765 401.002 337.332 402.472 337.002 404.158C336.683 405.833 336.523 407.729 336.523 409.849V410.208C336.523 412.327 336.683 414.229 337.002 415.916C337.332 417.59 337.765 419.06 338.301 420.325C338.848 421.589 339.446 422.66 340.095 423.538C340.756 424.426 341.417 425.133 342.078 425.657L341.257 427.913C340.357 427.468 339.417 426.75 338.438 425.759C337.469 424.779 336.558 423.538 335.703 422.034C334.849 420.541 334.154 418.804 333.618 416.821C333.094 414.827 332.832 412.611 332.832 410.173ZM355.886 395.032V420H351.768V399.919L345.667 401.987V398.586L355.391 395.032H355.886ZM373.062 407.729V411.011H364.021V407.729H373.062ZM381.265 405.696H383.726C384.683 405.696 385.474 405.531 386.101 405.2C386.739 404.87 387.212 404.414 387.52 403.833C387.827 403.252 387.981 402.585 387.981 401.833C387.981 401.047 387.839 400.375 387.554 399.817C387.28 399.247 386.859 398.809 386.289 398.501C385.731 398.193 385.019 398.04 384.153 398.04C383.424 398.04 382.763 398.188 382.17 398.484C381.589 398.769 381.128 399.179 380.786 399.714C380.444 400.238 380.273 400.865 380.273 401.594H376.138C376.138 400.273 376.485 399.099 377.18 398.074C377.875 397.048 378.821 396.245 380.017 395.664C381.225 395.072 382.581 394.775 384.084 394.775C385.691 394.775 387.092 395.043 388.289 395.579C389.496 396.103 390.436 396.889 391.108 397.937C391.781 398.985 392.117 400.284 392.117 401.833C392.117 402.54 391.951 403.258 391.621 403.987C391.291 404.716 390.801 405.382 390.151 405.986C389.502 406.579 388.693 407.063 387.725 407.439C386.756 407.804 385.634 407.986 384.358 407.986H381.265V405.696ZM381.265 408.909V406.653H384.358C385.816 406.653 387.058 406.824 388.083 407.166C389.12 407.507 389.963 407.98 390.613 408.584C391.262 409.176 391.735 409.854 392.031 410.618C392.339 411.381 392.493 412.19 392.493 413.044C392.493 414.207 392.282 415.243 391.86 416.155C391.45 417.055 390.863 417.818 390.1 418.445C389.337 419.071 388.442 419.544 387.417 419.863C386.403 420.182 385.298 420.342 384.102 420.342C383.031 420.342 382.005 420.194 381.025 419.897C380.046 419.601 379.168 419.163 378.394 418.582C377.619 417.989 377.004 417.254 376.548 416.377C376.104 415.488 375.881 414.463 375.881 413.301H380C380 414.041 380.171 414.696 380.513 415.266C380.866 415.824 381.356 416.263 381.982 416.582C382.62 416.901 383.35 417.061 384.17 417.061C385.036 417.061 385.782 416.907 386.409 416.599C387.035 416.292 387.514 415.836 387.844 415.232C388.186 414.628 388.357 413.899 388.357 413.044C388.357 412.076 388.169 411.29 387.793 410.686C387.417 410.082 386.882 409.638 386.187 409.353C385.492 409.057 384.671 408.909 383.726 408.909H381.265ZM413.462 411.13V414.412H395.518L395.381 411.934L406.113 395.117H409.412L405.84 401.235L399.67 411.13H413.462ZM410.352 395.117V420H406.233V395.117H410.352ZM424.399 409.883V410.173C424.399 412.577 424.126 414.771 423.579 416.753C423.044 418.735 422.343 420.479 421.477 421.982C420.623 423.486 419.694 424.74 418.691 425.742C417.7 426.745 416.749 427.468 415.837 427.913L415 425.657C415.661 425.155 416.316 424.466 416.965 423.589C417.626 422.723 418.224 421.646 418.76 420.359C419.307 419.083 419.74 417.602 420.059 415.916C420.389 414.229 420.554 412.327 420.554 410.208V409.849C420.554 407.729 420.383 405.827 420.042 404.141C419.711 402.443 419.267 400.962 418.708 399.697C418.15 398.421 417.546 397.345 416.897 396.467C416.248 395.59 415.615 394.906 415 394.417L415.837 392.161C416.749 392.594 417.7 393.311 418.691 394.314C419.694 395.317 420.623 396.576 421.477 398.091C422.343 399.595 423.044 401.338 423.579 403.32C424.126 405.303 424.399 407.49 424.399 409.883Z" fill="white"/>
<g filter="url(#filter2_d_460_6596)">
<rect x="555" y="357" width="411" height="102" rx="18" fill="#FAAF20"/>
</g>
<path d="M580.766 413.591C580.766 413.079 580.686 412.623 580.527 412.224C580.379 411.825 580.111 411.461 579.724 411.13C579.336 410.8 578.789 410.481 578.083 410.173C577.388 409.854 576.499 409.53 575.417 409.199C574.232 408.835 573.138 408.43 572.136 407.986C571.145 407.53 570.279 407.006 569.538 406.414C568.798 405.81 568.222 405.12 567.812 404.346C567.402 403.56 567.197 402.654 567.197 401.628C567.197 400.614 567.408 399.692 567.829 398.86C568.262 398.028 568.872 397.31 569.658 396.707C570.455 396.091 571.395 395.618 572.478 395.288C573.56 394.946 574.756 394.775 576.066 394.775C577.912 394.775 579.501 395.117 580.834 395.801C582.179 396.484 583.21 397.402 583.928 398.552C584.657 399.703 585.021 400.973 585.021 402.363H580.766C580.766 401.543 580.59 400.819 580.236 400.193C579.895 399.555 579.37 399.054 578.664 398.689C577.969 398.324 577.086 398.142 576.015 398.142C575.001 398.142 574.158 398.296 573.486 398.604C572.814 398.911 572.312 399.327 571.982 399.851C571.652 400.375 571.486 400.968 571.486 401.628C571.486 402.096 571.595 402.523 571.811 402.91C572.028 403.286 572.358 403.639 572.802 403.97C573.247 404.289 573.805 404.591 574.477 404.875C575.149 405.16 575.941 405.434 576.853 405.696C578.231 406.106 579.433 406.562 580.458 407.063C581.484 407.553 582.338 408.111 583.022 408.738C583.706 409.364 584.218 410.076 584.56 410.874C584.902 411.66 585.073 412.555 585.073 413.557C585.073 414.605 584.862 415.551 584.44 416.394C584.019 417.226 583.415 417.938 582.629 418.53C581.854 419.111 580.92 419.561 579.826 419.88C578.744 420.188 577.536 420.342 576.203 420.342C575.007 420.342 573.828 420.182 572.666 419.863C571.515 419.544 570.467 419.06 569.521 418.411C568.575 417.75 567.823 416.93 567.265 415.95C566.707 414.958 566.428 413.802 566.428 412.48H570.717C570.717 413.289 570.854 413.979 571.127 414.548C571.412 415.118 571.805 415.585 572.307 415.95C572.808 416.303 573.389 416.565 574.05 416.736C574.722 416.907 575.44 416.992 576.203 416.992C577.206 416.992 578.043 416.85 578.715 416.565C579.399 416.28 579.912 415.881 580.253 415.369C580.595 414.856 580.766 414.264 580.766 413.591ZM596.608 420.342C595.241 420.342 594.005 420.12 592.9 419.675C591.806 419.22 590.872 418.587 590.097 417.778C589.334 416.969 588.747 416.018 588.337 414.924C587.927 413.831 587.722 412.651 587.722 411.387V410.703C587.722 409.256 587.932 407.946 588.354 406.772C588.776 405.599 589.362 404.596 590.114 403.765C590.866 402.922 591.755 402.278 592.78 401.833C593.806 401.389 594.917 401.167 596.113 401.167C597.434 401.167 598.591 401.389 599.582 401.833C600.573 402.278 601.394 402.904 602.043 403.713C602.704 404.511 603.194 405.462 603.513 406.567C603.843 407.673 604.008 408.892 604.008 410.225V411.985H589.721V409.028H599.941V408.704C599.918 407.963 599.77 407.268 599.497 406.619C599.235 405.969 598.83 405.445 598.283 405.046C597.736 404.648 597.007 404.448 596.096 404.448C595.412 404.448 594.803 404.596 594.267 404.893C593.743 405.177 593.304 405.593 592.951 406.14C592.598 406.687 592.325 407.348 592.131 408.123C591.949 408.886 591.857 409.746 591.857 410.703V411.387C591.857 412.196 591.966 412.948 592.182 413.643C592.41 414.326 592.74 414.924 593.173 415.437C593.606 415.95 594.13 416.354 594.746 416.65C595.361 416.935 596.062 417.078 596.848 417.078C597.839 417.078 598.722 416.878 599.497 416.479C600.271 416.081 600.944 415.517 601.513 414.788L603.684 416.89C603.285 417.471 602.766 418.029 602.128 418.564C601.49 419.089 600.71 419.516 599.787 419.846C598.876 420.177 597.816 420.342 596.608 420.342ZM611.357 405.029V420H607.238V401.509H611.169L611.357 405.029ZM617.014 401.389L616.979 405.217C616.729 405.172 616.455 405.138 616.159 405.115C615.874 405.092 615.59 405.081 615.305 405.081C614.598 405.081 613.977 405.183 613.442 405.388C612.906 405.582 612.456 405.867 612.092 406.243C611.739 406.607 611.465 407.052 611.271 407.576C611.078 408.1 610.964 408.687 610.93 409.336L609.99 409.404C609.99 408.242 610.104 407.166 610.332 406.174C610.559 405.183 610.901 404.312 611.357 403.56C611.824 402.808 612.405 402.221 613.1 401.799C613.806 401.378 614.621 401.167 615.544 401.167C615.795 401.167 616.062 401.19 616.347 401.235C616.643 401.281 616.866 401.332 617.014 401.389ZM625.917 416.736L630.446 401.509H634.719L628.293 420H625.627L625.917 416.736ZM622.448 401.509L627.062 416.804L627.285 420H624.619L618.159 401.509H622.448ZM641.674 401.509V420H637.539V401.509H641.674ZM637.265 396.655C637.265 396.029 637.47 395.51 637.88 395.1C638.302 394.679 638.883 394.468 639.624 394.468C640.353 394.468 640.928 394.679 641.35 395.1C641.771 395.51 641.982 396.029 641.982 396.655C641.982 397.271 641.771 397.783 641.35 398.193C640.928 398.604 640.353 398.809 639.624 398.809C638.883 398.809 638.302 398.604 637.88 398.193C637.47 397.783 637.265 397.271 637.265 396.655ZM653.74 417.061C654.412 417.061 655.016 416.93 655.551 416.667C656.098 416.394 656.537 416.018 656.867 415.54C657.209 415.061 657.397 414.508 657.431 413.882H661.311C661.288 415.078 660.935 416.166 660.251 417.146C659.567 418.126 658.662 418.906 657.534 419.487C656.406 420.057 655.158 420.342 653.791 420.342C652.378 420.342 651.148 420.103 650.1 419.624C649.051 419.134 648.18 418.462 647.485 417.607C646.79 416.753 646.266 415.767 645.913 414.651C645.571 413.534 645.4 412.338 645.4 411.062V410.464C645.4 409.188 645.571 407.992 645.913 406.875C646.266 405.747 646.79 404.756 647.485 403.901C648.18 403.047 649.051 402.38 650.1 401.902C651.148 401.412 652.373 401.167 653.774 401.167C655.255 401.167 656.554 401.463 657.67 402.056C658.787 402.637 659.664 403.451 660.302 404.5C660.952 405.536 661.288 406.744 661.311 408.123H657.431C657.397 407.439 657.226 406.824 656.918 406.277C656.622 405.719 656.201 405.274 655.654 404.944C655.118 404.613 654.475 404.448 653.723 404.448C652.891 404.448 652.202 404.619 651.655 404.961C651.108 405.291 650.681 405.747 650.373 406.328C650.065 406.898 649.843 407.542 649.707 408.259C649.581 408.966 649.519 409.701 649.519 410.464V411.062C649.519 411.825 649.581 412.566 649.707 413.284C649.832 414.001 650.048 414.645 650.356 415.215C650.675 415.773 651.108 416.223 651.655 416.565C652.202 416.895 652.897 417.061 653.74 417.061ZM672.624 420.342C671.257 420.342 670.021 420.12 668.916 419.675C667.822 419.22 666.888 418.587 666.113 417.778C665.349 416.969 664.763 416.018 664.353 414.924C663.942 413.831 663.737 412.651 663.737 411.387V410.703C663.737 409.256 663.948 407.946 664.37 406.772C664.791 405.599 665.378 404.596 666.13 403.765C666.882 402.922 667.771 402.278 668.796 401.833C669.821 401.389 670.932 401.167 672.128 401.167C673.45 401.167 674.606 401.389 675.598 401.833C676.589 402.278 677.409 402.904 678.059 403.713C678.719 404.511 679.209 405.462 679.528 406.567C679.859 407.673 680.024 408.892 680.024 410.225V411.985H665.737V409.028H675.957V408.704C675.934 407.963 675.786 407.268 675.512 406.619C675.25 405.969 674.846 405.445 674.299 405.046C673.752 404.648 673.023 404.448 672.111 404.448C671.428 404.448 670.818 404.596 670.283 404.893C669.759 405.177 669.32 405.593 668.967 406.14C668.614 406.687 668.34 407.348 668.146 408.123C667.964 408.886 667.873 409.746 667.873 410.703V411.387C667.873 412.196 667.981 412.948 668.198 413.643C668.426 414.326 668.756 414.924 669.189 415.437C669.622 415.95 670.146 416.354 670.761 416.65C671.376 416.935 672.077 417.078 672.863 417.078C673.854 417.078 674.737 416.878 675.512 416.479C676.287 416.081 676.959 415.517 677.529 414.788L679.699 416.89C679.3 417.471 678.782 418.029 678.144 418.564C677.506 419.089 676.726 419.516 675.803 419.846C674.891 420.177 673.832 420.342 672.624 420.342ZM693.61 414.993C693.61 414.583 693.508 414.212 693.303 413.882C693.098 413.54 692.705 413.232 692.124 412.959C691.554 412.686 690.711 412.435 689.594 412.207C688.614 411.991 687.714 411.734 686.894 411.438C686.085 411.13 685.39 410.76 684.809 410.327C684.228 409.894 683.778 409.382 683.459 408.789C683.14 408.197 682.98 407.513 682.98 406.738C682.98 405.986 683.146 405.274 683.476 404.602C683.806 403.93 684.279 403.337 684.895 402.825C685.51 402.312 686.256 401.908 687.133 401.611C688.022 401.315 689.013 401.167 690.107 401.167C691.656 401.167 692.984 401.429 694.089 401.953C695.205 402.466 696.06 403.167 696.652 404.055C697.245 404.932 697.541 405.924 697.541 407.029H693.422C693.422 406.539 693.297 406.083 693.046 405.662C692.807 405.229 692.443 404.881 691.953 404.619C691.463 404.346 690.847 404.209 690.107 404.209C689.401 404.209 688.814 404.323 688.347 404.551C687.891 404.767 687.549 405.052 687.321 405.405C687.105 405.758 686.997 406.146 686.997 406.567C686.997 406.875 687.054 407.154 687.167 407.405C687.293 407.644 687.498 407.866 687.783 408.071C688.068 408.265 688.455 408.447 688.945 408.618C689.446 408.789 690.073 408.954 690.825 409.114C692.237 409.41 693.451 409.792 694.465 410.259C695.49 410.715 696.276 411.307 696.823 412.036C697.37 412.754 697.644 413.665 697.644 414.771C697.644 415.591 697.467 416.343 697.114 417.026C696.772 417.699 696.271 418.285 695.61 418.787C694.949 419.277 694.157 419.658 693.234 419.932C692.323 420.205 691.298 420.342 690.158 420.342C688.483 420.342 687.065 420.046 685.903 419.453C684.741 418.849 683.858 418.08 683.254 417.146C682.661 416.2 682.365 415.221 682.365 414.207H686.347C686.393 414.97 686.604 415.579 686.979 416.035C687.367 416.479 687.845 416.804 688.415 417.009C688.996 417.203 689.594 417.3 690.209 417.3C690.95 417.3 691.571 417.203 692.072 417.009C692.574 416.804 692.955 416.531 693.217 416.189C693.479 415.836 693.61 415.437 693.61 414.993ZM725.073 411.899H729.345C729.208 413.529 728.753 414.981 727.978 416.257C727.203 417.522 726.115 418.519 724.714 419.248C723.312 419.977 721.609 420.342 719.604 420.342C718.066 420.342 716.682 420.068 715.451 419.521C714.221 418.963 713.167 418.177 712.29 417.163C711.412 416.138 710.74 414.902 710.273 413.455C709.817 412.008 709.589 410.39 709.589 408.601V406.533C709.589 404.744 709.823 403.127 710.29 401.68C710.769 400.233 711.452 398.997 712.341 397.971C713.229 396.934 714.295 396.143 715.537 395.596C716.79 395.049 718.197 394.775 719.758 394.775C721.74 394.775 723.415 395.14 724.782 395.869C726.149 396.598 727.209 397.607 727.961 398.894C728.724 400.181 729.191 401.657 729.362 403.32H725.09C724.976 402.249 724.725 401.332 724.338 400.569C723.962 399.806 723.404 399.224 722.663 398.826C721.923 398.416 720.954 398.21 719.758 398.21C718.778 398.21 717.924 398.393 717.194 398.757C716.465 399.122 715.856 399.657 715.366 400.364C714.876 401.07 714.506 401.942 714.255 402.979C714.016 404.004 713.896 405.177 713.896 406.499V408.601C713.896 409.854 714.004 410.994 714.221 412.019C714.449 413.033 714.79 413.905 715.246 414.634C715.713 415.363 716.306 415.927 717.023 416.326C717.741 416.724 718.601 416.924 719.604 416.924C720.823 416.924 721.809 416.73 722.561 416.343C723.324 415.955 723.899 415.391 724.287 414.651C724.685 413.899 724.947 412.982 725.073 411.899ZM737.241 393.75V420H733.105V393.75H737.241ZM752.177 416.292V407.473C752.177 406.812 752.058 406.243 751.818 405.764C751.579 405.286 751.215 404.915 750.725 404.653C750.246 404.391 749.642 404.26 748.913 404.26C748.241 404.26 747.66 404.374 747.17 404.602C746.68 404.83 746.298 405.138 746.025 405.525C745.751 405.912 745.615 406.351 745.615 406.841H741.513C741.513 406.112 741.69 405.405 742.043 404.722C742.396 404.038 742.909 403.429 743.581 402.893C744.253 402.358 745.056 401.936 745.991 401.628C746.925 401.321 747.973 401.167 749.135 401.167C750.525 401.167 751.756 401.401 752.827 401.868C753.909 402.335 754.758 403.041 755.373 403.987C756 404.921 756.313 406.095 756.313 407.507V415.728C756.313 416.571 756.37 417.328 756.484 418C756.609 418.661 756.786 419.237 757.014 419.727V420H752.792C752.599 419.556 752.445 418.992 752.331 418.308C752.229 417.613 752.177 416.941 752.177 416.292ZM752.775 408.755L752.81 411.301H749.853C749.09 411.301 748.417 411.375 747.836 411.523C747.255 411.66 746.771 411.865 746.384 412.139C745.996 412.412 745.706 412.743 745.512 413.13C745.319 413.517 745.222 413.956 745.222 414.446C745.222 414.936 745.336 415.386 745.563 415.796C745.791 416.195 746.122 416.508 746.555 416.736C746.999 416.964 747.535 417.078 748.161 417.078C749.004 417.078 749.739 416.907 750.366 416.565C751.004 416.212 751.505 415.785 751.87 415.283C752.234 414.771 752.428 414.286 752.451 413.831L753.784 415.659C753.647 416.126 753.413 416.628 753.083 417.163C752.753 417.699 752.32 418.211 751.784 418.701C751.26 419.18 750.628 419.573 749.887 419.88C749.158 420.188 748.315 420.342 747.358 420.342C746.15 420.342 745.074 420.103 744.128 419.624C743.182 419.134 742.442 418.479 741.906 417.659C741.371 416.827 741.103 415.887 741.103 414.839C741.103 413.859 741.285 412.993 741.65 412.241C742.026 411.478 742.573 410.84 743.291 410.327C744.02 409.814 744.908 409.427 745.957 409.165C747.005 408.892 748.201 408.755 749.545 408.755H752.775ZM770.993 414.993C770.993 414.583 770.891 414.212 770.686 413.882C770.48 413.54 770.087 413.232 769.506 412.959C768.937 412.686 768.094 412.435 766.977 412.207C765.997 411.991 765.097 411.734 764.277 411.438C763.468 411.13 762.773 410.76 762.192 410.327C761.611 409.894 761.161 409.382 760.842 408.789C760.523 408.197 760.363 407.513 760.363 406.738C760.363 405.986 760.528 405.274 760.859 404.602C761.189 403.93 761.662 403.337 762.277 402.825C762.893 402.312 763.639 401.908 764.516 401.611C765.405 401.315 766.396 401.167 767.49 401.167C769.039 401.167 770.367 401.429 771.472 401.953C772.588 402.466 773.443 403.167 774.035 404.055C774.628 404.932 774.924 405.924 774.924 407.029H770.805C770.805 406.539 770.68 406.083 770.429 405.662C770.19 405.229 769.825 404.881 769.335 404.619C768.846 404.346 768.23 404.209 767.49 404.209C766.783 404.209 766.197 404.323 765.729 404.551C765.274 404.767 764.932 405.052 764.704 405.405C764.488 405.758 764.379 406.146 764.379 406.567C764.379 406.875 764.436 407.154 764.55 407.405C764.676 407.644 764.881 407.866 765.166 408.071C765.45 408.265 765.838 408.447 766.328 408.618C766.829 408.789 767.456 408.954 768.208 409.114C769.62 409.41 770.834 409.792 771.848 410.259C772.873 410.715 773.659 411.307 774.206 412.036C774.753 412.754 775.026 413.665 775.026 414.771C775.026 415.591 774.85 416.343 774.497 417.026C774.155 417.699 773.653 418.285 772.993 418.787C772.332 419.277 771.54 419.658 770.617 419.932C769.706 420.205 768.68 420.342 767.541 420.342C765.866 420.342 764.448 420.046 763.286 419.453C762.124 418.849 761.241 418.08 760.637 417.146C760.044 416.2 759.748 415.221 759.748 414.207H763.73C763.776 414.97 763.986 415.579 764.362 416.035C764.75 416.479 765.228 416.804 765.798 417.009C766.379 417.203 766.977 417.3 767.592 417.3C768.333 417.3 768.954 417.203 769.455 417.009C769.956 416.804 770.338 416.531 770.6 416.189C770.862 415.836 770.993 415.437 770.993 414.993ZM789.006 414.993C789.006 414.583 788.903 414.212 788.698 413.882C788.493 413.54 788.1 413.232 787.519 412.959C786.949 412.686 786.106 412.435 784.99 412.207C784.01 411.991 783.11 411.734 782.29 411.438C781.481 411.13 780.786 410.76 780.205 410.327C779.624 409.894 779.174 409.382 778.854 408.789C778.535 408.197 778.376 407.513 778.376 406.738C778.376 405.986 778.541 405.274 778.872 404.602C779.202 403.93 779.675 403.337 780.29 402.825C780.905 402.312 781.652 401.908 782.529 401.611C783.417 401.315 784.409 401.167 785.502 401.167C787.052 401.167 788.379 401.429 789.484 401.953C790.601 402.466 791.455 403.167 792.048 404.055C792.64 404.932 792.937 405.924 792.937 407.029H788.818C788.818 406.539 788.693 406.083 788.442 405.662C788.203 405.229 787.838 404.881 787.348 404.619C786.858 404.346 786.243 404.209 785.502 404.209C784.796 404.209 784.209 404.323 783.742 404.551C783.286 404.767 782.945 405.052 782.717 405.405C782.5 405.758 782.392 406.146 782.392 406.567C782.392 406.875 782.449 407.154 782.563 407.405C782.688 407.644 782.893 407.866 783.178 408.071C783.463 408.265 783.85 408.447 784.34 408.618C784.842 408.789 785.468 408.954 786.22 409.114C787.633 409.41 788.846 409.792 789.86 410.259C790.886 410.715 791.672 411.307 792.219 412.036C792.766 412.754 793.039 413.665 793.039 414.771C793.039 415.591 792.862 416.343 792.509 417.026C792.167 417.699 791.666 418.285 791.005 418.787C790.345 419.277 789.553 419.658 788.63 419.932C787.718 420.205 786.693 420.342 785.554 420.342C783.879 420.342 782.46 420.046 781.298 419.453C780.136 418.849 779.253 418.08 778.649 417.146C778.057 416.2 777.761 415.221 777.761 414.207H781.743C781.788 414.97 781.999 415.579 782.375 416.035C782.762 416.479 783.241 416.804 783.811 417.009C784.392 417.203 784.99 417.3 785.605 417.3C786.346 417.3 786.966 417.203 787.468 417.009C787.969 416.804 788.351 416.531 788.613 416.189C788.875 415.836 789.006 415.437 789.006 414.993ZM804.797 420.342C803.43 420.342 802.194 420.12 801.088 419.675C799.995 419.22 799.06 418.587 798.286 417.778C797.522 416.969 796.936 416.018 796.525 414.924C796.115 413.831 795.91 412.651 795.91 411.387V410.703C795.91 409.256 796.121 407.946 796.542 406.772C796.964 405.599 797.551 404.596 798.303 403.765C799.055 402.922 799.943 402.278 800.969 401.833C801.994 401.389 803.105 401.167 804.301 401.167C805.623 401.167 806.779 401.389 807.771 401.833C808.762 402.278 809.582 402.904 810.231 403.713C810.892 404.511 811.382 405.462 811.701 406.567C812.032 407.673 812.197 408.892 812.197 410.225V411.985H797.91V409.028H808.129V408.704C808.107 407.963 807.958 407.268 807.685 406.619C807.423 405.969 807.019 405.445 806.472 405.046C805.925 404.648 805.196 404.448 804.284 404.448C803.601 404.448 802.991 404.596 802.456 404.893C801.931 405.177 801.493 405.593 801.14 406.14C800.786 406.687 800.513 407.348 800.319 408.123C800.137 408.886 800.046 409.746 800.046 410.703V411.387C800.046 412.196 800.154 412.948 800.371 413.643C800.598 414.326 800.929 414.924 801.362 415.437C801.795 415.95 802.319 416.354 802.934 416.65C803.549 416.935 804.25 417.078 805.036 417.078C806.027 417.078 806.91 416.878 807.685 416.479C808.46 416.081 809.132 415.517 809.702 414.788L811.872 416.89C811.473 417.471 810.955 418.029 810.317 418.564C809.679 419.089 808.898 419.516 807.976 419.846C807.064 420.177 806.005 420.342 804.797 420.342ZM825.783 414.993C825.783 414.583 825.681 414.212 825.476 413.882C825.271 413.54 824.877 413.232 824.296 412.959C823.727 412.686 822.884 412.435 821.767 412.207C820.787 411.991 819.887 411.734 819.067 411.438C818.258 411.13 817.563 410.76 816.982 410.327C816.401 409.894 815.951 409.382 815.632 408.789C815.313 408.197 815.153 407.513 815.153 406.738C815.153 405.986 815.319 405.274 815.649 404.602C815.979 403.93 816.452 403.337 817.067 402.825C817.683 402.312 818.429 401.908 819.306 401.611C820.195 401.315 821.186 401.167 822.28 401.167C823.829 401.167 825.157 401.429 826.262 401.953C827.378 402.466 828.233 403.167 828.825 404.055C829.418 404.932 829.714 405.924 829.714 407.029H825.595C825.595 406.539 825.47 406.083 825.219 405.662C824.98 405.229 824.615 404.881 824.125 404.619C823.636 404.346 823.02 404.209 822.28 404.209C821.573 404.209 820.987 404.323 820.52 404.551C820.064 404.767 819.722 405.052 819.494 405.405C819.278 405.758 819.169 406.146 819.169 406.567C819.169 406.875 819.226 407.154 819.34 407.405C819.466 407.644 819.671 407.866 819.956 408.071C820.24 408.265 820.628 408.447 821.118 408.618C821.619 408.789 822.246 408.954 822.998 409.114C824.41 409.41 825.624 409.792 826.638 410.259C827.663 410.715 828.449 411.307 828.996 412.036C829.543 412.754 829.816 413.665 829.816 414.771C829.816 415.591 829.64 416.343 829.287 417.026C828.945 417.699 828.444 418.285 827.783 418.787C827.122 419.277 826.33 419.658 825.407 419.932C824.496 420.205 823.47 420.342 822.331 420.342C820.656 420.342 819.238 420.046 818.076 419.453C816.914 418.849 816.031 418.08 815.427 417.146C814.834 416.2 814.538 415.221 814.538 414.207H818.52C818.566 414.97 818.776 415.579 819.152 416.035C819.54 416.479 820.018 416.804 820.588 417.009C821.169 417.203 821.767 417.3 822.382 417.3C823.123 417.3 823.744 417.203 824.245 417.009C824.746 416.804 825.128 416.531 825.39 416.189C825.652 415.836 825.783 415.437 825.783 414.993ZM842.224 410.173V409.883C842.224 407.445 842.486 405.234 843.01 403.252C843.545 401.258 844.24 399.515 845.095 398.022C845.949 396.519 846.861 395.277 847.829 394.297C848.809 393.306 849.749 392.594 850.649 392.161L851.469 394.519C850.808 395.009 850.148 395.687 849.487 396.553C848.837 397.419 848.239 398.484 847.692 399.749C847.157 401.002 846.724 402.472 846.394 404.158C846.075 405.833 845.915 407.729 845.915 409.849V410.208C845.915 412.327 846.075 414.229 846.394 415.916C846.724 417.59 847.157 419.06 847.692 420.325C848.239 421.589 848.837 422.66 849.487 423.538C850.148 424.426 850.808 425.133 851.469 425.657L850.649 427.913C849.749 427.468 848.809 426.75 847.829 425.759C846.861 424.779 845.949 423.538 845.095 422.034C844.24 420.541 843.545 418.804 843.01 416.821C842.486 414.827 842.224 412.611 842.224 410.173ZM858.869 405.696H861.33C862.287 405.696 863.079 405.531 863.706 405.2C864.344 404.87 864.816 404.414 865.124 403.833C865.432 403.252 865.585 402.585 865.585 401.833C865.585 401.047 865.443 400.375 865.158 399.817C864.885 399.247 864.463 398.809 863.894 398.501C863.335 398.193 862.623 398.04 861.757 398.04C861.028 398.04 860.367 398.188 859.775 398.484C859.194 398.769 858.732 399.179 858.391 399.714C858.049 400.238 857.878 400.865 857.878 401.594H853.742C853.742 400.273 854.09 399.099 854.785 398.074C855.48 397.048 856.425 396.245 857.622 395.664C858.829 395.072 860.185 394.775 861.689 394.775C863.295 394.775 864.697 395.043 865.893 395.579C867.101 396.103 868.041 396.889 868.713 397.937C869.385 398.985 869.721 400.284 869.721 401.833C869.721 402.54 869.556 403.258 869.226 403.987C868.895 404.716 868.405 405.382 867.756 405.986C867.106 406.579 866.298 407.063 865.329 407.439C864.361 407.804 863.238 407.986 861.962 407.986H858.869V405.696ZM858.869 408.909V406.653H861.962C863.421 406.653 864.663 406.824 865.688 407.166C866.725 407.507 867.568 407.98 868.217 408.584C868.867 409.176 869.34 409.854 869.636 410.618C869.943 411.381 870.097 412.19 870.097 413.044C870.097 414.207 869.886 415.243 869.465 416.155C869.055 417.055 868.468 417.818 867.705 418.445C866.941 419.071 866.047 419.544 865.021 419.863C864.007 420.182 862.902 420.342 861.706 420.342C860.635 420.342 859.61 420.194 858.63 419.897C857.65 419.601 856.773 419.163 855.998 418.582C855.223 417.989 854.608 417.254 854.152 416.377C853.708 415.488 853.486 414.463 853.486 413.301H857.604C857.604 414.041 857.775 414.696 858.117 415.266C858.47 415.824 858.96 416.263 859.587 416.582C860.225 416.901 860.954 417.061 861.774 417.061C862.64 417.061 863.387 416.907 864.013 416.599C864.64 416.292 865.118 415.836 865.449 415.232C865.791 414.628 865.961 413.899 865.961 413.044C865.961 412.076 865.773 411.29 865.397 410.686C865.021 410.082 864.486 409.638 863.791 409.353C863.096 409.057 862.276 408.909 861.33 408.909H858.869ZM878.249 408.43L874.968 407.627L876.318 395.117H889.733V398.604H879.736L879.052 404.705C879.44 404.477 879.975 404.255 880.659 404.038C881.342 403.81 882.123 403.696 883 403.696C884.174 403.696 885.222 403.89 886.145 404.277C887.079 404.653 887.871 405.206 888.52 405.935C889.169 406.653 889.665 407.53 890.007 408.567C890.349 409.592 890.52 410.749 890.52 412.036C890.52 413.187 890.349 414.264 890.007 415.266C889.676 416.269 889.175 417.152 888.503 417.915C887.831 418.678 886.982 419.277 885.957 419.709C884.943 420.131 883.741 420.342 882.351 420.342C881.314 420.342 880.317 420.194 879.36 419.897C878.414 419.59 877.565 419.14 876.813 418.547C876.062 417.944 875.458 417.203 875.002 416.326C874.546 415.437 874.284 414.417 874.216 413.267H878.249C878.352 414.076 878.574 414.765 878.916 415.334C879.269 415.893 879.736 416.32 880.317 416.616C880.898 416.912 881.57 417.061 882.333 417.061C883.028 417.061 883.627 416.941 884.128 416.702C884.629 416.451 885.045 416.098 885.375 415.642C885.717 415.175 885.968 414.628 886.127 414.001C886.298 413.375 886.384 412.68 886.384 411.917C886.384 411.187 886.287 410.521 886.093 409.917C885.911 409.313 885.632 408.789 885.256 408.345C884.891 407.9 884.43 407.559 883.872 407.319C883.313 407.069 882.67 406.943 881.94 406.943C880.961 406.943 880.209 407.086 879.685 407.371C879.172 407.655 878.693 408.009 878.249 408.43ZM902.346 407.729V411.011H893.305V407.729H902.346ZM922.854 411.13V414.412H904.909L904.772 411.934L915.505 395.117H918.803L915.231 401.235L909.062 411.13H922.854ZM919.743 395.117V420H915.625V395.117H919.743ZM929.929 408.43L926.647 407.627L927.998 395.117H941.413V398.604H931.416L930.732 404.705C931.119 404.477 931.655 404.255 932.338 404.038C933.022 403.81 933.802 403.696 934.68 403.696C935.853 403.696 936.901 403.89 937.824 404.277C938.758 404.653 939.55 405.206 940.2 405.935C940.849 406.653 941.345 407.53 941.687 408.567C942.028 409.592 942.199 410.749 942.199 412.036C942.199 413.187 942.028 414.264 941.687 415.266C941.356 416.269 940.855 417.152 940.183 417.915C939.51 418.678 938.662 419.277 937.636 419.709C936.622 420.131 935.42 420.342 934.03 420.342C932.993 420.342 931.997 420.194 931.04 419.897C930.094 419.59 929.245 419.14 928.493 418.547C927.741 417.944 927.137 417.203 926.682 416.326C926.226 415.437 925.964 414.417 925.896 413.267H929.929C930.031 414.076 930.253 414.765 930.595 415.334C930.948 415.893 931.416 416.32 931.997 416.616C932.578 416.912 933.25 417.061 934.013 417.061C934.708 417.061 935.306 416.941 935.808 416.702C936.309 416.451 936.725 416.098 937.055 415.642C937.397 415.175 937.648 414.628 937.807 414.001C937.978 413.375 938.063 412.68 938.063 411.917C938.063 411.187 937.967 410.521 937.773 409.917C937.591 409.313 937.312 408.789 936.936 408.345C936.571 407.9 936.11 407.559 935.551 407.319C934.993 407.069 934.349 406.943 933.62 406.943C932.64 406.943 931.888 407.086 931.364 407.371C930.852 407.655 930.373 408.009 929.929 408.43ZM953.684 409.883V410.173C953.684 412.577 953.41 414.771 952.863 416.753C952.328 418.735 951.627 420.479 950.761 421.982C949.907 423.486 948.978 424.74 947.976 425.742C946.984 426.745 946.033 427.468 945.122 427.913L944.284 425.657C944.945 425.155 945.6 424.466 946.25 423.589C946.91 422.723 947.508 421.646 948.044 420.359C948.591 419.083 949.024 417.602 949.343 415.916C949.673 414.229 949.838 412.327 949.838 410.208V409.849C949.838 407.729 949.667 405.827 949.326 404.141C948.995 402.443 948.551 400.962 947.993 399.697C947.434 398.421 946.831 397.345 946.181 396.467C945.532 395.59 944.899 394.906 944.284 394.417L945.122 392.161C946.033 392.594 946.984 393.311 947.976 394.314C948.978 395.317 949.907 396.576 950.761 398.091C951.627 399.595 952.328 401.338 952.863 403.32C953.41 405.303 953.684 407.49 953.684 409.883Z" fill="white"/>
<path d="M327 347C327 347.552 327.448 348 328 348L337 348C337.552 348 338 347.552 338 347C338 346.448 337.552 346 337 346L329 346L329 338C329 337.448 328.552 337 328 337C327.448 337 327 337.448 327 338L327 347ZM450.293 223.293L327.293 346.293L328.707 347.707L451.707 224.707L450.293 223.293Z" fill="black"/>
<path d="M718 349C718.552 349 719 348.552 719 348V339C719 338.448 718.552 338 718 338C717.448 338 717 338.448 717 339V347L709 347C708.448 347 708 347.448 708 348C708 348.552 708.448 349 709 349L718 349ZM593.293 224.707L717.293 348.707L718.707 347.293L594.707 223.293L593.293 224.707Z" fill="black"/>
<defs>
<filter id="filter0_d_460_6596" x="212" y="99" width="593" height="110" filterUnits="userSpaceOnUse" color-interpolation-filters="sRGB">
<feFlood flood-opacity="0" result="BackgroundImageFix"/>
<feColorMatrix in="SourceAlpha" type="matrix" values="0 0 0 0 0 0 0 0 0 0 0 0 0 0 0 0 0 0 127 0" result="hardAlpha"/>
<feOffset dy="4"/>
<feGaussianBlur stdDeviation="2"/>
<feComposite in2="hardAlpha" operator="out"/>
<feColorMatrix type="matrix" values="0 0 0 0 0 0 0 0 0 0 0 0 0 0 0 0 0 0 0.25 0"/>
<feBlend mode="normal" in2="BackgroundImageFix" result="effect1_dropShadow_460_6596"/>
<feBlend mode="normal" in="SourceGraphic" in2="effect1_dropShadow_460_6596" result="shape"/>
</filter>
<filter id="filter1_d_460_6596" x="48" y="357" width="419" height="110" filterUnits="userSpaceOnUse" color-interpolation-filters="sRGB">
<feFlood flood-opacity="0" result="BackgroundImageFix"/>
<feColorMatrix in="SourceAlpha" type="matrix" values="0 0 0 0 0 0 0 0 0 0 0 0 0 0 0 0 0 0 127 0" result="hardAlpha"/>
<feOffset dy="4"/>
<feGaussianBlur stdDeviation="2"/>
<feComposite in2="hardAlpha" operator="out"/>
<feColorMatrix type="matrix" values="0 0 0 0 0 0 0 0 0 0 0 0 0 0 0 0 0 0 0.25 0"/>
<feBlend mode="normal" in2="BackgroundImageFix" result="effect1_dropShadow_460_6596"/>
<feBlend mode="normal" in="SourceGraphic" in2="effect1_dropShadow_460_6596" result="shape"/>
</filter>
<filter id="filter2_d_460_6596" x="551" y="357" width="419" height="110" filterUnits="userSpaceOnUse" color-interpolation-filters="sRGB">
<feFlood flood-opacity="0" result="BackgroundImageFix"/>
<feColorMatrix in="SourceAlpha" type="matrix" values="0 0 0 0 0 0 0 0 0 0 0 0 0 0 0 0 0 0 127 0" result="hardAlpha"/>
<feOffset dy="4"/>
<feGaussianBlur stdDeviation="2"/>
<feComposite in2="hardAlpha" operator="out"/>
<feColorMatrix type="matrix" values="0 0 0 0 0 0 0 0 0 0 0 0 0 0 0 0 0 0 0.25 0"/>
<feBlend mode="normal" in2="BackgroundImageFix" result="effect1_dropShadow_460_6596"/>
<feBlend mode="normal" in="SourceGraphic" in2="effect1_dropShadow_460_6596" result="shape"/>
</filter>
</defs>
</svg>
